<svg width="646" height="211" viewBox="0 0 646 211" fill="none" xmlns="http://www.w3.org/2000/svg">
<path d="M12.857 210.231C14.7567 210.228 16.6329 209.805 18.3551 208.992C20.0486 208.233 21.5512 207.096 22.7505 205.665L19.4758 202.336C18.6721 203.317 17.6739 204.116 16.5461 204.68C15.4396 205.224 14.225 205.502 12.9957 205.494C11.9584 205.505 10.9291 205.308 9.96752 204.913C9.00594 204.518 8.13111 203.934 7.39366 203.194C6.68356 202.469 6.1225 201.608 5.7431 200.662C5.33634 199.657 5.13151 198.58 5.14064 197.494C5.12956 196.397 5.32856 195.309 5.72659 194.289C6.09813 193.341 6.64873 192.475 7.34745 191.741C8.04816 191.013 8.88623 190.435 9.81174 190.042C10.7762 189.626 11.8142 189.415 12.862 189.422C14.1256 189.417 15.3729 189.711 16.5048 190.281C17.6748 190.877 18.6992 191.73 19.5039 192.777L22.8826 189.343C21.6946 187.88 20.183 186.722 18.4706 185.963C16.7108 185.138 14.7957 184.709 12.857 184.705C11.1254 184.694 9.40868 185.031 7.80631 185.697C6.28819 186.321 4.90206 187.235 3.72281 188.389C2.55884 189.543 1.63304 190.921 0.999371 192.443C0.342479 194.037 0.00285052 195.748 1.78666e-05 197.476C-0.00281478 199.205 0.331204 200.917 0.982866 202.514C1.60903 204.03 2.52899 205.402 3.68814 206.551C4.86795 207.704 6.25466 208.617 7.77329 209.241C9.38651 209.91 11.1146 210.246 12.857 210.231ZM78.1815 210.268C79.9073 210.281 81.6183 209.944 83.2141 209.276C84.7255 208.654 86.1007 207.735 87.2605 206.572C88.4202 205.408 89.3416 204.023 89.9715 202.497C90.6311 200.912 90.9709 199.208 90.9709 197.487C90.9709 195.767 90.6311 194.063 89.9715 192.478C89.3416 190.951 88.4203 189.567 87.2606 188.403C86.1008 187.24 84.7256 186.32 83.2141 185.698C79.9968 184.377 76.3992 184.377 73.1819 185.698C71.6704 186.32 70.2952 187.24 69.1354 188.403C67.9757 189.567 67.0544 190.951 66.4245 192.478C65.7654 194.063 65.4258 195.767 65.4258 197.487C65.4258 199.208 65.7654 200.912 66.4245 202.497C67.0544 204.023 67.9758 205.408 69.1355 206.572C70.2953 207.735 71.6705 208.654 73.1819 209.276C74.7674 209.941 76.4677 210.277 78.1831 210.266L78.1815 210.268ZM78.1815 205.559C77.1687 205.568 76.1648 205.367 75.2313 204.968C74.2978 204.569 73.4544 203.981 72.7528 203.24C72.0607 202.497 71.5165 201.626 71.1501 200.674C70.3684 198.617 70.3684 196.339 71.1501 194.283C71.5196 193.337 72.0635 192.473 72.7528 191.734C73.4544 190.993 74.2978 190.405 75.2313 190.007C76.1648 189.608 77.1687 189.407 78.1815 189.415C79.224 189.407 80.2569 189.618 81.2152 190.035C82.1303 190.428 82.9569 191.007 83.6449 191.734C84.3341 192.473 84.8781 193.337 85.2476 194.283C86.0289 196.339 86.0289 198.617 85.2476 200.674C84.8812 201.626 84.337 202.497 83.6449 203.24C82.9569 203.968 82.1303 204.546 81.2152 204.94C80.2573 205.356 79.225 205.566 78.1831 205.558L78.1815 205.559ZM153.951 209.879V205.348H140.746V185.096H135.752V209.876L153.951 209.879ZM216.968 209.879V205.348H203.763V185.096H198.765V209.876L216.968 209.879ZM280.465 209.879V205.419H266.78V199.54H275.71V195.22H266.78V189.561H280.328V185.101H261.779V209.881L280.465 209.879ZM335.898 210.233C337.797 210.23 339.673 209.807 341.396 208.994C343.089 208.234 344.592 207.097 345.791 205.667L342.515 202.34C341.711 203.321 340.713 204.12 339.585 204.684C338.479 205.227 337.264 205.506 336.035 205.497C334.997 205.509 333.969 205.311 333.007 204.916C332.046 204.521 331.171 203.937 330.434 203.197C329.724 202.472 329.163 201.612 328.784 200.665C328.377 199.661 328.171 198.584 328.18 197.497C328.169 196.401 328.368 195.312 328.767 194.293C329.137 193.344 329.688 192.478 330.386 191.744C331.087 191.016 331.925 190.438 332.851 190.045C333.815 189.629 334.853 189.419 335.901 189.425C337.169 189.421 338.42 189.717 339.555 190.291C340.725 190.887 341.75 191.74 342.554 192.787L345.933 189.353C344.745 187.89 343.233 186.732 341.521 185.973C339.762 185.148 337.847 184.719 335.909 184.715C334.177 184.704 332.461 185.04 330.858 185.707C329.34 186.331 327.953 187.244 326.773 188.397C325.609 189.552 324.682 190.93 324.048 192.451C323.391 194.046 323.052 195.757 323.049 197.485C323.046 199.213 323.38 200.925 324.032 202.522C324.658 204.038 325.578 205.411 326.737 206.559C327.917 207.712 329.304 208.625 330.822 209.25C332.433 209.914 334.158 210.247 335.898 210.231V210.233ZM402.016 209.879V189.626H410.115V185.094H388.881V189.626H397.016V209.876L402.016 209.879ZM459.274 209.879V185.099H454.276V209.879H459.274ZM516.844 210.269C518.57 210.282 520.281 209.945 521.877 209.278C523.388 208.656 524.763 207.737 525.923 206.573C527.083 205.41 528.004 204.025 528.634 202.499C529.293 200.913 529.633 199.21 529.633 197.489C529.633 195.768 529.293 194.065 528.634 192.479C528.004 190.953 527.083 189.568 525.923 188.405C524.763 187.241 523.388 186.322 521.877 185.7C518.66 184.379 515.063 184.379 511.846 185.7C510.336 186.323 508.961 187.242 507.802 188.406C506.642 189.569 505.721 190.954 505.091 192.479C504.43 194.065 504.09 195.768 504.09 197.489C504.09 199.21 504.43 200.913 505.091 202.499C505.721 204.024 506.642 205.409 507.802 206.572C508.961 207.736 510.336 208.655 511.846 209.278C513.431 209.942 515.13 210.278 516.844 210.266V210.269ZM516.844 205.561C515.807 205.57 514.78 205.359 513.829 204.942C512.92 204.545 512.099 203.967 511.415 203.242C510.722 202.5 510.178 201.628 509.811 200.675C509.03 198.619 509.03 196.341 509.811 194.284C510.181 193.339 510.725 192.474 511.415 191.736C512.099 191.011 512.92 190.433 513.829 190.037C514.78 189.619 515.807 189.408 516.844 189.417C517.886 189.409 518.919 189.62 519.876 190.037C520.792 190.43 521.619 191.008 522.308 191.736C522.997 192.474 523.541 193.339 523.91 194.284C524.693 196.341 524.693 198.619 523.91 200.675C523.544 201.628 523 202.499 522.308 203.242C521.619 203.97 520.792 204.548 519.876 204.942C518.918 205.357 517.886 205.567 516.844 205.558V205.561ZM579.135 209.881V193.305L591.442 209.881H595.854V185.101H591.166V201.137L579.17 185.101H574.411V209.881H579.135Z" fill="white"/>
<path d="M309.063 0.727615H276.924V158.617H352.077V124.748H309.063V0.727615Z" fill="white"/>
<path d="M389.927 0.726746H359.012V102.178C359.382 130.757 389.32 172.31 435.536 154.348V116.277C421.774 132.487 389.32 127.578 389.927 95.4942V0.726746Z" fill="white"/>
<path d="M440.426 158.614H472.857V0.724609H440.426V158.614Z" fill="white"/>
<path d="M541.317 0.727615H503.224L488.799 25.3631C478.251 38.4167 478.566 92.6866 533.577 93.7426H551.865C573.378 98.3259 569.514 125.815 548.024 124.748H481.396V158.617H548.349C613.92 156.472 617.055 62.0299 550.832 62.0299L532.162 61.5244C517.356 60.4459 514.176 46.7071 519.299 38.4166L541.317 0.727615Z" fill="white"/>
<path d="M548.021 0.72654L528.789 33.1133H580.779L599.808 0.72654H548.021Z" fill="white"/>
<path d="M102.766 0.000823975L0 158.609H36.6668L76.6812 96.8802H102.766V0.000823975Z" fill="white"/>
<path d="M138.721 0.724609H107.771V158.625H138.722L138.721 0.724609Z" fill="white"/>
<path d="M268.232 32.9683V0.727615H230.778L192.988 39.4726V158.617H226.802V32.9571L268.232 32.9683Z" fill="white"/>
<path d="M191.712 32.9575L223.425 0.728046H147.328V32.9688L191.712 32.9575Z" fill="white"/>
<path fill-rule="evenodd" clip-rule="evenodd" d="M628.729 22.301H626.25V5.99023H632.468C636.319 5.99023 638.224 7.41502 638.224 10.6258C638.224 13.5432 636.396 14.8103 633.996 15.1184L638.626 22.301H635.871L631.559 15.2284H628.729V22.301ZM631.687 13.1348C633.781 13.1348 635.64 12.99 635.64 10.4778C635.64 8.4644 633.812 8.08666 632.101 8.08666H628.731V13.1348H631.687V13.1348Z" fill="white"/>
<path fill-rule="evenodd" clip-rule="evenodd" d="M617.354 14.1011C617.354 5.98703 623.942 0 631.715 0C639.429 0 646 5.98703 646 14.1011C646 22.2978 639.429 28.2793 631.715 28.2793C623.942 28.2793 617.354 22.2978 617.354 14.1011ZM631.714 25.922C638.121 25.922 643.151 20.9105 643.151 14.1001C643.151 7.41079 638.121 2.35162 631.714 2.35162C625.252 2.35162 620.202 7.41079 620.202 14.1001C620.202 20.9105 625.252 25.922 631.714 25.922V25.922Z" fill="white"/>
</svg>
