<svg width="481" height="215" viewBox="0 0 481 215" fill="none" xmlns="http://www.w3.org/2000/svg">
<g clip-path="url(#clip0_786_48)">
<path d="M235.326 23.7623C236.992 26.9102 267.144 83.929 267.144 83.929H279.358L235.326 0.675697L191.299 83.929H203.507C203.507 83.929 233.502 27.2217 235.326 23.7623Z" fill="white"/>
<path d="M328.143 176.164H315.929C315.929 176.164 328.811 200.513 330.089 202.938C326.213 202.938 144.439 202.938 140.562 202.938C142.182 199.868 154.721 176.164 154.721 176.164H142.518L122.25 214.473H348.403L328.143 176.164Z" fill="white"/>
<path d="M262.884 90.5419H227.469C220.729 90.5419 213.045 98.0558 213.045 104.638V134.129C213.045 140.714 220.729 148.222 227.469 148.222H262.884C269.62 148.222 277.3 140.714 277.3 134.129V104.638C277.3 98.0558 269.62 90.5419 262.884 90.5419ZM260.994 104.068C260.994 104.758 261.04 133.589 261.04 134.271C260.403 134.271 230.042 134.271 229.405 134.271C229.405 133.589 229.36 104.758 229.36 104.068C230.002 104.068 260.352 104.068 260.994 104.068Z" fill="white"/>
<path d="M392.943 90.3637H361.206C354.622 90.3637 347.116 97.772 347.116 104.271V134.112C347.116 140.608 354.622 148.016 361.206 148.016H392.943C399.525 148.016 407.036 140.608 407.036 134.112V124.752L392.036 124.73C392.036 124.73 392.036 132.922 392.036 134.407C390.512 134.407 364.287 134.407 362.763 134.407C362.763 132.749 362.763 105.631 362.763 103.973C364.287 103.973 390.512 103.973 392.036 103.973C392.036 105.419 392.036 112.541 392.036 112.541L407.036 112.51V104.271C407.036 97.7719 399.525 90.3636 392.943 90.3636" fill="white"/>
<path d="M109.329 127.338C110.475 127.338 111.622 127.338 111.622 127.338C118.24 127.338 124.492 121.165 124.492 114.629V103.061C124.492 96.5261 118.24 90.35 111.622 90.35L66.7236 90.3415V148.027H82.1416V103.006C85.5143 103.006 107.317 103.006 107.317 103.006C109.344 103.006 110.068 104.713 110.068 106.176V111.921C110.068 113.701 109.084 114.685 107.317 114.685H89.1167L89.4122 126.949L112.631 148H132.848C132.848 148 112.437 130.069 109.329 127.338" fill="white"/>
<path d="M325.368 127.533C326.518 127.533 327.669 127.533 327.669 127.533C334.279 127.533 340.535 121.359 340.535 114.824V103.256C340.535 96.7211 334.279 90.5446 327.669 90.5446L282.765 90.5364V148.222H298.185V103.2C301.558 103.2 323.349 103.2 323.349 103.2C325.386 103.2 326.106 104.908 326.106 106.371V112.116C326.106 113.896 325.128 114.88 323.349 114.88H305.158L305.456 127.144L328.668 148.194H348.885C348.885 148.194 328.475 130.264 325.368 127.533Z" fill="white"/>
<path d="M62.622 90.3636H0.425964V103.656C0.425964 103.656 19.8179 103.656 23.3845 103.656V147.922H39.6686V103.656C43.2505 103.656 62.622 103.656 62.622 103.656V90.3636Z" fill="white"/>
<path d="M150.36 90.3833H134.045V148H150.36V90.3833Z" fill="white"/>
<path d="M208.893 103.656V90.3637L159.307 90.3583V148.022H175.642V125.519C179.698 125.519 204.098 125.519 204.098 125.519V112.232C204.098 112.232 179.698 112.232 175.642 112.232V103.656C180.019 103.656 208.893 103.656 208.893 103.656Z" fill="white"/>
<path d="M464.722 134.724C464.722 134.724 433.882 134.724 428.68 134.724V125.519C432.935 125.519 453.82 125.519 453.82 125.519V112.232C453.82 112.232 432.935 112.232 428.68 112.232V103.656C433.837 103.656 464.148 103.656 464.148 103.656V90.3636H412.008V148.033L464.722 148.016V134.724" fill="white"/>
<path d="M469.921 91.9156V98.4143H468.509V91.9156H466.138V90.386H472.295V91.9156H469.921Z" fill="white"/>
<path d="M475.29 90.386L476.936 96.4676L478.592 90.386H480.645V98.4143H479.294V94.2765C479.294 94.2765 479.304 94.0734 479.304 93.9732C479.32 93.3698 479.336 92.6661 479.346 92.0655L477.614 98.4143H476.257L474.525 92.0655C474.546 92.6077 474.577 93.8092 474.577 94.3069V98.4143H473.226V90.386H475.29Z" fill="white"/>
<path d="M293.395 169.812L286.357 159.145L285.457 159.585L285.442 169.812H282.095V155.294H287.341L292.861 163.772L293.771 163.439L293.797 155.294H297.165V169.812H293.395" fill="white"/>
<path d="M332.617 169.812L325.582 159.145L324.679 159.585L324.668 169.812H321.322V155.294H326.57L332.082 163.772L332.998 163.439L333.019 155.294H336.387V169.812H332.617Z" fill="white"/>
<path d="M400.801 169.812L393.763 159.145L392.863 159.585L392.847 169.812H389.5V155.294H394.746L400.266 163.772L401.182 163.439L401.203 155.294H404.57V169.812H400.801Z" fill="white"/>
<path d="M307.595 169.812V155.294H311.32V169.812H307.595Z" fill="white"/>
<path d="M354.236 158.272V169.812H350.338V158.272H345.009V155.294H359.351V158.272H354.236Z" fill="white"/>
<path d="M371.672 158.272V161.231H380.792V163.811H371.672V166.837H380.771V169.812H367.981V155.294H380.831V158.272H371.672Z" fill="white"/>
<path d="M425.333 166.837H417.384V158.272H425.333V166.837ZM429.129 166.167V158.795C429.129 156.459 427.829 155.294 425.761 155.294H413.802V169.812H425.654C427.978 169.812 429.129 168.667 429.129 166.167Z" fill="white"/>
<path d="M448.908 166.837H441.509V158.272H448.908V166.837ZM452.505 166.295V158.814C452.505 156.253 451.527 155.294 449.208 155.294H441.189C438.911 155.294 437.868 156.295 437.868 158.814V166.295C437.868 168.748 438.953 169.812 441.189 169.812H449.208C451.464 169.812 452.505 168.77 452.505 166.295Z" fill="white"/>
<path d="M172.284 170.163H160.479V167.018H171.708V163.906H163.908C161.798 163.906 160.586 163.339 160.586 161.431V157.338C160.586 155.653 161.564 154.907 164.825 154.907H174.118V158.039H164.101V161.189H172.223C174.455 161.189 175.183 162.196 175.183 163.837V168C175.183 169.245 174.353 170.163 172.284 170.163Z" fill="white"/>
<path d="M221.62 170.191H213.137C210.895 170.191 209.81 169.051 209.81 166.47V158.603C209.81 155.892 210.767 154.907 213.264 154.907H224.753V158.039H213.432V167.035H221.386V164.19H215.924V161.47H224.922V166.47C224.922 169.051 223.837 170.191 221.62 170.191Z" fill="white"/>
<path d="M246.168 161.387H238.459V158.039H246.168V161.387ZM249.771 170.163V157.51C249.771 155.933 248.838 154.907 246.81 154.907H237.843C235.815 154.907 234.857 155.933 234.857 157.51V170.163H238.459V164.167H246.168V170.163H249.771Z" fill="white"/>
<path d="M200.052 158.044V154.919H188.568C186.071 154.919 185.109 155.903 185.109 158.617V166.481C185.109 169.062 186.199 170.202 188.441 170.202H200.002L200.037 167.049H188.736V163.906H196.904V161.189H188.736V158.044H200.052Z" fill="white"/>
<path d="M144.465 162.557C144.465 163.959 143.42 165.099 142.131 165.099C140.847 165.099 139.803 163.959 139.803 162.557C139.803 161.15 140.847 160.01 142.131 160.01C143.42 160.01 144.465 161.15 144.465 162.557Z" fill="white"/>
<path d="M267.817 162.557C267.817 163.959 266.774 165.099 265.488 165.099C264.199 165.099 263.156 163.959 263.156 162.557C263.156 161.15 264.199 160.01 265.488 160.01C266.774 160.01 267.817 161.15 267.817 162.557Z" fill="white"/>
<path d="M24.5361 169.907L17.4997 159.079L16.5979 159.523L16.5826 169.907H13.2351V155.169H18.4831L24.0011 163.775L24.9131 163.436L24.9386 155.169H28.3066V169.907H24.5361Z" fill="white"/>
<path d="M120.64 166.932H113.242V158.367H120.64V166.932ZM124.237 166.39V158.909C124.237 156.348 123.259 155.389 120.941 155.389H112.921C110.643 155.389 109.599 156.39 109.599 158.909V166.39C109.599 168.842 110.684 169.907 112.921 169.907H120.941C123.198 169.907 124.237 168.864 124.237 166.39Z" fill="white"/>
<path d="M91.17 169.907C88.7906 169.907 87.3895 168.681 87.3895 166.192V158.978C87.3895 156.631 88.9382 155.169 91.3127 155.169H101.462V158.194H91.0273V166.887H101.462V169.907H91.17Z" fill="white"/>
<path d="M76.3432 169.907V162.416L76.333 158.611H75.0083L71.9206 169.907H68.4916L65.3835 158.611H64.0792L64.0894 169.907H60.5942V155.169H67.0191L69.5616 165.58H70.8557L73.4186 155.169H79.8179V169.907H76.3432" fill="white"/>
<path d="M48.6868 161.426H40.9781V158.194H48.6868V161.426ZM51.9935 169.907V157.683C51.9935 156.159 51.0612 155.169 49.0335 155.169H40.0661C38.038 155.169 37.0802 156.159 37.0802 157.683V169.907H40.6824V164.112H48.3915V169.907H51.9935Z" fill="white"/>
</g>
<defs>
<clipPath id="clip0_786_48">
<rect width="480" height="213.569" fill="white" transform="translate(0.425964 0.675781)"/>
</clipPath>
</defs>
</svg>
