<svg width="596" height="199" viewBox="0 0 596 199" fill="none" xmlns="http://www.w3.org/2000/svg">
<path d="M61.88 39.059V2.361H35.513V39.059H39.553V86.702C39.553 94.428 39.553 98.506 39.128 101.082C38.703 105.159 36.364 107.519 32.962 107.519C29.56 107.519 27.432 104.944 26.795 100.652C26.582 98.077 26.369 93.355 26.369 87.346V39.06H31.899V2.361H0V39.059H6.805V116.533C6.805 128.551 8.506 135.204 12.972 140.14C17.437 145.076 24.242 147.866 31.472 147.866C46.57 147.866 54.651 137.35 54.651 118.25V39.059H61.88ZM142.48 39.059V2.361H113.985V39.059H121.64V102.154L101.226 2.361H69.328V39.059H76.558V106.876H69.328V145.506H98.674V106.876H90.38V32.62L113.984 145.504H135.461V39.06L142.48 39.059ZM184.157 145.505V106.875H177.352V39.06H184.157V2.361H150.133V39.059H157.15V106.876H150.133V145.506L184.157 145.505ZM254.438 39.059V2.361H226.793V39.059H235.087L226.793 113.314L216.586 39.059H222.753V2.361H191.068V39.059H197.235L211.908 145.505H235.087L249.12 39.06L254.438 39.059ZM318.712 145.505V86.488H300.425V106.876H286.815V79.406H304.678V64.598H286.815V39.059H300.425V59.661H317.224V2.361H260.234V39.059H267.251V106.876H260.234V145.506L318.712 145.505ZM399.2 112.455C399.2 106.446 398.988 100.867 398.137 92.068H393.246V94.428C393.246 104.73 392.183 108.163 389.206 108.163C386.866 108.163 385.803 106.446 385.591 102.369L385.165 94.643L384.74 84.985C384.527 78.762 381.55 74.899 376.234 73.396C374.746 72.967 374.32 72.753 369.854 72.109C370.918 71.894 371.556 71.679 372.194 71.465C385.378 68.46 388.78 62.022 388.78 40.347C388.78 10.087 382.826 2.361 359.435 2.361H327.538V39.059H334.555V106.876H327.538V145.506H361.561V106.876H354.757V79.62C355.607 79.62 356.245 79.406 356.67 79.406C366.24 79.406 368.153 81.766 368.153 93.784C368.153 95.072 367.941 97.647 367.941 101.725V110.953C367.941 127.263 368.366 132.2 370.28 137.565C372.406 143.359 376.872 146.578 383.252 146.578C394.947 146.578 399.2 137.136 399.2 112.455V112.455ZM368.791 53.223C368.791 63.095 366.452 65.456 356.671 65.456H354.757V39.059H357.096C366.665 39.059 368.791 41.634 368.791 53.223ZM459.029 109.236C459.029 92.282 457.328 82.839 452.862 76.83C449.034 71.465 444.782 68.031 434.787 61.593C427.344 56.872 424.792 52.794 424.792 46.785C424.792 42.063 426.919 39.274 430.534 39.274C434.574 39.274 435.85 41.42 436.275 49.146L436.488 52.794H454.988V2.361H437.551V12.447C433.724 3.22 429.896 0 423.091 0C409.694 0 403.315 12.662 403.315 38.415C403.315 57.301 407.142 66.315 419.263 74.685L429.471 81.766C434.787 85.415 437.126 90.136 437.126 97.433C437.126 104.086 434.999 107.519 430.746 107.519C425.43 107.519 423.516 103.656 423.516 93.355V91.21H405.016V145.506H423.516V135.42C427.769 144.004 432.873 147.867 439.89 147.867C452.862 147.867 459.029 135.205 459.029 109.237V109.236ZM531.04 145.505V106.875H524.661L509.988 2.362H483.832L469.585 106.877H462.78V145.507H491.913V106.877H483.833L486.172 87.991H501.27L503.396 106.877H495.953V145.507L531.04 145.505ZM499.356 73.182H488.086L493.826 29.187L499.356 73.182ZM595.854 145.505V79.405H577.78V106.875H564.383V39.06H571.613V2.361H537.164V39.059H544.182V106.876H537.164V145.506L595.854 145.505Z" fill="white"/>
<path d="M12.857 198.911C14.7567 198.908 16.6329 198.485 18.3551 197.672C20.0486 196.913 21.5512 195.775 22.7505 194.345V194.345L19.4758 191.016C18.6721 191.997 17.6739 192.796 16.5461 193.36C15.4396 193.904 14.225 194.182 12.9957 194.174C11.9584 194.185 10.9291 193.988 9.96752 193.593C9.00594 193.198 8.13111 192.613 7.39366 191.873C6.68356 191.149 6.1225 190.288 5.7431 189.342C5.33634 188.337 5.13151 187.26 5.14064 186.174C5.12956 185.077 5.32856 183.989 5.72659 182.969C6.09813 182.021 6.64873 181.155 7.34745 180.421C8.04816 179.692 8.88623 179.114 9.81174 178.721C10.7762 178.306 11.8142 178.095 12.862 178.102C14.1256 178.097 15.3729 178.391 16.5048 178.961C17.6748 179.557 18.6992 180.409 19.5039 181.457V181.457L22.8826 178.023C21.6946 176.56 20.183 175.401 18.4706 174.643C16.7108 173.817 14.7957 173.389 12.857 173.385C11.1254 173.373 9.40868 173.71 7.80631 174.376C6.28819 175.001 4.90206 175.915 3.72281 177.069C2.55884 178.223 1.63304 179.601 0.999371 181.122C0.342479 182.717 0.00285052 184.428 1.78666e-05 186.156C-0.00281478 187.885 0.331204 189.596 0.982866 191.193C1.60903 192.709 2.52899 194.082 3.68814 195.23C4.86795 196.384 6.25466 197.297 7.7733 197.921C9.38651 198.589 11.1146 198.926 12.857 198.911V198.911ZM78.1815 198.947C79.9074 198.96 81.6183 198.623 83.2141 197.956C84.7255 197.334 86.1007 196.415 87.2605 195.251C88.4202 194.088 89.3416 192.703 89.9715 191.177C90.6311 189.591 90.9709 187.888 90.9709 186.167C90.9709 184.446 90.6311 182.743 89.9715 181.157C89.3416 179.631 88.4203 178.246 87.2606 177.083C86.1008 175.919 84.7256 175 83.2141 174.378C79.9968 173.057 76.3992 173.057 73.1819 174.378C71.6704 175 70.2952 175.919 69.1354 177.083C67.9757 178.246 67.0544 179.631 66.4245 181.157C65.7654 182.743 65.4258 184.446 65.4258 186.167C65.4258 187.888 65.7654 189.591 66.4245 191.177C67.0544 192.703 67.9758 194.088 69.1355 195.251C70.2953 196.415 71.6705 197.334 73.1819 197.956C74.7674 198.621 76.4677 198.957 78.1831 198.946L78.1815 198.947ZM78.1815 194.239C77.1687 194.248 76.1648 194.047 75.2313 193.648C74.2978 193.249 73.4544 192.661 72.7528 191.92C72.0607 191.177 71.5165 190.306 71.1501 189.353C70.3684 187.297 70.3684 185.019 71.1501 182.962C71.5196 182.017 72.0635 181.152 72.7528 180.414C73.4544 179.673 74.2978 179.085 75.2313 178.686C76.1648 178.288 77.1687 178.086 78.1815 178.095C79.224 178.087 80.2569 178.298 81.2152 178.715C82.1303 179.108 82.9569 179.686 83.6449 180.414C84.3341 181.152 84.8781 182.017 85.2476 182.962C86.0289 185.019 86.0289 187.297 85.2476 189.353C84.8812 190.306 84.337 191.177 83.6449 191.92C82.9569 192.648 82.1303 193.226 81.2152 193.62C80.2573 194.035 79.225 194.246 78.1831 194.237L78.1815 194.239ZM153.951 198.559V194.028H140.746V173.775H135.752V198.556L153.951 198.559ZM216.968 198.559V194.028H203.763V173.775H198.765V198.556L216.968 198.559ZM280.465 198.559V194.098H266.78V188.22H275.71V183.9H266.78V178.241H280.328V173.78H261.779V198.561L280.465 198.559ZM335.898 198.912C337.797 198.91 339.673 198.487 341.396 197.673C343.089 196.914 344.592 195.777 345.791 194.346V194.346L342.515 191.019C341.711 192.001 340.713 192.799 339.585 193.363C338.479 193.907 337.264 194.185 336.035 194.177C334.997 194.188 333.969 193.991 333.007 193.596C332.046 193.201 331.171 192.617 330.434 191.877C329.724 191.152 329.163 190.292 328.784 189.345C328.377 188.34 328.171 187.263 328.18 186.177C328.169 185.08 328.368 183.992 328.767 182.972C329.137 182.024 329.688 181.158 330.386 180.424C331.087 179.695 331.925 179.117 332.851 178.725C333.815 178.309 334.853 178.098 335.901 178.105C337.169 178.1 338.42 178.397 339.555 178.971C340.725 179.566 341.75 180.419 342.554 181.467V181.467L345.933 178.033C344.745 176.57 343.233 175.412 341.521 174.653C339.762 173.828 337.847 173.399 335.909 173.395C334.177 173.383 332.461 173.72 330.858 174.386C329.34 175.01 327.953 175.924 326.773 177.077C325.609 178.231 324.682 179.609 324.048 181.131C323.391 182.725 323.052 184.436 323.049 186.165C323.046 187.893 323.38 189.605 324.032 191.202C324.658 192.718 325.578 194.09 326.737 195.239C327.917 196.392 329.304 197.305 330.822 197.929C332.433 198.594 334.158 198.927 335.898 198.911V198.912ZM402.016 198.559V178.306H410.115V173.774H388.881V178.306H397.016V198.556L402.016 198.559ZM459.274 198.559V173.779H454.276V198.559H459.274ZM516.844 198.949C518.57 198.962 520.281 198.625 521.877 197.958C523.388 197.336 524.763 196.416 525.923 195.253C527.083 194.089 528.004 192.705 528.634 191.178C529.293 189.593 529.633 187.889 529.633 186.169C529.633 184.448 529.293 182.745 528.634 181.159C528.004 179.633 527.083 178.248 525.923 177.084C524.764 175.921 523.388 175.002 521.877 174.38C518.66 173.059 515.063 173.059 511.846 174.38C510.336 175.003 508.961 175.922 507.802 177.086C506.642 178.249 505.721 179.633 505.091 181.159C504.43 182.744 504.09 184.448 504.09 186.169C504.09 187.89 504.43 189.593 505.091 191.178C505.721 192.704 506.642 194.088 507.802 195.252C508.961 196.415 510.336 197.335 511.846 197.958C513.431 198.621 515.13 198.957 516.844 198.946V198.949ZM516.844 194.241C515.807 194.25 514.78 194.039 513.829 193.621C512.92 193.225 512.099 192.647 511.415 191.922C510.722 191.179 510.178 190.308 509.811 189.355C509.03 187.298 509.03 185.021 509.811 182.964C510.181 182.018 510.725 181.153 511.415 180.416C512.099 179.69 512.92 179.112 513.829 178.716C514.78 178.298 515.807 178.087 516.844 178.097C517.886 178.089 518.919 178.3 519.876 178.716C520.792 179.11 521.619 179.688 522.308 180.416C522.997 181.154 523.541 182.019 523.91 182.964C524.693 185.02 524.693 187.299 523.91 189.355C523.544 190.307 523 191.179 522.308 191.922C521.619 192.65 520.792 193.228 519.876 193.621C518.918 194.037 517.886 194.246 516.844 194.237V194.241ZM579.135 198.561V181.985L591.442 198.561H595.854V173.78H591.166V189.817L579.17 173.78H574.411V198.561H579.135Z" fill="white"/>
</svg>
