<svg width="457" height="158" viewBox="0 0 457 158" fill="none" xmlns="http://www.w3.org/2000/svg">
  <g id="mainlogo">
    <g id="Group 229">
      <path id="path1919" d="M55.009 102.332V68.879h22.51v86.678H55.01V120.03H22.511v35.527H0V68.879h22.51v33.453h32.5Z" fill="white"/>
      <path id="path1921" d="M114.708 155.557h-22.51V68.879h22.51v86.678Z" fill="white"/>
      <path id="path1923" d="M179.36 68.879h27.903l-34.451 41.045 37.546 45.645h-29.165l-29.046-37.589h-.226v37.589H129.41v-86.69h22.511v35.754h.226l27.213-35.754Z" fill="white"/>
      <path id="path1925" d="M210.929 155.557h23.88l21.475-59.899h.238l20.893 59.899h23.999l-32.607-86.678h-24.582l-33.296 86.678Z" fill="white"/>
      <path id="path1927" d="M380.409 155.557h-28.024l-21.247-33.334h-.227v33.334h-22.51V68.879h33.642c17.106 0 30.08 8.163 30.08 26.672 0 11.954-6.655 22.298-18.951 24.491l27.237 35.515Zm-49.485-47.826h2.178c7.344 0 15.619-1.382 15.619-10.81 0-9.426-8.275-10.809-15.619-10.809h-2.178v21.619Z" fill="white"/>
      <path id="path1929" d="M457 68.879v48.744c0 11.155-.464 22.191-9.07 30.581-7.238 7.127-18.608 9.653-28.713 9.653-10.108 0-21.475-2.526-28.713-9.653-8.619-8.39-9.07-19.426-9.07-30.581V68.879h22.509v45.645c0 11.262.81 23.562 15.274 23.562 14.463 0 15.271-12.3 15.271-23.562V68.879H457Z" fill="white"/>
    </g>
    <g id="SEGA_logo">
      <path id="Path" d="M68.11 41.884a14.05 14.05 0 0 0 9.816 3.989l60.314.007-13.026-38.86C123.435 2.89 119.261 0 114.248 0c-4.992 0-9.229 2.986-10.942 7.097l-4.342 12.658L98.947.654 77.884.644c-3.807 0-7.23 1.485-9.75 3.942L68.142.66H46.576c-4.017 0-7.67 1.713-10.225 4.405V.643L16.025.661C7.25.653.053 7.512.042 16.58c0 4.198 1.835 8.006 4.54 10.827L0 27.4v18.473l20.479-.004c5.754-.007 11.456-3.479 13.438-7.638l.06-.171a14.047 14.047 0 0 0 12.598 7.813l21.534-.004v-3.985" fill="white"/>
      <path id="Path_2" d="m3.164 42.713 17.27-.018c7.065 0 12.79-5.708 12.79-12.742 0-7.047-5.725-12.756-12.79-12.756l-4.486.024a.644.644 0 0 1-.64-.646c0-.357.287-.647.64-.647l17.238.003.007-5.408H15.945c-3.335 0-6.048 2.71-6.048 6.038 0 3.331 2.712 6.03 6.048 6.03l4.506.06c4.048 0 7.324 3.264 7.324 7.292 0 4.03-3.276 7.303-7.324 7.303H3.17l-.007 5.467" fill="#0060A8"/>
      <path id="Path_3" d="M3.17 35.976h17.28c3.346 0 6.052-2.698 6.052-6.034 0-3.331-2.706-6.026-6.051-6.026l-4.506-.05c-4.042 0-7.32-3.268-7.32-7.306 0-4.027 3.278-7.296 7.32-7.296l17.248-.003-.007-5.429H15.948c-7.058 0-12.791 5.702-12.791 12.742 0 7.041 5.733 12.746 12.791 12.746l4.46.007c.34 0 .627.277.627.626a.626.626 0 0 1-.626.619l-17.245.014.007 5.39" fill="#0060A8"/>
      <path id="Path_4" d="M46.614 37.28a5.423 5.423 0 0 1-5.45-5.436V14.592c0-2.933 2.454-5.345 5.45-5.345l18.433.003V3.832H46.614c-5.999 0-10.858 4.842-10.858 10.82v17.192c0 5.978 4.859 10.827 10.858 10.827l18.356.007-.004-5.404-18.352.006" fill="#0060A8"/>
      <path id="Path_5" d="M42.485 14.65a4.128 4.128 0 0 1 4.129-4.138h18.433v5.425H49.165c-1.272 0-1.29 1.262-1.29 1.262h13.25V22.6H42.478l.007-7.95" fill="#0060A8"/>
      <path id="Path_6" d="M46.614 35.965a4.128 4.128 0 0 1-4.136-4.122v-7.956h18.647v5.412h-13.25c.018 1.272 1.29 1.279 1.29 1.279H64.97l-.004 5.38-18.352.007" fill="#0060A8"/>
      <path id="Path_7" d="M77.965 37.266c-2.986 0-5.426-2.433-5.426-5.422V14.65a5.403 5.403 0 0 1 5.411-5.405h17.854V3.832H77.909c-5.996 0-10.855 4.842-10.855 10.82v17.192c0 5.978 4.9 10.827 10.896 10.827l17.854.007V17.2H80.46v5.401h9.92v14.665H77.966" fill="#0060A8"/>
      <path id="Path_8" d="M73.811 31.842a4.149 4.149 0 0 0 4.14 4.154h11.151V23.879h-8.628v5.42h3.202l.01 1.272H80.5a1.275 1.275 0 0 1-1.266-1.273l-.028-12.103s-.004-1.258 1.28-1.29H95.81l-.007-5.397-17.853.004a4.139 4.139 0 0 0-4.14 4.138v17.192" fill="#0060A8"/>
      <path id="Path_9" d="M112.58 10.43a1.767 1.767 0 0 1 3.335 0l8.667 25.604h-12.691l.014-6.023h4.241l-1.909-5.674-6.219 18.335h-6.397l10.959-32.241" fill="#0060A8"/>
      <path id="Path_10" d="M126.329 37.266h-14.416v5.408h21.939l-11.41-33.76c-1-3.292-4.296-5.715-8.198-5.715-3.908 0-7.194 2.412-8.201 5.702L94.528 42.674h5.743l11.18-32.83a3.012 3.012 0 0 1 2.783-1.852c1.252 0 2.328.766 2.786 1.846l9.309 27.428" fill="#0060A8"/>
      <path id="Shape" fill-rule="evenodd" clip-rule="evenodd" d="M132.42 7.014a3.814 3.814 0 0 1-2.703 1.115 3.789 3.789 0 0 1-2.692-1.115 3.775 3.775 0 0 1-1.125-2.698c0-2.098 1.716-3.8 3.817-3.8 1.021 0 1.982.398 2.703 1.111a3.794 3.794 0 0 1 0 5.387ZM127.399 2a3.233 3.233 0 0 0-.961 2.314c0 .877.335 1.699.961 2.317a3.269 3.269 0 0 0 2.318.958 3.285 3.285 0 0 0 3.29-3.275 3.273 3.273 0 0 0-3.29-3.268c-.871 0-1.695.335-2.318.954Z" fill="white"/>
      <path id="Shape_2" fill-rule="evenodd" clip-rule="evenodd" d="M128.738 6.432V4.635h1.091l1.157 1.797h.668L130.465 4.6a.749.749 0 0 1 .021-.004c.233-.047.986-.198.986-1.153 0-.392-.133-.745-.451-.98-.323-.243-.663-.247-1.237-.254h-1.598v4.223h.552Zm1.122-2.262h-1.122V2.678h1.125c.31 0 .578 0 .791.178.241.196.252.479.252.59 0 .308-.14.588-.531.682-.168.042-.336.042-.515.042Z" fill="white"/>
    </g>
  </g>
</svg>
