<svg width="457" height="158" viewBox="0 0 457 158" fill="none" xmlns="http://www.w3.org/2000/svg">
<path d="M55.009 102.333V68.8795H77.5197V155.558H55.009V120.031H22.5107V155.558H0V68.8795H22.5107V102.333H55.009Z" fill="white"/>
<path d="M114.708 155.558H92.1975V68.8795H114.708V155.558Z" fill="white"/>
<path d="M179.36 68.8795H207.263L172.812 109.925L210.358 155.57H181.193L152.147 117.981H151.921V155.57H129.41V68.8795H151.921V104.633H152.147L179.36 68.8795Z" fill="white"/>
<path d="M210.929 155.558H234.809L256.284 95.6588H256.522L277.415 155.558H301.414L268.807 68.8795H244.225L210.929 155.558Z" fill="white"/>
<path d="M380.409 155.558H352.385L331.138 122.224H330.911V155.558H308.401V68.8795H342.043C359.149 68.8795 372.123 77.0432 372.123 95.5516C372.123 107.505 365.468 117.85 353.172 120.043L380.409 155.558ZM330.924 107.732H333.102C340.446 107.732 348.721 106.349 348.721 96.9221C348.721 87.4952 340.446 86.1128 333.102 86.1128H330.924V107.732Z" fill="white"/>
<path d="M457 68.8795V117.623C457 128.779 456.536 139.815 447.93 148.205C440.692 155.331 429.322 157.858 419.217 157.858C409.109 157.858 397.742 155.331 390.504 148.205C381.885 139.815 381.434 128.779 381.434 117.623V68.8795H403.943V114.525C403.943 125.787 404.753 138.087 419.217 138.087C433.68 138.087 434.488 125.787 434.488 114.525V68.8795H457Z" fill="white"/>
<path fill-rule="evenodd" clip-rule="evenodd" d="M114.248 0C119.152 0 123.253 2.76673 125.095 6.7519L125.214 7.01937L138.24 45.8796L77.9263 45.8726C74.2407 45.8726 70.8871 44.4521 68.3758 42.1356L68.1095 41.884V45.8689L46.5749 45.8726C41.1596 45.8726 36.4653 42.8158 34.1225 38.3469L33.9762 38.0598L33.9167 38.2307C31.9737 42.3088 26.4551 45.7256 20.8173 45.8646L20.4789 45.8689L0 45.8726V27.4005L4.58266 27.4079C1.87684 24.5869 0.0419328 20.7793 0.0419328 16.581C0.0524035 7.62168 7.07783 0.819012 15.7083 0.663503L16.0248 0.660787L36.3507 0.643277V5.06511C38.8234 2.45996 42.3245 0.771848 46.1883 0.665649L46.5758 0.660326H68.1417L68.1343 4.58634C70.568 2.21364 73.8423 0.746889 77.492 0.648555L77.8844 0.643277L98.9471 0.653875L98.9642 19.7554L103.306 7.09678C105.019 2.98552 109.256 0 114.248 0ZM33.1933 10.5228H15.9446L15.7182 10.527C12.4879 10.6463 9.8966 13.3075 9.8966 16.5602C9.8966 19.8161 12.4874 22.4673 15.7182 22.5861L20.6927 22.6536C24.6286 22.7806 27.7747 25.995 27.7747 29.9423C27.7747 33.8923 24.6291 37.1139 20.6927 37.2412L20.4508 37.2451H3.17076L3.16385 42.712L20.4333 42.6945L20.7396 42.6909C27.6635 42.5288 33.2246 36.8842 33.2246 29.9525C33.2246 23.0071 27.6635 17.3619 20.7396 17.1997L20.4333 17.1961L15.9483 17.2206L15.8537 17.2135C15.5451 17.1673 15.3082 16.8983 15.3082 16.5741C15.3082 16.2498 15.5451 15.9804 15.8537 15.9341L15.9483 15.9271L33.1864 15.9308L33.1933 10.5228ZM46.6136 3.83155H65.047V9.24964L46.6136 9.24641L46.3898 9.25091C43.5686 9.36451 41.2803 11.6152 41.1676 14.378L41.1633 14.5917V31.8431L41.1678 32.0706C41.2834 34.9362 43.5735 37.1657 46.3954 37.2754L46.6136 37.2796L64.9663 37.2732L64.97 42.6779L46.6136 42.6705L46.3242 42.6668C40.5556 42.5163 35.9103 37.8813 35.7596 32.132L35.7558 31.8436V14.6511L35.7596 14.3628C35.9103 8.61407 40.5556 3.98553 46.3242 3.83531L46.6136 3.83155ZM114.244 3.19887L113.959 3.20316C110.274 3.31413 107.187 5.57069 106.122 8.65557L106.043 8.90081L95.8039 38.9279L95.804 17.1998H80.4607V22.6009H90.3818V37.2658H77.9646L77.7471 37.2615C74.9355 37.1497 72.6586 34.8808 72.5437 32.0664L72.5391 31.8431V14.6507L72.5434 14.4328C72.6547 11.6161 74.9141 9.36409 77.7271 9.25045L77.9503 9.24595H95.804V3.83155H77.9088L77.6196 3.83531C71.8535 3.98553 67.2083 8.61407 67.0575 14.3628L67.0538 14.6511V31.8436L67.0576 32.132C67.2096 37.8813 71.8941 42.5163 77.6611 42.6668L77.9503 42.6705L95.804 42.6779L95.8039 42.6729L100.271 42.6738L111.451 9.84453L111.528 9.67563C112.018 8.67901 113.042 7.99165 114.234 7.99165C115.42 7.99165 116.448 8.67901 116.943 9.66975L117.02 9.83762L126.329 37.2658H111.913V42.6733H133.852L122.442 8.91418L122.365 8.67481C121.309 5.58586 118.215 3.31768 114.536 3.2034L114.244 3.19887ZM112.634 10.2966C112.909 9.67919 113.526 9.24687 114.248 9.24687C115.021 9.24687 115.681 9.74315 115.915 10.4316L124.582 36.035H111.891L111.902 31.2199L112.312 30.0119L116.146 30.0119L114.237 24.3381L112.312 30.0119L111.905 30.0119L111.902 31.2199L108.018 42.6733H101.621L112.58 10.4316L112.634 10.2966ZM95.8031 10.5085L77.9494 10.5122L77.7428 10.5173C75.6212 10.6216 73.9198 12.323 73.8155 14.4445L73.8105 14.6511L73.8114 31.8431L73.8165 32.0501C73.9207 34.1764 75.6221 35.8869 77.7437 35.9917L77.9503 35.9968H89.1021V23.88H80.4741V29.299H83.6762L83.6863 30.5713H80.4985L80.3697 30.5647C79.7761 30.5032 79.3005 30.0222 79.2397 29.428L79.2332 29.299L79.2046 17.1961C79.2068 17.0896 79.2544 16.0432 80.3171 15.918L80.4842 15.9064H95.81L95.8031 10.5085ZM15.9483 3.83155H33.1864L33.1933 9.26024L15.9446 9.26392L15.7031 9.26783C11.7735 9.39498 8.62433 12.6134 8.62433 16.5598C8.62433 20.517 11.7735 23.7352 15.7031 23.8623L20.6778 23.9192C23.9178 24.0379 26.502 26.686 26.502 29.9419C26.502 33.2013 23.9178 35.8526 20.6778 35.9714L20.4508 35.9756H3.17076L3.16385 30.5851L20.4088 30.5713L20.4998 30.5646C20.7977 30.5206 21.0346 30.2641 21.0346 29.9525C21.0346 29.6349 20.7977 29.3776 20.4998 29.3334L20.4088 29.3267L15.9483 29.3198L15.6423 29.3162C8.72524 29.1541 3.15694 23.5126 3.15694 16.5741C3.15694 9.63553 8.72524 3.99711 15.6423 3.83513L15.9483 3.83155ZM61.1247 23.8869H42.4779V31.8436C42.4779 34.0541 44.2202 35.8534 46.4073 35.9604L46.6136 35.9654L64.9659 35.9581L64.9696 30.5778L49.1574 30.5776C49.057 30.5747 48.0001 30.5192 47.8852 29.4648L47.8753 29.299H61.1247V23.8869ZM46.6136 10.5122H65.047V15.9377H49.1655L48.9997 15.9453C48.1027 16.0299 47.9214 16.7997 47.8849 17.0898L47.8757 17.1998H61.1251V22.6009H42.4784L42.4848 14.6511L42.4899 14.4445C42.5967 12.2545 44.3933 10.5122 46.6136 10.5122Z" fill="white"/>
<path fill-rule="evenodd" clip-rule="evenodd" d="M132.42 7.01297C131.699 7.72952 130.738 8.12811 129.717 8.12811C128.699 8.12811 127.742 7.72952 127.025 7.01343C126.298 6.28998 125.9 5.33566 125.9 4.31499C125.9 2.21743 127.616 0.514771 129.717 0.514771C130.738 0.514771 131.699 0.913362 132.42 1.62622C133.139 2.34968 133.542 3.30077 133.542 4.31453C133.542 5.3352 133.139 6.28952 132.42 7.01297ZM127.399 1.99993C126.774 2.61878 126.438 3.44362 126.438 4.31407C126.438 5.19143 126.773 6.01304 127.399 6.63143C128.021 7.25028 128.846 7.58943 129.717 7.58943C131.532 7.58943 133.007 6.12132 133.007 4.31407C133.007 3.44362 132.664 2.61878 132.045 1.99993C131.423 1.38154 130.598 1.04561 129.717 1.04561C128.846 1.04561 128.022 1.38107 127.399 1.99993Z" fill="white"/>
<path fill-rule="evenodd" clip-rule="evenodd" d="M128.738 6.43237V4.63571H129.829L130.986 6.43237H131.654L130.465 4.60069C130.471 4.59936 130.478 4.59794 130.486 4.59641C130.719 4.54972 131.472 4.39849 131.472 3.44362C131.472 3.05194 131.339 2.69896 131.021 2.46442C130.698 2.22051 130.358 2.21657 129.784 2.20993C129.774 2.20982 129.765 2.20971 129.755 2.20959H128.186V6.43237H128.738ZM129.86 4.17076H128.738V2.67823H129.829C129.84 2.67823 129.852 2.67822 129.863 2.67821C130.173 2.67798 130.441 2.67778 130.654 2.85656C130.895 3.0524 130.906 3.33533 130.906 3.4473C130.906 3.75466 130.766 4.03436 130.375 4.12883C130.207 4.17076 130.039 4.17076 129.86 4.17076Z" fill="white"/>
</svg>
