<svg width="791" height="167" viewBox="0 0 791 167" fill="none" xmlns="http://www.w3.org/2000/svg">
<g clip-path="url(#clip0_1168_2543)">
<path d="M88.9948 90.7001C88.9948 90.8591 88.9758 90.9934 88.9377 91.103C88.8796 91.2649 88.7872 91.3458 88.6606 91.3458C88.5767 91.3458 88.4887 91.3268 88.3963 91.2887C88.2858 91.242 88.2253 91.1849 88.2148 91.1172C88.252 91.1172 88.2958 91.1239 88.3463 91.1372C88.4634 91.1677 88.5367 91.183 88.5663 91.183C88.6806 91.183 88.7663 91.1263 88.8234 91.013C88.8682 90.9225 88.8906 90.8139 88.8906 90.6872C88.8906 90.5977 88.861 90.4706 88.802 90.3058C88.7448 90.1391 88.7163 90.023 88.7163 89.9572C88.7163 89.9372 88.7215 89.9211 88.732 89.9087C88.7444 89.8953 88.7606 89.8887 88.7806 89.8887C88.8329 89.8887 88.8834 90.0087 88.932 90.2487C88.9739 90.4515 88.9948 90.6015 88.9948 90.6987V90.7001ZM89.7648 90.903C89.7648 91.0391 89.7253 91.1458 89.6463 91.223C89.5682 91.3001 89.4596 91.3387 89.3206 91.3387C89.2444 91.3387 89.1858 91.3211 89.1448 91.2858C89.1029 91.2496 89.082 91.1939 89.082 91.1187C89.082 91.0139 89.151 90.9082 89.2891 90.8015C89.4196 90.6996 89.5401 90.6487 89.6506 90.6487C89.701 90.6487 89.7344 90.6801 89.7506 90.743C89.7601 90.7791 89.7648 90.8325 89.7648 90.903ZM89.642 90.9601C89.642 90.9439 89.6401 90.9282 89.6363 90.913C89.6334 90.8968 89.6282 90.8787 89.6206 90.8587C89.5996 90.8739 89.5644 90.9101 89.5148 90.9672C89.4891 90.9958 89.4672 91.0172 89.4491 91.0315C89.4491 91.0058 89.4515 90.9849 89.4563 90.9687L89.482 90.9115C89.4239 90.9115 89.3629 90.9363 89.2991 90.9858C89.2363 91.0344 89.2048 91.0877 89.2048 91.1458C89.2048 91.1839 89.2263 91.203 89.2691 91.203C89.3501 91.203 89.4287 91.183 89.5048 91.143C89.5963 91.0953 89.642 91.0353 89.642 90.9601ZM90.5891 90.9858C90.5891 91.0506 90.5644 91.1239 90.5148 91.2058C90.4577 91.2972 90.3996 91.343 90.3406 91.343C90.3234 91.343 90.3091 91.3334 90.2977 91.3144C90.2863 91.2953 90.2806 91.2763 90.2806 91.2572C90.2806 91.2334 90.3058 91.1963 90.3563 91.1458C90.4087 91.0934 90.4348 91.0577 90.4348 91.0387C90.4348 91.0272 90.4329 91.0153 90.4291 91.003L90.4206 90.9787C90.3206 91.0015 90.2187 91.0587 90.1148 91.1501C90.012 91.2425 89.9339 91.2949 89.8806 91.3072C89.8701 91.2787 89.8648 91.2487 89.8648 91.2172C89.8648 91.1791 89.8734 91.1396 89.8906 91.0987C89.9029 91.0701 89.9229 91.0349 89.9506 90.993C89.9972 90.9225 90.0467 90.8425 90.0991 90.753L90.2363 90.5101C90.3029 90.3958 90.3515 90.3149 90.382 90.2672C90.3982 90.2434 90.4125 90.2253 90.4248 90.213C90.442 90.1968 90.4625 90.1863 90.4863 90.1815C90.5025 90.1863 90.5139 90.1958 90.5206 90.2101C90.5282 90.2253 90.532 90.243 90.532 90.263C90.532 90.3087 90.5029 90.3701 90.4448 90.4472L90.2806 90.663C90.2206 90.7534 90.1906 90.8353 90.1906 90.9087L90.1948 90.9287L90.3234 90.8672C90.3787 90.8444 90.4258 90.833 90.4648 90.833C90.5077 90.833 90.5391 90.8472 90.5591 90.8758C90.5782 90.9044 90.5891 90.941 90.5891 90.9858ZM91.5163 90.8672C91.5163 90.9577 91.4944 91.0544 91.4506 91.1572C91.4029 91.2706 91.3434 91.3487 91.272 91.3915C91.2577 91.3744 91.2453 91.3553 91.2348 91.3344C91.2253 91.3125 91.2206 91.2906 91.2206 91.2687C91.2206 91.2468 91.2539 91.1796 91.3206 91.0672C91.3491 91.0177 91.3625 90.9744 91.3606 90.9372L91.3591 90.9115C91.3096 90.9258 91.2239 90.9706 91.102 91.0458L90.7391 91.2687C90.7201 91.2687 90.7025 91.262 90.6863 91.2487C90.672 91.2344 90.6648 91.2187 90.6648 91.2015C90.6648 91.173 90.7096 91.0787 90.7991 90.9187L90.942 90.6687C90.9639 90.6972 90.9782 90.7287 90.9848 90.763C90.9915 90.7963 90.9948 90.8363 90.9948 90.883V90.9287C91.1177 90.8553 91.2134 90.8001 91.282 90.763C91.3582 90.722 91.4106 90.7015 91.4391 90.7015C91.4582 90.7015 91.4753 90.723 91.4906 90.7658C91.5077 90.8077 91.5163 90.8425 91.5163 90.8672ZM93.2548 91.2558C93.2548 91.2796 93.2439 91.2982 93.222 91.3115C93.2029 91.323 93.1806 91.3287 93.1548 91.3287C93.132 91.3287 93.1034 91.3263 93.0691 91.3215C92.9901 91.3091 92.9391 91.303 92.9163 91.303C92.8763 91.303 92.7977 91.3077 92.6806 91.3172C92.6139 91.323 92.5663 91.3258 92.5377 91.3258C92.4558 91.3258 92.4148 91.2849 92.4148 91.203C92.4148 91.1258 92.4401 91.0153 92.4905 90.8715C92.5191 90.7896 92.5715 90.6563 92.6477 90.4715C92.7172 90.3049 92.7615 90.1872 92.7806 90.1187C92.7872 90.0977 92.7925 90.0834 92.7963 90.0758C92.8067 90.0606 92.8201 90.053 92.8363 90.053C92.862 90.053 92.8834 90.072 92.9006 90.1101C92.9177 90.1453 92.9263 90.1777 92.9263 90.2072C92.9263 90.2539 92.8991 90.3325 92.8448 90.443L92.6848 90.7658C92.6277 90.8906 92.5991 90.9858 92.5991 91.0515C92.5991 91.0849 92.6129 91.1082 92.6406 91.1215C92.6596 91.1311 92.6891 91.1358 92.7291 91.1358C92.7577 91.1358 92.8082 91.1325 92.8806 91.1258C92.9529 91.1172 93.0005 91.113 93.0234 91.113C93.0844 91.113 93.1339 91.1215 93.172 91.1387C93.2272 91.1634 93.2548 91.2025 93.2548 91.2558ZM93.9991 90.903C93.9991 91.0391 93.9596 91.1458 93.8806 91.223C93.8015 91.3001 93.6929 91.3387 93.5548 91.3387C93.4786 91.3387 93.4201 91.3211 93.3791 91.2858C93.3372 91.2496 93.3163 91.1939 93.3163 91.1187C93.3163 91.0139 93.3848 90.9082 93.522 90.8015C93.6534 90.6996 93.7744 90.6487 93.8848 90.6487C93.9353 90.6487 93.9687 90.6801 93.9848 90.743C93.9944 90.7791 93.9991 90.8325 93.9991 90.903ZM93.8763 90.9601C93.8763 90.9439 93.8744 90.9282 93.8706 90.913C93.8677 90.8968 93.8625 90.8787 93.8548 90.8587C93.8329 90.8739 93.7977 90.9101 93.7491 90.9672C93.7234 90.9958 93.701 91.0172 93.682 91.0315C93.682 91.0058 93.6848 90.9849 93.6906 90.9687L93.7163 90.9115C93.6582 90.9115 93.5967 90.9363 93.532 90.9858C93.4701 91.0344 93.4391 91.0877 93.4391 91.1458C93.4391 91.1839 93.4601 91.203 93.502 91.203C93.5839 91.203 93.6629 91.183 93.7391 91.143C93.8305 91.0953 93.8763 91.0353 93.8763 90.9601ZM94.8406 90.8615C94.8406 90.9044 94.8291 90.9496 94.8063 90.9972C94.7853 91.0449 94.7582 91.0849 94.7248 91.1172L94.722 91.0887C94.722 91.0734 94.7244 91.0491 94.7291 91.0158C94.7329 90.9825 94.7348 90.9577 94.7348 90.9415C94.7348 90.9187 94.7315 90.902 94.7248 90.8915C94.7182 90.8791 94.7039 90.873 94.682 90.873C94.6201 90.873 94.5425 90.9215 94.4491 91.0187L94.1463 91.3372L94.122 91.3358L94.082 91.3258C94.0867 91.2782 94.1034 91.2249 94.132 91.1658C94.211 91.0068 94.252 90.922 94.2548 90.9115C94.2644 90.8687 94.2725 90.8372 94.2791 90.8172C94.2839 90.7972 94.291 90.7768 94.3006 90.7558C94.311 90.733 94.3229 90.713 94.3363 90.6958C94.3515 90.6768 94.3705 90.6625 94.3934 90.653L94.412 90.893L94.5448 90.7858C94.6029 90.7382 94.6534 90.7144 94.6963 90.7144C94.7391 90.7144 94.7739 90.7287 94.8006 90.7572C94.8272 90.7858 94.8406 90.8206 94.8406 90.8615ZM95.822 90.6287C95.822 90.6858 95.7477 90.7601 95.5991 90.8515C95.4544 90.9391 95.3496 90.983 95.2848 90.983C95.2544 90.983 95.2334 90.9725 95.222 90.9515C95.2125 90.9296 95.2077 90.8996 95.2077 90.8615V90.8072C95.2972 90.8072 95.3786 90.7939 95.452 90.7672C95.5253 90.7406 95.5896 90.6968 95.6448 90.6358C95.6048 90.6206 95.5639 90.613 95.522 90.613C95.4248 90.613 95.3215 90.6506 95.212 90.7258C95.092 90.8068 95.032 90.8934 95.032 90.9858C95.032 91.0734 95.092 91.1344 95.212 91.1687C95.231 91.1744 95.3439 91.1934 95.5506 91.2258C95.6715 91.2449 95.732 91.2772 95.732 91.323C95.732 91.343 95.7101 91.3591 95.6663 91.3715C95.6225 91.3849 95.5667 91.3915 95.4991 91.3915C95.3277 91.3915 95.1929 91.3653 95.0948 91.313C94.9644 91.2434 94.8991 91.132 94.8991 90.9787C94.8991 90.8187 94.9791 90.6915 95.1391 90.5972C95.2744 90.5172 95.4286 90.4772 95.602 90.4772C95.6544 90.4772 95.702 90.4891 95.7448 90.513C95.7963 90.5415 95.822 90.5801 95.822 90.6287ZM96.6191 90.2715C96.6191 90.3001 96.5834 90.3615 96.512 90.4558C96.4415 90.5491 96.4063 90.6206 96.4063 90.6701C96.4063 90.6949 96.421 90.7201 96.4505 90.7458C96.5172 90.8039 96.5505 90.8396 96.5505 90.853C96.5505 90.8701 96.5444 90.8868 96.532 90.903C96.5225 90.9191 96.5086 90.9272 96.4905 90.9272C96.4763 90.9272 96.4558 90.9191 96.4291 90.903C96.4101 90.8925 96.3739 90.8668 96.3206 90.8258L96.2748 90.913C96.2367 90.9834 96.2115 91.0349 96.1991 91.0672L96.1391 91.2515C96.1039 91.3344 96.0606 91.3758 96.0091 91.3758L96.0063 91.3287C96.0063 91.2334 96.0372 91.1215 96.0991 90.993C96.1105 90.9691 96.1439 90.9072 96.1991 90.8072C96.0934 90.7501 95.9772 90.7215 95.8506 90.7215C95.8506 90.672 95.8605 90.6358 95.8805 90.613C95.9015 90.5891 95.9367 90.5772 95.9863 90.5772C96.032 90.5772 96.0891 90.5853 96.1577 90.6015L96.2577 90.6258C96.2825 90.6172 96.3167 90.5739 96.3606 90.4958C96.4682 90.3053 96.5415 90.1963 96.5806 90.1687C96.591 90.1868 96.5996 90.2044 96.6063 90.2215C96.6148 90.2387 96.6191 90.2553 96.6191 90.2715ZM97.3577 90.9858C97.3577 91.0506 97.3325 91.1239 97.282 91.2058C97.2267 91.2972 97.1691 91.343 97.1091 91.343C97.091 91.343 97.0763 91.3334 97.0648 91.3144C97.0544 91.2953 97.0491 91.2763 97.0491 91.2572C97.0491 91.2334 97.0744 91.1963 97.1248 91.1458C97.1763 91.0934 97.202 91.0577 97.202 91.0387C97.202 91.0272 97.2001 91.0153 97.1963 91.003L97.1891 90.9787C97.0891 91.0015 96.9867 91.0587 96.882 91.1501C96.7801 91.2425 96.7025 91.2949 96.6491 91.3072C96.6377 91.2787 96.632 91.2487 96.632 91.2172C96.632 91.1791 96.641 91.1396 96.6591 91.0987C96.6706 91.0701 96.6906 91.0349 96.7191 90.993C96.7658 90.9225 96.8148 90.8425 96.8663 90.753L97.0048 90.5101C97.0715 90.3958 97.1201 90.3149 97.1505 90.2672C97.1667 90.2434 97.181 90.2253 97.1934 90.213C97.2106 90.1968 97.231 90.1863 97.2548 90.1815C97.271 90.1863 97.2825 90.1958 97.2891 90.2101C97.2967 90.2253 97.3006 90.243 97.3006 90.263C97.3006 90.3087 97.271 90.3701 97.212 90.4472C97.1053 90.5863 97.051 90.6582 97.0491 90.663C96.9891 90.7534 96.9591 90.8353 96.9591 90.9087L96.962 90.9287L97.092 90.8672C97.1472 90.8444 97.1939 90.833 97.232 90.833C97.2748 90.833 97.3063 90.8472 97.3263 90.8758C97.3463 90.9044 97.3577 90.941 97.3577 90.9858ZM98.9991 90.333C98.9991 90.3958 98.9658 90.4801 98.8991 90.5858C98.8563 90.6525 98.7863 90.7482 98.6891 90.873C98.591 90.9968 98.5301 91.0777 98.5063 91.1158L98.6563 91.1658C98.7534 91.1944 98.802 91.2477 98.802 91.3258L98.6848 91.343L98.662 91.3415V91.3258C98.641 91.3201 98.6239 91.3172 98.6105 91.3172C98.5848 91.3172 98.5448 91.3211 98.4905 91.3287C98.4363 91.3372 98.3948 91.3415 98.3663 91.3415C98.3301 91.3415 98.301 91.3349 98.2791 91.3215C98.2563 91.3082 98.2448 91.2844 98.2448 91.2501C98.2448 91.2215 98.2963 91.142 98.3991 91.0115L98.6891 90.6401C98.7929 90.4991 98.8448 90.4049 98.8448 90.3572C98.8448 90.3382 98.8382 90.3239 98.8248 90.3144C98.8125 90.3049 98.7877 90.3001 98.7505 90.3001C98.7248 90.3001 98.6725 90.3253 98.5934 90.3758C98.5544 90.3996 98.5229 90.4115 98.4991 90.4115L98.4648 90.4058C98.4563 90.4001 98.4477 90.3901 98.4391 90.3758C98.4296 90.3596 98.4248 90.3468 98.4248 90.3372C98.4248 90.2811 98.4786 90.2296 98.5863 90.183C98.6786 90.143 98.7586 90.123 98.8263 90.123C98.8834 90.123 98.9277 90.1444 98.9591 90.1872C98.9858 90.2253 98.9991 90.2739 98.9991 90.333ZM100.201 90.693C100.201 90.8549 100.113 90.9977 99.9391 91.1215C99.7791 91.2349 99.6144 91.2915 99.4448 91.2915C99.361 91.2915 99.2944 91.2701 99.2448 91.2272C99.1953 91.1844 99.1705 91.1225 99.1705 91.0415C99.1705 90.8606 99.2501 90.7034 99.4091 90.5701C99.5596 90.4425 99.7282 90.3787 99.9148 90.3787C100.01 90.3787 100.081 90.4072 100.129 90.4644C100.177 90.5196 100.201 90.5958 100.201 90.693ZM100.079 90.7387C100.079 90.6777 100.044 90.632 99.9748 90.6015C99.9225 90.5787 99.8605 90.5672 99.7891 90.5672C99.6834 90.5672 99.5734 90.6187 99.4591 90.7215C99.3448 90.8244 99.2877 90.9277 99.2877 91.0315C99.2877 91.0744 99.2982 91.1049 99.3191 91.123C99.341 91.1401 99.3748 91.1487 99.4206 91.1487C99.551 91.1487 99.6872 91.113 99.8291 91.0415C99.9958 90.9558 100.079 90.8549 100.079 90.7387ZM101.116 90.333C101.116 90.3958 101.083 90.4801 101.016 90.5858C100.973 90.6525 100.903 90.7482 100.806 90.873C100.709 90.9968 100.649 91.0777 100.625 91.1158L100.775 91.1658C100.872 91.1944 100.921 91.2477 100.921 91.3258L100.802 91.343L100.781 91.3415V91.3258C100.76 91.3201 100.742 91.3172 100.729 91.3172C100.703 91.3172 100.663 91.3211 100.609 91.3287C100.554 91.3372 100.512 91.3415 100.485 91.3415C100.449 91.3415 100.419 91.3349 100.396 91.3215C100.373 91.3082 100.362 91.2844 100.362 91.2501C100.362 91.2215 100.413 91.142 100.516 91.0115C100.709 90.7677 100.805 90.6439 100.806 90.6401C100.911 90.4991 100.963 90.4049 100.963 90.3572C100.963 90.3382 100.956 90.3239 100.942 90.3144C100.931 90.3049 100.906 90.3001 100.869 90.3001C100.843 90.3001 100.791 90.3253 100.711 90.3758C100.672 90.3996 100.641 90.4115 100.616 90.4115L100.582 90.4058C100.574 90.4001 100.566 90.3901 100.556 90.3758C100.547 90.3596 100.542 90.3468 100.542 90.3372C100.542 90.2811 100.596 90.2296 100.705 90.183C100.796 90.143 100.876 90.123 100.945 90.123C101.002 90.123 101.046 90.1444 101.076 90.1872C101.103 90.2253 101.116 90.2739 101.116 90.333ZM102.036 90.333C102.036 90.3958 102.003 90.4801 101.936 90.5858C101.893 90.6525 101.823 90.7482 101.726 90.873C101.629 90.9968 101.569 91.0777 101.545 91.1158L101.695 91.1658C101.792 91.1944 101.841 91.2477 101.841 91.3258L101.722 91.343L101.701 91.3415V91.3258C101.68 91.3201 101.662 91.3172 101.649 91.3172C101.623 91.3172 101.583 91.3211 101.529 91.3287C101.474 91.3372 101.432 91.3415 101.405 91.3415C101.369 91.3415 101.339 91.3349 101.316 91.3215C101.293 91.3082 101.282 91.2844 101.282 91.2501C101.282 91.2215 101.333 91.142 101.436 91.0115C101.629 90.7677 101.725 90.6439 101.726 90.6401C101.831 90.4991 101.883 90.4049 101.883 90.3572C101.883 90.3382 101.876 90.3239 101.862 90.3144C101.851 90.3049 101.826 90.3001 101.789 90.3001C101.763 90.3001 101.711 90.3253 101.631 90.3758C101.592 90.3996 101.561 90.4115 101.536 90.4115L101.502 90.4058C101.494 90.4001 101.486 90.3901 101.476 90.3758C101.467 90.3596 101.462 90.3468 101.462 90.3372C101.462 90.2811 101.516 90.2296 101.625 90.183C101.716 90.143 101.796 90.123 101.865 90.123C101.922 90.123 101.966 90.1444 101.996 90.1872C102.023 90.2253 102.036 90.2739 102.036 90.333Z" fill="white" fill-opacity="0.5"/>
<path d="M25.0393 164.256C14.445 160.599 6.07644 151.711 2.6293 140.449C-1.42927 127.185 -0.71927 105.332 4.27501 89.9107C10.8236 69.6892 19.1707 54.785 34.8278 35.3536C59.5207 4.7093 93.5564 -8.63211 110.063 5.86073C114.735 9.96358 127.872 33.5807 127.872 37.8807C127.872 40.7464 122.843 43.5664 110.729 47.495C92.1292 53.5293 91.4049 53.5635 89.3207 48.5335C83.0921 33.4978 63.235 50.5921 48.9664 83.2764C40.6036 102.433 40.1636 117.402 47.9335 118.522C54.9307 119.529 60.6464 115.351 68.5421 103.455C75.8135 92.5006 79.0421 91.1521 96.8249 91.6478C110.422 92.0249 111.542 92.2792 112.853 95.2678C113.629 97.0364 114.972 98.4821 115.836 98.4821C116.701 98.4821 121.705 93.0635 126.955 86.4392C142.502 66.8207 159.811 57.4535 178.072 58.7735C189.272 59.5835 197.768 65.3092 200.508 73.8921C201.565 77.2021 202.999 79.9107 203.698 79.9107C204.395 79.9107 206.549 76.7864 208.485 72.9678C210.899 68.2035 213.561 65.285 216.963 63.6707C224.053 60.3064 234.146 59.205 239.096 61.2564C242.462 62.6493 244.662 62.5593 250.646 60.7821C262.035 57.4007 273.076 60.5907 277.132 68.4364C278.325 70.7407 279.3 76.2478 279.3 80.6735C279.3 91.4592 281.308 90.4978 289.096 75.9835C295.915 63.2778 298.792 61.2335 312.8 59.1335C318.586 58.265 320.076 58.515 321.609 60.6107C323.338 62.9764 323.809 62.9893 329.262 60.8078C341.2 56.0307 355.222 59.5493 357.305 67.8435C358.233 71.5507 357.359 81.9578 355.599 88.1249C354.046 93.5621 356.986 91.7864 368.793 80.1535C386.346 62.8564 402.77 56.5035 421.788 59.6564C433.736 61.6364 437.953 64.695 440.937 73.5492C442.232 77.3878 443.837 80.7078 444.509 80.9292C445.18 81.1492 447.336 78.2921 449.3 74.5792C451.265 70.8664 454.993 66.4107 457.586 64.6778C463.467 60.7478 476.692 58.9107 482.91 61.1593C486.559 62.4778 488.485 62.3664 492.742 60.5878C499.857 57.615 509.819 57.5593 514.256 60.465C516.225 61.755 519.163 65.4135 520.787 68.5964C522.41 71.7792 524.507 74.1292 525.447 73.8192C527.626 73.0992 542.309 40.7007 542.63 35.9078C542.849 32.6507 542.337 32.2936 537.283 32.1793C530.536 32.0278 529.862 30.6364 533.579 24.5407C537.456 18.1807 543.15 14.9907 560.729 9.32787C579.152 3.39359 593.203 0.952164 610.014 0.767878C621.886 0.63645 623.472 0.965021 630.729 5.05787C641.643 11.215 647.872 19.6007 647.872 28.1436C647.872 37.905 643.074 46.3393 630.119 59.3607C619.186 70.3507 609.333 76.8621 600.372 79.0192C595.129 80.2821 595.415 82.3007 601.172 84.7049C603.773 85.7935 608.269 89.4478 611.163 92.8292C614.057 96.2106 616.686 98.7049 617.006 98.3721C617.324 98.0406 620.11 94.3978 623.196 90.2792C626.282 86.1607 632.857 79.5378 637.81 75.5635C664.267 54.3307 685.957 53.1921 697.157 72.4478C699.514 76.4992 701.917 79.8378 702.499 79.8621C703.079 79.8907 706.123 74.8021 709.263 68.5564C718.774 49.6364 727.681 41.9736 741.897 40.4778C751.107 39.5093 752.919 41.0893 752.654 49.8607C752.396 58.525 754.007 58.9878 760.636 52.1493C766.414 46.1878 777.883 41.015 783.997 41.6136C787.866 41.9921 788.666 42.7821 789.719 47.2636C790.813 51.9207 789.897 54.8678 781.059 75.1207C775.623 87.5778 768.829 103.875 765.96 111.339C758.653 130.359 756.596 133.241 747.12 137.723C736.91 142.553 730.063 143.752 727.036 141.239C725.202 139.716 724.846 137.063 725.239 127.839C725.83 113.938 723.736 112.649 718.042 123.413C715.207 128.771 712.346 131.646 706.243 135.266C701.812 137.895 696.347 140.175 694.1 140.335C690.503 140.591 689.606 139.772 686.602 133.482C683.549 127.091 683.023 126.623 681.602 129.031C676.476 137.719 668.386 144.196 662.663 144.196C661.292 144.196 658.513 142.609 656.487 140.668C652.887 137.218 652.647 137.186 645.824 139.239C641.986 140.395 636.344 141.339 633.287 141.339C626.25 141.339 619.097 137.816 620.216 134.899C621.903 130.503 616.822 132.922 613.462 138.113C609.104 144.849 597.519 151.839 583.212 156.366C555.94 164.995 498.126 167.115 493.397 159.658C491.109 156.045 492.033 147.609 495.015 144.911C499.097 141.215 498.775 137.946 494.433 139.036C492.542 139.511 490.06 140.258 488.919 140.695C487.776 141.133 484.825 139.793 482.357 137.718C478.486 134.461 477.872 133.011 477.872 127.151C477.872 120.355 480.959 109.635 485.825 99.5392C487.607 95.8421 487.953 93.7078 486.937 92.6921C484.195 89.9492 465.015 116.849 465.015 123.438C465.015 125.076 464.026 127.829 462.819 129.552C460.389 133.023 443.859 142.768 440.405 142.768C437.297 142.768 430.729 133.653 430.729 129.345C430.729 127.358 432.043 122.393 433.652 118.316C438.199 106.781 435.497 106.628 422.61 117.692C399.689 137.373 375.489 146.781 363.602 140.633C356.456 136.939 355.015 133.405 355.015 119.593C355.015 100.765 350.858 103.608 345.613 126.022C344.999 128.642 341.993 131.916 336.76 135.665C332.4 138.786 328.283 141.339 327.608 141.339C326.933 141.339 323.823 139.648 320.698 137.578C315.695 134.268 315.015 133.153 315.015 128.273C315.015 125.225 317.505 115.978 320.549 107.723C323.819 98.8606 325.515 92.3635 324.692 91.8549C320.749 89.4178 308.965 104.691 304.216 118.392C299.525 131.931 295.368 135.956 281.75 140.155C276.522 141.766 276.165 141.648 270.976 136.581C268.023 133.698 265.155 131.339 264.6 131.339C264.046 131.339 260.46 133.589 256.633 136.339C248.681 142.053 244.126 142.585 238.832 138.421C232.526 133.461 232.596 127.939 239.179 111.105C247.049 90.9764 246.766 88.8078 237.352 97.0749C232.938 100.951 230.538 105.136 220.183 127.019C216.909 133.938 207.998 140.553 199.752 142.186C196.038 142.922 194.505 142.388 191.388 139.272C187.992 135.876 187.678 134.752 188.532 129.058C189.061 125.538 190.735 119.048 192.253 114.633C197.242 100.131 195.602 99.2992 185.736 111.329C180.418 117.815 179.301 120.199 179.301 125.065C179.301 132.163 175.615 137.391 167.793 141.379C160.551 145.073 158.651 144.936 155.408 140.488L152.708 136.781L145.031 139.059C121.022 146.189 108.762 134.842 115.713 111.923C116.883 108.066 117.848 104.751 117.856 104.553C117.865 104.358 116.945 104.196 115.813 104.196C114.681 104.196 111.775 107.893 109.356 112.411C97.9178 133.778 71.4507 157.216 50.9693 164.116C40.2764 167.718 35.1464 167.745 25.0407 164.258L25.0393 164.256ZM552.865 153.446C567.593 150.875 589.092 144.013 596.217 139.609C598.889 137.958 602.926 133.689 605.187 130.122C614.726 115.081 606.877 96.3321 586.999 86.6735C583.55 84.9978 580.727 83.2307 580.727 82.7478C580.727 82.2649 583.053 80.7607 585.896 79.405C610.702 67.5764 635.392 43.415 636.473 29.9107C637.203 20.7893 636.334 18.0393 631.053 12.7564C624.489 6.19216 617.927 4.21502 602.67 4.20502C577.77 4.18788 531.115 21.0193 535.663 28.3764C536.185 29.2207 539.787 29.9107 543.67 29.9107C547.553 29.9107 550.727 30.5707 550.727 31.375C550.727 32.1793 548.559 37.1636 545.907 42.4464C531.189 71.775 513.563 117.783 511.305 132.768C509.932 141.886 508.79 143.468 502.166 145.453C496.132 147.262 493.543 150.439 496.057 152.953C500.419 157.315 529.279 157.565 552.865 153.446ZM538.576 133.973C537.736 131.783 544.079 105.823 546.882 99.9764C550.693 92.0278 559.215 91.3764 573.153 97.9664C586.207 104.138 590.483 116.419 582.256 124.105C574.106 131.719 540.613 139.285 538.576 133.973ZM563.936 130.699C573.286 128.088 582.157 121.179 582.157 116.509C582.157 111.995 578.4 107.326 570.977 102.619C559.279 95.2006 555.43 97.5864 550.516 115.311C547.432 126.432 547.153 132.246 549.657 133.236C551.677 134.036 552.543 133.882 563.936 130.699ZM555.966 74.6735C553.782 72.4878 555.39 65.8307 561.726 50.8164C571.959 26.5707 578.133 21.4636 597.322 21.3736C607.247 21.3279 612.157 25.1021 612.157 32.7793C612.157 40.4793 609.979 45.465 603.869 51.755C591.49 64.495 560.577 79.2835 555.966 74.6735ZM577.616 66.4678C596.43 56.9935 607.854 45.5107 607.866 36.0636C607.879 24.585 587.025 23.5979 578.32 34.6636C574.14 39.9778 563.113 66.6207 564.066 69.1035C565.273 72.2492 566.682 71.975 577.616 66.4678ZM41.1521 153.499C60.5421 148.449 77.1364 135.783 90.7478 115.643C94.1921 110.546 98.9006 104.651 101.209 102.542C107.309 96.9706 105.619 94.1964 96.1306 94.2064C83.3078 94.2206 78.5107 96.3206 72.3264 104.623C62.675 117.585 53.3564 124.185 44.6907 124.192C36.7278 124.199 34.2707 119.606 34.4078 104.971C34.5021 94.7949 35.175 91.9792 40.2921 80.3278C48.0593 62.6421 53.5007 54.5121 64.3892 44.3278C73.8164 35.5078 81.5407 32.2779 86.3178 35.1564C87.5664 35.9078 90.0264 39.4964 91.7864 43.1293L94.9878 49.7364L104.858 47.0021C117.795 43.4164 121.932 41.445 122.896 38.405C124.053 34.7621 113.308 12.4522 108.619 8.76501C101.901 3.4793 94.7378 2.30788 84.7664 4.86216C58.9135 11.4864 37.1493 32.5193 17.2764 70.0878C6.34072 90.7592 0.637871 123.209 5.6393 136.302C9.38786 146.118 20.5421 154.388 31.5007 155.478C32.3178 155.559 36.6607 154.669 41.1521 153.499ZM143.586 130.328C147.122 129.092 150.768 127.492 151.689 126.771C152.846 125.866 153.511 126.438 153.832 128.612C154.651 134.131 158.423 135.193 165.313 131.845C171.151 129.008 171.522 128.448 173.106 120.079C174.816 111.053 177.471 105.951 188.755 89.9964C196.192 79.4821 196.379 75.1264 189.691 68.1464C181.776 59.885 172.233 59.7821 156.412 67.7892C136.943 77.6435 117.872 103.639 117.872 120.322C117.872 133.193 126.149 136.415 143.586 130.326V130.328ZM139.315 114.928C134.915 109.628 147.476 90.6935 159.693 84.2135C167.479 80.0821 171.212 80.9849 169.849 86.6664C168.378 92.8049 165.318 98.1392 159.713 104.342C150.413 114.636 142.485 118.751 139.313 114.928H139.315ZM158.563 97.4135C165.492 88.5864 166.969 84.4792 162.321 86.9678C159.895 88.2678 149.301 102.773 149.301 104.796C149.301 107.485 152.926 104.595 158.563 97.4135ZM648.02 128.705L653.172 126.191L654.683 130.193C656.469 134.926 658.917 135.179 666.329 131.399C671.217 128.905 671.924 127.855 672.819 121.756C674.122 112.866 677.806 104.716 683.34 98.4849C690.684 90.2135 695.364 80.4707 694.306 75.655C693.12 70.2535 685.036 63.1707 678.702 61.9835C668.636 60.095 649.619 69.795 635.824 83.8549C627.287 92.5578 619.01 109.018 618.204 118.895C617.682 125.313 618.06 126.766 620.947 129.431C626.497 134.545 636.622 134.273 648.022 128.705H648.02ZM640.372 115.965C633.01 114.351 644.386 94.3835 657.682 85.5764C669.056 78.0421 673.263 80.8921 667.73 92.3835C665.924 96.1321 661.31 102.528 657.476 106.598C650.49 114.011 645.049 116.991 640.372 115.965ZM658.563 97.4121C665.17 88.9964 666.716 85.0635 662.829 86.5549C660.569 87.4221 649.3 102.312 649.3 104.431C649.3 107.481 652.656 104.939 658.563 97.4121ZM247.652 129.308C256.512 124.818 257.436 123.568 260.766 111.555C262.303 106.005 265.495 97.2421 267.859 92.0806C275.953 74.4064 272.276 62.7678 258.598 62.7678C251.712 62.7678 242.565 66.5435 236.572 71.8578C233.269 74.7864 233.175 74.7935 234.265 72.0535C236.845 65.565 236.025 63.4678 230.998 63.7021C219.725 64.2278 218.248 65.8393 206.383 90.5735C187.241 130.482 186.715 134.459 201.376 128.509C209.265 125.308 216.443 118.758 216.443 114.761C216.443 111.161 224.539 96.5921 230.163 90.0749C236.432 82.8078 248.806 76.295 251.731 78.7207C254.941 81.3849 253.788 86.7064 247.135 99.9549C239.452 115.253 235.706 128.016 238.063 130.858C240.086 133.293 239.645 133.365 247.652 129.308ZM327.562 129.351C336.683 124.726 338.66 122.169 341.433 111.422C342.738 106.361 345.763 98.0035 348.156 92.8507C354.068 80.1221 354.313 71.4221 348.91 66.0178C345.678 62.7821 343.808 62.0993 338.725 62.2964C332.103 62.5535 322.229 66.8207 316.606 71.8578L313.198 74.9107L314.82 71.7907C315.713 70.075 316.443 67.3421 316.443 65.7193C316.443 62.0478 311.806 61.7893 303.762 65.0064C297.312 67.5878 294.859 71.6578 280.868 102.989C272.539 121.641 270.616 128.789 273.456 130.546C275.263 131.662 287.908 126.068 291.785 122.436C293.545 120.789 296.276 115.991 297.853 111.773C303.165 97.5778 312.705 85.4164 322.37 80.5164C330.819 76.2364 331.839 76.2221 333.729 80.3692C335.003 83.1678 333.982 86.3949 327.192 101.016C319.173 118.279 316.756 126.372 318.363 130.563C319.456 133.406 319.6 133.389 327.562 129.351ZM394.516 126.465C406.279 120.879 421.849 106.536 428.536 95.1249C433.573 86.5292 434.102 76.065 429.793 70.2607C425.165 64.0278 421.108 62.5593 410.359 63.2221C385.55 64.7507 360.372 88.4149 356.945 113.422C355.91 120.962 359.975 128.823 366.14 131.208C372.37 133.616 383.309 131.789 394.516 126.465ZM376.549 114.396C372.612 107.039 383.1 88.2078 394.796 81.6349C397.762 79.9664 402.822 78.1821 406.037 77.6678C411.062 76.8635 412.112 77.1578 413.503 79.7564C417.085 86.4478 408.246 103.456 396.93 111.646C389.03 117.366 378.873 118.736 376.549 114.396ZM397.639 104.849C401.61 101.278 406.263 96.0835 407.982 93.3035C410.768 88.7978 410.872 88.0135 408.953 86.0935C407.032 84.1735 406.336 84.1792 402.546 86.1378C394.28 90.4121 385.006 104.109 386.949 109.171C388.232 112.511 389.84 111.861 397.639 104.849ZM490.509 129.308C499.337 124.833 500.295 123.552 503.552 111.849C505.049 106.462 508.242 97.7292 510.645 92.4421C516.245 80.1235 516.536 71.3035 511.507 66.275C505.01 59.7778 490.076 62.3721 479.429 71.8464C476.135 74.7792 476.035 74.7878 477.122 72.0535C479.702 65.565 478.882 63.4678 473.855 63.7021C464.265 64.1492 460.903 66.7707 455.089 78.3364C446.3 95.8192 435.427 120.489 434.353 125.386C432.98 131.636 435.653 132.285 445.267 128.032C453.036 124.596 459.3 118.583 459.3 114.561C459.3 110.292 468.795 94.8121 475.729 87.7792C482.457 80.9535 490.636 76.785 494.665 78.1278C498.089 79.2707 496.387 87.2221 489.993 99.9564C482.309 115.253 478.563 128.016 480.922 130.856C482.943 133.293 482.502 133.365 490.507 129.308H490.509ZM700.497 128.599C710.34 123.631 711.376 122.499 713.552 114.365C714.473 110.921 716.729 104.813 718.566 100.793C720.403 96.7721 724.58 87.3749 727.846 79.9107C731.112 72.4464 736.383 62.3278 739.557 57.425C745.257 48.625 745.887 44.1964 741.442 44.1964C737.52 44.1964 728.719 48.5078 724.517 52.4864C720.613 56.1835 706.363 82.8149 700.812 96.7892C699.35 100.471 696.212 107.661 693.839 112.768C688.826 123.556 687.224 129.139 688.536 131.258C689.924 133.508 691.443 133.171 700.497 128.599ZM741.431 129.263C750.349 125.046 751.299 123.988 754.36 114.876C755.674 110.966 757.904 105.196 759.317 102.054C760.729 98.9106 764.87 89.5892 768.52 81.3392C772.17 73.0892 777.696 62.4378 780.8 57.6678C783.903 52.8993 786.443 48.2393 786.443 47.3107C786.443 45.2136 779.404 45.1178 774.036 47.1421C766.37 50.0307 761.356 56.9278 750.459 79.5635C733.892 113.978 729.3 124.688 729.3 128.903C729.3 133.798 731.697 133.869 741.431 129.263Z" fill="white"/>
</g>
<defs>
<clipPath id="clip0_1168_2543">
<rect width="790.088" height="166.847" fill="white"/>
</clipPath>
</defs>
</svg>
