<svg xmlns="http://www.w3.org/2000/svg" width="448" height="210" fill="none" viewBox="0 0 448 210">
  <defs>
    <radialGradient id="mainlogo__a" cx="0" cy="0" r="1" class="mainlogo__a" gradientTransform="matrix(236.99977 -30.20663 9.23218 72.43523 222.563 89.086)" gradientUnits="userSpaceOnUse">
      <stop stop-color="#E9011E"/>
      <stop offset="1" stop-color="#A20015"/>
    </radialGradient>
    <radialGradient id="mainlogo__b" cx="0" cy="0" r="1" class="mainlogo__b" gradientTransform="matrix(236.99977 -30.20663 9.23218 72.43523 222.563 89.086)" gradientUnits="userSpaceOnUse">
      <stop stop-color="#E9011E"/>
      <stop offset="1" stop-color="#A20015"/>
    </radialGradient>
    <radialGradient id="mainlogo__c" cx="0" cy="0" r="1" class="mainlogo__c" gradientTransform="matrix(236.99977 -30.20663 9.23218 72.43523 222.563 89.086)" gradientUnits="userSpaceOnUse">
      <stop stop-color="#E9011E"/>
      <stop offset="1" stop-color="#A20015"/>
    </radialGradient>
    <radialGradient id="mainlogo__d" cx="0" cy="0" r="1" class="mainlogo__d" gradientTransform="matrix(236.99977 -30.20663 9.23218 72.43523 222.563 89.086)" gradientUnits="userSpaceOnUse">
      <stop stop-color="#E9011E"/>
      <stop offset="1" stop-color="#A20015"/>
    </radialGradient>
    <radialGradient id="mainlogo__e" cx="0" cy="0" r="1" class="mainlogo__e" gradientTransform="matrix(236.99977 -30.20663 9.23218 72.43523 222.563 89.086)" gradientUnits="userSpaceOnUse">
      <stop stop-color="#E9011E"/>
      <stop offset="1" stop-color="#A20015"/>
    </radialGradient>
    <radialGradient id="mainlogo__f" cx="0" cy="0" r="1" class="mainlogo__f" gradientTransform="matrix(236.99977 -30.20663 9.23218 72.43523 222.563 89.086)" gradientUnits="userSpaceOnUse">
      <stop stop-color="#E9011E"/>
      <stop offset="1" stop-color="#A20015"/>
    </radialGradient>
    <radialGradient id="mainlogo__g" cx="0" cy="0" r="1" class="mainlogo__g" gradientTransform="matrix(236.99977 -30.20663 9.23218 72.43523 222.563 89.086)" gradientUnits="userSpaceOnUse">
      <stop stop-color="#E9011E"/>
      <stop offset="1" stop-color="#A20015"/>
    </radialGradient>
    <linearGradient id="mainlogo__h" x1="245.203" x2="250.203" y1="42.879" y2="98.879" class="mainlogo__h" gradientUnits="userSpaceOnUse">
      <stop stop-color="#F68D9A"/>
      <stop offset="1" stop-color="#CE011B"/>
    </linearGradient>
  </defs>
  <g class="mainlogo__mainlogo">
    <path fill="#520810" d="M411.714 25.249c.242-.037.494-.066.615.037.071.008.15.01.233.011l.097.002c.099 0 .199-.002.294.002l.067.005.067.006a.982.982 0 0 1 .14.03c.022.006.044.012.064.02a.659.659 0 0 1 .021.01l.019.012c.011.006.02.014.029.02a.158.158 0 0 1 .016.013l.011.008.073.074c.034-.005.068-.01.1-.012l.044-.002h.1c.027.001.052.005.076.008a.68.68 0 0 1 .101.02c.005 0 .01.003.015.004a.4.4 0 0 1 .101.051l.013.01.008.006.071.072a.822.822 0 0 1 .578.162.742.742 0 0 1 .122-.008l.03.001c.077.005.15.022.207.046a.309.309 0 0 1 .083.047l.011.009.003.003.089.088c.781.138 1.692.52 2.166.921a.736.736 0 0 1 .152-.004.727.727 0 0 1 .112.013l.014.003a.63.63 0 0 1 .09.031l.02.01.019.01a.254.254 0 0 1 .05.037l.104.104a4.84 4.84 0 0 1 .248.104c.011.006.023.01.034.017a.377.377 0 0 1 .097.067l.122.122a3.795 3.795 0 0 1 .232.095l.053.026.019.013a.418.418 0 0 1 .065.048l.006.005.249.249c.036.025.07.05.102.071l.042.03.018.013a.871.871 0 0 1 .067.054l.01.008.124.123.138.055c.036.015.071.032.103.048.011.006.023.01.033.016a.411.411 0 0 1 .033.02.35.35 0 0 1 .066.047l.123.123a4.065 4.065 0 0 1 .216.09.862.862 0 0 1 .068.034l.016.009a.397.397 0 0 1 .071.053l.003.002.619.619.009.005.016.007a.947.947 0 0 1 .068.037l.034.02c.026.017.05.036.071.057l.362.361.018.017.014.01 13.174 13.175a.24.24 0 0 1 .068.117l.001.014.235.236c.083.083.126.148.136.213l.233.233.063.067c.046.054.07.101.077.148l.233.233c.086.085.133.152.141.22l.19.19c.091.09.15.174.173.281.002.006.001.012.002.018l.224.223c.212.211.292.614.401.789 1.183 1.704 1.78 3.651 2.097 5.682.233 6.251.233 11.487 0 14.934 0 .251 0 .373-.121.513-.149.521-.122 1.23-.494 1.686a12.42 12.42 0 0 1-1.482 3.195c-.512 1.211-1.76 2.152-2.468 3.335-.624.317-1.118 1.248-1.723 1.49-1.127 1.184-2.655 1.743-3.94 2.544l-.126.043 10.465 10.466V107.4l-14.42 2.031-13.175-13.174c-1.741-2.298-3.39-4.468-4.945-6.51v22.227l-23.914 3.364-3.681-3.682v4.186l-52.756 7.416L313 110.083V92.039c1.109-.159 2.712-.382 4.929-.69V76.746l-12.243 1.72-.988-.988v25.265l4.807 4.806v18.045l-27.239 3.83-13.176-13.175V98.204c1.23-.177 2.832-.402 4.929-.69V82.915l-5.187.728-3.578-3.577c.403 9.334-.339 20.436-.007 36.182-.251 1.667-.569 3.559-1.482 5.31-.14.475-.233.783-.615 1.453 0 .122-.121.392-.373.671 0 .074-.095.21-.224.369-.079.098-.169.206-.26.311l-.01.01-.005.051c-.026.137-.147.375-.367.62-.14.4-.522.689-.987 1.256-.252.569-.979 1.222-1.603 1.846 0 .121-.243.28-.494.569-.121.019-.373.298-.615.586-.372.122-.791.643-1.229 1.043-.121.019-.373.177-.615.456-.121.019-.373.178-.736.476-.456.214-.746.335-1.351.81l-.002.001a.965.965 0 0 0-.261.07.977.977 0 0 0-.352.265c-.072.011-.191.029-.352.105a1.822 1.822 0 0 0-.384.248c-7.197 2.384-14.205 2.705-24.318 4.049-.674.089-1.362.185-2.064.284l-.052-.033c-.096-.045-.242-.043-.433-.021a6.772 6.772 0 0 0-.251.035l-.052-.035a.393.393 0 0 0-.139-.035c-.135-.011-.319.017-.546.052l-.066-.042a1.026 1.026 0 0 0-.389-.113c-.289-.034-.635-.001-1.025-.013l-.052-.038a.89.89 0 0 0-.434-.122 1.373 1.373 0 0 0-.251.011l-.051-.039a.868.868 0 0 0-.564-.12l-.261-.13c-.311-.141-.749-.297-1.098-.297-.121-.103-.373-.196-.737-.271-.605-.438-1.704-.811-2.468-1.397l-.29-.289-.023-.017c-.237-.165-.551-.329-.796-.533l-.686-.687-.071-.069a15.625 15.625 0 0 0-.725-.65l-7.781-7.784c-.25 1.647-.571 3.503-1.468 5.224-.14.475-.233.783-.615 1.454-.001.121-.121.392-.372.671-.001.121-.243.41-.495.689 0 .122-.121.391-.373.67a1.1 1.1 0 0 1-.054.127l-.024.044a1.674 1.674 0 0 1-.054.091l-.033.048c-.02.029-.043.059-.066.089a4.661 4.661 0 0 1-.234.27l-.087.098c-.131.142-.278.301-.434.491l-.053.108c-.01.02-.024.039-.036.059l-.006.015-.006.009c-.017.029-.038.058-.058.088-.029.044-.059.09-.092.134a3.66 3.66 0 0 1-.236.292 7.992 7.992 0 0 1-.126.141l-.067.074a15.19 15.19 0 0 1-.42.426 79.12 79.12 0 0 0-.502.499l-.005.03-.004.009-.007.015-.014.023a.268.268 0 0 1-.025.037c-.015.019-.034.038-.054.06-.038.04-.081.087-.133.136a5.77 5.77 0 0 0-.253.258c-.121.019-.373.299-.615.587-.195.064-.403.237-.619.445-.197.189-.402.407-.61.598-.122.019-.373.178-.616.457-.121.019-.372.177-.735.475a5.558 5.558 0 0 0-1.36.81l-.002.001a.939.939 0 0 0-.613.335h-.002c-.122.019-.373.058-.734.354l-.72.232-.173.053-.301.091c-.232.07-.465.138-.697.204l-.193.055c-.292.081-.583.161-.876.237l-.278.07a50.48 50.48 0 0 1-.767.19l-.119.028c-.312.074-.624.145-.938.214-.081.017-.163.033-.244.051-.227.048-.455.095-.683.141l-.31.063c-.253.05-.509.098-.764.145l-.172.031a81.539 81.539 0 0 1-2.933.479l-.162.025c-.454.066-.912.13-1.376.193l-.493.065-.733.095c-1.114.142-2.261.279-3.449.419l-1.028.121c-2.733.32-5.689.665-8.965 1.13l-.051-.035c-.134-.068-.367-.033-.685.016-.121-.102-.373-.074-.736-.018a.898.898 0 0 0-.308-.13 1.771 1.771 0 0 0-.303-.036l-.058-.002c-.241-.007-.514.009-.812 0-.106-.098-.312-.174-.605-.16a1.577 1.577 0 0 0-.131.011l-.051-.038a.862.862 0 0 0-.564-.121c-.27-.149-.894-.429-1.36-.429-.121-.111-.373-.195-.736-.269-.234-.169-.543-.327-.877-.493l-.371-.187a8.63 8.63 0 0 1-.215-.108c-.055-.028-.108-.058-.162-.087-.061-.032-.122-.063-.182-.097-.075-.042-.148-.087-.222-.132-.042-.026-.087-.05-.129-.077l-.085-.055-.073-.049a4.274 4.274 0 0 1-.152-.113l-.288-.288c-.202-.143-.466-.286-.695-.454a2.073 2.073 0 0 1-.126-.095l-.709-.709-.049-.048a16.76 16.76 0 0 0-.724-.651l-7.277-7.277v14.925l-27.239 3.829-3.7-3.699v4.23c-6.036.848-15.157 2.134-27.239 3.829l-6.343-6.343c-.073.096-.146.197-.225.298-.578.969-1.538 1.799-2.47 2.963-.343.196-.577.559-1.108 1.025-.12.018-.373.176-.615.456-.12.019-.372.178-.614.457-.121.019-.373.177-.615.457-.121.019-.373.176-.614.455-.121.018-.374.177-.737.475 0 0-.242.037-.615.335-.838.457-1.686.793-2.711 1.38l-1.247.261c-12.984 2.658-28.81 4.048-52.617 7.685L8 152.957v-30.492c5.3-.746 13.191-1.854 23.541-3.307l5.923 5.922c3.413-.366 7.459-.837 11.07-1.945-.778-.505-1.568-1.015-2.366-1.53-5.61-3.616-11.646-7.412-17.111-10.615l-.382-.383a1.498 1.498 0 0 0-.113-.046l-.381-.382-.011-.005c-.031-.015-.066-.028-.102-.042L14.894 96.958c0-.023-.005-.045-.008-.065l-.486-.485a.213.213 0 0 0-.033-.107l-.34-.34a.338.338 0 0 0-.007-.066l-.486-.484a.213.213 0 0 0-.031-.103l-.003-.006-.339-.339a.466.466 0 0 0-.078-.273l-.295-.295c0-.096 0-.173-.015-.244a.548.548 0 0 0-.1-.213l-.025-.027a1.176 1.176 0 0 0-.102-.103.465.465 0 0 0-.08-.274l-.292-.293-.212-.47c-2.09-4.82-1.396-8.6-1.27-15.378.56-4.043 2.553-7.574 4.928-10.9a51.782 51.782 0 0 1 4.436-4.228l.782-.504c1.844-1.167 3.807-2.257 5.878-2.925 12.66-2.432 24.986-3.558 46.59-6.8L86.48 65.21v5.409c5.232-.736 11.672-1.642 19.29-2.711l3.699 3.698V67.37l27.24-3.83 6.543 6.544c5.273-8.696 13.712-9.696 24.398-10.961 2.846-.337 5.852-.693 8.998-1.218l.017.016c1.961-.287 4.023-.387 5.899.17.122-.018.374-.055.616.159l.059.004c.47.035.898.066 1.3.423.242-.037.494.057.736.27.122-.018.373.076.616.29.242-.037.372.075.614.29.155-.025.265.062.388.185l.034.034.043.044.047.049.066.063.037.034c.04.011.079.023.118.036l.023.008.094.035.022.01c.062.026.122.055.183.086l.059.03a3.47 3.47 0 0 1 .529.358c.022.017.045.032.066.05.066.053.131.11.196.166.132.116.26.239.388.363.023.023.049.044.072.067l.237.238.07.068.161.162.12.077c.141.099.334.257.503.426l8.142 8.142c.104-1.018.496-2.002.605-3.003 5.972-16.76 18.828-14.645 35.866-17.486l.017.017c1.963-.288 4.029-.39 5.909.169a.7.7 0 0 1 .615.159c.494.037.941.056 1.351.429a.717.717 0 0 1 .186-.004c.186.02.368.112.55.273.121-.018.373.075.614.29a.505.505 0 0 1 .164-.002c.151.026.269.129.451.29a.325.325 0 0 1 .161.017l.012.005a.506.506 0 0 1 .103.063c.037.03.074.063.111.1l.064.064c.05.052.103.107.164.16l.118.037.016.005a2.451 2.451 0 0 1 .121.047c.069.029.137.06.205.095l.024.014a2.68 2.68 0 0 1 .233.138 4.655 4.655 0 0 1 .425.317l.065.056a9.64 9.64 0 0 1 .527.485l.485.484c.046.026.108.068.179.121.024.018.049.035.074.055l.025.02c.042.034.087.07.131.109l.071.063.08.077.056.051 7.774 7.775v-14.93c12.083-1.696 30.073-4.23 54.239-7.621L313 42.301V38.76c11.831-1.667 29.336-4.126 52.757-7.415l3.681 3.681V30.82l3.547-.451c17.347-2.269 28.877-4.71 38.729-5.12ZM52.19 91.569c4.015 2.67 8.51 5.663 13.477 8.976a.128.128 0 0 1 .047.003l.007.001.027.011a.36.36 0 0 1 .05.024l.028.017a.82.82 0 0 1 .062.044l.021.019c.026.022.054.046.082.073l.013.012.346.346.047.008.022.006c.03.007.06.015.088.024l.025.008c.027.009.052.021.077.032l.035.015c.016.008.033.015.048.024a1.02 1.02 0 0 1 .163.103 2.434 2.434 0 0 1 .206.179l.034.029.011.011.602.601h.02l.026.008c.015.004.031.006.046.012l.006.003.008.005a.43.43 0 0 1 .125.091l.753.754.104.087.049.043.128.12.028.027.62.619a.553.553 0 0 1 .055.024l.032.018a.52.52 0 0 1 .058.038l.025.019a.908.908 0 0 1 .078.069l13.174 13.174c.105.105.198.244.296.395V95.093l-.166-.166-20.728 2.917-6.765-6.765c-1.078.15-2.24.315-3.49.49Zm124.35-.17c-.742.223-1.328.476-1.64.751-.042.037-.08.075-.112.113l-.149.064a2.26 2.26 0 0 0-.49.349c-.108.095-.223.202-.351.32-.111.102-.232.214-.369.33-1.183.997-2.144 2.831-2.591 4.592.009.43.015.886.018 1.365.001.105.003.212.003.32.002.266.001.54.001.82.001.384 0 .782-.002 1.191a864.405 864.405 0 0 1-.027 3.829 592.204 592.204 0 0 0-.031 6.343l.055-.008c.121-.14.243-.279.494-.316v-.018c.169-.062.35-.148.554-.233l.127-.052.042-.017c.084-.031.172-.062.265-.09.233-.27.661-.522.866-.615l.373-.429c.448-.22 1.054-.853 1.366-1.364l.115-.21a1.95 1.95 0 0 1 .099-.122c.03-.034.062-.066.093-.098.201-.21.409-.404.423-.739.121-.139.242-.28.242-.41.121-.14.242-.28.242-.531.477-2.324.612-4.751.616-7.468.001-.995-.015-2.03-.04-3.111-.032-1.436-.076-2.956-.111-4.581l-.081.024Zm57.903-8.127c-.827.253-1.456.54-1.719.856-.456.158-.755.55-1.36 1.061-1.192.997-2.143 2.833-2.591 4.594.07 3.138-.034 7.597-.039 12.931l.001.935.046-.006.093-.104a.664.664 0 0 1 .401-.214l.009-.018.448-.188c.162-.07.339-.143.54-.203l.096-.1c.241-.23.591-.434.771-.516l.002-.002.37-.425c.512-.252 1.23-1.045 1.481-1.575.233-.317.596-.513.614-.96.122-.14.244-.28.244-.41.121-.14.242-.28.242-.53.882-4.305.597-8.965.464-15.16l-.113.034Zm120.046-16.895 7.422 7.422v6.006l3.846-.539 5.14 5.14c2.011-.284 3.602-.51 4.708-.661V68.639l-14.057 1.974-4.583-4.583-2.476.347Z" class="mainlogo__Union"/>
    <path fill="#000" d="M317.929 91.35c-2.217.306-3.82.53-4.929.689v18.043l13.176 13.176 52.756-7.416v-4.186l3.681 3.681 23.914-3.363V89.746a3631.07 3631.07 0 0 1 4.945 6.51l13.174 13.175 14.421-2.031V89.85l-10.465-10.467c.041-.014.083-.03.126-.043 1.285-.8 2.813-1.36 3.94-2.544.605-.242 1.099-1.173 1.723-1.49.708-1.183 1.956-2.124 2.468-3.335a12.422 12.422 0 0 0 1.482-3.195c.372-.456.345-1.165.494-1.687.091-.105.113-.2.119-.346l.002-.166c.204-3.016.229-7.402.076-12.639l-.076-2.295c-.317-2.03-.914-3.978-2.097-5.683-.109-.174-.189-.577-.401-.789l-.224-.222-.002-.018a.486.486 0 0 0-.111-.215l-.062-.067-.19-.19a.307.307 0 0 0-.084-.159l-.057-.06-.233-.233a.235.235 0 0 0-.024-.072l-.053-.076-.064-.068-.232-.232a.31.31 0 0 0-.081-.154l-.055-.059-.235-.236-.001-.014a.201.201 0 0 0-.023-.06l-.045-.057-13.174-13.175-.014-.01-.018-.017-.362-.361a.477.477 0 0 0-.071-.057l-.034-.02a.947.947 0 0 0-.068-.037l-.016-.008-.009-.005-.619-.619-.003-.002a.397.397 0 0 0-.071-.052l-.016-.01a1.076 1.076 0 0 0-.068-.033l-.069-.03a4.065 4.065 0 0 0-.147-.06l-.123-.123a.385.385 0 0 0-.066-.048.443.443 0 0 0-.033-.02l-.033-.015a4.345 4.345 0 0 0-.241-.103l-.124-.123-.01-.009-.067-.053-.018-.014a1.07 1.07 0 0 0-.042-.03l-.103-.07-.249-.25-.005-.004a.418.418 0 0 0-.065-.048l-.019-.013c-.017-.01-.035-.017-.053-.026a4.308 4.308 0 0 0-.232-.095l-.122-.122a.377.377 0 0 0-.097-.067l-.034-.017a4.923 4.923 0 0 0-.249-.105l-.103-.103a.25.25 0 0 0-.05-.037l-.019-.011-.02-.009-.09-.031-.014-.003a.727.727 0 0 0-.144-.015c-.039 0-.08 0-.12.006l-.197-.15c-.503-.343-1.286-.65-1.969-.772l-.089-.087-.003-.003a.309.309 0 0 0-.094-.056.64.64 0 0 0-.237-.047.742.742 0 0 0-.122.008l-.105-.07a.861.861 0 0 0-.473-.092l-.071-.072c-.002-.003-.006-.005-.008-.006l-.013-.01c-.009-.007-.018-.014-.029-.02a.464.464 0 0 0-.072-.031l-.015-.005a.68.68 0 0 0-.101-.02.856.856 0 0 0-.076-.007h-.1c-.015 0-.03 0-.044.002-.032.002-.066.007-.1.012l-.073-.074-.011-.009-.016-.011-.029-.022-.019-.01-.021-.01-.064-.022a.833.833 0 0 0-.14-.029c-.022-.003-.045-.004-.067-.006l-.067-.005-.391-.004a2.11 2.11 0 0 1-.233-.011c-.121-.103-.373-.075-.615-.038-9.852.411-21.383 2.852-38.729 5.12l-3.547.452v4.205l-3.681-3.68c-23.421 3.288-40.926 5.747-52.757 7.414v3.542l-3.105-3.105c-24.166 3.39-42.156 5.924-54.239 7.62v14.93l-7.774-7.774-.056-.052a2.738 2.738 0 0 0-.08-.076l-.071-.063-.131-.109-.025-.02-.074-.055-.179-.121-.485-.484a11.056 11.056 0 0 0-.359-.338l-.168-.148-.065-.054a4.655 4.655 0 0 0-.425-.318l-.068-.042a2.681 2.681 0 0 0-.165-.096l-.024-.014a2.615 2.615 0 0 0-.271-.121l-.055-.02-.016-.007-.118-.036a2.511 2.511 0 0 1-.164-.16l-.064-.063a1.147 1.147 0 0 0-.166-.139l-.048-.025-.012-.005a.328.328 0 0 0-.161-.018l-.126-.11c-.117-.097-.212-.16-.325-.179a.505.505 0 0 0-.164.001l-.09-.075c-.212-.16-.418-.23-.524-.214l-.137-.108a.895.895 0 0 0-.413-.165.722.722 0 0 0-.186.004l-.155-.125c-.367-.253-.764-.272-1.196-.304a.7.7 0 0 0-.615-.16l-.355-.097c-1.782-.448-3.713-.341-5.554-.071l-.017-.017c-17.038 2.841-29.894.726-35.866 17.485-.109 1.001-.501 1.986-.605 3.003l-8.142-8.141a4.296 4.296 0 0 0-.262-.24l-.241-.186-.12-.076c-.053-.053-.107-.11-.161-.163l-.07-.069-.237-.237-.072-.067a10.42 10.42 0 0 0-.584-.53l-.066-.05a3.452 3.452 0 0 0-.529-.357l-.059-.03-.183-.086-.022-.01-.094-.035-.023-.008a1.893 1.893 0 0 0-.118-.036l-.037-.034-.066-.064-.047-.049-.043-.043-.034-.035c-.123-.122-.233-.209-.388-.185l-.164-.14c-.15-.121-.269-.177-.45-.15l-.091-.074c-.212-.162-.419-.23-.525-.214l-.09-.076c-.214-.16-.434-.227-.646-.195l-.152-.119c-.358-.246-.737-.274-1.148-.305l-.059-.004c-.242-.213-.494-.176-.616-.158l-.353-.097c-1.78-.448-3.708-.343-5.546-.074l-.017-.015c-3.146.525-6.152.88-8.998 1.217l-1.977.236c-9.752 1.184-17.478 2.573-22.421 10.725l-6.543-6.542-27.24 3.829v4.238l-3.699-3.698c-7.618 1.069-14.058 1.975-19.29 2.71V65.21L73.306 52.036c-21.604 3.242-33.93 4.368-46.59 6.8l-.387.13c-1.928.674-3.762 1.701-5.491 2.795l-.782.504-.587.504a51.686 51.686 0 0 0-3.849 3.725l-.44.626c-2.179 3.142-3.963 6.483-4.488 10.273l-.029 1.236c-.173 6.018-.661 9.622 1.299 14.141l.212.47.293.294c.051.077.079.16.079.274l.102.103.025.027a.55.55 0 0 1 .1.213c.014.07.015.148.015.244l.295.295c.05.077.078.16.078.273l.339.34.003.005c.02.035.031.069.031.103l.486.484c.003.02.007.043.007.065l.34.341a.214.214 0 0 1 .033.107l.486.485c.004.02.009.042.009.064l13.173 13.175c.037.014.07.027.102.041l.01.006.383.382.112.046.382.383 2.074 1.227c4.893 2.922 10.129 6.224 15.037 9.388.798.514 1.588 1.025 2.366 1.53-3.611 1.108-7.657 1.579-11.07 1.945l-5.923-5.922L8 122.464v30.493l13.176 13.173c23.063-3.523 38.636-4.938 51.391-7.439l1.226-.245 1.247-.261c.769-.44 1.438-.74 2.078-1.055l.633-.325c.28-.223.486-.301.571-.325l.044-.01c.318-.26.55-.415.685-.462l.052-.013c.241-.279.493-.436.614-.455.242-.28.494-.439.615-.458.242-.279.493-.438.614-.457.242-.279.494-.437.615-.456.531-.465.765-.828 1.109-1.024.931-1.164 1.891-1.994 2.469-2.963.079-.101.152-.202.225-.298l6.343 6.343c12.082-1.695 21.203-2.981 27.239-3.829v-4.231l3.7 3.7 27.239-3.829v-14.925l7.277 7.277a14.154 14.154 0 0 1 .724.65c.016.016.032.033.049.048l.709.709.126.096c.229.167.493.31.695.454l.288.288c.049.038.1.076.152.113l.073.048.085.056c.042.027.087.051.129.077.073.044.147.09.222.132l.182.097.162.087.215.108.371.187c.334.165.643.323.877.493l.251.057c.229.06.394.128.485.212l.181.012c.311.04.659.169.919.287l.26.13a.856.856 0 0 1 .564.121l.051.038c.045-.006.09-.01.131-.012.293-.013.499.063.605.161.298.008.571-.007.812 0l.058.001c.108.005.209.016.303.037a.86.86 0 0 1 .222.078l.086.052c.318-.049.55-.077.684-.015l.052.033c.318-.049.551-.084.685-.017l.051.036c1.638-.233 3.196-.435 4.686-.62l4.279-.51 1.028-.121 1.752-.209 1.696-.21.734-.095.493-.065 1.376-.193.162-.025 1.239-.19.466-.076.32-.054.908-.159.172-.031.764-.146.31-.062.683-.142.244-.05.938-.214.119-.029.767-.189.278-.07.876-.238.193-.054.697-.204.301-.091.173-.053.72-.232c.361-.296.611-.335.734-.354h.002l.091-.094a.902.902 0 0 1 .408-.22l.114-.021.002-.001c.188-.145.347-.259.488-.351.16-.105.299-.185.437-.255l.435-.204c.317-.26.549-.414.684-.461l.051-.014c.212-.244.431-.396.564-.443l.052-.014c.208-.191.413-.409.61-.599.189-.182.372-.337.546-.416l.073-.028c.212-.252.431-.498.564-.568l.051-.019c.089-.099.177-.184.253-.258l.133-.136.054-.06a.345.345 0 0 0 .025-.037l.014-.024.007-.014.004-.009.005-.03.502-.499.42-.426.193-.215.063-.074.119-.148.054-.07c.033-.045.063-.09.092-.134l.058-.089a.042.042 0 0 0 .006-.008l.006-.015.036-.06.053-.107c.078-.095.153-.183.226-.264l.208-.227c.03-.033.058-.067.087-.098l.234-.27.066-.089.033-.048.054-.091.024-.044a1.1 1.1 0 0 0 .054-.127c.251-.279.373-.548.373-.67.251-.279.494-.568.495-.689.251-.279.371-.55.372-.671.382-.671.475-.979.615-1.454.897-1.721 1.218-3.578 1.468-5.224l7.781 7.783.231.198c.17.148.336.302.493.453l.072.069.686.687c.245.204.559.368.796.533l.023.016.29.289.146.108c.753.526 1.755.879 2.322 1.29l.251.059c.23.062.395.135.486.211l.135.007c.322.032.691.168.963.291l.261.13a.862.862 0 0 1 .564.12l.051.038c.091-.011.175-.014.251-.01a.88.88 0 0 1 .434.122l.052.038c.39.011.736-.021 1.025.012.145.017.275.051.389.114l.066.042c.227-.035.411-.063.546-.052a.393.393 0 0 1 .139.035l.052.034c.09-.014.174-.025.25-.034.192-.022.338-.024.434.021l.052.033 2.064-.284c9.797-1.302 16.68-1.645 23.644-3.832l.674-.217c.146-.12.275-.197.383-.248.081-.038.151-.062.21-.077l.143-.029a.961.961 0 0 1 .5-.314l.113-.021.002-.001c.454-.356.73-.513 1.032-.66l.319-.149c.317-.261.55-.415.684-.462l.052-.014c.212-.245.432-.397.565-.443l.05-.013c.383-.35.752-.794 1.087-.98l.142-.063c.211-.252.431-.498.563-.568l.052-.019c.251-.288.493-.447.494-.568.624-.624 1.351-1.278 1.603-1.846.465-.567.847-.856.987-1.257a1.79 1.79 0 0 0 .329-.499l.038-.12.005-.051.01-.01.26-.311c.096-.119.175-.226.208-.303l.016-.066c.251-.279.373-.549.373-.671.382-.67.475-.978.615-1.453.913-1.751 1.231-3.643 1.482-5.311-.332-15.745.41-26.848.007-36.181l3.578 3.577 5.187-.729v14.598a978.9 978.9 0 0 0-4.929.69v18.045l13.176 13.176 27.239-3.83v-18.045l-4.807-4.806V77.478l.988.987 12.243-1.72V91.35Zm-109.562 49.244-.005.004.006-.006-.001.002Zm.166-.679v.001l.002-.004-.002.003Zm.008-.017.049-.099-.008.017.018-.036.014-.034-.024.053-.035.072-.014.027Zm.964-.762-.007.013.017-.026-.01.013ZM62.445 97.844l20.728-2.917.166.166v22.548a2.39 2.39 0 0 0-.296-.395l-13.174-13.174a1.111 1.111 0 0 0-.078-.07l-.025-.018a.52.52 0 0 0-.058-.038l-.032-.018a.543.543 0 0 0-.055-.024l-.62-.619-.028-.027a5.296 5.296 0 0 0-.128-.12l-.05-.043a13.53 13.53 0 0 0-.103-.087l-.753-.755a.444.444 0 0 0-.124-.09l-.01-.005-.005-.003c-.015-.006-.03-.008-.046-.012-.009-.002-.017-.007-.026-.008h-.02l-.602-.601-.011-.011c-.01-.01-.023-.019-.034-.029a2.167 2.167 0 0 0-.207-.179 1.192 1.192 0 0 0-.162-.104l-.048-.023-.035-.016a1.036 1.036 0 0 0-.077-.031l-.025-.008a1.19 1.19 0 0 0-.11-.03l-.047-.008-.346-.347-.013-.011a1.198 1.198 0 0 0-.193-.154.51.51 0 0 0-.05-.023l-.027-.011a13225.785 13225.785 0 0 0-13.53-8.98c1.25-.176 2.411-.34 3.489-.49l6.765 6.765Zm114.287-1.89c.025 1.082.041 2.117.039 3.112-.003 2.716-.138 5.144-.615 7.468 0 .251-.121.391-.242.531 0 .13-.121.271-.242.41-.014.335-.222.529-.423.738-.031.033-.063.065-.093.099a1.95 1.95 0 0 0-.099.122l-.115.21c-.312.51-.918 1.144-1.366 1.364l-.373.429c-.205.093-.633.345-.866.615a3.907 3.907 0 0 0-.265.09l-.042.017-.127.051c-.204.086-.385.172-.554.234v.017c-.251.038-.373.177-.494.317a1.04 1.04 0 0 0-.055.008c-.004-2.274.014-4.4.031-6.343.012-1.37.022-2.651.027-3.829.002-.41.002-.807.002-1.192 0-.279.001-.553-.001-.819 0-.108-.002-.215-.003-.32a93.544 93.544 0 0 0-.018-1.366c.447-1.76 1.408-3.595 2.591-4.591.137-.116.258-.228.369-.33.128-.118.243-.225.351-.32.166-.147.32-.266.49-.35l.149-.063c.032-.038.07-.076.112-.113.312-.275.898-.528 1.64-.752l.081-.024c.035 1.625.079 3.145.111 4.58Zm57.824-12.715c.133 6.194.418 10.854-.464 15.158 0 .251-.121.392-.242.531-.001.13-.123.27-.244.41-.019.447-.381.643-.614.959-.251.531-.969 1.324-1.481 1.576l-.37.424-.002.003c-.18.082-.53.286-.771.516l-.097.099c-.2.061-.377.134-.539.204l-.448.188-.009.018a.664.664 0 0 0-.401.214l-.093.104-.046.006-.001-.936c.005-5.333.109-9.792.039-12.93.448-1.761 1.399-3.597 2.591-4.594.605-.512.904-.903 1.36-1.062.263-.314.892-.603 1.719-.855l.113-.033ZM74.38 97.363l.02.018-.006-.005-.037-.035-.004-.004.027.026Zm287.168-26.75 14.056-1.974v15.106c-1.105.151-2.696.377-4.708.66l-5.139-5.139-3.846.54v-6.007l-7.422-7.423 2.476-.346 4.583 4.583ZM193.051 54.174l.019.016-.102-.078a.025.025 0 0 1-.005-.004l.088.066Zm251.162-9.803-.001-.022-.004-.049.005.07Zm-.035-.364Zm-.062-.419.007.035-.005-.035h-.002Zm-17.527-19.96-.048-.042c.017.014.032.03.048.042Zm-2.564-2.073.012.01-.049-.04.037.03Zm-.178-.15-.059-.046.059.047Zm-.161-.06.009.006.005.003-.014-.01Zm-2.685-1.685-.003-.001-.019-.008-.018-.009.04.018Zm-4.614-1.745.138.046.01.004a7.54 7.54 0 0 0-.165-.056l.017.006Zm-.017-.005-.029-.01-.022-.007-.004-.002.055.019Zm-3.738-.612c.008 0 .034.002.073.002l-.036-.002h-.037Zm11.235 4.126.121.1-.024-.02.078.068h.001l.148.098.162.094c.126.076.3.189.507.335l.534.354.56.56.145.146c.199.16.42.35.647.575l.013.012.295.295.109.105h.002l13.174 13.176c.216.216.436.46.651.734.113.126.243.276.38.453l.003.004.125.146c.069.08.14.169.215.264.141.156.311.358.495.605.161.189.333.407.507.655a8.979 8.979 0 0 1 1.226 1.997c1.745 2.805 2.528 5.723 2.919 8.23l.073.465.017.47c.232 6.226.247 11.697.001 15.55l-.003.16c-.01.252-.037.735-.149 1.321a8.623 8.623 0 0 1-.254.992l-.021.119a10.066 10.066 0 0 1-.837 2.542 20.466 20.466 0 0 1-1.82 3.824c-.78 1.516-1.756 2.613-2.131 3.044-.334.385-.421.478-.55.636l-.008.008-.413.69 6.302 6.304v27.817l-25.255 3.557-7.285-7.284v8.302l-34.75 4.888-.011-.012-56.426 7.932-5.835-5.834v6.646l-38.075 5.355-9.893-9.893-.069.114c-.103.161-.207.309-.301.441-.156.28-.318.538-.479.774-.486.819-.971 1.361-1.161 1.576l-.137.151c-.122.181-.234.342-.336.477-.344.459-.684.84-.94 1.115-.199.213-.454.47-.673.687-.323.394-.598.663-.651.715l-.062.06-1.778 2.042-.057.008-.022.027-.673.219-.535.489-1.175 1.356-1.353.207-.073.034-.25.198-1.025 1.182-1.624.249-.718.239c-8.148 2.699-16.526 3.155-25.779 4.384-.646.086-1.31.179-1.996.276l-2.941.416-.122-.078-.629.097-.162-.106-.485.075-.888-.561h-.003l-1.743.223-1.262-.929-1.484-.001-.863-.73-.234-.048-1.117-.807-.32-.16c-.244-.12-.634-.316-1.052-.552a13.246 13.246 0 0 1-1.559-1.025l-.41-.313-.071-.072a10.666 10.666 0 0 1-.875-.651l-.279-.232-.902-.903a8.435 8.435 0 0 0-.202-.185l-.021.03a11.428 11.428 0 0 1-.553.651l-.044.049-.261.378a7.958 7.958 0 0 1-.124.163l-.031.041c-.014.018-.005.007-.012.017-.11.141-.218.275-.324.4l-.001.001a7.013 7.013 0 0 1-.149.175l-.001.001-.266.297.068-.074-.054.06a23.609 23.609 0 0 1-.77.794l-.015.015c-.146.176-.261.308-.315.366-.026.029-.051.053-.065.068l.001.001c-.029.031-.17.179-.352.358l-1.631 1.812-.204.243-.672.219-.531.486-1.168 1.347-1.335.209-.133.06-.213.165-1.507 1.739h-2.036l-.615.198-.034.012-.035.011-.179.054-.032.01.008-.003-.352.107-.815.239-.225.063c-.328.093-.669.185-1.018.276l-.212.055-.11.027c-.281.071-.578.145-.884.218l-.137.033a65.731 65.731 0 0 1-1.287.289l-.05.011-.012.002c-.261.055-.519.109-.772.16l-.349.07-.854.163-.192.034c-.34.062-.676.121-1.003.176l-.349.06-.509.083c-.453.072-.902.139-1.339.204l.045-.007-.014.003-.073.012-.132.019a131.232 131.232 0 0 1-1.978.274l-.766.098a369.17 369.17 0 0 1-3.526.429l-1.032.121c-2.74.321-5.605.657-8.772 1.106l-3.101.439-.112-.077-1.02.157-.132-.111-.194.03-.82-.576-1.636.211-1.248-.936-.002-.001h-1.644l-.827-.761-.079-.016-1.044-.755v4.223l-30.939 4.348v.013l-6.887.967c-6.026.846-15.164 2.134-27.24 3.829l-3.949.555-3.253-3.253-.544.628-.253.039-.363.42-.254.039-.357.413-.256.04-.368.425-.932.142-.549.451-.823.125c-.398.201-.754.371-.978.479-.402.194-.665.326-.924.474l-1.099.63-2.486.52-.017.004-.017.003c-13.166 2.695-29.97 4.235-53.013 7.756l-4.002.611L0 156.27v-40.76l6.886-.969 12.52-1.758-12.51-12.51v-.057l-.494-.493v-.08l-.367-.368v-.047l-.494-.492v-.08l-.378-.377v-.197l-.375-.373v-.084l-.24-.212v-1.642C1.653 88.95 2.593 82.638 2.693 77.244l.01-.476.065-.47c.824-5.965 3.712-10.772 6.342-14.455l.3-.419.35-.378a59.77 59.77 0 0 1 5.128-4.888l.397-.336L16.561 55c2.048-1.296 4.677-2.803 7.697-3.778l.467-.151.482-.092c12.815-2.461 25.904-3.703 46.911-6.855l3.991-.6 17.95 17.951 7.411-1.041v-.02l38.076-5.352 3.43 3.429c7.257-5.622 16.29-6.433 23.735-7.315 2.867-.34 5.69-.675 8.622-1.164l3.911-.652.349.328c1.3.005 2.704.127 4.144.45a8.64 8.64 0 0 1 1.5.304c.598.116 1.337.315 2.129.663a8.99 8.99 0 0 1 1.198.493l.203.086.186.086a8.484 8.484 0 0 1 1.301.62c.486.241.9.506 1.237.75a11.427 11.427 0 0 1 1.598 1.065l.163.128.439.37.392.357.182.174.035.033.206.197.06.06c.271.215.542.448.802.693a27.12 27.12 0 0 1 3.549-4.158c3.402-3.243 7.267-5.167 11.168-6.397 3.788-1.195 7.8-1.789 11.543-2.258 3.942-.494 7.585-.853 11.632-1.528l4.06-.676.352.351c1.261.013 2.617.138 4.006.45a8.72 8.72 0 0 1 1.508.307c.588.118 1.309.315 2.077.65.462.149.888.328 1.278.526l.158.067.164.076c.288.108.552.227.793.346V39.86l6.889-.967a161301.427 161301.427 0 0 1 54.238-7.62l52.655-7.4v-.101l10.539-1.34c8.558-1.12 15.607-2.27 21.993-3.231 6.155-.926 11.765-1.686 17.058-1.93a9.798 9.798 0 0 1 1.122-.056 8.33 8.33 0 0 1 1.223.099c.106.005.191.01.237.015h.024l.035.003-.059-.003.002-.001a16.07 16.07 0 0 1 .425.04h.003c.194.024.353.05.45.067l.15.027h.002c.448.085.807.194.826.2h-.001c-.043-.012.025.006.033.008l.081.026c.149.033.319.073.5.125a8.674 8.674 0 0 1 .604.2l.03.008c.47.107.94.256 1.404.45l.005.002.081.037c.741.229 1.523.537 2.289.938.184.068.346.134.485.195.065.029.225.1.418.198a8.7 8.7 0 0 1 .237.125l.224.128.007.004.008.005c.074.044.161.099.26.163l.32.184.002.002c.071.044.163.102.27.174.111.064.206.123.281.171-.026-.016-.052-.035-.08-.053l.085.056c.018.012.037.02.053.031l.102.068.049.033.027.016.01.007c-.001 0-.003 0-.004-.002a8.448 8.448 0 0 1 .599.444l.02.02Z" class="mainlogo__Union mainlogo__(Stroke)"/>
    <g class="mainlogo__Union">
      <path fill="url(#mainlogo__a)" d="M73.306 81.287 49.27 84.67v-7.714c-2.711.382-6.652.932-12.084 1.696-.12.512-.372 1.295-.615 2.58 6.41 4.202 16.145 10.677 29.094 19.313.121-.018.373.196.615.54.578.065.876.503 1.36 1.053.243-.037.373.196.615.54.466.335.83.615 1.23 1.192.484.057.671.699 1.109 1.211.913.941 1.844 2.06 2.469 3.513.279.391.67.727.866 1.5.382.699.857 1.351.987 2.348.121.111.243.335.373.819.121.102.242.336.242.839.67 3.587.037 7.872.251 14.654-.233 1.425-.726 2.767-1.48 4.314 0 .121-.122.39-.373.67 0 .121 0 .373-.243.662-.419.866-.931 1.593-1.723 2.608-.578.969-1.537 1.798-2.469 2.962-.345.196-.577.56-1.108 1.025-.121.019-.373.177-.615.456-.122.019-.373.178-.615.457-.12.019-.373.177-.615.457-.121.018-.373.177-.615.457-.122.019-.373.177-.736.474 0 0-.242.037-.615.335-.838.457-1.686.792-2.71 1.379-13.22 2.832-29.29 4.193-53.866 7.947v-30.492l23.542-3.307v6.726c3.522-.848 11.44-.857 17.747-2.99.006-.007.124-.14.242-.158.121-.14.242-.279.372-.298l.242-.28c.122-.018.243-.158.243-.289l.01-.028v-1.993c-6.55-4.295-22.023-14.71-34.516-22.032-.121-.233-.243-.336-.494-.429-.121-.233-.243-.336-.494-.429 0-.251-.242-.335-.494-.55 0-.12-.121-.233-.373-.447 0-.251-.241-.335-.493-.55 0-.12-.122-.233-.373-.447 0-.251-.121-.354-.373-.568 0-.251 0-.373-.242-.587 0-.251-.121-.354-.372-.568-2.348-5.049-1.612-8.85-1.482-15.846.56-4.043 2.553-7.575 4.928-10.9a51.778 51.778 0 0 1 4.435-4.23c2.068-1.35 4.295-2.664 6.66-3.428 12.661-2.431 24.987-3.559 46.59-6.8v29.251Z"/>
      <path fill="url(#mainlogo__b)" d="M136.71 82.087c-1.109.159-2.711.382-4.928.69v34.73c1.109-.158 2.711-.382 4.928-.689v18.045c-6.037.847-15.157 2.133-27.24 3.829v-18.045c1.108-.159 2.711-.382 4.807-.671v-8.711c-2.953.419-7.397 1.044-13.434 1.891v8.71c1.108-.158 2.711-.382 4.928-.689v18.046c-6.036.848-15.157 2.133-27.24 3.829v-18.046c1.109-.158 2.711-.382 4.807-.671v-34.73c-.988.14-2.59.364-4.807.68V71.738c6.037-.848 15.158-2.134 27.24-3.83v18.548c-1.108.159-2.711.382-4.928.69v8.338c4.593-.643 8.907-1.248 13.434-1.891v-8.356c-.987.14-2.59.363-4.807.68v-18.55c6.037-.847 15.166-2.133 27.24-3.829v18.548Z"/>
      <path fill="url(#mainlogo__c)" fill-rule="evenodd" d="M176.65 57.922c1.966-.289 4.034-.39 5.915.168a.7.7 0 0 1 .616.158c.493.038.941.056 1.36.429.242-.037.493.056.735.27.121-.02.373.074.616.289.242-.038.373.074.615.289.242-.037.372.195.614.409.82.223 1.538.998 2.218 1.678.224.121.829.623.987.977.643.513 1.277 1.35 1.724 2.245.205.047.567.783.614 1.156.438.708.802 1.705.988 2.72 1.314 10.695.084 23.058.494 42.5-.252 1.668-.569 3.558-1.482 5.31-.14.475-.232.782-.614 1.453 0 .121-.122.391-.373.671 0 .121-.242.41-.493.689 0 .121-.122.392-.373.671-.14.401-.522.69-.988 1.258-.251.568-.978 1.22-1.602 1.845-.001.121-.243.289-.494.568-.122.019-.373.298-.615.587-.372.121-.792.642-1.23 1.043-.121.019-.372.178-.614.457-.122.019-.373.176-.737.475-.456.204-.745.335-1.36.81-.121.019-.373.056-.614.335-.121.019-.373.056-.737.355-7.676 2.543-15.139 2.739-26.374 4.332-.121-.112-.372-.075-.735-.019-.121-.102-.373-.074-.736-.019-.345-.242-.858-.149-1.482-.167-.121-.112-.372-.196-.735-.15a.84.84 0 0 0-.615-.158c-.271-.149-.895-.429-1.361-.429-.121-.111-.372-.195-.735-.269-.606-.438-1.705-.811-2.469-1.398-.149-.289-.717-.513-1.108-.839-.391-.4-.923-.94-1.482-1.406 0-.251-.242-.335-.494-.55-.065-.428-.521-.754-.866-1.127 0-.251-.122-.354-.373-.568 0-.252-.121-.485-.372-.699-.149-.354-.234-.95-.615-1.285 0-.252 0-.373-.243-.587 0-.252 0-.494-.242-.708-1.518-11.366-.196-23.263-.615-43.227.093-1.043.503-2.05.615-3.074 5.962-16.76 18.838-14.645 35.867-17.486v.018Zm-4.313 19.405c-.289-.596-9.493.29-10.723 1.761-.456.159-.755.55-1.36 1.062-1.183.996-2.143 2.833-2.59 4.593.112 5.022-.224 13.425.121 23.383.121.112.121.233.121.485.121.102.242.214.242.465.122-.018.243.215.243.466.121-.018.242.093.242.335.121.103.252.215.252.466.121-.018.242.094.372.326.121-.018.242.094.242.336.121-.019.243.093.373.326.121-.018.242.094.372.326.242.084.672.112.867.503.121-.018.242-.037.493.177.122-.018.243-.037.374.195.242-.037.372-.055.493.057.41.037.727-.01.988.233 1.723-.243 4.192-.587 7.396-1.043.122-.14.243-.281.495-.318v-.018c.279-.103.586-.271.987-.392.233-.27.661-.521.866-.614l.373-.429c.512-.252 1.229-1.043 1.481-1.574.233-.317.596-.513.615-.96.121-.14.242-.279.242-.409.121-.14.242-.28.242-.532 1.277-6.223.112-13.191.494-24.463-.111-.54-.261-1.277-.736-1.761 0-.252 0-.373-.242-.466 0-.121-.121-.234-.242-.336 0-.251-.122-.354-.373-.447 0-.121-.001-.251-.243-.335 0-.121-.12-.233-.372-.326 0-.121-.121-.233-.373-.196 0-.12-.241-.214-.493-.307 0-.121-.121-.233-.373-.196 0-.12-.242-.215-.494-.177 0-.121-.121-.233-.372-.196Z" clip-rule="evenodd"/>
      <path fill="url(#mainlogo__d)" fill-rule="evenodd" d="M234.585 49.785c1.966-.288 4.034-.39 5.916.168a.697.697 0 0 1 .614.159c.494.037.942.056 1.352.428.251-.037.493.056.735.27.121-.019.373.075.615.289.242-.037.373.075.615.289.242-.037.373.195.615.41.82.223 1.538.997 2.218 1.677.224.121.829.624.987.977.643.513 1.267 1.351 1.724 2.245.121-.018.241.215.372.569a.837.837 0 0 1 .242.587c.438.708.801 1.705.987 2.72 1.314 10.695.084 23.058.494 42.5-.251 1.668-.568 3.559-1.481 5.31a5.61 5.61 0 0 1-.614 1.453c0 .121-.122.392-.373.671 0 .121-.252.41-.495.69 0 .121-.12.391-.372.67-.139.401-.521.69-.987 1.258-.252.569-.978 1.221-1.603 1.845 0 .121-.242.28-.494.568-.121.019-.372.299-.614.587-.373.121-.793.643-1.23 1.043-.122.019-.373.178-.615.457-.121.019-.373.177-.736.475-.456.214-.745.335-1.351.81-.121.019-.373.056-.615.335-.121.019-.372.057-.735.355-7.677 2.543-15.139 2.739-26.384 4.332-.121-.102-.372-.075-.735-.019-.121-.111-.373-.074-.737-.018-.344-.242-.857-.15-1.481-.168-.121-.103-.372-.196-.735-.15a.842.842 0 0 0-.616-.158c-.27-.149-.894-.429-1.36-.429-.121-.102-.373-.195-.735-.269-.606-.438-1.705-.811-2.469-1.398-.149-.288-.718-.512-1.109-.838-.392-.401-.922-.941-1.481-1.407 0-.251-.243-.335-.494-.549-.065-.429-.522-.755-.866-1.127 0-.252-.122-.355-.373-.569 0-.251-.121-.485-.372-.699-.149-.354-.234-.95-.616-1.285 0-.252 0-.373-.242-.587 0-.252 0-.494-.242-.708-1.509-11.366-.196-23.262-.615-43.227.093-1.043.503-2.05.615-3.074 5.972-16.76 18.828-14.645 35.867-17.486l.009.018Zm-4.314 19.406c-.289-.597-9.492.288-10.722 1.76-.457.159-.755.55-1.361 1.062-1.192.997-2.142 2.833-2.589 4.594.111 5.021-.224 13.424.121 23.383.121.102.121.232.121.484.121.102.242.214.242.466.121-.019.242.214.242.466.121-.019.242.093.242.334.121.103.242.215.243.466.121-.018.242.094.373.326.121-.018.242.094.242.336.121-.018.242.094.373.327.121-.019.242.093.372.326.242.084.67.111.866.503.121-.019.243-.038.494.176.121-.018.243-.037.373.196.242-.037.372-.055.493.056.41.047.727-.009.988.233 1.723-.242 4.193-.587 7.397-1.043.121-.14.242-.28.493-.318l.01-.018c.28-.103.587-.271.987-.392.233-.27.662-.521.867-.614.121-.14.242-.28.373-.429.512-.251 1.23-1.043 1.481-1.574.233-.317.596-.513.614-.96.122-.14.243-.28.243-.41.121-.14.242-.279.242-.53 1.276-6.223.112-13.192.494-24.464-.103-.54-.261-1.277-.736-1.76 0-.252 0-.374-.243-.467 0-.12-.121-.233-.242-.336 0-.251-.12-.354-.372-.447 0-.12 0-.251-.242-.335 0-.121-.122-.233-.373-.326 0-.121-.121-.233-.372-.195 0-.121-.243-.215-.494-.308 0-.121-.122-.233-.373-.195 0-.121-.242-.215-.493-.178-.001-.121-.122-.233-.374-.195Z" clip-rule="evenodd"/>
      <path fill="url(#mainlogo__e)" d="M309.895 62.849c-3.82.54-9.615 1.35-17.384 2.44v-5.104c-.242.037-.494.065-.988.14v34.729c1.109-.158 2.711-.382 4.807-.68v18.045c-5.916.829-15.036 2.115-27.24 3.829V98.203a978.9 978.9 0 0 1 4.929-.69v-34.73c-.252.038-.616.084-1.11.159v5.105c-3.819.54-9.614 1.35-17.253 2.422V46.816c12.083-1.696 30.073-4.23 54.239-7.62v23.653Z"/>
      <path fill="url(#mainlogo__f)" d="M365.757 54.997c-3.82.54-9.614 1.35-17.384 2.44v-5.225c-2.832.4-7.155 1.006-13.07 1.835v8.468a7604.62 7604.62 0 0 0 13.433-1.89v17.672c-2.962.42-7.397 1.043-13.433 1.89V88.9c2.962-.42 7.397-1.044 13.07-1.836v-5.357c3.941-.559 9.735-1.369 17.384-2.44v23.401c-11.71 1.649-29.336 4.128-52.757 7.416V92.037c1.109-.158 2.711-.38 4.928-.688V56.497c-1.109.159-2.711.382-4.928.69V38.759c11.831-1.668 29.336-4.127 52.757-7.415v23.653Z"/>
      <path fill="url(#mainlogo__g)" fill-rule="evenodd" d="M411.714 25.248c.242-.037.494-.064.615.038.382.047.987-.074 1.109.214.372-.056.614.037.614.158a.825.825 0 0 1 .615.159c.242-.038.494.056.494.177.792.13 1.733.521 2.217.931.242-.037.494.057.494.178.242.093.493.177.493.307.252.093.494.177.494.307.242.214.493.308.494.429.242.093.494.177.494.307.242.094.494.178.494.308.242.214.372.326.372.447.242.093.494.177.494.429.251.093.372.195.372.325.251.214.373.326.373.447.242.215.373.327.373.448.242.214.372.326.372.447.242.214.373.326.373.568.382.094.475.69.615.913 1.183 1.705 1.78 3.652 2.096 5.683.233 6.251.233 11.487 0 14.934 0 .251 0 .373-.121.512-.149.522-.121 1.23-.494 1.687a12.45 12.45 0 0 1-1.481 3.195c-.513 1.211-1.761 2.152-2.469 3.335-.624.317-1.118 1.248-1.723 1.49-1.127 1.183-2.656 1.742-3.941 2.543-.941.298-1.714.774-2.711.876l-.009.01c-.242.037-.373.177-.494.195 3.456 4.49 5.916 7.882 7.64 10.257 2.71-.382 4.685-.661 5.915-.829v17.552c-6.41.904-11.217 1.575-14.421 2.031-8.012-10.574-14.049-18.436-18.12-23.598V98.8c-10.602 1.491-18.493 2.599-23.914 3.363V84.611c2.71-.382 4.806-.68 6.166-.867V48.008c-2.71.382-4.685.661-6.166.866V30.82c19.349-2.385 31.767-5.134 42.276-5.572Zm-7.593 18.996c-.093-.13-.438-.074-.615-.037-3.605-.12-8.161 1.072-10.108 1.174v9.334c4.929-.69 8.506-1.192 10.844-1.527l-.037.008.252-.037.372-.055c.158-.214.475-.177.494-.196.236-.154.366-.176.372-.177a.45.45 0 0 1 .243-.159.45.45 0 0 1 .242-.158c.121-.14.252-.158.252-.158.205-.233.363-.428.494-.447.121-.14.121-.27.121-.27.177-.206.325-.373.372-.43.121-.27.252-.279.252-.279-.093-1.294.186-2.03-.121-2.84 0-.354.037-.587-.121-.606 0-.246-.116-.35-.121-.355 0-.244-.115-.233-.121-.232 0-.245-.116-.35-.122-.354 0-.121-.121-.233-.242-.214 0-.243-.113-.235-.121-.234 0-.25-.121-.353-.242-.335-.019-.232-.326-.382-.373-.447 0-.121-.122-.103-.252-.094 0-.25-.121-.232-.242-.213-.27-.233-.335-.345-.614-.29-.001-.12-.122-.232-.243-.213-.084-.084-.466-.13-.615-.159Z" clip-rule="evenodd"/>
    </g>
    <path fill="url(#mainlogo__h)" d="M181.996 60.007c-1.461-.434-3.182-.381-5.055-.106l-1.491.218c-3.748.574-7.3.942-10.501 1.343-3.683.462-6.92.971-9.781 1.873-2.832.893-5.242 2.157-7.28 4.1-2.008 1.913-3.755 4.58-5.152 8.437-.084.579-.224 1.123-.328 1.535-.121.485-.202.834-.238 1.153.206 9.962-.019 17.94-.107 24.767-.085 6.687-.037 12.246.642 17.623.128.243.206.481.252.693.065.117.124.247.173.388.016.048.029.097.042.144.183.29.295.561.365.749.04.108.073.216.102.305.164.209.308.444.415.708a2.48 2.48 0 0 1 .342.541c.074.073.162.162.249.257.126.139.319.366.491.672l.004.003c.129.112.335.31.512.604.439.393.836.792 1.136 1.098.056.04.138.089.398.253.119.076.306.198.489.35.078.065.179.157.289.275a8.5 8.5 0 0 0 .797.433c.27.134.69.333 1.083.568a4.446 4.446 0 0 1 .553.192c.324.056.607.147.811.22.151.053.295.112.428.17.198.027.389.078.571.142.246.019.5.064.749.149.124-.002.292-.005.458.001.195.008.493.029.833.123a2.634 2.634 0 0 1 .619.025 2.71 2.71 0 0 1 .739.016c5.363-.75 10.156-1.225 14.097-1.752 4.073-.545 7.638-1.193 11.211-2.35a3.48 3.48 0 0 1 .67-.347c.244-.173.484-.284.692-.36a6.776 6.776 0 0 1 1.206-.701 6.12 6.12 0 0 1 .431-.309c.039-.025.104-.065.19-.113a3.524 3.524 0 0 1 .628-.461c.018-.019.039-.037.06-.058.096-.095.226-.229.356-.351.129-.123.301-.277.498-.421.059-.044.129-.092.209-.142.063-.07.129-.142.197-.21.046-.046.104-.103.172-.163l.001-.014.584-.584c.371-.372.631-.613.892-.894.27-.289.314-.389.295-.347l.111-.248.171-.21c.149-.181.287-.335.402-.461.131-.143.191-.206.263-.289.011-.011.019-.022.027-.031l.087-.247.129-.144v-.256l.493-.548v-.142l.373-.415v-.017l.262-.46a4.72 4.72 0 0 0 .28-.556c.048-.12.082-.23.153-.473l.056-.186.09-.173c.717-1.376 1.005-2.905 1.252-4.522-.2-9.684.004-17.629.095-24.42.092-6.834.067-12.457-.564-17.637-.154-.802-.436-1.53-.711-1.976l-.23-.37-.011-.089-.039-.009-.422-.844c-.354-.707-.822-1.289-1.182-1.576l-.38-.303-.136-.306a2.384 2.384 0 0 0-.231-.203l-.202-.11-.205-.205c-.384-.384-.647-.657-.925-.89a2.415 2.415 0 0 0-.303-.22c-.074-.045-.106-.054-.102-.052l-.45-.124-.132-.117-.13.02-.369-.326-.245.038-.371-.327-.244.038-.37-.327-.369.058-.598-.531a4.241 4.241 0 0 0-.112-.01l-.175-.014-.671-.05-.131-.117-.232-.068Zm57.936-8.137c-1.462-.434-3.183-.381-5.056-.106l-1.465.216-.002-.003c-3.762.576-7.327.946-10.537 1.348-3.682.462-6.919.971-9.778 1.873-2.831.894-5.239 2.157-7.278 4.1-2.007 1.913-3.754 4.58-5.153 8.436-.084.579-.225 1.124-.329 1.537-.121.482-.201.83-.237 1.15.205 9.963-.018 17.94-.105 24.77-.084 6.686-.035 12.245.64 17.624.127.242.205.478.251.69a2.482 2.482 0 0 1 .216.535c.182.289.294.56.364.747.04.109.073.217.101.305.164.209.309.445.416.708a2.416 2.416 0 0 1 .341.541c.075.074.163.162.249.257.127.139.32.366.492.673l.003.003c.13.111.336.31.514.605.438.392.834.79 1.133 1.095.056.04.136.089.398.255.12.075.306.196.49.348.078.065.18.157.29.277.194.125.45.26.797.432.27.135.692.334 1.085.571a4.263 4.263 0 0 1 .541.188c.328.057.614.147.821.221.15.053.294.112.427.171.2.027.393.078.577.143.247.021.493.067.73.148.126-.002.3-.006.472.001.193.007.489.028.826.12a2.693 2.693 0 0 1 .647.027 3.221 3.221 0 0 1 .704.017c5.373-.751 10.175-1.225 14.12-1.753 4.074-.545 7.639-1.192 11.212-2.35.241-.158.466-.269.669-.346.242-.173.481-.284.689-.36a6.907 6.907 0 0 1 1.194-.698c.147-.114.293-.221.437-.313.039-.024.104-.065.189-.113a3.374 3.374 0 0 1 .628-.461l.061-.057c.095-.096.226-.229.355-.352a5.31 5.31 0 0 1 .498-.421c.06-.044.13-.092.209-.141a4.912 4.912 0 0 1 .369-.373l.001-.015.584-.584c.372-.371.631-.613.893-.894.27-.289.314-.388.295-.346l.11-.248.172-.21c.149-.182.287-.336.402-.461.13-.143.19-.206.263-.288l.027-.032.086-.248.128-.142v-.237l.489-.563.006-.008v-.14l.373-.415v-.017l.261-.46c.16-.28.235-.442.281-.556.048-.12.082-.23.153-.472l.056-.187.089-.173c.718-1.376 1.005-2.905 1.252-4.521-.199-9.685.004-17.63.095-24.421.092-6.834.067-12.457-.564-17.637-.154-.803-.436-1.532-.71-1.976l-.014-.021-.027.005-.144-.281-.114-.185v-.04l-.396-.775c-.372-.73-.836-1.309-1.189-1.59l-.38-.304-.137-.306a2.188 2.188 0 0 0-.216-.192l-.015-.012-.201-.11-.205-.204c-.384-.384-.647-.656-.925-.889a2.415 2.415 0 0 0-.303-.221c-.074-.045-.107-.053-.102-.052l-.451-.123-.131-.117-.13.02-.37-.327-.245.038-.37-.327-.244.038-.372-.33-.386.058-.583-.529a31.906 31.906 0 0 0-.274-.022l-.671-.05-.133-.117-.229-.069Zm69.963 10.979c-3.82.54-9.615 1.35-17.384 2.44v-5.104c-.242.037-.494.065-.988.14v34.729c1.109-.158 2.711-.382 4.807-.68v18.045c-5.916.829-15.036 2.115-27.24 3.829V98.203a978.9 978.9 0 0 1 4.929-.69v-34.73c-.252.038-.616.084-1.11.159v5.105c-3.819.54-9.614 1.35-17.253 2.422V46.816c12.083-1.696 30.073-4.23 54.239-7.62v23.653Zm-139.23 12.296c.496-.012.983-.006 1.391.038.194.02.455.058.718.14.036.01.075.026.12.042.232.045.474.128.713.266a2.178 2.178 0 0 1 .431.179 2.187 2.187 0 0 1 .802.456l.035.017.075.043a2.243 2.243 0 0 1 .866.545 2.375 2.375 0 0 1 .483.444 2.2 2.2 0 0 1 .363.41 2.337 2.337 0 0 1 .563.781 2.214 2.214 0 0 1 .594 1.005c.562.87.722 1.823.79 2.153l.048.235-.008.239c-.188 5.564.005 10.043.089 14.015.083 3.875.065 7.331-.595 10.642a2.66 2.66 0 0 1-.447 1.233c-.065.14-.131.249-.177.32-.146.42-.368.735-.548.947-.095.112-.205.224-.257.277a6.305 6.305 0 0 1-.834 1.115 5.87 5.87 0 0 1-1.002.871l-.163.189-.286.33-.398.181-.036.02a1.223 1.223 0 0 0-.173.113l-.35.406-.122.037v.353l-1.226.18-.247.287-.739.105c-3.207.457-5.679.801-7.401 1.043l-.942.133-.372-.346c-.043-.003-.088-.004-.133-.008l-.301-.027-1.079.166-.261-.466-.674.105-.411-.82-.275-.095-.484.074-.199-.353-1.107.171v-.762l-.613.094-.001-.871-.494.076v-.504l-.243.037v-1.663l-.242-.205v-.425l-.091-.083-.029-.834c-.174-5.02-.175-9.642-.148-13.626.027-4.009.082-7.31.027-9.782l-.007-.272.068-.265c.508-2.003 1.628-4.273 3.239-5.63.117-.1.223-.196.335-.3.101-.093.242-.225.373-.34.192-.168.46-.387.811-.574a4.833 4.833 0 0 1 1.122-.67c.498-.22 1.067-.405 1.641-.56 1.154-.311 2.523-.556 3.818-.728a35.18 35.18 0 0 1 3.6-.304Zm-8.757 39.169-.023.003c.051-.006.064-.01.023-.003Zm116.614-68.692-20.866 2.932v19.614c5.506-.772 9.942-1.394 13.253-1.86V61.22l1.701-.257c.418-.063.995-.141 1.116-.16l2.293-.339v38.792l-1.727.238c-1.231.17-2.29.32-3.202.448v14.004c9.973-1.401 17.746-2.496 23.24-3.267V96.677c-1.018.143-1.854.262-2.523.357l-2.284.327V58.604l1.702-.257c.261-.04.459-.066.619-.088l.363-.05 2.304-.355v5.135c5.602-.786 10.063-1.412 13.384-1.88V41.496c-11.135 1.563-20.916 2.939-29.373 4.127ZM172.337 77.327c-.291-.596-9.492.29-10.723 1.761-.456.158-.755.55-1.36 1.062-1.183.996-2.143 2.833-2.59 4.593.112 5.022-.223 13.425.121 23.383.121.112.121.233.121.485.121.102.242.214.242.465.121-.018.243.215.243.466.121-.018.242.093.242.335.121.103.252.215.252.466.121-.018.242.094.372.326.121-.018.242.094.242.336.121-.019.243.094.373.326.121-.018.242.094.372.326.242.084.672.112.867.503.121-.018.242-.037.494.177.121-.018.242-.037.373.195.242-.037.372-.055.493.057.41.037.727-.01.988.233 1.723-.243 4.192-.587 7.396-1.043.122-.14.243-.281.495-.318v-.018c.279-.103.587-.271.987-.392.233-.27.661-.521.866-.614l.373-.429c.512-.252 1.229-1.043 1.481-1.574.233-.317.596-.513.615-.96.121-.14.242-.279.242-.409.121-.14.242-.28.242-.532 1.276-6.223.112-13.191.494-24.463-.111-.54-.261-1.277-.736-1.761 0-.252 0-.373-.242-.466 0-.121-.121-.234-.242-.336 0-.251-.122-.354-.373-.447 0-.121-.001-.252-.243-.335 0-.121-.12-.233-.372-.326 0-.121-.121-.233-.373-.196 0-.12-.242-.214-.493-.307 0-.121-.121-.233-.373-.196 0-.12-.243-.215-.494-.177 0-.121-.121-.233-.372-.196Zm160.966-25.02 1.722-.24c5.917-.83 10.237-1.435 13.068-1.835l2.28-.323v5.228c5.603-.786 10.063-1.411 13.384-1.879V33.644c-21.189 2.975-37.378 5.25-48.757 6.853v14.39c1.09-.151 1.962-.272 2.645-.37l2.283-.325V93.09l-1.726.24c-1.26.174-2.319.323-3.202.447v14.004c21.186-2.975 37.47-5.265 48.757-6.854V81.566c-5.538.775-9.999 1.4-13.384 1.879v5.358l-1.724.241c-5.672.792-10.105 1.416-13.066 1.835l-2.28.322V78.45l1.721-.242c4.964-.697 8.844-1.244 11.712-1.65V62.926c-3.715.526-7.339 1.036-11.156 1.57l-2.277.32V52.308ZM228.599 67.009c.495-.012.983-.005 1.39.038.195.02.456.058.72.14.036.01.075.026.12.043.232.044.473.127.712.264.046.014.092.03.138.046a2.5 2.5 0 0 1 .291.133 2.17 2.17 0 0 1 .803.456l.036.018.079.046a2.236 2.236 0 0 1 .865.545 2.324 2.324 0 0 1 .485.446c.128.113.25.245.358.403a2.292 2.292 0 0 1 .563.783 2.202 2.202 0 0 1 .594 1c.563.866.725 1.814.797 2.192l.042.217-.008.223c-.188 5.564.004 10.043.089 14.015.082 3.874.063 7.329-.596 10.638a2.66 2.66 0 0 1-.444 1.234 2.628 2.628 0 0 1-.179.323 2.961 2.961 0 0 1-.547.946c-.095.113-.206.225-.258.279a6.308 6.308 0 0 1-.835 1.115c-.253.272-.6.602-1.001.87l-.164.19-.286.329-.397.18c.011-.005-.003.002-.036.021a1.609 1.609 0 0 0-.173.113l-.351.406-.555.169a2.077 2.077 0 0 0-.132.045l-.147.28-.521.077-.248.286-.739.105c-3.208.457-5.681.801-7.402 1.043l-.941.133-.372-.345c-.056-.004-.116-.006-.178-.013l-.232-.027-1.103.17-.261-.466-.676.105-.41-.82-.276-.096-.483.074-.198-.351-1.107.17v-.756l-.614.094-.001-.876-.485.076v-.504l-.242.038v-1.664l-.242-.205v-.382l-.089-.075-.031-.886c-.174-5.02-.176-9.642-.149-13.625.027-4.01.083-7.31.028-9.782l-.007-.273.067-.264c.507-1.996 1.616-4.274 3.245-5.636.115-.097.219-.192.329-.294.102-.094.243-.226.373-.34a4.3 4.3 0 0 1 .813-.574 4.816 4.816 0 0 1 1.121-.67c.498-.22 1.066-.405 1.641-.56 1.154-.311 2.522-.556 3.818-.728a35.162 35.162 0 0 1 3.599-.305Zm-8.765 39.169-.023.003.023-.003Zm10.438-36.986c-.292-.596-9.493.289-10.723 1.76-.457.159-.755.55-1.36 1.062-1.193.997-2.143 2.833-2.59 4.594.111 5.021-.224 13.424.121 23.383.121.102.121.233.121.484.121.102.242.214.242.466.121-.019.242.214.242.465.121-.018.242.094.242.335.121.103.242.215.243.466.121-.018.242.094.373.326.121-.018.242.094.242.336.121-.018.243.094.373.327.121-.019.242.093.372.326.242.084.67.112.866.503.121-.019.243-.038.494.176.121-.018.243-.037.373.196.242-.037.373-.055.494.056.409.047.726-.009.987.233 1.723-.242 4.193-.587 7.397-1.043.121-.14.242-.28.493-.318l.01-.018c.28-.103.587-.271.988-.392.232-.27.661-.521.866-.614.121-.14.242-.28.373-.429.512-.251 1.23-1.043 1.481-1.574.233-.317.596-.513.614-.96.122-.14.243-.28.243-.41.121-.14.242-.279.242-.53 1.276-6.223.112-13.192.494-24.464-.102-.54-.261-1.277-.736-1.76 0-.252 0-.374-.243-.467 0-.12-.121-.233-.242-.336 0-.25-.12-.354-.372-.447 0-.12 0-.251-.242-.335 0-.12-.122-.233-.373-.326 0-.121-.121-.233-.372-.195 0-.121-.243-.215-.494-.308 0-.121-.122-.233-.373-.195-.001-.121-.242-.215-.493-.178-.001-.121-.122-.233-.373-.195Zm181.525-41.945c-5.131.214-10.763.995-17.606 2.035-6.403.974-13.831 2.167-22.753 3.3v13.992l3.887-.545 2.28-.322V85.49l-1.729.236c-1.053.144-2.549.356-4.438.623V99.86l19.914-2.801V66.894l3.57 4.526c3.962 5.023 9.771 12.587 17.433 22.692 2.837-.402 6.685-.942 11.538-1.625V78.972l-3.636.51-1.192.169-.707-.974c-1.721-2.372-4.167-5.745-7.605-10.212l-2.064-2.682 3.009-.463.172-.19.767-.079c.236-.024.484-.096.857-.24.259-.1.741-.306 1.217-.472.637-.378 1.437-.79 1.885-1.043.618-.35 1.085-.671 1.449-1.054l.301-.315.274-.111c.054-.051.127-.126.252-.262.121-.132.315-.348.523-.544a4.4 4.4 0 0 1 .375-.32c.425-.613.916-1.15 1.244-1.528.472-.543.711-.866.829-1.145l.07-.167.1-.152c.499-.76.939-1.684 1.238-2.674l.115-.38.156-.193.012-.051c.022-.112.033-.196.065-.391.026-.159.068-.396.138-.644l.054-.191c.218-3.322.22-8.39-.005-14.502-.292-1.81-.811-3.4-1.745-4.746l-.027-.04-.026-.041a2.61 2.61 0 0 1-.116-.207l-.802-.195v-.909l-.372-.329-.001-.118-.371-.328-.001-.118-.371-.33-.001-.005-.746-.277v-.257l-.494-.19v-.422l-.866-.333v-.118l-.491-.188-.001-.352-.415-.154-.159.025-.175-.148-.241-.09v-.114l-.049-.04-.444-.171v-.155a3.672 3.672 0 0 0-1.036-.354l-.483-.08-.282.044-.132-.112-.392-.065-1.492.222-.001-.606-.047-.11-.147-.018-.063.003Zm-282.015 53.79 1.726-.24c1.259-.175 2.319-.324 3.202-.448v-14.51l-13.605 1.913-9.635 1.355v14.507l2.527-.358 2.28-.322v12.395l-1.718.245c-4.53.642-8.846 1.247-13.439 1.89l-2.277.32v-12.38l1.725-.239c1.26-.175 2.32-.324 3.203-.448V70.208c-9.894 1.39-17.663 2.484-23.24 3.268v14.507l2.527-.358 2.28-.322v38.775l-1.727.239c-1.185.163-2.212.308-3.08.429v14.005c9.895-1.389 17.663-2.483 23.24-3.267v-14.008c-1.09.152-1.962.273-2.645.371l-2.283.326v-12.755l1.721-.242c6.038-.848 10.481-1.472 13.432-1.891l2.281-.324v12.758l-1.726.238c-1.186.164-2.213.309-3.081.43v14.004c9.894-1.389 17.663-2.484 23.24-3.268v-14.007c-1.09.152-1.962.274-2.645.372l-2.283.326V81.035Zm274.024-38.873a2.606 2.606 0 0 1 .974.166l.076.015a3.585 3.585 0 0 1 .513.145c.231.068.437.168.614.286a2.351 2.351 0 0 1 .501.273 2.065 2.065 0 0 1 .653.407c.144.093.291.212.428.367l.04.05c.081.072.196.181.315.327a2.2 2.2 0 0 1 .555.745c.159.173.301.385.407.628.054.1.104.207.147.324.077.14.132.282.173.418.026.056.049.114.071.175.21.385.252.74.265.873.014.133.015.26.015.345.164.634.154 1.198.136 1.61-.024.537-.059.873-.023 1.37l.144 1.995-1.119.08c-.071.118-.152.24-.253.356l-.49.565-.124.017-.38.433-.123.017-.1.117-.123.02-.12.139-.123.02-.129.149-.45.07a2.013 2.013 0 0 1-.178.086l-.158.214-.828.12c-.001 0-.031.003-.089.012-.059.009-.148.021-.262.039l-.013.002-.252.037-.001-.004c-2.343.336-5.913.838-10.819 1.525l-2.278.319V43.484l1.895-.1c.831-.044 2.23-.327 4.219-.648 1.779-.287 3.891-.573 5.842-.533a3.55 3.55 0 0 1 .452-.04Zm2.595 12.426.017-.007-.002-.003-.015.01Zm.311-.353h.006l.008-.001.013-.002.002-.001-.029.004Zm1.116-1.412h.004-.004Zm14.848-19.34.02-.082.989-.617-1.009.7ZM73.93 133.738c0 .121 0 .373-.243.662-.419.866-.931 1.593-1.723 2.608-.578.969-1.537 1.798-2.469 2.962-.345.196-.577.56-1.108 1.025-.121.019-.373.177-.615.456-.122.019-.373.178-.615.457-.12.019-.373.177-.615.457-.121.018-.373.177-.615.457-.122.019-.373.177-.736.474 0 0-.242.037-.615.335-.838.457-1.686.792-2.71 1.379-13.22 2.832-29.29 4.193-53.866 7.947v-30.492l23.542-3.307v6.726c3.522-.848 11.44-.857 17.747-2.99.007-.008.125-.14.242-.158.121-.14.242-.279.372-.298l.242-.28c.122-.018.243-.158.243-.289l.01-.028v-1.993c-6.55-4.295-22.024-14.71-34.516-22.032-.121-.233-.243-.336-.494-.429-.121-.233-.243-.336-.494-.429 0-.251-.242-.335-.494-.55 0-.12-.121-.233-.373-.447 0-.251-.241-.335-.493-.55 0-.12-.122-.233-.373-.447 0-.251-.122-.354-.373-.568 0-.251 0-.373-.242-.587 0-.251-.121-.354-.372-.568-2.348-5.049-1.612-8.85-1.482-15.846.56-4.043 2.553-7.575 4.928-10.9a51.762 51.762 0 0 1 4.435-4.23c2.068-1.35 4.295-2.664 6.66-3.428 12.661-2.431 24.987-3.559 46.59-6.8v29.251L49.27 84.67v-7.714c-2.71.382-6.651.932-12.083 1.696-.12.512-.372 1.295-.615 2.58 6.41 4.202 16.145 10.677 29.094 19.313.121-.018.373.196.615.54.578.065.876.503 1.36 1.053.243-.037.373.196.615.54.466.335.83.615 1.23 1.192.484.056.671.699 1.109 1.211.913.941 1.844 2.06 2.469 3.513.279.391.67.727.866 1.5.382.699.856 1.351.987 2.348.121.111.243.335.373.819.121.102.242.336.242.839.67 3.586.037 7.872.251 14.654-.233 1.425-.726 2.767-1.48 4.314 0 .121-.122.391-.373.67Zm-21.533-11.562-.072.209a2.348 2.348 0 0 1-.486.963 2.398 2.398 0 0 1-.402.373l-.023.027-.487.563-.13.018-.235.272-.141.021-.491.166c-3.364 1.138-7.095 1.692-10.327 2.07-3.378.394-5.988.584-7.593.97l-2.468.595v-6.965L10 124.202v26.432c23.282-3.494 38.47-4.831 51.157-7.52.463-.255.887-.463 1.266-.645.425-.205.76-.365 1.09-.54.245-.177.479-.309.693-.403a4.86 4.86 0 0 1 .554-.37 3.98 3.98 0 0 1 .361-.292c.058-.041.142-.095.245-.156.122-.111.247-.213.373-.302.058-.041.14-.095.242-.154a3.383 3.383 0 0 1 .615-.458 3.326 3.326 0 0 1 .657-.478c.099-.097.195-.195.32-.325.113-.117.3-.311.553-.504.455-.549.911-1.036 1.253-1.414.422-.467.688-.79.867-1.09l.064-.107.077-.098c.77-.988 1.175-1.58 1.5-2.25l.043-.089v-.47l.425-.474.15-.305c.672-1.377 1.072-2.485 1.273-3.595-.098-3.357.005-6.125.051-8.407.048-2.376.03-4.154-.263-5.721l-.01-.055-.034-.029-.164-.603-.024-.079-.306-.282-.094-.719c-.068-.517-.25-.716-.76-1.647l-.121-.223-.062-.246c-.073-.289-.043-.112-.555-.828l-.125-.176-.085-.198c-.486-1.13-1.228-2.044-2.067-2.909l-.044-.045-.04-.048a5.548 5.548 0 0 1-.44-.596l-.277-.032-.515-.743c-.207-.297-.353-.418-.756-.709l-.063-.046-.16.026-.722-.821a9.598 9.598 0 0 1-.19-.219l-.147-.168-.03-.033-.613-.068-.476-.676-.13-.087c-12.95-8.637-22.679-15.107-29.08-19.303l-1.117-.732.247-1.311c.25-1.323.558-2.346.635-2.671l.315-1.33 1.353-.19c5.438-.766 9.368-1.314 12.082-1.696l2.28-.322v7.714c8.523-1.2 15.201-2.138 20.035-2.818V54.353c-20.253 2.992-31.959 4.102-44.083 6.423-2.028.672-4.003 1.815-5.97 3.094a49.823 49.823 0 0 0-4.08 3.89c-2.252 3.17-3.977 6.32-4.483 9.804-.139 7.047-.752 10.189 1.143 14.49a2.463 2.463 0 0 1 .538.823c.107.161.206.348.28.564v.003l.028.035c.092.125.17.257.234.39l.027.029c.04.045.092.107.149.185.03.024.062.048.093.074.135.117.356.328.538.645.029.03.059.06.087.092.04.045.09.107.147.185.03.024.063.049.094.076.092.079.22.203.352.373a2.543 2.543 0 0 1 .335.312 2.675 2.675 0 0 1 .528.468c12.483 7.343 27.782 17.638 34.231 21.867l.904.592v3.408Zm139.653-4.202c0 .121-.122.391-.373.671 0 .121-.242.41-.493.689 0 .121-.122.392-.373.671-.14.401-.522.69-.988 1.258-.251.568-.978 1.221-1.602 1.845-.001.121-.243.289-.494.568-.122.019-.373.298-.615.587-.372.121-.792.642-1.23 1.043-.121.019-.373.178-.614.457-.121.019-.373.176-.737.475-.456.204-.745.335-1.36.81-.121.019-.373.056-.614.335-.121.019-.373.057-.737.355-7.676 2.543-15.139 2.739-26.374 4.332-.121-.112-.372-.075-.735-.019-.121-.102-.373-.074-.736-.019-.345-.242-.858-.149-1.482-.167-.121-.112-.372-.196-.735-.15a.84.84 0 0 0-.615-.158c-.271-.149-.895-.429-1.361-.429-.121-.111-.372-.195-.735-.269-.606-.438-1.705-.811-2.469-1.398-.149-.288-.717-.513-1.108-.839-.391-.4-.923-.94-1.482-1.406 0-.251-.242-.336-.494-.55-.065-.428-.521-.754-.866-1.127 0-.251-.122-.354-.373-.568 0-.251-.121-.485-.372-.699-.149-.354-.234-.95-.615-1.285 0-.252-.001-.373-.243-.587 0-.252 0-.494-.242-.708-1.518-11.366-.196-23.263-.615-43.227.093-1.043.503-2.05.615-3.074 5.963-16.76 18.838-14.645 35.867-17.486v.018c1.966-.289 4.034-.39 5.915.168a.699.699 0 0 1 .616.158c.493.038.941.056 1.36.429.242-.037.493.056.735.27.121-.02.373.074.616.288.242-.037.373.075.615.29.242-.037.372.195.614.409.82.223 1.538.998 2.218 1.678.224.121.829.623.987.977.643.512 1.277 1.351 1.724 2.245.205.047.567.783.614 1.156.438.707.802 1.705.988 2.72 1.314 10.695.084 23.058.494 42.5-.252 1.668-.569 3.559-1.482 5.31-.14.475-.232.783-.614 1.453Zm57.926-8.137c0 .121-.122.392-.373.671 0 .121-.252.41-.495.69 0 .121-.12.391-.372.67-.139.401-.521.69-.987 1.258-.251.568-.978 1.221-1.602 1.845-.001.121-.243.28-.495.568-.121.019-.372.299-.614.587-.372.121-.793.643-1.23 1.043-.122.019-.373.178-.615.457-.121.019-.373.177-.736.475-.456.214-.745.335-1.351.81-.121.019-.373.056-.615.335-.121.019-.372.057-.735.355-7.677 2.543-15.139 2.739-26.384 4.332-.121-.102-.372-.075-.735-.019-.121-.111-.373-.074-.737-.018-.344-.242-.857-.15-1.481-.168-.121-.103-.373-.196-.735-.15a.842.842 0 0 0-.616-.158c-.27-.149-.894-.429-1.36-.429-.121-.102-.373-.195-.735-.269-.606-.438-1.705-.811-2.469-1.398-.149-.288-.718-.512-1.109-.838-.392-.401-.922-.941-1.481-1.407 0-.251-.243-.335-.494-.549-.065-.429-.522-.755-.866-1.127 0-.252-.122-.355-.373-.569 0-.251-.121-.485-.372-.699-.149-.354-.234-.95-.616-1.285 0-.251 0-.373-.242-.587 0-.251 0-.494-.242-.708-1.509-11.366-.196-23.263-.615-43.227.093-1.043.503-2.05.615-3.074 5.972-16.76 18.828-14.645 35.867-17.486l.009.018c1.966-.288 4.034-.39 5.916.168a.698.698 0 0 1 .614.158c.494.038.942.057 1.352.43.251-.038.493.055.735.269.121-.019.373.075.615.289.242-.037.373.075.615.289.242-.037.373.195.615.41.82.223 1.538.997 2.218 1.677.224.121.829.624.987.977.643.513 1.267 1.351 1.724 2.245.121-.018.241.215.372.569a.837.837 0 0 1 .242.587c.438.708.801 1.705.987 2.72 1.314 10.695.084 23.058.494 42.5-.251 1.668-.568 3.559-1.481 5.31a5.61 5.61 0 0 1-.614 1.453Zm-118.194 7.671c1.109-.158 2.711-.382 4.928-.689v18.045c-6.037.847-15.157 2.133-27.24 3.829v-18.045c1.108-.159 2.711-.382 4.807-.671v-8.711c-2.953.419-7.397 1.044-13.434 1.891v8.71c1.108-.158 2.711-.382 4.928-.689v18.046c-6.036.848-15.157 2.133-27.24 3.829v-18.046c1.109-.158 2.711-.382 4.807-.671v-34.73c-.988.14-2.59.364-4.807.68V71.738c6.037-.848 15.158-2.134 27.24-3.83v18.548c-1.108.159-2.711.382-4.928.69v8.338c4.593-.643 8.907-1.248 13.434-1.891v-8.356c-.987.14-2.59.363-4.807.68v-18.55c6.037-.847 15.166-2.133 27.24-3.829v18.548c-1.109.159-2.711.382-4.928.69v34.73Zm203.521-54.992a7604.62 7604.62 0 0 0 13.433-1.89v17.672c-2.962.42-7.397 1.043-13.433 1.89V88.9c2.962-.42 7.397-1.044 13.07-1.836v-5.357c3.941-.559 9.735-1.369 17.384-2.44v23.401c-11.71 1.649-29.336 4.128-52.757 7.416V92.037c1.109-.158 2.711-.38 4.928-.688V56.497c-1.109.159-2.711.382-4.928.69V38.759c11.831-1.668 29.336-4.127 52.757-7.415v23.653c-3.82.54-9.614 1.35-17.384 2.44v-5.225c-2.832.4-7.155 1.006-13.07 1.835v8.468Zm90.478-9.113c0 .251 0 .373-.121.512-.149.522-.121 1.23-.494 1.687a12.452 12.452 0 0 1-1.481 3.195c-.513 1.21-1.761 2.152-2.469 3.335-.624.317-1.118 1.248-1.723 1.49-1.127 1.183-2.656 1.742-3.941 2.543-.941.298-1.714.774-2.711.876l-.009.01c-.242.037-.373.177-.494.195 3.456 4.49 5.916 7.882 7.64 10.257 2.71-.382 4.685-.661 5.915-.829v17.552c-6.41.903-11.217 1.575-14.421 2.031-8.012-10.573-14.049-18.436-18.12-23.598V98.8c-10.602 1.491-18.493 2.599-23.914 3.363V84.611c2.71-.382 4.806-.68 6.167-.867V48.008c-2.711.382-4.686.661-6.167.866V30.82c19.349-2.384 31.767-5.133 42.276-5.57.242-.038.494-.065.615.037.382.047.987-.074 1.109.214.372-.056.613.038.614.158a.825.825 0 0 1 .615.159c.242-.038.494.056.494.177.792.13 1.733.521 2.217.931.242-.037.494.057.494.178.242.093.493.177.493.307.251.093.494.177.494.307.242.214.493.308.494.429.242.093.493.177.494.307.242.093.494.178.494.308.242.214.372.326.372.447.242.093.494.178.494.429.251.093.372.195.372.325.251.214.373.326.373.447.242.214.373.327.373.448.242.214.372.326.372.447.242.214.373.326.373.568.382.094.475.69.615.913 1.183 1.705 1.78 3.652 2.096 5.683.233 6.25.233 11.487 0 14.934Zm-32.383 1.313c4.929-.69 8.506-1.192 10.844-1.527l-.037.008.252-.037.372-.055c.158-.214.475-.177.494-.196.236-.154.366-.176.372-.177a.45.45 0 0 1 .243-.159.45.45 0 0 1 .242-.158c.121-.14.252-.158.252-.158.205-.233.363-.429.494-.447.121-.14.121-.27.121-.27.177-.206.325-.374.372-.43.121-.27.252-.279.252-.279-.093-1.294.186-2.03-.121-2.84 0-.354.037-.587-.121-.606 0-.246-.116-.35-.121-.355 0-.243-.114-.233-.121-.232-.001-.245-.116-.35-.122-.354 0-.121-.121-.233-.242-.214 0-.243-.113-.235-.121-.234 0-.25-.121-.353-.242-.335-.019-.232-.326-.382-.373-.447 0-.12-.122-.103-.252-.094 0-.25-.121-.232-.242-.213-.27-.233-.335-.345-.614-.29-.001-.12-.122-.232-.243-.213-.084-.084-.466-.13-.615-.159-.093-.13-.438-.074-.615-.037-3.605-.12-8.161 1.072-10.108 1.174v9.334Zm29.278-21.23 1.009-.7-.989.617-.02.083Z" class="mainlogo__Union mainlogo__(Stroke)" opacity=".74"/>
    <path fill="#fff" d="M17.303 209.006a10.383 10.383 0 0 0 3.978-1.465 10.91 10.91 0 0 0 3.18-2.878l-2.37-2.099a8 8 0 0 1-2.119 2.011c-.8.51-1.68.836-2.569.956a5.292 5.292 0 0 1-2.19-.117 4.719 4.719 0 0 1-1.863-.995 4.655 4.655 0 0 1-1.195-1.682 5.634 5.634 0 0 1-.435-2.253c-.009-.8.135-1.616.423-2.401a6.908 6.908 0 0 1 1.173-2.027 6.594 6.594 0 0 1 1.783-1.492 6.032 6.032 0 0 1 2.207-.763 5.392 5.392 0 0 1 2.636.257 5.247 5.247 0 0 1 2.17 1.519l2.445-2.853a7.096 7.096 0 0 0-3.192-2.021 8.94 8.94 0 0 0-4.062-.348 10.29 10.29 0 0 0-3.655 1.238 11.298 11.298 0 0 0-2.954 2.382 10.995 10.995 0 0 0-1.97 3.239 10.577 10.577 0 0 0-.724 3.78 9.04 9.04 0 0 0 .711 3.58 7.39 7.39 0 0 0 1.958 2.675 7.722 7.722 0 0 0 2.955 1.551 8.856 8.856 0 0 0 3.679.206Zm47.266-6.616a10.198 10.198 0 0 0 3.641-1.236 11.083 11.083 0 0 0 4.89-5.641c.477-1.225.722-2.505.722-3.762a8.875 8.875 0 0 0-.723-3.559 7.555 7.555 0 0 0-1.961-2.701 7.44 7.44 0 0 0-2.928-1.565c-2.328-.638-4.931-.272-7.259 1.02a10.9 10.9 0 0 0-2.928 2.388 11.068 11.068 0 0 0-1.961 3.253 10.395 10.395 0 0 0-.723 3.762 8.88 8.88 0 0 0 .723 3.559 7.556 7.556 0 0 0 1.961 2.701 7.44 7.44 0 0 0 2.928 1.565 8.649 8.649 0 0 0 3.618.216Zm0-3.44a5.008 5.008 0 0 1-2.135-.132 4.473 4.473 0 0 1-1.793-1.011 4.816 4.816 0 0 1-1.16-1.712c-.566-1.423-.566-3.088 0-4.67a7.045 7.045 0 0 1 1.16-2.025 6.572 6.572 0 0 1 1.793-1.514 5.83 5.83 0 0 1 2.135-.732 5.064 5.064 0 0 1 2.195.144 4.4 4.4 0 0 1 1.758.994c.498.47.892 1.046 1.16 1.699.565 1.424.565 3.088 0 4.67a7.006 7.006 0 0 1-1.16 2.039 6.485 6.485 0 0 1-1.758 1.488 5.952 5.952 0 0 1-2.195.762Zm54.823-4.549v-3.31l-9.554 1.342v-14.798l-3.614.508v18.106l13.168-1.848Zm45.596-6.408v-3.311l-9.554 1.343v-14.798l-3.616.508v18.106l13.17-1.848Zm45.944-6.457v-3.259l-9.902 1.391v-4.295l6.461-.908v-3.156l-6.461.908v-4.135l9.803-1.378v-3.259l-13.422 1.886v18.106l13.521-1.901Zm40.108-5.379a10.387 10.387 0 0 0 3.979-1.464 10.943 10.943 0 0 0 3.18-2.878l-2.371-2.098a7.979 7.979 0 0 1-2.12 2.011c-.8.51-1.679.837-2.568.955a5.292 5.292 0 0 1-2.191-.116 4.719 4.719 0 0 1-1.862-.995 4.645 4.645 0 0 1-1.194-1.682 5.654 5.654 0 0 1-.437-2.253 6.77 6.77 0 0 1 .425-2.401 6.866 6.866 0 0 1 1.172-2.027 6.588 6.588 0 0 1 1.783-1.492 6.034 6.034 0 0 1 2.207-.763 5.378 5.378 0 0 1 2.644.261 5.243 5.243 0 0 1 2.17 1.519l2.445-2.853a7.1 7.1 0 0 0-3.193-2.021c-1.273-.424-2.658-.543-4.06-.349a10.316 10.316 0 0 0-3.655 1.238 11.309 11.309 0 0 0-2.956 2.382 10.99 10.99 0 0 0-1.971 3.239 10.577 10.577 0 0 0-.723 3.779 9.037 9.037 0 0 0 .711 3.581 7.405 7.405 0 0 0 1.957 2.675 7.736 7.736 0 0 0 2.956 1.55 8.844 8.844 0 0 0 3.672.202Zm47.841-6.981v-14.799l5.86-.823v-3.312l-15.364 2.159v3.312l5.886-.827v14.795l3.618-.505Zm41.429-5.823v-18.106l-3.616.508v18.106l3.616-.508Zm41.655-5.569a10.183 10.183 0 0 0 3.642-1.236 11.091 11.091 0 0 0 4.889-5.641c.477-1.225.723-2.505.723-3.762a8.88 8.88 0 0 0-.723-3.559 7.55 7.55 0 0 0-1.962-2.701 7.44 7.44 0 0 0-2.927-1.565c-2.328-.638-4.93-.272-7.258 1.02a10.924 10.924 0 0 0-2.927 2.388 11.118 11.118 0 0 0-1.961 3.252 10.383 10.383 0 0 0-.724 3.763c0 1.257.246 2.467.724 3.558a7.572 7.572 0 0 0 1.961 2.701 7.455 7.455 0 0 0 2.927 1.566 8.659 8.659 0 0 0 3.616.213v.003Zm0-3.44a4.99 4.99 0 0 1-2.182-.146 4.41 4.41 0 0 1-1.746-.997 4.819 4.819 0 0 1-1.161-1.712c-.565-1.423-.565-3.088 0-4.67a7.045 7.045 0 0 1 1.161-2.025 6.538 6.538 0 0 1 1.746-1.487 5.848 5.848 0 0 1 2.182-.759 5.06 5.06 0 0 1 2.194.144 4.388 4.388 0 0 1 1.759.995 4.823 4.823 0 0 1 1.16 1.699c.566 1.422.566 3.087 0 4.669a6.999 6.999 0 0 1-1.16 2.039 6.5 6.5 0 0 1-1.759 1.489 5.938 5.938 0 0 1-2.194.758v.003Zm45.071-3.178v-12.112l8.905 10.86 3.192-.448v-18.107l-3.392.477v11.718l-8.68-10.498-3.443.484v18.106l3.418-.48Z" class="mainlogo__Vector"/>
    <g class="mainlogo__Vector">
      <path fill="#fff" fill-rule="evenodd" d="M11.736 42.351c-.154-.716-.095-5.658-.033-6.53.987-.28 1.848-.376 2.718-.472.196-.021.393-.043.592-.067.391-.047.865-.129 1.377-.216 1.7-.293 3.823-.658 4.787-.084 1.752 1.043 1.958 3.555.267 5.255-.92.925-2.002 1.097-3.22 1.24-1.155.134-2.278.295-3.4.455a142.92 142.92 0 0 1-3.088.419Zm.028-10.33c-.025-.094-.142-5.78-.02-6.525l.012-.065.007-.035.052-.198c.534-.15 4.211-.684 4.644-.62 3.376.497 3.24 5.27.211 6.547-1.093.461-2.542.622-3.786.76-.401.044-.78.086-1.12.135ZM8.743 46.37l-.106.004a55.09 55.09 0 0 0-.403-2.033c-.273-1.637-.246-3.073-.216-4.607.007-.377.015-.761.018-1.155l-.01-11.407c-.01-2.192-.014-3.357 1.557-4.756 1.137-1.011 2.856-1.156 4.354-1.283.356-.03.699-.058 1.019-.098 2.28-.28 3.225-.19 4.71.62 1.295.708 2.392 1.995 2.793 3.996.402 2.005.107 2.758-.268 3.712-.171.436-.359.913-.504 1.571.128.119.388.227.717.364.572.238 1.352.563 2.005 1.18 2.85 2.69 2.292 7.081-.37 10.039-2.02 2.243-4.334 2.493-7.005 2.782h-.007l-.391.044c-1.026.112-2.058.279-3.093.445-1.597.258-3.201.516-4.8.581Zm64.905-30.09c2.637-1.54 5.403-1.471 7.376-.793 2.174.748 3.235 1.88 4.56 4.233 1.191 2.116.542 5.766-.275 7.52-2.332 5.008-7.712 7.646-12.338 6.005-4.416-1.567-6.462-7.07-4.105-11.812 1.092-2.198 2.237-3.666 4.782-5.153Zm-.34-3.734c-.81.558-2.24.833-4.514 3.061-1.256 1.232-2.095 2.477-2.912 3.928-3.458 6.14-1.478 14.35 4.893 17.04 10.364 4.373 22.047-7.49 18.57-17.845-1.545-4.6-5.892-7.52-10.396-7.424-1.26.027-4.325.335-5.64 1.24Zm78.936 1.627c-.43-1.294.842-4.99 1.404-6.033 2.485-4.607 6.565-5.904 9.493-2.234 1.372 1.721 1.862 3.766 2.008 6.406-.642.284-10.719 1.513-12.905 1.861Zm-.186 11.987c.226-.611.118-6.94.114-8.137.387-.155 12.474-1.863 12.853-1.803.22.706.123 3.13.127 4.066.003.918-.136 3.413.078 4.096 4.324-1.071 3.507-4.588 3.666-6.58.104-1.293-.007-2.935.001-4.303.009-1.704.118-2.634-.228-4.497-.984-5.293-4.696-9.91-10.274-8.849-5.907 1.125-9.127 7.206-9.758 11.888-.209 1.545-.244 6.782-.204 8.48.029 1.205-.223 3.234.471 4.248.625.915 1.868 1.794 3.154 1.391ZM32.066 30.961c-.488-2.766 1.757-9.21 6.136-10.238 4.925-1.156 7.16 6.45 6.684 8.334-.801.395-7.907 1.217-9.698 1.506-1.063.171-2.17.185-3.122.398Zm-.158 11.99c.112-2.305.07-5.841-.001-8.08.357-.214 12.415-1.931 12.926-1.861.229.767.067 3.083.075 4.03.009 1.028-.1 3.325.087 4.168 3.593-.912 3.867-3.641 3.67-6.63l.023-4.28c.024-4.611-.447-8.264-3.794-11.4-1.671-1.566-3.686-2.343-6.659-1.96-3.256.417-5.55 2.844-6.962 4.727-1.385 1.846-2.47 4.608-2.834 7.175-.372 2.633-.193 5.734-.22 8.44-.013 1.33-.21 3.138.473 4.313a2.955 2.955 0 0 0 3.216 1.358Zm103.708-35.5c2.564-1.636 5.22-.383 6.103 1.455 1.235 2.572-.304 5.308-2.349 6.481-5.544 3.183-9.348-4.367-3.754-7.936Zm-2.71 12.84c.537.058.937.58 1.52 1.093 1.205 1.063 6.213 5.547 6.993 5.895 1.437.64 2.906.02 4.245-1.078-.309-1.03-6.516-5.418-7.049-6.628 6.727-2.29 8.703-9.182 6.033-13.405-3.574-5.657-12.923-3.448-15.134 4.115-.548 1.875-.281 10.72-.295 12.917l-.004 5.41c-.005.474-.132.737.272.75.497.017 1.719-.715 2.04-1.041 2.057-2.087 1.063-4.484 1.379-8.028Zm-5.468 9.349c-.527-4.648-4.62-2.73-7.49-2.572-.645.035-2.988.603-3.295.391l-.1-.145c-.008-.02-.031-.056-.039-.08-.122-.367.012-2.685-.017-3.444-.047-1.193-.012-2.614.01-3.808 1.432-.553 6.421-.664 7.323-1.253-.126-1.842-1.271-2.804-2.499-3.035-1.324-.249-3.984.545-4.755.425-.106-.495-.174-5.246.034-5.751l6.655-.97c1.313-.13 2.217-.532 3.059-1.417.608-.64 1.264-1.812 1.057-2.867l-4.679.605c-.622.09-1.179.248-1.783.319-5.159.605-8.292.286-8.088 6.774.081 2.577-.19 14.954.133 16.257.811 3.276 5.064 2.015 7.922 1.566 1.134-.178 2.132-.235 3.259-.453.995-.192 2.374-.18 3.293-.543Z" clip-rule="evenodd"/>
      <path fill="#fff" fill-rule="evenodd" d="m111.627 7.397-6.581.877c-2.532.355-4.621 1.085-6.809 2.55-10.196 6.82-8.115 21.102 3.215 22.175 2.145.203 4.185-.302 6.462-.534.5-.05 1.061-.149 1.595-.23 1.815-.276 2.587.161 1.881-1.617-1.162-2.93-4.615-1.574-6.741-1.404-4.26.342-7.685-.946-9.03-5.127-1.324-4.117 1.242-8.453 5.09-10.668 4.524-2.604 7.267-.587 9.801-3.207.65-.672 1.232-1.727 1.117-2.815Zm-56.631 11.53c.303 1.2-.187 19.317.168 20.861 4.352-1.23 3.474-4.519 3.562-6.842.078-2.084-.138-14.085.073-14.401.197-.296.9-.28 1.111-.303.869-.096 3.094-.411 3.774-.775 1.537-.822 2.386-2.247 2.34-3.753-.423-.084-15.198 1.989-17.4 2.33-.951.147-1.03.21-.727 1.21.98 3.231 4.756 1.885 7.1 1.673Z" clip-rule="evenodd"/>
    </g>
  </g>
</svg>
