<svg width="426" height="194" viewBox="0 0 426 194" fill="none" xmlns="http://www.w3.org/2000/svg">
<path d="M9.17095 193.827C10.526 193.635 11.8643 193.142 13.0927 192.384C14.3007 191.667 15.3725 190.697 16.228 189.547L13.8921 187.477C13.3189 188.264 12.6068 188.94 11.8023 189.459C11.0131 189.962 10.1467 190.284 9.26985 190.401C8.52992 190.514 7.79575 190.474 7.10985 190.286C6.42395 190.098 5.79994 189.765 5.27392 189.306C4.76739 188.855 4.36719 188.291 4.09656 187.648C3.80642 186.965 3.66032 186.21 3.66683 185.426C3.65893 184.637 3.80087 183.834 4.08479 183.059C4.34981 182.339 4.74255 181.66 5.24095 181.061C5.74077 180.466 6.33856 179.966 6.99874 179.59C7.68669 179.194 8.42711 178.938 9.17448 178.838C10.0758 178.708 10.9655 178.794 11.7729 179.091C12.6074 179.403 13.3382 179.915 13.9121 180.589L16.3222 177.777C15.4748 176.842 14.3966 176.159 13.1751 175.784C11.9198 175.366 10.5538 175.249 9.17095 175.441C7.93577 175.606 6.71123 176.021 5.56825 176.661C4.48537 177.263 3.49665 178.061 2.65548 179.01C1.82522 179.958 1.16485 181.044 0.712854 182.203C0.244291 183.417 0.00203328 184.684 1.27443e-05 185.929C-0.00200779 187.174 0.236248 188.374 0.70108 189.459C1.14773 190.488 1.80393 191.385 2.63076 192.095C3.47232 192.808 4.46146 193.327 5.54471 193.624C6.69541 193.944 7.92804 194.013 9.17095 193.827ZM55.767 187.305C56.9981 187.141 58.2185 186.727 59.3568 186.087C60.4349 185.487 61.4158 184.687 62.2431 183.733C63.0703 182.778 63.7275 181.688 64.1768 180.526C64.6473 179.318 64.8897 178.057 64.8897 176.817C64.8897 175.578 64.6473 174.385 64.1768 173.309C63.7276 172.273 63.0704 171.367 62.2431 170.646C61.4159 169.924 60.4349 169.399 59.3568 169.103C57.0619 168.474 54.4957 168.835 52.2008 170.109C51.1227 170.708 50.1417 171.508 49.3144 172.463C48.4872 173.417 47.83 174.507 47.3807 175.669C46.9106 176.878 46.6683 178.139 46.6683 179.378C46.6683 180.618 46.9106 181.81 47.3807 182.886C47.8301 183.923 48.4873 184.828 49.3145 185.55C50.1418 186.271 51.1227 186.796 52.2008 187.092C53.3317 187.412 54.5434 187.485 55.767 187.305ZM55.767 183.914C55.0446 184.021 54.3285 183.977 53.6626 183.783C52.9968 183.59 52.3952 183.251 51.8947 182.788C51.401 182.322 51.0128 181.748 50.7515 181.099C50.1939 179.696 50.1939 178.055 50.7515 176.496C51.015 175.778 51.4031 175.1 51.8947 174.499C52.3952 173.895 52.9968 173.387 53.6626 173.007C54.3285 172.626 55.0446 172.38 55.767 172.285C56.5107 172.175 57.2474 172.223 57.931 172.427C58.5837 172.619 59.1733 172.952 59.664 173.408C60.1557 173.87 60.5437 174.439 60.8073 175.083C61.3646 176.486 61.3646 178.126 60.8073 179.686C60.5459 180.409 60.1577 181.091 59.664 181.696C59.1733 182.289 58.5837 182.788 57.931 183.163C57.2477 183.559 56.5102 183.815 55.767 183.914ZM109.813 179.43V176.166L100.395 177.49V162.901L96.8319 163.402V181.252L109.813 179.43ZM154.763 173.112V169.849L145.345 171.172V156.584L141.78 157.085V174.935L154.763 173.112ZM200.056 166.747V163.534L190.295 164.906V160.671L196.664 159.776V156.664L190.295 157.56V153.483L199.958 152.125V148.912L186.727 150.772V168.621L200.056 166.747ZM239.596 161.444C240.951 161.252 242.29 160.759 243.518 160.001C244.726 159.284 245.798 158.314 246.653 157.164L244.316 155.096C243.743 155.883 243.031 156.558 242.227 157.078C241.437 157.58 240.571 157.903 239.694 158.02C238.954 158.132 238.22 158.093 237.535 157.905C236.849 157.717 236.225 157.383 235.699 156.924C235.193 156.473 234.792 155.91 234.522 155.266C234.232 154.583 234.085 153.828 234.091 153.045C234.083 152.256 234.226 151.452 234.51 150.677C234.774 149.957 235.167 149.278 235.665 148.679C236.165 148.084 236.763 147.584 237.423 147.208C238.111 146.812 238.851 146.556 239.599 146.456C240.503 146.326 241.396 146.414 242.205 146.713C243.04 147.025 243.771 147.537 244.345 148.211L246.755 145.399C245.907 144.464 244.829 143.781 243.608 143.406C242.353 142.988 240.987 142.871 239.605 143.063C238.369 143.228 237.145 143.643 236.002 144.283C234.919 144.885 233.93 145.682 233.088 146.631C232.257 147.579 231.596 148.664 231.144 149.824C230.676 151.038 230.434 152.305 230.432 153.55C230.43 154.795 230.668 155.995 231.132 157.08C231.579 158.109 232.235 159.005 233.062 159.716C233.904 160.429 234.893 160.948 235.976 161.245C237.125 161.562 238.356 161.631 239.596 161.444ZM286.759 154.562V139.973L292.536 139.161V135.896L277.389 138.025V141.29L283.193 140.474V155.06L286.759 154.562ZM327.601 148.822V130.972L324.036 131.473V149.323L327.601 148.822ZM368.666 143.331C369.897 143.168 371.118 142.753 372.256 142.113C373.334 141.513 374.315 140.713 375.142 139.759C375.969 138.804 376.626 137.715 377.076 136.552C377.546 135.344 377.788 134.083 377.788 132.843C377.788 131.604 377.546 130.411 377.076 129.335C376.627 128.299 375.969 127.394 375.142 126.672C374.315 125.95 373.334 125.426 372.256 125.129C369.961 124.5 367.395 124.861 365.101 126.135C364.023 126.735 363.043 127.535 362.216 128.489C361.389 129.443 360.732 130.533 360.282 131.695C359.811 132.903 359.569 134.164 359.569 135.404C359.569 136.644 359.811 137.836 360.282 138.912C360.732 139.948 361.389 140.853 362.216 141.575C363.043 142.296 364.023 142.821 365.101 143.118C366.231 143.437 367.443 143.509 368.666 143.329V143.331ZM368.666 139.94C367.926 140.05 367.194 140.001 366.515 139.796C365.867 139.602 365.281 139.268 364.794 138.814C364.299 138.348 363.911 137.775 363.649 137.126C363.092 135.723 363.092 134.082 363.649 132.522C363.913 131.804 364.301 131.126 364.794 130.526C365.281 129.935 365.867 129.436 366.515 129.06C367.194 128.663 367.926 128.408 368.666 128.311C369.409 128.201 370.146 128.249 370.829 128.453C371.482 128.645 372.072 128.979 372.563 129.434C373.055 129.896 373.443 130.465 373.706 131.109C374.264 132.511 374.264 134.152 373.706 135.712C373.445 136.435 373.057 137.117 372.563 137.722C372.072 138.315 371.482 138.814 370.829 139.19C370.145 139.585 369.409 139.839 368.666 139.937V139.94ZM413.098 136.807V124.867L421.876 135.573L425.023 135.131V117.281L421.68 117.751V129.303L413.123 118.954L409.728 119.431V137.28L413.098 136.807Z" fill="white"/>
<path fill-rule="evenodd" clip-rule="evenodd" d="M3.73585 42.351C3.58191 41.6354 3.64074 36.6926 3.70288 35.8208C4.68949 35.5403 5.55134 35.4452 6.42049 35.3492C6.61704 35.3275 6.81396 35.3058 7.01278 35.2819C7.40444 35.2348 7.87774 35.1534 8.38946 35.0655C10.0893 34.7734 12.2131 34.4084 13.1768 34.9819C14.9292 36.0247 15.1348 38.5373 13.4438 40.2371C12.5231 41.1625 11.4425 41.3341 10.2245 41.4762C9.06903 41.611 7.94597 41.7717 6.82404 41.9322C5.80249 42.0784 4.78057 42.2245 3.73585 42.351ZM3.76377 32.0205C3.73923 31.9271 3.62192 26.2408 3.74338 25.4959C3.74679 25.4753 3.75151 25.4525 3.75596 25.4311C3.7585 25.4188 3.76095 25.407 3.763 25.3964L3.81461 25.1984C4.34904 25.0488 8.02642 24.5142 8.45881 24.5779C11.8346 25.0748 11.6983 29.848 8.67005 31.1251C7.57714 31.586 6.12784 31.7468 4.88407 31.8848C4.48298 31.9293 4.10327 31.9715 3.76377 32.0205ZM0.742901 46.3705L0.637071 46.3748C0.524337 45.7404 0.390369 45.0636 0.233972 44.3424C-0.0393287 42.7051 -0.0115297 41.2685 0.0181389 39.7353C0.0254496 39.3575 0.0328732 38.9739 0.0359347 38.58L0.0251365 27.1728C0.0154515 24.9813 0.0118769 23.8156 1.58348 22.417C2.71962 21.4058 4.4392 21.2608 5.93733 21.1345C6.29285 21.1045 6.63589 21.0756 6.95571 21.0364C9.23642 20.7568 10.1806 20.8461 11.6661 21.6569C12.961 22.3636 14.0575 23.6511 14.4587 25.6518C14.8611 27.6575 14.5656 28.41 14.1908 29.3642C14.0198 29.7997 13.8322 30.2772 13.687 30.9351C13.8146 31.0539 14.0749 31.1622 14.404 31.2992C14.9759 31.5371 15.7557 31.8615 16.409 32.4781C19.2597 35.1685 18.7012 39.56 16.0385 42.5177C14.0194 44.7606 11.7053 45.0111 9.03379 45.3002L9.02726 45.3009C8.89757 45.315 8.76704 45.3291 8.63567 45.3436C7.61012 45.4565 6.57814 45.6227 5.54319 45.7895C3.94592 46.0469 2.34158 46.3054 0.742901 46.3705Z" fill="white"/>
<path fill-rule="evenodd" clip-rule="evenodd" d="M65.6479 16.2799C68.2846 14.7397 71.0511 14.8088 73.0242 15.4875C75.1985 16.2355 76.2591 17.3679 77.5839 19.7201C78.7753 21.8359 78.126 25.4858 77.3089 27.2403C74.9766 32.2483 69.5975 34.8856 64.9712 33.2446C60.5545 31.678 58.5087 26.175 60.8656 21.4331C61.9582 19.2349 63.1025 17.7667 65.6479 16.2799ZM65.3085 12.5464C64.4984 13.1039 63.0673 13.3789 60.7944 15.6072C59.5381 16.8389 58.6989 18.0837 57.882 19.5346C54.4242 25.6755 56.4036 33.8852 62.775 36.5742C73.1393 40.9482 84.8217 29.0841 81.3445 18.7303C79.7997 14.1307 75.4534 11.2093 70.9491 11.3057C69.689 11.3327 66.6241 11.641 65.3085 12.5464Z" fill="white"/>
<path fill-rule="evenodd" clip-rule="evenodd" d="M144.244 14.1733C143.814 12.8786 145.086 9.18273 145.648 8.13959C148.133 3.53279 152.213 2.23554 155.141 5.90627C156.513 7.62719 157.003 9.6721 157.149 12.3118C156.507 12.5957 146.43 13.8245 144.244 14.1733ZM144.058 26.16C144.284 25.5487 144.176 19.2205 144.172 18.023C144.559 17.8676 156.646 16.1596 157.025 16.2203C157.245 16.9263 157.148 19.3497 157.152 20.2863C157.155 21.2042 157.016 23.6987 157.23 24.3818C161.554 23.311 160.737 19.7938 160.896 17.8017C161 16.5092 160.889 14.8669 160.897 13.4986C160.906 11.7952 161.015 10.8651 160.669 9.00165C159.685 3.70943 155.973 -0.908799 150.395 0.153312C144.488 1.27797 141.268 7.35943 140.637 12.0414C140.428 13.5861 140.393 18.8226 140.433 20.5202C140.462 21.7263 140.21 23.7548 140.904 24.7694C141.529 25.6837 142.772 26.5631 144.058 26.16Z" fill="white"/>
<path fill-rule="evenodd" clip-rule="evenodd" d="M24.0665 30.9611C23.5778 28.1953 25.8234 21.7506 30.2022 20.7228C35.1274 19.5668 37.3613 27.1731 36.8859 29.0573C36.085 29.452 28.9786 30.2743 27.1879 30.5628C26.1246 30.7341 25.0184 30.7477 24.0665 30.9611ZM23.908 42.9513C24.0198 40.6462 23.9779 37.1096 23.907 34.8719C24.2638 34.6572 36.3221 32.9397 36.8332 33.0098C37.0616 33.7774 36.8996 36.0925 36.9078 37.0406C36.9168 38.0683 36.8072 40.3652 36.9953 41.2076C40.5877 40.2956 40.8619 37.5669 40.6649 34.5781L40.688 30.2971C40.7117 25.6866 40.2415 22.0336 36.8937 18.8971C35.2227 17.3317 33.208 16.5554 30.2352 16.9372C26.9793 17.3553 24.6843 19.7824 23.2727 21.6651C21.8883 23.5114 20.8033 26.2731 20.4395 28.8405C20.0666 31.4729 20.2463 34.5737 20.219 37.2808C20.2057 38.6107 20.0094 40.4181 20.6922 41.5925C21.2924 42.6247 22.5962 43.2695 23.908 42.9513Z" fill="white"/>
<path fill-rule="evenodd" clip-rule="evenodd" d="M127.616 7.45112C130.18 5.81502 132.836 7.06767 133.719 8.90634C134.954 11.4776 133.415 14.2137 131.37 15.3873C125.826 18.57 122.022 11.0205 127.616 7.45112ZM124.906 20.291C125.443 20.3492 125.843 20.8705 126.426 21.3845C127.631 22.4468 132.639 26.9314 133.419 27.2791C134.856 27.919 136.325 27.2997 137.664 26.2007C137.355 25.1709 131.148 20.7832 130.615 19.5727C137.342 17.2832 139.318 10.3909 136.648 6.16752C133.074 0.511485 123.725 2.7198 121.514 10.2834C120.966 12.1577 121.233 21.0022 121.219 23.1996L121.215 28.6092C121.21 29.0845 121.083 29.3472 121.487 29.3604C121.984 29.3767 123.206 28.645 123.527 28.3189C125.584 26.2315 124.59 23.8353 124.906 20.291Z" fill="white"/>
<path fill-rule="evenodd" clip-rule="evenodd" d="M119.438 29.6391C118.911 24.9919 114.818 26.9108 111.948 27.0677C111.303 27.103 108.96 27.6711 108.653 27.4591L108.553 27.3139C108.545 27.2944 108.522 27.2581 108.514 27.2331C108.392 26.8671 108.526 24.5493 108.497 23.7897C108.45 22.5967 108.485 21.1758 108.507 19.9816C109.939 19.4287 114.928 19.3182 115.83 18.7293C115.704 16.8874 114.559 15.9249 113.331 15.6941C112.007 15.4451 109.347 16.2388 108.576 16.1186C108.47 15.6237 108.402 10.8731 108.61 10.3678L115.265 9.39834C116.578 9.26733 117.482 8.86597 118.324 7.98119C118.932 7.34174 119.588 6.16882 119.381 5.11417L114.702 5.71905C114.08 5.80901 113.523 5.96675 112.919 6.03774C107.76 6.64325 104.627 6.32357 104.831 12.8123C104.912 15.3891 104.641 27.7657 104.964 29.0688C105.775 32.3446 110.028 31.084 112.886 30.6352C114.02 30.457 115.018 30.4 116.145 30.1821C117.14 29.9898 118.519 30.0026 119.438 29.6391Z" fill="white"/>
<path fill-rule="evenodd" clip-rule="evenodd" d="M103.627 7.39692L97.0459 8.27438C94.5141 8.62863 92.4252 9.3594 90.2371 10.8231C80.0413 17.6435 82.1216 31.9259 93.4524 32.9989C95.5968 33.202 97.6368 32.6966 99.9141 32.4655C100.414 32.4148 100.975 32.3162 101.509 32.2349C103.324 31.9587 104.096 32.3961 103.39 30.6181C102.228 27.6881 98.7753 29.0436 96.6487 29.2143C92.3895 29.556 88.964 28.2684 87.6189 24.0867C86.2947 19.9696 88.8611 15.6342 92.7089 13.419C97.2325 10.8148 99.9758 12.8316 102.51 10.2116C103.16 9.5398 103.742 8.48479 103.627 7.39692Z" fill="white"/>
<path fill-rule="evenodd" clip-rule="evenodd" d="M46.9961 18.9272C47.2994 20.1279 46.809 38.2441 47.1641 39.7883C51.5158 38.5588 50.638 35.2692 50.7256 32.9464C50.8042 30.8621 50.5883 18.8611 50.7989 18.545C50.9959 18.2495 51.6988 18.2658 51.9101 18.2424C52.779 18.1463 55.004 17.8309 55.684 17.4672C57.2214 16.6448 58.0704 15.2204 58.0241 13.7143C57.6014 13.6301 42.8261 15.7025 40.6234 16.0438C39.6728 16.191 39.5933 16.2544 39.8965 17.2531C40.8776 20.4853 44.653 19.1387 46.9961 18.9272Z" fill="white"/>
<path d="M66.41 83.1847C61.0196 83.9426 52.8723 85.0891 41.9684 86.6237V78.7794C39.2116 79.1678 35.204 79.7266 29.6811 80.5034C29.5579 81.0245 29.3017 81.8208 29.0554 83.1281C35.5732 87.4007 45.4729 93.9852 58.6411 102.767C58.7643 102.748 59.0205 102.966 59.2668 103.316C59.8541 103.383 60.1575 103.828 60.6501 104.387C60.8962 104.349 61.0287 104.586 61.2748 104.936C61.7484 105.277 62.1187 105.561 62.526 106.149C63.0184 106.206 63.2081 106.859 63.6532 107.38C64.5816 108.337 65.529 109.474 66.1637 110.952C66.4479 111.35 66.8456 111.691 67.0445 112.477C67.4329 113.188 67.9159 113.851 68.0485 114.865C68.1717 114.979 68.2953 115.206 68.4279 115.698C68.5511 115.802 68.6742 116.04 68.6742 116.551C69.3562 120.198 68.7115 124.557 68.9294 131.453C68.6925 132.902 68.1912 134.267 67.4239 135.84C67.4236 135.963 67.2999 136.237 67.0445 136.521C67.0445 136.644 67.0446 136.9 66.7983 137.194C66.372 138.075 65.8507 138.814 65.0455 139.847C64.4581 140.832 63.4822 141.675 62.535 142.859C62.1845 143.058 61.9478 143.428 61.4078 143.901C61.2847 143.92 61.0285 144.081 60.7822 144.365C60.6589 144.384 60.4037 144.546 60.1576 144.83C60.0344 144.849 59.7782 145.009 59.5319 145.294C59.4087 145.313 59.1525 145.474 58.9063 145.758C58.7829 145.778 58.5274 145.938 58.1585 146.241C58.1585 146.241 57.9118 146.279 57.5329 146.582C56.6802 147.046 55.8182 147.387 54.7761 147.984C41.3331 150.864 24.9912 152.248 0 156.066V125.058C5.39047 124.3 13.415 123.173 23.9401 121.695V128.535C27.5213 127.673 35.5739 127.663 41.9872 125.494C41.9934 125.487 42.1136 125.351 42.2335 125.333C42.3565 125.191 42.4794 125.049 42.6119 125.03L42.8582 124.746C42.9813 124.727 43.1044 124.585 43.1045 124.452L43.1144 124.423V122.396C36.4546 118.029 20.7191 107.438 8.01512 99.9915C7.89198 99.7548 7.7683 99.6503 7.51262 99.5556C7.38946 99.3187 7.26591 99.2144 7.01012 99.1196C7.01012 98.8639 6.76436 98.7783 6.50862 98.5605C6.5086 98.4374 6.38503 98.3236 6.12926 98.1057C6.12918 97.85 5.88346 97.7644 5.62776 97.5466C5.62757 97.4235 5.504 97.3095 5.24841 97.0918C5.24828 96.8363 5.12471 96.7316 4.86905 96.5138C4.86905 96.2583 4.86893 96.1347 4.62277 95.917C4.62262 95.6616 4.49979 95.5575 4.24441 95.34C1.8571 90.2054 2.60526 86.3398 2.73791 79.2253C3.30632 75.1138 5.33322 71.5227 7.74897 68.1406C9.12263 66.6628 10.6575 65.1943 12.2585 63.8396C14.3616 62.466 16.6261 61.1308 19.0323 60.3539C31.9069 57.8813 44.4407 56.7349 66.41 53.4381V83.1847Z" fill="white"/>
<path d="M130.886 83.9981C129.759 84.1591 128.13 84.3866 125.875 84.6992V120.017C127.003 119.856 128.632 119.628 130.886 119.316V137.666C124.748 138.528 115.473 139.836 103.186 141.56V123.21C104.313 123.049 105.943 122.821 108.074 122.527V113.669C105.071 114.095 100.552 114.731 94.4127 115.593V124.45C95.5401 124.289 97.1701 124.062 99.4248 123.749V142.1C93.2859 142.962 84.0112 144.27 71.7239 145.994V127.643C72.8512 127.482 74.4805 127.254 76.6118 126.961V91.6437C75.6076 91.7859 73.9783 92.0129 71.7239 92.3349V73.4734C77.8628 72.6113 87.1375 71.3038 99.4248 69.5796V88.4411C98.2974 88.6021 96.6674 88.8296 94.4127 89.1422V97.6211C99.0832 96.9674 103.47 96.3522 108.074 95.6985V87.2007C107.07 87.3428 105.44 87.5698 103.186 87.8919V69.0304C109.324 68.1683 118.609 66.8607 130.886 65.1366V83.9981Z" fill="white"/>
<path fill-rule="evenodd" clip-rule="evenodd" d="M171.502 59.4244C173.501 59.1308 175.604 59.0269 177.517 59.5952C177.64 59.5763 177.897 59.5382 178.143 59.7561C178.645 59.794 179.1 59.8131 179.526 60.192C179.772 60.1542 180.028 60.2485 180.274 60.4661C180.397 60.4472 180.653 60.5422 180.9 60.7601C181.146 60.7222 181.279 60.8361 181.525 61.054C181.771 61.0164 181.904 61.2524 182.15 61.4701C182.984 61.6975 183.714 62.4847 184.405 63.1762C184.633 63.2998 185.248 63.8105 185.409 64.1703C186.063 64.6913 186.707 65.544 187.162 66.4534C187.37 66.5011 187.739 67.2493 187.787 67.6282C188.232 68.3482 188.602 69.3623 188.792 70.3949C190.127 81.2705 188.876 93.8423 189.293 113.614C189.037 115.309 188.715 117.232 187.787 119.013C187.645 119.496 187.55 119.809 187.162 120.491C187.162 120.614 187.038 120.889 186.783 121.173C186.783 121.296 186.537 121.59 186.281 121.874C186.281 121.997 186.158 122.272 185.902 122.556C185.76 122.964 185.371 123.257 184.898 123.835C184.642 124.413 183.903 125.076 183.268 125.711C183.268 125.834 183.021 126.005 182.766 126.289C182.642 126.309 182.387 126.593 182.141 126.886C181.762 127.009 181.335 127.539 180.89 127.947C180.766 127.966 180.511 128.128 180.265 128.411C180.142 128.43 179.886 128.591 179.516 128.894C179.052 129.102 178.758 129.235 178.133 129.718C178.01 129.737 177.754 129.775 177.508 130.059C177.385 130.078 177.129 130.116 176.76 130.419C168.953 133.006 161.365 133.205 149.94 134.825C149.816 134.711 149.561 134.749 149.192 134.806C149.069 134.702 148.812 134.73 148.443 134.787C148.092 134.541 147.571 134.635 146.937 134.616C146.813 134.503 146.558 134.417 146.189 134.464C146.066 134.36 145.809 134.265 145.563 134.303C145.288 134.152 144.653 133.867 144.18 133.867C144.056 133.754 143.801 133.669 143.432 133.593C142.816 133.148 141.698 132.769 140.921 132.172C140.77 131.879 140.192 131.651 139.794 131.319C139.396 130.912 138.856 130.363 138.288 129.889C138.288 129.633 138.041 129.548 137.785 129.33C137.719 128.894 137.255 128.563 136.904 128.184C136.904 127.928 136.781 127.824 136.525 127.606C136.525 127.35 136.402 127.113 136.147 126.895C135.995 126.535 135.909 125.929 135.521 125.588C135.521 125.332 135.521 125.209 135.275 124.991C135.275 124.735 135.275 124.489 135.029 124.271C133.484 112.714 134.829 100.616 134.403 80.3137C134.498 79.2528 134.915 78.2295 135.029 77.1875C141.092 60.1445 154.185 62.295 171.502 59.4055V59.4244ZM167.116 79.1578C166.822 78.5515 157.463 79.4516 156.212 80.9483C155.748 81.1093 155.444 81.5069 154.828 82.0278C153.625 83.0415 152.65 84.9087 152.195 86.6992C152.308 91.8055 151.967 100.35 152.318 110.477C152.441 110.591 152.441 110.714 152.441 110.97C152.564 111.074 152.687 111.188 152.687 111.444C152.811 111.425 152.934 111.662 152.934 111.917C153.057 111.898 153.18 112.012 153.18 112.258C153.303 112.362 153.436 112.476 153.436 112.732C153.559 112.713 153.682 112.827 153.815 113.063C153.938 113.044 154.061 113.159 154.061 113.405C154.184 113.386 154.308 113.5 154.44 113.737C154.563 113.718 154.686 113.832 154.819 114.068C155.065 114.154 155.501 114.182 155.7 114.58C155.823 114.561 155.946 114.542 156.202 114.76C156.325 114.741 156.449 114.721 156.581 114.958C156.827 114.92 156.96 114.902 157.083 115.016C157.5 115.054 157.822 115.006 158.088 115.252C159.84 115.006 162.351 114.656 165.609 114.192C165.732 114.049 165.856 113.907 166.112 113.869V113.85C166.396 113.746 166.709 113.575 167.116 113.452C167.353 113.177 167.788 112.922 167.997 112.827C168.12 112.685 168.243 112.543 168.376 112.391C168.897 112.135 169.626 111.33 169.882 110.79C170.118 110.468 170.488 110.269 170.507 109.814C170.63 109.672 170.753 109.53 170.753 109.398C170.877 109.256 171 109.113 171 108.858C172.298 102.529 171.114 95.443 171.502 83.9802C171.389 83.4308 171.236 82.6823 170.753 82.1897C170.753 81.9339 170.753 81.8107 170.507 81.716C170.507 81.5928 170.384 81.4786 170.261 81.3743C170.261 81.1187 170.137 81.0142 169.882 80.9195C169.882 80.7965 169.881 80.6641 169.635 80.5789C169.635 80.4558 169.513 80.3419 169.257 80.2472C169.257 80.1241 169.133 80.0107 168.878 80.0486C168.878 79.9255 168.632 79.8305 168.376 79.7358C168.376 79.6126 168.252 79.4993 167.997 79.5372C167.997 79.414 167.75 79.3185 167.494 79.3564C167.494 79.2334 167.371 79.12 167.116 79.1578Z" fill="white"/>
<path fill-rule="evenodd" clip-rule="evenodd" d="M230.416 51.1501C232.415 50.8564 234.519 50.7525 236.433 51.3209C236.556 51.3019 236.811 51.2641 237.057 51.4818C237.559 51.5197 238.015 51.5388 238.432 51.9177C238.687 51.88 238.933 51.9742 239.179 52.1918C239.303 52.1729 239.559 52.2679 239.805 52.4858C240.051 52.4479 240.183 52.5619 240.43 52.7797C240.676 52.7418 240.809 52.978 241.055 53.1958C241.889 53.4232 242.619 54.2104 243.311 54.9019C243.538 55.0256 244.154 55.5363 244.315 55.896C244.968 56.417 245.603 57.2697 246.067 58.1791C246.19 58.1608 246.313 58.3976 246.446 58.757C246.569 58.8707 246.692 59.0982 246.692 59.3539C247.137 60.0739 247.506 61.088 247.696 62.1206C249.032 72.9962 247.782 85.568 248.198 105.339C247.943 107.035 247.62 108.958 246.692 110.739C246.55 111.222 246.456 111.535 246.067 112.216C246.067 112.339 245.944 112.614 245.688 112.899C245.688 113.022 245.432 113.315 245.185 113.6C245.185 113.723 245.063 113.998 244.807 114.282C244.665 114.689 244.277 114.983 243.803 115.561C243.547 116.139 242.808 116.802 242.173 117.437C242.173 117.56 241.927 117.721 241.671 118.015C241.548 118.034 241.292 118.318 241.046 118.612C240.667 118.735 240.24 119.265 239.795 119.672C239.672 119.691 239.417 119.853 239.17 120.137C239.047 120.156 238.791 120.317 238.422 120.62C237.957 120.838 237.664 120.961 237.048 121.444C236.925 121.463 236.669 121.501 236.423 121.785C236.299 121.804 236.044 121.842 235.675 122.145C227.869 124.731 220.279 124.93 208.845 126.55C208.722 126.446 208.466 126.475 208.097 126.531C207.974 126.418 207.718 126.456 207.348 126.513C206.998 126.266 206.477 126.361 205.842 126.342C205.719 126.238 205.463 126.143 205.094 126.19C204.971 126.086 204.715 125.991 204.468 126.029C204.194 125.877 203.559 125.593 203.085 125.593C202.962 125.489 202.706 125.395 202.337 125.319C201.722 124.874 200.604 124.495 199.827 123.898C199.675 123.604 199.096 123.376 198.699 123.045C198.301 122.638 197.761 122.088 197.193 121.615C197.193 121.359 196.946 121.274 196.691 121.056C196.624 120.62 196.16 120.288 195.81 119.91C195.81 119.654 195.686 119.55 195.43 119.332C195.43 119.076 195.308 118.839 195.052 118.621C194.9 118.261 194.815 117.655 194.426 117.314C194.426 117.058 194.426 116.935 194.18 116.717C194.18 116.461 194.18 116.215 193.934 115.997C192.399 104.439 193.734 92.3412 193.308 72.0394C193.403 70.9785 193.82 69.9552 193.934 68.9132C200.006 51.8702 213.08 54.0207 230.408 51.1312L230.416 51.1501ZM226.03 70.8835C225.736 70.2773 216.377 71.1772 215.126 72.674C214.662 72.8351 214.358 73.2325 213.743 73.7535C212.53 74.7672 211.564 76.6344 211.109 78.4249C211.223 83.5312 210.882 92.0762 211.232 102.203C211.355 102.307 211.355 102.44 211.355 102.696C211.478 102.8 211.602 102.914 211.602 103.169C211.725 103.15 211.848 103.387 211.848 103.643C211.971 103.624 212.094 103.738 212.094 103.984C212.217 104.088 212.34 104.202 212.34 104.457C212.464 104.438 212.587 104.552 212.72 104.789C212.843 104.77 212.966 104.884 212.966 105.131C213.089 105.112 213.213 105.226 213.345 105.462C213.469 105.444 213.591 105.557 213.724 105.794C213.97 105.879 214.406 105.908 214.605 106.306C214.728 106.287 214.851 106.267 215.107 106.485C215.23 106.466 215.354 106.447 215.487 106.684C215.733 106.646 215.865 106.628 215.988 106.741C216.405 106.789 216.727 106.732 216.992 106.978C218.745 106.732 221.256 106.381 224.515 105.917C224.638 105.775 224.761 105.632 225.016 105.594L225.026 105.576C225.31 105.471 225.623 105.301 226.03 105.177C226.267 104.903 226.702 104.648 226.911 104.553C227.034 104.411 227.158 104.268 227.29 104.117C227.811 103.861 228.541 103.056 228.797 102.516C229.034 102.194 229.402 101.994 229.421 101.54C229.545 101.398 229.668 101.255 229.668 101.123C229.791 100.981 229.914 100.839 229.914 100.583C231.212 94.2551 230.028 87.1687 230.416 75.7059C230.312 75.1564 230.151 74.408 229.668 73.9154C229.668 73.6596 229.668 73.5364 229.421 73.4417C229.421 73.3185 229.298 73.2042 229.175 73.1C229.175 72.8444 229.052 72.7399 228.797 72.6452C228.797 72.5222 228.796 72.3898 228.55 72.3046C228.55 72.1814 228.427 72.0676 228.171 71.9729C228.171 71.8498 228.048 71.7365 227.793 71.7743C227.793 71.6511 227.546 71.5562 227.29 71.4615C227.29 71.3383 227.167 71.225 226.911 71.2628C226.911 71.1397 226.665 71.0443 226.409 71.0821C226.409 70.9591 226.286 70.8456 226.03 70.8835Z" fill="white"/>
<path d="M306.999 64.4345C303.115 64.9839 297.223 65.8078 289.322 66.9162V61.7253C289.075 61.7632 288.82 61.7916 288.318 61.8674V97.1841C289.445 97.0231 291.074 96.796 293.206 96.4929V114.843C287.19 115.686 277.915 116.994 265.505 118.737V100.387C266.755 100.207 268.385 99.9794 270.517 99.6857V64.3679C270.261 64.4058 269.891 64.453 269.389 64.5288V69.7206C265.505 70.2701 259.612 71.094 251.844 72.1834V48.1301C264.131 46.4059 282.425 43.8296 306.999 40.3812V64.4345Z" fill="white"/>
<path d="M363.806 56.4501C359.922 56.9996 354.03 57.8234 346.129 58.9318V53.6179C343.249 54.0252 338.853 54.6407 332.837 55.4839V64.0948C337.508 63.4412 341.894 62.8259 346.498 62.1722V80.1439C343.486 80.5702 338.976 81.2044 332.837 82.0665V90.9248C335.85 90.4984 340.359 89.863 346.129 89.0578V83.6108C350.136 83.0423 356.029 82.2185 363.806 81.1291V104.926C351.898 106.603 333.974 109.123 310.157 112.468V94.1165C311.285 93.9555 312.914 93.729 315.169 93.4164V57.9755C314.041 58.1365 312.412 58.364 310.157 58.6766V39.9373C322.189 38.2415 339.99 35.741 363.806 32.3968V56.4501Z" fill="white"/>
<path fill-rule="evenodd" clip-rule="evenodd" d="M410.541 26.1981C410.787 26.1602 411.043 26.1326 411.166 26.2368C411.555 26.284 412.17 26.1607 412.293 26.4543C412.672 26.3975 412.918 26.4921 412.918 26.6151C413.174 26.5773 413.42 26.6719 413.544 26.776C413.79 26.7382 414.046 26.8336 414.046 26.9568C414.851 27.0895 415.808 27.4865 416.3 27.9032C416.547 27.8653 416.803 27.9608 416.803 28.0839C417.049 28.1786 417.304 28.2642 417.304 28.3967C417.56 28.4914 417.806 28.5761 417.807 28.7086C418.053 28.9263 418.308 29.0214 418.308 29.1445C418.555 29.2392 418.811 29.3247 418.811 29.4573C419.057 29.5521 419.313 29.6375 419.313 29.7702C419.559 29.9879 419.692 30.1019 419.692 30.225C419.938 30.3197 420.194 30.4052 420.194 30.6609C420.45 30.7555 420.572 30.8593 420.573 30.9916C420.828 31.2093 420.952 31.3234 420.952 31.4465C421.198 31.6642 421.331 31.7782 421.331 31.9013C421.577 32.119 421.71 32.233 421.71 32.3561C421.956 32.574 422.089 32.6878 422.089 32.9341C422.477 33.029 422.572 33.6352 422.714 33.8626C423.917 35.5963 424.524 37.5761 424.846 39.6413C425.083 45.998 425.083 51.3222 424.846 54.8274C424.846 55.0832 424.846 55.2067 424.723 55.3488C424.571 55.8793 424.599 56.5997 424.22 57.0638C423.86 58.2573 423.329 59.3754 422.714 60.3132C422.193 61.5445 420.923 62.5015 420.203 63.7045C419.569 64.0267 419.067 64.9734 418.451 65.22C417.305 66.4231 415.751 66.9912 414.443 67.8059C413.487 68.1091 412.7 68.5925 411.687 68.6967L411.678 68.7067C411.431 68.7446 411.298 68.8863 411.175 68.9053C414.69 73.4716 417.191 76.9198 418.944 79.3356C421.7 78.9472 423.709 78.663 424.959 78.4924V96.341C418.441 97.2599 413.553 97.9424 410.294 98.4066C402.147 87.6542 396.008 79.6583 391.868 74.4099V100.993C381.087 102.508 373.063 103.636 367.549 104.413V86.5642C370.306 86.1758 372.437 85.8728 373.821 85.6833V49.3427C371.064 49.7311 369.056 50.0151 367.549 50.2235V31.8636C387.226 29.4383 399.854 26.6433 410.541 26.1981ZM402.819 45.5154C402.725 45.3827 402.374 45.4397 402.194 45.4776C398.528 45.3546 393.895 46.5671 391.915 46.6713V56.1631C396.927 55.4621 400.565 54.951 402.943 54.61L402.905 54.6189L403.161 54.5812C403.403 54.5439 403.535 54.5252 403.539 54.5246C403.7 54.3069 404.022 54.3447 404.042 54.3259C404.282 54.1689 404.414 54.1462 404.42 54.1452C404.54 54.007 404.66 53.9854 404.667 53.9843C404.786 53.8466 404.906 53.8247 404.913 53.8234C405.036 53.6813 405.169 53.6626 405.169 53.6626C405.377 53.4257 405.539 53.2267 405.672 53.2077C405.795 53.0657 405.795 52.9327 405.795 52.9327C405.975 52.7244 406.126 52.5535 406.173 52.4967C406.296 52.2222 406.429 52.2127 406.429 52.2127C406.335 50.8962 406.618 50.1478 406.306 49.3238C406.306 48.9641 406.344 48.7274 406.183 48.7081C406.183 48.4581 406.065 48.3523 406.06 48.3476C406.06 48.0995 405.944 48.1104 405.937 48.1113C405.937 47.8616 405.819 47.7557 405.814 47.7508C405.813 47.6278 405.69 47.5146 405.567 47.5333C405.567 47.2864 405.452 47.295 405.444 47.296C405.444 47.0406 405.321 46.9367 405.198 46.9553C405.179 46.7187 404.866 46.5669 404.818 46.5005C404.818 46.3773 404.695 46.3957 404.562 46.4052C404.562 46.1498 404.439 46.1687 404.316 46.1877C404.041 45.951 403.975 45.837 403.691 45.8937C403.691 45.7708 403.568 45.6575 403.445 45.6762C403.36 45.591 402.971 45.5438 402.819 45.5154Z" fill="white"/>
</svg>
