<svg width="723" height="85" viewBox="0 0 723 85" fill="none" xmlns="http://www.w3.org/2000/svg">
<g id="gamemeta">
<g id="GAME DETAILS">
<g id="ICON DIVIDERS" opacity="0.351446">
<rect id="Rectangle" x="170" width="1" height="73" fill="white"/>
<rect id="Rectangle_2" x="361" width="1" height="73" fill="white"/>
<rect id="Rectangle_3" x="552" width="1" height="73" fill="white"/>
</g>
<g id="MD_LBL_PLAYERS INFO">
<g id="PLAYERS - ICON">
<path id="Oval" d="M258.5 8C258.5 11.5899 255.59 14.5 252 14.5C248.41 14.5 245.5 11.5899 245.5 8C245.5 4.41015 248.41 1.5 252 1.5C255.59 1.5 258.5 4.41015 258.5 8Z" stroke="white" stroke-width="3"/>
<path id="Rectangle_4" d="M245 19.5H259C262.038 19.5 264.5 21.9624 264.5 25V36.5H239.5V25C239.5 21.9624 241.962 19.5 245 19.5Z" stroke="white" stroke-width="3"/>
<path id="Oval_2" d="M287.5 8C287.5 11.5899 284.59 14.5 281 14.5C277.41 14.5 274.5 11.5899 274.5 8C274.5 4.41015 277.41 1.5 281 1.5C284.59 1.5 287.5 4.41015 287.5 8Z" stroke="white" stroke-width="3"/>
<path id="Rectangle_5" d="M274 19.5H288C291.038 19.5 293.5 21.9624 293.5 25V36.5H268.5V25C268.5 21.9624 270.962 19.5 274 19.5Z" stroke="white" stroke-width="3"/>
</g>
</g>
<g id="MD_DEVELOPER INFO">
<g id="PROCESSOR - ICON">
<g id="Group 51">
<rect id="Rectangle_6" x="420" y="13" width="8" height="3" rx="1.5" fill="white"/>
<rect id="Rectangle_7" x="420" y="18" width="8" height="3" rx="1.5" fill="white"/>
<rect id="Rectangle_8" x="420" y="23" width="8" height="3" rx="1.5" fill="white"/>
</g>
<g id="Group 52">
<rect id="Rectangle_9" x="448" y="1" width="7" height="3" rx="1.5" transform="rotate(90 448 1)" fill="white"/>
<rect id="Rectangle_10" x="443" y="1" width="7" height="3" rx="1.5" transform="rotate(90 443 1)" fill="white"/>
<rect id="Rectangle_11" x="438" y="1" width="7" height="3" rx="1.5" transform="rotate(90 438 1)" fill="white"/>
<rect id="Rectangle_12" x="463" y="1" width="7" height="3" rx="1.5" transform="rotate(90 463 1)" fill="white"/>
<rect id="Rectangle_13" x="458" y="1" width="7" height="3" rx="1.5" transform="rotate(90 458 1)" fill="white"/>
<rect id="Rectangle_14" x="453" y="1" width="7" height="3" rx="1.5" transform="rotate(90 453 1)" fill="white"/>
<rect id="Rectangle_15" x="478" y="1" width="7" height="3" rx="1.5" transform="rotate(90 478 1)" fill="white"/>
<rect id="Rectangle_16" x="468" y="1" width="7" height="3" rx="1.5" transform="rotate(90 468 1)" fill="white"/>
<rect id="Rectangle_17" x="473" y="1" width="7" height="3" rx="1.5" transform="rotate(90 473 1)" fill="white"/>
</g>
<g id="Group 52_2">
<rect id="Rectangle_18" x="448" y="31" width="7" height="3" rx="1.5" transform="rotate(90 448 31)" fill="white"/>
<rect id="Rectangle_19" x="443" y="31" width="7" height="3" rx="1.5" transform="rotate(90 443 31)" fill="white"/>
<rect id="Rectangle_20" x="438" y="31" width="7" height="3" rx="1.5" transform="rotate(90 438 31)" fill="white"/>
<rect id="Rectangle_21" x="463" y="31" width="7" height="3" rx="1.5" transform="rotate(90 463 31)" fill="white"/>
<rect id="Rectangle_22" x="458" y="31" width="7" height="3" rx="1.5" transform="rotate(90 458 31)" fill="white"/>
<rect id="Rectangle_23" x="453" y="31" width="7" height="3" rx="1.5" transform="rotate(90 453 31)" fill="white"/>
<rect id="Rectangle_24" x="478" y="31" width="7" height="3" rx="1.5" transform="rotate(90 478 31)" fill="white"/>
<rect id="Rectangle_25" x="468" y="31" width="7" height="3" rx="1.5" transform="rotate(90 468 31)" fill="white"/>
<rect id="Rectangle_26" x="473" y="31" width="7" height="3" rx="1.5" transform="rotate(90 473 31)" fill="white"/>
</g>
<g id="Group 51_2">
<rect id="Rectangle_27" x="486" y="13" width="8" height="3" rx="1.5" fill="white"/>
<rect id="Rectangle_28" x="486" y="18" width="8" height="3" rx="1.5" fill="white"/>
<rect id="Rectangle_29" x="486" y="23" width="8" height="3" rx="1.5" fill="white"/>
</g>
<path id="Rectangle (Stroke)" fill-rule="evenodd" clip-rule="evenodd" d="M428 9V30H485V9H428ZM427.556 6C426.144 6 425 7.14416 425 8.55556V30.4444C425 31.8558 426.144 33 427.556 33H485.444C486.856 33 488 31.8558 488 30.4444V8.55556C488 7.14416 486.856 6 485.444 6H427.556Z" fill="white"/>
<path id="Rectangle (Stroke)_2" fill-rule="evenodd" clip-rule="evenodd" d="M480 14H433V25H480V14ZM431 12V27H482V12H431Z" fill="white"/>
</g>
</g>
<g id="RELEASEDATE - INFO">
<g id="RELEASEDATE - ICON">
<rect id="Rectangle_30" x="632" width="10" height="3" rx="1.5" transform="rotate(90 632 0)" fill="white"/>
<rect id="Rectangle_31" x="620" y="11" width="57" height="2" fill="white"/>
<rect id="Rectangle_32" x="668" width="10" height="3" rx="1.5" transform="rotate(90 668 0)" fill="white"/>
<path id="Rectangle (Stroke)_3" fill-rule="evenodd" clip-rule="evenodd" d="M623 6V35H674V6H623ZM622.556 3C621.144 3 620 4.14416 620 5.55556V35.4444C620 36.8558 621.144 38 622.556 38H674.444C675.856 38 677 36.8558 677 35.4444V5.55556C677 4.14416 675.856 3 674.444 3H622.556Z" fill="white"/>
<path id="Oval_3" fill-rule="evenodd" clip-rule="evenodd" d="M634.5 18C635.328 18 636 17.3284 636 16.5C636 15.6716 635.328 15 634.5 15C633.672 15 633 15.6716 633 16.5C633 17.3284 633.672 18 634.5 18Z" fill="white"/>
<path id="Oval_4" fill-rule="evenodd" clip-rule="evenodd" d="M641.5 18C642.328 18 643 17.3284 643 16.5C643 15.6716 642.328 15 641.5 15C640.672 15 640 15.6716 640 16.5C640 17.3284 640.672 18 641.5 18Z" fill="white"/>
<path id="Oval_5" fill-rule="evenodd" clip-rule="evenodd" d="M648.5 18C649.328 18 650 17.3284 650 16.5C650 15.6716 649.328 15 648.5 15C647.672 15 647 15.6716 647 16.5C647 17.3284 647.672 18 648.5 18Z" fill="white"/>
<path id="Oval_6" fill-rule="evenodd" clip-rule="evenodd" d="M655.5 18C656.328 18 657 17.3284 657 16.5C657 15.6716 656.328 15 655.5 15C654.672 15 654 15.6716 654 16.5C654 17.3284 654.672 18 655.5 18Z" fill="white"/>
<path id="Oval_7" fill-rule="evenodd" clip-rule="evenodd" d="M662.5 18C663.328 18 664 17.3284 664 16.5C664 15.6716 663.328 15 662.5 15C661.672 15 661 15.6716 661 16.5C661 17.3284 661.672 18 662.5 18Z" fill="white"/>
<path id="Oval_8" fill-rule="evenodd" clip-rule="evenodd" d="M669.5 18C670.328 18 671 17.3284 671 16.5C671 15.6716 670.328 15 669.5 15C668.672 15 668 15.6716 668 16.5C668 17.3284 668.672 18 669.5 18Z" fill="white"/>
<path id="Oval_9" fill-rule="evenodd" clip-rule="evenodd" d="M627.5 23C628.328 23 629 22.3284 629 21.5C629 20.6716 628.328 20 627.5 20C626.672 20 626 20.6716 626 21.5C626 22.3284 626.672 23 627.5 23Z" fill="white"/>
<path id="Oval_10" fill-rule="evenodd" clip-rule="evenodd" d="M634.5 23C635.328 23 636 22.3284 636 21.5C636 20.6716 635.328 20 634.5 20C633.672 20 633 20.6716 633 21.5C633 22.3284 633.672 23 634.5 23Z" fill="white"/>
<path id="Oval_11" fill-rule="evenodd" clip-rule="evenodd" d="M641.5 23C642.328 23 643 22.3284 643 21.5C643 20.6716 642.328 20 641.5 20C640.672 20 640 20.6716 640 21.5C640 22.3284 640.672 23 641.5 23Z" fill="white"/>
<path id="Oval_12" fill-rule="evenodd" clip-rule="evenodd" d="M648.5 23C649.328 23 650 22.3284 650 21.5C650 20.6716 649.328 20 648.5 20C647.672 20 647 20.6716 647 21.5C647 22.3284 647.672 23 648.5 23Z" fill="white"/>
<path id="Oval_13" fill-rule="evenodd" clip-rule="evenodd" d="M655.5 23C656.328 23 657 22.3284 657 21.5C657 20.6716 656.328 20 655.5 20C654.672 20 654 20.6716 654 21.5C654 22.3284 654.672 23 655.5 23Z" fill="white"/>
<path id="Oval_14" fill-rule="evenodd" clip-rule="evenodd" d="M662.5 23C663.328 23 664 22.3284 664 21.5C664 20.6716 663.328 20 662.5 20C661.672 20 661 20.6716 661 21.5C661 22.3284 661.672 23 662.5 23Z" fill="white"/>
<path id="Oval_15" fill-rule="evenodd" clip-rule="evenodd" d="M669.5 23C670.328 23 671 22.3284 671 21.5C671 20.6716 670.328 20 669.5 20C668.672 20 668 20.6716 668 21.5C668 22.3284 668.672 23 669.5 23Z" fill="white"/>
<path id="Oval_16" fill-rule="evenodd" clip-rule="evenodd" d="M627.5 28C628.328 28 629 27.3284 629 26.5C629 25.6716 628.328 25 627.5 25C626.672 25 626 25.6716 626 26.5C626 27.3284 626.672 28 627.5 28Z" fill="white"/>
<path id="Oval_17" fill-rule="evenodd" clip-rule="evenodd" d="M634.5 28C635.328 28 636 27.3284 636 26.5C636 25.6716 635.328 25 634.5 25C633.672 25 633 25.6716 633 26.5C633 27.3284 633.672 28 634.5 28Z" fill="white"/>
<path id="Oval_18" fill-rule="evenodd" clip-rule="evenodd" d="M641.5 28C642.328 28 643 27.3284 643 26.5C643 25.6716 642.328 25 641.5 25C640.672 25 640 25.6716 640 26.5C640 27.3284 640.672 28 641.5 28Z" fill="white"/>
<path id="Oval_19" fill-rule="evenodd" clip-rule="evenodd" d="M648.5 28C649.328 28 650 27.3284 650 26.5C650 25.6716 649.328 25 648.5 25C647.672 25 647 25.6716 647 26.5C647 27.3284 647.672 28 648.5 28Z" fill="white"/>
<path id="Oval_20" fill-rule="evenodd" clip-rule="evenodd" d="M655.5 28C656.328 28 657 27.3284 657 26.5C657 25.6716 656.328 25 655.5 25C654.672 25 654 25.6716 654 26.5C654 27.3284 654.672 28 655.5 28Z" fill="white"/>
<path id="Oval_21" fill-rule="evenodd" clip-rule="evenodd" d="M662.5 28C663.328 28 664 27.3284 664 26.5C664 25.6716 663.328 25 662.5 25C661.672 25 661 25.6716 661 26.5C661 27.3284 661.672 28 662.5 28Z" fill="white"/>
<path id="Oval_22" fill-rule="evenodd" clip-rule="evenodd" d="M669.5 28C670.328 28 671 27.3284 671 26.5C671 25.6716 670.328 25 669.5 25C668.672 25 668 25.6716 668 26.5C668 27.3284 668.672 28 669.5 28Z" fill="white"/>
<path id="Oval_23" fill-rule="evenodd" clip-rule="evenodd" d="M627.5 33C628.328 33 629 32.3284 629 31.5C629 30.6716 628.328 30 627.5 30C626.672 30 626 30.6716 626 31.5C626 32.3284 626.672 33 627.5 33Z" fill="white"/>
<path id="Oval_24" fill-rule="evenodd" clip-rule="evenodd" d="M634.5 33C635.328 33 636 32.3284 636 31.5C636 30.6716 635.328 30 634.5 30C633.672 30 633 30.6716 633 31.5C633 32.3284 633.672 33 634.5 33Z" fill="white"/>
<path id="Oval_25" fill-rule="evenodd" clip-rule="evenodd" d="M641.5 33C642.328 33 643 32.3284 643 31.5C643 30.6716 642.328 30 641.5 30C640.672 30 640 30.6716 640 31.5C640 32.3284 640.672 33 641.5 33Z" fill="white"/>
<path id="Oval_26" fill-rule="evenodd" clip-rule="evenodd" d="M648.5 33C649.328 33 650 32.3284 650 31.5C650 30.6716 649.328 30 648.5 30C647.672 30 647 30.6716 647 31.5C647 32.3284 647.672 33 648.5 33Z" fill="white"/>
<path id="Oval_27" fill-rule="evenodd" clip-rule="evenodd" d="M655.5 33C656.328 33 657 32.3284 657 31.5C657 30.6716 656.328 30 655.5 30C654.672 30 654 30.6716 654 31.5C654 32.3284 654.672 33 655.5 33Z" fill="white"/>
<path id="Oval_28" fill-rule="evenodd" clip-rule="evenodd" d="M662.5 33C663.328 33 664 32.3284 664 31.5C664 30.6716 663.328 30 662.5 30C661.672 30 661 30.6716 661 31.5C661 32.3284 661.672 33 662.5 33Z" fill="white"/>
</g>
</g>
</g>
<g id="Group 198">
<g id="Group 191">
<rect id="Rectangle 187" x="68.1846" y="16.1047" width="2.94018" height="1.90247" rx="0.345904" fill="white"/>
<path id="Polygon 29" d="M83.5659 16.7223C83.903 16.8165 83.903 17.2944 83.5659 17.3886L81.1763 18.0562C80.9558 18.1178 80.7373 17.952 80.7373 17.723L80.7373 16.3879C80.7373 16.1589 80.9558 15.9931 81.1763 16.0547L83.5659 16.7223Z" fill="white"/>
</g>
<circle id="Ellipse 91" cx="76.0015" cy="22.4688" r="2.03125" fill="white"/>
<g id="Group 192">
<circle id="Ellipse 84" cx="90.5292" cy="17.3592" r="2.42133" transform="rotate(-90 90.5292 17.3592)" fill="white"/>
<circle id="Ellipse 85" cx="101.425" cy="17.3592" r="2.42133" transform="rotate(-90 101.425 17.3592)" fill="white"/>
<circle id="Ellipse 86" cx="95.9775" cy="12.4301" r="2.42133" fill="white"/>
<circle id="Ellipse 87" cx="95.9775" cy="22.1154" r="2.42133" fill="white"/>
</g>
<path id="Rectangle 196" d="M58.0071 15.6656C58.1035 15.574 58.2314 15.5229 58.3644 15.5229H60.2327C60.4237 15.5229 60.5786 15.6778 60.5786 15.8689V18.4631C60.5786 18.6542 60.4237 18.809 60.2327 18.809H58.3644C58.2314 18.809 58.1035 18.758 58.0071 18.6664L56.9557 17.6676C56.6686 17.3948 56.6686 16.9372 56.9557 16.6644L58.0071 15.6656Z" fill="white"/>
<path id="Rectangle 197" d="M52.7722 15.6656C52.6758 15.574 52.5479 15.5229 52.4149 15.5229H50.5466C50.3556 15.5229 50.2007 15.6778 50.2007 15.8689V18.4631C50.2007 18.6542 50.3556 18.809 50.5466 18.809H52.4149C52.5479 18.809 52.6758 18.758 52.7722 18.6664L53.8236 17.6676C54.1107 17.3948 54.1107 16.9372 53.8236 16.6644L52.7722 15.6656Z" fill="white"/>
<path id="Rectangle 198" d="M56.8036 19.6965C56.8952 19.7929 56.9463 19.9209 56.9463 20.0539L56.9463 21.9221C56.9463 22.1132 56.7914 22.268 56.6004 22.268L54.0061 22.268C53.8151 22.268 53.6602 22.1132 53.6602 21.9221L53.6602 20.0539C53.6602 19.9209 53.7113 19.7929 53.8029 19.6965L54.8017 18.6451C55.0744 18.358 55.5321 18.358 55.8048 18.6451L56.8036 19.6965Z" fill="white"/>
<path id="Rectangle 199" d="M56.8036 14.4624C56.8952 14.366 56.9463 14.2381 56.9463 14.1051L56.9463 12.2368C56.9463 12.0458 56.7914 11.8909 56.6004 11.8909L54.0061 11.8909C53.8151 11.8909 53.6602 12.0458 53.6602 12.2368L53.6602 14.1051C53.6602 14.2381 53.7113 14.366 53.8029 14.4624L54.8017 15.5138C55.0744 15.8009 55.5321 15.8009 55.8048 15.5138L56.8036 14.4624Z" fill="white"/>
<path id="Line 45" d="M62.4375 9.89038H88.875" stroke="white" stroke-width="2"/>
<path id="Line 46" d="M71.4688 31.1614L79.5 31.1614" stroke="white" stroke-width="2"/>
<g id="Group 193">
<path id="Rectangle 180" d="M51.251 1.98834C51.3705 1.6606 51.6345 1.40726 51.9754 1.33293C52.5837 1.20027 53.6876 1.01831 55.1661 1.01831C56.6446 1.01831 57.7485 1.20027 58.3568 1.33293C58.6977 1.40726 58.9617 1.6606 59.0812 1.98834L59.6901 3.65732H50.6421L51.251 1.98834Z" fill="white"/>
<path id="Rectangle 181" d="M61.5666 9.07801L61.1755 6.88019C60.9176 5.43073 60.1282 4.16796 58.9001 3.77838C57.9745 3.48476 56.7306 3.2251 55.2259 3.2251C53.7213 3.2251 52.4773 3.48476 51.5517 3.77838C50.3236 4.16796 49.5343 5.43073 49.2763 6.88019L48.8853 9.07801" stroke="white" stroke-width="2"/>
<path id="Rectangle 182 (Stroke)" d="M60.0509 31.8762L55.3679 39.099C54.5239 40.4008 53.284 41.3969 51.831 41.9406C46.6055 43.896 41.2256 39.4537 42.1571 33.9526L45.0676 16.3562" stroke="white" stroke-width="2"/>
<circle id="Ellipse 88" cx="65.4791" cy="29.7245" r="4.06311" fill="white"/>
<path id="Vector" d="M60.1011 26.5963L60.9671 27.0962L59.6392 25.7093L60.1011 26.5963ZM63.4484 23.8238L62.6633 23.2044L63.7771 24.7682L63.4484 23.8238ZM55.3397 26.7575C50.1907 26.7575 46.0166 22.5834 46.0166 17.4344H44.0166C44.0166 23.688 49.0861 28.7575 55.3397 28.7575V26.7575ZM46.0166 17.4344C46.0166 12.2854 50.1907 8.11133 55.3397 8.11133V6.11133C49.0861 6.11133 44.0166 11.1808 44.0166 17.4344H46.0166ZM55.3397 8.11133C60.4887 8.11133 64.6628 12.2854 64.6628 17.4344H66.6628C66.6628 11.1808 61.5933 6.11133 55.3397 6.11133V8.11133ZM70.7184 29.703C70.7184 32.5879 68.3797 34.9265 65.4949 34.9265V36.9265C69.4843 36.9265 72.7184 33.6924 72.7184 29.703H70.7184ZM65.4949 34.9265C62.61 34.9265 60.2714 32.5879 60.2714 29.703H58.2714C58.2714 33.6924 61.5054 36.9265 65.4949 36.9265V34.9265ZM65.4949 24.4795C68.3797 24.4795 70.7184 26.8181 70.7184 29.703H72.7184C72.7184 25.7136 69.4843 22.4795 65.4949 22.4795V24.4795ZM60.2714 29.703C60.2714 28.7516 60.5248 27.8625 60.9671 27.0962L59.235 26.0963C58.6219 27.1585 58.2714 28.3914 58.2714 29.703H60.2714ZM59.6392 25.7093C58.3538 26.3787 56.8924 26.7575 55.3397 26.7575V28.7575C57.2216 28.7575 58.9991 28.2976 60.5629 27.4832L59.6392 25.7093ZM64.6628 17.4344C64.6628 19.6143 63.9159 21.6169 62.6633 23.2044L64.2334 24.4432C65.7545 22.5156 66.6628 20.0797 66.6628 17.4344H64.6628ZM63.7771 24.7682C64.3138 24.5814 64.8914 24.4795 65.4949 24.4795V22.4795C64.6645 22.4795 63.8648 22.62 63.1197 22.8794L63.7771 24.7682Z" fill="white"/>
</g>
<g id="Group 194">
<path id="Rectangle 180_2" d="M100.015 1.98834C99.8951 1.6606 99.6311 1.40726 99.2902 1.33293C98.6819 1.20027 97.578 1.01831 96.0995 1.01831C94.6211 1.01831 93.5172 1.20027 92.9088 1.33293C92.5679 1.40726 92.3039 1.6606 92.1844 1.98834L91.5755 3.65732H100.624L100.015 1.98834Z" fill="white"/>
<path id="Rectangle 181_2" d="M89.6991 9.07801L90.0901 6.88019C90.3481 5.43073 91.1374 4.16796 92.3655 3.77838C93.2911 3.48476 94.5351 3.2251 96.0397 3.2251C97.5444 3.2251 98.7883 3.48476 99.7139 3.77838C100.942 4.16796 101.731 5.43073 101.989 6.88019L102.38 9.07801" stroke="white" stroke-width="2"/>
<path id="Rectangle 182 (Stroke)_2" d="M91.2147 31.8762L95.8977 39.099C96.7417 40.4008 97.9816 41.3969 99.4346 41.9406C104.66 43.896 110.04 39.4537 109.108 33.9526L106.198 16.3562" stroke="white" stroke-width="2"/>
<circle id="Ellipse 88_2" r="4.06311" transform="matrix(-1 0 0 1 85.7865 29.7245)" fill="white"/>
<path id="Vector_2" d="M91.1646 26.5963L90.2985 27.0962L91.6264 25.7093L91.1646 26.5963ZM87.8173 23.8238L88.6023 23.2044L87.4885 24.7682L87.8173 23.8238ZM95.9259 26.7575C101.075 26.7575 105.249 22.5834 105.249 17.4344H107.249C107.249 23.688 102.18 28.7575 95.9259 28.7575V26.7575ZM105.249 17.4344C105.249 12.2854 101.075 8.11133 95.9259 8.11133V6.11133C102.18 6.11133 107.249 11.1808 107.249 17.4344H105.249ZM95.9259 8.11133C90.7769 8.11133 86.6028 12.2854 86.6028 17.4344H84.6028C84.6028 11.1808 89.6724 6.11133 95.9259 6.11133V8.11133ZM80.5472 29.703C80.5472 32.5879 82.8859 34.9265 85.7707 34.9265V36.9265C81.7813 36.9265 78.5472 33.6924 78.5472 29.703H80.5472ZM85.7707 34.9265C88.6556 34.9265 90.9943 32.5879 90.9943 29.703H92.9943C92.9943 33.6924 89.7602 36.9265 85.7707 36.9265V34.9265ZM85.7707 24.4795C82.8859 24.4795 80.5472 26.8181 80.5472 29.703H78.5472C78.5472 25.7136 81.7813 22.4795 85.7707 22.4795V24.4795ZM90.9943 29.703C90.9943 28.7516 90.7408 27.8625 90.2985 27.0962L92.0306 26.0963C92.6438 27.1585 92.9943 28.3914 92.9943 29.703H90.9943ZM91.6264 25.7093C92.9118 26.3787 94.3732 26.7575 95.9259 26.7575V28.7575C94.044 28.7575 92.2666 28.2976 90.7027 27.4832L91.6264 25.7093ZM86.6028 17.4344C86.6028 19.6143 87.3497 21.6169 88.6023 23.2044L87.0322 24.4432C85.5112 22.5156 84.6028 20.0797 84.6028 17.4344H86.6028ZM87.4885 24.7682C86.9519 24.5814 86.3743 24.4795 85.7707 24.4795V22.4795C86.6011 22.4795 87.4008 22.62 88.146 22.8794L87.4885 24.7682Z" fill="white"/>
</g>
</g>
</g>
</svg>
