<svg width="120" height="81" viewBox="0 0 120 81" fill="none" xmlns="http://www.w3.org/2000/svg">
<path d="M59.3833 21.7192C59.3833 21.5282 59.5382 21.3733 59.7292 21.3733H61.9776C62.1686 21.3733 62.3235 21.5282 62.3235 21.7192V22.9299C62.3235 23.1209 62.1686 23.2758 61.9776 23.2758H59.7292C59.5382 23.2758 59.3833 23.1209 59.3833 22.9299V21.7192Z" fill="white"/>
<path d="M53.0364 15.9323C53.0364 15.7413 53.1912 15.5864 53.3823 15.5864H55.6307C55.8217 15.5864 55.9766 15.7413 55.9766 15.9323V17.143C55.9766 17.334 55.8217 17.4889 55.6307 17.4889H53.3823C53.1912 17.4889 53.0364 17.334 53.0364 17.143V15.9323Z" fill="white"/>
<path d="M68.4177 16.204C68.7548 16.2981 68.7548 16.7761 68.4177 16.8703L66.0281 17.5378C65.8076 17.5994 65.5891 17.4337 65.5891 17.2047L65.5891 15.8695C65.5891 15.6406 65.8076 15.4748 66.0281 15.5364L68.4177 16.204Z" fill="white"/>
<path d="M75.3813 14.4196C76.7186 14.4196 77.8026 15.5036 77.8026 16.8409C77.8026 18.1781 76.7186 19.2622 75.3813 19.2622C74.044 19.2622 72.96 18.1781 72.96 16.8409C72.96 15.5036 74.044 14.4196 75.3813 14.4196Z" fill="white"/>
<path d="M86.277 14.4196C87.6143 14.4196 88.6984 15.5036 88.6984 16.8409C88.6984 18.1781 87.6143 19.2622 86.277 19.2622C84.9398 19.2622 83.8557 18.1781 83.8557 16.8409C83.8557 15.5036 84.9398 14.4196 86.277 14.4196Z" fill="white"/>
<path d="M83.2511 11.9118C83.2511 13.2491 82.167 14.3331 80.8298 14.3331C79.4925 14.3331 78.4084 13.2491 78.4084 11.9118C78.4084 10.5745 79.4925 9.49048 80.8298 9.49048C82.167 9.49048 83.2511 10.5745 83.2511 11.9118Z" fill="white"/>
<path d="M83.2511 21.5971C83.2511 22.9344 82.167 24.0184 80.8298 24.0184C79.4925 24.0184 78.4084 22.9344 78.4084 21.5971C78.4084 20.2598 79.4925 19.1758 80.8298 19.1758C82.167 19.1758 83.2511 20.2598 83.2511 21.5971Z" fill="white"/>
<path d="M42.8587 15.1473C42.9552 15.0557 43.0831 15.0046 43.2161 15.0046H45.0844C45.2754 15.0046 45.4303 15.1595 45.4303 15.3505V17.9448C45.4303 18.1359 45.2754 18.2907 45.0844 18.2907H43.2161C43.0831 18.2907 42.9552 18.2396 42.8587 18.148L41.8074 17.1492C41.5203 16.8765 41.5203 16.4189 41.8074 16.1461L42.8587 15.1473Z" fill="white"/>
<path d="M37.6242 15.1473C37.5277 15.0557 37.3998 15.0046 37.2668 15.0046H35.3986C35.2075 15.0046 35.0527 15.1595 35.0527 15.3505V17.9448C35.0527 18.1359 35.2075 18.2907 35.3986 18.2907H37.2668C37.3998 18.2907 37.5277 18.2396 37.6242 18.148L38.6755 17.1492C38.9626 16.8765 38.9626 16.4189 38.6755 16.1461L37.6242 15.1473Z" fill="white"/>
<path d="M41.6554 19.1783C41.747 19.2747 41.7981 19.4027 41.7981 19.5357L41.7981 21.4039C41.7981 21.595 41.6432 21.7498 41.4522 21.7498L38.8579 21.7498C38.6669 21.7498 38.512 21.595 38.512 21.4039L38.512 19.5357C38.512 19.4027 38.5631 19.2747 38.6547 19.1783L39.6535 18.1269C39.9262 17.8398 40.3839 17.8398 40.6566 18.1269L41.6554 19.1783Z" fill="white"/>
<path d="M41.6554 13.9442C41.747 13.8478 41.7981 13.7199 41.7981 13.5869L41.7981 11.7186C41.7981 11.5276 41.6432 11.3727 41.4522 11.3727L38.8579 11.3727C38.6669 11.3727 38.512 11.5276 38.512 11.7186L38.512 13.5869C38.512 13.7199 38.5631 13.8478 38.6547 13.9442L39.6535 14.9956C39.9262 15.2827 40.3839 15.2827 40.6566 14.9956L41.6554 13.9442Z" fill="white"/>
<path fill-rule="evenodd" clip-rule="evenodd" d="M73.5706 10.3716H47.4456V8.37158H73.5706V10.3716Z" fill="white"/>
<path fill-rule="evenodd" clip-rule="evenodd" d="M64.3518 31.6431L56.3206 31.6431V29.6431L64.3518 29.6431V31.6431Z" fill="white"/>
<path d="M36.103 1.47003C36.2226 1.14228 36.4866 0.888953 36.8274 0.814622C37.4358 0.681958 38.5397 0.5 40.0182 0.5C41.4966 0.5 42.6005 0.681958 43.2089 0.814622C43.5497 0.888953 43.8137 1.14229 43.9333 1.47003L44.5422 3.13901H35.4941L36.103 1.47003Z" fill="white"/>
<path fill-rule="evenodd" clip-rule="evenodd" d="M40.0776 3.70679C38.6889 3.70679 37.5472 3.94635 36.7058 4.21326C35.9774 4.44433 35.3373 5.27402 35.1126 6.53707L34.7215 8.73489L32.7524 8.38451L33.1435 6.18669C33.4346 4.55082 34.3732 2.85496 36.1011 2.30688C37.1109 1.98655 38.457 1.70679 40.0776 1.70679C41.6982 1.70679 43.0444 1.98655 44.0542 2.30688C45.782 2.85496 46.7207 4.55082 47.0117 6.18669L47.4028 8.38451L45.4338 8.73489L45.0427 6.53707C44.8179 5.27402 44.1779 4.44433 43.4495 4.21326C42.6081 3.94635 41.4664 3.70679 40.0776 3.70679Z" fill="white"/>
<path fill-rule="evenodd" clip-rule="evenodd" d="M30.9061 16.0012L27.9956 33.5976L27.995 33.6013C27.1922 38.3425 31.8288 42.1711 36.3325 40.4858C37.5848 40.0173 38.6534 39.1587 39.3808 38.0368L44.0637 30.8139L45.7419 31.902L41.0589 39.1248C40.0983 40.6064 38.6871 41.7402 37.0334 42.359C31.0866 44.5843 24.9642 39.5295 26.0228 33.2694C26.0229 33.2687 26.023 33.2681 26.0231 33.2674L28.9329 15.6748L30.9061 16.0012Z" fill="white"/>
<path d="M54.3943 29.2062C54.3943 31.4502 52.5752 33.2693 50.3312 33.2693C48.0872 33.2693 46.2681 31.4502 46.2681 29.2062C46.2681 26.9622 48.0872 25.1431 50.3312 25.1431C52.5752 25.1431 54.3943 26.9622 54.3943 29.2062Z" fill="white"/>
<path fill-rule="evenodd" clip-rule="evenodd" d="M40.1915 7.59302C35.0425 7.59302 30.8684 11.7671 30.8684 16.9161C30.8684 22.0651 35.0425 26.2392 40.1915 26.2392C41.7443 26.2392 43.2056 25.8604 44.491 25.191L45.8189 26.5779C45.3766 27.3442 45.1232 28.2333 45.1232 29.1847C45.1232 32.0696 47.4618 34.4082 50.3467 34.4082C53.2316 34.4082 55.5702 32.0696 55.5702 29.1847C55.5702 26.2998 53.2316 23.9612 50.3467 23.9612C49.7432 23.9612 49.1656 24.0631 48.6289 24.2499L47.5151 22.6861C48.7677 21.0986 49.5146 19.096 49.5146 16.9161C49.5146 11.7671 45.3405 7.59302 40.1915 7.59302ZM28.8684 16.9161C28.8684 10.6625 33.9379 5.59302 40.1915 5.59302C46.4451 5.59302 51.5146 10.6625 51.5146 16.9161C51.5146 18.7281 51.0884 20.4418 50.331 21.9612C50.3363 21.9612 50.3415 21.9612 50.3467 21.9612C54.3361 21.9612 57.5702 25.1953 57.5702 29.1847C57.5702 33.1741 54.3361 36.4082 50.3467 36.4082C46.3573 36.4082 43.1232 33.1741 43.1232 29.1847C43.1232 28.7186 43.1674 28.2625 43.252 27.8205C42.2779 28.0933 41.2513 28.2392 40.1915 28.2392C33.9379 28.2392 28.8684 23.1697 28.8684 16.9161Z" fill="white"/>
<path d="M84.8662 1.47003C84.7467 1.14228 84.4827 0.888953 84.1418 0.814622C83.5334 0.681958 82.4295 0.5 80.9511 0.5C79.4726 0.5 78.3687 0.681958 77.7604 0.814622C77.4195 0.888953 77.1555 1.14229 77.0359 1.47003L76.4271 3.13901H85.4751L84.8662 1.47003Z" fill="white"/>
<path fill-rule="evenodd" clip-rule="evenodd" d="M80.8916 3.70679C82.2803 3.70679 83.422 3.94635 84.2634 4.21326C84.9919 4.44433 85.6319 5.27402 85.8566 6.53707L86.2477 8.73489L88.2168 8.38451L87.8257 6.18669C87.5346 4.55082 86.596 2.85496 84.8682 2.30688C83.8583 1.98655 82.5122 1.70679 80.8916 1.70679C79.271 1.70679 77.9249 1.98655 76.915 2.30688C75.1872 2.85496 74.2486 4.55082 73.9575 6.18669L73.5664 8.38451L75.5355 8.73489L75.9266 6.53707C76.1513 5.27402 76.7913 4.44433 77.5198 4.21326C78.3612 3.94635 79.5029 3.70679 80.8916 3.70679Z" fill="white"/>
<path fill-rule="evenodd" clip-rule="evenodd" d="M90.0632 16.0012L92.9736 33.5976L92.9742 33.6013C93.777 38.3425 89.1404 42.1711 84.6368 40.4858C83.3845 40.0173 82.3159 39.1587 81.5885 38.0368L76.9055 30.8139L75.2274 31.902L79.9103 39.1248C80.8709 40.6064 82.2821 41.7402 83.9358 42.359C89.8827 44.5843 96.0051 39.5295 94.9465 33.2694C94.9464 33.2687 94.9463 33.2681 94.9462 33.2674L92.0363 15.6748L90.0632 16.0012Z" fill="white"/>
<path d="M66.5749 29.2062C66.5749 31.4502 68.3941 33.2693 70.6381 33.2693C72.8821 33.2693 74.7012 31.4502 74.7012 29.2062C74.7012 26.9622 72.8821 25.1431 70.6381 25.1431C68.3941 25.1431 66.5749 26.9622 66.5749 29.2062Z" fill="white"/>
<path fill-rule="evenodd" clip-rule="evenodd" d="M80.7777 7.59302C85.9267 7.59302 90.1008 11.7671 90.1008 16.9161C90.1008 22.0651 85.9267 26.2392 80.7777 26.2392C79.225 26.2392 77.7636 25.8604 76.4782 25.191L75.1503 26.5779C75.5926 27.3442 75.8461 28.2333 75.8461 29.1847C75.8461 32.0696 73.5074 34.4082 70.6226 34.4082C67.7377 34.4082 65.399 32.0696 65.399 29.1847C65.399 26.2998 67.7377 23.9612 70.6226 23.9612C71.2261 23.9612 71.8037 24.0631 72.3403 24.2499L73.4541 22.6861C72.2016 21.0986 71.4547 19.096 71.4547 16.9161C71.4547 11.7671 75.6287 7.59302 80.7777 7.59302ZM92.1008 16.9161C92.1008 10.6625 87.0313 5.59302 80.7777 5.59302C74.5242 5.59302 69.4547 10.6625 69.4547 16.9161C69.4547 18.7281 69.8808 20.4418 70.6382 21.9612C70.633 21.9612 70.6278 21.9612 70.6226 21.9612C66.6331 21.9612 63.399 25.1953 63.399 29.1847C63.399 33.1741 66.6331 36.4082 70.6226 36.4082C74.612 36.4082 77.8461 33.1741 77.8461 29.1847C77.8461 28.7186 77.8018 28.2625 77.7172 27.8205C78.6913 28.0933 79.7179 28.2392 80.7777 28.2392C87.0313 28.2392 92.1008 23.1697 92.1008 16.9161Z" fill="white"/>
</svg>
