<svg width="363" height="103" viewBox="0 0 363 103" fill="none" xmlns="http://www.w3.org/2000/svg">
<path d="M3.27684 91.1716H6.97774C8.10778 91.1716 9.49208 90.616 9.49208 88.7985C9.49208 86.8774 8.3432 86.4066 7.00598 86.4066H3.27684V91.1716ZM0.743652 84.4102H7.10957C11.2719 84.4102 11.997 86.9904 11.997 88.8268C11.997 90.6066 11.2719 93.2433 7.10957 93.2339H3.27684V98.7429H0.743652V84.4102Z" fill="white"/>
<path d="M15.8675 84.4102H13.5415V98.7335H15.8675V84.4102Z" fill="white"/>
<path d="M24.7857 93.5363C24.0794 93.9601 23.0247 93.9601 22.0077 94.139C21.0095 94.2991 20.1149 94.6758 20.1149 95.8812C20.1149 96.9265 21.4427 97.2372 22.2525 97.2372C23.279 97.2372 24.7951 96.7004 24.7951 95.2502V93.5363H24.7857ZM27.1117 96.4462C27.1117 97.0018 27.253 97.2278 27.6673 97.2278C27.7992 97.2278 28.0157 97.2278 28.2512 97.1713V98.7345C27.8933 98.8569 27.1588 99.0076 26.7727 99.0076C25.8404 99.0076 25.1436 98.6686 24.9835 97.7552C24.0606 98.5933 22.6198 99.0076 21.3862 99.0076C19.4933 99.0076 17.77 97.9812 17.77 95.9753C17.77 93.3762 19.8889 92.9525 21.8193 92.717C23.4767 92.3969 24.9364 92.5852 24.9364 91.2762C24.9364 90.0803 23.7027 89.8543 22.8175 89.8543C21.5086 89.8543 20.5951 90.3722 20.501 91.5305H18.1844C18.3256 88.8184 20.6422 88.0273 22.9588 88.0273C24.974 88.0273 27.1117 88.8466 27.1117 91.0785V96.4462Z" fill="white"/>
<path d="M28.1099 88.3281H30.6148L33.3552 96.1066H33.374L36.0013 88.3281H38.4027L34.3816 99.3084C33.6094 101.192 33.0821 102.887 30.6619 102.887C30.1157 102.887 29.5789 102.849 29.0892 102.774V100.825C29.4377 100.872 29.7861 100.975 30.144 100.975C31.2175 100.975 31.4906 100.41 31.7919 99.5062L32.0556 98.6963L28.1099 88.3281Z" fill="white"/>
<path d="M41.2746 93.941C41.2746 96.1634 42.8849 97.058 44.919 97.058C47.1132 97.058 47.9042 95.9656 47.9042 94.845C47.9042 93.7338 47.3203 93.2912 46.7365 93.0934C45.7854 92.6979 44.467 92.4154 42.4611 91.8975C40.0315 91.2383 39.3064 89.7504 39.3064 88.2248C39.3064 85.428 41.915 84.0625 44.5706 84.0625C47.4993 84.0625 50.0513 85.6822 50.0513 88.6109H47.5087C47.3768 86.7275 46.2185 86.0307 44.4764 86.0307C43.2993 86.0307 41.8114 86.4827 41.8114 87.9423C41.8114 88.9405 42.4894 89.5244 43.5159 89.7975C43.7607 89.8634 46.9248 90.6827 47.6217 90.9181C49.5428 91.4737 50.4468 93.0934 50.4468 94.5531C50.4468 97.802 47.584 99.0638 44.7872 99.0638C41.4724 99.0638 38.8168 97.5289 38.7603 93.9316H41.2746V93.941Z" fill="white"/>
<path d="M51.2661 88.3278H53.0271V85.2578H55.3154V88.3278H57.3872V90.0511H55.3154V95.5977C55.3154 96.5394 55.3908 97.0574 56.4078 97.0574C56.7468 97.0574 57.067 97.0574 57.3872 96.9444V98.7148C56.8787 98.743 56.389 98.8372 55.8899 98.8372C53.4791 98.8372 53.0648 97.9143 53.0271 96.2004V90.0511H51.2661V88.3278Z" fill="white"/>
<path d="M65.6368 93.5363C64.9588 93.9601 63.8475 93.9601 62.8493 94.139C61.8417 94.2991 60.9377 94.6758 60.9377 95.8812C60.9377 96.9265 62.2655 97.2372 63.0848 97.2372C64.1112 97.2372 65.6368 96.7004 65.6368 95.2502V93.5363ZM67.9534 96.4462C67.9534 97.0018 68.0758 97.2278 68.4996 97.2278C68.6408 97.2278 68.8292 97.2278 69.074 97.1713V98.7345C68.735 98.8569 67.991 99.0076 67.6238 99.0076C66.6915 99.0076 66.0229 98.6686 65.8345 97.7552C64.9493 98.5933 63.4614 99.0076 62.2278 99.0076C60.3444 99.0076 58.687 97.9812 58.687 95.9753C58.687 93.3762 60.7211 92.9525 62.6704 92.717C64.3561 92.3969 65.7875 92.5852 65.7875 91.2762C65.7875 90.0803 64.5915 89.8543 63.6686 89.8543C62.3597 89.8543 61.4368 90.3722 61.3238 91.5305H59.0825C59.2049 88.8184 61.4839 88.0273 63.791 88.0273C65.8157 88.0273 67.9722 88.8466 67.9722 91.0785V96.4462" fill="white"/>
<path d="M69.3096 88.3278H71.0329V85.2578H73.3401V88.3278H75.4401V90.0511H73.3401V95.5977C73.3401 96.5394 73.4248 97.0574 74.4607 97.0574C74.7903 97.0574 75.1199 97.0574 75.4401 96.9444V98.7148C74.9221 98.743 74.4513 98.8372 73.9239 98.8372C71.4849 98.8372 71.0611 97.9143 71.0329 96.2004V90.0511H69.3096V88.3278Z" fill="white"/>
<path d="M77.3799 88.3276H79.6965V98.7241H77.3799V88.3276ZM77.3799 84.4102H79.6965V86.5196H77.3799V84.4102Z" fill="white"/>
<path d="M89.6501 93.537C89.6501 91.776 88.7649 89.8738 86.7214 89.8738C84.6403 89.8738 83.708 91.776 83.708 93.537C83.708 95.3451 84.6403 97.2379 86.7214 97.2379C88.7649 97.2379 89.6501 95.3451 89.6501 93.537ZM81.4385 93.537C81.4385 90.3635 83.3219 88.0469 86.712 88.0469C90.0268 88.0469 91.9667 90.3635 91.9667 93.537C91.9667 96.7576 90.0268 99.0271 86.712 99.0271C83.3219 99.0271 81.4385 96.7482 81.4385 93.537Z" fill="white"/>
<path d="M93.7091 88.3294H95.8562V89.8738L95.9127 89.902C96.5907 88.7343 97.7867 88.0469 99.171 88.0469C101.271 88.0469 102.693 89.2428 102.693 91.6254V98.7352H100.574V92.1715C100.536 90.5706 99.8867 89.8644 98.5307 89.8644C96.9768 89.8644 95.9692 91.0886 95.9692 92.5765V98.7258H93.6997V88.3294H93.7091Z" fill="white"/>
<path d="M109.878 84.3906H112.505L116.093 95.7099H116.15L119.813 84.3906H122.374L117.487 98.7045H114.662L109.878 84.3906Z" fill="white"/>
<path d="M123.759 84.3906H126.028V86.5095H123.759V84.3906ZM123.759 88.3175H126.028V98.7045H123.759V88.3175Z" fill="white"/>
<path d="M127.488 88.3184H129.23V85.2578H131.509V88.3184H133.609V90.0228H131.509V95.5695C131.509 96.5112 131.584 97.0197 132.63 97.0197C132.969 97.0197 133.27 97.0197 133.609 96.9161V98.6677C133.082 98.7054 132.601 98.7713 132.083 98.7713C129.72 98.7713 129.258 97.8672 129.221 96.1439V90.004H127.488V88.3184Z" fill="white"/>
<path d="M143.949 96.4062C143.949 96.9618 144.09 97.1878 144.495 97.1878C144.636 97.1878 144.834 97.1878 145.06 97.1596V98.7134C144.712 98.8358 143.987 98.9959 143.61 98.9959C142.678 98.9959 142.056 98.6569 141.887 97.734C140.954 98.6004 139.476 98.9959 138.233 98.9959C136.368 98.9959 134.683 97.9694 134.683 95.9636C134.683 93.3645 136.745 92.9219 138.675 92.7241C140.352 92.4134 141.84 92.5829 141.84 91.2645C141.84 90.0685 140.597 89.8331 139.664 89.8331C138.365 89.8331 137.423 90.3699 137.329 91.5093H135.059C135.229 88.8349 137.47 88.0156 139.805 88.0156C141.849 88.0156 143.93 88.8632 143.93 91.0762V96.4062H143.949ZM141.698 93.5058C140.992 93.9389 139.871 93.9295 138.854 94.1179C137.856 94.278 136.98 94.6452 136.98 95.8506C136.98 96.8865 138.289 97.1972 139.109 97.1972C140.116 97.1972 141.698 96.6793 141.698 95.2102V93.5058Z" fill="white"/>
<path d="M352.499 51.8625H350.427V51.1562H355.446V51.8625H353.318V57.541H352.499V51.8625Z" fill="white"/>
<path d="M358.846 57.541L357.103 52.3616V57.541H356.256V51.1562H357.433L359.269 56.571L361.077 51.1562H362.264V57.541H361.416V52.3616L359.684 57.541H358.846Z" fill="white"/>
<path d="M0.743652 40.1098V57.3429C0.743652 57.5784 0.950827 57.7667 1.14858 57.7667H12.2324C12.449 57.7667 12.6374 57.5784 12.6374 57.3429V40.1098C12.6374 35.0999 15.2741 31.5968 18.9844 31.5968H48.2243C57.5472 31.5968 63.3199 25.6169 63.3199 15.8891C63.3199 6.18957 57.5378 0.125 48.2243 0.125H1.16742C0.950827 0.134417 0.743652 0.322758 0.743652 0.558184V6.83935C0.743652 7.06536 0.950827 7.27253 1.16742 7.27253H44.5611C48.8082 7.27253 51.266 10.399 51.266 15.8891C51.266 21.3698 48.8082 24.534 44.5611 24.534H13.4567C6.27145 24.5246 0.743652 31.2012 0.743652 40.1098Z" fill="white"/>
<path d="M103.465 7.27414H125.614C125.859 7.27414 126.066 7.07638 126.066 6.84096V0.559788C126.066 0.305528 125.849 0.117188 125.614 0.117188L99.8111 0.136022C90.4883 0.136022 84.725 6.17234 84.725 15.8813V42.023C84.725 47.5132 82.3425 50.6396 78.039 50.6396H55.2968C55.0614 50.6396 54.873 50.8562 54.873 51.0822V57.3445C54.873 57.58 55.0614 57.7683 55.2968 57.7683H81.7587C91.0156 57.7683 96.7789 51.732 96.7789 42.0324V15.8813C96.7789 10.3818 99.2367 7.27414 103.465 7.27414Z" fill="white"/>
<path d="M210.245 57.3459C210.245 57.5814 210.442 57.7697 210.668 57.7697H221.884C222.11 57.7697 222.289 57.5814 222.289 57.3459V0.589434C222.289 0.325757 222.11 0.15625 221.884 0.15625H210.668C210.442 0.15625 210.245 0.325757 210.245 0.589434V57.3459Z" fill="white"/>
<path d="M175.213 51.4212L202.278 0.625708C202.41 0.371448 202.278 0.117188 202.043 0.117188H195.112C194.876 0.117188 194.622 0.296111 194.499 0.503286L172.624 41.1943C171.051 44.2172 168.339 44.5656 166.7 41.5616L144.693 0.503286C144.599 0.286694 144.297 0.117188 144.062 0.117188H131.791C131.499 0.117188 131.396 0.380865 131.537 0.653959L158.63 51.4212C160.203 54.3311 162.086 56.2428 164.092 57.128C167.294 58.6253 170.797 57.5235 173.594 53.9073C174.168 53.1634 174.695 52.3535 175.213 51.4212Z" fill="white"/>
<path d="M286.532 0.15625H230.566C230.312 0.15625 230.143 0.325757 230.143 0.589434V6.78585C230.143 7.00244 230.312 7.2002 230.566 7.2002H251.858C252.263 7.2002 252.621 7.53921 252.621 7.97239V57.3459C252.621 57.5814 252.809 57.7697 253.045 57.7697H264.025C264.289 57.7697 264.477 57.5814 264.477 57.3459V7.97239C264.477 7.53921 264.807 7.2002 265.24 7.2002H286.522C286.767 7.2002 286.965 6.99302 286.965 6.78585V0.589434C286.974 0.325757 286.777 0.15625 286.532 0.15625Z" fill="white"/>
<path d="M347.102 57.2688L320.057 6.50149C318.503 3.57279 316.572 1.67997 314.585 0.74768C311.355 -0.702544 307.899 0.380415 305.065 3.99656C304.481 4.71226 303.944 5.56921 303.473 6.50149L276.164 57.3159C276.041 57.5607 276.164 57.7961 276.456 57.7961H283.584C283.801 57.7961 284.093 57.636 284.206 57.4194L290.045 46.5428L290.054 46.5145C290.242 46.1472 290.741 45.8365 291.165 45.8365H326.809C327.204 45.8365 327.666 46.1284 327.91 46.4768L327.929 46.5239L333.768 57.41C333.853 57.6172 334.154 57.7867 334.38 57.7867H346.876C347.168 57.7961 347.234 57.523 347.102 57.2688ZM322.91 38.7737H295.054C294.565 38.7737 294.376 38.4347 294.584 38.0297H294.593L306.016 16.7001C307.645 13.7149 310.31 13.3477 311.949 16.3329L323.409 38.1145C323.56 38.4724 323.371 38.7737 322.91 38.7737Z" fill="white"/>
</svg>
