<svg width="120" height="81" viewBox="0 0 120 81" fill="none" xmlns="http://www.w3.org/2000/svg">
<path fill-rule="evenodd" clip-rule="evenodd" d="M34.5 5.75C34.5 5.19772 34.9478 4.75 35.5 4.75H84.5C85.0522 4.75 85.5 5.19772 85.5 5.75V32.75C85.5 33.3023 85.0522 33.75 84.5 33.75H35.5C34.9478 33.75 34.5 33.3023 34.5 32.75V5.75ZM35.5 5.75H84.5V32.75H35.5V5.75Z" fill="white"/>
<path fill-rule="evenodd" clip-rule="evenodd" d="M100.102 17.4947C99.4453 19.2788 98.0288 20.6954 96.2446 21.352C95.8374 22.1801 94.9854 22.75 94 22.75C93.0146 22.75 92.1626 22.1801 91.7554 21.352C89.9712 20.6954 88.5547 19.2788 87.8979 17.4947C87.0698 17.0873 86.5 16.2352 86.5 15.25C86.5 14.2648 87.0698 13.4127 87.8979 13.0053C88.5547 11.2212 89.9712 9.80452 91.7554 9.14799C92.1626 8.31989 93.0146 7.75 94 7.75C94.9854 7.75 95.8374 8.31989 96.2446 9.14799C98.0288 9.80452 99.4453 11.2212 100.102 13.0053C100.93 13.4127 101.5 14.2648 101.5 15.25C101.5 16.2352 100.93 17.0873 100.102 17.4947ZM98.9014 12.7519C97.5664 12.8038 96.5 13.9024 96.5 15.25C96.5 16.5977 97.5664 17.6963 98.9014 17.7481C98.374 18.7804 97.5303 19.6241 96.498 20.1513C96.4463 18.8163 95.3477 17.75 94 17.75C92.6523 17.75 91.5537 18.8163 91.502 20.1513C90.4697 19.6241 89.626 18.7804 89.0986 17.7481C90.4336 17.6963 91.5 16.5977 91.5 15.25C91.5 13.9024 90.4336 12.8038 89.0986 12.7519C89.626 11.7196 90.4697 10.8759 91.502 10.3487C91.5537 11.6837 92.6523 12.75 94 12.75C95.3477 12.75 96.4463 11.6837 96.498 10.3487C97.5303 10.8759 98.374 11.7196 98.9014 12.7519Z" fill="white"/>
<path d="M20.5 15.75C20.5 16.3023 20.9478 16.75 21.5 16.75H23.5L25.5 15.25L23.5 13.75H21.5C20.9478 13.75 20.5 14.1977 20.5 14.75V15.75Z" fill="white"/>
<path d="M30.5 16.75C31.0522 16.75 31.5 16.3023 31.5 15.75V14.75C31.5 14.1977 31.0522 13.75 30.5 13.75H28.5L26.5 15.25L28.5 16.75H30.5Z" fill="white"/>
<path d="M26.5 20.75C27.0522 20.75 27.5 20.3023 27.5 19.75V17.75L26 15.75L24.5 17.75V19.75C24.5 20.3023 24.9478 20.75 25.5 20.75H26.5Z" fill="white"/>
<path d="M27.5 10.75C27.5 10.1977 27.0522 9.75 26.5 9.75H25.5C24.9478 9.75 24.5 10.1977 24.5 10.75V12.75L26 14.75L27.5 12.75V10.75Z" fill="white"/>
<path fill-rule="evenodd" clip-rule="evenodd" d="M26 22.75C30.1421 22.75 33.5 19.3921 33.5 15.25C33.5 11.1079 30.1421 7.75 26 7.75C21.8579 7.75 18.5 11.1079 18.5 15.25C18.5 19.3921 21.8579 22.75 26 22.75ZM32.5 15.25C32.5 18.8399 29.5898 21.75 26 21.75C22.4102 21.75 19.5 18.8399 19.5 15.25C19.5 11.6601 22.4102 8.75 26 8.75C29.5898 8.75 32.5 11.6601 32.5 15.25Z" fill="white"/>
<path fill-rule="evenodd" clip-rule="evenodd" d="M30.5 26.75C30.5 28.4069 29.1567 29.75 27.5 29.75C25.8433 29.75 24.5 28.4069 24.5 26.75C24.5 25.0931 25.8433 23.75 27.5 23.75C29.1567 23.75 30.5 25.0931 30.5 26.75ZM27.5 28.75C28.6045 28.75 29.5 27.8546 29.5 26.75C29.5 25.6454 28.6045 24.75 27.5 24.75C26.3955 24.75 25.5 25.6454 25.5 26.75C25.5 27.8546 26.3955 28.75 27.5 28.75Z" fill="white"/>
<path fill-rule="evenodd" clip-rule="evenodd" d="M95.5 26.75C95.5 28.4069 94.1567 29.75 92.5 29.75C90.8433 29.75 89.5 28.4069 89.5 26.75C89.5 25.0931 90.8433 23.75 92.5 23.75C94.1567 23.75 95.5 25.0931 95.5 26.75ZM92.5 28.75C93.6045 28.75 94.5 27.8546 94.5 26.75C94.5 25.6454 93.6045 24.75 92.5 24.75C91.3955 24.75 90.5 25.6454 90.5 26.75C90.5 27.8546 91.3955 28.75 92.5 28.75Z" fill="white"/>
<path fill-rule="evenodd" clip-rule="evenodd" d="M28.2265 2.35704C28.6758 1.67801 29.4554 0.5 31 0.5H89C90.5446 0.5 91.3242 1.67801 91.7735 2.35705C91.7937 2.38752 91.8132 2.41699 91.832 2.4453C92.0978 2.8439 92.2795 3.10621 92.4815 3.28796C92.6448 3.43498 92.7898 3.5 93 3.5H98.4504C100.143 3.5 101.801 4.35586 102.636 5.92986C104.784 9.97988 106 14.5994 106 19.5C106 19.5252 106 19.5502 106 19.5746C106 19.5938 106 19.6127 105.999 19.6309C105.999 19.6731 105.999 19.7118 105.999 19.75C105.999 19.7723 105.999 19.7947 105.999 19.8179C105.999 19.8345 105.999 19.8515 105.999 19.8691L106 19.8738C106 19.9137 106 19.9566 106 20C106 24.9006 104.784 29.5201 102.636 33.5701C101.801 35.1441 100.143 36 98.4504 36H93C92.7898 36 92.6448 36.065 92.4815 36.212C92.2795 36.3938 92.0978 36.6561 91.832 37.0547C91.8132 37.083 91.7937 37.1125 91.7735 37.143C91.3242 37.822 90.5446 39 89 39H31C29.4554 39 28.6758 37.822 28.2265 37.143C28.2063 37.1125 28.1868 37.083 28.1679 37.0547C27.9022 36.6561 27.7205 36.3938 27.5185 36.212C27.3552 36.065 27.2102 36 27 36H21.5496C19.8566 36 18.1993 35.1441 17.3645 33.5701C15.2162 29.5201 14 24.9006 14 20L14 19.9961L14.001 19.75L14 19.5039L14 19.5C14 14.5994 15.2162 9.97988 17.3645 5.92986C18.1993 4.35586 19.8566 3.5 21.5496 3.5H27C27.2102 3.5 27.3552 3.43498 27.5185 3.28796C27.7205 3.10621 27.9022 2.8439 28.1679 2.4453C28.1868 2.41699 28.2063 2.38752 28.2265 2.35704ZM30.4815 2.71204C30.2795 2.89379 30.0978 3.1561 29.8321 3.5547C29.8132 3.58301 29.7937 3.61248 29.7735 3.64296C29.3242 4.32199 28.5446 5.5 27 5.5H21.5496C20.506 5.5 19.5787 6.02348 19.1313 6.86703C17.1328 10.6348 16.0003 14.9327 16 19.4981C16 19.4987 16 19.4994 16 19.5L16.001 19.7539L16 20C16 20.0006 16 20.0013 16 20.0019C16.0003 24.5673 17.1328 28.8652 19.1313 32.633C19.5787 33.4765 20.506 34 21.5496 34H27C28.5446 34 29.3242 35.178 29.7735 35.857C29.7937 35.8875 29.8132 35.917 29.8321 35.9453C30.0978 36.3439 30.2795 36.6062 30.4815 36.788C30.6448 36.935 30.7898 37 31 37H89C89.2102 37 89.3552 36.935 89.5185 36.788C89.7205 36.6062 89.9022 36.3439 90.168 35.9453C90.1868 35.917 90.2063 35.8875 90.2265 35.857C90.6758 35.178 91.4554 34 93 34H98.4504C99.494 34 100.421 33.4765 100.869 32.633C102.868 28.8646 104 24.5661 104 20C104 19.9617 104 19.9229 104 19.8808C103.999 19.8396 103.999 19.795 103.999 19.75C103.999 19.705 103.999 19.6604 104 19.6192C104 19.5938 104 19.5696 104 19.5461C104 19.5305 104 19.5152 104 19.5C104 14.9339 102.868 10.6354 100.869 6.86703C100.421 6.02348 99.494 5.5 98.4504 5.5H93C91.4554 5.5 90.6758 4.32199 90.2265 3.64295C90.2063 3.61248 90.1868 3.58301 90.168 3.5547C89.9022 3.1561 89.7205 2.89379 89.5185 2.71204C89.3552 2.56502 89.2102 2.5 89 2.5H31C30.7898 2.5 30.6448 2.56502 30.4815 2.71204Z" fill="white"/>
<path fill-rule="evenodd" clip-rule="evenodd" d="M100.757 4.5C100.613 4.16322 100.462 3.82984 100.306 3.5C100.129 3.12835 99.9445 2.76121 99.7523 2.3988C99.111 1.18989 97.8185 0.5 96.4501 0.5H89L92 4.5H100.757ZM91 1.5L92.5 3.5H99.1938C99.0882 3.28755 98.9799 3.07667 98.8689 2.86743C98.4213 2.02364 97.4937 1.5 96.4501 1.5H91Z" fill="white"/>
<path fill-rule="evenodd" clip-rule="evenodd" d="M19 4.5C19.144 4.16322 19.2945 3.82984 19.4512 3.5C19.6278 3.12835 19.8123 2.76121 20.0046 2.3988C20.6459 1.18989 21.9383 0.5 23.3068 0.5H30.7568L27.7568 4.5H19ZM28.7568 1.5L27.2568 3.5H20.563C20.6686 3.28755 20.777 3.07667 20.888 2.86743C21.3356 2.02364 22.2631 1.5 23.3068 1.5H28.7568Z" fill="white"/>
</svg>
