<svg width="363" height="103" viewBox="0 0 363 103" fill="none" xmlns="http://www.w3.org/2000/svg">
<path d="M3.27684 91.1696H6.97774C8.10778 91.1696 9.49208 90.614 9.49208 88.7965C9.49208 86.8755 8.3432 86.4046 7.00598 86.4046H3.27684V91.1696ZM0.743652 84.4082H7.10957C11.2719 84.4082 11.997 86.9885 11.997 88.8248C11.997 90.6046 11.2719 93.2414 7.10957 93.232H3.27684V98.7409H0.743652V84.4082Z" fill="white"/>
<path d="M15.8675 84.4082H13.5415V98.7315H15.8675V84.4082Z" fill="white"/>
<path d="M24.7857 93.5344C24.0794 93.9581 23.0247 93.9581 22.0077 94.1371C21.0095 94.2971 20.1149 94.6738 20.1149 95.8792C20.1149 96.9245 21.4427 97.2353 22.2525 97.2353C23.279 97.2353 24.7951 96.6985 24.7951 95.2483V93.5344H24.7857ZM27.1117 96.4442C27.1117 96.9998 27.253 97.2258 27.6673 97.2258C27.7992 97.2258 28.0157 97.2258 28.2512 97.1693V98.7326C27.8933 98.855 27.1588 99.0057 26.7727 99.0057C25.8404 99.0057 25.1436 98.6667 24.9835 97.7532C24.0606 98.5913 22.6198 99.0057 21.3862 99.0057C19.4933 99.0057 17.77 97.9792 17.77 95.9734C17.77 93.3743 19.8889 92.9505 21.8193 92.7151C23.4767 92.3949 24.9364 92.5832 24.9364 91.2743C24.9364 90.0783 23.7027 89.8523 22.8175 89.8523C21.5086 89.8523 20.5951 90.3702 20.501 91.5285H18.1844C18.3256 88.8164 20.6422 88.0254 22.9588 88.0254C24.974 88.0254 27.1117 88.8447 27.1117 91.0765V96.4442Z" fill="white"/>
<path d="M28.1099 88.3242H30.6148L33.3552 96.1027H33.374L36.0013 88.3242H38.4027L34.3816 99.3045C33.6094 101.188 33.0821 102.883 30.6619 102.883C30.1157 102.883 29.5789 102.845 29.0892 102.77V100.821C29.4377 100.868 29.7861 100.971 30.144 100.971C31.2175 100.971 31.4906 100.406 31.7919 99.5022L32.0556 98.6924L28.1099 88.3242Z" fill="white"/>
<path d="M41.2746 93.939C41.2746 96.1614 42.8849 97.0561 44.919 97.0561C47.1132 97.0561 47.9042 95.9637 47.9042 94.8431C47.9042 93.7318 47.3203 93.2892 46.7365 93.0915C45.7854 92.696 44.467 92.4135 42.4611 91.8955C40.0315 91.2363 39.3064 89.7484 39.3064 88.2229C39.3064 85.426 41.915 84.0605 44.5706 84.0605C47.4993 84.0605 50.0513 85.6803 50.0513 88.609H47.5087C47.3768 86.7256 46.2185 86.0287 44.4764 86.0287C43.2993 86.0287 41.8114 86.4807 41.8114 87.9404C41.8114 88.9386 42.4894 89.5224 43.5159 89.7955C43.7607 89.8614 46.9248 90.6807 47.6217 90.9162C49.5428 91.4718 50.4468 93.0915 50.4468 94.5511C50.4468 97.8 47.584 99.0619 44.7872 99.0619C41.4724 99.0619 38.8168 97.5269 38.7603 93.9296H41.2746V93.939Z" fill="white"/>
<path d="M51.2661 88.3258H53.0271V85.2559H55.3154V88.3258H57.3872V90.0491H55.3154V95.5958C55.3154 96.5375 55.3908 97.0554 56.4078 97.0554C56.7468 97.0554 57.067 97.0554 57.3872 96.9424V98.7128C56.8787 98.7411 56.389 98.8352 55.8899 98.8352C53.4791 98.8352 53.0648 97.9124 53.0271 96.1985V90.0491H51.2661V88.3258Z" fill="white"/>
<path d="M65.6368 93.5344C64.9588 93.9581 63.8475 93.9581 62.8493 94.1371C61.8417 94.2971 60.9377 94.6738 60.9377 95.8792C60.9377 96.9245 62.2655 97.2353 63.0848 97.2353C64.1112 97.2353 65.6368 96.6985 65.6368 95.2483V93.5344ZM67.9534 96.4442C67.9534 96.9998 68.0758 97.2258 68.4996 97.2258C68.6408 97.2258 68.8292 97.2258 69.074 97.1693V98.7326C68.735 98.855 67.991 99.0057 67.6238 99.0057C66.6915 99.0057 66.0229 98.6667 65.8345 97.7532C64.9493 98.5913 63.4614 99.0057 62.2278 99.0057C60.3444 99.0057 58.687 97.9792 58.687 95.9734C58.687 93.3743 60.7211 92.9505 62.6704 92.7151C64.3561 92.3949 65.7875 92.5832 65.7875 91.2743C65.7875 90.0783 64.5915 89.8523 63.6686 89.8523C62.3597 89.8523 61.4368 90.3702 61.3238 91.5285H59.0825C59.2049 88.8164 61.4839 88.0254 63.791 88.0254C65.8157 88.0254 67.9722 88.8447 67.9722 91.0765V96.4442" fill="white"/>
<path d="M69.3096 88.3258H71.0329V85.2559H73.3401V88.3258H75.4401V90.0491H73.3401V95.5958C73.3401 96.5375 73.4248 97.0554 74.4607 97.0554C74.7903 97.0554 75.1199 97.0554 75.4401 96.9424V98.7128C74.9221 98.7411 74.4513 98.8352 73.9239 98.8352C71.4849 98.8352 71.0611 97.9124 71.0329 96.1985V90.0491H69.3096V88.3258Z" fill="white"/>
<path d="M77.3799 88.3257H79.6965V98.7221H77.3799V88.3257ZM77.3799 84.4082H79.6965V86.5176H77.3799V84.4082Z" fill="white"/>
<path d="M89.6501 93.5331C89.6501 91.7721 88.7649 89.8699 86.7214 89.8699C84.6403 89.8699 83.708 91.7721 83.708 93.5331C83.708 95.3412 84.6403 97.234 86.7214 97.234C88.7649 97.234 89.6501 95.3412 89.6501 93.5331ZM81.4385 93.5331C81.4385 90.3596 83.3219 88.043 86.712 88.043C90.0268 88.043 91.9667 90.3596 91.9667 93.5331C91.9667 96.7537 90.0268 99.0232 86.712 99.0232C83.3219 99.0232 81.4385 96.7443 81.4385 93.5331Z" fill="white"/>
<path d="M93.7091 88.3255H95.8562V89.8699L95.9127 89.8981C96.5907 88.7304 97.7867 88.043 99.171 88.043C101.271 88.043 102.693 89.2389 102.693 91.6214V98.7313H100.574V92.1676C100.536 90.5667 99.8867 89.8605 98.5307 89.8605C96.9768 89.8605 95.9692 91.0847 95.9692 92.5726V98.7219H93.6997V88.3255H93.7091Z" fill="white"/>
<path d="M109.878 84.3906H112.505L116.093 95.7099H116.15L119.813 84.3906H122.374L117.487 98.7045H114.662L109.878 84.3906Z" fill="white"/>
<path d="M123.759 84.3906H126.028V86.5095H123.759V84.3906ZM123.759 88.3175H126.028V98.7045H123.759V88.3175Z" fill="white"/>
<path d="M127.488 88.3164H129.23V85.2559H131.509V88.3164H133.609V90.0209H131.509V95.5675C131.509 96.5092 131.584 97.0177 132.63 97.0177C132.969 97.0177 133.27 97.0177 133.609 96.9142V98.6657C133.082 98.7034 132.601 98.7693 132.083 98.7693C129.72 98.7693 129.258 97.8653 129.221 96.142V90.0021H127.488V88.3164Z" fill="white"/>
<path d="M143.949 96.4062C143.949 96.9618 144.09 97.1878 144.495 97.1878C144.636 97.1878 144.834 97.1878 145.06 97.1596V98.7134C144.712 98.8358 143.987 98.9959 143.61 98.9959C142.678 98.9959 142.056 98.6569 141.887 97.734C140.954 98.6004 139.476 98.9959 138.233 98.9959C136.368 98.9959 134.683 97.9694 134.683 95.9636C134.683 93.3645 136.745 92.9219 138.675 92.7241C140.352 92.4134 141.84 92.5829 141.84 91.2645C141.84 90.0685 140.597 89.8331 139.664 89.8331C138.365 89.8331 137.423 90.3699 137.329 91.5093H135.059C135.229 88.8349 137.47 88.0156 139.805 88.0156C141.849 88.0156 143.93 88.8632 143.93 91.0762V96.4062H143.949ZM141.698 93.5058C140.992 93.9389 139.871 93.9295 138.854 94.1179C137.856 94.278 136.98 94.6452 136.98 95.8506C136.98 96.8865 138.289 97.1972 139.109 97.1972C140.116 97.1972 141.698 96.6793 141.698 95.2102V93.5058Z" fill="white"/>
<path d="M352.499 51.8625H350.427V51.1562H355.446V51.8625H353.318V57.541H352.499V51.8625Z" fill="white"/>
<path d="M358.846 57.541L357.103 52.3616V57.541H356.256V51.1562H357.433L359.269 56.571L361.077 51.1562H362.264V57.541H361.416V52.3616L359.684 57.541H358.846Z" fill="white"/>
<path d="M0.743652 40.1117V57.3449C0.743652 57.5803 0.950827 57.7687 1.14858 57.7687H12.2324C12.449 57.7687 12.6374 57.5803 12.6374 57.3449V40.1117C12.6374 35.1018 15.2741 31.5987 18.9844 31.5987H48.2243C57.5472 31.5987 63.3199 25.6189 63.3199 15.8911C63.3199 6.19153 57.5378 0.126953 48.2243 0.126953H1.16742C0.950827 0.13637 0.743652 0.324711 0.743652 0.560137V6.8413C0.743652 7.06731 0.950827 7.27449 1.16742 7.27449H44.5611C48.8082 7.27449 51.266 10.4009 51.266 15.8911C51.266 21.3718 48.8082 24.5359 44.5611 24.5359H13.4567C6.27145 24.5265 0.743652 31.2032 0.743652 40.1117Z" fill="white"/>
<path d="M103.465 7.27414H125.614C125.859 7.27414 126.066 7.07638 126.066 6.84096V0.559788C126.066 0.305528 125.849 0.117188 125.614 0.117188L99.8111 0.136022C90.4883 0.136022 84.725 6.17234 84.725 15.8813V42.023C84.725 47.5132 82.3425 50.6396 78.039 50.6396H55.2968C55.0614 50.6396 54.873 50.8562 54.873 51.0822V57.3445C54.873 57.58 55.0614 57.7683 55.2968 57.7683H81.7587C91.0156 57.7683 96.7789 51.732 96.7789 42.0324V15.8813C96.7789 10.3818 99.2367 7.27414 103.465 7.27414Z" fill="white"/>
<path d="M210.245 57.344C210.245 57.5794 210.442 57.7678 210.668 57.7678H221.884C222.11 57.7678 222.289 57.5794 222.289 57.344V0.587481C222.289 0.323804 222.11 0.154297 221.884 0.154297H210.668C210.442 0.154297 210.245 0.323804 210.245 0.587481V57.344Z" fill="white"/>
<path d="M175.213 51.4212L202.278 0.625708C202.41 0.371448 202.278 0.117188 202.043 0.117188H195.112C194.876 0.117188 194.622 0.296111 194.499 0.503286L172.624 41.1943C171.051 44.2172 168.339 44.5656 166.7 41.5616L144.693 0.503286C144.599 0.286694 144.297 0.117188 144.062 0.117188H131.791C131.499 0.117188 131.396 0.380865 131.537 0.653959L158.63 51.4212C160.203 54.3311 162.086 56.2428 164.092 57.128C167.294 58.6253 170.797 57.5235 173.594 53.9073C174.168 53.1634 174.695 52.3535 175.213 51.4212Z" fill="white"/>
<path d="M286.532 0.154297H230.566C230.312 0.154297 230.143 0.323804 230.143 0.587481V6.78389C230.143 7.00049 230.312 7.19824 230.566 7.19824H251.858C252.263 7.19824 252.621 7.53726 252.621 7.97044V57.344C252.621 57.5794 252.809 57.7678 253.045 57.7678H264.025C264.289 57.7678 264.477 57.5794 264.477 57.344V7.97044C264.477 7.53726 264.807 7.19824 265.24 7.19824H286.522C286.767 7.19824 286.965 6.99107 286.965 6.78389V0.587481C286.974 0.323804 286.777 0.154297 286.532 0.154297Z" fill="white"/>
<path d="M347.102 57.2668L320.057 6.49954C318.503 3.57084 316.572 1.67801 314.585 0.745727C311.355 -0.704498 307.899 0.378462 305.065 3.99461C304.481 4.7103 303.944 5.56725 303.473 6.49954L276.164 57.3139C276.041 57.5587 276.164 57.7942 276.456 57.7942H283.584C283.801 57.7942 284.093 57.6341 284.206 57.4175L290.045 46.5408L290.054 46.5126C290.242 46.1453 290.741 45.8345 291.165 45.8345H326.809C327.204 45.8345 327.666 46.1265 327.91 46.4749L327.929 46.522L333.768 57.4081C333.853 57.6152 334.154 57.7848 334.38 57.7848H346.876C347.168 57.7942 347.234 57.5211 347.102 57.2668ZM322.91 38.7717H295.054C294.565 38.7717 294.376 38.4327 294.584 38.0278H294.593L306.016 16.6982C307.645 13.713 310.31 13.3457 311.949 16.3309L323.409 38.1125C323.56 38.4704 323.371 38.7717 322.91 38.7717Z" fill="white"/>
</svg>
