<svg xmlns="http://www.w3.org/2000/svg" width="514" height="258" fill="none" viewBox="0 0 514 258">
  <defs>
    <linearGradient id="mainlogo__paint0_linear_3302_6381" x1="277.562" x2="298" y1="33.395" y2="179.986" class="mainlogo__paint0_linear_3302" gradientUnits="userSpaceOnUse">
      <stop offset=".385" stop-color="#FFE600"/>
      <stop offset=".78" stop-color="#FF2A2A"/>
    </linearGradient>
    <linearGradient id="mainlogo__paint1_linear_3302_6381" x1="277.562" x2="298" y1="33.395" y2="179.986" class="mainlogo__paint1_linear_3302" gradientUnits="userSpaceOnUse">
      <stop offset=".385" stop-color="#FFE600"/>
      <stop offset=".78" stop-color="#FF2A2A"/>
    </linearGradient>
    <linearGradient id="mainlogo__paint2_linear_3302_6381" x1="277.562" x2="298" y1="33.395" y2="179.986" class="mainlogo__paint2_linear_3302" gradientUnits="userSpaceOnUse">
      <stop offset=".385" stop-color="#FFE600"/>
      <stop offset=".78" stop-color="#FF2A2A"/>
    </linearGradient>
    <linearGradient id="mainlogo__paint3_linear_3302_6381" x1="277.562" x2="298" y1="33.395" y2="179.986" class="mainlogo__paint3_linear_3302" gradientUnits="userSpaceOnUse">
      <stop offset=".385" stop-color="#FFE600"/>
      <stop offset=".78" stop-color="#FF2A2A"/>
    </linearGradient>
    <linearGradient id="mainlogo__paint4_linear_3302_6381" x1="285.139" x2="309.91" y1="65.14" y2="230.227" class="mainlogo__paint4_linear_3302" gradientUnits="userSpaceOnUse">
      <stop offset=".119" stop-color="#fff"/>
      <stop offset=".244" stop-color="#fff" stop-opacity="0"/>
    </linearGradient>
    <linearGradient id="mainlogo__paint5_linear_3302_6381" x1="255.41" x2="275.847" y1="36.961" y2="183.552" class="mainlogo__paint5_linear_3302" gradientUnits="userSpaceOnUse">
      <stop offset=".385" stop-color="#FFE600"/>
      <stop offset=".78" stop-color="#FF2A2A"/>
    </linearGradient>
    <linearGradient id="mainlogo__paint6_linear_3302_6381" x1="255.41" x2="275.847" y1="36.961" y2="183.552" class="mainlogo__paint6_linear_3302" gradientUnits="userSpaceOnUse">
      <stop offset=".385" stop-color="#FFE600"/>
      <stop offset=".78" stop-color="#FF2A2A"/>
    </linearGradient>
    <linearGradient id="mainlogo__paint7_linear_3302_6381" x1="255.41" x2="275.847" y1="36.961" y2="183.552" class="mainlogo__paint7_linear_3302" gradientUnits="userSpaceOnUse">
      <stop offset=".385" stop-color="#FFE600"/>
      <stop offset=".78" stop-color="#FF2A2A"/>
    </linearGradient>
    <linearGradient id="mainlogo__paint8_linear_3302_6381" x1="262.987" x2="287.757" y1="68.706" y2="233.793" class="mainlogo__paint8_linear_3302" gradientUnits="userSpaceOnUse">
      <stop offset=".119" stop-color="#fff"/>
      <stop offset=".244" stop-color="#fff" stop-opacity="0"/>
    </linearGradient>
    <linearGradient id="mainlogo__paint9_linear_3302_6381" x1="225.871" x2="246.308" y1="7.59" y2="154.181" class="mainlogo__paint9_linear_3302" gradientUnits="userSpaceOnUse">
      <stop offset=".385" stop-color="#FFE600"/>
      <stop offset=".78" stop-color="#FF2A2A"/>
    </linearGradient>
    <linearGradient id="mainlogo__paint10_linear_3302_6381" x1="225.871" x2="246.308" y1="7.59" y2="154.181" class="mainlogo__paint10_linear_3302" gradientUnits="userSpaceOnUse">
      <stop offset=".385" stop-color="#FFE600"/>
      <stop offset=".78" stop-color="#FF2A2A"/>
    </linearGradient>
    <linearGradient id="mainlogo__paint11_linear_3302_6381" x1="233.448" x2="258.218" y1="39.335" y2="204.422" class="mainlogo__paint11_linear_3302" gradientUnits="userSpaceOnUse">
      <stop offset=".119" stop-color="#fff"/>
      <stop offset=".244" stop-color="#fff" stop-opacity="0"/>
    </linearGradient>
  </defs>
  <g id="mainlogo__mainlogo" class="mainlogo__mainlogo">
    <path id="mainlogo__Union" fill="#7A0D00" fill-rule="evenodd" d="M506.224 23.346v42.243l-.002-.004v.004c0 1.361-.193 1.388-.963 2.08l.001.001c-.385.833-10.216 11.559-10.602 12.197l-.001-.002-.002.002.002.002c-.771.887-1.349 1.163-2.12 1.271l-.002-.002-19.276 2.71v37.377-.002l-17.928 2.521v-.002l-.002.001v.003l-6.614-11.455-11.302 13.192.001.001s-.771.887-1.735 1.022h-.002l.001.001-22.94 3.224c-1.156.162-2.313-.648-2.313-.648l-.003-.003-.002-.003.003.005c-.065-.059-10.22-9.273-11.18-10.108l-.001-.002c-.194-.103-.323-.216-.408-.364l-9.097-15.756.009.014-.006-.012c-.169-.293-.17-.726-.17-1.501V22.901l17.928-2.519 9.097 15.756-.001 58.689 5.554-.78V18.321l.001.002 18.119-2.546.002.003v-.003l6.284 10.885c2.004-1.925 10.504-11.328 11.825-12.847h-.001c.193-.417.578-.86 1.734-1.023l37.013-5.202.002.004V7.59l9.097 15.756Zm-89.63 88.516 11.042-1.552.002-.001-11.044 1.553Zm32.773-79.983 6.155 10.662c0 .584-.193 1.39-.193 1.78v62.387h.002V44.319c0-.39.192-1.195.192-1.779l-6.156-10.665v.004Zm23.892 13.232v3.209l5.746-.808v-3.21l-5.746.809Zm-4.05-16.564 27.918-3.924-27.918 3.924Z" class="mainlogo__Union" clip-rule="evenodd"/>
    <path id="mainlogo__Union (Stroke)" fill="#000" d="M497.272.717a4.491 4.491 0 0 1 .257.011l.125.007.11.011.161.016.056.008a6.866 6.866 0 0 1 .948.186c.056.015.111.032.166.049.028.008.057.015.085.024l.139.046a7.76 7.76 0 0 1 .281.102l.036.013a6.866 6.866 0 0 1 3.445 2.962l9.097 15.756a6.883 6.883 0 0 1 .921 3.439V65.59l-.002.085c.001.72-.005 2.626-1.041 4.514a8.334 8.334 0 0 1-1.568 2.022c-.022.022-.047.041-.069.062-.131.169-.264.338-.39.493-.368.449-.835.995-1.339 1.577a438.372 438.372 0 0 1-3.599 4.075c-1.293 1.45-2.549 2.854-3.522 3.952-.487.55-.878.994-1.151 1.312l-.238.28c-.026.036-.053.07-.08.105l-.07.09a4.908 4.908 0 0 1-.165.199l-.02.026c-.697.802-1.611 1.683-2.83 2.382a9.709 9.709 0 0 1-3.524 1.187c-.026.004-.052.005-.078.008l-13.279 1.866v31.401a6.877 6.877 0 0 1-6.006 6.82l-17.758 2.496a6.877 6.877 0 0 1-6.998-3.356l-1.758-3.043-4.981 5.815-.031.038-.687-.598-.002.003.687.598-.003.003-.015.018a10.467 10.467 0 0 1-.07.078l-.116.127a11.138 11.138 0 0 1-1.323 1.19c-.697.532-2.138 1.5-4.142 1.853a7.4 7.4 0 0 1-.298.049l-22.939 3.225c-2.341.329-4.265-.336-5.211-.733-.543-.229-.99-.466-1.312-.653-.126-.073-.237-.143-.334-.204l-.028-.016-.059-.037a15.489 15.489 0 0 1-.154-.101l-.011-.008a8.664 8.664 0 0 1-.1-.069l-.003-.002v-.001l-.003-.002v.001a7.275 7.275 0 0 1-.678-.541c-.117-.107-8.927-8.096-10.791-9.76a7.686 7.686 0 0 1-2.133-2.368v-.001l-9.097-15.754.001-.001h-.001c-.031-.054-.059-.109-.088-.163l-.007-.012.001-.001-.007-.012-.054-.1-.047-.095a9.203 9.203 0 0 1-.109-.225l-.02-.042a8.368 8.368 0 0 1-.71-2.754c-.053-.611-.047-1.262-.047-1.534V22.902a6.877 6.877 0 0 1 5.92-6.81l17.927-2.519a6.876 6.876 0 0 1 6.912 3.371l1.819 3.15v-1.772a6.877 6.877 0 0 1 5.964-6.815l18.076-2.54.011-.001c.042-.006.085-.01.127-.015l.129-.015.138-.012.124-.01.137-.007.144-.004.066-.002h.103l.055.001.179.003c.015 0 .03.003.046.003.133.006.266.015.398.029l.05.004a6.923 6.923 0 0 1 .924.167l.035.01c.068.017.137.035.205.055l.036.01c.286.085.565.189.837.31.013.005.027.01.04.017.06.027.12.056.18.085l.045.021.149.076.098.053a6.862 6.862 0 0 1 2.658 2.595l1.649 2.856a625.87 625.87 0 0 0 4.947-5.476 8.262 8.262 0 0 1 2.15-2.166c1.392-.963 2.885-1.388 4.182-1.57h.002L496.166.78l.016-.002.093-.01c.056-.008.113-.015.17-.021l.124-.01.155-.011a6.82 6.82 0 0 1 .548-.01Zm-.146 6.879-.003-.005-37.012 5.202c-1.156.163-1.542.606-1.735 1.022l.001.001c-1.32 1.52-9.821 10.922-11.825 12.847l-6.284-10.886v.003l-.001-.003-18.12 2.547-.001-.002v75.726l-5.554.78.001-58.69-9.097-15.755-17.927 2.52v78.451c0 .775 0 1.208.169 1.501l.006.011-.008-.012 9.096 15.755c.086.148.215.261.408.365v.001c.959.833 11.08 10.016 11.181 10.108l-.003-.005.003.003.002.003s1.157.81 2.314.647l22.939-3.223-.001-.001h.002c.964-.136 1.735-1.023 1.735-1.023l-.001-.001 11.303-13.191 6.613 11.455v-.004h.002v.002l17.928-2.52.001.001V83.85l-.001-.002 19.276-2.708.001.002c.771-.109 1.35-.385 2.121-1.272l-.001-.002.001-.002.001.002c.389-.64 10.217-11.364 10.603-12.197l-.001-.001c.77-.691.963-.719.963-2.08v-.004l.001.004V23.347L497.126 7.59v.005ZM427.634 110.31l-11.042 1.552 11.044-1.553-.002.001Zm-43.569-3.568.015.022a.323.323 0 0 0-.018-.028l.003.006Zm71.456-64.202c0 .584-.192 1.39-.192 1.78v62.388h-.002V44.321c0-.389.193-1.195.193-1.779l-6.156-10.662v-.004l6.157 10.665Zm23.482 4.972-5.745.807V45.11l5.745-.807v3.209Z" class="mainlogo__Union mainlogo__(Stroke)"/>
    <path id="mainlogo__Vector" fill="#fff" d="M14.586 257.137a9.233 9.233 0 0 0 3.536-1.302 9.723 9.723 0 0 0 2.828-2.558l-2.107-1.866a7.107 7.107 0 0 1-1.884 1.787 5.66 5.66 0 0 1-2.284.849 4.692 4.692 0 0 1-1.948-.103 4.2 4.2 0 0 1-1.655-.884 4.142 4.142 0 0 1-1.062-1.496 5.004 5.004 0 0 1-.387-2.003 6.037 6.037 0 0 1 .377-2.134 6.134 6.134 0 0 1 1.042-1.802c.451-.536.99-.988 1.585-1.327a5.41 5.41 0 0 1 1.962-.678 4.792 4.792 0 0 1 2.343.229 4.674 4.674 0 0 1 1.93 1.35l2.173-2.536a6.306 6.306 0 0 0-2.838-1.796 7.95 7.95 0 0 0-3.61-.31 9.138 9.138 0 0 0-3.25 1.101 10.062 10.062 0 0 0-2.626 2.117 9.781 9.781 0 0 0-1.752 2.88 9.4 9.4 0 0 0-.643 3.36 8.046 8.046 0 0 0 .633 3.183 6.567 6.567 0 0 0 1.74 2.377 6.853 6.853 0 0 0 2.627 1.378 7.858 7.858 0 0 0 3.27.184Zm42.017-5.882a9.051 9.051 0 0 0 3.237-1.098 9.849 9.849 0 0 0 4.346-5.015 9.234 9.234 0 0 0 .643-3.344 7.884 7.884 0 0 0-.643-3.163 6.716 6.716 0 0 0-1.744-2.402 6.615 6.615 0 0 0-2.602-1.391c-2.07-.567-4.384-.242-6.453.907a9.842 9.842 0 0 0-4.346 5.014 9.248 9.248 0 0 0-.643 3.344 7.89 7.89 0 0 0 .643 3.164 6.712 6.712 0 0 0 1.744 2.401 6.617 6.617 0 0 0 2.602 1.392 7.684 7.684 0 0 0 3.216.191Zm0-3.058a4.438 4.438 0 0 1-1.898-.117 3.97 3.97 0 0 1-1.594-.898 4.283 4.283 0 0 1-1.03-1.522c-.504-1.266-.504-2.745 0-4.152a6.26 6.26 0 0 1 1.03-1.8 5.874 5.874 0 0 1 1.594-1.346 5.214 5.214 0 0 1 1.898-.651 4.51 4.51 0 0 1 1.951.129 3.89 3.89 0 0 1 1.563.884c.443.417.793.93 1.03 1.51.503 1.265.503 2.745 0 4.151a6.209 6.209 0 0 1-1.03 1.812 5.778 5.778 0 0 1-1.563 1.324 5.316 5.316 0 0 1-1.951.676Zm48.735-4.043v-2.943l-8.493 1.194V229.25l-3.213.451v16.096l11.706-1.643Zm40.532-5.697v-2.942l-8.493 1.193v-13.155l-3.214.452v16.096l11.707-1.644Zm40.842-5.739v-2.898l-8.802 1.237v-3.818l5.743-.807v-2.806l-5.743.807v-3.676l8.714-1.224v-2.897l-11.931 1.676v16.096l12.019-1.69Zm35.654-4.782a9.22 9.22 0 0 0 3.537-1.302 9.72 9.72 0 0 0 2.827-2.558l-2.108-1.865a7.116 7.116 0 0 1-1.884 1.788 5.675 5.675 0 0 1-2.284.849 4.688 4.688 0 0 1-1.947-.104 4.186 4.186 0 0 1-1.655-.884 4.113 4.113 0 0 1-1.061-1.495 5.02 5.02 0 0 1-.389-2.003 6.125 6.125 0 0 1 1.419-3.936c.451-.537.99-.988 1.585-1.327a5.376 5.376 0 0 1 1.962-.678 4.788 4.788 0 0 1 2.351.232 4.671 4.671 0 0 1 1.929 1.35l2.173-2.536a6.303 6.303 0 0 0-2.838-1.796 7.944 7.944 0 0 0-3.609-.31 9.158 9.158 0 0 0-3.249 1.1 10.068 10.068 0 0 0-2.628 2.117 9.771 9.771 0 0 0-1.752 2.88 9.393 9.393 0 0 0-.643 3.36 8.041 8.041 0 0 0 .632 3.183 6.576 6.576 0 0 0 1.74 2.377 6.884 6.884 0 0 0 2.628 1.379 7.882 7.882 0 0 0 3.264.179Zm42.528-6.206v-13.155l5.209-.732v-2.944l-13.658 1.919v2.944l5.233-.735v13.153l3.216-.45Zm36.828-5.176v-16.096l-3.214.452v16.096l3.214-.452Zm37.029-4.951a9.032 9.032 0 0 0 3.237-1.099 9.677 9.677 0 0 0 2.603-2.122 9.856 9.856 0 0 0 1.744-2.892 9.24 9.24 0 0 0 .642-3.344 7.894 7.894 0 0 0-.642-3.164 6.598 6.598 0 0 0-4.347-3.792c-2.069-.567-4.382-.242-6.451.907a9.86 9.86 0 0 0-4.346 5.014 9.24 9.24 0 0 0-.643 3.344c0 1.118.219 2.193.643 3.163.406.934.998 1.75 1.744 2.401a6.616 6.616 0 0 0 2.602 1.392 7.693 7.693 0 0 0 3.214.19v.002Zm0-3.058a4.41 4.41 0 0 1-1.939-.13 3.912 3.912 0 0 1-1.552-.885 4.263 4.263 0 0 1-1.032-1.523c-.503-1.265-.503-2.744 0-4.151a6.234 6.234 0 0 1 1.032-1.8 5.78 5.78 0 0 1 1.552-1.322 5.22 5.22 0 0 1 1.939-.675 4.508 4.508 0 0 1 1.951.128 3.91 3.91 0 0 1 1.563.884c.444.418.794.93 1.031 1.511.504 1.265.504 2.744 0 4.151a6.188 6.188 0 0 1-1.031 1.812 5.765 5.765 0 0 1-1.563 1.324 5.298 5.298 0 0 1-1.951.674v.002Zm40.066-2.825v-10.767l7.916 9.655 2.837-.399v-16.096l-3.015.424v10.416l-7.716-9.332-3.061.431v16.095l3.039-.427Z" class="mainlogo__Vector"/>
    <g id="mainlogo__Vector_2" class="mainlogo__Vector">
      <path fill="#fff" fill-rule="evenodd" d="M10.052 90.472c-.154-.715-.095-5.658-.033-6.53.987-.28 1.849-.376 2.718-.472.196-.021.393-.043.592-.067.392-.047.865-.129 1.377-.216 1.7-.293 3.823-.657 4.787-.084 1.753 1.043 1.958 3.555.267 5.255-.92.926-2.001 1.097-3.22 1.24-1.155.134-2.278.295-3.4.455-1.021.146-2.043.293-3.088.42Zm.028-10.33c-.024-.094-.142-5.78-.02-6.525l.012-.065.007-.035.052-.197c.534-.15 4.212-.685 4.644-.621 3.376.497 3.24 5.27.211 6.547-1.093.461-2.542.622-3.786.76-.4.044-.78.087-1.12.136Zm-3.02 14.35-.107.004a55.132 55.132 0 0 0-.403-2.032c-.273-1.638-.245-3.074-.215-4.608.007-.377.014-.761.017-1.155l-.01-11.407c-.01-2.192-.014-3.357 1.558-4.756 1.136-1.011 2.856-1.156 4.354-1.282.355-.03.698-.06 1.018-.099 2.28-.28 3.225-.19 4.71.621 1.295.707 2.392 1.994 2.793 3.995.402 2.006.107 2.758-.268 3.712-.17.436-.358.913-.504 1.571.128.119.388.227.717.364.572.238 1.352.563 2.005 1.18 2.851 2.69 2.293 7.081-.37 10.039-2.02 2.243-4.333 2.493-7.005 2.782l-.006.001-.392.043a62.546 62.546 0 0 0-3.092.446c-1.598.257-3.202.516-4.8.58Zm64.904-30.091c2.637-1.54 5.404-1.471 7.377-.792 2.174.748 3.235 1.88 4.56 4.232 1.19 2.116.541 5.766-.276 7.52-2.332 5.008-7.711 7.646-12.337 6.005-4.417-1.567-6.463-7.07-4.106-11.812 1.093-2.198 2.237-3.666 4.782-5.153Zm-.34-3.734c-.81.558-2.24.833-4.513 3.061-1.257 1.232-2.096 2.477-2.913 3.928-3.457 6.14-1.478 14.35 4.893 17.04 10.365 4.373 22.047-7.49 18.57-17.845-1.545-4.6-5.891-7.52-10.395-7.424-1.26.027-4.326.335-5.641 1.24Zm78.937 1.627c-.431-1.294.841-4.99 1.404-6.033 2.484-4.607 6.564-5.904 9.492-2.234 1.373 1.721 1.863 3.766 2.008 6.406-.641.284-10.719 1.513-12.904 1.861Zm-.187 11.987c.226-.611.118-6.94.114-8.137.388-.155 12.474-1.863 12.854-1.803.22.706.122 3.13.126 4.066.004.918-.136 3.413.078 4.096 4.324-1.071 3.507-4.588 3.667-6.58.104-1.293-.007-2.935 0-4.303.009-1.704.119-2.634-.227-4.497-.984-5.292-4.697-9.91-10.275-8.849-5.906 1.125-9.126 7.206-9.758 11.889-.208 1.544-.244 6.78-.203 8.478.028 1.206-.223 3.235.47 4.25.625.914 1.868 1.793 3.154 1.39ZM30.383 79.082c-.489-2.766 1.757-9.21 6.136-10.238 4.925-1.156 7.159 6.45 6.683 8.334-.8.395-7.907 1.217-9.698 1.506-1.063.171-2.17.185-3.121.398Zm-.159 11.99c.112-2.305.07-5.841 0-8.079.356-.215 12.415-1.932 12.926-1.862.228.767.066 3.083.074 4.03.01 1.028-.1 3.325.088 4.168 3.592-.912 3.866-3.641 3.67-6.63l.022-4.28c.024-4.611-.446-8.264-3.794-11.4-1.67-1.566-3.686-2.343-6.658-1.96-3.256.417-5.551 2.844-6.963 4.727-1.384 1.846-2.47 4.608-2.833 7.176-.373 2.632-.193 5.733-.22 8.44-.014 1.33-.21 3.137.473 4.312a2.954 2.954 0 0 0 3.215 1.358Zm103.708-35.5c2.564-1.636 5.22-.383 6.103 1.455 1.235 2.572-.304 5.308-2.348 6.481-5.544 3.183-9.348-4.366-3.755-7.936Zm-2.71 12.84c.538.058.938.58 1.521 1.094 1.204 1.062 6.212 5.546 6.993 5.894 1.436.64 2.906.02 4.245-1.078-.309-1.03-6.517-5.418-7.05-6.628 6.727-2.29 8.703-9.182 6.034-13.405-3.575-5.656-12.924-3.448-15.135 4.115-.548 1.875-.281 10.72-.294 12.917l-.005 5.41c-.005.475-.132.737.273.75.496.017 1.718-.715 2.039-1.041 2.058-2.087 1.064-4.484 1.379-8.028Zm-5.467 9.348c-.527-4.647-4.62-2.728-7.49-2.571-.646.035-2.989.603-3.296.391l-.099-.145c-.008-.02-.031-.056-.04-.08-.121-.367.012-2.685-.017-3.444-.047-1.193-.012-2.614.011-3.808 1.432-.553 6.421-.664 7.322-1.253-.126-1.841-1.271-2.804-2.498-3.035-1.324-.249-3.984.545-4.756.425-.106-.495-.174-5.246.034-5.751l6.655-.97c1.314-.13 2.218-.532 3.059-1.417.609-.64 1.265-1.812 1.058-2.867l-4.68.605c-.622.09-1.178.248-1.783.319-5.158.605-8.291.286-8.088 6.774.081 2.577-.19 14.954.133 16.257.812 3.276 5.065 2.015 7.922 1.566 1.135-.178 2.132-.235 3.259-.453.995-.192 2.375-.18 3.294-.543Z" clip-rule="evenodd"/>
      <path fill="#fff" fill-rule="evenodd" d="m109.944 55.518-6.582.877c-2.532.355-4.62 1.085-6.808 2.55-10.196 6.82-8.116 21.102 3.215 22.175 2.144.203 4.184-.302 6.461-.533.5-.051 1.062-.15 1.595-.231 1.815-.276 2.587.161 1.882-1.617-1.163-2.93-4.615-1.574-6.742-1.404-4.26.342-7.685-.945-9.03-5.127-1.324-4.117 1.242-8.453 5.09-10.668 4.524-2.604 7.267-.587 9.802-3.207.65-.672 1.231-1.727 1.117-2.815Zm-56.631 11.53c.303 1.201-.188 19.317.167 20.861 4.352-1.23 3.474-4.519 3.562-6.842.079-2.084-.137-14.085.073-14.4.197-.296.9-.28 1.111-.303.87-.097 3.094-.412 3.774-.776 1.538-.822 2.387-2.246 2.34-3.753-.422-.084-15.198 1.989-17.4 2.33-.95.147-1.03.21-.727 1.21.981 3.231 4.756 1.885 7.1 1.673Z" clip-rule="evenodd"/>
    </g>
    <path id="mainlogo__Union_2" fill="#7A0D00" fill-rule="evenodd" d="M389.572 73.482v92.468l-.001-.002-16.771 2.358-9.097-15.756v-15.747l-3.433 9.709-.004-.007.003.006-9.097-15.755-2.854-7.643v48.633h-.003l.001.001-16.771 2.358-5.252-9.097v9.639l-48.965 6.882-9.097-15.756v-54.13c-.171.908-.334 1.799-.489 2.673a207.1 207.1 0 0 0-1.191 7.485l-.001.002-17.771 2.497-.004-.005.004.005-.22-.317v-.001l-.469-.678-.016-.024.015.026-.219-.318-9.094-15.751-.003-.006c.779-3.253 1.774-6.711 2.984-10.375A367.83 367.83 0 0 1 245.65 85.7l-.001-.001c1.47-3.787 2.898-7.35 4.281-10.688l9.097 15.756a491.034 491.034 0 0 0-3.187 7.89l1.079-2.714a454.47 454.47 0 0 1 2.108-5.176L249.93 75.01l13.881-1.95 4.42 7.655v-7.993l9.097 15.756v76.015-76.016l39.868-5.603-39.868 5.604-9.097-15.758 48.965-6.881 5.252 9.096v-9.053l9.097 15.755v75.433l.001-.001V81.635l13.281-1.867-13.282 1.867-9.097-15.756 15.808-2.222.005.01-.004-.01 9.097 15.756 5.11 12.53 12.202-31.994 15.807-2.222.002.002v-.002l9.097 15.755Zm-94.315 29.605.001.002v3.014l15.385-2.161 9.097 15.755h-.003l.002.001v18.685l.001.002-.001.001-24.482 3.44.001.002v2.819l21.94-3.082 5.25 9.093V99.266l-27.191 3.821Zm53.061 11.428 4.417 11.825-4.417-11.827v.002Zm-100.438 8.428.001.001v-.002l-.001-.002v.003Zm.034-.141.001.002v-.003l-.001-.001v.002Z" class="mainlogo__Union" clip-rule="evenodd"/>
    <path id="mainlogo__Union (Stroke)_2" fill="#000" d="m380.604 50.853.088.002.205.01.065.004c.085.006.17.013.254.023.035.003.069.009.104.013.051.007.103.012.154.02l.198.033.027.004c.072.013.144.028.216.044l.027.006a6.302 6.302 0 0 1 .421.105l.134.041.113.035.063.022a6.742 6.742 0 0 1 .792.323l.068.033.157.081.056.03a6.865 6.865 0 0 1 2.455 2.243h-.001c.078.12.156.24.228.364l9.097 15.756a6.883 6.883 0 0 1 .921 3.438v92.468a6.878 6.878 0 0 1-5.297 6.693c-.24.056-.481.097-.721.127l-16.674 2.345a6.876 6.876 0 0 1-6.912-3.371l-9.096-15.756a6.87 6.87 0 0 1-.922-3.438v-.086l-.191-.114-.028-.019a4.751 4.751 0 0 1-.118-.076l-.103-.068a7.246 7.246 0 0 1-.491-.37l-.044-.036a6.735 6.735 0 0 1-.657-.631v20.595a6.844 6.844 0 0 1-1.208 3.891l-.031.044c-.067.096-.137.19-.208.282l-.029.036c-.069.088-.14.174-.214.259l-.048.055a7.08 7.08 0 0 1-.531.537l-.1.087c-.06.052-.12.104-.182.154l-.115.09a7.034 7.034 0 0 1-1.292.792l-.029.013a6.782 6.782 0 0 1-.674.27l-.11.036a7.576 7.576 0 0 1-.257.076c-.036.01-.071.022-.107.031-.121.032-.243.06-.367.085l-.095.018a8.48 8.48 0 0 1-.278.047c-.016.002-.031.006-.046.009l-16.772 2.357a6.849 6.849 0 0 1-2.93-.224 6.848 6.848 0 0 1-2.322.766l-48.965 6.883a6.877 6.877 0 0 1-6.912-3.372l-9.097-15.755a6.873 6.873 0 0 1-.921-3.439v-36.296l-11.619 1.632a6.876 6.876 0 0 1-6.611-2.896l-.22-.318a.022.022 0 0 0-.004-.005l-.423-.613-.048-.066-.22-.318a7.314 7.314 0 0 1-.294-.467l-9.094-15.751a7.07 7.07 0 0 1-.201-.373l-.003-.006a6.88 6.88 0 0 1-.532-4.665c.83-3.468 1.881-7.114 3.143-10.933a373.127 373.127 0 0 1 3.965-11.366l.045-.123a515.57 515.57 0 0 1 4.34-10.832l.187-.414a6.878 6.878 0 0 1 5.207-3.763l13.881-1.95.26-.032a6.86 6.86 0 0 1 2.411.182 6.81 6.81 0 0 1 1.095-.363 6.618 6.618 0 0 1 .496-.1c.053-.01.106-.02.159-.027l48.964-6.88.394-.045a6.876 6.876 0 0 1 3.234.52c.065-.026.131-.048.197-.072l.075-.029c.081-.028.162-.056.243-.082l.026-.008c.265-.082.537-.149.814-.199l.036-.006c.078-.013.155-.029.234-.04l15.717-2.209.045-.005.045-.007.059-.007c.228-.03.456-.049.684-.056l.071-.003h.184a7.173 7.173 0 0 1 .386.013 7.048 7.048 0 0 1 .365.032l.071.008c.083.01.167.023.25.037.063.01.127.023.19.035l.113.022a5.478 5.478 0 0 1 .313.074l.098.026.165.048.111.034.176.06.108.037a7.2 7.2 0 0 1 .25.099c.04.016.078.034.117.051l.137.06.161.078.066.033a6.846 6.846 0 0 1 2.839 2.69l7.823 13.55 6.206-16.27.087-.218a6.876 6.876 0 0 1 5.38-4.141l15.807-2.223.016-.002.085-.01.17-.02c.054-.006.109-.01.164-.014l.086-.006.159-.009.106-.002.153-.003c.05 0 .101 0 .152.002Zm-.132 6.877-.001-.002-15.807 2.222-12.203 31.994-5.11-12.53-9.097-15.756.004.01-.005-.01-15.807 2.222 9.096 15.756 13.283-1.867-13.282 1.868v75.433l-.001.001V81.639l-9.096-15.756v9.053l-5.252-9.095-.001-.001-48.965 6.88 9.097 15.758-9.097-15.755v7.993l-4.42-7.655-13.881 1.95a512.955 512.955 0 0 0-4.28 10.688l.001.001a367.813 367.813 0 0 0-3.893 11.157c-1.21 3.664-2.206 7.122-2.984 10.375l.003.005 9.094 15.752.219.318-.015-.026.016.024.468.677.001.001.22.318 17.77-2.497.001-.002a210.436 210.436 0 0 1 1.192-7.486c.155-.873.317-1.764.488-2.672v54.13l9.097 15.756 48.965-6.883v-9.637l5.252 9.095 16.772-2.357-.001-.002h.002v-48.632l2.854 7.643 9.097 15.755-.003-.006.005.007 3.433-9.708v15.746l9.096 15.756 16.771-2.358.001.002V73.483l-9.097-15.755v.002Zm-58.026 92.929-5.25-9.094-21.941 3.083v-2.819l-.001-.002 24.483-3.439.001-.002-.001-.002v-18.685l-.002-.001h.003l-9.097-15.756-15.386 2.163v-3.015l-.001-.002 27.192-3.82v51.391Zm-79.385-22.534.001.002.055.079.008-.007-.056-.072-.004.004-.003-.004-.004-.006.003.004Zm-.064-.097.002.002a.008.008 0 0 1 .002.004l.005.008.011.017.025.039.016.023-.046-.072c-.005-.007-.009-.015-.015-.022v.001Zm-.651-.938.028.042a4.399 4.399 0 0 1-.019-.029.609.609 0 0 0-.02-.031l-.005-.007.016.025Zm110.386-.748-4.417-11.826v-.002l4.417 11.828Zm-104.854-3.4v.003l-.001-.001v-.004l.001.002Zm7.959-24.285c.356-.902.71-1.791 1.061-2.667l-1.061 2.667Zm1.061-2.667.018-.047.189-.466-.207.513Zm.207-.513c.207-.515.411-1.026.616-1.53-.205.504-.409 1.015-.616 1.53Zm.616-1.53.42-1.033-.42 1.032Z" class="mainlogo__Union mainlogo__(Stroke)"/>
    <path id="mainlogo__Union_3" fill="#7A0D00" fill-rule="evenodd" d="m231.706 94.629.001 17.131.001.001-16.386 2.304v76.114l-.002-.003v.002l-18.12 2.546-9.097-15.755v-59.081l-7.096.997-3.697-6.403v83.038h-.002l.002.002-18.121 2.547-9.096-15.756.001-.001-.001-.001v-20.537l-5.746.809v37.57l-.002-.004v.004l-18.12 2.546-4.687-8.117v8.387l-.002-.004v.003l.001.002-48.965 6.882-6.486-11.233-11.252 12.946s-.578.666-1.542.801h-.001l-36.82 5.174-9.096-15.756v-79.035l.003-.326c.009-.357.045-.8.189-1.258 1.735-1.607 10.024-11.338 11.566-12.918l.007-.04c.069-.213.644-.635 1.728-.788l9.043 15.664h.003l-9.043-15.663 36.82-5.174 5.785 10.018v-11.219l7.831 13.564-7.831-13.566 48.964-6.881h.001l5.918 10.249c2.687-2.961 9.533-10.856 10.719-12.392l8.94 15.484.002-.001-8.938-15.482c.192-.027.578-.471 1.735-.634l9.094 15.753-9.095-15.755 37.398-5.257 3.697 6.402v-6.53l50.699-7.124 9.096 15.754Zm-197.307 83.21v2.822l5.36-.753 7.901 13.686.001-.001-7.901-13.685v-2.823l-5.36.754Zm14.458 14.379.001-.001v-16.409 16.41Zm41.643-2.214v.002l20.61-2.898-20.61 2.896Zm0-58.593v3.015l15.384-2.162.001.001 9.097 15.755v18.689L90.5 170.15v2.82l21.939-3.082.002.002v-.002l4.687 8.117v-50.337L90.5 131.411Zm-28.201 32.105.035.063 1.142 1.977v-3.352l-1.177 1.312Zm-13.442-6.204-9.096-15.755v-2.821l-5.362.753v2.82l5.361-.752 9.097 15.755-14.458 2.032v.002l14.459-2.032v-19.856 19.854ZM90.5 151.46v.002l15.385-2.164L90.5 151.46Zm-65.198-24.184c-3.072 3.501-7.434 8.527-8.639 9.643h.001a4.546 4.546 0 0 0-.19 1.259l-.002.326c0-.389 0-.974.192-1.585 1.205-1.115 5.566-6.141 8.638-9.641v-.002Zm119.045-3.628v3.213l5.747-.808 7.188 12.451-7.189-12.453v-3.211l-5.746.808Zm-22.809-9.075 4.687 8.119c0-.317 0-.891.207-1.333-.207.442-.207 1.014-.207 1.331l-4.687-8.119v.002Zm13.712-3.313c-3.105 3.624-7.572 8.722-8.641 9.818h.001c1.066-1.091 5.534-6.191 8.64-9.816v-.002Z" class="mainlogo__Union" clip-rule="evenodd"/>
    <path id="mainlogo__Union (Stroke)_3" fill="#000" d="M221.911 72.036a6.875 6.875 0 0 1 6.652 3.402l9.096 15.754a6.872 6.872 0 0 1 .921 3.438l.001 17.131h-.001a6.87 6.87 0 0 1-5.917 6.812l-10.467 1.47v70.137a6.875 6.875 0 0 1-3.817 6.158l-.026.013a6.418 6.418 0 0 1-.277.129 6.9 6.9 0 0 1-1.82.512l-18.102 2.544a6.879 6.879 0 0 1-6.911-3.372l-7.058-12.226v11.583l-.001.02a8.811 8.811 0 0 1-.008.324l-.004.055a8.975 8.975 0 0 1-.018.231l-.008.103c-.007.063-.016.125-.024.187a6.542 6.542 0 0 1-.03.202l-.032.182-.033.158a4.674 4.674 0 0 1-.136.528l-.039.123-.028.085-.015.043a6.77 6.77 0 0 1-.214.545l-.048.107a6.272 6.272 0 0 1-.345.65l-.018.031a6.873 6.873 0 0 1-2.874 2.614l-.079.037c-.069.032-.138.064-.209.094l-.069.03c-.193.08-.39.152-.592.214l-.024.008a6.996 6.996 0 0 1-.283.08l-.039.011a6.67 6.67 0 0 1-.624.129l-.059.01a1.557 1.557 0 0 0-.067.011l-18.12 2.546a6.876 6.876 0 0 1-6.913-3.371l-2.01-3.483v2.129a6.88 6.88 0 0 1-.248 1.827l-.018.06a6.876 6.876 0 0 1-2.508 3.63l-.051.037a6.494 6.494 0 0 1-.19.135c-.018.013-.037.024-.056.036a6.548 6.548 0 0 1-.731.424c-.02.01-.04.021-.061.03a4.242 4.242 0 0 1-.193.09l-.077.035-.194.082-.097.038a6.94 6.94 0 0 1-1.526.389l-18.092 2.543a6.874 6.874 0 0 1-2.929-.222l-.114.045c-.038.016-.075.032-.113.046a6.788 6.788 0 0 1-.811.258l-.091.025-.163.034-.084.018a6.83 6.83 0 0 1-.343.059l-.04.008-48.965 6.882a6.877 6.877 0 0 1-6.912-3.372l-1.666-2.884-4.927 5.671-5.19-4.511 5.188 4.513-.002.003-.007.007-.041.047-.06.067-.14.149c-.1.105-.219.224-.356.352a9.72 9.72 0 0 1-1.079.867 9.53 9.53 0 0 1-4.088 1.605l-.04.004-36.78 5.17a6.877 6.877 0 0 1-6.912-3.371l-9.097-15.757a6.876 6.876 0 0 1-.922-3.438v-79.036l.001-.055.002-.326.002-.118c.016-.65.085-1.818.505-3.151l.148-.422a6.872 6.872 0 0 1 1.739-2.556l.155-.156c.11-.112.252-.262.428-.449.351-.376.789-.856 1.296-1.421a454.487 454.487 0 0 0 3.477-3.93c1.98-2.259 4.194-4.805 5.403-6.124a7.465 7.465 0 0 1 1.051-1.152 8.549 8.549 0 0 1 1.719-1.184c1.075-.565 2.265-.922 3.487-1.094l.069-.009 36.753-5.165a6.868 6.868 0 0 1 2.588.129l.091-.07.108-.074a6.522 6.522 0 0 1 .59-.374l.122-.065a6.77 6.77 0 0 1 1.148-.486l.133-.04c.12-.036.24-.069.363-.098l.127-.03a7.064 7.064 0 0 1 .356-.067c.053-.01.106-.02.16-.027l48.964-6.882.402-.044a6.878 6.878 0 0 1 5.429 2.002l.001.001.304.326c.294.336.554.7.778 1.087l1.124 1.947c1.95-2.257 3.648-4.25 4.115-4.855l.272-.331a6.87 6.87 0 0 1 1.799-1.456l.063-.034c.106-.059.214-.115.324-.168l.018-.01.02-.009c.103-.057.22-.123.342-.184.416-.212.916-.43 1.506-.62a11.12 11.12 0 0 1 1.605-.382 6.49 6.49 0 0 1 .273-.047l37.399-5.257a6.868 6.868 0 0 1 2.578.127c.36-.114.733-.201 1.118-.255l50.7-7.124.26-.031ZM171.908 86v6.53l-3.696-6.403-37.399 5.257 9.096 15.756-9.095-15.753c-1.155.163-1.541.605-1.734.633l8.939 15.482-.003.001-8.94-15.484c-1.186 1.536-8.032 9.431-10.719 12.393l-5.918-10.25h-.001l-48.964 6.881 7.832 13.566-7.832-13.564v11.22l-5.785-10.019-36.82 5.174 9.043 15.663h-.003l-9.043-15.664c-1.083.153-1.659.576-1.727.788l-.008.041c-1.543 1.579-9.832 11.311-11.567 12.917a4.553 4.553 0 0 0-.188 1.258l-.003.325v79.036l9.097 15.756 36.82-5.174v.001a2.703 2.703 0 0 0 1.542-.801l11.253-12.946 6.485 11.232 48.965-6.882-.001-.002v-.003l.002.004v-8.387l4.687 8.118 18.121-2.547v-.003l.001.003v-37.57l5.746-.808v20.537h.001l-.001.001 9.097 15.756 18.12-2.547-.001-.002h.001v-83.037l3.697 6.402 7.097-.997v59.081l9.096 15.756 18.12-2.546v-.003l.002.003v-76.113l16.386-2.304-.001-.002-.001-17.13-9.096-15.755-50.7 7.125Zm-132.15 93.91 7.901 13.684v.001l-7.901-13.685-5.36.752v-2.822l5.36-.754v2.824Zm50.74 10.097v-.002l20.61-2.895-20.61 2.897Zm26.628-12.001-4.687-8.117v.003l-.001-.003-21.94 3.082v-2.82l24.481-3.441v-18.688l-9.096-15.755v-.001l-15.385 2.161v-3.014l26.628-3.744v50.337Zm-53.652-12.449-1.142-1.976-.035-.063 1.177-1.312v3.351Zm-14.618-8.241-14.459 2.031v-.002l14.459-2.031v-19.855 19.857Zm41.642-5.853v-.002l15.385-2.161-15.385 2.163Zm-50.74-9.905-5.36.752v-2.819l5.36-.753v2.82Zm-23.266-3.731a7.983 7.983 0 0 0-.022.678l.003-.326c.002-.11.009-.228.02-.352Zm.078-.548Zm0 0 .016-.075-.016.075Zm.016-.075Zm8.714-9.924c-3.072 3.5-7.434 8.525-8.638 9.64 1.204-1.115 5.567-6.142 8.638-9.642v.002Zm124.791-1.227.001.001-5.747.808v-3.212l5.746-.809v3.212Zm-23.868-3.362c0-.198 0-.496.05-.799-.05.304-.05.603-.05.801l-4.687-8.118v-.002l4.687 8.118Zm9.025-11.427c-3.106 3.625-7.574 8.724-8.64 9.816l-.001-.001c1.07-1.096 5.536-6.194 8.641-9.817v.002Z" class="mainlogo__Union mainlogo__(Stroke)"/>
    <g id="mainlogo__Favourites" class="mainlogo__Favourites">
      <path fill="url(#mainlogo__paint0_linear_3302_6381)" d="M56.048 144.111c-.385.444-5.59 6.236-5.59 6.236s5.397 4.887 5.59 5.055c.193.167.578.503.578 1.865v24.528c0 .195 0 1.168-.385 1.417l-11.566 13.306s-.579.665-1.543.801l-36.82 5.174v-79.035c0-.389 0-.973.193-1.584 1.735-1.607 10.024-11.337 11.567-12.917 0-.194.578-.665 1.735-.827l36.82-5.175v39.517c0 .779-.193 1.196-.579 1.639Zm-31.808.188 14.459-2.032v-19.856l-14.458 2.031v19.857Zm0 38.349 14.459-2.032V160.76l-14.458 2.032v19.856Z"/>
      <path fill="url(#mainlogo__paint1_linear_3302_6381)" d="M111.377 94.87v17.132l-31.036 4.361v20.051l24.482-3.44v18.688l-24.482 3.44v19.857l31.036-4.362v17.325l-48.964 6.882v-93.052l48.964-6.881Z"/>
      <path fill="url(#mainlogo__paint2_linear_3302_6381)" d="M167.15 86.838v93.635l-18.12 2.547v-37.571l-14.844 2.086v37.571l-18.121 2.547v-80.009c0-.389 0-1.168.386-1.612 1.542-1.579 10.217-11.558 11.566-13.305.193-.027.579-.47 1.735-.633l37.398-5.256Zm-18.12 19.677-14.844 2.086v20.246l14.844-2.086v-20.246Z"/>
      <path fill="url(#mainlogo__paint3_linear_3302_6381)" d="m170.848 86.707 50.699-7.125v17.13l-16.385 2.304v76.115l-18.121 2.547v-76.116l-16.193 2.276v-17.13Z"/>
      <path stroke="url(#mainlogo__paint4_linear_3302_6381)" stroke-opacity=".86" stroke-width="3" d="M55.126 142.473c0 .265-.033.375-.049.418-.014.038-.043.1-.161.236-.182.21-1.567 1.754-2.924 3.267l-1.83 2.04-.596.662-.166.184-.044.048-.01.013-.004.004-1 1.111 1.11 1.003 1.006-1.111-1.007 1.112h.001l.003.003.012.011.045.041.172.155.614.556 1.876 1.698a1436.47 1436.47 0 0 0 2.87 2.593c.026.074.082.291.082.751v24.528c0 .043 0 .11-.004.194a2.407 2.407 0 0 1-.024.25l-11.54 13.276-.011.01a1.163 1.163 0 0 1-.135.108c-.132.091-.3.173-.488.199l-35.111 4.935v-77.31c0-.28.004-.55.048-.815 1.13-1.139 3.434-3.746 5.627-6.248 2.512-2.865 4.923-5.639 5.657-6.39l.217-.224c.136-.056.35-.123.654-.166l35.11-4.935v37.793Zm54.751-31.776-29.745 4.181-1.291.182v23.08l1.709-.241 22.773-3.201v15.659l-23.191 3.26-1.291.182v22.886l1.709-.241 29.327-4.123v14.296l-45.964 6.461v-90.022l45.964-6.46v14.101Zm55.773 68.471-15.121 2.126v-37.57l-1.708.24-14.843 2.086-1.291.181v37.57l-15.122 2.126v-78.283c0-.201.003-.381.03-.546a.806.806 0 0 1 .028-.123c1.737-1.819 9.481-10.724 11.356-13.05.097-.058.147-.087.223-.126a2.33 2.33 0 0 1 .759-.22l35.689-5.016v90.605ZM38.49 159.274l-14.459 2.033-1.29.181v22.886l1.708-.24 14.458-2.032 1.291-.182v-22.886l-1.709.24Zm181.557-63.866-15.094 2.122-1.292.182v76.114l-15.12 2.126V99.837l-1.709.24-14.484 2.035V88.011l47.699-6.704v14.101ZM38.489 120.925l-14.458 2.032-1.29.182v22.885l1.708-.24 14.458-2.032 1.291-.182v-22.885l-1.709.24Zm110.332-15.896-14.843 2.087-1.291.182v23.274l1.708-.24 14.843-2.086 1.291-.182V104.79l-1.708.239Z"/>
    </g>
    <g id="mainlogo__Favourites_2" class="mainlogo__Favourites">
      <path fill="url(#mainlogo__paint5_linear_3302_6381)" d="M237.727 107.94c.778-3.254 1.772-6.712 2.983-10.375a367.659 367.659 0 0 1 3.892-11.157c1.47-3.787 2.897-7.35 4.28-10.688l13.88-1.951c-.778 3.515-1.6 7.255-2.465 11.219a934.38 934.38 0 0 0-2.205 11.575 215.305 215.305 0 0 0-1.686 10.192l-17.771 2.498-.908-1.313Z"/>
      <path fill="url(#mainlogo__paint6_linear_3302_6381)" d="M316.148 66.548v17.13l-31.036 4.363v20.051l24.482-3.441v18.688l-24.482 3.441v19.856l31.036-4.362v17.325l-48.964 6.882V73.43l48.964-6.882Z"/>
      <path fill="url(#mainlogo__paint7_linear_3302_6381)" d="M379.426 58.434V150.9l-16.771 2.357V96.026l-12.53 35.438-11.952-31.998V156.7l-16.772 2.357V66.588l15.808-2.221 12.916 31.668 13.494-35.38 15.807-2.221Z"/>
      <path stroke="url(#mainlogo__paint8_linear_3302_6381)" stroke-opacity=".86" stroke-width="3" d="m314.648 82.374-29.745 4.182-1.292.181v23.08l1.709-.24 22.774-3.202v15.659l-23.191 3.26-1.292.182v22.885l1.709-.24 29.328-4.122v14.296l-45.964 6.46V74.733l45.964-6.46v14.101Zm63.278 67.223-13.771 1.935V96.025l-2.914-.5-11.156 31.547-10.507-28.13-2.905.525v55.928l-13.772 1.935V67.893l13.36-1.878L348.735 96.6l1.437 3.52 1.354-3.552 13.178-34.552 13.222-1.859v89.439ZM260.832 75.555c-.639 2.893-1.306 5.93-2 9.113l-.004.015-.003.015a933.03 933.03 0 0 0-2.207 11.587 225.381 225.381 0 0 0-1.539 9.141l-15.734 2.212a128.39 128.39 0 0 1 2.79-9.603A363.661 363.661 0 0 1 246 86.95a519.016 519.016 0 0 1 3.942-9.865l10.89-1.53Z"/>
    </g>
    <g id="mainlogo__Favourites_3" class="mainlogo__Favourites">
      <path fill="url(#mainlogo__paint9_linear_3302_6381)" d="M407.498 20.381v75.726l14.651-2.059V18.322l18.121-2.547v78.84c0 .974-.386 1.613-.386 1.613l-11.566 13.5s-.771.887-1.735 1.022l-22.94 3.224c-1.157.163-2.313-.648-2.313-.648s-10.218-9.271-11.181-10.109c-.579-.308-.579-.697-.579-1.865V22.901l17.928-2.52Z"/>
      <path fill="url(#mainlogo__paint10_linear_3302_6381)" d="M497.127 7.59v42.243c0 1.363-.192 1.39-.963 2.082-.386.833-10.217 11.559-10.603 12.197-.771.887-1.349 1.163-2.12 1.271l-19.278 2.71v37.376l-17.928 2.519V28.564c0-.39.193-1.195.193-1.78 1.735-1.606 10.603-11.417 11.952-12.97.193-.416.578-.86 1.735-1.022l37.012-5.202Zm-18.12 19.677-14.844 2.087v20.245l14.844-2.086V27.267Z"/>
      <path stroke="url(#mainlogo__paint11_linear_3302_6381)" stroke-opacity=".86" stroke-width="3" d="M438.77 94.616a2.16 2.16 0 0 1-.112.685c-.013.04-.029.072-.041.1l-11.423 13.332c0 .001 0 .002-.002.003l-.005.006v.001l-.052.052a2.768 2.768 0 0 1-.233.2c-.222.169-.412.253-.528.27l-22.94 3.224c-.194.027-.479-.026-.8-.161a3.044 3.044 0 0 1-.353-.175l-.036-.022a.447.447 0 0 0-.022-.021l-.327-.295-1.17-1.062-3.619-3.279c-2.664-2.413-5.477-4.957-5.974-5.389l-.055-.047v-.011a17.18 17.18 0 0 1-.008-.675V24.204l14.928-2.099v75.728l1.709-.24 14.65-2.06 1.292-.181V19.626L438.77 17.5v77.116Zm56.858-44.783c0 .304-.012.473-.025.571l-.001.002a7.54 7.54 0 0 1-.167.152c-.072.063-.171.148-.274.24l-.229.207-.095.204c-.011.015-.027.04-.052.073-.075.1-.186.24-.333.42-.293.357-.699.835-1.187 1.398a430.644 430.644 0 0 1-3.523 3.988c-1.273 1.429-2.555 2.861-3.539 3.972-.492.555-.915 1.036-1.228 1.4-.157.181-.291.34-.396.468-.046.056-.114.14-.181.231-.301.342-.503.499-.643.58-.13.074-.273.123-.524.159l-19.277 2.71-1.291.18v37.376l-14.928 2.099v-77.7c.001-.005.003-.052.018-.166.016-.121.036-.253.062-.428.022-.144.046-.32.068-.508 2.493-2.493 10.379-11.226 11.629-12.663l.139-.16.09-.194.002-.006c.032-.02.182-.105.58-.16l35.305-4.964v40.519Zm-16.83-24.05-14.844 2.085-1.291.182v23.274l1.709-.24 14.844-2.086 1.291-.182V25.542l-1.709.24Z"/>
    </g>
  </g>
</svg>
