<svg width="120" height="81" viewBox="0 0 120 81" fill="none" xmlns="http://www.w3.org/2000/svg">
<path fill-rule="evenodd" clip-rule="evenodd" d="M75.4986 40.9304L75.5013 40.9304L75.5133 40.9301L75.5639 40.929C75.6092 40.9279 75.6774 40.9263 75.7663 40.9239C75.9442 40.919 76.2049 40.9112 76.5314 40.8993C77.1849 40.8754 78.0993 40.8353 79.14 40.7703C81.2463 40.6389 83.7765 40.4113 85.7091 40.0335C87.5052 39.6824 89.592 39.1129 91.3588 38.5861C92.6557 38.1994 93.565 36.975 93.565 35.528V6.24168C93.565 4.24882 91.9494 2.63329 89.9566 2.63329H32.2275C30.4452 2.63329 29.0356 3.62751 28.5794 5.0498C27.586 8.14673 26.4351 13.001 26.4351 18.8484C26.4351 24.0502 26.6696 29.2491 26.9112 33.2209C27.0832 36.0479 29.4476 38.2464 32.3526 38.2464H44.6379L44.6908 38.249L44.5849 40.3797H32.3526C28.3563 40.3797 25.0245 37.3393 24.7819 33.3504C24.5388 29.354 24.3018 24.1086 24.3018 18.8484C24.3018 12.7268 25.5055 7.64845 26.548 4.39824C27.3302 1.95956 29.6664 0.5 32.2275 0.5H89.9566C93.1276 0.5 95.6983 3.07064 95.6983 6.24168V35.528C95.6983 37.8711 94.2139 39.9609 91.9684 40.6304C90.1779 41.1643 88.0146 41.7565 86.1184 42.1272C81.9682 42.9385 75.54 43.0633 75.54 43.0633L74.3707 43.5644C74.2775 43.6044 74.1783 43.625 74.0769 43.625H68.9915C66.2582 43.625 63.5454 43.191 60.8784 42.5921C52.8591 40.7911 44.5849 40.3797 44.5849 40.3797C44.6908 38.249 44.6906 38.249 44.6908 38.249L44.6919 38.2491L44.6997 38.2495L44.7205 38.2506L44.7973 38.2547C44.8639 38.2584 44.9608 38.2639 45.086 38.2716C45.3365 38.2869 45.7002 38.3106 46.1605 38.3447C47.0808 38.4128 48.389 38.5225 49.9509 38.6893C53.067 39.0221 57.2279 39.5858 61.3458 40.5106C63.9344 41.092 66.4771 41.4917 68.9915 41.4917H73.7915L75.0823 40.9385" fill="white"/>
<path fill-rule="evenodd" clip-rule="evenodd" d="M45.2596 20.0304C44.9319 27.5428 45.73 33.3017 46.1578 35.7468C46.2028 36.004 46.4355 36.2081 46.7477 36.1962L49.8781 36.0764C49.879 36.0763 49.8796 36.0763 49.88 36.0762C49.8803 36.076 49.8809 36.0755 49.8816 36.0747C49.8823 36.0739 49.8826 36.0732 49.8828 36.0729C49.8828 36.0725 49.8828 36.0719 49.8827 36.071C49.7555 34.8892 50.6785 33.8568 51.8672 33.8515L60.9489 33.8113C62.1955 33.8058 63.1665 34.8912 63.0228 36.1295C63.0171 36.1786 63.0575 36.2206 63.1067 36.217L80.3333 34.938C80.6216 34.9166 80.8018 34.7211 80.8272 34.4999C81.0296 32.7358 81.3506 28.7736 81.3506 21.3911C81.3506 14.327 80.8595 10.5185 80.5279 8.75376C80.4552 8.36679 80.1323 8.0506 79.6357 7.99047C76.5132 7.6123 68.9602 6.73351 63.7132 6.41605C58.3023 6.08866 50.4398 6.0615 47.5133 6.06385C47.2481 6.06406 47.0644 6.2223 47.0116 6.42354C46.5243 8.28104 45.579 12.7085 45.2596 20.0304ZM47.5125 5.06385C46.822 5.0644 46.2196 5.50183 46.0444 6.16978C45.5385 8.09809 44.5829 12.5961 44.2606 19.9869C43.9289 27.5891 44.736 33.4225 45.1728 35.9191C45.3084 36.6942 45.9997 37.2255 46.786 37.1954L49.9163 37.0756C50.4982 37.0534 50.9393 36.5428 50.877 35.9639C50.8132 35.3716 51.2758 34.8541 51.8716 34.8515L60.9533 34.8113C61.6002 34.8085 62.104 35.3717 62.0295 36.0143C61.9514 36.687 62.5054 37.2644 63.1807 37.2142L80.4073 35.9352C81.1409 35.8808 81.7368 35.3447 81.8207 34.6139C82.0286 32.8025 82.3506 28.8007 82.3506 21.3911C82.3506 14.2839 81.8568 10.4108 81.5107 8.56909C81.3479 7.70233 80.6315 7.10376 79.756 6.99772C76.6357 6.61983 69.0546 5.73739 63.7736 5.41787C58.3279 5.08838 50.4363 5.06151 47.5125 5.06385Z" fill="white"/>
<path d="M51.4463 36.2413C51.4463 35.7243 51.8654 35.3052 52.3824 35.3052H54.7814C55.2984 35.3052 55.7175 35.7243 55.7175 36.2413V36.2413C55.7175 36.7584 55.2984 37.1775 54.7814 37.1775H52.3824C51.8654 37.1775 51.4463 36.7584 51.4463 36.2413V36.2413Z" fill="white"/>
<path d="M57.1797 36.2413C57.1797 35.7243 57.5988 35.3052 58.1158 35.3052H60.5148C61.0318 35.3052 61.4509 35.7243 61.4509 36.2413V36.2413C61.4509 36.7584 61.0318 37.1775 60.5148 37.1775H58.1158C57.5988 37.1775 57.1797 36.7584 57.1797 36.2413V36.2413Z" fill="white"/>
<path d="M37.1227 9.92857C36.8514 10.1876 36.4245 10.1876 36.1532 9.92857L34.4665 8.31854C34.0961 7.96499 34.102 7.36109 34.3522 6.94036C34.6165 6.496 35.2705 6.02493 35.7656 5.8759C35.979 5.81166 36.2622 5.76904 36.638 5.76904C37.0137 5.76904 37.2969 5.81166 37.5103 5.8759C38.0054 6.02493 38.6594 6.496 38.9237 6.94036C39.174 7.36109 39.1798 7.96499 38.8094 8.31854L37.1227 9.92857Z" fill="white"/>
<path d="M36.1522 12.8383C36.4235 12.5793 36.8504 12.5793 37.1217 12.8383L38.8085 14.4483C39.1788 14.8019 39.173 15.4058 38.9227 15.8265C38.6584 16.2708 38.0044 16.7419 37.5093 16.8909C37.2959 16.9552 37.0127 16.9978 36.637 16.9978C36.2612 16.9978 35.978 16.9552 35.7646 16.8909C35.2695 16.7419 34.6155 16.2708 34.3512 15.8265C34.101 15.4058 34.0951 14.8019 34.4655 14.4483L36.1522 12.8383Z" fill="white"/>
<path d="M35.1825 10.8985C35.4415 11.1698 35.4415 11.5968 35.1825 11.8681L33.5724 13.5548C33.2189 13.9252 32.615 13.9193 32.1943 13.669C31.7499 13.4047 31.2788 12.7507 31.1298 12.2556C31.0656 12.0422 31.0229 11.759 31.0229 11.3833C31.0229 11.0075 31.0656 10.7244 31.1298 10.511C31.2788 10.0159 31.7499 9.36188 32.1943 9.09756C32.615 8.84729 33.2189 8.8414 33.5724 9.21179L35.1825 10.8985Z" fill="white"/>
<path d="M38.0914 11.8681C37.8325 11.5968 37.8325 11.1698 38.0914 10.8985L39.7015 9.21181C40.055 8.84142 40.6589 8.84731 41.0797 9.09758C41.524 9.3619 41.9951 10.0159 42.1441 10.511C42.2084 10.7244 42.251 11.0076 42.251 11.3833C42.251 11.7591 42.2084 12.0422 42.1441 12.2556C41.9951 12.7507 41.524 13.4047 41.0797 13.669C40.6589 13.9193 40.055 13.9252 39.7015 13.5548L38.0914 11.8681Z" fill="white"/>
<path d="M37.1242 27.7181C36.8529 27.9771 36.4259 27.9771 36.1546 27.7181L34.4679 26.1081C34.0975 25.7545 34.1034 25.1506 34.3537 24.7299C34.618 24.2856 35.272 23.8145 35.7671 23.6655C35.9805 23.6012 36.2637 23.5586 36.6394 23.5586C37.0152 23.5586 37.2983 23.6012 37.5117 23.6655C38.0068 23.8145 38.6608 24.2856 38.9251 24.7299C39.1754 25.1506 39.1813 25.7545 38.8109 26.1081L37.1242 27.7181Z" fill="white"/>
<path d="M36.1522 30.6278C36.4235 30.3688 36.8504 30.3688 37.1217 30.6278L38.8085 32.2379C39.1788 32.5914 39.173 33.1953 38.9227 33.616C38.6584 34.0604 38.0044 34.5315 37.5093 34.6805C37.2959 34.7447 37.0127 34.7874 36.637 34.7874C36.2612 34.7874 35.978 34.7447 35.7646 34.6805C35.2695 34.5315 34.6155 34.0604 34.3512 33.616C34.101 33.1953 34.0951 32.5914 34.4655 32.2379L36.1522 30.6278Z" fill="white"/>
<path d="M35.1825 28.6883C35.4415 28.9596 35.4415 29.3866 35.1825 29.6579L33.5724 31.3446C33.2189 31.715 32.615 31.7091 32.1943 31.4588C31.7499 31.1945 31.2788 30.5405 31.1298 30.0454C31.0656 29.832 31.0229 29.5488 31.0229 29.1731C31.0229 28.7973 31.0656 28.5142 31.1298 28.3008C31.2788 27.8057 31.7499 27.1517 32.1943 26.8874C32.615 26.6371 33.2189 26.6312 33.5724 27.0016L35.1825 28.6883Z" fill="white"/>
<path d="M38.0914 29.6579C37.8325 29.3866 37.8325 28.9596 38.0914 28.6883L39.7015 27.0016C40.055 26.6312 40.6589 26.6371 41.0797 26.8874C41.524 27.1517 41.9951 27.8057 42.1441 28.3008C42.2084 28.5142 42.251 28.7974 42.251 29.1731C42.251 29.5489 42.2084 29.832 42.1441 30.0454C41.9951 30.5405 41.524 31.1945 41.0797 31.4588C40.6589 31.7091 40.055 31.715 39.7015 31.3446L38.0914 29.6579Z" fill="white"/>
<path d="M85.3602 31.5028C85.6315 31.2438 86.0584 31.2438 86.3298 31.5028L88.0165 33.1129C88.3868 33.4664 88.381 34.0703 88.1307 34.491C87.8664 34.9354 87.2124 35.4065 86.7173 35.5555C86.5039 35.6197 86.2207 35.6624 85.845 35.6624C85.4692 35.6624 85.186 35.6197 84.9726 35.5555C84.4775 35.4065 83.8235 34.9354 83.5592 34.491C83.309 34.0703 83.3031 33.4664 83.6735 33.1129L85.3602 31.5028Z" fill="white"/>
<path d="M87.2995 30.5329C87.0405 30.2616 87.0405 29.8346 87.2995 29.5633L88.9095 27.8766C89.263 27.5062 89.8669 27.5121 90.2877 27.7624C90.732 28.0267 91.2031 28.6807 91.3521 29.1758C91.4164 29.3892 91.459 29.6724 91.459 30.0481C91.459 30.4239 91.4164 30.707 91.3521 30.9204C91.2031 31.4155 90.732 32.0695 90.2877 32.3338C89.8669 32.5841 89.263 32.59 88.9095 32.2196L87.2995 30.5329Z" fill="white"/>
<path fill-rule="evenodd" clip-rule="evenodd" d="M76.8994 12.1228H49.8306V29.3087H76.8994V12.1228ZM47.8306 10.1228V31.3087H78.8994V10.1228H47.8306Z" fill="white"/>
<path d="M87.792 7.84614C87.792 7.63609 87.9623 7.46582 88.1723 7.46582H93.4382C93.6483 7.46582 93.8185 7.63609 93.8185 7.84614V7.84614C93.8185 8.05618 93.6483 8.22645 93.4382 8.22645H88.1723C87.9623 8.22645 87.792 8.05618 87.792 7.84614V7.84614Z" fill="white"/>
<path d="M87.792 9.16254C87.792 8.9525 87.9623 8.78223 88.1723 8.78223H93.4382C93.6483 8.78223 93.8185 8.9525 93.8185 9.16254V9.16254C93.8185 9.37258 93.6483 9.54286 93.4382 9.54286H88.1723C87.9623 9.54286 87.792 9.37258 87.792 9.16254V9.16254Z" fill="white"/>
<path d="M87.792 13.112C87.792 12.902 87.9623 12.7317 88.1723 12.7317H93.4382C93.6483 12.7317 93.8185 12.902 93.8185 13.112V13.112C93.8185 13.322 93.6483 13.4923 93.4382 13.4923H88.1723C87.9623 13.4923 87.792 13.322 87.792 13.112V13.112Z" fill="white"/>
<path d="M87.792 11.7956C87.792 11.5856 87.9623 11.4153 88.1723 11.4153H93.4382C93.6483 11.4153 93.8185 11.5856 93.8185 11.7956V11.7956C93.8185 12.0056 93.6483 12.1759 93.4382 12.1759H88.1723C87.9623 12.1759 87.792 12.0056 87.792 11.7956V11.7956Z" fill="white"/>
<path d="M87.792 10.4792C87.792 10.2691 87.9623 10.0989 88.1723 10.0989H93.4382C93.6483 10.0989 93.8185 10.2691 93.8185 10.4792V10.4792C93.8185 10.6892 93.6483 10.8595 93.4382 10.8595H88.1723C87.9623 10.8595 87.792 10.6892 87.792 10.4792V10.4792Z" fill="white"/>
</svg>
