<svg width="388" height="118" viewBox="0 0 388 118" fill="none" xmlns="http://www.w3.org/2000/svg">
<g clip-path="url(#clip0)">
<path d="M36.4414 46.56V82.2H43.0942V87.1896H36.4414V102H30.6598V87.1896H-0.861816V82.596L30.2638 46.56H36.4414ZM6.26618 82.2H30.6598V53.9256L6.26618 82.2Z" fill="white"/>
<path d="M69.1497 102V46.56H93.2265C98.6121 46.56 102.942 48.0384 106.215 50.9952C109.489 53.8992 111.126 57.7536 111.126 62.5584C111.126 67.3632 109.463 71.244 106.136 74.2008C102.863 77.1576 98.5593 78.636 93.2265 78.636H75.2481V102H69.1497ZM92.7514 52.0248H75.2481V73.3296H92.7514C96.5001 73.3296 99.4833 72.3792 101.701 70.4784C103.919 68.5248 105.027 65.9112 105.027 62.6376C105.027 59.364 103.919 56.7768 101.701 54.876C99.4833 52.9752 96.5001 52.0248 92.7514 52.0248Z" fill="white"/>
<path d="M125.181 45.2136V102H119.32V46.56L125.181 45.2136Z" fill="white"/>
<path d="M147.689 102.713C143.359 102.713 139.822 101.604 137.076 99.3864C134.383 97.1688 133.037 94.2912 133.037 90.7536C133.037 87.0576 134.463 84.1272 137.314 81.9624C140.165 79.7448 144.019 78.636 148.877 78.636C150.989 78.636 153.022 78.8736 154.975 79.3488C156.982 79.824 158.83 80.484 160.519 81.3288V76.1016C160.519 72.9336 159.622 70.5576 157.827 68.9736C156.031 67.3368 153.418 66.5184 149.986 66.5184C148.032 66.5184 146.052 66.8088 144.046 67.3896C142.092 67.9176 139.927 68.7888 137.551 70.0032L135.334 65.4888C138.185 64.116 140.825 63.1128 143.254 62.4792C145.683 61.8456 148.111 61.5288 150.54 61.5288C155.556 61.5288 159.411 62.7168 162.103 65.0928C164.849 67.4688 166.222 70.8744 166.222 75.3096V102H160.519V98.1192C158.724 99.6504 156.744 100.812 154.579 101.604C152.467 102.343 150.171 102.713 147.689 102.713ZM138.66 90.5952C138.66 92.8128 139.584 94.6344 141.432 96.06C143.333 97.4328 145.762 98.1192 148.719 98.1192C151.095 98.1192 153.259 97.7496 155.213 97.0104C157.167 96.2712 158.935 95.1096 160.519 93.5256V86.0808C158.883 84.972 157.114 84.18 155.213 83.7048C153.365 83.1768 151.306 82.9128 149.035 82.9128C145.867 82.9128 143.333 83.6256 141.432 85.0512C139.584 86.424 138.66 88.272 138.66 90.5952Z" fill="white"/>
<path d="M184.506 107.148L186.803 101.921L170.646 62.3208H177.14L189.971 94.872L203.831 62.3208H210.167L190.446 107.94C188.756 111.742 186.882 114.487 184.823 116.177C182.763 117.866 180.15 118.711 176.982 118.711C176.243 118.711 175.53 118.658 174.843 118.553C174.21 118.5 173.682 118.421 173.259 118.315V113.009C173.787 113.114 174.289 113.194 174.764 113.246C175.292 113.299 175.899 113.326 176.586 113.326C178.381 113.326 179.912 112.824 181.179 111.821C182.447 110.818 183.555 109.26 184.506 107.148Z" fill="white"/>
<path d="M247.488 97.8024C245.271 99.4392 242.948 100.68 240.519 101.525C238.143 102.317 235.529 102.713 232.678 102.713C229.827 102.713 227.134 102.185 224.6 101.129C222.118 100.073 219.953 98.6208 218.105 96.7728C216.31 94.9248 214.884 92.76 213.828 90.2784C212.772 87.744 212.244 85.0248 212.244 82.1208C212.244 79.2696 212.746 76.6032 213.749 74.1216C214.805 71.64 216.204 69.4752 217.947 67.6272C219.689 65.7792 221.748 64.3272 224.124 63.2712C226.553 62.2152 229.114 61.6872 231.807 61.6872C234.447 61.6872 236.902 62.2152 239.172 63.2712C241.496 64.3272 243.476 65.7792 245.112 67.6272C246.802 69.4752 248.122 71.64 249.072 74.1216C250.076 76.6032 250.577 79.2696 250.577 82.1208V83.9424H218.026C218.448 87.8496 220.059 91.0968 222.857 93.684C225.656 96.2712 229.008 97.5648 232.916 97.5648C234.975 97.5648 236.981 97.248 238.935 96.6144C240.888 95.9808 242.525 95.0832 243.845 93.9216L247.488 97.8024ZM231.648 66.8352C228.216 66.8352 225.233 67.9968 222.699 70.32C220.217 72.6432 218.712 75.6264 218.184 79.2696H244.716C244.188 75.7848 242.684 72.8544 240.202 70.4784C237.773 68.0496 234.922 66.8352 231.648 66.8352Z" fill="white"/>
<path d="M258.771 102V62.3208H264.631V67.944C265.793 65.8848 267.324 64.3008 269.225 63.192C271.126 62.0304 273.291 61.4496 275.719 61.4496C276.459 61.4496 277.119 61.5024 277.699 61.608C278.28 61.6608 278.861 61.7928 279.442 62.004V67.3896C278.755 67.1784 278.069 67.02 277.383 66.9144C276.696 66.756 276.01 66.6768 275.323 66.6768C272.895 66.6768 270.756 67.3896 268.908 68.8152C267.06 70.188 265.635 72.1944 264.631 74.8344V102H258.771Z" fill="white"/>
<path d="M281.647 96.5352L285.211 92.7336C287.006 94.4232 289.013 95.7432 291.23 96.6936C293.501 97.5912 295.797 98.04 298.121 98.04C301.289 98.04 303.876 97.38 305.882 96.06C307.889 94.74 308.892 93.024 308.892 90.912C308.892 89.2224 308.285 87.9024 307.07 86.952C305.909 85.9488 304.061 85.2624 301.526 84.8928L294.636 83.9424C290.676 83.3616 287.719 82.2 285.765 80.4576C283.865 78.6624 282.914 76.26 282.914 73.2504C282.914 69.924 284.313 67.1784 287.112 65.0136C289.91 62.796 293.474 61.6872 297.804 61.6872C300.655 61.6872 303.348 62.1096 305.882 62.9544C308.469 63.7992 310.977 65.1192 313.406 66.9144L310.317 70.8744C308.1 69.396 305.935 68.2872 303.823 67.548C301.764 66.8088 299.652 66.4392 297.487 66.4392C294.794 66.4392 292.577 67.0464 290.834 68.2608C289.145 69.4752 288.3 71.0592 288.3 73.0128C288.3 74.7024 288.881 76.0224 290.042 76.9728C291.204 77.8704 293.078 78.504 295.665 78.8736L302.556 79.824C306.516 80.352 309.473 81.54 311.426 83.388C313.433 85.1832 314.436 87.5856 314.436 90.5952C314.436 92.2848 314.013 93.8952 313.169 95.4264C312.377 96.9048 311.241 98.1984 309.763 99.3072C308.337 100.363 306.648 101.208 304.694 101.842C302.741 102.422 300.629 102.713 298.358 102.713C295.085 102.713 291.996 102.185 289.092 101.129C286.241 100.02 283.759 98.4888 281.647 96.5352Z" fill="white"/>
<path fill-rule="evenodd" clip-rule="evenodd" d="M3.18011 26.3038C3.04908 25.6823 3.09916 21.5227 3.15205 20.7952C3.9919 20.6756 4.72554 20.6975 5.4654 20.7197C5.63271 20.7247 5.80034 20.7297 5.96958 20.7331C6.30298 20.7397 6.70587 20.7272 7.14148 20.7137C8.58844 20.6689 10.3963 20.6128 11.2167 21.2105C12.7084 22.2971 12.8834 24.4395 11.4439 25.672C10.6602 26.343 9.74038 26.3596 8.70356 26.3351C7.71995 26.3119 6.76395 26.3143 5.80892 26.3167C4.93933 26.3188 4.06943 26.321 3.18011 26.3038ZM3.20389 17.5989C3.18299 17.5173 3.08314 12.7101 3.18653 12.0966C3.18943 12.0795 3.19345 12.0609 3.19723 12.0434C3.1994 12.0334 3.20148 12.0237 3.20323 12.015L3.24716 11.8542C3.70209 11.7914 6.83244 11.7764 7.20051 11.8813C10.0741 12.7001 9.95809 16.7076 7.38033 17.4254C6.44999 17.6844 5.21629 17.6483 4.15753 17.6173C3.81611 17.6073 3.49288 17.5978 3.20389 17.5989ZM0.632389 29.3375L0.542303 29.3286C0.446338 28.7805 0.332299 28.1941 0.199168 27.5676C-0.0334783 26.1551 -0.0098146 24.9473 0.0154406 23.6584C0.0216638 23.3409 0.0279831 23.0184 0.0305892 22.6867L0.0213973 13.0696C0.013153 11.2211 0.0101101 10.238 1.34793 9.24527C2.31506 8.52749 3.77884 8.60897 5.05411 8.67996C5.35675 8.6968 5.64876 8.71306 5.921 8.7179C7.86244 8.75245 8.66619 8.93961 9.93068 9.79899C11.0329 10.5481 11.9664 11.7633 12.3079 13.4974C12.6504 15.2358 12.3989 15.8352 12.0799 16.5951C11.9343 16.9419 11.7746 17.3222 11.651 17.8596C11.7596 17.9749 11.9812 18.097 12.2613 18.2514C12.7481 18.5197 13.4119 18.8856 13.9681 19.4827C16.3947 22.0883 15.9193 25.724 13.6527 27.9018C11.9339 29.5533 9.96404 29.4903 7.68996 29.4175L7.6844 29.4174C7.574 29.4138 7.46289 29.4103 7.35106 29.4069C6.47806 29.3806 5.5996 29.3985 4.71861 29.4165C3.35894 29.4442 1.99326 29.472 0.632389 29.3375Z" fill="white"/>
<path fill-rule="evenodd" clip-rule="evenodd" d="M55.8824 11.6616C58.1268 10.6757 60.4818 11.0617 62.1614 11.8676C64.0123 12.7557 64.9151 13.8359 66.0427 15.9757C67.057 17.9003 66.5043 20.9001 65.8087 22.2823C63.8233 26.2275 59.2445 27.8134 55.3063 25.882C51.5466 24.0382 49.8051 19.157 51.8115 15.4391C52.7415 13.7155 53.7156 12.6134 55.8824 11.6616ZM55.5935 8.47424C54.9038 8.84824 53.6856 8.9105 51.7508 10.5196C50.6814 11.4091 49.9671 12.359 49.2717 13.4852C46.3282 18.2521 48.0132 25.4071 53.4368 28.4286C62.2593 33.3436 72.2039 24.7266 69.2439 15.5868C67.929 11.5266 64.2292 8.54901 60.3949 8.09665C59.3223 7.97014 56.7133 7.86695 55.5935 8.47424Z" fill="white"/>
<path fill-rule="evenodd" clip-rule="evenodd" d="M122.787 19.1972C122.42 18.0548 123.503 15.0901 123.982 14.2774C126.097 10.6884 129.57 10.0782 132.062 13.5193C133.231 15.1326 133.648 16.9145 133.772 19.1569C133.226 19.3202 124.647 19.1621 122.787 19.1972ZM122.628 29.2795C122.821 28.7909 122.729 23.4437 122.725 22.4338C123.055 22.3487 133.344 22.3408 133.667 22.4369C133.854 23.0581 133.771 25.0894 133.774 25.8794C133.778 26.6536 133.659 28.7398 133.841 29.341C137.522 28.9506 136.826 25.8889 136.962 24.2286C137.05 23.1513 136.956 21.7539 136.962 20.6013C136.97 19.1665 137.063 18.3954 136.769 16.7836C135.931 12.2059 132.771 7.87314 128.023 8.10762C122.995 8.3559 120.254 13.1008 119.716 16.9727C119.539 18.2501 119.509 22.6601 119.543 24.0959C119.567 25.116 119.353 26.7961 119.943 27.7335C120.476 28.5783 121.533 29.4669 122.628 29.2795Z" fill="white"/>
<path fill-rule="evenodd" clip-rule="evenodd" d="M20.4864 19.1111C20.0704 16.7218 21.982 11.5552 25.7095 11.2076C29.902 10.8166 31.8036 17.4931 31.3989 19.025C30.7171 19.2629 24.6679 19.1141 23.1435 19.1452C22.2384 19.1636 21.2968 19.0441 20.4864 19.1111ZM20.3515 29.1996C20.4467 27.2698 20.4111 24.2836 20.3507 22.3889C20.6544 22.2502 30.919 22.231 31.354 22.3506C31.5485 23.0248 31.4105 24.9571 31.4175 25.7573C31.4252 26.6246 31.3319 28.5479 31.492 29.2803C34.55 28.937 34.7835 26.6693 34.6157 24.1266L34.6354 20.5206C34.6556 16.6369 34.2553 13.5019 31.4055 10.4614C29.9831 8.94385 28.2681 8.05077 25.7375 8.0204C22.966 7.98712 21.0124 9.76116 19.8108 11.1809C18.6322 12.5734 17.7086 14.7728 17.399 16.8939C17.0816 19.0687 17.2346 21.7039 17.2113 23.9826C17.1999 25.102 17.0328 26.6023 17.6141 27.6733C18.125 28.6145 19.2349 29.3125 20.3515 29.1996Z" fill="white"/>
<path fill-rule="evenodd" clip-rule="evenodd" d="M108.632 11.5607C110.815 10.4853 113.076 11.8559 113.827 13.5104C114.878 15.8242 113.568 17.9483 111.828 18.6954C107.109 20.7214 103.871 13.9069 108.632 11.5607ZM106.325 22.0632C106.783 22.1759 107.123 22.6627 107.62 23.1651C108.645 24.2033 112.908 28.5768 113.572 28.9624C114.795 29.672 116.046 29.3241 117.186 28.5563C116.923 27.6516 111.639 23.2175 111.185 22.134C116.911 21.001 118.593 15.4252 116.321 11.5488C113.278 6.35753 105.32 7.11146 103.438 13.2252C102.971 14.7404 103.199 22.2275 103.187 24.0782L103.183 28.6378C103.179 29.0378 103.071 29.2443 103.415 29.3033C103.838 29.3758 104.878 28.9038 105.152 28.667C106.903 27.1512 106.057 25.0135 106.325 22.0632Z" fill="white"/>
<path fill-rule="evenodd" clip-rule="evenodd" d="M101.671 29.2954C101.222 25.3157 97.7382 26.4483 95.2954 26.2406C94.7458 26.1938 92.7514 26.3952 92.4898 26.1801L92.4053 26.0459C92.3986 26.0285 92.3788 25.9952 92.3718 25.9731C92.2683 25.6502 92.3821 23.7122 92.3569 23.0684C92.3174 22.0573 92.3469 20.8636 92.3662 19.8596C93.5852 19.5632 97.8318 20.0611 98.5993 19.6715C98.4922 18.1039 97.5174 17.1569 96.4725 16.8169C95.3455 16.4501 93.0813 16.8041 92.4243 16.6114C92.3342 16.1817 92.2761 12.169 92.4531 11.7677L98.1184 11.7389C99.2365 11.7841 100.006 11.5528 100.723 10.9067C101.24 10.4398 101.799 9.52877 101.622 8.6152L97.6391 8.57072C97.1096 8.57287 96.6361 8.63994 96.1216 8.62817C91.7301 8.52742 89.0635 7.88681 89.2366 13.3807C89.3054 15.5623 89.0749 25.9633 89.3497 27.0999C90.0404 29.9574 93.6609 29.3986 96.0933 29.3589C97.059 29.3431 97.9081 29.4132 98.8674 29.3631C99.7145 29.3188 100.889 29.4931 101.671 29.2954Z" fill="white"/>
<path fill-rule="evenodd" clip-rule="evenodd" d="M88.212 8.6731L82.6097 8.63307C80.4545 8.63174 78.6764 9.00029 76.8138 9.97491C68.1347 14.5163 69.9055 26.8023 79.5508 29.0492C81.3761 29.4743 83.1127 29.29 85.0512 29.365C85.4768 29.3815 85.9545 29.3648 86.4089 29.3596C87.9535 29.3417 88.6106 29.8019 88.0102 28.2195C87.0207 25.612 84.0819 26.3456 82.2715 26.2375C78.6459 26.021 75.73 24.5297 74.5851 20.8454C73.4578 17.2179 75.6424 13.8674 78.9179 12.456C82.7686 10.7967 85.1037 12.8217 87.2612 10.9134C87.8144 10.4241 88.3097 9.60373 88.212 8.6731Z" fill="white"/>
<path fill-rule="evenodd" clip-rule="evenodd" d="M40.0051 11.6836C40.2633 12.7317 39.8458 27.9447 40.1481 29.2885C43.8525 28.7677 43.1052 25.8906 43.1798 23.943C43.2468 22.1953 43.063 12.0534 43.2423 11.8119C43.4099 11.5861 44.0083 11.6831 44.1881 11.6885C44.9277 11.7104 46.8218 11.7081 47.4007 11.4821C48.7093 10.971 49.432 9.87083 49.3927 8.59581C49.0328 8.47477 36.4554 8.47125 34.5804 8.49796C33.7712 8.50945 33.7035 8.55345 33.9616 9.43126C34.7968 12.2721 38.0106 11.5843 40.0051 11.6836Z" fill="white"/>
</g>
<defs>
<clipPath id="clip0">
<rect width="388" height="118" fill="white"/>
</clipPath>
</defs>
</svg>
