<svg width="120" height="81" viewBox="0 0 120 81" fill="none" xmlns="http://www.w3.org/2000/svg">
<path fill-rule="evenodd" clip-rule="evenodd" d="M60 20.5C65.8013 20.5 70 16.4804 70 12.101V2.5H50V12.101C50 16.4804 54.1987 20.5 60 20.5ZM60 22.5C66.6274 22.5 72 17.8442 72 12.101V0.766641C72 0.619379 71.8622 0.5 71.6923 0.5H48.3077C48.1378 0.5 48 0.619379 48 0.766641V12.101C48 17.8442 53.3726 22.5 60 22.5Z" fill="white"/>
<path fill-rule="evenodd" clip-rule="evenodd" d="M90.8714 9.33899L71.7439 6.86952L72 4.88599L91 7.33899C92.6569 7.33899 94 8.68213 94 10.339V35.339C94 36.9958 92.6569 38.339 91 38.339H29C27.3431 38.339 26 36.9958 26 35.339V10.339C26 8.68213 27.3431 7.33899 29 7.33899L48 4.88599L48.2561 6.86952L29.1286 9.33899H29C28.4477 9.33899 28 9.7867 28 10.339V35.339C28 35.8913 28.4477 36.339 29 36.339H91C91.5523 36.339 92 35.8913 92 35.339V10.339C92 9.7867 91.5523 9.33899 91 9.33899H90.8714Z" fill="white"/>
<path fill-rule="evenodd" clip-rule="evenodd" d="M84.5 30.5C85.8807 30.5 87 29.3807 87 28C87 26.6193 85.8807 25.5 84.5 25.5C83.1193 25.5 82 26.6193 82 28C82 29.3807 83.1193 30.5 84.5 30.5ZM89 28C89 30.4853 86.9853 32.5 84.5 32.5C82.0147 32.5 80 30.4853 80 28C80 25.5147 82.0147 23.5 84.5 23.5C86.9853 23.5 89 25.5147 89 28Z" fill="white"/>
<path fill-rule="evenodd" clip-rule="evenodd" d="M74.5 30.5C75.8807 30.5 77 29.3807 77 28C77 26.6193 75.8807 25.5 74.5 25.5C73.1193 25.5 72 26.6193 72 28C72 29.3807 73.1193 30.5 74.5 30.5ZM79 28C79 30.4853 76.9853 32.5 74.5 32.5C72.0147 32.5 70 30.4853 70 28C70 25.5147 72.0147 23.5 74.5 23.5C76.9853 23.5 79 25.5147 79 28Z" fill="white"/>
<path fill-rule="evenodd" clip-rule="evenodd" d="M40 31.5C43.866 31.5 47 28.366 47 24.5C47 20.634 43.866 17.5 40 17.5C36.134 17.5 33 20.634 33 24.5C33 28.366 36.134 31.5 40 31.5ZM49 24.5C49 29.4706 44.9706 33.5 40 33.5C35.0294 33.5 31 29.4706 31 24.5C31 19.5294 35.0294 15.5 40 15.5C44.9706 15.5 49 19.5294 49 24.5Z" fill="white"/>
<path d="M38.2856 19.2714C38.2856 18.8454 38.631 18.5 39.0571 18.5H40.9428C41.3688 18.5 41.7142 18.8454 41.7142 19.2714V29.7286C41.7142 30.1546 41.3688 30.5 40.9428 30.5H39.0571C38.631 30.5 38.2856 30.1546 38.2856 29.7286V19.2714Z" fill="white"/>
<path fill-rule="evenodd" clip-rule="evenodd" d="M34.7714 26.2143C34.3454 26.2143 34 25.8689 34 25.4429V23.5572C34 23.1311 34.3454 22.7857 34.7714 22.7857H45.2286C45.6546 22.7857 46 23.1311 46 23.5572V25.4429C46 25.8689 45.6546 26.2143 45.2286 26.2143H34.7714Z" fill="white"/>
<path fill-rule="evenodd" clip-rule="evenodd" d="M61 28.5C61 27.3954 61.8954 26.5 63 26.5H66C67.1046 26.5 68 27.3954 68 28.5C68 29.6046 67.1046 30.5 66 30.5H63C61.8954 30.5 61 29.6046 61 28.5Z" fill="white"/>
<path fill-rule="evenodd" clip-rule="evenodd" d="M52 28.5C52 27.3954 52.8954 26.5 54 26.5H57C58.1046 26.5 59 27.3954 59 28.5C59 29.6046 58.1046 30.5 57 30.5H54C52.8954 30.5 52 29.6046 52 28.5Z" fill="white"/>
</svg>
