<svg width="567" height="122" viewBox="0 0 567 122" fill="none" xmlns="http://www.w3.org/2000/svg">
<g clip-path="url(#clip0)">
<path d="M0 0H28.081V8.264H19.862V120.425H9.929V8.264H0V0Z" fill="white"/>
<path d="M53.519 112.216H64.48V33.634H74.067V112.216C74.067 117.301 69.445 120.904 64.707 120.904H53.519C48.512 120.904 44.045 116.829 44.045 112.113V33.634H53.519V112.216Z" fill="white"/>
<path d="M259.674 52.827H274.316V120.982H253.684C249.272 120.982 243.838 117.605 243.838 112.482V9.45702C243.838 5.12902 248.373 0.52002 253.467 0.52002H264.726C269.72 0.52002 274.251 5.08702 274.251 9.35602V33.763H264.383V9.69602H253.17V112.558H264.642V61.168H259.674V52.827Z" fill="white"/>
<path d="M401.255 79.154V120.464H392.011V41.345C392.011 37.771 395.563 33.877 400.058 33.877H415.298V41.503H401.255V70.735H412.815V79.193L401.255 79.154Z" fill="white"/>
<path d="M434.045 33.8989H443.748V65.4109L449.227 70.9199L454.59 65.5639V33.8989H464.176V63.8809C464.176 67.5419 454.706 77.1869 454.706 77.1869C454.706 77.1869 464.292 86.8259 464.292 90.7329V120.638H455.275V89.5039L449.453 83.6169L443.632 89.4269V120.639H434.045V90.8049C434.045 87.1369 444.2 77.1109 444.2 77.1109C444.2 77.1109 434.045 67.5729 434.045 63.7299V33.8989Z" fill="white"/>
<path d="M470.284 28.4898H468V27.6934H473.505V28.4898H471.221V34.7321H470.284V28.4898" fill="white"/>
<path d="M477.252 34.7321L475.32 29.0168V34.7321H474.383V27.6934H475.671L477.662 33.6781L479.712 27.6934H481V34.7321H480.063V29.0168L478.189 34.7321H477.252" fill="white"/>
<path d="M115.616 79.349C118.869 79.349 123.194 75.461 123.194 70.257V41.82C123.194 37.728 118.527 33.918 113.219 33.918H93.528V120.812H102.604V79.988H106.029L116.13 120.658H125.034L115.616 79.349ZM113.82 70.852H102.946V42.337H113.82V70.852Z" fill="white"/>
<path d="M316.457 79.1221C319.711 79.1221 324.038 75.2271 324.038 70.0271V41.5901C324.038 37.4991 319.368 33.6851 314.063 33.6851H294.373V120.585H303.442V79.7551H306.87L316.974 120.424H325.875L316.457 79.1221ZM314.529 70.5281H303.662V42.0141H314.529V70.5281Z" fill="white"/>
<path d="M171.712 81.398C171.67 77.504 167.605 75.04 167.605 75.04C167.605 75.04 171.712 72.382 171.712 68.687V42.16C171.712 37.153 167.304 33.896 162.811 33.896H142.092V120.639H162.811C167.006 120.639 171.712 118.019 171.712 112.378C171.712 112.378 171.758 85.287 171.712 81.398ZM162.381 112.139H151.51V79.808H162.381V112.139ZM162.381 70.832H151.51V42.318H162.381V70.832Z" fill="white"/>
<path d="M211.392 33.2549H205.913H200.605C195.168 33.2549 191.209 37.9029 191.209 41.4379V111.885C191.209 116.439 196.281 120.567 200.563 120.567H212.291C216.871 120.567 221.451 115.838 221.451 112.067V41.1989C221.451 38.0229 217.126 33.2549 211.392 33.2549ZM211.734 111.614H201.232V41.8359H211.734V111.614Z" fill="white"/>
<path d="M363.691 33.876H351.712C346.316 33.876 343.148 38.323 343.148 41.82V120.464H352.223V79.154H363.692V120.464H372.768V42.295C372.767 37.107 369.177 33.876 363.691 33.876ZM363.432 70.576H352.565V42.616H363.432V70.576Z" fill="white"/>
<path d="M546.996 79.9431H518.902V90.4221H546.996V79.9431Z" fill="white"/>
<path d="M522.37 32.6731C497.763 32.6731 477.819 52.6191 477.819 77.2261C477.819 101.833 497.762 121.783 522.37 121.783C546.976 121.783 566.927 101.834 566.927 77.2261C566.926 52.6201 546.976 32.6731 522.37 32.6731ZM507.207 95.5331H493.079V90.5841H497.633V64.4381H493.163V59.3251H502.743V90.5001H507.207V95.5331ZM551.867 68.8241H547.326V64.2761H518.656V75.1561H549.273L551.867 77.7571V92.1311L548.62 95.3781H517.279L514.031 92.1311V62.4911L517.039 59.4861H549.111L551.867 62.2451V68.8241Z" fill="white"/>
</g>
<defs>
<clipPath id="clip0">
<rect width="566.927" height="121.783" fill="white"/>
</clipPath>
</defs>
</svg>
