<svg width="388" height="118" viewBox="0 0 388 118" fill="none" xmlns="http://www.w3.org/2000/svg">
<path d="M0.316895 102L23.3641 46.56H30.7297L53.4601 102H46.8073L39.8377 84.576H13.7017L6.65289 102H0.316895ZM15.8401 79.3488H37.6993L26.8489 52.2624L15.8401 79.3488Z" fill="white"/>
<path d="M64.6044 45.2136V102H58.7436V46.56L64.6044 45.2136Z" fill="white"/>
<path d="M80.4599 45.2136V102H74.5991V46.56L80.4599 45.2136Z" fill="white"/>
<path d="M161.564 75.468C161.564 79.3224 160.877 82.9392 159.505 86.3184C158.132 89.6448 156.231 92.5224 153.802 94.9512C151.373 97.38 148.522 99.3072 145.249 100.733C141.975 102.158 138.437 102.871 134.636 102.871C130.676 102.871 126.927 102.132 123.389 100.654C119.905 99.1224 116.869 97.0896 114.281 94.5552C111.747 91.968 109.714 88.932 108.183 85.4472C106.705 81.9624 105.965 78.24 105.965 74.28C105.965 70.32 106.705 66.5976 108.183 63.1128C109.661 59.628 111.668 56.6184 114.202 54.084C116.789 51.4968 119.825 49.464 123.31 47.9856C126.848 46.4544 130.597 45.6888 134.557 45.6888C138.833 45.6888 142.873 46.5072 146.674 48.144C150.476 49.728 153.723 51.9456 156.416 54.7968L152.297 58.9944C150.185 56.5656 147.545 54.6912 144.377 53.3712C141.209 51.9984 137.936 51.312 134.557 51.312C131.389 51.312 128.432 51.9192 125.686 53.1336C122.941 54.2952 120.565 55.9056 118.558 57.9648C116.605 59.9712 115.047 62.4 113.885 65.2512C112.724 68.0496 112.143 71.0592 112.143 74.28C112.143 77.5008 112.724 80.5368 113.885 83.388C115.047 86.1864 116.605 88.6152 118.558 90.6744C120.565 92.6808 122.941 94.2912 125.686 95.5056C128.432 96.6672 131.389 97.248 134.557 97.248C137.355 97.248 139.969 96.7728 142.397 95.8224C144.879 94.872 147.017 93.5784 148.813 91.9416C150.661 90.252 152.165 88.2456 153.327 85.9224C154.489 83.5992 155.175 81.0912 155.386 78.3984H135.507V73.0128H161.564V75.468Z" fill="white"/>
<path d="M182.4 102.713C178.071 102.713 174.533 101.604 171.787 99.3864C169.095 97.1688 167.748 94.2912 167.748 90.7536C167.748 87.0576 169.174 84.1272 172.025 81.9624C174.876 79.7448 178.731 78.636 183.588 78.636C185.7 78.636 187.733 78.8736 189.687 79.3488C191.693 79.824 193.541 80.484 195.231 81.3288V76.1016C195.231 72.9336 194.333 70.5576 192.538 68.9736C190.743 67.3368 188.129 66.5184 184.697 66.5184C182.743 66.5184 180.763 66.8088 178.757 67.3896C176.803 67.9176 174.639 68.7888 172.263 70.0032L170.045 65.4888C172.896 64.116 175.536 63.1128 177.965 62.4792C180.394 61.8456 182.823 61.5288 185.251 61.5288C190.267 61.5288 194.122 62.7168 196.815 65.0928C199.56 67.4688 200.933 70.8744 200.933 75.3096V102H195.231V98.1192C193.435 99.6504 191.455 100.812 189.291 101.604C187.179 102.343 184.882 102.713 182.4 102.713ZM173.371 90.5952C173.371 92.8128 174.295 94.6344 176.143 96.06C178.044 97.4328 180.473 98.1192 183.43 98.1192C185.806 98.1192 187.971 97.7496 189.924 97.0104C191.878 96.2712 193.647 95.1096 195.231 93.5256V86.0808C193.594 84.972 191.825 84.18 189.924 83.7048C188.076 83.1768 186.017 82.9128 183.747 82.9128C180.579 82.9128 178.044 83.6256 176.143 85.0512C174.295 86.424 173.371 88.272 173.371 90.5952Z" fill="white"/>
<path d="M210.724 102V62.3208H216.585V66.6768C218.063 64.9872 219.779 63.72 221.733 62.8752C223.686 61.9776 225.851 61.5288 228.227 61.5288C230.973 61.5288 233.428 62.1888 235.593 63.5088C237.81 64.776 239.526 66.5184 240.741 68.736C242.378 66.3072 244.331 64.512 246.602 63.3504C248.925 62.136 251.512 61.5288 254.363 61.5288C258.64 61.5288 262.125 62.9544 264.818 65.8056C267.563 68.6568 268.936 72.3528 268.936 76.8936V102H263.154V78.0816C263.154 74.5968 262.23 71.8248 260.382 69.7656C258.534 67.7064 256.026 66.6768 252.858 66.6768C250.694 66.6768 248.714 67.2312 246.918 68.34C245.123 69.4488 243.592 71.0592 242.325 73.1712C242.43 73.752 242.51 74.3592 242.562 74.9928C242.668 75.5736 242.721 76.2072 242.721 76.8936V102H236.939V78.0816C236.939 74.5968 236.015 71.8248 234.167 69.7656C232.319 67.7064 229.838 66.6768 226.722 66.6768C224.61 66.6768 222.683 67.1784 220.941 68.1816C219.251 69.132 217.799 70.5576 216.585 72.4584V102H210.724Z" fill="white"/>
<path d="M312.209 97.8024C309.991 99.4392 307.668 100.68 305.239 101.525C302.863 102.317 300.25 102.713 297.399 102.713C294.547 102.713 291.855 102.185 289.32 101.129C286.839 100.073 284.674 98.6208 282.826 96.7728C281.031 94.9248 279.605 92.76 278.549 90.2784C277.493 87.744 276.965 85.0248 276.965 82.1208C276.965 79.2696 277.467 76.6032 278.47 74.1216C279.526 71.64 280.925 69.4752 282.667 67.6272C284.41 65.7792 286.469 64.3272 288.845 63.2712C291.274 62.2152 293.835 61.6872 296.527 61.6872C299.167 61.6872 301.623 62.2152 303.893 63.2712C306.216 64.3272 308.196 65.7792 309.833 67.6272C311.523 69.4752 312.843 71.64 313.793 74.1216C314.796 76.6032 315.298 79.2696 315.298 82.1208V83.9424H282.747C283.169 87.8496 284.779 91.0968 287.578 93.684C290.376 96.2712 293.729 97.5648 297.636 97.5648C299.695 97.5648 301.702 97.248 303.655 96.6144C305.609 95.9808 307.246 95.0832 308.566 93.9216L312.209 97.8024ZM296.369 66.8352C292.937 66.8352 289.954 67.9968 287.419 70.32C284.938 72.6432 283.433 75.6264 282.905 79.2696H309.437C308.909 75.7848 307.404 72.8544 304.923 70.4784C302.494 68.0496 299.643 66.8352 296.369 66.8352Z" fill="white"/>
<path d="M319.839 96.5352L323.403 92.7336C325.198 94.4232 327.204 95.7432 329.422 96.6936C331.692 97.5912 333.989 98.04 336.312 98.04C339.48 98.04 342.068 97.38 344.074 96.06C346.08 94.74 347.084 93.024 347.084 90.912C347.084 89.2224 346.476 87.9024 345.262 86.952C344.1 85.9488 342.252 85.2624 339.718 84.8928L332.828 83.9424C328.868 83.3616 325.911 82.2 323.957 80.4576C322.056 78.6624 321.106 76.26 321.106 73.2504C321.106 69.924 322.505 67.1784 325.304 65.0136C328.102 62.796 331.666 61.6872 335.996 61.6872C338.847 61.6872 341.54 62.1096 344.074 62.9544C346.661 63.7992 349.169 65.1192 351.598 66.9144L348.509 70.8744C346.292 69.396 344.127 68.2872 342.015 67.548C339.956 66.8088 337.844 66.4392 335.679 66.4392C332.986 66.4392 330.768 67.0464 329.026 68.2608C327.336 69.4752 326.492 71.0592 326.492 73.0128C326.492 74.7024 327.072 76.0224 328.234 76.9728C329.396 77.8704 331.27 78.504 333.857 78.8736L340.748 79.824C344.708 80.352 347.664 81.54 349.618 83.388C351.624 85.1832 352.628 87.5856 352.628 90.5952C352.628 92.2848 352.205 93.8952 351.36 95.4264C350.568 96.9048 349.433 98.1984 347.955 99.3072C346.529 100.363 344.84 101.208 342.886 101.842C340.932 102.422 338.82 102.713 336.55 102.713C333.276 102.713 330.188 102.185 327.284 101.129C324.432 100.02 321.951 98.4888 319.839 96.5352Z" fill="white"/>
</svg>
