<svg width="388" height="118" viewBox="0 0 388 118" fill="none" xmlns="http://www.w3.org/2000/svg">
<g clip-path="url(#clip0)">
<path d="M-2.68311 102L20.3641 46.56H27.7297L50.4601 102H43.8073L36.8377 84.576H10.7017L3.65289 102H-2.68311ZM12.8401 79.3488H34.6993L23.8489 52.2624L12.8401 79.3488Z" fill="white"/>
<path d="M61.6044 45.2136V102H55.7436V46.56L61.6044 45.2136Z" fill="white"/>
<path d="M77.4599 45.2136V102H71.5991V46.56L77.4599 45.2136Z" fill="white"/>
<path d="M158.564 75.468C158.564 79.3224 157.877 82.9392 156.505 86.3184C155.132 89.6448 153.231 92.5224 150.802 94.9512C148.373 97.38 145.522 99.3072 142.249 100.733C138.975 102.158 135.437 102.871 131.636 102.871C127.676 102.871 123.927 102.132 120.389 100.654C116.905 99.1224 113.869 97.0896 111.281 94.5552C108.747 91.968 106.714 88.932 105.183 85.4472C103.705 81.9624 102.965 78.24 102.965 74.28C102.965 70.32 103.705 66.5976 105.183 63.1128C106.661 59.628 108.668 56.6184 111.202 54.084C113.789 51.4968 116.825 49.464 120.31 47.9856C123.848 46.4544 127.597 45.6888 131.557 45.6888C135.833 45.6888 139.873 46.5072 143.674 48.144C147.476 49.728 150.723 51.9456 153.416 54.7968L149.297 58.9944C147.185 56.5656 144.545 54.6912 141.377 53.3712C138.209 51.9984 134.936 51.312 131.557 51.312C128.389 51.312 125.432 51.9192 122.686 53.1336C119.941 54.2952 117.565 55.9056 115.558 57.9648C113.605 59.9712 112.047 62.4 110.885 65.2512C109.724 68.0496 109.143 71.0592 109.143 74.28C109.143 77.5008 109.724 80.5368 110.885 83.388C112.047 86.1864 113.605 88.6152 115.558 90.6744C117.565 92.6808 119.941 94.2912 122.686 95.5056C125.432 96.6672 128.389 97.248 131.557 97.248C134.355 97.248 136.969 96.7728 139.397 95.8224C141.879 94.872 144.017 93.5784 145.813 91.9416C147.661 90.252 149.165 88.2456 150.327 85.9224C151.489 83.5992 152.175 81.0912 152.386 78.3984H132.507V73.0128H158.564V75.468Z" fill="white"/>
<path d="M179.4 102.713C175.071 102.713 171.533 101.604 168.787 99.3864C166.095 97.1688 164.748 94.2912 164.748 90.7536C164.748 87.0576 166.174 84.1272 169.025 81.9624C171.876 79.7448 175.731 78.636 180.588 78.636C182.7 78.636 184.733 78.8736 186.687 79.3488C188.693 79.824 190.541 80.484 192.231 81.3288V76.1016C192.231 72.9336 191.333 70.5576 189.538 68.9736C187.743 67.3368 185.129 66.5184 181.697 66.5184C179.743 66.5184 177.763 66.8088 175.757 67.3896C173.803 67.9176 171.639 68.7888 169.263 70.0032L167.045 65.4888C169.896 64.116 172.536 63.1128 174.965 62.4792C177.394 61.8456 179.823 61.5288 182.251 61.5288C187.267 61.5288 191.122 62.7168 193.815 65.0928C196.56 67.4688 197.933 70.8744 197.933 75.3096V102H192.231V98.1192C190.435 99.6504 188.455 100.812 186.291 101.604C184.179 102.343 181.882 102.713 179.4 102.713ZM170.371 90.5952C170.371 92.8128 171.295 94.6344 173.143 96.06C175.044 97.4328 177.473 98.1192 180.43 98.1192C182.806 98.1192 184.971 97.7496 186.924 97.0104C188.878 96.2712 190.647 95.1096 192.231 93.5256V86.0808C190.594 84.972 188.825 84.18 186.924 83.7048C185.076 83.1768 183.017 82.9128 180.747 82.9128C177.579 82.9128 175.044 83.6256 173.143 85.0512C171.295 86.424 170.371 88.272 170.371 90.5952Z" fill="white"/>
<path d="M207.724 102V62.3208H213.585V66.6768C215.063 64.9872 216.779 63.72 218.733 62.8752C220.686 61.9776 222.851 61.5288 225.227 61.5288C227.973 61.5288 230.428 62.1888 232.593 63.5088C234.81 64.776 236.526 66.5184 237.741 68.736C239.378 66.3072 241.331 64.512 243.602 63.3504C245.925 62.136 248.512 61.5288 251.363 61.5288C255.64 61.5288 259.125 62.9544 261.818 65.8056C264.563 68.6568 265.936 72.3528 265.936 76.8936V102H260.154V78.0816C260.154 74.5968 259.23 71.8248 257.382 69.7656C255.534 67.7064 253.026 66.6768 249.858 66.6768C247.694 66.6768 245.714 67.2312 243.918 68.34C242.123 69.4488 240.592 71.0592 239.325 73.1712C239.43 73.752 239.51 74.3592 239.562 74.9928C239.668 75.5736 239.721 76.2072 239.721 76.8936V102H233.939V78.0816C233.939 74.5968 233.015 71.8248 231.167 69.7656C229.319 67.7064 226.838 66.6768 223.722 66.6768C221.61 66.6768 219.683 67.1784 217.941 68.1816C216.251 69.132 214.799 70.5576 213.585 72.4584V102H207.724Z" fill="white"/>
<path d="M309.209 97.8024C306.991 99.4392 304.668 100.68 302.239 101.525C299.863 102.317 297.25 102.713 294.399 102.713C291.547 102.713 288.855 102.185 286.32 101.129C283.839 100.073 281.674 98.6208 279.826 96.7728C278.031 94.9248 276.605 92.76 275.549 90.2784C274.493 87.744 273.965 85.0248 273.965 82.1208C273.965 79.2696 274.467 76.6032 275.47 74.1216C276.526 71.64 277.925 69.4752 279.667 67.6272C281.41 65.7792 283.469 64.3272 285.845 63.2712C288.274 62.2152 290.835 61.6872 293.527 61.6872C296.167 61.6872 298.623 62.2152 300.893 63.2712C303.216 64.3272 305.196 65.7792 306.833 67.6272C308.523 69.4752 309.843 71.64 310.793 74.1216C311.796 76.6032 312.298 79.2696 312.298 82.1208V83.9424H279.747C280.169 87.8496 281.779 91.0968 284.578 93.684C287.376 96.2712 290.729 97.5648 294.636 97.5648C296.695 97.5648 298.702 97.248 300.655 96.6144C302.609 95.9808 304.246 95.0832 305.566 93.9216L309.209 97.8024ZM293.369 66.8352C289.937 66.8352 286.954 67.9968 284.419 70.32C281.938 72.6432 280.433 75.6264 279.905 79.2696H306.437C305.909 75.7848 304.404 72.8544 301.923 70.4784C299.494 68.0496 296.643 66.8352 293.369 66.8352Z" fill="white"/>
<path d="M316.839 96.5352L320.403 92.7336C322.198 94.4232 324.204 95.7432 326.422 96.6936C328.692 97.5912 330.989 98.04 333.312 98.04C336.48 98.04 339.068 97.38 341.074 96.06C343.08 94.74 344.084 93.024 344.084 90.912C344.084 89.2224 343.476 87.9024 342.262 86.952C341.1 85.9488 339.252 85.2624 336.718 84.8928L329.828 83.9424C325.868 83.3616 322.911 82.2 320.957 80.4576C319.056 78.6624 318.106 76.26 318.106 73.2504C318.106 69.924 319.505 67.1784 322.304 65.0136C325.102 62.796 328.666 61.6872 332.996 61.6872C335.847 61.6872 338.54 62.1096 341.074 62.9544C343.661 63.7992 346.169 65.1192 348.598 66.9144L345.509 70.8744C343.292 69.396 341.127 68.2872 339.015 67.548C336.956 66.8088 334.844 66.4392 332.679 66.4392C329.986 66.4392 327.768 67.0464 326.026 68.2608C324.336 69.4752 323.492 71.0592 323.492 73.0128C323.492 74.7024 324.072 76.0224 325.234 76.9728C326.396 77.8704 328.27 78.504 330.857 78.8736L337.748 79.824C341.708 80.352 344.664 81.54 346.618 83.388C348.624 85.1832 349.628 87.5856 349.628 90.5952C349.628 92.2848 349.205 93.8952 348.36 95.4264C347.568 96.9048 346.433 98.1984 344.955 99.3072C343.529 100.363 341.84 101.208 339.886 101.842C337.932 102.422 335.82 102.713 333.55 102.713C330.276 102.713 327.188 102.185 324.284 101.129C321.432 100.02 318.951 98.4888 316.839 96.5352Z" fill="white"/>
<path fill-rule="evenodd" clip-rule="evenodd" d="M3.18011 26.3038C3.04908 25.6823 3.09916 21.5227 3.15205 20.7952C3.9919 20.6756 4.72554 20.6975 5.4654 20.7197C5.63271 20.7247 5.80034 20.7297 5.96958 20.7331C6.30298 20.7397 6.70587 20.7272 7.14148 20.7137C8.58844 20.6689 10.3963 20.6128 11.2167 21.2105C12.7084 22.2971 12.8834 24.4395 11.4439 25.672C10.6602 26.343 9.74038 26.3596 8.70356 26.3351C7.71995 26.3119 6.76395 26.3143 5.80892 26.3167C4.93933 26.3188 4.06943 26.321 3.18011 26.3038ZM3.20389 17.5989C3.18299 17.5173 3.08314 12.7101 3.18653 12.0966C3.18943 12.0795 3.19345 12.0609 3.19723 12.0434C3.1994 12.0334 3.20148 12.0237 3.20323 12.015L3.24716 11.8542C3.70209 11.7914 6.83244 11.7764 7.20051 11.8813C10.0741 12.7001 9.95809 16.7076 7.38033 17.4254C6.44999 17.6844 5.21629 17.6483 4.15753 17.6173C3.81611 17.6073 3.49288 17.5978 3.20389 17.5989ZM0.632389 29.3375L0.542303 29.3286C0.446338 28.7805 0.332299 28.1941 0.199168 27.5676C-0.0334783 26.1551 -0.0098146 24.9473 0.0154406 23.6584C0.0216638 23.3409 0.0279831 23.0184 0.0305892 22.6867L0.0213973 13.0696C0.013153 11.2211 0.0101101 10.238 1.34793 9.24527C2.31506 8.52749 3.77884 8.60897 5.05411 8.67996C5.35675 8.6968 5.64876 8.71306 5.921 8.7179C7.86244 8.75245 8.66619 8.93961 9.93068 9.79899C11.0329 10.5481 11.9664 11.7633 12.3079 13.4974C12.6504 15.2358 12.3989 15.8352 12.0799 16.5951C11.9343 16.9419 11.7746 17.3222 11.651 17.8596C11.7596 17.9749 11.9812 18.097 12.2613 18.2514C12.7481 18.5197 13.4119 18.8856 13.9681 19.4827C16.3947 22.0883 15.9193 25.724 13.6527 27.9018C11.9339 29.5533 9.96404 29.4903 7.68996 29.4175L7.6844 29.4174C7.574 29.4138 7.46289 29.4103 7.35106 29.4069C6.47806 29.3806 5.5996 29.3985 4.71861 29.4165C3.35894 29.4442 1.99326 29.472 0.632389 29.3375Z" fill="white"/>
<path fill-rule="evenodd" clip-rule="evenodd" d="M55.8824 11.6616C58.1268 10.6757 60.4818 11.0617 62.1614 11.8676C64.0123 12.7557 64.9151 13.8359 66.0427 15.9757C67.057 17.9003 66.5043 20.9001 65.8087 22.2823C63.8233 26.2275 59.2445 27.8134 55.3063 25.882C51.5466 24.0382 49.8051 19.157 51.8115 15.4391C52.7415 13.7155 53.7156 12.6134 55.8824 11.6616ZM55.5935 8.47424C54.9038 8.84824 53.6856 8.9105 51.7508 10.5196C50.6814 11.4091 49.9671 12.359 49.2717 13.4852C46.3282 18.2521 48.0132 25.4071 53.4368 28.4286C62.2593 33.3436 72.2039 24.7266 69.2439 15.5868C67.929 11.5266 64.2292 8.54901 60.3949 8.09665C59.3223 7.97014 56.7133 7.86695 55.5935 8.47424Z" fill="white"/>
<path fill-rule="evenodd" clip-rule="evenodd" d="M122.787 19.1972C122.42 18.0548 123.503 15.0901 123.982 14.2774C126.097 10.6884 129.57 10.0782 132.062 13.5193C133.231 15.1326 133.648 16.9145 133.772 19.1569C133.226 19.3202 124.647 19.1621 122.787 19.1972ZM122.628 29.2795C122.821 28.7909 122.729 23.4437 122.725 22.4338C123.055 22.3487 133.344 22.3408 133.667 22.4369C133.854 23.0581 133.771 25.0894 133.774 25.8794C133.778 26.6536 133.659 28.7398 133.841 29.341C137.522 28.9506 136.826 25.8889 136.962 24.2286C137.05 23.1513 136.956 21.7539 136.962 20.6013C136.97 19.1665 137.063 18.3954 136.769 16.7836C135.931 12.2059 132.771 7.87314 128.023 8.10762C122.995 8.3559 120.254 13.1008 119.716 16.9727C119.539 18.2501 119.509 22.6601 119.543 24.0959C119.567 25.116 119.353 26.7961 119.943 27.7335C120.476 28.5783 121.533 29.4669 122.628 29.2795Z" fill="white"/>
<path fill-rule="evenodd" clip-rule="evenodd" d="M20.4864 19.1111C20.0704 16.7218 21.982 11.5552 25.7095 11.2076C29.902 10.8166 31.8036 17.4931 31.3989 19.025C30.7171 19.2629 24.6679 19.1141 23.1435 19.1452C22.2384 19.1636 21.2968 19.0441 20.4864 19.1111ZM20.3515 29.1996C20.4467 27.2698 20.4111 24.2836 20.3507 22.3889C20.6544 22.2502 30.919 22.231 31.354 22.3506C31.5485 23.0248 31.4105 24.9571 31.4175 25.7573C31.4252 26.6246 31.3319 28.5479 31.492 29.2803C34.55 28.937 34.7835 26.6693 34.6157 24.1266L34.6354 20.5206C34.6556 16.6369 34.2553 13.5019 31.4055 10.4614C29.9831 8.94385 28.2681 8.05077 25.7375 8.0204C22.966 7.98712 21.0124 9.76116 19.8108 11.1809C18.6322 12.5734 17.7086 14.7728 17.399 16.8939C17.0816 19.0687 17.2346 21.7039 17.2113 23.9826C17.1999 25.102 17.0328 26.6023 17.6141 27.6733C18.125 28.6145 19.2349 29.3125 20.3515 29.1996Z" fill="white"/>
<path fill-rule="evenodd" clip-rule="evenodd" d="M108.632 11.5607C110.815 10.4853 113.076 11.8559 113.827 13.5104C114.878 15.8242 113.568 17.9483 111.828 18.6954C107.109 20.7214 103.871 13.9069 108.632 11.5607ZM106.325 22.0632C106.783 22.1759 107.123 22.6627 107.62 23.1651C108.645 24.2033 112.908 28.5768 113.572 28.9624C114.795 29.672 116.046 29.3241 117.186 28.5563C116.923 27.6516 111.639 23.2175 111.185 22.134C116.911 21.001 118.593 15.4252 116.321 11.5488C113.278 6.35753 105.32 7.11146 103.438 13.2252C102.971 14.7404 103.199 22.2275 103.187 24.0782L103.183 28.6378C103.179 29.0378 103.071 29.2443 103.415 29.3033C103.838 29.3758 104.878 28.9038 105.152 28.667C106.903 27.1512 106.057 25.0135 106.325 22.0632Z" fill="white"/>
<path fill-rule="evenodd" clip-rule="evenodd" d="M101.671 29.2954C101.222 25.3157 97.7382 26.4483 95.2954 26.2406C94.7458 26.1938 92.7514 26.3952 92.4898 26.1801L92.4053 26.0459C92.3986 26.0285 92.3788 25.9952 92.3718 25.9731C92.2683 25.6502 92.3821 23.7122 92.3569 23.0684C92.3174 22.0573 92.3469 20.8636 92.3662 19.8596C93.5852 19.5632 97.8318 20.0611 98.5993 19.6715C98.4922 18.1039 97.5174 17.1569 96.4725 16.8169C95.3455 16.4501 93.0813 16.8041 92.4243 16.6114C92.3342 16.1817 92.2761 12.169 92.4531 11.7677L98.1184 11.7389C99.2365 11.7841 100.006 11.5528 100.723 10.9067C101.24 10.4398 101.799 9.52877 101.622 8.6152L97.6391 8.57072C97.1096 8.57287 96.6361 8.63994 96.1216 8.62817C91.7301 8.52742 89.0635 7.88681 89.2366 13.3807C89.3054 15.5623 89.0749 25.9633 89.3497 27.0999C90.0404 29.9574 93.6609 29.3986 96.0933 29.3589C97.059 29.3431 97.9081 29.4132 98.8674 29.3631C99.7145 29.3188 100.889 29.4931 101.671 29.2954Z" fill="white"/>
<path fill-rule="evenodd" clip-rule="evenodd" d="M88.212 8.6731L82.6097 8.63307C80.4545 8.63174 78.6764 9.00029 76.8138 9.97491C68.1347 14.5163 69.9055 26.8023 79.5508 29.0492C81.3761 29.4743 83.1127 29.29 85.0512 29.365C85.4768 29.3815 85.9545 29.3648 86.4089 29.3596C87.9535 29.3417 88.6106 29.8019 88.0102 28.2195C87.0207 25.612 84.0819 26.3456 82.2715 26.2375C78.6459 26.021 75.73 24.5297 74.5851 20.8454C73.4578 17.2179 75.6424 13.8674 78.9179 12.456C82.7686 10.7967 85.1037 12.8217 87.2612 10.9134C87.8144 10.4241 88.3097 9.60373 88.212 8.6731Z" fill="white"/>
<path fill-rule="evenodd" clip-rule="evenodd" d="M40.0051 11.6836C40.2633 12.7317 39.8458 27.9447 40.1481 29.2885C43.8525 28.7677 43.1052 25.8906 43.1798 23.943C43.2468 22.1953 43.063 12.0534 43.2423 11.8119C43.4099 11.5861 44.0083 11.6831 44.1881 11.6885C44.9277 11.7104 46.8218 11.7081 47.4007 11.4821C48.7093 10.971 49.432 9.87083 49.3927 8.59581C49.0328 8.47477 36.4554 8.47125 34.5804 8.49796C33.7712 8.50945 33.7035 8.55345 33.9616 9.43126C34.7968 12.2721 38.0106 11.5843 40.0051 11.6836Z" fill="white"/>
</g>
<defs>
<clipPath id="clip0">
<rect width="388" height="118" fill="white"/>
</clipPath>
</defs>
</svg>
