<svg width="430" height="118" viewBox="0 0 430 118" fill="none" xmlns="http://www.w3.org/2000/svg">
<path d="M391.07 88.5355L394.634 84.7339C396.43 86.4235 398.436 87.7435 400.654 88.6939C402.924 89.5915 405.221 90.0403 407.544 90.0403C410.712 90.0403 413.299 89.3803 415.306 88.0603C417.312 86.7403 418.315 85.0243 418.315 82.9123C418.315 81.2227 417.708 79.9027 416.493 78.9523C415.332 77.9491 413.484 77.2627 410.949 76.8931L404.059 75.9427C400.099 75.3619 397.142 74.2003 395.189 72.4579C393.288 70.6627 392.337 68.2603 392.337 65.2507C392.337 61.9243 393.737 59.1787 396.535 57.0139C399.333 54.7963 402.898 53.6875 407.227 53.6875C410.078 53.6875 412.771 54.1099 415.306 54.9547C417.893 55.7995 420.401 57.1195 422.829 58.9147L419.741 62.8747C417.523 61.3963 415.358 60.2875 413.246 59.5483C411.187 58.8091 409.075 58.4395 406.91 58.4395C404.218 58.4395 402 59.0467 400.258 60.2611C398.568 61.4755 397.723 63.0595 397.723 65.0131C397.723 66.7027 398.304 68.0227 399.466 68.9731C400.627 69.8707 402.502 70.5043 405.089 70.8739L411.979 71.8243C415.939 72.3523 418.896 73.5403 420.85 75.3883C422.856 77.1835 423.859 79.5859 423.859 82.5955C423.859 84.2851 423.437 85.8955 422.592 87.4267C421.8 88.9051 420.665 90.1987 419.186 91.3075C417.761 92.3635 416.071 93.2083 414.117 93.8419C412.164 94.4227 410.052 94.7131 407.781 94.7131C404.508 94.7131 401.419 94.1851 398.515 93.1291C395.664 92.0203 393.182 90.4891 391.07 88.5355Z" fill="white"/>
<path d="M383.443 89.8027C381.226 91.4395 378.902 92.6803 376.474 93.5251C374.098 94.3171 371.484 94.7131 368.633 94.7131C365.782 94.7131 363.089 94.1851 360.554 93.1291C358.073 92.0731 355.908 90.6211 354.06 88.7731C352.265 86.9251 350.839 84.7603 349.783 82.2787C348.727 79.7443 348.199 77.0251 348.199 74.1211C348.199 71.2699 348.701 68.6035 349.704 66.1219C350.76 63.6403 352.159 61.4755 353.902 59.6275C355.644 57.7795 357.703 56.3275 360.079 55.2715C362.508 54.2155 365.069 53.6875 367.762 53.6875C370.402 53.6875 372.857 54.2155 375.127 55.2715C377.45 56.3275 379.43 57.7795 381.067 59.6275C382.757 61.4755 384.077 63.6403 385.027 66.1219C386.03 68.6035 386.532 71.2699 386.532 74.1211V75.9427H353.981C354.403 79.8499 356.014 83.0971 358.812 85.6843C361.61 88.2715 364.963 89.5651 368.87 89.5651C370.93 89.5651 372.936 89.2483 374.89 88.6147C376.843 87.9811 378.48 87.0835 379.8 85.9219L383.443 89.8027ZM367.603 58.8355C364.171 58.8355 361.188 59.9971 358.654 62.3203C356.172 64.6435 354.667 67.6267 354.139 71.2699H380.671C380.143 67.7851 378.638 64.8547 376.157 62.4787C373.728 60.0499 370.877 58.8355 367.603 58.8355Z" fill="white"/>
<path d="M281.957 93.9985V54.3193H287.818V58.6753C289.296 56.9857 291.012 55.7185 292.966 54.8737C294.919 53.9761 297.084 53.5273 299.46 53.5273C302.206 53.5273 304.661 54.1873 306.826 55.5073C309.043 56.7745 310.759 58.5169 311.974 60.7345C313.611 58.3057 315.564 56.5105 317.835 55.3489C320.158 54.1345 322.745 53.5273 325.596 53.5273C329.873 53.5273 333.358 54.9529 336.051 57.8041C338.796 60.6553 340.169 64.3513 340.169 68.8921V93.9985H334.387V70.0801C334.387 66.5953 333.463 63.8233 331.615 61.7641C329.767 59.7049 327.259 58.6753 324.091 58.6753C321.927 58.6753 319.947 59.2297 318.151 60.3385C316.356 61.4473 314.825 63.0577 313.558 65.1697C313.663 65.7505 313.743 66.3577 313.795 66.9913C313.901 67.5721 313.954 68.2057 313.954 68.8921V93.9985H308.172V70.0801C308.172 66.5953 307.248 63.8233 305.4 61.7641C303.552 59.7049 301.071 58.6753 297.955 58.6753C295.843 58.6753 293.916 59.1769 292.174 60.1801C290.484 61.1305 289.032 62.5561 287.818 64.4569V93.9985H281.957Z" fill="white"/>
<path d="M253.632 94.7113C249.303 94.7113 245.765 93.6025 243.02 91.3849C240.327 89.1673 238.98 86.2897 238.98 82.7521C238.98 79.0561 240.406 76.1257 243.257 73.9609C246.108 71.7433 249.963 70.6345 254.82 70.6345C256.932 70.6345 258.965 70.8721 260.919 71.3473C262.925 71.8225 264.773 72.4825 266.463 73.3273V68.1001C266.463 64.9321 265.565 62.5561 263.77 60.9721C261.975 59.3353 259.361 58.5169 255.929 58.5169C253.976 58.5169 251.996 58.8073 249.989 59.3881C248.036 59.9161 245.871 60.7873 243.495 62.0017L241.277 57.4873C244.128 56.1145 246.768 55.1113 249.197 54.4777C251.626 53.8441 254.055 53.5273 256.484 53.5273C261.5 53.5273 265.354 54.7153 268.047 57.0913C270.792 59.4673 272.165 62.8729 272.165 67.3081V93.9985H266.463V90.1177C264.668 91.6489 262.688 92.8105 260.523 93.6025C258.411 94.3417 256.114 94.7113 253.632 94.7113ZM244.604 82.5937C244.604 84.8113 245.528 86.6329 247.376 88.0585C249.276 89.4313 251.705 90.1177 254.662 90.1177C257.038 90.1177 259.203 89.7481 261.156 89.0089C263.11 88.2697 264.879 87.1081 266.463 85.5241V78.0793C264.826 76.9705 263.057 76.1785 261.156 75.7033C259.308 75.1753 257.249 74.9113 254.979 74.9113C251.811 74.9113 249.276 75.6241 247.376 77.0497C245.528 78.4225 244.604 80.2705 244.604 82.5937Z" fill="white"/>
<path d="M232.798 67.4667C232.798 71.3211 232.111 74.9379 230.738 78.3171C229.366 81.6435 227.465 84.5211 225.036 86.9499C222.607 89.3787 219.756 91.3059 216.482 92.7315C213.209 94.1571 209.671 94.8699 205.87 94.8699C201.91 94.8699 198.161 94.1307 194.623 92.6523C191.138 91.1211 188.102 89.0883 185.515 86.5539C182.981 83.9667 180.948 80.9307 179.417 77.4459C177.938 73.9611 177.199 70.2387 177.199 66.2787C177.199 62.3187 177.938 58.5963 179.417 55.1115C180.895 51.6267 182.902 48.6171 185.436 46.0827C188.023 43.4955 191.059 41.4627 194.544 39.9843C198.082 38.4531 201.83 37.6875 205.79 37.6875C210.067 37.6875 214.106 38.5059 217.908 40.1427C221.71 41.7267 224.957 43.9443 227.65 46.7955L223.531 50.9931C221.419 48.5643 218.779 46.6899 215.611 45.3699C212.443 43.9971 209.17 43.3107 205.79 43.3107C202.622 43.3107 199.666 43.9179 196.92 45.1323C194.174 46.2939 191.798 47.9043 189.792 49.9635C187.838 51.9699 186.281 54.3987 185.119 57.2499C183.958 60.0483 183.377 63.0579 183.377 66.2787C183.377 69.4995 183.958 72.5355 185.119 75.3867C186.281 78.1851 187.838 80.6139 189.792 82.6731C191.798 84.6795 194.174 86.2899 196.92 87.5043C199.666 88.6659 202.622 89.2467 205.79 89.2467C208.589 89.2467 211.202 88.7715 213.631 87.8211C216.113 86.8707 218.251 85.5771 220.046 83.9403C221.894 82.2507 223.399 80.2443 224.561 77.9211C225.722 75.5979 226.409 73.0899 226.62 70.3971H206.741V65.0115H232.798V67.4667Z" fill="white"/>
<path d="M105.793 93.9986V38.5586H124.088C128.259 38.5586 132.14 39.2714 135.731 40.697C139.321 42.0698 142.41 43.9706 144.997 46.3994C147.584 48.8282 149.591 51.7586 151.016 55.1906C152.495 58.5698 153.234 62.2658 153.234 66.2786C153.234 70.2914 152.495 74.0138 151.016 77.4458C149.591 80.825 147.584 83.729 144.997 86.1578C142.463 88.5866 139.4 90.5138 135.81 91.9394C132.219 93.3122 128.312 93.9986 124.088 93.9986H105.793ZM124.405 44.1026H111.891V88.4546H124.405C127.573 88.4546 130.556 87.9002 133.355 86.7914C136.153 85.6298 138.555 84.0722 140.562 82.1186C142.568 80.1122 144.152 77.7626 145.314 75.0698C146.475 72.3242 147.056 69.3938 147.056 66.2786C147.056 63.1634 146.475 60.2594 145.314 57.5666C144.152 54.821 142.568 52.4714 140.562 50.5178C138.555 48.5114 136.153 46.9538 133.355 45.845C130.556 44.6834 127.573 44.1026 124.405 44.1026Z" fill="white"/>
<path d="M74.9314 89.2467C78.3634 89.2467 81.637 88.5867 84.7522 87.2667C87.8674 85.8939 90.481 84.0195 92.593 81.6435L96.553 85.7619C93.8074 88.6131 90.5338 90.8571 86.7322 92.4939C82.9306 94.0779 78.9442 94.8699 74.773 94.8699C70.7602 94.8699 66.985 94.1307 63.4474 92.6523C59.9626 91.1739 56.9266 89.1675 54.3394 86.6331C51.7522 84.0459 49.7194 81.0099 48.241 77.5251C46.7626 73.9875 46.0234 70.2387 46.0234 66.2787C46.0234 62.3187 46.7626 58.5963 48.241 55.1115C49.7194 51.5739 51.7522 48.5379 54.3394 46.0035C56.9266 43.4163 59.9626 41.3835 63.4474 39.9051C66.985 38.4267 70.7602 37.6875 74.773 37.6875C79.0498 37.6875 83.089 38.5059 86.8906 40.1427C90.745 41.7267 94.0186 43.9443 96.7114 46.7955L92.6722 51.0723C90.5074 48.6435 87.8146 46.7427 84.5938 45.3699C81.4258 43.9971 78.1522 43.3107 74.773 43.3107C71.605 43.3107 68.6218 43.9179 65.8234 45.1323C63.0778 46.2939 60.7018 47.9043 58.6954 49.9635C56.689 51.9699 55.105 54.3987 53.9434 57.2499C52.7818 60.0483 52.201 63.0579 52.201 66.2787C52.201 69.4995 52.7818 72.5355 53.9434 75.3867C55.105 78.1851 56.689 80.6139 58.6954 82.6731C60.7546 84.6795 63.157 86.2899 65.9026 87.5043C68.701 88.6659 71.7106 89.2467 74.9314 89.2467Z" fill="white"/>
<path d="M6.09766 93.9986V38.5586H12.1961V88.5338H45.2225V93.9986H6.09766Z" fill="white"/>
<path fill-rule="evenodd" clip-rule="evenodd" d="M6.18011 18.3038C6.04908 17.6823 6.09916 13.5227 6.15205 12.7952C6.9919 12.6756 7.72554 12.6975 8.4654 12.7197C8.63271 12.7247 8.80034 12.7297 8.96958 12.7331C9.30298 12.7397 9.70587 12.7272 10.1415 12.7137C11.5884 12.6689 13.3963 12.6128 14.2167 13.2105C15.7084 14.2971 15.8834 16.4395 14.4439 17.672C13.6602 18.343 12.7404 18.3596 11.7036 18.3351C10.72 18.3119 9.76395 18.3143 8.80892 18.3167C7.93933 18.3188 7.06943 18.321 6.18011 18.3038ZM6.20389 9.59895C6.18299 9.51728 6.08314 4.71009 6.18653 4.09656C6.18943 4.07955 6.19345 4.06091 6.19723 4.04341C6.1994 4.03338 6.20148 4.02372 6.20323 4.01496L6.24716 3.8542C6.70209 3.79143 9.83244 3.77642 10.2005 3.88132C13.0741 4.70011 12.9581 8.70758 10.3803 9.42536C9.44999 9.6844 8.21629 9.64827 7.15753 9.61727C6.81611 9.60727 6.49288 9.59781 6.20389 9.59895ZM3.63239 21.3375L3.5423 21.3286C3.44634 20.7805 3.3323 20.1941 3.19917 19.5676C2.96652 18.1551 2.99019 16.9473 3.01544 15.6584C3.02166 15.3409 3.02798 15.0184 3.03059 14.6867L3.0214 5.06963C3.01315 3.22114 3.01011 2.23802 4.34793 1.24527C5.31506 0.527494 6.77884 0.608975 8.05411 0.67996C8.35675 0.696805 8.64876 0.713061 8.921 0.717905C10.8624 0.752453 11.6662 0.939611 12.9307 1.79899C14.0329 2.54812 14.9664 3.76334 15.3079 5.49737C15.6504 7.23581 15.3989 7.83515 15.0799 8.59506C14.9343 8.94192 14.7746 9.32224 14.651 9.8596C14.7596 9.97488 14.9812 10.097 15.2613 10.2514C15.7481 10.5197 16.4119 10.8856 16.9681 11.4827C19.3947 14.0883 18.9193 17.724 16.6527 19.9018C14.9339 21.5533 12.964 21.4903 10.69 21.4175L10.6844 21.4174C10.574 21.4138 10.4629 21.4103 10.3511 21.4069C9.47806 21.3806 8.5996 21.3985 7.71861 21.4165C6.35894 21.4442 4.99326 21.472 3.63239 21.3375Z" fill="white"/>
<path fill-rule="evenodd" clip-rule="evenodd" d="M58.8824 3.66165C61.1268 2.67573 63.4818 3.0617 65.1614 3.86761C67.0123 4.7557 67.9151 5.83594 69.0427 7.97572C70.057 9.90034 69.5043 12.9001 68.8087 14.2823C66.8233 18.2275 62.2445 19.8134 58.3063 17.882C54.5466 16.0382 52.8051 11.157 54.8115 7.43908C55.7415 5.71552 56.7156 4.61341 58.8824 3.66165ZM58.5935 0.474243C57.9038 0.848241 56.6856 0.910496 54.7508 2.51959C53.6814 3.40906 52.9671 4.359 52.2717 5.48521C49.3282 10.2521 51.0132 17.4071 56.4368 20.4286C65.2593 25.3436 75.2039 16.7266 72.2439 7.58684C70.929 3.52658 67.2292 0.549007 63.3949 0.0966512C62.3223 -0.0298573 59.7133 -0.133052 58.5935 0.474243Z" fill="white"/>
<path fill-rule="evenodd" clip-rule="evenodd" d="M125.787 11.1972C125.42 10.0548 126.503 7.09008 126.982 6.2774C129.097 2.68836 132.57 2.07819 135.062 5.51934C136.231 7.13264 136.648 8.91447 136.772 11.1569C136.226 11.3202 127.647 11.1621 125.787 11.1972ZM125.628 21.2795C125.821 20.7909 125.729 15.4437 125.725 14.4338C126.055 14.3487 136.344 14.3408 136.667 14.4369C136.854 15.0581 136.771 17.0894 136.774 17.8794C136.778 18.6536 136.659 20.7398 136.841 21.341C140.522 20.9506 139.826 17.8889 139.962 16.2286C140.05 15.1513 139.956 13.7539 139.962 12.6013C139.97 11.1665 140.063 10.3954 139.769 8.78359C138.931 4.20593 135.771 -0.12686 131.023 0.107624C125.995 0.355896 123.254 5.10084 122.716 8.97268C122.539 10.2501 122.509 14.6601 122.543 16.0959C122.567 17.116 122.353 18.7961 122.943 19.7335C123.476 20.5783 124.533 21.4669 125.628 21.2795Z" fill="white"/>
<path fill-rule="evenodd" clip-rule="evenodd" d="M23.4864 11.1111C23.0704 8.72182 24.982 3.55523 28.7095 3.20763C32.902 2.81662 34.8036 9.4931 34.3989 11.025C33.7171 11.2629 27.6679 11.1141 26.1435 11.1452C25.2384 11.1636 24.2968 11.0441 23.4864 11.1111ZM23.3515 21.1996C23.4467 19.2698 23.4111 16.2836 23.3507 14.3889C23.6544 14.2502 33.919 14.231 34.354 14.3506C34.5485 15.0248 34.4105 16.9571 34.4175 17.7573C34.4252 18.6246 34.3319 20.5479 34.492 21.2803C37.55 20.937 37.7835 18.6693 37.6157 16.1266L37.6354 12.5206C37.6556 8.63694 37.2553 5.50192 34.4055 2.46136C32.9831 0.943847 31.2681 0.0507721 28.7375 0.0203981C25.966 -0.0128767 24.0124 1.76116 22.8108 3.18094C21.6322 4.57336 20.7086 6.77276 20.399 8.89387C20.0816 11.0687 20.2346 13.7039 20.2113 15.9826C20.1999 17.102 20.0328 18.6023 20.6141 19.6733C21.125 20.6145 22.2349 21.3125 23.3515 21.1996Z" fill="white"/>
<path fill-rule="evenodd" clip-rule="evenodd" d="M111.632 3.56072C113.815 2.4853 116.076 3.85589 116.827 5.51043C117.878 7.82418 116.568 9.94832 114.828 10.6954C110.109 12.7214 106.871 5.90693 111.632 3.56072ZM109.325 14.0632C109.783 14.1759 110.123 14.6627 110.62 15.1651C111.645 16.2033 115.908 20.5768 116.572 20.9624C117.795 21.672 119.046 21.3241 120.186 20.5563C119.923 19.6516 114.639 15.2175 114.185 14.134C119.911 13.001 121.593 7.42516 119.321 3.5488C116.278 -1.64247 108.32 -0.888542 106.438 5.22524C105.971 6.74036 106.199 14.2275 106.187 16.0782L106.183 20.6378C106.179 21.0378 106.071 21.2443 106.415 21.3033C106.838 21.3758 107.878 20.9038 108.152 20.667C109.903 19.1512 109.057 17.0135 109.325 14.0632Z" fill="white"/>
<path fill-rule="evenodd" clip-rule="evenodd" d="M104.671 21.2954C104.222 17.3157 100.738 18.4483 98.2954 18.2406C97.7458 18.1938 95.7514 18.3952 95.4898 18.1801L95.4053 18.0459C95.3986 18.0285 95.3788 17.9952 95.3718 17.9731C95.2683 17.6502 95.3821 15.7122 95.3569 15.0684C95.3174 14.0573 95.3469 12.8636 95.3662 11.8596C96.5852 11.5632 100.832 12.0611 101.599 11.6715C101.492 10.1039 100.517 9.15694 99.4725 8.81689C98.3455 8.45014 96.0813 8.80408 95.4243 8.61139C95.3342 8.18167 95.2761 4.16903 95.4531 3.76769L101.118 3.73893C102.237 3.7841 103.006 3.55285 103.723 2.90675C104.24 2.43979 104.799 1.52877 104.622 0.615202L100.639 0.570722C100.11 0.572867 99.6361 0.639935 99.1216 0.628172C94.7301 0.527418 92.0635 -0.113186 92.2366 5.38069C92.3054 7.56231 92.0749 17.9633 92.3497 19.0999C93.0404 21.9574 96.6609 21.3986 99.0933 21.3589C100.059 21.3431 100.908 21.4132 101.867 21.3631C102.714 21.3188 103.889 21.4931 104.671 21.2954Z" fill="white"/>
<path fill-rule="evenodd" clip-rule="evenodd" d="M91.212 0.673096L85.6097 0.633073C83.4545 0.631743 81.6764 1.00029 79.8138 1.97491C71.1347 6.51632 72.9055 18.8023 82.5508 21.0492C84.3761 21.4743 86.1127 21.29 88.0512 21.365C88.4768 21.3815 88.9545 21.3648 89.4089 21.3596C90.9535 21.3417 91.6106 21.8019 91.0102 20.2195C90.0207 17.612 87.0819 18.3456 85.2715 18.2375C81.6459 18.021 78.73 16.5297 77.5851 12.8454C76.4578 9.21793 78.6424 5.86745 81.9179 4.45602C85.7686 2.7967 88.1037 4.82172 90.2612 2.91343C90.8144 2.42413 91.3097 1.60373 91.212 0.673096Z" fill="white"/>
<path fill-rule="evenodd" clip-rule="evenodd" d="M43.0051 3.68355C43.2633 4.73166 42.8458 19.9447 43.1481 21.2885C46.8525 20.7677 46.1052 17.8906 46.1798 15.943C46.2468 14.1953 46.063 4.05344 46.2423 3.81193C46.4099 3.58612 47.0083 3.68313 47.1881 3.68847C47.9277 3.7104 49.8218 3.70813 50.4007 3.48208C51.7093 2.97101 52.432 1.87083 52.3927 0.595808C52.0328 0.474768 39.4554 0.471249 37.5804 0.49796C36.7712 0.509448 36.7035 0.553448 36.9616 1.43126C37.7968 4.27215 41.0106 3.58425 43.0051 3.68355Z" fill="white"/>
</svg>
