<svg width="568" height="123" viewBox="0 0 568 123" fill="none" xmlns="http://www.w3.org/2000/svg">
<path d="M0 0H28.081V8.264H19.862V120.425H9.929V8.264H0V0Z" fill="#F79226"/>
<path d="M53.5189 112.216H64.4799V33.6338H74.0669V112.216C74.0669 117.301 69.4449 120.904 64.7069 120.904H53.5189C48.5119 120.904 44.0449 116.829 44.0449 112.113V33.6338H53.5189V112.216Z" fill="#F79226"/>
<path d="M259.674 52.827H274.316V120.982H253.684C249.272 120.982 243.838 117.605 243.838 112.482V9.45702C243.838 5.12902 248.373 0.52002 253.467 0.52002H264.726C269.72 0.52002 274.251 5.08702 274.251 9.35602V33.763H264.383V9.69602H253.17V112.558H264.642V61.168H259.674V52.827Z" fill="#D5E14D"/>
<path d="M401.255 79.154V120.464H392.011V41.345C392.011 37.771 395.563 33.877 400.058 33.877H415.298V41.503H401.255V70.735H412.815V79.193L401.255 79.154Z" fill="#D5E14D"/>
<path d="M434.045 33.8989H443.748V65.4109L449.227 70.9199L454.59 65.5639V33.8989H464.176V63.8809C464.176 67.5419 454.706 77.1869 454.706 77.1869C454.706 77.1869 464.292 86.8259 464.292 90.7329V120.638H455.275V89.5039L449.453 83.6169L443.632 89.4269V120.639H434.045V90.8049C434.045 87.1369 444.2 77.1109 444.2 77.1109C444.2 77.1109 434.045 67.5729 434.045 63.7299V33.8989Z" fill="#D5E14D"/>
<path d="M115.616 79.349C118.869 79.349 123.194 75.461 123.194 70.257V41.82C123.194 37.728 118.527 33.918 113.219 33.918H93.5281V120.812H102.604V79.988H106.029L116.13 120.658H125.034L115.616 79.349ZM113.82 70.852H102.946V42.337H113.82V70.852Z" fill="#F79226"/>
<path d="M316.457 79.1221C319.711 79.1221 324.038 75.2271 324.038 70.0271V41.5901C324.038 37.4991 319.368 33.6851 314.063 33.6851H294.373V120.585H303.442V79.7551H306.87L316.974 120.424H325.875L316.457 79.1221ZM314.529 70.5281H303.662V42.0141H314.529V70.5281Z" fill="#D5E14D"/>
<path d="M171.712 81.398C171.67 77.504 167.605 75.04 167.605 75.04C167.605 75.04 171.712 72.382 171.712 68.687V42.16C171.712 37.153 167.304 33.896 162.811 33.896H142.092V120.639H162.811C167.006 120.639 171.712 118.019 171.712 112.378C171.712 112.378 171.758 85.287 171.712 81.398ZM162.381 112.139H151.51V79.808H162.381V112.139ZM162.381 70.832H151.51V42.318H162.381V70.832Z" fill="#F79226"/>
<path d="M211.392 33.2549H205.913H200.605C195.168 33.2549 191.209 37.9029 191.209 41.4379V111.885C191.209 116.439 196.281 120.567 200.563 120.567H212.291C216.871 120.567 221.451 115.838 221.451 112.067V41.1989C221.451 38.0229 217.126 33.2549 211.392 33.2549ZM211.734 111.614H201.232V41.8359H211.734V111.614Z" fill="#F79226"/>
<path d="M363.691 33.876H351.712C346.316 33.876 343.148 38.323 343.148 41.82V120.464H352.223V79.154H363.692V120.464H372.768V42.295C372.767 37.107 369.177 33.876 363.691 33.876ZM363.432 70.576H352.565V42.616H363.432V70.576Z" fill="#D5E14D"/>
<path d="M470.284 28.4898H468V27.6934H473.505V28.4898H471.221V34.7321H470.284V28.4898Z" fill="white"/>
<path d="M477.252 34.7321L475.32 29.0168V34.7321H474.383V27.6934H475.671L477.662 33.6781L479.712 27.6934H481V34.7321H480.063V29.0168L478.189 34.7321H477.252Z" fill="white"/>
<path d="M533.33 64.4855V91.5079H547.469V64.4855H533.33Z" fill="#F79226"/>
<path fill-rule="evenodd" clip-rule="evenodd" d="M478 77.553C478 52.946 497.944 33 522.551 33C547.157 33 567.107 52.947 567.108 77.553C567.108 102.161 547.157 122.11 522.551 122.11C497.943 122.11 478 102.16 478 77.553ZM517.016 65.242C517.016 63.0802 516.146 60.8103 515.058 59.8375C513.535 58.4324 510.925 58 504.29 58L504.095 58C499.033 57.9998 496.089 57.9996 494.377 59.4427C491.999 61.4477 491.999 66.2389 492 77.6872L492 78.7099C492 89.7502 491.999 94.4698 494.349 96.4872C496.103 97.9935 499.167 97.9934 504.518 97.9931L504.725 97.9931C514.623 97.9931 517.016 96.588 517.016 90.643C517.016 87.7246 516.581 87.1842 514.297 87.1842C512.339 87.1842 511.577 87.7246 511.577 89.346C511.577 91.2916 510.816 91.5077 505.052 91.5077H498.526V64.4854H505.052C510.816 64.4854 511.577 64.7016 511.577 66.6472C511.577 68.2685 512.339 68.809 514.297 68.809C516.689 68.809 517.016 68.3766 517.016 65.242ZM553.995 77.7804C553.995 63.4045 553.778 61.3508 552.038 59.8375C550.406 58.3243 547.578 58 536.811 58H523.541V61.2427C523.541 63.4045 524.085 64.4854 525.173 64.4854C526.587 64.4854 526.804 66.7553 526.804 77.9966C526.804 89.2379 526.587 91.5077 525.173 91.5077C524.085 91.5077 523.541 92.5886 523.541 94.7504V97.9931H536.919C537.702 97.9931 538.449 97.995 539.161 97.9968L539.167 97.9968C546.14 98.0143 549.841 98.0236 551.802 96.1927C554.019 94.1226 554.012 89.7 553.998 80.2769C553.997 79.481 553.995 78.6493 553.995 77.7804Z" fill="#F79226"/>
</svg>
