<?xml version="1.0" encoding="UTF-8"?>
<svg width="498px" height="168px" viewBox="0 0 498 168" version="1.1" xmlns="http://www.w3.org/2000/svg" xmlns:xlink="http://www.w3.org/1999/xlink">
    <title>syslogo</title>
    <g id="Page-1" stroke="none" stroke-width="1" fill="none" fill-rule="evenodd">
        <g id="syslogo" transform="translate(1.000000, 0.000000)">
            <g id="Group-15" transform="translate(0.000000, 140.343000)" fill="#FFFFFF">
                <path d="M43.755922,0.41 L5.3626626,0.41 C1.43004336,0.41 0,4.13399249 0,7.92277972 C0,11.2921063 2.0020607,15.5174054 5.79167561,15.5174054 L36.10519,15.5174054 C39.2512854,15.5174054 39.537294,20.8203434 36.10519,20.8203434 L3.21759756,20.8203434 C0.718426545,20.8203434 0.786523848,25.83 3.21759756,25.83 L39.6802984,25.83 C43.4665084,25.83 46.33,21.7479313 46.33,17.8090931 C46.33,13.8702549 43.6129176,9.78818621 39.3227875,9.78818621 L10.4393165,9.78818621 C8.08314985,9.78818621 7.93674065,5.27983633 10.4393165,5.27983633 L43.8274241,5.27983633 C46.2584978,5.27642608 46.1869957,0.41 43.755922,0.41 L43.755922,0.41 Z" id="Path"></path>
                <path d="M52.07,3.47672732 L52.07,10.9597971 C52.07,13.5295327 53.8821873,15.8320157 56.5050901,15.8320157 L86.9784508,15.8320157 C90.7458929,15.8320157 90.8140203,20.8447131 86.9784508,20.8447131 L55.8885376,20.8447131 C52.6933652,20.8447131 52.7887435,25.83 55.8885376,25.83 L92.6057694,25.83 C96.1109213,25.83 98.4,22.9039278 98.4,19.5529927 L98.4,3.76796401 C98.4,0.434160466 91.4612301,0.482128862 91.4612301,3.76796401 L91.4612301,5.88199976 C91.4612301,10.5794763 90.2213124,10.7747762 86.1200463,10.7747762 L62.7557738,10.7747762 C59.0598655,10.7747762 58.916798,10.0038555 58.916798,6.45762052 L58.916798,3.29170636 C58.9099853,-0.0695076953 52.07,0.00244489916 52.07,3.47672732 Z" id="Path"></path>
                <path d="M147.485922,0.41 L109.092663,0.41 C105.160043,0.41 103.73,4.13299356 103.73,7.92758315 C103.73,11.2891872 105.732061,15.5201717 109.521676,15.5201717 L139.83519,15.5201717 C142.981285,15.5201717 143.267294,20.8148686 139.83519,20.8148686 L106.947598,20.8148686 C104.445022,20.8148686 104.516524,25.83 106.947598,25.83 L143.410298,25.83 C147.199913,25.83 150.06,21.7490263 150.06,17.804426 C150.06,13.8700536 147.342918,9.7856706 143.052788,9.7856706 L114.169317,9.7856706 C111.81315,9.7856706 111.666741,5.27853004 114.169317,5.27853004 L147.557424,5.27853004 C149.985093,5.27512071 149.916996,0.41 147.485922,0.41 Z" id="Path"></path>
                <path d="M157.447048,0.41 L199.53363,0.41 C201.828144,0.41 201.974966,4.47951386 199.53363,4.47951386 L192.650087,4.47951386 L185.834833,4.47951386 C182.46818,4.47951386 181.93211,6.62476302 181.93211,8.65782007 L181.93211,23.5453733 C181.93211,27.7542773 175.082712,27.6148871 175.082712,23.5453733 L175.082712,8.62382246 C175.082712,6.26778812 173.436945,4.5543086 170.780498,4.5543086 L157.37193,4.5543086 C155.299356,4.5543086 155.227652,0.41 157.447048,0.41 Z" id="Path"></path>
                <path d="M250.414121,0.41 L209.409903,0.41 C207.131891,0.41 205.82,2.28778398 205.82,4.052283 L205.82,18.7209685 C205.82,22.3289227 208.382764,25.01 212.030295,25.01 L249.556477,25.01 C252.549757,25.01 252.190428,19.798892 249.556477,19.798892 L216.457503,19.798892 C213.894739,19.798892 213.969317,15.3327184 216.457503,15.3327184 L245.146218,15.3327184 C248.702222,15.3327184 248.563236,10.0701172 245.146218,10.0701172 L216.457503,10.0701172 C213.748974,10.0701172 213.609988,5.16796818 216.457503,5.16796818 L250.271745,5.16796818 C253.336214,5.17140106 253.261636,0.41 250.414121,0.41 L250.414121,0.41 Z" id="Path"></path>
                <path d="M265.018737,0.00340063134 C259.886046,0.00340063134 257.89,3.31221492 257.89,7.13112392 L257.89,21.0907156 C257.89,25.7325773 264.944055,25.6611641 264.944055,21.0907156 L264.944055,9.30752797 C264.944055,4.24058728 278.488655,4.38001316 278.488655,9.30752797 L278.488655,21.3763686 C278.488655,25.1612713 285.332242,25.3006972 285.332242,21.3763686 L285.332242,8.95046168 C285.332242,4.30859991 297.444305,4.6656662 297.444305,8.95046168 L297.444305,21.6620216 C297.444305,26.2324701 304.22,26.0182304 304.22,21.6620216 L304.22,6.3047705 C304.22,2.52666908 301.938804,0 298.445723,0 L265.018737,0.00340063134 L265.018737,0.00340063134 Z" id="Path"></path>
            </g>
            <path d="M79.5441207,129.42429 C79.5441207,129.42429 57.8653707,129.42429 35.8619007,129.42429 L35.8619007,129.42429 C25.7463807,129.42429 16.8079707,126.13527 10.3640007,120.59535 L10.3640007,120.59535 C3.92003074,115.06527 -0.00735926409,107.2314 1.03533723e-05,98.41599 L1.03533723e-05,98.41599 C-0.00735926409,89.59935 3.92003074,81.76548 10.3640007,76.2354 L10.3640007,76.2354 C16.8092007,70.69548 25.7476107,67.40523 35.8619007,67.40523 L35.8619007,67.40523 C52.3635807,67.40523 79.5441207,67.40523 79.5441207,67.40523 L79.5441207,67.40523 L81.4321707,67.40523 L81.4321707,80.88849 L79.5441207,80.88849 C63.0424407,80.88849 46.8630207,80.88849 35.8619007,80.88849 L35.8619007,80.88849 C29.0058807,80.88972 23.3897007,83.18736 19.4979807,86.52927 L19.4979807,86.52927 C15.6025707,89.87856 13.4759007,94.24752 13.4820507,98.41599 L13.4820507,98.41599 C13.4759007,102.58323 15.6025707,106.95219 19.4979807,110.30148 L19.4979807,110.30148 C23.3909307,113.64462 29.0058807,115.94103 35.8619007,115.94226 L35.8619007,115.94226 C52.3635807,115.94226 79.5441207,115.94226 79.5441207,115.94226 L79.5441207,115.94226 L79.5441207,117.83031 L79.5441207,115.94226 L81.4321707,115.94226 L81.4321707,129.42429 L79.5441207,129.42429 L79.5441207,129.42429 Z M12.8240007,79.09761 C7.13525074,84.00285 3.78104074,90.72972 3.77366074,98.41599 L3.77366074,98.41599 C3.78104074,106.10226 7.13525074,112.82913 12.8240007,117.73437 L12.8240007,117.73437 C18.5139807,122.62854 26.5618707,125.64942 35.8606707,125.64942 L35.8606707,125.64942 C54.0031707,125.64942 71.9242707,125.64942 77.6560707,125.64942 L77.6560707,125.64942 L77.6560707,119.71836 C71.2170207,119.71836 49.7535207,119.71836 35.8606707,119.71836 L35.8606707,119.71836 C20.4684507,119.71713 9.76130074,109.34577 9.70595074,98.41722 L9.70595074,98.41722 C9.76130074,87.48744 20.4684507,77.11731 35.8606707,77.11608 L35.8606707,77.11608 C46.4423607,77.11608 61.8136707,77.11608 77.6560707,77.11608 L77.6560707,77.11608 L77.6560707,71.18379 C71.2170207,71.1825596 49.7535207,71.1825596 35.8606707,71.1825596 L35.8606707,71.1825596 C26.5618707,71.18133 18.5139807,74.20467 12.8240007,79.09761 L12.8240007,79.09761 Z" id="Shape" fill="#FFFFFF" fill-rule="nonzero"></path>
            <path d="M306.174901,129.42429 C296.059381,129.42429 287.119741,126.1365 280.678231,120.59535 L280.678231,120.59535 C274.231801,115.06527 270.305641,107.2314 270.31301,98.41599 L270.31301,98.41599 C270.305641,89.59935 274.231801,81.76548 280.678231,76.2354 L280.678231,76.2354 C287.119741,70.69548 296.060611,67.40646 306.174901,67.40646 L306.174901,67.40646 L335.296381,67.40646 L335.296381,69.29328 L335.296381,71.18133 L306.174901,71.18133 C296.872411,71.18133 288.826981,74.20344 283.137001,79.09638 L283.137001,79.09638 C277.448251,84.00285 274.094041,90.72849 274.087891,98.41599 L274.087891,98.41599 C274.095271,106.10226 277.448251,112.82913 283.137001,117.73437 L283.137001,117.73437 C288.826981,122.62854 296.873641,125.65065 306.174901,125.65065 L306.174901,125.65065 L335.296381,125.65065 C344.595181,125.65065 352.644301,122.62854 358.333051,117.73437 L358.333051,117.73437 C364.021801,112.82913 367.377241,106.10226 367.383391,98.41599 L367.383391,98.41599 C367.376011,90.72849 364.021801,84.00285 358.333051,79.09638 L358.333051,79.09638 C352.643071,74.20344 344.593951,71.18133 335.296381,71.18133 L335.296381,71.18133 L335.296381,69.29328 L335.296381,67.40646 C345.410671,67.40646 354.350311,70.69548 360.794281,76.2354 L360.794281,76.2354 C367.238251,81.76548 371.164411,89.59935 371.158268,98.41599 L371.158268,98.41599 C371.164411,107.2314 367.238251,115.06527 360.794281,120.59535 L360.794281,120.59535 C354.350311,126.1365 345.409441,129.42429 335.296381,129.42429 L335.296381,129.42429 L306.174901,129.42429 L306.174901,129.42429 Z M306.174901,119.71713 C290.782681,119.7159 280.073071,109.34331 280.017721,98.41599 L280.017721,98.41599 C280.073071,87.48621 290.782681,77.11608 306.174901,77.11362 L306.174901,77.11362 L335.296381,77.11362 C350.688601,77.11608 361.395751,87.48744 361.451101,98.41599 L361.451101,98.41599 C361.395751,109.34454 350.688601,119.7159 335.296381,119.71713 L335.296381,119.71713 L335.296381,117.82908 L335.296381,115.94226 C342.151171,115.94103 347.768581,113.64462 351.659071,110.30148 L351.659071,110.30148 C355.555711,106.95342 357.682381,102.58323 357.677461,98.41599 L357.677461,98.41599 C357.683611,94.24752 355.555711,89.87856 351.659071,86.52927 L351.659071,86.52927 C347.768581,83.18736 342.152401,80.88972 335.296381,80.88849 L335.296381,80.88849 L306.174901,80.88849 C299.317651,80.88972 293.701471,83.18736 289.809751,86.52927 L289.809751,86.52927 C285.914341,89.87856 283.787671,94.24752 283.792591,98.41599 L283.792591,98.41599 C283.786441,102.58323 285.914341,106.95342 289.809751,110.30148 L289.809751,110.30148 C293.701471,113.64462 299.316421,115.94103 306.174901,115.94226 L306.174901,115.94226 L335.296381,115.94226 L335.296381,117.82908 L335.296381,119.71713 L306.174901,119.71713 L306.174901,119.71713 Z" id="Shape" fill="#FFFFFF" fill-rule="nonzero"></path>
            <path d="M104.494261,129.42429 C95.6358007,129.42429 88.8572707,129.42429 88.8425107,129.42429 L88.8425107,129.42429 L86.9544607,129.42429 L86.9544607,67.4052297 L88.8425107,67.4052297 C88.8548107,67.4052297 94.2618907,67.4052297 102.431551,67.4052297 L102.431551,67.4052297 C110.601211,67.4052297 121.522381,67.4052297 132.522271,67.4052297 L132.522271,67.4052297 L132.522271,69.29451 L132.522271,71.18133 C121.521151,71.1801 110.601211,71.1801 102.431551,71.18133 L102.431551,71.18133 C97.1241007,71.1801 92.9814607,71.1801 90.7281007,71.1801 L90.7281007,71.1801 L90.7281007,125.64819 C93.3406207,125.64942 98.4303607,125.64942 104.494261,125.64942 L104.494261,125.64942 C113.351491,125.64819 124.272661,125.64819 132.523501,125.64942 L132.523501,125.64942 C141.823531,125.64819 149.871421,122.62731 155.561401,117.73314 L155.561401,117.73314 C161.251381,112.8279 164.605591,106.10103 164.610511,98.41476 L164.610511,98.41476 C164.605591,90.72849 161.252611,84.00162 155.561401,79.09638 L155.561401,79.09638 C149.872651,74.20221 141.823531,71.1801 132.523501,71.17887 L132.523501,71.17887 L132.523501,69.29328 L132.523501,67.4052297 C142.639021,67.404 151.579891,70.69425 158.020171,76.23417 L158.020171,76.23417 C164.467831,81.76425 168.393991,89.59812 168.386621,98.41476 L168.386621,98.41476 C168.393991,107.23017 164.467831,115.06404 158.020171,120.59412 L158.020171,120.59412 C151.578661,126.13404 142.637791,129.42306 132.523501,129.42306 L132.523501,129.42306 C124.272661,129.42429 113.351491,129.42429 104.494261,129.42429 L104.494261,129.42429 Z M98.5496707,119.71713 L96.6616207,119.71713 L96.6616207,77.11362 L98.5496707,77.11362 C109.335541,77.11362 121.789291,77.11362 132.523501,77.11362 L132.523501,77.11362 C147.918181,77.11485 158.624101,87.48621 158.679451,98.41476 L158.679451,98.41476 C158.624101,109.34454 147.918181,119.71467 132.523501,119.7159 L132.523501,119.7159 L132.523501,117.82908 L132.523501,115.94103 C139.379521,115.9398 144.998161,113.64339 148.887421,110.30025 L148.887421,110.30025 C152.782831,106.95096 154.909501,102.582 154.904581,98.41476 L154.904581,98.41476 C154.909501,94.24629 152.782831,89.87733 148.887421,86.52804 L148.887421,86.52804 C144.996931,83.18613 139.379521,80.88849 132.523501,80.88726 L132.523501,80.88726 C122.410441,80.88726 110.769721,80.88726 100.436491,80.88726 L100.436491,80.88726 L100.436491,115.94103 C113.853331,115.94103 123.988531,115.94103 132.523501,115.94103 L132.523501,115.94103 L132.523501,117.82908 L132.523501,119.7159 C123.592471,119.71713 112.909921,119.71713 98.5496707,119.71713 L98.5496707,119.71713 Z" id="Shape" fill="#FFFFFF" fill-rule="nonzero"></path>
            <path d="M252.387411,129.42429 L252.387411,127.53747 C252.384951,127.53747 252.384951,117.82908 252.387411,112.97673 L252.387411,112.97673 C252.399711,111.19077 251.442771,109.16373 249.905271,107.6373 L249.905271,107.6373 C248.378841,106.10103 246.351801,105.14286 244.565841,105.15516 L244.565841,105.15516 C239.917671,105.15516 217.451721,105.15516 202.771671,105.15516 L202.771671,105.15516 L202.771671,129.42306 L189.288411,129.42306 L189.288411,67.4037946 L191.176461,67.4037946 C191.202291,67.4037946 203.310411,67.4037946 216.658371,67.4037946 L216.658371,67.4037946 C230.005101,67.4037946 244.565841,67.4037946 249.419421,67.4037946 L249.419421,67.4037946 C254.762541,67.3794 259.079841,69.56634 261.828891,73.11858 L261.828891,73.11858 C264.590241,76.66098 265.864521,81.39033 265.868211,86.55018 L265.868211,86.55018 C265.842381,89.59566 264.463551,92.79981 262.441431,95.45538 L262.441431,95.45538 C261.350421,96.85143 260.052771,98.12817 258.564471,99.01992 L258.564471,99.01992 C259.168401,99.507 259.814151,100.07034 260.463591,100.71978 L260.463591,100.71978 C263.099481,103.34829 265.869441,107.45895 265.869441,112.9755 L265.869441,112.9755 C265.869441,122.68389 265.869441,127.53624 265.869441,127.53624 L265.869441,127.53624 L265.869441,129.42306 L252.387411,129.42306 L252.387411,129.42429 Z M262.093341,125.65065 C262.093341,123.41328 262.093341,119.18946 262.095037,112.97673 L262.095037,112.97673 C262.093341,109.04319 260.265561,106.02354 258.205311,103.81569 L258.205311,103.81569 C256.156131,101.62506 253.915071,100.35693 253.495641,100.13922 L253.495641,100.13922 C253.439061,100.1097 253.430451,100.10478 253.430451,100.10478 L253.430451,100.10478 L254.274231,98.41599 L253.430451,100.10478 L254.274231,96.52917 C255.752691,96.58083 257.851071,95.26842 259.453761,93.15282 L259.453761,93.15282 C261.069981,91.08888 262.120401,88.36197 262.095037,86.55264 L262.095037,86.55264 C262.097031,82.00656 260.945751,78.10746 258.853521,75.4482 L258.853521,75.4482 C256.750221,72.79878 253.785921,71.20839 249.419421,71.18256 L249.419421,71.18256 C240.858621,71.18256 202.100091,71.18256 193.065741,71.18256 L193.065741,71.18256 L193.065741,125.65188 L198.996801,125.65188 L198.996801,101.38398 L200.884851,101.38398 C215.445591,101.38398 239.712261,101.38398 244.567071,101.38398 L244.567071,101.38398 C247.633461,101.39751 250.461231,102.86736 252.575601,104.96943 L252.575601,104.96943 C254.680131,107.0838 256.147521,109.9128 256.161051,112.97919 L256.161051,112.97919 C256.161051,116.50191 256.161051,122.58303 256.161051,125.65311 L256.161051,125.65311 L262.093341,125.65311 L262.093341,125.65065 Z M219.086391,95.45046 C209.378001,95.45046 200.903301,95.45046 200.884851,95.45046 L200.884851,95.45046 L198.996801,95.45046 L198.996801,77.11362 L200.884851,77.11362 C200.903301,77.11362 209.378001,77.11362 219.086391,77.11362 L219.086391,77.11362 C228.793551,77.11362 239.713491,77.11362 244.567071,77.11362 L244.567071,77.11362 C247.340721,77.11977 250.109451,77.86146 252.327141,79.41372 L252.327141,79.41372 C254.539911,80.93646 256.181961,83.46657 256.161562,86.55141 L256.161562,86.55141 C256.195491,89.64117 254.485791,92.11224 252.247191,93.47508 L252.247191,93.47508 C250.006131,94.87482 247.269381,95.44308 244.567071,95.45046 L244.567071,95.45046 L244.567071,93.56241 L244.567071,91.67559 C246.717111,91.68174 248.836401,91.17252 250.234911,90.27954 L250.234911,90.27954 C251.637111,89.35089 252.355431,88.31523 252.387411,86.55141 L252.387411,86.55141 C252.366501,84.78267 251.581761,83.53914 250.154961,82.50102 L250.154961,82.50102 C248.730621,81.48873 246.647001,80.88357 244.567071,80.88849 L244.567071,80.88849 C239.713491,80.88849 228.793551,80.88849 219.086391,80.88849 L219.086391,80.88849 C212.128281,80.88849 205.802391,80.88849 202.771671,80.88849 L202.771671,80.88849 L202.771671,91.67559 C205.802391,91.67559 212.127051,91.67559 219.086391,91.67559 L219.086391,91.67559 C228.793551,91.67559 239.713491,91.67559 244.567071,91.67559 L244.567071,91.67559 L244.567071,93.56241 L244.567071,95.45046 C239.712261,95.45046 228.792321,95.45046 219.086391,95.45046 L219.086391,95.45046 Z" id="Shape" fill="#FFFFFF" fill-rule="nonzero"></path>
            <path d="M445.450671,129.42429 L445.450671,127.53747 C445.450671,127.53747 445.450671,98.41599 445.450671,88.70883 L445.450671,88.70883 C445.445751,86.58954 444.942681,85.21563 444.216981,84.20211 L444.216981,84.20211 C443.486361,83.19351 442.459311,82.4838 441.177651,81.96843 L441.177651,81.96843 C438.621711,80.93154 435.186321,80.87742 432.779211,80.89095 L432.779211,80.89095 L424.958871,80.88972 L424.958871,129.42552 L411.476841,129.42552 L411.476841,80.89095 L403.656501,80.89095 C401.844711,80.88726 399.472041,80.89956 397.309701,81.36081 L397.309701,81.36081 C395.126451,81.82329 393.296211,82.69905 392.218731,84.20334 L392.218731,84.20334 C391.491801,85.21686 390.989961,86.59077 390.982581,88.71006 L390.982581,88.71006 C390.982581,98.41845 390.982581,127.5387 390.982581,127.5387 L390.982581,127.5387 L390.982581,129.42552 L377.500395,129.42552 L377.500395,127.5387 C377.500395,112.97796 377.500395,93.56364 377.500395,83.85648 L377.500395,83.85648 C377.475951,78.34239 380.361531,74.02386 384.408231,71.36337 L384.408231,71.36337 C388.456161,68.67582 393.638151,67.41384 398.802921,67.40769 L398.802921,67.40769 C403.655271,67.4067675 432.779211,67.4067675 437.631561,67.40769 L437.631561,67.40769 C442.795101,67.41384 447.975861,68.67582 452.025021,71.36337 L452.025021,71.36337 C456.071721,74.02386 458.958531,78.34239 458.932873,83.85648 L458.932873,83.85648 L458.932873,129.42552 L445.450671,129.42552 L445.450671,129.42429 Z M455.159061,125.65065 L455.159061,83.85648 C455.132001,79.66218 453.165231,76.70157 449.931561,74.50479 L449.931561,74.50479 C446.699121,72.33876 442.172721,71.17641 437.631561,71.1813144 L437.631561,71.1813144 C432.776751,71.1813144 403.655271,71.1813144 398.802921,71.1813144 L398.802921,71.1813144 C394.259301,71.17641 389.732901,72.33876 386.501691,74.50479 L386.501691,74.50479 C383.266791,76.70034 381.300021,79.66095 381.275421,83.85648 L381.275421,83.85648 C381.275421,93.1479 381.275421,111.34083 381.275421,125.65065 L381.275421,125.65065 L387.207711,125.65065 C387.205251,119.04309 387.205251,96.924 387.207711,88.70883 L387.207711,88.70883 C387.200331,85.97331 387.911271,83.70888 389.156031,81.99303 L389.156031,81.99303 C390.399561,80.27226 392.101881,79.16157 393.854631,78.46293 L393.854631,78.46293 C397.366281,77.07426 401.211261,77.12715 403.655271,77.11485 L403.655271,77.11485 L413.362431,77.11485 L413.362431,79.00167 L413.362431,77.11485 L415.250481,77.11485 L415.250481,125.65065 L421.181541,125.65065 L421.181541,77.11485 L432.779211,77.11485 C434.604531,77.11608 437.236731,77.10378 439.909521,77.66589 L439.909521,77.66589 C442.560171,78.228 445.395321,79.40142 447.275991,81.99303 L447.275991,81.99303 C448.521981,83.70888 449.232921,85.97331 449.225541,88.70883 L449.225541,88.70883 C449.225541,96.924 449.225541,119.04309 449.225541,125.65065 L449.225541,125.65065 L455.159061,125.65065 L455.159061,125.65065 Z" id="Shape" fill="#FFFFFF" fill-rule="nonzero"></path>
            <path d="M488.063474,58.343 L488.399977,58.3496101 C491.170103,58.4476985 493.092417,59.6134923 494.444767,61.2913942 L494.444767,61.2913942 L494.659523,61.5720506 C495.913488,63.2848868 496.544882,65.5052103 496.539091,67.5484602 L496.539091,67.5484602 L496.534152,67.9173928 C496.453755,71.1976714 495.407313,73.3991198 493.754465,74.866752 L493.754465,74.866752 L493.525809,75.0610512 C491.816577,76.4549354 489.397105,77.1668917 486.468766,77.1668917 L486.468766,77.1668917 L482.854833,77.1668917 L482.431655,77.1640879 C481.857009,77.1571862 481.243145,77.1399321 480.619043,77.1399321 L480.619043,77.1399321 L480.281793,77.143217 C479.042989,77.1604411 477.784109,77.2456258 476.648269,77.7612272 L476.648269,77.7612272 L476.484831,77.8354589 C475.2993,78.4140267 474.409858,79.7389178 474.460468,81.4068933 L474.460468,81.4068933 L474.460468,82.4815989 L496.00256,82.4815989 L496.00256,88.273 L465.789131,88.273 L465.789131,84.58812 L465.790285,84.2030048 C465.814644,81.3673621 466.199263,78.2951967 467.639892,76.0235617 C469.149697,73.6707285 471.6968,71.9465428 476.885753,71.9134561 L476.885753,71.9134561 L482.937276,71.9134561 L483.218842,71.908126 C484.344236,71.8695725 485.454468,71.6189749 486.380171,70.9674211 L486.380171,70.9674211 L486.545422,70.8461592 C487.462679,70.1307106 488.048777,68.9396001 488.02902,67.5484602 L488.02902,67.5484602 L488.029156,67.3315605 C487.98812,65.8287636 487.076346,64.6573829 485.985186,64.1883202 L485.985186,64.1883202 L485.701103,64.0671277 C484.652639,63.6560648 483.534471,63.6020521 482.523833,63.5964356 L482.523833,63.5964356 L468.965124,63.5964356 L468.965124,58.343 L488.063474,58.343 Z" id="Combined-Shape" fill="#FFFFFF" fill-rule="nonzero"></path>
            <circle id="Oval" stroke="#FFFFFF" stroke-width="3.69" cx="178.994131" cy="98.728" r="4.92"></circle>
            <path d="M13.0945615,50.6188824 C5.73485262,48.5238908 1.09058901,45.2568189 0.522052354,41.0723009 C-0.418475117,34.1748778 9.94941803,26.5617037 26.0761554,21.0321944" id="path22" stroke="#FFFFFF" stroke-width="1.03423314" stroke-linecap="round" stroke-linejoin="round"></path>
            <path d="M54.6372866,14.8479122 C60.6741054,14.558918 66.4449786,13.9460609 71.7931459,13.0677015" id="path24" stroke="#FFFFFF" stroke-width="1.03423314" stroke-linecap="round" stroke-linejoin="round" transform="translate(63.215216, 13.957807) scale(-1, 1) rotate(-170.000000) translate(-63.215216, -13.957807) "></path>
            <path d="M80.2438877,46.8862913 C97.489282,43.2287997 109.110664,36.6841724 108.887861,29.5711602 C108.585422,19.8482015 86.2671137,12.5549519 58.1334607,12.6304362" id="path26" stroke="#FFFFFF" stroke-width="1.03423314" stroke-linecap="round" stroke-linejoin="round" transform="translate(83.512235, 29.758073) scale(-1, 1) rotate(-170.000000) translate(-83.512235, -29.758073) "></path>
            <polyline id="path28" fill="#FFFFFF" fill-rule="nonzero" transform="translate(63.681392, 22.715789) scale(-1, 1) rotate(-170.000000) translate(-63.681392, -22.715789) " points="66.407926 21.6170638 80.0615763 32.0248474 64.0247573 25.6235353 59.5181603 30.3143735 60.9550056 23.814366 47.3012075 13.4067302 63.338322 19.8098153 67.8447713 15.1188293 66.407926 21.6170638"></polyline>
            <path d="M35.9212473,45.2571908 L36.9937471,51.026291 L41.0155843,51.6642651 C41.5430432,51.7477425 41.8126825,51.4470762 41.7079295,50.890511 L40.9748059,46.9422521 C40.8700529,46.383914 40.4706911,45.9786423 39.9432322,45.8951649 L35.9212473,45.2571908 L35.9212473,45.2571908 Z M81.6415916,28.7257129 L82.7390607,34.6246832 C83.0864153,36.4901443 85.0914978,38.3226577 86.7997555,38.5942177 L94.1899422,39.7654129 C95.4350112,39.9632469 96.2999256,38.5727943 96.0457997,37.211448 L95.6830794,35.3130392 C95.4291013,33.9518407 94.0387964,32.5049485 92.7938752,32.3072623 L85.1225248,31.0895266 L85.0118619,30.4011706 C84.8664782,29.6176651 85.3862543,29.0067288 86.1037166,29.1212332 L94.6786912,30.4865687 L94.1008504,27.3758909 L84.4282589,25.8419754 C82.7198535,25.5705631 81.2963055,26.8581834 81.6415916,28.7257129 L81.6415916,28.7257129 Z M62.4744444,34.7351984 L65.5638465,35.2237997 L63.1920544,22.4717051 L60.0333587,21.9713136 L62.4029345,34.7216056 L62.4744444,34.7351984 L62.4744444,34.7351984 Z M41.9328013,19.0993516 L38.7718893,18.5993737 L40.3117147,26.8796068 C40.5055596,27.9170903 40.1914482,28.2542503 39.1909015,28.0954217 L33.6834623,27.2206082 L31.8781345,17.5054654 L28.7172225,17.0033008 L31.0869461,29.7553659 L31.1606722,29.7670379 L41.6457277,31.4306758 C43.2320936,31.6828809 44.0930188,30.7210441 43.7808282,29.0436657 L41.9328013,19.0993516 Z M26.7529183,19.933372 L26.1322307,16.5939809 L12.9167701,14.4977676 L17.0355593,36.6627135 L27.9532197,38.3943152 L27.3888239,35.357659 L19.6320754,34.1261828 L18.4472875,27.7501356 L24.7671907,28.7527507 L24.2027949,25.7177197 L17.8830394,24.7152523 L16.6963308,18.3374025 L26.7529183,19.933372 Z M27.2047304,22.3631254 L19.7349077,21.1784852 L20.0160714,22.6946562 L26.048901,23.6527994 L27.5169211,31.5471009 L21.4840915,30.5891055 L21.7652551,32.1075075 L29.2349301,33.2924432 L27.2047304,22.3631254 L27.2047304,22.3631254 Z M43.7808282,17.0361895 L43.8294371,17.3018544 C44.034954,17.2865034 44.3102078,17.2068527 44.5505931,17.2436714 L50.7619018,18.217195 C50.5311201,16.9778439 48.89452,16.667574 46.396847,16.2723492 L43.5540356,15.8202711 L42.0297237,7.62351548 L45.7646351,8.21496682 C54.9601496,9.12240002 58.4588126,13.8751445 59.581251,19.5417227 L70.7858373,21.3198945 L72.5911651,31.0353032 L73.5027678,31.1806869 C74.5015415,31.3396633 74.3540894,31.5200631 74.1621653,30.4824318 L72.5097562,21.5932275 L80.5537261,22.8692939 L80.6640935,23.4588068 C81.2711884,23.1912359 81.9809678,23.0960864 82.7315255,23.21458 L96.6429955,25.421338 L97.9403671,32.4041847 L97.0386635,33.0462957 C97.8202483,33.9711956 98.4289683,35.1036809 98.6055267,36.0538457 L98.8246364,37.155304 C99.5189023,41.2740635 95.721937,42.367839 93.9882668,42.0924374 L86.0047257,40.8260928 C84.590929,40.601221 83.0339649,39.6161878 81.9014796,38.3109856 C80.8542447,39.3484692 79.2369995,39.7518201 78.2964384,39.602595 L69.4091253,38.1927875 L70.4039098,35.9937124 L78.4205463,37.2638984 C79.576228,37.4479919 80.3479137,36.9865762 80.5594882,36.0712799 C80.4742379,35.8288261 78.4205463,24.8879692 78.4205463,24.8879692 L75.5465602,24.4321679 L77.0865333,32.7144546 C77.2784575,33.7517904 76.9643461,34.087473 75.9655724,33.9284966 L70.4581332,33.0538308 L68.6510324,23.3385402 L65.4918934,22.8361984 L67.5591777,33.9595236 L64.9586723,37.0273545 L55.5963508,33.6433437 L60.0333587,34.347361 L60.1048685,34.3569646 L57.2834805,19.1771998 C56.5658704,15.3199534 52.4509523,11.6335328 48.8012913,11.0537418 L45.0665277,10.4621752 L45.6328442,13.4991417 L48.4737349,13.9490183 C50.9714079,14.3464889 53.7831923,16.8459053 54.2679522,19.4601808 L54.5743807,21.1046114 L47.1763633,19.9313478 C45.5901452,19.6792609 44.7290722,20.6430184 45.0414106,22.3186238 L46.3677407,29.4548473 C46.6023639,30.7229648 47.3935523,31.7759619 48.4524592,32.3227757 L48.4697457,32.5130746 L52.1813129,35.3693311 L50.0134125,35.00469 C48.8596516,34.8223695 46.720562,33.9576028 45.3612841,32.2239326 C44.3335519,33.4493511 42.535907,33.9304173 41.5236882,33.7695202 L33.549603,32.5031756 L34.8490431,39.4880907 L40.6666044,40.4112176 C43.7633939,40.9017396 47.1899561,44.3845936 47.7988239,47.655873 L48.6734896,52.3623725 C49.2823575,55.6357204 46.9805977,58.2090402 43.8836605,57.7183704 L31.1702758,55.7016158 L28.4613237,41.1267592 L16.7543956,39.268981 C15.7636003,39.1119253 14.799695,38.134575 14.6058501,37.0873401 L10.2309405,13.5552858 C10.0370218,12.5081838 10.6827822,11.7849741 11.6737253,11.9418968 L34.0113142,15.4868048 L35.8185627,25.2022284 L36.7280969,25.347612 C37.7286436,25.5046677 37.5813392,25.6849197 37.3873467,24.6474361 L35.7350854,15.760256 L43.7808282,17.0361895 Z M85.71189,34.2581214 L85.6440738,33.8896389 L91.6204639,34.837883 C92.0917787,34.9136775 92.5515692,35.3906067 92.6484916,35.9063936 C92.7434933,36.4221804 92.4389855,36.7791386 91.9678184,36.7034918 L90.4316867,36.461038 L87.9829182,36.0712799 L87.3622305,35.9743575 C86.6446205,35.8598531 85.8572736,35.0416269 85.71189,34.2581214 L85.71189,34.2581214 Z M48.9313092,28.246863 L48.2234505,24.4380778 C48.0296056,23.3988213 48.343717,23.0632865 49.3444114,23.2222629 L55.138481,24.1412529 L56.3797085,30.820035 L50.5854912,29.9026702 C49.5847968,29.7436938 49.123381,29.2861195 48.9313092,28.246863 L48.9313092,28.246863 Z M50.903444,26.8581834 C51.0993573,27.8220886 51.4561678,27.6823194 52.4335181,27.8373066 L53.3430522,27.981065 L53.0599679,26.4645838 L52.1502859,26.3192001 C51.1730834,26.1639174 50.7425469,25.9021087 50.903444,26.8581834" id="path30" fill="#FFFFFF" fill-rule="nonzero" transform="translate(54.552496, 32.701046) scale(-1, 1) rotate(-170.000000) translate(-54.552496, -32.701046) "></path>
            <path d="M58.7385324,9.51758495 L57.8851423,12.8995273 L57.4042239,12.8413148 L57.2493845,12.0074273 C57.1427107,11.4295865 56.677158,10.9584195 56.1321172,10.8711006 L52.8280378,10.3474832 C52.2829969,10.2603121 51.9706585,10.6092919 52.0776278,11.1871327 L53.7431864,20.1443304 C53.8498601,20.7202505 54.3151173,21.1915653 54.8601582,21.2787364 L58.164533,21.8023539 C58.7092784,21.8896727 59.0217646,21.5405452 58.9147953,20.9644773 L58.7015955,19.8243091 L65.3822983,20.8851368 L65.6362764,22.2503246 C66.2760235,25.6962416 63.9336332,28.3161019 60.6718096,27.8001673 L54.2803966,26.7860279 C51.0204938,26.2683203 47.5299569,22.7234124 46.8900621,19.2776431 L45.1119199,9.71349825 C44.4718773,6.26758119 46.8144154,3.64772091 50.0762389,4.16542847 L52.2131123,4.50288396 L58.7385324,9.51758495" id="path32" fill="#FFFFFF" fill-rule="nonzero" transform="translate(55.374057, 15.982590) scale(-1, 1) rotate(-170.000000) translate(-55.374057, -15.982590) "></path>
            <path d="M63.9265492,16.7319953 C64.1013346,17.2013893 64.2214534,17.3797207 64.3108407,17.8606391 L64.5376333,19.076454 L61.8787676,18.6537482 L63.9265492,16.7319953" id="path34" fill="#FFFFFF" fill-rule="nonzero" transform="translate(63.208200, 17.904225) scale(-1, 1) rotate(-170.000000) translate(-63.208200, -17.904225) "></path>
            <g id="Group-20" transform="translate(0.000000, 9.963000)" fill="#FFFFFF" fill-rule="nonzero">
                <path d="M7.10059109,0.30356854 L12.3816706,0.30356854 L12.031456,2.31024471 C12.031456,2.31024471 11.8760044,1.22240028 11.2260205,0.796676137 C11.0646591,0.721113796 10.6512296,0.726337728 9.61520239,0.726337728 L9.20963524,3.11905726 C10.0357026,3.31329258 10.9517904,2.0545886 10.9517904,2.0545886 L10.424912,4.83693964 C10.424912,4.83693964 10.1017141,3.57712757 9.08953755,3.61891903 L8.64054317,6.09390231 C10.1147476,6.09390231 10.0861478,6.08355997 10.4423251,5.86589611 C10.7859965,5.65593622 11.5885298,4.62201966 11.6188181,4.47722702 L11.2914516,6.55102281 L5.95290889,6.55102281 C5.99248414,6.27484034 6.51260844,6.24518529 6.74536366,6.08672599 L7.18206334,3.67944278 C7.14686775,3.46425896 6.72462623,3.64962942 6.63893263,3.46489216 C6.71143448,3.26706869 7.13599775,3.39676997 7.25926146,3.25398247 L7.70234594,0.81155643 C7.62324821,0.626924704 7.10059109,0.536482069 7.10059109,0.30356854 Z" id="Path"></path>
                <path d="M17.0633697,0.115718027 C17.2957556,0.595158971 17.4826035,1.12177361 17.6527243,1.66580136 C17.3297903,1.79107022 16.8820623,1.99464529 16.8820623,1.99464529 L16.0320387,0.81366711 C15.1466613,0.744384042 13.9501696,2.06303132 13.8595686,2.886988 C13.7536125,3.86180552 14.3600109,4.8246977 15.3101862,4.90690868 C16.3000423,4.99297166 17.4861917,4.1554011 17.4861917,4.1554011 L16.3981889,6.55102281 C14.1542196,7.34944026 12.4937477,5.88367859 12.4087928,4.1554011 C12.2784583,1.51699843 14.6661122,0.0628454947 17.0633697,0.115718027 Z" id="Path"></path>
                <path d="M4.79203493,3.57718033 L5.55937262,1.89359639e-14 L7.01927715,0.897038967 L5.85228222,1.58533169 L4.79430391,6.74246148 L1.38196768,2.90218489 L0.914610377,5.28007689 L1.74474079,5.964887 L2.54907206e-14,6.74246148 L0.847701824,2.72631249 C0.940044071,2.11949201 0.520440902,1.9105347 0.151071915,1.78521308 L1.64580267,0.0629510287 L4.79203493,3.57718033 Z" id="Path"></path>
            </g>
        </g>
    </g>
</svg>