<svg width="723" height="85" viewBox="0 0 723 85" fill="none" xmlns="http://www.w3.org/2000/svg">
<g id="gamemeta">
<g id="GAME DETAILS">
<g id="ICON DIVIDERS" opacity="0.351446">
<rect id="Rectangle" x="170" width="1" height="73" fill="white"/>
<rect id="Rectangle_2" x="361" width="1" height="73" fill="white"/>
<rect id="Rectangle_3" x="552" width="1" height="73" fill="white"/>
</g>
<g id="MD_LBL_PLAYERS INFO">
<g id="PLAYERS - ICON">
<path id="Oval" d="M258.5 8C258.5 11.5899 255.59 14.5 252 14.5C248.41 14.5 245.5 11.5899 245.5 8C245.5 4.41015 248.41 1.5 252 1.5C255.59 1.5 258.5 4.41015 258.5 8Z" stroke="white" stroke-width="3"/>
<path id="Rectangle_4" d="M245 19.5H259C262.038 19.5 264.5 21.9624 264.5 25V36.5H239.5V25C239.5 21.9624 241.962 19.5 245 19.5Z" stroke="white" stroke-width="3"/>
<path id="Oval_2" d="M287.5 8C287.5 11.5899 284.59 14.5 281 14.5C277.41 14.5 274.5 11.5899 274.5 8C274.5 4.41015 277.41 1.5 281 1.5C284.59 1.5 287.5 4.41015 287.5 8Z" stroke="white" stroke-width="3"/>
<path id="Rectangle_5" d="M274 19.5H288C291.038 19.5 293.5 21.9624 293.5 25V36.5H268.5V25C268.5 21.9624 270.962 19.5 274 19.5Z" stroke="white" stroke-width="3"/>
</g>
</g>
<g id="MD_DEVELOPER INFO">
<g id="PROCESSOR - ICON">
<g id="Group 51">
<rect id="Rectangle_6" x="420" y="13" width="8" height="3" rx="1.5" fill="white"/>
<rect id="Rectangle_7" x="420" y="18" width="8" height="3" rx="1.5" fill="white"/>
<rect id="Rectangle_8" x="420" y="23" width="8" height="3" rx="1.5" fill="white"/>
</g>
<g id="Group 52">
<rect id="Rectangle_9" x="448" y="1" width="7" height="3" rx="1.5" transform="rotate(90 448 1)" fill="white"/>
<rect id="Rectangle_10" x="443" y="1" width="7" height="3" rx="1.5" transform="rotate(90 443 1)" fill="white"/>
<rect id="Rectangle_11" x="438" y="1" width="7" height="3" rx="1.5" transform="rotate(90 438 1)" fill="white"/>
<rect id="Rectangle_12" x="463" y="1" width="7" height="3" rx="1.5" transform="rotate(90 463 1)" fill="white"/>
<rect id="Rectangle_13" x="458" y="1" width="7" height="3" rx="1.5" transform="rotate(90 458 1)" fill="white"/>
<rect id="Rectangle_14" x="453" y="1" width="7" height="3" rx="1.5" transform="rotate(90 453 1)" fill="white"/>
<rect id="Rectangle_15" x="478" y="1" width="7" height="3" rx="1.5" transform="rotate(90 478 1)" fill="white"/>
<rect id="Rectangle_16" x="468" y="1" width="7" height="3" rx="1.5" transform="rotate(90 468 1)" fill="white"/>
<rect id="Rectangle_17" x="473" y="1" width="7" height="3" rx="1.5" transform="rotate(90 473 1)" fill="white"/>
</g>
<g id="Group 52_2">
<rect id="Rectangle_18" x="448" y="31" width="7" height="3" rx="1.5" transform="rotate(90 448 31)" fill="white"/>
<rect id="Rectangle_19" x="443" y="31" width="7" height="3" rx="1.5" transform="rotate(90 443 31)" fill="white"/>
<rect id="Rectangle_20" x="438" y="31" width="7" height="3" rx="1.5" transform="rotate(90 438 31)" fill="white"/>
<rect id="Rectangle_21" x="463" y="31" width="7" height="3" rx="1.5" transform="rotate(90 463 31)" fill="white"/>
<rect id="Rectangle_22" x="458" y="31" width="7" height="3" rx="1.5" transform="rotate(90 458 31)" fill="white"/>
<rect id="Rectangle_23" x="453" y="31" width="7" height="3" rx="1.5" transform="rotate(90 453 31)" fill="white"/>
<rect id="Rectangle_24" x="478" y="31" width="7" height="3" rx="1.5" transform="rotate(90 478 31)" fill="white"/>
<rect id="Rectangle_25" x="468" y="31" width="7" height="3" rx="1.5" transform="rotate(90 468 31)" fill="white"/>
<rect id="Rectangle_26" x="473" y="31" width="7" height="3" rx="1.5" transform="rotate(90 473 31)" fill="white"/>
</g>
<g id="Group 51_2">
<rect id="Rectangle_27" x="486" y="13" width="8" height="3" rx="1.5" fill="white"/>
<rect id="Rectangle_28" x="486" y="18" width="8" height="3" rx="1.5" fill="white"/>
<rect id="Rectangle_29" x="486" y="23" width="8" height="3" rx="1.5" fill="white"/>
</g>
<path id="Rectangle (Stroke)" fill-rule="evenodd" clip-rule="evenodd" d="M428 9V30H485V9H428ZM427.556 6C426.144 6 425 7.14416 425 8.55556V30.4444C425 31.8558 426.144 33 427.556 33H485.444C486.856 33 488 31.8558 488 30.4444V8.55556C488 7.14416 486.856 6 485.444 6H427.556Z" fill="white"/>
<path id="Rectangle (Stroke)_2" fill-rule="evenodd" clip-rule="evenodd" d="M480 14H433V25H480V14ZM431 12V27H482V12H431Z" fill="white"/>
</g>
</g>
<g id="RELEASEDATE - INFO">
<g id="RELEASEDATE - ICON">
<rect id="Rectangle_30" x="632" width="10" height="3" rx="1.5" transform="rotate(90 632 0)" fill="white"/>
<rect id="Rectangle_31" x="620" y="11" width="57" height="2" fill="white"/>
<rect id="Rectangle_32" x="668" width="10" height="3" rx="1.5" transform="rotate(90 668 0)" fill="white"/>
<path id="Rectangle (Stroke)_3" fill-rule="evenodd" clip-rule="evenodd" d="M623 6V35H674V6H623ZM622.556 3C621.144 3 620 4.14416 620 5.55556V35.4444C620 36.8558 621.144 38 622.556 38H674.444C675.856 38 677 36.8558 677 35.4444V5.55556C677 4.14416 675.856 3 674.444 3H622.556Z" fill="white"/>
<path id="Oval_3" fill-rule="evenodd" clip-rule="evenodd" d="M634.5 18C635.328 18 636 17.3284 636 16.5C636 15.6716 635.328 15 634.5 15C633.672 15 633 15.6716 633 16.5C633 17.3284 633.672 18 634.5 18Z" fill="white"/>
<path id="Oval_4" fill-rule="evenodd" clip-rule="evenodd" d="M641.5 18C642.328 18 643 17.3284 643 16.5C643 15.6716 642.328 15 641.5 15C640.672 15 640 15.6716 640 16.5C640 17.3284 640.672 18 641.5 18Z" fill="white"/>
<path id="Oval_5" fill-rule="evenodd" clip-rule="evenodd" d="M648.5 18C649.328 18 650 17.3284 650 16.5C650 15.6716 649.328 15 648.5 15C647.672 15 647 15.6716 647 16.5C647 17.3284 647.672 18 648.5 18Z" fill="white"/>
<path id="Oval_6" fill-rule="evenodd" clip-rule="evenodd" d="M655.5 18C656.328 18 657 17.3284 657 16.5C657 15.6716 656.328 15 655.5 15C654.672 15 654 15.6716 654 16.5C654 17.3284 654.672 18 655.5 18Z" fill="white"/>
<path id="Oval_7" fill-rule="evenodd" clip-rule="evenodd" d="M662.5 18C663.328 18 664 17.3284 664 16.5C664 15.6716 663.328 15 662.5 15C661.672 15 661 15.6716 661 16.5C661 17.3284 661.672 18 662.5 18Z" fill="white"/>
<path id="Oval_8" fill-rule="evenodd" clip-rule="evenodd" d="M669.5 18C670.328 18 671 17.3284 671 16.5C671 15.6716 670.328 15 669.5 15C668.672 15 668 15.6716 668 16.5C668 17.3284 668.672 18 669.5 18Z" fill="white"/>
<path id="Oval_9" fill-rule="evenodd" clip-rule="evenodd" d="M627.5 23C628.328 23 629 22.3284 629 21.5C629 20.6716 628.328 20 627.5 20C626.672 20 626 20.6716 626 21.5C626 22.3284 626.672 23 627.5 23Z" fill="white"/>
<path id="Oval_10" fill-rule="evenodd" clip-rule="evenodd" d="M634.5 23C635.328 23 636 22.3284 636 21.5C636 20.6716 635.328 20 634.5 20C633.672 20 633 20.6716 633 21.5C633 22.3284 633.672 23 634.5 23Z" fill="white"/>
<path id="Oval_11" fill-rule="evenodd" clip-rule="evenodd" d="M641.5 23C642.328 23 643 22.3284 643 21.5C643 20.6716 642.328 20 641.5 20C640.672 20 640 20.6716 640 21.5C640 22.3284 640.672 23 641.5 23Z" fill="white"/>
<path id="Oval_12" fill-rule="evenodd" clip-rule="evenodd" d="M648.5 23C649.328 23 650 22.3284 650 21.5C650 20.6716 649.328 20 648.5 20C647.672 20 647 20.6716 647 21.5C647 22.3284 647.672 23 648.5 23Z" fill="white"/>
<path id="Oval_13" fill-rule="evenodd" clip-rule="evenodd" d="M655.5 23C656.328 23 657 22.3284 657 21.5C657 20.6716 656.328 20 655.5 20C654.672 20 654 20.6716 654 21.5C654 22.3284 654.672 23 655.5 23Z" fill="white"/>
<path id="Oval_14" fill-rule="evenodd" clip-rule="evenodd" d="M662.5 23C663.328 23 664 22.3284 664 21.5C664 20.6716 663.328 20 662.5 20C661.672 20 661 20.6716 661 21.5C661 22.3284 661.672 23 662.5 23Z" fill="white"/>
<path id="Oval_15" fill-rule="evenodd" clip-rule="evenodd" d="M669.5 23C670.328 23 671 22.3284 671 21.5C671 20.6716 670.328 20 669.5 20C668.672 20 668 20.6716 668 21.5C668 22.3284 668.672 23 669.5 23Z" fill="white"/>
<path id="Oval_16" fill-rule="evenodd" clip-rule="evenodd" d="M627.5 28C628.328 28 629 27.3284 629 26.5C629 25.6716 628.328 25 627.5 25C626.672 25 626 25.6716 626 26.5C626 27.3284 626.672 28 627.5 28Z" fill="white"/>
<path id="Oval_17" fill-rule="evenodd" clip-rule="evenodd" d="M634.5 28C635.328 28 636 27.3284 636 26.5C636 25.6716 635.328 25 634.5 25C633.672 25 633 25.6716 633 26.5C633 27.3284 633.672 28 634.5 28Z" fill="white"/>
<path id="Oval_18" fill-rule="evenodd" clip-rule="evenodd" d="M641.5 28C642.328 28 643 27.3284 643 26.5C643 25.6716 642.328 25 641.5 25C640.672 25 640 25.6716 640 26.5C640 27.3284 640.672 28 641.5 28Z" fill="white"/>
<path id="Oval_19" fill-rule="evenodd" clip-rule="evenodd" d="M648.5 28C649.328 28 650 27.3284 650 26.5C650 25.6716 649.328 25 648.5 25C647.672 25 647 25.6716 647 26.5C647 27.3284 647.672 28 648.5 28Z" fill="white"/>
<path id="Oval_20" fill-rule="evenodd" clip-rule="evenodd" d="M655.5 28C656.328 28 657 27.3284 657 26.5C657 25.6716 656.328 25 655.5 25C654.672 25 654 25.6716 654 26.5C654 27.3284 654.672 28 655.5 28Z" fill="white"/>
<path id="Oval_21" fill-rule="evenodd" clip-rule="evenodd" d="M662.5 28C663.328 28 664 27.3284 664 26.5C664 25.6716 663.328 25 662.5 25C661.672 25 661 25.6716 661 26.5C661 27.3284 661.672 28 662.5 28Z" fill="white"/>
<path id="Oval_22" fill-rule="evenodd" clip-rule="evenodd" d="M669.5 28C670.328 28 671 27.3284 671 26.5C671 25.6716 670.328 25 669.5 25C668.672 25 668 25.6716 668 26.5C668 27.3284 668.672 28 669.5 28Z" fill="white"/>
<path id="Oval_23" fill-rule="evenodd" clip-rule="evenodd" d="M627.5 33C628.328 33 629 32.3284 629 31.5C629 30.6716 628.328 30 627.5 30C626.672 30 626 30.6716 626 31.5C626 32.3284 626.672 33 627.5 33Z" fill="white"/>
<path id="Oval_24" fill-rule="evenodd" clip-rule="evenodd" d="M634.5 33C635.328 33 636 32.3284 636 31.5C636 30.6716 635.328 30 634.5 30C633.672 30 633 30.6716 633 31.5C633 32.3284 633.672 33 634.5 33Z" fill="white"/>
<path id="Oval_25" fill-rule="evenodd" clip-rule="evenodd" d="M641.5 33C642.328 33 643 32.3284 643 31.5C643 30.6716 642.328 30 641.5 30C640.672 30 640 30.6716 640 31.5C640 32.3284 640.672 33 641.5 33Z" fill="white"/>
<path id="Oval_26" fill-rule="evenodd" clip-rule="evenodd" d="M648.5 33C649.328 33 650 32.3284 650 31.5C650 30.6716 649.328 30 648.5 30C647.672 30 647 30.6716 647 31.5C647 32.3284 647.672 33 648.5 33Z" fill="white"/>
<path id="Oval_27" fill-rule="evenodd" clip-rule="evenodd" d="M655.5 33C656.328 33 657 32.3284 657 31.5C657 30.6716 656.328 30 655.5 30C654.672 30 654 30.6716 654 31.5C654 32.3284 654.672 33 655.5 33Z" fill="white"/>
<path id="Oval_28" fill-rule="evenodd" clip-rule="evenodd" d="M662.5 33C663.328 33 664 32.3284 664 31.5C664 30.6716 663.328 30 662.5 30C661.672 30 661 30.6716 661 31.5C661 32.3284 661.672 33 662.5 33Z" fill="white"/>
</g>
</g>
</g>
<g id="Union">
<path fill-rule="evenodd" clip-rule="evenodd" d="M52.5 5.5C52.5 4.94772 52.9478 4.5 53.5 4.5H102.5C103.052 4.5 103.5 4.94772 103.5 5.5V31.5C103.5 32.0523 103.052 32.5 102.5 32.5H53.5C52.9478 32.5 52.5 32.0523 52.5 31.5V5.5ZM53.5 5.5H102.5V31.5H53.5V5.5Z" fill="white"/>
<path fill-rule="evenodd" clip-rule="evenodd" d="M118.102 20.2447C117.445 22.0288 116.029 23.4454 114.245 24.102C113.837 24.9301 112.985 25.5 112 25.5C111.015 25.5 110.163 24.9301 109.755 24.102C107.971 23.4454 106.555 22.0288 105.898 20.2447C105.07 19.8373 104.5 18.9852 104.5 18C104.5 17.0148 105.07 16.1627 105.898 15.7553C106.555 13.9712 107.971 12.5545 109.755 11.898C110.163 11.0699 111.015 10.5 112 10.5C112.985 10.5 113.837 11.0699 114.245 11.898C116.029 12.5545 117.445 13.9712 118.102 15.7553C118.93 16.1627 119.5 17.0148 119.5 18C119.5 18.9852 118.93 19.8373 118.102 20.2447ZM116.901 15.5019C115.566 15.5538 114.5 16.6524 114.5 18C114.5 19.3477 115.566 20.4463 116.901 20.4981C116.374 21.5304 115.53 22.3741 114.498 22.9013C114.446 21.5663 113.348 20.5 112 20.5C110.652 20.5 109.554 21.5663 109.502 22.9013C108.47 22.3741 107.626 21.5304 107.099 20.4981C108.434 20.4463 109.5 19.3477 109.5 18C109.5 16.6524 108.434 15.5538 107.099 15.5019C107.626 14.4696 108.47 13.6259 109.502 13.0987C109.554 14.4337 110.652 15.5 112 15.5C113.348 15.5 114.446 14.4337 114.498 13.0987C115.53 13.6259 116.374 14.4696 116.901 15.5019Z" fill="white"/>
<path d="M38.5 18.5C38.5 19.0523 38.9478 19.5 39.5 19.5H41.5L43.5 18L41.5 16.5H39.5C38.9478 16.5 38.5 16.9477 38.5 17.5V18.5Z" fill="white"/>
<path d="M48.5 19.5C49.0522 19.5 49.5 19.0523 49.5 18.5V17.5C49.5 16.9477 49.0522 16.5 48.5 16.5H46.5L44.5 18L46.5 19.5H48.5Z" fill="white"/>
<path d="M44.5 23.5C45.0522 23.5 45.5 23.0523 45.5 22.5V20.5L44 18.5L42.5 20.5V22.5C42.5 23.0523 42.9478 23.5 43.5 23.5H44.5Z" fill="white"/>
<path d="M45.5 13.5C45.5 12.9477 45.0522 12.5 44.5 12.5H43.5C42.9478 12.5 42.5 12.9477 42.5 13.5V15.5L44 17.5L45.5 15.5V13.5Z" fill="white"/>
<path fill-rule="evenodd" clip-rule="evenodd" d="M44 25.5C48.1421 25.5 51.5 22.1421 51.5 18C51.5 13.8579 48.1421 10.5 44 10.5C39.8579 10.5 36.5 13.8579 36.5 18C36.5 22.1421 39.8579 25.5 44 25.5ZM50.5 18C50.5 21.5899 47.5898 24.5 44 24.5C40.4102 24.5 37.5 21.5899 37.5 18C37.5 14.4101 40.4102 11.5 44 11.5C47.5898 11.5 50.5 14.4101 50.5 18Z" fill="white"/>
<path fill-rule="evenodd" clip-rule="evenodd" d="M46.5 29.5C46.5 31.1569 45.1567 32.5 43.5 32.5C41.8433 32.5 40.5 31.1569 40.5 29.5C40.5 27.8431 41.8433 26.5 43.5 26.5C45.1567 26.5 46.5 27.8431 46.5 29.5ZM43.5 31.5C44.6045 31.5 45.5 30.6046 45.5 29.5C45.5 28.3954 44.6045 27.5 43.5 27.5C42.3955 27.5 41.5 28.3954 41.5 29.5C41.5 30.6046 42.3955 31.5 43.5 31.5Z" fill="white"/>
<path fill-rule="evenodd" clip-rule="evenodd" d="M50.5 35C50.5 34.1716 51.1714 33.5 52 33.5H55C55.8286 33.5 56.5 34.1716 56.5 35C56.5 35.8284 55.8286 36.5 55 36.5H52C51.1714 36.5 50.5 35.8284 50.5 35ZM51.5 35C51.5 34.7239 51.7236 34.5 52 34.5H55C55.2764 34.5 55.5 34.7239 55.5 35C55.5 35.2761 55.2764 35.5 55 35.5H52C51.7236 35.5 51.5 35.2761 51.5 35Z" fill="white"/>
<path fill-rule="evenodd" clip-rule="evenodd" d="M61 33.5C60.1714 33.5 59.5 34.1716 59.5 35C59.5 35.8284 60.1714 36.5 61 36.5H62C62.8286 36.5 63.5 35.8284 63.5 35C63.5 34.1716 62.8286 33.5 62 33.5H61ZM62 34.5H61C60.7236 34.5 60.5 34.7239 60.5 35C60.5 35.2761 60.7236 35.5 61 35.5H62C62.2764 35.5 62.5 35.2761 62.5 35C62.5 34.7239 62.2764 34.5 62 34.5Z" fill="white"/>
<path fill-rule="evenodd" clip-rule="evenodd" d="M65.5 35C65.5 34.1716 66.1714 33.5 67 33.5H68C68.8286 33.5 69.5 34.1716 69.5 35C69.5 35.8284 68.8286 36.5 68 36.5H67C66.1714 36.5 65.5 35.8284 65.5 35ZM67 34.5H68C68.2764 34.5 68.5 34.7239 68.5 35C68.5 35.2761 68.2764 35.5 68 35.5H67C66.7236 35.5 66.5 35.2761 66.5 35C66.5 34.7239 66.7236 34.5 67 34.5Z" fill="white"/>
<path fill-rule="evenodd" clip-rule="evenodd" d="M83 33.5C82.1714 33.5 81.5 34.1716 81.5 35C81.5 35.8284 82.1714 36.5 83 36.5H84C84.8286 36.5 85.5 35.8284 85.5 35C85.5 34.1716 84.8286 33.5 84 33.5H83ZM84 34.5H83C82.7236 34.5 82.5 34.7239 82.5 35C82.5 35.2761 82.7236 35.5 83 35.5H84C84.2764 35.5 84.5 35.2761 84.5 35C84.5 34.7239 84.2764 34.5 84 34.5Z" fill="white"/>
<path fill-rule="evenodd" clip-rule="evenodd" d="M86.5 35C86.5 34.1716 87.1714 33.5 88 33.5H89C89.8286 33.5 90.5 34.1716 90.5 35C90.5 35.8284 89.8286 36.5 89 36.5H88C87.1714 36.5 86.5 35.8284 86.5 35ZM88 34.5H89C89.2764 34.5 89.5 34.7239 89.5 35C89.5 35.2761 89.2764 35.5 89 35.5H88C87.7236 35.5 87.5 35.2761 87.5 35C87.5 34.7239 87.7236 34.5 88 34.5Z" fill="white"/>
<path fill-rule="evenodd" clip-rule="evenodd" d="M100 33.5C99.1714 33.5 98.5 34.1716 98.5 35C98.5 35.8284 99.1714 36.5 100 36.5H103C103.829 36.5 104.5 35.8284 104.5 35C104.5 34.1716 103.829 33.5 103 33.5H100ZM103 34.5H100C99.7236 34.5 99.5 34.7239 99.5 35C99.5 35.2761 99.7236 35.5 100 35.5H103C103.276 35.5 103.5 35.2761 103.5 35C103.5 34.7239 103.276 34.5 103 34.5Z" fill="white"/>
<path fill-rule="evenodd" clip-rule="evenodd" d="M91.5 35C91.5 34.1716 92.1714 33.5 93 33.5H96C96.8286 33.5 97.5 34.1716 97.5 35C97.5 35.8284 96.8286 36.5 96 36.5H93C92.1714 36.5 91.5 35.8284 91.5 35ZM93 34.5H96C96.2764 34.5 96.5 34.7239 96.5 35C96.5 35.2761 96.2764 35.5 96 35.5H93C92.7236 35.5 92.5 35.2761 92.5 35C92.5 34.7239 92.7236 34.5 93 34.5Z" fill="white"/>
<path fill-rule="evenodd" clip-rule="evenodd" d="M48.5 1C47.7988 1 47.231 1.20712 46.7729 1.5H40.8066C39.4385 1.5 38.146 2.1899 37.5044 3.3988L37.417 3.56509L37.333 3.7275L37.1895 4.011L37.1113 4.1699C37.0742 4.245 37.0371 4.32029 37.001 4.39577C35.9336 4.82649 35.0024 5.60282 34.4229 6.69556C32.2373 10.816 31 15.5157 31 20.5V20.5059L31.001 20.75L31 20.9941V21C31 25.9843 32.2373 30.684 34.4229 34.8044C35.3545 36.561 37.1943 37.5 39.0498 37.5H44.5C44.5547 37.5 44.5762 37.5088 44.583 37.5119C44.5947 37.5167 44.627 37.5323 44.6841 37.5837C44.8306 37.7157 44.9785 37.9216 45.252 38.332L45.3188 38.4337C45.7578 39.1013 46.6777 40.5 48.5 40.5H106.5C108.322 40.5 109.242 39.1013 109.681 38.4337L109.748 38.332C110.021 37.9216 110.169 37.7157 110.316 37.5837C110.373 37.5323 110.405 37.5166 110.417 37.5118C110.424 37.5088 110.445 37.5 110.5 37.5H115.95C117.806 37.5 119.646 36.561 120.577 34.8044C122.763 30.684 124 25.9843 124 21L123.999 20.75L124 20.6339L124 20.5762V20.5C124 15.5157 122.763 10.816 120.577 6.69556C119.945 5.50293 118.894 4.68719 117.703 4.28634C117.558 3.98749 117.408 3.6916 117.252 3.3988C116.611 2.1899 115.318 1.5 113.95 1.5H108.227C107.769 1.20712 107.201 1 106.5 1H48.5ZM40.8066 2.5H45.7153C45.5527 2.71082 45.4224 2.90891 45.3188 3.06635L45.252 3.16795C44.9785 3.57835 44.8306 3.78431 44.6841 3.91631C44.6548 3.94254 44.6323 3.95947 44.6157 3.97038L44.604 3.97767L44.5903 3.98479L44.583 3.98816C44.5757 3.99121 44.5552 4 44.5 4H39.0498C38.7959 4 38.5415 4.01761 38.2905 4.05251L38.3882 3.86742C38.8354 3.02364 39.7632 2.5 40.8066 2.5ZM116.451 4.02277C116.285 4.00762 116.117 4 115.95 4H110.5C110.445 4 110.424 3.99117 110.417 3.98812C110.405 3.98331 110.373 3.9677 110.316 3.91631C110.169 3.78431 110.021 3.57835 109.748 3.16795L109.681 3.06635C109.578 2.90891 109.447 2.71082 109.285 2.5H113.95C114.994 2.5 115.921 3.02364 116.369 3.86742L116.451 4.02277ZM47.748 4.83205C48.0215 4.42165 48.1694 4.21569 48.3159 4.08369L48.3467 4.05747L48.3716 4.03857C48.395 4.02179 48.4097 4.01479 48.417 4.01184C48.4243 4.00879 48.4448 4 48.5 4H106.5C106.555 4 106.576 4.00883 106.583 4.01188C106.595 4.01669 106.627 4.0323 106.684 4.08369C106.831 4.21569 106.979 4.42165 107.252 4.83205L107.319 4.93366C107.758 5.60128 108.678 7 110.5 7H115.95C116.832 7 117.577 7.44038 117.927 8.10133C119.889 11.7992 121 16.0175 121 20.5L121 20.6163L120.999 20.6796V20.75L121 20.8801V20.8837L121 21C121 25.4825 119.889 29.7008 117.927 33.3987C117.577 34.0596 116.832 34.5 115.95 34.5H110.5C108.678 34.5 107.758 35.8987 107.319 36.5663L107.252 36.668C106.979 37.0784 106.831 37.2843 106.684 37.4163C106.654 37.4434 106.631 37.4605 106.614 37.4714C106.599 37.4811 106.588 37.4858 106.583 37.4881C106.576 37.4911 106.555 37.5 106.5 37.5H48.5C48.4673 37.5 48.4468 37.4969 48.4341 37.4938L48.4209 37.4897L48.417 37.4881C48.4053 37.4833 48.373 37.4677 48.3159 37.4163C48.1694 37.2843 48.0215 37.0784 47.748 36.668L47.6812 36.5663C47.2422 35.8987 46.3223 34.5 44.5 34.5H39.0498C38.1685 34.5 37.4233 34.0596 37.0728 33.3987C35.1118 29.7016 34.0005 25.4843 34 21.0029V21L34.001 20.7559L34 20.5V20.4971C34.0005 16.0157 35.1118 11.7984 37.0728 8.10133C37.4233 7.44038 38.1685 7 39.0498 7H44.5C46.3223 7 47.2422 5.60127 47.6812 4.93365L47.748 4.83205Z" fill="white"/>
</g>
</g>
</svg>
