<svg width="483" height="148" viewBox="0 0 483 148" fill="none" xmlns="http://www.w3.org/2000/svg">
<path fill-rule="evenodd" clip-rule="evenodd" d="M0 117.131V141.092H2.24653V130.51H7.35944C11.7751 130.51 16.5781 129.178 16.5781 123.825C16.5781 120.23 14.9513 117.131 8.75386 117.131H0ZM14.2541 123.662C14.2541 127.713 11.6977 128.581 7.43695 128.581H2.24653V119.06H8.13411C12.3948 119.06 14.2541 120.664 14.2541 123.662Z" fill="white"/>
<path d="M19.5991 141.092H21.5358V117.131H19.5991V141.092Z" fill="white"/>
<path fill-rule="evenodd" clip-rule="evenodd" d="M37.0294 130.471C36.4097 130.773 35.1702 130.975 34.3955 131.045L31.6841 131.409C27.6558 131.943 25.6416 133.709 25.6416 136.599C25.6416 139.922 28.353 141.557 31.3742 141.557C33.8532 141.557 36.1773 140.558 37.8041 138.691C37.8041 139.891 38.0365 141.061 39.4309 141.255C39.7408 141.325 39.9732 141.356 40.283 141.356C40.9028 141.356 41.6001 141.123 41.8324 141.022V139.458C40.2056 140.054 39.7408 139.69 39.7408 138.125V128.744C39.7408 124.754 37.0294 123.383 33.5434 123.383C29.7474 123.383 26.7262 125.018 26.4163 129.077H28.4305C28.8178 126.087 30.7545 125.188 33.4659 125.188C36.5646 125.188 37.8041 126.652 37.8041 128.682C37.8041 129.278 37.7266 130.177 37.0294 130.471ZM32.6137 133.005C34.318 132.873 36.0998 132.733 37.8041 132.036V134.732C37.8041 138.226 34.6279 139.76 31.4517 139.76C29.5925 139.76 27.7333 138.768 27.7333 136.661C27.7333 134.337 29.5925 133.237 32.6137 133.005Z" fill="white"/>
<path d="M44.6989 145.779C45.2412 145.88 45.7834 145.988 46.3257 145.988C48.6498 145.988 48.9596 142.719 49.7343 141.224L42.9946 123.855H45.2412L50.8189 138.667L56.3191 123.855H58.4882L52.0583 140.86C50.4315 145.182 49.347 147.878 46.5581 147.878C45.8609 147.878 45.2412 147.778 44.6989 147.646V145.779" fill="white"/>
<path d="M63.2138 133.934C63.6011 138.226 66.3901 139.791 70.1085 139.791C74.3692 139.791 76.151 137.467 76.151 134.833C76.151 127.411 61.587 132.338 61.587 122.926C61.587 119.595 64.2984 116.504 69.7211 116.504C75.0664 116.504 77.7778 119.758 77.7003 123.662H75.6087C75.6087 119.998 72.7424 118.433 69.7211 118.433C65.073 118.433 63.4463 121.26 63.8336 123.724C64.8407 129.906 78.475 125.451 78.475 134.732C78.475 139.132 75.2213 141.72 69.7211 141.72C64.6857 141.72 60.9673 139.132 60.9673 133.934H63.2138" fill="white"/>
<path d="M88.8555 141.154C88.3906 141.255 87.5385 141.557 86.5314 141.557C84.5947 141.557 83.5102 140.69 83.5102 138.125V125.514H81.0312V123.856H83.5102V119.061H85.5243V123.856H88.7005V125.514H85.5243V137.327C85.5243 139.032 85.5243 139.76 87.2287 139.76C87.7709 139.76 88.3132 139.659 88.8555 139.528V141.154" fill="white"/>
<path fill-rule="evenodd" clip-rule="evenodd" d="M103.11 130.471C102.413 130.773 101.173 130.975 100.476 131.045L97.687 131.409C93.6587 131.943 91.6445 133.709 91.6445 136.599C91.6445 139.922 94.4334 141.557 97.4546 141.557C99.9336 141.557 102.18 140.558 103.884 138.691C103.884 139.891 104.117 141.061 105.434 141.255C105.744 141.325 106.054 141.356 106.363 141.356C106.889 141.356 107.561 141.137 107.884 141.032C107.894 141.029 107.903 141.025 107.913 141.022V139.458C106.208 140.054 105.821 139.69 105.821 138.125V128.744C105.821 124.754 103.032 123.383 99.5463 123.383C95.8278 123.383 92.8065 125.018 92.4966 129.077H94.5108C94.8981 126.087 96.7574 125.188 99.5463 125.188C102.645 125.188 103.807 126.652 103.807 128.682C103.807 129.278 103.729 130.177 103.11 130.471ZM98.694 133.005C100.398 132.873 102.103 132.733 103.807 132.036V134.732C103.807 138.226 100.708 139.76 97.5321 139.76C95.6728 139.76 93.8136 138.768 93.8136 136.661C93.8136 134.337 95.6728 133.237 98.694 133.005Z" fill="white"/>
<path d="M117.596 141.154C117.132 141.255 116.279 141.557 115.272 141.557C113.336 141.557 112.251 140.69 112.251 138.125V125.514H109.85V123.856H112.251V119.061H114.265V123.856H117.441V125.514H114.265V137.327C114.265 139.032 114.265 139.76 115.97 139.76C116.512 139.76 117.054 139.659 117.596 139.528V141.154" fill="white"/>
<path fill-rule="evenodd" clip-rule="evenodd" d="M121.47 117.131V120.091H123.716V117.131H121.47ZM121.625 141.092H123.561V123.856H121.625V141.092Z" fill="white"/>
<path fill-rule="evenodd" clip-rule="evenodd" d="M135.336 123.383C130.068 123.383 127.357 127.45 127.357 132.47C127.357 138.497 130.998 141.487 135.336 141.557C140.217 141.557 143.393 137.932 143.393 132.47C143.393 127.411 140.759 123.383 135.336 123.383ZM129.526 132.47C129.526 128.744 131.153 125.188 135.336 125.188C139.597 125.188 141.224 128.411 141.224 132.47C141.224 136.165 139.519 139.76 135.336 139.76C131.54 139.76 129.526 136.762 129.526 132.47Z" fill="white"/>
<path d="M148.196 141.092H146.182V123.856H148.196V126.249C149.745 124.553 151.372 123.383 153.696 123.383C155.865 123.383 157.724 124.049 158.964 125.846C159.816 127.086 159.893 128.38 159.893 129.805V141.092H157.879V129.844C157.879 126.753 156.562 125.188 153.386 125.188C150.907 125.188 149.203 126.784 148.583 128.542C148.196 129.642 148.196 130.611 148.196 131.812V141.092" fill="white"/>
<path fill-rule="evenodd" clip-rule="evenodd" d="M166.943 141.092C168.028 141.092 169.035 140.689 169.81 139.899C170.584 139.109 170.972 138.148 170.972 137.025C170.972 135.91 170.584 134.949 169.81 134.174C169.035 133.376 168.028 132.989 166.943 132.989C165.859 132.989 164.852 133.376 164.077 134.174C163.302 134.957 162.915 135.917 162.915 137.025C162.915 138.148 163.302 139.109 164.077 139.899C164.852 140.689 165.859 141.092 166.943 141.092ZM164.464 134.554C163.767 135.236 163.457 136.065 163.457 137.025C163.457 138.009 163.767 138.838 164.464 139.52C165.162 140.209 165.936 140.55 166.943 140.55C167.95 140.55 168.725 140.209 169.422 139.52C170.12 138.838 170.429 138.009 170.429 137.025C170.429 136.065 170.12 135.236 169.422 134.554C168.725 133.872 167.95 133.531 166.943 133.531C165.936 133.531 165.162 133.872 164.464 134.554ZM168.105 134.941C167.795 134.833 167.408 134.786 166.866 134.786H165.317V139.248H166.091V137.474H166.711C167.098 137.474 167.408 137.521 167.563 137.622C167.795 137.784 167.95 138.125 167.95 138.652V139.008L168.028 139.148V139.21V139.248H168.725V139.194V138.954C168.648 138.846 168.648 138.729 168.648 138.621V138.296C168.648 138.071 168.57 137.839 168.415 137.598C168.26 137.366 168.028 137.211 167.718 137.157C167.95 137.11 168.183 137.041 168.338 136.94C168.648 136.754 168.725 136.467 168.725 136.072C168.725 135.507 168.57 135.135 168.105 134.941ZM166.711 135.329C167.176 135.329 167.486 135.383 167.718 135.491C167.873 135.6 168.028 135.817 168.028 136.134C168.028 136.475 167.873 136.707 167.563 136.831C167.408 136.893 167.098 136.924 166.788 136.924H166.091V135.329H166.711Z" fill="white"/>
<path fill-rule="evenodd" clip-rule="evenodd" d="M177.169 117.131V141.092H179.416V130.51H184.528C189.022 130.51 193.747 129.178 193.747 123.825C193.747 120.23 192.12 117.131 185.923 117.131H177.169ZM191.501 123.662C191.501 127.713 188.867 128.581 184.606 128.581H179.416V119.06H185.303C189.564 119.06 191.501 120.664 191.501 123.662Z" fill="white"/>
<path fill-rule="evenodd" clip-rule="evenodd" d="M202.656 123.383C197.311 123.383 194.677 127.45 194.677 132.47C194.677 138.497 198.24 141.487 202.656 141.557C207.459 141.557 210.635 137.932 210.635 132.47C210.635 127.411 208.079 123.383 202.656 123.383ZM196.768 132.47C196.768 128.744 198.473 125.188 202.656 125.188C206.917 125.188 208.466 128.411 208.544 132.47C208.544 136.165 206.839 139.76 202.656 139.76C198.86 139.76 196.768 136.762 196.768 132.47Z" fill="white"/>
<path d="M215.593 141.092H213.579V123.856H215.593V127.086H215.671C216.755 124.32 218.382 123.383 221.248 123.383V125.552C216.755 125.451 215.593 128.775 215.593 132.633V141.092" fill="white"/>
<path d="M232.404 141.154C231.939 141.255 231.087 141.557 230.157 141.557C228.143 141.557 227.058 140.69 227.058 138.125V125.514H224.657V123.856H227.058V119.061H229.072V123.856H232.326V125.514H229.072V137.327C229.072 139.032 229.15 139.76 230.777 139.76C231.319 139.76 231.939 139.659 232.404 139.528V141.154" fill="white"/>
<path fill-rule="evenodd" clip-rule="evenodd" d="M246.038 130.471C245.341 130.773 244.101 130.975 243.404 131.045L240.615 131.409C236.587 131.943 234.573 133.709 234.573 136.599C234.573 139.922 237.362 141.557 240.383 141.557C242.862 141.557 245.108 140.558 246.813 138.691C246.813 139.891 247.045 141.061 248.362 141.255C248.672 141.325 248.982 141.356 249.292 141.356C249.818 141.356 250.49 141.137 250.812 141.032C250.822 141.029 250.832 141.025 250.841 141.022V139.458C249.137 140.054 248.749 139.69 248.749 138.125V128.744C248.749 124.754 245.961 123.383 242.475 123.383C238.756 123.383 235.735 125.018 235.425 129.077H237.439C237.826 126.087 239.686 125.188 242.475 125.188C245.573 125.188 246.735 126.652 246.735 128.682C246.735 129.278 246.658 130.177 246.038 130.471ZM241.622 133.005C243.327 132.873 245.031 132.733 246.735 132.036V134.732C246.735 138.226 243.637 139.76 240.46 139.76C238.601 139.76 236.742 138.768 236.742 136.661C236.742 134.337 238.601 133.237 241.622 133.005Z" fill="white"/>
<path fill-rule="evenodd" clip-rule="evenodd" d="M254.714 141.092H256.729V138.063C257.968 140.325 260.524 141.557 262.771 141.557C268.349 141.557 270.518 137.591 270.518 132.509C270.518 127.683 268.116 123.383 262.848 123.383C260.447 123.383 257.968 124.522 256.729 126.613V117.131H254.714V141.092ZM268.426 133.005C268.349 137.327 265.87 139.76 262.539 139.76C258.743 139.76 256.729 136.568 256.729 132.4C256.729 128.511 258.898 125.188 262.539 125.188C266.644 125.188 268.581 128.682 268.426 133.005Z" fill="white"/>
<path d="M274.934 141.092H276.948V117.131H274.934V141.092Z" fill="white"/>
<path fill-rule="evenodd" clip-rule="evenodd" d="M288.878 139.76C285.082 139.76 283.068 136.661 283.068 132.943H296.47C296.47 126.753 293.603 123.383 288.878 123.383C283.92 123.383 280.976 127.512 280.976 132.54C280.976 137.629 283.378 141.557 288.878 141.557C293.293 141.557 295.308 139.055 296.315 135.801H294.068C293.526 138.327 291.434 139.76 288.878 139.76ZM288.878 125.188C292.441 125.188 294.301 127.915 294.301 131.269H283.068C283.455 128.016 285.314 125.188 288.878 125.188Z" fill="white"/>
<path d="M0 0H141.146V41.8559H5.57772V78.1341H0V36.2782H135.569V5.57766H0V0" fill="white"/>
<path d="M317.463 41.8559V78.1341H311.886V36.2782H447.455V5.57766H311.886V0H453.032V41.8559H317.463" fill="white"/>
<path d="M213.114 0V72.5564H141.146V78.1341H219.002V5.57766H290.969V0H213.114" fill="white"/>
<path d="M467.828 69.8915H464.807V68.8379H472.089V69.8915H469.068V78.1495H467.828V69.8915" fill="white"/>
<path d="M477.047 78.1495L474.491 70.5887V78.1495H473.251V68.8379H474.956L477.59 76.7551L480.301 68.8379H482.005V78.1495H480.766V70.5887L478.287 78.1495H477.047" fill="white"/>
</svg>
