<?xml version="1.0" encoding="UTF-8"?>
<svg width="483px" height="148px" viewBox="0 0 483 148" version="1.1" xmlns="http://www.w3.org/2000/svg" xmlns:xlink="http://www.w3.org/1999/xlink">
    <title>syslogo</title>
    <g id="Page-1" stroke="none" stroke-width="1" fill="none" fill-rule="evenodd">
        <g id="syslogo" fill="#FFFFFF" fill-rule="nonzero">
            <path d="M82.5033254,128.581178 C86.7640294,128.581178 89.3204838,127.713498 89.3204838,123.661984 C89.3204838,120.663994 87.4611878,119.060384 83.2004838,119.060384 L77.3129062,119.060384 L77.3129062,128.581178 L82.5033254,128.581178 Z M75.0663782,141.09223 L75.0663782,117.131398 L83.8202406,117.131398 C90.0176422,117.131398 91.6445158,120.230125 91.6445158,123.824659 C91.6445158,129.177702 86.8415014,130.510131 82.425815,130.510131 L77.3129062,130.510131 L77.3129062,141.09223 L75.0663782,141.09223" id="path6905"></path>
            <polygon id="path6907" points="94.6657446 141.09223 96.6024486 141.09223 96.6024486 117.131398 94.6657446 117.131398"></polygon>
            <path d="M112.87066,132.036237 C111.16641,132.733472 109.384625,132.872864 107.680343,133.004595 C104.659082,133.236998 102.799889,134.337069 102.799889,136.661069 C102.799889,138.768198 104.659082,139.759814 106.518308,139.759814 C109.694519,139.759814 112.87066,138.22592 112.87066,134.732102 L112.87066,132.036237 Z M109.462097,131.044621 C110.236797,130.974944 111.476273,130.773523 112.096029,130.471398 C112.793188,130.176998 112.87066,129.278381 112.87066,128.681856 C112.87066,126.652205 111.631217,125.18809 108.532484,125.18809 C105.821117,125.18809 103.884445,126.086726 103.497111,129.076973 L101.482941,129.076973 C101.792797,125.017632 104.814026,123.383104 108.609956,123.383104 C112.096029,123.383104 114.807364,124.75424 114.807364,128.743846 L114.807364,138.125184 C114.807364,139.690067 115.27217,140.054195 116.899012,139.457677 L116.899012,141.022509 C116.666653,141.123219 115.969399,141.355642 115.349642,141.355642 C115.039812,141.355642 114.807364,141.324621 114.497533,141.254899 C113.103114,141.061286 112.87066,139.891469 112.87066,138.69072 C111.243882,140.557741 108.919818,141.557043 106.440836,141.557043 C103.419639,141.557043 100.708202,139.922483 100.708202,136.599078 C100.708202,133.709542 102.722378,131.943258 106.75073,131.408768 L109.462097,131.044621" id="path6909"></path>
            <path d="M119.765322,145.779014 C120.307607,145.879738 120.849885,145.988205 121.392164,145.988205 C123.716202,145.988205 124.026026,142.719072 124.800759,141.223917 L118.061079,123.855603 L120.307607,123.855603 L125.885322,138.667462 L131.385501,123.855603 L133.554621,123.855603 L127.124765,140.859808 C125.497924,145.182522 124.413425,147.878445 121.624554,147.878445 C120.927357,147.878445 120.307607,147.777702 119.765322,147.646022 L119.765322,145.779014" id="path6911"></path>
            <path d="M138.280132,133.934202 C138.667466,138.22592 141.456375,139.79079 145.174794,139.79079 C149.435498,139.79079 151.217322,137.466758 151.217322,134.832826 C151.217322,127.411398 136.65329,132.338374 136.65329,122.92599 C136.65329,119.594899 139.364727,116.50391 144.78746,116.50391 C150.132759,116.50391 152.844093,119.757568 152.766628,123.661984 L150.675044,123.661984 C150.675044,119.997709 147.808727,118.432838 144.78746,118.432838 C140.139357,118.432838 138.512586,121.260474 138.899921,123.723917 C139.907005,129.90592 153.541354,125.451501 153.541354,134.732102 C153.541354,139.132275 150.287639,141.719712 144.78746,141.719712 C139.752029,141.719712 136.033604,139.132275 136.033604,133.934202 L138.280132,133.934202" id="path6913"></path>
            <path d="M163.922052,141.15424 C163.457181,141.254899 162.605034,141.557043 161.597962,141.557043 C159.66129,141.557043 158.576727,140.689427 158.576727,138.125184 L158.576727,125.513434 L156.097809,125.513434 L156.097809,123.855603 L158.576727,123.855603 L158.576727,119.060384 L160.590871,119.060384 L160.590871,123.855603 L163.767108,123.855603 L163.767108,125.513434 L160.590871,125.513434 L160.590871,137.327283 C160.590871,139.03161 160.590871,139.759814 162.29521,139.759814 C162.837501,139.759814 163.379773,139.659078 163.922052,139.527392 L163.922052,141.15424" id="path6915"></path>
            <path d="M178.873322,132.036237 C177.169002,132.733472 175.464753,132.872864 173.760413,133.004595 C170.73921,133.236998 168.879959,134.337069 168.879959,136.661069 C168.879959,138.768198 170.73921,139.759814 172.598442,139.759814 C175.774577,139.759814 178.873322,138.22592 178.873322,134.732102 L178.873322,132.036237 Z M175.542231,131.044621 C176.239389,130.974944 177.478929,130.773523 178.176087,130.471398 C178.795844,130.176998 178.873322,129.278381 178.873322,128.681856 C178.873322,126.652205 177.711293,125.18809 174.612618,125.18809 C171.823748,125.18809 169.964509,126.086726 169.577175,129.076973 L167.562999,129.076973 C167.872868,125.017632 170.894122,123.383104 174.612618,123.383104 C178.098628,123.383104 180.887498,124.75424 180.887498,128.743846 L180.887498,138.125184 C180.887498,139.690067 181.274833,140.054195 182.979114,139.457677 L182.979114,141.022509 C182.669258,141.123219 181.972023,141.355642 181.429802,141.355642 C181.119876,141.355642 180.81002,141.324621 180.500119,141.254899 C179.183178,141.061286 178.950833,139.891469 178.950833,138.69072 C177.246481,140.557741 174.999953,141.557043 172.520964,141.557043 C169.499716,141.557043 166.710897,139.922483 166.710897,136.599078 C166.710897,133.709542 168.725047,131.943258 172.753329,131.408768 L175.542231,131.044621" id="path6917"></path>
            <path d="M192.662647,141.15424 C192.197777,141.254899 191.345629,141.557043 190.338545,141.557043 C188.401847,141.557043 187.31729,140.689427 187.31729,138.125184 L187.31729,125.513434 L184.91578,125.513434 L184.91578,123.855603 L187.31729,123.855603 L187.31729,119.060384 L189.331453,119.060384 L189.331453,123.855603 L192.507665,123.855603 L192.507665,125.513434 L189.331453,125.513434 L189.331453,137.327283 C189.331453,139.03161 189.331453,139.759814 191.035773,139.759814 C191.578084,139.759814 192.120375,139.659078 192.662647,139.527392 L192.662647,141.15424" id="path6919"></path>
            <path d="M198.627601,141.09223 L196.690929,141.09223 L196.690929,123.855603 L198.627601,123.855603 L198.627601,141.09223 Z M196.536017,120.090656 L196.536017,117.131398 L198.782583,117.131398 L198.782583,120.090656 L196.536017,120.090656" id="path6921"></path>
            <path d="M210.402749,125.18809 C206.219498,125.18809 204.59265,128.743846 204.59265,132.470061 C204.59265,136.761747 206.606833,139.759814 210.402749,139.759814 C214.586045,139.759814 216.290295,136.165254 216.290295,132.470061 C216.290295,128.410758 214.663453,125.18809 210.402749,125.18809 Z M202.42353,132.470061 C202.42353,127.450131 205.134929,123.383104 210.402749,123.383104 C215.825495,123.383104 218.459415,127.411398 218.459415,132.470061 C218.459415,137.931571 215.283204,141.557043 210.402749,141.557043 C206.064541,141.487322 202.42353,138.497043 202.42353,132.470061" id="path6923"></path>
            <path d="M223.262436,141.09223 L221.24826,141.09223 L221.24826,123.855603 L223.262436,123.855603 L223.262436,126.249402 C224.811799,124.552832 226.438583,123.383104 228.762621,123.383104 C230.931741,123.383104 232.790961,124.049293 234.030468,125.846522 C234.882615,127.086061 234.960081,128.379712 234.960081,129.805184 L234.960081,141.09223 L232.945917,141.09223 L232.945917,129.843917 C232.945917,126.752941 231.628957,125.18809 228.452746,125.18809 C225.973777,125.18809 224.269527,126.783917 223.64977,128.542445 C223.262436,129.642509 223.262436,130.610867 223.262436,131.811571 L223.262436,141.09223" id="path6925"></path>
            <path d="M242.784337,135.491328 C242.551914,135.382829 242.242045,135.328582 241.777252,135.328582 L241.157495,135.328582 L241.157495,136.92448 L241.854756,136.92448 C242.16458,136.92448 242.474436,136.893459 242.62938,136.831526 C242.939249,136.707533 243.094193,136.475142 243.094193,136.134266 C243.094193,135.816653 242.939249,135.599776 242.784337,135.491328 Z M241.932164,134.786381 C242.474436,134.786381 242.86177,134.832826 243.171671,134.941293 C243.636471,135.134963 243.791409,135.506797 243.791409,136.072275 C243.791409,136.467398 243.713949,136.754022 243.404049,136.939955 C243.249137,137.040614 243.016714,137.110413 242.784337,137.15687 C243.094193,137.211078 243.326641,137.366016 243.481527,137.598483 C243.636471,137.838618 243.713949,138.070963 243.713949,138.295642 L243.713949,138.621043 C243.713949,138.729466 243.713949,138.845709 243.791409,138.954131 C243.791409,139.078054 243.791409,139.155533 243.791409,139.194266 L243.791409,139.248512 L243.094193,139.248512 C243.094193,139.233011 243.094193,139.217523 243.094193,139.209779 C243.094193,139.194266 243.094193,139.171002 243.094193,139.147776 L243.016714,139.008378 L243.016714,138.651987 C243.016714,138.125184 242.86177,137.784371 242.62938,137.621638 C242.474436,137.520973 242.16458,137.474483 241.777252,137.474483 L241.157495,137.474483 L241.157495,139.248512 L240.382858,139.248512 L240.382858,134.786381 L241.932164,134.786381 Z M239.530653,134.553958 C238.833489,135.235642 238.523562,136.064589 238.523562,137.025146 C238.523562,138.008973 238.833489,138.83792 239.530653,139.51961 C240.227869,140.209082 241.002538,140.549952 242.009623,140.549952 C243.016714,140.549952 243.791409,140.209082 244.488618,139.51961 C245.185834,138.83792 245.495703,138.008973 245.495703,137.025146 C245.495703,136.064589 245.185834,135.235642 244.488618,134.553958 C243.791409,133.872269 243.016714,133.531398 242.009623,133.531398 C241.002538,133.531398 240.227869,133.872269 239.530653,134.553958 Z M244.875946,139.899213 C244.101284,140.689427 243.094193,141.09223 242.009623,141.09223 C240.925073,141.09223 239.918045,140.689427 239.143319,139.899213 C238.368676,139.109043 237.981341,138.148442 237.981341,137.025146 C237.981341,135.917389 238.368676,134.956762 239.143319,134.174336 C239.918045,133.37641 240.925073,132.989075 242.009623,132.989075 C243.094193,132.989075 244.101284,133.37641 244.875946,134.174336 C245.650647,134.949037 246.037981,135.909606 246.037981,137.025146 C246.037981,138.148442 245.650647,139.109043 244.875946,139.899213" id="path6927"></path>
            <path d="M259.672337,128.581178 C263.933034,128.581178 266.566954,127.713498 266.566954,123.661984 C266.566954,120.663994 264.630301,119.060384 260.369553,119.060384 L254.482007,119.060384 L254.482007,128.581178 L259.672337,128.581178 Z M252.235383,141.09223 L252.235383,117.131398 L260.989252,117.131398 C267.186756,117.131398 268.813521,120.230125 268.813521,123.824659 C268.813521,129.177702 264.087978,130.510131 259.594858,130.510131 L254.482007,130.510131 L254.482007,141.09223 L252.235383,141.09223" id="path6929"></path>
            <path d="M277.722333,125.18809 C273.539095,125.18809 271.834788,128.743846 271.834788,132.470061 C271.834788,136.761747 273.926429,139.759814 277.722333,139.759814 C281.905585,139.759814 283.609911,136.165254 283.609911,132.470061 C283.532433,128.410758 281.983063,125.18809 277.722333,125.18809 Z M269.743133,132.470061 C269.743133,127.450131 272.377066,123.383104 277.722333,123.383104 C283.145098,123.383104 285.701553,127.411398 285.701553,132.470061 C285.701553,137.931571 282.525341,141.557043 277.722333,141.557043 C273.306673,141.487322 269.743133,138.497043 269.743133,132.470061" id="path6931"></path>
            <path d="M290.659453,141.09223 L288.645335,141.09223 L288.645335,123.855603 L290.659453,123.855603 L290.659453,127.086061 L290.736919,127.086061 C291.821489,124.320416 293.44833,123.383104 296.314641,123.383104 L296.314641,125.552166 C291.821489,125.451501 290.659453,128.774835 290.659453,132.63273 L290.659453,141.09223" id="path6933"></path>
            <path d="M307.470007,141.15424 C307.005207,141.254899 306.15306,141.557043 305.223421,141.557043 C303.209303,141.557043 302.124708,140.689427 302.124708,138.125184 L302.124708,125.513434 L299.723242,125.513434 L299.723242,123.855603 L302.124708,123.855603 L302.124708,119.060384 L304.138884,119.060384 L304.138884,123.855603 L307.392541,123.855603 L307.392541,125.513434 L304.138884,125.513434 L304.138884,137.327283 C304.138884,139.03161 304.216394,139.759814 305.843178,139.759814 C306.38545,139.759814 307.005207,139.659078 307.470007,139.527392 L307.470007,141.15424" id="path6935"></path>
            <path d="M321.801521,132.036237 C320.097271,132.733472 318.392964,132.872864 316.688669,133.004595 C313.667421,133.236998 311.808215,134.337069 311.808215,136.661069 C311.808215,138.768198 313.667421,139.759814 315.526641,139.759814 C318.702852,139.759814 321.801521,138.22592 321.801521,134.732102 L321.801521,132.036237 Z M318.470429,131.044621 C319.167665,130.974944 320.407127,130.773523 321.104362,130.471398 C321.724113,130.176998 321.801521,129.278381 321.801521,128.681856 C321.801521,126.652205 320.639549,125.18809 317.540817,125.18809 C314.751972,125.18809 312.892785,126.086726 312.50545,129.076973 L310.491274,129.076973 C310.801124,125.017632 313.822365,123.383104 317.540817,123.383104 C321.026884,123.383104 323.815697,124.75424 323.815697,128.743846 L323.815697,138.125184 C323.815697,139.690067 324.203089,140.054195 325.907338,139.457677 L325.907338,141.022509 C325.597514,141.123219 324.900247,141.355642 324.357975,141.355642 C324.048151,141.355642 323.738218,141.324621 323.428362,141.254899 C322.111447,141.061286 321.878999,139.891469 321.878999,138.69072 C320.174749,140.557741 317.928151,141.557043 315.449239,141.557043 C312.427972,141.557043 309.639063,139.922483 309.639063,136.599078 C309.639063,133.709542 311.653245,131.943258 315.681585,131.408768 L318.470429,131.044621" id="path6937"></path>
            <path d="M337.604996,139.759814 C340.936119,139.759814 343.415089,137.327283 343.492567,133.004595 C343.647511,128.681856 341.710813,125.18809 337.604996,125.18809 C333.964049,125.18809 331.794916,128.511424 331.794916,132.400371 C331.794916,136.568134 333.809092,139.759814 337.604996,139.759814 Z M331.794916,141.09223 L329.780753,141.09223 L329.780753,117.131398 L331.794916,117.131398 L331.794916,126.613459 C333.034365,124.521875 335.513341,123.383104 337.914852,123.383104 C343.182717,123.383104 345.584209,127.682554 345.584209,132.508794 C345.584209,137.590694 343.415089,141.557043 337.837444,141.557043 C335.59082,141.557043 333.034365,140.325293 331.794916,138.063251 L331.794916,138.063251 L331.794916,141.09223" id="path6939"></path>
            <polygon id="path6941" points="349.999901 141.09223 352.014001 141.09223 352.014001 117.131398 349.999901 117.131398"></polygon>
            <path d="M369.366845,131.26928 C369.366845,127.914899 367.50762,125.18809 363.944081,125.18809 C360.380541,125.18809 358.521335,128.015642 358.134001,131.26928 L369.366845,131.26928 Z M358.134001,132.942586 C358.134001,136.661069 360.148177,139.759814 363.944081,139.759814 C366.500535,139.759814 368.592119,138.326586 369.134423,135.801178 L371.381021,135.801178 C370.37393,139.054797 368.359754,141.557043 363.944081,141.557043 C358.443837,141.557043 356.042359,137.629427 356.042359,132.539782 C356.042359,127.512096 358.986148,123.383104 363.944081,123.383104 C368.669623,123.383104 371.535901,126.752941 371.535901,132.942586 L358.134001,132.942586" id="path6943"></path>
            <polyline id="path6945" points="6.39999871e-08 -6.40000002e-06 141.146449 -6.40000002e-06 141.146449 41.8558848 5.57771693 41.8558848 5.57771693 78.1340992 6.39999871e-08 78.1340992 6.39999871e-08 36.2781824 135.568797 36.2781824 135.568797 5.5776512 6.39999871e-08 5.5776512 6.39999871e-08 -6.40000002e-06"></polyline>
            <polyline id="path6947" points="317.463338 41.8558848 317.463338 78.1340992 311.885693 78.1340992 311.885693 36.2781824 447.454487 36.2781824 447.454487 5.5776512 311.885693 5.5776512 311.885693 -6.40000002e-06 453.032138 -6.40000002e-06 453.032138 41.8558848 317.463338 41.8558848"></polyline>
            <polyline id="path6949" points="213.114161 -6.40000002e-06 213.114161 72.556384 141.146449 72.556384 141.146449 78.1340992 219.001661 78.1340992 219.001661 5.5776512 290.969341 5.5776512 290.969341 -6.40000002e-06 213.114161 -6.40000002e-06"></polyline>
            <polyline id="path6951" points="467.828522 69.8915328 464.807255 69.8915328 464.807255 68.8379264 472.089226 68.8379264 472.089226 69.8915328 469.068004 69.8915328 469.068004 78.1495744 467.828522 78.1495744 467.828522 69.8915328"></polyline>
            <polyline id="path6953" points="477.047191 78.1495744 474.490737 70.5886912 474.490737 78.1495744 473.2513 78.1495744 473.2513 68.8379264 474.955549 68.8379264 477.589463 76.7551488 480.300849 68.8379264 482.005156 68.8379264 482.005156 78.1495744 480.765642 78.1495744 480.765642 70.5886912 478.286666 78.1495744 477.047191 78.1495744"></polyline>
        </g>
    </g>
</svg>