<svg width="120" height="81" viewBox="0 0 120 81" fill="none" xmlns="http://www.w3.org/2000/svg">
<path d="M43.625 7.85396H42.625V19.5721H43.625V7.85396Z" fill="white"/>
<path d="M64.625 7.85396H65.625V19.5721H64.625V7.85396Z" fill="white"/>
<path d="M55.625 7.85396H54.625V19.5721H55.625V7.85396Z" fill="white"/>
<path d="M76.625 7.85396H77.625V19.5721H76.625V7.85396Z" fill="white"/>
<path d="M47.625 7.85396H46.625V19.5721H47.625V7.85396Z" fill="white"/>
<path d="M68.625 7.85396H69.625V19.5721H68.625V7.85396Z" fill="white"/>
<path d="M59.625 7.85396H58.625V19.5721H59.625V7.85396Z" fill="white"/>
<path d="M80.625 7.85396H81.625V19.5721H80.625V7.85396Z" fill="white"/>
<path d="M51.625 7.85396H50.625V19.5721H51.625V7.85396Z" fill="white"/>
<path d="M72.625 7.85396H73.625V19.5721H72.625V7.85396Z" fill="white"/>
<path d="M63.625 7.85396H62.625V19.5721H63.625V7.85396Z" fill="white"/>
<path d="M84.625 7.85396H85.625V19.5721H84.625V7.85396Z" fill="white"/>
<path d="M45.625 7.85396H44.625V19.5721H45.625V7.85396Z" fill="white"/>
<path d="M66.625 7.85396H67.625V19.5721H66.625V7.85396Z" fill="white"/>
<path d="M57.625 7.85396H56.625V19.5721H57.625V7.85396Z" fill="white"/>
<path d="M78.625 7.85396H79.625V19.5721H78.625V7.85396Z" fill="white"/>
<path d="M49.625 7.85396H48.625V19.5721H49.625V7.85396Z" fill="white"/>
<path d="M70.625 7.85396H71.625V19.5721H70.625V7.85396Z" fill="white"/>
<path d="M61.625 7.85396H60.625V19.5721H61.625V7.85396Z" fill="white"/>
<path d="M82.625 7.85396H83.625V19.5721H82.625V7.85396Z" fill="white"/>
<path d="M53.625 7.85396H52.625V19.5721H53.625V7.85396Z" fill="white"/>
<path d="M74.625 7.85396H75.625V19.5721H74.625V7.85396Z" fill="white"/>
<path d="M87.625 7.85396H86.625V19.5721H87.625V7.85396Z" fill="white"/>
<path d="M88.625 7.85396H89.625V19.5721H88.625V7.85396Z" fill="white"/>
<path d="M91.625 7.85396H90.625V19.5721H91.625V7.85396Z" fill="white"/>
<path fill-rule="evenodd" clip-rule="evenodd" d="M46.0312 1.89537C46.0312 1.12473 46.6558 0.5 47.4268 0.5H49.1357C49.9067 0.5 50.5312 1.12473 50.5312 1.89537V3.27914C50.5312 3.36679 50.5264 3.45326 50.5166 3.53828C50.5093 3.60544 50.4985 3.67169 50.4849 3.73692H92.3823C93.3188 3.73692 94.293 3.84297 94.9629 4.513C95.6328 5.18304 95.7393 6.15697 95.7393 7.09372V20.7376C95.7393 21.6744 95.6328 22.6483 94.9629 23.3183C94.293 23.9884 93.3188 24.0944 92.3823 24.0944H41.9312C40.8267 24.0944 39.9312 23.199 39.9312 22.0944V21.5088C38.7397 21.4925 37.6572 21.2531 36.8916 20.4878C36.1216 19.7175 35.8838 18.6254 35.8706 17.4246C35.7998 17.5259 35.7285 17.6333 35.6577 17.7466C35.0298 18.7519 34.4888 20.1231 34.3481 21.6027C34.2944 22.1654 34.147 22.6918 33.8511 23.1223C33.5396 23.5753 33.1001 23.8665 32.5913 23.9824C31.6626 24.194 30.6748 23.7918 29.8794 23.308C28.2158 22.2956 26.4062 20.3172 25.3564 18.2968C23.8955 15.484 23.8955 11.888 25.3564 9.07521C26.4062 7.05478 28.2158 5.07628 29.8794 4.06396C30.6748 3.58006 31.6626 3.17786 32.5913 3.38947C33.1001 3.50545 33.5396 3.79665 33.8511 4.24962C34.147 4.68011 34.2944 5.20647 34.3481 5.76918L34.3672 5.95142C34.5337 7.36115 35.0557 8.66144 35.6577 9.62532C35.7285 9.73862 35.7998 9.84599 35.8706 9.9473C35.8838 8.74646 36.1216 7.65445 36.8916 6.88409C37.4453 6.33067 38.1646 6.05229 38.9712 5.93439C39.2798 5.88925 39.6016 5.86765 39.9312 5.86313V5.73692C39.9312 4.63235 40.8267 3.73692 41.9312 3.73692H46.0776C46.0581 3.6434 46.0449 3.54776 46.0376 3.45038C46.0332 3.39386 46.0312 3.33676 46.0312 3.27914V1.89537ZM49.5312 3.27914C49.5312 3.44073 49.5005 3.59517 49.4448 3.73692C49.2622 4.20082 48.8101 4.52914 48.2812 4.52914C47.7524 4.52914 47.3003 4.20082 47.1177 3.73692C47.062 3.59517 47.0312 3.44073 47.0312 3.27914V1.89537C47.0312 1.67702 47.2085 1.5 47.4268 1.5H49.1357C49.354 1.5 49.5312 1.67702 49.5312 1.89537V3.27914ZM30.9189 5.77251C29.6035 6.573 28.0332 8.26195 27.1313 9.99728C25.9707 12.232 25.9707 15.1398 27.1313 17.3746C28.0332 19.1099 29.6035 20.7989 30.9189 21.5994C31.6133 22.0219 32.0151 22.0625 32.1494 22.0319C32.1689 22.0275 32.1777 22.0254 32.2031 21.9892C32.2441 21.929 32.3232 21.766 32.3569 21.4131L33.9614 16.6869L35.2158 15.1306L36.7612 14.3178L36.875 14.3054V13.0665L36.7612 13.0541C36.1592 12.9882 35.6221 12.6142 35.2158 12.2413C34.7778 11.839 34.3477 11.3033 33.9614 10.685C33.1895 9.44896 32.5308 7.78339 32.3569 5.95885C32.3232 5.6059 32.2441 5.4429 32.2031 5.38275C32.1777 5.34651 32.1689 5.34445 32.147 5.33949C32.0151 5.30943 31.6133 5.34999 30.9189 5.77251ZM37.8696 17.3137V16.4384H37.875V11.4384H37.8696V10.0582C37.8696 8.9852 38.0815 8.52293 38.3062 8.29831C38.5308 8.07367 38.9927 7.86221 40.0659 7.86221H41.9312V5.73692H92.3823C93.2993 5.73692 93.5039 5.88234 93.5488 5.92722C93.5938 5.97211 93.7393 6.17657 93.7393 7.09372V20.7376C93.7393 21.6548 93.5938 21.8592 93.5488 21.9041C93.5039 21.949 93.2993 22.0944 92.3823 22.0944H41.9312V19.5097H40.0659C38.9927 19.5097 38.5308 19.2982 38.3062 19.0736C38.0815 18.849 37.8696 18.3867 37.8696 17.3137Z" fill="white"/>
</svg>
