<svg width="902" height="399" viewBox="0 0 902 399" fill="none" xmlns="http://www.w3.org/2000/svg">
<path d="M11.1529 219.291C15.1178 223.116 19.8524 226.48 24.6455 229.537L47.7097 240.251C46.9329 239.672 46.1853 239.028 45.4744 238.295C34.7082 227.316 33.8287 201.555 34.2538 187.183L36.2033 122.116C36.8116 101.742 37.3906 82.5032 86.7731 69.2672L267.864 20.7422C269.103 20.4124 270.371 21.1453 270.708 22.3839C270.745 22.5085 270.767 22.6404 270.774 22.765C270.928 23.0802 271.016 23.432 271.016 23.8057L270.789 57.7241L270.979 92.7125C270.979 93.7678 270.276 94.6913 269.257 94.9698L124.671 133.711C118.126 135.462 112.131 140.402 108.225 147.262C104.319 154.107 103.087 161.81 104.854 168.384C106.62 174.965 110.49 179.942 116.045 182.763C121.439 185.504 128.174 186.003 135.012 184.178L199.734 166.837C199.918 166.786 200.101 166.764 200.277 166.757L332.425 131.68C323.286 128.141 316.206 119.903 313.451 109.62C309.2 93.7605 322.729 76.0684 338.457 72.1474C352.331 68.6955 367.934 75.3135 371.796 93.8924C373.9 103.999 369.759 115.601 362.921 123.582L422.564 107.751L389.804 88.1245C389.569 87.9853 389.415 87.7581 389.349 87.5162L373.636 91.7231C373.372 87.5749 371.598 83.8811 369.165 80.715C366.395 77.1091 362.686 74.0676 359.059 71.6344C355.423 69.1939 351.781 67.303 349.055 66.0278C347.691 65.3902 346.548 64.8991 345.742 64.5693C345.346 64.4081 345.031 64.2835 344.811 64.1955C344.635 64.0563 344.379 63.8511 344.056 63.6019C343.389 63.0889 342.422 62.356 341.227 61.5058C338.831 59.8055 335.481 57.5922 331.67 55.5547C327.874 53.5246 323.542 51.6264 319.189 50.6077C314.96 49.6256 310.519 49.4277 306.503 50.9741C297.635 52.1174 289.837 58.2298 284.846 66.0058C279.789 73.8917 277.355 83.8811 279.803 93.013C282.068 101.368 287.455 108.426 294.725 112.86L105.447 163.576C105.616 162.719 105.777 161.861 105.938 161.018C106.1 160.168 106.253 159.34 106.415 158.534C107.001 155.639 107.705 152.89 108.973 150.252C111.442 145.136 116.258 140.013 127.683 135.733L271.763 96.5602C272.775 96.289 273.471 95.3729 273.478 94.3248L273.669 20.7203C273.669 19.8848 273.222 19.1079 272.496 18.6975L240.667 0.602303C240.139 0.301816 239.509 0.221198 238.915 0.375106L51.3815 50.6297C27.2399 57.1011 0.51123 82.1295 0.533217 117.506L0.57719 197.304C0.57719 206.274 5.07717 213.427 11.1456 219.291H11.1529Z" fill="white"/>
<path d="M124.531 256.799L189.187 239.474L188.902 209.594L122.831 227.3C122.75 227.322 122.662 227.337 122.574 227.352C122.252 227.403 121.937 227.447 121.614 227.491L111.097 230.313C85.5998 237.143 72.5396 250.475 72.2611 269.933L71.6235 314.742C71.4256 328.557 74.775 338.231 81.8547 344.336C89.9166 351.284 102.845 353.366 120.266 350.515L266.391 311.363L266.31 281.351L135.034 316.523C127.28 318.597 119.511 317.395 113.149 313.13C107.096 309.069 102.588 302.459 100.463 294.514C98.4402 286.973 100.324 278.552 105.754 270.82C110.628 263.879 117.649 258.639 124.524 256.792L124.531 256.799Z" fill="white"/>
<path d="M390.828 86.426L423.904 106.244L423.948 50.6022L391.29 30.9239C390.953 30.7187 390.784 30.345 390.821 29.9785C390.733 30.2277 390.682 30.4915 390.682 30.7627L390.74 86.3894C390.74 86.3894 390.799 86.404 390.821 86.4187L390.828 86.426Z" fill="white"/>
<path d="M39.328 285.171L41.6366 349.951C42.1423 364.045 48.1594 374.803 59.5339 381.942C77.2553 393.067 103.053 392.049 111.335 388.413C111.445 388.369 111.555 388.325 111.665 388.296L266.233 346.88L266.445 316.157L121.361 355.03C121.288 355.052 121.214 355.067 121.134 355.081C102.232 358.189 87.9996 355.756 78.8237 347.855C70.6373 340.805 66.7603 329.95 66.9801 314.677L67.6177 269.868C67.8889 250.768 78.8457 237.027 100.232 228.921C89.4654 228.525 81.4841 225.982 76.0607 221.284C67.4858 213.838 66.8629 202.463 66.9581 192.379L67.4199 141.245C67.6031 121.398 86.2919 104.131 103.5 99.5211L266.145 55.9432L266.343 25.9531L87.9776 73.7525C41.9297 86.0871 41.4314 102.848 40.8451 122.255L38.8956 187.322C38.1993 210.533 41.8051 227.924 48.7896 235.048C51.3181 237.628 54.2277 238.859 57.6797 238.83H57.7017C58.7424 238.83 59.6512 239.519 59.937 240.523C60.2228 241.534 59.7904 242.604 58.889 243.146C49.4786 248.76 38.4485 260.604 39.328 285.178V285.171Z" fill="white"/>
<path d="M123.477 129.228L266.333 90.9487L266.172 60.7461L104.722 104.009C84.7216 109.366 72.2038 127.535 72.0792 141.291L71.6175 192.425C71.5295 201.887 72.0425 211.634 79.1223 217.783C86.5465 224.226 100.149 225.919 120.685 222.95L188.859 204.679L188.573 174.631L136.215 188.658C128.27 190.784 120.362 190.161 113.95 186.899C107.185 183.462 102.494 177.474 100.384 169.581C98.3095 161.834 99.702 152.856 104.209 144.956C108.731 137.033 115.76 131.294 123.484 129.22L123.477 129.228Z" fill="white"/>
<path d="M600.035 60.6201C600.035 59.7993 599.595 59.0444 598.892 58.634L567.978 40.3849C567.443 40.0698 566.798 39.9818 566.197 40.143L487.11 61.331L487.264 33.525C487.264 32.7115 486.847 31.9566 486.158 31.5315L455.024 12.4909C454.482 12.1611 453.83 12.0659 453.214 12.2271L392.406 28.5193C391.944 28.6439 391.548 28.9078 391.255 29.2522C391.563 29.0397 391.981 29.0104 392.325 29.2156L424.792 48.7765L485.33 32.5576L484.846 91.0645L597.983 60.752L598.914 184.992L540.187 200.728L539.982 149.784L199.625 241.454C199.529 241.491 199.434 241.528 199.339 241.557L125.734 261.279C119.966 262.826 113.766 267.502 109.559 273.489C104.927 280.078 103.293 287.121 104.949 293.314C106.789 300.167 110.622 305.839 115.737 309.276C121.044 312.838 127.303 313.791 133.833 312.039L268.019 276.084C268.715 275.9 269.455 276.047 270.027 276.479C270.598 276.919 270.936 277.593 270.936 278.319L271.023 311.739C271.075 311.93 271.104 312.135 271.097 312.347L270.862 347.05C271.06 347.292 271.214 347.585 271.302 347.915C271.558 348.882 271.17 349.864 270.4 350.414C269.975 350.985 269.294 351.359 268.532 351.359H268.517C268.275 351.359 268.048 351.323 267.828 351.249L113.018 392.731C109.178 394.366 102.391 395.538 94.4028 395.538C82.7278 395.538 68.473 393.046 57.0471 385.871C44.4706 377.978 37.5374 365.614 36.9804 350.113L34.6718 285.333C34.0269 267.26 39.4063 253.02 50.2825 243.646L27.3355 232.99L25.496 234.096C25.452 234.118 25.4153 234.147 25.3714 234.177C6.68252 247.12 1.98466 265.31 2.21918 286.256L2.83482 341.634C3.10599 366.215 21.9561 380.836 42.6824 389.067C63.4673 397.319 87.0153 399.54 98.6317 398.895C98.7929 398.887 98.9468 398.858 99.108 398.822L271.221 352.7C272.233 352.429 272.936 351.513 272.944 350.472L273.303 276.604C273.303 275.878 272.973 275.197 272.401 274.757C272.035 274.471 271.595 274.325 271.141 274.295C270.943 273.885 270.62 273.526 270.21 273.291L238.373 255.182C237.845 254.881 237.215 254.8 236.621 254.954L106.825 289.73C106.54 279.111 112.652 267.868 127.537 263.881L505.22 162.683L505.741 182.024C505.763 182.845 506.217 183.592 506.935 183.988L539.71 202.179C540.238 202.472 540.854 202.545 541.44 202.391L598.804 187.022C599.823 186.751 600.526 185.828 600.526 184.772L600.035 60.6201Z" fill="white"/>
<path d="M238.462 196.035L204.639 174.407L241.818 164.447L258.477 177.002L277.474 153.637L302.363 147.664L268.943 182.447L303.433 204.691L266.634 214.453L250.152 202.91L228.722 224.354L205.731 230.796L238.462 196.035Z" stroke="white" stroke-width="4.39737" stroke-linejoin="round"/>
<path d="M472.078 43.513L436.335 53.5463C434.268 54.1546 432.392 55.2613 432.377 57.6432L431.915 131.878C427.291 121.244 419.397 114.758 404.461 118.759C385.963 123.714 371.371 140.812 375.438 155.998C379.506 171.176 388.594 181.935 407.092 176.973C417.939 174.071 426.954 167.116 431.747 158.797L431.71 165.239C431.695 167.621 433.366 170.289 435.441 169.739L471.096 160.204C473.17 159.647 475.039 158.489 475.054 156.108L475.808 48.013C475.823 45.6311 474.145 42.934 472.078 43.513ZM363.529 95.5265C366.68 107.282 356.896 119.712 345.082 122.878C333.268 126.044 323.901 118.745 320.757 106.989C317.606 95.2334 327.617 81.99 339.431 78.8239C351.245 75.6578 360.385 83.7709 363.529 95.5265ZM324.993 141.677L359.447 132.926C362.994 132.025 363.155 132.083 363.118 134.626L362.327 187.3C362.312 188.458 363.045 188.523 358.589 189.784L325.316 199.165C322.457 199.971 321.658 199.07 321.644 197.465L321.255 144.161C321.248 143.011 323.007 142.183 324.993 141.677ZM547.654 84.3499C547.654 82.1952 549.552 81.0225 551.986 80.3703L585.127 71.4656C589.466 70.3003 590.118 70.5128 590.089 75.2473L589.312 177.728C589.297 179.883 590.47 180.256 584.988 181.708L551.693 190.539C548.175 191.47 546.687 189.762 546.731 186.757L547.346 149.753L547.42 134.267C519.548 159.647 492.804 148.757 489.14 127.679V98.0404L529.097 87.3328L529.405 114.508C529.405 128.346 547.449 123.054 547.449 111.833C547.823 102.621 547.632 93.555 547.662 84.3426L547.654 84.3499Z" stroke="white" stroke-width="4.39737" stroke-linecap="round" stroke-linejoin="round"/>
<path d="M332.718 305.584C334.572 305.581 336.403 305.168 338.084 304.374C339.736 303.634 341.203 302.524 342.373 301.128V301.128L339.177 297.879C338.393 298.837 337.419 299.616 336.318 300.167C335.238 300.697 334.053 300.969 332.853 300.961C331.841 300.972 330.836 300.779 329.898 300.394C328.959 300.008 328.105 299.438 327.386 298.716C326.693 298.009 326.145 297.169 325.775 296.245C325.378 295.264 325.178 294.213 325.187 293.153C325.176 292.083 325.37 291.021 325.759 290.026C326.121 289.1 326.659 288.255 327.341 287.539C328.024 286.828 328.842 286.264 329.746 285.88C330.687 285.475 331.7 285.269 332.723 285.275C333.956 285.271 335.173 285.558 336.278 286.114C337.42 286.695 338.419 287.528 339.205 288.55V288.55L342.502 285.199C341.343 283.77 339.867 282.64 338.196 281.899C336.479 281.094 334.61 280.676 332.718 280.672C331.028 280.661 329.352 280.99 327.788 281.64C326.307 282.249 324.954 283.141 323.803 284.267C322.667 285.394 321.764 286.739 321.145 288.223C320.504 289.78 320.173 291.449 320.17 293.136C320.167 294.823 320.493 296.494 321.129 298.052C321.74 299.532 322.638 300.871 323.769 301.992C324.921 303.118 326.274 304.009 327.756 304.618C329.331 305.27 331.017 305.598 332.718 305.584V305.584ZM396.471 305.62C398.155 305.632 399.825 305.303 401.382 304.652C402.858 304.045 404.2 303.148 405.332 302.012C406.463 300.877 407.363 299.525 407.977 298.036C408.621 296.489 408.953 294.826 408.953 293.147C408.953 291.467 408.621 289.805 407.977 288.258C407.363 286.768 406.463 285.416 405.332 284.281C404.2 283.145 402.858 282.248 401.382 281.641C398.243 280.352 394.732 280.352 391.592 281.641C390.116 282.248 388.774 283.145 387.642 284.281C386.511 285.416 385.611 286.768 384.997 288.258C384.353 289.805 384.022 291.467 384.022 293.147C384.022 294.826 384.353 296.488 384.997 298.036C385.612 299.525 386.511 300.877 387.643 302.012C388.774 303.148 390.117 304.045 391.592 304.652C393.139 305.301 394.798 305.629 396.473 305.618L396.471 305.62ZM396.471 301.025C395.482 301.033 394.503 300.837 393.592 300.447C392.681 300.058 391.858 299.485 391.173 298.761C390.497 298.036 389.966 297.186 389.609 296.256C388.846 294.249 388.846 292.026 389.609 290.019C389.969 289.097 390.5 288.253 391.173 287.532C391.858 286.809 392.681 286.235 393.592 285.846C394.503 285.457 395.482 285.26 396.471 285.269C397.488 285.261 398.496 285.467 399.432 285.873C400.325 286.258 401.132 286.822 401.803 287.532C402.476 288.253 403.006 289.097 403.367 290.019C404.13 292.026 404.13 294.249 403.367 296.256C403.009 297.186 402.478 298.036 401.803 298.761C401.131 299.472 400.325 300.036 399.432 300.42C398.497 300.826 397.489 301.031 396.473 301.023L396.471 301.025ZM470.418 305.241V300.819H457.531V281.053H452.656V305.237L470.418 305.241ZM531.919 305.241V300.819H519.032V281.053H514.154V305.237L531.919 305.241ZM593.889 305.241V300.887H580.533V295.15H589.248V290.934H580.533V285.411H593.755V281.058H575.652V305.242L593.889 305.241ZM647.988 305.585C649.842 305.583 651.673 305.17 653.354 304.376C655.007 303.635 656.473 302.525 657.644 301.129V301.129L654.446 297.882C653.662 298.84 652.688 299.619 651.587 300.17C650.507 300.701 649.322 300.972 648.122 300.964C647.11 300.975 646.106 300.782 645.167 300.397C644.229 300.012 643.376 299.441 642.656 298.719C641.963 298.012 641.415 297.172 641.045 296.248C640.648 295.268 640.448 294.217 640.456 293.157C640.445 292.086 640.64 291.024 641.029 290.029C641.391 289.103 641.927 288.258 642.609 287.542C643.293 286.831 644.111 286.267 645.015 285.883C645.956 285.478 646.969 285.272 647.991 285.279C649.229 285.274 650.45 285.563 651.558 286.123C652.7 286.705 653.7 287.537 654.485 288.56V288.56L657.782 285.208C656.623 283.78 655.148 282.65 653.476 281.909C651.759 281.104 649.891 280.686 647.999 280.682C646.309 280.67 644.634 280.999 643.07 281.649C641.588 282.258 640.235 283.15 639.083 284.275C637.947 285.402 637.043 286.747 636.424 288.231C635.783 289.788 635.451 291.457 635.449 293.144C635.446 294.831 635.772 296.502 636.408 298.06C637.019 299.54 637.917 300.879 639.048 302C640.2 303.125 641.553 304.017 643.035 304.626C644.607 305.274 646.291 305.6 647.988 305.584V305.585ZM712.516 305.241V285.475H720.421V281.051H699.697V285.475H707.637V305.237L712.516 305.241ZM768.397 305.241V281.056H763.519V305.241H768.397ZM824.582 305.621C826.267 305.634 827.937 305.305 829.494 304.654C830.969 304.047 832.311 303.15 833.443 302.014C834.575 300.879 835.474 299.527 836.089 298.038C836.732 296.49 837.064 294.828 837.064 293.148C837.064 291.469 836.732 289.807 836.089 288.259C835.474 286.77 834.575 285.418 833.443 284.283C832.311 283.147 830.969 282.25 829.494 281.643C826.355 280.354 822.844 280.354 819.705 281.643C818.23 282.251 816.889 283.148 815.757 284.284C814.626 285.419 813.727 286.77 813.112 288.259C812.467 289.806 812.135 291.469 812.135 293.148C812.135 294.828 812.467 296.49 813.112 298.038C813.727 299.527 814.626 300.878 815.757 302.013C816.889 303.149 818.23 304.046 819.705 304.654C821.251 305.301 822.91 305.629 824.582 305.618V305.621ZM824.582 301.026C823.571 301.035 822.568 300.829 821.639 300.422C820.752 300.035 819.951 299.471 819.284 298.763C818.608 298.038 818.076 297.188 817.719 296.258C816.956 294.251 816.956 292.028 817.719 290.021C818.079 289.098 818.611 288.254 819.284 287.534C819.951 286.826 820.752 286.262 821.639 285.875C822.568 285.467 823.571 285.261 824.582 285.27C825.599 285.263 826.607 285.469 827.542 285.875C828.435 286.259 829.242 286.823 829.914 287.534C830.587 288.254 831.118 289.098 831.479 290.021C832.242 292.028 832.242 294.251 831.479 296.258C831.121 297.187 830.59 298.038 829.914 298.763C829.242 299.473 828.435 300.038 827.542 300.422C826.607 300.827 825.599 301.032 824.582 301.023V301.026ZM885.375 305.242V289.065L897.386 305.242H901.691V281.058H897.117V296.709L885.409 281.058H880.765V305.242H885.375Z" fill="white"/>
</svg>
