<svg width="723" height="85" viewBox="0 0 723 85" fill="none" xmlns="http://www.w3.org/2000/svg">
<g id="gamemeta">
<g id="GAME DETAILS">
<g id="ICON DIVIDERS" opacity="0.351446">
<rect id="Rectangle" x="170" width="1" height="73" fill="white"/>
<rect id="Rectangle_2" x="361" width="1" height="73" fill="white"/>
<rect id="Rectangle_3" x="552" width="1" height="73" fill="white"/>
</g>
<g id="MD_LBL_PLAYERS INFO">
<g id="PLAYERS - ICON">
<path id="Oval" d="M258.5 8C258.5 11.5899 255.59 14.5 252 14.5C248.41 14.5 245.5 11.5899 245.5 8C245.5 4.41015 248.41 1.5 252 1.5C255.59 1.5 258.5 4.41015 258.5 8Z" stroke="white" stroke-width="3"/>
<path id="Rectangle_4" d="M245 19.5H259C262.038 19.5 264.5 21.9624 264.5 25V36.5H239.5V25C239.5 21.9624 241.962 19.5 245 19.5Z" stroke="white" stroke-width="3"/>
<path id="Oval_2" d="M287.5 8C287.5 11.5899 284.59 14.5 281 14.5C277.41 14.5 274.5 11.5899 274.5 8C274.5 4.41015 277.41 1.5 281 1.5C284.59 1.5 287.5 4.41015 287.5 8Z" stroke="white" stroke-width="3"/>
<path id="Rectangle_5" d="M274 19.5H288C291.038 19.5 293.5 21.9624 293.5 25V36.5H268.5V25C268.5 21.9624 270.962 19.5 274 19.5Z" stroke="white" stroke-width="3"/>
</g>
</g>
<g id="MD_DEVELOPER INFO">
<g id="PROCESSOR - ICON">
<g id="Group 51">
<rect id="Rectangle_6" x="420" y="13" width="8" height="3" rx="1.5" fill="white"/>
<rect id="Rectangle_7" x="420" y="18" width="8" height="3" rx="1.5" fill="white"/>
<rect id="Rectangle_8" x="420" y="23" width="8" height="3" rx="1.5" fill="white"/>
</g>
<g id="Group 52">
<rect id="Rectangle_9" x="448" y="1" width="7" height="3" rx="1.5" transform="rotate(90 448 1)" fill="white"/>
<rect id="Rectangle_10" x="443" y="1" width="7" height="3" rx="1.5" transform="rotate(90 443 1)" fill="white"/>
<rect id="Rectangle_11" x="438" y="1" width="7" height="3" rx="1.5" transform="rotate(90 438 1)" fill="white"/>
<rect id="Rectangle_12" x="463" y="1" width="7" height="3" rx="1.5" transform="rotate(90 463 1)" fill="white"/>
<rect id="Rectangle_13" x="458" y="1" width="7" height="3" rx="1.5" transform="rotate(90 458 1)" fill="white"/>
<rect id="Rectangle_14" x="453" y="1" width="7" height="3" rx="1.5" transform="rotate(90 453 1)" fill="white"/>
<rect id="Rectangle_15" x="478" y="1" width="7" height="3" rx="1.5" transform="rotate(90 478 1)" fill="white"/>
<rect id="Rectangle_16" x="468" y="1" width="7" height="3" rx="1.5" transform="rotate(90 468 1)" fill="white"/>
<rect id="Rectangle_17" x="473" y="1" width="7" height="3" rx="1.5" transform="rotate(90 473 1)" fill="white"/>
</g>
<g id="Group 52_2">
<rect id="Rectangle_18" x="448" y="31" width="7" height="3" rx="1.5" transform="rotate(90 448 31)" fill="white"/>
<rect id="Rectangle_19" x="443" y="31" width="7" height="3" rx="1.5" transform="rotate(90 443 31)" fill="white"/>
<rect id="Rectangle_20" x="438" y="31" width="7" height="3" rx="1.5" transform="rotate(90 438 31)" fill="white"/>
<rect id="Rectangle_21" x="463" y="31" width="7" height="3" rx="1.5" transform="rotate(90 463 31)" fill="white"/>
<rect id="Rectangle_22" x="458" y="31" width="7" height="3" rx="1.5" transform="rotate(90 458 31)" fill="white"/>
<rect id="Rectangle_23" x="453" y="31" width="7" height="3" rx="1.5" transform="rotate(90 453 31)" fill="white"/>
<rect id="Rectangle_24" x="478" y="31" width="7" height="3" rx="1.5" transform="rotate(90 478 31)" fill="white"/>
<rect id="Rectangle_25" x="468" y="31" width="7" height="3" rx="1.5" transform="rotate(90 468 31)" fill="white"/>
<rect id="Rectangle_26" x="473" y="31" width="7" height="3" rx="1.5" transform="rotate(90 473 31)" fill="white"/>
</g>
<g id="Group 51_2">
<rect id="Rectangle_27" x="486" y="13" width="8" height="3" rx="1.5" fill="white"/>
<rect id="Rectangle_28" x="486" y="18" width="8" height="3" rx="1.5" fill="white"/>
<rect id="Rectangle_29" x="486" y="23" width="8" height="3" rx="1.5" fill="white"/>
</g>
<path id="Rectangle (Stroke)" fill-rule="evenodd" clip-rule="evenodd" d="M428 9V30H485V9H428ZM427.556 6C426.144 6 425 7.14416 425 8.55556V30.4444C425 31.8558 426.144 33 427.556 33H485.444C486.856 33 488 31.8558 488 30.4444V8.55556C488 7.14416 486.856 6 485.444 6H427.556Z" fill="white"/>
<path id="Rectangle (Stroke)_2" fill-rule="evenodd" clip-rule="evenodd" d="M480 14H433V25H480V14ZM431 12V27H482V12H431Z" fill="white"/>
</g>
</g>
<g id="RELEASEDATE - INFO">
<g id="RELEASEDATE - ICON">
<rect id="Rectangle_30" x="632" width="10" height="3" rx="1.5" transform="rotate(90 632 0)" fill="white"/>
<rect id="Rectangle_31" x="620" y="11" width="57" height="2" fill="white"/>
<rect id="Rectangle_32" x="668" width="10" height="3" rx="1.5" transform="rotate(90 668 0)" fill="white"/>
<path id="Rectangle (Stroke)_3" fill-rule="evenodd" clip-rule="evenodd" d="M623 6V35H674V6H623ZM622.556 3C621.144 3 620 4.14416 620 5.55556V35.4444C620 36.8558 621.144 38 622.556 38H674.444C675.856 38 677 36.8558 677 35.4444V5.55556C677 4.14416 675.856 3 674.444 3H622.556Z" fill="white"/>
<path id="Oval_3" fill-rule="evenodd" clip-rule="evenodd" d="M634.5 18C635.328 18 636 17.3284 636 16.5C636 15.6716 635.328 15 634.5 15C633.672 15 633 15.6716 633 16.5C633 17.3284 633.672 18 634.5 18Z" fill="white"/>
<path id="Oval_4" fill-rule="evenodd" clip-rule="evenodd" d="M641.5 18C642.328 18 643 17.3284 643 16.5C643 15.6716 642.328 15 641.5 15C640.672 15 640 15.6716 640 16.5C640 17.3284 640.672 18 641.5 18Z" fill="white"/>
<path id="Oval_5" fill-rule="evenodd" clip-rule="evenodd" d="M648.5 18C649.328 18 650 17.3284 650 16.5C650 15.6716 649.328 15 648.5 15C647.672 15 647 15.6716 647 16.5C647 17.3284 647.672 18 648.5 18Z" fill="white"/>
<path id="Oval_6" fill-rule="evenodd" clip-rule="evenodd" d="M655.5 18C656.328 18 657 17.3284 657 16.5C657 15.6716 656.328 15 655.5 15C654.672 15 654 15.6716 654 16.5C654 17.3284 654.672 18 655.5 18Z" fill="white"/>
<path id="Oval_7" fill-rule="evenodd" clip-rule="evenodd" d="M662.5 18C663.328 18 664 17.3284 664 16.5C664 15.6716 663.328 15 662.5 15C661.672 15 661 15.6716 661 16.5C661 17.3284 661.672 18 662.5 18Z" fill="white"/>
<path id="Oval_8" fill-rule="evenodd" clip-rule="evenodd" d="M669.5 18C670.328 18 671 17.3284 671 16.5C671 15.6716 670.328 15 669.5 15C668.672 15 668 15.6716 668 16.5C668 17.3284 668.672 18 669.5 18Z" fill="white"/>
<path id="Oval_9" fill-rule="evenodd" clip-rule="evenodd" d="M627.5 23C628.328 23 629 22.3284 629 21.5C629 20.6716 628.328 20 627.5 20C626.672 20 626 20.6716 626 21.5C626 22.3284 626.672 23 627.5 23Z" fill="white"/>
<path id="Oval_10" fill-rule="evenodd" clip-rule="evenodd" d="M634.5 23C635.328 23 636 22.3284 636 21.5C636 20.6716 635.328 20 634.5 20C633.672 20 633 20.6716 633 21.5C633 22.3284 633.672 23 634.5 23Z" fill="white"/>
<path id="Oval_11" fill-rule="evenodd" clip-rule="evenodd" d="M641.5 23C642.328 23 643 22.3284 643 21.5C643 20.6716 642.328 20 641.5 20C640.672 20 640 20.6716 640 21.5C640 22.3284 640.672 23 641.5 23Z" fill="white"/>
<path id="Oval_12" fill-rule="evenodd" clip-rule="evenodd" d="M648.5 23C649.328 23 650 22.3284 650 21.5C650 20.6716 649.328 20 648.5 20C647.672 20 647 20.6716 647 21.5C647 22.3284 647.672 23 648.5 23Z" fill="white"/>
<path id="Oval_13" fill-rule="evenodd" clip-rule="evenodd" d="M655.5 23C656.328 23 657 22.3284 657 21.5C657 20.6716 656.328 20 655.5 20C654.672 20 654 20.6716 654 21.5C654 22.3284 654.672 23 655.5 23Z" fill="white"/>
<path id="Oval_14" fill-rule="evenodd" clip-rule="evenodd" d="M662.5 23C663.328 23 664 22.3284 664 21.5C664 20.6716 663.328 20 662.5 20C661.672 20 661 20.6716 661 21.5C661 22.3284 661.672 23 662.5 23Z" fill="white"/>
<path id="Oval_15" fill-rule="evenodd" clip-rule="evenodd" d="M669.5 23C670.328 23 671 22.3284 671 21.5C671 20.6716 670.328 20 669.5 20C668.672 20 668 20.6716 668 21.5C668 22.3284 668.672 23 669.5 23Z" fill="white"/>
<path id="Oval_16" fill-rule="evenodd" clip-rule="evenodd" d="M627.5 28C628.328 28 629 27.3284 629 26.5C629 25.6716 628.328 25 627.5 25C626.672 25 626 25.6716 626 26.5C626 27.3284 626.672 28 627.5 28Z" fill="white"/>
<path id="Oval_17" fill-rule="evenodd" clip-rule="evenodd" d="M634.5 28C635.328 28 636 27.3284 636 26.5C636 25.6716 635.328 25 634.5 25C633.672 25 633 25.6716 633 26.5C633 27.3284 633.672 28 634.5 28Z" fill="white"/>
<path id="Oval_18" fill-rule="evenodd" clip-rule="evenodd" d="M641.5 28C642.328 28 643 27.3284 643 26.5C643 25.6716 642.328 25 641.5 25C640.672 25 640 25.6716 640 26.5C640 27.3284 640.672 28 641.5 28Z" fill="white"/>
<path id="Oval_19" fill-rule="evenodd" clip-rule="evenodd" d="M648.5 28C649.328 28 650 27.3284 650 26.5C650 25.6716 649.328 25 648.5 25C647.672 25 647 25.6716 647 26.5C647 27.3284 647.672 28 648.5 28Z" fill="white"/>
<path id="Oval_20" fill-rule="evenodd" clip-rule="evenodd" d="M655.5 28C656.328 28 657 27.3284 657 26.5C657 25.6716 656.328 25 655.5 25C654.672 25 654 25.6716 654 26.5C654 27.3284 654.672 28 655.5 28Z" fill="white"/>
<path id="Oval_21" fill-rule="evenodd" clip-rule="evenodd" d="M662.5 28C663.328 28 664 27.3284 664 26.5C664 25.6716 663.328 25 662.5 25C661.672 25 661 25.6716 661 26.5C661 27.3284 661.672 28 662.5 28Z" fill="white"/>
<path id="Oval_22" fill-rule="evenodd" clip-rule="evenodd" d="M669.5 28C670.328 28 671 27.3284 671 26.5C671 25.6716 670.328 25 669.5 25C668.672 25 668 25.6716 668 26.5C668 27.3284 668.672 28 669.5 28Z" fill="white"/>
<path id="Oval_23" fill-rule="evenodd" clip-rule="evenodd" d="M627.5 33C628.328 33 629 32.3284 629 31.5C629 30.6716 628.328 30 627.5 30C626.672 30 626 30.6716 626 31.5C626 32.3284 626.672 33 627.5 33Z" fill="white"/>
<path id="Oval_24" fill-rule="evenodd" clip-rule="evenodd" d="M634.5 33C635.328 33 636 32.3284 636 31.5C636 30.6716 635.328 30 634.5 30C633.672 30 633 30.6716 633 31.5C633 32.3284 633.672 33 634.5 33Z" fill="white"/>
<path id="Oval_25" fill-rule="evenodd" clip-rule="evenodd" d="M641.5 33C642.328 33 643 32.3284 643 31.5C643 30.6716 642.328 30 641.5 30C640.672 30 640 30.6716 640 31.5C640 32.3284 640.672 33 641.5 33Z" fill="white"/>
<path id="Oval_26" fill-rule="evenodd" clip-rule="evenodd" d="M648.5 33C649.328 33 650 32.3284 650 31.5C650 30.6716 649.328 30 648.5 30C647.672 30 647 30.6716 647 31.5C647 32.3284 647.672 33 648.5 33Z" fill="white"/>
<path id="Oval_27" fill-rule="evenodd" clip-rule="evenodd" d="M655.5 33C656.328 33 657 32.3284 657 31.5C657 30.6716 656.328 30 655.5 30C654.672 30 654 30.6716 654 31.5C654 32.3284 654.672 33 655.5 33Z" fill="white"/>
<path id="Oval_28" fill-rule="evenodd" clip-rule="evenodd" d="M662.5 33C663.328 33 664 32.3284 664 31.5C664 30.6716 663.328 30 662.5 30C661.672 30 661 30.6716 661 31.5C661 32.3284 661.672 33 662.5 33Z" fill="white"/>
</g>
</g>
</g>
<g id="Group 218">
<path id="Rectangle 213" d="M59.4458 3.56385C59.4458 3.05059 59.8619 2.63452 60.3751 2.63452H89.7665C90.2798 2.63452 90.6958 3.05059 90.6958 3.56385V51.1255C90.6958 52.6006 89.9742 53.9684 88.5901 54.4784C86.3568 55.3013 82.1519 56.3276 75.0708 56.3276C67.9897 56.3276 63.7848 55.3013 61.5515 54.4784C60.1674 53.9684 59.4458 52.6006 59.4458 51.1255V3.56385Z" stroke="white" stroke-width="2" stroke-linecap="round"/>
<g id="Group 215">
<g id="Vector">
<path d="M64.3984 34.8511C64.3984 34.6947 64.5253 34.5679 64.6817 34.5679H66.6539C66.8103 34.5679 66.9371 34.6947 66.9371 34.8511V41.3052C66.9371 41.4616 66.8103 41.5884 66.6539 41.5884H64.6817C64.5253 41.5884 64.3984 41.4616 64.3984 41.3052V34.8511Z" fill="white"/>
<path d="M62.4405 39.3476C62.2841 39.3476 62.1572 39.2208 62.1572 39.0643L62.1572 37.0922C62.1572 36.9357 62.2841 36.8089 62.4405 36.8089L68.8945 36.8089C69.051 36.8089 69.1778 36.9357 69.1778 37.0922V39.0643C69.1778 39.2208 69.051 39.3476 68.8945 39.3476H62.4405Z" fill="white"/>
</g>
<circle id="Ellipse 95" cx="80.5965" cy="39.0318" r="1.76298" fill="white"/>
<circle id="Ellipse 96" cx="86.221" cy="37.2498" r="1.76298" fill="white"/>
</g>
<g id="Group 212">
<rect id="Rectangle 216" x="71.2324" y="46.7339" width="3.18389" height="1.01459" rx="0.507297" fill="white"/>
<rect id="Rectangle 217" x="75.7251" y="46.7339" width="3.18389" height="1.01459" rx="0.507297" fill="white"/>
</g>
<g id="Group 216">
<g id="Group 211">
<path id="Rectangle 214" d="M63.0786 5.07764H87.0632C87.709 5.07764 88.2325 5.60119 88.2325 6.24702V27.1341C88.2325 27.6854 87.8519 28.1437 87.3289 28.234C85.204 28.6012 80.6608 29.2491 75.0709 29.2491C69.4809 29.2491 64.9377 28.6012 62.8128 28.234C62.2898 28.1437 61.9092 27.6854 61.9092 27.1341V6.24702C61.9092 5.60119 62.4327 5.07764 63.0786 5.07764Z" stroke="white"/>
<path id="Rectangle 215" d="M66.6865 7.96094H83.4548V23.446H66.6865V7.96094Z" stroke="white"/>
</g>
<circle id="Ellipse 97" cx="64.9214" cy="15.0613" r="0.50147" fill="white"/>
</g>
<g id="Group 213">
<circle id="Ellipse 108" cx="82.7863" cy="47.1123" r="0.238483" fill="white"/>
<circle id="Ellipse 109" cx="84.6149" cy="46.8737" r="0.238483" fill="white"/>
<circle id="Ellipse 110" cx="86.4431" cy="46.4763" r="0.238483" fill="white"/>
</g>
<g id="Group 214">
<circle id="Ellipse 108_2" cx="83.6701" cy="53.3564" r="0.238483" fill="white"/>
<circle id="Ellipse 109_2" cx="85.4987" cy="53.1179" r="0.238483" fill="white"/>
<circle id="Ellipse 110_2" cx="87.3269" cy="52.7204" r="0.238483" fill="white"/>
</g>
<circle id="Ellipse 111" cx="81.8415" cy="48.1279" r="0.238483" fill="white"/>
<circle id="Ellipse 112" cx="83.6701" cy="47.9191" r="0.238483" fill="white"/>
<circle id="Ellipse 113" cx="85.6037" cy="47.5896" r="0.238483" fill="white"/>
<circle id="Ellipse 114" cx="87.4318" cy="47.2124" r="0.238483" fill="white"/>
<circle id="Ellipse 115" cx="82.7858" cy="48.9321" r="0.238483" fill="white"/>
<circle id="Ellipse 116" cx="84.6145" cy="48.7231" r="0.238483" fill="white"/>
<circle id="Ellipse 117" cx="86.548" cy="48.3938" r="0.238483" fill="white"/>
<circle id="Ellipse 118" cx="88.3762" cy="48.0166" r="0.238483" fill="white"/>
<circle id="Ellipse 119" cx="81.8415" cy="50.0158" r="0.238483" fill="white"/>
<circle id="Ellipse 120" cx="83.6701" cy="49.8071" r="0.238483" fill="white"/>
<circle id="Ellipse 121" cx="85.6037" cy="49.4775" r="0.238483" fill="white"/>
<circle id="Ellipse 122" cx="87.4318" cy="49.1003" r="0.238483" fill="white"/>
<circle id="Ellipse 123" cx="82.7858" cy="50.7888" r="0.238483" fill="white"/>
<circle id="Ellipse 124" cx="84.6145" cy="50.58" r="0.238483" fill="white"/>
<circle id="Ellipse 125" cx="86.548" cy="50.2504" r="0.238483" fill="white"/>
<circle id="Ellipse 126" cx="88.3762" cy="49.8732" r="0.238483" fill="white"/>
<circle id="Ellipse 127" cx="81.8415" cy="51.802" r="0.238483" fill="white"/>
<circle id="Ellipse 128" cx="83.6701" cy="51.5932" r="0.238483" fill="white"/>
<circle id="Ellipse 129" cx="85.6037" cy="51.2636" r="0.238483" fill="white"/>
<circle id="Ellipse 130" cx="87.4318" cy="50.8864" r="0.238483" fill="white"/>
<circle id="Ellipse 131" cx="82.7858" cy="52.5749" r="0.238483" fill="white"/>
<circle id="Ellipse 132" cx="84.6145" cy="52.3662" r="0.238483" fill="white"/>
<circle id="Ellipse 133" cx="86.548" cy="52.0366" r="0.238483" fill="white"/>
<circle id="Ellipse 134" cx="88.3762" cy="51.6594" r="0.238483" fill="white"/>
</g>
</g>
</svg>
