<svg width="120" height="81" viewBox="0 0 120 81" fill="none" xmlns="http://www.w3.org/2000/svg">
<path fill-rule="evenodd" clip-rule="evenodd" d="M43.375 2.42933C43.375 1.36379 44.2388 0.5 45.3043 0.5H74.6957C75.7612 0.5 76.625 1.36379 76.625 2.42933V49.991C76.625 51.767 75.7426 53.5904 73.865 54.2822C71.502 55.1529 67.177 56.1931 60 56.1931C52.8231 56.1931 48.498 55.1529 46.135 54.2822C44.2574 53.5904 43.375 51.767 43.375 49.991V2.42933ZM45.375 2.5V49.991C45.375 51.1652 45.9358 52.0774 46.8264 52.4056C48.93 53.1806 53.0147 54.1931 60 54.1931C66.9853 54.1931 71.0701 53.1806 73.1736 52.4056C74.0643 52.0774 74.625 51.1652 74.625 49.991V2.5H45.375Z" fill="white"/>
<path d="M49.3276 33.7166C49.3276 33.5602 49.4545 33.4333 49.6109 33.4333H51.583C51.7395 33.4333 51.8663 33.5602 51.8663 33.7166V40.1707C51.8663 40.3271 51.7395 40.4539 51.583 40.4539H49.6109C49.4545 40.4539 49.3276 40.3271 49.3276 40.1707V33.7166Z" fill="white"/>
<path d="M47.3697 38.2131C47.2132 38.2131 47.0864 38.0862 47.0864 37.9298L47.0864 35.9576C47.0864 35.8012 47.2132 35.6744 47.3697 35.6744L53.8237 35.6744C53.9802 35.6744 54.107 35.8012 54.107 35.9576V37.9298C54.107 38.0862 53.9802 38.2131 53.8237 38.2131H47.3697Z" fill="white"/>
<path d="M67.2887 37.8973C67.2887 38.8709 66.4993 39.6602 65.5257 39.6602C64.552 39.6602 63.7627 38.8709 63.7627 37.8973C63.7627 36.9236 64.552 36.1343 65.5257 36.1343C66.4993 36.1343 67.2887 36.9236 67.2887 37.8973Z" fill="white"/>
<path d="M72.9132 36.1153C72.9132 37.0889 72.1239 37.8783 71.1502 37.8783C70.1765 37.8783 69.3872 37.0889 69.3872 36.1153C69.3872 35.1416 70.1765 34.3523 71.1502 34.3523C72.1239 34.3523 72.9132 35.1416 72.9132 36.1153Z" fill="white"/>
<path d="M56.1616 46.1067C56.1616 45.8265 56.3887 45.5994 56.6689 45.5994H58.8382C59.1184 45.5994 59.3455 45.8265 59.3455 46.1067V46.1067C59.3455 46.3868 59.1184 46.614 58.8382 46.614H56.6689C56.3887 46.614 56.1616 46.3868 56.1616 46.1067V46.1067Z" fill="white"/>
<path d="M60.6545 46.1067C60.6545 45.8265 60.8817 45.5994 61.1618 45.5994H63.3311C63.6113 45.5994 63.8384 45.8265 63.8384 46.1067V46.1067C63.8384 46.3868 63.6113 46.614 63.3311 46.614H61.1618C60.8817 46.614 60.6545 46.3868 60.6545 46.1067V46.1067Z" fill="white"/>
<path fill-rule="evenodd" clip-rule="evenodd" d="M71.9924 4.44312H48.0078C47.6381 4.44312 47.3384 4.74281 47.3384 5.11249V25.9996C47.3384 26.3179 47.5539 26.5596 47.8271 26.6068C49.9332 26.9707 54.4468 27.6146 60.0001 27.6146C65.5534 27.6146 70.0669 26.9707 72.173 26.6068C72.4462 26.5596 72.6617 26.3179 72.6617 25.9996V5.11249C72.6617 4.74281 72.3621 4.44312 71.9924 4.44312ZM48.0078 3.44312C47.0858 3.44312 46.3384 4.19052 46.3384 5.11249V25.9996C46.3384 26.7838 46.8841 27.4587 47.6569 27.5922C49.8006 27.9626 54.3735 28.6146 60.0001 28.6146C65.6266 28.6146 70.1995 27.9626 72.3432 27.5922C73.116 27.4587 73.6617 26.7838 73.6617 25.9996V5.11249C73.6617 4.19052 72.9143 3.44312 71.9924 3.44312H48.0078Z" fill="white"/>
<path fill-rule="evenodd" clip-rule="evenodd" d="M67.884 7.32642H52.1157V21.8115H67.884V7.32642ZM51.1157 6.32642V22.8115H68.884V6.32642H51.1157Z" fill="white"/>
<path d="M50.3521 13.9268C50.3521 14.2037 50.1275 14.4282 49.8506 14.4282C49.5736 14.4282 49.3491 14.2037 49.3491 13.9268C49.3491 13.6498 49.5736 13.4253 49.8506 13.4253C50.1275 13.4253 50.3521 13.6498 50.3521 13.9268Z" fill="white"/>
<path d="M67.954 45.9777C67.954 46.1095 67.8472 46.2162 67.7155 46.2162C67.5838 46.2162 67.4771 46.1095 67.4771 45.9777C67.4771 45.846 67.5838 45.7393 67.7155 45.7393C67.8472 45.7393 67.954 45.846 67.954 45.9777Z" fill="white"/>
<path d="M69.7826 45.7392C69.7826 45.8709 69.6759 45.9777 69.5441 45.9777C69.4124 45.9777 69.3057 45.8709 69.3057 45.7392C69.3057 45.6075 69.4124 45.5007 69.5441 45.5007C69.6759 45.5007 69.7826 45.6075 69.7826 45.7392Z" fill="white"/>
<path d="M71.6105 45.3418C71.6105 45.4735 71.5037 45.5802 71.372 45.5802C71.2403 45.5802 71.1335 45.4735 71.1335 45.3418C71.1335 45.21 71.2403 45.1033 71.372 45.1033C71.5037 45.1033 71.6105 45.21 71.6105 45.3418Z" fill="white"/>
<path d="M68.8378 52.2219C68.8378 52.3536 68.731 52.4604 68.5993 52.4604C68.4676 52.4604 68.3608 52.3536 68.3608 52.2219C68.3608 52.0902 68.4676 51.9834 68.5993 51.9834C68.731 51.9834 68.8378 52.0902 68.8378 52.2219Z" fill="white"/>
<path d="M70.6664 51.9834C70.6664 52.1151 70.5596 52.2218 70.4279 52.2218C70.2962 52.2218 70.1895 52.1151 70.1895 51.9834C70.1895 51.8516 70.2962 51.7449 70.4279 51.7449C70.5596 51.7449 70.6664 51.8516 70.6664 51.9834Z" fill="white"/>
<path d="M72.4943 51.5859C72.4943 51.7176 72.3875 51.8244 72.2558 51.8244C72.1241 51.8244 72.0173 51.7176 72.0173 51.5859C72.0173 51.4542 72.1241 51.3474 72.2558 51.3474C72.3875 51.3474 72.4943 51.4542 72.4943 51.5859Z" fill="white"/>
<path d="M67.0092 46.9934C67.0092 47.1251 66.9024 47.2318 66.7707 47.2318C66.639 47.2318 66.5322 47.1251 66.5322 46.9934C66.5322 46.8617 66.639 46.7549 66.7707 46.7549C66.9024 46.7549 67.0092 46.8617 67.0092 46.9934Z" fill="white"/>
<path d="M68.8378 46.7846C68.8378 46.9163 68.731 47.0231 68.5993 47.0231C68.4676 47.0231 68.3608 46.9163 68.3608 46.7846C68.3608 46.6529 68.4676 46.5461 68.5993 46.5461C68.731 46.5461 68.8378 46.6529 68.8378 46.7846Z" fill="white"/>
<path d="M70.7714 46.455C70.7714 46.5867 70.6646 46.6935 70.5329 46.6935C70.4012 46.6935 70.2944 46.5867 70.2944 46.455C70.2944 46.3233 70.4012 46.2166 70.5329 46.2166C70.6646 46.2166 70.7714 46.3233 70.7714 46.455Z" fill="white"/>
<path d="M72.5995 46.0778C72.5995 46.2095 72.4928 46.3163 72.361 46.3163C72.2293 46.3163 72.1226 46.2095 72.1226 46.0778C72.1226 45.9461 72.2293 45.8394 72.361 45.8394C72.4928 45.8394 72.5995 45.9461 72.5995 46.0778Z" fill="white"/>
<path d="M67.9535 47.7976C67.9535 47.9293 67.8468 48.036 67.715 48.036C67.5833 48.036 67.4766 47.9293 67.4766 47.7976C67.4766 47.6659 67.5833 47.5591 67.715 47.5591C67.8468 47.5591 67.9535 47.6659 67.9535 47.7976Z" fill="white"/>
<path d="M69.7821 47.5886C69.7821 47.7203 69.6754 47.8271 69.5437 47.8271C69.4119 47.8271 69.3052 47.7203 69.3052 47.5886C69.3052 47.4569 69.4119 47.3501 69.5437 47.3501C69.6754 47.3501 69.7821 47.4569 69.7821 47.5886Z" fill="white"/>
<path d="M71.7157 47.2592C71.7157 47.3909 71.609 47.4977 71.4773 47.4977C71.3455 47.4977 71.2388 47.3909 71.2388 47.2592C71.2388 47.1275 71.3455 47.0208 71.4773 47.0208C71.609 47.0208 71.7157 47.1275 71.7157 47.2592Z" fill="white"/>
<path d="M73.5439 46.882C73.5439 47.0137 73.4371 47.1205 73.3054 47.1205C73.1737 47.1205 73.0669 47.0137 73.0669 46.882C73.0669 46.7503 73.1737 46.6436 73.3054 46.6436C73.4371 46.6436 73.5439 46.7503 73.5439 46.882Z" fill="white"/>
<path d="M67.0092 48.8813C67.0092 49.013 66.9024 49.1198 66.7707 49.1198C66.639 49.1198 66.5322 49.013 66.5322 48.8813C66.5322 48.7496 66.639 48.6428 66.7707 48.6428C66.9024 48.6428 67.0092 48.7496 67.0092 48.8813Z" fill="white"/>
<path d="M68.8378 48.6726C68.8378 48.8043 68.731 48.911 68.5993 48.911C68.4676 48.911 68.3608 48.8043 68.3608 48.6726C68.3608 48.5409 68.4676 48.4341 68.5993 48.4341C68.731 48.4341 68.8378 48.5409 68.8378 48.6726Z" fill="white"/>
<path d="M70.7714 48.343C70.7714 48.4747 70.6646 48.5815 70.5329 48.5815C70.4012 48.5815 70.2944 48.4747 70.2944 48.343C70.2944 48.2113 70.4012 48.1045 70.5329 48.1045C70.6646 48.1045 70.7714 48.2113 70.7714 48.343Z" fill="white"/>
<path d="M72.5995 47.9658C72.5995 48.0975 72.4928 48.2043 72.361 48.2043C72.2293 48.2043 72.1226 48.0975 72.1226 47.9658C72.1226 47.8341 72.2293 47.7273 72.361 47.7273C72.4928 47.7273 72.5995 47.8341 72.5995 47.9658Z" fill="white"/>
<path d="M67.9535 49.6543C67.9535 49.786 67.8468 49.8927 67.715 49.8927C67.5833 49.8927 67.4766 49.786 67.4766 49.6543C67.4766 49.5225 67.5833 49.4158 67.715 49.4158C67.8468 49.4158 67.9535 49.5225 67.9535 49.6543Z" fill="white"/>
<path d="M69.7821 49.4455C69.7821 49.5772 69.6754 49.684 69.5437 49.684C69.4119 49.684 69.3052 49.5772 69.3052 49.4455C69.3052 49.3138 69.4119 49.207 69.5437 49.207C69.6754 49.207 69.7821 49.3138 69.7821 49.4455Z" fill="white"/>
<path d="M71.7157 49.1159C71.7157 49.2476 71.609 49.3544 71.4773 49.3544C71.3455 49.3544 71.2388 49.2476 71.2388 49.1159C71.2388 48.9842 71.3455 48.8774 71.4773 48.8774C71.609 48.8774 71.7157 48.9842 71.7157 49.1159Z" fill="white"/>
<path d="M73.5439 48.7387C73.5439 48.8704 73.4371 48.9772 73.3054 48.9772C73.1737 48.9772 73.0669 48.8704 73.0669 48.7387C73.0669 48.607 73.1737 48.5002 73.3054 48.5002C73.4371 48.5002 73.5439 48.607 73.5439 48.7387Z" fill="white"/>
<path d="M67.0092 50.6674C67.0092 50.7991 66.9024 50.9059 66.7707 50.9059C66.639 50.9059 66.5322 50.7991 66.5322 50.6674C66.5322 50.5357 66.639 50.429 66.7707 50.429C66.9024 50.429 67.0092 50.5357 67.0092 50.6674Z" fill="white"/>
<path d="M68.8378 50.4587C68.8378 50.5904 68.731 50.6972 68.5993 50.6972C68.4676 50.6972 68.3608 50.5904 68.3608 50.4587C68.3608 50.327 68.4676 50.2202 68.5993 50.2202C68.731 50.2202 68.8378 50.327 68.8378 50.4587Z" fill="white"/>
<path d="M70.7714 50.1291C70.7714 50.2608 70.6646 50.3676 70.5329 50.3676C70.4012 50.3676 70.2944 50.2608 70.2944 50.1291C70.2944 49.9974 70.4012 49.8906 70.5329 49.8906C70.6646 49.8906 70.7714 49.9974 70.7714 50.1291Z" fill="white"/>
<path d="M72.5995 49.7519C72.5995 49.8836 72.4928 49.9904 72.361 49.9904C72.2293 49.9904 72.1226 49.8836 72.1226 49.7519C72.1226 49.6202 72.2293 49.5134 72.361 49.5134C72.4928 49.5134 72.5995 49.6202 72.5995 49.7519Z" fill="white"/>
<path d="M67.9535 51.4404C67.9535 51.5721 67.8468 51.6789 67.715 51.6789C67.5833 51.6789 67.4766 51.5721 67.4766 51.4404C67.4766 51.3087 67.5833 51.2019 67.715 51.2019C67.8468 51.2019 67.9535 51.3087 67.9535 51.4404Z" fill="white"/>
<path d="M69.7821 51.2316C69.7821 51.3634 69.6754 51.4701 69.5437 51.4701C69.4119 51.4701 69.3052 51.3634 69.3052 51.2316C69.3052 51.0999 69.4119 50.9932 69.5437 50.9932C69.6754 50.9932 69.7821 51.0999 69.7821 51.2316Z" fill="white"/>
<path d="M71.7157 50.9021C71.7157 51.0338 71.609 51.1405 71.4773 51.1405C71.3455 51.1405 71.2388 51.0338 71.2388 50.9021C71.2388 50.7703 71.3455 50.6636 71.4773 50.6636C71.609 50.6636 71.7157 50.7703 71.7157 50.9021Z" fill="white"/>
<path d="M73.5439 50.5249C73.5439 50.6566 73.4371 50.7633 73.3054 50.7633C73.1737 50.7633 73.0669 50.6566 73.0669 50.5249C73.0669 50.3931 73.1737 50.2864 73.3054 50.2864C73.4371 50.2864 73.5439 50.3931 73.5439 50.5249Z" fill="white"/>
</svg>
