<svg width="786" height="220" viewBox="0 0 786 220" fill="none" xmlns="http://www.w3.org/2000/svg">
<path fill-rule="evenodd" clip-rule="evenodd" d="M0 23.9727C0 36.5706 9.79675 46.9609 24.4584 46.9659H162.542C177.203 46.9609 187 36.5706 187 23.9727C187 11.3747 177.181 0.865248 162.564 0.897535H24.436C9.8191 0.865252 0 11.3747 0 23.9727ZM5.77148 23.9428C5.77148 14.3447 12.8962 6.58681 24.5033 6.56445L162.5 6.56693C174.107 6.58929 181.231 14.3472 181.231 23.9428C181.231 33.5384 174.149 41.3584 162.497 41.3187H24.5033C12.8515 41.3609 5.77148 33.5384 5.77148 23.9428Z" fill="white"/>
<path fill-rule="evenodd" clip-rule="evenodd" d="M166.5 16.5573C166.5 14.7147 167.995 13.2197 169.838 13.2197C171.68 13.2197 173.175 14.7147 173.175 16.5573C173.175 18.4 171.68 19.8949 169.838 19.8949C167.995 19.8949 166.5 18.4 166.5 16.5573ZM169.837 19.2593C171.327 19.2593 172.537 18.0499 172.537 16.5599C172.537 15.0674 171.327 13.8605 169.837 13.8605C168.347 13.8605 167.138 15.0699 167.138 16.5599C167.138 18.0499 168.347 19.2593 169.837 19.2593Z" fill="white"/>
<path fill-rule="evenodd" clip-rule="evenodd" d="M171.499 15.7304C171.499 15.0226 170.975 14.665 169.92 14.665H168.469V18.3627H169.371V16.8479H169.81L170.518 18.3627H171.519L170.692 16.7113C171.196 16.5847 171.499 16.2171 171.499 15.7304ZM169.811 16.3067H169.371V15.2314H169.766C170.307 15.2314 170.573 15.3978 170.573 15.7827C170.573 16.1503 170.325 16.3067 169.811 16.3067Z" fill="white"/>
<path fill-rule="evenodd" clip-rule="evenodd" d="M99.3606 30.5659C99.3606 29.7563 99.3556 29.6918 99.3556 29.6918L105.852 29.6867C104.717 33.0914 101 35.602 96.5991 35.602C91.2947 35.602 86.9961 31.9788 86.9961 27.5064C86.9961 23.0339 91.2947 19.4082 96.5991 19.4082C101.904 19.4082 106.222 23.1133 106.222 27.5858C106.222 27.5933 93.937 27.5884 93.937 27.5884C93.937 27.5884 93.932 29.7762 93.932 30.5659C93.932 33.2032 95.6977 33.7893 96.6612 33.7893C97.6248 33.7893 99.3606 33.2032 99.3606 30.5659ZM94.3691 22.5148C93.9544 23.235 93.9271 24.0793 93.937 25.3433L99.3779 25.3458C99.3878 24.0818 99.3705 23.2375 98.9557 22.5148C98.4469 21.6262 97.5114 21.204 96.6624 21.1987C96.6628 21.1987 96.6633 21.1987 96.6637 21.1987H96.6611C96.6616 21.1987 96.662 21.1987 96.6624 21.1987C95.8135 21.204 94.8779 21.6262 94.3691 22.5148Z" fill="white"/>
<path d="M119.875 19.6491C122.314 19.5796 127.261 21.1764 127.226 26.8856C127.221 27.8988 127.224 34.7329 127.224 34.7329H120.744C120.744 34.7329 120.744 26.1629 120.744 25.2615C120.744 24.0049 119.543 22.6068 117.764 22.6068C115.989 22.6068 114.668 24.0049 114.668 25.2615C114.668 25.8773 114.675 34.7329 114.675 34.7329H108.201L108.206 20.3122L114.678 20.3072C114.678 20.3072 114.67 21.4669 114.678 21.8245C115.924 20.635 117.722 19.7112 119.875 19.6491L119.875 19.6491Z" fill="white"/>
<path d="M66.876 19.6491C69.3146 19.5796 74.2614 21.1764 74.2267 26.8856C74.2217 27.8988 74.2241 34.7329 74.2241 34.7329H67.7451C67.7451 34.7329 67.7451 26.1629 67.7451 25.2615C67.7451 24.0049 66.5432 22.6068 64.7651 22.6068C62.9895 22.6068 61.6684 24.0049 61.6684 25.2615C61.6684 25.8773 61.6758 34.7329 61.6758 34.7329H55.2018L55.1992 20.3122L61.6782 20.3072C61.6782 20.3072 61.6708 21.4669 61.6782 21.8245C62.9249 20.635 64.7203 19.7112 66.8759 19.6491L66.876 19.6491Z" fill="white"/>
<path fill-rule="evenodd" clip-rule="evenodd" d="M147.719 13.0508H141.282H141.282C141.282 13.0508 141.282 17.6921 141.287 21.0297C140.244 20.4437 139.144 19.8799 137.597 19.7434C132.896 19.3311 129.305 23.4882 129.305 27.2952C129.305 32.314 133.176 34.1715 133.765 34.4447C135.958 35.4678 138.774 35.4703 141.269 33.9033C141.269 34.0374 141.272 34.7377 141.272 34.7377H147.719V13.0508ZM141.329 24.8766V27.4543H141.329C141.329 27.4543 141.332 29.0858 141.332 30.0121C141.332 32.2397 139.789 32.8232 138.774 32.8232C137.738 32.8232 136.218 32.2397 136.218 30.0121C136.218 29.2448 136.221 27.4468 136.221 27.4468C136.221 27.4468 136.218 25.6166 136.218 24.8766C136.218 22.6465 137.738 22.0779 138.776 22.0779C139.789 22.0779 141.329 22.6465 141.329 24.8766Z" fill="white"/>
<path fill-rule="evenodd" clip-rule="evenodd" d="M149.842 27.4295C149.842 22.957 154.108 19.3313 159.373 19.3313C164.637 19.3313 168.904 22.957 168.904 27.4295C168.904 31.9019 164.637 35.5276 159.373 35.5276C154.111 35.5276 149.842 31.9019 149.842 27.4295ZM161.99 30.4667C161.99 29.5925 161.993 27.4122 161.993 27.4122L161.995 27.4196C161.989 26.9492 161.99 25.7927 161.99 24.9069C161.99 24.7031 161.99 24.5137 161.99 24.3502C161.99 22.0606 160.627 21.1194 159.326 21.1194C158.027 21.1194 156.661 22.0606 156.661 24.3502C156.661 25.2244 156.656 27.3575 156.656 27.3575C156.656 27.3575 156.654 29.5925 156.654 30.4667C156.654 32.7662 158.017 33.7149 159.326 33.7149C160.632 33.7149 161.99 32.7662 161.99 30.4667Z" fill="white"/>
<path d="M45.0725 17.4786V13.0459H51.6086V17.4786H45.0725Z" fill="white"/>
<path d="M45.0874 34.7379V20.3147L51.6086 20.3173V34.738L45.0874 34.7379Z" fill="white"/>
<path d="M77.8054 34.738L77.8079 20.3446H74.2617V18.204L77.8104 18.2014L77.8054 15.281H84.3316V18.1989H87.8629V20.3445H84.3316L84.3366 34.7379L77.8054 34.738Z" fill="white"/>
<path d="M18.5479 34.7377L18.5503 13.0508H25.3075L34.6548 28.1743L34.6498 13.0508H41.3548V34.7377H34.6597L25.2628 19.6142V34.7377H18.5479Z" fill="white"/>
<path d="M418.322 64.6763H438.747L448.835 87.8796L463.964 64.6763H484.887L455.386 110.573L450.597 146.382H431.686L437.233 105.524L418.322 64.6763Z" fill="white"/>
<path d="M268.027 146.382L270.549 128.217H241.807L243.572 114.103H268.532L271.058 95.9469H246.346L248.113 82.8314H276.853L279.629 64.6763H231.971L220.624 146.382H268.027Z" fill="white"/>
<path fill-rule="evenodd" clip-rule="evenodd" d="M108.662 122.166H91.5156L82.1877 146.374H63.0228L64.2825 142.591C60.5008 144.609 49.909 148.14 40.5785 147.635C24.4413 147.885 0.233284 135.276 3.25843 108.801C8.40008 63.8025 58.7354 60.1339 77.9012 66.6883L75.1251 84.0878C46.3789 74.7582 22.1709 91.6528 21.4153 109.808C20.6596 127.965 37.5534 129.476 39.8229 129.476C42.0924 129.476 47.8911 129.224 50.413 127.712L51.4228 122.165H37.0476L39.3188 106.026H72.0999L68.569 132.503L95.5514 64.6729H119.759L128.082 131.748L150.271 64.6729H169.687L176.244 107.792L193.138 64.6729H214.825L219.869 146.374H201.714L198.687 99.4719L180.532 146.374H164.141L157.079 101.993L142.705 146.374H111.69L108.662 122.166ZM104.627 89.1342L98.3233 106.027H106.646L104.627 89.1342Z" fill="white"/>
<path fill-rule="evenodd" clip-rule="evenodd" d="M359.564 101.494C365.868 70.9808 384.78 63.4158 397.894 63.9207C417.055 64.6781 431.432 80.058 427.397 109.31C423.362 138.561 401.425 148.395 385.788 146.378C370.154 144.36 353.26 132.004 359.564 101.494ZM409.743 106.031C412.517 84.8511 401.171 81.3202 395.876 81.3202C390.325 81.0678 379.987 86.6157 377.214 106.031C374.44 125.449 384.273 128.724 389.066 129.229C393.857 129.735 406.968 127.213 409.743 106.031Z" fill="white"/>
<path fill-rule="evenodd" clip-rule="evenodd" d="M303.836 64.679L292.489 146.379L328.548 146.378C344.939 146.378 354.269 135.286 356.036 123.936C357.8 112.588 353.514 106.536 349.225 102.756C349.588 102.492 349.971 102.251 350.368 102.001C353.01 100.335 356.233 98.3035 357.548 87.1215C359.06 74.2619 346.958 64.679 338.634 64.679H303.836ZM318.207 95.9471H328.799C336.617 95.9471 338.13 90.9032 338.379 88.8878C338.632 86.8691 336.364 82.8341 332.33 82.8341H319.974L318.207 95.9471ZM313.669 128.222H328.044C335.858 128.222 337.624 122.172 337.874 120.153C338.128 118.136 335.858 114.104 331.824 114.104H315.688L313.669 128.222Z" fill="white"/>
<path d="M460.825 134.02C457.714 134.02 455.203 136.529 455.203 139.624C455.203 142.753 457.713 145.263 460.825 145.263C463.92 145.263 466.429 142.753 466.429 139.624C466.426 136.528 463.916 134.02 460.825 134.02V133.249C464.351 133.249 467.199 136.11 467.199 139.624C467.199 143.171 464.351 146.032 460.825 146.032C457.277 146.031 454.417 143.171 454.417 139.624C454.417 136.11 457.277 133.25 460.825 133.25V134.02V134.02Z" fill="white"/>
<path d="M459.312 136.69H461.354C462.242 136.69 463.209 136.823 463.209 137.929C463.209 139.383 461.655 139.217 460.65 139.217L459.312 139.215V139.903H460.921L462.961 143.199H463.998L461.839 139.903C463.111 139.871 464.097 139.352 464.097 137.946C464.097 137.343 463.831 136.708 463.296 136.405C462.761 136.088 462.157 136.055 461.554 136.055H458.446V143.198H459.313V136.69H459.312Z" fill="white"/>
<path d="M566.432 74.4853C563.576 58.7744 547.865 58.7744 535.725 63.0592C519.3 68.7723 511.444 80.9125 505.731 96.6234C500.018 111.62 502.161 129.474 515.015 140.9C527.155 151.612 545.008 151.612 559.291 148.041C570.003 145.899 565.718 128.759 555.006 131.616C537.153 135.901 517.157 129.474 520.728 108.05C522.156 100.194 526.441 88.768 533.582 83.769C536.439 82.3408 549.293 75.9136 550.007 79.4843C551.436 90.1962 568.575 85.1973 566.432 74.4853Z" fill="#E1E1E1"/>
<path d="M578.573 81.6279C560.005 86.6268 554.292 107.337 560.72 123.762C569.289 143.757 591.427 148.042 608.566 137.33C642.845 115.906 603.567 53.0626 572.86 83.0561C565.718 90.1975 577.859 101.624 585 94.4822C597.854 82.342 613.565 113.05 599.997 123.048C578.573 138.758 563.576 103.052 582.144 98.0529C592.856 94.4822 588.571 78.7713 578.573 81.6279Z" fill="#878787"/>
<path d="M695.69 90.1965C696.283 90.3547 696.866 90.5304 697.436 90.7232C707.165 94.011 713.425 102.255 711.401 113.049C709.259 121.618 699.261 129.474 689.977 126.617C683.55 125.189 680.693 116.619 679.979 110.906C679.265 101.623 684.978 95.1954 694.262 92.3389C695.512 91.9482 696.566 91.3949 697.436 90.7232C704.517 85.2566 699.439 71.9417 689.263 74.4856C672.838 80.1987 661.412 93.7672 662.126 111.62C662.126 126.617 672.124 140.9 687.121 145.185C705.688 150.184 724.255 135.187 729.254 118.048C735.682 97.3378 720.685 77.3421 700.689 72.3432C689.263 70.2008 684.264 87.34 695.69 90.1965Z" fill="white"/>
<path fill-rule="evenodd" clip-rule="evenodd" d="M758.825 113.368C770.532 104.622 781.362 93.6824 777.102 78.7712C772.817 60.918 747.108 62.3462 733.54 65.2029C729.969 65.917 727.113 69.4875 727.113 73.0581C727.376 77.2717 727.712 81.5095 728.05 85.7627C729.542 104.576 731.058 123.69 726.398 142.329C724.97 153.041 740.681 157.326 743.538 147.328C745.559 139.693 746.591 132.058 747.012 124.401C755.369 132.885 763.669 141.892 771.389 150.898C778.53 158.754 789.956 147.328 782.815 139.472C775.214 130.605 767.052 121.737 758.825 113.368ZM745.875 87.2036C746.237 92.1699 746.597 97.113 746.858 102.038C752.939 97.9753 758.97 93.1504 761.391 87.3408C764.448 80.208 753.328 79.9814 745.408 80.6968C745.508 82.1448 745.612 83.5908 745.717 85.0349L745.875 87.2036Z" fill="#929292"/>
<path d="M616.422 70.9153C627.134 90.1969 625.706 113.763 625.706 135.901C625.706 140.9 630.705 145.899 636.418 143.757C645.702 140.9 654.985 139.472 664.983 137.33C675.695 135.187 670.696 118.762 660.698 121.619C654.923 122.952 648.871 124.008 642.886 125.304C642.964 103.732 642.462 82.0782 631.419 63.0599C625.706 53.7761 610.709 61.6316 616.422 70.9153Z" fill="#B4B4B4"/>
<path d="M2.45 205V201.5L16.65 186.4C17.6167 185.4 18.3667 184.5 18.9 183.7C19.4333 182.9 19.8 182.15 20 181.45C20.2333 180.717 20.35 179.95 20.35 179.15C20.35 177.583 19.7167 176.283 18.45 175.25C17.1833 174.217 15.5833 173.7 13.65 173.7C12.05 173.7 10.55 174.017 9.15 174.65C7.75 175.283 6.2 176.383 4.5 177.95L1.8 174.65C3.66667 172.917 5.58333 171.617 7.55 170.75C9.55 169.883 11.6167 169.45 13.75 169.45C15.9833 169.45 17.95 169.85 19.65 170.65C21.35 171.45 22.6667 172.567 23.6 174C24.5667 175.4 25.05 177.017 25.05 178.85C25.05 180.017 24.9 181.1 24.6 182.1C24.3 183.067 23.7833 184.1 23.05 185.2C22.3167 186.267 21.2833 187.5 19.95 188.9L8.55 200.9L25.75 200.85V205H2.45ZM41.7336 205V170H57.9336C60.2336 170 62.2336 170.45 63.9336 171.35C65.6336 172.217 66.9669 173.433 67.9336 175C68.9003 176.567 69.3836 178.383 69.3836 180.45C69.3836 182.517 68.9003 184.333 67.9336 185.9C66.9669 187.467 65.6169 188.7 63.8836 189.6C62.1836 190.467 60.2003 190.9 57.9336 190.9H46.9836V205H41.7336ZM46.9836 186.45H57.3836C59.4503 186.45 61.0836 185.917 62.2836 184.85C63.5169 183.75 64.1336 182.3 64.1336 180.5C64.1336 178.7 63.5169 177.267 62.2836 176.2C61.0836 175.133 59.4503 174.6 57.3836 174.6H46.9836V186.45ZM74.1902 205V170L79.1902 169.05V205H74.1902ZM93.1289 205.45C91.2956 205.45 89.6789 205.133 88.2789 204.5C86.8789 203.833 85.7789 202.917 84.9789 201.75C84.1789 200.583 83.7789 199.233 83.7789 197.7C83.7789 195.3 84.6956 193.417 86.5289 192.05C88.3622 190.65 90.8789 189.95 94.0789 189.95C96.5789 189.95 98.8956 190.433 101.029 191.4V188.7C101.029 186.867 100.496 185.5 99.4289 184.6C98.3956 183.7 96.8622 183.25 94.8289 183.25C93.6622 183.25 92.4456 183.433 91.1789 183.8C89.9122 184.133 88.4956 184.667 86.9289 185.4L85.0789 181.65C87.0122 180.75 88.8122 180.1 90.4789 179.7C92.1456 179.267 93.8289 179.05 95.5289 179.05C98.8289 179.05 101.379 179.833 103.179 181.4C105.012 182.967 105.929 185.2 105.929 188.1V205H101.029V202.8C99.8956 203.7 98.6789 204.367 97.3789 204.8C96.0789 205.233 94.6622 205.45 93.1289 205.45ZM88.5789 197.6C88.5789 198.833 89.0956 199.833 90.1289 200.6C91.1956 201.367 92.5789 201.75 94.2789 201.75C95.6122 201.75 96.8289 201.55 97.9289 201.15C99.0622 200.75 100.096 200.133 101.029 199.3V195C100.062 194.433 99.0456 194.033 97.9789 193.8C96.9456 193.533 95.7789 193.4 94.4789 193.4C92.6456 193.4 91.1956 193.783 90.1289 194.55C89.0956 195.283 88.5789 196.3 88.5789 197.6ZM112.902 215.75C112.369 215.75 111.869 215.717 111.402 215.65C110.935 215.617 110.552 215.55 110.252 215.45V211.05C110.852 211.183 111.585 211.25 112.452 211.25C114.785 211.25 116.469 210 117.502 207.5L118.602 205.05L108.402 179.55H113.952L121.352 198.95L129.552 179.55H134.952L122.652 208.15C121.852 209.95 121.002 211.4 120.102 212.5C119.202 213.633 118.169 214.45 117.002 214.95C115.835 215.483 114.469 215.75 112.902 215.75ZM149.525 205.45C147.025 205.45 144.758 204.867 142.725 203.7C140.725 202.533 139.125 200.95 137.925 198.95C136.758 196.95 136.175 194.717 136.175 192.25C136.175 189.817 136.742 187.617 137.875 185.65C139.008 183.65 140.542 182.067 142.475 180.9C144.408 179.7 146.558 179.1 148.925 179.1C151.292 179.1 153.392 179.7 155.225 180.9C157.058 182.067 158.508 183.667 159.575 185.7C160.675 187.7 161.225 189.967 161.225 192.5V193.9H141.175C141.442 195.3 141.958 196.55 142.725 197.65C143.525 198.75 144.525 199.617 145.725 200.25C146.958 200.883 148.292 201.2 149.725 201.2C150.958 201.2 152.142 201.017 153.275 200.65C154.442 200.25 155.408 199.683 156.175 198.95L159.375 202.1C157.875 203.233 156.325 204.083 154.725 204.65C153.158 205.183 151.425 205.45 149.525 205.45ZM141.225 190.15H156.275C156.075 188.817 155.608 187.65 154.875 186.65C154.175 185.617 153.292 184.817 152.225 184.25C151.192 183.65 150.058 183.35 148.825 183.35C147.558 183.35 146.392 183.633 145.325 184.2C144.258 184.767 143.358 185.567 142.625 186.6C141.925 187.6 141.458 188.783 141.225 190.15ZM165.987 205V179.55H170.987V182.8C171.787 181.6 172.77 180.667 173.937 180C175.137 179.3 176.487 178.95 177.987 178.95C179.02 178.983 179.87 179.133 180.537 179.4V183.9C180.07 183.7 179.587 183.567 179.087 183.5C178.587 183.4 178.087 183.35 177.587 183.35C176.12 183.35 174.82 183.75 173.687 184.55C172.554 185.317 171.654 186.45 170.987 187.95V205H165.987ZM193.292 205.5C191.092 205.5 189.025 205.183 187.092 204.55C185.192 203.883 183.542 202.95 182.142 201.75L184.892 198.45C186.192 199.483 187.525 200.283 188.892 200.85C190.292 201.383 191.708 201.65 193.142 201.65C194.942 201.65 196.408 201.3 197.542 200.6C198.675 199.9 199.242 198.983 199.242 197.85C199.242 196.917 198.908 196.183 198.242 195.65C197.575 195.117 196.542 194.75 195.142 194.55L190.542 193.9C188.008 193.533 186.108 192.75 184.842 191.55C183.575 190.35 182.942 188.75 182.942 186.75C182.942 185.217 183.358 183.883 184.192 182.75C185.025 181.583 186.192 180.683 187.692 180.05C189.192 179.383 190.942 179.05 192.942 179.05C194.775 179.05 196.542 179.317 198.242 179.85C199.942 180.383 201.575 181.217 203.142 182.35L200.592 185.65C199.192 184.717 197.825 184.033 196.492 183.6C195.192 183.167 193.875 182.95 192.542 182.95C191.008 182.95 189.775 183.283 188.842 183.95C187.908 184.583 187.442 185.417 187.442 186.45C187.442 187.383 187.758 188.117 188.392 188.65C189.058 189.15 190.142 189.5 191.642 189.7L196.242 190.35C198.775 190.717 200.692 191.5 201.992 192.7C203.292 193.867 203.942 195.45 203.942 197.45C203.942 198.983 203.475 200.367 202.542 201.6C201.608 202.8 200.342 203.75 198.742 204.45C197.142 205.15 195.325 205.5 193.292 205.5Z" fill="white"/>
</svg>
