<svg width="786" height="212" viewBox="0 0 786 212" fill="none" xmlns="http://www.w3.org/2000/svg">
<path fill-rule="evenodd" clip-rule="evenodd" d="M0 23.5752C0 36.1732 9.79675 46.5634 24.4584 46.5684H162.542C177.203 46.5634 187 36.1732 187 23.5752C187 10.9773 177.181 0.467787 162.564 0.500074H24.436C9.8191 0.467791 0 10.9773 0 23.5752ZM5.77148 23.5454C5.77148 13.9473 12.8962 6.18934 24.5033 6.16699L162.5 6.16947C174.107 6.19182 181.231 13.9498 181.231 23.5454C181.231 33.141 174.149 40.961 162.497 40.9212H24.5033C12.8515 40.9635 5.77148 33.141 5.77148 23.5454Z" fill="white"/>
<path fill-rule="evenodd" clip-rule="evenodd" d="M166.5 16.1599C166.5 14.3172 167.995 12.8223 169.838 12.8223C171.68 12.8223 173.175 14.3172 173.175 16.1599C173.175 18.0025 171.68 19.4975 169.838 19.4975C167.995 19.4975 166.5 18.0025 166.5 16.1599ZM169.837 18.8618C171.327 18.8618 172.537 17.6524 172.537 16.1624C172.537 14.6699 171.327 13.463 169.837 13.463C168.347 13.463 167.138 14.6724 167.138 16.1624C167.138 17.6524 168.347 18.8618 169.837 18.8618Z" fill="white"/>
<path fill-rule="evenodd" clip-rule="evenodd" d="M171.499 15.3329C171.499 14.6252 170.975 14.2676 169.92 14.2676H168.469V17.9653H169.371V16.4504H169.81L170.518 17.9653H171.519L170.692 16.3138C171.196 16.1872 171.499 15.8197 171.499 15.3329ZM169.811 15.9092H169.371V14.834H169.766C170.307 14.834 170.573 15.0003 170.573 15.3853C170.573 15.7528 170.325 15.9092 169.811 15.9092Z" fill="white"/>
<path fill-rule="evenodd" clip-rule="evenodd" d="M99.3606 30.1684C99.3606 29.3589 99.3556 29.2943 99.3556 29.2943L105.852 29.2893C104.717 32.6939 101 35.2046 96.5991 35.2046C91.2947 35.2046 86.9961 31.5814 86.9961 27.1089C86.9961 22.6364 91.2947 19.0107 96.5991 19.0107C101.904 19.0107 106.222 22.7159 106.222 27.1884C106.222 27.1959 93.937 27.1909 93.937 27.1909C93.937 27.1909 93.932 29.3787 93.932 30.1684C93.932 32.8057 95.6977 33.3918 96.6612 33.3918C97.6248 33.3918 99.3606 32.8057 99.3606 30.1684ZM94.3691 22.1174C93.9544 22.8375 93.9271 23.6819 93.937 24.9459L99.3779 24.9484C99.3878 23.6843 99.3705 22.84 98.9557 22.1174C98.4469 21.2288 97.5114 20.8066 96.6624 20.8012C96.6628 20.8012 96.6633 20.8012 96.6637 20.8012H96.6611C96.6616 20.8012 96.662 20.8012 96.6624 20.8012C95.8135 20.8066 94.8779 21.2288 94.3691 22.1174Z" fill="white"/>
<path d="M119.875 19.2517C122.314 19.1821 127.261 20.7789 127.226 26.4881C127.221 27.5013 127.224 34.3354 127.224 34.3354H120.744C120.744 34.3354 120.744 25.7655 120.744 24.864C120.744 23.6074 119.543 22.2093 117.764 22.2093C115.989 22.2093 114.668 23.6074 114.668 24.864C114.668 25.4799 114.675 34.3354 114.675 34.3354H108.201L108.206 19.9147L114.678 19.9097C114.678 19.9097 114.67 21.0695 114.678 21.4271C115.924 20.2375 117.722 19.3137 119.875 19.2517L119.875 19.2517Z" fill="white"/>
<path d="M66.876 19.2517C69.3146 19.1821 74.2614 20.7789 74.2267 26.4881C74.2217 27.5013 74.2241 34.3354 74.2241 34.3354H67.7451C67.7451 34.3354 67.7451 25.7655 67.7451 24.864C67.7451 23.6074 66.5432 22.2093 64.7651 22.2093C62.9895 22.2093 61.6684 23.6074 61.6684 24.864C61.6684 25.4799 61.6758 34.3354 61.6758 34.3354H55.2018L55.1992 19.9147L61.6782 19.9097C61.6782 19.9097 61.6708 21.0695 61.6782 21.4271C62.9249 20.2375 64.7203 19.3137 66.8759 19.2517L66.876 19.2517Z" fill="white"/>
<path fill-rule="evenodd" clip-rule="evenodd" d="M147.719 12.6533H141.282H141.282C141.282 12.6533 141.282 17.2947 141.287 20.6323C140.244 20.0462 139.144 19.4825 137.597 19.3459C132.896 18.9337 129.305 23.0908 129.305 26.8977C129.305 31.9165 133.176 33.7741 133.765 34.0472C135.958 35.0704 138.774 35.0729 141.269 33.5059C141.269 33.64 141.272 34.3403 141.272 34.3403H147.719V12.6533ZM141.329 24.4791V27.0568H141.329C141.329 27.0568 141.332 28.6884 141.332 29.6147C141.332 31.8422 139.789 32.4258 138.774 32.4258C137.738 32.4258 136.218 31.8422 136.218 29.6147C136.218 28.8473 136.221 27.0494 136.221 27.0494C136.221 27.0494 136.218 25.2192 136.218 24.4791C136.218 22.2491 137.738 21.6804 138.776 21.6804C139.789 21.6804 141.329 22.2491 141.329 24.4791Z" fill="white"/>
<path fill-rule="evenodd" clip-rule="evenodd" d="M149.842 27.032C149.842 22.5595 154.108 18.9338 159.373 18.9338C164.637 18.9338 168.904 22.5595 168.904 27.032C168.904 31.5045 164.637 35.1301 159.373 35.1301C154.111 35.1301 149.842 31.5045 149.842 27.032ZM161.99 30.0692C161.99 29.1951 161.993 27.0147 161.993 27.0147L161.995 27.0222C161.989 26.5518 161.99 25.3953 161.99 24.5094C161.99 24.3057 161.99 24.1162 161.99 23.9528C161.99 21.6631 160.627 20.7219 159.326 20.7219C158.027 20.7219 156.661 21.6631 156.661 23.9528C156.661 24.8269 156.656 26.9601 156.656 26.9601C156.656 26.9601 156.654 29.1951 156.654 30.0692C156.654 32.3688 158.017 33.3174 159.326 33.3174C160.632 33.3174 161.99 32.3688 161.99 30.0692Z" fill="white"/>
<path d="M45.0725 17.0812V12.6484H51.6086V17.0812H45.0725Z" fill="white"/>
<path d="M45.0874 34.3404V19.9172L51.6086 19.9198V34.3405L45.0874 34.3404Z" fill="white"/>
<path d="M77.8054 34.3405L77.8079 19.9471H74.2617V17.8065L77.8104 17.8039L77.8054 14.8835H84.3316V17.8015H87.8629V19.9471H84.3316L84.3366 34.3405L77.8054 34.3405Z" fill="white"/>
<path d="M18.5479 34.3403L18.5503 12.6533H25.3075L34.6548 27.7768L34.6498 12.6533H41.3548V34.3403H34.6597L25.2628 19.2168V34.3403H18.5479Z" fill="white"/>
<path d="M418.322 64.2788H438.747L448.835 87.4821L463.964 64.2788H484.887L455.386 110.175L450.597 145.984H431.686L437.233 105.126L418.322 64.2788Z" fill="white"/>
<path d="M268.027 145.984L270.549 127.82H241.807L243.572 113.705H268.532L271.058 95.5495H246.346L248.113 82.434H276.853L279.629 64.2788H231.971L220.624 145.984H268.027Z" fill="white"/>
<path fill-rule="evenodd" clip-rule="evenodd" d="M108.662 121.769H91.5156L82.1877 145.977H63.0228L64.2825 142.193C60.5008 144.211 49.909 147.743 40.5785 147.238C24.4413 147.488 0.233284 134.879 3.25843 108.403C8.40008 63.4051 58.7354 59.7365 77.9012 66.2908L75.1251 83.6903C46.3789 74.3607 22.1709 91.2553 21.4153 109.41C20.6596 127.567 37.5534 129.079 39.8229 129.079C42.0924 129.079 47.8911 128.826 50.413 127.315L51.4228 121.768H37.0476L39.3188 105.629H72.0999L68.569 132.105L95.5514 64.2755H119.759L128.082 131.351L150.271 64.2755H169.687L176.244 107.394L193.138 64.2755H214.825L219.869 145.977H201.714L198.687 99.0745L180.532 145.977H164.141L157.079 101.596L142.705 145.977H111.69L108.662 121.769ZM104.627 88.7368L98.3233 105.63H106.646L104.627 88.7368Z" fill="white"/>
<path fill-rule="evenodd" clip-rule="evenodd" d="M359.564 101.097C365.868 70.5834 384.78 63.0184 397.894 63.5233C417.055 64.2806 431.432 79.6605 427.397 108.912C423.362 138.163 401.425 147.997 385.788 145.98C370.154 143.963 353.26 131.607 359.564 101.097ZM409.743 105.633C412.517 84.4537 401.171 80.9228 395.876 80.9228C390.325 80.6703 379.987 86.2183 377.214 105.633C374.44 125.051 384.273 128.326 389.066 128.831C393.857 129.337 406.968 126.815 409.743 105.633Z" fill="white"/>
<path fill-rule="evenodd" clip-rule="evenodd" d="M303.836 64.2815L292.489 145.982L328.548 145.981C344.939 145.981 354.269 134.888 356.036 123.538C357.8 112.191 353.514 106.138 349.225 102.358C349.588 102.095 349.971 101.853 350.368 101.603C353.01 99.9374 356.233 97.9061 357.548 86.724C359.06 73.8644 346.958 64.2815 338.634 64.2815H303.836ZM318.207 95.5496H328.799C336.617 95.5496 338.13 90.5057 338.379 88.4903C338.632 86.4716 336.364 82.4366 332.33 82.4366H319.974L318.207 95.5496ZM313.669 127.825H328.044C335.858 127.825 337.624 121.775 337.874 119.756C338.128 117.739 335.858 113.706 331.824 113.706H315.688L313.669 127.825Z" fill="white"/>
<path d="M460.825 133.623C457.714 133.623 455.203 136.131 455.203 139.227C455.203 142.356 457.713 144.866 460.825 144.866C463.92 144.866 466.429 142.356 466.429 139.227C466.426 136.13 463.916 133.623 460.825 133.623V132.852C464.351 132.852 467.199 135.713 467.199 139.227C467.199 142.774 464.351 145.634 460.825 145.634C457.277 145.633 454.417 142.774 454.417 139.227C454.417 135.712 457.277 132.853 460.825 132.853V133.623V133.623Z" fill="white"/>
<path d="M459.312 136.293H461.354C462.242 136.293 463.209 136.425 463.209 137.531C463.209 138.985 461.655 138.82 460.65 138.82L459.312 138.818V139.506H460.921L462.961 142.802H463.998L461.839 139.506C463.111 139.473 464.097 138.955 464.097 137.549C464.097 136.945 463.831 136.311 463.296 136.008C462.761 135.691 462.157 135.658 461.554 135.658H458.446V142.8H459.313V136.293H459.312Z" fill="white"/>
<path d="M566.432 74.0879C563.576 58.3769 547.865 58.3769 535.725 62.6617C519.3 68.3748 511.444 80.5151 505.731 96.226C500.018 111.223 502.161 129.076 515.015 140.502C527.155 151.214 545.008 151.214 559.291 147.644C570.003 145.501 565.718 128.362 555.006 131.218C537.153 135.503 517.157 129.076 520.728 107.652C522.156 99.7966 526.441 88.3705 533.582 83.3716C536.439 81.9433 549.293 75.5161 550.007 79.0868C551.436 89.7988 568.575 84.7999 566.432 74.0879Z" fill="#E1E1E1"/>
<path d="M578.573 81.2304C560.005 86.2293 554.292 106.939 560.72 123.364C569.289 143.36 591.427 147.645 608.566 136.933C642.845 115.509 603.567 52.6651 572.86 82.6587C565.718 89.8 577.859 101.226 585 94.0848C597.854 81.9445 613.565 112.652 599.997 122.65C578.573 138.361 563.576 102.654 582.144 97.6555C592.856 94.0848 588.571 78.3739 578.573 81.2304Z" fill="#878787"/>
<path d="M695.69 89.7991C696.283 89.9573 696.866 90.133 697.436 90.3257C707.165 93.6135 713.425 101.858 711.401 112.651C709.259 121.221 699.261 129.076 689.977 126.22C683.55 124.792 680.693 116.222 679.979 110.509C679.265 101.225 684.978 94.798 694.262 91.9415C695.512 91.5507 696.566 90.9975 697.436 90.3257C704.517 84.8591 699.439 71.5442 689.263 74.0881C672.838 79.8012 661.412 93.3697 662.126 111.223C662.126 126.22 672.124 140.502 687.121 144.787C705.688 149.786 724.255 134.789 729.254 117.65C735.682 96.9404 720.685 76.9447 700.689 71.9457C689.263 69.8033 684.264 86.9425 695.69 89.7991Z" fill="white"/>
<path fill-rule="evenodd" clip-rule="evenodd" d="M758.825 112.97C770.532 104.225 781.362 93.2849 777.102 78.3738C772.817 60.5205 747.108 61.9487 733.54 64.8054C729.969 65.5195 727.113 69.0901 727.113 72.6606C727.376 76.8742 727.712 81.112 728.05 85.3652C729.542 104.179 731.058 123.293 726.398 141.932C724.97 152.644 740.681 156.928 743.538 146.931C745.559 139.296 746.591 131.661 747.012 124.003C755.369 132.488 763.669 141.494 771.389 150.501C778.53 158.356 789.956 146.93 782.815 139.075C775.214 130.208 767.052 121.34 758.825 112.97ZM745.875 86.8061C746.237 91.7724 746.597 96.7156 746.858 101.641C752.939 97.5779 758.97 92.7529 761.391 86.9433C764.448 79.8105 753.328 79.584 745.408 80.2993C745.508 81.7473 745.612 83.1933 745.717 84.6374L745.875 86.8061Z" fill="#929292"/>
<path d="M616.422 70.5179C627.134 89.7994 625.706 113.366 625.706 135.504C625.706 140.503 630.705 145.502 636.418 143.359C645.702 140.503 654.985 139.075 664.983 136.932C675.695 134.79 670.696 118.365 660.698 121.221C654.923 122.554 648.871 123.611 642.886 124.906C642.964 103.334 642.462 81.6808 631.419 62.6624C625.706 53.3787 610.709 61.2341 616.422 70.5179Z" fill="#B4B4B4"/>
<path d="M0.572 200.425V197.617L14.352 184.357C16.744 182 18.3907 180.111 19.292 178.689C20.1933 177.233 20.644 175.691 20.644 174.061C20.644 171.981 19.8467 170.265 18.252 168.913C16.692 167.561 14.716 166.885 12.324 166.885C10.556 166.885 8.892 167.232 7.332 167.925C5.80667 168.619 4.108 169.763 2.236 171.357L0 168.705C1.976 166.972 3.98667 165.689 6.032 164.857C8.07733 163.991 10.192 163.557 12.376 163.557C14.1093 163.557 15.7213 163.817 17.212 164.337C18.7027 164.857 19.968 165.568 21.008 166.469C22.0827 167.371 22.9147 168.463 23.504 169.745C24.0933 170.993 24.388 172.363 24.388 173.853C24.388 174.928 24.2667 175.933 24.024 176.869C23.816 177.805 23.4173 178.759 22.828 179.729C22.2733 180.665 21.5107 181.688 20.54 182.797C19.5693 183.872 18.3387 185.12 16.848 186.541L5.772 197.097H25.064V200.425H0.572Z" fill="white"/>
<path d="M42.0075 200.425V164.025H57.8155C61.3515 164.025 64.1941 164.996 66.3435 166.937C68.4928 168.844 69.5675 171.375 69.5675 174.529C69.5675 177.684 68.4755 180.232 66.2915 182.173C64.1421 184.115 61.3168 185.085 57.8155 185.085H46.0115V200.425H42.0075ZM57.5035 167.613H46.0115V181.601H57.5035C59.9648 181.601 61.9235 180.977 63.3795 179.729C64.8355 178.447 65.5635 176.731 65.5635 174.581C65.5635 172.432 64.8355 170.733 63.3795 169.485C61.9235 168.237 59.9648 167.613 57.5035 167.613Z" fill="white"/>
<path d="M78.7954 163.141V200.425H74.9474V164.025L78.7954 163.141Z" fill="white"/>
<path d="M93.5736 200.893C90.7309 200.893 88.4083 200.165 86.6056 198.709C84.8376 197.253 83.9536 195.364 83.9536 193.041C83.9536 190.615 84.8896 188.691 86.7616 187.269C88.6336 185.813 91.1643 185.085 94.3536 185.085C95.7403 185.085 97.0749 185.241 98.3576 185.553C99.6749 185.865 100.888 186.299 101.998 186.853V183.421C101.998 181.341 101.408 179.781 100.23 178.741C99.0509 177.667 97.3349 177.129 95.0816 177.129C93.7989 177.129 92.4989 177.32 91.1816 177.701C89.8989 178.048 88.4776 178.62 86.9176 179.417L85.4616 176.453C87.3336 175.552 89.0669 174.893 90.6616 174.477C92.2563 174.061 93.8509 173.853 95.4456 173.853C98.7389 173.853 101.27 174.633 103.038 176.193C104.84 177.753 105.742 179.989 105.742 182.901V200.425H101.998V197.877C100.819 198.883 99.5189 199.645 98.0976 200.165C96.7109 200.651 95.2029 200.893 93.5736 200.893ZM87.6456 192.937C87.6456 194.393 88.2523 195.589 89.4656 196.525C90.7136 197.427 92.3083 197.877 94.2496 197.877C95.8096 197.877 97.2309 197.635 98.5136 197.149C99.7963 196.664 100.958 195.901 101.998 194.861V189.973C100.923 189.245 99.7616 188.725 98.5136 188.413C97.3003 188.067 95.9483 187.893 94.4576 187.893C92.3776 187.893 90.7136 188.361 89.4656 189.297C88.2523 190.199 87.6456 191.412 87.6456 192.937Z" fill="white"/>
<path d="M117.746 203.805L119.254 200.373L108.646 174.373H112.91L121.334 195.745L130.434 174.373H134.594L121.646 204.325C120.537 206.821 119.306 208.624 117.954 209.733C116.602 210.843 114.886 211.397 112.806 211.397C112.321 211.397 111.853 211.363 111.402 211.293C110.986 211.259 110.64 211.207 110.362 211.137V207.653C110.709 207.723 111.038 207.775 111.35 207.809C111.697 207.844 112.096 207.861 112.546 207.861C113.725 207.861 114.73 207.532 115.562 206.873C116.394 206.215 117.122 205.192 117.746 203.805Z" fill="white"/>
<path d="M159.098 197.669C157.642 198.744 156.117 199.559 154.522 200.113C152.962 200.633 151.246 200.893 149.374 200.893C147.502 200.893 145.734 200.547 144.07 199.853C142.441 199.16 141.02 198.207 139.806 196.993C138.628 195.78 137.692 194.359 136.998 192.729C136.305 191.065 135.958 189.28 135.958 187.373C135.958 185.501 136.288 183.751 136.946 182.121C137.64 180.492 138.558 179.071 139.702 177.857C140.846 176.644 142.198 175.691 143.758 174.997C145.353 174.304 147.034 173.957 148.802 173.957C150.536 173.957 152.148 174.304 153.638 174.997C155.164 175.691 156.464 176.644 157.538 177.857C158.648 179.071 159.514 180.492 160.138 182.121C160.797 183.751 161.126 185.501 161.126 187.373V188.569H139.754C140.032 191.135 141.089 193.267 142.926 194.965C144.764 196.664 146.965 197.513 149.53 197.513C150.882 197.513 152.2 197.305 153.482 196.889C154.765 196.473 155.84 195.884 156.706 195.121L159.098 197.669ZM148.698 177.337C146.445 177.337 144.486 178.1 142.822 179.625C141.193 181.151 140.205 183.109 139.858 185.501H157.278C156.932 183.213 155.944 181.289 154.314 179.729C152.72 178.135 150.848 177.337 148.698 177.337Z" fill="white"/>
<path d="M166.506 200.425V174.373H170.354V178.065C171.117 176.713 172.122 175.673 173.37 174.945C174.618 174.183 176.039 173.801 177.634 173.801C178.119 173.801 178.553 173.836 178.934 173.905C179.315 173.94 179.697 174.027 180.078 174.165V177.701C179.627 177.563 179.177 177.459 178.726 177.389C178.275 177.285 177.825 177.233 177.374 177.233C175.779 177.233 174.375 177.701 173.162 178.637C171.949 179.539 171.013 180.856 170.354 182.589V200.425H166.506Z" fill="white"/>
</svg>
