<svg width="551" height="142" viewBox="0 0 551 142" fill="none" xmlns="http://www.w3.org/2000/svg">
<path fill-rule="evenodd" clip-rule="evenodd" d="M1 89.04L40.1863 55.7792C43.3197 67.4742 51.5994 70.3502 63.4182 70.3502C74.6342 70.5183 85.3301 63.6112 85.3301 51.8505C85.1085 40.8812 75.243 35.4294 65.5249 33.7145L78.3581 22.1914C103.28 26.3927 126.186 48.9379 126.186 76.4689C126.186 113.042 91.9643 134.348 63.0691 134.348C32.6384 134.348 5.57946 114.988 1 89.04V89.04Z" fill="white" stroke="white" stroke-width="1.46661"/>
<path fill-rule="evenodd" clip-rule="evenodd" d="M64.0516 34.1389L40.547 54.4688C31.0535 50.638 20.6426 45.2717 20.6426 34.3024C20.6426 15.2512 41.3452 7.85156 63.5933 7.85156C76.1766 7.85156 87.9205 13.4729 87.9205 13.4729L77.9977 21.47C71.5506 17.539 64.872 16.8707 63.5604 17.0181C61.5262 16.789 47.9123 19.5023 47.9123 26.1847C47.9123 34.9021 62.5147 34.1389 64.0516 34.1389V34.1389Z" fill="white"/>
<path d="M206.973 36.6371V35.4668C206.973 31.2723 206.729 27.419 206.24 23.907C205.753 20.3949 204.485 16.8344 202.435 13.2256C200.485 9.61579 197.266 6.64052 192.779 4.29981C188.389 1.86035 182.487 0.640625 175.073 0.640625C164.342 0.640625 156.294 3.12847 150.929 8.10419C145.564 12.9812 142.881 20.151 142.881 29.6135C142.881 35.6618 144.637 41.2711 148.149 46.4414C150.685 49.6602 153.514 52.5376 156.636 55.0739C159.855 57.6111 164.098 60.5869 169.366 64.0012C174.439 67.3177 178.146 69.9023 180.488 71.7552C183.218 73.609 185.267 75.7062 186.633 78.0469C187.999 80.3886 188.682 83.1204 188.682 86.2423C188.682 94.8269 184.438 99.1192 175.951 99.1192C171.366 99.1192 168.049 97.5583 166 94.4363C164.05 91.3144 163.074 86.7297 163.074 80.6824V74.244H142.589V82.2913C142.589 87.3638 143.174 91.9489 144.344 96.0466C145.613 100.046 147.564 103.508 150.198 106.435C152.832 109.362 156.295 111.606 160.587 113.166C164.879 114.825 170.001 115.654 175.951 115.654C186.194 115.654 194.388 112.922 200.533 107.46C206.679 101.997 209.752 94.1928 209.752 84.0468C209.752 79.1698 209.069 74.9754 207.703 71.4633C206.338 67.8535 203.947 64.3903 200.533 61.0738C199.168 59.7079 197.364 58.1959 195.12 56.5376C192.974 54.8794 190.828 53.3189 188.682 51.8562C186.535 50.2947 184.438 48.831 182.39 47.4651C180.341 46.1002 178.097 44.637 175.658 43.0756L175.365 42.9289C171.366 40.2958 168.439 38.0036 166.586 36.052C164.831 34.0036 163.953 31.1261 163.953 27.4195C163.953 23.8097 164.928 21.2245 166.879 19.6641C168.829 18.0058 171.61 17.1767 175.219 17.1767C180.097 17.1767 183.317 18.8349 184.877 22.1514C186.438 25.4679 187.218 30.2965 187.218 36.6371H206.973V36.6371ZM272.454 113.02C271.381 109.021 270.844 105.168 270.844 101.46V52.7347C270.844 49.1258 270.503 45.9555 269.82 43.2237C269.235 40.3951 268.015 37.8588 266.161 35.6149C264.308 33.371 261.528 31.615 257.82 30.3468C254.212 28.9809 249.481 28.298 243.628 28.298C237.97 28.298 233.239 28.9321 229.434 30.2002C225.63 31.3716 222.655 33.1275 220.508 35.4683C218.362 37.8099 216.85 40.5902 215.972 43.8089C215.192 46.9308 214.802 50.6379 214.802 54.9302H232.945C232.945 50.7357 233.628 47.7115 234.994 45.8577C236.36 43.9061 238.994 42.9304 242.896 42.9304C245.725 42.9304 247.822 43.2237 249.188 43.8103C250.554 44.2972 251.432 45.4187 251.822 47.1747C252.115 48.3451 252.262 49.4182 252.262 50.394C252.262 52.7347 251.481 54.7342 249.92 56.3924C248.358 57.9539 245.871 59.4659 242.456 60.9286C241.578 61.3197 240.896 61.6125 240.409 61.8071C235.823 63.6609 232.165 65.2703 229.434 66.6352C226.702 68.0011 224.117 69.7082 221.679 71.7566C219.337 73.8059 217.483 76.3911 216.117 79.5121C214.849 82.5362 214.215 86.1944 214.215 90.4867C214.215 98.9735 215.971 105.217 219.483 109.217C222.995 113.216 228.605 115.215 236.311 115.215C239.433 115.215 242.457 114.289 245.384 112.436C248.114 110.778 250.651 108.144 252.992 104.534H253.286V105.706C253.188 106.388 253.139 106.778 253.139 106.876C253.139 109.217 253.578 111.265 254.456 113.021H272.454V113.02ZM251.822 78.4884C251.822 79.1708 251.773 80.5368 251.675 82.5861C251.675 85.2192 251.578 87.5114 251.382 89.463C251.284 91.3168 250.943 93.1213 250.358 94.8763C249.773 96.5355 248.797 97.9014 247.432 98.974C246.164 100.048 244.408 100.584 242.164 100.584C238.848 100.584 236.506 99.7064 235.139 97.9503C233.872 96.0965 233.239 93.4625 233.239 90.0482C233.239 87.9021 233.434 85.9999 233.824 84.3417C234.312 82.5856 235.19 81.1708 236.458 80.0972C238.799 78.2444 242.31 75.806 246.993 72.7818L251.822 69.5626V78.4884V78.4884ZM299.113 30.492H280.091V113.02H299.113V58.7331C299.113 53.2704 299.649 49.3194 300.722 46.88C301.893 44.3437 304.478 43.0266 308.477 42.9289C312.477 42.9289 315.014 44.0509 316.088 46.2948C317.258 48.5387 317.843 51.8557 317.843 56.2457V113.02H336.865V58.7331C336.865 53.465 337.499 49.5629 338.767 47.0266C340.133 44.4903 342.718 43.1244 346.523 42.9289C350.327 42.9289 352.766 44.1971 353.84 46.7333C355.01 49.1728 355.595 52.6848 355.595 57.2694V113.02H374.617V45.8563C374.617 40.9783 372.91 36.8327 369.496 33.4194C366.081 30.0042 361.058 28.2965 354.425 28.2965C345.351 28.2965 339.011 31.8574 335.403 38.9793H335.109C334.622 35.4673 332.622 32.8332 329.111 31.0772C325.598 29.2234 321.744 28.2965 317.55 28.2965C313.551 28.4921 309.99 29.3212 306.868 30.7839C303.844 32.1498 301.357 34.8816 299.406 38.9793H299.113V30.492V30.492ZM403.126 30.492H384.105V113.02H403.126V58.7331C403.126 53.2704 403.663 49.3194 404.737 46.88C405.907 44.3437 408.492 43.0266 412.492 42.9289C416.491 42.9289 419.027 44.0509 420.101 46.2948C421.271 48.5387 421.857 51.8557 421.857 56.2457V113.02H440.878V58.7331C440.878 53.465 441.513 49.5629 442.781 47.0266C444.147 44.4903 446.732 43.1244 450.536 42.9289C454.341 42.9289 456.78 44.1971 457.853 46.7333C459.023 49.1728 459.609 52.6848 459.609 57.2694V113.02H478.631V45.8563C478.631 40.9783 476.923 36.8327 473.509 33.4194C470.095 30.0042 465.071 28.2965 458.438 28.2965C449.366 28.2965 443.025 31.8574 439.416 38.9793H439.123C438.635 35.4673 436.636 32.8332 433.125 31.0772C429.612 29.2234 425.759 28.2965 421.563 28.2965C417.564 28.4921 414.004 29.3212 410.882 30.7839C407.858 32.1498 405.37 34.8816 403.42 38.9793H403.126V30.492V30.492ZM488.925 30.492L508.825 111.849C509.313 113.703 509.703 115.557 509.996 117.409C510.386 119.361 510.581 121.02 510.581 122.385C510.581 123.848 509.995 124.872 508.825 125.458C507.654 126.043 506.142 126.335 504.289 126.335C503.605 126.335 502.581 126.286 501.216 126.188C500.045 126.091 499.411 126.042 499.314 126.042V140.822C502.631 141.31 505.606 141.554 508.24 141.554C512.043 141.554 515.165 141.017 517.604 139.944C520.141 138.968 522.091 137.505 523.456 135.554C524.92 133.603 526.042 131.457 526.823 129.116C527.701 126.774 528.677 123.311 529.749 118.726C529.945 117.946 530.335 116.434 530.92 114.19L550.967 30.4906H531.651L523.311 74.8292C521.945 82.2424 520.97 89.3633 520.385 96.1918H520.092C519.116 86.4369 518.189 79.121 517.311 74.244L508.97 30.492H488.925V30.492Z" fill="white"/>
<path d="M149.826 141.533C150.896 141.531 151.952 141.293 152.921 140.835C153.874 140.408 154.72 139.768 155.395 138.963V138.963L153.552 137.089C153.1 137.641 152.538 138.091 151.903 138.408C151.28 138.714 150.596 138.871 149.904 138.866C149.32 138.873 148.741 138.762 148.2 138.539C147.658 138.317 147.166 137.988 146.751 137.571C146.351 137.164 146.035 136.679 145.822 136.146C145.593 135.581 145.477 134.974 145.483 134.363C145.476 133.746 145.588 133.133 145.812 132.559C146.022 132.025 146.331 131.538 146.725 131.125C147.119 130.715 147.591 130.389 148.112 130.168C148.655 129.934 149.239 129.816 149.829 129.819C150.54 129.817 151.242 129.982 151.88 130.303C152.538 130.638 153.115 131.118 153.568 131.708V131.708L155.47 129.775C154.801 128.951 153.95 128.299 152.986 127.872C151.995 127.408 150.918 127.166 149.826 127.164C148.851 127.158 147.885 127.347 146.983 127.722C146.129 128.074 145.348 128.588 144.684 129.238C144.029 129.888 143.508 130.663 143.151 131.52C142.782 132.417 142.59 133.38 142.589 134.353C142.587 135.326 142.775 136.29 143.142 137.189C143.495 138.042 144.012 138.815 144.665 139.461C145.329 140.11 146.11 140.624 146.965 140.976C147.873 141.352 148.845 141.541 149.826 141.533V141.533ZM186.598 141.553C187.569 141.561 188.533 141.371 189.431 140.996C190.282 140.645 191.056 140.128 191.709 139.473C192.361 138.818 192.88 138.038 193.235 137.179C193.606 136.287 193.797 135.328 193.797 134.359C193.797 133.391 193.606 132.432 193.235 131.539C192.88 130.68 192.361 129.901 191.709 129.246C191.056 128.591 190.282 128.073 189.431 127.723C187.62 126.98 185.595 126.98 183.784 127.723C182.933 128.073 182.159 128.591 181.506 129.246C180.853 129.901 180.334 130.68 179.98 131.539C179.609 132.432 179.418 133.391 179.418 134.359C179.418 135.328 179.609 136.287 179.98 137.179C180.334 138.038 180.853 138.818 181.506 139.473C182.159 140.128 182.933 140.645 183.784 140.996C184.676 141.37 185.633 141.559 186.599 141.553L186.598 141.553ZM186.598 138.903C186.028 138.908 185.463 138.795 184.937 138.57C184.412 138.346 183.937 138.015 183.542 137.598C183.152 137.18 182.846 136.689 182.64 136.153C182.2 134.995 182.2 133.713 182.64 132.555C182.848 132.023 183.154 131.536 183.542 131.121C183.937 130.704 184.412 130.373 184.937 130.148C185.463 129.924 186.028 129.811 186.598 129.816C187.185 129.811 187.766 129.93 188.306 130.164C188.821 130.386 189.286 130.711 189.673 131.121C190.061 131.536 190.367 132.023 190.575 132.555C191.015 133.713 191.015 134.995 190.575 136.153C190.369 136.689 190.063 137.18 189.673 137.598C189.286 138.007 188.821 138.333 188.306 138.554C187.766 138.788 187.185 138.907 186.599 138.902L186.598 138.903ZM229.249 141.335V138.784H221.816V127.384H219.005V141.333L229.249 141.335ZM264.722 141.335V138.784H257.289V127.384H254.476V141.333L264.722 141.335ZM300.465 141.335V138.824H292.762V135.515H297.788V133.083H292.762V129.897H300.388V127.387H289.946V141.336L300.465 141.335ZM331.669 141.534C332.738 141.532 333.794 141.294 334.763 140.836C335.717 140.409 336.562 139.769 337.238 138.963V138.963L335.393 137.091C334.941 137.643 334.379 138.093 333.744 138.41C333.121 138.716 332.438 138.873 331.746 138.868C331.162 138.875 330.583 138.763 330.042 138.541C329.5 138.319 329.008 137.99 328.593 137.573C328.193 137.165 327.878 136.681 327.664 136.148C327.435 135.583 327.319 134.976 327.324 134.365C327.318 133.748 327.43 133.135 327.655 132.561C327.863 132.027 328.173 131.54 328.566 131.127C328.961 130.716 329.432 130.391 329.953 130.17C330.496 129.936 331.081 129.817 331.67 129.821C332.384 129.819 333.089 129.985 333.727 130.308C334.386 130.644 334.963 131.124 335.416 131.714V131.714L337.318 129.781C336.649 128.957 335.798 128.305 334.834 127.878C333.844 127.414 332.766 127.172 331.675 127.17C330.7 127.163 329.734 127.353 328.832 127.728C327.977 128.079 327.197 128.593 326.532 129.242C325.877 129.892 325.355 130.668 324.998 131.524C324.629 132.422 324.438 133.385 324.436 134.358C324.434 135.331 324.622 136.294 324.989 137.193C325.342 138.047 325.86 138.819 326.512 139.466C327.176 140.115 327.957 140.629 328.811 140.98C329.718 141.354 330.69 141.542 331.669 141.533V141.534ZM368.887 141.335V129.934H373.446V127.383H361.493V129.934H366.073V141.333L368.887 141.335ZM401.118 141.335V127.386H398.305V141.335H401.118ZM433.525 141.554C434.496 141.562 435.46 141.372 436.358 140.996C437.209 140.646 437.983 140.129 438.636 139.474C439.288 138.819 439.807 138.039 440.162 137.18C440.533 136.288 440.724 135.329 440.724 134.36C440.724 133.392 440.533 132.433 440.162 131.54C439.807 130.681 439.288 129.902 438.636 129.247C437.983 128.592 437.209 128.074 436.358 127.724C434.547 126.981 432.522 126.981 430.712 127.724C429.861 128.075 429.087 128.592 428.435 129.247C427.782 129.902 427.264 130.681 426.909 131.54C426.537 132.433 426.346 133.392 426.346 134.36C426.346 135.329 426.537 136.288 426.909 137.18C427.264 138.039 427.782 138.818 428.435 139.473C429.087 140.128 429.861 140.646 430.712 140.996C431.604 141.37 432.56 141.559 433.525 141.553V141.554ZM433.525 138.904C432.941 138.909 432.363 138.791 431.827 138.555C431.316 138.332 430.854 138.007 430.469 137.599C430.079 137.181 429.772 136.69 429.566 136.154C429.126 134.996 429.126 133.714 429.566 132.556C429.774 132.024 430.081 131.537 430.469 131.122C430.854 130.714 431.316 130.388 431.827 130.165C432.363 129.93 432.941 129.811 433.525 129.816C434.112 129.812 434.693 129.931 435.232 130.165C435.747 130.387 436.213 130.712 436.6 131.122C436.988 131.537 437.295 132.024 437.503 132.556C437.943 133.714 437.943 134.996 437.503 136.154C437.296 136.69 436.99 137.18 436.6 137.599C436.213 138.008 435.747 138.334 435.232 138.555C434.693 138.789 434.111 138.907 433.525 138.902V138.904ZM468.589 141.336V132.005L475.516 141.336H478V127.387H475.361V136.414L468.608 127.387H465.93V141.336H468.589Z" fill="white"/>
</svg>
