<svg width="120" height="81" viewBox="0 0 120 81" fill="none" xmlns="http://www.w3.org/2000/svg">
<path fill-rule="evenodd" clip-rule="evenodd" d="M36.4159 27.6543C40.5731 27.6543 43.9432 24.2842 43.9432 20.127C43.9432 15.9698 40.5731 12.5998 36.4159 12.5998C32.2587 12.5998 28.8886 15.9698 28.8886 20.127C28.8886 24.2842 32.2587 27.6543 36.4159 27.6543ZM36.4159 28.654C41.1252 28.654 44.9428 24.8363 44.9428 20.127C44.9428 15.4177 41.1252 11.6001 36.4159 11.6001C31.7066 11.6001 27.889 15.4177 27.889 20.127C27.889 24.8363 31.7066 28.654 36.4159 28.654Z" fill="white"/>
<path d="M77.5498 18.217C77.5498 19.724 76.3281 20.9456 74.8212 20.9456C73.3142 20.9456 72.0925 19.724 72.0925 18.217C72.0925 16.71 73.3142 15.4884 74.8212 15.4884C76.3281 15.4884 77.5498 16.71 77.5498 18.217Z" fill="white"/>
<path d="M90.1014 13.3737C90.1014 14.8807 88.8798 16.1023 87.3728 16.1023C85.8658 16.1023 84.6442 14.8807 84.6442 13.3737C84.6442 11.8667 85.8658 10.6451 87.3728 10.6451C88.8798 10.6451 90.1014 11.8667 90.1014 13.3737Z" fill="white"/>
<path d="M83.621 15.4884C83.621 16.9954 82.3993 18.217 80.8923 18.217C79.3854 18.217 78.1637 16.9954 78.1637 15.4884C78.1637 13.9814 79.3854 12.7598 80.8923 12.7598C82.3993 12.7598 83.621 13.9814 83.621 15.4884Z" fill="white"/>
<path d="M80.0737 24.8339C80.0737 26.3409 78.8521 27.5625 77.3451 27.5625C75.8382 27.5625 74.6165 26.3409 74.6165 24.8339C74.6165 23.3269 75.8382 22.1053 77.3451 22.1053C78.8521 22.1053 80.0737 23.3269 80.0737 24.8339Z" fill="white"/>
<path d="M92.6254 19.9906C92.6254 21.4976 91.4037 22.7192 89.8968 22.7192C88.3898 22.7192 87.1682 21.4976 87.1682 19.9906C87.1682 18.4836 88.3898 17.262 89.8968 17.262C91.4037 17.262 92.6254 18.4836 92.6254 19.9906Z" fill="white"/>
<path d="M86.1449 22.1053C86.1449 23.6123 84.9233 24.8339 83.4163 24.8339C81.9093 24.8339 80.6877 23.6123 80.6877 22.1053C80.6877 20.5983 81.9093 19.3767 83.4163 19.3767C84.9233 19.3767 86.1449 20.5983 86.1449 22.1053Z" fill="white"/>
<path fill-rule="evenodd" clip-rule="evenodd" d="M87.2214 3.46317C89.3671 4.12497 91.17 4.92735 92.384 5.91228C93.4803 6.8017 94.5861 8.58511 95.5307 10.6823C96.4955 12.8244 97.3583 15.4444 97.9017 18.1513C98.444 20.8531 98.6773 23.6879 98.3479 26.2452C98.0192 28.7967 97.1151 31.173 95.2858 32.8098C94.2482 33.7382 92.8066 34.4026 91.2207 34.8937C89.6212 35.389 87.7955 35.7316 85.9225 35.971C82.1769 36.4497 78.1381 36.5278 75.1398 36.5408C73.7249 36.547 72.5557 35.7796 71.731 34.9352C70.1919 33.3594 67.711 32.6551 60.2387 32.6551H59.7612C52.2889 32.6551 49.8079 33.3594 48.2689 34.9352C47.4441 35.7796 46.275 36.547 44.8601 36.5408C41.8617 36.5278 37.823 36.4497 34.0774 35.971C32.2044 35.7316 30.3787 35.389 28.7792 34.8937C27.1933 34.4026 25.7517 33.7382 24.7141 32.8098C22.8847 31.173 21.9807 28.7967 21.652 26.2452C21.3225 23.6879 21.5559 20.8531 22.0982 18.1513C22.6415 15.4444 23.5043 12.8244 24.4691 10.6823C25.4137 8.58511 26.5196 6.8017 27.6159 5.91228C28.8298 4.92735 30.6328 4.12497 32.7785 3.46317C34.9438 2.79532 37.543 2.2456 40.417 1.80859C46.1663 0.934366 53.0909 0.5 59.9999 0.5C66.9089 0.5 73.8336 0.934366 79.5829 1.80859C82.4569 2.2456 85.056 2.79532 87.2214 3.46317ZM33.3678 5.37375C31.3076 6.00917 29.7934 6.72023 28.8756 7.46493C28.1641 8.04214 27.215 9.45452 26.2922 11.5034C25.3895 13.5074 24.5725 15.9839 24.0585 18.5448C23.5435 21.1107 23.342 23.7152 23.635 25.9898C23.9288 28.2702 24.7045 30.1183 26.0472 31.3197C26.7772 31.9729 27.9069 32.5305 29.3706 32.9838C30.8207 33.4328 32.5229 33.7567 34.3309 33.9877C37.9473 34.4499 41.8828 34.5284 44.8688 34.5414C45.5301 34.5443 46.2125 34.1791 46.8385 33.5382C49.0463 31.2777 52.4094 30.6558 59.7612 30.6558H60.2387C67.5905 30.6558 70.9536 31.2777 73.1614 33.5382C73.7874 34.1791 74.4698 34.5443 75.1311 34.5414C78.1171 34.5284 82.0526 34.4499 85.669 33.9877C87.4769 33.7567 89.1792 33.4328 90.6293 32.9838C92.093 32.5305 93.2226 31.9729 93.9526 31.3197C95.2953 30.1183 96.0711 28.2702 96.3649 25.9898C96.6579 23.7152 96.4564 21.1107 95.9414 18.5448C95.4273 15.9839 94.6103 13.5074 93.7077 11.5034C92.7849 9.45452 91.8358 8.04214 91.1243 7.46493C90.2064 6.72023 88.6923 6.00917 86.6321 5.37375C84.5914 4.74437 82.0958 4.21307 79.2823 3.78526C73.6567 2.92985 66.8362 2.49939 59.9999 2.49939C53.1637 2.49939 46.3431 2.92985 40.7175 3.78526C37.9041 4.21307 35.4084 4.74437 33.3678 5.37375Z" fill="white"/>
<path fill-rule="evenodd" clip-rule="evenodd" d="M39.0899 14.3839C39.141 14.1163 38.9901 13.8513 38.7339 13.7587C37.1919 13.2013 35.5034 13.2013 33.9614 13.7587C33.7052 13.8513 33.5543 14.1163 33.6055 14.3839L34.0665 16.7968C34.193 17.4592 33.6116 18.0406 32.9492 17.914L30.5363 17.453C30.2687 17.4019 30.0037 17.5528 29.9111 17.809C29.3537 19.351 29.3537 21.0395 29.9111 22.5815C30.0037 22.8377 30.2687 22.9886 30.5363 22.9374L32.9492 22.4764C33.6116 22.3499 34.193 22.9312 34.0665 23.5937L33.6055 26.0066C33.5543 26.2742 33.7052 26.5392 33.9614 26.6318C35.5034 27.1891 37.1919 27.1891 38.7339 26.6318C38.9901 26.5392 39.141 26.2742 39.0899 26.0066L38.6288 23.5937C38.5023 22.9312 39.0837 22.3499 39.7461 22.4764L42.159 22.9374C42.4266 22.9886 42.6916 22.8377 42.7842 22.5815C43.3416 21.0395 43.3416 19.351 42.7842 17.809C42.6916 17.5528 42.4266 17.4019 42.159 17.453L39.7461 17.914C39.0837 18.0406 38.5023 17.4592 38.6289 16.7968L39.0899 14.3839Z" fill="white"/>
<path fill-rule="evenodd" clip-rule="evenodd" d="M40.3352 9.42338C43.3696 10.2054 46.3732 11.5219 48.1906 13.6648C50.413 16.2852 50.2728 19.8176 49.0696 23.0904C47.8628 26.3731 45.5462 29.5275 43.1812 31.5466C41.8668 32.6688 40.1305 32.9732 38.5036 32.8235C35.7445 32.5695 33.1552 32.2958 31.0121 31.6909C28.8668 31.0854 27.0872 30.1262 26.0343 28.4416C24.549 26.0651 24.3063 22.9376 24.6796 19.8916C25.0544 16.8341 26.059 13.78 27.1603 11.4815C28.0537 9.61699 29.7855 8.39909 31.8894 8.38507C34.1209 8.3702 37.2856 8.63744 40.3352 9.42338ZM40.0858 10.3911C37.1333 9.6302 34.0564 9.37001 31.8961 9.38441C30.2101 9.39564 28.8058 10.3601 28.0615 11.9134C27.0006 14.1275 26.0314 17.0772 25.6716 20.0132C25.3103 22.9608 25.5722 25.8166 26.8818 27.9119C27.745 29.293 29.2452 30.1538 31.2836 30.7291C33.3242 31.3051 35.8225 31.5731 38.5952 31.8283C40.0552 31.9627 41.4893 31.677 42.5323 30.7865C44.7743 28.8724 46.9872 25.8585 48.1316 22.7456C49.2796 19.6229 49.3123 16.5325 47.4284 14.3112C45.8123 12.4056 43.0535 11.1559 40.0858 10.3911Z" fill="white"/>
<path fill-rule="evenodd" clip-rule="evenodd" d="M79.6205 9.42294C76.5862 10.2049 73.5825 11.5215 71.7652 13.6643C69.5428 16.2848 69.6829 19.8171 70.8861 23.09C72.093 26.3727 74.4096 29.5271 76.7745 31.5461C78.089 32.6683 79.8253 32.9728 81.4521 32.823C84.2112 32.569 86.8005 32.2953 88.9436 31.6905C91.089 31.0849 92.8685 30.1258 93.9214 28.4411C95.4067 26.0646 95.6494 22.9372 95.2761 19.8912C94.9014 16.8336 93.8968 13.7796 92.7954 11.4811C91.9021 9.61655 90.1702 8.39865 88.0664 8.38463C85.8348 8.36976 82.6701 8.637 79.6205 9.42294ZM79.8699 10.3907C82.8224 9.62977 85.8994 9.36957 88.0597 9.38397C89.7457 9.3952 91.15 10.3596 91.8942 11.9129C92.9551 14.1271 93.9244 17.0768 94.2842 20.0128C94.6455 22.9603 94.3835 25.8162 93.074 27.9115C92.2108 29.2926 90.7106 30.1533 88.6722 30.7287C86.6316 31.3046 84.1332 31.5726 81.3605 31.8279C79.9006 31.9623 78.4665 31.6766 77.4234 30.7861C75.1814 28.872 72.9685 25.858 71.8241 22.7452C70.6761 19.6225 70.6434 16.5321 72.5273 14.3107C74.1434 12.4052 76.9022 11.1555 79.8699 10.3907Z" fill="white"/>
<path fill-rule="evenodd" clip-rule="evenodd" d="M58.927 19.5133H60.9735C61.6516 19.5133 62.2014 20.063 62.2014 20.7412C62.2014 21.4193 61.6516 21.969 60.9735 21.969H58.927C58.2489 21.969 57.6991 21.4193 57.6991 20.7412C57.6991 20.063 58.2489 19.5133 58.927 19.5133ZM58.927 19.9226C58.4749 19.9226 58.1084 20.2891 58.1084 20.7412C58.1084 21.1933 58.4749 21.5597 58.927 21.5597H60.9735C61.4256 21.5597 61.7921 21.1933 61.7921 20.7412C61.7921 20.2891 61.4256 19.9226 60.9735 19.9226H58.927Z" fill="white"/>
<path fill-rule="evenodd" clip-rule="evenodd" d="M58.9277 14.2605H60.9741C61.6523 14.2605 62.202 14.8103 62.202 15.4884C62.202 16.1665 61.6523 16.7163 60.9741 16.7163H58.9277C58.2495 16.7163 57.6998 16.1665 57.6998 15.4884C57.6998 14.8103 58.2495 14.2605 58.9277 14.2605ZM58.9277 14.6698C58.4756 14.6698 58.1091 15.0363 58.1091 15.4884C58.1091 15.9405 58.4756 16.307 58.9277 16.307H60.9741C61.4262 16.307 61.7927 15.9405 61.7927 15.4884C61.7927 15.0363 61.4262 14.6698 60.9741 14.6698H58.9277Z" fill="white"/>
<path d="M54.5612 26.8807C54.5612 26.4286 54.9277 26.0621 55.3798 26.0621H58.4495C58.9016 26.0621 59.268 26.4286 59.268 26.8807C59.268 27.3328 58.9016 27.6993 58.4495 27.6993H55.3798C54.9277 27.6993 54.5612 27.3328 54.5612 26.8807Z" fill="white"/>
<path d="M60.7008 26.8804C60.7008 26.4283 61.0673 26.0618 61.5194 26.0618H64.5891C65.0412 26.0618 65.4076 26.4283 65.4076 26.8804C65.4076 27.3325 65.0412 27.699 64.5891 27.699H61.5194C61.0673 27.699 60.7008 27.3325 60.7008 26.8804Z" fill="white"/>
<path d="M60.2231 15.4884C60.2231 15.9405 59.8566 16.307 59.4045 16.307C58.9524 16.307 58.5859 15.9405 58.5859 15.4884C58.5859 15.0363 58.9524 14.6698 59.4045 14.6698C59.8566 14.6698 60.2231 15.0363 60.2231 15.4884Z" fill="white"/>
<path d="M60.2231 20.741C60.2231 21.1931 59.8566 21.5596 59.4045 21.5596C58.9524 21.5596 58.5859 21.1931 58.5859 20.741C58.5859 20.2889 58.9524 19.9224 59.4045 19.9224C59.8566 19.9224 60.2231 20.2889 60.2231 20.741Z" fill="white"/>
</svg>
