<svg width="488" height="238" viewBox="0 0 488 238" fill="none" xmlns="http://www.w3.org/2000/svg">
<path d="M147.656 201.534V187.491H134.528C127.551 193.985 115.39 201.534 96.5182 201.534H2.49072V137.942H10.4714C2.65593 123.112 2.94822 104.469 11.3356 89.9307C15.7199 82.3312 22.1375 76.1042 29.864 71.9233C37.5016 67.8058 46.1305 65.709 55.5091 65.709H125.366H227.742C234.541 65.709 241.073 68.2125 246.144 72.7747C250.897 77.0446 253.997 82.776 254.976 89.0284H265.994V86.3343C265.994 74.9732 275.233 65.7344 286.606 65.7344H337.083L364.151 101.012L391.22 65.709H482.782L378.626 201.457H324.667V194.417C324.667 190.592 321.554 187.478 317.729 187.478H218.173C214.348 187.478 211.235 190.592 211.235 194.417V201.534H147.656Z" fill="white"/>
<path d="M145.801 203.389V189.346H135.278C131.021 193.197 126.166 196.323 120.867 198.611C113.547 201.788 105.351 203.389 96.5311 203.389H0.635498V136.061H7.49789C0.737163 121.078 1.5759 103.134 9.73452 88.9902C14.2967 81.0858 20.9558 74.6046 29.0128 70.2711C36.9426 66.0012 45.8765 63.8408 55.5473 63.8408H227.781C235.037 63.8408 242.014 66.5222 247.44 71.3768C252.053 75.5323 255.281 81.1112 256.565 87.1475H264.151V86.3215C264.151 83.297 264.749 80.3487 265.918 77.5656C267.036 74.8969 268.663 72.4824 270.734 70.4109C272.793 68.3522 275.195 66.7256 277.876 65.5946C280.659 64.4254 283.608 63.8281 286.632 63.8281H338.024L364.177 97.9113L390.318 63.8281H486.582L380.482 202.105L379.554 203.325H322.812V194.417C322.812 191.634 320.55 189.359 317.754 189.359H218.199C215.416 189.359 213.141 191.621 213.141 194.417V203.402H145.801V203.389ZM209.392 199.653V194.404C209.392 189.55 213.344 185.597 218.199 185.597H317.754C322.609 185.597 326.561 189.55 326.561 194.404V199.576H377.724L479.008 67.577H392.16L364.177 104.049L336.194 67.577H286.645C276.313 67.577 267.913 75.9771 267.913 86.3088V90.8837H253.362L253.299 90.3246C251.824 77.3496 240.857 67.5643 227.793 67.5643H55.5473C46.4864 67.5643 38.1499 69.5849 30.7919 73.5498C23.3576 77.5529 17.2069 83.5257 12.9878 90.8329C4.62585 105.333 4.62585 124.065 12.9878 138.552L13.0005 138.565L13.0132 138.577C13.0386 138.641 13.0768 138.692 13.1149 138.755C13.1276 138.781 13.153 138.819 13.1657 138.844L13.6995 139.785H4.37169V199.627H96.5311C115.136 199.627 126.967 192.079 133.626 185.75L133.804 185.572H149.537V199.615H209.392V199.653Z" fill="black"/>
<path d="M485.311 64.4642L379.973 201.725L379.223 202.691H378.003H325.9H323.422V200.2V194.405C323.422 191.266 320.88 188.724 317.741 188.724H218.186C215.047 188.724 212.505 191.266 212.505 194.405V200.276V202.754H210.027H148.927H146.449V200.276V188.712H135.049C130.818 192.588 125.976 195.726 120.638 198.027C113.395 201.166 105.3 202.754 96.5564 202.754H3.7489H1.25811V200.276V139.175V136.697H3.73619H8.46362C1.39789 121.816 2.00789 103.631 10.2682 89.2959C14.7669 81.4931 21.3497 75.1009 29.2922 70.8055C37.1205 66.5991 45.9526 64.4515 55.5345 64.4515H125.391H227.768C234.884 64.4515 241.696 67.0693 247.008 71.8222C251.697 76.0413 254.849 81.6456 256.031 87.7582H264.774V86.2967C264.774 83.3485 265.359 80.4891 266.49 77.7823C267.582 75.1771 269.158 72.8388 271.166 70.8309C273.174 68.8231 275.512 67.2473 278.118 66.1544C280.812 65.0233 283.684 64.4388 286.632 64.4388H337.706L364.177 98.9286L390.635 64.4388H485.311M364.164 103.021L336.486 66.9423H286.632C275.944 66.9423 267.265 75.6219 267.265 86.3094V90.2617H253.909C252.422 77.1596 241.264 66.9423 227.768 66.9423H125.391H55.5473C46.3847 66.9423 37.9465 68.9883 30.4995 73.004C22.9636 77.0579 16.7239 83.1324 12.4413 90.5286C3.96494 105.219 3.96494 124.192 12.4413 138.883C12.4921 138.985 12.5556 139.086 12.6065 139.175H3.7489V200.276H96.531C115.085 200.276 127.056 192.893 134.058 186.234H148.914V200.276H210.027V194.405C210.027 189.893 213.687 186.234 218.199 186.234H317.754C322.266 186.234 325.925 189.893 325.925 194.405V200.2H378.029L480.291 66.9423H391.855L364.164 103.021ZM487.865 63.1934H485.311H390.635H390.013L389.631 63.689L364.177 96.8699L338.71 63.689L338.329 63.1934H337.706H286.632C283.518 63.1934 280.494 63.8033 277.635 65.0106C274.877 66.1798 272.399 67.8445 270.289 69.9541C268.167 72.0763 266.502 74.5544 265.346 77.2994C264.139 80.1587 263.529 83.1833 263.529 86.2967V86.5001H257.073C256.425 83.6916 255.383 80.9847 253.947 78.4685C252.345 75.6346 250.299 73.0803 247.859 70.8945C242.319 65.9256 235.177 63.1934 227.781 63.1934H125.391H55.5473C45.762 63.1934 36.7392 65.3792 28.7077 69.6999C20.5491 74.0969 13.801 80.6543 9.18798 88.6605C1.0929 102.703 0.127081 120.444 6.53198 135.426H3.7489H1.25811H0V136.684V139.163V200.263V202.741V203.999H1.25811H3.73619H96.5183C105.427 203.999 113.7 202.373 121.096 199.17C126.382 196.883 131.224 193.782 135.494 189.957H145.14V200.263V202.741V203.999H146.398H148.876H209.976H212.455H213.713V202.741V200.263V194.392C213.713 191.952 215.695 189.97 218.135 189.97H317.691C320.131 189.97 322.113 191.952 322.113 194.392V200.187V202.665V203.923H323.371H325.849H377.953H379.173H379.795L380.177 203.428L380.926 202.462L486.264 65.2012L487.865 63.1934ZM392.465 68.2004H477.724L377.406 198.942H327.184V194.405C327.184 189.207 322.952 184.975 317.754 184.975H218.199C213.001 184.975 208.769 189.207 208.769 194.405V199.018H150.172V186.234V184.975H148.914H134.058H133.55L133.181 185.319C126.611 191.571 114.92 199.018 96.531 199.018H5.007V140.433H12.5938H14.7669L13.6867 138.553C13.674 138.527 13.6485 138.489 13.6358 138.464C13.6104 138.413 13.5723 138.362 13.5596 138.324L13.5469 138.286L13.5342 138.248C5.28658 123.938 5.28658 105.461 13.5342 91.1513C17.6897 83.9457 23.7642 78.0492 31.0968 74.1096C38.3659 70.1828 46.6007 68.2004 55.5473 68.2004H125.404H227.781C240.527 68.2004 251.227 77.7442 252.663 90.4015L252.79 91.5198H253.921H267.277H268.536V90.2617V86.3094C268.536 76.3209 276.656 68.2004 286.645 68.2004H335.876L363.173 103.783L364.177 105.092L365.181 103.783L392.465 68.2004Z" fill="white"/>
<path d="M396.951 77.2744L364.177 119.986L331.403 77.2744H286.645C281.65 77.2744 277.609 81.3156 277.609 86.3099V100.581H243.767V93.2486C243.767 84.4164 236.613 77.2744 227.793 77.2744H125.404H55.5599C40.6024 77.2744 28.1612 83.997 21.3877 95.7139C14.716 107.266 14.716 122.198 21.3877 133.737C25.645 141.12 32.1897 146.534 40.1831 149.507H14.0806V189.957H96.5436C112.569 189.957 122.417 183.387 127.844 177.872C128.479 177.224 129.076 176.576 129.648 175.902H159.258V189.945H199.708V184.074C199.708 179.562 203.368 175.902 207.88 175.902H328.099C332.61 175.902 336.27 179.562 336.27 184.074V189.868H372.946L459.335 77.2617H396.951V77.2744ZM324.477 145.288V145.123L324.591 145.288H324.477Z" fill="black"/>
<path d="M310.523 127.648H222.634V147.448H310.523V127.648Z" fill="white"/>
<path d="M227.781 87.5938H125.391V93.2362C125.391 90.1227 122.875 87.5938 119.749 87.5938H55.5473C17.0544 87.5938 17.0544 141.832 55.5473 141.832H96.531C108.527 141.832 108.527 159.827 96.531 159.827H24.3997V179.626H96.5183C139.091 179.626 139.091 122.045 96.5183 122.045H55.5473C45.241 122.567 44.1735 106.3 55.5473 105.779H125.404H169.577V179.626H189.351V105.779H233.436V93.2489C233.423 90.1354 230.907 87.5938 227.781 87.5938Z" fill="white"/>
<path d="M407.156 87.5938L364.164 143.637L321.173 87.5938H289.936L360.492 179.55H367.837L438.392 87.5938H407.156Z" fill="white"/>
<path d="M68.1099 41.9894C70.648 44.4542 74.1091 45.9781 77.9263 45.9781L138.24 45.985L125.214 7.12484C123.435 2.99653 119.261 0.105469 114.248 0.105469C109.256 0.105469 105.019 3.09099 103.306 7.20225L98.9642 19.8609L98.9471 0.759344L77.8844 0.748746C74.0773 0.748746 70.6549 2.23436 68.1343 4.69181L68.1417 0.765795H46.5758C42.559 0.765795 38.9058 2.47859 36.3507 5.17058V0.748746L16.0248 0.766256C7.25023 0.758883 0.0525312 7.61789 0.0419328 16.6864C0.0419328 20.8848 1.87684 24.6924 4.58266 27.5134L0 27.506V45.9781L20.4789 45.9744C26.2329 45.9675 31.9348 42.4958 33.9167 38.3362L33.9762 38.1652C36.2659 42.7898 41.0444 45.9781 46.5749 45.9781L68.1095 45.9744V41.9894" fill="white"/>
<path d="M3.16382 42.8181L20.4332 42.8006C27.4987 42.8006 33.2246 37.0922 33.2246 30.0585C33.2246 23.0111 27.4987 17.3022 20.4332 17.3022L15.9483 17.3266C15.5948 17.3266 15.3082 17.0368 15.3082 16.6801C15.3082 16.3235 15.5948 16.0332 15.9483 16.0332L33.1863 16.0369L33.1932 10.6289H15.9446C12.6098 10.6289 9.89657 13.3379 9.89657 16.6663C9.89657 19.9979 12.6093 22.6963 15.9446 22.6963L20.4507 22.7558C24.4989 22.7558 27.7747 26.0205 27.7747 30.0484C27.7747 34.079 24.4993 37.3512 20.4507 37.3512H3.17073L3.16382 42.8181" fill="#0060A8"/>
<path d="M3.17081 36.0815H20.4508C23.7962 36.0815 26.502 33.3831 26.502 30.0478C26.502 26.7162 23.7962 24.021 20.4508 24.021L15.9446 23.9722C11.9034 23.9722 8.62437 20.7037 8.62437 16.6657C8.62437 12.6388 11.9034 9.36987 15.9446 9.36987L33.1933 9.36618L33.1864 3.9375H15.9483C8.89026 3.9375 3.15698 9.63944 3.15698 16.68C3.15698 23.7206 8.89026 29.4257 15.9483 29.4257L20.4089 29.4326C20.748 29.4326 21.0346 29.7091 21.0346 30.0584C21.0346 30.4012 20.748 30.6773 20.4089 30.6773L3.16389 30.6911L3.17081 36.0815" fill="#0060A8"/>
<path d="M46.6137 37.3856C43.6176 37.3856 41.1633 34.9977 41.1633 31.9491V14.6976C41.1633 11.7646 43.6176 9.35236 46.6137 9.35236L65.0471 9.35559V3.9375H46.6137C40.615 3.9375 35.7559 8.77913 35.7559 14.7571V31.9495C35.7559 37.9279 40.615 42.7765 46.6137 42.7765L64.9701 42.7839L64.9664 37.3791L46.6137 37.3856" fill="#0060A8"/>
<path d="M42.4847 14.7561C42.4847 12.4701 44.3238 10.6172 46.6135 10.6172H65.0469V16.0426H49.1654C47.8931 16.0426 47.8756 17.3048 47.8756 17.3048H61.125V22.7058H42.4783L42.4847 14.7561" fill="#0060A8"/>
<path d="M46.6137 36.0707C44.3309 36.0707 42.478 34.2284 42.478 31.9488V23.9922H61.1248V29.4043H47.8754C47.8929 30.6766 49.1652 30.683 49.1652 30.683H64.9697L64.966 36.0633L46.6137 36.0707" fill="#0060A8"/>
<path d="M77.9645 37.3718C74.979 37.3718 72.5391 34.9387 72.5391 31.9491V14.7566C72.5391 11.7642 74.9615 9.3519 77.9502 9.3519H95.8039V3.9375H77.9088C71.9128 3.9375 67.0537 8.77913 67.0537 14.7571V31.9495C67.0537 37.9279 71.9548 42.7765 77.9502 42.7765L95.8039 42.7839V17.3058H80.4607V22.7068H90.3817V37.3718H77.9645" fill="#0060A8"/>
<path d="M73.8115 31.9479C73.8115 34.2385 75.6643 36.1015 77.9504 36.1015H89.1022V23.9848H80.4742V29.4038H83.6763L83.6864 30.6761H80.4986C79.8028 30.6761 79.2332 30.0996 79.2332 29.4038L79.2047 17.3009C79.2047 17.3009 79.201 16.0424 80.4843 16.0111H95.8101L95.8031 10.6133L77.9495 10.617C75.6634 10.617 73.8105 12.4698 73.8105 14.7559V31.9479" fill="#0060A8"/>
<path d="M112.58 10.5363C112.821 9.84784 113.475 9.35156 114.247 9.35156C115.021 9.35156 115.681 9.84784 115.915 10.5363L124.582 36.1397H111.891L111.905 30.1166H116.146L114.237 24.4428L108.018 42.778H101.621L112.58 10.5363" fill="#0060A8"/>
<path d="M126.329 37.3716H111.913V42.7791H133.852L122.442 9.01999C121.442 5.72711 118.146 3.30469 114.244 3.30469C110.336 3.30469 107.05 5.71651 106.043 9.00663L94.5276 42.7796H100.271L111.451 9.95034C111.905 8.86332 112.976 8.09747 114.234 8.09747C115.486 8.09747 116.562 8.86332 117.02 9.94343L126.329 37.3716" fill="#0060A8"/>
<path fill-rule="evenodd" clip-rule="evenodd" d="M132.42 7.1193C131.699 7.83584 130.738 8.23443 129.717 8.23443C128.699 8.23443 127.742 7.83584 127.025 7.11976C126.298 6.3963 125.9 5.44198 125.9 4.42131C125.9 2.32375 127.616 0.621094 129.717 0.621094C130.738 0.621094 131.699 1.01969 132.42 1.73254C133.139 2.456 133.542 3.40709 133.542 4.42085C133.542 5.44152 133.139 6.39584 132.42 7.1193ZM127.399 2.10666C126.774 2.72551 126.438 3.55035 126.438 4.4208C126.438 5.29816 126.773 6.11977 127.399 6.73816C128.021 7.35702 128.846 7.69616 129.717 7.69616C131.531 7.69616 133.007 6.22806 133.007 4.4208C133.007 3.55035 132.664 2.72551 132.045 2.10666C131.423 1.48827 130.598 1.15234 129.717 1.15234C128.846 1.15234 128.022 1.48781 127.399 2.10666Z" fill="white"/>
<path fill-rule="evenodd" clip-rule="evenodd" d="M128.738 6.53722V4.74057H129.829L130.986 6.53722H131.654L130.465 4.70554C130.471 4.70422 130.478 4.7028 130.486 4.70127C130.719 4.65458 131.472 4.50334 131.472 3.54848C131.472 3.1568 131.339 2.80382 131.021 2.56928C130.698 2.32537 130.358 2.32143 129.784 2.31478C129.774 2.31467 129.765 2.31456 129.755 2.31445H128.186V6.53722H128.738ZM129.86 4.27562H128.738V2.78309H129.829C129.84 2.78309 129.852 2.78308 129.863 2.78307C130.173 2.78284 130.441 2.78264 130.654 2.96142C130.895 3.15726 130.906 3.44019 130.906 3.55216C130.906 3.85952 130.766 4.13922 130.375 4.23369C130.207 4.27562 130.039 4.27562 129.86 4.27562Z" fill="white"/>
<path d="M407.744 191.21V204H410.637V191.21H414.985V188.797H403.644V191.21H407.744Z" fill="white"/>
<path d="M415.707 188.797V203.758L418.602 204V194.106L424.394 204L428.494 194.106V204H431.392V188.797H428.251L424.151 198.209L419.806 188.797H415.707Z" fill="white"/>
<path d="M10.3099 223.456C10.274 222.201 9.92006 221.233 9.24797 220.552C8.57588 219.862 7.63943 219.517 6.43863 219.517C5.18406 219.517 4.24313 219.804 3.61585 220.378C2.99752 220.951 2.68836 221.811 2.68836 222.958C2.68836 223.81 2.96616 224.446 3.52175 224.867C4.06839 225.279 5.16614 225.683 6.815 226.077C9.11803 226.632 10.7042 227.331 11.5734 228.174C12.4426 229.016 12.8773 230.28 12.8773 231.964C12.8773 233.819 12.2948 235.289 11.1298 236.373C9.97382 237.458 8.41009 238 6.43863 238C4.41339 238 2.8407 237.408 1.72055 236.225C0.609362 235.034 0.0358448 233.349 0 231.171H2.0566C2.07452 232.614 2.46433 233.73 3.22603 234.518C3.98774 235.307 5.0586 235.701 6.43863 235.701C7.86346 235.701 8.92984 235.419 9.63778 234.854C10.3457 234.29 10.6997 233.439 10.6997 232.3C10.6997 231.27 10.4219 230.517 9.86629 230.042C9.31966 229.567 8.22191 229.133 6.57305 228.738C4.27002 228.183 2.68388 227.506 1.81464 226.709C0.945407 225.911 0.510789 224.724 0.510789 223.147C0.510789 221.327 1.04398 219.885 2.11036 218.818C3.17675 217.752 4.6195 217.219 6.43863 217.219C8.27568 217.219 9.70499 217.761 10.7266 218.845C11.7571 219.93 12.3037 221.466 12.3665 223.456H10.3099Z" fill="white"/>
<path d="M15.9017 237.489V217.73H27.7305V220.082H18.0792V226.131H27.0046V228.51H18.0792V235.137H27.8514V237.489H15.9017Z" fill="white"/>
<path d="M37.5967 238C35.3475 238 33.5328 237.059 32.1528 235.177C30.7728 233.295 30.0828 230.817 30.0828 227.744C30.0828 224.589 30.8042 222.049 32.2469 220.122C33.6897 218.187 35.5805 217.219 37.9193 217.219C39.6757 217.219 41.1678 217.81 42.3955 218.993C43.6232 220.176 44.358 221.731 44.5999 223.657H42.4627C42.3103 222.439 41.7996 221.457 40.9303 220.714C40.07 219.97 39.0081 219.598 37.7446 219.598C36.0778 219.598 34.7605 220.328 33.7927 221.789C32.8249 223.25 32.341 225.244 32.341 227.771C32.341 230.226 32.8249 232.166 33.7927 233.591C34.7605 235.016 36.0778 235.728 37.7446 235.728C39.3307 235.719 40.648 235.083 41.6965 233.819C42.037 233.407 42.3103 232.811 42.5164 232.032C42.7315 231.252 42.8391 230.437 42.8391 229.585V229.195H37.7984V226.897H44.8956V237.449H43.4977L42.9331 235.231C41.571 237.068 39.7922 237.991 37.5967 238Z" fill="white"/>
<path d="M46.8985 237.489L53.0011 217.73H55.5012L61.335 237.489H58.8751L57.3024 231.736H50.9848L49.3987 237.489H46.8985ZM54.1974 220.31L51.6703 229.357H56.6841L54.1974 220.31Z" fill="white"/>
<path d="M73.7418 237.489V220.082H68.2441V217.73H81.4171V220.082H75.9194V237.489H73.7418Z" fill="white"/>
<path d="M83.7963 237.489V217.73H85.9738V237.489H83.7963Z" fill="white"/>
<path d="M93.8238 237.489V220.082H88.3261V217.73H101.499V220.082H96.0014V237.489H93.8238Z" fill="white"/>
<path d="M102.117 237.489L108.22 217.73H110.72L116.554 237.489H114.094L112.521 231.736H106.204L104.618 237.489H102.117ZM109.416 220.31L106.889 229.357H111.903L109.416 220.31Z" fill="white"/>
<path d="M120.707 237.489H118.57V217.73H121.178L129.31 233.793V217.73H131.447V237.489H129.095L120.707 221.52V237.489Z" fill="white"/>
<path d="M139.889 217.73H142.349L147.027 234.68L151.57 217.73H154.057L148.156 237.489H145.803L139.889 217.73Z" fill="white"/>
<path d="M156.57 237.489V217.73H158.748V237.489H156.57Z" fill="white"/>
<path d="M162.606 237.489V217.73H168.816C171.119 217.73 172.893 218.567 174.139 220.243C175.384 221.91 176.007 224.28 176.007 227.354C176.007 230.589 175.389 233.089 174.152 234.854C172.924 236.611 171.173 237.489 168.896 237.489H162.606ZM164.783 235.231H168.896C170.5 235.231 171.71 234.586 172.526 233.295C173.341 231.996 173.749 230.087 173.749 227.569C173.749 225.078 173.332 223.196 172.499 221.923C171.674 220.642 170.447 220.001 168.816 220.001H164.783V235.231Z" fill="white"/>
<path d="M179.031 237.489V217.73H190.86V220.082H181.209V226.131H190.134V228.51H181.209V235.137H190.981V237.489H179.031Z" fill="white"/>
<path d="M200.915 238C198.558 238 196.654 237.059 195.202 235.177C193.75 233.295 193.024 230.817 193.024 227.744C193.024 224.527 193.737 221.968 195.162 220.068C196.586 218.169 198.504 217.219 200.915 217.219C203.334 217.219 205.256 218.169 206.681 220.068C208.106 221.968 208.819 224.527 208.819 227.744C208.819 230.817 208.093 233.295 206.641 235.177C205.189 237.059 203.281 238 200.915 238ZM200.915 235.621C202.626 235.621 203.993 234.904 205.015 233.47C206.045 232.027 206.56 230.109 206.56 227.717C206.56 225.208 206.054 223.227 205.041 221.776C204.038 220.324 202.662 219.598 200.915 219.598C199.176 219.598 197.801 220.324 196.788 221.776C195.784 223.227 195.283 225.208 195.283 227.717C195.283 230.109 195.793 232.027 196.815 233.47C197.846 234.904 199.212 235.621 200.915 235.621Z" fill="white"/>
<path d="M224.599 238C222.35 238 220.535 237.059 219.155 235.177C217.775 233.295 217.085 230.817 217.085 227.744C217.085 224.589 217.807 222.049 219.249 220.122C220.692 218.187 222.583 217.219 224.922 217.219C226.678 217.219 228.17 217.81 229.398 218.993C230.626 220.176 231.36 221.731 231.602 223.657H229.465C229.313 222.439 228.802 221.457 227.933 220.714C227.073 219.97 226.011 219.598 224.747 219.598C223.08 219.598 221.763 220.328 220.795 221.789C219.827 223.25 219.343 225.244 219.343 227.771C219.343 230.226 219.827 232.166 220.795 233.591C221.763 235.016 223.08 235.728 224.747 235.728C226.333 235.719 227.651 235.083 228.699 233.819C229.04 233.407 229.313 232.811 229.519 232.032C229.734 231.252 229.842 230.437 229.842 229.585V229.195H224.801V226.897H231.898V237.449H230.5L229.936 235.231C228.574 237.068 226.795 237.991 224.599 238Z" fill="white"/>
<path d="M233.901 237.489L240.004 217.73H242.504L248.337 237.489H245.878L244.305 231.736H237.987L236.401 237.489H233.901ZM241.2 220.31L238.673 229.357H243.687L241.2 220.31Z" fill="white"/>
<path d="M252.424 237.489H250.3V217.73H253.418L258.069 234.344L262.707 217.73H265.825V237.489H263.769V220.848L259.131 237.489H257.061L252.424 220.848V237.489Z" fill="white"/>
<path d="M269.414 237.489V217.73H281.243V220.082H271.592V226.131H280.517V228.51H271.592V235.137H281.364V237.489H269.414Z" fill="white"/>
<path d="M300.223 223.456C300.187 222.201 299.833 221.233 299.161 220.552C298.489 219.862 297.552 219.517 296.352 219.517C295.097 219.517 294.156 219.804 293.529 220.378C292.911 220.951 292.601 221.811 292.601 222.958C292.601 223.81 292.879 224.446 293.435 224.867C293.981 225.279 295.079 225.683 296.728 226.077C299.031 226.632 300.617 227.331 301.486 228.174C302.356 229.016 302.79 230.28 302.79 231.964C302.79 233.819 302.208 235.289 301.043 236.373C299.887 237.458 298.323 238 296.352 238C294.326 238 292.754 237.408 291.634 236.225C290.522 235.034 289.949 233.349 289.913 231.171H291.97C291.988 232.614 292.377 233.73 293.139 234.518C293.901 235.307 294.972 235.701 296.352 235.701C297.776 235.701 298.843 235.419 299.551 234.854C300.259 234.29 300.613 233.439 300.613 232.3C300.613 231.27 300.335 230.517 299.779 230.042C299.233 229.567 298.135 229.133 296.486 228.738C294.183 228.183 292.597 227.506 291.728 226.709C290.858 225.911 290.424 224.724 290.424 223.147C290.424 221.327 290.957 219.885 292.023 218.818C293.09 217.752 294.532 217.219 296.352 217.219C298.189 217.219 299.618 217.761 300.64 218.845C301.67 219.93 302.217 221.466 302.279 223.456H300.223Z" fill="white"/>
<path d="M310.291 229.518L304.175 217.73H306.729L311.393 227.098L315.977 217.73H318.584L312.468 229.464V237.489H310.291V229.518Z" fill="white"/>
<path d="M330.333 223.456C330.297 222.201 329.943 221.233 329.271 220.552C328.599 219.862 327.662 219.517 326.461 219.517C325.207 219.517 324.266 219.804 323.638 220.378C323.02 220.951 322.711 221.811 322.711 222.958C322.711 223.81 322.989 224.446 323.544 224.867C324.091 225.279 325.189 225.683 326.838 226.077C329.141 226.632 330.727 227.331 331.596 228.174C332.465 229.016 332.9 230.28 332.9 231.964C332.9 233.819 332.317 235.289 331.152 236.373C329.996 237.458 328.433 238 326.461 238C324.436 238 322.863 237.408 321.743 236.225C320.632 235.034 320.058 233.349 320.023 231.171H322.079C322.097 232.614 322.487 233.73 323.249 234.518C324.01 235.307 325.081 235.701 326.461 235.701C327.886 235.701 328.952 235.419 329.66 234.854C330.368 234.29 330.722 233.439 330.722 232.3C330.722 231.27 330.445 230.517 329.889 230.042C329.342 229.567 328.245 229.133 326.596 228.738C324.293 228.183 322.707 227.506 321.837 226.709C320.968 225.911 320.533 224.724 320.533 223.147C320.533 221.327 321.067 219.885 322.133 218.818C323.199 217.752 324.642 217.219 326.461 217.219C328.298 217.219 329.728 217.761 330.749 218.845C331.78 219.93 332.326 221.466 332.389 223.456H330.333Z" fill="white"/>
<path d="M339.782 237.489V220.082H334.284V217.73H347.457V220.082H341.96V237.489H339.782Z" fill="white"/>
<path d="M349.716 237.489V217.73H361.544V220.082H351.893V226.131H360.819V228.51H351.893V235.137H361.665V237.489H349.716Z" fill="white"/>
<path d="M366.599 237.489H364.475V217.73H367.593L372.244 234.344L376.882 217.73H380V237.489H377.943V220.848L373.306 237.489H371.236L366.599 220.848V237.489Z" fill="white"/>
</svg>
