<svg width="391" height="146" viewBox="0 0 391 146" fill="none" xmlns="http://www.w3.org/2000/svg">
<path d="M15.8877 24.051H98.4379C105.398 24.0757 109.644 19.4219 109.644 13.7143C109.644 7.99935 105.373 3.38388 98.4379 3.37646H15.8877C8.94879 3.38388 4.69006 7.99935 4.69006 13.7143C4.69006 19.4219 8.92768 24.0757 15.8877 24.051Z" fill="white"/>
<path fill-rule="evenodd" clip-rule="evenodd" d="M98.4379 24.0509H15.8877C8.92764 24.0756 4.69003 19.4218 4.69003 13.7143C4.69003 7.99929 8.94875 3.38382 15.8877 3.37641H98.4379C105.373 3.38382 109.644 7.99929 109.644 13.7143C109.644 19.4218 105.398 24.0756 98.4379 24.0509ZM98.4739 4.67397e-05H15.8492C7.10939 -0.0197197 1.24231 6.23266 1.24231 13.7303C1.24231 21.2218 7.09573 27.4063 15.8665 27.41H98.4603C107.231 27.4063 113.087 21.2218 113.087 13.7303C113.087 6.23266 107.21 -0.0197197 98.4739 4.67397e-05ZM102.825 10.9235C101.932 10.9235 101.206 10.2033 101.206 9.3187C101.206 8.43045 101.932 7.70279 102.825 7.70279C103.713 7.70279 104.438 8.43045 104.438 9.3187C104.438 10.2033 103.713 10.9235 102.825 10.9235ZM102.825 7.33217C101.72 7.33217 100.83 8.22166 100.83 9.3187C100.83 10.417 101.72 11.3015 102.825 11.3015C103.929 11.3015 104.822 10.417 104.822 9.3187C104.822 8.22166 103.929 7.33217 102.825 7.33217ZM102.806 9.16551H102.545V8.53051H102.777C103.104 8.53051 103.265 8.63058 103.265 8.85542C103.265 9.0778 103.119 9.16551 102.806 9.16551ZM103.813 8.8233C103.813 8.39833 103.506 8.19201 102.87 8.19201H102.004V10.3923H102.545V9.48795H102.806L103.233 10.3923H103.828L103.336 9.40765C103.638 9.32488 103.813 9.11486 103.813 8.8233ZM57.685 12.8544C57.9831 12.3331 58.5494 12.0761 59.0537 12.0761C59.5641 12.0761 60.1193 12.3331 60.4285 12.8544C60.672 13.2881 60.6819 13.7921 60.6757 14.542H57.4267C57.4205 13.7921 57.4341 13.2881 57.685 12.8544ZM64.7742 15.8836C64.7742 13.2201 62.1959 11.0124 59.0189 11.0124C55.8481 11.0124 53.2748 13.167 53.2748 15.833C53.2748 18.4928 55.8481 20.6474 59.0189 20.6474C61.6506 20.6474 63.8775 19.1562 64.5556 17.1277L60.6608 17.1289C60.6608 17.1289 60.672 17.1709 60.672 17.6466C60.672 19.2217 59.6287 19.5664 59.0537 19.5664C58.4737 19.5664 57.4267 19.2217 57.4267 17.6466V15.8873L64.7742 15.8836ZM72.9389 11.1557C71.6523 11.1916 70.5804 11.7376 69.8266 12.4467C69.8228 12.2404 69.8266 11.5486 69.8266 11.5486H65.9566V20.1297H69.8266C69.8266 20.1297 69.8228 14.8595 69.8228 14.495C69.8228 13.7489 70.6152 12.9174 71.6696 12.9174C72.7415 12.9174 73.4593 13.7489 73.4593 14.495V20.1297H77.3318V15.4611C77.3579 12.0613 74.402 11.11 72.9389 11.1557ZM41.2363 11.1557C39.9447 11.1916 38.8766 11.7376 38.1239 12.4467V11.5486H34.2502L34.2577 20.1297H38.1239V14.495C38.1239 13.7489 38.9126 12.9174 39.9782 12.9174C41.0401 12.9174 41.7567 13.7489 41.7567 14.495V20.1297H45.6329V15.4611C45.654 12.0613 42.6957 11.11 41.2363 11.1557ZM85.7685 15.7947V17.3204C85.7685 18.646 84.8482 18.9919 84.2459 18.9919C83.6174 18.9919 82.7182 18.646 82.7182 17.3204V15.7922V14.2665C82.7182 12.936 83.6174 12.6024 84.2459 12.6024C84.8482 12.6024 85.7685 12.936 85.7685 14.2665V15.7947ZM85.7474 11.9798C85.1202 11.6264 84.4607 11.2953 83.5392 11.2089C80.7211 10.9593 78.5763 13.4388 78.5763 15.6996C78.5763 18.6929 80.8925 19.7986 81.244 19.958C82.5605 20.5646 84.2459 20.5646 85.7337 19.6393C85.7337 19.7159 85.7375 20.1334 85.7375 20.1334H89.5888V7.22963H85.7474V11.9798ZM98.1299 17.5947C98.1299 18.9561 97.3152 19.5194 96.534 19.5194C95.7515 19.5194 94.9393 18.9561 94.9393 17.5947V15.7391V13.9478C94.9393 12.5901 95.7552 12.0304 96.534 12.0304C97.3127 12.0304 98.1237 12.5901 98.1237 13.9478C98.1237 14.4728 98.1237 15.4265 98.1299 15.7749V17.5947ZM96.5625 10.9593C93.4141 10.9593 90.8656 13.1237 90.8656 15.7786C90.8656 18.4422 93.4141 20.6054 96.5625 20.6054C99.7109 20.6054 102.273 18.4422 102.273 15.7786C102.273 13.1237 99.7109 10.9593 96.5625 10.9593ZM28.1981 9.86475H32.1066V7.22469H28.1981V9.86475ZM28.2055 20.1334H32.1066V11.5486H28.2055V20.1334ZM53.7914 11.5684V10.2959H51.6826V8.5614H47.7741L47.7803 10.2996H45.654V11.5684H47.7766L47.7741 20.1334H51.6863L51.6826 11.5684H53.7914ZM21.9659 16.237L16.3745 7.22963H12.3381V20.1334H16.3472V11.131L21.9696 20.1334H25.97V7.22963H21.9622L21.9659 16.237Z" fill="#ED1C24"/>
<path d="M89.5291 130.988H90.3128C91.5672 130.988 92.3509 130.209 92.6651 128.493C93.2923 126.778 92.3509 126.153 91.5672 126.153H89.5291V126.17L88.1183 130.988H89.5291Z" fill="#E02625"/>
<path d="M127.474 133.795H128.1C128.1 133.795 129.061 126.341 129.198 125.373H128.885C128.577 126.206 127.474 129.896 127.474 129.896L125.749 133.795H127.474Z" fill="#E02625"/>
<path fill-rule="evenodd" clip-rule="evenodd" d="M376.463 145.649H389.79V118.511H376.463H354.355H336.95H317.352H300.261H278.623H248.989H227.978H209.163H187.369H164.163H145.505H127.474H125.592H110.069H89.5291H70.7145H53.9367H33.2404H12.5429H0.313232V145.649H12.5429H33.2404H53.9367H70.7145H89.5291H110.069H125.592H127.474H145.505H164.163H187.369H209.163H227.978H248.989H278.623H300.261H317.352H336.95H354.355H376.463ZM376.463 137.54L382.263 125.373C381.587 127.224 381.048 129.03 380.521 130.791C380.072 132.293 379.633 133.763 379.128 135.199L378.03 140.347H380.854L385.086 123.97H380.54L377.089 131.612C377.031 131.787 376.951 131.983 376.865 132.193C376.721 132.545 376.562 132.936 376.463 133.327C375.993 134.263 375.679 135.199 375.366 136.135C375.679 134.887 375.993 133.016 375.993 131.612L376.463 125.842V123.97H372.228L367.681 140.347H370.662L372.072 135.199C372.856 132.08 373.64 128.804 374.268 125.373L373.483 140.347H375.051L376.463 137.54ZM354.355 140.347H356.079L356.706 138.007H354.355H351.845L353.101 133.016H354.355H357.804L358.431 130.364H354.355H353.817L354.355 128.336L354.982 126.153H359.843L360.313 123.97H354.355H352.786L348.24 140.347H354.355ZM336.95 130.52L338.048 126.153H341.34L341.968 123.97H336.95H332.56L332.09 126.153H335.381L331.776 140.347H334.286L336.95 130.52ZM317.352 140.502C319.076 139.878 320.643 138.318 320.957 136.135C321.271 134.576 321.271 133.484 320.801 132.703C320.173 131.768 318.841 130.656 317.899 129.875C317.803 129.779 317.709 129.673 317.594 129.544C317.523 129.463 317.444 129.374 317.352 129.272C317.038 128.961 316.944 128.429 317.056 127.64C317.1 127.344 317.195 127.089 317.352 126.778C317.822 126.153 318.45 125.842 319.076 125.842C320.801 125.842 320.486 127.556 319.859 128.961H322.682C322.706 128.83 322.735 128.689 322.765 128.539C323.131 126.72 323.748 123.657 319.546 123.657C318.763 123.657 317.979 123.814 317.352 123.97C315.783 124.594 314.842 125.842 314.215 127.868C313.902 128.804 313.902 129.584 314.215 130.364C314.757 131.551 315.525 132.29 316.31 133.046C316.66 133.383 317.013 133.723 317.352 134.108C317.412 134.167 317.448 134.205 317.479 134.236C317.529 134.288 317.566 134.325 317.665 134.419C318.08 134.813 318.343 135.33 318.135 136.292C317.968 137.069 317.822 137.54 317.352 137.851C317.038 138.162 316.567 138.318 315.94 138.318C314.529 138.318 314.401 137.295 314.852 135.439L314.999 134.576H312.178L311.863 135.824C311.393 138.629 311.863 140.815 315.312 140.815C316.092 140.815 316.717 140.66 317.34 140.505L317.352 140.502ZM278.623 140.502C280.505 139.878 282.062 138.355 282.542 136.135C282.913 134.423 282.563 133.137 281.892 132.405C281.238 131.692 280.634 131.1 280.05 130.529C279.833 130.317 279.619 130.108 279.407 129.896C279.25 129.74 279.133 129.623 279.015 129.506C278.897 129.39 278.78 129.273 278.623 129.117C278.309 128.804 278.158 128.274 278.43 127.479C278.493 127.294 278.499 127.285 278.577 127.163C278.59 127.142 278.605 127.118 278.623 127.089C279.022 126.339 279.407 125.842 280.191 125.842C281.603 125.842 281.603 127.556 281.132 128.961H283.954C283.976 128.72 284.019 128.443 284.066 128.144C284.354 126.31 284.771 123.657 281.132 123.657C280.197 123.657 279.417 123.812 278.639 123.967L278.623 123.97C277.055 124.594 275.958 125.842 275.33 127.868C275.173 128.804 275.086 129.794 275.408 130.442C275.949 131.532 276.636 132.201 277.343 132.89C277.772 133.308 278.208 133.733 278.623 134.263C278.623 134.263 278.784 134.452 278.87 134.548C279.257 134.959 279.643 135.438 279.407 136.292C279.193 137.058 278.936 137.54 278.623 137.851C278.309 138.162 277.838 138.318 277.055 138.318C275.644 138.318 275.644 137.227 276.271 135.511L276.585 134.576H273.762L273.449 135.824C272.508 138.629 273.135 140.815 276.585 140.815C277.211 140.815 277.996 140.658 278.623 140.502ZM248.989 130.52L250.243 126.153H253.535L254.163 123.97H248.989H244.756L244.285 126.153H247.578L243.971 140.347H246.48L248.989 130.52ZM227.978 140.347H230.33L234.877 123.97H232.055L231.271 127.246C230.708 128.644 230.398 130.044 230.113 131.331C230.081 131.478 230.048 131.624 230.016 131.768C229.86 132.468 229.743 133.245 229.626 134.023C229.508 134.805 229.39 135.588 229.232 136.292C229.232 134.954 229.143 133.75 229.059 132.634C228.987 131.667 228.92 130.765 228.92 129.896L228.292 123.97H227.978H225.313L220.922 140.347H223.902L224.686 137.227C224.833 136.712 224.981 136.057 225.146 135.33C225.33 134.515 225.535 133.609 225.784 132.703C226.097 130.988 226.411 129.272 226.724 127.868C226.724 130.677 226.724 132.703 226.881 134.576L227.822 140.347H227.978ZM209.163 140.347H211.045L211.671 138.007H209.163H206.497L207.909 133.016H209.163H212.456L213.397 130.364H209.163H208.536L209.163 127.712L209.633 126.153H214.807L215.278 123.97H209.163H207.438L203.206 140.347H209.163ZM187.369 137.54L193.171 125.373C192.54 127.345 192.012 129.266 191.499 131.135C191.12 132.518 190.748 133.873 190.348 135.199L188.937 140.347H191.758L195.836 123.97H191.758L188.153 131.612C187.995 132.08 187.682 132.86 187.369 133.64C187.212 134.029 187.055 134.458 186.899 134.887C186.742 135.316 186.585 135.745 186.428 136.135C186.742 134.887 187.055 133.016 187.055 131.612L187.369 127.712L187.84 123.97H187.369H183.292L179.059 140.347H181.568L182.978 135.199C183.919 132.08 184.704 128.804 185.33 125.373H185.644L184.39 140.347H186.115L187.369 137.54ZM164.163 140.347H166.672L171.062 123.97H168.24L167.456 127.246C167.006 128.364 166.798 129.483 166.601 130.545C166.523 130.963 166.447 131.372 166.359 131.768C166.201 132.471 166.044 133.252 165.887 134.034C165.731 134.812 165.574 135.591 165.417 136.292C165.417 134.954 165.372 133.75 165.331 132.634C165.295 131.667 165.261 130.765 165.261 129.896L164.634 123.97H164.163H161.498L157.264 140.347H160.087L160.871 137.227C161.185 136.135 161.498 134.419 161.811 132.703C162.145 131.486 162.4 130.267 162.632 129.16C162.727 128.708 162.818 128.275 162.909 127.868C162.909 130.677 162.909 132.703 163.223 134.576L164.007 140.347H164.163ZM145.505 137.54L149.11 123.97H146.132L145.505 126.621L141.898 140.347H144.721L145.505 137.54ZM127.474 140.347H130.296L131.394 123.97H127.787L127.474 124.594L125.592 128.336L119.79 140.347H122.613L124.651 136.292H125.592H127.474H127.787L127.474 140.347ZM110.069 131.145L111.323 126.153H114.459L115.243 123.97H110.069H105.993L105.366 126.153H108.502L104.895 140.347H107.718L110.069 131.145ZM89.5291 133.327C89.8893 133.385 90.0557 133.416 90.3128 133.484C91.2716 133.737 90.94 135.199 90.627 136.292C90.3128 137.227 89.8434 139.41 89.8434 140.347H92.9793V140.034C92.3509 139.723 93.4488 135.824 93.7618 134.887C94.076 133.171 94.076 131.999 92.3509 131.999V131.864C94.3902 131.709 95.1739 129.584 95.8011 127.868C96.2706 125.062 94.8597 123.97 92.6651 123.97H89.5291H87.3346L82.9442 140.347H85.9224L87.4911 133.171H88.1183C88.5877 133.171 89.0559 133.234 89.5291 133.327ZM70.7145 140.347H72.5948L73.0655 138.007H70.7145H68.048L69.4601 133.016H70.7145H74.007L74.4764 130.364H70.7145H69.9296L70.7145 127.712L71.184 126.153H76.2015L76.8287 123.97H70.7145H68.8329L64.599 140.347H70.7145ZM53.9367 131.145L55.1911 126.153H58.6413L59.2685 123.97H53.9367H49.8605L49.0756 126.153H52.3693L48.7626 140.347H51.5856L53.9367 131.145ZM33.2404 140.347H36.0622L40.2961 123.97H37.4731L36.5329 127.246C36.3525 128.141 36.1209 129.036 35.8969 129.902C35.7307 130.544 35.5688 131.17 35.435 131.768C35.122 133.171 34.8078 134.887 34.6513 136.292C34.6513 134.694 34.4957 133.303 34.3494 131.996C34.2671 131.261 34.1878 130.552 34.1409 129.848L33.7099 123.97H33.2404H30.5752L26.3413 140.347H29.163L30.0796 137.183C30.3401 136.288 30.5495 135.294 30.772 134.238C30.8804 133.722 30.992 133.193 31.1142 132.652C31.1543 132.475 31.1946 132.299 31.2348 132.123C31.58 130.612 31.9126 129.156 31.986 127.868C31.8643 130.002 31.986 132.703 32.299 134.576L33.0839 140.347H33.2404ZM12.5429 140.347H14.1116L15.0517 138.007H12.5429H9.87767L11.2886 133.016H12.5429H15.8354L16.7768 130.364H12.5429H11.9157L12.5429 127.712L13.0137 126.153H17.8747L18.6584 123.97H12.5429H10.8191L6.5852 140.347H12.5429ZM305.748 123.97L300.261 131.768L299.163 133.171L297.439 140.347H294.616L296.654 133.171L295.243 123.97H298.065L298.692 130.677C299.163 129.741 299.654 128.782 300.261 127.752L302.613 123.97H305.748Z" fill="#E02625"/>
<path fill-rule="evenodd" clip-rule="evenodd" d="M91.0967 42.7158H82.3173H73.0658L60.2089 111.808H68.6754L74.4779 81.0837H82.3173H85.4532C89.2164 81.0837 92.1947 78.5881 92.8218 74.845L97.3687 50.3579C97.6829 49.7354 97.6829 49.4229 97.6829 49.2671C97.6829 45.5227 94.8612 42.7158 91.0967 42.7158ZM82.6302 73.4404H82.3173H75.8888L79.8085 50.6694H82.3173H86.8641C87.9607 50.6694 88.9022 51.449 88.9022 52.541V52.8535L85.4532 70.946C85.139 72.3481 84.0424 73.4404 82.6302 73.4404ZM39.1987 102.45V102.294L50.0176 42.8711H41.864L30.5757 104.791V106.037C30.5757 109.469 33.3975 112.276 36.8464 112.276H48.4502C52.3685 112.276 55.5045 109.625 56.1317 106.037L67.7355 42.8711H59.5819L48.7632 102.138C48.4502 103.542 47.1946 104.634 45.6272 104.634H41.2368C40.1389 104.634 39.1987 103.698 39.1987 102.45ZM20.2986 72.9963C19.8687 72.2664 19.4727 71.5938 19.1322 71.0132C18.7262 70.3208 18.3993 69.7588 18.1882 69.3855C16.3066 66.5789 15.3665 64.707 15.9924 60.6526L17.561 52.8535C17.7175 51.7612 18.9719 50.6704 20.384 50.6704H24.9309C26.0276 50.6704 26.969 51.6057 26.969 52.5408V52.8535L24.3025 67.2014H32.4561L35.592 50.3579C35.7498 49.8896 35.7498 49.4226 35.7498 49.1101C35.7498 45.5237 32.7703 42.8713 29.4778 42.8713H17.7175C14.1108 42.8713 10.8184 45.5237 10.0347 49.1101L7.83887 61.1194C7.36938 64.5503 7.52588 66.4231 9.56519 70.4778C10.3361 71.8723 11.8599 74.7019 13.4349 77.6274L13.4631 77.6794C15.4017 81.2798 17.412 85.0129 18.1882 86.386C19.9133 89.5054 20.2263 90.2849 19.9133 92.3135L18.0317 102.139C17.7175 103.542 16.4631 104.633 14.8958 104.633H10.5054C9.40747 104.633 8.46729 103.698 8.46729 102.451V102.294L11.1326 87.3225H3.1355L-0.000488281 104.79V106.038C-0.000488281 109.468 2.5083 112.276 6.11499 112.276H17.7175C21.6372 112.276 24.6167 109.624 25.4004 106.038L27.9092 92.6248C28.5364 89.6611 27.9092 86.5417 26.969 84.8257C26.4006 83.3574 22.7905 77.2273 20.3066 73.0095L20.3004 72.9993L20.2986 72.9963ZM102.857 42.8713H121.672L120.418 50.6692H109.912L105.836 72.6594H116.341L114.93 80.4585H104.582L100.191 104.633H110.539L109.129 112.275H90.1561L102.857 42.8713ZM170.121 42.8711L157.421 112.275H165.887C172.317 76.8718 173.257 68.7603 173.57 60.4954C173.57 67.3582 173.728 75.156 177.177 112.275H185.645L198.187 42.8711H189.877C183.449 78.2754 182.507 88.7256 182.194 95.8997C182.194 89.0356 182.038 79.99 178.431 42.8711H170.121ZM200.226 112.275H191.916L204.46 42.8711H212.927L200.226 112.275ZM263.728 50.6699H269.529L270.94 42.8721H250.557L249.302 50.6699H255.261L243.814 112.276H252.438L263.728 50.6699ZM274.389 42.8713H293.518L292.107 50.6692H281.445L277.682 72.6594H288.03L286.62 80.4585H276.115L271.881 104.633H282.072L280.661 112.275H261.845L274.389 42.8713ZM219.355 42.8711L206.655 112.275H215.121C221.551 76.8718 222.491 68.7603 222.804 60.4954C222.804 67.3582 222.962 75.156 226.567 112.275H234.879L247.578 42.8711H239.268C232.839 78.2754 231.899 88.7256 231.585 95.8997C231.585 89.0356 231.428 79.99 227.665 42.8711H219.355ZM286.306 112.275L299.008 42.8711H307.474C310.86 79.3115 311.073 88.6956 311.228 95.5208L311.236 95.8997C311.393 88.7256 312.334 78.2754 318.762 42.8711H327.229L314.53 112.275H306.062C302.613 75.156 302.457 67.3582 302.457 60.4954C302.142 68.7603 301.201 76.8718 294.929 112.275H286.306ZM136.254 84.2019V84.0464C136.254 83.2668 136.097 82.6416 135.627 82.3303C135.548 82.2908 135.458 82.2512 135.362 82.2144C135.076 82.1052 134.724 82.019 134.372 82.019H127.473L122.143 112.121H113.675L126.375 43.1841H135.627H145.035C148.484 43.1841 150.799 45.907 151.113 49.4934C151.113 49.8059 151.113 50.1765 150.992 50.6694L147.073 72.3484C146.759 75.469 144.877 77.4949 141.741 78.2756C143.937 79.2109 145.348 81.395 145.035 84.0464V85.1384L140.017 112.121H135.627H131.236L135.627 88.1008L136.254 84.2019ZM135.627 73.7529H136.097C137.508 73.7529 138.606 72.6609 138.919 71.2561L142.055 53.3206V53.0093C142.055 51.9172 141.428 50.9819 140.017 50.9819H135.627H133.432L129.198 73.7529H135.627ZM351.689 43.0271H339.616H332.717L319.86 111.964H339.616H340.087C344.006 111.964 346.829 109.468 347.612 106.038L357.648 50.5149C357.648 50.0466 357.805 49.7354 357.805 49.4229C357.805 45.8352 354.982 43.0271 351.689 43.0271ZM340.243 102.139C340.087 102.607 339.93 103.074 339.616 103.385C338.989 104.01 338.205 104.477 337.264 104.477H329.895L339.46 50.825H339.616H347.142C348.239 50.825 349.337 51.7615 349.337 52.8535C349.337 53.0225 349.332 53.1128 349.323 53.1812C349.317 53.2278 349.309 53.2644 349.3 53.3088L349.292 53.3428L340.243 102.139ZM371.445 43.0271H383.206C386.498 43.0271 389.007 45.8352 389.007 49.4229V50.5149L379.129 106.038C378.344 109.468 375.208 111.964 371.445 111.964H359.686C356.237 111.964 353.727 109.468 353.727 106.038V104.633L363.606 49.4229C364.39 45.8352 367.526 43.0271 371.289 43.0271H371.445ZM371.445 102.607V102.139L380.539 53.166V52.8535C380.539 51.7615 379.755 50.825 378.659 50.825H374.111C372.857 50.825 371.76 51.6057 371.445 52.541C371.289 52.6978 371.289 52.8535 371.289 53.166L362.195 102.139V102.451C362.195 103.542 362.98 104.477 364.075 104.477H368.624C369.878 104.477 370.975 103.698 371.445 102.607ZM386.184 104.478H385.399H383.204V110.404H383.989V107.908H385.399H385.87C386.837 108.015 386.848 108.707 386.859 109.434C386.864 109.768 386.869 110.109 386.968 110.404H387.909V110.248C387.562 110.041 387.583 109.621 387.606 109.162C387.635 108.583 387.667 107.944 386.968 107.596C387.753 107.129 387.753 106.505 387.753 106.037C387.595 105.102 386.968 104.478 386.184 104.478ZM386.027 107.284H385.399H383.989V105.257H385.399H385.714C387.595 105.413 386.968 107.284 386.027 107.284ZM390.26 107.753C390.26 110.248 388.221 112.587 385.399 112.587C382.578 112.587 380.383 110.248 380.383 107.753C380.383 105.102 382.578 102.606 385.399 102.606C388.221 102.606 390.26 105.102 390.26 107.753ZM389.633 107.753C389.633 105.413 387.909 103.229 385.399 103.229C382.891 103.229 381.167 105.413 381.167 107.753C381.167 110.248 382.891 112.12 385.399 112.12C387.909 111.964 389.633 110.248 389.633 107.753Z" fill="#E02625"/>
</svg>
