<svg width="491" height="140" viewBox="0 0 491 140" fill="none" xmlns="http://www.w3.org/2000/svg">
<path d="M2.59968 110.212C2.3883 110 2.47158 104.514 2.68948 104.296C2.84227 104.143 5.42727 104.094 13.2921 104.094C23.399 104.094 23.711 104.084 24.3451 103.754C24.704 103.567 25.148 103.245 25.3319 103.038C25.6938 102.632 26.0603 101.533 26.0603 100.854C26.0603 99.9319 25.131 98.369 24.5831 98.369C24.4511 98.369 24.1044 98.2575 23.8126 98.1213C23.3753 97.9171 21.9468 97.8653 15.6886 97.8266C10.3973 97.7939 8.02364 97.7224 7.85909 97.5909C7.72921 97.4871 7.20621 97.3025 6.69686 97.1807C6.18752 97.059 5.65117 96.8598 5.50496 96.7381C5.35876 96.6164 5.14787 96.5168 5.03631 96.5168C4.92476 96.5168 4.19599 95.8765 3.41684 95.0938C2.31346 93.9854 1.94495 93.4921 1.75035 92.8628C1.42723 91.8179 1.14054 91.0072 0.860137 90.3456C0.535167 89.5788 0.555241 86.6866 0.887843 86.354C1.02675 86.2151 1.14041 85.8656 1.14041 85.5773C1.14041 84.5804 2.04311 83.0284 3.43507 81.6319C4.15512 80.9095 4.89945 80.2505 5.08914 80.1675C5.27883 80.0845 5.54769 79.9489 5.6866 79.866C5.82551 79.7832 6.36256 79.5936 6.88004 79.4447C7.71049 79.2057 9.45443 79.174 21.7394 79.174H35.6578V82.0027C35.6578 83.9783 35.5969 84.8924 35.4557 85.0335C35.3028 85.1864 32.6312 85.2355 24.4626 85.2355C14.4484 85.2355 13.6292 85.2571 13.0837 85.5353C11.9257 86.1256 11.3635 87.0457 11.3635 88.3505C11.3635 89.5422 12.1008 90.9604 12.7203 90.9604C12.8522 90.9604 13.1989 91.0722 13.4907 91.2089C13.9289 91.4142 15.3403 91.4655 21.5983 91.5036C26.9341 91.536 29.2749 91.6071 29.512 91.7438C29.6972 91.8505 30.1897 92.0301 30.6065 92.1428C31.887 92.4892 32.4735 92.8513 33.7371 94.0754C35.0273 95.3252 35.6561 96.2108 35.6572 96.7793C35.6575 96.97 35.769 97.2731 35.905 97.4528C36.041 97.6326 36.1546 97.9787 36.1576 98.2221C36.1605 98.4654 36.2766 98.7588 36.4155 98.8741C36.774 99.1717 36.7784 102.537 36.4209 103.009C36.2849 103.189 36.1712 103.583 36.1683 103.884C36.1654 104.185 36.0114 104.715 35.8262 105.06C35.641 105.406 35.4894 105.778 35.4894 105.887C35.4894 106.206 32.9291 108.838 32.3745 109.09C32.0966 109.216 31.7557 109.382 31.6168 109.46C31.4778 109.537 30.8575 109.764 30.2382 109.962C29.126 110.319 28.9504 110.324 15.9121 110.324C8.652 110.324 2.66144 110.273 2.59971 110.212H2.59968Z" fill="white"/>
<path d="M48.1177 110.164C47.3617 109.928 45.4236 108.956 45.4236 108.813C45.4236 108.736 45.2153 108.595 44.9606 108.5C44.441 108.306 43.0663 107.1 43.0663 106.838C43.0663 106.744 42.8188 106.335 42.5162 105.928C41.8753 105.066 41.2142 103.759 41.2142 103.354C41.2142 103.199 41.1 102.897 40.9604 102.684C40.7395 102.347 40.7123 100.807 40.75 90.7776L40.7932 79.2581L45.2083 79.2132L49.6233 79.1683L49.6703 89.7368L49.7173 100.305L50.1832 101.231C50.7545 102.367 51.697 103.219 52.8708 103.661C53.6797 103.965 54.2617 104 59.44 104.049L65.1216 104.102L65.1648 91.6802L65.2079 79.2581L69.7971 79.2132L74.3863 79.1685L74.3433 94.704L74.3003 110.239L61.4194 110.268C54.335 110.283 48.3492 110.236 48.1177 110.164V110.164Z" fill="white"/>
<path fill-rule="evenodd" clip-rule="evenodd" d="M80.2614 94.8958C80.2614 106.357 80.3093 109.968 80.4634 110.122H80.4634C80.751 110.409 89.2008 110.409 89.4885 110.122C89.6357 109.975 89.6905 108.681 89.6905 105.355C89.6905 101.965 89.7447 100.718 89.901 100.51C90.0918 100.256 90.9358 100.226 98.9513 100.184C107.054 100.141 107.826 100.112 108.207 99.8423C108.436 99.6802 108.756 99.5476 108.918 99.5476C110.442 99.5476 113.921 95.736 113.943 94.0437C113.946 93.7833 114.057 93.3808 114.189 93.1493C114.529 92.5548 114.546 87.1056 114.21 86.4479C114.082 86.1978 113.922 85.728 113.854 85.4039C113.608 84.2326 113.028 83.2824 111.816 82.0663C110.562 80.808 109.613 80.1842 108.955 80.1842C108.754 80.1842 108.496 80.0705 108.38 79.9316C108.265 79.7927 108.047 79.6777 107.897 79.6765C107.746 79.6751 107.32 79.5648 106.949 79.4313C106.386 79.2285 104.214 79.1875 93.7122 79.1813C81.2514 79.174 81.145 79.1768 80.705 79.5229L80.2614 79.8719V94.8958ZM103.536 92.3719C103.21 92.9549 102.857 93.31 102.321 93.5926C101.569 93.99 101.544 93.9911 95.7073 93.9911C91.1222 93.9911 89.8304 93.9446 89.7661 93.777C89.7209 93.6593 89.7044 91.8218 89.7293 89.6939L89.7747 85.8248L95.5277 85.7805C102.336 85.7281 102.53 85.7622 103.455 87.1748C103.986 87.9846 104.002 88.0635 103.999 89.7798C103.995 91.3897 103.953 91.624 103.536 92.3719Z" fill="white"/>
<path d="M127.66 110.041C127.197 109.903 126.591 109.748 126.313 109.697C126.035 109.646 125.542 109.404 125.218 109.159C124.894 108.913 124.288 108.493 123.871 108.224C123.023 107.677 120.84 105.623 120.84 105.372C120.84 105.283 120.693 105.053 120.513 104.862C119.953 104.265 118.315 100.899 118.309 100.332C118.306 100.04 118.193 99.6532 118.057 99.4734C117.921 99.2936 117.807 98.8011 117.804 98.3789C117.801 97.9567 117.689 97.4219 117.557 97.1904C117.213 96.5885 117.212 93.1963 117.556 92.5372C117.694 92.2719 117.808 91.7042 117.808 91.2757C117.809 90.7896 117.904 90.4177 118.062 90.2869C118.21 90.1637 118.316 89.7907 118.318 89.3823C118.321 88.953 118.448 88.5264 118.651 88.2664C118.832 88.0349 118.982 87.7173 118.984 87.5607C118.986 87.4041 119.061 87.2311 119.15 87.1762C119.238 87.1213 119.514 86.6243 119.762 86.0718C120.01 85.5193 120.282 85.0672 120.367 85.0672C120.451 85.0672 120.624 84.8204 120.75 84.5188C121.02 83.8714 123.05 81.868 123.436 81.868C123.582 81.868 123.703 81.7955 123.703 81.7067C123.703 81.618 124.063 81.3365 124.502 81.081C124.942 80.8256 125.402 80.5193 125.525 80.4004C125.647 80.2815 125.917 80.1843 126.124 80.1843C126.331 80.1843 126.648 80.073 126.828 79.937C127.007 79.8011 127.422 79.6874 127.748 79.6845C128.075 79.6815 128.507 79.5637 128.708 79.4227C129.028 79.1987 130.354 79.1721 139.199 79.2122C148.999 79.2567 149.331 79.2687 149.562 79.585C149.929 80.0866 149.907 85.4426 149.537 85.8129C149.303 86.0467 148.24 86.0775 140.386 86.0775C130.412 86.0775 131.024 86.0041 129.686 87.3609C128.948 88.1092 127.575 90.578 127.575 91.1562C127.575 91.4532 128.006 91.4655 138.363 91.4655C145.477 91.4655 149.261 91.5249 149.476 91.6398C149.777 91.8013 149.801 92.0177 149.801 94.5744C149.801 96.8593 149.756 97.3803 149.537 97.5993C149.302 97.8344 148.061 97.8639 138.424 97.8639C127.596 97.8639 127.575 97.8645 127.575 98.2094C127.575 98.3994 127.723 98.8351 127.904 99.1775C128.084 99.52 128.277 99.9139 128.331 100.053C128.745 101.107 130.518 102.989 131.512 103.429C131.932 103.615 132.321 103.84 132.377 103.93C132.44 104.033 135.645 104.094 140.938 104.094C147.293 104.094 149.447 104.144 149.599 104.296C149.812 104.509 149.899 109.535 149.699 110.057C149.607 110.297 148.521 110.322 139.049 110.309C130.197 110.296 128.366 110.253 127.66 110.041H127.66Z" fill="white"/>
<path fill-rule="evenodd" clip-rule="evenodd" d="M154.853 94.9098C154.853 103.264 154.903 110.15 154.965 110.211H154.965C155.027 110.273 157.064 110.324 159.493 110.324C163.364 110.324 163.922 110.291 164.011 110.057C164.067 109.911 164.113 107.716 164.113 105.18C164.113 100.707 164.124 100.564 164.458 100.385C164.69 100.261 166.243 100.218 169.215 100.253C173.577 100.305 173.632 100.31 174.076 100.703C174.323 100.921 174.571 101.281 174.627 101.502C174.682 101.724 174.796 101.905 174.879 101.905C174.963 101.905 175.081 102.132 175.142 102.409C175.203 102.686 175.341 102.97 175.45 103.04C175.673 103.184 177.584 105.989 177.584 106.173C177.584 106.239 177.953 106.768 178.404 107.349C178.855 107.93 179.277 108.572 179.341 108.775C179.406 108.979 179.524 109.145 179.604 109.145C179.684 109.145 179.798 109.296 179.856 109.481C179.911 109.652 179.954 109.789 180.034 109.897C180.35 110.324 181.241 110.324 185.66 110.324C190.131 110.324 190.863 110.289 190.947 110.07C191.07 109.748 190.834 109.115 190.482 108.823C190.333 108.7 190.212 108.509 190.212 108.4C190.212 108.29 189.938 107.94 189.604 107.621C189.27 107.301 188.813 106.754 188.588 106.403C188.364 106.053 187.879 105.466 187.512 105.098C187.145 104.731 186.844 104.355 186.844 104.263C186.844 104.17 186.589 103.81 186.278 103.463C185.966 103.115 185.591 102.604 185.443 102.326C185.296 102.048 184.869 101.523 184.494 101.16C184.12 100.796 183.814 100.423 183.814 100.331C183.814 99.9888 184.385 99.5476 184.829 99.5476C185.081 99.5476 185.382 99.4339 185.497 99.295C185.613 99.1561 185.813 99.0424 185.943 99.0424C186.073 99.0424 186.79 98.4189 187.535 97.6569C188.984 96.1766 189.596 95.1212 189.784 93.7807C189.845 93.3408 189.967 92.9809 190.054 92.9809C190.263 92.9809 190.262 86.8691 190.053 86.6583C189.966 86.5703 189.819 86.1952 189.726 85.8248C189.275 84.0237 188.97 83.4775 187.631 82.0829C186.895 81.3164 186.184 80.6893 186.051 80.6893C185.919 80.6893 185.696 80.5757 185.557 80.4367C185.419 80.2978 185.152 80.1842 184.964 80.1842C184.777 80.1842 184.422 80.078 184.176 79.9483C183.931 79.8185 183.275 79.5875 182.719 79.4349C181.813 79.1861 180.352 79.1626 168.559 79.2078C157.716 79.2493 155.361 79.2986 155.131 79.4892C154.876 79.701 154.853 80.9874 154.853 94.9098ZM179.486 92.0093C179.154 92.8408 178.91 93.1193 178.069 93.6249L178.069 93.6247C177.471 93.984 177.337 93.9909 170.899 93.9909C167.29 93.9909 164.287 93.9404 164.226 93.8786C164.164 93.8169 164.113 91.9605 164.113 89.7534V85.7404L170.554 85.7416C174.465 85.7421 177.24 85.8108 177.62 85.9164C178.524 86.1673 179.198 86.8089 179.505 87.7093C179.87 88.781 179.86 91.0712 179.486 92.0093Z" fill="white"/>
<path d="M211.814 110.212C211.752 110.15 211.702 105.689 211.702 100.298C211.702 91.7909 211.735 90.4688 211.954 90.2869C212.095 90.1704 212.207 89.8034 212.207 89.4609C212.207 89.0521 212.464 88.3646 212.969 87.4189C213.389 86.6348 213.813 85.7849 213.912 85.5302C214.011 85.2755 214.159 85.0672 214.242 85.0672C214.324 85.0672 214.496 84.8209 214.624 84.5199C214.898 83.8732 216.943 81.868 217.328 81.868C217.475 81.868 217.595 81.7954 217.595 81.7067C217.595 81.618 217.955 81.3364 218.395 81.081C218.835 80.8255 219.295 80.5193 219.417 80.4004C219.54 80.2815 219.805 80.1818 220.007 80.1789C220.208 80.1759 220.52 80.0623 220.7 79.9263C220.88 79.7903 221.299 79.6791 221.631 79.6791C221.963 79.6791 222.4 79.5632 222.602 79.4215C222.925 79.1959 224.255 79.1698 233.346 79.2111C243.393 79.2566 243.728 79.2685 243.96 79.585C244.304 80.0561 244.304 85.1952 243.96 85.6664C243.73 85.9812 243.382 85.9963 234.489 86.0774C227.86 86.1379 225.13 86.2183 224.807 86.3626C224.056 86.6989 222.807 88.0848 222.312 89.1313C222.054 89.6755 221.754 90.2286 221.645 90.3605C221.536 90.4923 221.47 90.8895 221.499 91.2433L221.552 91.8864L232.713 91.9706C242.389 92.0436 243.896 92.0884 244.034 92.3074C244.122 92.4463 244.195 93.7828 244.196 95.2774C244.199 97.6197 244.158 98.0442 243.904 98.3518C243.61 98.7081 243.588 98.7089 232.581 98.7493L221.552 98.7899L221.508 104.332C221.478 108.079 221.403 109.947 221.276 110.099C221.129 110.276 220.125 110.324 216.508 110.324C213.988 110.324 211.876 110.273 211.814 110.212H211.814Z" fill="white"/>
<path fill-rule="evenodd" clip-rule="evenodd" d="M249.564 107.51C251.015 108.997 251.511 109.316 253.375 109.955H253.375C254.362 110.293 254.71 110.302 268.301 110.313C280.841 110.323 282.226 110.297 282.318 110.057C282.374 109.911 282.42 105.382 282.42 99.9923C282.42 92.0124 282.378 90.1318 282.192 89.8613C282.066 89.6786 281.912 89.2526 281.85 88.9147C281.789 88.5767 281.626 88.2075 281.49 88.0943C281.353 87.981 281.242 87.8078 281.242 87.7094C281.242 87.4069 280.039 85.1696 279.705 84.8501C279.531 84.6845 279.39 84.4506 279.39 84.3305C279.39 84.0218 277.121 81.868 276.796 81.868C276.648 81.868 276.527 81.8028 276.527 81.7231C276.527 81.4985 274.412 80.1842 274.05 80.1842C273.874 80.1842 273.582 80.073 273.402 79.937C273.222 79.801 272.848 79.687 272.57 79.6834C272.292 79.6799 271.848 79.5638 271.583 79.4255C271.17 79.2103 269.6 79.174 260.712 79.174C250.49 79.174 250.318 79.1795 249.955 79.5173C249.604 79.8443 249.587 79.9957 249.587 82.7069C249.587 85.4573 249.599 85.562 249.961 85.8153C250.289 86.0448 251.483 86.0774 259.553 86.0774C268.601 86.0774 268.783 86.084 269.408 86.4307C270.259 86.9033 271.153 87.8459 271.627 88.7715C271.84 89.1882 272.158 89.8094 272.334 90.1518C272.51 90.4943 272.654 90.9275 272.654 91.1145C272.654 91.4508 272.555 91.455 263.504 91.5021C257.307 91.5343 254.276 91.6081 254.117 91.7307C253.987 91.8302 253.539 92.0065 253.123 92.1223C252.706 92.2382 252.035 92.4892 251.633 92.6801C250.716 93.1144 248.291 95.5647 248.152 96.1963C248.096 96.4524 247.946 96.7482 247.819 96.8537C247.691 96.9592 247.536 97.457 247.473 97.9598C247.41 98.4627 247.292 98.8741 247.21 98.8741C247.001 98.8741 247.02 102.87 247.229 102.999C247.322 103.057 247.398 103.269 247.399 103.472C247.399 103.675 247.51 104.053 247.645 104.311C247.78 104.57 247.942 105.062 248.005 105.406C248.094 105.887 248.45 106.369 249.564 107.51ZM272.662 97.8638L272.616 100.937L272.616 100.937L272.57 104.01L266.424 104.047C261.341 104.078 260.206 104.042 259.858 103.842C259.626 103.709 259.315 103.598 259.167 103.595C258.762 103.586 258.088 102.89 257.866 102.251C257.459 101.085 257.706 99.5102 258.405 98.8118C259.345 97.8718 259.411 97.8638 266.296 97.8638H272.662Z" fill="white"/>
<path d="M287.575 110.06C287.518 109.912 287.472 103.068 287.472 94.8515C287.472 82.2155 287.509 79.8615 287.711 79.585C287.944 79.2655 288.358 79.2571 306.274 79.2097C324.449 79.1616 324.608 79.1641 325.693 79.5121C326.295 79.7051 327.053 80.0069 327.377 80.1828C327.701 80.3587 328.131 80.5785 328.333 80.6712C328.534 80.764 329.317 81.4548 330.073 82.2066C331.416 83.5421 332.597 85.4127 332.597 86.2037C332.597 86.3709 332.712 86.6722 332.853 86.8732C333.077 87.1932 333.103 88.6575 333.063 98.6191C333.024 108.518 332.985 110.02 332.765 110.159C332.374 110.406 324.125 110.371 323.875 110.122C323.722 109.969 323.672 107.39 323.67 99.5563C323.668 91.8252 323.615 89.0161 323.46 88.4977C323.239 87.7598 321.745 86.1686 321.011 85.8895C320.541 85.711 314.905 85.6935 314.665 85.8698C314.555 85.9503 314.496 90.1893 314.496 97.9966C314.496 108.483 314.464 110.02 314.244 110.159C314.102 110.249 312.131 110.32 309.76 110.322C306.42 110.322 305.49 110.277 305.341 110.098C305.208 109.937 305.141 106.389 305.11 97.8483L305.067 85.8252H300.942H296.817L296.732 98.0325L296.648 110.24L292.163 110.285C288.183 110.325 287.667 110.299 287.575 110.06L287.575 110.06Z" fill="white"/>
<path d="M339.043 110.212C338.981 110.15 338.93 103.264 338.93 94.9098C338.93 80.9825 338.954 79.7012 339.209 79.4893C339.428 79.3073 340.362 79.2582 343.6 79.2582C347.477 79.2582 347.727 79.2769 347.952 79.585C348.154 79.8615 348.191 82.2258 348.191 94.9158C348.191 106.361 348.143 109.968 347.989 110.122C347.77 110.341 339.257 110.426 339.043 110.212Z" fill="white"/>
<path d="M363.653 110.165C362.912 110.02 359.941 108.581 359.642 108.221C359.526 108.081 359.341 107.967 359.231 107.967C358.956 107.967 356.972 105.976 356.365 105.091C355.54 103.887 354.051 100.86 353.888 100.053C353.803 99.636 353.644 98.8404 353.533 98.2848C353.272 96.9686 353.286 92.6734 353.556 91.3813C353.672 90.8257 353.809 90.068 353.86 89.6976C353.911 89.3271 354.043 88.9104 354.153 88.7715C354.263 88.6326 354.535 88.1022 354.758 87.5928C354.98 87.0835 355.248 86.5531 355.353 86.4142C355.458 86.2753 355.642 85.9154 355.761 85.6144C355.88 85.3134 356.032 85.0672 356.098 85.0672C356.165 85.0672 356.308 84.8713 356.418 84.6318C356.825 83.7368 358.606 82.1051 360.385 80.9969C361.055 80.5794 363.094 79.6791 363.369 79.6791C363.553 79.6791 364.058 79.563 364.492 79.4211C365.172 79.199 366.638 79.1697 375.019 79.2106C384.435 79.2566 384.764 79.2689 384.995 79.585C385.359 80.0825 385.337 84.6032 384.97 84.971C384.736 85.2044 383.725 85.2356 376.392 85.2356C368.091 85.2356 368.078 85.2361 367.438 85.6119C366.691 86.0504 364.355 88.3823 364.355 88.6894C364.355 88.8045 364.245 88.9898 364.111 89.1012C363.581 89.541 363.039 91.051 362.9 92.4745C362.859 92.8905 362.753 93.3035 362.664 93.3921C362.45 93.6065 362.456 96.2996 362.672 96.4327C362.764 96.4899 362.84 96.811 362.84 97.1462C362.84 97.8017 363.079 98.6869 363.451 99.4052C363.578 99.651 363.682 99.9754 363.682 100.126C363.682 100.277 363.799 100.445 363.943 100.5C364.086 100.555 364.294 100.817 364.406 101.083C364.681 101.741 366.973 104.038 367.481 104.166C367.707 104.222 367.891 104.343 367.891 104.434C367.891 104.54 370.946 104.599 376.388 104.599C384.617 104.599 384.891 104.609 385.06 104.925C385.312 105.396 385.288 109.866 385.032 110.122C384.879 110.275 382.343 110.319 374.551 110.304C368.897 110.294 363.993 110.231 363.653 110.165H363.653Z" fill="white"/>
<path fill-rule="evenodd" clip-rule="evenodd" d="M395.842 109.389C396.093 109.592 397.3 110.062 397.947 110.208C398.132 110.25 402.264 110.293 407.13 110.304C414.536 110.321 416.136 110.282 416.956 110.069C418.038 109.787 419.913 108.834 421.289 107.867C422.288 107.164 423.961 105.479 423.961 105.175C423.961 105.066 424.072 104.885 424.207 104.773C424.587 104.457 426.487 100.5 426.487 100.023C426.487 99.79 426.619 99.3414 426.78 99.0262C427.211 98.1856 427.216 91.9565 426.787 90.7078C426.627 90.2447 426.453 89.5818 426.4 89.2345C426.347 88.8872 426.231 88.6031 426.142 88.6031C426.054 88.6031 425.98 88.5084 425.978 88.3926C425.976 88.2768 425.712 87.6896 425.392 87.0877C425.072 86.4857 424.725 85.7848 424.622 85.5302C424.518 85.2755 424.37 85.0671 424.293 85.0671C424.215 85.0671 424.099 84.8991 424.034 84.6938C423.79 83.9249 421.697 82.0009 420.018 81.002C419.241 80.5397 417.297 79.6791 417.03 79.6791C416.848 79.6791 416.345 79.5631 415.911 79.4213C415.236 79.201 413.938 79.1718 406.955 79.2202C400.825 79.2627 398.6 79.3323 398.031 79.4992C396.964 79.8124 395.97 80.2125 395.674 80.4484C395.535 80.559 395.232 80.704 395 80.7707C394.769 80.8373 394.299 81.1115 393.958 81.3799C393.616 81.6483 393.275 81.8684 393.2 81.8689C392.774 81.8719 389.78 85.3073 389.78 85.7936C389.78 85.8888 389.675 86.0863 389.546 86.2325C389.418 86.3787 389.14 86.9151 388.928 87.4244C388.717 87.9338 388.463 88.4568 388.363 88.5867C388.188 88.8131 387.943 89.7375 387.575 91.5497C387.481 92.0127 387.362 93.2972 387.311 94.404C387.218 96.3955 387.314 97.2316 387.854 99.1415C387.988 99.6126 388.097 100.143 388.098 100.32C388.099 100.725 389.681 103.899 390.44 105.02C391.045 105.913 393.067 107.966 393.341 107.966C393.431 107.966 393.784 108.186 394.126 108.455C394.468 108.723 394.937 108.997 395.168 109.064C395.4 109.13 395.703 109.277 395.842 109.389ZM415.989 101.105C415.682 101.835 413.646 103.802 412.596 104.385L411.754 104.851L407.544 104.884C403.372 104.916 402.44 104.825 401.89 104.332C401.744 104.201 401.543 104.094 401.444 104.094C401.166 104.094 399.167 102.08 398.493 101.121C397.615 99.8729 397.199 98.8535 397.078 97.658C397.019 97.0766 396.868 96.4515 396.743 96.2689C396.428 95.8094 396.442 93.8161 396.763 93.3919C396.899 93.2121 397.014 92.762 397.019 92.3916C397.029 91.6074 397.732 89.503 398.078 89.2188C398.209 89.1117 398.486 88.7386 398.694 88.3897C399.097 87.7133 400.816 85.9943 401.443 85.6415C401.955 85.3528 402.304 85.1556 402.675 85.0208C403.48 84.729 404.39 84.7304 407.301 84.7304H411.308L412.418 85.3086C413.529 85.8877 416.047 88.2313 416.047 88.686C416.047 88.8029 416.162 88.9941 416.303 89.1108C417.356 89.9849 418.136 94.4446 417.671 96.9378C417.377 98.5149 416.629 100.558 416.347 100.558C416.277 100.558 416.116 100.804 415.989 101.105Z" fill="white"/>
<path d="M432.077 110.122C431.923 109.968 431.875 106.339 431.875 94.8187V79.7178L432.29 79.4459C432.665 79.1998 434.429 79.174 450.839 79.174C466.996 79.174 469.075 79.2035 469.913 79.4447C470.431 79.5936 470.968 79.7835 471.107 79.8667C471.246 79.9499 471.473 80.0602 471.612 80.1118C473.073 80.6546 475.665 83.1655 476.517 84.8627L477.084 85.9932V98.1164V110.24H472.622H468.16L468.076 99.3792C467.982 87.2696 468.094 88.3731 466.814 86.9439C465.825 85.8404 465.421 85.7407 461.937 85.7407H458.815L458.813 97.8218C458.812 104.466 458.749 109.999 458.675 110.116C458.57 110.281 457.537 110.319 454.089 110.285L449.639 110.24L449.555 98.0323L449.47 85.825H445.429H441.388L441.304 97.9123C441.231 108.411 441.187 110.02 440.967 110.159C440.576 110.406 432.327 110.372 432.077 110.122L432.077 110.122Z" fill="white"/>
<path fill-rule="evenodd" clip-rule="evenodd" d="M481.882 83.4532C481.882 81.0407 483.839 79.0834 486.252 79.0834C488.664 79.0834 490.622 81.0407 490.622 83.4532C490.622 85.8657 488.664 87.823 486.252 87.823C483.839 87.823 481.882 85.8657 481.882 83.4532ZM486.252 86.9907C488.203 86.9907 489.786 85.4073 489.786 83.4565C489.786 81.5024 488.203 79.9222 486.252 79.9222C484.301 79.9222 482.718 81.5056 482.718 83.4565C482.718 85.4073 484.301 86.9907 486.252 86.9907Z" fill="white"/>
<path fill-rule="evenodd" clip-rule="evenodd" d="M488.427 82.3705C488.427 81.4439 487.741 80.9757 486.359 80.9757H484.46V85.817H485.641V83.8337H486.216L487.143 85.817H488.453L487.37 83.6548C488.03 83.489 488.427 83.0078 488.427 82.3705ZM486.216 83.1249H485.641V81.717H486.158C486.866 81.717 487.214 81.9349 487.214 82.4388C487.214 82.92 486.889 83.1249 486.216 83.1249Z" fill="white"/>
<path d="M0.0836182 136.203V133.088H5.78921C10.5229 133.088 11.5769 133.045 11.9771 132.837C12.2423 132.698 12.5812 132.585 12.7301 132.584C12.879 132.584 13.4982 132.324 14.1062 132.007C15.488 131.287 18.4368 128.407 18.4368 127.778C18.4368 127.557 18.5919 126.983 18.7814 126.502C19.0099 125.922 19.1092 125.338 19.0761 124.77L19.0261 123.912L10.2705 123.869C2.2773 123.83 1.4965 123.802 1.30435 123.542C1.15694 123.343 1.09388 122.464 1.09388 120.608C1.09388 118.424 1.14035 117.912 1.35848 117.694C1.59365 117.459 2.85487 117.429 12.7033 117.429C22.1308 117.429 23.8136 117.465 23.9844 117.671C24.1324 117.849 24.171 119.17 24.1313 122.688C24.0838 126.895 24.0423 127.517 23.7827 127.913C23.6207 128.16 23.4857 128.497 23.4828 128.663C23.48 128.828 23.2912 129.342 23.0634 129.805C22.8356 130.268 22.6486 130.786 22.6477 130.955C22.6469 131.125 23.2713 131.934 24.0353 132.753C26.5708 135.47 27.6975 136.788 27.6975 137.036C27.6975 137.171 27.7922 137.342 27.908 137.416C28.0238 137.49 28.3015 137.759 28.5251 138.012C28.875 138.409 28.9049 138.532 28.7392 138.896L28.5466 139.318H25.702H22.8574L21.65 138.047C20.9859 137.348 20.3608 136.597 20.261 136.378C20.0181 135.845 19.5404 135.746 19.0903 136.136C18.8877 136.312 18.6448 136.456 18.5505 136.456C18.4562 136.456 18.2565 136.567 18.1067 136.702C17.7499 137.025 15.6088 138.14 15.3451 138.14C15.2325 138.14 14.8445 138.291 14.4828 138.475C14.1212 138.659 13.5739 138.857 13.2667 138.915C12.9595 138.972 12.6667 139.087 12.6159 139.169C12.565 139.251 9.73852 139.318 6.30365 139.318H0.0836182V136.203H0.0836182Z" fill="white"/>
<path d="M27.4874 130.95C26.8735 130.853 26.8339 130.632 26.8915 127.616L26.9398 125.09L36.9394 125.047C44.1849 125.015 47.0021 125.056 47.1683 125.194C47.3435 125.339 47.3977 125.99 47.3977 127.953C47.3977 130.136 47.3559 130.556 47.1194 130.752C46.8914 130.942 45.1324 130.987 37.3956 131.003C32.2005 131.014 27.7419 130.99 27.4874 130.95L27.4874 130.95Z" fill="white"/>
<path d="M46.7579 139.116C46.4736 138.832 46.4736 133.07 46.7579 132.785C46.8825 132.661 47.5111 132.581 48.3995 132.578C49.3977 132.572 49.9394 132.497 50.166 132.325C50.3458 132.189 50.8091 132.078 51.1957 132.078C51.6435 132.078 52.0538 131.956 52.3266 131.741C52.562 131.556 52.8226 131.405 52.9056 131.405C53.3838 131.405 54.9723 129.142 54.9806 128.449C54.9839 128.176 55.0949 127.763 55.2272 127.532C55.4194 127.196 55.4691 126.176 55.4738 122.472C55.4782 119.096 55.5348 117.778 55.6819 117.631C56.0071 117.306 59.426 117.358 59.7614 117.694C60.1545 118.087 60.1539 130.766 59.7608 131.91C59.3917 132.984 58.5081 134.772 58.3465 134.772C58.2716 134.772 58.1655 134.943 58.1106 135.151C57.9923 135.6 56.5535 137.129 56.2491 137.129C56.1325 137.129 55.9022 137.279 55.7373 137.461C55.5723 137.643 54.7455 138.136 53.8998 138.555L52.3623 139.318H49.6611C47.7847 139.318 46.8982 139.257 46.7579 139.116H46.7579Z" fill="white"/>
<path d="M69.0984 138.504C67.2803 137.52 66.6983 137.155 66.1015 136.624C65.4768 136.069 63.8986 133.766 63.8986 133.409C63.8986 133.256 63.785 133.035 63.6461 132.92C63.5072 132.805 63.393 132.549 63.3925 132.352C63.3919 132.155 63.2782 131.777 63.1399 131.512C62.9295 131.108 62.8884 129.972 62.8884 124.566C62.8884 116.817 62.6944 117.429 65.1505 117.429C66.0242 117.429 66.9293 117.502 67.1616 117.59L67.5841 117.751L67.6356 122.7C67.67 126.002 67.7494 127.728 67.8742 127.885C67.9771 128.015 68.1067 128.416 68.1621 128.776C68.2175 129.136 68.4174 129.575 68.6064 129.751C68.7953 129.927 68.9499 130.175 68.9499 130.302C68.9499 130.585 69.8966 131.405 70.2243 131.405C70.3553 131.405 70.5571 131.556 70.6728 131.741C70.8382 132.006 71.0655 132.078 71.7365 132.078C72.2262 132.078 72.7292 132.183 72.9167 132.325C73.1376 132.492 73.6702 132.574 74.5596 132.578C76.6229 132.586 76.5269 132.426 76.5269 135.86C76.5269 138.298 76.4826 138.833 76.2623 139.054C76.0423 139.274 75.5387 139.316 73.2736 139.304L70.5495 139.29L69.0984 138.504L69.0984 138.504Z" fill="white"/>
<path fill-rule="evenodd" clip-rule="evenodd" d="M68.4697 123.046C68.768 123.897 70.3573 125.377 71.2347 125.621C72.6529 126.016 74.1149 125.804 75.1361 125.055C75.8182 124.555 76.6933 123.63 76.6957 123.407C76.6967 123.314 76.8035 123.035 76.9332 122.787C77.3816 121.927 77.3993 121.391 77.0158 120.283C76.6135 119.12 75.7033 118.043 74.6762 117.513C74.3528 117.346 73.5951 117.176 72.9925 117.134C71.5796 117.036 70.3529 117.497 69.3867 118.49C68.1743 119.734 67.8585 121.303 68.4697 123.046ZM74.0014 121.222C74.0014 121.344 73.7682 121.677 73.4833 121.962H73.4833C72.8623 122.583 72.5084 122.612 71.941 122.086C71.2286 121.426 71.2192 121.077 71.898 120.481C72.2278 120.192 72.5682 119.955 72.6544 119.955C72.9103 119.955 74.0014 120.981 74.0014 121.222Z" fill="white"/>
<path d="M77.0651 130.95C76.8415 130.906 76.6039 130.683 76.5042 130.423C76.3067 129.909 76.3694 125.541 76.579 125.217C76.6854 125.052 78.9006 125.006 86.7178 125.006C96.4347 125.006 96.7254 125.016 96.8947 125.332C97.173 125.852 97.1195 130.261 96.8301 130.657C96.5988 130.973 96.2868 130.984 87.0221 131.005C81.7591 131.017 77.2785 130.993 77.0651 130.95Z" fill="white"/>
<path d="M105.253 139.052C105.052 138.527 105.14 132.998 105.353 132.785C105.503 132.635 107.247 132.583 112.159 132.583C117.541 132.583 118.851 132.539 119.239 132.343C119.501 132.211 120.284 131.927 120.979 131.712C122.571 131.218 123.605 130.518 124.307 129.457L124.857 128.626L124.812 126.016L124.767 123.407L114.197 123.364L103.626 123.32L103.463 122.89C103.373 122.653 103.299 121.479 103.299 120.281C103.299 118.328 103.334 118.069 103.636 117.767C103.967 117.436 104.197 117.43 116.673 117.43C127.994 117.43 129.402 117.459 129.638 117.694C129.868 117.925 129.903 118.704 129.903 123.682C129.903 129.079 129.882 129.47 129.54 130.532C129.168 131.688 128.739 132.75 128.246 133.73C127.89 134.438 125.153 137.13 124.789 137.13C124.638 137.13 124.515 137.2 124.515 137.285C124.515 137.633 122.778 138.453 121.231 138.835C120.861 138.927 120.486 139.073 120.398 139.16C120.302 139.255 117.23 139.319 112.797 139.319C106.167 139.319 105.344 139.29 105.253 139.053L105.253 139.052Z" fill="white"/>
<path d="M133.454 139.085C133.323 138.927 133.276 138.075 133.308 136.44L133.354 134.029L133.775 133.912C134.007 133.848 135.516 133.788 137.128 133.779L140.06 133.762L140.622 133.13C141.137 132.551 141.184 132.408 141.184 131.395C141.184 129.66 140.978 129.74 145.587 129.685C149.294 129.64 149.594 129.613 149.942 129.3C150.405 128.882 150.653 128.261 150.522 127.846C150.426 127.545 150.064 127.532 141.523 127.532C136.629 127.532 132.504 127.486 132.358 127.43C131.96 127.277 131.96 122.736 132.358 122.583C132.504 122.527 137.604 122.481 143.69 122.481C152.072 122.481 154.804 122.53 154.957 122.683C155.24 122.966 155.222 129.524 154.935 130.563C154.454 132.302 153.691 133.241 152.037 134.126L151.034 134.664L147.877 134.734L144.72 134.804V135.661C144.72 137.115 143.973 138.289 142.606 138.986C142.01 139.29 141.602 139.318 137.801 139.318C134.466 139.318 133.61 139.272 133.454 139.085L133.454 139.085Z" fill="white"/>
<path d="M180.247 139.571C179.922 139.445 178.976 139.338 178.134 139.331C177.17 139.323 176.534 139.242 176.403 139.111C176.282 138.99 175.382 138.848 174.223 138.768C173.137 138.692 171.53 138.562 170.65 138.477C169.77 138.393 168.217 138.272 167.198 138.21C166.079 138.141 165.214 138.004 165.014 137.865C164.792 137.711 164.171 137.635 163.139 137.635C162.098 137.635 161.439 137.553 161.114 137.383C160.79 137.214 160.13 137.131 159.107 137.13C158.148 137.13 157.509 137.055 157.382 136.927C157.245 136.791 157.18 136.009 157.18 134.512C157.18 131.617 157.124 131.675 159.735 131.81C163.949 132.027 165.42 132.168 165.624 132.373C165.762 132.511 166.374 132.583 167.411 132.583C168.296 132.583 169.149 132.67 169.356 132.781C169.56 132.89 171.283 133.069 173.233 133.183C175.305 133.304 176.818 133.464 176.928 133.575C177.038 133.684 177.748 133.762 178.639 133.763C179.662 133.763 180.322 133.847 180.645 134.015C180.965 134.182 181.62 134.267 182.586 134.267C184.779 134.267 184.794 134.286 184.791 136.928C184.79 138.104 184.733 139.149 184.665 139.251C184.387 139.666 183.731 139.823 182.321 139.811C181.505 139.803 180.571 139.696 180.247 139.571Z" fill="white"/>
<path d="M180.247 132.415C180.016 132.341 179.097 132.272 178.205 132.263C176.985 132.251 176.532 132.184 176.374 131.994C176.215 131.802 175.783 131.741 174.575 131.741C173.666 131.741 172.827 131.656 172.617 131.541C172.407 131.427 170.745 131.256 168.745 131.144C166.605 131.023 165.167 130.872 165.049 130.755C164.935 130.64 164.259 130.563 163.37 130.563C162.429 130.563 161.661 130.47 161.279 130.31C160.909 130.156 160.141 130.057 159.301 130.057C157.206 130.057 157.179 130.023 157.182 127.396C157.183 126.22 157.24 125.175 157.308 125.073C157.581 124.666 158.233 124.501 159.568 124.504C160.356 124.504 161.262 124.612 161.641 124.749C162.032 124.89 162.955 124.994 163.839 124.999C164.825 125.005 165.437 125.08 165.572 125.217C165.696 125.34 166.524 125.478 167.584 125.551C168.576 125.619 170.182 125.75 171.155 125.842C172.127 125.935 173.773 126.058 174.811 126.116C176.114 126.188 176.76 126.294 176.895 126.455C177.037 126.627 177.547 126.691 178.794 126.695C180.026 126.701 180.59 126.769 180.827 126.948C181.059 127.124 181.602 127.195 182.709 127.195C184.814 127.195 184.793 127.169 184.793 129.817C184.793 132.579 184.784 132.59 182.394 132.566C181.445 132.557 180.479 132.489 180.247 132.415Z" fill="white"/>
<path d="M180.163 125.253C179.858 125.113 179.053 125.018 178.134 125.014C177.148 125.008 176.536 124.932 176.4 124.796C176.274 124.669 175.436 124.537 174.304 124.465C173.267 124.398 171.584 124.262 170.566 124.162C169.547 124.062 167.958 123.938 167.034 123.887C166.008 123.83 165.223 123.702 165.018 123.558C164.789 123.397 164.171 123.321 163.077 123.316C162.005 123.31 161.334 123.231 161.052 123.07C160.775 122.912 160.11 122.827 159.107 122.823C158.154 122.817 157.508 122.742 157.382 122.615C157.245 122.478 157.18 121.692 157.18 120.178C157.18 117.047 156.573 117.281 163.528 117.729C164.66 117.802 165.499 117.934 165.624 118.061C165.762 118.199 166.374 118.271 167.411 118.271C168.364 118.271 169.134 118.354 169.356 118.481C169.701 118.679 170.633 118.773 174.775 119.029C175.701 119.086 176.61 119.201 176.795 119.284C176.981 119.367 177.912 119.458 178.864 119.485C179.938 119.515 180.642 119.608 180.717 119.728C180.79 119.846 181.498 119.944 182.537 119.98C183.654 120.019 184.333 120.118 184.515 120.27C184.747 120.463 184.793 120.858 184.793 122.64C184.793 124.658 184.771 124.8 184.404 125.145C184.055 125.473 183.838 125.51 182.341 125.498C181.308 125.489 180.475 125.396 180.163 125.253Z" fill="white"/>
<path d="M187.361 139.88C187.204 139.817 187.151 139.039 187.151 136.799C187.151 134.218 187.189 133.771 187.429 133.572C187.656 133.383 189.706 133.325 198.584 133.257L209.461 133.173L209.506 128.98C209.546 125.256 209.519 124.752 209.269 124.476C209.001 124.179 208.484 124.164 198.395 124.164C191.415 124.164 187.691 124.105 187.476 123.99C187.176 123.829 187.151 123.614 187.151 121.218C187.151 118.821 187.176 118.606 187.476 118.445C187.928 118.204 213.819 118.204 214.27 118.445C214.587 118.615 214.596 118.912 214.596 129.202V139.784L214.217 139.886C213.763 140.007 187.663 140.002 187.361 139.88L187.361 139.88Z" fill="white"/>
<path d="M217.723 123.9C217.507 123.683 217.459 123.185 217.459 121.155C217.459 119.451 217.522 118.612 217.661 118.473C217.812 118.322 219.839 118.271 225.747 118.271H233.631L233.795 118.703C233.886 118.941 233.96 120.147 233.96 121.385C233.96 123.206 233.909 123.686 233.695 123.9C233.462 124.133 232.504 124.164 225.709 124.164C218.914 124.164 217.956 124.133 217.723 123.9Z" fill="white"/>
<path d="M217.669 139.885C217.412 139.776 217.371 134.498 217.623 134.099C217.761 133.881 218.902 133.839 225.887 133.798C232.312 133.759 234.066 133.703 234.354 133.523C234.554 133.399 235.062 133.254 235.483 133.201C236.547 133.067 236.905 132.842 238.29 131.443C239.217 130.507 239.528 130.071 239.612 129.591C239.673 129.246 239.827 128.795 239.956 128.59C240.141 128.295 240.19 127.224 240.19 123.446C240.19 119.96 240.244 118.621 240.392 118.473C240.627 118.238 244.181 118.191 244.539 118.418C244.72 118.533 244.752 119.86 244.707 125.47C244.657 131.768 244.625 132.409 244.357 132.705C244.195 132.884 244.062 133.155 244.062 133.307C244.062 133.935 243.248 135.11 241.859 136.487C240.655 137.68 240.126 138.069 238.982 138.604C235.991 140 236.95 139.895 226.888 139.937C221.933 139.958 217.785 139.937 217.669 139.885L217.669 139.885Z" fill="white"/>
<path fill-rule="evenodd" clip-rule="evenodd" d="M248.659 122.769C248.659 120.357 250.617 118.399 253.029 118.399C255.442 118.399 257.399 120.357 257.399 122.769C257.399 125.182 255.442 127.139 253.029 127.139C250.617 127.139 248.659 125.182 248.659 122.769ZM253.029 126.307C254.98 126.307 256.563 124.723 256.563 122.772C256.563 120.818 254.98 119.238 253.029 119.238C251.078 119.238 249.495 120.822 249.495 122.772C249.495 124.723 251.078 126.307 253.029 126.307Z" fill="white"/>
<path fill-rule="evenodd" clip-rule="evenodd" d="M255.204 121.687C255.204 120.76 254.518 120.292 253.136 120.292H251.238V125.133H252.418V123.15H252.993L253.92 125.133H255.23L254.148 122.971C254.808 122.805 255.204 122.324 255.204 121.687ZM252.993 122.441H252.418V121.033H252.935C253.644 121.033 253.992 121.251 253.992 121.755C253.992 122.236 253.666 122.441 252.993 122.441Z" fill="white"/>
<path d="M32.0227 60.3163C12.8266 60.3098 0 46.7061 0 30.2119V30.2119C0 13.7177 12.8559 -0.0420482 31.9934 0.000219212H212.841C231.978 -0.042053 244.834 13.7177 244.834 30.2119V30.2119C244.834 46.7061 232.008 60.3098 212.812 60.3163H32.0227Z" fill="#ED1C24"/>
<path d="M32.0812 7.4198C16.8843 7.44907 7.55615 17.6063 7.55615 30.1728V30.1728C7.55615 42.7361 16.8258 52.9779 32.0812 52.9227H212.753C228.008 52.9747 237.281 42.7361 237.281 30.1728V30.1728C237.281 17.6096 227.953 7.45231 212.756 7.42305L32.0812 7.4198Z" fill="white"/>
<path fill-rule="evenodd" clip-rule="evenodd" d="M217.994 20.5033C217.994 18.0907 219.952 16.1334 222.364 16.1334C224.777 16.1334 226.734 18.0907 226.734 20.5033C226.734 22.9158 224.777 24.8731 222.364 24.8731C219.952 24.8731 217.994 22.9158 217.994 20.5033ZM222.364 24.0408C224.315 24.0408 225.898 22.4573 225.898 20.5065C225.898 18.5525 224.315 16.9723 222.364 16.9723C220.413 16.9723 218.83 18.5557 218.83 20.5065C218.83 22.4573 220.413 24.0408 222.364 24.0408Z" fill="#ED1C24"/>
<path fill-rule="evenodd" clip-rule="evenodd" d="M224.539 19.4206C224.539 18.494 223.853 18.0258 222.471 18.0258H220.573V22.867H221.753V20.8837H222.328L223.255 22.867H224.565L223.483 20.7049C224.143 20.5391 224.539 20.0579 224.539 19.4206ZM222.328 20.1749H221.753V18.7671H222.27C222.979 18.7671 223.326 18.9849 223.326 19.4889C223.326 19.9701 223.001 20.1749 222.328 20.1749Z" fill="#ED1C24"/>
<path fill-rule="evenodd" clip-rule="evenodd" d="M130.09 38.8442C130.09 37.7843 130.084 37.6997 130.084 37.6997L138.589 37.6931C137.104 42.1507 132.236 45.4379 126.475 45.4379C119.53 45.4379 113.902 40.6941 113.902 34.8384C113.902 28.9827 119.53 24.2357 126.475 24.2357C133.42 24.2357 139.074 29.0868 139.074 34.9425C139.074 34.9523 122.989 34.9458 122.989 34.9458C122.989 34.9458 122.983 37.8103 122.983 38.8442C122.983 42.2971 125.295 43.0645 126.556 43.0645C127.818 43.0645 130.09 42.2971 130.09 38.8442ZM123.555 28.3033C123.012 29.2462 122.976 30.3517 122.989 32.0066L130.113 32.0099C130.126 30.3549 130.103 29.2494 129.56 28.3033C128.894 27.1399 127.669 26.5871 126.558 26.5801L126.559 26.5801H126.556L126.558 26.5801C125.446 26.5871 124.221 27.1399 123.555 28.3033Z" fill="#ED1C24"/>
<path d="M156.95 24.5513C160.143 24.4602 166.619 26.5509 166.574 34.0258C166.567 35.3523 166.571 44.3001 166.571 44.3001H158.088C158.088 44.3001 158.088 33.0796 158.088 31.8994C158.088 30.2542 156.514 28.4237 154.186 28.4237C151.861 28.4237 150.132 30.2542 150.132 31.8994C150.132 32.7057 150.141 44.3001 150.141 44.3001H141.665L141.672 25.4194L150.145 25.4129C150.145 25.4129 150.135 26.9313 150.145 27.3995C151.777 25.8421 154.131 24.6326 156.95 24.5513L156.95 24.5513Z" fill="#ED1C24"/>
<path d="M87.5592 24.5513C90.7521 24.4602 97.2288 26.5509 97.1833 34.0258C97.1768 35.3523 97.1799 44.3001 97.1799 44.3001H88.6971C88.6971 44.3001 88.6971 33.0796 88.6971 31.8994C88.6971 30.2542 87.1234 28.4237 84.7955 28.4237C82.4707 28.4237 80.741 30.2542 80.741 31.8994C80.741 32.7057 80.7508 44.3001 80.7508 44.3001H72.2745L72.2711 25.4194L80.7539 25.4129C80.7539 25.4129 80.7442 26.9313 80.7539 27.3995C82.3861 25.8421 84.7369 24.6326 87.559 24.5513L87.5592 24.5513Z" fill="#ED1C24"/>
<path fill-rule="evenodd" clip-rule="evenodd" d="M193.404 15.9124H184.977C184.977 15.9124 184.977 21.9892 184.983 26.359C183.618 25.5917 182.177 24.8536 180.152 24.6748C173.997 24.1351 169.295 29.5778 169.295 34.5622C169.295 41.1332 174.364 43.5652 175.135 43.9229C178.006 45.2624 181.693 45.2657 184.96 43.2141C184.96 43.3896 184.964 44.3065 184.964 44.3065H193.404V15.9124ZM185.038 31.3954V34.7703C185.038 34.7703 185.042 36.9064 185.042 38.1192C185.042 41.0357 183.023 41.7997 181.693 41.7997C180.337 41.7997 178.347 41.0357 178.347 38.1192C178.347 37.1145 178.351 34.7605 178.351 34.7605C178.351 34.7605 178.347 32.3643 178.347 31.3954C178.347 28.4756 180.337 27.7311 181.696 27.7311C183.023 27.7311 185.038 28.4756 185.038 31.3954Z" fill="#ED1C24"/>
<path fill-rule="evenodd" clip-rule="evenodd" d="M196.184 34.7378C196.184 28.8821 201.77 24.1351 208.663 24.1351C215.556 24.1351 221.142 28.8821 221.142 34.7378C221.142 40.5935 215.556 45.3405 208.663 45.3405C201.773 45.3405 196.184 40.5935 196.184 34.7378ZM212.09 38.7142C212.09 37.5697 212.093 34.715 212.093 34.715L212.096 34.7248C212.088 34.1089 212.089 32.5948 212.09 31.435C212.09 31.1682 212.09 30.9201 212.09 30.7061C212.09 27.7083 210.305 26.4761 208.601 26.4761C206.901 26.4761 205.112 27.7083 205.112 30.7061C205.112 31.8506 205.106 34.6435 205.106 34.6435C205.106 34.6435 205.103 37.5697 205.103 38.7142C205.103 41.725 206.888 42.967 208.601 42.967C210.311 42.967 212.09 41.725 212.09 38.7142Z" fill="#ED1C24"/>
<path d="M59.0123 21.7096V15.9059H67.5699V21.7096H59.0123Z" fill="#ED1C24"/>
<path d="M59.0317 44.3065V25.4226L67.5698 25.426V44.3066L59.0317 44.3065Z" fill="#ED1C24"/>
<path d="M101.868 44.3066L101.872 25.4617H97.2289V22.659L101.875 22.6556L101.869 18.832H110.413V22.6524H115.037V25.4616H110.413L110.42 44.3065L101.868 44.3066Z" fill="#ED1C24"/>
<path d="M24.2844 44.3065L24.2877 15.9124H33.1346L45.3728 35.7132L45.3663 15.9124H54.145V44.3065H45.3793L33.0761 24.5057V44.3065H24.2844Z" fill="#ED1C24"/>
</svg>
