<svg width="120" height="81" viewBox="0 0 120 81" fill="none" xmlns="http://www.w3.org/2000/svg">
<path fill-rule="evenodd" clip-rule="evenodd" d="M41.5 24.9771C45.366 24.9771 48.5 21.8431 48.5 17.9771C48.5 14.1111 45.366 10.9771 41.5 10.9771C37.634 10.9771 34.5 14.1111 34.5 17.9771C34.5 21.8431 37.634 24.9771 41.5 24.9771ZM50.5 17.9771C50.5 22.9477 46.4706 26.9771 41.5 26.9771C36.5294 26.9771 32.5 22.9477 32.5 17.9771C32.5 13.0066 36.5294 8.97714 41.5 8.97714C46.4706 8.97714 50.5 13.0066 50.5 17.9771Z" fill="white"/>
<path d="M39.7856 12.7486C39.7856 12.3225 40.131 11.9771 40.5571 11.9771H42.4428C42.8688 11.9771 43.2142 12.3225 43.2142 12.7486V23.2057C43.2142 23.6318 42.8688 23.9771 42.4428 23.9771H40.5571C40.131 23.9771 39.7856 23.6318 39.7856 23.2057V12.7486Z" fill="white"/>
<path fill-rule="evenodd" clip-rule="evenodd" d="M36.2714 19.6914C35.8454 19.6914 35.5 19.346 35.5 18.92V17.0343C35.5 16.6082 35.8454 16.2629 36.2714 16.2629H46.7286C47.1546 16.2629 47.5 16.6082 47.5 17.0343V18.92C47.5 19.346 47.1546 19.6914 46.7286 19.6914H36.2714Z" fill="white"/>
<path fill-rule="evenodd" clip-rule="evenodd" d="M51.3269 27.9771H68.6731L69.2402 28.4777C71.7093 30.657 74.9481 31.9771 78.5 31.9771C86.232 31.9771 92.5 25.7091 92.5 17.9771C92.5 10.2452 86.232 3.97714 78.5 3.97714C78.2946 3.97714 78.0904 3.98155 77.8874 3.99027L77.7449 3.99639L77.6029 3.98222C77.5697 3.9789 77.5353 3.97714 77.5 3.97714H42.5C42.4647 3.97714 42.4303 3.9789 42.3971 3.98222L42.2551 3.99639L42.1126 3.99027C41.9096 3.98155 41.7054 3.97714 41.5 3.97714C33.768 3.97714 27.5 10.2452 27.5 17.9771C27.5 25.7091 33.768 31.9771 41.5 31.9771C45.0519 31.9771 48.2907 30.657 50.7598 28.4777L51.3269 27.9771ZM77.8016 1.99211C77.7024 1.98221 77.6018 1.97714 77.5 1.97714H42.5C42.3982 1.97714 42.2976 1.98221 42.1984 1.99211C41.9669 1.98217 41.734 1.97714 41.5 1.97714C32.6634 1.97714 25.5 9.14059 25.5 17.9771C25.5 26.8137 32.6634 33.9771 41.5 33.9771C45.5578 33.9771 49.2628 32.4666 52.0833 29.9771H67.9167C70.7372 32.4666 74.4422 33.9771 78.5 33.9771C87.3366 33.9771 94.5 26.8137 94.5 17.9771C94.5 9.14059 87.3366 1.97714 78.5 1.97714C78.266 1.97714 78.0331 1.98217 77.8016 1.99211Z" fill="white"/>
<path fill-rule="evenodd" clip-rule="evenodd" d="M78.5 15.9771C79.6046 15.9771 80.5 15.0817 80.5 13.9771C80.5 12.8726 79.6046 11.9771 78.5 11.9771C77.3954 11.9771 76.5 12.8726 76.5 13.9771C76.5 15.0817 77.3954 15.9771 78.5 15.9771Z" fill="black"/>
<path fill-rule="evenodd" clip-rule="evenodd" d="M80.5 13.9771C80.5 15.0817 79.6046 15.9771 78.5 15.9771C77.3954 15.9771 76.5 15.0817 76.5 13.9771C76.5 12.8726 77.3954 11.9771 78.5 11.9771C79.6046 11.9771 80.5 12.8726 80.5 13.9771Z" fill="white"/>
<path fill-rule="evenodd" clip-rule="evenodd" d="M74.5 19.9771C75.6046 19.9771 76.5 19.0817 76.5 17.9771C76.5 16.8726 75.6046 15.9771 74.5 15.9771C73.3954 15.9771 72.5 16.8726 72.5 17.9771C72.5 19.0817 73.3954 19.9771 74.5 19.9771Z" fill="black"/>
<path fill-rule="evenodd" clip-rule="evenodd" d="M76.5 17.9771C76.5 19.0817 75.6046 19.9771 74.5 19.9771C73.3954 19.9771 72.5 19.0817 72.5 17.9771C72.5 16.8726 73.3954 15.9771 74.5 15.9771C75.6046 15.9771 76.5 16.8726 76.5 17.9771Z" fill="white"/>
<path fill-rule="evenodd" clip-rule="evenodd" d="M82.5 19.9771C83.6046 19.9771 84.5 19.0817 84.5 17.9771C84.5 16.8726 83.6046 15.9771 82.5 15.9771C81.3954 15.9771 80.5 16.8726 80.5 17.9771C80.5 19.0817 81.3954 19.9771 82.5 19.9771Z" fill="black"/>
<path fill-rule="evenodd" clip-rule="evenodd" d="M84.5 17.9771C84.5 19.0817 83.6046 19.9771 82.5 19.9771C81.3954 19.9771 80.5 19.0817 80.5 17.9771C80.5 16.8726 81.3954 15.9771 82.5 15.9771C83.6046 15.9771 84.5 16.8726 84.5 17.9771Z" fill="white"/>
<path fill-rule="evenodd" clip-rule="evenodd" d="M78.5 23.9771C79.6046 23.9771 80.5 23.0817 80.5 21.9771C80.5 20.8726 79.6046 19.9771 78.5 19.9771C77.3954 19.9771 76.5 20.8726 76.5 21.9771C76.5 23.0817 77.3954 23.9771 78.5 23.9771Z" fill="black"/>
<path fill-rule="evenodd" clip-rule="evenodd" d="M80.5 21.9771C80.5 23.0817 79.6046 23.9771 78.5 23.9771C77.3954 23.9771 76.5 23.0817 76.5 21.9771C76.5 20.8726 77.3954 19.9771 78.5 19.9771C79.6046 19.9771 80.5 20.8726 80.5 21.9771Z" fill="white"/>
<path fill-rule="evenodd" clip-rule="evenodd" d="M78.5 26.9771C83.4706 26.9771 87.5 22.9477 87.5 17.9771C87.5 13.0066 83.4706 8.97714 78.5 8.97714C73.5294 8.97714 69.5 13.0066 69.5 17.9771C69.5 22.9477 73.5294 26.9771 78.5 26.9771ZM89.5 17.9771C89.5 24.0523 84.5751 28.9771 78.5 28.9771C72.4249 28.9771 67.5 24.0523 67.5 17.9771C67.5 11.902 72.4249 6.97714 78.5 6.97714C84.5751 6.97714 89.5 11.902 89.5 17.9771Z" fill="white"/>
<path fill-rule="evenodd" clip-rule="evenodd" d="M54.201 19.8611C53.7227 20.1373 53.5588 20.7488 53.835 21.2271C54.1111 21.7054 54.7227 21.8693 55.201 21.5932L57.7991 20.0932C58.2774 19.817 58.4412 19.2054 58.1651 18.7271C57.8889 18.2488 57.2774 18.085 56.7991 18.3611L54.201 19.8611Z" fill="white"/>
<path fill-rule="evenodd" clip-rule="evenodd" d="M60.201 19.8611C59.7227 20.1373 59.5588 20.7488 59.835 21.2271C60.1111 21.7054 60.7227 21.8693 61.201 21.5932L63.7991 20.0932C64.2774 19.817 64.4412 19.2054 64.1651 18.7271C63.8889 18.2488 63.2774 18.085 62.7991 18.3611L60.201 19.8611Z" fill="white"/>
<path fill-rule="evenodd" clip-rule="evenodd" d="M39.9766 3.27149L32.7976 5.41936L32.8452 4.02813C32.8738 3.19114 33.3834 2.41584 34.1993 2.09639C37.1396 0.945146 40.2868 0.405419 43.4481 0.513559L46.8337 0.629371C47.3603 0.647386 47.8112 1.01233 47.9385 1.52363L48.446 3.56121L39.9766 3.27149Z" fill="white"/>
<path fill-rule="evenodd" clip-rule="evenodd" d="M76.5517 0.513559C79.7129 0.405419 82.8601 0.945146 85.8004 2.09639C86.6163 2.41584 87.1259 3.19113 87.1545 4.02813L87.2021 5.41936L80.0231 3.27149L71.5537 3.56121L72.0612 1.52363C72.1886 1.01233 72.6394 0.647386 73.1661 0.629371L76.5517 0.513559Z" fill="white"/>
</svg>
