<?xml version="1.0" encoding="UTF-8"?>
<svg width="492px" height="141px" viewBox="0 0 492 141" version="1.1" xmlns="http://www.w3.org/2000/svg" xmlns:xlink="http://www.w3.org/1999/xlink">
    <title>syslogo</title>
    <g id="Page-1" stroke="none" stroke-width="1" fill="none" fill-rule="evenodd">
        <g id="syslogo" fill="#FFFFFF">
            <g id="Group-2">
                <g id="Group-8" transform="translate(0.000000, 78.540000)">
                    <g id="Group-5" transform="translate(0.627000, 0.543400)">
                        <path d="M1.97260486,31.1281712 C1.76122367,30.9167506 1.84450834,25.4304 2.06240615,25.2124999 C2.21519692,25.0597115 4.80019408,25.0104518 12.665001,25.0104518 C22.771935,25.0104518 23.0839637,25.0008282 23.7180211,24.6703616 C24.0768839,24.4833109 24.5209641,24.1612844 24.7048642,23.9547533 C25.066736,23.5483499 25.4331978,22.4491957 25.4331978,21.7702108 C25.4331978,20.8485675 24.50395,19.2856149 23.9559922,19.2856149 C23.8240668,19.2856149 23.4773674,19.1741543 23.185549,19.0379174 C22.7482663,18.8337712 21.3197484,18.7819591 15.0615642,18.7432555 C9.77022507,18.7104993 7.39656666,18.6390634 7.23201182,18.5075188 C7.10213129,18.4036913 6.5791315,18.2191152 6.06978948,18.0973615 C5.56044745,17.9756019 5.02409284,17.776417 4.87788934,17.6547231 C4.73168603,17.5330292 4.52079206,17.4334637 4.40923608,17.4334637 C4.29768028,17.4334637 3.56891753,16.7930988 2.78976362,16.0104241 C1.68638118,14.9020647 1.31787095,14.4087259 1.12327089,13.7794253 C0.800155003,12.7345279 0.513463477,11.9238729 0.233062089,11.2622405 C-0.0919083599,10.4954417 -0.071834045,7.60328269 0.260767338,7.27068222 C0.399678707,7.13176744 0.513333528,6.782233 0.513333528,6.49393702 C0.513333528,5.49708602 1.41603241,3.94498836 2.8079966,2.54850035 C3.5280455,1.82611363 4.27237729,1.16716506 4.46206763,1.08417483 C4.65175779,1.00117864 4.92061365,0.86550361 5.05952508,0.782674779 C5.1984365,0.699839969 5.73548485,0.510236841 6.2529663,0.361327853 C7.08341665,0.122357378 8.82735836,0.090587497 21.112277,0.090587497 L35.0307133,0.090587497 L35.0307133,2.9193263 C35.0307133,4.89495263 34.9697779,5.80900469 34.8286604,5.95011915 C34.6757113,6.10306886 32.0040879,6.1521732 23.8355386,6.1521732 C13.8212944,6.1521732 13.0021485,6.17375161 12.4565762,6.45189797 C11.2985865,7.04227381 10.7364455,7.96230326 10.7364455,9.26715773 C10.7364455,10.4588062 11.4737028,11.8770101 12.093188,11.8770101 C12.2251128,11.8770101 12.5718115,11.9888532 12.86363,12.1255504 C13.3018416,12.3308263 14.7132749,12.3821243 20.9711954,12.4202123 C26.3069843,12.4526696 28.6477897,12.5237289 28.8849359,12.6603902 C29.070151,12.7671227 29.5626553,12.9466898 29.9793895,13.0594235 C31.2599189,13.4058378 31.8464632,13.7679128 33.1100438,14.9919887 C34.4001801,16.2417973 35.0290516,17.1274208 35.0300839,17.6959433 C35.0304204,17.8866104 35.1419587,18.1896885 35.2779254,18.3694528 C35.4138903,18.5492171 35.5275446,18.8953863 35.5304915,19.1387143 C35.5334204,19.3820483 35.6495009,19.6754609 35.7884121,19.790747 C36.1469246,20.08829 36.1512821,23.4532315 35.7937918,23.9259063 C35.6578268,24.1056707 35.5441719,24.4992765 35.5412257,24.8005853 C35.5382968,25.1019 35.3843315,25.6311629 35.1991164,25.9767403 C35.0139007,26.3223118 34.862361,26.6945962 34.862361,26.8040424 C34.862361,27.1229008 32.3020708,29.7549293 31.7473783,30.006273 C31.4695553,30.1321571 31.1285907,30.2986874 30.9896795,30.3763936 C30.8507683,30.4540401 30.230408,30.6802249 29.6111021,30.8789734 C28.4988933,31.2360035 28.3233012,31.2404268 15.2849875,31.2404268 C8.02492888,31.2404268 2.03436832,31.1896189 1.97263002,31.1281712 L1.97260486,31.1281712 Z" id="path4173" fill-rule="nonzero"></path>
                        <path d="M47.490646,31.0810693 C46.7346741,30.8449023 44.7966067,29.8724988 44.7966067,29.7292863 C44.7966067,29.6524588 44.5882394,29.5117508 44.3335686,29.4166264 C43.8140118,29.2225582 42.4393222,28.0161814 42.4393222,27.7543055 C42.4393222,27.6609326 42.19177,27.2516181 41.8892066,26.8447186 C41.2482984,25.9828014 40.5871698,24.6756935 40.5871698,24.2704795 C40.5871698,24.1153003 40.4729854,23.8140692 40.3334262,23.6010765 C40.1125051,23.2639093 40.0852804,21.7237485 40.1229548,11.694293 L40.1662252,0.174773199 L44.5812745,0.129882925 L48.9963244,0.0849926506 L49.0432769,10.6534662 L49.0902293,21.2219398 L49.5561312,22.1480124 C50.1274696,23.2836706 51.0699323,24.1356354 52.2437299,24.5775505 C53.0526502,24.8820931 53.63469,24.9164572 58.8129403,24.9654001 L64.4945965,25.0190772 L64.5377533,12.5969043 L64.5809101,0.174731357 L69.1700769,0.129900857 L73.7592377,0.0849926506 L73.7162602,15.6206557 L73.6732827,31.1561455 L60.7924041,31.1842393 C53.7079836,31.1997805 47.7221651,31.1531568 47.490646,31.0809498 L47.490646,31.0810693 Z" id="path4175" fill-rule="nonzero"></path>
                        <path d="M79.8363885,31.0383309 C79.6822553,30.8842336 79.6343345,27.2731667 79.6343345,15.8124227 L79.6343345,0.788538608 L80.0779831,0.439560064 C80.5180094,0.0934387168 80.6243533,0.090647271 93.0851462,0.0979755634 C103.586834,0.104132285 105.759183,0.145197023 106.322164,0.348004228 C106.69259,0.48145566 107.118994,0.59178651 107.269714,0.593179244 C107.42044,0.594374724 107.638083,0.709373922 107.753369,0.848282721 C107.868655,0.987197497 108.127106,1.10085178 108.327707,1.10085178 C108.986459,1.10085178 109.934749,1.72462336 111.189065,2.98300952 C112.401174,4.19905775 112.981317,5.14923721 113.22685,6.32055058 C113.294795,6.64467509 113.454912,7.11447482 113.582673,7.36455131 C113.918687,8.02226854 113.902201,13.4714816 113.56241,14.0659161 C113.430064,14.2974327 113.319094,14.699915 113.315812,14.9603204 C113.294473,16.6526419 109.814538,20.4642565 108.290797,20.4642565 C108.129043,20.4642565 107.809353,20.5968532 107.580383,20.7589184 C107.198774,21.0290132 106.427086,21.0574657 98.3242477,21.1001802 C90.3087993,21.1424404 89.4648024,21.1729132 89.273962,21.4270244 C89.1176529,21.6351455 89.0634917,22.8818817 89.0634917,26.2717848 C89.0634917,29.5974667 89.008679,30.8911673 88.8614377,31.0383309 C88.5738231,31.3259634 80.1240151,31.3259634 79.8364065,31.0383309 L79.8363885,31.0383309 Z M101.694383,14.5092778 C102.229851,14.2266723 102.583014,13.8716087 102.908585,13.2885432 C103.326184,12.5406629 103.368044,12.3063189 103.371624,10.6964378 C103.37521,8.98020666 103.358952,8.90123326 102.828326,8.09145097 C101.902702,6.67887778 101.708891,6.64479464 94.9006679,6.69720449 L89.1476595,6.74149702 L89.102291,10.6105365 C89.0773653,12.7385089 89.0939227,14.5759258 89.1391118,14.6936925 C89.2034107,14.861251 90.4952225,14.9078089 95.0802768,14.9078089 C100.917041,14.9078089 100.942152,14.9066135 101.694378,14.5092837 L101.694383,14.5092778 Z" id="path4177" fill-rule="nonzero"></path>
                        <path d="M127.032588,30.9580544 C126.569549,30.8192592 125.963393,30.6642055 125.685569,30.6133976 C125.407745,30.5625897 124.915244,30.3204452 124.591119,30.0752522 C124.266989,29.8300593 123.660832,29.4094237 123.244094,29.1404885 C122.395937,28.593138 120.213301,26.539381 120.213301,26.288647 C120.213301,26.199524 120.066012,25.9698245 119.885991,25.778201 C119.325795,25.1818956 117.687993,21.8155554 117.682285,21.2487006 C117.679296,20.9561667 117.565684,20.5697457 117.429722,20.3899814 C117.293754,20.210217 117.179824,19.7177151 117.176543,19.2955254 C117.173554,18.8733416 117.062291,18.3384899 116.929939,18.1069732 C116.58588,17.5050968 116.585121,14.1129223 116.928744,13.4537466 C117.067085,13.1884875 117.180739,12.6208318 117.181307,12.1922821 C117.181905,11.70617 117.27734,11.3342742 117.43491,11.2035006 C117.583323,11.0803303 117.689021,10.7072748 117.691221,10.2988988 C117.693612,9.86963781 117.820859,9.44296502 118.024234,9.18296605 C118.205331,8.95144939 118.355185,8.63390002 118.357247,8.47729811 C118.35904,8.32070219 118.433656,8.14766841 118.522474,8.09277795 C118.611286,8.03790542 118.886826,7.54090852 119.134787,6.98838755 C119.382747,6.4358606 119.65491,5.98379582 119.739592,5.98379582 C119.82428,5.98379582 119.996674,5.73703081 120.122696,5.43542316 C120.393215,4.78797511 122.422961,2.78462559 122.808419,2.78462559 C122.955344,2.78462559 123.075555,2.712048 123.075555,2.62334338 C123.075555,2.53463876 123.435466,2.25306138 123.875349,1.99761719 C124.315238,1.74216703 124.775271,1.43589103 124.89764,1.31700652 C125.020015,1.19812201 125.289674,1.10085178 125.496874,1.10085178 C125.704081,1.10085178 126.020692,0.989606389 126.20045,0.853638471 C126.380215,0.717670554 126.794574,0.60401627 127.121245,0.601069412 C127.447922,0.598080712 127.879944,0.480325932 128.081299,0.339289179 C128.401138,0.115268182 129.726817,0.0886687516 138.571803,0.128818947 C148.371482,0.173290803 148.703867,0.185245603 148.935133,0.501617431 C149.301768,1.00315118 149.2797,6.35923631 148.90949,6.72947049 C148.675636,6.96332431 147.612567,6.9940601 139.758789,6.9940601 C129.785247,6.9940601 130.396639,6.92072338 129.059058,8.27750352 C128.321304,9.02583814 126.948259,11.494606 126.948259,12.072758 C126.948259,12.3697929 127.378674,12.3821423 137.735481,12.3821423 C144.849394,12.3821423 148.633615,12.4414978 148.848394,12.5564432 C149.150062,12.7178868 149.174085,12.9343404 149.174085,15.4910179 C149.174085,17.7758611 149.128478,18.2968692 148.90949,18.5158931 C148.674428,18.7509544 147.434183,18.7804827 137.796576,18.7804827 C126.969078,18.7804827 126.948259,18.7810805 126.948259,19.1259764 C126.948259,19.315992 127.096038,19.7516727 127.276663,20.0941419 C127.457288,20.436617 127.649689,20.8304799 127.704215,20.9693887 C128.118096,22.0237841 129.891363,23.9058522 130.885082,24.3454182 C131.305168,24.5312436 131.694374,24.7568964 131.749976,24.8468683 C131.813235,24.9492133 135.017803,25.0104518 140.310527,25.0104518 C146.665597,25.0104518 148.820241,25.0607217 148.972031,25.2124999 C149.185084,25.4255523 149.272192,30.4520675 149.071878,30.9740739 C148.980101,31.2132296 147.893636,31.2388727 138.422004,31.2253638 C129.570287,31.2128112 127.738967,31.1697739 127.032445,30.9580544 L127.032588,30.9580544 Z" id="path4179" fill-rule="nonzero"></path>
                        <path d="M154.3378,31.1281712 C154.276065,31.0664247 154.22555,24.1806452 154.22555,15.8264337 C154.22555,1.90402904 154.248742,0.617674629 154.503935,0.405859483 C154.733474,0.215317903 157.089352,0.165944579 167.932039,0.124431536 C179.724714,0.0793021658 181.186015,0.102733574 182.092021,0.351566758 C182.647669,0.504181735 183.303401,0.73519629 183.54921,0.864947712 C183.795013,0.994693157 184.149508,1.10085178 184.336971,1.10085178 C184.524441,1.10085178 184.791469,1.21450606 184.930384,1.35341486 C185.069293,1.49232964 185.291574,1.60598392 185.424338,1.60598392 C185.557102,1.60598392 186.267767,2.23308491 187.003597,2.99953703 C188.342481,4.39415411 188.648368,4.94042272 189.098897,6.74149702 C189.191559,7.11192247 189.3388,7.48698639 189.426094,7.57496177 C189.635273,7.78577271 189.635913,13.8975387 189.426692,13.8975387 C189.339756,13.8975387 189.218296,14.2574439 189.156776,14.6973327 C188.969289,16.0378484 188.357066,17.093254 186.908246,18.5735631 C186.162398,19.3356218 185.445875,19.9591244 185.315974,19.9591244 C185.186073,19.9591244 184.985472,20.0727787 184.870185,20.2116934 C184.754899,20.3506022 184.454284,20.4642565 184.202151,20.4642565 C183.758377,20.4642565 183.186412,20.9054245 183.186412,21.2477143 C183.186412,21.3399098 183.492819,21.7127919 183.867321,22.0763434 C184.241829,22.4399008 184.668885,22.9646627 184.816347,23.2424863 C184.963803,23.5203099 185.339322,24.0319753 185.650828,24.3795193 C185.962334,24.7270632 186.217204,25.0869745 186.217204,25.1793133 C186.217204,25.2716522 186.517706,25.6477084 186.884988,26.0149837 C187.252263,26.3822651 187.73651,26.9694849 187.961081,27.3199099 C188.185652,27.670341 188.642845,28.2181697 188.977072,28.537315 C189.311298,28.8564544 189.584752,29.2070827 189.584752,29.3164871 C189.584752,29.4258974 189.706303,29.6162836 189.854859,29.7395674 C190.206904,30.0317368 190.443023,30.6650423 190.319715,30.9863873 C190.235733,31.2052199 189.503555,31.2404268 185.032573,31.2404268 C179.487381,31.2404268 179.497196,31.2404268 179.229223,30.3975536 C179.170585,30.212852 179.057086,30.0617433 178.976959,30.0617433 C178.896832,30.0617433 178.77848,29.8953923 178.713954,29.6921069 C178.649422,29.4888035 178.227579,28.8469324 177.77653,28.2657319 C177.325475,27.6845373 176.956431,27.1553103 176.956431,27.0896844 C176.956431,26.9058973 175.046066,24.1011279 174.822774,23.9570845 C174.714254,23.8870831 174.575632,23.6029414 174.514734,23.3256738 C174.453837,23.0484001 174.335705,22.8215399 174.252219,22.8215399 C174.168739,22.8215399 174.054983,22.6404605 173.999435,22.4191353 C173.943905,22.1978161 173.696189,21.8379109 173.449,21.6193472 C173.004646,21.2264527 172.949636,21.221366 168.587521,21.1697272 C165.61585,21.1345203 164.062976,21.1777369 163.830861,21.3019353 C163.496491,21.4808808 163.486234,21.6235972 163.486234,26.0970594 C163.486234,28.6329355 163.440268,30.8275678 163.384033,30.9740739 C163.294431,31.2075511 162.73732,31.2404268 158.865901,31.2404268 C156.43714,31.2404268 154.399462,31.1896189 154.337722,31.1281712 L154.3378,31.1281712 Z M177.441766,14.5415916 C178.282786,14.0360171 178.527046,13.7574942 178.858666,12.9259601 C179.232792,11.9878431 179.242989,9.6976979 178.877794,8.62595605 C178.571016,7.72562213 177.896556,7.08393629 176.993359,6.8330947 C176.613131,6.72749197 173.837435,6.65881762 169.926733,6.65824379 L163.486294,6.65704831 L163.486294,10.6700475 C163.486294,12.8771965 163.536803,14.7335558 163.598544,14.7952963 C163.660284,14.8570309 166.663192,14.9075459 170.271677,14.9075459 C176.709492,14.9075459 176.843978,14.9006719 177.441748,14.5413346 L177.441766,14.5415916 Z" id="path4181" fill-rule="nonzero"></path>
                        <path d="M211.187028,31.1281712 C211.125287,31.0664247 211.074778,26.6052819 211.074778,21.2145099 C211.074778,12.7075639 211.108132,11.3854287 211.327341,11.2035006 C211.467673,11.0870369 211.57991,10.7199887 211.57991,10.3775375 C211.57991,9.96870126 211.836544,9.28120462 212.342172,8.33553212 C212.761421,7.55141679 213.185566,6.70150224 213.284719,6.44683511 C213.383878,6.192162 213.532344,5.98379582 213.614653,5.98379582 C213.696956,5.98379582 213.86883,5.73754487 213.996597,5.43657083 C214.271151,4.78980419 216.315882,2.78462559 216.700851,2.78462559 C216.847775,2.78462559 216.967987,2.712048 216.967987,2.62334338 C216.967987,2.53463876 217.327892,2.25306138 217.767781,1.99761719 C218.207669,1.74216703 218.667696,1.43589103 218.790071,1.31700652 C218.912447,1.19812201 219.17764,1.09843691 219.379395,1.09549603 C219.581144,1.09250733 219.893296,0.978894888 220.073061,0.842926971 C220.252819,0.70696503 220.671637,0.595719639 221.003766,0.595719639 C221.335888,0.595719639 221.773087,0.47982383 221.975314,0.338177382 C222.29746,0.112542487 223.628083,0.0864690684 232.718394,0.127707151 C242.765871,0.173254939 243.101335,0.185090191 243.332708,0.501617431 C243.677126,0.972780008 243.677156,6.11180184 243.332744,6.58303017 C243.102638,6.89785983 242.754544,6.91296472 233.861512,6.9940601 C227.232713,7.05450955 224.502499,7.13494144 224.179995,7.27927772 C223.428635,7.61556027 222.179622,9.00141448 221.684669,10.0479855 C221.427306,10.5921859 221.127229,11.1452867 221.017836,11.2770943 C220.908444,11.408908 220.84277,11.8061779 220.871898,12.1599145 L220.924858,12.8030827 L232.086057,12.8872744 C241.761698,12.9602585 243.268493,13.005077 243.406864,13.2240292 C243.494648,13.362938 243.567632,14.6994607 243.569048,16.1940737 C243.571439,18.5363777 243.530972,18.9608328 243.276969,19.2684836 C242.982869,19.6247307 242.961201,19.6254958 231.953579,19.6659867 L220.924858,19.7065733 L220.880446,25.2485914 C220.85038,28.9957099 220.77556,30.8634322 220.64936,31.0154973 C220.502011,31.193026 219.497808,31.2404268 215.880996,31.2404268 C213.361062,31.2404268 211.248786,31.1896189 211.187046,31.1281712 L211.187028,31.1281712 Z" id="path4183" fill-rule="nonzero"></path>
                        <path d="M252.748201,30.8716212 C250.88422,30.2323383 250.387636,29.9138027 248.936837,28.426757 C247.82329,27.2853665 247.466708,26.8039707 247.378159,26.3224851 C247.315007,25.9791193 247.152984,25.4866174 247.01811,25.2280351 C246.88323,24.9694528 246.772409,24.5918724 246.771835,24.3889695 C246.771267,24.1860727 246.695031,23.9732294 246.602423,23.9159958 C246.393226,23.7867047 246.374434,19.790747 246.582997,19.790747 C246.664935,19.790747 246.783377,19.3793166 246.846206,18.8764559 C246.909034,18.3735951 247.064435,17.875857 247.191538,17.7703679 C247.318642,17.6648787 247.468662,17.3690273 247.524916,17.1129136 C247.663639,16.4813117 250.089125,14.0310379 251.005532,13.596726 C251.408337,13.4058198 252.078876,13.1548288 252.495608,13.0389689 C252.91234,12.9231089 253.359605,12.7468653 253.489518,12.6473177 C253.649473,12.524757 256.679896,12.4509541 262.876564,12.418706 C271.928171,12.3716041 272.027396,12.3674199 272.027396,12.0311194 C272.027396,11.8441404 271.883388,11.4109522 271.707384,11.0684771 C271.531379,10.726002 271.21285,10.1048365 270.99954,9.68809819 C270.52576,8.7624978 269.632413,7.8199455 268.781004,7.34737226 C268.156246,7.0005934 267.973972,6.9940601 258.926298,6.9940601 C250.855642,6.9940601 249.661537,6.9614235 249.333904,6.73194513 C248.972289,6.47866476 248.959683,6.37394072 248.959683,3.62352379 C248.959683,0.912300675 248.977197,0.760917043 249.328184,0.433899466 C249.690785,0.0960926824 249.863275,0.090587497 260.085095,0.090587497 C268.972711,0.090587497 270.543178,0.126930089 270.955786,0.342116489 C271.221045,0.480451457 271.665381,0.59652061 271.943204,0.600035322 C272.221028,0.603621762 272.595416,0.717670554 272.775181,0.853638471 C272.954945,0.989606389 273.246624,1.10085178 273.423364,1.10085178 C273.784823,1.10085178 275.900076,2.4151087 275.900076,2.63969157 C275.900076,2.71940618 276.0211,2.78462559 276.169017,2.78462559 C276.494116,2.78462559 278.762491,4.93847408 278.762491,5.24716495 C278.762491,5.36727483 278.904347,5.60109278 279.077727,5.7667624 C279.412067,6.08624845 280.614648,8.32353548 280.614648,8.62606962 C280.614648,8.72446958 280.726294,8.89764084 280.862758,9.01089464 C280.999216,9.12414246 281.161509,9.49333059 281.223399,9.83130474 C281.285295,10.1692729 281.438842,10.5952583 281.564613,10.7779217 C281.750839,11.048393 281.79329,12.9290684 281.79329,20.9088974 C281.79329,26.2982587 281.747324,30.8275678 281.691083,30.9740739 C281.598983,31.2140665 280.213744,31.2392911 267.673661,31.2292491 C254.083062,31.2184898 253.734872,31.2101214 252.748177,30.8716212 L252.748201,30.8716212 Z M271.989123,21.8533744 L272.035029,18.7804827 L265.668488,18.7804827 C258.783988,18.7804827 258.717639,18.7884327 257.777663,19.7284326 C257.079222,20.4268739 256.832367,22.0020323 257.238687,23.1676014 C257.461405,23.8064899 258.135177,24.5023489 258.539728,24.5112851 C258.688266,24.5142738 258.999222,24.6260512 259.230745,24.7590244 C259.578929,24.9590103 260.713989,24.9943606 265.797463,24.9635292 L271.94324,24.92629 L271.989147,21.8534043 L271.989123,21.8533744 Z" id="path4185" fill-rule="nonzero"></path>
                        <path d="M286.947883,30.9767637 C286.891098,30.8288231 286.844635,23.9849033 286.844635,15.7681003 C286.844635,3.13209185 286.881456,0.778060226 287.0836,0.501617431 C287.317239,0.182065627 287.731395,0.173691289 305.647217,0.126290507 C323.822225,0.0782322112 323.980805,0.0806829452 325.066319,0.428675218 C325.668267,0.6216496 326.425968,0.923478413 326.750093,1.09940525 C327.074223,1.27533209 327.504201,1.49512706 327.705604,1.58783654 C327.907012,1.68054601 328.690147,2.37143781 329.445918,3.12315564 C330.788645,4.45868014 331.969797,6.32930747 331.969797,7.12030279 C331.969797,7.28747871 332.085012,7.58875163 332.225827,7.78980148 C332.449938,8.10975974 332.476179,9.57412113 332.436298,19.5356854 C332.396667,29.4347678 332.357868,30.9367749 332.138175,31.0756299 C331.747301,31.3226758 323.49755,31.2880667 323.247844,31.03857 C323.095128,30.8858474 323.045169,28.3061152 323.043232,20.4729118 C323.041439,12.7418323 322.987821,9.93274122 322.832696,9.41429143 C322.611867,8.67639335 321.117822,7.08517361 320.383773,6.80608283 C319.914332,6.62760364 314.277536,6.61012572 314.037597,6.78641718 C313.928079,6.86688494 313.86922,11.1058717 313.86922,18.9131989 C313.86922,29.3994055 313.837301,30.9364163 313.616651,31.075869 C313.475112,31.1652909 311.504178,31.2366013 309.13317,31.2380956 C305.792993,31.2380956 304.862707,31.1932651 304.714395,31.0143018 C304.580938,30.8534499 304.514009,27.3059168 304.483303,18.7648458 L304.440087,6.74174807 L300.314838,6.74174807 L296.189589,6.74174807 L296.105403,18.9491112 L296.021212,31.1564443 L291.536171,31.2012748 C287.556293,31.2413234 287.039505,31.2156206 286.947889,30.9770028 L286.947883,30.9767637 Z" id="path4187" fill-rule="nonzero"></path>
                        <path d="M338.41561,31.1281712 C338.35387,31.0664247 338.303355,24.1806452 338.303355,15.8264337 C338.303355,1.89904987 338.326487,0.617752335 338.581961,0.405859483 C338.801332,0.223907427 339.735026,0.174773199 342.973432,0.174773199 C346.850403,0.174773199 347.099989,0.193542235 347.325206,0.501617431 C347.527272,0.778054248 347.564117,3.14240286 347.564117,15.8323872 C347.564117,27.2776019 347.516178,30.8842336 347.362063,31.0383309 C347.143057,31.2573429 338.630265,31.3428197 338.41561,31.1281712 L338.41561,31.1281712 Z" id="path4189" fill-rule="nonzero"></path>
                        <path d="M363.026473,31.081428 C362.285006,30.937014 359.313838,29.4972377 359.01547,29.137721 C358.899257,28.9977004 358.714293,28.8831315 358.60444,28.8831315 C358.329037,28.8831315 356.345354,26.8929383 355.738277,26.0075598 C354.912708,24.8035261 353.424455,21.7771207 353.260728,20.9693887 C353.176256,20.5526563 353.016832,19.7570703 352.906454,19.2014292 C352.644996,17.8852117 352.659007,13.5900433 352.928989,12.2979506 C353.045082,11.7423034 353.181779,10.9846082 353.232754,10.6141768 C353.283741,10.2437453 353.415656,9.82701297 353.525916,9.68809819 C353.636181,9.54918939 353.908403,9.01880274 354.130852,8.50945653 C354.353301,8.0001163 354.62125,7.46972964 354.726291,7.33081486 C354.831332,7.19190606 355.014719,6.83199486 355.133812,6.53102081 C355.252906,6.23004677 355.404762,5.98379582 355.471272,5.98379582 C355.537777,5.98379582 355.681462,5.78787458 355.790567,5.54840798 C356.198363,4.65339992 357.979204,3.02175502 359.757845,1.9135092 C360.427846,1.4960416 362.466618,0.595719639 362.741967,0.595719639 C362.925556,0.595719639 363.43097,0.479602666 363.865108,0.337681258 C364.544493,0.115584984 366.010797,0.0862718142 374.391895,0.127211027 C383.807526,0.173177233 384.137245,0.185550451 384.36826,0.501617431 C384.731937,0.999140342 384.710382,5.51977623 384.342557,5.88757761 C384.109163,6.12097715 383.097727,6.1521732 375.764928,6.1521732 C367.463688,6.1521732 367.450986,6.15270519 366.810854,6.52854019 C366.064044,6.96700639 363.728345,9.29891565 363.728345,9.60604044 C363.728345,9.72110539 363.618481,9.90642273 363.484198,10.0178654 C362.954308,10.4576346 362.411984,11.9676693 362.272705,13.3911094 C362.231999,13.8071365 362.126133,14.2200792 362.03744,14.3087659 C361.823043,14.5231692 361.829355,17.2162629 362.044553,17.349278 C362.137161,17.4064817 362.212931,17.7276235 362.212931,18.06286 C362.212931,18.7182879 362.452296,19.6035647 362.823719,20.3218569 C362.950823,20.5676655 363.054824,20.892071 363.054824,21.0427493 C363.054824,21.1934276 363.172142,21.3617332 363.315528,21.4167552 C363.45892,21.4717473 363.667286,21.7341014 363.778567,21.9996952 C364.054167,22.6574483 366.346387,24.9548739 366.854232,25.082336 C367.079748,25.138942 367.264258,25.2595719 367.264258,25.3504104 C367.264258,25.4562044 370.318907,25.5155839 375.761395,25.5155839 C383.989938,25.5155839 384.264044,25.5258651 384.432833,25.8412685 C384.684859,26.3121801 384.660991,30.7824384 384.405098,31.0383309 C384.251933,31.1915317 381.716117,31.2357047 373.923602,31.22106 C368.269908,31.2103007 363.366198,31.147538 363.026467,31.081428 L363.026473,31.081428 Z" id="path4191" fill-rule="nonzero"></path>
                        <path d="M397.319659,31.1249434 C396.672965,30.9781983 395.4655,30.5081953 395.214939,30.3057408 C395.07603,30.1934254 394.772952,30.0470987 394.54143,29.9804507 C394.309913,29.9138027 393.840795,29.6396313 393.498947,29.3711982 C393.157094,29.1027591 392.804033,28.8831315 392.714366,28.8831315 C392.439854,28.8831315 390.418112,26.8295898 389.813384,25.9365244 C389.054362,24.8155945 387.472443,21.6418282 387.470847,21.2367578 C387.470249,21.0596773 387.360552,20.5292906 387.227292,20.0581161 C386.68715,18.1482173 386.591183,17.3121523 386.683516,15.3206441 C386.734802,14.2138089 386.853722,12.9293673 386.947723,12.466328 C387.315614,10.6541297 387.561393,9.72971285 387.735508,9.50339653 C387.835468,9.37346579 388.090058,8.85042536 388.301269,8.34107915 C388.512475,7.83173892 388.790597,7.29538084 388.91932,7.14917961 C389.048038,7.00297838 389.153354,6.8054552 389.153354,6.71024119 C389.153354,6.22398568 392.146632,2.7885109 392.572869,2.78556404 C392.647754,2.785044 392.988716,2.56499798 393.33057,2.29655892 C393.672417,2.02812584 394.141536,1.75396641 394.373052,1.68732438 C394.604575,1.62067637 394.907653,1.4756766 395.046562,1.3650947 C395.342927,1.12916672 396.336527,0.729063478 397.403845,0.415853695 C397.972607,0.248952733 400.197927,0.179387751 406.327852,0.136888437 C413.310932,0.0884714974 414.60853,0.117641209 415.283498,0.33799806 C415.71763,0.479740147 416.221298,0.595719639 416.402748,0.595719639 C416.66992,0.595719639 418.613806,1.45635167 419.390755,1.91862585 C421.069753,2.91759883 423.162506,4.84153261 423.406563,5.6104773 C423.471729,5.81580099 423.5883,5.98379582 423.665606,5.98379582 C423.742918,5.98379582 423.890906,6.192162 423.994482,6.44683511 C424.098053,6.70150224 424.44479,7.4023763 424.765011,8.00432439 C425.085232,8.60627247 425.348866,9.19349225 425.350868,9.30925058 C425.352661,9.42500891 425.426841,9.51972081 425.515253,9.51972081 C425.603664,9.51972081 425.719674,9.8038625 425.773052,10.1511375 C425.82643,10.4984184 426.000342,11.1614018 426.159527,11.6244411 C426.588835,12.8731857 426.584215,19.1022282 426.15337,19.9429017 C425.991825,20.258102 425.859652,20.706664 425.859652,20.9396989 C425.859652,21.4164683 423.960208,25.3738598 423.57986,25.6895143 C423.444633,25.801746 423.333992,25.982658 423.333992,26.0915423 C423.333992,26.3959175 421.661378,28.0810003 420.662016,28.7834345 C419.285738,29.7508049 417.41101,30.703477 416.329053,30.9852516 C415.509019,31.1988839 413.908821,31.2372588 406.50296,31.2208807 C401.637363,31.2101214 397.504881,31.1670841 397.319665,31.1249434 L397.319659,31.1249434 Z M411.968498,25.3012702 C413.019336,24.7185156 415.054695,22.7517836 415.362441,22.0217518 C415.489324,21.7207777 415.649996,21.4745208 415.719501,21.4745208 C416.002394,21.4745208 416.749742,19.4315172 417.043776,17.8544101 C417.508585,15.3612904 416.729192,10.9015821 415.675908,10.0274352 C415.53529,9.91073243 415.420237,9.71957518 415.420237,9.60265126 C415.420237,9.14800424 412.901522,6.80435536 411.790616,6.22530669 L410.681199,5.64704093 L406.673776,5.64704093 C402.419804,5.64704093 402.437575,5.64405236 400.815548,6.55819407 C400.189445,6.91096826 398.470225,8.62998482 398.067032,9.3063874 C397.85909,9.65524042 397.582055,10.0283438 397.451407,10.1355066 C397.104963,10.4196722 396.402147,12.5240158 396.391782,13.3082149 C396.387,13.6786463 396.27163,14.1288043 396.135662,14.3085686 C395.814795,14.7327907 395.801209,16.7260862 396.116056,17.1855271 C396.241235,17.3681964 396.39183,17.993301 396.450713,18.574645 C396.571809,19.7701788 396.98832,20.7895825 397.865731,22.0378848 C398.539832,22.9969347 400.53895,25.0104518 400.817036,25.0104518 C400.916267,25.0104518 401.117078,25.1176505 401.263285,25.2486691 C401.813015,25.7413145 402.744467,25.8321948 406.917188,25.8003114 L411.126623,25.768153 L411.96851,25.3012762 L411.968498,25.3012702 Z" id="path4193" fill-rule="nonzero"></path>
                        <path d="M431.449771,31.0383309 C431.295619,30.8842336 431.247717,27.2560474 431.247717,15.73538 L431.247717,0.634447213 L431.662739,0.362517355 C432.038288,0.116445729 433.802254,0.090587497 450.211556,0.090587497 C466.369245,0.090587497 468.44788,0.120115853 469.286228,0.361327853 C469.80371,0.510236841 470.340755,0.700144817 470.479664,0.783344247 C470.618579,0.866543678 470.845888,0.97684464 470.984802,1.02846547 C472.445631,1.57128512 475.037928,4.08216969 475.889666,5.77929103 L476.457064,6.9098744 L476.457064,19.0330518 L476.457064,31.1562053 L471.995067,31.1562053 L467.533063,31.1562053 L467.448871,20.2958791 C467.354996,8.18622264 467.466983,9.28973437 466.186773,7.86054401 C465.198243,6.75699044 464.794206,6.65730534 461.309801,6.65730534 L458.188109,6.65730534 L458.185719,18.7383899 C458.184523,25.3829873 458.122209,30.9154356 458.047736,31.0327719 C457.942821,31.1981068 456.910123,31.2360035 453.46203,31.2011553 L449.011725,31.1563248 L448.927539,18.9489796 L448.843347,6.74161657 L444.80229,6.74161657 L440.761233,6.74161657 L440.677041,18.8288997 C440.603914,29.3278262 440.559663,30.9371335 440.340286,31.0757494 C439.9494,31.3227954 431.699644,31.2881862 431.449956,31.0386896 L431.449771,31.0383309 Z" id="path4195" fill-rule="nonzero"></path>
                        <g id="Group-23" transform="translate(481.254968, 0.000000)">
                            <path d="M4.36983333,3.05530143e-13 C6.78235026,3.05530143e-13 8.73967144,1.95732118 8.73967144,4.36983333 C8.73967144,6.78234548 6.78235026,8.73966665 4.36983333,8.73966665 C1.95732118,8.73966665 -7.35937351e-12,6.78234548 -7.35937351e-12,4.36983333 C-7.35937351e-12,1.95732118 1.95732118,3.05530143e-13 4.36983333,3.05530143e-13 Z M4.36983333,0.838849201 C2.41901556,0.838849201 0.835602277,2.42226727 0.835602277,4.37308503 C0.835602277,6.3239028 2.41901556,7.90732086 4.36983333,7.90732086 C6.32065588,7.90732086 7.90406916,6.3239028 7.90406916,4.37308503 C7.90406916,2.41901556 6.32065588,0.838849201 4.36983333,0.838849201 Z" id="Combined-Shape"></path>
                            <path d="M4.47713005,1.89229185 C5.85896149,1.89229185 6.54499966,2.36048964 6.54499966,3.28713011 C6.54499966,3.92439747 6.14832982,4.40559731 5.4883053,4.57141995 L6.57100852,6.73357467 L5.26070982,6.73357467 L4.33406935,4.75024463 L3.75857961,4.75024463 L3.75857961,6.73357467 L2.57833479,6.73357467 L2.57833479,1.89229185 L4.47713005,1.89229185 Z M4.27554343,2.63360422 L3.75857961,2.63360422 L3.75857961,4.04144453 L4.33406935,4.04144453 C5.00710069,4.04144453 5.33223778,3.83661098 5.33223778,3.35540637 C5.33223778,2.85144459 4.98434353,2.63360422 4.27554343,2.63360422 Z" id="Combined-Shape"></path>
                        </g>
                    </g>
                    <g id="Group-7" transform="translate(0.083600, 38.581400)">
                        <path d="M-3.28771748e-12,19.0819533 L-3.28771748e-12,15.9669508 L5.70558707,15.9669508 C10.4392774,15.9669508 11.4933267,15.9239135 11.8934587,15.7154218 C12.1587154,15.5771048 12.49757,15.4634744 12.6464688,15.4628767 C12.7953676,15.4622789 13.4145982,15.2025609 14.0225368,14.8856989 C15.4043862,14.1654222 18.3531434,11.2855707 18.3531434,10.65627 C18.3531434,10.4353453 18.5082324,9.86115627 18.6977871,9.38021467 C18.9262332,8.80064596 19.0255788,8.21665398 18.9924473,7.64814347 L18.9424642,6.79038657 L10.1868357,6.74794703 C2.19368208,6.70909393 1.41287972,6.68076105 1.22073662,6.4211028 C1.07332312,6.22193583 1.01026483,5.34283961 1.01026483,3.48685691 C1.01026483,1.30247585 1.05673613,0.790571319 1.27485797,0.572455993 C1.51003608,0.337305077 2.77125164,0.307836495 12.61972,0.307836495 C22.0471999,0.307836495 23.7299396,0.343700895 23.9007833,0.549801647 C24.0487455,0.728107489 24.0873965,2.0481565 24.0476827,5.56687256 C24.0002042,9.77352759 23.9587085,10.3954761 23.6991279,10.7912995 C23.5370645,11.0384052 23.4020984,11.3758294 23.3992023,11.5411643 C23.3963332,11.7064394 23.2075734,12.2205556 22.9797974,12.6836248 C22.7520215,13.1466342 22.5649659,13.6643368 22.5641189,13.8339754 C22.5632821,14.0036738 23.1876813,14.8124758 23.951694,15.6313198 C26.4871977,18.3488252 27.6139041,19.6666028 27.6139041,19.9144856 C27.6139041,20.0493357 27.7086166,20.2204687 27.8243755,20.2947677 C27.9401351,20.3690668 28.2178337,20.6372728 28.4414823,20.8907743 C28.7914095,21.2874346 28.8212648,21.4106288 28.6555647,21.7743536 L28.4630111,22.1969557 L25.6183904,22.1969557 L22.773769,22.1969557 L21.5663396,20.9258019 C20.9022523,20.2267449 20.2772248,19.4754455 20.1773885,19.256314 C19.9344741,18.7231897 19.4567687,18.624742 19.0067207,19.0150662 C18.8041293,19.190742 18.5612191,19.3344984 18.4669214,19.3344984 C18.3726232,19.3344984 18.17288,19.445439 18.0230463,19.5810662 C17.6662511,19.9039653 15.525147,21.0182722 15.2615275,21.0182722 C15.1489265,21.0182722 14.7608898,21.1691418 14.3992236,21.3535446 C14.0375574,21.5379474 13.4903103,21.7359787 13.1831192,21.7936008 C12.8759281,21.8509838 12.5830701,21.9655108 12.5323238,22.0476403 C12.4813724,22.1300686 9.65490385,22.1969557 6.2200286,22.1969557 L-3.28771748e-12,22.1969557 L-3.28771748e-12,19.0819533 L-3.28771748e-12,19.0819533 Z" id="path4197" fill-rule="nonzero"></path>
                        <path d="M27.4038433,13.828536 C26.7898795,13.732001 26.7503079,13.5105981 26.8079408,10.4947009 L26.8562083,7.9690103 L36.8557948,7.92537528 C44.101339,7.89369506 46.9185468,7.93434138 47.0847251,8.07224 C47.2599269,8.21767014 47.3140702,8.86902742 47.3140702,10.8312285 C47.3140702,13.0145934 47.27233,13.4345058 47.0357577,13.6309231 C46.8077898,13.8202274 45.0487689,13.8655361 37.3119583,13.8815555 C32.1169413,13.8923148 27.6582911,13.8684052 27.4038463,13.8283567 L27.4038433,13.828536 Z" id="path4199" fill-rule="nonzero"></path>
                        <path d="M46.6742332,21.9948599 C46.3899887,21.7106345 46.3899887,15.948122 46.6742332,15.6638966 C46.7989199,15.5392081 47.4275171,15.4597684 48.3159135,15.4564809 C49.3140981,15.4505035 49.8557623,15.3753078 50.0823835,15.2039357 C50.2621466,15.0679499 50.7254901,14.9567104 51.1120348,14.9567104 C51.559888,14.9567104 51.9701504,14.8345324 52.2429589,14.6199437 C52.4784219,14.4347639 52.7389713,14.283177 52.8219574,14.283177 C53.3001404,14.283177 54.8886853,12.020492 54.8970196,11.327532 C54.9003071,11.0546637 55.011271,10.6420438 55.1436196,10.4105391 C55.3357691,10.0743701 55.385455,9.05492456 55.390219,5.35078955 C55.3945825,1.97421607 55.451167,0.656976429 55.5982385,0.509932389 C55.9234844,0.184642281 59.3424108,0.237064079 59.6777841,0.572455993 C60.0708526,0.965529817 60.0702429,13.6442527 59.6771266,14.7883271 C59.3080228,15.8624061 58.4244483,17.6507246 58.2628564,17.6507246 C58.1880021,17.6507246 58.0818548,17.8212001 58.0269739,18.0295722 C57.9086357,18.4788934 56.4698385,20.0080319 56.165425,20.0080319 C56.0488861,20.0080319 55.8185786,20.157168 55.6536305,20.3394189 C55.4886829,20.5216698 54.6618316,21.0142076 53.8161843,21.4338809 L52.2786434,22.1969557 L49.5774773,22.1969557 C47.7010734,22.1969557 46.8146172,22.135269 46.6742583,21.9948599 L46.6742332,21.9948599 Z" id="path4201" fill-rule="nonzero"></path>
                        <path d="M69.0148541,21.3830132 C67.1967622,20.398655 66.6147009,20.0334956 66.0179352,19.5028818 C65.3932551,18.9474618 63.8150601,16.64425 63.8150601,16.2880568 C63.8150601,16.1341387 63.7014058,15.9138715 63.562491,15.7985675 C63.4235822,15.6833232 63.3094617,15.4277893 63.3088879,15.2307742 C63.30832,15.0336994 63.1946657,14.6555093 63.0563248,14.3902323 C62.8459502,13.9868773 62.8047958,12.850454 62.8047958,7.44467277 C62.8047958,-0.304069943 62.6108351,0.307836495 65.0669309,0.307836495 C65.9406713,0.307836495 66.8456796,0.380163035 67.078063,0.468509007 L67.5005695,0.629121745 L67.5520349,5.57846872 C67.586405,8.88026493 67.6658147,10.6063587 67.7906348,10.7638034 C67.8935477,10.8936326 68.0230779,11.2944172 68.0784825,11.6544958 C68.133893,12.0145146 68.333825,12.4531362 68.5227886,12.6292304 C68.7117521,12.8052649 68.8663576,13.0532672 68.8663576,13.1803467 C68.8663576,13.4639743 69.8129745,14.283177 70.1406855,14.283177 C70.2717041,14.283177 70.473543,14.4347639 70.5892116,14.6199437 C70.7545764,14.8847426 70.981873,14.9567104 71.6529079,14.9567104 C72.1426004,14.9567104 72.6455926,15.0620322 72.8331455,15.2039357 C73.0540224,15.371004 73.5866267,15.4528346 74.4759801,15.4564809 C76.539277,15.4648492 76.4433457,15.3048342 76.4433457,18.7390896 C76.4433457,21.177032 76.3989934,21.7120691 76.1787501,21.9323362 C75.9587459,22.1523643 75.4551141,22.1945648 73.1900501,22.1827893 L70.4659457,22.1684435 L69.0148302,21.3827741 L69.0148541,21.3830132 Z" id="path4203" fill-rule="nonzero"></path>
                        <path d="M71.1510394,8.49992297 C70.2736408,8.2556864 68.6843517,6.77550284 68.3859838,5.92467973 C67.7748784,4.1820883 68.0906704,2.61296103 69.3030306,1.36816748 C70.2692115,0.376158177 71.4959234,-0.0849384591 72.9087835,0.0128518049 C73.5114728,0.0546936049 74.269174,0.225109279 74.5925633,0.391878739 C75.6196241,0.921536153 76.5298506,1.99908205 76.9321715,3.16162658 C77.3156695,4.26977676 77.2979704,4.80553112 76.8494801,5.66520079 C76.7198662,5.91362154 76.6130022,6.19264657 76.612004,6.28523649 C76.609613,6.50861193 75.7345097,7.43349503 75.0524226,7.93368387 C74.0312078,8.68253254 72.5692672,8.89467046 71.1510394,8.49992297 L71.1510394,8.49992297 Z M73.3996237,4.84109665 C73.6845724,4.556154 73.9177089,4.22303349 73.9177089,4.10085544 C73.9177089,3.86002599 72.8266541,2.83352709 72.5706898,2.83352709 C72.4845256,2.83352709 72.1441545,3.07047123 71.8143037,3.36007626 C71.1355639,3.95602304 71.1448887,4.30432613 71.8572812,4.96452996 C72.4246918,5.49042162 72.7786735,5.46208874 73.3996357,4.84109665 L73.3996237,4.84109665 Z" id="path4205" fill-rule="nonzero"></path>
                        <path d="M76.9815269,13.8290739 C76.7578944,13.7848412 76.5203645,13.5616451 76.4206674,13.3021064 C76.2231084,12.7878706 76.2858113,8.41916829 76.4954029,8.09531276 C76.6018604,7.93081471 78.817043,7.88484851 86.6342209,7.88484851 C96.351166,7.88484851 96.6417932,7.89441235 96.811121,8.21055703 C97.0894287,8.73059083 97.035931,13.1394613 96.7465053,13.5354043 C96.5151919,13.8518478 96.2032433,13.8629658 86.9385244,13.884066 C81.6755313,13.8960208 77.1948842,13.8715135 76.9815269,13.8290739 Z" id="path4207" fill-rule="nonzero"></path>
                        <path d="M105.169744,21.9306028 C104.968293,21.4056078 105.056382,15.8771105 105.26959,15.6638966 C105.419874,15.5136248 107.163613,15.4618605 112.075237,15.4618605 C117.457007,15.4618605 118.76702,15.4176278 119.155509,15.2218081 C119.417684,15.0897674 120.200466,14.8056018 120.895022,14.5903556 C122.487503,14.0968615 123.52133,13.396609 124.223382,12.336039 L124.773518,11.5049413 L124.728508,8.89508888 L124.683498,6.28523649 L114.11316,6.24219921 L103.542827,6.19916193 L103.3791,5.76849026 C103.289045,5.53166568 103.215367,4.35776409 103.215367,3.15989313 C103.215367,1.20647881 103.250096,0.947238973 103.552122,0.645200951 C103.882923,0.314411635 104.113382,0.308494009 116.589351,0.308494009 C127.910732,0.308494009 129.318553,0.337185529 129.554416,0.573053733 C129.784575,0.803243407 129.819011,1.58245727 129.819011,6.56097396 C129.819011,11.9571914 129.798329,12.3487111 129.456799,13.4103571 C129.084903,14.5665058 128.655044,15.6286898 128.162542,16.6085649 C127.806564,17.3168271 125.069387,20.0086296 124.705178,20.0086296 C124.554344,20.0086296 124.430929,20.0782065 124.430929,20.1632649 C124.430929,20.5113289 122.694004,21.331488 121.147567,21.713683 C120.777136,21.805197 120.402078,21.9515237 120.314102,22.0387937 C120.218793,22.1333562 117.146594,22.1975535 112.713037,22.1975535 C106.083043,22.1975535 105.260786,22.1682642 105.169726,21.9312005 L105.169744,21.9306028 Z" id="path4209" fill-rule="nonzero"></path>
                        <path d="M133.37083,21.9634785 C133.239507,21.8052567 133.192184,20.9533577 133.22393,19.3189572 L133.270792,16.9077936 L133.691739,16.7909354 C133.923255,16.7266186 135.431957,16.6664859 137.044403,16.6572807 L139.976126,16.640544 L140.538103,16.0091513 C141.053809,15.4297021 141.100092,15.2867825 141.100212,14.2733143 C141.100421,12.5387326 140.894625,12.6187102 145.502938,12.5632399 C149.210528,12.5184094 149.510288,12.4921089 149.857982,12.1785345 C150.321786,11.760236 150.569693,11.1392439 150.438238,10.7250699 C150.342426,10.4232112 149.980787,10.4105989 141.439525,10.4105989 C136.54514,10.4105989 132.420788,10.3645729 132.2743,10.3083853 C131.876056,10.1555432 131.876056,5.61427334 132.2743,5.46143123 C132.420788,5.40524367 137.520096,5.35927746 143.606105,5.35927746 C151.988076,5.35927746 154.720567,5.40829214 154.873624,5.56131358 C155.156881,5.84458257 155.138369,12.4030456 154.851388,13.4413798 C154.37059,15.1808629 153.607384,16.1194941 151.953843,17.0049263 L150.950429,17.5422348 L147.793352,17.6122899 L144.636274,17.6823451 L144.636274,18.5395042 C144.636274,19.9935666 143.889751,21.167767 142.52202,21.8650905 C141.926313,22.1688022 141.518331,22.1970155 137.717811,22.1970155 C134.38275,22.1970155 133.526428,22.1509895 133.37086,21.9635383 L133.37083,21.9634785 Z" id="path4211" fill-rule="nonzero"></path>
                        <path d="M180.163603,22.4495009 C179.837966,22.324095 178.892467,22.2168007 178.050467,22.2097474 C177.086085,22.201379 176.450711,22.120983 176.319806,21.9900779 C176.198285,21.8685574 175.298758,21.7267137 174.139316,21.6462579 C173.053814,21.5708829 171.445858,21.4401571 170.566086,21.3556367 C169.686315,21.271176 168.133033,21.1507912 167.114347,21.0882078 C165.995455,21.0194079 165.130711,20.8830635 164.930074,20.7437303 C164.707894,20.5895133 164.087194,20.5131819 163.055071,20.5131819 C162.013939,20.5131819 161.355361,20.4313513 161.029916,20.2616529 C160.706311,20.0928512 160.046257,20.0097653 159.023811,20.009048 C158.064432,20.009048 157.425155,19.9331948 157.297944,19.8059957 C157.161289,19.6692926 157.095798,18.8875682 157.095798,17.3905882 C157.095798,14.495554 157.040479,14.5540728 159.651163,14.6885643 C163.864895,14.9056037 165.336232,15.0461921 165.540731,15.2513365 C165.678725,15.3898329 166.290016,15.4618605 167.327471,15.4618605 C168.212557,15.4618605 169.065813,15.548473 169.27223,15.6593538 C169.476603,15.7690989 171.199033,15.9478829 173.148945,16.0616926 C175.220975,16.1826752 176.734434,16.3431086 176.844831,16.4535112 C176.954134,16.5628378 177.664685,16.6409027 178.555599,16.6415004 C179.578045,16.6415004 180.238099,16.7253036 180.561698,16.8941053 C180.881238,17.0607552 181.536217,17.1456343 182.502667,17.1456343 C184.695213,17.1456343 184.710402,17.1641643 184.707395,19.8071315 C184.70602,20.9825872 184.648996,22.0277356 184.580931,22.1296502 C184.303718,22.5447807 183.647794,22.7014483 182.237294,22.6892544 C181.420889,22.6820815 180.487727,22.574309 180.163603,22.4495009 Z" id="path4213" fill-rule="nonzero"></path>
                        <path d="M180.163603,15.2934772 C179.932086,15.2192976 179.013181,15.1510955 178.121598,15.1418903 C176.90161,15.1293378 176.448673,15.0625702 176.290923,14.8724889 C176.131679,14.6806143 175.699226,14.6199437 174.491271,14.6199437 C173.582055,14.6199437 172.743755,14.5342876 172.533452,14.4198802 C172.323561,14.3057118 170.661438,14.1351168 168.661711,14.0225026 C166.521676,13.9019982 165.083041,13.7504711 164.965824,13.6332543 C164.851154,13.518548 164.175325,13.44132 163.286773,13.44132 C162.345786,13.44132 161.577649,13.3485508 161.195167,13.1887151 C160.82553,13.0343188 160.057207,12.9361699 159.217508,12.9361699 C157.122513,12.9361699 157.095298,12.9020987 157.098316,10.2746728 C157.099662,9.09915732 157.156746,8.0540687 157.224751,7.95215403 C157.497009,7.54443558 158.149472,7.37981798 159.484202,7.38224178 C160.272926,7.38224178 161.178502,7.49075853 161.557893,7.62740189 C161.948654,7.76822943 162.871122,7.87319258 163.755222,7.87743653 C164.741152,7.88341393 165.353076,7.95914759 165.488799,8.09531276 C165.612179,8.21910472 166.440808,8.35670446 167.500911,8.42932987 C168.492197,8.49729291 170.098839,8.62861639 171.071218,8.72108677 C172.043598,8.81361692 173.689039,8.93663181 174.727743,8.9943735 C176.030261,9.06687936 176.676717,9.17226092 176.810987,9.33406914 C176.953351,9.50556074 177.463916,9.57005689 178.710915,9.57400197 C179.942864,9.57997937 180.506885,9.64794241 180.74301,9.82654712 C180.975615,10.002462 181.518309,10.0737724 182.625234,10.0737724 C184.730683,10.0737724 184.709796,10.0474718 184.709796,12.6956394 C184.709796,15.4576763 184.700527,15.4683161 182.310416,15.445064 C181.361187,15.4360979 180.39512,15.3675969 180.163603,15.2934772 L180.163603,15.2934772 Z" id="path4215" fill-rule="nonzero"></path>
                        <path d="M180.079411,8.13135648 C179.774761,7.99184397 178.969492,7.8970424 178.050467,7.89243981 C177.064859,7.88646241 176.452516,7.81048965 176.316757,7.67438425 C176.19076,7.54802202 175.35286,7.41568238 174.220459,7.34329607 C173.182932,7.27694693 171.500581,7.14072198 170.481901,7.04060053 C169.463214,6.94053886 167.873961,6.81668713 166.95022,6.76546081 C165.924025,6.70867551 165.139844,6.5806396 164.934317,6.43670381 C164.704983,6.2760313 164.087469,6.19916193 162.993731,6.1950973 C161.921457,6.1891199 161.249938,6.10938139 160.96857,5.94852955 C160.691649,5.79018823 160.02628,5.70584711 159.023811,5.70190203 C158.07066,5.69592463 157.42433,5.62025074 157.297944,5.49388851 C157.161079,5.35700605 157.09589,4.57055953 157.09589,3.05630479 C157.09589,-0.0742986871 156.489291,0.159716523 163.444427,0.607364009 C164.575996,0.680228515 165.414906,0.813046343 165.540731,0.939289031 C165.678725,1.07772561 166.290016,1.14975328 167.327471,1.14975328 C168.280131,1.14975328 169.050056,1.23301847 169.27223,1.36009799 C169.616977,1.55729242 170.549158,1.65137669 174.691335,1.90714964 C175.617414,1.96453268 176.526648,2.07935853 176.711864,2.16274326 C176.897079,2.24612799 177.828125,2.33644651 178.780851,2.36346435 C179.854135,2.39394909 180.558697,2.48624015 180.633002,2.60620657 C180.706273,2.72443954 181.414416,2.822708 182.453378,2.85875172 C183.570763,2.89760482 184.24915,2.99694921 184.431813,3.14877517 C184.663485,3.34142677 184.709792,3.73623404 184.709792,5.51881427 C184.709792,7.53696383 184.687795,7.67844889 184.320096,8.02388283 C183.971494,8.35138458 183.75394,8.38856401 182.257468,8.37631034 C181.224215,8.36794198 180.391402,8.27421634 180.079411,8.13135648 L180.079411,8.13135648 Z" id="path4217" fill-rule="nonzero"></path>
                        <path d="M187.277552,22.7589509 C187.120239,22.6954709 187.067058,21.9172134 187.067058,19.6778403 C187.067058,17.096799 187.105636,16.6496895 187.345413,16.450642 C187.572602,16.2619953 189.62233,16.2040743 198.500419,16.1353342 L209.377093,16.0511724 L209.422163,11.8582654 C209.462212,8.13494292 209.435732,7.63056991 209.185589,7.35417494 C208.917318,7.05775567 208.400518,7.04299149 198.311181,7.04299149 C191.331323,7.04299149 187.607343,6.98321749 187.392742,6.86869051 C187.092348,6.70789845 187.067058,6.4925925 187.067058,4.09637239 C187.067058,1.7000925 187.092342,1.48484633 187.392742,1.32405427 C187.844066,1.08250753 213.735574,1.08250753 214.186898,1.32405427 C214.503587,1.49351356 214.512583,1.79059034 214.512583,12.0805649 L214.512583,22.6627745 L214.133735,22.7643306 C213.679399,22.8860902 187.57965,22.8808301 187.277528,22.7583532 L187.277528,22.7583532 L187.277552,22.7589509 Z" id="path4219" fill-rule="nonzero"></path>
                        <path d="M217.639618,6.77837199 C217.423026,6.56181079 217.375022,6.0638336 217.375022,4.03378901 C217.375022,2.32945295 217.438215,1.49064441 217.577076,1.3517894 C217.728472,1.20038186 219.755683,1.14975328 225.663363,1.14975328 L233.547595,1.14975328 L233.711806,1.58168021 C233.802119,1.81922208 233.876011,3.02611892 233.876011,4.26367981 C233.876011,6.08469472 233.825562,6.56420175 233.611422,6.77837199 C233.378578,7.01119172 232.420389,7.04299149 225.62552,7.04299149 C218.83065,7.04299149 217.872461,7.01131127 217.639618,6.77837199 L217.639618,6.77837199 Z" id="path4221" fill-rule="nonzero"></path>
                        <path d="M217.585492,22.7637926 C217.328876,22.6543464 217.287148,17.3770793 217.539765,16.977251 C217.677287,16.7595541 218.818785,16.7180111 225.803108,16.6763487 C232.227917,16.6380933 233.982188,16.5811884 234.270316,16.4018067 C234.470195,16.277417 234.978076,16.1322857 235.398933,16.0792662 C236.462946,15.9452529 236.821112,15.7210406 238.206476,14.321791 C239.133039,13.3859095 239.444473,12.9496789 239.528605,12.4696339 C239.589144,12.1242597 239.743822,11.6739224 239.872336,11.468778 C240.057372,11.1734944 240.106004,10.1028823 240.106004,6.32486666 C240.106004,2.83860788 240.160399,1.49943118 240.308058,1.3517894 C240.542976,1.11687758 244.096911,1.0697159 244.455059,1.29679732 C244.636772,1.41198182 244.66844,2.73836688 244.623436,8.3485752 C244.572927,14.6462443 244.541899,15.2873204 244.273346,15.5838593 C244.111281,15.7628824 243.978684,16.0335988 243.978684,16.1855443 C243.978684,16.8138886 243.16452,17.989165 241.775725,19.3655211 C240.571464,20.5590286 240.042638,20.9480976 238.898235,21.4824771 C235.90767,22.8789771 236.865955,22.7732967 226.804185,22.8156764 C221.84968,22.8365973 217.70128,22.8156764 217.585516,22.763673 L217.585492,22.7637926 Z" id="path4223" fill-rule="nonzero"></path>
                        <g id="Group-23" transform="translate(248.575651, 1.278064)">
                            <path d="M4.36983333,3.05530143e-13 C6.78235026,3.05530143e-13 8.73967144,1.95732118 8.73967144,4.36983333 C8.73967144,6.78234548 6.78235026,8.73966665 4.36983333,8.73966665 C1.95732118,8.73966665 -7.35937351e-12,6.78234548 -7.35937351e-12,4.36983333 C-7.35937351e-12,1.95732118 1.95732118,3.05530143e-13 4.36983333,3.05530143e-13 Z M4.36983333,0.838849201 C2.41901556,0.838849201 0.835602277,2.42226727 0.835602277,4.37308503 C0.835602277,6.3239028 2.41901556,7.90732086 4.36983333,7.90732086 C6.32065588,7.90732086 7.90406916,6.3239028 7.90406916,4.37308503 C7.90406916,2.41901556 6.32065588,0.838849201 4.36983333,0.838849201 Z" id="Combined-Shape"></path>
                            <path d="M4.47713005,1.89229185 C5.85896149,1.89229185 6.54499966,2.36048964 6.54499966,3.28713011 C6.54499966,3.92439747 6.14832982,4.40559731 5.4883053,4.57141995 L6.57100852,6.73357467 L5.26070982,6.73357467 L4.33406935,4.75024463 L3.75857961,4.75024463 L3.75857961,6.73357467 L2.57833479,6.73357467 L2.57833479,1.89229185 L4.47713005,1.89229185 Z M4.27554343,2.63360422 L3.75857961,2.63360422 L3.75857961,4.04144453 L4.33406935,4.04144453 C5.00710069,4.04144453 5.33223778,3.83661098 5.33223778,3.35540637 C5.33223778,2.85144459 4.98434353,2.63360422 4.27554343,2.63360422 Z" id="Combined-Shape"></path>
                        </g>
                    </g>
                </g>
                <path d="M32.0226973,60.3162684 C12.8266355,60.309765 -2.40731879e-13,46.7060536 -2.40731879e-13,30.2118771 L-2.40731879e-13,30.2118771 C-2.40731879e-13,13.7177054 12.855898,-0.042073554 31.9934319,9.66960804e-05 L212.840867,9.66960804e-05 C231.978403,-0.0420783359 244.834299,13.7177054 244.834299,30.2118771 L244.834299,30.2118771 C244.834299,46.7060536 232.007663,60.309765 212.811607,60.3162684 L32.0226973,60.3162684 Z M32.0812184,7.41981146 C16.8843396,7.44907681 7.55617252,17.6063341 7.55617252,30.1728614 L7.55617252,30.1728614 C7.55617252,42.736137 16.8258146,52.9779386 32.0812184,52.9228871 L212.753081,52.9228871 C228.008486,52.9746869 237.28138,42.736137 237.28138,30.1728614 L237.28138,30.1728614 C237.28138,17.6095858 227.953212,7.45232373 212.756332,7.42305838 L32.0812184,7.41981146 Z M222.47141,18.0257611 C223.853242,18.0257611 224.53928,18.4939589 224.53928,19.4205994 C224.53928,20.0578667 224.14261,20.5390666 223.482586,20.7048892 L224.565289,22.8670439 L223.25499,22.8670439 L222.32835,20.8837139 L221.75286,20.8837139 L221.75286,22.8670439 L220.572615,22.8670439 L220.572615,18.0257611 L222.47141,18.0257611 Z M222.364114,16.1334692 C219.951601,16.1334692 217.99428,18.0907904 217.99428,20.5033026 C217.99428,22.9158147 219.951601,24.8731359 222.364114,24.8731359 C224.77663,24.8731359 226.733952,22.9158147 226.733952,20.5033026 C226.733952,18.0907904 224.77663,16.1334692 222.364114,16.1334692 Z M225.898349,20.5065543 C225.898349,22.457372 224.314936,24.0407901 222.364114,24.0407901 C220.413296,24.0407901 218.829882,22.457372 218.829882,20.5065543 C218.829882,18.5557365 220.413296,16.9723184 222.364114,16.9723184 C224.314936,16.9723184 225.898349,18.5524848 225.898349,20.5065543 Z M221.75286,20.1749138 L222.32835,20.1749138 C223.001381,20.1749138 223.326518,19.9700802 223.326518,19.4888756 C223.326518,18.9849138 222.978624,18.7670735 222.269824,18.7670735 L221.75286,18.7670735 L221.75286,20.1749138 Z M122.989392,32.0066321 C122.976386,30.3516861 123.012154,29.2462257 123.555127,28.3033267 C124.22166,27.1393404 125.447424,26.5866078 126.559387,26.5801044 L126.55604,26.5801044 C127.668009,26.5866078 128.893773,27.1393404 129.560305,28.3033267 C130.103283,29.2494726 130.12604,30.3549378 130.113038,32.0098838 L122.989392,32.0066321 Z M130.083868,37.699771 C130.083868,37.699771 130.090371,37.7843105 130.090371,38.8442518 C130.090371,42.2972046 127.817668,43.0645258 126.556136,43.0645258 C125.294608,43.0645258 122.982889,42.2972046 122.982889,38.8442518 C122.982889,37.8103194 122.989392,34.945868 122.989392,34.945868 C122.989392,34.945868 139.073892,34.9523714 139.073892,34.9425206 C139.073892,29.0868108 133.419769,24.2357729 126.474853,24.2357729 C119.529936,24.2357729 113.901827,28.9827658 113.901827,34.8384756 C113.901827,40.6941854 119.529936,45.4379266 126.474853,45.4379266 C132.236272,45.4379266 137.103564,42.1507965 138.589441,37.6931767 L130.083868,37.699771 Z M156.9499,24.5512505 C160.14274,24.4602123 166.619459,26.5508439 166.574178,34.0257309 C166.567436,35.3522881 166.570592,44.3000448 166.570592,44.3000448 L158.087782,44.3000448 C158.087782,44.3000448 158.087782,33.079585 158.087782,31.8993354 C158.087782,30.2541445 156.514119,28.4236303 154.186142,28.4236303 C151.861416,28.4236303 150.13169,30.2541445 150.13169,31.8993354 C150.13169,32.7056771 150.141445,44.3000448 150.141445,44.3000448 L141.665138,44.3000448 L141.671642,25.4193651 L150.144702,25.4128617 C150.144702,25.4128617 150.134947,26.9312456 150.144702,27.3994434 C151.776886,25.842039 154.130877,24.6325336 156.949809,24.5512457 L156.9499,24.5512505 Z M87.5592619,24.5512505 C90.7521021,24.4602123 97.2288255,26.5508439 97.1835451,34.0257309 C97.176803,35.3522881 97.179959,44.3000448 97.179959,44.3000448 L88.6971437,44.3000448 C88.6971437,44.3000448 88.6971437,33.079585 88.6971437,31.8993354 C88.6971437,30.2541445 87.1234855,28.4236303 84.7955081,28.4236303 C82.4707825,28.4236303 80.7410568,30.2541445 80.7410568,31.8993354 C80.7410568,32.7056771 80.7508119,44.3000448 80.7508119,44.3000448 L72.2745047,44.3000448 L72.2711574,25.4193651 L80.753968,25.4128617 C80.753968,25.4128617 80.7442128,26.9312456 80.753968,27.3994434 C82.3861568,25.842039 84.7368913,24.6325336 87.5590754,24.5512457 L87.5592619,24.5512505 Z M184.976667,15.9123772 L193.404208,15.9123772 L193.404208,44.3065482 L184.96366,44.3065482 C184.96366,44.3065482 184.960313,43.3896629 184.960313,43.2140899 C181.692693,45.265701 178.005646,45.2624493 175.134691,43.9228852 C174.364113,43.5652359 169.295235,41.1332135 169.295235,34.562205 C169.295235,29.5778614 173.996714,24.1350752 180.151547,24.6748058 C182.177144,24.8536304 183.617502,25.5916911 184.983074,26.3590124 C184.976571,21.9891743 184.976571,15.9123772 184.976571,15.9123772 L184.976667,15.9123772 Z M185.038444,34.770295 C185.038444,34.770295 185.038444,32.4032972 185.038444,31.3953736 C185.038444,28.475648 183.022597,27.7310887 181.69604,27.7310887 C180.33697,27.7310887 178.347132,28.475648 178.347132,31.3953736 C178.347132,32.3642815 178.35048,34.7605399 178.35048,34.7605399 C178.35048,34.7605399 178.347132,37.1145261 178.347132,38.119198 C178.347132,41.0356719 180.33697,41.7997462 181.692788,41.7997462 C183.022597,41.7997462 185.041696,41.0356719 185.041696,38.119198 C185.041696,36.9064409 185.038349,34.770295 185.038349,34.770295 L185.038444,34.770295 Z M212.093051,34.7150208 C212.093051,34.7150208 212.089704,37.5697171 212.089704,38.7141979 C212.089704,41.7249617 210.311207,42.9669842 208.600992,42.9669842 C206.88752,42.9669842 205.10252,41.7249617 205.10252,38.7141979 C205.10252,37.5697171 205.105868,34.643488 205.105868,34.643488 C205.105868,34.643488 205.112371,31.8505694 205.112371,30.7060885 C205.112371,27.7083267 206.900623,26.4760594 208.601088,26.4760594 C210.3048,26.4760594 212.0898,27.7083267 212.0898,30.7060885 C212.0898,31.8505694 212.086452,33.967205 212.096303,34.7247759 L212.093051,34.7150208 Z M208.662861,24.1350752 C201.769967,24.1350752 196.184124,28.8820729 196.184124,34.7377779 C196.184124,40.5934877 201.773218,45.3404807 208.662861,45.3404807 C215.555754,45.3404807 221.141601,40.5934877 221.141601,34.7377779 C221.141601,28.8820729 215.555754,24.1350752 208.662861,24.1350752 Z M59.0122798,21.709561 L59.0122798,15.9058738 L67.56987,15.9058738 L67.56987,21.709561 L59.0122798,21.709561 Z M59.03179,44.3066439 L59.03179,25.4226168 L67.5698748,25.4259641 L67.5698748,44.3066439 L59.03179,44.3066439 Z M101.868526,44.3065482 L101.871874,25.4616325 L97.2289259,25.4616325 L97.2289259,22.6589587 L101.875126,22.6556113 L101.868622,18.8320072 L110.41321,18.8320072 L110.41321,22.6523596 L115.036653,22.6523596 L115.036653,25.4615368 L110.41321,25.4615368 L110.419714,44.3065482 L101.868526,44.3065482 Z M24.2844512,44.3065482 L24.287703,15.9123772 L33.1346658,15.9123772 L45.3728044,35.7131892 L45.3663009,15.9123772 L54.1449881,15.9123772 L54.1449881,44.3065482 L45.379303,44.3065482 L33.0761399,24.5057314 L33.0761399,44.3065482 L24.2844512,44.3065482 Z" id="path29" fill-rule="nonzero"></path>
            </g>
        </g>
    </g>
</svg>