<svg width="391" height="146" viewBox="0 0 391 146" fill="none" xmlns="http://www.w3.org/2000/svg">
<path fill-rule="evenodd" clip-rule="evenodd" d="M98.4379 24.0509H15.8877C8.92764 24.0756 4.69003 19.4218 4.69003 13.7143C4.69003 7.99929 8.94875 3.38382 15.8877 3.37641H98.4379C105.373 3.38382 109.644 7.99929 109.644 13.7143C109.644 19.4218 105.398 24.0756 98.4379 24.0509ZM98.4739 4.67397e-05H15.8492C7.10939 -0.0197197 1.24231 6.23266 1.24231 13.7303C1.24231 21.2218 7.09573 27.4063 15.8665 27.41H98.4603C107.231 27.4063 113.087 21.2218 113.087 13.7303C113.087 6.23266 107.21 -0.0197197 98.4739 4.67397e-05ZM102.825 10.9235C101.932 10.9235 101.206 10.2033 101.206 9.3187C101.206 8.43045 101.932 7.70279 102.825 7.70279C103.713 7.70279 104.438 8.43045 104.438 9.3187C104.438 10.2033 103.713 10.9235 102.825 10.9235ZM102.825 7.33217C101.72 7.33217 100.83 8.22166 100.83 9.3187C100.83 10.417 101.72 11.3015 102.825 11.3015C103.929 11.3015 104.822 10.417 104.822 9.3187C104.822 8.22166 103.929 7.33217 102.825 7.33217ZM102.806 9.16551H102.545V8.53051H102.777C103.104 8.53051 103.265 8.63058 103.265 8.85542C103.265 9.0778 103.119 9.16551 102.806 9.16551ZM103.813 8.8233C103.813 8.39833 103.506 8.19201 102.87 8.19201H102.004V10.3923H102.545V9.48795H102.806L103.233 10.3923H103.828L103.336 9.40765C103.638 9.32488 103.813 9.11486 103.813 8.8233ZM57.685 12.8544C57.9831 12.3331 58.5494 12.0761 59.0537 12.0761C59.5641 12.0761 60.1193 12.3331 60.4285 12.8544C60.672 13.2881 60.6819 13.7921 60.6757 14.542H57.4267C57.4205 13.7921 57.4341 13.2881 57.685 12.8544ZM64.7742 15.8836C64.7742 13.2201 62.1959 11.0124 59.0189 11.0124C55.8481 11.0124 53.2748 13.167 53.2748 15.833C53.2748 18.4928 55.8481 20.6474 59.0189 20.6474C61.6506 20.6474 63.8775 19.1562 64.5556 17.1277L60.6608 17.1289C60.6608 17.1289 60.672 17.1709 60.672 17.6466C60.672 19.2217 59.6287 19.5664 59.0537 19.5664C58.4737 19.5664 57.4267 19.2217 57.4267 17.6466V15.8873L64.7742 15.8836ZM72.9389 11.1557C71.6523 11.1916 70.5804 11.7376 69.8266 12.4467C69.8228 12.2404 69.8266 11.5486 69.8266 11.5486H65.9566V20.1297H69.8266C69.8266 20.1297 69.8228 14.8595 69.8228 14.495C69.8228 13.7489 70.6152 12.9174 71.6696 12.9174C72.7415 12.9174 73.4593 13.7489 73.4593 14.495V20.1297H77.3318V15.4611C77.3579 12.0613 74.402 11.11 72.9389 11.1557ZM41.2363 11.1557C39.9447 11.1916 38.8766 11.7376 38.1239 12.4467V11.5486H34.2502L34.2577 20.1297H38.1239V14.495C38.1239 13.7489 38.9126 12.9174 39.9782 12.9174C41.0401 12.9174 41.7567 13.7489 41.7567 14.495V20.1297H45.6329V15.4611C45.654 12.0613 42.6957 11.11 41.2363 11.1557ZM85.7685 15.7947V17.3204C85.7685 18.646 84.8482 18.9919 84.2459 18.9919C83.6174 18.9919 82.7182 18.646 82.7182 17.3204V15.7922V14.2665C82.7182 12.936 83.6174 12.6024 84.2459 12.6024C84.8482 12.6024 85.7685 12.936 85.7685 14.2665V15.7947ZM85.7474 11.9798C85.1202 11.6264 84.4607 11.2953 83.5392 11.2089C80.7211 10.9593 78.5763 13.4388 78.5763 15.6996C78.5763 18.6929 80.8925 19.7986 81.244 19.958C82.5605 20.5646 84.2459 20.5646 85.7337 19.6393C85.7337 19.7159 85.7375 20.1334 85.7375 20.1334H89.5888V7.22963H85.7474V11.9798ZM98.1299 17.5947C98.1299 18.9561 97.3152 19.5194 96.534 19.5194C95.7515 19.5194 94.9393 18.9561 94.9393 17.5947V15.7391V13.9478C94.9393 12.5901 95.7552 12.0304 96.534 12.0304C97.3127 12.0304 98.1237 12.5901 98.1237 13.9478C98.1237 14.4728 98.1237 15.4265 98.1299 15.7749V17.5947ZM96.5625 10.9593C93.4141 10.9593 90.8656 13.1237 90.8656 15.7786C90.8656 18.4422 93.4141 20.6054 96.5625 20.6054C99.7109 20.6054 102.273 18.4422 102.273 15.7786C102.273 13.1237 99.7109 10.9593 96.5625 10.9593ZM28.1981 9.86475H32.1066V7.22469H28.1981V9.86475ZM28.2055 20.1334H32.1066V11.5486H28.2055V20.1334ZM53.7914 11.5684V10.2959H51.6826V8.5614H47.7741L47.7803 10.2996H45.654V11.5684H47.7766L47.7741 20.1334H51.6863L51.6826 11.5684H53.7914ZM21.9659 16.237L16.3745 7.22963H12.3381V20.1334H16.3472V11.131L21.9696 20.1334H25.97V7.22963H21.9622L21.9659 16.237Z" fill="white"/>
<path d="M89.5296 130.988H90.3133C91.5677 130.988 92.3514 130.208 92.6656 128.492C93.2928 126.777 92.3514 126.152 91.5677 126.152H89.5296V126.17L88.1187 130.988H89.5296Z" fill="white"/>
<path d="M127.474 133.794H128.1C128.1 133.794 129.062 126.34 129.198 125.373H128.885C128.577 126.205 127.474 129.896 127.474 129.896L125.749 133.794H127.474Z" fill="white"/>
<path fill-rule="evenodd" clip-rule="evenodd" d="M376.464 145.648H389.79V118.51H376.464H354.356H336.951H317.352H300.261H278.624H248.989H227.979H209.164H187.37H164.164H145.505H127.474H125.593H110.069H89.5296H70.715H53.9372H33.2409H12.5434H0.313721V145.648H12.5434H33.2409H53.9372H70.715H89.5296H110.069H125.593H127.474H145.505H164.164H187.37H209.164H227.979H248.989H278.624H300.261H317.352H336.951H354.356H376.464ZM376.464 137.539L382.264 125.373C381.588 127.224 381.048 129.03 380.522 130.79C380.073 132.293 379.634 133.762 379.128 135.198L378.03 140.346H380.854L385.087 123.969H380.54L377.09 131.611C377.032 131.786 376.951 131.982 376.866 132.192C376.722 132.544 376.562 132.935 376.464 133.326C375.993 134.263 375.679 135.198 375.366 136.134C375.679 134.887 375.993 133.015 375.993 131.611L376.464 125.841V123.969H372.229L367.682 140.346H370.663L372.072 135.198C372.856 132.08 373.641 128.803 374.268 125.373L373.483 140.346H375.052L376.464 137.539ZM354.356 140.346H356.079L356.707 138.006H354.356H351.846L353.101 133.015H354.356H357.805L358.432 130.364H354.356H353.818L354.356 128.335L354.983 126.152H359.844L360.313 123.969H354.356H352.787L348.24 140.346H354.356ZM336.951 130.519L338.048 126.152H341.341L341.968 123.969H336.951H332.56L332.091 126.152H335.382L331.776 140.346H334.287L336.951 130.519ZM317.352 140.501C319.076 139.878 320.643 138.317 320.958 136.134C321.272 134.575 321.272 133.483 320.801 132.702C320.174 131.767 318.841 130.655 317.9 129.874C317.803 129.778 317.71 129.672 317.595 129.543C317.524 129.463 317.445 129.373 317.352 129.272C317.038 128.96 316.945 128.428 317.057 127.64C317.1 127.343 317.196 127.089 317.352 126.777C317.823 126.152 318.45 125.841 319.076 125.841C320.801 125.841 320.487 127.556 319.86 128.96H322.683C322.707 128.83 322.735 128.688 322.765 128.538C323.132 126.719 323.748 123.657 319.547 123.657C318.763 123.657 317.979 123.814 317.352 123.969C315.784 124.593 314.842 125.841 314.215 127.867C313.902 128.803 313.902 129.583 314.215 130.364C314.758 131.551 315.525 132.29 316.31 133.045C316.66 133.382 317.014 133.722 317.352 134.107C317.412 134.167 317.448 134.204 317.48 134.236C317.53 134.287 317.566 134.324 317.665 134.418C318.08 134.812 318.343 135.329 318.136 136.291C317.968 137.068 317.823 137.539 317.352 137.85C317.038 138.162 316.567 138.317 315.94 138.317C314.529 138.317 314.401 137.294 314.852 135.439L315 134.575H312.178L311.864 135.823C311.393 138.629 311.864 140.814 315.313 140.814C316.093 140.814 316.717 140.659 317.341 140.504L317.352 140.501ZM278.624 140.501C280.505 139.878 282.063 138.354 282.542 136.134C282.914 134.422 282.563 133.136 281.893 132.405C281.239 131.691 280.634 131.099 280.051 130.529C279.834 130.316 279.62 130.107 279.407 129.896C279.251 129.739 279.133 129.622 279.016 129.506C278.898 129.389 278.78 129.272 278.624 129.116C278.31 128.803 278.158 128.273 278.43 127.478C278.494 127.293 278.499 127.284 278.577 127.162C278.59 127.141 278.606 127.117 278.624 127.089C279.022 126.339 279.407 125.841 280.191 125.841C281.603 125.841 281.603 127.556 281.133 128.96H283.954C283.976 128.72 284.02 128.442 284.067 128.143C284.355 126.309 284.771 123.657 281.133 123.657C280.197 123.657 279.418 123.812 278.639 123.966L278.624 123.969C277.055 124.593 275.958 125.841 275.33 127.867C275.174 128.803 275.087 129.793 275.408 130.442C275.95 131.531 276.637 132.201 277.343 132.889C277.772 133.307 278.209 133.732 278.624 134.263C278.624 134.263 278.784 134.452 278.871 134.547C279.257 134.958 279.643 135.438 279.407 136.291C279.194 137.057 278.937 137.539 278.624 137.85C278.31 138.162 277.839 138.317 277.055 138.317C275.644 138.317 275.644 137.226 276.271 135.51L276.586 134.575H273.763L273.45 135.823C272.508 138.629 273.135 140.814 276.586 140.814C277.212 140.814 277.997 140.657 278.624 140.501ZM248.989 130.519L250.243 126.152H253.536L254.163 123.969H248.989H244.756L244.286 126.152H247.578L243.971 140.346H246.48L248.989 130.519ZM227.979 140.346H230.331L234.878 123.969H232.056L231.271 127.246C230.708 128.644 230.398 130.044 230.114 131.331C230.081 131.478 230.049 131.623 230.017 131.767C229.861 132.467 229.743 133.245 229.626 134.023C229.508 134.805 229.391 135.587 229.233 136.291C229.233 134.953 229.143 133.75 229.06 132.633C228.987 131.666 228.92 130.764 228.92 129.896L228.293 123.969H227.979H225.313L220.923 140.346H223.902L224.686 137.226C224.834 136.711 224.982 136.057 225.146 135.329C225.331 134.515 225.535 133.609 225.784 132.702C226.097 130.988 226.411 129.272 226.724 127.867C226.724 130.676 226.724 132.702 226.882 134.575L227.822 140.346H227.979ZM209.164 140.346H211.046L211.671 138.006H209.164H206.497L207.91 133.015H209.164H212.456L213.398 130.364H209.164H208.537L209.164 127.711L209.633 126.152H214.807L215.278 123.969H209.164H207.439L203.206 140.346H209.164ZM187.37 137.539L193.171 125.373C192.54 127.344 192.013 129.265 191.5 131.134C191.12 132.517 190.748 133.872 190.348 135.198L188.937 140.346H191.759L195.836 123.969H191.759L188.153 131.611C187.996 132.08 187.683 132.859 187.37 133.639C187.213 134.029 187.056 134.458 186.899 134.887C186.742 135.316 186.585 135.745 186.428 136.134C186.743 134.887 187.056 133.015 187.056 131.611L187.37 127.711L187.84 123.969H187.37H183.292L179.06 140.346H181.569L182.978 135.198C183.92 132.08 184.705 128.803 185.33 125.373H185.645L184.39 140.346H186.115L187.37 137.539ZM164.164 140.346H166.672L171.063 123.969H168.241L167.456 127.246C167.007 128.364 166.799 129.483 166.601 130.544C166.524 130.962 166.448 131.371 166.359 131.767C166.202 132.47 166.045 133.252 165.888 134.033C165.731 134.812 165.575 135.59 165.418 136.291C165.418 134.953 165.373 133.75 165.331 132.633C165.295 131.666 165.261 130.764 165.261 129.896L164.634 123.969H164.164H161.498L157.264 140.346H160.087L160.871 137.226C161.185 136.134 161.498 134.418 161.811 132.702C162.145 131.485 162.401 130.267 162.633 129.16C162.728 128.708 162.818 128.274 162.909 127.867C162.909 130.676 162.909 132.702 163.223 134.575L164.007 140.346H164.164ZM145.505 137.539L149.111 123.969H146.133L145.505 126.62L141.899 140.346H144.722L145.505 137.539ZM127.474 140.346H130.296L131.394 123.969H127.787L127.474 124.593L125.593 128.335L119.79 140.346H122.613L124.651 136.291H125.593H127.474H127.787L127.474 140.346ZM110.069 131.144L111.324 126.152H114.46L115.243 123.969H110.069H105.993L105.366 126.152H108.502L104.895 140.346H107.718L110.069 131.144ZM89.5296 133.326C89.8898 133.384 90.0562 133.415 90.3133 133.483C91.2721 133.736 90.9405 135.198 90.6275 136.291C90.3133 137.226 89.8438 139.409 89.8438 140.346H92.9798V140.033C92.3514 139.722 93.4493 135.823 93.7623 134.887C94.0765 133.171 94.0765 131.998 92.3514 131.998V131.863C94.3907 131.708 95.1744 129.583 95.8016 127.867C96.2711 125.061 94.8602 123.969 92.6656 123.969H89.5296H87.3351L82.9447 140.346H85.9229L87.4915 133.171H88.1187C88.5882 133.171 89.0564 133.234 89.5296 133.326ZM70.715 140.346H72.5953L73.066 138.006H70.715H68.0485L69.4606 133.015H70.715H74.0074L74.4769 130.364H70.715H69.93L70.715 127.711L71.1844 126.152H76.202L76.8292 123.969H70.715H68.8334L64.5995 140.346H70.715ZM53.9372 131.144L55.1916 126.152H58.6418L59.269 123.969H53.9372H49.861L49.0761 126.152H52.3698L48.7631 140.346H51.5861L53.9372 131.144ZM33.2409 140.346H36.0627L40.2966 123.969H37.4736L36.5334 127.246C36.353 128.14 36.1214 129.035 35.8974 129.901C35.7312 130.543 35.5693 131.17 35.4355 131.767C35.1225 133.171 34.8083 134.887 34.6518 136.291C34.6518 134.693 34.4962 133.303 34.3499 131.996C34.2676 131.26 34.1883 130.551 34.1413 129.847L33.7104 123.969H33.2409H30.5756L26.3418 140.346H29.1635L30.0801 137.182C30.3406 136.288 30.55 135.293 30.7724 134.237C30.8809 133.722 30.9925 133.192 31.1147 132.652C31.1548 132.475 31.1951 132.298 31.2353 132.122C31.5805 130.611 31.9131 129.155 31.9865 127.867C31.8648 130.002 31.9865 132.702 32.2995 134.575L33.0844 140.346H33.2409ZM12.5434 140.346H14.112L15.0522 138.006H12.5434H9.87816L11.289 133.015H12.5434H15.8359L16.7773 130.364H12.5434H11.9162L12.5434 127.711L13.0141 126.152H17.8752L18.6589 123.969H12.5434H10.8196L6.58569 140.346H12.5434ZM305.748 123.969L300.261 131.767L299.164 133.171L297.44 140.346H294.617L296.655 133.171L295.244 123.969H298.066L298.693 130.676C299.164 129.74 299.654 128.781 300.261 127.751L302.614 123.969H305.748Z" fill="white"/>
<path fill-rule="evenodd" clip-rule="evenodd" d="M91.0972 42.7151H82.3177H73.0663L60.2094 111.808H68.6759L74.4784 81.083H82.3177H85.4537C89.2169 81.083 92.1951 78.5875 92.8223 74.8442L97.3692 50.3573C97.6834 49.7347 97.6834 49.4221 97.6834 49.2664C97.6834 45.5219 94.8616 42.7151 91.0972 42.7151ZM82.6307 73.4396H82.3177H75.8893L79.8089 50.6686H82.3177H86.8646C87.9612 50.6686 88.9027 51.4482 88.9027 52.5403V52.8528L85.4537 70.9453C85.1395 72.3475 84.0428 73.4396 82.6307 73.4396ZM39.1992 102.449V102.293L50.018 42.8704H41.8645L30.5762 104.79V106.037C30.5762 109.469 33.3979 112.275 36.8469 112.275H48.4507C52.3691 112.275 55.5051 109.624 56.1323 106.037L67.736 42.8704H59.5825L48.7636 102.138C48.4506 103.541 47.195 104.633 45.6276 104.633H41.2373C40.1394 104.633 39.1992 103.697 39.1992 102.449ZM20.2985 72.9946L20.2984 72.9944C19.356 71.3944 18.5767 70.0711 18.1887 69.3849C16.3071 66.578 15.3669 64.7064 15.9929 60.6518L17.5615 52.8527C17.718 51.7606 18.9724 50.6697 20.3845 50.6697H24.9314C26.028 50.6697 26.9694 51.6049 26.9694 52.5401V52.8527L24.3029 67.2007H32.4565L35.5925 50.3572C35.7502 49.8889 35.7502 49.422 35.7502 49.1094C35.7502 45.523 32.7707 42.8706 29.4782 42.8706H17.718C14.1113 42.8706 10.8188 45.523 10.0351 49.1094L7.83934 61.1188C7.36987 64.5495 7.52636 66.4224 9.56568 70.4769C10.341 71.8794 11.8778 74.7335 13.4626 77.6768L13.4627 77.6769C15.4016 81.2778 17.4124 85.0121 18.1887 86.3853C19.9138 89.5046 20.2268 90.2842 19.9138 92.3127L18.0322 102.138C17.718 103.541 16.4636 104.632 14.8962 104.632H10.5059C9.40795 104.632 8.46777 103.697 8.46777 102.45V102.294L11.133 87.3217H3.13598L0 104.789V106.037C0 109.468 2.50879 112.276 6.11548 112.276H17.718C21.6377 112.276 24.6172 109.623 25.4008 106.037L27.9096 92.624C28.5368 89.6603 27.9096 86.5409 26.9694 84.8249C26.4004 83.3552 22.7828 77.2129 20.2985 72.9946L20.2985 72.9946ZM102.857 42.8706H121.673L120.419 50.6685H109.913L105.837 72.6587H116.341L114.93 80.4578H104.582L100.192 104.632H110.54L109.129 112.274H90.1566L102.857 42.8706ZM170.122 42.8704L157.421 112.274H165.888C172.318 76.8712 173.258 68.7595 173.571 60.4946C173.571 67.3573 173.728 75.1552 177.177 112.274H185.645L198.188 42.8704H189.878C183.449 78.2746 182.508 88.7249 182.195 95.8989C182.195 89.035 182.038 79.9893 178.432 42.8704H170.122ZM200.227 112.274H191.917L204.461 42.8704H212.927L200.227 112.274ZM263.728 50.6692H269.529L270.94 42.8713H250.557L249.303 50.6692H255.262L243.814 112.275H252.439L263.728 50.6692ZM274.39 42.8706H293.519L292.108 50.6685H281.446L277.682 72.6587H288.03L286.621 80.4578H276.115L271.881 104.632H282.073L280.662 112.274H261.846L274.39 42.8706ZM219.356 42.8704L206.655 112.274H215.122C221.551 76.8712 222.492 68.7595 222.805 60.4946C222.805 67.3573 222.962 75.1552 226.568 112.274H234.879L247.578 42.8704H239.268C232.84 78.2746 231.9 88.7249 231.585 95.8989C231.585 89.035 231.429 79.9893 227.666 42.8704H219.356ZM286.306 112.274L299.008 42.8704H307.475C310.861 79.3104 311.073 88.6947 311.228 95.5199L311.237 95.8989C311.393 88.7249 312.334 78.2746 318.763 42.8704H327.229L314.53 112.274H306.062C302.614 75.1552 302.457 67.3573 302.457 60.4946C302.143 68.7595 301.201 76.8712 294.929 112.274H286.306ZM136.254 84.2012V84.0456C136.254 83.266 136.098 82.6409 135.627 82.3296C135.314 82.1727 134.843 82.0183 134.373 82.0183H127.474L122.143 112.12H113.675L126.376 43.1833H135.627H145.035C148.484 43.1833 150.799 45.9062 151.113 49.4926C151.113 49.8051 151.113 50.1757 150.993 50.6687L147.073 72.3475C146.759 75.4682 144.877 77.4942 141.741 78.275C143.937 79.2102 145.348 81.3944 145.035 84.0456V85.1377L140.018 112.12H135.627H131.237L135.627 88.1002L136.254 84.2012ZM135.627 73.7522H136.098C137.509 73.7522 138.607 72.6601 138.92 71.2554L142.056 53.3198V53.0085C142.056 51.9164 141.428 50.9812 140.018 50.9812H135.627H133.433L129.199 73.7522H135.627ZM351.69 43.0264H339.617H332.717L319.86 111.963H339.617H340.087C344.007 111.963 346.83 109.468 347.612 106.037L357.649 50.5142C357.649 50.2565 357.696 50.0463 357.739 49.8573V49.8571V49.857C357.774 49.7027 357.805 49.5625 357.805 49.4221C357.805 45.8344 354.982 43.0264 351.69 43.0264ZM340.244 102.138C340.087 102.606 339.931 103.073 339.617 103.385C338.989 104.01 338.206 104.477 337.264 104.477H329.896L339.46 50.8242H339.617H347.143C348.24 50.8242 349.337 51.7607 349.337 52.8528C349.337 53.1375 349.324 53.1987 349.3 53.3082L349.293 53.342L340.244 102.138ZM371.446 43.0264H383.206C386.499 43.0264 389.007 45.8344 389.007 49.4221V50.5142L379.13 106.037C378.345 109.468 375.209 111.963 371.446 111.963H359.687C356.238 111.963 353.728 109.468 353.728 106.037V104.632L363.606 49.4221C364.39 45.8344 367.526 43.0264 371.289 43.0264H371.446ZM371.446 102.606V102.138L380.54 53.1653V52.8528C380.54 51.7607 379.756 50.8242 378.659 50.8242H374.111C372.858 50.8242 371.76 51.605 371.446 52.5402C371.289 52.6971 371.289 52.8528 371.289 53.1653L362.196 102.138V102.451C362.196 103.541 362.98 104.477 364.076 104.477H368.624C369.878 104.477 370.975 103.697 371.446 102.606ZM386.185 104.477H385.4H383.204V110.403H383.989V107.908H385.4H385.871C386.838 108.014 386.848 108.707 386.859 109.433C386.865 109.767 386.87 110.108 386.968 110.403H387.91V110.247C387.563 110.04 387.584 109.62 387.607 109.161C387.635 108.583 387.667 107.944 386.968 107.595C387.753 107.128 387.753 106.504 387.753 106.036C387.596 105.101 386.969 104.477 386.185 104.477ZM386.027 107.284H385.4H383.989V105.256H385.4H385.714C387.596 105.412 386.968 107.284 386.027 107.284ZM390.261 107.752C390.261 110.247 388.222 112.586 385.4 112.586C382.578 112.586 380.384 110.247 380.384 107.752C380.384 105.101 382.578 102.605 385.4 102.605C388.222 102.605 390.261 105.101 390.261 107.752ZM389.634 107.752C389.634 105.412 387.91 103.228 385.4 103.228C382.891 103.228 381.167 105.412 381.167 107.752C381.167 110.247 382.891 112.119 385.4 112.119C387.91 111.963 389.634 110.247 389.634 107.752Z" fill="white"/>
</svg>
