<svg width="435" height="114" viewBox="0 0 435 114" fill="none" xmlns="http://www.w3.org/2000/svg">
<path d="M19.9 29.4001C21.4 31.9001 28.6 44.2001 29.5 46.3001C30.6 48.2001 31.3 51.6001 30.6 54.9001L27.9 69.7001C27.1 73.6001 23.7 76.6001 19.4 76.6001H6.6C2.8 76.6001 0 73.5001 0 69.7001C0 69.3001 0 68.8001 0 68.5001L3.3 49.0001H12.2L9.3 65.5001C9.3 65.7001 9.3 65.8001 9.3 65.8001C9.3 67.0001 10.3 68.1001 11.5 68.1001H16.4C18 68.1001 19.4 67.0001 19.7 65.4001L21.6 54.6001C22 52.5001 21.7 51.4001 19.8 48.1001C18.3 45.4001 12.2 33.9001 10.4 30.5001C8.1 26.0001 7.9 24.0001 8.6 20.2001L11 7.0001C11.8 3.0001 15.3 0.100098 19.4 0.100098H32.3C36 0.100098 39.2 3.2001 39.2 7.0001C39.2 7.4001 39.2 7.8001 39.1 8.2001L35.8 27.0001H26.8L29.6 11.1001C29.7 10.9001 29.7 10.8001 29.7 10.8001C29.7 9.6001 28.6 8.6001 27.4 8.6001H22.5C20.9 8.6001 19.6 9.7001 19.3 11.1001L17.7 19.6001C16.9 24.1001 17.9 26.2001 19.9 29.4001Z" fill="white"/>
<path d="M43.0001 65.5C43.0001 65.7 43.0001 65.8 43.0001 65.8C43.0001 67 44.0001 68.1 45.2001 68.1H50.1001C51.7001 68.1 53.0001 67 53.4001 65.4L65.3001 0H74.4001L61.6001 69.7C60.8001 73.6 57.3001 76.6 53.2001 76.6H40.3001C36.6001 76.6 33.6001 73.5 33.6001 69.7C33.6001 69.3 33.6001 68.8 33.6001 68.4L45.9001 0H54.8001L43.0001 65.5Z" fill="white"/>
<path d="M112.8 0H133.5L132.1 8.7H120.5L116.2 32.9H127.6L126.1 41.4H114.6L109.9 68.1H121.2L119.6 76.6H98.8999L112.8 0Z" fill="white"/>
<path d="M172.6 76.6L186.5 0H195.7C199.7 40.9 199.8 50.9 199.9 58.5C200.2 50.5 201.2 39.2 208.2 0H217.4L203.5 76.6H194.3C190.4 35.8 190.3 27.1 190.2 19.5C189.9 28.7 188.9 37.5 181.9 76.6H172.6V76.6Z" fill="white"/>
<path d="M219.7 76.6H210.4L224.3 0H233.6L219.7 76.6Z" fill="white"/>
<path d="M295.5 8.7H289.2L276.9 76.6H267.5L279.9 8.7H273.3L274.9 0H297.2L295.5 8.7Z" fill="white"/>
<path d="M301 0H321.8L320.3 8.7H308.8L304.5 32.9H315.9L314.3 41.4H302.9L298.1 68.1H309.5L307.9 76.6H287.1L301 0Z" fill="white"/>
<path d="M226.7 76.6L240.6 0H249.8C253.8 40.9 253.9 50.9 254 58.5C254.3 50.5 255.3 39.2 262.3 0H271.5L257.6 76.6H248.4C244.5 35.8 244.4 27.1 244.3 19.5C243.9 28.7 243 37.5 236 76.6H226.7V76.6Z" fill="white"/>
<path d="M314 76.6L327.9 0H337.1C341.1 40.9 341.2 50.9 341.3 58.5C341.6 50.5 342.6 39.2 349.6 0H358.8L345 76.6H335.8C331.9 35.8 331.8 27.1 331.7 19.5C331.4 28.7 330.4 37.5 323.4 76.6H314V76.6Z" fill="white"/>
<path d="M66.2 76.6L80.1 0H100.2C104 0 107.1 3.1 107.1 6.9C107.1 7.3 107 7.7 106.9 8.1L102 35.3C101.3 39.3 97.9 42.3 93.7 42.3H81.7L75.4 76.6H66.2ZM90.6 33.7C92.2 33.7 93.5 32.6 93.8 31.2L97.6 11.3C97.6 11.2 97.6 11 97.6 11C97.6 9.8 96.6 8.8 95.4 8.8H87.8L83.1 33.8H90.6V33.7ZM149.9 45.3C149.9 45.2 149.9 45.1 149.9 45C149.9 43.8 148.9 42.8 147.7 42.8H140.3L134.3 76.6H125L138.7 0H159.2C163 0 166.1 3.1 166.2 6.9C166.2 7.3 166.1 7.7 166 8.2L161.7 32.3C161.1 35.5 158.9 37.8 155.8 38.7C158.4 39.7 159.6 42.2 159.3 45C159.3 45.3 159.3 45.8 159.2 46.2L153.7 76.4H144.3L149.9 45.3ZM149.4 33.7C151 33.7 152.3 32.6 152.6 31.1L156.2 11.3C156.2 11.1 156.2 11 156.2 11C156.2 9.8 155.2 8.8 153.9 8.8H146.5L142 33.8H149.4V33.7ZM365.7 0H386.5C390.3 0 393.4 3.1 393.4 6.9C393.4 7.3 393.3 7.7 393.2 8.1L382 69.7C381.3 73.6 377.9 76.6 373.7 76.6H351.7L365.7 0ZM370.7 68.1C372.3 68.1 373.6 67 373.9 65.4L383.8 11.2C383.9 11 383.9 10.9 383.9 10.9C383.9 9.7 382.9 8.7 381.6 8.7H373.3L362.5 68.1H370.7V68.1ZM407.9 0H420.8C424.5 0 427.6 3.1 427.6 6.9C427.6 7.3 427.6 7.7 427.5 8.1L416.5 69.6C415.7 73.5 412.2 76.5 408 76.5H395.2C391.4 76.5 388.4 73.4 388.4 69.6C388.4 69.2 388.4 68.7 388.4 68.3L399.4 6.9C400.4 3 403.9 0 407.9 0ZM398 65.8C398 67 399 68.1 400.2 68.1H405.1C406.8 68.1 408 67 408.4 65.4L418.2 11.2C418.2 11 418.2 10.9 418.2 10.9C418.2 9.7 417.2 8.7 416 8.7H411C409.5 8.7 408.1 9.8 407.8 11.2L398 65.5C398 65.7 398 65.8 398 65.8Z" fill="white"/>
<path d="M141 100.6L141.6 95.3999C141.7 94.5999 141.9 93.6999 142 92.8999C142.1 92.4999 142.2 91.5 142.2 91.2C142.1 91.6 141.8 92.4999 141.6 92.8999C141.3 93.6999 141 94.5999 140.6 95.3999L138.3 100.6H141Z" fill="white"/>
<path d="M100.9 92.3999H98.6L97.3 97.3999H99.7C100.7 97.2999 101.7 96.5999 102.2 94.7999C102.7 92.7999 102.1 92.3999 100.9 92.3999Z" fill="white"/>
<path d="M0.800049 83.8999V113.8H428.3V83.8999H0.800049ZM20.3 92.3999H14.8L13.6 96.9999H18.7001L18 99.6999H12.9L11.4 105.3H17L16.3 108H7.70005L12.4 89.8999H21L20.3 92.3999ZM39.9001 107.9H36.7001L36 101.4C35.8 99.2999 35.7001 96.9999 35.7001 94.1999C35.4001 95.6999 35.1001 97.4999 34.7001 99.3999C34.3001 101.2 33.9 103 33.5 104.5L32.6 107.9H29.6L34.3 89.7999H37.5L38.1 96.3999C38.3 98.4999 38.4001 100.7 38.4001 103.6C38.7001 102 39.1001 100.2 39.4001 98.3999C39.8001 96.6999 40.2 94.8999 40.6 93.2999L41.5 89.7999H44.5L39.9001 107.9ZM64.7 92.3999H61.2001L57.2001 107.9H54.2001L58.2001 92.3999H54.6L55.3 89.7999H65.5L64.7 92.3999ZM84.1 92.3999H78.6L77.4 96.9999H82.5L81.8 99.6999H76.7L75.2 105.3H80.7L80 108H71.4L76.1 89.8999H84.7L84.1 92.3999ZM105.6 94.0999C105.1 96.0999 104.1 98.1999 102 98.4999C103.7 98.7999 103.9 100.1 103.5 101.8C103.3 102.6 102.1 107 102.7 107.5L102.6 107.8H99.2C99.1 106.6 99.8 104.4 100.1 103.2C100.4 102.1 100.8 100.6 99.8 100.2C99 99.8999 98.1 99.9999 97.3 99.9999H96.8L94.8 107.8H91.8L96.5 89.6999H102.3C104.7 89.7999 106.4 90.7999 105.6 94.0999ZM126.3 92.3999H122.8L118.8 107.9H115.8L119.8 92.3999H116.2L116.9 89.7999H127L126.3 92.3999ZM143.6 107.9H140.3L140.7 103.3H137.1L135.1 107.9H131.8L140.4 89.7999H144.5L143.6 107.9ZM159.2 107.9H156.2L160.9 89.7999H163.9L159.2 107.9ZM183.4 107.9H180.2L179.5 101.4C179.3 99.2999 179.2 96.9999 179.2 94.1999C178.9 95.6999 178.6 97.4999 178.2 99.3999C177.8 101.2 177.4 103 177 104.5L176.1 107.9H173.1L177.8 89.7999H180.9L181.5 96.3999C181.7 98.4999 181.8 100.7 181.8 103.6C182.1 102 182.5 100.2 182.8 98.3999C183.2 96.6999 183.6 94.8999 184 93.2999L184.9 89.7999H188L183.4 107.9ZM210.9 107.9H207.9L209.4 102.2C210.3 98.5999 211.3 94.9999 212.5 91.3999L204.9 107.9H203L204.1 91.3999H204C203.3 94.9999 202.4 98.5999 201.4 102.2L199.9 107.9H196.9L201.6 89.7999H206.5L205.9 98.1999C205.8 99.5999 205.4 101.8 205.1 103.2C205.7 101.4 206.4 99.3999 206.9 98.1999L210.7 89.7999H215.5L210.9 107.9ZM236.3 92.3999H230.8L229.6 96.9999H234.7L234 99.6999H228.9L227.4 105.3H232.9L232.2 108H223.6L228.3 89.8999H236.9L236.3 92.3999ZM253.7 107.9H250.5L249.8 101.4C249.6 99.2999 249.5 96.9999 249.5 94.1999C249.2 95.6999 248.9 97.4999 248.5 99.3999C248.1 101.2 247.7 103 247.3 104.5L246.4 107.9H243.4L248.1 89.7999H251.2L251.9 96.3999C252.1 98.4999 252.2 100.7 252.2 103.6C252.5 102 252.9 100.2 253.2 98.3999C253.6 96.6999 254 94.8999 254.4 93.2999L255.3 89.7999H258.4L253.7 107.9ZM278.9 92.3999H275.4L271.4 107.9H268.3L272.3 92.3999H268.7L269.4 89.7999H279.6L278.9 92.3999ZM312.2 95.2999H309.3C309.7 93.6999 310 92.0999 308.4 92.0999C307.4 92.0999 306.6 92.5999 306.3 93.7999C305.9 95.1999 306.6 95.6999 307.4 96.3999C308.2 97.0999 309.7 98.3999 310.3 99.3999C311.1 100.5 311.1 101.6 310.7 103.2C309.8 106.6 307.3 108.4 304.3 108.4C300.6 108.4 299.9 106.1 300.8 102.9L301.1 101.6H304.1L303.8 102.7C303.3 104.5 303.4 105.7 304.9 105.7C306.2 105.7 307 105 307.3 103.6C307.6 102.5 307.3 101.8 306.7 101.2C305.5 99.7999 303.7 98.7999 303 96.9999C302.7 96.1999 302.7 95.1999 302.9 94.1999C303.7 91.0999 305.7 89.3999 308.9 89.3999C313.9 89.2999 312.6 93.4999 312.2 95.2999ZM329.1 100.2L327.1 107.9H324.1L326.1 100.2L324.6 89.7999H327.9L328.4 94.5999C328.5 95.4999 328.5 96.3999 328.4 97.3999C329 95.9999 329.7 94.9999 330.3 93.9999L332.8 89.8999H336.1L329.1 100.2ZM354.7 95.2999H351.8C352.2 93.6999 352.5 92.0999 350.9 92.0999C349.9 92.0999 349.1 92.5999 348.8 93.7999C348.4 95.1999 349.1 95.6999 349.9 96.3999C350.7 97.0999 352.2 98.3999 352.8 99.3999C353.5 100.5 353.6 101.6 353.2 103.2C352.3 106.6 349.8 108.4 346.8 108.4C343.1 108.4 342.4 106.1 343.3 102.9L343.6 101.6H346.7L346.4 102.7C345.9 104.5 346 105.7 347.5 105.7C348.8 105.7 349.6 105 350 103.6C350.3 102.5 350 101.8 349.4 101.2C348.2 99.7999 346.5 98.7999 345.7 96.9999C345.4 96.1999 345.4 95.1999 345.6 94.1999C346.4 91.0999 348.4 89.3999 351.6 89.3999C356.3 89.2999 355.1 93.4999 354.7 95.2999ZM375.2 92.3999H371.7L367.7 107.9H364.7L368.7 92.3999H365.1L365.8 89.7999H376L375.2 92.3999ZM395.6 92.3999H390L388.8 96.9999H393.9L393.2 99.6999H388.1L386.6 105.3H392.1L391.4 108H382.8L387.5 89.8999H396.1L395.6 92.3999ZM418.4 107.9H415.4L416.9 102.2C417.8 98.5999 418.8 94.9999 420 91.3999L412.4 107.9H410.5L411.6 91.3999H411.5C410.8 94.9999 409.9 98.5999 408.9 102.2L407.4 107.9H404.4L409.1 89.7999H414L413.4 98.1999C413.3 99.5999 412.9 101.8 412.6 103.2C413.2 101.4 413.9 99.3999 414.4 98.1999L418.2 89.7999H423L418.4 107.9Z" fill="white"/>
<path d="M424 76.5999H423.3V70.0999H420.9V69.3999H426.5V70.0999H424V76.5999Z" fill="white"/>
<path d="M431.1 75.2999L433.5 69.3999H434.6V76.5999H433.9V70.3999L431.3 76.5999H430.9L428.3 70.3999V76.5999H427.6V69.3999H428.7L431.1 75.2999Z" fill="white"/>
</svg>
