<svg id="svg" version="1.1" xmlns="http://www.w3.org/2000/svg" xmlns:xlink="http://www.w3.org/1999/xlink" width="400" height="141.09178164367125" viewBox="0, 0, 400,141.09178164367125"><g id="svgg"><path id="path0" d="M79.890 9.740 C 79.941 9.872,80.886 11.097,81.991 12.462 L 84.000 14.943 84.000 65.941 L 84.000 116.939 82.693 120.011 C 81.974 121.701,81.257 123.332,81.099 123.636 C 80.571 124.657,80.918 124.543,82.602 123.142 C 83.523 122.377,85.430 120.813,86.841 119.667 C 91.628 115.777,93.088 114.588,97.483 111.000 C 99.897 109.029,102.154 107.192,102.499 106.917 C 106.236 103.935,108.832 101.777,108.763 101.708 C 108.717 101.661,107.414 101.637,105.868 101.654 C 103.615 101.680,103.018 101.639,102.860 101.449 C 102.713 101.272,102.675 98.526,102.707 90.488 L 102.750 79.763 104.083 78.992 C 104.817 78.567,107.067 77.299,109.083 76.174 C 111.100 75.049,113.388 73.769,114.167 73.330 C 114.946 72.891,118.358 70.993,121.750 69.113 C 125.142 67.232,128.049 65.593,128.211 65.472 C 128.524 65.236,128.690 16.103,128.378 15.826 C 128.252 15.714,123.056 12.555,122.083 11.999 C 121.808 11.842,120.765 11.215,119.764 10.606 L 117.945 9.500 98.871 9.500 C 82.328 9.500,79.810 9.532,79.890 9.740 M136.475 9.958 C 136.069 10.400,131.027 16.986,130.449 17.829 C 130.185 18.213,130.167 21.020,130.167 60.005 L 130.167 101.769 134.205 105.509 C 136.426 107.567,138.695 109.670,139.247 110.183 C 139.798 110.697,142.387 113.105,145.000 115.534 C 147.612 117.964,149.893 120.113,150.067 120.309 C 150.373 120.654,151.080 120.799,151.194 120.542 C 151.245 120.427,152.898 118.992,155.664 116.661 C 156.892 115.626,156.900 115.618,159.511 113.393 C 160.571 112.489,162.067 111.225,162.836 110.583 C 163.605 109.942,164.537 109.148,164.908 108.820 C 165.280 108.492,166.896 107.120,168.500 105.771 C 171.167 103.528,173.271 101.744,174.520 100.667 L 175.003 100.250 175.002 58.933 L 175.001 17.616 174.607 17.100 C 174.390 16.816,173.621 15.908,172.898 15.082 C 172.175 14.256,170.914 12.793,170.097 11.832 C 169.279 10.870,168.465 9.952,168.287 9.792 C 167.983 9.518,166.989 9.500,152.429 9.500 L 136.896 9.500 136.475 9.958 M172.833 9.658 C 172.833 9.745,173.808 11.027,175.000 12.506 L 177.167 15.196 177.167 65.929 L 177.167 116.662 175.895 121.289 C 175.195 123.834,174.584 126.100,174.536 126.324 L 174.449 126.732 174.871 126.408 C 175.993 125.545,179.293 123.071,181.083 121.749 C 182.183 120.937,184.208 119.439,185.583 118.419 C 186.958 117.400,189.696 115.376,191.667 113.921 C 196.978 109.999,198.333 108.983,198.333 108.920 C 198.333 108.889,197.735 108.013,197.004 106.973 L 195.675 105.083 195.671 85.625 C 195.666 64.224,195.595 65.715,196.588 66.390 C 196.769 66.514,197.967 67.162,199.250 67.832 C 202.541 69.549,203.067 69.846,203.207 70.061 C 203.274 70.165,203.329 78.042,203.329 87.566 C 203.328 97.090,203.363 104.918,203.407 104.962 C 203.450 105.006,204.108 104.581,204.868 104.019 C 206.663 102.692,211.560 99.094,212.417 98.472 C 212.783 98.206,213.571 97.628,214.167 97.187 C 214.762 96.746,216.975 95.129,219.083 93.593 C 223.930 90.062,223.554 90.452,222.748 89.791 C 222.385 89.493,221.956 89.119,221.794 88.958 C 221.518 88.684,221.500 87.846,221.500 75.123 C 221.500 62.405,221.482 61.569,221.208 61.400 C 221.048 61.302,220.092 60.786,219.083 60.256 C 216.712 59.008,214.589 57.878,213.750 57.419 C 213.383 57.218,212.123 56.545,210.950 55.924 C 209.614 55.218,208.835 54.711,208.866 54.569 C 208.894 54.444,211.729 52.735,215.167 50.771 L 221.417 47.199 221.459 31.540 L 221.502 15.882 220.543 15.292 C 220.015 14.968,219.321 14.554,219.000 14.373 C 218.679 14.191,216.730 13.021,214.669 11.771 L 210.921 9.500 191.877 9.500 C 179.980 9.500,172.833 9.559,172.833 9.658 M219.333 9.658 C 219.333 9.745,220.271 10.982,221.417 12.407 L 223.500 14.998 223.500 21.999 L 223.500 29.000 229.550 29.000 C 234.033 29.000,235.652 29.052,235.800 29.200 C 235.955 29.355,236.000 39.347,236.000 73.161 L 236.000 116.923 234.839 122.086 C 234.200 124.926,233.629 127.419,233.569 127.625 C 233.389 128.251,233.706 128.082,236.452 126.092 C 237.899 125.043,241.071 122.755,243.500 121.008 C 256.268 111.826,257.167 111.168,257.167 111.012 C 257.167 110.943,256.732 110.256,256.201 109.485 C 255.670 108.714,255.069 107.811,254.867 107.479 L 254.499 106.875 254.499 68.073 C 254.499 37.142,254.541 29.244,254.708 29.138 C 254.823 29.065,257.860 29.004,261.458 29.003 L 268.000 29.000 268.000 22.035 L 268.000 15.071 268.458 14.524 C 268.963 13.922,269.237 13.934,269.710 14.583 C 269.986 14.960,270.006 16.195,270.044 35.195 L 270.083 55.405 274.167 57.722 C 278.970 60.447,283.362 62.935,287.750 65.415 C 293.629 68.737,294.633 69.339,294.733 69.600 C 295.033 70.381,294.834 73.274,294.458 73.609 C 293.576 74.393,288.922 77.715,288.681 77.731 C 288.448 77.748,288.411 77.275,288.372 73.707 L 288.327 69.664 279.205 69.707 L 270.083 69.750 270.000 93.417 L 269.917 117.083 268.798 119.704 C 268.183 121.146,267.482 122.744,267.240 123.257 C 266.997 123.769,266.838 124.227,266.885 124.274 C 266.932 124.321,272.421 119.985,279.082 114.638 C 285.744 109.291,291.396 104.767,291.642 104.583 C 291.889 104.400,294.708 102.150,297.908 99.583 C 310.073 89.824,313.687 86.943,314.373 86.456 C 314.645 86.263,314.664 85.444,314.671 73.942 L 314.679 61.635 313.798 61.172 C 311.297 59.858,304.309 56.096,303.583 55.672 C 303.308 55.512,302.333 54.986,301.417 54.503 C 300.500 54.020,299.675 53.571,299.583 53.504 C 299.492 53.438,298.592 52.948,297.583 52.417 C 294.792 50.945,288.777 47.647,288.542 47.459 C 288.245 47.222,288.237 29.496,288.533 29.200 C 288.814 28.919,294.352 28.919,294.633 29.200 C 294.759 29.325,294.833 29.948,294.833 30.867 L 294.833 32.333 304.747 32.333 L 314.660 32.333 314.705 24.234 C 314.730 19.779,314.712 16.082,314.667 16.018 C 314.621 15.953,313.946 15.530,313.167 15.077 C 312.387 14.624,309.989 13.184,307.837 11.877 L 303.924 9.500 261.629 9.500 C 235.121 9.500,219.333 9.559,219.333 9.658 M118.833 13.910 C 119.796 14.501,120.958 15.183,121.417 15.426 C 121.875 15.668,122.925 16.292,123.750 16.812 L 125.250 17.757 125.305 36.604 L 125.360 55.451 122.805 56.916 C 120.438 58.272,119.670 58.717,118.191 59.588 C 117.884 59.769,116.422 60.618,114.941 61.476 C 113.461 62.333,111.575 63.427,110.750 63.907 C 108.638 65.136,106.386 66.437,104.250 67.665 C 103.242 68.244,102.229 68.835,102.000 68.979 C 101.771 69.122,100.233 70.018,98.583 70.969 C 96.933 71.921,95.358 72.833,95.083 72.996 C 93.404 73.990,90.453 75.683,89.369 76.276 C 88.672 76.657,88.008 77.098,87.892 77.255 C 87.763 77.433,87.574 77.500,87.398 77.433 C 87.131 77.330,87.121 75.421,87.233 45.613 L 87.353 13.903 87.010 13.467 C 86.821 13.227,86.667 12.986,86.667 12.932 C 86.667 12.878,93.510 12.834,101.875 12.834 L 117.083 12.834 118.833 13.910 M167.023 13.375 C 168.046 14.473,171.284 18.263,171.552 18.676 C 171.812 19.075,172.030 76.192,171.773 76.449 C 171.734 76.488,171.299 76.271,170.806 75.968 C 169.448 75.134,169.460 75.141,166.250 73.230 C 164.600 72.248,162.275 70.883,161.083 70.198 C 159.892 69.513,158.821 68.864,158.703 68.756 C 158.532 68.599,158.482 64.193,158.453 46.489 L 158.417 24.417 152.083 24.417 L 145.750 24.417 145.750 42.986 C 145.750 62.873,145.783 62.127,144.946 61.377 C 144.747 61.198,143.908 60.691,143.083 60.250 C 142.258 59.809,141.133 59.208,140.583 58.913 C 140.033 58.619,138.983 58.056,138.250 57.664 C 137.517 57.272,136.729 56.825,136.500 56.672 C 136.271 56.518,135.501 56.106,134.788 55.754 C 133.918 55.325,133.466 55.001,133.409 54.766 C 133.362 54.574,133.345 46.504,133.370 36.833 L 133.417 19.250 135.155 17.000 C 136.112 15.762,136.937 14.713,136.990 14.667 C 137.042 14.621,137.302 14.283,137.567 13.917 C 137.833 13.550,138.165 13.156,138.307 13.042 C 138.508 12.879,141.607 12.833,152.541 12.833 L 166.519 12.833 167.023 13.375 M210.355 13.068 C 210.664 13.197,211.104 13.442,211.333 13.612 C 211.563 13.783,212.088 14.100,212.500 14.318 C 212.912 14.536,214.225 15.314,215.417 16.048 C 216.608 16.781,217.746 17.481,217.946 17.603 L 218.308 17.825 218.327 31.561 L 218.345 45.298 217.214 45.924 C 216.592 46.269,215.276 47.026,214.290 47.608 C 213.303 48.190,212.468 48.667,212.433 48.667 C 212.398 48.667,211.360 49.258,210.125 49.982 C 208.890 50.705,207.513 51.505,207.065 51.759 C 206.617 52.014,205.725 52.521,205.083 52.886 C 204.442 53.250,203.523 53.768,203.042 54.037 C 202.212 54.500,201.998 55.167,202.680 55.167 C 202.773 55.167,204.879 56.259,207.361 57.595 C 209.842 58.930,212.051 60.091,212.270 60.174 C 213.090 60.486,213.066 60.502,207.833 63.250 C 205.954 64.237,204.016 65.265,203.527 65.535 L 202.637 66.026 201.444 65.412 C 200.787 65.074,199.537 64.422,198.667 63.961 C 197.796 63.501,196.371 62.749,195.500 62.290 C 194.629 61.831,193.674 61.311,193.378 61.133 C 192.495 60.603,192.491 60.625,192.505 65.953 C 192.512 68.664,192.457 70.943,192.381 71.019 C 192.306 71.094,191.196 71.692,189.914 72.347 C 181.808 76.492,180.523 77.117,180.340 77.004 C 180.136 76.878,180.211 27.428,180.430 18.068 L 180.523 14.053 180.095 13.544 C 179.859 13.264,179.667 12.990,179.667 12.934 C 179.667 12.695,209.775 12.826,210.355 13.068 M265.500 12.971 C 265.500 13.047,265.305 13.290,265.067 13.513 L 264.633 13.917 264.692 19.833 L 264.750 25.750 258.000 25.833 L 251.250 25.917 251.250 46.111 C 251.250 57.217,251.197 66.357,251.133 66.422 C 251.069 66.486,250.807 66.372,250.550 66.167 C 250.293 65.963,247.646 64.173,244.667 62.189 L 239.250 58.583 239.208 42.208 L 239.165 25.833 232.999 25.833 C 228.180 25.833,226.832 25.788,226.829 25.625 C 226.827 25.510,226.829 22.786,226.833 19.571 C 226.841 13.909,226.830 13.716,226.504 13.420 C 226.318 13.252,226.167 13.052,226.167 12.974 C 226.167 12.897,235.017 12.833,245.833 12.833 C 256.650 12.833,265.500 12.895,265.500 12.971 M303.918 13.375 C 304.362 13.673,305.201 14.179,305.783 14.500 C 306.364 14.821,307.813 15.673,309.003 16.394 L 311.167 17.704 311.167 23.437 L 311.167 29.171 304.625 29.127 L 298.083 29.083 298.000 27.500 L 297.917 25.917 291.542 25.873 L 285.167 25.829 285.167 37.472 C 285.167 48.351,285.186 49.132,285.458 49.373 C 285.734 49.616,287.390 50.548,290.417 52.161 C 291.150 52.552,292.200 53.120,292.750 53.425 C 293.300 53.729,294.429 54.339,295.258 54.781 C 300.640 57.645,300.663 57.662,299.708 58.008 C 299.456 58.099,299.100 58.243,298.917 58.328 C 298.322 58.603,296.105 59.612,295.250 59.998 C 291.885 61.513,290.366 62.223,290.048 62.428 C 289.508 62.777,289.466 62.763,287.440 61.602 C 286.419 61.017,285.283 60.372,284.917 60.168 C 283.597 59.437,279.687 57.225,276.500 55.406 L 273.250 53.550 273.312 33.734 L 273.375 13.917 273.021 13.474 C 272.826 13.230,272.667 12.986,272.667 12.932 C 272.667 12.878,279.516 12.833,287.888 12.833 L 303.110 12.833 303.918 13.375 M99.189 44.917 C 99.245 62.501,99.272 64.000,99.525 64.000 C 99.675 64.000,100.650 63.478,101.691 62.841 C 102.732 62.203,105.871 60.309,108.667 58.632 L 113.750 55.582 113.793 40.708 L 113.835 25.833 106.481 25.833 L 99.128 25.833 99.189 44.917 M192.276 25.946 C 192.214 26.009,192.166 31.112,192.169 37.287 C 192.176 49.358,192.157 49.095,192.981 48.538 C 193.372 48.273,198.991 44.879,202.000 43.089 C 203.421 42.245,205.071 41.258,205.667 40.898 L 206.750 40.242 206.793 33.038 L 206.837 25.833 199.613 25.833 C 195.640 25.833,192.338 25.884,192.276 25.946 M155.053 27.708 C 155.408 27.970,155.416 93.583,155.061 93.583 C 154.957 93.583,153.551 92.426,151.936 91.012 L 149.000 88.441 149.000 58.484 C 149.000 42.008,148.958 28.418,148.907 28.285 C 148.623 27.544,154.128 27.027,155.053 27.708 M110.467 29.200 C 110.619 29.352,110.667 32.316,110.667 41.522 L 110.667 53.644 110.161 54.004 C 108.790 54.980,102.734 58.497,102.547 58.426 C 102.244 58.310,102.231 29.502,102.533 29.200 C 102.817 28.916,110.183 28.916,110.467 29.200 M203.467 29.200 C 203.699 29.432,203.755 37.936,203.526 38.296 C 203.316 38.627,195.961 43.017,195.706 42.964 C 195.473 42.915,195.360 29.528,195.589 29.157 C 195.741 28.912,203.219 28.953,203.467 29.200 M133.919 57.504 C 133.977 57.597,134.450 57.901,134.970 58.178 C 135.949 58.698,137.814 59.716,138.833 60.285 C 139.154 60.464,140.017 60.934,140.750 61.329 C 141.483 61.725,142.740 62.413,143.542 62.858 C 144.344 63.303,145.071 63.667,145.158 63.667 C 145.824 63.667,145.833 63.851,145.833 77.045 L 145.833 89.682 146.217 90.049 C 146.931 90.733,148.076 91.753,150.000 93.420 C 151.627 94.829,154.237 97.131,157.302 99.860 C 157.698 100.212,158.092 100.500,158.177 100.500 C 158.273 100.500,158.333 94.833,158.333 85.843 C 158.333 70.273,158.311 70.675,159.141 71.287 C 159.644 71.658,164.351 74.489,165.750 75.262 C 165.933 75.364,166.833 75.897,167.750 76.447 C 168.667 76.998,169.952 77.758,170.606 78.137 C 171.260 78.515,171.841 78.946,171.897 79.093 C 172.113 79.655,172.012 98.587,171.792 98.876 C 171.677 99.026,168.987 101.346,165.814 104.033 C 162.641 106.719,158.156 110.529,155.848 112.500 C 153.539 114.471,151.471 116.226,151.251 116.400 L 150.852 116.717 150.105 116.067 C 149.693 115.709,147.432 113.617,145.079 111.417 C 142.727 109.217,140.078 106.748,139.193 105.931 C 138.307 105.114,136.590 103.512,135.375 102.371 L 133.167 100.297 133.167 78.926 C 133.167 67.172,133.217 57.506,133.278 57.444 C 133.444 57.278,133.800 57.311,133.919 57.504 M125.417 60.674 L 125.417 63.404 124.750 63.847 C 124.383 64.090,123.558 64.569,122.917 64.911 C 122.275 65.253,121.112 65.894,120.333 66.335 C 117.172 68.124,112.337 70.825,111.083 71.502 C 110.350 71.897,109.000 72.649,108.083 73.172 C 107.167 73.694,105.967 74.368,105.417 74.668 C 102.898 76.043,100.224 77.580,99.958 77.805 C 99.616 78.095,99.496 104.036,99.834 104.668 C 99.978 104.938,99.755 105.179,98.191 106.448 C 97.195 107.256,95.198 108.892,93.752 110.083 C 92.307 111.275,90.737 112.550,90.264 112.917 C 89.791 113.283,88.929 113.981,88.349 114.467 C 87.770 114.953,87.262 115.318,87.222 115.278 C 87.043 115.099,87.180 80.101,87.361 79.883 C 87.463 79.760,88.305 79.236,89.232 78.720 C 90.159 78.204,91.104 77.654,91.333 77.498 C 91.563 77.342,92.087 77.026,92.500 76.797 C 93.933 75.999,98.840 73.166,99.460 72.779 C 99.803 72.565,101.246 71.728,102.667 70.919 C 105.289 69.426,107.969 67.872,110.833 66.184 C 111.704 65.671,112.624 65.138,112.877 65.000 C 113.898 64.445,117.183 62.562,118.750 61.633 C 120.890 60.366,120.637 60.513,122.667 59.356 C 123.629 58.808,124.567 58.243,124.750 58.102 C 125.360 57.632,125.417 57.852,125.417 60.674 M303.804 59.310 C 304.416 59.664,306.283 60.684,307.952 61.577 C 309.622 62.471,311.068 63.298,311.165 63.415 C 311.429 63.733,311.398 84.638,311.134 84.956 C 310.966 85.158,288.581 103.162,287.356 104.080 C 287.115 104.261,286.129 105.046,285.167 105.823 C 275.511 113.626,273.282 115.354,273.145 115.141 C 273.008 114.928,273.120 73.323,273.259 72.873 C 273.311 72.707,274.600 72.672,279.287 72.706 L 285.250 72.750 285.294 78.375 C 285.339 84.184,285.380 84.498,285.989 83.763 C 286.097 83.633,287.353 82.677,288.779 81.638 C 291.880 79.381,293.103 78.487,295.750 76.545 L 297.750 75.078 297.795 71.435 C 297.848 67.123,298.203 67.766,294.654 65.747 C 291.879 64.170,291.465 63.802,292.208 63.575 C 292.676 63.432,293.410 63.105,296.667 61.588 C 298.087 60.927,299.737 60.173,300.333 59.914 C 300.929 59.655,301.642 59.272,301.917 59.063 C 302.565 58.569,302.511 58.562,303.804 59.310 M242.230 63.056 C 250.826 68.748,250.526 68.564,250.853 68.359 C 251.023 68.253,251.200 68.167,251.246 68.167 C 251.292 68.167,251.349 77.110,251.373 88.042 L 251.417 107.917 252.195 109.064 C 253.091 110.385,253.088 110.418,252.038 111.120 C 251.605 111.410,250.050 112.518,248.583 113.584 C 247.117 114.650,245.654 115.702,245.333 115.922 C 245.012 116.142,244.407 116.569,243.988 116.870 C 243.569 117.171,242.444 117.975,241.488 118.658 C 240.532 119.341,239.504 120.110,239.203 120.367 C 238.223 121.201,238.140 120.975,238.664 118.896 C 238.987 117.613,238.995 116.954,238.997 89.486 C 238.999 74.033,239.050 61.339,239.111 61.278 C 239.287 61.102,239.235 61.073,242.230 63.056 M215.659 61.958 C 216.268 62.302,217.115 62.767,217.539 62.990 C 218.530 63.513,218.436 62.016,218.426 77.069 L 218.417 90.222 215.250 92.540 C 213.508 93.815,210.921 95.727,209.500 96.788 C 208.079 97.849,206.786 98.752,206.626 98.794 C 206.351 98.868,206.333 98.028,206.293 83.479 L 206.250 68.086 205.625 67.682 C 204.776 67.132,204.833 67.005,206.218 66.348 C 210.443 64.344,214.251 62.184,214.303 61.762 C 214.369 61.220,214.341 61.215,215.659 61.958 M192.667 89.922 L 192.750 106.261 193.375 107.131 C 194.182 108.255,194.177 108.283,192.953 109.163 C 191.649 110.101,185.489 114.661,182.445 116.940 C 179.962 118.801,179.718 118.924,179.930 118.208 C 180.005 117.956,180.089 109.186,180.118 98.718 L 180.171 79.686 180.627 79.366 C 180.878 79.190,183.446 77.865,186.333 76.422 C 189.221 74.978,191.657 73.728,191.748 73.642 C 191.839 73.557,192.064 73.509,192.248 73.535 C 192.581 73.583,192.584 73.710,192.667 89.922 " stroke="none" fill="#2a2829" fill-rule="evenodd"></path><path id="path1" d="M133.278 57.444 C 133.217 57.506,133.167 67.172,133.167 78.926 L 133.167 100.297 135.375 102.371 C 136.590 103.512,138.307 105.114,139.193 105.931 C 140.078 106.748,142.727 109.217,145.079 111.417 C 147.432 113.617,149.693 115.709,150.105 116.067 L 150.852 116.717 151.251 116.400 C 151.471 116.226,153.539 114.471,155.848 112.500 C 158.156 110.529,162.641 106.719,165.814 104.033 C 168.987 101.346,171.677 99.026,171.792 98.876 C 172.012 98.587,172.113 79.655,171.897 79.093 C 171.841 78.946,171.260 78.515,170.606 78.137 C 169.952 77.758,168.667 76.998,167.750 76.447 C 166.833 75.897,165.933 75.364,165.750 75.262 C 164.351 74.489,159.644 71.658,159.141 71.287 C 158.311 70.675,158.333 70.273,158.333 85.843 C 158.333 94.833,158.273 100.500,158.177 100.500 C 158.092 100.500,157.698 100.212,157.302 99.860 C 154.237 97.131,151.627 94.829,150.000 93.420 C 148.076 91.753,146.931 90.733,146.217 90.049 L 145.833 89.682 145.833 77.045 C 145.833 63.851,145.824 63.667,145.158 63.667 C 145.071 63.667,144.344 63.303,143.542 62.858 C 142.740 62.413,141.483 61.725,140.750 61.329 C 140.017 60.934,139.154 60.464,138.833 60.285 C 137.814 59.716,135.949 58.698,134.970 58.178 C 134.450 57.901,133.977 57.597,133.919 57.504 C 133.800 57.311,133.444 57.278,133.278 57.444 M124.750 58.102 C 124.567 58.243,123.629 58.808,122.667 59.356 C 120.637 60.513,120.890 60.366,118.750 61.633 C 117.183 62.562,113.898 64.445,112.877 65.000 C 112.624 65.138,111.704 65.671,110.833 66.184 C 107.969 67.872,105.289 69.426,102.667 70.919 C 101.246 71.728,99.803 72.565,99.460 72.779 C 98.840 73.166,93.933 75.999,92.500 76.797 C 92.087 77.026,91.563 77.342,91.333 77.498 C 91.104 77.654,90.159 78.204,89.232 78.720 C 88.305 79.236,87.463 79.760,87.361 79.883 C 87.180 80.101,87.043 115.099,87.222 115.278 C 87.262 115.318,87.770 114.953,88.349 114.467 C 88.929 113.981,89.791 113.283,90.264 112.917 C 90.737 112.550,92.307 111.275,93.752 110.083 C 95.198 108.892,97.195 107.256,98.191 106.448 C 99.755 105.179,99.978 104.938,99.834 104.668 C 99.496 104.036,99.616 78.095,99.958 77.805 C 100.224 77.580,102.898 76.043,105.417 74.668 C 105.967 74.368,107.167 73.694,108.083 73.172 C 109.000 72.649,110.350 71.897,111.083 71.502 C 112.337 70.825,117.172 68.124,120.333 66.335 C 121.112 65.894,122.275 65.253,122.917 64.911 C 123.558 64.569,124.383 64.090,124.750 63.847 L 125.417 63.404 125.417 60.674 C 125.417 57.852,125.360 57.632,124.750 58.102 M134.852 58.515 C 135.529 58.890,136.946 59.655,138.000 60.215 C 140.666 61.631,140.993 61.807,141.750 62.235 C 142.117 62.442,143.017 62.934,143.750 63.328 C 144.483 63.722,145.215 64.158,145.375 64.298 C 145.648 64.535,145.667 65.361,145.667 77.186 L 145.667 89.820 147.958 91.850 C 157.585 100.380,158.182 100.885,158.387 100.679 C 158.594 100.472,158.584 101.168,158.630 84.367 L 158.667 71.317 159.375 71.795 C 159.765 72.058,161.133 72.891,162.417 73.646 C 163.700 74.401,164.862 75.085,165.000 75.166 C 165.137 75.248,166.720 76.179,168.516 77.235 L 171.782 79.156 171.818 88.877 L 171.855 98.598 170.303 99.943 C 168.185 101.779,165.316 104.226,163.986 105.333 C 162.432 106.626,158.342 110.103,155.333 112.687 C 154.646 113.278,153.345 114.386,152.443 115.150 L 150.803 116.539 150.110 115.880 C 149.729 115.518,148.104 113.997,146.500 112.500 C 144.896 111.004,143.133 109.358,142.583 108.842 C 142.033 108.327,140.533 106.934,139.250 105.748 C 137.967 104.561,136.481 103.176,135.948 102.670 C 135.415 102.164,134.639 101.437,134.224 101.054 L 133.468 100.357 133.483 96.220 C 133.491 93.945,133.498 84.377,133.499 74.958 C 133.499 65.540,133.527 57.833,133.560 57.833 C 133.593 57.833,134.175 58.140,134.852 58.515 M125.129 60.868 L 125.083 63.403 124.083 63.969 C 123.533 64.281,122.521 64.842,121.833 65.216 C 121.146 65.591,120.171 66.145,119.667 66.448 C 119.162 66.751,118.656 66.999,118.542 67.000 C 118.427 67.000,118.333 67.059,118.333 67.132 C 118.333 67.205,118.090 67.380,117.792 67.522 C 117.494 67.664,116.374 68.277,115.303 68.884 C 114.231 69.491,112.769 70.303,112.053 70.690 C 111.336 71.076,110.470 71.566,110.128 71.779 C 109.786 71.992,109.481 72.167,109.450 72.167 C 109.395 72.167,105.511 74.345,105.000 74.662 C 104.862 74.747,104.225 75.094,103.583 75.433 C 102.942 75.772,101.940 76.338,101.358 76.691 C 100.776 77.044,100.246 77.333,100.181 77.333 C 100.116 77.333,99.895 77.490,99.689 77.681 L 99.316 78.029 99.342 91.140 C 99.360 99.928,99.427 104.359,99.544 104.580 C 99.694 104.861,99.613 104.999,98.985 105.530 C 98.158 106.228,93.674 109.931,93.417 110.128 C 92.941 110.491,89.635 113.212,88.636 114.062 C 88.004 114.601,87.450 115.006,87.407 114.962 C 87.226 114.782,87.337 80.279,87.519 80.060 C 87.620 79.939,87.900 79.737,88.143 79.612 C 88.385 79.486,89.333 78.949,90.250 78.418 C 91.167 77.887,92.217 77.287,92.583 77.083 C 94.082 76.253,94.605 75.946,95.026 75.647 C 95.269 75.475,95.521 75.333,95.585 75.333 C 95.650 75.333,96.763 74.705,98.060 73.937 C 99.356 73.169,101.729 71.790,103.333 70.872 C 107.904 68.258,110.402 66.809,110.583 66.668 C 110.675 66.597,111.350 66.217,112.083 65.824 C 112.817 65.431,113.955 64.785,114.613 64.388 C 115.272 63.991,115.858 63.667,115.916 63.667 C 115.974 63.667,116.268 63.479,116.569 63.250 C 116.869 63.021,117.184 62.833,117.269 62.833 C 117.354 62.833,117.872 62.535,118.420 62.171 C 118.968 61.807,119.470 61.507,119.536 61.505 C 119.654 61.500,122.721 59.728,124.167 58.829 C 124.579 58.572,124.975 58.356,125.046 58.348 C 125.117 58.340,125.155 59.474,125.129 60.868 M301.917 59.063 C 301.642 59.272,300.929 59.655,300.333 59.914 C 299.737 60.173,298.087 60.927,296.667 61.588 C 293.410 63.105,292.676 63.432,292.208 63.575 C 291.465 63.802,291.879 64.170,294.654 65.747 C 298.203 67.766,297.848 67.123,297.795 71.435 L 297.750 75.078 295.750 76.545 C 293.103 78.487,291.880 79.381,288.779 81.638 C 287.353 82.677,286.097 83.633,285.989 83.763 C 285.380 84.498,285.339 84.184,285.294 78.375 L 285.250 72.750 279.287 72.706 C 274.600 72.672,273.311 72.707,273.259 72.873 C 273.120 73.323,273.008 114.928,273.145 115.141 C 273.282 115.354,275.511 113.626,285.167 105.823 C 286.129 105.046,287.115 104.261,287.356 104.080 C 288.581 103.162,310.966 85.158,311.134 84.956 C 311.398 84.638,311.429 63.733,311.165 63.415 C 311.068 63.298,309.622 62.471,307.952 61.577 C 306.283 60.684,304.416 59.664,303.804 59.310 C 302.511 58.562,302.565 58.569,301.917 59.063 M304.106 59.782 C 304.919 60.212,305.608 60.624,305.639 60.698 C 305.669 60.773,305.823 60.833,305.981 60.833 C 306.138 60.833,306.338 60.899,306.425 60.980 C 306.512 61.060,306.996 61.349,307.500 61.621 C 308.004 61.894,308.942 62.400,309.583 62.746 C 310.225 63.092,310.840 63.446,310.949 63.533 C 311.099 63.653,311.152 66.273,311.162 74.229 L 311.175 84.767 310.557 85.258 C 310.218 85.529,309.297 86.260,308.511 86.883 C 307.726 87.506,306.963 88.115,306.816 88.235 C 306.513 88.484,300.925 92.950,300.437 93.333 C 300.262 93.471,299.886 93.777,299.601 94.014 C 299.316 94.251,295.497 97.326,291.113 100.848 C 286.730 104.369,282.230 107.984,281.113 108.882 C 279.997 109.779,278.773 110.754,278.394 111.048 C 278.015 111.343,276.750 112.359,275.584 113.307 C 274.418 114.255,273.416 114.968,273.357 114.890 C 273.298 114.813,273.269 105.356,273.293 93.875 L 273.336 73.000 279.168 73.000 L 285.000 73.000 285.003 78.458 C 285.006 85.133,284.891 84.862,287.023 83.233 C 287.840 82.608,290.650 80.539,295.667 76.868 C 298.411 74.859,298.167 75.411,298.167 71.232 C 298.167 68.049,298.135 67.638,297.875 67.399 C 297.537 67.089,292.495 64.167,292.299 64.167 C 292.226 64.167,292.167 64.092,292.167 64.000 C 292.167 63.908,292.249 63.833,292.350 63.833 C 292.599 63.833,293.415 63.476,296.883 61.846 C 297.874 61.381,298.717 61.000,298.758 61.000 C 298.831 61.000,300.391 60.302,301.792 59.643 C 302.181 59.460,302.500 59.240,302.500 59.155 C 302.500 58.931,302.492 58.928,304.106 59.782 M239.111 61.278 C 239.050 61.339,238.999 74.033,238.997 89.486 C 238.995 116.954,238.987 117.613,238.664 118.896 C 238.140 120.975,238.223 121.201,239.203 120.367 C 239.504 120.110,240.532 119.341,241.488 118.658 C 242.444 117.975,243.569 117.171,243.988 116.870 C 244.407 116.569,245.012 116.142,245.333 115.922 C 245.654 115.702,247.117 114.650,248.583 113.584 C 250.050 112.518,251.605 111.410,252.038 111.120 C 253.088 110.418,253.091 110.385,252.195 109.064 L 251.417 107.917 251.373 88.042 C 251.349 77.110,251.292 68.167,251.246 68.167 C 251.200 68.167,251.023 68.253,250.853 68.359 C 250.526 68.564,250.826 68.748,242.230 63.056 C 239.235 61.073,239.287 61.102,239.111 61.278 M214.303 61.762 C 214.251 62.184,210.443 64.344,206.218 66.348 C 204.833 67.005,204.776 67.132,205.625 67.682 L 206.250 68.086 206.293 83.479 C 206.333 98.028,206.351 98.868,206.626 98.794 C 206.786 98.752,208.079 97.849,209.500 96.788 C 210.921 95.727,213.508 93.815,215.250 92.540 L 218.417 90.222 218.426 77.069 C 218.436 62.016,218.530 63.513,217.539 62.990 C 217.115 62.767,216.268 62.302,215.659 61.958 C 214.341 61.215,214.369 61.220,214.303 61.762 M241.421 62.874 C 242.335 63.492,243.233 64.101,243.417 64.227 C 243.600 64.353,244.200 64.741,244.750 65.090 C 246.911 66.458,250.004 68.538,250.093 68.682 C 250.144 68.765,250.358 68.833,250.569 68.833 C 251.139 68.833,251.162 69.642,251.166 89.896 L 251.170 107.876 251.919 108.946 C 252.882 110.323,252.891 110.283,251.375 111.336 C 250.665 111.829,249.371 112.764,248.500 113.413 C 247.629 114.062,246.317 115.010,245.583 115.520 C 244.850 116.029,242.990 117.358,241.450 118.473 C 239.910 119.588,238.608 120.500,238.556 120.500 C 238.458 120.500,238.475 120.408,238.891 118.750 C 239.107 117.889,239.159 113.837,239.263 89.631 C 239.353 68.882,239.434 61.543,239.572 61.631 C 239.675 61.696,240.507 62.256,241.421 62.874 M216.750 62.832 C 217.300 63.129,217.840 63.457,217.950 63.561 C 218.101 63.704,218.162 66.949,218.200 76.908 L 218.250 90.066 217.500 90.635 C 217.088 90.947,216.563 91.347,216.333 91.523 C 215.740 91.978,214.407 92.960,213.198 93.833 C 212.626 94.246,210.930 95.502,209.427 96.625 C 207.925 97.748,206.642 98.667,206.577 98.667 C 206.513 98.667,206.510 91.823,206.572 83.458 C 206.634 75.094,206.625 68.166,206.551 68.063 C 206.477 67.960,206.163 67.722,205.853 67.534 L 205.289 67.194 206.270 66.695 C 206.809 66.421,208.338 65.624,209.667 64.924 C 210.996 64.224,212.664 63.373,213.374 63.034 C 214.438 62.525,214.665 62.348,214.666 62.028 L 214.667 61.639 215.208 61.966 C 215.506 62.146,216.200 62.535,216.750 62.832 M191.748 73.642 C 191.657 73.728,189.221 74.978,186.333 76.422 C 183.446 77.865,180.878 79.190,180.627 79.366 L 180.171 79.686 180.118 98.718 C 180.089 109.186,180.005 117.956,179.930 118.208 C 179.718 118.924,179.962 118.801,182.445 116.940 C 185.489 114.661,191.649 110.101,192.953 109.163 C 194.177 108.283,194.182 108.255,193.375 107.131 L 192.750 106.261 192.667 89.922 C 192.584 73.710,192.581 73.583,192.248 73.535 C 192.064 73.509,191.839 73.557,191.748 73.642 M192.333 89.758 C 192.333 107.297,192.255 105.956,193.356 107.357 C 194.015 108.196,194.075 108.105,191.708 109.843 C 188.964 111.858,182.697 116.504,181.445 117.452 C 180.096 118.472,179.772 118.571,180.162 117.843 C 180.263 117.654,180.329 110.506,180.339 98.690 C 180.351 84.753,180.405 79.806,180.545 79.711 C 181.010 79.399,191.938 73.869,192.125 73.852 C 192.290 73.837,192.333 77.119,192.333 89.758 " stroke="none" fill="#b16c41" fill-rule="evenodd"></path><path id="path2" d="M133.499 74.958 C 133.498 84.377,133.491 93.945,133.483 96.220 L 133.468 100.357 134.224 101.054 C 134.639 101.437,135.415 102.164,135.948 102.670 C 136.481 103.176,137.967 104.561,139.250 105.748 C 140.533 106.934,142.033 108.327,142.583 108.842 C 143.133 109.358,144.896 111.004,146.500 112.500 C 148.104 113.997,149.729 115.518,150.110 115.880 L 150.803 116.539 152.443 115.150 C 153.345 114.386,154.646 113.278,155.333 112.687 C 158.342 110.103,162.432 106.626,163.986 105.333 C 165.316 104.226,168.185 101.779,170.303 99.943 L 171.855 98.598 171.818 88.877 L 171.782 79.156 168.516 77.235 C 166.720 76.179,165.137 75.248,165.000 75.166 C 164.862 75.085,163.700 74.401,162.417 73.646 C 161.133 72.891,159.765 72.058,159.375 71.795 L 158.667 71.317 158.630 84.367 C 158.584 101.168,158.594 100.472,158.387 100.679 C 158.182 100.885,157.585 100.380,147.958 91.850 L 145.667 89.820 145.667 77.186 C 145.667 65.361,145.648 64.535,145.375 64.298 C 145.215 64.158,144.483 63.722,143.750 63.328 C 143.017 62.934,142.117 62.442,141.750 62.235 C 140.993 61.807,140.666 61.631,138.000 60.215 C 136.946 59.655,135.529 58.890,134.852 58.515 C 134.175 58.140,133.593 57.833,133.560 57.833 C 133.527 57.833,133.499 65.540,133.499 74.958 M124.167 58.829 C 122.721 59.728,119.654 61.500,119.536 61.505 C 119.470 61.507,118.968 61.807,118.420 62.171 C 117.872 62.535,117.354 62.833,117.269 62.833 C 117.184 62.833,116.869 63.021,116.569 63.250 C 116.268 63.479,115.974 63.667,115.916 63.667 C 115.858 63.667,115.272 63.991,114.613 64.388 C 113.955 64.785,112.817 65.431,112.083 65.824 C 111.350 66.217,110.675 66.597,110.583 66.668 C 110.402 66.809,107.904 68.258,103.333 70.872 C 101.729 71.790,99.356 73.169,98.060 73.937 C 96.763 74.705,95.650 75.333,95.585 75.333 C 95.521 75.333,95.269 75.475,95.026 75.647 C 94.605 75.946,94.082 76.253,92.583 77.083 C 92.217 77.287,91.167 77.887,90.250 78.418 C 89.333 78.949,88.385 79.486,88.143 79.612 C 87.900 79.737,87.620 79.939,87.519 80.060 C 87.337 80.279,87.226 114.782,87.407 114.962 C 87.450 115.006,88.004 114.601,88.636 114.062 C 89.635 113.212,92.941 110.491,93.417 110.128 C 93.674 109.931,98.158 106.228,98.985 105.530 C 99.613 104.999,99.694 104.861,99.544 104.580 C 99.427 104.359,99.360 99.928,99.342 91.140 L 99.316 78.029 99.689 77.681 C 99.895 77.490,100.116 77.333,100.181 77.333 C 100.246 77.333,100.776 77.044,101.358 76.691 C 101.940 76.338,102.942 75.772,103.583 75.433 C 104.225 75.094,104.862 74.747,105.000 74.662 C 105.511 74.345,109.395 72.167,109.450 72.167 C 109.481 72.167,109.786 71.992,110.128 71.779 C 110.470 71.566,111.336 71.076,112.053 70.690 C 112.769 70.303,114.231 69.491,115.303 68.884 C 116.374 68.277,117.494 67.664,117.792 67.522 C 118.090 67.380,118.333 67.205,118.333 67.132 C 118.333 67.059,118.427 67.000,118.542 67.000 C 118.656 66.999,119.162 66.751,119.667 66.448 C 120.171 66.145,121.146 65.591,121.833 65.216 C 122.521 64.842,123.533 64.281,124.083 63.969 L 125.083 63.403 125.129 60.868 C 125.155 59.474,125.117 58.340,125.046 58.348 C 124.975 58.356,124.579 58.572,124.167 58.829 M302.500 59.155 C 302.500 59.240,302.181 59.460,301.792 59.643 C 300.391 60.302,298.831 61.000,298.758 61.000 C 298.717 61.000,297.874 61.381,296.883 61.846 C 293.415 63.476,292.599 63.833,292.350 63.833 C 292.249 63.833,292.167 63.908,292.167 64.000 C 292.167 64.092,292.226 64.167,292.299 64.167 C 292.495 64.167,297.537 67.089,297.875 67.399 C 298.135 67.638,298.167 68.049,298.167 71.232 C 298.167 75.411,298.411 74.859,295.667 76.868 C 290.650 80.539,287.840 82.608,287.023 83.233 C 284.891 84.862,285.006 85.133,285.003 78.458 L 285.000 73.000 279.168 73.000 L 273.336 73.000 273.293 93.875 C 273.269 105.356,273.298 114.813,273.357 114.890 C 273.416 114.968,274.418 114.255,275.584 113.307 C 276.750 112.359,278.015 111.343,278.394 111.048 C 278.773 110.754,279.997 109.779,281.113 108.882 C 282.230 107.984,286.730 104.369,291.113 100.848 C 295.497 97.326,299.316 94.251,299.601 94.014 C 299.886 93.777,300.262 93.471,300.437 93.333 C 300.925 92.950,306.513 88.484,306.816 88.235 C 306.963 88.115,307.726 87.506,308.511 86.883 C 309.297 86.260,310.218 85.529,310.557 85.258 L 311.175 84.767 311.162 74.229 C 311.152 66.273,311.099 63.653,310.949 63.533 C 310.840 63.446,310.225 63.092,309.583 62.746 C 308.942 62.400,308.004 61.894,307.500 61.621 C 306.996 61.349,306.512 61.060,306.425 60.980 C 306.338 60.899,306.138 60.833,305.981 60.833 C 305.823 60.833,305.669 60.773,305.639 60.698 C 305.511 60.388,302.500 58.907,302.500 59.155 M239.263 89.631 C 239.159 113.837,239.107 117.889,238.891 118.750 C 238.475 120.408,238.458 120.500,238.556 120.500 C 238.608 120.500,239.910 119.588,241.450 118.473 C 242.990 117.358,244.850 116.029,245.583 115.520 C 246.317 115.010,247.629 114.062,248.500 113.413 C 249.371 112.764,250.665 111.829,251.375 111.336 C 252.891 110.283,252.882 110.323,251.919 108.946 L 251.170 107.876 251.166 89.896 C 251.162 69.642,251.139 68.833,250.569 68.833 C 250.358 68.833,250.144 68.765,250.093 68.682 C 250.004 68.538,246.911 66.458,244.750 65.090 C 244.200 64.741,243.600 64.353,243.417 64.227 C 242.774 63.786,239.757 61.749,239.572 61.631 C 239.434 61.543,239.353 68.882,239.263 89.631 M214.666 62.028 C 214.665 62.348,214.438 62.525,213.374 63.034 C 212.664 63.373,210.996 64.224,209.667 64.924 C 208.338 65.624,206.809 66.421,206.270 66.695 L 205.289 67.194 205.853 67.534 C 206.163 67.722,206.477 67.960,206.551 68.063 C 206.625 68.166,206.634 75.094,206.572 83.458 C 206.510 91.823,206.513 98.667,206.577 98.667 C 206.642 98.667,207.925 97.748,209.427 96.625 C 210.930 95.502,212.626 94.246,213.198 93.833 C 214.407 92.960,215.740 91.978,216.333 91.523 C 216.563 91.347,217.088 90.947,217.500 90.635 L 218.250 90.066 218.200 76.908 C 218.162 66.949,218.101 63.704,217.950 63.561 C 217.840 63.457,217.300 63.129,216.750 62.832 C 216.200 62.535,215.506 62.146,215.208 61.966 L 214.667 61.639 214.666 62.028 M186.326 76.727 C 183.252 78.298,180.650 79.641,180.545 79.711 C 180.405 79.806,180.351 84.753,180.339 98.690 C 180.329 110.506,180.263 117.654,180.162 117.843 C 179.772 118.571,180.096 118.472,181.445 117.452 C 182.697 116.504,188.964 111.858,191.708 109.843 C 194.075 108.105,194.015 108.196,193.356 107.357 C 192.255 105.956,192.333 107.297,192.333 89.758 C 192.333 77.119,192.290 73.837,192.125 73.852 C 192.010 73.863,189.401 75.156,186.326 76.727 " stroke="none" fill="#ef9b33" fill-rule="evenodd"></path><path id="path3" d="M79.667 9.595 C 79.667 9.836,80.255 10.625,82.871 13.892 L 83.824 15.083 83.829 65.938 L 83.833 116.793 83.408 117.772 C 83.174 118.310,82.882 118.975,82.759 119.250 C 82.308 120.261,82.015 120.950,81.413 122.417 C 81.074 123.242,80.722 124.009,80.630 124.123 C 80.138 124.730,80.782 124.990,81.388 124.428 C 81.629 124.206,82.971 123.101,84.371 121.974 C 85.771 120.847,86.954 119.883,87.000 119.833 C 87.046 119.783,88.096 118.919,89.333 117.912 C 90.571 116.906,92.321 115.483,93.222 114.750 C 94.124 114.017,95.368 113.004,95.988 112.500 C 96.608 111.996,98.083 110.798,99.266 109.838 C 100.449 108.877,102.096 107.527,102.926 106.838 C 104.819 105.266,105.756 104.509,106.337 104.083 C 109.821 101.532,109.810 101.308,106.208 101.334 C 104.673 101.345,103.323 101.350,103.208 101.344 C 103.044 101.336,103.000 99.068,103.000 90.593 L 103.000 79.853 105.097 78.665 C 106.251 78.012,107.507 77.306,107.889 77.095 C 110.061 75.898,113.653 73.899,114.083 73.648 C 114.358 73.487,115.033 73.114,115.583 72.820 C 116.133 72.525,116.863 72.107,117.205 71.892 C 117.547 71.676,117.862 71.500,117.906 71.500 C 117.950 71.500,118.380 71.268,118.861 70.984 C 119.343 70.699,120.228 70.200,120.827 69.874 C 123.192 68.586,126.449 66.760,127.038 66.390 C 127.380 66.175,127.726 66.000,127.806 66.000 C 127.886 66.000,128.150 65.816,128.392 65.591 L 128.833 65.183 128.833 40.623 C 128.833 21.225,128.790 16.009,128.625 15.805 C 128.510 15.663,127.929 15.259,127.333 14.907 C 126.737 14.555,125.366 13.720,124.286 13.050 C 123.206 12.381,122.293 11.833,122.257 11.833 C 122.221 11.833,121.285 11.271,120.178 10.583 L 118.163 9.333 98.915 9.333 C 81.529 9.333,79.667 9.359,79.667 9.595 M136.124 10.042 C 134.034 12.660,130.295 17.610,130.027 18.114 C 129.881 18.388,129.833 28.807,129.833 60.089 L 129.833 101.700 130.378 102.225 C 131.032 102.856,133.227 104.903,134.594 106.158 C 135.138 106.657,136.146 107.594,136.835 108.241 C 137.523 108.888,138.611 109.897,139.251 110.483 C 139.892 111.070,140.905 112.008,141.503 112.567 C 142.100 113.126,143.075 114.033,143.670 114.583 C 146.142 116.870,149.110 119.630,149.811 120.292 C 150.758 121.188,150.623 121.215,152.300 119.792 C 153.083 119.127,154.742 117.729,155.987 116.684 C 157.232 115.640,158.700 114.390,159.250 113.907 C 159.800 113.424,160.819 112.554,161.514 111.973 C 162.619 111.049,165.992 108.195,170.667 104.229 C 171.446 103.567,172.721 102.487,173.500 101.827 C 174.279 101.168,175.010 100.510,175.125 100.366 C 175.290 100.157,175.333 91.613,175.333 58.907 L 175.333 17.712 174.964 17.231 C 174.761 16.966,173.954 16.009,173.172 15.104 C 172.390 14.199,171.238 12.849,170.611 12.104 C 169.985 11.359,169.175 10.431,168.811 10.042 L 168.148 9.333 152.419 9.333 L 136.689 9.333 136.124 10.042 M172.500 9.583 C 172.500 9.720,172.748 10.114,173.052 10.458 C 173.356 10.802,174.331 11.993,175.219 13.104 L 176.833 15.126 176.833 66.030 L 176.833 116.934 176.432 118.425 C 175.648 121.340,175.343 122.442,174.754 124.487 C 174.336 125.939,174.210 126.610,174.333 126.733 C 174.539 126.939,174.273 127.110,177.363 124.792 C 178.676 123.807,181.325 121.838,183.250 120.417 C 185.175 118.996,187.050 117.606,187.417 117.328 C 188.018 116.872,194.262 112.254,197.292 110.024 C 198.498 109.136,198.733 108.734,198.269 108.349 C 198.142 108.244,197.580 107.463,197.021 106.615 L 196.004 105.073 196.000 85.828 C 195.998 75.244,195.997 66.531,195.998 66.467 C 195.999 66.403,196.619 66.686,197.375 67.094 C 198.131 67.503,199.706 68.337,200.874 68.949 L 202.998 70.061 203.041 87.642 C 203.072 100.535,203.134 105.239,203.272 105.285 C 203.375 105.320,204.050 104.907,204.772 104.369 C 206.033 103.428,211.204 99.631,212.583 98.633 C 212.950 98.368,214.079 97.536,215.092 96.784 C 216.105 96.032,217.402 95.079,217.973 94.667 C 218.545 94.254,219.368 93.654,219.804 93.333 C 220.239 93.013,221.249 92.273,222.048 91.690 C 223.728 90.465,223.787 90.276,222.734 89.489 C 222.313 89.174,221.901 88.790,221.818 88.636 C 221.731 88.475,221.667 82.638,221.667 74.953 C 221.667 62.397,221.648 61.536,221.375 61.299 C 221.215 61.160,220.371 60.671,219.500 60.211 C 217.669 59.246,215.352 58.017,213.917 57.249 C 213.367 56.955,212.092 56.281,211.083 55.751 C 210.075 55.220,209.192 54.735,209.120 54.672 C 209.049 54.609,210.099 53.931,211.454 53.166 C 212.808 52.402,214.916 51.189,216.136 50.471 C 217.357 49.754,218.378 49.167,218.404 49.167 C 218.430 49.167,219.157 48.761,220.018 48.266 L 221.583 47.366 221.623 31.641 C 221.645 22.993,221.607 15.839,221.540 15.745 C 221.420 15.578,219.218 14.167,219.077 14.167 C 219.038 14.167,218.574 13.890,218.045 13.551 C 217.516 13.213,216.671 12.697,216.167 12.406 C 215.662 12.115,214.315 11.304,213.172 10.605 L 211.094 9.333 191.797 9.333 C 174.772 9.333,172.500 9.363,172.500 9.583 M219.079 9.508 C 218.980 9.667,219.270 10.075,221.000 12.219 C 221.321 12.616,221.977 13.453,222.458 14.079 L 223.333 15.216 223.333 22.192 C 223.333 26.028,223.352 29.183,223.375 29.203 C 223.398 29.223,226.192 29.280,229.583 29.328 L 235.750 29.417 235.750 73.250 L 235.750 117.083 235.380 118.667 C 234.930 120.591,234.277 123.476,233.909 125.167 C 233.760 125.854,233.536 126.787,233.411 127.239 C 233.109 128.338,233.408 128.693,234.123 128.083 C 234.414 127.835,236.185 126.549,241.167 122.970 C 242.588 121.949,245.362 119.951,247.333 118.531 C 249.304 117.110,252.267 114.976,253.917 113.787 C 257.990 110.852,257.744 111.410,256.068 108.909 L 254.667 106.816 254.667 68.075 L 254.667 29.333 261.178 29.333 C 265.388 29.333,267.804 29.272,268.014 29.159 C 268.329 28.990,268.339 28.764,268.330 21.971 C 268.319 14.592,268.344 14.333,269.069 14.333 C 269.755 14.333,269.746 14.087,269.833 35.324 L 269.917 55.566 271.333 56.386 C 272.556 57.093,274.714 58.312,277.500 59.867 C 277.912 60.098,278.962 60.697,279.833 61.199 C 280.704 61.701,281.829 62.337,282.333 62.612 C 283.402 63.194,289.901 66.879,292.625 68.447 L 294.500 69.526 294.500 71.427 L 294.500 73.327 292.875 74.528 C 289.178 77.261,288.803 77.525,288.722 77.444 C 288.676 77.398,288.626 75.610,288.611 73.472 L 288.583 69.583 279.250 69.583 L 269.917 69.583 269.833 93.250 L 269.750 116.917 269.364 117.750 C 268.848 118.866,268.812 118.947,267.850 121.259 C 267.390 122.364,266.899 123.489,266.758 123.759 C 265.931 125.345,266.518 125.010,271.336 121.143 C 273.672 119.268,282.333 112.327,290.583 105.717 C 298.833 99.108,307.542 92.130,309.935 90.210 C 312.328 88.291,314.410 86.673,314.560 86.615 C 314.810 86.519,314.830 85.481,314.793 74.214 L 314.752 61.917 314.708 74.120 C 314.665 86.285,314.663 86.323,314.318 86.508 C 314.127 86.610,313.809 86.831,313.611 87.000 C 313.412 87.168,311.107 89.018,308.487 91.111 C 305.868 93.204,301.107 97.017,297.908 99.583 C 294.708 102.150,291.889 104.400,291.642 104.583 C 291.396 104.767,285.744 109.291,279.082 114.638 C 272.421 119.985,266.932 124.321,266.885 124.274 C 266.838 124.227,266.997 123.769,267.240 123.257 C 267.482 122.744,268.183 121.146,268.798 119.704 L 269.917 117.083 270.000 93.417 L 270.083 69.750 279.205 69.707 L 288.327 69.664 288.372 73.707 C 288.411 77.275,288.448 77.748,288.681 77.731 C 288.922 77.715,293.576 74.393,294.458 73.609 C 294.834 73.274,295.033 70.381,294.733 69.600 C 294.633 69.339,293.629 68.737,287.750 65.415 C 283.362 62.935,278.970 60.447,274.167 57.722 L 270.083 55.405 270.044 35.195 C 270.006 16.195,269.986 14.960,269.710 14.583 C 269.237 13.934,268.963 13.922,268.458 14.524 L 268.000 15.071 268.000 22.035 L 268.000 29.000 261.458 29.003 C 257.860 29.004,254.823 29.065,254.708 29.138 C 254.541 29.244,254.499 37.142,254.499 68.073 L 254.499 106.875 254.867 107.479 C 255.069 107.811,255.670 108.714,256.201 109.485 C 256.732 110.256,257.167 110.943,257.167 111.012 C 257.167 111.168,256.268 111.826,243.500 121.008 C 241.071 122.755,237.899 125.043,236.452 126.092 C 233.706 128.082,233.389 128.251,233.569 127.625 C 233.629 127.419,234.200 124.926,234.839 122.086 L 236.000 116.923 236.000 73.161 C 236.000 39.347,235.955 29.355,235.800 29.200 C 235.652 29.052,234.033 29.000,229.550 29.000 L 223.500 29.000 223.500 21.999 L 223.500 14.998 221.417 12.407 C 220.271 10.982,219.333 9.745,219.333 9.658 C 219.333 9.559,235.121 9.500,261.629 9.500 L 303.924 9.500 307.837 11.877 C 309.989 13.184,312.387 14.624,313.167 15.077 C 313.946 15.530,314.638 15.979,314.706 16.075 C 314.778 16.178,314.829 16.128,314.831 15.954 C 314.832 15.792,314.662 15.593,314.452 15.513 C 314.242 15.434,313.173 14.826,312.077 14.163 C 310.980 13.500,309.896 12.851,309.667 12.720 C 309.438 12.590,308.980 12.318,308.650 12.116 C 308.320 11.915,307.150 11.206,306.050 10.542 L 304.049 9.333 261.618 9.333 C 232.291 9.333,219.153 9.387,219.079 9.508 M119.764 10.606 C 120.765 11.215,121.808 11.842,122.083 11.999 C 123.056 12.555,128.252 15.714,128.378 15.826 C 128.690 16.103,128.524 65.236,128.211 65.472 C 128.049 65.593,125.142 67.232,121.750 69.113 C 118.358 70.993,114.946 72.891,114.167 73.330 C 113.388 73.769,111.100 75.049,109.083 76.174 C 107.067 77.299,104.817 78.567,104.083 78.992 L 102.750 79.763 102.707 90.488 C 102.675 98.526,102.713 101.272,102.860 101.449 C 103.018 101.639,103.615 101.680,105.868 101.654 C 107.414 101.637,108.717 101.661,108.763 101.708 C 108.832 101.777,106.236 103.935,102.499 106.917 C 102.154 107.192,99.897 109.029,97.483 111.000 C 93.088 114.588,91.628 115.777,86.841 119.667 C 85.430 120.813,83.523 122.377,82.602 123.142 C 80.918 124.543,80.571 124.657,81.099 123.636 C 81.257 123.332,81.974 121.701,82.693 120.011 L 84.000 116.939 84.000 65.941 L 84.000 14.943 81.991 12.462 C 80.886 11.097,79.941 9.872,79.890 9.740 C 79.810 9.532,82.328 9.500,98.871 9.500 L 117.945 9.500 119.764 10.606 M168.287 9.792 C 168.465 9.952,169.279 10.870,170.097 11.832 C 170.914 12.793,172.175 14.256,172.898 15.082 C 173.621 15.908,174.390 16.816,174.607 17.100 L 175.001 17.616 175.002 58.933 L 175.003 100.250 174.520 100.667 C 173.271 101.744,171.167 103.528,168.500 105.771 C 166.896 107.120,165.280 108.492,164.908 108.820 C 164.537 109.148,163.605 109.942,162.836 110.583 C 162.067 111.225,160.571 112.489,159.511 113.393 C 156.900 115.618,156.892 115.626,155.664 116.661 C 152.898 118.992,151.245 120.427,151.194 120.542 C 151.080 120.799,150.373 120.654,150.067 120.309 C 149.893 120.113,147.612 117.964,145.000 115.534 C 142.387 113.105,139.798 110.697,139.247 110.183 C 138.695 109.670,136.426 107.567,134.205 105.509 L 130.167 101.769 130.167 60.005 C 130.167 21.020,130.185 18.213,130.449 17.829 C 131.027 16.986,136.069 10.400,136.475 9.958 L 136.896 9.500 152.429 9.500 C 166.989 9.500,167.983 9.518,168.287 9.792 M214.669 11.771 C 216.730 13.021,218.679 14.191,219.000 14.373 C 219.321 14.554,220.015 14.968,220.543 15.292 L 221.502 15.882 221.459 31.540 L 221.417 47.199 215.167 50.771 C 211.729 52.735,208.894 54.444,208.866 54.569 C 208.835 54.711,209.614 55.218,210.950 55.924 C 212.123 56.545,213.383 57.218,213.750 57.419 C 214.589 57.878,216.712 59.008,219.083 60.256 C 220.092 60.786,221.048 61.302,221.208 61.400 C 221.482 61.569,221.500 62.405,221.500 75.123 C 221.500 87.846,221.518 88.684,221.794 88.958 C 221.956 89.119,222.385 89.493,222.748 89.791 C 223.554 90.452,223.930 90.062,219.083 93.593 C 216.975 95.129,214.762 96.746,214.167 97.187 C 213.571 97.628,212.783 98.206,212.417 98.472 C 211.560 99.094,206.663 102.692,204.868 104.019 C 204.108 104.581,203.450 105.006,203.407 104.962 C 203.363 104.918,203.328 97.090,203.329 87.566 C 203.329 78.042,203.274 70.165,203.207 70.061 C 203.067 69.846,202.541 69.549,199.250 67.832 C 197.967 67.162,196.769 66.514,196.588 66.390 C 195.595 65.715,195.666 64.224,195.671 85.625 L 195.675 105.083 197.004 106.973 C 197.735 108.013,198.333 108.889,198.333 108.920 C 198.333 108.983,196.978 109.999,191.667 113.921 C 189.696 115.376,186.958 117.400,185.583 118.419 C 184.208 119.439,182.183 120.937,181.083 121.749 C 179.293 123.071,175.993 125.545,174.871 126.408 L 174.449 126.732 174.536 126.324 C 174.584 126.100,175.195 123.834,175.895 121.289 L 177.167 116.662 177.167 65.929 L 177.167 15.196 175.000 12.506 C 173.808 11.027,172.833 9.745,172.833 9.658 C 172.833 9.559,179.980 9.500,191.877 9.500 L 210.921 9.500 214.669 11.771 M86.667 12.932 C 86.667 12.986,86.821 13.227,87.010 13.467 L 87.353 13.903 87.233 45.429 C 87.168 62.769,87.160 77.075,87.216 77.222 C 87.302 77.446,87.488 77.382,88.368 76.827 C 88.945 76.463,89.529 76.115,89.667 76.054 C 90.102 75.862,94.246 73.466,94.333 73.356 C 94.379 73.297,94.717 73.103,95.083 72.923 C 95.450 72.743,96.145 72.349,96.628 72.048 C 97.111 71.746,97.541 71.500,97.583 71.500 C 97.625 71.500,98.412 71.050,99.333 70.500 C 100.254 69.950,101.055 69.500,101.113 69.500 C 101.171 69.500,101.451 69.330,101.734 69.122 C 102.018 68.913,102.475 68.634,102.750 68.500 C 103.025 68.366,103.830 67.899,104.540 67.462 C 105.249 67.024,105.869 66.667,105.918 66.667 C 105.967 66.667,106.324 66.466,106.712 66.222 C 107.099 65.977,107.829 65.554,108.333 65.282 C 108.837 65.009,109.368 64.685,109.513 64.560 C 109.658 64.435,109.820 64.333,109.875 64.333 C 109.929 64.333,110.735 63.883,111.667 63.333 C 112.598 62.783,113.404 62.333,113.456 62.333 C 113.509 62.333,113.784 62.163,114.068 61.955 C 114.351 61.747,114.808 61.467,115.083 61.334 C 115.358 61.200,115.883 60.908,116.249 60.684 C 117.247 60.075,119.628 58.695,120.667 58.124 C 121.171 57.847,121.696 57.533,121.833 57.427 C 121.971 57.321,122.496 57.021,123.000 56.760 C 123.504 56.499,124.155 56.109,124.447 55.893 C 124.739 55.677,125.064 55.500,125.169 55.500 C 125.311 55.500,125.346 50.730,125.305 36.628 L 125.250 17.757 123.750 16.812 C 122.925 16.292,121.875 15.668,121.417 15.426 C 120.958 15.183,119.796 14.501,118.833 13.910 L 117.083 12.834 101.875 12.834 C 93.510 12.834,86.667 12.878,86.667 12.932 M138.307 13.042 C 138.165 13.156,137.833 13.550,137.567 13.917 C 137.302 14.283,137.042 14.621,136.990 14.667 C 136.937 14.713,136.112 15.762,135.155 17.000 L 133.417 19.250 133.373 37.014 C 133.331 53.807,133.345 54.791,133.623 55.031 C 133.784 55.170,134.667 55.679,135.583 56.163 C 136.500 56.647,137.737 57.321,138.333 57.662 C 138.929 58.003,140.129 58.661,141.000 59.124 C 141.871 59.587,143.215 60.311,143.987 60.733 C 144.759 61.155,145.493 61.500,145.618 61.500 C 145.808 61.500,145.837 58.514,145.797 42.958 L 145.750 24.417 152.083 24.417 L 158.417 24.417 158.453 46.400 C 158.473 58.491,158.510 68.437,158.536 68.501 C 158.585 68.624,161.269 70.333,161.412 70.333 C 161.457 70.333,161.904 70.596,162.405 70.917 C 162.907 71.237,163.354 71.500,163.399 71.500 C 163.443 71.500,164.178 71.935,165.032 72.467 C 165.885 72.999,166.994 73.656,167.496 73.926 C 167.998 74.196,168.775 74.660,169.221 74.958 C 169.668 75.256,170.109 75.500,170.201 75.500 C 170.293 75.500,170.591 75.688,170.864 75.917 C 172.014 76.885,171.921 79.462,171.877 47.875 C 171.856 32.223,171.802 19.263,171.758 19.076 C 171.682 18.753,169.064 15.585,167.322 13.708 L 166.509 12.833 152.537 12.833 C 141.606 12.833,138.508 12.879,138.307 13.042 M179.667 12.934 C 179.667 12.990,179.859 13.264,180.095 13.544 L 180.523 14.053 180.430 18.068 C 180.165 29.399,180.137 77.000,180.396 77.000 C 180.651 77.000,192.128 71.271,192.384 71.015 C 192.458 70.942,192.512 68.664,192.505 65.953 C 192.491 60.625,192.495 60.603,193.378 61.133 C 193.674 61.311,194.629 61.831,195.500 62.290 C 196.371 62.749,197.796 63.501,198.667 63.961 C 199.537 64.422,200.785 65.073,201.439 65.410 L 202.628 66.022 203.939 65.323 C 204.660 64.938,205.438 64.506,205.667 64.362 C 205.896 64.219,207.171 63.546,208.500 62.867 C 212.832 60.654,213.075 60.480,212.270 60.174 C 212.051 60.091,209.842 58.930,207.361 57.595 C 204.879 56.259,202.773 55.167,202.680 55.167 C 201.998 55.167,202.212 54.500,203.042 54.037 C 203.523 53.768,204.442 53.250,205.083 52.886 C 205.725 52.521,206.617 52.014,207.065 51.759 C 207.513 51.505,208.890 50.705,210.125 49.982 C 211.360 49.258,212.398 48.667,212.433 48.667 C 212.468 48.667,213.303 48.190,214.290 47.608 C 215.276 47.026,216.592 46.269,217.214 45.924 L 218.345 45.298 218.327 31.561 L 218.308 17.825 217.946 17.603 C 217.746 17.481,216.608 16.781,215.417 16.048 C 214.225 15.314,212.912 14.536,212.500 14.318 C 212.088 14.100,211.563 13.783,211.333 13.612 C 210.252 12.810,210.753 12.833,194.730 12.833 C 186.445 12.833,179.667 12.879,179.667 12.934 M226.167 12.974 C 226.167 13.052,226.318 13.252,226.504 13.420 C 226.830 13.716,226.841 13.909,226.833 19.571 C 226.829 22.786,226.827 25.510,226.829 25.625 C 226.832 25.788,228.180 25.833,232.999 25.833 L 239.165 25.833 239.208 42.195 L 239.250 58.557 240.268 59.269 C 240.828 59.660,241.516 60.116,241.798 60.282 C 242.079 60.448,242.989 61.052,243.820 61.625 C 244.650 62.198,245.360 62.667,245.396 62.667 C 245.432 62.667,245.928 62.985,246.497 63.375 C 247.067 63.765,247.705 64.196,247.916 64.333 C 248.127 64.471,248.900 64.988,249.634 65.482 C 250.369 65.976,251.032 66.369,251.110 66.356 C 251.187 66.343,251.250 57.239,251.250 46.124 L 251.250 25.917 258.000 25.833 L 264.750 25.750 264.692 19.833 L 264.633 13.917 265.067 13.513 C 265.305 13.290,265.500 13.047,265.500 12.971 C 265.500 12.895,256.650 12.833,245.833 12.833 C 235.017 12.833,226.167 12.897,226.167 12.974 M272.667 12.932 C 272.667 12.986,272.826 13.230,273.021 13.474 L 273.375 13.917 273.312 33.734 L 273.250 53.550 276.500 55.406 C 279.687 57.225,283.597 59.437,284.917 60.168 C 285.283 60.372,286.431 61.024,287.467 61.617 L 289.350 62.697 290.386 62.182 C 290.956 61.898,291.471 61.667,291.531 61.667 C 291.591 61.667,292.498 61.254,293.547 60.750 C 294.595 60.246,295.501 59.833,295.560 59.833 C 295.813 59.833,300.167 57.672,300.167 57.546 C 300.167 57.418,299.371 56.970,295.258 54.781 C 294.429 54.339,293.300 53.729,292.750 53.425 C 292.200 53.120,291.150 52.552,290.417 52.161 C 287.390 50.548,285.734 49.616,285.458 49.373 C 285.186 49.132,285.167 48.351,285.167 37.472 L 285.167 25.829 291.542 25.873 L 297.917 25.917 298.000 27.500 L 298.083 29.083 304.625 29.127 L 311.167 29.171 311.167 23.437 L 311.167 17.704 309.003 16.394 C 307.813 15.673,306.364 14.821,305.783 14.500 C 305.201 14.179,304.362 13.673,303.918 13.375 L 303.110 12.833 287.888 12.833 C 279.516 12.833,272.667 12.878,272.667 12.932 M314.707 24.292 L 314.667 32.333 304.750 32.333 L 294.833 32.333 294.833 30.867 C 294.833 29.948,294.759 29.325,294.633 29.200 C 294.352 28.919,288.814 28.919,288.533 29.200 C 288.237 29.496,288.245 47.222,288.542 47.459 C 288.777 47.647,294.792 50.945,297.583 52.417 C 298.592 52.948,299.492 53.438,299.583 53.504 C 299.675 53.571,300.500 54.020,301.417 54.503 C 302.333 54.986,303.308 55.512,303.583 55.672 C 303.858 55.833,305.583 56.772,307.417 57.760 C 314.047 61.332,314.713 61.676,314.809 61.580 C 314.918 61.470,315.007 61.523,312.583 60.254 C 310.057 58.932,308.452 58.072,307.750 57.666 C 307.475 57.507,306.650 57.056,305.917 56.665 C 304.660 55.995,303.995 55.637,301.583 54.333 C 294.633 50.574,292.282 49.299,290.625 48.386 L 288.667 47.308 288.667 38.321 L 288.667 29.333 291.583 29.333 L 294.500 29.333 294.500 30.800 C 294.500 31.719,294.575 32.341,294.700 32.467 C 294.997 32.763,314.643 32.755,314.757 32.458 C 314.801 32.344,314.817 28.650,314.792 24.250 L 314.747 16.250 314.707 24.292 M113.793 40.708 L 113.750 55.582 108.667 58.632 C 105.871 60.309,102.732 62.203,101.691 62.841 C 100.650 63.478,99.675 64.000,99.525 64.000 C 99.272 64.000,99.245 62.501,99.189 44.917 L 99.128 25.833 106.481 25.833 L 113.835 25.833 113.793 40.708 M206.793 33.038 L 206.750 40.242 205.667 40.898 C 205.071 41.258,203.421 42.245,202.000 43.089 C 198.991 44.879,193.372 48.273,192.981 48.538 C 192.157 49.095,192.176 49.358,192.169 37.287 C 192.166 31.112,192.214 26.009,192.276 25.946 C 192.338 25.884,195.640 25.833,199.613 25.833 L 206.837 25.833 206.793 33.038 M149.086 27.771 C 148.936 27.921,148.856 28.152,148.907 28.285 C 148.958 28.418,149.000 42.008,149.000 58.484 L 149.000 88.441 151.936 91.012 C 153.551 92.426,154.957 93.583,155.061 93.583 C 155.416 93.583,155.408 27.970,155.053 27.708 C 154.586 27.365,149.438 27.419,149.086 27.771 M155.000 28.000 C 155.031 40.099,154.983 93.239,154.942 93.281 C 154.908 93.314,154.062 92.608,153.060 91.712 C 152.059 90.816,150.773 89.682,150.203 89.192 L 149.167 88.300 149.167 58.178 C 149.167 41.611,149.217 28.006,149.278 27.944 C 149.463 27.759,155.000 27.813,155.000 28.000 M102.533 29.200 C 102.231 29.502,102.244 58.310,102.547 58.426 C 102.734 58.497,108.790 54.980,110.161 54.004 L 110.667 53.644 110.667 41.522 C 110.667 32.316,110.619 29.352,110.467 29.200 C 110.183 28.916,102.817 28.916,102.533 29.200 M195.589 29.157 C 195.360 29.528,195.473 42.915,195.706 42.964 C 195.961 43.017,203.316 38.627,203.526 38.296 C 203.755 37.936,203.699 29.432,203.467 29.200 C 203.219 28.953,195.741 28.912,195.589 29.157 M110.333 41.491 L 110.333 53.649 108.349 54.866 C 104.057 57.499,103.075 58.085,102.875 58.137 C 102.710 58.180,102.667 55.223,102.667 43.762 L 102.667 29.333 106.500 29.333 L 110.333 29.333 110.333 41.491 M203.370 33.692 C 203.399 36.423,203.354 38.127,203.250 38.255 C 203.158 38.367,201.658 39.308,199.917 40.344 C 198.175 41.381,196.571 42.365,196.353 42.531 C 196.134 42.697,195.890 42.833,195.811 42.833 C 195.732 42.833,195.667 39.796,195.667 36.083 L 195.667 29.333 199.495 29.333 L 203.323 29.333 203.370 33.692 " stroke="none" fill="#858687" fill-rule="evenodd"></path><path id="path4" d="M78.538 1.489 C 78.147 1.554,77.738 1.695,77.630 1.803 C 77.522 1.911,77.153 2.000,76.810 2.000 C 76.467 2.000,76.140 2.075,76.083 2.167 C 76.027 2.258,75.838 2.333,75.665 2.333 C 75.492 2.333,75.290 2.427,75.217 2.542 C 75.049 2.803,74.065 3.500,73.862 3.500 C 73.688 3.500,72.833 4.742,72.833 4.996 C 72.833 5.090,72.721 5.167,72.583 5.167 C 72.439 5.167,72.333 5.317,72.333 5.523 C 72.333 5.719,72.216 5.965,72.074 6.070 C 71.526 6.470,71.548 12.500,72.098 12.500 C 72.238 12.500,72.333 12.669,72.333 12.917 C 72.333 13.146,72.394 13.333,72.468 13.333 C 72.542 13.333,72.735 13.633,72.897 14.000 C 73.058 14.367,73.260 14.667,73.345 14.667 C 73.430 14.667,73.500 14.767,73.500 14.889 C 73.500 15.011,73.706 15.298,73.958 15.526 C 74.614 16.119,75.339 17.022,75.511 17.458 C 75.592 17.665,75.735 17.833,75.829 17.833 C 76.139 17.833,76.060 115.154,75.750 115.273 C 75.596 115.332,75.500 115.586,75.500 115.934 C 75.500 116.246,75.443 116.500,75.373 116.500 C 75.239 116.500,74.667 117.717,74.667 118.001 C 74.667 118.092,74.592 118.167,74.500 118.167 C 74.408 118.167,74.333 118.392,74.333 118.667 C 74.333 118.942,74.258 119.167,74.167 119.167 C 74.075 119.167,74.000 119.345,74.000 119.563 C 74.000 119.781,73.887 120.053,73.750 120.167 C 73.612 120.281,73.500 120.480,73.500 120.610 C 73.500 120.739,73.395 121.011,73.267 121.214 C 72.637 122.214,72.642 127.441,73.275 128.180 C 73.399 128.325,73.500 128.533,73.500 128.643 C 73.500 128.754,73.612 128.887,73.750 128.940 C 73.887 128.992,74.000 129.146,74.000 129.280 C 74.000 129.591,75.946 131.500,76.263 131.500 C 76.393 131.500,76.501 131.556,76.501 131.625 C 76.504 131.851,77.387 132.167,78.015 132.167 C 78.409 132.167,78.666 132.257,78.727 132.417 C 78.868 132.785,82.465 132.785,82.606 132.417 C 82.663 132.270,82.913 132.167,83.214 132.167 C 83.807 132.167,84.833 131.828,84.833 131.633 C 84.833 131.560,84.948 131.500,85.089 131.500 C 85.229 131.500,85.387 131.387,85.440 131.250 C 85.492 131.112,85.640 131.000,85.768 131.000 C 85.896 131.000,86.000 130.887,86.000 130.750 C 86.000 130.612,86.101 130.500,86.224 130.500 C 86.347 130.500,86.584 130.350,86.750 130.167 C 86.916 129.983,87.153 129.833,87.276 129.833 C 87.399 129.833,87.500 129.721,87.500 129.583 C 87.500 129.446,87.597 129.333,87.716 129.333 C 87.835 129.333,88.192 129.073,88.508 128.755 C 88.824 128.437,89.174 128.175,89.284 128.172 C 89.394 128.169,89.914 127.754,90.439 127.250 C 90.964 126.746,91.453 126.333,91.526 126.333 C 91.599 126.333,92.054 125.953,92.538 125.488 C 93.021 125.022,93.623 124.533,93.875 124.400 C 94.127 124.267,94.333 124.085,94.333 123.996 C 94.333 123.906,94.446 123.833,94.583 123.833 C 94.721 123.833,94.833 123.721,94.833 123.583 C 94.833 123.446,94.946 123.333,95.083 123.333 C 95.221 123.333,95.333 123.258,95.333 123.167 C 95.333 123.075,95.446 123.000,95.583 123.000 C 95.721 123.000,95.833 122.925,95.833 122.833 C 95.833 122.742,95.946 122.667,96.083 122.667 C 96.221 122.667,96.333 122.554,96.333 122.417 C 96.333 122.279,96.408 122.167,96.500 122.167 C 96.592 122.167,96.817 122.035,97.000 121.875 C 97.183 121.715,97.483 121.452,97.667 121.292 C 97.850 121.131,98.040 121.000,98.089 121.000 C 98.138 121.000,98.440 120.738,98.761 120.417 C 99.082 120.096,99.390 119.833,99.445 119.833 C 99.500 119.833,99.719 119.646,99.931 119.417 C 100.144 119.187,100.379 119.000,100.455 119.000 C 100.531 119.000,100.711 118.869,100.856 118.708 C 101.246 118.276,101.817 117.833,101.984 117.833 C 102.065 117.833,102.174 117.721,102.227 117.583 C 102.280 117.446,102.434 117.333,102.570 117.333 C 102.706 117.333,102.877 117.239,102.950 117.123 C 103.160 116.791,104.776 115.500,104.981 115.500 C 105.083 115.500,105.167 115.388,105.167 115.250 C 105.167 115.112,105.279 115.000,105.417 115.000 C 105.554 115.000,105.667 114.888,105.667 114.750 C 105.667 114.612,105.760 114.499,105.875 114.498 C 106.102 114.496,107.025 113.773,108.052 112.792 C 108.412 112.448,108.773 112.167,108.853 112.167 C 108.934 112.167,109.000 112.092,109.000 112.000 C 109.000 111.908,109.074 111.833,109.164 111.833 C 109.254 111.833,109.598 111.571,109.928 111.250 C 110.258 110.929,110.672 110.667,110.848 110.667 C 111.023 110.667,111.167 110.554,111.167 110.417 C 111.167 110.279,111.279 110.167,111.417 110.167 C 111.554 110.167,111.667 110.054,111.667 109.917 C 111.667 109.779,111.761 109.667,111.877 109.667 C 111.992 109.667,112.273 109.442,112.500 109.167 C 112.727 108.892,112.977 108.667,113.055 108.667 C 113.291 108.667,114.493 107.762,114.496 107.581 C 114.498 107.488,114.688 107.272,114.917 107.100 C 115.146 106.927,115.333 106.696,115.333 106.586 C 115.333 106.475,115.494 106.242,115.690 106.067 C 116.155 105.653,116.500 104.820,116.500 104.109 C 116.500 103.797,116.613 103.447,116.750 103.333 C 116.943 103.173,117.000 102.730,117.000 101.396 C 117.000 99.970,116.956 99.667,116.750 99.667 C 116.564 99.667,116.500 99.470,116.500 98.895 C 116.500 98.225,116.091 97.205,115.674 96.833 C 115.622 96.787,115.394 96.469,115.165 96.126 C 114.937 95.783,114.656 95.502,114.542 95.501 C 114.427 95.501,114.333 95.425,114.333 95.333 C 114.333 95.242,114.221 95.167,114.083 95.167 C 113.946 95.167,113.833 95.092,113.833 95.000 C 113.833 94.908,113.725 94.833,113.592 94.833 C 113.459 94.833,113.290 94.740,113.217 94.625 C 112.988 94.267,112.055 93.833,111.516 93.833 L 111.000 93.833 111.000 89.083 C 111.000 84.420,111.006 84.333,111.339 84.333 C 111.525 84.333,111.720 84.221,111.773 84.083 C 111.826 83.946,112.007 83.833,112.175 83.833 C 112.343 83.833,112.525 83.760,112.580 83.671 C 112.635 83.582,112.996 83.367,113.382 83.194 C 113.768 83.020,114.264 82.718,114.484 82.522 C 114.704 82.327,114.985 82.167,115.109 82.167 C 115.232 82.167,115.333 82.092,115.333 82.000 C 115.333 81.908,115.480 81.833,115.658 81.833 C 115.837 81.833,116.043 81.740,116.117 81.625 C 116.271 81.384,117.650 80.666,117.958 80.666 C 118.073 80.666,118.167 80.554,118.167 80.417 C 118.167 80.279,118.292 80.167,118.445 80.167 C 118.598 80.167,118.842 80.061,118.987 79.931 C 119.132 79.801,119.513 79.625,119.833 79.538 C 120.154 79.452,120.398 79.296,120.375 79.191 C 120.352 79.086,120.474 79.000,120.646 79.000 C 120.818 79.000,121.046 78.896,121.152 78.768 C 122.029 77.711,122.000 77.307,122.000 90.432 C 122.000 98.366,122.057 102.500,122.167 102.500 C 122.258 102.500,122.333 102.833,122.333 103.240 C 122.333 103.647,122.408 104.027,122.500 104.083 C 122.592 104.140,122.667 104.371,122.667 104.596 C 122.667 105.030,123.269 106.101,123.727 106.481 C 123.877 106.606,124.000 106.848,124.000 107.020 C 124.000 107.193,124.112 107.333,124.250 107.333 C 124.388 107.333,124.501 107.427,124.502 107.542 C 124.503 107.656,124.696 107.900,124.932 108.083 C 125.168 108.267,125.619 108.660,125.936 108.958 C 126.252 109.256,126.543 109.500,126.581 109.500 C 126.722 109.500,127.500 110.353,127.500 110.508 C 127.500 110.595,127.613 110.667,127.751 110.667 C 127.889 110.667,128.170 110.865,128.376 111.108 C 128.582 111.351,129.004 111.782,129.314 112.067 C 129.625 112.351,130.118 112.808,130.411 113.083 C 131.957 114.534,132.493 115.000,132.617 115.000 C 132.693 115.000,132.831 115.169,132.925 115.375 C 133.019 115.581,133.187 115.731,133.298 115.708 C 133.409 115.685,133.500 115.779,133.500 115.917 C 133.500 116.054,133.612 116.167,133.750 116.167 C 133.887 116.167,134.000 116.279,134.000 116.417 C 134.000 116.554,134.083 116.667,134.185 116.667 C 134.441 116.667,135.160 117.371,135.164 117.625 C 135.165 117.740,135.264 117.833,135.383 117.833 C 135.502 117.833,135.858 118.093,136.175 118.411 C 136.491 118.729,136.844 118.992,136.958 118.995 C 137.073 118.998,137.167 119.077,137.167 119.172 C 137.167 119.266,137.476 119.623,137.853 119.964 C 138.231 120.304,138.804 120.827,139.127 121.125 C 139.449 121.423,139.778 121.667,139.857 121.667 C 139.935 121.667,140.000 121.779,140.000 121.917 C 140.000 122.054,140.112 122.167,140.250 122.167 C 140.387 122.167,140.500 122.279,140.500 122.417 C 140.500 122.554,140.607 122.667,140.739 122.667 C 140.870 122.667,141.025 122.817,141.083 123.000 C 141.142 123.183,141.297 123.333,141.428 123.333 C 141.559 123.333,141.667 123.446,141.667 123.583 C 141.667 123.721,141.780 123.833,141.918 123.833 C 142.057 123.833,142.298 123.983,142.455 124.167 C 142.612 124.350,142.837 124.500,142.954 124.500 C 143.071 124.500,143.167 124.612,143.167 124.750 C 143.167 124.888,143.279 125.000,143.417 125.000 C 143.554 125.000,143.667 125.094,143.668 125.208 C 143.668 125.323,143.980 125.679,144.360 126.000 C 144.741 126.321,145.147 126.677,145.264 126.792 C 145.381 126.906,145.557 127.000,145.655 127.000 C 145.753 127.000,145.833 127.112,145.833 127.250 C 145.833 127.388,145.927 127.502,146.042 127.504 C 146.156 127.506,146.438 127.654,146.667 127.833 C 146.929 128.038,147.346 128.161,147.792 128.163 C 148.309 128.166,148.500 128.234,148.500 128.417 C 148.500 128.606,148.704 128.667,149.333 128.667 C 149.792 128.667,150.167 128.742,150.167 128.833 C 150.167 129.050,151.116 129.050,151.250 128.833 C 151.307 128.742,151.677 128.667,152.073 128.667 C 152.509 128.667,152.874 128.568,153.000 128.417 C 153.114 128.279,153.421 128.167,153.682 128.167 C 154.156 128.167,155.269 127.647,155.583 127.279 C 155.675 127.171,155.952 126.979,156.199 126.852 C 156.771 126.557,158.000 125.416,158.000 125.180 C 158.000 125.081,158.075 125.000,158.167 125.000 C 158.258 125.000,158.483 124.869,158.667 124.708 C 158.850 124.548,159.150 124.285,159.333 124.125 C 159.517 123.965,159.723 123.833,159.793 123.833 C 159.862 123.833,160.137 123.571,160.405 123.250 C 160.672 122.929,160.991 122.667,161.112 122.667 C 161.234 122.667,161.333 122.554,161.333 122.417 C 161.333 122.279,161.458 122.167,161.611 122.167 C 161.764 122.167,162.007 122.053,162.153 121.915 C 163.653 120.484,164.371 119.833,164.450 119.833 C 164.503 119.833,164.719 119.646,164.931 119.417 C 165.144 119.188,165.396 119.000,165.492 119.000 C 165.588 119.000,165.667 118.888,165.667 118.750 C 165.667 118.612,165.741 118.500,165.831 118.500 C 165.993 118.500,166.446 118.171,166.996 117.654 C 167.150 117.509,167.401 117.343,167.554 117.284 C 167.708 117.225,167.833 117.105,167.833 117.016 C 167.833 116.928,167.983 116.808,168.167 116.750 C 168.350 116.692,168.500 116.537,168.500 116.405 C 168.500 116.274,168.575 116.167,168.667 116.167 C 168.921 116.167,168.865 117.165,168.605 117.265 C 168.456 117.322,168.338 117.786,168.263 118.613 C 168.196 119.354,168.049 119.974,167.908 120.116 C 167.775 120.249,167.667 120.644,167.667 120.994 C 167.667 121.406,167.579 121.665,167.417 121.727 C 167.252 121.790,167.167 122.051,167.167 122.495 C 167.167 122.864,167.092 123.167,167.000 123.167 C 166.908 123.167,166.833 123.394,166.833 123.672 C 166.833 123.950,166.721 124.447,166.583 124.776 C 166.249 125.576,166.250 127.919,166.584 128.561 C 166.721 128.823,166.833 129.288,166.833 129.593 C 166.833 129.897,166.908 130.193,167.000 130.250 C 167.092 130.307,167.167 130.499,167.167 130.677 C 167.167 130.854,167.279 131.000,167.417 131.000 C 167.554 131.000,167.667 131.109,167.667 131.242 C 167.667 131.375,167.762 131.543,167.879 131.617 C 167.995 131.690,168.181 131.956,168.292 132.208 C 168.402 132.460,168.607 132.667,168.746 132.667 C 168.886 132.667,169.000 132.742,169.000 132.833 C 169.000 132.925,169.104 133.000,169.232 133.000 C 169.360 133.000,169.500 133.094,169.545 133.208 C 169.685 133.575,171.009 134.167,171.688 134.167 C 172.117 134.167,172.377 134.253,172.440 134.417 C 172.517 134.618,172.891 134.667,174.351 134.667 C 175.854 134.667,176.167 134.624,176.167 134.417 C 176.167 134.232,176.361 134.167,176.912 134.167 C 177.670 134.167,178.594 133.756,179.372 133.073 C 179.588 132.884,179.892 132.680,180.049 132.620 C 180.205 132.560,180.333 132.433,180.333 132.339 C 180.333 132.244,180.416 132.167,180.518 132.167 C 180.677 132.167,180.995 131.944,181.951 131.164 C 182.062 131.074,182.231 131.000,182.326 131.000 C 182.422 131.000,182.500 130.887,182.500 130.750 C 182.500 130.612,182.601 130.500,182.724 130.500 C 182.847 130.500,183.084 130.350,183.250 130.167 C 183.416 129.983,183.649 129.833,183.768 129.833 C 183.886 129.833,184.043 129.738,184.117 129.621 C 184.190 129.505,184.469 129.299,184.737 129.163 C 185.716 128.668,185.833 128.584,185.833 128.377 C 185.833 128.261,185.940 128.167,186.069 128.167 C 186.199 128.167,186.668 127.829,187.111 127.417 C 187.554 127.004,187.991 126.665,188.083 126.664 C 188.232 126.662,188.768 126.243,189.750 125.359 C 189.933 125.194,190.215 125.011,190.375 124.952 C 190.535 124.892,190.667 124.766,190.667 124.672 C 190.667 124.577,190.760 124.498,190.875 124.495 C 191.132 124.488,192.000 123.741,192.000 123.526 C 192.000 123.440,192.202 123.319,192.448 123.257 C 192.695 123.195,193.175 122.924,193.514 122.656 C 193.854 122.387,194.177 122.167,194.232 122.167 C 194.288 122.167,194.483 122.035,194.667 121.875 C 195.496 121.150,195.625 121.052,195.888 120.951 C 196.041 120.892,196.167 120.771,196.167 120.683 C 196.167 120.595,196.324 120.472,196.517 120.411 C 196.710 120.350,197.169 120.008,197.537 119.650 C 197.905 119.293,198.273 119.000,198.353 119.000 C 198.434 119.000,198.500 118.893,198.500 118.763 C 198.500 118.633,198.730 118.476,199.011 118.414 C 199.292 118.352,199.563 118.196,199.612 118.068 C 199.662 117.939,199.807 117.833,199.934 117.833 C 200.062 117.833,200.167 117.721,200.167 117.583 C 200.167 117.428,200.324 117.333,200.583 117.333 C 200.828 117.333,201.000 117.238,201.000 117.101 C 201.000 116.974,201.206 116.818,201.458 116.756 C 201.710 116.694,202.119 116.423,202.366 116.155 C 202.613 115.886,202.900 115.667,203.005 115.667 C 203.260 115.667,205.000 113.845,205.000 113.579 C 205.000 113.463,205.112 113.326,205.250 113.273 C 205.387 113.220,205.500 113.062,205.500 112.922 C 205.500 112.750,205.662 112.667,205.994 112.667 C 206.527 112.667,207.667 112.191,207.667 111.969 C 207.667 111.894,207.782 111.833,207.922 111.833 C 208.062 111.833,208.220 111.721,208.273 111.583 C 208.326 111.446,208.462 111.333,208.575 111.333 C 208.689 111.333,208.917 111.183,209.083 111.000 C 209.249 110.817,209.486 110.667,209.609 110.667 C 209.732 110.667,209.833 110.554,209.833 110.417 C 209.833 110.278,209.981 110.167,210.167 110.167 C 210.352 110.167,210.500 110.056,210.500 109.917 C 210.500 109.779,210.612 109.667,210.750 109.667 C 210.887 109.667,211.150 109.517,211.333 109.333 C 211.517 109.150,211.742 109.000,211.833 109.000 C 211.925 109.000,212.000 108.932,212.000 108.850 C 212.000 108.721,212.927 108.064,213.405 107.854 C 213.490 107.816,213.724 107.609,213.924 107.393 C 214.124 107.177,214.341 107.000,214.406 107.000 C 214.471 107.000,214.628 106.906,214.756 106.792 C 215.308 106.297,215.496 106.167,215.660 106.167 C 215.755 106.167,215.833 106.092,215.833 106.000 C 215.833 105.908,215.983 105.833,216.167 105.833 C 216.352 105.833,216.500 105.722,216.500 105.583 C 216.500 105.446,216.601 105.333,216.724 105.333 C 216.847 105.333,217.084 105.183,217.250 105.000 C 217.416 104.817,217.690 104.667,217.859 104.667 C 218.028 104.667,218.167 104.592,218.167 104.500 C 218.167 104.225,218.796 103.682,219.246 103.570 C 219.477 103.511,219.667 103.359,219.667 103.232 C 219.667 103.104,219.779 103.000,219.917 103.000 C 220.054 103.000,220.167 102.896,220.167 102.768 C 220.167 102.641,220.373 102.485,220.625 102.423 C 220.877 102.360,221.285 102.090,221.532 101.821 C 221.779 101.553,222.060 101.333,222.157 101.333 C 222.254 101.333,222.333 101.258,222.333 101.167 C 222.333 101.075,222.449 101.000,222.591 101.000 C 222.732 101.000,223.051 100.811,223.299 100.580 C 223.547 100.349,223.956 100.068,224.208 99.956 C 224.460 99.844,224.667 99.658,224.667 99.543 C 224.667 99.428,224.768 99.333,224.891 99.333 C 225.014 99.333,225.251 99.183,225.417 99.000 C 225.583 98.817,225.822 98.667,225.948 98.667 C 226.074 98.667,226.220 98.554,226.273 98.417 C 226.326 98.279,226.462 98.167,226.575 98.167 C 226.689 98.167,226.917 98.017,227.083 97.833 C 227.249 97.650,227.448 97.500,227.526 97.500 C 227.807 97.500,227.698 118.285,227.417 118.394 C 227.246 118.459,227.167 118.726,227.167 119.235 C 227.167 119.645,227.092 120.027,227.000 120.083 C 226.908 120.140,226.833 120.511,226.833 120.909 C 226.833 121.372,226.750 121.663,226.601 121.720 C 226.473 121.769,226.323 122.152,226.268 122.571 C 226.212 122.990,226.122 123.671,226.067 124.083 C 226.011 124.496,225.899 124.833,225.817 124.833 C 225.734 124.833,225.667 125.200,225.667 125.649 C 225.667 126.220,225.592 126.493,225.417 126.560 C 225.054 126.699,225.054 129.699,225.417 130.000 C 225.558 130.117,225.667 130.480,225.667 130.833 C 225.667 131.214,225.846 131.764,226.125 132.241 C 226.377 132.672,226.659 133.156,226.751 133.317 C 226.993 133.739,227.448 134.167,227.655 134.167 C 227.753 134.167,227.833 134.279,227.833 134.417 C 227.833 134.554,227.915 134.667,228.015 134.667 C 228.116 134.667,228.388 134.817,228.621 135.000 C 228.854 135.183,229.187 135.333,229.361 135.333 C 229.535 135.333,229.720 135.446,229.773 135.583 C 229.840 135.759,230.114 135.833,230.694 135.833 C 231.148 135.833,231.478 135.900,231.427 135.983 C 231.164 136.409,234.482 136.507,234.833 136.083 C 234.966 135.924,235.334 135.833,235.854 135.833 C 236.465 135.833,236.667 135.771,236.667 135.583 C 236.667 135.420,236.830 135.333,237.135 135.333 C 237.393 135.333,237.749 135.198,237.927 135.033 C 238.105 134.868,238.381 134.683,238.542 134.622 C 238.702 134.561,238.833 134.433,238.833 134.339 C 238.833 134.244,238.946 134.167,239.083 134.167 C 239.221 134.167,239.333 134.092,239.333 134.000 C 239.333 133.908,239.446 133.833,239.583 133.833 C 239.721 133.833,239.833 133.758,239.833 133.667 C 239.833 133.575,239.948 133.500,240.089 133.500 C 240.229 133.500,240.387 133.387,240.440 133.250 C 240.492 133.112,240.640 133.000,240.768 133.000 C 240.896 133.000,241.000 132.925,241.000 132.833 C 241.000 132.742,241.112 132.667,241.250 132.667 C 241.387 132.667,241.500 132.554,241.500 132.417 C 241.500 132.278,241.648 132.167,241.833 132.167 C 242.017 132.167,242.167 132.092,242.167 132.000 C 242.167 131.908,242.279 131.833,242.417 131.833 C 242.554 131.833,242.667 131.767,242.667 131.686 C 242.667 131.605,242.824 131.498,243.017 131.447 C 243.210 131.397,243.317 131.276,243.257 131.178 C 243.196 131.080,243.260 131.000,243.399 131.000 C 243.537 131.000,243.710 130.906,243.783 130.792 C 243.960 130.516,244.940 129.833,245.160 129.833 C 245.255 129.833,245.333 129.727,245.333 129.597 C 245.333 129.466,245.563 129.309,245.845 129.248 C 246.126 129.186,246.396 129.030,246.446 128.901 C 246.495 128.772,246.640 128.667,246.768 128.667 C 246.896 128.667,247.000 128.554,247.000 128.417 C 247.000 128.279,247.136 128.167,247.302 128.167 C 247.468 128.167,247.765 128.017,247.962 127.833 C 248.158 127.650,248.418 127.500,248.539 127.500 C 248.660 127.500,248.876 127.369,249.018 127.208 C 249.510 126.654,250.492 125.833,250.662 125.833 C 250.756 125.833,250.833 125.758,250.833 125.667 C 250.833 125.575,250.948 125.500,251.089 125.500 C 251.229 125.500,251.387 125.387,251.440 125.250 C 251.492 125.112,251.640 125.000,251.768 125.000 C 251.896 125.000,252.000 124.888,252.000 124.750 C 252.000 124.612,252.113 124.500,252.250 124.500 C 252.388 124.500,252.650 124.350,252.833 124.167 C 253.017 123.983,253.279 123.833,253.417 123.833 C 253.554 123.833,253.667 123.727,253.667 123.597 C 253.667 123.466,253.878 123.313,254.137 123.257 C 254.395 123.200,254.850 122.931,255.147 122.660 C 255.444 122.389,255.758 122.167,255.844 122.167 C 255.930 122.167,256.150 122.035,256.333 121.875 C 256.517 121.715,256.817 121.452,257.000 121.292 C 257.183 121.131,257.390 121.000,257.460 121.000 C 257.530 121.000,257.680 120.850,257.795 120.667 C 257.909 120.483,258.115 120.333,258.251 120.333 C 258.388 120.333,258.809 120.033,259.187 119.667 C 259.564 119.300,259.905 119.000,259.944 119.000 C 260.110 119.000,259.775 120.267,259.565 120.435 C 259.437 120.537,259.333 120.735,259.333 120.876 C 259.333 121.016,259.221 121.174,259.083 121.227 C 258.907 121.295,258.833 121.570,258.833 122.161 C 258.833 122.623,258.758 123.000,258.667 123.000 C 258.567 123.000,258.500 123.663,258.500 124.657 C 258.500 125.582,258.574 126.359,258.667 126.417 C 258.758 126.473,258.833 126.890,258.833 127.343 C 258.833 127.964,258.895 128.167,259.083 128.167 C 259.221 128.167,259.333 128.305,259.333 128.474 C 259.333 128.643,259.483 128.917,259.667 129.083 C 259.850 129.249,260.002 129.467,260.006 129.567 C 260.013 129.826,260.601 130.500,260.818 130.500 C 260.918 130.500,261.000 130.612,261.000 130.750 C 261.000 130.887,261.142 131.000,261.316 131.000 C 261.489 131.000,261.667 131.094,261.711 131.208 C 261.850 131.569,263.171 132.167,263.829 132.167 C 264.186 132.167,264.549 132.275,264.667 132.417 C 264.970 132.782,268.167 132.782,268.167 132.417 C 268.167 132.233,268.358 132.167,268.885 132.167 C 269.939 132.167,271.667 131.235,271.667 130.667 C 271.667 130.575,271.835 130.498,272.042 130.496 C 272.259 130.494,272.837 130.109,273.417 129.581 C 273.967 129.080,274.469 128.669,274.532 128.668 C 274.596 128.667,274.934 128.405,275.282 128.084 C 275.631 127.764,276.048 127.501,276.208 127.501 C 276.369 127.500,276.500 127.388,276.500 127.250 C 276.500 127.112,276.585 127.000,276.689 127.000 C 276.912 127.000,277.667 126.221,277.667 125.991 C 277.667 125.904,277.779 125.833,277.917 125.833 C 278.054 125.833,278.167 125.758,278.167 125.667 C 278.167 125.575,278.260 125.500,278.375 125.500 C 278.490 125.500,278.860 125.256,279.197 124.958 C 280.287 123.997,280.501 123.833,280.669 123.833 C 280.759 123.833,280.833 123.721,280.833 123.583 C 280.833 123.446,280.934 123.333,281.058 123.333 C 281.181 123.333,281.417 123.183,281.583 123.000 C 281.749 122.817,282.023 122.667,282.192 122.667 C 282.362 122.667,282.500 122.554,282.500 122.417 C 282.500 122.279,282.571 122.167,282.658 122.167 C 282.888 122.167,283.667 121.412,283.667 121.189 C 283.667 121.085,283.779 121.000,283.917 121.000 C 284.054 121.000,284.167 120.933,284.167 120.851 C 284.167 120.770,284.346 120.658,284.565 120.603 C 284.784 120.548,285.194 120.240,285.476 119.918 C 285.759 119.597,286.067 119.333,286.162 119.333 C 286.256 119.333,286.333 119.258,286.333 119.167 C 286.333 119.075,286.446 119.000,286.583 119.000 C 286.721 119.000,286.833 118.888,286.833 118.750 C 286.833 118.612,286.932 118.500,287.052 118.500 C 287.172 118.500,287.431 118.350,287.628 118.167 C 287.825 117.983,288.064 117.833,288.160 117.833 C 288.255 117.833,288.333 117.721,288.333 117.583 C 288.333 117.444,288.481 117.333,288.667 117.333 C 288.852 117.333,289.000 117.222,289.000 117.083 C 289.000 116.946,289.112 116.833,289.250 116.833 C 289.387 116.833,289.650 116.683,289.833 116.500 C 290.017 116.317,290.225 116.167,290.296 116.167 C 290.368 116.167,290.547 116.035,290.694 115.875 C 290.841 115.715,291.155 115.433,291.390 115.250 C 291.625 115.067,291.821 114.823,291.826 114.708 C 291.830 114.594,291.932 114.500,292.052 114.500 C 292.172 114.500,292.431 114.350,292.628 114.167 C 292.825 113.983,293.030 113.833,293.084 113.833 C 293.138 113.833,293.356 113.646,293.569 113.417 C 293.781 113.188,294.008 113.000,294.072 113.000 C 294.136 113.000,294.465 112.738,294.803 112.418 C 295.140 112.098,295.473 111.836,295.542 111.835 C 295.610 111.834,295.669 111.740,295.671 111.625 C 295.673 111.510,295.964 111.283,296.318 111.121 C 297.007 110.803,297.833 110.116,297.833 109.859 C 297.833 109.773,298.036 109.652,298.283 109.590 C 298.530 109.528,298.973 109.239,299.267 108.947 C 299.560 108.655,300.052 108.213,300.359 107.963 C 300.666 107.714,301.120 107.320,301.368 107.088 C 301.616 106.856,301.870 106.667,301.932 106.667 C 301.994 106.667,302.219 106.479,302.431 106.250 C 302.644 106.021,302.896 105.833,302.992 105.833 C 303.088 105.833,303.308 105.702,303.480 105.542 C 304.013 105.046,304.560 104.667,304.742 104.666 C 304.838 104.666,305.064 104.446,305.244 104.176 C 305.425 103.907,305.743 103.609,305.953 103.514 C 306.162 103.419,306.333 103.264,306.333 103.170 C 306.333 103.077,306.446 103.000,306.583 103.000 C 306.721 103.000,306.833 102.923,306.833 102.830 C 306.833 102.736,307.021 102.574,307.250 102.470 C 307.479 102.365,307.667 102.179,307.667 102.057 C 307.667 101.934,307.752 101.833,307.856 101.833 C 307.960 101.833,308.219 101.646,308.431 101.417 C 308.644 101.188,308.906 101.000,309.015 101.000 C 309.123 101.000,309.386 100.813,309.598 100.583 C 309.810 100.354,310.063 100.167,310.159 100.167 C 310.255 100.167,310.333 100.092,310.333 100.000 C 310.333 99.908,310.446 99.833,310.583 99.833 C 310.721 99.833,310.833 99.721,310.833 99.583 C 310.833 99.446,310.929 99.333,311.046 99.333 C 311.163 99.333,311.388 99.183,311.545 99.000 C 311.702 98.817,311.943 98.667,312.082 98.667 C 312.220 98.667,312.333 98.554,312.333 98.417 C 312.333 98.279,312.448 98.167,312.589 98.167 C 312.729 98.167,312.886 98.057,312.937 97.923 C 312.989 97.789,313.174 97.634,313.349 97.578 C 313.524 97.523,313.667 97.370,313.667 97.239 C 313.667 97.107,313.779 97.000,313.917 97.000 C 314.054 97.000,314.167 96.934,314.167 96.852 C 314.167 96.771,314.429 96.580,314.750 96.428 C 315.071 96.276,315.333 96.080,315.333 95.992 C 315.333 95.905,315.446 95.833,315.583 95.833 C 315.721 95.833,315.833 95.721,315.833 95.583 C 315.833 95.446,315.946 95.333,316.083 95.333 C 316.221 95.333,316.333 95.258,316.333 95.167 C 316.333 95.075,316.408 95.000,316.499 95.000 C 316.649 95.000,317.204 94.578,317.760 94.042 C 317.879 93.927,318.094 93.833,318.238 93.833 C 318.382 93.833,318.500 93.721,318.500 93.583 C 318.500 93.444,318.648 93.333,318.833 93.333 C 319.017 93.333,319.167 93.258,319.167 93.167 C 319.167 93.075,319.279 93.000,319.417 93.000 C 319.554 93.000,319.667 92.925,319.667 92.833 C 319.667 92.742,319.779 92.667,319.917 92.667 C 320.054 92.667,320.167 92.554,320.167 92.417 C 320.167 92.279,320.279 92.167,320.417 92.167 C 320.556 92.167,320.667 92.019,320.667 91.833 C 320.667 91.650,320.743 91.500,320.837 91.500 C 320.931 91.500,321.098 91.294,321.208 91.042 C 321.319 90.790,321.505 90.523,321.621 90.450 C 321.738 90.377,321.833 90.104,321.833 89.843 C 321.833 89.575,321.942 89.327,322.083 89.273 C 322.247 89.210,322.333 88.950,322.333 88.515 C 322.333 88.151,322.408 87.807,322.500 87.750 C 322.730 87.608,322.730 60.225,322.500 60.083 C 322.408 60.027,322.333 59.694,322.333 59.344 C 322.333 58.982,322.226 58.618,322.083 58.500 C 321.946 58.386,321.833 58.152,321.833 57.980 C 321.833 57.807,321.721 57.667,321.583 57.667 C 321.429 57.667,321.333 57.510,321.333 57.259 C 321.333 57.035,321.202 56.754,321.042 56.634 C 320.881 56.515,320.644 56.212,320.515 55.961 C 320.386 55.711,320.129 55.458,319.944 55.399 C 319.581 55.284,319.297 55.080,318.868 54.625 C 318.716 54.465,318.459 54.333,318.296 54.333 C 318.133 54.333,318.000 54.258,318.000 54.167 C 318.000 54.075,317.886 54.000,317.748 54.000 C 317.428 54.000,316.791 53.648,316.617 53.375 C 316.543 53.260,316.337 53.167,316.158 53.167 C 315.980 53.167,315.833 53.100,315.833 53.019 C 315.833 52.938,315.702 52.827,315.542 52.771 C 315.381 52.716,315.025 52.525,314.750 52.347 C 314.475 52.170,314.081 52.019,313.875 52.012 C 313.669 52.005,313.500 51.925,313.500 51.833 C 313.500 51.742,313.397 51.667,313.270 51.667 C 313.144 51.667,312.947 51.554,312.833 51.417 C 312.719 51.279,312.493 51.167,312.331 51.167 C 312.168 51.167,311.994 51.058,311.943 50.926 C 311.892 50.793,311.578 50.634,311.245 50.571 C 310.912 50.509,310.601 50.355,310.552 50.229 C 310.504 50.103,310.330 50.000,310.167 50.000 C 310.003 50.000,309.829 49.895,309.779 49.766 C 309.730 49.637,309.465 49.482,309.192 49.422 C 308.918 49.362,308.653 49.205,308.602 49.073 C 308.552 48.941,308.329 48.833,308.106 48.833 C 307.884 48.833,307.659 48.721,307.606 48.583 C 307.554 48.446,307.377 48.332,307.214 48.330 C 307.050 48.328,306.729 48.179,306.500 48.000 C 306.271 47.821,305.952 47.672,305.792 47.670 C 305.631 47.668,305.500 47.554,305.500 47.417 C 305.500 47.261,305.343 47.167,305.083 47.167 C 304.854 47.167,304.667 47.100,304.667 47.018 C 304.667 46.936,304.479 46.822,304.250 46.765 C 304.021 46.707,303.833 46.587,303.833 46.497 C 303.833 46.407,303.683 46.333,303.500 46.333 C 303.317 46.333,303.167 46.258,303.167 46.167 C 303.167 46.075,303.017 46.000,302.833 46.000 C 302.650 46.000,302.500 45.933,302.500 45.851 C 302.500 45.770,302.313 45.656,302.083 45.598 C 301.854 45.541,301.667 45.420,301.667 45.330 C 301.667 45.240,301.517 45.167,301.333 45.167 C 301.150 45.167,301.000 45.104,301.000 45.027 C 301.000 44.846,300.241 44.500,299.843 44.500 C 299.674 44.500,299.492 44.387,299.440 44.250 C 299.387 44.112,299.237 44.000,299.106 44.000 C 298.976 44.000,298.829 43.895,298.779 43.767 C 298.730 43.638,298.391 43.483,298.025 43.421 C 297.659 43.359,297.318 43.202,297.268 43.071 C 297.218 42.940,297.062 42.833,296.922 42.833 C 296.719 42.833,296.667 42.612,296.667 41.750 L 296.667 40.667 305.839 40.667 C 313.838 40.667,315.023 40.635,315.106 40.417 C 315.171 40.248,315.436 40.167,315.925 40.167 C 316.322 40.167,316.693 40.092,316.750 40.000 C 316.807 39.908,317.138 39.833,317.485 39.833 C 317.929 39.833,318.252 39.709,318.568 39.417 C 318.815 39.188,319.073 39.000,319.140 39.000 C 319.374 39.000,320.667 37.777,320.667 37.555 C 320.667 37.433,320.743 37.333,320.837 37.333 C 320.931 37.333,321.098 37.127,321.208 36.875 C 321.319 36.623,321.505 36.357,321.621 36.283 C 321.738 36.210,321.833 35.974,321.833 35.760 C 321.833 35.545,321.946 35.326,322.083 35.273 C 322.255 35.207,322.333 34.939,322.333 34.422 C 322.333 34.007,322.408 33.667,322.500 33.667 C 322.609 33.667,322.667 30.364,322.667 24.093 C 322.667 17.891,322.608 14.483,322.500 14.417 C 322.408 14.360,322.333 13.981,322.333 13.573 C 322.333 13.027,322.268 12.833,322.083 12.833 C 321.927 12.833,321.833 12.675,321.833 12.411 C 321.833 12.179,321.721 11.946,321.583 11.894 C 321.446 11.841,321.333 11.665,321.333 11.503 C 321.333 11.340,321.213 11.108,321.066 10.986 C 320.919 10.864,320.733 10.592,320.653 10.382 C 320.574 10.172,320.394 10.000,320.254 10.000 C 320.114 10.000,320.000 9.887,320.000 9.750 C 320.000 9.612,319.902 9.500,319.781 9.500 C 319.661 9.500,319.402 9.350,319.205 9.167 C 319.008 8.983,318.740 8.833,318.608 8.833 C 318.477 8.833,318.326 8.721,318.273 8.583 C 318.220 8.446,318.025 8.333,317.839 8.333 C 317.652 8.333,317.500 8.258,317.500 8.167 C 317.500 8.075,317.358 8.000,317.184 8.000 C 317.011 8.000,316.826 7.887,316.773 7.750 C 316.720 7.612,316.562 7.500,316.422 7.500 C 316.282 7.500,316.167 7.439,316.167 7.364 C 316.167 7.290,315.907 7.127,315.590 7.003 C 315.273 6.878,314.976 6.677,314.929 6.555 C 314.882 6.433,314.699 6.333,314.523 6.333 C 314.347 6.333,314.162 6.228,314.112 6.099 C 314.063 5.970,313.787 5.813,313.500 5.750 C 313.213 5.687,312.937 5.530,312.888 5.401 C 312.838 5.272,312.618 5.167,312.399 5.167 C 312.175 5.167,312.018 5.078,312.042 4.965 C 312.065 4.854,311.802 4.690,311.458 4.602 C 311.115 4.514,310.833 4.342,310.833 4.221 C 310.833 4.099,310.683 4.000,310.500 4.000 C 310.317 4.000,310.167 3.927,310.167 3.838 C 310.167 3.749,309.719 3.468,309.173 3.213 C 308.626 2.958,308.176 2.656,308.173 2.542 C 308.169 2.427,308.017 2.333,307.833 2.333 C 307.650 2.333,307.500 2.258,307.500 2.167 C 307.500 2.075,307.195 2.000,306.821 2.000 C 306.448 2.000,306.036 1.894,305.906 1.763 C 305.474 1.331,303.830 1.316,260.667 1.367 C 220.108 1.414,217.727 1.433,217.338 1.708 C 217.111 1.869,216.643 2.000,216.296 2.000 C 215.946 2.000,215.667 2.082,215.667 2.185 C 215.667 2.307,215.453 2.333,215.042 2.262 C 214.698 2.202,214.117 2.111,213.750 2.059 C 213.383 2.007,212.944 1.841,212.774 1.690 C 212.269 1.243,171.288 1.273,170.604 1.721 C 170.153 2.017,170.128 2.017,169.802 1.721 C 169.289 1.258,135.432 1.245,135.093 1.708 C 134.950 1.905,134.655 2.000,134.190 2.000 C 133.810 2.000,133.500 2.075,133.500 2.167 C 133.500 2.258,133.350 2.333,133.167 2.333 C 132.981 2.333,132.833 2.444,132.833 2.583 C 132.833 2.722,132.685 2.833,132.500 2.833 C 132.317 2.833,132.167 2.896,132.167 2.972 C 132.167 3.048,131.960 3.216,131.708 3.344 C 131.173 3.618,130.507 4.192,130.503 4.383 C 130.501 4.456,130.313 4.690,130.083 4.902 C 129.854 5.114,129.664 5.355,129.661 5.436 C 129.637 6.080,128.319 6.638,128.110 6.093 C 128.059 5.960,127.751 5.802,127.425 5.741 C 127.085 5.677,126.833 5.531,126.833 5.398 C 126.833 5.271,126.691 5.167,126.518 5.167 C 126.344 5.167,126.163 5.064,126.114 4.938 C 126.066 4.812,125.758 4.658,125.430 4.597 C 125.070 4.529,124.833 4.389,124.833 4.242 C 124.833 4.109,124.683 4.000,124.500 4.000 C 124.315 4.000,124.167 3.889,124.167 3.750 C 124.167 3.612,124.035 3.498,123.875 3.496 C 123.715 3.494,123.396 3.346,123.167 3.167 C 122.938 2.987,122.656 2.839,122.542 2.837 C 122.427 2.835,122.333 2.721,122.333 2.583 C 122.333 2.428,122.176 2.333,121.917 2.333 C 121.688 2.333,121.500 2.258,121.500 2.167 C 121.500 2.075,121.187 2.000,120.805 2.000 C 120.377 2.000,119.986 1.888,119.787 1.708 C 119.448 1.401,80.320 1.193,78.538 1.489 M120.178 10.583 C 121.285 11.271,122.221 11.833,122.257 11.833 C 122.293 11.833,123.206 12.381,124.286 13.050 C 125.366 13.720,126.737 14.555,127.333 14.907 C 127.929 15.259,128.510 15.663,128.625 15.805 C 128.790 16.009,128.833 21.225,128.833 40.623 L 128.833 65.183 128.392 65.591 C 128.150 65.816,127.886 66.000,127.806 66.000 C 127.726 66.000,127.380 66.175,127.038 66.390 C 126.449 66.760,123.192 68.586,120.827 69.874 C 120.228 70.200,119.343 70.699,118.861 70.984 C 118.380 71.268,117.950 71.500,117.906 71.500 C 117.862 71.500,117.547 71.676,117.205 71.892 C 116.863 72.107,116.133 72.525,115.583 72.820 C 115.033 73.114,114.358 73.487,114.083 73.648 C 113.653 73.899,110.061 75.898,107.889 77.095 C 107.507 77.306,106.251 78.012,105.097 78.665 L 103.000 79.853 103.000 90.593 C 103.000 99.068,103.044 101.336,103.208 101.344 C 103.323 101.350,104.673 101.345,106.208 101.334 C 109.810 101.308,109.821 101.532,106.337 104.083 C 105.756 104.509,104.819 105.266,102.926 106.838 C 102.096 107.527,100.449 108.877,99.266 109.838 C 98.083 110.798,96.608 111.996,95.988 112.500 C 95.368 113.004,94.124 114.017,93.222 114.750 C 92.321 115.483,90.571 116.906,89.333 117.912 C 88.096 118.919,87.046 119.783,87.000 119.833 C 86.954 119.883,85.771 120.847,84.371 121.974 C 82.971 123.101,81.629 124.206,81.388 124.428 C 80.782 124.990,80.138 124.730,80.630 124.123 C 80.722 124.009,81.074 123.242,81.413 122.417 C 82.015 120.950,82.308 120.261,82.759 119.250 C 82.882 118.975,83.174 118.310,83.408 117.772 L 83.833 116.793 83.829 65.938 L 83.824 15.083 82.871 13.892 C 80.255 10.625,79.667 9.836,79.667 9.595 C 79.667 9.359,81.529 9.333,98.915 9.333 L 118.163 9.333 120.178 10.583 M168.811 10.042 C 169.175 10.431,169.985 11.359,170.611 12.104 C 171.238 12.849,172.390 14.199,173.172 15.104 C 173.954 16.009,174.761 16.966,174.964 17.231 L 175.333 17.712 175.333 58.907 C 175.333 91.613,175.290 100.157,175.125 100.366 C 175.010 100.510,174.279 101.168,173.500 101.827 C 172.721 102.487,171.446 103.567,170.667 104.229 C 165.992 108.195,162.619 111.049,161.514 111.973 C 160.819 112.554,159.800 113.424,159.250 113.907 C 158.700 114.390,157.232 115.640,155.987 116.684 C 154.742 117.729,153.083 119.127,152.300 119.792 C 150.623 121.215,150.758 121.188,149.811 120.292 C 149.110 119.630,146.142 116.870,143.670 114.583 C 143.075 114.033,142.100 113.126,141.503 112.567 C 140.905 112.008,139.892 111.070,139.251 110.483 C 138.611 109.897,137.523 108.888,136.835 108.241 C 136.146 107.594,135.138 106.657,134.594 106.158 C 133.227 104.903,131.032 102.856,130.378 102.225 L 129.833 101.700 129.833 60.089 C 129.833 28.807,129.881 18.388,130.027 18.114 C 130.295 17.610,134.034 12.660,136.124 10.042 L 136.689 9.333 152.419 9.333 L 168.148 9.333 168.811 10.042 M213.172 10.605 C 214.315 11.304,215.662 12.115,216.167 12.406 C 216.671 12.697,217.516 13.213,218.045 13.551 C 218.574 13.890,219.038 14.167,219.077 14.167 C 219.218 14.167,221.420 15.578,221.540 15.745 C 221.607 15.839,221.645 22.993,221.623 31.641 L 221.583 47.366 220.018 48.266 C 219.157 48.761,218.430 49.167,218.404 49.167 C 218.378 49.167,217.357 49.754,216.136 50.471 C 214.916 51.189,212.808 52.402,211.454 53.166 C 210.099 53.931,209.049 54.609,209.120 54.672 C 209.192 54.735,210.075 55.220,211.083 55.751 C 212.092 56.281,213.367 56.955,213.917 57.249 C 215.352 58.017,217.669 59.246,219.500 60.211 C 220.371 60.671,221.215 61.160,221.375 61.299 C 221.648 61.536,221.667 62.397,221.667 74.953 C 221.667 82.638,221.731 88.475,221.818 88.636 C 221.901 88.790,222.313 89.174,222.734 89.489 C 223.787 90.276,223.728 90.465,222.048 91.690 C 221.249 92.273,220.239 93.013,219.804 93.333 C 219.368 93.654,218.545 94.254,217.973 94.667 C 217.402 95.079,216.105 96.032,215.092 96.784 C 214.079 97.536,212.950 98.368,212.583 98.633 C 211.204 99.631,206.033 103.428,204.772 104.369 C 204.050 104.907,203.375 105.320,203.272 105.285 C 203.134 105.239,203.072 100.535,203.041 87.642 L 202.998 70.061 200.874 68.949 C 199.706 68.337,198.131 67.503,197.375 67.094 C 196.619 66.686,195.999 66.403,195.998 66.467 C 195.997 66.531,195.998 75.244,196.000 85.828 L 196.004 105.073 197.021 106.615 C 197.580 107.463,198.142 108.244,198.269 108.349 C 198.733 108.734,198.498 109.136,197.292 110.024 C 194.262 112.254,188.018 116.872,187.417 117.328 C 187.050 117.606,185.175 118.996,183.250 120.417 C 181.325 121.838,178.676 123.807,177.363 124.792 C 174.273 127.110,174.539 126.939,174.333 126.733 C 174.210 126.610,174.336 125.939,174.754 124.487 C 175.343 122.442,175.648 121.340,176.432 118.425 L 176.833 116.934 176.833 66.030 L 176.833 15.126 175.219 13.104 C 174.331 11.993,173.356 10.802,173.052 10.458 C 171.974 9.236,170.358 9.333,191.797 9.333 L 211.094 9.333 213.172 10.605 M306.050 10.542 C 307.150 11.206,308.320 11.915,308.650 12.116 C 308.980 12.318,309.438 12.590,309.667 12.720 C 309.896 12.851,310.980 13.500,312.077 14.163 C 313.173 14.826,314.243 15.434,314.453 15.514 L 314.836 15.660 314.793 24.121 L 314.750 32.583 304.852 32.626 C 293.451 32.676,294.500 32.860,294.500 30.813 L 294.500 29.333 291.583 29.333 L 288.667 29.333 288.667 38.321 L 288.667 47.308 290.625 48.386 C 291.702 48.979,294.383 50.438,296.583 51.627 C 298.783 52.817,300.921 53.975,301.333 54.201 C 301.746 54.427,302.758 54.973,303.583 55.414 C 305.492 56.435,306.650 57.063,307.959 57.787 C 309.637 58.714,311.978 59.959,313.458 60.710 L 314.833 61.408 314.833 73.959 C 314.833 85.439,314.810 86.519,314.560 86.615 C 314.410 86.673,312.328 88.291,309.935 90.210 C 307.542 92.130,298.833 99.108,290.583 105.717 C 282.333 112.327,273.672 119.268,271.336 121.143 C 266.518 125.010,265.931 125.345,266.758 123.759 C 266.899 123.489,267.390 122.364,267.850 121.259 C 268.812 118.947,268.848 118.866,269.364 117.750 L 269.750 116.917 269.833 93.250 L 269.917 69.583 279.250 69.583 L 288.583 69.583 288.611 73.472 C 288.626 75.610,288.676 77.398,288.722 77.444 C 288.803 77.525,289.178 77.261,292.875 74.528 L 294.500 73.327 294.500 71.427 L 294.500 69.526 292.625 68.447 C 289.901 66.879,283.402 63.194,282.333 62.612 C 281.829 62.337,280.704 61.701,279.833 61.199 C 278.962 60.697,277.912 60.098,277.500 59.867 C 274.714 58.312,272.556 57.093,271.333 56.386 L 269.917 55.566 269.833 35.324 C 269.746 14.087,269.755 14.333,269.069 14.333 C 268.344 14.333,268.319 14.592,268.330 21.971 C 268.339 28.764,268.329 28.990,268.014 29.159 C 267.804 29.272,265.388 29.333,261.178 29.333 L 254.667 29.333 254.667 68.075 L 254.667 106.816 256.068 108.909 C 257.744 111.410,257.990 110.852,253.917 113.787 C 252.267 114.976,249.304 117.110,247.333 118.531 C 245.362 119.951,242.588 121.949,241.167 122.970 C 236.185 126.549,234.414 127.835,234.123 128.083 C 233.408 128.693,233.109 128.338,233.411 127.239 C 233.536 126.787,233.760 125.854,233.909 125.167 C 234.277 123.476,234.930 120.591,235.380 118.667 L 235.750 117.083 235.750 73.250 L 235.750 29.417 229.583 29.328 C 226.192 29.280,223.398 29.223,223.375 29.203 C 223.352 29.183,223.333 26.028,223.333 22.192 L 223.333 15.216 222.458 14.079 C 221.977 13.453,221.321 12.616,221.000 12.219 C 219.270 10.075,218.980 9.667,219.079 9.508 C 219.153 9.387,232.291 9.333,261.618 9.333 L 304.049 9.333 306.050 10.542 M149.278 27.944 C 149.217 28.006,149.167 41.611,149.167 58.178 L 149.167 88.300 150.203 89.192 C 150.773 89.682,152.059 90.816,153.060 91.712 C 154.062 92.608,154.908 93.314,154.942 93.281 C 154.983 93.239,155.031 40.099,155.000 28.000 C 155.000 27.813,149.463 27.759,149.278 27.944 M102.667 43.762 C 102.667 55.223,102.710 58.180,102.875 58.137 C 103.075 58.085,104.057 57.499,108.349 54.866 L 110.333 53.649 110.333 41.491 L 110.333 29.333 106.500 29.333 L 102.667 29.333 102.667 43.762 M195.667 36.083 C 195.667 39.796,195.732 42.833,195.811 42.833 C 195.890 42.833,196.134 42.697,196.353 42.531 C 196.571 42.365,198.175 41.381,199.917 40.344 C 201.658 39.308,203.158 38.367,203.250 38.255 C 203.354 38.127,203.399 36.423,203.370 33.692 L 203.323 29.333 199.495 29.333 L 195.667 29.333 195.667 36.083 M227.667 54.250 C 227.667 55.306,227.601 56.000,227.500 56.000 C 227.408 56.000,227.333 55.893,227.333 55.763 C 227.333 55.633,227.115 55.478,226.847 55.420 C 226.580 55.361,226.320 55.205,226.269 55.073 C 226.219 54.941,226.062 54.833,225.922 54.833 C 225.782 54.833,225.667 54.727,225.667 54.597 C 225.667 54.237,225.851 53.833,226.016 53.833 C 226.195 53.833,226.772 53.382,227.239 52.878 C 227.428 52.673,227.602 52.505,227.625 52.503 C 227.648 52.501,227.667 53.288,227.667 54.250 M263.271 59.588 C 263.486 59.787,263.625 59.986,263.580 60.031 C 263.535 60.076,263.830 60.443,264.236 60.848 C 265.358 61.968,265.595 62.167,265.806 62.167 C 266.132 62.167,266.022 62.526,265.667 62.618 C 265.483 62.666,265.333 62.809,265.333 62.936 C 265.333 63.063,265.253 63.167,265.156 63.167 C 264.841 63.167,263.850 64.018,263.733 64.390 C 263.670 64.588,263.449 64.900,263.242 65.083 C 263.035 65.267,262.829 65.567,262.785 65.750 C 262.741 65.933,262.703 64.433,262.699 62.417 C 262.696 60.400,262.735 58.857,262.787 58.988 C 262.839 59.120,263.057 59.390,263.271 59.588 " stroke="none" fill="#fbfbfb" fill-rule="evenodd"></path></g></svg>