<svg width="355" height="103" viewBox="0 0 355 103" fill="none" xmlns="http://www.w3.org/2000/svg">
<path fill-rule="evenodd" clip-rule="evenodd" d="M77.3784 102.182C81.5496 102.182 85.536 101.377 89.3376 99.7668C93.1392 98.1564 96.4128 95.9256 99.1584 93.0744L95.1984 88.956C93.0864 91.332 90.4728 93.1932 87.3576 94.5396C84.2424 95.886 80.9688 96.5592 77.5368 96.5592C74.316 96.5592 71.3196 95.9652 68.5476 94.7772C65.7756 93.5892 63.3732 91.9788 61.3404 89.946C59.3076 87.9132 57.7104 85.4844 56.5488 82.6596C55.3872 79.8348 54.8064 76.812 54.8064 73.5912C54.8064 70.3704 55.3872 67.3476 56.5488 64.5228C57.7104 61.698 59.2944 59.2692 61.3008 57.2364C63.3072 55.2036 65.6964 53.5932 68.4684 52.4052C71.2404 51.2172 74.2104 50.6232 77.3784 50.6232C80.7576 50.6232 84.0444 51.3096 87.2388 52.6824C90.4332 54.0552 93.1128 55.956 95.2776 58.3848L99.3168 54.108C96.624 51.2568 93.3636 49.026 89.5356 47.4156C85.7076 45.8052 81.6552 45 77.3784 45C73.3656 45 69.6036 45.7392 66.0924 47.2176C62.5812 48.696 59.532 50.7156 56.9448 53.2764C54.3576 55.8372 52.3248 58.8732 50.8464 62.3844C49.368 65.8956 48.6288 69.6312 48.6288 73.5912C48.6288 77.5512 49.368 81.2868 50.8464 84.798C52.3248 88.3092 54.3576 91.3452 56.9448 93.906C59.532 96.4668 62.5812 98.4864 66.0924 99.9648C69.6036 101.443 73.3656 102.182 77.3784 102.182ZM6.0984 77.9472V101.311H0V45.8712H24.0768C29.4624 45.8712 33.792 47.3364 37.0656 50.2668C40.3392 53.1972 41.976 57.0648 41.976 61.8696C41.976 66.6744 40.326 70.5552 37.026 73.512C33.726 76.4688 29.4096 77.9472 24.0768 77.9472H6.0984ZM6.0984 72.6408H23.6016C27.3504 72.6408 30.3336 71.6772 32.5512 69.75C34.7688 67.8228 35.8776 65.2224 35.8776 61.9488C35.8776 58.6752 34.7688 56.088 32.5512 54.1872C30.3336 52.2864 27.3504 51.336 23.6016 51.336H6.0984V72.6408ZM131.551 77.9472V101.311H125.453V45.8712H149.53C154.915 45.8712 159.245 47.3364 162.518 50.2668C165.792 53.1972 167.429 57.0648 167.429 61.8696C167.429 66.6744 165.779 70.5552 162.479 73.512C159.179 76.4688 154.862 77.9472 149.53 77.9472H131.551ZM149.054 72.6408H131.551V51.336H149.054C152.803 51.336 155.786 52.2864 158.004 54.1872C160.222 56.088 161.33 58.6752 161.33 61.9488C161.33 65.2224 160.222 67.8228 158.004 69.75C155.786 71.6772 152.803 72.6408 149.054 72.6408ZM201.92 100.519C199.465 101.575 196.838 102.103 194.04 102.103C191.242 102.103 188.602 101.575 186.12 100.519C183.638 99.4632 181.487 98.0112 179.665 96.1632C177.844 94.3152 176.405 92.124 175.349 89.5896C174.293 87.0552 173.765 84.336 173.765 81.432C173.765 78.5808 174.293 75.888 175.349 73.3536C176.405 70.8192 177.844 68.628 179.665 66.78C181.487 64.932 183.638 63.48 186.12 62.424C188.602 61.368 191.242 60.84 194.04 60.84C196.838 60.84 199.465 61.368 201.92 62.424C204.376 63.48 206.514 64.932 208.336 66.78C210.157 68.628 211.596 70.8192 212.652 73.3536C213.708 75.888 214.236 78.5808 214.236 81.432C214.236 84.336 213.708 87.0552 212.652 89.5896C211.596 92.124 210.157 94.3152 208.336 96.1632C206.514 98.0112 204.376 99.4632 201.92 100.519ZM194.04 96.876C192.034 96.876 190.133 96.48 188.338 95.688C186.542 94.896 184.998 93.8004 183.704 92.4012C182.411 91.002 181.394 89.3652 180.655 87.4908C179.916 85.6164 179.546 83.5968 179.546 81.432C179.546 79.2672 179.929 77.2476 180.695 75.3732C181.46 73.4988 182.49 71.8752 183.784 70.5024C185.077 69.1296 186.608 68.0472 188.377 67.2552C190.146 66.4632 192.034 66.0672 194.04 66.0672C196.046 66.0672 197.934 66.4632 199.703 67.2552C201.472 68.0472 203.003 69.1296 204.296 70.5024C205.59 71.8752 206.606 73.4988 207.346 75.3732C208.085 77.2476 208.454 79.2672 208.454 81.432C208.454 83.5968 208.085 85.6164 207.346 87.4908C206.606 89.3652 205.59 91.002 204.296 92.4012C203.003 93.8004 201.472 94.896 199.703 95.688C197.934 96.48 196.046 96.876 194.04 96.876ZM228.254 74.1456V101.311H222.394V61.632H228.254V67.2552C229.416 65.196 230.947 63.5988 232.848 62.4636C234.749 61.3284 236.914 60.7608 239.342 60.7608C240.082 60.7608 240.742 60.8004 241.322 60.8796C241.903 60.9588 242.484 61.104 243.065 61.3152V66.7008C242.378 66.4896 241.692 66.318 241.006 66.186C240.319 66.054 239.633 65.988 238.946 65.988C236.518 65.988 234.379 66.6876 232.531 68.0868C230.683 69.486 229.258 71.5056 228.254 74.1456ZM265.399 102.024C266.561 102.024 267.762 101.945 269.003 101.786C270.244 101.628 271.366 101.364 272.369 100.994V95.8464C271.366 96.216 270.428 96.48 269.557 96.6384C268.686 96.7968 267.696 96.876 266.587 96.876C264.422 96.876 262.865 96.414 261.914 95.49C260.964 94.566 260.489 93.048 260.489 90.936V66.6216H272.448V61.632H260.489V50.0688L254.707 51.5736V61.632H246.154V66.6216H254.707V92.4408C254.707 95.556 255.631 97.932 257.479 99.5688C259.327 101.206 261.967 102.024 265.399 102.024ZM297.713 101.113C295.759 101.72 293.647 102.024 291.377 102.024C288.103 102.024 285.028 101.483 282.15 100.4C279.272 99.318 276.778 97.8 274.666 95.8464L278.23 92.0448C280.025 93.7344 282.044 95.0412 284.288 95.9652C286.532 96.8892 288.816 97.3512 291.139 97.3512C294.307 97.3512 296.894 96.6912 298.901 95.3712C300.907 94.0512 301.91 92.3352 301.91 90.2232C301.91 88.5336 301.316 87.2004 300.128 86.2236C298.94 85.2468 297.079 84.5736 294.545 84.204L287.654 83.2536C283.694 82.6728 280.751 81.498 278.824 79.7292C276.896 77.9604 275.933 75.5712 275.933 72.5616C275.933 69.2352 277.332 66.4764 280.13 64.2852C282.929 62.094 286.493 60.9984 290.822 60.9984C293.674 60.9984 296.38 61.4208 298.94 62.2656C301.501 63.1104 303.996 64.4304 306.425 66.2256L303.336 70.1856C301.118 68.7072 298.967 67.5984 296.881 66.8592C294.796 66.12 292.67 65.7504 290.506 65.7504C287.813 65.7504 285.608 66.3576 283.892 67.572C282.176 68.7864 281.318 70.3704 281.318 72.324C281.318 74.0136 281.899 75.3204 283.061 76.2444C284.222 77.1684 286.097 77.8152 288.684 78.1848L295.574 79.1352C299.534 79.6632 302.504 80.838 304.484 82.6596C306.464 84.4812 307.454 86.8968 307.454 89.9064C307.454 91.596 307.045 93.1932 306.227 94.698C305.408 96.2028 304.273 97.4964 302.821 98.5788C301.369 99.6612 299.666 100.506 297.713 101.113Z" fill="white"/>
</svg>
