<svg width="430" height="118" viewBox="0 0 430 118" fill="none" xmlns="http://www.w3.org/2000/svg">
<path d="M153.551 88.5355L157.115 84.7339C158.91 86.4235 160.916 87.7435 163.134 88.6939C165.404 89.5915 167.701 90.0403 170.024 90.0403C173.192 90.0403 175.78 89.3803 177.786 88.0603C179.792 86.7403 180.796 85.0243 180.796 82.9123C180.796 81.2227 180.188 79.9027 178.974 78.9523C177.812 77.9491 175.964 77.2627 173.43 76.8931L166.54 75.9427C162.58 75.3619 159.623 74.2003 157.669 72.4579C155.768 70.6627 154.818 68.2603 154.818 65.2507C154.818 61.9243 156.217 59.1787 159.016 57.0139C161.814 54.7963 165.378 53.6875 169.708 53.6875C172.559 53.6875 175.252 54.1099 177.786 54.9547C180.373 55.7995 182.881 57.1195 185.31 58.9147L182.221 62.8747C180.004 61.3963 177.839 60.2875 175.727 59.5483C173.668 58.8091 171.556 58.4395 169.391 58.4395C166.698 58.4395 164.48 59.0467 162.738 60.2611C161.048 61.4755 160.204 63.0595 160.204 65.0131C160.204 66.7027 160.784 68.0227 161.946 68.9731C163.108 69.8707 164.982 70.5043 167.569 70.8739L174.46 71.8243C178.42 72.3523 181.376 73.5403 183.33 75.3883C185.336 77.1835 186.34 79.5859 186.34 82.5955C186.34 84.2851 185.917 85.8955 185.072 87.4267C184.28 88.9051 183.145 90.1987 181.667 91.3075C180.241 92.3635 178.552 93.2083 176.598 93.8419C174.644 94.4227 172.532 94.7131 170.262 94.7131C166.988 94.7131 163.9 94.1851 160.996 93.1291C158.144 92.0203 155.663 90.4891 153.551 88.5355Z" fill="white"/>
<path d="M132.8 85.1298V59.3106H124.246V54.321H132.8V44.2626L138.581 42.7578V54.321H150.54V59.3106H138.581V83.625C138.581 85.737 139.056 87.2682 140.007 88.2186C140.957 89.1162 142.515 89.565 144.68 89.565C145.788 89.565 146.765 89.4858 147.61 89.3274C148.508 89.169 149.458 88.905 150.461 88.5354V93.6834C149.458 94.053 148.323 94.317 147.056 94.4754C145.841 94.6338 144.653 94.713 143.492 94.713C140.06 94.713 137.42 93.8946 135.572 92.2578C133.724 90.621 132.8 88.245 132.8 85.1298Z" fill="white"/>
<path d="M100.355 93.9996V54.3204H106.216V59.9436C107.378 57.8844 108.909 56.3004 110.81 55.1916C112.711 54.03 114.875 53.4492 117.304 53.4492C118.043 53.4492 118.703 53.502 119.284 53.6076C119.865 53.6604 120.446 53.7924 121.027 54.0036V59.3892C120.34 59.178 119.654 59.0196 118.967 58.914C118.281 58.7556 117.595 58.6764 116.908 58.6764C114.479 58.6764 112.341 59.3892 110.493 60.8148C108.645 62.1876 107.219 64.194 106.216 66.834V93.9996H100.355Z" fill="white"/>
<path d="M51.7383 74.1193C51.7383 71.2681 52.2663 68.5753 53.3223 66.0409C54.3783 63.5065 55.8039 61.3153 57.5991 59.4673C59.4471 57.6193 61.6119 56.1673 64.0935 55.1113C66.5751 54.0553 69.2151 53.5273 72.0135 53.5273C74.8119 53.5273 77.4255 54.0553 79.8543 55.1113C82.3359 56.1673 84.4743 57.6193 86.2695 59.4673C88.1175 61.3153 89.5695 63.5065 90.6255 66.0409C91.6815 68.5753 92.2095 71.2681 92.2095 74.1193C92.2095 77.0233 91.6815 79.7425 90.6255 82.2769C89.5695 84.8113 88.1175 87.0025 86.2695 88.8505C84.4743 90.6985 82.3359 92.1505 79.8543 93.2065C77.4255 94.2625 74.8119 94.7905 72.0135 94.7905C69.2151 94.7905 66.5751 94.2625 64.0935 93.2065C61.6119 92.1505 59.4471 90.6985 57.5991 88.8505C55.8039 87.0025 54.3783 84.8113 53.3223 82.2769C52.2663 79.7425 51.7383 77.0233 51.7383 74.1193ZM72.0135 89.5633C74.0199 89.5633 75.8943 89.1673 77.6367 88.3753C79.4319 87.5833 80.9631 86.5009 82.2303 85.1281C83.5503 83.7025 84.5799 82.0657 85.3191 80.2177C86.0583 78.3169 86.4279 76.2841 86.4279 74.1193C86.4279 71.9545 86.0583 69.9481 85.3191 68.1001C84.5799 66.1993 83.5503 64.5625 82.2303 63.1897C80.9631 61.8169 79.4319 60.7345 77.6367 59.9425C75.8943 59.1505 74.0199 58.7545 72.0135 58.7545C70.0071 58.7545 68.1063 59.1505 66.3111 59.9425C64.5687 60.7345 63.0375 61.8169 61.7175 63.1897C60.4503 64.5625 59.4207 66.1993 58.6287 68.1001C57.8895 69.9481 57.5199 71.9545 57.5199 74.1193C57.5199 76.2841 57.8895 78.3169 58.6287 80.2177C59.3679 82.0657 60.3711 83.7025 61.6383 85.1281C62.9583 86.5009 64.5159 87.5833 66.3111 88.3753C68.1063 89.1673 70.0071 89.5633 72.0135 89.5633Z" fill="white"/>
<path d="M6.09766 93.9986V38.5586H30.1745C35.5601 38.5586 39.8897 40.037 43.1633 42.9938C46.4369 45.8978 48.0737 49.7522 48.0737 54.557C48.0737 59.3618 46.4105 63.2426 43.0841 66.1994C39.8105 69.1562 35.5073 70.6346 30.1745 70.6346H12.1961V93.9986H6.09766ZM29.6993 44.0234H12.1961V65.3282H29.6993C33.4481 65.3282 36.4313 64.3778 38.6489 62.477C40.8665 60.5234 41.9753 57.9098 41.9753 54.6362C41.9753 51.3626 40.8665 48.7754 38.6489 46.8746C36.4313 44.9738 33.4481 44.0234 29.6993 44.0234Z" fill="white"/>
<path fill-rule="evenodd" clip-rule="evenodd" d="M6.18011 18.3038C6.04908 17.6823 6.09916 13.5227 6.15205 12.7952C6.9919 12.6756 7.72554 12.6975 8.4654 12.7197C8.63271 12.7247 8.80034 12.7297 8.96958 12.7331C9.30298 12.7397 9.70587 12.7272 10.1415 12.7137C11.5884 12.6689 13.3963 12.6128 14.2167 13.2105C15.7084 14.2971 15.8834 16.4395 14.4439 17.672C13.6602 18.343 12.7404 18.3596 11.7036 18.3351C10.72 18.3119 9.76395 18.3143 8.80892 18.3167C7.93933 18.3188 7.06943 18.321 6.18011 18.3038ZM6.20389 9.59895C6.18299 9.51728 6.08314 4.71009 6.18653 4.09656C6.18943 4.07955 6.19345 4.06091 6.19723 4.04341C6.1994 4.03338 6.20148 4.02372 6.20323 4.01496L6.24716 3.8542C6.70209 3.79143 9.83244 3.77642 10.2005 3.88132C13.0741 4.70011 12.9581 8.70758 10.3803 9.42536C9.44999 9.6844 8.21629 9.64827 7.15753 9.61727C6.81611 9.60727 6.49288 9.59781 6.20389 9.59895ZM3.63239 21.3375L3.5423 21.3286C3.44634 20.7805 3.3323 20.1941 3.19917 19.5676C2.96652 18.1551 2.99019 16.9473 3.01544 15.6584C3.02166 15.3409 3.02798 15.0184 3.03059 14.6867L3.0214 5.06963C3.01315 3.22114 3.01011 2.23802 4.34793 1.24527C5.31506 0.527494 6.77884 0.608975 8.05411 0.67996C8.35675 0.696805 8.64876 0.713061 8.921 0.717905C10.8624 0.752453 11.6662 0.939611 12.9307 1.79899C14.0329 2.54812 14.9664 3.76334 15.3079 5.49737C15.6504 7.23581 15.3989 7.83515 15.0799 8.59506C14.9343 8.94192 14.7746 9.32224 14.651 9.8596C14.7596 9.97488 14.9812 10.097 15.2613 10.2514C15.7481 10.5197 16.4119 10.8856 16.9681 11.4827C19.3947 14.0883 18.9193 17.724 16.6527 19.9018C14.9339 21.5533 12.964 21.4903 10.69 21.4175L10.6844 21.4174C10.574 21.4138 10.4629 21.4103 10.3511 21.4069C9.47806 21.3806 8.5996 21.3985 7.71861 21.4165C6.35894 21.4442 4.99326 21.472 3.63239 21.3375Z" fill="white"/>
<path fill-rule="evenodd" clip-rule="evenodd" d="M58.8824 3.66165C61.1268 2.67573 63.4818 3.0617 65.1614 3.86761C67.0123 4.7557 67.9151 5.83594 69.0427 7.97572C70.057 9.90034 69.5043 12.9001 68.8087 14.2823C66.8233 18.2275 62.2445 19.8134 58.3063 17.882C54.5466 16.0382 52.8051 11.157 54.8115 7.43908C55.7415 5.71552 56.7156 4.61341 58.8824 3.66165ZM58.5935 0.474243C57.9038 0.848241 56.6856 0.910496 54.7508 2.51959C53.6814 3.40906 52.9671 4.359 52.2717 5.48521C49.3282 10.2521 51.0132 17.4071 56.4368 20.4286C65.2593 25.3436 75.2039 16.7266 72.2439 7.58684C70.929 3.52658 67.2292 0.549007 63.3949 0.0966512C62.3223 -0.0298573 59.7133 -0.133052 58.5935 0.474243Z" fill="white"/>
<path fill-rule="evenodd" clip-rule="evenodd" d="M125.787 11.1972C125.42 10.0548 126.503 7.09008 126.982 6.2774C129.097 2.68836 132.57 2.07819 135.062 5.51934C136.231 7.13264 136.648 8.91447 136.772 11.1569C136.226 11.3202 127.647 11.1621 125.787 11.1972ZM125.628 21.2795C125.821 20.7909 125.729 15.4437 125.725 14.4338C126.055 14.3487 136.344 14.3408 136.667 14.4369C136.854 15.0581 136.771 17.0894 136.774 17.8794C136.778 18.6536 136.659 20.7398 136.841 21.341C140.522 20.9506 139.826 17.8889 139.962 16.2286C140.05 15.1513 139.956 13.7539 139.962 12.6013C139.97 11.1665 140.063 10.3954 139.769 8.78359C138.931 4.20593 135.771 -0.12686 131.023 0.107624C125.995 0.355896 123.254 5.10084 122.716 8.97268C122.539 10.2501 122.509 14.6601 122.543 16.0959C122.567 17.116 122.353 18.7961 122.943 19.7335C123.476 20.5783 124.533 21.4669 125.628 21.2795Z" fill="white"/>
<path fill-rule="evenodd" clip-rule="evenodd" d="M23.4864 11.1111C23.0704 8.72182 24.982 3.55523 28.7095 3.20763C32.902 2.81662 34.8036 9.4931 34.3989 11.025C33.7171 11.2629 27.6679 11.1141 26.1435 11.1452C25.2384 11.1636 24.2968 11.0441 23.4864 11.1111ZM23.3515 21.1996C23.4467 19.2698 23.4111 16.2836 23.3507 14.3889C23.6544 14.2502 33.919 14.231 34.354 14.3506C34.5485 15.0248 34.4105 16.9571 34.4175 17.7573C34.4252 18.6246 34.3319 20.5479 34.492 21.2803C37.55 20.937 37.7835 18.6693 37.6157 16.1266L37.6354 12.5206C37.6556 8.63694 37.2553 5.50192 34.4055 2.46136C32.9831 0.943847 31.2681 0.0507721 28.7375 0.0203981C25.966 -0.0128767 24.0124 1.76116 22.8108 3.18094C21.6322 4.57336 20.7086 6.77276 20.399 8.89387C20.0816 11.0687 20.2346 13.7039 20.2113 15.9826C20.1999 17.102 20.0328 18.6023 20.6141 19.6733C21.125 20.6145 22.2349 21.3125 23.3515 21.1996Z" fill="white"/>
<path fill-rule="evenodd" clip-rule="evenodd" d="M111.632 3.56072C113.815 2.4853 116.076 3.85589 116.827 5.51043C117.878 7.82418 116.568 9.94832 114.828 10.6954C110.109 12.7214 106.871 5.90693 111.632 3.56072ZM109.325 14.0632C109.783 14.1759 110.123 14.6627 110.62 15.1651C111.645 16.2033 115.908 20.5768 116.572 20.9624C117.795 21.672 119.046 21.3241 120.186 20.5563C119.923 19.6516 114.639 15.2175 114.185 14.134C119.911 13.001 121.593 7.42516 119.321 3.5488C116.278 -1.64247 108.32 -0.888542 106.438 5.22524C105.971 6.74036 106.199 14.2275 106.187 16.0782L106.183 20.6378C106.179 21.0378 106.071 21.2443 106.415 21.3033C106.838 21.3758 107.878 20.9038 108.152 20.667C109.903 19.1512 109.057 17.0135 109.325 14.0632Z" fill="white"/>
<path fill-rule="evenodd" clip-rule="evenodd" d="M104.671 21.2954C104.222 17.3157 100.738 18.4483 98.2954 18.2406C97.7458 18.1938 95.7514 18.3952 95.4898 18.1801L95.4053 18.0459C95.3986 18.0285 95.3788 17.9952 95.3718 17.9731C95.2683 17.6502 95.3821 15.7122 95.3569 15.0684C95.3174 14.0573 95.3469 12.8636 95.3662 11.8596C96.5852 11.5632 100.832 12.0611 101.599 11.6715C101.492 10.1039 100.517 9.15694 99.4725 8.81689C98.3455 8.45014 96.0813 8.80408 95.4243 8.61139C95.3342 8.18167 95.2761 4.16903 95.4531 3.76769L101.118 3.73893C102.237 3.7841 103.006 3.55285 103.723 2.90675C104.24 2.43979 104.799 1.52877 104.622 0.615202L100.639 0.570722C100.11 0.572867 99.6361 0.639935 99.1216 0.628172C94.7301 0.527418 92.0635 -0.113186 92.2366 5.38069C92.3054 7.56231 92.0749 17.9633 92.3497 19.0999C93.0404 21.9574 96.6609 21.3986 99.0933 21.3589C100.059 21.3431 100.908 21.4132 101.867 21.3631C102.714 21.3188 103.889 21.4931 104.671 21.2954Z" fill="white"/>
<path fill-rule="evenodd" clip-rule="evenodd" d="M91.212 0.673096L85.6097 0.633073C83.4545 0.631743 81.6764 1.00029 79.8138 1.97491C71.1347 6.51632 72.9055 18.8023 82.5508 21.0492C84.3761 21.4743 86.1127 21.29 88.0512 21.365C88.4768 21.3815 88.9545 21.3648 89.4089 21.3596C90.9535 21.3417 91.6106 21.8019 91.0102 20.2195C90.0207 17.612 87.0819 18.3456 85.2715 18.2375C81.6459 18.021 78.73 16.5297 77.5851 12.8454C76.4578 9.21793 78.6424 5.86745 81.9179 4.45602C85.7686 2.7967 88.1037 4.82172 90.2612 2.91343C90.8144 2.42413 91.3097 1.60373 91.212 0.673096Z" fill="white"/>
<path fill-rule="evenodd" clip-rule="evenodd" d="M43.0051 3.68355C43.2633 4.73166 42.8458 19.9447 43.1481 21.2885C46.8525 20.7677 46.1052 17.8906 46.1798 15.943C46.2468 14.1953 46.063 4.05344 46.2423 3.81193C46.4099 3.58612 47.0083 3.68313 47.1881 3.68847C47.9277 3.7104 49.8218 3.70813 50.4007 3.48208C51.7093 2.97101 52.432 1.87083 52.3927 0.595808C52.0328 0.474768 39.4554 0.471249 37.5804 0.49796C36.7712 0.509448 36.7035 0.553448 36.9616 1.43126C37.7968 4.27215 41.0106 3.58425 43.0051 3.68355Z" fill="white"/>
</svg>
