<svg width="388" height="118" viewBox="0 0 388 118" fill="none" xmlns="http://www.w3.org/2000/svg">
<g clip-path="url(#clip0)">
<path d="M29.3928 97.248C32.8248 97.248 36.0984 96.588 39.2136 95.268C42.3288 93.8952 44.9424 92.0208 47.0544 89.6448L51.0144 93.7632C48.2688 96.6144 44.9952 98.8584 41.1936 100.495C37.392 102.079 33.4056 102.871 29.2344 102.871C25.2216 102.871 21.4464 102.132 17.9088 100.654C14.424 99.1752 11.388 97.1688 8.8008 94.6344C6.2136 92.0472 4.1808 89.0112 2.7024 85.5264C1.224 81.9888 0.4848 78.24 0.4848 74.28C0.4848 70.32 1.224 66.5976 2.7024 63.1128C4.1808 59.5752 6.2136 56.5392 8.8008 54.0048C11.388 51.4176 14.424 49.3848 17.9088 47.9064C21.4464 46.428 25.2216 45.6888 29.2344 45.6888C33.5112 45.6888 37.5504 46.5072 41.352 48.144C45.2064 49.728 48.48 51.9456 51.1728 54.7968L47.1336 59.0736C44.9688 56.6448 42.276 54.744 39.0552 53.3712C35.8872 51.9984 32.6136 51.312 29.2344 51.312C26.0664 51.312 23.0832 51.9192 20.2848 53.1336C17.5392 54.2952 15.1632 55.9056 13.1568 57.9648C11.1504 59.9712 9.5664 62.4 8.4048 65.2512C7.2432 68.0496 6.6624 71.0592 6.6624 74.28C6.6624 77.5008 7.2432 80.5368 8.4048 83.388C9.5664 86.1864 11.1504 88.6152 13.1568 90.6744C15.216 92.6808 17.6184 94.2912 20.364 95.5056C23.1624 96.6672 26.172 97.248 29.3928 97.248ZM55.7782 82.1208C55.7782 79.2696 56.3062 76.5768 57.3622 74.0424C58.4182 71.508 59.8438 69.3168 61.639 67.4688C63.487 65.6208 65.6518 64.1688 68.1334 63.1128C70.615 62.0568 73.255 61.5288 76.0534 61.5288C78.8518 61.5288 81.4654 62.0568 83.8942 63.1128C86.3758 64.1688 88.5142 65.6208 90.3094 67.4688C92.1574 69.3168 93.6094 71.508 94.6654 74.0424C95.7214 76.5768 96.2494 79.2696 96.2494 82.1208C96.2494 85.0248 95.7214 87.744 94.6654 90.2784C93.6094 92.8128 92.1574 95.004 90.3094 96.852C88.5142 98.7 86.3758 100.152 83.8942 101.208C81.4654 102.264 78.8518 102.792 76.0534 102.792C73.255 102.792 70.615 102.264 68.1334 101.208C65.6518 100.152 63.487 98.7 61.639 96.852C59.8438 95.004 58.4182 92.8128 57.3622 90.2784C56.3062 87.744 55.7782 85.0248 55.7782 82.1208ZM76.0534 97.5648C78.0598 97.5648 79.9342 97.1688 81.6766 96.3768C83.4718 95.5848 85.003 94.5024 86.2702 93.1296C87.5902 91.704 88.6198 90.0672 89.359 88.2192C90.0982 86.3184 90.4678 84.2856 90.4678 82.1208C90.4678 79.956 90.0982 77.9496 89.359 76.1016C88.6198 74.2008 87.5902 72.564 86.2702 71.1912C85.003 69.8184 83.4718 68.736 81.6766 67.944C79.9342 67.152 78.0598 66.756 76.0534 66.756C74.047 66.756 72.1462 67.152 70.351 67.944C68.6086 68.736 67.0774 69.8184 65.7574 71.1912C64.4902 72.564 63.4606 74.2008 62.6686 76.1016C61.9294 77.9496 61.5598 79.956 61.5598 82.1208C61.5598 84.2856 61.9294 86.3184 62.6686 88.2192C63.4078 90.0672 64.411 91.704 65.6782 93.1296C66.9982 94.5024 68.5558 95.5848 70.351 96.3768C72.1462 97.1688 74.047 97.5648 76.0534 97.5648ZM110.254 45.2136V102H104.393V46.56L110.254 45.2136ZM126.109 45.2136V102H120.248V46.56L126.109 45.2136ZM169.526 97.8024C167.308 99.4392 164.985 100.68 162.556 101.525C160.18 102.317 157.567 102.713 154.716 102.713C151.864 102.713 149.172 102.185 146.637 101.129C144.156 100.073 141.991 98.6208 140.143 96.7728C138.348 94.9248 136.922 92.76 135.866 90.2784C134.81 87.744 134.282 85.0248 134.282 82.1208C134.282 79.2696 134.784 76.6032 135.787 74.1216C136.843 71.64 138.242 69.4752 139.984 67.6272C141.727 65.7792 143.786 64.3272 146.162 63.2712C148.591 62.2152 151.152 61.6872 153.844 61.6872C156.484 61.6872 158.94 62.2152 161.21 63.2712C163.533 64.3272 165.513 65.7792 167.15 67.6272C168.84 69.4752 170.16 71.64 171.11 74.1216C172.113 76.6032 172.615 79.2696 172.615 82.1208V83.9424H140.064C140.486 87.8496 142.096 91.0968 144.895 93.684C147.693 96.2712 151.046 97.5648 154.953 97.5648C157.012 97.5648 159.019 97.248 160.972 96.6144C162.926 95.9808 164.563 95.0832 165.883 93.9216L169.526 97.8024ZM153.686 66.8352C150.254 66.8352 147.271 67.9968 144.736 70.32C142.255 72.6432 140.75 75.6264 140.222 79.2696H166.754C166.226 75.7848 164.721 72.8544 162.24 70.4784C159.811 68.0496 156.96 66.8352 153.686 66.8352ZM199.418 97.4064C201.53 97.4064 203.563 96.984 205.517 96.1392C207.47 95.2944 209.292 94.0536 210.982 92.4168L214.625 96.3768C212.513 98.3832 210.137 99.9408 207.497 101.05C204.857 102.158 202.111 102.713 199.26 102.713C196.462 102.713 193.822 102.185 191.34 101.129C188.858 100.073 186.72 98.6208 184.925 96.7728C183.13 94.9248 181.704 92.7336 180.648 90.1992C179.592 87.6648 179.064 84.972 179.064 82.1208C179.064 79.2696 179.592 76.6032 180.648 74.1216C181.704 71.5872 183.13 69.396 184.925 67.548C186.72 65.7 188.858 64.248 191.34 63.192C193.822 62.0832 196.462 61.5288 199.26 61.5288C202.111 61.5288 204.883 62.0832 207.576 63.192C210.322 64.3008 212.724 65.832 214.783 67.7856L211.061 72.0624C209.477 70.4256 207.655 69.1584 205.596 68.2608C203.537 67.3632 201.451 66.9144 199.339 66.9144C197.333 66.9144 195.432 67.3104 193.637 68.1024C191.842 68.8944 190.284 69.9768 188.964 71.3496C187.697 72.7224 186.694 74.3328 185.954 76.1808C185.215 78.0288 184.846 80.0088 184.846 82.1208C184.846 84.2856 185.215 86.3184 185.954 88.2192C186.746 90.0672 187.776 91.6776 189.043 93.0504C190.363 94.3704 191.921 95.4264 193.716 96.2184C195.511 97.0104 197.412 97.4064 199.418 97.4064ZM227.175 93.1296V67.3104H218.621V62.3208H227.175V52.2624L232.957 50.7576V62.3208H244.916V67.3104H232.957V91.6248C232.957 93.7368 233.432 95.268 234.382 96.2184C235.333 97.116 236.89 97.5648 239.055 97.5648C240.164 97.5648 241.141 97.4856 241.985 97.3272C242.883 97.1688 243.833 96.9048 244.837 96.5352V101.683C243.833 102.053 242.698 102.317 241.431 102.475C240.217 102.634 239.029 102.713 237.867 102.713C234.435 102.713 231.795 101.894 229.947 100.258C228.099 98.6208 227.175 96.2448 227.175 93.1296ZM254.122 54.7176C253.066 54.7176 252.142 54.3216 251.35 53.5296C250.558 52.7376 250.162 51.8136 250.162 50.7576C250.162 49.6488 250.558 48.7248 251.35 47.9856C252.142 47.1936 253.066 46.7976 254.122 46.7976C255.23 46.7976 256.154 47.1936 256.894 47.9856C257.686 48.7248 258.082 49.6488 258.082 50.7576C258.082 51.8136 257.686 52.7376 256.894 53.5296C256.154 54.3216 255.23 54.7176 254.122 54.7176ZM257.052 62.3208V102H251.191V62.3208H257.052ZM265.225 82.1208C265.225 79.2696 265.753 76.5768 266.809 74.0424C267.865 71.508 269.291 69.3168 271.086 67.4688C272.934 65.6208 275.099 64.1688 277.58 63.1128C280.062 62.0568 282.702 61.5288 285.5 61.5288C288.299 61.5288 290.912 62.0568 293.341 63.1128C295.823 64.1688 297.961 65.6208 299.756 67.4688C301.604 69.3168 303.056 71.508 304.112 74.0424C305.168 76.5768 305.696 79.2696 305.696 82.1208C305.696 85.0248 305.168 87.744 304.112 90.2784C303.056 92.8128 301.604 95.004 299.756 96.852C297.961 98.7 295.823 100.152 293.341 101.208C290.912 102.264 288.299 102.792 285.5 102.792C282.702 102.792 280.062 102.264 277.58 101.208C275.099 100.152 272.934 98.7 271.086 96.852C269.291 95.004 267.865 92.8128 266.809 90.2784C265.753 87.744 265.225 85.0248 265.225 82.1208ZM285.5 97.5648C287.507 97.5648 289.381 97.1688 291.123 96.3768C292.919 95.5848 294.45 94.5024 295.717 93.1296C297.037 91.704 298.067 90.0672 298.806 88.2192C299.545 86.3184 299.915 84.2856 299.915 82.1208C299.915 79.956 299.545 77.9496 298.806 76.1016C298.067 74.2008 297.037 72.564 295.717 71.1912C294.45 69.8184 292.919 68.736 291.123 67.944C289.381 67.152 287.507 66.756 285.5 66.756C283.494 66.756 281.593 67.152 279.798 67.944C278.055 68.736 276.524 69.8184 275.204 71.1912C273.937 72.564 272.907 74.2008 272.115 76.1016C271.376 77.9496 271.007 79.956 271.007 82.1208C271.007 84.2856 271.376 86.3184 272.115 88.2192C272.855 90.0672 273.858 91.704 275.125 93.1296C276.445 94.5024 278.003 95.5848 279.798 96.3768C281.593 97.1688 283.494 97.5648 285.5 97.5648ZM313.84 102V62.3208H319.7V66.9936C321.232 65.1984 323.053 63.852 325.165 62.9544C327.277 62.004 329.627 61.5288 332.214 61.5288C336.702 61.5288 340.372 62.9544 343.223 65.8056C346.074 68.6568 347.5 72.3528 347.5 76.8936V102H341.718V78.0816C341.718 74.5968 340.715 71.8248 338.708 69.7656C336.702 67.7064 334.009 66.6768 330.63 66.6768C328.254 66.6768 326.116 67.2048 324.215 68.2608C322.367 69.3168 320.862 70.8216 319.7 72.7752V102H313.84ZM353.268 96.5352L356.832 92.7336C358.627 94.4232 360.633 95.7432 362.851 96.6936C365.121 97.5912 367.418 98.04 369.741 98.04C372.909 98.04 375.496 97.38 377.503 96.06C379.509 94.74 380.512 93.024 380.512 90.912C380.512 89.2224 379.905 87.9024 378.691 86.952C377.529 85.9488 375.681 85.2624 373.147 84.8928L366.256 83.9424C362.296 83.3616 359.34 82.2 357.386 80.4576C355.485 78.6624 354.535 76.26 354.535 73.2504C354.535 69.924 355.934 67.1784 358.732 65.0136C361.531 62.796 365.095 61.6872 369.424 61.6872C372.276 61.6872 374.968 62.1096 377.503 62.9544C380.09 63.7992 382.598 65.1192 385.027 66.9144L381.938 70.8744C379.72 69.396 377.556 68.2872 375.444 67.548C373.384 66.8088 371.272 66.4392 369.108 66.4392C366.415 66.4392 364.197 67.0464 362.455 68.2608C360.765 69.4752 359.92 71.0592 359.92 73.0128C359.92 74.7024 360.501 76.0224 361.663 76.9728C362.824 77.8704 364.699 78.504 367.286 78.8736L374.176 79.824C378.136 80.352 381.093 81.54 383.047 83.388C385.053 85.1832 386.056 87.5856 386.056 90.5952C386.056 92.2848 385.634 93.8952 384.789 95.4264C383.997 96.9048 382.862 98.1984 381.384 99.3072C379.958 100.363 378.268 101.208 376.315 101.842C374.361 102.422 372.249 102.713 369.979 102.713C366.705 102.713 363.616 102.185 360.712 101.129C357.861 100.02 355.38 98.4888 353.268 96.5352Z" fill="white"/>
</g>
<defs>
<clipPath id="clip0">
<rect width="388" height="118" fill="white"/>
</clipPath>
</defs>
</svg>
