<svg width="388" height="118" viewBox="0 0 388 118" fill="none" xmlns="http://www.w3.org/2000/svg">
<g clip-path="url(#clip0)">
<path d="M29.3928 97.248C32.8248 97.248 36.0984 96.588 39.2136 95.268C42.3288 93.8952 44.9424 92.0208 47.0544 89.6448L51.0144 93.7632C48.2688 96.6144 44.9952 98.8584 41.1936 100.495C37.392 102.079 33.4056 102.871 29.2344 102.871C25.2216 102.871 21.4464 102.132 17.9088 100.654C14.424 99.1752 11.388 97.1688 8.8008 94.6344C6.2136 92.0472 4.1808 89.0112 2.7024 85.5264C1.224 81.9888 0.4848 78.24 0.4848 74.28C0.4848 70.32 1.224 66.5976 2.7024 63.1128C4.1808 59.5752 6.2136 56.5392 8.8008 54.0048C11.388 51.4176 14.424 49.3848 17.9088 47.9064C21.4464 46.428 25.2216 45.6888 29.2344 45.6888C33.5112 45.6888 37.5504 46.5072 41.352 48.144C45.2064 49.728 48.48 51.9456 51.1728 54.7968L47.1336 59.0736C44.9688 56.6448 42.276 54.744 39.0552 53.3712C35.8872 51.9984 32.6136 51.312 29.2344 51.312C26.0664 51.312 23.0832 51.9192 20.2848 53.1336C17.5392 54.2952 15.1632 55.9056 13.1568 57.9648C11.1504 59.9712 9.5664 62.4 8.4048 65.2512C7.2432 68.0496 6.6624 71.0592 6.6624 74.28C6.6624 77.5008 7.2432 80.5368 8.4048 83.388C9.5664 86.1864 11.1504 88.6152 13.1568 90.6744C15.216 92.6808 17.6184 94.2912 20.364 95.5056C23.1624 96.6672 26.172 97.248 29.3928 97.248ZM55.7782 82.1208C55.7782 79.2696 56.3062 76.5768 57.3622 74.0424C58.4182 71.508 59.8438 69.3168 61.639 67.4688C63.487 65.6208 65.6518 64.1688 68.1334 63.1128C70.615 62.0568 73.255 61.5288 76.0534 61.5288C78.8518 61.5288 81.4654 62.0568 83.8942 63.1128C86.3758 64.1688 88.5142 65.6208 90.3094 67.4688C92.1574 69.3168 93.6094 71.508 94.6654 74.0424C95.7214 76.5768 96.2494 79.2696 96.2494 82.1208C96.2494 85.0248 95.7214 87.744 94.6654 90.2784C93.6094 92.8128 92.1574 95.004 90.3094 96.852C88.5142 98.7 86.3758 100.152 83.8942 101.208C81.4654 102.264 78.8518 102.792 76.0534 102.792C73.255 102.792 70.615 102.264 68.1334 101.208C65.6518 100.152 63.487 98.7 61.639 96.852C59.8438 95.004 58.4182 92.8128 57.3622 90.2784C56.3062 87.744 55.7782 85.0248 55.7782 82.1208ZM76.0534 97.5648C78.0598 97.5648 79.9342 97.1688 81.6766 96.3768C83.4718 95.5848 85.003 94.5024 86.2702 93.1296C87.5902 91.704 88.6198 90.0672 89.359 88.2192C90.0982 86.3184 90.4678 84.2856 90.4678 82.1208C90.4678 79.956 90.0982 77.9496 89.359 76.1016C88.6198 74.2008 87.5902 72.564 86.2702 71.1912C85.003 69.8184 83.4718 68.736 81.6766 67.944C79.9342 67.152 78.0598 66.756 76.0534 66.756C74.047 66.756 72.1462 67.152 70.351 67.944C68.6086 68.736 67.0774 69.8184 65.7574 71.1912C64.4902 72.564 63.4606 74.2008 62.6686 76.1016C61.9294 77.9496 61.5598 79.956 61.5598 82.1208C61.5598 84.2856 61.9294 86.3184 62.6686 88.2192C63.4078 90.0672 64.411 91.704 65.6782 93.1296C66.9982 94.5024 68.5558 95.5848 70.351 96.3768C72.1462 97.1688 74.047 97.5648 76.0534 97.5648ZM110.254 45.2136V102H104.393V46.56L110.254 45.2136ZM126.109 45.2136V102H120.248V46.56L126.109 45.2136ZM169.526 97.8024C167.308 99.4392 164.985 100.68 162.556 101.525C160.18 102.317 157.567 102.713 154.716 102.713C151.864 102.713 149.172 102.185 146.637 101.129C144.156 100.073 141.991 98.6208 140.143 96.7728C138.348 94.9248 136.922 92.76 135.866 90.2784C134.81 87.744 134.282 85.0248 134.282 82.1208C134.282 79.2696 134.784 76.6032 135.787 74.1216C136.843 71.64 138.242 69.4752 139.984 67.6272C141.727 65.7792 143.786 64.3272 146.162 63.2712C148.591 62.2152 151.152 61.6872 153.844 61.6872C156.484 61.6872 158.94 62.2152 161.21 63.2712C163.533 64.3272 165.513 65.7792 167.15 67.6272C168.84 69.4752 170.16 71.64 171.11 74.1216C172.113 76.6032 172.615 79.2696 172.615 82.1208V83.9424H140.064C140.486 87.8496 142.096 91.0968 144.895 93.684C147.693 96.2712 151.046 97.5648 154.953 97.5648C157.012 97.5648 159.019 97.248 160.972 96.6144C162.926 95.9808 164.563 95.0832 165.883 93.9216L169.526 97.8024ZM153.686 66.8352C150.254 66.8352 147.271 67.9968 144.736 70.32C142.255 72.6432 140.75 75.6264 140.222 79.2696H166.754C166.226 75.7848 164.721 72.8544 162.24 70.4784C159.811 68.0496 156.96 66.8352 153.686 66.8352ZM199.418 97.4064C201.53 97.4064 203.563 96.984 205.517 96.1392C207.47 95.2944 209.292 94.0536 210.982 92.4168L214.625 96.3768C212.513 98.3832 210.137 99.9408 207.497 101.05C204.857 102.158 202.111 102.713 199.26 102.713C196.462 102.713 193.822 102.185 191.34 101.129C188.858 100.073 186.72 98.6208 184.925 96.7728C183.13 94.9248 181.704 92.7336 180.648 90.1992C179.592 87.6648 179.064 84.972 179.064 82.1208C179.064 79.2696 179.592 76.6032 180.648 74.1216C181.704 71.5872 183.13 69.396 184.925 67.548C186.72 65.7 188.858 64.248 191.34 63.192C193.822 62.0832 196.462 61.5288 199.26 61.5288C202.111 61.5288 204.883 62.0832 207.576 63.192C210.322 64.3008 212.724 65.832 214.783 67.7856L211.061 72.0624C209.477 70.4256 207.655 69.1584 205.596 68.2608C203.537 67.3632 201.451 66.9144 199.339 66.9144C197.333 66.9144 195.432 67.3104 193.637 68.1024C191.842 68.8944 190.284 69.9768 188.964 71.3496C187.697 72.7224 186.694 74.3328 185.954 76.1808C185.215 78.0288 184.846 80.0088 184.846 82.1208C184.846 84.2856 185.215 86.3184 185.954 88.2192C186.746 90.0672 187.776 91.6776 189.043 93.0504C190.363 94.3704 191.921 95.4264 193.716 96.2184C195.511 97.0104 197.412 97.4064 199.418 97.4064ZM227.175 93.1296V67.3104H218.621V62.3208H227.175V52.2624L232.957 50.7576V62.3208H244.916V67.3104H232.957V91.6248C232.957 93.7368 233.432 95.268 234.382 96.2184C235.333 97.116 236.89 97.5648 239.055 97.5648C240.164 97.5648 241.141 97.4856 241.985 97.3272C242.883 97.1688 243.833 96.9048 244.837 96.5352V101.683C243.833 102.053 242.698 102.317 241.431 102.475C240.217 102.634 239.029 102.713 237.867 102.713C234.435 102.713 231.795 101.894 229.947 100.258C228.099 98.6208 227.175 96.2448 227.175 93.1296ZM254.122 54.7176C253.066 54.7176 252.142 54.3216 251.35 53.5296C250.558 52.7376 250.162 51.8136 250.162 50.7576C250.162 49.6488 250.558 48.7248 251.35 47.9856C252.142 47.1936 253.066 46.7976 254.122 46.7976C255.23 46.7976 256.154 47.1936 256.894 47.9856C257.686 48.7248 258.082 49.6488 258.082 50.7576C258.082 51.8136 257.686 52.7376 256.894 53.5296C256.154 54.3216 255.23 54.7176 254.122 54.7176ZM257.052 62.3208V102H251.191V62.3208H257.052ZM265.225 82.1208C265.225 79.2696 265.753 76.5768 266.809 74.0424C267.865 71.508 269.291 69.3168 271.086 67.4688C272.934 65.6208 275.099 64.1688 277.58 63.1128C280.062 62.0568 282.702 61.5288 285.5 61.5288C288.299 61.5288 290.912 62.0568 293.341 63.1128C295.823 64.1688 297.961 65.6208 299.756 67.4688C301.604 69.3168 303.056 71.508 304.112 74.0424C305.168 76.5768 305.696 79.2696 305.696 82.1208C305.696 85.0248 305.168 87.744 304.112 90.2784C303.056 92.8128 301.604 95.004 299.756 96.852C297.961 98.7 295.823 100.152 293.341 101.208C290.912 102.264 288.299 102.792 285.5 102.792C282.702 102.792 280.062 102.264 277.58 101.208C275.099 100.152 272.934 98.7 271.086 96.852C269.291 95.004 267.865 92.8128 266.809 90.2784C265.753 87.744 265.225 85.0248 265.225 82.1208ZM285.5 97.5648C287.507 97.5648 289.381 97.1688 291.123 96.3768C292.919 95.5848 294.45 94.5024 295.717 93.1296C297.037 91.704 298.067 90.0672 298.806 88.2192C299.545 86.3184 299.915 84.2856 299.915 82.1208C299.915 79.956 299.545 77.9496 298.806 76.1016C298.067 74.2008 297.037 72.564 295.717 71.1912C294.45 69.8184 292.919 68.736 291.123 67.944C289.381 67.152 287.507 66.756 285.5 66.756C283.494 66.756 281.593 67.152 279.798 67.944C278.055 68.736 276.524 69.8184 275.204 71.1912C273.937 72.564 272.907 74.2008 272.115 76.1016C271.376 77.9496 271.007 79.956 271.007 82.1208C271.007 84.2856 271.376 86.3184 272.115 88.2192C272.855 90.0672 273.858 91.704 275.125 93.1296C276.445 94.5024 278.003 95.5848 279.798 96.3768C281.593 97.1688 283.494 97.5648 285.5 97.5648ZM313.84 102V62.3208H319.7V66.9936C321.232 65.1984 323.053 63.852 325.165 62.9544C327.277 62.004 329.627 61.5288 332.214 61.5288C336.702 61.5288 340.372 62.9544 343.223 65.8056C346.074 68.6568 347.5 72.3528 347.5 76.8936V102H341.718V78.0816C341.718 74.5968 340.715 71.8248 338.708 69.7656C336.702 67.7064 334.009 66.6768 330.63 66.6768C328.254 66.6768 326.116 67.2048 324.215 68.2608C322.367 69.3168 320.862 70.8216 319.7 72.7752V102H313.84ZM353.268 96.5352L356.832 92.7336C358.627 94.4232 360.633 95.7432 362.851 96.6936C365.121 97.5912 367.418 98.04 369.741 98.04C372.909 98.04 375.496 97.38 377.503 96.06C379.509 94.74 380.512 93.024 380.512 90.912C380.512 89.2224 379.905 87.9024 378.691 86.952C377.529 85.9488 375.681 85.2624 373.147 84.8928L366.256 83.9424C362.296 83.3616 359.34 82.2 357.386 80.4576C355.485 78.6624 354.535 76.26 354.535 73.2504C354.535 69.924 355.934 67.1784 358.732 65.0136C361.531 62.796 365.095 61.6872 369.424 61.6872C372.276 61.6872 374.968 62.1096 377.503 62.9544C380.09 63.7992 382.598 65.1192 385.027 66.9144L381.938 70.8744C379.72 69.396 377.556 68.2872 375.444 67.548C373.384 66.8088 371.272 66.4392 369.108 66.4392C366.415 66.4392 364.197 67.0464 362.455 68.2608C360.765 69.4752 359.92 71.0592 359.92 73.0128C359.92 74.7024 360.501 76.0224 361.663 76.9728C362.824 77.8704 364.699 78.504 367.286 78.8736L374.176 79.824C378.136 80.352 381.093 81.54 383.047 83.388C385.053 85.1832 386.056 87.5856 386.056 90.5952C386.056 92.2848 385.634 93.8952 384.789 95.4264C383.997 96.9048 382.862 98.1984 381.384 99.3072C379.958 100.363 378.268 101.208 376.315 101.842C374.361 102.422 372.249 102.713 369.979 102.713C366.705 102.713 363.616 102.185 360.712 101.129C357.861 100.02 355.38 98.4888 353.268 96.5352Z" fill="white"/>
<path fill-rule="evenodd" clip-rule="evenodd" d="M3.18011 31.3038C3.04908 30.6823 3.09916 26.5227 3.15205 25.7952C3.9919 25.6756 4.72554 25.6975 5.4654 25.7197C5.63271 25.7247 5.80034 25.7297 5.96958 25.7331C6.30298 25.7397 6.70587 25.7272 7.14148 25.7137C8.58844 25.6689 10.3963 25.6128 11.2167 26.2105C12.7084 27.2971 12.8834 29.4395 11.4439 30.672C10.6602 31.343 9.74038 31.3596 8.70356 31.3351C7.71995 31.3119 6.76395 31.3143 5.80892 31.3167C4.93933 31.3188 4.06943 31.321 3.18011 31.3038ZM3.20389 22.5989C3.18299 22.5173 3.08314 17.7101 3.18653 17.0966C3.18943 17.0795 3.19345 17.0609 3.19723 17.0434C3.1994 17.0334 3.20148 17.0237 3.20323 17.015L3.24716 16.8542C3.70209 16.7914 6.83244 16.7764 7.20051 16.8813C10.0741 17.7001 9.95809 21.7076 7.38033 22.4254C6.44999 22.6844 5.21629 22.6483 4.15753 22.6173C3.81611 22.6073 3.49288 22.5978 3.20389 22.5989ZM0.632389 34.3375L0.542303 34.3286C0.446338 33.7805 0.332299 33.1941 0.199168 32.5676C-0.0334783 31.1551 -0.0098146 29.9473 0.0154406 28.6584C0.0216638 28.3409 0.0279831 28.0184 0.0305892 27.6867L0.0213973 18.0696C0.013153 16.2211 0.0101101 15.238 1.34793 14.2453C2.31506 13.5275 3.77884 13.609 5.05411 13.68C5.35675 13.6968 5.64876 13.7131 5.921 13.7179C7.86244 13.7525 8.66619 13.9396 9.93068 14.799C11.0329 15.5481 11.9664 16.7633 12.3079 18.4974C12.6504 20.2358 12.3989 20.8352 12.0799 21.5951C11.9343 21.9419 11.7746 22.3222 11.651 22.8596C11.7596 22.9749 11.9812 23.097 12.2613 23.2514C12.7481 23.5197 13.4119 23.8856 13.9681 24.4827C16.3947 27.0883 15.9193 30.724 13.6527 32.9018C11.9339 34.5533 9.96404 34.4903 7.68996 34.4175L7.6844 34.4174C7.574 34.4138 7.46289 34.4103 7.35106 34.4069C6.47806 34.3806 5.5996 34.3985 4.71861 34.4165C3.35894 34.4442 1.99326 34.472 0.632389 34.3375Z" fill="white"/>
<path fill-rule="evenodd" clip-rule="evenodd" d="M55.8824 16.6616C58.1268 15.6757 60.4818 16.0617 62.1614 16.8676C64.0123 17.7557 64.9151 18.8359 66.0427 20.9757C67.057 22.9003 66.5043 25.9001 65.8087 27.2823C63.8233 31.2275 59.2445 32.8134 55.3063 30.882C51.5466 29.0382 49.8051 24.157 51.8115 20.4391C52.7415 18.7155 53.7156 17.6134 55.8824 16.6616ZM55.5935 13.4742C54.9038 13.8482 53.6856 13.9105 51.7508 15.5196C50.6814 16.4091 49.9671 17.359 49.2717 18.4852C46.3282 23.2521 48.0132 30.4071 53.4368 33.4286C62.2593 38.3436 72.2039 29.7266 69.2439 20.5868C67.929 16.5266 64.2292 13.549 60.3949 13.0967C59.3223 12.9701 56.7133 12.8669 55.5935 13.4742Z" fill="white"/>
<path fill-rule="evenodd" clip-rule="evenodd" d="M122.787 24.1972C122.42 23.0548 123.503 20.0901 123.982 19.2774C126.097 15.6884 129.57 15.0782 132.062 18.5193C133.231 20.1326 133.648 21.9145 133.772 24.1569C133.226 24.3202 124.647 24.1621 122.787 24.1972ZM122.628 34.2795C122.821 33.7909 122.729 28.4437 122.725 27.4338C123.055 27.3487 133.344 27.3408 133.667 27.4369C133.854 28.0581 133.771 30.0894 133.774 30.8794C133.778 31.6536 133.659 33.7398 133.841 34.341C137.522 33.9506 136.826 30.8889 136.962 29.2286C137.05 28.1513 136.956 26.7539 136.962 25.6013C136.97 24.1665 137.063 23.3954 136.769 21.7836C135.931 17.2059 132.771 12.8731 128.023 13.1076C122.995 13.3559 120.254 18.1008 119.716 21.9727C119.539 23.2501 119.509 27.6601 119.543 29.0959C119.567 30.116 119.353 31.7961 119.943 32.7335C120.476 33.5783 121.533 34.4669 122.628 34.2795Z" fill="white"/>
<path fill-rule="evenodd" clip-rule="evenodd" d="M20.4864 24.1111C20.0704 21.7218 21.982 16.5552 25.7095 16.2076C29.902 15.8166 31.8036 22.4931 31.3989 24.025C30.7171 24.2629 24.6679 24.1141 23.1435 24.1452C22.2384 24.1636 21.2968 24.0441 20.4864 24.1111ZM20.3515 34.1996C20.4467 32.2698 20.4111 29.2836 20.3507 27.3889C20.6544 27.2502 30.919 27.231 31.354 27.3506C31.5485 28.0248 31.4105 29.9571 31.4175 30.7573C31.4252 31.6246 31.3319 33.5479 31.492 34.2803C34.55 33.937 34.7835 31.6693 34.6157 29.1266L34.6354 25.5206C34.6556 21.6369 34.2553 18.5019 31.4055 15.4614C29.9831 13.9438 28.2681 13.0508 25.7375 13.0204C22.966 12.9871 21.0124 14.7612 19.8108 16.1809C18.6322 17.5734 17.7086 19.7728 17.399 21.8939C17.0816 24.0687 17.2346 26.7039 17.2113 28.9826C17.1999 30.102 17.0328 31.6023 17.6141 32.6733C18.125 33.6145 19.2349 34.3125 20.3515 34.1996Z" fill="white"/>
<path fill-rule="evenodd" clip-rule="evenodd" d="M108.632 16.5607C110.815 15.4853 113.076 16.8559 113.827 18.5104C114.878 20.8242 113.568 22.9483 111.828 23.6954C107.109 25.7214 103.871 18.9069 108.632 16.5607ZM106.325 27.0632C106.783 27.1759 107.123 27.6627 107.62 28.1651C108.645 29.2033 112.908 33.5768 113.572 33.9624C114.795 34.672 116.046 34.3241 117.186 33.5563C116.923 32.6516 111.639 28.2175 111.185 27.134C116.911 26.001 118.593 20.4252 116.321 16.5488C113.278 11.3575 105.32 12.1115 103.438 18.2252C102.971 19.7404 103.199 27.2275 103.187 29.0782L103.183 33.6378C103.179 34.0378 103.071 34.2443 103.415 34.3033C103.838 34.3758 104.878 33.9038 105.152 33.667C106.903 32.1512 106.057 30.0135 106.325 27.0632Z" fill="white"/>
<path fill-rule="evenodd" clip-rule="evenodd" d="M101.671 34.2954C101.222 30.3157 97.7382 31.4483 95.2954 31.2406C94.7458 31.1938 92.7514 31.3952 92.4898 31.1801L92.4053 31.0459C92.3986 31.0285 92.3788 30.9952 92.3718 30.9731C92.2683 30.6502 92.3821 28.7122 92.3569 28.0684C92.3174 27.0573 92.3469 25.8636 92.3662 24.8596C93.5852 24.5632 97.8318 25.0611 98.5993 24.6715C98.4922 23.1039 97.5174 22.1569 96.4725 21.8169C95.3455 21.4501 93.0813 21.8041 92.4243 21.6114C92.3342 21.1817 92.2761 17.169 92.4531 16.7677L98.1184 16.7389C99.2365 16.7841 100.006 16.5528 100.723 15.9067C101.24 15.4398 101.799 14.5288 101.622 13.6152L97.6391 13.5707C97.1096 13.5729 96.6361 13.6399 96.1216 13.6282C91.7301 13.5274 89.0635 12.8868 89.2366 18.3807C89.3054 20.5623 89.0749 30.9633 89.3497 32.0999C90.0404 34.9574 93.6609 34.3986 96.0933 34.3589C97.059 34.3431 97.9081 34.4132 98.8674 34.3631C99.7145 34.3188 100.889 34.4931 101.671 34.2954Z" fill="white"/>
<path fill-rule="evenodd" clip-rule="evenodd" d="M88.212 13.6731L82.6097 13.6331C80.4545 13.6317 78.6764 14.0003 76.8138 14.9749C68.1347 19.5163 69.9055 31.8023 79.5508 34.0492C81.3761 34.4743 83.1127 34.29 85.0512 34.365C85.4768 34.3815 85.9545 34.3648 86.4089 34.3596C87.9535 34.3417 88.6106 34.8019 88.0102 33.2195C87.0207 30.612 84.0819 31.3456 82.2715 31.2375C78.6459 31.021 75.73 29.5297 74.5851 25.8454C73.4578 22.2179 75.6424 18.8674 78.9179 17.456C82.7686 15.7967 85.1037 17.8217 87.2612 15.9134C87.8144 15.4241 88.3097 14.6037 88.212 13.6731Z" fill="white"/>
<path fill-rule="evenodd" clip-rule="evenodd" d="M40.0051 16.6836C40.2633 17.7317 39.8458 32.9447 40.1481 34.2885C43.8525 33.7677 43.1052 30.8906 43.1798 28.943C43.2468 27.1953 43.063 17.0534 43.2423 16.8119C43.4099 16.5861 44.0083 16.6831 44.1881 16.6885C44.9277 16.7104 46.8218 16.7081 47.4007 16.4821C48.7093 15.971 49.432 14.8708 49.3927 13.5958C49.0328 13.4748 36.4554 13.4712 34.5804 13.498C33.7712 13.5094 33.7035 13.5534 33.9616 14.4313C34.7968 17.2721 38.0106 16.5843 40.0051 16.6836Z" fill="white"/>
</g>
<defs>
<clipPath id="clip0">
<rect width="388" height="118" fill="white"/>
</clipPath>
</defs>
</svg>
