<svg width="1480" height="1080" viewBox="0 0 1480 1080" fill="none" xmlns="http://www.w3.org/2000/svg">
<rect width="1480" height="1080" fill="#303030"/>
<path d="M596.477 488.236C596.477 489.087 595.787 489.777 594.936 489.777C594.085 489.777 593.396 489.087 593.396 488.236C593.396 487.385 594.085 486.695 594.936 486.695C595.787 486.695 596.477 487.385 596.477 488.236Z" fill="white" stroke="white" stroke-width="2"/>
<path d="M591.395 493.318C591.395 494.169 590.705 494.859 589.854 494.859C589.003 494.859 588.313 494.169 588.313 493.318C588.313 492.467 589.003 491.777 589.854 491.777C590.705 491.777 591.395 492.467 591.395 493.318Z" fill="white" stroke="white" stroke-width="2"/>
<path d="M601.558 493.318C601.558 494.169 600.868 494.859 600.017 494.859C599.166 494.859 598.477 494.169 598.477 493.318C598.477 492.467 599.166 491.777 600.017 491.777C600.868 491.777 601.558 492.467 601.558 493.318Z" fill="white" stroke="white" stroke-width="2"/>
<path d="M596.477 498.4C596.477 499.251 595.787 499.94 594.936 499.94C594.085 499.94 593.396 499.251 593.396 498.4C593.396 497.549 594.085 496.859 594.936 496.859C595.787 496.859 596.477 497.549 596.477 498.4Z" fill="white" stroke="white" stroke-width="2"/>
<path fill-rule="evenodd" clip-rule="evenodd" d="M103.788 469.775C103.653 469.138 103.705 464.871 103.759 464.125C104.621 464.002 105.373 464.025 106.132 464.047C106.304 464.052 106.476 464.058 106.649 464.061C106.991 464.068 107.404 464.055 107.851 464.041C109.336 463.995 111.19 463.938 112.031 464.551C113.562 465.665 113.741 467.863 112.265 469.127C111.461 469.815 110.517 469.832 109.454 469.807C108.445 469.784 107.464 469.786 106.485 469.788L106.484 469.788L106.484 469.788C105.592 469.791 104.7 469.793 103.788 469.775ZM103.812 460.846C103.791 460.762 103.688 455.831 103.794 455.202C103.797 455.185 103.802 455.165 103.805 455.148C103.808 455.137 103.81 455.127 103.812 455.118L103.857 454.953C104.323 454.889 107.534 454.874 107.912 454.981C110.859 455.821 110.74 459.932 108.096 460.668C107.142 460.934 105.877 460.897 104.79 460.865C104.44 460.855 104.109 460.845 103.812 460.846ZM101.175 472.887L101.082 472.878C100.984 472.316 100.867 471.714 100.73 471.072C100.492 469.623 100.516 468.384 100.542 467.062C100.548 466.736 100.555 466.405 100.557 466.065L100.548 456.2C100.539 454.304 100.536 453.296 101.909 452.277C102.901 451.541 104.402 451.625 105.71 451.697C106.021 451.715 106.32 451.731 106.599 451.736C108.591 451.772 109.415 451.964 110.712 452.845C111.843 453.614 112.8 454.86 113.151 456.639C113.502 458.422 113.244 459.037 112.917 459.816C112.767 460.172 112.604 460.562 112.477 461.114C112.588 461.232 112.816 461.357 113.103 461.515C113.602 461.791 114.283 462.166 114.854 462.778C117.343 465.451 116.855 469.181 114.53 471.414C112.767 473.108 110.747 473.044 108.414 472.969L108.408 472.969C108.295 472.965 108.181 472.962 108.066 472.958C107.171 472.931 106.27 472.95 105.366 472.968C103.971 472.996 102.57 473.025 101.175 472.887Z" fill="white"/>
<path fill-rule="evenodd" clip-rule="evenodd" d="M157.847 454.756C160.15 453.745 162.565 454.141 164.288 454.967C166.187 455.878 167.113 456.986 168.27 459.181C169.31 461.155 168.743 464.232 168.029 465.65C165.993 469.697 161.296 471.324 157.257 469.343C153.4 467.451 151.614 462.444 153.672 458.631C154.626 456.863 155.625 455.732 157.847 454.756ZM157.551 451.486C156.844 451.87 155.594 451.934 153.61 453.584C152.513 454.497 151.78 455.471 151.067 456.626C148.047 461.516 149.776 468.855 155.339 471.955C164.389 476.996 174.589 468.157 171.553 458.782C170.204 454.617 166.409 451.563 162.476 451.099C161.376 450.969 158.7 450.864 157.551 451.486Z" fill="white"/>
<path fill-rule="evenodd" clip-rule="evenodd" d="M226.475 462.486C226.099 461.314 227.21 458.273 227.701 457.439C229.87 453.758 233.433 453.132 235.989 456.661C237.188 458.316 237.616 460.144 237.743 462.444C237.183 462.612 228.383 462.45 226.475 462.486ZM226.313 472.828C226.51 472.326 226.415 466.841 226.412 465.806C226.75 465.718 237.304 465.71 237.635 465.809C237.827 466.446 237.742 468.53 237.746 469.34C237.749 470.134 237.627 472.274 237.814 472.891C241.589 472.49 240.876 469.35 241.015 467.647C241.106 466.542 241.009 465.108 241.016 463.926C241.023 462.454 241.119 461.663 240.817 460.01C239.958 455.314 236.716 450.87 231.846 451.11C226.688 451.365 223.877 456.232 223.325 460.204C223.143 461.514 223.112 466.038 223.147 467.51C223.172 468.557 222.953 470.28 223.558 471.242C224.104 472.108 225.189 473.02 226.313 472.828Z" fill="white"/>
<path fill-rule="evenodd" clip-rule="evenodd" d="M121.54 462.397C121.113 459.946 123.074 454.647 126.897 454.29C131.198 453.889 133.149 460.738 132.733 462.309C132.034 462.553 125.829 462.4 124.265 462.432C123.337 462.451 122.371 462.328 121.54 462.397ZM121.402 472.746C121.499 470.766 121.463 467.703 121.401 465.76C121.712 465.617 132.241 465.598 132.687 465.72C132.887 466.412 132.745 468.394 132.753 469.215C132.76 470.104 132.665 472.077 132.829 472.828C135.966 472.476 136.205 470.15 136.033 467.542L136.053 463.843C136.074 459.859 135.663 456.644 132.74 453.525C131.281 451.968 129.522 451.052 126.926 451.021C124.083 450.987 122.079 452.807 120.847 454.263C119.638 455.691 118.691 457.947 118.373 460.123C118.047 462.354 118.204 465.057 118.18 467.394C118.169 468.542 117.997 470.081 118.594 471.18C119.118 472.145 120.256 472.861 121.402 472.746Z" fill="white"/>
<path fill-rule="evenodd" clip-rule="evenodd" d="M211.956 454.652C214.194 453.549 216.514 454.955 217.285 456.652C218.363 459.026 217.019 461.205 215.234 461.971C210.393 464.049 207.072 457.059 211.956 454.652ZM209.59 465.425C210.059 465.541 210.408 466.04 210.917 466.556C211.969 467.621 216.341 472.107 217.023 472.502C218.277 473.23 219.561 472.873 220.73 472.086C220.46 471.158 215.04 466.609 214.575 465.498C220.448 464.336 222.173 458.616 219.843 454.64C216.722 449.315 208.558 450.089 206.627 456.36C206.149 457.914 206.382 465.594 206.37 467.492L206.366 472.169C206.362 472.58 206.252 472.791 206.605 472.852C207.038 472.926 208.105 472.442 208.386 472.199C210.182 470.644 209.314 468.452 209.59 465.425Z" fill="white"/>
<path fill-rule="evenodd" clip-rule="evenodd" d="M204.815 472.844C204.355 468.762 200.781 469.923 198.276 469.71C197.712 469.662 195.666 469.869 195.398 469.648L195.311 469.511C195.304 469.493 195.284 469.459 195.277 469.436C195.17 469.105 195.287 467.117 195.261 466.456C195.221 465.419 195.251 464.195 195.271 463.165C196.521 462.861 200.877 463.372 201.665 462.972C201.555 461.364 200.555 460.393 199.483 460.044C198.327 459.668 196.004 460.031 195.331 459.833C195.238 459.392 195.178 455.276 195.36 454.865L201.171 454.835C202.318 454.882 203.107 454.644 203.842 453.982C204.374 453.503 204.946 452.568 204.766 451.631L200.68 451.585C200.137 451.588 199.651 451.656 199.123 451.644C194.618 451.541 191.883 450.884 192.061 456.519C192.131 458.757 191.895 469.426 192.177 470.592C192.885 473.523 196.599 472.95 199.094 472.909C200.085 472.893 200.956 472.965 201.94 472.913C202.808 472.868 204.013 473.047 204.815 472.844Z" fill="white"/>
<path fill-rule="evenodd" clip-rule="evenodd" d="M191.01 451.69L185.263 451.649C183.052 451.648 181.229 452.026 179.318 453.026C170.415 457.684 172.232 470.287 182.125 472.591C183.998 473.027 185.779 472.838 187.768 472.915C188.204 472.932 188.694 472.915 189.16 472.91C190.745 472.891 191.419 473.363 190.803 471.74C189.788 469.066 186.773 469.818 184.916 469.707C181.197 469.485 178.206 467.955 177.032 464.176C175.876 460.455 178.116 457.019 181.476 455.571C185.426 453.869 187.821 455.946 190.034 453.988C190.602 453.487 191.11 452.645 191.01 451.69Z" fill="white"/>
<path fill-rule="evenodd" clip-rule="evenodd" d="M141.561 454.778C141.826 455.854 141.398 471.458 141.708 472.837C145.508 472.303 144.741 469.351 144.818 467.354C144.886 465.561 144.698 455.158 144.882 454.91C145.054 454.678 145.668 454.778 145.852 454.783C146.611 454.806 148.554 454.804 149.147 454.572C150.49 454.048 151.231 452.919 151.191 451.611C150.822 451.487 137.92 451.483 135.997 451.511C135.167 451.523 135.097 451.568 135.362 452.468C136.219 455.382 139.515 454.677 141.561 454.778Z" fill="white"/>
<path fill-rule="evenodd" clip-rule="evenodd" d="M376.552 484C354.816 484 336.157 498.694 331.057 520.095C331.129 519.199 331.166 518.28 331.166 517.339C331.166 508.174 328.778 500.04 323.017 494.211C317.245 488.37 308.79 485.553 298.16 485.553H165.684V573.386L144.185 544.721C154.838 541.483 164.175 532.268 164.175 517.339C164.175 508.174 161.787 500.04 156.026 494.211C150.254 488.37 141.798 485.553 131.168 485.553H100.38V576.634H121.359V547.865L141.824 576.634H218.941V556.653H186.664V540.696H218.941V520.715H186.664V505.534H232.074V576.634H253.053V505.534H267.371V576.634H288.351V547.865L308.816 576.634H335.111L311.176 544.721C319.621 542.154 327.238 535.832 330.033 525.886C329.801 527.873 329.681 529.906 329.681 531.981C329.681 556.658 351.003 578.187 376.22 578.187C402.809 578.187 424.09 557.946 424.09 530.539C424.09 505.173 403.41 484 376.552 484ZM125.622 527.924H121.359V505.534H129.504C134.037 505.534 137.497 506.785 139.733 508.626C141.883 510.397 143.195 512.935 143.195 516.341C143.195 520.365 141.753 522.953 139.287 524.712C136.584 526.64 132.136 527.924 125.622 527.924ZM292.613 527.924H288.351V505.534H296.496C301.028 505.534 304.488 506.785 306.724 508.626C308.875 510.397 310.187 512.935 310.187 516.341C310.187 520.365 308.745 522.953 306.278 524.712C303.575 526.64 299.128 527.924 292.613 527.924ZM350.66 530.761C350.66 525.631 352.617 518.816 356.992 513.36C361.247 508.053 367.81 503.981 377.44 503.981C391.919 503.981 403.11 516.477 403.11 531.315C403.11 544.365 393.285 558.206 376.885 558.206C361.052 558.206 350.66 545.252 350.66 530.761Z" fill="white"/>
<path d="M476.411 485.553H425.927V576.634H446.906V541.139H476.411V521.158H446.906V505.534H476.411V485.553Z" fill="white"/>
<path fill-rule="evenodd" clip-rule="evenodd" d="M522.07 485.553H479.992V576.634H521.725L539.914 549.058L557.906 576.634H582.794L552.658 530.999L583.079 485.553H558.034L539.954 512.916L522.07 485.553ZM527.105 530.989L500.971 570.563V491.628L527.105 530.989Z" fill="white"/>
<path d="M100 621.139L103.995 624.588C104.963 623.957 105.888 623.663 106.476 623.452C116.401 620.214 125.107 615.21 130.868 608.313L127.883 603.56C122.499 610.121 113.121 615.504 106.266 617.481V595.612C106.266 593.972 106.434 592.458 106.687 590.818H100.084C100.336 592.037 100.547 594.014 100.547 595.612V618.406C100.547 619.373 100.505 620.088 100 621.139Z" fill="white"/>
<path d="M144.116 618.784C144.116 620.467 143.948 622.99 143.695 624.672H150.256C150.088 622.948 149.877 620.004 149.877 618.784V606.883C154.419 608.439 160.728 610.878 165.059 613.149L167.456 607.345C163.587 605.453 155.513 602.467 149.877 600.827V594.603C149.877 592.878 150.088 591.028 150.256 589.556H143.695C143.99 591.028 144.116 593.131 144.116 594.603V618.784Z" fill="white"/>
<path d="M175.321 593.005C175.405 594.182 175.405 595.906 175.405 597.084V617.649C175.405 619.668 175.279 623.326 175.279 623.537H181.082C181.082 623.41 181.082 622.443 181.04 621.266H201.311C201.311 622.485 201.269 623.452 201.269 623.537H207.072C207.072 623.368 206.988 619.331 206.988 617.691V597.084C206.988 595.822 206.988 594.266 207.072 593.005C205.558 593.089 203.96 593.089 202.909 593.089H179.779C178.643 593.089 177.045 593.047 175.321 593.005ZM181.04 598.43H201.353V615.883H181.04V598.43Z" fill="white"/>
<path d="M246.52 594.813L242.399 592.163C241.263 592.458 239.917 592.5 239.076 592.5H219.647C218.259 592.5 215.862 592.29 214.6 592.163V598.093C215.694 598.009 217.712 597.925 219.605 597.925H239.202C238.656 601.5 237.058 606.294 234.282 609.785C230.876 614.032 226.123 617.691 217.796 619.668L222.38 624.672C229.866 622.275 235.46 618.111 239.287 613.065C242.777 608.397 244.628 601.878 245.595 597.757C245.805 596.874 246.142 595.654 246.52 594.813Z" fill="white"/>
<path d="M251.923 610.836L254.404 615.798C258.063 614.663 262.773 612.728 266.474 610.878V621.981C266.474 623.452 266.348 625.681 266.264 626.522H272.488C272.235 625.681 272.193 623.452 272.193 621.981V607.556C275.936 605.074 279.637 602.088 281.614 599.902L277.45 595.822C275.305 598.556 271.058 602.341 266.979 604.822C263.656 606.841 257.39 609.658 251.923 610.836Z" fill="white"/>
<path d="M307.772 597.841L302.767 599.481C303.819 601.668 305.669 606.757 306.174 608.817L311.221 607.051C310.632 605.116 308.571 599.649 307.772 597.841ZM323.29 600.911L317.403 599.018C316.898 604.275 314.879 609.869 312.02 613.443C308.529 617.817 302.683 621.013 298.057 622.233L302.473 626.733C307.394 624.882 312.65 621.35 316.562 616.303C319.421 612.602 321.188 608.229 322.281 603.981C322.533 603.14 322.786 602.257 323.29 600.911ZM298.015 600.07L292.969 601.878C293.978 603.729 296.081 609.322 296.796 611.593L301.926 609.658C301.085 607.303 299.067 602.215 298.015 600.07Z" fill="white"/>
<path d="M349.743 590.019L343.603 588C343.225 589.43 342.341 591.364 341.711 592.416C339.608 596.033 335.949 601.458 328.589 605.958L333.299 609.448C337.421 606.63 341.08 602.93 343.897 599.271H355.715C355.042 602.425 352.603 607.472 349.743 610.752C346.084 614.915 341.416 618.574 332.795 621.139L337.757 625.597C345.664 622.485 350.752 618.616 354.748 613.738C358.533 609.028 360.93 603.434 362.065 599.691C362.402 598.64 362.99 597.462 363.453 596.663L359.163 594.014C358.196 594.308 356.808 594.519 355.505 594.519H347.052C347.094 594.434 347.136 594.392 347.178 594.308C347.682 593.383 348.776 591.491 349.743 590.019Z" fill="white"/>
<path d="M398.558 594.308L395.109 591.743C394.268 592.037 392.586 592.29 390.777 592.29H375.932C374.67 592.29 372.105 592.163 370.969 591.995V597.967C371.853 597.925 374.166 597.673 375.932 597.673H390.189C389.263 600.659 386.698 604.822 383.922 607.976C379.969 612.392 373.451 617.523 366.68 620.046L371.011 624.588C376.773 621.854 382.366 617.481 386.824 612.77C390.777 616.597 394.688 620.887 397.422 624.672L402.216 620.509C399.735 617.481 394.646 612.098 390.483 608.481C393.301 604.696 395.656 600.196 397.086 596.916C397.464 596.075 398.221 594.771 398.558 594.308Z" fill="white"/>
</svg>
