<svg width="1480" height="1080" viewBox="0 0 1480 1080" fill="none" xmlns="http://www.w3.org/2000/svg">
<g clip-path="url(#clip0)">
<rect width="1480" height="1080" fill="black"/>
<g opacity="0.3">
<path fill-rule="evenodd" clip-rule="evenodd" d="M903.4 -166.8H914.6V-185H925.673V-166.8H936.173V-185H947.245V-166.8H957.745V-185H968.818V-166.8H980.018V-185H991.091V-166.8H1002.29V-185H1013.36V-166.8H1024.56V-185H1035.64V-166.8H1046.84V-185H1057.91V-166.8H1069.11V-185H1080.18V-166.8H1090.68V-185H1101.75V-166.8H1112.95V-185H1124.03V-166.8H1134.53V-185H1145.6V-166.8H1156.8V-185H1167.87V-166.8H1178.37V-185H1189.45V-166.8H1200.65V-185H1211.72V-166.8H1222.22V-185H1233.29V-166.8H1244.49V-185H1255.56V-166.8H1266.76V-185H1277.84V-166.8H1289.04V-185H1300.11V-166.8H1311.31V-185H1322.38V-166.8H1333.58V-185H1344.65V-166.8H1355.15V-185H1366.23V-166.8H1376.73V-185H1387.8V-166.8H1399V-185H1458.15C1484.25 -185 1505.4 -163.845 1505.4 -137.75V612.65C1505.4 650.343 1474.84 680.9 1437.15 680.9H865.25C827.557 680.9 797 650.343 797 612.65V-137.75C797 -163.845 818.155 -185 844.25 -185H903.4V-166.8Z" stroke="white"/>
<path d="M818.7 -134.6C818.7 -150.064 831.236 -162.6 846.7 -162.6H1456.4C1471.86 -162.6 1484.4 -150.064 1484.4 -134.6V610.2C1484.4 637.262 1462.46 659.2 1435.4 659.2H867.7C840.638 659.2 818.7 637.262 818.7 610.2V-134.6Z" stroke="white"/>
<rect x="858.6" y="-81.3999" width="585.2" height="595.7" rx="27.3" stroke="white"/>
<path fill-rule="evenodd" clip-rule="evenodd" d="M1360.85 44.6001C1385.79 44.6001 1406 24.3857 1406 -0.54995C1406 -25.4856 1385.79 -45.7 1360.85 -45.7C1335.91 -45.7 1315.7 -25.4856 1315.7 -0.54995C1315.7 24.3857 1335.91 44.6001 1360.85 44.6001Z" stroke="white"/>
<path fill-rule="evenodd" clip-rule="evenodd" d="M909 151.014C909 144.434 914.334 139.1 920.914 139.1H1380.09C1386.67 139.1 1392 144.434 1392 151.014V168.548C1392 186.223 1378.93 201.118 1361.36 203.015C1317.78 207.722 1233.88 215.4 1150.29 215.4C1066.76 215.4 983.106 207.731 939.628 203.024C922.061 201.122 909 186.231 909 168.562V151.014Z" stroke="white"/>
<path fill-rule="evenodd" clip-rule="evenodd" d="M894.3 143.3C894.3 131.702 903.702 122.3 915.3 122.3H1385C1396.6 122.3 1406 131.702 1406 143.3V171.867C1406 196.317 1387.77 216.851 1363.43 219.144C1315.2 223.688 1232.54 230.1 1150.09 230.1C1067.67 230.1 985.066 223.691 936.863 219.147C912.523 216.852 894.3 196.32 894.3 171.871V143.3Z" stroke="white"/>
<path fill-rule="evenodd" clip-rule="evenodd" d="M1145.84 198.005C1148.64 200.687 1153.06 200.687 1155.86 198.005L1172.2 182.377C1173.21 181.409 1172.53 179.7 1171.13 179.7H1130.57C1129.17 179.7 1128.49 181.409 1129.5 182.377L1145.84 198.005Z" stroke="white"/>
<rect x="949.6" y="146.1" width="6.216" height="50.764" rx="3.108" stroke="white"/>
<rect x="1344.83" y="146.1" width="6.216" height="50.764" rx="3.108" stroke="white"/>
<rect x="911.1" y="351.2" width="106.4" height="123.2" rx="21.7" stroke="white"/>
<rect x="919.5" y="359.6" width="89.6" height="106.4" rx="14.0737" stroke="white"/>
<rect x="921.4" y="375.5" width="85.8" height="88.6" rx="12.4515" stroke="white"/>
<rect x="921.4" y="404.9" width="85.8" height="10.2" stroke="white"/>
<rect x="921.4" y="393.7" width="85.8" height="31.9" stroke="white"/>
<rect x="1041.3" y="351.2" width="218.4" height="123.2" rx="21.7" stroke="white"/>
<rect x="1049.7" y="359.6" width="201.6" height="106.4" rx="14.0737" stroke="white"/>
<rect x="1283.5" y="351.2" width="106.4" height="123.2" rx="21.7" stroke="white"/>
<rect x="1291.9" y="359.6" width="89.6" height="106.4" rx="14.0737" stroke="white"/>
<rect x="1293.8" y="361.5" width="85.8" height="102.6" rx="12.4515" stroke="white"/>
<path fill-rule="evenodd" clip-rule="evenodd" d="M899.55 413.5C902.063 413.5 904.1 411.463 904.1 408.95C904.1 406.437 902.063 404.4 899.55 404.4C897.037 404.4 895 406.437 895 408.95C895 411.463 897.037 413.5 899.55 413.5Z" stroke="white"/>
<path fill-rule="evenodd" clip-rule="evenodd" d="M899.55 399.5C902.063 399.5 904.1 397.463 904.1 394.95C904.1 392.437 902.063 390.4 899.55 390.4C897.037 390.4 895 392.437 895 394.95C895 397.463 897.037 399.5 899.55 399.5Z" stroke="white"/>
<rect x="898.5" y="514.3" width="4.9" height="144.9" stroke="white"/>
<rect x="1399" y="514.3" width="4.9" height="144.9" stroke="white"/>
<rect x="1317.8" y="608.8" width="30.8" height="9.1" rx="4.55" stroke="white"/>
<rect x="1314.3" y="605.3" width="37.8" height="16.1" rx="8.05" stroke="white"/>
<path d="M-27 563.5C-27 536.162 -4.83809 514 22.5 514H688.5C715.838 514 738 536.162 738 563.5V1268.5H-27V563.5Z" stroke="white"/>
<path d="M144 1057H-1.5V563.5C-1.5 549.417 9.91674 538 24 538H687C701.083 538 712.5 549.417 712.5 563.5V1057H568.5" stroke="white"/>
<path d="M144 781.75C144 664.528 239.403 569.5 356.626 569.5V569.5C473.434 569.5 568.5 664.192 568.5 781V1268.5H144V781.75Z" stroke="white"/>
<rect x="529.5" y="533.5" width="19.5" height="12" transform="rotate(-90 529.5 533.5)" stroke="white" stroke-linecap="round" stroke-linejoin="round"/>
<rect x="169.5" y="533.5" width="19.5" height="12" transform="rotate(-90 169.5 533.5)" stroke="white" stroke-linecap="round" stroke-linejoin="round"/>
<rect x="187.5" y="533.5" width="19.5" height="12" transform="rotate(-90 187.5 533.5)" stroke="white" stroke-linecap="round" stroke-linejoin="round"/>
<rect x="205.5" y="533.5" width="19.5" height="12" transform="rotate(-90 205.5 533.5)" stroke="white" stroke-linecap="round" stroke-linejoin="round"/>
<rect x="223.5" y="533.5" width="19.5" height="12" transform="rotate(-90 223.5 533.5)" stroke="white" stroke-linecap="round" stroke-linejoin="round"/>
<rect x="241.5" y="533.5" width="19.5" height="12" transform="rotate(-90 241.5 533.5)" stroke="white" stroke-linecap="round" stroke-linejoin="round"/>
<rect x="259.5" y="533.5" width="19.5" height="12" transform="rotate(-90 259.5 533.5)" stroke="white" stroke-linecap="round" stroke-linejoin="round"/>
<rect x="277.5" y="533.5" width="19.5" height="12" transform="rotate(-90 277.5 533.5)" stroke="white" stroke-linecap="round" stroke-linejoin="round"/>
<rect x="295.5" y="533.5" width="19.5" height="12" transform="rotate(-90 295.5 533.5)" stroke="white" stroke-linecap="round" stroke-linejoin="round"/>
<rect x="313.5" y="533.5" width="19.5" height="12" transform="rotate(-90 313.5 533.5)" stroke="white" stroke-linecap="round" stroke-linejoin="round"/>
<rect x="331.5" y="533.5" width="19.5" height="12" transform="rotate(-90 331.5 533.5)" stroke="white" stroke-linecap="round" stroke-linejoin="round"/>
<rect x="349.5" y="533.5" width="19.5" height="12" transform="rotate(-90 349.5 533.5)" stroke="white" stroke-linecap="round" stroke-linejoin="round"/>
<rect x="367.5" y="533.5" width="19.5" height="12" transform="rotate(-90 367.5 533.5)" stroke="white" stroke-linecap="round" stroke-linejoin="round"/>
<rect x="385.5" y="533.5" width="19.5" height="12" transform="rotate(-90 385.5 533.5)" stroke="white" stroke-linecap="round" stroke-linejoin="round"/>
<rect x="403.5" y="533.5" width="19.5" height="12" transform="rotate(-90 403.5 533.5)" stroke="white" stroke-linecap="round" stroke-linejoin="round"/>
<rect x="421.5" y="533.5" width="19.5" height="12" transform="rotate(-90 421.5 533.5)" stroke="white" stroke-linecap="round" stroke-linejoin="round"/>
<rect x="439.5" y="533.5" width="19.5" height="12" transform="rotate(-90 439.5 533.5)" stroke="white" stroke-linecap="round" stroke-linejoin="round"/>
<rect x="457.5" y="533.5" width="19.5" height="12" transform="rotate(-90 457.5 533.5)" stroke="white" stroke-linecap="round" stroke-linejoin="round"/>
<rect x="475.5" y="533.5" width="19.5" height="12" transform="rotate(-90 475.5 533.5)" stroke="white" stroke-linecap="round" stroke-linejoin="round"/>
<rect x="493.5" y="533.5" width="19.5" height="12" transform="rotate(-90 493.5 533.5)" stroke="white" stroke-linecap="round" stroke-linejoin="round"/>
<rect x="511.5" y="533.5" width="19.5" height="12" transform="rotate(-90 511.5 533.5)" stroke="white" stroke-linecap="round" stroke-linejoin="round"/>
<path d="M193.5 956.5C193.5 947.387 200.887 940 210 940H504C513.113 940 520.5 947.387 520.5 956.5V1268.5H193.5V956.5Z" stroke="white"/>
<rect x="204" y="953.5" width="307.5" height="7.5" stroke="white"/>
<rect x="204" y="965.5" width="307.5" height="187.5" stroke="white"/>
<rect x="-1.5" y="1067.5" width="145.5" height="12" stroke="white"/>
<rect x="10.5" y="1079.5" width="133.5" height="10.5" stroke="white"/>
<rect x="10.5" y="1057" width="133.5" height="10.5" stroke="white"/>
<rect x="568.5" y="1067.5" width="145.5" height="12" stroke="white"/>
<rect x="568.5" y="1079.5" width="133.5" height="10.5" stroke="white"/>
<rect x="568.5" y="1057" width="133.5" height="10.5" stroke="white"/>
<path d="M10.5 1057V566.5C10.5 556.559 18.5589 548.5 28.5 548.5H684C693.941 548.5 702 556.559 702 566.5V1057" stroke="white"/>
<mask id="path-60-inside-1" fill="white">
<path fill-rule="evenodd" clip-rule="evenodd" d="M-18.2601 738.178L-19 737.5L-18.2601 736.822L-2 721.917V721H-1H77.5C86.6127 721 94 728.387 94 737.5V871C94 880.113 86.6127 887.5 77.5 887.5C68.3873 887.5 61 880.113 61 871V754H-1H-2V753.083L-18.2601 738.178ZM-2 751.727V723.273L-17.5201 737.5L-2 751.727ZM-1 753H61V737.5C61 730.379 65.5104 724.312 71.8301 722H-1V722.357V752.643V753ZM62 737.5C62 728.94 68.9396 722 77.5 722C86.0604 722 93 728.94 93 737.5C93 746.06 86.0604 753 77.5 753H62V737.5ZM77.5 754C84.6205 754 90.6876 749.49 93 743.17V871C93 879.56 86.0604 886.5 77.5 886.5C68.9396 886.5 62 879.56 62 871V754H77.5Z"/>
</mask>
<path d="M-19 737.5L-19.6757 736.763L-20.4799 737.5L-19.6757 738.237L-19 737.5ZM-18.2601 738.178L-17.5843 737.441L-17.5843 737.441L-18.2601 738.178ZM-18.2601 736.822L-17.5843 737.559L-17.5843 737.559L-18.2601 736.822ZM-2 721.917L-1.32428 722.654L-1 722.357V721.917H-2ZM-2 721V720H-3V721H-2ZM61 754H62V753H61V754ZM-2 754H-3V755H-2V754ZM-2 753.083H-1V752.643L-1.32428 752.346L-2 753.083ZM-2 751.727L-2.67572 752.464L-1 754V751.727H-2ZM-2 723.273H-1V721L-2.67572 722.536L-2 723.273ZM-17.5201 737.5L-18.1958 736.763L-19 737.5L-18.1958 738.237L-17.5201 737.5ZM-1 753H-2V754H-1V753ZM61 753V754H62V753H61ZM71.8301 722L72.1737 722.939L71.8301 721V722ZM-1 722V721H-2V722H-1ZM62 753H61V754H62V753ZM93 743.17H94L92.0609 742.826L93 743.17ZM62 754V753H61V754H62ZM-19.6757 738.237L-18.9358 738.915L-17.5843 737.441L-18.3243 736.763L-19.6757 738.237ZM-18.9358 736.085L-19.6757 736.763L-18.3243 738.237L-17.5843 737.559L-18.9358 736.085ZM-2.67572 721.18L-18.9358 736.085L-17.5843 737.559L-1.32428 722.654L-2.67572 721.18ZM-1 721.917V721H-3V721.917H-1ZM-2 722H-1V720H-2V722ZM-1 722H77.5V720H-1V722ZM77.5 722C86.0604 722 93 728.94 93 737.5H95C95 727.835 87.165 720 77.5 720V722ZM93 737.5V871H95V737.5H93ZM93 871C93 879.56 86.0604 886.5 77.5 886.5V888.5C87.165 888.5 95 880.665 95 871H93ZM77.5 886.5C68.9396 886.5 62 879.56 62 871H60C60 880.665 67.835 888.5 77.5 888.5V886.5ZM62 871V754H60V871H62ZM61 753H-1V755H61V753ZM-1 753H-2V755H-1V753ZM-1 754V753.083H-3V754H-1ZM-18.9358 738.915L-2.67572 753.82L-1.32428 752.346L-17.5843 737.441L-18.9358 738.915ZM-1 751.727V723.273H-3V751.727H-1ZM-2.67572 722.536L-18.1958 736.763L-16.8444 738.237L-1.32428 724.01L-2.67572 722.536ZM-18.1958 738.237L-2.67572 752.464L-1.32428 750.99L-16.8444 736.763L-18.1958 738.237ZM-1 754H61V752H-1V754ZM62 753V737.5H60V753H62ZM62 737.5C62 730.813 66.2356 725.112 72.1737 722.939L71.4864 721.061C64.7853 723.513 60 729.946 60 737.5H62ZM71.8301 721H-1V723H71.8301V721ZM-2 722V722.357H0V722H-2ZM-2 722.357V752.643H0V722.357H-2ZM-2 752.643V753H0V752.643H-2ZM77.5 721C68.3873 721 61 728.387 61 737.5H63C63 729.492 69.4919 723 77.5 723V721ZM94 737.5C94 728.387 86.6127 721 77.5 721V723C85.5081 723 92 729.492 92 737.5H94ZM77.5 754C86.6127 754 94 746.613 94 737.5H92C92 745.508 85.5081 752 77.5 752V754ZM62 754H77.5V752H62V754ZM61 737.5V753H63V737.5H61ZM92.0609 742.826C89.8881 748.764 84.1874 753 77.5 753V755C85.0537 755 91.4871 750.215 93.9391 743.514L92.0609 742.826ZM94 871V743.17H92V871H94ZM77.5 887.5C86.6127 887.5 94 880.113 94 871H92C92 879.008 85.5081 885.5 77.5 885.5V887.5ZM61 871C61 880.113 68.3873 887.5 77.5 887.5V885.5C69.4919 885.5 63 879.008 63 871H61ZM61 754V871H63V754H61ZM77.5 753H62V755H77.5V753Z" fill="white" mask="url(#path-60-inside-1)"/>
<mask id="path-62-inside-2" fill="white">
<path fill-rule="evenodd" clip-rule="evenodd" d="M729.26 738.178L730 737.5L729.26 736.822L713 721.917V721H712H633.5C624.387 721 617 728.387 617 737.5V871C617 880.113 624.387 887.5 633.5 887.5C642.613 887.5 650 880.113 650 871V754H712H713V753.083L729.26 738.178ZM713 751.727V723.273L728.52 737.5L713 751.727ZM712 753H650V737.5C650 730.379 645.49 724.312 639.17 722H712V722.357V752.643V753ZM649 737.5C649 728.94 642.06 722 633.5 722C624.94 722 618 728.94 618 737.5C618 746.06 624.94 753 633.5 753H649V737.5ZM633.5 754C626.379 754 620.312 749.49 618 743.17V871C618 879.56 624.94 886.5 633.5 886.5C642.06 886.5 649 879.56 649 871V754H633.5Z"/>
</mask>
<path d="M730 737.5L730.676 736.763L731.48 737.5L730.676 738.237L730 737.5ZM729.26 738.178L728.584 737.441L728.584 737.441L729.26 738.178ZM729.26 736.822L728.584 737.559L728.584 737.559L729.26 736.822ZM713 721.917L712.324 722.654L712 722.357V721.917H713ZM713 721V720H714V721H713ZM650 754H649V753H650V754ZM713 754H714V755H713V754ZM713 753.083H712V752.643L712.324 752.346L713 753.083ZM713 751.727L713.676 752.464L712 754V751.727H713ZM713 723.273H712V721L713.676 722.536L713 723.273ZM728.52 737.5L729.196 736.763L730 737.5L729.196 738.237L728.52 737.5ZM712 753H713V754H712V753ZM650 753V754H649V753H650ZM639.17 722L638.826 722.939L639.17 721V722ZM712 722V721H713V722H712ZM649 753H650V754H649V753ZM618 743.17H617L618.939 742.826L618 743.17ZM649 754V753H650V754H649ZM730.676 738.237L729.936 738.915L728.584 737.441L729.324 736.763L730.676 738.237ZM729.936 736.085L730.676 736.763L729.324 738.237L728.584 737.559L729.936 736.085ZM713.676 721.18L729.936 736.085L728.584 737.559L712.324 722.654L713.676 721.18ZM712 721.917V721H714V721.917H712ZM713 722H712V720H713V722ZM712 722H633.5V720H712V722ZM633.5 722C624.94 722 618 728.94 618 737.5H616C616 727.835 623.835 720 633.5 720V722ZM618 737.5V871H616V737.5H618ZM618 871C618 879.56 624.94 886.5 633.5 886.5V888.5C623.835 888.5 616 880.665 616 871H618ZM633.5 886.5C642.06 886.5 649 879.56 649 871H651C651 880.665 643.165 888.5 633.5 888.5V886.5ZM649 871V754H651V871H649ZM650 753H712V755H650V753ZM712 753H713V755H712V753ZM712 754V753.083H714V754H712ZM729.936 738.915L713.676 753.82L712.324 752.346L728.584 737.441L729.936 738.915ZM712 751.727V723.273H714V751.727H712ZM713.676 722.536L729.196 736.763L727.844 738.237L712.324 724.01L713.676 722.536ZM729.196 738.237L713.676 752.464L712.324 750.99L727.844 736.763L729.196 738.237ZM712 754H650V752H712V754ZM649 753V737.5H651V753H649ZM649 737.5C649 730.813 644.764 725.112 638.826 722.939L639.514 721.061C646.215 723.513 651 729.946 651 737.5H649ZM639.17 721H712V723H639.17V721ZM713 722V722.357H711V722H713ZM713 722.357V752.643H711V722.357H713ZM713 752.643V753H711V752.643H713ZM633.5 721C642.613 721 650 728.387 650 737.5H648C648 729.492 641.508 723 633.5 723V721ZM617 737.5C617 728.387 624.387 721 633.5 721V723C625.492 723 619 729.492 619 737.5H617ZM633.5 754C624.387 754 617 746.613 617 737.5H619C619 745.508 625.492 752 633.5 752V754ZM649 754H633.5V752H649V754ZM650 737.5V753H648V737.5H650ZM618.939 742.826C621.112 748.764 626.813 753 633.5 753V755C625.946 755 619.513 750.215 617.061 743.514L618.939 742.826ZM617 871V743.17H619V871H617ZM633.5 887.5C624.387 887.5 617 880.113 617 871H619C619 879.008 625.492 885.5 633.5 885.5V887.5ZM650 871C650 880.113 642.613 887.5 633.5 887.5V885.5C641.508 885.5 648 879.008 648 871H650ZM650 754V871H648V754H650ZM633.5 753H649V755H633.5V753Z" fill="white" mask="url(#path-62-inside-2)"/>
<rect x="798.906" y="738" width="1181.28" height="862.96" rx="18.4" stroke="white"/>
<rect x="887.226" y="904.52" width="1005.56" height="327.52" rx="163.76" stroke="white"/>
<rect x="980.146" y="1004.8" width="820.64" height="126.96" rx="63.48" stroke="white"/>
<rect x="1043.63" y="1004.8" width="693.68" height="126.96" stroke="white"/>
<rect x="1138.39" y="1004.8" width="505.08" height="126.96" stroke="white"/>
<path d="M1044.09 1072.42H1737.77" stroke="white"/>
<path d="M1980.19 762.84H1963.63V783.08H1953.51V762.84H1941.55V783.08H1931.43V762.84H1919.47V783.08H1909.35V762.84H1897.39V783.08H1887.27V762.84H1875.31V783.08H1865.19V762.84H1853.23V783.08H1843.11V762.84H1831.15V783.08H1821.03V762.84H1809.07V783.08H1798.95V762.84H1786.99V783.08H1776.87V762.84H1713.31L1712.91 762.845C1707.95 762.948 1703.22 764.955 1699.7 768.45L1699.41 768.745L1664.55 804.877C1658.24 811.406 1649.6 815.145 1640.54 815.277L1640.05 815.28H1139.04C1129.97 815.28 1121.28 811.658 1114.89 805.23L1114.55 804.877L1079.68 768.745C1076.14 765.068 1071.28 762.95 1066.18 762.844L1065.78 762.84H1003.15V783.08H993.026V762.84H981.066V783.08H970.946V762.84H958.986V783.08H948.866V762.84H936.906V783.08H926.786V762.84H914.826V783.08H904.706V762.84H892.746V783.08H882.626V762.84H870.666V783.08H860.546V762.84H848.586V783.08H838.466V762.84H826.506V783.08H816.386V762.84H798.906" stroke="white"/>
<path d="M1980.19 779.4H1963.63V783.08H1953.51V779.4H1941.55V783.08H1931.43V779.4H1919.47V783.08H1909.35V779.4H1897.39V783.08H1887.27V779.4H1875.31V783.08H1865.19V779.4H1853.23V783.08H1843.11V779.4H1831.15V783.08H1821.03V779.4H1809.07V783.08H1798.95V779.4H1786.99V783.08H1776.87V779.4H1760.23L1759.88 779.405C1754.77 779.525 1749.89 782.283 1746.33 787.084L1730.2 808.84L1711.47 834.596C1705.15 843.28 1696.48 848.244 1687.4 848.396L1686.97 848.4H1093.04C1083.81 848.4 1074.96 843.417 1068.55 834.596L1049.82 808.84L1033.68 787.084C1030.04 782.174 1025.02 779.4 1019.78 779.4H1003.15V783.08H993.026V779.4H981.066V783.08H970.946V779.4H958.986V783.08H948.866V779.4H936.906V783.08H926.786V779.4H914.826V783.08H904.706V779.4H892.746V783.08H882.626V779.4H870.666V783.08H860.546V779.4H848.586V783.08H838.466V779.4H826.506V783.08H816.386V779.4H798.906" stroke="white"/>
<rect x="1127.35" y="756.4" width="149.04" height="9.2" rx="4.6" stroke="white"/>
<rect x="1292.03" y="756.4" width="182.16" height="9.2" rx="4.6" stroke="white"/>
<rect x="1292.03" y="774.8" width="182.16" height="9.2" rx="4.6" stroke="white"/>
<rect x="1292.03" y="793.2" width="182.16" height="9.2" rx="4.6" stroke="white"/>
<rect x="1142.07" y="774.8" width="134.32" height="9.2" rx="4.6" stroke="white"/>
<rect x="1155.87" y="793.2" width="120.52" height="9.2" rx="4.6" stroke="white"/>
<path d="M798.906 904.52H1980.19" stroke="white"/>
<path d="M1067.55 883.36C1067.55 879.803 1070.43 876.92 1073.99 876.92H1703.27C1706.82 876.92 1709.71 879.803 1709.71 883.36V1600.96H1067.55V883.36Z" stroke="white"/>
<path d="M1072.15 884.28C1072.15 882.756 1073.38 881.52 1074.91 881.52H1702.35C1703.87 881.52 1705.11 882.756 1705.11 884.28V1600.96H1072.15V884.28Z" stroke="white"/>
<rect x="-810" y="-272" width="1548.3" height="722.8" stroke="white"/>
<path d="M556.3 -1.6001L738.3 330.172" stroke="white" stroke-linecap="square"/>
<rect x="-28.7002" y="-175.8" width="543.4" height="509.6" stroke="white"/>
<rect x="-28.7002" y="41.3" width="543.4" height="61.1" stroke="white"/>
<rect x="3.7998" y="59.5" width="94.9" height="26" stroke="white"/>
<rect x="388.6" y="59.5" width="94.9" height="26" stroke="white"/>
<path fill-rule="evenodd" clip-rule="evenodd" d="M-18.2998 51.7H246.9L233.9 93.2999H-18.2998V51.7Z" stroke="white"/>
<path fill-rule="evenodd" clip-rule="evenodd" d="M262.5 51.7H504.3V93.2999H249.5L262.5 51.7Z" stroke="white"/>
<rect x="-24.7998" y="106.3" width="535.6" height="223.6" stroke="white"/>
<rect x="-810" y="348.1" width="1548.3" height="102.7" stroke="white"/>
<rect x="-28.7002" y="402.7" width="126.1" height="20.8" stroke="white"/>
<rect x="493.9" y="402.7" width="126.1" height="20.8" stroke="white"/>
<path d="M-810 435.2L192.3 435.225V370.2H440.6V435.2H738.3" stroke="white"/>
<rect x="192.3" y="370.2" width="248.3" height="14.3" stroke="white"/>
</g>
</g>
<defs>
<clipPath id="clip0">
<rect width="1480" height="1080" fill="white"/>
</clipPath>
</defs>
</svg>
