<svg width="1920" height="1080" viewBox="0 0 1920 1080" fill="none" xmlns="http://www.w3.org/2000/svg">
<g clip-path="url(#clip0)">
<rect width="1920" height="1080" fill="black"/>
<path fill-rule="evenodd" clip-rule="evenodd" d="M1259.4 -164.8H1270.6V-183H1281.67V-164.8H1292.17V-183H1303.24V-164.8H1313.74V-183H1324.82V-164.8H1336.02V-183H1347.09V-164.8H1358.29V-183H1369.36V-164.8H1380.56V-183H1391.64V-164.8H1402.84V-183H1413.91V-164.8H1425.11V-183H1436.18V-164.8H1446.68V-183H1457.75V-164.8H1468.95V-183H1480.03V-164.8H1490.53V-183H1501.6V-164.8H1512.8V-183H1523.87V-164.8H1534.37V-183H1545.45V-164.8H1556.65V-183H1567.72V-164.8H1578.22V-183H1589.29V-164.8H1600.49V-183H1611.56V-164.8H1622.76V-183H1633.84V-164.8H1645.04V-183H1656.11V-164.8H1667.31V-183H1678.38V-164.8H1689.58V-183H1700.65V-164.8H1711.15V-183H1722.23V-164.8H1732.73V-183H1743.8V-164.8H1755V-183H1814.15C1840.25 -183 1861.4 -161.845 1861.4 -135.75V614.65C1861.4 652.343 1830.84 682.9 1793.15 682.9H1221.25C1183.56 682.9 1153 652.343 1153 614.65V-135.75C1153 -161.845 1174.16 -183 1200.25 -183H1259.4V-164.8Z" stroke="#4D4D4D"/>
<path d="M1174.7 -132.6C1174.7 -148.064 1187.24 -160.6 1202.7 -160.6H1812.4C1827.86 -160.6 1840.4 -148.064 1840.4 -132.6V612.2C1840.4 639.262 1818.46 661.2 1791.4 661.2H1223.7C1196.64 661.2 1174.7 639.262 1174.7 612.2V-132.6Z" stroke="#4D4D4D"/>
<path d="M1772.5 -79.3999H1241.9C1226.82 -79.3999 1214.6 -67.1773 1214.6 -52.0999V489C1214.6 504.078 1226.82 516.3 1241.9 516.3H1772.5C1787.58 516.3 1799.8 504.078 1799.8 489V-52.0999C1799.8 -67.1773 1787.58 -79.3999 1772.5 -79.3999Z" stroke="#4D4D4D"/>
<path fill-rule="evenodd" clip-rule="evenodd" d="M1716.85 46.5999C1741.79 46.5999 1762 26.3855 1762 1.44986C1762 -23.4858 1741.79 -43.7002 1716.85 -43.7002C1691.91 -43.7002 1671.7 -23.4858 1671.7 1.44986C1671.7 26.3855 1691.91 46.5999 1716.85 46.5999Z" stroke="#4D4D4D"/>
<path fill-rule="evenodd" clip-rule="evenodd" d="M1265 153.014C1265 146.434 1270.33 141.1 1276.91 141.1H1736.09C1742.67 141.1 1748 146.434 1748 153.014V170.548C1748 188.223 1734.93 203.118 1717.36 205.015C1673.78 209.722 1589.88 217.4 1506.29 217.4C1422.76 217.4 1339.11 209.731 1295.63 205.024C1278.06 203.122 1265 188.231 1265 170.562V153.014Z" stroke="#4D4D4D"/>
<path fill-rule="evenodd" clip-rule="evenodd" d="M1250.3 145.3C1250.3 133.702 1259.7 124.3 1271.3 124.3H1741C1752.6 124.3 1762 133.702 1762 145.3V173.867C1762 198.317 1743.77 218.851 1719.43 221.144C1671.2 225.688 1588.54 232.1 1506.09 232.1C1423.67 232.1 1341.07 225.691 1292.86 221.147C1268.52 218.852 1250.3 198.32 1250.3 173.871V145.3Z" stroke="#4D4D4D"/>
<path fill-rule="evenodd" clip-rule="evenodd" d="M1501.84 200.005C1504.64 202.687 1509.06 202.687 1511.86 200.005L1528.2 184.377C1529.21 183.409 1528.53 181.7 1527.13 181.7H1486.57C1485.17 181.7 1484.49 183.409 1485.5 184.377L1501.84 200.005Z" stroke="#4D4D4D"/>
<path d="M1311.82 151.208C1311.82 149.492 1310.42 148.1 1308.71 148.1C1306.99 148.1 1305.6 149.492 1305.6 151.208V195.756C1305.6 197.473 1306.99 198.864 1308.71 198.864C1310.42 198.864 1311.82 197.473 1311.82 195.756V151.208Z" stroke="#4D4D4D"/>
<path d="M1707.05 151.208C1707.05 149.492 1705.65 148.1 1703.94 148.1C1702.22 148.1 1700.83 149.492 1700.83 151.208V195.756C1700.83 197.473 1702.22 198.864 1703.94 198.864C1705.65 198.864 1707.05 197.473 1707.05 195.756V151.208Z" stroke="#4D4D4D"/>
<path d="M1351.8 353.2H1288.8C1276.82 353.2 1267.1 362.916 1267.1 374.9V454.7C1267.1 466.685 1276.82 476.4 1288.8 476.4H1351.8C1363.78 476.4 1373.5 466.685 1373.5 454.7V374.9C1373.5 362.916 1363.78 353.2 1351.8 353.2Z" stroke="#4D4D4D"/>
<path d="M1351.03 361.6H1289.57C1281.8 361.6 1275.5 367.901 1275.5 375.674V453.926C1275.5 461.699 1281.8 468 1289.57 468H1351.03C1358.8 468 1365.1 461.699 1365.1 453.926V375.674C1365.1 367.901 1358.8 361.6 1351.03 361.6Z" stroke="#4D4D4D"/>
<path d="M1350.75 377.5H1289.85C1282.97 377.5 1277.4 383.075 1277.4 389.952V453.648C1277.4 460.525 1282.97 466.1 1289.85 466.1H1350.75C1357.63 466.1 1363.2 460.525 1363.2 453.648V389.952C1363.2 383.075 1357.63 377.5 1350.75 377.5Z" stroke="#4D4D4D"/>
<path d="M1363.2 406.9H1277.4V417.1H1363.2V406.9Z" stroke="#4D4D4D"/>
<path d="M1363.2 395.7H1277.4V427.6H1363.2V395.7Z" stroke="#4D4D4D"/>
<path d="M1594 353.2H1419C1407.02 353.2 1397.3 362.916 1397.3 374.9V454.7C1397.3 466.685 1407.02 476.4 1419 476.4H1594C1605.98 476.4 1615.7 466.685 1615.7 454.7V374.9C1615.7 362.916 1605.98 353.2 1594 353.2Z" stroke="#4D4D4D"/>
<path d="M1593.23 361.6H1419.77C1412 361.6 1405.7 367.901 1405.7 375.674V453.926C1405.7 461.699 1412 468 1419.77 468H1593.23C1601 468 1607.3 461.699 1607.3 453.926V375.674C1607.3 367.901 1601 361.6 1593.23 361.6Z" stroke="#4D4D4D"/>
<path d="M1724.2 353.2H1661.2C1649.22 353.2 1639.5 362.916 1639.5 374.9V454.7C1639.5 466.685 1649.22 476.4 1661.2 476.4H1724.2C1736.18 476.4 1745.9 466.685 1745.9 454.7V374.9C1745.9 362.916 1736.18 353.2 1724.2 353.2Z" stroke="#4D4D4D"/>
<path d="M1723.43 361.6H1661.97C1654.2 361.6 1647.9 367.901 1647.9 375.674V453.926C1647.9 461.699 1654.2 468 1661.97 468H1723.43C1731.2 468 1737.5 461.699 1737.5 453.926V375.674C1737.5 367.901 1731.2 361.6 1723.43 361.6Z" stroke="#4D4D4D"/>
<path d="M1723.15 363.5H1662.25C1655.37 363.5 1649.8 369.075 1649.8 375.952V453.648C1649.8 460.525 1655.37 466.1 1662.25 466.1H1723.15C1730.03 466.1 1735.6 460.525 1735.6 453.648V375.952C1735.6 369.075 1730.03 363.5 1723.15 363.5Z" stroke="#4D4D4D"/>
<path fill-rule="evenodd" clip-rule="evenodd" d="M1255.55 415.5C1258.06 415.5 1260.1 413.463 1260.1 410.95C1260.1 408.437 1258.06 406.4 1255.55 406.4C1253.04 406.4 1251 408.437 1251 410.95C1251 413.463 1253.04 415.5 1255.55 415.5Z" stroke="#4D4D4D"/>
<path fill-rule="evenodd" clip-rule="evenodd" d="M1255.55 401.5C1258.06 401.5 1260.1 399.463 1260.1 396.95C1260.1 394.437 1258.06 392.4 1255.55 392.4C1253.04 392.4 1251 394.437 1251 396.95C1251 399.463 1253.04 401.5 1255.55 401.5Z" stroke="#4D4D4D"/>
<path d="M1259.4 516.3H1254.5V661.2H1259.4V516.3Z" stroke="#4D4D4D"/>
<path d="M1759.9 516.3H1755V661.2H1759.9V516.3Z" stroke="#4D4D4D"/>
<path d="M1700.05 610.8H1678.35C1675.84 610.8 1673.8 612.837 1673.8 615.35C1673.8 617.863 1675.84 619.9 1678.35 619.9H1700.05C1702.56 619.9 1704.6 617.863 1704.6 615.35C1704.6 612.837 1702.56 610.8 1700.05 610.8Z" stroke="#4D4D4D"/>
<path d="M1700.05 607.3H1678.35C1673.9 607.3 1670.3 610.904 1670.3 615.35C1670.3 619.796 1673.9 623.4 1678.35 623.4H1700.05C1704.5 623.4 1708.1 619.796 1708.1 615.35C1708.1 610.904 1704.5 607.3 1700.05 607.3Z" stroke="#4D4D4D"/>
<path fill-rule="evenodd" clip-rule="evenodd" d="M-313.6 524.2H-302.4V506H-291.327V524.2H-280.827V506H-269.755V524.2H-259.255V506H-248.182V524.2H-236.982V506H-225.909V524.2H-214.71V506H-203.64V524.2H-192.44V506H-181.36V524.2H-170.16V506H-159.09V524.2H-147.89V506H-136.82V524.2H-126.32V506H-115.25V524.2H-104.05V506H-92.97V524.2H-82.47V506H-71.4V524.2H-60.2V506H-49.13V524.2H-38.63V506H-27.55V524.2H-16.35V506H-5.28003V524.2H5.21997V506H16.29V524.2H27.49V506H38.5601V524.2H49.76V506H60.84V524.2H72.04V506H83.11V524.2H94.3101V506H105.38V524.2H116.58V506H127.65V524.2H138.15V506H149.23V524.2H159.73V506H170.8V524.2H182V506H241.15C267.25 506 288.4 527.155 288.4 553.25V1303.65C288.4 1341.34 257.84 1371.9 220.15 1371.9H-351.75C-389.443 1371.9 -420 1341.34 -420 1303.65V553.25C-420 527.155 -398.845 506 -372.75 506H-313.6V524.2Z" stroke="#4D4D4D"/>
<path d="M-398.3 556.4C-398.3 540.936 -385.764 528.4 -370.3 528.4H239.4C254.86 528.4 267.4 540.936 267.4 556.4V1301.2C267.4 1328.26 245.46 1350.2 218.4 1350.2H-349.3C-376.362 1350.2 -398.3 1328.26 -398.3 1301.2V556.4Z" stroke="#4D4D4D"/>
<path d="M199.5 609.6H-331.1C-346.177 609.6 -358.4 621.823 -358.4 636.9V1178C-358.4 1193.08 -346.177 1205.3 -331.1 1205.3H199.5C214.578 1205.3 226.8 1193.08 226.8 1178V636.9C226.8 621.823 214.578 609.6 199.5 609.6Z" stroke="#4D4D4D"/>
<path fill-rule="evenodd" clip-rule="evenodd" d="M143.85 735.6C168.79 735.6 189 715.386 189 690.45C189 665.514 168.79 645.3 143.85 645.3C118.91 645.3 98.7002 665.514 98.7002 690.45C98.7002 715.386 118.91 735.6 143.85 735.6Z" stroke="#4D4D4D"/>
<path fill-rule="evenodd" clip-rule="evenodd" d="M-308 842.014C-308 835.434 -302.666 830.1 -296.086 830.1H163.09C169.67 830.1 175 835.434 175 842.014V859.548C175 877.223 161.93 892.118 144.36 894.015C100.78 898.722 16.88 906.4 -66.71 906.4C-150.24 906.4 -233.894 898.731 -277.372 894.024C-294.939 892.122 -308 877.231 -308 859.562V842.014Z" stroke="#4D4D4D"/>
<path fill-rule="evenodd" clip-rule="evenodd" d="M-322.7 834.3C-322.7 822.702 -313.298 813.3 -301.7 813.3H168C179.6 813.3 189 822.702 189 834.3V862.867C189 887.317 170.77 907.851 146.43 910.144C98.1999 914.688 15.5398 921.1 -66.9102 921.1C-149.33 921.1 -231.934 914.691 -280.137 910.147C-304.477 907.852 -322.7 887.32 -322.7 862.871V834.3Z" stroke="#4D4D4D"/>
<path d="M134.046 840.208C134.046 838.492 132.655 837.1 130.938 837.1C129.222 837.1 127.83 838.492 127.83 840.208V884.756C127.83 886.473 129.222 887.864 130.938 887.864C132.655 887.864 134.046 886.473 134.046 884.756V840.208Z" stroke="#4D4D4D"/>
<path d="M20.9998 1042.2H-154C-165.985 1042.2 -175.7 1051.92 -175.7 1063.9V1143.7C-175.7 1155.68 -165.985 1165.4 -154 1165.4H20.9998C32.9843 1165.4 42.6997 1155.68 42.6997 1143.7V1063.9C42.6997 1051.92 32.9843 1042.2 20.9998 1042.2Z" stroke="#4D4D4D"/>
<path d="M20.2266 1050.6H-153.226C-160.999 1050.6 -167.3 1056.9 -167.3 1064.67V1142.93C-167.3 1150.7 -160.999 1157 -153.226 1157H20.2266C27.9993 1157 34.3003 1150.7 34.3003 1142.93V1064.67C34.3003 1056.9 27.9993 1050.6 20.2266 1050.6Z" stroke="#4D4D4D"/>
<path d="M151.2 1042.2H88.2C76.2154 1042.2 66.5 1051.92 66.5 1063.9V1143.7C66.5 1155.68 76.2154 1165.4 88.2 1165.4H151.2C163.185 1165.4 172.9 1155.68 172.9 1143.7V1063.9C172.9 1051.92 163.185 1042.2 151.2 1042.2Z" stroke="#4D4D4D"/>
<path d="M150.426 1050.6H88.9736C81.2009 1050.6 74.8999 1056.9 74.8999 1064.67V1142.93C74.8999 1150.7 81.2009 1157 88.9736 1157H150.426C158.199 1157 164.5 1150.7 164.5 1142.93V1064.67C164.5 1056.9 158.199 1050.6 150.426 1050.6Z" stroke="#4D4D4D"/>
<path d="M150.148 1052.5H89.2512C82.3744 1052.5 76.7998 1058.07 76.7998 1064.95V1142.65C76.7998 1149.53 82.3744 1155.1 89.2512 1155.1H150.148C157.025 1155.1 162.6 1149.53 162.6 1142.65V1064.95C162.6 1058.07 157.025 1052.5 150.148 1052.5Z" stroke="#4D4D4D"/>
<path d="M2317.79 740H1173.31C1163.14 740 1154.91 748.238 1154.91 758.4V1584.56C1154.91 1594.72 1163.14 1602.96 1173.31 1602.96H2317.79C2327.95 1602.96 2336.19 1594.72 2336.19 1584.56V758.4C2336.19 748.238 2327.95 740 2317.79 740Z" stroke="#4D4D4D"/>
<path d="M2085.03 906.52H1406.99C1316.54 906.52 1243.23 979.838 1243.23 1070.28C1243.23 1160.72 1316.54 1234.04 1406.99 1234.04H2085.03C2175.47 1234.04 2248.79 1160.72 2248.79 1070.28C2248.79 979.838 2175.47 906.52 2085.03 906.52Z" stroke="#4D4D4D"/>
<path d="M2093.31 1006.8H1399.63C1364.57 1006.8 1336.15 1035.22 1336.15 1070.28C1336.15 1105.34 1364.57 1133.76 1399.63 1133.76H2093.31C2128.37 1133.76 2156.79 1105.34 2156.79 1070.28C2156.79 1035.22 2128.37 1006.8 2093.31 1006.8Z" stroke="#4D4D4D"/>
<path d="M2093.31 1006.8H1399.63V1133.76H2093.31V1006.8Z" stroke="#4D4D4D"/>
<path d="M1999.47 1006.8H1494.39V1133.76H1999.47V1006.8Z" stroke="#4D4D4D"/>
<path d="M1400.09 1074.42H2093.77" stroke="#4D4D4D"/>
<path d="M2336.19 764.84H2319.63V785.08H2309.51V764.84H2297.55V785.08H2287.43V764.84H2275.47V785.08H2265.35V764.84H2253.39V785.08H2243.27V764.84H2231.31V785.08H2221.19V764.84H2209.23V785.08H2199.11V764.84H2187.15V785.08H2177.03V764.84H2165.07V785.08H2154.95V764.84H2142.99V785.08H2132.87V764.84H2069.31L2068.91 764.845C2063.95 764.948 2059.22 766.955 2055.7 770.45L2055.41 770.745L2020.55 806.877C2014.24 813.406 2005.6 817.145 1996.54 817.277L1996.05 817.28H1495.04C1485.97 817.28 1477.28 813.658 1470.89 807.23L1470.55 806.877L1435.68 770.745C1432.14 767.068 1427.28 764.95 1422.18 764.844L1421.78 764.84H1359.15V785.08H1349.03V764.84H1337.07V785.08H1326.95V764.84H1314.99V785.08H1304.87V764.84H1292.91V785.08H1282.79V764.84H1270.83V785.08H1260.71V764.84H1248.75V785.08H1238.63V764.84H1226.67V785.08H1216.55V764.84H1204.59V785.08H1194.47V764.84H1182.51V785.08H1172.39V764.84H1154.91" stroke="#4D4D4D"/>
<path d="M2336.19 781.4H2319.63V785.08H2309.51V781.4H2297.55V785.08H2287.43V781.4H2275.47V785.08H2265.35V781.4H2253.39V785.08H2243.27V781.4H2231.31V785.08H2221.19V781.4H2209.23V785.08H2199.11V781.4H2187.15V785.08H2177.03V781.4H2165.07V785.08H2154.95V781.4H2142.99V785.08H2132.87V781.4H2116.23L2115.88 781.405C2110.77 781.525 2105.89 784.283 2102.33 789.084L2086.2 810.84L2067.47 836.596C2061.15 845.28 2052.48 850.244 2043.4 850.396L2042.97 850.4H1449.04C1439.81 850.4 1430.96 845.417 1424.55 836.596L1405.82 810.84L1389.68 789.084C1386.04 784.174 1381.02 781.4 1375.78 781.4H1359.15V785.08H1349.03V781.4H1337.07V785.08H1326.95V781.4H1314.99V785.08H1304.87V781.4H1292.91V785.08H1282.79V781.4H1270.83V785.08H1260.71V781.4H1248.75V785.08H1238.63V781.4H1226.67V785.08H1216.55V781.4H1204.59V785.08H1194.47V781.4H1182.51V785.08H1172.39V781.4H1154.91" stroke="#4D4D4D"/>
<path d="M1627.79 758.4H1487.95C1485.41 758.4 1483.35 760.459 1483.35 763C1483.35 765.54 1485.41 767.6 1487.95 767.6H1627.79C1630.33 767.6 1632.39 765.54 1632.39 763C1632.39 760.459 1630.33 758.4 1627.79 758.4Z" stroke="#4D4D4D"/>
<path d="M1825.59 758.4H1652.63C1650.09 758.4 1648.03 760.459 1648.03 763C1648.03 765.54 1650.09 767.6 1652.63 767.6H1825.59C1828.13 767.6 1830.19 765.54 1830.19 763C1830.19 760.459 1828.13 758.4 1825.59 758.4Z" stroke="#4D4D4D"/>
<path d="M1825.59 776.8H1652.63C1650.09 776.8 1648.03 778.859 1648.03 781.4C1648.03 783.94 1650.09 786 1652.63 786H1825.59C1828.13 786 1830.19 783.94 1830.19 781.4C1830.19 778.859 1828.13 776.8 1825.59 776.8Z" stroke="#4D4D4D"/>
<path d="M1825.59 795.2H1652.63C1650.09 795.2 1648.03 797.26 1648.03 799.8C1648.03 802.341 1650.09 804.4 1652.63 804.4H1825.59C1828.13 804.4 1830.19 802.341 1830.19 799.8C1830.19 797.26 1828.13 795.2 1825.59 795.2Z" stroke="#4D4D4D"/>
<path d="M1627.79 776.8H1502.67C1500.13 776.8 1498.07 778.859 1498.07 781.4C1498.07 783.94 1500.13 786 1502.67 786H1627.79C1630.33 786 1632.39 783.94 1632.39 781.4C1632.39 778.859 1630.33 776.8 1627.79 776.8Z" stroke="#4D4D4D"/>
<path d="M1627.79 795.2H1516.47C1513.93 795.2 1511.87 797.26 1511.87 799.8C1511.87 802.341 1513.93 804.4 1516.47 804.4H1627.79C1630.33 804.4 1632.39 802.341 1632.39 799.8C1632.39 797.26 1630.33 795.2 1627.79 795.2Z" stroke="#4D4D4D"/>
<path d="M1154.91 906.52H2336.19" stroke="#4D4D4D"/>
<path d="M1423.55 885.36C1423.55 881.803 1426.43 878.92 1429.99 878.92H2059.27C2062.82 878.92 2065.71 881.803 2065.71 885.36V1602.96H1423.55V885.36Z" stroke="#4D4D4D"/>
<path d="M1428.15 886.28C1428.15 884.756 1429.38 883.52 1430.91 883.52H2058.35C2059.87 883.52 2061.11 884.756 2061.11 886.28V1602.96H1428.15V886.28Z" stroke="#4D4D4D"/>
<path d="M1094.3 -270H-454V452.8H1094.3V-270Z" stroke="#4D4D4D"/>
<path d="M912.3 0.399902L1094.3 332.172" stroke="#4D4D4D" stroke-linecap="square"/>
<path d="M870.7 -173.8H327.3V335.8H870.7V-173.8Z" stroke="#4D4D4D"/>
<path d="M870.7 43.2998H327.3V104.4H870.7V43.2998Z" stroke="#4D4D4D"/>
<path d="M454.7 61.5H359.8V87.5H454.7V61.5Z" stroke="#4D4D4D"/>
<path d="M839.5 61.5H744.6V87.5H839.5V61.5Z" stroke="#4D4D4D"/>
<path fill-rule="evenodd" clip-rule="evenodd" d="M337.7 53.7002H602.9L589.9 95.3001H337.7V53.7002Z" stroke="#4D4D4D"/>
<path fill-rule="evenodd" clip-rule="evenodd" d="M618.5 53.7002H860.3V95.3001H605.5L618.5 53.7002Z" stroke="#4D4D4D"/>
<path d="M866.8 108.3H331.2V331.9H866.8V108.3Z" stroke="#4D4D4D"/>
<path d="M1094.3 350.1H-454V452.8H1094.3V350.1Z" stroke="#4D4D4D"/>
<path d="M453.4 404.7H327.3V425.5H453.4V404.7Z" stroke="#4D4D4D"/>
<path d="M976 404.7H849.9V425.5H976V404.7Z" stroke="#4D4D4D"/>
<path d="M-454 437.2L548.3 437.225V372.2H796.6V437.2H1094.3" stroke="#4D4D4D"/>
<path d="M796.6 372.2H548.3V386.5H796.6V372.2Z" stroke="#4D4D4D"/>
<path d="M338 555.5C338 528.162 360.162 506 387.5 506H1053.5C1080.84 506 1103 528.162 1103 555.5V1260.5H338V555.5Z" stroke="#4D4D4D"/>
<path d="M509 1049H363.5V555.5C363.5 541.417 374.917 530 389 530H1052C1066.08 530 1077.5 541.417 1077.5 555.5V1049H933.5" stroke="#4D4D4D"/>
<path d="M509 773.75C509 656.528 604.403 561.5 721.626 561.5V561.5C838.434 561.5 933.5 656.192 933.5 773V1260.5H509V773.75Z" stroke="#4D4D4D"/>
<rect x="894.5" y="525.5" width="19.5" height="12" transform="rotate(-90 894.5 525.5)" stroke="#4D4D4D" stroke-linecap="round" stroke-linejoin="round"/>
<rect x="534.5" y="525.5" width="19.5" height="12" transform="rotate(-90 534.5 525.5)" stroke="#4D4D4D" stroke-linecap="round" stroke-linejoin="round"/>
<rect x="552.5" y="525.5" width="19.5" height="12" transform="rotate(-90 552.5 525.5)" stroke="#4D4D4D" stroke-linecap="round" stroke-linejoin="round"/>
<rect x="570.5" y="525.5" width="19.5" height="12" transform="rotate(-90 570.5 525.5)" stroke="#4D4D4D" stroke-linecap="round" stroke-linejoin="round"/>
<rect x="588.5" y="525.5" width="19.5" height="12" transform="rotate(-90 588.5 525.5)" stroke="#4D4D4D" stroke-linecap="round" stroke-linejoin="round"/>
<rect x="606.5" y="525.5" width="19.5" height="12" transform="rotate(-90 606.5 525.5)" stroke="#4D4D4D" stroke-linecap="round" stroke-linejoin="round"/>
<rect x="624.5" y="525.5" width="19.5" height="12" transform="rotate(-90 624.5 525.5)" stroke="#4D4D4D" stroke-linecap="round" stroke-linejoin="round"/>
<rect x="642.5" y="525.5" width="19.5" height="12" transform="rotate(-90 642.5 525.5)" stroke="#4D4D4D" stroke-linecap="round" stroke-linejoin="round"/>
<rect x="660.5" y="525.5" width="19.5" height="12" transform="rotate(-90 660.5 525.5)" stroke="#4D4D4D" stroke-linecap="round" stroke-linejoin="round"/>
<rect x="678.5" y="525.5" width="19.5" height="12" transform="rotate(-90 678.5 525.5)" stroke="#4D4D4D" stroke-linecap="round" stroke-linejoin="round"/>
<rect x="696.5" y="525.5" width="19.5" height="12" transform="rotate(-90 696.5 525.5)" stroke="#4D4D4D" stroke-linecap="round" stroke-linejoin="round"/>
<rect x="714.5" y="525.5" width="19.5" height="12" transform="rotate(-90 714.5 525.5)" stroke="#4D4D4D" stroke-linecap="round" stroke-linejoin="round"/>
<rect x="732.5" y="525.5" width="19.5" height="12" transform="rotate(-90 732.5 525.5)" stroke="#4D4D4D" stroke-linecap="round" stroke-linejoin="round"/>
<rect x="750.5" y="525.5" width="19.5" height="12" transform="rotate(-90 750.5 525.5)" stroke="#4D4D4D" stroke-linecap="round" stroke-linejoin="round"/>
<rect x="768.5" y="525.5" width="19.5" height="12" transform="rotate(-90 768.5 525.5)" stroke="#4D4D4D" stroke-linecap="round" stroke-linejoin="round"/>
<rect x="786.5" y="525.5" width="19.5" height="12" transform="rotate(-90 786.5 525.5)" stroke="#4D4D4D" stroke-linecap="round" stroke-linejoin="round"/>
<rect x="804.5" y="525.5" width="19.5" height="12" transform="rotate(-90 804.5 525.5)" stroke="#4D4D4D" stroke-linecap="round" stroke-linejoin="round"/>
<rect x="822.5" y="525.5" width="19.5" height="12" transform="rotate(-90 822.5 525.5)" stroke="#4D4D4D" stroke-linecap="round" stroke-linejoin="round"/>
<rect x="840.5" y="525.5" width="19.5" height="12" transform="rotate(-90 840.5 525.5)" stroke="#4D4D4D" stroke-linecap="round" stroke-linejoin="round"/>
<rect x="858.5" y="525.5" width="19.5" height="12" transform="rotate(-90 858.5 525.5)" stroke="#4D4D4D" stroke-linecap="round" stroke-linejoin="round"/>
<rect x="876.5" y="525.5" width="19.5" height="12" transform="rotate(-90 876.5 525.5)" stroke="#4D4D4D" stroke-linecap="round" stroke-linejoin="round"/>
<path d="M558.5 948.5C558.5 939.387 565.887 932 575 932H869C878.113 932 885.5 939.387 885.5 948.5V1260.5H558.5V948.5Z" stroke="#4D4D4D"/>
<rect x="569" y="945.5" width="307.5" height="7.5" stroke="#4D4D4D"/>
<rect x="569" y="957.5" width="307.5" height="187.5" stroke="#4D4D4D"/>
<rect x="363.5" y="1059.5" width="145.5" height="12" stroke="#4D4D4D"/>
<rect x="375.5" y="1071.5" width="133.5" height="10.5" stroke="#4D4D4D"/>
<rect x="375.5" y="1049" width="133.5" height="10.5" stroke="#4D4D4D"/>
<rect x="933.5" y="1059.5" width="145.5" height="12" stroke="#4D4D4D"/>
<rect x="933.5" y="1071.5" width="133.5" height="10.5" stroke="#4D4D4D"/>
<rect x="933.5" y="1049" width="133.5" height="10.5" stroke="#4D4D4D"/>
<path d="M375.5 1049V558.5C375.5 548.559 383.559 540.5 393.5 540.5H1049C1058.94 540.5 1067 548.559 1067 558.5V1049" stroke="#4D4D4D"/>
<mask id="path-103-inside-1" fill="white">
<path fill-rule="evenodd" clip-rule="evenodd" d="M364 713L346 729.5L364 746H427.5V863C427.5 872.113 434.887 879.5 444 879.5C453.113 879.5 460.5 872.113 460.5 863V729.5C460.5 720.387 453.113 713 444 713C443.917 713 443.833 713.001 443.75 713.002C443.667 713.001 443.583 713 443.5 713H364Z"/>
</mask>
<path d="M346 729.5L345.324 728.763L344.52 729.5L345.324 730.237L346 729.5ZM364 713V712H363.611L363.324 712.263L364 713ZM364 746L363.324 746.737L363.611 747H364V746ZM427.5 746H428.5V745H427.5V746ZM443.75 713.002L443.735 714.002L443.75 714.002L443.765 714.002L443.75 713.002ZM346.676 730.237L364.676 713.737L363.324 712.263L345.324 728.763L346.676 730.237ZM364.676 745.263L346.676 728.763L345.324 730.237L363.324 746.737L364.676 745.263ZM364 747H427.5V745H364V747ZM426.5 746V863H428.5V746H426.5ZM426.5 863C426.5 872.665 434.335 880.5 444 880.5V878.5C435.44 878.5 428.5 871.56 428.5 863H426.5ZM444 880.5C453.665 880.5 461.5 872.665 461.5 863H459.5C459.5 871.56 452.56 878.5 444 878.5V880.5ZM461.5 863V729.5H459.5V863H461.5ZM461.5 729.5C461.5 719.835 453.665 712 444 712V714C452.56 714 459.5 720.94 459.5 729.5H461.5ZM444 712C443.912 712 443.823 712.001 443.735 712.002L443.765 714.002C443.843 714.001 443.921 714 444 714V712ZM443.765 712.002C443.677 712.001 443.588 712 443.5 712V714C443.579 714 443.657 714.001 443.735 714.002L443.765 712.002ZM443.5 712H364V714H443.5V712Z" fill="#4D4D4D" mask="url(#path-103-inside-1)"/>
<mask id="path-105-inside-2" fill="white">
<path fill-rule="evenodd" clip-rule="evenodd" d="M1078 713L1096 729.5L1078 746H1014.5V863C1014.5 872.113 1007.11 879.5 998 879.5C988.887 879.5 981.5 872.113 981.5 863V729.5C981.5 720.387 988.887 713 998 713C998.083 713 998.167 713.001 998.25 713.002C998.333 713.001 998.417 713 998.5 713H1078Z"/>
</mask>
<path d="M1096 729.5L1096.68 728.763L1097.48 729.5L1096.68 730.237L1096 729.5ZM1078 713V712H1078.39L1078.68 712.263L1078 713ZM1078 746L1078.68 746.737L1078.39 747H1078V746ZM1014.5 746H1013.5V745H1014.5V746ZM998.25 713.002L998.265 714.002L998.25 714.002L998.235 714.002L998.25 713.002ZM1095.32 730.237L1077.32 713.737L1078.68 712.263L1096.68 728.763L1095.32 730.237ZM1077.32 745.263L1095.32 728.763L1096.68 730.237L1078.68 746.737L1077.32 745.263ZM1078 747H1014.5V745H1078V747ZM1015.5 746V863H1013.5V746H1015.5ZM1015.5 863C1015.5 872.665 1007.66 880.5 998 880.5V878.5C1006.56 878.5 1013.5 871.56 1013.5 863H1015.5ZM998 880.5C988.335 880.5 980.5 872.665 980.5 863H982.5C982.5 871.56 989.44 878.5 998 878.5V880.5ZM980.5 863V729.5H982.5V863H980.5ZM980.5 729.5C980.5 719.835 988.335 712 998 712V714C989.44 714 982.5 720.94 982.5 729.5H980.5ZM998 712C998.088 712 998.177 712.001 998.265 712.002L998.235 714.002C998.157 714.001 998.079 714 998 714V712ZM998.235 712.002C998.323 712.001 998.412 712 998.5 712V714C998.421 714 998.343 714.001 998.265 714.002L998.235 712.002ZM998.5 712H1078V714H998.5V712Z" fill="#4D4D4D" mask="url(#path-105-inside-2)"/>
</g>
<defs>
<clipPath id="clip0">
<rect width="1920" height="1080" fill="white"/>
</clipPath>
</defs>
</svg>
