<svg width="1480" height="1080" viewBox="0 0 1480 1080" fill="none" xmlns="http://www.w3.org/2000/svg">
<g clip-path="url(#clip0)">
<rect width="1480" height="1080" fill="black"/>
<path fill-rule="evenodd" clip-rule="evenodd" d="M819.4 -164.8H830.6V-183H841.673V-164.8H852.173V-183H863.245V-164.8H873.745V-183H884.818V-164.8H896.018V-183H907.091V-164.8H918.29V-183H929.36V-164.8H940.56V-183H951.64V-164.8H962.84V-183H973.91V-164.8H985.11V-183H996.18V-164.8H1006.68V-183H1017.75V-164.8H1028.95V-183H1040.03V-164.8H1050.53V-183H1061.6V-164.8H1072.8V-183H1083.87V-164.8H1094.37V-183H1105.45V-164.8H1116.65V-183H1127.72V-164.8H1138.22V-183H1149.29V-164.8H1160.49V-183H1171.56V-164.8H1182.76V-183H1193.84V-164.8H1205.04V-183H1216.11V-164.8H1227.31V-183H1238.38V-164.8H1249.58V-183H1260.65V-164.8H1271.15V-183H1282.23V-164.8H1292.73V-183H1303.8V-164.8H1315V-183H1374.15C1400.25 -183 1421.4 -161.845 1421.4 -135.75V614.65C1421.4 652.343 1390.84 682.9 1353.15 682.9H781.25C743.557 682.9 713 652.343 713 614.65V-135.75C713 -161.845 734.155 -183 760.25 -183H819.4V-164.8Z" stroke="#4D4D4D"/>
<path d="M734.7 -132.6C734.7 -148.064 747.236 -160.6 762.7 -160.6H1372.4C1387.86 -160.6 1400.4 -148.064 1400.4 -132.6V612.2C1400.4 639.262 1378.46 661.2 1351.4 661.2H783.7C756.638 661.2 734.7 639.262 734.7 612.2V-132.6Z" stroke="#4D4D4D"/>
<path d="M1332.5 -79.3999H801.9C786.823 -79.3999 774.6 -67.1773 774.6 -52.0999V489C774.6 504.078 786.823 516.3 801.9 516.3H1332.5C1347.58 516.3 1359.8 504.078 1359.8 489V-52.0999C1359.8 -67.1773 1347.58 -79.3999 1332.5 -79.3999Z" stroke="#4D4D4D"/>
<path fill-rule="evenodd" clip-rule="evenodd" d="M1276.85 46.5999C1301.79 46.5999 1322 26.3855 1322 1.44986C1322 -23.4858 1301.79 -43.7002 1276.85 -43.7002C1251.91 -43.7002 1231.7 -23.4858 1231.7 1.44986C1231.7 26.3855 1251.91 46.5999 1276.85 46.5999Z" stroke="#4D4D4D"/>
<path fill-rule="evenodd" clip-rule="evenodd" d="M825 153.014C825 146.434 830.334 141.1 836.914 141.1H1296.09C1302.67 141.1 1308 146.434 1308 153.014V170.548C1308 188.223 1294.93 203.118 1277.36 205.015C1233.78 209.722 1149.88 217.4 1066.29 217.4C982.76 217.4 899.106 209.731 855.628 205.024C838.061 203.122 825 188.231 825 170.562V153.014Z" stroke="#4D4D4D"/>
<path fill-rule="evenodd" clip-rule="evenodd" d="M810.3 145.3C810.3 133.702 819.702 124.3 831.3 124.3H1301C1312.6 124.3 1322 133.702 1322 145.3V173.867C1322 198.317 1303.77 218.851 1279.43 221.144C1231.2 225.688 1148.54 232.1 1066.09 232.1C983.67 232.1 901.066 225.691 852.863 221.147C828.523 218.852 810.3 198.32 810.3 173.871V145.3Z" stroke="#4D4D4D"/>
<path fill-rule="evenodd" clip-rule="evenodd" d="M1061.84 200.005C1064.64 202.687 1069.06 202.687 1071.86 200.005L1088.2 184.377C1089.21 183.409 1088.53 181.7 1087.13 181.7H1046.57C1045.17 181.7 1044.49 183.409 1045.5 184.377L1061.84 200.005Z" stroke="#4D4D4D"/>
<path d="M871.816 151.208C871.816 149.492 870.425 148.1 868.708 148.1C866.992 148.1 865.6 149.492 865.6 151.208V195.756C865.6 197.473 866.992 198.864 868.708 198.864C870.425 198.864 871.816 197.473 871.816 195.756V151.208Z" stroke="#4D4D4D"/>
<path d="M1267.05 151.208C1267.05 149.492 1265.65 148.1 1263.94 148.1C1262.22 148.1 1260.83 149.492 1260.83 151.208V195.756C1260.83 197.473 1262.22 198.864 1263.94 198.864C1265.65 198.864 1267.05 197.473 1267.05 195.756V151.208Z" stroke="#4D4D4D"/>
<path d="M911.8 353.2H848.8C836.816 353.2 827.1 362.916 827.1 374.9V454.7C827.1 466.685 836.816 476.4 848.8 476.4H911.8C923.785 476.4 933.5 466.685 933.5 454.7V374.9C933.5 362.916 923.785 353.2 911.8 353.2Z" stroke="#4D4D4D"/>
<path d="M911.026 361.6H849.574C841.801 361.6 835.5 367.901 835.5 375.674V453.926C835.5 461.699 841.801 468 849.574 468H911.026C918.799 468 925.1 461.699 925.1 453.926V375.674C925.1 367.901 918.799 361.6 911.026 361.6Z" stroke="#4D4D4D"/>
<path d="M910.748 377.5H849.851C842.975 377.5 837.4 383.075 837.4 389.952V453.648C837.4 460.525 842.975 466.1 849.851 466.1H910.748C917.625 466.1 923.2 460.525 923.2 453.648V389.952C923.2 383.075 917.625 377.5 910.748 377.5Z" stroke="#4D4D4D"/>
<path d="M923.2 406.9H837.4V417.1H923.2V406.9Z" stroke="#4D4D4D"/>
<path d="M923.2 395.7H837.4V427.6H923.2V395.7Z" stroke="#4D4D4D"/>
<path d="M1154 353.2H979C967.015 353.2 957.3 362.916 957.3 374.9V454.7C957.3 466.685 967.015 476.4 979 476.4H1154C1165.98 476.4 1175.7 466.685 1175.7 454.7V374.9C1175.7 362.916 1165.98 353.2 1154 353.2Z" stroke="#4D4D4D"/>
<path d="M1153.23 361.6H979.774C972.001 361.6 965.7 367.901 965.7 375.674V453.926C965.7 461.699 972.001 468 979.774 468H1153.23C1161 468 1167.3 461.699 1167.3 453.926V375.674C1167.3 367.901 1161 361.6 1153.23 361.6Z" stroke="#4D4D4D"/>
<path d="M1284.2 353.2H1221.2C1209.22 353.2 1199.5 362.916 1199.5 374.9V454.7C1199.5 466.685 1209.22 476.4 1221.2 476.4H1284.2C1296.18 476.4 1305.9 466.685 1305.9 454.7V374.9C1305.9 362.916 1296.18 353.2 1284.2 353.2Z" stroke="#4D4D4D"/>
<path d="M1283.43 361.6H1221.97C1214.2 361.6 1207.9 367.901 1207.9 375.674V453.926C1207.9 461.699 1214.2 468 1221.97 468H1283.43C1291.2 468 1297.5 461.699 1297.5 453.926V375.674C1297.5 367.901 1291.2 361.6 1283.43 361.6Z" stroke="#4D4D4D"/>
<path d="M1283.15 363.5H1222.25C1215.37 363.5 1209.8 369.075 1209.8 375.952V453.648C1209.8 460.525 1215.37 466.1 1222.25 466.1H1283.15C1290.03 466.1 1295.6 460.525 1295.6 453.648V375.952C1295.6 369.075 1290.03 363.5 1283.15 363.5Z" stroke="#4D4D4D"/>
<path fill-rule="evenodd" clip-rule="evenodd" d="M815.55 415.5C818.063 415.5 820.1 413.463 820.1 410.95C820.1 408.437 818.063 406.4 815.55 406.4C813.037 406.4 811 408.437 811 410.95C811 413.463 813.037 415.5 815.55 415.5Z" stroke="#4D4D4D"/>
<path fill-rule="evenodd" clip-rule="evenodd" d="M815.55 401.5C818.063 401.5 820.1 399.463 820.1 396.95C820.1 394.437 818.063 392.4 815.55 392.4C813.037 392.4 811 394.437 811 396.95C811 399.463 813.037 401.5 815.55 401.5Z" stroke="#4D4D4D"/>
<path d="M819.4 516.3H814.5V661.2H819.4V516.3Z" stroke="#4D4D4D"/>
<path d="M1319.9 516.3H1315V661.2H1319.9V516.3Z" stroke="#4D4D4D"/>
<path d="M1260.05 610.8H1238.35C1235.84 610.8 1233.8 612.837 1233.8 615.35C1233.8 617.863 1235.84 619.9 1238.35 619.9H1260.05C1262.56 619.9 1264.6 617.863 1264.6 615.35C1264.6 612.837 1262.56 610.8 1260.05 610.8Z" stroke="#4D4D4D"/>
<path d="M1260.05 607.3H1238.35C1233.9 607.3 1230.3 610.904 1230.3 615.35C1230.3 619.796 1233.9 623.4 1238.35 623.4H1260.05C1264.5 623.4 1268.1 619.796 1268.1 615.35C1268.1 610.904 1264.5 607.3 1260.05 607.3Z" stroke="#4D4D4D"/>
<path d="M1877.79 740H733.306C723.144 740 714.906 748.238 714.906 758.4V1584.56C714.906 1594.72 723.144 1602.96 733.306 1602.96H1877.79C1887.95 1602.96 1896.19 1594.72 1896.19 1584.56V758.4C1896.19 748.238 1887.95 740 1877.79 740Z" stroke="#4D4D4D"/>
<path d="M1645.03 906.52H966.986C876.544 906.52 803.226 979.838 803.226 1070.28C803.226 1160.72 876.544 1234.04 966.986 1234.04H1645.03C1735.47 1234.04 1808.79 1160.72 1808.79 1070.28C1808.79 979.838 1735.47 906.52 1645.03 906.52Z" stroke="#4D4D4D"/>
<path d="M1653.31 1006.8H959.626C924.567 1006.8 896.146 1035.22 896.146 1070.28C896.146 1105.34 924.567 1133.76 959.626 1133.76H1653.31C1688.37 1133.76 1716.79 1105.34 1716.79 1070.28C1716.79 1035.22 1688.37 1006.8 1653.31 1006.8Z" stroke="#4D4D4D"/>
<path d="M1653.31 1006.8H959.63V1133.76H1653.31V1006.8Z" stroke="#4D4D4D"/>
<path d="M1559.47 1006.8H1054.39V1133.76H1559.47V1006.8Z" stroke="#4D4D4D"/>
<path d="M960.09 1074.42H1653.77" stroke="#4D4D4D"/>
<path d="M1896.19 764.84H1879.63V785.08H1869.51V764.84H1857.55V785.08H1847.43V764.84H1835.47V785.08H1825.35V764.84H1813.39V785.08H1803.27V764.84H1791.31V785.08H1781.19V764.84H1769.23V785.08H1759.11V764.84H1747.15V785.08H1737.03V764.84H1725.07V785.08H1714.95V764.84H1702.99V785.08H1692.87V764.84H1629.31L1628.91 764.845C1623.95 764.948 1619.22 766.955 1615.7 770.45L1615.41 770.745L1580.55 806.877C1574.24 813.406 1565.6 817.145 1556.54 817.277L1556.05 817.28H1055.04C1045.97 817.28 1037.28 813.658 1030.89 807.23L1030.55 806.877L995.68 770.745C992.14 767.068 987.28 764.95 982.18 764.844L981.78 764.84H919.15V785.08H909.026V764.84H897.066V785.08H886.946V764.84H874.986V785.08H864.866V764.84H852.906V785.08H842.786V764.84H830.826V785.08H820.706V764.84H808.746V785.08H798.626V764.84H786.666V785.08H776.546V764.84H764.586V785.08H754.466V764.84H742.506V785.08H732.386V764.84H714.906" stroke="#4D4D4D"/>
<path d="M1896.19 781.4H1879.63V785.08H1869.51V781.4H1857.55V785.08H1847.43V781.4H1835.47V785.08H1825.35V781.4H1813.39V785.08H1803.27V781.4H1791.31V785.08H1781.19V781.4H1769.23V785.08H1759.11V781.4H1747.15V785.08H1737.03V781.4H1725.07V785.08H1714.95V781.4H1702.99V785.08H1692.87V781.4H1676.23L1675.88 781.405C1670.77 781.525 1665.89 784.283 1662.33 789.084L1646.2 810.84L1627.47 836.596C1621.15 845.28 1612.48 850.244 1603.4 850.396L1602.97 850.4H1009.04C999.81 850.4 990.96 845.417 984.55 836.596L965.82 810.84L949.68 789.084C946.04 784.174 941.02 781.4 935.78 781.4H919.15V785.08H909.026V781.4H897.066V785.08H886.946V781.4H874.986V785.08H864.866V781.4H852.906V785.08H842.786V781.4H830.826V785.08H820.706V781.4H808.746V785.08H798.626V781.4H786.666V785.08H776.546V781.4H764.586V785.08H754.466V781.4H742.506V785.08H732.386V781.4H714.906" stroke="#4D4D4D"/>
<path d="M1187.79 758.4H1047.95C1045.41 758.4 1043.35 760.459 1043.35 763C1043.35 765.54 1045.41 767.6 1047.95 767.6H1187.79C1190.33 767.6 1192.39 765.54 1192.39 763C1192.39 760.459 1190.33 758.4 1187.79 758.4Z" stroke="#4D4D4D"/>
<path d="M1385.59 758.4H1212.63C1210.09 758.4 1208.03 760.459 1208.03 763C1208.03 765.54 1210.09 767.6 1212.63 767.6H1385.59C1388.13 767.6 1390.19 765.54 1390.19 763C1390.19 760.459 1388.13 758.4 1385.59 758.4Z" stroke="#4D4D4D"/>
<path d="M1385.59 776.8H1212.63C1210.09 776.8 1208.03 778.859 1208.03 781.4C1208.03 783.94 1210.09 786 1212.63 786H1385.59C1388.13 786 1390.19 783.94 1390.19 781.4C1390.19 778.859 1388.13 776.8 1385.59 776.8Z" stroke="#4D4D4D"/>
<path d="M1385.59 795.2H1212.63C1210.09 795.2 1208.03 797.26 1208.03 799.8C1208.03 802.341 1210.09 804.4 1212.63 804.4H1385.59C1388.13 804.4 1390.19 802.341 1390.19 799.8C1390.19 797.26 1388.13 795.2 1385.59 795.2Z" stroke="#4D4D4D"/>
<path d="M1187.79 776.8H1062.67C1060.13 776.8 1058.07 778.859 1058.07 781.4C1058.07 783.94 1060.13 786 1062.67 786H1187.79C1190.33 786 1192.39 783.94 1192.39 781.4C1192.39 778.859 1190.33 776.8 1187.79 776.8Z" stroke="#4D4D4D"/>
<path d="M1187.79 795.2H1076.47C1073.93 795.2 1071.87 797.26 1071.87 799.8C1071.87 802.341 1073.93 804.4 1076.47 804.4H1187.79C1190.33 804.4 1192.39 802.341 1192.39 799.8C1192.39 797.26 1190.33 795.2 1187.79 795.2Z" stroke="#4D4D4D"/>
<path d="M714.906 906.52H1896.19" stroke="#4D4D4D"/>
<path d="M983.55 885.36C983.55 881.803 986.43 878.92 989.99 878.92H1619.27C1622.82 878.92 1625.71 881.803 1625.71 885.36V1602.96H983.55V885.36Z" stroke="#4D4D4D"/>
<path d="M988.15 886.28C988.15 884.756 989.38 883.52 990.91 883.52H1618.35C1619.87 883.52 1621.11 884.756 1621.11 886.28V1602.96H988.15V886.28Z" stroke="#4D4D4D"/>
<path d="M654.3 -270H-894V452.8H654.3V-270Z" stroke="#4D4D4D"/>
<path d="M472.3 0.399902L654.3 332.172" stroke="#4D4D4D" stroke-linecap="square"/>
<path d="M430.7 -173.8H-112.7V335.8H430.7V-173.8Z" stroke="#4D4D4D"/>
<path d="M430.7 43.2998H-112.7V104.4H430.7V43.2998Z" stroke="#4D4D4D"/>
<path d="M14.6998 61.5H-80.2002V87.5H14.6998V61.5Z" stroke="#4D4D4D"/>
<path d="M399.5 61.5H304.6V87.5H399.5V61.5Z" stroke="#4D4D4D"/>
<path fill-rule="evenodd" clip-rule="evenodd" d="M-102.3 53.7002H162.9L149.9 95.3001H-102.3V53.7002Z" stroke="#4D4D4D"/>
<path fill-rule="evenodd" clip-rule="evenodd" d="M178.5 53.7002H420.3V95.3001H165.5L178.5 53.7002Z" stroke="#4D4D4D"/>
<path d="M426.8 108.3H-108.8V331.9H426.8V108.3Z" stroke="#4D4D4D"/>
<path d="M654.3 350.1H-894V452.8H654.3V350.1Z" stroke="#4D4D4D"/>
<path d="M13.3998 404.7H-112.7V425.5H13.3998V404.7Z" stroke="#4D4D4D"/>
<path d="M536 404.7H409.9V425.5H536V404.7Z" stroke="#4D4D4D"/>
<path d="M-894 437.2L108.3 437.225V372.2H356.6V437.2H654.3" stroke="#4D4D4D"/>
<path d="M356.6 372.2H108.3V386.5H356.6V372.2Z" stroke="#4D4D4D"/>
<path d="M-102 555.5C-102 528.162 -79.8381 506 -52.5 506H613.5C640.838 506 663 528.162 663 555.5V1260.5H-102V555.5Z" stroke="#4D4D4D"/>
<path d="M69 1049H-76.5V555.5C-76.5 541.417 -65.0833 530 -51 530H612C626.083 530 637.5 541.417 637.5 555.5V1049H493.5" stroke="#4D4D4D"/>
<path d="M69 773.75C69 656.528 164.403 561.5 281.626 561.5V561.5C398.434 561.5 493.5 656.192 493.5 773V1260.5H69V773.75Z" stroke="#4D4D4D"/>
<rect x="454.5" y="525.5" width="19.5" height="12" transform="rotate(-90 454.5 525.5)" stroke="#4D4D4D" stroke-linecap="round" stroke-linejoin="round"/>
<rect x="94.5" y="525.5" width="19.5" height="12" transform="rotate(-90 94.5 525.5)" stroke="#4D4D4D" stroke-linecap="round" stroke-linejoin="round"/>
<rect x="112.5" y="525.5" width="19.5" height="12" transform="rotate(-90 112.5 525.5)" stroke="#4D4D4D" stroke-linecap="round" stroke-linejoin="round"/>
<rect x="130.5" y="525.5" width="19.5" height="12" transform="rotate(-90 130.5 525.5)" stroke="#4D4D4D" stroke-linecap="round" stroke-linejoin="round"/>
<rect x="148.5" y="525.5" width="19.5" height="12" transform="rotate(-90 148.5 525.5)" stroke="#4D4D4D" stroke-linecap="round" stroke-linejoin="round"/>
<rect x="166.5" y="525.5" width="19.5" height="12" transform="rotate(-90 166.5 525.5)" stroke="#4D4D4D" stroke-linecap="round" stroke-linejoin="round"/>
<rect x="184.5" y="525.5" width="19.5" height="12" transform="rotate(-90 184.5 525.5)" stroke="#4D4D4D" stroke-linecap="round" stroke-linejoin="round"/>
<rect x="202.5" y="525.5" width="19.5" height="12" transform="rotate(-90 202.5 525.5)" stroke="#4D4D4D" stroke-linecap="round" stroke-linejoin="round"/>
<rect x="220.5" y="525.5" width="19.5" height="12" transform="rotate(-90 220.5 525.5)" stroke="#4D4D4D" stroke-linecap="round" stroke-linejoin="round"/>
<rect x="238.5" y="525.5" width="19.5" height="12" transform="rotate(-90 238.5 525.5)" stroke="#4D4D4D" stroke-linecap="round" stroke-linejoin="round"/>
<rect x="256.5" y="525.5" width="19.5" height="12" transform="rotate(-90 256.5 525.5)" stroke="#4D4D4D" stroke-linecap="round" stroke-linejoin="round"/>
<rect x="274.5" y="525.5" width="19.5" height="12" transform="rotate(-90 274.5 525.5)" stroke="#4D4D4D" stroke-linecap="round" stroke-linejoin="round"/>
<rect x="292.5" y="525.5" width="19.5" height="12" transform="rotate(-90 292.5 525.5)" stroke="#4D4D4D" stroke-linecap="round" stroke-linejoin="round"/>
<rect x="310.5" y="525.5" width="19.5" height="12" transform="rotate(-90 310.5 525.5)" stroke="#4D4D4D" stroke-linecap="round" stroke-linejoin="round"/>
<rect x="328.5" y="525.5" width="19.5" height="12" transform="rotate(-90 328.5 525.5)" stroke="#4D4D4D" stroke-linecap="round" stroke-linejoin="round"/>
<rect x="346.5" y="525.5" width="19.5" height="12" transform="rotate(-90 346.5 525.5)" stroke="#4D4D4D" stroke-linecap="round" stroke-linejoin="round"/>
<rect x="364.5" y="525.5" width="19.5" height="12" transform="rotate(-90 364.5 525.5)" stroke="#4D4D4D" stroke-linecap="round" stroke-linejoin="round"/>
<rect x="382.5" y="525.5" width="19.5" height="12" transform="rotate(-90 382.5 525.5)" stroke="#4D4D4D" stroke-linecap="round" stroke-linejoin="round"/>
<rect x="400.5" y="525.5" width="19.5" height="12" transform="rotate(-90 400.5 525.5)" stroke="#4D4D4D" stroke-linecap="round" stroke-linejoin="round"/>
<rect x="418.5" y="525.5" width="19.5" height="12" transform="rotate(-90 418.5 525.5)" stroke="#4D4D4D" stroke-linecap="round" stroke-linejoin="round"/>
<rect x="436.5" y="525.5" width="19.5" height="12" transform="rotate(-90 436.5 525.5)" stroke="#4D4D4D" stroke-linecap="round" stroke-linejoin="round"/>
<path d="M118.5 948.5C118.5 939.387 125.887 932 135 932H429C438.113 932 445.5 939.387 445.5 948.5V1260.5H118.5V948.5Z" stroke="#4D4D4D"/>
<rect x="129" y="945.5" width="307.5" height="7.5" stroke="#4D4D4D"/>
<rect x="129" y="957.5" width="307.5" height="187.5" stroke="#4D4D4D"/>
<rect x="-76.5" y="1059.5" width="145.5" height="12" stroke="#4D4D4D"/>
<rect x="-64.5" y="1071.5" width="133.5" height="10.5" stroke="#4D4D4D"/>
<rect x="-64.5" y="1049" width="133.5" height="10.5" stroke="#4D4D4D"/>
<rect x="493.5" y="1059.5" width="145.5" height="12" stroke="#4D4D4D"/>
<rect x="493.5" y="1071.5" width="133.5" height="10.5" stroke="#4D4D4D"/>
<rect x="493.5" y="1049" width="133.5" height="10.5" stroke="#4D4D4D"/>
<path d="M-64.5 1049V558.5C-64.5 548.559 -56.4411 540.5 -46.5 540.5H609C618.941 540.5 627 548.559 627 558.5V1049" stroke="#4D4D4D"/>
<mask id="path-91-inside-1" fill="white">
<path fill-rule="evenodd" clip-rule="evenodd" d="M-76 713L-94 729.5L-76 746H-12.5V863C-12.5 872.113 -5.1127 879.5 4 879.5C13.1127 879.5 20.5 872.113 20.5 863V729.5C20.5 720.387 13.1127 713 4 713C3.91652 713 3.83318 713.001 3.75 713.002C3.66682 713.001 3.58348 713 3.5 713H-76Z"/>
</mask>
<path d="M-94 729.5L-94.6757 728.763L-95.4799 729.5L-94.6757 730.237L-94 729.5ZM-76 713V712H-76.389L-76.6757 712.263L-76 713ZM-76 746L-76.6757 746.737L-76.389 747H-76V746ZM-12.5 746H-11.5V745H-12.5V746ZM3.75 713.002L3.73515 714.002L3.75 714.002L3.76485 714.002L3.75 713.002ZM-93.3243 730.237L-75.3243 713.737L-76.6757 712.263L-94.6757 728.763L-93.3243 730.237ZM-75.3243 745.263L-93.3243 728.763L-94.6757 730.237L-76.6757 746.737L-75.3243 745.263ZM-76 747H-12.5V745H-76V747ZM-13.5 746V863H-11.5V746H-13.5ZM-13.5 863C-13.5 872.665 -5.66499 880.5 4 880.5V878.5C-4.56042 878.5 -11.5 871.56 -11.5 863H-13.5ZM4 880.5C13.665 880.5 21.5 872.665 21.5 863H19.5C19.5 871.56 12.5604 878.5 4 878.5V880.5ZM21.5 863V729.5H19.5V863H21.5ZM21.5 729.5C21.5 719.835 13.665 712 4 712V714C12.5604 714 19.5 720.94 19.5 729.5H21.5ZM4 712C3.91157 712 3.82328 712.001 3.73515 712.002L3.76485 714.002C3.84308 714.001 3.92147 714 4 714V712ZM3.76485 712.002C3.67672 712.001 3.58843 712 3.5 712V714C3.57853 714 3.65692 714.001 3.73515 714.002L3.76485 712.002ZM3.5 712H-76V714H3.5V712Z" fill="#4D4D4D" mask="url(#path-91-inside-1)"/>
<mask id="path-93-inside-2" fill="white">
<path fill-rule="evenodd" clip-rule="evenodd" d="M638 713L656 729.5L638 746H574.5V863C574.5 872.113 567.113 879.5 558 879.5C548.887 879.5 541.5 872.113 541.5 863V729.5C541.5 720.387 548.887 713 558 713C558.083 713 558.167 713.001 558.25 713.002C558.333 713.001 558.417 713 558.5 713H638Z"/>
</mask>
<path d="M656 729.5L656.676 728.763L657.48 729.5L656.676 730.237L656 729.5ZM638 713V712H638.389L638.676 712.263L638 713ZM638 746L638.676 746.737L638.389 747H638V746ZM574.5 746H573.5V745H574.5V746ZM558.25 713.002L558.265 714.002L558.25 714.002L558.235 714.002L558.25 713.002ZM655.324 730.237L637.324 713.737L638.676 712.263L656.676 728.763L655.324 730.237ZM637.324 745.263L655.324 728.763L656.676 730.237L638.676 746.737L637.324 745.263ZM638 747H574.5V745H638V747ZM575.5 746V863H573.5V746H575.5ZM575.5 863C575.5 872.665 567.665 880.5 558 880.5V878.5C566.56 878.5 573.5 871.56 573.5 863H575.5ZM558 880.5C548.335 880.5 540.5 872.665 540.5 863H542.5C542.5 871.56 549.44 878.5 558 878.5V880.5ZM540.5 863V729.5H542.5V863H540.5ZM540.5 729.5C540.5 719.835 548.335 712 558 712V714C549.44 714 542.5 720.94 542.5 729.5H540.5ZM558 712C558.088 712 558.177 712.001 558.265 712.002L558.235 714.002C558.157 714.001 558.079 714 558 714V712ZM558.235 712.002C558.323 712.001 558.412 712 558.5 712V714C558.421 714 558.343 714.001 558.265 714.002L558.235 712.002ZM558.5 712H638V714H558.5V712Z" fill="#4D4D4D" mask="url(#path-93-inside-2)"/>
</g>
<defs>
<clipPath id="clip0">
<rect width="1480" height="1080" fill="white"/>
</clipPath>
</defs>
</svg>
