<svg width="388" height="55" viewBox="0 0 388 55" fill="none" xmlns="http://www.w3.org/2000/svg">
<g clip-path="url(#clip0_37_778)">
<path d="M8.42858 29.7696L9.42458 28.5216C9.91258 28.9456 10.3806 29.2576 10.8286 29.4576C11.2846 29.6496 11.7646 29.7456 12.2686 29.7456C12.7886 29.7456 13.2046 29.6496 13.5166 29.4576C13.8286 29.2656 13.9846 29.0096 13.9846 28.6896C13.9846 28.4016 13.8766 28.1776 13.6606 28.0176C13.4526 27.8576 13.1006 27.7376 12.6046 27.6576L10.9366 27.3696C10.2166 27.2496 9.66858 26.9976 9.29258 26.6136C8.92458 26.2296 8.74058 25.7336 8.74058 25.1256C8.74058 24.3416 9.03658 23.7216 9.62858 23.2656C10.2286 22.8096 11.0366 22.5816 12.0526 22.5816C12.6606 22.5816 13.2726 22.6856 13.8886 22.8936C14.5126 23.1016 15.0566 23.3896 15.5206 23.7576L14.5846 25.0536C14.1366 24.7096 13.6966 24.4576 13.2646 24.2976C12.8326 24.1296 12.3886 24.0456 11.9326 24.0456C11.4686 24.0456 11.0966 24.1336 10.8166 24.3096C10.5366 24.4776 10.3966 24.7056 10.3966 24.9936C10.3966 25.2496 10.4886 25.4496 10.6726 25.5936C10.8566 25.7376 11.1646 25.8416 11.5966 25.9056L13.1806 26.1696C14.0126 26.3056 14.6366 26.5736 15.0526 26.9736C15.4766 27.3656 15.6886 27.8856 15.6886 28.5336C15.6886 29.3496 15.3646 30.0016 14.7166 30.4896C14.0766 30.9776 13.2206 31.2216 12.1486 31.2216C11.4766 31.2216 10.8126 31.0936 10.1566 30.8376C9.50858 30.5816 8.93258 30.2256 8.42858 29.7696ZM16.9562 24.2376V22.7016H24.3482V24.2376H21.5282V31.1016H19.7882V24.2376H16.9562ZM23.8797 31.1016L27.3357 22.7016H29.3517L32.7597 31.1016H30.8757L30.0237 28.8936H26.5557L25.6917 31.1016H23.8797ZM27.0957 27.5016H29.4957L28.3077 24.4056L27.0957 27.5016ZM34.4728 31.1016V22.7016H38.5768C39.0008 22.7016 39.3888 22.7656 39.7408 22.8936C40.1008 23.0216 40.4088 23.2016 40.6648 23.4336C40.9208 23.6576 41.1208 23.9296 41.2648 24.2496C41.4088 24.5696 41.4808 24.9216 41.4808 25.3056C41.4808 25.8336 41.3288 26.3056 41.0248 26.7216C40.7288 27.1376 40.3328 27.4456 39.8368 27.6456L41.6968 31.1016H39.7528L38.1088 27.8856H36.2128V31.1016H34.4728ZM38.4208 24.2016H36.2128V26.4576H38.4208C38.8128 26.4576 39.1248 26.3536 39.3568 26.1456C39.5968 25.9376 39.7168 25.6656 39.7168 25.3296C39.7168 24.9936 39.5968 24.7216 39.3568 24.5136C39.1248 24.3056 38.8128 24.2016 38.4208 24.2016ZM42.9953 24.2376V22.7016H50.3873V24.2376H47.5673V31.1016H45.8273V24.2376H42.9953Z" fill="white"/>
<rect y="17.1016" width="59" height="20" rx="10" stroke="white" stroke-width="2"/>
<path d="M68.207 33.1016V21.2016H70.604L74.327 28.8176L78.05 21.2016H80.43V33.1016H78.747V23.3776L74.31 32.2516L69.873 23.3776V33.1016H68.207ZM86.7936 33.2546C85.9436 33.2546 85.1729 33.0562 84.4816 32.6596C83.8016 32.2629 83.2576 31.7246 82.8496 31.0446C82.4529 30.3646 82.2546 29.6052 82.2546 28.7666C82.2546 27.9392 82.4472 27.1912 82.8326 26.5226C83.2179 25.8426 83.7392 25.3042 84.3966 24.9076C85.0539 24.4996 85.7849 24.2956 86.5896 24.2956C87.3942 24.2956 88.1082 24.4996 88.7316 24.9076C89.3549 25.3042 89.8479 25.8482 90.2106 26.5396C90.5846 27.2196 90.7716 27.9902 90.7716 28.8516V29.3276H83.9546C84.0452 29.8036 84.2209 30.2286 84.4816 30.6026C84.7536 30.9766 85.0936 31.2712 85.5016 31.4866C85.9209 31.7019 86.3742 31.8096 86.8616 31.8096C87.2809 31.8096 87.6832 31.7472 88.0686 31.6226C88.4652 31.4866 88.7939 31.2939 89.0546 31.0446L90.1426 32.1156C89.6326 32.5009 89.1056 32.7899 88.5616 32.9826C88.0289 33.1639 87.4396 33.2546 86.7936 33.2546ZM83.9716 28.0526H89.0886C89.0206 27.5992 88.8619 27.2026 88.6126 26.8626C88.3746 26.5112 88.0742 26.2392 87.7116 26.0466C87.3602 25.8426 86.9749 25.7406 86.5556 25.7406C86.1249 25.7406 85.7282 25.8369 85.3656 26.0296C85.0029 26.2222 84.6969 26.4942 84.4476 26.8456C84.2096 27.1856 84.0509 27.5879 83.9716 28.0526ZM92.3907 33.1016V24.4486H94.0907V25.3326C94.7594 24.6299 95.6264 24.2786 96.6917 24.2786C97.3604 24.2786 97.944 24.4202 98.4427 24.7036C98.9527 24.9869 99.3494 25.3836 99.6327 25.8936C99.9274 26.4036 100.075 26.9929 100.075 27.6616V33.1016H98.3747V27.9506C98.3747 27.2706 98.182 26.7379 97.7967 26.3526C97.4227 25.9559 96.8957 25.7576 96.2157 25.7576C95.7624 25.7576 95.3544 25.8539 94.9917 26.0466C94.629 26.2392 94.3287 26.5169 94.0907 26.8796V33.1016H92.3907ZM105.302 33.2716C104.634 33.2716 104.044 33.1299 103.534 32.8466C103.024 32.5632 102.628 32.1666 102.344 31.6566C102.061 31.1352 101.919 30.5402 101.919 29.8716V24.4486H103.602V29.5826C103.602 30.2626 103.795 30.8009 104.18 31.1976C104.577 31.5942 105.104 31.7926 105.761 31.7926C106.226 31.7926 106.64 31.6962 107.002 31.5036C107.365 31.2996 107.66 31.0162 107.886 30.6536V24.4486H109.586V33.1016H107.886V32.2176C107.218 32.9202 106.356 33.2716 105.302 33.2716Z" fill="white"/>
<path d="M139.21 29.7696L140.206 28.5216C140.694 28.9456 141.162 29.2576 141.61 29.4576C142.066 29.6496 142.546 29.7456 143.05 29.7456C143.57 29.7456 143.986 29.6496 144.298 29.4576C144.61 29.2656 144.766 29.0096 144.766 28.6896C144.766 28.4016 144.658 28.1776 144.442 28.0176C144.234 27.8576 143.882 27.7376 143.386 27.6576L141.718 27.3696C140.998 27.2496 140.45 26.9976 140.074 26.6136C139.706 26.2296 139.522 25.7336 139.522 25.1256C139.522 24.3416 139.818 23.7216 140.41 23.2656C141.01 22.8096 141.818 22.5816 142.834 22.5816C143.442 22.5816 144.054 22.6856 144.67 22.8936C145.294 23.1016 145.838 23.3896 146.302 23.7576L145.366 25.0536C144.918 24.7096 144.478 24.4576 144.046 24.2976C143.614 24.1296 143.17 24.0456 142.714 24.0456C142.25 24.0456 141.878 24.1336 141.598 24.3096C141.318 24.4776 141.178 24.7056 141.178 24.9936C141.178 25.2496 141.27 25.4496 141.454 25.5936C141.638 25.7376 141.946 25.8416 142.378 25.9056L143.962 26.1696C144.794 26.3056 145.418 26.5736 145.834 26.9736C146.258 27.3656 146.47 27.8856 146.47 28.5336C146.47 29.3496 146.146 30.0016 145.498 30.4896C144.858 30.9776 144.002 31.2216 142.93 31.2216C142.258 31.2216 141.594 31.0936 140.938 30.8376C140.29 30.5816 139.714 30.2256 139.21 29.7696ZM148.512 31.1016V22.7016H154.968V24.2136H150.252V26.1336H153.36V27.5976H150.252V29.5896H155.016V31.1016H148.512ZM157.246 31.1016V22.7016H158.986V29.5656H163.582V31.1016H157.246ZM165.781 31.1016V22.7016H172.237V24.2136H167.521V26.1336H170.629V27.5976H167.521V29.5896H172.285V31.1016H165.781ZM178.224 29.6136C178.664 29.6136 179.076 29.5216 179.46 29.3376C179.844 29.1536 180.184 28.8896 180.48 28.5456L181.62 29.6736C181.22 30.1456 180.708 30.5216 180.084 30.8016C179.468 31.0816 178.832 31.2216 178.176 31.2216C177.544 31.2216 176.952 31.1096 176.4 30.8856C175.856 30.6616 175.384 30.3576 174.984 29.9736C174.584 29.5896 174.268 29.1336 174.036 28.6056C173.812 28.0776 173.7 27.5096 173.7 26.9016C173.7 26.2936 173.816 25.7256 174.048 25.1976C174.28 24.6616 174.596 24.2016 174.996 23.8176C175.396 23.4336 175.868 23.1296 176.412 22.9056C176.964 22.6816 177.552 22.5696 178.176 22.5696C178.848 22.5696 179.5 22.7136 180.132 23.0016C180.764 23.2816 181.276 23.6616 181.668 24.1416L180.492 25.3056C180.196 24.9376 179.848 24.6576 179.448 24.4656C179.048 24.2656 178.624 24.1656 178.176 24.1656C177.8 24.1656 177.444 24.2376 177.108 24.3816C176.78 24.5176 176.496 24.7096 176.256 24.9576C176.016 25.1976 175.828 25.4856 175.692 25.8216C175.556 26.1496 175.488 26.5096 175.488 26.9016C175.488 27.2856 175.556 27.6456 175.692 27.9816C175.836 28.3096 176.028 28.5936 176.268 28.8336C176.516 29.0736 176.804 29.2656 177.132 29.4096C177.468 29.5456 177.832 29.6136 178.224 29.6136ZM183.214 24.2376V22.7016H190.606V24.2376H187.786V31.1016H186.046V24.2376H183.214Z" fill="white"/>
<rect x="131" y="17.1016" width="68" height="20" rx="10" stroke="white" stroke-width="2"/>
<path d="M213.885 33.2886C213.024 33.2886 212.219 33.1356 211.471 32.8296C210.723 32.5122 210.06 32.0759 209.482 31.5206C208.915 30.9539 208.473 30.3022 208.156 29.5656C207.85 28.8176 207.697 28.0129 207.697 27.1516C207.697 26.2902 207.85 25.4912 208.156 24.7546C208.473 24.0066 208.915 23.3549 209.482 22.7996C210.06 22.2329 210.723 21.7966 211.471 21.4906C212.219 21.1732 213.024 21.0146 213.885 21.0146C214.746 21.0146 215.551 21.1732 216.299 21.4906C217.058 21.7966 217.721 22.2329 218.288 22.7996C218.855 23.3549 219.297 24.0066 219.614 24.7546C219.931 25.4912 220.09 26.2902 220.09 27.1516C220.09 28.0129 219.931 28.8176 219.614 29.5656C219.297 30.3022 218.855 30.9539 218.288 31.5206C217.721 32.0759 217.058 32.5122 216.299 32.8296C215.551 33.1356 214.746 33.2886 213.885 33.2886ZM213.902 31.6396C214.514 31.6396 215.081 31.5262 215.602 31.2996C216.135 31.0729 216.599 30.7612 216.996 30.3646C217.393 29.9566 217.704 29.4806 217.931 28.9366C218.158 28.3812 218.271 27.7862 218.271 27.1516C218.271 26.5056 218.158 25.9106 217.931 25.3666C217.704 24.8226 217.393 24.3522 216.996 23.9556C216.599 23.5476 216.135 23.2302 215.602 23.0036C215.081 22.7769 214.514 22.6636 213.902 22.6636C213.279 22.6636 212.701 22.7769 212.168 23.0036C211.635 23.2302 211.171 23.5476 210.774 23.9556C210.377 24.3522 210.066 24.8226 209.839 25.3666C209.624 25.9106 209.516 26.4999 209.516 27.1346C209.516 27.7806 209.624 28.3812 209.839 28.9366C210.066 29.4806 210.377 29.9566 210.774 30.3646C211.171 30.7612 211.635 31.0729 212.168 31.2996C212.701 31.5262 213.279 31.6396 213.902 31.6396ZM221.766 36.5696V24.4486H223.449V25.2816C224.174 24.6356 225.058 24.3126 226.101 24.3126C226.917 24.3126 227.653 24.5109 228.311 24.9076C228.979 25.3042 229.506 25.8369 229.892 26.5056C230.277 27.1742 230.47 27.9279 230.47 28.7666C230.47 29.6052 230.271 30.3646 229.875 31.0446C229.489 31.7132 228.962 32.2459 228.294 32.6426C227.636 33.0392 226.894 33.2376 226.067 33.2376C225.591 33.2376 225.132 33.1639 224.69 33.0166C224.248 32.8579 223.84 32.6369 223.466 32.3536V36.5696H221.766ZM225.88 31.7586C226.435 31.7586 226.928 31.6282 227.359 31.3676C227.801 31.1069 228.152 30.7556 228.413 30.3136C228.673 29.8602 228.804 29.3502 228.804 28.7836C228.804 28.2169 228.673 27.7069 228.413 27.2536C228.152 26.8002 227.801 26.4432 227.359 26.1826C226.928 25.9219 226.435 25.7916 225.88 25.7916C225.392 25.7916 224.939 25.8822 224.52 26.0636C224.1 26.2449 223.749 26.4999 223.466 26.8286V30.7386C223.749 31.0559 224.1 31.3052 224.52 31.4866C224.95 31.6679 225.404 31.7586 225.88 31.7586ZM235.3 33.2546C234.461 33.2546 233.821 33.0619 233.379 32.6766C232.937 32.2799 232.716 31.7076 232.716 30.9596V25.8766H230.88V24.4486H232.716V22.2386L234.399 21.8306V24.4486H236.949V25.8766H234.399V30.5686C234.399 31.0106 234.495 31.3279 234.688 31.5206C234.892 31.7019 235.22 31.7926 235.674 31.7926C235.912 31.7926 236.121 31.7756 236.303 31.7416C236.495 31.7076 236.699 31.6566 236.915 31.5886V33.0166C236.688 33.0959 236.422 33.1526 236.116 33.1866C235.821 33.2319 235.549 33.2546 235.3 33.2546ZM238.201 33.1016V24.4486H239.901V33.1016H238.201ZM239.051 23.0546C238.768 23.0546 238.524 22.9526 238.32 22.7486C238.116 22.5332 238.014 22.2839 238.014 22.0006C238.014 21.7059 238.116 21.4622 238.32 21.2696C238.524 21.0656 238.768 20.9636 239.051 20.9636C239.346 20.9636 239.595 21.0656 239.799 21.2696C240.003 21.4622 240.105 21.7059 240.105 22.0006C240.105 22.2839 240.003 22.5332 239.799 22.7486C239.595 22.9526 239.346 23.0546 239.051 23.0546ZM246.017 33.2716C245.179 33.2716 244.414 33.0732 243.722 32.6766C243.042 32.2799 242.504 31.7416 242.107 31.0616C241.711 30.3816 241.512 29.6222 241.512 28.7836C241.512 27.9449 241.711 27.1856 242.107 26.5056C242.504 25.8256 243.042 25.2872 243.722 24.8906C244.414 24.4826 245.179 24.2786 246.017 24.2786C246.867 24.2786 247.632 24.4826 248.312 24.8906C248.992 25.2872 249.531 25.8256 249.927 26.5056C250.324 27.1856 250.522 27.9449 250.522 28.7836C250.522 29.6222 250.324 30.3816 249.927 31.0616C249.531 31.7416 248.992 32.2799 248.312 32.6766C247.632 33.0732 246.867 33.2716 246.017 33.2716ZM246.017 31.7756C246.55 31.7756 247.032 31.6452 247.462 31.3846C247.893 31.1126 248.233 30.7499 248.482 30.2966C248.732 29.8432 248.856 29.3332 248.856 28.7666C248.856 28.2112 248.726 27.7126 248.465 27.2706C248.216 26.8172 247.876 26.4546 247.445 26.1826C247.026 25.9106 246.55 25.7746 246.017 25.7746C245.485 25.7746 245.003 25.9106 244.572 26.1826C244.153 26.4546 243.813 26.8172 243.552 27.2706C243.303 27.7126 243.178 28.2112 243.178 28.7666C243.178 29.3332 243.303 29.8432 243.552 30.2966C243.802 30.7499 244.142 31.1126 244.572 31.3846C245.003 31.6452 245.485 31.7756 246.017 31.7756ZM252.13 33.1016V24.4486H253.83V25.3326C254.499 24.6299 255.366 24.2786 256.431 24.2786C257.1 24.2786 257.683 24.4202 258.182 24.7036C258.692 24.9869 259.089 25.3836 259.372 25.8936C259.667 26.4036 259.814 26.9929 259.814 27.6616V33.1016H258.114V27.9506C258.114 27.2706 257.921 26.7379 257.536 26.3526C257.162 25.9559 256.635 25.7576 255.955 25.7576C255.502 25.7576 255.094 25.8539 254.731 26.0466C254.368 26.2392 254.068 26.5169 253.83 26.8796V33.1016H252.13ZM264.75 33.2716C264.002 33.2716 263.3 33.1639 262.642 32.9486C261.996 32.7219 261.435 32.4046 260.959 31.9966L261.894 30.8746C262.336 31.2259 262.79 31.4979 263.254 31.6906C263.73 31.8719 264.212 31.9626 264.699 31.9626C265.311 31.9626 265.81 31.8436 266.195 31.6056C266.581 31.3676 266.773 31.0559 266.773 30.6706C266.773 30.3532 266.66 30.1039 266.433 29.9226C266.207 29.7412 265.855 29.6166 265.379 29.5486L263.815 29.3276C262.954 29.2029 262.308 28.9366 261.877 28.5286C261.447 28.1206 261.231 27.5766 261.231 26.8966C261.231 26.3752 261.373 25.9219 261.656 25.5366C261.94 25.1399 262.336 24.8339 262.846 24.6186C263.356 24.3919 263.951 24.2786 264.631 24.2786C265.255 24.2786 265.855 24.3692 266.433 24.5506C267.011 24.7319 267.567 25.0152 268.099 25.4006L267.232 26.5226C266.756 26.2052 266.292 25.9729 265.838 25.8256C265.396 25.6782 264.949 25.6046 264.495 25.6046C263.974 25.6046 263.555 25.7179 263.237 25.9446C262.92 26.1599 262.761 26.4432 262.761 26.7946C262.761 27.1119 262.869 27.3612 263.084 27.5426C263.311 27.7126 263.679 27.8316 264.189 27.8996L265.753 28.1206C266.615 28.2452 267.266 28.5116 267.708 28.9196C268.15 29.3162 268.371 29.8546 268.371 30.5346C268.371 31.0559 268.213 31.5262 267.895 31.9456C267.578 32.3536 267.147 32.6766 266.603 32.9146C266.059 33.1526 265.442 33.2716 264.75 33.2716Z" fill="white"/>
</g>
<defs>
<clipPath id="clip0_37_778">
<rect width="388" height="54" fill="white" transform="translate(0 0.101562)"/>
</clipPath>
</defs>
</svg>
