<svg width="388" height="55" viewBox="0 0 388 55" fill="none" xmlns="http://www.w3.org/2000/svg">
<path d="M67.9286 29.7696L68.9246 28.5216C69.4126 28.9456 69.8806 29.2576 70.3286 29.4576C70.7846 29.6496 71.2646 29.7456 71.7686 29.7456C72.2886 29.7456 72.7046 29.6496 73.0166 29.4576C73.3286 29.2656 73.4846 29.0096 73.4846 28.6896C73.4846 28.4016 73.3766 28.1776 73.1606 28.0176C72.9526 27.8576 72.6006 27.7376 72.1046 27.6576L70.4366 27.3696C69.7166 27.2496 69.1686 26.9976 68.7926 26.6136C68.4246 26.2296 68.2406 25.7336 68.2406 25.1256C68.2406 24.3416 68.5366 23.7216 69.1286 23.2656C69.7286 22.8096 70.5366 22.5816 71.5526 22.5816C72.1606 22.5816 72.7726 22.6856 73.3886 22.8936C74.0126 23.1016 74.5566 23.3896 75.0206 23.7576L74.0846 25.0536C73.6366 24.7096 73.1966 24.4576 72.7646 24.2976C72.3326 24.1296 71.8886 24.0456 71.4326 24.0456C70.9686 24.0456 70.5966 24.1336 70.3166 24.3096C70.0366 24.4776 69.8966 24.7056 69.8966 24.9936C69.8966 25.2496 69.9886 25.4496 70.1726 25.5936C70.3566 25.7376 70.6646 25.8416 71.0966 25.9056L72.6806 26.1696C73.5126 26.3056 74.1366 26.5736 74.5526 26.9736C74.9766 27.3656 75.1886 27.8856 75.1886 28.5336C75.1886 29.3496 74.8646 30.0016 74.2166 30.4896C73.5766 30.9776 72.7206 31.2216 71.6486 31.2216C70.9766 31.2216 70.3126 31.0936 69.6566 30.8376C69.0086 30.5816 68.4326 30.2256 67.9286 29.7696ZM76.4562 24.2376V22.7016H83.8482V24.2376H81.0282V31.1016H79.2882V24.2376H76.4562ZM83.3797 31.1016L86.8357 22.7016H88.8517L92.2597 31.1016H90.3757L89.5237 28.8936H86.0557L85.1917 31.1016H83.3797ZM86.5957 27.5016H88.9957L87.8077 24.4056L86.5957 27.5016ZM93.9728 31.1016V22.7016H98.0768C98.5008 22.7016 98.8888 22.7656 99.2408 22.8936C99.6008 23.0216 99.9088 23.2016 100.165 23.4336C100.421 23.6576 100.621 23.9296 100.765 24.2496C100.909 24.5696 100.981 24.9216 100.981 25.3056C100.981 25.8336 100.829 26.3056 100.525 26.7216C100.229 27.1376 99.8328 27.4456 99.3368 27.6456L101.197 31.1016H99.2528L97.6088 27.8856H95.7128V31.1016H93.9728ZM97.9208 24.2016H95.7128V26.4576H97.9208C98.3128 26.4576 98.6248 26.3536 98.8568 26.1456C99.0968 25.9376 99.2168 25.6656 99.2168 25.3296C99.2168 24.9936 99.0968 24.7216 98.8568 24.5136C98.6248 24.3056 98.3128 24.2016 97.9208 24.2016ZM102.495 24.2376V22.7016H109.887V24.2376H107.067V31.1016H105.327V24.2376H102.495Z" fill="white"/>
<rect x="59.5" y="17.1016" width="59" height="20" rx="10" stroke="white" stroke-width="2"/>
<path d="M127.707 33.1016V21.2016H130.104L133.827 28.8176L137.55 21.2016H139.93V33.1016H138.247V23.3776L133.81 32.2516L129.373 23.3776V33.1016H127.707ZM146.294 33.2546C145.444 33.2546 144.673 33.0562 143.982 32.6596C143.302 32.2629 142.758 31.7246 142.35 31.0446C141.953 30.3646 141.755 29.6052 141.755 28.7666C141.755 27.9392 141.947 27.1912 142.333 26.5226C142.718 25.8426 143.239 25.3042 143.897 24.9076C144.554 24.4996 145.285 24.2956 146.09 24.2956C146.894 24.2956 147.608 24.4996 148.232 24.9076C148.855 25.3042 149.348 25.8482 149.711 26.5396C150.085 27.2196 150.272 27.9902 150.272 28.8516V29.3276H143.455C143.545 29.8036 143.721 30.2286 143.982 30.6026C144.254 30.9766 144.594 31.2712 145.002 31.4866C145.421 31.7019 145.874 31.8096 146.362 31.8096C146.781 31.8096 147.183 31.7472 147.569 31.6226C147.965 31.4866 148.294 31.2939 148.555 31.0446L149.643 32.1156C149.133 32.5009 148.606 32.7899 148.062 32.9826C147.529 33.1639 146.94 33.2546 146.294 33.2546ZM143.472 28.0526H148.589C148.521 27.5992 148.362 27.2026 148.113 26.8626C147.875 26.5112 147.574 26.2392 147.212 26.0466C146.86 25.8426 146.475 25.7406 146.056 25.7406C145.625 25.7406 145.228 25.8369 144.866 26.0296C144.503 26.2222 144.197 26.4942 143.948 26.8456C143.71 27.1856 143.551 27.5879 143.472 28.0526ZM151.891 33.1016V24.4486H153.591V25.3326C154.259 24.6299 155.126 24.2786 156.192 24.2786C156.86 24.2786 157.444 24.4202 157.943 24.7036C158.453 24.9869 158.849 25.3836 159.133 25.8936C159.427 26.4036 159.575 26.9929 159.575 27.6616V33.1016H157.875V27.9506C157.875 27.2706 157.682 26.7379 157.297 26.3526C156.923 25.9559 156.396 25.7576 155.716 25.7576C155.262 25.7576 154.854 25.8539 154.492 26.0466C154.129 26.2392 153.829 26.5169 153.591 26.8796V33.1016H151.891ZM164.802 33.2716C164.134 33.2716 163.544 33.1299 163.034 32.8466C162.524 32.5632 162.128 32.1666 161.844 31.6566C161.561 31.1352 161.419 30.5402 161.419 29.8716V24.4486H163.102V29.5826C163.102 30.2626 163.295 30.8009 163.68 31.1976C164.077 31.5942 164.604 31.7926 165.261 31.7926C165.726 31.7926 166.14 31.6962 166.502 31.5036C166.865 31.2996 167.16 31.0162 167.386 30.6536V24.4486H169.086V33.1016H167.386V32.2176C166.718 32.9202 165.856 33.2716 164.802 33.2716Z" fill="white"/>
<path d="M198.71 29.7696L199.706 28.5216C200.194 28.9456 200.662 29.2576 201.11 29.4576C201.566 29.6496 202.046 29.7456 202.55 29.7456C203.07 29.7456 203.486 29.6496 203.798 29.4576C204.11 29.2656 204.266 29.0096 204.266 28.6896C204.266 28.4016 204.158 28.1776 203.942 28.0176C203.734 27.8576 203.382 27.7376 202.886 27.6576L201.218 27.3696C200.498 27.2496 199.95 26.9976 199.574 26.6136C199.206 26.2296 199.022 25.7336 199.022 25.1256C199.022 24.3416 199.318 23.7216 199.91 23.2656C200.51 22.8096 201.318 22.5816 202.334 22.5816C202.942 22.5816 203.554 22.6856 204.17 22.8936C204.794 23.1016 205.338 23.3896 205.802 23.7576L204.866 25.0536C204.418 24.7096 203.978 24.4576 203.546 24.2976C203.114 24.1296 202.67 24.0456 202.214 24.0456C201.75 24.0456 201.378 24.1336 201.098 24.3096C200.818 24.4776 200.678 24.7056 200.678 24.9936C200.678 25.2496 200.77 25.4496 200.954 25.5936C201.138 25.7376 201.446 25.8416 201.878 25.9056L203.462 26.1696C204.294 26.3056 204.918 26.5736 205.334 26.9736C205.758 27.3656 205.97 27.8856 205.97 28.5336C205.97 29.3496 205.646 30.0016 204.998 30.4896C204.358 30.9776 203.502 31.2216 202.43 31.2216C201.758 31.2216 201.094 31.0936 200.438 30.8376C199.79 30.5816 199.214 30.2256 198.71 29.7696ZM208.012 31.1016V22.7016H214.468V24.2136H209.752V26.1336H212.86V27.5976H209.752V29.5896H214.516V31.1016H208.012ZM216.746 31.1016V22.7016H218.486V29.5656H223.082V31.1016H216.746ZM225.281 31.1016V22.7016H231.737V24.2136H227.021V26.1336H230.129V27.5976H227.021V29.5896H231.785V31.1016H225.281ZM237.724 29.6136C238.164 29.6136 238.576 29.5216 238.96 29.3376C239.344 29.1536 239.684 28.8896 239.98 28.5456L241.12 29.6736C240.72 30.1456 240.208 30.5216 239.584 30.8016C238.968 31.0816 238.332 31.2216 237.676 31.2216C237.044 31.2216 236.452 31.1096 235.9 30.8856C235.356 30.6616 234.884 30.3576 234.484 29.9736C234.084 29.5896 233.768 29.1336 233.536 28.6056C233.312 28.0776 233.2 27.5096 233.2 26.9016C233.2 26.2936 233.316 25.7256 233.548 25.1976C233.78 24.6616 234.096 24.2016 234.496 23.8176C234.896 23.4336 235.368 23.1296 235.912 22.9056C236.464 22.6816 237.052 22.5696 237.676 22.5696C238.348 22.5696 239 22.7136 239.632 23.0016C240.264 23.2816 240.776 23.6616 241.168 24.1416L239.992 25.3056C239.696 24.9376 239.348 24.6576 238.948 24.4656C238.548 24.2656 238.124 24.1656 237.676 24.1656C237.3 24.1656 236.944 24.2376 236.608 24.3816C236.28 24.5176 235.996 24.7096 235.756 24.9576C235.516 25.1976 235.328 25.4856 235.192 25.8216C235.056 26.1496 234.988 26.5096 234.988 26.9016C234.988 27.2856 235.056 27.6456 235.192 27.9816C235.336 28.3096 235.528 28.5936 235.768 28.8336C236.016 29.0736 236.304 29.2656 236.632 29.4096C236.968 29.5456 237.332 29.6136 237.724 29.6136ZM242.714 24.2376V22.7016H250.106V24.2376H247.286V31.1016H245.546V24.2376H242.714Z" fill="white"/>
<rect x="190.5" y="17.1016" width="68" height="20" rx="10" stroke="white" stroke-width="2"/>
<path d="M273.385 33.2886C272.524 33.2886 271.719 33.1356 270.971 32.8296C270.223 32.5122 269.56 32.0759 268.982 31.5206C268.415 30.9539 267.973 30.3022 267.656 29.5656C267.35 28.8176 267.197 28.0129 267.197 27.1516C267.197 26.2902 267.35 25.4912 267.656 24.7546C267.973 24.0066 268.415 23.3549 268.982 22.7996C269.56 22.2329 270.223 21.7966 270.971 21.4906C271.719 21.1732 272.524 21.0146 273.385 21.0146C274.246 21.0146 275.051 21.1732 275.799 21.4906C276.558 21.7966 277.221 22.2329 277.788 22.7996C278.355 23.3549 278.797 24.0066 279.114 24.7546C279.431 25.4912 279.59 26.2902 279.59 27.1516C279.59 28.0129 279.431 28.8176 279.114 29.5656C278.797 30.3022 278.355 30.9539 277.788 31.5206C277.221 32.0759 276.558 32.5122 275.799 32.8296C275.051 33.1356 274.246 33.2886 273.385 33.2886ZM273.402 31.6396C274.014 31.6396 274.581 31.5262 275.102 31.2996C275.635 31.0729 276.099 30.7612 276.496 30.3646C276.893 29.9566 277.204 29.4806 277.431 28.9366C277.658 28.3812 277.771 27.7862 277.771 27.1516C277.771 26.5056 277.658 25.9106 277.431 25.3666C277.204 24.8226 276.893 24.3522 276.496 23.9556C276.099 23.5476 275.635 23.2302 275.102 23.0036C274.581 22.7769 274.014 22.6636 273.402 22.6636C272.779 22.6636 272.201 22.7769 271.668 23.0036C271.135 23.2302 270.671 23.5476 270.274 23.9556C269.877 24.3522 269.566 24.8226 269.339 25.3666C269.124 25.9106 269.016 26.4999 269.016 27.1346C269.016 27.7806 269.124 28.3812 269.339 28.9366C269.566 29.4806 269.877 29.9566 270.274 30.3646C270.671 30.7612 271.135 31.0729 271.668 31.2996C272.201 31.5262 272.779 31.6396 273.402 31.6396ZM281.266 36.5696V24.4486H282.949V25.2816C283.674 24.6356 284.558 24.3126 285.601 24.3126C286.417 24.3126 287.153 24.5109 287.811 24.9076C288.479 25.3042 289.006 25.8369 289.392 26.5056C289.777 27.1742 289.97 27.9279 289.97 28.7666C289.97 29.6052 289.771 30.3646 289.375 31.0446C288.989 31.7132 288.462 32.2459 287.794 32.6426C287.136 33.0392 286.394 33.2376 285.567 33.2376C285.091 33.2376 284.632 33.1639 284.19 33.0166C283.748 32.8579 283.34 32.6369 282.966 32.3536V36.5696H281.266ZM285.38 31.7586C285.935 31.7586 286.428 31.6282 286.859 31.3676C287.301 31.1069 287.652 30.7556 287.913 30.3136C288.173 29.8602 288.304 29.3502 288.304 28.7836C288.304 28.2169 288.173 27.7069 287.913 27.2536C287.652 26.8002 287.301 26.4432 286.859 26.1826C286.428 25.9219 285.935 25.7916 285.38 25.7916C284.892 25.7916 284.439 25.8822 284.02 26.0636C283.6 26.2449 283.249 26.4999 282.966 26.8286V30.7386C283.249 31.0559 283.6 31.3052 284.02 31.4866C284.45 31.6679 284.904 31.7586 285.38 31.7586ZM294.8 33.2546C293.961 33.2546 293.321 33.0619 292.879 32.6766C292.437 32.2799 292.216 31.7076 292.216 30.9596V25.8766H290.38V24.4486H292.216V22.2386L293.899 21.8306V24.4486H296.449V25.8766H293.899V30.5686C293.899 31.0106 293.995 31.3279 294.188 31.5206C294.392 31.7019 294.72 31.7926 295.174 31.7926C295.412 31.7926 295.621 31.7756 295.803 31.7416C295.995 31.7076 296.199 31.6566 296.415 31.5886V33.0166C296.188 33.0959 295.922 33.1526 295.616 33.1866C295.321 33.2319 295.049 33.2546 294.8 33.2546ZM297.701 33.1016V24.4486H299.401V33.1016H297.701ZM298.551 23.0546C298.268 23.0546 298.024 22.9526 297.82 22.7486C297.616 22.5332 297.514 22.2839 297.514 22.0006C297.514 21.7059 297.616 21.4622 297.82 21.2696C298.024 21.0656 298.268 20.9636 298.551 20.9636C298.846 20.9636 299.095 21.0656 299.299 21.2696C299.503 21.4622 299.605 21.7059 299.605 22.0006C299.605 22.2839 299.503 22.5332 299.299 22.7486C299.095 22.9526 298.846 23.0546 298.551 23.0546ZM305.517 33.2716C304.679 33.2716 303.914 33.0732 303.222 32.6766C302.542 32.2799 302.004 31.7416 301.607 31.0616C301.211 30.3816 301.012 29.6222 301.012 28.7836C301.012 27.9449 301.211 27.1856 301.607 26.5056C302.004 25.8256 302.542 25.2872 303.222 24.8906C303.914 24.4826 304.679 24.2786 305.517 24.2786C306.367 24.2786 307.132 24.4826 307.812 24.8906C308.492 25.2872 309.031 25.8256 309.427 26.5056C309.824 27.1856 310.022 27.9449 310.022 28.7836C310.022 29.6222 309.824 30.3816 309.427 31.0616C309.031 31.7416 308.492 32.2799 307.812 32.6766C307.132 33.0732 306.367 33.2716 305.517 33.2716ZM305.517 31.7756C306.05 31.7756 306.532 31.6452 306.962 31.3846C307.393 31.1126 307.733 30.7499 307.982 30.2966C308.232 29.8432 308.356 29.3332 308.356 28.7666C308.356 28.2112 308.226 27.7126 307.965 27.2706C307.716 26.8172 307.376 26.4546 306.945 26.1826C306.526 25.9106 306.05 25.7746 305.517 25.7746C304.985 25.7746 304.503 25.9106 304.072 26.1826C303.653 26.4546 303.313 26.8172 303.052 27.2706C302.803 27.7126 302.678 28.2112 302.678 28.7666C302.678 29.3332 302.803 29.8432 303.052 30.2966C303.302 30.7499 303.642 31.1126 304.072 31.3846C304.503 31.6452 304.985 31.7756 305.517 31.7756ZM311.63 33.1016V24.4486H313.33V25.3326C313.999 24.6299 314.866 24.2786 315.931 24.2786C316.6 24.2786 317.183 24.4202 317.682 24.7036C318.192 24.9869 318.589 25.3836 318.872 25.8936C319.167 26.4036 319.314 26.9929 319.314 27.6616V33.1016H317.614V27.9506C317.614 27.2706 317.421 26.7379 317.036 26.3526C316.662 25.9559 316.135 25.7576 315.455 25.7576C315.002 25.7576 314.594 25.8539 314.231 26.0466C313.868 26.2392 313.568 26.5169 313.33 26.8796V33.1016H311.63ZM324.25 33.2716C323.502 33.2716 322.8 33.1639 322.142 32.9486C321.496 32.7219 320.935 32.4046 320.459 31.9966L321.394 30.8746C321.836 31.2259 322.29 31.4979 322.754 31.6906C323.23 31.8719 323.712 31.9626 324.199 31.9626C324.811 31.9626 325.31 31.8436 325.695 31.6056C326.081 31.3676 326.273 31.0559 326.273 30.6706C326.273 30.3532 326.16 30.1039 325.933 29.9226C325.707 29.7412 325.355 29.6166 324.879 29.5486L323.315 29.3276C322.454 29.2029 321.808 28.9366 321.377 28.5286C320.947 28.1206 320.731 27.5766 320.731 26.8966C320.731 26.3752 320.873 25.9219 321.156 25.5366C321.44 25.1399 321.836 24.8339 322.346 24.6186C322.856 24.3919 323.451 24.2786 324.131 24.2786C324.755 24.2786 325.355 24.3692 325.933 24.5506C326.511 24.7319 327.067 25.0152 327.599 25.4006L326.732 26.5226C326.256 26.2052 325.792 25.9729 325.338 25.8256C324.896 25.6782 324.449 25.6046 323.995 25.6046C323.474 25.6046 323.055 25.7179 322.737 25.9446C322.42 26.1599 322.261 26.4432 322.261 26.7946C322.261 27.1119 322.369 27.3612 322.584 27.5426C322.811 27.7126 323.179 27.8316 323.689 27.8996L325.253 28.1206C326.115 28.2452 326.766 28.5116 327.208 28.9196C327.65 29.3162 327.871 29.8546 327.871 30.5346C327.871 31.0559 327.713 31.5262 327.395 31.9456C327.078 32.3536 326.647 32.6766 326.103 32.9146C325.559 33.1526 324.942 33.2716 324.25 33.2716Z" fill="white"/>
</svg>
