<?xml version="1.0" encoding="UTF-8"?>
<svg width="723px" height="85px" viewBox="0 0 723 85" version="1.1" xmlns="http://www.w3.org/2000/svg" xmlns:xlink="http://www.w3.org/1999/xlink">
    <title>gamemeta</title>
    <g id="gamemeta" stroke="none" stroke-width="1" fill="none" fill-rule="evenodd">
        <g id="GAME-DETAILS" transform="translate(44.000000, 0.000000)">
            <g id="ICON-DIVIDERS" opacity="0.351446243" transform="translate(126.000000, 0.000000)" fill="#FFFFFF">
                <rect id="Rectangle" x="0" y="0" width="1" height="73"></rect>
                <rect id="Rectangle" x="191" y="0" width="1" height="73"></rect>
                <rect id="Rectangle" x="382" y="0" width="1" height="73"></rect>
            </g>
            <g id="MD_LBL_PLAYERS-INFO" transform="translate(194.000000, 0.000000)" stroke="#FFFFFF" stroke-width="3">
                <g id="PLAYERS---ICON">
                    <circle id="Oval" cx="14" cy="8" r="6.5"></circle>
                    <path d="M21,19.5 L7,19.5 C5.48121694,19.5 4.10621694,20.1156085 3.1109127,21.1109127 C2.11560847,22.1062169 1.5,23.4812169 1.5,25 L1.5,36.5 L26.5,36.5 L26.5,25 C26.5,23.4812169 25.8843915,22.1062169 24.8890873,21.1109127 C23.8937831,20.1156085 22.5187831,19.5 21,19.5 Z" id="Rectangle"></path>
                    <circle id="Oval" cx="43" cy="8" r="6.5"></circle>
                    <path d="M50,19.5 L36,19.5 C34.4812169,19.5 33.1062169,20.1156085 32.1109127,21.1109127 C31.1156085,22.1062169 30.5,23.4812169 30.5,25 L30.5,36.5 L55.5,36.5 L55.5,25 C55.5,23.4812169 54.8843915,22.1062169 53.8890873,21.1109127 C52.8937831,20.1156085 51.5187831,19.5 50,19.5 Z" id="Rectangle"></path>
                </g>
            </g>
            <path d="M45.019861,2 C55.5020805,2 64,10.5080717 64,21.002814 C64,31.4919283 55.5020805,40 45.0226716,40 L45.0226716,40 L15.4998847,39.6647423 C6.68345136,38.0298193 3.19744231e-14,30.3026274 3.19744231e-14,21.0003095 C3.19744231e-14,10.5055672 8.49791948,2 18.9773284,2 L18.9773284,2 Z M44.0333322,24.1626305 C42.1916011,24.1626305 40.7011978,25.6575579 40.7011978,27.4987457 C40.7011978,29.3399335 42.1916011,30.8348609 44.0333322,30.8348609 C45.872323,30.8348609 47.3654667,29.3399335 47.3654667,27.4987457 C47.3654667,25.6575579 45.872323,24.1626305 44.0333322,24.1626305 Z M22.5704573,10.7000204 C22.2476853,10.3760186 21.7231598,10.3760186 21.3995446,10.7000204 L21.3995446,10.7000204 L20.3340303,11.7841136 L19.2627612,10.705782 L19.1779047,10.6315316 C18.8531237,10.3840302 18.3876737,10.4087804 18.0910264,10.705782 C17.7682544,11.0297838 17.7682544,11.5540918 18.0910264,11.8780935 L18.0910264,11.8780935 L18.828815,12.6167636 L18.6983029,12.7224947 L18.6983029,12.7224947 L18.5776718,12.8393565 C17.6093137,13.8121638 17.6093137,15.3850244 18.5776718,16.3571142 C18.2894705,16.6662581 18.0350388,17.0042735 17.8159999,17.3653566 C16.8912978,17.1633767 16.0629299,16.6514214 15.4683566,15.9135745 C14.8746686,15.1757276 14.5494092,14.2565055 14.5485871,13.3083908 C14.5485871,12.8516606 14.1788707,12.4823256 13.7235076,12.4823256 C13.2673223,12.4823256 12.8976059,12.8516606 12.8976059,13.3083908 C12.9000762,14.5606687 13.3060246,15.7782924 14.0553438,16.7799289 C14.8038409,17.7824097 15.8561804,18.5161411 17.0549815,18.8722856 C16.8326542,19.4815195 16.6852651,20.1146653 16.6152806,20.7593554 L16.6152806,20.7593554 L16.2002652,20.7593554 L15.9302773,20.7659432 C14.4945513,20.8345154 13.1317838,21.4357499 12.1112299,22.4576422 C11.025964,23.5442047 10.4166138,25.015762 10.4149696,26.5515625 C10.4149696,27.0082927 10.784686,27.3784508 11.2400491,27.3784508 C11.6962344,27.3784508 12.0659508,27.0082927 12.0659508,26.5515625 C12.0675975,25.4542787 12.5040075,24.4022438 13.2788542,23.6266403 C14.0537009,22.8508679 15.1043962,22.4147571 16.2002863,22.4131109 L16.2002863,22.4131109 L16.6153016,22.4131109 L16.6665636,22.7985263 C16.7472434,23.3103992 16.8771407,23.8136166 17.0550026,24.3010038 C15.8569182,24.6571483 14.8053797,25.3908797 14.0559973,26.3933605 C13.3075002,27.3958412 12.9007257,28.6127473 12.8974373,29.8640544 C12.8974373,30.3207846 13.2671537,30.6910271 13.7233389,30.6910271 C14.1787021,30.6910271 14.5484185,30.3207846 14.5484185,29.8640544 C14.5500652,28.9184512 14.8736779,28.0017195 15.4673658,27.2656243 C16.0602317,26.5302466 16.8869554,26.0199522 17.80995,25.8187807 C18.1113262,26.3002247 18.4686899,26.7429414 18.8754644,27.1378343 C19.2657756,27.5220061 19.7927675,27.7330547 20.339511,27.7239796 C20.8829661,27.7322238 21.4058474,27.5211745 21.7920271,27.1378343 C22.1913815,26.7380028 22.547101,26.2961093 22.8517655,25.8187807 C23.7772897,26.0166388 24.6073019,26.5253081 25.2025708,27.2614877 C25.7987251,27.9976885 26.1239845,28.9169105 26.1248066,29.8641388 C26.1248066,30.320869 26.494523,30.6910271 26.9507083,30.6910271 C27.4060714,30.6910271 27.7757878,30.320869 27.7757878,29.8641388 C27.7757878,28.6110378 27.3698354,27.3917047 26.6196941,26.3883797 C25.8687307,25.3850759 24.8139249,24.6529906 23.6124677,24.3009827 C23.8347951,23.6917487 23.9821842,23.0577799 24.0521687,22.4130898 L24.0521687,22.4130898 L24.467184,22.4130898 L24.7012598,22.4200585 C25.7118612,22.4787729 26.6692723,22.9062591 27.3886162,23.6266191 C28.1634628,24.4023915 28.5998753,25.454342 28.6015195,26.5515414 C28.6015195,27.0082716 28.971236,27.3784297 29.4274212,27.3784297 C29.8827843,27.3784297 30.2525007,27.0082716 30.2525007,26.5515414 C30.2508538,25.0156776 29.6415275,23.5440992 28.5562404,22.4576211 C27.4717965,21.3718817 26.001173,20.7609805 24.4672051,20.7593343 L24.4672051,20.7593343 L24.0460767,20.7595031 L23.9977909,20.3740943 C23.9204548,19.8622478 23.7914738,19.359162 23.6129526,18.8724334 C24.8143254,18.5195812 25.8691102,17.787517 26.620179,16.7842132 C27.3703203,15.7817324 27.7762726,14.5616606 27.7762726,13.3084542 C27.7762726,12.8517239 27.4065562,12.4823889 26.9511931,12.4823889 C26.4950078,12.4823889 26.1252914,12.8517239 26.1252914,13.3084542 C26.1228213,14.2565266 25.7967436,15.1749256 25.2014115,15.9111052 C24.6060793,16.6481291 23.7768892,17.1592676 22.8520817,17.3595949 C22.6281102,17.0018043 22.3728564,16.664612 22.0904098,16.3513526 C23.0587679,15.3785452 23.0587679,13.8063178 22.0904098,12.8335949 C22.0121853,12.7519782 21.9257249,12.6769567 21.8326687,12.6110019 L21.8326687,12.6110019 L22.5704573,11.8723319 L22.6446191,11.7873902 C22.8918251,11.4623365 22.8671045,10.997022 22.5704573,10.7000204 Z M37.541987,17.6607866 C35.7029962,17.6607866 34.2098526,19.1612013 34.2098526,21.0023891 C34.2098526,22.8435769 35.7002558,24.3385043 37.541987,24.3385043 C39.3837181,24.3385043 40.8741165,22.8435769 40.8768618,21.0023891 C40.8768618,19.1584576 39.3837181,17.6607866 37.541987,17.6607866 Z M50.5219371,17.6607866 C48.6829463,17.6607866 47.1898027,19.1612013 47.1898027,21.0023891 C47.1898027,22.8435769 48.6829463,24.3385043 50.5219371,24.3385043 C52.3664087,24.3385043 53.8540716,22.8435769 53.8540716,21.0023891 C53.8540716,19.1584576 52.3664087,17.6607866 50.5219371,17.6607866 Z M44.0338241,11.1647423 C42.1920929,11.1647423 40.7016897,12.6569261 40.7016897,14.5008575 C40.7016897,16.344789 42.1920929,17.8397164 44.0338241,17.8397164 C45.8728149,17.8397164 47.3659585,16.344789 47.3659585,14.5008575 C47.3659585,12.6596697 45.8728149,11.1647423 44.0338241,11.1647423 Z M20.3810843,13.7718957 C20.5852937,13.7760177 20.7796167,13.8625812 20.9196068,14.0126177 C21.2432219,14.3357753 21.2432219,14.8609275 20.9196068,15.1849293 C20.5959916,15.5089311 20.0723093,15.5089311 19.7486941,15.1849293 C19.5930671,15.0299415 19.5049709,14.8188866 19.5049709,14.5987841 C19.5049709,14.3786815 19.5930776,14.1676118 19.7486941,14.0126388 C19.8936169,13.862596 20.0912388,13.7760323 20.2987471,13.7719168 L20.2987471,13.7719168 Z" id="Combined-Shape" fill="#FFFFFF" fill-rule="nonzero"></path>
            <g id="MD_DEVELOPER-INFO" transform="translate(376.000000, 1.000000)">
                <g id="PROCESSOR---ICON">
                    <g id="Group-51" transform="translate(0.000000, 12.000000)" fill="#FFFFFF">
                        <rect id="Rectangle" x="0" y="0" width="8" height="3" rx="1.5"></rect>
                        <rect id="Rectangle" x="0" y="5" width="8" height="3" rx="1.5"></rect>
                        <rect id="Rectangle" x="0" y="10" width="8" height="3" rx="1.5"></rect>
                    </g>
                    <g id="Group-52" transform="translate(15.000000, 0.000000)" fill="#FFFFFF">
                        <rect id="Rectangle" transform="translate(11.500000, 3.500000) rotate(-270.000000) translate(-11.500000, -3.500000) " x="8" y="2" width="7" height="3" rx="1.5"></rect>
                        <rect id="Rectangle" transform="translate(6.500000, 3.500000) rotate(-270.000000) translate(-6.500000, -3.500000) " x="3" y="2" width="7" height="3" rx="1.5"></rect>
                        <rect id="Rectangle" transform="translate(1.500000, 3.500000) rotate(-270.000000) translate(-1.500000, -3.500000) " x="-2" y="2" width="7" height="3" rx="1.5"></rect>
                        <rect id="Rectangle" transform="translate(26.500000, 3.500000) rotate(-270.000000) translate(-26.500000, -3.500000) " x="23" y="2" width="7" height="3" rx="1.5"></rect>
                        <rect id="Rectangle" transform="translate(21.500000, 3.500000) rotate(-270.000000) translate(-21.500000, -3.500000) " x="18" y="2" width="7" height="3" rx="1.5"></rect>
                        <rect id="Rectangle" transform="translate(16.500000, 3.500000) rotate(-270.000000) translate(-16.500000, -3.500000) " x="13" y="2" width="7" height="3" rx="1.5"></rect>
                        <rect id="Rectangle" transform="translate(41.500000, 3.500000) rotate(-270.000000) translate(-41.500000, -3.500000) " x="38" y="2" width="7" height="3" rx="1.5"></rect>
                        <rect id="Rectangle" transform="translate(31.500000, 3.500000) rotate(-270.000000) translate(-31.500000, -3.500000) " x="28" y="2" width="7" height="3" rx="1.5"></rect>
                        <rect id="Rectangle" transform="translate(36.500000, 3.500000) rotate(-270.000000) translate(-36.500000, -3.500000) " x="33" y="2" width="7" height="3" rx="1.5"></rect>
                    </g>
                    <g id="Group-52" transform="translate(15.000000, 30.000000)" fill="#FFFFFF">
                        <rect id="Rectangle" transform="translate(11.500000, 3.500000) rotate(-270.000000) translate(-11.500000, -3.500000) " x="8" y="2" width="7" height="3" rx="1.5"></rect>
                        <rect id="Rectangle" transform="translate(6.500000, 3.500000) rotate(-270.000000) translate(-6.500000, -3.500000) " x="3" y="2" width="7" height="3" rx="1.5"></rect>
                        <rect id="Rectangle" transform="translate(1.500000, 3.500000) rotate(-270.000000) translate(-1.500000, -3.500000) " x="-2" y="2" width="7" height="3" rx="1.5"></rect>
                        <rect id="Rectangle" transform="translate(26.500000, 3.500000) rotate(-270.000000) translate(-26.500000, -3.500000) " x="23" y="2" width="7" height="3" rx="1.5"></rect>
                        <rect id="Rectangle" transform="translate(21.500000, 3.500000) rotate(-270.000000) translate(-21.500000, -3.500000) " x="18" y="2" width="7" height="3" rx="1.5"></rect>
                        <rect id="Rectangle" transform="translate(16.500000, 3.500000) rotate(-270.000000) translate(-16.500000, -3.500000) " x="13" y="2" width="7" height="3" rx="1.5"></rect>
                        <rect id="Rectangle" transform="translate(41.500000, 3.500000) rotate(-270.000000) translate(-41.500000, -3.500000) " x="38" y="2" width="7" height="3" rx="1.5"></rect>
                        <rect id="Rectangle" transform="translate(31.500000, 3.500000) rotate(-270.000000) translate(-31.500000, -3.500000) " x="28" y="2" width="7" height="3" rx="1.5"></rect>
                        <rect id="Rectangle" transform="translate(36.500000, 3.500000) rotate(-270.000000) translate(-36.500000, -3.500000) " x="33" y="2" width="7" height="3" rx="1.5"></rect>
                    </g>
                    <g id="Group-51" transform="translate(66.000000, 12.000000)" fill="#FFFFFF">
                        <rect id="Rectangle" x="0" y="0" width="8" height="3" rx="1.5"></rect>
                        <rect id="Rectangle" x="0" y="5" width="8" height="3" rx="1.5"></rect>
                        <rect id="Rectangle" x="0" y="10" width="8" height="3" rx="1.5"></rect>
                    </g>
                    <rect id="Rectangle" stroke="#FFFFFF" stroke-width="3" x="6.5" y="6.5" width="60" height="24" rx="2.55555556"></rect>
                    <rect id="Rectangle" stroke="#FFFFFF" stroke-width="2" x="12" y="12" width="49" height="13"></rect>
                </g>
            </g>
            <g id="RELEASEDATE---INFO" transform="translate(576.000000, 0.000000)">
                <g id="RELEASEDATE---ICON">
                    <rect id="Rectangle" fill="#FFFFFF" transform="translate(10.500000, 5.000000) rotate(-270.000000) translate(-10.500000, -5.000000) " x="5.5" y="3.5" width="10" height="3" rx="1.5"></rect>
                    <rect id="Rectangle" fill="#FFFFFF" x="0" y="11" width="57" height="2"></rect>
                    <rect id="Rectangle" fill="#FFFFFF" transform="translate(46.500000, 5.000000) rotate(-270.000000) translate(-46.500000, -5.000000) " x="41.5" y="3.5" width="10" height="3" rx="1.5"></rect>
                    <rect id="Rectangle" stroke="#FFFFFF" stroke-width="3" x="1.5" y="4.5" width="54" height="32" rx="2.55555556"></rect>
                    <circle id="Oval" fill="#FFFFFF" cx="14.5" cy="16.5" r="1.5"></circle>
                    <circle id="Oval" fill="#FFFFFF" cx="21.5" cy="16.5" r="1.5"></circle>
                    <circle id="Oval" fill="#FFFFFF" cx="28.5" cy="16.5" r="1.5"></circle>
                    <circle id="Oval" fill="#FFFFFF" cx="35.5" cy="16.5" r="1.5"></circle>
                    <circle id="Oval" fill="#FFFFFF" cx="42.5" cy="16.5" r="1.5"></circle>
                    <circle id="Oval" fill="#FFFFFF" cx="49.5" cy="16.5" r="1.5"></circle>
                    <circle id="Oval" fill="#FFFFFF" cx="7.5" cy="21.5" r="1.5"></circle>
                    <circle id="Oval" fill="#FFFFFF" cx="14.5" cy="21.5" r="1.5"></circle>
                    <circle id="Oval" fill="#FFFFFF" cx="21.5" cy="21.5" r="1.5"></circle>
                    <circle id="Oval" fill="#FFFFFF" cx="28.5" cy="21.5" r="1.5"></circle>
                    <circle id="Oval" fill="#FFFFFF" cx="35.5" cy="21.5" r="1.5"></circle>
                    <circle id="Oval" fill="#FFFFFF" cx="42.5" cy="21.5" r="1.5"></circle>
                    <circle id="Oval" fill="#FFFFFF" cx="49.5" cy="21.5" r="1.5"></circle>
                    <circle id="Oval" fill="#FFFFFF" cx="7.5" cy="26.5" r="1.5"></circle>
                    <circle id="Oval" fill="#FFFFFF" cx="14.5" cy="26.5" r="1.5"></circle>
                    <circle id="Oval" fill="#FFFFFF" cx="21.5" cy="26.5" r="1.5"></circle>
                    <circle id="Oval" fill="#FFFFFF" cx="28.5" cy="26.5" r="1.5"></circle>
                    <circle id="Oval" fill="#FFFFFF" cx="35.5" cy="26.5" r="1.5"></circle>
                    <circle id="Oval" fill="#FFFFFF" cx="42.5" cy="26.5" r="1.5"></circle>
                    <circle id="Oval" fill="#FFFFFF" cx="49.5" cy="26.5" r="1.5"></circle>
                    <circle id="Oval" fill="#FFFFFF" cx="7.5" cy="31.5" r="1.5"></circle>
                    <circle id="Oval" fill="#FFFFFF" cx="14.5" cy="31.5" r="1.5"></circle>
                    <circle id="Oval" fill="#FFFFFF" cx="21.5" cy="31.5" r="1.5"></circle>
                    <circle id="Oval" fill="#FFFFFF" cx="28.5" cy="31.5" r="1.5"></circle>
                    <circle id="Oval" fill="#FFFFFF" cx="35.5" cy="31.5" r="1.5"></circle>
                    <circle id="Oval" fill="#FFFFFF" cx="42.5" cy="31.5" r="1.5"></circle>
                </g>
            </g>
        </g>
    </g>
</svg>