<svg width="723" height="85" viewBox="0 0 723 85" fill="none" xmlns="http://www.w3.org/2000/svg">
<g id="gamemeta">
<g id="GAME DETAILS">
<g id="ICON DIVIDERS" opacity="0.351446">
<rect id="Rectangle" x="170" width="1" height="73" fill="white"/>
<rect id="Rectangle_2" x="361" width="1" height="73" fill="white"/>
<rect id="Rectangle_3" x="552" width="1" height="73" fill="white"/>
</g>
<g id="MD_LBL_PLAYERS INFO">
<g id="PLAYERS - ICON">
<path id="Oval" d="M258.5 8C258.5 11.5899 255.59 14.5 252 14.5C248.41 14.5 245.5 11.5899 245.5 8C245.5 4.41015 248.41 1.5 252 1.5C255.59 1.5 258.5 4.41015 258.5 8Z" stroke="white" stroke-width="3"/>
<path id="Rectangle_4" d="M239.5 25C239.5 21.9624 241.962 19.5 245 19.5H259C262.038 19.5 264.5 21.9624 264.5 25V36.5H239.5V25Z" stroke="white" stroke-width="3"/>
<path id="Oval_2" d="M287.5 8C287.5 11.5899 284.59 14.5 281 14.5C277.41 14.5 274.5 11.5899 274.5 8C274.5 4.41015 277.41 1.5 281 1.5C284.59 1.5 287.5 4.41015 287.5 8Z" stroke="white" stroke-width="3"/>
<path id="Rectangle_5" d="M268.5 25C268.5 21.9624 270.962 19.5 274 19.5H288C291.038 19.5 293.5 21.9624 293.5 25V36.5H268.5V25Z" stroke="white" stroke-width="3"/>
</g>
</g>
<g id="Generic">
<path id="Union" d="M72.1468 33.3696H71.6831L71.3002 33.6313C68.6527 35.4414 65.4522 36.5 62 36.5C52.8873 36.5 45.5 29.1127 45.5 20C45.5 10.8873 52.8873 3.5 62 3.5C62.2463 3.5 62.4913 3.50539 62.7349 3.51604L62.802 3.51898L62.8691 3.51591C63.0997 3.50534 63.3318 3.5 63.5652 3.5H88.6087C88.8609 3.5 89.1116 3.50624 89.3605 3.51856L89.433 3.52215L89.5056 3.51872C89.7684 3.50629 90.0331 3.5 90.2992 3.5C99.4119 3.5 106.799 10.8873 106.799 20C106.799 29.1127 99.4119 36.5 90.2992 36.5C86.847 36.5 83.6465 35.4414 80.999 33.6313L80.6162 33.3696H80.1524H72.1468Z" stroke="white" stroke-width="3"/>
<g id="Group 77">
<path id="Subtract" d="M57.4315 15.2798C57.0299 16.6447 56.8 18.2295 56.8 19.9198C56.8 25.045 58.9131 29.1998 61.52 29.1998C64.127 29.1998 66.24 25.045 66.24 19.9198C66.24 18.2295 66.0102 16.6447 65.6086 15.2798H57.4315Z" fill="white"/>
<path id="Subtract_2" d="M58.6791 10.3201C58.3999 11.0888 58.2402 11.9814 58.2402 12.9334C58.2402 15.82 59.7086 18.1601 61.5202 18.1601C63.3318 18.1601 64.8002 15.82 64.8002 12.9334C64.8002 11.9814 64.6405 11.0888 64.3614 10.3201H58.6791Z" fill="white"/>
<path id="Line 26 (Stroke)" fill-rule="evenodd" clip-rule="evenodd" d="M57.5095 21.3611C58.7784 20.3815 60.4342 19.76 62.5454 19.76L62.5454 22C60.904 22 59.7354 22.4726 58.8784 23.1342C58.0056 23.8079 57.3922 24.7283 56.9643 25.7056C56.5364 26.6828 56.3125 27.6751 56.1972 28.4335C56.14 28.8098 56.1106 29.1215 56.0955 29.3353C56.088 29.442 56.0841 29.5239 56.0821 29.5767C56.0811 29.603 56.0806 29.6221 56.0803 29.6333C56.0802 29.639 56.0801 29.6426 56.0801 29.6442L56.0801 29.6438C56.0801 29.6434 56.0801 29.643 54.9602 29.6327C53.8402 29.6225 53.8402 29.622 53.8402 29.6215L53.8402 29.6202L53.8403 29.6171L53.8404 29.6085C53.8405 29.6017 53.8407 29.5928 53.8409 29.5819C53.8414 29.56 53.8423 29.5299 53.8437 29.4922C53.8465 29.4168 53.8517 29.3106 53.861 29.178C53.8797 28.9132 53.9151 28.541 53.9827 28.0968C54.1169 27.214 54.3821 26.0181 54.9124 24.8071C55.4426 23.5963 56.2564 22.3284 57.5095 21.3611Z" fill="white"/>
<path id="Line 27 (Stroke)" fill-rule="evenodd" clip-rule="evenodd" d="M65.4167 21.3611C64.1479 20.3815 62.4921 19.76 60.3809 19.76L60.3809 22C62.0223 22 63.1909 22.4726 64.0479 23.1342C64.9207 23.8079 65.534 24.7283 65.962 25.7056C66.3899 26.6828 66.6137 27.6751 66.7291 28.4335C66.7863 28.8098 66.8157 29.1215 66.8308 29.3353C66.8383 29.442 66.8422 29.5239 66.8442 29.5767C66.8452 29.603 66.8457 29.6221 66.8459 29.6333C66.8461 29.639 66.8461 29.6426 66.8462 29.6442L66.8462 29.6438C66.8461 29.6434 66.8461 29.643 67.9661 29.6327C69.0861 29.6225 69.086 29.622 69.086 29.6215L69.086 29.6202L69.086 29.6171L69.0859 29.6085C69.0858 29.6017 69.0856 29.5928 69.0853 29.5819C69.0848 29.56 69.084 29.5299 69.0826 29.4922C69.0797 29.4168 69.0746 29.3106 69.0652 29.178C69.0466 28.9132 69.0111 28.541 68.9436 28.0968C68.8094 27.214 68.5442 26.0181 68.0139 24.8071C67.4837 23.5963 66.6698 22.3284 65.4167 21.3611Z" fill="white"/>
<path id="Line 28 (Stroke)" fill-rule="evenodd" clip-rule="evenodd" d="M54.9137 17.0615C56.478 16.3911 58.5341 16.2757 61.1981 16.8904L60.6944 19.0731C58.3129 18.5235 56.7789 18.6992 55.7961 19.1204C54.8382 19.5309 54.2697 20.2321 53.9222 21.0427C53.5648 21.8767 53.4536 22.8071 53.4426 23.5651C53.4372 23.9374 53.4562 24.2523 53.4761 24.4708C53.486 24.5797 53.496 24.6636 53.5031 24.7177C53.5067 24.7446 53.5095 24.7641 53.5112 24.7753C53.5117 24.779 53.5121 24.7818 53.5124 24.7837C53.5126 24.7847 53.5127 24.7854 53.5128 24.7859L53.5127 24.7855L53.5126 24.7848C53.5125 24.7843 53.5124 24.7838 52.4077 24.9679C51.3029 25.152 51.3028 25.1514 51.3027 25.1508L51.3025 25.1494L51.3019 25.1459L51.3004 25.1363C51.2992 25.1288 51.2977 25.1191 51.2959 25.1072C51.2923 25.0833 51.2876 25.0507 51.2823 25.01C51.2716 24.9287 51.2581 24.8148 51.2453 24.6736C51.2196 24.3918 51.1961 23.9971 51.2029 23.5326C51.2161 22.6168 51.3475 21.364 51.8634 20.1604C52.3892 18.9334 53.3246 17.7425 54.9137 17.0615ZM53.5129 24.7865C53.5129 24.7868 53.5129 24.7867 53.5128 24.7859L53.5129 24.7865Z" fill="white"/>
<path id="Line 34 (Stroke)" fill-rule="evenodd" clip-rule="evenodd" d="M68.1131 17.0615C66.5488 16.3911 64.4928 16.2757 61.8287 16.8904L62.3324 19.0731C64.714 18.5235 66.248 18.6992 67.2307 19.1204C68.1886 19.5309 68.7572 20.2321 69.1046 21.0427C69.462 21.8767 69.5732 22.8071 69.5842 23.5651C69.5896 23.9374 69.5707 24.2523 69.5508 24.4708C69.5409 24.5797 69.5309 24.6636 69.5238 24.7177C69.5202 24.7446 69.5174 24.7641 69.5157 24.7753C69.5152 24.779 69.5147 24.7818 69.5144 24.7837C69.5143 24.7847 69.5142 24.7854 69.5141 24.7859L69.5141 24.7855L69.5143 24.7848C69.5144 24.7843 69.5144 24.7838 70.6192 24.9679C71.724 25.152 71.7241 25.1514 71.7242 25.1508L71.7244 25.1494L71.725 25.1459L71.7265 25.1363C71.7277 25.1288 71.7292 25.1191 71.731 25.1072C71.7346 25.0833 71.7392 25.0507 71.7446 25.01C71.7553 24.9287 71.7688 24.8148 71.7816 24.6736C71.8072 24.3918 71.8307 23.9971 71.824 23.5326C71.8107 22.6168 71.6794 21.364 71.1635 20.1604C70.6376 18.9334 69.7022 17.7425 68.1131 17.0615ZM69.514 24.7865C69.5139 24.7868 69.514 24.7867 69.5141 24.7859L69.514 24.7865Z" fill="white"/>
<path id="Line 31 (Stroke)" fill-rule="evenodd" clip-rule="evenodd" d="M54.951 12.3649C56.0345 13.8818 57.8837 15.5508 60.7139 15.5508L60.7139 13.3108C58.8866 13.3108 57.6309 12.263 56.7738 11.063C56.3477 10.4665 56.045 9.86288 55.8488 9.40494C55.7513 9.17757 55.6819 8.99031 55.6379 8.8635C55.6159 8.80019 55.6004 8.75228 55.591 8.72234C55.5863 8.70738 55.5831 8.69693 55.5815 8.69133L55.5802 8.68707L55.5805 8.68801L55.5807 8.68866C55.5808 8.68904 55.5809 8.68944 54.504 8.99712C53.4271 9.30481 53.4272 9.30525 53.4273 9.30571L53.4276 9.30673L53.4283 9.30916L53.4302 9.3155C53.4316 9.3204 53.4334 9.3266 53.4357 9.33409C53.4401 9.34905 53.4463 9.36912 53.4541 9.39395C53.4697 9.4436 53.4921 9.51243 53.5216 9.59771C53.5807 9.76804 53.669 10.0053 53.7899 10.2873C54.0302 10.8482 54.4067 11.6029 54.951 12.3649Z" fill="white"/>
<path id="Line 34 (Stroke)_2" fill-rule="evenodd" clip-rule="evenodd" d="M68.0031 12.3649C66.9196 13.8818 65.0704 15.5508 62.2402 15.5508L62.2402 13.3108C64.0675 13.3108 65.3232 12.263 66.1803 11.063C66.6064 10.4665 66.9091 9.86288 67.1053 9.40494C67.2028 9.17757 67.2722 8.99031 67.3162 8.8635C67.3382 8.80019 67.3537 8.75228 67.3631 8.72234C67.3678 8.70738 67.371 8.69693 67.3726 8.69133L67.3739 8.68707L67.3736 8.68801L67.3734 8.68866C67.3733 8.68904 67.3732 8.68944 68.4501 8.99712C69.527 9.30481 69.5269 9.30525 69.5268 9.30571L69.5265 9.30673L69.5258 9.30916L69.5239 9.3155C69.5225 9.3204 69.5207 9.3266 69.5184 9.33409C69.514 9.34905 69.5078 9.36912 69.5 9.39395C69.4844 9.4436 69.462 9.51243 69.4325 9.59771C69.3734 9.76804 69.2851 10.0053 69.1642 10.2873C68.9239 10.8482 68.5474 11.6029 68.0031 12.3649Z" fill="white"/>
</g>
<g id="Group 76">
<path id="Path" d="M90.2994 9.19995C92.3213 9.19995 93.9629 10.8416 93.9629 12.8634C93.9629 14.8882 92.3213 16.5298 90.2994 16.5298C88.2746 16.5298 86.636 14.8882 86.636 12.8634C86.636 10.8385 88.2746 9.19995 90.2994 9.19995V9.19995Z" fill="white"/>
<path id="Path_2" d="M83.1622 23.6661C81.1374 23.6661 79.4988 22.0245 79.4988 20.0027C79.4988 17.9809 81.1404 16.3333 83.1622 16.3333C85.1871 16.3333 86.8287 17.9779 86.8287 20.0027C86.8256 22.0245 85.1871 23.6661 83.1622 23.6661Z" fill="white"/>
<path id="Path_3" d="M90.2989 30.8C88.2741 30.8 86.6355 29.1584 86.6355 27.1366C86.6355 25.1147 88.2741 23.4731 90.2989 23.4731C92.3208 23.4731 93.9624 25.1147 93.9624 27.1366C93.9624 29.1584 92.3208 30.8 90.2989 30.8V30.8Z" fill="white"/>
<path id="Path_4" d="M97.4325 23.6661C95.4106 23.6661 93.769 22.0245 93.769 20.0027C93.769 17.9809 95.4106 16.3333 97.4325 16.3333C99.4603 16.3333 101.096 17.9779 101.096 20.0027C101.096 22.0245 99.4603 23.6661 97.4325 23.6661Z" fill="white"/>
</g>
</g>
<g id="MD_DEVELOPER INFO">
<g id="PROCESSOR - ICON">
<g id="Group 51">
<rect id="Rectangle_6" x="420" y="13" width="8" height="3" rx="1.5" fill="white"/>
<rect id="Rectangle_7" x="420" y="18" width="8" height="3" rx="1.5" fill="white"/>
<rect id="Rectangle_8" x="420" y="23" width="8" height="3" rx="1.5" fill="white"/>
</g>
<g id="Group 52">
<rect id="Rectangle_9" x="448" y="1" width="7" height="3" rx="1.5" transform="rotate(90 448 1)" fill="white"/>
<rect id="Rectangle_10" x="443" y="1" width="7" height="3" rx="1.5" transform="rotate(90 443 1)" fill="white"/>
<rect id="Rectangle_11" x="438" y="1" width="7" height="3" rx="1.5" transform="rotate(90 438 1)" fill="white"/>
<rect id="Rectangle_12" x="463" y="1" width="7" height="3" rx="1.5" transform="rotate(90 463 1)" fill="white"/>
<rect id="Rectangle_13" x="458" y="1" width="7" height="3" rx="1.5" transform="rotate(90 458 1)" fill="white"/>
<rect id="Rectangle_14" x="453" y="1" width="7" height="3" rx="1.5" transform="rotate(90 453 1)" fill="white"/>
<rect id="Rectangle_15" x="478" y="1" width="7" height="3" rx="1.5" transform="rotate(90 478 1)" fill="white"/>
<rect id="Rectangle_16" x="468" y="1" width="7" height="3" rx="1.5" transform="rotate(90 468 1)" fill="white"/>
<rect id="Rectangle_17" x="473" y="1" width="7" height="3" rx="1.5" transform="rotate(90 473 1)" fill="white"/>
</g>
<g id="Group 52_2">
<rect id="Rectangle_18" x="448" y="31" width="7" height="3" rx="1.5" transform="rotate(90 448 31)" fill="white"/>
<rect id="Rectangle_19" x="443" y="31" width="7" height="3" rx="1.5" transform="rotate(90 443 31)" fill="white"/>
<rect id="Rectangle_20" x="438" y="31" width="7" height="3" rx="1.5" transform="rotate(90 438 31)" fill="white"/>
<rect id="Rectangle_21" x="463" y="31" width="7" height="3" rx="1.5" transform="rotate(90 463 31)" fill="white"/>
<rect id="Rectangle_22" x="458" y="31" width="7" height="3" rx="1.5" transform="rotate(90 458 31)" fill="white"/>
<rect id="Rectangle_23" x="453" y="31" width="7" height="3" rx="1.5" transform="rotate(90 453 31)" fill="white"/>
<rect id="Rectangle_24" x="478" y="31" width="7" height="3" rx="1.5" transform="rotate(90 478 31)" fill="white"/>
<rect id="Rectangle_25" x="468" y="31" width="7" height="3" rx="1.5" transform="rotate(90 468 31)" fill="white"/>
<rect id="Rectangle_26" x="473" y="31" width="7" height="3" rx="1.5" transform="rotate(90 473 31)" fill="white"/>
</g>
<g id="Group 51_2">
<rect id="Rectangle_27" x="486" y="13" width="8" height="3" rx="1.5" fill="white"/>
<rect id="Rectangle_28" x="486" y="18" width="8" height="3" rx="1.5" fill="white"/>
<rect id="Rectangle_29" x="486" y="23" width="8" height="3" rx="1.5" fill="white"/>
</g>
<g id="Rectangle_30">
<mask id="path-46-inside-1" fill="white">
<rect x="425" y="6" width="63" height="27" rx="2.55556"/>
</mask>
<rect x="425" y="6" width="63" height="27" rx="2.55556" stroke="white" stroke-width="6" mask="url(#path-46-inside-1)"/>
</g>
<rect id="Rectangle_31" x="432" y="13" width="49" height="13" stroke="white" stroke-width="2"/>
</g>
</g>
<g id="RELEASEDATE - INFO">
<g id="RELEASEDATE - ICON">
<rect id="Rectangle_32" x="632" width="10" height="3" rx="1.5" transform="rotate(90 632 0)" fill="white"/>
<rect id="Rectangle_33" x="620" y="11" width="57" height="2" fill="white"/>
<rect id="Rectangle_34" x="668" width="10" height="3" rx="1.5" transform="rotate(90 668 0)" fill="white"/>
<g id="Rectangle_35">
<mask id="path-51-inside-2" fill="white">
<rect x="620" y="3" width="57" height="35" rx="2.55556"/>
</mask>
<rect x="620" y="3" width="57" height="35" rx="2.55556" stroke="white" stroke-width="6" mask="url(#path-51-inside-2)"/>
</g>
<path id="Oval_3" fill-rule="evenodd" clip-rule="evenodd" d="M634.5 18C635.328 18 636 17.3284 636 16.5C636 15.6716 635.328 15 634.5 15C633.672 15 633 15.6716 633 16.5C633 17.3284 633.672 18 634.5 18Z" fill="white"/>
<path id="Oval_4" fill-rule="evenodd" clip-rule="evenodd" d="M641.5 18C642.328 18 643 17.3284 643 16.5C643 15.6716 642.328 15 641.5 15C640.672 15 640 15.6716 640 16.5C640 17.3284 640.672 18 641.5 18Z" fill="white"/>
<path id="Oval_5" fill-rule="evenodd" clip-rule="evenodd" d="M648.5 18C649.328 18 650 17.3284 650 16.5C650 15.6716 649.328 15 648.5 15C647.672 15 647 15.6716 647 16.5C647 17.3284 647.672 18 648.5 18Z" fill="white"/>
<path id="Oval_6" fill-rule="evenodd" clip-rule="evenodd" d="M655.5 18C656.328 18 657 17.3284 657 16.5C657 15.6716 656.328 15 655.5 15C654.672 15 654 15.6716 654 16.5C654 17.3284 654.672 18 655.5 18Z" fill="white"/>
<path id="Oval_7" fill-rule="evenodd" clip-rule="evenodd" d="M662.5 18C663.328 18 664 17.3284 664 16.5C664 15.6716 663.328 15 662.5 15C661.672 15 661 15.6716 661 16.5C661 17.3284 661.672 18 662.5 18Z" fill="white"/>
<path id="Oval_8" fill-rule="evenodd" clip-rule="evenodd" d="M669.5 18C670.328 18 671 17.3284 671 16.5C671 15.6716 670.328 15 669.5 15C668.672 15 668 15.6716 668 16.5C668 17.3284 668.672 18 669.5 18Z" fill="white"/>
<path id="Oval_9" fill-rule="evenodd" clip-rule="evenodd" d="M627.5 23C628.328 23 629 22.3284 629 21.5C629 20.6716 628.328 20 627.5 20C626.672 20 626 20.6716 626 21.5C626 22.3284 626.672 23 627.5 23Z" fill="white"/>
<path id="Oval_10" fill-rule="evenodd" clip-rule="evenodd" d="M634.5 23C635.328 23 636 22.3284 636 21.5C636 20.6716 635.328 20 634.5 20C633.672 20 633 20.6716 633 21.5C633 22.3284 633.672 23 634.5 23Z" fill="white"/>
<path id="Oval_11" fill-rule="evenodd" clip-rule="evenodd" d="M641.5 23C642.328 23 643 22.3284 643 21.5C643 20.6716 642.328 20 641.5 20C640.672 20 640 20.6716 640 21.5C640 22.3284 640.672 23 641.5 23Z" fill="white"/>
<path id="Oval_12" fill-rule="evenodd" clip-rule="evenodd" d="M648.5 23C649.328 23 650 22.3284 650 21.5C650 20.6716 649.328 20 648.5 20C647.672 20 647 20.6716 647 21.5C647 22.3284 647.672 23 648.5 23Z" fill="white"/>
<path id="Oval_13" fill-rule="evenodd" clip-rule="evenodd" d="M655.5 23C656.328 23 657 22.3284 657 21.5C657 20.6716 656.328 20 655.5 20C654.672 20 654 20.6716 654 21.5C654 22.3284 654.672 23 655.5 23Z" fill="white"/>
<path id="Oval_14" fill-rule="evenodd" clip-rule="evenodd" d="M662.5 23C663.328 23 664 22.3284 664 21.5C664 20.6716 663.328 20 662.5 20C661.672 20 661 20.6716 661 21.5C661 22.3284 661.672 23 662.5 23Z" fill="white"/>
<path id="Oval_15" fill-rule="evenodd" clip-rule="evenodd" d="M669.5 23C670.328 23 671 22.3284 671 21.5C671 20.6716 670.328 20 669.5 20C668.672 20 668 20.6716 668 21.5C668 22.3284 668.672 23 669.5 23Z" fill="white"/>
<path id="Oval_16" fill-rule="evenodd" clip-rule="evenodd" d="M627.5 28C628.328 28 629 27.3284 629 26.5C629 25.6716 628.328 25 627.5 25C626.672 25 626 25.6716 626 26.5C626 27.3284 626.672 28 627.5 28Z" fill="white"/>
<path id="Oval_17" fill-rule="evenodd" clip-rule="evenodd" d="M634.5 28C635.328 28 636 27.3284 636 26.5C636 25.6716 635.328 25 634.5 25C633.672 25 633 25.6716 633 26.5C633 27.3284 633.672 28 634.5 28Z" fill="white"/>
<path id="Oval_18" fill-rule="evenodd" clip-rule="evenodd" d="M641.5 28C642.328 28 643 27.3284 643 26.5C643 25.6716 642.328 25 641.5 25C640.672 25 640 25.6716 640 26.5C640 27.3284 640.672 28 641.5 28Z" fill="white"/>
<path id="Oval_19" fill-rule="evenodd" clip-rule="evenodd" d="M648.5 28C649.328 28 650 27.3284 650 26.5C650 25.6716 649.328 25 648.5 25C647.672 25 647 25.6716 647 26.5C647 27.3284 647.672 28 648.5 28Z" fill="white"/>
<path id="Oval_20" fill-rule="evenodd" clip-rule="evenodd" d="M655.5 28C656.328 28 657 27.3284 657 26.5C657 25.6716 656.328 25 655.5 25C654.672 25 654 25.6716 654 26.5C654 27.3284 654.672 28 655.5 28Z" fill="white"/>
<path id="Oval_21" fill-rule="evenodd" clip-rule="evenodd" d="M662.5 28C663.328 28 664 27.3284 664 26.5C664 25.6716 663.328 25 662.5 25C661.672 25 661 25.6716 661 26.5C661 27.3284 661.672 28 662.5 28Z" fill="white"/>
<path id="Oval_22" fill-rule="evenodd" clip-rule="evenodd" d="M669.5 28C670.328 28 671 27.3284 671 26.5C671 25.6716 670.328 25 669.5 25C668.672 25 668 25.6716 668 26.5C668 27.3284 668.672 28 669.5 28Z" fill="white"/>
<path id="Oval_23" fill-rule="evenodd" clip-rule="evenodd" d="M627.5 33C628.328 33 629 32.3284 629 31.5C629 30.6716 628.328 30 627.5 30C626.672 30 626 30.6716 626 31.5C626 32.3284 626.672 33 627.5 33Z" fill="white"/>
<path id="Oval_24" fill-rule="evenodd" clip-rule="evenodd" d="M634.5 33C635.328 33 636 32.3284 636 31.5C636 30.6716 635.328 30 634.5 30C633.672 30 633 30.6716 633 31.5C633 32.3284 633.672 33 634.5 33Z" fill="white"/>
<path id="Oval_25" fill-rule="evenodd" clip-rule="evenodd" d="M641.5 33C642.328 33 643 32.3284 643 31.5C643 30.6716 642.328 30 641.5 30C640.672 30 640 30.6716 640 31.5C640 32.3284 640.672 33 641.5 33Z" fill="white"/>
<path id="Oval_26" fill-rule="evenodd" clip-rule="evenodd" d="M648.5 33C649.328 33 650 32.3284 650 31.5C650 30.6716 649.328 30 648.5 30C647.672 30 647 30.6716 647 31.5C647 32.3284 647.672 33 648.5 33Z" fill="white"/>
<path id="Oval_27" fill-rule="evenodd" clip-rule="evenodd" d="M655.5 33C656.328 33 657 32.3284 657 31.5C657 30.6716 656.328 30 655.5 30C654.672 30 654 30.6716 654 31.5C654 32.3284 654.672 33 655.5 33Z" fill="white"/>
<path id="Oval_28" fill-rule="evenodd" clip-rule="evenodd" d="M662.5 33C663.328 33 664 32.3284 664 31.5C664 30.6716 663.328 30 662.5 30C661.672 30 661 30.6716 661 31.5C661 32.3284 661.672 33 662.5 33Z" fill="white"/>
</g>
</g>
</g>
</g>
</svg>
