<svg width="723" height="85" viewBox="0 0 723 85" fill="none" xmlns="http://www.w3.org/2000/svg">
<g id="gamemetaNoBar">
<g id="MD_LBL_PLAYERS INFO">
<g id="PLAYERS - ICON">
<path id="Oval (Stroke)" fill-rule="evenodd" clip-rule="evenodd" d="M367 13C369.761 13 372 10.7614 372 8C372 5.23858 369.761 3 367 3C364.239 3 362 5.23858 362 8C362 10.7614 364.239 13 367 13ZM375 8C375 12.4183 371.418 16 367 16C362.582 16 359 12.4183 359 8C359 3.58172 362.582 0 367 0C371.418 0 375 3.58172 375 8Z" fill="white"/>
<path id="Rectangle (Stroke)" fill-rule="evenodd" clip-rule="evenodd" d="M374 21H360C357.791 21 356 22.7909 356 25V35H378V25C378 22.7909 376.209 21 374 21ZM360 18C356.134 18 353 21.134 353 25V38H381V25C381 21.134 377.866 18 374 18H360Z" fill="white"/>
<path id="Oval (Stroke)_2" fill-rule="evenodd" clip-rule="evenodd" d="M396 13C398.761 13 401 10.7614 401 8C401 5.23858 398.761 3 396 3C393.239 3 391 5.23858 391 8C391 10.7614 393.239 13 396 13ZM404 8C404 12.4183 400.418 16 396 16C391.582 16 388 12.4183 388 8C388 3.58172 391.582 0 396 0C400.418 0 404 3.58172 404 8Z" fill="white"/>
<path id="Rectangle (Stroke)_2" fill-rule="evenodd" clip-rule="evenodd" d="M403 21H389C386.791 21 385 22.7909 385 25V35H407V25C407 22.7909 405.209 21 403 21ZM389 18C385.134 18 382 21.134 382 25V38H410V25C410 21.134 406.866 18 403 18H389Z" fill="white"/>
</g>
</g>
<g id="MD_DEVELOPER INFO">
<g id="PROCESSOR - ICON">
<g id="Group 51">
<path id="Rectangle" d="M501 14.5C501 13.6716 501.672 13 502.5 13H507.5C508.328 13 509 13.6716 509 14.5V14.5C509 15.3284 508.328 16 507.5 16H502.5C501.672 16 501 15.3284 501 14.5V14.5Z" fill="white"/>
<path id="Rectangle_2" d="M501 19.5C501 18.6716 501.672 18 502.5 18H507.5C508.328 18 509 18.6716 509 19.5V19.5C509 20.3284 508.328 21 507.5 21H502.5C501.672 21 501 20.3284 501 19.5V19.5Z" fill="white"/>
<path id="Rectangle_3" d="M501 24.5C501 23.6716 501.672 23 502.5 23H507.5C508.328 23 509 23.6716 509 24.5V24.5C509 25.3284 508.328 26 507.5 26H502.5C501.672 26 501 25.3284 501 24.5V24.5Z" fill="white"/>
</g>
<g id="Group 52">
<path id="Rectangle_4" d="M527.5 1C528.328 1 529 1.67157 529 2.5V6.5C529 7.32843 528.328 8 527.5 8V8C526.672 8 526 7.32843 526 6.5V2.5C526 1.67157 526.672 1 527.5 1V1Z" fill="white"/>
<path id="Rectangle_5" d="M522.5 1C523.328 1 524 1.67157 524 2.5V6.5C524 7.32843 523.328 8 522.5 8V8C521.672 8 521 7.32843 521 6.5V2.5C521 1.67157 521.672 1 522.5 1V1Z" fill="white"/>
<path id="Rectangle_6" d="M517.5 1C518.328 1 519 1.67157 519 2.5V6.5C519 7.32843 518.328 8 517.5 8V8C516.672 8 516 7.32843 516 6.5V2.5C516 1.67157 516.672 1 517.5 1V1Z" fill="white"/>
<path id="Rectangle_7" d="M542.5 1C543.328 1 544 1.67157 544 2.5V6.5C544 7.32843 543.328 8 542.5 8V8C541.672 8 541 7.32843 541 6.5V2.5C541 1.67157 541.672 1 542.5 1V1Z" fill="white"/>
<path id="Rectangle_8" d="M537.5 1C538.328 1 539 1.67157 539 2.5V6.5C539 7.32843 538.328 8 537.5 8V8C536.672 8 536 7.32843 536 6.5V2.5C536 1.67157 536.672 1 537.5 1V1Z" fill="white"/>
<path id="Rectangle_9" d="M532.5 1C533.328 1 534 1.67157 534 2.5V6.5C534 7.32843 533.328 8 532.5 8V8C531.672 8 531 7.32843 531 6.5V2.5C531 1.67157 531.672 1 532.5 1V1Z" fill="white"/>
<path id="Rectangle_10" d="M557.5 1C558.328 1 559 1.67157 559 2.5V6.5C559 7.32843 558.328 8 557.5 8V8C556.672 8 556 7.32843 556 6.5V2.5C556 1.67157 556.672 1 557.5 1V1Z" fill="white"/>
<path id="Rectangle_11" d="M547.5 1C548.328 1 549 1.67157 549 2.5V6.5C549 7.32843 548.328 8 547.5 8V8C546.672 8 546 7.32843 546 6.5V2.5C546 1.67157 546.672 1 547.5 1V1Z" fill="white"/>
<path id="Rectangle_12" d="M552.5 1C553.328 1 554 1.67157 554 2.5V6.5C554 7.32843 553.328 8 552.5 8V8C551.672 8 551 7.32843 551 6.5V2.5C551 1.67157 551.672 1 552.5 1V1Z" fill="white"/>
</g>
<g id="Group 52_2">
<path id="Rectangle_13" d="M527.5 31C528.328 31 529 31.6716 529 32.5V36.5C529 37.3284 528.328 38 527.5 38V38C526.672 38 526 37.3284 526 36.5V32.5C526 31.6716 526.672 31 527.5 31V31Z" fill="white"/>
<path id="Rectangle_14" d="M522.5 31C523.328 31 524 31.6716 524 32.5V36.5C524 37.3284 523.328 38 522.5 38V38C521.672 38 521 37.3284 521 36.5V32.5C521 31.6716 521.672 31 522.5 31V31Z" fill="white"/>
<path id="Rectangle_15" d="M517.5 31C518.328 31 519 31.6716 519 32.5V36.5C519 37.3284 518.328 38 517.5 38V38C516.672 38 516 37.3284 516 36.5V32.5C516 31.6716 516.672 31 517.5 31V31Z" fill="white"/>
<path id="Rectangle_16" d="M542.5 31C543.328 31 544 31.6716 544 32.5V36.5C544 37.3284 543.328 38 542.5 38V38C541.672 38 541 37.3284 541 36.5V32.5C541 31.6716 541.672 31 542.5 31V31Z" fill="white"/>
<path id="Rectangle_17" d="M537.5 31C538.328 31 539 31.6716 539 32.5V36.5C539 37.3284 538.328 38 537.5 38V38C536.672 38 536 37.3284 536 36.5V32.5C536 31.6716 536.672 31 537.5 31V31Z" fill="white"/>
<path id="Rectangle_18" d="M532.5 31C533.328 31 534 31.6716 534 32.5V36.5C534 37.3284 533.328 38 532.5 38V38C531.672 38 531 37.3284 531 36.5V32.5C531 31.6716 531.672 31 532.5 31V31Z" fill="white"/>
<path id="Rectangle_19" d="M557.5 31C558.328 31 559 31.6716 559 32.5V36.5C559 37.3284 558.328 38 557.5 38V38C556.672 38 556 37.3284 556 36.5V32.5C556 31.6716 556.672 31 557.5 31V31Z" fill="white"/>
<path id="Rectangle_20" d="M547.5 31C548.328 31 549 31.6716 549 32.5V36.5C549 37.3284 548.328 38 547.5 38V38C546.672 38 546 37.3284 546 36.5V32.5C546 31.6716 546.672 31 547.5 31V31Z" fill="white"/>
<path id="Rectangle_21" d="M552.5 31C553.328 31 554 31.6716 554 32.5V36.5C554 37.3284 553.328 38 552.5 38V38C551.672 38 551 37.3284 551 36.5V32.5C551 31.6716 551.672 31 552.5 31V31Z" fill="white"/>
</g>
<g id="Group 51_2">
<path id="Rectangle_22" d="M567 14.5C567 13.6716 567.672 13 568.5 13H573.5C574.328 13 575 13.6716 575 14.5V14.5C575 15.3284 574.328 16 573.5 16H568.5C567.672 16 567 15.3284 567 14.5V14.5Z" fill="white"/>
<path id="Rectangle_23" d="M567 19.5C567 18.6716 567.672 18 568.5 18H573.5C574.328 18 575 18.6716 575 19.5V19.5C575 20.3284 574.328 21 573.5 21H568.5C567.672 21 567 20.3284 567 19.5V19.5Z" fill="white"/>
<path id="Rectangle_24" d="M567 24.5C567 23.6716 567.672 23 568.5 23H573.5C574.328 23 575 23.6716 575 24.5V24.5C575 25.3284 574.328 26 573.5 26H568.5C567.672 26 567 25.3284 567 24.5V24.5Z" fill="white"/>
</g>
<path id="Rectangle (Stroke)_3" fill-rule="evenodd" clip-rule="evenodd" d="M509 9V30H566V9H509ZM508.556 6C507.144 6 506 7.14416 506 8.55556V30.4444C506 31.8558 507.144 33 508.556 33H566.444C567.856 33 569 31.8558 569 30.4444V8.55556C569 7.14416 567.856 6 566.444 6H508.556Z" fill="white"/>
<path id="Rectangle (Stroke)_4" fill-rule="evenodd" clip-rule="evenodd" d="M561 14H514V25H561V14ZM512 12V27H563V12H512Z" fill="white"/>
</g>
</g>
<g id="RELEASEDATE - INFO">
<g id="RELEASEDATE - ICON">
<path id="Rectangle_25" d="M676.5 0C677.328 0 678 0.671573 678 1.5V8.5C678 9.32843 677.328 10 676.5 10V10C675.672 10 675 9.32843 675 8.5V1.5C675 0.671573 675.672 0 676.5 0V0Z" fill="white"/>
<path id="Rectangle_26" d="M666 11H723V13H666V11Z" fill="white"/>
<path id="Rectangle_27" d="M712.5 0C713.328 0 714 0.671573 714 1.5V8.5C714 9.32843 713.328 10 712.5 10V10C711.672 10 711 9.32843 711 8.5V1.5C711 0.671573 711.672 0 712.5 0V0Z" fill="white"/>
<path id="Rectangle (Stroke)_5" fill-rule="evenodd" clip-rule="evenodd" d="M669 6V35H720V6H669ZM668.556 3C667.144 3 666 4.14416 666 5.55556V35.4444C666 36.8558 667.144 38 668.556 38H720.444C721.856 38 723 36.8558 723 35.4444V5.55556C723 4.14416 721.856 3 720.444 3H668.556Z" fill="white"/>
<path id="Oval" fill-rule="evenodd" clip-rule="evenodd" d="M680.5 18C681.328 18 682 17.3284 682 16.5C682 15.6716 681.328 15 680.5 15C679.672 15 679 15.6716 679 16.5C679 17.3284 679.672 18 680.5 18Z" fill="white"/>
<path id="Oval_2" fill-rule="evenodd" clip-rule="evenodd" d="M687.5 18C688.328 18 689 17.3284 689 16.5C689 15.6716 688.328 15 687.5 15C686.672 15 686 15.6716 686 16.5C686 17.3284 686.672 18 687.5 18Z" fill="white"/>
<path id="Oval_3" fill-rule="evenodd" clip-rule="evenodd" d="M694.5 18C695.328 18 696 17.3284 696 16.5C696 15.6716 695.328 15 694.5 15C693.672 15 693 15.6716 693 16.5C693 17.3284 693.672 18 694.5 18Z" fill="white"/>
<path id="Oval_4" fill-rule="evenodd" clip-rule="evenodd" d="M701.5 18C702.328 18 703 17.3284 703 16.5C703 15.6716 702.328 15 701.5 15C700.672 15 700 15.6716 700 16.5C700 17.3284 700.672 18 701.5 18Z" fill="white"/>
<path id="Oval_5" fill-rule="evenodd" clip-rule="evenodd" d="M708.5 18C709.328 18 710 17.3284 710 16.5C710 15.6716 709.328 15 708.5 15C707.672 15 707 15.6716 707 16.5C707 17.3284 707.672 18 708.5 18Z" fill="white"/>
<path id="Oval_6" fill-rule="evenodd" clip-rule="evenodd" d="M715.5 18C716.328 18 717 17.3284 717 16.5C717 15.6716 716.328 15 715.5 15C714.672 15 714 15.6716 714 16.5C714 17.3284 714.672 18 715.5 18Z" fill="white"/>
<path id="Oval_7" fill-rule="evenodd" clip-rule="evenodd" d="M673.5 23C674.328 23 675 22.3284 675 21.5C675 20.6716 674.328 20 673.5 20C672.672 20 672 20.6716 672 21.5C672 22.3284 672.672 23 673.5 23Z" fill="white"/>
<path id="Oval_8" fill-rule="evenodd" clip-rule="evenodd" d="M680.5 23C681.328 23 682 22.3284 682 21.5C682 20.6716 681.328 20 680.5 20C679.672 20 679 20.6716 679 21.5C679 22.3284 679.672 23 680.5 23Z" fill="white"/>
<path id="Oval_9" fill-rule="evenodd" clip-rule="evenodd" d="M687.5 23C688.328 23 689 22.3284 689 21.5C689 20.6716 688.328 20 687.5 20C686.672 20 686 20.6716 686 21.5C686 22.3284 686.672 23 687.5 23Z" fill="white"/>
<path id="Oval_10" fill-rule="evenodd" clip-rule="evenodd" d="M694.5 23C695.328 23 696 22.3284 696 21.5C696 20.6716 695.328 20 694.5 20C693.672 20 693 20.6716 693 21.5C693 22.3284 693.672 23 694.5 23Z" fill="white"/>
<path id="Oval_11" fill-rule="evenodd" clip-rule="evenodd" d="M701.5 23C702.328 23 703 22.3284 703 21.5C703 20.6716 702.328 20 701.5 20C700.672 20 700 20.6716 700 21.5C700 22.3284 700.672 23 701.5 23Z" fill="white"/>
<path id="Oval_12" fill-rule="evenodd" clip-rule="evenodd" d="M708.5 23C709.328 23 710 22.3284 710 21.5C710 20.6716 709.328 20 708.5 20C707.672 20 707 20.6716 707 21.5C707 22.3284 707.672 23 708.5 23Z" fill="white"/>
<path id="Oval_13" fill-rule="evenodd" clip-rule="evenodd" d="M715.5 23C716.328 23 717 22.3284 717 21.5C717 20.6716 716.328 20 715.5 20C714.672 20 714 20.6716 714 21.5C714 22.3284 714.672 23 715.5 23Z" fill="white"/>
<path id="Oval_14" fill-rule="evenodd" clip-rule="evenodd" d="M673.5 28C674.328 28 675 27.3284 675 26.5C675 25.6716 674.328 25 673.5 25C672.672 25 672 25.6716 672 26.5C672 27.3284 672.672 28 673.5 28Z" fill="white"/>
<path id="Oval_15" fill-rule="evenodd" clip-rule="evenodd" d="M680.5 28C681.328 28 682 27.3284 682 26.5C682 25.6716 681.328 25 680.5 25C679.672 25 679 25.6716 679 26.5C679 27.3284 679.672 28 680.5 28Z" fill="white"/>
<path id="Oval_16" fill-rule="evenodd" clip-rule="evenodd" d="M687.5 28C688.328 28 689 27.3284 689 26.5C689 25.6716 688.328 25 687.5 25C686.672 25 686 25.6716 686 26.5C686 27.3284 686.672 28 687.5 28Z" fill="white"/>
<path id="Oval_17" fill-rule="evenodd" clip-rule="evenodd" d="M694.5 28C695.328 28 696 27.3284 696 26.5C696 25.6716 695.328 25 694.5 25C693.672 25 693 25.6716 693 26.5C693 27.3284 693.672 28 694.5 28Z" fill="white"/>
<path id="Oval_18" fill-rule="evenodd" clip-rule="evenodd" d="M701.5 28C702.328 28 703 27.3284 703 26.5C703 25.6716 702.328 25 701.5 25C700.672 25 700 25.6716 700 26.5C700 27.3284 700.672 28 701.5 28Z" fill="white"/>
<path id="Oval_19" fill-rule="evenodd" clip-rule="evenodd" d="M708.5 28C709.328 28 710 27.3284 710 26.5C710 25.6716 709.328 25 708.5 25C707.672 25 707 25.6716 707 26.5C707 27.3284 707.672 28 708.5 28Z" fill="white"/>
<path id="Oval_20" fill-rule="evenodd" clip-rule="evenodd" d="M715.5 28C716.328 28 717 27.3284 717 26.5C717 25.6716 716.328 25 715.5 25C714.672 25 714 25.6716 714 26.5C714 27.3284 714.672 28 715.5 28Z" fill="white"/>
<path id="Oval_21" fill-rule="evenodd" clip-rule="evenodd" d="M673.5 33C674.328 33 675 32.3284 675 31.5C675 30.6716 674.328 30 673.5 30C672.672 30 672 30.6716 672 31.5C672 32.3284 672.672 33 673.5 33Z" fill="white"/>
<path id="Oval_22" fill-rule="evenodd" clip-rule="evenodd" d="M680.5 33C681.328 33 682 32.3284 682 31.5C682 30.6716 681.328 30 680.5 30C679.672 30 679 30.6716 679 31.5C679 32.3284 679.672 33 680.5 33Z" fill="white"/>
<path id="Oval_23" fill-rule="evenodd" clip-rule="evenodd" d="M687.5 33C688.328 33 689 32.3284 689 31.5C689 30.6716 688.328 30 687.5 30C686.672 30 686 30.6716 686 31.5C686 32.3284 686.672 33 687.5 33Z" fill="white"/>
<path id="Oval_24" fill-rule="evenodd" clip-rule="evenodd" d="M694.5 33C695.328 33 696 32.3284 696 31.5C696 30.6716 695.328 30 694.5 30C693.672 30 693 30.6716 693 31.5C693 32.3284 693.672 33 694.5 33Z" fill="white"/>
<path id="Oval_25" fill-rule="evenodd" clip-rule="evenodd" d="M701.5 33C702.328 33 703 32.3284 703 31.5C703 30.6716 702.328 30 701.5 30C700.672 30 700 30.6716 700 31.5C700 32.3284 700.672 33 701.5 33Z" fill="white"/>
<path id="Oval_26" fill-rule="evenodd" clip-rule="evenodd" d="M708.5 33C709.328 33 710 32.3284 710 31.5C710 30.6716 709.328 30 708.5 30C707.672 30 707 30.6716 707 31.5C707 32.3284 707.672 33 708.5 33Z" fill="white"/>
</g>
</g>
<g id="Group 90">
<path id="Vector (Stroke)" fill-rule="evenodd" clip-rule="evenodd" d="M29.5 20.5C29.5 18.0147 31.5147 16 34 16C36.4853 16 38.5 18.0147 38.5 20.5C38.5 22.9853 36.4853 25 34 25C31.5147 25 29.5 22.9853 29.5 20.5ZM34 18C32.6193 18 31.5 19.1193 31.5 20.5C31.5 21.8807 32.6193 23 34 23C35.3807 23 36.5 21.8807 36.5 20.5C36.5 19.1193 35.3807 18 34 18Z" fill="white"/>
<path id="Vector (Stroke)_2" fill-rule="evenodd" clip-rule="evenodd" d="M29.5 30.5C29.5 28.0147 31.5147 26 34 26C36.4853 26 38.5 28.0147 38.5 30.5C38.5 32.9853 36.4853 35 34 35C31.5147 35 29.5 32.9853 29.5 30.5ZM34 28C32.6193 28 31.5 29.1193 31.5 30.5C31.5 31.8807 32.6193 33 34 33C35.3807 33 36.5 31.8807 36.5 30.5C36.5 29.1193 35.3807 28 34 28Z" fill="white"/>
<path id="Vector (Stroke)_3" fill-rule="evenodd" clip-rule="evenodd" d="M39.5 16.5C39.5 14.0147 41.5147 12 44 12C46.4853 12 48.5 14.0147 48.5 16.5C48.5 18.9853 46.4853 21 44 21C41.5147 21 39.5 18.9853 39.5 16.5ZM44 14C42.6193 14 41.5 15.1193 41.5 16.5C41.5 17.8807 42.6193 19 44 19C45.3807 19 46.5 17.8807 46.5 16.5C46.5 15.1193 45.3807 14 44 14Z" fill="white"/>
<path id="Vector (Stroke)_4" fill-rule="evenodd" clip-rule="evenodd" d="M39.5 26.5C39.5 24.0147 41.5147 22 44 22C46.4853 22 48.5 24.0147 48.5 26.5C48.5 28.9853 46.4853 31 44 31C41.5147 31 39.5 28.9853 39.5 26.5ZM44 24C42.6193 24 41.5 25.1193 41.5 26.5C41.5 27.8807 42.6193 29 44 29C45.3807 29 46.5 27.8807 46.5 26.5C46.5 25.1193 45.3807 24 44 24Z" fill="white"/>
<path id="Vector (Stroke)_5" fill-rule="evenodd" clip-rule="evenodd" d="M49.5 16.5C49.5 14.0147 51.5147 12 54 12C56.4853 12 58.5 14.0147 58.5 16.5C58.5 18.9853 56.4853 21 54 21C51.5147 21 49.5 18.9853 49.5 16.5ZM54 14C52.6193 14 51.5 15.1193 51.5 16.5C51.5 17.8807 52.6193 19 54 19C55.3807 19 56.5 17.8807 56.5 16.5C56.5 15.1193 55.3807 14 54 14Z" fill="white"/>
<path id="Vector (Stroke)_6" fill-rule="evenodd" clip-rule="evenodd" d="M49.5 26.5C49.5 24.0147 51.5147 22 54 22C56.4853 22 58.5 24.0147 58.5 26.5C58.5 28.9853 56.4853 31 54 31C51.5147 31 49.5 28.9853 49.5 26.5ZM54 24C52.6193 24 51.5 25.1193 51.5 26.5C51.5 27.8807 52.6193 29 54 29C55.3807 29 56.5 27.8807 56.5 26.5C56.5 25.1193 55.3807 24 54 24Z" fill="white"/>
<path id="Vector (Stroke)_7" fill-rule="evenodd" clip-rule="evenodd" d="M8.5 8C8.5 3.58173 12.0817 0 16.5 0C20.9183 0 24.5 3.58173 24.5 8C24.5 12.4183 20.9183 16 16.5 16C12.0817 16 8.5 12.4183 8.5 8ZM16.5 2C13.1863 2 10.5 4.68629 10.5 8C10.5 11.3137 13.1863 14 16.5 14C19.8137 14 22.5 11.3137 22.5 8C22.5 4.68629 19.8137 2 16.5 2Z" fill="white"/>
<path id="Vector (Stroke)_8" fill-rule="evenodd" clip-rule="evenodd" d="M7.5 26.9999C7.5 22.8049 10.3691 19.2826 14.2507 18.2835L14.7493 20.2204C11.7299 20.9975 9.5 23.7396 9.5 26.9999C9.5 30.866 12.634 33.9999 16.5 33.9999C20.366 33.9999 23.5 30.866 23.5 26.9999C23.5 23.7396 21.2701 20.9975 18.2507 20.2204L18.7493 18.2835C22.6309 19.2826 25.5 22.8049 25.5 26.9999C25.5 31.9705 21.4706 35.9999 16.5 35.9999C11.5294 35.9999 7.5 31.9705 7.5 26.9999Z" fill="white"/>
<path id="Vector (Stroke)_9" fill-rule="evenodd" clip-rule="evenodd" d="M13.5 27V15H15.5V27C15.5 27.5523 15.9477 28 16.5 28C17.0523 28 17.5 27.5523 17.5 27V15H19.5V27C19.5 28.6569 18.1569 30 16.5 30C14.8431 30 13.5 28.6569 13.5 27Z" fill="white"/>
<path id="Vector (Stroke)_10" fill-rule="evenodd" clip-rule="evenodd" d="M0 12C0 8.41015 2.91018 5.5 6.5 5.5H9.9809V8.5H6.5C4.56702 8.5 3 10.067 3 12V36C3 37.933 4.56703 39.5 6.5 39.5H58.5C60.4327 39.5 62 37.9329 62 36V12C62 10.0671 60.4327 8.5 58.5 8.5H22.6159V5.5H58.5C62.0893 5.5 65 8.41007 65 12V36C65 39.5899 62.0893 42.5 58.5 42.5H6.5C2.91017 42.5 0 39.5898 0 36V12Z" fill="white"/>
</g>
<rect id="Rectangle_28" x="307" width="1" height="53" fill="white" fill-opacity="0.35"/>
<rect id="Rectangle_29" x="455" width="1" height="53" fill="white" fill-opacity="0.35"/>
<rect id="Rectangle_30" x="620" width="1" height="53" fill="white" fill-opacity="0.35"/>
</g>
</svg>
