<svg width="120" height="80" viewBox="0 0 120 80" fill="none" xmlns="http://www.w3.org/2000/svg">
<g id="_inc/assets/meta-date">
<g id="Group 96">
<path id="Rectangle 1 (Stroke)" fill-rule="evenodd" clip-rule="evenodd" d="M83.5 7H36.5C35.9477 7 35.5 7.44772 35.5 8V39C35.5 39.5523 35.9477 40 36.5 40H83.5C84.0523 40 84.5 39.5523 84.5 39V8C84.5 7.44772 84.0523 7 83.5 7ZM36.5 5C34.8431 5 33.5 6.34315 33.5 8V39C33.5 40.6569 34.8431 42 36.5 42H83.5C85.1569 42 86.5 40.6569 86.5 39V8C86.5 6.34315 85.1569 5 83.5 5H36.5Z" fill="white"/>
<g id="Group 91">
<path id="Rectangle 4" d="M46.5 18.0001H49.5V21.0001H46.5V18.0001Z" fill="white"/>
<path id="Rectangle 5" d="M52.5 18.0001H55.5V21.0001H52.5V18.0001Z" fill="white"/>
<path id="Rectangle 6" d="M58.5 18.0001H61.5V21.0001H58.5V18.0001Z" fill="white"/>
<path id="Rectangle 8" d="M70.5 18.0001H73.5V21.0001H70.5V18.0001Z" fill="white"/>
<path id="Rectangle 9" d="M76.5 18.0001H79.5V21.0001H76.5V18.0001Z" fill="white"/>
<path id="Rectangle 7" d="M64.5 18.0001H67.5V21.0001H64.5V18.0001Z" fill="white"/>
</g>
<g id="Group 92">
<path id="Rectangle 2" d="M40.5 23.0001H43.5V26.0001H40.5V23.0001Z" fill="white"/>
<path id="Rectangle 4_2" d="M46.5 23.0001H49.5V26.0001H46.5V23.0001Z" fill="white"/>
<path id="Rectangle 5_2" d="M52.5 23.0001H55.5V26.0001H52.5V23.0001Z" fill="white"/>
<path id="Rectangle 6_2" d="M58.5 23.0001H61.5V26.0001H58.5V23.0001Z" fill="white"/>
<path id="Rectangle 8_2" d="M70.5 23.0001H73.5V26.0001H70.5V23.0001Z" fill="white"/>
<path id="Rectangle 9_2" d="M76.5 23.0001H79.5V26.0001H76.5V23.0001Z" fill="white"/>
<path id="Rectangle 7_2" d="M64.5 23.0001H67.5V26.0001H64.5V23.0001Z" fill="white"/>
</g>
<g id="Group 93">
<path id="Rectangle 2_2" d="M40.5 27.9999H43.5V30.9999H40.5V27.9999Z" fill="white"/>
<path id="Rectangle 4_3" d="M46.5 27.9999H49.5V30.9999H46.5V27.9999Z" fill="white"/>
<path id="Rectangle 5_3" d="M52.5 27.9999H55.5V30.9999H52.5V27.9999Z" fill="white"/>
<path id="Rectangle 6_3" d="M58.5 27.9999H61.5V30.9999H58.5V27.9999Z" fill="white"/>
<path id="Rectangle 8_3" d="M70.5 27.9999H73.5V30.9999H70.5V27.9999Z" fill="white"/>
<path id="Rectangle 9_3" d="M76.5 27.9999H79.5V30.9999H76.5V27.9999Z" fill="white"/>
<path id="Rectangle 7_3" d="M64.5 27.9999H67.5V30.9999H64.5V27.9999Z" fill="white"/>
</g>
<g id="Group 94">
<path id="Rectangle 2_3" d="M40.5 32.9999H43.5V35.9999H40.5V32.9999Z" fill="white"/>
<path id="Rectangle 4_4" d="M46.5 32.9999H49.5V35.9999H46.5V32.9999Z" fill="white"/>
<path id="Rectangle 5_4" d="M52.5 32.9999H55.5V35.9999H52.5V32.9999Z" fill="white"/>
<path id="Rectangle 6_4" d="M58.5 32.9999H61.5V35.9999H58.5V32.9999Z" fill="white"/>
<path id="Rectangle 8_4" d="M70.5 32.9999H73.5V35.9999H70.5V32.9999Z" fill="white"/>
<path id="Rectangle 7_4" d="M64.5 32.9999H67.5V35.9999H64.5V32.9999Z" fill="white"/>
</g>
<path id="Rectangle 10" d="M33.5 11.9999H86.5V13.9999H33.5V11.9999Z" fill="white"/>
</g>
</g>
</svg>
