<svg width="120" height="80" viewBox="0 0 120 80" fill="none" xmlns="http://www.w3.org/2000/svg">
<g id="_inc/assets/meta-publisher">
<g id="Group 412">
<path id="Rectangle (Stroke)" fill-rule="evenodd" clip-rule="evenodd" d="M86.9444 10H33.0556C32.7487 10 32.5 10.2487 32.5 10.5556V34.4444C32.5 34.7513 32.7487 35 33.0556 35H86.9444C87.2513 35 87.5 34.7513 87.5 34.4444V10.5556C87.5 10.2487 87.2513 10 86.9444 10ZM33.0556 8C31.6442 8 30.5 9.14416 30.5 10.5556V34.4444C30.5 35.8558 31.6442 37 33.0556 37H86.9444C88.3558 37 89.5 35.8558 89.5 34.4444V10.5556C89.5 9.14416 88.3558 8 86.9444 8H33.0556Z" fill="white"/>
<path id="Rectangle (Stroke)_2" fill-rule="evenodd" clip-rule="evenodd" d="M52.5 15V30H67.5V15H52.5ZM52.4492 13C51.3727 13 50.5 13.8727 50.5 14.9492V30.0508C50.5 31.1273 51.3727 32 52.4492 32H67.5508C68.6273 32 69.5 31.1273 69.5 30.0508V14.9492C69.5 13.8727 68.6273 13 67.5508 13H52.4492Z" fill="white"/>
<path id="Ellipse 1" d="M64.5 22.5C64.5 24.9853 62.4853 27 60 27C57.5147 27 55.5 24.9853 55.5 22.5C55.5 20.0147 57.5147 18 60 18C62.4853 18 64.5 20.0147 64.5 22.5Z" fill="white"/>
<g id="Group 410">
<path id="Rectangle 375" d="M38 4C38 3.44772 38.4477 3 39 3V3C39.5523 3 40 3.44772 40 4V9C40 9.55228 39.5523 10 39 10V10C38.4477 10 38 9.55228 38 9V4Z" fill="white"/>
<path id="Rectangle 376" d="M44 4C44 3.44772 44.4477 3 45 3V3C45.5523 3 46 3.44772 46 4V9C46 9.55228 45.5523 10 45 10V10C44.4477 10 44 9.55228 44 9V4Z" fill="white"/>
<path id="Rectangle 377" d="M50 4C50 3.44772 50.4477 3 51 3V3C51.5523 3 52 3.44772 52 4V9C52 9.55228 51.5523 10 51 10V10C50.4477 10 50 9.55228 50 9V4Z" fill="white"/>
<path id="Rectangle 378" d="M56 4C56 3.44772 56.4477 3 57 3V3C57.5523 3 58 3.44772 58 4V9C58 9.55228 57.5523 10 57 10V10C56.4477 10 56 9.55228 56 9V4Z" fill="white"/>
<path id="Rectangle 379" d="M62 4C62 3.44772 62.4477 3 63 3V3C63.5523 3 64 3.44772 64 4V9C64 9.55228 63.5523 10 63 10V10C62.4477 10 62 9.55228 62 9V4Z" fill="white"/>
<path id="Rectangle 380" d="M68 4C68 3.44772 68.4477 3 69 3V3C69.5523 3 70 3.44772 70 4V9C70 9.55228 69.5523 10 69 10V10C68.4477 10 68 9.55228 68 9V4Z" fill="white"/>
<path id="Rectangle 382" d="M74 4C74 3.44772 74.4477 3 75 3V3C75.5523 3 76 3.44772 76 4V9C76 9.55228 75.5523 10 75 10V10C74.4477 10 74 9.55228 74 9V4Z" fill="white"/>
<path id="Rectangle 381" d="M80 4C80 3.44772 80.4477 3 81 3V3C81.5523 3 82 3.44772 82 4V9C82 9.55228 81.5523 10 81 10V10C80.4477 10 80 9.55228 80 9V4Z" fill="white"/>
</g>
<g id="Group 411">
<path id="Rectangle 375_2" d="M38 36C38 35.4477 38.4477 35 39 35V35C39.5523 35 40 35.4477 40 36V41C40 41.5523 39.5523 42 39 42V42C38.4477 42 38 41.5523 38 41V36Z" fill="white"/>
<path id="Rectangle 376_2" d="M44 36C44 35.4477 44.4477 35 45 35V35C45.5523 35 46 35.4477 46 36V41C46 41.5523 45.5523 42 45 42V42C44.4477 42 44 41.5523 44 41V36Z" fill="white"/>
<path id="Rectangle 377_2" d="M50 36C50 35.4477 50.4477 35 51 35V35C51.5523 35 52 35.4477 52 36V41C52 41.5523 51.5523 42 51 42V42C50.4477 42 50 41.5523 50 41V36Z" fill="white"/>
<path id="Rectangle 378_2" d="M56 36C56 35.4477 56.4477 35 57 35V35C57.5523 35 58 35.4477 58 36V41C58 41.5523 57.5523 42 57 42V42C56.4477 42 56 41.5523 56 41V36Z" fill="white"/>
<path id="Rectangle 379_2" d="M62 36C62 35.4477 62.4477 35 63 35V35C63.5523 35 64 35.4477 64 36V41C64 41.5523 63.5523 42 63 42V42C62.4477 42 62 41.5523 62 41V36Z" fill="white"/>
<path id="Rectangle 380_2" d="M68 36C68 35.4477 68.4477 35 69 35V35C69.5523 35 70 35.4477 70 36V41C70 41.5523 69.5523 42 69 42V42C68.4477 42 68 41.5523 68 41V36Z" fill="white"/>
<path id="Rectangle 382_2" d="M74 36C74 35.4477 74.4477 35 75 35V35C75.5523 35 76 35.4477 76 36V41C76 41.5523 75.5523 42 75 42V42C74.4477 42 74 41.5523 74 41V36Z" fill="white"/>
<path id="Rectangle 381_2" d="M80 36C80 35.4477 80.4477 35 81 35V35C81.5523 35 82 35.4477 82 36V41C82 41.5523 81.5523 42 81 42V42C80.4477 42 80 41.5523 80 41V36Z" fill="white"/>
</g>
</g>
</g>
</svg>
