<svg width="120" height="80" viewBox="0 0 120 80" fill="none" xmlns="http://www.w3.org/2000/svg">
<g id="_inc/assets/meta-genre">
<g id="Group 100">
<path id="Vector (Stroke)" fill-rule="evenodd" clip-rule="evenodd" d="M57 21.5C57 19.0147 59.0147 17 61.5 17C63.9853 17 66 19.0147 66 21.5C66 23.9853 63.9853 26 61.5 26C59.0147 26 57 23.9853 57 21.5ZM61.5 19C60.1193 19 59 20.1193 59 21.5C59 22.8807 60.1193 24 61.5 24C62.8807 24 64 22.8807 64 21.5C64 20.1193 62.8807 19 61.5 19Z" fill="white"/>
<path id="Vector (Stroke)_2" fill-rule="evenodd" clip-rule="evenodd" d="M57 31.5C57 29.0147 59.0147 27 61.5 27C63.9853 27 66 29.0147 66 31.5C66 33.9853 63.9853 36 61.5 36C59.0147 36 57 33.9853 57 31.5ZM61.5 29C60.1193 29 59 30.1193 59 31.5C59 32.8807 60.1193 34 61.5 34C62.8807 34 64 32.8807 64 31.5C64 30.1193 62.8807 29 61.5 29Z" fill="white"/>
<path id="Vector (Stroke)_3" fill-rule="evenodd" clip-rule="evenodd" d="M67 18.5C67 16.0147 69.0147 14 71.5 14C73.9853 14 76 16.0147 76 18.5C76 20.9853 73.9853 23 71.5 23C69.0147 23 67 20.9853 67 18.5ZM71.5 16C70.1193 16 69 17.1193 69 18.5C69 19.8807 70.1193 21 71.5 21C72.8807 21 74 19.8807 74 18.5C74 17.1193 72.8807 16 71.5 16Z" fill="white"/>
<path id="Vector (Stroke)_4" fill-rule="evenodd" clip-rule="evenodd" d="M67 28.5C67 26.0147 69.0147 24 71.5 24C73.9853 24 76 26.0147 76 28.5C76 30.9853 73.9853 33 71.5 33C69.0147 33 67 30.9853 67 28.5ZM71.5 26C70.1193 26 69 27.1193 69 28.5C69 29.8807 70.1193 31 71.5 31C72.8807 31 74 29.8807 74 28.5C74 27.1193 72.8807 26 71.5 26Z" fill="white"/>
<path id="Vector (Stroke)_5" fill-rule="evenodd" clip-rule="evenodd" d="M77 18.5C77 16.0147 79.0147 14 81.5 14C83.9853 14 86 16.0147 86 18.5C86 20.9853 83.9853 23 81.5 23C79.0147 23 77 20.9853 77 18.5ZM81.5 16C80.1193 16 79 17.1193 79 18.5C79 19.8807 80.1193 21 81.5 21C82.8807 21 84 19.8807 84 18.5C84 17.1193 82.8807 16 81.5 16Z" fill="white"/>
<path id="Vector (Stroke)_6" fill-rule="evenodd" clip-rule="evenodd" d="M77 28.5C77 26.0147 79.0147 24 81.5 24C83.9853 24 86 26.0147 86 28.5C86 30.9853 83.9853 33 81.5 33C79.0147 33 77 30.9853 77 28.5ZM81.5 26C80.1193 26 79 27.1193 79 28.5C79 29.8807 80.1193 31 81.5 31C82.8807 31 84 29.8807 84 28.5C84 27.1193 82.8807 26 81.5 26Z" fill="white"/>
<path id="Vector (Stroke)_7" fill-rule="evenodd" clip-rule="evenodd" d="M35 8C35 3.58173 38.5817 0 43 0C47.4183 0 51 3.58173 51 8C51 12.4183 47.4183 16 43 16C38.5817 16 35 12.4183 35 8ZM43 2C39.6863 2 37 4.68629 37 8C37 11.3137 39.6863 14 43 14C46.3137 14 49 11.3137 49 8C49 4.68629 46.3137 2 43 2Z" fill="white"/>
<path id="Vector (Stroke)_8" fill-rule="evenodd" clip-rule="evenodd" d="M34 26.9999C34 22.8049 36.8691 19.2826 40.7507 18.2835L41.2493 20.2204C38.2299 20.9975 36 23.7396 36 26.9999C36 30.866 39.134 33.9999 43 33.9999C46.866 33.9999 50 30.866 50 26.9999C50 23.7396 47.7701 20.9975 44.7507 20.2204L45.2493 18.2835C49.1309 19.2826 52 22.8049 52 26.9999C52 31.9705 47.9706 35.9999 43 35.9999C38.0294 35.9999 34 31.9705 34 26.9999Z" fill="white"/>
<path id="Vector (Stroke)_9" fill-rule="evenodd" clip-rule="evenodd" d="M40 27V15H42V27C42 27.5523 42.4477 28 43 28C43.5523 28 44 27.5523 44 27V15H46V27C46 28.6569 44.6569 30 43 30C41.3431 30 40 28.6569 40 27Z" fill="white"/>
<path id="Vector (Stroke)_10" fill-rule="evenodd" clip-rule="evenodd" d="M36.7545 7H33.1613C30.3108 7 28 9.37026 28 12.2941V37.7059C28 40.6297 30.3108 43 33.1613 43H86.8387C89.6888 43 92 40.6297 92 37.7059V12.2941C92 9.37026 89.6888 7 86.8387 7H49.7971V9H86.8387C88.5367 9 90 10.4267 90 12.2941V37.7059C90 39.5733 88.5367 41 86.8387 41H33.1613C31.463 41 30 39.5734 30 37.7059V12.2941C30 10.4266 31.463 9 33.1613 9H36.7545V7Z" fill="white"/>
</g>
</g>
</svg>
