<svg width="195" height="54" viewBox="0 0 195 54" fill="none" xmlns="http://www.w3.org/2000/svg">
<path d="M1.42 32V18H7.48C8.4 18 9.2 18.1533 9.88 18.46C10.56 18.7667 11.0867 19.2 11.46 19.76C11.8333 20.3067 12.02 20.9533 12.02 21.7C12.02 22.38 11.8467 22.98 11.5 23.5C11.1533 24.02 10.6667 24.4333 10.04 24.74C10.8267 25.02 11.44 25.4467 11.88 26.02C12.3333 26.58 12.56 27.24 12.56 28C12.56 28.8133 12.36 29.52 11.96 30.12C11.56 30.72 11 31.1867 10.28 31.52C9.56 31.84 8.71333 32 7.74 32H1.42ZM3.52 23.94H7.36C8.14667 23.94 8.77333 23.7533 9.24 23.38C9.70667 23.0067 9.94 22.5 9.94 21.86C9.94 21.22 9.70667 20.7133 9.24 20.34C8.77333 19.9667 8.14667 19.78 7.36 19.78H3.52V23.94ZM3.52 30.22H7.58C8.46 30.22 9.15333 30.0133 9.66 29.6C10.18 29.1867 10.44 28.6267 10.44 27.92C10.44 27.2267 10.18 26.6733 9.66 26.26C9.15333 25.8333 8.46 25.62 7.58 25.62H3.52V30.22ZM14.598 32V21.82H16.598V23.12C16.918 22.64 17.3113 22.2667 17.778 22C18.258 21.72 18.798 21.58 19.398 21.58C19.8113 21.5933 20.1513 21.6533 20.418 21.76V23.56C20.2313 23.48 20.038 23.4267 19.838 23.4C19.638 23.36 19.438 23.34 19.238 23.34C18.6513 23.34 18.1313 23.5 17.678 23.82C17.2246 24.1267 16.8646 24.58 16.598 25.18V32H14.598ZM26.2739 32.2C25.2872 32.2 24.3872 31.9667 23.5739 31.5C22.7739 31.0333 22.1406 30.4 21.6739 29.6C21.2072 28.8 20.9739 27.9067 20.9739 26.92C20.9739 25.9333 21.2072 25.04 21.6739 24.24C22.1406 23.44 22.7739 22.8067 23.5739 22.34C24.3872 21.86 25.2872 21.62 26.2739 21.62C27.2739 21.62 28.1739 21.86 28.9739 22.34C29.7739 22.8067 30.4072 23.44 30.8739 24.24C31.3406 25.04 31.5739 25.9333 31.5739 26.92C31.5739 27.9067 31.3406 28.8 30.8739 29.6C30.4072 30.4 29.7739 31.0333 28.9739 31.5C28.1739 31.9667 27.2739 32.2 26.2739 32.2ZM26.2739 30.44C26.9006 30.44 27.4672 30.2867 27.9739 29.98C28.4806 29.66 28.8806 29.2333 29.1739 28.7C29.4672 28.1667 29.6139 27.5667 29.6139 26.9C29.6139 26.2467 29.4606 25.66 29.1539 25.14C28.8606 24.6067 28.4606 24.18 27.9539 23.86C27.4606 23.54 26.9006 23.38 26.2739 23.38C25.6472 23.38 25.0806 23.54 24.5739 23.86C24.0806 24.18 23.6806 24.6067 23.3739 25.14C23.0806 25.66 22.9339 26.2467 22.9339 26.9C22.9339 27.5667 23.0806 28.1667 23.3739 28.7C23.6672 29.2333 24.0672 29.66 24.5739 29.98C25.0806 30.2867 25.6472 30.44 26.2739 30.44ZM35.1698 32L32.3298 21.82H34.2698L36.2498 29.3L38.5698 21.82H40.2898L42.6098 29.3L44.5898 21.82H46.4698L43.6098 32H41.6898L39.4098 24.54L37.1098 32H35.1698ZM51.3988 32.2C50.5188 32.2 49.6921 32.0733 48.9188 31.82C48.1588 31.5533 47.4988 31.18 46.9388 30.7L48.0387 29.38C48.5588 29.7933 49.0921 30.1133 49.6388 30.34C50.1988 30.5533 50.7654 30.66 51.3388 30.66C52.0588 30.66 52.6454 30.52 53.0988 30.24C53.5521 29.96 53.7788 29.5933 53.7788 29.14C53.7788 28.7667 53.6454 28.4733 53.3788 28.26C53.1121 28.0467 52.6988 27.9 52.1388 27.82L50.2988 27.56C49.2854 27.4133 48.5254 27.1 48.0188 26.62C47.5121 26.14 47.2588 25.5 47.2588 24.7C47.2588 24.0867 47.4254 23.5533 47.7588 23.1C48.0921 22.6333 48.5588 22.2733 49.1588 22.02C49.7588 21.7533 50.4588 21.62 51.2588 21.62C51.9921 21.62 52.6988 21.7267 53.3788 21.94C54.0588 22.1533 54.7121 22.4867 55.3388 22.94L54.3188 24.26C53.7588 23.8867 53.2121 23.6133 52.6788 23.44C52.1588 23.2667 51.6321 23.18 51.0988 23.18C50.4854 23.18 49.9921 23.3133 49.6188 23.58C49.2454 23.8333 49.0588 24.1667 49.0588 24.58C49.0588 24.9533 49.1854 25.2467 49.4388 25.46C49.7054 25.66 50.1388 25.8 50.7388 25.88L52.5788 26.14C53.5921 26.2867 54.3588 26.6 54.8788 27.08C55.3988 27.5467 55.6588 28.18 55.6588 28.98C55.6588 29.5933 55.4721 30.1467 55.0988 30.64C54.7254 31.12 54.2188 31.5 53.5788 31.78C52.9388 32.06 52.2121 32.2 51.3988 32.2ZM62.1733 32.18C61.1733 32.18 60.2666 31.9467 59.4533 31.48C58.6533 31.0133 58.0133 30.38 57.5333 29.58C57.0666 28.78 56.8333 27.8867 56.8333 26.9C56.8333 25.9267 57.0599 25.0467 57.5133 24.26C57.9666 23.46 58.5799 22.8267 59.3533 22.36C60.1266 21.88 60.9866 21.64 61.9333 21.64C62.8799 21.64 63.7199 21.88 64.4533 22.36C65.1866 22.8267 65.7666 23.4667 66.1933 24.28C66.6333 25.08 66.8533 25.9867 66.8533 27V27.56H58.8333C58.9399 28.12 59.1466 28.62 59.4533 29.06C59.7733 29.5 60.1733 29.8467 60.6533 30.1C61.1466 30.3533 61.6799 30.48 62.2533 30.48C62.7466 30.48 63.2199 30.4067 63.6733 30.26C64.1399 30.1 64.5266 29.8733 64.8333 29.58L66.1133 30.84C65.5133 31.2933 64.8933 31.6333 64.2533 31.86C63.6266 32.0733 62.9333 32.18 62.1733 32.18ZM58.8533 26.06H64.8733C64.7933 25.5267 64.6066 25.06 64.3133 24.66C64.0333 24.2467 63.6799 23.9267 63.2533 23.7C62.8399 23.46 62.3866 23.34 61.8933 23.34C61.3866 23.34 60.9199 23.4533 60.4933 23.68C60.0666 23.9067 59.7066 24.2267 59.4133 24.64C59.1333 25.04 58.9466 25.5133 58.8533 26.06ZM77.9778 36.28C77.2311 36.28 76.5045 36.1933 75.7978 36.02C75.0911 35.8467 74.4511 35.6 73.8778 35.28L74.6378 33.72C75.2378 34.0267 75.7978 34.2467 76.3178 34.38C76.8511 34.5267 77.3845 34.6 77.9178 34.6C78.8111 34.6 79.4845 34.3933 79.9378 33.98C80.4045 33.5667 80.6378 32.96 80.6378 32.16V31C79.7445 31.7067 78.7245 32.06 77.5778 32.06C76.6445 32.06 75.7845 31.8333 74.9978 31.38C74.2245 30.9133 73.6111 30.2867 73.1578 29.5C72.7045 28.7 72.4778 27.82 72.4778 26.86C72.4778 25.8867 72.7045 25.0067 73.1578 24.22C73.6245 23.42 74.2445 22.7933 75.0178 22.34C75.8045 21.8733 76.6845 21.64 77.6578 21.64C78.2045 21.64 78.7311 21.7333 79.2378 21.92C79.7578 22.0933 80.2311 22.3467 80.6578 22.68V21.82H82.6378V32.16C82.6378 33.48 82.2311 34.4933 81.4178 35.2C80.6178 35.92 79.4711 36.28 77.9778 36.28ZM77.8378 30.34C78.4245 30.34 78.9578 30.24 79.4378 30.04C79.9178 29.8267 80.3178 29.5267 80.6378 29.14V24.58C80.3178 24.2067 79.9111 23.9133 79.4178 23.7C78.9378 23.4867 78.4111 23.38 77.8378 23.38C77.1978 23.38 76.6178 23.5333 76.0978 23.84C75.5911 24.1467 75.1845 24.5667 74.8778 25.1C74.5845 25.62 74.4378 26.2067 74.4378 26.86C74.4378 27.5133 74.5845 28.1067 74.8778 28.64C75.1845 29.16 75.5911 29.5733 76.0978 29.88C76.6178 30.1867 77.1978 30.34 77.8378 30.34ZM88.2086 32.18C87.4753 32.18 86.8286 32.0533 86.2686 31.8C85.7086 31.5333 85.2686 31.1667 84.9486 30.7C84.6286 30.2333 84.4686 29.6933 84.4686 29.08C84.4686 28.12 84.8353 27.3667 85.5686 26.82C86.3019 26.26 87.3086 25.98 88.5886 25.98C89.5886 25.98 90.5153 26.1733 91.3686 26.56V25.48C91.3686 24.7467 91.1553 24.2 90.7286 23.84C90.3153 23.48 89.7019 23.3 88.8886 23.3C88.4219 23.3 87.9353 23.3733 87.4286 23.52C86.9219 23.6533 86.3553 23.8667 85.7286 24.16L84.9886 22.66C85.7619 22.3 86.4819 22.04 87.1486 21.88C87.8153 21.7067 88.4886 21.62 89.1686 21.62C90.4886 21.62 91.5086 21.9333 92.2286 22.56C92.9619 23.1867 93.3286 24.08 93.3286 25.24V32H91.3686V31.12C90.9153 31.48 90.4286 31.7467 89.9086 31.92C89.3886 32.0933 88.8219 32.18 88.2086 32.18ZM86.3886 29.04C86.3886 29.5333 86.5953 29.9333 87.0086 30.24C87.4353 30.5467 87.9886 30.7 88.6686 30.7C89.2019 30.7 89.6886 30.62 90.1286 30.46C90.5819 30.3 90.9953 30.0533 91.3686 29.72V28C90.9819 27.7733 90.5753 27.6133 90.1486 27.52C89.7353 27.4133 89.2686 27.36 88.7486 27.36C88.0153 27.36 87.4353 27.5133 87.0086 27.82C86.5953 28.1133 86.3886 28.52 86.3886 29.04ZM95.6331 32V21.82H97.6331V22.8C98.3931 22.0133 99.3465 21.62 100.493 21.62C101.186 21.62 101.8 21.7733 102.333 22.08C102.88 22.3867 103.313 22.8 103.633 23.32C104.06 22.76 104.56 22.34 105.133 22.06C105.706 21.7667 106.353 21.62 107.073 21.62C107.833 21.62 108.493 21.7867 109.053 22.12C109.626 22.4533 110.073 22.92 110.393 23.52C110.726 24.12 110.893 24.8133 110.893 25.6V32H108.893V25.94C108.893 25.14 108.68 24.5133 108.253 24.06C107.84 23.5933 107.273 23.36 106.553 23.36C106.06 23.36 105.613 23.4733 105.213 23.7C104.813 23.9267 104.466 24.2733 104.173 24.74C104.2 24.8733 104.22 25.0133 104.233 25.16C104.246 25.3067 104.253 25.4533 104.253 25.6V32H102.273V25.94C102.273 25.14 102.06 24.5133 101.633 24.06C101.22 23.5933 100.653 23.36 99.9331 23.36C99.4531 23.36 99.0198 23.4667 98.6331 23.68C98.2465 23.88 97.9131 24.1867 97.6331 24.6V32H95.6331ZM118.072 32.18C117.072 32.18 116.165 31.9467 115.352 31.48C114.552 31.0133 113.912 30.38 113.432 29.58C112.965 28.78 112.732 27.8867 112.732 26.9C112.732 25.9267 112.958 25.0467 113.412 24.26C113.865 23.46 114.478 22.8267 115.252 22.36C116.025 21.88 116.885 21.64 117.832 21.64C118.778 21.64 119.618 21.88 120.352 22.36C121.085 22.8267 121.665 23.4667 122.092 24.28C122.532 25.08 122.752 25.9867 122.752 27V27.56H114.732C114.838 28.12 115.045 28.62 115.352 29.06C115.672 29.5 116.072 29.8467 116.552 30.1C117.045 30.3533 117.578 30.48 118.152 30.48C118.645 30.48 119.118 30.4067 119.572 30.26C120.038 30.1 120.425 29.8733 120.732 29.58L122.012 30.84C121.412 31.2933 120.792 31.6333 120.152 31.86C119.525 32.0733 118.832 32.18 118.072 32.18ZM114.752 26.06H120.772C120.692 25.5267 120.505 25.06 120.212 24.66C119.932 24.2467 119.578 23.9267 119.152 23.7C118.738 23.46 118.285 23.34 117.792 23.34C117.285 23.34 116.818 23.4533 116.392 23.68C115.965 23.9067 115.605 24.2267 115.312 24.64C115.032 25.04 114.845 25.5133 114.752 26.06ZM128.254 32.2C127.374 32.2 126.548 32.0733 125.774 31.82C125.014 31.5533 124.354 31.18 123.794 30.7L124.894 29.38C125.414 29.7933 125.948 30.1133 126.494 30.34C127.054 30.5533 127.621 30.66 128.194 30.66C128.914 30.66 129.501 30.52 129.954 30.24C130.408 29.96 130.634 29.5933 130.634 29.14C130.634 28.7667 130.501 28.4733 130.234 28.26C129.968 28.0467 129.554 27.9 128.994 27.82L127.154 27.56C126.141 27.4133 125.381 27.1 124.874 26.62C124.368 26.14 124.114 25.5 124.114 24.7C124.114 24.0867 124.281 23.5533 124.614 23.1C124.948 22.6333 125.414 22.2733 126.014 22.02C126.614 21.7533 127.314 21.62 128.114 21.62C128.848 21.62 129.554 21.7267 130.234 21.94C130.914 22.1533 131.568 22.4867 132.194 22.94L131.174 24.26C130.614 23.8867 130.068 23.6133 129.534 23.44C129.014 23.2667 128.488 23.18 127.954 23.18C127.341 23.18 126.848 23.3133 126.474 23.58C126.101 23.8333 125.914 24.1667 125.914 24.58C125.914 24.9533 126.041 25.2467 126.294 25.46C126.561 25.66 126.994 25.8 127.594 25.88L129.434 26.14C130.448 26.2867 131.214 26.6 131.734 27.08C132.254 27.5467 132.514 28.18 132.514 28.98C132.514 29.5933 132.328 30.1467 131.954 30.64C131.581 31.12 131.074 31.5 130.434 31.78C129.794 32.06 129.068 32.2 128.254 32.2Z" fill="white"/>
</svg>
