<svg width="558" height="180" viewBox="0 0 558 180" fill="none" xmlns="http://www.w3.org/2000/svg">
<path d="M551.477 38.2363C551.477 39.0872 550.787 39.7771 549.936 39.7771C549.085 39.7771 548.395 39.0872 548.395 38.2363C548.395 37.3853 549.085 36.6954 549.936 36.6954C550.787 36.6954 551.477 37.3853 551.477 38.2363Z" fill="white" stroke="white" stroke-width="2"/>
<path d="M546.395 43.3179C546.395 44.1689 545.705 44.8587 544.854 44.8587C544.003 44.8587 543.314 44.1689 543.314 43.3179C543.314 42.4669 544.003 41.7771 544.854 41.7771C545.705 41.7771 546.395 42.4669 546.395 43.3179Z" fill="white" stroke="white" stroke-width="2"/>
<path d="M556.558 43.3179C556.558 44.1689 555.869 44.8587 555.018 44.8587C554.167 44.8587 553.477 44.1689 553.477 43.3179C553.477 42.4669 554.167 41.7771 555.018 41.7771C555.869 41.7771 556.558 42.4669 556.558 43.3179Z" fill="white" stroke="white" stroke-width="2"/>
<path d="M551.477 48.3997C551.477 49.2506 550.787 49.9405 549.936 49.9405C549.085 49.9405 548.395 49.2506 548.395 48.3997C548.395 47.5487 549.085 46.8588 549.936 46.8588C550.787 46.8588 551.477 47.5487 551.477 48.3997Z" fill="white" stroke="white" stroke-width="2"/>
<path fill-rule="evenodd" clip-rule="evenodd" d="M58.7877 19.7752C58.6532 19.1377 58.7046 14.871 58.7589 14.1248C59.6203 14.0021 60.3729 14.0246 61.1318 14.0472C61.3034 14.0524 61.4754 14.0575 61.649 14.061C61.9909 14.0678 62.4042 14.055 62.851 14.0412C64.3353 13.9951 66.1897 13.9377 67.0312 14.5507C68.5613 15.6653 68.7408 17.8629 67.2643 19.1271C66.4604 19.8154 65.5169 19.8324 64.4533 19.8073C63.4444 19.7835 62.4642 19.786 61.4846 19.7884L61.4842 19.7884L61.4833 19.7884C60.5914 19.7906 59.6999 19.7928 58.7877 19.7752ZM58.812 10.8462C58.7906 10.7624 58.6882 5.83139 58.7942 5.20206C58.7972 5.18462 58.8013 5.1655 58.8052 5.14754C58.8074 5.13726 58.8096 5.12735 58.8114 5.11837L58.8564 4.95346C59.3231 4.88908 62.534 4.87368 62.9116 4.98128C65.8592 5.82116 65.7402 9.93184 63.096 10.6681C62.1417 10.9338 60.8763 10.8968 59.7902 10.865C59.44 10.8547 59.1085 10.845 58.812 10.8462ZM56.1743 22.887L56.0819 22.8779C55.9835 22.3157 55.8665 21.7142 55.7299 21.0716C55.4913 19.6226 55.5156 18.3838 55.5415 17.0617C55.5479 16.736 55.5543 16.4052 55.557 16.0649L55.5476 6.2002C55.5391 4.3041 55.536 3.29566 56.9083 2.27734C57.9003 1.54108 59.4018 1.62466 60.7099 1.69747C61.0203 1.71475 61.3199 1.73143 61.5991 1.73639C63.5906 1.77183 64.415 1.96381 65.7121 2.84533C66.8427 3.61375 67.8002 4.86026 68.1505 6.63896C68.5019 8.42217 68.2438 9.03694 67.9166 9.81643C67.7672 10.1722 67.6035 10.5623 67.4767 11.1135C67.5881 11.2318 67.8154 11.357 68.1028 11.5155C68.6021 11.7907 69.283 12.166 69.8535 12.7785C72.3426 15.4512 71.8549 19.1805 69.53 21.4144C67.7669 23.1084 65.7463 23.0438 63.4136 22.9691L63.4079 22.969C63.2947 22.9653 63.1807 22.9617 63.066 22.9582C62.1705 22.9312 61.2694 22.9496 60.3658 22.968C58.9711 22.9965 57.5702 23.025 56.1743 22.887Z" fill="white"/>
<path fill-rule="evenodd" clip-rule="evenodd" d="M112.847 4.75595C115.15 3.74464 117.565 4.14055 119.288 4.96721C121.187 5.87818 122.113 6.98624 123.269 9.18113C124.31 11.1553 123.743 14.2324 123.029 15.6502C120.993 19.697 116.296 21.3237 112.256 19.3426C108.4 17.4513 106.613 12.4444 108.672 8.63067C109.625 6.86272 110.625 5.73223 112.847 4.75595ZM112.551 1.48646C111.843 1.87009 110.594 1.93395 108.609 3.58448C107.512 4.49686 106.78 5.47127 106.066 6.62648C103.047 11.5161 104.775 18.8554 110.339 21.9547C119.388 26.9963 129.589 18.1574 126.553 8.78224C125.204 4.61741 121.409 1.56315 117.476 1.09914C116.376 0.969374 113.7 0.863522 112.551 1.48646Z" fill="white"/>
<path fill-rule="evenodd" clip-rule="evenodd" d="M181.475 12.4856C181.099 11.3138 182.21 8.27269 182.701 7.43907C184.87 3.7576 188.433 3.13171 190.989 6.66149C192.188 8.31633 192.616 10.1441 192.743 12.4442C192.183 12.6117 183.383 12.4496 181.475 12.4856ZM181.312 22.8275C181.51 22.3263 181.415 16.8414 181.412 15.8055C181.75 15.7182 192.304 15.7102 192.635 15.8087C192.827 16.446 192.742 18.5295 192.745 19.3398C192.749 20.134 192.627 22.2739 192.813 22.8906C196.589 22.4901 195.876 19.3496 196.015 17.6465C196.106 16.5416 196.009 15.1081 196.015 13.9258C196.023 12.4541 196.119 11.6631 195.817 10.0098C194.958 5.31425 191.716 0.869872 186.846 1.1104C181.688 1.36506 178.876 6.23221 178.325 10.2038C178.143 11.5141 178.112 16.0377 178.147 17.5104C178.172 18.5568 177.953 20.2802 178.558 21.2418C179.104 22.1083 180.189 23.0197 181.312 22.8275Z" fill="white"/>
<path fill-rule="evenodd" clip-rule="evenodd" d="M76.5397 12.3973C76.113 9.94645 78.0738 4.64679 81.8972 4.29024C86.1977 3.88916 88.1483 10.7376 87.7332 12.309C87.0339 12.553 80.8288 12.4004 79.2652 12.4323C78.3367 12.4511 77.3709 12.3285 76.5397 12.3973ZM76.4013 22.7456C76.499 20.766 76.4624 17.703 76.4005 15.7595C76.712 15.6172 87.2409 15.5975 87.6872 15.7202C87.8866 16.4117 87.7451 18.3938 87.7523 19.2146C87.7602 20.1043 87.6645 22.0771 87.8287 22.8283C90.9655 22.4762 91.2049 20.1502 91.0329 17.5419L91.053 13.843C91.0738 9.85938 90.6632 6.64362 87.7399 3.52476C86.2809 1.96816 84.5217 1.05208 81.926 1.02092C79.0831 0.986792 77.0792 2.80652 75.8466 4.26287C74.6377 5.69114 73.6903 7.94719 73.3727 10.1229C73.0471 12.3538 73.2041 15.0568 73.1802 17.3942C73.1685 18.5425 72.9972 20.0814 73.5934 21.1799C74.1175 22.1454 75.2559 22.8614 76.4013 22.7456Z" fill="white"/>
<path fill-rule="evenodd" clip-rule="evenodd" d="M166.956 4.65242C169.194 3.54931 171.513 4.9552 172.284 6.65235C173.363 9.02569 172.019 11.2045 170.234 11.9709C165.393 14.0491 162.071 7.05907 166.956 4.65242ZM164.589 15.4254C165.059 15.541 165.408 16.0404 165.917 16.5557C166.969 17.6206 171.341 22.1068 172.023 22.5023C173.277 23.2301 174.56 22.8733 175.73 22.0858C175.46 21.1577 170.04 16.6094 169.574 15.4981C175.448 14.3358 177.173 8.61639 174.843 4.6402C171.721 -0.684772 163.558 0.0885739 161.627 6.35982C161.149 7.91396 161.382 15.5939 161.37 17.4923L161.366 22.1693C161.362 22.5796 161.251 22.7914 161.604 22.852C162.038 22.9263 163.105 22.4422 163.385 22.1993C165.182 20.6444 164.314 18.4516 164.589 15.4254Z" fill="white"/>
<path fill-rule="evenodd" clip-rule="evenodd" d="M159.815 22.8439C159.355 18.7616 155.781 19.9235 153.275 19.7103C152.712 19.6624 150.666 19.8689 150.398 19.6483L150.311 19.5107C150.304 19.4928 150.284 19.4587 150.276 19.436C150.17 19.1048 150.287 17.1169 150.261 16.4565C150.221 15.4193 150.251 14.1949 150.271 13.1651C151.521 12.861 155.877 13.3717 156.664 12.972C156.554 11.3641 155.555 10.3928 154.483 10.044C153.327 9.66777 151.004 10.0308 150.33 9.83318C150.238 9.39238 150.178 5.2764 150.36 4.86472L156.171 4.83522C157.318 4.88156 158.107 4.64435 158.842 3.98161C159.373 3.50263 159.946 2.56814 159.765 1.63105L155.679 1.58542C155.136 1.58762 154.651 1.65642 154.123 1.64435C149.618 1.541 146.883 0.8839 147.061 6.51926C147.131 8.75708 146.895 19.4259 147.176 20.5918C147.885 23.5229 151.599 22.9498 154.094 22.909C155.084 22.8928 155.955 22.9647 156.939 22.9133C157.808 22.8678 159.013 23.0466 159.815 22.8439Z" fill="white"/>
<path fill-rule="evenodd" clip-rule="evenodd" d="M146.009 1.69043L140.263 1.64938C138.052 1.64801 136.228 2.02605 134.318 3.02577C125.415 7.68415 127.231 20.2865 137.125 22.5913C138.998 23.0274 140.779 22.8384 142.767 22.9153C143.204 22.9322 143.694 22.9151 144.16 22.9097C145.744 22.8913 146.418 23.3634 145.802 21.7403C144.788 19.0656 141.773 19.8181 139.916 19.7072C136.197 19.4851 133.206 17.9555 132.032 14.1762C130.875 10.4553 133.116 7.01856 136.476 5.57078C140.426 3.86872 142.821 5.9459 145.034 3.98847C145.602 3.48656 146.11 2.64503 146.009 1.69043Z" fill="white"/>
<path fill-rule="evenodd" clip-rule="evenodd" d="M96.5611 4.77842C96.8259 5.85353 96.3977 21.4584 96.7077 22.8368C100.508 22.3025 99.741 19.3514 99.8176 17.3536C99.8862 15.5609 99.6977 5.15783 99.8816 4.9101C100.054 4.67848 100.667 4.77799 100.852 4.78346C101.61 4.80596 103.553 4.80363 104.147 4.57176C105.489 4.04753 106.231 2.91902 106.19 1.61115C105.821 1.487 92.92 1.48339 90.9967 1.51079C90.1666 1.52257 90.0972 1.5677 90.3619 2.46813C91.2186 5.38217 94.5152 4.67656 96.5611 4.77842Z" fill="white"/>
<path fill-rule="evenodd" clip-rule="evenodd" d="M331.553 34C309.816 34 291.157 48.6936 286.057 70.0945C286.129 69.1989 286.166 68.2804 286.166 67.3393C286.166 58.1743 283.779 50.0401 278.018 44.2105C272.245 38.3696 263.79 35.5529 253.16 35.5529H120.684V123.386L99.185 94.7205C109.838 91.4832 119.175 82.268 119.175 67.3393C119.175 58.1743 116.787 50.0401 111.026 44.2105C105.254 38.3696 96.7985 35.5529 86.1681 35.5529H55.38V126.634H76.3594V97.8654L96.8245 126.634H173.942V106.653H141.664V90.6958H173.942V70.7146H141.664V55.534H187.074V126.634H208.053V55.534H222.372V126.634H243.351V97.8654L263.816 126.634H290.112L266.176 94.7205C274.621 92.1544 282.238 85.8323 285.034 75.8858C284.801 77.8725 284.681 79.906 284.681 81.9808C284.681 106.658 306.004 128.187 331.22 128.187C357.81 128.187 379.09 107.946 379.09 80.5388C379.09 55.1734 358.41 34 331.553 34ZM80.6221 77.9245H76.3594V55.534H84.5043C89.037 55.534 92.4968 56.7852 94.7328 58.626C96.8834 60.3966 98.1953 62.9355 98.1953 66.341C98.1953 70.3652 96.7535 72.9528 94.2867 74.7123C91.5839 76.64 87.1361 77.9245 80.6221 77.9245ZM247.614 77.9245H243.351V55.534H251.496C256.028 55.534 259.488 56.7852 261.724 58.626C263.875 60.3966 265.187 62.9355 265.187 66.341C265.187 70.3652 263.745 72.9528 261.278 74.7123C258.575 76.64 254.128 77.9245 247.614 77.9245ZM305.66 80.7607C305.66 75.631 307.618 68.8165 311.992 63.3603C316.247 58.053 322.81 53.9811 332.44 53.9811C346.919 53.9811 358.11 66.4768 358.11 81.3153C358.11 94.3653 348.285 108.206 331.885 108.206C316.052 108.206 305.66 95.2522 305.66 80.7607Z" fill="white"/>
<path d="M431.411 35.5529H380.927V126.634H401.906V91.1394H431.411V71.1583H401.906V55.534H431.411V35.5529Z" fill="white"/>
<path fill-rule="evenodd" clip-rule="evenodd" d="M477.07 35.5529H434.992V126.634H476.725L494.914 99.0582L512.906 126.634H537.795L507.659 80.9994L538.079 35.5529H513.034L494.954 62.9165L477.07 35.5529ZM482.105 80.9892L455.971 120.563V41.6285L482.105 80.9892Z" fill="white"/>
<path d="M55 171.139L58.9952 174.588C59.9625 173.957 60.8877 173.663 61.4765 173.452C71.4015 170.214 80.1069 165.21 85.8685 158.313L82.8825 153.56C77.4995 160.121 68.1212 165.504 61.2662 167.481V145.612C61.2662 143.972 61.4344 142.458 61.6868 140.818H55.0841C55.3364 142.037 55.5467 144.014 55.5467 145.612V168.406C55.5467 169.373 55.5047 170.088 55 171.139Z" fill="white"/>
<path d="M99.1158 168.784C99.1158 170.467 98.9476 172.99 98.6953 174.672H105.256C105.088 172.948 104.877 170.004 104.877 168.784V156.883C109.419 158.439 115.728 160.878 120.059 163.149L122.456 157.345C118.587 155.453 110.513 152.467 104.877 150.827V144.603C104.877 142.878 105.088 141.028 105.256 139.556H98.6953C98.9897 141.028 99.1158 143.131 99.1158 144.603V168.784Z" fill="white"/>
<path d="M130.321 143.005C130.405 144.182 130.405 145.906 130.405 147.084V167.649C130.405 169.668 130.279 173.326 130.279 173.537H136.082C136.082 173.41 136.082 172.443 136.04 171.266H156.311C156.311 172.485 156.269 173.452 156.269 173.537H162.072C162.072 173.368 161.988 169.331 161.988 167.691V147.084C161.988 145.822 161.988 144.266 162.072 143.005C160.558 143.089 158.96 143.089 157.909 143.089H134.779C133.643 143.089 132.045 143.047 130.321 143.005ZM136.04 148.43H156.353V165.883H136.04V148.43Z" fill="white"/>
<path d="M201.52 144.813L197.399 142.163C196.263 142.458 194.917 142.5 194.076 142.5H174.647C173.259 142.5 170.862 142.29 169.6 142.163V148.093C170.694 148.009 172.712 147.925 174.605 147.925H194.202C193.656 151.5 192.058 156.294 189.282 159.785C185.876 164.032 181.123 167.691 172.796 169.668L177.38 174.672C184.866 172.275 190.46 168.111 194.287 163.065C197.777 158.397 199.628 151.878 200.595 147.757C200.805 146.874 201.142 145.654 201.52 144.813Z" fill="white"/>
<path d="M206.923 160.836L209.404 165.798C213.063 164.663 217.773 162.728 221.474 160.878V171.981C221.474 173.452 221.348 175.681 221.264 176.522H227.488C227.235 175.681 227.193 173.452 227.193 171.981V157.556C230.936 155.074 234.637 152.088 236.614 149.902L232.45 145.822C230.305 148.556 226.058 152.341 221.979 154.822C218.656 156.841 212.39 159.658 206.923 160.836Z" fill="white"/>
<path d="M262.772 147.841L257.767 149.481C258.819 151.668 260.669 156.757 261.174 158.817L266.221 157.051C265.632 155.116 263.571 149.649 262.772 147.841ZM278.29 150.911L272.403 149.018C271.898 154.275 269.879 159.869 267.02 163.443C263.529 167.817 257.683 171.013 253.057 172.233L257.473 176.733C262.394 174.882 267.65 171.35 271.562 166.303C274.421 162.602 276.188 158.229 277.281 153.981C277.533 153.14 277.786 152.257 278.29 150.911ZM253.015 150.07L247.969 151.878C248.978 153.729 251.081 159.322 251.796 161.593L256.926 159.658C256.085 157.303 254.067 152.215 253.015 150.07Z" fill="white"/>
<path d="M304.743 140.019L298.603 138C298.225 139.43 297.341 141.364 296.711 142.416C294.608 146.033 290.949 151.458 283.589 155.958L288.299 159.448C292.421 156.63 296.08 152.93 298.897 149.271H310.715C310.042 152.425 307.603 157.472 304.743 160.752C301.084 164.915 296.416 168.574 287.795 171.139L292.757 175.597C300.664 172.485 305.752 168.616 309.748 163.738C313.533 159.028 315.93 153.434 317.065 149.691C317.402 148.64 317.99 147.462 318.453 146.663L314.163 144.014C313.196 144.308 311.808 144.519 310.505 144.519H302.052C302.094 144.434 302.136 144.392 302.178 144.308C302.682 143.383 303.776 141.491 304.743 140.019Z" fill="white"/>
<path d="M353.558 144.308L350.109 141.743C349.268 142.037 347.586 142.29 345.777 142.29H330.932C329.67 142.29 327.105 142.163 325.969 141.995V147.967C326.853 147.925 329.166 147.673 330.932 147.673H345.189C344.263 150.659 341.698 154.822 338.922 157.976C334.969 162.392 328.451 167.523 321.68 170.046L326.011 174.588C331.773 171.854 337.366 167.481 341.824 162.77C345.777 166.597 349.688 170.887 352.422 174.672L357.216 170.509C354.735 167.481 349.646 162.098 345.483 158.481C348.301 154.696 350.656 150.196 352.086 146.916C352.464 146.075 353.221 144.771 353.558 144.308Z" fill="white"/>
<rect width="15" height="180" fill="#FF0000" fill-opacity="0.73"/>
</svg>
