<svg width="558" height="180" viewBox="0 0 558 180" fill="none" xmlns="http://www.w3.org/2000/svg">
<path d="M551.477 38.2363C551.477 39.0872 550.787 39.7771 549.936 39.7771C549.085 39.7771 548.395 39.0872 548.395 38.2363C548.395 37.3853 549.085 36.6954 549.936 36.6954C550.787 36.6954 551.477 37.3853 551.477 38.2363Z" fill="white" stroke="white" stroke-width="2"/>
<path d="M546.395 43.3179C546.395 44.1689 545.705 44.8587 544.854 44.8587C544.003 44.8587 543.314 44.1689 543.314 43.3179C543.314 42.4669 544.003 41.7771 544.854 41.7771C545.705 41.7771 546.395 42.4669 546.395 43.3179Z" fill="white" stroke="white" stroke-width="2"/>
<path d="M556.558 43.3179C556.558 44.1689 555.869 44.8587 555.018 44.8587C554.167 44.8587 553.477 44.1689 553.477 43.3179C553.477 42.4669 554.167 41.7771 555.018 41.7771C555.869 41.7771 556.558 42.4669 556.558 43.3179Z" fill="white" stroke="white" stroke-width="2"/>
<path d="M551.477 48.3997C551.477 49.2506 550.787 49.9405 549.936 49.9405C549.085 49.9405 548.395 49.2506 548.395 48.3997C548.395 47.5487 549.085 46.8588 549.936 46.8588C550.787 46.8588 551.477 47.5487 551.477 48.3997Z" fill="white" stroke="white" stroke-width="2"/>
<path fill-rule="evenodd" clip-rule="evenodd" d="M58.7877 19.7752C58.6532 19.1377 58.7046 14.871 58.7589 14.1248C59.6203 14.0021 60.3729 14.0246 61.1318 14.0473C61.3034 14.0524 61.4754 14.0575 61.649 14.061C61.9909 14.0678 62.4042 14.055 62.851 14.0412C64.3353 13.9951 66.1897 13.9377 67.0312 14.5507C68.5613 15.6653 68.7408 17.8629 67.2643 19.1271C66.4604 19.8154 65.5169 19.8324 64.4533 19.8073C63.4444 19.7835 62.4642 19.786 61.4846 19.7884L61.4842 19.7884L61.4833 19.7884C60.5914 19.7906 59.6999 19.7928 58.7877 19.7752ZM58.812 10.8462C58.7906 10.7624 58.6882 5.83139 58.7942 5.20206C58.7972 5.18462 58.8013 5.1655 58.8052 5.14754C58.8074 5.13726 58.8096 5.12735 58.8114 5.11837L58.8564 4.95346C59.3231 4.88908 62.534 4.87368 62.9116 4.98128C65.8592 5.82116 65.7402 9.93184 63.096 10.6681C62.1417 10.9338 60.8763 10.8968 59.7902 10.865C59.44 10.8547 59.1085 10.845 58.812 10.8462ZM56.1743 22.887L56.0819 22.8779C55.9835 22.3157 55.8665 21.7142 55.7299 21.0716C55.4913 19.6226 55.5156 18.3838 55.5415 17.0617C55.5479 16.736 55.5543 16.4052 55.557 16.0649L55.5476 6.2002C55.5391 4.3041 55.536 3.29566 56.9083 2.27734C57.9003 1.54108 59.4018 1.62466 60.7099 1.69747C61.0203 1.71475 61.3199 1.73143 61.5991 1.73639C63.5906 1.77183 64.415 1.96381 65.7121 2.84533C66.8427 3.61375 67.8002 4.86026 68.1505 6.63896C68.5019 8.42217 68.2438 9.03694 67.9166 9.81643C67.7672 10.1722 67.6035 10.5623 67.4767 11.1135C67.5881 11.2318 67.8154 11.357 68.1028 11.5155C68.6021 11.7907 69.283 12.166 69.8535 12.7785C72.3426 15.4512 71.8549 19.1805 69.53 21.4144C67.7669 23.1084 65.7463 23.0438 63.4136 22.9691L63.4079 22.969C63.2947 22.9653 63.1807 22.9617 63.066 22.9582C62.1705 22.9312 61.2694 22.9496 60.3658 22.968C58.9711 22.9965 57.5702 23.025 56.1743 22.887Z" fill="white"/>
<path fill-rule="evenodd" clip-rule="evenodd" d="M112.847 4.75595C115.15 3.74464 117.565 4.14055 119.288 4.96721C121.187 5.87818 122.113 6.98624 123.269 9.18113C124.31 11.1553 123.743 14.2324 123.029 15.6502C120.993 19.697 116.296 21.3237 112.256 19.3426C108.4 17.4513 106.613 12.4444 108.672 8.63067C109.626 6.86272 110.625 5.73223 112.847 4.75595ZM112.551 1.48646C111.843 1.87009 110.594 1.93395 108.609 3.58448C107.512 4.49686 106.78 5.47127 106.066 6.62648C103.047 11.5161 104.775 18.8554 110.339 21.9547C119.388 26.9963 129.589 18.1574 126.553 8.78224C125.204 4.61741 121.409 1.56315 117.476 1.09914C116.376 0.969374 113.7 0.863522 112.551 1.48646Z" fill="white"/>
<path fill-rule="evenodd" clip-rule="evenodd" d="M181.475 12.4856C181.099 11.3138 182.21 8.27269 182.701 7.43907C184.87 3.7576 188.433 3.13171 190.989 6.66149C192.188 8.31633 192.616 10.1441 192.743 12.4442C192.183 12.6117 183.383 12.4496 181.475 12.4856ZM181.312 22.8275C181.51 22.3263 181.415 16.8414 181.412 15.8055C181.75 15.7182 192.304 15.7102 192.635 15.8087C192.827 16.446 192.742 18.5295 192.745 19.3398C192.749 20.134 192.627 22.2739 192.813 22.8906C196.589 22.4901 195.876 19.3496 196.015 17.6465C196.106 16.5416 196.009 15.1081 196.015 13.9258C196.023 12.4541 196.119 11.6631 195.817 10.0098C194.958 5.31425 191.716 0.869872 186.846 1.1104C181.688 1.36506 178.876 6.23221 178.325 10.2038C178.143 11.5141 178.112 16.0377 178.147 17.5104C178.172 18.5568 177.953 20.2802 178.558 21.2418C179.104 22.1083 180.189 23.0197 181.312 22.8275Z" fill="white"/>
<path fill-rule="evenodd" clip-rule="evenodd" d="M76.5397 12.3973C76.113 9.94645 78.0738 4.64679 81.8972 4.29024C86.1977 3.88916 88.1483 10.7376 87.7332 12.309C87.0339 12.553 80.8288 12.4004 79.2652 12.4323C78.3367 12.4511 77.3709 12.3285 76.5397 12.3973ZM76.4013 22.7456C76.499 20.766 76.4624 17.703 76.4005 15.7595C76.712 15.6172 87.2409 15.5975 87.6872 15.7202C87.8866 16.4117 87.7451 18.3938 87.7523 19.2146C87.7602 20.1043 87.6645 22.0771 87.8287 22.8283C90.9655 22.4762 91.2049 20.1502 91.0329 17.5419L91.053 13.843C91.0738 9.85938 90.6632 6.64362 87.7399 3.52476C86.2809 1.96816 84.5217 1.05208 81.926 1.02092C79.0831 0.986792 77.0792 2.80652 75.8466 4.26287C74.6377 5.69115 73.6903 7.94719 73.3727 10.1229C73.0471 12.3538 73.2041 15.0568 73.1802 17.3942C73.1685 18.5425 72.9972 20.0814 73.5934 21.1799C74.1175 22.1454 75.2559 22.8614 76.4013 22.7456Z" fill="white"/>
<path fill-rule="evenodd" clip-rule="evenodd" d="M166.956 4.65242C169.194 3.54931 171.513 4.9552 172.284 6.65235C173.363 9.02569 172.019 11.2045 170.234 11.9709C165.393 14.0491 162.071 7.05907 166.956 4.65242ZM164.589 15.4254C165.059 15.541 165.408 16.0404 165.917 16.5557C166.969 17.6206 171.341 22.1068 172.023 22.5023C173.277 23.2301 174.56 22.8733 175.73 22.0858C175.46 21.1577 170.04 16.6094 169.574 15.4981C175.448 14.3358 177.173 8.61639 174.843 4.6402C171.721 -0.684772 163.558 0.0885739 161.627 6.35982C161.149 7.91396 161.382 15.5939 161.37 17.4923L161.366 22.1693C161.362 22.5796 161.251 22.7914 161.604 22.852C162.038 22.9263 163.105 22.4422 163.385 22.1993C165.182 20.6444 164.314 18.4516 164.589 15.4254Z" fill="white"/>
<path fill-rule="evenodd" clip-rule="evenodd" d="M159.815 22.8439C159.355 18.7616 155.781 19.9234 153.275 19.7103C152.712 19.6624 150.666 19.8689 150.398 19.6483L150.311 19.5107C150.304 19.4928 150.284 19.4587 150.276 19.436C150.17 19.1048 150.287 17.1169 150.261 16.4565C150.221 15.4193 150.251 14.1949 150.271 13.1651C151.521 12.861 155.877 13.3717 156.664 12.972C156.554 11.3641 155.555 10.3928 154.483 10.044C153.327 9.66777 151.004 10.0308 150.33 9.83318C150.238 9.39238 150.178 5.2764 150.36 4.86472L156.171 4.83522C157.318 4.88156 158.107 4.64435 158.842 3.98161C159.373 3.50263 159.946 2.56814 159.765 1.63105L155.679 1.58542C155.136 1.58762 154.651 1.65642 154.123 1.64435C149.618 1.541 146.883 0.8839 147.06 6.51926C147.131 8.75708 146.895 19.4259 147.176 20.5918C147.885 23.5229 151.599 22.9498 154.094 22.909C155.084 22.8928 155.955 22.9647 156.939 22.9133C157.808 22.8678 159.013 23.0466 159.815 22.8439Z" fill="white"/>
<path fill-rule="evenodd" clip-rule="evenodd" d="M146.009 1.69043L140.263 1.64938C138.052 1.64801 136.228 2.02605 134.318 3.02577C125.415 7.68415 127.231 20.2865 137.125 22.5913C138.998 23.0274 140.779 22.8384 142.767 22.9153C143.204 22.9322 143.694 22.9151 144.16 22.9097C145.744 22.8913 146.418 23.3634 145.803 21.7403C144.788 19.0656 141.773 19.8181 139.916 19.7072C136.197 19.4851 133.206 17.9555 132.032 14.1762C130.875 10.4553 133.116 7.01856 136.476 5.57078C140.426 3.86872 142.821 5.9459 145.034 3.98847C145.602 3.48656 146.11 2.64503 146.009 1.69043Z" fill="white"/>
<path fill-rule="evenodd" clip-rule="evenodd" d="M96.5611 4.77842C96.8259 5.85353 96.3977 21.4584 96.7077 22.8368C100.508 22.3025 99.741 19.3514 99.8176 17.3536C99.8862 15.5609 99.6977 5.15783 99.8816 4.9101C100.054 4.67848 100.667 4.77799 100.852 4.78346C101.61 4.80596 103.553 4.80363 104.147 4.57176C105.489 4.04753 106.231 2.91902 106.19 1.61115C105.821 1.487 92.92 1.48339 90.9967 1.51079C90.1666 1.52257 90.0972 1.5677 90.3619 2.46813C91.2186 5.38217 94.5152 4.67656 96.5611 4.77842Z" fill="white"/>
<path d="M113.821 121.908L90.8609 91.2944C102.397 90.9616 114.376 82.7535 114.376 67.1137C114.376 50.2538 105.613 39.8273 85.8695 39.8273H59.5814V121.908H71.5608V83.8627H71.7826L98.8472 121.908H113.821ZM71.5608 82.1989V50.8084H84.2057C94.854 50.8084 102.397 56.6872 102.397 66.1154C102.397 76.7638 94.2994 82.1989 80.3235 82.1989H71.5608Z" fill="white"/>
<path d="M169.143 121.908V110.927H136.865V85.9702H169.143V74.9891H136.865V50.8084H169.143V39.8273H124.886V121.908H169.143Z" fill="white"/>
<path d="M203.254 121.908V50.8084H219.005V39.8273H175.524V50.8084H191.275V121.908H203.254Z" fill="white"/>
<path d="M280.813 121.908L257.852 91.2944C269.388 90.9616 281.368 82.7535 281.368 67.1137C281.368 50.2538 272.605 39.8273 252.861 39.8273H226.573V121.908H238.552V83.8627H238.774L265.839 121.908H280.813ZM238.552 82.1989V50.8084H251.197C261.846 50.8084 269.388 56.6872 269.388 66.1154C269.388 76.7638 261.291 82.1989 247.315 82.1989H238.552Z" fill="white"/>
<path d="M331.587 112.48C312.841 112.48 300.862 97.0622 300.862 80.5351C300.862 68.3338 309.957 49.2555 332.141 49.2555C349.445 49.2555 362.312 64.1189 362.312 81.0897C362.312 96.0639 350.998 112.48 331.587 112.48ZM374.291 80.3132C374.291 57.4636 355.656 38.2744 331.254 38.2744C308.183 38.2744 288.882 56.5763 288.882 81.7552C288.882 103.939 308.183 123.461 330.921 123.461C355.102 123.461 374.291 105.159 374.291 80.3132Z" fill="white"/>
<path d="M397.108 121.908V86.4139H426.613V75.4327H397.108V50.8084H426.613V39.8273H385.128V121.908H397.108Z" fill="white"/>
<path d="M451.173 121.908V39.8273H439.193V121.908H451.173Z" fill="white"/>
<path d="M529.132 121.908L501.956 80.7569L529.353 39.8273H515.156L494.635 70.885L474.337 39.8273H460.028L487.204 80.7569L460.028 121.908H474.004L494.635 90.6288L515.045 121.908H529.132Z" fill="white"/>
<path fill-rule="evenodd" clip-rule="evenodd" d="M96.6778 126.114L75.7663 96.7178V126.114H55.3759V35.6218H85.8695C96.4502 35.6218 104.819 38.4248 110.518 44.192C116.207 49.9485 118.582 57.9968 118.582 67.1137C118.582 82.0772 109.112 91.2413 98.3972 94.3335L120.68 124.044V35.6218H252.861C263.442 35.6218 271.81 38.4248 277.509 44.192C283.198 49.9485 285.573 57.9968 285.573 67.1137C285.573 82.0772 276.103 91.2413 265.389 94.3335L289.224 126.114H263.669L242.758 96.7178V126.114H222.367V55.0139H207.46V126.114H187.07V55.0139H141.071V70.7836H173.348V90.1757H141.071V106.722H173.348V126.114H96.6778ZM238.552 83.8627H238.774L265.839 121.908H280.813L257.852 91.2944C259.458 91.248 261.073 91.0491 262.663 90.6987C272.491 88.5322 281.368 80.5762 281.368 67.1137C281.368 50.2538 272.605 39.8273 252.861 39.8273H226.573V121.908H238.552V83.8627ZM238.552 82.1989H247.315C261.291 82.1989 269.388 76.7638 269.388 66.1154C269.388 56.6872 261.846 50.8084 251.197 50.8084H238.552V82.1989ZM242.758 77.9934H247.315C253.86 77.9934 258.378 76.704 261.151 74.7264C263.703 72.9061 265.183 70.2247 265.183 66.1154C265.183 62.6242 263.833 60.0011 261.613 58.1731C259.313 56.2795 255.782 55.0139 251.197 55.0139H242.758V77.9934ZM90.8609 91.2944C92.4669 91.248 94.0814 91.0491 95.671 90.6987C105.5 88.5322 114.376 80.5762 114.376 67.1137C114.376 50.2538 105.613 39.8273 85.8695 39.8273H59.5814V121.908H71.5608V83.8627H71.7826L98.8472 121.908H113.821L90.8609 91.2944ZM71.5608 82.1989H80.3235C94.2994 82.1989 102.397 76.7638 102.397 66.1154C102.397 56.6872 94.854 50.8084 84.2057 50.8084H71.5608V82.1989ZM75.7663 77.9934H80.3235C86.8685 77.9934 91.3863 76.704 94.159 74.7264C96.7113 72.9061 98.1911 70.2247 98.1911 66.1154C98.1911 62.6242 96.8417 60.0011 94.6213 58.1731C92.3212 56.2795 88.7901 55.0139 84.2057 55.0139H75.7663V77.9934ZM169.143 110.927V121.908H124.886V39.8273H169.143V50.8084H136.865V74.9891H169.143V85.9702H136.865V110.927H169.143ZM203.254 121.908H191.275V50.8084H175.524V39.8273H219.005V50.8084H203.254V121.908ZM401.313 126.114H380.923V35.6218H430.818V55.0139H401.313V71.2272H430.818V90.6194H401.313V126.114ZM397.108 121.908H385.128V39.8273H426.613V50.8084H397.108V75.4327H426.613V86.4139H397.108V121.908ZM434.988 126.114V35.6218H476.612L494.654 63.2272L512.894 35.6218H537.229L507.006 80.7727L536.949 126.114H512.767L494.616 98.2958L476.268 126.114H434.988ZM455.378 121.318L482.16 80.7632L455.378 40.427V121.318ZM487.204 80.7569L460.028 121.908H474.004L494.635 90.6288L515.045 121.908H529.132L501.956 80.7569L529.353 39.8273H515.156L494.635 70.885L474.337 39.8273H460.028L487.204 80.7569ZM305.067 80.5351C305.067 95.1598 315.563 108.275 331.587 108.275C348.183 108.275 358.106 94.2656 358.106 81.0897C358.106 66.1117 346.806 53.461 332.141 53.461C322.416 53.461 315.771 57.5786 311.464 62.9505C307.045 68.4616 305.067 75.3419 305.067 80.5351ZM331.254 34.0689C357.95 34.0689 378.497 55.1124 378.497 80.3132C378.497 107.553 357.353 127.667 330.921 127.667C305.867 127.667 284.677 106.269 284.677 81.7552C284.677 54.2608 305.853 34.0689 331.254 34.0689ZM451.173 39.8273V121.908H439.193V39.8273H451.173ZM331.587 112.48C312.841 112.48 300.862 97.0622 300.862 80.5351C300.862 68.3338 309.957 49.2555 332.141 49.2555C349.445 49.2555 362.312 64.1189 362.312 81.0897C362.312 96.0639 350.998 112.48 331.587 112.48ZM374.291 80.3132C374.291 57.4636 355.656 38.2744 331.254 38.2744C308.183 38.2744 288.882 56.5763 288.882 81.7552C288.882 103.939 308.183 123.461 330.921 123.461C355.102 123.461 374.291 105.159 374.291 80.3132Z" fill="white"/>
<path d="M55.648 172.018L59.6432 175.466C60.6105 174.836 61.5357 174.541 62.1245 174.331C72.0495 171.093 80.7549 166.088 86.5165 159.191L83.5305 154.439C78.1475 160.999 68.7692 166.382 61.9142 168.359V146.49C61.9142 144.85 62.0824 143.336 62.3348 141.696H55.7321C55.9844 142.916 56.1947 144.892 56.1947 146.49V169.284C56.1947 170.251 56.1527 170.966 55.648 172.018Z" fill="white"/>
<path d="M99.7638 169.663C99.7638 171.345 99.5956 173.868 99.3433 175.55H105.904C105.736 173.826 105.525 170.882 105.525 169.663V157.761C110.067 159.317 116.376 161.756 120.707 164.027L123.104 158.224C119.235 156.331 111.161 153.345 105.525 151.705V145.481C105.525 143.757 105.736 141.906 105.904 140.434H99.3433C99.6377 141.906 99.7638 144.009 99.7638 145.481V169.663Z" fill="white"/>
<path d="M130.969 143.883C131.053 145.06 131.053 146.785 131.053 147.962V168.527C131.053 170.546 130.927 174.205 130.927 174.415H136.73C136.73 174.289 136.73 173.322 136.688 172.144H156.959C156.959 173.364 156.917 174.331 156.917 174.415H162.72C162.72 174.247 162.636 170.209 162.636 168.569V147.962C162.636 146.701 162.636 145.145 162.72 143.883C161.206 143.967 159.608 143.967 158.557 143.967H135.427C134.291 143.967 132.693 143.925 130.969 143.883ZM136.688 149.308H157.001V166.761H136.688V149.308Z" fill="white"/>
<path d="M202.168 145.691L198.047 143.042C196.911 143.336 195.565 143.378 194.724 143.378H175.295C173.907 143.378 171.51 143.168 170.248 143.042V148.972C171.342 148.887 173.36 148.803 175.253 148.803H194.85C194.304 152.378 192.706 157.172 189.93 160.663C186.524 164.91 181.771 168.569 173.444 170.546L178.028 175.55C185.514 173.153 191.108 168.99 194.935 163.943C198.425 159.275 200.276 152.757 201.243 148.635C201.453 147.752 201.79 146.532 202.168 145.691Z" fill="white"/>
<path d="M207.571 161.714L210.052 166.677C213.711 165.541 218.421 163.607 222.122 161.756V172.859C222.122 174.331 221.996 176.56 221.912 177.401H228.136C227.883 176.56 227.841 174.331 227.841 172.859V158.434C231.584 155.953 235.285 152.967 237.262 150.78L233.098 146.701C230.953 149.434 226.706 153.219 222.627 155.7C219.304 157.719 213.038 160.537 207.571 161.714Z" fill="white"/>
<path d="M263.42 148.719L258.415 150.359C259.467 152.546 261.317 157.635 261.822 159.696L266.869 157.929C266.28 155.995 264.219 150.528 263.42 148.719ZM278.938 151.789L273.051 149.897C272.546 155.154 270.527 160.747 267.668 164.322C264.177 168.695 258.331 171.892 253.705 173.111L258.121 177.611C263.042 175.761 268.298 172.228 272.21 167.181C275.069 163.481 276.836 159.107 277.929 154.859C278.181 154.018 278.434 153.135 278.938 151.789ZM253.663 150.948L248.617 152.757C249.626 154.607 251.729 160.2 252.444 162.471L257.574 160.537C256.733 158.182 254.715 153.093 253.663 150.948Z" fill="white"/>
<path d="M305.391 140.897L299.251 138.878C298.872 140.308 297.989 142.243 297.359 143.294C295.256 146.911 291.597 152.336 284.237 156.836L288.947 160.326C293.069 157.509 296.728 153.808 299.545 150.149H311.363C310.69 153.303 308.251 158.35 305.391 161.63C301.732 165.794 297.064 169.452 288.443 172.018L293.405 176.476C301.312 173.364 306.4 169.495 310.396 164.616C314.181 159.906 316.578 154.313 317.713 150.57C318.05 149.518 318.638 148.341 319.101 147.542L314.811 144.892C313.844 145.187 312.456 145.397 311.153 145.397H302.7C302.742 145.313 302.784 145.271 302.826 145.187C303.33 144.261 304.424 142.369 305.391 140.897Z" fill="white"/>
<path d="M354.206 145.187L350.757 142.621C349.916 142.916 348.234 143.168 346.425 143.168H331.58C330.318 143.168 327.753 143.042 326.617 142.874V148.845C327.501 148.803 329.814 148.551 331.58 148.551H345.837C344.911 151.537 342.346 155.7 339.57 158.855C335.617 163.27 329.099 168.401 322.328 170.924L326.659 175.466C332.421 172.733 338.014 168.359 342.472 163.649C346.425 167.476 350.336 171.765 353.07 175.55L357.864 171.387C355.383 168.359 350.294 162.976 346.131 159.359C348.949 155.574 351.304 151.074 352.734 147.794C353.112 146.953 353.869 145.649 354.206 145.187Z" fill="white"/>
<path fill-rule="evenodd" clip-rule="evenodd" d="M298.885 138.205L306.207 140.612L305.83 141.186C305.042 142.385 304.166 143.872 303.602 144.871H311.153C312.409 144.871 313.745 144.667 314.658 144.389L314.886 144.32L319.812 147.363L319.556 147.805C319.104 148.586 318.535 149.726 318.215 150.728C317.065 154.516 314.642 160.171 310.805 164.945L310.802 164.949C306.745 169.903 301.58 173.823 293.598 176.965L293.296 177.084L287.393 171.782L288.293 171.514C296.815 168.978 301.399 165.376 304.996 161.283C307.613 158.28 309.875 153.754 310.696 150.675H299.803C296.98 154.302 293.342 157.959 289.244 160.76L288.935 160.972L283.298 156.794L283.963 156.387C291.22 151.95 294.825 146.606 296.904 143.03L296.908 143.024C297.518 142.007 298.379 140.118 298.743 138.744L298.885 138.205ZM299.603 139.547C299.16 140.944 298.387 142.601 297.811 143.561C295.748 147.11 292.192 152.396 285.17 156.873L288.958 159.68C292.901 156.927 296.409 153.361 299.129 149.828L299.287 149.623H312.013L311.877 150.259C311.184 153.505 308.702 158.632 305.787 161.976L305.786 161.977C302.194 166.064 297.642 169.668 289.485 172.248L293.514 175.867C301.172 172.806 306.105 169.025 309.988 164.284C313.719 159.64 316.089 154.114 317.21 150.417L317.211 150.413L317.213 150.409C317.505 149.495 317.975 148.502 318.396 147.724L314.733 145.462C313.732 145.737 312.404 145.923 311.153 145.923H301.849L302.229 145.162C302.265 145.09 302.302 145.036 302.323 145.004L302.325 145C302.346 144.969 302.351 144.961 302.355 144.952L302.36 144.943L302.364 144.935C302.81 144.118 303.708 142.557 304.58 141.184L299.603 139.547ZM98.702 139.909H106.493L106.426 140.494C106.257 141.971 106.051 143.792 106.051 145.481V151.312C111.683 152.978 119.517 155.884 123.335 157.751L123.779 157.968L120.973 164.76L120.463 164.493C116.383 162.354 110.514 160.055 106.051 158.499V169.663C106.051 170.855 106.259 173.777 106.427 175.499L106.483 176.076H98.7328L98.8234 175.472C99.0714 173.819 99.2381 171.322 99.2381 169.663V145.481C99.2381 144.026 99.1126 141.962 98.8278 140.538L98.702 139.909ZM99.9696 140.96C100.194 142.403 100.289 144.188 100.289 145.481V169.663C100.289 171.177 100.156 173.357 99.9459 175.025H105.327C105.17 173.276 105 170.78 105 169.663V157.025L105.696 157.264C110.072 158.763 116.1 161.086 120.44 163.297L122.429 158.482C118.445 156.601 110.787 153.784 105.378 152.21L105 152.1V145.481C105 143.948 105.162 142.323 105.315 140.96H99.9696ZM55.0865 141.17H62.9475L62.8543 141.776C62.6041 143.403 62.4399 144.887 62.4399 146.49V167.652C69.1417 165.552 77.9931 160.359 83.1241 154.105L83.5872 153.541L87.1648 159.235L86.9199 159.528C81.0757 166.524 72.274 171.571 62.2943 174.828C62.2386 174.848 62.1808 174.869 62.121 174.89C61.5326 175.097 60.7491 175.373 59.9304 175.907L59.5991 176.123L55 172.153L55.1741 171.79C55.6297 170.841 55.669 170.217 55.669 169.284V146.49C55.669 144.926 55.462 142.985 55.2173 141.803L55.0865 141.17ZM56.3634 142.222C56.5677 143.459 56.7204 145.111 56.7204 146.49V169.284C56.7204 170.176 56.6849 170.912 56.2873 171.875L59.6948 174.816C60.5006 174.344 61.2547 174.079 61.7709 173.898C61.8334 173.876 61.8924 173.855 61.9477 173.836L61.9545 173.833L61.9614 173.831C71.6874 170.658 80.1883 165.792 85.8669 159.145L83.4687 155.329C77.9463 161.731 68.8043 166.919 62.0598 168.864L61.3885 169.058V146.49C61.3885 145.019 61.521 143.651 61.7252 142.222H56.3634ZM350.847 142.033L354.937 145.075L354.631 145.496C354.319 145.925 353.58 147.194 353.214 148.008C351.822 151.201 349.56 155.542 346.841 159.282C350.956 162.91 355.844 168.092 358.271 171.054L358.595 171.449L352.981 176.324L352.644 175.858C350.022 172.228 346.296 168.115 342.486 164.396C338.055 168.995 332.559 173.249 326.885 175.941L326.541 176.104L321.397 170.71L322.144 170.432C328.816 167.945 335.266 162.874 339.176 158.507C341.713 155.624 344.053 151.906 345.102 149.077H331.58C330.384 149.077 328.973 149.191 327.893 149.279C327.383 149.321 326.947 149.356 326.642 149.371L326.092 149.397V142.264L326.694 142.354C327.794 142.516 330.33 142.642 331.58 142.642H346.425C348.203 142.642 349.82 142.392 350.583 142.125L350.847 142.033ZM350.659 143.204C349.692 143.483 348.097 143.694 346.425 143.694H331.58C330.494 143.694 328.449 143.602 327.143 143.467V148.283C327.313 148.27 327.504 148.255 327.71 148.238C328.806 148.15 330.345 148.025 331.58 148.025H346.55L346.339 148.707C345.384 151.786 342.771 156.014 339.965 159.202L339.962 159.205C336.11 163.508 329.85 168.485 323.251 171.131L326.776 174.827C332.347 172.118 337.756 167.867 342.09 163.287L342.456 162.901L342.838 163.271C346.644 166.956 350.421 171.077 353.157 174.779L357.132 171.327C354.567 168.264 349.751 163.2 345.786 159.756L345.418 159.436L345.709 159.045C348.496 155.301 350.833 150.839 352.252 147.584L352.254 147.578C352.559 146.9 353.098 145.937 353.492 145.311L350.659 143.204ZM169.722 142.461L170.3 142.519C171.565 142.645 173.937 142.853 175.295 142.853H194.724C195.559 142.853 196.848 142.81 197.915 142.533L198.137 142.475L202.833 145.494L202.647 145.907C202.291 146.7 201.963 147.879 201.754 148.757C200.786 152.884 198.916 159.496 195.356 164.258L195.353 164.261C191.459 169.396 185.774 173.622 178.189 176.051L177.868 176.154L172.452 170.241L173.323 170.034C181.533 168.086 186.184 164.493 189.519 160.335C192.069 157.128 193.613 152.763 194.23 149.329H175.253C173.372 149.329 171.367 149.413 170.289 149.496L169.722 149.539V142.461ZM170.774 143.621V148.409C171.931 148.338 173.638 148.278 175.253 148.278H195.463L195.37 148.883C194.814 152.518 193.19 157.407 190.341 160.99L190.34 160.992C186.982 165.178 182.343 168.795 174.43 170.843L178.188 174.946C185.413 172.566 190.81 168.512 194.515 163.627C197.934 159.053 199.765 152.63 200.731 148.515L200.731 148.513C200.911 147.758 201.188 146.732 201.514 145.896L197.952 143.606C196.802 143.868 195.519 143.904 194.724 143.904H175.295C174.071 143.904 172.1 143.745 170.774 143.621ZM163.284 143.325L163.245 143.918C163.162 145.159 163.162 146.696 163.162 147.962V168.569C163.162 169.384 163.183 170.799 163.204 172.035C163.214 172.652 163.225 173.228 163.233 173.659C163.241 174.085 163.246 174.37 163.246 174.415V174.941H156.391V174.415C156.391 174.392 156.393 174.321 156.397 174.214C156.401 174.085 156.407 173.903 156.412 173.692C156.42 173.411 156.427 173.061 156.431 172.67H137.231C137.256 173.599 137.256 174.307 137.256 174.415V174.941H130.401V174.415C130.401 174.358 130.409 174.08 130.421 173.668C130.433 173.261 130.449 172.722 130.464 172.135C130.496 170.942 130.527 169.529 130.527 168.527V147.962C130.527 146.778 130.527 145.075 130.444 143.92L130.403 143.343L130.982 143.357C131.139 143.361 131.295 143.365 131.45 143.369C132.996 143.407 134.402 143.441 135.427 143.441H158.557C159.61 143.441 161.194 143.441 162.691 143.358L163.284 143.325ZM131.526 144.422C131.579 145.555 131.579 146.957 131.579 147.95V168.527C131.579 169.544 131.547 170.97 131.515 172.163C131.499 172.761 131.484 173.301 131.472 173.706C131.47 173.77 131.468 173.832 131.466 173.889H136.202C136.198 173.474 136.188 172.855 136.163 172.163L136.143 171.618H157.484V172.144C157.484 172.76 157.474 173.311 157.463 173.719C157.462 173.779 157.46 173.836 157.459 173.889H162.186C162.184 173.829 162.183 173.764 162.182 173.696L162.182 173.671C162.174 173.243 162.163 172.671 162.153 172.053C162.132 170.819 162.111 169.395 162.111 168.569V147.952C162.111 146.884 162.111 145.587 162.163 144.436C160.82 144.493 159.477 144.493 158.561 144.493H135.427C134.41 144.493 133.029 144.459 131.526 144.422ZM233.047 145.914L237.99 150.758L237.652 151.132C235.676 153.319 232.047 156.254 228.367 158.716V172.859C228.367 173.591 228.378 174.507 228.419 175.34C228.461 176.195 228.534 176.9 228.639 177.25L228.842 177.927H221.331L221.389 177.349C221.471 176.525 221.596 174.314 221.596 172.859V162.601C218.005 164.345 213.65 166.11 210.208 167.179L209.782 167.311L206.797 161.343L207.46 161.2C212.861 160.037 219.072 157.245 222.353 155.251C226.386 152.799 230.583 149.054 232.685 146.376L233.047 145.914ZM233.143 147.481C230.865 150.219 226.806 153.774 222.9 156.15C219.669 158.113 213.71 160.813 208.341 162.079L210.322 166.041C213.885 164.9 218.35 163.055 221.887 161.286L222.648 160.906V172.859C222.648 174.083 222.562 175.819 222.483 176.875H227.495C227.434 176.438 227.395 175.917 227.369 175.393C227.326 174.534 227.316 173.598 227.316 172.859V158.152L227.551 157.996C231.066 155.665 234.524 152.9 236.528 150.797L233.143 147.481ZM263.709 148.072L263.901 148.507C264.707 150.332 266.776 155.819 267.371 157.776L267.518 158.259L261.449 160.383L261.311 159.821C260.816 157.799 258.979 152.745 257.942 150.587L257.682 150.047L263.709 148.072ZM259.141 150.675C260.132 152.888 261.579 156.86 262.184 159.012L266.213 157.602C265.542 155.554 263.945 151.314 263.127 149.369L259.141 150.675ZM136.163 148.782H157.527V167.287H136.163V148.782ZM137.214 149.834V166.235H156.475V149.834H137.214ZM272.59 149.196L279.624 151.458L279.431 151.974C278.982 153.169 278.737 153.991 278.508 154.758C278.484 154.839 278.46 154.92 278.435 155.001C277.331 159.289 275.54 163.731 272.626 167.503L272.625 167.503C268.65 172.633 263.31 176.221 258.306 178.103L257.986 178.224L252.696 172.834L253.571 172.603C258.113 171.406 263.851 168.261 267.257 163.994L267.257 163.993C270.04 160.515 272.03 155.026 272.527 149.847L272.59 149.196ZM273.504 150.595C272.895 155.738 270.897 161.127 268.078 164.65C264.717 168.861 259.256 171.983 254.7 173.374L258.255 176.997C262.999 175.147 268.031 171.715 271.794 166.86C274.596 163.233 276.338 158.932 277.42 154.728L277.423 154.718L277.426 154.708C277.45 154.625 277.475 154.542 277.501 154.457C277.697 153.8 277.911 153.083 278.256 152.122L273.504 150.595ZM253.928 150.295L254.135 150.717C255.199 152.888 257.226 157.998 258.069 160.36L258.243 160.846L252.109 163.159L251.942 162.629C251.229 160.365 249.139 154.812 248.155 153.008L247.861 152.469L253.928 150.295ZM249.356 153.05C250.37 155.14 252.01 159.486 252.774 161.785L256.903 160.228C256.046 157.89 254.399 153.754 253.394 151.603L249.356 153.05Z" fill="white"/>
<rect width="15" height="180" fill="#FF0000" fill-opacity="0.73"/>
</svg>
