<svg width="1920" height="1080" viewBox="0 0 1920 1080" fill="none" xmlns="http://www.w3.org/2000/svg">
<rect width="1920" height="1080" fill="#303030"/>
<path d="M1205.48 489.236C1205.48 490.087 1204.79 490.777 1203.94 490.777C1203.09 490.777 1202.4 490.087 1202.4 489.236C1202.4 488.385 1203.09 487.696 1203.94 487.696C1204.79 487.696 1205.48 488.385 1205.48 489.236Z" fill="white" stroke="white" stroke-width="2"/>
<path d="M1200.4 494.318C1200.4 495.169 1199.71 495.859 1198.85 495.859C1198 495.859 1197.31 495.169 1197.31 494.318C1197.31 493.467 1198 492.777 1198.85 492.777C1199.71 492.777 1200.4 493.467 1200.4 494.318Z" fill="white" stroke="white" stroke-width="2"/>
<path d="M1210.56 494.318C1210.56 495.169 1209.87 495.859 1209.02 495.859C1208.17 495.859 1207.48 495.169 1207.48 494.318C1207.48 493.467 1208.17 492.777 1209.02 492.777C1209.87 492.777 1210.56 493.467 1210.56 494.318Z" fill="white" stroke="white" stroke-width="2"/>
<path d="M1205.48 499.4C1205.48 500.251 1204.79 500.941 1203.94 500.941C1203.09 500.941 1202.4 500.251 1202.4 499.4C1202.4 498.549 1203.09 497.859 1203.94 497.859C1204.79 497.859 1205.48 498.549 1205.48 499.4Z" fill="white" stroke="white" stroke-width="2"/>
<path fill-rule="evenodd" clip-rule="evenodd" d="M712.787 470.775C712.653 470.138 712.704 465.871 712.759 465.125C713.62 465.002 714.373 465.025 715.132 465.047C715.303 465.052 715.475 465.058 715.649 465.061C715.991 465.068 716.404 465.055 716.851 465.041C718.335 464.995 720.189 464.938 721.031 465.551C722.561 466.665 722.741 468.863 721.264 470.127C720.46 470.815 719.517 470.832 718.453 470.807C717.444 470.784 716.464 470.786 715.484 470.788L715.484 470.788L715.483 470.788C714.591 470.791 713.7 470.793 712.787 470.775ZM712.812 461.846C712.79 461.762 712.688 456.831 712.794 456.202C712.797 456.185 712.801 456.165 712.805 456.148C712.807 456.137 712.809 456.127 712.811 456.118L712.856 455.953C713.323 455.889 716.534 455.874 716.911 455.981C719.859 456.821 719.74 460.932 717.096 461.668C716.141 461.934 714.876 461.897 713.79 461.865C713.44 461.855 713.108 461.845 712.812 461.846ZM710.174 473.887L710.082 473.878C709.983 473.316 709.866 472.714 709.73 472.072C709.491 470.623 709.515 469.384 709.541 468.062C709.548 467.736 709.554 467.405 709.557 467.065L709.547 457.2C709.539 455.304 709.536 454.296 710.908 453.277C711.9 452.541 713.402 452.625 714.71 452.697C715.02 452.715 715.32 452.731 715.599 452.736C717.59 452.772 718.415 452.964 719.712 453.845C720.842 454.614 721.8 455.86 722.15 457.639C722.502 459.422 722.244 460.037 721.916 460.816C721.767 461.172 721.603 461.562 721.476 462.114C721.588 462.232 721.815 462.357 722.103 462.515C722.602 462.791 723.283 463.166 723.853 463.778C726.342 466.451 725.855 470.181 723.53 472.414C721.767 474.108 719.746 474.044 717.413 473.969L717.408 473.969C717.294 473.965 717.18 473.962 717.066 473.958C716.17 473.931 715.269 473.95 714.366 473.968C712.971 473.996 711.57 474.025 710.174 473.887Z" fill="white"/>
<path fill-rule="evenodd" clip-rule="evenodd" d="M766.847 455.756C769.149 454.745 771.565 455.141 773.288 455.967C775.186 456.878 776.112 457.986 777.269 460.181C778.309 462.155 777.742 465.232 777.029 466.65C774.992 470.697 770.296 472.324 766.256 470.343C762.4 468.451 760.613 463.444 762.671 459.631C763.625 457.863 764.624 456.732 766.847 455.756ZM766.551 452.486C765.843 452.87 764.594 452.934 762.609 454.584C761.512 455.497 760.779 456.471 760.066 457.626C757.047 462.516 758.775 469.855 764.338 472.955C773.388 477.996 783.589 469.157 780.553 459.782C779.204 455.617 775.409 452.563 771.476 452.099C770.376 451.969 767.699 451.864 766.551 452.486Z" fill="white"/>
<path fill-rule="evenodd" clip-rule="evenodd" d="M835.475 463.486C835.099 462.314 836.21 459.273 836.701 458.439C838.87 454.758 842.432 454.132 844.989 457.661C846.188 459.316 846.616 461.144 846.743 463.444C846.182 463.612 837.383 463.45 835.475 463.486ZM835.312 473.828C835.509 473.326 835.415 467.841 835.412 466.806C835.75 466.718 846.304 466.71 846.635 466.809C846.827 467.446 846.742 469.53 846.745 470.34C846.748 471.134 846.627 473.274 846.813 473.891C850.589 473.49 849.875 470.35 850.015 468.647C850.105 467.542 850.009 466.108 850.015 464.926C850.023 463.454 850.119 462.663 849.816 461.01C848.957 456.314 845.716 451.87 840.845 452.11C835.688 452.365 832.876 457.232 832.325 461.204C832.143 462.514 832.112 467.038 832.147 468.51C832.172 469.557 831.952 471.28 832.558 472.242C833.104 473.108 834.189 474.02 835.312 473.828Z" fill="white"/>
<path fill-rule="evenodd" clip-rule="evenodd" d="M730.539 463.397C730.113 460.946 732.074 455.647 735.897 455.29C740.197 454.889 742.148 461.738 741.733 463.309C741.034 463.553 734.829 463.4 733.265 463.432C732.337 463.451 731.371 463.328 730.539 463.397ZM730.401 473.746C730.499 471.766 730.462 468.703 730.4 466.76C730.712 466.617 741.241 466.598 741.687 466.72C741.886 467.412 741.745 469.394 741.752 470.215C741.76 471.104 741.664 473.077 741.828 473.828C744.965 473.476 745.205 471.15 745.033 468.542L745.053 464.843C745.074 460.859 744.663 457.644 741.74 454.525C740.281 452.968 738.521 452.052 735.926 452.021C733.083 451.987 731.079 453.807 729.846 455.263C728.637 456.691 727.69 458.947 727.373 461.123C727.047 463.354 727.204 466.057 727.18 468.394C727.168 469.542 726.997 471.081 727.593 472.18C728.117 473.145 729.256 473.861 730.401 473.746Z" fill="white"/>
<path fill-rule="evenodd" clip-rule="evenodd" d="M820.955 455.652C823.194 454.549 825.513 455.955 826.284 457.652C827.362 460.026 826.019 462.205 824.234 462.971C819.393 465.049 816.071 458.059 820.955 455.652ZM818.589 466.425C819.058 466.541 819.408 467.04 819.917 467.556C820.969 468.621 825.341 473.107 826.023 473.502C827.277 474.23 828.56 473.873 829.729 473.086C829.459 472.158 824.039 467.609 823.574 466.498C829.448 465.336 831.173 459.616 828.842 455.64C825.721 450.315 817.558 451.089 815.627 457.36C815.148 458.914 815.382 466.594 815.37 468.492L815.366 473.169C815.362 473.58 815.251 473.791 815.604 473.852C816.037 473.926 817.104 473.442 817.385 473.199C819.181 471.644 818.313 469.452 818.589 466.425Z" fill="white"/>
<path fill-rule="evenodd" clip-rule="evenodd" d="M813.815 473.844C813.355 469.762 809.781 470.923 807.275 470.71C806.711 470.662 804.666 470.869 804.397 470.648L804.311 470.511C804.304 470.493 804.283 470.459 804.276 470.436C804.17 470.105 804.287 468.117 804.261 467.456C804.22 466.419 804.251 465.195 804.27 464.165C805.521 463.861 809.877 464.372 810.664 463.972C810.554 462.364 809.554 461.393 808.482 461.044C807.326 460.668 805.004 461.031 804.33 460.833C804.238 460.392 804.178 456.276 804.36 455.865L810.171 455.835C811.318 455.882 812.107 455.644 812.842 454.982C813.373 454.503 813.946 453.568 813.765 452.631L809.679 452.585C809.136 452.588 808.65 452.656 808.123 452.644C803.618 452.541 800.883 451.884 801.06 457.519C801.131 459.757 800.894 470.426 801.176 471.592C801.885 474.523 805.599 473.95 808.093 473.909C809.084 473.893 809.955 473.965 810.939 473.913C811.808 473.868 813.013 474.047 813.815 473.844Z" fill="white"/>
<path fill-rule="evenodd" clip-rule="evenodd" d="M800.009 452.69L794.263 452.649C792.052 452.648 790.228 453.026 788.317 454.026C779.415 458.684 781.231 471.287 791.125 473.591C792.997 474.027 794.779 473.838 796.767 473.915C797.204 473.932 797.694 473.915 798.16 473.91C799.744 473.891 800.418 474.363 799.802 472.74C798.787 470.066 795.773 470.818 793.916 470.707C790.197 470.485 787.206 468.955 786.031 465.176C784.875 461.455 787.116 458.019 790.476 456.571C794.426 454.869 796.821 456.946 799.034 454.988C799.601 454.487 800.109 453.645 800.009 452.69Z" fill="white"/>
<path fill-rule="evenodd" clip-rule="evenodd" d="M750.561 455.778C750.826 456.854 750.397 472.458 750.707 473.837C754.507 473.303 753.741 470.351 753.817 468.354C753.886 466.561 753.697 456.158 753.881 455.91C754.053 455.678 754.667 455.778 754.852 455.783C755.61 455.806 757.553 455.804 758.147 455.572C759.489 455.048 760.231 453.919 760.19 452.611C759.821 452.487 746.92 452.483 744.996 452.511C744.166 452.523 744.097 452.568 744.362 453.468C745.218 456.382 748.515 455.677 750.561 455.778Z" fill="white"/>
<path fill-rule="evenodd" clip-rule="evenodd" d="M985.552 485C963.816 485 945.157 499.694 940.057 521.095C940.129 520.199 940.166 519.28 940.166 518.339C940.166 509.174 937.778 501.04 932.017 495.211C926.245 489.37 917.79 486.553 907.16 486.553H774.684V574.386L753.185 545.721C763.838 542.483 773.175 533.268 773.175 518.339C773.175 509.174 770.787 501.04 765.026 495.211C759.254 489.37 750.798 486.553 740.168 486.553H709.38V577.634H730.359V548.865L750.824 577.634H827.941V557.653H795.664V541.696H827.941V521.715H795.664V506.534H841.074V577.634H862.053V506.534H876.371V577.634H897.351V548.865L917.816 577.634H944.111L920.176 545.721C928.621 543.154 936.238 536.832 939.033 526.886C938.801 528.873 938.681 530.906 938.681 532.981C938.681 557.658 960.003 579.187 985.22 579.187C1011.81 579.187 1033.09 558.946 1033.09 531.539C1033.09 506.173 1012.41 485 985.552 485ZM734.622 528.924H730.359V506.534H738.504C743.037 506.534 746.497 507.785 748.733 509.626C750.883 511.397 752.195 513.935 752.195 517.341C752.195 521.365 750.753 523.953 748.287 525.712C745.584 527.64 741.136 528.924 734.622 528.924ZM901.613 528.924H897.351V506.534H905.496C910.028 506.534 913.488 507.785 915.724 509.626C917.875 511.397 919.187 513.935 919.187 517.341C919.187 521.365 917.745 523.953 915.278 525.712C912.575 527.64 908.128 528.924 901.613 528.924ZM959.66 531.761C959.66 526.631 961.617 519.816 965.992 514.36C970.247 509.053 976.81 504.981 986.44 504.981C1000.92 504.981 1012.11 517.477 1012.11 532.315C1012.11 545.365 1002.28 559.206 985.885 559.206C970.052 559.206 959.66 546.252 959.66 531.761Z" fill="white"/>
<path d="M1085.41 486.553H1034.93V577.634H1055.91V542.139H1085.41V522.158H1055.91V506.534H1085.41V486.553Z" fill="white"/>
<path fill-rule="evenodd" clip-rule="evenodd" d="M1131.07 486.553H1088.99V577.634H1130.73L1148.91 550.058L1166.91 577.634H1191.79L1161.66 531.999L1192.08 486.553H1167.03L1148.95 513.916L1131.07 486.553ZM1136.11 531.989L1109.97 571.563V492.628L1136.11 531.989Z" fill="white"/>
<path d="M709 622.139L712.995 625.588C713.963 624.957 714.888 624.663 715.476 624.452C725.401 621.214 734.107 616.21 739.868 609.313L736.883 604.56C731.499 611.121 722.121 616.504 715.266 618.481V596.612C715.266 594.972 715.434 593.458 715.687 591.818H709.084C709.336 593.037 709.547 595.014 709.547 596.612V619.406C709.547 620.373 709.505 621.088 709 622.139Z" fill="white"/>
<path d="M753.116 619.784C753.116 621.467 752.948 623.99 752.695 625.672H759.256C759.088 623.948 758.877 621.004 758.877 619.784V607.883C763.419 609.439 769.728 611.878 774.059 614.149L776.456 608.345C772.587 606.453 764.513 603.467 758.877 601.827V595.603C758.877 593.878 759.088 592.028 759.256 590.556H752.695C752.99 592.028 753.116 594.131 753.116 595.603V619.784Z" fill="white"/>
<path d="M784.321 594.005C784.405 595.182 784.405 596.906 784.405 598.084V618.649C784.405 620.668 784.279 624.326 784.279 624.537H790.082C790.082 624.41 790.082 623.443 790.04 622.266H810.311C810.311 623.485 810.269 624.452 810.269 624.537H816.072C816.072 624.368 815.988 620.331 815.988 618.691V598.084C815.988 596.822 815.988 595.266 816.072 594.005C814.558 594.089 812.96 594.089 811.909 594.089H788.779C787.643 594.089 786.045 594.047 784.321 594.005ZM790.04 599.43H810.353V616.883H790.04V599.43Z" fill="white"/>
<path d="M855.52 595.813L851.399 593.163C850.263 593.458 848.917 593.5 848.076 593.5H828.647C827.259 593.5 824.862 593.29 823.6 593.163V599.093C824.694 599.009 826.712 598.925 828.605 598.925H848.202C847.656 602.5 846.058 607.294 843.282 610.785C839.876 615.032 835.123 618.691 826.796 620.668L831.38 625.672C838.866 623.275 844.46 619.111 848.287 614.065C851.777 609.397 853.628 602.878 854.595 598.757C854.805 597.874 855.142 596.654 855.52 595.813Z" fill="white"/>
<path d="M860.923 611.836L863.404 616.798C867.063 615.663 871.773 613.728 875.474 611.878V622.981C875.474 624.452 875.348 626.681 875.264 627.522H881.488C881.235 626.681 881.193 624.452 881.193 622.981V608.556C884.936 606.074 888.637 603.088 890.614 600.902L886.45 596.822C884.305 599.556 880.058 603.341 875.979 605.822C872.656 607.841 866.39 610.658 860.923 611.836Z" fill="white"/>
<path d="M916.772 598.841L911.767 600.481C912.819 602.668 914.669 607.757 915.174 609.817L920.221 608.051C919.632 606.116 917.571 600.649 916.772 598.841ZM932.29 601.911L926.403 600.018C925.898 605.275 923.879 610.869 921.02 614.443C917.529 618.817 911.683 622.013 907.057 623.233L911.473 627.733C916.394 625.882 921.65 622.35 925.562 617.303C928.421 613.602 930.188 609.229 931.281 604.981C931.533 604.14 931.786 603.257 932.29 601.911ZM907.015 601.07L901.969 602.878C902.978 604.729 905.081 610.322 905.796 612.593L910.926 610.658C910.085 608.303 908.067 603.215 907.015 601.07Z" fill="white"/>
<path d="M958.743 591.019L952.603 589C952.225 590.43 951.341 592.364 950.711 593.416C948.608 597.033 944.949 602.458 937.589 606.958L942.299 610.448C946.421 607.63 950.08 603.93 952.897 600.271H964.715C964.042 603.425 961.603 608.472 958.743 611.752C955.084 615.915 950.416 619.574 941.795 622.139L946.757 626.597C954.664 623.485 959.752 619.616 963.748 614.738C967.533 610.028 969.93 604.434 971.065 600.691C971.402 599.64 971.99 598.462 972.453 597.663L968.163 595.014C967.196 595.308 965.808 595.519 964.505 595.519H956.052C956.094 595.434 956.136 595.392 956.178 595.308C956.682 594.383 957.776 592.491 958.743 591.019Z" fill="white"/>
<path d="M1007.56 595.308L1004.11 592.743C1003.27 593.037 1001.59 593.29 999.777 593.29H984.932C983.67 593.29 981.105 593.163 979.969 592.995V598.967C980.853 598.925 983.166 598.673 984.932 598.673H999.189C998.263 601.659 995.698 605.822 992.922 608.976C988.969 613.392 982.451 618.523 975.68 621.046L980.011 625.588C985.773 622.854 991.366 618.481 995.824 613.77C999.777 617.597 1003.69 621.887 1006.42 625.672L1011.22 621.509C1008.74 618.481 1003.65 613.098 999.483 609.481C1002.3 605.696 1004.66 601.196 1006.09 597.916C1006.46 597.075 1007.22 595.771 1007.56 595.308Z" fill="white"/>
</svg>
