<svg width="618" height="180" viewBox="0 0 618 180" fill="none" xmlns="http://www.w3.org/2000/svg">
<rect width="15" height="180" fill="#FF0000" fill-opacity="0.73"/>
<path d="M611.477 38.2364C611.477 39.0874 610.787 39.7772 609.936 39.7772C609.085 39.7772 608.396 39.0874 608.396 38.2364C608.396 37.3854 609.085 36.6956 609.936 36.6956C610.787 36.6956 611.477 37.3854 611.477 38.2364Z" fill="white" stroke="white" stroke-width="2"/>
<path d="M606.395 43.3179C606.395 44.1689 605.705 44.8588 604.854 44.8588C604.003 44.8588 603.313 44.1689 603.313 43.3179C603.313 42.467 604.003 41.7771 604.854 41.7771C605.705 41.7771 606.395 42.467 606.395 43.3179Z" fill="white" stroke="white" stroke-width="2"/>
<path d="M616.558 43.3179C616.558 44.1689 615.868 44.8588 615.017 44.8588C614.166 44.8588 613.477 44.1689 613.477 43.3179C613.477 42.467 614.166 41.7771 615.017 41.7771C615.868 41.7771 616.558 42.467 616.558 43.3179Z" fill="white" stroke="white" stroke-width="2"/>
<path d="M611.477 48.3997C611.477 49.2507 610.787 49.9406 609.936 49.9406C609.085 49.9406 608.396 49.2507 608.396 48.3997C608.396 47.5487 609.085 46.8589 609.936 46.8589C610.787 46.8589 611.477 47.5487 611.477 48.3997Z" fill="white" stroke="white" stroke-width="2"/>
<path fill-rule="evenodd" clip-rule="evenodd" d="M118.787 19.7752C118.653 19.1377 118.704 14.871 118.759 14.1248C119.62 14.0021 120.373 14.0246 121.132 14.0473C121.303 14.0524 121.475 14.0575 121.649 14.061C121.991 14.0678 122.404 14.055 122.851 14.0412C124.335 13.9951 126.189 13.9377 127.031 14.5507C128.561 15.6653 128.741 17.8629 127.264 19.1271C126.46 19.8154 125.517 19.8324 124.453 19.8073C123.444 19.7835 122.464 19.786 121.484 19.7884L121.484 19.7884L121.483 19.7884C120.591 19.7906 119.7 19.7928 118.787 19.7752ZM118.812 10.8462C118.79 10.7624 118.688 5.83139 118.794 5.20206C118.797 5.18462 118.801 5.1655 118.805 5.14754C118.807 5.13726 118.809 5.12735 118.811 5.11837L118.856 4.95346C119.323 4.88908 122.534 4.87368 122.911 4.98128C125.859 5.82116 125.74 9.93184 123.096 10.6681C122.141 10.9338 120.876 10.8968 119.79 10.865C119.44 10.8547 119.108 10.845 118.812 10.8462ZM116.174 22.887L116.082 22.8779C115.983 22.3157 115.866 21.7142 115.73 21.0716C115.491 19.6226 115.515 18.3838 115.541 17.0617C115.548 16.736 115.554 16.4052 115.557 16.0649L115.547 6.2002C115.539 4.3041 115.536 3.29566 116.908 2.27734C117.9 1.54108 119.402 1.62466 120.71 1.69747C121.02 1.71475 121.32 1.73143 121.599 1.73639C123.59 1.77183 124.415 1.96381 125.712 2.84533C126.842 3.61375 127.8 4.86026 128.15 6.63896C128.502 8.42217 128.244 9.03694 127.916 9.81643C127.767 10.1722 127.603 10.5623 127.476 11.1135C127.588 11.2318 127.815 11.357 128.103 11.5155C128.602 11.7907 129.283 12.166 129.853 12.7785C132.342 15.4512 131.855 19.1805 129.53 21.4144C127.767 23.1084 125.746 23.0438 123.413 22.9691L123.408 22.969C123.294 22.9653 123.18 22.9617 123.066 22.9582C122.17 22.9312 121.269 22.9496 120.366 22.968C118.971 22.9965 117.57 23.025 116.174 22.887Z" fill="white"/>
<path fill-rule="evenodd" clip-rule="evenodd" d="M172.847 4.75595C175.149 3.74464 177.565 4.14055 179.288 4.96721C181.186 5.87818 182.112 6.98624 183.269 9.18113C184.309 11.1553 183.742 14.2324 183.029 15.6502C180.992 19.697 176.296 21.3237 172.256 19.3426C168.4 17.4513 166.613 12.4444 168.671 8.63067C169.625 6.86272 170.624 5.73223 172.847 4.75595ZM172.551 1.48646C171.843 1.87009 170.594 1.93395 168.609 3.58448C167.512 4.49686 166.779 5.47127 166.066 6.62648C163.047 11.5161 164.775 18.8554 170.338 21.9547C179.388 26.9963 189.589 18.1574 186.553 8.78224C185.204 4.61741 181.409 1.56315 177.476 1.09914C176.376 0.969374 173.699 0.863522 172.551 1.48646Z" fill="white"/>
<path fill-rule="evenodd" clip-rule="evenodd" d="M241.475 12.4856C241.099 11.3138 242.21 8.27269 242.701 7.43907C244.87 3.7576 248.432 3.13171 250.989 6.66149C252.188 8.31633 252.616 10.1441 252.743 12.4442C252.182 12.6117 243.383 12.4496 241.475 12.4856ZM241.312 22.8275C241.509 22.3263 241.415 16.8414 241.412 15.8055C241.75 15.7182 252.304 15.7102 252.635 15.8087C252.827 16.446 252.742 18.5295 252.745 19.3398C252.748 20.134 252.627 22.2739 252.813 22.8906C256.589 22.4901 255.875 19.3496 256.015 17.6465C256.105 16.5416 256.009 15.1081 256.015 13.9258C256.023 12.4541 256.119 11.6631 255.816 10.0098C254.957 5.31425 251.716 0.869872 246.845 1.1104C241.688 1.36506 238.876 6.23221 238.325 10.2038C238.143 11.5141 238.112 16.0377 238.147 17.5104C238.172 18.5568 237.952 20.2802 238.558 21.2418C239.104 22.1083 240.189 23.0197 241.312 22.8275Z" fill="white"/>
<path fill-rule="evenodd" clip-rule="evenodd" d="M136.539 12.3973C136.113 9.94645 138.074 4.64679 141.897 4.29024C146.197 3.88916 148.148 10.7376 147.733 12.309C147.034 12.553 140.829 12.4004 139.265 12.4323C138.337 12.4511 137.371 12.3285 136.539 12.3973ZM136.401 22.7456C136.499 20.766 136.462 17.703 136.4 15.7595C136.712 15.6172 147.241 15.5975 147.687 15.7202C147.886 16.4117 147.745 18.3938 147.752 19.2146C147.76 20.1043 147.664 22.0771 147.828 22.8283C150.965 22.4762 151.205 20.1502 151.033 17.5419L151.053 13.843C151.074 9.85938 150.663 6.64362 147.74 3.52476C146.281 1.96816 144.521 1.05208 141.926 1.02092C139.083 0.986792 137.079 2.80652 135.846 4.26287C134.637 5.69115 133.69 7.94719 133.373 10.1229C133.047 12.3538 133.204 15.0568 133.18 17.3942C133.168 18.5425 132.997 20.0814 133.593 21.1799C134.117 22.1454 135.256 22.8614 136.401 22.7456Z" fill="white"/>
<path fill-rule="evenodd" clip-rule="evenodd" d="M226.955 4.65242C229.194 3.54931 231.513 4.9552 232.284 6.65235C233.362 9.02569 232.019 11.2045 230.234 11.9709C225.393 14.0491 222.071 7.05907 226.955 4.65242ZM224.589 15.4254C225.058 15.541 225.408 16.0404 225.917 16.5557C226.969 17.6206 231.341 22.1068 232.023 22.5023C233.277 23.2301 234.56 22.8733 235.729 22.0858C235.459 21.1577 230.039 16.6094 229.574 15.4981C235.448 14.3358 237.173 8.61639 234.842 4.6402C231.721 -0.684772 223.558 0.0885739 221.627 6.35982C221.148 7.91396 221.382 15.5939 221.37 17.4923L221.366 22.1693C221.362 22.5796 221.251 22.7914 221.604 22.852C222.037 22.9263 223.104 22.4422 223.385 22.1993C225.181 20.6444 224.313 18.4516 224.589 15.4254Z" fill="white"/>
<path fill-rule="evenodd" clip-rule="evenodd" d="M219.815 22.8439C219.355 18.7616 215.781 19.9234 213.275 19.7103C212.711 19.6624 210.666 19.8689 210.397 19.6483L210.311 19.5107C210.304 19.4928 210.283 19.4587 210.276 19.436C210.17 19.1048 210.287 17.1169 210.261 16.4565C210.22 15.4193 210.251 14.1949 210.27 13.1651C211.521 12.861 215.877 13.3717 216.664 12.972C216.554 11.3641 215.554 10.3928 214.482 10.044C213.326 9.66777 211.004 10.0308 210.33 9.83318C210.238 9.39238 210.178 5.2764 210.36 4.86472L216.171 4.83522C217.318 4.88156 218.107 4.64435 218.842 3.98161C219.373 3.50263 219.946 2.56814 219.765 1.63105L215.679 1.58542C215.136 1.58762 214.65 1.65642 214.123 1.64435C209.618 1.541 206.883 0.8839 207.06 6.51926C207.131 8.75708 206.894 19.4259 207.176 20.5918C207.885 23.5229 211.599 22.9498 214.093 22.909C215.084 22.8928 215.955 22.9647 216.939 22.9133C217.808 22.8678 219.013 23.0466 219.815 22.8439Z" fill="white"/>
<path fill-rule="evenodd" clip-rule="evenodd" d="M206.009 1.69043L200.263 1.64938C198.052 1.64801 196.228 2.02605 194.317 3.02577C185.415 7.68415 187.231 20.2865 197.125 22.5913C198.997 23.0274 200.779 22.8384 202.767 22.9153C203.204 22.9322 203.694 22.9151 204.16 22.9097C205.744 22.8913 206.418 23.3634 205.802 21.7403C204.787 19.0656 201.773 19.8181 199.916 19.7072C196.197 19.4851 193.206 17.9555 192.031 14.1762C190.875 10.4553 193.116 7.01856 196.476 5.57078C200.426 3.86872 202.821 5.9459 205.034 3.98847C205.601 3.48656 206.109 2.64503 206.009 1.69043Z" fill="white"/>
<path fill-rule="evenodd" clip-rule="evenodd" d="M156.561 4.77842C156.826 5.85353 156.397 21.4584 156.707 22.8368C160.507 22.3025 159.741 19.3514 159.817 17.3536C159.886 15.5609 159.697 5.15783 159.881 4.9101C160.053 4.67848 160.667 4.77799 160.852 4.78346C161.61 4.80596 163.553 4.80363 164.147 4.57176C165.489 4.04753 166.231 2.91902 166.19 1.61115C165.821 1.487 152.92 1.48339 150.996 1.51079C150.166 1.52257 150.097 1.5677 150.362 2.46813C151.218 5.38217 154.515 4.67656 156.561 4.77842Z" fill="white"/>
<path fill-rule="evenodd" clip-rule="evenodd" d="M391.552 34C369.816 34 351.157 48.6936 346.057 70.0945C346.129 69.1989 346.166 68.2804 346.166 67.3393C346.166 58.1743 343.778 50.0401 338.017 44.2105C332.245 38.3696 323.79 35.5529 313.16 35.5529H180.684V123.386L159.185 94.7205C169.838 91.4832 179.175 82.268 179.175 67.3393C179.175 58.1743 176.787 50.0401 171.026 44.2105C165.254 38.3696 156.798 35.5529 146.168 35.5529H115.38V126.634H136.359V97.8654L156.824 126.634H233.941V106.653H201.664V90.6958H233.941V70.7146H201.664V55.534H247.074V126.634H268.053V55.534H282.371V126.634H303.351V97.8654L323.816 126.634H350.111L326.176 94.7205C334.621 92.1544 342.238 85.8323 345.033 75.8858C344.801 77.8725 344.681 79.906 344.681 81.9808C344.681 106.658 366.003 128.187 391.22 128.187C417.809 128.187 439.09 107.946 439.09 80.5388C439.09 55.1734 418.41 34 391.552 34ZM140.622 77.9245H136.359V55.534H144.504C149.037 55.534 152.497 56.7852 154.733 58.626C156.883 60.3966 158.195 62.9355 158.195 66.341C158.195 70.3652 156.753 72.9528 154.287 74.7123C151.584 76.64 147.136 77.9245 140.622 77.9245ZM307.613 77.9245H303.351V55.534H311.496C316.028 55.534 319.488 56.7852 321.724 58.626C323.875 60.3966 325.187 62.9355 325.187 66.341C325.187 70.3652 323.745 72.9528 321.278 74.7123C318.575 76.64 314.128 77.9245 307.613 77.9245ZM365.66 80.7607C365.66 75.631 367.617 68.8165 371.992 63.3603C376.247 58.053 382.81 53.9811 392.44 53.9811C406.919 53.9811 418.11 66.4768 418.11 81.3153C418.11 94.3653 408.285 108.206 391.885 108.206C376.052 108.206 365.66 95.2522 365.66 80.7607Z" fill="white"/>
<path d="M491.411 35.5529H440.927V126.634H461.906V91.1394H491.411V71.1583H461.906V55.534H491.411V35.5529Z" fill="white"/>
<path fill-rule="evenodd" clip-rule="evenodd" d="M537.07 35.5529H494.992V126.634H536.725L554.914 99.0582L572.906 126.634H597.794L567.658 80.9994L598.079 35.5529H573.034L554.954 62.9165L537.07 35.5529ZM542.105 80.9892L515.971 120.563V41.6285L542.105 80.9892Z" fill="white"/>
<path d="M115 171.139L118.995 174.588C119.963 173.957 120.888 173.663 121.476 173.452C131.401 170.214 140.107 165.21 145.868 158.313L142.883 153.56C137.499 160.121 128.121 165.504 121.266 167.481V145.612C121.266 143.972 121.434 142.458 121.687 140.818H115.084C115.336 142.037 115.547 144.014 115.547 145.612V168.406C115.547 169.373 115.505 170.088 115 171.139Z" fill="white"/>
<path d="M159.116 168.784C159.116 170.467 158.948 172.99 158.695 174.672H165.256C165.088 172.948 164.877 170.004 164.877 168.784V156.883C169.419 158.439 175.728 160.878 180.059 163.149L182.456 157.345C178.587 155.453 170.513 152.467 164.877 150.827V144.603C164.877 142.878 165.088 141.028 165.256 139.556H158.695C158.99 141.028 159.116 143.131 159.116 144.603V168.784Z" fill="white"/>
<path d="M190.321 143.005C190.405 144.182 190.405 145.906 190.405 147.084V167.649C190.405 169.668 190.279 173.326 190.279 173.537H196.082C196.082 173.41 196.082 172.443 196.04 171.266H216.311C216.311 172.485 216.269 173.452 216.269 173.537H222.072C222.072 173.368 221.988 169.331 221.988 167.691V147.084C221.988 145.822 221.988 144.266 222.072 143.005C220.558 143.089 218.96 143.089 217.909 143.089H194.779C193.643 143.089 192.045 143.047 190.321 143.005ZM196.04 148.43H216.353V165.883H196.04V148.43Z" fill="white"/>
<path d="M261.52 144.813L257.399 142.163C256.263 142.458 254.917 142.5 254.076 142.5H234.647C233.259 142.5 230.862 142.29 229.6 142.163V148.093C230.694 148.009 232.712 147.925 234.605 147.925H254.202C253.656 151.5 252.058 156.294 249.282 159.785C245.876 164.032 241.123 167.691 232.796 169.668L237.38 174.672C244.866 172.275 250.46 168.111 254.287 163.065C257.777 158.397 259.628 151.878 260.595 147.757C260.805 146.874 261.142 145.654 261.52 144.813Z" fill="white"/>
<path d="M266.923 160.836L269.404 165.798C273.063 164.663 277.773 162.728 281.474 160.878V171.981C281.474 173.452 281.348 175.681 281.264 176.522H287.488C287.235 175.681 287.193 173.452 287.193 171.981V157.556C290.936 155.074 294.637 152.088 296.614 149.902L292.45 145.822C290.305 148.556 286.058 152.341 281.979 154.822C278.656 156.841 272.39 159.658 266.923 160.836Z" fill="white"/>
<path d="M322.772 147.841L317.767 149.481C318.819 151.668 320.669 156.757 321.174 158.817L326.221 157.051C325.632 155.116 323.571 149.649 322.772 147.841ZM338.29 150.911L332.403 149.018C331.898 154.275 329.879 159.869 327.02 163.443C323.529 167.817 317.683 171.013 313.057 172.233L317.473 176.733C322.394 174.882 327.65 171.35 331.562 166.303C334.421 162.602 336.188 158.229 337.281 153.981C337.533 153.14 337.786 152.257 338.29 150.911ZM313.015 150.07L307.969 151.878C308.978 153.729 311.081 159.322 311.796 161.593L316.926 159.658C316.085 157.303 314.067 152.215 313.015 150.07Z" fill="white"/>
<path d="M364.743 140.019L358.603 138C358.225 139.43 357.341 141.364 356.711 142.416C354.608 146.033 350.949 151.458 343.589 155.958L348.299 159.448C352.421 156.63 356.08 152.93 358.897 149.271H370.715C370.042 152.425 367.603 157.472 364.743 160.752C361.084 164.915 356.416 168.574 347.795 171.139L352.757 175.597C360.664 172.485 365.752 168.616 369.748 163.738C373.533 159.028 375.93 153.434 377.065 149.691C377.402 148.64 377.99 147.462 378.453 146.663L374.163 144.014C373.196 144.308 371.808 144.519 370.505 144.519H362.052C362.094 144.434 362.136 144.392 362.178 144.308C362.682 143.383 363.776 141.491 364.743 140.019Z" fill="white"/>
<path d="M413.558 144.308L410.109 141.743C409.268 142.037 407.586 142.29 405.777 142.29H390.932C389.67 142.29 387.105 142.163 385.969 141.995V147.967C386.853 147.925 389.166 147.673 390.932 147.673H405.189C404.263 150.659 401.698 154.822 398.922 157.976C394.969 162.392 388.451 167.523 381.68 170.046L386.011 174.588C391.773 171.854 397.366 167.481 401.824 162.77C405.777 166.597 409.688 170.887 412.422 174.672L417.216 170.509C414.735 167.481 409.646 162.098 405.483 158.481C408.301 154.696 410.656 150.196 412.086 146.916C412.464 146.075 413.221 144.771 413.558 144.308Z" fill="white"/>
</svg>
