<svg width="1050" height="54" viewBox="0 0 1050 54" fill="none" xmlns="http://www.w3.org/2000/svg">
<g opacity="0.5">
<path d="M82.191 32.15L77.533 22.613V33H76.309V21.1H78.145L82.208 29.549L86.254 21.1H88.09V33H86.849V22.596L82.191 32.15Z" fill="white"/>
<path d="M97.6386 32.099C97.1626 32.4503 96.6639 32.7167 96.1426 32.898C95.6326 33.068 95.0716 33.153 94.4596 33.153C93.8476 33.153 93.2696 33.0397 92.7256 32.813C92.1929 32.5863 91.7282 32.2747 91.3316 31.878C90.9462 31.4813 90.6402 31.0167 90.4136 30.484C90.1869 29.94 90.0736 29.3563 90.0736 28.733C90.0736 28.121 90.1812 27.5487 90.3966 27.016C90.6232 26.4833 90.9236 26.0187 91.2976 25.622C91.6716 25.2253 92.1136 24.9137 92.6236 24.687C93.1449 24.4603 93.6945 24.347 94.2726 24.347C94.8392 24.347 95.3662 24.4603 95.8536 24.687C96.3522 24.9137 96.7772 25.2253 97.1286 25.622C97.4912 26.0187 97.7746 26.4833 97.9786 27.016C98.1939 27.5487 98.3016 28.121 98.3016 28.733V29.124H91.3146C91.4052 29.9627 91.7509 30.6597 92.3516 31.215C92.9522 31.7703 93.6719 32.048 94.5106 32.048C94.9526 32.048 95.3832 31.98 95.8026 31.844C96.2219 31.708 96.5732 31.5153 96.8566 31.266L97.6386 32.099ZM94.2386 25.452C93.5019 25.452 92.8616 25.7013 92.3176 26.2C91.7849 26.6987 91.4619 27.339 91.3486 28.121H97.0436C96.9302 27.373 96.6072 26.744 96.0746 26.234C95.5532 25.7127 94.9412 25.452 94.2386 25.452Z" fill="white"/>
<path d="M100.06 33V24.483H101.318V25.486C101.647 25.1007 102.038 24.8117 102.491 24.619C102.945 24.415 103.449 24.313 104.004 24.313C104.968 24.313 105.755 24.619 106.367 25.231C106.979 25.843 107.285 26.6363 107.285 27.611V33H106.044V27.866C106.044 27.118 105.829 26.523 105.398 26.081C104.968 25.639 104.39 25.418 103.664 25.418C103.154 25.418 102.695 25.5313 102.287 25.758C101.891 25.9847 101.568 26.3077 101.318 26.727V33H100.06Z" fill="white"/>
<path d="M110.514 24.483V29.617C110.514 30.365 110.73 30.96 111.16 31.402C111.591 31.844 112.169 32.065 112.894 32.065C113.404 32.065 113.858 31.9517 114.254 31.725C114.662 31.487 114.991 31.1583 115.24 30.739V24.483H116.498V33H115.24V32.014C114.912 32.3993 114.521 32.6883 114.067 32.881C113.625 33.0737 113.127 33.17 112.571 33.17C111.597 33.17 110.803 32.864 110.191 32.252C109.579 31.64 109.273 30.8467 109.273 29.872V24.483H110.514Z" fill="white"/>
<path d="M32.9957 27.4H30.5957L31.8077 24.304L32.9957 27.4Z" fill="white"/>
<path d="M40.9208 24.1H38.7128V26.356H40.9208C41.3128 26.356 41.6248 26.252 41.8568 26.044C42.0968 25.836 42.2168 25.564 42.2168 25.228C42.2168 24.892 42.0968 24.62 41.8568 24.412C41.6248 24.204 41.3128 24.1 40.9208 24.1Z" fill="white"/>
<path fill-rule="evenodd" clip-rule="evenodd" d="M10 17C4.47715 17 0 21.4772 0 27C0 32.5228 4.47715 37 10 37H56C61.5228 37 66 32.5228 66 27C66 21.4772 61.5229 17 56 17H10ZM13.9286 29.668L14.9246 28.42C15.4126 28.844 15.8806 29.156 16.3286 29.356C16.7846 29.548 17.2646 29.644 17.7686 29.644C18.2886 29.644 18.7046 29.548 19.0166 29.356C19.3286 29.164 19.4846 28.908 19.4846 28.588C19.4846 28.3 19.3766 28.076 19.1606 27.916C18.9526 27.756 18.6006 27.636 18.1046 27.556L16.4366 27.268C15.7166 27.148 15.1686 26.896 14.7926 26.512C14.4246 26.128 14.2406 25.632 14.2406 25.024C14.2406 24.24 14.5366 23.62 15.1286 23.164C15.7286 22.708 16.5366 22.48 17.5526 22.48C18.1606 22.48 18.7726 22.584 19.3886 22.792C20.0126 23 20.5566 23.288 21.0206 23.656L20.0846 24.952C19.6366 24.608 19.1966 24.356 18.7646 24.196C18.3326 24.028 17.8886 23.944 17.4326 23.944C16.9686 23.944 16.5966 24.032 16.3166 24.208C16.0366 24.376 15.8966 24.604 15.8966 24.892C15.8966 25.148 15.9886 25.348 16.1726 25.492C16.3566 25.636 16.6646 25.74 17.0966 25.804L18.6806 26.068C19.5126 26.204 20.1366 26.472 20.5526 26.872C20.9766 27.264 21.1886 27.784 21.1886 28.432C21.1886 29.248 20.8646 29.9 20.2166 30.388C19.5766 30.876 18.7206 31.12 17.6486 31.12C16.9766 31.12 16.3126 30.992 15.6566 30.736C15.0086 30.48 14.4326 30.124 13.9286 29.668ZM21.4562 24.136V22.6H28.8482V24.136H26.0282V31H24.2882V24.136H21.4562ZM30.8357 22.6L27.3797 31H29.1917L30.0557 28.792H33.5237L34.3757 31H36.2597L32.8517 22.6H30.8357ZM36.9728 31V22.6H41.0768C41.5008 22.6 41.8888 22.664 42.2408 22.792C42.6008 22.92 42.9088 23.1 43.1648 23.332C43.4208 23.556 43.6208 23.828 43.7648 24.148C43.9088 24.468 43.9808 24.82 43.9808 25.204C43.9808 25.732 43.8288 26.204 43.5248 26.62C43.2288 27.036 42.8328 27.344 42.3368 27.544L44.1968 31H42.2528L40.6088 27.784H38.7128V31H36.9728ZM44.4953 22.6V24.136H47.3273V31H49.0673V24.136H51.8873V22.6H44.4953Z" fill="white"/>
<path d="M235.005 27.05C235.005 27.9 234.846 28.7047 234.529 29.464C234.212 30.212 233.775 30.8637 233.22 31.419C232.676 31.963 232.03 32.3937 231.282 32.711C230.534 33.0283 229.735 33.187 228.885 33.187C228.035 33.187 227.23 33.0283 226.471 32.711C225.723 32.3937 225.071 31.963 224.516 31.419C223.972 30.8637 223.541 30.212 223.224 29.464C222.907 28.7047 222.748 27.9 222.748 27.05C222.748 26.2 222.907 25.401 223.224 24.653C223.541 23.8937 223.972 23.242 224.516 22.698C225.071 22.1427 225.723 21.7063 226.471 21.389C227.23 21.0717 228.035 20.913 228.885 20.913C229.735 20.913 230.534 21.0717 231.282 21.389C232.03 21.7063 232.676 22.1427 233.22 22.698C233.775 23.242 234.212 23.8937 234.529 24.653C234.846 25.401 235.005 26.2 235.005 27.05ZM233.679 27.05C233.679 26.3587 233.554 25.7127 233.305 25.112C233.056 24.5 232.716 23.9787 232.285 23.548C231.866 23.106 231.361 22.7603 230.772 22.511C230.183 22.2503 229.554 22.12 228.885 22.12C228.205 22.12 227.57 22.2503 226.981 22.511C226.392 22.7603 225.882 23.106 225.451 23.548C225.032 23.9787 224.697 24.5 224.448 25.112C224.199 25.7127 224.074 26.3587 224.074 27.05C224.074 27.7413 224.199 28.3873 224.448 28.988C224.697 29.5887 225.032 30.11 225.451 30.552C225.882 30.994 226.392 31.3453 226.981 31.606C227.57 31.8553 228.205 31.98 228.885 31.98C229.554 31.98 230.183 31.8553 230.772 31.606C231.361 31.3453 231.866 30.994 232.285 30.552C232.716 30.11 233.056 29.5887 233.305 28.988C233.554 28.3873 233.679 27.7413 233.679 27.05Z" fill="white"/>
<path d="M236.817 36.485V24.483H238.058V25.401C238.421 25.0497 238.834 24.789 239.299 24.619C239.775 24.4377 240.279 24.347 240.812 24.347C241.413 24.347 241.974 24.4603 242.495 24.687C243.016 24.9137 243.47 25.2253 243.855 25.622C244.24 26.0073 244.541 26.472 244.756 27.016C244.983 27.5487 245.096 28.121 245.096 28.733C245.096 29.345 244.983 29.923 244.756 30.467C244.541 31.011 244.24 31.4813 243.855 31.878C243.47 32.2633 243.011 32.5693 242.478 32.796C241.957 33.0227 241.396 33.136 240.795 33.136C240.296 33.136 239.815 33.051 239.35 32.881C238.885 32.711 238.46 32.4673 238.075 32.15V36.485H236.817ZM240.693 25.452C240.16 25.452 239.662 25.5597 239.197 25.775C238.744 25.979 238.37 26.268 238.075 26.642V30.858C238.37 31.2207 238.749 31.5097 239.214 31.725C239.679 31.929 240.172 32.031 240.693 32.031C241.588 32.031 242.336 31.7193 242.937 31.096C243.549 30.4613 243.855 29.6793 243.855 28.75C243.855 28.2853 243.77 27.8547 243.6 27.458C243.441 27.05 243.22 26.6987 242.937 26.404C242.654 26.1093 242.319 25.877 241.934 25.707C241.549 25.537 241.135 25.452 240.693 25.452Z" fill="white"/>
<path d="M247.284 31.096V25.554H245.448V24.483H247.284V22.324L248.525 22.001V24.483H251.092V25.554H248.525V30.773C248.525 31.2263 248.627 31.555 248.831 31.759C249.035 31.9517 249.37 32.048 249.834 32.048C250.072 32.048 250.282 32.031 250.463 31.997C250.656 31.963 250.86 31.9063 251.075 31.827V32.932C250.86 33.0113 250.616 33.068 250.344 33.102C250.084 33.136 249.829 33.153 249.579 33.153C248.843 33.153 248.276 32.9773 247.879 32.626C247.483 32.2747 247.284 31.7647 247.284 31.096Z" fill="white"/>
<path d="M253.068 22.851C252.841 22.851 252.643 22.766 252.473 22.596C252.303 22.426 252.218 22.2277 252.218 22.001C252.218 21.763 252.303 21.5647 252.473 21.406C252.643 21.236 252.841 21.151 253.068 21.151C253.306 21.151 253.505 21.236 253.663 21.406C253.833 21.5647 253.918 21.763 253.918 22.001C253.918 22.2277 253.833 22.426 253.663 22.596C253.505 22.766 253.306 22.851 253.068 22.851ZM253.697 24.483V33H252.439V24.483H253.697Z" fill="white"/>
<path d="M255.451 28.733C255.451 28.121 255.565 27.543 255.791 26.999C256.018 26.455 256.324 25.9847 256.709 25.588C257.106 25.1913 257.571 24.8797 258.103 24.653C258.636 24.4263 259.203 24.313 259.803 24.313C260.404 24.313 260.965 24.4263 261.486 24.653C262.019 24.8797 262.478 25.1913 262.863 25.588C263.26 25.9847 263.572 26.455 263.798 26.999C264.025 27.543 264.138 28.121 264.138 28.733C264.138 29.3563 264.025 29.94 263.798 30.484C263.572 31.028 263.26 31.4983 262.863 31.895C262.478 32.2917 262.019 32.6033 261.486 32.83C260.965 33.0567 260.404 33.17 259.803 33.17C259.203 33.17 258.636 33.0567 258.103 32.83C257.571 32.6033 257.106 32.2917 256.709 31.895C256.324 31.4983 256.018 31.028 255.791 30.484C255.565 29.94 255.451 29.3563 255.451 28.733ZM259.803 32.048C260.234 32.048 260.637 31.963 261.01 31.793C261.396 31.623 261.724 31.3907 261.996 31.096C262.28 30.79 262.501 30.4387 262.659 30.042C262.818 29.634 262.897 29.1977 262.897 28.733C262.897 28.2683 262.818 27.8377 262.659 27.441C262.501 27.033 262.28 26.6817 261.996 26.387C261.724 26.0923 261.396 25.86 261.01 25.69C260.637 25.52 260.234 25.435 259.803 25.435C259.373 25.435 258.965 25.52 258.579 25.69C258.206 25.86 257.877 26.0923 257.593 26.387C257.321 26.6817 257.1 27.033 256.93 27.441C256.772 27.8377 256.692 28.2683 256.692 28.733C256.692 29.1977 256.772 29.634 256.93 30.042C257.089 30.4387 257.304 30.79 257.576 31.096C257.86 31.3907 258.194 31.623 258.579 31.793C258.965 31.963 259.373 32.048 259.803 32.048Z" fill="white"/>
<path d="M265.886 33V24.483H267.144V25.486C267.473 25.1007 267.864 24.8117 268.317 24.619C268.771 24.415 269.275 24.313 269.83 24.313C270.794 24.313 271.581 24.619 272.193 25.231C272.805 25.843 273.111 26.6363 273.111 27.611V33H271.87V27.866C271.87 27.118 271.655 26.523 271.224 26.081C270.794 25.639 270.216 25.418 269.49 25.418C268.98 25.418 268.521 25.5313 268.113 25.758C267.717 25.9847 267.394 26.3077 267.144 26.727V33H265.886Z" fill="white"/>
<path d="M274.35 31.827L275.115 31.011C275.5 31.3737 275.93 31.657 276.406 31.861C276.894 32.0537 277.387 32.15 277.885 32.15C278.565 32.15 279.121 32.0083 279.552 31.725C279.982 31.4417 280.198 31.0733 280.198 30.62C280.198 30.2573 280.067 29.974 279.807 29.77C279.557 29.5547 279.161 29.4073 278.617 29.328L277.138 29.124C276.288 28.9993 275.653 28.75 275.234 28.376C274.826 27.9907 274.622 27.475 274.622 26.829C274.622 26.115 274.922 25.5257 275.523 25.061C276.123 24.585 276.888 24.347 277.818 24.347C278.43 24.347 279.008 24.4377 279.552 24.619C280.107 24.8003 280.645 25.0837 281.167 25.469L280.504 26.319C280.027 26.0017 279.563 25.7637 279.109 25.605C278.668 25.4463 278.214 25.367 277.75 25.367C277.172 25.367 276.695 25.4973 276.322 25.758C275.959 26.0187 275.777 26.3587 275.777 26.778C275.777 27.1407 275.902 27.424 276.152 27.628C276.401 27.8207 276.803 27.9567 277.359 28.036L278.837 28.24C279.688 28.3533 280.322 28.6083 280.742 29.005C281.172 29.3903 281.388 29.906 281.388 30.552C281.388 30.9147 281.297 31.2603 281.116 31.589C280.945 31.9063 280.702 32.184 280.385 32.422C280.079 32.6487 279.716 32.83 279.297 32.966C278.877 33.0907 278.424 33.153 277.936 33.153C277.234 33.153 276.571 33.0397 275.948 32.813C275.336 32.575 274.803 32.2463 274.35 31.827Z" fill="white"/>
<path fill-rule="evenodd" clip-rule="evenodd" d="M157 17C151.477 17 147 21.4772 147 27C147 32.5228 151.477 37 157 37H203C208.523 37 213 32.5228 213 27C213 21.4772 208.523 17 203 17H157ZM191.724 29.512C192.164 29.512 192.576 29.42 192.96 29.236C193.344 29.052 193.684 28.788 193.98 28.444L195.12 29.572C194.72 30.044 194.208 30.42 193.584 30.7C192.968 30.98 192.332 31.12 191.676 31.12C191.044 31.12 190.452 31.008 189.9 30.784C189.356 30.56 188.884 30.256 188.484 29.872C188.084 29.488 187.768 29.032 187.536 28.504C187.312 27.976 187.2 27.408 187.2 26.8C187.2 26.192 187.316 25.624 187.548 25.096C187.78 24.56 188.096 24.1 188.496 23.716C188.896 23.332 189.368 23.028 189.912 22.804C190.464 22.58 191.052 22.468 191.676 22.468C192.348 22.468 193 22.612 193.632 22.9C194.264 23.18 194.776 23.56 195.168 24.04L193.992 25.204C193.696 24.836 193.348 24.556 192.948 24.364C192.548 24.164 192.124 24.064 191.676 24.064C191.3 24.064 190.944 24.136 190.608 24.28C190.28 24.416 189.996 24.608 189.756 24.856C189.516 25.096 189.328 25.384 189.192 25.72C189.056 26.048 188.988 26.408 188.988 26.8C188.988 27.184 189.056 27.544 189.192 27.88C189.336 28.208 189.528 28.492 189.768 28.732C190.016 28.972 190.304 29.164 190.632 29.308C190.968 29.444 191.332 29.512 191.724 29.512ZM157.706 28.42L156.71 29.668C157.214 30.124 157.79 30.48 158.438 30.736C159.094 30.992 159.758 31.12 160.43 31.12C161.502 31.12 162.358 30.876 162.998 30.388C163.646 29.9 163.97 29.248 163.97 28.432C163.97 27.784 163.758 27.264 163.334 26.872C162.918 26.472 162.294 26.204 161.462 26.068L159.878 25.804C159.446 25.74 159.138 25.636 158.954 25.492C158.77 25.348 158.678 25.148 158.678 24.892C158.678 24.604 158.818 24.376 159.098 24.208C159.378 24.032 159.75 23.944 160.214 23.944C160.67 23.944 161.114 24.028 161.546 24.196C161.978 24.356 162.418 24.608 162.866 24.952L163.802 23.656C163.338 23.288 162.794 23 162.17 22.792C161.554 22.584 160.942 22.48 160.334 22.48C159.318 22.48 158.51 22.708 157.91 23.164C157.318 23.62 157.022 24.24 157.022 25.024C157.022 25.632 157.206 26.128 157.574 26.512C157.95 26.896 158.498 27.148 159.218 27.268L160.886 27.556C161.382 27.636 161.734 27.756 161.942 27.916C162.158 28.076 162.266 28.3 162.266 28.588C162.266 28.908 162.11 29.164 161.798 29.356C161.486 29.548 161.07 29.644 160.55 29.644C160.046 29.644 159.566 29.548 159.11 29.356C158.662 29.156 158.194 28.844 157.706 28.42ZM165.012 22.6V31H171.516V29.488H166.752V27.496H169.86V26.032H166.752V24.112H171.468V22.6H165.012ZM172.746 31V22.6H174.486V29.464H179.082V31H172.746ZM180.281 22.6V31H186.785V29.488H182.021V27.496H185.129V26.032H182.021V24.112H186.737V22.6H180.281ZM195.714 22.6V24.136H198.546V31H200.286V24.136H203.106V22.6H195.714Z" fill="white"/>
<path d="M334.45 24.95V29.85L338.3 27.4L334.45 24.95Z" fill="white"/>
<path d="M314.5 27.4L318.35 29.85V24.95L314.5 27.4Z" fill="white"/>
<path d="M323.95 19.35H328.85L326.4 15.5L323.95 19.35Z" fill="white"/>
<path d="M323.95 35.45L326.4 39.3L328.85 35.45H323.95Z" fill="white"/>
<path fill-rule="evenodd" clip-rule="evenodd" d="M332.35 33.35V40C332.35 41.5394 331.089 42.8 329.55 42.8H323.25C321.711 42.8 320.45 41.5394 320.45 40V33.35H313.8C312.261 33.35 311 32.0894 311 30.55V24.25C311 22.7106 312.261 21.45 313.8 21.45H320.45V14.8C320.45 13.2606 321.711 12 323.25 12H329.55C331.089 12 332.35 13.2606 332.35 14.8V21.45H339C340.539 21.45 341.8 22.7106 341.8 24.25V30.55C341.8 32.0894 340.539 33.35 339 33.35H332.35ZM321.85 40C321.85 40.7725 322.478 41.4 323.25 41.4H329.55C330.322 41.4 330.95 40.7725 330.95 40V31.95H339C339.772 31.95 340.4 31.3225 340.4 30.55V24.25C340.4 23.4776 339.772 22.85 339 22.85H330.95V14.8C330.95 14.0276 330.322 13.4 329.55 13.4H323.25C322.478 13.4 321.85 14.0276 321.85 14.8V22.85H313.8C313.028 22.85 312.4 23.4776 312.4 24.25V30.55C312.4 31.3225 313.028 31.95 313.8 31.95H321.85V40Z" fill="white"/>
<path d="M357.953 31.98C358.69 31.98 359.392 31.8383 360.061 31.555C360.73 31.2603 361.291 30.858 361.744 30.348L362.594 31.232C362.005 31.844 361.302 32.3257 360.486 32.677C359.67 33.017 358.814 33.187 357.919 33.187C357.058 33.187 356.247 33.0283 355.488 32.711C354.74 32.3937 354.088 31.963 353.533 31.419C352.978 30.8637 352.541 30.212 352.224 29.464C351.907 28.7047 351.748 27.9 351.748 27.05C351.748 26.2 351.907 25.401 352.224 24.653C352.541 23.8937 352.978 23.242 353.533 22.698C354.088 22.1427 354.74 21.7063 355.488 21.389C356.247 21.0717 357.058 20.913 357.919 20.913C358.837 20.913 359.704 21.0887 360.52 21.44C361.347 21.78 362.05 22.256 362.628 22.868L361.761 23.786C361.296 23.2647 360.718 22.8567 360.027 22.562C359.347 22.2673 358.644 22.12 357.919 22.12C357.239 22.12 356.599 22.2503 355.998 22.511C355.409 22.7603 354.899 23.106 354.468 23.548C354.037 23.9787 353.697 24.5 353.448 25.112C353.199 25.7127 353.074 26.3587 353.074 27.05C353.074 27.7413 353.199 28.393 353.448 29.005C353.697 29.6057 354.037 30.127 354.468 30.569C354.91 30.9997 355.426 31.3453 356.015 31.606C356.616 31.8553 357.262 31.98 357.953 31.98Z" fill="white"/>
<path d="M364.34 33V21.1L365.598 20.811V25.486C365.926 25.1007 366.317 24.8117 366.771 24.619C367.224 24.415 367.728 24.313 368.284 24.313C369.247 24.313 370.035 24.619 370.647 25.231C371.259 25.843 371.565 26.6363 371.565 27.611V33H370.324V27.866C370.324 27.118 370.108 26.523 369.678 26.081C369.247 25.639 368.669 25.418 367.944 25.418C367.434 25.418 366.975 25.5313 366.567 25.758C366.17 25.9847 365.847 26.3077 365.598 26.727V33H364.34Z" fill="white"/>
<path d="M373.279 28.733C373.279 28.121 373.392 27.543 373.619 26.999C373.845 26.455 374.151 25.9847 374.537 25.588C374.933 25.1913 375.398 24.8797 375.931 24.653C376.463 24.4263 377.03 24.313 377.631 24.313C378.231 24.313 378.792 24.4263 379.314 24.653C379.846 24.8797 380.305 25.1913 380.691 25.588C381.087 25.9847 381.399 26.455 381.626 26.999C381.852 27.543 381.966 28.121 381.966 28.733C381.966 29.3563 381.852 29.94 381.626 30.484C381.399 31.028 381.087 31.4983 380.691 31.895C380.305 32.2917 379.846 32.6033 379.314 32.83C378.792 33.0567 378.231 33.17 377.631 33.17C377.03 33.17 376.463 33.0567 375.931 32.83C375.398 32.6033 374.933 32.2917 374.537 31.895C374.151 31.4983 373.845 31.028 373.619 30.484C373.392 29.94 373.279 29.3563 373.279 28.733ZM377.631 32.048C378.061 32.048 378.464 31.963 378.838 31.793C379.223 31.623 379.552 31.3907 379.824 31.096C380.107 30.79 380.328 30.4387 380.487 30.042C380.645 29.634 380.725 29.1977 380.725 28.733C380.725 28.2683 380.645 27.8377 380.487 27.441C380.328 27.033 380.107 26.6817 379.824 26.387C379.552 26.0923 379.223 25.86 378.838 25.69C378.464 25.52 378.061 25.435 377.631 25.435C377.2 25.435 376.792 25.52 376.407 25.69C376.033 25.86 375.704 26.0923 375.421 26.387C375.149 26.6817 374.928 27.033 374.758 27.441C374.599 27.8377 374.52 28.2683 374.52 28.733C374.52 29.1977 374.599 29.634 374.758 30.042C374.916 30.4387 375.132 30.79 375.404 31.096C375.687 31.3907 376.021 31.623 376.407 31.793C376.792 31.963 377.2 32.048 377.631 32.048Z" fill="white"/>
<path d="M383.339 28.733C383.339 28.121 383.453 27.543 383.679 26.999C383.906 26.455 384.212 25.9847 384.597 25.588C384.994 25.1913 385.459 24.8797 385.991 24.653C386.524 24.4263 387.091 24.313 387.691 24.313C388.292 24.313 388.853 24.4263 389.374 24.653C389.907 24.8797 390.366 25.1913 390.751 25.588C391.148 25.9847 391.46 26.455 391.686 26.999C391.913 27.543 392.026 28.121 392.026 28.733C392.026 29.3563 391.913 29.94 391.686 30.484C391.46 31.028 391.148 31.4983 390.751 31.895C390.366 32.2917 389.907 32.6033 389.374 32.83C388.853 33.0567 388.292 33.17 387.691 33.17C387.091 33.17 386.524 33.0567 385.991 32.83C385.459 32.6033 384.994 32.2917 384.597 31.895C384.212 31.4983 383.906 31.028 383.679 30.484C383.453 29.94 383.339 29.3563 383.339 28.733ZM387.691 32.048C388.122 32.048 388.524 31.963 388.898 31.793C389.284 31.623 389.612 31.3907 389.884 31.096C390.168 30.79 390.389 30.4387 390.547 30.042C390.706 29.634 390.785 29.1977 390.785 28.733C390.785 28.2683 390.706 27.8377 390.547 27.441C390.389 27.033 390.168 26.6817 389.884 26.387C389.612 26.0923 389.284 25.86 388.898 25.69C388.524 25.52 388.122 25.435 387.691 25.435C387.261 25.435 386.853 25.52 386.467 25.69C386.093 25.86 385.765 26.0923 385.481 26.387C385.209 26.6817 384.988 27.033 384.818 27.441C384.66 27.8377 384.58 28.2683 384.58 28.733C384.58 29.1977 384.66 29.634 384.818 30.042C384.977 30.4387 385.192 30.79 385.464 31.096C385.748 31.3907 386.082 31.623 386.467 31.793C386.853 31.963 387.261 32.048 387.691 32.048Z" fill="white"/>
<path d="M392.907 31.827L393.672 31.011C394.057 31.3737 394.488 31.657 394.964 31.861C395.451 32.0537 395.944 32.15 396.443 32.15C397.123 32.15 397.678 32.0083 398.109 31.725C398.54 31.4417 398.755 31.0733 398.755 30.62C398.755 30.2573 398.625 29.974 398.364 29.77C398.115 29.5547 397.718 29.4073 397.174 29.328L395.695 29.124C394.845 28.9993 394.21 28.75 393.791 28.376C393.383 27.9907 393.179 27.475 393.179 26.829C393.179 26.115 393.479 25.5257 394.08 25.061C394.681 24.585 395.446 24.347 396.375 24.347C396.987 24.347 397.565 24.4377 398.109 24.619C398.664 24.8003 399.203 25.0837 399.724 25.469L399.061 26.319C398.585 26.0017 398.12 25.7637 397.667 25.605C397.225 25.4463 396.772 25.367 396.307 25.367C395.729 25.367 395.253 25.4973 394.879 25.758C394.516 26.0187 394.335 26.3587 394.335 26.778C394.335 27.1407 394.46 27.424 394.709 27.628C394.958 27.8207 395.361 27.9567 395.916 28.036L397.395 28.24C398.245 28.3533 398.88 28.6083 399.299 29.005C399.73 29.3903 399.945 29.906 399.945 30.552C399.945 30.9147 399.854 31.2603 399.673 31.589C399.503 31.9063 399.259 32.184 398.942 32.422C398.636 32.6487 398.273 32.83 397.854 32.966C397.435 33.0907 396.981 33.153 396.494 33.153C395.791 33.153 395.128 33.0397 394.505 32.813C393.893 32.575 393.36 32.2463 392.907 31.827Z" fill="white"/>
<path d="M408.618 32.099C408.142 32.4503 407.643 32.7167 407.122 32.898C406.612 33.068 406.051 33.153 405.439 33.153C404.827 33.153 404.249 33.0397 403.705 32.813C403.172 32.5863 402.708 32.2747 402.311 31.878C401.926 31.4813 401.62 31.0167 401.393 30.484C401.166 29.94 401.053 29.3563 401.053 28.733C401.053 28.121 401.161 27.5487 401.376 27.016C401.603 26.4833 401.903 26.0187 402.277 25.622C402.651 25.2253 403.093 24.9137 403.603 24.687C404.124 24.4603 404.674 24.347 405.252 24.347C405.819 24.347 406.346 24.4603 406.833 24.687C407.332 24.9137 407.757 25.2253 408.108 25.622C408.471 26.0187 408.754 26.4833 408.958 27.016C409.173 27.5487 409.281 28.121 409.281 28.733V29.124H402.294C402.385 29.9627 402.73 30.6597 403.331 31.215C403.932 31.7703 404.651 32.048 405.49 32.048C405.932 32.048 406.363 31.98 406.782 31.844C407.201 31.708 407.553 31.5153 407.836 31.266L408.618 32.099ZM405.218 25.452C404.481 25.452 403.841 25.7013 403.297 26.2C402.764 26.6987 402.441 27.339 402.328 28.121H408.023C407.91 27.373 407.587 26.744 407.054 26.234C406.533 25.7127 405.921 25.452 405.218 25.452Z" fill="white"/>
<path d="M413.825 31.827L414.59 31.011C414.975 31.3737 415.406 31.657 415.882 31.861C416.369 32.0537 416.862 32.15 417.361 32.15C418.041 32.15 418.596 32.0083 419.027 31.725C419.458 31.4417 419.673 31.0733 419.673 30.62C419.673 30.2573 419.543 29.974 419.282 29.77C419.033 29.5547 418.636 29.4073 418.092 29.328L416.613 29.124C415.763 28.9993 415.128 28.75 414.709 28.376C414.301 27.9907 414.097 27.475 414.097 26.829C414.097 26.115 414.397 25.5257 414.998 25.061C415.599 24.585 416.364 24.347 417.293 24.347C417.905 24.347 418.483 24.4377 419.027 24.619C419.582 24.8003 420.121 25.0837 420.642 25.469L419.979 26.319C419.503 26.0017 419.038 25.7637 418.585 25.605C418.143 25.4463 417.69 25.367 417.225 25.367C416.647 25.367 416.171 25.4973 415.797 25.758C415.434 26.0187 415.253 26.3587 415.253 26.778C415.253 27.1407 415.378 27.424 415.627 27.628C415.876 27.8207 416.279 27.9567 416.834 28.036L418.313 28.24C419.163 28.3533 419.798 28.6083 420.217 29.005C420.648 29.3903 420.863 29.906 420.863 30.552C420.863 30.9147 420.772 31.2603 420.591 31.589C420.421 31.9063 420.177 32.184 419.86 32.422C419.554 32.6487 419.191 32.83 418.772 32.966C418.353 33.0907 417.899 33.153 417.412 33.153C416.709 33.153 416.046 33.0397 415.423 32.813C414.811 32.575 414.278 32.2463 413.825 31.827Z" fill="white"/>
<path d="M424.102 34.105L424.595 32.983L421.127 24.483H422.521L425.275 31.47L428.25 24.483H429.61L425.377 34.275C425.014 35.091 424.612 35.6803 424.17 36.043C423.728 36.4057 423.167 36.587 422.487 36.587C422.328 36.587 422.175 36.5757 422.028 36.553C421.892 36.5417 421.779 36.5247 421.688 36.502V35.363C421.801 35.3857 421.909 35.4027 422.011 35.414C422.124 35.4253 422.255 35.431 422.402 35.431C422.787 35.431 423.116 35.3233 423.388 35.108C423.66 34.8927 423.898 34.5583 424.102 34.105Z" fill="white"/>
<path d="M429.912 31.827L430.677 31.011C431.062 31.3737 431.493 31.657 431.969 31.861C432.456 32.0537 432.949 32.15 433.448 32.15C434.128 32.15 434.683 32.0083 435.114 31.725C435.545 31.4417 435.76 31.0733 435.76 30.62C435.76 30.2573 435.63 29.974 435.369 29.77C435.12 29.5547 434.723 29.4073 434.179 29.328L432.7 29.124C431.85 28.9993 431.215 28.75 430.796 28.376C430.388 27.9907 430.184 27.475 430.184 26.829C430.184 26.115 430.484 25.5257 431.085 25.061C431.686 24.585 432.451 24.347 433.38 24.347C433.992 24.347 434.57 24.4377 435.114 24.619C435.669 24.8003 436.208 25.0837 436.729 25.469L436.066 26.319C435.59 26.0017 435.125 25.7637 434.672 25.605C434.23 25.4463 433.777 25.367 433.312 25.367C432.734 25.367 432.258 25.4973 431.884 25.758C431.521 26.0187 431.34 26.3587 431.34 26.778C431.34 27.1407 431.465 27.424 431.714 27.628C431.963 27.8207 432.366 27.9567 432.921 28.036L434.4 28.24C435.25 28.3533 435.885 28.6083 436.304 29.005C436.735 29.3903 436.95 29.906 436.95 30.552C436.95 30.9147 436.859 31.2603 436.678 31.589C436.508 31.9063 436.264 32.184 435.947 32.422C435.641 32.6487 435.278 32.83 434.859 32.966C434.44 33.0907 433.986 33.153 433.499 33.153C432.796 33.153 432.133 33.0397 431.51 32.813C430.898 32.575 430.365 32.2463 429.912 31.827Z" fill="white"/>
<path d="M439.254 31.096V25.554H437.418V24.483H439.254V22.324L440.495 22.001V24.483H443.062V25.554H440.495V30.773C440.495 31.2263 440.597 31.555 440.801 31.759C441.005 31.9517 441.339 32.048 441.804 32.048C442.042 32.048 442.252 32.031 442.433 31.997C442.626 31.963 442.83 31.9063 443.045 31.827V32.932C442.83 33.0113 442.586 33.068 442.314 33.102C442.053 33.136 441.798 33.153 441.549 33.153C440.812 33.153 440.246 32.9773 439.849 32.626C439.452 32.2747 439.254 31.7647 439.254 31.096Z" fill="white"/>
<path d="M451.317 32.099C450.841 32.4503 450.343 32.7167 449.821 32.898C449.311 33.068 448.75 33.153 448.138 33.153C447.526 33.153 446.948 33.0397 446.404 32.813C445.872 32.5863 445.407 32.2747 445.01 31.878C444.625 31.4813 444.319 31.0167 444.092 30.484C443.866 29.94 443.752 29.3563 443.752 28.733C443.752 28.121 443.86 27.5487 444.075 27.016C444.302 26.4833 444.602 26.0187 444.976 25.622C445.35 25.2253 445.792 24.9137 446.302 24.687C446.824 24.4603 447.373 24.347 447.951 24.347C448.518 24.347 449.045 24.4603 449.532 24.687C450.031 24.9137 450.456 25.2253 450.807 25.622C451.17 26.0187 451.453 26.4833 451.657 27.016C451.873 27.5487 451.98 28.121 451.98 28.733V29.124H444.993C445.084 29.9627 445.43 30.6597 446.03 31.215C446.631 31.7703 447.351 32.048 448.189 32.048C448.631 32.048 449.062 31.98 449.481 31.844C449.901 31.708 450.252 31.5153 450.535 31.266L451.317 32.099ZM447.917 25.452C447.181 25.452 446.54 25.7013 445.996 26.2C445.464 26.6987 445.141 27.339 445.027 28.121H450.722C450.609 27.373 450.286 26.744 449.753 26.234C449.232 25.7127 448.62 25.452 447.917 25.452Z" fill="white"/>
<path d="M453.739 33V24.483H454.997V25.418C455.314 25.0553 455.683 24.7833 456.102 24.602C456.521 24.4093 456.986 24.313 457.496 24.313C458.085 24.313 458.612 24.4547 459.077 24.738C459.553 25.01 459.921 25.384 460.182 25.86C460.533 25.3387 460.953 24.9533 461.44 24.704C461.939 24.4433 462.494 24.313 463.106 24.313C464.024 24.313 464.772 24.619 465.35 25.231C465.939 25.843 466.234 26.6363 466.234 27.611V33H464.993V27.866C464.993 27.118 464.795 26.523 464.398 26.081C464.001 25.639 463.463 25.418 462.783 25.418C462.318 25.418 461.893 25.537 461.508 25.775C461.123 26.013 460.794 26.3587 460.522 26.812C460.545 26.9367 460.562 27.067 460.573 27.203C460.596 27.3277 460.607 27.4637 460.607 27.611V33H459.366V27.866C459.366 27.118 459.168 26.523 458.771 26.081C458.374 25.639 457.842 25.418 457.173 25.418C456.72 25.418 456.306 25.5257 455.932 25.741C455.569 25.945 455.258 26.251 454.997 26.659V33H453.739Z" fill="white"/>
</g>
</svg>
