<svg width="1050" height="54" viewBox="0 0 1050 54" fill="none" xmlns="http://www.w3.org/2000/svg">
<path d="M680.072 31.12C679.392 31.12 678.728 30.996 678.08 30.748C677.432 30.492 676.856 30.132 676.352 29.668L677.348 28.42C677.836 28.852 678.304 29.164 678.752 29.356C679.208 29.548 679.688 29.644 680.192 29.644C680.544 29.644 680.848 29.604 681.104 29.524C681.36 29.436 681.556 29.312 681.692 29.152C681.836 28.992 681.908 28.804 681.908 28.588C681.908 28.3 681.804 28.08 681.596 27.928C681.388 27.768 681.032 27.644 680.528 27.556L678.86 27.268C678.148 27.148 677.604 26.896 677.228 26.512C676.86 26.128 676.676 25.632 676.676 25.024C676.676 24.504 676.808 24.052 677.072 23.668C677.344 23.284 677.724 22.992 678.212 22.792C678.708 22.584 679.296 22.48 679.976 22.48C680.592 22.48 681.204 22.584 681.812 22.792C682.428 23 682.972 23.288 683.444 23.656L682.508 24.952C681.628 24.28 680.744 23.944 679.856 23.944C679.544 23.944 679.272 23.984 679.04 24.064C678.808 24.144 678.628 24.256 678.5 24.4C678.38 24.536 678.32 24.7 678.32 24.892C678.32 25.148 678.412 25.348 678.596 25.492C678.78 25.628 679.088 25.732 679.52 25.804L681.104 26.068C681.944 26.204 682.572 26.472 682.988 26.872C683.404 27.264 683.612 27.784 683.612 28.432C683.612 28.976 683.468 29.452 683.18 29.86C682.892 30.26 682.48 30.572 681.944 30.796C681.416 31.012 680.792 31.12 680.072 31.12ZM687.759 31V24.136H684.927V22.6H692.319V24.136H689.499V31H687.759ZM691.956 31L695.412 22.6H697.416L700.836 31H698.952L698.1 28.792H694.632L693.768 31H691.956ZM695.172 27.4H697.572L696.372 24.304L695.172 27.4ZM702.549 31V22.6H706.653C707.221 22.6 707.721 22.712 708.153 22.936C708.593 23.152 708.933 23.456 709.173 23.848C709.421 24.24 709.545 24.692 709.545 25.204C709.545 25.74 709.397 26.212 709.101 26.62C708.805 27.028 708.409 27.332 707.913 27.532L709.773 31H707.829L706.185 27.784H704.289V31H702.549ZM704.289 26.356H706.497C706.889 26.356 707.201 26.252 707.433 26.044C707.673 25.836 707.793 25.564 707.793 25.228C707.793 24.892 707.673 24.62 707.433 24.412C707.201 24.204 706.889 24.1 706.497 24.1H704.289V26.356ZM713.903 31V24.136H711.071V22.6H718.463V24.136H715.643V31H713.903Z" fill="white"/>
<rect x="668" y="17" width="59" height="20" rx="10" stroke="white" stroke-width="2"/>
<path d="M736.207 33V21.1H738.604L742.327 28.716L746.05 21.1H748.43V33H746.747V23.276L742.31 32.15L737.873 23.276V33H736.207ZM754.794 33.153C753.944 33.153 753.173 32.9547 752.482 32.558C751.802 32.1613 751.258 31.623 750.85 30.943C750.453 30.263 750.255 29.5037 750.255 28.665C750.255 27.8377 750.447 27.0897 750.833 26.421C751.218 25.741 751.739 25.2027 752.397 24.806C753.054 24.398 753.785 24.194 754.59 24.194C755.394 24.194 756.108 24.398 756.732 24.806C757.355 25.2027 757.848 25.7467 758.211 26.438C758.585 27.118 758.772 27.8887 758.772 28.75V29.226H751.955C752.045 29.702 752.221 30.127 752.482 30.501C752.754 30.875 753.094 31.1697 753.502 31.385C753.921 31.6003 754.374 31.708 754.862 31.708C755.281 31.708 755.683 31.6457 756.069 31.521C756.465 31.385 756.794 31.1923 757.055 30.943L758.143 32.014C757.633 32.3993 757.106 32.6883 756.562 32.881C756.029 33.0623 755.44 33.153 754.794 33.153ZM751.972 27.951H757.089C757.021 27.4977 756.862 27.101 756.613 26.761C756.375 26.4097 756.074 26.1377 755.712 25.945C755.36 25.741 754.975 25.639 754.556 25.639C754.125 25.639 753.728 25.7353 753.366 25.928C753.003 26.1207 752.697 26.3927 752.448 26.744C752.21 27.084 752.051 27.4863 751.972 27.951ZM760.391 33V24.347H762.091V25.231C762.759 24.5283 763.626 24.177 764.692 24.177C765.36 24.177 765.944 24.3187 766.443 24.602C766.953 24.8853 767.349 25.282 767.633 25.792C767.927 26.302 768.075 26.8913 768.075 27.56V33H766.375V27.849C766.375 27.169 766.182 26.6363 765.797 26.251C765.423 25.8543 764.896 25.656 764.216 25.656C763.762 25.656 763.354 25.7523 762.992 25.945C762.629 26.1377 762.329 26.4153 762.091 26.778V33H760.391ZM773.302 33.17C772.634 33.17 772.044 33.0283 771.534 32.745C771.024 32.4617 770.628 32.065 770.344 31.555C770.061 31.0337 769.919 30.4387 769.919 29.77V24.347H771.602V29.481C771.602 30.161 771.795 30.6993 772.18 31.096C772.577 31.4927 773.104 31.691 773.761 31.691C774.226 31.691 774.64 31.5947 775.002 31.402C775.365 31.198 775.66 30.9147 775.886 30.552V24.347H777.586V33H775.886V32.116C775.218 32.8187 774.356 33.17 773.302 33.17Z" fill="white"/>
<path d="M811 19.5L817 19.5L814 15.5L811 19.5Z" fill="white"/>
<path d="M817 34.5L811 34.5L814 38.5L817 34.5Z" fill="white"/>
<path fill-rule="evenodd" clip-rule="evenodd" d="M810 23H802C801.448 23 801 23.4477 801 24V30C801 30.5523 801.448 31 802 31H810V39C810 39.5523 810.448 40 811 40H817C817.552 40 818 39.5523 818 39V31H826C826.552 31 827 30.5523 827 30V24C827 23.4477 826.552 23 826 23H818V15C818 14.4477 817.552 14 817 14H811C810.448 14 810 14.4477 810 15V23ZM808 15C808 13.3431 809.343 12 811 12H817C818.657 12 820 13.3431 820 15V21H826C827.657 21 829 22.3431 829 24V30C829 31.6569 827.657 33 826 33H820V39C820 40.6569 818.657 42 817 42H811C809.343 42 808 40.6569 808 39V33H802C800.343 33 799 31.6569 799 30V24C799 22.3431 800.343 21 802 21H808V15Z" fill="white"/>
<path d="M843.936 33.187C843.052 33.187 842.23 33.034 841.471 32.728C840.723 32.4107 840.06 31.9743 839.482 31.419C838.915 30.8523 838.473 30.2007 838.156 29.464C837.85 28.716 837.697 27.9113 837.697 27.05C837.697 26.1887 837.85 25.3897 838.156 24.653C838.473 23.905 838.915 23.2533 839.482 22.698C840.06 22.1313 840.729 21.695 841.488 21.389C842.247 21.0717 843.063 20.913 843.936 20.913C844.559 20.913 845.166 20.998 845.755 21.168C846.356 21.3267 846.905 21.559 847.404 21.865C847.914 22.171 848.356 22.5393 848.73 22.97L847.54 24.194C847.098 23.6613 846.56 23.259 845.925 22.987C845.29 22.7037 844.627 22.562 843.936 22.562C843.301 22.562 842.712 22.6753 842.168 22.902C841.635 23.1287 841.171 23.446 840.774 23.854C840.377 24.2507 840.066 24.721 839.839 25.265C839.624 25.809 839.516 26.404 839.516 27.05C839.516 27.6847 839.624 28.274 839.839 28.818C840.066 29.362 840.383 29.838 840.791 30.246C841.199 30.654 841.675 30.9713 842.219 31.198C842.763 31.4247 843.352 31.538 843.987 31.538C844.678 31.538 845.33 31.402 845.942 31.13C846.565 30.8467 847.092 30.45 847.523 29.94L848.696 31.13C848.299 31.5493 847.846 31.9177 847.336 32.235C846.837 32.541 846.293 32.779 845.704 32.949C845.126 33.1077 844.537 33.187 843.936 33.187ZM850.238 33V21.1L851.938 20.726V25.231C852.607 24.5283 853.474 24.177 854.539 24.177C855.208 24.177 855.792 24.3187 856.29 24.602C856.8 24.8853 857.197 25.282 857.48 25.792C857.775 26.302 857.922 26.8913 857.922 27.56V33H856.222V27.849C856.222 27.169 856.03 26.6363 855.644 26.251C855.259 25.8543 854.732 25.656 854.063 25.656C853.61 25.656 853.202 25.7523 852.839 25.945C852.477 26.1377 852.176 26.4153 851.938 26.778V33H850.238ZM863.998 33.17C863.159 33.17 862.394 32.9717 861.703 32.575C861.023 32.1783 860.485 31.64 860.088 30.96C859.691 30.28 859.493 29.5207 859.493 28.682C859.493 27.8433 859.691 27.084 860.088 26.404C860.485 25.724 861.023 25.1857 861.703 24.789C862.394 24.381 863.159 24.177 863.998 24.177C864.848 24.177 865.613 24.381 866.293 24.789C866.973 25.1857 867.511 25.724 867.908 26.404C868.305 27.084 868.503 27.8433 868.503 28.682C868.503 29.5207 868.305 30.28 867.908 30.96C867.511 31.64 866.973 32.1783 866.293 32.575C865.613 32.9717 864.848 33.17 863.998 33.17ZM863.998 31.674C864.531 31.674 865.012 31.5437 865.443 31.283C865.874 31.011 866.214 30.6483 866.463 30.195C866.712 29.7417 866.837 29.2317 866.837 28.665C866.837 28.1097 866.707 27.611 866.446 27.169C866.197 26.7157 865.857 26.353 865.426 26.081C865.007 25.809 864.531 25.673 863.998 25.673C863.465 25.673 862.984 25.809 862.553 26.081C862.134 26.353 861.794 26.7157 861.533 27.169C861.284 27.611 861.159 28.1097 861.159 28.665C861.159 29.2317 861.284 29.7417 861.533 30.195C861.782 30.6483 862.122 31.011 862.553 31.283C862.984 31.5437 863.465 31.674 863.998 31.674ZM874.224 33.17C873.386 33.17 872.621 32.9717 871.929 32.575C871.249 32.1783 870.711 31.64 870.314 30.96C869.918 30.28 869.719 29.5207 869.719 28.682C869.719 27.8433 869.918 27.084 870.314 26.404C870.711 25.724 871.249 25.1857 871.929 24.789C872.621 24.381 873.386 24.177 874.224 24.177C875.074 24.177 875.839 24.381 876.519 24.789C877.199 25.1857 877.738 25.724 878.134 26.404C878.531 27.084 878.729 27.8433 878.729 28.682C878.729 29.5207 878.531 30.28 878.134 30.96C877.738 31.64 877.199 32.1783 876.519 32.575C875.839 32.9717 875.074 33.17 874.224 33.17ZM874.224 31.674C874.757 31.674 875.239 31.5437 875.669 31.283C876.1 31.011 876.44 30.6483 876.689 30.195C876.939 29.7417 877.063 29.2317 877.063 28.665C877.063 28.1097 876.933 27.611 876.672 27.169C876.423 26.7157 876.083 26.353 875.652 26.081C875.233 25.809 874.757 25.673 874.224 25.673C873.692 25.673 873.21 25.809 872.779 26.081C872.36 26.353 872.02 26.7157 871.759 27.169C871.51 27.611 871.385 28.1097 871.385 28.665C871.385 29.2317 871.51 29.7417 871.759 30.195C872.009 30.6483 872.349 31.011 872.779 31.283C873.21 31.5437 873.692 31.674 874.224 31.674ZM883.312 33.17C882.564 33.17 881.861 33.0623 881.204 32.847C880.558 32.6203 879.997 32.303 879.521 31.895L880.456 30.773C880.898 31.1243 881.351 31.3963 881.816 31.589C882.292 31.7703 882.774 31.861 883.261 31.861C883.873 31.861 884.372 31.742 884.757 31.504C885.142 31.266 885.335 30.9543 885.335 30.569C885.335 30.2517 885.222 30.0023 884.995 29.821C884.768 29.6397 884.417 29.515 883.941 29.447L882.377 29.226C881.516 29.1013 880.87 28.835 880.439 28.427C880.008 28.019 879.793 27.475 879.793 26.795C879.793 26.2737 879.935 25.8203 880.218 25.435C880.501 25.0383 880.898 24.7323 881.408 24.517C881.918 24.2903 882.513 24.177 883.193 24.177C883.816 24.177 884.417 24.2677 884.995 24.449C885.573 24.6303 886.128 24.9137 886.661 25.299L885.794 26.421C885.318 26.1037 884.853 25.8713 884.4 25.724C883.958 25.5767 883.51 25.503 883.057 25.503C882.536 25.503 882.116 25.6163 881.799 25.843C881.482 26.0583 881.323 26.3417 881.323 26.693C881.323 27.0103 881.431 27.2597 881.646 27.441C881.873 27.611 882.241 27.73 882.751 27.798L884.315 28.019C885.176 28.1437 885.828 28.41 886.27 28.818C886.712 29.2147 886.933 29.753 886.933 30.433C886.933 30.9543 886.774 31.4247 886.457 31.844C886.14 32.252 885.709 32.575 885.165 32.813C884.621 33.051 884.003 33.17 883.312 33.17ZM892.47 33.153C891.62 33.153 890.85 32.9547 890.158 32.558C889.478 32.1613 888.934 31.623 888.526 30.943C888.13 30.263 887.931 29.5037 887.931 28.665C887.931 27.8377 888.124 27.0897 888.509 26.421C888.895 25.741 889.416 25.2027 890.073 24.806C890.731 24.398 891.462 24.194 892.266 24.194C893.071 24.194 893.785 24.398 894.408 24.806C895.032 25.2027 895.525 25.7467 895.887 26.438C896.261 27.118 896.448 27.8887 896.448 28.75V29.226H889.631C889.722 29.702 889.898 30.127 890.158 30.501C890.43 30.875 890.77 31.1697 891.178 31.385C891.598 31.6003 892.051 31.708 892.538 31.708C892.958 31.708 893.36 31.6457 893.745 31.521C894.142 31.385 894.471 31.1923 894.731 30.943L895.819 32.014C895.309 32.3993 894.782 32.6883 894.238 32.881C893.706 33.0623 893.116 33.153 892.47 33.153ZM889.648 27.951H894.765C894.697 27.4977 894.539 27.101 894.289 26.761C894.051 26.4097 893.751 26.1377 893.388 25.945C893.037 25.741 892.652 25.639 892.232 25.639C891.802 25.639 891.405 25.7353 891.042 25.928C890.68 26.1207 890.374 26.3927 890.124 26.744C889.886 27.084 889.728 27.4863 889.648 27.951Z" fill="white"/>
<path fill-rule="evenodd" clip-rule="evenodd" d="M945 14H921C920.448 14 920 14.4477 920 15V39C920 39.5523 920.448 40 921 40H945C945.552 40 946 39.5523 946 39V15C946 14.4477 945.552 14 945 14ZM921 12C919.343 12 918 13.3431 918 15V39C918 40.6569 919.343 42 921 42H945C946.657 42 948 40.6569 948 39V15C948 13.3431 946.657 12 945 12H921Z" fill="white"/>
<path d="M926.486 33V20.692H932.538V22.562H928.594V25.69H932.538V27.56H928.594V33H926.486ZM935.06 22.562V20.692H939.089V33H936.981V22.562H935.06Z" fill="white"/>
<path d="M957.207 33V21.1H966.013V22.664H958.992V26.319H963.616V27.832H958.992V33H957.207ZM967.296 33V24.347H968.996V33H967.296ZM968.146 22.953C967.863 22.953 967.619 22.851 967.415 22.647C967.211 22.4317 967.109 22.1823 967.109 21.899C967.109 21.6043 967.211 21.3607 967.415 21.168C967.619 20.964 967.863 20.862 968.146 20.862C968.441 20.862 968.69 20.964 968.894 21.168C969.098 21.3607 969.2 21.6043 969.2 21.899C969.2 22.1823 969.098 22.4317 968.894 22.647C968.69 22.851 968.441 22.953 968.146 22.953ZM970.998 33V21.1L972.698 20.777V33H970.998ZM978.848 33.153C977.998 33.153 977.228 32.9547 976.536 32.558C975.856 32.1613 975.312 31.623 974.904 30.943C974.508 30.263 974.309 29.5037 974.309 28.665C974.309 27.8377 974.502 27.0897 974.887 26.421C975.273 25.741 975.794 25.2027 976.451 24.806C977.109 24.398 977.84 24.194 978.644 24.194C979.449 24.194 980.163 24.398 980.786 24.806C981.41 25.2027 981.903 25.7467 982.265 26.438C982.639 27.118 982.826 27.8887 982.826 28.75V29.226H976.009C976.1 29.702 976.276 30.127 976.536 30.501C976.808 30.875 977.148 31.1697 977.556 31.385C977.976 31.6003 978.429 31.708 978.916 31.708C979.336 31.708 979.738 31.6457 980.123 31.521C980.52 31.385 980.849 31.1923 981.109 30.943L982.197 32.014C981.687 32.3993 981.16 32.6883 980.616 32.881C980.084 33.0623 979.494 33.153 978.848 33.153ZM976.026 27.951H981.143C981.075 27.4977 980.917 27.101 980.667 26.761C980.429 26.4097 980.129 26.1377 979.766 25.945C979.415 25.741 979.03 25.639 978.61 25.639C978.18 25.639 977.783 25.7353 977.42 25.928C977.058 26.1207 976.752 26.3927 976.502 26.744C976.264 27.084 976.106 27.4863 976.026 27.951ZM987.998 33V21.1L989.698 20.777V25.163C990.423 24.5283 991.302 24.211 992.333 24.211C993.149 24.211 993.886 24.4093 994.543 24.806C995.212 25.2027 995.739 25.7353 996.124 26.404C996.509 27.0727 996.702 27.8263 996.702 28.665C996.702 29.5037 996.504 30.263 996.107 30.943C995.722 31.6117 995.195 32.1443 994.526 32.541C993.869 32.9377 993.126 33.136 992.299 33.136C991.823 33.136 991.358 33.0623 990.905 32.915C990.463 32.7563 990.055 32.5353 989.681 32.252V33H987.998ZM992.112 31.657C992.667 31.657 993.16 31.5267 993.591 31.266C994.033 31.0053 994.384 30.654 994.645 30.212C994.906 29.7587 995.036 29.2487 995.036 28.682C995.036 28.1153 994.906 27.6053 994.645 27.152C994.384 26.6987 994.033 26.3417 993.591 26.081C993.16 25.8203 992.667 25.69 992.112 25.69C991.625 25.69 991.171 25.7807 990.752 25.962C990.333 26.1433 989.981 26.3983 989.698 26.727V30.637C989.981 30.9543 990.333 31.2037 990.752 31.385C991.183 31.5663 991.636 31.657 992.112 31.657ZM998.324 33V24.347H1000.02V25.452C1000.3 25.044 1000.63 24.7267 1001.03 24.5C1001.44 24.262 1001.89 24.143 1002.4 24.143C1002.76 24.1543 1003.04 24.2053 1003.27 24.296V25.826C1003.11 25.758 1002.95 25.7127 1002.78 25.69C1002.61 25.656 1002.44 25.639 1002.27 25.639C1001.77 25.639 1001.33 25.775 1000.94 26.047C1000.56 26.3077 1000.25 26.693 1000.02 27.203V33H998.324ZM1008.25 33.17C1007.41 33.17 1006.65 32.9717 1005.95 32.575C1005.27 32.1783 1004.74 31.64 1004.34 30.96C1003.94 30.28 1003.74 29.5207 1003.74 28.682C1003.74 27.8433 1003.94 27.084 1004.34 26.404C1004.74 25.724 1005.27 25.1857 1005.95 24.789C1006.65 24.381 1007.41 24.177 1008.25 24.177C1009.1 24.177 1009.86 24.381 1010.54 24.789C1011.22 25.1857 1011.76 25.724 1012.16 26.404C1012.56 27.084 1012.75 27.8433 1012.75 28.682C1012.75 29.5207 1012.56 30.28 1012.16 30.96C1011.76 31.64 1011.22 32.1783 1010.54 32.575C1009.86 32.9717 1009.1 33.17 1008.25 33.17ZM1008.25 31.674C1008.78 31.674 1009.26 31.5437 1009.69 31.283C1010.12 31.011 1010.46 30.6483 1010.71 30.195C1010.96 29.7417 1011.09 29.2317 1011.09 28.665C1011.09 28.1097 1010.96 27.611 1010.7 27.169C1010.45 26.7157 1010.11 26.353 1009.68 26.081C1009.26 25.809 1008.78 25.673 1008.25 25.673C1007.72 25.673 1007.23 25.809 1006.8 26.081C1006.38 26.353 1006.04 26.7157 1005.78 27.169C1005.53 27.611 1005.41 28.1097 1005.41 28.665C1005.41 29.2317 1005.53 29.7417 1005.78 30.195C1006.03 30.6483 1006.37 31.011 1006.8 31.283C1007.23 31.5437 1007.72 31.674 1008.25 31.674ZM1015.81 33L1013.4 24.347H1015.05L1016.73 30.705L1018.7 24.347H1020.16L1022.13 30.705L1023.82 24.347H1025.42L1022.98 33H1021.35L1019.41 26.659L1017.46 33H1015.81ZM1029.6 33.17C1028.86 33.17 1028.15 33.0623 1027.5 32.847C1026.85 32.6203 1026.29 32.303 1025.81 31.895L1026.75 30.773C1027.19 31.1243 1027.64 31.3963 1028.11 31.589C1028.58 31.7703 1029.07 31.861 1029.55 31.861C1030.17 31.861 1030.66 31.742 1031.05 31.504C1031.44 31.266 1031.63 30.9543 1031.63 30.569C1031.63 30.2517 1031.51 30.0023 1031.29 29.821C1031.06 29.6397 1030.71 29.515 1030.23 29.447L1028.67 29.226C1027.81 29.1013 1027.16 28.835 1026.73 28.427C1026.3 28.019 1026.09 27.475 1026.09 26.795C1026.09 26.2737 1026.23 25.8203 1026.51 25.435C1026.79 25.0383 1027.19 24.7323 1027.7 24.517C1028.21 24.2903 1028.81 24.177 1029.49 24.177C1030.11 24.177 1030.71 24.2677 1031.29 24.449C1031.87 24.6303 1032.42 24.9137 1032.95 25.299L1032.09 26.421C1031.61 26.1037 1031.15 25.8713 1030.69 25.724C1030.25 25.5767 1029.8 25.503 1029.35 25.503C1028.83 25.503 1028.41 25.6163 1028.09 25.843C1027.77 26.0583 1027.62 26.3417 1027.62 26.693C1027.62 27.0103 1027.72 27.2597 1027.94 27.441C1028.17 27.611 1028.53 27.73 1029.04 27.798L1030.61 28.019C1031.47 28.1437 1032.12 28.41 1032.56 28.818C1033 29.2147 1033.23 29.753 1033.23 30.433C1033.23 30.9543 1033.07 31.4247 1032.75 31.844C1032.43 32.252 1032 32.575 1031.46 32.813C1030.91 33.051 1030.3 33.17 1029.6 33.17ZM1038.76 33.153C1037.91 33.153 1037.14 32.9547 1036.45 32.558C1035.77 32.1613 1035.23 31.623 1034.82 30.943C1034.42 30.263 1034.22 29.5037 1034.22 28.665C1034.22 27.8377 1034.42 27.0897 1034.8 26.421C1035.19 25.741 1035.71 25.2027 1036.37 24.806C1037.02 24.398 1037.75 24.194 1038.56 24.194C1039.36 24.194 1040.08 24.398 1040.7 24.806C1041.32 25.2027 1041.82 25.7467 1042.18 26.438C1042.55 27.118 1042.74 27.8887 1042.74 28.75V29.226H1035.92C1036.01 29.702 1036.19 30.127 1036.45 30.501C1036.72 30.875 1037.06 31.1697 1037.47 31.385C1037.89 31.6003 1038.34 31.708 1038.83 31.708C1039.25 31.708 1039.65 31.6457 1040.04 31.521C1040.43 31.385 1040.76 31.1923 1041.02 30.943L1042.11 32.014C1041.6 32.3993 1041.08 32.6883 1040.53 32.881C1040 33.0623 1039.41 33.153 1038.76 33.153ZM1035.94 27.951H1041.06C1040.99 27.4977 1040.83 27.101 1040.58 26.761C1040.34 26.4097 1040.04 26.1377 1039.68 25.945C1039.33 25.741 1038.94 25.639 1038.53 25.639C1038.09 25.639 1037.7 25.7353 1037.34 25.928C1036.97 26.1207 1036.67 26.3927 1036.42 26.744C1036.18 27.084 1036.02 27.4863 1035.94 27.951ZM1044.36 33V24.347H1046.06V25.452C1046.33 25.044 1046.67 24.7267 1047.06 24.5C1047.47 24.262 1047.93 24.143 1048.44 24.143C1048.79 24.1543 1049.08 24.2053 1049.31 24.296V25.826C1049.15 25.758 1048.98 25.7127 1048.81 25.69C1048.64 25.656 1048.47 25.639 1048.3 25.639C1047.81 25.639 1047.36 25.775 1046.98 26.047C1046.59 26.3077 1046.29 26.693 1046.06 27.203V33H1044.36Z" fill="white"/>
</svg>
