<svg width="388" height="54" viewBox="0 0 388 54" fill="none" xmlns="http://www.w3.org/2000/svg">
<path d="M12 19.5L18 19.5L15 15.5L12 19.5Z" fill="white"/>
<path d="M18 34.5L12 34.5L15 38.5L18 34.5Z" fill="white"/>
<path fill-rule="evenodd" clip-rule="evenodd" d="M11 23H3C2.44772 23 2 23.4477 2 24V30C2 30.5523 2.44772 31 3 31H11V39C11 39.5523 11.4477 40 12 40H18C18.5523 40 19 39.5523 19 39V31H27C27.5523 31 28 30.5523 28 30V24C28 23.4477 27.5523 23 27 23H19V15C19 14.4477 18.5523 14 18 14H12C11.4477 14 11 14.4477 11 15V23ZM9 15C9 13.3431 10.3431 12 12 12H18C19.6569 12 21 13.3431 21 15V21H27C28.6569 21 30 22.3431 30 24V30C30 31.6569 28.6569 33 27 33H21V39C21 40.6569 19.6569 42 18 42H12C10.3431 42 9 40.6569 9 39V33H3C1.34315 33 0 31.6569 0 30V24C0 22.3431 1.34315 21 3 21H9V15Z" fill="white"/>
<path d="M44.936 33.187C44.052 33.187 43.2303 33.034 42.471 32.728C41.723 32.4107 41.06 31.9743 40.482 31.419C39.9153 30.8523 39.4733 30.2007 39.156 29.464C38.85 28.716 38.697 27.9113 38.697 27.05C38.697 26.1887 38.85 25.3897 39.156 24.653C39.4733 23.905 39.9153 23.2533 40.482 22.698C41.06 22.1313 41.7287 21.695 42.488 21.389C43.2473 21.0717 44.0633 20.913 44.936 20.913C45.5593 20.913 46.1657 20.998 46.755 21.168C47.3557 21.3267 47.9053 21.559 48.404 21.865C48.914 22.171 49.356 22.5393 49.73 22.97L48.54 24.194C48.098 23.6613 47.5597 23.259 46.925 22.987C46.2903 22.7037 45.6273 22.562 44.936 22.562C44.3013 22.562 43.712 22.6753 43.168 22.902C42.6353 23.1287 42.1707 23.446 41.774 23.854C41.3773 24.2507 41.0657 24.721 40.839 25.265C40.6237 25.809 40.516 26.404 40.516 27.05C40.516 27.6847 40.6237 28.274 40.839 28.818C41.0657 29.362 41.383 29.838 41.791 30.246C42.199 30.654 42.675 30.9713 43.219 31.198C43.763 31.4247 44.3523 31.538 44.987 31.538C45.6783 31.538 46.33 31.402 46.942 31.13C47.5653 30.8467 48.0923 30.45 48.523 29.94L49.696 31.13C49.2993 31.5493 48.846 31.9177 48.336 32.235C47.8373 32.541 47.2933 32.779 46.704 32.949C46.126 33.1077 45.5367 33.187 44.936 33.187ZM51.2384 33V21.1L52.9384 20.726V25.231C53.607 24.5283 54.474 24.177 55.5394 24.177C56.208 24.177 56.7917 24.3187 57.2904 24.602C57.8004 24.8853 58.197 25.282 58.4804 25.792C58.775 26.302 58.9224 26.8913 58.9224 27.56V33H57.2224V27.849C57.2224 27.169 57.0297 26.6363 56.6444 26.251C56.259 25.8543 55.732 25.656 55.0634 25.656C54.61 25.656 54.202 25.7523 53.8394 25.945C53.4767 26.1377 53.1764 26.4153 52.9384 26.778V33H51.2384ZM64.9979 33.17C64.1592 33.17 63.3942 32.9717 62.7029 32.575C62.0229 32.1783 61.4845 31.64 61.0879 30.96C60.6912 30.28 60.4929 29.5207 60.4929 28.682C60.4929 27.8433 60.6912 27.084 61.0879 26.404C61.4845 25.724 62.0229 25.1857 62.7029 24.789C63.3942 24.381 64.1592 24.177 64.9979 24.177C65.8479 24.177 66.6129 24.381 67.2929 24.789C67.9729 25.1857 68.5112 25.724 68.9079 26.404C69.3045 27.084 69.5029 27.8433 69.5029 28.682C69.5029 29.5207 69.3045 30.28 68.9079 30.96C68.5112 31.64 67.9729 32.1783 67.2929 32.575C66.6129 32.9717 65.8479 33.17 64.9979 33.17ZM64.9979 31.674C65.5305 31.674 66.0122 31.5437 66.4429 31.283C66.8735 31.011 67.2135 30.6483 67.4629 30.195C67.7122 29.7417 67.8369 29.2317 67.8369 28.665C67.8369 28.1097 67.7065 27.611 67.4459 27.169C67.1965 26.7157 66.8565 26.353 66.4259 26.081C66.0065 25.809 65.5305 25.673 64.9979 25.673C64.4652 25.673 63.9835 25.809 63.5529 26.081C63.1335 26.353 62.7935 26.7157 62.5329 27.169C62.2835 27.611 62.1589 28.1097 62.1589 28.665C62.1589 29.2317 62.2835 29.7417 62.5329 30.195C62.7822 30.6483 63.1222 31.011 63.5529 31.283C63.9835 31.5437 64.4652 31.674 64.9979 31.674ZM75.2244 33.17C74.3858 33.17 73.6208 32.9717 72.9294 32.575C72.2494 32.1783 71.7111 31.64 71.3144 30.96C70.9178 30.28 70.7194 29.5207 70.7194 28.682C70.7194 27.8433 70.9178 27.084 71.3144 26.404C71.7111 25.724 72.2494 25.1857 72.9294 24.789C73.6208 24.381 74.3858 24.177 75.2244 24.177C76.0744 24.177 76.8394 24.381 77.5194 24.789C78.1994 25.1857 78.7378 25.724 79.1344 26.404C79.5311 27.084 79.7294 27.8433 79.7294 28.682C79.7294 29.5207 79.5311 30.28 79.1344 30.96C78.7378 31.64 78.1994 32.1783 77.5194 32.575C76.8394 32.9717 76.0744 33.17 75.2244 33.17ZM75.2244 31.674C75.7571 31.674 76.2388 31.5437 76.6694 31.283C77.1001 31.011 77.4401 30.6483 77.6894 30.195C77.9388 29.7417 78.0634 29.2317 78.0634 28.665C78.0634 28.1097 77.9331 27.611 77.6724 27.169C77.4231 26.7157 77.0831 26.353 76.6524 26.081C76.2331 25.809 75.7571 25.673 75.2244 25.673C74.6918 25.673 74.2101 25.809 73.7794 26.081C73.3601 26.353 73.0201 26.7157 72.7594 27.169C72.5101 27.611 72.3854 28.1097 72.3854 28.665C72.3854 29.2317 72.5101 29.7417 72.7594 30.195C73.0088 30.6483 73.3488 31.011 73.7794 31.283C74.2101 31.5437 74.6918 31.674 75.2244 31.674ZM84.312 33.17C83.564 33.17 82.8613 33.0623 82.204 32.847C81.558 32.6203 80.997 32.303 80.521 31.895L81.456 30.773C81.898 31.1243 82.3513 31.3963 82.816 31.589C83.292 31.7703 83.7737 31.861 84.261 31.861C84.873 31.861 85.3717 31.742 85.757 31.504C86.1423 31.266 86.335 30.9543 86.335 30.569C86.335 30.2517 86.2217 30.0023 85.995 29.821C85.7683 29.6397 85.417 29.515 84.941 29.447L83.377 29.226C82.5157 29.1013 81.8697 28.835 81.439 28.427C81.0083 28.019 80.793 27.475 80.793 26.795C80.793 26.2737 80.9347 25.8203 81.218 25.435C81.5013 25.0383 81.898 24.7323 82.408 24.517C82.918 24.2903 83.513 24.177 84.193 24.177C84.8163 24.177 85.417 24.2677 85.995 24.449C86.573 24.6303 87.1283 24.9137 87.661 25.299L86.794 26.421C86.318 26.1037 85.8533 25.8713 85.4 25.724C84.958 25.5767 84.5103 25.503 84.057 25.503C83.5357 25.503 83.1163 25.6163 82.799 25.843C82.4817 26.0583 82.323 26.3417 82.323 26.693C82.323 27.0103 82.4307 27.2597 82.646 27.441C82.8727 27.611 83.241 27.73 83.751 27.798L85.315 28.019C86.1763 28.1437 86.828 28.41 87.27 28.818C87.712 29.2147 87.933 29.753 87.933 30.433C87.933 30.9543 87.7743 31.4247 87.457 31.844C87.1397 32.252 86.709 32.575 86.165 32.813C85.621 33.051 85.0033 33.17 84.312 33.17ZM93.4703 33.153C92.6203 33.153 91.8497 32.9547 91.1583 32.558C90.4783 32.1613 89.9343 31.623 89.5263 30.943C89.1297 30.263 88.9313 29.5037 88.9313 28.665C88.9313 27.8377 89.124 27.0897 89.5093 26.421C89.8947 25.741 90.416 25.2027 91.0733 24.806C91.7307 24.398 92.4617 24.194 93.2663 24.194C94.071 24.194 94.785 24.398 95.4083 24.806C96.0317 25.2027 96.5247 25.7467 96.8873 26.438C97.2613 27.118 97.4483 27.8887 97.4483 28.75V29.226H90.6313C90.722 29.702 90.8977 30.127 91.1583 30.501C91.4303 30.875 91.7703 31.1697 92.1783 31.385C92.5977 31.6003 93.051 31.708 93.5383 31.708C93.9577 31.708 94.36 31.6457 94.7453 31.521C95.142 31.385 95.4707 31.1923 95.7313 30.943L96.8193 32.014C96.3093 32.3993 95.7823 32.6883 95.2383 32.881C94.7057 33.0623 94.1163 33.153 93.4703 33.153ZM90.6483 27.951H95.7653C95.6973 27.4977 95.5387 27.101 95.2893 26.761C95.0513 26.4097 94.751 26.1377 94.3883 25.945C94.037 25.741 93.6517 25.639 93.2323 25.639C92.8017 25.639 92.405 25.7353 92.0423 25.928C91.6797 26.1207 91.3737 26.3927 91.1243 26.744C90.8863 27.084 90.7277 27.4863 90.6483 27.951Z" fill="white"/>
<path d="M131.072 31.12C130.392 31.12 129.728 30.996 129.08 30.748C128.432 30.492 127.856 30.132 127.352 29.668L128.348 28.42C128.836 28.852 129.304 29.164 129.752 29.356C130.208 29.548 130.688 29.644 131.192 29.644C131.544 29.644 131.848 29.604 132.104 29.524C132.36 29.436 132.556 29.312 132.692 29.152C132.836 28.992 132.908 28.804 132.908 28.588C132.908 28.3 132.804 28.08 132.596 27.928C132.388 27.768 132.032 27.644 131.528 27.556L129.86 27.268C129.148 27.148 128.604 26.896 128.228 26.512C127.86 26.128 127.676 25.632 127.676 25.024C127.676 24.504 127.808 24.052 128.072 23.668C128.344 23.284 128.724 22.992 129.212 22.792C129.708 22.584 130.296 22.48 130.976 22.48C131.592 22.48 132.204 22.584 132.812 22.792C133.428 23 133.972 23.288 134.444 23.656L133.508 24.952C132.628 24.28 131.744 23.944 130.856 23.944C130.544 23.944 130.272 23.984 130.04 24.064C129.808 24.144 129.628 24.256 129.5 24.4C129.38 24.536 129.32 24.7 129.32 24.892C129.32 25.148 129.412 25.348 129.596 25.492C129.78 25.628 130.088 25.732 130.52 25.804L132.104 26.068C132.944 26.204 133.572 26.472 133.988 26.872C134.404 27.264 134.612 27.784 134.612 28.432C134.612 28.976 134.468 29.452 134.18 29.86C133.892 30.26 133.48 30.572 132.944 30.796C132.416 31.012 131.792 31.12 131.072 31.12ZM138.759 31V24.136H135.927V22.6H143.319V24.136H140.499V31H138.759ZM142.956 31L146.412 22.6H148.416L151.836 31H149.952L149.1 28.792H145.632L144.768 31H142.956ZM146.172 27.4H148.572L147.372 24.304L146.172 27.4ZM153.549 31V22.6H157.653C158.221 22.6 158.721 22.712 159.153 22.936C159.593 23.152 159.933 23.456 160.173 23.848C160.421 24.24 160.545 24.692 160.545 25.204C160.545 25.74 160.397 26.212 160.101 26.62C159.805 27.028 159.409 27.332 158.913 27.532L160.773 31H158.829L157.185 27.784H155.289V31H153.549ZM155.289 26.356H157.497C157.889 26.356 158.201 26.252 158.433 26.044C158.673 25.836 158.793 25.564 158.793 25.228C158.793 24.892 158.673 24.62 158.433 24.412C158.201 24.204 157.889 24.1 157.497 24.1H155.289V26.356ZM164.903 31V24.136H162.071V22.6H169.463V24.136H166.643V31H164.903Z" fill="white"/>
<rect x="119" y="17" width="59" height="20" rx="10" stroke="white" stroke-width="2"/>
<path d="M187.207 33V21.1H189.604L193.327 28.716L197.05 21.1H199.43V33H197.747V23.276L193.31 32.15L188.873 23.276V33H187.207ZM205.794 33.153C204.944 33.153 204.173 32.9547 203.482 32.558C202.802 32.1613 202.258 31.623 201.85 30.943C201.453 30.263 201.255 29.5037 201.255 28.665C201.255 27.8377 201.447 27.0897 201.833 26.421C202.218 25.741 202.739 25.2027 203.397 24.806C204.054 24.398 204.785 24.194 205.59 24.194C206.394 24.194 207.108 24.398 207.732 24.806C208.355 25.2027 208.848 25.7467 209.211 26.438C209.585 27.118 209.772 27.8887 209.772 28.75V29.226H202.955C203.045 29.702 203.221 30.127 203.482 30.501C203.754 30.875 204.094 31.1697 204.502 31.385C204.921 31.6003 205.374 31.708 205.862 31.708C206.281 31.708 206.683 31.6457 207.069 31.521C207.465 31.385 207.794 31.1923 208.055 30.943L209.143 32.014C208.633 32.3993 208.106 32.6883 207.562 32.881C207.029 33.0623 206.44 33.153 205.794 33.153ZM202.972 27.951H208.089C208.021 27.4977 207.862 27.101 207.613 26.761C207.375 26.4097 207.074 26.1377 206.712 25.945C206.36 25.741 205.975 25.639 205.556 25.639C205.125 25.639 204.728 25.7353 204.366 25.928C204.003 26.1207 203.697 26.3927 203.448 26.744C203.21 27.084 203.051 27.4863 202.972 27.951ZM211.391 33V24.347H213.091V25.231C213.759 24.5283 214.626 24.177 215.692 24.177C216.36 24.177 216.944 24.3187 217.443 24.602C217.953 24.8853 218.349 25.282 218.633 25.792C218.927 26.302 219.075 26.8913 219.075 27.56V33H217.375V27.849C217.375 27.169 217.182 26.6363 216.797 26.251C216.423 25.8543 215.896 25.656 215.216 25.656C214.762 25.656 214.354 25.7523 213.992 25.945C213.629 26.1377 213.329 26.4153 213.091 26.778V33H211.391ZM224.302 33.17C223.634 33.17 223.044 33.0283 222.534 32.745C222.024 32.4617 221.628 32.065 221.344 31.555C221.061 31.0337 220.919 30.4387 220.919 29.77V24.347H222.602V29.481C222.602 30.161 222.795 30.6993 223.18 31.096C223.577 31.4927 224.104 31.691 224.761 31.691C225.226 31.691 225.64 31.5947 226.002 31.402C226.365 31.198 226.66 30.9147 226.886 30.552V24.347H228.586V33H226.886V32.116C226.218 32.8187 225.356 33.17 224.302 33.17Z" fill="white"/>
<path d="M261.936 31.12C261.256 31.12 260.592 30.996 259.944 30.748C259.296 30.492 258.72 30.132 258.216 29.668L259.212 28.42C259.7 28.852 260.168 29.164 260.616 29.356C261.072 29.548 261.552 29.644 262.056 29.644C262.408 29.644 262.712 29.604 262.968 29.524C263.224 29.436 263.42 29.312 263.556 29.152C263.7 28.992 263.772 28.804 263.772 28.588C263.772 28.3 263.668 28.08 263.46 27.928C263.252 27.768 262.896 27.644 262.392 27.556L260.724 27.268C260.012 27.148 259.468 26.896 259.092 26.512C258.724 26.128 258.54 25.632 258.54 25.024C258.54 24.504 258.672 24.052 258.936 23.668C259.208 23.284 259.588 22.992 260.076 22.792C260.572 22.584 261.16 22.48 261.84 22.48C262.456 22.48 263.068 22.584 263.676 22.792C264.292 23 264.836 23.288 265.308 23.656L264.372 24.952C263.492 24.28 262.608 23.944 261.72 23.944C261.408 23.944 261.136 23.984 260.904 24.064C260.672 24.144 260.492 24.256 260.364 24.4C260.244 24.536 260.184 24.7 260.184 24.892C260.184 25.148 260.276 25.348 260.46 25.492C260.644 25.628 260.952 25.732 261.384 25.804L262.968 26.068C263.808 26.204 264.436 26.472 264.852 26.872C265.268 27.264 265.476 27.784 265.476 28.432C265.476 28.976 265.332 29.452 265.044 29.86C264.756 30.26 264.344 30.572 263.808 30.796C263.28 31.012 262.656 31.12 261.936 31.12ZM267.506 31V22.6H273.962V24.112H269.246V26.032H272.354V27.496H269.246V29.488H274.01V31H267.506ZM276.24 31V22.6H277.98V29.464H282.576V31H276.24ZM284.776 31V22.6H291.232V24.112H286.516V26.032H289.624V27.496H286.516V29.488H291.28V31H284.776ZM297.158 31.12C296.534 31.12 295.95 31.012 295.406 30.796C294.862 30.572 294.386 30.264 293.978 29.872C293.578 29.48 293.262 29.024 293.03 28.504C292.806 27.976 292.694 27.408 292.694 26.8C292.694 26.184 292.806 25.616 293.03 25.096C293.262 24.568 293.582 24.108 293.99 23.716C294.398 23.324 294.87 23.02 295.406 22.804C295.95 22.58 296.534 22.468 297.158 22.468C297.622 22.468 298.07 22.532 298.502 22.66C298.934 22.788 299.334 22.968 299.702 23.2C300.078 23.432 300.398 23.712 300.662 24.04L299.486 25.204C299.182 24.828 298.83 24.544 298.43 24.352C298.038 24.16 297.614 24.064 297.158 24.064C296.782 24.064 296.43 24.136 296.102 24.28C295.774 24.416 295.49 24.608 295.25 24.856C295.01 25.096 294.822 25.384 294.686 25.72C294.55 26.048 294.482 26.408 294.482 26.8C294.482 27.184 294.55 27.544 294.686 27.88C294.822 28.208 295.014 28.496 295.262 28.744C295.51 28.984 295.798 29.172 296.126 29.308C296.462 29.444 296.826 29.512 297.218 29.512C297.658 29.512 298.07 29.42 298.454 29.236C298.838 29.052 299.178 28.788 299.474 28.444L300.614 29.572C300.35 29.892 300.034 30.168 299.666 30.4C299.298 30.632 298.898 30.812 298.466 30.94C298.042 31.06 297.606 31.12 297.158 31.12ZM305.04 31V24.136H302.208V22.6H309.6V24.136H306.78V31H305.04Z" fill="white"/>
<rect x="250" y="17" width="68" height="20" rx="10" stroke="white" stroke-width="2"/>
<path d="M332.885 33.187C332.024 33.187 331.219 33.034 330.471 32.728C329.723 32.4107 329.06 31.9743 328.482 31.419C327.915 30.8523 327.473 30.2007 327.156 29.464C326.85 28.716 326.697 27.9113 326.697 27.05C326.697 26.1887 326.85 25.3897 327.156 24.653C327.473 23.905 327.915 23.2533 328.482 22.698C329.06 22.1313 329.723 21.695 330.471 21.389C331.219 21.0717 332.024 20.913 332.885 20.913C333.746 20.913 334.551 21.0717 335.299 21.389C336.058 21.695 336.721 22.1313 337.288 22.698C337.855 23.2533 338.297 23.905 338.614 24.653C338.931 25.3897 339.09 26.1887 339.09 27.05C339.09 27.9113 338.931 28.716 338.614 29.464C338.297 30.2007 337.855 30.8523 337.288 31.419C336.721 31.9743 336.058 32.4107 335.299 32.728C334.551 33.034 333.746 33.187 332.885 33.187ZM332.902 31.538C333.514 31.538 334.081 31.4247 334.602 31.198C335.135 30.9713 335.599 30.6597 335.996 30.263C336.393 29.855 336.704 29.379 336.931 28.835C337.158 28.2797 337.271 27.6847 337.271 27.05C337.271 26.404 337.158 25.809 336.931 25.265C336.704 24.721 336.393 24.2507 335.996 23.854C335.599 23.446 335.135 23.1287 334.602 22.902C334.081 22.6753 333.514 22.562 332.902 22.562C332.279 22.562 331.701 22.6753 331.168 22.902C330.635 23.1287 330.171 23.446 329.774 23.854C329.377 24.2507 329.066 24.721 328.839 25.265C328.624 25.809 328.516 26.404 328.516 27.05C328.516 27.6847 328.624 28.2797 328.839 28.835C329.066 29.379 329.377 29.855 329.774 30.263C330.171 30.6597 330.635 30.9713 331.168 31.198C331.701 31.4247 332.279 31.538 332.902 31.538ZM340.766 36.468V24.347H342.449V25.18C343.174 24.534 344.058 24.211 345.101 24.211C345.917 24.211 346.653 24.4093 347.311 24.806C347.979 25.2027 348.506 25.7353 348.892 26.404C349.277 27.0727 349.47 27.8263 349.47 28.665C349.47 29.5037 349.271 30.263 348.875 30.943C348.489 31.6117 347.962 32.1443 347.294 32.541C346.636 32.9377 345.894 33.136 345.067 33.136C344.591 33.136 344.132 33.0623 343.69 32.915C343.248 32.7563 342.84 32.5353 342.466 32.252V36.468H340.766ZM344.88 31.657C345.435 31.657 345.928 31.5267 346.359 31.266C346.801 31.0053 347.152 30.654 347.413 30.212C347.673 29.7587 347.804 29.2487 347.804 28.682C347.804 28.1153 347.673 27.6053 347.413 27.152C347.152 26.6987 346.801 26.3417 346.359 26.081C345.928 25.8203 345.435 25.69 344.88 25.69C344.392 25.69 343.939 25.7807 343.52 25.962C343.1 26.1433 342.749 26.3983 342.466 26.727V30.637C342.749 30.9543 343.1 31.2037 343.52 31.385C343.95 31.5663 344.404 31.657 344.88 31.657ZM354.3 33.153C353.461 33.153 352.821 32.9603 352.379 32.575C351.937 32.1783 351.716 31.606 351.716 30.858V25.775H349.88V24.347H351.716V22.137L353.399 21.729V24.347H355.949V25.775H353.399V30.467C353.399 30.909 353.495 31.2263 353.688 31.419C353.892 31.6003 354.22 31.691 354.674 31.691C354.912 31.691 355.121 31.674 355.303 31.64C355.495 31.606 355.699 31.555 355.915 31.487V32.915C355.688 32.9943 355.422 33.051 355.116 33.085C354.821 33.1303 354.549 33.153 354.3 33.153ZM357.201 33V24.347H358.901V33H357.201ZM358.051 22.953C357.768 22.953 357.524 22.851 357.32 22.647C357.116 22.4317 357.014 22.1823 357.014 21.899C357.014 21.6043 357.116 21.3607 357.32 21.168C357.524 20.964 357.768 20.862 358.051 20.862C358.346 20.862 358.595 20.964 358.799 21.168C359.003 21.3607 359.105 21.6043 359.105 21.899C359.105 22.1823 359.003 22.4317 358.799 22.647C358.595 22.851 358.346 22.953 358.051 22.953ZM365.017 33.17C364.179 33.17 363.414 32.9717 362.722 32.575C362.042 32.1783 361.504 31.64 361.107 30.96C360.711 30.28 360.512 29.5207 360.512 28.682C360.512 27.8433 360.711 27.084 361.107 26.404C361.504 25.724 362.042 25.1857 362.722 24.789C363.414 24.381 364.179 24.177 365.017 24.177C365.867 24.177 366.632 24.381 367.312 24.789C367.992 25.1857 368.531 25.724 368.927 26.404C369.324 27.084 369.522 27.8433 369.522 28.682C369.522 29.5207 369.324 30.28 368.927 30.96C368.531 31.64 367.992 32.1783 367.312 32.575C366.632 32.9717 365.867 33.17 365.017 33.17ZM365.017 31.674C365.55 31.674 366.032 31.5437 366.462 31.283C366.893 31.011 367.233 30.6483 367.482 30.195C367.732 29.7417 367.856 29.2317 367.856 28.665C367.856 28.1097 367.726 27.611 367.465 27.169C367.216 26.7157 366.876 26.353 366.445 26.081C366.026 25.809 365.55 25.673 365.017 25.673C364.485 25.673 364.003 25.809 363.572 26.081C363.153 26.353 362.813 26.7157 362.552 27.169C362.303 27.611 362.178 28.1097 362.178 28.665C362.178 29.2317 362.303 29.7417 362.552 30.195C362.802 30.6483 363.142 31.011 363.572 31.283C364.003 31.5437 364.485 31.674 365.017 31.674ZM371.13 33V24.347H372.83V25.231C373.499 24.5283 374.366 24.177 375.431 24.177C376.1 24.177 376.683 24.3187 377.182 24.602C377.692 24.8853 378.089 25.282 378.372 25.792C378.667 26.302 378.814 26.8913 378.814 27.56V33H377.114V27.849C377.114 27.169 376.921 26.6363 376.536 26.251C376.162 25.8543 375.635 25.656 374.955 25.656C374.502 25.656 374.094 25.7523 373.731 25.945C373.368 26.1377 373.068 26.4153 372.83 26.778V33H371.13ZM383.75 33.17C383.002 33.17 382.3 33.0623 381.642 32.847C380.996 32.6203 380.435 32.303 379.959 31.895L380.894 30.773C381.336 31.1243 381.79 31.3963 382.254 31.589C382.73 31.7703 383.212 31.861 383.699 31.861C384.311 31.861 384.81 31.742 385.195 31.504C385.581 31.266 385.773 30.9543 385.773 30.569C385.773 30.2517 385.66 30.0023 385.433 29.821C385.207 29.6397 384.855 29.515 384.379 29.447L382.815 29.226C381.954 29.1013 381.308 28.835 380.877 28.427C380.447 28.019 380.231 27.475 380.231 26.795C380.231 26.2737 380.373 25.8203 380.656 25.435C380.94 25.0383 381.336 24.7323 381.846 24.517C382.356 24.2903 382.951 24.177 383.631 24.177C384.255 24.177 384.855 24.2677 385.433 24.449C386.011 24.6303 386.567 24.9137 387.099 25.299L386.232 26.421C385.756 26.1037 385.292 25.8713 384.838 25.724C384.396 25.5767 383.949 25.503 383.495 25.503C382.974 25.503 382.555 25.6163 382.237 25.843C381.92 26.0583 381.761 26.3417 381.761 26.693C381.761 27.0103 381.869 27.2597 382.084 27.441C382.311 27.611 382.679 27.73 383.189 27.798L384.753 28.019C385.615 28.1437 386.266 28.41 386.708 28.818C387.15 29.2147 387.371 29.753 387.371 30.433C387.371 30.9543 387.213 31.4247 386.895 31.844C386.578 32.252 386.147 32.575 385.603 32.813C385.059 33.051 384.442 33.17 383.75 33.17Z" fill="white"/>
</svg>
