<svg width="1050" height="54" viewBox="0 0 1050 54" fill="none" xmlns="http://www.w3.org/2000/svg">
<g opacity="0.5">
<path d="M321.068 33L326.015 21.1H327.596L332.475 33H331.047L329.551 29.26H323.941L322.428 33H321.068ZM324.4 28.138H329.092L326.763 22.324L324.4 28.138Z" fill="white"/>
<path d="M339.808 33V32.099C339.445 32.439 339.026 32.6997 338.55 32.881C338.085 33.051 337.587 33.136 337.054 33.136C336.453 33.136 335.892 33.0227 335.371 32.796C334.85 32.5693 334.396 32.2633 334.011 31.878C333.626 31.4813 333.32 31.011 333.093 30.467C332.878 29.923 332.77 29.345 332.77 28.733C332.77 28.121 332.878 27.5487 333.093 27.016C333.32 26.472 333.626 26.0073 334.011 25.622C334.396 25.2253 334.85 24.9137 335.371 24.687C335.904 24.4603 336.47 24.347 337.071 24.347C337.558 24.347 338.034 24.432 338.499 24.602C338.975 24.7607 339.406 24.9987 339.791 25.316V21.1L341.049 20.811V33H339.808ZM334.011 28.716C334.011 29.1807 334.09 29.617 334.249 30.025C334.419 30.433 334.646 30.7843 334.929 31.079C335.212 31.3737 335.547 31.606 335.932 31.776C336.317 31.946 336.731 32.031 337.173 32.031C337.706 32.031 338.199 31.929 338.652 31.725C339.117 31.5097 339.496 31.215 339.791 30.841V26.625C339.496 26.2623 339.117 25.979 338.652 25.775C338.187 25.5597 337.694 25.452 337.173 25.452C336.289 25.452 335.541 25.7637 334.929 26.387C334.317 27.0103 334.011 27.7867 334.011 28.716Z" fill="white"/>
<path d="M349.835 33V32.099C349.473 32.439 349.053 32.6997 348.577 32.881C348.113 33.051 347.614 33.136 347.081 33.136C346.481 33.136 345.92 33.0227 345.398 32.796C344.877 32.5693 344.424 32.2633 344.038 31.878C343.653 31.4813 343.347 31.011 343.12 30.467C342.905 29.923 342.797 29.345 342.797 28.733C342.797 28.121 342.905 27.5487 343.12 27.016C343.347 26.472 343.653 26.0073 344.038 25.622C344.424 25.2253 344.877 24.9137 345.398 24.687C345.931 24.4603 346.498 24.347 347.098 24.347C347.586 24.347 348.062 24.432 348.526 24.602C349.002 24.7607 349.433 24.9987 349.818 25.316V21.1L351.076 20.811V33H349.835ZM344.038 28.716C344.038 29.1807 344.118 29.617 344.276 30.025C344.446 30.433 344.673 30.7843 344.956 31.079C345.24 31.3737 345.574 31.606 345.959 31.776C346.345 31.946 346.758 32.031 347.2 32.031C347.733 32.031 348.226 31.929 348.679 31.725C349.144 31.5097 349.524 31.215 349.818 30.841V26.625C349.524 26.2623 349.144 25.979 348.679 25.775C348.215 25.5597 347.722 25.452 347.2 25.452C346.316 25.452 345.568 25.7637 344.956 26.387C344.344 27.0103 344.038 27.7867 344.038 28.716Z" fill="white"/>
<path d="M357.922 31.096V25.554H356.086V24.483H357.922V22.324L359.163 22.001V24.483H361.73V25.554H359.163V30.773C359.163 31.2263 359.265 31.555 359.469 31.759C359.673 31.9517 360.007 32.048 360.472 32.048C360.71 32.048 360.92 32.031 361.101 31.997C361.294 31.963 361.498 31.9063 361.713 31.827V32.932C361.498 33.0113 361.254 33.068 360.982 33.102C360.721 33.136 360.466 33.153 360.217 33.153C359.48 33.153 358.914 32.9773 358.517 32.626C358.12 32.2747 357.922 31.7647 357.922 31.096Z" fill="white"/>
<path d="M362.42 28.733C362.42 28.121 362.534 27.543 362.76 26.999C362.987 26.455 363.293 25.9847 363.678 25.588C364.075 25.1913 364.54 24.8797 365.072 24.653C365.605 24.4263 366.172 24.313 366.772 24.313C367.373 24.313 367.934 24.4263 368.455 24.653C368.988 24.8797 369.447 25.1913 369.832 25.588C370.229 25.9847 370.541 26.455 370.767 26.999C370.994 27.543 371.107 28.121 371.107 28.733C371.107 29.3563 370.994 29.94 370.767 30.484C370.541 31.028 370.229 31.4983 369.832 31.895C369.447 32.2917 368.988 32.6033 368.455 32.83C367.934 33.0567 367.373 33.17 366.772 33.17C366.172 33.17 365.605 33.0567 365.072 32.83C364.54 32.6033 364.075 32.2917 363.678 31.895C363.293 31.4983 362.987 31.028 362.76 30.484C362.534 29.94 362.42 29.3563 362.42 28.733ZM366.772 32.048C367.203 32.048 367.605 31.963 367.979 31.793C368.365 31.623 368.693 31.3907 368.965 31.096C369.249 30.79 369.47 30.4387 369.628 30.042C369.787 29.634 369.866 29.1977 369.866 28.733C369.866 28.2683 369.787 27.8377 369.628 27.441C369.47 27.033 369.249 26.6817 368.965 26.387C368.693 26.0923 368.365 25.86 367.979 25.69C367.605 25.52 367.203 25.435 366.772 25.435C366.342 25.435 365.934 25.52 365.548 25.69C365.174 25.86 364.846 26.0923 364.562 26.387C364.29 26.6817 364.069 27.033 363.899 27.441C363.741 27.8377 363.661 28.2683 363.661 28.733C363.661 29.1977 363.741 29.634 363.899 30.042C364.058 30.4387 364.273 30.79 364.545 31.096C364.829 31.3907 365.163 31.623 365.548 31.793C365.934 31.963 366.342 32.048 366.772 32.048Z" fill="white"/>
<path d="M376.746 33V21.1H385.263V22.256H378.055V26.506H382.781V27.645H378.055V33H376.746Z" fill="white"/>
<path d="M388.258 33.153C387.329 33.153 386.569 32.915 385.98 32.439C385.402 31.963 385.113 31.3453 385.113 30.586C385.113 29.7927 385.419 29.1637 386.031 28.699C386.643 28.223 387.47 27.985 388.513 27.985C388.966 27.985 389.403 28.036 389.822 28.138C390.253 28.24 390.649 28.3817 391.012 28.563V27.441C391.012 26.761 390.819 26.251 390.434 25.911C390.049 25.5597 389.488 25.384 388.751 25.384C388.332 25.384 387.907 25.4463 387.476 25.571C387.057 25.6843 386.592 25.8713 386.082 26.132L385.606 25.163C386.218 24.8683 386.785 24.653 387.306 24.517C387.827 24.381 388.349 24.313 388.87 24.313C389.947 24.313 390.774 24.568 391.352 25.078C391.941 25.588 392.236 26.319 392.236 27.271V33H391.012V32.167C390.627 32.4957 390.202 32.745 389.737 32.915C389.284 33.0737 388.791 33.153 388.258 33.153ZM386.32 30.552C386.32 31.028 386.518 31.419 386.915 31.725C387.323 32.0197 387.844 32.167 388.479 32.167C388.989 32.167 389.454 32.0877 389.873 31.929C390.292 31.7703 390.672 31.521 391.012 31.181V29.583C390.661 29.345 390.281 29.175 389.873 29.073C389.476 28.9597 389.034 28.903 388.547 28.903C387.867 28.903 387.323 29.056 386.915 29.362C386.518 29.6567 386.32 30.0533 386.32 30.552Z" fill="white"/>
<path d="M396.592 33L392.903 24.483H394.297L397.204 31.368L400.111 24.483H401.454L397.782 33H396.592Z" fill="white"/>
<path d="M401.882 28.733C401.882 28.121 401.995 27.543 402.222 26.999C402.449 26.455 402.755 25.9847 403.14 25.588C403.537 25.1913 404.001 24.8797 404.534 24.653C405.067 24.4263 405.633 24.313 406.234 24.313C406.835 24.313 407.396 24.4263 407.917 24.653C408.45 24.8797 408.909 25.1913 409.294 25.588C409.691 25.9847 410.003 26.455 410.229 26.999C410.456 27.543 410.569 28.121 410.569 28.733C410.569 29.3563 410.456 29.94 410.229 30.484C410.003 31.028 409.691 31.4983 409.294 31.895C408.909 32.2917 408.45 32.6033 407.917 32.83C407.396 33.0567 406.835 33.17 406.234 33.17C405.633 33.17 405.067 33.0567 404.534 32.83C404.001 32.6033 403.537 32.2917 403.14 31.895C402.755 31.4983 402.449 31.028 402.222 30.484C401.995 29.94 401.882 29.3563 401.882 28.733ZM406.234 32.048C406.665 32.048 407.067 31.963 407.441 31.793C407.827 31.623 408.155 31.3907 408.427 31.096C408.71 30.79 408.931 30.4387 409.09 30.042C409.249 29.634 409.328 29.1977 409.328 28.733C409.328 28.2683 409.249 27.8377 409.09 27.441C408.931 27.033 408.71 26.6817 408.427 26.387C408.155 26.0923 407.827 25.86 407.441 25.69C407.067 25.52 406.665 25.435 406.234 25.435C405.803 25.435 405.396 25.52 405.01 25.69C404.636 25.86 404.307 26.0923 404.024 26.387C403.752 26.6817 403.531 27.033 403.361 27.441C403.202 27.8377 403.123 28.2683 403.123 28.733C403.123 29.1977 403.202 29.634 403.361 30.042C403.52 30.4387 403.735 30.79 404.007 31.096C404.29 31.3907 404.625 31.623 405.01 31.793C405.396 31.963 405.803 32.048 406.234 32.048Z" fill="white"/>
<path d="M413.524 24.483V29.617C413.524 30.365 413.739 30.96 414.17 31.402C414.601 31.844 415.179 32.065 415.904 32.065C416.414 32.065 416.867 31.9517 417.264 31.725C417.672 31.487 418.001 31.1583 418.25 30.739V24.483H419.508V33H418.25V32.014C417.921 32.3993 417.53 32.6883 417.077 32.881C416.635 33.0737 416.136 33.17 415.581 33.17C414.606 33.17 413.813 32.864 413.201 32.252C412.589 31.64 412.283 30.8467 412.283 29.872V24.483H413.524Z" fill="white"/>
<path d="M421.647 33V24.483H422.905V25.69C423.155 25.248 423.483 24.908 423.891 24.67C424.299 24.4207 424.764 24.296 425.285 24.296C425.444 24.296 425.586 24.3073 425.71 24.33C425.835 24.3413 425.96 24.3697 426.084 24.415V25.571C425.937 25.5257 425.79 25.4917 425.642 25.469C425.495 25.435 425.348 25.418 425.2 25.418C424.679 25.418 424.22 25.571 423.823 25.877C423.427 26.1717 423.121 26.6023 422.905 27.169V33H421.647Z" fill="white"/>
<path d="M428.153 22.851C427.926 22.851 427.728 22.766 427.558 22.596C427.388 22.426 427.303 22.2277 427.303 22.001C427.303 21.763 427.388 21.5647 427.558 21.406C427.728 21.236 427.926 21.151 428.153 21.151C428.391 21.151 428.589 21.236 428.748 21.406C428.918 21.5647 429.003 21.763 429.003 22.001C429.003 22.2277 428.918 22.426 428.748 22.596C428.589 22.766 428.391 22.851 428.153 22.851ZM428.782 24.483V33H427.524V24.483H428.782Z" fill="white"/>
<path d="M431.981 31.096V25.554H430.145V24.483H431.981V22.324L433.222 22.001V24.483H435.789V25.554H433.222V30.773C433.222 31.2263 433.324 31.555 433.528 31.759C433.732 31.9517 434.067 32.048 434.531 32.048C434.769 32.048 434.979 32.031 435.16 31.997C435.353 31.963 435.557 31.9063 435.772 31.827V32.932C435.557 33.0113 435.313 33.068 435.041 33.102C434.781 33.136 434.526 33.153 434.276 33.153C433.54 33.153 432.973 32.9773 432.576 32.626C432.18 32.2747 431.981 31.7647 431.981 31.096Z" fill="white"/>
<path d="M444.045 32.099C443.569 32.4503 443.07 32.7167 442.549 32.898C442.039 33.068 441.478 33.153 440.866 33.153C440.254 33.153 439.676 33.0397 439.132 32.813C438.599 32.5863 438.134 32.2747 437.738 31.878C437.352 31.4813 437.046 31.0167 436.82 30.484C436.593 29.94 436.48 29.3563 436.48 28.733C436.48 28.121 436.587 27.5487 436.803 27.016C437.029 26.4833 437.33 26.0187 437.704 25.622C438.078 25.2253 438.52 24.9137 439.03 24.687C439.551 24.4603 440.101 24.347 440.679 24.347C441.245 24.347 441.772 24.4603 442.26 24.687C442.758 24.9137 443.183 25.2253 443.535 25.622C443.897 26.0187 444.181 26.4833 444.385 27.016C444.6 27.5487 444.708 28.121 444.708 28.733V29.124H437.721C437.811 29.9627 438.157 30.6597 438.758 31.215C439.358 31.7703 440.078 32.048 440.917 32.048C441.359 32.048 441.789 31.98 442.209 31.844C442.628 31.708 442.979 31.5153 443.263 31.266L444.045 32.099ZM440.645 25.452C439.908 25.452 439.268 25.7013 438.724 26.2C438.191 26.6987 437.868 27.339 437.755 28.121H443.45C443.336 27.373 443.013 26.744 442.481 26.234C441.959 25.7127 441.347 25.452 440.645 25.452Z" fill="white"/>
<path d="M445.683 31.827L446.448 31.011C446.833 31.3737 447.263 31.657 447.74 31.861C448.227 32.0537 448.72 32.15 449.219 32.15C449.898 32.15 450.454 32.0083 450.885 31.725C451.315 31.4417 451.531 31.0733 451.531 30.62C451.531 30.2573 451.4 29.974 451.14 29.77C450.89 29.5547 450.494 29.4073 449.95 29.328L448.471 29.124C447.621 28.9993 446.986 28.75 446.567 28.376C446.159 27.9907 445.955 27.475 445.955 26.829C445.955 26.115 446.255 25.5257 446.856 25.061C447.456 24.585 448.221 24.347 449.151 24.347C449.763 24.347 450.341 24.4377 450.885 24.619C451.44 24.8003 451.978 25.0837 452.5 25.469L451.837 26.319C451.361 26.0017 450.896 25.7637 450.443 25.605C450.001 25.4463 449.547 25.367 449.083 25.367C448.505 25.367 448.029 25.4973 447.655 25.758C447.292 26.0187 447.111 26.3587 447.111 26.778C447.111 27.1407 447.235 27.424 447.485 27.628C447.734 27.8207 448.136 27.9567 448.692 28.036L450.171 28.24C451.021 28.3533 451.655 28.6083 452.075 29.005C452.505 29.3903 452.721 29.906 452.721 30.552C452.721 30.9147 452.63 31.2603 452.449 31.589C452.279 31.9063 452.035 32.184 451.718 32.422C451.412 32.6487 451.049 32.83 450.63 32.966C450.21 33.0907 449.757 33.153 449.27 33.153C448.567 33.153 447.904 33.0397 447.281 32.813C446.669 32.575 446.136 32.2463 445.683 31.827Z" fill="white"/>
<path fill-rule="evenodd" clip-rule="evenodd" d="M312 27C312 35.2843 305.284 42 297 42C288.716 42 282 35.2843 282 27C282 18.7157 288.716 12 297 12C305.284 12 312 18.7157 312 27ZM296.124 27.784V31H297.864V27.796L301.308 22.6H299.412L297.048 26.248L294.696 22.6H292.692L296.124 27.784Z" fill="white"/>
<path d="M522.309 33V21.1H527.409C528.565 21.1 529.5 21.4173 530.214 22.052C530.928 22.6753 531.285 23.497 531.285 24.517C531.285 25.299 531.053 25.9733 530.588 26.54C530.135 27.1067 529.523 27.4977 528.752 27.713L531.421 33H529.976L527.426 27.883H523.618V33H522.309ZM527.324 22.273H523.618V26.778H527.324C528.117 26.778 528.758 26.574 529.245 26.166C529.732 25.7467 529.976 25.197 529.976 24.517C529.976 23.837 529.732 23.293 529.245 22.885C528.758 22.477 528.117 22.273 527.324 22.273Z" fill="white"/>
<path d="M535.548 33.153C534.619 33.153 533.859 32.915 533.27 32.439C532.692 31.963 532.403 31.3453 532.403 30.586C532.403 29.7927 532.709 29.1637 533.321 28.699C533.933 28.223 534.76 27.985 535.803 27.985C536.256 27.985 536.693 28.036 537.112 28.138C537.543 28.24 537.939 28.3817 538.302 28.563V27.441C538.302 26.761 538.109 26.251 537.724 25.911C537.339 25.5597 536.778 25.384 536.041 25.384C535.622 25.384 535.197 25.4463 534.766 25.571C534.347 25.6843 533.882 25.8713 533.372 26.132L532.896 25.163C533.508 24.8683 534.075 24.653 534.596 24.517C535.117 24.381 535.639 24.313 536.16 24.313C537.237 24.313 538.064 24.568 538.642 25.078C539.231 25.588 539.526 26.319 539.526 27.271V33H538.302V32.167C537.917 32.4957 537.492 32.745 537.027 32.915C536.574 33.0737 536.081 33.153 535.548 33.153ZM533.61 30.552C533.61 31.028 533.808 31.419 534.205 31.725C534.613 32.0197 535.134 32.167 535.769 32.167C536.279 32.167 536.744 32.0877 537.163 31.929C537.582 31.7703 537.962 31.521 538.302 31.181V29.583C537.951 29.345 537.571 29.175 537.163 29.073C536.766 28.9597 536.324 28.903 535.837 28.903C535.157 28.903 534.613 29.056 534.205 29.362C533.808 29.6567 533.61 30.0533 533.61 30.552Z" fill="white"/>
<path d="M541.628 33V24.483H542.886V25.486C543.214 25.1007 543.605 24.8117 544.059 24.619C544.512 24.415 545.016 24.313 545.572 24.313C546.535 24.313 547.323 24.619 547.935 25.231C548.547 25.843 548.853 26.6363 548.853 27.611V33H547.612V27.866C547.612 27.118 547.396 26.523 546.966 26.081C546.535 25.639 545.957 25.418 545.232 25.418C544.722 25.418 544.263 25.5313 543.855 25.758C543.458 25.9847 543.135 26.3077 542.886 26.727V33H541.628Z" fill="white"/>
<path d="M557.605 33V32.099C557.242 32.439 556.823 32.6997 556.347 32.881C555.882 33.051 555.383 33.136 554.851 33.136C554.25 33.136 553.689 33.0227 553.168 32.796C552.646 32.5693 552.193 32.2633 551.808 31.878C551.422 31.4813 551.116 31.011 550.89 30.467C550.674 29.923 550.567 29.345 550.567 28.733C550.567 28.121 550.674 27.5487 550.89 27.016C551.116 26.472 551.422 26.0073 551.808 25.622C552.193 25.2253 552.646 24.9137 553.168 24.687C553.7 24.4603 554.267 24.347 554.868 24.347C555.355 24.347 555.831 24.432 556.296 24.602C556.772 24.7607 557.202 24.9987 557.588 25.316V21.1L558.846 20.811V33H557.605ZM551.808 28.716C551.808 29.1807 551.887 29.617 552.046 30.025C552.216 30.433 552.442 30.7843 552.726 31.079C553.009 31.3737 553.343 31.606 553.729 31.776C554.114 31.946 554.528 32.031 554.97 32.031C555.502 32.031 555.995 31.929 556.449 31.725C556.913 31.5097 557.293 31.215 557.588 30.841V26.625C557.293 26.2623 556.913 25.979 556.449 25.775C555.984 25.5597 555.491 25.452 554.97 25.452C554.086 25.452 553.338 25.7637 552.726 26.387C552.114 27.0103 551.808 27.7867 551.808 28.716Z" fill="white"/>
<path d="M560.594 28.733C560.594 28.121 560.707 27.543 560.934 26.999C561.161 26.455 561.467 25.9847 561.852 25.588C562.249 25.1913 562.713 24.8797 563.246 24.653C563.779 24.4263 564.345 24.313 564.946 24.313C565.547 24.313 566.108 24.4263 566.629 24.653C567.162 24.8797 567.621 25.1913 568.006 25.588C568.403 25.9847 568.714 26.455 568.941 26.999C569.168 27.543 569.281 28.121 569.281 28.733C569.281 29.3563 569.168 29.94 568.941 30.484C568.714 31.028 568.403 31.4983 568.006 31.895C567.621 32.2917 567.162 32.6033 566.629 32.83C566.108 33.0567 565.547 33.17 564.946 33.17C564.345 33.17 563.779 33.0567 563.246 32.83C562.713 32.6033 562.249 32.2917 561.852 31.895C561.467 31.4983 561.161 31.028 560.934 30.484C560.707 29.94 560.594 29.3563 560.594 28.733ZM564.946 32.048C565.377 32.048 565.779 31.963 566.153 31.793C566.538 31.623 566.867 31.3907 567.139 31.096C567.422 30.79 567.643 30.4387 567.802 30.042C567.961 29.634 568.04 29.1977 568.04 28.733C568.04 28.2683 567.961 27.8377 567.802 27.441C567.643 27.033 567.422 26.6817 567.139 26.387C566.867 26.0923 566.538 25.86 566.153 25.69C565.779 25.52 565.377 25.435 564.946 25.435C564.515 25.435 564.107 25.52 563.722 25.69C563.348 25.86 563.019 26.0923 562.736 26.387C562.464 26.6817 562.243 27.033 562.073 27.441C561.914 27.8377 561.835 28.2683 561.835 28.733C561.835 29.1977 561.914 29.634 562.073 30.042C562.232 30.4387 562.447 30.79 562.719 31.096C563.002 31.3907 563.337 31.623 563.722 31.793C564.107 31.963 564.515 32.048 564.946 32.048Z" fill="white"/>
<path d="M571.029 33V24.483H572.287V25.418C572.604 25.0553 572.973 24.7833 573.392 24.602C573.811 24.4093 574.276 24.313 574.786 24.313C575.375 24.313 575.902 24.4547 576.367 24.738C576.843 25.01 577.211 25.384 577.472 25.86C577.823 25.3387 578.243 24.9533 578.73 24.704C579.229 24.4433 579.784 24.313 580.396 24.313C581.314 24.313 582.062 24.619 582.64 25.231C583.229 25.843 583.524 26.6363 583.524 27.611V33H582.283V27.866C582.283 27.118 582.085 26.523 581.688 26.081C581.291 25.639 580.753 25.418 580.073 25.418C579.608 25.418 579.183 25.537 578.798 25.775C578.413 26.013 578.084 26.3587 577.812 26.812C577.835 26.9367 577.852 27.067 577.863 27.203C577.886 27.3277 577.897 27.4637 577.897 27.611V33H576.656V27.866C576.656 27.118 576.458 26.523 576.061 26.081C575.664 25.639 575.132 25.418 574.463 25.418C574.01 25.418 573.596 25.5257 573.222 25.741C572.859 25.945 572.548 26.251 572.287 26.659V33H571.029Z" fill="white"/>
<path d="M593.15 33.068C592.56 33.068 592.005 32.9547 591.484 32.728C590.974 32.5013 590.526 32.1953 590.141 31.81C589.755 31.4133 589.449 30.9487 589.223 30.416C589.007 29.8833 588.9 29.311 588.9 28.699C588.9 28.087 589.007 27.5147 589.223 26.982C589.449 26.4493 589.755 25.9903 590.141 25.605C590.526 25.2083 590.979 24.8967 591.501 24.67C592.022 24.4433 592.583 24.33 593.184 24.33C593.671 24.33 594.141 24.4207 594.595 24.602C595.059 24.772 595.484 25.0157 595.87 25.333V24.483H597.111V33.204C597.111 34.292 596.793 35.125 596.159 35.703C595.524 36.2923 594.617 36.587 593.439 36.587C592.849 36.587 592.266 36.5077 591.688 36.349C591.11 36.2017 590.583 35.9863 590.107 35.703L590.651 34.717C591.161 34.989 591.631 35.1873 592.062 35.312C592.504 35.4367 592.946 35.499 593.388 35.499C594.192 35.499 594.804 35.3063 595.224 34.921C595.643 34.5357 595.853 33.969 595.853 33.221V32.082C595.467 32.3993 595.042 32.643 594.578 32.813C594.124 32.983 593.648 33.068 593.15 33.068ZM590.141 28.699C590.141 29.1523 590.22 29.583 590.379 29.991C590.537 30.3877 590.753 30.7333 591.025 31.028C591.308 31.3113 591.642 31.538 592.028 31.708C592.413 31.878 592.821 31.963 593.252 31.963C593.796 31.963 594.294 31.861 594.748 31.657C595.201 31.453 595.569 31.164 595.853 30.79V26.608C595.569 26.2453 595.195 25.962 594.731 25.758C594.277 25.554 593.784 25.452 593.252 25.452C592.81 25.452 592.396 25.537 592.011 25.707C591.637 25.8657 591.308 26.0923 591.025 26.387C590.753 26.6817 590.537 27.0273 590.379 27.424C590.22 27.8207 590.141 28.2457 590.141 28.699Z" fill="white"/>
<path d="M601.938 33.153C601.008 33.153 600.249 32.915 599.66 32.439C599.082 31.963 598.793 31.3453 598.793 30.586C598.793 29.7927 599.099 29.1637 599.711 28.699C600.323 28.223 601.15 27.985 602.193 27.985C602.646 27.985 603.082 28.036 603.502 28.138C603.932 28.24 604.329 28.3817 604.692 28.563V27.441C604.692 26.761 604.499 26.251 604.114 25.911C603.728 25.5597 603.167 25.384 602.431 25.384C602.011 25.384 601.586 25.4463 601.156 25.571C600.736 25.6843 600.272 25.8713 599.762 26.132L599.286 25.163C599.898 24.8683 600.464 24.653 600.986 24.517C601.507 24.381 602.028 24.313 602.55 24.313C603.626 24.313 604.454 24.568 605.032 25.078C605.621 25.588 605.916 26.319 605.916 27.271V33H604.692V32.167C604.306 32.4957 603.881 32.745 603.417 32.915C602.963 33.0737 602.47 33.153 601.938 33.153ZM600 30.552C600 31.028 600.198 31.419 600.595 31.725C601.003 32.0197 601.524 32.167 602.159 32.167C602.669 32.167 603.133 32.0877 603.553 31.929C603.972 31.7703 604.352 31.521 604.692 31.181V29.583C604.34 29.345 603.961 29.175 603.553 29.073C603.156 28.9597 602.714 28.903 602.227 28.903C601.547 28.903 601.003 29.056 600.595 29.362C600.198 29.6567 600 30.0533 600 30.552Z" fill="white"/>
<path d="M608.017 33V24.483H609.275V25.418C609.593 25.0553 609.961 24.7833 610.38 24.602C610.8 24.4093 611.264 24.313 611.774 24.313C612.364 24.313 612.891 24.4547 613.355 24.738C613.831 25.01 614.2 25.384 614.46 25.86C614.812 25.3387 615.231 24.9533 615.718 24.704C616.217 24.4433 616.772 24.313 617.384 24.313C618.302 24.313 619.05 24.619 619.628 25.231C620.218 25.843 620.512 26.6363 620.512 27.611V33H619.271V27.866C619.271 27.118 619.073 26.523 618.676 26.081C618.28 25.639 617.741 25.418 617.061 25.418C616.597 25.418 616.172 25.537 615.786 25.775C615.401 26.013 615.072 26.3587 614.8 26.812C614.823 26.9367 614.84 27.067 614.851 27.203C614.874 27.3277 614.885 27.4637 614.885 27.611V33H613.644V27.866C613.644 27.118 613.446 26.523 613.049 26.081C612.653 25.639 612.12 25.418 611.451 25.418C610.998 25.418 610.584 25.5257 610.21 25.741C609.848 25.945 609.536 26.251 609.275 26.659V33H608.017Z" fill="white"/>
<path d="M629.801 32.099C629.325 32.4503 628.826 32.7167 628.305 32.898C627.795 33.068 627.234 33.153 626.622 33.153C626.01 33.153 625.432 33.0397 624.888 32.813C624.355 32.5863 623.89 32.2747 623.494 31.878C623.108 31.4813 622.802 31.0167 622.576 30.484C622.349 29.94 622.236 29.3563 622.236 28.733C622.236 28.121 622.343 27.5487 622.559 27.016C622.785 26.4833 623.086 26.0187 623.46 25.622C623.834 25.2253 624.276 24.9137 624.786 24.687C625.307 24.4603 625.857 24.347 626.435 24.347C627.001 24.347 627.528 24.4603 628.016 24.687C628.514 24.9137 628.939 25.2253 629.291 25.622C629.653 26.0187 629.937 26.4833 630.141 27.016C630.356 27.5487 630.464 28.121 630.464 28.733V29.124H623.477C623.567 29.9627 623.913 30.6597 624.514 31.215C625.114 31.7703 625.834 32.048 626.673 32.048C627.115 32.048 627.545 31.98 627.965 31.844C628.384 31.708 628.735 31.5153 629.019 31.266L629.801 32.099ZM626.401 25.452C625.664 25.452 625.024 25.7013 624.48 26.2C623.947 26.6987 623.624 27.339 623.511 28.121H629.206C629.092 27.373 628.769 26.744 628.237 26.234C627.715 25.7127 627.103 25.452 626.401 25.452Z" fill="white"/>
<path fill-rule="evenodd" clip-rule="evenodd" d="M512 27C512 35.2843 505.284 42 497 42C488.716 42 482 35.2843 482 27C482 18.7157 488.716 12 497 12C505.284 12 512 18.7157 512 27ZM492.769 31H494.773L496.969 27.94L499.165 31H501.241L498.001 26.656L500.989 22.6H498.985L497.005 25.36L495.013 22.6H492.937L495.961 26.656L492.769 31Z" fill="white"/>
<path d="M743.191 32.15L738.533 22.613V33H737.309V21.1H739.145L743.208 29.549L747.254 21.1H749.09V33H747.849V22.596L743.191 32.15Z" fill="white"/>
<path d="M758.639 32.099C758.163 32.4503 757.664 32.7167 757.143 32.898C756.633 33.068 756.072 33.153 755.46 33.153C754.848 33.153 754.27 33.0397 753.726 32.813C753.193 32.5863 752.728 32.2747 752.332 31.878C751.946 31.4813 751.64 31.0167 751.414 30.484C751.187 29.94 751.074 29.3563 751.074 28.733C751.074 28.121 751.181 27.5487 751.397 27.016C751.623 26.4833 751.924 26.0187 752.298 25.622C752.672 25.2253 753.114 24.9137 753.624 24.687C754.145 24.4603 754.695 24.347 755.273 24.347C755.839 24.347 756.366 24.4603 756.854 24.687C757.352 24.9137 757.777 25.2253 758.129 25.622C758.491 26.0187 758.775 26.4833 758.979 27.016C759.194 27.5487 759.302 28.121 759.302 28.733V29.124H752.315C752.405 29.9627 752.751 30.6597 753.352 31.215C753.952 31.7703 754.672 32.048 755.511 32.048C755.953 32.048 756.383 31.98 756.803 31.844C757.222 31.708 757.573 31.5153 757.857 31.266L758.639 32.099ZM755.239 25.452C754.502 25.452 753.862 25.7013 753.318 26.2C752.785 26.6987 752.462 27.339 752.349 28.121H758.044C757.93 27.373 757.607 26.744 757.075 26.234C756.553 25.7127 755.941 25.452 755.239 25.452Z" fill="white"/>
<path d="M761.06 33V24.483H762.318V25.486C762.647 25.1007 763.038 24.8117 763.491 24.619C763.945 24.415 764.449 24.313 765.004 24.313C765.968 24.313 766.755 24.619 767.367 25.231C767.979 25.843 768.285 26.6363 768.285 27.611V33H767.044V27.866C767.044 27.118 766.829 26.523 766.398 26.081C765.968 25.639 765.39 25.418 764.664 25.418C764.154 25.418 763.695 25.5313 763.287 25.758C762.891 25.9847 762.568 26.3077 762.318 26.727V33H761.06Z" fill="white"/>
<path d="M771.514 24.483V29.617C771.514 30.365 771.73 30.96 772.16 31.402C772.591 31.844 773.169 32.065 773.894 32.065C774.404 32.065 774.858 31.9517 775.254 31.725C775.662 31.487 775.991 31.1583 776.24 30.739V24.483H777.498V33H776.24V32.014C775.912 32.3993 775.521 32.6883 775.067 32.881C774.625 33.0737 774.127 33.17 773.571 33.17C772.597 33.17 771.803 32.864 771.191 32.252C770.579 31.64 770.273 30.8467 770.273 29.872V24.483H771.514Z" fill="white"/>
<path d="M693.996 27.4H691.596L692.808 24.304L693.996 27.4Z" fill="white"/>
<path d="M701.921 24.1H699.713V26.356H701.921C702.313 26.356 702.625 26.252 702.857 26.044C703.097 25.836 703.217 25.564 703.217 25.228C703.217 24.892 703.097 24.62 702.857 24.412C702.625 24.204 702.313 24.1 701.921 24.1Z" fill="white"/>
<path fill-rule="evenodd" clip-rule="evenodd" d="M671 17C665.477 17 661 21.4772 661 27C661 32.5228 665.477 37 671 37H717C722.523 37 727 32.5228 727 27C727 21.4772 722.523 17 717 17H671ZM674.929 29.668L675.925 28.42C676.413 28.844 676.881 29.156 677.329 29.356C677.785 29.548 678.265 29.644 678.769 29.644C679.289 29.644 679.705 29.548 680.017 29.356C680.329 29.164 680.485 28.908 680.485 28.588C680.485 28.3 680.377 28.076 680.161 27.916C679.953 27.756 679.601 27.636 679.105 27.556L677.437 27.268C676.717 27.148 676.169 26.896 675.793 26.512C675.425 26.128 675.241 25.632 675.241 25.024C675.241 24.24 675.537 23.62 676.129 23.164C676.729 22.708 677.537 22.48 678.553 22.48C679.161 22.48 679.773 22.584 680.389 22.792C681.013 23 681.557 23.288 682.021 23.656L681.085 24.952C680.637 24.608 680.197 24.356 679.765 24.196C679.333 24.028 678.889 23.944 678.433 23.944C677.969 23.944 677.597 24.032 677.317 24.208C677.037 24.376 676.897 24.604 676.897 24.892C676.897 25.148 676.989 25.348 677.173 25.492C677.357 25.636 677.665 25.74 678.097 25.804L679.681 26.068C680.513 26.204 681.137 26.472 681.553 26.872C681.977 27.264 682.189 27.784 682.189 28.432C682.189 29.248 681.865 29.9 681.217 30.388C680.577 30.876 679.721 31.12 678.649 31.12C677.977 31.12 677.313 30.992 676.657 30.736C676.009 30.48 675.433 30.124 674.929 29.668ZM682.456 24.136V22.6H689.848V24.136H687.028V31H685.288V24.136H682.456ZM691.836 22.6L688.38 31H690.192L691.056 28.792H694.524L695.376 31H697.26L693.852 22.6H691.836ZM697.973 31V22.6H702.077C702.501 22.6 702.889 22.664 703.241 22.792C703.601 22.92 703.909 23.1 704.165 23.332C704.421 23.556 704.621 23.828 704.765 24.148C704.909 24.468 704.981 24.82 704.981 25.204C704.981 25.732 704.829 26.204 704.525 26.62C704.229 27.036 703.833 27.344 703.337 27.544L705.197 31H703.253L701.609 27.784H699.713V31H697.973ZM705.495 22.6V24.136H708.327V31H710.067V24.136H712.887V22.6H705.495Z" fill="white"/>
<path d="M896.005 27.05C896.005 27.9 895.846 28.7047 895.529 29.464C895.212 30.212 894.775 30.8637 894.22 31.419C893.676 31.963 893.03 32.3937 892.282 32.711C891.534 33.0283 890.735 33.187 889.885 33.187C889.035 33.187 888.23 33.0283 887.471 32.711C886.723 32.3937 886.071 31.963 885.516 31.419C884.972 30.8637 884.541 30.212 884.224 29.464C883.907 28.7047 883.748 27.9 883.748 27.05C883.748 26.2 883.907 25.401 884.224 24.653C884.541 23.8937 884.972 23.242 885.516 22.698C886.071 22.1427 886.723 21.7063 887.471 21.389C888.23 21.0717 889.035 20.913 889.885 20.913C890.735 20.913 891.534 21.0717 892.282 21.389C893.03 21.7063 893.676 22.1427 894.22 22.698C894.775 23.242 895.212 23.8937 895.529 24.653C895.846 25.401 896.005 26.2 896.005 27.05ZM894.679 27.05C894.679 26.3587 894.554 25.7127 894.305 25.112C894.056 24.5 893.716 23.9787 893.285 23.548C892.866 23.106 892.361 22.7603 891.772 22.511C891.183 22.2503 890.554 22.12 889.885 22.12C889.205 22.12 888.57 22.2503 887.981 22.511C887.392 22.7603 886.882 23.106 886.451 23.548C886.032 23.9787 885.697 24.5 885.448 25.112C885.199 25.7127 885.074 26.3587 885.074 27.05C885.074 27.7413 885.199 28.3873 885.448 28.988C885.697 29.5887 886.032 30.11 886.451 30.552C886.882 30.994 887.392 31.3453 887.981 31.606C888.57 31.8553 889.205 31.98 889.885 31.98C890.554 31.98 891.183 31.8553 891.772 31.606C892.361 31.3453 892.866 30.994 893.285 30.552C893.716 30.11 894.056 29.5887 894.305 28.988C894.554 28.3873 894.679 27.7413 894.679 27.05Z" fill="white"/>
<path d="M897.817 36.485V24.483H899.058V25.401C899.421 25.0497 899.834 24.789 900.299 24.619C900.775 24.4377 901.279 24.347 901.812 24.347C902.413 24.347 902.974 24.4603 903.495 24.687C904.016 24.9137 904.47 25.2253 904.855 25.622C905.24 26.0073 905.541 26.472 905.756 27.016C905.983 27.5487 906.096 28.121 906.096 28.733C906.096 29.345 905.983 29.923 905.756 30.467C905.541 31.011 905.24 31.4813 904.855 31.878C904.47 32.2633 904.011 32.5693 903.478 32.796C902.957 33.0227 902.396 33.136 901.795 33.136C901.296 33.136 900.815 33.051 900.35 32.881C899.885 32.711 899.46 32.4673 899.075 32.15V36.485H897.817ZM901.693 25.452C901.16 25.452 900.662 25.5597 900.197 25.775C899.744 25.979 899.37 26.268 899.075 26.642V30.858C899.37 31.2207 899.749 31.5097 900.214 31.725C900.679 31.929 901.172 32.031 901.693 32.031C902.588 32.031 903.336 31.7193 903.937 31.096C904.549 30.4613 904.855 29.6793 904.855 28.75C904.855 28.2853 904.77 27.8547 904.6 27.458C904.441 27.05 904.22 26.6987 903.937 26.404C903.654 26.1093 903.319 25.877 902.934 25.707C902.549 25.537 902.135 25.452 901.693 25.452Z" fill="white"/>
<path d="M908.284 31.096V25.554H906.448V24.483H908.284V22.324L909.525 22.001V24.483H912.092V25.554H909.525V30.773C909.525 31.2263 909.627 31.555 909.831 31.759C910.035 31.9517 910.37 32.048 910.834 32.048C911.072 32.048 911.282 32.031 911.463 31.997C911.656 31.963 911.86 31.9063 912.075 31.827V32.932C911.86 33.0113 911.616 33.068 911.344 33.102C911.083 33.136 910.828 33.153 910.579 33.153C909.842 33.153 909.276 32.9773 908.879 32.626C908.482 32.2747 908.284 31.7647 908.284 31.096Z" fill="white"/>
<path d="M914.068 22.851C913.841 22.851 913.643 22.766 913.473 22.596C913.303 22.426 913.218 22.2277 913.218 22.001C913.218 21.763 913.303 21.5647 913.473 21.406C913.643 21.236 913.841 21.151 914.068 21.151C914.306 21.151 914.504 21.236 914.663 21.406C914.833 21.5647 914.918 21.763 914.918 22.001C914.918 22.2277 914.833 22.426 914.663 22.596C914.504 22.766 914.306 22.851 914.068 22.851ZM914.697 24.483V33H913.439V24.483H914.697Z" fill="white"/>
<path d="M916.451 28.733C916.451 28.121 916.565 27.543 916.792 26.999C917.018 26.455 917.324 25.9847 917.709 25.588C918.106 25.1913 918.571 24.8797 919.103 24.653C919.636 24.4263 920.203 24.313 920.803 24.313C921.404 24.313 921.965 24.4263 922.487 24.653C923.019 24.8797 923.478 25.1913 923.863 25.588C924.26 25.9847 924.572 26.455 924.798 26.999C925.025 27.543 925.138 28.121 925.138 28.733C925.138 29.3563 925.025 29.94 924.798 30.484C924.572 31.028 924.26 31.4983 923.863 31.895C923.478 32.2917 923.019 32.6033 922.487 32.83C921.965 33.0567 921.404 33.17 920.803 33.17C920.203 33.17 919.636 33.0567 919.103 32.83C918.571 32.6033 918.106 32.2917 917.709 31.895C917.324 31.4983 917.018 31.028 916.792 30.484C916.565 29.94 916.451 29.3563 916.451 28.733ZM920.803 32.048C921.234 32.048 921.636 31.963 922.01 31.793C922.396 31.623 922.724 31.3907 922.996 31.096C923.28 30.79 923.501 30.4387 923.659 30.042C923.818 29.634 923.897 29.1977 923.897 28.733C923.897 28.2683 923.818 27.8377 923.659 27.441C923.501 27.033 923.28 26.6817 922.996 26.387C922.724 26.0923 922.396 25.86 922.01 25.69C921.636 25.52 921.234 25.435 920.803 25.435C920.373 25.435 919.965 25.52 919.579 25.69C919.205 25.86 918.877 26.0923 918.594 26.387C918.322 26.6817 918.1 27.033 917.93 27.441C917.772 27.8377 917.693 28.2683 917.693 28.733C917.693 29.1977 917.772 29.634 917.93 30.042C918.089 30.4387 918.305 30.79 918.576 31.096C918.86 31.3907 919.194 31.623 919.579 31.793C919.965 31.963 920.373 32.048 920.803 32.048Z" fill="white"/>
<path d="M926.886 33V24.483H928.144V25.486C928.473 25.1007 928.864 24.8117 929.317 24.619C929.771 24.415 930.275 24.313 930.83 24.313C931.794 24.313 932.581 24.619 933.193 25.231C933.805 25.843 934.111 26.6363 934.111 27.611V33H932.87V27.866C932.87 27.118 932.655 26.523 932.224 26.081C931.794 25.639 931.216 25.418 930.49 25.418C929.98 25.418 929.521 25.5313 929.113 25.758C928.717 25.9847 928.394 26.3077 928.144 26.727V33H926.886Z" fill="white"/>
<path d="M935.349 31.827L936.115 31.011C936.5 31.3737 936.93 31.657 937.406 31.861C937.894 32.0537 938.387 32.15 938.885 32.15C939.565 32.15 940.121 32.0083 940.552 31.725C940.982 31.4417 941.198 31.0733 941.198 30.62C941.198 30.2573 941.067 29.974 940.807 29.77C940.557 29.5547 940.161 29.4073 939.617 29.328L938.138 29.124C937.288 28.9993 936.653 28.75 936.234 28.376C935.826 27.9907 935.622 27.475 935.622 26.829C935.622 26.115 935.922 25.5257 936.523 25.061C937.123 24.585 937.888 24.347 938.818 24.347C939.43 24.347 940.008 24.4377 940.552 24.619C941.107 24.8003 941.645 25.0837 942.167 25.469L941.503 26.319C941.027 26.0017 940.563 25.7637 940.109 25.605C939.667 25.4463 939.214 25.367 938.75 25.367C938.172 25.367 937.696 25.4973 937.322 25.758C936.959 26.0187 936.778 26.3587 936.778 26.778C936.778 27.1407 936.902 27.424 937.151 27.628C937.401 27.8207 937.803 27.9567 938.359 28.036L939.838 28.24C940.688 28.3533 941.322 28.6083 941.742 29.005C942.172 29.3903 942.388 29.906 942.388 30.552C942.388 30.9147 942.297 31.2603 942.115 31.589C941.945 31.9063 941.702 32.184 941.385 32.422C941.078 32.6487 940.716 32.83 940.297 32.966C939.877 33.0907 939.424 33.153 938.937 33.153C938.234 33.153 937.571 33.0397 936.948 32.813C936.336 32.575 935.803 32.2463 935.349 31.827Z" fill="white"/>
<path fill-rule="evenodd" clip-rule="evenodd" d="M818 17C812.477 17 808 21.4772 808 27C808 32.5228 812.477 37 818 37H864C869.523 37 874 32.5228 874 27C874 21.4772 869.523 17 864 17H818ZM852.724 29.512C853.164 29.512 853.576 29.42 853.96 29.236C854.344 29.052 854.684 28.788 854.98 28.444L856.12 29.572C855.72 30.044 855.208 30.42 854.584 30.7C853.968 30.98 853.332 31.12 852.676 31.12C852.044 31.12 851.452 31.008 850.9 30.784C850.356 30.56 849.884 30.256 849.484 29.872C849.084 29.488 848.768 29.032 848.536 28.504C848.312 27.976 848.2 27.408 848.2 26.8C848.2 26.192 848.316 25.624 848.548 25.096C848.78 24.56 849.096 24.1 849.496 23.716C849.896 23.332 850.368 23.028 850.912 22.804C851.464 22.58 852.052 22.468 852.676 22.468C853.348 22.468 854 22.612 854.632 22.9C855.264 23.18 855.776 23.56 856.168 24.04L854.992 25.204C854.696 24.836 854.348 24.556 853.948 24.364C853.548 24.164 853.124 24.064 852.676 24.064C852.3 24.064 851.944 24.136 851.608 24.28C851.28 24.416 850.996 24.608 850.756 24.856C850.516 25.096 850.328 25.384 850.192 25.72C850.056 26.048 849.988 26.408 849.988 26.8C849.988 27.184 850.056 27.544 850.192 27.88C850.336 28.208 850.528 28.492 850.768 28.732C851.016 28.972 851.304 29.164 851.632 29.308C851.968 29.444 852.332 29.512 852.724 29.512ZM818.706 28.42L817.71 29.668C818.214 30.124 818.79 30.48 819.438 30.736C820.094 30.992 820.758 31.12 821.43 31.12C822.502 31.12 823.358 30.876 823.998 30.388C824.646 29.9 824.97 29.248 824.97 28.432C824.97 27.784 824.758 27.264 824.334 26.872C823.918 26.472 823.294 26.204 822.462 26.068L820.878 25.804C820.446 25.74 820.138 25.636 819.954 25.492C819.77 25.348 819.678 25.148 819.678 24.892C819.678 24.604 819.818 24.376 820.098 24.208C820.378 24.032 820.75 23.944 821.214 23.944C821.67 23.944 822.114 24.028 822.546 24.196C822.978 24.356 823.418 24.608 823.866 24.952L824.802 23.656C824.338 23.288 823.794 23 823.17 22.792C822.554 22.584 821.942 22.48 821.334 22.48C820.318 22.48 819.51 22.708 818.91 23.164C818.318 23.62 818.022 24.24 818.022 25.024C818.022 25.632 818.206 26.128 818.574 26.512C818.95 26.896 819.498 27.148 820.218 27.268L821.886 27.556C822.382 27.636 822.734 27.756 822.942 27.916C823.158 28.076 823.266 28.3 823.266 28.588C823.266 28.908 823.11 29.164 822.798 29.356C822.486 29.548 822.07 29.644 821.55 29.644C821.046 29.644 820.566 29.548 820.11 29.356C819.662 29.156 819.194 28.844 818.706 28.42ZM826.012 22.6V31H832.516V29.488H827.752V27.496H830.86V26.032H827.752V24.112H832.468V22.6H826.012ZM833.746 31V22.6H835.486V29.464H840.082V31H833.746ZM841.281 22.6V31H847.785V29.488H843.021V27.496H846.129V26.032H843.021V24.112H847.737V22.6H841.281ZM856.714 22.6V24.136H859.546V31H861.286V24.136H864.106V22.6H856.714Z" fill="white"/>
<path d="M130.45 24.95V29.85L134.3 27.4L130.45 24.95Z" fill="white"/>
<path d="M110.5 27.4L114.35 29.85V24.95L110.5 27.4Z" fill="white"/>
<path d="M119.95 19.35H124.85L122.4 15.5L119.95 19.35Z" fill="white"/>
<path d="M119.95 35.45L122.4 39.3L124.85 35.45H119.95Z" fill="white"/>
<path fill-rule="evenodd" clip-rule="evenodd" d="M128.35 33.35V40C128.35 41.5394 127.089 42.8 125.55 42.8H119.25C117.711 42.8 116.45 41.5394 116.45 40V33.35H109.8C108.261 33.35 107 32.0894 107 30.55V24.25C107 22.7106 108.261 21.45 109.8 21.45H116.45V14.8C116.45 13.2606 117.711 12 119.25 12H125.55C127.089 12 128.35 13.2606 128.35 14.8V21.45H135C136.539 21.45 137.8 22.7106 137.8 24.25V30.55C137.8 32.0894 136.539 33.35 135 33.35H128.35ZM117.85 40C117.85 40.7725 118.478 41.4 119.25 41.4H125.55C126.322 41.4 126.95 40.7725 126.95 40V31.95H135C135.772 31.95 136.4 31.3225 136.4 30.55V24.25C136.4 23.4776 135.772 22.85 135 22.85H126.95V14.8C126.95 14.0276 126.322 13.4 125.55 13.4H119.25C118.478 13.4 117.85 14.0276 117.85 14.8V22.85H109.8C109.028 22.85 108.4 23.4776 108.4 24.25V30.55C108.4 31.3225 109.028 31.95 109.8 31.95H117.85V40Z" fill="white"/>
<path d="M153.953 31.98C154.69 31.98 155.392 31.8383 156.061 31.555C156.73 31.2603 157.291 30.858 157.744 30.348L158.594 31.232C158.005 31.844 157.302 32.3257 156.486 32.677C155.67 33.017 154.814 33.187 153.919 33.187C153.058 33.187 152.247 33.0283 151.488 32.711C150.74 32.3937 150.088 31.963 149.533 31.419C148.978 30.8637 148.541 30.212 148.224 29.464C147.907 28.7047 147.748 27.9 147.748 27.05C147.748 26.2 147.907 25.401 148.224 24.653C148.541 23.8937 148.978 23.242 149.533 22.698C150.088 22.1427 150.74 21.7063 151.488 21.389C152.247 21.0717 153.058 20.913 153.919 20.913C154.837 20.913 155.704 21.0887 156.52 21.44C157.347 21.78 158.05 22.256 158.628 22.868L157.761 23.786C157.296 23.2647 156.718 22.8567 156.027 22.562C155.347 22.2673 154.644 22.12 153.919 22.12C153.239 22.12 152.599 22.2503 151.998 22.511C151.409 22.7603 150.899 23.106 150.468 23.548C150.037 23.9787 149.697 24.5 149.448 25.112C149.199 25.7127 149.074 26.3587 149.074 27.05C149.074 27.7413 149.199 28.393 149.448 29.005C149.697 29.6057 150.037 30.127 150.468 30.569C150.91 30.9997 151.426 31.3453 152.015 31.606C152.616 31.8553 153.262 31.98 153.953 31.98Z" fill="white"/>
<path d="M160.34 33V21.1L161.598 20.811V25.486C161.926 25.1007 162.317 24.8117 162.771 24.619C163.224 24.415 163.728 24.313 164.284 24.313C165.247 24.313 166.035 24.619 166.647 25.231C167.259 25.843 167.565 26.6363 167.565 27.611V33H166.324V27.866C166.324 27.118 166.108 26.523 165.678 26.081C165.247 25.639 164.669 25.418 163.944 25.418C163.434 25.418 162.975 25.5313 162.567 25.758C162.17 25.9847 161.847 26.3077 161.598 26.727V33H160.34Z" fill="white"/>
<path d="M169.279 28.733C169.279 28.121 169.392 27.543 169.619 26.999C169.845 26.455 170.151 25.9847 170.537 25.588C170.933 25.1913 171.398 24.8797 171.931 24.653C172.463 24.4263 173.03 24.313 173.631 24.313C174.231 24.313 174.792 24.4263 175.314 24.653C175.846 24.8797 176.305 25.1913 176.691 25.588C177.087 25.9847 177.399 26.455 177.626 26.999C177.852 27.543 177.966 28.121 177.966 28.733C177.966 29.3563 177.852 29.94 177.626 30.484C177.399 31.028 177.087 31.4983 176.691 31.895C176.305 32.2917 175.846 32.6033 175.314 32.83C174.792 33.0567 174.231 33.17 173.631 33.17C173.03 33.17 172.463 33.0567 171.931 32.83C171.398 32.6033 170.933 32.2917 170.537 31.895C170.151 31.4983 169.845 31.028 169.619 30.484C169.392 29.94 169.279 29.3563 169.279 28.733ZM173.631 32.048C174.061 32.048 174.464 31.963 174.838 31.793C175.223 31.623 175.552 31.3907 175.824 31.096C176.107 30.79 176.328 30.4387 176.487 30.042C176.645 29.634 176.725 29.1977 176.725 28.733C176.725 28.2683 176.645 27.8377 176.487 27.441C176.328 27.033 176.107 26.6817 175.824 26.387C175.552 26.0923 175.223 25.86 174.838 25.69C174.464 25.52 174.061 25.435 173.631 25.435C173.2 25.435 172.792 25.52 172.407 25.69C172.033 25.86 171.704 26.0923 171.421 26.387C171.149 26.6817 170.928 27.033 170.758 27.441C170.599 27.8377 170.52 28.2683 170.52 28.733C170.52 29.1977 170.599 29.634 170.758 30.042C170.916 30.4387 171.132 30.79 171.404 31.096C171.687 31.3907 172.021 31.623 172.407 31.793C172.792 31.963 173.2 32.048 173.631 32.048Z" fill="white"/>
<path d="M179.339 28.733C179.339 28.121 179.453 27.543 179.679 26.999C179.906 26.455 180.212 25.9847 180.597 25.588C180.994 25.1913 181.459 24.8797 181.991 24.653C182.524 24.4263 183.091 24.313 183.691 24.313C184.292 24.313 184.853 24.4263 185.374 24.653C185.907 24.8797 186.366 25.1913 186.751 25.588C187.148 25.9847 187.46 26.455 187.686 26.999C187.913 27.543 188.026 28.121 188.026 28.733C188.026 29.3563 187.913 29.94 187.686 30.484C187.46 31.028 187.148 31.4983 186.751 31.895C186.366 32.2917 185.907 32.6033 185.374 32.83C184.853 33.0567 184.292 33.17 183.691 33.17C183.091 33.17 182.524 33.0567 181.991 32.83C181.459 32.6033 180.994 32.2917 180.597 31.895C180.212 31.4983 179.906 31.028 179.679 30.484C179.453 29.94 179.339 29.3563 179.339 28.733ZM183.691 32.048C184.122 32.048 184.524 31.963 184.898 31.793C185.284 31.623 185.612 31.3907 185.884 31.096C186.168 30.79 186.389 30.4387 186.547 30.042C186.706 29.634 186.785 29.1977 186.785 28.733C186.785 28.2683 186.706 27.8377 186.547 27.441C186.389 27.033 186.168 26.6817 185.884 26.387C185.612 26.0923 185.284 25.86 184.898 25.69C184.524 25.52 184.122 25.435 183.691 25.435C183.261 25.435 182.853 25.52 182.467 25.69C182.093 25.86 181.765 26.0923 181.481 26.387C181.209 26.6817 180.988 27.033 180.818 27.441C180.66 27.8377 180.58 28.2683 180.58 28.733C180.58 29.1977 180.66 29.634 180.818 30.042C180.977 30.4387 181.192 30.79 181.464 31.096C181.748 31.3907 182.082 31.623 182.467 31.793C182.853 31.963 183.261 32.048 183.691 32.048Z" fill="white"/>
<path d="M188.907 31.827L189.672 31.011C190.057 31.3737 190.488 31.657 190.964 31.861C191.451 32.0537 191.944 32.15 192.443 32.15C193.123 32.15 193.678 32.0083 194.109 31.725C194.54 31.4417 194.755 31.0733 194.755 30.62C194.755 30.2573 194.625 29.974 194.364 29.77C194.115 29.5547 193.718 29.4073 193.174 29.328L191.695 29.124C190.845 28.9993 190.21 28.75 189.791 28.376C189.383 27.9907 189.179 27.475 189.179 26.829C189.179 26.115 189.479 25.5257 190.08 25.061C190.681 24.585 191.446 24.347 192.375 24.347C192.987 24.347 193.565 24.4377 194.109 24.619C194.664 24.8003 195.203 25.0837 195.724 25.469L195.061 26.319C194.585 26.0017 194.12 25.7637 193.667 25.605C193.225 25.4463 192.772 25.367 192.307 25.367C191.729 25.367 191.253 25.4973 190.879 25.758C190.516 26.0187 190.335 26.3587 190.335 26.778C190.335 27.1407 190.46 27.424 190.709 27.628C190.958 27.8207 191.361 27.9567 191.916 28.036L193.395 28.24C194.245 28.3533 194.88 28.6083 195.299 29.005C195.73 29.3903 195.945 29.906 195.945 30.552C195.945 30.9147 195.854 31.2603 195.673 31.589C195.503 31.9063 195.259 32.184 194.942 32.422C194.636 32.6487 194.273 32.83 193.854 32.966C193.435 33.0907 192.981 33.153 192.494 33.153C191.791 33.153 191.128 33.0397 190.505 32.813C189.893 32.575 189.36 32.2463 188.907 31.827Z" fill="white"/>
<path d="M204.618 32.099C204.142 32.4503 203.643 32.7167 203.122 32.898C202.612 33.068 202.051 33.153 201.439 33.153C200.827 33.153 200.249 33.0397 199.705 32.813C199.172 32.5863 198.708 32.2747 198.311 31.878C197.926 31.4813 197.62 31.0167 197.393 30.484C197.166 29.94 197.053 29.3563 197.053 28.733C197.053 28.121 197.161 27.5487 197.376 27.016C197.603 26.4833 197.903 26.0187 198.277 25.622C198.651 25.2253 199.093 24.9137 199.603 24.687C200.124 24.4603 200.674 24.347 201.252 24.347C201.819 24.347 202.346 24.4603 202.833 24.687C203.332 24.9137 203.757 25.2253 204.108 25.622C204.471 26.0187 204.754 26.4833 204.958 27.016C205.173 27.5487 205.281 28.121 205.281 28.733V29.124H198.294C198.385 29.9627 198.73 30.6597 199.331 31.215C199.932 31.7703 200.651 32.048 201.49 32.048C201.932 32.048 202.363 31.98 202.782 31.844C203.201 31.708 203.553 31.5153 203.836 31.266L204.618 32.099ZM201.218 25.452C200.481 25.452 199.841 25.7013 199.297 26.2C198.764 26.6987 198.441 27.339 198.328 28.121H204.023C203.91 27.373 203.587 26.744 203.054 26.234C202.533 25.7127 201.921 25.452 201.218 25.452Z" fill="white"/>
<path d="M214.551 33.068C213.962 33.068 213.406 32.9547 212.885 32.728C212.375 32.5013 211.927 32.1953 211.542 31.81C211.157 31.4133 210.851 30.9487 210.624 30.416C210.409 29.8833 210.301 29.311 210.301 28.699C210.301 28.087 210.409 27.5147 210.624 26.982C210.851 26.4493 211.157 25.9903 211.542 25.605C211.927 25.2083 212.381 24.8967 212.902 24.67C213.423 24.4433 213.984 24.33 214.585 24.33C215.072 24.33 215.543 24.4207 215.996 24.602C216.461 24.772 216.886 25.0157 217.271 25.333V24.483H218.512V33.204C218.512 34.292 218.195 35.125 217.56 35.703C216.925 36.2923 216.019 36.587 214.84 36.587C214.251 36.587 213.667 36.5077 213.089 36.349C212.511 36.2017 211.984 35.9863 211.508 35.703L212.052 34.717C212.562 34.989 213.032 35.1873 213.463 35.312C213.905 35.4367 214.347 35.499 214.789 35.499C215.594 35.499 216.206 35.3063 216.625 34.921C217.044 34.5357 217.254 33.969 217.254 33.221V32.082C216.869 32.3993 216.444 32.643 215.979 32.813C215.526 32.983 215.05 33.068 214.551 33.068ZM211.542 28.699C211.542 29.1523 211.621 29.583 211.78 29.991C211.939 30.3877 212.154 30.7333 212.426 31.028C212.709 31.3113 213.044 31.538 213.429 31.708C213.814 31.878 214.222 31.963 214.653 31.963C215.197 31.963 215.696 31.861 216.149 31.657C216.602 31.453 216.971 31.164 217.254 30.79V26.608C216.971 26.2453 216.597 25.962 216.132 25.758C215.679 25.554 215.186 25.452 214.653 25.452C214.211 25.452 213.797 25.537 213.412 25.707C213.038 25.8657 212.709 26.0923 212.426 26.387C212.154 26.6817 211.939 27.0273 211.78 27.424C211.621 27.8207 211.542 28.2457 211.542 28.699Z" fill="white"/>
<path d="M223.339 33.153C222.41 33.153 221.65 32.915 221.061 32.439C220.483 31.963 220.194 31.3453 220.194 30.586C220.194 29.7927 220.5 29.1637 221.112 28.699C221.724 28.223 222.551 27.985 223.594 27.985C224.047 27.985 224.484 28.036 224.903 28.138C225.334 28.24 225.73 28.3817 226.093 28.563V27.441C226.093 26.761 225.9 26.251 225.515 25.911C225.13 25.5597 224.569 25.384 223.832 25.384C223.413 25.384 222.988 25.4463 222.557 25.571C222.138 25.6843 221.673 25.8713 221.163 26.132L220.687 25.163C221.299 24.8683 221.866 24.653 222.387 24.517C222.908 24.381 223.43 24.313 223.951 24.313C225.028 24.313 225.855 24.568 226.433 25.078C227.022 25.588 227.317 26.319 227.317 27.271V33H226.093V32.167C225.708 32.4957 225.283 32.745 224.818 32.915C224.365 33.0737 223.872 33.153 223.339 33.153ZM221.401 30.552C221.401 31.028 221.599 31.419 221.996 31.725C222.404 32.0197 222.925 32.167 223.56 32.167C224.07 32.167 224.535 32.0877 224.954 31.929C225.373 31.7703 225.753 31.521 226.093 31.181V29.583C225.742 29.345 225.362 29.175 224.954 29.073C224.557 28.9597 224.115 28.903 223.628 28.903C222.948 28.903 222.404 29.056 221.996 29.362C221.599 29.6567 221.401 30.0533 221.401 30.552Z" fill="white"/>
<path d="M229.419 33V24.483H230.677V25.418C230.994 25.0553 231.362 24.7833 231.782 24.602C232.201 24.4093 232.666 24.313 233.176 24.313C233.765 24.313 234.292 24.4547 234.757 24.738C235.233 25.01 235.601 25.384 235.862 25.86C236.213 25.3387 236.632 24.9533 237.12 24.704C237.618 24.4433 238.174 24.313 238.786 24.313C239.704 24.313 240.452 24.619 241.03 25.231C241.619 25.843 241.914 26.6363 241.914 27.611V33H240.673V27.866C240.673 27.118 240.474 26.523 240.078 26.081C239.681 25.639 239.143 25.418 238.463 25.418C237.998 25.418 237.573 25.537 237.188 25.775C236.802 26.013 236.474 26.3587 236.202 26.812C236.224 26.9367 236.241 27.067 236.253 27.203C236.275 27.3277 236.287 27.4637 236.287 27.611V33H235.046V27.866C235.046 27.118 234.847 26.523 234.451 26.081C234.054 25.639 233.521 25.418 232.853 25.418C232.399 25.418 231.986 25.5257 231.612 25.741C231.249 25.945 230.937 26.251 230.677 26.659V33H229.419Z" fill="white"/>
<path d="M251.202 32.099C250.726 32.4503 250.227 32.7167 249.706 32.898C249.196 33.068 248.635 33.153 248.023 33.153C247.411 33.153 246.833 33.0397 246.289 32.813C245.756 32.5863 245.292 32.2747 244.895 31.878C244.51 31.4813 244.204 31.0167 243.977 30.484C243.75 29.94 243.637 29.3563 243.637 28.733C243.637 28.121 243.745 27.5487 243.96 27.016C244.187 26.4833 244.487 26.0187 244.861 25.622C245.235 25.2253 245.677 24.9137 246.187 24.687C246.708 24.4603 247.258 24.347 247.836 24.347C248.403 24.347 248.93 24.4603 249.417 24.687C249.916 24.9137 250.341 25.2253 250.692 25.622C251.055 26.0187 251.338 26.4833 251.542 27.016C251.757 27.5487 251.865 28.121 251.865 28.733V29.124H244.878C244.969 29.9627 245.314 30.6597 245.915 31.215C246.516 31.7703 247.235 32.048 248.074 32.048C248.516 32.048 248.947 31.98 249.366 31.844C249.785 31.708 250.137 31.5153 250.42 31.266L251.202 32.099ZM247.802 25.452C247.065 25.452 246.425 25.7013 245.881 26.2C245.348 26.6987 245.025 27.339 244.912 28.121H250.607C250.494 27.373 250.171 26.744 249.638 26.234C249.117 25.7127 248.505 25.452 247.802 25.452Z" fill="white"/>
</g>
</svg>
