<svg width="618" height="103" viewBox="0 0 618 103" fill="none" xmlns="http://www.w3.org/2000/svg">
<g clip-path="url(#clip0_1124_3459)">
<path d="M412.58 31.8809H399.383V71.2622H412.58V31.8809Z" fill="white"/>
<path d="M575.352 45.5137H562.155V71.2798H575.352V45.5137Z" fill="white"/>
<path d="M575.352 31.8809H562.155V39.7507H575.352V31.8809Z" fill="white"/>
<path d="M328.893 47.2988C320.009 47.2988 312.815 49.6002 312.815 52.4488C312.815 55.2974 320.009 57.5988 328.893 57.5988C337.777 57.5988 344.971 55.2974 344.971 52.4488C344.987 49.6163 337.777 47.2988 328.893 47.2988ZM328.893 56.4401C321.924 56.4401 316.259 54.6537 316.259 52.4488C316.259 50.244 321.908 48.4576 328.893 48.4576C335.878 48.4576 341.527 50.244 341.527 52.4488C341.527 54.6537 335.862 56.4401 328.893 56.4401Z" fill="white"/>
<path d="M378.139 57.5185C371.396 64.0687 351.906 68.8002 328.908 68.8002C300.31 68.8002 277.135 61.4776 277.135 52.4651C277.135 43.4526 300.31 36.1299 328.908 36.1299C351.906 36.1299 371.396 40.8615 378.139 47.4116H392.945C385.88 38.1899 359.889 31.334 328.908 31.334C292.488 31.334 262.956 40.7971 262.956 52.449C262.956 64.1008 292.488 73.564 328.908 73.564C359.889 73.564 385.88 66.7241 392.945 57.4863L378.139 57.5185Z" fill="white"/>
<path d="M444.493 31.8809H410.922V36.3388H444.493C473.092 36.3388 496.267 43.1626 496.267 51.5635C496.267 59.9644 473.092 66.7882 444.493 66.7882H410.922V71.2462H444.493C480.914 71.2462 510.446 62.4268 510.446 51.5474C510.446 40.7002 480.914 31.8809 444.493 31.8809Z" fill="white"/>
<path d="M517.736 45.9941V57.1632L550.922 51.5787L517.736 45.9941Z" fill="#E50300"/>
<path d="M220.308 0V102.211H618V0H220.308ZM610.484 94.6956H227.823V7.51578H610.484V94.6956Z" fill="white"/>
<path d="M157.638 31.8652C153.164 31.8652 144.103 31.9135 144.087 31.8652V71.2788H155.111L155.176 61.4294H160.1C170.609 61.4294 176.113 56.3599 176.113 46.6554C176.097 35.9691 169.209 31.8652 157.638 31.8652ZM157.638 54.0263H155.176V39.2523C155.835 39.2201 157.058 39.2523 157.638 39.2523C163.206 39.2523 165.218 42.1009 165.218 46.8807C165.202 51.8215 163.496 54.0263 157.638 54.0263Z" fill="white"/>
<path d="M59.1123 71.2788V55.2655H48.0237V71.2788H36.9512V31.8652H48.0237V47.8785H59.1123V31.8652H70.2008V71.2788H59.1123Z" fill="white"/>
<path d="M78.8105 71.2788V31.8652H88.6599H89.8991V71.2788H78.8105Z" fill="white"/>
<path d="M119.367 71.2788H98.5254V31.8652H109.598V63.8918H120.686L119.367 71.2788Z" fill="white"/>
<path d="M135.477 31.8652H124.389V71.2788H135.477V31.8652Z" fill="white"/>
<path d="M190.888 41.7146V42.9538C190.888 49.0051 209.364 46.2209 209.364 58.9671C209.364 68.5268 202.782 71.2788 193.351 71.2788C189.649 71.2788 183.662 70.5868 179.8 70.0557V61.4294C183.196 63.1837 189.633 63.8918 193.351 63.8918C197.519 63.8918 198.275 62.5882 198.275 60.1902C198.275 53.3987 179.8 56.3277 179.8 42.9538C179.8 35.1966 187.396 31.8652 196.505 31.8652C202.959 31.8652 203.957 32.4607 206.902 33.1045V40.4915C204.278 39.381 200.609 39.2684 197.052 39.2684C193.801 39.2523 190.888 39.6385 190.888 41.7146Z" fill="white"/>
<path d="M13.5509 31.8652C9.06078 31.8652 0 31.9135 0 31.8652V71.2788H11.0242L11.0886 61.4294H16.0133C26.5225 61.4294 32.0265 56.3599 32.0265 46.6554C32.0105 35.9691 25.1223 31.8652 13.5509 31.8652ZM13.5509 54.0263H11.0886V39.2523C11.7484 39.2201 12.9716 39.2523 13.5509 39.2523C19.1194 39.2523 21.1311 42.1009 21.1311 46.8807C21.115 51.8215 19.4091 54.0263 13.5509 54.0263Z" fill="white"/>
</g>
<defs>
<clipPath id="clip0_1124_3459">
<rect width="618" height="102.211" fill="white"/>
</clipPath>
</defs>
</svg>
