<svg width="796" height="173" viewBox="0 0 796 173" fill="none" xmlns="http://www.w3.org/2000/svg">
<path d="M615.246 97.7773L574.68 170.281H655.813L615.246 97.7773Z" fill="#1EDCD9"/>
<path d="M16.3014 49.3346L0.142578 0H20.6094L28.8387 25.1173L31.9253 17.7737L26.0962 0H46.5848L54.6935 24.7719L57.7817 17.4321L52.0707 0H68.8724L66.0654 6.6868L64.844 9.55825L59.4217 22.4383L56.336 29.7894L50.907 42.6812L50.9137 42.6913L48.1059 49.3346H42.2767L33.572 22.7946L22.4093 49.335L16.3014 49.3346Z" fill="#1EDCD9"/>
<path d="M75.8593 5.46497H207.061V0H78.1523L75.8593 5.46497Z" fill="#1EDCD9"/>
<path d="M207.061 49.3346H57.4067L59.6997 43.8696H207.061V49.3346Z" fill="#1EDCD9"/>
<path fill-rule="evenodd" clip-rule="evenodd" d="M73.5446 10.9299H75.0021L90.0467 38.4264H77.3595L74.6588 33.2611H68.8297V33.9472C68.8297 34.6542 69.1939 35.2971 69.8151 35.6403L72.1943 36.9689V38.4264H62.1216L72.6446 13.0731L73.5446 10.9299ZM70.9728 26.1034L69.4082 29.7894H72.9017L70.9728 26.1034Z" fill="#1EDCD9"/>
<path fill-rule="evenodd" clip-rule="evenodd" d="M124.187 10.9299H122.729L121.829 13.0731L111.328 38.4046H121.401V36.9476L119.022 35.6186C118.4 35.2757 118.036 34.6328 118.036 33.9258V33.2398H123.865L126.566 38.4046H139.253L124.187 10.9299ZM118.593 29.7894L120.158 26.1034L122.086 29.7894H118.593Z" fill="#1EDCD9"/>
<path fill-rule="evenodd" clip-rule="evenodd" d="M184.708 10.9299H186.166L201.21 38.4264H188.523L185.823 33.2611H179.993V33.9472C179.993 34.6542 180.358 35.2971 180.979 35.6403L183.358 36.9689V38.4264H173.285L183.808 13.0731L184.708 10.9299ZM182.115 26.1034L180.55 29.7894H184.044L182.115 26.1034Z" fill="#1EDCD9"/>
<path d="M86.189 10.9299V20.381H89.6398C89.6398 17.7879 91.1827 16.0948 92.3396 15.1948C93.0043 14.6591 93.8398 14.3803 94.6971 14.3803V38.4046H105.97V14.3803C106.827 14.3803 107.663 14.6591 108.328 15.1948C109.485 16.0948 111.028 17.7879 111.028 20.381H114.478V10.9299H86.189Z" fill="#1EDCD9"/>
<path fill-rule="evenodd" clip-rule="evenodd" d="M162.827 22.4388H163.47C167.07 22.4388 169.963 27.3248 169.985 30.9041V38.3833H157.319V24.1533H153.869V38.3833H142.596V10.9086H162.827C166.02 10.9086 168.592 11.873 168.592 16.6737C168.592 21.4744 165.999 22.4388 162.827 22.4388ZM157.298 14.3803H153.847V20.7243H157.298V14.3803Z" fill="#1EDCD9"/>
<path fill-rule="evenodd" clip-rule="evenodd" d="M204.34 11.5729H208.968C209.954 11.5729 210.769 11.8516 211.39 12.3874C211.718 12.6595 211.977 12.9768 212.168 13.343C212.412 13.8131 212.545 14.3635 212.569 15.0019C212.547 16.6737 211.776 17.7879 210.276 18.3882L213.019 23.8314H210.876L208.412 18.6025H206.118V23.8314H204.318L204.34 11.5729ZM206.14 16.9307H208.861C209.526 16.9093 210.04 16.7164 210.383 16.3304C210.549 16.1425 210.675 15.9315 210.758 15.698C210.836 15.4791 210.876 15.2396 210.876 14.9805C210.854 14.3376 210.662 13.8658 210.276 13.5875C209.975 13.3301 209.526 13.2016 208.947 13.2016H206.118L206.14 16.9307Z" fill="#1EDCD9"/>
<path fill-rule="evenodd" clip-rule="evenodd" d="M197.096 17.8306C197.096 11.7872 202.003 6.87935 208.047 6.87935C214.091 6.87935 218.998 11.7872 218.998 17.8306C218.998 23.8745 214.091 28.7819 208.047 28.7819C202.003 28.7819 197.096 23.8745 197.096 17.8306ZM216.727 17.8306C216.727 13.0517 212.826 9.15097 208.047 9.15097C203.268 9.15097 199.368 13.0517 199.368 17.8306C199.368 22.61 203.268 26.5103 208.047 26.5103C212.826 26.5103 216.727 22.61 216.727 17.8306Z" fill="#1EDCD9"/>
<path d="M693.8 170.431L677.536 170.388C676.437 169.668 676.319 168.748 676.336 167.782C676.38 165.474 676.469 163.166 676.49 160.857C676.511 158.677 676.426 156.489 676.447 154.309C676.469 151.812 676.604 149.316 676.603 146.819C676.591 142.881 676.473 138.943 676.468 135.005C676.467 132.885 676.676 130.758 676.666 128.631C676.617 121.502 676.531 114.373 676.429 107.244C676.384 104.241 676.181 101.246 676.166 98.2509C676.14 91.1295 676.196 84.0008 676.185 76.8795C676.188 75.8837 676.025 74.8875 675.922 73.899C675.723 72.005 676.525 70.9963 678.434 70.9938C684.084 70.9786 689.742 71.0389 695.392 71.0539C696.931 71.058 697.948 71.7321 698.691 73.0919C701.491 78.1914 704.382 83.2383 707.212 88.3228C709.397 92.2588 711.522 96.2325 713.706 100.169C715.591 103.561 717.528 106.915 719.428 110.292C722.574 115.898 725.674 121.527 728.858 127.11C730.563 130.094 732.403 133.003 734.16 135.965C734.927 137.25 735.594 138.594 736.345 139.886C736.668 140.445 737.082 140.952 737.458 141.481C737.609 141.444 737.759 141.406 737.91 141.376C737.987 140.864 738.14 140.351 738.141 139.846C738.128 136.345 738.054 132.837 738.063 129.337C738.071 123.528 738.139 117.72 738.147 111.904C738.153 109.724 738.038 107.543 738.044 105.363C738.049 103.243 738.13 101.124 738.181 99.0039C738.198 98.3778 738.253 97.7519 738.247 97.1333C738.169 89.3177 738.077 81.5022 738.022 73.6867C738.005 71.6574 738.55 71.1459 740.624 71.1514C745.082 71.1557 749.541 71.175 753.999 71.202C754.316 71.2028 754.625 71.2036 754.942 71.2346C756.548 71.4124 757.263 72.2667 757.213 73.8659C757.089 78.1127 756.927 82.3594 756.893 86.6064C756.871 88.9751 757.182 91.3522 757.16 93.7209C757.127 97.5983 756.891 101.468 756.858 105.337C756.836 108.083 757.009 110.837 757.062 113.583C757.075 114.33 756.983 115.077 756.958 115.831C756.901 117.521 756.799 119.203 756.824 120.893C756.876 124.265 757.048 127.637 757.099 131.017C757.144 134.02 757.061 137.022 757.075 140.024C757.087 141.397 757.226 142.771 757.298 144.136C757.327 144.574 757.394 145.011 757.363 145.449C756.86 152.697 757.648 159.941 757.358 167.19C757.325 167.922 757.233 168.661 757.179 169.234C756.203 170.167 755.17 170.058 754.174 170.056C750.659 170.046 747.143 170.007 743.62 170.02C742.368 170.024 741.116 170.104 739.863 170.221C738.512 170.346 737.238 170.207 735.829 169.479C735.161 168.346 734.41 167.054 733.651 165.769C731.121 161.47 728.575 157.171 726.059 152.857C723.731 148.86 721.471 144.826 719.105 140.844C717.483 138.109 715.717 135.448 714.057 132.736C713.239 131.406 712.503 130.024 711.73 128.664C709.184 124.221 706.616 119.786 704.093 115.329C701.72 111.143 699.401 106.92 697.035 102.727C696.78 102.274 696.381 101.903 696.103 101.555C694.956 101.877 695.067 102.639 695.073 103.303C695.091 124.576 695.118 145.842 695.145 167.115C695.141 168.3 695.334 169.545 693.816 170.431L693.8 170.431Z" fill="white"/>
<path d="M322.246 135.652C323.216 136.998 324.208 138.418 325.245 139.802C327.756 143.15 330.327 146.469 332.815 149.832C336.017 154.156 339.151 158.532 342.353 162.855C343.729 164.715 345.203 166.499 346.639 168.306C347.225 169.047 347.57 169.794 346.957 170.668C345.182 171.289 326.897 171.113 324.854 170.451C316.798 158.827 308.72 147.181 300.649 135.534C300.732 135.444 300.807 135.361 300.891 135.271C300.491 135.195 300.099 135.126 299.722 135.057C299.555 135.305 299.374 135.441 299.358 135.606C299.289 136.225 299.227 136.851 299.225 137.469C299.251 144.666 299.285 151.856 299.326 159.052C299.341 162.115 299.401 165.171 299.377 168.233C299.375 168.942 299.11 169.651 298.995 170.216C296.82 171.116 283.829 171.164 281.199 170.38C280.438 169.797 280.29 168.997 280.33 168.062C280.386 166.757 280.337 165.452 280.325 164.147C280.327 163.46 280.291 162.774 280.3 162.087C280.352 156.777 280.464 151.474 280.463 146.163C280.465 137.223 280.413 128.276 280.361 119.337C280.28 104.325 280.192 89.32 280.104 74.3077C280.082 70.9507 280.4 70.6573 283.749 70.7039C286.827 70.7498 289.905 70.758 292.983 70.7812C295.676 70.7959 298.369 70.7729 301.054 70.8253C306.387 70.9224 311.721 70.9969 317.054 71.1921C323.586 71.4282 329.509 73.6769 334.666 77.5379C337.339 79.5366 339.784 81.9571 341.345 85.0768C342.066 86.5195 343.081 87.8122 343.952 89.18C344.155 89.4973 344.388 89.8223 344.47 90.1771C345.231 93.5135 346.723 96.6858 346.797 100.186C346.81 100.933 346.989 101.673 347.032 102.42C347.148 104.419 347.203 106.419 346.579 108.371C345.598 111.469 344.91 114.68 343.62 117.642C340.531 124.725 335.658 130.173 328.153 132.854C326.869 133.311 325.525 133.632 324.189 133.945C323.268 134.161 322.558 134.552 322.246 135.652ZM299.751 118.317C302.067 118.459 304.382 118.797 306.675 118.705C310.048 118.571 313.428 118.255 316.779 117.789C319.798 117.375 322.374 115.895 324.281 113.517C326.734 110.46 328.236 107.047 327.9 102.973C327.769 101.358 327.191 99.9607 326.614 98.5033C325.52 95.7469 323.39 93.893 321.003 92.3855C318.744 90.9688 316.135 90.3885 313.457 90.3362C309.504 90.2653 305.544 90.2548 301.591 90.2594C300.935 90.2577 300.278 90.4596 299.719 90.5486C299.118 92.5386 299.123 116.377 299.766 118.302L299.751 118.317Z" fill="white"/>
<path d="M137.322 70.8533C138.218 71.6629 138.268 72.5532 138.258 73.5339C138.224 77.9695 138.265 82.3978 138.276 86.8335C138.278 88.644 138.334 90.4622 138.299 92.2726C138.219 96.8892 138.048 101.506 138.013 106.122C137.99 109.117 138.208 112.112 138.231 115.107C138.262 120.162 138.332 125.224 138.198 130.278C138.056 135.52 137.891 140.785 137.341 145.997C137.086 148.418 136.091 150.829 135.097 153.097C134.118 155.305 132.582 157.262 131.331 159.326C128.505 163.988 124.003 166.352 119.658 169.064C117.701 170.281 115.474 170.697 113.39 171.521C109.977 172.87 106.385 173.072 102.826 172.663C100.3 172.369 97.8273 171.571 95.3547 170.915C92.0303 170.031 89.1838 168.13 86.3294 166.358C83.3545 164.509 80.7734 162.118 78.6006 159.321C74.9619 154.627 72.4559 149.506 72.14 143.462C72.0323 141.41 71.6077 139.38 71.3642 137.335C71.2609 136.467 71.1802 135.592 71.1826 134.724C71.2101 115.835 71.2602 96.9453 71.2953 78.0483C71.2996 76.4264 71.236 74.7968 71.1574 73.1747C71.0644 71.2658 72.0474 70.3858 74.0087 70.4061C78.648 70.4562 83.295 70.4308 87.9345 70.3828C89.398 70.3716 90.1963 70.8866 90.449 72.3055C90.5456 72.8565 90.5366 73.4298 90.5351 73.988C90.5184 83.1235 90.645 92.2593 90.4171 101.387C90.2994 105.95 90.5966 110.492 90.5242 115.049C90.4247 121.234 90.431 127.42 90.4673 133.606C90.4827 136.352 90.5659 139.113 90.8151 141.845C90.9763 143.641 91.6961 145.31 92.5819 146.934C94.0984 149.699 96.4243 151.636 99.1291 152.926C100.99 153.814 103.252 154.317 105.304 154.225C108.903 154.068 112.36 153.097 114.873 150.139C115.675 149.19 116.665 148.393 117.43 147.422C118.33 146.286 118.779 144.944 119.07 143.496C120.132 138.241 120.237 132.946 120.13 127.627C119.996 121.441 120.02 115.248 119.832 109.061C119.528 98.8085 120.128 88.5657 119.944 78.3208C119.911 76.5705 119.893 74.8203 119.92 73.0703C119.948 71.2523 120.508 70.6352 122.258 70.6248C126.845 70.6068 131.424 70.6415 136.01 70.6688C136.5 70.6701 136.99 70.7997 137.345 70.8534L137.322 70.8533Z" fill="white"/>
<path d="M237.722 131.22C237.143 133.549 237.241 150.553 237.818 152.146C239.461 152.663 241.212 152.336 242.947 152.356C244.131 152.374 245.316 152.37 246.5 152.358C247.503 152.345 248.507 152.303 249.51 152.268C250.265 152.247 251.012 152.204 251.766 152.198C254.64 152.191 257.522 152.191 260.396 152.206C261.46 152.209 262.523 152.28 263.594 152.282C265.412 152.287 267.23 152.292 269.041 152.244C269.977 152.216 270.92 151.97 271.703 152.681C272.256 154.418 272.189 168.615 271.52 170.461C269.792 170.585 267.943 170.837 266.087 170.839C254.41 170.846 242.724 170.8 231.047 170.769C227.909 170.76 224.763 170.767 221.625 170.721C220.705 170.711 219.792 170.535 218.736 170.427C218.513 169.43 218.198 168.6 218.155 167.755C217.99 164.578 217.817 161.402 217.833 158.226C217.853 153.79 218.098 149.355 218.14 144.92C218.161 142.74 217.85 140.551 217.879 138.364C218.028 127.614 217.792 116.864 217.874 106.114C217.955 95.3494 217.946 84.5919 217.974 73.8271C217.976 73.3896 217.947 72.9444 218.016 72.5146C218.238 71.2554 219.115 70.5712 220.397 70.5897C227.36 70.6987 234.322 70.8379 241.292 70.9168C245.434 70.9655 249.583 70.9689 253.724 70.9347C256.666 70.9123 259.609 70.7693 262.551 70.7167C264.928 70.6778 267.311 70.6615 269.688 70.6979C271.483 70.7253 272.205 71.5043 272.222 73.4581C272.244 76.7774 272.205 80.089 272.196 83.4083C272.192 84.7812 272.249 86.1619 272.2 87.5347C272.143 89.2998 271.454 89.9995 269.666 90.1306C268.859 90.1888 268.037 90.1112 267.222 90.1015C264.408 90.0864 261.594 90.0714 258.781 90.064C258.215 90.0625 257.649 90.1138 257.083 90.1123C251.38 90.1047 245.677 90.082 239.974 90.097C239.182 90.0949 238.397 90.2362 237.446 90.3317C237.353 91.2216 237.208 91.9454 237.214 92.6621C237.27 97.0376 237.372 101.413 237.428 105.789C237.44 106.973 237.316 108.157 237.29 109.349C237.273 110.066 237.332 110.79 237.359 111.665C238.227 111.75 238.89 111.88 239.554 111.882C248.908 111.907 258.27 111.924 267.624 111.934C269.819 111.94 270.602 112.659 270.611 114.831C270.629 119.395 270.625 123.967 270.598 128.531C270.584 130.658 270.055 131.147 267.867 131.141C258.634 131.124 249.401 131.092 240.175 131.075C239.375 131.073 238.583 131.161 237.73 131.212L237.722 131.22Z" fill="white"/>
<path d="M167.143 133.63C167.064 134.723 166.949 135.576 166.947 136.428C166.92 146.499 166.923 156.57 166.897 166.641C166.894 167.742 166.778 168.851 166.706 170.133C165.604 170.303 164.699 170.558 163.786 170.563C159.523 170.597 155.261 170.57 150.999 170.529C150.328 170.527 149.657 170.359 148.737 170.244C148.589 169.217 148.335 168.266 148.322 167.3C148.279 163.672 148.357 160.043 148.306 156.415C148.256 152.416 148.086 148.418 148.036 144.419C148.017 142.986 148.247 141.553 148.251 140.12C148.255 138.626 148.07 137.132 148.059 135.639C148.025 131.444 148.059 127.257 148.04 123.063C147.979 111.996 147.887 100.929 147.841 89.8625C147.837 88.4896 148.022 87.1171 148.033 85.7517C148.036 84.5674 147.889 83.3901 147.877 82.2057C147.854 79.2636 147.832 76.3215 147.885 73.3871C147.902 72.6177 148.183 71.8565 148.367 70.9744C149.363 70.8639 150.155 70.6925 150.947 70.6946C161.81 70.7234 172.673 70.7296 183.528 70.8414C186.621 70.8723 189.569 71.7703 192.5 72.7587C196.02 73.9449 199.055 75.9898 201.855 78.2528C203.805 79.8271 205.33 82.0113 206.773 84.1123C208.118 86.0621 209.207 88.1999 210.212 90.345C211.367 92.8148 211.692 95.5164 211.798 98.2098C211.896 100.828 211.806 103.46 211.686 106.085C211.566 108.861 210.639 111.438 209.749 114.061C208.335 118.252 205.746 121.685 203.074 125.065C200.818 127.911 197.893 129.917 194.42 131.137C189.814 132.755 185.082 133.542 180.209 133.529C176.633 133.519 173.05 133.51 169.474 133.508C168.795 133.506 168.116 133.58 167.128 133.63L167.143 133.63ZM167.381 114.764C168.188 114.849 168.852 114.994 169.516 114.98C172.02 114.927 174.54 114.933 177.03 114.699C180.131 114.398 183.247 114.164 186.178 112.845C191.495 110.437 194.234 104.394 192.627 98.951C191.184 94.0588 187.638 91.3185 182.654 90.385C181.855 90.232 181.041 90.1393 180.234 90.0617C178.612 89.9065 176.998 89.7287 175.369 89.6716C173.566 89.614 171.748 89.6997 169.945 89.6798C168.979 89.6697 168.067 89.705 167.212 90.5326C167.158 90.9096 167.044 91.3921 167.042 91.8749C167.024 98.8151 167.006 105.748 167.025 112.688C167.023 113.344 167.248 113.994 167.389 114.779L167.381 114.764Z" fill="white"/>
<path d="M521.451 98.7669C518.253 98.7585 515.062 98.75 511.863 98.7415C509.842 98.7361 509.427 98.471 509.071 96.5162C508.052 90.9311 502.064 87.5205 496.743 88.2834C491.332 89.0536 488.444 94.5453 488.93 98.9597C489.35 102.725 491.365 105.039 494.393 106.956C496.615 108.357 499.125 108.914 501.491 109.886C505.078 111.367 508.824 112.471 512.396 113.996C514.86 115.051 517.172 116.431 519.371 118.043C521.78 119.807 523.97 121.722 525.661 124.155C526.728 125.689 527.72 127.306 528.492 128.991C530.668 133.719 531.688 138.701 531.274 143.927C531.227 144.553 531.158 145.172 531.058 145.79C530.445 149.387 529.266 152.839 527.5 155.987C526.075 158.526 524.439 161.026 522.209 163.004C519.918 165.027 517.822 167.307 514.914 168.552C512.112 169.751 509.513 171.472 506.336 171.637C506.148 171.644 505.952 171.681 505.785 171.764C501.926 173.504 497.885 172.527 493.909 172.592C488.112 171.144 482.376 169.461 477.717 165.526C474.156 162.522 471.02 159.119 469.281 154.663C468.832 153.508 468.08 152.45 467.729 151.265C467.108 149.181 466.631 147.045 466.199 144.909C465.879 143.339 466.878 142.18 468.507 142.199C473.712 142.273 478.925 142.37 484.129 142.512C485.842 142.562 486.361 143.046 486.454 144.796C486.584 147.218 487.71 149.1 489.426 150.666C493.347 154.229 498.081 155.411 503.071 154.059C506.008 153.26 508.721 151.554 510.471 148.632C512.668 144.972 512.49 141.154 511.376 137.425C510.666 135.046 508.596 133.298 506.472 131.889C503.573 129.973 500.332 128.758 497.145 127.452C493.49 125.948 489.767 124.611 486.15 123.024C480.898 120.717 476.676 117.16 473.868 112.114C471.563 107.974 469.915 103.594 469.739 98.8107C469.675 97.1358 469.778 95.4161 470.107 93.78C471.07 89.03 472.485 84.3868 475.664 80.6007C479.796 75.6706 484.717 71.8665 491.149 70.1636C494.863 69.1777 498.583 68.7274 502.331 69.1296C506.585 69.586 510.617 70.9244 514.353 73.1597C517.14 74.8267 519.374 77.0882 521.714 79.2444C522.61 80.0691 523.105 81.3151 523.864 82.2978C526.766 86.0321 527.991 90.3957 528.711 94.9464C529.208 98.1011 528.565 98.7783 525.427 98.7473C524.107 98.7363 522.787 98.7403 521.467 98.7368C521.467 98.7519 521.466 98.767 521.466 98.7896L521.451 98.7669Z" fill="white"/>
<path d="M0.534077 143.348C1.32871 142.392 2.34707 142.409 3.35792 142.412C6.74508 142.406 10.1397 142.423 13.5269 142.401C14.651 142.397 15.7828 142.272 16.9068 142.282C17.6235 142.284 18.3398 142.429 19.0562 142.507C19.5952 144.062 20.1348 145.399 20.5235 146.773C21.054 148.675 22.2117 150.187 23.7327 151.277C28.6193 154.768 35.7989 155.526 41.1955 151.618C43.7956 149.739 45.651 147.043 45.8186 143.588C45.8586 142.713 45.8685 141.831 45.7953 140.963C45.4444 136.745 43.3254 133.639 39.7782 131.397C36.7281 129.473 33.397 128.249 29.9978 127.101C25.1817 125.474 20.4948 123.485 16.24 120.675C12.5425 118.229 9.3973 115.188 7.44672 111.124C6.44892 109.047 5.36813 106.969 4.7252 104.772C2.88596 98.5514 3.49053 92.4653 6.03357 86.4823C8.22741 81.3206 11.5655 77.0597 16.1002 73.8883C19.4861 71.521 23.3602 69.9245 27.5336 69.3019C31.0881 68.7682 34.6564 68.7248 38.2232 69.2624C42.6571 69.9304 46.6736 71.563 50.1815 74.3786C50.8139 74.8857 51.4461 75.4079 52.1088 75.8774C54.9399 77.8764 56.909 80.6502 58.7422 83.4765C59.779 85.0709 60.4529 86.9511 61.0289 88.7933C61.6572 90.8167 62.0137 92.9299 62.4231 95.0131C62.8547 97.2396 62.0221 98.2785 59.8043 98.2801C55.0291 98.2825 50.2614 98.2699 45.4864 98.227C43.4949 98.2066 42.5609 97.6535 42.438 95.6616C42.1341 90.7875 35.1594 86.6954 29.8829 87.9714C25.0443 89.1429 22.6208 92.7273 22.602 96.9517C22.6015 97.1403 22.601 97.3289 22.5854 97.5175C22.281 101.356 24.0013 104.069 27.1869 106.107C29.9207 107.857 32.9658 108.815 35.9653 109.91C40.9092 111.718 45.9594 113.255 50.4934 116.021C52.4742 117.233 54.2204 118.724 55.9589 120.267C58.9694 122.923 60.6499 126.421 62.5118 129.798C64.0733 132.631 64.4193 135.86 64.7127 139.029C65.1455 143.647 64.5374 148.21 62.7006 152.437C60.6057 157.282 57.7198 161.702 53.3961 164.95C51.65 166.265 49.8662 167.566 47.9474 168.602C41.458 172.107 34.5216 173.507 27.2304 172.122C22.5406 171.227 18.1547 169.496 14.0807 166.829C11.2943 165.004 8.99944 162.757 6.81053 160.375C5.56188 159.014 4.6838 157.307 3.71491 155.705C2.07001 153 1.31614 149.965 0.509437 146.946C0.180779 145.715 0.0557603 144.5 0.51897 143.355L0.534077 143.348Z" fill="white"/>
<path d="M575.803 153.084C574.743 151.617 573.397 149.977 572.308 148.178C571.084 146.161 569.951 144.068 569.021 141.901C567.649 138.699 566.285 135.474 565.886 131.957C565.82 131.399 565.791 130.818 565.597 130.297C564.533 127.473 564.782 124.501 564.616 121.589C564.451 118.729 564.609 115.841 565.537 113.059C565.613 112.826 565.651 112.569 565.667 112.32C566.072 107.441 567.925 103.017 569.928 98.6173C572.265 93.4862 575.483 88.9534 579.319 84.9126C582.549 81.5114 586.313 78.7075 590.386 76.2742C594.08 74.0661 598.015 72.5377 602.032 71.1376C602.847 70.8531 603.745 70.765 604.605 70.6164C607.383 70.1334 610.145 69.5071 612.945 69.2354C615.36 69.0004 617.818 69.1276 620.262 69.1945C625.015 69.3278 629.575 70.5997 634.022 72.0901C637.09 73.1166 639.967 74.7236 642.852 76.2249C644.397 77.0286 645.85 78.0584 647.22 79.1484C648.53 80.1929 649.711 81.403 650.87 82.6206C652.72 84.5643 654.676 86.4479 656.27 88.587C658.24 91.2325 660.058 94.021 661.612 96.9295C663.105 99.7246 664.357 102.685 665.398 105.683C667.764 112.516 668.394 119.571 667.507 126.758C667.384 127.746 667.502 128.765 667.378 129.753C667.255 130.733 667.011 131.698 666.752 132.655C666.242 134.517 665.784 136.402 665.108 138.203C664.211 140.585 663.187 142.92 662.109 145.226C661.48 146.575 660.722 147.885 659.874 149.105C658.692 150.792 657.413 152.418 656.074 153.976C655.733 154.367 654.979 154.403 654.36 154.627C653.901 154.098 653.404 153.735 653.202 153.251C652.189 150.91 650.588 148.899 649.742 146.423C649.031 144.354 647.557 142.517 646.28 140.673C645.31 139.267 645.276 138.075 646.079 136.531C647.778 133.254 649.07 129.81 649.283 126.053C649.338 125.118 649.379 124.16 649.63 123.263C650.331 120.73 649.304 118.329 649.182 115.869C649.053 113.326 647.942 111.053 647.24 108.667C646.305 105.519 644.305 102.956 642.441 100.462C639.991 97.1814 636.898 94.3141 633.116 92.4256C631.323 91.5307 629.492 90.7111 627.646 89.9368C624.481 88.6157 621.11 88.1617 617.731 87.8812C616.185 87.7564 614.578 87.7747 613.061 88.0498C609.295 88.7263 605.581 89.6066 602.129 91.4004C598.012 93.5394 594.466 96.3514 591.454 99.8588C590.108 101.424 588.783 102.997 587.843 104.858C586.318 107.879 584.975 110.954 584.431 114.324C584.315 115.063 584.125 115.794 583.957 116.526C583.446 118.742 583.206 120.952 583.796 123.209C584.042 124.168 584.108 125.186 584.18 126.182C584.406 129.193 585.078 132.054 586.473 134.766C586.999 135.778 586.935 136.977 586.314 138.016C584.177 141.617 582.002 145.194 579.866 148.794C579.199 149.924 578.585 151.084 577.978 152.245C577.584 152.998 577.07 153.434 575.803 153.069L575.803 153.084Z" fill="white"/>
<path d="M381.873 170.656C381.356 169.395 380.831 168.141 380.322 166.88C379.4 164.562 378.486 162.236 377.572 159.91C377.115 158.747 376.665 157.584 376.2 156.428C375.024 153.468 373.87 150.508 372.663 147.563C371.412 144.504 370.092 141.468 368.84 138.402C367.873 136.031 366.944 133.644 366.061 131.243C364.765 127.732 363.597 124.168 362.226 120.694C360.503 116.337 358.606 112.047 356.837 107.712C355.87 105.341 355.001 102.932 354.08 100.538C353.226 98.3259 352.364 96.1133 351.51 93.9007C350.049 90.1099 348.603 86.3115 347.127 82.5282C345.898 79.3867 344.639 76.2603 343.275 72.8091C343.55 71.4369 344.118 70.8802 345.77 70.9147C350.786 71.0035 355.802 71.1149 360.819 71.2489C362.682 71.2991 363.359 71.8591 363.958 73.6411C365.096 77.0161 366.188 80.4062 367.379 83.7663C369.131 88.7121 370.951 93.643 372.725 98.5813C372.98 99.2836 373.152 100.016 373.384 100.733C373.967 102.507 374.551 104.289 375.157 106.056C375.869 108.125 376.58 110.186 377.321 112.24C378.354 115.117 379.418 117.987 380.451 120.863C380.938 122.215 381.531 123.552 381.821 124.948C382.35 127.484 383.4 129.803 384.367 132.174C385.588 135.188 386.667 138.253 387.76 141.311C387.962 141.885 387.9 142.556 388.049 143.153C388.206 143.764 388.476 144.338 388.671 144.844C389.901 144.817 389.948 144.108 390.161 143.437C390.739 141.598 391.385 139.79 392.008 137.966C392.556 136.375 393.103 134.785 393.65 133.187C394.89 129.592 396.106 125.982 397.376 122.394C398.835 118.279 400.362 114.195 401.814 110.08C403.646 104.895 405.402 99.6789 407.234 94.4937C408.192 91.7805 409.277 89.1129 410.213 86.3921C410.965 84.2064 411.552 81.9675 412.267 79.7741C413.027 77.4527 413.803 75.1464 414.669 72.8629C415.3 71.1899 416.274 70.8605 418.054 70.8879C422.565 70.9527 427.076 70.8666 431.588 70.8333C432.025 70.8344 432.47 70.73 432.9 70.784C434.348 70.9538 435.137 72.1251 434.613 73.4816C433.405 76.6317 432.077 79.7362 430.877 82.8939C429.745 85.8706 428.733 88.893 427.639 91.8774C426.902 93.867 426.105 95.8413 425.33 97.8157C423.849 101.599 422.353 105.374 420.872 109.157C419.619 112.352 418.343 115.533 417.142 118.743C415.782 122.368 414.535 126.023 413.16 129.641C412.386 131.683 411.422 133.657 410.61 135.692C409.471 138.533 408.422 141.411 407.29 144.26C406.44 146.408 405.514 148.525 404.648 150.665C404.109 151.991 403.623 153.34 403.091 154.667C401.929 157.56 400.73 160.431 399.583 163.333C398.854 165.179 398.207 167.063 397.501 168.925C397.098 169.987 396.417 170.838 395.203 170.85C391.001 170.884 386.791 170.843 382.589 170.816C382.476 170.816 382.356 170.733 382.243 170.687C382.122 170.687 381.994 170.679 381.873 170.671L381.873 170.656Z" fill="white"/>
<path d="M556.046 170.291C555.156 170.379 554.484 170.513 553.805 170.511C549.475 170.515 545.137 170.488 540.807 170.462C540.49 170.461 540.173 170.46 539.864 170.429C538.56 170.282 538.085 169.851 538.006 168.523C537.934 167.278 537.982 166.018 537.986 164.774C537.987 155.827 537.996 146.88 538.004 137.933C538.013 134.621 538.09 131.31 538.031 127.998C537.911 122 537.678 116.002 537.558 110.005C537.518 107.953 537.689 105.901 537.695 103.849C537.705 99.8513 537.678 95.8455 537.674 91.8473C537.673 89.4786 537.679 87.1023 537.693 84.7336C537.696 83.421 537.798 82.1087 537.764 80.796C537.71 78.3592 537.558 75.9222 537.527 73.4855C537.502 71.5316 538.326 70.7039 540.235 70.7015C544.738 70.6908 549.249 70.6952 553.76 70.7072C554.764 70.7099 555.797 70.6824 556.707 71.9899C556.66 103.93 556.68 136.202 556.466 168.474C556.464 169.009 556.229 169.544 556.046 170.283L556.046 170.291Z" fill="white"/>
<path d="M459.985 169.816C458.233 170.369 443.417 170.405 441.789 169.866C441.723 169.247 441.581 168.53 441.583 167.813C441.571 158.187 441.559 148.561 441.577 138.936C441.589 131.618 441.653 124.301 441.643 116.983C441.648 114.924 441.435 112.864 441.395 110.804C441.369 109.371 441.448 107.938 441.497 106.497C441.521 105.871 441.628 105.253 441.63 104.627C441.562 96.253 441.494 87.8793 441.395 79.5055C441.377 77.6949 441.276 75.8842 441.145 74.0809C440.985 71.9305 441.992 70.7639 444.187 70.7546C448.766 70.7441 453.353 70.7488 457.932 70.8062C458.701 70.8082 459.47 71.112 460.344 71.2954C460.47 72.2161 460.657 72.9408 460.647 73.6649C460.601 76.9162 460.449 80.1596 460.433 83.4109C460.418 86.0964 460.584 88.7824 460.57 91.468C460.468 106.91 460.322 122.351 460.213 137.793C460.164 144.665 460.146 151.538 460.158 158.41C460.165 161.465 460.308 164.528 460.33 167.584C460.328 168.361 460.107 169.137 460.007 169.801L459.985 169.816Z" fill="white"/>
<path d="M766.611 71.2461H778.291V73.5821H773.705V86.7409H771.176V73.5821H766.611V71.2461Z" fill="white"/>
<path d="M780.52 71.2461H784.077L788.063 83.3762H788.106L791.985 71.2461H795.5V86.7409H793.1V74.8037H793.057L789.049 86.7623H786.97L782.963 74.8037H782.92V86.7623H780.52V71.2461Z" fill="white"/>
</svg>
