<svg width="796" height="174" viewBox="0 0 796 174" fill="none" xmlns="http://www.w3.org/2000/svg">
<path d="M615.604 98.666L575.037 171.17H656.17L615.604 98.666Z" fill="white"/>
<path d="M16.6588 50.2252L0.5 0.890625H20.9668L29.1961 26.0079L32.2827 18.6643L26.4536 0.890625H46.9422L55.0509 25.6626L58.1392 18.3228L52.4281 0.890625H69.2298L66.4228 7.57743L65.2014 10.4489L59.7792 23.329L56.6934 30.6801L51.2644 43.5719L51.2711 43.5819L48.4633 50.2252H42.6342L33.9294 23.6852L22.7667 50.2256L16.6588 50.2252Z" fill="white"/>
<path d="M76.2168 6.35559H207.419V0.890625H78.5097L76.2168 6.35559Z" fill="white"/>
<path d="M207.419 50.2252H57.7641L60.0571 44.7602H207.419V50.2252Z" fill="white"/>
<path fill-rule="evenodd" clip-rule="evenodd" d="M73.902 11.8206H75.3595L90.4041 39.317H77.7169L75.0163 34.1518H69.1871V34.8378C69.1871 35.5448 69.5513 36.1877 70.1725 36.531L72.5517 37.8595V39.317H62.479L73.0021 13.9637L73.902 11.8206ZM71.3303 26.9941L69.7656 30.6801H73.2591L71.3303 26.9941Z" fill="white"/>
<path fill-rule="evenodd" clip-rule="evenodd" d="M124.544 11.8206H123.087L122.187 13.9637L111.685 39.2953H121.758V37.8382L119.379 36.5092C118.758 36.1664 118.394 35.5234 118.394 34.8165V34.1304H124.223L126.923 39.2953H139.611L124.544 11.8206ZM118.95 30.6801L120.515 26.9941L122.444 30.6801H118.95Z" fill="white"/>
<path fill-rule="evenodd" clip-rule="evenodd" d="M185.066 11.8206H186.523L201.568 39.317H188.881L186.18 34.1518H180.351V34.8378C180.351 35.5448 180.715 36.1877 181.336 36.531L183.715 37.8595V39.317H173.643L184.166 13.9637L185.066 11.8206ZM182.472 26.9941L180.908 30.6801H184.401L182.472 26.9941Z" fill="white"/>
<path d="M86.5464 11.8206V21.2717H89.9972C89.9972 18.6786 91.5401 16.9854 92.697 16.0855C93.3618 15.5497 94.1972 15.2709 95.0545 15.2709V39.2953H106.328V15.2709C107.185 15.2709 108.02 15.5497 108.685 16.0855C109.842 16.9854 111.385 18.6786 111.385 21.2717H114.836V11.8206H86.5464Z" fill="white"/>
<path fill-rule="evenodd" clip-rule="evenodd" d="M163.184 23.3294H163.827C167.428 23.3294 170.321 28.2155 170.343 31.7947V39.2739H157.676V25.0439H154.226V39.2739H142.953V11.7992H163.184C166.378 11.7992 168.95 12.7636 168.95 17.5643C168.95 22.365 166.356 23.3294 163.184 23.3294ZM157.655 15.2709H154.205V21.6149H157.655V15.2709Z" fill="white"/>
<path fill-rule="evenodd" clip-rule="evenodd" d="M204.697 12.4635H209.326C210.312 12.4635 211.126 12.7423 211.748 13.2781C212.076 13.5501 212.334 13.8674 212.525 14.2337C212.77 14.7037 212.902 15.2542 212.926 15.8925C212.905 17.5643 212.134 18.6786 210.633 19.2788L213.377 24.722H211.234L208.769 19.4931H206.475V24.722H204.675L204.697 12.4635ZM206.497 17.8213H209.219C209.883 17.8 210.397 17.607 210.741 17.2211C210.906 17.0331 211.033 16.8222 211.116 16.5886C211.193 16.3697 211.234 16.1303 211.234 15.8711C211.212 15.2282 211.019 14.7565 210.633 14.4781C210.333 14.2207 209.883 14.0922 209.305 14.0922H206.475L206.497 17.8213Z" fill="white"/>
<path fill-rule="evenodd" clip-rule="evenodd" d="M197.453 18.7213C197.453 12.6778 202.361 7.76997 208.405 7.76997C214.448 7.76997 219.356 12.6778 219.356 18.7213C219.356 24.7651 214.448 29.6725 208.405 29.6725C202.361 29.6725 197.453 24.7651 197.453 18.7213ZM217.084 18.7213C217.084 13.9423 213.183 10.0416 208.405 10.0416C203.626 10.0416 199.725 13.9423 199.725 18.7213C199.725 23.5006 203.626 27.4009 208.405 27.4009C213.183 27.4009 217.084 23.5006 217.084 18.7213Z" fill="white"/>
<path d="M694.158 171.324L677.894 171.28C676.794 170.561 676.676 169.64 676.694 168.675C676.737 166.366 676.827 164.058 676.848 161.75C676.869 159.57 676.784 157.382 676.805 155.202C676.827 152.705 676.961 150.208 676.96 147.711C676.948 143.773 676.831 139.835 676.826 135.897C676.824 133.778 677.033 131.651 677.024 129.523C676.975 122.394 676.888 115.265 676.786 108.136C676.742 105.134 676.538 102.138 676.524 99.1435C676.497 92.0221 676.554 84.8934 676.543 77.7721C676.545 76.7763 676.382 75.7801 676.279 74.7916C676.08 72.8976 676.883 71.8889 678.791 71.8864C684.442 71.8712 690.099 71.9315 695.749 71.9465C697.288 71.9506 698.305 72.6247 699.048 73.9845C701.848 79.084 704.739 84.1309 707.57 89.2153C709.755 93.1514 711.879 97.1251 714.064 101.061C715.948 104.453 717.886 107.808 719.785 111.185C722.931 116.791 726.032 122.419 729.216 128.002C730.92 130.987 732.761 133.896 734.518 136.858C735.284 138.142 735.952 139.487 736.703 140.779C737.026 141.338 737.439 141.844 737.815 142.373C737.966 142.336 738.117 142.299 738.268 142.269C738.345 141.756 738.497 141.244 738.498 140.738C738.485 137.238 738.411 133.73 738.421 130.23C738.428 124.421 738.497 118.612 738.505 112.796C738.51 110.616 738.395 108.436 738.401 106.256C738.407 104.136 738.488 102.016 738.539 99.8965C738.556 99.2704 738.61 98.6444 738.604 98.0258C738.527 90.2103 738.434 82.3947 738.38 74.5793C738.362 72.55 738.907 72.0384 740.981 72.0439C745.44 72.0482 749.898 72.0676 754.356 72.0945C754.673 72.0954 754.983 72.0962 755.299 72.1272C756.906 72.305 757.62 73.1593 757.571 74.7585C757.446 79.0053 757.284 83.252 757.25 87.499C757.229 89.8677 757.539 92.2448 757.518 94.6135C757.485 98.4909 757.248 102.36 757.215 106.23C757.193 108.976 757.367 111.73 757.42 114.476C757.433 115.223 757.34 115.969 757.316 116.724C757.258 118.413 757.156 120.095 757.182 121.785C757.233 125.157 757.405 128.53 757.457 131.91C757.501 134.912 757.418 137.914 757.433 140.917C757.444 142.29 757.584 143.663 757.656 145.029C757.685 145.466 757.751 145.904 757.72 146.341C757.218 153.59 758.006 160.834 757.715 168.083C757.683 168.814 757.59 169.553 757.536 170.126C756.56 171.059 755.527 170.951 754.532 170.948C751.016 170.939 747.501 170.899 743.978 170.913C742.726 170.917 741.473 170.997 740.221 171.114C738.87 171.239 737.595 171.099 736.187 170.371C735.518 169.238 734.767 167.946 734.009 166.662C731.478 162.363 728.932 158.063 726.416 153.749C724.088 149.752 721.828 145.718 719.463 141.736C717.841 139.001 716.075 136.341 714.415 133.628C713.596 132.299 712.86 130.916 712.087 129.556C709.542 125.114 706.973 120.679 704.451 116.221C702.078 112.036 699.758 107.813 697.393 103.619C697.138 103.166 696.739 102.795 696.461 102.448C695.313 102.769 695.424 103.531 695.43 104.195C695.449 125.469 695.475 146.734 695.502 168.008C695.499 169.192 695.692 170.437 694.173 171.324L694.158 171.324Z" fill="white"/>
<path d="M322.603 136.545C323.573 137.89 324.565 139.311 325.602 140.694C328.113 144.043 330.684 147.361 333.172 150.725C336.374 155.048 339.509 159.425 342.711 163.748C344.086 165.607 345.56 167.392 346.996 169.198C347.583 169.939 347.928 170.687 347.314 171.561C345.54 172.182 327.254 172.005 325.212 171.343C317.156 159.72 309.077 148.073 301.006 136.427C301.089 136.337 301.165 136.254 301.248 136.164C300.848 136.087 300.456 136.018 300.079 135.949C299.913 136.198 299.731 136.333 299.716 136.499C299.646 137.117 299.584 137.743 299.583 138.362C299.609 145.559 299.642 152.748 299.684 159.945C299.698 163.008 299.758 166.063 299.735 169.126C299.733 169.835 299.467 170.543 299.352 171.109C297.177 172.008 284.187 172.057 281.556 171.273C280.796 170.69 280.647 169.89 280.687 168.955C280.744 167.65 280.694 166.344 280.683 165.039C280.684 164.353 280.649 163.666 280.658 162.98C280.71 157.669 280.822 152.366 280.821 147.055C280.822 138.116 280.77 129.169 280.719 120.23C280.638 105.217 280.549 90.2125 280.461 75.2003C280.44 71.8432 280.757 71.5499 284.107 71.5965C287.184 71.6424 290.262 71.6505 293.34 71.6738C296.033 71.6885 298.726 71.6655 301.412 71.7179C306.745 71.815 312.078 71.8895 317.411 72.0847C323.943 72.3208 329.867 74.5695 335.024 78.4305C337.697 80.4292 340.142 82.8496 341.703 85.9694C342.423 87.4121 343.438 88.7048 344.309 90.0725C344.512 90.3899 344.745 90.7149 344.827 91.0697C345.588 94.406 347.081 97.5784 347.154 101.079C347.168 101.826 347.347 102.565 347.39 103.312C347.505 105.312 347.56 107.311 346.937 109.263C345.955 112.361 345.268 115.573 343.977 118.534C340.888 125.617 336.016 131.066 328.51 133.747C327.226 134.203 325.883 134.524 324.547 134.837C323.626 135.054 322.916 135.444 322.603 136.545ZM300.109 119.21C302.424 119.352 304.739 119.69 307.033 119.598C310.405 119.463 313.786 119.148 317.136 118.682C320.155 118.267 322.731 116.788 324.639 114.409C327.091 111.353 328.594 107.94 328.257 103.865C328.126 102.25 327.549 100.853 326.972 99.3958C325.878 96.6395 323.748 94.7856 321.36 93.278C319.101 91.8614 316.492 91.2811 313.815 91.2287C309.862 91.1579 305.901 91.1474 301.948 91.152C301.292 91.1502 300.635 91.3522 300.077 91.4412C299.476 93.4312 299.48 117.269 300.124 119.195L300.109 119.21Z" fill="white"/>
<path d="M137.68 71.7459C138.575 72.5555 138.626 73.4458 138.615 74.4264C138.581 78.8621 138.622 83.2904 138.633 87.7261C138.636 89.5366 138.691 91.3548 138.656 93.1652C138.576 97.7818 138.405 102.398 138.371 107.015C138.347 110.01 138.566 113.005 138.588 116C138.62 121.054 138.689 126.116 138.555 131.17C138.413 136.413 138.248 141.678 137.699 146.889C137.444 149.31 136.449 151.721 135.455 153.989C134.476 156.197 132.939 158.155 131.689 160.218C128.863 164.88 124.36 167.245 120.015 169.956C118.058 171.173 115.832 171.59 113.748 172.414C110.334 173.763 106.743 173.965 103.183 173.555C100.657 173.262 98.1847 172.463 95.7121 171.808C92.3877 170.924 89.5412 169.023 86.6868 167.25C83.7119 165.402 81.1308 163.011 78.9581 160.214C75.3194 155.52 72.8133 150.398 72.4975 144.355C72.3898 142.303 71.9652 140.272 71.7216 138.227C71.6183 137.36 71.5377 136.484 71.54 135.617C71.5675 116.727 71.6176 97.8379 71.6527 78.9409C71.657 77.319 71.5935 75.6894 71.5148 74.0672C71.4218 72.1584 72.4048 71.2784 74.3661 71.2987C79.0054 71.3487 83.6524 71.3234 88.2919 71.2753C89.7555 71.2641 90.5537 71.7792 90.8065 73.1981C90.9031 73.7491 90.894 74.3224 90.8925 74.8806C90.8758 84.016 91.0024 93.1519 90.7745 102.279C90.6568 106.843 90.954 111.385 90.8816 115.941C90.7822 122.127 90.7884 128.313 90.8248 134.499C90.8401 137.245 90.9233 140.006 91.1725 142.737C91.3337 144.533 92.0535 146.202 92.9393 147.827C94.4558 150.592 96.7817 152.529 99.4865 153.819C101.347 154.706 103.609 155.21 105.661 155.117C109.26 154.961 112.718 153.989 115.23 151.031C116.032 150.083 117.023 149.286 117.787 148.315C118.688 147.178 119.137 145.837 119.427 144.389C120.49 139.134 120.594 133.838 120.488 128.52C120.353 122.334 120.377 116.14 120.19 109.954C119.885 99.7011 120.486 89.4583 120.302 79.2134C120.269 77.4631 120.251 75.7129 120.278 73.9628C120.305 72.1449 120.865 71.5278 122.615 71.5173C127.202 71.4993 131.781 71.5341 136.367 71.5614C136.858 71.5627 137.348 71.6922 137.702 71.746L137.68 71.7459Z" fill="white"/>
<path d="M238.08 132.112C237.5 134.442 237.599 151.445 238.175 153.039C239.818 153.556 241.569 153.229 243.304 153.248C244.489 153.267 245.673 153.262 246.857 153.25C247.861 153.238 248.864 153.195 249.868 153.16C250.622 153.14 251.369 153.096 252.123 153.091C254.998 153.083 257.879 153.084 260.753 153.099C261.817 153.101 262.881 153.172 263.952 153.175C265.77 153.18 267.588 153.185 269.398 153.137C270.334 153.109 271.278 152.863 272.06 153.574C272.614 155.31 272.546 169.507 271.877 171.354C270.149 171.478 268.301 171.729 266.445 171.732C254.767 171.738 243.082 171.692 231.404 171.661C228.266 171.653 225.12 171.66 221.982 171.614C221.062 171.604 220.15 171.428 219.094 171.319C218.87 170.323 218.555 169.492 218.512 168.647C218.347 165.471 218.175 162.295 218.191 159.119C218.21 154.683 218.456 150.248 218.498 145.812C218.519 143.632 218.207 141.444 218.236 139.256C218.385 128.507 218.15 117.756 218.231 107.007C218.312 96.2419 218.303 85.4845 218.332 74.7197C218.333 74.2821 218.304 73.837 218.373 73.4072C218.595 72.148 219.472 71.4638 220.754 71.4823C227.717 71.5913 234.68 71.7305 241.65 71.8093C245.791 71.8581 249.94 71.8615 254.082 71.8273C257.024 71.8049 259.966 71.6618 262.909 71.6093C265.285 71.5703 267.669 71.554 270.045 71.5905C271.84 71.6179 272.562 72.3968 272.58 74.3507C272.601 77.67 272.562 80.9816 272.553 84.3009C272.55 85.6738 272.607 87.0545 272.558 88.4273C272.5 90.1924 271.812 90.8921 270.024 91.0232C269.216 91.0814 268.394 91.0037 267.579 90.994C264.766 90.979 261.952 90.964 259.138 90.9565C258.572 90.955 258.006 91.0063 257.441 91.0048C251.738 90.9972 246.035 90.9746 240.331 90.9896C239.539 90.9875 238.754 91.1287 237.804 91.2243C237.711 92.1142 237.566 92.838 237.571 93.5547C237.627 97.9302 237.729 102.306 237.785 106.681C237.797 107.866 237.673 109.05 237.648 110.242C237.631 110.958 237.689 111.683 237.717 112.558C238.584 112.643 239.248 112.773 239.912 112.775C249.266 112.8 258.627 112.817 267.982 112.827C270.177 112.833 270.96 113.551 270.969 115.724C270.987 120.288 270.982 124.859 270.955 129.423C270.942 131.551 270.413 132.04 268.225 132.034C258.991 132.017 249.758 131.985 240.532 131.968C239.732 131.966 238.94 132.054 238.087 132.105L238.08 132.112Z" fill="white"/>
<path d="M167.5 134.522C167.422 135.616 167.306 136.468 167.304 137.321C167.277 147.391 167.281 157.462 167.254 167.533C167.251 168.635 167.135 169.743 167.064 171.025C165.962 171.196 165.056 171.45 164.143 171.455C159.881 171.489 155.619 171.463 151.357 171.421C150.685 171.419 150.014 171.252 149.094 171.136C148.946 170.11 148.692 169.159 148.68 168.193C148.636 164.564 148.714 160.936 148.663 157.307C148.614 153.309 148.443 149.31 148.393 145.312C148.375 143.879 148.605 142.446 148.608 141.013C148.612 139.519 148.428 138.025 148.417 136.531C148.383 132.337 148.416 128.15 148.397 123.956C148.336 112.889 148.245 101.822 148.199 90.7551C148.195 89.3822 148.38 88.0097 148.391 86.6443C148.394 85.4599 148.246 84.2827 148.234 83.0983C148.212 80.1562 148.189 77.2141 148.242 74.2797C148.26 73.5103 148.541 72.7491 148.724 71.867C149.72 71.7565 150.513 71.5851 151.305 71.5872C162.168 71.616 173.031 71.6222 183.886 71.734C186.979 71.7649 189.926 72.6628 192.858 73.6513C196.378 74.8375 199.412 76.8824 202.213 79.1454C204.162 80.7196 205.688 82.9038 207.131 85.0048C208.476 86.9547 209.564 89.0925 210.569 91.2375C211.724 93.7074 212.049 96.4089 212.155 99.1023C212.254 101.72 212.164 104.353 212.044 106.978C211.923 109.754 210.996 112.331 210.106 114.954C208.692 119.144 206.103 122.578 203.431 125.958C201.176 128.803 198.251 130.81 194.777 132.03C190.171 133.647 185.439 134.434 180.566 134.421C176.99 134.412 173.407 134.402 169.831 134.4C169.153 134.399 168.473 134.472 167.485 134.522L167.5 134.522ZM167.739 115.656C168.546 115.741 169.209 115.886 169.873 115.873C172.378 115.819 174.897 115.826 177.387 115.591C180.489 115.29 183.605 115.057 186.535 113.737C191.853 111.33 194.592 105.287 192.984 99.8435C191.542 94.9514 187.996 92.2111 183.012 91.2775C182.213 91.1245 181.398 91.0319 180.591 90.9543C178.97 90.7991 177.356 90.6213 175.726 90.5642C173.924 90.5066 172.105 90.5923 170.302 90.5724C169.337 90.5623 168.424 90.5976 167.569 91.4251C167.515 91.8022 167.401 92.2847 167.4 92.7675C167.381 99.7077 167.363 106.64 167.382 113.581C167.38 114.237 167.605 114.886 167.746 115.671L167.739 115.656Z" fill="white"/>
<path d="M521.809 99.6595C518.61 99.651 515.419 99.6426 512.221 99.6341C510.199 99.6287 509.785 99.3636 509.428 97.4088C508.409 91.8237 502.421 88.4131 497.101 89.176C491.69 89.9462 488.801 95.4379 489.287 99.8523C489.707 103.618 491.723 105.931 494.75 107.848C496.972 109.25 499.483 109.807 501.849 110.779C505.436 112.259 509.182 113.363 512.754 114.889C515.218 115.944 517.53 117.323 519.728 118.936C522.138 120.7 524.328 122.614 526.019 125.048C527.086 126.582 528.077 128.199 528.85 129.883C531.025 134.612 532.045 139.593 531.632 144.82C531.585 145.446 531.515 146.064 531.415 146.683C530.802 150.279 529.624 153.731 527.858 156.88C526.433 159.418 524.797 161.918 522.566 163.897C520.275 165.92 518.179 168.2 515.272 169.444C512.47 170.644 509.87 172.365 506.694 172.53C506.505 172.537 506.309 172.574 506.143 172.656C502.283 174.396 498.242 173.42 494.267 173.485C488.469 172.036 482.733 170.354 478.074 166.419C474.514 163.414 471.377 160.011 469.639 155.556C469.189 154.401 468.438 153.342 468.086 152.157C467.466 150.073 466.988 147.937 466.557 145.801C466.236 144.231 467.235 143.072 468.865 143.092C474.07 143.166 479.282 143.263 484.487 143.405C486.199 143.455 486.718 143.939 486.812 145.689C486.941 148.111 488.068 149.992 489.784 151.558C493.704 155.122 498.439 156.304 503.429 154.952C506.365 154.152 509.078 152.447 510.828 149.525C513.026 145.864 512.847 142.047 511.733 138.317C511.023 135.939 508.953 134.191 506.83 132.782C503.93 130.866 500.69 129.65 497.502 128.344C493.847 126.841 490.124 125.503 486.508 123.917C481.256 121.61 477.033 118.053 474.225 113.006C471.92 108.866 470.272 104.486 470.096 99.7033C470.033 98.0284 470.135 96.3087 470.464 94.6726C471.427 89.9226 472.843 85.2794 476.021 81.4933C480.153 76.5631 485.074 72.7591 491.506 71.0562C495.22 70.0702 498.94 69.62 502.689 70.0222C506.942 70.4786 510.974 71.817 514.71 74.0523C517.497 75.7193 519.731 77.9808 522.072 80.137C522.967 80.9616 523.462 82.2077 524.221 83.1904C527.123 86.9247 528.349 91.2882 529.068 95.839C529.566 98.9936 528.923 99.6709 525.784 99.6399C524.464 99.6289 523.144 99.6329 521.824 99.6294C521.824 99.6445 521.824 99.6596 521.824 99.6822L521.809 99.6595Z" fill="white"/>
<path d="M0.891499 144.24C1.68613 143.284 2.70449 143.302 3.71534 143.305C7.1025 143.299 10.4971 143.315 13.8843 143.294C15.0084 143.289 16.1403 143.164 17.2643 143.175C17.9809 143.177 18.6972 143.322 19.4136 143.399C19.9527 144.955 20.4923 146.291 20.8809 147.665C21.4114 149.568 22.5692 151.079 24.0901 152.17C28.9767 155.66 36.1564 156.419 41.553 152.51C44.153 150.631 46.0084 147.936 46.176 144.481C46.216 143.606 46.2259 142.723 46.1528 141.856C45.8019 137.638 43.6828 134.532 40.1356 132.289C37.0855 130.365 33.7544 129.142 30.3552 127.994C25.5391 126.367 20.8522 124.378 16.5974 121.568C12.8999 119.121 9.75473 116.08 7.80414 112.016C6.80634 109.939 5.72555 107.862 5.08262 105.665C3.24338 99.444 3.84795 93.3578 6.39099 87.3748C8.58484 82.2132 11.9229 77.9523 16.4576 74.7809C19.8435 72.4136 23.7177 70.8171 27.891 70.1945C31.4455 69.6607 35.0138 69.6174 38.5806 70.1549C43.0146 70.823 47.031 72.4556 50.539 75.2712C51.1713 75.7783 51.8036 76.3005 52.4662 76.77C55.2973 78.769 57.2664 81.5428 59.0996 84.369C60.1364 85.9635 60.8103 87.8437 61.3863 89.6859C62.0146 91.7093 62.3711 93.8225 62.7805 95.9057C63.2121 98.1322 62.3795 99.171 60.1617 99.1727C55.3865 99.1751 50.6189 99.1624 45.8438 99.1196C43.8523 99.0992 42.9183 98.546 42.7954 96.5542C42.4915 91.6801 35.5168 87.588 30.2404 88.8639C25.4017 90.0355 22.9782 93.6198 22.9594 97.8443C22.9589 98.0329 22.9584 98.2215 22.9428 98.41C22.6384 102.249 24.3588 104.962 27.5444 106.999C30.2781 108.749 33.3232 109.708 36.3227 110.802C41.2666 112.611 46.3169 114.148 50.8508 116.913C52.8316 118.126 54.5778 119.617 56.3163 121.16C59.3268 123.816 61.0073 127.313 62.8692 130.69C64.4308 133.523 64.7767 136.753 65.0701 139.922C65.5029 144.54 64.8948 149.102 63.058 153.329C60.9631 158.174 58.0772 162.595 53.7535 165.842C52.0074 167.158 50.2237 168.458 48.3048 169.494C41.8154 173 34.879 174.4 27.5879 173.015C22.898 172.12 18.5122 170.388 14.4381 167.722C11.6517 165.897 9.35686 163.65 7.16795 161.268C5.9193 159.907 5.04122 158.2 4.07233 156.598C2.42743 153.893 1.67357 150.858 0.866859 147.838C0.538201 146.608 0.413182 145.393 0.876392 144.248L0.891499 144.24Z" fill="white"/>
<path d="M576.161 153.976C575.101 152.51 573.755 150.869 572.666 149.071C571.442 147.054 570.308 144.961 569.378 142.793C568.006 139.591 566.642 136.366 566.244 132.85C566.177 132.292 566.149 131.711 565.954 131.19C564.89 128.365 565.14 125.394 564.974 122.482C564.808 119.622 564.967 116.733 565.894 113.952C565.97 113.718 566.009 113.462 566.024 113.213C566.43 108.333 568.282 103.91 570.285 99.5098C572.622 94.3787 575.841 89.846 579.676 85.8051C582.906 82.4039 586.67 79.6001 590.743 77.1668C594.438 74.9587 598.372 73.4302 602.389 72.0302C603.204 71.7457 604.102 71.6576 604.963 71.509C607.74 71.026 610.503 70.3997 613.302 70.128C615.717 69.893 618.176 70.0202 620.62 70.0871C625.372 70.2204 629.933 71.4923 634.38 72.9827C637.447 74.0092 640.325 75.6161 643.21 77.1175C644.754 77.9212 646.207 78.951 647.577 80.0409C648.887 81.0855 650.068 82.2956 651.227 83.5132C653.078 85.4569 655.034 87.3405 656.628 89.4796C658.597 92.1251 660.415 94.9136 661.969 97.822C663.463 100.617 664.715 103.578 665.755 106.575C668.121 113.409 668.751 120.464 667.864 127.651C667.741 128.638 667.859 129.657 667.736 130.645C667.612 131.625 667.369 132.59 667.109 133.548C666.599 135.41 666.141 137.294 665.465 139.096C664.569 141.477 663.544 143.813 662.467 146.118C661.837 147.467 661.079 148.778 660.231 149.998C659.05 151.684 657.771 153.31 656.431 154.868C656.091 155.26 655.336 155.295 654.717 155.52C654.258 154.991 653.761 154.627 653.559 154.144C652.547 151.803 650.945 149.792 650.099 147.315C649.388 145.246 647.915 143.409 646.637 141.565C645.668 140.16 645.633 138.968 646.437 137.423C648.135 134.146 649.427 130.702 649.641 126.946C649.696 126.011 649.736 125.053 649.987 124.156C650.688 121.623 649.661 119.221 649.539 116.762C649.41 114.219 648.3 111.945 647.597 109.56C646.663 106.411 644.663 103.849 642.798 101.354C640.348 98.0739 637.255 95.2066 633.473 93.3182C631.68 92.4233 629.849 91.6037 628.003 90.8293C624.838 89.5083 621.467 89.0543 618.088 88.7738C616.542 88.6489 614.935 88.6673 613.418 88.9424C609.652 89.6189 605.938 90.4992 602.486 92.293C598.369 94.432 594.824 97.244 591.812 100.751C590.465 102.317 589.141 103.89 588.2 105.751C586.676 108.772 585.333 111.846 584.788 115.217C584.673 115.956 584.482 116.687 584.314 117.418C583.803 119.635 583.563 121.844 584.153 124.102C584.4 125.06 584.465 126.079 584.538 127.075C584.764 130.085 585.435 132.946 586.831 135.658C587.356 136.67 587.293 137.87 586.671 138.909C584.534 142.509 582.36 146.087 580.223 149.687C579.556 150.817 578.942 151.977 578.335 153.137C577.941 153.89 577.427 154.327 576.161 153.961L576.161 153.976Z" fill="white"/>
<path d="M382.231 171.549C381.714 170.287 381.189 169.034 380.679 167.773C379.757 165.454 378.843 163.128 377.929 160.802C377.472 159.639 377.022 158.476 376.558 157.321C375.381 154.361 374.227 151.401 373.021 148.455C371.769 145.397 370.449 142.361 369.198 139.295C368.231 136.923 367.302 134.537 366.418 132.136C365.122 128.624 363.955 125.061 362.584 121.587C360.86 117.23 358.963 112.94 357.194 108.605C356.227 106.234 355.359 103.825 354.437 101.431C353.583 99.2185 352.721 97.0059 351.867 94.7933C350.406 91.0024 348.96 87.2041 347.484 83.4208C346.255 80.2793 344.996 77.1528 343.633 73.7017C343.908 72.3295 344.475 71.7728 346.127 71.8073C351.143 71.8961 356.16 72.0075 361.176 72.1415C363.039 72.1917 363.717 72.7517 364.315 74.5336C365.453 77.9087 366.545 81.2988 367.736 84.6589C369.488 89.6047 371.308 94.5356 373.083 99.4739C373.338 100.176 373.509 100.908 373.741 101.626C374.325 103.4 374.908 105.182 375.515 106.949C376.226 109.018 376.937 111.079 377.678 113.133C378.712 116.01 379.775 118.879 380.809 121.756C381.296 123.108 381.888 124.444 382.179 125.841C382.707 128.377 383.757 130.696 384.724 133.067C385.946 136.08 387.024 139.146 388.117 142.204C388.319 142.778 388.257 143.449 388.407 144.045C388.563 144.657 388.833 145.231 389.028 145.737C390.258 145.71 390.305 145.001 390.518 144.33C391.096 142.491 391.742 140.682 392.366 138.858C392.913 137.268 393.461 135.678 394.008 134.08C395.247 130.485 396.464 126.875 397.733 123.287C399.192 119.172 400.719 115.087 402.171 110.972C404.003 105.787 405.759 100.572 407.591 95.3863C408.549 92.6731 409.635 90.0055 410.57 87.2847C411.323 85.099 411.909 82.8601 412.624 80.6667C413.385 78.3453 414.16 76.0389 415.026 73.7555C415.657 72.0824 416.631 71.7531 418.411 71.7805C422.922 71.8452 427.434 71.7592 431.945 71.7259C432.382 71.727 432.828 71.6226 433.258 71.6765C434.706 71.8464 435.495 73.0177 434.971 74.3742C433.763 77.5243 432.434 80.6288 431.234 83.7864C430.102 86.7632 429.091 89.7856 427.997 92.77C427.26 94.7596 426.462 96.7339 425.687 98.7083C424.206 102.491 422.71 106.267 421.229 110.05C419.976 113.245 418.7 116.425 417.5 119.636C416.14 123.261 414.893 126.916 413.518 130.533C412.743 132.576 411.78 134.549 410.967 136.584C409.828 139.425 408.779 142.304 407.648 145.153C406.797 147.3 405.871 149.418 405.006 151.558C404.466 152.884 403.98 154.233 403.448 155.559C402.287 158.453 401.087 161.324 399.94 164.225C399.211 166.072 398.565 167.956 397.858 169.817C397.456 170.88 396.775 171.73 395.56 171.742C391.358 171.776 387.149 171.735 382.947 171.709C382.834 171.709 382.713 171.625 382.6 171.58C382.48 171.579 382.351 171.571 382.231 171.564L382.231 171.549Z" fill="white"/>
<path d="M556.403 171.183C555.513 171.271 554.841 171.405 554.162 171.404C549.832 171.407 545.495 171.381 541.164 171.354C540.848 171.353 540.531 171.352 540.222 171.321C538.917 171.175 538.443 170.743 538.363 169.415C538.291 168.171 538.34 166.911 538.343 165.666C538.344 156.719 538.353 147.772 538.362 138.826C538.37 135.514 538.447 132.202 538.388 128.891C538.268 122.893 538.035 116.895 537.915 110.897C537.875 108.845 538.047 106.794 538.052 104.742C538.063 100.744 538.036 96.7381 538.031 92.7399C538.03 90.3712 538.036 87.9949 538.05 85.6262C538.054 84.3136 538.155 83.0013 538.121 81.6886C538.067 79.2518 537.915 76.8148 537.884 74.378C537.859 72.4241 538.683 71.5965 540.592 71.594C545.096 71.5834 549.607 71.5878 554.118 71.5998C555.121 71.6024 556.155 71.575 557.064 72.8825C557.017 104.823 557.037 137.095 556.823 169.366C556.822 169.902 556.586 170.437 556.403 171.176L556.403 171.183Z" fill="white"/>
<path d="M460.342 170.708C458.59 171.262 443.774 171.298 442.146 170.758C442.08 170.139 441.939 169.422 441.941 168.706C441.928 159.08 441.916 149.454 441.934 139.828C441.946 132.511 442.011 125.194 442 117.876C442.006 115.817 441.792 113.757 441.752 111.697C441.726 110.264 441.805 108.831 441.854 107.39C441.879 106.764 441.986 106.145 441.988 105.519C441.919 97.1456 441.851 88.7719 441.753 80.3981C441.735 78.5875 441.634 76.7768 441.503 74.9734C441.343 72.8231 442.349 71.6564 444.544 71.6472C449.123 71.6367 453.71 71.6413 458.289 71.6988C459.058 71.7008 459.827 72.0046 460.702 72.188C460.827 73.1086 461.014 73.8333 461.005 74.5575C460.958 77.8087 460.806 81.0522 460.79 84.3035C460.775 86.989 460.942 89.675 460.927 92.3606C460.826 107.802 460.679 123.244 460.57 138.686C460.522 145.558 460.504 152.43 460.516 159.303C460.523 162.358 460.665 165.421 460.687 168.476C460.685 169.253 460.464 170.03 460.365 170.693L460.342 170.708Z" fill="white"/>
<path d="M766.969 72.1387H778.649V74.4747H774.063V87.6335H771.534V74.4747H766.969V72.1387Z" fill="white"/>
<path d="M780.877 72.1387H784.435L788.421 84.2688H788.464L792.343 72.1387H795.857V87.6335H793.457V75.6963H793.414L789.407 87.6549H787.328L783.32 75.6963H783.277V87.6549H780.877V72.1387Z" fill="white"/>
</svg>
