<svg width="450" height="142" viewBox="0 0 450 142" fill="none" xmlns="http://www.w3.org/2000/svg">
<g clip-path="url(#clip0_2_35)">
<path d="M438.058 22.883H436.324V21.8168H441.011V22.883H439.277V29.3976H438.07L438.058 22.883Z" fill="white"/>
<path d="M441.819 29.3976V21.8168H443.483L445.838 27.6869L448.17 21.8168H449.822V29.3976H448.709L448.744 23.0119L446.236 29.3976H445.451L442.944 23.0119L442.979 29.3976H441.819Z" fill="white"/>
<path d="M423.06 72.621H428.415V69.0357H433.746V65.4503H439.101H444.444H447.115H449.798V35.7832H428.403V38.4898H423.06V42.0986V42.1103H417.706V46.6096H412.351V51.9994H406.997V58.2796H401.654V65.4503H396.299V112.06H401.654V119.231H406.997V125.499H412.351V125.511V130.901H417.706V135.4H423.06V138.985H428.403V141.692H449.798V112.06H433.746V108.475H428.415V104.889H423.06V101.304H449.798V76.2064H423.06V72.621Z" fill="#EEC21A"/>
<path d="M365.531 14.3883V108.475H360.176V112.06H346.795V108.475H341.441V101.304H336.11V76.2064H341.441V69.0357H346.795V65.4503H360.176V35.7832H341.441V38.4898H336.086V42.0986L330.755 42.1103V46.6096H325.4V51.9994H320.046V58.2796H314.691V65.4503H309.348V112.06H314.691V119.231H320.046V125.499H325.4V130.901H330.755V135.4H336.086V138.985H341.441V141.692H365.531V138.985H370.885V135.4H376.24V130.901H381.595V125.511V125.499H386.926V119.231H392.28V14.3883H365.531Z" fill="#EEC21A"/>
<path d="M299.986 58.2796V51.9994H294.632V46.6096H289.301V42.1103L283.946 42.0986V38.4898H278.591V35.7832H273.237H270.565H265.211H259.856H254.502V38.4898H249.147V42.0986L243.792 42.1103V46.6096H238.461V51.9994H233.107V58.2796H227.752V65.4503H222.397V90.5478V97.7185V104.889V112.06H227.752V119.231H233.107V125.487H238.461V130.889H243.792V135.388H249.147V138.997H254.502V141.704H273.237V112.06H259.856V108.475H254.502V101.304H249.147V76.2064H254.502V69.0357H259.856V65.4503H273.237V69.0357H278.591V141.715H305.341V58.2796H299.986Z" fill="#EEC21A"/>
<path d="M196.984 35.7832V38.4898H191.641V42.0986L186.286 42.1103V46.6096H180.932V51.9994H175.589V58.2796H170.246V65.4503H164.891V112.06H170.246V119.231H175.589V125.499L180.932 125.511V130.901H186.286V135.4H191.641V138.985H196.984V141.692H218.391V112.06H202.327V108.475H196.996V101.304H191.641V76.2064H196.996V69.0357H202.327V65.4503H218.391V35.7832H196.984Z" fill="#EEC21A"/>
<path d="M145.64 94.9768H152.846V89.4347H152.858H158.189V82.4163H160.861V58.2796H158.189V51.9994H152.835V46.6096H147.515V42.1103L142.16 42.0986V38.4898H136.806V35.7832H118.071V38.4898H112.716V42.1103H107.361V46.6096H102.007V51.9994H96.6756V58.2796H91.321V141.715H118.071V65.4503H134.134V79.7917H128.78V83.3771H123.425V105.428L139.208 141.739H165.957L145.64 94.9768Z" fill="#EEC21A"/>
<path d="M81.9594 58.2796V51.9994H76.6048V46.6096L71.2502 46.5979V42.0986H65.8956V38.4898H60.541V35.7832H36.4745V38.4898H31.1199V42.0986L25.7653 42.1103V46.6096H20.4107V51.9994H15.0561V58.2796H9.70153V65.4503H4.35864V112.072H9.71324V119.242H15.0678V125.499H20.4224V130.901H25.7771V135.4H31.1317V139.009H36.4863V141.715H55.1864V112.072H41.8291V108.486H36.4745V101.316H31.1199V76.2064H36.4745V69.0357H41.8291V65.4503H55.1864V69.0357H60.541V141.692H87.3022V58.2679H81.9594V58.2796Z" fill="#EEC21A"/>
<path d="M86.9976 12.5956H91.1336C93.8168 12.5956 94.3206 14.3297 94.3206 15.5014C94.3206 16.6614 93.805 18.3955 91.1336 18.372H88.6379V21.9691H86.9976V12.5956ZM88.6379 17.0363H91.0399C91.778 17.0363 92.6802 16.6731 92.6802 15.4897C92.6802 14.2594 91.9304 13.943 91.0633 13.943H88.6379V17.0363Z" fill="white"/>
<path d="M95.5391 15.185H96.9451V16.4973H96.9685C97.1443 15.7709 98.0348 14.9976 98.9487 14.9976C99.2885 14.9976 99.3822 15.021 99.5111 15.0327V16.4739C99.3002 16.4504 99.0776 16.4036 98.8666 16.4036C97.8473 16.4036 97.0271 17.2355 97.0271 18.7235V21.9574H95.5273V15.185H95.5391Z" fill="white"/>
<path d="M99.6167 18.5712C99.6167 16.4973 100.859 14.9976 103.05 14.9976C105.241 14.9976 106.483 16.4973 106.483 18.5712C106.483 20.6568 105.241 22.1566 103.05 22.1566C100.859 22.1566 99.6167 20.6685 99.6167 18.5712ZM104.971 18.5712C104.971 17.3995 104.385 16.181 103.038 16.181C101.691 16.181 101.116 17.4112 101.116 18.5712C101.116 19.7546 101.702 20.9732 103.05 20.9732C104.397 20.9732 104.971 19.7546 104.971 18.5712Z" fill="white"/>
<path d="M107.045 15.185H108.158V14.6226C108.158 12.8885 109.06 12.5956 110.033 12.5956C110.502 12.5956 110.841 12.619 111.087 12.6893V13.861C110.888 13.8142 110.689 13.779 110.396 13.779C109.986 13.779 109.658 13.9196 109.658 14.4937V15.185H110.935V16.2981H109.658V21.9691H108.158V16.2981H107.045V15.185Z" fill="white"/>
<path d="M113.021 18.9696C113.021 20.0358 113.595 20.9732 114.849 20.9732C115.716 20.9732 116.243 20.5982 116.501 19.8483H117.918C117.59 21.3364 116.325 22.1566 114.849 22.1566C112.716 22.1566 111.521 20.6685 111.521 18.5829C111.521 16.6496 112.786 14.9976 114.802 14.9976C116.946 14.9976 118.258 16.9308 118 18.9579H113.021V18.9696ZM116.512 17.9854C116.466 17.0363 115.821 16.181 114.802 16.181C113.759 16.181 113.056 16.966 113.021 17.9854H116.512Z" fill="white"/>
<path d="M120.285 19.8015C120.367 20.6685 121.023 20.9849 121.82 20.9849C122.382 20.9849 123.367 20.8677 123.332 20.0944C123.296 19.3094 122.207 19.2156 121.117 18.9696C120.016 18.7352 118.938 18.3369 118.938 16.966C118.938 15.478 120.543 15.021 121.773 15.021C123.168 15.021 124.421 15.5951 124.609 17.1066H123.05C122.921 16.3919 122.324 16.2044 121.668 16.2044C121.234 16.2044 120.437 16.3099 120.437 16.8957C120.437 17.6339 121.539 17.7393 122.64 17.9854C123.73 18.2314 124.831 18.6298 124.831 19.9655C124.831 21.5824 123.203 22.1683 121.797 22.1683C120.086 22.1683 118.821 21.4067 118.785 19.8015H120.285Z" fill="white"/>
<path d="M127.104 19.8015C127.186 20.6685 127.842 20.9849 128.639 20.9849C129.202 20.9849 130.186 20.8677 130.151 20.0944C130.115 19.3094 129.026 19.2156 127.936 18.9696C126.835 18.7352 125.757 18.3369 125.757 16.966C125.757 15.478 127.362 15.021 128.592 15.021C129.987 15.021 131.24 15.5951 131.428 17.1066H129.869C129.741 16.3919 129.143 16.2044 128.487 16.2044C128.053 16.2044 127.257 16.3099 127.257 16.8957C127.257 17.6339 128.358 17.7393 129.459 17.9854C130.549 18.2314 131.65 18.6298 131.65 19.9655C131.65 21.5824 130.022 22.1683 128.616 22.1683C126.905 22.1683 125.64 21.4067 125.604 19.8015H127.104Z" fill="white"/>
<path d="M132.822 12.5956H134.322V14.0134H132.822V12.5956ZM132.822 15.185H134.322V21.9691H132.822V15.185Z" fill="white"/>
<path d="M135.634 18.5712C135.634 16.4973 136.876 14.9976 139.067 14.9976C141.258 14.9976 142.5 16.4973 142.5 18.5712C142.5 20.6568 141.258 22.1566 139.067 22.1566C136.876 22.1566 135.634 20.6685 135.634 18.5712ZM140.989 18.5712C140.989 17.3995 140.403 16.181 139.056 16.181C137.708 16.181 137.122 17.3995 137.122 18.5712C137.122 19.7546 137.708 20.9732 139.056 20.9732C140.403 20.9732 140.989 19.7546 140.989 18.5712Z" fill="white"/>
<path d="M143.73 15.185H145.148V16.181L145.172 16.2044C145.617 15.4545 146.39 14.9976 147.281 14.9976C148.757 14.9976 149.683 15.7826 149.683 17.3058V21.9691H148.183V17.7042C148.159 16.6379 147.738 16.181 146.859 16.181C145.863 16.181 145.219 16.966 145.219 17.9619V21.9691H143.719V15.185H143.73Z" fill="white"/>
<path d="M156.959 20.4693C156.959 20.8326 157.041 20.9849 157.31 20.9849C157.404 20.9849 157.521 20.9849 157.674 20.9614V22.0042C157.451 22.0863 156.982 22.18 156.725 22.18C156.115 22.18 155.682 21.9691 155.565 21.3481C154.979 21.9222 154.018 22.18 153.21 22.18C151.991 22.18 150.89 21.5239 150.89 20.1998C150.89 18.5009 152.237 18.2314 153.502 18.0908C154.58 17.8916 155.541 18.0088 155.541 17.13C155.541 16.3567 154.744 16.2161 154.135 16.2161C153.292 16.2161 152.706 16.5559 152.635 17.2941H151.136C151.241 15.5483 152.729 15.0327 154.217 15.0327C155.541 15.0327 156.936 15.5717 156.936 17.0011V20.4693H156.959ZM155.459 18.5712C155.002 18.8758 154.276 18.8641 153.62 18.9813C152.975 19.0867 152.401 19.3211 152.401 20.1061C152.401 20.774 153.256 20.9732 153.784 20.9732C154.44 20.9732 155.459 20.6334 155.459 19.6843V18.5712Z" fill="white"/>
<path d="M158.611 12.5956H160.111V21.9691H158.611V12.5956Z" fill="white"/>
<path d="M24.2655 20.1764L28.3899 18.4892C35.8418 15.1382 36.7674 8.56501 34.4006 5.99902C32.3502 3.23384 25.9645 3.39787 22.2151 4.19462C9.7718 6.83091 0.749821 20.8326 0.0233765 30.3232C-0.105509 31.9987 0.128828 37.7165 4.66325 39.1929C8.50638 40.4466 13.6149 37.9743 16.9074 30.1943C19.7194 23.5509 19.8952 13.0994 24.9803 9.59609C25.4255 9.29145 25.1209 8.60016 24.5936 8.72904C18.3368 10.2288 16.7082 19.1688 15.4896 22.7541C13.0994 29.8194 10.7443 41.3839 4.85072 36.5917C1.86292 34.1663 3.87822 27.0894 6.79572 20.5865C9.43201 14.7046 14.5874 8.51814 20.0123 6.46769C28.2844 3.33929 31.2957 5.7764 31.2488 9.09226C31.2136 11.4708 30.9442 14.4469 22.5666 19.3679C21.266 20.1413 21.2192 22.016 22.4963 22.8244C23.6914 23.586 24.8514 24.4765 25.1326 25.2029C25.8825 27.1011 23.9023 31.3894 21.4535 32.3619C21.2074 32.4557 20.9614 32.2448 20.9965 31.987C21.1254 31.2606 21.0903 30.042 19.4499 30.0303C18.0908 30.0186 17.1651 31.4949 17.4112 32.5494C17.6924 33.8617 19.3328 34.6467 20.3873 34.7287C24.3124 35.0568 29.1398 29.878 28.6359 26.2457C28.2376 23.3985 26.4097 22.8244 24.1835 21.559C23.6211 21.2426 23.668 20.4225 24.2655 20.1764Z" fill="#EF0028"/>
<path d="M73.5701 12.7362C72.9257 14.5757 71.1799 19.1805 69.0826 21.6879C68.6725 22.1917 67.8523 21.8753 67.8874 21.2192C67.9109 20.7388 68.0046 20.1295 68.2272 19.4382C68.2272 19.4382 69.5864 14.9741 70.1488 13.158C70.7229 11.295 68.0866 11.3185 67.325 13.24C66.458 15.4194 63.9154 24.4999 59.9786 24.9803C59.9786 24.9803 57.0728 24.8046 59.3459 21.7582C61.6541 18.6532 63.4936 15.6303 64.8059 12.2441C67.3485 5.65922 65.3683 3.53847 64.8176 3.45646C64.8176 3.45646 61.3143 1.52317 55.9597 15.3725C55.9597 15.3725 54.4716 20.153 54.9169 23.1056C55.3621 26.0583 51.683 26.9839 51.683 26.9839C49.3514 27.4877 47.7227 25.5193 49.4217 22.8947C50.3707 21.4301 52.304 19.2391 55.7839 11.2013C60.1309 1.06622 56.7096 0.0702851 56.7096 0.0702851C56.7096 0.0702851 52.8664 -1.41775 48.0391 9.42033C45.5903 14.8921 45.0513 19.7546 45.2739 24.8983C45.3794 27.312 42.4267 28.5657 42.4267 28.5657C41.4425 29.3038 40.1068 28.2962 40.552 27.1479C41.7003 24.1719 42.9305 21.2778 41.5948 20.938C40.9855 20.7857 40.4349 21.102 40.0365 21.4418C39.685 21.7582 39.4038 22.1566 39.228 22.6018C37.2127 27.476 35.7833 30.6278 34.0023 29.7256C31.7058 28.5774 36.6152 18.6181 39.0874 18.7235C40.0013 19.0399 39.931 19.532 41.1027 19.5437C41.8292 19.5554 42.497 19.0399 42.5908 18.3134C42.6962 17.5167 42.1221 16.7902 41.3136 16.7082C39.9662 16.5793 32.0925 16.9543 30.4872 28.4368C30.4872 28.4368 30.0537 32.069 32.854 32.3385C35.6544 32.6197 36.1934 30.0303 37.4353 30.1474C38.6773 30.2646 37.986 30.909 40.0599 31.1199C42.0986 31.3191 43.6921 29.7374 44.8052 28.7531C45.3559 28.261 46.1644 28.1907 46.7971 28.5774C47.4181 28.9523 48.332 29.4093 49.2694 29.503C51.7299 29.7491 54.6122 26.7027 55.1981 26.5621C55.9362 26.3863 57.1665 27.5815 58.3734 27.7103C58.3734 27.7103 61.2557 27.7221 62.7789 25.4256C64.2904 23.1173 64.759 25.7653 66.1065 25.8942C67.243 26.0114 68.649 25.2732 69.5395 24.7225C69.8442 24.5351 70.2074 24.8163 70.1136 25.1561L67.6297 33.6039C67.4539 34.2132 67.3719 34.8459 67.3836 35.4903L70.2542 34.9982C70.2542 34.9982 75.5737 17.6456 77.3898 11.7637C78.1163 9.33832 74.5075 10.0765 73.5701 12.7362ZM48.4375 19.2742C48.7304 16.9777 49.3514 13.0643 50.5231 10.2405C51.976 6.76061 54.5302 1.1951 56.2057 1.9567C57.8812 2.70658 53.921 11.0724 53.921 11.0724C52.0814 15.2553 50.4059 18.0557 49.3514 19.6257C49.0702 20.071 48.3789 19.8132 48.4375 19.2742ZM58.0336 18.9813C58.4319 17.0129 59.0061 14.4937 59.7325 12.5956C60.8573 9.65467 62.65 5.0148 64.056 5.63579C65.4621 6.2685 62.1462 13.24 62.1462 13.24C60.9511 15.8529 59.8848 17.9151 59.0764 19.3679C58.7834 19.9304 57.9047 19.6257 58.0336 18.9813Z" fill="#EF0028"/>
<path d="M77.1669 24.0432C78.2863 23.9218 79.0954 22.9159 78.974 21.7965C78.8527 20.6771 77.8468 19.868 76.7274 19.9894C75.6079 20.1107 74.7988 21.1166 74.9202 22.236C75.0416 23.3555 76.0475 24.1646 77.1669 24.0432Z" stroke="#EF0028" stroke-width="0.358465" stroke-miterlimit="10.0006"/>
<path d="M77.5305 23.1994L76.9447 22.3675H76.4174V23.1994H75.9956V20.8209H77.0618C77.6125 20.8209 77.9523 21.1138 77.9523 21.5825C77.9523 21.9808 77.718 22.2152 77.3782 22.3089L78.0226 23.2111H77.5305V23.1994ZM77.0267 21.1958H76.4174V21.9925H77.0267C77.3313 21.9925 77.5188 21.8402 77.5188 21.5942C77.5188 21.3364 77.3313 21.1958 77.0267 21.1958Z" fill="#EF0028"/>
</g>
<defs>
<clipPath id="clip0_2_35">
<rect width="449.81" height="141.727" fill="white"/>
</clipPath>
</defs>
</svg>
