<svg width="451" height="142" viewBox="0 0 451 142" fill="none" xmlns="http://www.w3.org/2000/svg">
<g clip-path="url(#clip0_3_98)">
<path d="M438.463 22.9465H436.729V21.8802H441.416V22.9465H439.682V29.4611H438.475L438.463 22.9465Z" fill="white"/>
<path d="M442.224 29.4611V21.8802H443.888L446.243 27.7504L448.575 21.8802H450.227V29.4611H449.114L449.149 23.0754L446.641 29.4611H445.856L443.349 23.0754L443.384 29.4611H442.224Z" fill="white"/>
<path d="M423.465 72.6845H428.82V69.0992H434.151V65.5138H439.506H444.849H447.52H450.203V35.8467H428.808V38.5533H423.465V42.1621V42.1738H418.111V46.6731H412.756V52.0629H407.402V58.3431H402.059V65.5138H396.704V112.123H402.059V119.294H407.402V125.563H412.756V125.574V130.964H418.111V135.463H423.465V139.049H428.808V141.755H450.203V112.123H434.151V108.538H428.82V104.953H423.465V101.367H450.203V76.2699H423.465V72.6845Z" fill="white"/>
<path d="M365.936 14.4518V108.538H360.581V112.123H347.2V108.538H341.846V101.367H336.515V76.2699H341.846V69.0992H347.2V65.5138H360.581V35.8467H341.846V38.5533H336.491V42.1621L331.16 42.1738V46.6731H325.806V52.0629H320.451V58.3431H315.096V65.5138H309.753V112.123H315.096V119.294H320.451V125.563H325.806V130.964H331.16V135.463H336.491V139.049H341.846V141.755H365.936V139.049H371.29V135.463H376.645V130.964H382V125.574V125.563H387.331V119.294H392.685V14.4518H365.936Z" fill="white"/>
<path d="M300.392 58.3431V52.0629H295.037V46.6731H289.706V42.1738L284.351 42.1621V38.5533H278.997V35.8467H273.642H270.97H265.616H260.261H254.907V38.5533H249.552V42.1621L244.197 42.1738V46.6731H238.866V52.0629H233.512V58.3431H228.157V65.5138H222.802V90.6113V97.782V104.953V112.123H228.157V119.294H233.512V125.551H238.866V130.952H244.197V135.452H249.552V139.061H254.907V141.767H273.642V112.123H260.261V108.538H254.907V101.367H249.552V76.2699H254.907V69.0992H260.261V65.5138H273.642V69.0992H278.997V141.779H305.746V58.3431H300.392Z" fill="white"/>
<path d="M197.389 35.8467V38.5533H192.046V42.1621L186.691 42.1738V46.6731H181.337V52.0629H175.994V58.3431H170.651V65.5138H165.296V112.123H170.651V119.294H175.994V125.563L181.337 125.574V130.964H186.691V135.463H192.046V139.049H197.389V141.755H218.796V112.123H202.732V108.538H197.401V101.367H192.046V76.2699H197.401V69.0992H202.732V65.5138H218.796V35.8467H197.389Z" fill="white"/>
<path d="M146.045 95.0403H153.251V89.4982H153.263H158.594V82.4798H161.266V58.3431H158.594V52.0629H153.24V46.6731H147.92V42.1738L142.566 42.1621V38.5533H137.211V35.8467H118.476V38.5533H113.121V42.1738H107.766V46.6731H102.412V52.0629H97.0807V58.3431H91.7261V141.779H118.476V65.5138H134.539V79.8552H129.185V83.4406H123.83V105.492L139.613 141.802H166.362L146.045 95.0403Z" fill="white"/>
<path d="M82.3644 58.3431V52.0629H77.0098V46.6731L71.6552 46.6614V42.1621H66.3006V38.5533H60.946V35.8467H36.8796V38.5533H31.525V42.1621L26.1704 42.1738V46.6731H20.8158V52.0629H15.4612V58.3431H10.1066V65.5138H4.76367V112.135H10.1183V119.306H15.4729V125.563H20.8275V130.964H26.1821V135.463H31.5367V139.072H36.8913V141.779H55.5914V112.135H42.2342V108.55H36.8796V101.379H31.525V76.2699H36.8796V69.0992H42.2342V65.5138H55.5914V69.0992H60.946V141.755H87.7073V58.3314H82.3644V58.3431Z" fill="white"/>
<path d="M87.4026 12.6591H91.5386C94.2218 12.6591 94.7256 14.3932 94.7256 15.5649C94.7256 16.7248 94.2101 18.4589 91.5386 18.4355H89.0429V22.0326H87.4026V12.6591ZM89.0429 17.0998H91.4449C92.1831 17.0998 93.0853 16.7366 93.0853 15.5532C93.0853 14.3229 92.3354 14.0065 91.4683 14.0065H89.0429V17.0998Z" fill="white"/>
<path d="M95.9441 15.2485H97.3501V16.5608H97.3735C97.5493 15.8343 98.4398 15.061 99.3537 15.061C99.6935 15.061 99.7872 15.0845 99.9161 15.0962V16.5374C99.7052 16.5139 99.4826 16.4671 99.2717 16.4671C98.2523 16.4671 97.4321 17.299 97.4321 18.787V22.0208H95.9324V15.2485H95.9441Z" fill="white"/>
<path d="M100.022 18.6347C100.022 16.5608 101.264 15.061 103.455 15.061C105.646 15.061 106.888 16.5608 106.888 18.6347C106.888 20.7203 105.646 22.22 103.455 22.22C101.264 22.22 100.022 20.732 100.022 18.6347ZM105.376 18.6347C105.376 17.463 104.79 16.2444 103.443 16.2444C102.096 16.2444 101.521 17.4747 101.521 18.6347C101.521 19.8181 102.107 21.0366 103.455 21.0366C104.802 21.0366 105.376 19.8181 105.376 18.6347Z" fill="white"/>
<path d="M107.45 15.2485H108.563V14.6861C108.563 12.952 109.465 12.6591 110.438 12.6591C110.907 12.6591 111.246 12.6825 111.493 12.7528V13.9245C111.293 13.8776 111.094 13.8425 110.801 13.8425C110.391 13.8425 110.063 13.9831 110.063 14.5572V15.2485H111.34V16.3616H110.063V22.0326H108.563V16.3616H107.45V15.2485Z" fill="white"/>
<path d="M113.426 19.033C113.426 20.0993 114 21.0366 115.254 21.0366C116.121 21.0366 116.648 20.6617 116.906 19.9118H118.323C117.995 21.3999 116.73 22.22 115.254 22.22C113.121 22.22 111.926 20.732 111.926 18.6464C111.926 16.7131 113.191 15.061 115.207 15.061C117.351 15.061 118.663 16.9943 118.405 19.0213H113.426V19.033ZM116.917 18.0488C116.871 17.0998 116.226 16.2444 115.207 16.2444C114.164 16.2444 113.461 17.0295 113.426 18.0488H116.917Z" fill="white"/>
<path d="M120.69 19.8649C120.772 20.732 121.428 21.0484 122.225 21.0484C122.787 21.0484 123.772 20.9312 123.737 20.1579C123.701 19.3728 122.612 19.2791 121.522 19.0331C120.421 18.7987 119.343 18.4003 119.343 17.0295C119.343 15.5414 120.948 15.0845 122.178 15.0845C123.573 15.0845 124.826 15.6586 125.014 17.1701H123.455C123.326 16.4553 122.729 16.2679 122.073 16.2679C121.639 16.2679 120.843 16.3733 120.843 16.9592C120.843 17.6973 121.944 17.8028 123.045 18.0488C124.135 18.2949 125.236 18.6933 125.236 20.029C125.236 21.6459 123.608 22.2318 122.202 22.2318C120.491 22.2318 119.226 21.4702 119.19 19.8649H120.69Z" fill="white"/>
<path d="M127.509 19.8649C127.591 20.732 128.247 21.0484 129.044 21.0484C129.607 21.0484 130.591 20.9312 130.556 20.1579C130.521 19.3728 129.431 19.2791 128.341 19.0331C127.24 18.7987 126.162 18.4003 126.162 17.0295C126.162 15.5414 127.767 15.0845 128.997 15.0845C130.392 15.0845 131.645 15.6586 131.833 17.1701H130.274C130.146 16.4553 129.548 16.2679 128.892 16.2679C128.458 16.2679 127.662 16.3733 127.662 16.9592C127.662 17.6973 128.763 17.8028 129.864 18.0488C130.954 18.2949 132.055 18.6933 132.055 20.029C132.055 21.6459 130.427 22.2318 129.021 22.2318C127.31 22.2318 126.045 21.4702 126.01 19.8649H127.509Z" fill="white"/>
<path d="M133.227 12.6591H134.727V14.0768H133.227V12.6591ZM133.227 15.2485H134.727V22.0326H133.227V15.2485Z" fill="white"/>
<path d="M136.039 18.6347C136.039 16.5608 137.281 15.061 139.472 15.061C141.663 15.061 142.905 16.5608 142.905 18.6347C142.905 20.7203 141.663 22.22 139.472 22.22C137.281 22.22 136.039 20.732 136.039 18.6347ZM141.394 18.6347C141.394 17.463 140.808 16.2444 139.461 16.2444C138.113 16.2444 137.527 17.463 137.527 18.6347C137.527 19.8181 138.113 21.0366 139.461 21.0366C140.808 21.0366 141.394 19.8181 141.394 18.6347Z" fill="white"/>
<path d="M144.135 15.2485H145.553V16.2444L145.577 16.2679C146.022 15.518 146.795 15.061 147.686 15.061C149.162 15.061 150.088 15.8461 150.088 17.3693V22.0326H148.588V17.7676C148.564 16.7014 148.143 16.2444 147.264 16.2444C146.268 16.2444 145.624 17.0295 145.624 18.0254V22.0326H144.124V15.2485H144.135Z" fill="white"/>
<path d="M157.364 20.5328C157.364 20.896 157.446 21.0484 157.716 21.0484C157.809 21.0484 157.926 21.0484 158.079 21.0249V22.0677C157.856 22.1497 157.387 22.2435 157.13 22.2435C156.52 22.2435 156.087 22.0326 155.97 21.4116C155.384 21.9857 154.423 22.2435 153.615 22.2435C152.396 22.2435 151.295 21.5873 151.295 20.2633C151.295 18.5644 152.642 18.2949 153.908 18.1543C154.985 17.9551 155.946 18.0723 155.946 17.1935C155.946 16.4202 155.15 16.2796 154.54 16.2796C153.697 16.2796 153.111 16.6194 153.04 17.3575H151.541C151.646 15.6117 153.134 15.0962 154.622 15.0962C155.946 15.0962 157.341 15.6352 157.341 17.0646V20.5328H157.364ZM155.864 18.6347C155.407 18.9393 154.681 18.9276 154.025 19.0448C153.38 19.1502 152.806 19.3846 152.806 20.1696C152.806 20.8375 153.661 21.0366 154.189 21.0366C154.845 21.0366 155.864 20.6968 155.864 19.7478V18.6347Z" fill="white"/>
<path d="M159.016 12.6591H160.516V22.0326H159.016V12.6591Z" fill="white"/>
<path d="M24.6706 20.2399L28.7949 18.5527C36.2468 15.2017 37.1725 8.6285 34.8057 6.06251C32.7552 3.29733 26.3695 3.46137 22.6201 4.25811C10.1768 6.8944 1.15485 20.896 0.428406 30.3867C0.29952 32.0622 0.533857 37.78 5.06828 39.2564C8.91141 40.5101 14.02 38.0378 17.3124 30.2578C20.1244 23.6144 20.3002 13.1629 25.3853 9.65958C25.8305 9.35494 25.5259 8.66365 24.9986 8.79253C18.7418 10.2923 17.1132 19.2323 15.8947 22.8176C13.5044 29.8829 11.1493 41.4474 5.25575 36.6552C2.26795 34.2298 4.28325 27.1528 7.20075 20.65C9.83704 14.7681 14.9925 8.58163 20.4174 6.53118C28.6895 3.40278 31.7007 5.83989 31.6538 9.15576C31.6187 11.5343 31.3492 14.5104 22.9716 19.4314C21.6711 20.2048 21.6242 22.0794 22.9013 22.8879C24.0964 23.6495 25.2564 24.54 25.5376 25.2664C26.2875 27.1646 24.3074 31.4529 21.8585 32.4254C21.6125 32.5192 21.3664 32.3083 21.4016 32.0505C21.5305 31.324 21.4953 30.1055 19.8549 30.0938C18.4958 30.0821 17.5702 31.5584 17.8162 32.6129C18.0974 33.9252 19.7378 34.7102 20.7923 34.7922C24.7174 35.1203 29.5448 29.9415 29.041 26.3092C28.6426 23.462 26.8148 22.8879 24.5886 21.6225C24.0261 21.3061 24.073 20.486 24.6706 20.2399Z" fill="white"/>
<path d="M73.9751 12.7997C73.3307 14.6392 71.5849 19.244 69.4876 21.7514C69.0775 22.2552 68.2573 21.9388 68.2925 21.2827C68.3159 20.8023 68.4096 20.193 68.6323 19.5017C68.6323 19.5017 69.9914 15.0376 70.5538 13.2215C71.1279 11.3585 68.4917 11.382 67.7301 13.3035C66.863 15.4829 64.3205 24.5634 60.3836 25.0438C60.3836 25.0438 57.4778 24.8681 59.7509 21.8217C62.0591 18.7167 63.8986 15.6938 65.2109 12.3076C67.7535 5.72272 65.7733 3.60197 65.2227 3.51995C65.2227 3.51995 61.7193 1.58667 56.3647 15.436C56.3647 15.436 54.8767 20.2165 55.3219 23.1691C55.7672 26.1218 52.0881 27.0474 52.0881 27.0474C49.7564 27.5512 48.1278 25.5828 49.8267 22.9582C50.7758 21.4936 52.7091 19.3025 56.189 11.2648C60.5359 1.12971 57.1146 0.133777 57.1146 0.133777C57.1146 0.133777 53.2715 -1.35426 48.4441 9.48383C45.9953 14.9556 45.4563 19.8181 45.6789 24.9618C45.7844 27.3755 42.8317 28.6292 42.8317 28.6292C41.8475 29.3673 40.5118 28.3597 40.9571 27.2114C42.1053 24.2353 43.3356 21.3413 41.9998 21.0015C41.3906 20.8492 40.8399 21.1655 40.4415 21.5053C40.09 21.8217 39.8088 22.22 39.633 22.6653C37.6177 27.5395 36.1883 30.6913 34.4073 29.7891C32.1108 28.6409 37.0202 18.6816 39.4924 18.787C40.4064 19.1034 40.3361 19.5955 41.5077 19.6072C42.2342 19.6189 42.902 19.1034 42.9958 18.3769C43.1012 17.5802 42.5271 16.8537 41.7186 16.7717C40.3712 16.6428 32.4975 17.0178 30.8923 28.5003C30.8923 28.5003 30.4587 32.1325 33.2591 32.402C36.0594 32.6832 36.5984 30.0938 37.8404 30.2109C39.0824 30.3281 38.3911 30.9725 40.4649 31.1834C42.5037 31.3826 44.0972 29.8008 45.2103 28.8166C45.761 28.3245 46.5694 28.2542 47.2021 28.6409C47.8231 29.0158 48.737 29.4728 49.6744 29.5665C52.1349 29.8126 55.0173 26.7662 55.6031 26.6256C56.3413 26.4498 57.5715 27.6449 58.7784 27.7738C58.7784 27.7738 61.6607 27.7855 63.1839 25.489C64.6954 23.1808 65.1641 25.8288 66.5115 25.9577C67.648 26.0749 69.0541 25.3367 69.9445 24.786C70.2492 24.5986 70.6124 24.8798 70.5187 25.2196L68.0347 33.6674C67.8589 34.2767 67.7769 34.9094 67.7886 35.5538L70.6593 35.0617C70.6593 35.0617 75.9787 17.7091 77.7948 11.8272C78.5213 9.40181 74.9125 10.14 73.9751 12.7997ZM48.8425 19.3377C49.1354 17.0412 49.7564 13.1278 50.9281 10.304C52.381 6.8241 54.9353 1.25859 56.6108 2.02019C58.2863 2.77007 54.326 11.1359 54.326 11.1359C52.4864 15.3188 50.8109 18.1191 49.7564 19.6892C49.4752 20.1344 48.7839 19.8767 48.8425 19.3377ZM58.4386 19.0448C58.837 17.0763 59.4111 14.5572 60.1375 12.6591C61.2624 9.71816 63.055 5.07829 64.4611 5.69928C65.8671 6.33199 62.5512 13.3035 62.5512 13.3035C61.3561 15.9164 60.2899 17.9785 59.4814 19.4314C59.1885 19.9938 58.3097 19.6892 58.4386 19.0448Z" fill="white"/>
<path d="M77.5719 24.1067C78.6914 23.9853 79.5004 22.9794 79.3791 21.86C79.2577 20.7405 78.2518 19.9315 77.1324 20.0528C76.0129 20.1742 75.2039 21.1801 75.3252 22.2995C75.4466 23.419 76.4525 24.228 77.5719 24.1067Z" stroke="white" stroke-width="0.358465" stroke-miterlimit="10.0006"/>
<path d="M77.9355 23.2628L77.3497 22.4309H76.8224V23.2628H76.4006V20.8843H77.4669C78.0176 20.8843 78.3574 21.1772 78.3574 21.6459C78.3574 22.0443 78.123 22.2786 77.7832 22.3724L78.4277 23.2746H77.9355V23.2628ZM77.4317 21.2593H76.8224V22.056H77.4317C77.7364 22.056 77.9238 21.9037 77.9238 21.6576C77.9238 21.3999 77.7364 21.2593 77.4317 21.2593Z" fill="white"/>
</g>
<defs>
<clipPath id="clip0_3_98">
<rect width="449.81" height="141.727" fill="white" transform="translate(0.405029 0.0634766)"/>
</clipPath>
</defs>
</svg>
