<svg width="485" height="219" viewBox="0 0 485 219" fill="none" xmlns="http://www.w3.org/2000/svg">
<path d="M24.4584 46.0684C9.79675 46.0634 0 35.6732 0 23.0752C0 10.4773 9.8191 -0.0322089 24.436 7.41949e-05H162.564C177.181 -0.0322125 187 10.4773 187 23.0752C187 35.6732 177.203 46.0634 162.542 46.0684H24.4584Z" fill="#E60012"/>
<path d="M24.503 5.66699C12.8959 5.68934 5.77124 13.4473 5.77124 23.0454C5.77124 32.641 12.8512 40.4635 24.503 40.4212H162.497C174.149 40.461 181.231 32.641 181.231 23.0454C181.231 13.4498 174.107 5.69182 162.499 5.66947L24.503 5.66699Z" fill="white"/>
<path fill-rule="evenodd" clip-rule="evenodd" d="M166.5 15.6599C166.5 13.8172 167.995 12.3223 169.838 12.3223C171.68 12.3223 173.175 13.8172 173.175 15.6599C173.175 17.5025 171.68 18.9975 169.838 18.9975C167.995 18.9975 166.5 17.5025 166.5 15.6599ZM169.837 18.3618C171.327 18.3618 172.537 17.1524 172.537 15.6624C172.537 14.1699 171.327 12.963 169.837 12.963C168.347 12.963 167.138 14.1724 167.138 15.6624C167.138 17.1524 168.347 18.3618 169.837 18.3618Z" fill="#E60012"/>
<path fill-rule="evenodd" clip-rule="evenodd" d="M171.499 14.8329C171.499 14.1252 170.975 13.7676 169.92 13.7676H168.469V17.4653H169.371V15.9504H169.81L170.518 17.4653H171.519L170.692 15.8138C171.196 15.6872 171.499 15.3197 171.499 14.8329ZM169.811 15.4092H169.371V14.334H169.766C170.307 14.334 170.573 14.5003 170.573 14.8853C170.573 15.2528 170.325 15.4092 169.811 15.4092Z" fill="#E60012"/>
<path fill-rule="evenodd" clip-rule="evenodd" d="M99.3607 29.6684C99.3607 28.8589 99.3558 28.7943 99.3558 28.7943L105.852 28.7893C104.717 32.1939 101 34.7046 96.5993 34.7046C91.2949 34.7046 86.9962 31.0814 86.9962 26.6089C86.9962 22.1364 91.2949 18.5107 96.5993 18.5107C101.904 18.5107 106.222 22.2159 106.222 26.6884C106.222 26.6959 93.9371 26.6909 93.9371 26.6909C93.9371 26.6909 93.9322 28.8787 93.9322 29.6684C93.9322 32.3057 95.6978 32.8918 96.6613 32.8918C97.6249 32.8918 99.3607 32.3057 99.3607 29.6684ZM94.3692 21.6174C93.9545 22.3375 93.9272 23.1819 93.9371 24.4459L99.378 24.4484C99.388 23.1843 99.3706 22.34 98.9559 21.6174C98.447 20.7288 97.5115 20.3066 96.6625 20.3012C96.663 20.3012 96.6634 20.3012 96.6638 20.3012H96.6613C96.6617 20.3012 96.6621 20.3012 96.6625 20.3012C95.8136 20.3066 94.878 20.7288 94.3692 21.6174Z" fill="#E60012"/>
<path d="M119.875 18.7517C122.314 18.6821 127.261 20.2789 127.226 25.9881C127.221 27.0013 127.224 33.8354 127.224 33.8354H120.744C120.744 33.8354 120.744 25.2655 120.744 24.364C120.744 23.1074 119.543 21.7093 117.764 21.7093C115.989 21.7093 114.668 23.1074 114.668 24.364C114.668 24.9799 114.675 33.8354 114.675 33.8354H108.201L108.206 19.4147L114.678 19.4097C114.678 19.4097 114.67 20.5695 114.678 20.9271C115.924 19.7375 117.722 18.8137 119.875 18.7517L119.875 18.7517Z" fill="#E60012"/>
<path d="M66.876 18.7517C69.3146 18.6821 74.2614 20.2789 74.2267 25.9881C74.2217 27.0013 74.2241 33.8354 74.2241 33.8354H67.7451C67.7451 33.8354 67.7451 25.2655 67.7451 24.364C67.7451 23.1074 66.5432 21.7093 64.7651 21.7093C62.9895 21.7093 61.6684 23.1074 61.6684 24.364C61.6684 24.9799 61.6758 33.8354 61.6758 33.8354H55.2018L55.1992 19.4147L61.6782 19.4097C61.6782 19.4097 61.6708 20.5695 61.6782 20.9271C62.9249 19.7375 64.7203 18.8137 66.8759 18.7517L66.876 18.7517Z" fill="#E60012"/>
<path fill-rule="evenodd" clip-rule="evenodd" d="M147.719 12.1533H141.282H141.282C141.282 12.1533 141.282 16.7947 141.287 20.1323C140.244 19.5462 139.144 18.9825 137.597 18.8459C132.896 18.4337 129.305 22.5908 129.305 26.3977C129.305 31.4165 133.176 33.2741 133.765 33.5472C135.958 34.5704 138.774 34.5729 141.27 33.0059C141.27 33.14 141.272 33.8403 141.272 33.8403H147.719V12.1533ZM141.329 23.9791V26.5568H141.329C141.329 26.5568 141.332 28.1884 141.332 29.1147C141.332 31.3422 139.789 31.9258 138.774 31.9258C137.738 31.9258 136.218 31.3422 136.218 29.1147C136.218 28.3473 136.221 26.5494 136.221 26.5494C136.221 26.5494 136.218 24.7192 136.218 23.9791C136.218 21.7491 137.738 21.1804 138.776 21.1804C139.789 21.1804 141.329 21.7491 141.329 23.9791Z" fill="#E60012"/>
<path fill-rule="evenodd" clip-rule="evenodd" d="M149.842 26.532C149.842 22.0595 154.108 18.4338 159.373 18.4338C164.637 18.4338 168.904 22.0595 168.904 26.532C168.904 31.0045 164.637 34.6301 159.373 34.6301C154.111 34.6301 149.842 31.0045 149.842 26.532ZM161.99 29.5692C161.99 28.6951 161.993 26.5147 161.993 26.5147L161.995 26.5222C161.989 26.0518 161.99 24.8953 161.99 24.0094C161.99 23.8057 161.99 23.6162 161.99 23.4528C161.99 21.1631 160.627 20.2219 159.326 20.2219C158.027 20.2219 156.661 21.1631 156.661 23.4528C156.661 24.3269 156.656 26.4601 156.656 26.4601C156.656 26.4601 156.654 28.6951 156.654 29.5692C156.654 31.8688 158.017 32.8174 159.326 32.8174C160.632 32.8174 161.99 31.8688 161.99 29.5692Z" fill="#E60012"/>
<path d="M45.0725 16.5812V12.1484H51.6086V16.5812H45.0725Z" fill="#E60012"/>
<path d="M45.0874 33.8404V19.4172L51.6086 19.4198V33.8405L45.0874 33.8404Z" fill="#E60012"/>
<path d="M77.8054 33.8405L77.8079 19.4471H74.2617V17.3065L77.8104 17.3039L77.8054 14.3835H84.3316V17.3015H87.8629V19.4471H84.3316L84.3366 33.8405L77.8054 33.8405Z" fill="#E60012"/>
<path d="M18.5479 33.8403L18.5503 12.1533H25.3075L34.6548 27.2768L34.6498 12.1533H41.3548V33.8403H34.6597L25.2628 18.7168V33.8403H18.5479Z" fill="#E60012"/>
<path d="M418.322 63.7788H438.747L448.835 86.9821L463.964 63.7788H484.887L455.386 109.675L450.597 145.484H431.686L437.233 104.626L418.322 63.7788Z" fill="white"/>
<path d="M268.027 145.484L270.549 127.32H241.807L243.572 113.205H268.532L271.058 95.0495H246.346L248.113 81.934H276.853L279.629 63.7788H231.971L220.624 145.484H268.027Z" fill="white"/>
<path fill-rule="evenodd" clip-rule="evenodd" d="M108.662 121.269H91.5156L82.1877 145.477H63.0228L64.2825 141.693C60.5008 143.711 49.909 147.243 40.5785 146.738C24.4413 146.988 0.233284 134.379 3.25843 107.903C8.40008 62.9051 58.7354 59.2365 77.9012 65.7908L75.1251 83.1903C46.3789 73.8607 22.1709 90.7553 21.4153 108.91C20.6596 127.067 37.5534 128.579 39.8229 128.579C42.0924 128.579 47.8911 128.326 50.413 126.815L51.4228 121.268H37.0476L39.3188 105.129H72.0999L68.569 131.605L95.5514 63.7755H119.759L128.082 130.851L150.271 63.7755H169.687L176.244 106.894L193.138 63.7755H214.825L219.869 145.477H201.714L198.687 98.5745L180.532 145.477H164.141L157.079 101.096L142.705 145.477H111.69L108.662 121.269ZM104.627 88.2368L98.3233 105.13H106.646L104.627 88.2368Z" fill="white"/>
<path fill-rule="evenodd" clip-rule="evenodd" d="M359.564 100.597C365.868 70.0834 384.78 62.5184 397.894 63.0233C417.055 63.7806 431.432 79.1605 427.397 108.412C423.362 137.663 401.425 147.497 385.788 145.48C370.154 143.463 353.26 131.107 359.564 100.597ZM409.743 105.133C412.517 83.9537 401.171 80.4228 395.876 80.4228C390.325 80.1703 379.987 85.7183 377.214 105.133C374.44 124.551 384.273 127.826 389.066 128.331C393.857 128.837 406.968 126.315 409.743 105.133Z" fill="white"/>
<path fill-rule="evenodd" clip-rule="evenodd" d="M303.836 63.7815L292.489 145.482L328.548 145.481C344.939 145.481 354.269 134.388 356.036 123.038C357.8 111.691 353.514 105.638 349.225 101.858C349.588 101.595 349.971 101.353 350.368 101.103C353.01 99.4374 356.233 97.4061 357.548 86.224C359.06 73.3644 346.958 63.7815 338.634 63.7815H303.836ZM318.207 95.0496H328.799C336.617 95.0496 338.13 90.0057 338.379 87.9903C338.632 85.9716 336.364 81.9366 332.33 81.9366H319.974L318.207 95.0496ZM313.669 127.325H328.044C335.858 127.325 337.624 121.275 337.874 119.256C338.128 117.239 335.858 113.206 331.824 113.206H315.688L313.669 127.325Z" fill="white"/>
<path d="M460.825 133.123C457.714 133.123 455.203 135.631 455.203 138.727C455.203 141.856 457.713 144.366 460.825 144.366C463.92 144.366 466.429 141.856 466.429 138.727C466.426 135.63 463.916 133.123 460.825 133.123V132.352C464.351 132.352 467.199 135.213 467.199 138.727C467.199 142.274 464.351 145.134 460.825 145.134C457.277 145.133 454.417 142.274 454.417 138.727C454.417 135.212 457.277 132.353 460.825 132.353V133.123V133.123Z" fill="white"/>
<path d="M459.312 135.793H461.354C462.242 135.793 463.209 135.925 463.209 137.031C463.209 138.485 461.655 138.32 460.65 138.32L459.312 138.318V139.006H460.921L462.961 142.302H463.998L461.839 139.006C463.111 138.973 464.097 138.455 464.097 137.049C464.097 136.445 463.831 135.811 463.295 135.508C462.761 135.191 462.156 135.158 461.554 135.158H458.446V142.3H459.313V135.793H459.312Z" fill="white"/>
<path d="M2.45 204V200.5L16.65 185.4C17.6167 184.4 18.3667 183.5 18.9 182.7C19.4333 181.9 19.8 181.15 20 180.45C20.2333 179.717 20.35 178.95 20.35 178.15C20.35 176.583 19.7167 175.283 18.45 174.25C17.1833 173.217 15.5833 172.7 13.65 172.7C12.05 172.7 10.55 173.017 9.15 173.65C7.75 174.283 6.2 175.383 4.5 176.95L1.8 173.65C3.66667 171.917 5.58333 170.617 7.55 169.75C9.55 168.883 11.6167 168.45 13.75 168.45C15.9833 168.45 17.95 168.85 19.65 169.65C21.35 170.45 22.6667 171.567 23.6 173C24.5667 174.4 25.05 176.017 25.05 177.85C25.05 179.017 24.9 180.1 24.6 181.1C24.3 182.067 23.7833 183.1 23.05 184.2C22.3167 185.267 21.2833 186.5 19.95 187.9L8.55 199.9L25.75 199.85V204H2.45ZM41.7336 204V169H57.9336C60.2336 169 62.2336 169.45 63.9336 170.35C65.6336 171.217 66.9669 172.433 67.9336 174C68.9003 175.567 69.3836 177.383 69.3836 179.45C69.3836 181.517 68.9003 183.333 67.9336 184.9C66.9669 186.467 65.6169 187.7 63.8836 188.6C62.1836 189.467 60.2003 189.9 57.9336 189.9H46.9836V204H41.7336ZM46.9836 185.45H57.3836C59.4503 185.45 61.0836 184.917 62.2836 183.85C63.5169 182.75 64.1336 181.3 64.1336 179.5C64.1336 177.7 63.5169 176.267 62.2836 175.2C61.0836 174.133 59.4503 173.6 57.3836 173.6H46.9836V185.45ZM74.1902 204V169L79.1902 168.05V204H74.1902ZM93.1289 204.45C91.2956 204.45 89.6789 204.133 88.2789 203.5C86.8789 202.833 85.7789 201.917 84.9789 200.75C84.1789 199.583 83.7789 198.233 83.7789 196.7C83.7789 194.3 84.6956 192.417 86.5289 191.05C88.3622 189.65 90.8789 188.95 94.0789 188.95C96.5789 188.95 98.8956 189.433 101.029 190.4V187.7C101.029 185.867 100.496 184.5 99.4289 183.6C98.3956 182.7 96.8622 182.25 94.8289 182.25C93.6622 182.25 92.4456 182.433 91.1789 182.8C89.9122 183.133 88.4956 183.667 86.9289 184.4L85.0789 180.65C87.0122 179.75 88.8122 179.1 90.4789 178.7C92.1456 178.267 93.8289 178.05 95.5289 178.05C98.8289 178.05 101.379 178.833 103.179 180.4C105.012 181.967 105.929 184.2 105.929 187.1V204H101.029V201.8C99.8956 202.7 98.6789 203.367 97.3789 203.8C96.0789 204.233 94.6622 204.45 93.1289 204.45ZM88.5789 196.6C88.5789 197.833 89.0956 198.833 90.1289 199.6C91.1956 200.367 92.5789 200.75 94.2789 200.75C95.6122 200.75 96.8289 200.55 97.9289 200.15C99.0622 199.75 100.096 199.133 101.029 198.3V194C100.062 193.433 99.0456 193.033 97.9789 192.8C96.9456 192.533 95.7789 192.4 94.4789 192.4C92.6456 192.4 91.1956 192.783 90.1289 193.55C89.0956 194.283 88.5789 195.3 88.5789 196.6ZM112.902 214.75C112.369 214.75 111.869 214.717 111.402 214.65C110.935 214.617 110.552 214.55 110.252 214.45V210.05C110.852 210.183 111.585 210.25 112.452 210.25C114.785 210.25 116.469 209 117.502 206.5L118.602 204.05L108.402 178.55H113.952L121.352 197.95L129.552 178.55H134.952L122.652 207.15C121.852 208.95 121.002 210.4 120.102 211.5C119.202 212.633 118.169 213.45 117.002 213.95C115.835 214.483 114.469 214.75 112.902 214.75ZM149.525 204.45C147.025 204.45 144.758 203.867 142.725 202.7C140.725 201.533 139.125 199.95 137.925 197.95C136.758 195.95 136.175 193.717 136.175 191.25C136.175 188.817 136.742 186.617 137.875 184.65C139.008 182.65 140.542 181.067 142.475 179.9C144.408 178.7 146.558 178.1 148.925 178.1C151.292 178.1 153.392 178.7 155.225 179.9C157.058 181.067 158.508 182.667 159.575 184.7C160.675 186.7 161.225 188.967 161.225 191.5V192.9H141.175C141.442 194.3 141.958 195.55 142.725 196.65C143.525 197.75 144.525 198.617 145.725 199.25C146.958 199.883 148.292 200.2 149.725 200.2C150.958 200.2 152.142 200.017 153.275 199.65C154.442 199.25 155.408 198.683 156.175 197.95L159.375 201.1C157.875 202.233 156.325 203.083 154.725 203.65C153.158 204.183 151.425 204.45 149.525 204.45ZM141.225 189.15H156.275C156.075 187.817 155.608 186.65 154.875 185.65C154.175 184.617 153.292 183.817 152.225 183.25C151.192 182.65 150.058 182.35 148.825 182.35C147.558 182.35 146.392 182.633 145.325 183.2C144.258 183.767 143.358 184.567 142.625 185.6C141.925 186.6 141.458 187.783 141.225 189.15ZM165.987 204V178.55H170.987V181.8C171.787 180.6 172.77 179.667 173.937 179C175.137 178.3 176.487 177.95 177.987 177.95C179.02 177.983 179.87 178.133 180.537 178.4V182.9C180.07 182.7 179.587 182.567 179.087 182.5C178.587 182.4 178.087 182.35 177.587 182.35C176.12 182.35 174.82 182.75 173.687 183.55C172.554 184.317 171.654 185.45 170.987 186.95V204H165.987ZM193.292 204.5C191.092 204.5 189.025 204.183 187.092 203.55C185.192 202.883 183.542 201.95 182.142 200.75L184.892 197.45C186.192 198.483 187.525 199.283 188.892 199.85C190.292 200.383 191.708 200.65 193.142 200.65C194.942 200.65 196.408 200.3 197.542 199.6C198.675 198.9 199.242 197.983 199.242 196.85C199.242 195.917 198.908 195.183 198.242 194.65C197.575 194.117 196.542 193.75 195.142 193.55L190.542 192.9C188.008 192.533 186.108 191.75 184.842 190.55C183.575 189.35 182.942 187.75 182.942 185.75C182.942 184.217 183.358 182.883 184.192 181.75C185.025 180.583 186.192 179.683 187.692 179.05C189.192 178.383 190.942 178.05 192.942 178.05C194.775 178.05 196.542 178.317 198.242 178.85C199.942 179.383 201.575 180.217 203.142 181.35L200.592 184.65C199.192 183.717 197.825 183.033 196.492 182.6C195.192 182.167 193.875 181.95 192.542 181.95C191.008 181.95 189.775 182.283 188.842 182.95C187.908 183.583 187.442 184.417 187.442 185.45C187.442 186.383 187.758 187.117 188.392 187.65C189.058 188.15 190.142 188.5 191.642 188.7L196.242 189.35C198.775 189.717 200.692 190.5 201.992 191.7C203.292 192.867 203.942 194.45 203.942 196.45C203.942 197.983 203.475 199.367 202.542 200.6C201.608 201.8 200.342 202.75 198.742 203.45C197.142 204.15 195.325 204.5 193.292 204.5Z" fill="white"/>
</svg>
