<svg width="486" height="219" viewBox="0 0 486 219" fill="none" xmlns="http://www.w3.org/2000/svg">
<path fill-rule="evenodd" clip-rule="evenodd" d="M0.323975 23.0752C0.323975 35.6732 10.1207 46.0634 24.7823 46.0684H162.866C177.527 46.0634 187.324 35.6732 187.324 23.0752C187.324 10.4773 177.505 -0.0322125 162.888 7.41949e-05H24.76C10.1431 -0.0322089 0.323975 10.4773 0.323975 23.0752ZM6.09546 23.0454C6.09546 13.4473 13.2201 5.68934 24.8272 5.66699L162.824 5.66947C174.431 5.69182 181.555 13.4498 181.555 23.0454C181.555 32.641 174.473 40.461 162.821 40.4212H24.8272C13.1754 40.4635 6.09546 32.641 6.09546 23.0454Z" fill="white"/>
<path fill-rule="evenodd" clip-rule="evenodd" d="M166.824 15.6599C166.824 13.8172 168.319 12.3223 170.162 12.3223C172.004 12.3223 173.499 13.8172 173.499 15.6599C173.499 17.5025 172.004 18.9975 170.162 18.9975C168.319 18.9975 166.824 17.5025 166.824 15.6599ZM170.161 18.3618C171.651 18.3618 172.861 17.1524 172.861 15.6624C172.861 14.1699 171.651 12.963 170.161 12.963C168.671 12.963 167.462 14.1724 167.462 15.6624C167.462 17.1524 168.671 18.3618 170.161 18.3618Z" fill="white"/>
<path fill-rule="evenodd" clip-rule="evenodd" d="M171.823 14.8329C171.823 14.1252 171.299 13.7676 170.244 13.7676H168.793V17.4653H169.695V15.9504H170.134L170.842 17.4653H171.843L171.016 15.8138C171.52 15.6872 171.823 15.3197 171.823 14.8329ZM170.135 15.4092H169.695V14.334H170.09C170.631 14.334 170.897 14.5003 170.897 14.8853C170.897 15.2528 170.649 15.4092 170.135 15.4092Z" fill="white"/>
<path fill-rule="evenodd" clip-rule="evenodd" d="M99.6847 29.6684C99.6847 28.8589 99.6797 28.7943 99.6797 28.7943L106.176 28.7893C105.041 32.1939 101.324 34.7046 96.9232 34.7046C91.6188 34.7046 87.3202 31.0814 87.3202 26.6089C87.3202 22.1364 91.6188 18.5107 96.9232 18.5107C102.228 18.5107 106.546 22.2159 106.546 26.6884C106.546 26.6959 94.2611 26.6909 94.2611 26.6909C94.2611 26.6909 94.2561 28.8787 94.2561 29.6684C94.2561 32.3057 96.0218 32.8918 96.9853 32.8918C97.9489 32.8918 99.6847 32.3057 99.6847 29.6684ZM94.6932 21.6174C94.2785 22.3375 94.2512 23.1819 94.2611 24.4459L99.702 24.4484C99.7119 23.1843 99.6946 22.34 99.2798 21.6174C98.771 20.7288 97.8355 20.3066 96.9865 20.3012C96.9869 20.3012 96.9874 20.3012 96.9878 20.3012H96.9852C96.9857 20.3012 96.9861 20.3012 96.9865 20.3012C96.1376 20.3066 95.202 20.7288 94.6932 21.6174Z" fill="white"/>
<path d="M120.199 18.7517C122.638 18.6821 127.585 20.2789 127.55 25.9881C127.545 27.0013 127.547 33.8354 127.547 33.8354H121.068C121.068 33.8354 121.068 25.2655 121.068 24.364C121.068 23.1074 119.867 21.7093 118.088 21.7093C116.313 21.7093 114.992 23.1074 114.992 24.364C114.992 24.9799 114.999 33.8354 114.999 33.8354H108.525L108.53 19.4147L115.002 19.4097C115.002 19.4097 114.994 20.5695 115.002 20.9271C116.248 19.7375 118.046 18.8137 120.199 18.7517L120.199 18.7517Z" fill="white"/>
<path d="M67.2 18.7517C69.6386 18.6821 74.5854 20.2789 74.5506 25.9881C74.5457 27.0013 74.5481 33.8354 74.5481 33.8354H68.0691C68.0691 33.8354 68.0691 25.2655 68.0691 24.364C68.0691 23.1074 66.8671 21.7093 65.0891 21.7093C63.3135 21.7093 61.9923 23.1074 61.9923 24.364C61.9923 24.9799 61.9998 33.8354 61.9998 33.8354H55.5257L55.5232 19.4147L62.0022 19.4097C62.0022 19.4097 61.9948 20.5695 62.0022 20.9271C63.2488 19.7375 65.0443 18.8137 67.1998 18.7517L67.2 18.7517Z" fill="white"/>
<path fill-rule="evenodd" clip-rule="evenodd" d="M148.043 12.1533H141.606H141.606C141.606 12.1533 141.606 16.7947 141.611 20.1323C140.568 19.5462 139.468 18.9825 137.921 18.8459C133.22 18.4337 129.629 22.5908 129.629 26.3977C129.629 31.4165 133.5 33.2741 134.089 33.5472C136.282 34.5704 139.098 34.5729 141.593 33.0059C141.593 33.14 141.596 33.8403 141.596 33.8403H148.043V12.1533ZM141.653 23.9791V26.5568H141.653C141.653 26.5568 141.656 28.1884 141.656 29.1147C141.656 31.3422 140.113 31.9258 139.098 31.9258C138.062 31.9258 136.542 31.3422 136.542 29.1147C136.542 28.3473 136.545 26.5494 136.545 26.5494C136.545 26.5494 136.542 24.7192 136.542 23.9791C136.542 21.7491 138.062 21.1804 139.1 21.1804C140.113 21.1804 141.653 21.7491 141.653 23.9791Z" fill="white"/>
<path fill-rule="evenodd" clip-rule="evenodd" d="M150.166 26.532C150.166 22.0595 154.432 18.4338 159.697 18.4338C164.961 18.4338 169.228 22.0595 169.228 26.532C169.228 31.0045 164.961 34.6301 159.697 34.6301C154.435 34.6301 150.166 31.0045 150.166 26.532ZM162.314 29.5692C162.314 28.6951 162.317 26.5147 162.317 26.5147L162.319 26.5222C162.313 26.0518 162.314 24.8953 162.314 24.0094C162.314 23.8057 162.314 23.6162 162.314 23.4528C162.314 21.1631 160.951 20.2219 159.65 20.2219C158.351 20.2219 156.985 21.1631 156.985 23.4528C156.985 24.3269 156.98 26.4601 156.98 26.4601C156.98 26.4601 156.978 28.6951 156.978 29.5692C156.978 31.8688 158.341 32.8174 159.65 32.8174C160.956 32.8174 162.314 31.8688 162.314 29.5692Z" fill="white"/>
<path d="M45.3965 16.5812V12.1484H51.9326V16.5812H45.3965Z" fill="white"/>
<path d="M45.4114 33.8404V19.4172L51.9326 19.4198V33.8405L45.4114 33.8404Z" fill="white"/>
<path d="M78.1293 33.8405L78.1319 19.4471H74.5857V17.3065L78.1344 17.3039L78.1294 14.3835H84.6556V17.3015H88.1869V19.4471H84.6556L84.6606 33.8405L78.1293 33.8405Z" fill="white"/>
<path d="M18.8718 33.8403L18.8743 12.1533H25.6315L34.9787 27.2768L34.9738 12.1533H41.6788V33.8403H34.9837L25.5868 18.7168V33.8403H18.8718Z" fill="white"/>
<path d="M418.646 63.7788H439.071L449.159 86.9821L464.288 63.7788H485.211L455.71 109.675L450.92 145.484H432.01L437.557 104.626L418.646 63.7788Z" fill="white"/>
<path d="M268.351 145.484L270.873 127.32H242.131L243.896 113.205H268.856L271.382 95.0495H246.67L248.437 81.934H277.177L279.953 63.7788H232.295L220.948 145.484H268.351Z" fill="white"/>
<path fill-rule="evenodd" clip-rule="evenodd" d="M108.986 121.269H91.8396L82.5117 145.477H63.3468L64.6065 141.693C60.8248 143.711 50.233 147.243 40.9025 146.738C24.7653 146.988 0.557259 134.379 3.58241 107.903C8.72406 62.9051 59.0594 59.2365 78.2252 65.7908L75.4491 83.1903C46.7029 73.8607 22.4949 90.7553 21.7393 108.91C20.9836 127.067 37.8774 128.579 40.1469 128.579C42.4164 128.579 48.2151 128.326 50.737 126.815L51.7468 121.268H37.3716L39.6428 105.129H72.4239L68.893 131.605L95.8754 63.7755H120.083L128.406 130.851L150.595 63.7755H170.011L176.568 106.894L193.462 63.7755H215.149L220.193 145.477H202.038L199.011 98.5745L180.856 145.477H164.465L157.403 101.096L143.029 145.477H112.014L108.986 121.269ZM104.951 88.2368L98.6473 105.13H106.97L104.951 88.2368Z" fill="white"/>
<path fill-rule="evenodd" clip-rule="evenodd" d="M359.888 100.597C366.192 70.0834 385.104 62.5184 398.218 63.0233C417.379 63.7806 431.756 79.1605 427.72 108.412C423.686 137.663 401.749 147.497 386.112 145.48C370.478 143.463 353.584 131.107 359.888 100.597ZM410.067 105.133C412.841 83.9537 401.495 80.4228 396.2 80.4228C390.649 80.1703 380.311 85.7183 377.538 105.133C374.764 124.551 384.597 127.826 389.39 128.331C394.181 128.837 407.292 126.315 410.067 105.133Z" fill="white"/>
<path fill-rule="evenodd" clip-rule="evenodd" d="M304.16 63.7815L292.813 145.482L328.872 145.481C345.263 145.481 354.593 134.388 356.36 123.038C358.124 111.691 353.838 105.638 349.549 101.858C349.911 101.595 350.295 101.353 350.692 101.103C353.334 99.4374 356.557 97.4061 357.872 86.224C359.384 73.3644 347.282 63.7815 338.958 63.7815H304.16ZM318.531 95.0496H329.123C336.94 95.0496 338.453 90.0057 338.703 87.9903C338.956 85.9716 336.688 81.9366 332.654 81.9366H320.297L318.531 95.0496ZM313.993 127.325H328.368C336.182 127.325 337.948 121.275 338.198 119.256C338.452 117.239 336.182 113.206 332.148 113.206H316.012L313.993 127.325Z" fill="white"/>
<path d="M461.149 133.123C458.038 133.123 455.527 135.631 455.527 138.727C455.527 141.856 458.037 144.366 461.149 144.366C464.244 144.366 466.753 141.856 466.753 138.727C466.75 135.63 464.24 133.123 461.149 133.123V132.352C464.675 132.352 467.523 135.213 467.523 138.727C467.523 142.274 464.675 145.134 461.149 145.134C457.601 145.133 454.741 142.274 454.741 138.727C454.741 135.212 457.601 132.353 461.149 132.353V133.123V133.123Z" fill="white"/>
<path d="M459.636 135.793H461.678C462.566 135.793 463.533 135.925 463.533 137.031C463.533 138.485 461.979 138.32 460.974 138.32L459.636 138.318V139.006H461.245L463.285 142.302H464.321L462.163 139.006C463.435 138.973 464.421 138.455 464.421 137.049C464.421 136.445 464.155 135.811 463.619 135.508C463.085 135.191 462.48 135.158 461.878 135.158H458.77V142.3H459.637V135.793H459.636Z" fill="white"/>
<path d="M2.45 204V200.5L16.65 185.4C17.6167 184.4 18.3667 183.5 18.9 182.7C19.4333 181.9 19.8 181.15 20 180.45C20.2333 179.717 20.35 178.95 20.35 178.15C20.35 176.583 19.7167 175.283 18.45 174.25C17.1833 173.217 15.5833 172.7 13.65 172.7C12.05 172.7 10.55 173.017 9.15 173.65C7.75 174.283 6.2 175.383 4.5 176.95L1.8 173.65C3.66667 171.917 5.58333 170.617 7.55 169.75C9.55 168.883 11.6167 168.45 13.75 168.45C15.9833 168.45 17.95 168.85 19.65 169.65C21.35 170.45 22.6667 171.567 23.6 173C24.5667 174.4 25.05 176.017 25.05 177.85C25.05 179.017 24.9 180.1 24.6 181.1C24.3 182.067 23.7833 183.1 23.05 184.2C22.3167 185.267 21.2833 186.5 19.95 187.9L8.55 199.9L25.75 199.85V204H2.45ZM41.7336 204V169H57.9336C60.2336 169 62.2336 169.45 63.9336 170.35C65.6336 171.217 66.9669 172.433 67.9336 174C68.9003 175.567 69.3836 177.383 69.3836 179.45C69.3836 181.517 68.9003 183.333 67.9336 184.9C66.9669 186.467 65.6169 187.7 63.8836 188.6C62.1836 189.467 60.2003 189.9 57.9336 189.9H46.9836V204H41.7336ZM46.9836 185.45H57.3836C59.4503 185.45 61.0836 184.917 62.2836 183.85C63.5169 182.75 64.1336 181.3 64.1336 179.5C64.1336 177.7 63.5169 176.267 62.2836 175.2C61.0836 174.133 59.4503 173.6 57.3836 173.6H46.9836V185.45ZM74.1902 204V169L79.1902 168.05V204H74.1902ZM93.1289 204.45C91.2956 204.45 89.6789 204.133 88.2789 203.5C86.8789 202.833 85.7789 201.917 84.9789 200.75C84.1789 199.583 83.7789 198.233 83.7789 196.7C83.7789 194.3 84.6956 192.417 86.5289 191.05C88.3622 189.65 90.8789 188.95 94.0789 188.95C96.5789 188.95 98.8956 189.433 101.029 190.4V187.7C101.029 185.867 100.496 184.5 99.4289 183.6C98.3956 182.7 96.8622 182.25 94.8289 182.25C93.6622 182.25 92.4456 182.433 91.1789 182.8C89.9122 183.133 88.4956 183.667 86.9289 184.4L85.0789 180.65C87.0122 179.75 88.8122 179.1 90.4789 178.7C92.1456 178.267 93.8289 178.05 95.5289 178.05C98.8289 178.05 101.379 178.833 103.179 180.4C105.012 181.967 105.929 184.2 105.929 187.1V204H101.029V201.8C99.8956 202.7 98.6789 203.367 97.3789 203.8C96.0789 204.233 94.6622 204.45 93.1289 204.45ZM88.5789 196.6C88.5789 197.833 89.0956 198.833 90.1289 199.6C91.1956 200.367 92.5789 200.75 94.2789 200.75C95.6122 200.75 96.8289 200.55 97.9289 200.15C99.0622 199.75 100.096 199.133 101.029 198.3V194C100.062 193.433 99.0456 193.033 97.9789 192.8C96.9456 192.533 95.7789 192.4 94.4789 192.4C92.6456 192.4 91.1956 192.783 90.1289 193.55C89.0956 194.283 88.5789 195.3 88.5789 196.6ZM112.902 214.75C112.369 214.75 111.869 214.717 111.402 214.65C110.935 214.617 110.552 214.55 110.252 214.45V210.05C110.852 210.183 111.585 210.25 112.452 210.25C114.785 210.25 116.469 209 117.502 206.5L118.602 204.05L108.402 178.55H113.952L121.352 197.95L129.552 178.55H134.952L122.652 207.15C121.852 208.95 121.002 210.4 120.102 211.5C119.202 212.633 118.169 213.45 117.002 213.95C115.835 214.483 114.469 214.75 112.902 214.75ZM149.525 204.45C147.025 204.45 144.758 203.867 142.725 202.7C140.725 201.533 139.125 199.95 137.925 197.95C136.758 195.95 136.175 193.717 136.175 191.25C136.175 188.817 136.742 186.617 137.875 184.65C139.008 182.65 140.542 181.067 142.475 179.9C144.408 178.7 146.558 178.1 148.925 178.1C151.292 178.1 153.392 178.7 155.225 179.9C157.058 181.067 158.508 182.667 159.575 184.7C160.675 186.7 161.225 188.967 161.225 191.5V192.9H141.175C141.442 194.3 141.958 195.55 142.725 196.65C143.525 197.75 144.525 198.617 145.725 199.25C146.958 199.883 148.292 200.2 149.725 200.2C150.958 200.2 152.142 200.017 153.275 199.65C154.442 199.25 155.408 198.683 156.175 197.95L159.375 201.1C157.875 202.233 156.325 203.083 154.725 203.65C153.158 204.183 151.425 204.45 149.525 204.45ZM141.225 189.15H156.275C156.075 187.817 155.608 186.65 154.875 185.65C154.175 184.617 153.292 183.817 152.225 183.25C151.192 182.65 150.058 182.35 148.825 182.35C147.558 182.35 146.392 182.633 145.325 183.2C144.258 183.767 143.358 184.567 142.625 185.6C141.925 186.6 141.458 187.783 141.225 189.15ZM165.987 204V178.55H170.987V181.8C171.787 180.6 172.77 179.667 173.937 179C175.137 178.3 176.487 177.95 177.987 177.95C179.02 177.983 179.87 178.133 180.537 178.4V182.9C180.07 182.7 179.587 182.567 179.087 182.5C178.587 182.4 178.087 182.35 177.587 182.35C176.12 182.35 174.82 182.75 173.687 183.55C172.554 184.317 171.654 185.45 170.987 186.95V204H165.987ZM193.292 204.5C191.092 204.5 189.025 204.183 187.092 203.55C185.192 202.883 183.542 201.95 182.142 200.75L184.892 197.45C186.192 198.483 187.525 199.283 188.892 199.85C190.292 200.383 191.708 200.65 193.142 200.65C194.942 200.65 196.408 200.3 197.542 199.6C198.675 198.9 199.242 197.983 199.242 196.85C199.242 195.917 198.908 195.183 198.242 194.65C197.575 194.117 196.542 193.75 195.142 193.55L190.542 192.9C188.008 192.533 186.108 191.75 184.842 190.55C183.575 189.35 182.942 187.75 182.942 185.75C182.942 184.217 183.358 182.883 184.192 181.75C185.025 180.583 186.192 179.683 187.692 179.05C189.192 178.383 190.942 178.05 192.942 178.05C194.775 178.05 196.542 178.317 198.242 178.85C199.942 179.383 201.575 180.217 203.142 181.35L200.592 184.65C199.192 183.717 197.825 183.033 196.492 182.6C195.192 182.167 193.875 181.95 192.542 181.95C191.008 181.95 189.775 182.283 188.842 182.95C187.908 183.583 187.442 184.417 187.442 185.45C187.442 186.383 187.758 187.117 188.392 187.65C189.058 188.15 190.142 188.5 191.642 188.7L196.242 189.35C198.775 189.717 200.692 190.5 201.992 191.7C203.292 192.867 203.942 194.45 203.942 196.45C203.942 197.983 203.475 199.367 202.542 200.6C201.608 201.8 200.342 202.75 198.742 203.45C197.142 204.15 195.325 204.5 193.292 204.5Z" fill="white"/>
</svg>
