<svg width="487" height="211" viewBox="0 0 487 211" fill="none" xmlns="http://www.w3.org/2000/svg">
<path fill-rule="evenodd" clip-rule="evenodd" d="M0.323975 23.0752C0.323975 35.6732 10.1207 46.0634 24.7823 46.0684H162.866C177.527 46.0634 187.324 35.6732 187.324 23.0752C187.324 10.4773 177.505 -0.0322125 162.888 7.41949e-05H24.76C10.1431 -0.0322089 0.323975 10.4773 0.323975 23.0752ZM6.09546 23.0454C6.09546 13.4473 13.2201 5.68934 24.8272 5.66699L162.824 5.66947C174.431 5.69182 181.555 13.4498 181.555 23.0454C181.555 32.641 174.473 40.461 162.821 40.4212H24.8272C13.1754 40.4635 6.09546 32.641 6.09546 23.0454Z" fill="white"/>
<path fill-rule="evenodd" clip-rule="evenodd" d="M166.824 15.6599C166.824 13.8172 168.319 12.3223 170.162 12.3223C172.004 12.3223 173.499 13.8172 173.499 15.6599C173.499 17.5025 172.004 18.9975 170.162 18.9975C168.319 18.9975 166.824 17.5025 166.824 15.6599ZM170.161 18.3618C171.651 18.3618 172.861 17.1524 172.861 15.6624C172.861 14.1699 171.651 12.963 170.161 12.963C168.671 12.963 167.462 14.1724 167.462 15.6624C167.462 17.1524 168.671 18.3618 170.161 18.3618Z" fill="white"/>
<path fill-rule="evenodd" clip-rule="evenodd" d="M171.823 14.8329C171.823 14.1252 171.299 13.7676 170.244 13.7676H168.793V17.4653H169.695V15.9504H170.134L170.842 17.4653H171.843L171.016 15.8138C171.52 15.6872 171.823 15.3197 171.823 14.8329ZM170.135 15.4092H169.695V14.334H170.09C170.631 14.334 170.897 14.5003 170.897 14.8853C170.897 15.2528 170.649 15.4092 170.135 15.4092Z" fill="white"/>
<path fill-rule="evenodd" clip-rule="evenodd" d="M99.6847 29.6684C99.6847 28.8589 99.6797 28.7943 99.6797 28.7943L106.176 28.7893C105.041 32.1939 101.324 34.7046 96.9232 34.7046C91.6188 34.7046 87.3202 31.0814 87.3202 26.6089C87.3202 22.1364 91.6188 18.5107 96.9232 18.5107C102.228 18.5107 106.546 22.2159 106.546 26.6884C106.546 26.6959 94.2611 26.6909 94.2611 26.6909C94.2611 26.6909 94.2561 28.8787 94.2561 29.6684C94.2561 32.3057 96.0218 32.8918 96.9853 32.8918C97.9489 32.8918 99.6847 32.3057 99.6847 29.6684ZM94.6932 21.6174C94.2785 22.3375 94.2512 23.1819 94.2611 24.4459L99.702 24.4484C99.7119 23.1843 99.6946 22.34 99.2798 21.6174C98.771 20.7288 97.8355 20.3066 96.9865 20.3012C96.9869 20.3012 96.9874 20.3012 96.9878 20.3012H96.9852C96.9857 20.3012 96.9861 20.3012 96.9865 20.3012C96.1376 20.3066 95.202 20.7288 94.6932 21.6174Z" fill="white"/>
<path d="M120.199 18.7517C122.638 18.6821 127.585 20.2789 127.55 25.9881C127.545 27.0013 127.547 33.8354 127.547 33.8354H121.068C121.068 33.8354 121.068 25.2655 121.068 24.364C121.068 23.1074 119.867 21.7093 118.088 21.7093C116.313 21.7093 114.992 23.1074 114.992 24.364C114.992 24.9799 114.999 33.8354 114.999 33.8354H108.525L108.53 19.4147L115.002 19.4097C115.002 19.4097 114.994 20.5695 115.002 20.9271C116.248 19.7375 118.046 18.8137 120.199 18.7517L120.199 18.7517Z" fill="white"/>
<path d="M67.2 18.7517C69.6386 18.6821 74.5854 20.2789 74.5506 25.9881C74.5457 27.0013 74.5481 33.8354 74.5481 33.8354H68.0691C68.0691 33.8354 68.0691 25.2655 68.0691 24.364C68.0691 23.1074 66.8671 21.7093 65.0891 21.7093C63.3135 21.7093 61.9923 23.1074 61.9923 24.364C61.9923 24.9799 61.9998 33.8354 61.9998 33.8354H55.5257L55.5232 19.4147L62.0022 19.4097C62.0022 19.4097 61.9948 20.5695 62.0022 20.9271C63.2488 19.7375 65.0443 18.8137 67.1998 18.7517L67.2 18.7517Z" fill="white"/>
<path fill-rule="evenodd" clip-rule="evenodd" d="M148.043 12.1533H141.606H141.606C141.606 12.1533 141.606 16.7947 141.611 20.1323C140.568 19.5462 139.468 18.9825 137.921 18.8459C133.22 18.4337 129.629 22.5908 129.629 26.3977C129.629 31.4165 133.5 33.2741 134.089 33.5472C136.282 34.5704 139.098 34.5729 141.593 33.0059C141.593 33.14 141.596 33.8403 141.596 33.8403H148.043V12.1533ZM141.653 23.9791V26.5568H141.653C141.653 26.5568 141.656 28.1884 141.656 29.1147C141.656 31.3422 140.113 31.9258 139.098 31.9258C138.062 31.9258 136.542 31.3422 136.542 29.1147C136.542 28.3473 136.545 26.5494 136.545 26.5494C136.545 26.5494 136.542 24.7192 136.542 23.9791C136.542 21.7491 138.062 21.1804 139.1 21.1804C140.113 21.1804 141.653 21.7491 141.653 23.9791Z" fill="white"/>
<path fill-rule="evenodd" clip-rule="evenodd" d="M150.166 26.532C150.166 22.0595 154.432 18.4338 159.697 18.4338C164.961 18.4338 169.228 22.0595 169.228 26.532C169.228 31.0045 164.961 34.6301 159.697 34.6301C154.435 34.6301 150.166 31.0045 150.166 26.532ZM162.314 29.5692C162.314 28.6951 162.317 26.5147 162.317 26.5147L162.319 26.5222C162.313 26.0518 162.314 24.8953 162.314 24.0094C162.314 23.8057 162.314 23.6162 162.314 23.4528C162.314 21.1631 160.951 20.2219 159.65 20.2219C158.351 20.2219 156.985 21.1631 156.985 23.4528C156.985 24.3269 156.98 26.4601 156.98 26.4601C156.98 26.4601 156.978 28.6951 156.978 29.5692C156.978 31.8688 158.341 32.8174 159.65 32.8174C160.956 32.8174 162.314 31.8688 162.314 29.5692Z" fill="white"/>
<path d="M45.3965 16.5812V12.1484H51.9326V16.5812H45.3965Z" fill="white"/>
<path d="M45.4114 33.8404V19.4172L51.9326 19.4198V33.8405L45.4114 33.8404Z" fill="white"/>
<path d="M78.1293 33.8405L78.1319 19.4471H74.5857V17.3065L78.1344 17.3039L78.1294 14.3835H84.6556V17.3015H88.1869V19.4471H84.6556L84.6606 33.8405L78.1293 33.8405Z" fill="white"/>
<path d="M18.8718 33.8403L18.8743 12.1533H25.6315L34.9787 27.2768L34.9738 12.1533H41.6788V33.8403H34.9837L25.5868 18.7168V33.8403H18.8718Z" fill="white"/>
<path d="M418.646 63.7788H439.071L449.159 86.9821L464.288 63.7788H485.211L455.71 109.675L450.92 145.484H432.01L437.557 104.626L418.646 63.7788Z" fill="white"/>
<path d="M268.351 145.484L270.873 127.32H242.131L243.896 113.205H268.856L271.382 95.0495H246.67L248.437 81.934H277.177L279.953 63.7788H232.295L220.948 145.484H268.351Z" fill="white"/>
<path fill-rule="evenodd" clip-rule="evenodd" d="M108.986 121.269H91.8396L82.5117 145.477H63.3468L64.6065 141.693C60.8248 143.711 50.233 147.243 40.9025 146.738C24.7653 146.988 0.557259 134.379 3.58241 107.903C8.72406 62.9051 59.0594 59.2365 78.2252 65.7908L75.4491 83.1903C46.7029 73.8607 22.4949 90.7553 21.7393 108.91C20.9836 127.067 37.8774 128.579 40.1469 128.579C42.4164 128.579 48.2151 128.326 50.737 126.815L51.7468 121.268H37.3716L39.6428 105.129H72.4239L68.893 131.605L95.8754 63.7755H120.083L128.406 130.851L150.595 63.7755H170.011L176.568 106.894L193.462 63.7755H215.149L220.193 145.477H202.038L199.011 98.5745L180.856 145.477H164.465L157.403 101.096L143.029 145.477H112.014L108.986 121.269ZM104.951 88.2368L98.6473 105.13H106.97L104.951 88.2368Z" fill="white"/>
<path fill-rule="evenodd" clip-rule="evenodd" d="M359.888 100.597C366.192 70.0834 385.104 62.5184 398.218 63.0233C417.379 63.7806 431.756 79.1605 427.72 108.412C423.686 137.663 401.749 147.497 386.112 145.48C370.478 143.463 353.584 131.107 359.888 100.597ZM410.067 105.133C412.841 83.9537 401.495 80.4228 396.2 80.4228C390.649 80.1703 380.311 85.7183 377.538 105.133C374.764 124.551 384.597 127.826 389.39 128.331C394.181 128.837 407.292 126.315 410.067 105.133Z" fill="white"/>
<path fill-rule="evenodd" clip-rule="evenodd" d="M304.16 63.7815L292.813 145.482L328.872 145.481C345.263 145.481 354.593 134.388 356.36 123.038C358.124 111.691 353.838 105.638 349.549 101.858C349.911 101.595 350.295 101.353 350.692 101.103C353.334 99.4374 356.557 97.4061 357.872 86.224C359.384 73.3644 347.282 63.7815 338.958 63.7815H304.16ZM318.531 95.0496H329.123C336.94 95.0496 338.453 90.0057 338.703 87.9903C338.956 85.9716 336.688 81.9366 332.654 81.9366H320.297L318.531 95.0496ZM313.993 127.325H328.368C336.182 127.325 337.948 121.275 338.198 119.256C338.452 117.239 336.182 113.206 332.148 113.206H316.012L313.993 127.325Z" fill="white"/>
<path d="M461.149 133.123C458.038 133.123 455.527 135.631 455.527 138.727C455.527 141.856 458.037 144.366 461.149 144.366C464.244 144.366 466.753 141.856 466.753 138.727C466.75 135.63 464.24 133.123 461.149 133.123V132.352C464.675 132.352 467.523 135.213 467.523 138.727C467.523 142.274 464.675 145.134 461.149 145.134C457.601 145.133 454.741 142.274 454.741 138.727C454.741 135.212 457.601 132.353 461.149 132.353V133.123V133.123Z" fill="white"/>
<path d="M459.636 135.793H461.678C462.566 135.793 463.533 135.925 463.533 137.031C463.533 138.485 461.979 138.32 460.974 138.32L459.636 138.318V139.006H461.245L463.285 142.302H464.321L462.163 139.006C463.435 138.973 464.421 138.455 464.421 137.049C464.421 136.445 464.155 135.811 463.619 135.508C463.085 135.191 462.48 135.158 461.878 135.158H458.77V142.3H459.637V135.793H459.636Z" fill="white"/>
<path d="M0.895975 199.925V197.117L14.676 183.857C17.068 181.5 18.7146 179.611 19.616 178.189C20.5173 176.733 20.968 175.191 20.968 173.561C20.968 171.481 20.1706 169.765 18.576 168.413C17.016 167.061 15.04 166.385 12.648 166.385C10.88 166.385 9.21598 166.732 7.65598 167.425C6.13064 168.119 4.43197 169.263 2.55997 170.857L0.323975 168.205C2.29997 166.472 4.31064 165.189 6.35598 164.357C8.40131 163.491 10.516 163.057 12.7 163.057C14.4333 163.057 16.0453 163.317 17.536 163.837C19.0266 164.357 20.292 165.068 21.332 165.969C22.4066 166.871 23.2386 167.963 23.828 169.245C24.4173 170.493 24.712 171.863 24.712 173.353C24.712 174.428 24.5906 175.433 24.348 176.369C24.14 177.305 23.7413 178.259 23.152 179.229C22.5973 180.165 21.8346 181.188 20.864 182.297C19.8933 183.372 18.6626 184.62 17.172 186.041L6.09597 196.597H25.388V199.925H0.895975Z" fill="white"/>
<path d="M42.3314 199.925V163.525H58.1394C61.6754 163.525 64.5181 164.496 66.6674 166.437C68.8168 168.344 69.8914 170.875 69.8914 174.029C69.8914 177.184 68.7994 179.732 66.6154 181.673C64.4661 183.615 61.6408 184.585 58.1394 184.585H46.3354V199.925H42.3314ZM57.8274 167.113H46.3354V181.101H57.8274C60.2888 181.101 62.2474 180.477 63.7034 179.229C65.1594 177.947 65.8875 176.231 65.8875 174.081C65.8875 171.932 65.1594 170.233 63.7034 168.985C62.2474 167.737 60.2888 167.113 57.8274 167.113Z" fill="white"/>
<path d="M79.1194 162.641V199.925H75.2714V163.525L79.1194 162.641Z" fill="white"/>
<path d="M93.8976 200.393C91.0549 200.393 88.7322 199.665 86.9296 198.209C85.1616 196.753 84.2776 194.864 84.2776 192.541C84.2776 190.115 85.2136 188.191 87.0856 186.769C88.9576 185.313 91.4882 184.585 94.6776 184.585C96.0642 184.585 97.3989 184.741 98.6816 185.053C99.9989 185.365 101.212 185.799 102.322 186.353V182.921C102.322 180.841 101.732 179.281 100.554 178.241C99.3749 177.167 97.6589 176.629 95.4056 176.629C94.1229 176.629 92.8229 176.82 91.5056 177.201C90.2229 177.548 88.8016 178.12 87.2416 178.917L85.7856 175.953C87.6576 175.052 89.3909 174.393 90.9856 173.977C92.5802 173.561 94.1749 173.353 95.7696 173.353C99.0629 173.353 101.594 174.133 103.362 175.693C105.164 177.253 106.066 179.489 106.066 182.401V199.925H102.322V197.377C101.143 198.383 99.8429 199.145 98.4216 199.665C97.0349 200.151 95.5269 200.393 93.8976 200.393ZM87.9696 192.437C87.9696 193.893 88.5762 195.089 89.7896 196.025C91.0376 196.927 92.6322 197.377 94.5736 197.377C96.1336 197.377 97.5549 197.135 98.8376 196.649C100.12 196.164 101.282 195.401 102.322 194.361V189.473C101.247 188.745 100.086 188.225 98.8376 187.913C97.6242 187.567 96.2722 187.393 94.7816 187.393C92.7016 187.393 91.0376 187.861 89.7896 188.797C88.5762 189.699 87.9696 190.912 87.9696 192.437Z" fill="white"/>
<path d="M118.07 203.305L119.578 199.873L108.97 173.873H113.234L121.658 195.245L130.758 173.873H134.918L121.97 203.825C120.861 206.321 119.63 208.124 118.278 209.233C116.926 210.343 115.21 210.897 113.13 210.897C112.645 210.897 112.177 210.863 111.726 210.793C111.31 210.759 110.964 210.707 110.686 210.637V207.153C111.033 207.223 111.362 207.275 111.674 207.309C112.021 207.344 112.42 207.361 112.87 207.361C114.049 207.361 115.054 207.032 115.886 206.373C116.718 205.715 117.446 204.692 118.07 203.305Z" fill="white"/>
<path d="M159.422 197.169C157.966 198.244 156.441 199.059 154.846 199.613C153.286 200.133 151.57 200.393 149.698 200.393C147.826 200.393 146.058 200.047 144.394 199.353C142.765 198.66 141.344 197.707 140.13 196.493C138.952 195.28 138.016 193.859 137.322 192.229C136.629 190.565 136.282 188.78 136.282 186.873C136.282 185.001 136.612 183.251 137.27 181.621C137.964 179.992 138.882 178.571 140.026 177.357C141.17 176.144 142.522 175.191 144.082 174.497C145.677 173.804 147.358 173.457 149.126 173.457C150.86 173.457 152.472 173.804 153.962 174.497C155.488 175.191 156.788 176.144 157.862 177.357C158.972 178.571 159.838 179.992 160.462 181.621C161.121 183.251 161.45 185.001 161.45 186.873V188.069H140.078C140.356 190.635 141.413 192.767 143.25 194.465C145.088 196.164 147.289 197.013 149.854 197.013C151.206 197.013 152.524 196.805 153.806 196.389C155.089 195.973 156.164 195.384 157.03 194.621L159.422 197.169ZM149.022 176.837C146.769 176.837 144.81 177.6 143.146 179.125C141.517 180.651 140.529 182.609 140.182 185.001H157.602C157.256 182.713 156.268 180.789 154.638 179.229C153.044 177.635 151.172 176.837 149.022 176.837Z" fill="white"/>
<path d="M166.83 199.925V173.873H170.678V177.565C171.441 176.213 172.446 175.173 173.694 174.445C174.942 173.683 176.363 173.301 177.958 173.301C178.443 173.301 178.877 173.336 179.258 173.405C179.639 173.44 180.021 173.527 180.402 173.665V177.201C179.951 177.063 179.501 176.959 179.05 176.889C178.599 176.785 178.149 176.733 177.698 176.733C176.103 176.733 174.699 177.201 173.486 178.137C172.273 179.039 171.337 180.356 170.678 182.089V199.925H166.83Z" fill="white"/>
</svg>
