<svg width="457" height="93" viewBox="0 0 457 93" fill="none" xmlns="http://www.w3.org/2000/svg">
<g clip-path="url(#clip0_1127_3062)">
<path d="M40.2989 84.3102V85.373H40.1702V84.3102H40.2989ZM41.0739 84.8935V85.373H40.9514V84.3102H41.0739V84.7004H41.0843C41.1029 84.6593 41.131 84.6266 41.1683 84.6024C41.2061 84.5778 41.2562 84.5655 41.3188 84.5655C41.3732 84.5655 41.4207 84.5764 41.4616 84.5982C41.5024 84.6197 41.534 84.6527 41.5565 84.6973C41.5794 84.7416 41.5908 84.798 41.5908 84.8665V85.373H41.4683V84.8748C41.4683 84.8115 41.4519 84.7626 41.419 84.728C41.3865 84.693 41.3413 84.6755 41.2836 84.6755C41.2434 84.6755 41.2074 84.684 41.1756 84.701C41.1441 84.7179 41.1192 84.7427 41.1009 84.7752C41.0829 84.8077 41.0739 84.8471 41.0739 84.8935ZM42.0494 85.3917C41.9989 85.3917 41.9531 85.3822 41.9119 85.3632C41.8707 85.3438 41.838 85.316 41.8138 85.2796C41.7896 85.243 41.7775 85.1987 41.7775 85.1468C41.7775 85.1011 41.7865 85.0641 41.8045 85.0357C41.8225 85.007 41.8465 84.9845 41.8766 84.9682C41.9067 84.952 41.9399 84.9399 41.9763 84.9319C42.0129 84.9236 42.0498 84.917 42.0868 84.9122C42.1352 84.906 42.1745 84.9013 42.2046 84.8982C42.2351 84.8947 42.2572 84.889 42.271 84.8811C42.2852 84.8731 42.2923 84.8593 42.2923 84.8395V84.8354C42.2923 84.7842 42.2783 84.7444 42.2503 84.716C42.2226 84.6876 42.1806 84.6735 42.1242 84.6735C42.0657 84.6735 42.0199 84.6863 41.9866 84.7119C41.9534 84.7375 41.9301 84.7648 41.9166 84.7939L41.8003 84.7523C41.8211 84.7039 41.8488 84.6662 41.8834 84.6392C41.9183 84.6119 41.9564 84.5928 41.9975 84.5821C42.0391 84.5711 42.0799 84.5655 42.12 84.5655C42.1456 84.5655 42.175 84.5686 42.2082 84.5749C42.2418 84.5807 42.2742 84.593 42.3053 84.6117C42.3368 84.6304 42.3629 84.6586 42.3837 84.6963C42.4044 84.734 42.4148 84.7845 42.4148 84.8478V85.373H42.2923V85.2651H42.2861C42.2778 85.2824 42.2639 85.3009 42.2446 85.3206C42.2252 85.3404 42.1994 85.3571 42.1672 85.371C42.1351 85.3848 42.0958 85.3917 42.0494 85.3917ZM42.0681 85.2817C42.1166 85.2817 42.1574 85.2722 42.1906 85.2532C42.2242 85.2341 42.2494 85.2096 42.2664 85.1795C42.2837 85.1494 42.2923 85.1177 42.2923 85.0845V84.9724C42.2871 84.9786 42.2757 84.9843 42.2581 84.9895C42.2408 84.9944 42.2207 84.9987 42.1979 85.0025C42.1754 85.006 42.1534 85.0091 42.132 85.0118C42.1108 85.0143 42.0937 85.0163 42.0806 85.0181C42.0487 85.0222 42.019 85.029 41.9913 85.0383C41.964 85.0473 41.9418 85.061 41.9249 85.0793C41.9083 85.0973 41.9 85.1219 41.9 85.153C41.9 85.1956 41.9157 85.2277 41.9472 85.2495C41.979 85.271 42.0193 85.2817 42.0681 85.2817ZM42.985 84.5759V84.6797H42.5719V84.5759H42.985ZM42.6923 84.3849H42.8148V85.1447C42.8148 85.1793 42.8198 85.2052 42.8299 85.2225C42.8402 85.2395 42.8534 85.2509 42.8693 85.2568C42.8856 85.2623 42.9027 85.2651 42.9207 85.2651C42.9342 85.2651 42.9452 85.2644 42.9539 85.263C42.9625 85.2613 42.9695 85.2599 42.9746 85.2589L42.9996 85.3689C42.9913 85.372 42.9797 85.3751 42.9648 85.3782C42.9499 85.3817 42.9311 85.3834 42.9082 85.3834C42.8736 85.3834 42.8397 85.376 42.8065 85.3611C42.7736 85.3462 42.7463 85.3236 42.7245 85.2931C42.703 85.2627 42.6923 85.2243 42.6923 85.1779V84.3849ZM43.4949 85.3897C43.4181 85.3897 43.3519 85.3727 43.2962 85.3388C43.2408 85.3045 43.1981 85.2568 43.168 85.1956C43.1382 85.134 43.1233 85.0624 43.1233 84.9807C43.1233 84.899 43.1382 84.8271 43.168 84.7648C43.1981 84.7022 43.2399 84.6534 43.2936 84.6185C43.3475 84.5832 43.4105 84.5655 43.4825 84.5655C43.524 84.5655 43.565 84.5724 43.6055 84.5863C43.6459 84.6001 43.6828 84.6226 43.716 84.6537C43.7492 84.6845 43.7757 84.7254 43.7954 84.7762C43.8151 84.8271 43.825 84.8897 43.825 84.9641V85.016H43.2105V84.9101H43.7004C43.7004 84.8651 43.6914 84.825 43.6735 84.7897C43.6558 84.7544 43.6305 84.7266 43.5977 84.7062C43.5652 84.6857 43.5268 84.6755 43.4825 84.6755C43.4337 84.6755 43.3915 84.6876 43.3558 84.7119C43.3205 84.7357 43.2934 84.7669 43.2744 84.8053C43.2553 84.8437 43.2458 84.8849 43.2458 84.9288V84.9994C43.2458 85.0596 43.2562 85.1106 43.277 85.1525C43.2981 85.194 43.3273 85.2257 43.3647 85.2475C43.402 85.2689 43.4454 85.2796 43.4949 85.2796C43.5271 85.2796 43.5562 85.2751 43.5821 85.2661C43.6084 85.2568 43.6311 85.243 43.6501 85.2246C43.6691 85.2059 43.6838 85.1828 43.6942 85.1551L43.8125 85.1883C43.8001 85.2284 43.7792 85.2637 43.7497 85.2942C43.7203 85.3243 43.684 85.3478 43.6408 85.3647C43.5975 85.3814 43.5489 85.3897 43.4949 85.3897ZM44.4389 85.373V84.3102H44.5614V84.7025H44.5718C44.5808 84.6887 44.5933 84.671 44.6092 84.6496C44.6254 84.6278 44.6486 84.6084 44.6787 84.5915C44.7092 84.5742 44.7503 84.5655 44.8022 84.5655C44.8694 84.5655 44.9285 84.5823 44.9797 84.6159C45.0309 84.6494 45.0709 84.697 45.0996 84.7586C45.1283 84.8202 45.1427 84.8928 45.1427 84.9765C45.1427 85.061 45.1283 85.1341 45.0996 85.1961C45.0709 85.2577 45.0311 85.3054 44.9802 85.3393C44.9294 85.3729 44.8707 85.3897 44.8043 85.3897C44.7531 85.3897 44.7121 85.3812 44.6813 85.3642C44.6505 85.3469 44.6268 85.3274 44.6102 85.3056C44.5936 85.2834 44.5808 85.2651 44.5718 85.2506H44.5573V85.373H44.4389ZM44.5593 84.9745C44.5593 85.0347 44.5682 85.0878 44.5858 85.1338C44.6035 85.1795 44.6292 85.2153 44.6631 85.2412C44.6971 85.2668 44.7386 85.2796 44.7877 85.2796C44.8389 85.2796 44.8816 85.2661 44.9159 85.2392C44.9505 85.2118 44.9764 85.1751 44.9937 85.1291C45.0114 85.0828 45.0202 85.0312 45.0202 84.9745C45.0202 84.9184 45.0116 84.8679 44.9943 84.8229C44.9773 84.7776 44.9515 84.7418 44.9169 84.7155C44.8827 84.6889 44.8396 84.6755 44.7877 84.6755C44.7379 84.6755 44.696 84.6882 44.6621 84.7134C44.6282 84.7383 44.6026 84.7733 44.5853 84.8183C44.568 84.8629 44.5593 84.915 44.5593 84.9745ZM45.8324 85.0471V84.5759H45.9549V85.373H45.8324V85.2381H45.8241C45.8054 85.2786 45.7764 85.313 45.7369 85.3414C45.6975 85.3694 45.6476 85.3834 45.5874 85.3834C45.5376 85.3834 45.4933 85.3725 45.4546 85.3507C45.4158 85.3286 45.3854 85.2954 45.3632 85.2511C45.3411 85.2065 45.33 85.1502 45.33 85.0824V84.5759H45.4525V85.0741C45.4525 85.1322 45.4688 85.1786 45.5013 85.2132C45.5342 85.2478 45.576 85.2651 45.6269 85.2651C45.6573 85.2651 45.6883 85.2573 45.7198 85.2417C45.7516 85.2262 45.7783 85.2023 45.7997 85.1701C45.8215 85.1379 45.8324 85.0969 45.8324 85.0471ZM46.501 85.6886C46.4418 85.6886 46.391 85.681 46.3484 85.6658C46.3058 85.6509 46.2704 85.6312 46.242 85.6066C46.214 85.5824 46.1917 85.5564 46.1751 85.5287L46.2726 85.4602C46.2837 85.4748 46.2977 85.4914 46.3147 85.5101C46.3316 85.5291 46.3548 85.5455 46.3842 85.5594C46.414 85.5735 46.4529 85.5806 46.501 85.5806C46.5653 85.5806 46.6184 85.5651 46.6603 85.5339C46.7022 85.5028 46.7231 85.454 46.7231 85.3876V85.2257H46.7127C46.7037 85.2402 46.6909 85.2582 46.6743 85.2796C46.6581 85.3007 46.6345 85.3196 46.6037 85.3362C46.5733 85.3525 46.5321 85.3606 46.4802 85.3606C46.4159 85.3606 46.3581 85.3454 46.3069 85.3149C46.256 85.2845 46.2157 85.2402 46.186 85.1821C46.1566 85.1239 46.1418 85.0534 46.1418 84.9703C46.1418 84.8887 46.1562 84.8176 46.1849 84.757C46.2136 84.6961 46.2536 84.6491 46.3048 84.6159C46.356 84.5823 46.4152 84.5655 46.4823 84.5655C46.5342 84.5655 46.5754 84.5742 46.6058 84.5915C46.6366 84.6084 46.6601 84.6278 46.6764 84.6496C46.693 84.671 46.7058 84.6887 46.7148 84.7025H46.7273V84.5759H46.8456V85.3959C46.8456 85.4644 46.83 85.5201 46.7989 85.563C46.7681 85.6062 46.7266 85.6379 46.6743 85.658C46.6224 85.6784 46.5646 85.6886 46.501 85.6886ZM46.4968 85.2506C46.546 85.2506 46.5875 85.2393 46.6214 85.2168C46.6553 85.1943 46.6811 85.162 46.6987 85.1198C46.7164 85.0776 46.7252 85.0271 46.7252 84.9682C46.7252 84.9108 46.7165 84.8601 46.6992 84.8162C46.6819 84.7722 46.6563 84.7378 46.6224 84.7129C46.5885 84.688 46.5467 84.6755 46.4968 84.6755C46.4449 84.6755 46.4017 84.6887 46.3671 84.715C46.3328 84.7413 46.3071 84.7766 46.2898 84.8209C46.2728 84.8651 46.2643 84.9143 46.2643 84.9682C46.2643 85.0236 46.273 85.0726 46.2903 85.1151C46.3079 85.1573 46.3339 85.1905 46.3681 85.2148C46.4027 85.2386 46.4456 85.2506 46.4968 85.2506ZM47.6344 84.7544L47.5244 84.7856C47.5175 84.7672 47.5073 84.7494 47.4938 84.7321C47.4806 84.7145 47.4627 84.6999 47.4398 84.6885C47.417 84.6771 47.3877 84.6714 47.3521 84.6714C47.3033 84.6714 47.2627 84.6826 47.2301 84.7051C47.198 84.7273 47.1819 84.7555 47.1819 84.7897C47.1819 84.8202 47.193 84.8442 47.2151 84.8619C47.2372 84.8795 47.2718 84.8942 47.3189 84.906L47.4372 84.935C47.5085 84.9523 47.5616 84.9788 47.5965 85.0144C47.6315 85.0497 47.649 85.0952 47.649 85.1509C47.649 85.1966 47.6358 85.2374 47.6095 85.2734C47.5836 85.3094 47.5472 85.3378 47.5005 85.3585C47.4538 85.3793 47.3995 85.3897 47.3376 85.3897C47.2563 85.3897 47.189 85.372 47.1357 85.3367C47.0824 85.3014 47.0487 85.2499 47.0345 85.1821L47.1507 85.153C47.1618 85.1959 47.1827 85.2281 47.2135 85.2495C47.2447 85.271 47.2853 85.2817 47.3355 85.2817C47.3926 85.2817 47.4379 85.2696 47.4715 85.2454C47.5054 85.2208 47.5223 85.1914 47.5223 85.1572C47.5223 85.1295 47.5126 85.1063 47.4933 85.0876C47.4739 85.0686 47.4441 85.0544 47.404 85.0451L47.2711 85.0139C47.1981 84.9966 47.1445 84.9698 47.1103 84.9335C47.0764 84.8968 47.0594 84.851 47.0594 84.7959C47.0594 84.751 47.072 84.7112 47.0973 84.6766C47.1229 84.642 47.1577 84.6148 47.2016 84.5951C47.2459 84.5754 47.2961 84.5655 47.3521 84.5655C47.431 84.5655 47.4929 84.5828 47.5379 84.6174C47.5832 84.652 47.6154 84.6977 47.6344 84.7544ZM47.9953 84.3102L47.9849 85.0741H47.8645L47.8541 84.3102H47.9953ZM47.9247 85.3814C47.8991 85.3814 47.8771 85.3722 47.8588 85.3538C47.8404 85.3355 47.8313 85.3135 47.8313 85.2879C47.8313 85.2623 47.8404 85.2404 47.8588 85.222C47.8771 85.2037 47.8991 85.1945 47.9247 85.1945C47.9503 85.1945 47.9722 85.2037 47.9906 85.222C48.0089 85.2404 48.0181 85.2623 48.0181 85.2879C48.0181 85.3049 48.0138 85.3205 48.0051 85.3346C47.9968 85.3488 47.9856 85.3602 47.9714 85.3689C47.9575 85.3772 47.942 85.3814 47.9247 85.3814Z" fill="#F22222"/>
<path d="M84.7985 52.5925C83.9229 49.3313 82.4488 46.4866 80.3794 44.056C79.7578 31.7903 73.1876 21.0952 63.498 14.7934C63.4992 14.7401 63.5023 14.6877 63.5023 14.6341C63.5023 13.1591 62.9136 11.8009 61.7362 10.5613C57.261 5.95754 51.8154 3.6543 45.3994 3.6543C39.0409 3.6543 33.6986 5.82065 29.372 10.1531C28.6847 10.84 28.0406 11.5687 27.4431 12.335C14.8323 18.278 6.10308 31.1024 6.10308 45.9678C6.10308 46.7657 6.13109 47.5569 6.18054 48.3421C5.45323 49.0478 4.91907 49.9734 4.58001 51.1204C2.83042 57.2979 3.5587 63.1653 6.76658 68.7218C9.94595 74.2283 14.493 77.7713 20.4082 79.3523C23.1085 80.0743 25.7666 80.2981 28.3831 80.027C32.9401 82.0209 37.9728 83.1297 43.2652 83.1297C50.0646 83.1297 56.4365 81.3021 61.9191 78.1138C62.4021 78.8435 63.0454 79.4432 63.8529 79.9094C65.1306 80.6469 66.6009 80.816 68.263 80.416C74.4876 78.8425 79.2051 75.2781 82.413 69.7216C85.5921 64.2154 86.3871 58.506 84.7985 52.5925Z" stroke="white" stroke-opacity="0.21" stroke-width="7.30723"/>
<path fill-rule="evenodd" clip-rule="evenodd" d="M80.5572 46.0352C80.5572 66.5593 63.9191 83.1973 43.395 83.1973C22.871 83.1973 6.23291 66.5593 6.23291 46.0352C6.23291 25.5111 22.871 8.87305 43.395 8.87305C63.9191 8.87305 80.5572 25.5111 80.5572 46.0352ZM76.7305 46.0348C76.7305 64.4455 61.8056 79.3704 43.3949 79.3704C24.9842 79.3704 10.0593 64.4455 10.0593 46.0348C10.0593 27.6241 24.9842 12.6992 43.3949 12.6992C61.8056 12.6992 76.7305 27.6241 76.7305 46.0348Z" fill="white" fill-opacity="0.47"/>
<path d="M84.9284 52.6597C83.3403 46.7452 79.788 42.1972 74.2747 39.0139C68.7609 35.8306 63.0343 35.0217 57.0923 36.5886C56.4346 36.7621 55.7847 36.9634 55.1442 37.192C54.6015 37.0539 54.0166 36.9835 53.388 36.9835H45.5291C42.5855 36.9835 40.0835 35.9361 38.0231 33.8399C35.9627 31.7449 34.9324 29.221 34.9324 26.2684C34.9324 23.318 35.9615 20.8089 38.0206 18.7427C40.0788 16.6764 42.5799 15.6427 45.522 15.6427C46.2856 15.6427 47.0502 15.7233 47.816 15.8831L41.4782 22.1749C40.1753 23.4602 39.5247 24.8323 39.5247 26.2913C39.5247 27.9261 40.1273 29.3567 41.3345 30.5823C42.5419 31.808 43.9687 32.4208 45.6177 32.4208C47.0894 32.4208 48.4727 31.8275 49.7685 30.6396L61.0713 19.5713C62.7778 18.2733 63.632 16.6496 63.632 14.7005C63.632 13.2255 63.0433 11.8673 61.8658 10.6277C57.3909 6.02394 51.9453 3.7207 45.5291 3.7207C39.1703 3.7207 33.8285 5.88705 29.5016 10.2195C25.1738 14.5522 23.0109 19.9021 23.0109 26.2686C23.0109 32.6352 25.1735 37.9992 29.5016 42.3616C30.0145 42.8791 30.5508 43.373 31.1087 43.8415C31.2605 44.3423 31.4807 44.8456 31.7725 45.351L35.7021 52.1572C37.1737 54.7062 37.5177 57.3969 36.7326 60.2292C35.9485 63.0613 34.2779 65.2154 31.7208 66.6917C29.1657 68.1668 26.4781 68.53 23.6592 67.7798C20.8408 67.0303 18.6952 65.3816 17.224 62.8333C16.8394 62.1653 16.5248 61.4593 16.2853 60.7266L24.9032 63.0698C26.6679 63.555 28.1812 63.433 29.4449 62.7032C30.8608 61.8855 31.7983 60.6487 32.2562 58.9904C32.7141 57.3317 32.5312 55.7896 31.7069 54.3618C30.9711 53.0871 29.7657 52.1857 28.0891 51.6574L12.8523 47.4031C10.8748 46.5744 9.04186 46.6465 7.35389 47.6208C6.07635 48.3584 5.19461 49.5473 4.70989 51.1868C2.9603 57.3643 3.68859 63.2318 6.89646 68.7882C10.0758 74.2947 14.6229 77.8377 20.5383 79.4187C26.4545 81.0005 32.1692 80.1987 37.6828 77.0154C43.1961 73.8321 46.7603 69.277 48.3742 63.3477C48.5595 62.6674 48.7146 61.9793 48.8392 61.2854C49.1944 60.9051 49.5176 60.4652 49.8074 59.9632L53.737 53.1573C55.2087 50.6083 57.367 48.9651 60.2124 48.2288C63.0572 47.492 65.7579 47.8615 68.3149 49.338C70.87 50.8131 72.5285 52.9588 73.2882 55.7755C74.0487 58.5907 73.6933 61.2737 72.2221 63.8217C71.8358 64.4888 71.3817 65.1143 70.8671 65.6882L68.587 57.0537C68.1252 55.2827 67.2627 54.0334 65.999 53.3039C64.5831 52.4862 63.043 52.2928 61.378 52.7254C59.7129 53.1583 58.4685 54.0875 57.6442 55.5156C56.9084 56.7902 56.7303 58.2845 57.1113 60.0007L61.0452 75.3235C61.3163 77.4502 62.295 79.0017 63.983 79.9763C65.2608 80.7138 66.731 80.8829 68.3931 80.4829C74.6177 78.9094 79.3352 75.345 82.5431 69.7885C85.722 64.2825 86.5168 58.5732 84.9284 52.6597Z" fill="white"/>
<path d="M151.858 36.2039V41.0778H106.041C106.474 47.9383 108.54 53.1642 112.241 56.7564C115.942 60.3494 121.096 62.1448 127.703 62.1448C131.53 62.1448 135.24 61.6756 138.833 60.7367C142.425 59.7982 145.99 58.3901 149.529 56.5121V65.936C145.955 67.452 142.29 68.608 138.535 69.4018C134.778 70.1963 130.948 70.5958 127.108 70.5936C117.431 70.5936 109.768 67.7779 104.117 62.1453C98.4661 56.5126 95.6416 48.8948 95.6416 39.2907C95.6416 29.3623 98.3221 21.4822 103.684 15.6508C109.046 9.82037 116.276 6.9043 125.374 6.9043C133.533 6.9043 139.987 9.531 144.735 14.7842C149.483 20.0378 151.858 27.1784 151.858 36.2039ZM141.893 33.279C141.82 27.8278 140.296 23.4771 137.316 20.2268C134.338 16.9773 130.393 15.3529 125.483 15.3529C119.923 15.3529 115.472 16.9235 112.133 20.0651C108.793 23.2062 106.87 27.6291 106.365 33.3336L141.893 33.279Z" fill="white"/>
<path d="M197.355 34.416V69.0231H187.39V59.8162C185.115 63.4995 182.28 66.2161 178.887 67.9669C175.492 69.7185 171.341 70.5936 166.431 70.5936C160.22 70.5936 155.282 68.8521 151.618 65.3675C147.954 61.8832 146.121 57.216 146.121 51.3671C146.121 44.5434 148.405 39.3983 152.972 35.9325C157.54 32.466 164.354 30.7332 173.417 30.7332H187.389V29.7581C187.389 25.1736 185.881 21.6264 182.867 19.1159C179.852 16.6071 175.618 15.3519 170.168 15.3519C166.701 15.3519 163.325 15.7677 160.04 16.5978C156.754 17.4289 153.596 18.6741 150.563 20.3345V11.1289C154.209 9.72075 157.747 8.66461 161.178 7.96044C164.608 7.25626 167.948 6.9043 171.197 6.9043C179.97 6.9043 186.523 9.17952 190.856 13.7288C195.188 18.2775 197.355 25.1743 197.355 34.416ZM177.479 38.5327C169.427 38.5327 163.849 39.4531 160.744 41.2946C157.638 43.1365 156.086 46.2776 156.086 50.7184C156.086 54.2573 157.251 57.0638 159.579 59.14C161.908 61.2163 165.077 62.2539 169.084 62.2539C174.609 62.2539 179.04 60.296 182.38 56.3777C185.719 52.4605 187.39 47.2524 187.39 40.7533V38.5332H177.479L177.479 38.5327Z" fill="white"/>
<path d="M239.912 10.1531V19.5763C237.096 18.1328 234.171 17.0499 231.138 16.3267C228.105 15.6048 224.964 15.2433 221.715 15.2433C216.768 15.2433 213.058 16.0018 210.586 17.5178C208.112 19.0343 206.876 21.309 206.876 24.3423C206.876 26.6528 207.76 28.467 209.53 29.7852C211.299 31.1034 214.855 32.3578 220.199 33.5486L223.611 34.3071C230.687 35.8236 235.716 37.9632 238.694 40.7243C241.673 43.4867 243.162 47.341 243.162 52.2876C243.162 57.9195 240.933 62.3788 236.474 65.6639C232.014 68.95 225.886 70.5924 218.087 70.5924C214.837 70.5924 211.453 70.2758 207.932 69.6447C204.412 69.0131 200.703 68.0653 196.803 66.8012V56.5114C200.486 58.4259 204.114 59.8608 207.689 60.817C211.263 61.774 214.801 62.2524 218.304 62.2524C222.997 62.2524 226.608 61.4491 229.136 59.8427C231.662 58.2361 232.927 55.9704 232.927 53.0456C232.927 50.3377 232.015 48.262 230.192 46.8178C228.368 45.3744 224.37 43.9836 218.196 42.6479L214.729 41.836C208.555 40.5363 204.095 38.5412 201.352 35.8514C198.608 33.1621 197.236 29.47 197.236 24.7763C197.236 19.0718 199.258 14.667 203.302 11.5619C207.345 8.45684 213.085 6.9043 220.523 6.9043C224.206 6.9043 227.672 7.17515 230.922 7.71686C234.171 8.25784 237.168 9.06967 239.912 10.1531Z" fill="white"/>
<path d="M267.851 74.6564C265.036 81.8769 262.291 86.5886 259.619 88.7913C256.948 90.9934 253.373 92.0949 248.897 92.0949H240.935V83.7544H246.784C249.527 83.7544 251.658 83.1048 253.175 81.8051C254.691 80.5054 256.371 77.4364 258.212 72.5982L259.999 68.049L235.466 8.36719H246.026L264.982 55.8094L283.937 8.36719H294.497L267.851 74.6564Z" fill="white"/>
<path d="M309.912 46.1424V69.0225H294.322V8.5625H318.134C326.097 8.5625 331.935 9.89924 335.648 12.5717C339.359 15.2442 341.216 19.4705 341.216 25.2464C341.216 29.2429 340.251 32.5227 338.321 35.0873C336.39 37.6523 333.481 39.542 329.594 40.7565C331.726 41.2424 333.637 42.3426 335.324 44.0564C337.011 45.7714 338.718 48.3696 340.447 51.8518L348.911 69.0215H332.307L324.937 53.9993C323.451 50.9761 321.946 48.9108 320.422 47.8031C318.896 46.6965 316.864 46.1426 314.326 46.1426H309.912V46.1424ZM316.473 35.3713C319.739 35.3713 322.081 34.7635 323.499 33.5484C324.916 32.3334 325.624 30.3359 325.624 27.555C325.624 24.8014 324.916 22.8306 323.499 21.6429C322.081 20.4553 319.739 19.8612 316.473 19.8612H309.912V35.3713H316.473ZM349.89 8.5625H375.767C383.46 8.5625 389.366 10.2704 393.484 13.6854C397.601 17.1012 399.658 21.9666 399.658 28.2842C399.658 34.6284 397.6 39.5089 393.484 42.923C389.366 46.3389 383.46 48.0459 375.767 48.0459H365.481V69.0225H349.891L349.89 8.5625ZM365.48 19.8614V36.7477H374.106C377.129 36.7477 379.464 36.0124 381.111 34.5409C382.757 33.0695 383.582 30.984 383.582 28.2842C383.582 25.5852 382.757 23.5058 381.111 22.048C379.464 20.59 377.129 19.8609 374.106 19.8609H365.48V19.8614Z" fill="white" fill-opacity="0.49"/>
<path d="M456.725 64.5273C452.838 66.4174 448.801 67.8343 444.616 68.7791C440.432 69.7239 436.113 70.1965 431.658 70.1965C421.588 70.1965 413.611 67.3812 407.725 61.7527C401.839 56.1235 398.897 48.4906 398.897 38.8523C398.897 29.1072 401.893 21.4402 407.887 15.8509C413.88 10.263 422.086 7.46875 432.508 7.46875C436.53 7.46875 440.385 7.84678 444.07 8.60259C447.755 9.35889 451.23 10.4793 454.497 11.9634V24.4768C451.123 22.5601 447.768 21.1299 444.435 20.1845C441.1 19.2397 437.758 18.7672 434.411 18.7672C428.202 18.7672 423.417 20.5024 420.056 23.9712C416.695 27.4404 415.015 32.4015 415.015 38.8531C415.015 45.2518 416.634 50.1919 419.874 53.6753C423.114 57.1574 427.716 58.899 433.684 58.899C435.303 58.899 436.808 58.7974 438.198 58.5957C439.588 58.3928 440.837 58.0762 441.944 57.6434V45.9002H432.428V35.4515H456.726V64.5275H456.725V64.5273Z" fill="white" fill-opacity="0.49"/>
</g>
<defs>
<clipPath id="clip0_1127_3062">
<rect width="456.726" height="92.0938" fill="white"/>
</clipPath>
</defs>
</svg>
