<svg width="394" height="92" viewBox="0 0 394 92" fill="none" xmlns="http://www.w3.org/2000/svg">
<path fill-rule="evenodd" clip-rule="evenodd" d="M273.245 10.3568C270.629 10.3568 268.509 12.477 268.509 15.0924C268.509 17.7077 270.629 19.8279 273.245 19.8279C275.86 19.8279 277.98 17.7077 277.98 15.0924C277.98 12.477 275.86 10.3568 273.245 10.3568ZM261.998 15.0924C261.998 8.88088 267.033 3.84546 273.245 3.84546C279.456 3.84546 284.492 8.88088 284.492 15.0924C284.492 21.3039 279.456 26.3393 273.245 26.3393C267.033 26.3393 261.998 21.3039 261.998 15.0924Z" fill="#FEE606"/>
<path fill-rule="evenodd" clip-rule="evenodd" d="M273.245 26.9313C269.322 26.9313 266.142 30.1116 266.142 34.0346C266.142 37.9577 269.322 41.1379 273.245 41.1379C277.168 41.1379 280.348 37.9577 280.348 34.0346C280.348 30.1116 277.168 26.9313 273.245 26.9313ZM259.63 34.0346C259.63 26.5154 265.726 20.4199 273.245 20.4199C280.764 20.4199 286.86 26.5154 286.86 34.0346C286.86 41.5538 280.764 47.6493 273.245 47.6493C265.726 47.6493 259.63 41.5538 259.63 34.0346Z" fill="#FEE606"/>
<path fill-rule="evenodd" clip-rule="evenodd" d="M310.537 10.3568C302.037 10.3568 295.147 17.2474 295.147 25.7474C295.147 34.2473 302.037 41.1379 310.537 41.1379C319.037 41.1379 325.928 34.2473 325.928 25.7474C325.928 17.2474 319.037 10.3568 310.537 10.3568ZM288.635 25.7474C288.635 13.6513 298.441 3.84546 310.537 3.84546C322.633 3.84546 332.439 13.6513 332.439 25.7474C332.439 37.8434 322.633 47.6493 310.537 47.6493C298.441 47.6493 288.635 37.8434 288.635 25.7474Z" fill="#FEE606"/>
<path fill-rule="evenodd" clip-rule="evenodd" d="M356.709 10.3568C348.209 10.3568 341.318 17.2474 341.318 25.7474C341.318 34.2473 348.209 41.1379 356.709 41.1379C365.209 41.1379 372.099 34.2473 372.099 25.7474C372.099 17.2474 365.209 10.3568 356.709 10.3568ZM334.807 25.7474C334.807 13.6513 344.613 3.84546 356.709 3.84546C368.805 3.84546 378.611 13.6513 378.611 25.7474C378.611 37.8434 368.805 47.6493 356.709 47.6493C344.613 47.6493 334.807 37.8434 334.807 25.7474Z" fill="#FEE606"/>
<path fill-rule="evenodd" clip-rule="evenodd" d="M379.776 4.78376V11.8367H381.01V4.78376H384.007V3.5495H377.131V4.78376H379.776ZM384.713 3.54951V11.8367H386.123V4.78378L388.416 11.8367H389.65L391.766 4.78378V11.8367H393V3.54951H391.06L388.945 10.2498L386.829 3.54951H384.713Z" fill="#FEE606"/>
<path d="M379.776 11.8367H379.526V12.0867H379.776V11.8367ZM379.776 4.78376H380.026V4.53376H379.776V4.78376ZM381.01 11.8367V12.0867H381.26V11.8367H381.01ZM381.01 4.78376V4.53376H380.76V4.78376H381.01ZM384.007 4.78376V5.03376H384.257V4.78376H384.007ZM384.007 3.5495H384.257V3.2995H384.007V3.5495ZM377.131 3.5495V3.2995H376.881V3.5495H377.131ZM377.131 4.78376H376.881V5.03376H377.131V4.78376ZM384.713 11.8367H384.463V12.0867H384.713V11.8367ZM384.713 3.54951V3.29951H384.463V3.54951H384.713ZM386.123 11.8367V12.0867H386.373V11.8367H386.123ZM386.123 4.78378L386.361 4.7065L385.873 4.78378H386.123ZM388.416 11.8367L388.178 11.914L388.234 12.0867H388.416V11.8367ZM389.65 11.8367V12.0867H389.836L389.889 11.9086L389.65 11.8367ZM391.766 4.78378H392.016L391.526 4.71194L391.766 4.78378ZM391.766 11.8367H391.516V12.0867H391.766V11.8367ZM393 11.8367V12.0867H393.25V11.8367H393ZM393 3.54951H393.25V3.29951H393V3.54951ZM391.06 3.54951V3.29951H390.877L390.822 3.47423L391.06 3.54951ZM388.945 10.2498L388.706 10.3251L388.945 11.08L389.183 10.3251L388.945 10.2498ZM386.829 3.54951L387.067 3.47423L387.012 3.29951H386.829V3.54951ZM380.026 11.8367V4.78376H379.526V11.8367H380.026ZM381.01 11.5867H379.776V12.0867H381.01V11.5867ZM380.76 4.78376V11.8367H381.26V4.78376H380.76ZM384.007 4.53376H381.01V5.03376H384.007V4.53376ZM383.757 3.5495V4.78376H384.257V3.5495H383.757ZM377.131 3.7995H384.007V3.2995H377.131V3.7995ZM377.381 4.78376V3.5495H376.881V4.78376H377.381ZM379.776 4.53376H377.131V5.03376H379.776V4.53376ZM384.963 11.8367V3.54951H384.463V11.8367H384.963ZM386.123 11.5867H384.713V12.0867H386.123V11.5867ZM385.873 4.78378V11.8367H386.373V4.78378H385.873ZM388.653 11.7594L386.361 4.7065L385.886 4.86105L388.178 11.914L388.653 11.7594ZM389.65 11.5867H388.416V12.0867H389.65V11.5867ZM391.526 4.71194L389.41 11.7649L389.889 11.9086L392.005 4.85561L391.526 4.71194ZM392.016 11.8367V4.78378H391.516V11.8367H392.016ZM393 11.5867H391.766V12.0867H393V11.5867ZM392.75 3.54951V11.8367H393.25V3.54951H392.75ZM391.06 3.79951H393V3.29951H391.06V3.79951ZM389.183 10.3251L391.299 3.62479L390.822 3.47423L388.706 10.1745L389.183 10.3251ZM386.59 3.62479L388.706 10.3251L389.183 10.1745L387.067 3.47423L386.59 3.62479ZM384.713 3.79951H386.829V3.29951H384.713V3.79951Z" fill="#FEE606"/>
<path fill-rule="evenodd" clip-rule="evenodd" d="M27.6634 9.27301L27.6054 9.33877C26.7104 10.3537 26.2939 11.7073 25.7118 13.8708L25.7024 13.9058C25.5206 14.5816 25.3159 15.3424 25.0689 16.0963C18.0073 40.3692 10.9692 64.6575 3.93799 88.9396C4.30896 88.9395 4.68003 88.9394 5.0512 88.9393H5.05808C7.19946 88.9386 9.34459 88.938 11.4911 88.942C13.4259 82.2518 15.3704 75.5618 17.3366 68.8764L17.9618 66.7506L20.1776 66.7517C23.2518 66.7534 26.3256 66.7525 29.4008 66.7516H29.4053C35.2133 66.7498 41.0261 66.7481 46.8427 66.7636L49.0616 66.7695L49.678 68.9011C50.3201 71.1213 50.9602 73.342 51.5998 75.5611C52.8875 80.0282 54.1734 84.4895 55.4745 88.944C57.4402 88.9417 59.4058 88.9426 61.3687 88.9435H61.3711C61.9494 88.9437 62.5276 88.944 63.1055 88.9442C59.1936 75.4739 55.2713 62.0059 51.3484 48.5361L51.3434 48.5188C47.8327 36.4644 44.3216 24.4085 40.8177 12.3495L40.8163 12.3448L40.8149 12.3401C40.3412 10.6893 39.4317 9.21843 38.2097 8.18834L38.189 8.17084L38.1685 8.15296C35.2682 5.61561 30.1224 6.12696 27.7173 9.20394L27.6634 9.27301ZM66.1874 88.944C66.4738 89.9303 66.7601 90.9166 67.0464 91.903C66.0194 91.904 64.9922 91.9043 63.9649 91.9041C63.0991 91.904 62.2332 91.9036 61.3674 91.9032C58.6635 91.902 55.9596 91.9007 53.2582 91.9077C51.7412 86.7375 50.2485 81.5592 48.7559 76.3809L48.7547 76.3768C48.1154 74.1588 47.476 71.9407 46.8348 69.7233C41.0223 69.7078 35.2129 69.7096 29.4032 69.7113C26.3277 69.7122 23.2521 69.7131 20.176 69.7115C18.0017 77.1047 15.8535 84.505 13.7147 91.9077C10.8277 91.8972 7.94066 91.8981 5.05365 91.899C4.39608 91.8992 3.73851 91.8994 3.08094 91.8994C2.05396 91.8995 1.02698 91.8993 0 91.8982C0.285585 90.9119 0.57118 89.9256 0.856787 88.9392C7.97209 64.3664 15.0946 39.7856 22.2413 15.2203C22.4698 14.5287 22.6615 13.8162 22.8537 13.1019C23.4035 11.0586 23.957 9.00118 25.3854 7.38127C28.8141 2.99466 35.9109 2.24538 40.1173 5.92539C41.8388 7.37653 43.0433 9.3754 43.6598 11.5237C47.1652 23.5874 50.6777 35.6482 54.1901 47.7085C58.193 61.4532 62.1957 75.1971 66.1874 88.944ZM33.5122 13.2571L36.3413 22.9766C38.0893 28.9818 39.8317 34.9881 41.5737 40.9932L41.5768 41.004C43.0579 46.1095 44.5387 51.214 46.0229 56.3179L47.1239 60.1041H43.1809C41.3098 60.1041 39.4385 60.1059 37.5655 60.1077H37.5537C32.975 60.1121 28.3861 60.1165 23.7946 60.0946L19.8682 60.0759L20.9673 56.3065C22.283 51.7938 23.5911 47.2787 24.8999 42.761L24.9008 42.758C26.8111 36.1639 28.7232 29.5639 30.6598 22.9698L33.5122 13.2571ZM24.6694 54.179C25.6964 50.6481 26.7196 47.1163 27.7427 43.5845L27.743 43.5836C29.1433 38.75 30.5436 33.9165 31.9535 29.0857C32.4674 27.3247 32.9826 25.564 33.4995 23.8038C34.0122 25.565 34.5243 27.3263 35.0362 29.0876C36.2691 33.3305 37.5 37.5739 38.731 41.8174L38.7343 41.8286C39.9291 45.9473 41.1239 50.0662 42.3206 54.1848C42.6073 55.1714 42.894 56.1579 43.1809 57.1444C42.1536 57.1444 41.1263 57.1449 40.099 57.1457C39.2519 57.1464 38.4048 57.1472 37.5577 57.148C34.0016 57.1514 30.4452 57.1548 26.8883 57.146C25.8618 57.1434 24.8353 57.1398 23.8087 57.1349C24.0959 56.1497 24.3828 55.1644 24.6694 54.179Z" fill="white"/>
<path fill-rule="evenodd" clip-rule="evenodd" d="M116.915 9.68537L116.88 9.73219C116.204 10.6332 115.86 11.7739 115.374 13.5775L112.516 12.8062C112.977 11.0993 113.439 9.3883 114.511 7.95726C116.906 4.48354 121.537 2.79766 125.615 3.86941C129.345 4.73014 132.202 7.9454 133.186 11.5661C137.076 24.955 140.973 38.3422 144.87 51.7293L144.872 51.7362C148.482 64.1357 152.091 76.5353 155.695 88.9362C155.981 89.9211 156.268 90.906 156.554 91.8909C155.528 91.8978 154.501 91.9016 153.475 91.9036C151.956 91.9065 150.436 91.9054 148.917 91.9043C146.861 91.9029 144.805 91.9014 142.749 91.9099C141.996 89.3064 141.246 86.7021 140.496 84.0976L140.494 84.0915C139.113 79.2995 137.733 74.5069 136.335 69.7184C133.086 69.7201 129.837 69.7184 126.588 69.7166H126.576C120.957 69.7135 115.338 69.7105 109.719 69.7255C108.636 73.507 107.535 77.2841 106.435 81.0611C105.382 84.6755 104.329 88.2898 103.291 91.9075C101.266 91.9107 99.2409 91.9101 97.2161 91.9095H97.2015C95.6922 91.9091 94.183 91.9086 92.674 91.9097C91.6468 91.9105 90.6197 91.912 89.5928 91.9146C89.8768 90.9274 90.161 89.9402 90.4453 88.953C95.798 70.3671 101.193 51.7908 106.587 33.2169L106.588 33.2141C108.367 27.0903 110.145 20.9667 111.922 14.8431C112.146 14.1771 112.331 13.4919 112.516 12.8062L115.374 13.5775L115.364 13.6141C115.19 14.2579 114.991 14.9936 114.747 15.7257C112.977 21.8278 111.205 27.9299 109.433 34.0318L109.43 34.0423C104.115 52.3428 98.8002 70.642 93.5264 88.9496C94.7524 88.9491 95.978 88.9494 97.2024 88.9498H97.2184C98.5006 88.9502 99.7815 88.9505 101.062 88.95C101.901 86.0415 102.747 83.1362 103.593 80.2352L103.593 80.2331C104.694 76.4551 105.793 72.6844 106.874 68.9105L107.486 66.7717L109.711 66.7658C115.336 66.7508 120.958 66.7538 126.576 66.7569L126.592 66.7569C129.841 66.7586 133.087 66.7604 136.334 66.7587L138.554 66.7575L139.176 68.8892C140.575 73.6833 141.957 78.4806 143.338 83.2716L143.341 83.2847C143.885 85.1721 144.429 87.0586 144.973 88.9444C146.29 88.9428 147.605 88.9437 148.917 88.9446H148.919C150.154 88.9455 151.386 88.9464 152.616 88.9451C149.092 76.8211 145.563 64.6983 142.034 52.5747L142.028 52.5565C138.131 39.1695 134.234 25.7817 130.344 12.3919L130.337 12.3672L130.33 12.3424C129.58 9.58153 127.435 7.32695 124.95 6.75333L124.906 6.74329L124.863 6.73194C121.974 5.97289 118.626 7.20365 116.948 9.6372L116.915 9.68537ZM109.465 60.0981L110.547 56.3277C112.483 49.5809 114.437 42.84 116.389 36.1033L116.392 36.0922C117.664 31.7042 118.935 27.3181 120.201 22.9307L123.056 13.039L125.89 22.9366C127.622 28.9857 129.374 35.0321 131.126 41.083L131.128 41.0889C132.599 46.1662 134.07 51.2467 135.531 56.3292L136.616 60.1062H132.686C130.757 60.1062 128.828 60.1069 126.899 60.1075H126.898C122.397 60.109 117.894 60.1105 113.388 60.1039L109.465 60.0981ZM129.606 57.147C128.703 57.1472 127.8 57.1475 126.897 57.1478C123.421 57.149 119.946 57.1501 116.47 57.1475C115.444 57.1468 114.418 57.1457 113.392 57.1442C113.675 56.1579 113.958 55.1717 114.242 54.1856C115.899 48.4293 117.566 42.6762 119.233 36.9231L119.233 36.9215L119.234 36.9193C119.99 34.3117 120.745 31.7041 121.5 29.0962C122.016 27.3147 122.531 25.5332 123.045 23.7514C123.555 25.5339 124.067 27.3162 124.581 29.0982C125.811 33.3702 127.048 37.6408 128.285 41.9113L128.285 41.9123C129.47 46.0037 130.655 50.0949 131.834 54.1869C132.119 55.1734 132.402 56.1599 132.686 57.1465C131.659 57.1465 130.633 57.1467 129.606 57.147Z" fill="white"/>
<path fill-rule="evenodd" clip-rule="evenodd" d="M84.7211 17.1929C88.321 17.1859 91.921 17.1871 95.5214 17.1883C98.0417 17.1892 100.562 17.1901 103.083 17.1881V3.73663H53.2062C53.2035 6.29875 53.2039 8.8601 53.2043 11.422C53.2046 13.3435 53.2049 15.2654 53.2039 17.1881C53.8066 17.1886 54.4092 17.1889 55.0118 17.1891C55.3958 17.1892 55.7797 17.1893 56.1636 17.1893C57.6983 17.1894 59.2327 17.1889 60.767 17.1883C64.3673 17.1871 67.9668 17.1859 71.568 17.1929C71.5681 17.1929 71.5679 17.1929 71.568 17.1929C71.5629 34.9808 71.5642 52.7699 71.5652 70.5576C71.5656 77.6737 71.566 84.7896 71.566 91.9052H84.7187C84.7223 73.2286 84.7218 54.5481 84.7214 35.8696C84.7212 29.6437 84.7211 23.4181 84.7211 17.1929ZM81.7595 88.9454C81.7625 71.2552 81.7621 53.5618 81.7617 35.8699C81.7615 29.6439 81.7614 23.4182 81.7614 17.1929V14.2389L84.7153 14.2332C88.3163 14.2262 91.9245 14.2274 95.5293 14.2286C97.0616 14.2292 98.5933 14.2297 100.123 14.2296V6.69635H56.164C56.1635 8.27044 56.1638 9.84356 56.164 11.4177C56.1642 12.3545 56.1643 13.2916 56.1643 14.2296C57.6948 14.2297 59.2266 14.2292 60.7589 14.2286C64.3638 14.2274 67.9718 14.2262 71.5741 14.2332L74.5289 14.2389L74.5281 17.1937C74.523 34.9821 74.524 52.7714 74.5249 70.5599C74.5253 76.6886 74.5256 82.8171 74.5257 88.9454H81.7595Z" fill="white"/>
<path fill-rule="evenodd" clip-rule="evenodd" d="M165.592 7.09306L165.56 7.10334C162.456 8.09622 160.105 11.2422 160.08 14.4494C160.088 28.5305 160.087 42.6152 160.087 56.6985C160.086 67.4503 160.085 78.2012 160.089 88.9492C160.992 88.9492 161.896 88.9489 162.801 88.9487C164.341 88.9482 165.882 88.9477 167.422 88.9487C167.427 77.9432 167.425 66.9385 167.423 55.9331V55.9325C167.42 43.9453 167.418 31.9572 167.425 19.969C167.398 16.6568 170.291 14.1028 173.358 14.1404C175.149 14.122 177.04 14.1254 178.911 14.1287C180.471 14.1316 182.016 14.1343 183.475 14.1244C189.842 13.9313 195.674 18.6903 197.031 24.7735C198.006 28.7804 198.259 33.8223 195.703 38.1295C192.59 43.4275 187.2 46.5865 182.193 48.4982C180.295 49.2391 178.842 50.577 178.272 52.1226C177.416 54.5232 177.805 57.384 179.275 59.5326L179.287 59.5511L179.3 59.5698C181.953 63.5772 184.595 67.5838 187.236 71.5882C191.056 77.3813 194.873 83.1699 198.716 88.9496C201.207 88.9432 203.707 88.9449 206.202 88.9465C206.527 88.9467 206.853 88.9469 207.178 88.9471C205.965 87.1389 204.749 85.3297 203.531 83.5189C198.633 76.234 193.718 68.9239 188.942 61.5514L188.845 61.4012L188.766 61.2404C187.683 59.0216 187.427 55.177 190.386 52.9218L190.401 52.9102L190.417 52.8988C191.621 52.005 192.918 51.2258 194.069 50.5346C194.283 50.4057 194.493 50.2799 194.695 50.157C196.051 49.3352 197.202 48.5918 198.189 47.7129L198.207 47.6975L198.224 47.6824C202.075 44.3623 204.296 39.2292 204.706 33.9163L204.71 33.8565L204.717 33.7969C205.353 28.4122 205.035 23.0913 202.772 18.6753L202.755 18.6417L202.739 18.6077C199.401 11.6618 191.989 6.84909 184.3 6.69867C182.355 6.69694 180.403 6.69815 178.448 6.69936C175.165 6.7014 171.875 6.70344 168.593 6.69156L168.562 6.69145L168.53 6.69067C167.458 6.66395 166.476 6.78808 165.624 7.08204L165.592 7.09306ZM184.329 3.73898C193.159 3.90022 201.586 9.37756 205.406 17.3256C208.05 22.4852 208.325 28.4842 207.657 34.1441C207.199 40.072 204.714 45.9951 200.157 49.9241C198.757 51.1692 197.16 52.1295 195.563 53.0898C194.411 53.7828 193.258 54.4757 192.18 55.2757C190.765 56.3546 190.696 58.446 191.426 59.9421C196.188 67.2932 201.079 74.5675 205.97 81.8412C207.562 84.2092 209.154 86.5772 210.742 88.9477C211.402 89.933 212.061 90.9187 212.719 91.9051C211.533 91.9073 210.348 91.9079 209.162 91.9077C208.169 91.9075 207.177 91.9069 206.184 91.9062C203.167 91.9042 200.15 91.9022 197.133 91.9146C192.991 85.6917 188.874 79.4494 184.758 73.2081C182.118 69.2044 179.478 65.2011 176.832 61.2036C174.84 58.2918 174.299 54.4364 175.49 51.1144C176.422 48.5678 178.648 46.7017 181.128 45.7366C185.863 43.9298 190.532 41.0916 193.155 36.6243C195.151 33.2644 195.047 29.1197 194.148 25.4444C193.098 20.6713 188.448 16.9178 183.533 17.0838C181.974 17.0947 180.415 17.0915 178.856 17.0884C177.019 17.0848 175.183 17.0811 173.349 17.1004C171.812 17.0648 170.366 18.3998 170.385 19.9552C170.378 31.9469 170.38 43.9387 170.382 55.931C170.384 66.9375 170.387 77.9445 170.381 88.9525C170.381 89.939 170.38 90.9254 170.38 91.9119C170.38 91.912 170.38 91.9121 170.38 91.9122C170.379 91.9122 170.378 91.9122 170.377 91.9122C169.391 91.9101 168.406 91.909 167.42 91.9084C165.883 91.9074 164.346 91.9079 162.809 91.9084C160.916 91.909 159.023 91.9095 157.13 91.9075C157.126 80.1704 157.126 68.4333 157.127 56.6959C157.128 42.611 157.128 28.5258 157.12 14.4399C157.149 9.91343 160.367 5.65724 164.658 4.28434C165.922 3.84805 167.271 3.69867 168.604 3.73187C171.881 3.74372 175.158 3.74169 178.435 3.73965C180.4 3.73843 182.365 3.7372 184.329 3.73898Z" fill="white"/>
<path fill-rule="evenodd" clip-rule="evenodd" d="M216.112 6.69635V88.9466C217.035 88.9465 217.958 88.9461 218.882 88.9457C220.631 88.9449 222.381 88.9441 224.13 88.9455C224.139 70.3379 224.137 51.7345 224.136 33.1295C224.135 24.319 224.134 15.5082 224.135 6.69635H216.112ZM213.152 3.73663V91.9052C215.066 91.9071 216.98 91.9062 218.893 91.9054C220.638 91.9046 222.383 91.9038 224.128 91.9052C225.115 91.9059 226.101 91.9074 227.088 91.9099C227.088 90.9233 227.089 89.9367 227.089 88.9502C227.099 70.3408 227.097 51.735 227.096 33.1286C227.095 24.3181 227.094 15.5075 227.095 6.69635C227.095 5.70978 227.095 4.72321 227.095 3.73663H213.152Z" fill="white"/>
<mask id="path-12-inside-1" fill="white">
<path fill-rule="evenodd" clip-rule="evenodd" d="M241.367 15.3661C240.408 15.7756 239.374 15.9803 238.267 15.9803C236.827 15.9803 235.494 15.622 234.266 14.9054C233.039 14.1888 232.065 13.2198 231.345 11.9985C230.626 10.7771 230.266 9.43568 230.266 7.97426C230.266 6.87291 230.47 5.84391 230.88 4.88728C231.289 3.93065 231.867 3.08169 232.615 2.34039C233.363 1.59909 234.222 1.0237 235.192 0.61422C236.162 0.20474 237.187 0 238.267 0C239.353 0 240.383 0.20474 241.357 0.61422C242.33 1.0237 243.184 1.59556 243.918 2.3298C244.652 3.06404 245.223 3.91653 245.632 4.88728C246.042 5.85803 246.246 6.88703 246.246 7.97426C246.246 9.05444 246.045 10.0781 245.643 11.0454C245.241 12.0126 244.668 12.8721 243.923 13.624C243.179 14.3759 242.327 14.9566 241.367 15.3661ZM234.922 13.7563C235.945 14.3564 237.06 14.6565 238.267 14.6565C239.48 14.6565 240.595 14.3582 241.611 13.7616C242.627 13.1651 243.433 12.3532 244.029 11.3259C244.625 10.2987 244.923 9.18146 244.923 7.97421C244.923 7.06347 244.752 6.20568 244.41 5.40084C244.068 4.596 243.59 3.88647 242.976 3.27225C242.362 2.65803 241.653 2.17971 240.849 1.8373C240.044 1.49489 239.184 1.32369 238.267 1.32369C237.067 1.32369 235.956 1.62021 234.933 2.21325C233.91 2.80629 233.097 3.61113 232.494 4.62777C231.89 5.64441 231.589 6.75989 231.589 7.97421C231.589 9.18852 231.889 10.3058 232.488 11.3259C233.088 12.3461 233.899 13.1562 234.922 13.7563ZM236.14 12.4011V8.75809H236.965C237.53 8.75809 237.969 8.91165 238.283 9.21876C238.597 9.52587 239.011 10.1383 239.526 11.0561L240.288 12.4011H241.971L240.934 10.7278C240.503 10.0501 240.154 9.55587 239.886 9.24523C239.618 8.93459 239.304 8.70867 238.944 8.56747C239.685 8.50393 240.278 8.24095 240.722 7.77852C241.167 7.31609 241.389 6.746 241.389 6.06824C241.389 5.66582 241.265 5.28105 241.018 4.91393C240.771 4.54681 240.447 4.275 240.045 4.0985C239.798 3.97848 239.494 3.90082 239.135 3.86552C238.775 3.83022 238.299 3.81257 237.706 3.81257H234.753V12.4011H236.14ZM236.139 7.56133H237.832C238.284 7.56133 238.663 7.52074 238.97 7.43955C239.277 7.35836 239.511 7.22069 239.674 7.02654C239.836 6.83239 239.917 6.57999 239.917 6.26935C239.917 5.73279 239.723 5.38509 239.335 5.22624C238.947 5.06739 238.411 4.98796 237.726 4.98796H236.139V7.56133Z"/>
</mask>
<path d="M234.266 14.9054L236.787 10.5872L236.787 10.5872L234.266 14.9054ZM231.345 11.9985L227.037 14.5367L227.037 14.5367L231.345 11.9985ZM230.88 4.88728L235.477 6.85373L235.477 6.85373L230.88 4.88728ZM232.615 2.34039L229.095 -1.2107L229.095 -1.2107L232.615 2.34039ZM235.192 0.61422L233.248 -3.99223L233.248 -3.99223L235.192 0.61422ZM241.357 0.61422L243.295 -3.99475L243.295 -3.99476L241.357 0.61422ZM243.918 2.3298L247.455 -1.20456L247.455 -1.20456L243.918 2.3298ZM245.632 4.88728L250.24 2.94509L250.24 2.94509L245.632 4.88728ZM245.643 11.0454L241.026 9.12576L241.026 9.12576L245.643 11.0454ZM243.923 13.624L247.477 17.1417L247.477 17.1417L243.923 13.624ZM241.611 13.7616L244.143 18.0733L244.143 18.0733L241.611 13.7616ZM244.029 11.3259L248.353 13.8357L248.353 13.8357L244.029 11.3259ZM244.41 5.40084L249.011 3.44452L249.011 3.44452L244.41 5.40084ZM242.976 3.27225L246.513 -0.262113L246.513 -0.262115L242.976 3.27225ZM240.849 1.8373L238.89 6.43776L238.89 6.43777L240.849 1.8373ZM234.933 2.21325L232.425 -2.11248L232.425 -2.11248L234.933 2.21325ZM232.494 4.62777L236.794 7.17921L236.794 7.17921L232.494 4.62777ZM236.14 8.75809V3.75809H231.14V8.75809H236.14ZM236.14 12.4011V17.4011H241.14V12.4011H236.14ZM238.283 9.21876L234.786 12.7931L234.786 12.7931L238.283 9.21876ZM239.526 11.0561L235.166 13.503L235.171 13.5119L235.176 13.5208L239.526 11.0561ZM240.288 12.4011L235.938 14.8657L237.374 17.4011H240.288V12.4011ZM241.971 12.4011V17.4011H250.953L246.221 9.76684L241.971 12.4011ZM240.934 10.7278L245.184 8.09362L245.169 8.07052L245.155 8.04757L240.934 10.7278ZM239.886 9.24523L236.101 12.5121L236.101 12.5121L239.886 9.24523ZM238.944 8.56747L238.517 3.58577L237.118 13.2219L238.944 8.56747ZM240.722 7.77852L244.327 11.2434L244.327 11.2434L240.722 7.77852ZM241.018 4.91393L236.87 7.70453L236.87 7.70454L241.018 4.91393ZM240.045 4.0985L237.859 8.59547L237.946 8.63792L238.035 8.67695L240.045 4.0985ZM234.753 3.81257V-1.18743H229.753V3.81257H234.753ZM234.753 12.4011H229.753V17.4011H234.753V12.4011ZM236.139 7.56133H231.139V12.5613H236.139V7.56133ZM238.97 7.43955L240.248 12.2733L240.248 12.2733L238.97 7.43955ZM239.335 5.22624L241.229 0.598945L241.229 0.598943L239.335 5.22624ZM236.139 4.98796V-0.0120358H231.139V4.98796H236.139ZM238.267 20.9803C240.007 20.9803 241.712 20.6552 243.33 19.9648L239.405 10.7673C239.104 10.8959 238.742 10.9803 238.267 10.9803V20.9803ZM231.746 19.2236C233.748 20.3925 235.953 20.9803 238.267 20.9803V10.9803C237.701 10.9803 237.239 10.8515 236.787 10.5872L231.746 19.2236ZM227.037 14.5367C228.192 16.4964 229.782 18.0774 231.746 19.2236L236.787 10.5872C236.295 10.3003 235.938 9.94323 235.653 9.46026L227.037 14.5367ZM225.266 7.97426C225.266 10.2995 225.85 12.5217 227.037 14.5367L235.653 9.46026C235.401 9.0325 235.266 8.57188 235.266 7.97426H225.266ZM226.283 2.92083C225.592 4.53489 225.266 6.23712 225.266 7.97426H235.266C235.266 7.50869 235.349 7.15293 235.477 6.85373L226.283 2.92083ZM229.095 -1.2107C227.895 -0.0211686 226.948 1.36421 226.283 2.92083L235.477 6.85373C235.629 6.49709 235.84 6.18454 236.135 5.89147L229.095 -1.2107ZM233.248 -3.99223C231.69 -3.33468 230.296 -2.40106 229.095 -1.2107L236.135 5.89147C236.43 5.59924 236.754 5.38208 237.137 5.22067L233.248 -3.99223ZM238.267 -5C236.536 -5 234.849 -4.66805 233.248 -3.99223L237.137 5.22067C237.476 5.07753 237.838 5 238.267 5V-5ZM243.295 -3.99476C241.69 -4.66978 239.999 -5 238.267 -5V5C238.707 5 239.076 5.07926 239.418 5.22319L243.295 -3.99476ZM247.455 -1.20456C246.255 -2.40537 244.856 -3.33855 243.295 -3.99475L239.418 5.22319C239.805 5.38595 240.114 5.59649 240.381 5.86416L247.455 -1.20456ZM250.24 2.94509C249.584 1.38855 248.652 -0.00678456 247.455 -1.20456L240.381 5.86416C240.652 6.13486 240.863 6.44452 241.025 6.82947L250.24 2.94509ZM251.246 7.97426C251.246 6.24178 250.916 4.55039 250.24 2.94509L241.025 6.82947C241.167 7.16567 241.246 7.53227 241.246 7.97426H251.246ZM250.26 12.965C250.923 11.3703 251.246 9.6923 251.246 7.97426H241.246C241.246 8.41659 241.167 8.78602 241.026 9.12576L250.26 12.965ZM247.477 17.1417C248.671 15.9355 249.607 14.5347 250.26 12.965L241.026 9.12576C240.874 9.4905 240.664 9.80876 240.37 10.1064L247.477 17.1417ZM243.33 19.9648C244.893 19.2977 246.284 18.3468 247.477 17.1417L240.37 10.1064C240.074 10.405 239.761 10.6155 239.405 10.7673L243.33 19.9648ZM238.267 9.65649C237.933 9.65649 237.694 9.58561 237.452 9.44358L232.392 18.0691C234.196 19.1273 236.187 19.6565 238.267 19.6565V9.65649ZM239.079 9.45C238.854 9.58189 238.618 9.65649 238.267 9.65649V19.6565C240.342 19.6565 242.335 19.1345 244.143 18.0733L239.079 9.45ZM239.704 8.81614C239.537 9.10469 239.346 9.29329 239.079 9.45001L244.143 18.0733C245.908 17.0368 247.329 15.6016 248.353 13.8357L239.704 8.81614ZM239.923 7.97421C239.923 8.31518 239.851 8.56441 239.704 8.81615L248.353 13.8357C249.4 12.033 249.923 10.0477 249.923 7.97421H239.923ZM239.809 7.35715C239.877 7.51772 239.923 7.70736 239.923 7.97421H249.923C249.923 6.41957 249.627 4.89363 249.011 3.44452L239.809 7.35715ZM239.439 6.80661C239.597 6.96454 239.715 7.13733 239.809 7.35715L249.011 3.44452C248.42 2.05466 247.582 0.808399 246.513 -0.262113L239.439 6.80661ZM238.89 6.43777C239.109 6.53093 239.281 6.64869 239.439 6.80661L246.513 -0.262115C245.443 -1.33263 244.197 -2.1715 242.807 -2.76316L238.89 6.43777ZM238.267 6.32369C238.544 6.32369 238.736 6.3719 238.89 6.43776L242.807 -2.76316C241.353 -3.38211 239.823 -3.67631 238.267 -3.67631V6.32369ZM237.44 6.53898C237.69 6.3942 237.935 6.32369 238.267 6.32369V-3.67631C236.2 -3.67631 234.222 -3.15378 232.425 -2.11248L237.44 6.53898ZM236.794 7.17921C236.961 6.89767 237.157 6.7036 237.44 6.53898L232.425 -2.11248C230.663 -1.09102 229.233 0.324583 228.193 2.07633L236.794 7.17921ZM236.589 7.97421C236.589 7.63215 236.661 7.40189 236.794 7.17921L228.193 2.07632C227.119 3.88692 226.589 5.88762 226.589 7.97421H236.589ZM236.799 8.79208C236.663 8.56079 236.589 8.32197 236.589 7.97421H226.589C226.589 10.0551 227.114 12.0507 228.178 13.8598L236.799 8.79208ZM237.452 9.44358C237.163 9.2739 236.965 9.07543 236.799 8.79208L228.178 13.8598C229.211 15.6168 230.636 17.0386 232.392 18.0691L237.452 9.44358ZM231.14 8.75809V12.4011H241.14V8.75809H231.14ZM236.965 3.75809H236.14V13.7581H236.965V3.75809ZM241.779 5.64444C240.286 4.18352 238.448 3.75809 236.965 3.75809V13.7581C236.611 13.7581 235.652 13.6398 234.786 12.7931L241.779 5.64444ZM243.887 8.60923C243.373 7.69337 242.659 6.50472 241.779 5.64444L234.786 12.7931C234.727 12.7348 234.684 12.6886 234.66 12.6605C234.634 12.632 234.62 12.6144 234.618 12.6111C234.614 12.6068 234.638 12.636 234.688 12.7109C234.792 12.8649 234.951 13.1194 235.166 13.503L243.887 8.60923ZM244.639 9.93636L243.877 8.59143L235.176 13.5208L235.938 14.8657L244.639 9.93636ZM241.971 7.40105H240.288V17.4011H241.971V7.40105ZM236.684 13.362L237.721 15.0353L246.221 9.76684L245.184 8.09362L236.684 13.362ZM236.101 12.5121C236.093 12.5027 236.145 12.5636 236.266 12.7344C236.38 12.8967 236.529 13.1179 236.713 13.4081L245.155 8.04757C244.692 7.31927 244.185 6.57418 243.671 5.97837L236.101 12.5121ZM237.118 13.2219C236.675 13.0483 236.33 12.7772 236.101 12.5121L243.671 5.97838C242.906 5.09199 241.933 4.36909 240.771 3.91302L237.118 13.2219ZM237.117 4.31362C237.349 4.07253 237.627 3.88072 237.916 3.75234C238.195 3.62849 238.414 3.59456 238.517 3.58577L239.371 13.5492C241.116 13.3995 242.91 12.7171 244.327 11.2434L237.117 4.31362ZM236.389 6.06824C236.389 5.85262 236.426 5.54105 236.564 5.18807C236.703 4.83004 236.906 4.53394 237.117 4.31362L244.327 11.2434C245.721 9.79294 246.389 7.957 246.389 6.06824H236.389ZM236.87 7.70454C236.619 7.3323 236.389 6.75827 236.389 6.06824H246.389C246.389 4.57336 245.911 3.22979 245.167 2.12331L236.87 7.70454ZM238.035 8.67695C237.562 8.46941 237.148 8.11796 236.87 7.70453L245.167 2.12332C244.395 0.975656 243.331 0.0805838 242.054 -0.479953L238.035 8.67695ZM238.646 8.84163C238.593 8.83638 238.284 8.80207 237.859 8.59547L242.23 -0.398473C241.312 -0.845111 240.396 -1.03474 239.623 -1.11059L238.646 8.84163ZM237.706 8.81257C238.224 8.81257 238.518 8.82903 238.646 8.84163L239.623 -1.11059C239.032 -1.1686 238.373 -1.18743 237.706 -1.18743V8.81257ZM234.753 8.81257H237.706V-1.18743H234.753V8.81257ZM239.753 12.4011V3.81257H229.753V12.4011H239.753ZM236.14 7.40105H234.753V17.4011H236.14V7.40105ZM237.832 2.56133H236.139V12.5613H237.832V2.56133ZM237.691 2.60582C237.826 2.57025 237.909 2.56078 237.923 2.55929C237.939 2.5576 237.911 2.56133 237.832 2.56133V12.5613C238.55 12.5613 239.39 12.5004 240.248 12.2733L237.691 2.60582ZM235.837 3.82001C236.49 3.03831 237.254 2.72143 237.691 2.60583L240.248 12.2733C241.299 11.9953 242.532 11.4031 243.51 10.2331L235.837 3.82001ZM234.917 6.26935C234.917 5.68404 235.088 4.71662 235.837 3.82001L243.51 10.2331C244.584 8.94815 244.917 7.47594 244.917 6.26935H234.917ZM237.441 9.85353C236.646 9.52829 235.891 8.913 235.405 8.04255C234.967 7.25726 234.917 6.56926 234.917 6.26935H244.917C244.917 5.43288 244.77 4.30276 244.138 3.16976C243.458 1.95161 242.412 1.08304 241.229 0.598945L237.441 9.85353ZM237.726 9.98796C237.884 9.98796 237.937 9.99767 237.909 9.99357C237.892 9.99109 237.843 9.98311 237.768 9.96369C237.693 9.94435 237.58 9.91068 237.441 9.85353L241.229 0.598943C239.979 0.0870624 238.701 -0.0120358 237.726 -0.0120358V9.98796ZM236.139 9.98796H237.726V-0.0120358H236.139V9.98796ZM241.139 7.56133V4.98796H231.139V7.56133H241.139Z" fill="white" mask="url(#path-12-inside-1)"/>
</svg>
