<svg width="120" height="81" viewBox="0 0 120 81" fill="none" xmlns="http://www.w3.org/2000/svg">
<path fill-rule="evenodd" clip-rule="evenodd" d="M75 2.5H45C44.4477 2.5 44 2.94772 44 3.5V33.5C44 34.0523 44.4477 34.5 45 34.5H75C75.5523 34.5 76 34.0523 76 33.5V3.5C76 2.94771 75.5523 2.5 75 2.5ZM45 0.5C43.3431 0.5 42 1.84315 42 3.5V33.5C42 35.1569 43.3431 36.5 45 36.5H75C76.6569 36.5 78 35.1569 78 33.5V3.5C78 1.84315 76.6569 0.5 75 0.5H45Z" fill="white"/>
<path fill-rule="evenodd" clip-rule="evenodd" d="M60 21.5C61.1046 21.5 62 20.6046 62 19.5C62 18.3954 61.1046 17.5 60 17.5C58.8954 17.5 58 18.3954 58 19.5C58 20.6046 58.8954 21.5 60 21.5ZM64 19.5C64 21.7091 62.2091 23.5 60 23.5C57.7909 23.5 56 21.7091 56 19.5C56 17.2909 57.7909 15.5 60 15.5C62.2091 15.5 64 17.2909 64 19.5Z" fill="white"/>
<mask id="mask0_1196_1414" style="mask-type:luminance" maskUnits="userSpaceOnUse" x="43" y="1" width="14" height="15">
<path fill-rule="evenodd" clip-rule="evenodd" d="M51 1.5L57 8.5L54 10.5L51 13.5L50 15.5L43 7.5L45 3.5L51 1.5Z" fill="white"/>
</mask>
<g mask="url(#mask0_1196_1414)">
<path fill-rule="evenodd" clip-rule="evenodd" d="M51.4989 5.76356C50.2871 4.68278 48.4626 4.72371 47.3432 5.84314C46.2237 6.96258 46.1828 8.7871 47.2636 9.99886L47.3982 10.1408L56.5355 19.2782L60.7782 15.0355L51.6408 5.89814L51.4989 5.76356ZM52.1766 5.02815C50.5821 3.59476 48.1461 3.62601 46.636 5.13604C45.126 6.64606 45.0948 9.08211 46.5282 10.6766L46.6817 10.8385L56.5355 20.6924L62.1924 15.0355L52.3385 5.18165L52.1766 5.02815Z" fill="white"/>
</g>
<path fill-rule="evenodd" clip-rule="evenodd" d="M49.5 10.5C50.8807 10.5 52 9.38071 52 8C52 6.61929 50.8807 5.5 49.5 5.5C48.1193 5.5 47 6.61929 47 8C47 9.38071 48.1193 10.5 49.5 10.5Z" fill="white"/>
<path fill-rule="evenodd" clip-rule="evenodd" d="M60 29.5C65.5228 29.5 70 25.0228 70 19.5C70 13.9772 65.5228 9.5 60 9.5C54.4772 9.5 50 13.9772 50 19.5C50 25.0228 54.4772 29.5 60 29.5ZM72 19.5C72 26.1274 66.6274 31.5 60 31.5C53.3726 31.5 48 26.1274 48 19.5C48 12.8726 53.3726 7.5 60 7.5C66.6274 7.5 72 12.8726 72 19.5Z" fill="white"/>
<path fill-rule="evenodd" clip-rule="evenodd" d="M60 27.5C64.4183 27.5 68 23.9183 68 19.5C68 15.0817 64.4183 11.5 60 11.5C55.5817 11.5 52 15.0817 52 19.5C52 23.9183 55.5817 27.5 60 27.5ZM69 19.5C69 24.4706 64.9706 28.5 60 28.5C55.0294 28.5 51 24.4706 51 19.5C51 14.5294 55.0294 10.5 60 10.5C64.9706 10.5 69 14.5294 69 19.5Z" fill="white"/>
</svg>
