<?xml version="1.0" encoding="UTF-8"?>
<svg width="430px" height="109px" viewBox="0 0 430 109" version="1.1" xmlns="http://www.w3.org/2000/svg" xmlns:xlink="http://www.w3.org/1999/xlink">
    <title>syslogo</title>
    <g id="Page-1" stroke="none" stroke-width="1" fill="none" fill-rule="evenodd">
        <g id="syslogo" fill="#FFFFFF" fill-rule="nonzero">
            <g id="Capcom_logo">
                <path d="M292.644726,0.313828129 C305.103962,0.313828129 316.044524,6.34143921 322.277324,15.428312 L322.277324,15.428312 L324.546543,18.5183121 L324.546543,2.18476498 L357.77129,2.18476498 L357.778551,1.96508529 L357.872696,2.18476498 L358.036852,2.18476498 L358.036852,2.57342905 L361.530004,10.793312 L363.958551,2.62653842 L363.958551,2.18476498 L398.390321,2.18476498 L398.390321,17.745812 C398.390321,17.745812 396.699666,18.2975424 396.183876,18.9600855 C395.556961,19.7653441 395.411376,21.9221402 395.411376,21.9221402 L395.411376,21.9221402 L400.266052,54.1619453 C400.266052,54.1619453 401.074141,55.9904157 401.854505,56.5349688 C402.431647,56.9377132 403.906458,57.0322656 403.906458,57.0322656 L403.906458,57.0322656 L403.906458,74.5800877 L369.366051,74.5800877 L369.366051,61.3365391 L358.036852,61.2375626 L358.036852,61.3848204 L349.593852,61.2744633 L349.428313,74.628369 L317.042633,74.628369 L317.097805,65.8998071 C310.322076,71.7026797 300.708846,76.3954009 289.991552,76.3954009 C276.874896,76.3954009 263.880209,69.2981637 257.210336,61.8940655 L257.210336,61.8940655 L257.288374,74.5149042 L231.627425,74.5154194 C231.536646,74.5187158 231.02521,74.5364169 230.757819,74.5269783 C229.650162,74.4878589 228.629898,74.3851628 227.445725,74.2493573 C209.311751,72.1697718 194.31191,59.7149643 191.423092,42.646867 C187.105953,46.732839 181.02474,50.4306088 173.798018,53.02975 C171.089563,54.0038648 168.383696,54.7630909 165.730221,55.3182812 C165.554763,55.3549912 165.090822,55.5228531 164.892537,55.7697109 C164.690273,56.0215297 164.612738,56.316532 164.629408,56.7015391 C164.629408,56.7015391 164.717635,57.6997412 165.648143,58.3334453 C166.534231,58.9369023 168.687443,59.3859766 168.687443,59.3859766 L168.687443,59.3859766 L168.687443,74.4835252 L164.668033,74.4835252 L164.668033,74.5245604 L138.972752,74.5607752 L138.972752,74.5655647 L70.6282235,74.5655647 L70.6282235,74.5800491 L41.2732232,74.5800491 L38.5139536,74.4690022 C16.6911141,72.8136428 0,57.4651916 0,37.1693205 C0,16.8734494 17.2429032,0.42004688 38.5139536,0.42004688 C52.5636894,0.42004688 64.8568065,7.59821484 71.5841923,18.3203203 L71.5841923,18.3203203 L52.3006608,38.4970549 L39.8151294,29.8957501 C41.0949379,28.3874902 42.3892617,26.2674342 41.5049732,24.5172188 C40.8970311,23.3139458 39.7753148,22.4975407 38.4294575,22.5038907 C37.8177071,22.5067759 35.6957809,22.9570809 34.9363129,23.520211 C31.5104222,26.0604506 29.6392108,28.2557936 29.2777504,34.4148752 C29.3827872,37.529141 30.2906524,41.0491176 31.4769575,43.9238675 C32.9848002,47.0304137 34.8156948,48.7788871 37.2658794,50.2511254 C39.1460517,51.3808564 41.4663945,51.8926879 43.6365943,51.8926879 C47.7547764,51.8926879 51.1690565,49.6281203 52.3851569,46.2751644 L52.3851569,46.2751644 L67.827911,46.2751644 L67.827911,58.2827114 L89.2865167,2.18472636 L113.982376,2.16782792 L133.459033,52.5710395 C133.459033,52.5710395 134.505361,54.6033935 135.243029,55.4630864 C135.639352,55.9250074 136.633529,56.645977 136.633529,56.645977 L136.633529,56.645977 L136.722845,21.3813516 C136.722845,21.3813516 136.382976,19.8358935 135.873095,19.2762891 C135.26194,18.605535 133.454205,18.0282187 133.454205,18.0282187 L133.454205,18.0282187 L133.445584,2.18472636 L171.458787,2.18472636 C187.145381,2.96506956 191.18999,7.66215467 195.698393,16.6570312 C201.035541,7.85556163 212.624872,0.0274613711 227.115003,0.417632817 C235.674226,0.648104565 243.683158,2.05140444 249.8603,6.66281235 C252.803448,8.75569023 255.497418,11.7287848 257.701175,14.5592109 C265.16575,5.8749504 276.647502,0.313828129 289.523347,0.313828129 C290.061177,0.313828129 290.595933,0.32356526 291.128695,0.342796879 C291.631461,0.32295792 292.13673,0.313828129 292.644726,0.313828129 Z M289.687503,7.0418204 C271.098187,7.0418204 256.028226,21.024103 256.028226,38.2725473 C256.028226,55.5209917 271.098187,69.5032743 289.687503,69.5032743 C308.27682,69.5032743 323.346781,55.5209917 323.346781,38.2725473 C323.346781,21.024103 308.27682,7.0418204 289.687503,7.0418204 Z M331.759785,9.03342198 L331.779098,13.2459611 L331.790238,13.2489959 C331.944259,13.2912118 333.654353,13.7681333 334.352488,14.3202189 C335.188627,14.9814457 334.977727,16.1549064 334.977727,16.1549064 C334.977727,16.1549064 328.295833,57.6785819 328.150758,58.4492819 C327.99469,59.2783969 327.773685,61.2154824 326.608176,62.2924695 C325.449256,63.3633747 324.112035,63.5791648 324.112035,63.5791648 L324.112035,63.5791648 L324.092723,67.7337664 L342.801707,67.7337664 L342.801707,63.8519539 C342.675695,63.8405846 341.236702,63.6919355 340.264531,62.7197586 C339.250084,61.7053131 339.542723,58.9176101 339.542723,58.9176101 L339.542723,58.9176101 L344.146344,27.5468675 L353.510489,54.5457428 L364.916938,54.7026569 L374.182102,25.6276878 L379.353032,59.0721101 C379.391222,59.2330445 379.933337,61.627958 378.631223,62.8766726 C377.595764,63.8696642 376.096458,64.008868 376.096458,64.008868 L376.096458,64.008868 L376.096458,67.8906805 L397.769911,67.8906805 L397.750599,63.7360789 C397.704952,63.7487979 397.209479,63.8573338 396.034196,62.9152976 C395.310124,62.3349176 394.96151,59.7467251 394.805442,58.9176101 C394.660374,58.14691 388.820977,16.3649299 388.820977,16.3649299 C388.820977,16.3649299 388.719401,14.6396832 389.665907,13.7577424 C390.348086,13.1220853 391.744411,12.5193283 391.744411,12.5193283 L391.744411,12.5193283 L391.710614,9.07928917 L369.209133,9.05273448 L360.97477,32.7708988 L353.121821,9.05273448 L331.759785,9.03342198 Z M140.672252,8.91754698 L140.585345,13.820508 C140.691621,13.8525116 142.072107,14.2884105 143.395314,15.7565861 C144.123851,16.5649379 143.672935,26.8250628 143.672935,26.8250628 L143.672935,26.8250628 L143.648787,59.6683835 C143.67864,59.7576662 144.062633,61.0077263 142.545564,62.2635007 C141.952446,62.7544608 141.427108,63.2748724 140.510506,63.354657 L140.510506,63.354657 L140.401877,67.7241102 L161.339037,67.7748055 L161.389736,63.3305164 L161.369859,63.3221668 C161.244847,63.2680186 160.538483,62.9386028 159.487455,61.9907117 C158.831757,61.3993544 158.427824,60.548319 158.437342,59.6997663 C158.454939,56.732814 158.524317,53.8820062 158.509756,50.9850006 C165.843755,49.2185063 172.175034,46.2231329 174.64294,45.3143677 C183.919653,41.6127022 191.117978,35.7354928 190.696455,25.2510941 C190.616849,17.8230731 186.849243,11.7346127 178.778225,10.3587423 C175.099047,9.29569269 173.409921,9.1099412 171.958502,9.02859386 L171.958502,9.02859386 L140.672252,8.91754698 Z M93.9070324,8.98031261 C93.9070324,8.98031261 79.1260713,48.9761561 76.4775009,56.2597272 C73.9130114,63.3120747 71.0391066,63.3296818 70.8592209,63.3236923 L70.8503212,63.3232742 L71.0700008,67.7361805 L88.9340636,67.7313524 L88.9485479,63.4922586 C88.8346886,63.4845907 87.7602857,63.3948191 86.9617783,62.6618211 C85.3315484,61.1653518 86.3630908,58.1547663 86.3630908,58.1547663 L86.3630908,58.1547663 L90.493548,47.5884146 L108.838005,47.6270396 C108.964851,47.9439878 112.429438,56.607614 113.289537,59.5018132 C114.432126,63.3465272 110.863408,63.4150086 110.863408,63.4150086 L110.863408,63.4150086 L110.863408,67.7241102 L133.454205,67.7120399 L133.43972,63.4512195 C133.331956,63.4331339 132.03714,63.1960843 130.663548,61.9979539 C129.04051,60.5822449 127.935658,57.6622976 127.935658,57.6622976 L127.935658,57.6622976 L109.434283,9.02135167 Z M229.181794,7.36395035 C211.647411,7.47430739 197.326505,20.2466317 197.326505,36.9546659 C197.326505,53.6627002 213.135478,68.014658 232.271794,67.582598 L232.271794,67.582598 L250.86685,67.6349967 L250.86685,52.9955622 L247.354803,52.9955622 L247.275301,53.1794592 C246.023038,55.8744536 241.014764,58.4556417 237.36121,58.4556417 C235.392092,58.4556417 230.434928,58.1879658 228.601152,57.5456985 C225.363558,56.4117519 220.7439,54.7839762 216.727194,48.0330237 C215.650807,45.6664622 212.619919,39.8994499 213.297116,31.4867857 C213.625088,26.4164858 216.845718,20.0871761 222.624945,17.2209006 C225.144933,15.9710837 227.681784,15.7660143 232.136027,16.1702226 C235.333845,16.4604145 238.511284,18.708911 239.620672,21.407554 C240.478687,23.49472 240.232129,26.0380496 239.222062,27.4867676 C239.150003,27.590125 239.148458,27.6816639 239.16339,27.7803307 C239.174754,27.8554316 239.272158,27.9805627 239.272158,27.9805627 L239.272158,27.9805627 L241.032261,29.3555602 L241.040966,29.3614165 C241.10985,29.4069713 241.578376,29.7025237 242.118674,29.6881338 C242.458605,29.6790809 243.066277,29.310301 243.066277,29.310301 L243.066277,29.310301 L253.118139,18.7615684 L252.808661,18.3535001 C246.542833,10.2783539 235.750577,7.36395035 229.181794,7.36395035 Z M38.4882062,7.32493292 C20.9538233,7.43528995 6.63291683,20.2076143 6.63291683,36.9156485 C6.63291683,53.6236827 22.44189,67.9756406 41.5782062,67.5435806 L41.5782062,67.5435806 L60.1732625,67.5959792 L60.1732625,52.9565448 L56.6612148,52.9565448 L56.5817135,53.1404418 C55.3294504,55.8354361 50.3211766,58.4166243 46.6676217,58.4166243 C44.6985037,58.4166243 39.7413402,58.1489484 37.9075643,57.5066811 C34.6699704,56.3727345 30.0503122,54.7449588 26.0336057,47.9940063 C24.9572196,45.6274448 21.9263313,39.8604325 22.6035279,31.4477683 C22.9315005,26.3774684 26.1521303,20.0481587 31.9313574,17.1818832 C34.4513451,15.9320662 36.9881965,15.7269968 41.4424393,16.1312051 C44.6402572,16.4213971 47.8176965,18.6698935 48.9270838,21.3685366 C49.7850995,23.4557026 49.5385407,25.9990322 48.5284738,27.4477501 C48.456415,27.5511075 48.45487,27.6426465 48.4698024,27.7413133 C48.4811659,27.8164142 48.5785704,27.9415453 48.5785704,27.9415453 L48.5785704,27.9415453 L50.338673,29.3165428 L50.3473784,29.3223991 C50.4162622,29.3679539 50.8847877,29.6635063 51.4250861,29.6491164 C51.765017,29.6400634 52.3726887,29.2712835 52.3726887,29.2712835 L52.3726887,29.2712835 L62.4245515,18.722551 L62.1150727,18.3144827 C55.8492447,10.2393365 45.056989,7.32493292 38.4882062,7.32493292 Z M289.907187,16.7511799 C299.476098,16.7511799 304.604625,23.5988942 306.683539,31.7611308 C307.278626,34.0975571 307.037359,41.8661224 306.682766,44.4528919 C305.601738,52.3410587 299.154105,60.0281754 289.798465,59.7915007 C280.681621,59.560867 274.583174,55.3163819 272.693446,43.9011068 C272.140652,40.5618434 272.131027,36.5503899 272.581371,33.1957738 C273.887175,23.4688562 280.338175,16.7511799 289.907102,16.7511799 Z M165.045241,17.2429224 L165.481067,17.2544264 C167.53111,17.3385144 169.7916,17.8474901 171.583422,18.7499626 C174.135523,20.4442977 175.688225,22.1994826 175.688225,25.9125472 C175.793462,27.6581322 175.291901,29.1590078 174.452225,30.6851488 C173.577909,32.1444639 170.933124,34.9459591 169.263141,36.5486008 C164.380934,40.0388964 162.633824,41.0621036 158.755334,42.8474129 L158.755334,42.8474129 L158.693225,17.9654533 L159.374833,17.8384891 C161.174072,17.5087327 162.836843,17.256301 164.617342,17.2444938 L164.617342,17.2444938 L165.045241,17.2429224 Z M99.2107239,21.2775471 L105.335204,38.3280708 L93.4725011,38.3811801 L99.2107239,21.2775471 Z" id="Combined-Shape"></path>
                <path d="M418.287426,0.0627656258 C412.335576,0.0627656258 407.510657,4.88768844 407.510657,10.839533 C407.510657,16.7913775 412.335576,21.6163005 418.287426,21.6163005 C424.239261,21.6163005 429.064195,16.7913775 429.064195,10.839533 C429.064195,4.88768844 424.239261,0.0627656258 418.287426,0.0627656258 Z M418.287426,1.5116206 C423.439067,1.5116206 427.615325,5.68788335 427.615325,10.839533 C427.615325,15.9911826 423.439067,20.1674451 418.287426,20.1674451 C413.13577,20.1674451 408.959504,15.9911826 408.959504,10.839533 C408.959504,5.68788335 413.13577,1.5116206 418.287426,1.5116206 Z" id="path3629"></path>
                <path d="M412.739509,4.33082818 L412.739509,17.0891486 L415.431192,17.0891486 L415.431192,12.6665861 L419.006415,12.6665861 L421.966064,17.1446721 L424.98847,17.1253596 L421.377032,12.3793126 C422.859854,11.7738866 423.90938,10.2806124 423.90938,8.53129698 C423.90938,6.27597934 422.165145,4.44179363 419.996189,4.3935938 L419.996189,4.34048443 L415.431192,4.34048443 L415.431192,4.33082818 L412.739509,4.33082818 L412.739509,4.33082818 Z M415.431192,6.9066329 L419.909282,6.93077352 C420.818947,7.08522485 421.42295,7.1787213 421.398407,8.54543682 C421.372142,10.0079593 420.246015,10.2028456 419.909282,10.2138986 L415.431192,10.2670079 L415.431192,6.9066329 Z" id="rect3634"></path>
            </g>
            <path d="M8.67492045,108.976454 C9.94631183,108.976454 11.1828175,108.701754 12.3844374,108.152355 C13.5860573,107.602955 14.5744865,106.865189 15.3497252,105.939058 L15.3497252,105.939058 L13.1402951,103.725762 C12.5666185,104.400739 11.9076656,104.918744 11.1634365,105.279778 C10.4192074,105.640813 9.6207116,105.82133 8.76794909,105.82133 C8.00821522,105.82133 7.30662424,105.68398 6.66317616,105.40928 C6.01972809,105.13458 5.46155626,104.761773 4.98866069,104.290859 C4.51576511,103.819945 4.14365056,103.258772 3.87231704,102.607341 C3.60098351,101.95591 3.46531675,101.253463 3.46531675,100.5 C3.46531675,99.7308403 3.59710732,99.0205448 3.86068846,98.3691136 C4.1242696,97.7176824 4.48863176,97.1525854 4.95377495,96.6738227 C5.41891814,96.19506 5.97321377,95.8183287 6.61666185,95.5436288 C7.26010992,95.2689289 7.94619612,95.1315789 8.67492045,95.1315789 C9.54318774,95.1315789 10.3649407,95.3238689 11.1401793,95.7084488 C11.915418,96.0930286 12.5898756,96.6463527 13.1635522,97.3684211 L13.1635522,97.3684211 L15.4427538,95.0844875 C14.68302,94.1426593 13.6907145,93.393121 12.4658374,92.8358726 C11.2409604,92.2786242 9.97732138,92 8.67492045,92 C7.46554816,92 6.32982355,92.2197599 5.2677466,92.6592798 C4.20566966,93.0987996 3.28701186,93.6952909 2.51177321,94.4487535 C1.73653457,95.2022161 1.12409604,96.1008772 0.674457622,97.1447368 C0.224819207,98.1885965 0,99.3070175 0,100.5 C0,101.692982 0.220943014,102.807479 0.662829043,103.84349 C1.10471507,104.879501 1.71327741,105.774238 2.48851605,106.527701 C3.2637547,107.281163 4.1824125,107.877655 5.24448944,108.317175 C6.30656639,108.756694 7.45004339,108.976454 8.67492045,108.976454 Z M52.7472375,109 C53.9566098,109 55.0884582,108.78024 56.1427828,108.34072 C57.1971073,107.9012 58.1080127,107.300785 58.875499,106.539474 C59.6429852,105.778163 60.2515476,104.875577 60.701186,103.831717 C61.1508244,102.787858 61.3756436,101.677285 61.3756436,100.5 C61.3756436,99.3227147 61.1508244,98.2121422 60.701186,97.1682825 C60.2515476,96.1244229 59.6429852,95.2218375 58.875499,94.4605263 C58.1080127,93.6992151 57.1971073,93.0987996 56.1427828,92.6592798 C55.0884582,92.2197599 53.9566098,92 52.7472375,92 C51.55337,92 50.4292739,92.2197599 49.3749494,92.6592798 C48.3206248,93.0987996 47.4097194,93.6992151 46.6422332,94.4605263 C45.8747469,95.2218375 45.2661846,96.1244229 44.8165461,97.1682825 C44.3669077,98.2121422 44.1420885,99.3227147 44.1420885,100.5 C44.1420885,101.677285 44.3669077,102.787858 44.8165461,103.831717 C45.2661846,104.875577 45.8747469,105.778163 46.6422332,106.539474 C47.4097194,107.300785 48.3206248,107.9012 49.3749494,108.34072 C50.4292739,108.78024 51.55337,109 52.7472375,109 Z M52.7472375,105.868421 C52.0185132,105.868421 51.3401793,105.731071 50.712236,105.456371 C50.0842927,105.181671 49.5416257,104.80494 49.0842349,104.326177 C48.6268441,103.847415 48.2663581,103.278393 48.002777,102.619114 C47.7391958,101.959834 47.6074053,101.253463 47.6074053,100.5 C47.6074053,99.7308403 47.7391958,99.0205448 48.002777,98.3691136 C48.2663581,97.7176824 48.6268441,97.1525854 49.0842349,96.6738227 C49.5416257,96.19506 50.0842927,95.8183287 50.712236,95.5436288 C51.3401793,95.2689289 52.0185132,95.1315789 52.7472375,95.1315789 C53.4759618,95.1315789 54.1581718,95.2689289 54.7938675,95.5436288 C55.4295632,95.8183287 55.9761065,96.19506 56.4334973,96.6738227 C56.8908881,97.1525854 57.251374,97.7176824 57.5149552,98.3691136 C57.7785363,99.0205448 57.9103269,99.7308403 57.9103269,100.5 C57.9103269,101.253463 57.7785363,101.959834 57.5149552,102.619114 C57.251374,103.278393 56.8908881,103.847415 56.4334973,104.326177 C55.9761065,104.80494 55.4295632,105.181671 54.7938675,105.456371 C54.1581718,105.731071 53.4759618,105.868421 52.7472375,105.868421 Z M103.866474,108.740997 L103.866474,105.727147 L94.9589818,105.727147 L94.9589818,92.2590028 L91.5866937,92.2590028 L91.5866937,108.740997 L103.866474,108.740997 Z M146.380561,108.740997 L146.380561,105.727147 L137.473069,105.727147 L137.473069,92.2590028 L134.100781,92.2590028 L134.100781,108.740997 L146.380561,108.740997 Z M189.220249,108.740997 L189.220249,105.774238 L179.987156,105.774238 L179.987156,101.865651 L186.010761,101.865651 L186.010761,98.9930748 L179.987156,98.9930748 L179.987156,95.2257618 L189.12722,95.2257618 L189.12722,92.2590028 L176.614868,92.2590028 L176.614868,108.740997 L189.220249,108.740997 Z M226.617761,108.976454 C227.889152,108.976454 229.125658,108.701754 230.327278,108.152355 C231.528898,107.602955 232.517327,106.865189 233.292566,105.939058 L233.292566,105.939058 L231.083136,103.725762 C230.509459,104.400739 229.850506,104.918744 229.106277,105.279778 C228.362048,105.640813 227.563552,105.82133 226.71079,105.82133 C225.951056,105.82133 225.249465,105.68398 224.606017,105.40928 C223.962569,105.13458 223.404397,104.761773 222.931501,104.290859 C222.458606,103.819945 222.086491,103.258772 221.815158,102.607341 C221.543824,101.95591 221.408157,101.253463 221.408157,100.5 C221.408157,99.7308403 221.539948,99.0205448 221.803529,98.3691136 C222.06711,97.7176824 222.431472,97.1525854 222.896616,96.6738227 C223.361759,96.19506 223.916054,95.8183287 224.559502,95.5436288 C225.202951,95.2689289 225.889037,95.1315789 226.617761,95.1315789 C227.486028,95.1315789 228.307781,95.3238689 229.08302,95.7084488 C229.858259,96.0930286 230.532716,96.6463527 231.106393,97.3684211 L231.106393,97.3684211 L233.385594,95.0844875 C232.625861,94.1426593 231.633555,93.393121 230.408678,92.8358726 C229.183801,92.2786242 227.920162,92 226.617761,92 C225.408389,92 224.272664,92.2197599 223.210587,92.6592798 C222.14851,93.0987996 221.229852,93.6952909 220.454614,94.4487535 C219.679375,95.2022161 219.066937,96.1008772 218.617298,97.1447368 C218.16766,98.1885965 217.942841,99.3070175 217.942841,100.5 C217.942841,101.692982 218.163784,102.807479 218.60567,103.84349 C219.047556,104.879501 219.656118,105.774238 220.431357,106.527701 C221.206595,107.281163 222.125253,107.877655 223.18733,108.317175 C224.249407,108.756694 225.392884,108.976454 226.617761,108.976454 Z M271.224993,108.740997 L271.224993,95.2728532 L276.690425,95.2728532 L276.690425,92.2590028 L262.364015,92.2590028 L262.364015,95.2728532 L267.852705,95.2728532 L267.852705,108.740997 L271.224993,108.740997 Z M309.855135,108.740997 L309.855135,92.2590028 L306.482846,92.2590028 L306.482846,108.740997 L309.855135,108.740997 Z M348.694591,109 C349.903963,109 351.035811,108.78024 352.090136,108.34072 C353.144461,107.9012 354.055366,107.300785 354.822852,106.539474 C355.590338,105.778163 356.198901,104.875577 356.648539,103.831717 C357.098178,102.787858 357.322997,101.677285 357.322997,100.5 C357.322997,99.3227147 357.098178,98.2121422 356.648539,97.1682825 C356.198901,96.1244229 355.590338,95.2218375 354.822852,94.4605263 C354.055366,93.6992151 353.144461,93.0987996 352.090136,92.6592798 C351.035811,92.2197599 349.903963,92 348.694591,92 C347.500723,92 346.376627,92.2197599 345.322303,92.6592798 C344.267978,93.0987996 343.357073,93.6992151 342.589586,94.4605263 C341.8221,95.2218375 341.213538,96.1244229 340.763899,97.1682825 C340.314261,98.2121422 340.089442,99.3227147 340.089442,100.5 C340.089442,101.677285 340.314261,102.787858 340.763899,103.831717 C341.213538,104.875577 341.8221,105.778163 342.589586,106.539474 C343.357073,107.300785 344.267978,107.9012 345.322303,108.34072 C346.376627,108.78024 347.500723,109 348.694591,109 Z M348.694591,105.868421 C347.965866,105.868421 347.287533,105.731071 346.659589,105.456371 C346.031646,105.181671 345.488979,104.80494 345.031588,104.326177 C344.574197,103.847415 344.213711,103.278393 343.95013,102.619114 C343.686549,101.959834 343.554758,101.253463 343.554758,100.5 C343.554758,99.7308403 343.686549,99.0205448 343.95013,98.3691136 C344.213711,97.7176824 344.574197,97.1525854 345.031588,96.6738227 C345.488979,96.19506 346.031646,95.8183287 346.659589,95.5436288 C347.287533,95.2689289 347.965866,95.1315789 348.694591,95.1315789 C349.423315,95.1315789 350.105525,95.2689289 350.741221,95.5436288 C351.376916,95.8183287 351.92346,96.19506 352.38085,96.6738227 C352.838241,97.1525854 353.198727,97.7176824 353.462308,98.3691136 C353.725889,99.0205448 353.85768,99.7308403 353.85768,100.5 C353.85768,101.253463 353.725889,101.959834 353.462308,102.619114 C353.198727,103.278393 352.838241,103.847415 352.38085,104.326177 C351.92346,104.80494 351.376916,105.181671 350.741221,105.456371 C350.105525,105.731071 349.423315,105.868421 348.694591,105.868421 Z M390.720278,108.740997 L390.720278,97.7216066 L399.023084,108.740997 L402,108.740997 L402,92.2590028 L398.837026,92.2590028 L398.837026,102.925208 L390.743535,92.2590028 L387.534047,92.2590028 L387.534047,108.740997 L390.720278,108.740997 Z" id="COLLECTION"></path>
        </g>
    </g>
</svg>