<svg width="376" height="67" viewBox="0 0 376 67" fill="none" xmlns="http://www.w3.org/2000/svg">
<path d="M34.6604 0V15.54H50.1999V0H34.6604ZM37.7411 3.06661H47.1148V12.4953H37.7411V3.06661Z" fill="white"/>
<path d="M51.696 15.5399H67.4148V14.0168C67.4148 6.2928 61.0485 0 53.2364 0H51.696V1.52124V15.5399ZM54.7768 12.4956V3.06688C59.631 3.75895 63.4513 7.69584 64.1505 12.4956H54.7768Z" fill="white"/>
<path d="M34.6604 32.5758V17.0358H50.1999V32.5758H34.6604ZM37.7411 29.5092H47.1148V20.0805H37.7411V29.5092Z" fill="white"/>
<path d="M51.696 17.0359H67.4148V18.559C67.4148 26.283 61.0485 32.5758 53.2364 32.5758H51.696V31.0546V17.0359ZM54.7768 20.0802V29.509C59.631 28.8169 63.4513 24.88 64.1505 20.0802H54.7768Z" fill="white"/>
<path d="M17.6248 0V15.54H33.1643V0H17.6248ZM20.7055 3.06661H30.0792V12.4953H20.7055V3.06661Z" fill="white"/>
<path d="M17.6248 32.5758V17.0358H33.1643V32.5758H17.6248ZM20.7055 29.5092H30.0792V20.0805H20.7055V29.5092Z" fill="white"/>
<path d="M16.1289 15.5399H0.410034V14.0168C0.410034 6.2928 6.77639 0 14.5884 0H16.1289V1.52124V15.5399ZM13.048 12.4956V3.06688C8.19382 3.75895 4.37359 7.69584 3.67436 12.4956H13.048Z" fill="white"/>
<path d="M0.589233 32.576V17.0359H16.1287V32.576H0.589233ZM3.66996 29.5094H13.0436V20.0806H3.66996V29.5094Z" fill="white"/>
<path d="M17.6248 49.6119V34.0719H33.1643V49.6119H17.6248ZM20.7055 46.5453H30.0792V37.1166H20.7055V46.5453Z" fill="white"/>
<path d="M0.589233 49.612V34.072H16.1287V49.612H0.589233ZM3.66996 46.5454H13.0436V37.1167H3.66996V46.5454Z" fill="white"/>
<path d="M34.6604 66.6479V51.1079H50.1999V66.6479H34.6604ZM37.7411 63.5813H47.1148V54.1526H37.7411V63.5813Z" fill="white"/>
<path d="M51.696 51.108H67.4148V52.6311C67.4148 60.3551 61.0485 66.6479 53.2364 66.6479H51.696V65.1267V51.108ZM54.7768 54.1523V63.581C59.631 62.889 63.4513 58.9521 64.1505 54.1523H54.7768Z" fill="white"/>
<path d="M17.6248 66.6479V51.1079H33.1643V66.6479H17.6248ZM20.7055 63.5813H30.0792V54.1526H20.7055V63.5813Z" fill="white"/>
<path d="M16.1289 51.108H0.410034V52.6311C0.410034 60.3551 6.77639 66.6479 14.5884 66.6479H16.1289V65.1267V51.108ZM13.048 54.1523V63.581C8.19382 62.889 4.37359 58.9521 3.67436 54.1523H13.048Z" fill="white"/>
<path d="M118.37 8.19028V37.9958H110.304V8.19028H98.035V2.0871H131.075V8.19028H118.37Z" fill="white" stroke="white" stroke-width="2.47465"/>
<path d="M152.841 1.77148C160.564 1.77148 165.536 2.85879 167.757 5.03348C169.978 7.19064 171.089 12.0311 171.089 19.5549C171.089 27.7801 169.968 32.9625 167.726 35.1022C165.505 37.2418 160.107 38.3116 151.533 38.3116C143.81 38.3116 138.817 37.2593 136.554 35.1548C134.291 33.0327 133.16 28.3764 133.16 21.1859C133.16 12.6274 134.27 7.25204 136.492 5.05981C138.713 2.86758 144.163 1.77148 152.841 1.77148V1.77148ZM152.218 7.61155C146.799 7.61155 143.633 8.19908 142.72 9.37411C141.807 10.5491 141.35 14.618 141.35 21.5805C141.35 26.7366 141.879 29.8408 142.938 30.8931C144.017 31.9453 147.173 32.4715 152.405 32.4715C157.408 32.4715 160.408 31.884 161.404 30.7089C162.401 29.5164 162.899 25.9211 162.899 19.9231C162.899 13.9076 162.422 10.3563 161.467 9.26891C160.532 8.16402 157.449 7.61155 152.218 7.61155Z" fill="white" stroke="white" stroke-width="2.47465"/>
<path d="M202.263 31.1035H183.921L181.274 37.9958H172.741L186.879 2.0871H198.993L213.349 37.9958H204.972L202.263 31.1035ZM200.394 26.0789L193.045 7.37477L185.82 26.0789H200.394Z" fill="white" stroke="white" stroke-width="2.47465"/>
<path d="M217.022 37.9958V2.0871H234.149H236.267C242.018 2.0871 245.889 2.93767 247.882 4.63884C249.896 6.32247 250.903 9.58455 250.903 14.425C250.903 19.2304 249.948 22.4222 248.038 24.0006C246.128 25.579 242.267 26.3683 236.454 26.3683L234.585 26.395H225.087V37.9963L217.022 37.9958ZM225.087 20.6597H234.274C237.928 20.6597 240.243 20.3089 241.218 19.6074C242.215 18.8884 242.713 17.2047 242.713 14.5565C242.713 11.5225 242.298 9.64591 241.467 8.92687C240.658 8.19027 238.53 7.82196 235.084 7.82196H225.087V20.6597Z" fill="white" stroke="white" stroke-width="2.47465"/>
<path d="M264.079 2.0871V31.8927H284.009V37.9958H256.013V2.0871H264.079Z" fill="white" stroke="white" stroke-width="2.47465"/>
<path d="M318.301 31.1035H299.959L297.312 37.9958H288.779L302.917 2.0871H315.031L329.387 37.9958H321.01L318.301 31.1035ZM316.432 26.0789L309.083 7.37477L301.858 26.0789H316.432Z" fill="white" stroke="white" stroke-width="2.47465"/>
<path d="M374.535 2.0871V37.9958H360.864L348.719 18.2921C348.117 17.3099 347.173 15.5913 345.886 13.136L344.515 10.5579L343.176 7.97982H342.865L342.99 10.3474L343.083 12.6887L343.145 17.3976V37.9958H335.079V2.0871H348.75L359.805 20.2914C360.781 21.9049 361.912 23.8603 363.2 26.1578L364.819 29.0779L366.438 32.0242H366.718L366.625 29.7092L366.532 27.3942L366.47 22.7642V2.0871H374.535Z" fill="white" stroke="white" stroke-width="2.47465"/>
<path d="M104.001 64.8584C104.883 64.8571 105.753 64.6609 106.553 64.2835C107.338 63.9313 108.036 63.4036 108.592 62.7396V62.7396L107.073 61.195C106.7 61.6503 106.236 62.0209 105.713 62.2828C105.2 62.535 104.636 62.6642 104.066 62.6604C103.584 62.6656 103.107 62.574 102.66 62.3907C102.214 62.2075 101.808 61.9363 101.466 61.5928C101.136 61.2566 100.876 60.8573 100.7 60.4181C100.511 59.9518 100.416 59.452 100.42 58.948C100.415 58.4391 100.508 57.9341 100.692 57.4609C100.865 57.0208 101.12 56.6191 101.445 56.2784C101.77 55.9403 102.159 55.6721 102.588 55.4898C103.036 55.297 103.517 55.1992 104.004 55.2023C104.59 55.2 105.169 55.3365 105.694 55.6009C106.237 55.8774 106.712 56.2732 107.086 56.7593V56.7593L108.653 55.1658C108.102 54.4867 107.401 53.9493 106.606 53.5971C105.789 53.2142 104.901 53.0152 104.001 53.0136C103.198 53.0081 102.401 53.1645 101.657 53.4735C100.953 53.7634 100.31 54.1875 99.7626 54.7229C99.2224 55.2586 98.7928 55.8981 98.4988 56.6039C98.194 57.344 98.0364 58.1378 98.035 58.9399C98.0337 59.7419 98.1887 60.5363 98.4911 61.2774C98.7817 61.9808 99.2086 62.6178 99.7465 63.1506C100.294 63.6858 100.937 64.1097 101.642 64.3992C102.391 64.7093 103.193 64.8654 104.001 64.8584V64.8584ZM134.314 64.8755C135.115 64.8815 135.909 64.7251 136.65 64.4156C137.351 64.1269 137.989 63.7003 138.527 63.1604C139.066 62.6204 139.493 61.9779 139.785 61.2696C140.092 60.5339 140.249 59.7435 140.249 58.9449C140.249 58.1464 140.092 57.3559 139.785 56.6202C139.493 55.912 139.066 55.2694 138.527 54.7294C137.989 54.1895 137.351 53.7629 136.65 53.4743C135.157 52.8613 133.487 52.8613 131.994 53.4743C131.293 53.7629 130.655 54.1895 130.117 54.7294C129.578 55.2694 129.151 55.912 128.859 56.6202C128.553 57.356 128.395 58.1464 128.395 58.9449C128.395 59.7434 128.553 60.5339 128.859 61.2696C129.151 61.9779 129.579 62.6204 130.117 63.1604C130.655 63.7003 131.293 64.1269 131.994 64.4156C132.73 64.7239 133.519 64.8801 134.315 64.8747L134.314 64.8755ZM134.314 62.6907C133.844 62.6947 133.379 62.6013 132.945 62.4163C132.512 62.2312 132.121 61.9584 131.795 61.6146C131.474 61.2698 131.222 60.8654 131.052 60.4235C130.689 59.4692 130.689 58.4121 131.052 57.4578C131.223 57.0192 131.475 56.6178 131.795 56.2753C132.121 55.9314 132.512 55.6586 132.945 55.4736C133.379 55.2885 133.844 55.1952 134.314 55.1992C134.798 55.1955 135.277 55.2934 135.722 55.4866C136.147 55.6693 136.53 55.9376 136.85 56.2753C137.169 56.6178 137.422 57.0192 137.593 57.4578C137.956 58.4122 137.956 59.4692 137.593 60.4235C137.423 60.8654 137.171 61.2698 136.85 61.6146C136.53 61.9523 136.147 62.2206 135.722 62.4032C135.278 62.5961 134.799 62.6937 134.315 62.6899L134.314 62.6907ZM169.474 64.6953V62.5928H163.347V53.1946H161.029V64.6937L169.474 64.6953ZM198.717 64.6953V62.5928H192.589V53.1946H190.27V64.6937L198.717 64.6953ZM228.182 64.6953V62.6254H221.832V59.8975H225.975V57.8929H221.832V55.2668H228.118V53.1969H219.511V64.696L228.182 64.6953ZM253.905 64.8592C254.787 64.8579 255.657 64.6617 256.456 64.2842C257.242 63.932 257.939 63.4042 258.496 62.7404V62.7404L256.976 61.1966C256.603 61.652 256.14 62.0226 255.616 62.2843C255.103 62.5366 254.539 62.6658 253.969 62.6619C253.487 62.6672 253.01 62.5755 252.564 62.3923C252.118 62.209 251.712 61.9378 251.37 61.5944C251.04 61.2582 250.78 60.8589 250.604 60.4196C250.415 59.9534 250.32 59.4536 250.324 58.9496C250.318 58.4406 250.411 57.9355 250.596 57.4625C250.768 57.0222 251.023 56.6205 251.348 56.2799C251.673 55.9418 252.062 55.6736 252.491 55.4913C252.939 55.2985 253.42 55.2007 253.907 55.2038C254.495 55.2017 255.076 55.3392 255.602 55.6055C256.145 55.882 256.621 56.2777 256.994 56.764V56.764L258.562 55.1704C258.011 54.4914 257.309 53.9539 256.515 53.6017C255.698 53.2191 254.81 53.02 253.91 53.0182C253.107 53.0127 252.31 53.1691 251.567 53.4782C250.862 53.7678 250.218 54.1916 249.671 54.7268C249.131 55.2624 248.701 55.9019 248.406 56.6078C248.102 57.3479 247.944 58.1417 247.943 58.9438C247.941 59.7458 248.096 60.5402 248.399 61.2813C248.689 61.9846 249.116 62.6216 249.654 63.1545C250.202 63.6896 250.845 64.1134 251.55 64.4031C252.297 64.7113 253.098 64.8661 253.905 64.8584V64.8592ZM284.587 64.6953V55.2971H288.345V53.1938H278.491V55.2971H282.267V64.6937L284.587 64.6953ZM311.157 64.6953V53.1962H308.837V64.6953H311.157ZM337.872 64.8763C338.672 64.8823 339.466 64.7259 340.207 64.4163C340.908 64.1276 341.546 63.7011 342.085 63.1612C342.623 62.6212 343.05 61.9786 343.343 61.2704C343.648 60.5346 343.806 59.7442 343.806 58.9457C343.806 58.1472 343.648 57.3568 343.343 56.621C343.05 55.9128 342.623 55.2701 342.085 54.7302C341.546 54.1903 340.908 53.7637 340.207 53.4751C338.714 52.8623 337.045 52.8623 335.552 53.4751C334.851 53.7641 334.213 54.1909 333.675 54.7307C333.137 55.2706 332.71 55.913 332.417 56.621C332.111 57.3567 331.953 58.1471 331.953 58.9457C331.953 59.7443 332.111 60.5348 332.417 61.2704C332.71 61.9784 333.137 62.6208 333.675 63.1607C334.213 63.7005 334.851 64.1273 335.552 64.4163C336.288 64.7242 337.076 64.8801 337.872 64.8747V64.8763ZM337.872 62.6915C337.39 62.6958 336.914 62.5978 336.472 62.404C336.05 62.2201 335.67 61.9519 335.352 61.6154C335.031 61.2708 334.778 60.8663 334.608 60.4243C334.245 59.4699 334.245 58.4129 334.608 57.4586C334.779 57.0198 335.032 56.6184 335.352 56.2761C335.67 55.9395 336.05 55.6713 336.472 55.4874C336.914 55.2936 337.39 55.1956 337.872 55.1999C338.355 55.1962 338.834 55.2941 339.279 55.4874C339.703 55.67 340.087 55.9383 340.407 56.2761C340.727 56.6186 340.979 57.02 341.15 57.4586C341.514 58.4128 341.514 59.47 341.15 60.4243C340.98 60.8662 340.728 61.2706 340.407 61.6154C340.087 61.9531 339.703 62.2214 339.279 62.404C338.834 62.5967 338.355 62.6941 337.872 62.6899V62.6915ZM366.777 64.696V57.0041L372.488 64.696H374.535V53.1969H372.36V60.6387L366.793 53.1969H364.585V64.696H366.777Z" fill="white"/>
</svg>
