<svg width="618" height="177" viewBox="0 0 618 177" fill="none" xmlns="http://www.w3.org/2000/svg">
<path d="M88.4685 14.5C48.0494 14.5 15.3787 47.4012 15.3787 88.25C15.3787 129.099 48.0494 162 88.4685 162C128.888 162 161.556 129.099 161.556 88.25C161.556 85.8198 161.433 83.4195 161.207 81.0508H138.105V66.5371H158.349C149.187 36.3474 121.403 14.5 88.4685 14.5V14.5Z" fill="#3939FF"/>
<path d="M88.4685 0C40.1485 0 0.878663 39.6288 0.878662 88.25C0.878662 90.6446 1.00037 93.0102 1.18726 95.3574H15.7224C15.5021 93.0182 15.3787 90.6491 15.3787 88.25C15.3787 47.4012 48.0494 14.5 88.4685 14.5C121.403 14.5 149.187 36.3474 158.349 66.5371H173.365C163.738 28.3634 129.346 3e-06 88.4685 0V0ZM175.74 81.0508H161.207C161.433 83.4195 161.556 85.8198 161.556 88.25C161.556 129.099 128.888 162 88.4685 162C55.5012 162 27.695 140.109 18.5603 109.873H3.55054C13.1471 148.092 47.5595 176.5 88.4685 176.5C136.789 176.5 176.056 136.871 176.056 88.25C176.056 85.8242 175.932 83.428 175.74 81.0508V81.0508ZM15.7302 95.3574H15.7224C16.0115 97.829 15.9296 97.4452 15.7302 95.3574Z" fill="black"/>
<path d="M138.463 81.2089V95.6528L168.806 95.5C172.81 95.4798 176.056 92.2541 176.056 88.25C176.056 84.2459 172.811 81 168.806 81M40.0584 81H7.82983C3.82577 81 0.579834 84.2459 0.579834 88.25C0.579834 92.2541 3.82577 95.5 7.82983 95.5H39.9666" fill="black" fill-opacity="0.992157"/>
<path d="M89.3337 138.496C116.81 138.496 139.084 116.222 139.084 88.7461C139.084 61.2699 116.81 38.9961 89.3337 38.9961C61.8576 38.9961 39.5837 61.2699 39.5837 88.7461C39.5837 116.222 61.8576 138.496 89.3337 138.496Z" fill="#FFC600" stroke="black" stroke-opacity="0.992157" stroke-width="12.5" stroke-linecap="round" stroke-linejoin="round"/>
<path d="M72.3396 75.5059C62.8173 75.5059 54.9275 83.2522 54.9275 92.7559H64.9275C64.9275 88.7286 68.1507 85.5059 72.3396 85.5059C76.5285 85.5059 79.7537 88.7286 79.7537 92.7559H89.7537C89.7537 83.2522 81.8619 75.5059 72.3396 75.5059ZM106.289 75.6094C96.7665 75.6094 88.8748 83.3557 88.8748 92.8594H98.8748C98.8748 88.8321 102.1 85.6094 106.289 85.6094C110.478 85.6094 113.701 88.8321 113.701 92.8594H123.701C123.701 83.3557 115.811 75.6094 106.289 75.6094Z" fill="black" fill-opacity="0.992157"/>
<path d="M261.945 62.8904H252.346C248.302 59.3585 244.905 58.2334 235.444 58.4081C226.857 58.9127 224.686 59.8208 219.011 65.0483C217.472 66.4463 220.49 67.9458 221.976 67.9308H263.625C267.481 68.0333 269.885 71.1104 268.289 75.9232C264.028 88.3268 254.791 95.9612 240.745 97.4718H230.952C223.535 96.8472 210.794 93.6626 206.13 84.6988C205.054 82.3022 206.489 80.9667 208.075 80.9572L215.2 81.1966C218.637 81.4835 228.218 88.0457 231.114 87.9129L241.158 87.8212C242.836 87.9063 250.708 83.8276 254.103 80.2125C256.228 78.1466 254.844 76.4629 253.487 76.2727L207.452 76.6823C203.499 76.5442 203.692 74.589 203.635 71.3135C203.563 56.296 221.784 49.8875 227.757 48.6402C235.714 47.455 240.867 47.8613 245.216 48.483C252.127 50.1881 257.889 53.5783 263.964 59.2595C265.639 60.6328 263.615 63.0918 261.945 62.8904V62.8904Z" fill="white" fill-opacity="0.947941"/>
<path d="M275.943 53.4181V89.2012C275.918 92.7041 276.536 93.9598 280.241 93.7988H320.245C324.168 93.8261 323.89 86.0488 320.245 86.1501H291.945C288.537 86.7561 286.98 76.5226 291.945 75.4444H320.245C324.058 75.6202 323.785 67.6916 320.245 67.799H291.473C289.042 67.8343 286.697 60.9775 291.473 58.4153H320.245C323.947 58.9056 324.928 49.8421 320.245 49.7852H279.497C277.567 49.9293 276.016 50.301 275.943 53.4181V53.4181Z" fill="white" fill-opacity="0.947941"/>
<path d="M328.753 89.6862V53.5619C328.722 50.6693 329.558 49.7141 332.923 49.8065C333.984 49.8356 338.5 49.7648 339.947 49.7529C344.651 49.7141 345.006 50.8598 346.582 53.5619L357.819 77.2809C358.946 78.335 360.115 78.2254 360.796 77.0998L372.238 52.4034C373.13 50.9595 374.147 49.9557 375.719 49.9665H385.412C387.996 50.0144 388.562 51.3241 388.584 52.4034V90.4592C388.544 92.8677 387.796 93.9024 385.128 93.9024H379.912C379.912 93.9024 376.059 93.9024 375.739 90.4592V75.1262C375.599 72.762 374.443 73.6647 373.565 75.5767L366.272 90.8334C364.224 94.8385 364.148 93.9024 362.829 93.9024H355.102C353.939 93.9024 352.636 93.9024 351.253 91.2864L343.882 75.1698C343.134 73.8645 341.679 73.0647 341.51 75.1698L341.511 89.7341C341.558 92.0724 341.026 93.9145 339.026 93.9024C337.014 93.8994 335.08 93.9024 332.989 93.8944C331.019 93.8864 328.747 94.8217 328.753 89.6866L328.753 89.6862Z" fill="white" fill-opacity="0.947941"/>
<path d="M406.212 49.7129H401.038C398.552 49.7129 396.537 51.7281 396.537 54.214V89.4001C396.537 91.886 398.552 93.9012 401.038 93.9012H406.212C408.698 93.9012 410.713 91.886 410.713 89.4001V54.214C410.713 51.7281 408.698 49.7129 406.212 49.7129Z" fill="white" fill-opacity="0.947941"/>
<path d="M429.346 71.6371C428.084 77.4464 445.698 98.9539 468.853 76.315C474.077 71.2074 481.481 76.681 480.78 78.4393C476.786 88.4528 464.661 96.9011 449.657 96.9011C431.603 96.9011 416.968 85.59 416.968 71.6371C416.968 57.6841 431.603 46.373 449.657 46.373C464.783 46.373 478.898 53.9294 481.239 65.095C481.695 67.2676 473.487 72.8258 468.697 67.1602C451.659 47.0104 431.41 62.1356 429.346 71.6371Z" fill="white" fill-opacity="0.947941"/>
<path d="M518.996 46.1367C514.76 46.1367 510.566 46.7843 506.653 48.0428C502.74 49.3012 499.185 51.1457 496.19 53.471C493.195 55.7963 490.819 58.5568 489.198 61.595C487.578 64.6331 486.744 67.8893 486.744 71.1777C486.744 74.466 487.578 77.722 489.199 80.7599C490.82 83.7978 493.196 86.5581 496.19 88.8832C499.185 91.2083 502.741 93.0527 506.654 94.311C510.567 95.5693 514.761 96.2169 518.996 96.2168C527.549 96.2165 535.752 93.5784 541.8 88.8827C547.848 84.187 551.246 77.8184 551.246 71.1777C551.246 67.8895 550.412 64.6334 548.792 61.5953C547.171 58.5573 544.796 55.7968 541.801 53.4715C538.806 51.1462 535.251 49.3017 531.338 48.0432C527.425 46.7847 523.231 46.1369 518.996 46.1367V46.1367ZM519.215 56.959C524.42 56.9593 529.411 58.4684 533.091 61.1543C536.772 63.8402 538.839 67.4829 538.84 71.2812C538.839 75.0796 536.772 78.7223 533.091 81.4082C529.411 84.0941 524.42 85.6032 519.215 85.6035C514.009 85.6036 509.017 84.0947 505.336 81.4087C501.656 78.7228 499.588 75.0798 499.588 71.2812C499.588 67.4827 501.656 63.8397 505.336 61.1538C509.017 58.4678 514.009 56.9589 519.215 56.959V56.959Z" fill="white" fill-opacity="0.947941"/>
<path d="M558.169 89.6862V53.5619C558.138 50.6693 558.974 49.7141 562.339 49.8065C563.399 49.8356 567.916 49.7648 569.362 49.7529C574.066 49.7141 574.421 50.8598 575.998 53.5619L587.234 77.2809C588.362 78.335 589.531 78.2254 590.212 77.0998L601.654 52.4034C602.546 50.9595 603.562 49.9557 605.134 49.9665H614.828C617.411 50.0144 617.977 51.3241 618 52.4034V90.4592C617.96 92.8677 617.211 93.9024 614.544 93.9024H609.328C609.328 93.9024 605.474 93.9024 605.154 90.4592V75.1262C605.014 72.762 603.858 73.6647 602.98 75.5767L595.687 90.8334C593.64 94.8385 593.563 93.9024 592.244 93.9024H584.518C583.355 93.9024 582.051 93.9024 580.669 91.2864L573.298 75.1698C572.55 73.8645 571.095 73.0647 570.926 75.1698L570.927 89.7341C570.973 92.0724 570.441 93.9145 568.442 93.9024C566.43 93.8994 564.496 93.9024 562.405 93.8944C560.434 93.8864 558.162 94.8217 558.168 89.6866L558.169 89.6862Z" fill="white" fill-opacity="0.947941"/>
<path d="M212.576 130.335C213.897 130.333 215.202 130.039 216.399 129.473C217.577 128.946 218.622 128.155 219.456 127.16V127.16L217.179 124.845C216.62 125.527 215.925 126.083 215.141 126.475C214.372 126.853 213.527 127.047 212.672 127.041C211.951 127.049 211.235 126.911 210.566 126.637C209.898 126.362 209.289 125.956 208.776 125.441C208.283 124.937 207.892 124.339 207.629 123.681C207.346 122.982 207.203 122.233 207.21 121.478C207.202 120.715 207.34 119.958 207.617 119.249C207.875 118.589 208.258 117.987 208.744 117.477C209.232 116.97 209.814 116.568 210.458 116.295C211.129 116.006 211.851 115.86 212.579 115.864C213.458 115.861 214.325 116.065 215.112 116.462C215.926 116.876 216.638 117.469 217.198 118.198V118.198L219.548 115.809C218.722 114.792 217.67 113.986 216.479 113.459C215.256 112.885 213.924 112.587 212.576 112.584C211.372 112.576 210.178 112.81 209.063 113.273C208.008 113.708 207.044 114.344 206.224 115.146C205.414 115.949 204.77 116.907 204.33 117.965C203.873 119.074 203.637 120.263 203.635 121.465C203.633 122.667 203.865 123.858 204.318 124.968C204.754 126.023 205.393 126.977 206.2 127.776C207.02 128.578 207.984 129.213 209.04 129.647C210.162 130.112 211.364 130.345 212.576 130.335V130.335ZM258.003 130.361C259.204 130.37 260.393 130.135 261.503 129.671C262.554 129.239 263.51 128.599 264.317 127.79C265.123 126.981 265.764 126.018 266.202 124.957C266.661 123.854 266.897 122.67 266.897 121.473C266.897 120.276 266.661 119.092 266.202 117.989C265.764 116.928 265.124 115.965 264.317 115.156C263.511 114.346 262.554 113.707 261.503 113.275C259.266 112.356 256.764 112.356 254.527 113.275C253.475 113.707 252.519 114.346 251.713 115.156C250.906 115.965 250.265 116.928 249.827 117.989C249.369 119.092 249.133 120.276 249.133 121.473C249.133 122.67 249.369 123.854 249.827 124.957C250.265 126.018 250.906 126.981 251.713 127.79C252.519 128.599 253.475 129.239 254.527 129.671C255.629 130.133 256.812 130.367 258.004 130.359L258.003 130.361ZM258.003 127.086C257.299 127.092 256.601 126.952 255.952 126.675C255.303 126.398 254.716 125.989 254.228 125.474C253.747 124.957 253.368 124.351 253.114 123.689C252.57 122.259 252.57 120.675 253.114 119.244C253.371 118.587 253.749 117.986 254.228 117.472C254.716 116.957 255.303 116.548 255.952 116.271C256.601 115.993 257.299 115.854 258.003 115.86C258.728 115.854 259.447 116.001 260.113 116.29C260.749 116.564 261.324 116.966 261.803 117.472C262.282 117.986 262.66 118.587 262.917 119.244C263.461 120.675 263.461 122.259 262.917 123.689C262.662 124.351 262.284 124.957 261.803 125.474C261.324 125.98 260.749 126.382 260.113 126.656C259.447 126.945 258.729 127.091 258.004 127.085L258.003 127.086ZM310.694 130.09V126.94H301.512V112.855H298.038V130.088L310.694 130.09ZM354.517 130.09V126.94H345.335V112.855H341.859V130.088L354.517 130.09ZM398.674 130.09V126.989H389.158V122.9H395.367V119.896H389.158V115.961H398.579V112.859H385.68V130.092L398.674 130.09ZM437.223 130.336C438.544 130.334 439.849 130.04 441.046 129.475C442.224 128.947 443.269 128.156 444.103 127.161V127.161L441.824 124.847C441.266 125.53 440.571 126.085 439.787 126.477C439.018 126.855 438.173 127.049 437.318 127.043C436.597 127.051 435.881 126.914 435.213 126.639C434.544 126.365 433.936 125.958 433.424 125.443C432.93 124.94 432.539 124.341 432.276 123.683C431.993 122.984 431.85 122.235 431.856 121.48C431.848 120.717 431.987 119.96 432.264 119.251C432.522 118.592 432.904 117.99 433.39 117.479C433.877 116.972 434.46 116.571 435.104 116.297C435.775 116.008 436.497 115.862 437.225 115.867C438.107 115.863 438.977 116.069 439.766 116.469C440.58 116.883 441.293 117.476 441.852 118.205V118.205L444.202 115.816C443.376 114.799 442.324 113.993 441.133 113.466C439.91 112.892 438.579 112.594 437.231 112.591C436.027 112.583 434.833 112.817 433.719 113.28C432.662 113.714 431.698 114.35 430.878 115.152C430.068 115.954 429.424 116.913 428.983 117.971C428.526 119.08 428.29 120.269 428.288 121.471C428.286 122.673 428.518 123.864 428.971 124.974C429.407 126.028 430.046 126.983 430.852 127.782C431.673 128.583 432.637 129.218 433.693 129.653C434.814 130.115 436.013 130.346 437.223 130.335V130.336ZM483.203 130.09V116.006H488.835V112.854H474.068V116.006H479.726V130.088L483.203 130.09ZM523.021 130.09V112.858H519.545V130.09H523.021ZM563.056 130.362C564.256 130.371 565.446 130.136 566.555 129.672C567.607 129.24 568.563 128.601 569.369 127.791C570.176 126.982 570.817 126.019 571.255 124.958C571.713 123.855 571.949 122.671 571.949 121.474C571.949 120.277 571.713 119.093 571.255 117.99C570.817 116.929 570.176 115.966 569.369 115.157C568.563 114.348 567.607 113.708 566.555 113.276C564.318 112.358 561.817 112.358 559.58 113.276C558.53 113.709 557.574 114.349 556.767 115.158C555.961 115.967 555.32 116.929 554.882 117.99C554.423 119.093 554.187 120.277 554.187 121.474C554.187 122.671 554.423 123.856 554.882 124.958C555.32 126.019 555.961 126.982 556.767 127.791C557.574 128.6 558.53 129.239 559.58 129.672C560.682 130.134 561.864 130.367 563.056 130.359V130.362ZM563.056 127.088C562.335 127.094 561.62 126.947 560.959 126.657C560.327 126.381 559.756 125.979 559.281 125.475C558.799 124.959 558.42 124.352 558.165 123.69C557.621 122.26 557.621 120.676 558.165 119.246C558.422 118.588 558.801 117.986 559.281 117.473C559.756 116.969 560.327 116.567 560.959 116.292C561.62 116.001 562.335 115.854 563.056 115.861C563.78 115.855 564.498 116.002 565.164 116.292C565.801 116.565 566.376 116.967 566.855 117.473C567.334 117.987 567.713 118.588 567.97 119.246C568.514 120.676 568.514 122.26 567.97 123.69C567.715 124.352 567.336 124.958 566.855 125.475C566.376 125.981 565.801 126.383 565.164 126.657C564.498 126.946 563.78 127.091 563.056 127.085V127.088ZM606.374 130.092V118.564L614.932 130.092H618V112.859H614.74V124.011L606.398 112.859H603.089V130.092H606.374Z" fill="white"/>
</svg>
