<svg width="618" height="177" viewBox="0 0 618 177" fill="none" xmlns="http://www.w3.org/2000/svg">
<path d="M87.8887 0C39.5686 0 0.298829 39.6288 0.298828 88.25C0.298828 90.6446 0.420535 93.0102 0.607422 95.3574H15.1426C14.9222 93.0182 14.7988 90.6491 14.7988 88.25C14.7988 47.4012 47.4696 14.5 87.8887 14.5C120.824 14.5 148.608 36.3474 157.77 66.5371H172.785C163.158 28.3634 128.766 3e-06 87.8887 0V0ZM175.16 81.0508H160.627C160.853 83.4195 160.977 85.8198 160.977 88.25C160.977 129.099 128.308 162 87.8887 162C54.9213 162 27.1151 140.109 17.9805 109.873H2.9707C12.5672 148.092 46.9796 176.5 87.8887 176.5C136.209 176.5 175.477 136.871 175.477 88.25C175.477 85.8242 175.352 83.428 175.16 81.0508V81.0508ZM15.1504 95.3574H15.1426C15.4317 97.829 15.3498 97.4452 15.1504 95.3574Z" fill="white"/>
<path d="M137.883 81.2089V95.6528L168.227 95.5C172.231 95.4798 175.477 92.2541 175.477 88.25C175.477 84.2459 172.231 81 168.227 81M39.4786 81H7.25C3.24594 81 0 84.2459 0 88.25C0 92.2541 3.24594 95.5 7.25 95.5H39.3868" fill="white" fill-opacity="0.992157"/>
<path d="M88.7539 138.496C116.23 138.496 138.504 116.222 138.504 88.7461C138.504 61.2699 116.23 38.9961 88.7539 38.9961C61.2777 38.9961 39.0039 61.2699 39.0039 88.7461C39.0039 116.222 61.2777 138.496 88.7539 138.496Z" stroke="white" stroke-opacity="0.992157" stroke-width="12.5" stroke-linecap="round" stroke-linejoin="round"/>
<path d="M71.7598 75.5059C62.2375 75.5059 54.3477 83.2522 54.3477 92.7559H64.3477C64.3477 88.7286 67.5708 85.5059 71.7598 85.5059C75.9487 85.5059 79.1738 88.7286 79.1738 92.7559H89.1738C89.1738 83.2522 81.282 75.5059 71.7598 75.5059ZM105.709 75.6094C96.1867 75.6094 88.2949 83.3557 88.2949 92.8594H98.2949C98.2949 88.8321 101.52 85.6094 105.709 85.6094C109.898 85.6094 113.121 88.8321 113.121 92.8594H123.121C123.121 83.3557 115.231 75.6094 105.709 75.6094Z" fill="white" fill-opacity="0.992157"/>
<path d="M261.366 62.8904H251.766C247.722 59.3585 244.325 58.2334 234.865 58.4081C226.277 58.9127 224.107 59.8208 218.431 65.0483C216.892 66.4463 219.91 67.9458 221.396 67.9308H263.045C266.901 68.0333 269.305 71.1104 267.709 75.9232C263.448 88.3268 254.212 95.9612 240.165 97.4718H230.372C222.956 96.8472 210.214 93.6626 205.55 84.6988C204.475 82.3022 205.909 80.9667 207.495 80.9572L214.62 81.1966C218.058 81.4835 227.638 88.0457 230.534 87.9129L240.578 87.8212C242.256 87.9063 250.128 83.8276 253.523 80.2125C255.648 78.1466 254.264 76.4629 252.907 76.2727L206.872 76.6823C202.919 76.5442 203.113 74.589 203.055 71.3135C202.983 56.296 221.204 49.8875 227.177 48.6402C235.134 47.455 240.287 47.8613 244.636 48.483C251.547 50.1881 257.309 53.5783 263.384 59.2595C265.06 60.6328 263.035 63.0918 261.366 62.8904V62.8904Z" fill="white" fill-opacity="0.947941"/>
<path d="M275.363 53.4181V89.2012C275.338 92.7041 275.956 93.9598 279.661 93.7988H319.665C323.588 93.8261 323.31 86.0488 319.665 86.1501H291.366C287.957 86.7561 286.4 76.5226 291.366 75.4444H319.665C323.478 75.6202 323.205 67.6916 319.665 67.799H290.893C288.462 67.8343 286.117 60.9775 290.893 58.4153H319.665C323.367 58.9056 324.348 49.8421 319.665 49.7852H278.917C276.988 49.9293 275.436 50.301 275.363 53.4181V53.4181Z" fill="white" fill-opacity="0.947941"/>
<path d="M328.173 89.6862V53.5619C328.142 50.6693 328.978 49.7141 332.344 49.8065C333.404 49.8356 337.921 49.7648 339.367 49.7529C344.071 49.7141 344.426 50.8598 346.003 53.5619L357.239 77.2809C358.366 78.335 359.535 78.2254 360.216 77.0998L371.659 52.4034C372.551 50.9595 373.567 49.9557 375.139 49.9665H384.832C387.416 50.0144 387.982 51.3241 388.004 52.4034V90.4592C387.964 92.8677 387.216 93.9024 384.548 93.9024H379.332C379.332 93.9024 375.479 93.9024 375.159 90.4592V75.1262C375.019 72.762 373.863 73.6647 372.985 75.5767L365.692 90.8334C363.645 94.8385 363.568 93.9024 362.249 93.9024H354.522C353.359 93.9024 352.056 93.9024 350.673 91.2864L343.302 75.1698C342.554 73.8645 341.1 73.0647 340.93 75.1698L340.931 89.7341C340.978 92.0724 340.446 93.9145 338.447 93.9024C336.434 93.8994 334.501 93.9024 332.409 93.8944C330.439 93.8864 328.167 94.8217 328.173 89.6866L328.173 89.6862Z" fill="white" fill-opacity="0.947941"/>
<path d="M405.632 49.7129H400.458C397.972 49.7129 395.957 51.7281 395.957 54.214V89.4001C395.957 91.886 397.972 93.9012 400.458 93.9012H405.632C408.118 93.9012 410.134 91.886 410.134 89.4001V54.214C410.134 51.7281 408.118 49.7129 405.632 49.7129Z" fill="white" fill-opacity="0.947941"/>
<path d="M428.766 71.6371C427.504 77.4464 445.119 98.9539 468.273 76.315C473.497 71.2074 480.901 76.681 480.2 78.4393C476.206 88.4528 464.081 96.9011 449.077 96.9011C431.023 96.9011 416.388 85.59 416.388 71.6371C416.388 57.6841 431.023 46.373 449.077 46.373C464.203 46.373 478.318 53.9294 480.659 65.095C481.115 67.2676 472.907 72.8258 468.117 67.1602C451.08 47.0104 430.83 62.1356 428.766 71.6371Z" fill="white" fill-opacity="0.947941"/>
<path d="M518.416 46.1367C514.18 46.1367 509.986 46.7843 506.073 48.0428C502.16 49.3012 498.605 51.1457 495.61 53.471C492.615 55.7963 490.239 58.5568 488.619 61.595C486.998 64.6331 486.164 67.8893 486.164 71.1777C486.164 74.466 486.998 77.722 488.619 80.7599C490.24 83.7978 492.616 86.5581 495.611 88.8832C498.606 91.2083 502.161 93.0527 506.074 94.311C509.987 95.5693 514.181 96.2169 518.416 96.2168C526.969 96.2165 535.172 93.5784 541.22 88.8827C547.268 84.187 550.666 77.8184 550.666 71.1777C550.666 67.8895 549.832 64.6334 548.212 61.5953C546.591 58.5573 544.216 55.7968 541.221 53.4715C538.226 51.1462 534.671 49.3017 530.758 48.0432C526.845 46.7847 522.651 46.1369 518.416 46.1367V46.1367ZM518.635 56.959C523.84 56.9593 528.831 58.4684 532.512 61.1543C536.192 63.8402 538.26 67.4829 538.26 71.2812C538.26 75.0796 536.192 78.7223 532.512 81.4082C528.831 84.0941 523.84 85.6032 518.635 85.6035C513.429 85.6036 508.437 84.0947 504.757 81.4087C501.076 78.7228 499.008 75.0798 499.008 71.2812C499.008 67.4827 501.076 63.8397 504.757 61.1538C508.437 58.4678 513.429 56.9589 518.635 56.959V56.959Z" fill="white" fill-opacity="0.947941"/>
<path d="M557.589 89.6862V53.5619C557.558 50.6693 558.394 49.7141 561.759 49.8065C562.819 49.8356 567.336 49.7648 568.782 49.7529C573.486 49.7141 573.841 50.8598 575.418 53.5619L586.654 77.2809C587.782 78.335 588.951 78.2254 589.632 77.0998L601.074 52.4034C601.966 50.9595 602.983 49.9557 604.554 49.9665H614.248C616.831 50.0144 617.397 51.3241 617.42 52.4034V90.4592C617.38 92.8677 616.632 93.9024 613.964 93.9024H608.748C608.748 93.9024 604.894 93.9024 604.574 90.4592V75.1262C604.435 72.762 603.279 73.6647 602.401 75.5767L595.108 90.8334C593.06 94.8385 592.983 93.9024 591.664 93.9024H583.938C582.775 93.9024 581.472 93.9024 580.089 91.2864L572.718 75.1698C571.97 73.8645 570.515 73.0647 570.346 75.1698L570.347 89.7341C570.394 92.0724 569.861 93.9145 567.862 93.9024C565.85 93.8994 563.916 93.9024 561.825 93.8944C559.855 93.8864 557.582 94.8217 557.588 89.6866L557.589 89.6862Z" fill="white" fill-opacity="0.947941"/>
<path d="M211.996 130.335C213.317 130.333 214.622 130.039 215.819 129.473C216.997 128.946 218.042 128.155 218.876 127.16V127.16L216.599 124.845C216.04 125.527 215.346 126.083 214.561 126.475C213.792 126.853 212.947 127.047 212.092 127.041C211.371 127.049 210.655 126.911 209.986 126.637C209.318 126.362 208.709 125.956 208.197 125.441C207.703 124.937 207.313 124.339 207.049 123.681C206.766 122.982 206.623 122.233 206.63 121.478C206.622 120.715 206.76 119.958 207.037 119.249C207.296 118.589 207.679 117.987 208.164 117.477C208.652 116.97 209.235 116.568 209.878 116.295C210.549 116.006 211.271 115.86 211.999 115.864C212.878 115.861 213.745 116.065 214.533 116.462C215.346 116.876 216.059 117.469 216.618 118.198V118.198L218.968 115.809C218.142 114.792 217.09 113.986 215.9 113.459C214.676 112.885 213.344 112.587 211.996 112.584C210.792 112.576 209.598 112.81 208.484 113.273C207.428 113.708 206.464 114.344 205.644 115.146C204.834 115.949 204.191 116.907 203.75 117.965C203.293 119.074 203.057 120.263 203.055 121.465C203.053 122.667 203.285 123.858 203.738 124.968C204.174 126.023 204.814 126.977 205.62 127.776C206.44 128.578 207.405 129.213 208.461 129.647C209.582 130.112 210.784 130.345 211.996 130.335V130.335ZM257.423 130.361C258.624 130.37 259.814 130.135 260.923 129.671C261.974 129.239 262.931 128.599 263.737 127.79C264.544 126.981 265.184 126.018 265.622 124.957C266.081 123.854 266.317 122.67 266.317 121.473C266.317 120.276 266.081 119.092 265.622 117.989C265.184 116.928 264.544 115.965 263.737 115.156C262.931 114.346 261.974 113.707 260.923 113.275C258.686 112.356 256.184 112.356 253.947 113.275C252.896 113.707 251.939 114.346 251.133 115.156C250.326 115.965 249.686 116.928 249.248 117.989C248.789 119.092 248.553 120.276 248.553 121.473C248.553 122.67 248.789 123.854 249.248 124.957C249.686 126.018 250.326 126.981 251.133 127.79C251.939 128.599 252.896 129.239 253.947 129.671C255.049 130.133 256.232 130.367 257.425 130.359L257.423 130.361ZM257.423 127.086C256.719 127.092 256.021 126.952 255.372 126.675C254.723 126.398 254.136 125.989 253.648 125.474C253.167 124.957 252.789 124.351 252.534 123.689C251.99 122.259 251.99 120.675 252.534 119.244C252.791 118.587 253.169 117.986 253.648 117.472C254.136 116.957 254.723 116.548 255.372 116.271C256.021 115.993 256.719 115.854 257.423 115.86C258.148 115.854 258.867 116.001 259.533 116.29C260.17 116.564 260.744 116.966 261.223 117.472C261.702 117.986 262.08 118.587 262.337 119.244C262.881 120.675 262.881 122.259 262.337 123.689C262.083 124.351 261.704 124.957 261.223 125.474C260.744 125.98 260.17 126.382 259.533 126.656C258.867 126.945 258.149 127.091 257.425 127.085L257.423 127.086ZM310.115 130.09V126.94H300.932V112.855H297.459V130.088L310.115 130.09ZM353.937 130.09V126.94H344.755V112.855H341.279V130.088L353.937 130.09ZM398.094 130.09V126.989H388.578V122.9H394.787V119.896H388.578V115.961H397.999V112.859H385.1V130.092L398.094 130.09ZM436.643 130.336C437.964 130.334 439.269 130.04 440.466 129.475C441.644 128.947 442.689 128.156 443.523 127.161V127.161L441.245 124.847C440.686 125.53 439.992 126.085 439.207 126.477C438.438 126.855 437.593 127.049 436.738 127.043C436.017 127.051 435.302 126.914 434.633 126.639C433.964 126.365 433.356 125.958 432.844 125.443C432.35 124.94 431.96 124.341 431.696 123.683C431.413 122.984 431.27 122.235 431.276 121.48C431.268 120.717 431.407 119.96 431.684 119.251C431.942 118.592 432.324 117.99 432.81 117.479C433.298 116.972 433.88 116.571 434.524 116.297C435.195 116.008 435.917 115.862 436.645 115.867C437.527 115.863 438.397 116.069 439.187 116.469C440 116.883 440.713 117.476 441.272 118.205V118.205L443.622 115.816C442.796 114.799 441.744 113.993 440.554 113.466C439.33 112.892 437.999 112.594 436.651 112.591C435.447 112.583 434.253 112.817 433.139 113.28C432.083 113.714 431.118 114.35 430.298 115.152C429.488 115.954 428.844 116.913 428.403 117.971C427.946 119.08 427.71 120.269 427.708 121.471C427.706 122.673 427.938 123.864 428.391 124.974C428.827 126.028 429.467 126.983 430.273 127.782C431.093 128.583 432.057 129.218 433.113 129.653C434.234 130.115 435.434 130.346 436.643 130.335V130.336ZM482.623 130.09V116.006H488.255V112.854H473.488V116.006H479.146V130.088L482.623 130.09ZM522.441 130.09V112.858H518.965V130.09H522.441ZM562.476 130.362C563.676 130.371 564.866 130.136 565.976 129.672C567.027 129.24 567.983 128.601 568.79 127.791C569.596 126.982 570.237 126.019 570.675 124.958C571.133 123.855 571.369 122.671 571.369 121.474C571.369 120.277 571.133 119.093 570.675 117.99C570.237 116.929 569.596 115.966 568.79 115.157C567.983 114.348 567.027 113.708 565.976 113.276C563.739 112.358 561.237 112.358 559 113.276C557.95 113.709 556.994 114.349 556.188 115.158C555.381 115.967 554.741 116.929 554.302 117.99C553.843 119.093 553.607 120.277 553.607 121.474C553.607 122.671 553.843 123.856 554.302 124.958C554.741 126.019 555.381 126.982 556.188 127.791C556.994 128.6 557.95 129.239 559 129.672C560.102 130.134 561.284 130.367 562.476 130.359V130.362ZM562.476 127.088C561.755 127.094 561.041 126.947 560.379 126.657C559.747 126.381 559.176 125.979 558.701 125.475C558.219 124.959 557.84 124.352 557.585 123.69C557.042 122.26 557.042 120.676 557.585 119.246C557.842 118.588 558.221 117.986 558.701 117.473C559.176 116.969 559.747 116.567 560.379 116.292C561.041 116.001 561.755 115.854 562.476 115.861C563.201 115.855 563.918 116.002 564.584 116.292C565.221 116.565 565.796 116.967 566.275 117.473C566.755 117.987 567.133 118.588 567.39 119.246C567.934 120.676 567.934 122.26 567.39 123.69C567.135 124.352 566.757 124.958 566.275 125.475C565.796 125.981 565.221 126.383 564.584 126.657C563.918 126.946 563.2 127.091 562.476 127.085V127.088ZM605.794 130.092V118.564L614.352 130.092H617.42V112.859H614.16V124.011L605.818 112.859H602.509V130.092H605.794Z" fill="white"/>
</svg>
