<svg width="120" height="81" viewBox="0 0 120 81" fill="none" xmlns="http://www.w3.org/2000/svg">
<path fill-rule="evenodd" clip-rule="evenodd" d="M89.2519 2.5H30.7483C30.1348 2.5 29.6375 2.99735 29.6375 3.61085V33.1418C29.6375 36.2718 32.0652 38.6395 35.4197 38.7793C35.4433 38.7803 35.4676 38.7812 35.4925 38.7823C35.7208 38.7916 35.9987 38.803 36.284 38.8284C38.2576 39.0046 47.9191 39.8078 60.0001 39.8078C72.0811 39.8078 81.7426 39.0046 83.7162 38.8284C84.0015 38.803 84.2794 38.7916 84.5077 38.7823C84.5326 38.7812 84.5569 38.7803 84.5805 38.7793C87.935 38.6395 90.3627 36.2718 90.3627 33.1418V3.61085C90.3627 2.99734 89.8654 2.5 89.2519 2.5ZM30.7483 0.5C29.0302 0.5 27.6375 1.89278 27.6375 3.61085V33.1418C27.6375 37.4783 31.0502 40.5989 35.3364 40.7775C35.3602 40.7785 35.3839 40.7795 35.4076 40.7805C35.6419 40.7901 35.8716 40.7996 36.1061 40.8205C38.1131 40.9997 47.8385 41.8078 60.0001 41.8078C72.1617 41.8078 81.8871 40.9997 83.894 40.8205C84.1286 40.7996 84.3583 40.7901 84.5926 40.7805C84.6163 40.7795 84.64 40.7785 84.6638 40.7775C88.95 40.5989 92.3627 37.4783 92.3627 33.1418V3.61085C92.3627 1.89278 90.97 0.5 89.2519 0.5H30.7483Z" fill="white"/>
<path d="M31.4148 9.29923C31.4148 8.77153 31.8426 8.34375 32.3703 8.34375H34.9478C35.4755 8.34375 35.9033 8.77153 35.9033 9.29923C35.9033 9.82692 35.4755 10.2547 34.9478 10.2547H32.3703C31.8426 10.2547 31.4148 9.82692 31.4148 9.29923Z" fill="white"/>
<path d="M40.3477 9.29944C40.3477 9.72896 39.9995 10.0772 39.5699 10.0772C39.1404 10.0772 38.7922 9.72896 38.7922 9.29944C38.7922 8.86992 39.1404 8.52173 39.5699 8.52173C39.9995 8.52173 40.3477 8.86992 40.3477 9.29944Z" fill="white"/>
<path d="M40.4918 18.6542C40.4918 20.5012 38.9946 21.9984 37.1476 21.9984C35.3007 21.9984 33.8035 20.5012 33.8035 18.6542C33.8035 16.8073 35.3007 15.3101 37.1476 15.3101C38.9946 15.3101 40.4918 16.8073 40.4918 18.6542Z" fill="white"/>
<path fill-rule="evenodd" clip-rule="evenodd" d="M37.1477 23.3871C39.7615 23.3871 41.8805 21.2681 41.8805 18.6542C41.8805 16.0404 39.7615 13.9214 37.1477 13.9214C34.5338 13.9214 32.4148 16.0404 32.4148 18.6542C32.4148 21.2681 34.5338 23.3871 37.1477 23.3871ZM37.1477 24.3871C40.3138 24.3871 42.8805 21.8204 42.8805 18.6542C42.8805 15.4881 40.3138 12.9214 37.1477 12.9214C33.9815 12.9214 31.4148 15.4881 31.4148 18.6542C31.4148 21.8204 33.9815 24.3871 37.1477 24.3871Z" fill="white"/>
<path d="M35.3529 29.4532C35.3529 29.625 35.2136 29.7643 35.0418 29.7643C34.87 29.7643 34.7307 29.625 34.7307 29.4532C34.7307 29.2814 34.87 29.1421 35.0418 29.1421C35.2136 29.1421 35.3529 29.2814 35.3529 29.4532Z" fill="white"/>
<path d="M36.4061 29.4532C36.4061 29.625 36.2668 29.7643 36.095 29.7643C35.9232 29.7643 35.7839 29.625 35.7839 29.4532C35.7839 29.2814 35.9232 29.1421 36.095 29.1421C36.2668 29.1421 36.4061 29.2814 36.4061 29.4532Z" fill="white"/>
<path d="M37.4591 29.4532C37.4591 29.625 37.3198 29.7643 37.148 29.7643C36.9762 29.7643 36.8369 29.625 36.8369 29.4532C36.8369 29.2814 36.9762 29.1421 37.148 29.1421C37.3198 29.1421 37.4591 29.2814 37.4591 29.4532Z" fill="white"/>
<path d="M38.5113 29.4532C38.5113 29.625 38.3721 29.7643 38.2002 29.7643C38.0284 29.7643 37.8892 29.625 37.8892 29.4532C37.8892 29.2814 38.0284 29.1421 38.2002 29.1421C38.3721 29.1421 38.5113 29.2814 38.5113 29.4532Z" fill="white"/>
<path d="M39.5643 29.4532C39.5643 29.625 39.425 29.7643 39.2532 29.7643C39.0814 29.7643 38.9421 29.625 38.9421 29.4532C38.9421 29.2814 39.0814 29.1421 39.2532 29.1421C39.425 29.1421 39.5643 29.2814 39.5643 29.4532Z" fill="white"/>
<path d="M35.3529 30.542C35.3529 30.7138 35.2136 30.8531 35.0418 30.8531C34.87 30.8531 34.7307 30.7138 34.7307 30.542C34.7307 30.3702 34.87 30.231 35.0418 30.231C35.2136 30.231 35.3529 30.3702 35.3529 30.542Z" fill="white"/>
<path d="M36.4061 30.542C36.4061 30.7138 36.2668 30.8531 36.095 30.8531C35.9232 30.8531 35.7839 30.7138 35.7839 30.542C35.7839 30.3702 35.9232 30.231 36.095 30.231C36.2668 30.231 36.4061 30.3702 36.4061 30.542Z" fill="white"/>
<path d="M37.4591 30.542C37.4591 30.7138 37.3198 30.8531 37.148 30.8531C36.9762 30.8531 36.8369 30.7138 36.8369 30.542C36.8369 30.3702 36.9762 30.231 37.148 30.231C37.3198 30.231 37.4591 30.3702 37.4591 30.542Z" fill="white"/>
<path d="M38.5113 30.542C38.5113 30.7138 38.3721 30.8531 38.2002 30.8531C38.0284 30.8531 37.8892 30.7138 37.8892 30.542C37.8892 30.3702 38.0284 30.231 38.2002 30.231C38.3721 30.231 38.5113 30.3702 38.5113 30.542Z" fill="white"/>
<path d="M39.5643 30.542C39.5643 30.7138 39.425 30.8531 39.2532 30.8531C39.0814 30.8531 38.9421 30.7138 38.9421 30.542C38.9421 30.3702 39.0814 30.231 39.2532 30.231C39.425 30.231 39.5643 30.3702 39.5643 30.542Z" fill="white"/>
<path d="M35.3529 31.6309C35.3529 31.8027 35.2136 31.942 35.0418 31.942C34.87 31.942 34.7307 31.8027 34.7307 31.6309C34.7307 31.4591 34.87 31.3198 35.0418 31.3198C35.2136 31.3198 35.3529 31.4591 35.3529 31.6309Z" fill="white"/>
<path d="M36.4061 31.6309C36.4061 31.8027 36.2668 31.942 36.095 31.942C35.9232 31.942 35.7839 31.8027 35.7839 31.6309C35.7839 31.4591 35.9232 31.3198 36.095 31.3198C36.2668 31.3198 36.4061 31.4591 36.4061 31.6309Z" fill="white"/>
<path d="M37.4591 31.6309C37.4591 31.8027 37.3198 31.942 37.148 31.942C36.9762 31.942 36.8369 31.8027 36.8369 31.6309C36.8369 31.4591 36.9762 31.3198 37.148 31.3198C37.3198 31.3198 37.4591 31.4591 37.4591 31.6309Z" fill="white"/>
<path d="M38.5113 31.6309C38.5113 31.8027 38.3721 31.942 38.2002 31.942C38.0284 31.942 37.8892 31.8027 37.8892 31.6309C37.8892 31.4591 38.0284 31.3198 38.2002 31.3198C38.3721 31.3198 38.5113 31.4591 38.5113 31.6309Z" fill="white"/>
<path d="M39.5643 31.6309C39.5643 31.8027 39.425 31.942 39.2532 31.942C39.0814 31.942 38.9421 31.8027 38.9421 31.6309C38.9421 31.4591 39.0814 31.3198 39.2532 31.3198C39.425 31.3198 39.5643 31.4591 39.5643 31.6309Z" fill="white"/>
<path d="M35.3529 32.7195C35.3529 32.8913 35.2136 33.0306 35.0418 33.0306C34.87 33.0306 34.7307 32.8913 34.7307 32.7195C34.7307 32.5477 34.87 32.4084 35.0418 32.4084C35.2136 32.4084 35.3529 32.5477 35.3529 32.7195Z" fill="white"/>
<path d="M36.4061 32.7195C36.4061 32.8913 36.2668 33.0306 36.095 33.0306C35.9232 33.0306 35.7839 32.8913 35.7839 32.7195C35.7839 32.5477 35.9232 32.4084 36.095 32.4084C36.2668 32.4084 36.4061 32.5477 36.4061 32.7195Z" fill="white"/>
<path d="M37.4591 32.7195C37.4591 32.8913 37.3198 33.0306 37.148 33.0306C36.9762 33.0306 36.8369 32.8913 36.8369 32.7195C36.8369 32.5477 36.9762 32.4084 37.148 32.4084C37.3198 32.4084 37.4591 32.5477 37.4591 32.7195Z" fill="white"/>
<path d="M38.5113 32.7195C38.5113 32.8913 38.3721 33.0306 38.2002 33.0306C38.0284 33.0306 37.8892 32.8913 37.8892 32.7195C37.8892 32.5477 38.0284 32.4084 38.2002 32.4084C38.3721 32.4084 38.5113 32.5477 38.5113 32.7195Z" fill="white"/>
<path d="M39.5643 32.7195C39.5643 32.8913 39.425 33.0306 39.2532 33.0306C39.0814 33.0306 38.9421 32.8913 38.9421 32.7195C38.9421 32.5477 39.0814 32.4084 39.2532 32.4084C39.425 32.4084 39.5643 32.5477 39.5643 32.7195Z" fill="white"/>
<path d="M86.8771 6.2551C86.8771 6.99142 86.2802 7.58832 85.5439 7.58832C84.8076 7.58832 84.2107 6.99142 84.2107 6.2551C84.2107 5.51878 84.8076 4.92188 85.5439 4.92188C86.2802 4.92188 86.8771 5.51878 86.8771 6.2551Z" fill="white"/>
<path d="M88.2988 14.299C88.2988 15.5875 87.2543 16.6321 85.9657 16.6321C84.6772 16.6321 83.6326 15.5875 83.6326 14.299C83.6326 13.0104 84.6772 11.9658 85.9657 11.9658C87.2543 11.9658 88.2988 13.0104 88.2988 14.299Z" fill="white"/>
<path d="M82.6773 17.8319C82.6773 19.1205 81.6327 20.1651 80.3441 20.1651C79.0556 20.1651 78.011 19.1205 78.011 17.8319C78.011 16.5434 79.0556 15.4988 80.3441 15.4988C81.6327 15.4988 82.6773 16.5434 82.6773 17.8319Z" fill="white"/>
<path fill-rule="evenodd" clip-rule="evenodd" d="M74.3 4.72217H45.5913C45.3582 4.72217 45.1692 4.91115 45.1692 5.14427V33.6139C45.1692 33.8243 45.3154 33.9702 45.4862 33.9893C47.5314 34.2172 52.2957 34.6306 59.9457 34.6306C67.5957 34.6306 72.3599 34.2172 74.4051 33.9893C74.5759 33.9702 74.7221 33.8243 74.7221 33.6139V5.14427C74.7221 4.91115 74.5331 4.72217 74.3 4.72217ZM45.5913 3.72217C44.8059 3.72217 44.1692 4.35886 44.1692 5.14427V33.6139C44.1692 34.3144 44.6793 34.9055 45.3755 34.9831C47.4583 35.2152 52.2596 35.6306 59.9457 35.6306C67.6318 35.6306 72.433 35.2152 74.5158 34.9831C75.212 34.9055 75.7221 34.3144 75.7221 33.6139V5.14427C75.7221 4.35887 75.0854 3.72217 74.3 3.72217H45.5913Z" fill="white"/>
<path fill-rule="evenodd" clip-rule="evenodd" d="M48.4583 9.07715V30.9418H71.3895V9.07715H48.4583ZM48.036 8.07715C47.7169 8.07715 47.4583 8.33581 47.4583 8.65488V31.3641C47.4583 31.6832 47.7169 31.9418 48.036 31.9418H71.8118C72.1308 31.9418 72.3895 31.6832 72.3895 31.3641V8.65488C72.3895 8.33581 72.1308 8.07715 71.8118 8.07715H48.036Z" fill="white"/>
</svg>
