<svg width="294" height="121" viewBox="0 0 294 121" fill="none" xmlns="http://www.w3.org/2000/svg">
<g clip-path="url(#clip0_887_1707)">
<path d="M45.8998 64.7776C47.3005 60.5983 48.5532 56.3692 49.8603 52.1577C50.1826 51.1192 50.4848 50.075 50.7968 49.0329C50.8367 48.8073 51.9864 44.7862 52.4242 42.9778C52.9484 40.8144 53.5119 38.6421 53.7737 36.4399C53.9356 35.0759 54.5359 34.3712 55.7141 34.0084C56.4018 33.7968 56.7811 33.4455 57.4936 33.3937C58.0783 33.3508 58.4855 33.2043 58.7551 32.6667C58.9838 32.2119 59.5742 31.9299 59.88 31.5247C60.1067 31.2241 60.3939 30.867 60.724 30.7667C61.6683 30.4815 62.6753 30.391 63.6092 30.0816C64.7875 29.6919 66.1494 29.411 67.0063 28.6208C67.8833 27.8126 68.6973 27.3727 69.8289 27.2863C70.8772 27.2061 71.789 26.801 72.1269 25.703C72.337 25.0225 72.857 24.7162 73.3832 24.3778C73.8644 24.2805 74.1314 24.0875 74.1904 23.51C74.2494 22.9331 72.0813 23.2549 71.938 23.1101C71.271 22.4322 71.3352 22.2977 72.2133 21.966C72.7856 21.7502 73.4132 21.6819 74.0161 21.5469C74.3814 21.4599 74.7472 21.3725 75.112 21.285C75.9782 21.1722 76.8428 21.0501 77.7101 20.9487C79.2122 20.7707 80.718 20.6186 82.2175 20.425C82.5683 20.3795 82.9445 20.2719 83.2333 20.0789C83.4992 19.9014 83.863 19.2768 83.8723 18.9715C83.8816 18.6663 83.2798 18.4939 82.9916 18.5033C81.7927 18.5436 80.5891 18.6269 79.4016 18.7951C77.5538 19.058 75.7133 19.3803 73.8774 19.7187C72.3463 20.0013 70.8255 20.3422 69.3001 20.6569C69.0864 20.6822 66.3351 21.3233 66.1385 21.3797C65.5486 21.5199 64.9593 21.6602 64.3694 21.7999L64.2385 21.8185C63.6615 21.9205 63.0851 22.0229 62.5081 22.1248C60.7183 22.4958 58.9316 22.8844 57.1376 23.2327C56.1653 23.4205 55.1698 23.6632 54.2021 23.8697C52.8221 24.1646 51.469 24.4223 50.0848 24.6934C47.0231 25.2937 43.95 25.8323 40.8811 26.3958C40.5861 26.4067 29.9832 28.2891 24.3426 28.4547C23.035 28.493 21.7217 28.4708 20.4105 28.4599C19.9573 28.4563 19.5945 28.5318 19.4496 29.0534C19.2639 29.7214 19.4165 29.9393 20.1922 30.2471C20.5409 30.3863 20.8286 30.6802 21.1443 30.9038C20.781 31.1475 20.4426 31.4492 20.0463 31.6137C19.7756 31.727 19.4217 31.6235 19.1123 31.6675C18.8644 31.7027 18.585 31.7607 18.3946 31.9061C17.5646 32.5379 17.8187 33.2835 19.0331 33.8377C20.6455 34.574 20.7412 34.9186 19.7358 36.3752C19.5417 36.5082 19.1537 36.6324 19.1542 36.7742C19.1547 36.9149 19.5009 37.1053 19.7053 37.1638C19.8786 37.2135 20.0975 37.1053 20.2962 37.0665C20.5606 37.3594 20.9166 37.6119 21.0698 37.9539C21.3947 38.6799 21.8671 38.9681 22.6671 38.906C24.9009 38.7316 27.159 38.7482 29.3695 38.4279C31.681 38.0931 33.9241 37.3604 36.2764 37.1524C38.1961 36.9832 40.0982 36.6091 42.0086 36.3271C42.5245 36.251 42.822 36.4477 42.8039 36.9982C42.7801 37.7299 42.8463 38.5086 42.7154 39.1917C42.585 39.8736 42.184 42.1416 41.8208 43.741C41.3401 45.8605 40.6405 48.2479 40.627 48.3732C40.4149 49.1038 40.2038 49.8334 39.9921 50.564C39.2786 52.7937 37.5989 58.366 37.4629 58.9207C36.8373 61.466 34.1243 67.9977 33.7321 68.8427C32.8297 70.7867 31.9226 72.7416 30.8308 74.5811C29.754 76.3953 28.449 78.0744 27.2397 79.8094C26.3099 81.1428 23.9447 83.4775 23.9141 83.5122C20.3878 87.5348 16.3843 88.3917 16.2927 88.4227C13.6698 89.3308 11.1659 89.3096 8.59473 88.0088C7.43669 87.4225 6.20414 86.9061 5.19875 86.1144C4.12247 85.2668 2.95616 84.1761 1.96784 83.2943C1.67186 83.0299 1.46126 82.6506 1.05404 82.4369C0.451733 82.1223 0.0331215 82.394 0.0031098 83.0899C-0.00982627 83.3927 0.0129412 83.7497 0.16093 83.9986C1.29258 85.8991 2.55203 87.7278 4.45415 88.9272C6.30039 90.092 9.08733 91.4213 10.9403 92.1659C12.7933 92.91 14.2716 93.4119 15.7023 93.7037C17.1331 93.995 19.5516 94.4038 21.5722 93.8041C23.5928 93.207 25.8323 92.2839 28.9535 89.7375C32.0747 87.1902 38.3379 80.0401 40.7502 75.5974C41.7882 73.687 42.7242 71.7207 43.6644 69.7596C44.4514 68.1183 45.3239 66.4956 45.8998 64.7776Z" fill="#F50005"/>
<path d="M138.977 69.7891L138.972 69.7935L138.968 69.7989L138.977 69.7891Z" fill="#F50005"/>
<path d="M85.0614 32.2233C84.7436 32.1431 84.4259 32.0628 84.1082 31.9826L84.072 31.9733C84.0084 31.0952 83.9711 30.2145 83.8707 29.3406C83.8164 28.8666 83.9918 28.2214 83.2156 28.1132L83.2089 28.122C82.7147 27.7117 81.6457 28.0413 81.6457 28.0413C81.6457 28.0413 80.572 28.2405 80.3542 28.8045C79.6867 28.8909 79.0202 29.0431 78.3522 29.0503C76.091 29.0762 76.0977 29.0591 75.2693 31.1496C75.1637 31.416 74.9448 31.637 74.7782 31.8792C74.5899 31.6618 74.282 31.4668 74.2349 31.222C74.0766 30.405 73.5508 30.2461 72.8533 30.3056C72.1646 30.3646 72.1563 30.8717 72.0125 31.4093C71.6642 32.7091 71.3207 34.0742 70.1704 34.9372C68.7821 35.9804 68.2284 37.4629 67.7726 39.0292C67.4279 40.2141 67.3027 41.5031 66.154 42.3093C65.9931 42.4231 65.8399 43.1956 65.8911 43.297C64.9126 44.6041 61.9094 49.0427 61.4706 49.9224C60.9904 50.8853 60.413 51.8478 60.1905 52.8775C60.0073 53.7261 59.7672 54.4454 59.1685 55.0518C58.0043 55.6888 58.2842 56.8287 58.1983 57.8408C58.0022 58.1549 57.8066 58.4716 57.6105 58.7862C57.4646 58.9947 57.3187 59.2048 57.1722 59.4138C57.0987 59.4925 57.0253 59.5727 56.9513 59.6513C56.7536 59.8806 56.7252 60.1703 56.3572 60.3416C55.9893 60.5124 54.6983 60.9786 53.8466 61.2202C52.553 61.585 52.2741 61.762 52.316 62.4585C52.3729 63.409 53.0834 63.4395 53.7876 63.484C54.377 63.5208 54.4996 63.883 54.2802 64.3544C53.5972 65.8182 52.9261 67.2909 52.1779 68.7211C50.4144 72.0938 46.7271 79.0943 46.6805 79.2386C46.3437 80.0903 46.0068 80.942 45.6705 81.7943C45.6679 81.9035 45.6653 82.0126 45.6627 82.1218C45.5282 82.3065 45.3937 82.4918 45.2591 82.676C45.1836 82.7986 45.108 82.9223 45.0325 83.0449C45.0102 83.1495 44.988 83.2535 44.9657 83.3575C44.5937 84.0405 44.0421 84.6873 43.8967 85.4164C43.7347 86.2251 43.4383 86.9201 42.9224 87.4913C41.8306 88.7011 42.2274 90.0185 42.5296 91.3385C42.6274 91.7654 43.0005 91.8109 43.2313 91.5351C43.624 91.0658 43.9598 90.5328 44.2362 89.9854C44.5368 89.3888 44.7096 88.727 45.0092 88.1298C45.0972 87.955 45.4459 87.7956 45.641 87.8282C45.7807 87.8525 45.9944 88.2473 45.9473 88.4119C45.7802 88.9991 45.4966 89.5528 45.3016 90.1334C45.2519 90.2809 45.2736 90.6187 45.404 90.6617C45.5344 90.7046 45.8423 90.5654 45.9028 90.4407C46.2878 89.6449 46.6128 88.8201 46.9848 88.0176C47.6389 86.6086 48.3048 85.2053 48.9899 83.8113C49.0613 83.6664 49.3356 83.4894 49.4489 83.5272C49.5938 83.5758 49.7009 83.817 49.7681 83.9944C49.8199 84.1326 49.81 84.307 49.7852 84.4581C49.5161 86.0813 49.2367 87.7014 48.9687 89.3225C48.9542 89.4095 49.0132 89.588 49.0427 89.5896C49.1819 89.5947 49.3997 89.5983 49.4473 89.5171C49.5963 89.2641 49.6864 88.9748 49.7899 88.6959C50.2545 87.4442 50.3523 86.0104 51.6351 85.168C51.8643 85.0174 52.0785 84.6454 52.077 84.3779C52.0713 83.211 54.7899 77.3939 55.1138 76.772L55.1206 76.7647C55.3762 76.1226 58.4389 69.83 59.0402 68.2171C59.1147 68.0179 60.0901 65.8798 60.1568 65.7929C60.5879 64.8506 61.0194 63.9073 61.4499 62.9656C62.1009 62.6458 62.7316 62.2763 63.4048 62.0145C66.8386 60.6811 74.8993 57.371 75.3003 57.4677C75.3045 57.5697 75.3081 58.3433 75.3117 58.4462C75.3195 58.6573 75.3272 58.8679 75.335 59.0796C75.3293 60.5341 75.2962 61.9886 75.3262 63.4426C75.35 64.5903 75.6413 68.3273 75.5554 69.0331C75.4193 70.142 75.3748 71.1789 75.8752 72.2495C76.3398 73.2435 76.5375 74.3462 76.226 75.4639L76.2043 75.4965C76.1981 75.9208 76.1913 76.3477 76.1851 76.773V76.7756C76.2607 77.5481 76.255 78.3171 76.8827 78.9468C77.3132 79.3799 77.6423 79.518 78.0024 78.9789C78.2611 78.5913 78.4148 78.6508 78.6911 78.9587C79.3917 79.7426 79.7814 80.5845 79.5816 81.6799C79.5164 82.0364 79.6789 82.4732 79.846 82.8209C79.9387 83.0139 80.0949 83.3689 80.4716 83.2338C80.8483 83.0977 80.8126 82.7381 80.8432 82.4742C80.9037 81.9583 80.8245 81.4264 80.8763 80.9089C80.9218 80.4546 81.0144 79.9889 81.1893 79.5708C81.2913 79.3271 81.5717 79.1051 81.8237 79.0084C81.9143 78.9742 82.1911 79.3111 82.3215 79.517C82.4855 79.7783 82.5373 80.1193 82.7246 80.3553C83.1758 80.9239 83.8003 80.8199 84.0073 80.1307C84.1403 79.6888 84.1983 79.2055 84.1858 78.7429C84.1341 76.8087 83.9644 74.8735 83.984 72.9408C84.0234 69.0667 84.1626 65.1916 84.2526 61.3175C84.3411 57.4941 84.4037 53.6707 84.5108 49.8479C84.5434 48.7028 84.7581 47.5613 84.7685 46.4172C84.8021 42.6932 85.1369 39.0002 85.7268 35.3248C85.9027 34.2315 85.7128 33.1945 85.124 32.2434L85.0614 32.2233ZM73.7475 52.7523C73.1188 53.0089 72.4487 53.1647 71.819 53.4203C71.5545 53.5279 70.9564 53.9496 70.9564 53.9496C70.9564 53.9496 70.7059 54.2472 70.633 54.3445C70.1802 54.5613 69.7259 54.9602 69.2737 54.9592C68.142 54.9545 67.3741 55.4373 66.7972 56.3418C66.6564 56.5627 66.555 56.8246 66.3703 56.9979C66.2399 57.1195 65.976 57.2049 65.8146 57.1593C65.6697 57.1169 65.4772 56.8628 65.4906 56.7195C65.5336 56.2611 65.5833 55.7762 65.7711 55.3654C66.5322 53.7054 67.3012 52.046 68.1503 50.4305C69.4879 47.8857 70.8922 45.3761 72.2686 42.852C72.4953 42.4365 72.6629 41.9946 73.3247 42.1737C73.5482 42.2342 73.8722 42.0221 74.1169 41.8777C74.3524 41.739 74.5438 41.5269 74.7544 41.3478C74.8072 41.6521 74.904 41.9564 74.9055 42.2611C74.9159 45.149 74.8781 48.0373 74.9262 50.9242C74.9422 51.8612 74.5474 52.4253 73.7475 52.7523Z" fill="#F50005"/>
<path d="M144.829 29.7328C144.514 29.6138 144.199 29.4932 143.885 29.3742C143.884 29.2966 143.859 29.2293 143.81 29.174C143.796 29.1584 144.753 28.0009 144.209 27.4385C144.063 27.3236 143.246 27.0416 143.1 26.9277C143.026 26.4703 142.94 26.0145 142.881 25.5555C142.784 24.8155 142.332 24.6324 141.672 24.7555C141.458 24.9071 141.244 25.0582 141.031 25.2098L140.936 25.2083L139.939 25.1296C139.221 25.3428 139.508 25.7247 138.79 25.9384C138.626 26.0579 138.463 26.1774 138.3 26.2965C137.809 26.713 137.464 26.95 136.863 27.7831C136.262 28.6156 135.571 29.9739 135.152 30.7289C134.734 31.4833 133.013 35.9633 132.985 36.0187C132.848 36.1449 129.973 42.5048 129.024 44.6362C128.285 46.2941 127.313 48.2831 126.591 50.2815C125.869 52.2799 125.176 55.3281 125.013 55.5165C124.959 55.6551 124.904 55.7928 124.85 55.9314C124.779 56.1436 124.707 56.3557 124.636 56.5679C124.607 56.7759 124.58 56.9855 124.552 57.194C124.347 58.3396 124.039 59.9064 123.82 60.6055C123.6 61.3046 123.13 62.0937 122.863 62.8703C122.645 64.3523 122.391 65.8312 122.221 67.3188C122.092 68.4587 122.068 69.6111 121.997 70.7577C122.042 71.1732 122.087 71.5877 122.133 72.0042C122.343 72.7457 122.391 73.0976 122.761 74.2287C123.132 75.3594 124.695 76.4196 124.695 76.4196C126.541 77.4555 129.65 77.4529 131.051 76.4926C132.452 75.5322 133.414 74.89 134.018 74.3602C134.622 73.8308 137.675 71.4071 139.12 69.7958C140.564 68.184 141.108 67.4099 141.535 66.9835C141.751 67.7276 141.541 68.3739 141.079 68.9622C140.98 69.2447 140.881 69.5273 140.782 69.8098C140.705 71.0956 140.567 72.381 140.563 73.6663C140.557 75.3956 141.247 79.0213 143.051 79.3354C144.855 79.649 145.151 79.6603 146.216 79.1196C147.043 78.6989 147.988 78.4826 148.902 78.2736C149.564 78.1235 149.788 78.4407 149.498 79.0705C149.169 79.7825 148.79 80.4743 148.392 81.1511C146.808 83.8599 145.235 86.5734 143.617 89.2641C142.974 90.3341 143.34 90.4811 144.211 90.4935C144.367 90.4961 144.054 91.367 144.08 91.6562C144.163 92.5788 144.613 92.8562 145.378 92.3222C145.825 92.0091 146.166 91.5113 146.482 91.0472C146.803 90.5773 147.007 90.0278 147.326 89.5564C147.385 89.4674 147.868 89.5031 147.948 89.6232C148.15 89.914 147.84 90.6162 148.514 90.493C148.833 90.4356 149.087 89.9745 149.351 89.6801C149.525 89.4845 149.651 89.2496 149.819 89.0478C150.1 88.7078 150.366 88.5816 150.655 89.0731C150.951 89.5787 151.386 89.4674 151.693 89.1223C152.179 88.5769 152.669 88.0108 153.015 87.3749C153.933 85.6766 154.797 83.9468 155.64 82.2087C155.945 81.579 156.276 81.1092 157.058 81.3136C157.714 81.4854 157.996 81.1806 158.206 80.5912C158.502 79.753 158.828 78.9147 159.254 78.1375C160.656 75.5746 162.111 73.0407 163.539 70.4933C164.688 68.4453 165.827 66.391 166.968 64.3394C167.583 63.2341 168.063 62.0383 168.806 61.0076C169.78 59.655 171.661 59.3724 172.245 59.434C172.829 59.4951 173.453 59.1422 173.722 58.87C173.991 58.5989 174.055 58.634 174.436 58.3883C174.817 58.1425 175.062 57.9391 175.245 57.8061C175.426 57.6732 178.225 56.5679 178.814 55.9925C179.949 54.8821 181.704 54.2368 183.27 54.1132C183.418 54.8339 183.457 55.6158 183.464 56.3511C183.479 58.0012 183.445 59.6539 183.432 61.3046C183.421 61.5214 183.41 61.7387 183.399 61.955C182.971 63.0158 183.427 63.9746 183.705 64.9691C183.838 65.44 183.974 66.0381 183.799 66.4448C183.221 67.7778 183.494 69.133 183.522 70.4793C183.533 71.0128 183.741 71.5567 184.46 71.4842C185.053 71.4247 185.144 71.7373 185.184 72.2283C185.262 73.1664 185.404 74.0983 185.521 75.0323C185.632 75.9125 185.721 76.7968 185.868 77.6708C185.946 78.1344 186.138 78.4992 186.681 78.7077C187.565 79.0472 187.592 79.1915 187.156 80.0784C186.91 80.5803 186.654 81.0222 187.161 81.4864C188 82.2548 188.036 83.0863 187.404 84.0012C187.025 84.5517 187.092 85.004 187.813 85.1654C188.422 85.3025 188.461 85.8019 188.525 86.2505C188.578 86.6065 188.507 86.9785 188.481 87.3433C188.447 87.8354 188.609 88.1749 189.156 88.1857C189.635 88.1966 189.761 87.8892 189.781 87.467C189.897 85.1706 189.989 82.8742 190.159 80.5829C190.23 79.6045 190.644 77.2899 190.658 77.1011C190.755 76.1428 191.044 73.7837 191.093 73.5618C191.19 71.0454 191.418 64.6095 191.559 62.2422C191.703 59.8754 192.451 48.7737 192.501 47.1039C192.445 46.9957 193.887 36.5542 194.373 34.1854C194.859 31.816 194.829 29.6831 194.77 29.4389C194.712 29.1947 193.677 28.9106 193.101 28.8159C191.945 28.627 190.77 28.5566 189.602 28.4382C188.841 28.344 188.997 27.4126 188.933 27.248C188.871 27.084 186.396 26.3751 185.901 26.6338C185.405 26.8926 185.287 29.2811 185.167 30.3853C184.858 30.9136 184.552 31.4424 184.245 31.9707C184.018 32.1767 183.791 32.3842 183.564 32.5906C183.474 32.6833 183.382 32.7754 183.292 32.868C182.682 33.2499 182.074 33.6322 181.465 34.0141C180.595 34.9424 179.725 35.8702 178.854 36.7985C178.797 36.8611 178.351 37.4199 178.224 37.5886C177.751 38.2411 176.639 39.6558 176.63 39.7681C176.455 40.0071 176.28 40.2462 176.105 40.4847C176.105 40.4847 175.713 40.6358 175.653 40.7445C174.907 42.1028 174.179 43.4719 173.448 44.839C173.448 44.839 172.921 45.0936 172.64 45.2302C172.397 45.418 172.155 45.6064 171.913 45.7937C171.815 45.8263 170.31 47.7952 169.506 48.636C169.342 48.8094 169.043 49.4256 169.046 49.5245C167.968 49.9721 168.104 51.6682 167.945 51.8695C167.787 52.0708 167.059 52.4092 166.871 52.7626C166.323 53.7872 165.663 55.6029 165.411 55.9335C165.161 56.2652 164.781 56.5958 164.54 56.8204C164.38 56.8846 164.222 56.9482 164.061 57.0124C163.371 57.0838 163.051 57.9707 162.961 58.1564C162.87 58.3432 162.632 58.3784 162.468 58.4892C162.349 58.5704 162.23 58.6511 162.111 58.7339L162.13 58.7148C161.888 58.8203 161.647 58.9254 161.407 59.0304C159.893 59.9468 158.378 60.8549 156.876 61.793C156.748 61.8732 156.628 62.2023 156.691 62.3198C157.219 63.3345 156.89 64.1355 156.141 64.863C156.077 64.9246 156.031 65.1181 156.053 65.1331C156.173 65.2128 156.344 65.3329 156.452 65.2972C157.098 65.0845 157.722 64.8097 158.37 64.6059C158.597 64.5355 159.028 64.5251 159.086 64.6364C159.209 64.8656 159.219 65.2159 159.141 65.4783C159.059 65.7649 158.829 66.0107 158.658 66.271C158.059 67.1863 156.506 69.2406 156.39 69.3989C155.532 70.5766 154.701 71.7755 153.839 72.9496C153.332 73.6399 152.775 74.0047 151.984 73.4003C151.412 72.9626 150.868 72.4875 150.311 72.0312C150.273 71.7114 150.234 71.3926 150.194 71.0718C150.418 69.8532 150.481 68.6378 151.059 67.4518C151.869 65.7867 152.363 63.9663 152.976 62.206C153.645 60.2862 154.298 58.3608 154.954 56.4375C155.289 55.4554 155.617 54.4686 155.935 53.4798C157.042 51.2739 158.163 49.0758 159.245 46.8591C159.814 45.6944 160.314 44.4965 160.847 43.3126C160.936 43.2867 160.972 43.2282 160.957 43.1366C161.933 41.249 162.989 39.396 163.842 37.4551C164.155 36.7416 164.113 35.7972 163.986 34.9973C163.927 34.6185 163.303 34.3106 162.906 34.0053C162.485 33.6804 162.49 33.3922 162.777 32.9472C163.357 32.0385 163.271 31.4781 162.647 30.7284C162.151 30.1317 161.499 30.0412 160.803 30.0691C159.925 30.1028 159.091 30.0919 158.201 29.8394C157.47 29.6314 156.432 29.2976 155.777 30.2596L155.715 30.3227C155.466 30.7656 151.568 37.5348 151.354 37.8836L150.25 39.5756C149.968 39.9989 150.617 40.6767 150.476 41.0151C150.336 41.354 149.994 40.8506 149.459 41.3866C149.424 41.3975 148.986 42.9483 148.624 44.3707C148.593 44.4913 149.065 44.6165 149.033 44.7423C149.006 44.8447 148.478 45.2845 148.451 45.3901C148.181 46.4483 147.88 47.3036 147.594 48.4052C147.542 48.607 147.657 48.6381 147.605 48.8321C147.555 49.0236 147.338 48.8751 147.291 49.0567C147.017 50.0828 146.777 51.4359 146.624 51.8726C146.58 51.9984 146.704 52.1236 146.66 52.2498C146.599 52.4237 146.37 52.5981 146.309 52.773C145.584 54.8676 144.895 56.9705 144.262 59.0951C144.205 59.2374 144.148 59.3812 144.09 59.5235C143.577 60.2112 143.064 60.8989 142.551 61.5866C142.256 61.8484 141.96 62.1092 141.666 62.37C141.667 62.4274 141.666 62.4843 141.661 62.5371C141.666 62.4833 141.667 62.4274 141.666 62.37C141.438 62.6308 141.212 62.891 140.99 63.1524C140.841 63.2734 140.69 63.3956 140.539 63.5172C140.437 63.5425 140.374 63.6072 140.354 63.7117C140.235 63.8343 140.117 63.9575 139.998 64.0806C139.997 64.0677 139.999 64.0574 139.997 64.0444C139.646 64.3968 139.295 64.7482 138.943 65.1C139.027 65.0969 139.107 65.0902 139.184 65.0798C139.107 65.0907 139.027 65.0969 138.943 65.1C138.799 65.2278 138.655 65.3551 138.511 65.4824C138.335 65.6661 138.159 65.8503 137.983 66.0335C137.889 66.0681 137.428 66.5064 137.226 66.642C137.134 66.6886 137.032 66.7232 136.951 66.7838C134.624 68.54 132.299 70.2977 129.974 72.0565C129.79 72.1176 129.793 72.1321 129.421 72.2418C129.049 72.3515 127.983 72.1983 127.949 71.7445C127.914 71.2907 128.298 68.6854 128.705 67.1574C129.526 64.0781 130.61 61.1312 132.062 58.3055C132.624 57.21 133.176 55.7079 133.662 54.9742C134.148 54.2404 135.125 52.9344 135.473 52.2354C135.821 51.5353 136.008 50.2116 136.475 49.3035C137.33 47.6405 138.302 46.0328 139.303 44.4509C139.953 43.4238 140.5 42.4195 140.624 41.1595C140.706 40.3119 141.057 39.4623 141.253 39.1735C141.449 38.8843 141.941 38.4621 142.037 38.2742C142.673 37.0293 143.263 35.76 143.868 34.499C143.868 34.499 145.125 32.482 145.611 31.4103C146.105 30.3216 146.054 30.2984 144.829 29.7328ZM141.647 62.6504C141.644 62.6613 141.644 62.6748 141.642 62.6851C141.644 62.6748 141.644 62.6618 141.647 62.6504ZM151.361 37.881L151.414 37.9519L151.363 37.8898C151.361 37.8867 151.361 37.8841 151.361 37.881ZM182.815 43.1408C182.516 43.9459 182.243 44.6786 182.315 45.5469C182.348 45.9448 182.214 46.366 182.108 46.7634C181.97 47.2819 181.636 47.5421 181.062 47.4904C179.553 47.3528 178.507 48.175 177.562 49.2099C177.356 49.4365 177.114 49.6823 176.838 49.7853C176.263 50 175.653 50.1252 175.059 50.2872C175.185 49.7532 175.252 49.1943 175.457 48.6909C175.748 47.9742 176.054 47.2358 176.504 46.617C178.192 44.2998 179.94 42.0283 181.679 39.7515C182.447 38.7461 182.315 39.7365 182.679 39.8234C182.78 39.8478 183.061 39.3438 183.16 39.3753C183.289 39.4173 183.329 39.5456 183.387 39.6532C183.441 39.7536 183.483 39.8592 183.515 39.9683C183.59 40.2265 183.611 40.5013 183.597 40.7688C183.569 41.3147 183.361 41.8172 183.156 42.316C183.04 42.5907 182.916 42.8629 182.815 43.1408Z" fill="#F50005"/>
<path d="M221.014 59.6907C221.491 59.848 222.584 60.1336 223.375 60.3313C224.358 60.5781 225.221 60.9889 225.917 61.7713C226.814 62.7798 227.786 63.7226 228.718 64.7021C228.928 64.9225 229.166 65.1476 229.287 65.4188C230.081 67.2164 231.085 68.7852 233.092 69.4569C233.513 69.5971 233.858 69.9795 234.224 70.2656C234.499 70.483 234.731 70.7634 235.026 70.9528C236.25 71.7455 237.515 72.4803 238.719 73.3056C239.572 73.8908 240.351 74.5884 241.163 75.2346C241.275 75.3205 241.385 75.4049 241.496 75.4897C242.226 76.1345 242.958 76.7792 243.688 77.4245C248.021 81.7482 252.193 86.2603 257.573 89.3676C257.993 89.6258 258.414 89.884 258.834 90.1427C259.125 90.3166 259.413 90.4899 259.702 90.6638C259.948 90.8474 260.189 91.0306 260.433 91.2143C261.685 92.154 262.966 93.059 264.182 94.0427C266.215 95.6871 268.198 97.3895 270.217 99.0479C270.823 99.5451 276.601 103.44 277.244 103.888C277.306 103.932 279.02 104.397 277.669 103.252C276.798 102.514 272.668 99.9974 272.629 99.9627C271.447 98.9397 269.926 98.1092 268.758 97.0713C267.198 95.6855 265.663 94.2734 264.119 92.8675C262.276 91.1874 260.716 89.173 258.392 88.0589C258.123 87.9306 257.858 87.6879 257.712 87.4292C256.616 85.4629 254.846 84.1155 253.23 82.6548C252.12 81.6499 250.719 80.9726 249.515 80.0588C247.978 78.8924 246.508 77.6356 245.01 76.4196C244.874 76.2783 244.739 76.136 244.603 75.9948C243.936 75.3863 243.27 74.7777 242.603 74.1708C241.432 73.3072 240.273 72.428 239.087 71.5877C238.58 71.2291 238.006 70.9632 237.48 70.6279C237.305 70.5151 236.905 70.3236 237.377 70.1026C238.137 69.7466 237.673 69.5417 237.325 69.2753C235.209 67.6583 233.145 65.9993 231.378 63.9741C230.718 63.2176 229.706 62.77 228.86 62.1739C228.567 61.9674 228.248 61.7723 228.015 61.5084C226.843 60.189 226.179 58.4571 224.662 57.415C224.509 57.3094 224.424 57.0667 224.369 56.8701C224.318 56.6952 224.355 56.4965 224.352 56.3087C224.539 56.3268 224.792 56.2735 224.903 56.3744C225.454 56.8582 225.95 57.3979 226.492 57.8889C226.791 58.1596 227.12 58.5321 227.474 58.5823C228.165 58.6801 228.62 58.8943 228.888 59.5913C228.999 59.8785 229.438 60.0467 229.741 60.25C230.606 60.8332 231.5 61.3734 232.335 61.9964C232.805 62.3477 233.159 62.8124 233.836 62.3912C233.967 62.3094 234.346 62.4367 234.485 62.5858C236.185 64.4248 237.854 66.2932 239.55 68.1364C240.315 68.9669 240.941 69.9402 242.039 70.4405C242.632 70.7101 243.22 71.0765 243.679 71.5308C244.493 72.337 245.254 73.2073 245.951 74.1185C246.747 75.1601 247.719 75.8799 248.996 76.1842C249.333 76.4315 249.673 76.6783 250.011 76.9262C250.468 77.2687 250.925 77.6123 251.382 77.9538C252.59 78.8547 253.8 79.755 255.009 80.6569C255.22 80.837 255.432 81.0155 255.645 81.1956C255.764 81.2934 255.881 81.3927 255.999 81.491C256.194 81.6458 256.39 81.8005 256.585 81.9547C256.687 82.0173 256.79 82.0794 256.892 82.1415C258.355 83.3145 259.835 84.4674 261.276 85.6642C263.207 87.2678 265.093 88.9251 267.032 90.5168C268.478 91.7054 270.107 92.6725 271.34 94.1198C271.504 94.3128 271.747 94.5208 271.979 94.5575C272.361 94.6149 272.903 94.692 273.131 94.4856C273.516 94.1363 273.158 93.7513 272.845 93.4388C272.296 92.8851 271.611 92.3848 271.282 91.7147C270.968 91.0751 270.56 90.7093 269.957 90.5049C267.49 89.6666 265.738 87.8478 263.902 86.1434C262.336 84.6888 260.768 83.2348 259.202 81.7798C258.761 81.3663 258.321 80.9524 257.881 80.54C257.78 80.4417 257.678 80.3423 257.578 80.244C257.336 80.0003 257.093 79.7561 256.852 79.5113C256.681 79.3209 256.51 79.13 256.341 78.9395C255.725 78.3869 255.148 77.7825 254.487 77.2941C253.484 76.5557 252.364 75.9694 251.399 75.1891C250.441 74.414 249.457 73.5866 248.771 72.5874C247.939 71.373 247.1 70.3417 245.589 70.0318C245.297 69.9723 245.052 69.7177 244.777 69.5681C243.32 68.7739 242.354 67.4456 241.283 66.2555C240.242 65.0985 239.354 63.8028 238.4 62.5682C238.281 62.4512 238.163 62.3343 238.044 62.2173C237.519 61.5152 237.073 60.7312 236.45 60.1284C235.595 59.2995 234.609 58.6071 233.676 57.8589C232.824 57.1764 232.814 56.8163 233.75 56.2228C234.273 55.8901 234.912 55.7457 235.437 55.4145C238.67 53.3732 241.778 51.1777 244.007 47.9763C244.678 46.8788 245.473 45.8367 245.99 44.6719C246.939 42.5411 247.07 40.2979 246.888 37.9482C246.704 35.5882 245.853 33.6493 244.37 31.9014C244.357 31.7979 243.592 31.0497 243.513 30.9648C243.217 30.6678 242.534 30.0867 240.619 28.6224C238.705 27.1575 235.987 25.7066 233.602 25.3951C231.217 25.0825 227.926 25.5679 226.491 25.6983C226.25 25.72 225.946 25.8494 225.806 26.0315C225.139 26.8993 224.127 27.0364 223.193 27.3464C222.415 27.3293 221.636 27.277 220.859 27.3029C220.047 27.3308 219.236 27.4328 218.426 27.5031C218.134 27.5207 217.368 27.619 217.277 27.6496C216.904 27.7112 215.577 28.0268 215.336 28.107C213.911 28.7559 209.873 30.2756 209.038 30.6047C208.202 30.9343 207.851 30.9281 206.699 31.1723C206.208 31.2774 205.638 31.6406 205.127 31.9542L204.96 32.0789C204.404 32.3624 203.849 32.6465 203.292 32.9301C202.991 33.1122 202.69 33.2933 202.389 33.4755C201.856 33.7062 201.323 33.9381 200.789 34.1694C200.592 34.2511 200.142 34.338 199.863 34.5047C199.583 34.6723 198.849 35.3781 198.763 35.746C198.677 36.1144 198.623 36.3664 198.553 36.6774C198.481 36.9253 198.409 37.1736 198.335 37.4215C198.335 37.4215 198.284 37.5405 198.283 37.5415C198.117 37.9291 197.52 38.0999 197.173 38.2473C196.695 38.4507 196.084 38.6235 195.674 38.9505C195.297 39.2517 195.228 39.737 195.057 40.1613C194.926 40.4832 194.96 40.9877 195.104 41.2997C195.243 41.604 195.841 42.1664 196.163 42.2156C196.532 42.2715 197.091 42.3092 197.269 42.3832C197.447 42.4572 197.986 43.0513 197.952 43.2996C197.918 43.548 198.114 44.1865 198.62 44.3635C198.983 44.423 199.346 44.4825 199.709 44.5436C200.076 44.5591 200.443 44.5746 200.811 44.5901C200.898 44.689 200.985 44.7878 201.073 44.8866C201.23 45.3689 201.488 45.7026 202.068 45.5567C202.491 45.5578 203.289 45.727 204.131 45.5515C204.973 45.3761 205.387 45.0879 205.974 44.7785C206.604 44.4458 207.184 44.0204 207.785 43.6355C208.134 43.3566 208.534 43.236 208.503 43.8507C208.436 45.105 208.126 46.3132 207.43 47.3895C207.383 47.5028 207.336 47.6161 207.29 47.7295C206.967 49.4174 203.205 58.7789 202.703 60.664C202.2 62.5501 201.712 64.5003 201.569 64.8361C201.537 64.9732 201.508 65.1093 201.475 65.2459C201.271 65.8917 201.025 66.5282 200.882 67.1853C200.789 67.6163 200.545 68.6605 200.872 68.5058C201.903 68.023 201.238 69.133 200.314 69.7601C199.759 69.7963 198.246 73.197 198.061 74.9625C197.947 76.0491 197.219 77.6382 197.497 78.0801C197.553 78.1701 197.75 78.3595 197.639 78.4055C196.888 78.7093 196.353 81.7979 196.353 81.7979C196.353 81.7979 196.6 81.9329 196.477 82.0576C196.353 82.1823 196.337 82.2139 196.251 82.2895C196.101 82.439 195.261 84.1792 195.104 84.5807C195.038 84.6966 194.254 86.2903 194.156 86.4787C193.608 87.2507 193.423 89.231 193.628 90.2037C193.765 90.8464 193.899 90.0816 193.912 90.7424C193.915 90.8992 193.875 90.9913 193.876 91.1408C193.877 91.4534 194.066 93.2644 194.331 93.386C194.825 93.6127 194.86 93.0797 195.021 92.7837C195.07 92.6947 195.149 92.6243 195.215 92.5452C195.186 92.4319 195.664 91.9237 195.766 91.8689C195.87 91.9025 195.304 93.4735 195.694 93.3669C196.084 93.2618 197.236 89.3955 197.366 89.1109C197.592 88.6804 197.817 88.2509 198.043 87.8209C198.237 87.763 198.431 87.704 198.624 87.645C198.824 87.7045 199.023 87.764 199.22 87.823C199.288 87.928 199.356 88.0336 199.425 88.1386C199.429 88.445 199.395 88.758 199.454 89.0535C199.483 89.2056 199.674 89.3262 199.79 89.4612C199.914 89.3241 200.038 89.189 200.161 89.0509C200.258 88.8165 200.349 88.5816 200.449 88.3482C201.495 85.8743 202.543 83.4004 203.587 80.9276C203.814 80.3863 203.949 79.8104 204.188 79.2733C204.227 79.1848 205.045 77.885 205.187 78.1059C205.295 78.2731 205.478 78.433 205.495 78.6089C205.524 78.9121 205.397 79.2324 205.436 79.532C205.464 79.7488 205.631 80.0857 205.78 80.1126C205.966 80.1452 206.26 79.961 206.399 79.784C206.621 79.5025 206.824 79.1693 206.916 78.8252C207.123 78.0382 208.456 71.1075 210.028 64.343C211.569 57.7099 213.682 50.6116 213.897 50.6111C214.382 50.6106 214.609 50.3793 214.699 49.9431C214.914 48.9941 215.129 48.0446 215.344 47.0956C215.457 46.7101 215.568 46.3246 215.678 45.9391C215.789 45.6923 215.898 45.446 216.008 45.1986C216.33 44.6026 216.631 43.9915 216.982 43.4135C217.263 42.9514 217.59 42.7812 217.802 43.4807C217.96 44.0034 218.309 44.0934 218.546 43.6396C219.07 42.6337 219.649 41.6071 219.892 40.5194C220.071 39.721 220.444 39.3319 221.081 39.0333C224.866 37.2616 228.576 37.422 232.203 39.4856C233.702 40.3388 234.344 41.5289 233.984 42.9607C233.653 44.2781 233.163 45.5308 232.307 46.6371C231.125 48.1683 230.007 49.7527 228.899 51.3402C227.983 52.6514 225.724 52.8692 224.56 51.7386C223.997 51.1912 223.422 50.6504 222.8 50.1754C222.265 49.7651 221.517 49.9219 221.342 50.4766C221.173 51.008 221.013 51.602 221.581 52.0641C222.153 52.5277 222.768 52.9577 223.241 53.5083C223.509 53.8192 223.683 54.3729 223.606 54.7594C223.552 55.0295 223.017 55.3597 222.676 55.3876C222.01 55.4414 221.328 55.2717 220.652 55.2572C220.309 55.2489 219.801 55.2619 219.65 55.4694C219.314 55.932 218.789 56.5503 218.76 57.1459C218.722 57.907 220.598 59.553 221.014 59.6907Z" fill="#F50005"/>
<path d="M272.78 104.323C271.123 103.334 269.443 102.385 267.784 101.399C266.723 100.768 265.547 100.246 264.665 99.4184C260.624 95.626 256.696 91.7136 252.669 87.9068C251.122 86.4445 249.521 85.0231 247.396 84.3597C246.458 84.0663 245.567 83.58 244.712 83.0806C244.193 82.7784 243.648 82.365 243.355 81.8626C242.22 79.9092 240.36 78.7357 238.696 77.3458C236.737 75.8561 235.55 73.5276 233.288 72.3608C233.109 72.2681 232.952 72.1041 232.826 71.9406C231.337 69.9976 229.739 68.1617 227.899 66.5302C226.003 64.849 224.421 62.8227 222.219 61.4743C221.699 61.1571 221.298 60.635 220.879 60.1729C220.832 60.1217 219.914 59.2394 219.327 58.9088C218.74 58.5771 217.374 58.2304 216.385 57.9277C215.161 57.5515 214.654 57.9044 214.465 59.2105C214.397 59.6751 214.363 60.1496 214.364 60.6205C214.368 61.5954 214.529 61.7444 215.546 61.8831C215.955 61.9389 216.488 61.896 216.741 62.1351C217.371 62.7337 218.072 62.711 218.797 62.594C219.522 62.4771 219.932 62.7689 220.371 63.3314C221.201 64.3932 222.028 65.5248 223.086 66.3217C224.442 67.3431 225.508 68.6114 226.687 69.7844C228.054 71.1432 229.199 72.7142 231.021 73.6062C231.7 73.9405 232.126 74.7969 232.667 75.4168C233.212 76.0413 233.667 76.7859 234.316 77.2656C235.361 78.0392 236.533 78.6384 237.652 79.3121C238.056 79.635 238.469 79.947 238.862 80.2833C239.691 80.9964 240.629 81.6266 241.293 82.4706C241.87 83.2022 242.427 83.6922 243.342 83.9784C244.268 84.2687 245.184 84.7861 245.931 85.4101C248.262 87.3568 250.52 89.3903 252.791 91.4104C254.352 92.7992 255.808 94.3133 257.952 94.8504C258.418 94.9673 258.819 95.3989 259.218 95.7223C260.102 96.441 260.967 97.1815 261.839 97.9126C262.088 98.103 262.338 98.294 262.587 98.4849C262.654 98.5635 262.712 98.6567 262.792 98.7214C265.296 100.776 268.173 102.327 270.554 104.56C271.007 104.983 271.947 104.793 272.438 105.252C280.053 112.378 280.215 110.749 280.478 110.627C280.334 110.427 272.975 104.439 272.78 104.323Z" fill="#F50005"/>
<path d="M260.854 102.926C260.604 102.174 260.082 101.838 259.559 101.471C258.882 100.994 258.116 100.646 257.398 100.226C256.373 99.6228 255.284 99.1084 254.849 97.8319C254.732 97.4894 254.31 97.0723 253.973 97.0154C252.533 96.7675 251.762 95.2287 250.244 95.1541C250.056 95.1454 249.889 94.7987 249.705 94.6181C249.334 94.2522 248.928 93.918 248.591 93.5247C247.834 92.6383 246.538 92.2854 246.145 91.0182C246.09 90.8382 245.645 90.7414 245.364 90.6793C243.858 90.345 242.636 89.6077 242.072 88.1236C241.665 87.0536 240.882 86.3261 240.152 85.5152C239.534 84.8286 238.848 84.5181 237.943 84.6345C237.198 84.7308 236.632 84.5088 236.276 83.7751C236.124 83.4625 235.792 83.2374 235.543 82.972C235.201 82.5793 234.858 82.187 234.515 81.7953C234.428 81.6768 234.343 81.5573 234.256 81.4388C234.249 81.3364 234.209 81.2499 234.136 81.1785C233.99 80.2709 233.556 79.56 232.736 79.1093C231.452 78.0433 230.094 77.054 228.902 75.8934C227.292 74.3266 225.742 72.7018 225.21 70.3552C225.05 69.6551 224.483 68.9477 223.917 68.4639C222.97 67.6557 221.923 66.9333 220.829 66.3403C219.186 65.4503 217.593 64.4103 215.696 64.0848C215.097 63.9829 214.486 63.7438 214.069 64.3937C213.801 64.8128 214.134 65.1021 214.484 65.3536C214.692 65.5026 214.946 65.6806 215.18 65.6832C216.282 65.6956 216.751 66.4418 217.035 67.3085C217.422 68.496 218.167 69.0419 219.413 69.2116C220.431 69.3519 221.522 69.7213 221.883 70.8592C222.514 72.8482 223.87 74.2551 225.444 75.4706C226.9 76.5966 228.171 77.8767 229.252 79.3582C229.464 79.649 229.665 79.9667 229.939 80.1881C231.024 81.0688 232.135 81.9169 233.237 82.7764C233.348 82.8794 233.458 82.9823 233.57 83.0858C233.887 83.4025 234.205 83.7207 234.523 84.0379C235.355 85.5602 236.633 86.4849 238.323 86.8528C238.541 86.9382 238.762 87.0236 238.98 87.1084C239.358 87.4329 239.773 87.7231 240.107 88.089C240.695 88.7327 241.196 89.4561 241.799 90.0827C242.229 90.5303 242.761 90.879 243.256 91.2645C244.947 92.5887 246.608 93.9542 248.341 95.2204C250.105 96.5098 251.955 97.686 253.745 98.9418C254.554 99.5105 255.351 100.112 256.079 100.777C257.314 101.903 258.524 103.035 260.04 103.799C260.657 104.111 261.178 104.615 261.742 105.032C261.839 105.044 269.076 109.933 269.766 110.523C270.17 110.869 273.108 112.749 275.783 114.813C277.678 116.278 279.302 117.957 280.418 118.709C285.474 122.111 283.562 119.625 283.723 119.646C283.579 119.425 264.98 105.911 264.837 105.69C264.325 105.169 261.059 103.545 260.854 102.926Z" fill="#F50005"/>
<path d="M205.662 81.297C205.265 81.297 204.85 81.5842 204.487 81.8222C204.342 81.9164 204.285 82.1844 204.241 82.3847C204.107 82.9921 204.006 83.6064 203.88 84.2154C203.705 85.0552 203.827 85.9897 202.953 86.5889C202.559 86.8595 202.794 87.2497 203.057 87.5327C203.388 87.8846 203.778 87.8018 203.99 87.4618C204.401 86.8041 204.772 86.1097 205.07 85.3936C205.485 84.3996 206.053 82.8638 206.226 82.2419C206.4 81.6194 205.85 81.297 205.662 81.297Z" fill="#F50005"/>
<path d="M100.372 79.1822C102.614 80.1141 105.148 80.3909 107.648 79.8745C108.678 79.6624 108.915 79.5915 110.587 78.6089C112.259 77.6257 113.401 75.2589 113.742 75.1358C114.084 75.0121 115.153 74.9526 115.481 75.2295C115.674 75.3914 116.189 76.0615 116.835 76.5629C117.482 77.0648 116.841 77.0172 117.33 77.6977C117.819 78.3781 118.518 77.6325 118.531 77.9724C118.543 78.3113 118.797 78.5846 119.352 78.5825C119.908 78.5809 119.791 76.4196 119.675 75.1705C119.56 74.4497 119.305 71.6498 119.357 71.0382C119.409 70.4266 119.581 69.3787 119.692 68.5477C119.651 67.4776 120.592 63.9471 120.743 63.1844C120.674 63.0789 121.411 61.052 121.84 59.0806C122.269 57.1102 122.591 54.7687 122.614 54.0386C122.657 52.8987 122.871 50.9795 122.743 50.6178C122.614 50.2561 121.912 50.4046 121.646 50.5521C121.381 50.7001 121.509 50.7968 121.441 50.9195L121.428 50.9728C121.377 50.9645 121.332 50.9779 121.297 51.0271C120.316 51.1994 119.808 50.2189 119.42 50.074C119.033 49.9291 118.754 49.8965 118.283 49.971C117.811 50.045 116.064 51.7888 115.227 52.181C114.39 52.5732 111.571 53.8322 110.598 53.6878C110.516 53.7685 110.419 53.7965 110.306 53.7716C109.93 54.1607 109.585 54.8458 109.172 54.8893C107.146 55.104 105.987 56.6088 104.568 57.7337C104.32 58.0561 103.969 58.3432 103.841 58.7085C103.461 59.7993 103.048 60.501 101.948 61.0805C101.889 61.1126 101.835 61.2802 101.866 61.3284C101.912 61.3998 102.035 61.4546 102.127 61.4582C102.823 61.481 103.647 60.887 103.647 60.887C103.647 60.887 107.068 59.418 108.771 58.6666C109.507 58.3417 110.201 58.1549 111.006 58.544C111.313 58.6915 111.786 58.4969 112.183 58.4581C112.339 58.3681 112.495 58.278 112.65 58.188C112.81 58.1461 112.97 58.1047 113.13 58.0628L113.426 58.0328C113.643 58.0674 113.86 58.1042 114.078 58.1388C113.684 59.3196 113.5 61.406 113.443 61.7816C113.386 62.1568 113.247 62.3658 113.163 62.6659C113.038 63.1104 112.899 63.557 112.83 64.0128C112.611 65.4896 112.317 66.9674 112.257 68.453C112.22 69.372 112.768 70.7882 113.055 71.1251C113.343 71.4625 113.663 71.9328 113.165 72.3468C112.667 72.7613 112.279 73.1442 111.837 73.5436C111.284 73.7491 110.194 74.5914 108.592 74.8398C106.989 75.0877 105.604 75.0245 103.337 74.0124C101.071 73.0008 99.2285 71.1603 97.9773 70.0281C96.7261 68.8954 94.8975 64.5515 94.7686 62.5847C94.6393 60.6179 94.8261 58.6226 94.8866 57.8248C94.9472 57.0263 95.3927 54.3403 96.1109 52.4847C96.8291 50.6297 98.9139 48.0565 99.2042 47.7305C100.286 46.6847 101.367 45.6395 102.449 44.5937C103.677 43.6592 105.62 41.9755 108.393 40.4366C109.022 40.1292 112.496 38.1443 115.133 37.9363C115.9 37.8758 116.65 37.5715 117.385 37.3118C118.051 37.0753 118.435 36.6044 118.12 35.8541C117.904 35.3367 117.91 34.8348 118.49 34.6909C119.221 34.5093 118.563 33.3833 118.217 33.4635C117.843 33.5505 117.472 33.7114 116.94 33.3663C116.359 32.9885 115.872 32.2377 115.676 31.2732C115.596 30.8743 116.22 30.8955 115.826 30.3646C115.433 29.8347 114.667 30.1633 114.339 29.8953C114.23 29.8565 114.121 29.8182 114.012 29.7788C113.605 29.7276 113.197 29.6764 112.79 29.6252C112.726 29.5688 112.662 29.5124 112.599 29.456C112.189 28.9721 111.715 28.9147 111.072 28.9685C109.171 29.1248 107.427 29.8533 105.605 30.2875C104.954 30.5157 104.303 30.7444 103.652 30.9731C103.369 31.1956 103.095 31.431 102.8 31.637C102.036 32.173 101.262 32.6962 100.491 33.225C100.397 33.3238 100.302 33.4227 100.208 33.522L100.178 33.5593C99.9353 33.8708 99.6921 34.1818 99.4484 34.4933C99.3749 34.59 99.3025 34.6863 99.2295 34.7825C99.0189 34.9879 98.8083 35.1939 98.5977 35.3998C98.4854 35.5007 98.3731 35.6016 98.2614 35.7025C98.071 35.8231 97.8805 35.9431 97.6896 36.0637L97.6715 36.0839C97.5509 36.2877 97.4304 36.4911 97.3098 36.6955L97.2896 36.8186C97.124 36.9899 96.9585 37.1612 96.7929 37.3325C96.648 37.5012 96.5036 37.6704 96.3587 37.839C96.2501 37.9725 96.1414 38.106 96.0333 38.2395C95.9329 38.328 95.8325 38.4165 95.7321 38.505C95.5505 38.7425 95.3689 38.9805 95.1872 39.2185L95.1505 39.2594C94.9135 39.5456 94.6776 39.8307 94.4406 40.1173C94.3599 40.2493 94.2791 40.3812 94.1984 40.5132C93.8243 41.1357 93.4502 41.7582 93.0761 42.3806C92.9716 42.4246 92.9141 42.5028 92.9048 42.6171C92.8039 42.8546 92.7035 43.0921 92.6031 43.3296C92.496 43.5175 92.3894 43.7068 92.2823 43.8952V43.8957C91.2169 44.7195 90.6457 45.8485 90.2979 47.1147C90.225 47.2053 90.152 47.2963 90.0796 47.3864C89.9543 47.7165 89.8291 48.0472 89.7039 48.3778C89.5125 48.8896 89.321 49.4013 89.1301 49.9125C87.9694 52.0087 87.6745 54.3408 87.5208 56.6517C87.3206 59.6762 87.3594 62.7187 88.0869 65.6976C88.328 66.6854 90.0216 70.4949 90.8609 71.7652C91.7002 73.0334 93.9521 75.5368 95.3875 76.5194C96.8239 77.5021 98.1294 78.2508 100.372 79.1822Z" fill="#F50005"/>
<path d="M279.952 98.6676C278.523 97.6115 277.076 96.5817 275.629 95.552C275.331 95.3404 275.121 94.7091 274.679 95.1184C274.526 95.2592 274.733 95.8863 274.894 96.2402C275.015 96.5072 275.299 96.7215 275.552 96.9041C277.077 98.0114 278.599 99.1276 280.159 100.183C280.575 100.46 281.121 100.546 281.617 100.687C281.702 100.711 281.836 100.564 281.981 100.474C281.834 100.302 281.749 100.172 281.634 100.076C281.08 99.5995 280.539 99.1022 279.952 98.6676Z" fill="#F50005"/>
<path d="M290.134 105.056C290.051 104.957 288.001 103.85 287.906 103.783C287.475 103.479 287.209 103.596 286.78 103.288C285.959 102.697 285.18 102.053 284.386 101.43C283.969 101.102 283.337 100.856 283.267 101.506C283.222 101.924 283.324 102.434 283.715 102.657C283.856 102.737 283.995 102.819 284.137 102.899C284.94 103.314 285.741 103.733 286.544 104.147C286.898 104.328 292.095 107.974 292.943 107.815C293.794 107.656 293.049 106.701 293.049 106.701C293.049 106.701 290.272 105.225 290.134 105.056Z" fill="#F50005"/>
<path d="M279.681 105.429C279.681 105.429 283.343 107.922 284.721 108.559C286.101 109.195 286.897 109.726 286.419 108.983C285.942 108.239 286.419 108.399 284.879 107.497C283.34 106.596 282.494 106.278 281.803 105.587C281.113 104.898 279.734 104.314 279.679 104.792C279.628 105.269 279.681 105.429 279.681 105.429Z" fill="#F50005"/>
<path d="M282.759 113.547C284.298 114.448 285.041 115.138 284.511 113.758C283.982 112.379 283.131 112.645 281.964 112.062C280.797 111.477 280.751 112.052 281.016 112.372L282.759 113.547Z" fill="#F50005"/>
<path fill-rule="evenodd" clip-rule="evenodd" d="M253.565 30.8957V33.7049H254.057V30.8957H255.251V30.4041H252.512V30.8957H253.565ZM255.532 30.4041V33.7049H256.094V30.8957L257.007 33.7049H257.498L258.341 30.8957V33.7049H258.833V30.4041H258.06L257.217 33.0729L256.375 30.4041H255.532Z" fill="#F50005"/>
<path fill-rule="evenodd" clip-rule="evenodd" d="M5.76963 0.729652H7.28428L7.28984 6.12394C7.29366 10.381 4.1362 13.9251 0 14.6011L0.00555707 12.2202C3.31862 11.3934 5.76963 8.43846 5.76963 4.91966V0.729652ZM10.1636 0.729663H11.6782V4.91967C11.6782 8.43847 14.1292 11.3934 17.4423 12.2202L17.4478 14.6011C13.312 13.9251 10.1542 10.381 10.1584 6.12395L10.1636 0.729663ZM60.9258 1.65181C60.7493 1.35518 60.4238 1.17554 60.0747 1.18206C59.5489 1.19188 59.1278 1.61434 59.1278 2.13211C59.1278 2.64988 59.5489 3.07234 60.0747 3.08216C60.4238 3.08868 60.7493 2.90905 60.9258 2.61242C61.1023 2.31579 61.1023 1.94843 60.9258 1.65181ZM59.3332 2.13226C59.3332 1.72908 59.6652 1.40224 60.0748 1.40224C60.4843 1.40243 60.8164 1.72905 60.817 2.13226C60.817 2.53505 60.4846 2.86228 60.0748 2.86228C59.6652 2.86228 59.3332 2.53544 59.3332 2.13226ZM59.6576 2.66636H59.8806V2.24407H60.1425C60.2199 2.24407 60.2734 2.27929 60.2769 2.3511C60.2734 2.42872 60.2734 2.51386 60.2769 2.56651C60.2791 2.60157 60.2893 2.63569 60.3067 2.66636H60.546C60.5398 2.65197 60.534 2.64045 60.5287 2.63019L60.5287 2.63013C60.5143 2.60165 60.5047 2.58279 60.5047 2.53882L60.5031 2.48752C60.5011 2.42266 60.4984 2.33311 60.4939 2.29981C60.4842 2.21767 60.431 2.18629 60.3921 2.16341C60.3852 2.15933 60.3788 2.15553 60.3731 2.15175C60.4464 2.10935 60.4939 2.0755 60.521 1.98318C60.5474 1.89086 60.5252 1.81495 60.5103 1.76777C60.479 1.65219 60.3693 1.60227 60.2606 1.59783H59.6576V2.66636ZM60.1824 1.78142H59.8806V2.06112H60.1859C60.2255 2.05854 60.2622 2.03988 60.2873 2.00961C60.3124 1.97933 60.3236 1.94015 60.3182 1.90144C60.3182 1.82519 60.2828 1.78142 60.1824 1.78142ZM7.6386 0.729663H9.80412V14.6062H7.6386V0.729663ZM40.618 4.90429L41.9597 9.21568L39.4188 9.20919L40.618 4.90429ZM38.8124 11.3695L37.9156 14.5884H35.4347L38.8999 2.22354C39.1232 1.48758 39.8108 0.98329 40.591 0.983363C41.3723 0.982827 42.0614 1.48694 42.2862 2.22354L46.0869 14.6062L43.6245 14.5881L42.6287 11.3746L38.8124 11.3695ZM25.4208 4.90429L26.7622 9.21568L24.2215 9.20885L25.4208 4.90429ZM23.6147 11.3695L22.7179 14.5884H20.2374L23.7022 2.22354C23.9255 1.48758 24.6131 0.98329 25.3933 0.983363C26.1744 0.982792 26.8633 1.48698 27.0879 2.22354L30.8889 14.6062L28.4268 14.5881L27.431 11.3746L23.6147 11.3695ZM54.9247 5.18603C54.9247 6.93636 53.8123 8.4306 52.2459 9.02213L52.2573 9.02761C52.2336 9.03223 52.2107 9.04054 52.1896 9.05222C52.1342 9.08501 52.0943 9.13817 52.0788 9.19996C52.0633 9.26175 52.0734 9.32708 52.107 9.3815L55.3339 14.6065H52.8374L49.8702 9.77882C49.3747 8.96924 49.6395 7.91745 50.4617 7.42943C50.6163 7.33779 50.7826 7.28992 50.9493 7.24957C51.9757 7.07125 52.6927 6.14937 52.6 5.12741C52.5072 4.10545 51.6355 3.32332 50.5933 3.32695H49.137V14.5293H46.7743V3.39705C46.7743 1.84229 47.6405 1.06475 49.137 1.07158L50.7521 1.07877C53.0565 1.07877 54.9247 2.91766 54.9247 5.18603ZM28.9898 3.39229V1.09008H37.2344V3.39229H34.302L34.2933 14.6066H31.9312V3.40426L28.9898 3.39229ZM58.3888 1.07877H56.0267V14.6065H58.3888V1.07877Z" fill="white"/>
</g>
<defs>
<clipPath id="clip0_887_1707">
<rect width="294" height="121" fill="white"/>
</clipPath>
</defs>
</svg>
