<svg width="120" height="81" viewBox="0 0 120 81" fill="none" xmlns="http://www.w3.org/2000/svg">
<path fill-rule="evenodd" clip-rule="evenodd" d="M81.9656 21.5486H38.9969C37.7876 21.5486 36.8373 22.5562 36.8817 23.7402C36.8826 23.7627 36.8836 23.7861 36.8846 23.8105C36.8897 23.9322 36.8957 24.0759 36.8896 24.2191C36.8525 25.093 36.722 28.6319 36.722 35.2046C36.722 38.9705 37.6608 42.3484 38.6042 44.7901C39.0754 46.0096 39.5462 46.9918 39.8983 47.6675C40.0743 48.0053 40.2205 48.2662 40.3219 48.4416C40.3315 48.4581 40.3406 48.4738 40.3493 48.4887H80.6131C80.6219 48.4738 80.631 48.4581 80.6405 48.4416C80.742 48.2662 80.8882 48.0053 81.0642 47.6675C81.4163 46.9918 81.8871 46.0096 82.3583 44.7901C83.3017 42.3484 84.2405 38.9705 84.2405 35.2046C84.2405 28.6319 84.11 25.093 84.0729 24.2191C84.0668 24.076 84.0728 23.9322 84.0779 23.8105C84.0789 23.7862 84.0799 23.7627 84.0807 23.7402C84.1252 22.5562 83.1749 21.5486 81.9656 21.5486ZM40.0903 48.9463H80.8722C80.8722 48.9463 84.6981 42.8834 84.6981 35.2046C84.6981 28.6259 84.5675 25.0805 84.53 24.1997C84.5249 24.0777 84.5298 23.9571 84.5349 23.8355C84.5359 23.8095 84.537 23.7835 84.538 23.7574C84.592 22.3166 83.4368 21.0911 81.9656 21.0911H38.9969C37.5257 21.0911 36.3704 22.3166 36.4245 23.7574C36.4255 23.7835 36.4265 23.8095 36.4276 23.8355C36.4326 23.957 36.4376 24.0776 36.4324 24.1997C36.395 25.0805 36.2644 28.6259 36.2644 35.2046C36.2644 42.8834 40.0903 48.9463 40.0903 48.9463Z" fill="white"/>
<path fill-rule="evenodd" clip-rule="evenodd" d="M34.7181 10.1314C31.7239 13.7539 29.8746 18.836 29.1194 24.5077C29.0982 24.6667 29.0827 24.8094 29.0731 24.9434C29.0071 25.8719 28.8123 29.6599 29.4375 35.9949C29.9244 40.9282 31.3074 45.258 32.148 47.5308C32.2355 47.7673 32.485 47.9759 32.8584 47.9759H87.1416C87.5151 47.9759 87.7646 47.7673 87.852 47.5308C88.6927 45.258 90.0757 40.9282 90.5626 35.9949C91.1878 29.6599 90.993 25.8719 90.9269 24.9434L92.9219 24.8015C92.9955 25.8366 93.1898 29.738 92.5529 36.1913C92.043 41.3575 90.6009 45.8643 89.7278 48.2246C89.3293 49.3022 88.2906 49.9759 87.1416 49.9759H32.8584C31.7094 49.9759 30.6708 49.3022 30.2722 48.2246C29.3992 45.8643 27.957 41.3575 27.4472 36.1913C26.8102 29.738 27.0046 25.8366 27.0782 24.8015C27.0915 24.6147 27.1122 24.4294 27.1369 24.2438C28.7097 12.4309 34.919 2.33032 47.3893 2.33032H72.6108C85.081 2.33032 91.2904 12.4309 92.8631 24.2438C92.8879 24.4294 92.9086 24.6147 92.9219 24.8015L90.9269 24.9434C90.9174 24.8094 90.9018 24.6668 90.8806 24.5077C90.1255 18.836 88.2761 13.7539 85.2819 10.1314C82.341 6.57335 78.2291 4.33032 72.6108 4.33032H47.3893C41.771 4.33032 37.6591 6.57335 34.7181 10.1314Z" fill="white"/>
<path fill-rule="evenodd" clip-rule="evenodd" d="M43.8938 16.9452C46.5794 16.9452 48.7565 14.7681 48.7565 12.0825C48.7565 9.39686 46.5794 7.21973 43.8938 7.21973C41.2081 7.21973 39.031 9.39686 39.031 12.0825C39.031 14.7681 41.2081 16.9452 43.8938 16.9452ZM43.8938 17.9452C47.1317 17.9452 49.7565 15.3204 49.7565 12.0825C49.7565 8.84457 47.1317 6.21973 43.8938 6.21973C40.6559 6.21973 38.031 8.84457 38.031 12.0825C38.031 15.3204 40.6559 17.9452 43.8938 17.9452Z" fill="white"/>
<path d="M42.9253 16.0518C42.6904 16.0518 42.5 15.8614 42.5 15.6265L42.5 8.53856C42.5 8.30368 42.6904 8.11328 42.9253 8.11328L44.8626 8.11328C45.0975 8.11328 45.2879 8.30368 45.2879 8.53856L45.2879 15.6265C45.2879 15.8614 45.0975 16.0518 44.8626 16.0518L42.9253 16.0518Z" fill="white"/>
<path d="M47.863 13.0513C47.863 13.2862 47.6726 13.4766 47.4378 13.4766L40.3498 13.4766C40.115 13.4766 39.9246 13.2862 39.9246 13.0513L39.9246 11.1139C39.9246 10.879 40.115 10.6886 40.3498 10.6886L47.4378 10.6886C47.6726 10.6886 47.863 10.879 47.863 11.1139L47.863 13.0513Z" fill="white"/>
<path d="M57.0067 13.8713C57.2357 13.4746 57.743 13.3387 58.1396 13.5678V13.5678C58.5363 13.7968 58.6722 14.304 58.4432 14.7007L56.9847 17.227C56.7556 17.6236 56.2484 17.7595 55.8517 17.5305V17.5305C55.4551 17.3015 55.3191 16.7943 55.5482 16.3976L57.0067 13.8713Z" fill="white"/>
<path d="M60.8404 13.8713C61.0695 13.4746 61.5767 13.3387 61.9734 13.5678V13.5678C62.3701 13.7968 62.506 14.304 62.2769 14.7007L60.8184 17.227C60.5894 17.6236 60.0822 17.7595 59.6855 17.5305V17.5305C59.2888 17.3015 59.1529 16.7943 59.3819 16.3976L60.8404 13.8713Z" fill="white"/>
<path fill-rule="evenodd" clip-rule="evenodd" d="M69.0272 13.9349C69.3569 13.4404 70.0016 13.2661 70.5356 13.5273L74.5845 15.5077C75.2103 15.8138 75.4389 16.5907 75.0786 17.1869L74.008 18.959C73.7932 19.3146 73.408 19.5319 72.9926 19.5319H67.5126C66.565 19.5319 65.9999 18.4759 66.5255 17.6875L69.0272 13.9349ZM70.0962 14.4256C70.0123 14.3846 69.911 14.4119 69.8592 14.4896L67.3575 18.2422L66.9415 17.9648L67.3575 18.2422C67.2749 18.366 67.3637 18.5319 67.5126 18.5319H72.9926C73.0578 18.5319 73.1183 18.4978 73.1521 18.4419L74.2227 16.6698C74.2793 16.5762 74.2434 16.4541 74.1451 16.406L70.0962 14.4256Z" fill="white"/>
<path fill-rule="evenodd" clip-rule="evenodd" d="M73.3712 9.13949C73.7586 8.73745 74.3665 8.6429 74.8577 8.90828L74.6235 9.34174L74.8577 8.90828L78.5118 10.8823C79.2169 11.2632 79.3829 12.2019 78.8511 12.8015L77.1586 14.7101C76.7892 15.1267 76.1878 15.2469 75.6865 15.0044L71.7971 13.1224C71.0357 12.754 70.8563 11.7492 71.4433 11.1401L73.3712 9.13949ZM74.3824 9.7881C74.2862 9.73612 74.1671 9.75464 74.0913 9.83339L72.1634 11.834C72.0484 11.9533 72.0835 12.1501 72.2327 12.2223L76.1221 14.1042C76.2203 14.1517 76.3381 14.1282 76.4104 14.0466L78.1029 12.138C78.2071 12.0206 78.1746 11.8367 78.0365 11.7621L74.3824 9.7881Z" fill="white"/>
<path fill-rule="evenodd" clip-rule="evenodd" d="M77.6505 4.19419C78.0447 3.782 78.6687 3.69077 79.1644 3.97288L83.1075 6.21713C83.8606 6.64574 83.9555 7.69383 83.2916 8.25069L80.6708 10.4489C80.2754 10.7806 79.7162 10.8336 79.2656 10.582L79.5093 10.1454L79.2656 10.582L75.6335 8.55482C74.923 8.15828 74.7785 7.19753 75.3408 6.60947L77.6505 4.19419ZM78.6697 4.84198C78.5727 4.78672 78.4504 4.80459 78.3732 4.88533L76.0635 7.30061C75.9534 7.41578 75.9817 7.60396 76.1209 7.68163L79.753 9.70884C79.8412 9.75811 79.9507 9.74773 80.0282 9.68277L82.6489 7.48452C82.779 7.37546 82.7604 7.17018 82.6129 7.08623L78.6697 4.84198Z" fill="white"/>
<path d="M49.9285 27.955C49.9285 27.5601 50.2486 27.24 50.6434 27.24H54.0753C54.4702 27.24 54.7903 27.5601 54.7903 27.955V27.955C54.7903 28.3498 54.4702 28.6699 54.0753 28.6699H50.6434C50.2486 28.6699 49.9285 28.3498 49.9285 27.955V27.955Z" fill="white"/>
<path d="M58.1636 27.955C58.1636 27.5601 58.4837 27.24 58.8785 27.24H62.3104C62.7053 27.24 63.0254 27.5601 63.0254 27.955V27.955C63.0254 28.3498 62.7053 28.6699 62.3104 28.6699H58.8785C58.4837 28.6699 58.1636 28.3498 58.1636 27.955V27.955Z" fill="white"/>
<path d="M66.4006 27.955C66.4006 27.5601 66.7207 27.24 67.1156 27.24H70.5475C70.9423 27.24 71.2624 27.5601 71.2624 27.955V27.955C71.2624 28.3498 70.9423 28.6699 70.5475 28.6699H67.1156C66.7207 28.6699 66.4006 28.3498 66.4006 27.955V27.955Z" fill="white"/>
<path d="M49.928 33.1027C49.928 32.7078 50.2481 32.3877 50.6429 32.3877H54.0748C54.4697 32.3877 54.7898 32.7078 54.7898 33.1027V33.1027C54.7898 33.4975 54.4697 33.8176 54.0748 33.8176H50.6429C50.2481 33.8176 49.928 33.4975 49.928 33.1027V33.1027Z" fill="white"/>
<path d="M58.1636 33.1027C58.1636 32.7078 58.4837 32.3877 58.8785 32.3877H62.3104C62.7053 32.3877 63.0254 32.7078 63.0254 33.1027V33.1027C63.0254 33.4975 62.7053 33.8176 62.3104 33.8176H58.8785C58.4837 33.8176 58.1636 33.4975 58.1636 33.1027V33.1027Z" fill="white"/>
<path d="M66.4006 33.1027C66.4006 32.7078 66.7207 32.3877 67.1156 32.3877H70.5475C70.9423 32.3877 71.2624 32.7078 71.2624 33.1027V33.1027C71.2624 33.4975 70.9423 33.8176 70.5475 33.8176H67.1156C66.7207 33.8176 66.4006 33.4975 66.4006 33.1027V33.1027Z" fill="white"/>
<path d="M49.928 38.2506C49.928 37.8557 50.2481 37.5356 50.6429 37.5356H54.0748C54.4697 37.5356 54.7898 37.8557 54.7898 38.2506V38.2506C54.7898 38.6455 54.4697 38.9656 54.0748 38.9656H50.6429C50.2481 38.9656 49.928 38.6455 49.928 38.2506V38.2506Z" fill="white"/>
<path d="M58.1636 38.2506C58.1636 37.8557 58.4837 37.5356 58.8785 37.5356H62.3104C62.7053 37.5356 63.0254 37.8557 63.0254 38.2506V38.2506C63.0254 38.6455 62.7053 38.9656 62.3104 38.9656H58.8785C58.4837 38.9656 58.1636 38.6455 58.1636 38.2506V38.2506Z" fill="white"/>
<path d="M66.4006 38.2506C66.4006 37.8557 66.7207 37.5356 67.1156 37.5356H70.5475C70.9423 37.5356 71.2624 37.8557 71.2624 38.2506V38.2506C71.2624 38.6455 70.9423 38.9656 70.5475 38.9656H67.1156C66.7207 38.9656 66.4006 38.6455 66.4006 38.2506V38.2506Z" fill="white"/>
<path d="M49.928 43.3983C49.928 43.0035 50.2481 42.6833 50.6429 42.6833H54.0748C54.4697 42.6833 54.7898 43.0035 54.7898 43.3983V43.3983C54.7898 43.7932 54.4697 44.1133 54.0748 44.1133H50.6429C50.2481 44.1133 49.928 43.7932 49.928 43.3983V43.3983Z" fill="white"/>
<path d="M58.1636 43.3983C58.1636 43.0035 58.4837 42.6833 58.8785 42.6833H62.3104C62.7053 42.6833 63.0254 43.0035 63.0254 43.3983V43.3983C63.0254 43.7932 62.7053 44.1133 62.3104 44.1133H58.8785C58.4837 44.1133 58.1636 43.7932 58.1636 43.3983V43.3983Z" fill="white"/>
<path d="M66.4006 43.3983C66.4006 43.0035 66.7207 42.6833 67.1156 42.6833H70.5475C70.9423 42.6833 71.2624 43.0035 71.2624 43.3983V43.3983C71.2624 43.7932 70.9423 44.1133 70.5475 44.1133H67.1156C66.7207 44.1133 66.4006 43.7932 66.4006 43.3983V43.3983Z" fill="white"/>
<path fill-rule="evenodd" clip-rule="evenodd" d="M73.5512 24.7519H47.6407C47.23 24.7519 46.8971 25.0848 46.8971 25.4954V48.7749H74.2948V25.4954C74.2948 25.0848 73.9619 24.7519 73.5512 24.7519ZM47.6407 24.0083C46.8194 24.0083 46.1536 24.6741 46.1536 25.4954V49.5184H75.0384V25.4954C75.0384 24.6741 74.3725 24.0083 73.5512 24.0083H47.6407Z" fill="white"/>
<path fill-rule="evenodd" clip-rule="evenodd" d="M32.0017 12.1904V14.3991C32.0017 17.5422 34.5498 20.0902 37.6929 20.0902H82.307C85.4502 20.0902 87.9982 17.5422 87.9982 14.3991V12.1904H88.6274V14.3991C88.6274 17.8897 85.7977 20.7194 82.307 20.7194H37.6929C34.2023 20.7194 31.3726 17.8897 31.3726 14.3991V12.1904H32.0017Z" fill="white"/>
<path d="M46.1536 2.8451C46.1536 2.1405 46.6363 1.52763 47.3213 1.36257L50.3858 0.624142C50.728 0.541671 51.0788 0.5 51.4309 0.5H69.5193C69.9175 0.5 70.314 0.553329 70.6981 0.658566L73.1363 1.32657C73.8205 1.514 74.2948 2.13576 74.2948 2.8451H46.1536Z" fill="white"/>
</svg>
