<svg width="723" height="85" viewBox="0 0 723 85" fill="none" xmlns="http://www.w3.org/2000/svg">
<g id="gamemeta">
<g id="GAME DETAILS">
<g id="ICON DIVIDERS" opacity="0.351446">
<rect id="Rectangle" x="170" width="1" height="73" fill="white"/>
<rect id="Rectangle_2" x="361" width="1" height="73" fill="white"/>
<rect id="Rectangle_3" x="552" width="1" height="73" fill="white"/>
</g>
<g id="MD_LBL_PLAYERS INFO">
<g id="PLAYERS - ICON">
<path id="Oval" d="M258.5 8C258.5 11.5899 255.59 14.5 252 14.5C248.41 14.5 245.5 11.5899 245.5 8C245.5 4.41015 248.41 1.5 252 1.5C255.59 1.5 258.5 4.41015 258.5 8Z" stroke="white" stroke-width="3"/>
<path id="Rectangle_4" d="M245 19.5H259C262.038 19.5 264.5 21.9624 264.5 25V36.5H239.5V25C239.5 21.9624 241.962 19.5 245 19.5Z" stroke="white" stroke-width="3"/>
<path id="Oval_2" d="M287.5 8C287.5 11.5899 284.59 14.5 281 14.5C277.41 14.5 274.5 11.5899 274.5 8C274.5 4.41015 277.41 1.5 281 1.5C284.59 1.5 287.5 4.41015 287.5 8Z" stroke="white" stroke-width="3"/>
<path id="Rectangle_5" d="M274 19.5H288C291.038 19.5 293.5 21.9624 293.5 25V36.5H268.5V25C268.5 21.9624 270.962 19.5 274 19.5Z" stroke="white" stroke-width="3"/>
</g>
</g>
<g id="MD_DEVELOPER INFO">
<g id="PROCESSOR - ICON">
<g id="Group 51">
<rect id="Rectangle_6" x="420" y="13" width="8" height="3" rx="1.5" fill="white"/>
<rect id="Rectangle_7" x="420" y="18" width="8" height="3" rx="1.5" fill="white"/>
<rect id="Rectangle_8" x="420" y="23" width="8" height="3" rx="1.5" fill="white"/>
</g>
<g id="Group 52">
<rect id="Rectangle_9" x="448" y="1" width="7" height="3" rx="1.5" transform="rotate(90 448 1)" fill="white"/>
<rect id="Rectangle_10" x="443" y="1" width="7" height="3" rx="1.5" transform="rotate(90 443 1)" fill="white"/>
<rect id="Rectangle_11" x="438" y="1" width="7" height="3" rx="1.5" transform="rotate(90 438 1)" fill="white"/>
<rect id="Rectangle_12" x="463" y="1" width="7" height="3" rx="1.5" transform="rotate(90 463 1)" fill="white"/>
<rect id="Rectangle_13" x="458" y="1" width="7" height="3" rx="1.5" transform="rotate(90 458 1)" fill="white"/>
<rect id="Rectangle_14" x="453" y="1" width="7" height="3" rx="1.5" transform="rotate(90 453 1)" fill="white"/>
<rect id="Rectangle_15" x="478" y="1" width="7" height="3" rx="1.5" transform="rotate(90 478 1)" fill="white"/>
<rect id="Rectangle_16" x="468" y="1" width="7" height="3" rx="1.5" transform="rotate(90 468 1)" fill="white"/>
<rect id="Rectangle_17" x="473" y="1" width="7" height="3" rx="1.5" transform="rotate(90 473 1)" fill="white"/>
</g>
<g id="Group 52_2">
<rect id="Rectangle_18" x="448" y="31" width="7" height="3" rx="1.5" transform="rotate(90 448 31)" fill="white"/>
<rect id="Rectangle_19" x="443" y="31" width="7" height="3" rx="1.5" transform="rotate(90 443 31)" fill="white"/>
<rect id="Rectangle_20" x="438" y="31" width="7" height="3" rx="1.5" transform="rotate(90 438 31)" fill="white"/>
<rect id="Rectangle_21" x="463" y="31" width="7" height="3" rx="1.5" transform="rotate(90 463 31)" fill="white"/>
<rect id="Rectangle_22" x="458" y="31" width="7" height="3" rx="1.5" transform="rotate(90 458 31)" fill="white"/>
<rect id="Rectangle_23" x="453" y="31" width="7" height="3" rx="1.5" transform="rotate(90 453 31)" fill="white"/>
<rect id="Rectangle_24" x="478" y="31" width="7" height="3" rx="1.5" transform="rotate(90 478 31)" fill="white"/>
<rect id="Rectangle_25" x="468" y="31" width="7" height="3" rx="1.5" transform="rotate(90 468 31)" fill="white"/>
<rect id="Rectangle_26" x="473" y="31" width="7" height="3" rx="1.5" transform="rotate(90 473 31)" fill="white"/>
</g>
<g id="Group 51_2">
<rect id="Rectangle_27" x="486" y="13" width="8" height="3" rx="1.5" fill="white"/>
<rect id="Rectangle_28" x="486" y="18" width="8" height="3" rx="1.5" fill="white"/>
<rect id="Rectangle_29" x="486" y="23" width="8" height="3" rx="1.5" fill="white"/>
</g>
<path id="Rectangle (Stroke)" fill-rule="evenodd" clip-rule="evenodd" d="M428 9V30H485V9H428ZM427.556 6C426.144 6 425 7.14416 425 8.55556V30.4444C425 31.8558 426.144 33 427.556 33H485.444C486.856 33 488 31.8558 488 30.4444V8.55556C488 7.14416 486.856 6 485.444 6H427.556Z" fill="white"/>
<path id="Rectangle (Stroke)_2" fill-rule="evenodd" clip-rule="evenodd" d="M480 14H433V25H480V14ZM431 12V27H482V12H431Z" fill="white"/>
</g>
</g>
<g id="RELEASEDATE - INFO">
<g id="RELEASEDATE - ICON">
<rect id="Rectangle_30" x="632" width="10" height="3" rx="1.5" transform="rotate(90 632 0)" fill="white"/>
<rect id="Rectangle_31" x="620" y="11" width="57" height="2" fill="white"/>
<rect id="Rectangle_32" x="668" width="10" height="3" rx="1.5" transform="rotate(90 668 0)" fill="white"/>
<path id="Rectangle (Stroke)_3" fill-rule="evenodd" clip-rule="evenodd" d="M623 6V35H674V6H623ZM622.556 3C621.144 3 620 4.14416 620 5.55556V35.4444C620 36.8558 621.144 38 622.556 38H674.444C675.856 38 677 36.8558 677 35.4444V5.55556C677 4.14416 675.856 3 674.444 3H622.556Z" fill="white"/>
<path id="Oval_3" fill-rule="evenodd" clip-rule="evenodd" d="M634.5 18C635.328 18 636 17.3284 636 16.5C636 15.6716 635.328 15 634.5 15C633.672 15 633 15.6716 633 16.5C633 17.3284 633.672 18 634.5 18Z" fill="white"/>
<path id="Oval_4" fill-rule="evenodd" clip-rule="evenodd" d="M641.5 18C642.328 18 643 17.3284 643 16.5C643 15.6716 642.328 15 641.5 15C640.672 15 640 15.6716 640 16.5C640 17.3284 640.672 18 641.5 18Z" fill="white"/>
<path id="Oval_5" fill-rule="evenodd" clip-rule="evenodd" d="M648.5 18C649.328 18 650 17.3284 650 16.5C650 15.6716 649.328 15 648.5 15C647.672 15 647 15.6716 647 16.5C647 17.3284 647.672 18 648.5 18Z" fill="white"/>
<path id="Oval_6" fill-rule="evenodd" clip-rule="evenodd" d="M655.5 18C656.328 18 657 17.3284 657 16.5C657 15.6716 656.328 15 655.5 15C654.672 15 654 15.6716 654 16.5C654 17.3284 654.672 18 655.5 18Z" fill="white"/>
<path id="Oval_7" fill-rule="evenodd" clip-rule="evenodd" d="M662.5 18C663.328 18 664 17.3284 664 16.5C664 15.6716 663.328 15 662.5 15C661.672 15 661 15.6716 661 16.5C661 17.3284 661.672 18 662.5 18Z" fill="white"/>
<path id="Oval_8" fill-rule="evenodd" clip-rule="evenodd" d="M669.5 18C670.328 18 671 17.3284 671 16.5C671 15.6716 670.328 15 669.5 15C668.672 15 668 15.6716 668 16.5C668 17.3284 668.672 18 669.5 18Z" fill="white"/>
<path id="Oval_9" fill-rule="evenodd" clip-rule="evenodd" d="M627.5 23C628.328 23 629 22.3284 629 21.5C629 20.6716 628.328 20 627.5 20C626.672 20 626 20.6716 626 21.5C626 22.3284 626.672 23 627.5 23Z" fill="white"/>
<path id="Oval_10" fill-rule="evenodd" clip-rule="evenodd" d="M634.5 23C635.328 23 636 22.3284 636 21.5C636 20.6716 635.328 20 634.5 20C633.672 20 633 20.6716 633 21.5C633 22.3284 633.672 23 634.5 23Z" fill="white"/>
<path id="Oval_11" fill-rule="evenodd" clip-rule="evenodd" d="M641.5 23C642.328 23 643 22.3284 643 21.5C643 20.6716 642.328 20 641.5 20C640.672 20 640 20.6716 640 21.5C640 22.3284 640.672 23 641.5 23Z" fill="white"/>
<path id="Oval_12" fill-rule="evenodd" clip-rule="evenodd" d="M648.5 23C649.328 23 650 22.3284 650 21.5C650 20.6716 649.328 20 648.5 20C647.672 20 647 20.6716 647 21.5C647 22.3284 647.672 23 648.5 23Z" fill="white"/>
<path id="Oval_13" fill-rule="evenodd" clip-rule="evenodd" d="M655.5 23C656.328 23 657 22.3284 657 21.5C657 20.6716 656.328 20 655.5 20C654.672 20 654 20.6716 654 21.5C654 22.3284 654.672 23 655.5 23Z" fill="white"/>
<path id="Oval_14" fill-rule="evenodd" clip-rule="evenodd" d="M662.5 23C663.328 23 664 22.3284 664 21.5C664 20.6716 663.328 20 662.5 20C661.672 20 661 20.6716 661 21.5C661 22.3284 661.672 23 662.5 23Z" fill="white"/>
<path id="Oval_15" fill-rule="evenodd" clip-rule="evenodd" d="M669.5 23C670.328 23 671 22.3284 671 21.5C671 20.6716 670.328 20 669.5 20C668.672 20 668 20.6716 668 21.5C668 22.3284 668.672 23 669.5 23Z" fill="white"/>
<path id="Oval_16" fill-rule="evenodd" clip-rule="evenodd" d="M627.5 28C628.328 28 629 27.3284 629 26.5C629 25.6716 628.328 25 627.5 25C626.672 25 626 25.6716 626 26.5C626 27.3284 626.672 28 627.5 28Z" fill="white"/>
<path id="Oval_17" fill-rule="evenodd" clip-rule="evenodd" d="M634.5 28C635.328 28 636 27.3284 636 26.5C636 25.6716 635.328 25 634.5 25C633.672 25 633 25.6716 633 26.5C633 27.3284 633.672 28 634.5 28Z" fill="white"/>
<path id="Oval_18" fill-rule="evenodd" clip-rule="evenodd" d="M641.5 28C642.328 28 643 27.3284 643 26.5C643 25.6716 642.328 25 641.5 25C640.672 25 640 25.6716 640 26.5C640 27.3284 640.672 28 641.5 28Z" fill="white"/>
<path id="Oval_19" fill-rule="evenodd" clip-rule="evenodd" d="M648.5 28C649.328 28 650 27.3284 650 26.5C650 25.6716 649.328 25 648.5 25C647.672 25 647 25.6716 647 26.5C647 27.3284 647.672 28 648.5 28Z" fill="white"/>
<path id="Oval_20" fill-rule="evenodd" clip-rule="evenodd" d="M655.5 28C656.328 28 657 27.3284 657 26.5C657 25.6716 656.328 25 655.5 25C654.672 25 654 25.6716 654 26.5C654 27.3284 654.672 28 655.5 28Z" fill="white"/>
<path id="Oval_21" fill-rule="evenodd" clip-rule="evenodd" d="M662.5 28C663.328 28 664 27.3284 664 26.5C664 25.6716 663.328 25 662.5 25C661.672 25 661 25.6716 661 26.5C661 27.3284 661.672 28 662.5 28Z" fill="white"/>
<path id="Oval_22" fill-rule="evenodd" clip-rule="evenodd" d="M669.5 28C670.328 28 671 27.3284 671 26.5C671 25.6716 670.328 25 669.5 25C668.672 25 668 25.6716 668 26.5C668 27.3284 668.672 28 669.5 28Z" fill="white"/>
<path id="Oval_23" fill-rule="evenodd" clip-rule="evenodd" d="M627.5 33C628.328 33 629 32.3284 629 31.5C629 30.6716 628.328 30 627.5 30C626.672 30 626 30.6716 626 31.5C626 32.3284 626.672 33 627.5 33Z" fill="white"/>
<path id="Oval_24" fill-rule="evenodd" clip-rule="evenodd" d="M634.5 33C635.328 33 636 32.3284 636 31.5C636 30.6716 635.328 30 634.5 30C633.672 30 633 30.6716 633 31.5C633 32.3284 633.672 33 634.5 33Z" fill="white"/>
<path id="Oval_25" fill-rule="evenodd" clip-rule="evenodd" d="M641.5 33C642.328 33 643 32.3284 643 31.5C643 30.6716 642.328 30 641.5 30C640.672 30 640 30.6716 640 31.5C640 32.3284 640.672 33 641.5 33Z" fill="white"/>
<path id="Oval_26" fill-rule="evenodd" clip-rule="evenodd" d="M648.5 33C649.328 33 650 32.3284 650 31.5C650 30.6716 649.328 30 648.5 30C647.672 30 647 30.6716 647 31.5C647 32.3284 647.672 33 648.5 33Z" fill="white"/>
<path id="Oval_27" fill-rule="evenodd" clip-rule="evenodd" d="M655.5 33C656.328 33 657 32.3284 657 31.5C657 30.6716 656.328 30 655.5 30C654.672 30 654 30.6716 654 31.5C654 32.3284 654.672 33 655.5 33Z" fill="white"/>
<path id="Oval_28" fill-rule="evenodd" clip-rule="evenodd" d="M662.5 33C663.328 33 664 32.3284 664 31.5C664 30.6716 663.328 30 662.5 30C661.672 30 661 30.6716 661 31.5C661 32.3284 661.672 33 662.5 33Z" fill="white"/>
</g>
</g>
</g>
<g id="Group 270">
<path id="Vector 13" d="M58.7653 1.14868V1.94055L50.4507 2.33649V1.47863L58.7653 1.14868Z" fill="white"/>
<path id="Vector (Stroke)" fill-rule="evenodd" clip-rule="evenodd" d="M74.9192 3.25122C65.1321 3.25122 52.8163 3.9732 46.81 4.64057C43.7417 4.98149 41.3466 5.34887 39.7417 5.62581C38.748 5.79727 38.0056 6.59365 37.8996 7.60558C37.731 9.21633 37.5192 11.5824 37.3614 14.5026C37.0516 20.2328 36.8979 24.4501 36.8979 28.1965C36.8979 29.7 36.9731 32.3024 37.0637 34.8863C37.1897 38.4841 40.0975 41.3412 43.6813 41.4575C43.7332 41.4592 43.798 41.4608 43.8675 41.4625C43.977 41.4652 44.0983 41.4682 44.2001 41.4723C46.3793 41.5602 62.3045 42.1848 74.9192 42.1848C87.534 42.1848 103.459 41.5602 105.638 41.4723C105.74 41.4682 105.861 41.4652 105.971 41.4625C106.04 41.4608 106.105 41.4592 106.157 41.4575C109.741 41.3412 112.649 38.4841 112.775 34.8863C112.865 32.3024 112.941 29.7 112.941 28.1965C112.941 24.4501 112.787 20.2328 112.477 14.5026C112.319 11.5824 112.107 9.21633 111.939 7.60558C111.833 6.59365 111.09 5.79727 110.097 5.62581C108.492 5.34887 106.097 4.98149 103.028 4.64057C97.0221 3.9732 84.7063 3.25122 74.9192 3.25122ZM46.5892 2.6528C52.6769 1.97638 65.067 1.25122 74.9192 1.25122C84.7715 1.25122 97.1615 1.97638 103.249 2.6528C106.361 2.9985 108.796 3.37172 110.437 3.65493C112.322 3.98017 113.73 5.50403 113.928 7.39731C114.1 9.03697 114.314 11.4367 114.474 14.3946C114.785 20.1382 114.941 24.397 114.941 28.1965C114.941 29.7404 114.864 32.3769 114.774 34.9564C114.61 39.6203 110.843 43.3065 106.222 43.4565C106.127 43.4596 106.053 43.4613 105.983 43.4629C105.897 43.4648 105.818 43.4666 105.719 43.4706C103.54 43.5585 87.5788 44.1848 74.9192 44.1848C62.2597 44.1848 46.2981 43.5585 44.1194 43.4706C44.02 43.4666 43.9415 43.4648 43.8552 43.4629C43.7857 43.4613 43.7111 43.4596 43.6164 43.4565C38.9956 43.3065 35.2283 39.6203 35.0649 34.9564C34.9745 32.3769 34.8979 29.7404 34.8979 28.1965C34.8979 24.397 35.0538 20.1382 35.3643 14.3946C35.5242 11.4367 35.7388 9.03696 35.9105 7.39731C36.1088 5.50403 37.5167 3.98017 39.4016 3.65493C41.0429 3.37172 43.4779 2.9985 46.5892 2.6528Z" fill="white"/>
<path id="Vector (Stroke)_2" fill-rule="evenodd" clip-rule="evenodd" d="M53.3998 27.6183L45.0405 4.22839L45.9822 3.89185L54.3415 27.2818C55.5492 30.661 58.7505 32.9165 62.3391 32.9165H87.3965C90.985 32.9165 94.1864 30.661 95.3941 27.2818L103.753 3.89185L104.695 4.22839L96.3357 27.6183C94.9858 31.3954 91.4076 33.9165 87.3965 33.9165H62.3391C58.328 33.9165 54.7497 31.3954 53.3998 27.6183Z" fill="white"/>
<path id="Vector (Stroke)_3" fill-rule="evenodd" clip-rule="evenodd" d="M58.1873 4.9098C63.1584 4.4872 67.6697 4.18018 74.8719 4.18018C82.074 4.18018 86.5853 4.4872 91.5564 4.9098C93.3772 5.06459 95.2087 5.30893 96.8001 5.55662C99.6829 6.00532 101.304 8.98848 100.298 11.6881L94.6123 26.9301C93.3931 30.1987 90.2717 32.3659 86.7832 32.3659H62.9605C59.472 32.3659 56.3506 30.1987 55.1314 26.9301L49.4462 11.6881C48.4393 8.98848 50.0608 6.00532 52.9436 5.55662C54.535 5.30893 56.3665 5.06459 58.1873 4.9098ZM74.8719 5.18018C67.7059 5.18018 63.2242 5.48521 58.272 5.90621C56.4813 6.05844 54.674 6.29934 53.0974 6.54473C50.8758 6.89051 49.5847 9.19807 50.3832 11.3386L56.0684 26.5807C57.1416 29.458 59.8895 31.3659 62.9605 31.3659H86.7832C89.8542 31.3659 92.6021 29.458 93.6753 26.5807L99.3606 11.3386C100.159 9.19807 98.8679 6.89051 96.6463 6.54473C95.0697 6.29934 93.2624 6.05844 91.4717 5.90621C86.5195 5.48521 82.0378 5.18018 74.8719 5.18018Z" fill="white"/>
<path id="Rectangle 258 (Stroke)" fill-rule="evenodd" clip-rule="evenodd" d="M61.0864 7.23071V28.3851H88.7529V7.23071H61.0864ZM60.81 6.23071C60.4104 6.23071 60.0864 6.55467 60.0864 6.95429V28.6615C60.0864 29.0611 60.4104 29.3851 60.81 29.3851H89.0294C89.429 29.3851 89.7529 29.0611 89.7529 28.6615V6.95429C89.7529 6.55467 89.429 6.23071 89.0294 6.23071H60.81Z" fill="white"/>
<path id="Rectangle 259 (Stroke)" fill-rule="evenodd" clip-rule="evenodd" d="M64.1543 10.1958V25.4222H85.6861V10.1958H64.1543ZM62.8779 8.1958C62.4783 8.1958 62.1543 8.51976 62.1543 8.91937V26.6986C62.1543 27.0982 62.4783 27.4222 62.8779 27.4222H86.9625C87.3621 27.4222 87.6861 27.0982 87.6861 26.6986V8.91937C87.6861 8.51976 87.3621 8.1958 86.9625 8.1958H62.8779Z" fill="white"/>
<path id="Ellipse 158" d="M101.33 13.4665C103.271 13.4665 104.844 12.1475 104.844 10.5205C104.844 9.35997 104.044 8.35619 102.88 7.87598L100.865 13.4409C101.017 13.4578 101.172 13.4665 101.33 13.4665Z" fill="white"/>
<circle id="Ellipse 159" cx="102.26" cy="21.7359" r="2.17072" fill="white"/>
<circle id="Ellipse 160" cx="108.359" cy="17.0843" r="2.17072" fill="white"/>
<path id="Ellipse 161 (Stroke)" fill-rule="evenodd" clip-rule="evenodd" d="M49.4185 19.2552C49.4185 22.4335 46.842 25.0101 43.6636 25.0101C40.4853 25.0101 37.9087 22.4335 37.9087 19.2552C37.9087 16.0768 40.4853 13.5002 43.6636 13.5002C46.842 13.5002 49.4185 16.0768 49.4185 19.2552ZM43.6636 24.0101C46.2897 24.0101 48.4185 21.8812 48.4185 19.2552C48.4185 16.6291 46.2897 14.5002 43.6636 14.5002C41.0375 14.5002 38.9087 16.6291 38.9087 19.2552C38.9087 21.8812 41.0375 24.0101 43.6636 24.0101Z" fill="white"/>
<g id="Group 264">
<rect id="Rectangle 260" x="42.3091" y="15.1462" width="2.70702" height="8.21773" rx="0.413471" fill="white"/>
<rect id="Rectangle 261" x="39.5542" y="20.6086" width="2.70702" height="8.21773" rx="0.413471" transform="rotate(-90 39.5542 20.6086)" fill="white"/>
</g>
<g id="Group 265">
<circle id="Ellipse 158_2" cx="44.9163" cy="32.0911" r="0.406002" fill="white"/>
<circle id="Ellipse 159_2" cx="46.1702" cy="32.0911" r="0.406002" fill="white"/>
<circle id="Ellipse 160_2" cx="47.4236" cy="32.0911" r="0.406002" fill="white"/>
<circle id="Ellipse 161" cx="48.676" cy="32.0911" r="0.406002" fill="white"/>
<circle id="Ellipse 162" cx="49.9285" cy="32.0911" r="0.406002" fill="white"/>
<circle id="Ellipse 163" cx="51.1819" cy="32.0911" r="0.406002" fill="white"/>
</g>
<g id="Group 266">
<circle id="Ellipse 158_3" cx="44.9172" cy="33.2798" r="0.406002" fill="white"/>
<circle id="Ellipse 164" cx="43.6638" cy="33.2798" r="0.406002" fill="white"/>
<circle id="Ellipse 165" cx="52.4348" cy="33.2798" r="0.406002" fill="white"/>
<circle id="Ellipse 159_3" cx="46.1697" cy="33.2798" r="0.406002" fill="white"/>
<circle id="Ellipse 160_3" cx="47.4226" cy="33.2798" r="0.406002" fill="white"/>
<circle id="Ellipse 161_2" cx="48.676" cy="33.2798" r="0.406002" fill="white"/>
<circle id="Ellipse 162_2" cx="49.9285" cy="33.2798" r="0.406002" fill="white"/>
<circle id="Ellipse 163_2" cx="51.1819" cy="33.2798" r="0.406002" fill="white"/>
</g>
<g id="Group 267">
<circle id="Ellipse 158_4" cx="44.9172" cy="34.4685" r="0.406002" fill="white"/>
<circle id="Ellipse 164_2" cx="43.6638" cy="34.4685" r="0.406002" fill="white"/>
<circle id="Ellipse 165_2" cx="52.4348" cy="34.4685" r="0.406002" fill="white"/>
<circle id="Ellipse 159_4" cx="46.1697" cy="34.4685" r="0.406002" fill="white"/>
<circle id="Ellipse 160_4" cx="47.4226" cy="34.4685" r="0.406002" fill="white"/>
<circle id="Ellipse 161_3" cx="48.676" cy="34.4685" r="0.406002" fill="white"/>
<circle id="Ellipse 162_3" cx="49.9285" cy="34.4685" r="0.406002" fill="white"/>
<circle id="Ellipse 163_3" cx="51.1819" cy="34.4685" r="0.406002" fill="white"/>
</g>
<g id="Group 268">
<circle id="Ellipse 158_5" cx="44.9172" cy="35.6929" r="0.406002" fill="white"/>
<circle id="Ellipse 164_3" cx="43.6638" cy="35.6929" r="0.406002" fill="white"/>
<circle id="Ellipse 165_3" cx="52.4348" cy="35.6929" r="0.406002" fill="white"/>
<circle id="Ellipse 159_5" cx="46.1697" cy="35.6929" r="0.406002" fill="white"/>
<circle id="Ellipse 160_5" cx="47.4226" cy="35.6929" r="0.406002" fill="white"/>
<circle id="Ellipse 161_4" cx="48.676" cy="35.6929" r="0.406002" fill="white"/>
<circle id="Ellipse 162_4" cx="49.9285" cy="35.6929" r="0.406002" fill="white"/>
<circle id="Ellipse 163_4" cx="51.1819" cy="35.6929" r="0.406002" fill="white"/>
</g>
<g id="Group 269">
<circle id="Ellipse 158_6" cx="44.9163" cy="36.917" r="0.406002" fill="white"/>
<circle id="Ellipse 159_6" cx="46.1702" cy="36.917" r="0.406002" fill="white"/>
<circle id="Ellipse 160_6" cx="47.4236" cy="36.917" r="0.406002" fill="white"/>
<circle id="Ellipse 161_5" cx="48.676" cy="36.917" r="0.406002" fill="white"/>
<circle id="Ellipse 162_5" cx="49.9285" cy="36.917" r="0.406002" fill="white"/>
<circle id="Ellipse 163_5" cx="51.1819" cy="36.917" r="0.406002" fill="white"/>
</g>
</g>
</g>
</svg>
