<svg width="441" height="193" viewBox="0 0 441 193" fill="none" xmlns="http://www.w3.org/2000/svg">
<path d="M68.1099 41.884C70.648 44.3488 74.1091 45.8726 77.9263 45.8726L138.24 45.8796L125.214 7.01937C123.435 2.89106 119.261 0 114.248 0C109.256 0 105.019 2.98552 103.306 7.09678L98.9642 19.7554L98.9471 0.653875L77.8844 0.643277C74.0773 0.643277 70.6549 2.1289 68.1343 4.58634L68.1417 0.660326H46.5758C42.559 0.660326 38.9058 2.37312 36.3507 5.06511V0.643277L16.0248 0.660787C7.25023 0.653414 0.0525312 7.51242 0.0419328 16.581C0.0419328 20.7793 1.87684 24.5869 4.58266 27.4079L0 27.4005V45.8726L20.4789 45.8689C26.2329 45.862 31.9348 42.3904 33.9167 38.2307L33.9762 38.0598C36.2659 42.6844 41.0444 45.8726 46.5749 45.8726L68.1095 45.8689V41.884" fill="white"/>
<path d="M3.16388 42.712L20.4333 42.6945C27.4987 42.6945 33.2246 36.9861 33.2246 29.9525C33.2246 22.905 27.4987 17.1961 20.4333 17.1961L15.9483 17.2206C15.5949 17.2206 15.3083 16.9307 15.3083 16.5741C15.3083 16.2174 15.5949 15.9271 15.9483 15.9271L33.1864 15.9308L33.1933 10.5228H15.9446C12.6098 10.5228 9.89663 13.2319 9.89663 16.5602C9.89663 19.8918 12.6094 22.5903 15.9446 22.5903L20.4508 22.6497C24.4989 22.6497 27.7747 25.9145 27.7747 29.9423C27.7747 33.9729 24.4994 37.2451 20.4508 37.2451H3.17079L3.16388 42.712" fill="#0060A8"/>
<path d="M3.17075 35.9756H20.4507C23.7962 35.9756 26.502 33.2771 26.502 29.9419C26.502 26.6103 23.7962 23.915 20.4507 23.915L15.9446 23.8662C11.9034 23.8662 8.62431 20.5977 8.62431 16.5598C8.62431 12.5328 11.9034 9.26391 15.9446 9.26391L33.1932 9.26023L33.1863 3.83154H15.9483C8.89019 3.83154 3.15692 9.53348 3.15692 16.574C3.15692 23.6146 8.89019 29.3198 15.9483 29.3198L20.4088 29.3267C20.748 29.3267 21.0346 29.6032 21.0346 29.9524C21.0346 30.2953 20.748 30.5713 20.4088 30.5713L3.16383 30.5851L3.17075 35.9756Z" fill="#0060A8"/>
<path d="M46.6136 37.2796C43.6175 37.2796 41.1633 34.8918 41.1633 31.8431V14.5917C41.1633 11.6587 43.6175 9.2464 46.6136 9.2464L65.047 9.24963V3.83154H46.6136C40.6149 3.83154 35.7558 8.67317 35.7558 14.6511V31.8436C35.7558 37.822 40.6149 42.6705 46.6136 42.6705L64.9701 42.6779L64.9664 37.2732L46.6136 37.2796Z" fill="#0060A8"/>
<path d="M42.4848 14.6511C42.4848 12.3651 44.3239 10.5122 46.6136 10.5122H65.047V15.9377H49.1655C47.8933 15.9377 47.8757 17.1998 47.8757 17.1998H61.1251V22.6008H42.4784L42.4848 14.6511Z" fill="#0060A8"/>
<path d="M46.6136 35.9655C44.3308 35.9655 42.4779 34.1232 42.4779 31.8436V23.887H61.1246V29.2991H47.8753C47.8928 30.5713 49.165 30.5778 49.165 30.5778H64.9696L64.9659 35.9581L46.6136 35.9655Z" fill="#0060A8"/>
<path d="M77.9646 37.2658C74.9791 37.2658 72.5391 34.8328 72.5391 31.8431V14.6507C72.5391 11.6582 74.9616 9.24594 77.9503 9.24594H95.804V3.83154H77.9088C71.9129 3.83154 67.0538 8.67317 67.0538 14.6511V31.8436C67.0538 37.822 71.9548 42.6705 77.9503 42.6705L95.804 42.6779V17.1998H80.4607V22.6008H90.3818V37.2658H77.9646Z" fill="#0060A8"/>
<path d="M73.8114 31.8431C73.8114 34.1338 75.6643 35.9968 77.9503 35.9968H89.1021V23.88H80.4741V29.299H83.6762L83.6864 30.5713H80.4985C79.8027 30.5713 79.2332 29.9949 79.2332 29.299L79.2046 17.1961C79.2046 17.1961 79.2009 15.9377 80.4843 15.9064H95.81L95.8031 10.5085L77.9494 10.5122C75.6634 10.5122 73.8105 12.3651 73.8105 14.6511V31.8431" fill="#0060A8"/>
<path d="M112.58 10.4316C112.821 9.74317 113.475 9.24689 114.248 9.24689C115.021 9.24689 115.681 9.74317 115.915 10.4316L124.582 36.035H111.891L111.905 30.0119H116.146L114.237 24.3381L108.018 42.6733H101.621L112.58 10.4316Z" fill="#0060A8"/>
<path d="M126.329 37.2658H111.913V42.6733H133.852L122.442 8.91415C121.442 5.62128 118.146 3.19885 114.244 3.19885C110.336 3.19885 107.05 5.61068 106.043 8.90079L94.5276 42.6737H100.271L111.451 9.84451C111.905 8.75748 112.976 7.99163 114.234 7.99163C115.486 7.99163 116.562 8.75748 117.02 9.8376L126.329 37.2658Z" fill="#0060A8"/>
<path fill-rule="evenodd" clip-rule="evenodd" d="M132.42 7.01291C131.699 7.72945 130.738 8.12805 129.717 8.12805C128.7 8.12805 127.742 7.72945 127.025 7.01337C126.298 6.28992 125.9 5.3356 125.9 4.31493C125.9 2.21737 127.616 0.514709 129.717 0.514709C130.738 0.514709 131.699 0.913301 132.42 1.62616C133.139 2.34961 133.542 3.30071 133.542 4.31447C133.542 5.33514 133.139 6.28945 132.42 7.01291ZM127.399 1.99987C126.774 2.61872 126.438 3.44355 126.438 4.31401C126.438 5.19137 126.773 6.01297 127.399 6.63137C128.021 7.25022 128.846 7.58937 129.717 7.58937C131.532 7.58937 133.007 6.12126 133.007 4.31401C133.007 3.44355 132.664 2.61872 132.045 1.99987C131.423 1.38147 130.598 1.04555 129.717 1.04555C128.847 1.04555 128.022 1.38101 127.399 1.99987Z" fill="white"/>
<path fill-rule="evenodd" clip-rule="evenodd" d="M128.738 6.4323V4.63565H129.829L130.986 6.4323H131.654L130.465 4.60062C130.471 4.5993 130.478 4.59788 130.486 4.59635C130.719 4.54966 131.472 4.39843 131.472 3.44356C131.472 3.05188 131.339 2.6989 131.021 2.46436C130.698 2.22045 130.358 2.21651 129.784 2.20986C129.774 2.20976 129.765 2.20965 129.755 2.20953H128.186V6.4323H128.738ZM129.86 4.1707H128.738V2.67817H129.829C129.84 2.67817 129.852 2.67816 129.863 2.67815C130.173 2.67792 130.441 2.67772 130.654 2.8565C130.895 3.05234 130.906 3.33527 130.906 3.44724C130.906 3.7546 130.766 4.0343 130.375 4.12877C130.207 4.1707 130.039 4.1707 129.86 4.1707Z" fill="white"/>
<path d="M206.529 192.915C176.756 192.915 146.983 192.879 117.21 192.952C111.982 192.965 105.903 188.649 103.813 183.562C101.609 178.194 102.325 173.058 105.526 168.42C110.622 161.043 117.808 156.641 126.604 155.091C129.424 154.592 132.375 154.787 135.263 154.782C175.89 154.773 216.516 154.787 257.148 154.791C273.31 154.791 289.469 154.818 305.631 154.769C311.212 154.75 315.651 156.895 318.992 161.324C321.254 164.326 322.007 167.731 321.767 171.453C321.422 176.78 318.575 180.733 314.903 184.233C311.017 187.928 306.429 190.494 301.333 192.072C299.651 192.593 297.82 192.875 296.061 192.879C266.215 192.929 236.37 192.915 206.529 192.915ZM211.91 188.472C211.91 188.509 211.91 188.549 211.91 188.586C213.737 188.586 215.564 188.604 217.387 188.581C220.139 188.545 222.904 188.604 225.647 188.391C228.54 188.169 229.846 186.419 229.56 183.558C229.519 183.15 229.451 182.737 229.36 182.334C228.721 179.477 228.05 176.626 227.434 173.765C227.257 172.944 226.826 172.718 226.042 172.786C224.496 172.917 222.95 172.981 221.399 173.067C220.293 173.126 220.134 173.293 220.338 174.391C220.701 176.317 221.091 178.244 221.481 180.167C221.789 181.694 221.476 182.112 219.889 182.116C215.546 182.13 211.207 182.125 206.864 182.121C206.624 182.121 206.379 182.121 206.143 182.089C205.214 181.976 204.937 181.522 205.345 180.67C205.613 180.112 205.957 179.591 206.297 179.074C209.716 173.819 213.143 168.569 216.566 163.319C216.924 162.771 217.092 162.299 216.213 162.118C214.49 161.769 212.772 161.42 211.049 161.061C210.31 160.907 209.861 161.166 209.448 161.828C205.391 168.388 201.283 174.921 197.23 181.486C196.568 182.56 195.997 183.721 195.566 184.909C195.076 186.269 195.643 187.389 196.999 187.897C197.792 188.196 198.663 188.432 199.506 188.441C203.641 188.5 207.775 188.472 211.91 188.472ZM256.59 175.361V175.365C254.971 175.365 253.353 175.37 251.73 175.365C250.569 175.361 250.456 175.225 250.61 174.109C250.701 173.461 250.837 172.817 250.882 172.165C250.945 171.308 251.349 170.968 252.215 170.986C254.11 171.027 256.005 170.977 257.9 171.008C258.644 171.022 259.052 170.732 259.229 170.011C259.528 168.81 259.886 167.622 260.19 166.42C260.471 165.305 260.335 165.106 259.206 165.096C257.243 165.083 255.28 165.11 253.317 165.128C251.893 165.142 251.816 165.06 252.006 163.686C252.12 162.866 252.197 162.045 252.287 161.22C252.365 160.536 252.088 160.177 251.367 160.186C249.921 160.195 248.475 160.191 247.024 160.182C246.289 160.177 245.986 160.558 245.913 161.256C245.822 162.145 245.632 163.029 245.587 163.922C245.537 164.861 245.083 165.169 244.199 165.151C241.996 165.11 239.788 165.137 237.585 165.101C236.814 165.087 236.379 165.337 236.202 166.144C235.948 167.286 235.59 168.402 235.263 169.526C234.896 170.773 235.05 170.99 236.361 170.995C238.636 170.999 240.908 170.99 243.184 170.999C244.616 171.004 244.689 171.095 244.485 172.464C244.408 172.976 244.263 173.488 244.276 173.996C244.304 175.175 243.692 175.406 242.649 175.379C240.065 175.32 237.48 175.379 234.896 175.343C234.026 175.329 233.568 175.646 233.382 176.517C233.142 177.628 232.82 178.72 232.493 179.808C232.126 181.051 232.285 181.286 233.577 181.286C236.37 181.282 239.158 181.273 241.951 181.268C243.184 181.268 243.315 181.427 243.157 182.674C242.948 184.315 242.735 185.952 242.526 187.593C242.345 189.007 242.427 189.098 243.8 189.093C245.006 189.089 246.212 189.057 247.418 189.107C248.348 189.148 248.797 188.835 248.883 187.847C249.041 186.065 249.35 184.292 249.536 182.515C249.635 181.581 250.025 181.227 251 181.246C254.033 181.305 257.061 181.264 260.095 181.286C260.82 181.291 261.251 181.064 261.427 180.312C261.722 179.074 262.117 177.859 262.42 176.621C262.674 175.587 262.497 175.374 261.45 175.365C259.827 175.347 258.209 175.361 256.59 175.361ZM281.961 162.131C281.961 162.127 281.961 162.127 281.961 162.122C277.794 162.122 273.623 162.136 269.457 162.109C268.641 162.104 268.192 162.335 268.02 163.201C267.784 164.38 267.398 165.527 267.09 166.692C266.804 167.771 266.981 167.998 268.074 167.998C269.556 167.998 271.034 167.993 272.517 167.993C277.028 167.993 281.544 167.989 286.055 167.993C286.63 167.993 287.333 167.88 287.388 168.742C287.51 170.745 287.351 171.815 285.016 172.214C284.477 172.31 283.924 172.369 283.375 172.391C282.156 172.446 282.033 172.341 282.092 171.149C282.133 170.342 281.816 170.011 281.022 170.02C279.508 170.038 277.989 170.052 276.475 170.016C275.636 169.997 275.323 170.342 275.278 171.172C275.196 172.613 275.097 174.064 274.861 175.483C274.33 178.621 272.703 180.928 269.497 181.753C268.214 182.084 266.836 182.044 265.517 182.27C265.086 182.343 264.465 182.646 264.347 182.987C263.848 184.415 263.499 185.893 263.119 187.357C262.973 187.919 263.177 188.268 263.812 188.359C271.361 189.465 277.717 186.854 280.592 179.292C280.873 178.553 281.303 178.303 282.056 178.285C283.294 178.258 284.536 178.181 285.764 178.031C290.865 177.406 293.875 174.817 295.013 169.834C295.485 167.767 295.603 165.613 295.802 163.492C295.915 162.29 295.698 162.131 294.465 162.127C290.298 162.131 286.127 162.131 281.961 162.131ZM156.476 165.971C156.476 165.976 156.476 165.976 156.476 165.981C153.96 165.981 151.444 165.985 148.932 165.981C147.663 165.981 147.518 165.777 147.717 164.498C147.862 163.582 147.962 162.657 148.066 161.732C148.157 160.916 147.821 160.508 146.955 160.526C145.577 160.554 144.199 160.558 142.821 160.526C142.059 160.508 141.828 160.866 141.737 161.574C141.574 162.834 141.415 164.113 141.053 165.323C140.019 168.746 138.242 171.457 134.279 171.96C133.894 172.01 133.418 172.523 133.259 172.926C132.756 174.205 132.37 175.533 131.958 176.848C131.559 178.122 131.69 178.308 133.014 178.312C137.752 178.33 141.524 176.39 144.462 172.709C144.752 172.346 145.26 171.965 145.686 171.938C147.264 171.847 148.855 171.897 150.437 171.897C151.068 171.897 151.308 172.219 151.172 172.831C151.022 173.502 150.882 174.177 150.737 174.853C149.88 178.806 147.667 181.359 143.46 181.74C141.134 181.953 138.795 182.084 136.455 182.143C135.499 182.166 135.082 182.474 135.005 183.422C134.905 184.587 134.714 185.743 134.538 186.904C134.42 187.683 134.687 188.091 135.517 188.078C138.822 188.023 142.136 188.114 145.432 187.906C150.324 187.597 153.983 185.294 155.66 180.529C156.526 178.072 157.102 175.506 157.7 172.962C157.9 172.119 158.231 171.788 159.07 171.815C160.38 171.852 161.69 171.806 162.996 171.838C163.699 171.856 164.088 171.571 164.256 170.895C164.555 169.694 164.904 168.501 165.195 167.3C165.476 166.126 165.344 165.971 164.129 165.967C161.577 165.967 159.024 165.971 156.476 165.971ZM182.649 171.407C182.649 171.403 182.649 171.403 182.649 171.398C177.758 171.398 172.866 171.412 167.974 171.385C167.144 171.38 166.695 171.684 166.482 172.473C166.061 174.037 165.603 175.587 165.149 177.143C164.918 177.927 165.145 178.33 166.011 178.326C175.935 178.317 185.855 178.308 195.779 178.321C196.582 178.321 196.949 177.986 197.139 177.233C197.511 175.764 197.942 174.309 198.372 172.858C198.753 171.584 198.635 171.403 197.321 171.403C192.433 171.407 187.541 171.407 182.649 171.407ZM262.742 164.561C264.705 164.571 264.701 164.571 265.213 162.648C265.567 161.324 265.939 160.001 266.306 158.681C266.492 158.006 266.319 157.607 265.54 157.616C264.887 157.625 264.234 157.625 263.586 157.616C262.905 157.602 262.516 157.901 262.343 158.581C261.999 159.946 261.573 161.288 261.223 162.648C260.738 164.548 260.756 164.552 262.742 164.561ZM166.201 157.625C164.342 157.62 164.342 157.62 163.848 159.402C163.635 160.164 163.408 160.921 163.204 161.687C162.329 164.933 162.03 164.507 165.39 164.571C166.133 164.584 166.528 164.262 166.709 163.55C167.035 162.249 167.393 160.957 167.752 159.665C168.318 157.634 168.323 157.634 166.201 157.625ZM158.716 164.557C159.092 164.557 159.514 164.661 159.84 164.53C160.262 164.362 160.824 164.076 160.947 163.714C161.504 162.054 161.926 160.35 162.397 158.663C162.592 157.96 162.352 157.602 161.604 157.611C160.987 157.62 160.366 157.652 159.75 157.616C159.015 157.58 158.598 157.874 158.412 158.595C158.059 159.96 157.655 161.306 157.27 162.662C156.748 164.512 156.78 164.552 158.716 164.557ZM257.152 164.548C257.941 164.503 258.952 164.892 259.301 163.628C259.755 161.973 260.24 160.322 260.698 158.668C260.883 158.001 260.693 157.593 259.909 157.616C259.224 157.638 258.512 157.525 257.855 157.666C257.447 157.752 256.921 158.133 256.789 158.504C256.309 159.824 255.955 161.193 255.593 162.553C255.058 164.53 255.076 164.534 257.152 164.548Z" fill="black"/>
<path d="M211.91 188.472C207.775 188.472 203.645 188.504 199.51 188.45C198.672 188.441 197.801 188.2 197.003 187.906C195.643 187.398 195.076 186.278 195.571 184.918C195.997 183.73 196.568 182.574 197.234 181.495C201.288 174.93 205.395 168.397 209.453 161.837C209.865 161.17 210.314 160.912 211.053 161.07C212.771 161.429 214.494 161.778 216.217 162.127C217.097 162.304 216.924 162.78 216.571 163.328C213.143 168.578 209.72 173.828 206.302 179.083C205.962 179.6 205.617 180.126 205.35 180.679C204.942 181.527 205.214 181.985 206.148 182.098C206.388 182.125 206.628 182.13 206.869 182.13C211.212 182.13 215.551 182.134 219.894 182.125C221.485 182.121 221.798 181.708 221.485 180.176C221.095 178.253 220.71 176.326 220.343 174.4C220.134 173.307 220.293 173.135 221.404 173.076C222.95 172.99 224.5 172.926 226.046 172.795C226.831 172.727 227.261 172.953 227.438 173.774C228.055 176.635 228.721 179.486 229.365 182.343C229.456 182.746 229.524 183.154 229.564 183.567C229.85 186.428 228.544 188.178 225.652 188.4C222.909 188.608 220.148 188.554 217.391 188.59C215.564 188.613 213.737 188.595 211.915 188.595C211.91 188.545 211.91 188.509 211.91 188.472Z" fill="white"/>
<path d="M256.59 175.361C258.208 175.361 259.827 175.352 261.45 175.365C262.497 175.374 262.674 175.588 262.42 176.621C262.117 177.859 261.722 179.074 261.427 180.312C261.251 181.064 260.815 181.291 260.094 181.286C257.061 181.264 254.028 181.305 251 181.246C250.025 181.227 249.635 181.581 249.535 182.515C249.35 184.297 249.041 186.065 248.883 187.847C248.796 188.835 248.348 189.143 247.418 189.107C246.212 189.057 245.006 189.089 243.8 189.093C242.427 189.098 242.345 189.007 242.526 187.593C242.735 185.952 242.948 184.315 243.156 182.674C243.315 181.431 243.179 181.268 241.951 181.268C239.158 181.268 236.37 181.282 233.577 181.286C232.285 181.286 232.126 181.051 232.493 179.808C232.815 178.72 233.141 177.628 233.382 176.517C233.568 175.646 234.021 175.334 234.896 175.343C237.48 175.379 240.064 175.32 242.649 175.379C243.696 175.402 244.304 175.175 244.276 173.996C244.263 173.488 244.408 172.972 244.485 172.464C244.689 171.09 244.616 170.999 243.184 170.999C240.908 170.995 238.636 171.004 236.36 170.995C235.046 170.99 234.896 170.773 235.263 169.526C235.594 168.402 235.948 167.282 236.202 166.144C236.379 165.341 236.814 165.092 237.585 165.101C239.788 165.137 241.996 165.11 244.199 165.151C245.088 165.164 245.541 164.861 245.587 163.922C245.632 163.029 245.822 162.15 245.913 161.256C245.981 160.563 246.289 160.177 247.024 160.182C248.47 160.191 249.916 160.196 251.367 160.186C252.088 160.182 252.364 160.536 252.287 161.22C252.197 162.041 252.12 162.866 252.006 163.686C251.82 165.06 251.893 165.146 253.317 165.128C255.28 165.106 257.243 165.078 259.206 165.096C260.335 165.106 260.471 165.305 260.19 166.42C259.886 167.622 259.523 168.81 259.229 170.011C259.047 170.732 258.644 171.022 257.9 171.008C256.005 170.977 254.11 171.027 252.215 170.986C251.349 170.968 250.945 171.308 250.882 172.165C250.837 172.817 250.701 173.461 250.61 174.11C250.456 175.225 250.569 175.361 251.73 175.365C253.348 175.374 254.967 175.365 256.59 175.365V175.361Z" fill="white"/>
<path d="M281.961 162.131C286.127 162.131 290.298 162.131 294.465 162.131C295.698 162.131 295.915 162.295 295.802 163.496C295.603 165.618 295.489 167.771 295.013 169.839C293.875 174.821 290.865 177.405 285.764 178.036C284.536 178.185 283.294 178.258 282.056 178.29C281.303 178.308 280.873 178.557 280.591 179.296C277.717 186.863 271.361 189.474 263.812 188.363C263.177 188.268 262.973 187.924 263.118 187.362C263.499 185.897 263.848 184.415 264.347 182.991C264.465 182.651 265.086 182.347 265.517 182.275C266.836 182.048 268.21 182.089 269.497 181.758C272.703 180.933 274.335 178.63 274.861 175.488C275.101 174.064 275.201 172.618 275.278 171.176C275.323 170.346 275.636 170.002 276.475 170.02C277.989 170.056 279.508 170.043 281.022 170.025C281.816 170.016 282.133 170.346 282.092 171.153C282.033 172.35 282.156 172.45 283.375 172.396C283.924 172.373 284.472 172.31 285.016 172.219C287.351 171.82 287.51 170.745 287.387 168.746C287.333 167.889 286.63 168.003 286.055 167.998C281.544 167.993 277.028 167.998 272.517 167.998C271.034 167.998 269.556 167.998 268.074 168.003C266.981 168.003 266.804 167.776 267.09 166.697C267.398 165.532 267.784 164.385 268.019 163.206C268.192 162.344 268.641 162.109 269.457 162.113C273.623 162.14 277.794 162.127 281.961 162.127V162.131Z" fill="white"/>
<path d="M156.476 165.971C159.024 165.971 161.577 165.967 164.125 165.971C165.34 165.976 165.471 166.13 165.19 167.304C164.9 168.51 164.551 169.698 164.252 170.9C164.084 171.575 163.694 171.861 162.991 171.843C161.681 171.811 160.371 171.856 159.065 171.82C158.226 171.797 157.895 172.124 157.696 172.967C157.097 175.51 156.522 178.072 155.656 180.534C153.978 185.299 150.324 187.597 145.428 187.91C142.132 188.119 138.817 188.028 135.512 188.082C134.678 188.096 134.415 187.688 134.533 186.908C134.71 185.752 134.9 184.591 135 183.426C135.082 182.474 135.499 182.17 136.451 182.148C138.786 182.089 141.125 181.957 143.455 181.744C147.663 181.363 149.871 178.806 150.732 174.857C150.877 174.182 151.018 173.511 151.167 172.835C151.303 172.223 151.068 171.902 150.433 171.902C148.846 171.897 147.259 171.847 145.681 171.942C145.255 171.97 144.748 172.35 144.457 172.713C141.52 176.39 137.747 178.335 133.01 178.317C131.686 178.312 131.554 178.126 131.953 176.852C132.366 175.538 132.751 174.209 133.255 172.931C133.413 172.527 133.889 172.015 134.275 171.965C138.237 171.462 140.014 168.751 141.048 165.328C141.415 164.117 141.569 162.839 141.733 161.578C141.823 160.871 142.055 160.513 142.816 160.531C144.194 160.563 145.573 160.558 146.951 160.531C147.817 160.513 148.152 160.921 148.062 161.737C147.957 162.662 147.858 163.587 147.713 164.502C147.513 165.781 147.658 165.985 148.928 165.985C151.444 165.99 153.96 165.985 156.472 165.985C156.476 165.98 156.476 165.976 156.476 165.971Z" fill="white"/>
<path d="M182.649 171.407C187.541 171.407 192.433 171.407 197.325 171.407C198.64 171.407 198.753 171.589 198.377 172.863C197.946 174.313 197.516 175.769 197.144 177.238C196.953 177.99 196.586 178.326 195.784 178.326C185.859 178.312 175.94 178.321 166.015 178.33C165.149 178.33 164.923 177.931 165.154 177.147C165.607 175.592 166.065 174.041 166.487 172.477C166.7 171.688 167.144 171.385 167.978 171.389C172.87 171.416 177.762 171.403 182.654 171.403C182.649 171.403 182.649 171.403 182.649 171.407Z" fill="white"/>
<path d="M262.742 164.561C260.756 164.552 260.738 164.548 261.223 162.648C261.572 161.288 261.999 159.942 262.343 158.581C262.515 157.901 262.905 157.602 263.585 157.616C264.238 157.629 264.891 157.629 265.539 157.616C266.315 157.602 266.492 158.006 266.306 158.681C265.938 160.005 265.567 161.324 265.213 162.648C264.701 164.571 264.705 164.575 262.742 164.561Z" fill="white"/>
<path d="M166.201 157.625C168.323 157.634 168.318 157.629 167.752 159.66C167.389 160.953 167.035 162.245 166.709 163.546C166.532 164.258 166.138 164.58 165.39 164.566C162.03 164.502 162.329 164.929 163.204 161.682C163.408 160.921 163.639 160.159 163.848 159.398C164.342 157.62 164.342 157.62 166.201 157.625Z" fill="white"/>
<path d="M158.716 164.557C156.775 164.552 156.748 164.512 157.27 162.666C157.655 161.311 158.054 159.96 158.412 158.6C158.603 157.874 159.015 157.58 159.75 157.62C160.366 157.652 160.987 157.62 161.604 157.616C162.347 157.607 162.592 157.965 162.397 158.668C161.926 160.354 161.504 162.059 160.946 163.718C160.824 164.081 160.262 164.362 159.84 164.534C159.518 164.661 159.097 164.557 158.716 164.557Z" fill="white"/>
<path d="M257.152 164.548C255.076 164.534 255.062 164.53 255.593 162.553C255.955 161.193 256.309 159.824 256.789 158.504C256.925 158.133 257.447 157.756 257.855 157.666C258.512 157.525 259.22 157.639 259.909 157.616C260.693 157.593 260.879 158.001 260.698 158.668C260.24 160.323 259.754 161.973 259.301 163.628C258.952 164.892 257.936 164.503 257.152 164.548Z" fill="white"/>
<path d="M328.685 178.67C329.402 169.113 333.35 161.451 342.128 156.954C349.744 153.055 356.84 156.841 358.236 165.287C359.805 174.762 353.163 186.754 344.408 190.231C335.926 193.605 328.749 188.735 328.681 179.573C328.685 179.273 328.685 178.97 328.685 178.67Z" fill="#228DCC"/>
<path d="M95.6836 168.787C94.9582 178.258 91.0683 185.92 82.3363 190.299C74.5021 194.226 67.5564 190.444 66.0603 181.862C64.5097 172.972 71.138 160.821 79.4892 157.239C88.0624 153.563 95.0534 157.965 95.6791 167.436C95.7063 167.885 95.6836 168.338 95.6836 168.787Z" fill="#228DCC"/>
<path d="M59.1826 164.947C58.4482 174.341 55.1204 182.583 48.1158 189.139C47.8438 189.397 47.5582 189.642 47.2544 189.864C42.4713 193.405 38.4771 191.913 37.389 186.088C36.514 181.427 37.652 176.975 39.1844 172.613C41.0296 167.363 43.6864 162.603 47.812 158.763C48.143 158.455 48.4876 158.164 48.8412 157.883C50.8678 156.278 53.1392 155.018 55.7053 156.083C58.2895 157.158 58.9741 159.656 59.1645 162.24C59.237 163.138 59.1826 164.045 59.1826 164.947Z" fill="#EBC923"/>
<path d="M387.207 165.296C386.359 174.11 383.181 181.898 376.843 188.237C374.671 190.408 372.146 192.426 368.85 191.252C365.531 190.068 365.195 186.827 365.105 183.893C364.914 177.65 366.855 171.897 369.797 166.457C371.86 162.644 374.412 159.221 378.121 156.831C382.129 154.247 385.797 155.73 386.821 160.354C387.184 161.968 387.402 163.614 387.207 165.296Z" fill="#EBC923"/>
<path d="M395.766 184.601C397.027 174.994 400.495 166.375 407.282 159.266C407.64 158.89 408.093 158.595 408.538 158.31C410.814 156.832 412.432 157.493 412.976 160.114C413.434 162.308 413.04 164.484 412.537 166.584C410.927 173.298 408.18 179.514 403.932 185.013C402.961 186.269 401.887 187.425 400.59 188.341C398.006 190.163 396.12 189.307 395.78 186.169C395.721 185.657 395.766 185.126 395.766 184.601Z" fill="#D73819"/>
<path d="M28.7115 163.206C27.4738 172.187 23.942 180.62 17.4452 187.733C17.0961 188.119 16.6699 188.454 16.2301 188.735C15.2282 189.388 14.2217 190.204 12.9115 189.61C11.5151 188.976 11.4017 187.629 11.3518 186.351C11.1206 180.371 13.3331 175.025 15.8312 169.784C17.3545 166.597 19.1771 163.56 21.6253 160.966C22.3915 160.155 23.2347 159.37 24.1642 158.754C26.4265 157.258 28.0722 158.015 28.5029 160.676C28.6117 161.347 28.6163 162.023 28.7115 163.206Z" fill="#D73819"/>
<path d="M106.138 133.265C106.211 132.948 106.297 132.635 106.347 132.318C108.138 120.244 109.915 108.166 111.71 96.0932C112.572 90.2946 113.365 84.4869 114.39 78.72C115.079 74.8391 118.098 71.4705 122.673 71.4388C123.67 71.4343 124.672 71.3799 125.665 71.4343C129.133 71.6292 132.162 73.8825 133.019 77.2556C134.016 81.1954 134.755 85.1986 135.571 89.1838C136.315 92.8289 137.013 96.4876 137.729 100.142C138.224 102.644 138.718 105.147 139.216 107.645C139.294 108.03 139.416 108.402 139.593 109.055C139.883 108.588 140.046 108.389 140.15 108.157C142.245 103.474 144.34 98.7862 146.425 94.0938C148.76 88.8392 151.031 83.562 153.434 78.3391C154.495 76.0315 156.331 74.3222 158.476 72.9893C161.958 70.8313 165.503 70.6545 169.139 72.672C171.741 74.1182 172.952 76.4032 173.491 79.2232C173.904 81.3903 173.437 83.4894 173.16 85.5886C172.122 93.5543 171.021 101.506 169.883 109.459C168.663 117.991 167.385 126.514 166.133 135.042C166.02 135.827 165.938 136.616 165.829 137.4C165.716 138.198 165.254 138.651 164.442 138.656C160.203 138.665 155.96 138.683 151.72 138.651C150.719 138.642 150.456 138.175 150.637 136.992C151.099 133.959 151.571 130.926 152.051 127.897C152.836 122.996 153.629 118.091 154.423 113.19C154.563 112.333 154.717 111.476 154.867 110.615C154.763 110.578 154.658 110.547 154.55 110.51C154.377 110.819 154.187 111.118 154.042 111.435C151.979 115.915 149.925 120.394 147.862 124.873C146.679 127.439 145.541 130.028 144.285 132.558C143.102 134.947 141.52 137.037 138.949 138.094C135.077 139.689 130.621 137.735 129.229 133.768C128.73 132.349 128.467 130.835 128.218 129.344C127.252 123.599 126.336 117.841 125.407 112.093C125.275 111.277 125.153 110.456 125.021 109.635C124.908 109.635 124.79 109.635 124.677 109.635C124.604 109.907 124.505 110.175 124.464 110.447C123.172 119.283 121.893 128.119 120.601 136.956C120.374 138.497 120.179 138.669 118.602 138.669C110.396 138.678 102.19 138.678 93.9835 138.674C92.4647 138.674 92.2698 138.47 92.1428 136.969C91.8844 133.945 91.5988 130.926 91.3812 127.902C91.3086 126.923 90.9459 126.478 89.9258 126.483C85.8908 126.51 81.8558 126.501 77.8253 126.478C76.9412 126.474 76.4335 126.855 76.1116 127.666C74.8195 130.899 73.4729 134.113 72.1944 137.35C71.8408 138.248 71.2877 138.674 70.3401 138.674C66.2009 138.665 62.0661 138.688 57.9268 138.665C56.6483 138.66 56.3944 138.153 56.9566 136.797C58.7247 132.526 60.5156 128.269 62.2792 123.998C65.2533 116.799 68.2048 109.586 71.1925 102.391C73.0422 97.9339 74.9373 93.4999 76.8052 89.0523C78.2651 85.5659 79.6343 82.0386 81.1803 78.593C82.7489 75.0839 85.1382 72.3999 89.0735 71.4343C92.6279 70.5638 98.2951 72.613 99.9272 76.7614C100.63 78.5522 101.174 80.3249 101.342 82.22C102.226 92.0718 103.11 101.924 103.994 111.775C104.515 117.579 105.037 123.382 105.549 129.185C105.667 130.536 105.753 131.891 105.853 133.247C105.953 133.261 106.043 133.261 106.138 133.265ZM88.7516 97.0498C88.6564 97.0453 88.5566 97.0407 88.4614 97.0317C88.3572 97.1994 88.2302 97.3626 88.1577 97.544C86.3759 102.028 84.6078 106.516 82.8124 110.991C82.4769 111.825 82.758 112.174 83.5877 112.179C85.2742 112.192 86.9653 112.202 88.6564 112.188C89.8805 112.174 90.0437 112.002 89.9394 110.787C89.6447 107.355 89.3274 103.923 89.0236 100.486C88.9193 99.3439 88.8423 98.1968 88.7516 97.0498Z" fill="white"/>
<path d="M48.9273 100.205C52.1326 100.205 55.3425 100.16 58.5433 100.219C61.9073 100.282 64.2649 102.032 64.8769 105.088C65.1308 106.367 65.1127 107.799 64.8135 109.069C63.4669 114.745 61.3089 120.14 58.0219 124.964C52.119 133.619 44.117 139.236 33.4537 139.821C25.3202 140.265 17.7897 137.994 11.6555 132.29C7.3349 128.269 4.86402 123.151 3.45404 117.483C1.89897 111.231 2.30247 104.966 3.33616 98.6956C4.35171 92.5433 6.55964 86.858 10.2138 81.8029C13.1834 77.6954 17.0189 74.5535 21.4983 72.1416C25.5559 69.9563 29.863 68.637 34.4012 67.9796C38.7128 67.354 42.9246 67.8436 47.0458 69.1584C52.7628 70.9855 57.3872 74.4266 61.123 79.0419C62.3698 80.5788 63.2448 82.415 64.2785 84.1197C64.682 84.7861 64.4734 85.2758 63.8115 85.6566C61.2726 87.1165 58.7473 88.5945 56.2175 90.0679C55.5919 90.4306 54.9843 90.825 54.3542 91.1787C53.5789 91.6139 52.9895 91.4598 52.5724 90.6301C50.4733 86.4681 47.3949 83.3535 42.9246 81.7848C40.5444 80.9506 38.1008 80.7692 35.5981 81.2317C31.3954 82.007 27.6369 83.6618 24.5313 86.6495C21.7023 89.3697 19.6712 92.6113 18.3609 96.3109C16.8059 100.713 16.0533 105.229 16.2437 109.912C16.3797 113.303 17.2139 116.509 19.0863 119.301C21.5799 123.014 25.225 125.123 29.6726 125.612C33.9252 126.079 37.9149 125.191 41.4557 122.688C44.1306 120.797 46.0665 118.263 47.5581 115.38C48.0477 114.432 47.8029 114.106 46.6468 114.101C42.6481 114.083 38.6493 114.088 34.6506 114.083C34.2698 114.083 33.8889 114.097 33.5126 114.065C32.5696 113.983 32.2749 113.562 32.6195 112.678C33.5126 110.402 34.442 108.139 35.3715 105.877C35.92 104.54 36.582 103.238 37.0489 101.874C37.4932 100.577 38.3093 100.155 39.6286 100.183C42.7297 100.246 45.8353 100.201 48.9364 100.201C48.9273 100.201 48.9273 100.205 48.9273 100.205Z" fill="white"/>
<path d="M190.361 138.692C186.639 138.692 182.908 138.574 179.19 138.724C174.638 138.905 170.318 135.187 170.014 130.187C169.955 129.23 169.982 128.251 170.123 127.303C171.805 115.842 173.5 104.381 175.228 92.9241C176.03 87.6106 176.883 82.3016 177.78 77.0017C178.188 74.5943 180.972 71.729 183.37 71.5249C184.295 71.4479 185.22 71.2574 186.145 71.2529C194.455 71.2348 202.761 71.2438 211.071 71.2438C212.889 71.2438 213.166 71.4116 212.976 73.1797C212.622 76.503 212.119 79.8081 211.652 83.1177C211.529 83.9972 210.949 84.2466 210.092 84.242C204.203 84.2012 198.309 84.2284 192.42 84.1786C190.257 84.1604 190.407 84.1423 190.076 86.3593C189.609 89.4966 189.196 92.6385 188.775 95.7849C188.598 97.0861 188.793 97.3173 190.126 97.3173C194.85 97.3309 199.574 97.3218 204.298 97.3264C204.679 97.3264 205.06 97.3173 205.436 97.34C206.501 97.408 206.796 97.7344 206.642 98.7862C206.238 101.584 205.803 104.376 205.391 107.174C205.246 108.162 205.159 109.159 204.978 110.143C204.77 111.304 204.371 111.494 203.187 111.494C197.983 111.485 192.778 111.526 187.578 111.531C186.888 111.531 186.603 111.821 186.512 112.492C186.032 116.046 185.528 119.596 185.016 123.146C184.907 123.894 185.043 124.32 185.945 124.32C191.322 124.325 196.699 124.375 202.076 124.397C203.006 124.402 203.94 124.307 204.865 124.365C205.953 124.434 206.229 124.787 206.071 125.83C205.486 129.715 204.865 133.596 204.275 137.482C204.121 138.511 203.455 138.706 202.566 138.701C198.499 138.688 194.428 138.697 190.361 138.697C190.361 138.692 190.361 138.692 190.361 138.692Z" fill="white"/>
<path d="M330.159 133.868C331.174 131.425 332.199 128.981 333.21 126.533C335.237 121.627 337.25 116.713 339.281 111.812C341.919 105.446 344.553 99.0809 347.215 92.7247C348.679 89.2292 350.243 85.7745 351.649 82.2563C352.438 80.2796 353.186 78.3165 354.242 76.4441C357.715 70.2646 365.785 70.0379 369.811 73.8689C372.05 75.9952 373.012 78.7608 373.302 81.7394C374.027 89.1838 374.698 96.6327 375.333 104.082C376.153 113.661 376.915 123.246 377.704 132.83C377.722 133.029 377.763 133.229 378.012 133.478C378.089 133.152 378.198 132.825 378.243 132.494C379.468 123.962 380.692 115.43 381.902 106.897C383.008 99.1172 384.083 91.3328 385.203 83.5529C385.506 81.4402 385.883 79.332 386.286 77.2375C386.894 74.091 389.827 71.5386 393.123 71.4796C398.224 71.3935 403.329 71.3481 408.429 71.4887C411.63 71.5794 414.513 72.9395 417.215 74.5807C422.488 77.7815 424.782 82.8094 425.408 88.6806C426.201 96.1023 423.753 102.513 418.938 108.103C418.335 108.801 417.392 109.495 417.306 110.27C417.229 110.964 418.131 111.753 418.58 112.514C419.827 114.636 420.321 116.998 420.792 119.369C421.939 125.15 423.091 130.935 424.247 136.715C424.56 138.289 424.283 138.678 422.697 138.688C419.006 138.701 415.32 138.701 411.63 138.678C410.342 138.669 410.016 138.357 409.78 137.2C408.719 131.964 407.613 126.737 406.606 121.487C406.239 119.582 405.741 117.801 404.312 116.4C403.46 115.566 402.476 115.099 401.261 115.099C399.575 115.099 397.884 115.08 396.197 115.031C395.435 115.008 395.163 115.411 395.064 116.078C394.388 120.716 393.703 125.358 393.023 129.996C392.656 132.485 392.289 134.974 391.931 137.468C391.822 138.239 391.4 138.638 390.63 138.669C390.249 138.683 389.872 138.697 389.492 138.697C381.802 138.697 374.118 138.697 366.429 138.697C366.152 138.697 365.875 138.678 365.603 138.688C364.565 138.715 364.121 138.18 364.048 137.178C363.849 134.358 363.618 131.542 363.396 128.722C363.364 128.31 363.3 127.902 363.241 127.494C363.146 126.85 362.765 126.519 362.112 126.519C357.905 126.519 353.702 126.519 349.495 126.519C348.72 126.519 348.348 127.004 348.081 127.666C346.811 130.799 345.524 133.918 344.245 137.046C343.606 138.61 343.52 138.688 341.806 138.688C329.189 138.692 316.571 138.701 303.954 138.669C303.043 138.669 302.086 138.511 301.229 138.212C297.511 136.901 295.095 133.66 295.177 129.706C295.231 127.068 295.684 124.429 296.065 121.808C297.584 111.404 299.121 100.999 300.699 90.6029C301.392 86.0374 302.104 81.472 302.984 76.9428C303.591 73.8145 306.139 71.7199 309.29 71.4162C310.387 71.3119 311.489 71.2529 312.591 71.2529C320.556 71.2348 328.518 71.2348 336.483 71.2393C338.319 71.2393 338.406 71.3391 338.183 73.1163C337.78 76.3307 337.358 79.5406 336.928 82.7505C336.764 83.9791 336.37 84.2013 335.132 84.1922C330.966 84.1695 326.795 84.2103 322.628 84.2194C320.665 84.2239 318.702 84.2421 316.739 84.1922C315.932 84.1695 315.501 84.4461 315.392 85.2485C314.912 88.9073 314.427 92.5614 313.937 96.2156C313.797 97.2629 314.49 97.3173 315.234 97.3173C320.062 97.3173 324.886 97.3173 329.714 97.3219C330.127 97.3219 330.544 97.3219 330.952 97.3763C331.669 97.4715 331.931 97.8976 331.827 98.6185C331.319 102.028 330.83 105.437 330.331 108.847C330.268 109.291 330.181 109.731 330.123 110.175C329.987 111.181 329.402 111.571 328.413 111.549C325.072 111.481 321.731 111.435 318.389 111.404C316.671 111.385 314.948 111.426 313.23 111.404C312.255 111.39 311.815 111.816 311.688 112.791C311.262 116.105 310.782 119.415 310.306 122.724C310.083 124.27 310.102 124.257 311.652 124.261C314.853 124.275 318.054 124.366 321.259 124.379C324.12 124.393 326.976 124.352 329.837 124.329C330.966 124.32 331.351 124.728 331.183 125.853C330.871 127.965 330.517 130.078 330.181 132.186C330.095 132.726 330.014 133.261 329.928 133.8C330.005 133.827 330.082 133.85 330.159 133.868ZM401.121 100.831C402.014 100.831 402.911 100.84 403.805 100.831C405.255 100.813 406.466 100.237 407.509 99.2487C409.635 97.2448 410.682 94.7648 411.031 91.8814C411.584 87.3023 408.211 84.6728 404.643 84.3191C403.31 84.1877 401.959 84.233 400.622 84.2285C399.829 84.2239 399.33 84.6138 399.212 85.4344C399.085 86.2868 398.917 87.13 398.804 87.9824C398.287 91.836 397.793 95.6897 397.271 99.5388C397.14 100.5 397.326 100.79 398.337 100.826C399.262 100.858 400.191 100.831 401.121 100.831ZM360.721 97.0317C360.612 97.0226 360.498 97.009 360.39 97C360.231 97.3264 360.05 97.6437 359.914 97.9792C359.161 99.8653 358.417 101.751 357.669 103.637C356.717 106.036 355.743 108.425 354.804 110.823C354.419 111.803 354.627 112.075 355.656 112.097C357.202 112.129 358.753 112.183 360.299 112.192C361.822 112.202 362.031 111.948 361.908 110.433C361.568 106.249 361.237 102.064 360.893 97.884C360.866 97.5984 360.775 97.3173 360.721 97.0317Z" fill="white"/>
<path d="M430.077 138.578V133.149H428.041V132.199H433.334V133.149H431.027V138.578H430.077Z" fill="white"/>
<path d="M433.877 138.578V132.199H435.506L437.134 137.356L438.763 132.199H440.256V138.578H439.306V133.149L437.677 138.578H436.727L434.963 133.149V138.578H433.877Z" fill="white"/>
<path d="M279.762 100.178C282.931 100.178 286.105 100.092 289.274 100.196C295.05 100.391 296.849 104.816 295.657 109.123C294.542 113.158 293.191 117.22 291.268 120.915C286.708 129.684 279.948 136.126 270.182 138.91C266.129 140.066 262.031 140.156 257.896 139.463C252.745 138.601 247.971 136.856 243.891 133.492C239.026 129.484 236.12 124.261 234.52 118.245C232.498 110.642 233.182 103.039 234.846 95.5129C235.984 90.358 238.156 85.5704 241.429 81.3767C244.254 77.7588 247.622 74.7665 251.666 72.5042C254.831 70.7361 258.181 69.4938 261.65 68.6279C269.62 66.6376 277.214 67.8163 284.223 72.0599C287.442 74.0094 290.294 76.4803 292.379 79.7128C293.345 81.209 294.356 82.6688 295.349 84.1468C295.748 84.7407 295.585 85.1442 294.982 85.4933C291.758 87.3522 288.548 89.2291 285.329 91.0925C284.327 91.6728 283.974 91.5187 283.393 90.4396C281.349 86.6585 278.551 83.7116 274.462 82.0794C270.889 80.6559 267.33 80.8009 263.735 81.8528C257.914 83.5574 253.834 87.3476 250.968 92.5795C248.307 97.4352 247.137 102.69 247.047 108.157C246.988 111.685 247.491 115.216 249.345 118.331C252.129 123.014 256.327 125.454 261.763 125.671C269.493 125.975 274.743 122.117 278.343 115.597C278.968 114.464 278.764 114.106 277.468 114.101C273.297 114.083 269.126 114.092 264.955 114.083C263.255 114.078 263.051 113.752 263.694 112.183C265.159 108.611 266.637 105.047 268.06 101.457C268.423 100.545 268.99 100.192 269.937 100.196C273.211 100.223 276.489 100.205 279.762 100.205C279.762 100.192 279.762 100.183 279.762 100.178Z" fill="white"/>
</svg>
