<?xml version="1.0" encoding="UTF-8"?>
<svg width="479px" height="131px" viewBox="0 0 479 131" version="1.1" xmlns="http://www.w3.org/2000/svg" xmlns:xlink="http://www.w3.org/1999/xlink">
    <title>mainlogo</title>
    <g id="Page-1" stroke="none" stroke-width="1" fill="none" fill-rule="evenodd">
        <g id="mainlogo" transform="translate(1.000000, 0.000000)" fill-rule="nonzero">
            <g id="SEGA_logo">
                <path d="M68.1099223,41.8839522 C70.6480086,44.3487713 74.1090772,45.8726368 77.9263442,45.8726368 L138.239992,45.8795488 L125.214098,7.01936552 C123.434949,2.89105847 119.261023,-5.62499954e-07 114.24798,-5.62499954e-07 C109.256134,-5.62499954e-07 105.019079,2.98552247 103.306285,7.09677992 L98.9641669,19.755416 L98.9471173,0.653874608 L77.8844114,0.643276209 C74.077282,0.643276209 70.6549206,2.12889532 68.1343447,4.58634157 L68.1417175,0.660325808 L46.575818,0.660325808 C42.5590247,0.660325808 38.9058025,2.37311931 36.3506666,5.06511284 L36.3506666,0.643276209 L16.0247798,0.660786608 C7.25022677,0.653413808 0.0525311969,7.51242149 0.0419327975,16.580965 C0.0419327975,20.7793135 1.87683829,24.5869037 4.58265573,27.4079211 L0,27.4005483 L0,45.8726368 L20.4788724,45.8689504 C26.2328816,45.8620384 31.9348205,42.3903714 33.9167212,38.2307301 L33.9761644,38.0597733 C36.2658794,42.6843618 41.0443752,45.8726368 46.5748964,45.8726368 L68.1094615,45.8689504 L68.1094615,41.8839522" id="Path" fill="#FFFFFF"></path>
                <path d="M3.16385261,42.7120098 L20.4332532,42.6944994 C27.4986992,42.6944994 33.2245996,36.9861093 33.2245996,29.9524586 C33.2245996,22.9049838 27.4986992,17.1961329 20.4332532,17.1961329 L15.948287,17.2205553 C15.5948535,17.2205553 15.3082359,16.9307121 15.3082359,16.574053 C15.3082359,16.2173938 15.5948535,15.9270898 15.948287,15.9270898 L33.1863532,15.9307762 L33.1932652,10.5228277 L15.9446006,10.5228277 C12.6097912,10.5228277 9.89660101,13.2318708 9.89660101,16.560229 C9.89660101,19.8918128 12.6093304,22.5902574 15.9446006,22.5902574 L20.4507636,22.6497006 C24.4988913,22.6497006 27.7747183,25.9144684 27.7747183,29.942321 C27.7747183,33.9729383 24.4993521,37.2450789 20.4507636,37.2450789 L3.17076461,37.2450789 L3.16385261,42.7120098" id="Path" fill="#0060A8"></path>
                <path d="M3.17076461,35.975575 L20.4507636,35.975575 C23.7961714,35.975575 26.5019888,33.2771304 26.5019888,29.9418602 C26.5019888,26.6102764 23.7961714,23.9150573 20.4507636,23.9150573 L15.9446006,23.8662125 C11.9033849,23.8662125 8.62433229,20.5977583 8.62433229,16.5597682 C8.62433229,12.5328372 11.9033849,9.26392219 15.9446006,9.26392219 L33.1932652,9.26023579 L33.1863532,3.83155122 L15.948287,3.83155122 C8.89021387,3.83155122 3.15694061,9.53349017 3.15694061,16.574053 C3.15694061,23.6146157 8.89021387,29.3197802 15.948287,29.3197802 L20.4088308,29.3266922 C20.7479796,29.3266922 21.0345971,29.6031722 21.0345971,29.9524586 C21.0345971,30.2952937 20.7479796,30.5713129 20.4088308,30.5713129 L3.16385261,30.5851369 L3.17076461,35.975575" id="Path" fill="#0060A8"></path>
                <path d="M46.6136036,37.2796389 C43.6174822,37.2796389 41.1632615,34.8917735 41.1632615,31.8431208 L41.1632615,14.5916915 C41.1632615,11.6586996 43.6174822,9.24641179 46.6136036,9.24641179 L65.0469849,9.24963739 L65.0469849,3.83155122 L46.6136036,3.83155122 C40.6149096,3.83155122 35.7557739,8.67317662 35.7557739,14.6511347 L35.7557739,31.8435816 C35.7557739,37.8220005 40.6149096,42.6705378 46.6136036,42.6705378 L64.9700313,42.6779106 L64.9663449,37.2731877 L46.6136036,37.2796389" id="Path" fill="#0060A8"></path>
                <path d="M42.4848359,14.6511347 C42.4848359,12.365106 44.3238886,10.5122293 46.6136036,10.5122293 L65.0469849,10.5122293 L65.0469849,15.9376882 L49.1655139,15.9376882 C47.8932451,15.9376882 47.8757347,17.1998193 47.8757347,17.1998193 L61.1251164,17.1998193 L61.1251164,22.6008558 L42.4783847,22.6008558 L42.4848359,14.6511347" id="Path" fill="#0060A8"></path>
                <path d="M46.6136036,35.9654374 C44.3308006,35.9654374 42.4779239,34.1231591 42.4779239,31.8435816 L42.4779239,23.8869485 L61.1246556,23.8869485 L61.1246556,29.2990442 L47.8752739,29.2990442 C47.8927843,30.5713129 49.1650531,30.5777641 49.1650531,30.5777641 L64.9695705,30.5777641 L64.9658841,35.9580646 L46.6136036,35.9654374" id="Path" fill="#0060A8"></path>
                <path d="M77.9645906,37.2658149 C74.9790675,37.2658149 72.5391317,34.8327911 72.5391317,31.8431208 L72.5391317,14.6506739 C72.5391317,11.6582388 74.9615571,9.24595099 77.9503058,9.24595099 L95.8040007,9.24595099 L95.8040007,3.83155122 L77.9088338,3.83155122 C71.9129045,3.83155122 67.0537688,8.67317662 67.0537688,14.6511347 L67.0537688,31.8435816 C67.0537688,37.8220005 71.9548373,42.6705378 77.9503058,42.6705378 L95.8040007,42.6779106 L95.8040007,17.1998193 L80.460744,17.1998193 L80.460744,22.6008558 L90.3817674,22.6008558 L90.3817674,37.2658149 L77.9645906,37.2658149" id="Path" fill="#0060A8"></path>
                <path d="M73.8114004,31.8431208 C73.8114004,34.1337575 75.6642771,35.9967718 77.9503058,35.9967718 L89.1021259,35.9967718 L89.1021259,23.8800365 L80.4741072,23.8800365 L80.4741072,29.2990442 L83.6762062,29.2990442 L83.6863438,30.5713129 L80.4985296,30.5713129 C79.8027216,30.5713129 79.2331729,29.9948522 79.2331729,29.2990442 L79.2046033,17.1961329 C79.2046033,17.1961329 79.2009169,15.9376882 80.4842448,15.9063538 L95.8099911,15.9063538 L95.8030791,10.5085429 L77.9493842,10.5122293 C75.6633555,10.5122293 73.8104788,12.365106 73.8104788,14.6511347 L73.8104788,31.8431208" id="Path" fill="#0060A8"></path>
                <path d="M112.580345,10.4315893 C112.820883,9.74315416 113.474758,9.24687259 114.24752,9.24687259 C115.020742,9.24687259 115.681068,9.74315416 115.915155,10.4315893 L124.581881,36.0350182 L111.891449,36.0350182 L111.905273,30.0119018 L116.146015,30.0119018 L114.236921,24.3380717 L108.017965,42.6733026 L101.620679,42.6733026 L112.580345,10.4315893" id="Path" fill="#0060A8"></path>
                <path d="M126.329234,37.2658149 L111.912646,37.2658149 L111.912646,42.6733026 L133.852254,42.6733026 L122.441926,8.91417501 C121.44199,5.6212984 118.145887,3.19887286 114.243833,3.19887286 C110.335789,3.19887286 107.049824,5.6107 106.042515,8.90081181 L94.5275848,42.6737634 L100.271456,42.6737634 L111.451385,9.84453015 C111.905273,8.75750302 112.975712,7.99165346 114.234156,7.99165346 C115.485689,7.99165346 116.562118,8.75750302 117.020153,9.83761815 L126.329234,37.2658149" id="Path" fill="#0060A8"></path>
                <path d="M129.717035,8.12805025 C130.738168,8.12805025 131.699397,7.72945828 132.419627,7.01291432 C133.139397,6.28945836 133.541675,5.33514162 133.541675,4.31446959 C133.541675,3.30070965 133.139397,2.34961851 132.419627,1.62616255 C131.699397,0.913304993 130.738168,0.514713016 129.717035,0.514713016 C127.616248,0.514713016 125.899768,2.21736891 125.899768,4.31493039 C125.899768,5.33560242 126.29836,6.28991916 127.025042,7.01337512 C127.742047,7.72945828 128.699589,8.12805025 129.717035,8.12805025 M126.438444,4.31400879 C126.438444,3.44355764 126.773906,2.61872569 127.399212,1.99987133 C128.021752,1.38101696 128.846584,1.04555458 129.717035,1.04555458 C130.598085,1.04555458 131.422917,1.38147776 132.045458,1.99987133 C132.664312,2.61872569 133.007147,3.44355764 133.007147,4.31400879 C133.007147,6.12126637 131.531666,7.58937509 129.717035,7.58937509 C128.846124,7.58937509 128.021292,7.25022631 127.399212,6.63137194 C126.773445,6.01297838 126.438444,5.19137203 126.438444,4.31400879 Z" id="Shape" fill="#FFFFFF"></path>
                <path d="M128.738296,4.63564726 L128.738296,6.43230636 L128.185797,6.43230636 L128.185797,2.20953532 L129.755282,2.20953532 C130.346488,2.21644731 130.692549,2.21644731 131.021099,2.4643577 C131.339051,2.69890489 131.472223,3.05187767 131.472223,3.44355764 C131.472223,4.42966958 130.668587,4.55869358 130.464914,4.60062637 L131.653778,6.43230636 L130.986079,6.43230636 L129.82901,4.63564726 L128.738296,4.63564726 M128.738296,4.1707 L129.860344,4.1707 C130.039135,4.1707 130.206866,4.1707 130.374597,4.1287672 C130.766277,4.03430321 130.905899,3.75459762 130.905899,3.44724404 C130.905899,3.33526965 130.895301,3.05233847 130.653842,2.85649848 C130.433119,2.67125689 130.153874,2.67816889 129.82901,2.67816889 L128.738296,2.67816889 L128.738296,4.1707 L128.738296,4.1707 Z" id="Shape" fill="#FFFFFF"></path>
            </g>
            <g id="Group-29" transform="translate(0.000000, 70.000000)" fill="#FFFFFF">
                <g id="Gamegear_eu_logo">
                    <g id="Document" transform="translate(230.500000, 29.739999) scale(-1, 1) rotate(-180.000000) translate(-230.500000, -29.739999) translate(0.000000, 0.239999)">
                        <g id="Spread">
                            <g id="Layer-1">
                                <polygon id="Path" points="7.53023983 44.938239 0.159999996 0.332159993 45.779199 0.332159993 51.3753589 35.8137592 38.1964791 35.8137592 20.9209595 22.6355195 32.0716793 22.6355195 30.6361593 13.5103997 18.4703996 13.5103997 23.4124795 44.938239 52.8121588 44.938239 41.7241591 58.1158387 22.4627195 58.1158387"></polygon>
                                <polygon id="Path" points="12.2617597 43.924479 5.86239987 4.3871999 41.3439991 4.3871999 45.672959 31.7587193 38.5766391 31.7587193 31.6921593 26.6899194 37.7747192 26.6899194 35.0502392 9.45599979 13.7606397 9.45599979 20.0127996 48.9932789 44.342399 48.9932789 40.0761591 54.0614388 22.8422395 54.0614388"></polygon>
                                <polygon id="Path" points="259.955834 44.938239 252.584954 0.332159993 298.204153 0.332159993 303.801593 35.8137592 290.622074 35.8137592 273.346554 22.6355195 284.497274 22.6355195 283.061754 13.5103997 270.896634 13.5103997 275.838074 44.938239 305.238393 44.938239 294.150393 58.1158387 274.888314 58.1158387"></polygon>
                                <polygon id="Path" points="264.686714 43.924479 258.286714 4.3871999 293.769593 4.3871999 298.097913 31.7587193 291.002873 31.7587193 284.118394 26.6899194 290.200954 26.6899194 287.475834 9.45599979 266.186234 9.45599979 272.438394 48.9932789 296.767993 48.9932789 292.501753 54.0614388 275.268474 54.0614388"></polygon>
                                <path d="M98.4947178,0.332159993 L108.631678,58.1158387 L77.2057583,58.1158387 L60.9222386,44.938239 L88.293758,44.938239 L86.8569581,35.8137592 L72.6649584,35.8137592 L56.4019187,22.6355195 L52.8748788,0.332159993 L98.4947178,0.332159993 M84.7871981,22.6355195 L83.3516781,13.5103997 L72.1996784,13.5103997 L73.6364784,22.6355195 L84.7871981,22.6355195 Z" id="Shape"></path>
                                <polygon id="Path" points="101.916158 54.0614388 78.5996782 54.0614388 72.7276784 48.9932789 94.0166379 48.9932789 91.292158 31.7587193 74.0582383 31.7587193 61.4707186 20.6073595 58.5779187 4.3871999 80.8799982 4.3871999 81.6831982 9.45599979 66.4761585 9.45599979 69.2006385 26.6899194 90.490238 26.6899194 86.9631981 4.3871999 94.0588779 4.3871999"></polygon>
                                <path d="M398.567031,0.332159993 L408.704631,58.1158387 L377.278072,58.1158387 L360.994552,44.938239 L388.366071,44.938239 L386.929271,35.8137592 L372.737272,35.8137592 L356.474232,22.6355195 L352.947832,0.332159993 L398.567031,0.332159993 M384.860151,22.6355195 L383.423351,13.5103997 L372.272632,13.5103997 L373.708792,22.6355195 L384.860151,22.6355195 Z" id="Shape"></path>
                                <polygon id="Path" points="401.988471 54.0614388 378.671352 54.0614388 372.799992 48.9932789 394.089591 48.9932789 391.364471 31.7587193 374.130552 31.7587193 361.543032 20.6073595 358.649592 4.3871999 380.952311 4.3871999 381.755511 9.45599979 366.549112 9.45599979 369.272952 26.6899194 390.562551 26.6899194 387.035511 4.3871999 394.131831 4.3871999"></polygon>
                                <polygon id="Path" points="191.020796 44.938239 183.649276 0.332159993 225.214075 0.332159993 227.304315 13.5103997 201.960315 13.5103997 203.397115 22.6355195 228.741115 22.6355195 230.810875 35.8137592 205.466875 35.8137592 206.903035 44.938239 232.247035 44.938239 234.337275 58.1158387 205.951995 58.1158387"></polygon>
                                <polygon id="Path" points="195.751036 42.910719 189.352316 4.3871999 220.778235 4.3871999 221.580795 9.45599979 197.250556 9.45599979 199.975036 26.6899194 224.305275 26.6899194 225.107835 31.7587193 200.777596 31.7587193 203.502075 48.9932789 227.832315 48.9932789 228.635515 54.0614388 208.360315 54.0614388"></polygon>
                                <polygon id="Path" points="312.671353 44.938239 305.300473 0.332159993 346.865272 0.332159993 348.955512 13.5103997 323.612153 13.5103997 325.048313 22.6355195 350.392312 22.6355195 352.462072 35.8137592 327.118073 35.8137592 328.552953 44.938239 353.897592 44.938239 355.989112 58.1158387 327.603833 58.1158387"></polygon>
                                <polygon id="Path" points="317.402873 42.910719 311.004153 4.3871999 342.430072 4.3871999 343.232632 9.45599979 318.901753 9.45599979 321.626233 26.6899194 345.957112 26.6899194 346.759032 31.7587193 322.428793 31.7587193 325.153273 48.9932789 349.484152 48.9932789 350.286072 54.0614388 330.012153 54.0614388"></polygon>
                                <path d="M438.58879,22.6355195 L435.06175,0.332159993 L451.28255,0.332159993 L454.63999,20.6073595 L447.71327,28.2111994 L457.04831,36.8275192 L460.40639,58.1158387 L428.97983,58.1158387 L413.032951,44.938239 L405.663351,0.332159993 L421.884151,0.332159993 L425.41055,22.6355195 L438.58879,22.6355195 M442.09535,44.938239 L440.65855,35.8137592 L427.48031,35.8137592 L428.91583,44.938239 L442.09535,44.938239 Z" id="Shape"></path>
                                <path d="M417.764471,42.910719 L411.366391,4.3871999 L418.462071,4.3871999 L421.989111,26.6899194 L443.27743,26.6899194 L439.75039,4.3871999 L446.84671,4.3871999 L449.57183,19.5935996 L443.27743,26.6899194 L444.07999,31.7587193 L451.98015,37.8412792 L454.70335,54.0614388 L430.37375,54.0614388 L417.764471,42.910719 M444.07999,31.7587193 L422.791031,31.7587193 L425.51551,48.9932789 L446.80447,48.9932789 L444.07999,31.7587193 Z" id="Shape"></path>
                                <polygon id="Path" points="112.961917 43.924479 105.590398 0.332159993 122.824957 0.332159993 129.857917 44.938239 139.994877 44.938239 132.961917 0.332159993 150.196477 0.332159993 157.229436 44.938239 166.351996 44.938239 159.319036 0.332159993 176.553596 0.332159993 185.676796 58.1158387 128.907517 58.1158387"></polygon>
                                <polygon id="Path" points="117.692157 42.910719 111.293438 4.3871999 118.389117 4.3871999 125.443197 48.9932789 145.718397 48.9932789 138.664957 4.3871999 145.761277 4.3871999 152.814717 48.9932789 172.075516 48.9932789 165.022076 4.3871999 172.117756 4.3871999 179.975036 54.0614388 130.301437 54.0614388"></polygon>
                            </g>
                        </g>
                    </g>
                </g>
                <path d="M467.035907,7.37917415 L467.035907,1.95008977 L465,1.95008977 L465,1 L470.293357,1 L470.293357,1.95008977 L467.985996,1.95008977 L467.985996,7.37917415 L467.035907,7.37917415 Z M470.836266,7.37917415 L470.836266,1 L472.464991,1 L474.093716,6.15763016 L475.722442,1 L477.21544,1 L477.21544,7.37917415 L476.26535,7.37917415 L476.26535,1.95008977 L474.636625,7.37917415 L473.686535,7.37917415 L471.922083,1.95008977 L471.922083,7.37917415 L470.836266,7.37917415 Z" id="Shape"></path>
            </g>
        </g>
    </g>
</svg>