<svg width="120" height="81" viewBox="0 0 120 81" fill="none" xmlns="http://www.w3.org/2000/svg">
<path d="M43.8462 0.5V1.29187L35.5315 1.68781V0.829947L43.8462 0.5Z" fill="white"/>
<path fill-rule="evenodd" clip-rule="evenodd" d="M60 2.5C50.2129 2.5 37.8971 3.22198 31.8909 3.88935C28.8226 4.23027 26.4274 4.59765 24.8225 4.87459C23.8288 5.04605 23.0864 5.84243 22.9805 6.85436C22.8118 8.46511 22.6 10.8312 22.4422 13.7514C22.1324 19.4816 21.9788 23.6989 21.9788 27.4453C21.9788 28.9488 22.0539 31.5512 22.1445 34.1351C22.2705 37.7329 25.1783 40.59 28.7621 40.7063C28.814 40.708 28.8788 40.7096 28.9484 40.7113C29.0578 40.714 29.1791 40.7169 29.2809 40.721C31.4601 40.809 47.3853 41.4336 60 41.4336C72.6148 41.4336 88.54 40.809 90.7192 40.721C90.8209 40.7169 90.9423 40.714 91.0517 40.7113C91.1213 40.7096 91.1861 40.708 91.238 40.7063C94.8218 40.59 97.7296 37.7329 97.8556 34.1351C97.9461 31.5512 98.0213 28.9488 98.0213 27.4453C98.0213 23.6989 97.8677 19.4816 97.5579 13.7514C97.4 10.8312 97.1883 8.46511 97.0196 6.85436C96.9137 5.84243 96.1713 5.04605 95.1776 4.87459C93.5726 4.59765 91.1775 4.23027 88.1092 3.88935C82.1029 3.22198 69.7871 2.5 60 2.5ZM31.67 1.90158C37.7577 1.22516 50.1478 0.5 60 0.5C69.8523 0.5 82.2424 1.22516 88.3301 1.90158C91.4414 2.24728 93.8764 2.6205 95.5177 2.90371C97.4025 3.22895 98.8105 4.75281 99.0087 6.64609C99.1804 8.28574 99.3951 10.6855 99.555 13.6434C99.8655 19.387 100.021 23.6458 100.021 27.4453C100.021 28.9891 99.9448 31.6256 99.8544 34.2051C99.691 38.8691 95.9237 42.5553 91.3029 42.7053C91.2082 42.7083 91.1336 42.71 91.0641 42.7116C90.9778 42.7136 90.8993 42.7154 90.7999 42.7194C88.6212 42.8073 72.6596 43.4336 60 43.4336C47.3405 43.4336 31.3789 42.8073 29.2002 42.7194C29.1008 42.7154 29.0223 42.7136 28.936 42.7116C28.8665 42.71 28.7919 42.7083 28.6972 42.7053C24.0764 42.5553 20.3091 38.8691 20.1457 34.2051C20.0553 31.6257 19.9788 28.9891 19.9788 27.4453C19.9788 23.6458 20.1346 19.387 20.4451 13.6434C20.605 10.6855 20.8196 8.28574 20.9913 6.64609C21.1896 4.75281 22.5975 3.22895 24.4824 2.90371C26.1237 2.6205 28.5587 2.24728 31.67 1.90158Z" fill="white"/>
<path fill-rule="evenodd" clip-rule="evenodd" d="M38.4804 26.9696L30.1211 3.57971L31.0628 3.24316L39.4221 26.6331C40.6298 30.0123 43.8311 32.2678 47.4196 32.2678H72.477C76.0656 32.2678 79.2669 30.0123 80.4746 26.6331L88.8339 3.24316L89.7756 3.57971L81.4163 26.9696C80.0664 30.7468 76.4881 33.2678 72.477 33.2678H47.4196C43.4085 33.2678 39.8303 30.7468 38.4804 26.9696Z" fill="white"/>
<path fill-rule="evenodd" clip-rule="evenodd" d="M43.2681 4.26112C48.2392 3.83852 52.7505 3.53149 59.9527 3.53149C67.1548 3.53149 71.6661 3.83852 76.6372 4.26112C78.458 4.41591 80.2895 4.66025 81.8809 4.90794C84.7637 5.35664 86.3853 8.3398 85.3783 11.0394L79.6931 26.2815C78.4739 29.55 75.3525 31.7172 71.864 31.7172H48.0413C44.5528 31.7172 41.4314 29.55 40.2122 26.2815L34.527 11.0394C33.5201 8.3398 35.1416 5.35664 38.0244 4.90794C39.6158 4.66025 41.4474 4.41591 43.2681 4.26112ZM59.9527 4.53149C52.7867 4.53149 48.305 4.83653 43.3528 5.25753C41.5621 5.40976 39.7548 5.65066 38.1782 5.89604C35.9566 6.24183 34.6655 8.54939 35.464 10.69L41.1492 25.932C42.2224 28.8093 44.9703 30.7172 48.0413 30.7172H71.864C74.935 30.7172 77.6829 28.8093 78.7561 25.932L84.4414 10.69C85.2398 8.54939 83.9487 6.24183 81.7271 5.89604C80.1505 5.65066 78.3432 5.40976 76.5525 5.25753C71.6003 4.83653 67.1186 4.53149 59.9527 4.53149Z" fill="white"/>
<path fill-rule="evenodd" clip-rule="evenodd" d="M46.1672 6.58203V27.7364H73.8337V6.58203H46.1672ZM45.8908 5.58203C45.4912 5.58203 45.1672 5.90599 45.1672 6.3056V28.0128C45.1672 28.4124 45.4912 28.7364 45.8908 28.7364H74.1102C74.5098 28.7364 74.8337 28.4124 74.8337 28.0128V6.3056C74.8337 5.90599 74.5098 5.58203 74.1102 5.58203H45.8908Z" fill="white"/>
<path fill-rule="evenodd" clip-rule="evenodd" d="M49.2351 9.54712V24.7735H70.7669V9.54712H49.2351ZM47.9587 7.54712C47.5591 7.54712 47.2351 7.87107 47.2351 8.27069V26.0499C47.2351 26.4495 47.5591 26.7735 47.9587 26.7735H72.0433C72.443 26.7735 72.7669 26.4495 72.7669 26.0499V8.27069C72.7669 7.87107 72.443 7.54712 72.0433 7.54712H47.9587Z" fill="white"/>
<path d="M86.4107 12.8178C88.3517 12.8178 89.9252 11.4988 89.9252 9.87181C89.9252 8.71129 89.1247 7.7075 87.9612 7.22729L85.9456 12.7922C86.0978 12.8091 86.253 12.8178 86.4107 12.8178Z" fill="white"/>
<path d="M89.5116 21.0872C89.5116 22.2861 88.5397 23.2579 87.3409 23.2579C86.142 23.2579 85.1702 22.2861 85.1702 21.0872C85.1702 19.8884 86.142 18.9165 87.3409 18.9165C88.5397 18.9165 89.5116 19.8884 89.5116 21.0872Z" fill="white"/>
<path d="M95.6102 16.4356C95.6102 17.6345 94.6384 18.6063 93.4395 18.6063C92.2407 18.6063 91.2688 17.6345 91.2688 16.4356C91.2688 15.2368 92.2407 14.2649 93.4395 14.2649C94.6384 14.2649 95.6102 15.2368 95.6102 16.4356Z" fill="white"/>
<path fill-rule="evenodd" clip-rule="evenodd" d="M34.4993 18.6065C34.4993 21.7848 31.9228 24.3614 28.7444 24.3614C25.5661 24.3614 22.9895 21.7848 22.9895 18.6065C22.9895 15.4281 25.5661 12.8516 28.7444 12.8516C31.9228 12.8516 34.4993 15.4281 34.4993 18.6065ZM28.7444 23.3614C31.3705 23.3614 33.4993 21.2325 33.4993 18.6065C33.4993 15.9804 31.3705 13.8516 28.7444 13.8516C26.1183 13.8516 23.9895 15.9804 23.9895 18.6065C23.9895 21.2325 26.1183 23.3614 28.7444 23.3614Z" fill="white"/>
<path d="M27.3901 14.911C27.3901 14.6827 27.5753 14.4976 27.8036 14.4976H29.6837C29.912 14.4976 30.0972 14.6827 30.0972 14.911V22.3018C30.0972 22.5302 29.912 22.7153 29.6837 22.7153H27.8036C27.5753 22.7153 27.3901 22.5302 27.3901 22.3018V14.911Z" fill="white"/>
<path d="M25.0485 19.96C24.8201 19.96 24.635 19.7748 24.635 19.5465L24.635 17.6664C24.635 17.4381 24.8201 17.2529 25.0485 17.2529L32.4393 17.2529C32.6676 17.2529 32.8527 17.4381 32.8527 17.6664L32.8527 19.5465C32.8527 19.7748 32.6676 19.96 32.4393 19.96L25.0485 19.96Z" fill="white"/>
<path d="M30.4031 31.4424C30.4031 31.6666 30.2213 31.8484 29.9971 31.8484C29.7728 31.8484 29.5911 31.6666 29.5911 31.4424C29.5911 31.2182 29.7728 31.0364 29.9971 31.0364C30.2213 31.0364 30.4031 31.2182 30.4031 31.4424Z" fill="white"/>
<path d="M31.657 31.4424C31.657 31.6666 31.4752 31.8484 31.251 31.8484C31.0267 31.8484 30.845 31.6666 30.845 31.4424C30.845 31.2182 31.0267 31.0364 31.251 31.0364C31.4752 31.0364 31.657 31.2182 31.657 31.4424Z" fill="white"/>
<path d="M32.9106 31.4424C32.9106 31.6666 32.7289 31.8484 32.5046 31.8484C32.2804 31.8484 32.0986 31.6666 32.0986 31.4424C32.0986 31.2182 32.2804 31.0364 32.5046 31.0364C32.7289 31.0364 32.9106 31.2182 32.9106 31.4424Z" fill="white"/>
<path d="M34.1626 31.4424C34.1626 31.6666 33.9808 31.8484 33.7566 31.8484C33.5324 31.8484 33.3506 31.6666 33.3506 31.4424C33.3506 31.2182 33.5324 31.0364 33.7566 31.0364C33.9808 31.0364 34.1626 31.2182 34.1626 31.4424Z" fill="white"/>
<path d="M35.4153 31.4424C35.4153 31.6666 35.2335 31.8484 35.0093 31.8484C34.785 31.8484 34.6033 31.6666 34.6033 31.4424C34.6033 31.2182 34.785 31.0364 35.0093 31.0364C35.2335 31.0364 35.4153 31.2182 35.4153 31.4424Z" fill="white"/>
<path d="M36.6684 31.4424C36.6684 31.6666 36.4867 31.8484 36.2624 31.8484C36.0382 31.8484 35.8564 31.6666 35.8564 31.4424C35.8564 31.2182 36.0382 31.0364 36.2624 31.0364C36.4867 31.0364 36.6684 31.2182 36.6684 31.4424Z" fill="white"/>
<path d="M30.4043 32.6311C30.4043 32.8553 30.2225 33.0371 29.9983 33.0371C29.7741 33.0371 29.5923 32.8553 29.5923 32.6311C29.5923 32.4069 29.7741 32.2251 29.9983 32.2251C30.2225 32.2251 30.4043 32.4069 30.4043 32.6311Z" fill="white"/>
<path d="M29.1506 32.6311C29.1506 32.8553 28.9689 33.0371 28.7446 33.0371C28.5204 33.0371 28.3386 32.8553 28.3386 32.6311C28.3386 32.4069 28.5204 32.2251 28.7446 32.2251C28.9689 32.2251 29.1506 32.4069 29.1506 32.6311Z" fill="white"/>
<path d="M37.9216 32.6311C37.9216 32.8553 37.7398 33.0371 37.5156 33.0371C37.2914 33.0371 37.1096 32.8553 37.1096 32.6311C37.1096 32.4069 37.2914 32.2251 37.5156 32.2251C37.7398 32.2251 37.9216 32.4069 37.9216 32.6311Z" fill="white"/>
<path d="M31.6562 32.6311C31.6562 32.8553 31.4745 33.0371 31.2502 33.0371C31.026 33.0371 30.8442 32.8553 30.8442 32.6311C30.8442 32.4069 31.026 32.2251 31.2502 32.2251C31.4745 32.2251 31.6562 32.4069 31.6562 32.6311Z" fill="white"/>
<path d="M32.9094 32.6311C32.9094 32.8553 32.7276 33.0371 32.5034 33.0371C32.2792 33.0371 32.0974 32.8553 32.0974 32.6311C32.0974 32.4069 32.2792 32.2251 32.5034 32.2251C32.7276 32.2251 32.9094 32.4069 32.9094 32.6311Z" fill="white"/>
<path d="M34.1626 32.6311C34.1626 32.8553 33.9808 33.0371 33.7566 33.0371C33.5324 33.0371 33.3506 32.8553 33.3506 32.6311C33.3506 32.4069 33.5324 32.2251 33.7566 32.2251C33.9808 32.2251 34.1626 32.4069 34.1626 32.6311Z" fill="white"/>
<path d="M35.4153 32.6311C35.4153 32.8553 35.2335 33.0371 35.0093 33.0371C34.785 33.0371 34.6033 32.8553 34.6033 32.6311C34.6033 32.4069 34.785 32.2251 35.0093 32.2251C35.2335 32.2251 35.4153 32.4069 35.4153 32.6311Z" fill="white"/>
<path d="M36.6684 32.6311C36.6684 32.8553 36.4867 33.0371 36.2624 33.0371C36.0382 33.0371 35.8564 32.8553 35.8564 32.6311C35.8564 32.4069 36.0382 32.2251 36.2624 32.2251C36.4867 32.2251 36.6684 32.4069 36.6684 32.6311Z" fill="white"/>
<path d="M30.4043 33.8198C30.4043 34.044 30.2225 34.2258 29.9983 34.2258C29.7741 34.2258 29.5923 34.044 29.5923 33.8198C29.5923 33.5956 29.7741 33.4138 29.9983 33.4138C30.2225 33.4138 30.4043 33.5956 30.4043 33.8198Z" fill="white"/>
<path d="M29.1506 33.8198C29.1506 34.044 28.9689 34.2258 28.7446 34.2258C28.5204 34.2258 28.3386 34.044 28.3386 33.8198C28.3386 33.5956 28.5204 33.4138 28.7446 33.4138C28.9689 33.4138 29.1506 33.5956 29.1506 33.8198Z" fill="white"/>
<path d="M37.9216 33.8198C37.9216 34.044 37.7398 34.2258 37.5156 34.2258C37.2914 34.2258 37.1096 34.044 37.1096 33.8198C37.1096 33.5956 37.2914 33.4138 37.5156 33.4138C37.7398 33.4138 37.9216 33.5956 37.9216 33.8198Z" fill="white"/>
<path d="M31.6562 33.8198C31.6562 34.044 31.4745 34.2258 31.2502 34.2258C31.026 34.2258 30.8442 34.044 30.8442 33.8198C30.8442 33.5956 31.026 33.4138 31.2502 33.4138C31.4745 33.4138 31.6562 33.5956 31.6562 33.8198Z" fill="white"/>
<path d="M32.9094 33.8198C32.9094 34.044 32.7276 34.2258 32.5034 34.2258C32.2792 34.2258 32.0974 34.044 32.0974 33.8198C32.0974 33.5956 32.2792 33.4138 32.5034 33.4138C32.7276 33.4138 32.9094 33.5956 32.9094 33.8198Z" fill="white"/>
<path d="M34.1626 33.8198C34.1626 34.044 33.9808 34.2258 33.7566 34.2258C33.5324 34.2258 33.3506 34.044 33.3506 33.8198C33.3506 33.5956 33.5324 33.4138 33.7566 33.4138C33.9808 33.4138 34.1626 33.5956 34.1626 33.8198Z" fill="white"/>
<path d="M35.4153 33.8198C35.4153 34.044 35.2335 34.2258 35.0093 34.2258C34.785 34.2258 34.6033 34.044 34.6033 33.8198C34.6033 33.5956 34.785 33.4138 35.0093 33.4138C35.2335 33.4138 35.4153 33.5956 35.4153 33.8198Z" fill="white"/>
<path d="M36.6684 33.8198C36.6684 34.044 36.4867 34.2258 36.2624 34.2258C36.0382 34.2258 35.8564 34.044 35.8564 33.8198C35.8564 33.5956 36.0382 33.4138 36.2624 33.4138C36.4867 33.4138 36.6684 33.5956 36.6684 33.8198Z" fill="white"/>
<path d="M30.4043 35.0442C30.4043 35.2684 30.2225 35.4502 29.9983 35.4502C29.7741 35.4502 29.5923 35.2684 29.5923 35.0442C29.5923 34.82 29.7741 34.6382 29.9983 34.6382C30.2225 34.6382 30.4043 34.82 30.4043 35.0442Z" fill="white"/>
<path d="M29.1506 35.0442C29.1506 35.2684 28.9689 35.4502 28.7446 35.4502C28.5204 35.4502 28.3386 35.2684 28.3386 35.0442C28.3386 34.82 28.5204 34.6382 28.7446 34.6382C28.9689 34.6382 29.1506 34.82 29.1506 35.0442Z" fill="white"/>
<path d="M37.9216 35.0442C37.9216 35.2684 37.7398 35.4502 37.5156 35.4502C37.2914 35.4502 37.1096 35.2684 37.1096 35.0442C37.1096 34.82 37.2914 34.6382 37.5156 34.6382C37.7398 34.6382 37.9216 34.82 37.9216 35.0442Z" fill="white"/>
<path d="M31.6562 35.0442C31.6562 35.2684 31.4745 35.4502 31.2502 35.4502C31.026 35.4502 30.8442 35.2684 30.8442 35.0442C30.8442 34.82 31.026 34.6382 31.2502 34.6382C31.4745 34.6382 31.6562 34.82 31.6562 35.0442Z" fill="white"/>
<path d="M32.9094 35.0442C32.9094 35.2684 32.7276 35.4502 32.5034 35.4502C32.2792 35.4502 32.0974 35.2684 32.0974 35.0442C32.0974 34.82 32.2792 34.6382 32.5034 34.6382C32.7276 34.6382 32.9094 34.82 32.9094 35.0442Z" fill="white"/>
<path d="M34.1626 35.0442C34.1626 35.2684 33.9808 35.4502 33.7566 35.4502C33.5324 35.4502 33.3506 35.2684 33.3506 35.0442C33.3506 34.82 33.5324 34.6382 33.7566 34.6382C33.9808 34.6382 34.1626 34.82 34.1626 35.0442Z" fill="white"/>
<path d="M35.4153 35.0442C35.4153 35.2684 35.2335 35.4502 35.0093 35.4502C34.785 35.4502 34.6033 35.2684 34.6033 35.0442C34.6033 34.82 34.785 34.6382 35.0093 34.6382C35.2335 34.6382 35.4153 34.82 35.4153 35.0442Z" fill="white"/>
<path d="M36.6684 35.0442C36.6684 35.2684 36.4867 35.4502 36.2624 35.4502C36.0382 35.4502 35.8564 35.2684 35.8564 35.0442C35.8564 34.82 36.0382 34.6382 36.2624 34.6382C36.4867 34.6382 36.6684 34.82 36.6684 35.0442Z" fill="white"/>
<path d="M30.4031 36.2683C30.4031 36.4925 30.2213 36.6743 29.9971 36.6743C29.7728 36.6743 29.5911 36.4925 29.5911 36.2683C29.5911 36.0441 29.7728 35.8623 29.9971 35.8623C30.2213 35.8623 30.4031 36.0441 30.4031 36.2683Z" fill="white"/>
<path d="M31.657 36.2683C31.657 36.4925 31.4752 36.6743 31.251 36.6743C31.0267 36.6743 30.845 36.4925 30.845 36.2683C30.845 36.0441 31.0267 35.8623 31.251 35.8623C31.4752 35.8623 31.657 36.0441 31.657 36.2683Z" fill="white"/>
<path d="M32.9106 36.2683C32.9106 36.4925 32.7289 36.6743 32.5046 36.6743C32.2804 36.6743 32.0986 36.4925 32.0986 36.2683C32.0986 36.0441 32.2804 35.8623 32.5046 35.8623C32.7289 35.8623 32.9106 36.0441 32.9106 36.2683Z" fill="white"/>
<path d="M34.1626 36.2683C34.1626 36.4925 33.9808 36.6743 33.7566 36.6743C33.5324 36.6743 33.3506 36.4925 33.3506 36.2683C33.3506 36.0441 33.5324 35.8623 33.7566 35.8623C33.9808 35.8623 34.1626 36.0441 34.1626 36.2683Z" fill="white"/>
<path d="M35.4153 36.2683C35.4153 36.4925 35.2335 36.6743 35.0093 36.6743C34.785 36.6743 34.6033 36.4925 34.6033 36.2683C34.6033 36.0441 34.785 35.8623 35.0093 35.8623C35.2335 35.8623 35.4153 36.0441 35.4153 36.2683Z" fill="white"/>
<path d="M36.6684 36.2683C36.6684 36.4925 36.4867 36.6743 36.2624 36.6743C36.0382 36.6743 35.8564 36.4925 35.8564 36.2683C35.8564 36.0441 36.0382 35.8623 36.2624 35.8623C36.4867 35.8623 36.6684 36.0441 36.6684 36.2683Z" fill="white"/>
</svg>
