<svg width="438" height="193" viewBox="0 0 438 193" fill="none" xmlns="http://www.w3.org/2000/svg">
<path fill-rule="evenodd" clip-rule="evenodd" d="M114.248 0C119.152 0 123.253 2.76673 125.095 6.7519L125.214 7.01937L138.24 45.8796L77.9263 45.8726C74.2407 45.8726 70.8871 44.4521 68.3758 42.1356L68.1095 41.884V45.8689L46.5749 45.8726C41.1596 45.8726 36.4653 42.8158 34.1225 38.3469L33.9762 38.0598L33.9167 38.2307C31.9737 42.3088 26.4551 45.7256 20.8173 45.8646L20.4789 45.8689L0 45.8726V27.4005L4.58266 27.4079C1.87684 24.5869 0.0419328 20.7793 0.0419328 16.581C0.0524035 7.62168 7.07783 0.819012 15.7083 0.663503L16.0248 0.660787L36.3507 0.643277V5.06511C38.8234 2.45996 42.3245 0.771848 46.1883 0.665649L46.5758 0.660326H68.1417L68.1343 4.58634C70.568 2.21364 73.8423 0.746889 77.492 0.648555L77.8844 0.643277L98.9471 0.653875L98.9642 19.7554L103.306 7.09678C105.019 2.98552 109.256 0 114.248 0ZM33.1933 10.5228H15.9446L15.7182 10.527C12.4879 10.6463 9.8966 13.3075 9.8966 16.5602C9.8966 19.8161 12.4874 22.4673 15.7182 22.5861L20.6927 22.6536C24.6286 22.7806 27.7747 25.995 27.7747 29.9423C27.7747 33.8923 24.6291 37.1139 20.6927 37.2412L20.4508 37.2451H3.17076L3.16385 42.712L20.4333 42.6945L20.7396 42.6909C27.6635 42.5288 33.2246 36.8842 33.2246 29.9525C33.2246 23.0071 27.6635 17.3619 20.7396 17.1997L20.4333 17.1961L15.9483 17.2206L15.8537 17.2135C15.5451 17.1673 15.3082 16.8983 15.3082 16.5741C15.3082 16.2498 15.5451 15.9804 15.8537 15.9341L15.9483 15.9271L33.1864 15.9308L33.1933 10.5228ZM46.6136 3.83155H65.047V9.24964L46.6136 9.24641L46.3898 9.25091C43.5686 9.36451 41.2803 11.6152 41.1676 14.378L41.1633 14.5917V31.8431L41.1678 32.0706C41.2834 34.9362 43.5735 37.1657 46.3954 37.2754L46.6136 37.2796L64.9663 37.2732L64.97 42.6779L46.6136 42.6705L46.3242 42.6668C40.5556 42.5163 35.9103 37.8813 35.7596 32.132L35.7558 31.8436V14.6511L35.7596 14.3628C35.9103 8.61407 40.5556 3.98553 46.3242 3.83531L46.6136 3.83155ZM114.244 3.19887L113.959 3.20316C110.274 3.31413 107.187 5.57069 106.122 8.65557L106.043 8.90081L95.8039 38.9279L95.804 17.1998H80.4607V22.6009H90.3818V37.2658H77.9646L77.7471 37.2615C74.9355 37.1497 72.6586 34.8808 72.5437 32.0664L72.5391 31.8431V14.6507L72.5434 14.4328C72.6547 11.6161 74.9141 9.36409 77.7271 9.25045L77.9503 9.24595H95.804V3.83155H77.9088L77.6196 3.83531C71.8535 3.98553 67.2083 8.61407 67.0575 14.3628L67.0538 14.6511V31.8436L67.0576 32.132C67.2096 37.8813 71.8941 42.5163 77.6611 42.6668L77.9503 42.6705L95.804 42.6779L95.8039 42.6729L100.271 42.6738L111.451 9.84453L111.528 9.67563C112.018 8.67901 113.042 7.99165 114.234 7.99165C115.42 7.99165 116.448 8.67901 116.943 9.66975L117.02 9.83762L126.329 37.2658H111.913V42.6733H133.852L122.442 8.91418L122.365 8.67481C121.309 5.58586 118.215 3.31768 114.536 3.2034L114.244 3.19887ZM112.634 10.2966C112.909 9.67919 113.526 9.24687 114.248 9.24687C115.021 9.24687 115.681 9.74315 115.915 10.4316L124.582 36.035H111.891L111.902 31.2199L112.312 30.0119L116.146 30.0119L114.237 24.3381L112.312 30.0119L111.905 30.0119L111.902 31.2199L108.018 42.6733H101.621L112.58 10.4316L112.634 10.2966ZM95.8031 10.5085L77.9494 10.5122L77.7428 10.5173C75.6212 10.6216 73.9198 12.323 73.8155 14.4445L73.8105 14.6511L73.8114 31.8431L73.8165 32.0501C73.9207 34.1764 75.6221 35.8869 77.7437 35.9917L77.9503 35.9968H89.1021V23.88H80.4741V29.299H83.6762L83.6863 30.5713H80.4985L80.3697 30.5647C79.7761 30.5032 79.3005 30.0222 79.2397 29.428L79.2332 29.299L79.2046 17.1961C79.2068 17.0896 79.2544 16.0432 80.3171 15.918L80.4842 15.9064H95.81L95.8031 10.5085ZM15.9483 3.83155H33.1864L33.1933 9.26024L15.9446 9.26392L15.7031 9.26783C11.7735 9.39498 8.62433 12.6134 8.62433 16.5598C8.62433 20.517 11.7735 23.7352 15.7031 23.8623L20.6778 23.9192C23.9178 24.0379 26.502 26.686 26.502 29.9419C26.502 33.2013 23.9178 35.8526 20.6778 35.9714L20.4508 35.9756H3.17076L3.16385 30.5851L20.4088 30.5713L20.4998 30.5646C20.7977 30.5206 21.0346 30.2641 21.0346 29.9525C21.0346 29.6349 20.7977 29.3776 20.4998 29.3334L20.4088 29.3267L15.9483 29.3198L15.6423 29.3162C8.72524 29.1541 3.15694 23.5126 3.15694 16.5741C3.15694 9.63553 8.72524 3.99711 15.6423 3.83513L15.9483 3.83155ZM61.1247 23.8869H42.4779V31.8436C42.4779 34.0541 44.2202 35.8534 46.4073 35.9604L46.6136 35.9654L64.9659 35.9581L64.9696 30.5778L49.1574 30.5776C49.057 30.5747 48.0001 30.5192 47.8852 29.4648L47.8753 29.299H61.1247V23.8869ZM46.6136 10.5122H65.047V15.9377H49.1655L48.9997 15.9453C48.1027 16.0299 47.9214 16.7997 47.8849 17.0898L47.8757 17.1998H61.1251V22.6009H42.4784L42.4848 14.6511L42.4899 14.4445C42.5967 12.2545 44.3933 10.5122 46.6136 10.5122Z" fill="white"/>
<path fill-rule="evenodd" clip-rule="evenodd" d="M132.42 7.01291C131.699 7.72945 130.738 8.12805 129.717 8.12805C128.7 8.12805 127.742 7.72945 127.025 7.01337C126.298 6.28992 125.9 5.3356 125.9 4.31493C125.9 2.21737 127.616 0.514709 129.717 0.514709C130.738 0.514709 131.699 0.913301 132.42 1.62616C133.139 2.34961 133.542 3.30071 133.542 4.31447C133.542 5.33514 133.139 6.28945 132.42 7.01291ZM127.399 1.99987C126.774 2.61872 126.438 3.44355 126.438 4.31401C126.438 5.19137 126.773 6.01297 127.399 6.63137C128.021 7.25022 128.846 7.58937 129.717 7.58937C131.532 7.58937 133.007 6.12126 133.007 4.31401C133.007 3.44355 132.664 2.61872 132.045 1.99987C131.423 1.38147 130.598 1.04555 129.717 1.04555C128.847 1.04555 128.022 1.38101 127.399 1.99987Z" fill="white"/>
<path fill-rule="evenodd" clip-rule="evenodd" d="M128.738 6.4323V4.63565H129.829L130.986 6.4323H131.654L130.465 4.60062C130.471 4.5993 130.478 4.59788 130.486 4.59635C130.719 4.54966 131.472 4.39843 131.472 3.44356C131.472 3.05188 131.339 2.6989 131.021 2.46436C130.698 2.22045 130.358 2.21651 129.784 2.20986C129.774 2.20976 129.765 2.20965 129.755 2.20953H128.186V6.4323H128.738ZM129.86 4.1707H128.738V2.67817H129.829C129.84 2.67817 129.852 2.67816 129.863 2.67815C130.173 2.67792 130.441 2.67772 130.654 2.8565C130.895 3.05234 130.906 3.33527 130.906 3.44724C130.906 3.7546 130.766 4.0343 130.375 4.12877C130.207 4.1707 130.039 4.1707 129.86 4.1707Z" fill="white"/>
<g opacity="0.45">
<path d="M80.1551 191.785C76.0204 191.785 71.8902 191.817 67.7554 191.763C66.9167 191.753 66.0462 191.513 65.2482 191.218C63.8881 190.711 63.3214 189.591 63.8156 188.231C64.2418 187.043 64.813 185.887 65.4795 184.808C69.5326 178.243 73.6402 171.71 77.6978 165.15C78.1104 164.483 78.5593 164.225 79.2983 164.383C81.0165 164.742 82.7394 165.091 84.4622 165.44C85.3417 165.617 85.1694 166.093 84.8158 166.641C81.3883 171.891 77.9653 177.141 74.5469 182.396C74.2069 182.913 73.8623 183.439 73.5948 183.992C73.1868 184.84 73.4588 185.297 74.3928 185.411C74.633 185.438 74.8733 185.443 75.1136 185.443C79.4569 185.443 83.7957 185.447 88.139 185.438C89.7304 185.433 90.0432 185.021 89.7304 183.488C89.3405 181.566 88.9551 179.639 88.5878 177.713C88.3793 176.62 88.538 176.448 89.6488 176.389C91.1948 176.303 92.7453 176.239 94.2913 176.108C95.0756 176.04 95.5063 176.266 95.6831 177.087C96.2997 179.948 96.9662 182.799 97.61 185.656C97.7006 186.059 97.7687 186.467 97.8095 186.88C98.0951 189.74 96.7894 191.49 93.8968 191.713C91.1539 191.921 88.3929 191.867 85.6364 191.903C83.8093 191.926 81.9822 191.908 80.1597 191.908C80.1551 191.858 80.1551 191.821 80.1551 191.785Z" fill="white"/>
<path d="M124.835 178.674C126.454 178.674 128.072 178.665 129.695 178.678C130.742 178.687 130.919 178.9 130.665 179.934C130.362 181.172 129.967 182.387 129.673 183.625C129.496 184.377 129.06 184.604 128.34 184.599C125.307 184.577 122.273 184.617 119.245 184.558C118.27 184.54 117.88 184.894 117.781 185.828C117.595 187.61 117.286 189.378 117.128 191.16C117.042 192.148 116.593 192.456 115.663 192.42C114.457 192.37 113.251 192.402 112.045 192.406C110.672 192.411 110.59 192.32 110.771 190.906C110.98 189.264 111.193 187.628 111.402 185.987C111.56 184.744 111.424 184.581 110.196 184.581C107.403 184.581 104.615 184.595 101.822 184.599C100.53 184.599 100.371 184.364 100.738 183.121C101.06 182.033 101.387 180.941 101.627 179.83C101.813 178.959 102.266 178.646 103.141 178.656C105.725 178.692 108.31 178.633 110.894 178.692C111.941 178.715 112.549 178.488 112.521 177.309C112.508 176.801 112.653 176.284 112.73 175.777C112.934 174.403 112.861 174.312 111.429 174.312C109.153 174.308 106.881 174.317 104.606 174.308C103.291 174.303 103.141 174.086 103.508 172.839C103.839 171.714 104.193 170.595 104.447 169.457C104.624 168.654 105.059 168.405 105.83 168.414C108.033 168.45 110.241 168.423 112.444 168.464C113.333 168.477 113.786 168.174 113.832 167.235C113.877 166.342 114.067 165.462 114.158 164.569C114.226 163.876 114.534 163.49 115.269 163.495C116.715 163.504 118.161 163.508 119.612 163.499C120.333 163.495 120.61 163.848 120.533 164.533C120.442 165.354 120.365 166.179 120.251 166.999C120.066 168.373 120.138 168.459 121.562 168.441C123.525 168.418 125.488 168.391 127.451 168.409C128.58 168.418 128.716 168.618 128.435 169.733C128.131 170.935 127.768 172.122 127.474 173.324C127.292 174.045 126.889 174.335 126.145 174.321C124.25 174.29 122.355 174.339 120.46 174.299C119.594 174.281 119.191 174.621 119.127 175.477C119.082 176.13 118.946 176.774 118.855 177.422C118.701 178.538 118.814 178.674 119.975 178.678C121.593 178.687 123.212 178.678 124.835 178.678V178.674Z" fill="white"/>
<path d="M150.206 165.444C154.372 165.444 158.543 165.444 162.71 165.444C163.943 165.444 164.161 165.607 164.047 166.809C163.848 168.931 163.734 171.084 163.258 173.152C162.12 178.134 159.11 180.718 154.01 181.349C152.781 181.498 151.539 181.571 150.301 181.602C149.548 181.621 149.118 181.87 148.837 182.609C145.962 190.176 139.606 192.787 132.057 191.676C131.423 191.581 131.219 191.237 131.364 190.674C131.744 189.21 132.094 187.727 132.592 186.304C132.71 185.964 133.331 185.66 133.762 185.588C135.081 185.361 136.455 185.402 137.743 185.071C140.948 184.246 142.58 181.942 143.106 178.801C143.346 177.377 143.446 175.931 143.523 174.489C143.568 173.659 143.881 173.315 144.72 173.333C146.234 173.369 147.753 173.356 149.267 173.337C150.061 173.328 150.378 173.659 150.337 174.466C150.278 175.663 150.401 175.763 151.62 175.709C152.169 175.686 152.717 175.622 153.261 175.532C155.596 175.133 155.755 174.058 155.633 172.059C155.578 171.202 154.875 171.315 154.3 171.311C149.789 171.306 145.273 171.311 140.762 171.311C139.279 171.311 137.801 171.311 136.319 171.315C135.226 171.315 135.05 171.089 135.335 170.01C135.643 168.845 136.029 167.697 136.265 166.519C136.437 165.657 136.886 165.422 137.702 165.426C141.868 165.453 146.039 165.44 150.206 165.44V165.444Z" fill="white"/>
<path d="M24.7213 169.284C27.2693 169.284 29.8218 169.28 32.3697 169.284C33.5848 169.289 33.7163 169.443 33.4352 170.617C33.145 171.823 32.7959 173.011 32.4967 174.213C32.3289 174.888 31.939 175.174 31.2363 175.156C29.9261 175.124 28.6158 175.169 27.3101 175.133C26.4714 175.11 26.1404 175.437 25.9409 176.28C25.3425 178.823 24.7667 181.385 23.9007 183.847C22.2233 188.612 18.5691 190.91 13.6727 191.223C10.3766 191.432 7.0625 191.341 3.75741 191.395C2.9232 191.409 2.66025 191.001 2.77812 190.221C2.95494 189.065 3.14536 187.904 3.2451 186.739C3.3267 185.787 3.74381 185.483 4.69589 185.461C7.03076 185.402 9.37016 185.27 11.7005 185.057C15.9078 184.676 18.1157 182.119 18.9771 178.17C19.1222 177.495 19.2627 176.824 19.4124 176.148C19.5484 175.536 19.3126 175.214 18.6779 175.214C17.0911 175.21 15.5043 175.16 13.9266 175.255C13.5004 175.283 12.9926 175.663 12.7025 176.026C9.7646 179.703 5.99254 181.648 1.2548 181.63C-0.0690479 181.625 -0.200534 181.439 0.198434 180.165C0.611003 178.851 0.996367 177.522 1.49961 176.244C1.65829 175.84 2.13433 175.328 2.5197 175.278C6.48217 174.775 8.25939 172.064 9.29308 168.641C9.66032 167.43 9.81447 166.152 9.97768 164.891C10.0684 164.184 10.2996 163.826 11.0612 163.844C12.4395 163.876 13.8177 163.871 15.196 163.844C16.0619 163.826 16.3974 164.234 16.3068 165.05C16.2025 165.975 16.1027 166.9 15.9577 167.815C15.7582 169.094 15.9033 169.298 17.1727 169.298C19.6889 169.303 22.2051 169.298 24.7168 169.298C24.7214 169.293 24.7213 169.289 24.7213 169.284Z" fill="white"/>
<path d="M50.8946 174.72C55.7865 174.72 60.6784 174.72 65.5702 174.72C66.885 174.72 66.9984 174.902 66.6221 176.176C66.1914 177.626 65.7607 179.082 65.3889 180.551C65.1985 181.303 64.8312 181.639 64.0288 181.639C54.1045 181.625 44.1847 181.634 34.2603 181.643C33.3944 181.643 33.1677 181.244 33.3989 180.46C33.8523 178.905 34.3102 177.354 34.7318 175.79C34.9449 175.001 35.3892 174.698 36.2234 174.702C41.1153 174.729 46.0072 174.716 50.8991 174.716C50.8946 174.716 50.8946 174.716 50.8946 174.72Z" fill="white"/>
<path d="M130.987 167.874C129.001 167.865 128.983 167.861 129.468 165.961C129.818 164.601 130.244 163.254 130.588 161.894C130.761 161.214 131.15 160.915 131.831 160.929C132.483 160.942 133.136 160.942 133.785 160.929C134.56 160.915 134.737 161.319 134.551 161.994C134.184 163.318 133.812 164.637 133.458 165.961C132.946 167.883 132.95 167.888 130.987 167.874Z" fill="white"/>
<path d="M34.4461 160.938C36.5679 160.947 36.5633 160.942 35.9966 162.973C35.6339 164.265 35.2803 165.558 34.9539 166.859C34.7771 167.571 34.3826 167.892 33.6346 167.879C30.2751 167.815 30.5743 168.242 31.4493 164.995C31.6533 164.234 31.8845 163.472 32.0931 162.71C32.5873 160.933 32.5873 160.933 34.4461 160.938Z" fill="white"/>
<path d="M26.9609 167.87C25.0205 167.865 24.9933 167.824 25.5147 165.979C25.9 164.624 26.299 163.273 26.6572 161.912C26.8476 161.187 27.2602 160.892 27.9946 160.933C28.6112 160.965 29.2323 160.933 29.8489 160.929C30.5924 160.92 30.8373 161.278 30.6423 161.98C30.1708 163.667 29.7492 165.372 29.1915 167.031C29.0691 167.394 28.5069 167.675 28.0853 167.847C27.7634 167.974 27.3418 167.87 26.9609 167.87Z" fill="white"/>
<path d="M125.397 167.861C123.321 167.847 123.307 167.843 123.838 165.866C124.2 164.506 124.554 163.137 125.035 161.817C125.171 161.446 125.692 161.069 126.1 160.979C126.757 160.838 127.465 160.951 128.154 160.929C128.938 160.906 129.124 161.314 128.943 161.981C128.485 163.635 128 165.286 127.546 166.94C127.197 168.205 126.182 167.815 125.397 167.861Z" fill="white"/>
</g>
<path d="M103.717 136.578C103.79 136.261 103.876 135.948 103.926 135.631C105.716 123.557 107.494 111.479 109.289 99.4061C110.15 93.6074 110.944 87.7997 111.968 82.0328C112.657 78.152 115.677 74.7834 120.251 74.7517C121.249 74.7471 122.251 74.6927 123.244 74.7471C126.712 74.9421 129.741 77.1953 130.597 80.5684C131.595 84.5082 132.334 88.5115 133.15 92.4967C133.893 96.1418 134.592 99.8005 135.308 103.455C135.802 105.957 136.296 108.46 136.795 110.958C136.872 111.343 136.995 111.715 137.171 112.368C137.461 111.901 137.625 111.702 137.729 111.47C139.824 106.787 141.918 102.099 144.004 97.4067C146.339 92.1521 148.61 86.8748 151.013 81.652C152.074 79.3443 153.91 77.6351 156.054 76.3022C159.536 74.1441 163.082 73.9673 166.718 75.9848C169.32 77.4311 170.53 79.7161 171.07 82.5361C171.483 84.7032 171.016 86.8023 170.739 88.9014C169.701 96.8672 168.599 104.819 167.461 112.771C166.242 121.304 164.963 129.827 163.712 138.355C163.598 139.14 163.517 139.928 163.408 140.713C163.295 141.511 162.832 141.964 162.021 141.969C157.782 141.978 153.538 141.996 149.299 141.964C148.297 141.955 148.034 141.488 148.215 140.305C148.678 137.272 149.149 134.239 149.63 131.21C150.414 126.309 151.208 121.404 152.001 116.503C152.142 115.646 152.296 114.789 152.445 113.928C152.341 113.891 152.237 113.86 152.128 113.823C151.956 114.132 151.765 114.431 151.62 114.748C149.557 119.227 147.504 123.707 145.441 128.186C144.258 130.752 143.12 133.341 141.864 135.871C140.68 138.26 139.098 140.35 136.528 141.406C132.656 143.002 128.199 141.048 126.807 137.081C126.309 135.662 126.046 134.148 125.796 132.656C124.831 126.912 123.915 121.154 122.985 115.406C122.854 114.589 122.731 113.769 122.6 112.948C122.487 112.948 122.369 112.948 122.255 112.948C122.183 113.22 122.083 113.488 122.042 113.76C120.75 122.596 119.472 131.432 118.18 140.269C117.953 141.81 117.758 141.982 116.18 141.982C107.974 141.991 99.7681 141.991 91.5621 141.987C90.0433 141.987 89.8483 141.783 89.7214 140.282C89.463 137.258 89.1773 134.239 88.9597 131.215C88.8872 130.235 88.5245 129.791 87.5044 129.796C83.4694 129.823 79.4344 129.814 75.4039 129.791C74.5198 129.787 74.012 130.167 73.6901 130.979C72.398 134.211 71.0515 137.426 69.773 140.663C69.4194 141.561 68.8662 141.987 67.9187 141.987C63.7794 141.978 59.6446 142 55.5054 141.978C54.2268 141.973 53.973 141.465 54.5351 140.11C56.3033 135.839 58.0941 131.582 59.8577 127.311C62.8319 120.112 65.7833 112.898 68.771 105.703C70.6208 101.247 72.5159 96.8128 74.3838 92.3652C75.8436 88.8787 77.2128 85.3515 78.7588 81.9059C80.3275 78.3968 82.7168 75.7128 86.652 74.7471C90.2065 73.8767 95.8736 75.9259 97.5058 80.0743C98.2085 81.8651 98.7526 83.6378 98.9203 85.5329C99.8044 95.3846 100.688 105.236 101.573 115.088C102.094 120.891 102.615 126.695 103.128 132.498C103.245 133.849 103.332 135.204 103.431 136.56C103.531 136.574 103.622 136.574 103.717 136.578ZM86.3302 100.363C86.2349 100.358 86.1352 100.354 86.04 100.345C85.9357 100.512 85.8088 100.675 85.7362 100.857C83.9545 105.341 82.1863 109.829 80.391 114.304C80.0555 115.138 80.3366 115.487 81.1662 115.492C82.8528 115.505 84.5439 115.514 86.2349 115.501C87.459 115.487 87.6223 115.315 87.518 114.1C87.2233 110.668 86.9059 107.236 86.6022 103.799C86.4979 102.657 86.4208 101.51 86.3302 100.363Z" fill="white"/>
<path d="M46.5059 103.518C49.7112 103.518 52.9211 103.473 56.1219 103.532C59.486 103.595 61.8435 105.345 62.4555 108.401C62.7094 109.68 62.6913 111.112 62.3921 112.382C61.0456 118.058 58.8875 123.453 55.6006 128.277C49.6976 136.932 41.6956 142.549 31.0323 143.134C22.8988 143.578 15.3683 141.307 9.23416 135.603C4.91352 131.582 2.44264 126.463 1.03265 120.796C-0.522418 114.544 -0.118917 108.279 0.914772 102.008C1.93033 95.8562 4.13825 90.1709 7.79243 85.1158C10.762 81.0082 14.5976 77.8664 19.0769 75.4544C23.1346 73.2692 27.4416 71.9499 31.9798 71.2925C36.2914 70.6668 40.5033 71.1565 44.6244 72.4712C50.3414 74.2983 54.9658 77.7394 58.7016 82.3548C59.9484 83.8917 60.8234 85.7279 61.8571 87.4325C62.2606 88.099 62.052 88.5886 61.3901 88.9695C58.8512 90.4293 56.326 91.9073 53.7961 93.3808C53.1705 93.7435 52.563 94.1379 51.9328 94.4915C51.1575 94.9268 50.5681 94.7726 50.151 93.943C48.0519 89.781 44.9735 86.6663 40.5033 85.0977C38.123 84.2635 35.6794 84.0821 33.1768 84.5446C28.974 85.3198 25.2155 86.9746 22.1099 89.9624C19.2809 92.6826 17.2498 95.9242 15.9395 99.6237C14.3845 104.026 13.6319 108.542 13.8223 113.225C13.9583 116.616 14.7925 119.821 16.6649 122.614C19.1585 126.327 22.8036 128.436 27.2512 128.925C31.5038 129.392 35.4935 128.504 39.0343 126.001C41.7092 124.11 43.6451 121.576 45.1367 118.693C45.6264 117.745 45.3815 117.419 44.2254 117.414C40.2267 117.396 36.228 117.4 32.2292 117.396C31.8484 117.396 31.4675 117.41 31.0912 117.378C30.1482 117.296 29.8535 116.875 30.1981 115.99C31.0912 113.715 32.0207 111.452 32.9501 109.19C33.4986 107.852 34.1606 106.551 34.6275 105.187C35.0718 103.89 35.8879 103.468 37.2072 103.496C40.3083 103.559 43.4139 103.514 46.515 103.514C46.5059 103.514 46.5059 103.518 46.5059 103.518Z" fill="white"/>
<path d="M187.94 142.005C184.218 142.005 180.486 141.887 176.769 142.037C172.217 142.218 167.896 138.5 167.593 133.5C167.534 132.543 167.561 131.564 167.701 130.616C169.383 119.155 171.079 107.694 172.806 96.237C173.609 90.9235 174.461 85.6145 175.359 80.3145C175.767 77.9071 178.551 75.0418 180.949 74.8378C181.874 74.7607 182.799 74.5703 183.724 74.5658C192.034 74.5476 200.34 74.5567 208.65 74.5567C210.468 74.5567 210.745 74.7245 210.554 76.4926C210.201 79.8158 209.697 83.1209 209.23 86.4305C209.108 87.3101 208.528 87.5594 207.671 87.5549C201.781 87.5141 195.888 87.5413 189.998 87.4914C187.836 87.4733 187.985 87.4552 187.654 89.6721C187.187 92.8095 186.775 95.9514 186.353 99.0978C186.176 100.399 186.371 100.63 187.704 100.63C192.428 100.644 197.152 100.635 201.877 100.639C202.257 100.639 202.638 100.63 203.015 100.653C204.08 100.721 204.375 101.047 204.221 102.099C203.817 104.896 203.382 107.689 202.969 110.486C202.824 111.475 202.738 112.472 202.557 113.456C202.348 114.617 201.949 114.807 200.766 114.807C195.561 114.798 190.356 114.839 185.156 114.843C184.467 114.843 184.181 115.134 184.091 115.805C183.61 119.359 183.107 122.909 182.595 126.459C182.486 127.207 182.622 127.633 183.524 127.633C188.901 127.638 194.278 127.687 199.655 127.71C200.584 127.715 201.518 127.619 202.443 127.678C203.531 127.746 203.808 128.1 203.649 129.143C203.064 133.028 202.443 136.909 201.854 140.794C201.7 141.824 201.033 142.019 200.145 142.014C196.078 142 192.007 142.009 187.94 142.009C187.94 142.005 187.94 142.005 187.94 142.005Z" fill="white"/>
<path d="M327.737 137.181C328.753 134.737 329.778 132.294 330.789 129.846C332.815 124.94 334.828 120.025 336.859 115.125C339.498 108.759 342.132 102.394 344.793 96.0375C346.258 92.542 347.822 89.0873 349.227 85.5692C350.016 83.5924 350.764 81.6293 351.821 79.7569C355.293 73.5775 363.363 73.3508 367.389 77.1818C369.629 79.3081 370.59 82.0737 370.88 85.0523C371.606 92.4967 372.277 99.9456 372.911 107.395C373.732 116.974 374.494 126.559 375.283 136.143C375.301 136.342 375.342 136.542 375.591 136.791C375.668 136.465 375.777 136.138 375.822 135.807C377.046 127.275 378.27 118.742 379.481 110.21C380.587 102.43 381.662 94.6457 382.781 86.8658C383.085 84.7531 383.461 82.6449 383.865 80.5503C384.472 77.4039 387.406 74.8514 390.702 74.7925C395.802 74.7063 400.907 74.661 406.008 74.8016C409.208 74.8922 412.092 76.2523 414.794 77.8936C420.067 81.0944 422.361 86.1223 422.986 91.9934C423.78 99.4151 421.332 105.826 416.517 111.416C415.914 112.114 414.971 112.808 414.885 113.583C414.808 114.277 415.71 115.066 416.159 115.827C417.405 117.949 417.9 120.311 418.371 122.682C419.518 128.463 420.67 134.248 421.826 140.028C422.139 141.601 421.862 141.991 420.275 142C416.585 142.014 412.899 142.014 409.208 141.991C407.921 141.982 407.594 141.669 407.359 140.513C406.298 135.277 405.192 130.05 404.185 124.799C403.818 122.895 403.319 121.114 401.891 119.713C401.039 118.878 400.055 118.411 398.84 118.411C397.153 118.411 395.462 118.393 393.776 118.343C393.014 118.321 392.742 118.724 392.642 119.391C391.967 124.029 391.282 128.671 390.602 133.309C390.235 135.798 389.868 138.287 389.509 140.781C389.401 141.552 388.979 141.951 388.208 141.982C387.827 141.996 387.451 142.009 387.07 142.009C379.381 142.009 371.696 142.009 364.007 142.009C363.731 142.009 363.454 141.991 363.182 142C362.144 142.028 361.7 141.493 361.627 140.491C361.428 137.671 361.196 134.855 360.974 132.035C360.942 131.623 360.879 131.215 360.82 130.807C360.725 130.163 360.344 129.832 359.691 129.832C355.484 129.832 351.281 129.832 347.074 129.832C346.298 129.832 345.927 130.317 345.659 130.979C344.39 134.112 343.102 137.231 341.824 140.359C341.184 141.923 341.098 142 339.385 142C326.767 142.005 314.15 142.014 301.532 141.982C300.621 141.982 299.665 141.824 298.808 141.524C295.09 140.214 292.674 136.973 292.755 133.019C292.81 130.38 293.263 127.742 293.644 125.121C295.163 114.716 296.7 104.312 298.277 93.9157C298.971 89.3503 299.683 84.7848 300.562 80.2556C301.17 77.1274 303.718 75.0328 306.869 74.729C307.966 74.6247 309.068 74.5658 310.169 74.5658C318.135 74.5477 326.096 74.5477 334.062 74.5522C335.898 74.5522 335.984 74.6519 335.762 76.4292C335.359 79.6436 334.937 82.8535 334.506 86.0633C334.343 87.292 333.949 87.5141 332.711 87.5051C328.544 87.4824 324.373 87.5232 320.207 87.5323C318.244 87.5368 316.281 87.5549 314.318 87.5051C313.511 87.4824 313.08 87.7589 312.971 88.5614C312.49 92.2201 312.005 95.8743 311.516 99.5285C311.375 100.576 312.069 100.63 312.812 100.63C317.641 100.63 322.465 100.63 327.293 100.635C327.706 100.635 328.123 100.635 328.531 100.689C329.247 100.784 329.51 101.211 329.406 101.931C328.898 105.341 328.408 108.75 327.91 112.159C327.846 112.604 327.76 113.044 327.701 113.488C327.565 114.494 326.98 114.884 325.992 114.862C322.651 114.794 319.309 114.748 315.968 114.716C314.25 114.698 312.527 114.739 310.808 114.716C309.834 114.703 309.394 115.129 309.267 116.104C308.841 119.418 308.36 122.728 307.884 126.037C307.662 127.583 307.68 127.57 309.231 127.574C312.432 127.588 315.632 127.678 318.838 127.692C321.698 127.706 324.555 127.665 327.416 127.642C328.544 127.633 328.93 128.041 328.762 129.165C328.449 131.278 328.096 133.391 327.76 135.499C327.674 136.039 327.592 136.574 327.506 137.113C327.583 137.14 327.66 137.163 327.737 137.181ZM398.699 104.144C399.592 104.144 400.49 104.153 401.383 104.144C402.834 104.126 404.045 103.55 405.087 102.562C407.214 100.558 408.261 98.0777 408.61 95.1943C409.163 90.6152 405.79 87.9856 402.222 87.632C400.889 87.5005 399.538 87.5459 398.201 87.5413C397.407 87.5368 396.908 87.9267 396.791 88.7473C396.664 89.5996 396.496 90.4429 396.383 91.2952C395.866 95.1489 395.371 99.0026 394.85 102.852C394.719 103.813 394.905 104.103 395.916 104.139C396.84 104.171 397.77 104.144 398.699 104.144ZM358.299 100.345C358.19 100.335 358.077 100.322 357.968 100.313C357.81 100.639 357.628 100.957 357.492 101.292C356.74 103.178 355.996 105.064 355.248 106.95C354.296 109.349 353.321 111.738 352.383 114.136C351.997 115.115 352.206 115.387 353.235 115.41C354.781 115.442 356.332 115.496 357.878 115.505C359.401 115.514 359.609 115.261 359.487 113.746C359.147 109.562 358.816 105.377 358.472 101.197C358.444 100.911 358.354 100.63 358.299 100.345Z" fill="white"/>
<path d="M277.341 103.491C280.51 103.491 283.683 103.405 286.852 103.509C292.628 103.704 294.428 108.129 293.236 112.436C292.12 116.471 290.769 120.533 288.847 124.228C284.286 132.996 277.526 139.439 267.761 142.223C263.708 143.379 259.609 143.469 255.474 142.776C250.324 141.914 245.55 140.169 241.47 136.805C236.605 132.797 233.699 127.574 232.098 121.558C230.076 113.955 230.761 106.352 232.425 98.8257C233.563 93.6709 235.735 88.8833 239.008 84.6896C241.832 81.0717 245.201 78.0794 249.245 75.8171C252.41 74.0489 255.76 72.8067 259.228 71.9407C267.199 69.9504 274.793 71.1292 281.802 75.3728C285.021 77.3223 287.872 79.7932 289.958 83.0257C290.924 84.5218 291.935 85.9817 292.927 87.4597C293.326 88.0536 293.163 88.4571 292.56 88.8062C289.337 90.665 286.127 92.542 282.908 94.4053C281.906 94.9857 281.552 94.8315 280.972 93.7525C278.927 89.9714 276.13 87.0244 272.041 85.3923C268.468 83.9687 264.909 84.1138 261.314 85.1656C255.492 86.8703 251.412 90.6605 248.547 95.8924C245.886 100.748 244.716 106.003 244.625 111.47C244.566 114.998 245.069 118.529 246.924 121.644C249.707 126.327 253.906 128.766 259.342 128.984C267.072 129.288 272.322 125.43 275.921 118.91C276.547 117.777 276.343 117.419 275.046 117.414C270.875 117.396 266.704 117.405 262.533 117.396C260.833 117.391 260.629 117.065 261.273 115.496C262.737 111.924 264.215 108.36 265.639 104.769C266.002 103.858 266.568 103.505 267.516 103.509C270.789 103.536 274.067 103.518 277.341 103.518C277.341 103.505 277.341 103.495 277.341 103.491Z" fill="white"/>
<path d="M427.676 141.979V136.55H425.64V135.6H430.933V136.55H428.626V141.979H427.676Z" fill="white"/>
<path d="M431.476 141.979V135.6H433.105L434.734 140.757L436.362 135.6H437.855V141.979H436.905V136.55L435.276 141.979H434.326L432.562 136.55V141.979H431.476Z" fill="white"/>
</svg>
