<svg width="120" height="81" viewBox="0 0 120 81" fill="none" xmlns="http://www.w3.org/2000/svg">
<path fill-rule="evenodd" clip-rule="evenodd" d="M34 2.5V29.5H86V2.5H34ZM33.9403 0.5C32.8687 0.5 32 1.36188 32 2.42506V29.5749C32 30.6381 32.8687 31.5 33.9403 31.5H86.0597C87.1313 31.5 88 30.6381 88 29.5749V2.42505C88 1.36188 87.1313 0.5 86.0597 0.5H33.9403Z" fill="white"/>
<path fill-rule="evenodd" clip-rule="evenodd" d="M46.5083 5.5C46.507 5.50201 46.5056 5.50453 46.5044 5.50758C46.5022 5.51297 46.5 5.52102 46.5 5.53294V26.4671C46.5 26.479 46.5022 26.487 46.5044 26.4924C46.5056 26.4955 46.507 26.498 46.5083 26.5H73.4917C73.493 26.498 73.4944 26.4955 73.4956 26.4924C73.4978 26.487 73.5 26.479 73.5 26.4671V5.53293C73.5 5.52102 73.4978 5.51297 73.4956 5.50758C73.4944 5.50453 73.493 5.50201 73.4917 5.5H46.5083ZM46.4932 4.5C45.9446 4.5 45.5 4.96246 45.5 5.53294V26.4671C45.5 27.0375 45.9447 27.5 46.4932 27.5H73.5068C74.0553 27.5 74.5 27.0375 74.5 26.4671V5.53293C74.5 4.96246 74.0553 4.5 73.5068 4.5H46.4932Z" fill="white"/>
<path fill-rule="evenodd" clip-rule="evenodd" d="M71.5 8.5H48.5V23.5H71.5V8.5ZM48.5 7.5C47.9477 7.5 47.5 7.94772 47.5 8.5V23.5C47.5 24.0523 47.9477 24.5 48.5 24.5H71.5C72.0523 24.5 72.5 24.0523 72.5 23.5V8.5C72.5 7.94772 72.0523 7.5 71.5 7.5H48.5Z" fill="white"/>
<path d="M82.5 24.2598C82.5 25.5024 81.4926 26.5098 80.25 26.5098C79.0074 26.5098 78 25.5024 78 24.2598C78 23.0171 79.0074 22.0098 80.25 22.0098C81.4926 22.0098 82.5 23.0171 82.5 24.2598Z" fill="white"/>
<path d="M41.251 19C41.251 19.8284 40.5794 20.5 39.751 20.5C38.9225 20.5 38.251 19.8284 38.251 19C38.251 18.1716 38.9225 17.5 39.751 17.5C40.5794 17.5 41.251 18.1716 41.251 19Z" fill="white"/>
<path d="M41.25 25.0098C41.25 25.8382 40.5784 26.5098 39.75 26.5098C38.9216 26.5098 38.25 25.8382 38.25 25.0098C38.25 24.1813 38.9216 23.5098 39.75 23.5098C40.5784 23.5098 41.25 24.1813 41.25 25.0098Z" fill="white"/>
<path d="M36.7451 20.478C37.5735 20.478 38.2451 21.1496 38.2451 21.978C38.2451 22.8065 37.5735 23.478 36.7451 23.478C35.9167 23.478 35.2451 22.8065 35.2451 21.978C35.2451 21.1496 35.9167 20.478 36.7451 20.478Z" fill="white"/>
<path d="M42.7549 20.478C43.5833 20.478 44.2549 21.1496 44.2549 21.978C44.2549 22.8065 43.5833 23.478 42.7549 23.478C41.9265 23.478 41.2549 22.8065 41.2549 21.978C41.2549 21.1496 41.9265 20.478 42.7549 20.478Z" fill="white"/>
<path d="M83.4935 6.66862C83.4935 7.07915 83.1607 7.41195 82.7502 7.41195C82.3396 7.41195 82.0068 7.07915 82.0068 6.66862C82.0068 6.25809 82.3396 5.92529 82.7502 5.92529C83.1607 5.92529 83.4935 6.25809 83.4935 6.66862Z" fill="white"/>
<path d="M83.4935 9.83171C83.4935 10.2422 83.1607 10.575 82.7502 10.575C82.3396 10.575 82.0068 10.2422 82.0068 9.83171C82.0068 9.42118 82.3396 9.08838 82.7502 9.08838C83.1607 9.08838 83.4935 9.42118 83.4935 9.83171Z" fill="white"/>
<path d="M77.0068 5.25C77.0068 4.83579 77.3426 4.5 77.7568 4.5H79.7568C80.171 4.5 80.5068 4.83579 80.5068 5.25V5.25C80.5068 5.66421 80.171 6 79.7568 6H77.7568C77.3426 6 77.0068 5.66421 77.0068 5.25V5.25Z" fill="white"/>
<path d="M77.0068 8.25C77.0068 7.83579 77.3426 7.5 77.7568 7.5H79.7568C80.171 7.5 80.5068 7.83579 80.5068 8.25V8.25C80.5068 8.66421 80.171 9 79.7568 9H77.7568C77.3426 9 77.0068 8.66421 77.0068 8.25V8.25Z" fill="white"/>
<path d="M77.0068 11.25C77.0068 10.8358 77.3426 10.5 77.7568 10.5H79.7568C80.171 10.5 80.5068 10.8358 80.5068 11.25V11.25C80.5068 11.6642 80.171 12 79.7568 12H77.7568C77.3426 12 77.0068 11.6642 77.0068 11.25V11.25Z" fill="white"/>
</svg>
