<svg width="723" height="85" viewBox="0 0 723 85" fill="none" xmlns="http://www.w3.org/2000/svg">
<g id="gamemeta">
<g id="GAME DETAILS">
<g id="ICON DIVIDERS" opacity="0.351446">
<rect id="Rectangle" x="170" width="1" height="73" fill="white"/>
<rect id="Rectangle_2" x="361" width="1" height="73" fill="white"/>
<rect id="Rectangle_3" x="552" width="1" height="73" fill="white"/>
</g>
<g id="MD_LBL_PLAYERS INFO">
<g id="PLAYERS - ICON">
<path id="Oval" d="M258.5 8C258.5 11.5899 255.59 14.5 252 14.5C248.41 14.5 245.5 11.5899 245.5 8C245.5 4.41015 248.41 1.5 252 1.5C255.59 1.5 258.5 4.41015 258.5 8Z" stroke="white" stroke-width="3"/>
<path id="Rectangle_4" d="M245 19.5H259C262.038 19.5 264.5 21.9624 264.5 25V36.5H239.5V25C239.5 21.9624 241.962 19.5 245 19.5Z" stroke="white" stroke-width="3"/>
<path id="Oval_2" d="M287.5 8C287.5 11.5899 284.59 14.5 281 14.5C277.41 14.5 274.5 11.5899 274.5 8C274.5 4.41015 277.41 1.5 281 1.5C284.59 1.5 287.5 4.41015 287.5 8Z" stroke="white" stroke-width="3"/>
<path id="Rectangle_5" d="M274 19.5H288C291.038 19.5 293.5 21.9624 293.5 25V36.5H268.5V25C268.5 21.9624 270.962 19.5 274 19.5Z" stroke="white" stroke-width="3"/>
</g>
</g>
<g id="MD_DEVELOPER INFO">
<g id="PROCESSOR - ICON">
<g id="Group 51">
<rect id="Rectangle_6" x="420" y="13" width="8" height="3" rx="1.5" fill="white"/>
<rect id="Rectangle_7" x="420" y="18" width="8" height="3" rx="1.5" fill="white"/>
<rect id="Rectangle_8" x="420" y="23" width="8" height="3" rx="1.5" fill="white"/>
</g>
<g id="Group 52">
<rect id="Rectangle_9" x="448" y="1" width="7" height="3" rx="1.5" transform="rotate(90 448 1)" fill="white"/>
<rect id="Rectangle_10" x="443" y="1" width="7" height="3" rx="1.5" transform="rotate(90 443 1)" fill="white"/>
<rect id="Rectangle_11" x="438" y="1" width="7" height="3" rx="1.5" transform="rotate(90 438 1)" fill="white"/>
<rect id="Rectangle_12" x="463" y="1" width="7" height="3" rx="1.5" transform="rotate(90 463 1)" fill="white"/>
<rect id="Rectangle_13" x="458" y="1" width="7" height="3" rx="1.5" transform="rotate(90 458 1)" fill="white"/>
<rect id="Rectangle_14" x="453" y="1" width="7" height="3" rx="1.5" transform="rotate(90 453 1)" fill="white"/>
<rect id="Rectangle_15" x="478" y="1" width="7" height="3" rx="1.5" transform="rotate(90 478 1)" fill="white"/>
<rect id="Rectangle_16" x="468" y="1" width="7" height="3" rx="1.5" transform="rotate(90 468 1)" fill="white"/>
<rect id="Rectangle_17" x="473" y="1" width="7" height="3" rx="1.5" transform="rotate(90 473 1)" fill="white"/>
</g>
<g id="Group 52_2">
<rect id="Rectangle_18" x="448" y="31" width="7" height="3" rx="1.5" transform="rotate(90 448 31)" fill="white"/>
<rect id="Rectangle_19" x="443" y="31" width="7" height="3" rx="1.5" transform="rotate(90 443 31)" fill="white"/>
<rect id="Rectangle_20" x="438" y="31" width="7" height="3" rx="1.5" transform="rotate(90 438 31)" fill="white"/>
<rect id="Rectangle_21" x="463" y="31" width="7" height="3" rx="1.5" transform="rotate(90 463 31)" fill="white"/>
<rect id="Rectangle_22" x="458" y="31" width="7" height="3" rx="1.5" transform="rotate(90 458 31)" fill="white"/>
<rect id="Rectangle_23" x="453" y="31" width="7" height="3" rx="1.5" transform="rotate(90 453 31)" fill="white"/>
<rect id="Rectangle_24" x="478" y="31" width="7" height="3" rx="1.5" transform="rotate(90 478 31)" fill="white"/>
<rect id="Rectangle_25" x="468" y="31" width="7" height="3" rx="1.5" transform="rotate(90 468 31)" fill="white"/>
<rect id="Rectangle_26" x="473" y="31" width="7" height="3" rx="1.5" transform="rotate(90 473 31)" fill="white"/>
</g>
<g id="Group 51_2">
<rect id="Rectangle_27" x="486" y="13" width="8" height="3" rx="1.5" fill="white"/>
<rect id="Rectangle_28" x="486" y="18" width="8" height="3" rx="1.5" fill="white"/>
<rect id="Rectangle_29" x="486" y="23" width="8" height="3" rx="1.5" fill="white"/>
</g>
<path id="Rectangle (Stroke)" fill-rule="evenodd" clip-rule="evenodd" d="M428 9V30H485V9H428ZM427.556 6C426.144 6 425 7.14416 425 8.55556V30.4444C425 31.8558 426.144 33 427.556 33H485.444C486.856 33 488 31.8558 488 30.4444V8.55556C488 7.14416 486.856 6 485.444 6H427.556Z" fill="white"/>
<path id="Rectangle (Stroke)_2" fill-rule="evenodd" clip-rule="evenodd" d="M480 14H433V25H480V14ZM431 12V27H482V12H431Z" fill="white"/>
</g>
</g>
<g id="RELEASEDATE - INFO">
<g id="RELEASEDATE - ICON">
<rect id="Rectangle_30" x="632" width="10" height="3" rx="1.5" transform="rotate(90 632 0)" fill="white"/>
<rect id="Rectangle_31" x="620" y="11" width="57" height="2" fill="white"/>
<rect id="Rectangle_32" x="668" width="10" height="3" rx="1.5" transform="rotate(90 668 0)" fill="white"/>
<path id="Rectangle (Stroke)_3" fill-rule="evenodd" clip-rule="evenodd" d="M623 6V35H674V6H623ZM622.556 3C621.144 3 620 4.14416 620 5.55556V35.4444C620 36.8558 621.144 38 622.556 38H674.444C675.856 38 677 36.8558 677 35.4444V5.55556C677 4.14416 675.856 3 674.444 3H622.556Z" fill="white"/>
<path id="Oval_3" fill-rule="evenodd" clip-rule="evenodd" d="M634.5 18C635.328 18 636 17.3284 636 16.5C636 15.6716 635.328 15 634.5 15C633.672 15 633 15.6716 633 16.5C633 17.3284 633.672 18 634.5 18Z" fill="white"/>
<path id="Oval_4" fill-rule="evenodd" clip-rule="evenodd" d="M641.5 18C642.328 18 643 17.3284 643 16.5C643 15.6716 642.328 15 641.5 15C640.672 15 640 15.6716 640 16.5C640 17.3284 640.672 18 641.5 18Z" fill="white"/>
<path id="Oval_5" fill-rule="evenodd" clip-rule="evenodd" d="M648.5 18C649.328 18 650 17.3284 650 16.5C650 15.6716 649.328 15 648.5 15C647.672 15 647 15.6716 647 16.5C647 17.3284 647.672 18 648.5 18Z" fill="white"/>
<path id="Oval_6" fill-rule="evenodd" clip-rule="evenodd" d="M655.5 18C656.328 18 657 17.3284 657 16.5C657 15.6716 656.328 15 655.5 15C654.672 15 654 15.6716 654 16.5C654 17.3284 654.672 18 655.5 18Z" fill="white"/>
<path id="Oval_7" fill-rule="evenodd" clip-rule="evenodd" d="M662.5 18C663.328 18 664 17.3284 664 16.5C664 15.6716 663.328 15 662.5 15C661.672 15 661 15.6716 661 16.5C661 17.3284 661.672 18 662.5 18Z" fill="white"/>
<path id="Oval_8" fill-rule="evenodd" clip-rule="evenodd" d="M669.5 18C670.328 18 671 17.3284 671 16.5C671 15.6716 670.328 15 669.5 15C668.672 15 668 15.6716 668 16.5C668 17.3284 668.672 18 669.5 18Z" fill="white"/>
<path id="Oval_9" fill-rule="evenodd" clip-rule="evenodd" d="M627.5 23C628.328 23 629 22.3284 629 21.5C629 20.6716 628.328 20 627.5 20C626.672 20 626 20.6716 626 21.5C626 22.3284 626.672 23 627.5 23Z" fill="white"/>
<path id="Oval_10" fill-rule="evenodd" clip-rule="evenodd" d="M634.5 23C635.328 23 636 22.3284 636 21.5C636 20.6716 635.328 20 634.5 20C633.672 20 633 20.6716 633 21.5C633 22.3284 633.672 23 634.5 23Z" fill="white"/>
<path id="Oval_11" fill-rule="evenodd" clip-rule="evenodd" d="M641.5 23C642.328 23 643 22.3284 643 21.5C643 20.6716 642.328 20 641.5 20C640.672 20 640 20.6716 640 21.5C640 22.3284 640.672 23 641.5 23Z" fill="white"/>
<path id="Oval_12" fill-rule="evenodd" clip-rule="evenodd" d="M648.5 23C649.328 23 650 22.3284 650 21.5C650 20.6716 649.328 20 648.5 20C647.672 20 647 20.6716 647 21.5C647 22.3284 647.672 23 648.5 23Z" fill="white"/>
<path id="Oval_13" fill-rule="evenodd" clip-rule="evenodd" d="M655.5 23C656.328 23 657 22.3284 657 21.5C657 20.6716 656.328 20 655.5 20C654.672 20 654 20.6716 654 21.5C654 22.3284 654.672 23 655.5 23Z" fill="white"/>
<path id="Oval_14" fill-rule="evenodd" clip-rule="evenodd" d="M662.5 23C663.328 23 664 22.3284 664 21.5C664 20.6716 663.328 20 662.5 20C661.672 20 661 20.6716 661 21.5C661 22.3284 661.672 23 662.5 23Z" fill="white"/>
<path id="Oval_15" fill-rule="evenodd" clip-rule="evenodd" d="M669.5 23C670.328 23 671 22.3284 671 21.5C671 20.6716 670.328 20 669.5 20C668.672 20 668 20.6716 668 21.5C668 22.3284 668.672 23 669.5 23Z" fill="white"/>
<path id="Oval_16" fill-rule="evenodd" clip-rule="evenodd" d="M627.5 28C628.328 28 629 27.3284 629 26.5C629 25.6716 628.328 25 627.5 25C626.672 25 626 25.6716 626 26.5C626 27.3284 626.672 28 627.5 28Z" fill="white"/>
<path id="Oval_17" fill-rule="evenodd" clip-rule="evenodd" d="M634.5 28C635.328 28 636 27.3284 636 26.5C636 25.6716 635.328 25 634.5 25C633.672 25 633 25.6716 633 26.5C633 27.3284 633.672 28 634.5 28Z" fill="white"/>
<path id="Oval_18" fill-rule="evenodd" clip-rule="evenodd" d="M641.5 28C642.328 28 643 27.3284 643 26.5C643 25.6716 642.328 25 641.5 25C640.672 25 640 25.6716 640 26.5C640 27.3284 640.672 28 641.5 28Z" fill="white"/>
<path id="Oval_19" fill-rule="evenodd" clip-rule="evenodd" d="M648.5 28C649.328 28 650 27.3284 650 26.5C650 25.6716 649.328 25 648.5 25C647.672 25 647 25.6716 647 26.5C647 27.3284 647.672 28 648.5 28Z" fill="white"/>
<path id="Oval_20" fill-rule="evenodd" clip-rule="evenodd" d="M655.5 28C656.328 28 657 27.3284 657 26.5C657 25.6716 656.328 25 655.5 25C654.672 25 654 25.6716 654 26.5C654 27.3284 654.672 28 655.5 28Z" fill="white"/>
<path id="Oval_21" fill-rule="evenodd" clip-rule="evenodd" d="M662.5 28C663.328 28 664 27.3284 664 26.5C664 25.6716 663.328 25 662.5 25C661.672 25 661 25.6716 661 26.5C661 27.3284 661.672 28 662.5 28Z" fill="white"/>
<path id="Oval_22" fill-rule="evenodd" clip-rule="evenodd" d="M669.5 28C670.328 28 671 27.3284 671 26.5C671 25.6716 670.328 25 669.5 25C668.672 25 668 25.6716 668 26.5C668 27.3284 668.672 28 669.5 28Z" fill="white"/>
<path id="Oval_23" fill-rule="evenodd" clip-rule="evenodd" d="M627.5 33C628.328 33 629 32.3284 629 31.5C629 30.6716 628.328 30 627.5 30C626.672 30 626 30.6716 626 31.5C626 32.3284 626.672 33 627.5 33Z" fill="white"/>
<path id="Oval_24" fill-rule="evenodd" clip-rule="evenodd" d="M634.5 33C635.328 33 636 32.3284 636 31.5C636 30.6716 635.328 30 634.5 30C633.672 30 633 30.6716 633 31.5C633 32.3284 633.672 33 634.5 33Z" fill="white"/>
<path id="Oval_25" fill-rule="evenodd" clip-rule="evenodd" d="M641.5 33C642.328 33 643 32.3284 643 31.5C643 30.6716 642.328 30 641.5 30C640.672 30 640 30.6716 640 31.5C640 32.3284 640.672 33 641.5 33Z" fill="white"/>
<path id="Oval_26" fill-rule="evenodd" clip-rule="evenodd" d="M648.5 33C649.328 33 650 32.3284 650 31.5C650 30.6716 649.328 30 648.5 30C647.672 30 647 30.6716 647 31.5C647 32.3284 647.672 33 648.5 33Z" fill="white"/>
<path id="Oval_27" fill-rule="evenodd" clip-rule="evenodd" d="M655.5 33C656.328 33 657 32.3284 657 31.5C657 30.6716 656.328 30 655.5 30C654.672 30 654 30.6716 654 31.5C654 32.3284 654.672 33 655.5 33Z" fill="white"/>
<path id="Oval_28" fill-rule="evenodd" clip-rule="evenodd" d="M662.5 33C663.328 33 664 32.3284 664 31.5C664 30.6716 663.328 30 662.5 30C661.672 30 661 30.6716 661 31.5C661 32.3284 661.672 33 662.5 33Z" fill="white"/>
</g>
</g>
</g>
<g id="Group 209">
<path id="Vector" d="M74.121 3.48467V3.48473H74.1318L75.7065 3.48479L75.7173 3.48467L87.5957 3.35669H87.6011H92.1855C93.5194 3.35669 94.8348 3.82033 95.9997 4.60655C99.335 6.85759 102.767 8.23572 108.466 9.17928C109.28 9.31405 109.907 9.92832 110.039 10.6948C111.192 17.4008 111.764 22.8571 112.273 30.7267C112.382 32.4177 112.193 34.2229 111.611 35.7096C111.032 37.1865 110.105 38.2681 108.763 38.733C106.165 39.6334 104.185 40.2884 102.698 40.7617C100.02 41.6146 97.3258 42.4014 94.6087 43.0842C90.3235 44.161 83.1733 45.6067 75.7065 45.6067H74.1318C66.6649 45.6067 59.5148 44.161 55.2296 43.0842C52.5125 42.4014 49.8184 41.6146 47.14 40.7617C45.6533 40.2884 43.6732 39.6334 41.0749 38.733C39.7333 38.2681 38.8058 37.1865 38.2276 35.7096C37.6455 34.2229 37.4562 32.4177 37.5656 30.7267C38.0746 22.8571 38.6465 17.4008 39.7992 10.6948C39.931 9.92833 40.5582 9.31405 41.3722 9.17928C47.0711 8.23572 50.5032 6.85759 53.8386 4.60655C55.0035 3.82033 56.3189 3.35669 57.6528 3.35669H62.2371H62.2425L74.121 3.48467Z" stroke="white" stroke-width="2"/>
<g id="Group 207">
<path id="Vector 7" d="M54.9189 4.04419L43.6654 4.99873C42.1124 5.13046 40.9189 6.42943 40.9189 7.988V8.79419" stroke="white" stroke-width="2"/>
<path id="Vector 8" d="M94.9189 4.04419L106.172 4.99873C107.725 5.13046 108.919 6.42943 108.919 7.988V8.79419" stroke="white" stroke-width="2"/>
</g>
<g id="Group 206">
<rect id="Rectangle 203" x="44.6265" y="16.5513" width="3.30851" height="9.584" rx="0.629893" fill="white"/>
<rect id="Rectangle 204" x="41.4888" y="22.9187" width="3.15104" height="9.58383" rx="0.629893" transform="rotate(-90 41.4888 22.9187)" fill="white"/>
</g>
<circle id="Ellipse 103" cx="51.3972" cy="32.06" r="1.16137" fill="white"/>
<circle id="Ellipse 104" cx="51.3972" cy="36.4695" r="1.16137" fill="white"/>
<circle id="Ellipse 105" cx="99.8785" cy="22.5921" r="2.51957" fill="white"/>
<circle id="Ellipse 106" cx="105.808" cy="20.1512" r="2.51957" fill="white"/>
<g id="Vector_2">
<path d="M97.2407 31.1744C97.2407 31.0004 97.3817 30.8594 97.5557 30.8594L105.626 28.8123C105.8 28.8123 105.941 28.9533 105.941 29.1272C105.941 29.3011 105.8 29.4421 105.626 29.4421L97.5557 31.4893C97.3817 31.4893 97.2407 31.3483 97.2407 31.1744Z" fill="white"/>
<path d="M97.2407 32.7491C97.2407 32.5751 97.3817 32.4341 97.5557 32.4341L105.626 30.387C105.8 30.387 105.941 30.528 105.941 30.7019C105.941 30.8759 105.8 31.0169 105.626 31.0169L97.5557 33.064C97.3817 33.064 97.2407 32.923 97.2407 32.7491Z" fill="white"/>
<path d="M97.2407 34.4026C97.2407 34.2286 97.3817 34.0876 97.5557 34.0876L105.626 32.0405C105.8 32.0405 105.941 32.1815 105.941 32.3554C105.941 32.5293 105.8 32.6704 105.626 32.6704L97.5557 34.7175C97.3817 34.7175 97.2407 34.5765 97.2407 34.4026Z" fill="white"/>
<path d="M97.2407 36.0167C97.2407 35.8427 97.3817 35.7017 97.5557 35.7017L105.626 33.6546C105.8 33.6546 105.941 33.7956 105.941 33.9695C105.941 34.1434 105.8 34.2845 105.626 34.2845L97.5557 36.3316C97.3817 36.3316 97.2407 36.1906 97.2407 36.0167Z" fill="white"/>
<path d="M97.2407 37.552C97.2407 37.3781 97.3817 37.2371 97.5557 37.2371L105.626 35.1899C105.8 35.1899 105.941 35.3309 105.941 35.5049C105.941 35.6788 105.8 35.8198 105.626 35.8198L97.5557 37.867C97.3817 37.867 97.2407 37.726 97.2407 37.552Z" fill="white"/>
</g>
<path id="Vector_3" d="M59.7406 8.77708C60.8667 8.58628 64.7644 8.09277 74.9044 8.09277C85.0371 8.09277 88.9302 8.58557 90.057 8.77664C90.2281 8.80566 90.4123 8.83158 90.5875 8.85623C90.6964 8.87154 90.8018 8.88637 90.8984 8.90115C92.4978 9.14578 93.7491 10.44 93.8975 12.0821C94.2218 15.6707 94.7058 21.4441 94.9726 26.6363C95.106 29.2333 95.1848 31.6775 95.1627 33.6274C95.1517 34.6028 95.1155 35.4469 95.0497 36.1207C94.9823 36.8105 94.888 37.271 94.7846 37.5129C94.4892 38.2035 93.8868 38.7775 93.0561 39.2533C92.227 39.7281 91.2097 40.0823 90.1521 40.3497C88.538 40.7577 86.9097 40.9474 85.7845 41.0785C85.4262 41.1202 85.1189 41.156 84.8794 41.191C83.0157 41.4634 78.06 41.8944 74.8948 41.8944C73.3992 41.8944 71.0699 41.7357 69.0243 41.5674C68.8463 41.5528 68.6685 41.5382 68.4908 41.5237C65.9038 41.3122 63.3436 41.1029 60.8313 40.6129C59.5817 40.3692 58.2939 40.0214 57.2262 39.5069C56.1517 38.989 55.3659 38.3343 55.0146 37.5129C54.9112 37.271 54.8169 36.8105 54.7495 36.1207C54.6837 35.4469 54.6475 34.6028 54.6365 33.6274C54.6144 31.6775 54.6932 29.2333 54.8266 26.6363C55.0934 21.4441 55.5774 15.6707 55.9017 12.0821C56.0502 10.4395 57.3022 9.14501 58.9023 8.90093C58.9982 8.8863 59.1026 8.87164 59.2105 8.85649C59.3855 8.83192 59.5695 8.80608 59.7406 8.77708Z" stroke="white"/>
<circle id="Ellipse 107" cx="99.8391" cy="10.7422" r="0.787367" fill="white"/>
<rect id="Rectangle 228" x="58.8335" y="12.7263" width="32.0536" height="19.9282" stroke="white" stroke-width="2"/>
</g>
</g>
</svg>
