<?xml version="1.0" encoding="UTF-8"?>
<svg width="483px" height="136px" viewBox="0 0 483 136" version="1.1" xmlns="http://www.w3.org/2000/svg" xmlns:xlink="http://www.w3.org/1999/xlink">
    <title>mainlogo</title>
    <g id="Page-1" stroke="none" stroke-width="1" fill="none" fill-rule="evenodd">
        <g id="mainlogo" fill-rule="nonzero">
            <g id="Gameboy_advance_logo" transform="translate(0.000000, 79.000000)">
                <path d="M169.320007,1.08000004 C175.440007,1.08000004 179.160007,3.72000015 182.760007,8.04000032 C184.080007,6.84000027 185.400007,5.76000023 186.960007,4.80000019 C190.680008,2.4000001 194.880008,1.20000005 199.080008,1.20000005 L255.48001,1.20000005 L251.76001,7.08000028 L322.560013,6.96000028 L329.040013,18.1200007 L334.800013,7.08000028 L381.840015,7.08000028 L393.480016,16.2000006 L393.480016,7.08000028 L482.040019,7.08000028 L482.040019,49.440002 L400.320016,49.440002 L388.440015,40.2000016 L388.440015,49.440002 L322.200013,49.440002 L322.200013,49.440002 L317.760013,42.1200017 C314.160012,46.2000018 307.680012,49.440002 297.000012,49.440002 L238.200009,49.440002 C236.280009,51.360002 234.240009,51.6000021 231.840009,51.480002 L231.240009,55.3200022 L208.560008,55.3200022 L209.040008,52.0800021 C208.800008,52.2000021 208.560008,52.4400021 208.320008,52.5600021 C203.040008,55.8000022 197.040008,56.8800023 191.400008,55.5600022 C187.080007,54.6000022 183.240007,52.2000021 180.360007,49.080002 C176.520007,52.8000021 171.360007,55.3200022 166.440007,55.3200022 L54.9600022,55.4400022 L53.1600021,45.2400018 L48.6000019,55.4400022 L30.0000012,55.4400022 C24.120001,56.4000022 18.2400007,55.5600022 12.9600005,52.9200021 C5.76000023,49.080002 0.960000038,42.3600017 0.24000001,34.8000014 C-1.08000004,22.2000009 3.84000015,12.1200005 14.1600006,5.76000023 C24.120001,-0.360000014 34.6800014,-1.68000007 45.6000018,2.16000009 L47.6400019,2.88000011 L48.3600019,1.20000005 L69.2400028,1.20000005 L70.8000028,10.5600004 L73.9200029,1.08000004 L169.320007,1.08000004" id="Path" fill="#1F00CC"></path>
                <path d="M295.680012,35.5200014 L288.240011,35.5200014 L288.240011,20.4000008 L298.800012,20.4000008 C304.440012,20.4000008 307.200012,22.6800009 307.200012,27.6000011 C307.200012,33.6000013 304.200012,35.5200014 295.680012,35.5200014 M347.640014,14.0400006 L339.000013,14.0400006 L338.760013,14.5200006 L329.040013,32.4000013 L318.600013,14.5200006 L318.360013,14.1600006 L309.120012,14.1600006 L309.840012,15.3600006 L311.640012,18.2400007 C308.760012,15.4800006 304.440012,14.0400006 298.800012,14.0400006 L280.200011,14.0400006 L280.200011,37.3200015 L266.40001,14.5200006 L266.160011,14.1600006 L259.08001,14.1600006 L258.84001,14.5200006 L243.12001,40.9200016 L242.40001,42.1200017 L248.52001,42.1200017 L248.52001,42.1200017 L262.20001,42.1200017 L262.20001,35.8800014 L254.16001,35.8800014 L262.20001,21.3600008 L273.600011,41.6400017 L273.840011,42.0000017 L282.960011,42.0000017 L282.960011,42.0000017 L297.000012,42.0000017 C309.120012,42.0000017 315.360013,37.2000015 315.360013,27.8400011 C315.360013,26.160001 315.120013,24.720001 314.760013,23.4000009 L325.800013,41.6400017 L326.040013,42.0000017 L331.440013,42.0000017 L331.680013,41.6400017 L346.920014,15.2400006 L347.640014,14.0400006" id="Shape" fill="#FFFFFF"></path>
                <polyline id="Path" fill="#FFFFFF" points="401.280016 14.0400006 400.440016 14.0400006 400.440016 30.7200012 379.440015 14.2800006 379.200015 14.0400006 373.680015 14.0400006 373.680015 37.3200015 359.880014 14.5200006 359.640014 14.0400006 352.560014 14.0400006 352.320014 14.5200006 336.600013 40.8000016 335.880013 42.1200017 344.280014 42.1200017 344.280014 42.1200017 355.800014 42.1200017 355.800014 35.8800014 347.760014 35.8800014 355.800014 21.3600008 367.200015 41.6400017 367.440015 42.1200017 376.560015 42.1200017 376.560015 42.1200017 381.120015 42.1200017 381.120015 25.200001 402.120016 41.8800017 402.360016 42.1200017 407.880016 42.1200017 407.880016 14.0400006 401.280016 14.0400006"></polyline>
                <path d="M434.520017,14.0400006 L418.080017,14.0400006 C412.320016,14.0400006 410.400016,15.8400006 410.400016,21.1200008 L410.400016,35.0400006 C410.400016,40.3200016 412.320016,42.1200017 418.080017,42.1200017 L434.520017,42.1200017 C440.280017,42.1200017 442.200018,40.3200016 442.200018,35.0400006 L442.200018,31.0800012 L441.360018,31.0800012 L434.880017,31.0800012 L434.040017,31.0800012 L434.040017,35.4000014 L418.320017,35.4000014 L418.320017,20.6400008 L434.040017,20.6400008 L434.040017,24.480001 L434.880017,24.480001 L442.200018,24.480001 L442.200018,21.1200008 C442.200018,15.7200006 440.280017,14.0400006 434.520017,14.0400006" id="Path" fill="#FFFFFF"></path>
                <polyline id="Path" fill="#FFFFFF" points="474.240019 35.5200014 452.880018 35.5200014 452.880018 30.6000012 465.720019 30.6000012 465.720019 24.480001 452.880018 24.480001 452.880018 20.4000008 474.720019 20.4000008 474.720019 14.0400006 444.840018 14.0400006 444.840018 42.1200017 475.080019 42.1200017 475.080019 35.5200014 474.240019 35.5200014"></polyline>
                <path d="M52.5600021,28.3200011 L56.0400022,20.5200008 L57.6000023,28.3200011 L52.5600021,28.3200011 M100.440004,8.04000032 L91.0800036,30.0000012 L87.1200035,8.04000032 L78.9600031,8.04000032 L68.4000027,40.4400016 L63.0000025,8.04000032 L52.9200021,8.04000032 L37.5600015,42.8400017 L39.8400016,28.3200011 L24.600001,28.3200011 L23.4000009,35.7600014 L29.7600012,35.7600014 L29.0400012,39.7200016 C25.440001,41.2800016 19.2000008,40.8000016 16.5600007,36.0000014 C14.8800006,33.0000013 13.3200005,26.280001 20.4000008,20.1600008 C26.160001,15.1200006 36.1200014,14.2800006 41.8800017,16.9200007 C41.8800017,16.9200007 42.6000017,12.7200005 43.2000017,8.76000035 C32.1600013,4.9200002 23.5200009,8.16000032 17.7600007,11.6400005 C9.9600004,16.4400007 6.24000025,23.8800009 7.20000029,33.9600013 C8.40000033,45.6000018 23.4000009,52.9200021 36.2400014,45.6000018 C36.3600014,45.4800018 36.4800014,45.4800018 36.4800014,45.4800018 L35.2800014,48.2400019 L43.9200017,48.2400019 L49.320002,36.2400014 L58.8000023,36.2400014 L60.8400024,48.2400019 L74.760003,48.2400019 L81.8400033,25.920001 L86.4000034,48.2400019 L91.9200037,48.2400019 L102.600004,23.5200009 L103.680004,48.2400019 L111.840004,48.2400019 L110.280004,8.04000032 L100.440004,8.04000032" id="Shape" fill="#FFFFFF"></path>
                <polyline id="Path" fill="#FFFFFF" points="112.680004 48.1200019 135.600005 48.1200019 136.920005 39.4800016 122.520005 39.4800016 123.720005 32.4000013 136.200005 32.4000013 137.520005 23.7600009 124.920005 23.7600009 126.000005 16.6800007 140.400006 16.6800007 141.720006 8.04000032 119.040005 8.04000032 112.680004 48.1200019"></polyline>
                <polyline id="Path" fill="#FFFFFF" points="224.520009 21.1200008 219.480009 8.04000032 210.000008 8.04000032 219.720009 29.1600012 216.720009 48.1200019 225.000009 48.1200019 227.520009 31.3200012 242.28001 8.04000032 232.680009 8.04000032 224.520009 21.1200008"></polyline>
                <path d="M205.320008,31.9200013 C203.160008,38.5200015 197.760008,42.3600017 193.440008,40.4400016 C189.120008,38.5200015 187.440007,31.5600013 189.600008,24.840001 C191.760008,18.2400007 197.160008,14.4000006 201.480008,16.3200006 C205.920008,18.3600007 207.600008,25.320001 205.320008,31.9200013 M202.200008,8.40000033 C193.080008,6.36000025 183.600007,13.5600005 181.080007,24.600001 C178.560007,35.6400014 183.840007,46.3200018 192.960008,48.4800019 C202.080008,50.640002 211.560008,43.3200017 214.080009,32.2800013 C216.600009,21.2400008 211.200008,10.5600004 202.200008,8.40000033" id="Shape" fill="#FFFFFF"></path>
                <path d="M165.720007,24.120001 C161.160006,24.120001 159.960006,24.120001 159.960006,24.120001 L161.280006,16.6800007 C161.280006,16.6800007 161.400006,16.6800007 166.560007,16.6800007 C172.440007,16.6800007 171.360007,24.120001 165.720007,24.120001 M164.760007,40.3200016 C160.200006,40.3200016 157.560006,40.3200016 157.560006,40.3200016 L158.880006,32.4000013 C158.880006,32.4000013 160.560006,32.4000013 165.720007,32.4000013 C172.200007,32.2800013 172.080007,40.3200016 164.760007,40.3200016 M169.560007,8.28000033 C165.120007,8.16000032 154.200006,8.28000033 154.200006,8.28000033 L154.320006,8.28000033 L147.960006,48.0000019 C147.960006,48.0000019 161.040006,48.0000019 166.440007,48.0000019 C174.000007,48.0000019 185.160007,36.8400015 175.080007,27.6000011 C185.400007,16.8000007 175.080007,8.40000033 169.560007,8.28000033" id="Shape" fill="#FFFFFF"></path>
                <path d="M231.960009,44.2800018 L231.960009,42.7200017 L233.280009,42.7200017 C233.880009,42.7200017 234.360009,42.8400017 234.360009,43.4400017 C234.360009,44.4000018 233.400009,44.2800018 232.800009,44.2800018 L231.960009,44.2800018 M233.520009,44.7600018 C234.360009,44.7600018 234.960009,44.4000018 234.960009,43.4400017 C234.960009,43.0800017 234.720009,42.6000017 234.480009,42.4800017 C234.120009,42.2400017 233.760009,42.2400017 233.400009,42.2400017 L231.360009,42.2400017 L231.360009,46.9200019 L231.960009,46.9200019 L231.960009,44.8800018 L232.920009,44.8800018 L234.240009,46.9200019 L234.960009,46.9200019 L233.520009,44.7600018 M233.040009,48.7200019 C235.320009,48.7200019 237.240009,46.9200019 237.240009,44.5200018 C237.240009,42.2400017 235.440009,40.4400016 233.040009,40.4400016 C230.760009,40.4400016 228.840009,42.2400017 228.840009,44.5200018 C228.840009,46.9200019 230.640009,48.7200019 233.040009,48.7200019 M233.040009,48.0000019 C231.120009,48.0000019 229.560009,46.5600019 229.560009,44.5200018 C229.560009,42.6000017 231.120009,41.0400016 233.040009,41.0400016 C234.960009,41.0400016 236.520009,42.6000017 236.520009,44.5200018 C236.400009,46.5600019 234.960009,48.0000019 233.040009,48.0000019" id="Shape" fill="#FFFFFF"></path>
            </g>
            <path d="M32.0226973,60.3162684 C12.8266355,60.309765 -5.68434189e-14,46.7060536 -5.68434189e-14,30.2118771 L-5.68434189e-14,30.2118771 C-5.68434189e-14,13.7177054 12.855898,-0.042073554 31.9934319,9.66960799e-05 L212.840867,9.66960799e-05 C231.978403,-0.0420783359 244.834299,13.7177054 244.834299,30.2118771 L244.834299,30.2118771 C244.834299,46.7060536 232.007663,60.309765 212.811607,60.3162684 L32.0226973,60.3162684 Z M32.0812184,7.41981146 C16.8843396,7.44907681 7.55617252,17.6063341 7.55617252,30.1728614 L7.55617252,30.1728614 C7.55617252,42.736137 16.8258146,52.9779386 32.0812184,52.9228871 L212.753081,52.9228871 C228.008486,52.9746869 237.28138,42.736137 237.28138,30.1728614 L237.28138,30.1728614 C237.28138,17.6095858 227.953212,7.45232373 212.756332,7.42305838 L32.0812184,7.41981146 Z M222.47141,18.0257611 C223.853242,18.0257611 224.53928,18.4939589 224.53928,19.4205994 C224.53928,20.0578667 224.14261,20.5390666 223.482586,20.7048892 L224.565289,22.8670439 L223.25499,22.8670439 L222.32835,20.8837139 L221.75286,20.8837139 L221.75286,22.8670439 L220.572615,22.8670439 L220.572615,18.0257611 L222.47141,18.0257611 Z M222.364114,16.1334692 C219.951601,16.1334692 217.99428,18.0907904 217.99428,20.5033026 C217.99428,22.9158147 219.951601,24.8731359 222.364114,24.8731359 C224.77663,24.8731359 226.733952,22.9158147 226.733952,20.5033026 C226.733952,18.0907904 224.77663,16.1334692 222.364114,16.1334692 Z M225.898349,20.5065543 C225.898349,22.457372 224.314936,24.0407901 222.364114,24.0407901 C220.413296,24.0407901 218.829882,22.457372 218.829882,20.5065543 C218.829882,18.5557365 220.413296,16.9723184 222.364114,16.9723184 C224.314936,16.9723184 225.898349,18.5524848 225.898349,20.5065543 Z M221.75286,20.1749138 L222.32835,20.1749138 C223.001381,20.1749138 223.326518,19.9700802 223.326518,19.4888756 C223.326518,18.9849138 222.978624,18.7670735 222.269824,18.7670735 L221.75286,18.7670735 L221.75286,20.1749138 Z M122.989392,32.0066321 C122.976386,30.3516861 123.012154,29.2462257 123.555127,28.3033267 C124.22166,27.1393404 125.447424,26.5866078 126.559387,26.5801044 L126.55604,26.5801044 C127.668009,26.5866078 128.893773,27.1393404 129.560305,28.3033267 C130.103283,29.2494726 130.12604,30.3549378 130.113038,32.0098838 L122.989392,32.0066321 Z M130.083868,37.699771 C130.083868,37.699771 130.090371,37.7843105 130.090371,38.8442518 C130.090371,42.2972046 127.817668,43.0645258 126.556136,43.0645258 C125.294608,43.0645258 122.982889,42.2972046 122.982889,38.8442518 C122.982889,37.8103194 122.989392,34.945868 122.989392,34.945868 C122.989392,34.945868 139.073892,34.9523714 139.073892,34.9425206 C139.073892,29.0868108 133.419769,24.2357729 126.474853,24.2357729 C119.529936,24.2357729 113.901827,28.9827658 113.901827,34.8384756 C113.901827,40.6941854 119.529936,45.4379266 126.474853,45.4379266 C132.236272,45.4379266 137.103564,42.1507965 138.589441,37.6931767 L130.083868,37.699771 Z M156.9499,24.5512505 C160.14274,24.4602123 166.619459,26.5508439 166.574178,34.0257309 C166.567436,35.3522881 166.570592,44.3000448 166.570592,44.3000448 L158.087782,44.3000448 C158.087782,44.3000448 158.087782,33.079585 158.087782,31.8993354 C158.087782,30.2541445 156.514119,28.4236303 154.186142,28.4236303 C151.861416,28.4236303 150.13169,30.2541445 150.13169,31.8993354 C150.13169,32.7056771 150.141445,44.3000448 150.141445,44.3000448 L141.665138,44.3000448 L141.671642,25.4193651 L150.144702,25.4128617 C150.144702,25.4128617 150.134947,26.9312456 150.144702,27.3994434 C151.776886,25.842039 154.130877,24.6325336 156.949809,24.5512457 L156.9499,24.5512505 Z M87.5592619,24.5512505 C90.7521021,24.4602123 97.2288255,26.5508439 97.1835451,34.0257309 C97.176803,35.3522881 97.179959,44.3000448 97.179959,44.3000448 L88.6971437,44.3000448 C88.6971437,44.3000448 88.6971437,33.079585 88.6971437,31.8993354 C88.6971437,30.2541445 87.1234855,28.4236303 84.7955081,28.4236303 C82.4707825,28.4236303 80.7410568,30.2541445 80.7410568,31.8993354 C80.7410568,32.7056771 80.7508119,44.3000448 80.7508119,44.3000448 L72.2745047,44.3000448 L72.2711574,25.4193651 L80.753968,25.4128617 C80.753968,25.4128617 80.7442128,26.9312456 80.753968,27.3994434 C82.3861568,25.842039 84.7368913,24.6325336 87.5590754,24.5512457 L87.5592619,24.5512505 Z M184.976667,15.9123772 L193.404208,15.9123772 L193.404208,44.3065482 L184.96366,44.3065482 C184.96366,44.3065482 184.960313,43.3896629 184.960313,43.2140899 C181.692693,45.265701 178.005646,45.2624493 175.134691,43.9228852 C174.364113,43.5652359 169.295235,41.1332135 169.295235,34.562205 C169.295235,29.5778614 173.996714,24.1350752 180.151547,24.6748058 C182.177144,24.8536304 183.617502,25.5916911 184.983074,26.3590124 C184.976571,21.9891743 184.976571,15.9123772 184.976571,15.9123772 L184.976667,15.9123772 Z M185.038444,34.770295 C185.038444,34.770295 185.038444,32.4032972 185.038444,31.3953736 C185.038444,28.475648 183.022597,27.7310887 181.69604,27.7310887 C180.33697,27.7310887 178.347132,28.475648 178.347132,31.3953736 C178.347132,32.3642815 178.35048,34.7605399 178.35048,34.7605399 C178.35048,34.7605399 178.347132,37.1145261 178.347132,38.119198 C178.347132,41.0356719 180.33697,41.7997462 181.692788,41.7997462 C183.022597,41.7997462 185.041696,41.0356719 185.041696,38.119198 C185.041696,36.9064409 185.038349,34.770295 185.038349,34.770295 L185.038444,34.770295 Z M212.093051,34.7150208 C212.093051,34.7150208 212.089704,37.5697171 212.089704,38.7141979 C212.089704,41.7249617 210.311207,42.9669842 208.600992,42.9669842 C206.88752,42.9669842 205.10252,41.7249617 205.10252,38.7141979 C205.10252,37.5697171 205.105868,34.643488 205.105868,34.643488 C205.105868,34.643488 205.112371,31.8505694 205.112371,30.7060885 C205.112371,27.7083267 206.900623,26.4760594 208.601088,26.4760594 C210.3048,26.4760594 212.0898,27.7083267 212.0898,30.7060885 C212.0898,31.8505694 212.086452,33.967205 212.096303,34.7247759 L212.093051,34.7150208 Z M208.662861,24.1350752 C201.769967,24.1350752 196.184124,28.8820729 196.184124,34.7377779 C196.184124,40.5934877 201.773218,45.3404807 208.662861,45.3404807 C215.555754,45.3404807 221.141601,40.5934877 221.141601,34.7377779 C221.141601,28.8820729 215.555754,24.1350752 208.662861,24.1350752 Z M59.0122798,21.709561 L59.0122798,15.9058738 L67.56987,15.9058738 L67.56987,21.709561 L59.0122798,21.709561 Z M59.03179,44.3066439 L59.03179,25.4226168 L67.5698748,25.4259641 L67.5698748,44.3066439 L59.03179,44.3066439 Z M101.868526,44.3065482 L101.871874,25.4616325 L97.2289259,25.4616325 L97.2289259,22.6589587 L101.875126,22.6556113 L101.868622,18.8320072 L110.41321,18.8320072 L110.41321,22.6523596 L115.036653,22.6523596 L115.036653,25.4615368 L110.41321,25.4615368 L110.419714,44.3065482 L101.868526,44.3065482 Z M24.2844512,44.3065482 L24.287703,15.9123772 L33.1346658,15.9123772 L45.3728044,35.7131892 L45.3663009,15.9123772 L54.1449881,15.9123772 L54.1449881,44.3065482 L45.379303,44.3065482 L33.0761399,24.5057314 L33.0761399,44.3065482 L24.2844512,44.3065482 Z" id="path29" fill="#E60012"></path>
        </g>
    </g>
</svg>