<svg width="120" height="81" viewBox="0 0 120 81" fill="none" xmlns="http://www.w3.org/2000/svg">
<path fill-rule="evenodd" clip-rule="evenodd" d="M59.2126 0.628038L47.3233 0.5H42.7336C41.1661 0.5 39.6592 1.04408 38.36 1.92097C35.1661 4.07653 31.8759 5.4111 26.2896 6.33603C25.0792 6.53644 24.1023 7.45947 23.8945 8.66867C22.7342 15.4189 22.159 20.9118 21.6485 28.8055C21.4164 32.3939 22.4306 36.6438 25.8282 37.8212C28.4332 38.7239 30.4214 39.3816 31.9174 39.8579C34.6108 40.7155 37.3252 41.5085 40.0667 42.1973C44.3909 43.2839 51.6302 44.75 59.2126 44.75H60.7873C68.3697 44.75 75.609 43.2839 79.9332 42.1973C82.6746 41.5085 85.3891 40.7155 88.0825 39.8579C89.5785 39.3816 91.5667 38.7239 94.1716 37.8212C97.5693 36.6438 98.5835 32.3939 98.3514 28.8055C97.8409 20.9118 97.2657 15.4189 96.1054 8.66867C95.8976 7.45947 94.9207 6.53644 93.7103 6.33603C88.124 5.4111 84.8338 4.07653 81.6399 1.92097C80.3407 1.04408 78.8338 0.5 77.2663 0.5H72.6765L60.7873 0.628038H59.2126ZM72.6873 2.5L60.7981 2.62804H59.2018L47.3126 2.5H42.7336C41.6333 2.5 40.5094 2.88321 39.4788 3.57874C36.002 5.92526 32.4278 7.34695 26.6163 8.30916C26.1988 8.37829 25.9212 8.68381 25.8656 9.00748C24.7205 15.6694 24.1518 21.089 23.6443 28.9346C23.5416 30.5223 23.7246 32.1732 24.2396 33.4883C24.7469 34.784 25.4987 35.5903 26.4831 35.9314C29.0749 36.8296 31.0468 37.4818 32.5242 37.9522C35.1876 38.8002 37.8613 39.581 40.5541 40.2577C44.8003 41.3246 51.8613 42.75 59.2126 42.75H60.7873C68.1386 42.75 75.1996 41.3246 79.4458 40.2577C82.1386 39.581 84.8123 38.8002 87.4757 37.9522C88.953 37.4818 90.925 36.8296 93.5168 35.9314C94.5012 35.5903 95.253 34.784 95.7603 33.4883C96.2753 32.1732 96.4583 30.5223 96.3556 28.9346C95.8481 21.089 95.2794 15.6694 94.1343 9.00748C94.0787 8.68381 93.801 8.37829 93.3836 8.30916C87.5721 7.34695 83.9979 5.92527 80.5211 3.57874C79.4905 2.88321 78.3665 2.5 77.2663 2.5H72.6873Z" fill="white"/>
<path fill-rule="evenodd" clip-rule="evenodd" d="M28.6617 2.1457L39.9152 1.19116L40.0843 3.18401L28.8307 4.13855C27.7954 4.22637 26.9998 5.09235 26.9998 6.13139V6.93758H24.9998V6.13139C24.9998 4.05331 26.591 2.32134 28.6617 2.1457Z" fill="white"/>
<path fill-rule="evenodd" clip-rule="evenodd" d="M91.3378 2.1457L80.0843 1.19116L79.9152 3.18401L91.1688 4.13855C92.2041 4.22637 92.9998 5.09235 92.9998 6.13139V6.93758H94.9998V6.13139C94.9998 4.05331 93.4085 2.32134 91.3378 2.1457Z" fill="white"/>
<path d="M29.7075 15.3242C29.7075 14.9763 29.9895 14.6943 30.3374 14.6943H32.3861C32.734 14.6943 33.016 14.9763 33.016 15.3242V23.6484C33.016 23.9963 32.734 24.2783 32.3861 24.2783H30.3374C29.9895 24.2783 29.7075 23.9963 29.7075 23.6484V15.3242Z" fill="white"/>
<path d="M27.1995 21.0618C26.8516 21.0618 26.5696 20.7798 26.5696 20.4319L26.5696 18.5406C26.5696 18.1927 26.8516 17.9107 27.1995 17.9107L35.5235 17.9107C35.8714 17.9107 36.1534 18.1927 36.1534 18.5406L36.1534 20.4319C36.1534 20.7798 35.8714 21.0618 35.5235 21.0618L27.1995 21.0618Z" fill="white"/>
<path d="M37.6394 30.2034C37.6394 30.8448 37.1194 31.3647 36.478 31.3647C35.8366 31.3647 35.3167 30.8448 35.3167 30.2034C35.3167 29.562 35.8366 29.042 36.478 29.042C37.1194 29.042 37.6394 29.562 37.6394 30.2034Z" fill="white"/>
<path d="M37.6394 34.6125C37.6394 35.2539 37.1194 35.7739 36.478 35.7739C35.8366 35.7739 35.3167 35.2539 35.3167 34.6125C35.3167 33.9711 35.8366 33.4512 36.478 33.4512C37.1194 33.4512 37.6394 33.9711 37.6394 34.6125Z" fill="white"/>
<path d="M87.4788 20.7354C87.4788 22.1269 86.3508 23.255 84.9593 23.255C83.5677 23.255 82.4397 22.1269 82.4397 20.7354C82.4397 19.3439 83.5677 18.2158 84.9593 18.2158C86.3508 18.2158 87.4788 19.3439 87.4788 20.7354Z" fill="white"/>
<path d="M93.408 18.2945C93.408 19.686 92.28 20.814 90.8885 20.814C89.4969 20.814 88.3689 19.686 88.3689 18.2945C88.3689 16.903 89.4969 15.7749 90.8885 15.7749C92.28 15.7749 93.408 16.903 93.408 18.2945Z" fill="white"/>
<path d="M82.3215 29.3177C82.3215 29.1437 82.4625 29.0027 82.6365 29.0027L90.707 26.9556C90.8809 26.9556 91.0219 27.0966 91.0219 27.2705C91.0219 27.4445 90.8809 27.5855 90.707 27.5855L82.6365 29.6326C82.4625 29.6326 82.3215 29.4916 82.3215 29.3177Z" fill="white"/>
<path d="M82.3215 30.8924C82.3215 30.7185 82.4625 30.5775 82.6365 30.5775L90.707 28.5303C90.8809 28.5303 91.0219 28.6713 91.0219 28.8452C91.0219 29.0192 90.8809 29.1602 90.707 29.1602L82.6365 31.2073C82.4625 31.2073 82.3215 31.0663 82.3215 30.8924Z" fill="white"/>
<path d="M82.3215 32.5459C82.3215 32.3719 82.4625 32.2309 82.6365 32.2309L90.707 30.1838C90.8809 30.1838 91.0219 30.3248 91.0219 30.4987C91.0219 30.6727 90.8809 30.8137 90.707 30.8137L82.6365 32.8608C82.4625 32.8608 82.3215 32.7198 82.3215 32.5459Z" fill="white"/>
<path d="M82.3215 34.16C82.3215 33.986 82.4625 33.845 82.6365 33.845L90.707 31.7979C90.8809 31.7979 91.0219 31.9389 91.0219 32.1128C91.0219 32.2868 90.8809 32.4278 90.707 32.4278L82.6365 34.4749C82.4625 34.4749 82.3215 34.3339 82.3215 34.16Z" fill="white"/>
<path d="M82.3215 35.6953C82.3215 35.5214 82.4625 35.3804 82.6365 35.3804L90.707 33.3332C90.8809 33.3332 91.0219 33.4742 91.0219 33.6482C91.0219 33.8221 90.8809 33.9631 90.707 33.9631L82.6365 36.0103C82.4625 36.0103 82.3215 35.8693 82.3215 35.6953Z" fill="white"/>
<path fill-rule="evenodd" clip-rule="evenodd" d="M59.9852 6.73608C49.8563 6.73608 45.9907 7.22939 44.905 7.41337C44.7296 7.44308 44.5274 7.47154 44.3454 7.49717C44.2399 7.512 44.1413 7.52589 44.0585 7.53853C42.6815 7.74857 41.6079 8.86133 41.4805 10.2704C41.1563 13.857 40.6731 19.6228 40.4068 24.8053C40.2735 27.3982 40.1954 29.8305 40.2173 31.765C40.2282 32.7333 40.2641 33.5615 40.328 34.2154C40.3949 34.9011 40.4845 35.2943 40.5552 35.4596L39.6357 35.8529C38.5459 33.3046 39.8355 17.3616 40.4846 10.1804C40.6541 8.30425 42.0845 6.82806 43.9077 6.54996C44.0172 6.53325 44.1266 6.51793 44.236 6.50262C44.4034 6.47917 44.5707 6.45575 44.7379 6.42742C45.9043 6.22979 49.834 5.73608 59.9852 5.73608C70.1291 5.73608 74.0543 6.22907 75.2214 6.42699C75.3887 6.45536 75.5561 6.47885 75.7237 6.50236C75.834 6.51783 75.9443 6.53332 76.0548 6.55021C77.8771 6.82894 79.3067 8.30481 79.4763 10.1804C80.1253 17.3616 81.4149 33.3046 80.3251 35.8529C79.0776 38.7698 73.4896 39.4201 70.895 39.7221C70.5482 39.7624 70.2548 39.7966 70.0325 39.8291C68.147 40.1046 63.1671 40.5377 59.9756 40.5377C58.457 40.5377 56.1087 40.3772 54.0641 40.209C53.8843 40.1942 53.7044 40.1795 53.5246 40.1648C50.9437 39.9539 48.3571 39.7425 45.8164 39.247C43.2806 38.7524 40.4753 37.8159 39.6357 35.8529L40.5552 35.4596C40.838 36.1209 41.4984 36.7054 42.5241 37.1997C43.5363 37.6876 44.7765 38.0253 46.0079 38.2655C48.4917 38.7499 51.0256 38.9571 53.619 39.1692C53.7944 39.1836 53.9701 39.1979 54.1461 39.2124C56.1928 39.3808 58.5032 39.5377 59.9756 39.5377C63.1145 39.5377 68.0459 39.1088 69.8879 38.8396C70.1451 38.802 70.4663 38.7645 70.8356 38.7215C71.9605 38.5904 73.5326 38.4071 75.1104 38.0082C76.1453 37.7466 77.1142 37.4061 77.8884 36.9627C78.6659 36.5175 79.1685 36.0141 79.4056 35.4596C79.4764 35.2943 79.5659 34.9011 79.6329 34.2154C79.6967 33.5615 79.7326 32.7333 79.7436 31.765C79.7654 29.8305 79.6873 27.3982 79.5541 24.8053C79.2878 19.6228 78.8045 13.857 78.4803 10.2704C78.353 8.86174 77.28 7.74924 75.9036 7.53871C75.8203 7.52597 75.7207 7.51192 75.6143 7.49691C75.4318 7.47118 75.2293 7.44261 75.0542 7.41291C73.9678 7.22868 70.1068 6.73608 59.9852 6.73608Z" fill="white"/>
<path d="M85.7073 8.88551C85.7073 9.32036 85.3548 9.67288 84.9199 9.67288C84.4851 9.67288 84.1326 9.32036 84.1326 8.88551C84.1326 8.45066 84.4851 8.09814 84.9199 8.09814C85.3548 8.09814 85.7073 8.45066 85.7073 8.88551Z" fill="white"/>
<path fill-rule="evenodd" clip-rule="evenodd" d="M74.9679 11.8696H44.9143V29.7978H74.9679V11.8696ZM42.9143 9.86963V31.7978H76.9679V9.86963H42.9143Z" fill="white"/>
</svg>
