<?xml version="1.0" encoding="UTF-8"?>
<svg width="469px" height="121px" viewBox="0 0 469 121" version="1.1" xmlns="http://www.w3.org/2000/svg" xmlns:xlink="http://www.w3.org/1999/xlink">
    <title>syslogo</title>
    <g id="Page-1" stroke="none" stroke-width="1" fill="none" fill-rule="evenodd">
        <g id="syslogo" transform="translate(-0.000000, 0.000000)" fill="#FFFFFF" fill-rule="nonzero">
            <path d="M32.0226973,60.3162684 C12.8266355,60.309765 0,46.7060536 0,30.2118771 L0,30.2118771 C0,13.7177054 12.855898,-0.042073554 31.9934319,9.66960799e-05 L212.840867,9.66960799e-05 C231.978403,-0.0420783359 244.834299,13.7177054 244.834299,30.2118771 L244.834299,30.2118771 C244.834299,46.7060536 232.007663,60.309765 212.811607,60.3162684 L32.0226973,60.3162684 Z M32.0812184,7.41981146 C16.8843396,7.44907681 7.55617252,17.6063341 7.55617252,30.1728614 L7.55617252,30.1728614 C7.55617252,42.736137 16.8258146,52.9779386 32.0812184,52.9228871 L212.753081,52.9228871 C228.008486,52.9746869 237.28138,42.736137 237.28138,30.1728614 L237.28138,30.1728614 C237.28138,17.6095858 227.953212,7.45232373 212.756332,7.42305838 L32.0812184,7.41981146 Z M222.47141,18.0257611 C223.853242,18.0257611 224.53928,18.4939589 224.53928,19.4205994 C224.53928,20.0578667 224.14261,20.5390666 223.482586,20.7048892 L224.565289,22.8670439 L223.25499,22.8670439 L222.32835,20.8837139 L221.75286,20.8837139 L221.75286,22.8670439 L220.572615,22.8670439 L220.572615,18.0257611 L222.47141,18.0257611 Z M222.364114,16.1334692 C219.951601,16.1334692 217.99428,18.0907904 217.99428,20.5033026 C217.99428,22.9158147 219.951601,24.8731359 222.364114,24.8731359 C224.77663,24.8731359 226.733952,22.9158147 226.733952,20.5033026 C226.733952,18.0907904 224.77663,16.1334692 222.364114,16.1334692 Z M225.898349,20.5065543 C225.898349,22.457372 224.314936,24.0407901 222.364114,24.0407901 C220.413296,24.0407901 218.829882,22.457372 218.829882,20.5065543 C218.829882,18.5557365 220.413296,16.9723184 222.364114,16.9723184 C224.314936,16.9723184 225.898349,18.5524848 225.898349,20.5065543 Z M221.75286,20.1749138 L222.32835,20.1749138 C223.001381,20.1749138 223.326518,19.9700802 223.326518,19.4888756 C223.326518,18.9849138 222.978624,18.7670735 222.269824,18.7670735 L221.75286,18.7670735 L221.75286,20.1749138 Z M122.989392,32.0066321 C122.976386,30.3516861 123.012154,29.2462257 123.555127,28.3033267 C124.22166,27.1393404 125.447424,26.5866078 126.559387,26.5801044 L126.55604,26.5801044 C127.668009,26.5866078 128.893773,27.1393404 129.560305,28.3033267 C130.103283,29.2494726 130.12604,30.3549378 130.113038,32.0098838 L122.989392,32.0066321 Z M130.083868,37.699771 C130.083868,37.699771 130.090371,37.7843105 130.090371,38.8442518 C130.090371,42.2972046 127.817668,43.0645258 126.556136,43.0645258 C125.294608,43.0645258 122.982889,42.2972046 122.982889,38.8442518 C122.982889,37.8103194 122.989392,34.945868 122.989392,34.945868 C122.989392,34.945868 139.073892,34.9523714 139.073892,34.9425206 C139.073892,29.0868108 133.419769,24.2357729 126.474853,24.2357729 C119.529936,24.2357729 113.901827,28.9827658 113.901827,34.8384756 C113.901827,40.6941854 119.529936,45.4379266 126.474853,45.4379266 C132.236272,45.4379266 137.103564,42.1507965 138.589441,37.6931767 L130.083868,37.699771 Z M156.9499,24.5512505 C160.14274,24.4602123 166.619459,26.5508439 166.574178,34.0257309 C166.567436,35.3522881 166.570592,44.3000448 166.570592,44.3000448 L158.087782,44.3000448 C158.087782,44.3000448 158.087782,33.079585 158.087782,31.8993354 C158.087782,30.2541445 156.514119,28.4236303 154.186142,28.4236303 C151.861416,28.4236303 150.13169,30.2541445 150.13169,31.8993354 C150.13169,32.7056771 150.141445,44.3000448 150.141445,44.3000448 L141.665138,44.3000448 L141.671642,25.4193651 L150.144702,25.4128617 C150.144702,25.4128617 150.134947,26.9312456 150.144702,27.3994434 C151.776886,25.842039 154.130877,24.6325336 156.949809,24.5512457 L156.9499,24.5512505 Z M87.5592619,24.5512505 C90.7521021,24.4602123 97.2288255,26.5508439 97.1835451,34.0257309 C97.176803,35.3522881 97.179959,44.3000448 97.179959,44.3000448 L88.6971437,44.3000448 C88.6971437,44.3000448 88.6971437,33.079585 88.6971437,31.8993354 C88.6971437,30.2541445 87.1234855,28.4236303 84.7955081,28.4236303 C82.4707825,28.4236303 80.7410568,30.2541445 80.7410568,31.8993354 C80.7410568,32.7056771 80.7508119,44.3000448 80.7508119,44.3000448 L72.2745047,44.3000448 L72.2711574,25.4193651 L80.753968,25.4128617 C80.753968,25.4128617 80.7442128,26.9312456 80.753968,27.3994434 C82.3861568,25.842039 84.7368913,24.6325336 87.5590754,24.5512457 L87.5592619,24.5512505 Z M184.976667,15.9123772 L193.404208,15.9123772 L193.404208,44.3065482 L184.96366,44.3065482 C184.96366,44.3065482 184.960313,43.3896629 184.960313,43.2140899 C181.692693,45.265701 178.005646,45.2624493 175.134691,43.9228852 C174.364113,43.5652359 169.295235,41.1332135 169.295235,34.562205 C169.295235,29.5778614 173.996714,24.1350752 180.151547,24.6748058 C182.177144,24.8536304 183.617502,25.5916911 184.983074,26.3590124 C184.976571,21.9891743 184.976571,15.9123772 184.976571,15.9123772 L184.976667,15.9123772 Z M185.038444,34.770295 C185.038444,34.770295 185.038444,32.4032972 185.038444,31.3953736 C185.038444,28.475648 183.022597,27.7310887 181.69604,27.7310887 C180.33697,27.7310887 178.347132,28.475648 178.347132,31.3953736 C178.347132,32.3642815 178.35048,34.7605399 178.35048,34.7605399 C178.35048,34.7605399 178.347132,37.1145261 178.347132,38.119198 C178.347132,41.0356719 180.33697,41.7997462 181.692788,41.7997462 C183.022597,41.7997462 185.041696,41.0356719 185.041696,38.119198 C185.041696,36.9064409 185.038349,34.770295 185.038349,34.770295 L185.038444,34.770295 Z M212.093051,34.7150208 C212.093051,34.7150208 212.089704,37.5697171 212.089704,38.7141979 C212.089704,41.7249617 210.311207,42.9669842 208.600992,42.9669842 C206.88752,42.9669842 205.10252,41.7249617 205.10252,38.7141979 C205.10252,37.5697171 205.105868,34.643488 205.105868,34.643488 C205.105868,34.643488 205.112371,31.8505694 205.112371,30.7060885 C205.112371,27.7083267 206.900623,26.4760594 208.601088,26.4760594 C210.3048,26.4760594 212.0898,27.7083267 212.0898,30.7060885 C212.0898,31.8505694 212.086452,33.967205 212.096303,34.7247759 L212.093051,34.7150208 Z M208.662861,24.1350752 C201.769967,24.1350752 196.184124,28.8820729 196.184124,34.7377779 C196.184124,40.5934877 201.773218,45.3404807 208.662861,45.3404807 C215.555754,45.3404807 221.141601,40.5934877 221.141601,34.7377779 C221.141601,28.8820729 215.555754,24.1350752 208.662861,24.1350752 Z M59.0122798,21.709561 L59.0122798,15.9058738 L67.56987,15.9058738 L67.56987,21.709561 L59.0122798,21.709561 Z M59.03179,44.3066439 L59.03179,25.4226168 L67.5698748,25.4259641 L67.5698748,44.3066439 L59.03179,44.3066439 Z M101.868526,44.3065482 L101.871874,25.4616325 L97.2289259,25.4616325 L97.2289259,22.6589587 L101.875126,22.6556113 L101.868622,18.8320072 L110.41321,18.8320072 L110.41321,22.6523596 L115.036653,22.6523596 L115.036653,25.4615368 L110.41321,25.4615368 L110.419714,44.3065482 L101.868526,44.3065482 Z M24.2844512,44.3065482 L24.287703,15.9123772 L33.1346658,15.9123772 L45.3728044,35.7131892 L45.3663009,15.9123772 L54.1449881,15.9123772 L54.1449881,44.3065482 L45.379303,44.3065482 L33.0761399,24.5057314 L33.0761399,44.3065482 L24.2844512,44.3065482 Z" id="path29"></path>
            <g id="Gameboy_advance_logo" transform="translate(0.000000, 79.000000)">
                <path d="M288.680012,28.5200014 L281.240011,28.5200014 L281.240011,13.4000008 L291.800012,13.4000008 C297.440012,13.4000008 300.200012,15.6800009 300.200012,20.6000011 C300.200012,26.6000013 297.200012,28.5200014 288.680012,28.5200014 M340.640014,7.04000056 L332.000013,7.04000056 L331.760013,7.52000058 L322.040013,25.4000013 L311.600013,7.52000058 L311.360013,7.16000056 L302.120012,7.16000056 L302.840012,8.36000061 L304.640012,11.2400007 C301.760012,8.48000062 297.440012,7.04000056 291.800012,7.04000056 L273.200011,7.04000056 L273.200011,30.3200015 L259.40001,7.52000058 L259.160011,7.16000056 L252.08001,7.16000056 L251.84001,7.52000058 L236.12001,33.9200016 L235.40001,35.1200017 L241.52001,35.1200017 L241.52001,35.1200017 L255.20001,35.1200017 L255.20001,28.8800014 L247.16001,28.8800014 L255.20001,14.3600008 L266.600011,34.6400017 L266.840011,35.0000017 L275.960011,35.0000017 L275.960011,35.0000017 L290.000012,35.0000017 C302.120012,35.0000017 308.360013,30.2000015 308.360013,20.8400011 C308.360013,19.160001 308.120013,17.720001 307.760013,16.4000009 L318.800013,34.6400017 L319.040013,35.0000017 L324.440013,35.0000017 L324.680013,34.6400017 L339.920014,8.24000061 L340.640014,7.04000056" id="Shape"></path>
                <polyline id="Path" points="394.280016 7.04000056 393.440016 7.04000056 393.440016 23.7200012 372.440015 7.28000057 372.200015 7.04000056 366.680015 7.04000056 366.680015 30.3200015 352.880014 7.52000058 352.640014 7.04000056 345.560014 7.04000056 345.320014 7.52000058 329.600013 33.8000016 328.880013 35.1200017 337.280014 35.1200017 337.280014 35.1200017 348.800014 35.1200017 348.800014 28.8800014 340.760014 28.8800014 348.800014 14.3600008 360.200015 34.6400017 360.440015 35.1200017 369.560015 35.1200017 369.560015 35.1200017 374.120015 35.1200017 374.120015 18.200001 395.120016 34.8800017 395.360016 35.1200017 400.880016 35.1200017 400.880016 7.04000056 394.280016 7.04000056"></polyline>
                <path d="M427.520017,7.04000056 L411.080017,7.04000056 C405.320016,7.04000056 403.400016,8.84000063 403.400016,14.1200008 L403.400016,28.0400006 C403.400016,33.3200016 405.320016,35.1200017 411.080017,35.1200017 L427.520017,35.1200017 C433.280017,35.1200017 435.200018,33.3200016 435.200018,28.0400006 L435.200018,24.0800012 L434.360018,24.0800012 L427.880017,24.0800012 L427.040017,24.0800012 L427.040017,28.4000014 L411.320017,28.4000014 L411.320017,13.6400008 L427.040017,13.6400008 L427.040017,17.480001 L427.880017,17.480001 L435.200018,17.480001 L435.200018,14.1200008 C435.200018,8.72000062 433.280017,7.04000056 427.520017,7.04000056" id="Path"></path>
                <polyline id="Path" points="467.240019 28.5200014 445.880018 28.5200014 445.880018 23.6000012 458.720019 23.6000012 458.720019 17.480001 445.880018 17.480001 445.880018 13.4000008 467.720019 13.4000008 467.720019 7.04000056 437.840018 7.04000056 437.840018 35.1200017 468.080019 35.1200017 468.080019 28.5200014 467.240019 28.5200014"></polyline>
                <path d="M45.5600021,21.3200011 L49.0400022,13.5200008 L50.6000023,21.3200011 L45.5600021,21.3200011 M93.440004,1.04000032 L84.0800036,23.0000012 L80.1200035,1.04000032 L71.9600031,1.04000032 L61.4000027,33.4400016 L56.0000025,1.04000032 L45.9200021,1.04000032 L30.5600015,35.8400017 L32.8400016,21.3200011 L17.600001,21.3200011 L16.4000009,28.7600014 L22.7600012,28.7600014 L22.0400012,32.7200016 C18.440001,34.2800016 12.2000008,33.8000016 9.56000066,29.0000014 C7.88000059,26.0000013 6.32000053,19.280001 13.4000008,13.1600008 C19.160001,8.1200006 29.1200014,7.28000057 34.8800017,9.92000067 C34.8800017,9.92000067 35.6000017,5.72000051 36.2000017,1.76000035 C25.1600013,-2.0799998 16.5200009,1.16000032 10.7600007,4.64000046 C2.9600004,9.44000065 -0.759999752,16.8800009 0.200000286,26.9600013 C1.40000033,38.6000018 16.4000009,45.9200021 29.2400014,38.6000018 C29.3600014,38.4800018 29.4800014,38.4800018 29.4800014,38.4800018 L28.2800014,41.2400019 L36.9200017,41.2400019 L42.320002,29.2400014 L51.8000023,29.2400014 L53.8400024,41.2400019 L67.760003,41.2400019 L74.8400033,18.920001 L79.4000034,41.2400019 L84.9200037,41.2400019 L95.6000041,16.5200009 L96.6800041,41.2400019 L104.840004,41.2400019 L103.280004,1.04000032 L93.440004,1.04000032" id="Shape"></path>
                <polyline id="Path" points="105.680004 41.1200019 128.600005 41.1200019 129.920005 32.4800016 115.520005 32.4800016 116.720005 25.4000013 129.200005 25.4000013 130.520005 16.7600009 117.920005 16.7600009 119.000005 9.68000066 133.400006 9.68000066 134.720006 1.04000032 112.040005 1.04000032 105.680004 41.1200019"></polyline>
                <polyline id="Path" points="217.520009 14.1200008 212.480009 1.04000032 203.000008 1.04000032 212.720009 22.1600012 209.720009 41.1200019 218.000009 41.1200019 220.520009 24.3200012 235.28001 1.04000032 225.680009 1.04000032 217.520009 14.1200008"></polyline>
                <path d="M198.320008,24.9200013 C196.160008,31.5200015 190.760008,35.3600017 186.440008,33.4400016 C182.120008,31.5200015 180.440007,24.5600013 182.600008,17.840001 C184.760008,11.2400007 190.160008,7.40000057 194.480008,9.32000065 C198.920008,11.3600007 200.600008,18.320001 198.320008,24.9200013 M195.200008,1.40000033 C186.080008,-0.639999747 176.600007,6.56000054 174.080007,17.600001 C171.560007,28.6400014 176.840007,39.3200018 185.960008,41.4800019 C195.080008,43.640002 204.560008,36.3200017 207.080009,25.2800013 C209.600009,14.2400008 204.200008,3.56000042 195.200008,1.40000033" id="Shape"></path>
                <path d="M158.720007,17.120001 C154.160006,17.120001 152.960006,17.120001 152.960006,17.120001 L154.280006,9.68000066 C154.280006,9.68000066 154.400006,9.68000066 159.560007,9.68000066 C165.440007,9.68000066 164.360007,17.120001 158.720007,17.120001 M157.760007,33.3200016 C153.200006,33.3200016 150.560006,33.3200016 150.560006,33.3200016 L151.880006,25.4000013 C151.880006,25.4000013 153.560006,25.4000013 158.720007,25.4000013 C165.200007,25.2800013 165.080007,33.3200016 157.760007,33.3200016 M162.560007,1.28000033 C158.120007,1.16000032 147.200006,1.28000033 147.200006,1.28000033 L147.320006,1.28000033 L140.960006,41.0000019 C140.960006,41.0000019 154.040006,41.0000019 159.440007,41.0000019 C167.000007,41.0000019 178.160007,29.8400015 168.080007,20.6000011 C178.400007,9.80000067 168.080007,1.40000033 162.560007,1.28000033" id="Shape"></path>
                <path d="M224.960009,37.2800018 L224.960009,35.7200017 L226.280009,35.7200017 C226.880009,35.7200017 227.360009,35.8400017 227.360009,36.4400017 C227.360009,37.4000018 226.400009,37.2800018 225.800009,37.2800018 L224.960009,37.2800018 M226.520009,37.7600018 C227.360009,37.7600018 227.960009,37.4000018 227.960009,36.4400017 C227.960009,36.0800017 227.720009,35.6000017 227.480009,35.4800017 C227.120009,35.2400017 226.760009,35.2400017 226.400009,35.2400017 L224.360009,35.2400017 L224.360009,39.9200019 L224.960009,39.9200019 L224.960009,37.8800018 L225.920009,37.8800018 L227.240009,39.9200019 L227.960009,39.9200019 L226.520009,37.7600018 M226.040009,41.7200019 C228.320009,41.7200019 230.240009,39.9200019 230.240009,37.5200018 C230.240009,35.2400017 228.440009,33.4400016 226.040009,33.4400016 C223.760009,33.4400016 221.840009,35.2400017 221.840009,37.5200018 C221.840009,39.9200019 223.640009,41.7200019 226.040009,41.7200019 M226.040009,41.0000019 C224.120009,41.0000019 222.560009,39.5600019 222.560009,37.5200018 C222.560009,35.6000017 224.120009,34.0400016 226.040009,34.0400016 C227.960009,34.0400016 229.520009,35.6000017 229.520009,37.5200018 C229.400009,39.5600019 227.960009,41.0000019 226.040009,41.0000019" id="Shape"></path>
            </g>
        </g>
    </g>
</svg>