<svg width="471" height="134" viewBox="0 0 471 134" fill="none" xmlns="http://www.w3.org/2000/svg">
<path d="M452.709 85.164C452.709 82.9038 453.587 80.7856 455.187 79.1853C455.971 78.3985 456.904 77.775 457.93 77.3509C458.957 76.9269 460.058 76.7107 461.169 76.7149C462.279 76.711 463.379 76.9273 464.405 77.3514C465.432 77.7754 466.364 78.3987 467.147 79.1853C467.936 79.9682 468.56 80.8999 468.986 81.9262C469.411 82.9525 469.628 84.0531 469.625 85.164C469.625 89.8292 465.831 93.6237 461.169 93.6237C460.057 93.6273 458.956 93.4101 457.929 92.9847C456.902 92.5593 455.97 91.9342 455.187 91.1456C453.587 89.553 452.709 87.4277 452.709 85.164M461.169 94.9991C463.792 94.9991 466.263 93.9764 468.119 92.1239C469.974 90.2608 471 87.7904 471 85.164C471 82.5447 469.974 80.0771 468.119 78.2141C467.208 77.2982 466.125 76.5722 464.932 76.0781C463.739 75.5841 462.46 75.3318 461.169 75.336C455.74 75.336 451.337 79.7454 451.337 85.164C451.337 87.7904 452.36 90.2614 454.216 92.1239C455.128 93.038 456.212 93.7626 457.405 94.2561C458.598 94.7495 459.878 95.002 461.169 94.9991" fill="white"/>
<path d="M458.642 84.7887H461.524C461.99 84.7887 462.426 84.7887 462.858 84.6777C463.86 84.4324 464.216 83.7071 464.216 82.9186C464.216 82.6424 464.185 81.8995 463.567 81.3914C462.996 80.9148 462.288 80.9283 461.451 80.9283H458.642V84.7887V84.7887ZM458.642 85.9947V90.622H457.218V79.7188H461.268C462.779 79.7398 463.677 79.7398 464.52 80.3857C465.329 80.9873 465.667 81.8995 465.667 82.9017C465.667 85.4481 463.612 85.8078 463.083 85.9013L466.145 90.622H464.416L461.451 85.9947H458.642V85.9947Z" fill="white"/>
<path d="M415.071 47.4961C415.071 52.6678 413.122 57.6277 409.653 61.2846C406.183 64.9416 401.478 66.9961 396.571 66.9961C391.665 66.9961 386.959 64.9416 383.49 61.2846C380.02 57.6277 378.071 52.6678 378.071 47.4961C378.071 42.3244 380.02 37.3645 383.49 33.7076C386.959 30.0506 391.665 27.9961 396.571 27.9961C401.478 27.9961 406.183 30.0506 409.653 33.7076C413.122 37.3645 415.071 42.3244 415.071 47.4961Z" fill="white"/>
<path fill-rule="evenodd" clip-rule="evenodd" d="M0.0703125 0V33.9998C2.98769 33.9998 5.7856 35.3694 7.8485 37.8074C9.9114 40.2454 11.0703 43.5519 11.0703 46.9998C11.0703 50.4476 9.9114 53.7541 7.8485 56.1921C5.7856 58.6301 2.98769 59.9998 0.0703125 59.9998V95H448.07V0H0.0703125ZM432.127 47.5634C432.127 56.9786 428.387 66.008 421.729 72.6655C415.072 79.323 406.042 83.0632 396.627 83.0632C387.212 83.0632 378.182 79.323 371.525 72.6655C364.867 66.008 361.127 56.9786 361.127 47.5634C361.127 38.1483 364.867 29.1188 371.525 22.4613C378.182 15.8038 387.212 12.0636 396.627 12.0636C406.042 12.0636 415.072 15.8038 421.729 22.4613C428.387 29.1188 432.127 38.1483 432.127 47.5634ZM27.0703 14H43.0703V81H27.0703V14ZM306.07 14V28H245.07V14H306.07ZM129.07 39L117.07 66H145.07L119.07 14H136.07L169.07 81H97.0703V76L116.07 39H129.07ZM191.07 81H174.07V14H212.07C226.463 14.33 234.07 24.968 234.07 36V81H218.07V44C218.07 35.554 215.456 28 202.07 28H191.07V81ZM245.07 39.998C245 58.553 245.015 64.443 245.07 80.998H306.07V66.998H262.07V53.998H306.07V39.998H245.07ZM340.07 14H359.07L329.07 46L362.07 81H341.07L314.07 54V40L340.07 14ZM72.0703 14H91.0703L61.0703 46L94.0703 81H73.0703L46.0703 54V40L72.0703 14Z" fill="white"/>
<path d="M9.776 133.523C11.21 133.521 12.6264 133.202 13.9264 132.588C15.2049 132.015 16.3392 131.156 17.2445 130.076V130.076L14.7725 127.564C14.1658 128.304 13.4122 128.907 12.5608 129.333C11.7256 129.743 10.8086 129.954 9.88066 129.947C9.09759 129.956 8.32062 129.807 7.59472 129.509C6.86883 129.211 6.20843 128.769 5.65174 128.211C5.11568 127.664 4.69214 127.014 4.40574 126.3C4.09867 125.541 3.94405 124.728 3.95095 123.908C3.94258 123.08 4.09281 122.259 4.39328 121.489C4.67375 120.773 5.08939 120.12 5.61685 119.565C6.14581 119.015 6.77846 118.579 7.47713 118.282C8.20519 117.969 8.98879 117.81 9.77974 117.815C10.7336 117.811 11.6752 118.033 12.5297 118.463C13.4129 118.913 14.1862 119.557 14.7936 120.348V120.348L17.3442 117.755C16.4474 116.651 15.3063 115.776 14.0136 115.203C12.6851 114.581 11.2395 114.257 9.776 114.254C8.4688 114.245 7.17286 114.5 5.96324 115.002C4.81722 115.474 3.77084 116.164 2.88063 117.035C2.00196 117.906 1.30308 118.947 0.824731 120.095C0.328847 121.299 0.0724643 122.59 0.070326 123.895C0.0681876 125.2 0.320336 126.492 0.812271 127.698C1.28496 128.842 1.97943 129.878 2.85447 130.745C3.74509 131.616 4.79191 132.305 5.93832 132.776C7.15612 133.281 8.46062 133.535 9.776 133.523V133.523ZM59.089 133.551C60.3918 133.561 61.6834 133.306 62.888 132.803C64.029 132.333 65.0671 131.639 65.9426 130.761C66.8181 129.882 67.5136 128.837 67.9891 127.685C68.4871 126.488 68.7436 125.202 68.7436 123.903C68.7436 122.604 68.4871 121.318 67.9891 120.121C67.5137 118.969 66.8182 117.924 65.9427 117.045C65.0672 116.167 64.029 115.473 62.888 115.004C60.4593 114.006 57.7435 114.006 55.3148 115.004C54.1738 115.473 53.1356 116.167 52.2602 117.045C51.3847 117.924 50.6892 118.969 50.2137 120.121C49.7161 121.318 49.4598 122.604 49.4598 123.903C49.4598 125.202 49.7161 126.488 50.2137 127.685C50.6892 128.837 51.3847 129.882 52.2602 130.761C53.1357 131.639 54.1738 132.333 55.3148 132.803C56.5117 133.304 57.7952 133.558 59.0902 133.55L59.089 133.551ZM59.089 129.997C58.3244 130.003 57.5665 129.851 56.8619 129.55C56.1572 129.249 55.5205 128.806 54.9909 128.246C54.4684 127.685 54.0576 127.027 53.781 126.308C53.1909 124.756 53.1909 123.036 53.781 121.484C54.0599 120.77 54.4706 120.118 54.9909 119.56C55.5205 119.001 56.1572 118.557 56.8619 118.256C57.5665 117.955 58.3244 117.803 59.089 117.81C59.876 117.804 60.6557 117.963 61.3791 118.277C62.0699 118.574 62.6939 119.011 63.2132 119.56C63.7335 120.118 64.1442 120.77 64.4231 121.484C65.0129 123.036 65.0129 124.756 64.4231 126.308C64.1465 127.027 63.7357 127.685 63.2132 128.246C62.6939 128.795 62.0699 129.232 61.3791 129.529C60.656 129.843 59.8767 130.002 59.0902 129.995L59.089 129.997ZM116.287 133.258V129.837H106.319V114.549H102.548V133.255L116.287 133.258ZM163.858 133.258V129.837H153.89V114.549H150.117V133.255L163.858 133.258ZM211.791 133.258V129.891H201.461V125.453H208.202V122.192H201.461V117.92H211.688V114.552H197.685V133.259L211.791 133.258ZM253.637 133.524C255.071 133.522 256.487 133.203 257.787 132.589C259.066 132.016 260.2 131.157 261.105 130.078V130.078L258.632 127.566C258.026 128.307 257.272 128.91 256.42 129.336C255.585 129.746 254.668 129.956 253.74 129.95C252.957 129.958 252.181 129.809 251.455 129.511C250.729 129.213 250.069 128.772 249.513 128.213C248.976 127.666 248.553 127.017 248.267 126.302C247.959 125.544 247.804 124.731 247.811 123.911C247.802 123.083 247.953 122.261 248.254 121.492C248.534 120.775 248.949 120.122 249.477 119.568C250.005 119.018 250.638 118.581 251.337 118.285C252.065 117.971 252.848 117.812 253.639 117.817C254.597 117.814 255.541 118.038 256.398 118.471C257.281 118.92 258.055 119.564 258.662 120.355V120.355L261.213 117.763C260.316 116.658 259.175 115.784 257.882 115.211C256.554 114.588 255.109 114.265 253.646 114.262C252.338 114.253 251.042 114.507 249.833 115.01C248.687 115.481 247.64 116.171 246.749 117.041C245.87 117.913 245.171 118.953 244.692 120.101C244.196 121.305 243.94 122.597 243.938 123.901C243.936 125.206 244.188 126.498 244.679 127.704C245.152 128.848 245.847 129.884 246.722 130.751C247.612 131.622 248.659 132.311 249.805 132.782C251.022 133.284 252.324 133.536 253.637 133.523V133.524ZM303.549 133.258V117.969H309.663V114.547H293.634V117.969H299.775V133.255L303.549 133.258ZM346.773 133.258V114.551H343V133.258H346.773ZM390.232 133.552C391.535 133.562 392.827 133.308 394.031 132.804C395.172 132.334 396.21 131.64 397.086 130.762C397.961 129.884 398.657 128.838 399.132 127.686C399.63 126.489 399.886 125.203 399.886 123.904C399.886 122.605 399.63 121.32 399.132 120.123C398.657 118.97 397.961 117.925 397.086 117.047C396.21 116.168 395.172 115.474 394.031 115.005C391.603 114.008 388.888 114.008 386.459 115.005C385.319 115.475 384.281 116.169 383.406 117.048C382.531 117.926 381.835 118.971 381.359 120.123C380.861 121.319 380.604 122.605 380.604 123.904C380.604 125.204 380.861 126.489 381.359 127.686C381.835 128.838 382.531 129.883 383.406 130.761C384.281 131.64 385.319 132.334 386.459 132.804C387.655 133.305 388.938 133.558 390.232 133.55V133.552ZM390.232 129.998C389.45 130.005 388.674 129.846 387.956 129.53C387.27 129.231 386.65 128.795 386.134 128.247C385.611 127.687 385.2 127.029 384.923 126.31C384.333 124.757 384.333 123.038 384.923 121.485C385.202 120.771 385.613 120.118 386.134 119.561C386.65 119.014 387.27 118.578 387.956 118.279C388.674 117.963 389.45 117.804 390.232 117.811C391.019 117.805 391.798 117.964 392.521 118.279C393.212 118.576 393.837 119.012 394.356 119.561C394.877 120.119 395.287 120.772 395.566 121.485C396.157 123.038 396.157 124.757 395.566 126.31C395.29 127.029 394.879 127.687 394.356 128.247C393.837 128.797 393.212 129.233 392.521 129.53C391.798 129.844 391.019 130.002 390.232 129.995V129.998ZM437.255 133.259V120.746L446.545 133.259H449.876V114.552H446.337V126.659L437.281 114.552H433.689V133.259H437.255Z" fill="white"/>
</svg>
