<?xml version="1.0" encoding="UTF-8"?>
<svg width="490px" height="152px" viewBox="0 0 490 152" version="1.1" xmlns="http://www.w3.org/2000/svg" xmlns:xlink="http://www.w3.org/1999/xlink">
    <title>mainlogo</title>
    <g id="Page-1" stroke="none" stroke-width="1" fill="none" fill-rule="evenodd">
        <g id="mainlogo" fill-rule="nonzero">
            <g id="Master_System_Logo" transform="translate(0.000000, 70.000000)" fill="#FFFFFF">
                <g id="Group-4" transform="translate(0.125879, 0.022643)">
                    <path d="M74.5595915,61.539232 L47.96752,61.539232 L47.96752,58.5280078 C48.9287989,58.4997352 50.1658029,58.4007812 51.6785342,58.2311261 C53.191159,58.0614905 54.2302418,57.8211518 54.795787,57.5101294 C55.6722352,56.9729198 56.3154778,56.357954 56.7255151,55.6652256 C57.1354351,54.9725081 57.3404244,54.1030717 57.340483,53.056912 L57.340483,9.28814091 L56.7043085,9.28814091 L36.1770941,60.5637646 L34.0565152,60.5637646 L14.5047682,8.22785146 L13.9534158,8.22785146 L13.9534158,44.1504749 C13.9534006,47.6282402 14.1725262,50.2718946 14.610797,52.0814446 C15.049033,53.8910142 15.7205483,55.1916359 16.6253471,55.9833118 C17.2473659,56.5770797 18.5338491,57.1425662 20.4848033,57.6797758 C22.4357119,58.2169941 23.7080588,58.4997374 24.3018462,58.5280078 L24.3018462,61.539232 L4.51223038e-13,61.539232 L4.51223038e-13,58.5280078 C1.27234474,58.4149175 2.60830932,58.2028557 4.00789592,57.8918333 C5.40747165,57.5808196 6.48896555,57.1142936 7.25238412,56.492251 C8.2419769,55.7005751 8.9205625,54.4847755 9.28814091,52.8448545 C9.65569545,51.2049487 9.83948031,48.4623359 9.83949117,44.6170031 L9.83949117,13.8261826 C9.83948031,12.0449443 9.62742503,10.5888147 9.20331663,9.45778731 C8.77919086,8.32686416 8.17129108,7.40794634 7.37961946,6.70103386 C6.50310402,5.93768044 5.42867827,5.37219172 4.15633787,5.00456987 C2.88398445,4.63705877 1.62577383,4.42500131 0.381703856,4.36839533 L0.381703856,1.3571712 L20.9089182,1.3571712 L38.1280288,46.4831135 L52.8448545,8.73679066 C53.382012,7.35139899 53.8414698,5.90233753 54.2232302,4.38960194 C54.6048776,2.87697927 54.8098669,1.8661712 54.8381981,1.3571712 L74.4747737,1.3571712 L74.4747737,4.36839533 C73.6830109,4.39673306 72.6722115,4.52395972 71.4423321,4.75009919 C70.2123224,4.97635157 69.3146134,5.18840902 68.749205,5.38627373 C67.7878067,5.72562298 67.1374936,6.29110953 66.798266,7.08273772 C66.458908,7.87447448 66.2892725,8.73684277 66.2893377,9.66984477 L66.2893377,53.056912 C66.2892725,54.0465243 66.4589298,54.8806178 66.798266,55.5591969 C67.1374936,56.2377869 67.7878067,56.8315482 68.749205,57.340483 C69.2580682,57.6232306 70.1628562,57.8847695 71.4635474,58.1250973 C72.7640866,58.3654339 73.7961013,58.4997374 74.5595915,58.5280078 L74.5595915,61.539232 Z" id="path6717"></path>
                    <path d="M112.200724,60.7758221 C110.871803,61.2564887 109.705483,61.6452607 108.701784,61.9421424 C107.697999,62.239022 106.559951,62.3874639 105.287641,62.3874639 C103.082205,62.3874639 101.322117,61.8714566 100.007398,60.8394397 C98.6926143,59.8074272 97.8514504,58.3018162 97.4839067,56.3226046 L97.2294317,56.3226046 C95.391583,58.3583658 93.4194287,59.9134559 91.3130122,60.9878817 C89.2065522,62.0623074 86.6689243,62.5995214 83.7001286,62.5995214 C80.5616757,62.5995214 77.9816389,61.6381925 75.9600184,59.7155326 C73.9383979,57.792877 72.9275985,55.276458 72.9275985,52.1662689 C72.9275985,50.5546379 73.1537793,49.1126446 73.6061841,47.8402847 C74.0585673,46.5679529 74.7371529,45.4228392 75.6419409,44.4049456 C76.3487774,43.556731 77.281838,42.8003914 78.4411011,42.1359247 C79.6003424,41.4714972 80.6889023,40.9413513 81.7068024,40.5454895 C82.9791341,40.0648468 85.5591709,39.1742037 89.4469126,37.8735581 C93.3346109,36.5729625 95.9570566,35.5550841 97.3142712,34.8199229 L97.3142712,30.6211762 C97.3142278,30.253639 97.2365324,29.5467808 97.0809897,28.5005951 C96.9255122,27.4544767 96.5932333,26.4648731 96.0843266,25.5317842 C95.5188097,24.485668 94.7200547,23.5738205 93.6880618,22.7962352 C92.6560253,22.0187281 91.1928211,21.6299561 89.2984707,21.629917 C87.9978229,21.6299561 86.7890937,21.8490817 85.6722829,22.287296 C84.5554288,22.7255885 83.7708101,23.1850463 83.3184269,23.6656738 C83.3184269,24.2311994 83.4528412,25.065293 83.7213439,26.1679566 C83.9899335,27.270694 84.1242392,28.2885702 84.1242609,29.2215918 C84.1242392,30.211228 83.6789133,31.1160073 82.7882833,31.9359342 C81.8976316,32.7559218 80.6606297,33.1659004 79.0772778,33.1658722 C77.6635397,33.1659004 76.6244677,32.6640294 75.9600184,31.660259 C75.2955691,30.6565495 74.9633336,29.5326424 74.9633553,28.2885377 C74.9633336,26.9879507 75.4227958,25.7438764 76.3417201,24.5563169 C77.2606445,23.3688312 78.4552374,22.3085417 79.925499,21.3754463 C81.1978307,20.5838051 82.7387954,19.9122877 84.5483715,19.3608962 C86.3579041,18.8095872 88.1250713,18.5338686 89.8498296,18.5338686 C92.2248358,18.5338686 94.2959442,18.6964903 96.0631113,19.0216034 C97.8302351,19.3468011 99.4348023,20.0465912 100.876835,21.1209778 C102.318802,22.1671701 103.414419,23.5879568 104.16373,25.3833422 C104.912975,27.1788016 105.287598,29.4902313 105.287641,32.3176402 C105.287598,36.3609029 105.24508,39.9446796 105.160393,43.068981 C105.075488,46.1933172 105.033144,49.6074475 105.033144,53.3113805 C105.033123,54.4140897 105.224017,55.2905964 105.605697,55.9409008 C105.987377,56.5912159 106.574066,57.1425662 107.365785,57.5949537 C107.789874,57.8494266 108.461381,57.9907982 109.380348,58.0190686 C110.299207,58.0473412 111.239347,58.0614775 112.200724,58.0614775 L112.200724,60.7758221 Z M97.399089,38.3824973 C94.9957451,39.0893816 92.8892851,39.7821035 91.0797524,40.4606674 C89.2701764,41.1392725 87.5878487,41.9875045 86.0327693,43.0053634 C84.6190312,43.9667096 83.5021988,45.104753 82.6822502,46.4194958 C81.86228,47.734269 81.4523274,49.2964295 81.4523274,51.1059773 C81.4523274,53.4527608 82.0672888,55.1774974 83.2972334,56.2801936 C84.5271562,57.3828984 86.0893145,57.9342465 87.9837084,57.9342465 C89.9911708,57.9342465 91.7583163,57.4465161 93.2851665,56.4710466 C94.8119515,55.4955858 96.0984412,54.3434039 97.1446139,53.0145009 L97.399089,38.3824973 Z" id="path6719"></path>
                    <path d="M134.955403,41.0544287 C136.114623,42.0723266 137.005275,43.2457129 137.627337,44.574592 C138.249334,45.9035036 138.560398,47.5292818 138.560398,49.4519265 C138.560398,53.3255276 137.111308,56.4922575 134.213215,58.9521249 C131.315058,61.4119966 127.561622,62.6419325 122.952929,62.6419325 C120.521312,62.6419325 118.280568,62.2036791 116.230697,61.3271745 C114.180782,60.4506677 112.717578,59.644849 111.841084,58.9097117 L110.992863,61.6664673 L107.81198,61.6664673 L107.387869,47.119288 L110.314277,47.119288 C110.540458,48.2220037 111.021114,49.5084869 111.756266,50.9787441 C112.491397,52.4490209 113.382027,53.7779173 114.4282,54.9654334 C115.530874,56.2095121 116.852716,57.2556652 118.39368,58.1038929 C119.934624,58.9521271 121.666417,59.376242 123.589106,59.3762398 C126.303426,59.376242 128.395728,58.7612741 129.866011,57.531336 C131.336251,56.3014045 132.071382,54.541325 132.071426,52.251091 C132.071382,51.0635771 131.838122,50.0386306 131.371625,49.1762514 C130.905083,48.313894 130.219419,47.5575544 129.314674,46.9072305 C128.381592,46.2569349 127.236465,45.6702417 125.879337,45.1471489 C124.522144,44.6240886 123.009452,44.1080812 121.341283,43.5991247 C120.012362,43.2033019 118.535043,42.6590198 116.909283,41.9662783 C115.283478,41.273576 113.890977,40.4606869 112.731736,39.5276111 C111.487655,38.5380313 110.469777,37.3222318 109.678101,35.8802146 C108.886403,34.4382473 108.490565,32.7417833 108.490565,30.7908226 C108.490565,27.3696546 109.762919,24.4715317 112.307625,22.096443 C114.852311,19.7214368 118.259353,18.533912 122.528818,18.5338686 C124.168715,18.533912 125.843964,18.7459782 127.554586,19.1700431 C129.265165,19.5942015 130.657666,20.1031407 131.732133,20.6968607 L132.707602,18.4914575 L135.761237,18.4914575 L136.397414,31.9359342 L133.471006,31.9359342 C132.877216,28.9388811 131.597805,26.500216 129.632752,24.6199345 C127.667655,22.7397248 125.271412,21.7996025 122.443979,21.7995634 C120.125474,21.7996025 118.301784,22.3792275 116.972885,23.5384385 C115.643986,24.6977254 114.979537,26.0973077 114.979537,27.7371874 C114.979537,29.0095669 115.198661,30.0698563 115.636929,30.9180558 C116.075176,31.7663182 116.732546,32.4873148 117.609062,33.0810479 C118.457283,33.6465648 119.524649,34.1767085 120.811139,34.6714832 C122.097607,35.1663121 123.688038,35.7247305 125.582453,36.3467405 C127.448531,36.9405279 129.208619,37.6332498 130.862696,38.4249106 C132.516708,39.2166148 133.880958,40.0931215 134.955403,41.0544287 L134.955403,41.0544287 Z" id="path6721"></path>
                    <path d="M161.65437,59.7155326 C159.8165,60.4789425 158.077627,61.1221852 156.43773,61.6452607 C154.797789,62.1683362 152.790305,62.429875 150.415277,62.429875 C146.909237,62.429875 144.442312,61.5463001 143.01446,59.7791503 C141.586585,58.0120048 140.87267,55.5167902 140.87267,52.2935021 L140.87267,23.9625534 L133.323411,23.9625534 L133.323411,19.8910398 L141.042327,19.8910398 L141.042327,6.87068026 L148.761222,6.87068026 L148.761222,19.8910398 L160.763718,19.8910398 L160.763718,23.9625534 L148.846061,23.9625534 L148.846061,47.3313455 C148.84604,49.084372 148.909686,50.5475698 149.036934,51.7209474 C149.164182,52.8943424 149.468102,53.919289 149.948779,54.795787 C150.401141,55.6157508 151.079726,56.2377869 151.984536,56.6618974 C152.889302,57.0860189 154.105089,57.2980763 155.631939,57.298072 C156.338776,57.2980763 157.377848,57.2344695 158.749177,57.1072211 C160.120463,56.9799945 161.088853,56.817414 161.65437,56.6194885 L161.65437,59.7155326 Z" id="path6723"></path>
                    <path d="M193.994044,51.6997408 C192.241013,55.0361258 189.894236,57.6939165 186.953735,59.6731216 C184.013168,61.6523288 180.634377,62.6419325 176.81736,62.6419325 C173.452683,62.6419325 170.505081,62.0481711 167.974532,60.8606464 C165.443961,59.6731237 163.358738,58.061484 161.718819,56.0257229 C160.078901,53.9899748 158.856035,51.6149274 158.050223,48.9005741 C157.244389,46.1862491 156.841494,43.3163988 156.841494,40.291021 C156.841494,37.5767025 157.272683,34.9118414 158.135041,32.2964336 C158.99742,29.6810843 160.262694,27.3272414 161.930886,25.2349025 C163.54251,23.2274573 165.542937,21.6087495 167.932123,20.3787746 C170.321287,19.14888 173.0003,18.5338686 175.969117,18.5338686 C179.02273,18.5338686 181.638119,19.0145765 183.81526,19.9758641 C185.992358,20.9372342 187.759525,22.2519922 189.116718,23.9201423 C190.417301,25.5035442 191.385713,27.3696546 192.021912,29.5184735 C192.658045,31.6673576 192.976144,33.9999939 192.976166,36.5163869 L192.976166,39.3155536 L165.281405,39.3155536 C165.281383,42.0581903 165.542937,44.5463346 166.066023,46.7799952 C166.589088,49.0136862 167.416094,50.978755 168.547084,52.6752081 C169.64978,54.3151291 171.091769,55.6086826 172.873073,56.5558687 C174.654333,57.5030656 176.774929,57.9766619 179.234818,57.9766576 C181.751209,57.9766619 183.921272,57.3899687 185.745006,56.2165759 C187.568653,55.0431961 189.328741,52.9296853 191.025249,49.8760414 L193.994044,51.6997408 Z M184.621094,35.7529792 C184.621094,34.1696403 184.48668,32.4731785 184.218177,30.6635872 C183.949544,28.8540589 183.518355,27.3413798 182.92463,26.1255455 C182.274295,24.8249608 181.383644,23.7646713 180.252697,22.944675 C179.121685,22.1247568 177.665559,21.7147391 175.884299,21.7147391 C172.91546,21.7147391 170.448535,22.9517822 168.483482,25.4257555 C166.518385,27.8997982 165.45104,31.3422032 165.281405,35.7529792 L184.621094,35.7529792 Z" id="path6725"></path>
                    <path d="M221.923107,25.1076671 C221.923107,26.5496973 221.569483,27.8291124 220.862646,28.9459166 C220.155745,30.0627882 219.067185,30.6212066 217.596945,30.6211762 C216.01355,30.6212066 214.80482,30.211228 213.970757,29.3912382 C213.136651,28.5713135 212.719597,27.6665342 212.719619,26.6768958 C212.719597,26.0548944 212.769129,25.4894079 212.868148,24.9804318 C212.967167,24.4715317 213.059021,23.9625925 213.143817,23.4536142 C211.814896,23.4536533 210.259817,23.9908672 208.478557,25.0652561 C206.697232,26.1397187 205.184561,27.6665342 203.940502,29.6457089 L203.940502,53.9899661 C203.94048,54.9795784 204.131375,55.7853972 204.513055,56.4074289 C204.894756,57.0294693 205.495582,57.4959975 206.315552,57.8070112 C207.022388,58.0897588 207.934234,58.3018162 209.051109,58.4431857 C210.16792,58.5845487 211.136311,58.6835201 211.956303,58.7400653 L211.956303,61.539232 L189.902271,61.539232 L189.902271,58.7400653 C190.552584,58.6835201 191.22409,58.6269749 191.916812,58.570408 C192.609534,58.5138628 193.210359,58.4007725 193.719309,58.2311152 C194.510985,57.976651 195.097674,57.5313295 195.479398,56.8951506 C195.861077,56.2589826 196.05195,55.4319572 196.05195,54.4140723 L196.05195,28.5854085 C196.05195,27.7089344 195.846963,26.8465661 195.436989,25.9982993 C195.026993,25.1501042 194.45444,24.4715208 193.719309,23.9625425 C193.182087,23.6232888 192.54591,23.3758884 191.810779,23.2203414 C191.075648,23.0648639 190.283972,22.9588417 189.43573,22.9022531 L189.43573,20.1454996 L203.346734,19.2124433 L203.940502,19.8062068 L203.940502,25.7014197 L204.152655,25.7014197 C205.905643,23.4112314 207.856582,21.6723563 210.005451,20.4847924 C212.154276,19.2973089 214.119351,18.7035041 215.900655,18.7035041 C217.681915,18.7035041 219.130983,19.2831726 220.247859,20.4423814 C221.364648,21.6016705 221.923107,23.1567607 221.923107,25.1076563 L221.923107,25.1076671 Z" id="path6727"></path>
                    <path d="M267.092979,33.9292799 C268.365289,35.3430267 269.305406,36.8910487 269.913354,38.5733504 C270.521215,40.2556976 270.825199,42.2136982 270.825199,44.4473567 C270.825199,49.7629554 268.860081,54.1454827 264.929995,57.5949537 C260.999823,61.0444312 256.122475,62.7691678 250.297996,62.7691678 C247.611904,62.7691678 244.925835,62.352121 242.239786,61.5180253 C239.553695,60.6839318 237.235212,59.6731237 235.284273,58.4855968 L233.460583,61.581643 L230.067655,61.581643 L229.473887,40.9696066 L232.909224,40.9696066 C233.616082,43.5143199 234.443109,45.8116134 235.390306,47.8614913 C236.337482,49.9113974 237.588641,51.8269848 239.143742,53.6082622 C240.613982,55.276458 242.331662,56.6053544 244.296737,57.5949537 C246.26179,58.5845595 248.544943,59.0793624 251.146217,59.0793581 C253.097134,59.0793624 254.800656,58.8248917 256.256824,58.3159504 C257.712906,57.8070155 258.893363,57.0860189 259.798194,56.1529582 C260.702939,55.2199106 261.374445,54.1242783 261.812736,52.866059 C262.250961,51.6078592 262.470084,50.1587977 262.470128,48.5188702 C262.470084,46.1155611 261.791499,43.8748172 260.434371,41.7966319 C259.077156,39.7184858 257.055536,38.142189 254.369509,37.0677394 C252.531639,36.3326303 250.425201,35.5197412 248.050173,34.6290721 C245.675102,33.7384551 243.625209,32.8972934 241.900494,32.1055806 C238.507544,30.5787955 235.870962,28.5783838 233.990726,26.1043411 C232.110469,23.6303678 231.170351,20.4000203 231.170351,16.4132897 C231.170351,14.12311 231.63687,11.9883948 232.569931,10.0091376 C233.502991,8.02998459 234.83189,6.26283477 236.556627,4.70768813 C238.196524,3.23747651 240.133326,2.0852968 242.367013,1.25114247 C244.600678,0.417109738 246.933319,4.29736227e-14 249.364935,4.29736227e-14 C252.135801,4.29736227e-14 254.616884,0.424177886 256.808162,1.27234908 C258.999396,2.12063971 260.999823,3.11024334 262.809421,4.24115999 L264.548293,1.3571712 L267.941221,1.3571712 L268.280514,21.3330353 L264.845177,21.3330353 C264.223093,19.0428512 263.523293,16.8515865 262.745796,14.7592368 C261.968213,12.6669804 260.957392,10.7725974 259.713355,9.07608346 C258.497525,7.4362211 257.013127,6.12853128 255.260139,5.15300966 C253.507109,4.17760095 251.358261,3.68986836 248.813576,3.68980973 C246.127485,3.68986836 243.837275,4.55223665 241.942903,6.27691678 C240.048509,8.00170982 239.101312,10.1081503 239.101334,12.5962446 C239.101312,15.1975357 239.709216,17.3534576 240.925024,19.0640144 C242.140811,20.774656 243.907956,22.1813064 246.226482,23.2839678 C248.29049,24.2736105 250.319168,25.1289107 252.312537,25.8498704 C254.305864,26.5709018 256.235587,27.3413798 258.10173,28.1613023 C259.798151,28.89647 261.430991,29.7305635 263.000271,30.6635872 C264.569444,31.5966718 265.933694,32.685236 267.092979,33.9292799 Z" id="path6729"></path>
                    <path d="M265.036875,75.195766 C265.036875,73.7820344 265.425656,72.6298547 266.203195,71.7392225 C266.980735,70.8485686 267.949147,70.4032471 269.108389,70.4032558 C270.013177,70.4032471 270.790716,70.5728913 271.441029,70.912195 C272.091342,71.2514791 272.670952,71.6897303 273.179902,72.2269551 C273.604013,72.6510592 274.056396,73.2306842 274.537073,73.9658302 C275.017729,74.7009523 275.399431,75.3088499 275.6822,75.7895295 C277.095895,75.0261066 278.785302,73.032763 280.750377,69.8094945 C282.71543,66.5862064 284.136226,63.7587693 285.012741,61.3271745 C282.32665,54.6261471 279.895055,48.6319823 277.717957,43.3446562 C275.540816,38.0573669 273.26472,32.5862754 270.88967,26.9313665 C270.352469,25.6307795 269.447681,24.6199715 268.175328,23.8989379 C266.902996,23.1779781 265.630643,22.7185203 264.358289,22.5205601 L264.358289,19.7213934 L283.443504,19.7213934 L283.443504,22.6902065 C282.595261,22.7185225 281.577383,22.895237 280.389869,23.2203523 C279.202333,23.5455457 278.608587,23.9201814 278.608587,24.3442594 C278.608587,24.5139384 278.672211,24.796686 278.79946,25.1924914 C278.926708,25.5883685 279.075128,25.9983471 279.244785,26.4224273 C280.319209,29.2216243 281.959106,33.2577907 284.164542,38.5309393 C286.369913,43.8041313 288.080513,48.0240825 289.296343,51.1908016 C290.568653,48.1654542 291.890494,45.0340672 293.261823,41.7966319 C294.633109,38.5592358 296.166995,34.7351269 297.86348,30.3242944 C298.061302,29.7871131 298.344115,29.0449098 298.711702,28.0976846 C299.079245,27.1505268 299.263039,26.3376399 299.263061,25.6590174 C299.263039,24.9239213 298.619783,24.2382676 297.333337,23.6020561 C296.046825,22.9659207 294.82396,22.5771487 293.66474,22.4357358 L293.66474,19.7213934 L309.18737,19.7213934 L309.18737,22.3509137 C308.339105,22.4923201 307.222272,22.980057 305.83685,23.8141136 C304.451385,24.6482462 303.41937,25.8287007 302.740806,27.3554814 C299.376129,35.159244 296.386118,42.2702478 293.770752,48.6885166 C291.155363,55.1068116 289.169073,59.8286317 287.811923,62.8539921 C286.03062,66.8124023 284.440189,69.9013782 283.04063,72.1209264 C281.641029,74.3404528 280.276778,76.086396 278.947902,77.3587582 C277.647276,78.5462656 276.466819,79.3450184 275.406532,79.7550144 C274.346244,80.1649734 273.250605,80.3699823 272.119637,80.3699823 C269.914223,80.3699823 268.182429,79.8468873 266.924212,78.8007536 C265.666016,77.7545831 265.036897,76.5529242 265.036897,75.195766 L265.036875,75.195766 Z" id="path6731"></path>
                    <path d="M329.566956,41.0544287 C330.726176,42.0723266 331.616828,43.2457129 332.23889,44.574592 C332.860887,45.9035036 333.17195,47.5292818 333.17195,49.4519265 C333.17195,53.3255276 331.722839,56.4922575 328.824746,58.9521249 C325.92661,61.4119966 322.173174,62.6419325 317.564482,62.6419325 C315.132865,62.6419325 312.892121,62.2036791 310.842228,61.3271745 C308.792335,60.4506677 307.329131,59.644849 306.452637,58.9097117 L305.604394,61.6664673 L302.423532,61.6664673 L301.999422,47.119288 L304.925809,47.119288 C305.152011,48.2220037 305.632667,49.5084869 306.367819,50.9787441 C307.102928,52.4490209 307.99358,53.7779173 309.039753,54.9654334 C310.142427,56.2095121 311.464268,57.2556652 313.005233,58.1038929 C314.546176,58.9521271 316.27797,59.376242 318.200658,59.3762398 C320.914979,59.376242 323.007281,58.7612741 324.477564,57.531336 C325.947804,56.3014045 326.682935,54.541325 326.682978,52.251091 C326.682935,51.0635771 326.449675,50.0386306 325.983177,49.1762514 C325.516614,48.313894 324.830972,47.5575544 323.926205,46.9072305 C322.993145,46.2569349 321.848018,45.6702417 320.490868,45.1471489 C319.133675,44.6240886 317.621005,44.1080812 315.952835,43.5991247 C314.623915,43.2033019 313.146596,42.6590198 311.520814,41.9662783 C309.895031,41.273576 308.50253,40.4606869 307.343289,39.5276111 C306.099208,38.5380313 305.081329,37.3222318 304.289654,35.8802146 C303.497956,34.4382473 303.102118,32.7417833 303.102118,30.7908226 C303.102118,27.3696546 304.374471,24.4715317 306.919156,22.096443 C309.463842,19.7214368 312.870906,18.533912 317.140349,18.5338686 C318.780246,18.533912 320.455517,18.7459782 322.166139,19.1700431 C323.876717,19.5942015 325.269218,20.1031407 326.343685,20.6968607 L327.319133,18.4914575 L330.372768,18.4914575 L331.008945,31.9359342 L328.082558,31.9359342 C327.488769,28.9388811 326.209336,26.500216 324.244304,24.6199345 C322.279207,22.7397248 319.882964,21.7996025 317.055532,21.7995634 C314.737027,21.7996025 312.913315,22.3792275 311.584438,23.5384385 C310.255539,24.6977254 309.59109,26.0973077 309.59109,27.7371874 C309.59109,29.0095669 309.810213,30.0698563 310.248482,30.9180558 C310.686707,31.7663182 311.344099,32.4873148 312.220615,33.0810479 C313.068836,33.6465648 314.13618,34.1767085 315.422692,34.6714832 C316.70916,35.1663121 318.299591,35.7247305 320.193984,36.3467405 C322.060084,36.9405279 323.82015,37.6332498 325.474249,38.4249106 C327.128261,39.2166148 328.492511,40.0931215 329.566956,41.0544287 L329.566956,41.0544287 Z" id="path6733"></path>
                    <path d="M356.265945,59.7155326 C354.428052,60.4789425 352.68918,61.1221852 351.049304,61.6452607 C349.409364,62.1683362 347.401879,62.429875 345.026852,62.429875 C341.520812,62.429875 339.053865,61.5463001 337.626012,59.7791503 C336.19816,58.0120048 335.484223,55.5167902 335.484244,52.2935021 L335.484244,23.9625534 L327.934963,23.9625534 L327.934963,19.8910398 L335.65388,19.8910398 L335.65388,6.87068026 L343.372796,6.87068026 L343.372796,19.8910398 L355.375271,19.8910398 L355.375271,23.9625534 L343.457614,23.9625534 L343.457614,47.3313455 C343.457593,49.084372 343.521238,50.5475698 343.648487,51.7209474 C343.775735,52.8943424 344.079655,53.919289 344.560332,54.795787 C345.012715,55.6157508 345.691301,56.2377869 346.596089,56.6618974 C347.500855,57.0860189 348.716663,57.2980763 350.243492,57.298072 C350.950328,57.2980763 351.989422,57.2344695 353.360751,57.1072211 C354.732037,56.9799945 355.700428,56.817414 356.265945,56.6194885 L356.265945,59.7155326 Z" id="path6735"></path>
                    <path d="M388.605619,51.6997408 C386.852566,55.0361258 384.505811,57.6939165 381.565309,59.6731216 C378.624743,61.6523288 375.245951,62.6419325 371.428934,62.6419325 C368.064257,62.6419325 365.116655,62.0481711 362.586106,60.8606464 C360.055536,59.6731237 357.970313,58.061484 356.330394,56.0257229 C354.690475,53.9899748 353.46761,51.6149274 352.661797,48.9005741 C351.855963,46.1862491 351.453068,43.3163988 351.453068,40.291021 C351.453068,37.5767025 351.884258,34.9118414 352.746615,32.2964336 C353.608994,29.6810843 354.874269,27.3272414 356.54246,25.2349025 C358.154085,23.2274573 360.154511,21.6087495 362.543697,20.3787746 C364.932862,19.14888 367.611874,18.5338686 370.580691,18.5338686 C373.634305,18.5338686 376.249693,19.0145765 378.426835,19.9758641 C380.603933,20.9372342 382.371078,22.2519922 383.728293,23.9201423 C385.028875,25.5035442 385.997266,27.3696546 386.633486,29.5184735 C387.269619,31.6673576 387.587719,33.9999939 387.58774,36.5163869 L387.58774,39.3155536 L359.892979,39.3155536 C359.892957,42.0581903 360.154511,44.5463346 360.677598,46.7799952 C361.200662,49.0136862 362.027668,50.978755 363.158659,52.6752081 C364.261355,54.3151291 365.703344,55.6086826 367.484647,56.5558687 C369.265907,57.5030656 371.386504,57.9766619 373.846393,57.9766576 C376.362784,57.9766619 378.532846,57.3899687 380.35658,56.2165759 C382.180227,55.0431961 383.940316,52.9296853 385.636823,49.8760414 L388.605619,51.6997408 Z M379.232669,35.7529792 C379.232669,34.1696403 379.098254,32.4731785 378.829752,30.6635872 C378.561119,28.8540589 378.129929,27.3413798 377.536205,26.1255455 C376.88587,24.8249608 375.995218,23.7646713 374.864271,22.944675 C373.733259,22.1247568 372.277134,21.7147391 370.495874,21.7147391 C367.527035,21.7147391 365.06011,22.9517822 363.095056,25.4257555 C361.129959,27.8997982 360.062615,31.3422032 359.892979,35.7529792 L379.232669,35.7529792 Z" id="path6737"></path>
                    <path d="M456.146926,61.539232 L435.746949,61.539232 L435.746949,58.7400653 C436.397197,58.6835201 437.054589,58.6269749 437.719082,58.570408 C438.383488,58.5138628 438.970177,58.4007725 439.47917,58.2311152 C440.270803,57.976651 440.857491,57.5313295 441.239258,56.8951506 C441.620895,56.2589826 441.811746,55.4319572 441.811811,54.4140723 L441.811811,32.8265685 C441.811746,29.8860628 441.140239,27.6170441 439.797248,26.0195059 C438.454169,24.4220394 436.778899,23.6232888 434.77148,23.6232497 C433.385993,23.6232888 432.085367,23.8353376 430.869623,24.2594243 C429.653772,24.6835783 428.536939,25.2773396 427.519104,26.0407125 C426.699091,26.6627834 426.013448,27.3343008 425.462132,28.0552627 C424.910752,28.776292 424.493698,29.3771236 424.210994,29.8577554 L424.210994,53.9899552 C424.210951,54.9795676 424.380586,55.7924545 424.719944,56.4286225 C425.059172,57.0648014 425.638803,57.552534 426.458817,57.8918224 C427.109065,58.1462974 427.695775,58.3371483 428.218884,58.4643793 C428.741926,58.5916277 429.427569,58.6835092 430.275856,58.7400544 L430.275856,61.539232 L410.299989,61.539232 L410.299989,58.7400544 C410.950281,58.6835092 411.579378,58.6269641 412.187304,58.5703972 C412.795165,58.513852 413.353603,58.4007616 413.862575,58.2311044 C414.654207,57.9766402 415.240918,57.5313187 415.622641,56.8951398 C416.004321,56.2589718 416.195172,55.4319464 416.195194,54.4140615 L416.195194,32.8265577 C416.195172,29.8860519 415.523644,27.6170332 414.180652,26.0194951 C412.837596,24.4220286 411.162325,23.623278 409.154884,23.6232389 C407.769397,23.623278 406.468793,23.8424036 405.253006,24.28062 C404.037198,24.7189103 402.920344,25.3197398 401.902487,26.0831127 C401.082517,26.7051836 400.389795,27.4049758 399.824322,28.1824872 C399.258826,28.960066 398.834694,29.5467591 398.551968,29.9425689 L398.551968,53.9051223 C398.551968,54.8664576 398.749789,55.6722786 399.145736,56.3225829 C399.541552,56.9728981 400.13532,57.467701 400.927018,57.8069894 C401.520764,58.0897371 402.128668,58.3017945 402.75073,58.443164 C403.372749,58.5845269 404.065471,58.6834984 404.828896,58.7400436 L404.828896,61.539232 L384.513737,61.539232 L384.513737,58.7400436 C385.16405,58.6834984 385.835556,58.6269532 386.528278,58.5703863 C387.221,58.5138411 387.821825,58.4007508 388.330775,58.2310935 C389.122451,57.9766293 389.70914,57.5313078 390.090863,56.8951289 C390.472565,56.2589609 390.663416,55.4319355 390.663416,54.4140506 L390.663416,28.4157404 C390.663416,27.5109936 390.458429,26.6981046 390.048455,25.9770732 C389.638459,25.2561112 389.065906,24.6411433 388.330775,24.1321672 C387.793553,23.7929135 387.129103,23.5172384 386.337427,23.3051418 C385.545751,23.0931191 384.725781,22.95882 383.87756,22.9022314 L383.87756,20.1454779 L397.873382,19.2124216 L398.46715,19.8061851 L398.46715,25.7862201 L398.764034,25.7862201 C399.470871,25.0793967 400.33325,24.2453032 401.35115,23.2839352 C402.369007,22.3226454 403.316182,21.5451014 404.192719,20.9512988 C405.182303,20.2727545 406.419305,19.7072658 407.903724,19.2548349 C409.388122,18.8024864 410.99269,18.5762493 412.717448,18.5762493 C415.431769,18.5762493 417.764388,19.3043575 419.71537,20.7604458 C421.666266,22.2166167 423.065846,23.9766962 423.91411,26.0406908 C424.931945,25.0511219 425.829654,24.1816855 426.607259,23.4323772 C427.384755,22.6831448 428.409691,21.884392 429.682088,21.036121 C430.756468,20.3010293 432.021742,19.7072658 433.477933,19.2548349 C434.934015,18.8024864 436.552718,18.5762493 438.334065,18.5762493 C441.868291,18.5762493 444.667451,19.7355405 446.731546,22.0539994 C448.79551,24.3725385 449.827524,27.9351086 449.827611,32.7417225 L449.827611,53.9899335 C449.827524,54.9795458 449.997203,55.7924328 450.33654,56.4286008 C450.675767,57.0647797 451.255377,57.5525122 452.075413,57.8918007 C452.72566,58.1462757 453.368894,58.3371266 454.005136,58.4643576 C454.641248,58.5916059 455.355163,58.6834875 456.146926,58.7400327 L456.146926,61.539232 Z" id="path6739"></path>
                    <path d="M488.237859,29.8773251 L482.625711,29.8773251 L482.625711,29.077269 C482.798727,29.077269 483.044718,29.0561203 483.363728,29.0392013 C483.682693,29.0138228 483.896266,28.9757552 484.004423,28.9228834 C484.177439,28.8107951 484.296343,28.7177408 484.361269,28.6460466 C484.42615,28.574141 484.458479,28.4620528 484.458479,28.3074556 L484.458479,21.3685608 L484.215164,21.3685608 L480.257484,29.5383111 L479.738435,29.5383111 L475.894286,21.2148096 L475.650971,21.2148096 L475.650971,26.815202 C475.650971,27.3587241 475.686199,27.7715471 475.756431,28.053671 C475.826663,28.3357949 475.948399,28.548551 476.121393,28.6921508 C476.261857,28.7746308 476.499843,28.8592257 476.835062,28.9459355 C477.170259,29.0326452 477.462224,29.0770575 477.710957,29.0770575 L477.710957,29.8771136 L472.601627,29.8771136 L472.601627,29.1077232 C472.774643,29.078115 473.031447,29.0379324 473.372084,28.9935201 C473.712699,28.9469929 473.969503,28.8687426 474.142542,28.7549625 C474.32626,28.6217256 474.450693,28.4370973 474.515597,28.2010776 C474.580478,27.9652693 474.612807,27.5241071 474.61303,26.8780137 L474.61303,21.539231 C474.613007,21.2930599 474.572451,21.0879173 474.491294,20.9238033 C474.410137,20.7588433 474.293975,20.6160894 474.142564,20.4930039 C473.98025,20.3703413 473.777602,20.2802477 473.534309,20.2237807 C473.290994,20.1666791 473.01254,20.1286114 472.698971,20.1074627 L472.698971,19.3228452 L477.208162,19.3228452 L480.630584,26.584681 L483.485307,20.630682 C483.604145,20.3741481 483.693328,20.1305148 483.752947,19.8997823 C483.812478,19.6690498 483.858407,19.4765964 483.890736,19.3228452 L488.237859,19.3228452 L488.237859,20.1074627 C488.053784,20.1074627 487.818673,20.1434155 487.532148,20.1835981 C487.245557,20.2237807 487.04282,20.2660781 486.923894,20.3062607 C486.76158,20.3358689 486.658929,20.4077745 486.61572,20.5215546 C486.572466,20.6336428 486.550839,20.7472115 486.550839,20.8601456 L486.550839,28.3066097 C486.550794,28.450421 486.573135,28.5656815 486.61572,28.6528142 C486.658974,28.739524 486.761758,28.8198891 486.923894,28.8913718 C487.032029,28.92098 487.218534,28.9611625 487.483476,29.0055748 C487.748374,29.052102 487.999783,29.0753656 488.237859,29.0753656 L488.237859,29.8773251 Z" id="path6742-path"></path>
                    <path d="M470.720209,22.3691067 L469.941636,22.3691067 C469.833501,22.0307272 469.61451,21.6075414 469.284731,21.0997606 C468.954908,20.5921913 468.6332,20.3075296 468.319631,20.2459868 C468.081733,20.2248381 467.849232,20.210034 467.62217,20.1994596 C467.395086,20.1994596 467.205839,20.1783109 467.054472,20.1783109 L466.259689,20.1783109 L466.259689,28.2402027 C466.259667,28.384014 466.283992,28.5043502 466.332597,28.6018458 C466.381202,28.6991299 466.492013,28.7837248 466.665118,28.8556304 C466.773253,28.8873535 466.973292,28.9296509 467.265257,28.9867525 C467.557222,29.043854 467.827538,29.0713474 468.076271,29.0713474 L468.076271,29.8714034 L462.350592,29.8714034 L462.350592,29.0713474 C462.566863,29.0713474 462.831783,29.0501986 463.145375,29.0184756 C463.458944,28.9825227 463.664401,28.9486848 463.761723,28.9190766 C463.924037,28.8683197 464.032061,28.7858397 464.086128,28.6729055 C464.140084,28.5608173 464.167285,28.4472487 464.167285,28.334526 L464.167285,20.1802143 L463.372503,20.1802143 C463.210189,20.1802143 462.99403,20.1802143 462.723692,20.2034779 C462.453354,20.2246266 462.247898,20.2309712 462.107322,20.2415456 C461.772103,20.2923025 461.445,20.5773872 461.126012,21.0953194 C460.807024,21.613463 460.593452,22.0364374 460.485317,22.3646655 L459.706766,22.3646655 L459.706766,19.318404 L470.720209,19.318404 L470.720209,22.3691067 Z" id="path6742-path"></path>
                </g>
            </g>
            <g id="SEGA_logo">
                <path d="M68.1099223,41.8839522 C70.6480086,44.3487713 74.1090772,45.8726368 77.9263442,45.8726368 L138.239992,45.8795488 L125.214098,7.01936552 C123.434949,2.89105847 119.261023,-5.62499954e-07 114.24798,-5.62499954e-07 C109.256134,-5.62499954e-07 105.019079,2.98552247 103.306285,7.09677992 L98.9641669,19.755416 L98.9471173,0.653874608 L77.8844114,0.643276209 C74.077282,0.643276209 70.6549206,2.12889532 68.1343447,4.58634157 L68.1417175,0.660325808 L46.575818,0.660325808 C42.5590247,0.660325808 38.9058025,2.37311931 36.3506666,5.06511284 L36.3506666,0.643276209 L16.0247798,0.660786608 C7.25022677,0.653413808 0.0525311969,7.51242149 0.0419327975,16.580965 C0.0419327975,20.7793135 1.87683829,24.5869037 4.58265573,27.4079211 L0,27.4005483 L0,45.8726368 L20.4788724,45.8689504 C26.2328816,45.8620384 31.9348205,42.3903714 33.9167212,38.2307301 L33.9761644,38.0597733 C36.2658794,42.6843618 41.0443752,45.8726368 46.5748964,45.8726368 L68.1094615,45.8689504 L68.1094615,41.8839522" id="Path" fill="#FFFFFF"></path>
                <path d="M3.16385261,42.7120098 L20.4332532,42.6944994 C27.4986992,42.6944994 33.2245996,36.9861093 33.2245996,29.9524586 C33.2245996,22.9049838 27.4986992,17.1961329 20.4332532,17.1961329 L15.948287,17.2205553 C15.5948535,17.2205553 15.3082359,16.9307121 15.3082359,16.574053 C15.3082359,16.2173938 15.5948535,15.9270898 15.948287,15.9270898 L33.1863532,15.9307762 L33.1932652,10.5228277 L15.9446006,10.5228277 C12.6097912,10.5228277 9.89660101,13.2318708 9.89660101,16.560229 C9.89660101,19.8918128 12.6093304,22.5902574 15.9446006,22.5902574 L20.4507636,22.6497006 C24.4988913,22.6497006 27.7747183,25.9144684 27.7747183,29.942321 C27.7747183,33.9729383 24.4993521,37.2450789 20.4507636,37.2450789 L3.17076461,37.2450789 L3.16385261,42.7120098" id="Path" fill="#0060A8"></path>
                <path d="M3.17076461,35.975575 L20.4507636,35.975575 C23.7961714,35.975575 26.5019888,33.2771304 26.5019888,29.9418602 C26.5019888,26.6102764 23.7961714,23.9150573 20.4507636,23.9150573 L15.9446006,23.8662125 C11.9033849,23.8662125 8.62433229,20.5977583 8.62433229,16.5597682 C8.62433229,12.5328372 11.9033849,9.26392219 15.9446006,9.26392219 L33.1932652,9.26023579 L33.1863532,3.83155122 L15.948287,3.83155122 C8.89021387,3.83155122 3.15694061,9.53349017 3.15694061,16.574053 C3.15694061,23.6146157 8.89021387,29.3197802 15.948287,29.3197802 L20.4088308,29.3266922 C20.7479796,29.3266922 21.0345971,29.6031722 21.0345971,29.9524586 C21.0345971,30.2952937 20.7479796,30.5713129 20.4088308,30.5713129 L3.16385261,30.5851369 L3.17076461,35.975575" id="Path" fill="#0060A8"></path>
                <path d="M46.6136036,37.2796389 C43.6174822,37.2796389 41.1632615,34.8917735 41.1632615,31.8431208 L41.1632615,14.5916915 C41.1632615,11.6586996 43.6174822,9.24641179 46.6136036,9.24641179 L65.0469849,9.24963739 L65.0469849,3.83155122 L46.6136036,3.83155122 C40.6149096,3.83155122 35.7557739,8.67317662 35.7557739,14.6511347 L35.7557739,31.8435816 C35.7557739,37.8220005 40.6149096,42.6705378 46.6136036,42.6705378 L64.9700313,42.6779106 L64.9663449,37.2731877 L46.6136036,37.2796389" id="Path" fill="#0060A8"></path>
                <path d="M42.4848359,14.6511347 C42.4848359,12.365106 44.3238886,10.5122293 46.6136036,10.5122293 L65.0469849,10.5122293 L65.0469849,15.9376882 L49.1655139,15.9376882 C47.8932451,15.9376882 47.8757347,17.1998193 47.8757347,17.1998193 L61.1251164,17.1998193 L61.1251164,22.6008558 L42.4783847,22.6008558 L42.4848359,14.6511347" id="Path" fill="#0060A8"></path>
                <path d="M46.6136036,35.9654374 C44.3308006,35.9654374 42.4779239,34.1231591 42.4779239,31.8435816 L42.4779239,23.8869485 L61.1246556,23.8869485 L61.1246556,29.2990442 L47.8752739,29.2990442 C47.8927843,30.5713129 49.1650531,30.5777641 49.1650531,30.5777641 L64.9695705,30.5777641 L64.9658841,35.9580646 L46.6136036,35.9654374" id="Path" fill="#0060A8"></path>
                <path d="M77.9645906,37.2658149 C74.9790675,37.2658149 72.5391317,34.8327911 72.5391317,31.8431208 L72.5391317,14.6506739 C72.5391317,11.6582388 74.9615571,9.24595099 77.9503058,9.24595099 L95.8040007,9.24595099 L95.8040007,3.83155122 L77.9088338,3.83155122 C71.9129045,3.83155122 67.0537688,8.67317662 67.0537688,14.6511347 L67.0537688,31.8435816 C67.0537688,37.8220005 71.9548373,42.6705378 77.9503058,42.6705378 L95.8040007,42.6779106 L95.8040007,17.1998193 L80.460744,17.1998193 L80.460744,22.6008558 L90.3817674,22.6008558 L90.3817674,37.2658149 L77.9645906,37.2658149" id="Path" fill="#0060A8"></path>
                <path d="M73.8114004,31.8431208 C73.8114004,34.1337575 75.6642771,35.9967718 77.9503058,35.9967718 L89.1021259,35.9967718 L89.1021259,23.8800365 L80.4741072,23.8800365 L80.4741072,29.2990442 L83.6762062,29.2990442 L83.6863438,30.5713129 L80.4985296,30.5713129 C79.8027216,30.5713129 79.2331729,29.9948522 79.2331729,29.2990442 L79.2046033,17.1961329 C79.2046033,17.1961329 79.2009169,15.9376882 80.4842448,15.9063538 L95.8099911,15.9063538 L95.8030791,10.5085429 L77.9493842,10.5122293 C75.6633555,10.5122293 73.8104788,12.365106 73.8104788,14.6511347 L73.8104788,31.8431208" id="Path" fill="#0060A8"></path>
                <path d="M112.580345,10.4315893 C112.820883,9.74315416 113.474758,9.24687259 114.24752,9.24687259 C115.020742,9.24687259 115.681068,9.74315416 115.915155,10.4315893 L124.581881,36.0350182 L111.891449,36.0350182 L111.905273,30.0119018 L116.146015,30.0119018 L114.236921,24.3380717 L108.017965,42.6733026 L101.620679,42.6733026 L112.580345,10.4315893" id="Path" fill="#0060A8"></path>
                <path d="M126.329234,37.2658149 L111.912646,37.2658149 L111.912646,42.6733026 L133.852254,42.6733026 L122.441926,8.91417501 C121.44199,5.6212984 118.145887,3.19887286 114.243833,3.19887286 C110.335789,3.19887286 107.049824,5.6107 106.042515,8.90081181 L94.5275848,42.6737634 L100.271456,42.6737634 L111.451385,9.84453015 C111.905273,8.75750302 112.975712,7.99165346 114.234156,7.99165346 C115.485689,7.99165346 116.562118,8.75750302 117.020153,9.83761815 L126.329234,37.2658149" id="Path" fill="#0060A8"></path>
                <path d="M129.717035,8.12805025 C130.738168,8.12805025 131.699397,7.72945828 132.419627,7.01291432 C133.139397,6.28945836 133.541675,5.33514162 133.541675,4.31446959 C133.541675,3.30070965 133.139397,2.34961851 132.419627,1.62616255 C131.699397,0.913304993 130.738168,0.514713016 129.717035,0.514713016 C127.616248,0.514713016 125.899768,2.21736891 125.899768,4.31493039 C125.899768,5.33560242 126.29836,6.28991916 127.025042,7.01337512 C127.742047,7.72945828 128.699589,8.12805025 129.717035,8.12805025 M126.438444,4.31400879 C126.438444,3.44355764 126.773906,2.61872569 127.399212,1.99987133 C128.021752,1.38101696 128.846584,1.04555458 129.717035,1.04555458 C130.598085,1.04555458 131.422917,1.38147776 132.045458,1.99987133 C132.664312,2.61872569 133.007147,3.44355764 133.007147,4.31400879 C133.007147,6.12126637 131.531666,7.58937509 129.717035,7.58937509 C128.846124,7.58937509 128.021292,7.25022631 127.399212,6.63137194 C126.773445,6.01297838 126.438444,5.19137203 126.438444,4.31400879 Z" id="Shape" fill="#FFFFFF"></path>
                <path d="M128.738296,4.63564726 L128.738296,6.43230636 L128.185797,6.43230636 L128.185797,2.20953532 L129.755282,2.20953532 C130.346488,2.21644731 130.692549,2.21644731 131.021099,2.4643577 C131.339051,2.69890489 131.472223,3.05187767 131.472223,3.44355764 C131.472223,4.42966958 130.668587,4.55869358 130.464914,4.60062637 L131.653778,6.43230636 L130.986079,6.43230636 L129.82901,4.63564726 L128.738296,4.63564726 M128.738296,4.1707 L129.860344,4.1707 C130.039135,4.1707 130.206866,4.1707 130.374597,4.1287672 C130.766277,4.03430321 130.905899,3.75459762 130.905899,3.44724404 C130.905899,3.33526965 130.895301,3.05233847 130.653842,2.85649848 C130.433119,2.67125689 130.153874,2.67816889 129.82901,2.67816889 L128.738296,2.67816889 L128.738296,4.1707 L128.738296,4.1707 Z" id="Shape" fill="#FFFFFF"></path>
            </g>
        </g>
    </g>
</svg>