<svg width="489" height="116" viewBox="0 0 489 116" fill="none" xmlns="http://www.w3.org/2000/svg">
<path d="M68.189 42.005C70.7271 44.4699 74.1882 45.9937 78.0054 45.9937L138.319 46.0006L125.293 7.14046C123.514 3.01215 119.34 0.121094 114.327 0.121094C109.335 0.121094 105.098 3.10662 103.385 7.21787L99.0433 19.8765L99.0262 0.774969L77.9635 0.764371C74.1564 0.764371 70.734 2.24999 68.2134 4.70744L68.2208 0.78142H46.6549C42.6381 0.78142 38.9849 2.49421 36.4298 5.18621V0.764371L16.1039 0.781881C7.32933 0.774508 0.131633 7.63352 0.121034 16.7021C0.121034 20.9004 1.95594 24.708 4.66176 27.529L0.0791016 27.5216V45.9937L20.558 45.99C26.312 45.9831 32.0139 42.5115 33.9958 38.3518L34.0553 38.1809C36.345 42.8055 41.1235 45.9937 46.654 45.9937L68.1886 45.99V42.005" fill="white"/>
<path d="M3.24316 42.8337L20.5126 42.8162C27.578 42.8162 33.3039 37.1078 33.3039 30.0742C33.3039 23.0267 27.578 17.3178 20.5126 17.3178L16.0276 17.3423C15.6742 17.3423 15.3875 17.0524 15.3875 16.6958C15.3875 16.3391 15.6742 16.0488 16.0276 16.0488L33.2657 16.0525L33.2726 10.6445H16.0239C12.6891 10.6445 9.97591 13.3536 9.97591 16.6819C9.97591 20.0135 12.6886 22.712 16.0239 22.712L20.5301 22.7714C24.5782 22.7714 27.854 26.0362 27.854 30.064C27.854 34.0946 24.5787 37.3668 20.5301 37.3668H3.25008L3.24316 42.8337" fill="#0060A8"/>
<path d="M3.24966 36.0971H20.5297C23.8751 36.0971 26.5809 33.3987 26.5809 30.0634C26.5809 26.7319 23.8751 24.0366 20.5297 24.0366L16.0235 23.9878C11.9823 23.9878 8.70323 20.7193 8.70323 16.6813C8.70323 12.6544 11.9823 9.3855 16.0235 9.3855L33.2722 9.38181L33.2653 3.95312H16.0272C8.96911 3.95312 3.23584 9.65506 3.23584 16.6956C3.23584 23.7362 8.96911 29.4414 16.0272 29.4414L20.4877 29.4483C20.8269 29.4483 21.1135 29.7247 21.1135 30.074C21.1135 30.4169 20.8269 30.6929 20.4877 30.6929L3.24275 30.7067L3.24966 36.0971" fill="#0060A8"/>
<path d="M46.6928 37.4012C43.6967 37.4012 41.2424 35.0133 41.2424 31.9647V14.7133C41.2424 11.7803 43.6967 9.36799 46.6928 9.36799L65.1262 9.37121V3.95312H46.6928C40.6941 3.95312 35.835 8.79475 35.835 14.7727V31.9652C35.835 37.9436 40.6941 42.7921 46.6928 42.7921L65.0492 42.7995L65.0455 37.3948L46.6928 37.4012" fill="#0060A8"/>
<path d="M42.5641 14.7717C42.5641 12.4857 44.4031 10.6328 46.6928 10.6328H65.1262V16.0583H49.2447C47.9725 16.0583 47.955 17.3204 47.955 17.3204H61.2043V22.7214H42.5576L42.5641 14.7717" fill="#0060A8"/>
<path d="M46.6928 36.0863C44.41 36.0863 42.5571 34.244 42.5571 31.9644V24.0078H61.2039V29.4199H47.9545C47.972 30.6922 49.2443 30.6986 49.2443 30.6986H65.0488L65.0451 36.0789L46.6928 36.0863" fill="#0060A8"/>
<path d="M78.0436 37.3874C75.0581 37.3874 72.6182 34.9544 72.6182 31.9647V14.7722C72.6182 11.7798 75.0406 9.36752 78.0293 9.36752H95.883V3.95312H77.9879C71.9919 3.95312 67.1328 8.79475 67.1328 14.7727V31.9652C67.1328 37.9436 72.0339 42.7921 78.0293 42.7921L95.883 42.7995V17.3214H80.5398V22.7224H90.4608V37.3874H78.0436" fill="#0060A8"/>
<path d="M73.8906 31.9635C73.8906 34.2541 75.7434 36.1171 78.0295 36.1171H89.1813V24.0004H80.5533V29.4194H83.7554L83.7655 30.6917H80.5777C79.8819 30.6917 79.3123 30.1152 79.3123 29.4194L79.2838 17.3165C79.2838 17.3165 79.2801 16.0581 80.5634 16.0267H95.8892L95.8822 10.6289L78.0286 10.6326C75.7425 10.6326 73.8896 12.4855 73.8896 14.7715V31.9635" fill="#0060A8"/>
<path d="M112.659 10.5519C112.9 9.86347 113.554 9.36719 114.327 9.36719C115.1 9.36719 115.76 9.86347 115.994 10.5519L124.661 36.1553H111.97L111.984 30.1322H116.225L114.316 24.4584L108.097 42.7936H101.7L112.659 10.5519" fill="#0060A8"/>
<path d="M126.408 37.3873H111.992V42.7947H133.931L122.521 9.03561C121.521 5.74274 118.225 3.32031 114.323 3.32031C110.415 3.32031 107.129 5.73214 106.121 9.02225L94.6064 42.7952H100.35L111.53 9.96597C111.984 8.87894 113.055 8.11309 114.313 8.11309C115.565 8.11309 116.641 8.87894 117.099 9.95906L126.408 37.3873" fill="#0060A8"/>
<path fill-rule="evenodd" clip-rule="evenodd" d="M132.499 7.13492C131.779 7.85146 130.817 8.25006 129.796 8.25006C128.779 8.25006 127.821 7.85146 127.104 7.13538C126.378 6.41192 125.979 5.45761 125.979 4.43694C125.979 2.33937 127.695 0.636719 129.796 0.636719C130.817 0.636719 131.779 1.03531 132.499 1.74817C133.219 2.47162 133.621 3.42272 133.621 4.43648C133.621 5.45715 133.219 6.41146 132.499 7.13492ZM127.478 2.12229C126.853 2.74114 126.518 3.56597 126.518 4.43642C126.518 5.31379 126.853 6.13539 127.478 6.75379C128.1 7.37264 128.925 7.71179 129.796 7.71179C131.611 7.71179 133.086 6.24368 133.086 4.43642C133.086 3.56597 132.743 2.74114 132.125 2.12229C131.502 1.50389 130.677 1.16797 129.796 1.16797C128.926 1.16797 128.101 1.50343 127.478 2.12229Z" fill="white"/>
<path fill-rule="evenodd" clip-rule="evenodd" d="M128.817 6.55285V4.75619H129.908L131.065 6.55285H131.733L130.544 4.72117C130.55 4.71984 130.557 4.71842 130.565 4.7169C130.798 4.6702 131.551 4.51897 131.551 3.5641C131.551 3.17242 131.418 2.81945 131.1 2.5849C130.777 2.34099 130.437 2.33705 129.863 2.33041C129.853 2.3303 129.844 2.33019 129.834 2.33008H128.265V6.55285H128.817ZM129.939 4.29124H128.817V2.79871H129.908C129.919 2.79871 129.93 2.7987 129.942 2.79869C130.252 2.79846 130.52 2.79826 130.733 2.97704C130.974 3.17288 130.985 3.45581 130.985 3.56779C130.985 3.87514 130.845 4.15485 130.453 4.24931C130.286 4.29124 130.118 4.29124 129.939 4.29124Z" fill="white"/>
<path d="M122.965 71.7256H115.485C115.917 71.1673 116.311 70.5837 116.693 70H113.475C111.376 72.6899 108.399 75.1006 104.761 76.7501L106.796 78.8563C109.353 77.5495 111.592 75.9 113.436 74.0475H120.764C119.555 75.7097 118.029 77.2576 116.197 78.5899L112.622 75.7604L111.172 77.5875L114.149 79.9348C111.566 81.432 108.552 82.5359 105.193 83.0434L107.038 85.5938C115.968 83.7413 122.507 77.9174 124.987 71.7256C124.987 71.7256 123.779 71.7256 122.977 71.7256H122.965Z" fill="#0898FF"/>
<path d="M37.0847 73.3645L32.8995 70.4082L29.9736 73.0093L34.1461 75.9656L37.0847 73.3645Z" fill="#0898FF"/>
<path d="M26.9463 81.4831V83.805C35.622 83.5005 42.6059 79.3261 46.1805 73.6799L44.2087 72.2969C41.0921 77.296 34.7824 81.204 26.9463 81.4831Z" fill="#0898FF"/>
<path d="M63.1247 75.2148L62.2469 73.0705C59.2448 74.3013 55.8737 74.8849 52.3754 74.6439L53.6093 70H51.1669L48.0503 81.5843C47.745 82.7135 48.5973 83.8047 49.7676 83.8047H61.7254L62.3487 81.4828H50.5054L51.7266 76.9404C55.7719 77.283 59.6646 76.6486 63.1247 75.2148Z" fill="#0898FF"/>
<path d="M67.3608 71.2699C67.03 70.4452 65.7834 70.1533 64.5749 70.6355C63.3791 71.1176 62.6921 72.1834 63.0229 73.0209C63.3536 73.8456 64.6003 74.1374 65.8088 73.6553C66.9919 73.1604 67.7042 72.0946 67.3608 71.2699ZM65.4908 72.9067C65.2109 73.0209 64.9056 73.0843 64.6385 73.0843C64.2187 73.0843 63.8752 72.932 63.7862 72.7163C63.6971 72.5006 63.8498 72.2469 63.9134 72.1454C64.1169 71.8409 64.4731 71.5617 64.8929 71.3968C65.1727 71.2826 65.478 71.2191 65.7452 71.2191C66.165 71.2191 66.5085 71.3587 66.5975 71.5871C66.7502 71.917 66.3049 72.5641 65.4908 72.9067Z" fill="#0898FF"/>
<path d="M23.0154 71.7383H11.1976L10.5742 74.0475H22.4048L20.6238 80.6581H8.53886L7.91553 82.98H20.0005L19.7206 83.9824H22.1631L25.4451 71.7383H23.7914H23.0154Z" fill="#0898FF"/>
<path d="M85.2847 78.1852H103.259L103.896 75.8633H85.9207L85.2847 78.1852Z" fill="#0898FF"/>
<path d="M149.144 81.6861L152.172 70.4824H149.73L145.824 84.9723C153.266 84.4775 159.474 81.1532 163.367 76.8011L161.446 75.0502C158.571 78.1461 154.284 80.6583 149.144 81.6861Z" fill="#0898FF"/>
<path d="M125.712 77.5251H134.057C132.289 80.6337 129.121 82.6765 125.992 82.7018L127.62 84.9349C131.487 84.2752 135.024 81.433 136.754 77.5124H143.102L143.725 75.2031H126.335L125.712 77.5251Z" fill="#0898FF"/>
<path d="M142.822 71.0156H129.935L129.325 73.3376H142.198L142.822 71.0156Z" fill="#0898FF"/>
<path d="M201.478 71.0156H199.239L198.642 73.2234H200.88L201.478 71.0156Z" fill="#0898FF"/>
<path d="M202.343 71.0156L201.758 73.2234H204.01L204.608 71.0156H202.343Z" fill="#0898FF"/>
<path d="M184.689 70.6867L182.415 71.2891L182.983 73.4228L185.257 72.8205L184.689 70.6867Z" fill="#0898FF"/>
<path d="M181.85 71.4597L179.573 72.0561L179.967 73.5406C177.181 74.5176 173.429 75.355 170.261 75.3677L171.432 71.0156H168.976L166.127 81.5849C165.822 82.7141 166.674 83.8053 167.844 83.8053H179.7L180.4 81.4834H168.595L169.612 77.715C173.683 77.8292 178.797 76.573 182.105 75.2281L181.532 73.8324L182.41 73.604L181.85 71.4597Z" fill="#0898FF"/>
<path d="M204.99 76.5098L204.354 78.8444H222.29L222.913 76.5098H204.99Z" fill="#0898FF"/>
<path d="M237.492 85.6197L240.926 84.224C240.379 81.3819 239.4 78.6793 238.013 76.1543L234.629 77.5373C235.342 78.8062 235.94 80.113 236.423 81.4834H228.027C230.978 78.6031 233.624 75.1139 235.749 71.0156H232.836C230.533 75.2154 227.62 78.73 224.414 81.4834H223.206L222.57 83.8053H222.71H225.394H237.11C237.263 84.4143 237.39 85.0107 237.492 85.6197Z" fill="#0898FF"/>
<path d="M81.1506 72.8809H80.1711H78.7209H71.4826L70.8593 75.2028H78.0848L76.8255 79.9101H67.4246L66.7886 82.2574H76.1894H78.6318H81.5068L82.1428 79.9101H79.2552L81.1506 72.8809Z" fill="#0898FF"/>
<path d="M196.263 74.0247H192.472C193.324 73.0477 194.138 72.0453 194.876 70.9922H191.937C189.851 73.644 187.256 76.0421 184.445 77.958L185.819 79.8485C187.358 78.7954 188.821 77.6281 190.169 76.3339H195.55C193.833 80.4829 189.673 83.1855 185.819 82.6019L187.587 85.038C192.205 84.67 196.504 81.1808 198.12 76.3212H202.509L203.132 74.012V73.9993H198.654L196.263 74.0247Z" fill="#0898FF"/>
<path d="M139.947 99.8952L138.725 104.425H149.207L147.477 110.87H114.326L119.008 93.4242H160.122L161.343 88.8945H115.675C113.805 88.8945 111.871 90.4044 111.375 92.2823L111.07 93.4369L106.071 112.038C105.574 113.903 106.668 115.425 108.551 115.425H154.22L158.392 99.9079H139.947V99.8952Z" fill="#0898FF"/>
<path d="M64.8417 104.426H97.6237L98.845 99.8962H66.0629L67.7929 93.4506H108.907L110.116 88.9082H64.46C62.59 88.9082 60.6564 90.4181 60.1603 92.2959L54.8557 112.026C54.3595 113.891 55.4535 115.414 57.3363 115.414H103.005L104.226 110.884H63.1116L64.8417 104.426Z" fill="#0898FF"/>
<path d="M49.9201 99.8952H12.2022L13.9323 93.4496H55.0466L56.2679 88.9199H10.6121C8.74212 88.9199 6.80852 90.4298 6.3124 92.3077L3.95901 101.062C3.46289 102.928 4.5569 104.45 6.43961 104.45H44.1574L42.4147 110.896H1.30032L0.0791016 115.413H45.7476C47.6176 115.413 49.5512 113.903 50.0473 112.025L52.3879 103.258C52.9095 101.405 51.7901 99.8952 49.9201 99.8952Z" fill="#0898FF"/>
<path d="M179.318 88.8945L156.242 115.413H165.211L183.262 94.6676L190.831 105.326H177.728L173.874 109.855H194.075L198.018 115.413H208.004L189.139 88.8945H179.318Z" fill="#0898FF"/>
<path d="M297.865 88.8945L274.79 115.413H283.732L301.796 94.6676L309.378 105.326H296.275L292.408 109.855H312.609L316.565 115.413H326.539L307.686 88.8945H297.865Z" fill="#0898FF"/>
<path d="M386.594 88.8945L379.471 115.413H387.421L394.545 88.8945H386.594Z" fill="#0898FF"/>
<path d="M379.992 100.695L382.257 92.2823C382.753 90.4171 381.659 88.8945 379.776 88.8945H334.108L326.971 115.413H334.922L340.824 93.4242H373.988L372.347 99.5272H343.903L364.104 115.387H376.634L361.611 104.07H375.68C377.575 104.082 379.496 102.56 379.992 100.695Z" fill="#0898FF"/>
<path d="M434.146 88.8945H421.234L391.289 102.788L413.029 115.413H425.941L404.188 102.788L434.146 88.8945Z" fill="#0898FF"/>
<path d="M483.694 76.2188H474.738H469.701H460.745H455.708H446.752H442.007L441.651 77.5383H444.577C445.582 77.5383 446.154 78.4011 445.874 79.4796L437.097 112.139C436.804 113.217 435.761 114.08 434.769 114.08H431.843L431.487 115.4H436.232H445.187H450.225H459.18H464.218H473.174H477.919L478.275 114.08H475.349C474.344 114.08 473.771 113.217 474.051 112.139L482.829 79.4796C483.121 78.4011 484.165 77.5383 485.157 77.5383H488.083L488.439 76.2188H483.694ZM459.867 79.4923L451.09 112.152C450.797 113.23 449.754 114.093 448.762 114.093H447.363C446.358 114.093 445.785 113.23 446.065 112.152L454.843 79.4923C455.135 78.4138 456.178 77.551 457.171 77.551H458.57C459.575 77.551 460.147 78.4138 459.867 79.4923ZM473.861 79.4796L465.083 112.139C464.803 113.23 463.747 114.093 462.755 114.093H461.356C460.351 114.093 459.778 113.23 460.058 112.152L468.836 79.4796C469.128 78.4011 470.171 77.5383 471.164 77.5383H472.563C473.568 77.5383 474.14 78.4011 473.861 79.4796Z" fill="#0898FF"/>
<path d="M272.296 88.8945L248.838 108.422L235.85 88.8945H227.912L220.776 115.413H228.727L232.912 99.8317L243.292 115.413H251.294L269.192 100.542L265.185 115.413H273.136L280.259 88.8945H272.296Z" fill="#0898FF"/>
</svg>
