<svg width="120" height="81" viewBox="0 0 120 81" fill="none" xmlns="http://www.w3.org/2000/svg">
<path fill-rule="evenodd" clip-rule="evenodd" d="M89 2.5H31C30.4477 2.5 30 2.94772 30 3.5V28.5C30 29.0523 30.4477 29.5 31 29.5H89C89.5523 29.5 90 29.0523 90 28.5V3.5C90 2.94772 89.5523 2.5 89 2.5ZM31 0.5C29.3431 0.5 28 1.84315 28 3.5V28.5C28 30.1569 29.3431 31.5 31 31.5H89C90.6569 31.5 92 30.1569 92 28.5V3.5C92 1.84315 90.6569 0.5 89 0.5H31Z" fill="white"/>
<path fill-rule="evenodd" clip-rule="evenodd" d="M81.5 21.5C82.8807 21.5 84 20.3807 84 19C84 17.6193 82.8807 16.5 81.5 16.5C80.1193 16.5 79 17.6193 79 19C79 20.3807 80.1193 21.5 81.5 21.5ZM86 19C86 21.4853 83.9853 23.5 81.5 23.5C79.0147 23.5 77 21.4853 77 19C77 16.5147 79.0147 14.5 81.5 14.5C83.9853 14.5 86 16.5147 86 19Z" fill="white"/>
<path fill-rule="evenodd" clip-rule="evenodd" d="M71.5 21.5C72.8807 21.5 74 20.3807 74 19C74 17.6193 72.8807 16.5 71.5 16.5C70.1193 16.5 69 17.6193 69 19C69 20.3807 70.1193 21.5 71.5 21.5ZM76 19C76 21.4853 73.9853 23.5 71.5 23.5C69.0147 23.5 67 21.4853 67 19C67 16.5147 69.0147 14.5 71.5 14.5C73.9853 14.5 76 16.5147 76 19Z" fill="white"/>
<path fill-rule="evenodd" clip-rule="evenodd" d="M49 9H42C40.067 9 38.5 10.567 38.5 12.5V19.5C38.5 21.433 40.067 23 42 23H49C50.933 23 52.5 21.433 52.5 19.5V12.5C52.5 10.567 50.933 9 49 9ZM42 7.5C39.2386 7.5 37 9.73858 37 12.5V19.5C37 22.2614 39.2386 24.5 42 24.5H49C51.7614 24.5 54 22.2614 54 19.5V12.5C54 9.73858 51.7614 7.5 49 7.5H42Z" fill="white"/>
<path d="M45 11C45 10.7239 45.2239 10.5 45.5 10.5V10.5C45.7761 10.5 46 10.7239 46 11V13C46 13.2761 45.7761 13.5 45.5 13.5V13.5C45.2239 13.5 45 13.2761 45 13V11Z" fill="white"/>
<path fill-rule="evenodd" clip-rule="evenodd" d="M44.5 11C44.5 10.4477 44.9477 10 45.5 10C46.0523 10 46.5 10.4477 46.5 11V13C46.5 13.5523 46.0523 14 45.5 14C44.9477 14 44.5 13.5523 44.5 13V11Z" fill="white"/>
<path d="M45 19C45 18.7239 45.2239 18.5 45.5 18.5V18.5C45.7761 18.5 46 18.7239 46 19V21C46 21.2761 45.7761 21.5 45.5 21.5V21.5C45.2239 21.5 45 21.2761 45 21V19Z" fill="white"/>
<path fill-rule="evenodd" clip-rule="evenodd" d="M44.5 19C44.5 18.4477 44.9477 18 45.5 18C46.0523 18 46.5 18.4477 46.5 19V21C46.5 21.5523 46.0523 22 45.5 22C44.9477 22 44.5 21.5523 44.5 21V19Z" fill="white"/>
<path d="M40.5 16.5C40.2239 16.5 40 16.2761 40 16V16C40 15.7239 40.2239 15.5 40.5 15.5H42.5C42.7761 15.5 43 15.7239 43 16V16C43 16.2761 42.7761 16.5 42.5 16.5H40.5Z" fill="white"/>
<path fill-rule="evenodd" clip-rule="evenodd" d="M40.5 17C39.9477 17 39.5 16.5523 39.5 16C39.5 15.4477 39.9477 15 40.5 15H42.5C43.0523 15 43.5 15.4477 43.5 16C43.5 16.5523 43.0523 17 42.5 17H40.5Z" fill="white"/>
<path d="M48.5 16.5C48.2239 16.5 48 16.2761 48 16V16C48 15.7239 48.2239 15.5 48.5 15.5H50.5C50.7761 15.5 51 15.7239 51 16V16C51 16.2761 50.7761 16.5 50.5 16.5H48.5Z" fill="white"/>
<path fill-rule="evenodd" clip-rule="evenodd" d="M48.5 17C47.9477 17 47.5 16.5523 47.5 16C47.5 15.4477 47.9477 15 48.5 15H50.5C51.0523 15 51.5 15.4477 51.5 16C51.5 16.5523 51.0523 17 50.5 17H48.5Z" fill="white"/>
<path fill-rule="evenodd" clip-rule="evenodd" d="M32.75 31L32.75 2L34.25 2L34.25 31H32.75Z" fill="white"/>
<path fill-rule="evenodd" clip-rule="evenodd" d="M58 26.25L90.5 26.25L90.5 24.75L58 24.75C57.0335 24.75 56.25 25.5335 56.25 26.5L56.25 30.5L57.75 30.5L57.75 26.5C57.75 26.362 57.8619 26.25 58 26.25Z" fill="white"/>
<path fill-rule="evenodd" clip-rule="evenodd" d="M58 9.7499L90.5 9.74997L90.5 11.25L58 11.2499C57.0335 11.2499 56.25 10.4664 56.25 9.4999L56.25 1.49997L57.75 1.49997L57.75 9.4999C57.75 9.63797 57.8619 9.7499 58 9.7499Z" fill="white"/>
</svg>
