<svg width="489" height="116" viewBox="0 0 489 116" fill="none" xmlns="http://www.w3.org/2000/svg">
<path d="M122.965 71.8154H115.485C115.917 71.2572 116.311 70.6735 116.693 70.0898H113.475C111.376 72.7797 108.399 75.1905 104.761 76.8399L106.796 78.9462C109.353 77.6393 111.592 75.9898 113.436 74.1374H120.764C119.555 75.7995 118.029 77.3475 116.197 78.6797L112.622 75.8503L111.172 77.6774L114.149 80.0247C111.566 81.5219 108.552 82.6258 105.193 83.1333L107.038 85.6836C115.968 83.8311 122.507 78.0073 124.987 71.8154C124.987 71.8154 123.779 71.8154 122.977 71.8154H122.965Z" fill="white"/>
<path d="M37.0847 73.4544L32.8995 70.498L29.9736 73.0991L34.1461 76.0555L37.0847 73.4544Z" fill="white"/>
<path d="M26.9463 81.5729V83.8949C35.622 83.5904 42.6059 79.416 46.1805 73.7697L44.2087 72.3867C41.0921 77.3859 34.7824 81.2938 26.9463 81.5729Z" fill="white"/>
<path d="M63.1247 75.3047L62.2469 73.1604C59.2448 74.3911 55.8737 74.9748 52.3754 74.7337L53.6093 70.0898H51.1669L48.0503 81.6741C47.745 82.8034 48.5973 83.8946 49.7676 83.8946H61.7254L62.3487 81.5726H50.5054L51.7266 77.0303C55.7719 77.3729 59.6646 76.7384 63.1247 75.3047Z" fill="white"/>
<path d="M67.3608 71.3597C67.03 70.535 65.7834 70.2432 64.5749 70.7253C63.3791 71.2075 62.6921 72.2733 63.0229 73.1107C63.3536 73.9354 64.6003 74.2273 65.8088 73.7451C66.9919 73.2503 67.7042 72.1845 67.3608 71.3597ZM65.4908 72.9965C65.2109 73.1107 64.9056 73.1741 64.6385 73.1741C64.2187 73.1741 63.8752 73.0219 63.7862 72.8062C63.6971 72.5905 63.8498 72.3367 63.9134 72.2352C64.1169 71.9307 64.4731 71.6516 64.8929 71.4866C65.1727 71.3724 65.478 71.309 65.7452 71.309C66.165 71.309 66.5085 71.4486 66.5975 71.6769C66.7502 72.0068 66.3049 72.6539 65.4908 72.9965Z" fill="white"/>
<path d="M23.0154 71.8281H11.1976L10.5742 74.1374H22.4048L20.6238 80.7479H8.53886L7.91553 83.0698H20.0005L19.7206 84.0722H22.1631L25.4451 71.8281H23.7914H23.0154Z" fill="white"/>
<path d="M85.2847 78.2751H103.259L103.896 75.9531H85.9207L85.2847 78.2751Z" fill="white"/>
<path d="M149.144 81.7759L152.172 70.5723H149.73L145.824 85.0621C153.266 84.5673 159.474 81.243 163.367 76.891L161.446 75.14C158.571 78.2359 154.284 80.7482 149.144 81.7759Z" fill="white"/>
<path d="M125.712 77.6149H134.057C132.289 80.7235 129.121 82.7663 125.992 82.7917L127.62 85.0248C131.487 84.365 135.024 81.5229 136.754 77.6022H143.102L143.725 75.293H126.335L125.712 77.6149Z" fill="white"/>
<path d="M142.822 71.1055H129.935L129.325 73.4274H142.198L142.822 71.1055Z" fill="white"/>
<path d="M201.478 71.1055H199.239L198.642 73.3132H200.88L201.478 71.1055Z" fill="white"/>
<path d="M202.343 71.1055L201.758 73.3132H204.01L204.608 71.1055H202.343Z" fill="white"/>
<path d="M184.689 70.7766L182.415 71.3789L182.983 73.5127L185.257 72.9104L184.689 70.7766Z" fill="white"/>
<path d="M181.85 71.5496L179.573 72.1459L179.967 73.6304C177.181 74.6074 173.429 75.4448 170.261 75.4575L171.432 71.1055H168.976L166.127 81.6747C165.822 82.804 166.674 83.8951 167.844 83.8951H179.7L180.4 81.5732H168.595L169.612 77.8048C173.683 77.919 178.797 76.6629 182.105 75.3179L181.532 73.9222L182.41 73.6939L181.85 71.5496Z" fill="white"/>
<path d="M204.99 76.5996L204.354 78.9342H222.29L222.913 76.5996H204.99Z" fill="white"/>
<path d="M237.492 85.7095L240.926 84.3138C240.379 81.4717 239.4 78.7691 238.013 76.2442L234.629 77.6272C235.342 78.896 235.94 80.2029 236.423 81.5732H228.027C230.978 78.693 233.624 75.2037 235.749 71.1055H232.836C230.533 75.3053 227.62 78.8199 224.414 81.5732H223.206L222.57 83.8951H222.71H225.394H237.11C237.263 84.5042 237.39 85.1005 237.492 85.7095Z" fill="white"/>
<path d="M81.1506 72.9707H80.1711H78.7209H71.4826L70.8593 75.2926H78.0848L76.8255 79.9999H67.4246L66.7886 82.3473H76.1894H78.6318H81.5068L82.1428 79.9999H79.2552L81.1506 72.9707Z" fill="white"/>
<path d="M196.263 74.1145H192.472C193.324 73.1375 194.138 72.1351 194.876 71.082H191.937C189.851 73.7339 187.256 76.1319 184.445 78.0478L185.819 79.9384C187.358 78.8853 188.821 77.7179 190.169 76.4237H195.55C193.833 80.5728 189.673 83.2754 185.819 82.6917L187.587 85.1278C192.205 84.7599 196.504 81.2706 198.12 76.4111H202.509L203.132 74.1018V74.0891H198.654L196.263 74.1145Z" fill="white"/>
<path d="M139.947 99.985L138.725 104.515H149.207L147.477 110.96H114.326L119.008 93.5141H160.122L161.343 88.9844H115.675C113.805 88.9844 111.871 90.4943 111.375 92.3721L111.07 93.5267L106.071 112.128C105.574 113.993 106.668 115.515 108.551 115.515H154.22L158.392 99.9977H139.947V99.985Z" fill="white"/>
<path d="M64.8417 104.516H97.6237L98.845 99.986H66.0629L67.7929 93.5404H108.907L110.116 88.998H64.46C62.59 88.998 60.6564 90.5079 60.1603 92.3858L54.8557 112.116C54.3595 113.981 55.4535 115.504 57.3363 115.504H103.005L104.226 110.974H63.1116L64.8417 104.516Z" fill="white"/>
<path d="M49.9201 99.985H12.2022L13.9323 93.5394H55.0466L56.2679 89.0098H10.6121C8.74212 89.0098 6.80852 90.5197 6.3124 92.3975L3.95901 101.152C3.46289 103.017 4.5569 104.54 6.43961 104.54H44.1574L42.4147 110.986H1.30032L0.0791016 115.503H45.7476C47.6176 115.503 49.5512 113.993 50.0473 112.115L52.3879 103.347C52.9095 101.495 51.7901 99.985 49.9201 99.985Z" fill="white"/>
<path d="M179.318 88.9844L156.242 115.503H165.211L183.262 94.7575L190.831 105.416H177.728L173.874 109.945H194.075L198.018 115.503H208.004L189.139 88.9844H179.318Z" fill="white"/>
<path d="M297.865 88.9844L274.79 115.503H283.732L301.796 94.7575L309.378 105.416H296.275L292.408 109.945H312.609L316.565 115.503H326.539L307.686 88.9844H297.865Z" fill="white"/>
<path d="M386.594 88.9844L379.471 115.503H387.421L394.545 88.9844H386.594Z" fill="white"/>
<path d="M379.992 100.784L382.257 92.3721C382.753 90.507 381.659 88.9844 379.776 88.9844H334.108L326.971 115.503H334.922L340.824 93.5141H373.988L372.347 99.6171H343.903L364.104 115.477H376.634L361.611 104.159H375.68C377.575 104.172 379.496 102.65 379.992 100.784Z" fill="white"/>
<path d="M434.146 88.9844H421.234L391.289 102.878L413.029 115.503H425.941L404.188 102.878L434.146 88.9844Z" fill="white"/>
<path d="M483.694 76.3086H474.738H469.701H460.745H455.708H446.752H442.007L441.651 77.6282H444.577C445.582 77.6282 446.154 78.491 445.874 79.5695L437.097 112.229C436.804 113.307 435.761 114.17 434.769 114.17H431.843L431.487 115.49H436.232H445.187H450.225H459.18H464.218H473.174H477.919L478.275 114.17H475.349C474.344 114.17 473.771 113.307 474.051 112.229L482.829 79.5695C483.121 78.491 484.165 77.6282 485.157 77.6282H488.083L488.439 76.3086H483.694ZM459.867 79.5821L451.09 112.241C450.797 113.32 449.754 114.183 448.762 114.183H447.363C446.358 114.183 445.785 113.32 446.065 112.241L454.843 79.5821C455.135 78.5036 456.178 77.6409 457.171 77.6409H458.57C459.575 77.6409 460.147 78.5036 459.867 79.5821ZM473.861 79.5695L465.083 112.229C464.803 113.32 463.747 114.183 462.755 114.183H461.356C460.351 114.183 459.778 113.32 460.058 112.241L468.836 79.5695C469.128 78.491 470.171 77.6282 471.164 77.6282H472.563C473.568 77.6282 474.14 78.491 473.861 79.5695Z" fill="white"/>
<path d="M272.296 88.9844L248.838 108.511L235.85 88.9844H227.912L220.776 115.503H228.727L232.912 99.9216L243.292 115.503H251.294L269.192 100.632L265.185 115.503H273.136L280.259 88.9844H272.296Z" fill="white"/>
<path fill-rule="evenodd" clip-rule="evenodd" d="M114.327 0.210938C119.231 0.210938 123.332 2.97766 125.174 6.96284L125.293 7.2303L138.319 46.0905L78.0054 46.0836C74.3198 46.0836 70.9662 44.663 68.4549 42.3465L68.1886 42.0949V46.0799L46.654 46.0836C41.2387 46.0836 36.5444 43.0268 34.2016 38.5579L34.0553 38.2707L33.9958 38.4417C32.0528 42.5197 26.5342 45.9366 20.8964 46.0755L20.558 46.0799L0.0791016 46.0836V27.6115L4.66176 27.6189C1.95594 24.7978 0.121034 20.9903 0.121034 16.7919C0.131505 7.83262 7.15693 1.02995 15.7874 0.87444L16.1039 0.871725L36.4298 0.854214V5.27605C38.9025 2.6709 42.4036 0.982786 46.2674 0.876586L46.6549 0.871264H68.2208L68.2134 4.79728C70.6471 2.42457 73.9214 0.957826 77.5711 0.859493L77.9635 0.854214L99.0262 0.864813L99.0433 19.9664L103.385 7.30772C105.098 3.19646 109.335 0.210938 114.327 0.210938ZM33.2724 10.7338H16.0237L15.7973 10.7379C12.567 10.8572 9.9757 13.5185 9.9757 16.7712C9.9757 20.027 12.5665 22.6782 15.7973 22.797L20.7718 22.8645C24.7077 22.9915 27.8538 26.206 27.8538 30.1533C27.8538 34.1033 24.7082 37.3248 20.7718 37.4521L20.5299 37.456H3.24987L3.24295 42.9229L20.5124 42.9054L20.8187 42.9019C27.7426 42.7397 33.3037 37.0951 33.3037 30.1634C33.3037 23.2181 27.7426 17.5728 20.8187 17.4107L20.5124 17.4071L16.0274 17.4315L15.9328 17.4245C15.6242 17.3782 15.3873 17.1092 15.3873 16.785C15.3873 16.4608 15.6242 16.1914 15.9328 16.1451L16.0274 16.138L33.2655 16.1417L33.2724 10.7338ZM46.6927 4.04249H65.1261V9.46058L46.6927 9.45735L46.4689 9.46185C43.6477 9.57545 41.3594 11.8261 41.2467 14.589L41.2424 14.8026V32.0541L41.2469 32.2816C41.3625 35.1472 43.6526 37.3766 46.4745 37.4863L46.6927 37.4906L65.0454 37.4841L65.0491 42.8888L46.6927 42.8815L46.4034 42.8777C40.6347 42.7273 35.9894 38.0923 35.8387 32.3429L35.8349 32.0545V14.8621L35.8387 14.5737C35.9894 8.825 40.6347 4.19646 46.4034 4.04625L46.6927 4.04249ZM114.323 3.40981L114.038 3.41409C110.353 3.52506 107.266 5.78163 106.201 8.86651L106.122 9.11175L95.883 39.1388L95.8831 17.4108H80.5398V22.8118H90.4609V37.4768H78.0437L77.8262 37.4724C75.0146 37.3607 72.7377 35.0917 72.6228 32.2774L72.6182 32.0541V14.8616L72.6225 14.6437C72.7338 11.8271 74.9932 9.57503 77.8062 9.46139L78.0294 9.45689H95.8831V4.04249H77.9879L77.6987 4.04625C71.9326 4.19646 67.2874 8.825 67.1367 14.5737L67.1329 14.8621V32.0545L67.1367 32.3429C67.2887 38.0923 71.9732 42.7273 77.7402 42.8777L78.0294 42.8815L95.8831 42.8888L95.883 42.8838L100.351 42.8847L111.53 10.0555L111.607 9.88657C112.098 8.88995 113.121 8.20259 114.313 8.20259C115.499 8.20259 116.527 8.88995 117.022 9.88069L117.099 10.0486L126.408 37.4768H111.992V42.8842H133.931L122.521 9.12511L122.444 8.88575C121.388 5.7968 118.294 3.52862 114.615 3.41433L114.323 3.40981ZM112.713 10.5075C112.988 9.89013 113.605 9.45781 114.327 9.45781C115.1 9.45781 115.76 9.95409 115.994 10.6425L124.661 36.246H111.971L111.981 31.4308L112.391 30.2228L116.225 30.2228L114.316 24.549L112.391 30.2228L111.984 30.2228L111.981 31.4308L108.097 42.8842H101.7L112.659 10.6425L112.713 10.5075ZM95.8822 10.7195L78.0285 10.7232L77.8219 10.7282C75.7003 10.8325 73.9989 12.5339 73.8946 14.6555L73.8896 14.8621L73.8905 32.0541L73.8956 32.2611C73.9998 34.3873 75.7012 36.0978 77.8228 36.2026L78.0294 36.2077H89.1812V24.091H80.5532V29.51H83.7553L83.7654 30.7823H80.5776L80.4488 30.7756C79.8552 30.7141 79.3796 30.2332 79.3188 29.6389L79.3123 29.51L79.2837 17.4071C79.2859 17.3005 79.3335 16.2542 80.3962 16.1289L80.5633 16.1173H95.8891L95.8822 10.7195ZM16.0274 4.04249H33.2655L33.2724 9.47117L16.0237 9.47486L15.7822 9.47876C11.8526 9.60592 8.70343 12.8243 8.70343 16.7707C8.70343 20.7279 11.8526 23.9461 15.7822 24.0732L20.7569 24.1301C23.9969 24.2488 26.5811 26.8969 26.5811 30.1528C26.5811 33.4123 23.9969 36.0635 20.7569 36.1824L20.5299 36.1865H3.24987L3.24295 30.7961L20.4879 30.7823L20.5789 30.7756C20.8768 30.7315 21.1137 30.4751 21.1137 30.1634C21.1137 29.8459 20.8768 29.5885 20.5789 29.5443L20.4879 29.5376L16.0274 29.5307L15.7214 29.5271C8.80434 29.3651 3.23604 23.7235 3.23604 16.785C3.23604 9.84647 8.80434 4.20804 15.7214 4.04607L16.0274 4.04249ZM61.2038 24.0979H42.557V32.0545C42.557 34.265 44.2993 36.0643 46.4864 36.1713L46.6927 36.1764L65.045 36.169L65.0487 30.7887L49.2365 30.7885C49.1361 30.7856 48.0792 30.7301 47.9643 29.6757L47.9544 29.51H61.2038V24.0979ZM46.6927 10.7232H65.1261V16.1486H49.2446L49.0788 16.1562C48.1818 16.2408 48.0005 17.0106 47.964 17.3008L47.9548 17.4108H61.2042V22.8118H42.5575L42.5639 14.8621L42.569 14.6555C42.6758 12.4655 44.4724 10.7232 46.6927 10.7232Z" fill="white"/>
<path fill-rule="evenodd" clip-rule="evenodd" d="M132.499 7.22476C131.779 7.94131 130.817 8.3399 129.796 8.3399C128.779 8.3399 127.821 7.94131 127.104 7.22522C126.378 6.50177 125.979 5.54745 125.979 4.52678C125.979 2.42922 127.695 0.726562 129.796 0.726562C130.817 0.726562 131.779 1.12515 132.499 1.83801C133.219 2.56147 133.621 3.51256 133.621 4.52632C133.621 5.54699 133.219 6.50131 132.499 7.22476ZM127.478 2.21172C126.853 2.83058 126.518 3.65541 126.518 4.52586C126.518 5.40322 126.853 6.22483 127.478 6.84322C128.101 7.46208 128.925 7.80122 129.796 7.80122C131.611 7.80122 133.086 6.33312 133.086 4.52586C133.086 3.65541 132.744 2.83058 132.125 2.21172C131.502 1.59333 130.677 1.2574 129.796 1.2574C128.926 1.2574 128.101 1.59287 127.478 2.21172Z" fill="white"/>
<path fill-rule="evenodd" clip-rule="evenodd" d="M128.817 6.64269V4.84603H129.908L131.065 6.64269H131.733L130.544 4.81101C130.55 4.80968 130.557 4.80827 130.565 4.80674C130.798 4.76004 131.551 4.60881 131.551 3.65394C131.551 3.26226 131.418 2.90929 131.1 2.67474C130.777 2.43084 130.437 2.4269 129.863 2.42025C129.853 2.42014 129.844 2.42003 129.834 2.41992H128.265V6.64269H128.817ZM129.939 4.38109H128.817V2.88856H129.908C129.919 2.88856 129.93 2.88855 129.942 2.88854C130.252 2.88831 130.52 2.88811 130.733 3.06689C130.974 3.26272 130.985 3.54566 130.985 3.65763C130.985 3.96498 130.845 4.24469 130.453 4.33915C130.286 4.38109 130.118 4.38109 129.939 4.38109Z" fill="white"/>
</svg>
