<svg width="306" height="89" viewBox="0 0 306 89" fill="none" xmlns="http://www.w3.org/2000/svg">
<path d="M27.4849 9.5H0.484863V18.5H9.48486V54.5H18.4849V18.5H27.4849V9.5Z" fill="#F4F4F4"/>
<path d="M63.4849 9.5H36.4849V18.5H45.4849V45.5H36.4849V54.5H63.4849V45.5H54.4849V18.5H63.4849V9.5Z" fill="#F4F4F4"/>
<path d="M99.4849 9.5H81.4849V18.5H72.4849V45.5H81.4849V54.5H99.4849V45.5H81.4849V18.5H99.4849V9.5Z" fill="#F4F4F4"/>
<path fill-rule="evenodd" clip-rule="evenodd" d="M171.485 9.5H153.485V18.5H144.485V27.5H153.485V36.5H144.485V45.5H153.485V54.5H171.485V45.5H180.485V36.5H171.485V27.5H180.485V18.5H171.485V9.5ZM171.485 18.5V27.5H153.485V18.5H171.485ZM171.485 36.5V45.5H153.485V36.5H171.485Z" fill="#F4F4F4"/>
<path d="M198.485 9.5H216.485V18.5H198.485V9.5Z" fill="#F4F4F4"/>
<path d="M198.485 45.5V18.5H189.485V45.5H198.485Z" fill="#F4F4F4"/>
<path d="M216.485 45.5V18.5H225.485V45.5H216.485Z" fill="#F4F4F4"/>
<path d="M216.485 45.5H198.485V54.5H216.485V45.5Z" fill="#F4F4F4"/>
<path d="M135.485 27.5H108.485V36.5H135.485V27.5Z" fill="#F4F4F4"/>
<path d="M0.484863 66.3984H3.69395V69.6075H6.90305V72.8166H3.69395V79.2348H0.484863V66.3984Z" fill="#F4F4F4"/>
<path d="M3.69395 79.2348H6.90305V82.4439H3.69395V79.2348Z" fill="#F4F4F4"/>
<path d="M10.1121 66.3984H13.3212V69.6075H10.1121V66.3984Z" fill="#F4F4F4"/>
<path d="M141.685 66.3984H144.894V69.6075H148.103V72.8166H144.894V79.2348H141.685V66.3984Z" fill="#F4F4F4"/>
<path d="M144.894 79.2348H148.103V82.4439H144.894V79.2348Z" fill="#F4F4F4"/>
<path d="M26.1576 69.6075H16.5303V82.4439H19.7394V72.8166H26.1576V82.4439H29.3667V72.8166H26.1576V69.6075Z" fill="#F4F4F4"/>
<path d="M32.5758 69.6075H35.7849V79.2348H32.5758V69.6075Z" fill="#F4F4F4"/>
<path d="M42.203 85.653V82.4439H35.7849V79.2348H42.203V69.6075H45.4121V85.653H42.203Z" fill="#F4F4F4"/>
<path d="M42.203 85.653V88.8621H35.7849V85.653H42.203Z" fill="#F4F4F4"/>
<path d="M71.0849 69.6075H64.6667V72.8166H61.4576V79.2348H64.6667V82.4439H71.0849V79.2348H64.6667V72.8166H71.0849V69.6075Z" fill="#F4F4F4"/>
<path fill-rule="evenodd" clip-rule="evenodd" d="M83.9212 69.6075H77.503V72.8166H74.294V79.2348H77.503V82.4439H83.9212V79.2348H87.1303V72.8166H83.9212V69.6075ZM83.9212 72.8166V79.2348H77.503V72.8166H83.9212Z" fill="#F4F4F4"/>
<path d="M103.176 69.6075H90.3394V82.4439H93.5485V72.8166H96.7576V82.4439H99.9667V72.8166H103.176V82.4439H106.385V72.8166H103.176V69.6075Z" fill="#F4F4F4"/>
<path fill-rule="evenodd" clip-rule="evenodd" d="M119.221 69.6075H109.594V88.8621H112.803V82.4439H119.221V79.2348H122.43V72.8166H119.221V69.6075ZM119.221 72.8166V79.2348H112.803V72.8166H119.221Z" fill="#F4F4F4"/>
<path d="M128.848 69.6075H125.639V79.2348H128.848V82.4439H138.476V69.6075H135.267V79.2348H128.848V69.6075Z" fill="#F4F4F4"/>
<path fill-rule="evenodd" clip-rule="evenodd" d="M160.939 69.6075H154.521V72.8166H151.312V79.2348H154.521V82.4439H160.939V79.2348H157.73V76.0257H164.148V72.8166H160.939V69.6075ZM157.73 76.0257H154.521V72.8166H157.73V76.0257Z" fill="#F4F4F4"/>
<path d="M170.567 69.6075H167.358V82.4439H170.567V76.0257H173.776V72.8166H176.985V69.6075H173.776V72.8166H170.567V69.6075Z" fill="#F4F4F4"/>
<path d="M10.1121 72.8166H13.3212V82.4439H10.1121V72.8166Z" fill="#F4F4F4"/>
<path d="M249.485 8V4H289.485V8H293.485V32H297.485V36H293.485V52H289.485V56H285.485V60H273.485V56H261.485V60H249.485V56H245.485V8H249.485Z" fill="white"/>
<path d="M249.485 16C261.365 16 273.245 16 285.485 16C285.485 22.6 285.485 29.2 285.485 36C273.605 36 261.725 36 249.485 36C249.485 29.4 249.485 22.8 249.485 16Z" fill="#F4F4F4"/>
<path d="M245.485 52C260.005 52 274.525 52 289.485 52C289.485 53.32 289.485 54.64 289.485 56C288.165 56 286.845 56 285.485 56C285.485 57.32 285.485 58.64 285.485 60C281.525 60 277.565 60 273.485 60C273.485 58.68 273.485 57.36 273.485 56C269.525 56 265.565 56 261.485 56C261.485 57.32 261.485 58.64 261.485 60C257.525 60 253.565 60 249.485 60C249.485 58.68 249.485 57.36 249.485 56C248.165 56 246.845 56 245.485 56C245.485 54.68 245.485 53.36 245.485 52Z" fill="white"/>
<path d="M289.485 8C290.805 8 292.125 8 293.485 8C293.485 15.92 293.485 23.84 293.485 32C294.805 32 296.125 32 297.485 32C297.485 33.32 297.485 34.64 297.485 36C296.165 36 294.845 36 293.485 36C293.485 41.28 293.485 46.56 293.485 52C292.165 52 290.845 52 289.485 52C289.485 37.48 289.485 22.96 289.485 8Z" fill="white"/>
<path d="M249.485 4C262.685 4 275.885 4 289.485 4C289.485 5.32 289.485 6.64 289.485 8C276.285 8 263.085 8 249.485 8C249.485 6.68 249.485 5.36 249.485 4Z" fill="white"/>
<path d="M249.485 12C261.365 12 273.245 12 285.485 12C285.485 13.32 285.485 14.64 285.485 16C273.605 16 261.725 16 249.485 16C249.485 14.68 249.485 13.36 249.485 12Z" fill="white"/>
<path d="M273.485 56C277.445 56 281.405 56 285.485 56C285.485 57.32 285.485 58.64 285.485 60C281.525 60 277.565 60 273.485 60C273.485 58.68 273.485 57.36 273.485 56Z" fill="white"/>
<path d="M249.485 56C253.445 56 257.405 56 261.485 56C261.485 57.32 261.485 58.64 261.485 60C257.525 60 253.565 60 249.485 60C249.485 58.68 249.485 57.36 249.485 56Z" fill="white"/>
<path d="M261.485 44C265.445 44 269.405 44 273.485 44C273.485 45.32 273.485 46.64 273.485 48C269.525 48 265.565 48 261.485 48C261.485 46.68 261.485 45.36 261.485 44Z" fill="#F4F4F4"/>
<path d="M297.485 20C298.805 20 300.125 20 301.485 20C301.485 23.96 301.485 27.92 301.485 32C300.165 32 298.845 32 297.485 32C297.485 28.04 297.485 24.08 297.485 20Z" fill="white"/>
<path d="M273.485 20C274.805 20 276.125 20 277.485 20C277.485 23.96 277.485 27.92 277.485 32C276.165 32 274.845 32 273.485 32C273.485 28.04 273.485 24.08 273.485 20Z" fill="white"/>
<path d="M257.485 20C258.805 20 260.125 20 261.485 20C261.485 23.96 261.485 27.92 261.485 32C260.165 32 258.845 32 257.485 32C257.485 28.04 257.485 24.08 257.485 20Z" fill="white"/>
<path d="M249.485 4V8M249.485 4H289.485M249.485 4C262.685 4 275.885 4 289.485 4M249.485 4C249.485 5.36 249.485 6.68 249.485 8M249.485 8H245.485V56M249.485 8C263.085 8 276.285 8 289.485 8M289.485 4V8M289.485 4C289.485 5.32 289.485 6.64 289.485 8M289.485 8H293.485M289.485 8C290.805 8 292.125 8 293.485 8M289.485 8C289.485 22.96 289.485 37.48 289.485 52M293.485 8V32M293.485 8C293.485 15.92 293.485 23.84 293.485 32M293.485 32H297.485M293.485 32C294.805 32 296.125 32 297.485 32M297.485 32V36M297.485 32C297.485 33.32 297.485 34.64 297.485 36M297.485 32C298.845 32 300.165 32 301.485 32C301.485 27.92 301.485 23.96 301.485 20C300.125 20 298.805 20 297.485 20C297.485 24.08 297.485 28.04 297.485 32ZM297.485 36H293.485M297.485 36C296.165 36 294.845 36 293.485 36M293.485 36V52M293.485 36C293.485 41.28 293.485 46.56 293.485 52M293.485 52H289.485M293.485 52C292.165 52 290.845 52 289.485 52M289.485 52V56M289.485 52C274.525 52 260.005 52 245.485 52C245.485 53.36 245.485 54.68 245.485 56M289.485 52C289.485 53.32 289.485 54.64 289.485 56M289.485 56H285.485M289.485 56C288.165 56 286.845 56 285.485 56M285.485 56V60M285.485 56C285.485 57.32 285.485 58.64 285.485 60M285.485 56C281.405 56 277.445 56 273.485 56M285.485 60H273.485M285.485 60C281.525 60 277.565 60 273.485 60M273.485 60V56M273.485 60C273.485 58.68 273.485 57.36 273.485 56M273.485 56H261.485M273.485 56C269.525 56 265.565 56 261.485 56M261.485 56V60M261.485 56C261.485 57.32 261.485 58.64 261.485 60M261.485 56C257.405 56 253.445 56 249.485 56M261.485 60H249.485M261.485 60C257.525 60 253.565 60 249.485 60M249.485 60V56M249.485 60C249.485 58.68 249.485 57.36 249.485 56M249.485 56H245.485M249.485 56C248.165 56 246.845 56 245.485 56M249.485 16C261.365 16 273.245 16 285.485 16M249.485 16C249.485 22.8 249.485 29.4 249.485 36C261.725 36 273.605 36 285.485 36C285.485 29.2 285.485 22.6 285.485 16M249.485 16C261.725 16 273.605 16 285.485 16M249.485 16C249.485 14.68 249.485 13.36 249.485 12C261.365 12 273.245 12 285.485 12C285.485 13.32 285.485 14.64 285.485 16M261.485 44C265.445 44 269.405 44 273.485 44C273.485 45.32 273.485 46.64 273.485 48C269.525 48 265.565 48 261.485 48C261.485 46.68 261.485 45.36 261.485 44ZM273.485 20C274.805 20 276.125 20 277.485 20C277.485 23.96 277.485 27.92 277.485 32C276.165 32 274.845 32 273.485 32C273.485 28.04 273.485 24.08 273.485 20ZM257.485 20C258.805 20 260.125 20 261.485 20C261.485 23.96 261.485 27.92 261.485 32C260.165 32 258.845 32 257.485 32C257.485 28.04 257.485 24.08 257.485 20Z" stroke="white" stroke-width="6"/>
<path fill-rule="evenodd" clip-rule="evenodd" d="M249.485 8V4H289.485V8H293.485V32H297.485V36H293.485V52H289.485V56H285.485V60H273.485V56H261.485V60H249.485V56H245.485V8H249.485Z" fill="#46A8F5"/>
<path d="M249.485 16C261.365 16 273.245 16 285.485 16C285.485 22.6 285.485 29.2 285.485 36C273.605 36 261.725 36 249.485 36C249.485 29.4 249.485 22.8 249.485 16Z" fill="#F4F4F4"/>
<path d="M245.485 52C260.005 52 274.525 52 289.485 52C289.485 53.32 289.485 54.64 289.485 56C288.165 56 286.845 56 285.485 56C285.485 57.32 285.485 58.64 285.485 60C281.525 60 277.565 60 273.485 60C273.485 58.68 273.485 57.36 273.485 56C269.525 56 265.565 56 261.485 56C261.485 57.32 261.485 58.64 261.485 60C257.525 60 253.565 60 249.485 60C249.485 58.68 249.485 57.36 249.485 56C248.165 56 246.845 56 245.485 56C245.485 54.68 245.485 53.36 245.485 52Z" fill="#29366F"/>
<path d="M289.485 8C290.805 8 292.125 8 293.485 8C293.485 15.92 293.485 23.84 293.485 32C294.805 32 296.125 32 297.485 32C297.485 33.32 297.485 34.64 297.485 36C296.165 36 294.845 36 293.485 36C293.485 41.28 293.485 46.56 293.485 52C292.165 52 290.845 52 289.485 52C289.485 37.48 289.485 22.96 289.485 8Z" fill="#1A1C2C"/>
<path d="M249.485 4C262.685 4 275.885 4 289.485 4C289.485 5.32 289.485 6.64 289.485 8C276.285 8 263.085 8 249.485 8C249.485 6.68 249.485 5.36 249.485 4Z" fill="#29366F"/>
<path d="M249.485 12C261.365 12 273.245 12 285.485 12C285.485 13.32 285.485 14.64 285.485 16C273.605 16 261.725 16 249.485 16C249.485 14.68 249.485 13.36 249.485 12Z" fill="#29366F"/>
<path d="M273.485 56C277.445 56 281.405 56 285.485 56C285.485 57.32 285.485 58.64 285.485 60C281.525 60 277.565 60 273.485 60C273.485 58.68 273.485 57.36 273.485 56Z" fill="#1A1C2C"/>
<path d="M249.485 56C253.445 56 257.405 56 261.485 56C261.485 57.32 261.485 58.64 261.485 60C257.525 60 253.565 60 249.485 60C249.485 58.68 249.485 57.36 249.485 56Z" fill="#1A1C2C"/>
<path d="M261.485 44C265.445 44 269.405 44 273.485 44C273.485 45.32 273.485 46.64 273.485 48C269.525 48 265.565 48 261.485 48C261.485 46.68 261.485 45.36 261.485 44Z" fill="#F4F4F4"/>
<path d="M297.485 20C298.805 20 300.125 20 301.485 20C301.485 23.96 301.485 27.92 301.485 32C300.165 32 298.845 32 297.485 32C297.485 28.04 297.485 24.08 297.485 20Z" fill="#1A1C2C"/>
<path d="M273.485 20C274.805 20 276.125 20 277.485 20C277.485 23.96 277.485 27.92 277.485 32C276.165 32 274.845 32 273.485 32C273.485 28.04 273.485 24.08 273.485 20Z" fill="#1A1C2C"/>
<path d="M257.485 20C258.805 20 260.125 20 261.485 20C261.485 23.96 261.485 27.92 261.485 32C260.165 32 258.845 32 257.485 32C257.485 28.04 257.485 24.08 257.485 20Z" fill="#1A1C2C"/>
</svg>
