<svg width="302" height="86" viewBox="0 0 302 86" fill="none" xmlns="http://www.w3.org/2000/svg">
<path d="M27.4849 5.95312H0.484863V14.9531H9.48486V50.9531H18.4849V14.9531H27.4849V5.95312Z" fill="#F4F4F4"/>
<path d="M63.4849 5.95312H36.4849V14.9531H45.4849V41.9531H36.4849V50.9531H63.4849V41.9531H54.4849V14.9531H63.4849V5.95312Z" fill="#F4F4F4"/>
<path d="M99.4849 5.95312H81.4849V14.9531H72.4849V41.9531H81.4849V50.9531H99.4849V41.9531H81.4849V14.9531H99.4849V5.95312Z" fill="#F4F4F4"/>
<path fill-rule="evenodd" clip-rule="evenodd" d="M171.485 5.95312H153.485V14.9531H144.485V23.9531H153.485V32.9531H144.485V41.9531H153.485V50.9531H171.485V41.9531H180.485V32.9531H171.485V23.9531H180.485V14.9531H171.485V5.95312ZM171.485 14.9531V23.9531H153.485V14.9531H171.485ZM171.485 32.9531V41.9531H153.485V32.9531H171.485Z" fill="#F4F4F4"/>
<path d="M198.485 5.95312H216.485V14.9531H198.485V5.95312Z" fill="#F4F4F4"/>
<path d="M198.485 41.9531V14.9531H189.485V41.9531H198.485Z" fill="#F4F4F4"/>
<path d="M216.485 41.9531V14.9531H225.485V41.9531H216.485Z" fill="#F4F4F4"/>
<path d="M216.485 41.9531H198.485V50.9531H216.485V41.9531Z" fill="#F4F4F4"/>
<path d="M135.485 23.9531H108.485V32.9531H135.485V23.9531Z" fill="#F4F4F4"/>
<path d="M0.484863 62.8516H3.69395V66.0607H6.90305V69.2697H3.69395V75.6879H0.484863V62.8516Z" fill="#F4F4F4"/>
<path d="M3.69395 75.6879H6.90305V78.897H3.69395V75.6879Z" fill="#F4F4F4"/>
<path d="M10.1121 62.8516H13.3212V66.0607H10.1121V62.8516Z" fill="#F4F4F4"/>
<path d="M141.685 62.8516H144.894V66.0607H148.103V69.2697H144.894V75.6879H141.685V62.8516Z" fill="#F4F4F4"/>
<path d="M144.894 75.6879H148.103V78.897H144.894V75.6879Z" fill="#F4F4F4"/>
<path d="M26.1576 66.0607H16.5303V78.897H19.7394V69.2697H26.1576V78.897H29.3667V69.2697H26.1576V66.0607Z" fill="#F4F4F4"/>
<path d="M32.5758 66.0607H35.7849V75.6879H32.5758V66.0607Z" fill="#F4F4F4"/>
<path d="M42.203 82.1061V78.897H35.7849V75.6879H42.203V66.0607H45.4121V82.1061H42.203Z" fill="#F4F4F4"/>
<path d="M42.203 82.1061V85.3152H35.7849V82.1061H42.203Z" fill="#F4F4F4"/>
<path d="M71.0849 66.0607H64.6667V69.2697H61.4576V75.6879H64.6667V78.897H71.0849V75.6879H64.6667V69.2697H71.0849V66.0607Z" fill="#F4F4F4"/>
<path fill-rule="evenodd" clip-rule="evenodd" d="M83.9212 66.0607H77.503V69.2697H74.294V75.6879H77.503V78.897H83.9212V75.6879H87.1303V69.2697H83.9212V66.0607ZM83.9212 69.2697V75.6879H77.503V69.2697H83.9212Z" fill="#F4F4F4"/>
<path d="M103.176 66.0607H90.3394V78.897H93.5485V69.2697H96.7576V78.897H99.9667V69.2697H103.176V78.897H106.385V69.2697H103.176V66.0607Z" fill="#F4F4F4"/>
<path fill-rule="evenodd" clip-rule="evenodd" d="M119.221 66.0607H109.594V85.3152H112.803V78.897H119.221V75.6879H122.43V69.2697H119.221V66.0607ZM119.221 69.2697V75.6879H112.803V69.2697H119.221Z" fill="#F4F4F4"/>
<path d="M128.848 66.0607H125.639V75.6879H128.848V78.897H138.476V66.0607H135.267V75.6879H128.848V66.0607Z" fill="#F4F4F4"/>
<path fill-rule="evenodd" clip-rule="evenodd" d="M160.939 66.0607H154.521V69.2697H151.312V75.6879H154.521V78.897H160.939V75.6879H157.73V72.4788H164.148V69.2697H160.939V66.0607ZM157.73 72.4788H154.521V69.2697H157.73V72.4788Z" fill="#F4F4F4"/>
<path d="M170.567 66.0607H167.358V78.897H170.567V72.4788H173.776V69.2697H176.985V66.0607H173.776V69.2697H170.567V66.0607Z" fill="#F4F4F4"/>
<path d="M10.1121 69.2697H13.3212V78.897H10.1121V69.2697Z" fill="#F4F4F4"/>
</svg>
