<svg width="755" height="98" viewBox="0 0 755 98" xmlns="http://www.w3.org/2000/svg">
  <defs>
    <linearGradient id="mainlogo__a" x1="657.137" y1="1" x2="657.137" y2="65.9474" gradientUnits="userSpaceOnUse" class="mainlogo__paint0_linear_3268">
      <stop offset="0.278846" stop-color="#3593CC"/>
      <stop offset="0.908654" stop-color="white"/>
    </linearGradient>
    <linearGradient id="mainlogo__b" x1="476.67" y1="1" x2="476.67" y2="68.527" gradientUnits="userSpaceOnUse" class="mainlogo__paint1_linear_3268">
      <stop offset="0.278846" stop-color="#3593CC"/>
      <stop offset="0.908654" stop-color="white"/>
    </linearGradient>
    <linearGradient id="mainlogo__c" x1="541.088" y1="22.957" x2="541.088" y2="46.571" gradientUnits="userSpaceOnUse" class="mainlogo__paint2_linear_3268">
      <stop offset="0.278846" stop-color="#3593CC"/>
      <stop offset="0.908654" stop-color="white"/>
    </linearGradient>
  </defs>
  <g class="mainlogo__mainlogo">
    <path d="M366.155 1H3.887A2.887 2.887 0 0 0 1 3.887V94.01a2.887 2.887 0 0 0 2.887 2.888h362.268a2.887 2.887 0 0 0 2.887-2.888V3.887A2.887 2.887 0 0 0 366.155 1Z" stroke="white" stroke-width="1.93744" class="mainlogo__Vector"/>
    <g class="mainlogo__Group mainlogo__561">
      <path d="M716.938 2.064h12.458c7.3 0 12.761 1.589 16.53 4.616l.006.005.006.004c3.774 2.94 5.705 7.194 5.705 12.93 0 2.994-.54 5.406-1.554 7.287-1.024 1.9-2.515 3.436-4.498 4.613l-1.785 1.06 1.901.831c2.728 1.193 4.74 2.905 6.091 5.121l.007.012.007.012c1.384 2.142 2.124 5.037 2.124 8.774 0 6.17-1.95 10.51-5.682 13.258l-.005.004c-3.772 2.813-9.245 4.292-16.561 4.292h-17.043c-7.315 0-12.818-1.479-16.643-4.296-3.68-2.747-5.605-7.087-5.605-13.258 0-3.742.717-6.644 2.055-8.788l.006-.01c1.351-2.216 3.362-3.928 6.091-5.12l1.902-.833-1.785-1.06c-1.859-1.103-3.286-2.521-4.301-4.26l-.197-.352c-.965-1.883-1.478-4.295-1.478-7.288 0-5.74 1.909-9.995 5.633-12.932l.002-.002c3.822-3.032 9.313-4.62 16.613-4.62Zm-121.436 0c7.301 0 12.762 1.589 16.53 4.616l.006.005.007.004c3.773 2.94 5.704 7.194 5.704 12.93 0 2.994-.539 5.406-1.554 7.287-1.024 1.9-2.514 3.436-4.498 4.613l-1.785 1.06 1.901.831c2.729 1.193 4.74 2.905 6.091 5.121l.007.012.008.012c1.383 2.142 2.123 5.037 2.123 8.774 0 6.17-1.949 10.51-5.682 13.258l-.005.004c-3.771 2.813-9.245 4.292-16.56 4.292h-37.457v-16.75h37.457c1.125 0 2.143-.188 2.971-.656l.031-.019.031-.02c1.007-.665 1.395-1.762 1.395-2.966 0-1.169-.407-2.237-1.457-2.832-.828-.47-1.846-.658-2.971-.658H574.18V25.966h21.322c1.125 0 2.143-.19 2.971-.658 1.05-.595 1.457-1.664 1.457-2.832 0-1.17-.372-2.266-1.396-2.88h.001c-.841-.556-1.884-.782-3.033-.782h-35.164V2.064h35.164Zm69.698 0c3.443 0 6.453.368 9.04 1.087l.01.003.011.003c2.562.657 4.703 1.743 6.45 3.24 1.733 1.486 3.063 3.437 3.976 5.886.91 2.444 1.384 5.513 1.384 9.24 0 3.728-.474 6.797-1.384 9.24-.913 2.45-2.243 4.4-3.976 5.885-1.643 1.41-3.634 2.478-5.994 3.195l-.477.138c-2.59.663-5.6 1.001-9.04 1.001h-17.961c-1.099 0-2.101.227-2.929.765-.972.6-1.346 1.62-1.346 2.725v3.662h41.273v16.749h-57.869v-19.46c0-3.727.474-6.796 1.385-9.24.913-2.448 2.242-4.398 3.976-5.884 1.746-1.498 3.888-2.584 6.45-3.241l.01-.003.01-.003c2.588-.72 5.597-1.086 9.04-1.086H665.2c1.079 0 2.063-.19 2.853-.679l.027-.017c.967-.64 1.395-1.646 1.395-2.794 0-1.166-.369-2.256-1.382-2.871-.798-.566-1.799-.791-2.893-.791h-36.998V2.064H665.2Zm49.445 38.918c-1.126 0-2.144.189-2.971.658-1.05.595-1.457 1.663-1.457 2.832 0 1.204.388 2.301 1.394 2.966l.031.02.032.019c.827.468 1.845.657 2.971.657h17.043c1.126 0 2.144-.189 2.971-.657l.031-.019.032-.02c1.006-.665 1.394-1.762 1.394-2.966 0-1.022-.331-1.976-1.188-2.582h.001c-.008-.007-.017-.012-.026-.018l-.017-.013h-.001c-.657-.48-1.504-.742-2.445-.868l-.07-.009h-17.725Zm2.293-22.168c-1.078 0-2.062.198-2.874.681l-.16.1c-1.023.615-1.394 1.71-1.394 2.88s.406 2.238 1.457 2.833c.827.468 1.845.658 2.971.658h12.458c1.125 0 2.143-.19 2.97-.658 1.051-.595 1.457-1.664 1.457-2.832 0-1.17-.372-2.266-1.395-2.88h.001c-.842-.556-1.884-.782-3.033-.782h-12.458Z" fill="url(#mainlogo__a)" stroke="#53EBF9" stroke-width="2.12942" class="mainlogo__SV mainlogo__328"/>
      <path d="M437.059 2.064h45.327c1.756 0 3.372.96 4.21 2.503l12.561 23.106.935 1.72.936-1.72 13.923-25.609h20.062l-34.921 64.233-25.512-46.928-.302-.555h-35.825c-1.042 0-1.996.203-2.798.682l-.131.082c-1.01.624-1.347 1.742-1.347 2.899 0 1.111.376 2.114 1.283 2.768l.048.033.051.03c.82.464 1.808.658 2.894.658h19.374c10.746 0 19.458 8.711 19.459 19.458 0 10.746-8.713 19.459-19.459 19.459h-38.411v-16.75h36.998c1.079 0 2.063-.19 2.853-.678l.014-.008.013-.01c1.007-.665 1.395-1.761 1.395-2.965v-.001c0-1.12-.413-2.118-1.394-2.705-.796-.56-1.792-.785-2.881-.785h-19.355c-10.747 0-19.459-8.711-19.459-19.458 0-10.746 8.712-19.458 19.459-19.459Z" fill="url(#mainlogo__b)" stroke="#53EBF9" stroke-width="2.12942" class="mainlogo__Union"/>
    </g>
    <circle cx="541.088" cy="34.764" r="10.7423" fill="url(#mainlogo__c)" stroke="#53EBF9" stroke-width="2.12942" class="mainlogo__Ellipse mainlogo__220"/>
    <g class="mainlogo__PERSONAL mainlogo__COMPUTER">
      <path d="M434.772 82.797a8.027 8.027 0 0 1-.705 3.279 5.54 5.54 0 0 1-2.176 2.513c-.654.409-1.308.654-1.962.736-.633.081-1.318.122-2.053.122h-6.988v7.141h-4.352V76.146h10.206c.858 0 1.716.03 2.574.092a5.44 5.44 0 0 1 2.422.766c.98.593 1.726 1.43 2.237 2.513.531 1.063.797 2.156.797 3.28Zm-4.781-.154c0-.45-.072-.878-.215-1.287a2.11 2.11 0 0 0-.705-1.072 1.839 1.839 0 0 0-1.042-.43c-.409-.04-.787-.06-1.134-.06h-6.007V85.8h5.915c.245 0 .501-.01.766-.03.266-.02.521-.062.767-.123.327-.082.592-.225.796-.43.225-.224.399-.47.521-.735.123-.286.205-.582.246-.888.061-.327.092-.644.092-.95ZM452.871 96.588h-5.67c-.899 0-1.859-.04-2.881-.122a10.948 10.948 0 0 1-2.82-.583c-.96-.347-1.767-.868-2.421-1.563a9.018 9.018 0 0 1-1.532-2.42 13.265 13.265 0 0 1-.858-2.82 17.831 17.831 0 0 1-.246-2.881c0-.879.082-1.758.246-2.636.163-.879.418-1.706.766-2.483a9.41 9.41 0 0 1 1.348-2.206 8.786 8.786 0 0 1 2.023-1.747 5.587 5.587 0 0 1 2.268-.797 16.297 16.297 0 0 1 2.421-.184h7.356v3.647h-5.67c-.47 0-1.052.02-1.747.061-.674.041-1.236.144-1.686.307-.572.225-1.062.603-1.471 1.134-.368.47-.603.99-.705 1.563a46.215 46.215 0 0 0-.214 1.747h11.493v3.616h-11.493c.081.981.265 1.778.551 2.39.307.614.705 1.094 1.196 1.441.51.348 1.113.583 1.808.705.715.123 1.532.184 2.452.184h5.486v3.647ZM475.008 96.588h-4.873a5.828 5.828 0 0 1-.307-1.44c-.04-.49-.092-.981-.153-1.471-.102-.94-.276-1.717-.521-2.33-.225-.633-.552-1.133-.981-1.501-.429-.368-.97-.624-1.624-.767-.654-.163-1.451-.245-2.39-.245h-3.494v7.754h-4.352V76.146h9.991c.756 0 1.522.03 2.298.092.797.04 1.553.163 2.268.368 1.206.347 2.146 1 2.82 1.961.674.96 1.011 2.054 1.011 3.28 0 1.41-.296 2.646-.888 3.708-.593 1.042-1.594 1.788-3.004 2.237.45.164.828.327 1.134.49.327.144.613.328.858.552.245.205.46.46.644.766.184.287.368.654.552 1.104.286.674.439 1.369.459 2.084.041.715.102 1.43.184 2.145.061.531.184 1.083.368 1.655Zm-5.088-14.22c0-.532-.081-.96-.245-1.288a1.856 1.856 0 0 0-.674-.796 2.345 2.345 0 0 0-.981-.368 6.095 6.095 0 0 0-1.256-.123h-6.099v5.394h6.099c1.001 0 1.777-.194 2.329-.582.552-.409.827-1.154.827-2.237ZM496.395 90.55c0 .716-.112 1.43-.337 2.146a5.3 5.3 0 0 1-1.011 1.93c-.429.532-.899.93-1.41 1.196a6.418 6.418 0 0 1-1.624.582c-.552.103-1.134.164-1.747.184H478.16v-3.647h9.317c.429 0 .878-.01 1.348-.03.491-.041.93-.133 1.318-.276a2.328 2.328 0 0 0 1.012-.675c.265-.326.398-.786.398-1.379a2.42 2.42 0 0 0-.736-1.777 2.219 2.219 0 0 0-1.317-.675 9.913 9.913 0 0 0-1.502-.122h-3.77c-.592 0-1.236-.03-1.931-.092a7.62 7.62 0 0 1-1.9-.46 4.51 4.51 0 0 1-1.41-.858 5.948 5.948 0 0 1-.98-1.287 6.425 6.425 0 0 1-.828-3.126c0-.838.174-1.686.521-2.544.348-.879.838-1.594 1.471-2.145a4.644 4.644 0 0 1 1.318-.797c.49-.184.991-.317 1.502-.399a9.873 9.873 0 0 1 1.563-.122c.531-.02 1.052-.031 1.563-.031h10.114v3.647h-10.574c-.47 0-.909.061-1.318.184a2.026 2.026 0 0 0-.98.674c-.246.307-.368.777-.368 1.41 0 .552.112.991.337 1.318.245.306.552.541.919.705.368.143.767.235 1.196.276.449.02.878.03 1.287.03h3.279c.797 0 1.574.041 2.33.123a6.107 6.107 0 0 1 2.267.643c.511.246.94.573 1.288.981.347.388.633.828.858 1.318.225.47.388.97.49 1.502.102.531.153 1.062.153 1.594ZM518.594 86.628c0 3.248-.807 5.741-2.421 7.478-1.594 1.737-4.046 2.605-7.356 2.605-.592 0-1.205-.041-1.838-.123a12.365 12.365 0 0 1-1.901-.337 14.514 14.514 0 0 1-1.808-.613 6.99 6.99 0 0 1-1.563-.92 6.808 6.808 0 0 1-1.594-1.654 11.333 11.333 0 0 1-1.011-2.054 12.181 12.181 0 0 1-.521-2.268 17.408 17.408 0 0 1-.153-2.268c0-3.432.807-6.027 2.421-7.784 1.614-1.778 4.168-2.667 7.662-2.667 3.535 0 6.099.91 7.693 2.728 1.593 1.819 2.39 4.444 2.39 7.877Zm-4.781-.338c0-.94-.071-1.818-.214-2.635-.144-.838-.419-1.563-.828-2.176a3.912 3.912 0 0 0-1.624-1.471c-.675-.368-1.543-.552-2.605-.552-1.083 0-1.972.184-2.667.552a3.912 3.912 0 0 0-1.624 1.47c-.388.614-.654 1.34-.797 2.177a15.843 15.843 0 0 0-.214 2.666c0 .96.071 1.86.214 2.697.143.838.409 1.573.797 2.207a4.42 4.42 0 0 0 1.624 1.502c.695.367 1.594.551 2.697.551 1.083 0 1.962-.184 2.636-.551.695-.389 1.226-.9 1.594-1.533.388-.654.653-1.4.797-2.237.143-.838.214-1.727.214-2.666ZM539.516 96.588h-5.363l-8.306-14.987v14.987h-4.168V76.146h5.578l8.122 15.232V76.146h4.137v20.442ZM563.48 96.588h-5.119l-1.961-4.75h-7.785l-1.961 4.75h-5.088l8.459-20.442h4.996l8.459 20.442Zm-8.061-8.367-2.911-7.171-2.912 7.171h5.823ZM579.467 96.588h-6.129c-.613 0-1.216-.03-1.809-.092a9.462 9.462 0 0 1-1.685-.337 7.269 7.269 0 0 1-1.563-.735 5.174 5.174 0 0 1-1.318-1.196 5.32 5.32 0 0 1-.858-1.47 9.925 9.925 0 0 1-.46-1.656 16.142 16.142 0 0 1-.153-1.747 48.47 48.47 0 0 1-.031-1.716V76.146h4.321v12.106l.062.613c.02.593.061 1.175.122 1.747.082.552.358 1.042.828 1.471.265.245.582.429.95.552a5.91 5.91 0 0 0 1.195.245c.409.04.818.061 1.226.061h5.302v3.647ZM605.218 96.588h-8.336l-1.043-.061c-.326-.04-.664-.092-1.011-.153a9.503 9.503 0 0 1-1.103-.337c-1.022-.348-1.86-.859-2.513-1.533a8.421 8.421 0 0 1-1.594-2.33 11.617 11.617 0 0 1-.828-2.788 20.794 20.794 0 0 1-.214-2.942c0-1.471.194-2.922.582-4.352.388-1.43 1.114-2.697 2.176-3.8.429-.45.92-.808 1.471-1.073a8.058 8.058 0 0 1 1.778-.644 11.566 11.566 0 0 1 1.869-.337 19.119 19.119 0 0 1 1.839-.092h6.927v3.647h-6.436c-1.083 0-1.972.143-2.667.43-.694.265-1.246.674-1.655 1.225-.388.531-.664 1.185-.827 1.962-.164.756-.245 1.624-.245 2.605 0 .367.01.776.03 1.226.041.429.092.868.154 1.317.081.45.183.89.306 1.318.123.409.276.777.46 1.104.225.429.511.776.858 1.042.347.245.725.439 1.134.582.409.123.838.215 1.287.276.45.04.889.061 1.318.061h6.283v3.647ZM626.7 86.628c0 3.248-.807 5.741-2.421 7.478-1.594 1.737-4.046 2.605-7.356 2.605-.592 0-1.205-.041-1.838-.123a12.365 12.365 0 0 1-1.901-.337 14.514 14.514 0 0 1-1.808-.613 6.99 6.99 0 0 1-1.563-.92 6.808 6.808 0 0 1-1.594-1.654 11.333 11.333 0 0 1-1.011-2.054 12.181 12.181 0 0 1-.521-2.268 17.408 17.408 0 0 1-.153-2.268c0-3.432.807-6.027 2.421-7.784 1.614-1.778 4.168-2.667 7.662-2.667 3.535 0 6.099.91 7.693 2.728 1.593 1.819 2.39 4.444 2.39 7.877Zm-4.781-.338a15.2 15.2 0 0 0-.215-2.635c-.143-.838-.418-1.563-.827-2.176a3.912 3.912 0 0 0-1.624-1.471c-.675-.368-1.543-.552-2.605-.552-1.083 0-1.972.184-2.667.552a3.912 3.912 0 0 0-1.624 1.47c-.388.614-.654 1.34-.797 2.177a15.84 15.84 0 0 0-.215 2.666c0 .96.072 1.86.215 2.697.143.838.409 1.573.797 2.207.408.633.95 1.134 1.624 1.502.695.367 1.594.551 2.697.551 1.083 0 1.962-.184 2.636-.551.695-.389 1.226-.9 1.594-1.533.388-.654.653-1.4.796-2.237.144-.838.215-1.727.215-2.666ZM652.894 96.588h-4.169V81.234l-5.332 15.354h-4.475l-5.057-15.354v15.354h-4.137V76.146h6.374l5.088 15.968 5.333-15.968h6.375v20.442ZM675.286 82.797a8.026 8.026 0 0 1-.704 3.279 5.547 5.547 0 0 1-2.176 2.513c-.654.409-1.308.654-1.962.736-.633.081-1.318.122-2.053.122h-6.988v7.141h-4.352V76.146h10.206c.858 0 1.716.03 2.574.092a5.437 5.437 0 0 1 2.421.766c.981.593 1.727 1.43 2.238 2.513.531 1.063.796 2.156.796 3.28Zm-4.781-.154c0-.45-.071-.878-.214-1.287a2.117 2.117 0 0 0-.705-1.072 1.839 1.839 0 0 0-1.042-.43c-.409-.04-.787-.06-1.134-.06h-6.007V85.8h5.915c.245 0 .501-.01.766-.03.266-.02.521-.062.766-.123a1.67 1.67 0 0 0 .797-.43c.225-.224.399-.47.521-.735.123-.286.205-.582.245-.888.062-.327.092-.644.092-.95ZM695.684 88.19c0 .389-.02.808-.061 1.257-.021.43-.072.869-.153 1.318-.062.45-.154.889-.276 1.318a6.289 6.289 0 0 1-.46 1.134 5.296 5.296 0 0 1-1.471 1.747 7.485 7.485 0 0 1-1.992 1.073 10.22 10.22 0 0 1-2.268.551c-.777.102-1.522.154-2.237.154-.716 0-1.441-.041-2.176-.123a11.763 11.763 0 0 1-2.084-.43 8.368 8.368 0 0 1-1.87-.919 6.028 6.028 0 0 1-1.563-1.501 5.14 5.14 0 0 1-.674-1.226 7.591 7.591 0 0 1-.368-1.288 9.977 9.977 0 0 1-.153-1.348c-.021-.47-.031-.94-.031-1.41V76.146h4.321v12.26c0 .49.021.98.062 1.47.061.47.204.93.429 1.38.184.367.429.684.735.95.327.245.675.46 1.042.643.389.164.787.286 1.196.368.408.061.807.092 1.195.092.531 0 1.103-.072 1.716-.215.634-.163 1.175-.408 1.624-.735.307-.225.532-.49.675-.797a3.69 3.69 0 0 0 .337-1.011c.082-.348.122-.705.122-1.073.021-.368.031-.725.031-1.073V76.146h4.352v12.045ZM715.303 79.793h-6.774v16.795h-4.321V79.793h-6.528v-3.647h17.623v3.647ZM732.863 96.588h-5.67c-.899 0-1.859-.04-2.881-.122a10.957 10.957 0 0 1-2.82-.583c-.96-.347-1.767-.868-2.421-1.563a9.018 9.018 0 0 1-1.532-2.42 13.265 13.265 0 0 1-.858-2.82 17.831 17.831 0 0 1-.246-2.881c0-.879.082-1.758.246-2.636.163-.879.418-1.706.766-2.483a9.41 9.41 0 0 1 1.348-2.206 8.786 8.786 0 0 1 2.023-1.747 5.587 5.587 0 0 1 2.268-.797 16.297 16.297 0 0 1 2.421-.184h7.356v3.647h-5.67c-.47 0-1.052.02-1.747.061-.674.041-1.236.144-1.686.307-.572.225-1.062.603-1.471 1.134-.368.47-.603.99-.705 1.563a46.215 46.215 0 0 0-.214 1.747h11.493v3.616H721.37c.082.981.265 1.778.551 2.39.307.614.705 1.094 1.196 1.441.511.348 1.113.583 1.808.705.715.123 1.532.184 2.452.184h5.486v3.647ZM755 96.588h-4.873a5.828 5.828 0 0 1-.307-1.44c-.04-.49-.091-.981-.153-1.471-.102-.94-.276-1.717-.521-2.33-.225-.633-.551-1.133-.981-1.501-.429-.368-.97-.624-1.624-.767-.654-.163-1.451-.245-2.39-.245h-3.494v7.754h-4.352V76.146h9.991c.756 0 1.522.03 2.299.092.796.04 1.552.163 2.267.368 1.206.347 2.146 1 2.82 1.961.674.96 1.011 2.054 1.011 3.28 0 1.41-.296 2.646-.888 3.708-.593 1.042-1.594 1.788-3.004 2.237.45.164.828.327 1.134.49.327.144.613.328.858.552.245.205.46.46.644.766.184.287.368.654.552 1.104.286.674.439 1.369.459 2.084.041.715.102 1.43.184 2.145.061.531.184 1.083.368 1.655Zm-5.088-14.22c0-.532-.081-.96-.245-1.288a1.856 1.856 0 0 0-.674-.796 2.345 2.345 0 0 0-.981-.368 6.095 6.095 0 0 0-1.256-.123h-6.099v5.394h6.099c1.001 0 1.777-.194 2.329-.582.552-.409.827-1.154.827-2.237Z" fill="white"/>
    </g>
    <path d="M313.013 74.336H56.69l3.777 4.5 248.411.04 4.135-4.54Z" fill="#FFFF00" class="mainlogo__Vector"/>
    <path d="m318.981 67.225-134.174.026-134.077-.026 4.38 5.22 129.634-.028 129.86.028 4.381-5.22h-.004Z" fill="#FF7F00" class="mainlogo__Vector"/>
    <path d="M324.909 60.16H44.794l4.344 5.176 135.665-.021 135.763.02 4.343-5.175Z" fill="#FF0000" class="mainlogo__Vector"/>
    <g class="mainlogo__Group">
      <path d="M60.959 46.534s-3.89-6.45-3.91-6.43c-3.1-4.515-6.23-6.5-11.506-6.5H33.181l-4.322-5.762h20.127l-3.466-6.481s-14.567-.232-21.538 0c-4.07.02-5.534 3.947-4.215 6.431-.053.05 6.106 8.374 6.106 8.374 2.699 2.935 4.592 3.757 10.885 3.924l12.01-.006 4.211 6.481H33.393l6.556 7.814s16.897 0 16.957-.072c5.028-.014 5.163-5.943 4.053-7.773ZM50.058 21.362l18.881 32.945h7.639L68.94 40.084s6.397.093 9.61-.117c5.564.117 7.6-1.49 5.974-6.323l-2.606-5.808c-2.442-4.843-3.498-6.124-10.84-6.475h-21.02Zm12.426 6.481h10.924l2.567 5.761H65.15l-2.666-5.761ZM117.622 54.31l-2.333-7.68s-9.128-.143-13.728-.062c-.679-1.576-2.618-6.481-2.618-6.481h13.739l-1.792-6.417H96.632l-2.636-5.825h14.753l-1.769-6.54-16.112.058c-3.997 0-6.326 4.057-5.575 6.526l8.234 18.776c2.577 4.88 5.018 6.898 9.718 7.475 5.262.636 14.378.17 14.378.17h-.001ZM128.272 21.361s-6.363-.085-10.51.084c-4.028.07-6.748 3.051-6.103 6.446-.015-.048 5.437 18.675 5.42 18.594 1.707 4.144 5.189 7.822 10.017 7.763l8.573.059-1.453-7.741h-9.075l-5.542-18.724h9.938l-1.265-6.48ZM131.191 27.842h6.258l5.336 26.465h6.397l-4.331-26.465h4.885l-.829-6.444-18.982-.037 1.266 6.481ZM174.26 40.087c2.97 0 6.451-3.426 6.402-6.163-.149-2.008-.136-4.157-.361-6.094-.642-4.161-5.087-6.393-8.424-6.467-6.825.146-20.555 0-20.555 0l4.321 32.946 7.139.001-2.765-26.465h12.387l.067 5.76h-3.129c-4.443 0-4.834 3.273-2.902 6.422 3.342 5.147 10.481 14.35 10.481 14.35l8.784.004s-6.518-7.813-11.446-14.294h.001Z" fill="white" class="mainlogo__Vector"/>
      <path d="m185.788 20.753-1.437 33.564 7.288.067-.026-7.818h10.013l-.349 7.83 6.637-.012s2.485-12.623 2.438-20.706c.195-7.128-5.059-12.316-12.384-12.844-4.027-.134-12.18-.081-12.18-.081Zm16.669 12.851.123 5.79-10.197-.06-.21-11.49c7.28 0 10.058 1.573 10.284 5.76ZM223.368 53.747c4.13-.96 6.72-4.138 9.505-9.971 7.04-14.748 10.577-22.415 10.577-22.415h-7.9l-11 23.092c-.998 1.639-2.743 2.252-4.573 2.113 1.409-8.83 4.546-25.204 4.546-25.204h-7.81s-5.231 31.327-5.231 33.017c0 .047 8.551.143 11.886-.632ZM254.877 21.361l-8.99.037-9.59 32.981 8.466-.045 10.114-32.973ZM259.475 21.398 248.969 54.38h17.634c5.218 0 11.485-7.925 11.485-7.925l9.088-18.76c2.065-4.65-1.199-6.333-6.274-6.242-7.307-.093-21.427-.055-21.427-.055Zm18.4 6.445-7.341 18.723s-6.899-.074-10.35 0l5.909-18.723h11.782ZM304.605 46.568h-14.37l3.144-6.481h15.501l3.145-6.481h-15.288l3.064-5.762 16.411.014 3.319-6.494s-11.602-.24-18.29.203c-5.323.49-9.022 3.317-10.324 6.34l-8.765 18.715c-2.43 4.992.781 7.531 3.584 7.616 5.164.162 14.979.098 14.979.098l3.89-7.768ZM331.244 21.525c-5.665.262-8.747 2.457-11.601 6.217-3.768 4.98-11.771 18.924-11.771 18.924-3.334 6.4 1.398 7.443 5.142 7.606.181.108 9.292.108 9.419.031 4.214-.09 5.1-.422 7.114-1.602 1.049-.615 3.293-3.022 5.919-6.158l13.654-18.667c1.876-2.554-1.673-6.513-5.241-6.405 0 0-12.435-.108-12.635.054Zm-2.784 6.319h12.386l-13.332 18.723h-11.391l12.337-18.723Z" fill="white" class="mainlogo__Vector"/>
    </g>
    <path d="M336.392 48.4v.868h1.675v4.404h.969l-.001-4.404h1.696V48.4h-4.339ZM342.527 48.4l-.452 5.272h.908l.452-3.435 1.291 3.435h.707l1.251-3.395.452 3.395h.929l-.453-5.272h-1.13l-1.392 3.798-1.413-3.798h-1.15Z" fill="white" class="mainlogo__Vector"/>
  </g>
</svg>
