<svg width="755" height="98" viewBox="0 0 755 98" fill="none" xmlns="http://www.w3.org/2000/svg">
<rect width="755" height="98" fill="#666666"/>
<g id="spectravideo">
<path d="M-237 -129C-237 -130.105 -236.105 -131 -235 -131H2525C2526.1 -131 2527 -130.105 2527 -129V1141C2527 1142.1 2526.1 1143 2525 1143H-235C-236.105 1143 -237 1142.1 -237 1141V-129Z" fill="#404040"/>
<path d="M-235 -131V-130H2525V-131V-132H-235V-131ZM2527 -129H2526V1141H2527H2528V-129H2527ZM2525 1143V1142H-235V1143V1144H2525V1143ZM-237 1141H-236V-129H-237H-238V1141H-237ZM-235 1143V1142C-235.552 1142 -236 1141.55 -236 1141H-237H-238C-238 1142.66 -236.657 1144 -235 1144V1143ZM2527 1141H2526C2526 1141.55 2525.55 1142 2525 1142V1143V1144C2526.66 1144 2528 1142.66 2528 1141H2527ZM2525 -131V-130C2525.55 -130 2526 -129.552 2526 -129H2527H2528C2528 -130.657 2526.66 -132 2525 -132V-131ZM-235 -131V-132C-236.657 -132 -238 -130.657 -238 -129H-237H-236C-236 -129.552 -235.552 -130 -235 -130V-131Z" fill="white" fill-opacity="0.1"/>
<g id="mainlogo">
<g id="Group 561">
<path id="SV 328" d="M716.938 2.06445H729.396C736.696 2.06446 742.157 3.65296 745.926 6.67969L745.932 6.68457L745.938 6.68945C749.712 9.62871 751.643 13.8826 751.643 19.6182C751.643 22.6135 751.103 25.0251 750.089 26.9062C749.065 28.8053 747.574 30.3415 745.591 31.5186L743.806 32.5781L745.707 33.4102C748.435 34.6033 750.447 36.3147 751.798 38.5312L751.805 38.543L751.812 38.5547C753.196 40.6965 753.936 43.5923 753.936 47.3291C753.936 53.4985 751.986 57.8381 748.254 60.5869L748.249 60.5908C744.477 63.4038 739.004 64.8828 731.688 64.8828H714.645C707.33 64.8828 701.827 63.4042 698.002 60.5869C694.322 57.8398 692.397 53.5005 692.397 47.3291C692.397 43.5868 693.114 40.6855 694.452 38.541L694.458 38.5312C695.809 36.3147 697.82 34.6033 700.549 33.4102L702.451 32.5781L700.666 31.5186C698.807 30.4151 697.38 28.9966 696.365 27.2588L696.168 26.9062C695.203 25.0231 694.69 22.6106 694.69 19.6182C694.69 13.8776 696.599 9.623 700.323 6.68555L700.325 6.68359C704.147 3.65232 709.638 2.06445 716.938 2.06445ZM595.502 2.06445C602.803 2.06446 608.264 3.65296 612.032 6.67969L612.038 6.68457L612.045 6.68945C615.818 9.62871 617.749 13.8826 617.749 19.6182C617.749 22.6135 617.21 25.0251 616.195 26.9062C615.171 28.8053 613.681 30.3415 611.697 31.5186L609.912 32.5781L611.813 33.4102C614.542 34.6033 616.553 36.3147 617.904 38.5312L617.911 38.543L617.919 38.5547C619.302 40.6965 620.042 43.5923 620.042 47.3291C620.042 53.4985 618.093 57.8381 614.36 60.5869L614.355 60.5908C610.584 63.4038 605.11 64.8828 597.795 64.8828H560.338V48.1338H597.795C598.92 48.1338 599.938 47.9454 600.766 47.4766L600.797 47.458L600.828 47.4385C601.835 46.7732 602.223 45.6762 602.223 44.4717C602.223 43.303 601.816 42.2346 600.766 41.6396C599.938 41.1708 598.92 40.9824 597.795 40.9824H574.18V25.9658H595.502C596.627 25.9658 597.645 25.7765 598.473 25.3076C599.523 24.7126 599.93 23.6443 599.93 22.4756C599.93 21.3051 599.558 20.21 598.534 19.5957H598.535C597.694 19.0397 596.651 18.8135 595.502 18.8135H560.338V2.06445H595.502ZM665.2 2.06445C668.643 2.06445 671.653 2.43223 674.24 3.15137L674.25 3.1543L674.261 3.15723C676.823 3.81448 678.964 4.8997 680.711 6.39746C682.444 7.8834 683.774 9.83421 684.687 12.2832C685.597 14.7267 686.071 17.7961 686.071 21.5234C686.071 25.2508 685.597 28.3201 684.687 30.7637C683.774 33.2125 682.444 35.1625 680.711 36.6484C679.068 38.0571 677.077 39.1262 674.717 39.8428L674.24 39.9814C671.65 40.6438 668.64 40.9824 665.2 40.9824H647.239C646.14 40.9824 645.138 41.209 644.31 41.7471C643.338 42.3476 642.964 43.3677 642.964 44.4717V48.1338H684.237V64.8828H626.368V45.4238C626.368 41.6964 626.842 38.6271 627.753 36.1836C628.666 33.7346 629.995 31.7848 631.729 30.2988C633.475 28.801 635.617 27.7149 638.179 27.0576L638.189 27.0547L638.199 27.0518C640.787 26.3326 643.796 25.9658 647.239 25.9658H665.2C666.279 25.9658 667.263 25.7752 668.053 25.2871L668.08 25.2695C669.047 24.6302 669.475 23.624 669.475 22.4756C669.475 21.3102 669.106 20.2203 668.093 19.6045C667.295 19.0386 666.294 18.8135 665.2 18.8135H628.202V2.06445H665.2ZM714.645 40.9824C713.519 40.9824 712.501 41.1709 711.674 41.6396C710.624 42.2347 710.217 43.303 710.217 44.4717C710.217 45.6762 710.605 46.7732 711.611 47.4385L711.642 47.458L711.674 47.4766C712.501 47.9453 713.519 48.1338 714.645 48.1338H731.688C732.814 48.1338 733.832 47.9454 734.659 47.4766L734.69 47.458L734.722 47.4385C735.728 46.7732 736.116 45.6762 736.116 44.4717C736.116 43.4497 735.785 42.496 734.928 41.8896H734.929C734.921 41.8835 734.912 41.8782 734.903 41.8721C734.897 41.868 734.892 41.8634 734.886 41.8594H734.885C734.228 41.3797 733.381 41.1166 732.44 40.9912L732.37 40.9824H714.645ZM716.938 18.8135C715.86 18.8135 714.876 19.0122 714.064 19.4951L713.904 19.5957C712.881 20.21 712.51 21.3052 712.51 22.4756C712.51 23.6443 712.916 24.7126 713.967 25.3076C714.794 25.7763 715.812 25.9658 716.938 25.9658H729.396C730.521 25.9658 731.539 25.7765 732.366 25.3076C733.417 24.7126 733.823 23.6443 733.823 22.4756C733.823 21.3051 733.451 20.21 732.428 19.5957H732.429C731.587 19.0397 730.545 18.8135 729.396 18.8135H716.938Z" fill="url(#paint0_linear_0_1)" stroke="#53EBF9" stroke-width="2.12942"/>
<path id="Union" d="M437.059 2.06445H482.386C484.142 2.06449 485.758 3.02494 486.596 4.56738L499.157 27.6729L500.092 29.3936L501.028 27.6729L514.951 2.06445H535.013L500.092 66.2969L474.58 19.3691L474.278 18.8135H438.453C437.411 18.8135 436.457 19.0169 435.655 19.4961L435.524 19.5781C434.514 20.2024 434.177 21.3203 434.177 22.4766C434.177 23.5882 434.553 24.5907 435.46 25.2451L435.508 25.2783L435.559 25.3076C436.379 25.7722 437.367 25.9658 438.453 25.9658H457.827C468.573 25.9659 477.285 34.6773 477.286 45.4238C477.286 56.1704 468.573 64.8827 457.827 64.8828H419.416V48.1338H456.414C457.493 48.1338 458.477 47.9432 459.267 47.4551L459.281 47.4473L459.294 47.4375C460.301 46.7722 460.689 45.6758 460.689 44.4717V44.4707C460.689 43.3507 460.276 42.3531 459.295 41.7656C458.499 41.2055 457.503 40.9814 456.414 40.9814H437.059C426.312 40.9814 417.6 32.27 417.6 21.5234C417.6 10.7768 426.312 2.06452 437.059 2.06445Z" fill="url(#paint1_linear_0_1)" stroke="#53EBF9" stroke-width="2.12942"/>
</g>
<circle id="Ellipse 220" cx="541.088" cy="34.764" r="10.7423" fill="url(#paint2_linear_0_1)" stroke="#53EBF9" stroke-width="2.12942"/>
<g id="PERSONAL COMPUTER">
<path d="M434.772 82.7966C434.772 83.9204 434.537 85.0135 434.067 86.076C433.597 87.1384 432.872 87.9761 431.891 88.5891C431.237 88.9977 430.583 89.2429 429.929 89.3247C429.296 89.4064 428.611 89.4473 427.876 89.4473H420.888V96.5882H416.536V76.146H426.742C427.6 76.146 428.458 76.1767 429.316 76.238C430.174 76.2993 430.982 76.5547 431.738 77.0042C432.718 77.5967 433.464 78.4344 433.975 79.5173C434.506 80.5798 434.772 81.6729 434.772 82.7966ZM429.991 82.6434C429.991 82.1939 429.919 81.7648 429.776 81.3562C429.653 80.9271 429.419 80.5696 429.071 80.2835C428.785 80.0383 428.438 79.8953 428.029 79.8544C427.62 79.8136 427.242 79.7931 426.895 79.7931H420.888V85.8001H426.803C427.048 85.8001 427.304 85.7899 427.569 85.7695C427.835 85.7491 428.09 85.7082 428.336 85.6469C428.663 85.5652 428.928 85.4222 429.132 85.2178C429.357 84.9931 429.531 84.7479 429.653 84.4823C429.776 84.1962 429.858 83.9 429.899 83.5935C429.96 83.2666 429.991 82.9499 429.991 82.6434Z" fill="white"/>
<path d="M452.871 96.5882H447.201C446.302 96.5882 445.342 96.5474 444.32 96.4656C443.298 96.3839 442.358 96.1898 441.5 95.8833C440.54 95.536 439.733 95.015 439.079 94.3203C438.446 93.6052 437.935 92.7981 437.547 91.8991C437.159 91.0001 436.873 90.0602 436.689 89.0795C436.525 88.0783 436.443 87.118 436.443 86.1986C436.443 85.32 436.525 84.4414 436.689 83.5628C436.852 82.6843 437.107 81.8568 437.455 81.0804C437.802 80.2835 438.252 79.548 438.803 78.8737C439.375 78.1994 440.05 77.6171 440.826 77.1268C441.521 76.6977 442.277 76.4321 443.094 76.3299C443.911 76.2073 444.718 76.146 445.515 76.146H452.871V79.7931H447.201C446.731 79.7931 446.149 79.8136 445.454 79.8544C444.78 79.8953 444.218 79.9975 443.768 80.1609C443.196 80.3857 442.706 80.7637 442.297 81.2949C441.929 81.7648 441.694 82.2858 441.592 82.8579C441.511 83.43 441.439 84.0123 441.378 84.6049H452.871V88.2213H441.378C441.459 89.2021 441.643 89.9989 441.929 90.6119C442.236 91.2248 442.634 91.705 443.125 92.0523C443.635 92.3997 444.238 92.6346 444.933 92.7572C445.648 92.8798 446.465 92.9411 447.385 92.9411H452.871V96.5882Z" fill="white"/>
<path d="M475.008 96.5882H470.135C469.971 96.1183 469.869 95.6381 469.828 95.1478C469.788 94.6574 469.736 94.167 469.675 93.6767C469.573 92.7368 469.399 91.9604 469.154 91.3474C468.929 90.714 468.602 90.2135 468.173 89.8457C467.744 89.4779 467.203 89.2225 466.549 89.0795C465.895 88.916 465.098 88.8343 464.159 88.8343H460.665V96.5882H456.313V76.146H466.304C467.06 76.146 467.826 76.1767 468.602 76.238C469.399 76.2788 470.155 76.4014 470.87 76.6057C472.076 76.9531 473.016 77.6069 473.69 78.5672C474.364 79.5275 474.701 80.6206 474.701 81.8466C474.701 83.2564 474.405 84.4925 473.813 85.555C473.22 86.597 472.219 87.3428 470.809 87.7923C471.259 87.9557 471.637 88.1192 471.943 88.2826C472.27 88.4257 472.556 88.6095 472.801 88.8343C473.046 89.0386 473.261 89.294 473.445 89.6005C473.629 89.8865 473.813 90.2543 473.997 90.7038C474.283 91.3781 474.436 92.0728 474.456 92.7879C474.497 93.503 474.558 94.2181 474.64 94.9332C474.701 95.4645 474.824 96.0161 475.008 96.5882ZM469.92 82.3676C469.92 81.8363 469.839 81.4073 469.675 81.0804C469.512 80.733 469.287 80.4674 469.001 80.2835C468.735 80.0996 468.408 79.977 468.02 79.9157C467.632 79.834 467.213 79.7931 466.764 79.7931H460.665V85.1872H466.764C467.765 85.1872 468.541 84.9931 469.093 84.6049C469.645 84.1962 469.92 83.4505 469.92 82.3676Z" fill="white"/>
<path d="M496.395 90.5506C496.395 91.2657 496.283 91.9808 496.058 92.6959C495.854 93.4111 495.517 94.0547 495.047 94.6268C494.618 95.158 494.148 95.5564 493.637 95.822C493.126 96.0876 492.585 96.2818 492.013 96.4043C491.461 96.5065 490.879 96.5678 490.266 96.5882C489.653 96.5882 489.04 96.5882 488.427 96.5882H478.16V92.9411H487.477C487.906 92.9411 488.355 92.9309 488.825 92.9105C489.316 92.8696 489.755 92.7777 490.143 92.6346C490.552 92.4916 490.889 92.2669 491.155 91.9604C491.42 91.6335 491.553 91.1738 491.553 90.5812C491.553 89.8865 491.308 89.294 490.817 88.8036C490.47 88.4359 490.031 88.2111 489.5 88.1294C488.968 88.0477 488.468 88.0068 487.998 88.0068H484.228C483.636 88.0068 482.992 87.9761 482.297 87.9149C481.603 87.8331 480.969 87.6799 480.397 87.4551C479.866 87.2508 479.396 86.9648 478.987 86.597C478.599 86.2088 478.272 85.7797 478.007 85.3098C477.741 84.8398 477.537 84.3393 477.394 83.808C477.251 83.2564 477.179 82.7149 477.179 82.1837C477.179 81.346 477.353 80.498 477.7 79.6399C478.048 78.7613 478.538 78.0462 479.171 77.4945C479.58 77.1472 480.019 76.8816 480.489 76.6977C480.979 76.5138 481.48 76.381 481.991 76.2993C482.502 76.2175 483.023 76.1767 483.554 76.1767C484.085 76.1562 484.606 76.146 485.117 76.146H495.231V79.7931H486.098C485.628 79.7931 485.148 79.7931 484.657 79.7931C484.187 79.7931 483.748 79.8544 483.339 79.977C482.951 80.0996 482.624 80.3244 482.359 80.6513C482.113 80.9578 481.991 81.4277 481.991 82.0611C481.991 82.6128 482.103 83.052 482.328 83.379C482.573 83.6854 482.88 83.9204 483.247 84.0839C483.615 84.2269 484.014 84.3188 484.443 84.3597C484.892 84.3801 485.321 84.3903 485.73 84.3903H489.009C489.806 84.3903 490.583 84.4312 491.339 84.5129C492.115 84.5742 492.871 84.7888 493.606 85.1565C494.117 85.4017 494.546 85.7286 494.894 86.1373C495.241 86.5255 495.527 86.9648 495.752 87.4551C495.977 87.9251 496.14 88.4257 496.242 88.9569C496.344 89.4881 496.395 90.0193 496.395 90.5506Z" fill="white"/>
<path d="M518.594 86.6276C518.594 89.8763 517.787 92.369 516.173 94.1057C514.579 95.8425 512.127 96.7108 508.817 96.7108C508.225 96.7108 507.612 96.67 506.979 96.5882C506.345 96.5269 505.712 96.4146 505.078 96.2511C504.465 96.0876 503.863 95.8833 503.27 95.6381C502.698 95.393 502.177 95.0865 501.707 94.7187C501.074 94.2488 500.542 93.6971 500.113 93.0637C499.705 92.4099 499.368 91.7254 499.102 91.0103C498.857 90.2747 498.683 89.5188 498.581 88.7423C498.479 87.9659 498.428 87.2099 498.428 86.4744C498.428 83.0418 499.235 80.447 500.849 78.6898C502.463 76.9122 505.017 76.0234 508.511 76.0234C512.046 76.0234 514.61 76.9327 516.204 78.7511C517.797 80.5696 518.594 83.1951 518.594 86.6276ZM513.813 86.2905C513.813 85.3506 513.742 84.4721 513.599 83.6548C513.455 82.8171 513.18 82.0917 512.771 81.4788C512.383 80.8454 511.841 80.355 511.147 80.0077C510.472 79.6399 509.604 79.456 508.542 79.456C507.459 79.456 506.57 79.6399 505.875 80.0077C505.181 80.355 504.639 80.8454 504.251 81.4788C503.863 82.0917 503.597 82.8171 503.454 83.6548C503.311 84.4925 503.24 85.3813 503.24 86.3212C503.24 87.2815 503.311 88.1805 503.454 89.0182C503.597 89.8559 503.863 90.5914 504.251 91.2248C504.66 91.8582 505.201 92.3588 505.875 92.7266C506.57 93.0944 507.469 93.2782 508.572 93.2782C509.655 93.2782 510.534 93.0944 511.208 92.7266C511.903 92.3384 512.434 91.8276 512.802 91.1942C513.19 90.5404 513.455 89.7946 513.599 88.9569C513.742 88.1192 513.813 87.2304 513.813 86.2905Z" fill="white"/>
<path d="M539.516 96.5882H534.153L525.847 81.6014V96.5882H521.679V76.146H527.257L535.379 91.3781V76.146H539.516V96.5882Z" fill="white"/>
<path d="M563.48 96.5882H558.361L556.4 91.8378H548.615L546.654 96.5882H541.566L550.025 76.146H555.021L563.48 96.5882ZM555.419 88.2213L552.508 81.0497L549.596 88.2213H555.419Z" fill="white"/>
<path d="M579.467 96.5882H573.338C572.725 96.5882 572.122 96.5576 571.529 96.4963C570.957 96.435 570.395 96.3226 569.844 96.1592C569.292 95.9753 568.771 95.7301 568.281 95.4236C567.79 95.1171 567.351 94.7187 566.963 94.2283C566.595 93.7788 566.309 93.2885 566.105 92.7572C565.9 92.2056 565.747 91.6539 565.645 91.1022C565.563 90.5301 565.512 89.9478 565.492 89.3553C565.471 88.7628 565.461 88.1907 565.461 87.639V76.146H569.782V87.639C569.782 87.8433 569.782 88.0477 569.782 88.252C569.803 88.4563 569.823 88.6606 569.844 88.8649C569.864 89.4575 569.905 90.0398 569.966 90.6119C570.048 91.1635 570.324 91.6539 570.794 92.083C571.059 92.3282 571.376 92.512 571.744 92.6346C572.132 92.7572 572.531 92.839 572.939 92.8798C573.348 92.9207 573.757 92.9411 574.165 92.9411C574.574 92.9411 574.952 92.9411 575.299 92.9411H579.467V96.5882Z" fill="white"/>
<path d="M605.218 96.5882H598.077C597.648 96.5882 597.249 96.5882 596.882 96.5882C596.534 96.5678 596.187 96.5474 595.839 96.5269C595.513 96.4861 595.175 96.435 594.828 96.3737C594.481 96.292 594.113 96.1796 593.725 96.0366C592.703 95.6892 591.865 95.1784 591.212 94.5042C590.558 93.8299 590.027 93.0535 589.618 92.1749C589.23 91.2963 588.954 90.3667 588.79 89.386C588.647 88.3848 588.576 87.4041 588.576 86.4437C588.576 84.9726 588.77 83.522 589.158 82.0917C589.546 80.6615 590.272 79.3947 591.334 78.2914C591.763 77.8419 592.254 77.4843 592.805 77.2187C593.377 76.9327 593.97 76.7181 594.583 76.5751C595.196 76.4116 595.819 76.2993 596.452 76.238C597.086 76.1767 597.699 76.146 598.291 76.146H605.218V79.7931H598.782C597.699 79.7931 596.81 79.9362 596.115 80.2222C595.421 80.4878 594.869 80.8965 594.46 81.4481C594.072 81.9794 593.796 82.6332 593.633 83.4096C593.469 84.1656 593.388 85.0339 593.388 86.0147C593.388 86.3825 593.398 86.7911 593.418 87.2406C593.459 87.6697 593.51 88.109 593.572 88.5585C593.653 89.008 593.755 89.4473 593.878 89.8763C594.001 90.285 594.154 90.6527 594.338 90.9797C594.563 91.4087 594.849 91.7561 595.196 92.0217C595.543 92.2669 595.921 92.461 596.33 92.604C596.739 92.7266 597.168 92.8185 597.617 92.8798C598.067 92.9207 598.506 92.9411 598.935 92.9411H605.218V96.5882Z" fill="white"/>
<path d="M626.7 86.6276C626.7 89.8763 625.893 92.369 624.279 94.1057C622.685 95.8425 620.233 96.7108 616.923 96.7108C616.331 96.7108 615.718 96.67 615.085 96.5882C614.451 96.5269 613.818 96.4146 613.184 96.2511C612.571 96.0876 611.969 95.8833 611.376 95.6381C610.804 95.393 610.283 95.0865 609.813 94.7187C609.18 94.2488 608.648 93.6971 608.219 93.0637C607.811 92.4099 607.474 91.7254 607.208 91.0103C606.963 90.2747 606.789 89.5188 606.687 88.7423C606.585 87.9659 606.534 87.2099 606.534 86.4744C606.534 83.0418 607.341 80.447 608.955 78.6898C610.569 76.9122 613.123 76.0234 616.617 76.0234C620.152 76.0234 622.716 76.9327 624.31 78.7511C625.903 80.5696 626.7 83.1951 626.7 86.6276ZM621.919 86.2905C621.919 85.3506 621.848 84.4721 621.704 83.6548C621.561 82.8171 621.286 82.0917 620.877 81.4788C620.489 80.8454 619.947 80.355 619.253 80.0077C618.578 79.6399 617.71 79.456 616.648 79.456C615.565 79.456 614.676 79.6399 613.981 80.0077C613.287 80.355 612.745 80.8454 612.357 81.4788C611.969 82.0917 611.703 82.8171 611.56 83.6548C611.417 84.4925 611.345 85.3813 611.345 86.3212C611.345 87.2815 611.417 88.1805 611.56 89.0182C611.703 89.8559 611.969 90.5914 612.357 91.2248C612.765 91.8582 613.307 92.3588 613.981 92.7266C614.676 93.0944 615.575 93.2782 616.678 93.2782C617.761 93.2782 618.64 93.0944 619.314 92.7266C620.009 92.3384 620.54 91.8276 620.908 91.1942C621.296 90.5404 621.561 89.7946 621.704 88.9569C621.848 88.1192 621.919 87.2304 621.919 86.2905Z" fill="white"/>
<path d="M652.894 96.5882H648.725V81.2336L643.393 96.5882H638.918L633.861 81.2336V96.5882H629.724V76.146H636.098L641.186 92.1136L646.519 76.146H652.894V96.5882Z" fill="white"/>
<path d="M675.286 82.7966C675.286 83.9204 675.052 85.0135 674.582 86.076C674.112 87.1384 673.386 87.9761 672.406 88.5891C671.752 88.9977 671.098 89.2429 670.444 89.3247C669.811 89.4064 669.126 89.4473 668.391 89.4473H661.403V96.5882H657.051V76.146H667.257C668.115 76.146 668.973 76.1767 669.831 76.238C670.689 76.2993 671.496 76.5547 672.252 77.0042C673.233 77.5967 673.979 78.4344 674.49 79.5173C675.021 80.5798 675.286 81.6729 675.286 82.7966ZM670.505 82.6434C670.505 82.1939 670.434 81.7648 670.291 81.3562C670.168 80.9271 669.933 80.5696 669.586 80.2835C669.3 80.0383 668.953 79.8953 668.544 79.8544C668.135 79.8136 667.757 79.7931 667.41 79.7931H661.403V85.8001H667.318C667.563 85.8001 667.819 85.7899 668.084 85.7695C668.35 85.7491 668.605 85.7082 668.85 85.6469C669.177 85.5652 669.443 85.4222 669.647 85.2178C669.872 84.9931 670.046 84.7479 670.168 84.4823C670.291 84.1962 670.373 83.9 670.413 83.5935C670.475 83.2666 670.505 82.9499 670.505 82.6434Z" fill="white"/>
<path d="M695.684 88.1907C695.684 88.5789 695.664 88.9977 695.623 89.4473C695.602 89.8763 695.551 90.3156 695.47 90.7651C695.408 91.2146 695.316 91.6539 695.194 92.083C695.071 92.4916 694.918 92.8696 694.734 93.217C694.366 93.9116 693.876 94.494 693.263 94.9639C692.67 95.4134 692.006 95.771 691.271 96.0366C690.556 96.3022 689.8 96.4861 689.003 96.5882C688.226 96.6904 687.481 96.7415 686.766 96.7415C686.05 96.7415 685.325 96.7006 684.59 96.6189C683.874 96.5372 683.18 96.3941 682.506 96.1898C681.852 95.9651 681.229 95.6586 680.636 95.2704C680.043 94.8822 679.522 94.3816 679.073 93.7686C678.787 93.3804 678.562 92.9718 678.399 92.5427C678.235 92.1136 678.113 91.6846 678.031 91.2555C677.949 90.806 677.898 90.3565 677.878 89.907C677.857 89.437 677.847 88.9671 677.847 88.4972V76.146H682.168V88.4052C682.168 88.8956 682.189 89.386 682.23 89.8763C682.291 90.3463 682.434 90.806 682.659 91.2555C682.843 91.6233 683.088 91.94 683.394 92.2056C683.721 92.4508 684.069 92.6653 684.436 92.8492C684.825 93.0126 685.223 93.1352 685.632 93.217C686.04 93.2782 686.439 93.3089 686.827 93.3089C687.358 93.3089 687.93 93.2374 688.543 93.0944C689.177 92.9309 689.718 92.6857 690.167 92.3588C690.474 92.1341 690.699 91.8684 690.842 91.562C691.005 91.2351 691.118 90.8979 691.179 90.5506C691.261 90.2032 691.301 89.8457 691.301 89.4779C691.322 89.1101 691.332 88.7526 691.332 88.4052V76.146H695.684V88.1907Z" fill="white"/>
<path d="M715.303 79.7931H708.529V96.5882H704.208V79.7931H697.68V76.146H715.303V79.7931Z" fill="white"/>
<path d="M732.863 96.5882H727.193C726.294 96.5882 725.334 96.5474 724.312 96.4656C723.29 96.3839 722.351 96.1898 721.492 95.8833C720.532 95.536 719.725 95.015 719.071 94.3203C718.438 93.6052 717.927 92.7981 717.539 91.8991C717.151 91.0001 716.865 90.0602 716.681 89.0795C716.517 88.0783 716.435 87.118 716.435 86.1986C716.435 85.32 716.517 84.4414 716.681 83.5628C716.844 82.6843 717.099 81.8568 717.447 81.0804C717.794 80.2835 718.244 79.548 718.795 78.8737C719.367 78.1994 720.042 77.6171 720.818 77.1268C721.513 76.6977 722.269 76.4321 723.086 76.3299C723.903 76.2073 724.71 76.146 725.507 76.146H732.863V79.7931H727.193C726.723 79.7931 726.141 79.8136 725.446 79.8544C724.772 79.8953 724.21 79.9975 723.76 80.1609C723.188 80.3857 722.698 80.7637 722.289 81.2949C721.921 81.7648 721.686 82.2858 721.584 82.8579C721.503 83.43 721.431 84.0123 721.37 84.6049H732.863V88.2213H721.37C721.452 89.2021 721.635 89.9989 721.921 90.6119C722.228 91.2248 722.626 91.705 723.117 92.0523C723.628 92.3997 724.23 92.6346 724.925 92.7572C725.64 92.8798 726.457 92.9411 727.377 92.9411H732.863V96.5882Z" fill="white"/>
<path d="M755 96.5882H750.127C749.963 96.1183 749.861 95.6381 749.82 95.1478C749.78 94.6574 749.729 94.167 749.667 93.6767C749.565 92.7368 749.391 91.9604 749.146 91.3474C748.921 90.714 748.595 90.2135 748.165 89.8457C747.736 89.4779 747.195 89.2225 746.541 89.0795C745.887 88.916 745.09 88.8343 744.151 88.8343H740.657V96.5882H736.305V76.146H746.296C747.052 76.146 747.818 76.1767 748.595 76.238C749.391 76.2788 750.147 76.4014 750.862 76.6057C752.068 76.9531 753.008 77.6069 753.682 78.5672C754.356 79.5275 754.693 80.6206 754.693 81.8466C754.693 83.2564 754.397 84.4925 753.805 85.555C753.212 86.597 752.211 87.3428 750.801 87.7923C751.251 87.9557 751.629 88.1192 751.935 88.2826C752.262 88.4257 752.548 88.6095 752.793 88.8343C753.038 89.0386 753.253 89.294 753.437 89.6005C753.621 89.8865 753.805 90.2543 753.989 90.7038C754.275 91.3781 754.428 92.0728 754.448 92.7879C754.489 93.503 754.55 94.2181 754.632 94.9332C754.693 95.4645 754.816 96.0161 755 96.5882ZM749.912 82.3676C749.912 81.8363 749.831 81.4073 749.667 81.0804C749.504 80.733 749.279 80.4674 748.993 80.2835C748.727 80.0996 748.4 79.977 748.012 79.9157C747.624 79.834 747.205 79.7931 746.756 79.7931H740.657V85.1872H746.756C747.757 85.1872 748.533 84.9931 749.085 84.6049C749.637 84.1962 749.912 83.4505 749.912 82.3676Z" fill="white"/>
</g>
<path id="Vector" d="M313.013 74.3359H56.6899L60.4665 78.8367L308.878 78.8755L313.013 74.3359Z" fill="#FFFF00"/>
<path id="Vector_2" d="M318.981 67.2248L184.807 67.2506L50.7295 67.2246L55.1104 72.4455L184.744 72.4171L314.604 72.4455L318.985 67.2246L318.981 67.2248Z" fill="#FF7F00"/>
<path id="Vector_3" d="M324.909 60.1602H44.7944L49.1375 65.3361L184.803 65.3148L320.566 65.3358L324.909 60.1602Z" fill="#FF0000"/>
<g id="Group">
<path id="Vector_4" d="M60.9589 46.5338C60.9589 46.5338 57.0697 40.0842 57.0484 40.1041C53.9489 35.5891 50.8183 33.6033 45.5433 33.6033L33.1805 33.6033L28.8594 27.8423H48.9862L45.5198 21.3609C45.5198 21.3609 30.9535 21.129 23.982 21.3609C19.9122 21.3809 18.4483 25.308 19.767 27.7922C19.7142 27.842 25.8726 36.1665 25.8726 36.1665C28.5719 39.1012 30.4655 39.9228 36.7584 40.0898L48.7686 40.0842L52.9794 46.5655H33.3932L39.9495 54.3792C39.9495 54.3792 56.8458 54.3792 56.9059 54.3071C61.9339 54.2933 62.0695 48.364 60.9589 46.5338Z" fill="white"/>
<path id="Vector_5" d="M50.0576 21.3616L68.9392 54.3071H76.5779L68.9399 40.0844C68.9399 40.0844 75.337 40.177 78.5496 39.967C84.1141 40.0844 86.1508 38.4772 84.5242 33.6435L81.9182 27.8362C79.4759 22.9933 78.4202 21.7123 71.0776 21.3613L50.0576 21.3616ZM62.4843 27.843H73.4083L75.9754 33.604H65.1503L62.4843 27.843Z" fill="white"/>
<path id="Vector_6" d="M117.622 54.3098L115.289 46.6298C115.289 46.6298 106.161 46.4874 101.561 46.5684C100.882 44.9922 98.9426 40.087 98.9426 40.087H112.682L110.89 33.6705H96.6315L93.9965 27.8448H108.749L106.98 21.3047C106.98 21.3047 91.121 21.3635 90.8685 21.3635C86.871 21.3635 84.5422 25.4198 85.2934 27.8888L93.5275 46.6652C96.1042 51.5458 98.5447 53.5625 103.245 54.1398C108.507 54.7761 117.623 54.31 117.623 54.31L117.622 54.3098Z" fill="white"/>
<path id="Vector_7" d="M128.272 21.3615C128.272 21.3615 121.909 21.2761 117.762 21.4447C113.734 21.5155 111.014 24.4964 111.659 27.891C111.644 27.8426 117.096 46.566 117.079 46.4846C118.786 50.6289 122.268 54.3073 127.096 54.2479L135.669 54.307L134.216 46.5656H125.141L119.599 27.8422H129.537L128.272 21.3615Z" fill="white"/>
<path id="Vector_8" d="M131.191 27.8424H137.449L142.785 54.3071H149.182L144.851 27.8424H149.736L148.907 21.3977L129.925 21.3613L131.191 27.8424Z" fill="white"/>
<path id="Vector_9" d="M174.26 40.0865C177.23 40.0865 180.711 36.6606 180.662 33.9243C180.513 31.916 180.526 29.767 180.301 27.8298C179.659 23.669 175.214 21.4367 171.877 21.3633C165.052 21.5092 151.322 21.3633 151.322 21.3633L155.643 54.3087L162.782 54.31L160.017 27.8447L172.404 27.8449L172.471 33.6057C172.471 33.6057 169.41 33.6054 169.342 33.6054C164.899 33.6054 164.508 36.8782 166.44 40.0273C169.782 45.1737 176.921 54.3766 176.921 54.3766L185.705 54.3812C185.705 54.3812 179.187 46.5675 174.259 40.0867L174.26 40.0865Z" fill="white"/>
<path id="Vector_10" d="M185.788 20.7525L184.351 54.3173L191.639 54.3836L191.613 46.566H201.626L201.277 54.3952L207.914 54.3836C207.914 54.3836 210.399 41.7606 210.352 33.6776C210.547 26.5498 205.293 21.362 197.968 20.8337C193.941 20.7001 185.788 20.7525 185.788 20.7525ZM202.457 33.6041L202.58 39.3947L192.383 39.334L192.173 27.8431C199.453 27.8431 202.231 29.4173 202.457 33.6041Z" fill="white"/>
<path id="Vector_11" d="M223.368 53.7469C227.498 52.7875 230.088 49.6092 232.873 43.7755C239.913 29.0284 243.45 21.3613 243.45 21.3613H235.55L224.55 44.453C223.552 46.0917 221.807 46.7049 219.977 46.5658C221.386 37.7369 224.523 21.3617 224.523 21.3617H216.713C216.713 21.3617 211.482 52.6887 211.482 54.3795C211.482 54.4259 220.033 54.5215 223.368 53.7469Z" fill="white"/>
<path id="Vector_12" d="M254.877 21.3613L245.887 21.3975L236.297 54.3791L244.763 54.3339L254.877 21.3613Z" fill="white"/>
<path id="Vector_13" d="M259.475 21.3982L248.969 54.3799H266.603C271.821 54.3799 278.088 46.4551 278.088 46.4551L287.176 27.6949C289.241 23.0456 285.977 21.3623 280.902 21.4531C273.595 21.3602 259.475 21.3982 259.475 21.3982ZM277.875 27.8428L270.534 46.5662C270.534 46.5662 263.635 46.4923 260.184 46.5662L266.093 27.8428H277.875Z" fill="white"/>
<path id="Vector_14" d="M304.605 46.5683H290.235L293.379 40.087H308.88L312.025 33.6056H296.737L299.801 27.8444L316.212 27.8579L319.531 21.3636C319.531 21.3636 307.929 21.1239 301.241 21.5666C295.918 22.057 292.219 24.8842 290.917 27.9072L282.152 46.6216C279.722 51.6142 282.933 54.153 285.736 54.2376C290.9 54.4002 300.715 54.3359 300.715 54.3359L304.605 46.5683Z" fill="white"/>
<path id="Vector_15" d="M331.244 21.5251C325.579 21.7874 322.497 23.9816 319.643 27.7424C315.875 32.7228 307.872 46.666 307.872 46.666C304.538 53.0661 309.27 54.1089 313.014 54.2717C313.195 54.3805 322.306 54.3805 322.433 54.3034C326.647 54.2134 327.533 53.8813 329.547 52.7007C330.596 52.086 332.84 49.6792 335.466 46.5427L349.12 27.8761C350.996 25.3216 347.447 21.3631 343.879 21.4705C343.879 21.4705 331.444 21.3628 331.244 21.5251ZM328.46 27.8439H340.846L327.514 46.5673H316.123L328.46 27.8439Z" fill="white"/>
</g>
<path id="Vector_16" d="M366.155 1H3.88723C2.29266 1 1 2.29266 1 3.88723V94.0094C1 95.604 2.29266 96.8967 3.88723 96.8967H366.155C367.749 96.8967 369.042 95.604 369.042 94.0094V3.88723C369.042 2.29266 367.749 1 366.155 1Z" stroke="white" stroke-width="1.93744"/>
<g id="Group_2">
<path id="Vector_17" d="M336.391 48.4023V49.2702H338.066L338.067 53.6739H339.035L339.035 49.2702H340.73V48.4023H336.391Z" fill="black"/>
<path id="Vector_18" d="M336.391 48.4023V49.2702H338.066L338.067 53.6739H339.035L339.035 49.2702H340.73V48.4023H336.391Z" fill="white"/>
</g>
<g id="Group_3">
<path id="Vector_19" d="M342.527 48.4024L342.075 53.6736L342.983 53.6738L343.435 50.2389L344.726 53.6736H345.433L346.684 50.2793L347.136 53.6736H348.065L347.612 48.4023H346.482L345.09 52.2002L343.677 48.4023L342.527 48.4024Z" fill="black"/>
<path id="Vector_20" d="M342.527 48.4024L342.075 53.6736L342.983 53.6738L343.435 50.2389L344.726 53.6736H345.433L346.684 50.2793L347.136 53.6736H348.065L347.612 48.4023H346.482L345.09 52.2002L343.677 48.4023L342.527 48.4024Z" fill="white"/>
</g>
</g>
</g>
<defs>
<linearGradient id="paint0_linear_0_1" x1="657.137" y1="1" x2="657.137" y2="65.9474" gradientUnits="userSpaceOnUse">
<stop offset="0.278846" stop-color="#3593CC"/>
<stop offset="0.908654" stop-color="white"/>
</linearGradient>
<linearGradient id="paint1_linear_0_1" x1="476.67" y1="1" x2="476.67" y2="68.527" gradientUnits="userSpaceOnUse">
<stop offset="0.278846" stop-color="#3593CC"/>
<stop offset="0.908654" stop-color="white"/>
</linearGradient>
<linearGradient id="paint2_linear_0_1" x1="541.088" y1="22.957" x2="541.088" y2="46.571" gradientUnits="userSpaceOnUse">
<stop offset="0.278846" stop-color="#3593CC"/>
<stop offset="0.908654" stop-color="white"/>
</linearGradient>
</defs>
</svg>
