<svg id="svg" version="1.1" xmlns="http://www.w3.org/2000/svg" xmlns:xlink="http://www.w3.org/1999/xlink" width="400" height="141.09178164367125" viewBox="0, 0, 400,141.09178164367125"><g id="svgg"><path id="path0" d="M242.907 12.443 C 240.804 14.978,238.371 17.898,237.500 18.933 C 234.095 22.980,232.869 24.448,231.667 25.922 C 230.979 26.765,227.417 31.035,223.750 35.413 C 220.083 39.790,216.896 43.609,216.667 43.899 C 216.064 44.663,213.713 47.464,213.334 47.871 C 212.761 48.486,213.053 48.505,223.136 48.500 C 228.607 48.497,233.215 48.496,233.375 48.497 C 233.651 48.500,233.667 49.842,233.672 74.292 C 233.677 100.696,233.693 101.512,234.318 105.750 C 236.493 120.511,245.638 129.559,261.000 132.147 C 265.267 132.866,274.373 133.063,278.500 132.526 C 294.567 130.434,303.953 122.754,307.339 108.927 C 308.586 103.837,308.570 104.214,308.577 78.750 L 308.583 55.750 295.833 55.750 L 283.083 55.750 282.993 78.417 C 282.894 102.989,282.964 101.100,282.062 103.833 C 280.657 108.093,276.788 110.542,271.417 110.571 C 264.757 110.606,260.937 107.504,259.634 101.000 C 259.461 100.138,259.417 94.672,259.417 74.250 L 259.417 48.583 269.910 48.540 C 275.681 48.517,280.465 48.435,280.542 48.358 C 280.618 48.282,280.356 47.851,279.958 47.401 C 279.560 46.951,279.051 46.349,278.826 46.062 C 278.601 45.775,276.763 43.563,274.743 41.145 C 272.722 38.728,270.847 36.482,270.576 36.154 C 270.305 35.827,268.208 33.321,265.917 30.586 C 263.625 27.851,261.375 25.154,260.917 24.591 C 258.003 21.015,246.930 7.833,246.841 7.833 C 246.781 7.833,245.011 9.907,242.907 12.443 M310.930 55.811 C 310.859 55.927,310.791 108.154,310.833 131.292 C 310.833 131.456,313.461 131.500,323.417 131.500 L 336.000 131.500 336.000 121.354 C 336.000 113.439,336.046 111.170,336.208 111.037 C 336.340 110.929,338.942 110.837,343.250 110.789 C 347.404 110.742,350.508 110.635,351.167 110.516 C 351.762 110.408,352.962 110.207,353.833 110.069 C 371.608 107.253,381.420 93.857,378.224 76.768 C 376.180 65.838,367.088 58.254,353.750 56.353 C 353.017 56.248,351.892 56.075,351.250 55.968 C 349.736 55.716,311.083 55.565,310.930 55.811 M347.642 76.314 C 351.858 77.565,353.829 80.121,353.829 84.333 C 353.829 88.729,351.511 91.403,346.667 92.594 C 345.201 92.954,336.634 93.152,336.252 92.835 C 335.978 92.608,335.856 76.201,336.125 75.929 C 336.446 75.606,346.373 75.937,347.642 76.314 " stroke="none" fill="#b4d326" fill-rule="evenodd"></path><path id="path1" d="M246.083 1.160 C 245.900 1.242,245.469 1.315,245.125 1.322 C 244.686 1.330,244.500 1.408,244.500 1.583 C 244.500 1.750,244.333 1.833,244.000 1.833 C 243.679 1.833,243.500 1.918,243.500 2.070 C 243.500 2.200,243.267 2.358,242.983 2.420 C 242.457 2.536,241.833 3.031,241.833 3.333 C 241.833 3.425,241.545 3.788,241.192 4.141 C 240.840 4.494,240.323 5.112,240.044 5.516 C 239.765 5.920,239.360 6.445,239.144 6.683 C 238.333 7.575,238.000 8.007,238.000 8.168 C 238.000 8.259,237.925 8.333,237.833 8.333 C 237.742 8.333,237.667 8.446,237.667 8.583 C 237.667 8.721,237.576 8.815,237.464 8.792 C 237.353 8.769,237.185 8.919,237.092 9.125 C 236.998 9.331,236.826 9.500,236.710 9.500 C 236.595 9.500,236.500 9.615,236.500 9.755 C 236.500 9.896,236.394 10.051,236.265 10.101 C 236.136 10.150,235.988 10.354,235.937 10.554 C 235.885 10.753,235.624 11.062,235.356 11.240 C 235.088 11.417,234.736 11.787,234.574 12.061 C 234.206 12.683,233.969 12.970,232.875 14.110 C 232.394 14.612,232.000 15.130,232.000 15.261 C 232.000 15.393,231.925 15.500,231.833 15.500 C 231.742 15.500,231.667 15.612,231.667 15.750 C 231.667 15.887,231.586 16.000,231.488 16.000 C 231.241 16.000,230.826 16.437,230.952 16.563 C 231.009 16.620,230.931 16.667,230.778 16.667 C 230.625 16.667,230.500 16.771,230.500 16.899 C 230.500 17.027,230.387 17.174,230.250 17.227 C 230.112 17.280,230.000 17.400,230.000 17.495 C 230.000 17.589,229.850 17.817,229.667 18.000 C 229.483 18.183,229.333 18.446,229.333 18.583 C 229.333 18.721,229.239 18.833,229.123 18.833 C 229.007 18.833,228.763 19.035,228.581 19.282 C 228.399 19.529,228.119 19.846,227.958 19.986 C 227.798 20.126,227.667 20.305,227.667 20.383 C 227.667 20.461,227.292 20.896,226.833 21.349 C 226.375 21.803,226.000 22.277,226.000 22.402 C 226.000 22.528,225.883 22.676,225.739 22.731 C 225.596 22.786,225.526 22.907,225.583 22.999 C 225.640 23.091,225.569 23.167,225.427 23.167 C 225.284 23.167,225.167 23.244,225.167 23.338 C 225.167 23.432,224.946 23.751,224.677 24.046 C 223.549 25.283,223.333 25.560,223.333 25.774 C 223.333 25.898,223.221 26.000,223.083 26.000 C 222.946 26.000,222.833 26.113,222.833 26.250 C 222.833 26.387,222.721 26.500,222.583 26.500 C 222.446 26.500,222.333 26.564,222.333 26.641 C 222.333 26.719,222.183 26.955,222.000 27.167 C 221.817 27.378,221.667 27.652,221.667 27.776 C 221.667 27.899,221.554 28.000,221.417 28.000 C 221.279 28.000,221.167 28.080,221.167 28.177 C 221.167 28.275,220.942 28.544,220.667 28.776 C 220.392 29.007,220.167 29.295,220.167 29.417 C 220.167 29.538,219.942 29.826,219.667 30.058 C 219.392 30.289,219.167 30.558,219.167 30.656 C 219.167 30.753,219.106 30.833,219.032 30.833 C 218.958 30.833,218.677 31.142,218.407 31.520 C 218.137 31.898,217.673 32.441,217.375 32.727 C 217.077 33.014,216.833 33.342,216.833 33.457 C 216.833 33.572,216.769 33.667,216.689 33.667 C 216.610 33.667,216.329 33.980,216.064 34.364 C 215.800 34.747,215.283 35.377,214.917 35.763 C 213.864 36.873,213.500 37.344,213.500 37.597 C 213.500 37.727,213.419 37.833,213.320 37.833 C 213.074 37.833,211.833 39.183,211.833 39.451 C 211.833 39.570,211.758 39.667,211.667 39.667 C 211.575 39.667,211.500 39.779,211.500 39.917 C 211.500 40.054,211.422 40.167,211.326 40.167 C 211.098 40.167,210.432 40.837,210.289 41.209 C 210.227 41.369,210.100 41.500,210.005 41.500 C 209.911 41.500,209.833 41.650,209.833 41.833 C 209.833 42.019,209.722 42.167,209.583 42.167 C 209.446 42.167,209.333 42.231,209.333 42.309 C 209.333 42.519,208.544 43.333,208.341 43.333 C 208.245 43.333,208.167 43.444,208.167 43.579 C 208.167 43.715,207.904 44.064,207.583 44.356 C 207.113 44.784,207.000 45.009,207.000 45.517 C 207.000 45.863,206.925 46.193,206.833 46.250 C 206.742 46.307,206.664 46.630,206.661 46.968 C 206.658 47.307,206.551 47.722,206.423 47.891 C 206.184 48.206,206.252 48.654,206.571 48.872 C 206.670 48.940,196.606 48.996,184.208 48.997 C 169.293 48.999,161.667 49.056,161.667 49.167 C 161.667 49.258,161.254 49.333,160.750 49.333 C 160.246 49.333,159.833 49.258,159.833 49.167 C 159.833 49.056,148.920 49.000,127.427 49.000 C 106.002 49.000,94.985 49.056,94.917 49.167 C 94.860 49.258,94.443 49.333,93.990 49.333 C 93.369 49.333,93.167 49.395,93.167 49.583 C 93.167 49.758,92.991 49.833,92.585 49.833 C 92.039 49.833,91.712 50.011,90.975 50.708 C 90.805 50.869,90.592 51.000,90.500 51.000 C 90.408 51.000,90.333 51.099,90.333 51.221 C 90.333 51.343,90.071 51.661,89.750 51.928 C 89.311 52.295,89.167 52.544,89.167 52.937 C 89.167 53.224,89.054 53.553,88.917 53.667 C 88.779 53.781,88.667 54.044,88.667 54.253 C 88.667 54.683,87.395 54.521,87.117 54.056 C 87.043 53.934,86.835 53.833,86.653 53.833 C 86.471 53.833,86.283 53.728,86.233 53.600 C 86.184 53.471,85.875 53.316,85.548 53.254 C 85.220 53.193,84.845 53.035,84.714 52.905 C 84.583 52.774,84.303 52.667,84.092 52.667 C 83.880 52.667,83.615 52.556,83.503 52.420 C 83.390 52.284,82.936 52.125,82.493 52.067 C 82.045 52.007,81.648 51.858,81.599 51.730 C 81.547 51.596,81.271 51.500,80.940 51.500 C 80.586 51.500,80.332 51.405,80.273 51.250 C 80.210 51.085,79.949 51.000,79.505 51.000 C 79.019 51.000,78.833 50.931,78.833 50.750 C 78.833 50.570,78.649 50.500,78.177 50.500 C 77.815 50.500,77.473 50.425,77.417 50.333 C 77.360 50.242,77.060 50.167,76.750 50.167 C 76.440 50.167,76.140 50.092,76.083 50.000 C 76.027 49.908,75.655 49.833,75.258 49.833 C 74.770 49.833,74.505 49.752,74.440 49.583 C 74.369 49.399,74.078 49.333,73.339 49.333 C 72.780 49.333,72.333 49.259,72.333 49.167 C 72.333 49.075,72.015 48.998,71.625 48.995 C 71.235 48.992,70.771 48.879,70.593 48.745 C 70.395 48.595,69.895 48.500,69.301 48.500 C 68.769 48.500,68.333 48.432,68.333 48.349 C 68.333 48.088,65.004 47.967,57.917 47.970 C 50.917 47.973,48.333 48.075,48.333 48.346 C 48.333 48.431,47.930 48.500,47.437 48.500 C 46.844 48.500,46.471 48.584,46.333 48.750 C 46.201 48.910,45.832 49.000,45.313 49.000 C 44.866 49.000,44.500 49.075,44.500 49.167 C 44.500 49.258,44.160 49.333,43.745 49.333 C 43.227 49.333,42.959 49.412,42.894 49.583 C 42.834 49.738,42.581 49.833,42.230 49.833 C 41.918 49.833,41.532 49.901,41.373 49.984 C 41.214 50.066,40.783 50.214,40.417 50.311 C 40.050 50.409,39.581 50.534,39.375 50.589 C 39.169 50.644,39.000 50.759,39.000 50.845 C 39.000 50.930,38.775 51.000,38.500 51.000 C 38.167 51.000,38.000 51.083,38.000 51.250 C 38.000 51.415,37.835 51.500,37.512 51.500 C 37.243 51.500,36.910 51.614,36.772 51.752 C 36.633 51.891,36.271 52.053,35.968 52.111 C 35.665 52.170,35.357 52.319,35.283 52.442 C 35.210 52.566,35.013 52.667,34.845 52.667 C 34.678 52.667,34.447 52.779,34.333 52.917 C 34.219 53.054,34.022 53.167,33.895 53.167 C 33.767 53.167,33.535 53.317,33.378 53.500 C 33.221 53.683,32.959 53.833,32.796 53.833 C 32.633 53.833,32.500 53.912,32.500 54.009 C 32.500 54.105,32.237 54.293,31.917 54.427 C 31.596 54.561,31.333 54.745,31.333 54.836 C 31.333 54.926,31.255 55.000,31.159 55.000 C 31.063 55.000,30.810 55.188,30.598 55.417 C 30.386 55.646,30.159 55.833,30.094 55.833 C 30.029 55.833,29.877 55.927,29.757 56.042 C 29.636 56.156,29.327 56.400,29.070 56.583 C 28.400 57.063,26.185 59.286,25.501 60.167 C 25.181 60.579,24.862 60.942,24.793 60.972 C 24.723 61.003,24.667 61.107,24.667 61.203 C 24.667 61.300,24.498 61.539,24.292 61.736 C 23.970 62.042,23.512 62.698,22.534 64.250 C 22.418 64.433,22.281 64.709,22.229 64.863 C 22.177 65.018,22.029 65.184,21.900 65.233 C 21.772 65.283,21.667 65.471,21.667 65.652 C 21.667 65.832,21.599 66.022,21.516 66.074 C 21.433 66.125,21.404 66.317,21.452 66.500 C 21.512 66.732,21.457 66.833,21.269 66.833 C 21.121 66.833,21.000 66.968,21.000 67.135 C 21.000 67.301,20.890 67.582,20.755 67.760 C 20.621 67.938,20.508 68.280,20.505 68.521 C 20.502 68.762,20.395 69.046,20.266 69.153 C 20.133 69.264,19.983 69.843,19.917 70.500 C 19.851 71.157,19.700 71.736,19.567 71.847 C 19.439 71.954,19.333 72.305,19.333 72.627 C 19.333 72.993,19.224 73.293,19.042 73.427 C 18.594 73.754,18.594 85.293,19.042 85.787 C 19.202 85.965,19.333 86.353,19.333 86.650 C 19.333 86.947,19.436 87.293,19.561 87.418 C 19.686 87.543,19.838 88.089,19.899 88.632 C 19.961 89.174,20.119 89.760,20.250 89.934 C 20.382 90.108,20.492 90.448,20.495 90.691 C 20.498 90.933,20.612 91.174,20.750 91.227 C 20.887 91.280,21.000 91.431,21.000 91.562 C 21.000 91.828,22.060 93.768,22.430 94.180 C 22.560 94.325,22.667 94.526,22.667 94.627 C 22.667 94.728,22.817 94.858,23.000 94.917 C 23.183 94.975,23.333 95.130,23.333 95.261 C 23.333 95.393,23.408 95.500,23.500 95.500 C 23.592 95.500,23.668 95.594,23.669 95.708 C 23.670 95.823,24.157 96.436,24.752 97.071 C 25.347 97.705,25.833 98.287,25.833 98.362 C 25.833 98.438,25.901 98.500,25.983 98.500 C 26.065 98.500,26.514 98.873,26.980 99.329 C 27.446 99.785,28.016 100.206,28.247 100.264 C 28.758 100.392,28.808 100.913,28.333 101.167 C 28.150 101.265,28.000 101.455,28.000 101.589 C 28.000 101.723,27.930 101.833,27.845 101.833 C 27.759 101.833,27.642 101.983,27.583 102.167 C 27.525 102.350,27.370 102.500,27.239 102.500 C 27.107 102.500,27.000 102.575,27.000 102.667 C 27.000 102.758,26.869 102.979,26.708 103.156 C 26.548 103.334,26.192 103.762,25.917 104.107 C 25.642 104.452,25.248 104.910,25.042 105.124 C 24.835 105.339,24.667 105.551,24.667 105.594 C 24.667 105.637,24.419 105.915,24.115 106.211 C 23.812 106.508,23.421 106.994,23.246 107.292 C 23.071 107.590,22.869 107.833,22.797 107.833 C 22.725 107.833,22.667 107.946,22.667 108.083 C 22.667 108.221,22.554 108.333,22.417 108.333 C 22.279 108.333,22.167 108.405,22.167 108.492 C 22.167 108.580,21.998 108.833,21.792 109.055 C 21.585 109.277,21.192 109.731,20.917 110.063 C 20.642 110.395,20.154 110.954,19.833 111.305 C 19.512 111.657,19.137 112.112,19.000 112.318 C 18.862 112.523,18.426 113.042,18.030 113.471 C 17.634 113.899,17.209 114.438,17.086 114.667 C 16.962 114.896,16.705 115.194,16.514 115.328 C 16.323 115.463,16.167 115.628,16.167 115.695 C 16.167 115.762,15.979 116.019,15.750 116.266 C 14.587 117.521,14.595 122.998,15.761 124.079 C 15.984 124.286,16.167 124.527,16.167 124.615 C 16.167 124.703,16.438 124.995,16.771 125.263 C 17.103 125.531,17.593 125.956,17.860 126.208 C 18.126 126.460,18.406 126.667,18.481 126.667 C 18.557 126.667,18.820 126.854,19.068 127.083 C 19.315 127.313,19.588 127.500,19.675 127.500 C 19.762 127.500,19.833 127.576,19.833 127.669 C 19.833 127.763,20.096 127.964,20.417 128.117 C 20.738 128.270,21.000 128.456,21.000 128.531 C 21.000 128.606,21.075 128.667,21.167 128.667 C 21.258 128.667,21.483 128.817,21.667 129.000 C 21.850 129.183,22.150 129.333,22.333 129.333 C 22.519 129.333,22.667 129.444,22.667 129.583 C 22.667 129.721,22.771 129.833,22.899 129.833 C 23.027 129.833,23.170 129.935,23.218 130.060 C 23.266 130.184,23.603 130.334,23.968 130.392 C 24.332 130.450,24.674 130.611,24.727 130.749 C 24.780 130.887,24.938 131.000,25.078 131.000 C 25.218 131.000,25.333 131.112,25.333 131.250 C 25.333 131.387,25.430 131.500,25.548 131.500 C 25.666 131.500,26.057 131.650,26.417 131.833 C 26.776 132.017,27.169 132.167,27.290 132.167 C 27.411 132.167,27.554 132.279,27.606 132.417 C 27.659 132.554,27.882 132.667,28.101 132.667 C 28.345 132.667,28.500 132.764,28.500 132.917 C 28.500 133.071,28.656 133.167,28.907 133.167 C 29.131 133.167,29.360 133.242,29.417 133.333 C 29.473 133.425,29.633 133.500,29.772 133.500 C 29.910 133.500,30.136 133.612,30.274 133.750 C 30.411 133.887,30.706 134.000,30.929 134.000 C 31.151 134.000,31.333 134.075,31.333 134.167 C 31.333 134.258,31.558 134.333,31.833 134.333 C 32.108 134.333,32.333 134.408,32.333 134.500 C 32.333 134.592,32.515 134.667,32.738 134.667 C 32.961 134.667,33.255 134.779,33.393 134.917 C 33.530 135.054,33.804 135.167,34.000 135.167 C 34.196 135.167,34.462 135.272,34.590 135.400 C 34.718 135.528,35.272 135.685,35.821 135.749 C 36.369 135.812,36.906 135.970,37.013 136.099 C 37.120 136.228,37.453 136.333,37.753 136.333 C 38.059 136.333,38.336 136.433,38.385 136.561 C 38.443 136.712,38.920 136.827,39.805 136.904 C 40.729 136.985,41.167 137.094,41.231 137.260 C 41.297 137.432,41.607 137.500,42.328 137.500 C 43.040 137.500,43.321 137.560,43.292 137.707 C 43.262 137.855,43.771 137.955,45.083 138.058 C 46.092 138.138,46.967 138.284,47.029 138.383 C 47.091 138.482,47.841 138.595,48.696 138.633 C 49.639 138.676,50.348 138.789,50.500 138.921 C 51.240 139.564,67.415 139.572,67.917 138.929 C 68.016 138.803,68.619 138.681,69.392 138.632 C 70.112 138.586,70.749 138.470,70.809 138.375 C 70.868 138.280,71.579 138.148,72.388 138.080 C 73.394 137.997,73.888 137.886,73.948 137.729 C 74.004 137.583,74.301 137.500,74.773 137.500 C 75.253 137.500,75.542 137.418,75.600 137.266 C 75.659 137.113,76.095 136.991,76.857 136.914 C 77.613 136.838,78.056 136.715,78.113 136.565 C 78.164 136.432,78.436 136.333,78.750 136.333 C 79.066 136.333,79.336 136.234,79.387 136.100 C 79.436 135.972,79.801 135.814,80.197 135.751 C 80.593 135.687,81.083 135.529,81.286 135.401 C 81.489 135.272,81.770 135.167,81.911 135.167 C 82.052 135.167,82.167 135.097,82.167 135.012 C 82.167 134.813,83.126 134.333,83.526 134.333 C 83.695 134.333,83.833 134.258,83.833 134.167 C 83.833 134.075,83.935 134.000,84.059 134.000 C 84.183 134.000,84.487 133.813,84.734 133.583 C 84.982 133.354,85.330 133.167,85.509 133.167 C 85.687 133.167,85.833 133.054,85.833 132.917 C 85.833 132.778,85.981 132.667,86.167 132.667 C 86.350 132.667,86.500 132.571,86.500 132.453 C 86.500 132.336,86.706 132.145,86.958 132.030 C 87.890 131.604,88.167 131.416,88.167 131.210 C 88.167 131.095,88.232 131.000,88.312 131.000 C 88.473 131.000,88.662 131.960,88.665 132.797 C 88.666 133.128,88.765 133.382,88.917 133.440 C 89.060 133.495,89.167 133.744,89.167 134.024 C 89.167 134.549,89.564 135.283,90.039 135.634 C 90.201 135.754,90.333 135.960,90.333 136.093 C 90.333 136.225,90.446 136.333,90.583 136.333 C 90.721 136.333,90.833 136.446,90.833 136.583 C 90.833 136.721,90.936 136.833,91.061 136.833 C 91.186 136.833,91.479 136.983,91.712 137.167 C 91.945 137.350,92.364 137.500,92.643 137.500 C 92.922 137.500,93.213 137.613,93.290 137.750 C 93.483 138.094,161.944 138.052,161.875 137.708 C 161.847 137.568,162.065 137.500,162.546 137.500 C 163.053 137.500,163.342 137.404,163.545 137.167 C 163.702 136.983,163.941 136.833,164.076 136.833 C 164.211 136.833,164.411 136.666,164.520 136.462 C 164.630 136.258,164.932 135.903,165.193 135.675 C 165.453 135.446,165.667 135.190,165.667 135.106 C 165.667 135.022,165.777 134.870,165.912 134.768 C 166.074 134.646,166.195 134.118,166.269 133.217 C 166.343 132.302,166.455 131.822,166.607 131.764 C 166.944 131.635,166.944 110.799,166.606 110.519 C 166.474 110.410,166.332 109.806,166.266 109.080 C 166.166 107.978,166.089 107.764,165.618 107.271 C 165.324 106.964,164.933 106.518,164.750 106.280 C 164.567 106.043,164.360 105.845,164.292 105.841 C 164.223 105.837,164.017 105.683,163.833 105.500 C 163.650 105.317,163.350 105.167,163.167 105.167 C 162.741 105.167,162.713 104.541,163.125 104.240 C 163.397 104.041,163.417 103.346,163.417 93.764 L 163.417 83.500 170.458 83.500 L 177.500 83.500 177.500 108.422 C 177.500 130.421,177.529 133.355,177.750 133.440 C 177.899 133.497,178.000 133.748,178.000 134.062 C 178.000 134.591,178.706 135.833,179.006 135.833 C 179.094 135.833,179.167 135.946,179.167 136.083 C 179.167 136.221,179.279 136.333,179.417 136.333 C 179.554 136.333,179.667 136.446,179.667 136.583 C 179.667 136.721,179.769 136.833,179.894 136.833 C 180.019 136.833,180.312 136.983,180.545 137.167 C 180.779 137.350,181.193 137.500,181.467 137.500 C 181.755 137.500,182.005 137.605,182.060 137.750 C 182.206 138.129,210.627 138.129,210.773 137.750 C 210.833 137.595,211.086 137.500,211.441 137.500 C 211.784 137.500,212.158 137.366,212.372 137.167 C 212.569 136.983,212.828 136.833,212.948 136.833 C 213.068 136.833,213.167 136.721,213.167 136.583 C 213.167 136.446,213.279 136.333,213.417 136.333 C 213.554 136.333,213.667 136.266,213.667 136.184 C 213.667 136.102,213.896 135.790,214.176 135.490 C 214.457 135.189,214.730 134.725,214.783 134.458 C 214.837 134.190,214.983 133.932,215.107 133.885 C 215.254 133.828,215.333 133.517,215.333 132.992 C 215.333 132.549,215.408 132.140,215.500 132.083 C 215.610 132.015,215.667 123.720,215.667 107.740 L 215.667 83.500 221.417 83.500 L 227.167 83.500 227.167 93.563 C 227.167 102.072,227.203 103.656,227.404 103.823 C 227.556 103.949,227.672 104.483,227.725 105.302 C 227.771 106.007,227.893 107.071,227.995 107.667 C 228.098 108.263,228.223 109.112,228.274 109.553 C 228.328 110.017,228.466 110.395,228.600 110.446 C 228.750 110.504,228.833 110.791,228.833 111.247 C 228.833 111.655,228.933 112.042,229.067 112.153 C 229.200 112.264,229.351 112.843,229.417 113.500 C 229.483 114.157,229.633 114.736,229.766 114.847 C 229.895 114.954,230.000 115.259,230.000 115.526 C 230.000 115.803,230.107 116.052,230.250 116.106 C 230.387 116.159,230.500 116.379,230.500 116.595 C 230.500 116.810,230.601 117.081,230.725 117.197 C 230.848 117.312,230.915 117.540,230.872 117.703 C 230.829 117.867,230.878 118.000,230.981 118.000 C 231.083 118.000,231.167 118.179,231.167 118.399 C 231.167 118.618,231.279 118.841,231.417 118.894 C 231.554 118.946,231.667 119.138,231.667 119.320 C 231.667 119.501,231.760 119.710,231.875 119.783 C 231.990 119.857,232.089 119.992,232.096 120.083 C 232.123 120.443,232.541 121.333,232.683 121.333 C 232.766 121.333,232.833 121.446,232.833 121.583 C 232.833 121.721,232.891 121.833,232.962 121.833 C 233.033 121.833,233.239 122.115,233.420 122.458 C 233.822 123.219,233.917 123.345,234.708 124.162 C 235.052 124.517,235.333 124.909,235.333 125.033 C 235.333 125.158,235.465 125.379,235.625 125.526 C 235.785 125.673,236.179 126.113,236.500 126.506 C 237.518 127.750,238.920 129.119,239.300 129.239 C 239.502 129.303,239.667 129.426,239.667 129.511 C 239.667 129.705,240.284 130.333,240.474 130.333 C 240.552 130.333,240.789 130.483,241.000 130.667 C 241.211 130.850,241.485 131.000,241.609 131.000 C 241.732 131.000,241.834 131.094,241.834 131.208 C 241.836 131.470,242.842 132.167,243.219 132.167 C 243.373 132.167,243.500 132.279,243.500 132.417 C 243.500 132.554,243.612 132.667,243.750 132.667 C 243.887 132.667,244.000 132.738,244.000 132.826 C 244.000 132.913,244.259 133.107,244.576 133.258 C 244.892 133.408,245.239 133.636,245.346 133.765 C 245.453 133.894,245.644 134.000,245.770 134.000 C 245.897 134.000,246.000 134.075,246.000 134.167 C 246.000 134.258,246.188 134.333,246.417 134.333 C 246.646 134.333,246.833 134.408,246.833 134.500 C 246.833 134.592,246.978 134.667,247.155 134.667 C 247.332 134.667,247.589 134.779,247.726 134.917 C 247.864 135.054,248.088 135.167,248.224 135.167 C 248.361 135.167,248.498 135.244,248.530 135.339 C 248.561 135.434,249.034 135.616,249.581 135.743 C 250.127 135.870,250.602 136.055,250.634 136.153 C 250.667 136.252,250.951 136.333,251.264 136.333 C 251.622 136.333,251.818 136.408,251.792 136.536 C 251.764 136.668,252.168 136.798,252.952 136.911 C 253.613 137.006,254.247 137.177,254.360 137.292 C 254.474 137.406,254.889 137.500,255.283 137.500 C 255.782 137.500,256.000 137.570,256.000 137.730 C 256.000 137.902,256.412 137.991,257.625 138.082 C 258.519 138.148,259.299 138.280,259.358 138.375 C 259.417 138.470,260.055 138.586,260.774 138.632 C 261.551 138.682,262.150 138.803,262.250 138.930 C 262.745 139.565,279.252 139.567,279.750 138.932 C 279.849 138.806,280.480 138.681,281.298 138.625 C 282.057 138.573,282.776 138.450,282.894 138.352 C 283.013 138.253,283.767 138.122,284.570 138.061 C 285.556 137.985,286.058 137.876,286.116 137.724 C 286.167 137.591,286.458 137.500,286.831 137.500 C 287.176 137.500,287.548 137.393,287.657 137.262 C 287.767 137.129,288.332 136.973,288.940 136.908 C 289.620 136.835,290.059 136.706,290.114 136.563 C 290.164 136.432,290.439 136.333,290.750 136.333 C 291.065 136.333,291.336 136.234,291.387 136.101 C 291.438 135.968,291.844 135.817,292.333 135.750 C 292.822 135.683,293.229 135.532,293.280 135.399 C 293.329 135.271,293.588 135.167,293.856 135.167 C 294.136 135.167,294.385 135.060,294.440 134.917 C 294.492 134.779,294.673 134.667,294.841 134.667 C 295.009 134.667,295.193 134.592,295.250 134.500 C 295.307 134.408,295.499 134.333,295.677 134.333 C 295.854 134.333,296.000 134.258,296.000 134.167 C 296.000 134.075,296.115 134.000,296.255 134.000 C 296.396 134.000,296.554 133.887,296.606 133.750 C 296.659 133.612,296.844 133.500,297.018 133.500 C 297.191 133.500,297.333 133.425,297.333 133.333 C 297.333 133.242,297.486 133.167,297.672 133.167 C 297.858 133.167,298.054 133.054,298.106 132.917 C 298.159 132.779,298.307 132.667,298.434 132.667 C 298.562 132.667,298.667 132.595,298.667 132.508 C 298.667 132.420,298.929 132.224,299.250 132.072 C 299.571 131.920,299.833 131.729,299.833 131.648 C 299.833 131.566,299.948 131.500,300.089 131.500 C 300.229 131.500,300.387 131.387,300.440 131.250 C 300.492 131.112,300.623 131.000,300.731 131.000 C 300.838 131.000,301.054 130.850,301.211 130.667 C 301.368 130.483,301.610 130.333,301.748 130.333 C 301.887 130.333,302.000 130.221,302.000 130.083 C 302.000 129.946,302.112 129.833,302.250 129.833 C 302.387 129.833,302.500 129.721,302.500 129.583 C 302.500 129.446,302.587 129.333,302.693 129.333 C 302.799 129.333,303.192 129.020,303.568 128.637 L 304.250 127.940 304.296 130.591 C 304.321 132.049,304.415 133.315,304.504 133.404 C 304.594 133.494,304.667 133.852,304.667 134.200 C 304.667 134.652,304.738 134.833,304.917 134.833 C 305.054 134.833,305.167 134.943,305.167 135.077 C 305.167 135.393,306.748 137.000,307.059 137.000 C 307.190 137.000,307.341 137.112,307.394 137.250 C 307.459 137.421,307.727 137.500,308.245 137.500 C 308.760 137.500,308.987 137.566,308.958 137.708 C 308.890 138.052,337.684 138.095,337.876 137.751 C 337.959 137.602,338.253 137.500,338.597 137.500 C 338.948 137.500,339.213 137.405,339.269 137.260 C 339.320 137.128,339.580 136.972,339.847 136.914 C 340.115 136.855,340.333 136.700,340.333 136.570 C 340.333 136.440,340.446 136.333,340.583 136.333 C 340.721 136.333,340.833 136.239,340.833 136.123 C 340.833 136.008,340.983 135.820,341.167 135.705 C 341.350 135.591,341.500 135.393,341.500 135.266 C 341.500 135.140,341.613 134.992,341.750 134.940 C 341.915 134.876,342.000 134.615,342.000 134.167 C 342.000 133.719,342.085 133.457,342.250 133.394 C 342.467 133.310,342.500 132.257,342.500 125.316 L 342.500 117.333 346.292 117.332 C 349.171 117.332,350.188 117.277,350.520 117.104 C 350.783 116.966,351.864 116.827,353.240 116.754 C 354.953 116.662,355.546 116.573,355.613 116.399 C 355.673 116.244,355.974 116.167,356.518 116.167 C 357.095 116.167,357.333 116.100,357.333 115.940 C 357.333 115.775,357.724 115.681,358.761 115.597 C 360.329 115.469,360.712 115.375,360.573 115.149 C 360.522 115.067,360.787 115.000,361.162 115.000 C 361.614 115.000,361.876 114.916,361.940 114.750 C 361.998 114.597,362.251 114.500,362.591 114.500 C 362.897 114.500,363.193 114.425,363.250 114.333 C 363.307 114.242,363.532 114.167,363.750 114.167 C 363.968 114.167,364.193 114.092,364.250 114.000 C 364.307 113.908,364.538 113.833,364.765 113.833 C 364.992 113.833,365.220 113.721,365.273 113.583 C 365.327 113.444,365.574 113.333,365.833 113.333 C 366.089 113.333,366.334 113.240,366.378 113.125 C 366.422 113.010,366.805 112.815,367.229 112.690 C 367.653 112.565,368.000 112.396,368.000 112.315 C 368.000 112.233,368.142 112.167,368.316 112.167 C 368.489 112.167,368.674 112.054,368.727 111.917 C 368.780 111.779,368.938 111.667,369.078 111.667 C 369.218 111.667,369.333 111.592,369.333 111.500 C 369.333 111.408,369.480 111.333,369.658 111.333 C 369.837 111.333,370.043 111.240,370.117 111.125 C 370.267 110.889,371.102 110.360,371.542 110.220 C 371.702 110.169,371.833 110.024,371.833 109.897 C 371.833 109.770,371.942 109.667,372.075 109.667 C 372.208 109.667,372.377 109.571,372.450 109.455 C 372.523 109.338,372.790 109.152,373.042 109.042 C 373.294 108.931,373.500 108.764,373.500 108.670 C 373.500 108.577,373.613 108.500,373.750 108.500 C 373.887 108.500,374.000 108.388,374.000 108.250 C 374.000 108.112,374.112 108.000,374.249 108.000 C 374.385 108.000,374.591 107.850,374.705 107.667 C 374.820 107.483,375.008 107.333,375.123 107.333 C 375.239 107.333,375.333 107.221,375.333 107.083 C 375.333 106.946,375.446 106.833,375.583 106.833 C 375.721 106.833,375.833 106.758,375.833 106.667 C 375.833 106.575,375.946 106.500,376.083 106.500 C 376.221 106.500,376.333 106.444,376.334 106.375 C 376.334 106.306,376.502 106.051,376.709 105.808 C 376.915 105.564,377.271 105.132,377.500 104.848 C 377.729 104.564,378.198 104.013,378.542 103.624 C 378.885 103.235,379.167 102.823,379.167 102.708 C 379.167 102.594,379.242 102.500,379.333 102.500 C 379.425 102.500,379.500 102.388,379.500 102.250 C 379.500 102.112,379.604 102.000,379.731 102.000 C 379.857 102.000,380.010 101.869,380.071 101.708 C 380.247 101.239,380.753 100.386,381.214 99.783 C 381.449 99.475,381.692 98.953,381.754 98.623 C 381.815 98.293,381.971 97.983,382.100 97.933 C 382.228 97.884,382.333 97.701,382.333 97.526 C 382.333 97.351,382.446 97.114,382.583 97.000 C 382.721 96.886,382.833 96.610,382.833 96.386 C 382.833 96.158,382.906 96.025,383.000 96.083 C 383.092 96.140,383.173 96.088,383.181 95.968 C 383.241 95.016,383.644 93.258,383.814 93.201 C 383.916 93.167,384.000 92.816,384.000 92.421 C 384.000 91.958,384.083 91.670,384.234 91.613 C 384.377 91.558,384.501 91.180,384.553 90.636 C 384.600 90.149,384.715 89.375,384.809 88.917 C 385.032 87.830,385.033 77.675,384.810 76.583 C 384.717 76.125,384.602 75.397,384.554 74.966 C 384.507 74.535,384.363 74.094,384.234 73.987 C 384.105 73.880,384.000 73.499,384.000 73.141 C 384.000 72.716,383.913 72.456,383.750 72.394 C 383.588 72.331,383.500 72.073,383.500 71.659 C 383.500 71.307,383.425 70.973,383.333 70.917 C 383.242 70.860,383.167 70.635,383.167 70.417 C 383.167 70.198,383.092 69.973,383.000 69.917 C 382.908 69.860,382.833 69.591,382.833 69.318 C 382.833 69.032,382.728 68.782,382.583 68.727 C 382.446 68.674,382.333 68.461,382.333 68.253 C 382.333 68.044,382.226 67.785,382.094 67.676 C 381.962 67.566,381.803 67.239,381.739 66.949 C 381.601 66.322,381.166 65.679,380.875 65.672 C 380.760 65.669,380.667 65.483,380.667 65.258 C 380.667 65.034,380.569 64.790,380.449 64.717 C 380.330 64.643,380.051 64.286,379.830 63.923 C 379.609 63.559,379.314 63.130,379.173 62.968 C 379.032 62.806,378.692 62.401,378.417 62.068 C 377.617 61.100,375.670 59.167,375.494 59.167 C 375.406 59.167,375.333 59.054,375.333 58.917 C 375.333 58.779,375.221 58.667,375.083 58.667 C 374.946 58.667,374.833 58.566,374.833 58.443 C 374.833 58.321,374.646 58.135,374.417 58.030 C 374.188 57.926,374.000 57.764,374.000 57.670 C 374.000 57.577,373.887 57.500,373.750 57.500 C 373.613 57.500,373.500 57.440,373.500 57.366 C 373.500 57.206,371.839 56.040,370.958 55.583 C 370.615 55.404,370.333 55.200,370.333 55.129 C 370.333 55.058,370.183 55.000,370.000 55.000 C 369.817 55.000,369.667 54.921,369.667 54.825 C 369.667 54.728,369.409 54.542,369.095 54.411 C 368.780 54.279,368.476 54.096,368.418 54.003 C 368.361 53.909,368.131 53.833,367.907 53.833 C 367.671 53.833,367.500 53.736,367.500 53.602 C 367.500 53.455,367.218 53.329,366.724 53.255 C 366.297 53.191,365.842 53.032,365.712 52.903 C 365.582 52.773,365.341 52.667,365.175 52.667 C 365.010 52.667,364.789 52.565,364.686 52.440 C 364.582 52.315,364.142 52.170,363.707 52.119 C 363.272 52.067,362.692 51.907,362.417 51.763 C 362.142 51.620,361.682 51.502,361.395 51.501 C 361.109 51.500,360.781 51.388,360.667 51.250 C 360.553 51.112,360.215 51.000,359.917 51.000 C 359.618 51.000,359.286 50.894,359.179 50.765 C 359.072 50.636,358.594 50.487,358.117 50.435 C 355.908 50.195,355.500 50.124,355.500 49.984 C 355.500 49.901,354.908 49.833,354.184 49.833 C 353.190 49.833,352.846 49.774,352.776 49.592 C 352.608 49.154,310.667 48.729,310.667 49.165 C 310.667 49.260,310.228 49.333,309.667 49.333 C 309.111 49.333,308.667 49.259,308.667 49.167 C 308.667 49.057,304.986 49.000,297.958 49.000 L 287.250 48.999 287.220 47.958 C 287.204 47.385,287.114 46.654,287.020 46.333 C 286.926 46.012,286.806 45.541,286.753 45.285 C 286.700 45.029,286.584 44.865,286.495 44.920 C 286.406 44.975,286.333 44.914,286.333 44.786 C 286.333 44.657,285.958 44.161,285.500 43.683 C 285.042 43.205,284.667 42.743,284.667 42.657 C 284.667 42.571,284.556 42.500,284.420 42.500 C 284.284 42.500,284.126 42.313,284.068 42.083 C 284.011 41.854,283.859 41.667,283.732 41.667 C 283.604 41.667,283.500 41.589,283.500 41.493 C 283.500 41.294,283.248 40.964,282.708 40.458 C 282.502 40.265,282.333 40.008,282.333 39.887 C 282.333 39.766,282.221 39.667,282.083 39.667 C 281.946 39.667,281.833 39.562,281.833 39.434 C 281.833 39.307,281.721 39.159,281.583 39.106 C 281.446 39.054,281.333 38.922,281.333 38.815 C 281.333 38.707,281.108 38.404,280.833 38.142 C 280.558 37.879,280.333 37.589,280.333 37.499 C 280.333 37.408,280.221 37.333,280.083 37.333 C 279.946 37.333,279.833 37.253,279.833 37.155 C 279.833 37.057,279.740 36.872,279.625 36.744 C 279.172 36.239,279.000 36.010,279.000 35.912 C 279.000 35.743,278.537 35.333,278.345 35.333 C 278.247 35.333,278.167 35.221,278.167 35.085 C 278.167 34.948,278.017 34.742,277.833 34.628 C 277.650 34.513,277.500 34.360,277.500 34.286 C 277.500 34.142,277.404 34.011,276.755 33.267 C 276.523 33.002,276.333 32.721,276.333 32.642 C 276.333 32.564,276.221 32.500,276.083 32.500 C 275.946 32.500,275.833 32.422,275.833 32.326 C 275.833 32.147,275.776 32.067,275.081 31.283 C 274.853 31.026,274.667 30.743,274.667 30.655 C 274.667 30.566,274.479 30.407,274.250 30.303 C 274.021 30.199,273.833 30.021,273.833 29.907 C 273.833 29.794,273.647 29.525,273.420 29.309 C 273.192 29.093,273.004 28.823,273.003 28.708 C 273.001 28.594,272.887 28.500,272.750 28.500 C 272.612 28.500,272.500 28.420,272.500 28.321 C 272.500 28.099,272.079 27.667,271.863 27.667 C 271.775 27.667,271.660 27.498,271.608 27.292 C 271.555 27.085,271.284 26.668,271.006 26.365 C 270.728 26.061,270.500 25.742,270.500 25.656 C 270.500 25.570,270.385 25.500,270.245 25.500 C 270.104 25.500,269.941 25.369,269.882 25.208 C 269.823 25.048,269.731 24.879,269.678 24.833 C 269.625 24.787,269.364 24.450,269.098 24.083 C 268.833 23.717,268.364 23.185,268.058 22.902 C 267.751 22.619,267.500 22.300,267.500 22.194 C 267.500 22.087,267.425 22.000,267.333 22.000 C 267.242 22.000,267.167 21.926,267.167 21.835 C 267.167 21.744,266.942 21.455,266.667 21.192 C 266.392 20.929,266.167 20.628,266.167 20.524 C 266.167 20.419,266.068 20.333,265.947 20.333 C 265.827 20.333,265.556 20.028,265.347 19.655 C 265.137 19.282,264.861 18.936,264.733 18.887 C 264.605 18.838,264.500 18.693,264.500 18.566 C 264.500 18.438,264.387 18.333,264.250 18.333 C 264.112 18.333,264.000 18.251,264.000 18.151 C 264.000 18.050,263.587 17.498,263.083 16.924 C 262.579 16.350,262.167 15.794,262.167 15.690 C 262.167 15.585,262.054 15.500,261.917 15.500 C 261.779 15.500,261.667 15.431,261.667 15.347 C 261.667 15.195,261.439 14.899,260.324 13.605 C 259.998 13.226,259.448 12.523,259.101 12.042 C 258.755 11.560,258.365 11.167,258.236 11.167 C 258.106 11.167,258.000 11.054,258.000 10.917 C 258.000 10.779,257.938 10.667,257.861 10.667 C 257.785 10.667,257.485 10.300,257.194 9.851 C 256.904 9.402,256.553 8.992,256.416 8.940 C 256.279 8.887,256.167 8.729,256.167 8.589 C 256.167 8.448,256.054 8.333,255.917 8.333 C 255.779 8.333,255.667 8.253,255.667 8.155 C 255.667 8.057,255.573 7.875,255.458 7.751 C 255.344 7.628,255.100 7.332,254.917 7.093 C 254.733 6.854,254.393 6.455,254.160 6.205 C 253.928 5.955,253.484 5.394,253.174 4.958 C 252.864 4.523,252.548 4.167,252.472 4.167 C 252.396 4.167,252.352 4.106,252.375 4.031 C 252.439 3.825,251.131 2.558,250.724 2.432 C 250.526 2.371,250.322 2.211,250.271 2.077 C 250.214 1.929,249.953 1.833,249.606 1.833 C 249.272 1.833,248.999 1.737,248.947 1.601 C 248.898 1.473,248.533 1.328,248.137 1.279 C 247.741 1.229,247.192 1.148,246.917 1.099 C 246.642 1.050,246.267 1.078,246.083 1.160 M253.517 15.701 C 257.128 20.028,260.458 24.029,260.917 24.591 C 261.375 25.154,263.625 27.851,265.917 30.586 C 268.208 33.321,270.305 35.827,270.576 36.154 C 270.847 36.482,272.722 38.728,274.743 41.145 C 276.763 43.563,278.601 45.775,278.826 46.062 C 279.051 46.349,279.560 46.951,279.958 47.401 C 280.356 47.851,280.618 48.282,280.542 48.358 C 280.465 48.435,275.681 48.517,269.910 48.540 L 259.417 48.583 259.417 74.250 C 259.417 94.672,259.461 100.138,259.634 101.000 C 260.937 107.504,264.757 110.606,271.417 110.571 C 276.788 110.542,280.657 108.093,282.062 103.833 C 282.964 101.100,282.894 102.989,282.993 78.417 L 283.083 55.750 295.833 55.750 L 308.583 55.750 308.577 78.750 C 308.570 104.214,308.586 103.837,307.339 108.927 C 303.953 122.754,294.567 130.434,278.500 132.526 C 274.373 133.063,265.267 132.866,261.000 132.147 C 245.638 129.559,236.493 120.511,234.318 105.750 C 233.693 101.512,233.677 100.696,233.672 74.292 C 233.667 49.842,233.651 48.500,233.375 48.497 C 233.215 48.496,228.607 48.497,223.136 48.500 C 213.053 48.505,212.761 48.486,213.334 47.871 C 213.713 47.464,216.064 44.663,216.667 43.899 C 216.896 43.609,220.083 39.790,223.750 35.413 C 227.417 31.035,230.979 26.765,231.667 25.922 C 232.869 24.448,234.095 22.980,237.500 18.933 C 238.371 17.898,240.804 14.978,242.907 12.443 C 245.011 9.907,246.781 7.833,246.841 7.833 C 246.901 7.833,249.905 11.374,253.517 15.701 M63.116 54.334 C 67.504 54.679,70.533 55.174,74.468 56.190 C 77.010 56.846,78.261 57.261,81.083 58.384 C 84.232 59.638,91.333 63.947,91.333 64.604 C 91.333 64.789,89.380 67.585,87.157 70.583 C 86.623 71.304,83.551 75.570,80.286 80.125 C 79.111 81.765,79.333 81.736,77.445 80.497 C 67.024 73.656,49.465 71.872,50.759 77.785 C 51.268 80.112,53.484 81.076,62.167 82.745 C 77.777 85.746,86.434 89.944,90.530 96.500 C 94.138 102.274,94.311 111.449,90.939 118.125 C 87.198 125.534,79.761 130.353,69.167 132.235 C 62.175 133.477,52.210 133.139,44.083 131.384 C 35.521 129.535,26.013 125.051,21.375 120.674 C 20.839 120.168,20.824 120.197,22.799 117.870 C 24.752 115.568,33.642 104.961,34.262 104.193 C 34.288 104.162,35.270 104.774,36.446 105.554 C 39.821 107.794,42.465 109.113,46.398 110.519 C 53.386 113.017,62.827 113.745,66.130 112.041 C 67.757 111.202,68.028 108.826,66.641 107.560 C 65.619 106.628,63.005 105.738,58.361 104.742 C 56.833 104.415,55.283 104.080,54.917 103.998 C 54.550 103.917,53.350 103.652,52.250 103.410 C 36.710 99.987,28.206 94.376,25.759 85.931 C 25.216 84.058,24.769 80.267,24.922 78.833 C 24.986 78.237,25.063 77.487,25.093 77.167 C 25.307 74.895,25.901 72.332,26.579 70.750 C 31.774 58.635,44.586 52.878,63.116 54.334 M159.793 65.917 C 159.834 75.327,159.816 76.099,159.553 76.292 C 159.330 76.456,155.063 76.500,139.548 76.500 L 119.827 76.500 119.872 80.292 L 119.917 84.083 138.417 84.167 L 156.917 84.250 156.917 93.333 L 156.917 102.417 138.417 102.500 L 119.917 102.583 119.872 106.572 C 119.837 109.651,119.875 110.591,120.039 110.695 C 120.155 110.769,129.207 110.829,140.155 110.829 C 156.032 110.828,160.087 110.871,160.194 111.039 C 160.400 111.364,160.368 130.957,160.161 131.344 C 159.989 131.665,96.091 131.883,95.264 131.566 C 95.024 131.474,95.000 127.970,95.000 93.565 L 95.000 55.666 127.375 55.708 L 159.750 55.750 159.793 65.917 M231.626 66.296 C 231.662 75.050,231.631 76.858,231.443 76.930 C 231.319 76.977,226.312 77.031,220.317 77.050 L 209.417 77.083 209.375 104.167 C 209.337 129.395,209.315 131.264,209.052 131.458 C 208.755 131.678,184.659 131.781,184.097 131.566 C 183.858 131.474,183.833 128.920,183.833 104.333 C 183.833 79.379,183.811 77.194,183.561 77.098 C 183.411 77.040,178.459 76.998,172.556 77.004 C 166.654 77.009,161.751 76.969,161.662 76.914 C 161.478 76.800,161.428 55.960,161.612 55.777 C 161.673 55.716,177.442 55.685,196.653 55.708 L 231.583 55.750 231.626 66.296 M351.250 55.968 C 351.892 56.075,353.017 56.248,353.750 56.353 C 367.088 58.254,376.180 65.838,378.224 76.768 C 381.420 93.857,371.608 107.253,353.833 110.069 C 352.962 110.207,351.762 110.408,351.167 110.516 C 350.508 110.635,347.404 110.742,343.250 110.789 C 338.942 110.837,336.340 110.929,336.208 111.037 C 336.046 111.170,336.000 113.439,336.000 121.354 L 336.000 131.500 323.417 131.500 C 313.461 131.500,310.833 131.456,310.833 131.292 C 310.791 108.154,310.859 55.927,310.930 55.811 C 311.083 55.565,349.736 55.716,351.250 55.968 M336.125 75.929 C 335.856 76.201,335.978 92.608,336.252 92.835 C 336.634 93.152,345.201 92.954,346.667 92.594 C 351.511 91.403,353.829 88.729,353.829 84.333 C 353.829 80.121,351.858 77.565,347.642 76.314 C 346.373 75.937,336.446 75.606,336.125 75.929 " stroke="none" fill="#fafafa" fill-rule="evenodd"></path><path id="path2" d="M52.500 54.665 C 50.644 54.824,48.689 55.092,47.750 55.317 C 47.383 55.405,46.708 55.562,46.250 55.667 C 45.006 55.951,43.694 56.326,42.667 56.690 C 42.162 56.869,41.415 57.133,41.006 57.276 C 40.115 57.589,36.746 59.317,35.968 59.861 C 31.692 62.847,29.336 65.521,27.476 69.500 C 26.584 71.408,26.315 72.230,25.650 75.083 C 25.351 76.366,25.322 83.261,25.612 84.250 C 25.719 84.617,25.891 85.254,25.994 85.667 C 26.663 88.355,28.386 91.237,30.680 93.507 C 33.907 96.701,39.429 99.567,45.917 101.416 C 46.467 101.573,47.104 101.761,47.333 101.835 C 48.334 102.158,53.456 103.410,54.917 103.689 C 55.830 103.863,56.449 103.994,58.333 104.411 C 59.021 104.563,59.921 104.752,60.333 104.831 C 60.746 104.910,61.571 105.129,62.167 105.319 C 62.762 105.508,63.351 105.663,63.475 105.665 C 63.861 105.668,66.394 106.944,66.838 107.357 C 68.479 108.888,68.087 111.517,66.083 112.414 C 63.100 113.749,53.857 113.353,49.000 111.682 C 48.771 111.603,48.246 111.445,47.833 111.331 C 47.421 111.217,46.847 111.021,46.558 110.895 C 46.269 110.769,45.950 110.667,45.848 110.667 C 45.746 110.667,45.532 110.599,45.373 110.517 C 45.214 110.435,44.746 110.237,44.333 110.077 C 41.709 109.061,38.072 107.090,35.667 105.381 L 34.417 104.492 34.083 104.890 C 33.900 105.108,32.216 107.116,30.342 109.352 C 28.467 111.587,26.892 113.454,26.842 113.500 C 26.791 113.546,26.477 113.921,26.144 114.333 C 25.810 114.746,25.398 115.242,25.227 115.436 C 25.056 115.631,24.643 116.118,24.308 116.520 C 21.825 119.497,21.341 120.097,21.337 120.199 C 21.326 120.518,26.313 124.073,28.250 125.128 C 32.285 127.325,38.264 129.755,40.833 130.242 C 41.154 130.303,41.567 130.415,41.750 130.490 C 42.211 130.680,45.817 131.438,47.333 131.664 C 48.021 131.767,48.972 131.926,49.447 132.018 C 53.727 132.848,64.687 132.836,68.833 131.997 C 69.337 131.895,70.162 131.731,70.667 131.632 C 71.171 131.533,72.108 131.306,72.750 131.126 C 73.392 130.947,74.104 130.764,74.333 130.719 C 74.563 130.673,74.986 130.531,75.275 130.401 C 75.564 130.272,75.870 130.167,75.955 130.167 C 78.404 130.167,85.889 124.950,88.576 121.370 C 92.548 116.078,94.260 106.982,92.346 101.333 C 92.269 101.104,92.107 100.579,91.987 100.167 C 90.389 94.689,84.222 89.453,76.167 86.736 C 75.754 86.597,75.267 86.419,75.083 86.340 C 74.217 85.967,68.996 84.500,68.537 84.500 C 68.364 84.500,68.166 84.444,68.098 84.375 C 68.029 84.306,67.548 84.167,67.028 84.065 C 66.509 83.963,65.521 83.763,64.833 83.621 C 64.146 83.479,63.358 83.317,63.083 83.262 C 62.808 83.206,62.021 83.044,61.333 82.902 C 60.646 82.760,59.858 82.607,59.583 82.562 C 53.122 81.511,49.816 79.397,50.516 76.764 C 51.158 74.350,53.916 73.495,59.429 74.000 C 61.199 74.163,61.813 74.260,64.250 74.767 C 65.984 75.127,69.015 75.991,69.750 76.334 C 69.933 76.420,70.670 76.719,71.388 76.998 C 72.893 77.585,76.217 79.289,77.325 80.043 C 79.333 81.407,78.988 81.448,80.225 79.706 C 80.729 78.997,81.825 77.479,82.661 76.333 C 84.562 73.727,89.332 67.101,89.667 66.601 C 89.804 66.395,90.160 65.922,90.458 65.548 C 91.028 64.834,91.156 64.333,90.770 64.333 C 90.644 64.333,90.448 64.222,90.336 64.086 C 89.696 63.315,82.424 59.000,81.765 59.000 C 81.709 59.000,81.345 58.860,80.957 58.689 C 80.568 58.519,79.912 58.247,79.500 58.086 C 79.087 57.925,78.600 57.731,78.417 57.655 C 77.947 57.459,75.863 56.821,75.167 56.660 C 74.846 56.586,74.106 56.406,73.524 56.260 C 71.539 55.764,70.119 55.512,65.504 54.837 C 63.934 54.607,54.610 54.484,52.500 54.665 M95.332 55.958 C 95.332 56.074,95.332 130.929,95.333 131.208 C 95.333 131.277,109.884 131.333,127.668 131.333 L 160.003 131.333 159.960 121.247 L 159.917 111.161 139.972 111.165 C 122.016 111.169,120.000 111.143,119.763 110.906 C 119.446 110.589,119.365 103.064,119.673 102.489 C 119.842 102.173,120.224 102.167,138.253 102.167 L 156.661 102.167 156.705 93.403 C 156.730 88.583,156.719 84.608,156.681 84.569 C 156.642 84.531,148.339 84.500,138.228 84.500 C 120.224 84.500,119.842 84.493,119.673 84.178 C 119.442 83.747,119.442 76.920,119.673 76.489 C 119.842 76.173,120.240 76.167,139.673 76.167 L 159.500 76.167 159.500 66.000 L 159.500 55.833 127.417 55.833 C 109.771 55.833,95.333 55.890,95.332 55.958 M161.874 66.296 L 161.917 76.676 172.868 76.669 C 183.555 76.662,183.823 76.670,183.993 76.987 C 184.111 77.208,184.167 85.899,184.167 104.322 L 184.167 131.333 196.500 131.333 C 206.255 131.333,208.834 131.290,208.835 131.125 C 208.836 131.010,208.835 118.878,208.833 104.164 C 208.831 80.153,208.857 77.374,209.091 77.039 L 209.352 76.667 220.344 76.667 L 231.336 76.667 231.293 66.331 L 231.250 55.995 196.540 55.956 L 161.831 55.917 161.874 66.296 " stroke="none" fill="#43444b" fill-rule="evenodd"></path><path id="path3" d="M52.417 54.343 C 39.287 55.644,30.724 61.082,26.579 70.750 C 25.901 72.332,25.307 74.895,25.093 77.167 C 25.063 77.487,24.986 78.237,24.922 78.833 C 24.769 80.267,25.216 84.058,25.759 85.931 C 28.206 94.376,36.710 99.987,52.250 103.410 C 53.350 103.652,54.550 103.917,54.917 103.998 C 55.283 104.080,56.833 104.415,58.361 104.742 C 64.191 105.992,66.525 106.942,67.266 108.367 C 70.185 113.978,56.608 114.634,43.667 109.507 C 42.000 108.847,38.616 106.994,36.446 105.554 C 35.270 104.774,34.288 104.162,34.262 104.193 C 33.642 104.961,24.752 115.568,22.799 117.870 C 20.549 120.521,20.501 120.090,23.281 122.178 C 32.826 129.344,44.957 132.930,59.583 132.909 C 64.648 132.902,65.911 132.813,69.167 132.235 C 84.692 129.477,93.259 120.585,93.239 107.250 C 93.218 93.838,84.628 87.063,62.167 82.745 C 52.551 80.896,50.055 79.558,50.832 76.670 C 51.312 74.890,53.079 74.244,57.417 74.266 C 60.063 74.279,60.378 74.257,59.333 74.131 C 54.488 73.546,50.919 74.656,50.609 76.846 C 50.222 79.569,52.650 81.126,59.167 82.337 C 59.671 82.430,60.383 82.574,60.750 82.657 C 61.117 82.739,61.867 82.891,62.417 82.994 C 63.324 83.163,64.593 83.429,66.417 83.833 C 67.791 84.137,69.471 84.563,71.167 85.040 C 72.129 85.310,73.142 85.591,73.417 85.666 C 86.313 89.141,93.048 96.507,93.075 107.167 C 93.109 120.491,83.945 129.877,68.750 132.082 C 67.742 132.229,66.429 132.437,65.833 132.545 C 64.334 132.817,54.925 132.806,52.750 132.530 C 51.833 132.413,50.446 132.241,49.667 132.146 C 43.089 131.346,36.311 129.319,30.500 126.412 C 26.948 124.636,21.146 120.773,21.172 120.201 C 21.175 120.136,21.906 119.217,22.797 118.158 C 23.688 117.098,26.546 113.686,29.148 110.574 C 31.750 107.463,34.002 104.785,34.154 104.623 C 34.415 104.345,34.485 104.371,35.506 105.115 C 37.742 106.744,43.325 109.833,44.033 109.833 C 44.162 109.833,44.338 109.899,44.425 109.980 C 44.672 110.208,48.563 111.499,50.000 111.829 C 53.261 112.579,53.953 112.687,57.583 113.016 C 65.202 113.707,69.256 111.724,67.433 108.198 C 66.731 106.841,62.854 105.299,58.000 104.448 C 57.368 104.337,55.047 103.845,53.875 103.574 C 53.302 103.442,52.327 103.219,51.708 103.080 C 36.877 99.736,28.621 94.358,26.106 86.402 C 24.967 82.802,24.895 77.004,25.941 73.333 C 28.958 62.751,37.528 56.430,51.250 54.667 C 54.620 54.235,62.934 54.326,66.375 54.834 C 66.994 54.925,68.044 55.080,68.708 55.177 C 71.502 55.588,76.277 56.767,78.583 57.617 C 80.143 58.192,82.325 59.117,83.317 59.625 C 83.905 59.925,84.421 60.135,84.465 60.091 C 84.538 60.017,82.217 58.850,81.073 58.384 C 75.487 56.114,69.995 54.875,63.116 54.334 C 60.671 54.142,54.392 54.147,52.417 54.343 M95.000 93.565 C 95.000 127.970,95.024 131.474,95.264 131.566 C 96.091 131.883,159.989 131.665,160.161 131.344 C 160.368 130.957,160.400 111.364,160.194 111.039 C 160.087 110.871,156.032 110.828,140.155 110.829 C 129.207 110.829,120.155 110.769,120.039 110.695 C 119.875 110.591,119.837 109.651,119.872 106.572 L 119.917 102.583 138.417 102.500 L 156.917 102.417 156.917 93.333 L 156.917 84.250 138.417 84.167 L 119.917 84.083 119.872 80.292 L 119.827 76.500 139.548 76.500 C 155.063 76.500,159.330 76.456,159.553 76.292 C 159.816 76.099,159.834 75.327,159.793 65.917 L 159.750 55.750 127.375 55.708 L 95.000 55.666 95.000 93.565 M161.612 55.777 C 161.428 55.960,161.478 76.800,161.662 76.914 C 161.751 76.969,166.654 77.009,172.556 77.004 C 178.459 76.998,183.411 77.040,183.561 77.098 C 183.811 77.194,183.833 79.379,183.833 104.333 C 183.833 128.920,183.858 131.474,184.097 131.566 C 184.659 131.781,208.755 131.678,209.052 131.458 C 209.315 131.264,209.337 129.395,209.375 104.167 L 209.417 77.083 220.317 77.050 C 226.312 77.031,231.319 76.977,231.443 76.930 C 231.631 76.858,231.662 75.050,231.626 66.296 L 231.583 55.750 196.653 55.708 C 177.442 55.685,161.673 55.716,161.612 55.777 M159.514 55.903 C 159.552 55.941,159.546 60.535,159.500 66.111 L 159.417 76.250 139.583 76.333 L 119.750 76.417 119.750 80.333 L 119.750 84.250 138.250 84.333 L 156.750 84.417 156.750 93.333 L 156.750 102.250 138.500 102.286 C 128.462 102.305,120.119 102.355,119.958 102.395 C 119.662 102.470,119.490 110.012,119.768 110.736 C 119.859 110.975,121.791 111.000,139.934 111.000 C 155.875 111.000,160.000 111.043,160.001 111.208 C 160.031 115.607,159.988 131.234,159.946 131.276 C 159.914 131.308,145.344 131.335,127.569 131.335 L 95.250 131.335 95.208 93.584 L 95.166 55.833 127.305 55.833 C 144.982 55.833,159.476 55.865,159.514 55.903 M231.417 66.333 L 231.417 76.750 220.369 76.833 C 210.792 76.906,209.300 76.950,209.163 77.167 C 209.065 77.321,209.004 87.682,209.003 104.375 L 209.000 131.333 196.500 131.333 L 184.001 131.333 183.959 104.125 L 183.917 76.917 172.833 76.833 L 161.750 76.750 161.707 66.500 C 161.683 60.862,161.699 56.156,161.743 56.041 C 161.807 55.875,168.870 55.841,196.620 55.875 L 231.417 55.917 231.417 66.333 M84.667 60.242 C 84.667 60.283,85.173 60.597,85.792 60.940 C 87.004 61.611,89.941 63.555,90.741 64.215 L 91.231 64.620 90.643 65.435 C 90.320 65.883,89.191 67.450,88.136 68.917 C 87.080 70.383,85.376 72.746,84.349 74.167 C 83.321 75.587,81.754 77.778,80.866 79.035 C 78.993 81.684,79.296 81.514,77.986 80.644 C 77.011 79.997,74.204 78.333,74.087 78.333 C 74.057 78.333,73.369 78.028,72.558 77.654 C 71.747 77.280,70.933 76.908,70.750 76.828 C 68.750 75.952,62.507 74.333,61.126 74.333 C 60.252 74.333,60.697 74.479,62.342 74.731 C 67.327 75.496,73.300 77.776,77.445 80.497 C 79.333 81.736,79.111 81.765,80.286 80.125 C 83.551 75.570,86.623 71.304,87.157 70.583 C 89.380 67.585,91.333 64.789,91.333 64.604 C 91.333 64.282,87.902 61.885,85.619 60.612 C 84.814 60.162,84.667 60.105,84.667 60.242 " stroke="none" fill="#888889" fill-rule="evenodd"></path><path id="path4" d="M56.033 54.457 C 56.831 54.488,58.181 54.488,59.033 54.458 C 59.886 54.427,59.233 54.402,57.583 54.402 C 55.933 54.402,55.236 54.427,56.033 54.457 M52.458 54.621 C 52.756 54.658,53.244 54.658,53.542 54.621 C 53.840 54.584,53.596 54.553,53.000 54.553 C 52.404 54.553,52.160 54.584,52.458 54.621 M61.796 54.622 C 62.188 54.657,62.788 54.657,63.129 54.621 C 63.471 54.585,63.150 54.557,62.417 54.557 C 61.683 54.558,61.404 54.587,61.796 54.622 M50.000 54.833 L 49.583 54.967 50.000 54.967 C 50.229 54.967,50.604 54.907,50.833 54.833 L 51.250 54.700 50.833 54.700 C 50.604 54.700,50.229 54.760,50.000 54.833 M65.250 54.833 C 65.525 54.903,65.975 54.961,66.250 54.961 L 66.750 54.961 66.250 54.833 C 65.975 54.763,65.525 54.706,65.250 54.706 L 64.750 54.706 65.250 54.833 M47.083 55.333 C 46.630 55.449,46.622 55.461,47.000 55.469 C 47.229 55.473,47.567 55.412,47.750 55.333 C 48.161 55.157,47.777 55.157,47.083 55.333 M69.542 55.448 C 69.702 55.490,69.965 55.490,70.125 55.448 C 70.285 55.406,70.154 55.372,69.833 55.372 C 69.512 55.372,69.381 55.406,69.542 55.448 M45.750 55.667 C 45.540 55.757,45.509 55.810,45.667 55.810 C 45.804 55.810,46.067 55.745,46.250 55.667 C 46.460 55.576,46.491 55.523,46.333 55.523 C 46.196 55.523,45.933 55.588,45.750 55.667 M179.388 55.958 C 188.814 55.982,204.189 55.982,213.555 55.958 C 222.921 55.935,215.208 55.915,196.417 55.915 C 177.625 55.915,169.962 55.935,179.388 55.958 M231.294 66.258 L 231.338 76.667 220.345 76.667 L 209.352 76.667 209.093 77.037 C 208.860 77.369,208.838 80.166,208.874 104.079 L 208.915 130.750 208.999 103.972 C 209.045 89.244,209.146 77.132,209.222 77.056 C 209.299 76.979,214.324 76.879,220.389 76.833 L 231.417 76.750 231.460 66.426 C 231.483 60.748,231.446 56.046,231.376 55.976 C 231.307 55.907,231.270 60.534,231.294 66.258 M161.705 66.282 C 161.684 71.983,161.723 76.682,161.792 76.724 C 161.905 76.795,161.904 69.387,161.788 59.667 C 161.763 57.604,161.726 60.581,161.705 66.282 M95.249 93.583 C 95.249 114.025,95.268 122.412,95.292 112.222 C 95.315 102.031,95.315 85.306,95.292 75.055 C 95.268 64.804,95.249 73.142,95.249 93.583 M41.583 56.923 C 41.308 57.049,41.196 57.152,41.333 57.153 C 41.471 57.154,41.771 57.048,42.000 56.917 C 42.527 56.615,42.245 56.620,41.583 56.923 M79.500 58.083 C 79.729 58.214,80.029 58.321,80.167 58.321 C 80.304 58.321,80.164 58.211,79.856 58.077 C 79.146 57.769,78.956 57.772,79.500 58.083 M38.240 58.411 C 38.062 58.546,37.992 58.656,38.083 58.656 C 38.175 58.656,38.396 58.546,38.574 58.411 C 38.751 58.277,38.822 58.167,38.730 58.167 C 38.639 58.167,38.418 58.277,38.240 58.411 M86.167 61.241 C 86.167 61.287,86.392 61.441,86.667 61.583 C 86.942 61.726,87.167 61.804,87.167 61.759 C 87.167 61.713,86.942 61.559,86.667 61.417 C 86.392 61.274,86.167 61.196,86.167 61.241 M31.830 63.125 L 30.417 64.583 31.875 63.170 C 33.229 61.858,33.409 61.667,33.288 61.667 C 33.263 61.667,32.607 62.323,31.830 63.125 M87.446 62.013 C 87.652 62.264,88.667 62.902,88.667 62.782 C 88.667 62.743,88.348 62.501,87.958 62.244 C 87.569 61.987,87.338 61.883,87.446 62.013 M89.917 63.719 C 90.283 64.050,90.645 64.324,90.721 64.327 C 90.797 64.331,90.647 64.163,90.388 63.954 C 89.506 63.245,89.248 63.116,89.917 63.719 M90.135 65.958 C 89.841 66.300,89.621 66.667,89.709 66.667 C 89.743 66.667,89.937 66.442,90.140 66.167 C 90.542 65.623,90.538 65.488,90.135 65.958 M28.186 67.835 C 27.980 68.201,27.847 68.500,27.890 68.500 C 28.002 68.500,28.691 67.302,28.620 67.231 C 28.586 67.198,28.391 67.470,28.186 67.835 M88.167 68.667 C 87.971 68.942,87.848 69.167,87.894 69.167 C 87.940 69.167,88.138 68.942,88.333 68.667 C 88.529 68.392,88.652 68.167,88.606 68.167 C 88.560 68.167,88.362 68.392,88.167 68.667 M87.333 69.833 C 87.138 70.108,87.015 70.333,87.061 70.333 C 87.106 70.333,87.304 70.108,87.500 69.833 C 87.696 69.558,87.819 69.333,87.773 69.333 C 87.727 69.333,87.529 69.558,87.333 69.833 M26.465 71.588 C 26.413 71.769,26.320 72.067,26.258 72.250 C 26.196 72.433,26.267 72.373,26.417 72.115 C 26.566 71.857,26.659 71.559,26.623 71.453 C 26.588 71.346,26.516 71.407,26.465 71.588 M55.792 73.956 C 56.273 73.990,57.060 73.990,57.542 73.956 C 58.023 73.923,57.629 73.895,56.667 73.895 C 55.704 73.895,55.310 73.923,55.792 73.956 M25.687 74.250 C 25.673 74.433,25.624 74.771,25.576 75.000 L 25.491 75.417 25.669 75.008 C 25.767 74.783,25.817 74.445,25.780 74.258 C 25.714 73.925,25.711 73.925,25.687 74.250 M59.125 74.118 C 59.331 74.157,59.669 74.157,59.875 74.118 C 60.081 74.078,59.913 74.045,59.500 74.045 C 59.087 74.045,58.919 74.078,59.125 74.118 M84.143 74.292 C 83.664 74.871,83.461 75.167,83.543 75.167 C 83.589 75.167,83.827 74.904,84.072 74.583 C 84.526 73.988,84.581 73.763,84.143 74.292 M60.792 74.284 C 60.998 74.324,61.335 74.324,61.542 74.284 C 61.748 74.245,61.579 74.212,61.167 74.212 C 60.754 74.212,60.585 74.245,60.792 74.284 M51.494 75.179 L 50.917 75.691 51.542 75.242 C 52.094 74.846,52.274 74.667,52.119 74.667 C 52.092 74.667,51.811 74.897,51.494 75.179 M65.181 75.060 C 65.219 75.093,65.475 75.170,65.750 75.232 C 66.115 75.313,66.183 75.298,66.000 75.174 C 65.775 75.022,65.013 74.916,65.181 75.060 M25.383 76.667 C 25.383 77.171,25.415 77.377,25.453 77.125 C 25.491 76.873,25.491 76.460,25.453 76.208 C 25.415 75.956,25.383 76.162,25.383 76.667 M119.776 76.292 C 119.706 76.405,133.668 76.404,152.333 76.290 C 156.229 76.266,150.515 76.228,139.635 76.206 C 128.755 76.185,119.818 76.223,119.776 76.292 M119.571 80.333 C 119.571 82.396,119.595 83.240,119.624 82.208 C 119.654 81.177,119.654 79.490,119.624 78.458 C 119.595 77.427,119.571 78.271,119.571 80.333 M166.000 76.788 C 176.162 76.904,183.961 76.905,183.891 76.792 C 183.848 76.723,178.924 76.684,172.948 76.705 C 166.973 76.726,163.846 76.764,166.000 76.788 M71.869 77.258 C 72.029 77.417,73.667 78.166,73.667 78.080 C 73.667 77.992,72.828 77.553,72.213 77.319 C 71.962 77.224,71.808 77.196,71.869 77.258 M184.081 104.250 C 184.081 119.192,184.101 125.280,184.125 117.779 C 184.149 110.278,184.149 98.053,184.125 90.612 C 184.101 83.171,184.081 89.308,184.081 104.250 M25.231 79.917 C 25.232 81.108,25.258 81.574,25.290 80.951 C 25.323 80.329,25.322 79.354,25.290 78.785 C 25.257 78.216,25.231 78.725,25.231 79.917 M80.802 78.875 C 80.126 79.781,79.600 80.598,79.863 80.333 C 80.202 79.991,81.380 78.333,81.284 78.333 C 81.241 78.333,81.024 78.577,80.802 78.875 M75.083 78.866 C 75.267 78.970,75.888 79.340,76.464 79.687 C 77.040 80.035,77.467 80.249,77.414 80.162 C 77.296 79.971,75.081 78.665,74.888 78.672 C 74.812 78.675,74.900 78.762,75.083 78.866 M51.250 79.473 C 51.525 79.778,51.900 80.106,52.083 80.201 C 52.267 80.296,52.342 80.308,52.250 80.228 C 52.158 80.148,51.783 79.820,51.417 79.500 L 50.751 78.917 51.250 79.473 M77.671 80.385 C 78.374 81.157,79.201 81.419,79.484 80.958 C 79.713 80.585,79.713 80.584,79.357 80.901 C 79.035 81.187,78.971 81.193,78.708 80.964 C 78.419 80.711,77.503 80.200,77.671 80.385 M25.379 83.000 C 25.379 83.412,25.411 83.581,25.451 83.375 C 25.491 83.169,25.491 82.831,25.451 82.625 C 25.411 82.419,25.379 82.587,25.379 83.000 M60.167 82.667 C 60.304 82.756,60.567 82.824,60.750 82.819 L 61.083 82.810 60.750 82.667 C 60.252 82.453,59.835 82.453,60.167 82.667 M62.583 83.162 C 62.902 83.303,63.964 83.399,63.819 83.273 C 63.781 83.240,63.413 83.168,63.000 83.114 C 62.499 83.048,62.361 83.064,62.583 83.162 M65.917 83.833 C 66.100 83.912,66.362 83.977,66.500 83.977 C 66.658 83.977,66.627 83.924,66.417 83.833 C 66.233 83.755,65.971 83.690,65.833 83.690 C 65.676 83.690,65.707 83.743,65.917 83.833 M25.608 84.667 C 25.739 85.385,25.834 85.521,25.831 84.986 C 25.829 84.765,25.754 84.471,25.664 84.333 C 25.549 84.157,25.532 84.256,25.608 84.667 M119.807 84.374 C 119.875 84.441,128.230 84.516,138.374 84.540 C 148.517 84.564,156.761 84.528,156.693 84.460 C 156.625 84.392,148.270 84.317,138.126 84.293 C 127.983 84.269,119.739 84.306,119.807 84.374 M69.417 84.667 C 69.600 84.745,69.862 84.810,70.000 84.810 C 70.158 84.810,70.127 84.757,69.917 84.667 C 69.733 84.588,69.471 84.523,69.333 84.523 C 69.176 84.523,69.207 84.576,69.417 84.667 M156.707 93.458 L 156.667 102.165 138.625 102.208 L 120.583 102.252 138.630 102.292 C 152.944 102.325,156.694 102.290,156.757 102.125 C 156.801 102.010,156.816 98.054,156.792 93.333 L 156.747 84.750 156.707 93.458 M73.811 85.923 C 74.119 86.057,74.457 86.164,74.561 86.160 C 74.665 86.157,74.498 86.044,74.189 85.910 C 73.881 85.776,73.543 85.670,73.439 85.673 C 73.335 85.677,73.502 85.789,73.811 85.923 M26.173 86.689 C 26.169 86.747,26.276 87.047,26.410 87.356 C 26.544 87.664,26.654 87.804,26.654 87.667 C 26.655 87.426,26.185 86.472,26.173 86.689 M77.167 87.083 C 77.396 87.214,77.658 87.322,77.750 87.322 C 77.842 87.322,77.729 87.214,77.500 87.083 C 77.271 86.952,77.008 86.845,76.917 86.845 C 76.825 86.845,76.938 86.952,77.167 87.083 M81.667 89.075 C 81.667 89.121,81.892 89.274,82.167 89.417 C 82.442 89.559,82.667 89.638,82.667 89.592 C 82.667 89.546,82.442 89.392,82.167 89.250 C 81.892 89.108,81.667 89.029,81.667 89.075 M28.661 91.408 C 28.941 91.816,29.251 92.199,29.348 92.259 C 29.445 92.319,29.249 91.985,28.913 91.517 C 28.163 90.473,27.955 90.383,28.661 91.408 M85.250 91.273 C 85.342 91.353,85.679 91.644,85.999 91.918 L 86.582 92.417 86.166 91.943 C 85.937 91.683,85.600 91.392,85.417 91.298 C 85.233 91.203,85.158 91.192,85.250 91.273 M87.750 93.500 C 88.387 94.142,88.945 94.667,88.991 94.667 C 89.037 94.667,88.553 94.142,87.917 93.500 C 87.280 92.858,86.721 92.333,86.676 92.333 C 86.630 92.333,87.113 92.858,87.750 93.500 M30.333 93.417 C 30.644 93.737,30.936 94.000,30.982 94.000 C 31.028 94.000,30.811 93.737,30.500 93.417 C 30.189 93.096,29.897 92.833,29.851 92.833 C 29.805 92.833,30.022 93.096,30.333 93.417 M31.333 94.219 C 31.333 94.248,31.577 94.491,31.875 94.760 L 32.417 95.250 31.927 94.708 C 31.471 94.203,31.333 94.090,31.333 94.219 M32.500 95.227 C 32.500 95.273,32.725 95.471,33.000 95.667 C 33.275 95.862,33.500 95.985,33.500 95.939 C 33.500 95.894,33.275 95.696,33.000 95.500 C 32.725 95.304,32.500 95.181,32.500 95.227 M90.583 97.167 C 90.726 97.442,90.879 97.667,90.925 97.667 C 90.971 97.667,90.892 97.442,90.750 97.167 C 90.608 96.892,90.454 96.667,90.408 96.667 C 90.362 96.667,90.441 96.892,90.583 97.167 M35.833 97.408 C 35.833 97.454,36.058 97.608,36.333 97.750 C 36.608 97.892,36.833 97.971,36.833 97.925 C 36.833 97.879,36.608 97.726,36.333 97.583 C 36.058 97.441,35.833 97.362,35.833 97.408 M49.917 102.667 C 50.100 102.745,50.362 102.810,50.500 102.810 C 50.658 102.810,50.627 102.757,50.417 102.667 C 50.233 102.588,49.971 102.523,49.833 102.523 C 49.676 102.523,49.707 102.576,49.917 102.667 M119.535 106.583 C 119.519 108.783,119.560 110.670,119.628 110.776 C 119.695 110.883,119.730 109.570,119.706 107.860 C 119.635 102.811,119.567 102.304,119.535 106.583 M54.681 103.726 C 54.719 103.759,55.012 103.834,55.333 103.892 C 55.744 103.968,55.843 103.951,55.667 103.836 C 55.441 103.688,54.515 103.585,54.681 103.726 M33.677 105.212 L 32.974 106.083 33.701 105.296 L 34.428 104.508 35.381 105.184 C 35.905 105.556,36.333 105.823,36.333 105.779 C 36.333 105.707,35.058 104.752,34.564 104.454 C 34.458 104.390,34.079 104.714,33.677 105.212 M61.167 105.159 C 61.304 105.252,61.560 105.329,61.736 105.331 C 62.163 105.334,62.029 105.239,61.417 105.102 C 61.052 105.020,60.984 105.036,61.167 105.159 M93.066 107.250 C 93.066 108.533,93.092 109.036,93.124 108.368 C 93.156 107.699,93.155 106.649,93.123 106.034 C 93.091 105.420,93.065 105.967,93.066 107.250 M37.750 106.748 C 38.122 107.058,39.178 107.629,38.917 107.379 C 38.825 107.292,38.450 107.052,38.083 106.846 C 37.717 106.640,37.567 106.596,37.750 106.748 M39.167 107.578 C 39.167 107.624,39.542 107.851,40.000 108.083 C 40.458 108.316,40.833 108.468,40.833 108.422 C 40.833 108.376,40.458 108.149,40.000 107.917 C 39.542 107.684,39.167 107.532,39.167 107.578 M67.653 108.958 C 67.733 109.534,67.745 109.545,67.800 109.105 C 67.833 108.841,67.794 108.560,67.713 108.480 C 67.629 108.396,67.604 108.600,67.653 108.958 M66.904 111.596 C 66.530 112.002,66.278 112.333,66.343 112.333 C 66.471 112.333,67.667 111.053,67.667 110.916 C 67.667 110.779,67.611 110.829,66.904 111.596 M129.875 111.125 C 135.352 111.149,144.315 111.149,149.792 111.125 C 155.269 111.101,150.787 111.081,139.833 111.081 C 128.879 111.081,124.398 111.101,129.875 111.125 M50.833 112.164 C 50.971 112.254,51.265 112.329,51.486 112.331 C 52.021 112.334,51.885 112.239,51.167 112.108 C 50.756 112.032,50.657 112.049,50.833 112.164 M54.292 112.784 C 54.498 112.824,54.835 112.824,55.042 112.784 C 55.248 112.745,55.079 112.712,54.667 112.712 C 54.254 112.712,54.085 112.745,54.292 112.784 M56.542 113.121 C 56.885 113.157,57.448 113.157,57.792 113.121 C 58.135 113.085,57.854 113.056,57.167 113.056 C 56.479 113.056,56.198 113.085,56.542 113.121 M63.294 113.118 C 63.501 113.158,63.801 113.156,63.960 113.115 C 64.120 113.073,63.950 113.040,63.583 113.042 C 63.217 113.044,63.086 113.078,63.294 113.118 M60.461 113.287 C 60.761 113.325,61.211 113.324,61.461 113.286 C 61.712 113.248,61.467 113.217,60.917 113.218 C 60.367 113.219,60.162 113.250,60.461 113.287 M24.554 116.042 C 24.368 116.248,24.157 116.529,24.084 116.667 C 23.943 116.932,23.981 116.896,24.657 116.125 C 24.877 115.873,25.021 115.667,24.975 115.667 C 24.929 115.667,24.740 115.835,24.554 116.042 M22.306 118.756 C 21.047 120.253,21.052 120.219,22.000 120.958 L 22.750 121.543 22.006 120.874 L 21.262 120.204 21.868 119.477 C 22.201 119.077,22.710 118.469,22.999 118.125 C 23.288 117.781,23.488 117.500,23.443 117.500 C 23.399 117.500,22.887 118.065,22.306 118.756 M88.326 121.708 C 88.017 122.098,87.895 122.311,88.056 122.181 C 88.359 121.938,89.074 121.000,88.956 121.000 C 88.919 121.000,88.636 121.319,88.326 121.708 M22.893 121.629 C 23.025 121.842,24.000 122.564,24.000 122.448 C 24.000 122.407,23.725 122.163,23.388 121.906 C 23.052 121.650,22.829 121.525,22.893 121.629 M24.167 122.567 C 24.167 122.613,24.504 122.883,24.917 123.167 C 25.329 123.450,25.667 123.645,25.667 123.599 C 25.667 123.554,25.329 123.284,24.917 123.000 C 24.504 122.716,24.167 122.521,24.167 122.567 M86.413 123.875 L 85.083 125.250 86.458 123.921 C 87.735 122.686,87.909 122.500,87.788 122.500 C 87.763 122.500,87.144 123.119,86.413 123.875 M28.333 125.241 C 28.333 125.287,28.558 125.441,28.833 125.583 C 29.108 125.726,29.333 125.804,29.333 125.759 C 29.333 125.713,29.108 125.559,28.833 125.417 C 28.558 125.274,28.333 125.196,28.333 125.241 M32.167 127.250 C 32.396 127.381,32.658 127.488,32.750 127.488 C 32.842 127.488,32.729 127.381,32.500 127.250 C 32.271 127.119,32.008 127.012,31.917 127.012 C 31.825 127.012,31.938 127.119,32.167 127.250 M79.958 128.428 C 79.523 128.654,79.167 128.877,79.167 128.923 C 79.167 128.968,79.542 128.816,80.000 128.583 C 80.458 128.351,80.833 128.125,80.833 128.081 C 80.833 127.970,80.848 127.964,79.958 128.428 M41.250 130.500 C 41.709 130.697,41.872 130.697,41.750 130.500 C 41.693 130.408,41.483 130.339,41.282 130.345 C 40.930 130.356,40.929 130.362,41.250 130.500 M73.500 130.927 C 73.179 131.049,73.039 131.152,73.189 131.157 C 73.339 131.162,73.714 131.057,74.023 130.923 C 74.717 130.622,74.298 130.625,73.500 130.927 M43.250 130.992 C 43.570 131.137,44.463 131.232,44.319 131.105 C 44.281 131.072,43.950 130.999,43.583 130.943 C 43.119 130.872,43.018 130.887,43.250 130.992 M72.083 131.333 C 71.873 131.424,71.842 131.477,72.000 131.477 C 72.137 131.477,72.400 131.412,72.583 131.333 C 72.793 131.243,72.824 131.190,72.667 131.190 C 72.529 131.190,72.267 131.255,72.083 131.333 M46.500 131.667 C 46.729 131.740,47.104 131.799,47.333 131.797 C 47.708 131.794,47.699 131.781,47.250 131.667 C 46.545 131.487,45.940 131.487,46.500 131.667 M70.583 131.667 C 70.159 131.849,70.597 131.849,71.167 131.667 C 71.502 131.559,71.518 131.532,71.250 131.528 C 71.067 131.526,70.767 131.588,70.583 131.667 M48.125 131.951 C 48.331 131.991,48.669 131.991,48.875 131.951 C 49.081 131.911,48.913 131.879,48.500 131.879 C 48.087 131.879,47.919 131.911,48.125 131.951 M69.208 131.948 C 69.369 131.990,69.631 131.990,69.792 131.948 C 69.952 131.906,69.821 131.872,69.500 131.872 C 69.179 131.872,69.048 131.906,69.208 131.948 M64.583 132.500 L 63.583 132.611 64.500 132.622 C 65.004 132.628,65.604 132.573,65.833 132.500 C 66.339 132.338,66.047 132.338,64.583 132.500 M53.792 132.621 C 54.090 132.658,54.577 132.658,54.875 132.621 C 55.173 132.584,54.929 132.553,54.333 132.553 C 53.737 132.553,53.494 132.584,53.792 132.621 M58.050 132.791 C 58.949 132.821,60.374 132.821,61.217 132.791 C 62.060 132.761,61.325 132.736,59.583 132.736 C 57.842 132.736,57.152 132.761,58.050 132.791 " stroke="none" fill="#747474" fill-rule="evenodd"></path></g></svg>