<svg id="svg" version="1.1" xmlns="http://www.w3.org/2000/svg" xmlns:xlink="http://www.w3.org/1999/xlink" width="400" height="141.09178164367125" viewBox="0, 0, 400,141.09178164367125"><g id="svgg"><path id="path0" d="M246.500 7.979 C 246.500 8.108,243.002 12.357,237.494 18.917 C 236.494 20.108,235.467 21.341,235.213 21.656 C 234.958 21.972,234.177 22.909,233.476 23.740 C 232.012 25.475,225.424 33.385,224.521 34.491 C 224.189 34.899,223.684 35.499,223.400 35.824 C 223.116 36.150,220.792 38.929,218.237 42.000 C 215.681 45.071,213.494 47.696,213.377 47.833 C 213.260 47.971,213.165 48.158,213.165 48.250 C 213.166 48.358,216.737 48.446,223.375 48.500 L 233.583 48.583 233.689 75.417 C 233.756 92.407,233.858 102.709,233.967 103.500 C 236.431 121.335,245.409 130.135,263.583 132.530 C 265.815 132.824,276.332 132.832,278.417 132.541 C 282.371 131.988,284.479 131.536,287.333 130.629 C 298.252 127.159,305.595 118.802,307.658 107.500 C 307.767 106.904,307.928 106.095,308.015 105.702 C 308.596 103.098,308.672 99.572,308.628 77.500 L 308.583 55.750 295.833 55.750 L 283.083 55.750 282.993 78.417 C 282.890 104.015,283.008 101.978,281.443 105.151 C 277.817 112.502,264.679 112.512,261.048 105.166 C 259.304 101.638,259.417 103.773,259.417 74.333 L 259.417 48.583 269.910 48.540 C 275.681 48.517,280.464 48.436,280.538 48.362 C 280.613 48.287,280.316 47.810,279.878 47.302 C 278.769 46.011,275.471 42.059,274.804 41.220 C 274.499 40.836,273.472 39.599,272.521 38.470 C 269.844 35.290,268.157 33.282,267.857 32.917 C 267.034 31.916,261.731 25.554,261.587 25.395 C 261.493 25.291,258.161 21.297,254.182 16.520 C 247.778 8.830,246.500 7.409,246.500 7.979 M55.875 54.124 C 56.860 54.154,58.473 54.154,59.458 54.124 C 60.444 54.095,59.637 54.071,57.667 54.071 C 55.696 54.071,54.890 54.095,55.875 54.124 M51.500 54.337 C 51.164 54.410,51.518 54.426,52.333 54.375 C 53.112 54.327,53.781 54.260,53.819 54.227 C 53.943 54.119,52.101 54.207,51.500 54.337 M61.514 54.228 C 61.552 54.261,62.371 54.328,63.333 54.377 C 64.513 54.437,64.812 54.422,64.250 54.331 C 63.400 54.193,61.388 54.117,61.514 54.228 M48.708 54.782 C 48.869 54.823,49.131 54.823,49.292 54.782 C 49.452 54.740,49.321 54.705,49.000 54.705 C 48.679 54.705,48.548 54.740,48.708 54.782 M67.127 54.785 C 67.334 54.824,67.634 54.823,67.794 54.781 C 67.953 54.739,67.783 54.707,67.417 54.709 C 67.050 54.711,66.920 54.745,67.127 54.785 M47.167 55.000 C 46.606 55.179,47.212 55.179,47.917 55.000 C 48.366 54.886,48.374 54.872,48.000 54.870 C 47.771 54.868,47.396 54.927,47.167 55.000 M68.347 54.895 C 68.385 54.929,68.792 55.001,69.250 55.054 C 69.812 55.118,69.948 55.104,69.667 55.008 C 69.250 54.867,68.216 54.778,68.347 54.895 M71.167 55.424 C 72.360 55.721,72.833 55.706,71.750 55.405 C 71.292 55.277,70.767 55.178,70.583 55.184 C 70.400 55.190,70.662 55.298,71.167 55.424 M45.083 55.500 L 44.750 55.643 45.083 55.652 C 45.267 55.657,45.529 55.589,45.667 55.500 C 45.998 55.286,45.582 55.286,45.083 55.500 M95.020 55.725 C 94.696 56.116,94.841 131.535,95.167 131.624 C 95.352 131.674,95.363 131.654,95.208 131.544 C 95.042 131.427,95.008 123.715,95.041 93.573 L 95.083 55.750 127.323 55.708 C 152.999 55.674,159.593 55.708,159.711 55.875 C 159.821 56.030,159.841 56.019,159.790 55.833 C 159.692 55.474,95.318 55.366,95.020 55.725 M161.533 55.700 C 161.224 56.009,161.246 76.720,161.556 76.977 C 161.811 77.189,183.904 77.337,183.693 77.126 C 183.625 77.058,178.622 76.983,172.576 76.960 L 161.583 76.917 161.583 66.333 L 161.583 55.750 196.609 55.750 C 215.873 55.750,231.600 55.694,231.558 55.625 C 231.417 55.398,161.761 55.473,161.533 55.700 M43.917 55.833 C 43.707 55.924,43.676 55.977,43.833 55.977 C 43.971 55.977,44.233 55.912,44.417 55.833 C 44.627 55.743,44.658 55.690,44.500 55.690 C 44.362 55.690,44.100 55.755,43.917 55.833 M73.083 55.833 C 73.267 55.912,73.529 55.977,73.667 55.977 C 73.824 55.977,73.793 55.924,73.583 55.833 C 73.400 55.755,73.137 55.690,73.000 55.690 C 72.842 55.690,72.873 55.743,73.083 55.833 M310.773 55.950 C 310.659 56.341,310.654 130.826,310.769 131.208 C 310.851 131.483,311.599 131.500,323.428 131.500 L 336.000 131.500 336.000 121.354 C 336.000 113.438,336.046 111.170,336.208 111.038 C 336.338 110.932,339.047 110.835,343.417 110.780 C 347.267 110.732,350.792 110.617,351.250 110.526 C 351.708 110.434,352.871 110.234,353.833 110.082 C 360.066 109.097,365.772 106.606,370.115 102.974 C 377.094 97.140,380.192 87.125,378.228 76.750 C 377.931 75.181,377.810 74.767,377.033 72.667 C 373.802 63.927,365.754 58.265,353.833 56.346 C 353.238 56.250,352.188 56.082,351.500 55.973 C 349.129 55.597,310.883 55.575,310.773 55.950 M74.333 56.167 C 74.903 56.349,75.341 56.349,74.917 56.167 C 74.733 56.088,74.433 56.026,74.250 56.028 C 73.982 56.032,73.998 56.059,74.333 56.167 M159.707 66.208 L 159.667 76.332 139.792 76.374 L 119.917 76.417 119.872 80.292 C 119.847 82.423,119.885 84.167,119.955 84.167 C 120.026 84.167,120.062 82.442,120.036 80.333 L 119.988 76.500 139.833 76.500 C 155.555 76.500,159.694 76.457,159.757 76.292 C 159.801 76.177,159.816 71.583,159.792 66.083 L 159.747 56.083 159.707 66.208 M41.667 56.583 C 41.122 56.894,41.313 56.898,42.023 56.590 C 42.331 56.456,42.471 56.346,42.333 56.346 C 42.196 56.345,41.896 56.452,41.667 56.583 M76.167 56.667 C 76.304 56.756,76.529 56.828,76.667 56.828 C 76.889 56.828,76.889 56.810,76.667 56.667 C 76.529 56.578,76.304 56.505,76.167 56.505 C 75.944 56.505,75.944 56.523,76.167 56.667 M40.575 56.978 C 40.488 57.058,40.058 57.256,39.620 57.419 C 39.181 57.583,38.784 57.779,38.736 57.856 C 38.689 57.933,39.010 57.844,39.450 57.659 C 40.781 57.098,41.264 56.841,40.992 56.837 C 40.850 56.835,40.662 56.898,40.575 56.978 M77.500 57.083 C 77.821 57.207,78.196 57.308,78.333 57.308 C 78.471 57.308,78.321 57.207,78.000 57.083 C 77.679 56.960,77.304 56.859,77.167 56.859 C 77.029 56.859,77.179 56.960,77.500 57.083 M37.907 58.245 C 37.729 58.379,37.658 58.489,37.750 58.489 C 37.842 58.489,38.062 58.379,38.240 58.245 C 38.418 58.110,38.489 58.000,38.397 58.000 C 38.305 58.000,38.085 58.110,37.907 58.245 M80.667 58.250 C 80.896 58.381,81.158 58.488,81.250 58.488 C 81.342 58.488,81.229 58.381,81.000 58.250 C 80.771 58.119,80.508 58.012,80.417 58.012 C 80.325 58.012,80.438 58.119,80.667 58.250 M36.356 59.153 C 35.772 59.512,35.209 59.896,35.106 60.007 C 34.920 60.204,37.100 58.909,37.408 58.639 C 37.741 58.347,37.378 58.524,36.356 59.153 M82.574 59.087 C 83.210 59.401,83.763 59.626,83.802 59.587 C 83.878 59.511,81.745 58.495,81.537 58.508 C 81.471 58.512,81.937 58.773,82.574 59.087 M34.069 60.762 L 33.417 61.357 34.125 60.817 C 34.772 60.324,34.930 60.167,34.778 60.167 C 34.747 60.167,34.428 60.435,34.069 60.762 M85.083 60.284 C 85.175 60.378,85.625 60.665,86.083 60.922 C 86.542 61.178,86.842 61.311,86.750 61.216 C 86.658 61.122,86.208 60.835,85.750 60.578 C 85.292 60.322,84.992 60.189,85.083 60.284 M31.841 62.708 C 31.083 63.465,30.233 64.383,29.952 64.750 C 29.671 65.117,29.515 65.342,29.607 65.250 C 30.836 64.015,33.366 61.333,33.303 61.333 C 33.257 61.333,32.599 61.952,31.841 62.708 M87.250 61.586 C 87.433 61.736,87.733 61.931,87.917 62.021 L 88.250 62.185 87.917 61.914 C 87.733 61.764,87.433 61.569,87.250 61.479 L 86.917 61.315 87.250 61.586 M89.383 62.946 C 89.442 63.042,89.910 63.408,90.422 63.761 C 91.573 64.554,91.626 64.361,89.420 67.424 C 88.433 68.795,87.742 69.804,87.885 69.667 C 88.451 69.123,91.504 64.736,91.462 64.528 C 91.437 64.407,90.935 63.962,90.346 63.540 C 89.758 63.118,89.324 62.851,89.383 62.946 M28.691 66.464 C 28.010 67.466,26.829 69.680,26.839 69.936 C 26.841 70.017,27.147 69.490,27.517 68.765 C 27.888 68.039,28.488 67.008,28.852 66.473 C 29.215 65.938,29.475 65.500,29.429 65.500 C 29.383 65.500,29.051 65.934,28.691 66.464 M26.527 70.590 C 26.421 70.824,26.336 71.106,26.340 71.216 C 26.343 71.326,26.457 71.162,26.592 70.850 C 26.877 70.194,26.817 69.954,26.527 70.590 M86.726 71.125 C 85.693 72.530,85.145 73.333,85.220 73.333 C 85.295 73.333,86.710 71.439,87.050 70.884 C 87.289 70.494,87.071 70.656,86.726 71.125 M25.762 72.762 C 25.701 73.006,25.683 73.238,25.722 73.277 C 25.761 73.317,25.843 73.149,25.905 72.905 C 25.966 72.661,25.984 72.429,25.945 72.389 C 25.906 72.350,25.823 72.518,25.762 72.762 M84.635 74.042 C 83.960 74.947,83.433 75.765,83.696 75.500 C 84.036 75.158,85.214 73.500,85.117 73.500 C 85.075 73.500,84.858 73.744,84.635 74.042 M25.329 74.536 C 25.219 75.028,25.166 75.578,25.212 75.757 C 25.269 75.983,25.301 75.929,25.315 75.583 C 25.326 75.308,25.415 74.795,25.513 74.443 C 25.611 74.090,25.655 73.766,25.610 73.721 C 25.566 73.677,25.440 74.044,25.329 74.536 M55.881 74.290 C 56.412 74.323,57.237 74.323,57.714 74.289 C 58.192 74.256,57.758 74.229,56.750 74.229 C 55.742 74.229,55.351 74.257,55.881 74.290 M53.167 74.583 C 52.404 74.877,52.699 74.879,53.750 74.587 C 54.232 74.453,54.408 74.356,54.167 74.357 C 53.938 74.358,53.487 74.460,53.167 74.583 M59.181 74.393 C 59.219 74.426,59.775 74.493,60.417 74.542 C 61.095 74.594,61.409 74.576,61.167 74.499 C 60.755 74.368,59.046 74.277,59.181 74.393 M63.750 75.088 C 64.117 75.209,64.604 75.307,64.833 75.306 C 65.063 75.306,64.837 75.202,64.333 75.076 C 63.187 74.790,62.866 74.797,63.750 75.088 M51.186 75.886 C 50.690 76.688,50.746 76.842,51.258 76.087 C 51.492 75.743,51.650 75.428,51.611 75.388 C 51.571 75.348,51.379 75.572,51.186 75.886 M65.583 75.500 C 65.767 75.579,66.067 75.641,66.250 75.638 C 66.518 75.634,66.502 75.607,66.167 75.500 C 65.597 75.317,65.159 75.317,65.583 75.500 M82.895 76.458 C 82.623 76.802,82.229 77.346,82.020 77.667 L 81.639 78.250 82.069 77.750 C 82.614 77.117,83.542 75.833,83.455 75.833 C 83.419 75.833,83.167 76.115,82.895 76.458 M347.646 76.320 C 351.836 77.546,353.825 80.125,353.825 84.333 C 353.825 88.742,351.429 91.474,346.583 92.590 C 344.995 92.956,336.639 93.156,336.255 92.838 C 335.979 92.608,335.852 76.205,336.125 75.929 C 336.441 75.610,346.370 75.947,347.646 76.320 M24.960 76.637 C 24.832 77.123,24.838 81.844,24.966 82.667 C 25.031 83.083,25.083 81.840,25.083 79.875 C 25.083 77.927,25.073 76.333,25.061 76.333 C 25.049 76.333,25.003 76.470,24.960 76.637 M231.500 76.806 C 231.500 76.952,228.772 77.000,220.510 77.000 C 214.465 77.000,209.485 77.056,209.442 77.125 C 209.324 77.316,231.375 77.192,231.566 77.000 C 231.655 76.912,231.677 76.788,231.614 76.725 C 231.551 76.662,231.500 76.699,231.500 76.806 M50.712 77.500 C 50.712 77.912,50.745 78.081,50.784 77.875 C 50.824 77.669,50.824 77.331,50.784 77.125 C 50.745 76.919,50.712 77.087,50.712 77.500 M71.333 77.417 C 71.563 77.548,71.825 77.655,71.917 77.655 C 72.008 77.655,71.896 77.548,71.667 77.417 C 71.438 77.286,71.175 77.178,71.083 77.178 C 70.992 77.178,71.104 77.286,71.333 77.417 M72.833 78.083 C 73.246 78.304,73.658 78.485,73.750 78.485 C 73.842 78.485,73.579 78.304,73.167 78.083 C 72.754 77.862,72.342 77.682,72.250 77.682 C 72.158 77.682,72.421 77.862,72.833 78.083 M183.708 104.445 C 183.685 119.127,183.712 131.258,183.768 131.403 C 183.859 131.641,185.088 131.663,196.226 131.627 L 208.583 131.587 196.250 131.502 L 183.917 131.417 183.833 104.583 L 183.748 77.750 183.708 104.445 M209.372 104.417 C 209.348 119.083,209.273 131.166,209.206 131.267 C 209.138 131.368,208.971 131.493,208.833 131.545 C 208.631 131.622,208.638 131.643,208.869 131.654 C 209.500 131.683,209.502 131.612,209.458 104.385 L 209.416 77.750 209.372 104.417 M74.000 78.561 C 74.000 78.672,75.876 79.680,75.948 79.607 C 75.980 79.576,75.555 79.309,75.003 79.015 C 74.451 78.721,74.000 78.517,74.000 78.561 M51.487 79.388 C 51.912 79.856,52.003 79.914,51.995 79.708 C 51.992 79.640,51.786 79.439,51.536 79.263 L 51.083 78.943 51.487 79.388 M80.646 79.542 C 80.438 79.840,80.077 80.342,79.843 80.658 C 79.608 80.974,79.497 81.185,79.595 81.126 C 79.805 80.998,81.225 79.000,81.105 79.000 C 81.060 79.000,80.853 79.244,80.646 79.542 M53.254 80.473 C 53.343 80.554,53.677 80.708,53.996 80.815 C 54.315 80.922,54.502 80.942,54.413 80.861 C 54.323 80.779,53.989 80.625,53.670 80.518 C 53.352 80.412,53.164 80.391,53.254 80.473 M78.417 81.235 C 78.947 81.691,79.249 81.771,79.415 81.502 C 79.473 81.408,79.408 81.379,79.265 81.434 C 79.126 81.487,78.765 81.368,78.464 81.168 L 77.917 80.806 78.417 81.235 M55.333 81.250 C 55.654 81.374,56.029 81.475,56.167 81.475 C 56.304 81.475,56.154 81.374,55.833 81.250 C 55.512 81.126,55.137 81.025,55.000 81.025 C 54.862 81.025,55.012 81.126,55.333 81.250 M56.917 81.667 C 57.100 81.745,57.362 81.810,57.500 81.810 C 57.658 81.810,57.627 81.757,57.417 81.667 C 57.233 81.588,56.971 81.523,56.833 81.523 C 56.676 81.523,56.707 81.576,56.917 81.667 M58.333 82.000 C 58.563 82.073,58.900 82.133,59.083 82.133 C 59.347 82.133,59.330 82.106,59.000 82.000 C 58.771 81.927,58.433 81.867,58.250 81.867 C 57.986 81.867,58.003 81.894,58.333 82.000 M60.833 82.500 C 61.063 82.573,61.400 82.633,61.583 82.633 C 61.847 82.633,61.830 82.606,61.500 82.500 C 61.271 82.427,60.933 82.367,60.750 82.367 C 60.486 82.367,60.503 82.394,60.833 82.500 M62.917 82.920 C 63.375 83.038,63.938 83.135,64.167 83.136 C 64.396 83.137,64.171 83.035,63.667 82.910 C 63.163 82.784,62.600 82.687,62.417 82.694 C 62.233 82.701,62.458 82.803,62.917 82.920 M64.917 83.333 C 65.100 83.412,65.400 83.474,65.583 83.472 C 65.851 83.468,65.835 83.441,65.500 83.333 C 64.930 83.151,64.492 83.151,64.917 83.333 M67.681 83.893 C 67.719 83.926,67.975 84.003,68.250 84.065 C 68.615 84.147,68.683 84.131,68.500 84.008 C 68.275 83.855,67.513 83.749,67.681 83.893 M69.583 84.413 C 70.042 84.536,70.439 84.615,70.467 84.588 C 70.559 84.497,69.455 84.166,69.100 84.178 C 68.908 84.184,69.125 84.290,69.583 84.413 M156.829 84.276 C 157.113 84.417,157.061 102.075,156.775 102.312 C 156.614 102.446,151.433 102.510,138.234 102.541 L 119.917 102.583 119.917 106.667 L 119.917 110.750 140.030 110.792 C 155.907 110.826,160.157 110.878,160.212 111.042 C 160.252 111.161,160.274 111.142,160.264 111.000 C 160.248 110.780,157.870 110.745,140.123 110.708 L 120.000 110.665 120.000 106.666 L 120.000 102.667 138.411 102.667 C 156.496 102.667,156.825 102.661,156.996 102.342 C 157.270 101.829,157.149 84.291,156.871 84.235 C 156.754 84.211,156.735 84.230,156.829 84.276 M25.357 84.833 C 25.357 84.971,25.421 85.233,25.500 85.417 C 25.590 85.627,25.643 85.658,25.643 85.500 C 25.643 85.362,25.579 85.100,25.500 84.917 C 25.410 84.707,25.357 84.676,25.357 84.833 M70.847 84.727 C 70.885 84.759,71.142 84.837,71.417 84.898 C 71.782 84.980,71.849 84.964,71.667 84.841 C 71.442 84.689,70.680 84.582,70.847 84.727 M72.014 85.060 C 72.052 85.093,72.308 85.170,72.583 85.232 C 72.948 85.313,73.016 85.298,72.833 85.174 C 72.608 85.022,71.847 84.916,72.014 85.060 M77.184 86.740 C 77.323 86.878,78.833 87.488,78.833 87.405 C 78.833 87.359,78.490 87.174,78.070 86.994 C 77.325 86.675,77.036 86.592,77.184 86.740 M26.004 87.076 C 25.978 88.030,28.715 92.198,30.441 93.833 L 31.408 94.750 30.315 93.583 C 28.733 91.895,27.741 90.475,26.820 88.583 C 26.374 87.667,26.007 86.988,26.004 87.076 M79.500 87.750 C 79.729 87.881,79.992 87.988,80.083 87.988 C 80.175 87.988,80.063 87.881,79.833 87.750 C 79.604 87.619,79.342 87.512,79.250 87.512 C 79.158 87.512,79.271 87.619,79.500 87.750 M81.000 88.410 C 81.000 88.456,81.300 88.646,81.667 88.833 C 82.033 89.020,82.333 89.136,82.333 89.090 C 82.333 89.044,82.033 88.854,81.667 88.667 C 81.300 88.480,81.000 88.364,81.000 88.410 M83.667 89.882 C 83.667 89.920,84.190 90.299,84.830 90.725 C 85.470 91.150,86.801 92.266,87.789 93.203 C 89.285 94.624,89.537 94.739,88.250 93.414 C 87.047 92.175,83.667 89.570,83.667 89.882 M31.750 94.986 C 32.106 95.398,35.678 97.833,35.926 97.833 C 36.007 97.833,35.363 97.375,34.495 96.816 C 33.627 96.256,32.579 95.528,32.167 95.199 C 31.753 94.868,31.566 94.773,31.750 94.986 M90.579 96.583 C 91.403 98.006,91.564 98.210,91.102 97.248 C 90.882 96.789,90.544 96.227,90.350 95.998 C 90.157 95.770,90.260 96.033,90.579 96.583 M36.167 97.924 C 36.167 98.057,40.001 99.888,40.091 99.798 C 40.131 99.758,39.771 99.550,39.290 99.337 C 38.810 99.123,37.910 98.697,37.292 98.389 C 36.673 98.081,36.167 97.872,36.167 97.924 M91.512 98.250 C 91.512 98.342,91.619 98.604,91.750 98.833 C 91.881 99.063,91.988 99.175,91.988 99.083 C 91.988 98.992,91.881 98.729,91.750 98.500 C 91.619 98.271,91.512 98.158,91.512 98.250 M92.359 100.333 C 92.359 100.471,92.460 100.846,92.583 101.167 C 92.707 101.487,92.808 101.638,92.808 101.500 C 92.808 101.362,92.707 100.987,92.583 100.667 C 92.460 100.346,92.359 100.196,92.359 100.333 M42.500 100.750 C 43.261 101.043,43.560 101.039,42.917 100.744 C 42.642 100.618,42.304 100.517,42.167 100.520 C 42.029 100.523,42.179 100.626,42.500 100.750 M43.977 101.257 C 44.286 101.390,44.623 101.497,44.727 101.493 C 44.832 101.490,44.664 101.377,44.356 101.243 C 44.047 101.110,43.710 101.003,43.606 101.007 C 43.502 101.010,43.669 101.123,43.977 101.257 M45.167 101.559 C 45.167 101.682,46.867 102.188,46.962 102.094 C 47.001 102.054,46.721 101.938,46.340 101.835 C 45.958 101.732,45.538 101.607,45.406 101.556 C 45.274 101.506,45.167 101.507,45.167 101.559 M92.943 102.583 C 92.999 102.950,93.072 103.281,93.105 103.319 C 93.232 103.463,93.137 102.570,92.992 102.250 C 92.887 102.018,92.872 102.119,92.943 102.583 M47.833 102.417 C 48.154 102.540,48.529 102.641,48.667 102.641 C 48.804 102.641,48.654 102.540,48.333 102.417 C 48.012 102.293,47.637 102.192,47.500 102.192 C 47.362 102.192,47.512 102.293,47.833 102.417 M49.333 102.833 C 49.471 102.922,49.733 102.991,49.917 102.986 L 50.250 102.977 49.917 102.833 C 49.418 102.619,49.002 102.619,49.333 102.833 M51.181 103.237 C 51.299 103.355,53.544 103.845,53.620 103.769 C 53.658 103.730,53.164 103.579,52.521 103.433 C 51.297 103.154,51.065 103.120,51.181 103.237 M93.214 104.250 C 93.216 104.708,93.248 104.876,93.286 104.623 C 93.325 104.369,93.324 103.994,93.284 103.789 C 93.244 103.584,93.213 103.792,93.214 104.250 M54.417 104.000 C 54.600 104.079,54.900 104.141,55.083 104.138 C 55.351 104.134,55.335 104.107,55.000 104.000 C 54.430 103.817,53.992 103.817,54.417 104.000 M33.318 105.208 C 32.740 105.873,32.120 106.585,31.938 106.792 C 31.757 106.998,31.654 107.167,31.710 107.167 C 31.765 107.167,32.384 106.491,33.085 105.665 C 33.804 104.817,34.437 104.211,34.539 104.274 C 34.645 104.340,34.670 104.307,34.599 104.192 C 34.429 103.917,34.465 103.887,33.318 105.208 M56.833 104.492 C 56.971 104.585,57.227 104.663,57.403 104.664 C 57.829 104.668,57.696 104.572,57.083 104.435 C 56.718 104.353,56.651 104.369,56.833 104.492 M60.250 105.262 C 60.708 105.389,61.158 105.487,61.250 105.479 C 61.532 105.455,60.105 105.025,59.750 105.028 C 59.567 105.029,59.792 105.134,60.250 105.262 M36.071 105.313 C 36.125 105.401,36.551 105.708,37.016 105.994 C 37.481 106.280,37.817 106.442,37.763 106.354 C 37.708 106.266,37.283 105.959,36.817 105.673 C 36.352 105.386,36.016 105.224,36.071 105.313 M93.397 107.250 C 93.397 108.350,93.424 108.778,93.457 108.202 C 93.490 107.625,93.489 106.725,93.456 106.202 C 93.423 105.678,93.397 106.150,93.397 107.250 M61.917 105.667 C 62.100 105.745,62.362 105.810,62.500 105.810 C 62.658 105.810,62.627 105.757,62.417 105.667 C 62.233 105.588,61.971 105.523,61.833 105.523 C 61.676 105.523,61.707 105.576,61.917 105.667 M63.827 106.251 C 64.420 106.471,64.931 106.624,64.964 106.592 C 65.042 106.513,63.211 105.831,62.952 105.842 C 62.841 105.847,63.235 106.031,63.827 106.251 M38.083 106.617 C 38.175 106.712,38.625 106.999,39.083 107.255 C 39.542 107.512,39.842 107.644,39.750 107.550 C 39.658 107.455,39.208 107.168,38.750 106.911 C 38.292 106.655,37.992 106.523,38.083 106.617 M30.729 108.285 C 30.282 108.808,30.004 109.183,30.110 109.118 C 30.343 108.975,31.731 107.333,31.619 107.333 C 31.576 107.333,31.175 107.762,30.729 108.285 M42.667 109.083 C 42.896 109.214,43.158 109.322,43.250 109.322 C 43.342 109.322,43.229 109.214,43.000 109.083 C 42.771 108.952,42.508 108.845,42.417 108.845 C 42.325 108.845,42.438 108.952,42.667 109.083 M67.542 109.583 C 67.544 109.950,67.578 110.080,67.618 109.873 C 67.658 109.666,67.656 109.366,67.615 109.206 C 67.573 109.047,67.540 109.217,67.542 109.583 M29.487 109.792 C 28.504 110.893,28.281 111.167,28.367 111.167 C 28.418 111.167,28.812 110.754,29.243 110.250 C 30.040 109.317,30.231 108.957,29.487 109.792 M43.500 109.391 C 43.500 109.508,46.187 110.535,46.273 110.450 C 46.310 110.412,45.761 110.164,45.051 109.899 C 44.341 109.634,43.702 109.392,43.630 109.361 C 43.559 109.331,43.500 109.344,43.500 109.391 M93.214 110.250 C 93.216 110.708,93.248 110.876,93.286 110.623 C 93.325 110.369,93.324 109.994,93.284 109.789 C 93.244 109.584,93.213 109.792,93.214 110.250 M46.977 110.757 C 47.286 110.890,47.623 110.997,47.727 110.993 C 47.832 110.990,47.664 110.877,47.356 110.743 C 47.047 110.610,46.710 110.503,46.606 110.507 C 46.502 110.510,46.669 110.623,46.977 110.757 M48.250 111.167 C 48.433 111.245,48.696 111.310,48.833 111.310 C 48.991 111.310,48.960 111.257,48.750 111.167 C 48.567 111.088,48.304 111.023,48.167 111.023 C 48.009 111.023,48.040 111.076,48.250 111.167 M66.915 111.337 C 66.857 111.430,66.421 111.730,65.946 112.002 C 65.472 112.274,65.162 112.498,65.259 112.498 C 65.486 112.500,66.925 111.589,67.073 111.350 C 67.135 111.249,67.149 111.167,67.103 111.167 C 67.057 111.167,66.972 111.243,66.915 111.337 M27.740 111.875 L 27.250 112.417 27.792 111.927 C 28.297 111.471,28.410 111.333,28.281 111.333 C 28.252 111.333,28.009 111.577,27.740 111.875 M49.417 111.500 C 49.600 111.579,49.862 111.643,50.000 111.643 C 50.158 111.643,50.127 111.590,49.917 111.500 C 49.733 111.421,49.471 111.357,49.333 111.357 C 49.176 111.357,49.207 111.410,49.417 111.500 M93.020 111.583 C 93.007 111.767,92.957 112.104,92.910 112.333 L 92.824 112.750 93.002 112.341 C 93.101 112.116,93.150 111.779,93.113 111.591 C 93.047 111.259,93.045 111.259,93.020 111.583 M160.167 121.533 C 160.121 127.098,160.140 131.593,160.210 131.524 C 160.279 131.454,160.317 126.902,160.293 121.407 L 160.250 111.417 160.167 121.533 M51.250 111.928 C 51.708 112.056,52.233 112.155,52.417 112.149 C 52.600 112.143,52.337 112.035,51.833 111.910 C 50.640 111.612,50.167 111.627,51.250 111.928 M53.250 112.333 C 53.955 112.513,54.560 112.513,54.000 112.333 C 53.771 112.260,53.396 112.201,53.167 112.203 C 52.792 112.206,52.801 112.219,53.250 112.333 M26.307 113.542 C 24.916 115.152,23.961 116.333,24.051 116.333 C 24.096 116.333,24.856 115.471,25.739 114.417 C 26.623 113.362,27.315 112.500,27.277 112.500 C 27.238 112.500,26.802 112.969,26.307 113.542 M63.750 112.667 C 63.301 112.781,63.292 112.794,63.667 112.797 C 63.896 112.799,64.271 112.740,64.500 112.667 C 65.060 112.487,64.455 112.487,63.750 112.667 M56.542 112.786 C 56.794 112.824,57.206 112.824,57.458 112.786 C 57.710 112.748,57.504 112.717,57.000 112.717 C 56.496 112.717,56.290 112.748,56.542 112.786 M59.300 112.957 C 60.060 112.988,61.260 112.988,61.966 112.957 C 62.672 112.926,62.050 112.901,60.583 112.901 C 59.117 112.901,58.539 112.927,59.300 112.957 M92.463 114.025 C 92.309 114.601,92.209 115.098,92.242 115.131 C 92.332 115.221,92.860 113.329,92.797 113.141 C 92.767 113.052,92.617 113.450,92.463 114.025 M23.034 117.426 C 22.106 118.601,22.236 118.596,23.243 117.417 C 23.673 116.912,23.964 116.504,23.888 116.509 C 23.812 116.514,23.428 116.927,23.034 117.426 M91.446 116.921 C 91.384 117.102,91.288 117.362,91.233 117.500 C 91.177 117.638,91.258 117.579,91.412 117.371 C 91.566 117.162,91.662 116.902,91.625 116.792 C 91.588 116.680,91.509 116.736,91.446 116.921 M21.458 119.242 C 21.115 119.633,20.833 120.032,20.833 120.129 C 20.833 120.319,22.103 121.486,22.917 122.044 C 23.596 122.511,23.290 122.207,22.042 121.179 C 20.807 120.162,20.813 120.195,21.688 119.246 C 22.066 118.836,22.310 118.507,22.230 118.516 C 22.149 118.524,21.802 118.851,21.458 119.242 M89.439 120.663 C 89.197 121.028,89.000 121.382,89.000 121.450 C 89.000 121.518,89.101 121.426,89.224 121.245 C 89.767 120.450,90.032 120.000,89.958 120.000 C 89.914 120.000,89.680 120.298,89.439 120.663 M86.830 123.761 C 86.053 124.546,84.854 125.608,84.167 126.121 C 82.762 127.169,82.561 127.333,82.691 127.333 C 83.078 127.333,86.278 124.618,87.649 123.125 C 88.803 121.868,88.371 122.204,86.830 123.761 M24.167 122.901 C 24.167 122.946,24.504 123.216,24.917 123.500 C 25.329 123.784,25.667 123.979,25.667 123.933 C 25.667 123.887,25.329 123.617,24.917 123.333 C 24.504 123.050,24.167 122.855,24.167 122.901 M26.667 124.555 C 26.667 124.657,28.293 125.667,28.456 125.667 C 28.588 125.667,28.227 125.413,27.292 124.850 C 26.948 124.642,26.667 124.510,26.667 124.555 M28.667 125.723 C 28.667 125.836,29.864 126.525,29.936 126.453 C 29.969 126.420,29.697 126.224,29.331 126.019 C 28.966 125.813,28.667 125.680,28.667 125.723 M32.000 127.500 C 32.321 127.676,32.658 127.819,32.750 127.819 C 32.842 127.819,32.654 127.676,32.333 127.500 C 32.012 127.324,31.675 127.181,31.583 127.181 C 31.492 127.181,31.679 127.324,32.000 127.500 M81.500 127.917 C 80.996 128.233,80.638 128.494,80.706 128.496 C 80.856 128.501,82.500 127.499,82.500 127.402 C 82.500 127.293,82.465 127.311,81.500 127.917 M34.147 128.420 C 34.640 128.654,35.074 128.815,35.112 128.777 C 35.150 128.739,34.859 128.578,34.465 128.419 C 33.325 127.958,33.174 127.959,34.147 128.420 M79.370 129.034 C 78.795 129.315,78.351 129.573,78.383 129.606 C 78.460 129.682,80.500 128.698,80.500 128.585 C 80.500 128.474,80.572 128.446,79.370 129.034 M35.811 129.090 C 36.119 129.224,36.457 129.330,36.561 129.327 C 36.665 129.323,36.498 129.211,36.189 129.077 C 35.881 128.943,35.543 128.836,35.439 128.840 C 35.335 128.843,35.502 128.956,35.811 129.090 M37.250 129.564 C 37.525 129.690,37.938 129.838,38.167 129.894 C 38.501 129.976,38.485 129.952,38.083 129.769 C 37.808 129.644,37.396 129.495,37.167 129.439 C 36.832 129.357,36.848 129.382,37.250 129.564 M76.583 130.256 C 76.308 130.382,76.196 130.486,76.333 130.487 C 76.471 130.487,76.771 130.381,77.000 130.250 C 77.527 129.949,77.245 129.953,76.583 130.256 M40.750 130.667 C 40.933 130.745,41.196 130.810,41.333 130.810 C 41.491 130.810,41.460 130.757,41.250 130.667 C 41.067 130.588,40.804 130.523,40.667 130.523 C 40.509 130.523,40.540 130.576,40.750 130.667 M74.944 130.781 C 74.501 130.916,74.170 131.058,74.208 131.096 C 74.292 131.180,76.000 130.685,76.000 130.577 C 76.000 130.472,75.877 130.496,74.944 130.781 M42.333 131.049 C 42.333 131.160,44.840 131.716,44.931 131.624 C 44.970 131.585,44.570 131.460,44.043 131.346 C 43.515 131.232,42.915 131.099,42.708 131.051 C 42.502 131.003,42.333 131.002,42.333 131.049 M72.917 131.423 C 72.259 131.650,72.258 131.652,72.833 131.555 C 73.513 131.440,74.208 131.187,73.833 131.190 C 73.696 131.191,73.283 131.296,72.917 131.423 M45.750 131.833 C 45.933 131.912,46.233 131.977,46.417 131.977 L 46.750 131.977 46.417 131.833 C 46.233 131.755,45.933 131.690,45.750 131.690 L 45.417 131.690 45.750 131.833 M71.250 131.833 C 71.040 131.924,71.009 131.977,71.167 131.977 C 71.304 131.977,71.567 131.912,71.750 131.833 C 71.960 131.743,71.991 131.690,71.833 131.690 C 71.696 131.690,71.433 131.755,71.250 131.833 M47.127 132.118 C 47.334 132.158,47.634 132.156,47.794 132.115 C 47.953 132.073,47.783 132.040,47.417 132.042 C 47.050 132.044,46.920 132.078,47.127 132.118 M70.042 132.115 C 70.202 132.157,70.465 132.157,70.625 132.115 C 70.785 132.073,70.654 132.039,70.333 132.039 C 70.012 132.039,69.881 132.073,70.042 132.115 M48.750 132.325 C 49.264 132.464,50.443 132.549,50.319 132.438 C 50.281 132.403,49.800 132.333,49.250 132.282 C 48.592 132.221,48.421 132.236,48.750 132.325 M68.500 132.333 C 67.935 132.452,67.932 132.456,68.417 132.461 C 68.692 132.464,69.104 132.407,69.333 132.333 C 69.880 132.158,69.331 132.158,68.500 132.333 M50.877 132.620 C 51.131 132.658,51.506 132.657,51.711 132.617 C 51.916 132.578,51.708 132.546,51.250 132.548 C 50.792 132.549,50.624 132.581,50.877 132.620 M66.960 132.618 C 67.168 132.658,67.468 132.656,67.627 132.615 C 67.786 132.573,67.617 132.540,67.250 132.542 C 66.883 132.544,66.753 132.578,66.960 132.618 M52.375 132.782 C 52.535 132.823,52.798 132.823,52.958 132.782 C 53.119 132.740,52.987 132.705,52.667 132.705 C 52.346 132.705,52.215 132.740,52.375 132.782 M56.723 133.063 C 58.432 133.147,60.840 133.147,62.389 133.063 C 64.857 132.929,64.607 132.917,59.417 132.917 C 54.015 132.917,53.889 132.924,56.723 133.063 " stroke="none" fill="#acacac" fill-rule="evenodd"></path><path id="path1" d="M246.083 1.160 C 245.900 1.242,245.469 1.315,245.125 1.322 C 244.686 1.330,244.500 1.408,244.500 1.583 C 244.500 1.750,244.333 1.833,244.000 1.833 C 243.679 1.833,243.500 1.918,243.500 2.070 C 243.500 2.200,243.267 2.358,242.983 2.420 C 242.457 2.536,241.833 3.031,241.833 3.333 C 241.833 3.425,241.545 3.788,241.192 4.141 C 240.840 4.494,240.323 5.112,240.044 5.516 C 239.765 5.920,239.360 6.445,239.144 6.683 C 238.333 7.575,238.000 8.007,238.000 8.168 C 238.000 8.259,237.925 8.333,237.833 8.333 C 237.742 8.333,237.667 8.446,237.667 8.583 C 237.667 8.721,237.576 8.815,237.464 8.792 C 237.353 8.769,237.185 8.919,237.092 9.125 C 236.998 9.331,236.826 9.500,236.710 9.500 C 236.595 9.500,236.500 9.615,236.500 9.755 C 236.500 9.896,236.394 10.051,236.265 10.101 C 236.136 10.150,235.988 10.354,235.937 10.554 C 235.885 10.753,235.624 11.062,235.356 11.240 C 235.088 11.417,234.736 11.787,234.574 12.061 C 234.206 12.683,233.969 12.970,232.875 14.110 C 232.394 14.612,232.000 15.130,232.000 15.261 C 232.000 15.393,231.925 15.500,231.833 15.500 C 231.742 15.500,231.667 15.612,231.667 15.750 C 231.667 15.887,231.586 16.000,231.488 16.000 C 231.241 16.000,230.826 16.437,230.952 16.563 C 231.009 16.620,230.931 16.667,230.778 16.667 C 230.625 16.667,230.500 16.771,230.500 16.899 C 230.500 17.027,230.387 17.174,230.250 17.227 C 230.112 17.280,230.000 17.400,230.000 17.495 C 230.000 17.589,229.850 17.817,229.667 18.000 C 229.483 18.183,229.333 18.446,229.333 18.583 C 229.333 18.721,229.239 18.833,229.123 18.833 C 229.007 18.833,228.763 19.035,228.581 19.282 C 228.399 19.529,228.119 19.846,227.958 19.986 C 227.798 20.126,227.667 20.305,227.667 20.383 C 227.667 20.461,227.292 20.896,226.833 21.349 C 226.375 21.803,226.000 22.277,226.000 22.402 C 226.000 22.528,225.883 22.676,225.739 22.731 C 225.596 22.786,225.526 22.907,225.583 22.999 C 225.640 23.091,225.569 23.167,225.427 23.167 C 225.284 23.167,225.167 23.244,225.167 23.338 C 225.167 23.432,224.946 23.751,224.677 24.046 C 223.549 25.283,223.333 25.560,223.333 25.774 C 223.333 25.898,223.221 26.000,223.083 26.000 C 222.946 26.000,222.833 26.113,222.833 26.250 C 222.833 26.387,222.721 26.500,222.583 26.500 C 222.446 26.500,222.333 26.564,222.333 26.641 C 222.333 26.719,222.183 26.955,222.000 27.167 C 221.817 27.378,221.667 27.652,221.667 27.776 C 221.667 27.899,221.554 28.000,221.417 28.000 C 221.279 28.000,221.167 28.080,221.167 28.177 C 221.167 28.275,220.942 28.544,220.667 28.776 C 220.392 29.007,220.167 29.295,220.167 29.417 C 220.167 29.538,219.942 29.826,219.667 30.058 C 219.392 30.289,219.167 30.558,219.167 30.656 C 219.167 30.753,219.106 30.833,219.032 30.833 C 218.958 30.833,218.677 31.142,218.407 31.520 C 218.137 31.898,217.673 32.441,217.375 32.727 C 217.077 33.014,216.833 33.342,216.833 33.457 C 216.833 33.572,216.769 33.667,216.689 33.667 C 216.610 33.667,216.329 33.980,216.064 34.364 C 215.800 34.747,215.283 35.377,214.917 35.763 C 213.864 36.873,213.500 37.344,213.500 37.597 C 213.500 37.727,213.419 37.833,213.320 37.833 C 213.074 37.833,211.833 39.183,211.833 39.451 C 211.833 39.570,211.758 39.667,211.667 39.667 C 211.575 39.667,211.500 39.779,211.500 39.917 C 211.500 40.054,211.422 40.167,211.326 40.167 C 211.098 40.167,210.432 40.837,210.289 41.209 C 210.227 41.369,210.100 41.500,210.005 41.500 C 209.911 41.500,209.833 41.650,209.833 41.833 C 209.833 42.019,209.722 42.167,209.583 42.167 C 209.446 42.167,209.333 42.231,209.333 42.309 C 209.333 42.519,208.544 43.333,208.341 43.333 C 208.245 43.333,208.167 43.444,208.167 43.579 C 208.167 43.715,207.904 44.064,207.583 44.356 C 207.113 44.784,207.000 45.009,207.000 45.517 C 207.000 45.863,206.925 46.193,206.833 46.250 C 206.742 46.307,206.664 46.630,206.661 46.968 C 206.658 47.307,206.551 47.722,206.423 47.891 C 206.184 48.206,206.252 48.654,206.571 48.872 C 206.670 48.940,196.606 48.996,184.208 48.997 C 169.293 48.999,161.667 49.056,161.667 49.167 C 161.667 49.258,161.254 49.333,160.750 49.333 C 160.246 49.333,159.833 49.258,159.833 49.167 C 159.833 49.056,148.920 49.000,127.427 49.000 C 106.002 49.000,94.985 49.056,94.917 49.167 C 94.860 49.258,94.443 49.333,93.990 49.333 C 93.369 49.333,93.167 49.395,93.167 49.583 C 93.167 49.758,92.991 49.833,92.585 49.833 C 92.039 49.833,91.712 50.011,90.975 50.708 C 90.805 50.869,90.592 51.000,90.500 51.000 C 90.408 51.000,90.333 51.099,90.333 51.221 C 90.333 51.343,90.071 51.661,89.750 51.928 C 89.311 52.295,89.167 52.544,89.167 52.937 C 89.167 53.224,89.054 53.553,88.917 53.667 C 88.779 53.781,88.667 54.044,88.667 54.253 C 88.667 54.683,87.395 54.521,87.117 54.056 C 87.043 53.934,86.835 53.833,86.653 53.833 C 86.471 53.833,86.283 53.728,86.233 53.600 C 86.184 53.471,85.875 53.316,85.548 53.254 C 85.220 53.193,84.845 53.035,84.714 52.905 C 84.583 52.774,84.303 52.667,84.092 52.667 C 83.880 52.667,83.615 52.556,83.503 52.420 C 83.390 52.284,82.936 52.125,82.493 52.067 C 82.045 52.007,81.648 51.858,81.599 51.730 C 81.547 51.596,81.271 51.500,80.940 51.500 C 80.586 51.500,80.332 51.405,80.273 51.250 C 80.210 51.085,79.949 51.000,79.505 51.000 C 79.019 51.000,78.833 50.931,78.833 50.750 C 78.833 50.570,78.649 50.500,78.177 50.500 C 77.815 50.500,77.473 50.425,77.417 50.333 C 77.360 50.242,77.060 50.167,76.750 50.167 C 76.440 50.167,76.140 50.092,76.083 50.000 C 76.027 49.908,75.655 49.833,75.258 49.833 C 74.770 49.833,74.505 49.752,74.440 49.583 C 74.369 49.399,74.078 49.333,73.339 49.333 C 72.780 49.333,72.333 49.259,72.333 49.167 C 72.333 49.075,72.015 48.998,71.625 48.995 C 71.235 48.992,70.771 48.879,70.593 48.745 C 70.395 48.595,69.895 48.500,69.301 48.500 C 68.769 48.500,68.333 48.432,68.333 48.349 C 68.333 48.088,65.004 47.967,57.917 47.970 C 50.917 47.973,48.333 48.075,48.333 48.346 C 48.333 48.431,47.930 48.500,47.437 48.500 C 46.844 48.500,46.471 48.584,46.333 48.750 C 46.201 48.910,45.832 49.000,45.313 49.000 C 44.866 49.000,44.500 49.075,44.500 49.167 C 44.500 49.258,44.160 49.333,43.745 49.333 C 43.227 49.333,42.959 49.412,42.894 49.583 C 42.834 49.738,42.581 49.833,42.230 49.833 C 41.918 49.833,41.532 49.901,41.373 49.984 C 41.214 50.066,40.783 50.214,40.417 50.311 C 40.050 50.409,39.581 50.534,39.375 50.589 C 39.169 50.644,39.000 50.759,39.000 50.845 C 39.000 50.930,38.775 51.000,38.500 51.000 C 38.167 51.000,38.000 51.083,38.000 51.250 C 38.000 51.415,37.835 51.500,37.512 51.500 C 37.243 51.500,36.910 51.614,36.772 51.752 C 36.633 51.891,36.271 52.053,35.968 52.111 C 35.665 52.170,35.357 52.319,35.283 52.442 C 35.210 52.566,35.013 52.667,34.845 52.667 C 34.678 52.667,34.447 52.779,34.333 52.917 C 34.219 53.054,34.022 53.167,33.895 53.167 C 33.767 53.167,33.535 53.317,33.378 53.500 C 33.221 53.683,32.959 53.833,32.796 53.833 C 32.633 53.833,32.500 53.912,32.500 54.009 C 32.500 54.105,32.237 54.293,31.917 54.427 C 31.596 54.561,31.333 54.745,31.333 54.836 C 31.333 54.926,31.255 55.000,31.159 55.000 C 31.063 55.000,30.810 55.188,30.598 55.417 C 30.386 55.646,30.159 55.833,30.094 55.833 C 30.029 55.833,29.877 55.927,29.757 56.042 C 29.636 56.156,29.327 56.400,29.070 56.583 C 28.400 57.063,26.185 59.286,25.501 60.167 C 25.181 60.579,24.862 60.942,24.793 60.972 C 24.723 61.003,24.667 61.107,24.667 61.203 C 24.667 61.300,24.498 61.539,24.292 61.736 C 23.970 62.042,23.512 62.698,22.534 64.250 C 22.418 64.433,22.281 64.709,22.229 64.863 C 22.177 65.018,22.029 65.184,21.900 65.233 C 21.772 65.283,21.667 65.471,21.667 65.652 C 21.667 65.832,21.599 66.022,21.516 66.074 C 21.433 66.125,21.404 66.317,21.452 66.500 C 21.512 66.732,21.457 66.833,21.269 66.833 C 21.121 66.833,21.000 66.968,21.000 67.135 C 21.000 67.301,20.890 67.582,20.755 67.760 C 20.621 67.938,20.508 68.280,20.505 68.521 C 20.502 68.762,20.395 69.046,20.266 69.153 C 20.133 69.264,19.983 69.843,19.917 70.500 C 19.851 71.157,19.700 71.736,19.567 71.847 C 19.439 71.954,19.333 72.305,19.333 72.627 C 19.333 72.993,19.224 73.293,19.042 73.427 C 18.594 73.754,18.594 85.293,19.042 85.787 C 19.202 85.965,19.333 86.353,19.333 86.650 C 19.333 86.947,19.436 87.293,19.561 87.418 C 19.686 87.543,19.838 88.089,19.899 88.632 C 19.961 89.174,20.119 89.760,20.250 89.934 C 20.382 90.108,20.492 90.448,20.495 90.691 C 20.498 90.933,20.612 91.174,20.750 91.227 C 20.887 91.280,21.000 91.431,21.000 91.562 C 21.000 91.828,22.060 93.768,22.430 94.180 C 22.560 94.325,22.667 94.526,22.667 94.627 C 22.667 94.728,22.817 94.858,23.000 94.917 C 23.183 94.975,23.333 95.130,23.333 95.261 C 23.333 95.393,23.408 95.500,23.500 95.500 C 23.592 95.500,23.668 95.594,23.669 95.708 C 23.670 95.823,24.157 96.436,24.752 97.071 C 25.347 97.705,25.833 98.287,25.833 98.362 C 25.833 98.438,25.901 98.500,25.983 98.500 C 26.065 98.500,26.514 98.873,26.980 99.329 C 27.446 99.785,28.016 100.206,28.247 100.264 C 28.758 100.392,28.808 100.913,28.333 101.167 C 28.150 101.265,28.000 101.455,28.000 101.589 C 28.000 101.723,27.930 101.833,27.845 101.833 C 27.759 101.833,27.642 101.983,27.583 102.167 C 27.525 102.350,27.370 102.500,27.239 102.500 C 27.107 102.500,27.000 102.575,27.000 102.667 C 27.000 102.758,26.869 102.979,26.708 103.156 C 26.548 103.334,26.192 103.762,25.917 104.107 C 25.642 104.452,25.248 104.910,25.042 105.124 C 24.835 105.339,24.667 105.551,24.667 105.594 C 24.667 105.637,24.419 105.915,24.115 106.211 C 23.812 106.508,23.421 106.994,23.246 107.292 C 23.071 107.590,22.869 107.833,22.797 107.833 C 22.725 107.833,22.667 107.946,22.667 108.083 C 22.667 108.221,22.554 108.333,22.417 108.333 C 22.279 108.333,22.167 108.405,22.167 108.492 C 22.167 108.580,21.998 108.833,21.792 109.055 C 21.585 109.277,21.192 109.731,20.917 110.063 C 20.642 110.395,20.154 110.954,19.833 111.305 C 19.512 111.657,19.137 112.112,19.000 112.318 C 18.862 112.523,18.426 113.042,18.030 113.471 C 17.634 113.899,17.209 114.438,17.086 114.667 C 16.962 114.896,16.705 115.194,16.514 115.328 C 16.323 115.463,16.167 115.628,16.167 115.695 C 16.167 115.762,15.979 116.019,15.750 116.266 C 14.587 117.521,14.595 122.998,15.761 124.079 C 15.984 124.286,16.167 124.527,16.167 124.615 C 16.167 124.703,16.438 124.995,16.771 125.263 C 17.103 125.531,17.593 125.956,17.860 126.208 C 18.126 126.460,18.406 126.667,18.481 126.667 C 18.557 126.667,18.820 126.854,19.068 127.083 C 19.315 127.313,19.588 127.500,19.675 127.500 C 19.762 127.500,19.833 127.576,19.833 127.669 C 19.833 127.763,20.096 127.964,20.417 128.117 C 20.738 128.270,21.000 128.456,21.000 128.531 C 21.000 128.606,21.075 128.667,21.167 128.667 C 21.258 128.667,21.483 128.817,21.667 129.000 C 21.850 129.183,22.150 129.333,22.333 129.333 C 22.519 129.333,22.667 129.444,22.667 129.583 C 22.667 129.721,22.771 129.833,22.899 129.833 C 23.027 129.833,23.170 129.935,23.218 130.060 C 23.266 130.184,23.603 130.334,23.968 130.392 C 24.332 130.450,24.674 130.611,24.727 130.749 C 24.780 130.887,24.938 131.000,25.078 131.000 C 25.218 131.000,25.333 131.112,25.333 131.250 C 25.333 131.387,25.430 131.500,25.548 131.500 C 25.666 131.500,26.057 131.650,26.417 131.833 C 26.776 132.017,27.169 132.167,27.290 132.167 C 27.411 132.167,27.554 132.279,27.606 132.417 C 27.659 132.554,27.882 132.667,28.101 132.667 C 28.345 132.667,28.500 132.764,28.500 132.917 C 28.500 133.071,28.656 133.167,28.907 133.167 C 29.131 133.167,29.360 133.242,29.417 133.333 C 29.473 133.425,29.633 133.500,29.772 133.500 C 29.910 133.500,30.136 133.612,30.274 133.750 C 30.411 133.887,30.706 134.000,30.929 134.000 C 31.151 134.000,31.333 134.075,31.333 134.167 C 31.333 134.258,31.558 134.333,31.833 134.333 C 32.108 134.333,32.333 134.408,32.333 134.500 C 32.333 134.592,32.515 134.667,32.738 134.667 C 32.961 134.667,33.255 134.779,33.393 134.917 C 33.530 135.054,33.804 135.167,34.000 135.167 C 34.196 135.167,34.462 135.272,34.590 135.400 C 34.718 135.528,35.272 135.685,35.821 135.749 C 36.369 135.812,36.906 135.970,37.013 136.099 C 37.120 136.228,37.453 136.333,37.753 136.333 C 38.059 136.333,38.336 136.433,38.385 136.561 C 38.443 136.712,38.920 136.827,39.805 136.904 C 40.729 136.985,41.167 137.094,41.231 137.260 C 41.297 137.432,41.607 137.500,42.328 137.500 C 43.040 137.500,43.321 137.560,43.292 137.707 C 43.262 137.855,43.771 137.955,45.083 138.058 C 46.092 138.138,46.967 138.284,47.029 138.383 C 47.091 138.482,47.841 138.595,48.696 138.633 C 49.639 138.676,50.348 138.789,50.500 138.921 C 51.240 139.564,67.415 139.572,67.917 138.929 C 68.016 138.803,68.619 138.681,69.392 138.632 C 70.112 138.586,70.749 138.470,70.809 138.375 C 70.868 138.280,71.579 138.148,72.388 138.080 C 73.394 137.997,73.888 137.886,73.948 137.729 C 74.004 137.583,74.301 137.500,74.773 137.500 C 75.253 137.500,75.542 137.418,75.600 137.266 C 75.659 137.113,76.095 136.991,76.857 136.914 C 77.613 136.838,78.056 136.715,78.113 136.565 C 78.164 136.432,78.436 136.333,78.750 136.333 C 79.066 136.333,79.336 136.234,79.387 136.100 C 79.436 135.972,79.801 135.814,80.197 135.751 C 80.593 135.687,81.083 135.529,81.286 135.401 C 81.489 135.272,81.770 135.167,81.911 135.167 C 82.052 135.167,82.167 135.097,82.167 135.012 C 82.167 134.813,83.126 134.333,83.526 134.333 C 83.695 134.333,83.833 134.258,83.833 134.167 C 83.833 134.075,83.935 134.000,84.059 134.000 C 84.183 134.000,84.487 133.813,84.734 133.583 C 84.982 133.354,85.330 133.167,85.509 133.167 C 85.687 133.167,85.833 133.054,85.833 132.917 C 85.833 132.778,85.981 132.667,86.167 132.667 C 86.350 132.667,86.500 132.571,86.500 132.453 C 86.500 132.336,86.706 132.145,86.958 132.030 C 87.890 131.604,88.167 131.416,88.167 131.210 C 88.167 131.095,88.232 131.000,88.312 131.000 C 88.473 131.000,88.662 131.960,88.665 132.797 C 88.666 133.128,88.765 133.382,88.917 133.440 C 89.060 133.495,89.167 133.744,89.167 134.024 C 89.167 134.549,89.564 135.283,90.039 135.634 C 90.201 135.754,90.333 135.960,90.333 136.093 C 90.333 136.225,90.446 136.333,90.583 136.333 C 90.721 136.333,90.833 136.446,90.833 136.583 C 90.833 136.721,90.936 136.833,91.061 136.833 C 91.186 136.833,91.479 136.983,91.712 137.167 C 91.945 137.350,92.364 137.500,92.643 137.500 C 92.922 137.500,93.213 137.613,93.290 137.750 C 93.483 138.094,161.944 138.052,161.875 137.708 C 161.847 137.568,162.065 137.500,162.546 137.500 C 163.053 137.500,163.342 137.404,163.545 137.167 C 163.702 136.983,163.941 136.833,164.076 136.833 C 164.211 136.833,164.411 136.666,164.520 136.462 C 164.630 136.258,164.932 135.903,165.193 135.675 C 165.453 135.446,165.667 135.190,165.667 135.106 C 165.667 135.022,165.777 134.870,165.912 134.768 C 166.074 134.646,166.195 134.118,166.269 133.217 C 166.343 132.302,166.455 131.822,166.607 131.764 C 166.944 131.635,166.944 110.799,166.606 110.519 C 166.474 110.410,166.332 109.806,166.266 109.080 C 166.166 107.978,166.089 107.764,165.618 107.271 C 165.324 106.964,164.933 106.518,164.750 106.280 C 164.567 106.043,164.360 105.845,164.292 105.841 C 164.223 105.837,164.017 105.683,163.833 105.500 C 163.650 105.317,163.350 105.167,163.167 105.167 C 162.741 105.167,162.713 104.541,163.125 104.240 C 163.397 104.041,163.417 103.346,163.417 93.764 L 163.417 83.500 170.458 83.500 L 177.500 83.500 177.500 108.422 C 177.500 130.421,177.529 133.355,177.750 133.440 C 177.899 133.497,178.000 133.748,178.000 134.062 C 178.000 134.591,178.706 135.833,179.006 135.833 C 179.094 135.833,179.167 135.946,179.167 136.083 C 179.167 136.221,179.279 136.333,179.417 136.333 C 179.554 136.333,179.667 136.446,179.667 136.583 C 179.667 136.721,179.769 136.833,179.894 136.833 C 180.019 136.833,180.312 136.983,180.545 137.167 C 180.779 137.350,181.193 137.500,181.467 137.500 C 181.755 137.500,182.005 137.605,182.060 137.750 C 182.206 138.129,210.627 138.129,210.773 137.750 C 210.833 137.595,211.086 137.500,211.441 137.500 C 211.784 137.500,212.158 137.366,212.372 137.167 C 212.569 136.983,212.828 136.833,212.948 136.833 C 213.068 136.833,213.167 136.721,213.167 136.583 C 213.167 136.446,213.279 136.333,213.417 136.333 C 213.554 136.333,213.667 136.266,213.667 136.184 C 213.667 136.102,213.896 135.790,214.176 135.490 C 214.457 135.189,214.730 134.725,214.783 134.458 C 214.837 134.190,214.983 133.932,215.107 133.885 C 215.254 133.828,215.333 133.517,215.333 132.992 C 215.333 132.549,215.408 132.140,215.500 132.083 C 215.610 132.015,215.667 123.720,215.667 107.740 L 215.667 83.500 221.417 83.500 L 227.167 83.500 227.167 93.563 C 227.167 102.072,227.203 103.656,227.404 103.823 C 227.556 103.949,227.672 104.483,227.725 105.302 C 227.771 106.007,227.893 107.071,227.995 107.667 C 228.098 108.263,228.223 109.112,228.274 109.553 C 228.328 110.017,228.466 110.395,228.600 110.446 C 228.750 110.504,228.833 110.791,228.833 111.247 C 228.833 111.655,228.933 112.042,229.067 112.153 C 229.200 112.264,229.351 112.843,229.417 113.500 C 229.483 114.157,229.633 114.736,229.766 114.847 C 229.895 114.954,230.000 115.259,230.000 115.526 C 230.000 115.803,230.107 116.052,230.250 116.106 C 230.387 116.159,230.500 116.379,230.500 116.595 C 230.500 116.810,230.601 117.081,230.725 117.197 C 230.848 117.312,230.915 117.540,230.872 117.703 C 230.829 117.867,230.878 118.000,230.981 118.000 C 231.083 118.000,231.167 118.179,231.167 118.399 C 231.167 118.618,231.279 118.841,231.417 118.894 C 231.554 118.946,231.667 119.138,231.667 119.320 C 231.667 119.501,231.760 119.710,231.875 119.783 C 231.990 119.857,232.089 119.992,232.096 120.083 C 232.123 120.443,232.541 121.333,232.683 121.333 C 232.766 121.333,232.833 121.446,232.833 121.583 C 232.833 121.721,232.891 121.833,232.962 121.833 C 233.033 121.833,233.239 122.115,233.420 122.458 C 233.822 123.219,233.917 123.345,234.708 124.162 C 235.052 124.517,235.333 124.909,235.333 125.033 C 235.333 125.158,235.465 125.379,235.625 125.526 C 235.785 125.673,236.179 126.113,236.500 126.506 C 237.518 127.750,238.920 129.119,239.300 129.239 C 239.502 129.303,239.667 129.426,239.667 129.511 C 239.667 129.705,240.284 130.333,240.474 130.333 C 240.552 130.333,240.789 130.483,241.000 130.667 C 241.211 130.850,241.485 131.000,241.609 131.000 C 241.732 131.000,241.834 131.094,241.834 131.208 C 241.836 131.470,242.842 132.167,243.219 132.167 C 243.373 132.167,243.500 132.279,243.500 132.417 C 243.500 132.554,243.612 132.667,243.750 132.667 C 243.887 132.667,244.000 132.738,244.000 132.826 C 244.000 132.913,244.259 133.107,244.576 133.258 C 244.892 133.408,245.239 133.636,245.346 133.765 C 245.453 133.894,245.644 134.000,245.770 134.000 C 245.897 134.000,246.000 134.075,246.000 134.167 C 246.000 134.258,246.188 134.333,246.417 134.333 C 246.646 134.333,246.833 134.408,246.833 134.500 C 246.833 134.592,246.978 134.667,247.155 134.667 C 247.332 134.667,247.589 134.779,247.726 134.917 C 247.864 135.054,248.088 135.167,248.224 135.167 C 248.361 135.167,248.498 135.244,248.530 135.339 C 248.561 135.434,249.034 135.616,249.581 135.743 C 250.127 135.870,250.602 136.055,250.634 136.153 C 250.667 136.252,250.951 136.333,251.264 136.333 C 251.622 136.333,251.818 136.408,251.792 136.536 C 251.764 136.668,252.168 136.798,252.952 136.911 C 253.613 137.006,254.247 137.177,254.360 137.292 C 254.474 137.406,254.889 137.500,255.283 137.500 C 255.782 137.500,256.000 137.570,256.000 137.730 C 256.000 137.902,256.412 137.991,257.625 138.082 C 258.519 138.148,259.299 138.280,259.358 138.375 C 259.417 138.470,260.055 138.586,260.774 138.632 C 261.551 138.682,262.150 138.803,262.250 138.930 C 262.745 139.565,279.252 139.567,279.750 138.932 C 279.849 138.806,280.480 138.681,281.298 138.625 C 282.057 138.573,282.776 138.450,282.894 138.352 C 283.013 138.253,283.767 138.122,284.570 138.061 C 285.556 137.985,286.058 137.876,286.116 137.724 C 286.167 137.591,286.458 137.500,286.831 137.500 C 287.176 137.500,287.548 137.393,287.657 137.262 C 287.767 137.129,288.332 136.973,288.940 136.908 C 289.620 136.835,290.059 136.706,290.114 136.563 C 290.164 136.432,290.439 136.333,290.750 136.333 C 291.065 136.333,291.336 136.234,291.387 136.101 C 291.438 135.968,291.844 135.817,292.333 135.750 C 292.822 135.683,293.229 135.532,293.280 135.399 C 293.329 135.271,293.588 135.167,293.856 135.167 C 294.136 135.167,294.385 135.060,294.440 134.917 C 294.492 134.779,294.673 134.667,294.841 134.667 C 295.009 134.667,295.193 134.592,295.250 134.500 C 295.307 134.408,295.499 134.333,295.677 134.333 C 295.854 134.333,296.000 134.258,296.000 134.167 C 296.000 134.075,296.115 134.000,296.255 134.000 C 296.396 134.000,296.554 133.887,296.606 133.750 C 296.659 133.612,296.844 133.500,297.018 133.500 C 297.191 133.500,297.333 133.425,297.333 133.333 C 297.333 133.242,297.486 133.167,297.672 133.167 C 297.858 133.167,298.054 133.054,298.106 132.917 C 298.159 132.779,298.307 132.667,298.434 132.667 C 298.562 132.667,298.667 132.595,298.667 132.508 C 298.667 132.420,298.929 132.224,299.250 132.072 C 299.571 131.920,299.833 131.729,299.833 131.648 C 299.833 131.566,299.948 131.500,300.089 131.500 C 300.229 131.500,300.387 131.387,300.440 131.250 C 300.492 131.112,300.623 131.000,300.731 131.000 C 300.838 131.000,301.054 130.850,301.211 130.667 C 301.368 130.483,301.610 130.333,301.748 130.333 C 301.887 130.333,302.000 130.221,302.000 130.083 C 302.000 129.946,302.112 129.833,302.250 129.833 C 302.387 129.833,302.500 129.721,302.500 129.583 C 302.500 129.446,302.587 129.333,302.693 129.333 C 302.799 129.333,303.192 129.020,303.568 128.637 L 304.250 127.940 304.296 130.591 C 304.321 132.049,304.415 133.315,304.504 133.404 C 304.594 133.494,304.667 133.852,304.667 134.200 C 304.667 134.652,304.738 134.833,304.917 134.833 C 305.054 134.833,305.167 134.943,305.167 135.077 C 305.167 135.393,306.748 137.000,307.059 137.000 C 307.190 137.000,307.341 137.112,307.394 137.250 C 307.459 137.421,307.727 137.500,308.245 137.500 C 308.760 137.500,308.987 137.566,308.958 137.708 C 308.890 138.052,337.684 138.095,337.876 137.751 C 337.959 137.602,338.253 137.500,338.597 137.500 C 338.948 137.500,339.213 137.405,339.269 137.260 C 339.320 137.128,339.580 136.972,339.847 136.914 C 340.115 136.855,340.333 136.700,340.333 136.570 C 340.333 136.440,340.446 136.333,340.583 136.333 C 340.721 136.333,340.833 136.239,340.833 136.123 C 340.833 136.008,340.983 135.820,341.167 135.705 C 341.350 135.591,341.500 135.393,341.500 135.266 C 341.500 135.140,341.613 134.992,341.750 134.940 C 341.915 134.876,342.000 134.615,342.000 134.167 C 342.000 133.719,342.085 133.457,342.250 133.394 C 342.467 133.310,342.500 132.257,342.500 125.316 L 342.500 117.333 346.292 117.332 C 349.171 117.332,350.188 117.277,350.520 117.104 C 350.783 116.966,351.864 116.827,353.240 116.754 C 354.953 116.662,355.546 116.573,355.613 116.399 C 355.673 116.244,355.974 116.167,356.518 116.167 C 357.095 116.167,357.333 116.100,357.333 115.940 C 357.333 115.775,357.724 115.681,358.761 115.597 C 360.329 115.469,360.712 115.375,360.573 115.149 C 360.522 115.067,360.787 115.000,361.162 115.000 C 361.614 115.000,361.876 114.916,361.940 114.750 C 361.998 114.597,362.251 114.500,362.591 114.500 C 362.897 114.500,363.193 114.425,363.250 114.333 C 363.307 114.242,363.532 114.167,363.750 114.167 C 363.968 114.167,364.193 114.092,364.250 114.000 C 364.307 113.908,364.538 113.833,364.765 113.833 C 364.992 113.833,365.220 113.721,365.273 113.583 C 365.327 113.444,365.574 113.333,365.833 113.333 C 366.089 113.333,366.334 113.240,366.378 113.125 C 366.422 113.010,366.805 112.815,367.229 112.690 C 367.653 112.565,368.000 112.396,368.000 112.315 C 368.000 112.233,368.142 112.167,368.316 112.167 C 368.489 112.167,368.674 112.054,368.727 111.917 C 368.780 111.779,368.938 111.667,369.078 111.667 C 369.218 111.667,369.333 111.592,369.333 111.500 C 369.333 111.408,369.480 111.333,369.658 111.333 C 369.837 111.333,370.043 111.240,370.117 111.125 C 370.267 110.889,371.102 110.360,371.542 110.220 C 371.702 110.169,371.833 110.024,371.833 109.897 C 371.833 109.770,371.942 109.667,372.075 109.667 C 372.208 109.667,372.377 109.571,372.450 109.455 C 372.523 109.338,372.790 109.152,373.042 109.042 C 373.294 108.931,373.500 108.764,373.500 108.670 C 373.500 108.577,373.613 108.500,373.750 108.500 C 373.887 108.500,374.000 108.388,374.000 108.250 C 374.000 108.112,374.112 108.000,374.249 108.000 C 374.385 108.000,374.591 107.850,374.705 107.667 C 374.820 107.483,375.008 107.333,375.123 107.333 C 375.239 107.333,375.333 107.221,375.333 107.083 C 375.333 106.946,375.446 106.833,375.583 106.833 C 375.721 106.833,375.833 106.758,375.833 106.667 C 375.833 106.575,375.946 106.500,376.083 106.500 C 376.221 106.500,376.333 106.444,376.334 106.375 C 376.334 106.306,376.502 106.051,376.709 105.808 C 376.915 105.564,377.271 105.132,377.500 104.848 C 377.729 104.564,378.198 104.013,378.542 103.624 C 378.885 103.235,379.167 102.823,379.167 102.708 C 379.167 102.594,379.242 102.500,379.333 102.500 C 379.425 102.500,379.500 102.388,379.500 102.250 C 379.500 102.112,379.604 102.000,379.731 102.000 C 379.857 102.000,380.010 101.869,380.071 101.708 C 380.247 101.239,380.753 100.386,381.214 99.783 C 381.449 99.475,381.692 98.953,381.754 98.623 C 381.815 98.293,381.971 97.983,382.100 97.933 C 382.228 97.884,382.333 97.701,382.333 97.526 C 382.333 97.351,382.446 97.114,382.583 97.000 C 382.721 96.886,382.833 96.610,382.833 96.386 C 382.833 96.158,382.906 96.025,383.000 96.083 C 383.092 96.140,383.173 96.088,383.181 95.968 C 383.241 95.016,383.644 93.258,383.814 93.201 C 383.916 93.167,384.000 92.816,384.000 92.421 C 384.000 91.958,384.083 91.670,384.234 91.613 C 384.377 91.558,384.501 91.180,384.553 90.636 C 384.600 90.149,384.715 89.375,384.809 88.917 C 385.032 87.830,385.033 77.675,384.810 76.583 C 384.717 76.125,384.602 75.397,384.554 74.966 C 384.507 74.535,384.363 74.094,384.234 73.987 C 384.105 73.880,384.000 73.499,384.000 73.141 C 384.000 72.716,383.913 72.456,383.750 72.394 C 383.588 72.331,383.500 72.073,383.500 71.659 C 383.500 71.307,383.425 70.973,383.333 70.917 C 383.242 70.860,383.167 70.635,383.167 70.417 C 383.167 70.198,383.092 69.973,383.000 69.917 C 382.908 69.860,382.833 69.591,382.833 69.318 C 382.833 69.032,382.728 68.782,382.583 68.727 C 382.446 68.674,382.333 68.461,382.333 68.253 C 382.333 68.044,382.226 67.785,382.094 67.676 C 381.962 67.566,381.803 67.239,381.739 66.949 C 381.601 66.322,381.166 65.679,380.875 65.672 C 380.760 65.669,380.667 65.483,380.667 65.258 C 380.667 65.034,380.569 64.790,380.449 64.717 C 380.330 64.643,380.051 64.286,379.830 63.923 C 379.609 63.559,379.314 63.130,379.173 62.968 C 379.032 62.806,378.692 62.401,378.417 62.068 C 377.617 61.100,375.670 59.167,375.494 59.167 C 375.406 59.167,375.333 59.054,375.333 58.917 C 375.333 58.779,375.221 58.667,375.083 58.667 C 374.946 58.667,374.833 58.566,374.833 58.443 C 374.833 58.321,374.646 58.135,374.417 58.030 C 374.188 57.926,374.000 57.764,374.000 57.670 C 374.000 57.577,373.887 57.500,373.750 57.500 C 373.613 57.500,373.500 57.440,373.500 57.366 C 373.500 57.206,371.839 56.040,370.958 55.583 C 370.615 55.404,370.333 55.200,370.333 55.129 C 370.333 55.058,370.183 55.000,370.000 55.000 C 369.817 55.000,369.667 54.921,369.667 54.825 C 369.667 54.728,369.409 54.542,369.095 54.411 C 368.780 54.279,368.476 54.096,368.418 54.003 C 368.361 53.909,368.131 53.833,367.907 53.833 C 367.671 53.833,367.500 53.736,367.500 53.602 C 367.500 53.455,367.218 53.329,366.724 53.255 C 366.297 53.191,365.842 53.032,365.712 52.903 C 365.582 52.773,365.341 52.667,365.175 52.667 C 365.010 52.667,364.789 52.565,364.686 52.440 C 364.582 52.315,364.142 52.170,363.707 52.119 C 363.272 52.067,362.692 51.907,362.417 51.763 C 362.142 51.620,361.682 51.502,361.395 51.501 C 361.109 51.500,360.781 51.388,360.667 51.250 C 360.553 51.112,360.215 51.000,359.917 51.000 C 359.618 51.000,359.286 50.894,359.179 50.765 C 359.072 50.636,358.594 50.487,358.117 50.435 C 355.908 50.195,355.500 50.124,355.500 49.984 C 355.500 49.901,354.908 49.833,354.184 49.833 C 353.190 49.833,352.846 49.774,352.776 49.592 C 352.608 49.154,310.667 48.729,310.667 49.165 C 310.667 49.260,310.228 49.333,309.667 49.333 C 309.111 49.333,308.667 49.259,308.667 49.167 C 308.667 49.057,304.986 49.000,297.958 49.000 L 287.250 48.999 287.220 47.958 C 287.204 47.385,287.114 46.654,287.020 46.333 C 286.926 46.012,286.806 45.541,286.753 45.285 C 286.700 45.029,286.584 44.865,286.495 44.920 C 286.406 44.975,286.333 44.914,286.333 44.786 C 286.333 44.657,285.958 44.161,285.500 43.683 C 285.042 43.205,284.667 42.743,284.667 42.657 C 284.667 42.571,284.556 42.500,284.420 42.500 C 284.284 42.500,284.126 42.313,284.068 42.083 C 284.011 41.854,283.859 41.667,283.732 41.667 C 283.604 41.667,283.500 41.589,283.500 41.493 C 283.500 41.294,283.248 40.964,282.708 40.458 C 282.502 40.265,282.333 40.008,282.333 39.887 C 282.333 39.766,282.221 39.667,282.083 39.667 C 281.946 39.667,281.833 39.562,281.833 39.434 C 281.833 39.307,281.721 39.159,281.583 39.106 C 281.446 39.054,281.333 38.922,281.333 38.815 C 281.333 38.707,281.108 38.404,280.833 38.142 C 280.558 37.879,280.333 37.589,280.333 37.499 C 280.333 37.408,280.221 37.333,280.083 37.333 C 279.946 37.333,279.833 37.253,279.833 37.155 C 279.833 37.057,279.740 36.872,279.625 36.744 C 279.172 36.239,279.000 36.010,279.000 35.912 C 279.000 35.743,278.537 35.333,278.345 35.333 C 278.247 35.333,278.167 35.221,278.167 35.085 C 278.167 34.948,278.017 34.742,277.833 34.628 C 277.650 34.513,277.500 34.360,277.500 34.286 C 277.500 34.142,277.404 34.011,276.755 33.267 C 276.523 33.002,276.333 32.721,276.333 32.642 C 276.333 32.564,276.221 32.500,276.083 32.500 C 275.946 32.500,275.833 32.422,275.833 32.326 C 275.833 32.147,275.776 32.067,275.081 31.283 C 274.853 31.026,274.667 30.743,274.667 30.655 C 274.667 30.566,274.479 30.407,274.250 30.303 C 274.021 30.199,273.833 30.021,273.833 29.907 C 273.833 29.794,273.647 29.525,273.420 29.309 C 273.192 29.093,273.004 28.823,273.003 28.708 C 273.001 28.594,272.887 28.500,272.750 28.500 C 272.612 28.500,272.500 28.420,272.500 28.321 C 272.500 28.099,272.079 27.667,271.863 27.667 C 271.775 27.667,271.660 27.498,271.608 27.292 C 271.555 27.085,271.284 26.668,271.006 26.365 C 270.728 26.061,270.500 25.742,270.500 25.656 C 270.500 25.570,270.385 25.500,270.245 25.500 C 270.104 25.500,269.941 25.369,269.882 25.208 C 269.823 25.048,269.731 24.879,269.678 24.833 C 269.625 24.787,269.364 24.450,269.098 24.083 C 268.833 23.717,268.364 23.185,268.058 22.902 C 267.751 22.619,267.500 22.300,267.500 22.194 C 267.500 22.087,267.425 22.000,267.333 22.000 C 267.242 22.000,267.167 21.926,267.167 21.835 C 267.167 21.744,266.942 21.455,266.667 21.192 C 266.392 20.929,266.167 20.628,266.167 20.524 C 266.167 20.419,266.068 20.333,265.947 20.333 C 265.827 20.333,265.556 20.028,265.347 19.655 C 265.137 19.282,264.861 18.936,264.733 18.887 C 264.605 18.838,264.500 18.693,264.500 18.566 C 264.500 18.438,264.387 18.333,264.250 18.333 C 264.112 18.333,264.000 18.251,264.000 18.151 C 264.000 18.050,263.587 17.498,263.083 16.924 C 262.579 16.350,262.167 15.794,262.167 15.690 C 262.167 15.585,262.054 15.500,261.917 15.500 C 261.779 15.500,261.667 15.431,261.667 15.347 C 261.667 15.195,261.439 14.899,260.324 13.605 C 259.998 13.226,259.448 12.523,259.101 12.042 C 258.755 11.560,258.365 11.167,258.236 11.167 C 258.106 11.167,258.000 11.054,258.000 10.917 C 258.000 10.779,257.938 10.667,257.861 10.667 C 257.785 10.667,257.485 10.300,257.194 9.851 C 256.904 9.402,256.553 8.992,256.416 8.940 C 256.279 8.887,256.167 8.729,256.167 8.589 C 256.167 8.448,256.054 8.333,255.917 8.333 C 255.779 8.333,255.667 8.253,255.667 8.155 C 255.667 8.057,255.573 7.875,255.458 7.751 C 255.344 7.628,255.100 7.332,254.917 7.093 C 254.733 6.854,254.393 6.455,254.160 6.205 C 253.928 5.955,253.484 5.394,253.174 4.958 C 252.864 4.523,252.548 4.167,252.472 4.167 C 252.396 4.167,252.352 4.106,252.375 4.031 C 252.439 3.825,251.131 2.558,250.724 2.432 C 250.526 2.371,250.322 2.211,250.271 2.077 C 250.214 1.929,249.953 1.833,249.606 1.833 C 249.272 1.833,248.999 1.737,248.947 1.601 C 248.898 1.473,248.533 1.328,248.137 1.279 C 247.741 1.229,247.192 1.148,246.917 1.099 C 246.642 1.050,246.267 1.078,246.083 1.160 M254.182 16.520 C 258.161 21.297,261.493 25.291,261.587 25.395 C 261.731 25.554,267.034 31.916,267.857 32.917 C 268.157 33.282,269.844 35.290,272.521 38.470 C 273.472 39.599,274.499 40.836,274.804 41.220 C 275.471 42.059,278.769 46.011,279.878 47.302 C 280.316 47.810,280.613 48.287,280.538 48.362 C 280.464 48.436,275.681 48.517,269.910 48.540 L 259.417 48.583 259.417 74.333 C 259.417 103.773,259.304 101.638,261.048 105.166 C 264.679 112.512,277.817 112.502,281.443 105.151 C 283.008 101.978,282.890 104.015,282.993 78.417 L 283.083 55.750 295.833 55.750 L 308.583 55.750 308.628 77.500 C 308.672 99.572,308.596 103.098,308.015 105.702 C 307.928 106.095,307.767 106.904,307.658 107.500 C 305.219 120.862,295.432 129.940,281.083 132.151 C 277.518 132.701,276.693 132.750,271.083 132.750 C 248.186 132.750,236.764 123.749,233.967 103.500 C 233.858 102.709,233.756 92.407,233.689 75.417 L 233.583 48.583 223.375 48.500 C 216.737 48.446,213.166 48.358,213.165 48.250 C 213.165 48.158,213.260 47.971,213.377 47.833 C 213.494 47.696,215.681 45.071,218.237 42.000 C 220.792 38.929,223.116 36.150,223.400 35.824 C 223.684 35.499,224.189 34.899,224.521 34.491 C 225.424 33.385,232.012 25.475,233.476 23.740 C 234.177 22.909,234.958 21.972,235.213 21.656 C 235.467 21.341,236.494 20.108,237.494 18.917 C 243.002 12.357,246.500 8.108,246.500 7.979 C 246.500 7.409,247.778 8.830,254.182 16.520 M65.917 54.489 C 75.763 55.665,83.085 58.357,90.138 63.393 C 91.805 64.584,91.838 64.298,89.689 67.252 C 88.756 68.534,87.775 69.883,87.508 70.250 C 87.241 70.617,85.917 72.454,84.565 74.333 C 79.777 80.991,79.276 81.667,79.129 81.667 C 79.048 81.667,78.515 81.341,77.946 80.943 C 75.571 79.283,71.523 77.324,68.286 76.267 C 62.138 74.260,54.841 73.736,52.228 75.113 C 50.647 75.946,50.365 78.274,51.705 79.432 C 52.208 79.867,54.292 80.865,55.083 81.050 C 55.267 81.093,55.979 81.278,56.667 81.461 C 57.354 81.644,58.967 81.995,60.250 82.241 C 62.648 82.701,67.399 83.713,68.583 84.016 C 69.200 84.174,69.592 84.279,71.667 84.843 C 74.821 85.699,78.031 86.912,81.000 88.368 C 90.203 92.883,94.193 99.719,93.366 109.555 C 93.257 110.854,93.098 112.179,93.012 112.500 C 92.927 112.821,92.772 113.421,92.668 113.833 C 92.032 116.357,90.218 120.087,88.823 121.740 C 85.446 125.742,82.213 128.113,77.500 130.045 C 67.058 134.324,50.574 134.129,37.194 129.567 C 31.327 127.567,25.021 124.078,21.463 120.863 C 20.676 120.152,20.680 120.083,21.547 119.167 C 21.937 118.754,22.592 118.005,23.003 117.502 C 23.414 116.998,23.910 116.398,24.106 116.168 C 24.302 115.938,24.939 115.179,25.523 114.481 C 30.755 108.219,32.542 106.094,33.376 105.137 L 34.347 104.023 36.132 105.222 C 43.687 110.296,51.900 112.834,60.759 112.833 C 65.330 112.833,67.464 111.819,67.492 109.633 C 67.520 107.450,65.149 106.233,57.961 104.742 C 54.989 104.126,54.370 103.998,53.634 103.844 C 52.417 103.589,49.980 103.016,49.333 102.832 C 49.012 102.740,48.075 102.476,47.250 102.244 C 31.318 97.767,24.458 90.637,24.892 79.008 C 25.008 75.912,25.485 73.104,26.154 71.583 C 26.235 71.400,26.514 70.725,26.775 70.083 C 28.970 64.675,34.516 59.329,40.171 57.171 C 40.489 57.049,41.012 56.845,41.333 56.717 C 44.347 55.515,49.052 54.504,53.500 54.103 C 55.473 53.925,63.206 54.165,65.917 54.489 M159.750 66.000 L 159.750 76.417 139.872 76.459 L 119.994 76.501 120.039 80.292 L 120.083 84.083 138.583 84.167 L 157.083 84.250 157.126 93.133 C 157.155 99.067,157.112 102.124,156.996 102.342 C 156.825 102.661,156.496 102.667,138.411 102.667 L 120.000 102.667 120.000 106.666 L 120.000 110.665 140.125 110.708 L 160.250 110.750 160.250 121.167 L 160.250 131.583 127.583 131.583 L 94.917 131.583 94.875 93.768 C 94.844 65.912,94.882 55.892,95.020 55.725 C 95.178 55.536,100.463 55.506,127.479 55.541 L 159.750 55.583 159.750 66.000 M231.577 55.657 C 231.729 55.903,231.691 76.876,231.538 77.028 C 231.464 77.103,226.473 77.184,220.447 77.207 L 209.492 77.250 209.498 104.132 C 209.502 122.551,209.449 131.117,209.329 131.341 C 209.082 131.803,183.943 131.860,183.766 131.398 C 183.709 131.250,183.665 119.006,183.669 104.190 L 183.675 77.250 172.728 77.207 C 164.979 77.177,161.716 77.110,161.557 76.978 C 161.247 76.720,161.223 56.010,161.533 55.700 C 161.786 55.448,231.422 55.405,231.577 55.657 M351.500 55.973 C 354.261 56.410,354.951 56.527,355.750 56.691 C 367.631 59.134,374.799 65.033,377.797 74.833 C 379.167 79.310,379.091 86.079,377.613 91.347 C 374.872 101.117,365.917 108.172,353.833 110.082 C 352.871 110.234,351.708 110.434,351.250 110.526 C 350.792 110.617,347.267 110.732,343.417 110.780 C 339.047 110.835,336.338 110.932,336.208 111.038 C 336.046 111.170,336.000 113.438,336.000 121.354 L 336.000 131.500 323.428 131.500 C 311.599 131.500,310.851 131.483,310.769 131.208 C 310.654 130.826,310.659 56.341,310.773 55.950 C 310.883 55.575,349.129 55.597,351.500 55.973 M336.125 75.929 C 335.852 76.205,335.979 92.608,336.255 92.838 C 336.639 93.156,344.995 92.956,346.583 92.590 C 351.429 91.474,353.825 88.742,353.825 84.333 C 353.825 80.125,351.836 77.546,347.646 76.320 C 346.370 75.947,336.441 75.610,336.125 75.929 " stroke="none" fill="#fafafa" fill-rule="evenodd"></path><path id="path2" d="M54.083 54.513 C 37.283 55.458,26.534 64.081,25.312 77.594 C 24.294 88.854,30.132 96.260,43.553 100.738 C 45.098 101.253,46.200 101.574,50.167 102.663 C 50.673 102.802,52.692 103.250,55.583 103.865 C 56.042 103.963,56.803 104.146,57.276 104.271 C 57.748 104.397,58.326 104.500,58.559 104.500 C 58.793 104.500,59.157 104.566,59.367 104.648 C 59.578 104.729,60.313 104.924,61.000 105.082 C 65.826 106.192,67.831 107.502,67.833 109.548 C 67.834 111.119,66.911 112.173,64.994 112.790 C 63.323 113.328,55.541 113.147,52.750 112.505 C 52.383 112.421,51.521 112.228,50.833 112.076 C 49.355 111.750,49.138 111.687,46.750 110.903 C 43.464 109.824,39.428 107.844,36.521 105.884 C 34.122 104.267,34.501 104.212,32.687 106.435 C 31.737 107.600,29.309 110.497,22.762 118.282 C 21.052 120.314,21.061 120.186,22.553 121.353 C 27.753 125.423,34.634 128.743,41.500 130.494 C 46.665 131.811,50.488 132.372,56.167 132.644 C 64.116 133.025,72.208 131.928,77.167 129.795 C 85.662 126.143,90.347 121.125,92.383 113.500 C 93.424 109.604,93.244 102.904,92.024 100.083 C 91.208 98.198,90.843 97.449,90.358 96.667 C 88.037 92.918,84.117 89.925,78.417 87.551 C 75.748 86.439,73.815 85.803,69.833 84.729 C 69.329 84.593,68.692 84.416,68.417 84.336 C 68.142 84.256,67.167 84.035,66.250 83.845 C 65.333 83.656,64.058 83.387,63.417 83.249 C 62.775 83.110,61.837 82.925,61.333 82.837 C 59.128 82.454,56.805 81.920,54.750 81.325 C 49.025 79.667,49.039 74.763,54.771 74.003 C 56.765 73.738,61.770 74.177,64.500 74.856 C 70.264 76.289,74.907 78.318,78.765 81.089 C 79.140 81.357,79.042 81.460,80.917 78.830 C 81.100 78.573,82.563 76.546,84.167 74.326 C 85.771 72.106,87.277 70.018,87.514 69.686 C 87.750 69.355,88.672 68.073,89.562 66.839 L 91.180 64.595 90.798 64.290 C 86.363 60.750,79.351 57.519,72.833 56.013 C 68.857 55.095,60.454 54.216,57.000 54.358 C 56.679 54.371,55.367 54.441,54.083 54.513 M95.208 93.542 L 95.250 131.250 127.625 131.292 L 160.000 131.334 160.000 121.168 L 160.000 111.001 139.875 110.959 L 119.750 110.917 119.706 106.625 C 119.681 104.265,119.681 102.315,119.706 102.293 C 119.730 102.272,128.075 102.215,138.250 102.168 L 156.750 102.083 156.793 93.292 L 156.836 84.500 138.460 84.497 C 128.353 84.496,119.988 84.435,119.872 84.361 C 119.709 84.257,119.671 83.318,119.705 80.238 L 119.750 76.250 139.625 76.208 L 159.500 76.165 159.500 65.999 L 159.500 55.833 127.333 55.833 L 95.166 55.833 95.208 93.542 M161.794 66.167 C 161.770 71.850,161.775 76.575,161.806 76.667 C 161.842 76.775,165.681 76.833,172.841 76.833 C 183.559 76.833,183.826 76.841,183.996 77.158 C 184.114 77.381,184.169 85.950,184.167 104.200 C 184.165 118.894,184.164 131.011,184.165 131.126 C 184.166 131.293,186.697 131.327,196.542 131.293 L 208.917 131.250 208.959 104.266 C 208.989 84.659,209.052 77.221,209.188 77.058 C 209.341 76.874,211.342 76.833,220.336 76.833 C 228.962 76.833,231.310 76.789,231.357 76.625 C 231.390 76.510,231.397 71.785,231.372 66.125 L 231.328 55.833 196.583 55.833 L 161.838 55.833 161.794 66.167 " stroke="none" fill="#2b2b2b" fill-rule="evenodd"></path><path id="path3" d="M54.333 54.321 C 53.737 54.373,55.237 54.419,57.667 54.421 C 60.498 54.423,61.545 54.384,60.583 54.313 C 58.811 54.182,55.855 54.185,54.333 54.321 M51.625 54.621 C 51.923 54.658,52.410 54.658,52.708 54.621 C 53.006 54.584,52.762 54.553,52.167 54.553 C 51.571 54.553,51.327 54.584,51.625 54.621 M62.792 54.622 C 63.181 54.657,63.819 54.657,64.208 54.622 C 64.598 54.587,64.279 54.558,63.500 54.558 C 62.721 54.558,62.402 54.587,62.792 54.622 M49.250 54.833 L 48.583 54.953 49.250 54.957 C 49.617 54.959,50.142 54.903,50.417 54.833 L 50.917 54.706 50.417 54.710 C 50.142 54.712,49.617 54.768,49.250 54.833 M65.667 54.842 C 66.079 54.915,66.754 54.970,67.167 54.964 L 67.917 54.953 67.000 54.826 C 65.683 54.644,64.625 54.657,65.667 54.842 M47.250 55.195 C 46.883 55.284,46.105 55.469,45.521 55.608 C 44.451 55.861,43.262 56.281,44.167 56.086 C 46.023 55.687,48.429 55.117,48.486 55.065 C 48.602 54.957,47.956 55.025,47.250 55.195 M69.833 55.424 C 70.887 55.640,71.900 55.813,72.083 55.808 C 72.551 55.795,68.843 55.023,68.333 55.027 C 68.104 55.029,68.779 55.207,69.833 55.424 M95.077 55.875 C 95.034 55.989,95.017 73.033,95.041 93.750 L 95.083 131.417 127.583 131.417 L 160.083 131.417 160.083 121.167 L 160.083 110.917 139.970 110.874 C 122.170 110.837,119.848 110.803,119.779 110.579 C 119.725 110.404,119.709 110.417,119.728 110.622 C 119.753 110.902,120.767 110.919,139.877 110.959 L 160.000 111.001 160.000 121.168 L 160.000 131.334 127.625 131.292 L 95.250 131.250 95.208 93.542 L 95.166 55.833 127.333 55.833 L 159.500 55.833 159.500 65.999 L 159.500 76.165 139.625 76.208 C 119.881 76.250,119.750 76.252,119.734 76.583 C 119.721 76.836,119.734 76.846,119.787 76.626 C 119.852 76.351,120.978 76.332,139.720 76.292 L 159.583 76.250 159.583 66.000 L 159.583 55.750 127.370 55.708 C 101.687 55.674,95.140 55.708,95.077 55.875 M161.762 55.813 C 161.639 56.013,161.631 76.642,161.755 76.841 C 161.815 76.939,166.066 77.000,172.843 77.000 C 178.888 77.000,183.852 77.019,183.874 77.042 C 183.896 77.065,183.953 89.158,184.000 103.917 L 184.085 130.750 184.126 104.114 C 184.154 85.996,184.111 77.375,183.994 77.156 C 183.826 76.842,183.527 76.833,172.841 76.833 C 165.681 76.833,161.842 76.775,161.806 76.667 C 161.775 76.575,161.770 71.850,161.794 66.167 L 161.838 55.833 196.585 55.833 L 231.331 55.833 231.376 65.958 L 231.421 76.083 231.419 65.917 L 231.417 55.750 196.635 55.708 C 176.625 55.684,161.815 55.728,161.762 55.813 M72.750 56.000 C 72.933 56.079,73.233 56.143,73.417 56.143 L 73.750 56.143 73.417 56.000 C 73.233 55.921,72.933 55.857,72.750 55.857 L 72.417 55.857 72.750 56.000 M42.750 56.423 C 42.077 56.731,42.479 56.731,43.189 56.423 C 43.498 56.289,43.637 56.183,43.500 56.187 C 43.362 56.191,43.025 56.297,42.750 56.423 M74.500 56.417 C 74.821 56.540,75.233 56.642,75.417 56.643 C 75.600 56.644,75.412 56.538,75.000 56.408 C 74.058 56.111,73.722 56.117,74.500 56.417 M75.833 56.737 C 75.833 56.838,77.558 57.331,77.635 57.254 C 77.671 57.218,77.304 57.072,76.820 56.928 C 75.847 56.639,75.833 56.637,75.833 56.737 M39.833 57.583 C 39.604 57.714,39.492 57.822,39.583 57.822 C 39.675 57.822,39.938 57.714,40.167 57.583 C 40.396 57.452,40.508 57.345,40.417 57.345 C 40.325 57.345,40.063 57.452,39.833 57.583 M78.311 57.590 C 78.619 57.724,78.957 57.830,79.061 57.827 C 79.165 57.823,78.998 57.711,78.689 57.577 C 78.381 57.443,78.043 57.336,77.939 57.340 C 77.835 57.343,78.002 57.456,78.311 57.590 M38.833 57.996 C 38.696 58.075,37.950 58.499,37.175 58.939 C 34.989 60.179,30.792 63.514,31.069 63.791 C 31.114 63.836,31.698 63.344,32.367 62.697 C 34.211 60.914,36.502 59.306,38.542 58.364 C 38.977 58.163,39.333 57.961,39.333 57.916 C 39.333 57.797,39.122 57.831,38.833 57.996 M79.344 57.887 C 79.485 58.047,81.876 59.012,81.950 58.939 C 81.985 58.903,81.505 58.669,80.882 58.419 C 79.366 57.808,79.235 57.763,79.344 57.887 M82.167 59.064 C 82.167 59.099,82.598 59.335,83.125 59.589 C 83.652 59.842,84.140 60.080,84.208 60.118 C 84.277 60.156,84.333 60.144,84.333 60.092 C 84.333 60.012,82.376 59.000,82.220 59.000 C 82.191 59.000,82.167 59.029,82.167 59.064 M85.721 60.872 C 86.025 61.083,90.048 63.757,90.833 64.269 L 91.250 64.541 90.833 64.180 C 90.290 63.709,86.372 61.102,85.833 60.853 C 85.483 60.691,85.465 60.694,85.721 60.872 M30.010 65.005 C 29.550 65.557,29.095 66.176,28.999 66.380 C 28.850 66.695,28.868 66.689,29.120 66.338 C 29.283 66.111,29.776 65.492,30.214 64.963 C 30.653 64.433,30.975 64.000,30.929 64.000 C 30.883 64.000,30.469 64.452,30.010 65.005 M90.135 66.042 C 89.460 66.947,88.933 67.765,89.196 67.500 C 89.536 67.158,90.714 65.500,90.617 65.500 C 90.575 65.500,90.358 65.744,90.135 66.042 M28.462 67.208 C 28.097 67.770,27.770 68.440,27.953 68.250 C 28.187 68.007,28.874 66.833,28.783 66.833 C 28.740 66.833,28.596 67.002,28.462 67.208 M88.218 68.708 C 87.436 69.751,87.148 70.224,87.532 69.833 C 87.873 69.486,89.046 67.833,88.951 67.833 C 88.908 67.833,88.578 68.227,88.218 68.708 M26.857 70.352 C 26.661 70.824,26.503 71.295,26.507 71.397 C 26.511 71.500,26.698 71.140,26.924 70.597 C 27.149 70.055,27.306 69.584,27.274 69.551 C 27.241 69.519,27.054 69.879,26.857 70.352 M86.534 71.042 C 84.402 73.939,82.822 76.210,83.198 75.833 C 83.544 75.487,87.354 70.167,87.256 70.167 C 87.213 70.167,86.888 70.560,86.534 71.042 M25.871 73.241 C 25.759 73.661,25.672 74.135,25.678 74.294 C 25.684 74.453,25.798 74.176,25.932 73.679 C 26.065 73.182,26.152 72.707,26.125 72.625 C 26.098 72.543,25.983 72.820,25.871 73.241 M54.500 74.026 C 52.773 74.266,50.667 75.551,50.667 76.364 C 50.667 76.466,50.837 76.297,51.045 75.988 C 52.275 74.163,56.642 73.561,61.731 74.514 C 62.179 74.598,62.704 74.659,62.898 74.649 C 63.654 74.610,60.780 74.191,58.566 74.017 C 55.977 73.813,56.022 73.813,54.500 74.026 M25.440 75.035 C 25.384 75.245,25.346 75.642,25.355 75.917 C 25.367 76.262,25.415 76.160,25.511 75.589 C 25.657 74.718,25.614 74.386,25.440 75.035 M64.829 75.100 C 65.697 75.322,66.473 75.481,66.553 75.454 C 66.738 75.393,63.837 74.657,63.500 74.680 C 63.362 74.690,63.960 74.879,64.829 75.100 M67.917 75.925 C 68.558 76.144,69.152 76.302,69.237 76.277 C 69.406 76.226,67.171 75.492,66.912 75.513 C 66.823 75.521,67.275 75.706,67.917 75.925 M25.109 77.625 C 24.980 78.990,24.994 81.091,25.142 82.333 C 25.202 82.843,25.250 81.750,25.250 79.875 C 25.250 76.060,25.253 76.098,25.109 77.625 M231.333 76.667 C 231.333 76.776,227.562 76.833,220.354 76.833 C 211.344 76.833,209.341 76.874,209.188 77.058 C 209.052 77.221,208.989 84.659,208.959 104.266 L 208.917 131.250 196.594 131.293 C 186.846 131.327,184.243 131.292,184.138 131.126 C 184.043 130.976,184.004 130.999,184.003 131.209 C 184.000 131.486,184.674 131.500,196.542 131.459 L 209.083 131.417 209.167 104.250 L 209.250 77.083 220.319 77.000 C 228.967 76.935,231.404 76.871,231.458 76.708 C 231.497 76.594,231.484 76.500,231.431 76.500 C 231.377 76.500,231.333 76.575,231.333 76.667 M50.548 77.417 C 50.549 77.875,50.581 78.043,50.620 77.789 C 50.658 77.536,50.657 77.161,50.617 76.956 C 50.578 76.751,50.546 76.958,50.548 77.417 M70.833 76.951 C 73.318 78.070,76.329 79.641,77.583 80.473 C 78.559 81.120,79.148 81.415,79.268 81.316 C 79.553 81.083,80.921 79.093,80.704 79.227 C 80.599 79.292,80.198 79.794,79.814 80.342 C 79.148 81.291,79.098 81.327,78.765 81.089 C 77.019 79.835,73.699 78.013,71.236 76.958 C 70.391 76.597,70.032 76.590,70.833 76.951 M81.724 77.706 C 80.907 78.818,80.749 79.072,80.948 78.949 C 81.142 78.829,82.552 76.833,82.443 76.833 C 82.400 76.833,82.076 77.226,81.724 77.706 M119.736 80.333 C 119.736 82.121,119.761 82.852,119.791 81.958 C 119.821 81.065,119.821 79.602,119.791 78.708 C 119.761 77.815,119.736 78.546,119.736 80.333 M50.667 78.544 C 50.667 79.328,52.905 80.781,55.083 81.412 C 55.633 81.571,56.301 81.768,56.567 81.851 C 56.832 81.933,57.170 81.995,57.317 81.988 C 57.463 81.982,57.208 81.866,56.750 81.730 C 52.820 80.567,51.585 79.940,50.958 78.790 C 50.776 78.456,50.667 78.364,50.667 78.544 M58.583 82.265 C 61.003 82.817,61.301 82.872,61.502 82.805 C 61.619 82.766,60.860 82.569,59.813 82.367 C 57.727 81.964,57.003 81.904,58.583 82.265 M63.250 83.180 C 63.617 83.271,64.188 83.419,64.519 83.507 C 64.851 83.595,65.263 83.662,65.436 83.656 C 65.861 83.641,64.269 83.226,63.333 83.108 L 62.583 83.013 63.250 83.180 M25.345 83.764 C 25.351 84.031,25.423 84.400,25.504 84.583 C 25.603 84.806,25.619 84.667,25.553 84.167 C 25.436 83.283,25.328 83.075,25.345 83.764 M66.167 83.833 C 66.737 84.016,67.175 84.016,66.750 83.833 C 66.567 83.755,66.267 83.692,66.083 83.695 C 65.815 83.699,65.832 83.726,66.167 83.833 M119.672 84.038 C 119.663 84.509,119.687 84.510,138.667 84.462 L 156.917 84.415 138.467 84.374 C 121.096 84.336,120.007 84.316,119.847 84.042 C 119.687 83.767,119.677 83.767,119.672 84.038 M67.833 84.183 C 68.154 84.278,68.642 84.387,68.917 84.424 C 69.362 84.483,69.353 84.472,68.833 84.317 C 68.512 84.222,68.025 84.113,67.750 84.076 C 67.305 84.017,67.314 84.028,67.833 84.183 M69.525 84.574 C 69.670 84.728,71.516 85.207,71.608 85.115 C 71.647 85.075,71.320 84.955,70.881 84.847 C 70.442 84.740,69.933 84.608,69.750 84.555 C 69.567 84.502,69.466 84.511,69.525 84.574 M25.690 85.250 C 25.692 85.598,26.134 86.875,26.151 86.583 C 26.157 86.492,26.055 86.079,25.925 85.667 C 25.795 85.254,25.690 85.067,25.690 85.250 M72.333 85.417 C 73.123 85.721,73.559 85.715,72.856 85.410 C 72.547 85.276,72.172 85.172,72.023 85.179 C 71.873 85.186,72.012 85.293,72.333 85.417 M75.500 86.422 C 76.096 86.645,76.657 86.804,76.748 86.776 C 76.924 86.720,74.885 85.994,74.593 86.009 C 74.496 86.013,74.904 86.200,75.500 86.422 M26.229 87.000 C 26.375 87.541,26.879 88.677,26.944 88.612 C 26.982 88.574,26.821 88.140,26.587 87.647 C 26.353 87.153,26.192 86.862,26.229 87.000 M77.000 86.894 C 77.000 86.927,77.694 87.240,78.542 87.590 C 79.390 87.940,80.179 88.298,80.296 88.387 C 80.412 88.475,80.546 88.509,80.593 88.462 C 80.687 88.369,80.209 88.131,78.358 87.350 C 77.110 86.824,77.000 86.787,77.000 86.894 M27.250 89.333 C 27.392 89.608,27.546 89.833,27.592 89.833 C 27.638 89.833,27.559 89.608,27.417 89.333 C 27.274 89.058,27.121 88.833,27.075 88.833 C 27.029 88.833,27.108 89.058,27.250 89.333 M81.833 89.075 C 81.833 89.121,82.058 89.274,82.333 89.417 C 82.608 89.559,82.833 89.638,82.833 89.592 C 82.833 89.546,82.608 89.392,82.333 89.250 C 82.058 89.108,81.833 89.029,81.833 89.075 M83.000 89.729 C 83.000 89.768,83.267 89.958,83.593 90.150 C 83.920 90.343,84.140 90.425,84.083 90.332 C 83.971 90.152,83.000 89.611,83.000 89.729 M28.352 91.125 C 29.493 92.817,34.667 97.443,34.667 96.773 C 34.667 96.728,34.142 96.343,33.501 95.917 C 31.980 94.906,29.874 92.915,28.805 91.478 C 27.827 90.163,27.564 89.958,28.352 91.125 M84.333 90.563 C 84.333 90.604,84.834 90.995,85.446 91.431 C 87.011 92.548,88.939 94.528,89.980 96.089 C 90.947 97.537,91.160 97.807,90.831 97.167 C 89.773 95.106,84.333 89.577,84.333 90.563 M35.667 97.416 C 35.667 97.527,38.687 99.035,38.761 98.961 C 38.793 98.929,38.111 98.550,37.243 98.119 C 36.376 97.688,35.667 97.372,35.667 97.416 M91.008 97.792 C 91.019 97.977,91.817 99.438,91.826 99.290 C 91.835 99.127,91.151 97.667,91.065 97.667 C 91.029 97.667,91.003 97.723,91.008 97.792 M39.000 99.079 C 39.000 99.211,40.208 99.681,40.303 99.586 C 40.350 99.538,40.348 99.500,40.298 99.500 C 40.248 99.500,39.936 99.386,39.604 99.248 C 39.272 99.109,39.000 99.033,39.000 99.079 M91.840 99.698 C 91.836 99.854,91.908 100.027,92.000 100.083 C 92.092 100.140,92.175 100.351,92.186 100.552 C 92.200 100.818,92.225 100.841,92.280 100.635 C 92.321 100.480,92.240 100.142,92.100 99.885 C 91.931 99.572,91.844 99.510,91.840 99.698 M43.681 100.900 C 43.796 101.012,45.875 101.668,46.069 101.653 C 46.169 101.646,45.725 101.461,45.083 101.242 C 43.970 100.861,43.529 100.754,43.681 100.900 M92.435 101.417 C 92.572 102.029,92.668 102.163,92.664 101.736 C 92.663 101.560,92.585 101.304,92.492 101.167 C 92.369 100.984,92.353 101.052,92.435 101.417 M46.349 101.738 C 46.494 101.883,50.200 102.855,50.285 102.770 C 50.333 102.722,50.158 102.633,49.895 102.573 C 49.632 102.512,48.764 102.283,47.967 102.064 C 46.512 101.665,46.217 101.605,46.349 101.738 M156.776 101.909 C 156.688 102.139,154.723 102.167,138.436 102.167 C 119.802 102.167,119.663 102.170,119.672 102.643 C 119.676 102.886,119.696 102.884,119.847 102.625 C 120.007 102.350,121.068 102.333,138.407 102.333 C 157.536 102.333,157.555 102.333,156.941 101.719 C 156.905 101.682,156.830 101.768,156.776 101.909 M51.333 103.090 C 52.526 103.388,52.999 103.373,51.917 103.072 C 51.458 102.944,50.933 102.845,50.750 102.851 C 50.567 102.857,50.829 102.965,51.333 103.090 M92.926 103.917 C 92.962 104.467,93.028 105.442,93.072 106.083 C 93.142 107.113,92.967 110.363,92.752 112.000 C 92.710 112.321,92.789 112.133,92.928 111.583 C 93.224 110.406,93.299 104.229,93.028 103.417 C 92.888 102.999,92.871 103.080,92.926 103.917 M119.737 106.667 C 119.737 108.638,119.762 109.444,119.791 108.458 C 119.821 107.473,119.821 105.860,119.791 104.875 C 119.762 103.890,119.737 104.696,119.737 106.667 M53.250 103.512 C 53.525 103.595,54.500 103.817,55.417 104.007 C 56.333 104.196,57.271 104.395,57.500 104.449 C 57.729 104.503,57.871 104.497,57.815 104.436 C 57.760 104.375,57.197 104.215,56.565 104.080 C 55.934 103.944,54.892 103.721,54.250 103.584 C 52.979 103.311,52.455 103.273,53.250 103.512 M33.680 105.045 L 33.111 105.750 33.798 105.098 C 34.414 104.515,34.516 104.471,34.784 104.682 C 35.057 104.896,35.063 104.891,34.855 104.625 C 34.515 104.192,34.310 104.266,33.680 105.045 M59.000 104.746 C 59.413 104.883,59.938 104.987,60.167 104.978 C 60.465 104.966,60.393 104.917,59.917 104.806 C 58.670 104.516,58.218 104.486,59.000 104.746 M35.167 104.915 C 35.167 105.064,39.009 107.547,39.099 107.456 C 39.145 107.411,38.822 107.165,38.383 106.910 C 37.943 106.654,37.040 106.080,36.375 105.634 C 35.710 105.188,35.167 104.865,35.167 104.915 M60.833 105.159 C 60.971 105.252,61.227 105.329,61.403 105.331 C 61.829 105.334,61.696 105.239,61.083 105.102 C 60.718 105.020,60.651 105.036,60.833 105.159 M62.083 105.500 C 62.582 105.714,62.998 105.714,62.667 105.500 C 62.529 105.411,62.267 105.343,62.083 105.348 L 61.750 105.357 62.083 105.500 M63.783 105.999 C 64.260 106.169,65.032 106.499,65.500 106.734 C 65.967 106.969,66.313 107.101,66.267 107.028 C 66.083 106.729,63.639 105.659,63.188 105.679 C 63.039 105.686,63.307 105.830,63.783 105.999 M30.482 108.875 C 29.078 110.548,26.765 113.300,25.343 114.992 C 23.921 116.683,22.845 118.012,22.953 117.946 C 23.061 117.879,24.635 116.050,26.450 113.881 C 28.265 111.712,30.420 109.146,31.239 108.177 C 32.058 107.209,32.839 106.285,32.973 106.125 C 33.108 105.965,33.177 105.833,33.127 105.833 C 33.076 105.833,31.886 107.202,30.482 108.875 M66.855 107.584 C 68.250 109.175,67.879 111.230,66.022 112.200 C 65.531 112.457,65.235 112.667,65.365 112.667 C 67.526 112.667,68.607 109.006,66.891 107.501 L 66.417 107.085 66.855 107.584 M39.333 107.578 C 39.333 107.624,39.708 107.851,40.167 108.083 C 40.625 108.316,41.000 108.468,41.000 108.422 C 41.000 108.376,40.625 108.149,40.167 107.917 C 39.708 107.684,39.333 107.532,39.333 107.578 M42.833 109.417 C 43.246 109.638,43.696 109.821,43.833 109.824 C 43.971 109.827,43.682 109.643,43.192 109.415 C 42.062 108.889,41.850 108.890,42.833 109.417 M44.230 109.952 C 44.381 110.103,45.862 110.669,46.083 110.659 C 46.242 110.653,44.367 109.833,44.194 109.833 C 44.148 109.833,44.165 109.887,44.230 109.952 M46.333 110.736 C 46.333 110.797,46.908 110.988,49.209 111.695 C 49.553 111.801,49.874 111.848,49.922 111.800 C 49.970 111.752,49.651 111.618,49.213 111.501 C 48.775 111.385,47.973 111.150,47.431 110.978 C 46.359 110.640,46.333 110.634,46.333 110.736 M50.917 112.095 C 51.375 112.223,51.900 112.322,52.083 112.316 C 52.267 112.310,52.004 112.202,51.500 112.076 C 50.307 111.779,49.834 111.794,50.917 112.095 M52.750 112.492 C 53.067 112.636,54.299 112.735,54.153 112.605 C 54.115 112.571,53.708 112.497,53.250 112.441 C 52.689 112.373,52.526 112.389,52.750 112.492 M55.083 112.841 C 55.542 112.912,56.179 112.967,56.500 112.963 C 56.972 112.957,56.924 112.931,56.250 112.826 C 55.792 112.754,55.154 112.699,54.833 112.704 C 54.361 112.710,54.409 112.736,55.083 112.841 M64.083 112.833 C 63.630 112.949,63.622 112.961,64.000 112.969 C 64.229 112.973,64.567 112.912,64.750 112.833 C 65.161 112.657,64.777 112.657,64.083 112.833 M92.429 113.262 C 92.367 113.506,92.349 113.738,92.389 113.777 C 92.428 113.817,92.510 113.649,92.571 113.405 C 92.633 113.161,92.651 112.929,92.611 112.889 C 92.572 112.850,92.490 113.018,92.429 113.262 M58.958 113.124 C 59.806 113.154,61.194 113.154,62.042 113.124 C 62.890 113.094,62.196 113.069,60.500 113.069 C 58.804 113.069,58.110 113.094,58.958 113.124 M92.130 114.333 C 92.073 114.563,91.979 114.938,91.921 115.167 C 91.855 115.426,91.915 115.366,92.080 115.009 C 92.226 114.693,92.320 114.318,92.289 114.175 C 92.254 114.013,92.195 114.072,92.130 114.333 M91.491 116.292 C 91.380 116.635,91.239 116.992,91.178 117.083 C 90.978 117.380,90.671 118.167,90.756 118.167 C 90.848 118.167,91.566 116.619,91.742 116.042 C 91.804 115.835,91.819 115.667,91.774 115.667 C 91.729 115.667,91.602 115.948,91.491 116.292 M21.930 119.039 C 21.510 119.518,21.167 120.036,21.167 120.189 C 21.167 120.592,27.392 125.167,27.941 125.167 C 28.003 125.167,27.086 124.521,25.905 123.733 C 23.267 121.971,21.360 120.491,21.345 120.193 C 21.338 120.070,21.680 119.564,22.104 119.068 C 22.527 118.572,22.833 118.167,22.783 118.167 C 22.733 118.167,22.349 118.559,21.930 119.039 M90.201 119.009 C 90.004 119.378,89.916 119.635,90.006 119.580 C 90.209 119.454,90.715 118.493,90.625 118.403 C 90.589 118.367,90.398 118.640,90.201 119.009 M89.564 120.042 C 89.496 120.156,89.323 120.435,89.179 120.660 C 89.016 120.915,88.996 121.022,89.126 120.941 C 89.342 120.808,89.903 119.833,89.764 119.833 C 89.721 119.833,89.631 119.927,89.564 120.042 M88.063 122.125 C 86.485 123.989,84.660 125.622,82.708 126.915 C 82.044 127.355,81.500 127.746,81.500 127.784 C 81.500 127.959,83.713 126.440,85.105 125.310 C 86.287 124.349,89.251 121.167,88.963 121.167 C 88.914 121.167,88.509 121.598,88.063 122.125 M28.167 125.241 C 28.167 125.287,28.392 125.441,28.667 125.583 C 28.942 125.726,29.167 125.804,29.167 125.759 C 29.167 125.713,28.942 125.559,28.667 125.417 C 28.392 125.274,28.167 125.196,28.167 125.241 M29.500 125.997 C 30.238 126.554,36.267 129.184,36.741 129.156 C 36.837 129.151,36.266 128.893,35.471 128.584 C 33.984 128.005,33.218 127.665,30.917 126.563 C 29.377 125.825,29.155 125.736,29.500 125.997 M79.917 128.515 C 79.275 128.868,78.808 129.158,78.880 129.161 C 79.018 129.167,80.749 128.295,81.167 128.009 C 81.731 127.623,81.007 127.917,79.917 128.515 M37.167 129.323 C 37.599 129.576,41.513 130.710,41.612 130.611 C 41.664 130.559,41.491 130.469,41.228 130.411 C 40.965 130.353,39.943 130.049,38.957 129.736 C 37.134 129.157,36.719 129.061,37.167 129.323 M77.000 129.843 C 76.225 130.252,76.568 130.243,77.417 129.833 C 77.783 129.656,77.971 129.517,77.833 129.524 C 77.696 129.531,77.321 129.674,77.000 129.843 M74.667 130.662 C 73.887 130.923,73.321 131.143,73.408 131.151 C 73.637 131.173,76.333 130.337,76.333 130.245 C 76.333 130.119,76.159 130.163,74.667 130.662 M42.583 130.921 C 43.042 131.048,43.529 131.147,43.667 131.142 C 44.067 131.126,42.627 130.692,42.167 130.691 C 41.926 130.690,42.102 130.787,42.583 130.921 M44.014 131.232 C 44.140 131.352,47.623 132.000,48.024 131.979 C 48.258 131.967,48.147 131.907,47.750 131.832 C 43.938 131.112,43.877 131.102,44.014 131.232 M71.781 131.421 C 71.248 131.538,70.770 131.675,70.719 131.726 C 70.585 131.859,71.797 131.652,72.583 131.407 C 73.435 131.142,73.030 131.149,71.781 131.421 M69.708 131.948 C 69.869 131.990,70.131 131.990,70.292 131.948 C 70.452 131.906,70.321 131.872,70.000 131.872 C 69.679 131.872,69.548 131.906,69.708 131.948 M49.083 132.158 C 49.597 132.298,50.777 132.382,50.653 132.271 C 50.615 132.237,50.133 132.167,49.583 132.115 C 48.926 132.054,48.755 132.069,49.083 132.158 M68.167 132.167 C 67.601 132.286,67.599 132.290,68.083 132.295 C 68.358 132.298,68.771 132.240,69.000 132.167 C 69.546 131.992,68.998 131.992,68.167 132.167 M51.181 132.393 C 51.219 132.426,51.850 132.493,52.583 132.541 C 53.340 132.591,53.700 132.573,53.417 132.501 C 52.911 132.371,51.052 132.282,51.181 132.393 M65.598 132.458 C 65.529 132.527,64.185 132.630,62.611 132.686 L 59.750 132.789 62.667 132.735 C 64.271 132.705,65.996 132.613,66.500 132.530 L 67.417 132.380 66.569 132.357 C 66.103 132.344,65.666 132.390,65.598 132.458 M55.049 132.790 C 55.671 132.823,56.646 132.822,57.215 132.790 C 57.784 132.757,57.275 132.731,56.083 132.731 C 54.892 132.732,54.426 132.758,55.049 132.790 " stroke="none" fill="#696969" fill-rule="evenodd"></path><path id="path4" d="M54.211 54.286 C 54.464 54.325,54.839 54.324,55.044 54.284 C 55.249 54.244,55.042 54.213,54.583 54.214 C 54.125 54.216,53.957 54.248,54.211 54.286 M59.958 54.287 C 60.256 54.324,60.744 54.324,61.042 54.287 C 61.340 54.250,61.096 54.220,60.500 54.220 C 59.904 54.220,59.660 54.250,59.958 54.287 M52.292 54.451 C 52.498 54.491,52.835 54.491,53.042 54.451 C 53.248 54.411,53.079 54.379,52.667 54.379 C 52.254 54.379,52.085 54.411,52.292 54.451 M62.375 54.453 C 62.627 54.491,63.040 54.491,63.292 54.453 C 63.544 54.415,63.337 54.383,62.833 54.383 C 62.329 54.383,62.123 54.415,62.375 54.453 M65.042 54.615 C 65.202 54.657,65.465 54.657,65.625 54.615 C 65.785 54.573,65.654 54.539,65.333 54.539 C 65.012 54.539,64.881 54.573,65.042 54.615 M161.577 55.875 C 161.533 55.990,161.516 60.658,161.540 66.250 L 161.583 76.417 161.667 66.042 C 161.713 60.335,161.729 55.667,161.703 55.667 C 161.677 55.667,161.620 55.760,161.577 55.875 M231.500 66.217 L 231.583 76.750 231.626 66.343 C 231.650 60.619,231.612 55.879,231.543 55.810 C 231.473 55.740,231.454 60.423,231.500 66.217 M55.875 74.119 C 56.127 74.158,56.540 74.158,56.792 74.119 C 57.044 74.081,56.837 74.050,56.333 74.050 C 55.829 74.050,55.623 74.081,55.875 74.119 M58.708 74.282 C 58.869 74.323,59.131 74.323,59.292 74.282 C 59.452 74.240,59.321 74.205,59.000 74.205 C 58.679 74.205,58.548 74.240,58.708 74.282 M183.915 104.333 C 183.915 119.229,183.934 125.323,183.958 117.875 C 183.982 110.427,183.982 98.240,183.958 90.792 C 183.934 83.344,183.915 89.438,183.915 104.333 M209.248 104.417 C 209.248 119.175,209.268 125.188,209.292 117.779 C 209.316 110.369,209.316 98.294,209.292 90.945 C 209.268 83.596,209.248 89.658,209.248 104.417 M129.125 84.292 C 134.190 84.316,142.477 84.316,147.542 84.292 C 152.606 84.267,148.462 84.247,138.333 84.247 C 128.204 84.247,124.060 84.267,129.125 84.292 M156.911 93.333 C 156.911 97.962,156.932 99.856,156.958 97.542 C 156.984 95.227,156.984 91.440,156.958 89.125 C 156.932 86.810,156.911 88.704,156.911 93.333 M30.333 93.583 C 30.924 94.179,31.445 94.667,31.490 94.667 C 31.536 94.667,31.091 94.179,30.500 93.583 C 29.909 92.987,29.389 92.500,29.343 92.500 C 29.297 92.500,29.743 92.987,30.333 93.583 M119.942 102.458 C 119.872 102.571,132.846 102.571,150.167 102.456 C 153.787 102.432,148.486 102.395,138.385 102.373 C 128.284 102.351,119.985 102.390,119.942 102.458 M93.205 105.500 C 93.205 105.821,93.240 105.952,93.282 105.792 C 93.323 105.631,93.323 105.369,93.282 105.208 C 93.240 105.048,93.205 105.179,93.205 105.500 M66.333 107.219 C 66.333 107.248,66.577 107.491,66.875 107.760 L 67.417 108.250 66.927 107.708 C 66.471 107.203,66.333 107.090,66.333 107.219 M93.209 108.917 C 93.211 109.283,93.245 109.414,93.285 109.206 C 93.324 108.999,93.323 108.699,93.281 108.540 C 93.239 108.380,93.207 108.550,93.209 108.917 M54.375 112.615 C 54.535 112.657,54.798 112.657,54.958 112.615 C 55.119 112.573,54.987 112.539,54.667 112.539 C 54.346 112.539,54.215 112.573,54.375 112.615 M57.208 112.948 C 57.369 112.990,57.631 112.990,57.792 112.948 C 57.952 112.906,57.821 112.872,57.500 112.872 C 57.179 112.872,57.048 112.906,57.208 112.948 M128.000 131.500 L 95.917 131.585 127.948 131.626 C 149.168 131.653,160.015 131.610,160.083 131.500 C 160.140 131.408,160.163 131.352,160.135 131.374 C 160.107 131.397,145.646 131.453,128.000 131.500 M70.750 131.833 C 70.540 131.924,70.509 131.977,70.667 131.977 C 70.804 131.977,71.067 131.912,71.250 131.833 C 71.460 131.743,71.491 131.690,71.333 131.690 C 71.196 131.690,70.933 131.755,70.750 131.833 M52.208 132.615 C 52.369 132.657,52.631 132.657,52.792 132.615 C 52.952 132.573,52.821 132.539,52.500 132.539 C 52.179 132.539,52.048 132.573,52.208 132.615 M58.217 132.958 C 59.023 132.988,60.298 132.988,61.050 132.957 C 61.802 132.926,61.142 132.901,59.583 132.902 C 58.025 132.902,57.410 132.927,58.217 132.958 " stroke="none" fill="#959595" fill-rule="evenodd"></path></g></svg>