<svg width="493" height="113" viewBox="0 0 493 113" fill="none" xmlns="http://www.w3.org/2000/svg">
<path d="M3.92206 7.84413C6.08816 7.84413 7.84413 6.08816 7.84413 3.92206C7.84413 1.75597 6.08816 0 3.92206 0C1.75597 0 0 1.75597 0 3.92206C0 6.08816 1.75597 7.84413 3.92206 7.84413Z" fill="white"/>
<path d="M3.92206 19.4633C6.08816 19.4633 7.84413 17.7073 7.84413 15.5412C7.84413 13.3751 6.08816 11.6191 3.92206 11.6191C1.75597 11.6191 0 13.3751 0 15.5412C0 17.7073 1.75597 19.4633 3.92206 19.4633Z" fill="white"/>
<path d="M3.92206 31.0805C6.08816 31.0805 7.84413 29.3245 7.84413 27.1584C7.84413 24.9923 6.08816 23.2363 3.92206 23.2363C1.75597 23.2363 0 24.9923 0 27.1584C0 29.3245 1.75597 31.0805 3.92206 31.0805Z" fill="white"/>
<path d="M3.92206 42.6996C6.08816 42.6996 7.84413 40.9436 7.84413 38.7775C7.84413 36.6114 6.08816 34.8555 3.92206 34.8555C1.75597 34.8555 0 36.6114 0 38.7775C0 40.9436 1.75597 42.6996 3.92206 42.6996Z" fill="white"/>
<path d="M3.92206 54.3305C6.08816 54.3305 7.84413 52.5745 7.84413 50.4084C7.84413 48.2423 6.08816 46.4863 3.92206 46.4863C1.75597 46.4863 0 48.2423 0 50.4084C0 52.5745 1.75597 54.3305 3.92206 54.3305Z" fill="white"/>
<path d="M9.17206 13.6469C11.3382 13.6469 13.0941 11.8909 13.0941 9.7248C13.0941 7.5587 11.3382 5.80273 9.17206 5.80273C7.00597 5.80273 5.25 7.5587 5.25 9.7248C5.25 11.8909 7.00597 13.6469 9.17206 13.6469Z" fill="white"/>
<path d="M9.17206 36.8969C11.3382 36.8969 13.0941 35.1409 13.0941 32.9748C13.0941 30.8087 11.3382 29.0527 9.17206 29.0527C7.00597 29.0527 5.25 30.8087 5.25 32.9748C5.25 35.1409 7.00597 36.8969 9.17206 36.8969Z" fill="white"/>
<path d="M9.17206 48.516C11.3382 48.516 13.0941 46.76 13.0941 44.5939C13.0941 42.4278 11.3382 40.6719 9.17206 40.6719C7.00597 40.6719 5.25 42.4278 5.25 44.5939C5.25 46.76 7.00597 48.516 9.17206 48.516Z" fill="white"/>
<path d="M9.17206 60.1332C11.3382 60.1332 13.0941 58.3772 13.0941 56.2111C13.0941 54.045 11.3382 52.2891 9.17206 52.2891C7.00597 52.2891 5.25 54.045 5.25 56.2111C5.25 58.3772 7.00597 60.1332 9.17206 60.1332Z" fill="white"/>
<path d="M9.17206 106.633C11.3382 106.633 13.0941 104.877 13.0941 102.711C13.0941 100.545 11.3382 98.7891 9.17206 98.7891C7.00597 98.7891 5.25 100.545 5.25 102.711C5.25 104.877 7.00597 106.633 9.17206 106.633Z" fill="white"/>
<path d="M14.4216 7.84413C16.5877 7.84413 18.3436 6.08816 18.3436 3.92206C18.3436 1.75597 16.5877 0 14.4216 0C12.2555 0 10.4995 1.75597 10.4995 3.92206C10.4995 6.08816 12.2555 7.84413 14.4216 7.84413Z" fill="white"/>
<path d="M14.4216 42.6996C16.5877 42.6996 18.3436 40.9436 18.3436 38.7775C18.3436 36.6114 16.5877 34.8555 14.4216 34.8555C12.2555 34.8555 10.4995 36.6114 10.4995 38.7775C10.4995 40.9436 12.2555 42.6996 14.4216 42.6996Z" fill="white"/>
<path d="M14.4216 54.3305C16.5877 54.3305 18.3436 52.5745 18.3436 50.4084C18.3436 48.2423 16.5877 46.4863 14.4216 46.4863C12.2555 46.4863 10.4995 48.2423 10.4995 50.4084C10.4995 52.5745 12.2555 54.3305 14.4216 54.3305Z" fill="white"/>
<path d="M14.4216 65.9496C16.5877 65.9496 18.3436 64.1936 18.3436 62.0275C18.3436 59.8614 16.5877 58.1055 14.4216 58.1055C12.2555 58.1055 10.4995 59.8614 10.4995 62.0275C10.4995 64.1936 12.2555 65.9496 14.4216 65.9496Z" fill="white"/>
<path d="M19.6838 25.2777C21.8499 25.2777 23.6058 23.5218 23.6058 21.3557C23.6058 19.1896 21.8499 17.4336 19.6838 17.4336C17.5177 17.4336 15.7617 19.1896 15.7617 21.3557C15.7617 23.5218 17.5177 25.2777 19.6838 25.2777Z" fill="white"/>
<path d="M19.6838 48.5141C21.8499 48.5141 23.6058 46.7581 23.6058 44.592C23.6058 42.4259 21.8499 40.6699 19.6838 40.6699C17.5177 40.6699 15.7617 42.4259 15.7617 44.592C15.7617 46.7581 17.5177 48.5141 19.6838 48.5141Z" fill="white"/>
<path d="M19.6838 60.1332C21.8499 60.1332 23.6058 58.3772 23.6058 56.2111C23.6058 54.045 21.8499 52.2891 19.6838 52.2891C17.5177 52.2891 15.7617 54.045 15.7617 56.2111C15.7617 58.3772 17.5177 60.1332 19.6838 60.1332Z" fill="white"/>
<path d="M19.6838 71.764C21.8499 71.764 23.6058 70.0081 23.6058 67.842C23.6058 65.6759 21.8499 63.9199 19.6838 63.9199C17.5177 63.9199 15.7617 65.6759 15.7617 67.842C15.7617 70.0081 17.5177 71.764 19.6838 71.764Z" fill="white"/>
<path d="M19.6838 106.633C21.8499 106.633 23.6058 104.877 23.6058 102.711C23.6058 100.545 21.8499 98.7891 19.6838 98.7891C17.5177 98.7891 15.7617 100.545 15.7617 102.711C15.7617 104.877 17.5177 106.633 19.6838 106.633Z" fill="white"/>
<path d="M24.9343 7.84413C27.1004 7.84413 28.8563 6.08816 28.8563 3.92206C28.8563 1.75597 27.1004 0 24.9343 0C22.7682 0 21.0122 1.75597 21.0122 3.92206C21.0122 6.08816 22.7682 7.84413 24.9343 7.84413Z" fill="white"/>
<path d="M24.9343 19.4633C27.1004 19.4633 28.8563 17.7073 28.8563 15.5412C28.8563 13.3751 27.1004 11.6191 24.9343 11.6191C22.7682 11.6191 21.0122 13.3751 21.0122 15.5412C21.0122 17.7073 22.7682 19.4633 24.9343 19.4633Z" fill="white"/>
<path d="M24.9343 31.0805C27.1004 31.0805 28.8563 29.3245 28.8563 27.1584C28.8563 24.9923 27.1004 23.2363 24.9343 23.2363C22.7682 23.2363 21.0122 24.9923 21.0122 27.1584C21.0122 29.3245 22.7682 31.0805 24.9343 31.0805Z" fill="white"/>
<path d="M24.9343 54.3305C27.1004 54.3305 28.8563 52.5745 28.8563 50.4084C28.8563 48.2423 27.1004 46.4863 24.9343 46.4863C22.7682 46.4863 21.0122 48.2423 21.0122 50.4084C21.0122 52.5745 22.7682 54.3305 24.9343 54.3305Z" fill="white"/>
<path d="M24.9343 65.9496C27.1004 65.9496 28.8563 64.1936 28.8563 62.0275C28.8563 59.8614 27.1004 58.1055 24.9343 58.1055C22.7682 58.1055 21.0122 59.8614 21.0122 62.0275C21.0122 64.1936 22.7682 65.9496 24.9343 65.9496Z" fill="white"/>
<path d="M24.9343 77.5687C27.1004 77.5687 28.8563 75.8128 28.8563 73.6467C28.8563 71.4806 27.1004 69.7246 24.9343 69.7246C22.7682 69.7246 21.0122 71.4806 21.0122 73.6467C21.0122 75.8128 22.7682 77.5687 24.9343 77.5687Z" fill="white"/>
<path d="M30.1843 25.2777C32.3504 25.2777 34.1063 23.5218 34.1063 21.3557C34.1063 19.1896 32.3504 17.4336 30.1843 17.4336C28.0182 17.4336 26.2622 19.1896 26.2622 21.3557C26.2622 23.5218 28.0182 25.2777 30.1843 25.2777Z" fill="white"/>
<path d="M30.1843 48.5141C32.3504 48.5141 34.1063 46.7581 34.1063 44.592C34.1063 42.4259 32.3504 40.6699 30.1843 40.6699C28.0182 40.6699 26.2622 42.4259 26.2622 44.592C26.2622 46.7581 28.0182 48.5141 30.1843 48.5141Z" fill="white"/>
<path d="M30.1843 60.1332C32.3504 60.1332 34.1063 58.3772 34.1063 56.2111C34.1063 54.045 32.3504 52.2891 30.1843 52.2891C28.0182 52.2891 26.2622 54.045 26.2622 56.2111C26.2622 58.3772 28.0182 60.1332 30.1843 60.1332Z" fill="white"/>
<path d="M30.1843 71.764C32.3504 71.764 34.1063 70.0081 34.1063 67.842C34.1063 65.6759 32.3504 63.9199 30.1843 63.9199C28.0182 63.9199 26.2622 65.6759 26.2622 67.842C26.2622 70.0081 28.0182 71.764 30.1843 71.764Z" fill="white"/>
<path d="M30.1843 83.3832C32.3504 83.3832 34.1063 81.6272 34.1063 79.4611C34.1063 77.295 32.3504 75.5391 30.1843 75.5391C28.0182 75.5391 26.2622 77.295 26.2622 79.4611C26.2622 81.6272 28.0182 83.3832 30.1843 83.3832Z" fill="white"/>
<path d="M30.1843 106.633C32.3504 106.633 34.1063 104.877 34.1063 102.711C34.1063 100.545 32.3504 98.7891 30.1843 98.7891C28.0182 98.7891 26.2622 100.545 26.2622 102.711C26.2622 104.877 28.0182 106.633 30.1843 106.633Z" fill="white"/>
<path d="M35.446 7.84413C37.6121 7.84413 39.3681 6.08816 39.3681 3.92206C39.3681 1.75597 37.6121 0 35.446 0C33.2799 0 31.5239 1.75597 31.5239 3.92206C31.5239 6.08816 33.2799 7.84413 35.446 7.84413Z" fill="white"/>
<path d="M35.446 54.3305C37.6121 54.3305 39.3681 52.5745 39.3681 50.4084C39.3681 48.2423 37.6121 46.4863 35.446 46.4863C33.2799 46.4863 31.5239 48.2423 31.5239 50.4084C31.5239 52.5745 33.2799 54.3305 35.446 54.3305Z" fill="white"/>
<path d="M35.446 65.9496C37.6121 65.9496 39.3681 64.1936 39.3681 62.0275C39.3681 59.8614 37.6121 58.1055 35.446 58.1055C33.2799 58.1055 31.5239 59.8614 31.5239 62.0275C31.5239 64.1936 33.2799 65.9496 35.446 65.9496Z" fill="white"/>
<path d="M35.446 77.5687C37.6121 77.5687 39.3681 75.8128 39.3681 73.6467C39.3681 71.4806 37.6121 69.7246 35.446 69.7246C33.2799 69.7246 31.5239 71.4806 31.5239 73.6467C31.5239 75.8128 33.2799 77.5687 35.446 77.5687Z" fill="white"/>
<path d="M35.446 89.1996C37.6121 89.1996 39.3681 87.4436 39.3681 85.2775C39.3681 83.1114 37.6121 81.3555 35.446 81.3555C33.2799 81.3555 31.5239 83.1114 31.5239 85.2775C31.5239 87.4436 33.2799 89.1996 35.446 89.1996Z" fill="white"/>
<path d="M35.446 100.817C37.6121 100.817 39.3681 99.0608 39.3681 96.8947C39.3681 94.7286 37.6121 92.9727 35.446 92.9727C33.2799 92.9727 31.5239 94.7286 31.5239 96.8947C31.5239 99.0608 33.2799 100.817 35.446 100.817Z" fill="white"/>
<path d="M40.696 13.6469C42.8621 13.6469 44.6181 11.8909 44.6181 9.7248C44.6181 7.5587 42.8621 5.80273 40.696 5.80273C38.5299 5.80273 36.7739 7.5587 36.7739 9.7248C36.7739 11.8909 38.5299 13.6469 40.696 13.6469Z" fill="white"/>
<path d="M40.696 36.8969C42.8621 36.8969 44.6181 35.1409 44.6181 32.9748C44.6181 30.8087 42.8621 29.0527 40.696 29.0527C38.5299 29.0527 36.7739 30.8087 36.7739 32.9748C36.7739 35.1409 38.5299 36.8969 40.696 36.8969Z" fill="white"/>
<path d="M40.696 48.516C42.8621 48.516 44.6181 46.76 44.6181 44.5939C44.6181 42.4278 42.8621 40.6719 40.696 40.6719C38.5299 40.6719 36.7739 42.4278 36.7739 44.5939C36.7739 46.76 38.5299 48.516 40.696 48.516Z" fill="white"/>
<path d="M40.696 60.1332C42.8621 60.1332 44.6181 58.3772 44.6181 56.2111C44.6181 54.045 42.8621 52.2891 40.696 52.2891C38.5299 52.2891 36.7739 54.045 36.7739 56.2111C36.7739 58.3772 38.5299 60.1332 40.696 60.1332Z" fill="white"/>
<path d="M40.696 71.764C42.8621 71.764 44.6181 70.0081 44.6181 67.842C44.6181 65.6759 42.8621 63.9199 40.696 63.9199C38.5299 63.9199 36.7739 65.6759 36.7739 67.842C36.7739 70.0081 38.5299 71.764 40.696 71.764Z" fill="white"/>
<path d="M40.696 83.3832C42.8621 83.3832 44.6181 81.6272 44.6181 79.4611C44.6181 77.295 42.8621 75.5391 40.696 75.5391C38.5299 75.5391 36.7739 77.295 36.7739 79.4611C36.7739 81.6272 38.5299 83.3832 40.696 83.3832Z" fill="white"/>
<path d="M40.696 95.0023C42.8621 95.0023 44.6181 93.2464 44.6181 91.0803C44.6181 88.9142 42.8621 87.1582 40.696 87.1582C38.5299 87.1582 36.7739 88.9142 36.7739 91.0803C36.7739 93.2464 38.5299 95.0023 40.696 95.0023Z" fill="white"/>
<path d="M40.696 106.633C42.8621 106.633 44.6181 104.877 44.6181 102.711C44.6181 100.545 42.8621 98.7891 40.696 98.7891C38.5299 98.7891 36.7739 100.545 36.7739 102.711C36.7739 104.877 38.5299 106.633 40.696 106.633Z" fill="white"/>
<path d="M45.946 7.84413C48.1121 7.84413 49.8681 6.08816 49.8681 3.92206C49.8681 1.75597 48.1121 0 45.946 0C43.7799 0 42.0239 1.75597 42.0239 3.92206C42.0239 6.08816 43.7799 7.84413 45.946 7.84413Z" fill="white"/>
<path d="M45.946 19.4633C48.1121 19.4633 49.8681 17.7073 49.8681 15.5412C49.8681 13.3751 48.1121 11.6191 45.946 11.6191C43.7799 11.6191 42.0239 13.3751 42.0239 15.5412C42.0239 17.7073 43.7799 19.4633 45.946 19.4633Z" fill="white"/>
<path d="M45.946 42.6996C48.1121 42.6996 49.8681 40.9436 49.8681 38.7775C49.8681 36.6114 48.1121 34.8555 45.946 34.8555C43.7799 34.8555 42.0239 36.6114 42.0239 38.7775C42.0239 40.9436 43.7799 42.6996 45.946 42.6996Z" fill="white"/>
<path d="M45.946 54.3305C48.1121 54.3305 49.8681 52.5745 49.8681 50.4084C49.8681 48.2423 48.1121 46.4863 45.946 46.4863C43.7799 46.4863 42.0239 48.2423 42.0239 50.4084C42.0239 52.5745 43.7799 54.3305 45.946 54.3305Z" fill="white"/>
<path d="M45.946 65.9496C48.1121 65.9496 49.8681 64.1936 49.8681 62.0275C49.8681 59.8614 48.1121 58.1055 45.946 58.1055C43.7799 58.1055 42.0239 59.8614 42.0239 62.0275C42.0239 64.1936 43.7799 65.9496 45.946 65.9496Z" fill="white"/>
<path d="M45.946 77.5687C48.1121 77.5687 49.8681 75.8128 49.8681 73.6467C49.8681 71.4806 48.1121 69.7246 45.946 69.7246C43.7799 69.7246 42.0239 71.4806 42.0239 73.6467C42.0239 75.8128 43.7799 77.5687 45.946 77.5687Z" fill="white"/>
<path d="M45.946 89.1996C48.1121 89.1996 49.8681 87.4436 49.8681 85.2775C49.8681 83.1114 48.1121 81.3555 45.946 81.3555C43.7799 81.3555 42.0239 83.1114 42.0239 85.2775C42.0239 87.4436 43.7799 89.1996 45.946 89.1996Z" fill="white"/>
<path d="M51.2082 13.6469C53.3743 13.6469 55.1303 11.8909 55.1303 9.7248C55.1303 7.5587 53.3743 5.80273 51.2082 5.80273C49.0421 5.80273 47.2861 7.5587 47.2861 9.7248C47.2861 11.8909 49.0421 13.6469 51.2082 13.6469Z" fill="white"/>
<path d="M51.2082 36.8969C53.3743 36.8969 55.1303 35.1409 55.1303 32.9748C55.1303 30.8087 53.3743 29.0527 51.2082 29.0527C49.0421 29.0527 47.2861 30.8087 47.2861 32.9748C47.2861 35.1409 49.0421 36.8969 51.2082 36.8969Z" fill="white"/>
<path d="M51.2082 48.516C53.3743 48.516 55.1303 46.76 55.1303 44.5939C55.1303 42.4278 53.3743 40.6719 51.2082 40.6719C49.0421 40.6719 47.2861 42.4278 47.2861 44.5939C47.2861 46.76 49.0421 48.516 51.2082 48.516Z" fill="white"/>
<path d="M51.2082 60.1332C53.3743 60.1332 55.1303 58.3772 55.1303 56.2111C55.1303 54.045 53.3743 52.2891 51.2082 52.2891C49.0421 52.2891 47.2861 54.045 47.2861 56.2111C47.2861 58.3772 49.0421 60.1332 51.2082 60.1332Z" fill="white"/>
<path d="M51.2082 71.764C53.3743 71.764 55.1303 70.0081 55.1303 67.842C55.1303 65.6759 53.3743 63.9199 51.2082 63.9199C49.0421 63.9199 47.2861 65.6759 47.2861 67.842C47.2861 70.0081 49.0421 71.764 51.2082 71.764Z" fill="white"/>
<path d="M51.2082 83.3832C53.3743 83.3832 55.1303 81.6272 55.1303 79.4611C55.1303 77.295 53.3743 75.5391 51.2082 75.5391C49.0421 75.5391 47.2861 77.295 47.2861 79.4611C47.2861 81.6272 49.0421 83.3832 51.2082 83.3832Z" fill="white"/>
<path d="M51.2082 106.633C53.3743 106.633 55.1303 104.877 55.1303 102.711C55.1303 100.545 53.3743 98.7891 51.2082 98.7891C49.0421 98.7891 47.2861 100.545 47.2861 102.711C47.2861 104.877 49.0421 106.633 51.2082 106.633Z" fill="white"/>
<path d="M56.4577 7.84413C58.6238 7.84413 60.3798 6.08816 60.3798 3.92206C60.3798 1.75597 58.6238 0 56.4577 0C54.2916 0 52.5356 1.75597 52.5356 3.92206C52.5356 6.08816 54.2916 7.84413 56.4577 7.84413Z" fill="white"/>
<path d="M56.4577 77.5687C58.6238 77.5687 60.3798 75.8128 60.3798 73.6467C60.3798 71.4806 58.6238 69.7246 56.4577 69.7246C54.2916 69.7246 52.5356 71.4806 52.5356 73.6467C52.5356 75.8128 54.2916 77.5687 56.4577 77.5687Z" fill="white"/>
<path d="M56.4577 89.1996C58.6238 89.1996 60.3798 87.4436 60.3798 85.2775C60.3798 83.1114 58.6238 81.3555 56.4577 81.3555C54.2916 81.3555 52.5356 83.1114 52.5356 85.2775C52.5356 87.4436 54.2916 89.1996 56.4577 89.1996Z" fill="white"/>
<path d="M56.4577 100.817C58.6238 100.817 60.3798 99.0608 60.3798 96.8947C60.3798 94.7286 58.6238 92.9727 56.4577 92.9727C54.2916 92.9727 52.5356 94.7286 52.5356 96.8947C52.5356 99.0608 54.2916 100.817 56.4577 100.817Z" fill="white"/>
<path d="M61.7077 25.2777C63.8738 25.2777 65.6298 23.5218 65.6298 21.3557C65.6298 19.1896 63.8738 17.4336 61.7077 17.4336C59.5416 17.4336 57.7856 19.1896 57.7856 21.3557C57.7856 23.5218 59.5416 25.2777 61.7077 25.2777Z" fill="white"/>
<path d="M61.7077 48.5141C63.8738 48.5141 65.6298 46.7581 65.6298 44.592C65.6298 42.4259 63.8738 40.6699 61.7077 40.6699C59.5416 40.6699 57.7856 42.4259 57.7856 44.592C57.7856 46.7581 59.5416 48.5141 61.7077 48.5141Z" fill="white"/>
<path d="M61.7077 83.3832C63.8738 83.3832 65.6298 81.6272 65.6298 79.4611C65.6298 77.295 63.8738 75.5391 61.7077 75.5391C59.5416 75.5391 57.7856 77.295 57.7856 79.4611C57.7856 81.6272 59.5416 83.3832 61.7077 83.3832Z" fill="white"/>
<path d="M61.7077 95.0023C63.8738 95.0023 65.6298 93.2464 65.6298 91.0803C65.6298 88.9142 63.8738 87.1582 61.7077 87.1582C59.5416 87.1582 57.7856 88.9142 57.7856 91.0803C57.7856 93.2464 59.5416 95.0023 61.7077 95.0023Z" fill="white"/>
<path d="M61.7077 106.633C63.8738 106.633 65.6298 104.877 65.6298 102.711C65.6298 100.545 63.8738 98.7891 61.7077 98.7891C59.5416 98.7891 57.7856 100.545 57.7856 102.711C57.7856 104.877 59.5416 106.633 61.7077 106.633Z" fill="white"/>
<path d="M66.9582 7.84413C69.1243 7.84413 70.8803 6.08816 70.8803 3.92206C70.8803 1.75597 69.1243 0 66.9582 0C64.7921 0 63.0361 1.75597 63.0361 3.92206C63.0361 6.08816 64.7921 7.84413 66.9582 7.84413Z" fill="white"/>
<path d="M66.9582 19.4633C69.1243 19.4633 70.8803 17.7073 70.8803 15.5412C70.8803 13.3751 69.1243 11.6191 66.9582 11.6191C64.7921 11.6191 63.0361 13.3751 63.0361 15.5412C63.0361 17.7073 64.7921 19.4633 66.9582 19.4633Z" fill="white"/>
<path d="M66.9582 31.0805C69.1243 31.0805 70.8803 29.3245 70.8803 27.1584C70.8803 24.9923 69.1243 23.2363 66.9582 23.2363C64.7921 23.2363 63.0361 24.9923 63.0361 27.1584C63.0361 29.3245 64.7921 31.0805 66.9582 31.0805Z" fill="white"/>
<path d="M66.9582 89.1996C69.1243 89.1996 70.8803 87.4436 70.8803 85.2775C70.8803 83.1114 69.1243 81.3555 66.9582 81.3555C64.7921 81.3555 63.0361 83.1114 63.0361 85.2775C63.0361 87.4436 64.7921 89.1996 66.9582 89.1996Z" fill="white"/>
<path d="M72.2204 25.2777C74.3865 25.2777 76.1425 23.5218 76.1425 21.3557C76.1425 19.1896 74.3865 17.4336 72.2204 17.4336C70.0543 17.4336 68.2983 19.1896 68.2983 21.3557C68.2983 23.5218 70.0543 25.2777 72.2204 25.2777Z" fill="white"/>
<path d="M72.2204 48.5141C74.3865 48.5141 76.1425 46.7581 76.1425 44.592C76.1425 42.4259 74.3865 40.6699 72.2204 40.6699C70.0543 40.6699 68.2983 42.4259 68.2983 44.592C68.2983 46.7581 70.0543 48.5141 72.2204 48.5141Z" fill="white"/>
<path d="M72.2204 95.0023C74.3865 95.0023 76.1425 93.2464 76.1425 91.0803C76.1425 88.9142 74.3865 87.1582 72.2204 87.1582C70.0543 87.1582 68.2983 88.9142 68.2983 91.0803C68.2983 93.2464 70.0543 95.0023 72.2204 95.0023Z" fill="white"/>
<path d="M77.4699 7.84413C79.636 7.84413 81.392 6.08816 81.392 3.92206C81.392 1.75597 79.636 0 77.4699 0C75.3038 0 73.5479 1.75597 73.5479 3.92206C73.5479 6.08816 75.3038 7.84413 77.4699 7.84413Z" fill="white"/>
<path d="M77.4699 42.6996C79.636 42.6996 81.392 40.9436 81.392 38.7775C81.392 36.6114 79.636 34.8555 77.4699 34.8555C75.3038 34.8555 73.5479 36.6114 73.5479 38.7775C73.5479 40.9436 75.3038 42.6996 77.4699 42.6996Z" fill="white"/>
<path d="M77.4699 100.817C79.636 100.817 81.392 99.0608 81.392 96.8947C81.392 94.7286 79.636 92.9727 77.4699 92.9727C75.3038 92.9727 73.5479 94.7286 73.5479 96.8947C73.5479 99.0608 75.3038 100.817 77.4699 100.817Z" fill="white"/>
<path d="M82.7199 13.6469C84.886 13.6469 86.642 11.8909 86.642 9.7248C86.642 7.5587 84.886 5.80273 82.7199 5.80273C80.5538 5.80273 78.7979 7.5587 78.7979 9.7248C78.7979 11.8909 80.5538 13.6469 82.7199 13.6469Z" fill="white"/>
<path d="M82.7199 36.8969C84.886 36.8969 86.642 35.1409 86.642 32.9748C86.642 30.8087 84.886 29.0527 82.7199 29.0527C80.5538 29.0527 78.7979 30.8087 78.7979 32.9748C78.7979 35.1409 80.5538 36.8969 82.7199 36.8969Z" fill="white"/>
<path d="M82.7199 106.633C84.886 106.633 86.642 104.877 86.642 102.711C86.642 100.545 84.886 98.7891 82.7199 98.7891C80.5538 98.7891 78.7979 100.545 78.7979 102.711C78.7979 104.877 80.5538 106.633 82.7199 106.633Z" fill="white"/>
<path d="M87.9821 7.84413C90.1482 7.84413 91.9042 6.08816 91.9042 3.92206C91.9042 1.75597 90.1482 0 87.9821 0C85.816 0 84.0601 1.75597 84.0601 3.92206C84.0601 6.08816 85.816 7.84413 87.9821 7.84413Z" fill="white"/>
<path d="M87.9821 19.4633C90.1482 19.4633 91.9042 17.7073 91.9042 15.5412C91.9042 13.3751 90.1482 11.6191 87.9821 11.6191C85.816 11.6191 84.0601 13.3751 84.0601 15.5412C84.0601 17.7073 85.816 19.4633 87.9821 19.4633Z" fill="white"/>
<path d="M87.9821 31.0805C90.1482 31.0805 91.9042 29.3245 91.9042 27.1584C91.9042 24.9923 90.1482 23.2363 87.9821 23.2363C85.816 23.2363 84.0601 24.9923 84.0601 27.1584C84.0601 29.3245 85.816 31.0805 87.9821 31.0805Z" fill="white"/>
<path d="M87.9821 42.6996C90.1482 42.6996 91.9042 40.9436 91.9042 38.7775C91.9042 36.6114 90.1482 34.8555 87.9821 34.8555C85.816 34.8555 84.0601 36.6114 84.0601 38.7775C84.0601 40.9436 85.816 42.6996 87.9821 42.6996Z" fill="white"/>
<path d="M87.9821 54.3305C90.1482 54.3305 91.9042 52.5745 91.9042 50.4084C91.9042 48.2423 90.1482 46.4863 87.9821 46.4863C85.816 46.4863 84.0601 48.2423 84.0601 50.4084C84.0601 52.5745 85.816 54.3305 87.9821 54.3305Z" fill="white"/>
<path d="M87.9821 65.9496C90.1482 65.9496 91.9042 64.1936 91.9042 62.0275C91.9042 59.8614 90.1482 58.1055 87.9821 58.1055C85.816 58.1055 84.0601 59.8614 84.0601 62.0275C84.0601 64.1936 85.816 65.9496 87.9821 65.9496Z" fill="white"/>
<path d="M87.9821 77.5687C90.1482 77.5687 91.9042 75.8128 91.9042 73.6467C91.9042 71.4806 90.1482 69.7246 87.9821 69.7246C85.816 69.7246 84.0601 71.4806 84.0601 73.6467C84.0601 75.8128 85.816 77.5687 87.9821 77.5687Z" fill="white"/>
<path d="M87.9821 89.1996C90.1482 89.1996 91.9042 87.4436 91.9042 85.2775C91.9042 83.1114 90.1482 81.3555 87.9821 81.3555C85.816 81.3555 84.0601 83.1114 84.0601 85.2775C84.0601 87.4436 85.816 89.1996 87.9821 89.1996Z" fill="white"/>
<path d="M87.9821 100.817C90.1482 100.817 91.9042 99.0608 91.9042 96.8947C91.9042 94.7286 90.1482 92.9727 87.9821 92.9727C85.816 92.9727 84.0601 94.7286 84.0601 96.8947C84.0601 99.0608 85.816 100.817 87.9821 100.817Z" fill="white"/>
<path d="M87.9821 112.436C90.1482 112.436 91.9042 110.68 91.9042 108.514C91.9042 106.348 90.1482 104.592 87.9821 104.592C85.816 104.592 84.0601 106.348 84.0601 108.514C84.0601 110.68 85.816 112.436 87.9821 112.436Z" fill="white"/>
<path d="M163.21 30.6745C165.092 31.5966 166.542 32.7646 167.563 34.1662C168.583 35.5678 169.272 37.0555 169.591 38.6415C169.911 40.2153 170.083 41.6538 170.083 42.957C170.083 44.5554 169.85 46.0431 169.37 47.3955C168.891 48.7479 168.202 49.9528 167.305 50.9979C166.407 52.0553 165.325 52.9159 164.071 53.5921C162.817 54.2683 161.44 54.7109 159.94 54.9077C163.592 55.1536 166.432 56.4814 168.423 58.8912C170.428 61.301 171.423 64.4485 171.423 68.3582C171.423 70.0058 171.141 71.7147 170.563 73.4729C169.985 75.2311 169.05 76.8171 167.747 78.2433C166.444 79.6695 164.772 80.8375 162.719 81.7351C160.665 82.6326 158.133 83.0875 155.133 83.0875H128.699V78.1327H136.285V34.24H128.773V29.2852H155.821C158.87 29.2852 161.342 29.7524 163.21 30.6745ZM157.764 52.1536C159.215 51.5266 160.37 50.7274 161.219 49.7438C162.067 48.7725 162.657 47.6783 162.989 46.4734C163.309 45.2685 163.481 44.1005 163.481 42.9448C163.481 41.8382 163.358 40.7686 163.1 39.7112C162.854 38.6538 162.362 37.7317 161.637 36.9326C160.911 36.1334 159.915 35.4818 158.674 34.9777C157.42 34.4736 155.797 34.2277 153.793 34.2277H142.826V53.088H152.293C154.481 53.1003 156.313 52.7807 157.764 52.1536ZM158.821 76.9524C160.37 76.1778 161.588 75.2557 162.46 74.1737C163.333 73.0918 163.924 72.0098 164.231 70.9033C164.526 69.7967 164.686 68.8992 164.686 68.1984C164.686 66.7476 164.526 65.3952 164.194 64.1411C163.874 62.887 163.333 61.8174 162.583 60.9076C161.833 60.01 160.838 59.2969 159.62 58.7683C158.391 58.2396 156.879 57.9814 155.071 57.9814H142.826V78.1204H152.747C155.243 78.1204 157.272 77.7269 158.821 76.9524Z" fill="white"/>
<path d="M213.324 30.6745C215.205 31.5966 216.656 32.7646 217.677 34.1662C218.697 35.5678 219.386 37.0555 219.705 38.6415C220.025 40.2153 220.197 41.6538 220.197 42.957C220.197 44.5554 219.964 46.0431 219.484 47.3955C219.005 48.7479 218.316 49.9528 217.418 50.9979C216.521 52.0553 215.439 52.9159 214.185 53.5921C212.931 54.2683 211.554 54.7109 210.054 54.9077C213.705 55.1536 216.546 56.4814 218.537 58.8912C220.541 61.301 221.537 64.4485 221.537 68.3582C221.537 70.0058 221.254 71.7147 220.677 73.4729C220.099 75.2311 219.164 76.8171 217.861 78.2433C216.558 79.6695 214.886 80.8375 212.832 81.7351C210.779 82.6326 208.247 83.0875 205.247 83.0875H178.8V78.1327H186.386V34.24H178.874V29.2852H205.923C208.972 29.2852 211.443 29.7524 213.324 30.6745ZM207.878 52.1536C209.328 51.5266 210.484 50.7274 211.333 49.7438C212.181 48.7725 212.771 47.6783 213.103 46.4734C213.423 45.2685 213.595 44.1005 213.595 42.9448C213.595 41.8382 213.472 40.7686 213.214 39.7112C212.968 38.6538 212.476 37.7317 211.751 36.9326C211.025 36.1334 210.029 35.4818 208.787 34.9777C207.533 34.4736 205.91 34.2277 203.906 34.2277H192.939V53.088H202.406C204.595 53.1003 206.427 52.7807 207.878 52.1536ZM208.923 76.9524C210.472 76.1778 211.689 75.2557 212.562 74.1737C213.435 73.0918 214.025 72.0098 214.332 70.9033C214.628 69.7967 214.787 68.8992 214.787 68.1984C214.787 66.7476 214.628 65.3952 214.296 64.1411C213.976 62.887 213.435 61.8174 212.685 60.9076C211.935 60.01 210.939 59.2969 209.722 58.7683C208.492 58.2396 206.98 57.9814 205.173 57.9814H192.927V78.1204H202.849C205.345 78.1204 207.374 77.7269 208.923 76.9524Z" fill="white"/>
<path d="M276.311 29.2847V48.3663H270.446C270.2 44.0139 268.873 40.473 266.463 37.7682C264.053 35.0633 260.573 33.7108 256.024 33.7108C250.27 33.7108 245.893 35.6166 242.918 39.4157C239.943 43.2271 238.443 48.6122 238.443 55.5711C238.443 62.9849 239.894 68.6652 242.795 72.6241C245.697 76.5831 249.963 78.5625 255.569 78.5625C259.823 78.5625 263.168 77.3207 265.602 74.8495C268.036 72.3659 269.377 69.0832 269.623 64.9644H276.532C276.385 68.0135 275.782 70.7184 274.725 73.079C273.668 75.4273 272.229 77.4191 270.409 79.0543C268.577 80.6772 266.401 81.9067 263.868 82.7305C261.336 83.5542 258.545 83.9723 255.496 83.9723C250.934 83.9723 247.111 83.1731 244 81.5625C240.889 79.9641 238.394 77.8494 236.488 75.2183C234.582 72.5872 233.217 69.6242 232.394 66.3168C231.57 63.0095 231.152 59.6284 231.152 56.1736C231.152 52.522 231.631 49.0057 232.578 45.6615C233.525 42.305 234.988 39.3542 236.93 36.7969C238.885 34.2395 241.381 32.2109 244.406 30.7109C247.43 29.2109 251.057 28.4609 255.262 28.4609C259.172 28.4609 262.455 29.2109 265.098 30.7109C267.754 32.2109 269.684 34.3379 270.889 37.0919V29.2847H276.311Z" fill="white"/>
<path d="M328.146 75.2543L342.494 29.2715H361.428V34.2263H353.768V78.0944H361.428V83.0492H340.539V78.0944H347.449V34.2386H346.92L330.937 83.0738H325.072L309.064 34.2386H308.536V78.1067H315.519V83.0615H295.085V78.1067H302.818V34.2386H295.085V29.2838H314.24L328.146 75.2543Z" fill="white"/>
<path d="M378.715 78.3417H384.801V83.0752H366.322V78.3417H372.629V48.293H366.396V43.8546H378.715V78.3417ZM379.158 35.5924H372.174V29.2852H379.158V35.5924Z" fill="white"/>
<path d="M421.452 43.8533V58.2752H416.718V57.599C416.669 56.3449 416.411 55.1277 415.931 53.9597C415.452 52.7794 414.788 51.7221 413.94 50.7631C413.091 49.8163 412.083 49.0418 410.94 48.4762C409.796 47.9106 408.505 47.6156 407.104 47.6156C405.001 47.6156 403.206 48.0828 401.731 49.0049C400.255 49.927 399.05 51.1196 398.128 52.5704C397.206 54.0212 396.53 55.681 396.1 57.5252C395.669 59.3818 395.46 61.226 395.46 63.0825C395.46 64.9882 395.694 66.8693 396.174 68.7136C396.653 70.5701 397.366 72.2299 398.313 73.7053C399.26 75.1807 400.464 76.3856 401.915 77.3077C403.366 78.2298 405.075 78.697 407.03 78.697C409.231 78.697 411.149 77.9962 412.772 76.5946C414.395 75.193 415.489 73.2135 416.042 70.6562L416.19 69.7586H421.894L421.821 71.1111C421.575 73.0659 421.009 74.8118 420.136 76.3733C419.263 77.9224 418.132 79.2257 416.755 80.283C415.378 81.3404 413.804 82.1519 412.022 82.7297C410.239 83.3076 408.382 83.5904 406.427 83.5904C403.624 83.5904 401.128 83.074 398.952 82.0535C396.776 81.0207 394.932 79.6068 393.432 77.8118C391.932 76.0044 390.776 73.902 389.977 71.5045C389.178 69.0947 388.772 66.5497 388.772 63.8448C388.772 60.3408 389.239 57.2547 390.161 54.5991C391.083 51.9434 392.313 49.7426 393.837 47.9844C395.362 46.2262 397.145 44.8984 399.173 44.0009C401.202 43.1033 403.317 42.6484 405.518 42.6484C408.075 42.6484 410.251 43.1279 412.058 44.0746C413.866 45.0213 415.415 46.5828 416.718 48.7344V43.8533H421.452Z" fill="white"/>
<path d="M450.345 48.5881C449.915 48.5389 449.509 48.5143 449.103 48.5143C441.837 48.5143 438.21 53.3462 438.21 63.0099V78.3416H445.648V83.0752H425.891V78.3416H432.124V48.293H425.891V43.8545H438.21V51.6618C438.813 49.9651 439.44 48.5635 440.091 47.4938C440.743 46.4119 441.493 45.5635 442.341 44.9365C443.19 44.3094 444.161 43.8668 445.23 43.6209C446.312 43.375 447.591 43.2152 449.103 43.166H451.661V48.7971C451.206 48.711 450.763 48.6372 450.345 48.5881Z" fill="white"/>
<path d="M487.045 78.0344C483.738 81.7352 479.361 83.5917 473.902 83.5917C467.791 83.5917 463.181 81.5139 460.083 77.3582C457.083 73.2517 455.57 68.4444 455.57 62.9363C455.57 59.7766 456.025 56.9487 456.923 54.4529C457.82 51.9447 459.087 49.8177 460.722 48.0719C462.345 46.3137 464.3 44.9735 466.587 44.0514C468.861 43.1293 471.406 42.6621 474.209 42.6621C477.111 42.6621 479.681 43.1785 481.906 44.199C484.131 45.2317 486 46.6702 487.5 48.5145C489 50.371 490.131 52.5472 490.881 55.0553C491.631 57.5635 492.012 60.293 492.012 63.2437C492 69.3543 490.352 74.2845 487.045 78.0344ZM477.984 78.0344C479.361 77.3828 480.627 76.4115 481.783 75.1083C482.988 73.805 483.885 72.1083 484.488 69.9936C485.09 67.8912 485.385 65.4814 485.385 62.7765C485.385 57.8217 484.389 53.998 482.385 51.3177C480.381 48.6374 477.504 47.2973 473.742 47.2973C471.935 47.2973 470.312 47.6661 468.861 48.3915C467.41 49.1169 466.181 50.1497 465.185 51.4775C464.189 52.8054 463.402 54.4037 462.861 56.2848C462.308 58.1659 462.037 60.2315 462.037 62.4814C462.037 65.8871 462.382 68.5551 463.046 70.4854C463.722 72.4157 464.632 74.0017 465.787 75.2558C468.087 77.764 470.767 79.018 473.828 79.018C475.218 79.018 476.607 78.6861 477.984 78.0344Z" fill="white"/>
</svg>
