<svg xmlns="http://www.w3.org/2000/svg" width="480" height="155" viewBox="0 0 480 155">
  <defs>
    <linearGradient id="a" x1="21.402" x2="101.661" y1="100.122" y2="2.516" class="paint0_linear_1093" gradientUnits="userSpaceOnUse">
      <stop stop-color="#BF0000"/>
      <stop offset=".375" stop-color="#BF0000"/>
      <stop offset="1" stop-color="#FBE40A"/>
    </linearGradient>
    <linearGradient id="b" x1="25.043" x2="479.999" y1="106.164" y2="106.164" class="paint1_linear_1093" gradientUnits="userSpaceOnUse">
      <stop stop-color="#BF0000"/>
      <stop offset=".245" stop-color="#FFF20C"/>
      <stop offset=".445" stop-color="#0CE500"/>
      <stop offset=".643" stop-color="#31E1FD"/>
      <stop offset="1" stop-color="#0019BF"/>
    </linearGradient>
  </defs>
  <g class="mainlogo">
    <path fill="#fff" d="M112.761 0c-2.264 3.618-43.01 67.508-60.779 95.36h26.2c3.644-5.729 4.68-7.386 8.054-12.694l26.688-.203V95.36h24.694c.01-31.781-.023-63.577-.082-95.358L112.761 0Zm58.583 0-20.016 31.366-.163.204-.122.203c-11.933 18.167-11.233 15.13.204 33.807l.162.285.163.285 19.325 29.21h26.524l-27.013-40.845c-.017-.03-.024-.053-.041-.081-2.245-3.893-3.33-6.109-.163-11.595L197.543.001 171.344 0Zm36.247 0-20.015 31.366-.163.204-.123.203c-11.932 18.167-11.232 15.13.204 33.807l.163.285.163.285 19.324 29.21h26.484l-26.972-40.845c-.017-.029-.025-.053-.041-.08-2.245-3.893-3.33-6.109-.163-11.595L233.79 0h-26.199V0Zm29.739 0v95.36h23.799V0H237.33Zm106.832 0v17.82h23.839V0h-23.839Zm-41.781 21.277c-20.405 0-37.184 16.78-37.184 37.184 0 18.916 14.428 34.694 32.79 36.898h8.746a36.978 36.978 0 0 0 10.985-3.091v3.091h21.846V21.93h-21.846v2.725c-4.689-2.151-9.876-3.377-15.337-3.377Zm41.781 1.302v72.78h23.839V22.58h-23.839Zm29.412.163V95.36h22.131V54.067c0-5.42 4.019-9.438 9.439-9.438s9.438 4.018 9.438 9.438V95.36h23.88V54.27c0-5.42 4.019-9.438 9.439-9.438s9.438 4.018 9.438 9.438v41.09h22.131V54.27c0-17.297-6.948-31.08-31.813-30.592-7.794 0-12.84 3.46-17.697 8.217-4.861-5.43-12.774-8.662-25.06-8.42-2.817 0-5.597.397-8.259 1.138v-1.87h-23.067ZM112.843 40.764c.006 4.076.034 3.858.04 9.357.003 2.753-.003 4.864 0 7.608l-10.861.081c5.205-8.187 5.629-8.88 10.821-17.046Zm189.538 2.644c8.43 0 15.052 6.623 15.052 15.053s-6.622 15.052-15.052 15.052-15.053-6.622-15.053-15.052 6.623-15.053 15.053-15.053Z" class="Vector"/>
    <path fill="url(#a)" d="M102.697 2.516 0 110.736h479.999v-9.148H30.895l71.802-99.072Z" class="Vector"/>
    <path fill="url(#b)" d="M25.043 110.737h454.955v-9.147H30.894l-5.851 9.147Z" class="Vector"/>
    <path fill="#fff" d="M10.357 154.563a10.419 10.419 0 0 0 4.43-.998 9.924 9.924 0 0 0 3.54-2.68l-2.638-2.682a7.224 7.224 0 0 1-2.36 1.888 6.382 6.382 0 0 1-2.86.656 6.245 6.245 0 0 1-2.44-.468 6.315 6.315 0 0 1-2.073-1.385 6.219 6.219 0 0 1-1.33-2.04 6.652 6.652 0 0 1-.485-2.552 6.906 6.906 0 0 1 .472-2.581c.3-.764.743-1.462 1.306-2.053a6.009 6.009 0 0 1 1.985-1.369 6.095 6.095 0 0 1 2.457-.499 6.468 6.468 0 0 1 2.935.692 7.125 7.125 0 0 1 2.416 2.011l2.721-2.767a9.594 9.594 0 0 0-3.554-2.723A10.708 10.708 0 0 0 10.357 134a10.415 10.415 0 0 0-4.068.799 10.308 10.308 0 0 0-3.29 2.169c-.938.93-1.683 2.04-2.194 3.265a10.697 10.697 0 0 0-.013 8.113 9.894 9.894 0 0 0 2.179 3.252 10.47 10.47 0 0 0 7.386 2.965Zm52.623.029c1.39.011 2.77-.261 4.054-.798a9.954 9.954 0 0 0 3.26-2.179 10.117 10.117 0 0 0 2.184-3.282 10.515 10.515 0 0 0 0-8.072 10.114 10.114 0 0 0-2.184-3.282 9.953 9.953 0 0 0-3.26-2.179 10.63 10.63 0 0 0-8.081 0 9.953 9.953 0 0 0-3.26 2.179 10.115 10.115 0 0 0-2.184 3.282 10.52 10.52 0 0 0 0 8.072 10.117 10.117 0 0 0 2.184 3.282 9.954 9.954 0 0 0 3.26 2.179c1.277.535 2.647.806 4.029.797l-.002.001Zm0-3.792a5.923 5.923 0 0 1-2.376-.477 5.988 5.988 0 0 1-1.997-1.392 6.4 6.4 0 0 1-1.29-2.067 7.253 7.253 0 0 1 0-5.149 6.438 6.438 0 0 1 1.29-2.052 5.988 5.988 0 0 1 1.997-1.392 5.923 5.923 0 0 1 2.376-.477 6.03 6.03 0 0 1 2.444.499 5.895 5.895 0 0 1 1.958 1.37 6.44 6.44 0 0 1 1.29 2.052 7.255 7.255 0 0 1 0 5.149 6.402 6.402 0 0 1-1.29 2.067 5.91 5.91 0 0 1-1.958 1.37 6.022 6.022 0 0 1-2.442.497l-.002.002Zm61.038 3.479v-3.649h-10.637v-16.315h-4.024v19.962l14.661.002Zm50.764 0v-3.649h-10.637v-16.315h-4.026v19.962l14.663.002Zm51.151 0v-3.593h-11.024v-4.735h7.194v-3.48h-7.194v-4.559h10.914v-3.593H210.88v19.962l15.053-.002Zm44.655.285a10.404 10.404 0 0 0 4.429-.998 9.926 9.926 0 0 0 3.541-2.68l-2.639-2.68a7.24 7.24 0 0 1-2.361 1.888 6.391 6.391 0 0 1-2.86.656 6.238 6.238 0 0 1-2.438-.468 6.311 6.311 0 0 1-2.073-1.386 6.212 6.212 0 0 1-1.33-2.039 6.653 6.653 0 0 1-.486-2.552 6.907 6.907 0 0 1 .473-2.582 6.286 6.286 0 0 1 1.304-2.052 6.013 6.013 0 0 1 1.986-1.369 6.091 6.091 0 0 1 2.457-.499 6.474 6.474 0 0 1 2.944.697 7.124 7.124 0 0 1 2.415 2.011l2.722-2.766a9.582 9.582 0 0 0-3.554-2.724 10.7 10.7 0 0 0-4.521-1.013 10.408 10.408 0 0 0-4.068.799 10.314 10.314 0 0 0-3.291 2.167c-.938.93-1.685 2.04-2.195 3.266a10.695 10.695 0 0 0-.014 8.113 9.901 9.901 0 0 0 2.18 3.252 10.32 10.32 0 0 0 3.29 2.167c1.298.535 2.688.804 4.089.791v.001Zm53.263-.285v-16.315h6.524v-3.651H313.27v3.651h6.553v16.313l4.028.002Zm46.125 0v-19.962h-4.026v19.962h4.026Zm46.377.315c1.39.01 2.768-.261 4.054-.799a9.939 9.939 0 0 0 3.259-2.179 10.096 10.096 0 0 0 2.184-3.282 10.513 10.513 0 0 0 0-8.071 10.1 10.1 0 0 0-2.184-3.283 9.954 9.954 0 0 0-3.259-2.179 10.635 10.635 0 0 0-8.08 0 9.973 9.973 0 0 0-3.259 2.18 10.128 10.128 0 0 0-2.184 3.282 10.512 10.512 0 0 0 0 8.071 10.124 10.124 0 0 0 2.184 3.281 9.957 9.957 0 0 0 3.259 2.18c1.276.535 2.645.805 4.026.796v.003Zm0-3.793a5.929 5.929 0 0 1-2.43-.499 5.918 5.918 0 0 1-1.943-1.369 6.374 6.374 0 0 1-1.293-2.068 7.258 7.258 0 0 1 0-5.148 6.415 6.415 0 0 1 1.293-2.053 5.918 5.918 0 0 1 1.943-1.369 5.896 5.896 0 0 1 2.43-.499 5.988 5.988 0 0 1 2.442.499 5.914 5.914 0 0 1 1.959 1.369 6.455 6.455 0 0 1 1.291 2.053 7.247 7.247 0 0 1 0 5.148 6.424 6.424 0 0 1-1.291 2.068 5.914 5.914 0 0 1-1.959 1.369 6.018 6.018 0 0 1-2.442.496v.003Zm50.179 3.48v-13.353l9.914 13.353H480v-19.962h-3.776v12.918l-9.664-12.918h-3.833v19.962h3.805Z" class="Vector"/>
  </g>
</svg>
