<svg width="480" height="155" viewBox="0 0 480 155" fill="none" xmlns="http://www.w3.org/2000/svg">
<path fill-rule="evenodd" clip-rule="evenodd" d="M112.761 0C110.497 3.61845 69.7515 67.5083 51.9824 95.3594H78.1817C81.8259 89.6311 82.8618 87.9735 86.2364 82.6664L112.924 82.4632C112.925 86.7583 112.924 91.065 112.924 95.3594H137.618C137.628 63.5777 137.595 31.7824 137.536 0.000644646L112.761 0ZM171.344 0L151.328 31.3664L151.165 31.5702L151.043 31.7733C139.11 49.9404 139.81 46.9025 151.247 65.5804L151.409 65.8648L151.572 66.1499L170.897 95.3594H197.421L170.408 54.5148C170.391 54.4857 170.384 54.4619 170.367 54.4335C168.122 50.5409 167.037 48.3253 170.204 42.839L197.543 0.000644646L171.344 0ZM207.591 0L187.576 31.3664L187.413 31.5702L187.29 31.7733C175.358 49.9404 176.058 46.9025 187.494 65.5804L187.657 65.8648L187.82 66.1499L207.144 95.3594H233.628L206.656 54.5154C206.639 54.4864 206.631 54.4625 206.615 54.4341C204.37 50.5416 203.285 48.326 206.452 42.8396L233.79 0.00128929H207.591V0ZM237.33 0V95.3594H261.129V0.000644646L237.33 0ZM344.162 0V17.8194H368.001V0H344.162ZM302.381 21.2773C281.976 21.2773 265.197 38.0563 265.197 58.4609C265.197 77.3774 279.625 93.1554 297.987 95.3594H306.733C310.533 94.9035 314.238 93.8606 317.718 92.2679V95.3594H339.564V21.9281H317.718V24.6538C313.029 22.5028 307.842 21.2773 302.381 21.2773ZM344.162 22.5789V95.3594H368.001V22.5789H344.162ZM373.574 22.7421V95.3594H395.705V54.0671C395.705 48.6472 399.724 44.6288 405.144 44.6288C410.564 44.6288 414.582 48.6472 414.582 54.0671V95.36H438.462V54.2703C438.462 48.8504 442.481 44.832 447.901 44.832C453.321 44.832 457.339 48.8504 457.339 54.2703V95.3594H479.47V54.2703C479.47 36.9727 472.522 23.1897 447.657 23.6779C439.863 23.6779 434.817 27.1377 429.96 31.8953C425.099 26.4656 417.186 23.2329 404.9 23.4741C402.083 23.4741 399.303 23.8721 396.641 24.6132V22.7427L373.574 22.7421ZM112.843 40.764C112.849 44.8404 112.877 44.6217 112.883 50.121C112.886 52.8739 112.88 54.985 112.883 57.7288L102.022 57.8101C107.227 49.6231 107.651 48.9303 112.843 40.764ZM302.381 43.4085C310.811 43.4085 317.433 50.0307 317.433 58.4609C317.433 66.891 310.811 73.5132 302.381 73.5132C293.951 73.5132 287.328 66.891 287.328 58.4609C287.328 50.0307 293.951 43.4085 302.381 43.4085Z" fill="white"/>
<path fill-rule="evenodd" clip-rule="evenodd" d="M102.697 2.51562L0 110.736H479.999V101.588H30.8955L102.697 2.51627V2.51562Z" fill="white"/>
<path fill-rule="evenodd" clip-rule="evenodd" d="M25.043 110.737H479.998V101.59H30.8944L25.043 110.737Z" fill="white"/>
<path d="M10.3572 154.563C11.8875 154.56 13.3989 154.22 14.7862 153.565C16.1505 152.953 17.361 152.037 18.3271 150.885L15.6891 148.203C15.0416 148.994 14.2375 149.637 13.329 150.091C12.4377 150.529 11.4592 150.754 10.4689 150.747C9.63326 150.756 8.80413 150.597 8.02951 150.279C7.25489 149.961 6.55015 149.49 5.95609 148.894C5.38405 148.31 4.93208 147.617 4.62645 146.854C4.29878 146.045 4.13378 145.177 4.14113 144.302C4.13221 143.419 4.29252 142.542 4.61315 141.721C4.91245 140.957 5.356 140.259 5.91886 139.668C6.48333 139.081 7.15845 138.615 7.90402 138.299C8.68095 137.964 9.51716 137.794 10.3612 137.8C11.3791 137.796 12.3839 138.033 13.2957 138.492C14.2382 138.972 15.0635 139.659 15.7117 140.503L18.4335 137.736C17.4765 136.558 16.2588 135.625 14.8793 135.013C13.4616 134.349 11.919 134.003 10.3572 134C8.96226 133.991 7.57933 134.262 6.2885 134.799C5.06556 135.302 3.94893 136.038 2.99897 136.968C2.06132 137.898 1.31552 139.008 0.805061 140.233C0.275889 141.518 0.00229628 142.896 1.43928e-05 144.288C-0.0022675 145.681 0.266807 147.06 0.791764 148.346C1.29619 149.567 2.03727 150.673 2.97105 151.598C3.92146 152.527 5.03855 153.263 6.26191 153.766C7.56146 154.304 8.95353 154.575 10.3572 154.563ZM62.9804 154.592C64.3707 154.603 65.7491 154.331 67.0345 153.794C68.2521 153.293 69.3599 152.552 70.2942 151.615C71.2284 150.678 71.9706 149.562 72.4781 148.333C73.0094 147.055 73.2832 145.683 73.2832 144.297C73.2832 142.911 73.0094 141.539 72.4781 140.261C71.9707 139.032 71.2285 137.916 70.2942 136.979C69.36 136.042 68.2521 135.301 67.0345 134.8C64.4428 133.736 61.5447 133.736 58.953 134.8C57.7353 135.301 56.6275 136.042 55.6932 136.979C54.759 137.916 54.0168 139.032 53.5094 140.261C52.9784 141.539 52.7049 142.911 52.7049 144.297C52.7049 145.683 52.9784 147.055 53.5094 148.333C54.0168 149.562 54.7591 150.678 55.6933 151.615C56.6276 152.552 57.7354 153.293 58.953 153.794C60.2301 154.329 61.5999 154.6 62.9818 154.591L62.9804 154.592ZM62.9804 150.8C62.1645 150.807 61.3558 150.644 60.6039 150.323C59.8519 150.002 59.1725 149.528 58.6073 148.931C58.0497 148.333 57.6113 147.631 57.3162 146.864C56.6865 145.207 56.6865 143.372 57.3162 141.715C57.6138 140.954 58.052 140.257 58.6073 139.663C59.1725 139.066 59.8519 138.592 60.6039 138.271C61.3558 137.95 62.1645 137.787 62.9804 137.794C63.8203 137.788 64.6524 137.958 65.4243 138.293C66.1615 138.61 66.8274 139.076 67.3816 139.663C67.9368 140.257 68.375 140.954 68.6726 141.715C69.3021 143.372 69.3021 145.207 68.6726 146.864C68.3775 147.631 67.9391 148.333 67.3816 148.931C66.8274 149.518 66.1615 149.983 65.4243 150.301C64.6527 150.635 63.8211 150.805 62.9818 150.798L62.9804 150.8ZM124.018 154.279V150.63H113.381V134.315H109.357V154.277L124.018 154.279ZM174.782 154.279V150.63H164.145V134.315H160.119V154.277L174.782 154.279ZM225.933 154.279V150.686H214.909V145.951H222.103V142.471H214.909V137.912H225.823V134.319H210.88V154.281L225.933 154.279ZM270.588 154.564C272.118 154.562 273.63 154.221 275.017 153.566C276.381 152.954 277.592 152.038 278.558 150.886L275.919 148.206C275.271 148.996 274.467 149.64 273.558 150.094C272.667 150.532 271.689 150.756 270.698 150.75C269.863 150.759 269.034 150.6 268.26 150.282C267.485 149.963 266.781 149.493 266.187 148.896C265.615 148.313 265.163 147.62 264.857 146.857C264.529 146.048 264.364 145.18 264.371 144.305C264.362 143.422 264.523 142.545 264.844 141.723C265.142 140.959 265.585 140.262 266.148 139.671C266.713 139.084 267.388 138.618 268.134 138.302C268.91 137.967 269.747 137.797 270.591 137.803C271.612 137.799 272.62 138.038 273.535 138.5C274.477 138.98 275.302 139.667 275.951 140.511L278.672 137.745C277.715 136.566 276.498 135.633 275.118 135.021C273.701 134.357 272.159 134.011 270.597 134.008C269.202 133.999 267.819 134.27 266.529 134.807C265.305 135.31 264.188 136.045 263.238 136.974C262.3 137.904 261.553 139.014 261.043 140.24C260.514 141.525 260.24 142.903 260.238 144.295C260.235 145.687 260.504 147.066 261.029 148.353C261.534 149.574 262.275 150.68 263.209 151.605C264.159 152.534 265.276 153.269 266.499 153.772C267.797 154.307 269.187 154.576 270.588 154.563V154.564ZM323.851 154.279V137.964H330.375V134.313H313.27V137.964H319.823V154.277L323.851 154.279ZM369.976 154.279V134.317H365.95V154.279H369.976ZM416.353 154.594C417.743 154.604 419.121 154.333 420.407 153.795C421.624 153.294 422.732 152.554 423.666 151.616C424.601 150.679 425.343 149.563 425.85 148.334C426.381 147.057 426.655 145.685 426.655 144.298C426.655 142.912 426.381 141.54 425.85 140.263C425.343 139.033 424.601 137.918 423.667 136.98C422.732 136.043 421.624 135.302 420.407 134.801C417.815 133.738 414.918 133.738 412.327 134.801C411.11 135.303 410.002 136.044 409.068 136.981C408.134 137.918 407.392 139.034 406.884 140.263C406.353 141.54 406.079 142.912 406.079 144.298C406.079 145.685 406.353 147.057 406.884 148.334C407.392 149.563 408.134 150.678 409.068 151.615C410.002 152.553 411.11 153.293 412.327 153.795C413.603 154.33 414.972 154.6 416.353 154.591V154.594ZM416.353 150.801C415.517 150.808 414.69 150.638 413.923 150.302C413.191 149.983 412.53 149.517 411.979 148.933C411.421 148.335 410.982 147.633 410.687 146.865C410.058 145.208 410.058 143.373 410.687 141.717C410.985 140.955 411.423 140.258 411.979 139.664C412.53 139.08 413.191 138.614 413.923 138.295C414.69 137.958 415.517 137.788 416.353 137.796C417.192 137.789 418.024 137.959 418.795 138.295C419.533 138.612 420.199 139.078 420.754 139.664C421.309 140.259 421.747 140.955 422.045 141.717C422.675 143.373 422.675 145.209 422.045 146.865C421.75 147.632 421.311 148.334 420.754 148.933C420.199 149.519 419.533 149.985 418.795 150.302C418.024 150.636 417.192 150.805 416.353 150.798V150.801ZM466.532 154.281V140.928L476.446 154.281H480V134.319H476.224V147.237L466.56 134.319H462.727V154.281H466.532Z" fill="white"/>
</svg>
