<svg width="469" height="128" viewBox="0 0 469 128" fill="none" xmlns="http://www.w3.org/2000/svg">
<path d="M137.633 0.0221744L137.631 0.026C137.673 0.0343458 137.778 0.0979795 137.778 0.612807L137.764 66.7903L137.778 66.855L137.798 66.8195L203.347 1.2714C204.11 0.387072 204.772 0.55698 204.772 0.55698L204.837 0.582021C204.966 0.640818 205.245 0.82236 205.245 1.29163L205.231 75.029L278.837 1.49956C279.478 0.751459 280.061 0.768743 280.229 0.792852L280.278 0.803751C280.278 0.803751 280.734 0.912168 280.734 1.5206V41.7055L280.751 41.8337L280.861 41.6221L321.272 1.1112C322.119 0.275418 322.386 0.577207 322.386 0.577207L322.387 0.575589L322.415 0.611357C322.473 0.705642 322.604 1.02175 322.604 1.95751L322.604 64.196L385.128 1.55054L387.426 4.566L385.13 1.54892H456.857C457.492 1.54892 457.492 1.80216 457.492 1.80216L457.495 1.80297L457.521 1.87821C457.578 2.06848 457.686 2.57969 457.323 2.9454L435.019 25.3288H397.521L387.265 35.6737L387.207 35.723L405.448 35.7239C405.658 35.6978 405.754 35.7773 405.788 35.8187L405.805 35.8428C405.805 35.8428 406.14 36.0807 405.823 36.7765L382.061 60.5369H362.094L351.212 71.44L414.114 71.4418C414.466 71.4411 414.598 71.66 414.636 71.7476L414.649 71.7808L414.676 71.8185C414.741 71.925 414.875 72.2553 414.461 72.7865L391.121 95.9676L391.122 95.9692L298.445 95.9457L298.447 95.941L291.98 95.9417C291.774 95.9502 291.64 95.8226 291.586 95.7583L291.55 95.7101C291.528 95.6721 291.493 95.543 291.763 95.271L297.629 89.38L297.629 63.23L263.549 97.2807C263.121 97.7037 262.777 97.6195 262.73 97.6053L262.728 97.61L262.636 97.5791C262.493 97.5214 262.229 97.3723 262.203 97.0469L262.138 57.615L223.051 96.6747L221.261 93.736L223.047 96.6739L181.357 96.6505C181.088 96.6545 180.702 96.3794 180.702 96.3794L183.883 93.509H183.879L180.702 96.3762L180.647 96.3347C180.501 96.2101 180.111 95.7942 180.109 94.9376L180.035 63.778L116.028 127.653L77.562 127.651C77.5556 127.655 77.0896 127.707 77.3646 127.325L112.907 91.9286L114.119 92.468L112.907 91.9262L112.843 63.588L112.842 63.585L112.841 63.5936L78.9545 97.5251C78.7619 97.736 78.3741 97.7647 78.1508 97.7621L77.9828 97.7549C77.9828 97.7549 77.3088 97.699 77.3282 96.8252L77.2651 57.1509L38.518 95.9935L38.516 95.991L0.536268 95.9923C0.416693 95.9863 0.160365 95.9395 0.372057 95.6318L95.417 0.587725C95.5212 0.49874 95.6383 0.509532 95.7141 0.5317L95.8195 0.572165C95.8822 0.600541 96.0391 0.703586 96.0391 1.02463L96.0399 41.394L137.196 0.235773C137.464 -0.101616 137.633 0.0221744 137.633 0.0221744Z" fill="white"/>
<path fill-rule="evenodd" clip-rule="evenodd" d="M467.388 8.09778C466.623 8.81625 465.602 9.21592 464.517 9.21592C463.436 9.21592 462.418 8.81625 461.657 8.09824C460.884 7.37283 460.461 6.41594 460.461 5.39251C460.461 3.28928 462.285 1.58203 464.517 1.58203C465.602 1.58203 466.623 1.9817 467.388 2.69648C468.153 3.42189 468.581 4.37555 468.581 5.39205C468.581 6.41547 468.153 7.37237 467.388 8.09778ZM462.054 3.0712C461.39 3.69172 461.033 4.51878 461.033 5.39158C461.033 6.27132 461.389 7.09514 462.054 7.7152C462.715 8.33573 463.591 8.67579 464.517 8.67579C466.445 8.67579 468.013 7.20372 468.013 5.39158C468.013 4.51878 467.648 3.69172 466.991 3.0712C466.329 2.45114 465.453 2.11431 464.517 2.11431C463.592 2.11431 462.716 2.45067 462.054 3.0712Z" fill="white"/>
<path fill-rule="evenodd" clip-rule="evenodd" d="M463.478 7.51542V5.71391H464.637L465.866 7.51542H466.575L465.312 5.6788C465.319 5.67746 465.327 5.67604 465.335 5.67451C465.582 5.62769 466.382 5.47605 466.382 4.5186C466.382 4.12587 466.241 3.77194 465.903 3.53676C465.56 3.2922 465.198 3.28825 464.588 3.28158C464.578 3.28147 464.568 3.28136 464.558 3.28125H462.891V7.51542H463.478ZM464.67 5.24771H463.478V3.75115H464.637C464.649 3.75115 464.661 3.75114 464.673 3.75113C465.002 3.7509 465.287 3.7507 465.513 3.92996C465.769 4.12633 465.781 4.41002 465.781 4.5223C465.781 4.83048 465.632 5.11094 465.216 5.20566C465.038 5.24771 464.86 5.24771 464.67 5.24771Z" fill="white"/>
</svg>
