<svg width="461" height="128" viewBox="0 0 461 128" fill="none" xmlns="http://www.w3.org/2000/svg">
<path d="M140.218 0.047565L140.215 0.0513906C140.257 0.0597364 140.362 0.12337 140.362 0.638197L140.349 66.8157L140.363 66.8804L140.383 66.8449L205.932 1.29679C206.695 0.412463 207.356 0.582371 207.356 0.582371L207.421 0.607411C207.55 0.666209 207.829 0.847751 207.829 1.31702L207.815 75.0544L281.421 1.52496C282.062 0.776849 282.645 0.794134 282.813 0.818243L282.863 0.829142C282.863 0.829142 283.318 0.937559 283.318 1.54599V41.7308L283.335 41.8591L283.445 41.6475L323.857 1.13659C324.704 0.300809 324.971 0.602598 324.971 0.602598L324.972 0.60098L324.999 0.636748C325.057 0.731033 325.188 1.04715 325.188 1.9829L325.188 64.2214L387.712 1.57593L390.01 4.59139L387.714 1.57431H459.442C460.077 1.57431 460.077 1.82755 460.077 1.82755L460.079 1.82836L460.105 1.9036C460.163 2.09387 460.271 2.60508 459.907 2.97079L437.604 25.3541H400.106L389.85 35.6991L389.791 35.7484L408.032 35.7493C408.242 35.7232 408.338 35.8027 408.373 35.8441L408.389 35.8682C408.389 35.8682 408.724 36.1061 408.408 36.8019L384.646 60.5623H364.678L353.796 71.4654L416.698 71.4672C417.05 71.4665 417.182 71.6854 417.22 71.773L417.233 71.8062L417.26 71.8439C417.325 71.9504 417.459 72.2807 417.045 72.8119L393.705 95.993L393.706 95.9946L301.029 95.9711L301.031 95.9664L294.564 95.9671C294.358 95.9756 294.224 95.848 294.17 95.7837L294.134 95.7355C294.112 95.6975 294.078 95.5684 294.348 95.2963L300.214 89.4054L300.213 63.2554L266.133 97.3061C265.706 97.7291 265.361 97.6449 265.314 97.6307L265.312 97.6354L265.221 97.6045C265.077 97.5468 264.813 97.3977 264.788 97.0723L264.722 57.6404L225.635 96.7001L223.845 93.7614L225.631 96.6993L183.941 96.6758C183.672 96.6799 183.286 96.4048 183.286 96.4048L186.467 93.5344H186.463L183.286 96.4016L183.232 96.3601C183.085 96.2355 182.695 95.8196 182.693 94.963L182.619 63.8034L118.612 127.678L80.1462 127.676C80.1398 127.68 79.6738 127.733 79.9489 127.351L115.491 91.954L116.703 92.4934L115.491 91.9516L115.427 63.6134L115.426 63.6104L115.426 63.619L81.5387 97.5505C81.3462 97.7614 80.9584 97.7901 80.735 97.7875L80.567 97.7802C80.567 97.7802 79.893 97.7244 79.9125 96.8506L79.8493 57.1763L41.1022 96.0189L41.1002 96.0164L3.1205 96.0177C3.00092 96.0117 2.74459 95.9649 2.95629 95.6572L98.0012 0.613116C98.1054 0.52413 98.2225 0.534922 98.2983 0.55709L98.4037 0.597556C98.4665 0.625932 98.6234 0.728977 98.6234 1.05002L98.6242 41.4193L139.78 0.261164C140.048 -0.076225 140.218 0.047565 140.218 0.047565Z" fill="white"/>
</svg>
