<svg width="208" height="91" viewBox="0 0 208 91" fill="none" xmlns="http://www.w3.org/2000/svg">
<path fill-rule="evenodd" clip-rule="evenodd" d="M204.469 9.33789V16.9346L189.949 18.9756V19.873L198.661 18.6494L203.995 24.1738L203.996 31.7715L189.949 33.7451V34.9678L199.133 33.6777L204.469 39.2031V46.7783L182.126 49.9189L176.79 44.3936V41.3672C176.168 42.5455 175.447 43.675 174.63 44.7529L174.627 44.7568L174.623 44.7617C173.191 46.6335 171.619 48.1938 169.893 49.3857L169.836 49.4238C169.722 49.5023 169.607 49.5793 169.491 49.6553C169.355 49.7446 169.217 49.832 169.077 49.918C168.976 49.9801 168.875 50.0412 168.772 50.1016C168.644 50.1776 168.513 50.2519 168.382 50.3252C168.304 50.3688 168.225 50.4125 168.146 50.4551C168 50.5341 167.852 50.6108 167.702 50.6865C167.583 50.7471 167.462 50.8068 167.341 50.8652C166.779 51.1356 166.198 51.3835 165.599 51.6094C165.237 51.7456 164.869 51.8717 164.494 51.9922C164.366 52.0335 164.237 52.0777 164.107 52.1172C162.683 52.5516 160.544 52.9512 157.8 53.3369H157.798L157.799 53.3379L139.31 55.9365L133.974 50.4111L131.936 45.9268L122.493 47.2539L117.754 58.9648H117.752L109.412 60.1377V60.1357L109.411 60.1367L106.286 56.9014C105.675 57.4787 105.034 58.0257 104.36 58.5371L104.354 58.541C102.794 59.7188 101.144 60.6783 99.4102 61.4131L99.3965 61.4189C97.6939 62.1286 95.9825 62.6087 94.2686 62.8496C93.2396 62.9942 92.223 63.0527 91.2197 63.0273C90.8159 63.0172 90.4141 62.9935 90.0146 62.9561C88.225 62.7884 86.4794 62.3487 84.7832 61.6445L84.7783 61.6426L84.7773 61.6416C82.794 60.8121 81.0846 59.6587 79.6611 58.1855C79.65 58.174 79.6391 58.162 79.6279 58.1504L79.5586 58.0781C79.5906 58.1119 79.622 58.1462 79.6543 58.1797L74.3242 52.6602C73.5604 51.8696 72.8789 50.9872 72.2812 50.0137L72.2764 50.0059L76.8574 54.749C76.8592 54.7502 76.8606 54.7518 76.8623 54.7529L72.2773 50.0049C71.8862 49.361 71.5419 48.6976 71.2412 48.0166C70.3953 49.3557 69.3042 50.545 67.9971 51.5791C67.9455 51.6199 67.8928 51.6592 67.8408 51.6992C67.5785 51.9012 67.311 52.0948 67.0371 52.2783C66.9058 52.3663 66.7726 52.4513 66.6387 52.5352C66.5244 52.6067 66.4091 52.6766 66.293 52.7451C65.9996 52.9182 65.7013 53.0832 65.3965 53.2373C65.42 53.2654 67.0886 55.2562 69.0439 57.5879L69.0508 57.5947L71.5576 60.584L71.5508 60.5771C71.553 60.5798 71.5554 60.5813 71.5576 60.584C73.515 62.9181 75.1878 64.9134 75.2129 64.9434L65.3848 66.3262L60.0488 60.8008L56.8086 56.8877L56.8018 56.8809L54.5889 54.209V67.8428L38.9209 70.043L33.5859 64.5195L31.5479 60.0352L22.1045 61.3623L17.3643 73.0742L9.02344 74.2461L3.6875 68.7217L19.5107 29.0576L24.8457 34.582L19.5117 29.0566L26.168 28.1211L31.5029 33.6465L41.4287 55.5918V25.9756L51.9678 24.4951C54.6728 24.115 56.9741 24.0053 58.7832 24.2461C60.561 24.4828 62.1413 25.0259 63.4512 25.9375L63.4551 25.9414C64.038 26.3424 64.5713 26.7916 65.0527 27.2891L65.0781 27.3154L70.3887 32.8135L70.3896 32.8145C70.6166 33.049 70.8313 33.2949 71.0352 33.5508C71.3743 32.6167 71.7786 31.6892 72.251 30.7705L72.2559 30.7617L77.5908 36.2871L77.5869 36.2949L77.5879 36.2959L77.5908 36.2871L72.2559 30.7617C73.8457 27.6979 76.0422 25.1238 78.8125 23.0693L79.374 22.665C82.3729 20.5594 85.5627 19.2539 88.9111 18.7832L88.9102 18.7822C92.505 18.277 95.8773 18.7281 98.9854 20.1289L98.9863 20.1299C100.766 20.9322 102.295 21.985 103.555 23.2891L108.848 28.7695C108.862 28.7845 108.877 28.7994 108.892 28.8145C109.843 29.7989 110.641 30.9266 111.279 32.1982L112.247 34.1279L119.898 14.9482L125.234 20.4736L112.062 53.4883L125.235 20.4727L119.899 14.9473L126.556 14.0127L131.892 19.5371L142.011 41.9111V11.8398L153.771 10.1885L159.105 15.7129H159.107L153.771 10.1885C157.859 9.61397 161.516 9.91108 164.659 11.1885L169.994 16.7119L169.996 16.7129L164.66 11.1875C166.544 11.9532 168.166 13.0437 169.521 14.4463L174.857 19.9717C175.578 20.7174 176.221 21.5523 176.79 22.4727V6.95215L199.133 3.8125L204.469 9.33789ZM46.7646 31.502V62.667L46.7656 31.501L46.7646 31.502ZM54.5889 53.2939L60.7285 60.7051C59.7534 59.5279 58.7454 58.311 57.835 57.2119C56.0265 55.0289 54.6033 53.3113 54.5889 53.2939ZM95.6553 31.7305C95.306 31.75 94.9442 31.7852 94.5693 31.8379C92.4653 32.1336 90.5178 32.9304 88.6895 34.2441L88.6855 34.2471C86.9053 35.5212 85.5076 37.1565 84.4746 39.2061C83.4094 41.3195 82.9111 43.315 82.9111 45.2275C82.9111 46.6154 83.1405 47.8567 83.5869 48.9717C83.6758 49.0115 83.7641 49.0519 83.8535 49.0889L84.2725 49.251L84.5674 49.3506C86.0472 49.8248 87.5397 49.9444 89.0615 49.7305L94.3965 55.2559C94.7299 55.209 95.0596 55.1473 95.3838 55.0723C95.0596 55.1473 94.7308 55.208 94.3975 55.2549L89.0615 49.7305C90.2281 49.5665 91.3378 49.2293 92.3994 48.7217L92.8525 48.4932C94.1047 47.8135 95.2142 46.9901 96.1924 46.0215L96.1963 46.0166L96.2012 46.0127C96.885 45.3409 97.6684 44.3846 98.5449 43.0947L103.635 48.3643L98.5459 43.0938L99.2305 42.0859L108.013 40.8516L109.111 41.9893L111.729 35.4258L104.414 36.4541L101.282 33.21C100.468 32.6618 99.5355 32.2471 98.4727 31.9736L98.4697 31.9727L98.4717 31.9746C97.6371 31.7599 96.7027 31.672 95.6553 31.7305ZM87.1484 53.4844C87.8135 53.9521 88.494 54.3268 89.1895 54.6143L88.7734 54.4307C88.2221 54.1727 87.6803 53.8584 87.1484 53.4844ZM85.374 51.8994C85.4844 52.0273 85.5961 52.1522 85.7109 52.2715C85.9195 52.4879 86.1354 52.6902 86.3584 52.8789C86.1352 52.6901 85.5827 52.1161 85.374 51.8994ZM85.2002 51.6963L86.3584 52.8789L85.1318 51.6094C85.1549 51.6383 85.177 51.6678 85.2002 51.6963ZM28.1758 46.0869L31.0098 52.5332L31.0117 52.5352L28.1768 46.0859L28.1758 46.0869ZM147.346 17.3662V48.5312L147.347 17.3652L147.346 17.3662ZM60.0947 37.3359C59.4743 37.3519 58.7677 37.4121 57.9688 37.5244L54.5889 37.999V42.0117C54.6693 41.9958 54.7417 41.9845 54.8047 41.9707L55.2002 41.8779L60.5361 47.4033L60.1396 47.4951L60.1406 47.4961L60.5361 47.4033C60.6051 47.3862 60.6724 47.365 60.7383 47.3477C60.7395 47.3469 60.7409 47.3464 60.7422 47.3457C60.6748 47.3635 60.6068 47.3858 60.5361 47.4033L55.2002 41.8779C56.0798 41.6593 56.7087 41.4232 57.1338 41.2031L62.1729 46.4219L62.1738 46.4209L57.1338 41.2031C57.6193 40.9427 58.1339 40.5566 58.6738 40.001C59.1362 39.5234 59.5143 38.9515 59.8027 38.252C59.9293 37.9388 60.0246 37.6337 60.0947 37.3359ZM62.9951 46.4014L62.9961 46.4004H62.9941L62.9951 46.4014ZM155.171 43.292L157.584 45.792C159.883 45.4688 161.706 45.091 163.091 44.6826C161.706 45.091 159.884 45.4678 157.585 45.791L155.171 43.292ZM65.5723 41.6875C65.5722 42.2373 65.4763 42.805 65.2744 43.4033L65.2764 43.4014C65.4778 42.8037 65.5723 42.2367 65.5723 41.6875V41.6855L61.4131 37.3789L61.4111 37.3779L65.5723 41.6875ZM163.981 23.3506C162.476 23.1038 160.371 23.1329 157.585 23.5244L157.584 23.5234L155.171 23.8633V39.7773C156.78 39.4586 158.047 39.1087 158.996 38.7393C159.696 38.4584 160.435 38.0413 161.211 37.457C161.927 36.9124 162.695 36.1431 163.505 35.0996L163.778 34.7266C164.405 33.8351 164.959 32.786 165.426 31.5586L165.425 31.5576L165.43 31.5479L170.76 37.0674L170.761 37.0664L165.43 31.5479C165.937 30.2315 166.202 28.8185 166.202 27.29L171.538 32.8154L166.203 27.291C166.203 26.0163 166.017 24.8441 165.652 23.7627C165.425 23.685 165.19 23.6165 164.946 23.5537C164.671 23.4827 164.385 23.4206 164.088 23.3691C164.052 23.363 164.016 23.3545 163.98 23.3486L163.981 23.3506ZM65.0029 39.4268L63.5068 37.876C63.5058 37.8754 63.5049 37.8746 63.5039 37.874L65.0029 39.4268ZM64.3252 38.498C64.5646 38.7461 64.7906 39.0498 64.999 39.4199L65 39.4209C64.7915 39.0507 64.5647 38.7462 64.3252 38.498C64.3202 38.4929 64.3155 38.4885 64.3105 38.4834L64.3252 38.498ZM100.518 24.4414C98.5146 24.0482 96.4214 24.0009 94.2461 24.3066L94.2471 24.3076C96.4219 24.002 98.515 24.0484 100.518 24.4414Z" fill="#E12B16"/>
<path d="M198.893 0.822083C199.785 0.750688 200.665 1.08072 201.291 1.72833L206.627 7.25372C207.167 7.81302 207.469 8.56023 207.469 9.33771V16.9344C207.469 18.4298 206.367 19.6968 204.887 19.9051L204.144 20.0086L206.153 22.0897C206.693 22.6488 206.995 23.3963 206.995 24.1736L206.996 31.7713C206.996 33.2669 205.894 34.5339 204.413 34.742L204.341 34.7518L206.627 37.119C207.167 37.6782 207.469 38.4255 207.469 39.2029V46.7781C207.469 48.2735 206.367 49.5405 204.887 49.7488L182.544 52.8895C181.593 53.0231 180.635 52.6935 179.968 52.0027L175.969 47.8621C174.649 49.3982 173.198 50.7488 171.596 51.8543C171.586 51.8612 171.576 51.868 171.566 51.8748L171.51 51.9129L171.509 51.9119L171.135 52.1649C170.972 52.2714 170.81 52.3734 170.651 52.4715C170.532 52.5449 170.414 52.6162 170.297 52.6854L169.843 52.9451C169.769 52.986 169.671 53.0409 169.57 53.0955L169.057 53.3631L168.641 53.5682C167.997 53.8783 167.335 54.1611 166.656 54.4168C166.238 54.5744 165.821 54.7161 165.413 54.8475C165.37 54.8611 165.132 54.9409 164.98 54.9871L164.979 54.9861C163.321 55.4915 160.996 55.9159 158.242 56.3035C158.233 56.3048 158.225 56.3072 158.217 56.3084L139.727 58.907C138.776 59.0407 137.818 58.7111 137.151 58.0203L131.815 52.4949C131.578 52.2488 131.384 51.9637 131.242 51.6522L130.132 49.2088L124.624 49.9832L120.535 60.0897C120.129 61.0927 119.22 61.7878 118.169 61.9344L118.17 61.9354L109.83 63.1082C109.687 63.1283 109.544 63.1361 109.401 63.1356C109.396 63.1355 109.39 63.1366 109.385 63.1365C109.382 63.1365 109.38 63.1356 109.378 63.1356C109.342 63.1352 109.306 63.1343 109.27 63.1326C109.253 63.1318 109.235 63.1308 109.218 63.1297C109.178 63.1271 109.139 63.1241 109.099 63.1199C109.093 63.1193 109.087 63.1187 109.081 63.118C108.988 63.1077 108.896 63.0928 108.805 63.074C108.797 63.0722 108.788 63.0701 108.779 63.0682C108.401 62.9865 108.04 62.8331 107.718 62.6121C107.714 62.6093 107.709 62.6071 107.705 62.6043C107.615 62.542 107.528 62.4747 107.444 62.4022C107.426 62.3864 107.408 62.3695 107.39 62.3533C107.375 62.3392 107.36 62.3248 107.345 62.3104C107.326 62.2927 107.308 62.2747 107.29 62.2567C107.278 62.2446 107.265 62.2328 107.253 62.2205L106.073 60.9998C104.354 62.2871 102.525 63.3492 100.591 64.1697L100.592 64.1707L100.551 64.1883C98.6318 64.9881 96.6735 65.5408 94.6863 65.8201H94.6854C93.4966 65.9872 92.3148 66.0558 91.1434 66.0262V66.0252C90.6727 66.0133 90.2032 65.987 89.7352 65.9432C87.6489 65.7478 85.6223 65.2355 83.6688 64.4285V64.4295L83.6639 64.4276C83.6598 64.4259 83.6562 64.4233 83.6522 64.4217C83.6459 64.4191 83.6389 64.4175 83.6326 64.4149V64.4139C83.5939 64.3979 83.5554 64.3817 83.5174 64.3641C81.2332 63.3938 79.2221 62.0401 77.5311 60.2977C77.5196 60.2861 77.5073 60.2752 77.4959 60.2635L72.1658 54.744V54.743C71.6771 54.237 71.2186 53.7018 70.7899 53.1385C70.4949 53.4048 70.1925 53.6649 69.8787 53.9139C70.3228 54.4435 70.8149 55.0309 71.3367 55.6531C71.3407 55.6579 71.3455 55.6621 71.3494 55.6668L73.8504 58.6492L73.8563 58.6561L76.409 61.7C77.0752 62.4945 77.4991 63.0006 77.5115 63.0154C78.2121 63.8508 78.4042 65.0006 78.0135 66.0184C77.6227 67.0362 76.7103 67.762 75.6307 67.9139L65.8026 69.2967C64.8515 69.4305 63.8936 69.1009 63.2264 68.41L57.8904 62.8846C57.8374 62.8297 57.7868 62.7725 57.7381 62.7137L57.5887 62.533V67.8426C57.5887 69.3383 56.4868 70.6053 55.0057 70.8133L39.3377 73.0135C38.387 73.1469 37.4295 72.8173 36.7625 72.1268L31.4276 66.6033C31.1899 66.3572 30.9959 66.0721 30.8543 65.7606L29.744 63.3172L24.2362 64.0916L20.1453 74.2C19.7434 75.1928 18.8417 75.8957 17.7811 76.0447L9.44025 77.2166C8.48955 77.3501 7.53202 77.0204 6.86506 76.3299L1.52912 70.8055C0.70947 69.9566 0.46401 68.7062 0.90119 67.6102L16.7244 27.9461L16.742 27.9031C16.7486 27.8874 16.7557 27.8719 16.7625 27.8563C16.784 27.8071 16.806 27.7584 16.8299 27.7108C16.8372 27.6962 16.8458 27.6822 16.8533 27.6678C16.8755 27.6253 16.8976 27.583 16.9217 27.5418C16.9327 27.523 16.9445 27.5047 16.9559 27.4861C16.9782 27.4498 17.0014 27.414 17.0252 27.3787C17.0395 27.3575 17.0534 27.336 17.0682 27.3152C17.0951 27.2776 17.1236 27.2412 17.1522 27.2049C17.1625 27.1917 17.1719 27.1778 17.1824 27.1649C17.2111 27.1296 17.2421 27.0962 17.2723 27.0623C17.2875 27.0453 17.3016 27.0273 17.3172 27.0106C17.4244 26.8957 17.5413 26.7907 17.6649 26.6942C17.7222 26.6493 17.7811 26.6068 17.8416 26.5662C17.8673 26.549 17.8925 26.5309 17.9188 26.5145C17.9374 26.5028 17.9565 26.4916 17.9754 26.4803C18.0113 26.4589 18.0479 26.4387 18.0848 26.4188C18.1167 26.4015 18.1489 26.3851 18.1815 26.369C18.2003 26.3597 18.2191 26.3505 18.2381 26.3416C18.3364 26.2955 18.4372 26.254 18.5408 26.2186C18.5673 26.2095 18.5941 26.2015 18.6209 26.1932C18.654 26.1829 18.687 26.1721 18.7205 26.1629C18.7441 26.1565 18.768 26.1512 18.7918 26.1453C18.8908 26.1209 18.9913 26.1001 19.0936 26.0858L25.7498 25.1502L25.9285 25.1307C26.8198 25.0593 27.7006 25.3892 28.326 26.0369L33.661 31.5623L33.8319 31.7557C33.9939 31.9553 34.1299 32.1751 34.2362 32.41L38.4285 41.6785V25.9754C38.4285 24.4798 39.5305 23.2128 41.0115 23.0047L51.5496 21.5242L52.5955 21.3875C55.0102 21.098 57.2508 21.0157 59.1785 21.2723C61.1812 21.5389 63.1189 22.1479 64.826 23.2479L65.1649 23.4754L65.1824 23.4881C65.8213 23.9298 66.4193 24.4215 66.9715 24.9637L67.2088 25.2029L67.2137 25.2078L67.2362 25.2313L70.1922 28.2918C71.9329 25.2953 74.2234 22.7379 77.0252 20.66L77.0594 20.6346L77.6209 20.2303L77.6502 20.2098C80.9833 17.8695 84.5961 16.3696 88.4383 15.8201C88.4562 15.8173 88.474 15.8139 88.492 15.8113C92.6103 15.2326 96.5592 15.7446 100.218 17.3934C100.221 17.3949 100.225 17.3967 100.228 17.3983C102.319 18.3419 104.166 19.6047 105.712 21.2039L105.713 21.2049L111.006 26.6854H111.005L111.049 26.7293C111.269 26.9575 111.481 27.1941 111.687 27.4344L117.112 13.8367L117.136 13.783C117.139 13.7749 117.142 13.7667 117.145 13.7586C117.168 13.7051 117.193 13.6522 117.219 13.6004C117.225 13.587 117.232 13.5737 117.239 13.5604C117.291 13.4602 117.349 13.364 117.412 13.2713C117.427 13.2487 117.442 13.226 117.458 13.2039C117.478 13.1759 117.498 13.1482 117.519 13.1209C117.538 13.096 117.557 13.0709 117.577 13.0467C117.6 13.0192 117.624 12.9933 117.647 12.9666C117.667 12.9444 117.686 12.9218 117.706 12.9002C117.726 12.8792 117.746 12.8591 117.766 12.8387C117.952 12.6514 118.161 12.4892 118.388 12.3563C118.415 12.341 118.441 12.3258 118.468 12.3113C118.501 12.2932 118.535 12.2765 118.569 12.2596C118.588 12.2503 118.607 12.2411 118.626 12.2322C118.669 12.2118 118.713 12.192 118.758 12.1736C118.771 12.168 118.785 12.1625 118.799 12.157C118.84 12.1408 118.882 12.1256 118.924 12.1111C118.951 12.1017 118.979 12.0925 119.007 12.0838C119.04 12.0734 119.073 12.0628 119.107 12.0535C119.133 12.0466 119.159 12.0413 119.184 12.035C119.228 12.0243 119.272 12.0135 119.316 12.0047H119.319C119.325 12.0036 119.331 12.0019 119.337 12.0008C119.385 11.9916 119.433 11.9832 119.482 11.9764L126.138 11.0418L126.316 11.0223C127.207 10.9509 128.088 11.281 128.714 11.9285L134.05 17.4529L134.221 17.6453C134.383 17.8451 134.518 18.0655 134.625 18.3006L139.011 27.9969V11.8397L139.023 11.5623C139.15 10.1898 140.205 9.06394 141.594 8.86896L153.353 7.21759L154.187 7.11115C158.327 6.63369 162.242 6.97516 165.754 8.39435C165.766 8.39902 165.778 8.40319 165.79 8.40802C168.048 9.32574 170.023 10.6481 171.679 12.3611L171.68 12.3621L173.79 14.5467V6.95197C173.79 5.45641 174.892 4.18938 176.373 3.98126L198.716 0.841614L198.893 0.822083ZM176.79 6.95197V22.4725C176.221 21.5522 175.578 20.7172 174.857 19.9715L169.521 14.4461C168.166 13.0435 166.544 11.9531 164.66 11.1873L169.996 16.7127L169.994 16.7117L164.659 11.1883C161.516 9.9109 157.859 9.61379 153.771 10.1883L159.107 15.7127H159.105L153.771 10.1883L142.011 11.8397V41.9109L131.891 19.5369L126.555 14.0125L119.899 14.9471L125.235 20.4725L112.062 53.4881L125.234 20.4734L119.898 14.9481L112.247 34.1277L111.279 32.1981C110.641 30.9264 109.843 29.7987 108.891 28.8143C108.877 28.7992 108.862 28.7843 108.847 28.7693L103.555 23.2889C102.294 21.9848 100.766 20.932 98.9862 20.1297L98.9852 20.1287C95.8771 18.7279 92.5048 18.2768 88.91 18.782L88.911 18.783C85.5625 19.2537 82.3728 20.5592 79.3738 22.6649L78.8123 23.0692C76.0421 25.1236 73.8456 27.6977 72.2557 30.7615L72.2508 30.7703C71.7784 31.689 71.3741 32.6165 71.035 33.5506C70.8312 33.2947 70.6165 33.0488 70.3895 32.8143L70.3885 32.8133L65.0779 27.3152L65.0526 27.2889C64.5711 26.7914 64.0378 26.3422 63.4549 25.9412L63.451 25.9373C62.1411 25.0257 60.5608 24.4826 58.783 24.2459C56.9739 24.0051 54.6727 24.1148 51.9676 24.4949L41.4285 25.9754V55.5916L31.5028 33.6463L26.1678 28.1209L19.5115 29.0565L24.8455 34.5818L19.5106 29.0574L3.68732 68.7215L9.02326 74.2459L17.3641 73.074L22.1043 61.3621L31.5477 60.035L33.5858 64.5193L38.9207 70.0428L54.5887 67.8426V54.2088L56.8016 56.8807L56.8084 56.8875L60.0487 60.8006L65.3846 66.326L75.2127 64.9432C75.1876 64.9132 73.5148 62.9179 71.5574 60.5838L69.0506 57.5945L69.0438 57.5877C67.0885 55.256 65.4199 53.2652 65.3963 53.2371C65.7011 53.083 65.9995 52.918 66.2928 52.7449C66.4089 52.6764 66.5242 52.6065 66.6385 52.535C66.7724 52.4511 66.9056 52.3661 67.0369 52.2781C67.3108 52.0946 67.5783 51.901 67.8406 51.699C67.8927 51.659 67.9453 51.6197 67.9969 51.5789C69.304 50.5449 70.3952 49.3555 71.241 48.0164C71.5417 48.6974 71.886 49.3608 72.2772 50.0047L76.8621 54.7527C76.8604 54.7516 76.859 54.75 76.8572 54.7488L72.2762 50.0057L72.2811 50.0135C72.8787 50.987 73.5602 51.8694 74.324 52.66L79.6541 58.1795C79.6218 58.146 79.5904 58.1117 79.5584 58.0779L79.6278 58.1502C79.6389 58.1618 79.6498 58.1738 79.661 58.1854C81.0844 59.6586 82.7939 60.8119 84.7772 61.6414L84.7781 61.6424L84.783 61.6443C86.4792 62.3485 88.2249 62.7882 90.0145 62.9559C90.414 62.9933 90.8157 63.017 91.2196 63.0272C92.2228 63.0525 93.2394 62.994 94.2684 62.8494C95.9823 62.6085 97.6937 62.1284 99.3963 61.4188L99.41 61.4129C101.144 60.6781 102.794 59.7187 104.354 58.5408L104.36 58.5369C105.034 58.0256 105.675 57.4785 106.286 56.9012L109.411 60.1365L109.412 60.1356V60.1375L117.752 58.9647H117.754L122.493 47.2537L131.935 45.9266L133.973 50.4109L139.309 55.9363L157.799 53.3377L157.798 53.3367H157.8C160.544 52.951 162.682 52.5515 164.107 52.117C164.237 52.0775 164.365 52.0334 164.494 51.992C164.868 51.8715 165.237 51.7454 165.598 51.6092C166.198 51.3833 166.779 51.1355 167.341 50.8651C167.462 50.8066 167.582 50.7469 167.702 50.6863C167.851 50.6107 168 50.5339 168.146 50.4549C168.225 50.4123 168.304 50.3686 168.382 50.325C168.513 50.2518 168.643 50.1774 168.772 50.1014C168.875 50.041 168.976 49.9799 169.077 49.9178C169.216 49.8318 169.355 49.7445 169.491 49.6551C169.607 49.5791 169.722 49.5021 169.836 49.4236L169.892 49.3856C171.619 48.1937 173.191 46.6333 174.623 44.7615L174.627 44.7567L174.63 44.7527C175.447 43.6748 176.167 42.5453 176.79 41.367V44.3934L182.126 49.9188L204.469 46.7781V39.2029L199.133 33.6776L189.949 34.9676V33.7449L203.996 31.7713L203.995 24.1736L198.661 18.6492L189.949 19.8729V18.9754L204.469 16.9344V9.33771L199.133 3.81232L176.79 6.95197ZM73.5701 58.3592L73.575 58.3641C73.5782 58.367 73.5836 58.3711 73.5897 58.3768C73.5833 58.3709 73.5782 58.366 73.575 58.3631C73.5728 58.361 73.5706 58.3587 73.5701 58.3582V58.3592ZM74.9569 57.0701C74.9631 57.0752 74.9703 57.08 74.9774 57.0858C74.9713 57.0808 74.9652 57.0765 74.9598 57.0721C74.9558 57.0688 74.9518 57.0654 74.9481 57.0623C74.9376 57.0536 74.9272 57.0448 74.9168 57.0359C74.9096 57.0298 74.9032 57.0246 74.8983 57.0203L74.8963 57.0193C74.9088 57.0302 74.9303 57.0483 74.9569 57.0701ZM95.6551 31.7303C96.7025 31.6719 97.637 31.7597 98.4715 31.9744L98.4696 31.9725L98.4725 31.9734C99.5353 32.2469 100.467 32.6616 101.282 33.2098L104.414 36.4539L111.729 35.4256L109.111 41.9891L108.013 40.8514L99.2303 42.0858L98.5457 43.0936L103.635 48.3641L98.5447 43.0945C97.6683 44.3844 96.8849 45.3407 96.201 46.0125L96.1961 46.0164L96.1922 46.0213C95.2141 46.9899 94.1045 47.8133 92.8524 48.493L92.3992 48.7215C91.3376 49.2291 90.2279 49.5663 89.0613 49.7303L94.3973 55.2547C94.5641 55.2312 94.7298 55.2041 94.8944 55.1736C94.7294 55.2044 94.5634 55.2322 94.3963 55.2557L89.0613 49.7303C87.5395 49.9442 86.0471 49.8247 84.5672 49.3504L84.2723 49.2508L83.8533 49.0887C83.7639 49.0517 83.6757 49.0113 83.5867 48.9715C83.1403 47.8565 82.911 46.6152 82.911 45.2274C82.911 43.3149 83.4092 41.3193 84.4744 39.2059C85.5074 37.1563 86.9051 35.521 88.6854 34.2469L88.6893 34.244C90.5176 32.9302 92.4651 32.1334 94.5692 31.8377C94.944 31.785 95.3059 31.7498 95.6551 31.7303ZM89.1893 54.6141C89.0678 54.5639 88.9475 54.5095 88.827 54.4539L89.1893 54.6141ZM88.827 54.4539L88.7733 54.4305C88.7597 54.4241 88.7468 54.4164 88.7332 54.41C88.7645 54.4248 88.7957 54.4395 88.827 54.4539ZM88.7332 54.41C88.6116 54.3524 88.4897 54.2934 88.369 54.2303C88.4897 54.2934 88.6115 54.3524 88.7332 54.41ZM88.369 54.2303C88.3607 54.226 88.3528 54.221 88.3446 54.2166C88.3528 54.221 88.3607 54.226 88.369 54.2303ZM87.949 53.9979C87.8332 53.9304 87.7182 53.8597 87.6033 53.7869C87.7183 53.8597 87.8332 53.9304 87.949 53.9979ZM87.6033 53.7869C87.5639 53.7619 87.5246 53.7364 87.4852 53.7108C87.5246 53.7364 87.5639 53.7619 87.6033 53.7869ZM85.3738 51.8992C85.5825 52.1159 86.135 52.6899 86.3582 52.8787C86.1352 52.69 85.9193 52.4877 85.7108 52.2713C85.5959 52.1521 85.4842 52.0271 85.3738 51.8992ZM86.3582 52.8787L85.2 51.6961C85.1768 51.6676 85.1547 51.6381 85.1317 51.6092L86.3582 52.8787ZM31.0115 52.535L31.0096 52.533L28.1756 46.0867L28.1766 46.0858L31.0115 52.535ZM60.7381 47.3475C60.6722 47.3648 60.6049 47.386 60.536 47.4031L60.1404 47.4959L60.1395 47.4949L60.536 47.4031C60.6066 47.3856 60.6746 47.3633 60.742 47.3455C60.7407 47.3462 60.7394 47.3468 60.7381 47.3475ZM97.7244 34.8797C97.2253 34.7513 96.6025 34.6819 95.8221 34.7254C95.5589 34.7401 95.2808 34.7672 94.9871 34.8084C93.3927 35.0325 91.8981 35.633 90.4403 36.6805L90.4393 36.6795C90.4365 36.6815 90.4343 36.6843 90.4315 36.6863C89.0572 37.6699 87.9742 38.9274 87.1531 40.5565C86.264 42.3207 85.911 43.8562 85.911 45.2274L85.9188 45.6121C85.9342 45.9797 85.9721 46.3221 86.0291 46.6424C86.8886 46.8463 87.7498 46.8851 88.6434 46.7596C89.4941 46.64 90.302 46.3965 91.0838 46.0252L91.4393 45.8455C92.4396 45.3004 93.3133 44.6496 94.0809 43.8895C94.0886 43.8818 94.0966 43.8746 94.1043 43.867C94.6032 43.3758 95.2606 42.5893 96.0633 41.408C96.0687 41.4001 96.0744 41.3924 96.0799 41.3846L96.7488 40.4002L96.8406 40.2713C97.3181 39.6425 98.0263 39.2256 98.8123 39.1151L102.339 38.619C102.311 38.5923 102.283 38.5658 102.256 38.5379L99.3709 35.5496C98.9144 35.2766 98.3804 35.0491 97.744 34.8836C97.7375 34.882 97.7309 34.8814 97.7244 34.8797ZM60.0946 37.3358C60.0244 37.6335 59.9291 37.9386 59.8026 38.2518C59.5141 38.9513 59.136 39.5232 58.6737 40.0008C58.1338 40.5564 57.6191 40.9425 57.1336 41.2029L62.1737 46.4207L62.1727 46.4217L57.1336 41.2029C56.7085 41.423 56.0796 41.6592 55.2 41.8777L54.8045 41.9705C54.7415 41.9843 54.6691 41.9956 54.5887 42.0115V37.9988L57.9686 37.5242C58.7676 37.4119 59.4741 37.3518 60.0946 37.3358ZM157.585 45.7908C158.404 45.6757 159.162 45.5533 159.862 45.4256C159.162 45.5536 158.403 45.6766 157.584 45.7918L155.171 43.2918L157.585 45.7908ZM160.087 45.3836C160.013 45.3975 159.938 45.4118 159.862 45.4256C159.938 45.4118 160.013 45.3976 160.087 45.3836ZM161.272 45.1434C160.898 45.2256 160.503 45.3053 160.087 45.3836C160.503 45.3054 160.898 45.2255 161.272 45.1434ZM65.5535 42.1033C65.5175 42.5223 65.4272 42.9532 65.2762 43.4012L65.2742 43.4031C65.4256 42.9544 65.5171 42.5229 65.5535 42.1033ZM61.4129 37.3787L65.5721 41.6854V41.6873L61.411 37.3777L61.4129 37.3787ZM157.585 23.5242C160.371 23.1327 162.476 23.1036 163.981 23.3504L163.98 23.3484C164.016 23.3543 164.052 23.3628 164.088 23.369C164.385 23.4205 164.671 23.4825 164.946 23.5535C165.19 23.6163 165.425 23.6848 165.652 23.7625C166.017 24.8439 166.203 26.0161 166.203 27.2908L171.538 32.8152L166.202 27.2899C166.202 28.8183 165.936 30.2313 165.43 31.5477L170.761 37.0662L170.76 37.0672L165.43 31.5477L165.425 31.5574L165.426 31.5584C164.959 32.7858 164.405 33.8349 163.778 34.7264L163.505 35.0994C162.695 36.1429 161.927 36.9123 161.211 37.4568C160.434 38.0411 159.696 38.4582 158.996 38.7391C158.046 39.1085 156.78 39.4585 155.171 39.7772V23.8631L157.584 23.5233L157.585 23.5242ZM63.5067 37.8758L65.0028 39.4266L63.5037 37.8738C63.5048 37.8744 63.5056 37.8752 63.5067 37.8758ZM64.5018 38.6951C64.6459 38.8666 64.7829 39.0612 64.9149 39.2801C64.7829 39.0614 64.6459 38.8666 64.5018 38.6951ZM163.145 26.2645C162.073 26.1406 160.457 26.1607 158.171 26.4725V35.825C158.53 35.6533 158.943 35.4085 159.407 35.0594C159.863 34.7108 160.439 34.1523 161.113 33.2869L161.342 32.9754C161.802 32.3157 162.238 31.5009 162.622 30.492C162.629 30.4733 162.635 30.454 162.642 30.4354C163.005 29.4829 163.202 28.4473 163.202 27.2899C163.202 27.284 163.202 27.2781 163.202 27.2723C163.201 26.9195 163.181 26.5842 163.145 26.2645ZM97.4422 24.1111C96.3982 24.0889 95.3327 24.1548 94.2469 24.3074L94.2459 24.3065C95.3321 24.1538 96.3979 24.0887 97.4422 24.1111ZM98.6131 24.1746H98.6141H98.6131ZM97.4471 24.1121L97.8377 24.1248C97.7062 24.1192 97.5744 24.114 97.4422 24.1111C97.4438 24.1112 97.4455 24.1121 97.4471 24.1121ZM88.3446 54.2166C88.2168 54.1493 88.0894 54.0793 87.9627 54.0057C88.0894 54.0792 88.2168 54.1494 88.3446 54.2166Z" fill="black"/>
<path d="M88.9112 18.7864C92.506 18.2812 95.8779 18.7326 98.986 20.1334C102.11 21.5415 104.459 23.7204 105.943 26.6771L107.486 29.7506L99.0781 30.9322L98.3943 30.0854C97.5501 29.0403 96.8263 28.3282 96.2276 27.8862C95.3481 27.2389 94.3235 26.758 93.1362 26.4525C92.0232 26.1662 90.7326 26.1059 89.2332 26.3166C87.1292 26.6123 85.1821 27.4089 83.3537 28.7226L83.3496 28.7258C81.5693 29.9999 80.1718 31.6354 79.1388 33.685C78.0736 35.7984 77.5748 37.7938 77.5748 39.7063C77.5749 41.366 77.9027 42.8162 78.5379 44.0913C79.2205 45.4617 80.0539 46.5386 81.0225 47.3579C82.0664 48.2266 83.1506 48.851 84.2725 49.2553C85.8492 49.8116 87.4385 49.9628 89.0616 49.7347C90.3952 49.5473 91.6533 49.1342 92.8517 48.4981C94.1044 47.8183 95.2139 46.9941 96.1924 46.0251L96.1964 46.0208L96.2005 46.0169C96.8847 45.3449 97.6688 44.3884 98.5459 43.0976L99.2303 42.09L108.013 40.8558L105.973 44.6209C105.058 46.3098 104.152 47.7457 103.249 48.8704C102.017 50.4316 100.607 51.8148 99.0246 53.0154L99.0216 53.0173L99.0187 53.0196C97.458 54.1976 95.8084 55.1572 94.0739 55.8921L94.0669 55.8949L94.0602 55.8977C92.3576 56.6074 90.6467 57.0874 88.9328 57.3283C85.634 57.7919 82.463 57.3753 79.4474 56.1235L79.4429 56.1215C76.3942 54.8468 73.9935 52.8053 72.2818 50.0168L72.2773 50.0091C70.5991 47.2466 69.7515 44.1387 69.7515 40.7192C69.7515 37.3288 70.5918 34.0012 72.2513 30.7743L72.2558 30.7654C73.9516 27.4972 76.3375 24.7871 79.3739 22.6696C82.373 20.5637 85.5625 19.2571 88.9112 18.7864Z" fill="#FFDA41"/>
<path fill-rule="evenodd" clip-rule="evenodd" d="M41.4291 61.8702V25.9801L51.9677 24.499C54.6732 24.1188 56.9746 24.0086 58.7839 24.2495C60.5617 24.4862 62.1406 25.0295 63.4504 25.9411C64.6174 26.7427 65.5849 27.7381 66.338 28.9245L66.4858 29.164L66.4947 29.1793C67.5199 30.9301 68.0393 32.8971 68.0394 35.048C68.0394 37.0367 67.6134 38.9973 66.7636 40.9032L66.7614 40.9076L66.7595 40.9116C65.858 42.9149 64.4629 44.6321 62.6612 46.0575C61.8496 46.6995 60.9805 47.2505 60.06 47.7158L69.877 59.4225L60.0481 60.8038L49.2525 47.7717V62.3211L33.5857 64.5229L28.8679 54.141L16.7683 55.8414L12.0286 67.5525L3.6875 68.7248L19.5107 29.0606L26.1671 28.1251L41.4291 61.8702ZM19.9474 47.8192L25.6758 47.0141L22.8406 40.5647L19.9474 47.8192ZM49.2525 42.8609L50.1531 42.7294C52.6509 42.3639 54.1687 42.1138 54.8044 41.9749L55.2007 41.8817C56.0803 41.6631 56.7087 41.4273 57.1338 41.2072C57.6193 40.9468 58.134 40.5612 58.674 40.0055C59.1365 39.5278 59.5149 38.9561 59.8034 38.2562C60.1011 37.5193 60.2375 36.8292 60.2375 36.1662C60.2375 35.3072 60.046 34.568 59.67 33.9102L59.6671 33.9046L59.6641 33.8994C59.2515 33.1669 58.7716 32.6939 58.2509 32.3991L58.2379 32.3919L58.2253 32.3843C57.9338 32.2131 57.3519 32.0105 56.3275 31.8863L56.3149 31.8847L56.3022 31.8827C55.4001 31.7621 54.1925 31.7836 52.6325 32.0028L49.2525 32.4779V42.8609Z" fill="#FFDA41"/>
<path fill-rule="evenodd" clip-rule="evenodd" d="M142.011 48.1885V11.8443L153.772 10.1914C157.86 9.61687 161.517 9.91416 164.66 11.1916C167.82 12.4763 170.245 14.675 171.907 17.7283C173.312 20.2877 174.026 23.1036 174.026 26.1517C174.026 28.4445 173.588 30.7377 172.726 33.0155C171.89 35.2413 170.746 37.3172 169.294 39.2314L169.291 39.236L169.287 39.2406C167.856 41.1123 166.283 42.6728 164.557 43.8647C162.859 45.0447 160.917 45.9431 158.771 46.5955C157.346 47.0299 155.208 47.43 152.464 47.8157L133.974 50.4142L129.257 40.0322L117.157 41.7327L112.417 53.4438L104.076 54.6161L119.899 14.9518L126.556 14.0163L142.011 48.1885ZM149.834 40.6097L152.249 40.2704C155.315 39.8394 157.532 39.3135 158.996 38.7438C159.697 38.4629 160.434 38.0445 161.21 37.4601C161.927 36.9155 162.695 36.1467 163.504 35.1032C164.245 34.1351 164.892 32.9652 165.426 31.562L165.428 31.5564L165.43 31.5513C165.937 30.2349 166.202 28.8229 166.202 27.2944C166.202 25.3562 165.777 23.6541 164.939 22.1498C164.318 21.0441 163.485 20.1031 162.423 19.3244C161.421 18.5895 160.177 18.0792 158.646 17.8281C157.141 17.5813 155.035 17.611 152.249 18.0026L149.834 18.342V40.6097ZM120.336 33.7104L126.065 32.9054L123.229 26.456L120.336 33.7104Z" fill="#FFDA41"/>
<path d="M199.132 11.4136L184.613 13.4542V20.6269L198.66 18.6526V26.2499L184.613 28.2241V35.7219L199.132 33.6814V41.2568L176.79 44.3969V6.95645L199.132 3.81641V11.4136Z" fill="#FFDA41"/>
<path d="M7.92436 90.289C8.55037 90.2001 9.16865 89.9725 9.73617 89.6221C10.2943 89.2911 10.7894 88.8431 11.1846 88.3114L10.1055 87.3554C9.84065 87.7191 9.5117 88.0311 9.14003 88.2711C8.77542 88.5032 8.37514 88.6521 7.97005 88.7064C7.62821 88.7582 7.28904 88.7401 6.97216 88.6532C6.65529 88.5664 6.367 88.4124 6.12398 88.2002C5.88998 87.992 5.70509 87.7316 5.58006 87.4342C5.44602 87.1187 5.37852 86.7698 5.38153 86.4079C5.37788 86.0435 5.44346 85.6721 5.57462 85.3143C5.69706 84.9815 5.8785 84.668 6.10875 84.3912C6.33966 84.1164 6.61584 83.8852 6.92083 83.7116C7.23865 83.5287 7.58072 83.4105 7.926 83.3642C8.34239 83.304 8.75342 83.3441 9.12643 83.4813C9.51198 83.6254 9.84958 83.8618 10.1147 84.1731L11.2281 82.8739C10.8367 82.4419 10.3385 82.1265 9.77424 81.9533C9.1943 81.7602 8.56324 81.7062 7.92436 81.7948C7.35373 81.8711 6.788 82.0627 6.25996 82.3586C5.75969 82.6368 5.30291 83.0051 4.9143 83.4436C4.53073 83.8817 4.22565 84.3832 4.01683 84.9187C3.80036 85.4798 3.68844 86.0649 3.68751 86.6402C3.68657 87.2155 3.79664 87.7697 4.01139 88.2709C4.21774 88.7464 4.52089 89.1606 4.90288 89.489C5.29167 89.8182 5.74864 90.0579 6.24908 90.1952C6.7807 90.3429 7.35015 90.3748 7.92436 90.289ZM29.4512 87.2759C30.0199 87.2002 30.5837 87.0089 31.1096 86.713C31.6077 86.436 32.0608 86.0664 32.443 85.6255C32.8252 85.1846 33.1288 84.6811 33.3364 84.144C33.5537 83.5859 33.6657 83.0033 33.6657 82.4306C33.6657 81.858 33.5537 81.3069 33.3364 80.8098C33.1288 80.3311 32.8252 79.9129 32.443 79.5794C32.0609 79.2459 31.6077 79.0037 31.1096 78.8667C30.0494 78.5762 28.8638 78.7428 27.8036 79.3314C27.3055 79.6084 26.8523 79.9779 26.4702 80.4189C26.088 80.8598 25.7844 81.3633 25.5768 81.9004C25.3596 82.4585 25.2477 83.0411 25.2477 83.6137C25.2477 84.1863 25.3596 84.7374 25.5768 85.2345C25.7844 85.7133 26.088 86.1314 26.4702 86.4649C26.8524 86.7984 27.3055 87.0406 27.8036 87.1776C28.3261 87.3253 28.8859 87.3592 29.4512 87.2759ZM29.4512 85.7091C29.1174 85.7589 28.7866 85.7384 28.479 85.649C28.1713 85.5595 27.8934 85.4029 27.6622 85.1888C27.4341 84.9737 27.2548 84.7088 27.134 84.4089C26.8765 83.7607 26.8765 83.0027 27.134 82.2821C27.2558 81.9505 27.4351 81.6375 27.6622 81.3599C27.8934 81.0808 28.1713 80.8461 28.479 80.6702C28.7866 80.4943 29.1174 80.3808 29.4512 80.3368C29.7947 80.2858 30.1351 80.3082 30.4509 80.4024C30.7524 80.491 31.0248 80.6451 31.2515 80.8554C31.4787 81.0692 31.6579 81.3318 31.7797 81.6292C32.0372 82.2774 32.0372 83.0354 31.7797 83.756C31.6589 84.0899 31.4796 84.4051 31.2515 84.6844C31.0248 84.9584 30.7524 85.1891 30.4509 85.3625C30.1352 85.5452 29.7945 85.6636 29.4512 85.7091ZM54.4199 83.6375V82.1298L50.0685 82.7413V76.0016L48.4226 76.233V84.4793L54.4199 83.6375ZM75.1863 80.719V79.2113L70.8349 79.8228V73.0831L69.1879 73.3146V81.5609L75.1863 80.719ZM96.1109 77.7782V76.2939L91.6013 76.9277V74.9714L94.5439 74.5579V73.1203L91.6013 73.5339V71.6506L96.0658 71.0232V69.5388L89.9532 70.3979V78.6442L96.1109 77.7782ZM114.378 75.3285C115.004 75.2396 115.622 75.012 116.19 74.6616C116.748 74.3305 117.243 73.8825 117.638 73.3509L116.559 72.3955C116.294 72.7593 115.965 73.0713 115.593 73.3112C115.229 73.5434 114.828 73.6923 114.423 73.7465C114.081 73.7982 113.742 73.7802 113.426 73.6933C113.109 73.6064 112.821 73.4524 112.578 73.2403C112.344 73.0321 112.159 72.7717 112.034 72.4742C111.9 72.1588 111.832 71.8099 111.835 71.448C111.831 71.0836 111.897 70.7121 112.028 70.3544C112.15 70.0215 112.332 69.7079 112.562 69.4314C112.793 69.1564 113.069 68.9253 113.374 68.7517C113.692 68.5687 114.034 68.4505 114.379 68.4043C114.797 68.344 115.209 68.3847 115.583 68.5231C115.969 68.6671 116.307 68.9035 116.572 69.2149L117.685 67.9157C117.294 67.4837 116.795 67.1683 116.231 66.9951C115.651 66.8021 115.02 66.748 114.382 66.8365C113.811 66.9128 113.245 67.1044 112.717 67.4003C112.217 67.6783 111.76 68.0464 111.371 68.4849C110.987 68.9229 110.682 69.4244 110.473 69.96C110.257 70.5212 110.145 71.1062 110.144 71.6815C110.143 72.2568 110.253 72.811 110.468 73.3122C110.674 73.7876 110.977 74.2018 111.359 74.5303C111.748 74.8594 112.205 75.0991 112.705 75.2365C113.236 75.3829 113.805 75.4146 114.378 75.3285ZM136.166 72.1488V65.4091L138.835 65.034V63.5257L131.838 64.5091V66.0174L134.519 65.6407V72.3792L136.166 72.1488ZM155.035 69.497V61.2507L153.388 61.4821V69.7284L155.035 69.497ZM174.007 66.9605C174.575 66.8849 175.139 66.6935 175.665 66.3976C176.163 66.1206 176.616 65.751 176.998 65.3101C177.381 64.8692 177.684 64.3657 177.892 63.8286C178.109 63.2705 178.221 62.6879 178.221 62.1153C178.221 61.5426 178.109 60.9915 177.892 60.4944C177.684 60.0157 177.381 59.5975 176.998 59.264C176.616 58.9306 176.163 58.6884 175.665 58.5514C174.605 58.2609 173.42 58.4275 172.36 59.0159C171.862 59.2932 171.409 59.6628 171.027 60.1037C170.645 60.5446 170.341 61.0479 170.133 61.5848C169.916 62.1429 169.804 62.7256 169.804 63.2982C169.804 63.8709 169.916 64.422 170.133 64.919C170.341 65.3975 170.645 65.8155 171.027 66.149C171.409 66.4825 171.862 66.7248 172.36 66.8622C172.882 67.0096 173.442 67.0427 174.007 66.9594V66.9605ZM174.007 65.3937C173.665 65.4448 173.326 65.4222 173.013 65.3272C172.713 65.2375 172.443 65.0832 172.218 64.8735C171.989 64.6585 171.81 64.3936 171.689 64.0936C171.431 63.4454 171.431 62.6874 171.689 61.9668C171.811 61.6351 171.99 61.322 172.218 61.0445C172.443 60.7715 172.713 60.5411 173.013 60.3672C173.326 60.1841 173.665 60.0663 174.007 60.0214C174.35 59.9705 174.69 59.9929 175.006 60.0871C175.307 60.1757 175.58 60.3298 175.807 60.5401C176.034 60.7538 176.213 61.0164 176.335 61.3139C176.593 61.9619 176.593 62.7201 176.335 63.4406C176.214 63.7745 176.035 64.0897 175.807 64.369C175.58 64.6431 175.307 64.8738 175.006 65.0471C174.69 65.2297 174.35 65.3474 174.007 65.3926V65.3937ZM194.534 63.9464V58.4303L198.589 63.3764L200.043 63.1721V54.9258L198.498 55.1429V60.4796L194.545 55.6985L192.977 55.9189V64.1652L194.534 63.9464Z" fill="white"/>
<path fill-rule="evenodd" clip-rule="evenodd" d="M5.19932 22.8573C5.13703 22.5677 5.16083 20.5675 5.18598 20.2147C5.58524 20.1011 5.93401 20.0627 6.28574 20.0238C6.36528 20.0151 6.44497 20.0063 6.52543 19.9966C6.68392 19.9775 6.87546 19.9446 7.08254 19.909C7.77043 19.7908 8.62988 19.6431 9.01988 19.8752C9.72902 20.2972 9.81223 21.314 9.12791 22.0019C8.75533 22.3764 8.31805 22.4458 7.82515 22.5033C7.35755 22.5579 6.90307 22.6229 6.44905 22.6878C6.03565 22.747 5.6221 22.8061 5.19932 22.8573ZM5.21062 18.6768C5.20069 18.639 5.15322 16.3379 5.20237 16.0364C5.20375 16.0281 5.20566 16.0188 5.20746 16.0102C5.20849 16.0052 5.20948 16.0004 5.21031 15.9961L5.23119 15.916C5.44746 15.8555 6.93562 15.6391 7.11061 15.6649C8.47672 15.866 8.42155 17.7976 7.19609 18.3144C6.75381 18.5009 6.16731 18.566 5.66398 18.6219C5.50167 18.6399 5.34801 18.6569 5.21062 18.6768ZM3.98814 24.4839L3.94531 24.4857C3.89969 24.2289 3.84547 23.9551 3.78218 23.6632C3.67158 23.0006 3.68283 22.4192 3.69484 21.7988C3.6978 21.6459 3.7008 21.4907 3.70204 21.3313L3.69767 16.715C3.69375 15.8282 3.69231 15.3564 4.3283 14.7904C4.78807 14.3812 5.48395 14.3226 6.09021 14.2714C6.23408 14.2593 6.37291 14.2476 6.50233 14.2317C7.42528 14.1186 7.80738 14.1547 8.40852 14.4828C8.93254 14.7688 9.37629 15.2898 9.53865 16.0995C9.70149 16.9112 9.58188 17.2157 9.43023 17.6018C9.36101 17.7781 9.28512 17.9713 9.22636 18.2375C9.27799 18.2856 9.38331 18.3294 9.51651 18.3849C9.74793 18.4812 10.0635 18.6124 10.3279 18.862C11.4815 19.9507 11.2555 21.7278 10.178 22.9248C9.36086 23.8324 8.42438 23.9338 7.34329 24.0508L7.34064 24.0511C7.28816 24.0568 7.23534 24.0625 7.18217 24.0683C6.76716 24.114 6.34954 24.1813 5.93071 24.2488C5.28433 24.353 4.63509 24.4576 3.98814 24.4839Z" fill="white"/>
<path fill-rule="evenodd" clip-rule="evenodd" d="M30.2538 12.3069C31.3209 11.6836 32.4404 11.7116 33.2389 11.9862C34.1188 12.2889 34.548 12.7472 35.0841 13.6991C35.5662 14.5553 35.3035 16.0323 34.9728 16.7423C34.029 18.7689 31.8522 19.8362 29.98 19.1721C28.1927 18.5382 27.3647 16.3112 28.3186 14.3923C28.7607 13.5027 29.2237 12.9086 30.2538 12.3069ZM30.1165 10.796C29.7886 11.0216 29.2095 11.1329 28.2897 12.0346C27.7813 12.5331 27.4417 13.0369 27.1111 13.624C25.7118 16.1091 26.5128 19.4314 29.0912 20.5196C33.2854 22.2896 38.0131 17.4885 36.6059 13.2985C35.9808 11.4372 34.2219 10.2549 32.3991 10.2939C31.8892 10.3049 30.6489 10.4296 30.1165 10.796Z" fill="white"/>
<path fill-rule="evenodd" clip-rule="evenodd" d="M62.0601 11.4544C61.8858 10.9305 62.4007 9.43481 62.6284 9.01267C63.6337 7.1484 65.2848 6.62343 66.4696 8.10889C67.0252 8.80531 67.2235 9.63285 67.2824 10.7011C67.0228 10.816 62.9445 11.3132 62.0601 11.4544ZM61.9848 16.3052C62.0762 16.0578 62.0324 13.4969 62.0309 13.0123C62.1876 12.9494 67.0789 12.2582 67.2324 12.2828C67.3213 12.5685 67.282 13.5492 67.2835 13.9282C67.285 14.2997 67.2286 15.3091 67.3151 15.5856C69.065 15.1522 68.7343 13.7289 68.7989 12.9227C68.8409 12.3997 68.7961 11.7351 68.799 11.1813C68.8027 10.492 68.8471 10.1156 68.7069 9.36153C68.3089 7.21988 66.8065 5.35098 64.5492 5.78079C62.1589 6.23592 60.8558 8.69696 60.6002 10.5916C60.5158 11.2167 60.5016 13.3359 60.5179 14.0228C60.5294 14.5109 60.4277 15.3318 60.7083 15.7424C60.9613 16.1124 61.4642 16.4683 61.9848 16.3052Z" fill="white"/>
<path fill-rule="evenodd" clip-rule="evenodd" d="M13.4267 18.248C13.2289 17.1288 14.1377 14.5208 15.9097 14.1048C17.9028 13.637 18.8068 16.7151 18.6144 17.4776C18.2903 17.6374 15.4145 17.9701 14.6899 18.0869C14.2596 18.1562 13.8119 18.1617 13.4267 18.248ZM13.3626 23.1002C13.4078 22.1674 13.3909 20.7362 13.3622 19.8307C13.5066 19.7438 18.3863 19.0488 18.5931 19.0771C18.6856 19.3878 18.62 20.3246 18.6233 20.7083C18.627 21.1242 18.5826 22.0537 18.6587 22.3946C20.1125 22.0255 20.2235 20.9213 20.1437 19.7118L20.1531 17.9793C20.1627 16.1136 19.9724 14.6353 18.6176 13.366C17.9414 12.7325 17.1261 12.4184 15.9231 12.5729C14.6055 12.7421 13.6767 13.7243 13.1055 14.4861C12.5452 15.2333 12.1061 16.3509 11.9589 17.3899C11.808 18.4552 11.8808 19.71 11.8697 20.8055C11.8643 21.3437 11.7849 22.0751 12.0612 22.5504C12.3041 22.9681 12.8317 23.229 13.3626 23.1002Z" fill="white"/>
<path fill-rule="evenodd" clip-rule="evenodd" d="M55.3309 8.73406C56.3685 8.07197 57.4433 8.57889 57.8007 9.32296C58.3004 10.3635 57.6777 11.4707 56.8503 11.9457C54.6067 13.2336 53.0674 10.1785 55.3309 8.73406ZM54.2344 13.9301C54.4518 13.9536 54.6137 14.1646 54.8496 14.3726C55.3371 14.8025 57.3635 16.6173 57.6794 16.758C58.2607 17.017 58.8555 16.7664 59.3974 16.3216C59.2722 15.9049 56.7603 14.1293 56.5446 13.6394C59.2669 12.7129 60.0664 9.92374 58.9863 8.21462C57.5398 5.92574 53.7564 6.8194 52.8615 9.88021C52.6397 10.6387 52.7479 14.2179 52.7423 15.1071L52.7405 17.2963C52.7385 17.4886 52.6872 17.5949 52.8509 17.6003C53.0517 17.6069 53.5462 17.3108 53.6763 17.1788C54.5088 16.3341 54.1066 15.3644 54.2344 13.9301Z" fill="white"/>
<path fill-rule="evenodd" clip-rule="evenodd" d="M52.0216 17.7131C51.8084 15.8324 50.152 16.609 48.9907 16.6725C48.7294 16.6868 47.7813 16.9167 47.657 16.8309L47.6167 16.7721C47.6136 16.7642 47.6042 16.7495 47.6008 16.7394C47.5516 16.5913 47.6057 15.6533 47.5938 15.3459C47.575 14.8632 47.589 14.2882 47.5982 13.8049C48.1777 13.5812 50.1965 13.5364 50.5614 13.2981C50.5104 12.5527 50.047 12.1632 49.5503 12.0698C49.0145 11.969 47.9381 12.2902 47.6258 12.2416C47.5829 12.0413 47.5553 10.1189 47.6395 9.91438L50.3328 9.52206C50.8643 9.46904 51.2301 9.30662 51.5707 8.94857C51.8169 8.6898 52.0824 8.21514 51.9985 7.78835L50.1049 8.03313C49.8532 8.06953 49.6281 8.13337 49.3835 8.1621C47.2958 8.40714 46.0281 8.27777 46.1104 10.9036C46.1431 11.9464 46.0335 16.955 46.1641 17.4823C46.4925 18.8079 48.2137 18.2978 49.37 18.1162C49.8291 18.0441 50.2328 18.021 50.6888 17.9328C51.0915 17.855 51.6498 17.8602 52.0216 17.7131Z" fill="white"/>
<path fill-rule="evenodd" clip-rule="evenodd" d="M45.6233 8.71213L42.9599 9.06722C41.9354 9.21057 41.0901 9.5063 40.2046 10.0986C36.0786 12.8587 36.9204 18.6385 41.5057 19.0727C42.3735 19.1549 43.1991 18.9504 44.1206 18.8569C44.323 18.8363 44.5501 18.7964 44.7661 18.7636C45.5004 18.6518 45.8128 18.8288 45.5273 18.1093C45.057 16.9236 43.6598 17.4721 42.7992 17.5412C41.0756 17.6795 39.6894 17.1584 39.1451 15.4661C38.6092 13.8 39.6477 12.0456 41.2049 11.1492C43.0355 10.0953 44.1456 10.9114 45.1713 9.85117C45.4343 9.57931 45.6697 9.15237 45.6233 8.71213Z" fill="white"/>
<path fill-rule="evenodd" clip-rule="evenodd" d="M22.7058 13.3782C22.8286 13.8641 22.6301 21.1953 22.7738 21.8202C24.5349 21.3227 24.1796 19.9914 24.2151 19.0514C24.2469 18.208 24.1595 13.3515 24.2448 13.2235C24.3245 13.1039 24.6089 13.1105 24.6944 13.1011C25.046 13.0622 25.9465 12.9345 26.2217 12.7874C26.8438 12.4546 27.1874 11.8781 27.1686 11.2687C26.9976 11.2346 21.0183 12.0732 20.1269 12.2113C19.7422 12.2709 19.7101 12.2965 19.8328 12.7007C20.2298 14.0087 21.7577 13.4638 22.7058 13.3782Z" fill="white"/>
</svg>
