<svg width="197" height="82" viewBox="0 0 197 82" fill="none" xmlns="http://www.w3.org/2000/svg">
<path d="M85.4034 15.5364C88.9982 15.0312 92.3701 15.4826 95.4782 16.8834C98.6023 18.2915 100.952 20.4704 102.435 23.4271L103.978 26.5006L95.5703 27.6822L94.8865 26.8354C94.0423 25.7903 93.3185 25.0782 92.7198 24.6362C91.8403 23.9889 90.8157 23.508 89.6284 23.2025C88.5154 22.9162 87.2248 22.8559 85.7254 23.0666C83.6213 23.3623 81.6743 24.1589 79.8459 25.4726L79.8418 25.4758C78.0615 26.7499 76.664 28.3854 75.631 30.435C74.5658 32.5484 74.067 34.5438 74.067 36.4563C74.067 38.116 74.3949 39.5662 75.0301 40.8413C75.7127 42.2117 76.5461 43.2886 77.5147 44.1079C78.5585 44.9766 79.6427 45.601 80.7647 46.0053C82.3414 46.5616 83.9307 46.7128 85.5538 46.4847C86.8874 46.2973 88.1455 45.8842 89.3439 45.2481C90.5966 44.5683 91.7061 43.7441 92.6845 42.7751L92.6886 42.7708L92.6927 42.7669C93.3769 42.0949 94.161 41.1384 95.0381 39.8476L95.7225 38.84L104.505 37.6058L102.465 41.3709C101.55 43.0598 100.644 44.4957 99.7414 45.6204C98.5093 47.1816 97.0991 48.5648 95.5168 49.7654L95.5138 49.7673L95.5108 49.7696C93.9501 50.9476 92.3006 51.9072 90.5661 52.6421L90.5591 52.6449L90.5524 52.6477C88.8498 53.3574 87.1389 53.8374 85.4249 54.0783C82.1262 54.5419 78.9552 54.1253 75.9396 52.8735L75.9351 52.8715C72.8864 51.5968 70.4857 49.5553 68.7739 46.7668L68.7695 46.7591C67.0913 43.9966 66.2437 40.8887 66.2437 37.4692C66.2437 34.0788 67.084 30.7512 68.7435 27.5243L68.748 27.5154C70.4438 24.2472 72.8296 21.5371 75.8661 19.4196C78.8652 17.3137 82.0547 16.0071 85.4034 15.5364Z" fill="white"/>
<path fill-rule="evenodd" clip-rule="evenodd" d="M37.9213 58.6202V22.7301L48.4599 21.249C51.1654 20.8688 53.4668 20.7586 55.2761 20.9995C57.0539 21.2362 58.6328 21.7795 59.9426 22.6911C61.1095 23.4927 62.0771 24.4881 62.8302 25.6745L62.978 25.914L62.9869 25.9293C64.0121 27.6801 64.5315 29.6471 64.5315 31.798C64.5315 33.7867 64.1056 35.7473 63.2558 37.6532L63.2536 37.6576L63.2517 37.6616C62.3502 39.6649 60.9551 41.3821 59.1534 42.8075C58.3418 43.4495 57.4727 44.0005 56.5522 44.4658L66.3692 56.1725L56.5403 57.5538L45.7447 44.5217V59.0711L30.0779 61.2729L25.3601 50.891L13.2605 52.5914L8.52078 64.3025L0.179688 65.4748L16.0028 25.8106L22.6593 24.8751L37.9213 58.6202ZM16.4396 44.5692L22.168 43.7641L19.3328 37.3147L16.4396 44.5692ZM45.7447 39.6109L46.6453 39.4794C49.143 39.1139 50.6609 38.8638 51.2966 38.7249L51.6929 38.6317C52.5725 38.4131 53.2009 38.1773 53.626 37.9572C54.1115 37.6968 54.6262 37.3112 55.1661 36.7555C55.6287 36.2778 56.0071 35.7061 56.2955 35.0062C56.5933 34.2693 56.7297 33.5792 56.7297 32.9162C56.7297 32.0572 56.5381 31.318 56.1622 30.6602L56.1592 30.6546L56.1563 30.6494C55.7437 29.9169 55.2637 29.4439 54.7431 29.1491L54.7301 29.1419L54.7175 29.1343C54.426 28.9631 53.844 28.7605 52.8197 28.6363L52.8071 28.6347L52.7944 28.6327C51.8923 28.5121 50.6847 28.5336 49.1247 28.7528L45.7447 29.2279V39.6109Z" fill="white"/>
<path fill-rule="evenodd" clip-rule="evenodd" d="M138.503 44.9385V8.59427L150.264 6.94139C154.352 6.36687 158.009 6.66416 161.152 7.94163C164.313 9.22633 166.737 11.425 168.399 14.4783C169.804 17.0377 170.518 19.8536 170.518 22.9017C170.518 25.1945 170.08 27.4877 169.218 29.7655C168.383 31.9913 167.238 34.0672 165.786 35.9814L165.783 35.986L165.779 35.9906C164.348 37.8623 162.775 39.4228 161.049 40.6147C159.351 41.7947 157.409 42.6931 155.263 43.3455C153.838 43.7799 151.7 44.18 148.956 44.5657L130.467 47.1642L125.749 36.7822L113.649 38.4827L108.91 50.1938L100.568 51.3661L116.392 11.7018L123.048 10.7663L138.503 44.9385ZM146.327 37.3597L148.741 37.0204C151.808 36.5894 154.024 36.0635 155.488 35.4938C156.189 35.2129 156.926 34.7945 157.703 34.2101C158.419 33.6655 159.187 32.8967 159.996 31.8532C160.737 30.8851 161.384 29.7152 161.918 28.312L161.92 28.3064L161.922 28.3013C162.429 26.9849 162.695 25.5729 162.695 24.0444C162.695 22.1062 162.269 20.4041 161.431 18.8998C160.81 17.7941 159.977 16.8531 158.915 16.0744C157.913 15.3395 156.669 14.8292 155.139 14.5781C153.634 14.3313 151.528 14.361 148.741 14.7526L146.327 15.092V37.3597ZM116.828 30.4604L122.557 29.6554L119.722 23.206L116.828 30.4604Z" fill="white"/>
<path d="M195.624 8.16363L181.105 10.2042V17.3769L195.152 15.4026V22.9999L181.105 24.9741V32.4719L195.624 30.4314V38.0068L173.282 41.1469V3.70645L195.624 0.566406V8.16363Z" fill="white"/>
<path d="M4.41655 81.6797C5.04256 81.5907 5.66084 81.3631 6.22835 81.0127C6.78645 80.6818 7.2816 80.2337 7.67682 79.702L6.59768 78.746C6.33283 79.1098 6.00389 79.4218 5.63222 79.6618C5.26761 79.8938 4.86733 80.0428 4.46224 80.097C4.1204 80.1488 3.78123 80.1307 3.46435 80.0439C3.14747 79.957 2.85918 79.803 2.61617 79.5909C2.38216 79.3826 2.19727 79.1222 2.07225 78.8248C1.93821 78.5093 1.87071 78.1604 1.87372 77.7986C1.87007 77.4341 1.93564 77.0627 2.06681 76.705C2.18924 76.3722 2.37069 76.0586 2.60094 75.7819C2.83185 75.507 3.10802 75.2759 3.41302 75.1022C3.73084 74.9193 4.07291 74.8011 4.41818 74.7548C4.83458 74.6946 5.24561 74.7347 5.61862 74.8719C6.00417 75.0161 6.34177 75.2524 6.60692 75.5638L7.72033 74.2645C7.32886 73.8326 6.83072 73.5171 6.26643 73.3439C5.68649 73.1508 5.05542 73.0968 4.41655 73.1854C3.84591 73.2617 3.28019 73.4533 2.75215 73.7492C2.25187 74.0274 1.79509 74.3957 1.40649 74.8343C1.02292 75.2724 0.717834 75.7738 0.509017 76.3093C0.292547 76.8705 0.180627 77.4555 0.179693 78.0308C0.17876 78.6061 0.288831 79.1603 0.503578 79.6616C0.709923 80.137 1.01308 80.5512 1.39507 80.8796C1.78385 81.2088 2.24083 81.4485 2.74127 81.5858C3.27288 81.7335 3.84234 81.7654 4.41655 81.6797ZM25.9433 78.6665C26.5121 78.5909 27.0759 78.3995 27.6018 78.1036C28.0998 77.8266 28.553 77.457 28.9352 77.0161C29.3174 76.5752 29.621 76.0717 29.8286 75.5346C30.0459 74.9765 30.1579 74.3939 30.1579 73.8212C30.1579 73.2486 30.0459 72.6975 29.8286 72.2004C29.621 71.7217 29.3174 71.3035 28.9352 70.97C28.553 70.6366 28.0999 70.3944 27.6018 70.2574C26.5416 69.9668 25.356 70.1334 24.2958 70.722C23.7977 70.999 23.3445 71.3686 22.9623 71.8095C22.5802 72.2504 22.2765 72.7539 22.069 73.291C21.8518 73.8491 21.7399 74.4317 21.7399 75.0043C21.7399 75.577 21.8518 76.1281 22.069 76.6252C22.2766 77.1039 22.5802 77.522 22.9624 77.8555C23.3445 78.189 23.7977 78.4312 24.2958 78.5682C24.8183 78.7159 25.3781 78.7498 25.9433 78.6665ZM25.9433 77.0997C25.6096 77.1495 25.2788 77.1291 24.9711 77.0396C24.6635 76.9501 24.3856 76.7936 24.1544 76.5795C23.9263 76.3643 23.747 76.0994 23.6262 75.7995C23.3686 75.1514 23.3686 74.3933 23.6262 73.6728C23.748 73.3411 23.9273 73.0281 24.1544 72.7505C24.3856 72.4714 24.6635 72.2367 24.9711 72.0608C25.2788 71.8849 25.6096 71.7714 25.9433 71.7274C26.2869 71.6765 26.6273 71.6988 26.9431 71.793C27.2446 71.8816 27.517 72.0357 27.7437 72.2461C27.9709 72.4598 28.1501 72.7224 28.2719 73.0199C28.5294 73.6681 28.5294 74.4261 28.2719 75.1466C28.1511 75.4805 27.9718 75.7957 27.7437 76.075C27.517 76.349 27.2446 76.5797 26.9431 76.7531C26.6274 76.9358 26.2867 77.0542 25.9433 77.0997ZM50.9121 75.0281V73.5204L46.5607 74.132V67.3923L44.9148 67.6236V75.8699L50.9121 75.0281ZM71.6785 72.1096V70.6019L67.3271 71.2134V64.4737L65.6801 64.7052V72.9515L71.6785 72.1096ZM92.6031 69.1688V67.6845L88.0935 68.3183V66.362L91.0361 65.9485V64.5109L88.0935 64.9245V63.0412L92.558 62.4138V60.9294L86.4454 61.7885V70.0348L92.6031 69.1688ZM110.87 66.7191C111.496 66.6303 112.115 66.4027 112.682 66.0522C113.24 65.7211 113.735 65.2731 114.13 64.7415L113.051 63.7861C112.786 64.1499 112.457 64.4619 112.085 64.7019C111.721 64.934 111.32 65.0829 110.915 65.1371C110.574 65.1889 110.234 65.1708 109.918 65.0839C109.601 64.997 109.313 64.843 109.07 64.6309C108.836 64.4227 108.651 64.1623 108.526 63.8649C108.392 63.5494 108.324 63.2005 108.327 62.8387C108.323 62.4742 108.389 62.1027 108.52 61.745C108.642 61.4122 108.824 61.0986 109.054 60.822C109.285 60.5471 109.561 60.3159 109.866 60.1423C110.184 59.9594 110.526 59.8411 110.871 59.7949C111.289 59.7346 111.702 59.7753 112.076 59.9137C112.461 60.0578 112.799 60.2941 113.064 60.6056L114.177 59.3063C113.786 58.8744 113.288 58.5589 112.723 58.3857C112.144 58.1928 111.513 58.1387 110.874 58.2271C110.303 58.3034 109.738 58.495 109.21 58.7909C108.709 59.0689 108.252 59.4371 107.863 59.8755C107.48 60.3136 107.174 60.815 106.965 61.3507C106.749 61.9118 106.637 62.4968 106.636 63.0721C106.635 63.6474 106.745 64.2016 106.96 64.7029C107.166 65.1782 107.47 65.5924 107.851 65.9209C108.24 66.25 108.697 66.4897 109.198 66.6271C109.729 66.7736 110.297 66.8052 110.87 66.7191ZM132.659 63.5394V56.7997L135.328 56.4246V54.9163L128.33 55.8998V57.4081L131.011 57.0313V63.7699L132.659 63.5394ZM151.527 60.8876V52.6413L149.88 52.8728V61.1191L151.527 60.8876ZM170.499 58.3512C171.067 58.2755 171.631 58.0841 172.157 57.7882C172.655 57.5112 173.108 57.1416 173.491 56.7007C173.873 56.2598 174.176 55.7563 174.384 55.2192C174.601 54.6611 174.713 54.0785 174.713 53.5059C174.713 52.9333 174.601 52.3822 174.384 51.8851C174.176 51.4063 173.873 50.9882 173.491 50.6547C173.108 50.3212 172.655 50.079 172.157 49.942C171.097 49.6515 169.912 49.8181 168.852 50.4065C168.354 50.6838 167.901 51.0535 167.519 51.4943C167.137 51.9352 166.833 52.4385 166.625 52.9755C166.408 53.5336 166.296 54.1162 166.296 54.6889C166.296 55.2615 166.408 55.8127 166.625 56.3096C166.833 56.7882 167.137 57.2062 167.519 57.5396C167.901 57.8731 168.354 58.1155 168.852 58.2528C169.374 58.4002 169.934 58.4333 170.499 58.3501V58.3512ZM170.499 56.7844C170.157 56.8355 169.819 56.8128 169.505 56.7179C169.205 56.6281 168.935 56.4738 168.71 56.2641C168.481 56.0491 168.302 55.7843 168.181 55.4842C167.924 54.836 167.924 54.078 168.181 53.3575C168.303 53.0257 168.482 52.7126 168.71 52.4351C168.935 52.1621 169.205 51.9318 169.505 51.7578C169.819 51.5747 170.157 51.4569 170.499 51.412C170.842 51.3611 171.182 51.3835 171.498 51.4777C171.8 51.5663 172.072 51.7204 172.299 51.9307C172.526 52.1444 172.705 52.4071 172.827 52.7045C173.085 53.3526 173.085 54.1107 172.827 54.8312C172.706 55.1651 172.527 55.4803 172.299 55.7596C172.072 56.0337 171.8 56.2644 171.498 56.4378C171.182 56.6204 170.842 56.738 170.499 56.7832V56.7844ZM191.026 55.337V49.8209L195.081 54.767L196.535 54.5627V46.3164L194.99 46.5335V51.8702L191.037 47.0891L189.469 47.3095V55.5558L191.026 55.337Z" fill="white"/>
<path fill-rule="evenodd" clip-rule="evenodd" d="M1.69151 20.7948C1.62921 20.5052 1.65302 18.505 1.67817 18.1522C2.07743 18.0386 2.4262 18.0002 2.77793 17.9613C2.85746 17.9526 2.93715 17.9438 3.01761 17.9341C3.17611 17.915 3.36764 17.8821 3.57473 17.8465C4.26261 17.7283 5.12207 17.5806 5.51207 17.8127C6.22121 18.2347 6.30442 19.2515 5.6201 19.9394C5.24752 20.3139 4.81024 20.3833 4.31734 20.4408C3.84973 20.4954 3.39526 20.5604 2.94123 20.6253C2.52784 20.6845 2.11428 20.7436 1.69151 20.7948ZM1.70281 16.6143C1.69287 16.5765 1.6454 14.2754 1.69456 13.9739C1.69593 13.9656 1.69785 13.9563 1.69964 13.9477C1.70067 13.9427 1.70166 13.9379 1.70249 13.9336L1.72338 13.8535C1.93965 13.793 3.42781 13.5766 3.60279 13.6024C4.96891 13.8035 4.91374 15.7351 3.68828 16.2519C3.246 16.4384 2.6595 16.5035 2.15617 16.5594C1.99386 16.5774 1.84019 16.5944 1.70281 16.6143ZM0.480324 22.4214L0.437497 22.4232C0.391876 22.1664 0.337662 21.8926 0.274371 21.6007C0.163772 20.9381 0.175022 20.3567 0.187028 19.7363C0.189986 19.5834 0.192991 19.4282 0.19423 19.2688L0.18986 14.6525C0.18594 13.7657 0.184494 13.2939 0.820488 12.7279C1.28026 12.3187 1.97614 12.2601 2.5824 12.2089C2.72627 12.1968 2.86509 12.1851 2.99452 12.1692C3.91747 12.0561 4.29957 12.0922 4.90071 12.4203C5.42472 12.7063 5.86848 13.2273 6.03084 14.037C6.19368 14.8487 6.07407 15.1532 5.92242 15.5393C5.8532 15.7156 5.77731 15.9088 5.71855 16.175C5.77018 16.2231 5.8755 16.2669 6.0087 16.3224C6.24011 16.4187 6.55568 16.5499 6.82008 16.7995C7.97368 17.8882 7.74767 19.6653 6.67015 20.8623C5.85304 21.7699 4.91657 21.8713 3.83547 21.9883L3.83283 21.9886C3.78035 21.9943 3.72753 22 3.67436 22.0058C3.25934 22.0515 2.84172 22.1188 2.4229 22.1863C1.77652 22.2905 1.12728 22.3951 0.480324 22.4214Z" fill="white"/>
<path fill-rule="evenodd" clip-rule="evenodd" d="M26.746 10.2444C27.813 9.6211 28.9326 9.64905 29.7311 9.92373C30.611 10.2264 31.0402 10.6847 31.5763 11.6366C32.0584 12.4928 31.7957 13.9698 31.465 14.6798C30.5211 16.7064 28.3444 17.7737 26.4722 17.1096C24.6848 16.4757 23.8569 14.2487 24.8107 12.3298C25.2529 11.4402 25.7159 10.8461 26.746 10.2444ZM26.6087 8.7335C26.2808 8.95912 25.7017 9.0704 24.7819 9.97214C24.2735 10.4706 23.9339 10.9744 23.6033 11.5615C22.204 14.0466 23.005 17.3689 25.5834 18.4571C29.7776 20.2271 34.5053 15.426 33.0981 11.236C32.473 9.37466 30.7141 8.19241 28.8913 8.23143C28.3814 8.24236 27.1411 8.36713 26.6087 8.7335Z" fill="white"/>
<path fill-rule="evenodd" clip-rule="evenodd" d="M58.5523 9.39188C58.378 8.86796 58.8929 7.37231 59.1206 6.95017C60.1259 5.0859 61.7769 4.56093 62.9618 6.04639C63.5174 6.74281 63.7157 7.57035 63.7746 8.63857C63.515 8.75346 59.4367 9.25075 58.5523 9.39188ZM58.477 14.2427C58.5683 13.9953 58.5246 11.4344 58.5231 10.9498C58.6798 10.8869 63.5711 10.1957 63.7246 10.2203C63.8135 10.506 63.7742 11.4867 63.7757 11.8657C63.7772 12.2372 63.7208 13.2466 63.8073 13.5231C65.5571 13.0897 65.2265 11.6664 65.2911 10.8602C65.3331 10.3372 65.2883 9.67259 65.2912 9.11884C65.2949 8.42954 65.3393 8.05312 65.1991 7.29903C64.801 5.15738 63.2987 3.28848 61.0414 3.71829C58.6511 4.17342 57.348 6.63446 57.0924 8.52914C57.008 9.15424 56.9938 11.2734 57.01 11.9603C57.0216 12.4484 56.9199 13.2693 57.2005 13.6799C57.4535 14.0499 57.9564 14.4058 58.477 14.2427Z" fill="white"/>
<path fill-rule="evenodd" clip-rule="evenodd" d="M9.91888 16.1855C9.72112 15.0663 10.6299 12.4583 12.4019 12.0423C14.395 11.5745 15.299 14.6526 15.1066 15.4151C14.7825 15.5749 11.9067 15.9076 11.182 16.0244C10.7518 16.0937 10.3041 16.0992 9.91888 16.1855ZM9.85476 21.0377C9.90001 20.1049 9.88305 18.6737 9.85437 17.7682C9.99874 17.6813 14.8785 16.9863 15.0853 17.0146C15.1777 17.3253 15.1122 18.2621 15.1155 18.6458C15.1191 19.0617 15.0748 19.9912 15.1509 20.3321C16.6047 19.963 16.7157 18.8588 16.6359 17.6493L16.6453 15.9168C16.6549 14.0511 16.4646 12.5728 15.1098 11.3035C14.4336 10.67 13.6183 10.3559 12.4152 10.5104C11.0977 10.6796 10.1689 11.6618 9.59767 12.4236C9.03741 13.1708 8.59833 14.2884 8.45113 15.3274C8.30022 16.3927 8.37296 17.6475 8.3619 18.743C8.35649 19.2812 8.27706 20.0126 8.5534 20.4879C8.79629 20.9056 9.32391 21.1665 9.85476 21.0377Z" fill="white"/>
<path fill-rule="evenodd" clip-rule="evenodd" d="M51.8231 6.67156C52.8607 6.00947 53.9355 6.51639 54.2929 7.26046C54.7926 8.30099 54.1698 9.40825 53.3425 9.88318C51.0989 11.1711 49.5595 8.11603 51.8231 6.67156ZM50.7265 11.8676C50.9439 11.8911 51.1059 12.1021 51.3418 12.3101C51.8293 12.74 53.8557 14.5548 54.1716 14.6955C54.7529 14.9545 55.3477 14.7039 55.8896 14.2591C55.7644 13.8424 53.2525 12.0668 53.0368 11.5769C55.7591 10.6504 56.5586 7.86124 55.4785 6.15212C54.032 3.86324 50.2486 4.7569 49.3537 7.81771C49.1319 8.57624 49.2401 12.1554 49.2345 13.0446L49.2327 15.2338C49.2307 15.4261 49.1794 15.5324 49.3431 15.5378C49.5439 15.5444 50.0384 15.2483 50.1685 15.1163C51.001 14.2716 50.5988 13.3019 50.7265 11.8676Z" fill="white"/>
<path fill-rule="evenodd" clip-rule="evenodd" d="M48.5138 15.6506C48.3006 13.7699 46.6442 14.5465 45.4829 14.61C45.2216 14.6243 44.2735 14.8542 44.1491 14.7684L44.1089 14.7096C44.1057 14.7017 44.0964 14.687 44.093 14.6769C44.0438 14.5288 44.0979 13.5908 44.086 13.2834C44.0671 12.8007 44.0812 12.2257 44.0904 11.7424C44.6699 11.5187 46.6887 11.4739 47.0536 11.2356C47.0026 10.4902 46.5392 10.1007 46.0425 10.0073C45.5067 9.90654 44.4303 10.2277 44.118 10.1791C44.0751 9.97885 44.0475 8.05639 44.1317 7.85188L46.825 7.45956C47.3565 7.40654 47.7222 7.24412 48.0629 6.88607C48.3091 6.6273 48.5745 6.15264 48.4907 5.72585L46.5971 5.97063C46.3454 6.00703 46.1203 6.07087 45.8756 6.0996C43.788 6.34464 42.5202 6.21527 42.6026 8.84114C42.6352 9.88388 42.5257 14.8925 42.6563 15.4198C42.9847 16.7454 44.7059 16.2353 45.8622 16.0537C46.3213 15.9816 46.725 15.9585 47.181 15.8703C47.5837 15.7925 48.142 15.7977 48.5138 15.6506Z" fill="white"/>
<path fill-rule="evenodd" clip-rule="evenodd" d="M42.1154 6.64963L39.4521 7.00472C38.4276 7.14807 37.5822 7.4438 36.6968 8.03614C32.5707 10.7962 33.4126 16.576 37.9979 17.0102C38.8657 17.0924 39.6913 16.8879 40.6128 16.7944C40.8152 16.7738 41.0422 16.7339 41.2583 16.7011C41.9926 16.5893 42.305 16.7663 42.0195 16.0468C41.5491 14.8611 40.152 15.4096 39.2914 15.4787C37.5678 15.617 36.1816 15.0959 35.6372 13.4036C35.1013 11.7375 36.1399 9.98308 37.6971 9.08666C39.5277 8.03279 40.6378 8.84893 41.6635 7.78867C41.9264 7.51681 42.1619 7.08987 42.1154 6.64963Z" fill="white"/>
<path fill-rule="evenodd" clip-rule="evenodd" d="M19.198 11.3157C19.3208 11.8016 19.1223 19.1328 19.266 19.7577C21.0271 19.2602 20.6718 17.9289 20.7073 16.9889C20.7391 16.1455 20.6517 11.289 20.737 11.161C20.8166 11.0414 21.1011 11.048 21.1866 11.0386C21.5382 10.9997 22.4387 10.872 22.7139 10.7249C23.336 10.3921 23.6796 9.81562 23.6608 9.20615C23.4898 9.17208 17.5105 10.0107 16.6191 10.1488C16.2344 10.2084 16.2023 10.234 16.3249 10.6382C16.722 11.9462 18.2498 11.4013 19.198 11.3157Z" fill="white"/>
</svg>
