<svg width="500" height="145" viewBox="0 0 500 145" fill="none" xmlns="http://www.w3.org/2000/svg">
<path d="M491.334 4.33984H494.603V4.99369H493.32V8.67684H492.612V4.99369H491.334V4.33984Z" fill="white"/>
<path d="M495.227 4.33984H496.222L497.338 7.73506H497.35L498.436 4.33984H499.42V8.67684H498.748V5.33561H498.736L497.614 8.68284H497.032L495.91 5.33561H495.898V8.68284H495.227V4.33984Z" fill="white"/>
<path fill-rule="evenodd" clip-rule="evenodd" d="M278.555 8.80201C279.106 8.35116 279.652 7.9029 280.194 7.45744C281.519 6.36928 282.824 5.29777 284.144 4.24566C284.979 3.58007 285.84 2.9299 286.755 2.38252C287.904 1.6938 288.539 1.94307 288.729 3.26141C288.854 4.13369 288.877 5.01943 288.9 5.90629C288.915 6.46943 288.929 7.03331 288.97 7.59418C289.018 8.23578 289.112 8.87371 289.207 9.51219C289.249 9.79947 289.292 10.0869 289.33 10.3748C289.413 10.3889 289.497 10.4038 289.579 10.4186C289.647 10.4307 289.715 10.4428 289.782 10.4544C289.925 10.3172 290.066 10.1768 290.206 10.0364C290.499 9.74282 290.793 9.44915 291.111 9.18492C291.992 8.4513 292.877 7.72375 293.762 6.9963C295.181 5.83051 296.599 4.66461 297.998 3.47471C298.97 2.64978 299.864 1.72978 300.748 0.80977C301.722 -0.200183 302.208 -0.292697 303.212 0.686417C305.71 3.12264 308.105 5.6231 310.226 8.43966C313.255 12.4641 315.401 16.8379 316.779 21.6359C317.665 24.7223 317.935 27.8446 317.218 31.0133C316.994 32.0037 316.777 32.9954 316.559 33.987C316.157 35.8205 315.754 37.6537 315.314 39.4784C315.106 40.3367 314.774 41.2027 314.317 41.9531C314.14 42.2452 313.964 42.5379 313.787 42.8307L313.787 42.8317C312.6 44.8029 311.409 46.7802 310.035 48.6167C308.491 50.6803 306.795 52.672 304.927 54.4452C302.758 56.5011 300.172 58.0404 297.366 59.13C297.014 59.2662 296.425 59.0581 296.053 58.8345C295.159 58.2953 294.291 57.7123 293.423 57.1295L293.42 57.1276C293.119 56.9249 292.817 56.7223 292.514 56.5216C292.441 56.4737 292.37 56.4229 292.298 56.3721C292.124 56.2486 291.95 56.1248 291.759 56.0411C290.314 55.3986 289.649 55.838 289.633 57.3979C289.617 59.1381 289.594 60.8783 289.57 62.6185L289.57 62.6217C289.522 66.2488 289.474 69.876 289.484 73.5032C289.485 73.8711 289.48 74.241 289.475 74.6116C289.443 76.9222 289.411 79.2587 290.875 81.3027C291.198 81.7552 291.57 82.1746 291.941 82.5924C292.021 82.6824 292.101 82.7724 292.18 82.8626C293.18 84.0011 293.082 84.6384 291.712 85.3322C291.073 85.6558 290.418 85.9509 289.763 86.246C289.29 86.4595 288.816 86.6729 288.348 86.8973C287.328 87.3874 286.309 87.8812 285.291 88.375C283.784 89.1058 282.277 89.8364 280.765 90.5542C280.399 90.7287 280.009 90.8541 279.512 91.0143C279.255 91.097 278.969 91.1891 278.642 91.302C278.722 90.9878 278.779 90.7107 278.83 90.4624C278.925 89.998 279 89.6346 279.164 89.3181C281.094 85.5944 281.317 81.5828 281.248 77.5147C281.226 76.2699 281.214 75.025 281.201 73.7802C281.195 73.2467 281.19 72.7132 281.184 72.1797C281.174 71.3506 281.16 70.5212 281.145 69.6917L281.145 69.6899C281.114 67.8902 281.083 66.0892 281.099 64.2903C281.113 62.6868 281.159 61.084 281.205 59.4815C281.249 57.9484 281.293 56.4149 281.31 54.882C281.322 53.7922 281.292 52.7024 281.262 51.6126C281.237 50.6979 281.212 49.7833 281.212 48.8686C281.212 47.1044 281.234 45.3392 281.257 43.5742V43.5731L281.257 43.5715C281.27 42.5299 281.283 41.4884 281.292 40.4472V40.445C281.312 38.2305 281.333 36.016 281.33 33.8015C281.328 32.2692 281.319 30.7369 281.311 29.2045C281.3 27.2007 281.289 25.197 281.292 23.1932C281.294 20.8469 281.299 18.4981 281.392 16.1544C281.492 13.5974 280.945 11.3153 278.994 9.51386C278.922 9.44674 278.872 9.35686 278.786 9.2016C278.73 9.10128 278.659 8.97356 278.557 8.80715L278.555 8.80201ZM289.973 45.2914C289.5 47.9589 290.224 50.1458 291.982 52.0064C293.455 53.5637 294.485 54.5094 295.958 53.9415C296.783 53.6228 297.61 53.2219 298.312 52.6951C300.319 51.184 302.172 49.5547 303.829 47.5914C306.193 44.7902 307.406 41.5471 308.18 38.1677C309.154 33.9172 309.087 29.5639 308.36 25.2157C307.743 21.5279 306.71 18.0098 304.813 14.7923C303.547 12.6425 302.181 10.5518 300.817 8.46276C300.598 8.12701 300.378 7.79131 300.159 7.45541C299.363 6.22959 298.61 6.28099 297.849 7.5248C297.778 7.6412 297.709 7.76057 297.64 7.88014C297.428 8.24625 297.215 8.61423 296.927 8.90481C294.382 11.4592 292.437 14.4171 291.355 17.8376C290.628 20.1402 290.029 22.5507 289.862 24.9484C289.719 27.0003 289.795 29.0665 289.871 31.134L289.871 31.1351C289.911 32.2263 289.952 33.318 289.96 34.408C289.98 36.9998 289.975 39.5916 289.971 42.1382V42.1483C289.969 43.2066 289.967 44.2571 289.967 45.2965L289.973 45.2914Z" fill="white"/>
<path fill-rule="evenodd" clip-rule="evenodd" d="M380.064 58.6225C379.72 58.613 379.376 58.6036 379.032 58.6036L379.017 58.619C378.94 58.5008 378.863 58.3826 378.787 58.2643L378.661 58.0705L378.557 57.9097C378.683 57.8503 378.815 57.7975 378.946 57.7447C379.224 57.6331 379.503 57.5214 379.731 57.3469C380.482 56.7734 381.222 56.1871 381.963 55.6011L381.964 55.6003L381.965 55.5996C382.889 54.868 383.813 54.1364 384.755 53.4305C387.557 51.3335 389.651 48.5863 391.63 45.7749C393.395 43.2667 394.608 40.4758 395.569 37.5154C396.369 35.0509 396.615 32.6095 396.602 30.1065C396.595 28.2408 396.443 26.357 396.145 24.5145L396.095 24.2043C395.773 22.2157 395.443 20.1834 394.703 18.3391C393.313 14.8698 391.745 11.4442 389.949 8.16763C388.479 5.48727 386.41 3.18212 384.031 1.07227C379.084 4.20749 374.332 7.46606 370.326 12.2306C370.251 11.9848 370.175 11.7723 370.106 11.5812C369.977 11.2208 369.876 10.9364 369.861 10.6475C369.778 9.07993 369.745 7.50975 369.732 5.93957C369.722 4.5133 369.264 4.15352 367.925 4.72403C366.163 5.47699 364.425 6.29421 362.696 7.11913C361.765 7.56371 361.377 8.25757 361.413 9.38317C361.564 14.1691 361.637 18.9572 361.711 23.7454L361.711 23.7477L361.711 23.7528L361.735 25.3086C361.752 26.3288 361.744 27.349 361.737 28.3693C361.729 29.3047 361.722 30.2401 361.735 31.1755C361.751 32.4256 361.783 33.6752 361.815 34.9247L361.815 34.928V34.932C361.861 36.7524 361.907 38.5725 361.907 40.3936C361.907 42.5181 361.86 44.6437 361.812 46.7696L361.812 46.7708C361.786 47.931 361.761 49.0913 361.742 50.2515C361.673 54.6897 361.611 59.1278 361.56 63.566C361.542 65.1233 361.552 66.6832 361.575 68.2405C361.596 69.7079 360.992 70.4275 359.681 70.3941C359.039 70.3769 358.398 70.3496 357.756 70.3223C356.955 70.2882 356.153 70.2541 355.351 70.2399C354.272 70.2221 353.191 70.2264 352.099 70.2308C351.61 70.2328 351.119 70.2347 350.625 70.2347C350.556 70.6075 350.504 70.9555 350.455 71.2834C350.352 71.9749 350.262 72.5766 350.05 73.1309C349.776 73.8404 349.329 74.4902 348.889 75.1303C348.821 75.2298 348.752 75.3292 348.685 75.4284C347.063 77.8055 342.116 78.9825 339.613 77.4997C337.041 75.9732 334.849 73.9739 333.592 71.2241C332.725 69.3266 331.989 67.3709 331.253 65.4156C330.94 64.5851 330.628 63.7546 330.305 62.9286C328.709 58.8477 328 54.5663 327.399 50.2593C327.168 48.6094 327.584 48.1597 329.252 48.1905C329.53 48.1958 329.809 48.1972 330.087 48.1986C330.49 48.2006 330.892 48.2026 331.295 48.2162C331.858 48.2347 332.424 48.2319 332.989 48.229C334.934 48.2192 336.879 48.2093 338.734 49.0694C339.004 49.1953 339.547 49.1028 339.77 48.8998C340.328 48.391 340.813 47.7896 341.258 47.1754C342.083 46.037 342.895 44.8857 343.643 43.6984C344.077 43.0082 344.464 42.2897 344.852 41.571L344.852 41.5696L344.854 41.5659C345.026 41.2482 345.197 40.9299 345.372 40.6146C344.835 40.4193 344.632 40.4424 344.442 40.4964C343.975 40.6309 343.511 40.7829 343.047 40.9349C342.021 41.2706 340.996 41.6062 339.945 41.753C338.943 41.8923 337.918 41.8541 336.892 41.8158C336.346 41.7954 335.801 41.7751 335.257 41.7813C333.302 41.8044 331.346 41.8507 329.39 41.9175C328.301 41.9561 327.784 41.5038 327.9 40.3885C327.941 39.9895 327.975 39.5895 328.008 39.1894C328.06 38.5689 328.112 37.9485 328.193 37.3329C328.24 36.9697 328.283 36.6051 328.326 36.2403C328.467 35.0385 328.608 33.835 328.91 32.6738C329.714 29.5796 330.578 26.4933 331.606 23.4685C332.328 21.3458 333.297 19.2977 334.281 17.2752C334.761 16.2892 335.363 15.3625 335.964 14.4377L335.965 14.4357L335.966 14.4346C336.155 14.1434 336.344 13.8519 336.53 13.5592C336.825 13.0915 337.164 12.6469 337.532 12.2331C338.097 11.5958 338.686 11.565 339.454 12.0378C340.554 12.7142 341.674 13.3589 342.793 14.0037C343.886 14.6329 344.978 15.2622 346.053 15.9209C347.13 16.5788 348.168 17.3292 349.112 18.1644C349.8 18.7734 350.366 18.7683 350.839 18.1001C352.193 16.1881 353.527 14.2556 354.752 12.2588C354.976 11.8913 354.86 10.9636 354.549 10.6784C353.272 9.50909 351.928 8.37322 350.476 7.43522C349.465 6.78211 348.411 6.19797 347.356 5.61381C346.365 5.0648 345.374 4.51572 344.419 3.90938C343.414 3.27206 342.695 3.22837 341.847 4.09955C340.779 5.19762 339.689 6.27366 338.599 7.34961C337.865 8.07387 337.13 8.79878 336.404 9.52965C333.281 12.6674 329.797 15.3298 325.88 17.396C324.988 17.8663 324.39 18.4445 324.122 19.439C323.753 20.8079 323.367 22.1716 322.981 23.5352C322.47 25.3355 321.96 27.1357 321.491 28.9475C321.074 30.5562 320.71 32.2035 320.566 33.8533C320.228 37.7536 320.001 41.6633 319.775 45.5734L319.775 45.5748L319.746 46.0704C319.507 50.159 319.705 54.2374 320.373 58.2798C320.443 58.7017 320.511 59.1239 320.58 59.5461C321.222 63.4898 321.863 67.4323 323.423 71.165C323.724 71.8851 323.978 72.6258 324.232 73.3661C324.558 74.3167 324.884 75.2667 325.307 76.1711C326.296 78.2886 327.417 80.3497 328.599 82.367C329.495 83.8991 330.499 85.369 331.502 86.8376C331.653 87.0589 331.804 87.2801 331.955 87.5016C332.479 88.2725 333.096 88.5012 334.001 87.8665C335.095 87.098 336.226 86.3844 337.357 85.6709C337.992 85.2701 338.628 84.8692 339.256 84.4589C343.532 81.668 348.323 80.2263 353.241 79.1341C354.639 78.8232 355.739 78.1756 356.59 76.9857C357.607 75.5646 358.72 74.2077 359.864 72.8842C360.081 72.6311 360.408 72.4712 360.8 72.279C361.001 72.1805 361.22 72.0735 361.449 71.9411C361.472 72.1871 361.495 72.3873 361.514 72.5577C361.549 72.8709 361.573 73.0841 361.565 73.2954C361.522 74.3415 361.463 75.3876 361.404 76.4336L361.403 76.449V76.4512C361.278 78.6705 361.152 80.8894 361.182 83.1071C361.228 86.5944 360.075 89.4033 357.389 91.6056C357.256 91.7145 357.155 91.8654 357.016 92.0754C356.935 92.1975 356.84 92.3397 356.718 92.5051C356.956 92.5904 357.176 92.6796 357.385 92.7643C357.812 92.9372 358.192 93.0914 358.587 93.1552C362.799 93.8388 367.016 94.4916 371.238 95.1212C371.526 95.1635 371.829 95.1078 372.132 95.052C372.27 95.0266 372.409 95.001 372.546 94.985C372.516 94.8467 372.497 94.7009 372.479 94.5553C372.439 94.2408 372.399 93.9269 372.243 93.6898C370.498 91.0505 369.665 88.1312 369.58 85.0037C369.555 84.047 369.601 83.0895 369.647 82.1317C369.68 81.4273 369.714 80.7227 369.719 80.0182C369.742 77.1371 369.759 74.2556 369.775 71.374C369.797 67.4648 369.819 63.5554 369.858 59.6469C369.863 59.0595 369.969 58.4733 370.075 57.8875C370.123 57.6199 370.171 57.3523 370.21 57.0848C370.341 57.0488 370.475 57.0154 370.606 56.982C370.744 57.1017 370.889 57.2161 371.033 57.3305C371.342 57.5747 371.65 57.8187 371.898 58.1127C373.708 60.2508 375.494 62.4121 377.267 64.5836C377.394 64.7386 377.531 64.8931 377.67 65.0487C378.117 65.5509 378.574 66.0651 378.729 66.6498C379.631 70.039 380.457 73.4462 381.283 76.8542L381.285 76.8609C381.541 77.916 381.796 78.9711 382.055 80.0259C382.191 80.5851 382.328 81.1442 382.465 81.7033C383.098 84.2837 383.731 86.8649 384.339 89.4521C384.879 91.7418 385.411 94.0341 384.226 96.3264C384.1 96.5706 384.437 97.231 384.737 97.4752C385.003 97.6883 385.394 97.7588 385.774 97.8271C385.874 97.8452 385.975 97.8633 386.071 97.8838C387.174 98.1152 388.279 98.3399 389.383 98.5646C391.505 98.9963 393.625 99.4279 395.736 99.9062C396.676 100.119 397.616 100.33 398.556 100.542L398.574 100.546L398.578 100.547C403.421 101.636 408.267 102.726 413.062 104.003C414.884 104.486 416 103.972 417.349 102.964C418.023 102.461 418.693 101.945 419.364 101.427C421.785 99.5597 424.221 97.6809 426.927 96.3932C430.342 94.7665 431.869 92.1864 432.714 88.9433C433.87 84.5 434.05 79.9616 433.927 75.3564C433.778 69.8852 433.043 64.5836 431.231 59.4156C429.741 55.1651 427.698 51.2127 425.274 47.4273C424.524 46.2562 423.828 45.0514 423.132 43.8467C422.469 42.6988 421.805 41.5505 421.096 40.4321C418.662 36.6005 416.858 32.4836 415.535 28.1637C415.16 26.9423 414.875 25.693 414.59 24.4435C414.328 23.2927 414.066 22.1416 413.733 21.0118C413.086 18.8211 413.216 16.6228 413.346 14.4251V14.4225C413.384 13.7825 413.422 13.1426 413.44 12.503C413.456 11.9941 413.928 11.0973 414.229 11.0818C414.756 11.051 415.391 11.475 415.845 11.8656C416.367 12.3148 416.863 12.7952 417.359 13.2754C418.061 13.9545 418.762 14.6333 419.533 15.2219C422.27 17.3137 425.089 19.3028 427.916 21.2765C428.191 21.4692 428.846 21.4178 429.144 21.2148C429.62 20.8884 429.993 20.3744 430.319 19.8785C430.771 19.1907 431.207 18.4932 431.643 17.796C432.134 17.0109 432.625 16.2261 433.138 15.4557C433.595 14.7696 433.449 14.2479 432.889 13.7725C432.598 13.5266 432.315 13.2673 432.031 13.0078C431.333 12.3692 430.634 11.7296 429.828 11.2874C426.562 9.49881 423.858 7.02919 421.152 4.54157C419.703 3.20781 419.585 3.23865 418.13 4.60324C414.327 8.1702 410.385 11.5624 405.928 14.3199C405.363 14.6694 404.721 15.3684 404.654 15.9646C404.629 16.194 404.603 16.4239 404.577 16.6541V16.6551C404.33 18.8735 404.079 21.1223 404.261 23.3221C404.455 25.6843 404.992 28.0262 405.527 30.3554C405.62 30.7628 405.714 31.1698 405.805 31.5764C406.581 35.038 407.671 38.4045 409.557 41.4472C410.46 42.9035 411.378 44.3509 412.297 45.7985L412.298 45.8002C413.358 47.4711 414.418 49.1421 415.455 50.8272C415.774 51.3451 416.095 51.8608 416.416 52.3762C417.973 54.8756 419.526 57.3683 420.787 60.0761C422.694 64.1673 423.953 68.4255 424.943 72.748C425.368 74.6014 425.475 76.5245 425.583 78.4507V78.4518C425.647 79.5994 425.711 80.7481 425.842 81.8839C426.323 86.029 425.177 89.781 422.995 93.1732C421.039 96.2159 418.104 98.2795 414.861 99.8112C414.165 100.143 413.209 100.484 412.43 99.5131C409.768 96.1877 409.169 92.2815 409.968 88.365L410.126 87.5957C411.195 82.3732 412.256 77.1945 412.315 71.8152C412.361 67.6289 411.441 63.6842 410.097 59.8114C409.808 58.9759 409.27 58.2263 408.731 57.4763C408.485 57.1327 408.238 56.7892 408.015 56.4372C407.948 56.45 407.881 56.4635 407.813 56.477C407.746 56.4905 407.678 56.504 407.612 56.5168C407.477 56.8335 407.35 57.1547 407.224 57.476C406.948 58.1765 406.672 58.8778 406.309 59.5313C405.653 60.7119 404.973 61.8783 404.293 63.0446C403.495 64.4146 402.697 65.7843 401.937 67.1766C401.683 67.6469 401.583 68.6157 401.865 68.8984C404.027 71.0625 403.822 73.7114 403.617 76.372L403.608 76.4846C403.554 77.1944 403.472 77.9029 403.39 78.6112C403.277 79.585 403.165 80.5584 403.125 81.5344C402.978 85.0653 403.153 88.5886 403.757 92.0785C403.852 92.6222 403.966 93.1621 404.08 93.702C404.176 94.1547 404.271 94.6073 404.356 95.0621C404.503 95.8639 404.638 96.6669 404.776 97.4818L404.776 97.4849L404.777 97.4888L404.777 97.4912L404.778 97.4928L404.778 97.4946L404.78 97.5051C404.842 97.8761 404.905 98.2495 404.97 98.6265C404.712 98.6611 404.478 98.693 404.262 98.7225L404.26 98.7228C403.756 98.7917 403.346 98.8478 402.935 98.8963C401.686 99.0453 400.688 98.7524 400.015 97.5471C399.646 96.8857 399.234 96.2472 398.822 95.6089C398.307 94.8114 397.793 94.014 397.363 93.1732L397.113 92.6836C395.202 88.9353 393.287 85.1806 391.571 81.3391C390.18 78.227 388.98 75.0121 387.924 71.7689C387.088 69.2024 386.368 66.5997 385.647 63.997L385.647 63.9959C385.298 62.7342 384.948 61.4725 384.586 60.2149C384.275 59.1304 383.712 58.4288 382.383 58.5779C381.618 58.6651 380.841 58.6438 380.064 58.6225ZM389.144 26.7334C389.3 27.7452 389.458 28.7698 389.643 29.8058L389.646 29.8032C389.447 30.5885 389.251 31.3818 389.055 32.1796C388.581 34.1023 388.101 36.0517 387.549 37.9805C387.048 39.7254 386.511 41.5038 385.673 43.1022C383.442 47.3579 380.248 50.84 376.355 53.6412C375.399 54.3273 374.507 53.4562 373.908 52.8368C373.296 52.2036 372.795 51.4628 372.294 50.7219C372.081 50.4074 371.868 50.0928 371.647 49.7864C369.956 47.4504 369.948 44.806 370.094 42.0768C370.16 40.8589 370.095 39.6332 370.03 38.4071C369.995 37.7578 369.96 37.1076 369.945 36.4591C369.873 33.3959 369.804 30.3326 369.778 27.2693C369.77 26.2057 369.793 25.1422 369.816 24.0786C369.835 23.2276 369.853 22.3767 369.855 21.5257C369.863 18.3925 371.464 15.9146 373.06 13.4451C373.175 13.2673 373.29 13.0896 373.404 12.9116L373.426 12.8787C374.2 11.6733 375.002 10.4256 376.046 9.47568C376.914 8.68609 378.062 8.17603 379.167 7.68476L379.175 7.68132C379.261 7.64291 379.347 7.6046 379.433 7.56628C379.721 7.44036 380.348 7.77958 380.664 8.07255L380.696 8.10248C381.401 8.75888 382.134 9.44175 382.633 10.2518C382.945 10.761 383.264 11.2686 383.583 11.7769L383.585 11.7792C385.261 14.4482 386.947 17.1345 387.837 20.156C388.458 22.2712 388.796 24.4699 389.144 26.7334Z" fill="white"/>
<path fill-rule="evenodd" clip-rule="evenodd" d="M96.3899 8.4925C96.1498 8.62742 95.9069 8.76387 95.6587 8.89981V8.91009C95.6849 9.08138 95.7123 9.24227 95.7386 9.39649C95.7896 9.69578 95.8363 9.96998 95.8617 10.2464C95.9094 10.7795 95.964 11.3128 96.0186 11.8463C96.1611 13.239 96.3038 14.6331 96.3243 16.0286C96.3438 17.2907 96.2755 18.5537 96.2071 19.817C96.1586 20.7143 96.11 21.6123 96.093 22.5097C96.0587 24.253 96.0479 25.9963 96.037 27.7396C96.0275 29.2652 96.0179 30.7907 95.9928 32.3163C95.9725 33.5103 95.932 34.7042 95.8915 35.8984V35.9013C95.8444 37.2891 95.7972 38.6782 95.782 40.067C95.7682 41.3411 95.787 42.616 95.8058 43.8908C95.822 44.9918 95.8382 46.0928 95.8334 47.1932C95.8288 48.517 95.806 49.8402 95.7832 51.1635V51.1645C95.7546 52.8179 95.7261 54.4719 95.7332 56.126C95.741 58.0409 95.787 59.9567 95.833 61.8723L95.8331 61.8739V61.8792C95.8634 63.1389 95.8937 64.3984 95.9131 65.6576C95.9285 66.6182 95.9275 67.5789 95.9265 68.5393V68.5413C95.9253 69.6613 95.9242 70.7809 95.9491 71.8998C95.9795 73.1927 96.0278 74.4857 96.0761 75.7787C96.1378 77.4308 96.1995 79.0828 96.224 80.7349C96.244 82.0416 96.2305 83.3495 96.217 84.6574V84.6585C96.1975 86.5526 96.1779 88.4465 96.26 90.3359C96.4425 94.517 95.0676 98.0223 92.2074 101.014C91.5212 101.731 90.8479 101.805 90.0975 101.142C89.9793 101.037 89.8558 100.937 89.7325 100.837C89.5557 100.694 89.3791 100.551 89.2186 100.392C86.1836 97.385 83.3517 94.2164 81.0311 90.6057C77.3716 84.9084 74.8069 78.7407 73.0157 72.2364C72.602 70.7382 72.1779 70.3476 70.6206 70.3244C70.3974 70.321 70.1743 70.2815 69.9078 70.2343C69.7722 70.2102 69.6254 70.1842 69.4616 70.16C69.5452 69.9973 69.6096 69.8547 69.6662 69.7294C69.7713 69.4969 69.8494 69.324 69.973 69.1937C70.5467 68.5883 71.1302 67.992 71.7135 67.3959L71.7142 67.3951C72.735 66.352 73.7558 65.309 74.7221 64.2185C76.1047 62.6586 77.4461 61.0421 78.6257 59.3255C80.0237 57.2901 81.306 55.1649 82.4959 53.0011C82.7338 52.5683 82.9775 52.136 83.2217 51.7028C84.3015 49.7875 85.3907 47.8554 86.032 45.7952C87.2039 42.0226 88.1341 38.1242 88.6507 34.2129C89.3317 29.0577 88.201 24.0876 85.4409 19.6521C83.9111 17.1933 82.1236 14.8882 80.3438 12.5931C80.1443 12.3359 79.945 12.0788 79.7461 11.8217C78.5467 10.2715 77.271 8.77924 75.9954 7.28727L75.9922 7.28351L75.9902 7.28118C75.5484 6.76443 75.1066 6.24771 74.6681 5.72861C73.4551 4.29206 72.9258 4.18413 71.4481 5.27888C69.8334 6.47547 68.2341 7.69389 66.6348 8.91237L66.6331 8.91365C65.382 9.86675 64.131 10.8199 62.8725 11.7626C62.6385 11.9373 62.3475 12.0336 62.0568 12.1298C61.9198 12.1752 61.7827 12.2205 61.6518 12.274C61.6011 12.1292 61.5388 11.9851 61.4766 11.8412C61.3402 11.5256 61.2042 11.2109 61.1918 10.8914C61.1643 10.1239 61.1767 9.35557 61.1892 8.58687V8.58421C61.1988 7.98713 61.2085 7.38983 61.1995 6.79253C61.1942 6.43992 61.1279 6.08852 61.0561 5.70807L61.0559 5.70705L61.0556 5.70529L61.0554 5.70402L61.055 5.70239C61.022 5.52752 60.9877 5.34566 60.9579 5.15553C60.7908 5.21185 60.6451 5.2548 60.5157 5.29293C60.2732 5.36439 60.0883 5.41889 59.9274 5.51274L59.2197 5.92567C56.9857 7.22892 54.7509 8.53258 52.5545 9.89691C52.3001 10.0537 52.2179 10.691 52.2616 11.0816C52.3143 11.5676 52.4072 12.0504 52.4999 12.5324L52.5002 12.5346C52.624 13.1784 52.7476 13.821 52.7755 14.4687C52.8395 15.962 52.8164 17.4584 52.7933 18.9544C52.7867 19.3813 52.7801 19.8086 52.7755 20.2354C52.7293 24.6659 52.683 29.0963 52.6111 33.5267C52.5916 34.7656 52.5555 36.0044 52.5194 37.2432C52.4647 39.1165 52.4101 40.9897 52.4132 42.863C52.4161 45.5632 52.4567 48.2626 52.4974 50.9621L52.4975 50.9671C52.5295 53.0908 52.5615 55.2146 52.5751 57.339C52.5848 58.9636 52.5632 60.589 52.5415 62.2143C52.523 63.607 52.5045 65.0005 52.5057 66.3926C52.5134 72.6322 52.5365 78.8718 52.5828 85.1114C52.6066 88.2172 52.6432 91.3224 52.6798 94.4276V94.4287L52.6799 94.4409C52.7146 97.3794 52.7492 100.318 52.773 103.257C52.7987 106.372 52.2744 109.355 50.6425 112.095C50.2555 112.745 49.9815 113.464 49.7077 114.182C49.5834 114.508 49.459 114.834 49.3242 115.153L49.5607 115.405L53.6671 114.047C57.3716 112.823 61.1062 111.588 64.9489 110.316C64.7776 110.048 64.624 109.815 64.4846 109.603L64.4836 109.602C64.2263 109.212 64.0177 108.895 63.8362 108.564C63.6436 108.214 63.435 107.869 63.2262 107.523C62.6856 106.627 62.1435 105.729 61.8728 104.755C61.5054 103.435 61.4896 102.002 61.4742 100.602C61.4727 100.465 61.4712 100.328 61.4693 100.191C61.4142 96.038 61.3937 91.8848 61.3733 87.7315C61.3671 86.4675 61.3609 85.2035 61.3537 83.9395L61.348 82.8694C61.3291 79.3405 61.3102 75.8116 61.3126 72.2827C61.3126 71.976 61.3842 71.6706 61.4631 71.3338C61.5019 71.1681 61.5425 70.9948 61.5773 70.8101C61.7149 70.8732 61.829 70.9167 61.9228 70.9525C62.0811 71.0129 62.1812 71.051 62.2377 71.1237C62.5162 71.4801 62.7958 71.8357 63.0755 72.1912L63.0782 72.1947L63.0837 72.2017L63.0892 72.2087C64.1238 73.5242 65.1584 74.8398 66.1362 76.1965C66.3146 76.4442 66.4994 76.6916 66.685 76.9399L66.689 76.9452C67.4591 77.9755 68.2428 79.0239 68.6418 80.1901C69.245 81.9549 69.7337 83.7576 70.2223 85.5604C70.685 87.2673 71.1478 88.9747 71.7076 90.6494C72.6131 93.3604 73.6486 96.029 74.6838 98.697L74.6851 98.7005C75.1126 99.8022 75.54 100.904 75.9582 102.008C76.0777 102.324 76.2134 102.636 76.3489 102.948C76.6067 103.54 76.8645 104.132 77.0092 104.75C77.3819 106.359 77.5258 106.523 79.1474 106.192C79.4326 106.132 79.7143 106.06 79.9964 105.987C80.1286 105.953 80.2609 105.919 80.3937 105.886C82.0506 105.477 83.7063 105.064 85.3619 104.651C89.127 103.712 92.8916 102.773 96.6686 101.882C99.6659 101.175 102.674 100.518 105.682 99.8611C107.262 99.5161 108.842 99.1712 110.42 98.819C110.614 98.7763 110.798 98.6927 111.061 98.5735C111.209 98.5062 111.383 98.4275 111.597 98.3384C111.347 98.1902 111.137 98.0644 110.951 97.9531C110.653 97.775 110.418 97.6341 110.181 97.4981C107.161 95.766 105.463 93.2784 105.563 89.678C105.635 87.0336 105.625 84.3841 105.589 81.7397C105.559 79.6288 105.512 77.5179 105.465 75.407L105.465 75.4051C105.407 72.783 105.35 70.1608 105.324 67.5387C105.303 65.3547 105.323 63.1698 105.342 60.9851V60.9839C105.356 59.4649 105.37 57.9452 105.37 56.4267C105.369 53.8554 105.359 51.2835 105.348 48.7116C105.337 45.968 105.326 43.2237 105.326 40.4807C105.326 36.6928 105.357 32.9074 105.398 29.1194C105.418 27.4296 105.449 25.7395 105.479 24.0493C105.539 20.8017 105.598 17.5537 105.576 14.3068C105.562 12.2032 105.39 10.0997 105.218 7.9973L105.217 7.99194C105.163 7.32732 105.109 6.66281 105.059 5.99844C104.972 4.8343 104.334 4.52592 103.304 5.03732C102.453 5.45836 101.599 5.87242 100.745 6.28641C99.806 6.74164 98.867 7.19681 97.933 7.66114C97.4134 7.91744 96.9078 8.20151 96.3899 8.4925ZM64.5326 62.7768C62.5821 60.9291 61.1892 58.7986 61.1019 55.959V55.9615C61.1019 54.8319 61.0986 53.7021 61.0954 52.5722V52.5711C61.0883 50.0488 61.0812 47.5252 61.1096 45.0037C61.1296 43.1183 61.1747 41.2328 61.2199 39.3471L61.2199 39.3455L61.22 39.344C61.2673 37.3651 61.3147 35.3858 61.3331 33.4059C61.347 31.8539 61.3302 30.3013 61.3133 28.7487C61.2927 26.8539 61.2721 24.959 61.3074 23.0648C61.3511 20.7263 61.9345 18.5368 63.5175 16.6633C64.2012 15.8523 64.8213 14.9879 65.4414 14.1234C65.9353 13.4349 66.4297 12.7457 66.956 12.0839C68.4696 10.1796 69.7211 10.2002 71.1371 12.0993C71.5826 12.6964 72.0361 13.2887 72.4898 13.8812L72.4904 13.8821C73.7741 15.5586 75.0589 17.2368 76.1638 19.025C77.7031 21.5178 78.7105 24.2984 79.3375 27.1817C79.8019 29.3093 79.85 31.4618 79.8984 33.6234V33.6244C79.9121 34.2378 79.9259 34.8525 79.9492 35.4669C80.0867 39.1199 79.0661 42.4761 78.0488 45.8215L78.0468 45.8284L78.0463 45.83C77.8858 46.3577 77.7252 46.8859 77.5695 47.4142C77.1468 48.8497 76.3652 50.174 75.5813 51.5025C75.126 52.274 74.6697 53.0472 74.2826 53.844C72.8949 56.6965 70.7439 58.9323 68.5827 61.1706L68.5273 61.2281C67.9264 61.8515 67.3244 62.476 66.6861 63.0595C65.8844 63.7919 65.1468 63.3601 64.5326 62.7768Z" fill="white"/>
<path fill-rule="evenodd" clip-rule="evenodd" d="M465.068 38.5999C465.068 38.2846 465.061 37.9684 465.054 37.6522C465.04 36.9608 465.025 36.2688 465.081 35.5829C465.397 31.6922 465.418 27.8297 464.187 24.0623C464.133 23.8943 464.044 23.7393 463.954 23.5839C463.895 23.4802 463.835 23.3762 463.786 23.2682C463.04 21.6492 463.161 20.8602 464.433 19.5882C465.872 18.1497 467.315 16.7161 468.758 15.2827L468.76 15.2805C471.07 12.9861 473.379 10.692 475.669 8.37846C476.492 7.54592 477.218 6.61215 477.941 5.68318L477.942 5.68185L477.945 5.67843C478.035 5.56254 478.125 5.44614 478.216 5.33061C479.01 4.31552 479.485 4.31038 480.341 5.20469C482.025 6.96464 483.729 8.70478 485.435 10.4455C486.262 11.2898 487.089 12.1342 487.914 12.9811C490.379 15.5124 492.686 18.257 493.583 21.6852C494.093 23.631 494.129 25.7116 494.165 27.7761C494.175 28.3236 494.184 28.8704 494.203 29.4127C494.252 30.8676 494.213 32.3248 494.174 33.782C494.154 34.5383 494.133 35.2946 494.125 36.0506C494.12 36.6238 494.113 37.197 494.107 37.7702L494.107 37.7759C494.076 40.6553 494.045 43.536 494.041 46.4149C494.039 48.11 494.059 49.8052 494.078 51.5004L494.078 51.5077C494.092 52.7089 494.106 53.9101 494.113 55.1112C494.122 56.9264 494.126 58.7416 494.13 60.5568C494.135 62.9202 494.14 65.2836 494.156 67.647C494.169 69.5304 494.191 71.4143 494.214 73.2982C494.249 76.2802 494.284 79.2625 494.282 82.2437C494.282 84.8467 494.246 87.4496 494.21 90.053V90.0621C494.18 92.1593 494.151 94.2568 494.141 96.3548C494.136 97.4147 494.13 98.4747 494.124 99.5348V99.5403C494.097 104.248 494.07 108.957 494.164 113.663C494.236 117.245 494.321 120.869 494.914 124.387C495.526 128.022 496.446 131.607 497.366 135.19L497.372 135.215C497.587 136.053 497.803 136.891 498.014 137.729C498.338 139.019 498.754 140.286 499.17 141.553C499.407 142.276 499.644 142.998 499.864 143.725C499.922 143.918 499.92 144.13 499.917 144.383C499.916 144.509 499.915 144.646 499.921 144.797C499.881 144.786 499.843 144.776 499.806 144.768L499.773 144.76C499.755 144.755 499.736 144.751 499.718 144.747C499.692 144.742 499.667 144.736 499.642 144.731C499.606 144.723 499.571 144.716 499.538 144.709L499.536 144.709C499.328 144.667 499.169 144.635 499.049 144.55C498.322 144.036 497.601 143.513 496.881 142.99L496.879 142.988C495.767 142.181 494.654 141.373 493.519 140.6C491.818 139.443 490.089 138.325 488.36 137.207C488.074 137.021 487.787 136.836 487.501 136.651L486.66 136.105C486.016 135.686 485.371 135.268 484.727 134.851L484.717 134.845L484.716 134.844C483.36 133.965 482.004 133.087 480.657 132.197C480.478 132.078 480.333 131.907 480.174 131.719C480.095 131.626 480.013 131.529 479.922 131.433C480.138 131.179 480.365 130.939 480.589 130.703C481.072 130.195 481.537 129.706 481.821 129.128C482.659 127.427 483.399 125.656 483.957 123.845C484.268 122.835 483.417 122.269 482.476 122.814C479.19 124.716 475.562 125.17 471.928 125.625C471.368 125.696 470.808 125.766 470.249 125.841C469.2 125.983 468.72 125.677 468.517 124.572C468.101 122.313 467.653 120.044 466.975 117.854C466.325 115.752 465.454 113.704 464.526 111.705C461.429 105.023 459.795 98.0226 460.157 90.6626C460.345 86.8412 460.81 83.0224 462.162 79.3629C462.548 78.3167 462.851 77.2392 463.154 76.1624C463.506 74.909 463.858 73.6563 464.341 72.4552C464.921 71.01 465.719 69.6492 466.516 68.2922C466.751 67.8924 466.985 67.493 467.214 67.0919L467.445 66.6848C468.19 65.3741 468.937 64.059 469.812 62.8388C471.22 60.8728 472.662 58.912 474.279 57.1183C475.174 56.1243 476.139 55.1906 477.103 54.2574C478.32 53.0795 479.537 51.9025 480.611 50.6063C483.173 47.5148 485.36 44.2279 484.966 39.8001C484.772 37.6024 484.752 35.3904 484.732 33.1779C484.718 31.6495 484.704 30.1199 484.632 28.5955C484.476 25.2059 483.201 22.2762 480.87 19.7346C479.698 18.4571 478.649 17.0659 477.6 15.6749C477.136 15.0598 476.673 14.4446 476.198 13.8394C476.138 13.7635 476.081 13.6841 476.025 13.6046C475.906 13.4394 475.788 13.274 475.641 13.1404C474.685 12.2692 474.073 12.2898 473.551 13.4565C472.552 15.6923 472.117 18.054 472.4 20.5313C472.727 23.3779 473.014 26.2304 473.3 29.0819L473.3 29.083L473.425 30.3276C473.579 31.8541 472.51 33.3677 471.087 34.3057C469.848 35.1215 468.683 36.0509 467.519 36.9802C467.069 37.339 466.619 37.6978 466.165 38.05C465.969 38.2019 465.79 38.3762 465.611 38.5504C465.532 38.6267 465.454 38.7029 465.374 38.7773C465.326 38.7488 465.278 38.7209 465.23 38.693L465.226 38.6902L465.134 38.6368L465.076 38.6025L465.068 38.5999ZM485.118 53.5359L484.982 53.4804L484.917 53.4538C484.852 53.4272 484.787 53.4006 484.722 53.374C484.64 53.4345 484.554 53.4922 484.469 53.5499L484.468 53.5508C484.29 53.6717 484.111 53.7927 483.957 53.9368C483.48 54.3841 483.011 54.838 482.542 55.292C482.184 55.6387 481.825 55.9855 481.464 56.3293C480.734 57.0226 480 57.7117 479.266 58.4008L479.258 58.4078C477.736 59.8367 476.214 61.2657 474.728 62.7309C472.012 65.4112 470.527 68.7726 469.36 72.3601C468.193 75.9502 467.7 79.5917 467.903 83.3231C468.095 86.8592 468.787 90.3054 469.64 93.7618C470.673 97.9544 472.638 101.684 474.606 105.42C475.114 106.385 475.623 107.351 476.116 108.325C476.436 108.959 476.793 109.576 477.15 110.192C477.603 110.974 478.056 111.755 478.434 112.573C479.061 113.93 479.48 115.374 479.115 116.929C479.058 117.169 479.128 117.439 479.196 117.703C479.226 117.821 479.256 117.938 479.274 118.049C479.379 118.049 479.457 118.053 479.517 118.055C479.617 118.06 479.67 118.062 479.716 118.044C479.876 117.985 480.04 117.924 480.174 117.826C482.314 116.24 483.856 114.161 484.237 111.545C484.676 108.52 484.861 105.442 484.907 102.384C484.981 97.6744 484.998 92.9642 485.015 88.2541C485.026 85.0632 485.038 81.8724 485.067 78.6819C485.098 75.3313 485.148 71.9813 485.199 68.6317V68.6144C485.25 65.2721 485.301 61.9302 485.331 58.5882C485.342 57.4372 485.274 56.285 485.207 55.1324L485.206 55.1261L485.205 55.0947C485.174 54.5743 485.144 54.0538 485.121 53.5333L485.118 53.5359Z" fill="white"/>
<path d="M231.082 40.6037L231.082 40.6029C231.329 40.3038 231.593 39.9836 231.879 39.6299L231.864 39.6324C231.585 39.7044 231.339 39.769 231.115 39.8276C230.621 39.9572 230.237 40.0579 229.849 40.1464C229.486 40.2291 229.123 40.3226 228.761 40.4162C227.884 40.6423 227.007 40.8685 226.118 40.9431C223.884 41.1307 221.636 41.1795 219.392 41.2052C217.069 41.2309 214.743 41.1744 212.42 41.1178C211.58 41.0973 210.907 40.8608 211.004 39.7584C211.405 35.1558 211.96 30.5737 213.41 26.1664C214.562 22.6649 215.777 19.1844 216.992 15.7042C217.365 14.6354 217.739 13.5667 218.11 12.4974C218.442 11.5388 219.112 11.197 220.014 11.7521C221.361 12.5804 222.782 13.289 224.203 13.9978C227.055 15.42 229.908 16.843 232.172 19.2355C232.396 19.4719 233.388 19.436 233.55 19.2021C234.976 17.1257 236.32 14.9927 237.615 12.8314C237.808 12.5128 237.795 11.7444 237.569 11.5594C236.459 10.6471 235.302 9.77075 234.061 9.05377C232.972 8.42348 231.857 7.83592 230.742 7.2482C229.602 6.64738 228.462 6.04639 227.349 5.39944C226.594 4.9588 225.916 4.38873 225.239 3.8193C224.996 3.61495 224.753 3.41067 224.506 3.21249C223.985 2.7936 223.46 2.66511 223.119 3.33327C222.05 5.42162 220.493 7.10533 218.926 8.79909C218.693 9.05205 218.458 9.30524 218.226 9.56003C215.322 12.7389 212.384 15.8562 208.625 18.0637C208.285 18.2615 207.975 18.6393 207.828 19.0042C206.104 23.2805 204.405 27.567 203.96 32.221C203.799 33.9113 203.624 35.6006 203.449 37.2901C203.141 40.2598 202.834 43.2298 202.601 46.2061C202.272 50.4181 202.516 54.6378 203.256 58.7933C203.62 60.8349 204.128 62.8503 204.635 64.8647C204.819 65.5963 205.004 66.3279 205.181 67.0605C205.403 67.9797 205.648 68.8917 205.927 69.9274C206.057 70.4118 206.194 70.9236 206.34 71.4755C205.64 71.4755 204.968 71.4737 204.316 71.472H204.312C202.883 71.4683 201.546 71.4647 200.211 71.4806C198.602 71.5012 198.273 72.01 198.659 73.5391C199.175 75.5821 199.013 77.5018 197.556 79.2005C195.416 81.6958 192.735 82.3126 189.7 81.4131C184.558 79.8892 181.415 75.9907 178.791 71.6734C176.566 68.0088 175.062 63.9869 174.348 59.7467C173.713 55.969 173.132 52.1631 172.891 48.3468C172.703 45.3529 172.857 42.2974 173.248 39.3215C173.672 36.0809 174.384 32.8557 175.276 29.7077C176.124 26.7164 177.229 23.7816 178.467 20.9265C179.583 18.3541 180.965 15.8896 182.361 13.4534C183.055 12.243 183.695 12.2018 184.949 12.9265C185.27 13.1113 185.574 13.3267 185.879 13.542C186.239 13.7969 186.599 14.0517 186.987 14.2551C187.315 14.4283 187.646 14.5986 187.976 14.7688C190.107 15.8672 192.235 16.9642 193.879 18.8064C194.351 19.333 194.843 19.8413 195.361 20.3757C195.618 20.6418 195.882 20.9144 196.153 21.1989C197.821 19.215 199.332 17.2079 200.142 14.8077C200.327 14.2551 200.057 13.2375 199.622 12.8417C197.703 11.0968 195.757 9.33645 193.612 7.89476C192.332 7.03449 190.941 6.33922 189.549 5.64338C188.717 5.22715 187.884 4.81072 187.074 4.35864C186.159 3.84724 185.671 4.12222 185.224 4.942C184.735 5.83631 184.229 6.72805 183.641 7.55811C183.188 8.19542 182.704 8.81181 182.22 9.42823C181.807 9.9552 181.393 10.4822 180.999 11.0223C179.12 13.5921 176.928 15.8202 174.322 17.6756C173.312 18.3952 172.39 19.3435 171.686 20.3637C170.93 21.457 170.293 22.6338 169.657 23.8101C169.421 24.2458 169.185 24.6815 168.944 25.1128C168.758 25.4434 168.55 25.7692 168.343 26.0953C167.859 26.854 167.374 27.6148 167.165 28.4433C166.837 29.7449 166.455 31.0341 166.073 32.3234C165.028 35.8453 163.983 39.368 164.051 43.1454C164.08 44.7795 163.982 46.415 163.883 48.0508C163.794 49.5432 163.704 51.0359 163.711 52.528C163.722 54.7278 163.899 56.9712 164.362 59.1171C165.081 62.4373 165.896 65.7653 167.055 68.9519C168.388 72.6242 170.049 76.1706 172.328 79.424C174.978 83.2094 178.174 86.1776 182.595 87.7041C184.8 88.4674 187.04 88.9351 189.382 88.5136C195.035 87.4985 198.502 83.7131 201.362 79.1131C202.095 77.9361 202.93 76.7463 203.968 75.8545C205.117 74.8703 207.671 74.5002 208.517 76.0961C208.641 76.3302 208.765 76.5648 208.889 76.7995C209.561 78.0745 210.235 79.3526 210.999 80.5702C212.171 82.4385 213.433 84.2579 214.718 86.0543C215.263 86.8149 215.874 87.5936 216.627 88.1101C217.11 88.4417 217.989 88.5316 218.552 88.3312C219.041 88.1576 219.45 87.7359 219.851 87.3226C219.972 87.1973 220.093 87.0728 220.215 86.9563C223.892 83.4433 228.323 81.2152 233.007 79.4061C233.65 79.1576 234.316 78.9628 234.983 78.7679C236.757 78.2494 238.532 77.7305 239.856 76.1989C241.37 74.4462 242.426 72.4803 243.017 70.2574C243.184 69.6252 243.014 69.1369 242.228 69.1292L241.533 69.123C239.46 69.1042 237.389 69.0855 235.315 69.0855C235.132 69.0855 234.948 69.1633 234.781 69.2338C234.708 69.2642 234.639 69.2933 234.575 69.3142C234.563 69.3894 234.549 69.4495 234.538 69.499C234.519 69.5847 234.506 69.6387 234.521 69.6843C236.189 75.117 232.452 78.3678 228.202 79.1105C225.038 79.663 222.15 78.4963 219.978 75.7414C216.902 71.8404 215.008 67.3997 213.538 62.7508C212.174 58.4309 211.228 54.0108 211.033 49.4519C210.976 48.1361 211.202 47.7892 212.503 47.748C213.378 47.721 214.253 47.6687 215.128 47.6164C216.502 47.5343 217.875 47.4522 219.248 47.4679C220.924 47.4885 222.607 47.7352 224.26 48.0333L224.285 48.0379C224.934 48.1562 225.373 48.2363 225.804 47.6324C227.094 45.8284 228.415 44.0449 229.749 42.2691C230.153 41.7305 230.582 41.2103 231.082 40.6037Z" fill="white"/>
<path fill-rule="evenodd" clip-rule="evenodd" d="M0.0377197 10.7904L0.0456085 10.7858C0.323334 10.9363 0.567703 11.067 0.788681 11.1853C1.26822 11.442 1.63754 11.6397 1.99852 11.8517C2.08464 11.9026 2.17126 11.9531 2.25801 12.0037C2.68384 12.252 3.11247 12.502 3.49675 12.8051C5.73766 14.5629 6.35699 17.0377 6.39812 19.7103C6.43013 21.7867 6.4305 23.8621 6.43086 25.9377C6.43111 27.361 6.43135 28.7844 6.4418 30.2082C6.45151 31.4297 6.47369 32.6513 6.49588 33.8727V33.8756C6.53239 35.8855 6.56891 37.8957 6.54973 39.9042C6.53233 41.751 6.47623 43.5984 6.42012 45.4457V45.4468L6.42007 45.4481C6.35185 47.695 6.28363 49.9419 6.28503 52.1881C6.28815 55.5855 6.34842 58.982 6.40871 62.3786C6.44824 64.6062 6.48778 66.8338 6.51118 69.0618C6.52834 70.7117 6.51909 72.3616 6.50983 74.0114C6.50105 75.5764 6.49228 77.1414 6.50604 78.7064C6.51974 80.4486 6.55685 82.1914 6.59396 83.9343V83.9354C6.62642 85.4598 6.65887 86.9841 6.67566 88.5079C6.69763 90.5963 6.70859 92.6842 6.71954 94.7721C6.73164 97.08 6.74376 99.3878 6.77074 101.696C6.78931 103.342 6.82365 104.988 6.858 106.634C6.90448 108.861 6.95096 111.088 6.95834 113.315C6.97375 117.789 6.96349 122.263 6.84526 126.734C6.8336 127.187 6.83484 127.641 6.83607 128.096C6.84087 129.845 6.84566 131.6 6.11543 133.295C5.72528 134.198 5.46603 135.159 5.20671 136.119L5.20625 136.12C5.09169 136.545 4.97697 136.97 4.85106 137.389L5.05666 137.651C9.25871 135.113 13.4608 132.576 17.7871 129.964L21.0334 128.004C20.6241 127.782 20.2495 127.592 19.903 127.416C19.2228 127.071 18.6505 126.78 18.1346 126.411C15.9117 124.82 15.4748 122.443 15.4646 119.919C15.4594 118.412 15.4611 116.904 15.4628 115.395V115.384C15.4637 114.627 15.4646 113.871 15.4646 113.114L15.469 108.818V108.809C15.4739 104.514 15.4787 100.221 15.4748 95.927L15.4743 95.3035C15.4723 92.6099 15.4702 89.9164 15.4106 87.2229C15.3671 85.3352 15.3049 83.4474 15.2428 81.5593L15.2423 81.5433C15.18 79.6481 15.1176 77.7526 15.0739 75.8565C15.0637 75.4838 15.2667 74.993 15.5417 74.7771C15.7036 74.6512 16.2766 74.8748 16.5413 75.0907C17.9881 76.2728 19.4221 77.4755 20.8073 78.7296C21.4035 79.2667 21.9277 79.5905 22.7321 79.1613C23.4777 78.7638 24.2328 78.3823 24.9877 78.0008L24.9886 78.0004C26.3904 77.2922 27.7916 76.5842 29.131 75.7742C30.4674 74.9647 31.8062 73.9882 32.7802 72.7932C34.3387 70.8824 35.7782 68.8728 37.2173 66.8636L37.218 66.8627L37.2188 66.8617L37.2201 66.8599C37.7639 66.1006 38.3077 65.3414 38.8579 64.5877C41.104 61.5116 42.6022 58.0448 43.7072 54.4547C45.4419 48.8216 46.6908 43.0883 46.6729 37.1159C46.66 33.2226 46.5084 29.3755 45.6758 25.5593C44.7352 21.2522 43.0134 17.3127 40.4718 13.7174C39.1458 11.8389 37.8557 9.93203 36.5708 8.0252C36.0892 7.31087 35.6132 6.59261 35.1371 5.87425L35.1364 5.87328C34.2253 4.49865 33.314 3.12369 32.3639 1.77532C32.184 1.51834 31.4747 1.35387 31.1921 1.50035L31.0892 1.55287C30.0593 2.07865 28.9925 2.62329 28.1519 3.39176C26.2619 5.11771 24.4127 6.88975 22.5636 8.66173C21.5163 9.66534 20.4691 10.6689 19.4144 11.6641C18.5909 12.4415 17.7454 13.1943 16.8998 13.9471L16.8989 13.9479C16.5204 14.285 16.1418 14.622 15.7652 14.9612L15.2718 14.7685C14.8178 12.4539 14.877 10.1011 14.937 7.71336C14.9814 5.95212 15.0261 4.17191 14.8658 2.3741C10.9728 3.41897 7.85448 5.56987 4.66902 7.76705C3.17183 8.79974 1.65982 9.84265 0.0456085 10.7858L0.0351562 10.7801L0.0377197 10.7904ZM14.7272 63.8593L14.709 63.863C14.6931 63.8662 14.6768 63.8694 14.6602 63.8732C14.7194 64.2109 14.7681 64.5518 14.8169 64.8928C14.9247 65.6469 15.0326 66.4013 15.2538 67.1215C16.125 69.9638 17.8776 72.2741 19.9798 74.3094C20.6479 74.9545 21.3983 75.6509 22.5239 74.7206C26.2862 71.6136 29.4625 67.9876 31.8705 63.773C34.3581 59.4197 35.8486 54.6475 36.7429 49.7236C37.2235 47.0844 37.4805 44.4015 37.7092 41.7263C37.866 39.8734 37.9405 37.9897 37.8043 36.1394C37.6167 33.6004 37.3391 31.0459 36.8329 28.5532C36.7592 28.1917 36.687 27.8296 36.6148 27.4673C35.9711 24.2395 35.3249 20.9989 33.636 18.0785C33.3061 17.5086 33.0099 16.9173 32.7141 16.3265C32.2655 15.4308 31.8173 14.536 31.2537 13.72C30.2004 12.198 29.0086 10.7696 27.8182 9.34285C27.5857 9.06418 27.3528 8.78499 27.1214 8.50576C26.7308 8.03548 26.1423 7.64743 25.5744 8.25135C24.9832 8.87949 24.3728 9.49519 23.7621 10.1112C22.1691 11.7179 20.5744 13.3263 19.3168 15.1617C18.0776 16.9705 17.2348 19.0591 16.3967 21.1361C16.1572 21.7296 15.918 22.3224 15.6701 22.9072C15.1922 24.038 14.7861 25.2766 14.7167 26.487C14.6362 27.8882 14.6786 29.2957 14.721 30.7041C14.7449 31.4991 14.7688 32.2944 14.7707 33.089C14.7773 36.2231 14.7722 39.3573 14.767 42.4915C14.7641 44.2015 14.7613 45.9115 14.7604 47.6215C14.7587 51.2041 14.7593 54.7868 14.7598 58.3694V58.4406C14.7601 60.2438 14.7604 62.0469 14.7604 63.8501L14.7578 63.8527C14.7474 63.8551 14.7373 63.8572 14.7272 63.8593Z" fill="white"/>
<path d="M128.351 14.0215C128.272 14.0511 128.174 14.0879 128.054 14.1427H128.044C127.992 14.006 127.93 13.8739 127.87 13.7443C127.743 13.4717 127.621 13.2099 127.602 12.94C127.442 10.6477 127.327 8.35278 127.216 6.05791C127.16 4.85264 126.779 4.53141 125.721 5.05566C124.492 5.66371 123.281 6.30702 122.069 6.95049C121.212 7.4057 120.355 7.86102 119.491 8.30396C117.826 9.15972 117.741 9.34218 118.229 11.213C118.324 11.576 118.325 11.9682 118.327 12.352L118.327 12.48C118.348 14.8363 118.364 17.1925 118.38 19.5488C118.388 20.7261 118.396 21.9033 118.404 23.0806C118.408 23.6487 118.417 24.2171 118.426 24.7856V24.7891C118.44 25.7084 118.454 26.6285 118.448 27.547C118.438 28.9936 118.418 30.4401 118.399 31.8867C118.378 33.4237 118.357 34.9608 118.348 36.4978C118.341 37.7001 118.35 38.9017 118.36 40.1029V40.1074C118.368 41.2053 118.377 42.3028 118.373 43.4004C118.37 44.7332 118.357 46.0665 118.344 47.4C118.328 49.0852 118.311 50.7709 118.314 52.4566C118.319 55.9336 118.353 59.4081 118.399 62.8825C118.422 64.6717 118.456 66.4604 118.489 68.249L118.489 68.2525C118.536 70.7734 118.583 73.2949 118.602 75.8166C118.613 77.4234 118.597 79.0302 118.581 80.6367C118.56 82.702 118.539 84.7669 118.576 86.831C118.641 90.3953 117.117 93.2427 114.84 95.7946C114.402 96.2856 113.929 96.7444 113.422 97.2355C113.171 97.4795 112.91 97.7318 112.643 97.9995C114.439 98.2899 131.662 95.1059 132.343 94.3581C132.2 94.1853 132.062 94.0021 131.922 93.8174C131.61 93.403 131.293 92.9813 130.896 92.6543C129.154 91.2177 128.098 89.3443 127.89 87.1805C127.61 84.2836 127.578 81.3606 127.546 78.4458L127.543 78.1063C127.522 76.3593 127.546 74.6123 127.57 72.8656V72.862C127.591 71.2852 127.613 69.7086 127.602 68.1327C127.59 66.2829 127.547 64.4339 127.503 62.5848C127.462 60.8142 127.42 59.0437 127.406 57.2725C127.394 55.5611 127.414 53.849 127.434 52.137C127.452 50.6587 127.469 49.1801 127.465 47.7024C127.463 46.3859 127.439 45.0689 127.415 43.7518C127.383 42.0046 127.351 40.2565 127.37 38.51C127.412 34.5558 127.521 30.6016 127.629 26.6492L127.669 25.2213C127.684 24.6354 127.8 24.0366 127.964 23.4687C129.056 19.6833 130.963 16.3039 133.376 13.2304C134.479 11.8247 135.789 10.5603 137.141 9.38587C138.554 8.15491 139.444 8.2834 140.844 9.53235C143.62 12.0045 145.737 14.9779 147.42 18.2596C147.813 19.0237 148.122 19.8302 148.431 20.6372C148.61 21.1027 148.788 21.5692 148.983 22.027C150.16 24.7896 150.052 27.6344 149.206 30.3918C148.266 33.4654 147.541 36.5261 147.68 39.7641C147.754 41.4576 147.744 43.1589 147.713 44.855C147.694 45.8572 147.655 46.8584 147.616 47.8592V47.8614C147.57 49.0232 147.524 50.1844 147.51 51.3464C147.504 51.9149 147.497 52.4834 147.49 53.0519L147.49 53.0579V53.0603C147.441 57.1435 147.391 61.2283 147.441 65.311C147.464 67.2242 147.542 69.1373 147.62 71.0505C147.715 73.3827 147.81 75.715 147.806 78.0472C147.804 78.9567 147.826 79.8686 147.848 80.781C147.933 84.2976 148.018 87.8216 146.755 91.2434C146.313 92.4461 146.693 92.7827 147.981 92.626L148.935 92.5111C151.837 92.1618 154.741 91.8124 157.638 91.4233C158.231 91.3432 158.813 91.1829 159.372 91.0288L159.373 91.0285C159.621 90.9602 159.864 90.8932 160.103 90.8348C160.111 90.7182 160.121 90.6318 160.129 90.5659C160.142 90.4618 160.149 90.409 160.128 90.3697C160.12 90.3547 160.112 90.3396 160.104 90.3245C160.097 90.3102 160.089 90.2959 160.082 90.2815C159.979 90.0875 159.874 89.8883 159.727 89.7323C157.453 87.2935 157.075 84.2945 157.14 81.149C157.181 79.1856 157.183 77.2197 157.165 75.2563C157.153 73.9579 157.129 72.6594 157.105 71.361C157.071 69.5525 157.037 67.744 157.037 65.9355C157.037 64.474 157.065 63.0131 157.093 61.5523C157.124 59.9126 157.155 58.273 157.147 56.6326C157.144 55.6439 157.085 54.6551 157.026 53.6664C156.961 52.5736 156.896 51.4807 156.906 50.3879C156.945 46.0828 157.064 41.7777 157.183 37.4726L157.204 36.7342C157.213 36.4178 157.213 36.0972 157.214 35.7754C157.217 34.6706 157.22 33.5517 157.54 32.5428C158.656 29.0324 158.478 25.4603 158.137 21.9345C157.81 18.5731 156.42 15.4533 154.038 13.0042C151.707 10.6084 149.282 8.30382 146.857 5.99961C145.853 5.04639 144.85 4.09296 143.853 3.13341C143.239 2.54235 142.676 2.48067 141.959 3.1C140.343 4.49543 138.706 5.87545 136.979 7.12439C136.18 7.70243 135.34 8.22935 134.501 8.75616C132.276 10.1522 130.053 11.5474 128.589 13.8908C128.555 13.945 128.479 13.9735 128.351 14.0215Z" fill="white"/>
<path d="M451.656 117.46L451.768 117.503C452.795 117.903 453.822 118.302 454.85 118.702L454.847 118.699L455.117 118.491C455.063 118.376 455.014 118.258 454.966 118.139C454.862 117.885 454.758 117.631 454.601 117.417C452.293 114.292 451.018 110.774 451.013 106.916C451.007 103.276 451.129 99.6347 451.252 95.9949C451.293 94.7691 451.334 93.5426 451.37 92.3171C451.398 91.369 451.443 90.4213 451.488 89.4737C451.549 88.2024 451.61 86.9307 451.627 85.6586C451.654 83.6411 451.649 81.6245 451.643 79.6077C451.64 78.3852 451.636 77.1624 451.64 75.9395C451.647 73.7747 451.658 71.6095 451.668 69.4441C451.68 66.9184 451.692 64.392 451.699 61.8669C451.705 60.4341 451.703 59.0012 451.701 57.5683V57.5593C451.698 55.585 451.696 53.6107 451.712 51.6364C451.725 50.0496 451.756 48.4627 451.787 46.8759C451.817 45.3481 451.847 43.8202 451.861 42.2924C451.892 38.8411 451.892 35.3923 451.887 31.941C451.884 29.0011 451.882 26.0612 451.828 23.1213C451.793 21.2114 451.729 19.3025 451.666 17.3934C451.632 16.3638 451.598 15.3341 451.568 14.3041C451.537 13.2028 451.508 12.1016 451.479 11.0003C451.439 9.45717 451.399 7.91407 451.352 6.37097C451.347 6.22197 451.302 6.07399 451.234 5.85628C451.195 5.72853 451.148 5.57678 451.098 5.38672L441.217 10.362C443.267 13.068 443.306 15.8948 443.296 18.7217C443.294 19.3307 443.258 19.9397 443.221 20.5486C443.186 21.1346 443.15 21.7206 443.147 22.3066C443.124 25.6757 443.124 29.0448 443.134 32.4139C443.139 34.1832 443.156 35.9526 443.174 37.722C443.185 38.8103 443.195 39.8986 443.203 40.9869C443.208 41.6074 443.216 42.228 443.225 42.8488C443.246 44.4003 443.268 45.9523 443.224 47.5015C443.17 49.3825 443.091 51.2635 443.012 53.1447L443.012 53.1468C442.911 55.557 442.81 57.9676 442.761 60.379C442.72 62.4366 442.754 64.4953 442.787 66.5536V66.5554C442.806 67.7148 442.825 68.8749 442.831 70.0339C442.838 71.4371 442.832 72.8396 442.825 74.2421V74.2472C442.82 75.4038 442.815 76.5606 442.818 77.7178C442.821 79.2965 442.831 80.875 442.84 82.4533V82.4551C442.858 85.5314 442.877 88.6069 442.851 91.6824C442.831 93.8513 442.674 96.0229 442.486 98.1841C442.468 98.3921 442.45 98.6004 442.433 98.8089L442.432 98.8113L442.432 98.8123C442.284 100.555 442.135 102.309 441.738 103.997C441.117 106.647 439.505 108.726 437.287 110.319C437.104 110.451 436.929 110.592 436.712 110.767C436.613 110.847 436.504 110.935 436.383 111.031C436.496 111.139 436.596 111.251 436.691 111.356C436.881 111.57 437.05 111.758 437.259 111.84C442.053 113.727 446.854 115.593 451.656 117.46Z" fill="white"/>
<path d="M267.087 38.3719C266.568 38.3261 266.035 38.2791 265.484 38.2299C265.484 37.7793 265.483 37.326 265.482 36.8711C265.479 35.9547 265.476 35.031 265.484 34.1077C265.491 33.3092 265.494 32.5108 265.498 31.7124C265.509 29.3169 265.519 26.9217 265.608 24.5298C265.667 22.9494 266.291 21.6079 267.677 20.5928C268.733 19.8219 269.791 19.385 271.076 19.2925C271.286 19.2766 271.478 19.0368 271.671 18.7963C271.76 18.6856 271.849 18.5747 271.94 18.4855C271.834 18.4309 271.725 18.3577 271.615 18.2844C271.374 18.1231 271.132 17.9611 270.922 17.9947C267.661 18.5009 264.996 19.8527 263.238 22.8851C262.033 24.9662 261.978 27.1728 261.922 29.3784C261.903 30.1498 261.883 30.9211 261.815 31.6869C261.682 33.1672 261.7 34.66 261.718 36.1519C261.723 36.5714 261.728 36.9909 261.73 37.4099C261.732 38.1937 261.37 38.4738 260.638 38.4867C258.505 38.5227 256.372 38.5741 254.239 38.6383C253.774 38.6521 253.309 38.6939 252.821 38.7377C252.583 38.759 252.339 38.7809 252.088 38.8002C253.098 41.1336 253.355 41.2621 255.4 40.4732C257.055 39.8359 258.754 39.8487 260.432 40.2085C260.89 40.3062 261.478 40.8844 261.576 41.3367C261.799 42.3643 261.816 43.4433 261.834 44.5045L261.835 44.585C261.871 46.8619 261.871 49.1413 261.851 51.4208C261.839 52.5576 261.814 53.6939 261.788 54.8301C261.762 56.0157 261.735 57.2014 261.725 58.3876C261.719 59.0749 261.749 59.7668 261.779 60.4583C261.836 61.7707 261.893 63.0817 261.702 64.3574C261.182 67.8061 260.455 71.2369 259.581 74.6163C258.735 77.8844 256.937 80.7348 255.155 83.56C255.01 83.7895 254.866 84.0187 254.722 84.2481C254.205 85.0708 253.506 85.7809 252.81 86.4889C252.571 86.7318 252.332 86.9745 252.101 87.2214C248.847 90.6984 245.154 93.3428 240.207 93.8465C236.581 94.2165 233.672 92.6309 232.3 89.2284C231.902 88.239 231.305 87.9307 230.444 88.5808C229.016 89.6602 227.625 90.7935 226.248 91.9396C225.703 92.3945 225.582 92.965 226.235 93.4456C226.749 93.824 227.272 94.1907 227.795 94.5574C228.521 95.0672 229.249 95.5772 229.951 96.1182C232.811 98.3206 236.155 98.5853 239.478 98.1356C245.481 97.326 250.04 93.7694 253.671 89.2464C256.323 85.9416 258.505 82.205 260.501 78.4505C262.015 75.6082 263.19 72.5064 264.012 69.3892C265.22 64.8071 265.741 60.0812 265.669 55.3115C265.625 52.3568 265.625 49.4 265.626 46.4449L265.626 45.6026C265.624 44.5605 265.64 43.5183 265.656 42.4762C265.664 41.9895 265.671 41.5021 265.677 41.0154C265.685 40.2625 266.052 39.9412 266.813 39.9901C268.635 40.1108 270.457 40.2136 272.279 40.2882C272.526 40.2984 272.983 40.1186 272.991 40.0029C273.012 39.7151 272.906 39.3245 272.703 39.1394C272.472 38.9287 272.084 38.8362 271.752 38.8028C270.246 38.6504 268.736 38.5173 267.087 38.3719Z" fill="white"/>
<path fill-rule="evenodd" clip-rule="evenodd" d="M255.775 47.2397C254.318 43.8218 250.756 41.3187 246.976 41.8173L246.973 41.8224C246.784 41.8224 246.594 41.8206 246.404 41.8188C245.997 41.8149 245.589 41.811 245.182 41.825C243.944 41.8661 243.067 42.3235 242.828 43.6984C242.746 44.1687 242.43 44.6801 242.073 45.0116C239.367 47.5249 240.027 52.4487 241.482 55.0212C242.99 57.6912 245.349 59.1869 248.194 59.9913C248.772 60.1557 249.651 60.0941 250.088 59.7523C250.211 59.6558 250.334 59.5592 250.458 59.4624C251.783 58.4272 253.145 57.3622 254.125 56.0414C256.048 53.4484 257.225 50.6319 255.775 47.2397ZM243.514 48.5631L243.332 48.5246L243.329 48.5271C243.417 48.1031 243.501 47.6778 243.585 47.2525C243.78 46.2629 243.976 45.2731 244.224 44.2972C244.447 43.4183 245.1 42.9249 246.046 43.0148C247.68 43.1716 249.106 43.6419 250.378 44.8728C253.84 48.229 253.907 51.999 252.113 56.1031C251.429 57.6655 250.697 57.902 249.207 57.0719C246.398 55.5069 244.576 53.14 243.638 50.0896C243.538 49.7645 243.533 49.4094 243.529 49.0538C243.528 48.8894 243.526 48.7248 243.514 48.5631Z" fill="white"/>
</svg>
