<svg xmlns="http://www.w3.org/2000/svg" width="691" height="143" viewBox="0 0 691 143">
  <defs>
    <linearGradient id="c" x1="51.115" x2="34.285" y1="86.554" y2="66.678" class="paint2_linear_1118" gradientUnits="userSpaceOnUse">
      <stop stop-color="#97CA43"/>
      <stop offset="1" stop-color="#97CA43" stop-opacity="0"/>
    </linearGradient>
    <linearGradient id="d" x1="27.512" x2="35.762" y1="72.206" y2="76.766" class="paint3_linear_1118" gradientUnits="userSpaceOnUse">
      <stop stop-color="#458F41"/>
      <stop offset="1" stop-color="#458F41" stop-opacity="0"/>
    </linearGradient>
    <linearGradient id="e" x1="62.871" x2="41.471" y1="76.72" y2="67.97" class="paint4_linear_1118" gradientUnits="userSpaceOnUse">
      <stop stop-color="#E5EDAE"/>
      <stop offset="1" stop-color="#E5EDAE" stop-opacity="0"/>
    </linearGradient>
    <linearGradient id="f" x1="61.253" x2="76.621" y1="50.697" y2="16.361" class="paint5_linear_1118" gradientUnits="userSpaceOnUse">
      <stop stop-color="#97CA43"/>
      <stop offset="1" stop-color="#97CA43" stop-opacity="0"/>
    </linearGradient>
    <linearGradient id="g" x1="51.963" x2="51.221" y1="12.399" y2="21.428" class="paint6_linear_1118" gradientUnits="userSpaceOnUse">
      <stop stop-color="#459743"/>
      <stop offset="1" stop-color="#459743" stop-opacity="0"/>
    </linearGradient>
    <linearGradient id="h" x1="59.862" x2="55.39" y1="15.032" y2="21.831" class="paint7_linear_1118" gradientUnits="userSpaceOnUse">
      <stop stop-color="#459743"/>
      <stop offset="1" stop-color="#459743" stop-opacity="0"/>
    </linearGradient>
    <linearGradient id="i" x1="60.614" x2="70.296" y1="61.677" y2="43.943" class="paint8_linear_1118" gradientUnits="userSpaceOnUse">
      <stop stop-color="#E6EDAE"/>
      <stop offset="1" stop-color="#E6EDAE" stop-opacity="0"/>
    </linearGradient>
    <linearGradient id="j" x1="92.544" x2="109.374" y1="86.554" y2="66.678" class="paint9_linear_1118" gradientUnits="userSpaceOnUse">
      <stop stop-color="#97CA43"/>
      <stop offset="1" stop-color="#97CA43" stop-opacity="0"/>
    </linearGradient>
    <linearGradient id="k" x1="116.147" x2="107.897" y1="72.206" y2="76.766" class="paint10_linear_1118" gradientUnits="userSpaceOnUse">
      <stop stop-color="#458F41"/>
      <stop offset="1" stop-color="#458F41" stop-opacity="0"/>
    </linearGradient>
    <linearGradient id="l" x1="80.788" x2="102.189" y1="76.72" y2="67.97" class="paint11_linear_1118" gradientUnits="userSpaceOnUse">
      <stop stop-color="#E5EDAE"/>
      <stop offset="1" stop-color="#E5EDAE" stop-opacity="0"/>
    </linearGradient>
    <linearGradient id="m" x1="91.547" x2="78.365" y1="46.217" y2="24.689" class="paint12_linear_1118" gradientUnits="userSpaceOnUse">
      <stop stop-color="#97CA43"/>
      <stop offset="1" stop-color="#97CA43" stop-opacity="0"/>
    </linearGradient>
    <linearGradient id="n" x1="82.996" x2="86.37" y1="16.537" y2="21.999" class="paint13_linear_1118" gradientUnits="userSpaceOnUse">
      <stop stop-color="#46873F"/>
      <stop offset="1" stop-color="#46873F" stop-opacity="0"/>
    </linearGradient>
    <linearGradient id="o" x1="80.551" x2="72.685" y1="61.301" y2="41.727" class="paint14_linear_1118" gradientUnits="userSpaceOnUse">
      <stop stop-color="#E6EEAD"/>
      <stop offset="1" stop-color="#E6EEAD" stop-opacity="0"/>
    </linearGradient>
    <radialGradient id="a" cx="0" cy="0" r="1" class="paint0_radial_1118" gradientTransform="matrix(0 127.395 -113.121 0 62.858 56.143)" gradientUnits="userSpaceOnUse">
      <stop stop-color="#fff"/>
      <stop offset="1" stop-color="#fff" stop-opacity="0"/>
    </radialGradient>
    <radialGradient id="b" cx="0" cy="0" r="1" class="paint1_radial_1118" gradientTransform="matrix(0 79.5453 -70.6325 0 62.858 56.143)" gradientUnits="userSpaceOnUse">
      <stop stop-color="#fff"/>
      <stop offset="1" stop-color="#fff" stop-opacity="0"/>
    </radialGradient>
  </defs>
  <g class="mainlogo">
    <path fill="#92C83E" d="m451.291 114.493-27.418-37.246-27.409 37.246h-11.287l32.969-44.998-30.106-40.877h11.292l24.542 33.34 24.529-33.34h11.275l-30.094 40.873 32.983 45.002h-11.276Zm-213.725-.017L204.57 69.492l30.099-40.873h-11.28l-24.541 33.364-24.517-33.365h-11.267l30.098 40.873-32.991 44.986h11.293l27.396-37.23 27.409 37.23 11.297-.001Zm70.166-25.066c0 15.464-11.72 25.083-30.617 25.083l-34.861-.017V74.25h-17.838c1.293-1.937 4.717-6.66 6.214-8.61h11.624V28.62h34.861c25.888 0 27.908 17.87 27.908 23.365 0 7.417-4.077 13.804-10.32 17.185a23.822 23.822 0 0 1 5.628 3.583c4.858 4.154 7.401 9.896 7.401 16.658Zm-55.836-23.77h25.219c11.612 0 18.266-5.383 18.266-14.406 0-11.94-11.438-13.661-18.266-13.661h-25.219V65.64Zm46.219 23.59c0-12.324-11.421-14.972-21-14.972h-25.219v31.264h25.219c7.851 0 21-2.138 21-16.292Zm95.868-17.729c0 26.44-16.803 44.873-40.887 44.873-24.118 0-40.975-18.432-40.975-44.873 0-26.408 16.857-44.857 40.975-44.857 24.084 0 40.887 18.45 40.887 44.857Zm-9.75 0c0-21.071-12.809-35.784-31.137-35.784-18.374 0-31.25 14.712-31.25 35.784 0 21.071 12.876 35.8 31.25 35.8 18.328 0 31.137-14.73 31.137-35.8Z" class="Vector"/>
    <path fill="#9D9FA2" d="M650.998 26.599c-20.385 0-32.089 16.41-32.089 45.018 0 28.59 11.704 45.018 32.089 45.018 11.625 0 20.261-5.078 25.747-15.028 5.211-9.503 6.317-21.56 6.317-29.99 0-13.53-3.134-45.019-32.064-45.019Zm0 82.333c-5.819 0-10.648-1.899-14.372-5.592-8.179-8.218-9.409-23.39-9.409-31.723 0-11.223 2.327-37.307 23.781-37.307 21.45 0 23.752 26.084 23.752 37.307 0 11.222-2.303 37.315-23.752 37.315Zm-68.891-52.6c-9.309 0-17.817 4.54-23.049 12.025 1.097-16.304 6.333-34.047 24.026-34.047 9.895 0 17.389 6.452 19.072 16.454l.258 1.569h8.216l-.216-2.084c-1.625-14.582-12.098-23.65-27.331-23.65-26.926 0-32.566 26.715-32.566 49.111 0 26.774 10.922 40.926 31.59 40.926 16.969 0 29.807-12.857 29.807-29.9 0-17.633-12.551-30.405-29.807-30.405Zm0 52.6c-12.169 0-21.719-9.758-21.719-22.195 0-12.946 9.359-22.69 21.719-22.69 5.557 0 10.814 2.17 14.734 6.105 4.301 4.275 6.728 10.318 6.728 16.585 0 12.437-9.426 22.195-21.462 22.195Zm-38.053-18.853c0 16.04-11.936 26.398-30.389 26.398-10.008 0-18.141-2.979-23.519-8.617-5.145-5.396-7.647-13.116-7.236-22.343l.063-1.757h8.324l-.058 1.923c-.291 6.95 1.604 12.776 5.494 16.826 3.94 4.086 9.813 6.278 16.932 6.278 10.985 0 22.052-6.438 22.052-18.709 0-5.068-1.55-9.101-4.659-12-3.749-3.52-9.791-5.116-17.426-5.197h-5.79a224.23 224.23 0 0 1 0-8.12c2.112-.01 4.298-.043 5.756-.043 4.061 0 11.958-1.02 16.23-5.128 2.61-2.527 3.986-5.983 3.986-10.247 0-9.977-10.141-15.19-20.149-15.19-9.912 0-17.393 6.46-19.08 16.47l-.254 1.554h-8.266l.241-2.074c1.641-14.575 12.139-23.658 27.359-23.658 9.301 0 17.518 2.882 22.534 7.89 3.911 3.934 5.922 8.973 5.922 15.008 0 8.549-4.617 15.785-11.878 19.124 8.542 3.427 13.811 11.47 13.811 21.612ZM691 105.094c0 1.632-.557 3.001-1.67 4.113-1.098 1.109-2.469 1.668-4.09 1.668-1.646 0-3.009-.538-4.09-1.623-1.089-1.085-1.629-2.46-1.629-4.106 0-1.631.557-3.004 1.663-4.112 1.088-1.122 2.46-1.675 4.098-1.675 1.604 0 2.95.532 4.039 1.596 1.114 1.093 1.679 2.477 1.679 4.139Zm-.69.036c0-1.469-.482-2.687-1.471-3.674-.973-.975-2.17-1.455-3.574-1.455-1.463 0-2.668.484-3.624 1.471-.965.993-1.438 2.2-1.438 3.658 0 1.471.49 2.705 1.487 3.688.973.975 2.162 1.469 3.575 1.469 1.396 0 2.585-.494 3.566-1.477.997-.992 1.479-2.218 1.479-3.68Zm-2.278 3.621h-1.229l-.798-1.774c-.399-.896-.832-1.338-1.306-1.338h-.673v3.113h-1.014v-7.407h2.053c.906 0 1.596.208 2.061.617.399.362.599.825.599 1.405 0 .505-.166.931-.482 1.292-.316.364-.781.605-1.363.726v.028c.399.094.806.55 1.205 1.366l.947 1.972Zm-1.395-5.265c0-.43-.117-.728-.358-.923-.258-.218-.706-.324-1.347-.324h-.906v2.529h1.106c.989 0 1.505-.43 1.505-1.282Z" class="Vector"/>
    <g class="Group">
      <path fill="#666" d="M71.795 142.268c39.651 0 71.795-31.779 71.795-70.982 0-39.202-32.144-70.981-71.795-70.981S0 32.085 0 71.286c0 39.203 32.144 70.982 71.795 70.982Z" class="Vector"/>
      <path fill="url(#a)" d="M71.795 142.268c39.651 0 71.795-31.779 71.795-70.982 0-39.202-32.144-70.981-71.795-70.981S0 32.085 0 71.286c0 39.203 32.144 70.982 71.795 70.982Z" class="Vector"/>
      <path fill="url(#b)" d="M71.795 142.268c39.651 0 71.795-31.779 71.795-70.982 0-39.202-32.144-70.981-71.795-70.981S0 32.085 0 71.286c0 39.203 32.144 70.982 71.795 70.982Z" class="Vector"/>
    </g>
    <path fill="#00A54D" d="M53.641 40.195c-7.922 9.61-41.13 48.664-38.187 75.072 2.05 2.598 4.308 5.027 6.7 7.321-.35-20.214 23.374-41.847 41.888-58.177l-10.4-24.216Z" class="Vector"/>
    <g class="Group">
      <path fill="url(#c)" d="M53.64 40.195c-7.922 9.61-41.13 48.664-38.187 75.072 2.051 2.598 4.308 5.027 6.7 7.32-.348-20.213 23.375-41.846 41.888-58.176l-10.4-24.216Z" class="Vector"/>
      <path fill="url(#d)" d="M53.64 40.195c-7.922 9.61-41.13 48.664-38.187 75.072 2.051 2.598 4.308 5.027 6.7 7.32-.348-20.213 23.375-41.846 41.888-58.176l-10.4-24.216Z" class="Vector"/>
      <path fill="url(#e)" d="M53.64 40.195c-7.922 9.61-41.13 48.664-38.187 75.072 2.051 2.598 4.308 5.027 6.7 7.32-.348-20.213 23.375-41.846 41.888-58.176l-10.4-24.216Z" class="Vector"/>
    </g>
    <path fill="#02A74D" d="M34.156 10.915c-4.14 2.492-7.988 5.42-11.523 8.652 11.389 2.164 22.814 12.192 29.076 20.498 5.455 8.525 8.418 16.343 12.27 24.412 2.607-2.208 5.258-4.457 8.13-6.759l-.017-35.04c-8.485-5.272-22.51-12.211-37.802-11.763-.033.02-.101-.02-.134 0Z" class="Vector"/>
    <path fill="url(#f)" d="M34.156 10.915c-4.14 2.492-7.988 5.42-11.523 8.652 11.389 2.164 22.814 12.192 29.076 20.499 5.455 8.524 8.418 16.341 12.269 24.41 2.608-2.207 5.259-4.456 8.13-6.757l-.016-35.04c-8.486-5.273-22.51-12.212-37.802-11.764-.033.02-.101-.02-.134 0Z" class="Vector"/>
    <path fill="url(#g)" d="M34.156 10.915c-4.14 2.492-7.988 5.42-11.523 8.652 11.389 2.164 22.814 12.192 29.076 20.499 5.455 8.524 8.418 16.341 12.269 24.41 2.608-2.207 5.259-4.456 8.13-6.757l-.016-35.04c-8.486-5.273-22.51-12.212-37.802-11.764-.033.02-.101-.02-.134 0Z" class="Vector"/>
    <path fill="url(#h)" d="M34.156 10.915c-4.14 2.492-7.988 5.42-11.523 8.652 11.389 2.164 22.814 12.192 29.076 20.499 5.455 8.524 8.418 16.341 12.269 24.41 2.608-2.207 5.259-4.456 8.13-6.757l-.016-35.04c-8.486-5.273-22.51-12.212-37.802-11.764-.033.02-.101-.02-.134 0Z" class="Vector"/>
    <path fill="url(#i)" d="M34.156 10.915c-4.14 2.492-7.988 5.42-11.523 8.652 11.389 2.164 22.814 12.192 29.076 20.499 5.455 8.524 8.418 16.341 12.269 24.41 2.608-2.207 5.259-4.456 8.13-6.757l-.016-35.04c-8.486-5.273-22.51-12.212-37.802-11.764-.033.02-.101-.02-.134 0Z" class="Vector"/>
    <path fill="#00A54D" d="M90.019 40.195c7.922 9.61 41.13 48.664 38.187 75.072-2.051 2.598-4.308 5.027-6.7 7.321.349-20.214-23.374-41.847-41.888-58.177l10.4-24.216Z" class="Vector"/>
    <g class="Group">
      <path fill="url(#j)" d="M90.018 40.195c7.923 9.61 41.131 48.664 38.188 75.072-2.051 2.598-4.308 5.027-6.699 7.32.348-20.213-23.375-41.846-41.889-58.176l10.4-24.216Z" class="Vector"/>
      <path fill="url(#k)" d="M90.018 40.195c7.923 9.61 41.131 48.664 38.188 75.072-2.051 2.598-4.308 5.027-6.699 7.32.348-20.213-23.375-41.846-41.889-58.176l10.4-24.216Z" class="Vector"/>
      <path fill="url(#l)" d="M90.018 40.195c7.923 9.61 41.131 48.664 38.188 75.072-2.051 2.598-4.308 5.027-6.699 7.32.348-20.213-23.375-41.846-41.889-58.176l10.4-24.216Z" class="Vector"/>
    </g>
    <path fill="#02A74D" d="M109.527 10.915c4.127 2.494 7.961 5.424 11.485 8.66-11.352 2.165-22.739 12.202-28.98 20.515-5.438 8.532-8.39 16.356-12.229 24.432-2.599-2.21-5.241-4.46-8.104-6.764l.017-35.07c8.458-5.277 22.435-12.221 37.677-11.773.033.02.101-.02.134 0Z" class="Vector"/>
    <path fill="url(#m)" d="M109.527 10.915c4.126 2.494 7.961 5.424 11.485 8.66-11.352 2.165-22.739 12.202-28.98 20.515-5.438 8.532-8.39 16.356-12.229 24.432-2.6-2.21-5.241-4.46-8.104-6.764l.017-35.07c8.457-5.276 22.435-12.222 37.677-11.773.033.02.101-.02.134 0Z" class="Vector"/>
    <path fill="url(#n)" d="M109.527 10.915c4.126 2.494 7.961 5.424 11.485 8.66-11.352 2.165-22.739 12.202-28.98 20.515-5.438 8.532-8.39 16.356-12.229 24.432-2.6-2.21-5.241-4.46-8.104-6.764l.017-35.07c8.457-5.276 22.435-12.222 37.677-11.773.033.02.101-.02.134 0Z" class="Vector"/>
    <path fill="url(#o)" d="M109.527 10.915c4.126 2.494 7.961 5.424 11.485 8.66-11.352 2.165-22.739 12.202-28.98 20.515-5.438 8.532-8.39 16.356-12.229 24.432-2.6-2.21-5.241-4.46-8.104-6.764l.017-35.07c8.457-5.276 22.435-12.222 37.677-11.773.033.02.101-.02.134 0Z" class="Vector"/>
  </g>
</svg>
