<svg width="120" height="81" viewBox="0 0 120 81" fill="none" xmlns="http://www.w3.org/2000/svg">
<path fill-rule="evenodd" clip-rule="evenodd" d="M42.7691 3.29043C44.5994 2.84814 46.5493 3.36304 48.2425 4.49183L49.0475 5.0285C51.342 6.55822 54.0381 7.37451 56.7958 7.37451H62.6894C65.7831 7.37451 68.8075 6.45877 71.3816 4.74269C73.3234 3.44814 75.5627 2.84796 77.6512 3.39623C78.798 3.69729 80.0296 4.12205 81.1211 4.71144C82.2174 5.30347 83.1149 6.0306 83.6703 6.90898C84.3379 7.9647 85.3529 10.6338 86.3967 14.2221C87.4268 17.7632 88.4504 22.0758 89.167 26.3255C89.8855 30.5865 90.2861 34.7317 90.0961 37.9579C90.0009 39.5743 89.7603 40.9007 89.3738 41.8785C88.9867 42.858 88.503 43.3707 87.9878 43.5843C86.6055 44.1574 85.3915 43.9696 84.1299 43.2737C82.8075 42.5444 81.4995 41.2915 80.0279 39.7944C79.8484 39.6119 79.6668 39.4259 79.4829 39.2377C78.1982 37.9226 76.8035 36.4951 75.2689 35.306C73.501 33.9361 71.4757 32.8223 69.0828 32.5109L69.0692 32.5092L68.0591 32.3918C62.6449 31.7623 57.1755 31.7686 51.7627 32.4106L50.9448 32.5077C48.6153 32.7106 46.6201 33.7817 44.8705 35.1294C43.3374 36.3103 41.9272 37.7581 40.6201 39.0999C40.4424 39.2823 40.2666 39.4628 40.0927 39.6403C38.6008 41.1635 37.26 42.4577 35.9079 43.22C34.6121 43.9507 33.3825 44.1523 32.0126 43.5843C31.4974 43.3707 31.0137 42.858 30.6266 41.8785C30.2401 40.9007 29.9995 39.5743 29.9043 37.9579C29.7143 34.7317 30.1149 30.5865 30.8334 26.3255C31.5499 22.0758 32.5736 17.7632 33.6037 14.2221C34.6475 10.6338 35.6625 7.9647 36.3301 6.90898C36.9206 5.97508 37.8971 5.21338 39.0834 4.60397C40.2629 3.99802 41.5825 3.57715 42.7691 3.29043ZM70.2722 3.0786C68.0266 4.57565 65.3882 5.37451 62.6894 5.37451H56.7958C54.4329 5.37451 52.1229 4.67509 50.1569 3.3644L49.3519 2.82773C47.3284 1.47869 44.8109 0.739485 42.2993 1.34638C41.0221 1.65499 39.5382 2.12186 38.1695 2.82499C36.8076 3.52464 35.4913 4.49333 34.6397 5.84005C33.8002 7.16766 32.7198 10.1004 31.6833 13.6634C30.6331 17.2735 29.5916 21.6616 28.8612 25.9929C28.1328 30.3129 27.7048 34.6292 27.9078 38.0755C28.0091 39.7955 28.2704 41.3582 28.7666 42.6137C29.2622 43.8675 30.042 44.9323 31.2465 45.4318C33.316 46.2898 35.1965 45.9172 36.8902 44.9622C38.5276 44.039 40.0559 42.5361 41.5215 41.0398C41.7003 40.8574 41.8784 40.6746 42.0563 40.4921C43.3754 39.1389 44.6792 37.8013 46.091 36.7139C47.6806 35.4894 49.321 34.6534 51.1316 34.499L51.1481 34.4976L51.9983 34.3967C57.2561 33.773 62.5689 33.7669 67.8281 34.3784L68.8311 34.4951C70.7449 34.7456 72.4396 35.6438 74.0438 36.8869C75.4609 37.9849 76.7515 39.305 78.0458 40.629C78.2309 40.8183 78.416 41.0076 78.6016 41.1964C80.0471 42.667 81.5474 44.1335 83.164 45.025C84.8412 45.9501 86.6968 46.2847 88.7539 45.4318C89.9584 44.9323 90.7382 43.8675 91.2338 42.6137C91.73 41.3582 91.9913 39.7955 92.0926 38.0755C92.2956 34.6292 91.8676 30.3129 91.1392 25.9929C90.4088 21.6616 89.3673 17.2735 88.3171 13.6634C87.2806 10.1004 86.2002 7.16766 85.3607 5.84005C84.5584 4.57124 83.3441 3.63892 82.0714 2.95163C80.7938 2.26171 79.3991 1.7873 78.1591 1.46178C75.3601 0.726976 72.5348 1.57017 70.2722 3.0786Z" fill="white"/>
<path d="M72.1556 24.5485C72.1556 26.8005 70.33 28.6261 68.0779 28.6261C65.8259 28.6261 64.0002 26.8005 64.0002 24.5485C64.0002 22.2965 65.8259 20.4709 68.0779 20.4709C70.33 20.4709 72.1556 22.2965 72.1556 24.5485Z" fill="white"/>
<path fill-rule="evenodd" clip-rule="evenodd" d="M68.0779 27.4666C69.6896 27.4666 70.9961 26.1601 70.9961 24.5485C70.9961 22.937 69.6896 21.6305 68.0779 21.6305C66.4663 21.6305 65.1598 22.937 65.1598 24.5485C65.1598 26.1601 66.4663 27.4666 68.0779 27.4666ZM68.0779 28.6261C70.33 28.6261 72.1556 26.8005 72.1556 24.5485C72.1556 22.2965 70.33 20.4709 68.0779 20.4709C65.8259 20.4709 64.0002 22.2965 64.0002 24.5485C64.0002 26.8005 65.8259 28.6261 68.0779 28.6261Z" fill="white"/>
<path fill-rule="evenodd" clip-rule="evenodd" d="M68.0777 30.3377C71.275 30.3377 73.8669 27.7458 73.8669 24.5485C73.8669 21.3512 71.275 18.7593 68.0777 18.7593C64.8803 18.7593 62.2884 21.3512 62.2884 24.5485C62.2884 27.7458 64.8803 30.3377 68.0777 30.3377ZM68.0777 31.2684C71.789 31.2684 74.7977 28.2598 74.7977 24.5485C74.7977 20.8372 71.789 17.8286 68.0777 17.8286C64.3663 17.8286 61.3577 20.8372 61.3577 24.5485C61.3577 28.2598 64.3663 31.2684 68.0777 31.2684Z" fill="white"/>
<path d="M46.1556 12.5485C46.1556 14.8005 44.33 16.6261 42.0779 16.6261C39.8259 16.6261 38.0002 14.8005 38.0002 12.5485C38.0002 10.2965 39.8259 8.47095 42.0779 8.47095C44.33 8.47095 46.1556 10.2965 46.1556 12.5485Z" fill="white"/>
<path fill-rule="evenodd" clip-rule="evenodd" d="M42.0779 15.4666C43.6896 15.4666 44.9961 14.1601 44.9961 12.5485C44.9961 10.937 43.6896 9.63048 42.0779 9.63048C40.4663 9.63048 39.1598 10.937 39.1598 12.5485C39.1598 14.1601 40.4663 15.4666 42.0779 15.4666ZM42.0779 16.6261C44.33 16.6261 46.1556 14.8005 46.1556 12.5485C46.1556 10.2965 44.33 8.47095 42.0779 8.47095C39.8259 8.47095 38.0002 10.2965 38.0002 12.5485C38.0002 14.8005 39.8259 16.6261 42.0779 16.6261Z" fill="white"/>
<path fill-rule="evenodd" clip-rule="evenodd" d="M42.0777 18.3377C45.275 18.3377 47.8669 15.7458 47.8669 12.5485C47.8669 9.35125 45.275 6.75934 42.0777 6.75934C38.8803 6.75934 36.2884 9.35125 36.2884 12.5485C36.2884 15.7458 38.8803 18.3377 42.0777 18.3377ZM42.0777 19.2684C45.789 19.2684 48.7977 16.2598 48.7977 12.5485C48.7977 8.83721 45.789 5.82861 42.0777 5.82861C38.3663 5.82861 35.3577 8.83721 35.3577 12.5485C35.3577 16.2598 38.3663 19.2684 42.0777 19.2684Z" fill="white"/>
<path fill-rule="evenodd" clip-rule="evenodd" d="M77.7143 9.09279C78.4995 9.09279 79.136 8.45626 79.136 7.67108C79.136 6.88589 78.4995 6.24936 77.7143 6.24936C76.9291 6.24936 76.2926 6.88589 76.2926 7.67108C76.2926 8.45626 76.9291 9.09279 77.7143 9.09279ZM77.7143 10.0895C79.0499 10.0895 80.1327 9.00672 80.1327 7.67108C80.1327 6.33544 79.0499 5.25269 77.7143 5.25269C76.3787 5.25269 75.2959 6.33544 75.2959 7.67108C75.2959 9.00672 76.3787 10.0895 77.7143 10.0895Z" fill="white"/>
<path fill-rule="evenodd" clip-rule="evenodd" d="M77.7136 18.8364C78.4988 18.8364 79.1353 18.1999 79.1353 17.4147C79.1353 16.6295 78.4988 15.993 77.7136 15.993C76.9284 15.993 76.2918 16.6295 76.2918 17.4147C76.2918 18.1999 76.9284 18.8364 77.7136 18.8364ZM77.7136 19.8331C79.0492 19.8331 80.132 18.7504 80.132 17.4147C80.132 16.0791 79.0492 14.9963 77.7136 14.9963C76.3779 14.9963 75.2952 16.0791 75.2952 17.4147C75.2952 18.7504 76.3779 19.8331 77.7136 19.8331Z" fill="white"/>
<path fill-rule="evenodd" clip-rule="evenodd" d="M74.2642 12.5428C74.2642 11.7576 73.6277 11.1211 72.8425 11.1211C72.0573 11.1211 71.4207 11.7576 71.4207 12.5428C71.4207 13.328 72.0573 13.9645 72.8425 13.9645C73.6277 13.9645 74.2642 13.328 74.2642 12.5428ZM75.2609 12.5428C75.2609 11.2072 74.1781 10.1244 72.8425 10.1244C71.5068 10.1244 70.4241 11.2072 70.4241 12.5428C70.4241 13.8784 71.5068 14.9612 72.8425 14.9612C74.1781 14.9612 75.2609 13.8784 75.2609 12.5428Z" fill="white"/>
<path fill-rule="evenodd" clip-rule="evenodd" d="M84.0071 12.5433C84.0071 11.7581 83.3706 11.1216 82.5854 11.1216C81.8002 11.1216 81.1637 11.7581 81.1637 12.5433C81.1637 13.3285 81.8002 13.965 82.5854 13.965C83.3706 13.965 84.0071 13.3285 84.0071 12.5433ZM85.0038 12.5433C85.0038 11.2076 83.921 10.1249 82.5854 10.1249C81.2497 10.1249 80.167 11.2076 80.167 12.5433C80.167 13.8789 81.2497 14.9617 82.5854 14.9617C83.921 14.9617 85.0038 13.8789 85.0038 12.5433Z" fill="white"/>
<path fill-rule="evenodd" clip-rule="evenodd" d="M60.0878 15.4276C61.4487 15.4276 62.5519 14.3244 62.5519 12.9636C62.5519 11.6027 61.4487 10.4995 60.0878 10.4995C58.727 10.4995 57.6238 11.6027 57.6238 12.9636C57.6238 14.3244 58.727 15.4276 60.0878 15.4276ZM60.0878 16.2582C61.9074 16.2582 63.3825 14.7831 63.3825 12.9636C63.3825 11.144 61.9074 9.66895 60.0878 9.66895C58.2683 9.66895 56.7932 11.144 56.7932 12.9636C56.7932 14.7831 58.2683 16.2582 60.0878 16.2582Z" fill="white"/>
<path d="M64.4319 12.9636C64.4319 12.3345 64.9419 11.8245 65.571 11.8245H66.9379C67.567 11.8245 68.077 12.3345 68.077 12.9636V12.9636C68.077 13.5927 67.567 14.1027 66.9379 14.1027H65.571C64.9419 14.1027 64.4319 13.5927 64.4319 12.9636V12.9636Z" fill="white"/>
<path d="M64.4319 12.9636C64.4319 12.3345 64.9419 11.8245 65.571 11.8245H66.9379C67.567 11.8245 68.077 12.3345 68.077 12.9636V12.9636C68.077 13.5927 67.567 14.1027 66.9379 14.1027H65.571C64.9419 14.1027 64.4319 13.5927 64.4319 12.9636V12.9636Z" fill="white"/>
<path d="M52.1008 12.9636C52.1008 12.3345 52.6108 11.8245 53.2399 11.8245H54.6069C55.236 11.8245 55.746 12.3345 55.746 12.9636V12.9636C55.746 13.5927 55.236 14.1027 54.6069 14.1027H53.2399C52.6108 14.1027 52.1008 13.5927 52.1008 12.9636V12.9636Z" fill="white"/>
<path d="M52.1008 12.9636C52.1008 12.3345 52.6108 11.8245 53.2399 11.8245H54.6069C55.236 11.8245 55.746 12.3345 55.746 12.9636V12.9636C55.746 13.5927 55.236 14.1027 54.6069 14.1027H53.2399C52.6108 14.1027 52.1008 13.5927 52.1008 12.9636V12.9636Z" fill="white"/>
<path fill-rule="evenodd" clip-rule="evenodd" d="M51.4709 30.124C54.5503 30.124 57.0466 27.6277 57.0466 24.5483C57.0466 21.469 54.5503 18.9726 51.4709 18.9726C48.3916 18.9726 45.8953 21.469 45.8953 24.5483C45.8953 27.6277 48.3916 30.124 51.4709 30.124ZM51.4709 31.2983C55.1989 31.2983 58.2209 28.2763 58.2209 24.5483C58.2209 20.8204 55.1989 17.7983 51.4709 17.7983C47.743 17.7983 44.7209 20.8204 44.7209 24.5483C44.7209 28.2763 47.743 31.2983 51.4709 31.2983Z" fill="white"/>
<path fill-rule="evenodd" clip-rule="evenodd" d="M49.4899 18.7334C49.6784 18.7334 49.8313 18.8862 49.8313 19.0748V20.6416C49.8313 21.8468 48.9339 22.8633 47.7381 23.0128L45.581 23.2824C45.3939 23.3058 45.2233 23.1731 45.1999 22.986C45.1766 22.7989 45.3093 22.6283 45.4963 22.6049L47.6534 22.3353C48.5075 22.2285 49.1485 21.5024 49.1485 20.6416V19.0748C49.1485 18.8862 49.3014 18.7334 49.4899 18.7334Z" fill="white"/>
<path fill-rule="evenodd" clip-rule="evenodd" d="M53.4425 18.7334C53.2539 18.7334 53.1011 18.8862 53.1011 19.0748V20.6416C53.1011 21.8468 53.9985 22.8633 55.1943 23.0128L57.3514 23.2824C57.5384 23.3058 57.7091 23.1731 57.7324 22.986C57.7558 22.7989 57.6231 22.6283 57.436 22.6049L55.279 22.3353C54.4248 22.2285 53.7838 21.5024 53.7838 20.6416V19.0748C53.7838 18.8862 53.631 18.7334 53.4425 18.7334Z" fill="white"/>
<path fill-rule="evenodd" clip-rule="evenodd" d="M49.4899 30.3638C49.6784 30.3638 49.8313 30.2109 49.8313 30.0224V28.4555C49.8313 27.2504 48.9339 26.2339 47.7381 26.0844L45.581 25.8148C45.3939 25.7914 45.2233 25.9241 45.1999 26.1112C45.1766 26.2982 45.3093 26.4688 45.4963 26.4922L47.6534 26.7619C48.5075 26.8686 49.1485 27.5947 49.1485 28.4555V30.0224C49.1485 30.2109 49.3014 30.3638 49.4899 30.3638Z" fill="white"/>
<path fill-rule="evenodd" clip-rule="evenodd" d="M53.4405 30.3613C53.252 30.3613 53.0992 30.2085 53.0992 30.02V28.4531C53.0992 27.248 53.9965 26.2314 55.1923 26.082L57.3494 25.8123C57.5365 25.7889 57.7071 25.9216 57.7305 26.1087C57.7539 26.2958 57.6212 26.4664 57.4341 26.4898L55.277 26.7594C54.4229 26.8662 53.7819 27.5923 53.7819 28.4531V30.02C53.7819 30.2085 53.6291 30.3613 53.4405 30.3613Z" fill="white"/>
<path d="M46.8491 1.41962L47.4005 2.41223L44.6667 1.55352L40.1804 2.44728L38.0387 3.54989C37.4003 3.87858 36.7812 3.32153 37.4204 2.99433V2.99433L38.7773 2.29971C39.3147 2.02461 39.8718 1.78971 40.4439 1.59693C42.0036 1.07138 43.6556 0.876233 45.2948 1.02391L46.3929 1.12283C46.5847 1.14011 46.7555 1.25125 46.8491 1.41962Z" fill="white"/>
<path fill-rule="evenodd" clip-rule="evenodd" d="M40.2842 1.1231C41.9097 0.575395 43.6314 0.372023 45.3397 0.525927L46.4377 0.624849C46.7945 0.656989 47.1122 0.863673 47.2861 1.17679L48.4461 3.26474L44.6389 2.06888L40.3469 2.92393L36.1404 5.08964V4.26983C36.1404 3.5443 36.5467 2.87987 37.1925 2.54926L38.5495 1.85463C39.1089 1.56828 39.6887 1.32377 40.2842 1.1231Z" fill="white"/>
<path d="M73.0811 1.41962L72.5297 2.41223L75.2635 1.55352L79.7498 2.44728L81.8914 3.54989C82.5298 3.87858 83.149 3.32153 82.5098 2.99433V2.99433L81.1529 2.29971C80.6155 2.02461 80.0584 1.78971 79.4863 1.59693C77.9266 1.07138 76.2746 0.876233 74.6354 1.02391L73.5373 1.12283C73.3455 1.14011 73.1747 1.25125 73.0811 1.41962Z" fill="white"/>
<path fill-rule="evenodd" clip-rule="evenodd" d="M79.646 1.1231C78.0205 0.575395 76.2988 0.372023 74.5905 0.525927L73.4925 0.624849C73.1357 0.656989 72.818 0.863673 72.644 1.17679L71.4841 3.26474L75.2913 2.06888L79.5833 2.92393L83.7898 5.08964V4.26983C83.7898 3.5443 83.3835 2.87987 82.7377 2.54926L81.3807 1.85463C80.8213 1.56828 80.2415 1.32377 79.646 1.1231Z" fill="white"/>
</svg>
