<svg width="691" height="144" viewBox="0 0 691 144" fill="none" xmlns="http://www.w3.org/2000/svg">
<path d="M21.4286 20.7237C21.3741 20.7601 21.3559 20.7965 21.3559 20.7783C8.17192 33.8248 0 51.9479 0 71.9816C0 88.3761 5.46611 103.479 14.6731 115.561C14.7639 115.67 14.9274 115.743 15.0545 115.67C15.1816 115.597 15.1816 115.433 15.1271 115.288C9.67919 98.3475 36.6102 56.6243 51.0654 39.3745C51.1199 39.32 51.1562 39.2472 51.1562 39.1744C51.1562 39.0834 51.1017 38.9924 51.0291 38.9378C26.6949 14.6827 21.2652 20.8693 21.3378 20.7783" fill="white"/>
<path d="M122.161 20.7237C122.216 20.7601 122.234 20.7965 122.234 20.7783C135.418 33.8248 143.59 51.9297 143.59 71.9634C143.59 88.358 138.124 103.461 128.898 115.543C128.808 115.652 128.644 115.725 128.517 115.652C128.39 115.579 128.39 115.415 128.444 115.27C133.911 98.3475 106.961 56.6243 92.5243 39.3745C92.4698 39.32 92.4153 39.2472 92.4153 39.1744C92.4153 39.0834 92.4698 38.9924 92.5424 38.9378C116.877 14.6827 122.306 20.8693 122.234 20.7783" fill="white"/>
<path d="M71.8039 0.03125C84.9879 0.03125 97.3366 3.59765 107.96 9.80246C108.087 9.87524 108.142 10.0208 108.069 10.1664C108.015 10.2937 107.869 10.3119 107.724 10.2937C95.1756 7.47338 73.9649 20.7018 71.9492 21.9027C71.9129 21.9209 71.8584 21.9573 71.8039 21.9573C71.7494 21.9573 71.695 21.9209 71.6586 21.9027C69.6611 20.6836 48.4504 7.45518 35.902 10.2937C35.7567 10.3301 35.6114 10.2937 35.5569 10.1664C35.4843 10.039 35.5569 9.87524 35.6659 9.80246C46.2712 3.59765 58.6199 0.03125 71.8039 0.03125Z" fill="white"/>
<path d="M71.8039 56.6758C71.8766 56.6758 71.9855 56.7486 72.04 56.785C93.5049 73.1431 130.279 114.666 119.056 126.111L119.074 126.093C119.074 126.093 119.074 126.111 119.056 126.111C106.417 137.193 89.8911 143.907 71.8039 143.907C53.6986 143.907 37.1732 137.193 24.5521 126.111C24.5521 126.111 24.5521 126.111 24.5339 126.093L24.5521 126.111C13.3293 114.684 50.103 73.1613 71.586 56.785C71.6224 56.7486 71.7131 56.6758 71.8039 56.6758Z" fill="white"/>
<path d="M451.291 114.923L423.873 77.6762L396.464 114.923H385.177L418.146 69.9251L388.04 29.0481H399.332L423.874 62.388L448.403 29.0481H459.678L429.584 69.9208L462.567 114.923H451.291ZM237.566 114.906L204.57 69.9212L234.669 29.0485H223.389L198.848 62.4132L174.331 29.0481H163.064L193.162 69.9208L160.171 114.906H171.464L198.86 77.6766L226.269 114.906L237.566 114.906ZM307.732 89.8393C307.732 105.304 296.012 114.923 277.115 114.923L242.254 114.906V74.6801H224.416C225.709 72.7428 229.133 68.0198 230.63 66.0706H242.254V29.0485H277.115C303.003 29.0485 305.023 46.9195 305.023 52.4137C305.023 59.8303 300.946 66.2178 294.703 69.5987C296.598 70.4656 298.543 71.6414 300.331 73.1816C305.189 77.3353 307.732 83.0776 307.732 89.8393ZM251.896 66.0702H277.115C288.727 66.0702 295.381 60.6866 295.381 51.6634C295.381 39.7233 283.943 38.0023 277.115 38.0023H251.896V66.0702ZM298.115 89.6601C298.115 77.3353 286.694 74.6882 277.115 74.6882H251.896V105.952H277.115C284.966 105.952 298.115 103.813 298.115 89.6601ZM393.983 71.9308C393.983 98.3713 377.18 116.804 353.096 116.804C328.978 116.804 312.121 98.3717 312.121 71.9304C312.121 45.5231 328.978 27.0742 353.096 27.0742C377.18 27.0742 393.983 45.5236 393.983 71.9308ZM384.233 71.9304C384.233 50.8595 371.424 36.1467 353.096 36.1467C334.722 36.1467 321.846 50.8591 321.846 71.9304C321.846 93.0018 334.722 107.731 353.096 107.731C371.424 107.731 384.233 93.0013 384.233 71.9304Z" fill="white"/>
<path d="M650.998 27.0282C630.613 27.0282 618.909 43.4386 618.909 72.047C618.909 100.636 630.613 117.065 650.998 117.065C662.623 117.065 671.259 111.986 676.745 102.037C681.956 92.534 683.062 80.4773 683.062 72.047C683.062 58.5169 679.928 27.0282 650.998 27.0282ZM650.998 109.362C645.179 109.362 640.35 107.463 636.626 103.77C628.447 95.5518 627.217 80.3798 627.217 72.047C627.217 60.8236 629.544 34.7402 650.998 34.7402C672.448 34.7402 674.75 60.8236 674.75 72.0466C674.75 83.2683 672.447 109.362 650.998 109.362ZM582.107 56.761C572.798 56.761 564.29 61.3015 559.058 68.7866C560.155 52.4822 565.391 34.7402 583.084 34.7402C592.979 34.7402 600.473 41.192 602.156 51.194L602.414 52.7626H610.63L610.414 50.6786C608.789 36.0969 598.316 27.0282 583.083 27.0282C556.157 27.0282 550.517 53.7436 550.517 76.1402C550.517 102.914 561.439 117.065 582.107 117.065C599.076 117.065 611.914 104.209 611.914 87.1666C611.914 69.5326 599.363 56.761 582.107 56.761ZM582.107 109.362C569.938 109.362 560.388 99.6033 560.388 87.1666C560.388 74.2204 569.747 64.4767 582.107 64.4767C587.664 64.4767 592.921 66.6459 596.841 70.5817C601.142 74.8562 603.569 80.8995 603.569 87.1666C603.569 99.6037 594.143 109.362 582.107 109.362ZM544.054 90.5082C544.054 106.548 532.118 116.907 513.665 116.907C503.657 116.907 495.524 113.928 490.146 108.29C485.001 102.893 482.499 95.1734 482.91 85.9469L482.973 84.1892H491.297L491.239 86.1128C490.948 93.0621 492.843 98.8888 496.733 102.939C500.673 107.025 506.546 109.216 513.665 109.216C524.65 109.216 535.717 102.779 535.717 90.5078C535.717 85.44 534.167 81.4063 531.058 78.5073C527.309 74.9873 521.267 73.3914 513.632 73.3105H507.842C507.793 71.2988 507.793 67.2758 507.842 65.1913C509.954 65.1811 512.14 65.1479 513.598 65.1479C517.659 65.1479 525.556 64.1273 529.828 60.0196C532.438 57.4925 533.814 54.0364 533.814 49.7725C533.814 39.7961 523.673 34.5823 513.665 34.5823C503.753 34.5823 496.272 41.0426 494.585 51.0522L494.331 52.6069H486.065L486.306 50.533C487.947 35.9577 498.445 26.875 513.665 26.875C522.966 26.875 531.183 29.757 536.199 34.7653C540.11 38.6985 542.121 43.7378 542.121 49.7725C542.121 58.3216 537.504 65.5573 530.243 68.8964C538.785 72.3232 544.054 80.3671 544.054 90.5082ZM691 105.524C691 107.155 690.443 108.524 689.33 109.636C688.232 110.746 686.861 111.305 685.24 111.305C683.594 111.305 682.231 110.767 681.15 109.682C680.061 108.597 679.521 107.222 679.521 105.576C679.521 103.945 680.078 102.571 681.184 101.464C682.272 100.341 683.644 99.7884 685.282 99.7884C686.886 99.7884 688.232 100.32 689.321 101.384C690.435 102.478 691 103.861 691 105.524ZM690.31 105.559C690.31 104.09 689.828 102.872 688.839 101.885C687.866 100.911 686.669 100.431 685.265 100.431C683.802 100.431 682.597 100.915 681.641 101.902C680.676 102.895 680.203 104.102 680.203 105.559C680.203 107.031 680.693 108.265 681.69 109.248C682.663 110.222 683.852 110.717 685.265 110.717C686.661 110.717 687.85 110.222 688.831 109.239C689.828 108.248 690.31 107.022 690.31 105.559ZM688.032 109.181H686.803L686.005 107.406C685.606 106.511 685.173 106.068 684.699 106.068H684.026V109.181H683.012V101.775H685.065C685.971 101.775 686.661 101.983 687.126 102.392C687.525 102.753 687.725 103.217 687.725 103.797C687.725 104.302 687.559 104.728 687.243 105.089C686.927 105.453 686.462 105.694 685.88 105.814V105.843C686.279 105.937 686.686 106.392 687.085 107.208L688.032 109.181ZM686.637 103.916C686.637 103.485 686.52 103.188 686.279 102.993C686.021 102.775 685.573 102.669 684.932 102.669H684.026V105.198H685.132C686.121 105.198 686.637 104.768 686.637 103.916Z" fill="white"/>
</svg>
