<svg width="120" height="80" viewBox="0 0 120 80" fill="none" xmlns="http://www.w3.org/2000/svg">
<path fill-rule="evenodd" clip-rule="evenodd" d="M42.3345 27.25C46.2005 27.25 49.3345 24.116 49.3345 20.25C49.3345 16.384 46.2005 13.25 42.3345 13.25C38.4685 13.25 35.3345 16.384 35.3345 20.25C35.3345 24.116 38.4685 27.25 42.3345 27.25ZM51.3345 20.25C51.3345 25.2205 47.305 29.25 42.3345 29.25C37.3639 29.25 33.3345 25.2205 33.3345 20.25C33.3345 15.2794 37.3639 11.25 42.3345 11.25C47.305 11.25 51.3345 15.2794 51.3345 20.25Z" fill="white"/>
<path d="M40.6201 15.0214C40.6201 14.5954 40.9655 14.25 41.3915 14.25H43.2773C43.7033 14.25 44.0487 14.5954 44.0487 15.0214V25.4785C44.0487 25.9046 43.7033 26.25 43.2773 26.25H41.3915C40.9655 26.25 40.6201 25.9046 40.6201 25.4785V15.0214Z" fill="white"/>
<path fill-rule="evenodd" clip-rule="evenodd" d="M37.1059 21.9643C36.6799 21.9643 36.3345 21.6189 36.3345 21.1928V19.3071C36.3345 18.8811 36.6799 18.5357 37.1059 18.5357H47.563C47.9891 18.5357 48.3345 18.8811 48.3345 19.3071V21.1928C48.3345 21.6189 47.9891 21.9643 47.563 21.9643H37.1059Z" fill="white"/>
<path fill-rule="evenodd" clip-rule="evenodd" d="M64.3345 21.75C64.3345 19.817 65.9015 18.25 67.8345 18.25C69.7675 18.25 71.3345 19.817 71.3345 21.75C71.3345 23.683 69.7675 25.25 67.8345 25.25C65.9015 25.25 64.3345 23.683 64.3345 21.75ZM67.8345 20.25C67.006 20.25 66.3345 20.9215 66.3345 21.75C66.3345 22.5784 67.006 23.25 67.8345 23.25C68.6629 23.25 69.3345 22.5784 69.3345 21.75C69.3345 20.9215 68.6629 20.25 67.8345 20.25Z" fill="white"/>
<path fill-rule="evenodd" clip-rule="evenodd" d="M71.3345 18.75C71.3345 16.817 72.9015 15.25 74.8345 15.25C76.7675 15.25 78.3345 16.817 78.3345 18.75C78.3345 20.683 76.7675 22.25 74.8345 22.25C72.9015 22.25 71.3345 20.683 71.3345 18.75ZM74.8345 17.25C74.006 17.25 73.3345 17.9215 73.3345 18.75C73.3345 19.5784 74.006 20.25 74.8345 20.25C75.6629 20.25 76.3345 19.5784 76.3345 18.75C76.3345 17.9215 75.6629 17.25 74.8345 17.25Z" fill="white"/>
<path fill-rule="evenodd" clip-rule="evenodd" d="M78.3345 15.75C78.3345 13.817 79.9015 12.25 81.8345 12.25C83.7675 12.25 85.3345 13.817 85.3345 15.75C85.3345 17.683 83.7675 19.25 81.8345 19.25C79.9015 19.25 78.3345 17.683 78.3345 15.75ZM81.8345 14.25C81.006 14.25 80.3345 14.9215 80.3345 15.75C80.3345 16.5784 81.006 17.25 81.8345 17.25C82.6629 17.25 83.3345 16.5784 83.3345 15.75C83.3345 14.9215 82.6629 14.25 81.8345 14.25Z" fill="white"/>
<path fill-rule="evenodd" clip-rule="evenodd" d="M68.4057 13.6686L68.4118 13.6826L68.4182 13.6966L68.4248 13.7104L68.4317 13.7241L68.4388 13.7377L68.4461 13.7512L68.4536 13.7645L68.4614 13.7777L68.4694 13.7907L68.4777 13.8037L68.4861 13.8164L68.4948 13.8291L68.5037 13.8416L68.5128 13.8539L68.5221 13.866L68.5317 13.878L68.5414 13.8899L68.5513 13.9015L68.5615 13.913L68.5718 13.9244L68.5823 13.9355L68.593 13.9464L68.6039 13.9572L68.615 13.9678L68.6263 13.9782L68.6377 13.9884L68.6494 13.9983L68.6611 14.0081L68.6731 14.0177L68.6852 14.0271L68.6975 14.0362L68.7099 14.0452L68.7225 14.0539L68.7353 14.0624L68.7482 14.0707L68.7612 14.0788L68.7744 14.0866L68.7877 14.0943L68.8011 14.1016L68.8146 14.1088L68.8283 14.1157L68.8421 14.1224L68.856 14.1288L68.87 14.135L68.8841 14.141L68.8983 14.1467L68.9127 14.1522L68.9271 14.1574L68.9416 14.1624L68.9561 14.1671L68.9708 14.1715L68.9855 14.1758L69.0003 14.1797L69.0152 14.1834L69.0301 14.1869L69.0451 14.19L69.0602 14.193L69.0753 14.1956L69.0904 14.198L69.1056 14.2002L69.1208 14.2021L69.136 14.2037L69.1513 14.205L69.1666 14.2061L69.1819 14.207L69.1972 14.2075L69.2125 14.2078L69.2278 14.2079L69.2431 14.2076L69.2584 14.2071L69.2738 14.2064L69.289 14.2053L69.3043 14.2041L69.3196 14.2025L69.3348 14.2007L69.35 14.1986L69.3651 14.1963L69.3802 14.1937L69.3953 14.1908L69.4103 14.1877L69.4252 14.1843L69.4401 14.1807L69.4549 14.1768L69.4697 14.1727L69.4843 14.1683L69.4989 14.1636L69.5135 14.1587L69.5279 14.1536L69.5422 14.1482L69.5565 14.1425L69.5706 14.1366L74.6844 11.9542L74.6984 11.948L74.7123 11.9416L74.7262 11.935L74.7399 11.9282L74.7534 11.9211L74.7669 11.9138L74.7802 11.9062L74.7934 11.8984L74.8065 11.8904L74.8194 11.8822L74.8322 11.8737L74.8448 11.865L74.8573 11.8561L74.8696 11.847L74.8818 11.8377L74.8938 11.8282L74.9056 11.8185L74.9173 11.8085L74.9288 11.7984L74.9401 11.7881L74.9512 11.7775L74.9622 11.7668L74.973 11.7559L74.9835 11.7448L74.9939 11.7336L75.0041 11.7221L75.0141 11.7105L75.0239 11.6987L75.0335 11.6867L75.0428 11.6746L75.052 11.6623L75.0609 11.6499L75.0697 11.6373L75.0782 11.6246L75.0865 11.6117L75.0945 11.5986L75.1024 11.5855L75.11 11.5722L75.1174 11.5588L75.1245 11.5452L75.1315 11.5315L75.1381 11.5177L75.1446 11.5038L75.1508 11.4898L75.1567 11.4757L75.1624 11.4615L75.1679 11.4472L75.1731 11.4328L75.1781 11.4183L75.1828 11.4037L75.1873 11.389L75.1915 11.3743L75.1955 11.3595L75.1992 11.3446L75.2026 11.3297L75.2058 11.3147L75.2087 11.2997L75.2114 11.2846L75.2138 11.2695L75.2159 11.2543L75.2178 11.2391L75.2194 11.2238L75.2208 11.2086L75.2219 11.1933L75.2227 11.178L75.2233 11.1627L75.2236 11.1474V11.132L75.2234 11.1167L75.2229 11.1014L75.2221 11.0861L75.2211 11.0708L75.2198 11.0555L75.2183 11.0403L75.2164 11.0251L75.2144 11.0099L75.212 10.9947L75.2094 10.9796L75.2066 10.9646L75.2035 10.9496L75.2001 10.9346L75.1965 10.9198L75.1926 10.9049L75.1884 10.8902L75.184 10.8755L75.1794 10.8609L75.1745 10.8464L75.1693 10.832L75.1639 10.8176L75.1583 10.8034L75.1524 10.7892L75.1462 10.7752L75.1399 10.7612L75.1332 10.7474L75.1264 10.7337L75.1193 10.7201L75.112 10.7067L75.1044 10.6933L75.0966 10.6801L75.0886 10.6671L75.0804 10.6542L75.0719 10.6414L75.0632 10.6288L75.0544 10.6163L75.0452 10.604L75.0359 10.5918L75.0264 10.5798L75.0167 10.568L75.0067 10.5563L74.9966 10.5448L74.9863 10.5335L74.9757 10.5223L74.965 10.5114L74.9541 10.5006L74.943 10.49L74.9318 10.4797L74.9203 10.4695L74.9087 10.4595L74.8969 10.4497L74.885 10.4401L74.8728 10.4307L74.8605 10.4216L74.8481 10.4126L74.8355 10.4039L74.8228 10.3954L74.8099 10.3871L74.7969 10.379L74.7837 10.3712L74.7704 10.3636L74.757 10.3562L74.7434 10.349L74.7298 10.3421L74.716 10.3354L74.7021 10.329L74.688 10.3228L74.6739 10.3168L74.6597 10.3111L74.6454 10.3057L74.631 10.3004L74.6165 10.2955L74.6019 10.2908L74.5873 10.2863L74.5725 10.2821L74.5577 10.2781L74.5429 10.2744L74.5279 10.271L74.5129 10.2678L74.4979 10.2649L74.4828 10.2622L74.4677 10.2598L74.4525 10.2577L74.4373 10.2558L74.422 10.2542L74.4068 10.2528L74.3915 10.2517L74.3762 10.2509L74.3609 10.2503L74.3456 10.25H74.3302L74.3149 10.2502L74.2996 10.2507L74.2843 10.2515L74.269 10.2525L74.2537 10.2538L74.2385 10.2553L74.2233 10.2571L74.2081 10.2592L74.193 10.2615L74.1779 10.2641L74.1628 10.267L74.1478 10.2701L74.1329 10.2735L74.118 10.2771L74.1031 10.281L74.0884 10.2852L74.0737 10.2896L74.0591 10.2942L74.0446 10.2991L74.0302 10.3043L74.0158 10.3097L74.0016 10.3153L73.9874 10.3212L68.8737 12.5037L68.8597 12.5098L68.8457 12.5162L68.8319 12.5228L68.8182 12.5297L68.8046 12.5368L68.7912 12.5441L68.7778 12.5516L68.7646 12.5594L68.7516 12.5674L68.7386 12.5757L68.7259 12.5841L68.7132 12.5928L68.7008 12.6017L68.6884 12.6108L68.6763 12.6201L68.6643 12.6296L68.6524 12.6394L68.6408 12.6493L68.6293 12.6594L68.618 12.6698L68.6068 12.6803L68.5959 12.691L68.5851 12.7019L68.5745 12.713L68.5641 12.7243L68.554 12.7357L68.544 12.7473L68.5342 12.7591L68.5246 12.7711L68.5152 12.7832L68.5061 12.7955L68.4971 12.8079L68.4884 12.8205L68.4799 12.8333L68.4716 12.8462L68.4635 12.8592L68.4557 12.8723L68.448 12.8856L68.4407 12.8991L68.4335 12.9126L68.4266 12.9263L68.4199 12.9401L68.4135 12.954L68.4073 12.968L68.4013 12.9821L68.3956 12.9963L68.3901 13.0107L68.3849 13.0251L68.38 13.0396L68.3752 13.0541L68.3708 13.0688L68.3666 13.0835L68.3626 13.0983L68.3589 13.1132L68.3555 13.1281L68.3523 13.1431L68.3493 13.1582L68.3467 13.1732L68.3443 13.1884L68.3421 13.2036L68.3402 13.2188L68.3386 13.234L68.3373 13.2493L68.3362 13.2645L68.3354 13.2798L68.3348 13.2952L68.3345 13.3105V13.3258L68.3347 13.3411L68.3352 13.3564L68.3359 13.3717L68.337 13.387L68.3382 13.4023L68.3398 13.4175L68.3416 13.4328L68.3437 13.4479L68.346 13.4631L68.3486 13.4782L68.3515 13.4932L68.3546 13.5082L68.358 13.5232L68.3616 13.5381L68.3655 13.5529L68.3696 13.5677L68.374 13.5823L68.3787 13.5969L68.3836 13.6114L68.3887 13.6259L68.3941 13.6402L68.3998 13.6545L68.4057 13.6686Z" fill="white"/>
<path fill-rule="evenodd" clip-rule="evenodd" d="M60.0133 1.52588e-05L60.6896 0.0040502L61.3623 0.0158643L62.0305 0.0354816L62.6943 0.0627028L63.3539 0.0974478L64.0087 0.139684L64.6594 0.189284L65.3046 0.246242L65.9455 0.31035L66.5815 0.381614L67.2123 0.459973L67.8377 0.545244L68.4584 0.637415L69.0736 0.736422L69.6834 0.842173L70.2876 0.95459L70.886 1.07353L71.4792 1.19905L72.0661 1.33097L72.6473 1.46924L73.2221 1.6137L73.7917 1.76449L74.3545 1.9214L74.9109 2.08431L75.461 2.25319L76.0049 2.42805L76.5421 2.60878L77.0721 2.79514L77.5963 2.98746L78.1128 3.18528L78.616 3.38607L79.1187 3.59489L79.6138 3.80899L80.1023 4.02863L80.5826 4.25334L81.0553 4.48301L81.5207 4.71781L81.9781 4.95744L82.4278 5.20191L82.8695 5.45111L83.3026 5.70468L83.728 5.96285L84.1453 6.2256L84.554 6.49262L84.9542 6.76387L85.3446 7.03831L85.541 7.18034L85.9124 7.45654L86.2824 7.74205L86.6418 8.03015L86.8273 8.18339L87.1671 8.47226L87.5055 8.77141L87.8342 9.07405L88.1539 9.38071L88.4634 9.69049L88.764 10.0046L89.0541 10.3217L89.3341 10.6423L89.6049 10.9673L89.8632 11.2932L89.9923 11.4627L90.2349 11.7935L90.4683 12.1304L90.691 12.471L90.9019 12.8141L91.0993 13.1567L91.1974 13.3357L91.3767 13.6795L91.546 14.028L91.7034 14.3763L91.8501 14.7263L91.9857 15.0764L92.1102 15.4257L92.2247 15.7758L92.3286 16.124L92.4227 16.4715L92.5074 16.8185L92.5831 17.1644L92.6498 17.5083L92.7087 17.8537L92.7801 18.3567L92.8014 18.5333L92.8367 18.8697L92.8764 19.3676L92.9021 19.8665L92.9117 20.1951L92.9158 20.519L92.9147 20.84L92.9088 21.1648L92.8985 21.4796L92.8842 21.7905L92.8664 22.0958L92.8209 22.7001L92.7636 23.2994L92.6975 23.8844L92.6607 24.175L92.5791 24.7524L92.5327 25.0478L92.4331 25.6211L92.3762 25.9174L92.3172 26.2064L92.2547 26.4932L92.1884 26.7803L92.1184 27.0661L92.0459 27.3456L91.9661 27.6367L91.8856 27.915L91.799 28.1984L91.7078 28.4819L91.6123 28.764L91.5121 29.0456L91.4071 29.3267L91.2972 29.6069L91.1822 29.887L91.0624 30.1654L90.9374 30.4432L90.8071 30.7203L90.6715 30.9966L90.5305 31.2719L90.3843 31.5458L90.2323 31.8194L90.0748 32.0915L89.9119 32.3624L89.7437 32.6317L89.5702 32.8994L89.392 33.1649L89.2098 33.4273L89.0228 33.6881L88.8316 33.9464L88.6367 34.2018L88.4378 34.4548L88.231 34.7101L88.0294 34.9519L87.8177 35.1988L87.395 35.6712L87.1744 35.9077L86.9487 36.143L86.73 36.3645L86.4999 36.5912L86.2771 36.8045L86.0468 37.0188L85.8149 37.2282L85.5813 37.433L85.3463 37.6326L85.1091 37.828L84.8705 38.018L84.6304 38.2029L84.3933 38.3791L84.1494 38.5538L83.7845 38.8026L83.4153 39.0386L83.046 39.2585L82.7935 39.3994L82.5437 39.5312L82.2921 39.6563L81.9253 39.8251L81.6753 39.931L81.4287 40.0282L81.1828 40.1181L80.9289 40.2034L80.6921 40.2763L80.4421 40.3459L80.2136 40.4033L80.0823 40.4335L79.7309 40.5044L79.3834 40.5597L79.2524 40.5769L78.9105 40.612L78.5655 40.6326L78.2263 40.6382L77.8916 40.629L77.5675 40.6054L77.3468 40.5811L77.1239 40.549L76.9246 40.5143L76.7026 40.4682L76.417 40.3969L76.214 40.3374L76.0059 40.2686L75.8226 40.201L75.634 40.1242L75.2792 39.9574L75.0954 39.8583L74.8776 39.729L74.6363 39.5686L74.4714 39.4478L74.212 39.2374L74.0051 39.0494L73.8672 38.9133L73.6818 38.7159L73.4567 38.451L73.2955 38.2432L73.1056 37.9774L73.006 37.8288L72.8363 37.5615L72.6732 37.2883L72.441 36.875L71.7214 35.5236L71.5728 35.2535L71.4153 34.9776L71.2556 34.7098L71.0898 34.4458L70.9165 34.1857L70.7332 33.9278L70.6415 33.8056L70.4487 33.5622L70.2372 33.3158L70.1373 33.2064L69.9716 33.0347L69.7981 32.8668L69.6851 32.7636L69.5004 32.6052L69.3086 32.4529L69.1093 32.3067L68.8996 32.1655L68.6768 32.0282L68.4413 31.8956L68.1879 31.7656L68.0148 31.6835L67.8329 31.6027L67.5424 31.4838L67.1217 31.3309L66.7887 31.2241L66.433 31.1219L66.1889 31.0583L65.7972 30.9659L65.3897 30.8811L65.106 30.8284L64.8095 30.7783L64.5038 30.7315L64.1876 30.688L63.8606 30.6479L63.5237 30.6113L63.1768 30.5783L62.8182 30.5489L62.4494 30.5232L62.07 30.5013L61.6796 30.4833L61.283 30.4693L61.2725 30.469L60.8703 30.459L60.86 30.4588L60.4461 30.4529L60.4363 30.4528L60.0103 30.4508L59.5707 30.4527L59.1475 30.4587L58.7351 30.4688L58.3339 30.4828L57.9442 30.5006L57.5651 30.5223L57.1963 30.5478L56.8392 30.5769L56.4925 30.6096L56.156 30.646L55.8297 30.6858L55.5145 30.7288L55.2087 30.7754L54.9133 30.825L54.6299 30.8773L54.2125 30.9638L53.8213 31.0557L53.579 31.1187L53.2222 31.2208L52.8861 31.3282L52.6788 31.4007L52.3739 31.5168L52.0864 31.638L51.9086 31.7192L51.7362 31.8033L51.5731 31.8879L51.3324 32.0228L51.1877 32.1102L50.9718 32.2507L50.7684 32.395L50.5738 32.5449L50.3874 32.7002L50.2112 32.8583L49.9845 33.0794L49.7152 33.3698L49.4613 33.6739L49.276 33.9156L49.0936 34.1712L48.9188 34.4327L48.7504 34.7001L48.6727 34.8286L48.4351 35.2395L48.2869 35.5083L47.5484 36.8946L47.3967 37.1666L47.2372 37.4405L47.0699 37.7117L46.9784 37.8529L46.7442 38.1899L46.5356 38.4607L46.3617 38.667L46.178 38.867L45.9801 39.0637L45.7671 39.2555L45.5089 39.4633L45.191 39.6856L44.9378 39.8396L44.7129 39.9614L44.4376 40.0931L44.1546 40.2099L43.9549 40.2824L43.6676 40.3731L43.4582 40.4298L43.1592 40.498L42.9476 40.5374L42.7225 40.572L42.4155 40.6071L42.0893 40.6299L41.865 40.637L41.632 40.6379L41.2889 40.6257L40.9574 40.6001L40.721 40.5736L40.4838 40.5403L40.1321 40.4785L39.7749 40.4006L39.5235 40.3367L39.2856 40.2697L38.9231 40.1547L38.5593 40.0237L38.3088 39.9244L38.0627 39.8198L37.8117 39.7057L37.4412 39.5235L37.0699 39.3242L36.8178 39.1792L36.4523 38.9556L36.2022 38.7936L35.8403 38.5465L35.5923 38.3685L35.3519 38.1894L35.1124 38.0046L34.8743 37.8145L34.6381 37.6195L34.4039 37.42L34.1704 37.215L33.9388 37.0054L33.7096 36.7917L33.4821 36.5735L33.2518 36.3462L33.0289 36.1198L32.8086 35.8896L32.5907 35.6556L32.3754 35.4178L32.1635 35.1769L31.9545 34.9327L31.7531 34.6906L31.5505 34.4401L31.3516 34.1866L31.1571 33.9312L30.9656 33.6721L30.7787 33.4109L30.5963 33.1475L30.4181 32.8814L30.2451 32.6137L30.0763 32.343L29.9139 32.0721L29.7568 31.7999L29.6052 31.5264L29.4589 31.2514L29.3185 30.9763L29.1836 30.7007L29.0533 30.4228L28.9291 30.1455L28.8094 29.8666L28.695 29.5872L28.5857 29.3075L28.4809 29.0263L28.381 28.7444L28.2861 28.4629L28.1952 28.1796L28.1091 27.8964L28.0271 27.6121L27.9478 27.3214L27.8742 27.0362L27.8046 26.7505L27.7389 26.4642L27.6769 26.1775L27.6188 25.8911L27.5638 25.6032L27.5126 25.3172L27.4198 24.7443L27.3762 24.4458L27.3369 24.1557L27.2989 23.8546L27.2342 23.2785L27.2043 22.9771L27.154 22.3864L27.1323 22.0725L27.1144 21.7615L27.1004 21.4485L27.0908 21.1393L27.0852 20.8202L27.0845 20.498L27.0889 20.1734L27.0988 19.847L27.1065 19.6724L27.125 19.3494L27.1498 19.022L27.1818 18.686L27.221 18.3478L27.2678 18.0073L27.3225 17.6657L27.3855 17.3215L27.4572 16.9757L27.5377 16.6296L27.6277 16.2817L27.7274 15.9329L27.837 15.5837L27.9571 15.2336L28.0866 14.8865L28.1582 14.7062L28.3037 14.3601L28.4606 14.0142L28.5471 13.8334L28.7195 13.4923L28.8152 13.3123L29.0046 12.9738L29.11 12.7943L29.3192 12.4552L29.5419 12.1154L29.7735 11.7821L29.8984 11.6098L30.1458 11.2817L30.4038 10.9569L30.5431 10.7878L30.6779 10.6283L30.9542 10.3127L31.1035 10.1478L31.2486 9.99131L31.5466 9.68045L31.8565 9.37059L32.1759 9.06462L32.5043 8.76279L32.8424 8.46408L33.1892 8.16979L33.5459 7.87848L33.9111 7.59147L34.2851 7.30855L34.6725 7.02628L35.0644 6.75108L35.4645 6.48046L35.8731 6.21391L36.2901 5.95179L36.715 5.69423L37.1485 5.44079L37.5902 5.19205L38.0393 4.94823L38.4969 4.7088L38.962 4.47449L39.4347 4.24513L39.9153 4.02065L40.4033 3.80147L40.8985 3.5877L41.4009 3.37923L41.917 3.17365L42.4339 2.97623L42.9571 2.7847L43.4874 2.59871L44.0244 2.41846L44.5678 2.24419L45.1177 2.0758L45.674 1.91329L46.2371 1.75673L46.8057 1.60655L47.3808 1.46237L47.9617 1.32458L48.5488 1.19298L49.1415 1.06791L49.74 0.949316L50.3441 0.837269L50.9538 0.731867L51.569 0.633207L52.1892 0.541428L52.8147 0.456486L53.4457 0.378412L54.0815 0.307516L54.7218 0.243764L55.3678 0.18706L56.0178 0.137832L56.6729 0.0958862L57.3322 0.0614716L57.996 0.0345584L58.6645 0.0152423L59.3367 0.00374776L60.0133 1.52588e-05ZM59.3538 2.00375L58.7048 2.01491L58.0598 2.03362L57.4193 2.05965L56.7832 2.09292L56.1516 2.13343L55.525 2.18095L54.9027 2.23564L54.2857 2.29714L53.6736 2.36547L53.0664 2.44066L52.4644 2.52247L51.868 2.61081L51.2768 2.70571L50.6911 2.80703L50.111 2.91469L49.5366 3.02859L48.9682 3.14861L48.4054 3.27482L47.8489 3.40692L47.2984 3.54501L46.7544 3.68877L46.2164 3.83844L45.6849 3.99376L45.1601 4.15459L44.642 4.32084L44.1305 4.4926L43.6258 4.66971L43.1283 4.85192L42.6376 5.03944L42.1542 5.232L41.6781 5.42954L41.2094 5.63189L40.7482 5.83903L40.2944 6.05096L39.8485 6.26733L39.4105 6.488L38.9801 6.7132L38.558 6.94231L38.144 7.17552L37.738 7.41284L37.3407 7.65367L36.9517 7.8982L36.5711 8.14645L36.1995 8.39786L35.8362 8.653L35.4773 8.91444L35.1324 9.17539L34.7965 9.43937L34.469 9.70685L34.1516 9.97617L33.8431 10.2486L33.5446 10.5231L33.2554 10.8001L32.9756 11.0798L32.7042 11.363L32.5746 11.5029L32.4479 11.6428L32.1945 11.9322L32.0752 12.0735L31.9587 12.2149L31.7275 12.5059L31.5067 12.7987L31.4047 12.9395L31.1998 13.2344L31.007 13.5286L30.8238 13.8256L30.7399 13.9685L30.571 14.2703L30.4952 14.4129L30.3418 14.7165L30.2734 14.8591L30.1367 15.1607L30.0096 15.463L29.9531 15.6053L29.8402 15.9078L29.7374 16.2077L29.6433 16.5073L29.5577 16.807L29.4801 17.1068L29.4106 17.4055L29.3486 17.7045L29.2939 18.0037L29.2462 18.3015L29.2053 18.5992L29.1709 18.896L29.1426 19.1924L29.1207 19.4819L29.1037 19.7795L29.0973 19.9274L29.0885 20.2173L29.0845 20.5095L29.0852 20.8005L29.0902 21.0903L29.0993 21.3788L29.1122 21.6654L29.1287 21.9514L29.1481 22.2324L29.1965 22.8002L29.2238 23.0741L29.2857 23.6242L29.3206 23.9008L29.3574 24.1719L29.3965 24.4398L29.4842 24.9809L29.5314 25.2447L29.5821 25.5096L29.6356 25.7728L29.6924 26.035L29.7523 26.296L29.8157 26.5557L29.8826 26.8146L29.9527 27.0717L30.0267 27.3283L30.1042 27.5832L30.186 27.8379L30.2712 28.0907L30.3606 28.3428L30.4543 28.5943L30.552 28.8444L30.654 29.0935L30.7608 29.3424L30.8714 29.5893L30.9873 29.8365L31.1076 30.0822L31.2325 30.3271L31.3626 30.5715L31.4977 30.8151L31.6379 31.0581L31.7827 31.2998L31.9336 31.5418L32.089 31.7821L32.2494 32.0216L32.4142 32.2596L32.5832 32.4958L32.7569 32.7309L32.9339 32.9633L33.1149 33.1939L33.2994 33.422L33.4873 33.6479L33.6782 33.8707L33.8719 34.0907L34.0684 34.3077L34.2673 34.5212L34.4685 34.7313L34.6718 34.9377L34.8769 35.1401L35.0837 35.3385L35.2918 35.5325L35.5011 35.7219L35.7121 35.9071L35.9232 36.0869L36.1349 36.2617L36.3474 36.4314L36.5602 36.5956L36.773 36.754L36.9878 36.9082L37.3099 37.1282L37.5178 37.2629L37.8382 37.4589L38.0417 37.5759L38.3557 37.7445L38.6669 37.8975L38.8681 37.989L39.0687 38.0743L39.2666 38.1526L39.5645 38.26L39.8593 38.3535L40.041 38.4046L40.2343 38.4538L40.5183 38.5157L40.796 38.5645L40.9715 38.5891L41.146 38.6087L41.4013 38.6284L41.664 38.6377L41.8294 38.6371L41.9877 38.6321L42.2321 38.6151L42.4567 38.5893L42.6125 38.5654L42.7538 38.5391L42.9744 38.4888L43.1048 38.4535L43.3123 38.388L43.4315 38.3447L43.6241 38.2652L43.8047 38.1788L43.9412 38.1049L44.097 38.0101L44.3075 37.8629L44.4702 37.732L44.6052 37.6104L44.7358 37.4806L44.8598 37.3456L44.978 37.2054L45.1298 37.0083L45.3177 36.7378L45.3796 36.6425L45.5217 36.412L45.6591 36.1761L45.7923 35.9373L46.5285 34.5552L46.6936 34.256L46.951 33.8108L47.0483 33.6497L47.2409 33.3439L47.4477 33.0344L47.6679 32.7259L47.8993 32.4241L48.2134 32.0479L48.5522 31.6826L48.8446 31.3974L49.079 31.1871L49.3231 30.9838L49.5791 30.7866L49.8473 30.5963L50.1246 30.4158L50.326 30.2941L50.6235 30.1274L50.8374 30.0165L51.0548 29.9105L51.2823 29.8065L51.6294 29.6602L51.9926 29.5219L52.2515 29.4314L52.6425 29.3065L53.0523 29.1891L53.3411 29.1141L53.7807 29.0108L54.2453 28.9145L54.5659 28.8553L54.8926 28.8004L55.2287 28.7493L55.5734 28.7022L55.9342 28.6582L56.2977 28.619L56.6705 28.5839L57.0522 28.553L57.4449 28.5258L57.8469 28.5029L58.2589 28.4841L58.6811 28.4695L59.114 28.459L59.557 28.4527L60.0105 28.4507L60.4653 28.4529L60.9095 28.4594L61.3429 28.4702L61.7663 28.4851L62.1794 28.5042L62.5826 28.5276L62.9754 28.555L63.3595 28.5865L63.7332 28.6222L64.0974 28.6618L64.4454 28.7046L64.7913 28.7522L65.1275 28.8037L65.4554 28.8591L65.7763 28.9187L66.2304 29.0132L66.6707 29.117L66.9615 29.1928L67.3705 29.3104L67.769 29.4382L68.2632 29.6178L68.6178 29.763L68.8491 29.8657L69.073 29.9718L69.3889 30.1339L69.6924 30.3048L69.9832 30.484L70.2598 30.6703L70.5223 30.8628L70.7739 31.0626L71.0106 31.2657L71.1678 31.4091L71.3869 31.6211L71.5957 31.8374L71.7349 31.9899L71.9919 32.2893L72.2257 32.5844L72.3486 32.7484L72.5641 33.0516L72.7691 33.3592L72.9615 33.6656L73.1429 33.9697L73.3174 34.2755L73.4836 34.5775L74.1957 35.9151L74.404 36.2858L74.5395 36.5128L74.6812 36.736L74.7503 36.839L74.8999 37.0485L75.0098 37.1901L75.1736 37.3829L75.299 37.5164L75.3805 37.5969L75.5155 37.7195L75.693 37.8635L75.7814 37.9282L75.9424 38.0352L76.0807 38.1174L76.1797 38.1707L76.4373 38.2918L76.5459 38.3361L76.6662 38.3804L76.8093 38.4278L76.9405 38.4662L77.1485 38.5181L77.2998 38.5496L77.4379 38.5736L77.5987 38.5968L77.7498 38.6134L77.9916 38.631L78.2373 38.6378L78.4893 38.6336L78.7485 38.6181L79.0203 38.5902L79.0962 38.5803L79.3758 38.5357L79.6599 38.4784L79.7455 38.4587L79.9302 38.4124L80.1296 38.3568L80.3162 38.2994L80.5208 38.2306L80.7188 38.1583L80.9183 38.0796L81.117 37.9955L81.4286 37.852L81.6317 37.7511L81.8395 37.6414L82.0469 37.5257L82.3649 37.3364L82.6822 37.1335L83.0036 36.9143L83.2146 36.7633L83.4237 36.6078L83.6373 36.4434L83.8501 36.2739L84.063 36.0985L84.2746 35.9188L84.4856 35.7338L84.6952 35.5446L84.904 35.3502L85.1114 35.1515L85.3163 34.9498L85.5199 34.7433L85.7213 34.5334L85.9183 34.3222L86.3132 33.8808L86.502 33.6607L86.6899 33.4352L86.8745 33.2073L87.0557 32.9768L87.2329 32.7447L87.4062 32.5105L87.5755 32.2743L87.7402 32.0372L87.9006 31.7981L88.0561 31.5581L88.2068 31.317L88.3523 31.0751L88.4925 30.8328L88.6279 30.5891L88.7582 30.345L88.8836 30.1001L89.0043 29.8542L89.1203 29.6075L89.2318 29.3597L89.3384 29.1119L89.4411 28.862L89.5392 28.6116L89.6331 28.3604L89.7229 28.1079L89.8086 27.855L89.8905 27.6001L89.9685 27.3449L90.0428 27.0879L90.1133 26.8306L90.1805 26.5711L90.244 26.3114L90.3044 26.0498L90.3614 25.7879L90.4154 25.5231L90.4656 25.2613L90.5595 24.7212L90.601 24.4574L90.6784 23.9097L90.7124 23.64L90.7743 23.0922L90.828 22.5299L90.8707 21.9626L90.8871 21.6806L90.9002 21.3948L90.9095 21.107L90.9148 20.8186L90.9158 20.5284L90.9121 20.237L90.9036 19.9471L90.8805 19.4986L90.845 19.0535L90.8139 18.7571L90.797 18.617L90.7324 18.1624L90.6821 17.8668L90.6242 17.5687L90.5588 17.2695L90.4857 16.9702L90.4047 16.6712L90.3157 16.3726L90.2175 16.0724L90.1109 15.7735L89.995 15.4742L89.8695 15.1749L89.7349 14.8769L89.5902 14.579L89.4336 14.2787L89.3558 14.1367L89.1832 13.8373L89.0019 13.5423L88.809 13.2474L88.6061 12.9545L88.3902 12.66L88.2838 12.5204L88.0525 12.2286L87.8126 11.9405L87.563 11.6548L87.3034 11.3711L87.0334 11.0888L86.754 10.8093L86.4646 10.5316L86.1657 10.2565L85.857 9.98361L85.5375 9.71209L85.3794 9.58153L85.0457 9.31401L84.7049 9.05094L84.3531 8.78952L84.1785 8.66329L83.818 8.40986L83.4459 8.15767L83.0655 7.90913L82.6762 7.66403L82.2785 7.42266L81.8727 7.18511L81.4588 6.95157L81.0363 6.72188L80.6062 6.49655L80.1678 6.27536L79.7219 6.05871L79.2683 5.84654L78.8069 5.63902L78.3381 5.43634L77.8619 5.23852L77.3783 5.04562L76.8879 4.85792L76.3899 4.67531L75.8853 4.49797L75.3738 4.32599L74.8553 4.15939L74.3304 3.99832L73.799 3.84281L73.2611 3.69293L72.7166 3.54884L72.1662 3.41059L71.6096 3.27825L71.047 3.15188L70.4782 3.03161L69.9039 2.91753L69.3238 2.80967L68.7381 2.70816L68.1469 2.61308L67.5501 2.52453L66.9482 2.44254L66.3412 2.3672L65.7289 2.29867L65.1116 2.23698L64.4897 2.18215L63.8627 2.13443L63.2313 2.09376L62.5951 2.06032L61.9545 2.03412L61.3097 2.01525L60.6604 2.00391L60.0073 2.00001L59.3538 2.00375Z" fill="white"/>
</svg>
