<svg width="460" height="138" viewBox="0 0 460 138" fill="none" xmlns="http://www.w3.org/2000/svg">
<path d="M0 136.309H4.96602L4.7547 115.529H4.82514L14.0528 136.309H18.5609L27.859 115.529H27.9295L27.7181 136.309H32.6842V111.161H25.1471L16.4125 130.673L7.60752 111.161H0V136.309Z" fill="white"/>
<path d="M37.234 136.309H59.3521V132.364H42.517V125.39H58.4012V121.446H42.517V115.106H59.0704V111.161H37.234V136.309Z" fill="white"/>
<path d="M68.0224 115.106H75.1721C78.1306 115.106 83.3079 115.599 83.3079 123.77C83.3079 131.131 79.2576 132.364 75.4538 132.364H68.0224V115.106ZM62.7394 136.309H77.5671C86.1255 136.309 88.5909 129.406 88.5909 123.982C88.5909 116.797 86.1607 111.161 76.2991 111.161H62.7394V136.309Z" fill="white"/>
<path d="M92.1315 136.309H97.4145V111.161H92.1315V136.309Z" fill="white"/>
<path d="M108.962 126.13L113.329 115.529L117.626 126.13H108.962ZM99.065 136.309H104.771L107.377 130.075H119.211L121.852 136.309H127.734L116.534 111.161H110.265L99.065 136.309Z" fill="white"/>
<path d="M141.167 136.309H163.285V132.364H146.45V125.39H162.334V121.446H146.45V115.106H163.003V111.161H141.167V136.309Z" fill="white"/>
<path d="M166.672 136.309H171.744V117.431H171.814L186.888 136.309H192.84V111.161H187.769V130.039H187.698L172.73 111.161H166.672V136.309Z" fill="white"/>
<path d="M197.371 136.309H202.654V124.897H218.257V136.309H223.54V111.161H218.257V120.953H202.654V111.161H197.371V136.309Z" fill="white"/>
<path d="M235.079 126.13L239.446 115.529L243.743 126.13H235.079ZM225.182 136.309H230.888L233.494 130.075H245.328L247.969 136.309H253.851L242.651 111.161H236.382L225.182 136.309Z" fill="white"/>
<path d="M255.502 136.309H260.573V117.431H260.644L275.718 136.309H281.67V111.161H276.598V130.039H276.528L261.559 111.161H255.502V136.309Z" fill="white"/>
<path d="M312.58 120.46C312.017 115.036 307.509 110.457 298.845 110.457C288.948 110.457 284.792 116.656 284.792 123.735C284.792 130.814 289.124 137.013 298.211 137.013C308.565 137.013 311.841 131.695 312.58 126.694H306.875C306.452 129.335 304.621 133.068 299.126 133.068C293.914 133.068 290.286 129.441 290.286 124.193C290.286 117.642 293.914 114.402 298.774 114.402C303.212 114.402 306.346 116.656 306.875 120.46H312.58Z" fill="white"/>
<path d="M316.246 136.309H338.364V132.364H321.529V125.39H337.413V121.446H321.529V115.106H338.083V111.161H316.246V136.309Z" fill="white"/>
<path d="M341.752 136.309H346.718L346.506 115.529H346.577L355.804 136.309H360.313L369.611 115.529H369.681L369.47 136.309H374.436V111.161H366.899L358.164 130.673L349.359 111.161H341.752V136.309Z" fill="white"/>
<path d="M378.986 136.309H401.104V132.364H384.269V125.39H400.153V121.446H384.269V115.106H400.822V111.161H378.986V136.309Z" fill="white"/>
<path d="M404.491 136.309H409.563V117.431H409.633L424.707 136.309H430.659V111.161H425.588V130.039H425.517L410.549 111.161H404.491V136.309Z" fill="white"/>
<path d="M442.058 136.309H447.341V115.106H456.78V111.161H432.619V115.106H442.058V136.309Z" fill="white"/>
<path d="M460 93.5078H0V99.7077H460V93.5078Z" fill="white"/>
<path d="M230.79 71.6486C232.905 71.6486 234.685 71.3704 236.132 70.8139C237.579 70.2017 238.748 69.3669 239.638 68.3096C240.584 67.2522 241.252 66.0001 241.642 64.5532C242.087 63.1063 242.31 61.5481 242.31 59.8786V0.861328H252.827V57.5412C252.827 61.9933 252.382 65.8331 251.492 69.0609C250.601 72.2329 249.21 74.8485 247.318 76.9076C245.426 78.911 243.005 80.3857 240.056 81.3318C237.162 82.2778 233.684 82.7509 229.621 82.7509H218.937C210.979 82.7509 205.107 80.7753 201.323 76.8241C197.595 72.8729 195.73 66.4453 195.73 57.5412V0.861328H206.248V59.8786C206.248 61.5481 206.443 63.1063 206.833 64.5532C207.278 66.0001 207.946 67.2522 208.836 68.3096C209.782 69.3669 210.979 70.2017 212.425 70.8139C213.872 71.3704 215.653 71.6486 217.768 71.6486H230.79ZM226.95 57.5412C227.562 57.5412 227.98 57.3465 228.202 56.9569C228.425 56.5674 228.536 56.0387 228.536 55.3709V0.861328H239.304V58.209C239.304 60.1568 239.165 61.7985 238.887 63.1341C238.609 64.4141 238.108 65.4714 237.385 66.3062C236.717 67.1409 235.743 67.7531 234.463 68.1426C233.239 68.4765 231.653 68.6435 229.705 68.6435H218.853C216.905 68.6435 215.291 68.4765 214.011 68.1426C212.787 67.7531 211.813 67.1409 211.09 66.3062C210.422 65.4714 209.949 64.4141 209.671 63.1341C209.393 61.7985 209.253 60.1568 209.253 58.209V0.861328H220.022V55.3709C220.022 56.0387 220.105 56.5674 220.272 56.9569C220.495 57.3465 220.94 57.5412 221.608 57.5412H226.95Z" fill="white"/>
<path d="M110.229 1.53906H110.098C104.833 -0.22801 99.0017 1.53697 95.5863 5.94094L83.015 22.1688V13.9755C83.015 8.37739 79.4485 3.4118 74.167 1.60616C68.8846 -0.199809 63.0168 1.5611 59.5865 5.98439L0 82.7031H14.8942L68.9163 13.1087L68.9264 13.0946C69.2377 12.6587 69.8095 12.4821 70.3857 12.6837C70.9221 12.8867 71.2768 13.3845 71.2768 13.9318V56.5267L78.0357 47.8437L83.0105 41.4724L105.003 13.1524L105.014 13.1382C105.325 12.7024 105.897 12.5258 106.473 12.7274C107.009 12.9303 107.364 13.4281 107.364 13.9755V82.7467H119.146V13.9318C119.146 8.33375 115.579 3.36816 110.298 1.56252L110.229 1.53906Z" fill="white"/>
<path d="M68.6136 64.1538V17.7676L18.2393 82.7079H33.1328L56.8318 52.1708V74.4507C56.8318 79.011 60.5287 82.7079 65.0889 82.7079C67.6401 82.7079 70.048 81.5286 71.6121 79.5132L92.8318 52.1708V82.7079H104.614V17.7681L68.6136 64.1538Z" fill="white"/>
<path d="M125.791 82.753L162.165 82.7161C177.047 82.7161 189.107 70.6926 189.107 55.8776C189.107 41.0336 177.047 29.0091 162.165 29.0091L152.719 29.0605C151.974 29.0605 151.37 28.45 151.37 27.6988C151.37 26.9476 151.974 26.3361 152.719 26.3361L189.027 26.3439L189.041 14.9531H152.711C145.687 14.9531 139.972 20.6592 139.972 27.6697C139.972 34.687 145.686 40.3707 152.711 40.3707L162.202 40.4959C170.729 40.4959 177.628 47.3724 177.628 55.8563C177.628 64.3459 170.73 71.238 162.202 71.238H125.806L125.791 82.753" fill="white"/>
<path d="M125.803 68.5661H162.199C169.245 68.5661 174.945 62.8824 174.945 55.8573C174.945 48.84 169.245 43.1631 162.199 43.1631L152.708 43.0602C144.196 43.0602 137.289 36.1759 137.289 27.6707C137.289 19.1888 144.196 12.3035 152.708 12.3035L189.038 12.2957L189.024 0.861328H152.716C137.849 0.861328 125.773 12.8713 125.773 27.7008C125.773 42.5303 137.849 54.547 152.716 54.547L162.111 54.5616C162.825 54.5616 163.429 55.1439 163.429 55.8796C163.429 56.6017 162.825 57.1831 162.111 57.1831L125.788 57.2122L125.803 68.5661" fill="white"/>
<path d="M410.597 2.48047H384.225V82.756H410.597V2.48047Z" fill="white"/>
<path d="M416.282 2.51922C416 2.5109 415.686 2.50379 415.332 2.49805L415.17 29.9994C415.191 30 415.213 29.9988 415.234 29.9994V29.9139C415.683 29.8544 416.135 29.8246 416.595 29.8141L422.132 2.86281C419.972 2.60034 417.937 2.57164 416.282 2.51922ZM426.436 3.28325L418.662 29.9353C419.354 30.0306 420.033 30.1821 420.686 30.3842L433.456 5.04342C431.2 4.25146 428.857 3.65567 426.436 3.28325ZM437.724 6.8321L422.453 31.0755C422.963 31.3224 423.458 31.6061 423.928 31.9164L443.546 10.3311C441.716 9.00373 439.77 7.83436 437.724 6.8321ZM447.216 13.3455L425.268 32.9354C425.792 33.3907 426.283 33.8906 426.729 34.4248L452.554 19.3885C450.982 17.1965 449.189 15.1715 447.216 13.3455ZM454.556 22.4741L427.683 35.7218C427.992 36.2029 428.267 36.7032 428.51 37.2254L458.012 30.1277C457.126 27.4378 455.963 24.8756 454.556 22.4741ZM459.117 34.2039L429.052 38.6007C429.36 39.529 429.567 40.5064 429.657 41.5154H460.001C459.929 39.0138 459.626 36.5694 459.117 34.2039ZM429.657 43.924C429.034 50.4479 423.565 55.5469 416.916 55.5469C416.344 55.5469 415.786 55.506 415.234 55.4329V54.877C415.213 54.8776 415.191 54.8764 415.17 54.877V82.6453C417.447 82.6289 418.622 82.5338 420.393 82.5338C441.865 82.5338 459.347 65.3613 460.001 43.924H429.657Z" fill="white"/>
<path d="M326.387 0.861328V82.0622H271.791L326.387 0.861328Z" fill="white"/>
<path d="M372.075 0.861328V82.0622H317.479L372.075 0.861328Z" fill="white"/>
<path d="M259.047 33.2903C267.544 33.2522 276.041 33.2522 284.557 33.2903C284.557 38.9295 284.557 44.5497 284.538 50.1698C278.554 50.385 272.569 50.3723 266.585 50.3597H266.585C264.091 50.3544 261.598 50.3491 259.104 50.3603C259.009 44.6621 259.009 38.9848 259.047 33.2903Z" fill="white"/>
</svg>
