<svg width="542" height="143" viewBox="0 0 542 143" fill="none" xmlns="http://www.w3.org/2000/svg">
<path d="M86.5367 22.5645C86.6194 22.8535 86.7021 23.1425 86.7872 23.4402C87.4964 25.8962 88.2505 28.3305 89.0749 30.7504C89.3928 31.6862 89.6912 32.615 89.9566 33.5679C90.0455 33.8701 90.1344 34.1722 90.2259 34.4836C90.2826 34.706 90.3393 34.9284 90.3978 35.1576C90.8073 35.7318 90.8073 35.7318 91.8189 35.8138C92.2631 35.8476 92.7077 35.8768 93.1525 35.9025C97.2162 36.2361 101.173 37.0402 105.125 38.0309C105.347 38.0846 105.569 38.1383 105.798 38.1937C107.298 38.5872 108.432 39.082 109.321 40.4276C109.714 41.5584 109.705 42.6729 109.523 43.8485C109.048 44.8118 108.373 45.3918 107.448 45.9415C105.424 46.4123 103.859 46.0015 101.89 45.4481C98.5736 44.5276 95.1791 44.0908 91.769 43.6712C91.3469 43.6187 91.3469 43.6187 90.9162 43.5652C86.8564 43.087 82.8053 42.9383 78.7212 42.929C77.9785 42.9262 77.236 42.9173 76.4933 42.9085C76.0151 42.9067 75.537 42.9052 75.0588 42.9041C74.8398 42.9006 74.6207 42.8971 74.395 42.8935C72.8027 42.9 71.7187 43.2826 70.4052 44.2232C69.6538 45.3147 69.891 46.8519 70.077 48.1054C70.7058 48.9492 71.1382 49.3454 72.0635 49.8081C72.7888 49.8391 73.5075 49.8541 74.233 49.858C74.6942 49.8637 75.1554 49.8697 75.6166 49.8761C75.8612 49.8792 76.1059 49.8824 76.3579 49.8857C93.0561 50.1296 112.319 52.6468 125.416 63.9975C125.644 64.1917 125.873 64.386 126.108 64.5861C128.421 66.602 130.956 68.8287 132.226 71.6597C130.487 73.1065 128.687 74.4523 126.852 75.7746C126.522 76.0156 126.522 76.0156 126.185 76.2614C125.223 76.959 124.267 77.6414 123.247 78.2511C122.962 78.4289 122.677 78.6067 122.383 78.7899C122.136 78.9311 121.889 79.0723 121.634 79.2178C120.806 80.3873 121.23 81.6547 121.443 83.0112C121.485 83.324 121.528 83.6369 121.573 83.9592C121.712 84.9686 121.86 85.9764 122.01 86.9842C123.462 96.7279 123.462 96.728 122.584 98.6628C121.971 99.432 121.252 100.052 120.307 100.322C118.941 100.455 118.317 100.47 117.097 99.8256C115.84 98.7736 115.392 98.0298 115.178 96.398C115.134 96.07 115.089 95.7421 115.044 95.4042C115.001 95.0605 114.959 94.7168 114.915 94.3627C114.853 93.8625 114.853 93.8625 114.788 93.3523C114.703 92.6586 114.618 91.9649 114.534 91.271C113.577 83.4068 112.102 75.581 109.324 68.139C108.956 67.1191 108.956 67.1191 108.677 66.0438C108.271 64.7601 107.762 64.4759 106.686 63.7137C105.803 63.2724 105.107 63.3486 104.132 63.4299C103.08 64.005 102.527 64.4176 101.861 65.4164C101.555 67.6618 102.081 69.6292 102.819 71.7307C102.999 72.2642 103.178 72.7978 103.358 73.3314C103.444 73.5834 103.529 73.8355 103.618 74.0951C105.41 79.4445 106.473 85.097 107.253 90.6735C107.304 91.028 107.304 91.028 107.355 91.3897C108.332 98.5879 108.229 106.227 106.969 113.376C106.925 113.628 106.881 113.88 106.836 114.139C106.367 116.735 105.819 119.204 104.699 121.606C104.576 121.903 104.453 122.2 104.326 122.505C103.77 123.806 103.119 125.054 102.464 126.307C102.285 126.657 102.285 126.657 102.102 127.015C101.385 128.386 100.629 129.54 99.5909 130.688C97.965 129.809 96.5097 128.78 95.0326 127.672C94.556 127.319 94.0793 126.966 93.6026 126.614C92.7382 125.972 91.8769 125.326 91.0174 124.678C90.665 124.417 90.3125 124.155 89.9599 123.894C89.8009 123.772 89.6419 123.65 89.4782 123.524C88.6857 122.903 88.6857 122.903 87.7282 122.801C86.9116 123.095 86.1774 123.484 85.4126 123.894C85.0734 124.075 84.734 124.255 84.3946 124.435C84.2173 124.529 84.0401 124.623 83.8574 124.721C81.0726 126.198 78.2778 127.619 75.3626 128.825C74.9892 128.983 74.9892 128.983 74.6084 129.144C73.2438 129.691 72.1394 129.996 70.6446 129.836C69.2011 129.059 68.3261 128.272 67.8067 126.714C67.7007 125.59 67.7399 124.88 68.1969 123.841C69.2433 122.695 70.3689 122.221 71.7798 121.606C79.0676 118.406 85.9426 114.792 92.4962 110.255C92.6711 110.134 92.8461 110.013 93.0263 109.889C96.4625 107.783 96.4625 107.783 99.0234 104.863C99.1726 103.797 99.2582 102.755 98.7462 101.782C97.7903 100.595 97.0364 100.127 95.5647 99.8966C94.0212 100.099 93.1629 100.826 91.9287 101.741C91.1863 102.277 90.4405 102.808 89.6938 103.337C89.4875 103.484 89.2812 103.63 89.0687 103.781C74.602 113.971 56.8913 122.181 38.7884 119.557C36.8733 119.159 35.0298 118.56 33.1847 117.917C33.3272 116.723 33.5067 115.697 34.0006 114.6C34.4478 113.54 34.7675 112.511 35.0293 111.39C35.4029 109.802 35.9569 108.349 36.5901 106.849C37.0681 105.643 37.2615 104.974 36.8739 103.728C36.3729 103.151 36.3729 103.151 35.7033 102.628C32.8759 100.199 30.151 97.5367 27.7927 94.6465C27.5911 94.4003 27.3896 94.1541 27.1819 93.9004C25.1328 91.3688 25.1328 91.3688 25.1588 89.3454C25.3176 88.0353 26.0318 87.2692 27.0123 86.4521C28.3985 85.8851 29.529 85.9241 30.8911 86.4566C31.9065 87.0692 32.5621 87.809 33.2911 88.7224C36.136 92.157 39.1704 95.421 42.5497 98.3357C42.9993 98.7493 43.4486 99.1631 43.8976 99.5773C45.487 101.007 47.163 102.316 48.8553 103.621C49.3474 104.001 49.8365 104.386 50.325 104.771C54.1186 108.039 54.1186 108.039 58.7255 109.12C59.6054 108.622 60.283 108.13 60.9958 107.417C61.0975 106.709 61.0975 106.709 61.0845 105.909C61.0917 105.507 61.0917 105.507 61.0989 105.097C60.9224 103.724 60.3918 103.075 59.3219 102.217C58.9948 101.991 58.6658 101.767 58.3353 101.546C57.9754 101.297 57.6159 101.047 57.2567 100.797C57.075 100.671 56.8934 100.545 56.7062 100.415C49.6538 95.4513 42.6514 89.3142 37.4415 82.4436C37.2169 82.1605 36.9923 81.8773 36.7608 81.5856C34.9624 79.3103 33.3334 76.9368 31.7657 74.4976C31.5986 74.2401 31.4314 73.9825 31.2591 73.7172C30.9144 73.0787 30.9144 73.0787 30.9144 72.2273C30.7271 72.2273 30.5398 72.2273 30.3468 72.2273C26.6845 65.1224 24.9548 58.769 24.9548 50.6594C29.6373 50.6594 34.3198 50.6594 39.1442 50.6594C39.3315 50.0975 39.5188 49.5356 39.7118 48.9567C40.062 48.2679 40.4191 47.592 40.7937 46.917C41.7454 45.1711 42.6114 43.4043 43.401 41.5782C43.5883 41.5782 43.7756 41.5782 43.9686 41.5782C44.03 41.3236 44.03 41.3236 44.0927 41.0639C44.2204 40.5675 44.3741 40.0779 44.5362 39.5917C44.7235 39.5917 44.9108 39.5917 45.1037 39.5917C45.1315 39.3876 45.1593 39.1835 45.188 38.9732C45.4158 38.0592 45.7692 37.487 46.3098 36.7184C46.5579 36.3573 46.5579 36.3573 46.8109 35.989C47.566 35.1119 48.2828 34.582 49.4304 34.3605C50.9657 34.3578 51.8426 34.584 53.0498 35.6187C54.0404 36.7284 54.0963 37.5971 54.0541 39.0485C53.8312 40.2535 53.2452 40.9746 52.4988 41.9252C51.8339 42.8224 51.3106 43.7651 50.7972 44.7531C50.7037 44.9325 50.6102 45.1118 50.5138 45.2966C50.3217 45.6659 50.1301 46.0355 49.9389 46.4053C49.6395 46.9795 49.3338 47.55 49.0258 48.1198C48.9244 48.3076 48.8231 48.4953 48.7186 48.6888C48.5264 49.0445 48.3338 49.3999 48.1407 49.7551C47.5327 50.8869 47.0175 52.0297 46.5227 53.2135C46.352 53.5863 46.1806 53.9589 46.0083 54.3309C44.7992 57.041 43.8403 59.8672 42.8346 62.6572C42.5025 63.5578 42.1536 64.4513 41.8047 65.3454C40.4231 68.7012 40.4231 68.7012 40.9179 72.1741C41.6184 73.0498 42.1673 73.5778 43.2935 73.7793C45.0413 73.8168 45.0413 73.8168 46.5404 72.99C47.329 71.8961 47.7575 71.1083 48.048 69.7974C48.3795 68.4063 48.8156 67.135 49.3705 65.8199C49.6429 65.1363 49.8527 64.4571 50.0523 63.7491C50.8121 61.1347 51.9839 58.7163 53.2194 56.2986C53.5816 55.557 53.8915 54.8179 54.1849 54.0472C54.8017 52.4574 55.6138 51.0047 56.4552 49.5243C56.625 49.217 56.7947 48.9097 56.9696 48.5931C63.2776 37.2998 72.0991 27.3509 84.3218 22.4836C85.1834 22.264 85.6913 22.3183 86.5367 22.5645Z" fill="#01A4EE"/>
<path d="M118.321 50.6594C121.76 50.6396 125.199 50.6245 128.638 50.6153C130.234 50.6108 131.831 50.6048 133.428 50.5952C134.97 50.5859 136.512 50.5808 138.054 50.5786C138.642 50.577 139.229 50.574 139.816 50.5694C140.641 50.5632 141.466 50.5623 142.29 50.5627C142.532 50.5597 142.773 50.5566 143.021 50.5535C144.847 50.5629 146.468 50.843 147.913 52.0506C148.147 52.3365 148.147 52.3365 148.385 52.6282C148.545 52.818 148.706 53.0079 148.871 53.2035C149.77 54.561 149.699 56.1875 149.447 57.7485C148.504 61.0725 144.292 63.1568 141.615 64.9977C140.799 65.5756 140.009 66.1875 139.222 66.8046C138.753 67.1191 138.753 67.1191 138.186 67.1191C137.786 66.6164 137.406 66.0986 137.033 65.576C132.114 58.9667 125.532 54.6932 118.321 50.9432C118.321 50.8495 118.321 50.7559 118.321 50.6594Z" fill="#02A4EE"/>
<path d="M77.2726 0.917881C78.8512 1.64946 79.6235 2.68784 80.5771 4.11825C80.7276 4.59876 80.862 5.08443 80.9851 5.57266C81.2374 6.53563 81.4974 7.48604 81.8187 8.42827C82.2405 9.67326 82.6557 10.92 83.0603 12.1707C83.127 12.3702 83.1937 12.5696 83.2625 12.7751C83.7311 14.2376 83.7311 14.2376 83.415 15.186C82.9293 15.455 82.9293 15.455 82.2954 15.6859C82.0621 15.7738 81.8288 15.8617 81.5885 15.9522C81.3367 16.0447 81.0849 16.1372 80.8255 16.2324C74.915 18.5113 65.3968 23.1275 62.4147 29.0915C62.2274 29.0915 62.0401 29.0915 61.8472 29.0915C62.2354 27.5447 62.6442 26.0396 63.2661 24.5687C63.6993 23.5334 64.0026 22.5218 64.2594 21.4293C64.5749 20.0863 65.0079 18.8687 65.5442 17.6004C65.9391 16.582 66.1958 15.5372 66.4687 14.4809C66.6716 13.767 66.6716 13.767 67.0972 12.7915C67.4763 11.8911 67.708 11.0778 67.9309 10.131C68.2569 8.76198 68.6841 7.50443 69.2378 6.21229C69.5065 5.54458 69.6931 4.88298 69.8819 4.1892C70.3937 2.60028 71.4943 1.79215 72.8849 0.957788C74.2433 0.400842 75.885 0.492185 77.2726 0.917881Z" fill="#04A5EE"/>
<path d="M30.6305 125.012C31.9508 125.293 33.2413 125.595 34.5326 125.987C40.3111 127.562 46.3481 127.673 52.2527 126.86C53.744 126.659 55.2387 126.541 56.739 126.431C55.7585 127.499 54.6444 128.274 53.4577 129.091C51.6529 130.349 49.8688 131.631 48.1012 132.94C45.9328 134.545 43.7529 136.133 41.563 137.708C40.6572 138.36 39.7546 139.016 38.8537 139.674C38.5037 139.93 38.5037 139.93 38.1465 140.19C37.6978 140.517 37.2497 140.845 36.8023 141.174C36.6009 141.32 36.3996 141.467 36.1921 141.618C36.0151 141.747 35.838 141.877 35.6556 142.01C34.2518 142.915 32.5137 142.783 30.9143 142.607C29.4849 142.086 28.2854 141.088 27.4645 139.806C26.2716 136.791 27.7503 133.069 28.9345 130.266C29.3292 129.249 29.5958 128.209 29.8612 127.152C30.068 126.413 30.3332 125.719 30.6305 125.012Z" fill="#03A5EE"/>
<path d="M114.632 111.106C115.053 111.247 115.053 111.247 115.483 111.39C115.622 111.963 115.755 112.538 115.865 113.117C116.256 114.862 116.893 116.545 117.47 118.236C117.663 118.806 117.856 119.376 118.048 119.945C118.222 120.461 118.397 120.976 118.573 121.491C118.783 122.136 118.982 122.785 119.168 123.437C119.475 124.511 119.819 125.569 120.174 126.627C120.242 126.828 120.309 127.029 120.378 127.236C120.59 127.872 120.804 128.508 121.017 129.144C121.16 129.572 121.303 130 121.446 130.428C121.709 131.214 121.972 132.001 122.236 132.788C122.349 133.125 122.461 133.462 122.578 133.809C122.684 134.116 122.79 134.423 122.899 134.739C123.42 136.377 123.539 138.312 122.834 139.905C121.97 141.133 120.911 142.162 119.456 142.607C116.168 143.079 114.106 141.584 111.563 139.698C111.342 139.535 111.12 139.373 110.892 139.206C110.45 138.882 110.009 138.558 109.568 138.234C108.741 137.624 107.908 137.02 107.076 136.416C106.662 136.115 106.248 135.814 105.834 135.512C106.019 134.431 106.521 133.677 107.111 132.763C108.059 131.265 108.926 129.736 109.754 128.169C109.86 127.97 109.965 127.771 110.074 127.566C111.838 124.203 112.786 120.884 113.532 117.172C113.607 116.808 113.682 116.443 113.759 116.068C114.096 114.417 114.405 112.776 114.632 111.106Z" fill="#04A5EE"/>
<path d="M6.08101 50.5951C6.33091 50.5951 6.58082 50.5951 6.8383 50.5952C7.23921 50.5996 7.23921 50.5996 7.64821 50.6041C7.92376 50.6049 8.19931 50.6057 8.48321 50.6065C9.36223 50.6097 10.2412 50.6168 11.1202 50.624C11.7166 50.6269 12.313 50.6294 12.9094 50.6318C14.3705 50.638 15.8315 50.6478 17.2925 50.6595C17.3117 50.968 17.3117 50.968 17.3311 51.2828C17.3919 52.234 17.4575 53.1849 17.5231 54.1359C17.5431 54.4593 17.563 54.7827 17.5835 55.1158C17.7394 57.3102 18.135 59.3245 18.7115 61.4434C18.8517 62.1106 18.9885 62.7786 19.1194 63.4477C19.6291 65.8552 20.4106 68.0517 21.5471 70.2308C22.3586 71.8694 22.9859 73.6073 23.5359 75.349C22.3081 74.9345 21.4419 74.3093 20.4319 73.5044C19.1518 72.4977 17.8591 71.5189 16.5299 70.5778C16.3672 70.4625 16.2045 70.3472 16.0369 70.2284C15.6929 69.9846 15.3488 69.7408 15.0047 69.497C13.7729 68.6206 12.5492 67.7328 11.325 66.8458C10.2154 66.0422 9.10333 65.2426 7.98521 64.4509C1.47629 59.8285 1.47629 59.8285 0.832879 58.038C0.650354 56.3952 0.591642 54.8683 1.29403 53.3555C2.66764 51.9096 3.98723 50.583 6.08101 50.5951Z" fill="#02A5EE"/>
<path d="M311.013 31.3494C315.601 31.3494 320.19 31.3494 324.918 31.3494C324.918 36.8516 324.918 36.8516 324.73 39.598C324.717 39.789 324.705 39.9801 324.691 40.1768C324.678 40.3659 324.665 40.555 324.652 40.7498C324.339 45.3734 324.216 49.9814 324.067 54.6199C334.368 54.6199 344.67 54.6199 355.283 54.6199C355.283 52.9342 355.283 51.2485 355.283 49.5118C355.353 48.0184 355.432 46.531 355.532 45.0399C355.557 44.64 355.583 44.2401 355.608 43.8402C355.674 42.8072 355.742 41.7744 355.81 40.7416C355.879 39.6799 355.947 38.618 356.015 37.5561C356.148 35.4871 356.283 33.4182 356.419 31.3494C361.101 31.3494 365.784 31.3494 370.608 31.3494C370.29 36.8716 369.971 42.3938 369.653 47.9161C369.505 50.482 369.357 53.0479 369.209 55.6138C369.152 56.613 369.094 57.6121 369.037 58.6112C369.022 58.8574 369.008 59.1035 368.994 59.357C368.838 62.0504 368.683 64.7437 368.527 67.4369C368.507 67.7927 368.507 67.7927 368.485 68.1556C368.431 69.0958 368.377 70.036 368.322 70.9762C368.164 73.7027 368.008 76.4293 367.853 79.1561C367.775 80.5331 367.696 81.9101 367.616 83.2871C367.581 83.9055 367.546 84.5238 367.512 85.1422C367.465 85.9704 367.418 86.7984 367.37 87.6265C367.35 87.9827 367.35 87.9827 367.331 88.3462C367.271 89.3529 367.164 90.2457 366.919 91.2285C362.424 91.2285 357.928 91.2285 353.297 91.2285C353.204 86.1429 353.399 81.1215 353.705 76.0459C353.724 75.7266 353.743 75.4074 353.763 75.0784C353.819 74.1504 353.876 73.2225 353.934 72.2946C353.952 72.0184 353.969 71.7422 353.986 71.4576C354.104 69.6241 354.266 67.8026 354.432 65.9714C338.98 66.1119 338.98 66.1119 323.215 66.2552C323.034 69.1057 322.853 71.9562 322.666 74.893C322.581 76.2184 322.581 76.2184 322.494 77.5706C322.199 82.2166 321.963 86.8594 321.797 91.5123C317.114 91.5123 312.432 91.5123 307.607 91.5123C307.607 86.9485 307.607 86.9485 307.724 85.0678C307.736 84.8499 307.749 84.632 307.762 84.4075C307.803 83.6937 307.846 82.98 307.889 82.2663C307.92 81.7479 307.95 81.2296 307.98 80.7112C308.062 79.3151 308.145 77.9192 308.228 76.5232C308.316 75.0563 308.402 73.5894 308.488 72.1224C308.633 69.6608 308.779 67.1993 308.925 64.7378C309.094 61.8981 309.262 59.0584 309.429 56.2186C309.608 53.1849 309.787 50.1513 309.967 47.1176C310.018 46.2476 310.069 45.3777 310.121 44.5077C310.202 43.1377 310.283 41.7678 310.365 40.398C310.394 39.8973 310.424 39.3966 310.453 38.8959C310.494 38.2087 310.535 37.5215 310.576 36.8344C310.588 36.6397 310.599 36.445 310.611 36.2444C310.71 34.6073 310.864 32.9854 311.013 31.3494Z" fill="white"/>
<path d="M375.432 31.3493C380.998 31.3161 386.563 31.2911 392.128 31.2757C394.713 31.2684 397.297 31.2585 399.881 31.2422C402.135 31.228 404.389 31.2189 406.643 31.2158C407.835 31.2139 409.027 31.2096 410.219 31.1992C411.344 31.1895 412.468 31.1867 413.593 31.1888C414.003 31.1884 414.414 31.1856 414.824 31.1801C418.585 31.1323 421.473 31.9783 424.207 34.625C426.922 37.7586 426.865 41.3641 426.623 45.2726C426.595 45.7602 426.568 46.2479 426.541 46.7355C426.478 47.86 426.412 48.9843 426.346 50.1086C426.228 52.0981 426.115 54.0879 426.003 56.0777C425.733 60.8694 425.456 65.6608 425.178 70.4521C425.045 72.7548 424.912 75.0576 424.779 77.3604C424.506 82.0777 424.233 86.795 423.96 91.5122C419.371 91.5122 414.782 91.5122 410.054 91.5122C410.002 86.216 410.182 80.9689 410.513 75.6856C410.578 74.6326 410.641 73.5795 410.704 72.5264C410.823 70.5419 410.944 68.5575 411.065 66.5732C411.284 63.0119 411.5 59.4505 411.714 55.8889C411.789 54.6437 411.865 53.3985 411.942 52.1534C411.978 51.5665 412.013 50.9796 412.049 50.3927C412.092 49.6814 412.136 48.9702 412.18 48.2591C412.267 46.8137 412.344 45.3687 412.373 43.9209C412.378 43.6979 412.382 43.475 412.387 43.2452C412.374 42.6325 412.374 42.6325 411.757 42.1332C411.023 42.0715 410.318 42.0448 409.582 42.0427C409.246 42.0384 409.246 42.0384 408.903 42.0341C408.16 42.0253 407.416 42.0205 406.673 42.0157C406.159 42.0104 405.644 42.0048 405.13 41.999C403.774 41.9844 402.418 41.9732 401.062 41.9627C399.679 41.9513 398.296 41.9368 396.914 41.9226C394.199 41.8951 391.485 41.8711 388.77 41.8494C388.764 42.0404 388.758 42.2313 388.751 42.4281C388.597 47.0677 388.38 51.6997 388.097 56.3331C388.032 57.4052 387.968 58.4773 387.904 59.5494C387.745 62.2092 387.584 64.8689 387.424 67.5286C387.287 69.7891 387.151 72.0498 387.017 74.3105C386.954 75.3503 386.891 76.39 386.828 77.4298C386.6 81.2123 386.422 84.992 386.319 88.78C386.309 89.0968 386.3 89.4136 386.29 89.74C386.282 90.0212 386.275 90.3024 386.267 90.5921C386.216 91.2284 386.216 91.2284 385.932 91.5122C385.497 91.5387 385.06 91.5455 384.624 91.5444C384.345 91.5444 384.067 91.5444 383.78 91.5444C383.477 91.5429 383.175 91.5414 382.863 91.5399C382.4 91.5393 382.4 91.5393 381.929 91.5387C380.94 91.5371 379.951 91.5335 378.962 91.5299C378.293 91.5285 377.625 91.5272 376.956 91.5261C375.313 91.5229 373.67 91.5181 372.027 91.5122C371.989 87.9905 372.096 84.499 372.309 80.9842C372.339 80.4638 372.37 79.9434 372.4 79.4231C372.481 78.0271 372.564 76.6313 372.648 75.2355C372.735 73.7681 372.821 72.3006 372.908 70.8331C373.052 68.3735 373.198 65.914 373.345 63.4546C373.514 60.6142 373.682 57.7738 373.849 54.9333C374.01 52.1915 374.172 49.4499 374.334 46.7082C374.403 45.5447 374.472 44.3812 374.54 43.2177C374.621 41.8496 374.702 40.4816 374.784 39.1136C374.814 38.6124 374.844 38.1112 374.873 37.61C374.913 36.9249 374.954 36.24 374.996 35.555C375.007 35.3578 375.018 35.1605 375.03 34.9573C375.105 33.7406 375.246 32.5527 375.432 31.3493Z" fill="white"/>
<path d="M207.43 31.3494C222.227 31.3494 237.024 31.3494 252.269 31.3494C252.269 35.1344 252.142 38.9191 251.985 42.7009C241.683 42.7009 231.382 42.7009 220.768 42.7009C220.768 43.9183 220.768 45.1358 220.768 46.3901C220.675 49.1059 220.581 51.8218 220.484 54.6199C229.288 54.6199 238.091 54.6199 247.16 54.6199C247.16 56.3993 247.16 58.1786 247.16 60.0119C246.973 60.0119 246.786 60.0119 246.593 60.0119C246.593 61.9785 246.593 63.9452 246.593 65.9714C233.248 66.1119 233.248 66.1119 219.633 66.2552C219.447 69.045 219.296 71.7749 219.297 74.5606C219.296 75.1539 219.291 75.747 219.286 76.3402C219.285 76.7199 219.284 77.0996 219.284 77.4792C219.283 77.8177 219.282 78.1562 219.28 78.505C219.266 79.3476 219.266 79.3476 219.917 79.877C220.472 79.9659 220.472 79.9659 221.116 79.956C221.368 79.9592 221.619 79.9624 221.878 79.9656C222.155 79.9663 222.432 79.9669 222.717 79.9675C223.007 79.9704 223.298 79.9732 223.598 79.9761C224.562 79.9849 225.526 79.9897 226.491 79.9945C227.158 79.9998 227.825 80.0054 228.492 80.0112C230.251 80.0258 232.01 80.037 233.769 80.0475C235.563 80.0589 237.356 80.0734 239.15 80.0876C242.672 80.1151 246.193 80.1388 249.715 80.1608C249.527 83.9068 249.34 87.6528 249.147 91.5123C244.581 91.538 240.014 91.5589 235.448 91.5711C233.327 91.577 231.207 91.5849 229.086 91.5979C227.237 91.6093 225.387 91.6166 223.537 91.6191C222.559 91.6206 221.581 91.624 220.603 91.6323C219.508 91.6416 218.412 91.6417 217.316 91.6412C216.997 91.6452 216.678 91.6493 216.348 91.6535C212.705 91.6348 209.851 90.5491 207.282 87.9539C205.009 85.3779 204.8 83.066 204.789 79.7595C204.788 79.5526 204.787 79.3457 204.786 79.1326C204.784 71.3957 205.395 63.6566 205.871 55.9373C206.008 53.7112 206.142 51.4849 206.275 49.2585C206.483 45.7864 206.692 42.3145 206.906 38.8427C206.926 38.5107 206.946 38.1787 206.967 37.8366C207.101 35.6718 207.264 33.5124 207.43 31.3494Z" fill="white"/>
<path d="M280.279 31.285C280.708 31.2849 280.708 31.2849 281.145 31.2848C282.077 31.2852 283.009 31.2896 283.941 31.294C284.592 31.2951 285.243 31.2959 285.893 31.2965C287.598 31.2986 289.302 31.3042 291.006 31.3105C292.749 31.3163 294.491 31.3189 296.234 31.3217C299.647 31.3278 303.059 31.3375 306.472 31.3495C306.489 34.0445 306.45 36.7268 306.33 39.4197C306.316 39.7388 306.303 40.058 306.289 40.3869C306.256 41.1583 306.223 41.9296 306.188 42.701C305.694 42.7016 305.694 42.7016 305.189 42.7022C302.071 42.7069 298.952 42.7191 295.834 42.7384C294.231 42.7481 292.628 42.7553 291.025 42.7564C289.476 42.7577 287.926 42.7658 286.377 42.7785C285.789 42.7822 285.2 42.7835 284.611 42.7822C279.345 42.7732 275.757 43.6494 271.736 47.2914C267.682 51.4141 266.376 56.8403 266.368 62.4349C266.415 66.3273 267.12 69.7723 269.296 73.0662C269.466 73.3347 269.635 73.6032 269.81 73.8799C271.888 76.9716 274.801 78.8205 278.413 79.7483C279.511 79.9217 280.599 79.9275 281.708 79.9354C281.954 79.9382 282.201 79.941 282.455 79.9439C283.267 79.9528 284.08 79.9599 284.892 79.9669C285.456 79.9727 286.02 79.9787 286.585 79.9848C288.068 80.0004 289.551 80.0144 291.034 80.0281C292.815 80.0449 294.595 80.0637 296.376 80.0821C299.079 80.1099 301.782 80.1352 304.485 80.1609C304.298 83.9069 304.111 87.6529 303.918 91.5124C300.259 91.5317 296.6 91.5473 292.942 91.5565C291.242 91.5609 289.543 91.5669 287.844 91.5766C286.201 91.5859 284.557 91.591 282.914 91.5932C282.291 91.5947 281.667 91.5978 281.044 91.6024C273.099 91.659 265.8 90.3455 259.845 84.6439C255.793 80.416 253.746 75.0773 252.836 69.377C252.763 68.9301 252.763 68.9301 252.688 68.4742C252.541 67.2998 252.501 66.159 252.495 64.9772C252.493 64.75 252.491 64.5229 252.49 64.2889C252.487 63.8098 252.485 63.3306 252.484 62.8515C252.481 62.1316 252.473 61.4119 252.464 60.6921C252.442 57.3205 252.7 54.1193 254.009 50.9618C254.205 50.4855 254.383 50.0019 254.554 49.5163C256.935 42.8872 262.271 36.9842 268.657 33.9468C269.618 33.5252 270.583 33.136 271.566 32.7684C271.799 32.6788 272.032 32.5891 272.272 32.4968C274.879 31.557 277.524 31.2636 280.279 31.285Z" fill="white"/>
<path fill-rule="evenodd" clip-rule="evenodd" d="M460.55 29.5215L459.49 29.5313C450.702 29.5962 441.333 33.1037 435.581 40.0159L435.028 40.7143C434.642 41.1874 434.257 41.6605 433.876 42.1373L433.485 42.6299C432.815 43.4606 432.252 44.1755 431.967 45.2239L431.906 45.8225H431.338C431.142 46.2606 430.941 46.6992 430.738 47.1389C429.972 48.8066 429.197 50.4919 428.677 52.2398L428.501 52.9172C426.819 59.0109 426.678 67.6273 429.582 73.3853C429.79 73.7513 429.997 74.1179 430.203 74.485C433.552 81.5864 439.008 87.1767 446.392 90.0849L447.071 90.3416C451.878 92.1883 456.626 92.1995 461.712 92.1597C462.48 92.1532 463.247 92.1493 464.015 92.148C464.772 92.147 465.529 92.145 466.287 92.1424L467.372 92.1375C475.222 92.1098 483.16 89.4626 488.902 83.9176L489.515 83.2824C489.607 83.1876 489.699 83.0923 489.792 82.9964C491.664 81.0651 493.758 78.9049 494.686 76.3784L494.907 75.6202H495.474C496.012 74.2883 496.549 72.9567 497.053 71.6117C497.142 71.37 497.231 71.1285 497.321 70.8872C497.367 70.7621 497.414 70.637 497.461 70.512C497.992 69.2099 498.416 67.9959 498.589 66.5866L498.649 65.9891C498.902 63.5469 498.972 61.1042 498.966 58.6499C498.837 50.5149 495.71 43.5996 489.94 37.9001C483.309 31.5568 475.127 29.3929 466.079 29.4692C464.974 29.4872 463.87 29.5048 462.765 29.5102C462.027 29.5125 461.289 29.5162 460.55 29.5215ZM465.763 40.0442C465 40.0514 464.237 40.058 463.474 40.0571C457.409 40.0423 451.48 41.1425 447.138 45.8469L446.663 46.3901C442.526 50.8326 441.502 56.2247 441.468 62.1318L441.466 62.7078C441.454 65.3589 441.546 67.5698 442.488 70.0597L442.867 70.9377C443.09 71.4587 443.314 71.9791 443.541 72.4985H444.109C444.109 72.8122 444.109 73.0431 444.156 73.2642C444.286 73.8818 444.782 74.4221 446.663 76.4715C450.755 80.427 455.594 81.7029 461.131 81.6684C461.9 81.6594 462.67 81.6506 463.439 81.6479C463.949 81.6468 464.459 81.645 464.969 81.6423L465.701 81.6373C470.457 81.6123 474.748 80.0434 478.387 76.9294C481.516 73.9186 484.233 70.1958 484.404 65.7452L484.407 65.12H484.974C484.98 63.9662 484.985 62.8125 484.988 61.6586C484.989 61.1866 484.991 60.7145 484.992 60.2424C484.996 59.5486 484.999 58.8547 485.001 58.1608L485.002 57.4988C485.009 56.4484 485.013 55.4252 484.843 54.3852L484.69 53.7685C484.39 52.5047 484.026 51.2908 483.555 50.0793C481.371 46.0321 478.017 42.9667 473.735 41.2562L473.055 40.9981C470.644 40.0789 468.307 40.0349 465.763 40.0442Z" fill="white"/>
<path d="M513.359 31.285C513.787 31.2849 513.787 31.2849 514.224 31.2847C515.165 31.2851 516.106 31.2895 517.048 31.294C517.701 31.295 518.354 31.2959 519.008 31.2964C520.726 31.2986 522.444 31.3042 524.162 31.3104C525.916 31.3162 527.67 31.3188 529.424 31.3217C532.864 31.3278 536.305 31.3378 539.745 31.3494C539.558 34.8145 539.371 38.2795 539.178 41.8495C537.576 41.8569 535.974 41.8642 534.323 41.8717C533.308 41.8789 532.293 41.8863 531.278 41.895C529.666 41.9087 528.055 41.9212 526.444 41.9265C525.145 41.9308 523.846 41.9405 522.547 41.9541C522.051 41.9583 521.556 41.9605 521.06 41.9608C520.366 41.9614 519.672 41.9691 518.977 41.9784C518.773 41.977 518.568 41.9756 518.358 41.9741C516.999 42.0022 516.287 42.2936 515.339 43.2685C515.149 43.8949 515.149 43.8949 515.215 44.5455C515.222 44.7592 515.228 44.9728 515.234 45.1929C515.471 46.6112 516.142 47.2239 517.255 48.0929C518.532 49.1089 519.781 50.1474 521.015 51.2145C522.438 52.4406 523.877 53.6412 525.335 54.8251C526.221 55.5514 527.095 56.2903 527.968 57.0322C529.094 57.9893 530.227 58.9369 531.373 59.8701C531.894 60.2954 532.414 60.7211 532.934 61.1471C533.087 61.2715 533.239 61.3959 533.396 61.5241C535.28 63.0682 537.126 64.5894 538.61 66.5391C538.74 66.6989 538.87 66.8588 539.004 67.0235C541.497 70.461 541.313 74.9956 541.164 79.0257C540.977 79.0257 540.789 79.0257 540.597 79.0257C540.591 79.3769 540.585 79.7281 540.579 80.0899C540.214 83.233 537.777 86.0743 535.488 88.1069C532.417 90.3645 529.156 91.3696 525.356 91.3252C524.928 91.3254 524.928 91.3254 524.491 91.3256C523.559 91.325 522.627 91.3184 521.695 91.3117C521.044 91.3101 520.393 91.3089 519.742 91.3081C518.038 91.3048 516.334 91.2965 514.629 91.287C512.887 91.2783 511.144 91.2744 509.402 91.2701C505.989 91.261 502.576 91.2465 499.164 91.2286C499.134 87.5276 499.116 83.8496 499.447 80.1609C499.76 80.1598 500.073 80.1588 500.395 80.1577C503.343 80.1472 506.291 80.1308 509.238 80.1087C510.754 80.0975 512.269 80.0883 513.785 80.0839C515.248 80.0796 516.711 80.0699 518.173 80.0563C518.731 80.0521 519.289 80.0499 519.847 80.0496C520.629 80.049 521.411 80.0413 522.193 80.032C522.423 80.0334 522.653 80.0348 522.89 80.0363C524.374 80.009 525.233 79.7295 526.407 78.7419C527.139 77.3743 527.118 75.9537 526.691 74.4851C526.143 73.7331 525.475 73.2043 524.74 72.6405C524.45 72.404 524.45 72.404 524.154 72.1628C523.585 71.7011 523.01 71.2482 522.434 70.7959C521.907 70.3652 521.381 69.9337 520.856 69.5011C520.609 69.3017 520.363 69.1023 520.11 68.8969C519.17 68.1245 518.247 67.3333 517.326 66.5391C515.904 65.3141 514.466 64.1143 513.009 62.9307C511.499 61.6935 510.014 60.4269 508.529 59.1606C508.305 58.9726 508.081 58.7845 507.85 58.5908C504.623 55.844 502.321 52.3279 501.944 48.007C501.723 42.8902 502.676 38.2591 506.134 34.2937C508.341 32.0086 510.211 31.261 513.359 31.285Z" fill="white"/>
<path d="M164.578 31.3494C177.221 31.3494 189.864 31.3494 202.889 31.3494C202.889 35.4996 202.889 35.4996 202.784 37.2603C202.772 37.4549 202.761 37.6494 202.749 37.8499C202.712 38.4866 202.672 39.1233 202.633 39.76C202.606 40.2229 202.578 40.6859 202.551 41.1488C202.492 42.1394 202.433 43.1299 202.372 44.1204C202.277 45.6951 202.183 47.27 202.09 48.8449C201.907 51.9113 201.723 54.9777 201.539 58.0441C201.306 61.9312 201.073 65.8184 200.842 69.7057C200.764 71.0107 200.686 72.3156 200.607 73.6205C200.518 75.0837 200.431 76.547 200.344 78.0103C200.324 78.3542 200.324 78.3542 200.303 78.705C200.102 82.1184 199.949 85.5308 199.86 88.949C199.852 89.2484 199.843 89.5478 199.835 89.8563C199.828 90.1165 199.822 90.3766 199.816 90.6446C199.768 91.2285 199.768 91.2285 199.484 91.5123C199.048 91.5387 198.612 91.5456 198.175 91.5445C197.897 91.5445 197.618 91.5445 197.332 91.5445C197.029 91.543 196.726 91.5415 196.414 91.54C195.952 91.5394 195.952 91.5394 195.48 91.5388C194.491 91.5372 193.502 91.5336 192.513 91.53C191.845 91.5286 191.176 91.5273 190.507 91.5262C188.864 91.523 187.221 91.5183 185.578 91.5123C185.454 86.6866 185.804 81.8753 186.094 77.0612C186.167 75.8501 186.238 74.6388 186.309 73.4276C186.443 71.1422 186.579 68.8569 186.716 66.5716C186.901 63.4776 187.083 60.3836 187.266 57.2895C187.553 52.4265 187.843 47.5637 188.132 42.7009C180.172 42.7009 172.212 42.7009 164.01 42.7009C164.01 37.4434 164.01 37.4434 164.135 35.5884C164.146 35.3955 164.157 35.2025 164.168 35.0037C164.246 33.7665 164.402 32.5826 164.578 31.3494Z" fill="white"/>
<path d="M449.785 15.741C459.43 15.741 469.076 15.741 479.015 15.741C479.015 18.5505 479.015 21.36 479.015 24.2546C469.275 24.2546 459.535 24.2546 449.501 24.2546C449.501 21.4151 449.582 18.5732 449.785 15.741Z" fill="white"/>
<path d="M172.15 127.538C173.353 127.536 174.541 127.268 175.631 126.753C176.703 126.273 177.654 125.553 178.414 124.647V124.647L176.34 122.54C175.832 123.161 175.2 123.666 174.486 124.024C173.785 124.368 173.016 124.544 172.238 124.539C171.581 124.546 170.93 124.421 170.321 124.171C169.712 123.921 169.158 123.551 168.691 123.082C168.242 122.624 167.887 122.079 167.646 121.48C167.389 120.844 167.259 120.162 167.265 119.474C167.258 118.78 167.384 118.091 167.636 117.445C167.871 116.845 168.22 116.297 168.662 115.832C169.106 115.371 169.636 115.005 170.222 114.756C170.833 114.493 171.49 114.359 172.153 114.364C172.953 114.361 173.743 114.547 174.46 114.907C175.2 115.285 175.849 115.825 176.358 116.488V116.488L178.497 114.314C177.745 113.387 176.788 112.654 175.704 112.174C174.59 111.651 173.378 111.38 172.15 111.378C171.054 111.37 169.967 111.583 168.953 112.005C167.991 112.401 167.114 112.979 166.367 113.71C165.63 114.441 165.044 115.313 164.643 116.276C164.227 117.286 164.012 118.369 164.011 119.463C164.009 120.557 164.22 121.641 164.633 122.652C165.029 123.612 165.612 124.481 166.345 125.208C167.092 125.938 167.97 126.516 168.932 126.911C169.953 127.334 171.047 127.547 172.15 127.538V127.538ZM213.507 127.561C214.599 127.569 215.682 127.356 216.693 126.933C217.649 126.54 218.52 125.958 219.254 125.221C219.989 124.484 220.572 123.608 220.971 122.641C221.388 121.638 221.603 120.559 221.603 119.47C221.603 118.38 221.388 117.302 220.971 116.298C220.572 115.332 219.989 114.455 219.254 113.719C218.52 112.982 217.649 112.4 216.693 112.006C214.656 111.17 212.378 111.17 210.341 112.006C209.384 112.4 208.514 112.982 207.78 113.719C207.045 114.455 206.462 115.332 206.063 116.298C205.646 117.302 205.431 118.38 205.431 119.47C205.431 120.559 205.646 121.638 206.063 122.641C206.462 123.608 207.045 124.484 207.78 125.221C208.514 125.958 209.384 126.54 210.341 126.933C211.345 127.354 212.422 127.567 213.508 127.56L213.507 127.561ZM213.507 124.58C212.865 124.586 212.23 124.458 211.639 124.206C211.048 123.953 210.514 123.581 210.07 123.112C209.631 122.642 209.287 122.09 209.055 121.487C208.56 120.185 208.56 118.743 209.055 117.441C209.289 116.843 209.633 116.295 210.07 115.828C210.514 115.358 211.048 114.986 211.639 114.734C212.23 114.481 212.865 114.354 213.507 114.359C214.167 114.354 214.82 114.488 215.427 114.752C216.006 115.001 216.53 115.367 216.965 115.828C217.402 116.295 217.746 116.843 217.98 117.441C218.475 118.743 218.475 120.185 217.98 121.487C217.748 122.09 217.403 122.642 216.965 123.112C216.53 123.573 216.006 123.939 215.427 124.188C214.821 124.451 214.167 124.584 213.508 124.579L213.507 124.58ZM261.475 127.315V124.447H253.116V111.625H249.954V127.313L261.475 127.315ZM301.371 127.315V124.447H293.011V111.625H289.847V127.313L301.371 127.315ZM341.57 127.315V124.491H332.907V120.769H338.56V118.035H332.907V114.452H341.484V111.628H329.74V127.316L341.57 127.315ZM376.664 127.539C377.867 127.537 379.055 127.269 380.145 126.754C381.217 126.274 382.168 125.554 382.928 124.648V124.648L380.853 122.542C380.345 123.163 379.713 123.669 378.999 124.026C378.298 124.37 377.529 124.546 376.751 124.541C376.094 124.548 375.443 124.423 374.834 124.173C374.226 123.923 373.672 123.553 373.205 123.084C372.756 122.626 372.401 122.081 372.16 121.482C371.903 120.846 371.773 120.164 371.778 119.476C371.771 118.782 371.897 118.093 372.15 117.447C372.384 116.847 372.733 116.299 373.175 115.834C373.619 115.373 374.149 115.007 374.735 114.758C375.346 114.495 376.003 114.361 376.666 114.366C377.469 114.363 378.261 114.551 378.98 114.914C379.721 115.291 380.369 115.831 380.879 116.494V116.494L383.018 114.32C382.266 113.394 381.309 112.661 380.224 112.18C379.111 111.658 377.899 111.386 376.672 111.384C375.575 111.376 374.488 111.59 373.474 112.012C372.513 112.407 371.635 112.985 370.888 113.715C370.15 114.446 369.564 115.318 369.162 116.281C368.747 117.291 368.532 118.374 368.53 119.468C368.528 120.562 368.74 121.646 369.152 122.657C369.549 123.617 370.131 124.486 370.865 125.213C371.612 125.943 372.49 126.521 373.451 126.916C374.471 127.337 375.563 127.548 376.664 127.538V127.539ZM418.523 127.315V114.493H423.651V111.624H410.207V114.493H415.358V127.313L418.523 127.315ZM454.773 127.315V111.627H451.609V127.315H454.773ZM491.22 127.562C492.313 127.57 493.396 127.357 494.406 126.934C495.363 126.541 496.234 125.959 496.968 125.222C497.702 124.485 498.285 123.609 498.684 122.642C499.101 121.639 499.316 120.56 499.316 119.471C499.316 118.381 499.101 117.303 498.684 116.299C498.285 115.333 497.702 114.456 496.968 113.72C496.234 112.983 495.363 112.401 494.406 112.007C492.369 111.171 490.092 111.171 488.056 112.007C487.099 112.402 486.229 112.984 485.495 113.72C484.761 114.457 484.178 115.333 483.779 116.299C483.361 117.303 483.146 118.381 483.146 119.471C483.146 120.56 483.361 121.639 483.779 122.642C484.178 123.608 484.761 124.485 485.495 125.221C486.229 125.958 487.099 126.54 488.056 126.934C489.059 127.355 490.135 127.567 491.22 127.56V127.562ZM491.22 124.581C490.564 124.587 489.913 124.453 489.311 124.189C488.735 123.938 488.216 123.572 487.783 123.113C487.344 122.643 486.999 122.091 486.767 121.488C486.273 120.186 486.273 118.744 486.767 117.442C487.001 116.843 487.346 116.296 487.783 115.829C488.216 115.369 488.735 115.004 489.311 114.753C489.913 114.488 490.564 114.355 491.22 114.361C491.88 114.355 492.533 114.489 493.14 114.753C493.719 115.002 494.243 115.368 494.679 115.829C495.115 116.296 495.459 116.844 495.693 117.442C496.189 118.744 496.189 120.186 495.693 121.488C495.461 122.091 495.117 122.643 494.679 123.113C494.243 123.574 493.719 123.94 493.14 124.189C492.533 124.452 491.879 124.585 491.22 124.579V124.581ZM530.656 127.316V116.822L538.447 127.316H541.24V111.628H538.272V121.781L530.678 111.628H527.665V127.316H530.656Z" fill="white"/>
</svg>
