<svg width="317" height="105" viewBox="0 0 317 105" fill="none" xmlns="http://www.w3.org/2000/svg">
<path fill-rule="evenodd" clip-rule="evenodd" d="M29.9546 0H37.8183L37.8471 28.0058C37.867 50.1073 21.4742 68.5074 0 72.0171L0.028851 59.6562C17.2295 55.3637 29.9546 40.0223 29.9546 21.7535V0ZM52.7666 0H60.6303V21.7535C60.6303 40.0223 73.3554 55.3637 90.556 59.6562L90.5849 72.0171C69.1125 68.5074 52.7179 50.1073 52.7395 28.0058L52.7666 0ZM316.312 4.78736C315.396 3.24734 313.706 2.31469 311.894 2.34855C309.164 2.39954 306.978 4.59287 306.978 7.28099C306.978 9.96912 309.164 12.1624 311.894 12.2134C313.706 12.2473 315.396 11.3146 316.312 9.77463C317.229 8.2346 317.229 6.32739 316.312 4.78736ZM308.044 7.28205C308.044 5.18884 309.768 3.49196 311.894 3.49196C314.02 3.49294 315.744 5.18868 315.747 7.28205C315.747 9.37326 314.022 11.0721 311.894 11.0721C309.768 11.0721 308.044 9.37526 308.044 7.28205ZM309.728 10.0549H310.886V7.86253H312.246C312.648 7.86253 312.925 8.04537 312.943 8.41817C312.925 8.82114 312.925 9.26317 312.943 9.53656C312.955 9.71858 313.008 9.8957 313.099 10.0549H314.341C314.308 9.98008 314.278 9.92021 314.251 9.86685C314.176 9.71897 314.126 9.62105 314.126 9.39277C314.124 9.3251 314.121 9.23163 314.118 9.12549V9.12484C314.108 8.78824 314.094 8.32454 314.07 8.15189C314.02 7.72548 313.743 7.56252 313.542 7.44374C313.506 7.42258 313.472 7.40282 313.443 7.38322C313.823 7.16309 314.07 6.98734 314.211 6.50803C314.348 6.02873 314.233 5.63463 314.155 5.38965C313.993 4.78962 313.423 4.53044 312.859 4.50736H309.728V10.0549ZM312.453 5.46067H310.886V6.9128H312.471C312.677 6.89942 312.867 6.80255 312.998 6.64536C313.128 6.48817 313.186 6.28477 313.158 6.08378C313.158 5.6879 312.974 5.46067 312.453 5.46067ZM39.6577 0H50.9005V72.0437H39.6577V0ZM210.88 21.6737L217.845 44.0574L204.653 44.0237L210.88 21.6737ZM201.505 55.2394L196.849 71.9513H183.969L201.959 7.7559C203.118 3.93497 206.688 1.3168 210.739 1.31718C214.795 1.3144 218.373 3.93165 219.54 7.7559L239.272 72.0436L226.488 71.9496L221.318 55.2661L201.505 55.2394ZM131.979 21.6737L138.943 44.0574L125.752 44.0219L131.979 21.6737ZM122.602 55.2394L117.946 71.9513H105.068L123.057 7.7559C124.216 3.93497 127.786 1.3168 131.836 1.31718C135.892 1.31422 139.468 3.93185 140.634 7.7559L160.368 72.0436L147.585 71.9496L142.416 55.2661L122.602 55.2394ZM285.156 23.1364C285.156 32.2238 279.381 39.9815 271.248 43.0526L271.308 43.081C271.184 43.105 271.066 43.1482 270.956 43.2088C270.668 43.379 270.461 43.655 270.381 43.9758C270.3 44.2966 270.353 44.6358 270.527 44.9184L287.28 72.0455H274.319L258.914 46.9812C256.342 42.778 257.716 37.3174 261.985 34.7836C262.788 34.3079 263.651 34.0594 264.517 33.8499C269.845 32.9241 273.568 28.1379 273.087 22.8321C272.605 17.5263 268.079 13.4657 262.669 13.4846H255.108V71.6443H242.841V13.8485C242.841 5.77658 247.338 1.73973 255.108 1.77524L263.493 1.81252C275.457 1.81252 285.156 11.3596 285.156 23.1364ZM150.508 13.8235V1.87099H193.313V13.8235H178.088L178.043 72.0454H165.78V13.8857L150.508 13.8235ZM303.141 1.81244H290.878V72.0454H303.141V1.81244Z" fill="white"/>
<path d="M6.53799 104.98C7.50399 104.979 8.45807 104.764 9.33382 104.35C10.195 103.964 10.9591 103.386 11.569 102.658V102.658L9.90373 100.966C9.49504 101.465 8.98744 101.871 8.4139 102.158C7.85128 102.434 7.23359 102.576 6.60849 102.572C6.08099 102.577 5.55761 102.477 5.06863 102.276C4.57965 102.075 4.13478 101.778 3.75978 101.402C3.39868 101.033 3.11338 100.596 2.92045 100.114C2.7136 99.6034 2.60945 99.0557 2.61409 98.5034C2.60846 97.9457 2.70965 97.3923 2.91205 96.8737C3.10099 96.3915 3.38097 95.9513 3.73628 95.5779C4.0926 95.2074 4.51877 94.9135 4.98941 94.7137C5.47985 94.5024 6.00771 94.3952 6.54051 94.3986C7.18306 94.3961 7.81733 94.5457 8.39292 94.8354C8.98787 95.1385 9.50883 95.5722 9.918 96.1049V96.1049L11.6361 94.3586C11.032 93.6145 10.2633 93.0255 9.39257 92.6396C8.49766 92.22 7.52385 92.0019 6.53799 92.0002C5.65743 91.9942 4.78445 92.1655 3.96962 92.5042C3.19763 92.8219 2.49276 93.2866 1.8931 93.8733C1.30121 94.4604 0.830424 95.1611 0.508195 95.9346C0.174155 96.7456 0.00144953 97.6155 9.08544e-06 98.4944C-0.00143136 99.3734 0.168422 100.244 0.499801 101.056C0.818217 101.827 1.28603 102.525 1.87547 103.109C2.47542 103.695 3.18059 104.16 3.95283 104.477C4.77317 104.817 5.65191 104.988 6.53799 104.98V104.98ZM39.7564 104.999C40.634 105.005 41.5041 104.834 42.3155 104.495C43.0841 104.179 43.7834 103.711 44.3732 103.119C44.9629 102.528 45.4315 101.824 45.7518 101.047C46.0872 100.241 46.26 99.3751 46.26 98.5C46.26 97.6249 46.0872 96.7587 45.7518 95.9525C45.4315 95.1763 44.963 94.4721 44.3732 93.8805C43.7835 93.2888 43.0842 92.8214 42.3155 92.5051C40.6795 91.8333 38.8501 91.8333 37.2141 92.5051C36.4454 92.8214 35.7461 93.2888 35.1564 93.8805C34.5666 94.4721 34.0981 95.1763 33.7778 95.9525C33.4426 96.7588 33.2699 97.625 33.2699 98.5C33.2699 99.375 33.4426 100.241 33.7778 101.047C34.0981 101.824 34.5667 102.528 35.1564 103.119C35.7462 103.711 36.4455 104.179 37.2141 104.495C38.0203 104.833 38.8849 105.004 39.7572 104.998L39.7564 104.999ZM39.7564 102.605C39.2414 102.609 38.7309 102.507 38.2562 102.304C37.7815 102.101 37.3526 101.802 36.9958 101.426C36.6439 101.048 36.3672 100.604 36.1808 100.12C35.7833 99.0745 35.7833 97.9161 36.1808 96.8703C36.3687 96.3897 36.6453 95.9499 36.9958 95.5745C37.3526 95.1977 37.7815 94.8987 38.2562 94.6959C38.7309 94.4932 39.2414 94.3908 39.7564 94.3952C40.2866 94.3912 40.8118 94.4984 41.2991 94.7103C41.7644 94.9104 42.1848 95.2044 42.5346 95.5745C42.8851 95.9499 43.1617 96.3897 43.3496 96.8703C43.7469 97.9162 43.7469 99.0744 43.3496 100.12C43.1633 100.604 42.8866 101.048 42.5346 101.426C42.1848 101.796 41.7644 102.09 41.2991 102.29C40.812 102.501 40.287 102.608 39.7572 102.604L39.7564 102.605ZM78.2861 104.801V102.497H71.5715V92.1985H69.0316V104.8L78.2861 104.801ZM110.331 104.801V102.497H103.616V92.1985H101.075V104.8L110.331 104.801ZM142.62 104.801V102.533H135.661V99.5438H140.202V97.3471H135.661V94.4693H142.551V92.2011H133.118V104.802L142.62 104.801ZM170.809 104.981C171.775 104.98 172.729 104.765 173.605 104.351C174.466 103.965 175.23 103.387 175.84 102.659V102.659L174.174 100.967C173.765 101.466 173.257 101.873 172.684 102.159C172.121 102.436 171.503 102.577 170.878 102.573C170.351 102.579 169.828 102.479 169.339 102.278C168.85 102.077 168.405 101.78 168.031 101.403C167.669 101.035 167.384 100.597 167.191 100.116C166.984 99.6051 166.88 99.0574 166.884 98.5051C166.878 97.9474 166.98 97.3939 167.183 96.8754C167.371 96.393 167.651 95.9528 168.006 95.5796C168.362 95.209 168.789 94.9151 169.259 94.7154C169.75 94.5041 170.278 94.3969 170.81 94.4003C171.455 94.398 172.092 94.5487 172.669 94.8405C173.264 95.1435 173.785 95.5772 174.194 96.11V96.11L175.912 94.3637C175.308 93.6196 174.539 93.0306 173.668 92.6447C172.774 92.2253 171.8 92.0072 170.815 92.0053C169.934 91.9992 169.061 92.1706 168.246 92.5093C167.474 92.8266 166.769 93.2911 166.169 93.8776C165.577 94.4645 165.106 95.1653 164.783 95.9389C164.449 96.7499 164.277 97.6198 164.275 98.4987C164.274 99.3776 164.443 100.248 164.775 101.06C165.093 101.831 165.561 102.529 166.15 103.113C166.75 103.699 167.456 104.164 168.228 104.481C169.047 104.819 169.924 104.989 170.809 104.98V104.981ZM204.431 104.801V94.5025H208.549V92.1977H197.751V94.5025H201.888V104.8L204.431 104.801ZM233.547 104.801V92.2002H231.006V104.801H233.547ZM262.823 105C263.7 105.006 264.57 104.835 265.382 104.496C266.15 104.179 266.85 103.712 267.439 103.12C268.029 102.529 268.498 101.824 268.818 101.048C269.153 100.242 269.326 99.3759 269.326 98.5008C269.326 97.6258 269.153 96.7596 268.818 95.9534C268.498 95.1772 268.029 94.473 267.439 93.8813C266.85 93.2897 266.15 92.8222 265.382 92.5059C263.746 91.8344 261.917 91.8344 260.281 92.5059C259.513 92.8227 258.814 93.2903 258.224 93.8819C257.635 94.4735 257.166 95.1775 256.846 95.9534C256.51 96.7595 256.337 97.6257 256.337 98.5008C256.337 99.3759 256.51 100.242 256.846 101.048C257.166 101.824 257.635 102.528 258.224 103.12C258.814 103.711 259.513 104.179 260.281 104.496C261.087 104.833 261.951 105.004 262.823 104.998V105ZM262.823 102.606C262.295 102.61 261.773 102.503 261.289 102.291C260.827 102.089 260.41 101.795 260.062 101.426C259.71 101.049 259.433 100.606 259.246 100.121C258.849 99.0753 258.849 97.917 259.246 96.8712C259.434 96.3904 259.711 95.9505 260.062 95.5753C260.41 95.2065 260.827 94.9126 261.289 94.7111C261.773 94.4987 262.295 94.3914 262.823 94.3961C263.353 94.392 263.877 94.4993 264.365 94.7111C264.83 94.9112 265.251 95.2052 265.601 95.5753C265.951 95.9507 266.228 96.3905 266.416 96.8712C266.814 97.9169 266.814 99.0754 266.416 100.121C266.23 100.605 265.953 101.049 265.601 101.426C265.251 101.796 264.83 102.09 264.365 102.291C263.877 102.502 263.352 102.608 262.823 102.604V102.606ZM294.498 104.802V96.3731L300.756 104.802H303V92.2011H300.616V100.356L294.516 92.2011H292.096V104.802H294.498Z" fill="white"/>
</svg>
