<svg width="361" height="108" viewBox="0 0 361 108" fill="none" xmlns="http://www.w3.org/2000/svg">
<path fill-rule="evenodd" clip-rule="evenodd" d="M29.9546 0H37.8183L37.8471 28.0058C37.867 50.1073 21.4742 68.5074 0 72.0171L0.028851 59.6562C17.2295 55.3637 29.9546 40.0223 29.9546 21.7535V0ZM52.7666 0H60.6303V21.7535C60.6303 40.0223 73.3554 55.3637 90.556 59.6562L90.5849 72.0171C69.1125 68.5074 52.7179 50.1073 52.7395 28.0058L52.7666 0ZM316.312 4.78736C315.396 3.24734 313.706 2.31469 311.894 2.34855C309.164 2.39954 306.978 4.59287 306.978 7.28099C306.978 9.96912 309.164 12.1624 311.894 12.2134C313.706 12.2473 315.396 11.3146 316.312 9.77463C317.229 8.2346 317.229 6.32739 316.312 4.78736ZM308.044 7.28205C308.044 5.18884 309.768 3.49196 311.894 3.49196C314.02 3.49294 315.744 5.18868 315.747 7.28205C315.747 9.37326 314.022 11.0721 311.894 11.0721C309.768 11.0721 308.044 9.37526 308.044 7.28205ZM309.728 10.0549H310.886V7.86253H312.246C312.648 7.86253 312.925 8.04537 312.943 8.41817C312.925 8.82114 312.925 9.26317 312.943 9.53656C312.955 9.71858 313.008 9.8957 313.099 10.0549H314.341C314.308 9.98008 314.278 9.92021 314.251 9.86685C314.176 9.71897 314.126 9.62105 314.126 9.39277C314.124 9.3251 314.121 9.23163 314.118 9.12549V9.12484C314.108 8.78824 314.094 8.32454 314.07 8.15189C314.02 7.72548 313.743 7.56252 313.542 7.44374C313.506 7.42258 313.472 7.40282 313.443 7.38322C313.823 7.16309 314.07 6.98734 314.211 6.50803C314.348 6.02873 314.233 5.63463 314.155 5.38965C313.993 4.78962 313.423 4.53044 312.859 4.50736H309.728V10.0549ZM312.453 5.46067H310.886V6.9128H312.471C312.677 6.89942 312.867 6.80255 312.998 6.64536C313.128 6.48817 313.186 6.28477 313.158 6.08378C313.158 5.6879 312.974 5.46067 312.453 5.46067ZM39.6577 0H50.9005V72.0437H39.6577V0ZM210.88 21.6737L217.845 44.0574L204.653 44.0237L210.88 21.6737ZM201.505 55.2394L196.849 71.9513H183.969L201.959 7.7559C203.118 3.93497 206.688 1.3168 210.739 1.31718C214.795 1.3144 218.373 3.93165 219.54 7.7559L239.272 72.0436L226.488 71.9496L221.318 55.2661L201.505 55.2394ZM131.979 21.6737L138.943 44.0574L125.752 44.0219L131.979 21.6737ZM122.602 55.2394L117.946 71.9513H105.068L123.057 7.7559C124.216 3.93497 127.786 1.3168 131.836 1.31718C135.892 1.31422 139.468 3.93185 140.634 7.7559L160.368 72.0436L147.585 71.9496L142.416 55.2661L122.602 55.2394ZM285.156 23.1364C285.156 32.2238 279.381 39.9815 271.248 43.0526L271.308 43.081C271.184 43.105 271.066 43.1482 270.956 43.2088C270.668 43.379 270.461 43.655 270.381 43.9758C270.3 44.2966 270.353 44.6358 270.527 44.9184L287.28 72.0455H274.319L258.914 46.9812C256.342 42.778 257.716 37.3174 261.985 34.7836C262.788 34.3079 263.651 34.0594 264.517 33.8499C269.845 32.9241 273.568 28.1379 273.087 22.8321C272.605 17.5263 268.079 13.4657 262.669 13.4846H255.108V71.6443H242.841V13.8485C242.841 5.77658 247.338 1.73973 255.108 1.77524L263.493 1.81252C275.457 1.81252 285.156 11.3596 285.156 23.1364ZM150.508 13.8235V1.87099H193.313V13.8235H178.088L178.043 72.0454H165.78V13.8857L150.508 13.8235ZM303.141 1.81244H290.878V72.0454H303.141V1.81244Z" fill="white"/>
<path d="M7.78947 107.291C8.94038 107.289 10.0771 107.036 11.1205 106.551C12.1465 106.097 13.0569 105.418 13.7835 104.564V104.564L11.7995 102.576C11.3126 103.162 10.7078 103.639 10.0245 103.976C9.35415 104.3 8.61823 104.466 7.87347 104.462C7.245 104.468 6.62143 104.35 6.03885 104.115C5.45627 103.879 4.92625 103.53 4.47947 103.088C4.04925 102.655 3.70933 102.141 3.47947 101.576C3.23303 100.976 3.10894 100.332 3.11447 99.6836C3.10776 99.0286 3.22833 98.3786 3.46947 97.7696C3.69457 97.2031 4.02815 96.6861 4.45147 96.2476C4.876 95.8125 5.38375 95.4673 5.94447 95.2326C6.52879 94.9845 7.15769 94.8586 7.79247 94.8626C8.55802 94.8597 9.3137 95.0353 9.99947 95.3756C10.7083 95.7316 11.329 96.2409 11.8165 96.8666V96.8666L13.8635 94.8156C13.1438 93.9416 12.2279 93.2499 11.1905 92.7966C10.1243 92.3038 8.96404 92.0476 7.78947 92.0456C6.74036 92.0386 5.70028 92.2398 4.72947 92.6376C3.80971 93.0107 2.96992 93.5566 2.25547 94.2456C1.55028 94.9351 0.989382 95.7581 0.605472 96.6666C0.207492 97.6191 0.00172699 98.6408 1.08246e-05 99.6731C-0.00170534 100.705 0.200661 101.728 0.595472 102.682C0.974838 103.587 1.5322 104.407 2.23447 105.093C2.94926 105.781 3.7894 106.327 4.70947 106.7C5.68684 107.099 6.73379 107.3 7.78947 107.291V107.291ZM47.3665 107.313C48.4121 107.32 49.4487 107.119 50.4155 106.721C51.3312 106.349 52.1644 105.8 52.867 105.105C53.5696 104.41 54.1278 103.583 54.5095 102.672C54.9091 101.725 55.115 100.707 55.115 99.6796C55.115 98.6518 54.9091 97.6345 54.5095 96.6876C54.1279 95.776 53.5697 94.9489 52.8671 94.254C52.1644 93.5591 51.3312 93.0101 50.4155 92.6386C48.4663 91.8496 46.2867 91.8496 44.3375 92.6386C43.4217 93.0101 42.5885 93.5591 41.8859 94.254C41.1833 94.9489 40.6251 95.776 40.2435 96.6876C39.8441 97.6345 39.6384 98.6519 39.6384 99.6796C39.6384 100.707 39.8441 101.725 40.2435 102.672C40.6251 103.583 41.1833 104.41 41.886 105.105C42.5886 105.8 43.4218 106.349 44.3375 106.721C45.298 107.117 46.3282 107.318 47.3675 107.312L47.3665 107.313ZM47.3665 104.501C46.7529 104.506 46.1446 104.386 45.5791 104.147C45.0135 103.909 44.5026 103.558 44.0775 103.116C43.6582 102.672 43.3285 102.151 43.1065 101.583C42.6329 100.354 42.6329 98.9939 43.1065 97.7656C43.3303 97.2011 43.6599 96.6845 44.0775 96.2436C44.5026 95.801 45.0135 95.4499 45.5791 95.2118C46.1446 94.9736 46.7529 94.8534 47.3665 94.8586C47.9981 94.8538 48.6239 94.9798 49.2045 95.2286C49.7589 95.4636 50.2597 95.809 50.6765 96.2436C51.0941 96.6845 51.4236 97.2011 51.6475 97.7656C52.1209 98.9939 52.1209 100.354 51.6475 101.583C51.4255 102.151 51.0958 102.672 50.6765 103.116C50.2597 103.55 49.7589 103.896 49.2045 104.131C48.6241 104.379 47.9987 104.504 47.3675 104.5L47.3665 104.501ZM93.2715 107.081V104.375H85.2715V92.2786H82.2455V107.079L93.2715 107.081ZM131.45 107.081V104.375H123.45V92.2786H120.422V107.079L131.45 107.081ZM169.92 107.081V104.417H161.629V100.906H167.039V98.3256H161.629V94.9456H169.837V92.2816H158.599V107.082L169.92 107.081ZM203.504 107.292C204.655 107.29 205.792 107.037 206.835 106.552C207.861 106.098 208.772 105.419 209.498 104.565V104.565L207.513 102.578C207.027 103.164 206.422 103.641 205.738 103.978C205.068 104.302 204.332 104.469 203.587 104.464C202.959 104.47 202.336 104.352 201.753 104.116C201.171 103.881 200.641 103.532 200.194 103.09C199.764 102.657 199.424 102.143 199.194 101.578C198.948 100.978 198.823 100.334 198.828 99.6856C198.822 99.0305 198.943 98.3805 199.184 97.7716C199.409 97.205 199.742 96.6879 200.165 96.2496C200.59 95.8144 201.098 95.4692 201.658 95.2346C202.243 94.9864 202.872 94.8605 203.506 94.8646C204.275 94.8618 205.033 95.0389 205.72 95.3816C206.429 95.7374 207.05 96.2468 207.537 96.8726V96.8726L209.584 94.8216C208.865 93.9476 207.949 93.2559 206.911 92.8026C205.846 92.3101 204.686 92.0539 203.511 92.0516C202.462 92.0445 201.422 92.2457 200.451 92.6436C199.531 93.0163 198.691 93.5618 197.976 94.2506C197.271 94.94 196.71 95.763 196.325 96.6716C195.928 97.6241 195.722 98.6458 195.72 99.6781C195.718 100.71 195.921 101.733 196.315 102.687C196.695 103.592 197.252 104.412 197.954 105.098C198.669 105.786 199.51 106.332 200.429 106.705C201.406 107.101 202.451 107.3 203.504 107.291V107.292ZM243.562 107.081V94.9846H248.469V92.2776H235.604V94.9846H240.533V107.079L243.562 107.081ZM278.252 107.081V92.2806H275.224V107.081H278.252ZM313.131 107.314C314.177 107.321 315.214 107.12 316.18 106.722C317.096 106.35 317.929 105.801 318.632 105.106C319.335 104.411 319.893 103.584 320.274 102.673C320.674 101.726 320.88 100.708 320.88 99.6806C320.88 98.6529 320.674 97.6356 320.274 96.6886C319.893 95.777 319.335 94.9499 318.632 94.255C317.929 93.5601 317.096 93.0111 316.18 92.6396C314.232 91.8509 312.052 91.8509 310.103 92.6396C309.188 93.0116 308.355 93.5608 307.653 94.2557C306.951 94.9506 306.392 95.7774 306.01 96.6886C305.611 97.6354 305.404 98.6528 305.404 99.6806C305.404 100.708 305.611 101.726 306.01 102.673C306.392 103.584 306.951 104.411 307.653 105.105C308.355 105.8 309.188 106.35 310.103 106.722C311.063 107.118 312.093 107.318 313.131 107.312V107.314ZM313.131 104.502C312.503 104.507 311.881 104.381 311.304 104.132C310.754 103.895 310.257 103.55 309.842 103.117C309.423 102.673 309.092 102.153 308.87 101.584C308.397 100.355 308.397 98.9949 308.87 97.7666C309.094 97.2018 309.424 96.6852 309.842 96.2446C310.257 95.8114 310.754 95.4662 311.304 95.2296C311.881 94.9801 312.503 94.854 313.131 94.8596C313.763 94.8548 314.388 94.9808 314.968 95.2296C315.523 95.4646 316.024 95.8099 316.441 96.2446C316.859 96.6855 317.189 97.2021 317.412 97.7666C317.887 98.9948 317.887 100.355 317.412 101.584C317.19 102.152 316.861 102.673 316.441 103.117C316.024 103.551 315.523 103.897 314.968 104.132C314.388 104.38 313.763 104.505 313.131 104.5V104.502ZM350.87 107.082V97.1816L358.326 107.082H360.999V92.2816H358.159V101.86L350.891 92.2816H348.008V107.082H350.87Z" fill="white"/>
</svg>
