<?xml version="1.0" encoding="UTF-8"?>
<svg width="394px" height="139px" viewBox="0 0 394 139" version="1.1" xmlns="http://www.w3.org/2000/svg" xmlns:xlink="http://www.w3.org/1999/xlink">
    <title>syslogo</title>
    <g id="Page-1" stroke="none" stroke-width="1" fill="none" fill-rule="evenodd">
        <g id="syslogo" fill="#FFFFFF" fill-rule="nonzero">
            <g id="Group-26" transform="translate(1.036180, 112.490140)">
                <g id="Group" transform="translate(196.513460, 0.140140)">
                    <path d="M4.5188,9.20062 L4.5188,2.95724 C4.5188,2.71414 4.43586,2.50536 4.25568,2.32804 C4.0755,2.15072 3.86958,2.06206 3.62934,2.06206 L0.95238,2.06206 L0.95238,0.27742 L9.87272,0.27742 L9.87272,2.06206 L7.19004,2.06206 C6.94408,2.06206 6.72672,2.15072 6.55226,2.32804 C6.38352,2.50536 6.30058,2.71414 6.30058,2.95724 L6.30058,9.20062 L4.5188,9.20062 Z" id="Path"></path>
                    <path d="M11.65736,9.20062 L11.65736,0.28028 L22.35948,0.28028 C22.8514,0.28028 23.26896,0.46046 23.61216,0.81224 C23.96966,1.16688 24.14412,1.58444 24.14412,2.06492 L24.14412,9.20062 L22.36234,9.20062 L22.36234,2.95724 C22.36234,2.71414 22.27368,2.50536 22.0935,2.32804 C21.91904,2.15072 21.7074,2.06206 21.46716,2.06206 L19.68538,2.06206 C19.4337,2.06206 19.22206,2.15072 19.04188,2.32804 C18.87314,2.50536 18.7902,2.71414 18.7902,2.95724 L18.7902,9.20062 L17.00842,9.20062 L17.00842,2.95724 C17.00842,2.71414 16.91976,2.50536 16.73958,2.32804 C16.56512,2.15072 16.35348,2.06206 16.11324,2.06206 L14.33146,2.06206 C14.07978,2.06206 13.86814,2.15072 13.68796,2.32804 C13.51922,2.50536 13.43628,2.71414 13.43628,2.95724 L13.43628,9.20062 L11.65736,9.20062 Z" id="Path"></path>
                </g>
                <g id="Group-24">
                    <path d="M1.68576264e-13,25.19088 L1.68576264e-13,18.96752 L19.0762,18.96752 C19.57384,18.96752 19.9914,18.8188 20.33746,18.52422 C20.68352,18.2039 20.85798,17.80636 20.85798,17.33732 C20.85798,16.89402 20.68352,16.51078 20.33746,16.19046 C19.96852,15.87014 19.54524,15.70998 19.0762,15.70998 L6.03746,15.70998 C4.3329,15.70998 2.90004,15.17802 1.74174,14.1141 C0.58058,13.0273 1.68576264e-13,11.73172 1.68576264e-13,10.22736 L1.68576264e-13,5.48548 C1.68576264e-13,3.98112 0.58058,2.69412 1.74174,1.6302 C2.92578,0.54626 4.35578,0.00286 6.03746,0.00286 L27.71054,0.00286 L27.71054,6.22622 L8.62862,6.22622 C8.1367,6.22622 7.70198,6.38924 7.33304,6.70956 C7.01558,7.02988 6.85256,7.41312 6.85256,7.85642 C6.85256,8.32546 7.01558,8.72014 7.33304,9.04046 C7.6791,9.3379 8.1081,9.48376 8.62862,9.48376 L21.67308,9.48376 C23.34904,9.48376 24.7676,10.02716 25.92876,11.11396 C27.1128,12.20076 27.71054,13.4849 27.71054,14.96924 L27.71054,19.70826 C27.71054,21.24122 27.1128,22.5368 25.92876,23.59786 C24.72184,24.65892 23.29756,25.19088 21.67308,25.19088 L1.68576264e-13,25.19088 Z" id="Path"></path>
                    <path d="M41.75028,25.19088 L41.75028,15.70998 L37.34302,15.70998 C35.63846,15.70998 34.20274,15.17802 33.04158,14.1141 C31.88614,13.0273 31.30556,11.73172 31.30556,10.22736 L31.30556,0.00286 L38.15812,0.00286 L38.15812,7.85642 C38.15812,8.32546 38.31542,8.72014 38.6386,9.04046 C38.98466,9.3379 39.41366,9.48376 39.93418,9.48376 L50.3789,9.48376 C50.87654,9.48376 51.2941,9.3379 51.64016,9.04046 C51.9805,8.72014 52.15496,8.32546 52.15496,7.85642 L52.15496,0.00286 L59.00752,0.00286 L59.00752,10.22736 C59.00752,11.75746 58.4155,13.05304 57.23146,14.1141 C56.01882,15.17802 54.60026,15.70998 52.97006,15.70998 L48.5628,15.70998 L48.5628,25.19088 L41.75028,25.19088 Z" id="Path"></path>
                    <path d="M62.60826,25.19088 L62.60826,18.96752 L81.68446,18.96752 C82.1821,18.96752 82.59966,18.8188 82.94572,18.52422 C83.28606,18.2039 83.46052,17.80636 83.46052,17.33732 C83.46052,16.89402 83.28606,16.51078 82.94572,16.19046 C82.57106,15.87014 82.1535,15.70998 81.68446,15.70998 L68.64572,15.70998 C66.94116,15.70998 65.50544,15.17802 64.34428,14.1141 C63.18884,13.0273 62.60826,11.73172 62.60826,10.22736 L62.60826,5.48548 C62.60826,3.98112 63.18884,2.69412 64.34428,1.6302 C65.53404,0.54626 66.96404,0.00286 68.64572,0.00286 L90.31308,0.00286 L90.31308,6.22622 L71.23688,6.22622 C70.73924,6.22622 70.31024,6.38924 69.9413,6.70956 C69.61812,7.02988 69.46082,7.41312 69.46082,7.85642 C69.46082,8.32546 69.61812,8.72014 69.9413,9.04046 C70.28736,9.3379 70.71636,9.48376 71.23688,9.48376 L84.27562,9.48376 C85.9573,9.48376 87.37586,10.02716 88.53702,11.11396 C89.72106,12.20076 90.31308,13.4849 90.31308,14.96924 L90.31308,19.70826 C90.31308,21.24122 89.72106,22.5368 88.53702,23.59786 C87.32438,24.65892 85.90582,25.19088 84.27562,25.19088 L62.60826,25.19088 Z" id="Path"></path>
                    <path d="M104.35568,25.19088 L104.35568,7.85356 C104.35568,7.41026 104.17264,7.02702 103.79798,6.7067 C103.45764,6.38638 103.0315,6.22336 102.54244,6.22336 L93.91096,6.22336 L93.91096,1.84741111e-14 L121.61864,1.84741111e-14 L121.61864,6.22336 L112.98716,6.22336 C112.46664,6.22336 112.03764,6.38638 111.69158,6.7067 C111.34552,7.02702 111.17106,7.41026 111.17106,7.85356 L111.17106,25.19088 L104.35568,25.19088 Z" id="Path"></path>
                    <path d="M131.25398,25.19088 C129.54942,25.19088 128.1137,24.65892 126.95254,23.59786 C125.7971,22.51106 125.21652,21.21548 125.21652,19.70826 L125.21652,1.84741111e-14 L152.9242,1.84741111e-14 L152.9242,6.22336 L133.848,6.22336 C133.35036,6.22336 132.92136,6.38638 132.55242,6.7067 C132.22924,7.02702 132.07194,7.41026 132.07194,7.85356 C132.07194,8.3226 132.22924,8.71728 132.55242,9.0376 C132.89848,9.33504 133.32748,9.4809 133.848,9.4809 L152.9242,9.4809 L152.9242,15.70712 L133.848,15.70712 C133.35036,15.70712 132.92136,15.86728 132.55242,16.1876 C132.22924,16.50792 132.07194,16.89116 132.07194,17.33446 C132.07194,17.8035 132.22924,18.20104 132.55242,18.52136 C132.89848,18.8188 133.32748,18.96466 133.848,18.96466 L152.9242,18.96466 L152.9242,25.18802 L131.25398,25.18802 L131.25398,25.19088 Z" id="Path"></path>
                    <path d="M156.51922,25.19088 L156.51922,1.84741111e-14 L188.63702,1.84741111e-14 C190.2901,1.84741111e-14 191.69722,0.5434 192.86124,1.62734 C194.06816,2.717 194.67734,4.00114 194.67734,5.48262 L194.67734,25.19088 L187.82478,25.19088 L187.82478,7.85356 C187.82478,7.41026 187.63602,7.02702 187.26708,6.7067 C186.92102,6.38638 186.5006,6.22336 186.01154,6.22336 L180.8235,6.22336 C180.30298,6.22336 179.87398,6.38638 179.52792,6.7067 C179.18186,7.02702 179.0074,7.41026 179.0074,7.85356 L179.0074,25.19088 L172.15484,25.19088 L172.15484,7.85356 C172.15484,7.41026 171.98038,7.02702 171.64004,6.7067 C171.26538,6.38638 170.84782,6.22336 170.37878,6.22336 L165.15642,6.22336 C164.65878,6.22336 164.22978,6.38638 163.86084,6.7067 C163.53766,7.02702 163.38036,7.41026 163.38036,7.85356 L163.38036,25.19088 L156.51922,25.19088 Z" id="Path"></path>
                </g>
            </g>
            <g id="Group-30" transform="translate(1.000000, 79.000000)">
                <path d="M6.03746,25.19088 C4.3329,25.19088 2.90004,24.65892 1.74174,23.59786 C0.58058,22.51106 1.77635684e-14,21.21548 1.77635684e-14,19.70826 L1.77635684e-14,5.15143483e-14 L27.71054,5.15143483e-14 L27.71054,6.22336 L8.63148,6.22336 C8.1367,6.22336 7.70484,6.38638 7.3359,6.7067 C7.01558,7.02702 6.85256,7.41026 6.85256,7.85356 C6.85256,8.3226 7.01558,8.71728 7.3359,9.0376 C7.68196,9.33504 8.11096,9.4809 8.63148,9.4809 L27.71054,9.4809 L27.71054,15.70712 L8.63148,15.70712 C8.1367,15.70712 7.70484,15.86728 7.3359,16.1876 C7.01558,16.50792 6.85256,16.89116 6.85256,17.33446 C6.85256,17.8035 7.01558,18.20104 7.3359,18.52136 C7.68196,18.8188 8.11096,18.96466 8.63148,18.96466 L27.71054,18.96466 L27.71054,25.18802 L6.03746,25.18802 L6.03746,25.19088 Z" id="Path"></path>
                <path d="M31.3027,25.19088 L31.3027,5.15143483e-14 L52.97578,5.15143483e-14 C54.6546,5.15143483e-14 56.07316,0.5434 57.23432,1.62734 C58.42122,2.717 59.01324,4.00114 59.01324,5.48262 L59.01324,25.19088 L52.16068,25.19088 L52.16068,7.85356 C52.16068,7.41026 51.98622,7.02702 51.64016,6.7067 C51.27122,6.38638 50.8508,6.22336 50.38176,6.22336 L39.93418,6.22336 C39.4394,6.22336 39.00754,6.38638 38.6386,6.7067 C38.31828,7.02702 38.15526,7.41026 38.15526,7.85356 L38.15526,25.19088 L31.3027,25.19088 Z" id="Path"></path>
                <path d="M73.05298,25.19088 L73.05298,7.85356 C73.05298,7.41026 72.86708,7.02702 72.49814,6.7067 C72.15208,6.38638 71.73166,6.22336 71.23974,6.22336 L62.60826,6.22336 L62.60826,5.15143483e-14 L90.3188,5.15143483e-14 L90.3188,6.22336 L81.68732,6.22336 C81.1668,6.22336 80.73494,6.38638 80.38888,6.7067 C80.04282,7.02702 79.87122,7.41026 79.87122,7.85356 L79.87122,25.19088 L73.05298,25.19088 Z" id="Path"></path>
                <path d="M99.94842,25.19088 C98.24386,25.19088 96.811,24.65892 95.6527,23.59786 C94.49154,22.51106 93.91096,21.21548 93.91096,19.70826 L93.91096,5.15143483e-14 L121.6215,5.15143483e-14 L121.6215,6.22336 L102.54244,6.22336 C102.04766,6.22336 101.6158,6.38638 101.24686,6.7067 C100.92654,7.02702 100.76352,7.41026 100.76352,7.85356 C100.76352,8.3226 100.92654,8.71728 101.24686,9.0376 C101.59292,9.33504 102.02192,9.4809 102.54244,9.4809 L121.6215,9.4809 L121.6215,15.70712 L102.54244,15.70712 C102.04766,15.70712 101.6158,15.86728 101.24686,16.1876 C100.92654,16.50792 100.76352,16.89116 100.76352,17.33446 C100.76352,17.8035 100.92654,18.20104 101.24686,18.52136 C101.59292,18.8188 102.02192,18.96466 102.54244,18.96466 L121.6215,18.96466 L121.6215,25.18802 L99.94842,25.18802 L99.94842,25.19088 Z" id="Path"></path>
                <path d="M125.21366,25.19088 L125.21366,5.15143483e-14 L146.88674,5.15143483e-14 C148.56556,5.15143483e-14 149.98412,0.5434 151.14528,1.62734 C152.33218,2.717 152.9242,4.00114 152.9242,5.48262 L152.9242,10.37322 C152.8241,11.78034 152.25782,12.52108 151.21964,12.59544 C152.25782,12.69268 152.82696,13.43342 152.9242,14.8148 L152.9242,25.18802 L146.07164,25.18802 L146.07164,17.33446 C146.07164,16.89116 145.89718,16.50792 145.55112,16.1876 C145.18218,15.86728 144.76176,15.70712 144.29272,15.70712 L133.84514,15.70712 C133.35036,15.70712 132.9185,15.86728 132.54956,16.1876 C132.22924,16.50792 132.06622,16.89116 132.06622,17.33446 L132.06622,25.18802 L125.21366,25.18802 L125.21366,25.19088 Z M144.29272,9.48376 C144.78464,9.48376 145.20506,9.3379 145.55112,9.04046 C145.89718,8.72014 146.07164,8.32546 146.07164,7.85642 C146.07164,7.41312 145.89718,7.02988 145.55112,6.70956 C145.18218,6.38924 144.76176,6.22622 144.29272,6.22622 L133.84514,6.22622 C133.35036,6.22622 132.9185,6.38924 132.54956,6.70956 C132.22924,7.02988 132.06622,7.41312 132.06622,7.85642 C132.06622,8.32546 132.22924,8.72014 132.54956,9.04046 C132.89562,9.3379 133.32462,9.48376 133.84514,9.48376 L144.29272,9.48376 Z" id="Shape"></path>
                <path d="M166.96394,25.19088 L166.96394,7.85356 C166.96394,7.41026 166.77804,7.02702 166.4091,6.7067 C166.06304,6.38638 165.64262,6.22336 165.1507,6.22336 L156.51922,6.22336 L156.51922,5.15143483e-14 L184.22976,5.15143483e-14 L184.22976,6.22336 L175.59828,6.22336 C175.07776,6.22336 174.6459,6.38638 174.29984,6.7067 C173.95378,7.02702 173.78218,7.41026 173.78218,7.85356 L173.78218,25.19088 L166.96394,25.19088 Z" id="Path"></path>
                <path d="M187.82192,25.19088 L187.82192,5.48262 C187.82192,3.97826 188.4025,2.69126 189.56366,1.62734 C190.7477,0.5434 192.18056,5.86197757e-14 193.85938,5.86197757e-14 L209.49214,5.86197757e-14 C211.17096,5.86197757e-14 212.58952,0.5434 213.75068,1.62734 C214.93758,2.717 215.5296,4.00114 215.5296,5.48262 L215.5296,25.19088 L208.67704,25.19088 L208.67704,15.70998 L194.67448,15.70998 L194.67448,25.19088 L187.82192,25.19088 Z M208.67704,9.48376 L208.67704,7.85642 C208.67704,7.41312 208.50258,7.02988 208.15652,6.70956 C207.78758,6.38924 207.36716,6.22622 206.89812,6.22622 L196.45054,6.22622 C195.95576,6.22622 195.5239,6.38924 195.15496,6.70956 C194.83464,7.02988 194.67162,7.41312 194.67162,7.85642 L194.67162,9.48376 L208.67704,9.48376 Z" id="Shape"></path>
                <polygon id="Path" points="219.12462 25.19088 219.12462 5.15143483e-14 225.97718 5.15143483e-14 225.97718 25.19088"></polygon>
                <path d="M229.5722,25.19088 L229.5722,5.15143483e-14 L251.24242,5.15143483e-14 C252.92124,5.15143483e-14 254.34266,0.5434 255.50382,1.62734 C256.69072,2.717 257.28274,4.00114 257.28274,5.48262 L257.28274,25.19088 L250.43018,25.19088 L250.43018,7.85356 C250.43018,7.41026 250.25572,7.02702 249.91252,6.7067 C249.54072,6.38638 249.12316,6.22336 248.65412,6.22336 L238.20654,6.22336 C237.71176,6.22336 237.2799,6.38638 236.9081,6.7067 C236.58778,7.02702 236.42762,7.41026 236.42762,7.85356 L236.42762,25.19088 L229.5722,25.19088 Z" id="Path"></path>
                <path d="M260.8749,25.19088 L260.8749,5.15143483e-14 L292.9927,5.15143483e-14 C294.64864,5.15143483e-14 296.05576,0.5434 297.21692,1.62734 C298.4267,2.717 299.03016,4.00114 299.03016,5.48262 L299.03016,25.19088 L292.1776,25.19088 L292.1776,7.85356 C292.1776,7.41026 291.9917,7.02702 291.62276,6.7067 C291.2767,6.38638 290.85628,6.22336 290.36436,6.22336 L285.17918,6.22336 C284.65866,6.22336 284.2268,6.38638 283.8836,6.7067 C283.53754,7.02702 283.36308,7.41026 283.36308,7.85356 L283.36308,25.19088 L276.51052,25.19088 L276.51052,7.85356 C276.51052,7.41026 276.33892,7.02702 275.99286,6.7067 C275.62392,6.38638 275.2035,6.22336 274.73446,6.22336 L269.50638,6.22336 C269.0116,6.22336 268.57974,6.38638 268.20794,6.7067 C267.88762,7.02702 267.72746,7.41026 267.72746,7.85356 L267.72746,25.19088 L260.8749,25.19088 Z" id="Path"></path>
                <path d="M308.62832,25.19088 C306.92376,25.19088 305.4909,24.65892 304.3326,23.59786 C303.17144,22.51106 302.59086,21.21548 302.59086,19.70826 L302.59086,5.15143483e-14 L330.3014,5.15143483e-14 L330.3014,6.22336 L311.22234,6.22336 C310.72756,6.22336 310.2957,6.38638 309.9239,6.7067 C309.60358,7.02702 309.44342,7.41026 309.44342,7.85356 C309.44342,8.3226 309.60358,8.71728 309.9239,9.0376 C310.26996,9.33504 310.70182,9.4809 311.22234,9.4809 L330.3014,9.4809 L330.3014,15.70712 L311.22234,15.70712 C310.72756,15.70712 310.2957,15.86728 309.9239,16.1876 C309.60358,16.50792 309.44342,16.89116 309.44342,17.33446 C309.44342,17.8035 309.60358,18.20104 309.9239,18.52136 C310.26996,18.8188 310.70182,18.96466 311.22234,18.96466 L330.3014,18.96466 L330.3014,25.18802 L308.62832,25.18802 L308.62832,25.19088 Z" id="Path"></path>
                <path d="M333.8907,25.19088 L333.8907,5.15143483e-14 L355.56378,5.15143483e-14 C357.2426,5.15143483e-14 358.66402,0.5434 359.82232,1.62734 C361.00922,2.717 361.60124,4.00114 361.60124,5.48262 L361.60124,25.19088 L354.74868,25.19088 L354.74868,7.85356 C354.74868,7.41026 354.57422,7.02702 354.22816,6.7067 C353.85922,6.38638 353.44166,6.22336 352.97262,6.22336 L342.52504,6.22336 C342.03026,6.22336 341.60126,6.38638 341.2266,6.7067 C340.90914,7.02702 340.74612,7.41026 340.74612,7.85356 L340.74612,25.19088 L333.8907,25.19088 Z" id="Path"></path>
                <path d="M375.64384,25.19088 L375.64384,7.85356 C375.64384,7.41026 375.45794,7.02702 375.089,6.7067 C374.74294,6.38638 374.32252,6.22336 373.8306,6.22336 L365.19626,6.22336 L365.19626,5.15143483e-14 L392.9068,5.15143483e-14 L392.9068,6.22336 L384.27532,6.22336 C383.7548,6.22336 383.32294,6.38638 382.97688,6.7067 C382.63368,7.02702 382.45922,7.41026 382.45922,7.85356 L382.45922,25.19088 L375.64384,25.19088 Z" id="Path"></path>
            </g>
            <path d="M32.0226973,60.3162684 C12.8266355,60.309765 -7.38964445e-13,46.7060536 -7.38964445e-13,30.2118771 L-7.38964445e-13,30.2118771 C-7.38964445e-13,13.7177054 12.855898,-0.042073554 31.9934319,9.669608e-05 L212.840867,9.669608e-05 C231.978403,-0.0420783359 244.834299,13.7177054 244.834299,30.2118771 L244.834299,30.2118771 C244.834299,46.7060536 232.007663,60.309765 212.811607,60.3162684 L32.0226973,60.3162684 Z M32.0812184,7.41981146 C16.8843396,7.44907681 7.55617252,17.6063341 7.55617252,30.1728614 L7.55617252,30.1728614 C7.55617252,42.736137 16.8258146,52.9779386 32.0812184,52.9228871 L212.753081,52.9228871 C228.008486,52.9746869 237.28138,42.736137 237.28138,30.1728614 L237.28138,30.1728614 C237.28138,17.6095858 227.953212,7.45232373 212.756332,7.42305838 L32.0812184,7.41981146 Z M222.47141,18.0257611 C223.853242,18.0257611 224.53928,18.4939589 224.53928,19.4205994 C224.53928,20.0578667 224.14261,20.5390666 223.482586,20.7048892 L224.565289,22.8670439 L223.25499,22.8670439 L222.32835,20.8837139 L221.75286,20.8837139 L221.75286,22.8670439 L220.572615,22.8670439 L220.572615,18.0257611 L222.47141,18.0257611 Z M222.364114,16.1334692 C219.951601,16.1334692 217.99428,18.0907904 217.99428,20.5033026 C217.99428,22.9158147 219.951601,24.8731359 222.364114,24.8731359 C224.77663,24.8731359 226.733952,22.9158147 226.733952,20.5033026 C226.733952,18.0907904 224.77663,16.1334692 222.364114,16.1334692 Z M225.898349,20.5065543 C225.898349,22.457372 224.314936,24.0407901 222.364114,24.0407901 C220.413296,24.0407901 218.829882,22.457372 218.829882,20.5065543 C218.829882,18.5557365 220.413296,16.9723184 222.364114,16.9723184 C224.314936,16.9723184 225.898349,18.5524848 225.898349,20.5065543 Z M221.75286,20.1749138 L222.32835,20.1749138 C223.001381,20.1749138 223.326518,19.9700802 223.326518,19.4888756 C223.326518,18.9849138 222.978624,18.7670735 222.269824,18.7670735 L221.75286,18.7670735 L221.75286,20.1749138 Z M122.989392,32.0066321 C122.976386,30.3516861 123.012154,29.2462257 123.555127,28.3033267 C124.22166,27.1393404 125.447424,26.5866078 126.559387,26.5801044 L126.55604,26.5801044 C127.668009,26.5866078 128.893773,27.1393404 129.560305,28.3033267 C130.103283,29.2494726 130.12604,30.3549378 130.113038,32.0098838 L122.989392,32.0066321 Z M130.083868,37.699771 C130.083868,37.699771 130.090371,37.7843105 130.090371,38.8442518 C130.090371,42.2972046 127.817668,43.0645258 126.556136,43.0645258 C125.294608,43.0645258 122.982889,42.2972046 122.982889,38.8442518 C122.982889,37.8103194 122.989392,34.945868 122.989392,34.945868 C122.989392,34.945868 139.073892,34.9523714 139.073892,34.9425206 C139.073892,29.0868108 133.419769,24.2357729 126.474853,24.2357729 C119.529936,24.2357729 113.901827,28.9827658 113.901827,34.8384756 C113.901827,40.6941854 119.529936,45.4379266 126.474853,45.4379266 C132.236272,45.4379266 137.103564,42.1507965 138.589441,37.6931767 L130.083868,37.699771 Z M156.9499,24.5512505 C160.14274,24.4602123 166.619459,26.5508439 166.574178,34.0257309 C166.567436,35.3522881 166.570592,44.3000448 166.570592,44.3000448 L158.087782,44.3000448 C158.087782,44.3000448 158.087782,33.079585 158.087782,31.8993354 C158.087782,30.2541445 156.514119,28.4236303 154.186142,28.4236303 C151.861416,28.4236303 150.13169,30.2541445 150.13169,31.8993354 C150.13169,32.7056771 150.141445,44.3000448 150.141445,44.3000448 L141.665138,44.3000448 L141.671642,25.4193651 L150.144702,25.4128617 C150.144702,25.4128617 150.134947,26.9312456 150.144702,27.3994434 C151.776886,25.842039 154.130877,24.6325336 156.949809,24.5512457 L156.9499,24.5512505 Z M87.5592619,24.5512505 C90.7521021,24.4602123 97.2288255,26.5508439 97.1835451,34.0257309 C97.176803,35.3522881 97.179959,44.3000448 97.179959,44.3000448 L88.6971437,44.3000448 C88.6971437,44.3000448 88.6971437,33.079585 88.6971437,31.8993354 C88.6971437,30.2541445 87.1234855,28.4236303 84.7955081,28.4236303 C82.4707825,28.4236303 80.7410568,30.2541445 80.7410568,31.8993354 C80.7410568,32.7056771 80.7508119,44.3000448 80.7508119,44.3000448 L72.2745047,44.3000448 L72.2711574,25.4193651 L80.753968,25.4128617 C80.753968,25.4128617 80.7442128,26.9312456 80.753968,27.3994434 C82.3861568,25.842039 84.7368913,24.6325336 87.5590754,24.5512457 L87.5592619,24.5512505 Z M184.976667,15.9123772 L193.404208,15.9123772 L193.404208,44.3065482 L184.96366,44.3065482 C184.96366,44.3065482 184.960313,43.3896629 184.960313,43.2140899 C181.692693,45.265701 178.005646,45.2624493 175.134691,43.9228852 C174.364113,43.5652359 169.295235,41.1332135 169.295235,34.562205 C169.295235,29.5778614 173.996714,24.1350752 180.151547,24.6748058 C182.177144,24.8536304 183.617502,25.5916911 184.983074,26.3590124 C184.976571,21.9891743 184.976571,15.9123772 184.976571,15.9123772 L184.976667,15.9123772 Z M185.038444,34.770295 C185.038444,34.770295 185.038444,32.4032972 185.038444,31.3953736 C185.038444,28.475648 183.022597,27.7310887 181.69604,27.7310887 C180.33697,27.7310887 178.347132,28.475648 178.347132,31.3953736 C178.347132,32.3642815 178.35048,34.7605399 178.35048,34.7605399 C178.35048,34.7605399 178.347132,37.1145261 178.347132,38.119198 C178.347132,41.0356719 180.33697,41.7997462 181.692788,41.7997462 C183.022597,41.7997462 185.041696,41.0356719 185.041696,38.119198 C185.041696,36.9064409 185.038349,34.770295 185.038349,34.770295 L185.038444,34.770295 Z M212.093051,34.7150208 C212.093051,34.7150208 212.089704,37.5697171 212.089704,38.7141979 C212.089704,41.7249617 210.311207,42.9669842 208.600992,42.9669842 C206.88752,42.9669842 205.10252,41.7249617 205.10252,38.7141979 C205.10252,37.5697171 205.105868,34.643488 205.105868,34.643488 C205.105868,34.643488 205.112371,31.8505694 205.112371,30.7060885 C205.112371,27.7083267 206.900623,26.4760594 208.601088,26.4760594 C210.3048,26.4760594 212.0898,27.7083267 212.0898,30.7060885 C212.0898,31.8505694 212.086452,33.967205 212.096303,34.7247759 L212.093051,34.7150208 Z M208.662861,24.1350752 C201.769967,24.1350752 196.184124,28.8820729 196.184124,34.7377779 C196.184124,40.5934877 201.773218,45.3404807 208.662861,45.3404807 C215.555754,45.3404807 221.141601,40.5934877 221.141601,34.7377779 C221.141601,28.8820729 215.555754,24.1350752 208.662861,24.1350752 Z M59.0122798,21.709561 L59.0122798,15.9058738 L67.56987,15.9058738 L67.56987,21.709561 L59.0122798,21.709561 Z M59.03179,44.3066439 L59.03179,25.4226168 L67.5698748,25.4259641 L67.5698748,44.3066439 L59.03179,44.3066439 Z M101.868526,44.3065482 L101.871874,25.4616325 L97.2289259,25.4616325 L97.2289259,22.6589587 L101.875126,22.6556113 L101.868622,18.8320072 L110.41321,18.8320072 L110.41321,22.6523596 L115.036653,22.6523596 L115.036653,25.4615368 L110.41321,25.4615368 L110.419714,44.3065482 L101.868526,44.3065482 Z M24.2844512,44.3065482 L24.287703,15.9123772 L33.1346658,15.9123772 L45.3728044,35.7131892 L45.3663009,15.9123772 L54.1449881,15.9123772 L54.1449881,44.3065482 L45.379303,44.3065482 L33.0761399,24.5057314 L33.0761399,44.3065482 L24.2844512,44.3065482 Z" id="path29"></path>
        </g>
    </g>
</svg>