<svg width="65" height="64" viewBox="0 0 65 64" fill="none" xmlns="http://www.w3.org/2000/svg">
<path d="M64.5 32C64.5 49.6731 50.1731 64 32.5 64C14.8269 64 0.5 49.6731 0.5 32C0.5 14.3269 14.8269 0 32.5 0C50.1731 0 64.5 14.3269 64.5 32ZM13.4409 32C13.4409 42.5261 21.9739 51.0591 32.5 51.0591C43.0261 51.0591 51.5591 42.5261 51.5591 32C51.5591 21.4739 43.0261 12.9409 32.5 12.9409C21.9739 12.9409 13.4409 21.4739 13.4409 32Z" fill="#888888"/>
<path d="M0.5 32C0.499999 38.329 2.37677 44.5159 5.89297 49.7782C9.40918 55.0406 14.4069 59.1421 20.2541 61.5641C26.1014 63.9861 32.5355 64.6199 38.7429 63.3851C44.9503 62.1504 50.6521 59.1027 55.1274 54.6274C59.6027 50.1521 62.6504 44.4503 63.8851 38.2429C65.1199 32.0355 64.4861 25.6014 62.0641 19.7541C59.6421 13.9069 55.5406 8.90918 50.2782 5.39297C45.0159 1.87677 38.829 4.77826e-07 32.5 0L32.5 12.9409C36.2695 12.9409 39.9544 14.0587 43.0887 16.1529C46.2229 18.2472 48.6658 21.2238 50.1083 24.7064C51.5509 28.189 51.9283 32.0211 51.1929 35.7183C50.4575 39.4154 48.6423 42.8114 45.9768 45.4768C43.3114 48.1423 39.9154 49.9575 36.2182 50.6929C32.5211 51.4283 28.689 51.0509 25.2064 49.6083C21.7238 48.1658 18.7472 45.7229 16.6529 42.5887C14.5587 39.4544 13.4409 35.7695 13.4409 32L0.5 32Z" fill="#FF0000"/>
</svg>
