<svg width="65" height="64" viewBox="0 0 65 64" fill="none" xmlns="http://www.w3.org/2000/svg">
<path d="M64.5 32C64.5 49.6731 50.1731 64 32.5 64C14.8269 64 0.5 49.6731 0.5 32C0.5 14.3269 14.8269 0 32.5 0C50.1731 0 64.5 14.3269 64.5 32ZM13.4409 32C13.4409 42.5261 21.9739 51.0591 32.5 51.0591C43.0261 51.0591 51.5591 42.5261 51.5591 32C51.5591 21.4739 43.0261 12.9409 32.5 12.9409C21.9739 12.9409 13.4409 21.4739 13.4409 32Z" fill="#888888"/>
<path d="M64.5 32C64.5 27.7977 63.6723 23.6365 62.0641 19.7541C60.456 15.8717 58.0989 12.3441 55.1274 9.37258C52.1559 6.40111 48.6283 4.04401 44.7459 2.43585C40.8634 0.827704 36.7023 -1.83688e-07 32.5 0L32.5 12.9409C35.0029 12.9409 37.4812 13.4339 39.7936 14.3917C42.106 15.3495 44.207 16.7534 45.9768 18.5232C47.7466 20.293 49.1505 22.394 50.1083 24.7064C51.0661 27.0187 51.5591 29.4971 51.5591 32H64.5Z" fill="#FF0000"/>
</svg>
