<svg width="65" height="64" viewBox="0 0 65 64" fill="none" xmlns="http://www.w3.org/2000/svg">
<path d="M64.5 32C64.5 49.6731 50.1731 64 32.5 64C14.8269 64 0.5 49.6731 0.5 32C0.5 14.3269 14.8269 0 32.5 0C50.1731 0 64.5 14.3269 64.5 32ZM13.4409 32C13.4409 42.5261 21.9739 51.0591 32.5 51.0591C43.0261 51.0591 51.5591 42.5261 51.5591 32C51.5591 21.4739 43.0261 12.9409 32.5 12.9409C21.9739 12.9409 13.4409 21.4739 13.4409 32Z" fill="#888888"/>
<path d="M64.5 32C64.5 49.6731 50.1731 64 32.5 64C14.8269 64 0.5 49.6731 0.5 32C0.5 14.3269 14.8269 0 32.5 0C50.1731 0 64.5 14.3269 64.5 32ZM13.4409 32C13.4409 42.5261 21.9739 51.0591 32.5 51.0591C43.0261 51.0591 51.5591 42.5261 51.5591 32C51.5591 21.4739 43.0261 12.9409 32.5 12.9409C21.9739 12.9409 13.4409 21.4739 13.4409 32Z" fill="#FF0000"/>
</svg>
