<svg width="569" height="225" viewBox="0 0 569 225" fill="none" xmlns="http://www.w3.org/2000/svg">
<g id="mainlogo">
<path id="Subtract (Stroke)" d="M539.282 2.46777L539.716 2.90234L550.46 13.5801L553.597 16.6943L553.604 16.7031L568.19 31.2881L558.266 54.2471L541.707 56.5732L542.13 57.0146L542.131 57.0166C542.438 57.3372 542.746 57.6599 543.051 57.9795C543.356 58.2994 543.659 58.6164 543.96 58.9307L544.538 59.5332L545.148 60.1709L545.604 60.6475L546.008 61.0693L546.014 61.0752L546.485 61.5684L546.501 61.585L546.553 61.6377L547.227 62.3428C547.399 62.523 547.566 62.6969 547.723 62.8613C547.868 63.013 548.004 63.1563 548.134 63.292L548.403 63.5723L548.571 63.749L548.601 63.7783L548.652 63.832L548.988 64.1826L548.99 64.1846L549.21 64.4141L549.221 64.4248L549.231 64.4365L549.373 64.5859L549.409 64.6221L549.804 65.0361L549.81 65.043L552.972 68.3359L531.055 121.511L465.715 130.694L460.758 125.736C460.191 125.17 459.556 124.537 458.884 123.865L449.508 114.497L449.505 114.495L435.045 100.035L444.506 76.0176L459.119 73.9629L458.152 72.8936L458.139 72.8799L458.022 72.751L456.931 71.5449L456.918 71.5322L456.801 71.4033L454.127 68.4482L454.121 68.4414L454.115 68.4355L453.495 67.7461L453.434 67.6846L453.316 67.5547L450.653 64.6113L446.043 65.2598L416.2 137.455L390.918 141.005L390.919 141.006L346.746 147.216L332.744 133.213L319.05 115.443L303.737 153.061L269.591 157.857L268.934 157.201L268.614 157.995L204.608 166.993L190.926 153.311L190.859 153.245L190.796 153.178L184.1 146.114L183.56 145.545L182.167 144.078L182.165 144.076L179.079 140.82L178.999 140.74L178.937 140.674L176.948 138.579L173.981 135.612L148.038 139.259L132.53 176.925L97.2363 181.884L96.2041 182.917V182.182L96.0107 182.651L30.6689 191.835L26.1602 187.326L24.1631 185.331C23.3154 184.484 22.3977 183.567 21.4766 182.646L18.7871 179.959C18.0362 179.208 17.3329 178.505 16.7207 177.894L15.5908 176.766L15.5879 176.764C15.2361 176.412 14.9538 176.129 14.7588 175.934L14.4756 175.65C14.469 175.644 14.4633 175.639 14.46 175.636L0 161.177L9.46094 137.158L24.0742 135.104L22.9873 133.903L22.9766 133.892L21.8955 132.696L21.873 132.675L21.7559 132.545L19.082 129.59L19.0752 129.582L19.0674 129.574L18.4414 128.877L18.3896 128.825L18.2725 128.695L14.3711 124.384L36.6211 70.2988L101.753 61.1436L105.751 65.1113L105.761 65.1201L106.708 66.0684L110.322 69.6592L115.42 74.7197L115.43 74.7285L115.438 74.7383L116.191 75.4902L116.758 76.0537L124.18 57.9951L187.56 49.0859L201.241 62.7656L201.328 62.8545L201.33 62.8564C201.346 62.8724 201.368 62.8951 201.396 62.9238C201.451 62.9814 201.53 63.0636 201.63 63.167L202.567 64.1387L209.946 45.9385L275.12 36.7783L277.672 39.3301L277.781 39.4365L278.537 40.1709L279.11 40.7275L279.115 40.7314L281.109 42.6699L281.282 42.8428L289.528 50.8691L296.543 33.7686L361.503 24.6396L375.259 38.3965L375.312 38.4512L375.399 38.543C375.445 38.5902 375.497 38.6468 375.525 38.6768C375.57 38.7242 375.606 38.7624 375.646 38.8037L375.674 38.833L375.722 38.8828C375.743 38.9044 375.767 38.9292 375.793 38.9561L375.847 39.0098L375.898 39.0645L376.119 39.2949L376.12 39.2959C376.144 39.3212 376.168 39.3468 376.191 39.3711L383.765 21.5107L469.865 9.4082L471.067 10.6104L471.666 9.15723L536.814 0L539.282 2.46777ZM476.612 15.5303L473.545 22.9854L467.384 16.8262L388.662 27.8916L378.485 51.8936L376.091 49.3896L376.043 49.3418L374.9 48.1475C374.771 48.0119 374.642 47.8778 374.516 47.7451L374.461 47.6885C374.32 47.541 374.182 47.3948 374.044 47.251L372.826 45.9785L372.782 45.9346L371.915 45.0273L371.889 45.001L371.396 44.4873C371.334 44.4222 371.275 44.3593 371.218 44.2988C371.165 44.2427 371.113 44.1889 371.063 44.1367L370.843 43.9062L370.791 43.8545L370.684 43.7422L370.632 43.6885L370.596 43.6514C370.535 43.5883 370.483 43.5324 370.438 43.4844C370.404 43.4493 370.368 43.4113 370.343 43.3848L370.255 43.293L359.021 32.0566L301.495 40.1406L292.026 63.2246L285.989 57.1895L285.933 57.1348L285.903 57.1055L284.968 56.1973L276.4 47.8594L276.195 47.6553L272.722 44.2803L272.638 44.1963L214.917 52.3086L205.007 76.7539L201.576 73.1943L201.468 73.0859L196.59 68.0244L196.291 67.7158L185.078 56.5039L129.129 64.3691L119.242 88.4268L113.618 82.8027L111.257 80.4561L110.489 79.6875L101.773 71.0332L100.82 70.0801L99.2871 68.5586L41.5684 76.6719L22.5244 122.963L23.4629 123.999L23.5225 124.059L24.2725 124.893L26.9463 127.849L26.9668 127.869L28.167 129.194L28.1777 129.205L32.5547 134.047L33.3662 134.941L33.376 134.951L34.3047 135.979L38.4746 140.148L14.4775 143.522L8.19531 159.473L19.4082 170.685C19.4082 170.685 19.8345 171.111 20.5361 171.812L21.666 172.94C22.2792 173.553 22.9838 174.257 23.7354 175.008L23.7988 175.071C24.6368 175.909 25.532 176.803 26.4238 177.694C27.3449 178.615 28.2623 179.532 29.1104 180.379L33.1504 184.417L91.0654 176.277L94.1152 168.876L99.707 174.468L127.584 170.551L143.093 132.886L184.618 127.049L181.936 133.667L181.953 133.685L184.014 135.855L184.089 135.931L195.875 148.36L207.09 159.576L263.635 151.627L266.399 144.771L272.072 150.44L298.773 146.689L317.159 101.523L338.014 128.583L349.228 139.798L378.088 135.741L353.744 103.874L365.521 102.218L383.054 59.2051L388.884 65.0352L398.026 63.749L373.543 123.588L384.76 134.801L411.262 131.08L441.104 58.8848L459.861 56.248L457.569 61.8223L458.508 62.8584L458.567 62.918L459.317 63.751L461.991 66.7061L462.012 66.7266L463.212 68.0537L463.223 68.0645L464.928 69.9492L464.938 69.96L468.41 73.8008L468.429 73.8193L469.348 74.8369L473.519 79.0078L449.522 82.3809L443.24 98.3301L461.469 116.553C462.273 117.357 463.075 118.158 463.83 118.912C464.503 119.584 465.138 120.219 465.705 120.785L468.196 123.276L526.11 115.137L544.76 69.8906L544.736 69.8662L544.399 69.5127L544.373 69.4863L544.154 69.2549L543.599 68.6748L543.572 68.6484L543.08 68.1348C542.947 67.9954 542.806 67.8492 542.661 67.6973L541.495 66.4775L541.472 66.4541L540.952 65.9102L538.904 63.7715C538.6 63.4538 538.295 63.1335 537.989 62.8135C537.684 62.4935 537.377 62.1742 537.073 61.8564L535.886 60.6152L535.862 60.5918L535.024 59.7168L534.999 59.6914L532.895 57.4912L532.38 56.9551L532.042 56.6016C531.964 56.5196 531.892 56.4436 531.823 56.3721L531.799 56.3477L531.58 56.1172L531.326 55.8506L531.278 55.8027L531.234 55.7568C531.228 55.7506 531.225 55.7457 531.222 55.7422L527.045 51.5654L553.399 47.8613L559.878 32.876L548.664 21.6611L534.781 7.86719L534.332 7.41797L476.612 15.5303ZM195.176 147.014L195.155 146.993L194.298 146.089L195.176 147.014ZM238.48 119.574L223.77 121.642L239.879 81.8105L254.882 79.7012L238.48 119.574ZM372.324 104.07L372.963 104.709L372.01 104.842L372.004 104.859L370.484 108.589L366.574 109.138L370.037 113.671L386.932 72.3779L386.402 72.4531L385.557 71.6074L372.324 104.07ZM167.605 94.2461L153.456 96.2334L154.279 94.04L168.594 92.0293L167.605 94.2461ZM110.964 80.2295L111.571 80.8369L110.501 79.7725L110.964 80.2295ZM468.797 73.0479L468.826 73.0801L469.063 73.3428L469.694 74.0391L469.676 74.0205L468.784 73.0361L468.797 73.0479ZM201.312 62.8389C201.313 62.8397 201.315 62.8408 201.317 62.8428C201.319 62.8444 201.323 62.8492 201.328 62.8545C201.321 62.8476 201.316 62.8423 201.312 62.8389ZM284.87 56.4014L284.763 56.2969L276.363 47.8955L284.87 56.4014ZM283.879 55.4375L283.851 55.4102L276.351 47.9092L283.879 55.4375Z" fill="black"/>
<g id="Subtract">
<path d="M545.528 18.5471L534.782 7.86735L534.332 7.41797L476.613 15.5303L473.545 22.9852L467.384 16.8257L388.662 27.8914L378.486 51.8934L376.091 49.3895L376.043 49.3417L375.461 48.733L374.9 48.1479C374.77 48.0122 374.642 47.878 374.516 47.7452L374.461 47.6884C374.32 47.5408 374.181 47.395 374.043 47.2511L372.826 45.9781L372.782 45.9342L371.915 45.0276L371.888 45.0012C371.713 44.8178 371.548 44.6462 371.396 44.4873C371.334 44.4223 371.275 44.3595 371.218 44.299C371.165 44.2429 371.114 44.1888 371.064 44.1366L370.843 43.9061L370.791 43.8543C370.754 43.815 370.718 43.7777 370.683 43.7421L370.632 43.6888L370.596 43.6511C370.536 43.588 370.483 43.5322 370.437 43.4842C370.404 43.449 370.368 43.4109 370.343 43.3844L370.255 43.2926L359.02 32.057L301.495 40.141L292.027 63.2247L285.989 57.1893L285.933 57.1346L285.903 57.1053L284.968 56.1977L276.4 47.8597L276.196 47.6555L274.237 45.7525L273.656 45.1888L272.901 44.4541L272.829 44.3848L272.722 44.2802L272.638 44.1962L214.917 52.3086L205.006 76.7542L201.576 73.1942L201.468 73.0858L199.234 70.7676L197.865 69.3471L196.59 68.0244C196.403 67.8301 196.297 67.7211 196.291 67.7157L185.078 56.5035L129.129 64.3687L119.242 88.4264L113.618 82.8023L111.257 80.4557L110.489 79.6879L105.388 74.6245L101.774 71.0333L100.82 70.0798L99.2876 68.5587L41.568 76.6721L22.5248 122.963L23.4627 123.999L23.5223 124.059L24.2725 124.893L26.9464 127.848L26.9669 127.869L28.1666 129.194L28.1773 129.205L29.885 131.092L32.5549 134.047L33.3658 134.942L33.3755 134.951L34.3046 135.978L38.4751 140.149L14.4779 143.522L8.19531 159.472L19.4084 170.684C19.4084 170.684 19.8342 171.111 20.5358 171.812L21.6661 172.94C22.2794 173.553 22.9836 174.257 23.7352 175.008L23.7989 175.072C24.6369 175.909 25.5319 176.804 26.4237 177.695C27.3449 178.615 28.2626 179.532 29.1107 180.379L29.14 180.408L31.11 182.376L33.1508 184.417L91.0658 176.277L94.1148 168.876L99.7067 174.468L127.584 170.551L143.093 132.885L184.618 127.049L181.935 133.667L181.953 133.684L184.013 135.855L184.088 135.93L187.245 139.26L188.638 140.728L189.178 141.298L194.729 147.152L195.875 148.361L207.09 159.576L263.634 151.627L266.399 144.771L272.072 150.441L298.773 146.689L317.159 101.523L338.014 128.583L349.228 139.798L378.088 135.741L353.744 103.874L365.522 102.218L383.054 59.2047L388.884 65.035L398.026 63.7493L373.543 123.588L384.759 134.801L411.261 131.08L441.104 58.8852L459.861 56.2485L457.569 61.8219L458.507 62.8584L458.567 62.918L459.317 63.7513L461.991 66.7065L462.012 66.727L463.212 68.0537L463.223 68.0644L464.928 69.9489L464.938 69.9596L467.601 72.9051L468.41 73.8009L468.429 73.8195L469.347 74.8365L473.519 79.0079L449.523 82.3812L443.24 98.3305L454.455 109.546L456.711 111.799L461.468 116.553C462.273 117.357 463.075 118.158 463.83 118.912C464.503 119.584 465.138 120.219 465.705 120.785L468.196 123.276L526.11 115.137L544.76 69.8903L544.737 69.8659L544.399 69.5122L544.373 69.4858L544.154 69.2553L543.934 69.0257L543.598 68.675L543.572 68.6486L543.348 68.4153L543.08 68.1348C542.946 67.9954 542.807 67.8493 542.662 67.6974C542.504 67.5322 542.339 67.3602 542.169 67.1823L541.495 66.4779L541.483 66.4663L541.472 66.4544L540.952 65.9103L540.548 65.4884L540.092 65.0125L539.482 64.3747L538.904 63.7718C538.6 63.454 538.295 63.134 537.989 62.8139C537.683 62.4939 537.378 62.1738 537.073 61.8561L535.886 60.6154L535.862 60.5919L535.025 59.7166L535 59.6912L534.481 59.149L533.805 58.4427L532.894 57.4912L532.38 56.9548L532.042 56.6012C531.964 56.5192 531.892 56.4431 531.823 56.3716L531.799 56.3472L531.58 56.1176L531.326 55.8509L531.278 55.803L531.234 55.7571C531.228 55.7507 531.224 55.7457 531.221 55.7422L527.045 51.5652L553.4 47.8616L559.878 32.8756L548.664 21.6615L545.528 18.5471ZM272.722 44.2802L283.879 55.4377L283.851 55.4103L272.722 44.2802ZM273.656 45.1888L284.87 56.4009L284.762 56.2964L273.656 45.1888ZM110.501 79.7729L110.964 80.2291L111.571 80.8367L110.501 79.7729ZM195.155 146.993L193.167 144.896C193.249 144.983 193.663 145.419 194.298 146.088L195.176 147.014L195.155 146.993ZM34.6211 135.152L33.7399 134.178C33.7399 134.178 34.0739 134.546 34.6303 135.161C34.6335 135.164 34.6367 135.167 34.6397 135.17L34.6303 135.161L34.6211 135.152ZM223.769 121.642L239.879 81.8107L254.882 79.7015L238.481 119.575L223.769 121.642ZM153.456 96.233L154.28 94.0398L168.593 92.0293L167.606 94.246L153.456 96.233ZM469.676 74.0207L468.785 73.036L468.797 73.0477L468.826 73.0803L469.063 73.3423L469.694 74.0393L469.676 74.0207Z" fill="#3B1B67"/>
<path fill-rule="evenodd" clip-rule="evenodd" d="M34.6303 135.161C34.6335 135.164 34.6367 135.167 34.6397 135.17L34.6303 135.161Z" fill="#3B1B67"/>
</g>
<g id="Vector">
<path fill-rule="evenodd" clip-rule="evenodd" d="M272.638 44.1967C272.638 44.1967 273.26 44.8025 274.236 45.7524C276.804 48.2519 281.821 53.1339 284.389 55.6334C285.365 56.5834 285.988 57.1892 285.988 57.1892L252.417 140.414L195.877 148.36C195.877 148.36 193.42 145.77 190.57 142.765C189.481 141.617 188.334 140.409 187.245 139.261C184.395 136.256 181.938 133.666 181.938 133.666L214.92 52.3084L272.638 44.1967ZM207.067 123.989L238.478 119.574L260.466 66.1287L228.662 70.5984L207.067 123.989Z" fill="white"/>
<path d="M371.736 45.3454C371.046 44.6249 369.982 43.5125 368.756 42.2314C366.903 40.2948 364.68 37.9729 362.827 36.0364C361.601 34.7552 360.536 33.6428 359.847 32.9223C359.325 32.3774 359.018 32.0567 359.018 32.0567L301.497 40.1408L260.859 139.227L287.558 135.475L317.006 63.1387L342.135 59.6071L338.994 67.1855L324.859 69.1721L313.472 96.7429L338.012 128.582L366.871 124.527L342.528 92.6595L354.307 91.004L372.564 46.2111C372.564 46.2111 372.257 45.8903 371.736 45.3454Z" fill="white"/>
<path d="M467.387 16.8265L388.663 27.8904L377.669 53.8201L403.583 50.1781L373.546 123.588L400.049 119.864L429.89 47.6705L456.197 43.9733L467.387 16.8265Z" fill="white"/>
<path d="M540.435 13.4829C537.239 10.3071 534.332 7.41797 534.332 7.41797L476.614 15.5297L457.571 61.8208C457.571 61.8208 459.611 64.0753 461.994 66.7077C462.953 67.7677 463.968 68.8889 464.927 69.9488C467.31 72.5812 469.35 74.8358 469.35 74.8358L502.332 70.2005L498.405 80.6647L474.847 83.9757L477.399 78.4625L449.522 82.3804L443.239 98.3302C443.239 98.3302 446.772 101.86 450.255 105.34C453.642 108.723 456.982 112.061 456.982 112.061L514.896 103.921L533.546 58.6766C533.546 58.6766 533.24 58.3558 532.718 57.8108C532.028 57.0903 530.964 55.9781 529.738 54.6971C527.885 52.7605 525.662 50.4383 523.809 48.5016C522.583 47.2207 521.519 46.1084 520.829 45.3879C520.307 44.843 520 44.5222 520 44.5222L489.375 48.8264L494.086 38.2517L517.056 35.0236L514.504 40.5367L542.185 36.6464L548.663 21.6602C548.663 21.6602 544.334 17.3582 540.435 13.4829Z" fill="white"/>
<path d="M105.39 74.6243C102.195 71.4486 99.2876 68.5595 99.2876 68.5595L41.5696 76.6712L22.5266 122.962C22.5266 122.962 24.5672 125.217 26.9497 127.849C27.9089 128.909 28.9235 130.03 29.8827 131.09C32.2652 133.723 34.3058 135.977 34.3058 135.977L67.2875 131.342L63.3611 141.806L39.8028 145.117L42.3549 139.604L14.4775 143.522L8.19531 159.472C8.19531 159.472 11.7277 163.001 15.2107 166.481C18.5975 169.865 21.9377 173.202 21.9377 173.202L79.852 165.063L98.5023 119.818C98.5023 119.818 98.1954 119.497 97.6739 118.952C96.9844 118.232 95.9197 117.119 94.6937 115.838C92.8404 113.902 90.6182 111.58 88.7649 109.643C87.5388 108.362 86.4742 107.25 85.7847 106.529C85.2632 105.984 84.9563 105.664 84.9563 105.664L54.3304 109.968L59.0421 99.3932L82.0115 96.1651L79.4593 101.678L107.14 97.7879L113.619 82.8017C113.619 82.8017 109.29 78.4996 105.39 74.6243Z" fill="white"/>
<path fill-rule="evenodd" clip-rule="evenodd" d="M185.079 56.5022C185.079 56.5022 186.298 57.7672 188.021 59.5542C190.44 62.0649 193.853 65.6059 196.273 68.1166C197.995 69.9036 199.214 71.1686 199.214 71.1686L181.153 114.744L131.877 121.67L116.367 159.336L88.49 163.254L129.128 64.3656L185.079 56.5022ZM137.177 98.5227L167.607 94.2461L174.674 78.3842L143.067 82.8263L137.177 98.5227Z" fill="white"/>
</g>
<g id="Subtract_2">
<path d="M79.8516 165.062L21.9375 173.202C21.9274 173.192 18.5927 169.859 15.2109 166.48C12.6902 163.962 10.1434 161.418 8.92871 160.204L86.3115 149.39L79.8516 165.062Z" fill="#2B98DB"/>
<path d="M116.367 159.336L88.4902 163.254L94.667 148.223L122.547 144.326L116.367 159.336Z" fill="#2B98DB"/>
<path d="M87.1943 147.247L8.68848 158.219L13.2656 146.598L40.9043 142.735L39.8027 145.117L63.3613 141.807L64.2354 139.475L91.998 135.596L87.1943 147.247Z" fill="#2B98DB"/>
<path d="M252.417 140.414L195.877 148.36C195.877 148.36 193.42 145.77 190.569 142.765C189.481 141.617 188.334 140.409 187.245 139.261C186.003 137.952 184.837 136.722 183.915 135.75L258.502 125.327L252.417 140.414Z" fill="#2B98DB"/>
<path d="M123.43 142.184L95.5469 146.08L100.334 134.431L128.227 130.532L123.43 142.184Z" fill="#2B98DB"/>
<path d="M41.9033 140.577L14.1064 144.461L14.4775 143.521L42.3545 139.604L41.9033 140.577Z" fill="#2B98DB"/>
<path d="M287.558 135.475L260.858 139.228L267.049 124.133L293.69 120.409L287.558 135.475Z" fill="#2B98DB"/>
<path d="M94.6934 115.838C95.9193 117.119 96.9843 118.232 97.6738 118.952C98.1929 119.495 98.4992 119.815 98.502 119.818L92.8809 133.453L65.0352 137.344L67.2871 131.342L34.3057 135.978C34.3057 135.978 32.2653 133.722 29.8828 131.09C28.9238 130.03 27.9093 128.909 26.9502 127.85C24.5677 125.217 22.5264 122.962 22.5264 122.962L23.249 121.202L90.7939 111.764C92.114 113.143 93.4825 114.573 94.6934 115.838Z" fill="#2B98DB"/>
<path d="M259.365 123.188L182.225 133.967C182.044 133.777 181.943 133.671 181.938 133.666L186.51 122.388L208.984 119.247L207.067 123.988L238.479 119.574L240.42 114.854L264.06 111.55L259.365 123.188Z" fill="#2B98DB"/>
<path d="M181.153 114.744L131.877 121.67L129.109 128.39L101.215 132.288L110.798 108.968L188.02 98.1768L181.153 114.744Z" fill="#2B98DB"/>
<path d="M366.871 124.526L338.012 128.582L328.016 115.612L356.971 111.566L366.871 124.526Z" fill="#2B98DB"/>
<path d="M400.049 119.863L373.546 123.589L379.768 108.38L406.329 104.668L400.049 119.863Z" fill="#2B98DB"/>
<path d="M294.562 118.269L267.927 121.99L272.704 110.342L299.302 106.625L294.562 118.269Z" fill="#2B98DB"/>
<path d="M209.851 117.106L187.378 120.247L196.823 96.9463L219.273 93.8086L209.851 117.106Z" fill="#2B98DB"/>
<path d="M105.391 74.624C109.29 78.4993 113.619 82.8018 113.619 82.8018L107.141 97.7881L79.459 101.678L82.0117 96.165L59.042 99.3936L54.3301 109.968L84.9561 105.664C84.9626 105.671 85.2693 105.99 85.7852 106.529C86.4747 107.25 87.5387 108.363 88.7646 109.644C88.8715 109.755 88.9797 109.868 89.0889 109.982L24.1309 119.061L41.5693 76.6709L99.2881 68.5596C99.3222 68.5935 102.214 71.4671 105.391 74.624Z" fill="#2B98DB"/>
<path d="M355.577 109.742L326.61 113.79L318.971 103.877L347.997 99.8203L355.577 109.742Z" fill="#2B98DB"/>
<path d="M264.922 109.41L241.301 112.711L250.896 89.3896L274.318 86.1162L264.922 109.41Z" fill="#2B98DB"/>
<path d="M514.896 103.921L456.981 112.061C456.951 112.03 453.626 108.708 450.255 105.34C447.928 103.015 445.578 100.667 444.275 99.3652L521.205 88.6152L514.896 103.921Z" fill="#2B98DB"/>
<path d="M300.173 104.484L273.583 108.2L283.146 84.8828L309.661 81.1777L300.173 104.484Z" fill="#2B98DB"/>
<path fill-rule="evenodd" clip-rule="evenodd" d="M188.021 59.5547C190.44 62.0652 193.853 65.6056 196.272 68.1162C197.992 69.9003 199.21 71.1648 199.214 71.1689L188.907 96.0332L111.679 106.826L129.128 64.3652L185.079 56.502C185.079 56.502 186.298 57.7677 188.021 59.5547ZM143.066 82.8262L137.178 98.5225L167.606 94.2461L174.675 78.3838L143.066 82.8262Z" fill="#2B98DB"/>
<path d="M407.215 102.525L380.645 106.238L385.41 94.5918L412.032 90.8711L407.215 102.525Z" fill="#2B98DB"/>
<path d="M354.307 91.0039L342.527 92.6592L346.604 97.9961L317.565 102.054L313.473 96.7432L320.527 79.6592L361.25 73.9678L354.307 91.0039Z" fill="#2B98DB"/>
<path d="M522.089 86.4727L443.588 97.4424L448.165 85.8223L475.778 81.9629L474.847 83.9756L498.405 80.665L499.143 78.6982L526.892 74.8203L522.089 86.4727Z" fill="#2B98DB"/>
<path d="M274.236 45.752C276.805 48.2514 281.82 53.1343 284.389 55.6338C285.365 56.5837 285.987 57.1895 285.987 57.1895L275.182 83.9766L251.777 87.2471L260.466 66.1289L228.662 70.5986L220.139 91.6689L197.691 94.8057L214.92 52.3086L272.638 44.1963C272.638 44.1963 273.26 44.8021 274.236 45.752Z" fill="#2B98DB"/>
<path d="M412.918 88.7285L386.286 92.4502L395.825 69.1367L422.561 65.4004L412.918 88.7285Z" fill="#2B98DB"/>
<path d="M476.777 79.8047L449.007 83.6855L449.521 82.3809L477.399 78.4629L476.777 79.8047Z" fill="#2B98DB"/>
<path d="M359.847 32.9219C360.536 33.6424 361.601 34.755 362.827 36.0361C364.68 37.9726 366.903 40.2949 368.756 42.2314C369.982 43.5126 371.047 44.6252 371.736 45.3457C372.254 45.8861 372.56 46.2059 372.564 46.2109L362.123 71.8271L321.412 77.5166L324.858 69.1719L338.994 67.1855L342.135 59.6074L317.006 63.1387L310.533 79.0361L284.024 82.7412L301.497 40.1406L359.019 32.0566C359.024 32.0619 359.33 32.3816 359.847 32.9219Z" fill="#2B98DB"/>
<path d="M529.738 54.6973C530.964 55.978 532.028 57.0901 532.718 57.8105C533.239 58.3555 533.547 58.6768 533.547 58.6768L527.774 72.6777L499.942 76.5674L502.332 70.2002L469.35 74.8359C469.333 74.8177 467.299 72.5709 464.927 69.9492C463.968 68.8894 462.953 67.7678 461.994 66.708C459.612 64.0756 457.571 61.8203 457.571 61.8203L458.144 60.4277L526.129 50.9268C527.358 52.2109 528.616 53.5246 529.738 54.6973Z" fill="#2B98DB"/>
<path d="M456.196 43.9736L429.89 47.6709L423.446 63.2568L396.701 66.9951L403.583 50.1777L377.669 53.8203L388.663 27.8906L467.387 16.8262L456.196 43.9736Z" fill="#2B98DB"/>
<path d="M540.435 13.4834C544.327 17.3515 548.647 21.6444 548.663 21.6602L542.185 36.6465L514.504 40.5371L517.056 35.0234L494.086 38.252L489.375 48.8262L520 44.5225C520 44.5225 520.308 44.8428 520.829 45.3877C521.519 46.1082 522.583 47.221 523.809 48.502C524.01 48.7123 524.216 48.927 524.425 49.1455L459.024 58.2852L476.614 15.5293L534.332 7.41797C534.356 7.44208 537.252 10.3209 540.435 13.4834Z" fill="#2B98DB"/>
</g>
<path id="Vector_2" d="M21.0232 224.023C22.6727 223.789 24.3018 223.189 25.7972 222.266C27.2677 221.394 28.5724 220.213 29.6138 218.813L26.7703 216.293C26.0725 217.252 25.2057 218.074 24.2264 218.706C23.2657 219.318 22.211 219.71 21.1436 219.853C20.2429 219.99 19.3492 219.942 18.5142 219.713C17.6793 219.484 16.9197 219.079 16.2793 218.52C15.6627 217.971 15.1756 217.285 14.8461 216.501C14.4929 215.67 14.3151 214.75 14.323 213.797C14.3134 212.837 14.4862 211.858 14.8318 210.915C15.1544 210.039 15.6325 209.212 16.2392 208.483C16.8476 207.759 17.5753 207.15 18.379 206.692C19.2164 206.21 20.1177 205.899 21.0275 205.777C22.1247 205.618 23.2077 205.724 24.1906 206.085C25.2065 206.465 26.096 207.088 26.7947 207.908L29.7284 204.485C28.6969 203.347 27.3844 202.516 25.8975 202.059C24.3694 201.551 22.7066 201.408 21.0232 201.642C19.5196 201.843 18.029 202.348 16.6376 203.127C15.3194 203.86 14.1159 204.831 13.0919 205.986C12.0812 207.141 11.2774 208.462 10.7271 209.873C10.1568 211.352 9.86185 212.893 9.85939 214.409C9.85693 215.925 10.147 217.385 10.7128 218.706C11.2565 219.959 12.0553 221.05 13.0618 221.915C14.0862 222.783 15.2903 223.414 16.609 223.776C18.0097 224.165 19.5102 224.249 21.0232 224.023ZM77.7448 216.084C79.2434 215.885 80.729 215.38 82.1146 214.601C83.427 213.871 84.6211 212.897 85.6281 211.735C86.6351 210.573 87.4351 209.247 87.9821 207.832C88.5548 206.361 88.8499 204.826 88.8499 203.317C88.8499 201.808 88.5548 200.356 87.9821 199.046C87.4352 197.785 86.6352 196.683 85.6282 195.804C84.6212 194.926 83.427 194.287 82.1146 193.927C79.321 193.161 76.1972 193.6 73.4036 195.151C72.0912 195.881 70.8971 196.854 69.8901 198.016C68.883 199.178 68.083 200.505 67.5361 201.92C66.9638 203.391 66.6689 204.926 66.6689 206.434C66.6689 207.943 66.9638 209.395 67.5361 210.705C68.0831 211.967 68.8831 213.068 69.8901 213.947C70.8971 214.826 72.0912 215.464 73.4036 215.825C74.7803 216.214 76.2553 216.303 77.7448 216.084ZM77.7448 211.956C76.8653 212.087 75.9937 212.033 75.1831 211.797C74.3726 211.561 73.6403 211.149 73.031 210.585C72.4301 210.018 71.9575 209.32 71.6394 208.53C70.9606 206.822 70.9606 204.824 71.6394 202.926C71.9602 202.052 72.4325 201.227 73.031 200.496C73.6403 199.76 74.3726 199.142 75.1831 198.678C75.9937 198.215 76.8653 197.916 77.7448 197.8C78.65 197.666 79.5469 197.725 80.379 197.973C81.1736 198.206 81.8913 198.612 82.4887 199.167C83.0871 199.73 83.5595 200.422 83.8803 201.205C84.5588 202.913 84.5588 204.911 83.8803 206.809C83.5621 207.689 83.0896 208.52 82.4887 209.256C81.8913 209.978 81.1736 210.585 80.379 211.042C79.5472 211.524 78.6495 211.836 77.7448 211.956ZM143.536 206.497V202.524L132.07 204.136V186.377L127.733 186.987V208.715L143.536 206.497ZM198.254 198.807V194.834L186.788 196.446V178.687L182.448 179.297V201.025L198.254 198.807ZM253.389 191.058V187.147L241.506 188.817V183.663L249.26 182.573V178.785L241.506 179.875V174.912L253.27 173.259V169.348L237.163 171.612V193.34L253.389 191.058ZM301.521 184.604C303.171 184.369 304.8 183.77 306.295 182.846C307.765 181.974 309.07 180.793 310.112 179.393L307.267 176.875C306.569 177.834 305.702 178.656 304.723 179.288C303.762 179.9 302.707 180.292 301.64 180.435C300.739 180.571 299.846 180.524 299.011 180.295C298.177 180.066 297.417 179.66 296.777 179.101C296.16 178.553 295.673 177.866 295.344 177.083C294.99 176.251 294.812 175.332 294.819 174.379C294.81 173.418 294.983 172.44 295.33 171.497C295.651 170.62 296.129 169.794 296.736 169.065C297.344 168.341 298.072 167.731 298.875 167.274C299.713 166.792 300.614 166.48 301.524 166.359C302.625 166.2 303.712 166.307 304.697 166.672C305.713 167.051 306.603 167.674 307.301 168.495L310.235 165.071C309.203 163.933 307.891 163.102 306.404 162.645C304.876 162.137 303.214 161.995 301.531 162.228C300.027 162.429 298.537 162.934 297.146 163.713C295.827 164.446 294.623 165.416 293.598 166.571C292.587 167.725 291.783 169.047 291.232 170.458C290.662 171.936 290.367 173.478 290.365 174.994C290.362 176.51 290.652 177.97 291.218 179.291C291.762 180.543 292.561 181.635 293.567 182.5C294.591 183.367 295.795 183.999 297.114 184.361C298.513 184.747 300.011 184.83 301.521 184.604ZM358.932 176.225V158.467L365.965 157.478V153.504L347.527 156.095V160.069L354.591 159.077V176.832L358.932 176.225ZM408.65 169.238V147.509L404.31 148.119V169.848L408.65 169.238ZM458.638 162.554C460.137 162.355 461.622 161.851 463.008 161.071C464.32 160.341 465.514 159.367 466.521 158.206C467.528 157.044 468.328 155.717 468.875 154.302C469.448 152.831 469.742 151.296 469.742 149.788C469.742 148.279 469.448 146.827 468.875 145.517C468.328 144.255 467.528 143.153 466.521 142.275C465.514 141.396 464.32 140.758 463.008 140.397C460.215 139.632 457.091 140.071 454.298 141.621C452.986 142.352 451.793 143.326 450.786 144.487C449.78 145.649 448.98 146.975 448.432 148.39C447.859 149.86 447.564 151.396 447.564 152.905C447.564 154.414 447.859 155.866 448.432 157.175C448.98 158.436 449.78 159.538 450.786 160.416C451.793 161.295 452.986 161.933 454.298 162.295C455.674 162.684 457.15 162.771 458.638 162.552V162.554ZM458.638 158.426C457.738 158.561 456.846 158.501 456.02 158.251C455.23 158.014 454.518 157.608 453.924 157.055C453.322 156.489 452.849 155.791 452.531 155C451.853 153.292 451.853 151.295 452.531 149.396C452.852 148.522 453.325 147.697 453.924 146.966C454.518 146.247 455.23 145.64 456.02 145.182C456.846 144.699 457.738 144.389 458.638 144.27C459.543 144.136 460.439 144.195 461.271 144.444C462.066 144.677 462.784 145.083 463.382 145.637C463.98 146.2 464.453 146.892 464.773 147.676C465.453 149.384 465.453 151.381 464.773 153.28C464.455 154.159 463.983 154.99 463.382 155.726C462.784 156.448 462.066 157.056 461.271 157.513C460.439 157.994 459.543 158.304 458.638 158.423V158.426ZM512.725 154.612V140.078L523.411 153.111L527.242 152.572V130.844L523.172 131.416V145.478L512.755 132.88L508.624 133.46V155.189L512.725 154.612Z" fill="white"/>
<g id="Vector_3">
<path fill-rule="evenodd" clip-rule="evenodd" d="M13.5952 57.3901C13.4413 56.6744 13.5001 51.7317 13.5623 50.8599C14.5489 50.5793 15.4107 50.4842 16.2799 50.3883C16.4764 50.3666 16.6733 50.3449 16.8722 50.321C17.2638 50.2738 17.7371 50.1925 18.2488 50.1045C19.9487 49.8124 22.0725 49.4475 23.0362 50.021C24.7885 51.0638 24.9942 53.5764 23.3031 55.2762C22.3825 56.2016 21.3019 56.3731 20.0839 56.5153C18.9284 56.6501 17.8053 56.8108 16.6834 56.9713C15.6619 57.1174 14.6399 57.2636 13.5952 57.3901ZM13.6231 47.0596C13.5986 46.9662 13.4813 41.2799 13.6028 40.535C13.6062 40.5143 13.6109 40.4915 13.6153 40.4702C13.6179 40.4579 13.6203 40.4461 13.6224 40.4354L13.674 40.2375C14.2084 40.0879 17.8858 39.5533 18.3182 39.6169C21.694 40.1138 21.5577 44.887 18.5294 46.1641C17.4365 46.625 15.9872 46.7859 14.7434 46.9239C14.3424 46.9684 13.9626 47.0105 13.6231 47.0596ZM10.6023 61.4095L10.4964 61.4139C10.3837 60.7795 10.2497 60.1027 10.0933 59.3815C9.82005 57.7442 9.84785 56.3075 9.87751 54.7743C9.88482 54.3966 9.89225 54.013 9.89531 53.6191L9.88451 42.2119C9.87483 40.0204 9.87125 38.8546 11.4429 37.4561C12.579 36.4449 14.2986 36.2999 15.7967 36.1735C16.1522 36.1436 16.4953 36.1146 16.8151 36.0754C19.0958 35.7959 20.04 35.8852 21.5255 36.6959C22.8204 37.4026 23.9169 38.6901 24.3181 40.6908C24.7205 42.6966 24.425 43.4491 24.0502 44.4032C23.8792 44.8388 23.6916 45.3163 23.5464 45.9742C23.674 46.093 23.9343 46.2013 24.2634 46.3382C24.8353 46.5762 25.6151 46.9006 26.2684 47.5172C29.1191 50.2075 28.5606 54.599 25.8979 57.5568C23.8788 59.7997 21.5646 60.0502 18.8932 60.3393L18.8866 60.34C18.7569 60.354 18.6264 60.3682 18.495 60.3826C17.4695 60.4955 16.4375 60.6618 15.4026 60.8286C13.8053 61.0859 12.201 61.3445 10.6023 61.4095Z" fill="white"/>
<path fill-rule="evenodd" clip-rule="evenodd" d="M75.5073 31.3189C78.144 29.7788 80.9105 29.8478 82.8836 30.5266C85.0579 31.2745 86.1185 32.407 87.4432 34.7592C88.6347 36.8749 87.9854 40.5248 87.1683 42.2794C84.836 47.2873 79.4569 49.9247 74.8306 48.2836C70.4139 46.717 68.368 41.214 70.725 36.4722C71.8176 34.274 72.9618 32.8057 75.5073 31.3189ZM75.1679 27.5854C74.3577 28.143 72.9267 28.4179 70.6538 30.6462C69.3975 31.878 68.5583 33.1228 67.7414 34.5736C64.2836 40.7145 66.2629 48.9243 72.6344 51.6132C82.9986 55.9873 94.6811 44.1232 91.2038 33.7694C89.6591 29.1698 85.3128 26.2483 80.8085 26.3448C79.5484 26.3718 76.4834 26.6801 75.1679 27.5854Z" fill="white"/>
<path fill-rule="evenodd" clip-rule="evenodd" d="M154.104 29.2124C153.673 27.9177 154.945 24.2218 155.508 23.1786C157.992 18.5719 162.072 17.2746 165 20.9453C166.373 22.6663 166.863 24.7112 167.008 27.3508C166.367 27.6347 156.289 28.8636 154.104 29.2124ZM153.917 41.1991C154.143 40.5877 154.035 34.2595 154.031 33.062C154.419 32.9067 166.505 31.1987 166.885 31.2593C167.105 31.9654 167.007 34.3887 167.011 35.3253C167.015 36.2433 166.875 38.7377 167.089 39.4209C171.413 38.35 170.596 34.8328 170.756 32.8407C170.86 31.5482 170.749 29.906 170.756 28.5376C170.765 26.8343 170.875 25.9041 170.528 24.0407C169.545 18.7485 165.832 14.1303 160.254 15.1924C154.348 16.317 151.128 22.3985 150.496 27.0804C150.288 28.6251 150.252 33.8617 150.293 35.5592C150.321 36.7654 150.07 38.7938 150.763 39.8084C151.388 40.7228 152.631 41.6022 153.917 41.1991Z" fill="white"/>
<path fill-rule="evenodd" clip-rule="evenodd" d="M33.9258 46.0001C33.4371 43.2344 35.6828 36.7897 40.0616 35.7619C44.9868 34.6059 47.2207 42.2122 46.7453 44.0963C45.9444 44.4911 38.838 45.3133 37.0472 45.6019C35.984 45.7731 34.8778 45.7868 33.9258 46.0001ZM33.7674 57.9903C33.8792 55.6852 33.8373 52.1487 33.7664 49.911C34.1232 49.6963 46.1815 47.9788 46.6926 48.0489C46.921 48.8165 46.759 51.1316 46.7672 52.0797C46.7762 53.1074 46.6666 55.4043 46.8547 56.2467C50.4471 55.3346 50.7213 52.606 50.5243 49.6172L50.5473 45.3361C50.5711 40.7257 50.1009 37.0727 46.753 33.9362C45.0821 32.3708 43.0674 31.5945 40.0946 31.9763C36.8387 32.3944 34.5437 34.8214 33.1321 36.7041C31.7476 38.5505 30.6626 41.3121 30.2989 43.8795C29.926 46.5119 30.1057 49.6128 30.0784 52.3198C30.065 53.6497 29.8687 55.4571 30.5516 56.6316C31.1518 57.6638 32.4556 58.3086 33.7674 57.9903Z" fill="white"/>
<path fill-rule="evenodd" clip-rule="evenodd" d="M137.475 22.4902C140.039 20.8541 142.695 22.1067 143.578 23.9454C144.813 26.5166 143.274 29.2528 141.23 30.4264C135.686 33.609 131.882 26.0596 137.475 22.4902ZM134.765 35.3301C135.303 35.3883 135.703 35.9096 136.286 36.4236C137.49 37.4859 142.498 41.9704 143.279 42.3181C144.715 42.958 146.185 42.3387 147.524 41.2398C147.214 40.2099 141.007 35.8222 140.474 34.6118C147.201 32.3222 149.177 25.43 146.508 21.2066C142.933 15.5505 133.584 17.7589 131.373 25.3224C130.825 27.1968 131.092 36.0412 131.078 38.2386L131.074 43.6483C131.069 44.1235 130.942 44.3863 131.347 44.3995C131.843 44.4157 133.065 43.6841 133.386 43.3579C135.444 41.2706 134.45 38.8743 134.765 35.3301Z" fill="white"/>
<path fill-rule="evenodd" clip-rule="evenodd" d="M129.298 44.6781C128.771 40.031 124.678 41.9499 121.808 42.1067C121.162 42.1421 118.819 42.7101 118.512 42.4982L118.413 42.353C118.405 42.3334 118.382 42.2972 118.373 42.2722C118.252 41.9061 118.385 39.5883 118.356 38.8288C118.309 37.6358 118.344 36.2149 118.367 35.0207C119.799 34.4678 124.788 34.3573 125.689 33.7683C125.563 31.9265 124.418 30.964 123.191 30.7331C121.867 30.4841 119.207 31.2778 118.435 31.1577C118.329 30.6628 118.261 25.9122 118.469 25.4069L125.124 24.4374C126.438 24.3064 127.341 23.905 128.183 23.0203C128.792 22.3808 129.448 21.2079 129.24 20.1532L124.561 20.7581C123.939 20.8481 123.383 21.0058 122.778 21.0768C117.62 21.6823 114.487 21.3626 114.69 27.8514C114.771 30.4281 114.5 42.8048 114.823 44.1078C115.634 47.3836 119.888 46.123 122.745 45.6743C123.88 45.4961 124.877 45.4391 126.004 45.2212C126.999 45.0288 128.379 45.0417 129.298 44.6781Z" fill="white"/>
<path fill-rule="evenodd" clip-rule="evenodd" d="M113.487 22.436L106.905 23.3134C104.373 23.6677 102.285 24.3985 100.096 25.8622C89.9007 32.6826 91.981 46.965 103.312 48.038C105.456 48.241 107.496 47.7357 109.773 47.5046C110.273 47.4539 110.835 47.3552 111.368 47.274C113.183 46.9978 113.955 47.4352 113.25 45.6572C112.087 42.7272 108.635 44.0827 106.508 44.2534C102.249 44.5951 98.8234 43.3074 97.4783 39.1258C96.1541 35.0086 98.7205 30.6733 102.568 28.4581C107.092 25.8539 109.835 27.8707 112.37 25.2507C113.02 24.5789 113.601 23.5239 113.487 22.436Z" fill="white"/>
<path fill-rule="evenodd" clip-rule="evenodd" d="M56.8555 33.9663C57.1588 35.167 56.6683 53.2832 57.0234 54.8274C61.3752 53.5979 60.4974 50.3082 60.585 47.9854C60.6636 45.9012 60.4477 33.9002 60.6583 33.5841C60.8552 33.2885 61.5582 33.3048 61.7695 33.2815C62.6383 33.1854 64.8634 32.87 65.5434 32.5062C67.0807 31.6839 67.9297 30.2594 67.8835 28.7534C67.4608 28.6692 52.6855 30.7416 50.4828 31.0828C49.5321 31.2301 49.4526 31.2934 49.7558 32.2922C50.737 35.5244 54.5124 34.1778 56.8555 33.9663Z" fill="white"/>
</g>
</g>
</svg>
