<svg width="542" height="206" viewBox="0 0 542 206" fill="none" xmlns="http://www.w3.org/2000/svg">
<path fill-rule="evenodd" clip-rule="evenodd" d="M265.185 37.1342C265.185 37.1342 265.807 37.74 266.783 38.6899C269.351 41.1894 274.368 46.0714 276.936 48.5709C277.912 49.5209 278.534 50.1267 278.534 50.1267L244.964 133.351L188.424 141.297C188.424 141.297 185.967 138.708 183.116 135.703C182.028 134.555 180.881 133.346 179.792 132.198C176.942 129.193 174.485 126.604 174.485 126.604L207.467 45.2459L265.185 37.1342ZM199.614 116.926L231.025 112.512L253.013 59.0662L221.209 63.5359L199.614 116.926Z" fill="white"/>
<path d="M364.283 38.2829C363.593 37.5624 362.529 36.45 361.303 35.1689C359.449 33.2323 357.227 30.9104 355.374 28.9739C354.148 27.6927 353.083 26.5803 352.394 25.8598C351.872 25.3149 351.565 24.9942 351.565 24.9942L294.044 33.0783L253.405 132.165L280.105 128.413L309.553 56.0762L334.682 52.5446L331.541 60.123L317.406 62.1096L306.019 89.6804L330.559 121.52L359.418 117.464L335.074 85.597L346.854 83.9415L365.111 39.1486C365.111 39.1486 364.804 38.8278 364.283 38.2829Z" fill="white"/>
<path d="M459.934 9.76397L381.21 20.8279L370.216 46.7576L396.13 43.1156L366.093 116.526L392.596 112.801L422.437 40.608L448.743 36.9108L459.934 9.76397Z" fill="white"/>
<path d="M532.982 6.42043C529.786 3.24464 526.879 0.355469 526.879 0.355469L469.161 8.4672L450.118 54.7583C450.118 54.7583 452.158 57.0128 454.541 59.6452C455.5 60.7052 456.515 61.8264 457.474 62.8863C459.856 65.5187 461.897 67.7733 461.897 67.7733L494.879 63.138L490.952 73.6022L467.394 76.9132L469.946 71.4L442.069 75.3179L435.786 91.2677C435.786 91.2677 439.319 94.7971 442.802 98.277C446.189 101.661 449.529 104.998 449.529 104.998L507.443 96.8587L526.093 51.6141C526.093 51.6141 525.786 51.2933 525.265 50.7483C524.575 50.0278 523.511 48.9156 522.285 47.6346C520.432 45.698 518.209 43.3758 516.356 41.4391C515.13 40.1582 514.065 39.0459 513.376 38.3254C512.854 37.7805 512.547 37.4597 512.547 37.4597L481.921 41.7639L486.633 31.1892L509.603 27.9611L507.05 33.4742L534.731 29.5839L541.21 14.5977C541.21 14.5977 536.881 10.2957 532.982 6.42043Z" fill="white"/>
<path d="M97.9373 67.5618C94.7417 64.3861 91.8345 61.497 91.8345 61.497L34.1165 69.6087L15.0735 115.9C15.0735 115.9 17.1141 118.154 19.4966 120.787C20.4558 121.847 21.4704 122.968 22.4296 124.028C24.8121 126.66 26.8527 128.915 26.8527 128.915L59.8344 124.279L55.908 134.744L32.3496 138.055L34.9018 132.541L7.02441 136.459L0.742188 152.409C0.742188 152.409 4.27457 155.938 7.75754 159.418C11.1444 162.802 14.4846 166.14 14.4846 166.14L72.3988 158L91.0492 112.756C91.0492 112.756 90.7423 112.435 90.2208 111.89C89.5312 111.169 88.4666 110.057 87.2405 108.776C85.3873 106.839 83.1651 104.517 81.3118 102.581C80.0857 101.3 79.0211 100.187 78.3316 99.4668C77.8101 98.9219 77.5031 98.6011 77.5031 98.6011L46.8773 102.905L51.589 92.3307L74.5584 89.1026L72.0062 94.6157L99.6873 90.7254L106.166 75.7392C106.166 75.7392 101.837 71.4371 97.9373 67.5618Z" fill="white"/>
<path fill-rule="evenodd" clip-rule="evenodd" d="M177.626 49.4397C177.626 49.4397 178.845 50.7047 180.568 52.4917C182.987 55.0024 186.4 58.5434 188.82 61.0541C190.542 62.8411 191.761 64.1061 191.761 64.1061L173.7 107.682L124.424 114.607L108.914 152.274L81.0369 156.191L121.675 57.3031L177.626 49.4397ZM129.724 91.4602L160.154 87.1836L167.221 71.3217L135.614 75.7638L129.724 91.4602Z" fill="white"/>
<path d="M20.4446 205.848C22.0259 205.624 23.5877 205.049 25.0213 204.164C26.4311 203.328 27.6818 202.196 28.6802 200.853L25.9542 198.438C25.2852 199.357 24.4543 200.145 23.5154 200.751C22.5944 201.337 21.5833 201.713 20.56 201.85C19.6966 201.981 18.8398 201.936 18.0393 201.716C17.2389 201.497 16.5107 201.108 15.8968 200.572C15.3057 200.046 14.8387 199.388 14.5229 198.637C14.1843 197.84 14.0138 196.958 14.0214 196.044C14.0121 195.124 14.1778 194.186 14.5091 193.282C14.8184 192.441 15.2767 191.649 15.8583 190.95C16.4416 190.256 17.1393 189.672 17.9097 189.233C18.7125 188.771 19.5766 188.473 20.4488 188.356C21.5006 188.204 22.5389 188.305 23.4811 188.652C24.455 189.016 25.3078 189.613 25.9776 190.399L28.7901 187.117C27.8012 186.026 26.5429 185.229 25.1175 184.792C23.6525 184.304 22.0585 184.168 20.4446 184.392C19.0032 184.584 17.5742 185.068 16.2403 185.816C14.9766 186.518 13.8228 187.449 12.8411 188.557C11.8722 189.663 11.1016 190.93 10.5741 192.283C10.0273 193.7 9.74456 195.178 9.7422 196.631C9.73984 198.084 10.0179 199.484 10.5603 200.75C11.0816 201.951 11.8474 202.998 12.8123 203.827C13.7944 204.659 14.9487 205.264 16.2128 205.611C17.5557 205.984 18.9942 206.065 20.4446 205.848ZM74.822 198.237C76.2586 198.046 77.6829 197.562 79.0112 196.815C80.2694 196.115 81.4141 195.182 82.3795 194.068C83.3449 192.954 84.1118 191.682 84.6362 190.326C85.1853 188.916 85.4681 187.444 85.4681 185.998C85.4681 184.551 85.1853 183.159 84.6362 181.903C84.1119 180.694 83.345 179.638 82.3796 178.795C81.4142 177.953 80.2694 177.341 79.0112 176.995C76.3331 176.261 73.3384 176.682 70.6602 178.169C69.402 178.868 68.2573 179.802 67.2919 180.916C66.3265 182.03 65.5595 183.301 65.0352 184.658C64.4866 186.068 64.2039 187.54 64.2039 188.986C64.2039 190.433 64.4866 191.825 65.0352 193.08C65.5596 194.29 66.3266 195.346 67.2919 196.188C68.2573 197.031 69.4021 197.643 70.6602 197.989C71.98 198.362 73.394 198.447 74.822 198.237ZM74.822 194.279C73.9789 194.405 73.1432 194.353 72.3662 194.127C71.5891 193.901 70.8871 193.506 70.303 192.965C69.7269 192.421 69.2739 191.752 68.9689 190.995C68.3182 189.358 68.3182 187.443 68.9689 185.623C69.2765 184.785 69.7293 183.994 70.303 183.293C70.8871 182.588 71.5891 181.995 72.3662 181.551C73.1432 181.106 73.9789 180.82 74.822 180.708C75.6898 180.58 76.5496 180.636 77.3473 180.874C78.1091 181.098 78.7972 181.487 79.3698 182.019C79.9435 182.559 80.3963 183.222 80.7039 183.973C81.3543 185.611 81.3543 187.525 80.7039 189.346C80.3989 190.189 79.9459 190.985 79.3698 191.691C78.7971 192.383 78.109 192.966 77.3473 193.404C76.5499 193.865 75.6893 194.164 74.822 194.279ZM137.894 189.046V185.238L126.902 186.782V169.758L122.744 170.342V191.173L137.894 189.046ZM190.35 181.674V177.865L179.359 179.41V162.386L175.198 162.97V183.801L190.35 181.674ZM243.207 174.246V170.496L231.815 172.097V167.155L239.248 166.111V162.48L231.815 163.524V158.767L243.093 157.182V153.433L227.652 155.603V176.433L243.207 174.246ZM289.35 168.057C290.931 167.833 292.493 167.258 293.927 166.373C295.336 165.537 296.587 164.405 297.585 163.062L294.858 160.649C294.189 161.567 293.358 162.356 292.419 162.962C291.498 163.548 290.487 163.924 289.464 164.061C288.601 164.192 287.744 164.146 286.944 163.927C286.144 163.707 285.416 163.318 284.802 162.782C284.211 162.257 283.744 161.599 283.428 160.847C283.089 160.051 282.918 159.169 282.925 158.255C282.916 157.335 283.082 156.396 283.414 155.493C283.723 154.652 284.18 153.86 284.762 153.161C285.345 152.467 286.043 151.883 286.813 151.444C287.616 150.982 288.48 150.683 289.353 150.567C290.408 150.414 291.45 150.517 292.395 150.867C293.369 151.231 294.221 151.828 294.891 152.614L297.704 149.332C296.715 148.241 295.456 147.445 294.031 147.007C292.566 146.52 290.973 146.383 289.359 146.606C287.918 146.799 286.489 147.283 285.155 148.031C283.891 148.733 282.737 149.663 281.755 150.77C280.785 151.877 280.014 153.144 279.486 154.497C278.94 155.914 278.657 157.392 278.655 158.845C278.652 160.298 278.93 161.698 279.472 162.964C279.994 164.165 280.76 165.211 281.724 166.041C282.707 166.872 283.861 167.478 285.125 167.825C286.466 168.195 287.902 168.275 289.35 168.057ZM344.388 160.025V143.001L351.13 142.053V138.243L333.454 140.727V144.537L340.226 143.586V160.607L344.388 160.025ZM392.051 153.327V132.496L387.891 133.081V153.912L392.051 153.327ZM439.973 146.92C441.41 146.729 442.834 146.245 444.163 145.498C445.421 144.798 446.565 143.864 447.531 142.751C448.496 141.637 449.263 140.365 449.788 139.008C450.336 137.598 450.619 136.127 450.619 134.68C450.619 133.234 450.336 131.842 449.788 130.586C449.263 129.377 448.496 128.321 447.531 127.478C446.566 126.636 445.421 126.024 444.163 125.678C441.485 124.944 438.491 125.365 435.813 126.851C434.555 127.552 433.411 128.486 432.446 129.599C431.481 130.713 430.714 131.984 430.189 133.34C429.64 134.75 429.357 136.222 429.357 137.669C429.357 139.115 429.64 140.507 430.189 141.763C430.714 142.972 431.481 144.027 432.446 144.87C433.411 145.712 434.555 146.324 435.813 146.671C437.132 147.044 438.546 147.127 439.973 146.917V146.92ZM439.973 142.962C439.11 143.091 438.255 143.034 437.463 142.794C436.707 142.567 436.023 142.177 435.454 141.648C434.877 141.105 434.424 140.436 434.119 139.678C433.468 138.04 433.468 136.126 434.119 134.305C434.426 133.467 434.88 132.677 435.454 131.976C436.023 131.286 436.707 130.704 437.463 130.265C438.255 129.802 439.11 129.505 439.973 129.391C440.841 129.263 441.7 129.319 442.497 129.557C443.259 129.781 443.948 130.17 444.521 130.701C445.095 131.241 445.548 131.905 445.855 132.656C446.507 134.293 446.507 136.208 445.855 138.028C445.55 138.872 445.097 139.668 444.521 140.373C443.948 141.066 443.259 141.649 442.497 142.086C441.7 142.548 440.84 142.845 439.973 142.959V142.962ZM491.825 139.306V125.372L502.07 137.866L505.742 137.35V116.52L501.84 117.068V130.549L491.854 118.471L487.893 119.028V139.858L491.825 139.306Z" fill="white"/>
<path fill-rule="evenodd" clip-rule="evenodd" d="M13.478 54.3901C13.3241 53.6744 13.3829 48.7317 13.4451 47.8599C14.4317 47.5793 15.2935 47.4842 16.1627 47.3883C16.3592 47.3666 16.5561 47.3449 16.755 47.321C17.1466 47.2738 17.6199 47.1925 18.1317 47.1045C19.8315 46.8124 21.9553 46.4475 22.919 47.021C24.6714 48.0638 24.877 50.5764 23.186 52.2762C22.2653 53.2016 21.1847 53.3731 19.9667 53.5153C18.8112 53.6501 17.6882 53.8108 16.5662 53.9713C15.5447 54.1174 14.5228 54.2636 13.478 54.3901ZM13.506 44.0596C13.4814 43.9662 13.3641 38.2799 13.4856 37.535C13.489 37.5143 13.4937 37.4915 13.4981 37.4702C13.5007 37.4579 13.5031 37.4461 13.5052 37.4354L13.5568 37.2375C14.0912 37.0879 17.7686 36.5533 18.201 36.6169C21.5768 37.1138 21.4405 41.887 18.4122 43.1641C17.3193 43.625 15.87 43.7859 14.6263 43.9239C14.2252 43.9684 13.8455 44.0105 13.506 44.0596ZM10.4851 58.4095L10.3793 58.4139C10.2665 57.7795 10.1326 57.1027 9.97616 56.3815C9.70286 54.7442 9.73066 53.3075 9.76033 51.7743C9.76764 51.3966 9.77506 51.013 9.77812 50.6191L9.76732 39.2119C9.75764 37.0204 9.75406 35.8546 11.3257 34.4561C12.4618 33.4449 14.1814 33.2999 15.6795 33.1735C16.035 33.1436 16.3781 33.1146 16.6979 33.0754C18.9786 32.7959 19.9228 32.8852 21.4083 33.6959C22.7032 34.4026 23.7997 35.6901 24.2009 37.6908C24.6033 39.6966 24.3078 40.4491 23.933 41.4032C23.762 41.8388 23.5744 42.3163 23.4292 42.9742C23.5568 43.093 23.8171 43.2013 24.1462 43.3382C24.7181 43.5762 25.4979 43.9006 26.1512 44.5172C29.0019 47.2075 28.4434 51.599 25.7807 54.5568C23.7616 56.7997 21.4475 57.0502 18.776 57.3393L18.7694 57.34C18.6398 57.354 18.5092 57.3682 18.3779 57.3826C17.3523 57.4955 16.3203 57.6618 15.2854 57.8286C13.6881 58.0859 12.0838 58.3445 10.4851 58.4095Z" fill="white"/>
<path fill-rule="evenodd" clip-rule="evenodd" d="M75.3901 28.3189C78.0268 26.7788 80.7933 26.8478 82.7664 27.5266C84.9407 28.2745 86.0013 29.407 87.326 31.7592C88.5175 33.8749 87.8682 37.5248 87.0511 39.2794C84.7188 44.2873 79.3397 46.9247 74.7134 45.2836C70.2967 43.717 68.2508 38.214 70.6078 33.4722C71.7004 31.274 72.8446 29.8057 75.3901 28.3189ZM75.0507 24.5854C74.2406 25.143 72.8095 25.4179 70.5366 27.6462C69.2803 28.878 68.4411 30.1228 67.6242 31.5736C64.1664 37.7145 66.1458 45.9243 72.5172 48.6132C82.8815 52.9873 94.5639 41.1232 91.0866 30.7694C89.5419 26.1698 85.1956 23.2483 80.6913 23.3448C79.4312 23.3718 76.3662 23.6801 75.0507 24.5854Z" fill="white"/>
<path fill-rule="evenodd" clip-rule="evenodd" d="M153.986 26.2124C153.556 24.9177 154.828 21.2218 155.391 20.1786C157.875 15.5719 161.955 14.2746 164.883 17.9453C166.256 19.6663 166.746 21.7112 166.891 24.3508C166.25 24.6347 156.172 25.8636 153.986 26.2124ZM153.8 38.1991C154.026 37.5877 153.918 31.2595 153.914 30.062C154.301 29.9067 166.388 28.1987 166.768 28.2593C166.987 28.9654 166.89 31.3887 166.894 32.3253C166.898 33.2433 166.758 35.7377 166.972 36.4209C171.296 35.35 170.479 31.8328 170.639 29.8407C170.742 28.5482 170.632 26.906 170.639 25.5376C170.648 23.8343 170.758 22.9041 170.411 21.0407C169.428 15.7485 165.715 11.1303 160.137 12.1924C154.231 13.317 151.01 19.3985 150.379 24.0804C150.17 25.6251 150.135 30.8617 150.175 32.5592C150.204 33.7654 149.953 35.7938 150.646 36.8084C151.271 37.7228 152.514 38.6022 153.8 38.1991Z" fill="white"/>
<path fill-rule="evenodd" clip-rule="evenodd" d="M33.8087 43.0001C33.32 40.2344 35.5656 33.7897 39.9444 32.7619C44.8696 31.6059 47.1035 39.2122 46.6281 41.0963C45.8272 41.4911 38.7208 42.3133 36.93 42.6019C35.8668 42.7731 34.7606 42.7868 33.8087 43.0001ZM33.6502 54.9903C33.762 52.6852 33.7201 49.1487 33.6492 46.911C34.006 46.6963 46.0643 44.9788 46.5754 45.0489C46.8038 45.8165 46.6418 48.1316 46.65 49.0797C46.659 50.1074 46.5494 52.4043 46.7375 53.2467C50.3299 52.3346 50.6041 49.606 50.4071 46.6172L50.4302 42.3361C50.4539 37.7257 49.9837 34.0727 46.6358 30.9362C44.9649 29.3708 42.9502 28.5945 39.9774 28.9763C36.7215 29.3944 34.4265 31.8214 33.0149 33.7041C31.6305 35.5505 30.5454 38.3121 30.1817 40.8795C29.8088 43.5119 29.9885 46.6128 29.9612 49.3198C29.9478 50.6497 29.7516 52.4571 30.4344 53.6316C31.0346 54.6638 32.3384 55.3086 33.6502 54.9903Z" fill="white"/>
<path fill-rule="evenodd" clip-rule="evenodd" d="M137.358 19.4902C139.922 17.8541 142.578 19.1067 143.461 20.9454C144.696 23.5166 143.157 26.2528 141.112 27.4264C135.568 30.609 131.764 23.0596 137.358 19.4902ZM134.648 32.3301C135.185 32.3883 135.586 32.9096 136.169 33.4236C137.373 34.4859 142.381 38.9704 143.161 39.3181C144.598 39.958 146.068 39.3387 147.407 38.2398C147.097 37.2099 140.89 32.8222 140.357 31.6118C147.084 29.3222 149.06 22.43 146.391 18.2066C142.816 12.5505 133.467 14.7589 131.256 22.3224C130.708 24.1968 130.975 33.0412 130.961 35.2386L130.957 40.6483C130.952 41.1235 130.825 41.3863 131.23 41.3995C131.726 41.4157 132.948 40.6841 133.269 40.3579C135.326 38.2706 134.332 35.8743 134.648 32.3301Z" fill="white"/>
<path fill-rule="evenodd" clip-rule="evenodd" d="M129.18 41.6781C128.653 37.031 124.56 38.9499 121.691 39.1067C121.045 39.1421 118.702 39.7101 118.395 39.4982L118.295 39.353C118.288 39.3334 118.264 39.2972 118.256 39.2722C118.135 38.9061 118.268 36.5883 118.239 35.8288C118.192 34.6358 118.227 33.2149 118.25 32.0207C119.682 31.4678 124.67 31.3573 125.572 30.7683C125.446 28.9265 124.301 27.964 123.073 27.7331C121.749 27.4841 119.09 28.2778 118.318 28.1577C118.212 27.6628 118.144 22.9122 118.352 22.4069L125.007 21.4374C126.32 21.3064 127.224 20.905 128.066 20.0203C128.675 19.3808 129.33 18.2079 129.123 17.1532L124.444 17.7581C123.822 17.8481 123.266 18.0058 122.661 18.0768C117.502 18.6823 114.37 18.3626 114.573 24.8514C114.654 27.4281 114.383 39.8048 114.706 41.1078C115.517 44.3836 119.771 43.123 122.628 42.6743C123.762 42.4961 124.76 42.4391 125.887 42.2212C126.882 42.0288 128.262 42.0417 129.18 41.6781Z" fill="white"/>
<path fill-rule="evenodd" clip-rule="evenodd" d="M113.369 19.436L106.788 20.3134C104.256 20.6677 102.167 21.3985 99.9793 22.8622C89.7835 29.6826 91.8638 43.965 103.195 45.038C105.339 45.241 107.379 44.7357 109.656 44.5046C110.156 44.4539 110.717 44.3552 111.251 44.274C113.066 43.9978 113.838 44.4352 113.132 42.6572C111.97 39.7272 108.518 41.0827 106.391 41.2534C102.132 41.5951 98.7062 40.3074 97.3611 36.1258C96.0369 32.0086 98.6033 27.6733 102.451 25.4581C106.975 22.8539 109.718 24.8707 112.252 22.2507C112.902 21.5789 113.484 20.5239 113.369 19.436Z" fill="white"/>
<path fill-rule="evenodd" clip-rule="evenodd" d="M56.7383 30.9663C57.0416 32.167 56.5511 50.2832 56.9062 51.8274C61.258 50.5979 60.3802 47.3082 60.4678 44.9854C60.5464 42.9012 60.3305 30.9002 60.5411 30.5841C60.738 30.2885 61.441 30.3048 61.6523 30.2815C62.5211 30.1854 64.7462 29.87 65.4262 29.5062C66.9636 28.6839 67.8126 27.2594 67.7663 25.7534C67.3436 25.6692 52.5683 27.7416 50.3656 28.0828C49.415 28.2301 49.3355 28.2934 49.6386 29.2922C50.6198 32.5244 54.3952 31.1778 56.7383 30.9663Z" fill="white"/>
</svg>
