<svg width="120" height="81" viewBox="0 0 120 81" fill="none" xmlns="http://www.w3.org/2000/svg">
<path fill-rule="evenodd" clip-rule="evenodd" d="M46.5 3.5C46.5 1.84315 47.8431 0.5 49.5 0.5H70.5C72.1569 0.5 73.5 1.84315 73.5 3.5V46.5C73.5 48.1569 72.1569 49.5 70.5 49.5H49.5C47.8431 49.5 46.5 48.1569 46.5 46.5V3.5ZM49.5 2.5C48.9477 2.5 48.5 2.94772 48.5 3.5V46.5C48.5 47.0523 48.9477 47.5 49.5 47.5H70.5C71.0523 47.5 71.5 47.0523 71.5 46.5V3.5C71.5 2.94772 71.0523 2.5 70.5 2.5H49.5Z" fill="white"/>
<path fill-rule="evenodd" clip-rule="evenodd" d="M60 44C63.3137 44 66 41.3137 66 38C66 34.6863 63.3137 32 60 32C56.6863 32 54 34.6863 54 38C54 41.3137 56.6863 44 60 44ZM60 45.5C64.1421 45.5 67.5 42.1421 67.5 38C67.5 33.8579 64.1421 30.5 60 30.5C55.8579 30.5 52.5 33.8579 52.5 38C52.5 42.1421 55.8579 45.5 60 45.5Z" fill="white"/>
<path fill-rule="evenodd" clip-rule="evenodd" d="M60 41.5C61.933 41.5 63.5 39.933 63.5 38C63.5 36.067 61.933 34.5 60 34.5C58.067 34.5 56.5 36.067 56.5 38C56.5 39.933 58.067 41.5 60 41.5ZM60 42.5C62.4853 42.5 64.5 40.4853 64.5 38C64.5 35.5147 62.4853 33.5 60 33.5C57.5147 33.5 55.5 35.5147 55.5 38C55.5 40.4853 57.5147 42.5 60 42.5Z" fill="white"/>
<path fill-rule="evenodd" clip-rule="evenodd" d="M55.5 6.5H52.5V9.5H55.5V6.5ZM51.5 5.5V10.5H56.5V5.5H51.5Z" fill="white"/>
<path fill-rule="evenodd" clip-rule="evenodd" d="M61.5 6.5H58.5V9.5H61.5V6.5ZM57.5 5.5V10.5H62.5V5.5H57.5Z" fill="white"/>
<path fill-rule="evenodd" clip-rule="evenodd" d="M67.5 6.5H64.5V9.5H67.5V6.5ZM63.5 5.5V10.5H68.5V5.5H63.5Z" fill="white"/>
<path fill-rule="evenodd" clip-rule="evenodd" d="M55.5 12.5H52.5V15.5H55.5V12.5ZM51.5 11.5V16.5H56.5V11.5H51.5Z" fill="white"/>
<path fill-rule="evenodd" clip-rule="evenodd" d="M61.5 12.5H58.5V15.5H61.5V12.5ZM57.5 11.5V16.5H62.5V11.5H57.5Z" fill="white"/>
<path fill-rule="evenodd" clip-rule="evenodd" d="M67.5 12.5H64.5V15.5H67.5V12.5ZM63.5 11.5V16.5H68.5V11.5H63.5Z" fill="white"/>
<path fill-rule="evenodd" clip-rule="evenodd" d="M55.5 24.5H52.5V27.5H55.5V24.5ZM51.5 23.5V28.5H56.5V23.5H51.5Z" fill="white"/>
<path fill-rule="evenodd" clip-rule="evenodd" d="M61.5 24.5H58.5V27.5H61.5V24.5ZM57.5 23.5V28.5H62.5V23.5H57.5Z" fill="white"/>
<path fill-rule="evenodd" clip-rule="evenodd" d="M67.5 24.5H64.5V27.5H67.5V24.5ZM63.5 23.5V28.5H68.5V23.5H63.5Z" fill="white"/>
<path fill-rule="evenodd" clip-rule="evenodd" d="M55.5 18.5H52.5V21.5H55.5V18.5ZM51.5 17.5V22.5H56.5V17.5H51.5Z" fill="white"/>
<path fill-rule="evenodd" clip-rule="evenodd" d="M61.5 18.5H58.5V21.5H61.5V18.5ZM57.5 17.5V22.5H62.5V17.5H57.5Z" fill="white"/>
<path fill-rule="evenodd" clip-rule="evenodd" d="M67.5 18.5H64.5V21.5H67.5V18.5ZM63.5 17.5V22.5H68.5V17.5H63.5Z" fill="white"/>
</svg>
