<svg width="668" height="154" viewBox="0 0 668 154" fill="none" xmlns="http://www.w3.org/2000/svg">
<path d="M140.856 33.3594H244.898V52.0335H157.93V58.9696H239.029L243.297 60.5702L247.032 64.8386L248.099 67.5063V95.2507L245.431 100.053L242.763 102.187L239.562 103.787H132.319V84.5798H222.489V77.6437H139.255L134.987 74.4424L132.319 70.1741V41.3626L134.454 37.0942L138.722 33.8929L140.856 33.3594Z" fill="white"/>
<path d="M414.565 33.3594H440.176V55.2348H509.003V33.3594H534.613V95.7843L531.946 100.053L528.744 102.72L527.677 103.254H414.565V84.5798H509.003V73.9089H421.502L417.233 70.7076L414.565 66.4392V33.3594Z" fill="black"/>
<path fill-rule="evenodd" clip-rule="evenodd" d="M311.057 33.3594H285.447V103.787H311.057V74.976L327.064 82.9792L339.335 88.8482L369.214 103.787H526.077L528.744 102.72L531.946 100.053L534.613 95.7843V33.3594H509.003V55.2348H440.176V33.3594H370.815L368.147 34.4265L345.738 45.6309L333.466 51.5L311.057 62.7044V33.3594ZM414.565 34.4265H413.498L403.361 39.2284L379.885 50.9664L367.613 56.8354L346.272 67.5063L344.137 69.107L362.278 78.1773L374.55 84.0463L395.891 94.7172L411.364 102.187L414.565 103.254V84.5798H509.003V73.9089L421.502 73.3753L417.767 70.7076L415.099 66.4392L414.565 34.4265Z" fill="white"/>
<path fill-rule="evenodd" clip-rule="evenodd" d="M659.463 33.3594H550.086L545.817 36.0271L542.616 40.2955V95.7843L544.75 100.053L547.418 102.187L551.153 103.787H659.463L662.131 102.72L665.865 99.5191L668 95.2507V40.829L665.865 37.0942L663.198 34.96L659.463 33.3594ZM642.389 52.567H568.226V84.5798H642.389V52.567Z" fill="white"/>
<path d="M252.367 60.0371H278.511V103.788H252.367V60.0371Z" fill="white"/>
<path fill-rule="evenodd" clip-rule="evenodd" d="M115.246 33.3594H0V103.787H25.6102V83.5127H115.246L117.914 82.4456L121.649 79.2444L123.783 74.976V41.8961L122.716 39.2284L119.514 35.4936L115.246 33.3594ZM100.84 52.567H25.6102V64.3051H100.84V52.567Z" fill="#EF2618"/>
<path d="M256.102 33.3594H281.713L278.511 41.8961L274.243 52.567H248.633L249.166 49.8993L255.035 34.96L256.102 33.3594Z" fill="#EF281A"/>
<path d="M43.751 0.8125H58.1567L65.0928 9.34924L67.7606 6.68151L72.5625 0.8125H86.4347V15.2183H78.965V4.54732L74.6967 8.28215L69.8947 14.1512L68.8277 15.2183H61.8916L56.0225 8.81569L52.8213 5.08087L51.7542 4.54732V15.2183H43.751V0.8125Z" fill="white"/>
<path d="M206.482 0.8125H220.888L226.757 8.28215L227.291 9.88279H228.358L229.425 7.7486L234.76 0.8125H249.166V15.2183H241.163V9.88279L241.696 4.54732L239.562 5.61442L234.76 11.4834L231.559 15.2183H224.089L219.288 9.34924L215.553 5.08087L213.952 4.54732V15.2183H206.482V0.8125Z" fill="white"/>
<path d="M380.419 0.8125H387.889L393.224 8.81569L394.291 11.4834L395.892 10.9499L400.16 2.94669L401.227 0.8125H410.831L416.167 10.4163V11.4834L417.767 10.9499L424.17 0.8125H432.173L431.106 3.48023L423.103 15.2183H410.831L406.563 6.14796L406.029 5.61442L401.761 14.6847L401.227 15.2183H388.956L380.419 1.87959V0.8125Z" fill="white"/>
<path d="M291.85 0.8125H305.722L313.191 6.68151L318.527 10.9499L319.06 0.8125H327.064V15.2183H313.191L306.255 9.34924L299.853 4.54732V15.2183H291.85V0.8125Z" fill="white"/>
<path d="M257.169 0.8125H284.38V4.01378H264.639V6.14796H283.846V9.34924H264.639V11.4834H284.913V15.2183H257.169V0.8125Z" fill="white"/>
<path d="M171.802 0.8125H199.013V4.01378H179.271V6.14796H197.946V9.34924H179.271V11.4834H199.546V15.2183H171.802V0.8125Z" fill="white"/>
<path d="M517.54 0.8125H525.01V6.14796L529.812 5.61442L538.348 0.8125H550.086L547.952 2.41314L537.281 7.7486L545.818 12.017L551.687 14.6847V15.2183H539.949L529.812 10.4163L525.543 9.88279V15.2183H517.54V0.8125Z" fill="white"/>
<path d="M94.4375 0.8125H101.907L102.441 10.9499H117.38L118.447 10.4163L118.981 0.8125H126.984V11.4834L125.917 13.6176L122.715 15.2183H98.1723L94.971 13.0841L94.4375 12.017V0.8125Z" fill="white"/>
<path d="M332.933 0.8125H363.345V4.54732H352.14V15.2183H344.137V4.54732H332.933V0.8125Z" fill="white"/>
<path fill-rule="evenodd" clip-rule="evenodd" d="M467.92 0.8125H440.709L439.642 1.34605L437.508 3.48023V12.5505L438.041 13.6176L440.709 15.2183H467.386L469.521 14.6847L471.655 12.017V4.01378L470.588 2.41314L467.92 0.8125ZM462.584 4.54732H446.045L444.977 5.61442V9.88279L445.511 10.9499L447.112 11.4834H462.584L463.652 10.4163V5.61442L462.584 4.54732Z" fill="white"/>
<path fill-rule="evenodd" clip-rule="evenodd" d="M507.403 0.8125H479.125V15.2183H486.595V11.4834L501.534 12.017L502.067 15.2183H510.071V10.9499L508.47 9.88279L510.071 8.28215V2.94669L509.537 1.87959L507.403 0.8125ZM502.067 4.54732H486.595V7.7486H502.067L502.601 7.21506L502.067 4.54732Z" fill="white"/>
<path d="M141.39 0.279297H156.329L161.664 1.34639L163.799 3.48057V5.08121H163.265L156.329 4.54767L155.262 4.01412H141.923V6.14831H156.329L156.813 6.11079L157.93 6.14831L163.265 7.2154L164.332 8.28249V13.0844L162.731 14.685L161.131 15.2186L155.262 15.7521H142.457L136.588 15.2186L133.92 13.0844V10.4167H141.39L141.923 12.0173H156.329V9.88313L148.859 9.34958H139.255L138.32 9.44337L136.588 9.34958L133.92 7.2154V3.48057L136.054 1.34639L141.39 0.279297Z" fill="white"/>
<path d="M582.632 0.8125H559.156L556.489 2.94669V7.21506L559.156 9.34924L578.898 10.4163V11.4834H564.492L563.958 10.4163H555.955V13.0841L559.156 15.2183H583.699L585.3 14.6847L586.901 12.5505V8.81569L585.3 7.21506L582.099 6.14796L579.802 6.07814L578.898 6.14796H564.492V4.01378H577.83L578.364 4.54732L585.834 5.08087L585.3 1.87959L582.632 0.8125Z" fill="white"/>
<path fill-rule="evenodd" clip-rule="evenodd" d="M25.6102 0.8125H12.8051L6.9361 7.21506L3.20128 11.4834L0 15.2183H9.07029L10.6709 13.6176H27.7444L29.345 15.2183H37.8818L36.2812 12.5505L30.4121 6.14796L25.6102 0.8125ZM20.2748 4.54732L18.1406 4.01378L17.0735 5.61442L13.8722 9.34924H24.0096V8.81569L20.2748 4.54732Z" fill="white"/>
<path d="M14.4138 153.212C16.5434 153.209 18.6468 152.735 20.5775 151.823C22.4761 150.972 24.1607 149.697 25.5052 148.093V148.093L21.834 144.362C20.933 145.462 19.8139 146.357 18.5495 146.99C17.3091 147.599 15.9473 147.911 14.5692 147.902C13.4063 147.915 12.2524 147.693 11.1744 147.25C10.0964 146.808 9.11563 146.153 8.2889 145.323C7.49281 144.51 6.86382 143.546 6.43848 142.485C5.98247 141.358 5.75284 140.151 5.76308 138.933C5.75065 137.704 5.97375 136.484 6.41997 135.34C6.8365 134.277 7.45376 133.307 8.23709 132.484C9.02263 131.667 9.96218 131.019 10.9998 130.578C12.081 130.113 13.2447 129.876 14.4193 129.884C15.8359 129.878 17.2342 130.208 18.5032 130.847C19.8148 131.515 20.9634 132.471 21.8654 133.645V133.645L25.6532 129.796C24.3214 128.155 22.6268 126.857 20.7071 126.006C18.7341 125.081 16.5872 124.6 14.4138 124.596C12.4725 124.583 10.5479 124.961 8.7515 125.707C7.04956 126.408 5.4956 127.432 4.17357 128.726C2.86866 130.02 1.83077 131.565 1.12038 133.27C0.383946 135.058 0.00319566 136.976 2.003e-05 138.913C-0.0031556 140.851 0.371306 142.77 1.10187 144.561C1.80386 146.26 2.8352 147.799 4.13471 149.086C5.45736 150.379 7.01198 151.403 8.71449 152.103C10.523 152.852 12.4603 153.229 14.4138 153.212V153.212ZM87.6478 153.253C89.5826 153.268 91.5008 152.89 93.2897 152.142C94.9842 151.445 96.5259 150.414 97.826 149.11C99.1262 147.805 100.159 146.253 100.865 144.542C101.605 142.765 101.986 140.855 101.986 138.926C101.986 136.997 101.605 135.087 100.865 133.309C100.159 131.598 99.1263 130.046 97.8262 128.741C96.526 127.437 94.9842 126.406 93.2897 125.709C89.6829 124.228 85.6497 124.228 82.0429 125.709C80.3484 126.406 78.8066 127.437 77.5064 128.741C76.2063 130.046 75.1734 131.598 74.4673 133.309C73.7283 135.087 73.3476 136.997 73.3476 138.926C73.3476 140.855 73.7283 142.764 74.4673 144.542C75.1735 146.253 76.2064 147.805 77.5065 149.11C78.8067 150.414 80.3484 151.445 82.0429 152.142C83.8203 152.887 85.7265 153.264 87.6496 153.252L87.6478 153.253ZM87.6478 147.975C86.5123 147.985 85.3869 147.759 84.3404 147.312C83.2939 146.865 82.3484 146.206 81.5618 145.375C80.7859 144.542 80.1758 143.565 79.765 142.498C78.8887 140.192 78.8887 137.639 79.765 135.333C80.1792 134.273 80.7891 133.304 81.5618 132.476C82.3484 131.645 83.2939 130.986 84.3404 130.539C85.3869 130.092 86.5123 129.867 87.6478 129.876C88.8166 129.867 89.9745 130.104 91.0489 130.571C92.0747 131.012 93.0015 131.66 93.7727 132.476C94.5454 133.304 95.1552 134.273 95.5694 135.333C96.4454 137.639 96.4454 140.192 95.5694 142.498C95.1587 143.565 94.5486 144.542 93.7727 145.375C93.0014 146.191 92.0747 146.839 91.0489 147.281C89.9749 147.747 88.8177 147.982 87.6496 147.973L87.6478 147.975ZM172.591 152.818V147.739H157.788V125.033H152.189V152.814L172.591 152.818ZM243.238 152.818V147.739H228.435V125.033H222.832V152.814L243.238 152.818ZM314.424 152.818V147.817H299.082V141.227H309.093V136.384H299.082V130.04H314.27V125.039H293.475V152.82L314.424 152.818ZM376.568 153.214C378.698 153.211 380.801 152.737 382.732 151.825C384.631 150.974 386.315 149.699 387.66 148.095V148.095L383.987 144.365C383.086 145.466 381.967 146.361 380.702 146.993C379.462 147.603 378.1 147.915 376.722 147.906C375.559 147.918 374.406 147.697 373.328 147.254C372.25 146.811 371.27 146.156 370.443 145.327C369.647 144.514 369.018 143.55 368.593 142.488C368.137 141.362 367.906 140.155 367.916 138.937C367.904 137.707 368.127 136.487 368.575 135.344C368.99 134.281 369.606 133.31 370.39 132.487C371.175 131.67 372.115 131.022 373.152 130.582C374.234 130.116 375.397 129.88 376.572 129.888C377.994 129.882 379.397 130.215 380.669 130.858C381.981 131.526 383.129 132.482 384.031 133.657V133.657L387.819 129.807C386.487 128.166 384.792 126.868 382.873 126.017C380.9 125.092 378.754 124.612 376.581 124.607C374.64 124.594 372.715 124.972 370.919 125.719C369.217 126.418 367.662 127.442 366.339 128.735C365.034 130.029 363.995 131.574 363.284 133.279C362.548 135.067 362.167 136.985 362.164 138.923C362.161 140.861 362.535 142.78 363.266 144.57C363.968 146.269 364.999 147.808 366.299 149.096C367.621 150.388 369.176 151.412 370.878 152.112C372.685 152.857 374.619 153.231 376.568 153.212V153.214ZM450.692 152.818V130.113H459.772V125.032H435.967V130.113H445.087V152.814L450.692 152.818ZM514.883 152.818V125.037H509.28V152.818H514.883ZM579.424 153.255C581.359 153.27 583.277 152.892 585.066 152.144C586.761 151.447 588.302 150.416 589.602 149.112C590.903 147.807 591.936 146.255 592.642 144.544C593.381 142.766 593.761 140.857 593.761 138.928C593.761 136.998 593.381 135.089 592.642 133.311C591.936 131.6 590.903 130.048 589.603 128.743C588.302 127.439 586.761 126.408 585.066 125.711C581.46 124.231 577.427 124.231 573.821 125.711C572.127 126.409 570.586 127.44 569.287 128.745C567.987 130.049 566.954 131.601 566.247 133.311C565.507 135.089 565.126 136.998 565.126 138.928C565.126 140.857 565.507 142.767 566.247 144.544C566.954 146.254 567.987 147.806 569.287 149.111C570.586 150.415 572.127 151.446 573.821 152.144C575.598 152.888 577.502 153.265 579.424 153.252V153.255ZM579.424 147.977C578.262 147.987 577.11 147.751 576.043 147.282C575.025 146.838 574.105 146.19 573.338 145.377C572.561 144.545 571.95 143.568 571.54 142.5C570.663 140.194 570.663 137.64 571.54 135.335C571.954 134.275 572.564 133.305 573.338 132.478C574.105 131.665 575.025 131.017 576.043 130.573C577.11 130.104 578.262 129.868 579.424 129.878C580.592 129.869 581.75 130.106 582.823 130.573C583.85 131.014 584.777 131.662 585.549 132.478C586.322 133.306 586.932 134.275 587.346 135.335C588.223 137.64 588.223 140.194 587.346 142.5C586.935 143.567 586.325 144.544 585.549 145.377C584.777 146.193 583.85 146.841 582.823 147.282C581.749 147.748 580.592 147.983 579.424 147.973V147.977ZM649.257 152.82V134.237L663.054 152.82H668V125.039H662.745V143.018L649.296 125.039H643.961V152.82H649.257Z" fill="white"/>
</svg>
