<svg width="450" height="132" viewBox="0 0 450 132" fill="none" xmlns="http://www.w3.org/2000/svg">
<path d="M122.748 40.6877C120.335 44.2487 117.254 47.9971 113.517 51.9212C114.056 47.9385 114.935 44.1901 116.141 40.6877C117.102 37.9116 118.226 35.1589 119.491 32.4413C120.218 30.8834 121.459 28.4586 123.205 25.2022C124.95 21.9458 127.293 18.6308 130.221 15.2807C133.149 11.9306 135.153 10.2438 136.242 10.2438C136.722 10.2438 136.968 10.6069 136.968 11.3332C136.968 13.0902 135.726 16.5809 133.255 21.8404C131.076 26.4321 128.757 30.8365 126.274 35.0651L122.748 40.6877ZM146.128 40.6174C144.863 42.7259 143.376 44.7289 141.689 46.5914C140.002 48.4656 138.034 50.3047 135.797 52.1203C136.218 49.5901 136.675 47.5051 137.156 45.8769C137.636 44.2487 138.304 42.4916 139.147 40.6174L141.864 35.0886C143.856 31.7033 145.882 28.6812 147.932 26.0222C150.287 23 151.95 21.5007 152.91 21.5007C153.578 21.5007 153.906 21.9575 153.906 22.8595C153.906 24.0074 153.18 26.2096 151.739 29.4777C150.591 32.0196 149.326 34.6083 147.932 37.2673L146.128 40.6174ZM181.785 40.6877L184.174 35.8851C184.409 35.4634 184.174 35.1471 183.448 34.9363C182.722 34.7254 181.761 34.62 180.555 34.62C179.711 34.62 178.915 34.6669 178.189 34.7606C177.462 34.8543 176.982 35.0769 176.748 35.44L174.206 40.6877C173.117 42.7962 171.969 44.9281 170.774 47.0717C169.567 49.2153 168.232 51.3706 166.78 53.5494C164.73 56.6301 163.031 58.7034 161.707 59.7928C160.384 60.8821 158.99 61.421 157.537 61.421C156.577 61.421 156.085 60.847 156.085 59.699C156.085 58.3168 156.717 56.2552 157.983 53.5376C158.767 51.7806 159.88 49.5784 161.333 46.9194C162.539 44.6821 163.722 42.6088 164.87 40.6643C165.772 39.0947 166.557 37.7124 167.225 36.4942C167.588 35.8265 167.799 35.4048 167.857 35.2291C168.103 34.6903 167.881 34.3038 167.225 34.0929C166.557 33.8821 165.655 33.7766 164.507 33.7766C163.781 33.7766 163.019 33.8703 162.199 34.046C161.379 34.2335 160.923 34.4092 160.794 34.5849L157.081 40.6526C155.874 42.5853 154.785 44.401 153.812 46.0877C152.606 48.2079 151.493 50.3164 150.462 52.4248L149.924 53.5142C148.295 56.6535 146.691 58.9142 145.121 60.3082C143.551 61.6904 142.04 62.3932 140.588 62.3932C138.959 62.3932 137.823 62.0066 137.191 61.2218C136.558 60.437 136.242 59.4648 136.242 58.3168C136.242 57.8366 136.277 57.4734 136.336 57.2275C138.151 56.0795 139.779 54.8379 141.232 53.5142C143.048 51.886 144.945 49.801 146.937 47.2591C148.506 45.2092 150.052 43.007 151.563 40.6526C153.672 37.2087 155.476 33.6361 156.952 29.9228C158.428 26.2096 159.177 23.0469 159.177 20.4582C159.177 18.7714 158.861 17.4946 158.229 16.6512C157.596 15.8078 156.518 15.3861 155.007 15.3861C152.711 15.3861 149.385 17.6469 145.039 22.1801C140.693 26.7133 137.097 31.633 134.262 36.9393L132.365 40.6526C130.315 44.9398 128.956 49.227 128.288 53.5259L127.656 59.1368C126.625 60.2262 125.36 61.257 123.849 62.2175C121.975 63.424 120.44 64.0214 119.234 64.0214C117.43 64.0214 116.036 63.4006 115.064 62.1589C114.091 60.9173 113.611 59.5468 113.611 58.0357L118.507 53.5142C120.745 51.2769 122.689 49.145 124.352 47.1302C126.016 45.1038 127.632 42.9485 129.202 40.6526C130.162 39.2118 130.971 37.9819 131.603 36.9862C132.236 35.9905 132.892 34.9246 133.548 33.7766C135.902 29.794 137.8 26.0456 139.252 22.5432C141.244 17.7172 142.239 13.7579 142.239 10.6772C142.239 8.87331 141.864 7.46767 141.103 6.46029C140.353 5.46463 139.1 4.96094 137.343 4.96094C133.723 4.96094 129.284 7.99478 124.025 14.0625C119.245 19.5913 115.146 25.987 111.702 33.2729C111.093 34.6083 110.542 35.8968 110.027 37.1385C109.511 38.3801 109.019 39.6101 108.527 40.8283C107.625 43.3819 106.923 45.6426 106.442 47.6105C105.962 49.5784 105.716 51.6283 105.716 53.7602C105.599 54.7324 105.54 55.6227 105.54 56.4426V59.0314C105.06 59.6639 103.842 60.6479 101.921 61.9949C99.988 63.342 98.5706 64.0097 97.6687 64.0097C96.8253 64.0097 96.1459 63.8691 95.6305 63.5997C95.1151 63.3303 94.8574 62.8852 94.8574 62.2878C94.8574 62.1121 94.916 61.7841 95.0448 61.2921C95.5251 59.7225 95.9819 58.4223 96.4036 57.3914C96.6496 56.7238 97.1884 55.4235 98.0318 53.4908L101.651 45.2326C101.78 44.8109 101.441 44.4947 100.656 44.2838C99.8709 44.073 98.8752 43.9676 97.6687 43.9676C95.7359 43.9676 94.6114 44.1784 94.3186 44.6118C93.7797 45.6309 93.0184 47.0131 92.0578 48.735C91.0973 50.4687 90.1602 52.05 89.2583 53.5025C87.3841 56.5363 85.6622 58.9259 84.0925 60.683C82.1012 62.9203 80.4378 64.0448 79.1142 64.0448C78.0248 64.0448 77.3571 63.6817 77.076 62.9555C76.8066 62.2292 76.666 61.3975 76.666 60.4253C76.666 58.2583 77.1931 55.9389 78.2474 53.4322C79.3016 50.9372 80.6838 48.571 82.4057 46.3454C84.1277 44.1198 85.955 42.2574 87.8878 40.7463C90.1251 39.0009 91.9641 38.1224 93.4049 38.1224C93.7095 38.1224 93.9672 38.1576 94.178 38.2161C94.3889 38.2747 94.5529 38.6027 94.67 39.1766C94.7871 39.7623 95.0331 40.2192 95.3962 40.5471C95.7594 40.8634 96.2279 41.1211 96.8019 41.2968C97.3759 41.4725 98.1724 41.5545 99.2032 41.5545C99.988 41.496 100.679 41.1914 101.288 40.6526C102.378 39.6921 102.858 38.6378 102.741 37.4899C102.741 34.4795 100.867 32.9801 97.1181 32.9801C94.0374 32.9801 91.0739 33.6712 88.204 35.0651C85.3342 36.4474 82.6049 38.3215 80.0044 40.676C77.8843 42.6088 76.0569 44.6469 74.5224 46.7906C72.9879 48.9342 71.6643 51.1832 70.5866 53.5376C69.3801 56.4309 68.771 58.8791 68.771 60.8704C68.771 63.0492 69.1341 64.9116 69.8487 66.4813C70.8677 68.9529 72.7888 70.1945 75.6118 70.1945C77.24 70.1945 78.7042 69.9134 80.0279 69.3394C81.3515 68.7654 82.7337 67.8284 84.1745 66.5047L85.791 64.8765L86.611 66.4227C87.4544 67.8752 88.4852 69.0231 89.6917 69.8665C90.8982 70.7099 92.3155 71.1316 93.9554 71.1316C97.4578 71.1316 100.995 69.562 104.568 66.4227L106.29 64.8765L107.192 66.4227C108.094 67.8752 109.16 69.0114 110.366 69.8197C111.573 70.6396 112.99 71.0496 114.63 71.0496C116.258 71.0496 118.086 70.6045 120.112 69.7377C122.139 68.8709 124.001 67.7932 125.688 66.5164C126.168 66.2119 126.648 65.8136 127.14 65.3216C127.621 64.8296 128.042 64.3962 128.405 64.0331C128.944 65.0639 129.495 65.9073 130.034 66.5633C131.732 68.6717 133.805 69.7377 136.289 69.7377C137.554 69.7377 138.866 69.4566 140.236 68.8826C141.595 68.3086 142.942 67.5472 144.266 66.575C145.894 65.3099 147.194 64.0565 148.166 62.8383C148.647 64.4431 149.256 65.6496 149.982 66.4696C150.954 67.5941 152.278 68.1563 153.976 68.1563C155.605 68.1563 157.514 67.5941 159.693 66.4579C161.262 65.6262 162.621 64.6539 163.769 63.5177L162.129 66.493L150.767 87.7416C150.076 88.9716 149.736 90.0609 149.736 91.0098C149.736 92.1928 150.333 93.1299 151.552 93.8328C151.973 94.067 152.395 94.1959 152.817 94.1959C153.777 94.1959 154.714 93.6922 155.628 92.6965C156.354 91.9234 181.785 40.6877 181.785 40.6877Z" fill="white"/>
<path d="M65.3976 46.0743C63.6405 44.1767 61.3329 42.3727 58.4865 40.686V39.9597C64.6128 37.9215 70.7273 35.8951 76.8419 33.8569C79.454 32.9901 81.9607 31.725 84.0106 29.8859C87.6887 26.5827 89.5278 22.3892 89.5278 17.3171C89.5278 11.8234 87.4428 7.72363 83.2727 4.99434C79.0909 2.27676 73.2575 0.917969 65.7607 0.917969C54.8201 0.917969 43.5632 4.5375 32.0135 11.7883C19.7961 19.4608 10.8469 29.1246 5.16574 40.7797C4.13493 42.8296 3.24469 44.9498 2.4833 47.1168C1.73363 49.2838 1.1128 51.4626 0.63254 53.6296L0 57.2491V59.5099C0 61.9815 0.515403 64.3359 1.54621 66.5732C2.94014 69.654 5.03689 72.1138 7.83646 73.9529C10.6478 75.7919 13.705 76.7173 17.0317 76.7173C19.3276 76.7173 21.5766 76.2488 23.7905 75.3117C25.9927 74.3746 28.1832 72.9104 30.3619 70.9073C31.7558 69.6422 33.0209 68.178 34.1689 66.5498C35.9845 64.1251 37.6127 61.5246 39.0652 58.7251C39.4283 57.9403 40.2365 56.2066 41.5133 53.5476L45.4257 44.8561L47.417 40.6743C51.8917 30.6825 55.4409 24.0291 58.0648 20.7141C59.5524 18.8516 61.1689 17.364 62.9026 16.2863C65.4093 14.787 66.6275 13.7913 66.5689 13.3111C66.5104 12.7137 65.9364 12.4091 64.8587 12.4091C63.7108 12.4091 62.3754 12.6785 60.8527 13.2291C59.3182 13.7679 57.7954 14.4707 56.296 15.3024C53.5316 16.872 50.4626 20.2104 47.1008 25.3293C45.7186 27.4378 43.4578 31.4087 40.3303 37.2539L38.7138 40.5923L33.0326 53.5359C30.6665 58.9359 28.2534 63.2583 25.7701 66.5381C24.2591 68.4826 22.7011 69.9468 21.0964 70.9425C19.4916 71.9381 17.7814 72.4418 15.9658 72.4418C12.1588 72.4418 9.64037 70.4856 8.43386 66.5615C7.94189 64.8162 7.70761 62.7663 7.70761 60.4118C7.70761 58.4322 8.04731 56.1715 8.70328 53.6296C9.79265 49.7641 11.6903 45.5472 14.4078 40.9671C17.1254 36.387 20.3584 31.9241 24.0951 27.5783C27.8435 23.2443 31.7324 19.4373 35.7853 16.1809C40.7988 12.1397 45.6717 9.18784 50.4158 7.31365C55.1598 5.43946 59.939 4.51407 64.7767 4.51407C74.9794 4.51407 80.0865 8.11018 80.0865 15.3141C80.0865 20.597 77.7789 24.8842 73.152 28.164C71.6527 29.2534 67.3538 31.3502 60.267 34.4543C58.791 35.0868 57.5494 35.7428 56.5537 36.3988C54.1876 37.945 53.6956 41.2365 55.4058 43.4973C56.3897 44.8092 57.3737 46.0977 58.3576 47.3862C59.857 49.3893 60.6067 51.2986 60.6067 53.1259V53.6765C60.6067 56.7689 59.3299 59.4747 56.7763 61.7706C54.2227 64.0665 51.0951 65.5424 47.3936 66.2101C47.8153 65.5424 48.0262 64.5468 48.0262 63.2231C47.909 62.0752 47.5576 61.1264 46.9836 60.365C46.4097 59.6153 45.578 59.1702 44.5003 59.0531C43.2353 58.8656 42.1342 59.2756 41.1971 60.2596C40.26 61.2552 39.7914 62.4032 39.7914 63.7268C39.7914 64.7459 40.0491 65.7533 40.5645 66.7372C41.0799 67.7212 42.0287 68.5529 43.4227 69.2088C44.8166 69.8648 46.8079 70.2045 49.4201 70.2045C50.8726 70.2045 52.5945 69.8882 54.5975 69.2557C56.5889 68.6231 58.4982 67.7329 60.3138 66.585C62.6683 65.1325 64.4956 63.5043 65.7607 61.6886C67.2718 59.5802 68.0332 57.3663 68.0332 55.0704V53.6296C68.0332 50.4903 67.1546 47.9719 65.3976 46.0743Z" fill="white"/>
<path d="M197.973 10.2422L180.403 83.2654" stroke="white" stroke-width="2.90802" stroke-miterlimit="10"/>
<path d="M206.43 21.1484H225.348L223.157 46.368H223.239L238.034 21.1484H257.303L242.848 68.0032H230.233L240.564 35.6851H240.482L222.443 68.0032H212.369L214.29 35.6851H214.208L204.58 68.0032H192.058L206.43 21.1484Z" fill="white"/>
<path d="M262.047 21.1484H275.623L261.262 68.0032H247.686L262.047 21.1484Z" fill="white"/>
<path d="M280.613 21.1484H300.925C308.984 21.1484 318.612 26.4899 316.164 41.8114C313.716 57.4023 303.373 67.9915 288.051 67.9915H266.252L280.613 21.1484ZM283.588 55.9967H290.16C299.004 55.9967 302.155 46.1923 302.6 41.8934C303.385 34.8886 300.152 33.1316 295.595 33.1316H290.605L283.588 55.9967Z" fill="white"/>
<path d="M354.702 67.9915H341.653L344.371 43.7324H344.289L332.025 67.9915H318.964L320.885 21.1367H334.192L331.216 48.3711H331.298L344.875 21.1367H356.694L353.718 48.3711H353.8L367.224 21.1484H381.058L354.702 67.9915Z" fill="white"/>
<path d="M387.184 21.1484H400.491L405.833 68.0032H392.526L391.999 61.3498H377.649L374.053 68.0032H360.219L387.184 21.1484ZM382.897 51.2644H391.39L390.335 37.2548H390.253L382.897 51.2644Z" fill="white"/>
<path d="M412.322 50.8309L405.317 21.1484H418.893L421.693 38.5784L433.863 21.1484H449.806L425.898 50.667L421.166 68.0032H407.59L412.322 50.8309Z" fill="white"/>
<path d="M424.938 64.9325C424.938 63.5269 426.074 62.4844 427.386 62.4844C428.698 62.4844 429.834 63.5386 429.834 64.9325C429.834 66.3382 428.698 67.3807 427.386 67.3807C426.074 67.3807 424.938 66.3265 424.938 64.9325ZM427.386 67.0293C428.522 67.0293 429.307 66.1508 429.307 65.0145C429.307 63.8783 428.428 62.9998 427.386 62.9998C426.25 62.9998 425.371 63.8783 425.371 65.0145C425.465 66.1508 426.332 67.0293 427.386 67.0293ZM426.952 66.3265H426.519V63.5269H427.573C428.276 63.5269 428.534 63.7846 428.534 64.3117C428.534 64.8388 428.182 65.0145 427.831 65.0965L428.616 66.3265H428.182L427.48 65.0965H426.952V66.3265ZM427.386 64.8388C427.737 64.8388 428.089 64.8388 428.089 64.4054C428.089 64.054 427.737 63.972 427.48 63.972H426.871V64.8505H427.386V64.8388Z" fill="white"/>
<path d="M9.70569 131.101C11.1397 131.099 12.5561 130.78 13.8561 130.166C15.1346 129.593 16.2689 128.735 17.1742 127.654V127.654L14.7022 125.142C14.0955 125.882 13.3419 126.485 12.4905 126.911C11.6553 127.322 10.7383 127.532 9.81036 127.526C9.02728 127.534 8.25031 127.385 7.52442 127.087C6.79852 126.789 6.13812 126.348 5.58143 125.789C5.04537 125.242 4.62183 124.592 4.33543 123.878C4.02837 123.119 3.87374 122.306 3.88064 121.486C3.87227 120.659 4.0225 119.837 4.32297 119.067C4.60344 118.351 5.01908 117.698 5.54654 117.143C6.0755 116.593 6.70815 116.157 7.40682 115.86C8.13488 115.547 8.91849 115.388 9.70943 115.393C10.6633 115.389 11.6049 115.611 12.4594 116.041C13.3426 116.491 14.1159 117.135 14.7233 117.926V117.926L17.2739 115.333C16.3771 114.229 15.236 113.354 13.9433 112.781C12.6148 112.159 11.1692 111.835 9.70569 111.832C8.39849 111.823 7.10255 112.078 5.89293 112.581C4.74691 113.052 3.70053 113.742 2.81032 114.613C1.93165 115.484 1.23277 116.525 0.754419 117.673C0.258535 118.877 0.00215184 120.168 1.34874e-05 121.473C-0.00212486 122.778 0.250024 124.07 0.741959 125.276C1.21465 126.42 1.90912 127.456 2.78416 128.323C3.67478 129.194 4.7216 129.883 5.86801 130.354C7.08581 130.859 8.39031 131.113 9.70569 131.101V131.101ZM59.0187 131.129C60.3215 131.139 61.6131 130.884 62.8178 130.381C63.9587 129.911 64.9969 129.217 65.8724 128.339C66.7478 127.461 67.4434 126.415 67.9189 125.263C68.4168 124.066 68.6733 122.78 68.6733 121.481C68.6733 120.182 68.4168 118.896 67.9189 117.7C67.4434 116.547 66.7479 115.502 65.8724 114.624C64.9969 113.745 63.9588 113.051 62.8178 112.582C60.3891 111.585 57.6733 111.585 55.2446 112.582C54.1035 113.051 53.0654 113.745 52.1899 114.624C51.3144 115.502 50.6189 116.547 50.1434 117.7C49.6458 118.896 49.3895 120.182 49.3895 121.481C49.3895 122.78 49.6458 124.066 50.1434 125.263C50.619 126.415 51.3145 127.461 52.19 128.339C53.0654 129.217 54.1036 129.911 55.2446 130.381C56.4414 130.882 57.725 131.136 59.0199 131.128L59.0187 131.129ZM59.0187 127.575C58.2541 127.581 57.4963 127.429 56.7916 127.128C56.0869 126.827 55.4503 126.384 54.9206 125.824C54.3981 125.263 53.9873 124.605 53.7107 123.887C53.1206 122.334 53.1206 120.615 53.7107 119.062C53.9897 118.349 54.4003 117.696 54.9206 117.138C55.4503 116.579 56.0869 116.135 56.7916 115.834C57.4963 115.533 58.2541 115.381 59.0187 115.388C59.8057 115.382 60.5854 115.541 61.3088 115.855C61.9996 116.153 62.6237 116.589 63.143 117.138C63.6633 117.696 64.0739 118.349 64.3528 119.062C64.9427 120.615 64.9427 122.334 64.3528 123.887C64.0762 124.605 63.6654 125.263 63.143 125.824C62.6236 126.374 61.9996 126.81 61.3088 127.107C60.5857 127.421 59.8064 127.58 59.0199 127.574L59.0187 127.575ZM116.216 130.836V127.416H106.248V112.127H102.478V130.833L116.216 130.836ZM163.787 130.836V127.416H153.819V112.127H150.047V130.833L163.787 130.836ZM211.721 130.836V127.469H201.391V123.031H208.131V119.77H201.391V115.498H211.618V112.131H197.615V130.837L211.721 130.836ZM253.567 131.103C255.001 131.101 256.417 130.781 257.717 130.167C258.996 129.594 260.13 128.736 261.035 127.656V127.656L258.562 125.144C257.956 125.885 257.202 126.488 256.35 126.914C255.515 127.324 254.598 127.534 253.67 127.528C252.887 127.537 252.111 127.387 251.385 127.089C250.659 126.791 249.999 126.35 249.443 125.791C248.906 125.245 248.483 124.595 248.197 123.88C247.889 123.122 247.734 122.309 247.741 121.489C247.732 120.661 247.883 119.839 248.184 119.07C248.464 118.354 248.879 117.7 249.406 117.146C249.935 116.596 250.568 116.16 251.267 115.863C251.995 115.549 252.778 115.39 253.569 115.395C254.527 115.392 255.471 115.616 256.328 116.049C257.211 116.499 257.985 117.142 258.592 117.933V117.933L261.143 115.341C260.246 114.236 259.105 113.362 257.812 112.789C256.484 112.167 255.039 111.843 253.576 111.84C252.268 111.831 250.972 112.085 249.763 112.588C248.616 113.059 247.57 113.749 246.679 114.619C245.8 115.491 245.1 116.531 244.622 117.679C244.126 118.883 243.87 120.175 243.868 121.479C243.865 122.784 244.118 124.076 244.609 125.282C245.082 126.426 245.777 127.462 246.652 128.329C247.542 129.2 248.589 129.889 249.735 130.361C250.952 130.862 252.254 131.114 253.567 131.101V131.103ZM303.479 130.836V115.547H309.593V112.125H293.564V115.547H299.705V130.833L303.479 130.836ZM346.703 130.836V112.129H342.93V130.836H346.703ZM390.162 131.13C391.465 131.14 392.757 130.886 393.961 130.382C395.102 129.912 396.14 129.219 397.016 128.34C397.891 127.462 398.587 126.416 399.062 125.264C399.56 124.067 399.816 122.782 399.816 121.483C399.816 120.184 399.56 118.898 399.062 117.701C398.587 116.549 397.891 115.503 397.016 114.625C396.141 113.747 395.102 113.053 393.961 112.583C391.533 111.586 388.818 111.586 386.389 112.583C385.249 113.053 384.211 113.747 383.336 114.626C382.461 115.504 381.765 116.549 381.289 117.701C380.791 118.898 380.534 120.183 380.534 121.483C380.534 122.782 380.791 124.068 381.289 125.264C381.765 126.416 382.461 127.461 383.336 128.339C384.211 129.218 385.249 129.912 386.389 130.382C387.586 130.883 388.868 131.137 390.162 131.128V131.13ZM390.162 127.576C389.38 127.583 388.604 127.424 387.886 127.108C387.2 126.809 386.58 126.373 386.064 125.826C385.541 125.265 385.13 124.607 384.853 123.888C384.263 122.335 384.263 120.616 384.853 119.063C385.132 118.35 385.543 117.697 386.064 117.14C386.58 116.592 387.2 116.156 387.886 115.857C388.604 115.541 389.38 115.382 390.162 115.389C390.949 115.383 391.728 115.542 392.451 115.857C393.142 116.154 393.767 116.59 394.287 117.14C394.807 117.697 395.217 118.35 395.496 119.063C396.087 120.616 396.087 122.336 395.496 123.888C395.22 124.607 394.809 125.265 394.287 125.826C393.767 126.375 393.142 126.811 392.451 127.108C391.728 127.422 390.949 127.58 390.162 127.574V127.576ZM437.185 130.837V118.324L446.475 130.837H449.806V112.131H446.267V124.237L437.211 112.131H433.619V130.837H437.185Z" fill="white"/>
</svg>
