<svg width="786" height="153" viewBox="0 0 786 153" fill="none" xmlns="http://www.w3.org/2000/svg">
<path fill-rule="evenodd" clip-rule="evenodd" d="M0 23.0752C0 35.6732 9.79675 46.0634 24.4584 46.0684H162.542C177.203 46.0634 187 35.6732 187 23.0752C187 10.4773 177.181 -0.0322125 162.564 7.41949e-05H24.436C9.8191 -0.0322089 0 10.4773 0 23.0752ZM5.77148 23.0454C5.77148 13.4473 12.8962 5.68934 24.5033 5.66699L162.5 5.66947C174.107 5.69182 181.231 13.4498 181.231 23.0454C181.231 32.641 174.149 40.461 162.497 40.4212H24.5033C12.8515 40.4635 5.77148 32.641 5.77148 23.0454Z" fill="white"/>
<path fill-rule="evenodd" clip-rule="evenodd" d="M166.5 15.6599C166.5 13.8172 167.995 12.3223 169.838 12.3223C171.68 12.3223 173.175 13.8172 173.175 15.6599C173.175 17.5025 171.68 18.9975 169.838 18.9975C167.995 18.9975 166.5 17.5025 166.5 15.6599ZM169.837 18.3618C171.327 18.3618 172.537 17.1524 172.537 15.6624C172.537 14.1699 171.327 12.963 169.837 12.963C168.347 12.963 167.138 14.1724 167.138 15.6624C167.138 17.1524 168.347 18.3618 169.837 18.3618Z" fill="white"/>
<path fill-rule="evenodd" clip-rule="evenodd" d="M171.499 14.8329C171.499 14.1252 170.975 13.7676 169.92 13.7676H168.469V17.4653H169.371V15.9504H169.81L170.518 17.4653H171.519L170.692 15.8138C171.196 15.6872 171.499 15.3197 171.499 14.8329ZM169.81 15.4092H169.371V14.334H169.766C170.307 14.334 170.573 14.5003 170.573 14.8853C170.573 15.2528 170.324 15.4092 169.81 15.4092Z" fill="white"/>
<path fill-rule="evenodd" clip-rule="evenodd" d="M99.3606 29.6684C99.3606 28.8589 99.3556 28.7943 99.3556 28.7943L105.852 28.7893C104.717 32.1939 101 34.7046 96.5991 34.7046C91.2947 34.7046 86.9961 31.0814 86.9961 26.6089C86.9961 22.1364 91.2947 18.5107 96.5991 18.5107C101.904 18.5107 106.222 22.2159 106.222 26.6884C106.222 26.6959 93.937 26.6909 93.937 26.6909C93.937 26.6909 93.932 28.8787 93.932 29.6684C93.932 32.3057 95.6977 32.8918 96.6612 32.8918C97.6248 32.8918 99.3606 32.3057 99.3606 29.6684ZM94.3691 21.6174C93.9544 22.3375 93.9271 23.1819 93.937 24.4459L99.3779 24.4484C99.3878 23.1843 99.3705 22.34 98.9557 21.6174C98.4469 20.7288 97.5114 20.3066 96.6624 20.3012C96.6628 20.3012 96.6633 20.3012 96.6637 20.3012H96.6611C96.6616 20.3012 96.662 20.3012 96.6624 20.3012C95.8135 20.3066 94.8779 20.7288 94.3691 21.6174Z" fill="white"/>
<path d="M119.875 18.7517C122.314 18.6821 127.261 20.2789 127.226 25.9881C127.221 27.0013 127.224 33.8354 127.224 33.8354H120.744C120.744 33.8354 120.744 25.2655 120.744 24.364C120.744 23.1074 119.543 21.7093 117.764 21.7093C115.989 21.7093 114.668 23.1074 114.668 24.364C114.668 24.9799 114.675 33.8354 114.675 33.8354H108.201L108.206 19.4147L114.678 19.4097C114.678 19.4097 114.67 20.5695 114.678 20.9271C115.924 19.7375 117.722 18.8137 119.875 18.7517L119.875 18.7517Z" fill="white"/>
<path d="M66.876 18.7517C69.3146 18.6821 74.2614 20.2789 74.2267 25.9881C74.2217 27.0013 74.2241 33.8354 74.2241 33.8354H67.7451C67.7451 33.8354 67.7451 25.2655 67.7451 24.364C67.7451 23.1074 66.5432 21.7093 64.7651 21.7093C62.9895 21.7093 61.6684 23.1074 61.6684 24.364C61.6684 24.9799 61.6758 33.8354 61.6758 33.8354H55.2018L55.1992 19.4147L61.6782 19.4097C61.6782 19.4097 61.6708 20.5695 61.6782 20.9271C62.9249 19.7375 64.7203 18.8137 66.8759 18.7517L66.876 18.7517Z" fill="white"/>
<path fill-rule="evenodd" clip-rule="evenodd" d="M147.719 12.1533H141.282H141.282C141.282 12.1533 141.282 16.7947 141.287 20.1323C140.244 19.5462 139.144 18.9825 137.597 18.8459C132.896 18.4337 129.305 22.5908 129.305 26.3977C129.305 31.4165 133.176 33.2741 133.765 33.5472C135.958 34.5704 138.774 34.5729 141.269 33.0059C141.269 33.14 141.272 33.8403 141.272 33.8403H147.719V12.1533ZM141.329 23.9791V26.5568H141.329C141.329 26.5568 141.332 28.1884 141.332 29.1147C141.332 31.3422 139.789 31.9258 138.774 31.9258C137.738 31.9258 136.218 31.3422 136.218 29.1147C136.218 28.3473 136.221 26.5494 136.221 26.5494C136.221 26.5494 136.218 24.7192 136.218 23.9791C136.218 21.7491 137.738 21.1804 138.776 21.1804C139.789 21.1804 141.329 21.7491 141.329 23.9791Z" fill="white"/>
<path fill-rule="evenodd" clip-rule="evenodd" d="M149.842 26.532C149.842 22.0595 154.108 18.4338 159.373 18.4338C164.637 18.4338 168.904 22.0595 168.904 26.532C168.904 31.0045 164.637 34.6301 159.373 34.6301C154.111 34.6301 149.842 31.0045 149.842 26.532ZM161.99 29.5692C161.99 28.6951 161.993 26.5147 161.993 26.5147L161.995 26.5222C161.989 26.0518 161.99 24.8953 161.99 24.0094C161.99 23.8057 161.99 23.6162 161.99 23.4528C161.99 21.1631 160.627 20.2219 159.326 20.2219C158.027 20.2219 156.661 21.1631 156.661 23.4528C156.661 24.3269 156.656 26.4601 156.656 26.4601C156.656 26.4601 156.654 28.6951 156.654 29.5692C156.654 31.8688 158.017 32.8174 159.326 32.8174C160.632 32.8174 161.99 31.8688 161.99 29.5692Z" fill="white"/>
<path d="M45.0723 16.5812V12.1484H51.6084V16.5812H45.0723Z" fill="white"/>
<path d="M45.0874 33.8404V19.4172L51.6086 19.4198V33.8405L45.0874 33.8404Z" fill="white"/>
<path d="M77.8054 33.8405L77.8079 19.4471H74.2617V17.3065L77.8104 17.3039L77.8054 14.3835H84.3316V17.3015H87.8629V19.4471H84.3316L84.3366 33.8405L77.8054 33.8405Z" fill="white"/>
<path d="M18.5479 33.8403L18.5503 12.1533H25.3075L34.6548 27.2768L34.6498 12.1533H41.3548V33.8403H34.6597L25.2628 18.7168V33.8403H18.5479Z" fill="white"/>
<path d="M418.322 63.7788H438.747L448.835 86.9821L463.964 63.7788H484.887L455.386 109.675L450.597 145.484H431.686L437.233 104.626L418.322 63.7788Z" fill="white"/>
<path d="M268.028 145.484L270.55 127.32H241.808L243.572 113.205H268.533L271.058 95.0495H246.347L248.113 81.934H276.853L279.629 63.7788H231.972L220.624 145.484H268.028Z" fill="white"/>
<path fill-rule="evenodd" clip-rule="evenodd" d="M108.662 121.269H91.5156L82.1877 145.477H63.0228L64.2825 141.693C60.5008 143.711 49.909 147.243 40.5785 146.738C24.4413 146.988 0.233284 134.379 3.25843 107.903C8.40008 62.9051 58.7354 59.2365 77.9012 65.7908L75.1251 83.1903C46.3789 73.8607 22.1709 90.7553 21.4153 108.91C20.6596 127.067 37.5534 128.579 39.8229 128.579C42.0924 128.579 47.8911 128.326 50.413 126.815L51.4228 121.268H37.0476L39.3188 105.129H72.0999L68.569 131.605L95.5514 63.7755H119.759L128.082 130.851L150.271 63.7755H169.687L176.244 106.894L193.138 63.7755H214.825L219.869 145.477H201.714L198.687 98.5745L180.532 145.477H164.141L157.079 101.096L142.705 145.477H111.69L108.662 121.269ZM104.627 88.2368L98.3233 105.13H106.646L104.627 88.2368Z" fill="white"/>
<path fill-rule="evenodd" clip-rule="evenodd" d="M359.564 100.597C365.868 70.0834 384.78 62.5184 397.894 63.0233C417.055 63.7806 431.432 79.1605 427.397 108.412C423.362 137.663 401.425 147.497 385.788 145.48C370.154 143.463 353.26 131.107 359.564 100.597ZM409.743 105.133C412.517 83.9537 401.171 80.4228 395.876 80.4228C390.325 80.1703 379.987 85.7183 377.214 105.133C374.44 124.551 384.273 127.826 389.066 128.331C393.857 128.837 406.968 126.315 409.743 105.133Z" fill="white"/>
<path fill-rule="evenodd" clip-rule="evenodd" d="M303.836 63.7815L292.489 145.482L328.548 145.481C344.939 145.481 354.269 134.388 356.036 123.038C357.8 111.691 353.514 105.638 349.225 101.858C349.588 101.595 349.971 101.353 350.368 101.103C353.01 99.4374 356.233 97.4061 357.548 86.224C359.06 73.3644 346.958 63.7815 338.634 63.7815H303.836ZM318.207 95.0496H328.799C336.617 95.0496 338.13 90.0057 338.379 87.9903C338.632 85.9716 336.364 81.9366 332.33 81.9366H319.974L318.207 95.0496ZM313.669 127.325H328.044C335.858 127.325 337.624 121.275 337.874 119.256C338.128 117.239 335.858 113.206 331.824 113.206H315.688L313.669 127.325Z" fill="white"/>
<path d="M460.825 133.123C457.714 133.123 455.203 135.631 455.203 138.727C455.203 141.856 457.713 144.366 460.825 144.366C463.92 144.366 466.429 141.856 466.429 138.727C466.426 135.63 463.916 133.123 460.825 133.123V132.352C464.351 132.352 467.199 135.213 467.199 138.727C467.199 142.274 464.351 145.134 460.825 145.134C457.277 145.133 454.417 142.274 454.417 138.727C454.417 135.212 457.277 132.353 460.825 132.353V133.123V133.123Z" fill="white"/>
<path d="M459.312 135.793H461.354C462.242 135.793 463.209 135.925 463.209 137.031C463.209 138.485 461.655 138.32 460.65 138.32L459.312 138.318V139.006H460.921L462.961 142.302H463.998L461.839 139.006C463.111 138.973 464.097 138.455 464.097 137.049C464.097 136.445 463.831 135.811 463.296 135.508C462.761 135.191 462.157 135.158 461.554 135.158H458.446V142.3H459.313V135.793H459.312Z" fill="white"/>
<path d="M566.432 73.5879C563.576 57.8769 547.865 57.8769 535.725 62.1617C519.3 67.8748 511.444 80.0151 505.731 95.726C500.018 110.723 502.161 128.576 515.015 140.002C527.155 150.714 545.008 150.714 559.291 147.144C570.003 145.001 565.718 127.862 555.006 130.718C537.153 135.003 517.157 128.576 520.728 107.152C522.156 99.2966 526.441 87.8705 533.582 82.8716C536.439 81.4433 549.293 75.0161 550.007 78.5868C551.436 89.2988 568.575 84.2999 566.432 73.5879Z" fill="#E1E1E1"/>
<path d="M578.573 80.7304C560.005 85.7293 554.292 106.439 560.72 122.864C569.289 142.86 591.427 147.145 608.566 136.433C642.845 115.009 603.567 52.1651 572.86 82.1587C565.718 89.3 577.859 100.726 585 93.5848C597.854 81.4445 613.565 112.152 599.997 122.15C578.573 137.861 563.576 102.154 582.144 97.1555C592.856 93.5848 588.571 77.8739 578.573 80.7304Z" fill="#878787"/>
<path d="M695.69 89.2991C696.283 89.4573 696.866 89.633 697.436 89.8257C707.165 93.1135 713.425 101.358 711.401 112.151C709.259 120.721 699.261 128.576 689.977 125.72C683.55 124.292 680.693 115.722 679.979 110.009C679.265 100.725 684.978 94.298 694.262 91.4415C695.512 91.0507 696.566 90.4975 697.436 89.8257C704.517 84.3591 699.439 71.0442 689.263 73.5881C672.838 79.3012 661.412 92.8697 662.126 110.723C662.126 125.72 672.124 140.002 687.121 144.287C705.688 149.286 724.255 134.289 729.254 117.15C735.682 96.4404 720.685 76.4447 700.689 71.4457C689.263 69.3033 684.264 86.4425 695.69 89.2991Z" fill="white"/>
<path fill-rule="evenodd" clip-rule="evenodd" d="M758.825 112.47C770.532 103.725 781.362 92.7849 777.102 77.8738C772.817 60.0205 747.108 61.4487 733.54 64.3054C729.969 65.0195 727.113 68.5901 727.113 72.1606C727.376 76.3742 727.712 80.612 728.05 84.8652C729.542 103.679 731.058 122.793 726.398 141.432C724.97 152.144 740.681 156.428 743.538 146.431C745.559 138.796 746.591 131.161 747.012 123.503C755.369 131.988 763.669 140.994 771.389 150.001C778.53 157.856 789.956 146.43 782.815 138.575C775.214 129.708 767.052 120.84 758.825 112.47ZM745.875 86.3061C746.237 91.2724 746.597 96.2156 746.858 101.141C752.939 97.0779 758.97 92.2529 761.391 86.4433C764.448 79.3105 753.328 79.084 745.408 79.7993C745.508 81.2473 745.612 82.6933 745.717 84.1374L745.875 86.3061Z" fill="#929292"/>
<path d="M616.422 70.0179C627.134 89.2994 625.706 112.866 625.706 135.004C625.706 140.003 630.705 145.002 636.418 142.859C645.702 140.003 654.985 138.575 664.983 136.432C675.695 134.29 670.696 117.865 660.698 120.721C654.923 122.054 648.871 123.111 642.886 124.406C642.964 102.834 642.462 81.1808 631.419 62.1624C625.706 52.8787 610.709 60.7341 616.422 70.0179Z" fill="#B4B4B4"/>
</svg>
