<svg width="360" height="148" viewBox="0 0 360 148" fill="none" xmlns="http://www.w3.org/2000/svg">
<path d="M170.207 0L163.72 25.7985L184.417 108.117H223.03L195.847 0H170.207Z" fill="white"/>
<path d="M122.636 0L116.149 25.7985L136.845 108.117H175.459L148.275 0H122.636Z" fill="white"/>
<path d="M109.971 40.5439L92.9808 108.117H126.96L109.971 40.5439Z" fill="white"/>
<path d="M85.567 0H50.9695L85.567 89.0374V0Z" fill="white"/>
<path d="M83.0958 108.117L41.0845 0H2.47125L44.4825 108.117H83.0958Z" fill="white"/>
<path d="M34.5975 108.117H0V19.0798L34.5975 108.117Z" fill="white"/>
<path d="M230.444 0H269.07V108.117H230.444V0Z" fill="white"/>
<path d="M278.022 0H330.367L278.022 46.3359V0Z" fill="white"/>
<path d="M278.022 108.117H330.367L278.022 46.3359V108.117Z" fill="white"/>
<path fill-rule="evenodd" clip-rule="evenodd" d="M278.022 37.9941H287.446L279.42 45.099H278.022V37.9941ZM278.022 57.7641H287.705L302.1 74.754H278.022V57.7641ZM306.529 79.9813H278.022V108.117H330.367L306.529 79.9813ZM269.07 74.754V57.7641H230.444V74.754H269.07ZM269.07 79.9813H230.444V108.117H269.07V79.9813ZM210.37 57.7641L214.642 74.754H176.029L171.757 57.7641H210.37ZM215.956 79.9813H177.343L184.417 108.117H223.03L215.956 79.9813ZM167.07 74.754L162.799 57.7641H124.186L128.457 74.754H167.07ZM129.771 79.9813H168.385L175.459 108.117H136.845L129.771 79.9813ZM114.3 57.7641L118.572 74.754H101.369L105.641 57.7641H114.3ZM100.055 79.9813L92.9808 108.117H126.96L119.886 79.9813H100.055ZM85.567 74.754V57.7641H73.4151L80.0169 74.754H85.567ZM85.567 79.9813H82.048L85.567 89.0375V79.9813ZM63.53 57.7641L70.1318 74.754H31.5185L24.9167 57.7641H63.53ZM72.1629 79.9813H33.5497L44.4825 108.117H83.0958L72.1629 79.9813ZM21.6334 74.754L15.0317 57.7641H0V74.754H21.6334ZM23.6646 79.9813H0V108.117H34.5975L23.6646 79.9813ZM19.9954 45.099H58.6087L55.8479 37.9941H17.2347L19.9954 45.099ZM7.34957 37.9941L10.1103 45.099H0V37.9941H7.34957ZM85.567 45.099H68.4937L65.733 37.9941H85.567V45.099ZM111.116 45.099L109.971 40.544L108.825 45.099H111.116ZM159.614 45.099H121.001L119.215 37.9941H157.828L159.614 45.099ZM168.573 45.099H207.186L205.399 37.9941H166.787L168.573 45.099ZM230.444 45.099H269.07V37.9941H230.444V45.099Z" fill="#F9282D"/>
<path fill-rule="evenodd" clip-rule="evenodd" d="M330.367 0H278.022V46.3359V108.117H330.367L278.022 46.3359L330.367 0ZM280.493 53.0755V105.646H325.035L280.493 53.0755ZM280.493 40.848L323.847 2.47125H280.493V40.848ZM166.268 25.7985L186.344 105.646H219.861L193.92 2.47125H172.134L166.268 25.7985ZM170.207 0L163.72 25.7985L184.417 108.117H223.03L195.847 0H170.207ZM118.697 25.7985L124.563 2.47125H146.348L172.289 105.646H138.772L118.697 25.7985ZM136.845 108.117L116.149 25.7985L122.636 0H148.275L175.459 108.117H136.845ZM92.9808 108.117H126.96L109.971 40.5439L92.9808 108.117ZM96.1503 105.646H123.791L109.971 50.6787L96.1503 105.646ZM50.9695 0L85.567 89.0374V0H50.9695ZM54.5811 2.47125L83.0958 75.8545V2.47125H54.5811ZM41.0845 0H2.47125L44.4825 108.117H83.0958L41.0845 0ZM79.4843 105.646L39.3935 2.47125H6.08277L46.1735 105.646H79.4843ZM0 19.0798V108.117H34.5975L0 19.0798ZM2.47125 105.646H30.986L2.47125 32.2627V105.646ZM266.598 2.47125H232.915V105.646H266.598V2.47125ZM230.444 0V108.117H269.07V0H230.444Z" fill="#F9282D"/>
<path fill-rule="evenodd" clip-rule="evenodd" d="M343.561 20.0986H341.327V5.40234H346.93C350.399 5.40234 352.116 6.6861 352.116 9.57909C352.116 12.2077 350.469 13.3494 348.306 13.627L352.478 20.0986H349.996L346.11 13.7261H343.561V20.0986ZM346.225 11.8381C348.112 11.8381 349.787 11.7075 349.787 9.44403C349.787 7.62992 348.14 7.28957 346.599 7.28957H343.562V11.8381H346.225V11.8381Z" fill="#F9282D"/>
<path fill-rule="evenodd" clip-rule="evenodd" d="M333.311 12.7054C333.311 5.39441 339.247 0 346.251 0C353.201 0 359.121 5.39441 359.121 12.7054C359.121 20.0907 353.201 25.4801 346.251 25.4801C339.247 25.4801 333.311 20.0907 333.311 12.7054ZM346.251 23.3562C352.024 23.3562 356.556 18.8408 356.556 12.7045C356.556 6.67731 352.024 2.1189 346.251 2.1189C340.428 2.1189 335.878 6.67731 335.878 12.7045C335.878 18.8408 340.428 23.3562 346.251 23.3562V23.3562Z" fill="#F9282D"/>
<path d="M7.08535 146.997C8.13222 146.995 9.16618 146.762 10.1152 146.314C11.0485 145.896 11.8766 145.269 12.5375 144.48V144.48L10.7329 142.646C10.29 143.187 9.73987 143.627 9.11832 143.938C8.50858 144.237 7.83919 144.391 7.16176 144.386C6.59009 144.392 6.02289 144.284 5.49297 144.066C4.96306 143.848 4.48095 143.526 4.07455 143.118C3.68322 142.719 3.37403 142.245 3.16495 141.723C2.94079 141.17 2.82791 140.576 2.83294 139.978C2.82684 139.373 2.9365 138.773 3.15585 138.211C3.3606 137.689 3.66403 137.212 4.04908 136.807C4.43523 136.406 4.89709 136.087 5.40713 135.871C5.93863 135.642 6.51067 135.525 7.08808 135.529C7.78442 135.526 8.47179 135.689 9.09558 136.002C9.74033 136.331 10.3049 136.801 10.7483 137.378V137.378L12.6103 135.486C11.9556 134.679 11.1226 134.041 10.1789 133.623C9.20908 133.168 8.15374 132.932 7.08535 132.93C6.13107 132.923 5.185 133.109 4.30195 133.476C3.46534 133.82 2.70146 134.324 2.05159 134.96C1.41014 135.596 0.899948 136.355 0.550741 137.194C0.188736 138.073 0.00157088 139.015 9.84608e-06 139.968C-0.00155119 140.92 0.182522 141.864 0.541645 142.744C0.886718 143.579 1.39369 144.336 2.03249 144.968C2.68266 145.604 3.44686 146.107 4.28376 146.451C5.17278 146.82 6.12509 147.005 7.08535 146.997V146.997ZM43.0848 147.017C44.0359 147.024 44.9788 146.838 45.8582 146.471C46.6911 146.128 47.449 145.621 48.0881 144.98C48.7272 144.339 49.235 143.576 49.5821 142.735C49.9456 141.861 50.1329 140.922 50.1329 139.974C50.1329 139.026 49.9456 138.087 49.5821 137.213C49.235 136.372 48.7273 135.609 48.0882 134.968C47.449 134.326 46.6912 133.82 45.8582 133.477C44.0852 132.749 42.1026 132.749 40.3296 133.477C39.4966 133.82 38.7388 134.326 38.0997 134.968C37.4605 135.609 36.9528 136.372 36.6057 137.213C36.2424 138.087 36.0553 139.026 36.0553 139.974C36.0553 140.922 36.2424 141.861 36.6057 142.735C36.9528 143.576 37.4606 144.339 38.0997 144.98C38.7388 145.621 39.4967 146.128 40.3296 146.471C41.2033 146.837 42.1404 147.022 43.0857 147.016L43.0848 147.017ZM43.0848 144.422C42.5267 144.427 41.9734 144.316 41.459 144.096C40.9446 143.877 40.4798 143.553 40.0931 143.144C39.7117 142.735 39.4118 142.255 39.2099 141.73C38.7791 140.596 38.7791 139.341 39.2099 138.208C39.4135 137.687 39.7133 137.21 40.0931 136.803C40.4798 136.395 40.9446 136.071 41.459 135.851C41.9734 135.632 42.5267 135.521 43.0848 135.525C43.6593 135.521 44.2286 135.637 44.7567 135.867C45.261 136.084 45.7165 136.402 46.0956 136.803C46.4754 137.21 46.7752 137.687 46.9788 138.208C47.4094 139.341 47.4094 140.596 46.9788 141.73C46.7769 142.255 46.477 142.735 46.0956 143.144C45.7165 143.545 45.2609 143.864 44.7567 144.081C44.2288 144.31 43.6599 144.426 43.0857 144.421L43.0848 144.422ZM84.8403 146.803V144.306H77.5634V133.145H74.811V146.801L84.8403 146.803ZM119.568 146.803V144.306H112.291V133.145H109.537V146.801L119.568 146.803ZM154.561 146.803V144.345H147.019V141.105H151.94V138.724H147.019V135.606H154.485V133.148H144.263V146.804L154.561 146.803ZM185.109 146.998C186.156 146.996 187.19 146.763 188.139 146.315C189.072 145.896 189.9 145.27 190.561 144.481V144.481L188.755 142.648C188.313 143.189 187.762 143.629 187.141 143.94C186.531 144.239 185.862 144.393 185.184 144.388C184.613 144.394 184.046 144.285 183.516 144.068C182.986 143.85 182.504 143.528 182.098 143.12C181.707 142.721 181.397 142.247 181.188 141.725C180.964 141.171 180.851 140.578 180.855 139.979C180.849 139.375 180.959 138.775 181.179 138.213C181.383 137.691 181.687 137.213 182.072 136.809C182.458 136.407 182.92 136.089 183.43 135.872C183.961 135.643 184.533 135.527 185.111 135.531C185.809 135.528 186.499 135.692 187.124 136.008C187.769 136.336 188.334 136.806 188.777 137.384V137.384L190.639 135.491C189.985 134.685 189.152 134.047 188.208 133.628C187.238 133.174 186.183 132.938 185.115 132.935C184.161 132.929 183.215 133.115 182.332 133.482C181.495 133.826 180.731 134.329 180.081 134.964C179.439 135.601 178.928 136.36 178.579 137.198C178.217 138.077 178.03 139.02 178.028 139.972C178.027 140.925 178.211 141.868 178.57 142.748C178.915 143.584 179.422 144.34 180.061 144.973C180.711 145.609 181.475 146.112 182.312 146.456C183.2 146.822 184.15 147.006 185.109 146.997V146.998ZM221.546 146.803V135.642H226.009V133.144H214.307V135.642H218.791V146.801L221.546 146.803ZM253.1 146.803V133.147H250.346V146.803H253.1ZM284.826 147.018C285.777 147.025 286.72 146.839 287.6 146.472C288.433 146.129 289.19 145.622 289.829 144.981C290.469 144.34 290.976 143.577 291.323 142.736C291.687 141.862 291.874 140.923 291.874 139.975C291.874 139.026 291.687 138.088 291.323 137.214C290.976 136.373 290.469 135.61 289.83 134.969C289.19 134.327 288.433 133.821 287.6 133.478C285.827 132.75 283.845 132.75 282.072 133.478C281.239 133.821 280.482 134.328 279.843 134.969C279.204 135.61 278.696 136.373 278.349 137.214C277.985 138.088 277.798 139.026 277.798 139.975C277.798 140.923 277.985 141.862 278.349 142.736C278.696 143.576 279.204 144.339 279.843 144.98C280.482 145.622 281.239 146.128 282.072 146.472C282.945 146.837 283.881 147.022 284.826 147.016V147.018ZM284.826 144.423C284.255 144.428 283.689 144.312 283.164 144.082C282.663 143.863 282.211 143.545 281.834 143.145C281.452 142.736 281.152 142.256 280.95 141.731C280.52 140.597 280.52 139.342 280.95 138.209C281.154 137.688 281.454 137.211 281.834 136.804C282.211 136.405 282.663 136.086 283.164 135.868C283.689 135.638 284.255 135.521 284.826 135.526C285.4 135.522 285.969 135.638 286.497 135.868C287.002 136.085 287.458 136.403 287.837 136.804C288.217 137.211 288.517 137.688 288.72 138.209C289.151 139.342 289.151 140.597 288.72 141.731C288.518 142.255 288.218 142.736 287.837 143.145C287.458 143.546 287.002 143.865 286.497 144.082C285.969 144.311 285.4 144.426 284.826 144.421V144.423ZM319.154 146.804V137.669L325.936 146.804H328.367V133.148H325.784V141.985L319.173 133.148H316.55V146.804H319.154Z" fill="white"/>
</svg>
