<svg width="360" height="145" viewBox="0 0 360 145" fill="none" xmlns="http://www.w3.org/2000/svg">
<path d="M70.1318 74.754L72.1629 79.9813H33.5497L31.5185 74.754H70.1318Z" fill="white"/>
<path d="M63.53 57.7641L58.6087 45.099H19.9954L24.9167 57.7641H63.53Z" fill="white"/>
<path d="M17.2347 37.9941H55.8479L41.0845 0H2.47125L17.2347 37.9941Z" fill="white"/>
<path d="M85.567 0H50.9695L65.733 37.9941H85.567V0Z" fill="white"/>
<path d="M85.567 45.099H68.4937L73.4151 57.7641H85.567V45.099Z" fill="white"/>
<path d="M85.567 74.754H80.0169L82.048 79.9813H85.567V74.754Z" fill="white"/>
<path d="M122.636 0L116.149 25.7985L119.215 37.9941H157.828L148.275 0H122.636Z" fill="white"/>
<path d="M159.614 45.099H121.001L124.186 57.7641H162.799L159.614 45.099Z" fill="white"/>
<path d="M167.07 74.754H128.457L129.771 79.9813H168.385L167.07 74.754Z" fill="white"/>
<path d="M170.207 0L163.72 25.7985L166.787 37.9941H205.399L195.847 0H170.207Z" fill="white"/>
<path d="M207.186 45.099H168.573L171.757 57.7641H210.37L207.186 45.099Z" fill="white"/>
<path d="M214.642 74.754H176.029L177.343 79.9813H215.956L214.642 74.754Z" fill="white"/>
<path d="M111.116 45.099H108.825L105.641 57.7641H114.3L111.116 45.099Z" fill="white"/>
<path d="M118.572 74.754H101.369L100.055 79.9813H119.886L118.572 74.754Z" fill="white"/>
<path d="M0 79.9813H23.6646L21.6334 74.754H0V79.9813Z" fill="white"/>
<path d="M0 57.7641H15.0317L10.1103 45.099H0V57.7641Z" fill="white"/>
<path d="M0 19.0798L7.34957 37.9941H0V19.0798Z" fill="white"/>
<path d="M269.07 0H230.444V37.9941H269.07V0Z" fill="white"/>
<path d="M269.07 45.099H230.444V57.7641H269.07V45.099Z" fill="white"/>
<path d="M269.07 74.754H230.444V79.9813H269.07V74.754Z" fill="white"/>
<path d="M278.022 0H330.367L287.446 37.9941H278.022V0Z" fill="white"/>
<path d="M278.022 45.099V46.3359V57.7641H287.705L278.022 46.3359L279.42 45.099H278.022Z" fill="white"/>
<path d="M302.1 74.754H278.022V79.9813H306.529L302.1 74.754Z" fill="white"/>
<path d="M279.258 49.7058L327.701 106.882H279.258V49.7058ZM327.107 1.23563L279.258 43.592V1.23563H327.107ZM185.38 106.882L164.994 25.7985L171.171 1.23563H194.883L221.446 106.882H185.38ZM117.423 25.7985L123.599 1.23563H147.312L173.874 106.882H137.809L117.423 25.7985ZM125.376 106.882H94.5655L109.971 45.6113L125.376 106.882ZM84.3314 82.4459L52.7753 1.23563H84.3314V82.4459ZM45.328 106.882L4.27701 1.23563H40.239L81.29 106.882H45.328ZM1.23563 25.6712L32.7917 106.882H1.23563V25.6712ZM231.68 1.23563H267.834V106.882H231.68V1.23563Z" stroke="white" stroke-width="2.47125"/>
<path fill-rule="evenodd" clip-rule="evenodd" d="M343.561 20.0986H341.327V5.40234H346.93C350.399 5.40234 352.116 6.6861 352.116 9.57909C352.116 12.2077 350.469 13.3494 348.306 13.627L352.478 20.0986H349.996L346.11 13.7261H343.561V20.0986ZM346.225 11.8381C348.112 11.8381 349.787 11.7075 349.787 9.44403C349.787 7.62992 348.14 7.28957 346.599 7.28957H343.562V11.8381H346.225V11.8381Z" fill="white"/>
<path fill-rule="evenodd" clip-rule="evenodd" d="M333.311 12.7054C333.311 5.39441 339.247 0 346.251 0C353.201 0 359.121 5.39441 359.121 12.7054C359.121 20.0907 353.201 25.4801 346.251 25.4801C339.247 25.4801 333.311 20.0907 333.311 12.7054ZM346.251 23.3562C352.024 23.3562 356.556 18.8408 356.556 12.7045C356.556 6.67731 352.024 2.1189 346.251 2.1189C340.428 2.1189 335.878 6.67731 335.878 12.7045C335.878 18.8408 340.428 23.3562 346.251 23.3562V23.3562Z" fill="white"/>
<path d="M7.08535 144.524C8.13222 144.522 9.16618 144.289 10.1152 143.841C11.0485 143.423 11.8766 142.796 12.5375 142.008V142.008L10.7329 140.173C10.29 140.714 9.73987 141.154 9.11832 141.465C8.50858 141.765 7.83919 141.918 7.16176 141.914C6.59009 141.92 6.02289 141.811 5.49297 141.593C4.96306 141.376 4.48095 141.054 4.07455 140.646C3.68322 140.246 3.37403 139.772 3.16495 139.251C2.94079 138.697 2.82791 138.103 2.83294 137.505C2.82684 136.901 2.9365 136.301 3.15585 135.739C3.3606 135.216 3.66403 134.739 4.04908 134.334C4.43523 133.933 4.89709 133.614 5.40713 133.398C5.93863 133.169 6.51067 133.053 7.08808 133.056C7.78442 133.054 8.47179 133.216 9.09558 133.53C9.74033 133.858 10.3049 134.328 10.7483 134.906V134.906L12.6103 133.013C11.9556 132.207 11.1226 131.568 10.1789 131.15C9.20908 130.695 8.15374 130.459 7.08535 130.457C6.13107 130.451 5.185 130.636 4.30195 131.003C3.46534 131.348 2.70146 131.851 2.05159 132.487C1.41014 133.123 0.899948 133.883 0.550741 134.721C0.188736 135.6 0.00157088 136.543 9.84608e-06 137.495C-0.00155119 138.448 0.182522 139.391 0.541645 140.271C0.886718 141.107 1.39369 141.863 2.03249 142.496C2.68266 143.131 3.44686 143.635 4.28376 143.979C5.17278 144.347 6.12509 144.532 7.08535 144.524V144.524ZM43.0848 144.544C44.0359 144.551 44.9788 144.366 45.8582 143.998C46.6911 143.655 47.449 143.149 48.0881 142.507C48.7272 141.866 49.235 141.103 49.5821 140.262C49.9456 139.388 50.1329 138.45 50.1329 137.501C50.1329 136.553 49.9456 135.614 49.5821 134.74C49.235 133.899 48.7273 133.136 48.0882 132.495C47.449 131.854 46.6912 131.347 45.8582 131.004C44.0852 130.276 42.1026 130.276 40.3296 131.004C39.4966 131.347 38.7388 131.854 38.0997 132.495C37.4605 133.136 36.9528 133.899 36.6057 134.74C36.2424 135.614 36.0553 136.553 36.0553 137.501C36.0553 138.449 36.2424 139.388 36.6057 140.262C36.9528 141.103 37.4606 141.866 38.0997 142.507C38.7388 143.149 39.4967 143.655 40.3296 143.998C41.2033 144.364 42.1404 144.55 43.0857 144.543L43.0848 144.544ZM43.0848 141.95C42.5267 141.954 41.9734 141.843 41.459 141.624C40.9446 141.404 40.4798 141.08 40.0931 140.672C39.7117 140.262 39.4118 139.782 39.2099 139.257C38.7791 138.124 38.7791 136.868 39.2099 135.735C39.4135 135.214 39.7133 134.738 40.0931 134.331C40.4798 133.922 40.9446 133.598 41.459 133.379C41.9734 133.159 42.5267 133.048 43.0848 133.053C43.6593 133.048 44.2286 133.165 44.7567 133.394C45.261 133.611 45.7165 133.93 46.0956 134.331C46.4754 134.738 46.7752 135.214 46.9788 135.735C47.4094 136.868 47.4094 138.124 46.9788 139.257C46.7769 139.782 46.477 140.262 46.0956 140.672C45.7165 141.073 45.2609 141.391 44.7567 141.608C44.2288 141.837 43.6599 141.953 43.0857 141.949L43.0848 141.95ZM84.8403 144.33V141.833H77.5634V130.672H74.811V144.328L84.8403 144.33ZM119.568 144.33V141.833H112.291V130.672H109.537V144.328L119.568 144.33ZM154.561 144.33V141.872H147.019V138.632H151.94V136.252H147.019V133.133H154.485V130.675H144.263V144.331L154.561 144.33ZM185.109 144.525C186.156 144.523 187.19 144.29 188.139 143.842C189.072 143.424 189.9 142.797 190.561 142.009V142.009L188.755 140.175C188.313 140.716 187.762 141.156 187.141 141.467C186.531 141.767 185.862 141.92 185.184 141.915C184.613 141.922 184.046 141.813 183.516 141.595C182.986 141.378 182.504 141.056 182.098 140.648C181.707 140.248 181.397 139.774 181.188 139.253C180.964 138.699 180.851 138.105 180.855 137.507C180.849 136.902 180.959 136.302 181.179 135.741C181.383 135.218 181.687 134.741 182.072 134.336C182.458 133.935 182.92 133.616 183.43 133.4C183.961 133.171 184.533 133.055 185.111 133.058C185.809 133.056 186.499 133.219 187.124 133.535C187.769 133.864 188.334 134.334 188.777 134.911V134.911L190.639 133.019C189.985 132.212 189.152 131.574 188.208 131.156C187.238 130.701 186.183 130.465 185.115 130.463C184.161 130.456 183.215 130.642 182.332 131.009C181.495 131.353 180.731 131.856 180.081 132.492C179.439 133.128 178.928 133.887 178.579 134.726C178.217 135.605 178.03 136.547 178.028 137.5C178.027 138.452 178.211 139.396 178.57 140.276C178.915 141.111 179.422 141.868 180.061 142.5C180.711 143.136 181.475 143.639 182.312 143.983C183.2 144.349 184.15 144.533 185.109 144.524V144.525ZM221.546 144.33V133.169H226.009V130.671H214.307V133.169H218.791V144.328L221.546 144.33ZM253.1 144.33V130.674H250.346V144.33H253.1ZM284.826 144.545C285.777 144.552 286.72 144.367 287.6 143.999C288.433 143.656 289.19 143.15 289.829 142.508C290.469 141.867 290.976 141.104 291.323 140.263C291.687 139.389 291.874 138.45 291.874 137.502C291.874 136.554 291.687 135.615 291.323 134.741C290.976 133.9 290.469 133.137 289.83 132.496C289.19 131.855 288.433 131.348 287.6 131.005C285.827 130.278 283.845 130.278 282.072 131.005C281.239 131.349 280.482 131.855 279.843 132.496C279.204 133.138 278.696 133.901 278.349 134.741C277.985 135.615 277.798 136.554 277.798 137.502C277.798 138.45 277.985 139.389 278.349 140.263C278.696 141.104 279.204 141.867 279.843 142.508C280.482 143.149 281.239 143.656 282.072 143.999C282.945 144.365 283.881 144.55 284.826 144.543V144.545ZM284.826 141.951C284.255 141.956 283.689 141.839 283.164 141.609C282.663 141.391 282.211 141.072 281.834 140.673C281.452 140.263 281.152 139.783 280.95 139.258C280.52 138.125 280.52 136.869 280.95 135.736C281.154 135.215 281.454 134.738 281.834 134.332C282.211 133.932 282.663 133.613 283.164 133.395C283.689 133.165 284.255 133.049 284.826 133.054C285.4 133.049 285.969 133.166 286.497 133.395C287.002 133.612 287.458 133.931 287.837 134.332C288.217 134.739 288.517 135.215 288.72 135.736C289.151 136.869 289.151 138.125 288.72 139.258C288.518 139.783 288.218 140.263 287.837 140.673C287.458 141.074 287.002 141.392 286.497 141.609C285.969 141.838 285.4 141.954 284.826 141.949V141.951ZM319.154 144.331V135.196L325.936 144.331H328.367V130.675H325.784V139.513L319.173 130.675H316.55V144.331H319.154Z" fill="white"/>
</svg>
