<svg width="600" height="178" viewBox="0 0 600 178" fill="none" xmlns="http://www.w3.org/2000/svg">
<path d="M19.6133 0.445312H54.1948L41.8075 73.2213H8.25781L19.6133 0.445312V0.445312Z" fill="white"/>
<path d="M6.1945 84.0645H40.2593L39.2274 92.3194H67.6161L63.4853 121.739H0L6.1945 84.0645V84.0645Z" fill="white"/>
<path d="M450.08 6.63867H481.562L478.468 27.2827H446.982L450.08 6.63867V6.63867Z" fill="white"/>
<path d="M445.691 36.0605H477.174L471.5 74.2564H440.014L445.691 36.0605V36.0605Z" fill="white"/>
<path d="M438.466 84.0645H469.949L464.271 121.739H432.785L438.466 84.0645V84.0645Z" fill="white"/>
<path d="M294.461 84.0645H325.945L320.267 121.739H288.783L294.461 84.0645V84.0645Z" fill="white"/>
<path d="M101.937 84.0624C101.672 86.4962 101.489 89.5968 101.762 92.384C102.137 95.7847 103.457 98.5052 106.685 98.5052C110.935 98.5052 113.496 94.7645 114.964 90.3503C115.795 88.0498 116.388 86.1495 116.818 83.9824L146.159 83.9023L140.181 121.843H114.096L115.628 114.288C109.165 122.51 103.989 124.49 93.112 124.49C72.3397 124.49 69.0207 101.446 70.3377 84.069L101.937 84.0624V84.0624Z" fill="white"/>
<path d="M118.125 74.254C118.148 72.0936 118.12 70.8133 118.017 69.2997C117.713 65.3856 116.488 61.9899 112.581 61.9899C108.502 61.9899 106.061 66.0691 104.352 71C104.109 71.7669 103.896 72.507 102.937 74.2407L71.0645 74.2207C75.2953 56.0521 84.8171 34.7979 105.564 34.3695C111.229 34.2528 121.809 35.0263 125.948 43.1195L126.852 43.2946L128.19 35.9815H153.753L147.866 74.254H118.125V74.254Z" fill="white"/>
<path d="M155.618 74.256C153.714 70.4553 152.919 65.9077 153.676 60.495C156.265 41.968 170.193 32.5645 191.097 32.5645C200.103 32.5645 206.364 34.6799 213.566 39.0974L210.137 62.8871C204.909 58.5129 195.442 56.1891 189.833 56.1891C187.454 56.1891 184.499 56.7509 183.772 59.5748C182.713 63.6739 187.306 65.9277 192.892 67.9014C197.511 69.5351 201.437 71.5555 204.571 74.216L155.618 74.256V74.256Z" fill="white"/>
<path d="M211.712 84.1445C213.134 88.0453 213.559 92.7396 212.867 97.6939C210.038 117.918 192.684 125.526 174.16 125.526C161.923 125.526 156.775 123.246 147.045 117.464L151.396 90.8459C154.71 95.0934 165.94 101.868 173.455 101.481C176.34 101.335 182.168 99.3475 182.618 96.1202C183.07 92.8929 181.681 90.5125 174.432 88.2053C171.039 87.1318 167.816 85.9916 164.96 84.2312L211.712 84.1445V84.1445Z" fill="white"/>
<path d="M246.175 84.0771C244.922 91.6653 244.635 103.581 251.553 104.421C256.009 104.968 260.653 101.354 262.062 92.1987H290.047C285.169 120.964 268.311 126.185 248.257 126.039C226.408 125.879 213.328 108.089 214.931 84.0371L246.175 84.0771V84.0771Z" fill="white"/>
<path d="M539.869 74.2482C543.973 51.6988 554.959 33.2785 586.371 32.5633C592.536 32.4233 597.437 34.5104 600 36.0007L595.94 60.4172C583.474 55.3628 576.693 65.2848 574.299 74.2882L539.869 74.2482V74.2482Z" fill="white"/>
<path d="M573.579 84.0763C574.419 89.6974 577.656 94.9384 583.961 94.9384L590.815 94.4183L586.821 121.744C581.954 123.031 577.309 123.804 571.008 123.717C547.027 123.377 537.198 105.747 538.592 84.043L573.579 84.0763V84.0763Z" fill="white"/>
<path d="M396.422 84.0769C392.668 90.1581 388.914 94.639 380.399 93.8655L381.869 84.0502L348.713 84.0703L342.719 121.738H376.268C404.03 121.738 423.091 109.595 432.432 83.9902L396.422 84.0769V84.0769Z" fill="white"/>
<path d="M383.12 74.2749L389.691 31.9315C403.11 31.9315 406.204 42.2536 403.623 60.8339C402.98 65.4798 402.076 70.3808 400.866 74.3482L435.776 74.3882C437.04 69.1605 437.593 63.3577 438.207 57.2215C442.851 10.7673 417.563 0.445312 392.271 0.445312H360.785L356.398 33.4785C351.237 34.5104 338.591 36.059 331.88 45.0924C330.59 46.3827 329.816 45.8659 330.073 44.3173L331.363 36.059H301.688L296.01 74.2549H327.496C328.783 68.8338 342.979 60.8339 351.754 64.963L350.28 74.2215L383.12 74.2749V74.2749Z" fill="white"/>
<path d="M478.727 74.256C476.823 70.4553 476.027 65.9077 476.783 60.495C479.374 41.968 493.3 32.5645 514.204 32.5645C523.212 32.5645 529.473 34.6799 536.675 39.0974L533.244 62.8871C528.016 58.5129 518.548 56.1891 512.94 56.1891C510.563 56.1891 507.606 56.7509 506.879 59.5748C505.822 63.6739 510.413 65.9277 516.001 67.9014C520.618 69.5351 524.546 71.5555 527.676 74.216L478.727 74.256V74.256Z" fill="white"/>
<path d="M534.818 84.1445C536.241 88.0453 536.665 92.7396 535.975 97.6939C533.148 117.918 515.791 125.526 497.267 125.526C485.028 125.526 479.881 123.246 470.152 117.464L474.503 90.8459C477.817 95.0934 489.046 101.868 496.561 101.481C499.448 101.335 505.276 99.3475 505.726 96.1202C506.179 92.8929 504.789 90.5125 497.541 88.2053C494.147 87.1318 490.923 85.9916 488.069 84.2312L534.818 84.1445V84.1445Z" fill="white"/>
<path d="M582.934 16.7031H589.431V17.6616H586.724V24.7047H585.641V17.6616H582.934V16.7031V16.7031Z" fill="white"/>
<path d="M597.018 24.7047V19.9804C597.018 19.7454 597.042 18.7319 597.042 17.985H597.018L594.768 24.7047H593.698L591.447 17.9967H591.427C591.427 18.7319 591.447 19.7454 591.447 19.9804V24.7047H590.4V16.7031H591.951L594.234 23.4661H594.254L596.528 16.7031H598.065V24.7047H597.018V24.7047Z" fill="white"/>
<path fill-rule="evenodd" clip-rule="evenodd" d="M216.215 74.2402C221.121 50.4622 233.553 32.7337 258.816 32.562C276.136 32.4453 283.791 39.235 289.605 47.695C292.939 52.5443 293.338 63.2281 292.494 74.2603L216.215 74.2402ZM265.705 63.866C266.223 58.9384 265.256 52.4805 259.307 52.4805C253.699 52.4805 250.71 59.2785 250.238 63.866H265.705Z" fill="white"/>
<path d="M17.798 177.31C19.6785 177.307 21.5358 176.889 23.2407 176.083C24.9172 175.332 26.4047 174.206 27.5919 172.79V172.79L24.3501 169.495C23.5545 170.466 22.5664 171.257 21.4499 171.815C20.3546 172.353 19.1521 172.629 17.9352 172.621C16.9083 172.632 15.8894 172.437 14.9375 172.046C13.9856 171.655 13.1196 171.076 12.3896 170.343C11.6866 169.626 11.1312 168.774 10.7556 167.837C10.3529 166.843 10.1502 165.777 10.1592 164.701C10.1483 163.616 10.3453 162.538 10.7393 161.529C11.1071 160.59 11.6521 159.733 12.3438 159.006C13.0375 158.285 13.8671 157.713 14.7833 157.324C15.7381 156.913 16.7657 156.704 17.8029 156.71C19.0537 156.706 20.2885 156.997 21.409 157.561C22.5672 158.151 23.5814 158.995 24.3779 160.032V160.032L27.7226 156.633C26.5466 155.184 25.0502 154.037 23.3551 153.286C21.6129 152.469 19.7172 152.045 17.798 152.041C16.0838 152.03 14.3843 152.363 12.7981 153.023C11.2952 153.641 9.92304 154.546 8.75566 155.688C7.6034 156.831 6.68692 158.195 6.05963 159.701C5.40934 161.279 5.07313 162.973 5.07033 164.684C5.06753 166.395 5.39818 168.09 6.04329 169.671C6.66315 171.171 7.57385 172.53 8.72134 173.667C9.88927 174.808 11.262 175.713 12.7654 176.33C14.3624 176.992 16.073 177.325 17.798 177.31V177.31ZM82.4651 177.346C84.1736 177.359 85.8673 177.025 87.447 176.365C88.9432 175.749 90.3046 174.839 91.4527 173.687C92.6007 172.536 93.5128 171.165 94.1364 169.654C94.7894 168.084 95.1258 166.398 95.1258 164.695C95.1258 162.991 94.7894 161.305 94.1364 159.735C93.5129 158.224 92.6008 156.854 91.4528 155.702C90.3047 154.55 88.9433 153.64 87.447 153.024C84.2621 151.717 80.7007 151.717 77.5158 153.024C76.0195 153.64 74.6581 154.55 73.51 155.702C72.362 156.854 71.4499 158.224 70.8264 159.735C70.1739 161.305 69.8377 162.991 69.8377 164.695C69.8377 166.398 70.1739 168.084 70.8264 169.654C71.45 171.165 72.3621 172.536 73.5101 173.687C74.6582 174.839 76.0196 175.749 77.5158 176.365C79.0853 177.023 80.7686 177.356 82.4667 177.345L82.4651 177.346ZM82.4651 172.686C81.4624 172.694 80.4686 172.495 79.5446 172.1C78.6205 171.705 77.7856 171.123 77.091 170.39C76.4058 169.654 75.8671 168.792 75.5044 167.849C74.7306 165.813 74.7306 163.558 75.5044 161.522C75.8702 160.587 76.4087 159.73 77.091 159C77.7856 158.266 78.6205 157.684 79.5446 157.289C80.4686 156.895 81.4624 156.695 82.4651 156.704C83.4971 156.696 84.5196 156.905 85.4683 157.317C86.3742 157.707 87.1925 158.279 87.8735 159C88.5558 159.73 89.0943 160.587 89.46 161.522C90.2335 163.558 90.2335 165.813 89.46 167.849C89.0973 168.792 88.5586 169.654 87.8735 170.39C87.1924 171.11 86.3741 171.683 85.4683 172.072C84.52 172.484 83.4981 172.692 82.4667 172.684L82.4651 172.686ZM157.472 176.962V172.477H144.4V152.428H139.456V176.959L157.472 176.962ZM219.855 176.962V172.477H206.783V152.428H201.835V176.959L219.855 176.962ZM282.713 176.962V172.546H269.166V166.727H278.006V162.45H269.166V156.848H282.577V152.432H264.215V176.964L282.713 176.962ZM337.588 177.312C339.468 177.309 341.326 176.89 343.03 176.085C344.707 175.334 346.194 174.208 347.382 172.792V172.792L344.138 169.498C343.343 170.47 342.355 171.26 341.238 171.819C340.143 172.357 338.94 172.632 337.723 172.624C336.697 172.635 335.678 172.44 334.726 172.049C333.775 171.658 332.909 171.079 332.179 170.347C331.476 169.63 330.921 168.778 330.545 167.841C330.142 166.846 329.939 165.78 329.947 164.705C329.937 163.619 330.134 162.541 330.529 161.532C330.896 160.593 331.44 159.736 332.132 159.009C332.825 158.288 333.655 157.716 334.571 157.327C335.526 156.916 336.554 156.707 337.591 156.714C338.846 156.709 340.085 157.003 341.209 157.571C342.367 158.161 343.381 159.005 344.177 160.042V160.042L347.522 156.643C346.346 155.194 344.85 154.047 343.155 153.296C341.413 152.48 339.518 152.055 337.599 152.051C335.885 152.04 334.185 152.373 332.599 153.033C331.096 153.65 329.723 154.554 328.555 155.696C327.402 156.839 326.485 158.203 325.858 159.709C325.207 161.288 324.871 162.981 324.869 164.692C324.866 166.403 325.196 168.098 325.841 169.679C326.461 171.179 327.372 172.538 328.519 173.675C329.687 174.816 331.06 175.721 332.563 176.339C334.158 176.996 335.866 177.326 337.588 177.31V177.312ZM403.041 176.962V156.913H411.059V152.426H390.038V156.913H398.092V176.959L403.041 176.962ZM459.723 176.962V152.431H454.775V176.962H459.723ZM516.713 177.348C518.422 177.361 520.116 177.027 521.695 176.367C523.192 175.751 524.553 174.841 525.701 173.689C526.849 172.537 527.761 171.167 528.385 169.656C529.037 168.086 529.374 166.4 529.374 164.696C529.374 162.993 529.037 161.307 528.385 159.737C527.761 158.226 526.849 156.855 525.701 155.703C524.553 154.552 523.192 153.642 521.695 153.026C518.511 151.719 514.95 151.719 511.766 153.026C510.27 153.643 508.91 154.553 507.762 155.705C506.614 156.856 505.702 158.227 505.078 159.737C504.425 161.306 504.088 162.993 504.088 164.696C504.088 166.4 504.425 168.086 505.078 169.656C505.702 171.166 506.614 172.536 507.762 173.688C508.91 174.84 510.27 175.75 511.766 176.367C513.334 177.024 515.017 177.356 516.713 177.345V177.348ZM516.713 172.687C515.687 172.696 514.67 172.487 513.728 172.074C512.829 171.682 512.016 171.109 511.339 170.392C510.653 169.656 510.114 168.794 509.751 167.851C508.978 165.815 508.978 163.56 509.751 161.524C510.117 160.588 510.656 159.732 511.339 159.001C512.016 158.283 512.829 157.711 513.728 157.319C514.67 156.905 515.687 156.696 516.713 156.706C517.745 156.698 518.767 156.906 519.715 157.319C520.621 157.708 521.44 158.281 522.122 159.001C522.804 159.732 523.343 160.588 523.708 161.524C524.483 163.56 524.483 165.815 523.708 167.851C523.346 168.793 522.807 169.656 522.122 170.392C521.44 171.112 520.621 171.684 519.715 172.074C518.767 172.485 517.745 172.693 516.713 172.684V172.687ZM578.377 176.964V160.554L590.56 176.964H594.928V152.432H590.287V168.308L578.412 152.432H573.701V176.964H578.377Z" fill="white"/>
</svg>
