<svg width="723" height="85" viewBox="0 0 723 85" fill="none" xmlns="http://www.w3.org/2000/svg">
<g id="gamemeta">
<g id="GAME DETAILS">
<g id="ICON DIVIDERS" opacity="0.351446">
<rect id="Rectangle" x="170" width="1" height="73" fill="white"/>
<rect id="Rectangle_2" x="361" width="1" height="73" fill="white"/>
<rect id="Rectangle_3" x="552" width="1" height="73" fill="white"/>
</g>
<g id="MD_LBL_PLAYERS INFO">
<g id="PLAYERS - ICON">
<path id="Oval" d="M258.5 8C258.5 11.5899 255.59 14.5 252 14.5C248.41 14.5 245.5 11.5899 245.5 8C245.5 4.41015 248.41 1.5 252 1.5C255.59 1.5 258.5 4.41015 258.5 8Z" stroke="white" stroke-width="3"/>
<path id="Rectangle_4" d="M245 19.5H259C262.038 19.5 264.5 21.9624 264.5 25V36.5H239.5V25C239.5 21.9624 241.962 19.5 245 19.5Z" stroke="white" stroke-width="3"/>
<path id="Oval_2" d="M287.5 8C287.5 11.5899 284.59 14.5 281 14.5C277.41 14.5 274.5 11.5899 274.5 8C274.5 4.41015 277.41 1.5 281 1.5C284.59 1.5 287.5 4.41015 287.5 8Z" stroke="white" stroke-width="3"/>
<path id="Rectangle_5" d="M274 19.5H288C291.038 19.5 293.5 21.9624 293.5 25V36.5H268.5V25C268.5 21.9624 270.962 19.5 274 19.5Z" stroke="white" stroke-width="3"/>
</g>
</g>
<g id="MD_DEVELOPER INFO">
<g id="PROCESSOR - ICON">
<g id="Group 51">
<rect id="Rectangle_6" x="420" y="13" width="8" height="3" rx="1.5" fill="white"/>
<rect id="Rectangle_7" x="420" y="18" width="8" height="3" rx="1.5" fill="white"/>
<rect id="Rectangle_8" x="420" y="23" width="8" height="3" rx="1.5" fill="white"/>
</g>
<g id="Group 52">
<rect id="Rectangle_9" x="448" y="1" width="7" height="3" rx="1.5" transform="rotate(90 448 1)" fill="white"/>
<rect id="Rectangle_10" x="443" y="1" width="7" height="3" rx="1.5" transform="rotate(90 443 1)" fill="white"/>
<rect id="Rectangle_11" x="438" y="1" width="7" height="3" rx="1.5" transform="rotate(90 438 1)" fill="white"/>
<rect id="Rectangle_12" x="463" y="1" width="7" height="3" rx="1.5" transform="rotate(90 463 1)" fill="white"/>
<rect id="Rectangle_13" x="458" y="1" width="7" height="3" rx="1.5" transform="rotate(90 458 1)" fill="white"/>
<rect id="Rectangle_14" x="453" y="1" width="7" height="3" rx="1.5" transform="rotate(90 453 1)" fill="white"/>
<rect id="Rectangle_15" x="478" y="1" width="7" height="3" rx="1.5" transform="rotate(90 478 1)" fill="white"/>
<rect id="Rectangle_16" x="468" y="1" width="7" height="3" rx="1.5" transform="rotate(90 468 1)" fill="white"/>
<rect id="Rectangle_17" x="473" y="1" width="7" height="3" rx="1.5" transform="rotate(90 473 1)" fill="white"/>
</g>
<g id="Group 52_2">
<rect id="Rectangle_18" x="448" y="31" width="7" height="3" rx="1.5" transform="rotate(90 448 31)" fill="white"/>
<rect id="Rectangle_19" x="443" y="31" width="7" height="3" rx="1.5" transform="rotate(90 443 31)" fill="white"/>
<rect id="Rectangle_20" x="438" y="31" width="7" height="3" rx="1.5" transform="rotate(90 438 31)" fill="white"/>
<rect id="Rectangle_21" x="463" y="31" width="7" height="3" rx="1.5" transform="rotate(90 463 31)" fill="white"/>
<rect id="Rectangle_22" x="458" y="31" width="7" height="3" rx="1.5" transform="rotate(90 458 31)" fill="white"/>
<rect id="Rectangle_23" x="453" y="31" width="7" height="3" rx="1.5" transform="rotate(90 453 31)" fill="white"/>
<rect id="Rectangle_24" x="478" y="31" width="7" height="3" rx="1.5" transform="rotate(90 478 31)" fill="white"/>
<rect id="Rectangle_25" x="468" y="31" width="7" height="3" rx="1.5" transform="rotate(90 468 31)" fill="white"/>
<rect id="Rectangle_26" x="473" y="31" width="7" height="3" rx="1.5" transform="rotate(90 473 31)" fill="white"/>
</g>
<g id="Group 51_2">
<rect id="Rectangle_27" x="486" y="13" width="8" height="3" rx="1.5" fill="white"/>
<rect id="Rectangle_28" x="486" y="18" width="8" height="3" rx="1.5" fill="white"/>
<rect id="Rectangle_29" x="486" y="23" width="8" height="3" rx="1.5" fill="white"/>
</g>
<path id="Rectangle (Stroke)" fill-rule="evenodd" clip-rule="evenodd" d="M428 9V30H485V9H428ZM427.556 6C426.144 6 425 7.14416 425 8.55556V30.4444C425 31.8558 426.144 33 427.556 33H485.444C486.856 33 488 31.8558 488 30.4444V8.55556C488 7.14416 486.856 6 485.444 6H427.556Z" fill="white"/>
<path id="Rectangle (Stroke)_2" fill-rule="evenodd" clip-rule="evenodd" d="M480 14H433V25H480V14ZM431 12V27H482V12H431Z" fill="white"/>
</g>
</g>
<g id="RELEASEDATE - INFO">
<g id="RELEASEDATE - ICON">
<rect id="Rectangle_30" x="632" width="10" height="3" rx="1.5" transform="rotate(90 632 0)" fill="white"/>
<rect id="Rectangle_31" x="620" y="11" width="57" height="2" fill="white"/>
<rect id="Rectangle_32" x="668" width="10" height="3" rx="1.5" transform="rotate(90 668 0)" fill="white"/>
<path id="Rectangle (Stroke)_3" fill-rule="evenodd" clip-rule="evenodd" d="M623 6V35H674V6H623ZM622.556 3C621.144 3 620 4.14416 620 5.55556V35.4444C620 36.8558 621.144 38 622.556 38H674.444C675.856 38 677 36.8558 677 35.4444V5.55556C677 4.14416 675.856 3 674.444 3H622.556Z" fill="white"/>
<path id="Oval_3" fill-rule="evenodd" clip-rule="evenodd" d="M634.5 18C635.328 18 636 17.3284 636 16.5C636 15.6716 635.328 15 634.5 15C633.672 15 633 15.6716 633 16.5C633 17.3284 633.672 18 634.5 18Z" fill="white"/>
<path id="Oval_4" fill-rule="evenodd" clip-rule="evenodd" d="M641.5 18C642.328 18 643 17.3284 643 16.5C643 15.6716 642.328 15 641.5 15C640.672 15 640 15.6716 640 16.5C640 17.3284 640.672 18 641.5 18Z" fill="white"/>
<path id="Oval_5" fill-rule="evenodd" clip-rule="evenodd" d="M648.5 18C649.328 18 650 17.3284 650 16.5C650 15.6716 649.328 15 648.5 15C647.672 15 647 15.6716 647 16.5C647 17.3284 647.672 18 648.5 18Z" fill="white"/>
<path id="Oval_6" fill-rule="evenodd" clip-rule="evenodd" d="M655.5 18C656.328 18 657 17.3284 657 16.5C657 15.6716 656.328 15 655.5 15C654.672 15 654 15.6716 654 16.5C654 17.3284 654.672 18 655.5 18Z" fill="white"/>
<path id="Oval_7" fill-rule="evenodd" clip-rule="evenodd" d="M662.5 18C663.328 18 664 17.3284 664 16.5C664 15.6716 663.328 15 662.5 15C661.672 15 661 15.6716 661 16.5C661 17.3284 661.672 18 662.5 18Z" fill="white"/>
<path id="Oval_8" fill-rule="evenodd" clip-rule="evenodd" d="M669.5 18C670.328 18 671 17.3284 671 16.5C671 15.6716 670.328 15 669.5 15C668.672 15 668 15.6716 668 16.5C668 17.3284 668.672 18 669.5 18Z" fill="white"/>
<path id="Oval_9" fill-rule="evenodd" clip-rule="evenodd" d="M627.5 23C628.328 23 629 22.3284 629 21.5C629 20.6716 628.328 20 627.5 20C626.672 20 626 20.6716 626 21.5C626 22.3284 626.672 23 627.5 23Z" fill="white"/>
<path id="Oval_10" fill-rule="evenodd" clip-rule="evenodd" d="M634.5 23C635.328 23 636 22.3284 636 21.5C636 20.6716 635.328 20 634.5 20C633.672 20 633 20.6716 633 21.5C633 22.3284 633.672 23 634.5 23Z" fill="white"/>
<path id="Oval_11" fill-rule="evenodd" clip-rule="evenodd" d="M641.5 23C642.328 23 643 22.3284 643 21.5C643 20.6716 642.328 20 641.5 20C640.672 20 640 20.6716 640 21.5C640 22.3284 640.672 23 641.5 23Z" fill="white"/>
<path id="Oval_12" fill-rule="evenodd" clip-rule="evenodd" d="M648.5 23C649.328 23 650 22.3284 650 21.5C650 20.6716 649.328 20 648.5 20C647.672 20 647 20.6716 647 21.5C647 22.3284 647.672 23 648.5 23Z" fill="white"/>
<path id="Oval_13" fill-rule="evenodd" clip-rule="evenodd" d="M655.5 23C656.328 23 657 22.3284 657 21.5C657 20.6716 656.328 20 655.5 20C654.672 20 654 20.6716 654 21.5C654 22.3284 654.672 23 655.5 23Z" fill="white"/>
<path id="Oval_14" fill-rule="evenodd" clip-rule="evenodd" d="M662.5 23C663.328 23 664 22.3284 664 21.5C664 20.6716 663.328 20 662.5 20C661.672 20 661 20.6716 661 21.5C661 22.3284 661.672 23 662.5 23Z" fill="white"/>
<path id="Oval_15" fill-rule="evenodd" clip-rule="evenodd" d="M669.5 23C670.328 23 671 22.3284 671 21.5C671 20.6716 670.328 20 669.5 20C668.672 20 668 20.6716 668 21.5C668 22.3284 668.672 23 669.5 23Z" fill="white"/>
<path id="Oval_16" fill-rule="evenodd" clip-rule="evenodd" d="M627.5 28C628.328 28 629 27.3284 629 26.5C629 25.6716 628.328 25 627.5 25C626.672 25 626 25.6716 626 26.5C626 27.3284 626.672 28 627.5 28Z" fill="white"/>
<path id="Oval_17" fill-rule="evenodd" clip-rule="evenodd" d="M634.5 28C635.328 28 636 27.3284 636 26.5C636 25.6716 635.328 25 634.5 25C633.672 25 633 25.6716 633 26.5C633 27.3284 633.672 28 634.5 28Z" fill="white"/>
<path id="Oval_18" fill-rule="evenodd" clip-rule="evenodd" d="M641.5 28C642.328 28 643 27.3284 643 26.5C643 25.6716 642.328 25 641.5 25C640.672 25 640 25.6716 640 26.5C640 27.3284 640.672 28 641.5 28Z" fill="white"/>
<path id="Oval_19" fill-rule="evenodd" clip-rule="evenodd" d="M648.5 28C649.328 28 650 27.3284 650 26.5C650 25.6716 649.328 25 648.5 25C647.672 25 647 25.6716 647 26.5C647 27.3284 647.672 28 648.5 28Z" fill="white"/>
<path id="Oval_20" fill-rule="evenodd" clip-rule="evenodd" d="M655.5 28C656.328 28 657 27.3284 657 26.5C657 25.6716 656.328 25 655.5 25C654.672 25 654 25.6716 654 26.5C654 27.3284 654.672 28 655.5 28Z" fill="white"/>
<path id="Oval_21" fill-rule="evenodd" clip-rule="evenodd" d="M662.5 28C663.328 28 664 27.3284 664 26.5C664 25.6716 663.328 25 662.5 25C661.672 25 661 25.6716 661 26.5C661 27.3284 661.672 28 662.5 28Z" fill="white"/>
<path id="Oval_22" fill-rule="evenodd" clip-rule="evenodd" d="M669.5 28C670.328 28 671 27.3284 671 26.5C671 25.6716 670.328 25 669.5 25C668.672 25 668 25.6716 668 26.5C668 27.3284 668.672 28 669.5 28Z" fill="white"/>
<path id="Oval_23" fill-rule="evenodd" clip-rule="evenodd" d="M627.5 33C628.328 33 629 32.3284 629 31.5C629 30.6716 628.328 30 627.5 30C626.672 30 626 30.6716 626 31.5C626 32.3284 626.672 33 627.5 33Z" fill="white"/>
<path id="Oval_24" fill-rule="evenodd" clip-rule="evenodd" d="M634.5 33C635.328 33 636 32.3284 636 31.5C636 30.6716 635.328 30 634.5 30C633.672 30 633 30.6716 633 31.5C633 32.3284 633.672 33 634.5 33Z" fill="white"/>
<path id="Oval_25" fill-rule="evenodd" clip-rule="evenodd" d="M641.5 33C642.328 33 643 32.3284 643 31.5C643 30.6716 642.328 30 641.5 30C640.672 30 640 30.6716 640 31.5C640 32.3284 640.672 33 641.5 33Z" fill="white"/>
<path id="Oval_26" fill-rule="evenodd" clip-rule="evenodd" d="M648.5 33C649.328 33 650 32.3284 650 31.5C650 30.6716 649.328 30 648.5 30C647.672 30 647 30.6716 647 31.5C647 32.3284 647.672 33 648.5 33Z" fill="white"/>
<path id="Oval_27" fill-rule="evenodd" clip-rule="evenodd" d="M655.5 33C656.328 33 657 32.3284 657 31.5C657 30.6716 656.328 30 655.5 30C654.672 30 654 30.6716 654 31.5C654 32.3284 654.672 33 655.5 33Z" fill="white"/>
<path id="Oval_28" fill-rule="evenodd" clip-rule="evenodd" d="M662.5 33C663.328 33 664 32.3284 664 31.5C664 30.6716 663.328 30 662.5 30C661.672 30 661 30.6716 661 31.5C661 32.3284 661.672 33 662.5 33Z" fill="white"/>
</g>
</g>
</g>
<g id="Group 99">
<g id="Group 98">
<path id="Oval_29" d="M64.8714 15.3184C64.8714 17.7876 62.8697 19.7893 60.4006 19.7893C57.9314 19.7893 55.9297 17.7876 55.9297 15.3184C55.9297 12.8492 57.9314 10.8475 60.4006 10.8475C62.8697 10.8475 64.8714 12.8492 64.8714 15.3184Z" stroke="white" stroke-width="2"/>
<g id="Group 39">
<rect id="Rectangle_33" x="59.3572" y="11.6712" width="2.08414" height="7.29449" rx="0.771429" fill="white"/>
<path id="Rectangle_34" fill-rule="evenodd" clip-rule="evenodd" d="M57.5244 16.3605C57.0983 16.3605 56.7529 16.0152 56.7529 15.5891V15.0478C56.7529 14.6218 57.0983 14.2764 57.5244 14.2764H63.276C63.702 14.2764 64.0474 14.6218 64.0474 15.0478V15.5891C64.0474 16.0152 63.702 16.3605 63.276 16.3605H57.5244Z" fill="white"/>
</g>
</g>
<path id="Oval_30" d="M91.1317 10.577C91.1317 10.8304 90.9262 11.0359 90.6728 11.0359C90.4193 11.0359 90.2139 10.8304 90.2139 10.577C90.2139 10.3236 90.4193 10.1181 90.6728 10.1181C90.9262 10.1181 91.1317 10.3236 91.1317 10.577Z" fill="white" stroke="white" stroke-width="2"/>
<path id="Oval_31" d="M88.2139 13.4948C88.2139 13.7482 88.0085 13.9537 87.755 13.9537C87.5016 13.9537 87.2961 13.7482 87.2961 13.4948C87.2961 13.2413 87.5016 13.0359 87.755 13.0359C88.0085 13.0359 88.2139 13.2413 88.2139 13.4948Z" fill="white" stroke="white" stroke-width="2"/>
<path id="Oval_32" d="M94.0494 13.4948C94.0494 13.7482 93.8439 13.9537 93.5905 13.9537C93.337 13.9537 93.1316 13.7482 93.1316 13.4948C93.1316 13.2413 93.337 13.0359 93.5905 13.0359C93.8439 13.0359 94.0494 13.2413 94.0494 13.4948Z" fill="white" stroke="white" stroke-width="2"/>
<path id="Oval_33" d="M91.1317 16.4126C91.1317 16.6661 90.9262 16.8715 90.6728 16.8715C90.4193 16.8715 90.2139 16.6661 90.2139 16.4126C90.2139 16.1592 90.4193 15.9537 90.6728 15.9537C90.9262 15.9537 91.1317 16.1592 91.1317 16.4126Z" fill="white" stroke="white" stroke-width="2"/>
<path id="Oval_34" d="M85.2962 16.7774C85.2962 17.2322 84.9274 17.601 84.4725 17.601C84.0177 17.601 83.6489 17.2322 83.6489 16.7774C83.6489 16.3225 84.0177 15.9537 84.4725 15.9537C84.9274 15.9537 85.2962 16.3225 85.2962 16.7774Z" fill="white" stroke="white" stroke-width="2"/>
<path id="Oval_35" d="M75.8133 17.1421C75.8133 17.3955 75.6078 17.601 75.3544 17.601C75.101 17.601 74.8955 17.3955 74.8955 17.1421C74.8955 16.8886 75.101 16.6832 75.3544 16.6832C75.6078 16.6832 75.8133 16.8886 75.8133 17.1421Z" fill="white" stroke="white" stroke-width="2"/>
<path id="Oval_36" d="M88.2139 19.6951C88.2139 20.15 87.8451 20.5188 87.3903 20.5188C86.9354 20.5188 86.5667 20.15 86.5667 19.6951C86.5667 19.2403 86.9354 18.8715 87.3903 18.8715C87.8451 18.8715 88.2139 19.2403 88.2139 19.6951Z" fill="white" stroke="white" stroke-width="2"/>
<rect id="Rectangle 16" x="69.2544" y="5.24139" width="12.1301" height="1.9178" rx="0.958898" stroke="white"/>
<path id="Subtract" fill-rule="evenodd" clip-rule="evenodd" d="M75.3544 32.4605C78.1745 32.4605 80.4606 30.1744 80.4606 27.3544C80.4606 24.5343 78.1745 22.2482 75.3544 22.2482C72.5344 22.2482 70.2483 24.5343 70.2483 27.3544C70.2483 30.1744 72.5344 32.4605 75.3544 32.4605ZM76.4329 24.7504L75.3543 24.2907L74.2757 24.7504L73.1879 25.188L72.7504 26.2758L72.2906 27.3544L72.7504 28.433L73.1879 29.5207L74.2757 29.9583L75.3543 30.4181L76.4329 29.9583L77.5206 29.5207L77.9582 28.433L78.418 27.3544L77.9582 26.2758L77.5206 25.188L76.4329 24.7504Z" fill="white"/>
<circle id="Ellipse 7" cx="75.3541" cy="27.3544" r="1.70205" fill="white"/>
<path id="Union" fill-rule="evenodd" clip-rule="evenodd" d="M60.4998 27.5118C62.555 27.9178 64.6862 28.3316 66.6673 28.7035C66.8371 28.7353 66.9523 28.87 66.9646 29.0267L66.9855 29.2956C67.2923 33.2324 67.7286 38.8311 68.7736 43.4894C69.3064 45.8647 70.0164 48.0875 71.0028 49.7414C71.9837 51.3861 73.3903 52.7004 75.352 52.7004C77.3169 52.7004 78.7238 51.3752 79.7039 49.7234C80.6906 48.0607 81.4016 45.8263 81.9356 43.4395C82.9869 38.7411 83.4245 33.098 83.7293 29.167L83.7467 28.9429C83.7588 28.7863 83.8739 28.6517 84.0435 28.6197C85.8138 28.2856 87.6884 27.9216 89.5109 27.5622C90.221 30.9198 91.1419 34.4041 92.2947 37.0968C92.9294 38.5793 93.6684 39.9045 94.5407 40.8353C95.4211 41.7748 96.5736 42.4427 97.95 42.2154C99.7088 41.925 100.657 40.3644 101.176 38.7339C101.714 37.045 101.94 34.8537 101.989 32.5225C102.087 27.9149 101.496 22.4372 100.938 18.3972C101.107 17.6191 101.196 16.8135 101.196 15.9908V15.1658C101.196 9.82395 97.4541 5.17475 92.1492 4.25723C90.2554 3.92969 88.175 3.59207 86.0739 3.29132C85.9077 2.41117 85.3608 1.58755 84.3688 1.21933C82.8724 0.663872 80.1047 0 75.4198 0C70.735 0 67.9673 0.663872 66.4708 1.21933C65.5102 1.57589 64.967 2.35943 64.7827 3.20784C62.4819 3.52877 60.1875 3.89906 58.1165 4.25725C52.8115 5.17476 49.0696 9.82397 49.0696 15.1658V15.9908C49.0696 16.5236 49.1068 17.0492 49.1788 17.5648C48.6083 21.5374 47.9498 27.2206 48.003 32.0499C48.0299 34.4863 48.2378 36.7873 48.7701 38.5612C49.2812 40.2644 50.2337 41.9155 52.0501 42.2154C53.4297 42.4433 54.5842 41.7717 55.4655 40.8287C56.3389 39.8942 57.0788 38.5639 57.7142 37.076C58.8685 34.3729 59.7899 30.8767 60.4998 27.5118ZM75.4198 2.18835C70.9378 2.18835 68.4367 2.82386 67.2323 3.27091C67.118 3.31335 67.0379 3.38657 66.9811 3.49563C66.9194 3.61414 66.8806 3.78921 66.906 4.0012L67.0393 5.11151L65.9691 5.25446C63.4074 5.59664 60.8111 6.01204 58.4894 6.41359C54.2765 7.14223 51.2579 10.8446 51.2579 15.1658V15.9908C51.2579 16.4671 51.2947 16.9362 51.3658 17.3949C51.9402 21.1016 54.7556 24.1343 58.5191 24.8869C58.9586 24.9748 59.4063 25.0641 59.8598 25.1542L60.056 25.1931C62.3682 25.652 64.8183 26.1299 67.071 26.5527C68.1977 26.7642 69.0559 27.6982 69.1463 28.8565L69.1627 29.0669C69.4724 33.0393 69.8988 38.5075 70.9089 43.0104C71.4246 45.3092 72.0736 47.2646 72.8822 48.6204C73.6963 49.9853 74.5208 50.5121 75.352 50.5121C76.1795 50.5121 77.0051 49.9833 77.822 48.6066C78.6324 47.2409 79.2831 45.2725 79.8001 42.9617C80.8167 38.4182 81.2444 32.904 81.5521 28.9378L81.5649 28.7736C81.6547 27.6159 82.5118 26.6818 83.6377 26.4693C85.7219 26.076 87.9532 25.6407 90.0743 25.22L90.1507 25.2048C90.6915 25.0975 91.2249 24.9913 91.7466 24.8869C92.5396 24.7283 93.2906 24.4685 93.9873 24.1225C95.2725 23.4842 96.3733 22.5525 97.2138 21.4217C97.892 20.5093 98.4007 19.4674 98.7 18.3454C98.722 18.2632 98.7428 18.1805 98.7624 18.0975C98.9231 17.4191 99.0077 16.7133 99.0077 15.9908V15.1658C99.0077 10.8445 95.9892 7.14222 91.7762 6.41357C89.624 6.04133 87.2356 5.65714 84.8573 5.33041L83.7917 5.18401L83.9336 4.00125C83.959 3.78923 83.9203 3.61415 83.8585 3.49563C83.8017 3.38657 83.7216 3.31335 83.6073 3.27091C82.4029 2.82386 79.9019 2.18835 75.4198 2.18835ZM50.8101 22.0193C52.4048 24.5456 54.9856 26.412 58.0898 27.0328C58.1773 27.0503 58.2651 27.0678 58.3532 27.0854C57.6556 30.3872 56.7717 33.7109 55.7017 36.2165C55.1055 37.6128 54.4853 38.6726 53.8667 39.3345C53.256 39.9879 52.7865 40.119 52.4066 40.0563C51.9176 39.9756 51.3309 39.4811 50.8661 37.9321C50.4224 36.4538 50.2174 34.3962 50.1912 32.0258C50.1561 28.8411 50.4437 25.2395 50.8101 22.0193ZM94.3064 36.2356C93.2384 33.7409 92.3553 30.4302 91.6576 27.1363L92.1758 27.0328C92.6068 26.9466 93.0277 26.8364 93.4373 26.7037C95.8417 25.925 97.8556 24.3729 99.2287 22.3645C99.5938 25.6518 99.8687 29.2978 99.8015 32.4763C99.7538 34.7385 99.5334 36.6813 99.0913 38.0701C98.6305 39.5173 98.0657 39.9783 97.5934 40.0563C97.2143 40.1189 96.7462 39.9885 96.1375 39.3389C95.5206 38.6807 94.9017 37.626 94.3064 36.2356Z" fill="white"/>
</g>
</g>
</svg>
