<svg width="758" height="101" viewBox="0 0 758 101" fill="none" xmlns="http://www.w3.org/2000/svg">
<path fill-rule="evenodd" clip-rule="evenodd" d="M20.362 100.115L21.8469 80.4934H29.9726L31.6068 100.115H51.6583L39.0903 0.859875L13.1812 0.859875L0.420898 100.115H20.362ZM28.7986 64.1151H23.0208L25.9496 25.5439L28.7986 64.1151V64.1151ZM84.3781 0.859875L56.4442 0.859875L56.4442 100.115H75.5529V43.5891L83.4577 100.115H95.8642L103.456 43.8979V100.115L122.565 100.115V0.859875L94.59 0.859875L89.393 44.7017L84.3781 0.859875V0.859875ZM126.044 12.9391C126.031 19.7804 125.954 26.6177 126.007 33.459C126.046 34.5777 126.111 35.6965 126.177 36.5003C126.32 38.1937 126.455 38.7112 126.737 39.8095C127.025 40.8955 127.516 42.2535 128.287 43.4561C128.649 44.0309 129.054 44.5769 129.66 45.2375C130.265 45.8981 131.067 46.6733 131.916 47.3953C133.66 48.9026 135.56 50.0684 137.469 51.0747C141.639 53.3796 145.778 55.656 149.977 57.9917C150.538 58.3496 151.137 58.6461 151.728 59.225C153.17 60.6116 153.168 62.2212 153.145 63.7613L153.227 65.9047L153.258 79.344C153.27 80.3257 153.178 81.2952 152.704 82.3362C152.37 82.9635 151.814 83.4431 151.145 83.6802C150.475 83.9172 149.741 83.8945 149.088 83.6165C148.762 83.4802 148.465 83.2854 148.21 83.0418C147.149 82.0171 147.271 80.565 147.118 79.3215L147.11 59.0961H125.984L126.007 81.7431C126.021 84.5225 126.042 87.1568 126.643 89.8811C126.966 91.2841 127.484 92.7444 128.267 94.0493C129.05 95.3582 130.097 96.5118 131.327 97.4137C132.554 98.3136 133.961 98.962 135.074 99.3444C136.186 99.7289 137.004 99.8516 137.824 99.9498C138.642 100.048 139.459 100.156 140.279 100.156H161.741C162.713 100.156 163.686 100.199 164.887 99.868C166.245 99.4908 167.542 98.9205 168.738 98.1745C169.967 97.3912 171.004 96.4156 171.72 95.3664C172.436 94.3193 172.829 93.2005 173.166 92.1902C173.506 91.1839 173.788 90.282 173.994 89.0814C174.203 87.8808 174.334 86.3817 174.406 84.8784C174.479 83.3772 174.442 81.874 174.442 80.3727V64.4628C174.442 64.1642 174.442 63.8636 174.436 63.1927C174.428 62.5198 174.416 61.4747 174.369 60.2803C174.324 59.0859 174.242 57.7421 174.168 56.875C174.105 55.9238 173.936 54.9827 173.665 54.0689C173.528 53.581 173.349 53.1061 173.129 52.6495C172.732 51.7944 172.269 50.9712 171.745 50.187C171.155 49.3153 170.468 48.5132 169.697 47.7961C168.928 47.0803 168.078 46.4545 167.133 45.8061C165.11 44.4309 163.028 43.1453 160.893 41.9529L151.924 37.0586C151.383 36.7669 150.853 36.453 150.337 36.1178C149.891 35.8217 149.454 35.5121 149.026 35.1893C148.488 34.7782 148.486 34.725 148.259 34.4857C148.171 34.3834 148.085 34.2812 147.936 34.0378C147.599 33.4999 147.192 32.553 147.116 31.7533C147.063 31.3238 147.108 30.8902 147.108 30.4566C147.112 27.3335 147.091 24.1081 147.122 21.0853C147.104 20.3817 147.122 19.5779 147.382 18.8273C147.502 18.4571 147.66 18.1013 147.854 17.7986C148.873 16.4385 150.092 16.2401 151.433 16.8046C152.058 17.1542 152.549 17.7008 152.83 18.359C152.969 18.6862 153.053 19.0359 153.108 19.5207C153.221 20.5187 153.233 21.8891 153.225 23.0957V34.8988H174.442C174.42 28.804 174.516 22.7133 174.377 16.6144C174.316 15.2032 174.213 13.7919 174.127 12.8613C174.081 12.2496 173.998 11.6411 173.88 11.039C173.789 10.5945 173.681 10.1537 173.555 9.71782C173.398 9.16511 173.199 8.62555 172.958 8.10412C172.539 7.14336 172.022 6.22838 171.415 5.37373C170.73 4.437 169.881 3.61276 168.924 2.94806C167.967 2.28336 166.906 1.7741 165.993 1.44686C164.198 0.831246 162.832 0.726929 161.275 0.52854C160.512 0.434283 159.743 0.383756 158.974 0.377197L140.61 0.524452C138.449 0.576287 136.302 0.89363 134.219 1.46935C133.552 1.67387 132.922 1.93158 132.325 2.24655C131.122 2.90307 130.122 3.62095 129.085 4.89514C128.5 5.62847 127.988 6.41686 127.555 7.24921C126.637 9.04493 126.089 11.0063 126.044 12.9391V12.9391ZM177.934 0.859875V16.87H188.516V100.115H209.731V16.87H220.233V0.859875L177.934 0.859875ZM248.523 0.859875L225.933 0.859875V100.115H247.116V60.5523C248.507 60.6034 249.891 60.4337 251.299 60.8693C251.597 60.9757 251.873 61.1352 252.113 61.3397C253.092 62.1783 253.014 63.252 253.168 64.2665C253.352 66.3035 253.209 68.3488 253.256 70.3879V100.113H274.442L274.422 69.0851C274.385 66.0274 274.179 62.9964 273.512 59.9367C273.319 59.2305 273.07 58.5405 272.769 57.873C272.3 56.7842 271.668 55.7727 270.896 54.8727C270.121 53.9748 269.215 53.1985 268.209 52.5697C267.199 51.9449 266.102 51.476 264.953 51.179C265.505 51.0419 266.051 50.8701 266.595 50.6574C268.24 50.0358 269.708 49.021 270.871 47.7016C272.034 46.3822 272.856 44.7983 273.266 43.088C273.493 42.276 273.682 41.46 273.833 40.6398C274.332 37.2959 274.512 33.9437 274.445 30.5834V20.1915C274.536 17.153 274.276 14.114 273.669 11.1352C273.519 10.3966 273.31 9.67103 273.046 8.96516C272.794 8.31349 272.487 7.68465 272.127 7.08559C271.769 6.48485 271.36 5.91619 270.904 5.38599C268.754 3.08171 265.825 1.65822 262.684 1.39164C257.974 0.845562 253.244 1.001 248.523 0.859875V0.859875ZM247.116 16.9989C248.114 17.0071 249.11 17.0193 250.112 17.0234C250.591 17.0664 251.084 17.187 251.558 17.4018C252.937 18.3099 253.004 19.4614 253.129 20.574C253.221 21.8236 253.217 23.0814 253.256 24.3352C253.239 28.6833 253.311 33.0295 253.209 37.3777C253.195 38.1555 253.13 38.9315 253.017 39.7011C252.945 40.4344 252.588 41.1103 252.023 41.5827C251.384 42.1615 250.529 42.1901 249.763 42.2822C248.883 42.364 248.002 42.3742 247.118 42.3128V16.9989H247.116V16.9989ZM298.746 100.115L300.229 80.4934H308.355L309.993 100.115H330.042L317.474 0.859875L291.565 0.859875L278.807 100.115H298.746V100.115ZM307.183 64.1151H301.403L304.332 25.5439L307.183 64.1151ZM380.492 6.98538C379.766 5.81959 378.828 4.78265 377.735 3.95228C376.643 3.12191 375.398 2.49607 374.475 2.12589C373.788 1.84658 373.071 1.64622 372.338 1.52868C371.731 1.42232 371.123 1.32619 370.516 1.25665C369.908 1.18711 369.297 1.14008 367.847 1.07872C366.392 1.01532 364.104 0.87214 361.811 0.870095L334.344 0.859875V100.115L368.014 100.062C368.853 100.06 369.673 99.823 370.495 99.6778C372.234 99.3669 373.759 99.0356 375.394 98.2952C376.253 97.9107 377.175 97.3973 378.014 96.7633C378.852 96.1293 379.607 95.3746 380.319 94.2109C381.034 93.0492 381.705 91.4764 382.196 89.5559C382.683 87.6374 383.063 85.3652 383.059 83.0929L382.912 15.3463C382.908 13.8001 382.521 12.2723 382.124 10.8591C381.728 9.4458 381.218 8.15117 380.492 6.98538V6.98538ZM356.864 17.0848C357.32 17.0848 357.77 17.05 358.205 17.1032C358.645 17.1564 359.064 17.2586 359.412 17.367C359.756 17.4754 360.028 17.594 360.271 17.7556C360.514 17.9192 360.727 18.1258 360.899 18.3631C361.629 19.4654 361.541 21.0301 361.607 22.4188V79.5812C361.607 80.0026 361.603 80.4259 361.547 80.835C361.489 81.2288 361.39 81.6155 361.251 81.9885C361.134 82.3134 360.963 82.6158 360.743 82.8823C360.529 83.1318 360.261 83.3404 359.968 83.5061C359.676 83.6717 359.369 83.8722 359.03 83.8722H355.563V17.0848H356.864V17.0848Z" fill="white"/>
<path d="M439.093 36.1582V48.1582H446.093V29.1582H416.093C416.093 29.1582 408.093 29.1582 408.093 37.1582C408.093 45.1582 408.093 92.1582 408.093 92.1582C408.093 92.1582 407.093 100.158 416.093 100.158C425.093 100.158 446.093 100.158 446.093 100.158V81.1582H439.093V93.1582H417.093C417.093 93.1582 415.093 93.1582 415.093 91.1582C415.093 89.1582 415.093 89.1582 415.093 89.1582V38.1582C415.093 38.1582 415.093 36.1582 417.093 36.1582C419.093 36.1582 439.093 36.1582 439.093 36.1582Z" fill="white"/>
<path d="M453.06 29.1582V36.1582H458.06V93.1582H453.06V100.158H470.06V93.1582H465.06V67.1582H488.06C496.06 67.1582 496.06 59.1582 496.06 59.1582V37.1582C496.06 29.1582 488.06 29.1582 488.06 29.1582H453.06ZM465.06 36.1582H487.06C487.06 36.1582 489.06 36.1582 489.06 38.1582V58.1582C489.06 58.1582 489.06 60.1582 487.06 60.1582H465.06V36.1582Z" fill="white"/>
<path d="M534.093 36.1582V48.1582H541.093V29.1582H511.093C511.093 29.1582 503.093 29.1582 503.093 37.1582C503.093 45.1582 503.093 92.1582 503.093 92.1582C503.093 92.1582 502.093 100.158 511.093 100.158C520.093 100.158 541.093 100.158 541.093 100.158V81.1582H534.093V93.1582H512.093C512.093 93.1582 510.093 93.1582 510.093 91.1582C510.093 89.1582 510.093 89.1582 510.093 89.1582V38.1582C510.093 38.1582 510.093 36.1582 512.093 36.1582C514.093 36.1582 534.093 36.1582 534.093 36.1582Z" fill="white"/>
<rect x="566.093" y="33.6582" width="190.94" height="62" rx="4" fill="white"/>
<path d="M580.562 54.6577C580.562 49.1349 585.04 44.6577 590.563 44.6577H630.563C631.115 44.6577 631.562 45.1054 631.562 45.6577V61.6582C631.562 62.2105 631.115 62.6582 630.562 62.6582H581.562C581.01 62.6582 580.562 62.2105 580.562 61.6582V54.6577Z" fill="#D84B63"/>
<path d="M636.062 45.6577C636.062 45.1054 636.51 44.6577 637.063 44.6577H686.063C686.615 44.6577 687.062 45.1054 687.062 45.6577V61.6582C687.062 62.2105 686.615 62.6582 686.062 62.6582H637.062C636.51 62.6582 636.062 62.2105 636.062 61.6582V45.6577Z" fill="#75D08A"/>
<path d="M742.562 54.6577C742.562 49.1349 738.085 44.6577 732.562 44.6577L692.562 44.6577C692.01 44.6577 691.562 45.1054 691.562 45.6577L691.562 61.6582C691.562 62.2104 692.01 62.6582 692.562 62.6582L741.562 62.6582C742.115 62.6582 742.562 62.2105 742.562 61.6582L742.562 54.6577Z" fill="#4F9EE9"/>
<path d="M742.563 74.7585C742.563 80.2814 738.085 84.7585 732.562 84.7585L692.562 84.7585C692.01 84.7585 691.563 84.3108 691.563 83.7585L691.563 67.7581C691.563 67.2058 692.01 66.7581 692.563 66.7581L741.563 66.7581C742.115 66.7581 742.563 67.2058 742.563 67.7581L742.563 74.7585Z" fill="#4F9EE9"/>
<path d="M687.063 83.7585C687.063 84.3108 686.615 84.7585 686.062 84.7585L637.062 84.7585C636.51 84.7585 636.063 84.3108 636.063 83.7585L636.063 67.7581C636.063 67.2058 636.51 66.7581 637.063 66.7581L686.063 66.7581C686.615 66.7581 687.063 67.2058 687.063 67.7581L687.063 83.7585Z" fill="#75D08A"/>
<path d="M580.563 74.7585C580.563 80.2814 585.04 84.7585 590.563 84.7585L630.563 84.7586C631.115 84.7586 631.563 84.3108 631.563 83.7586L631.563 67.7581C631.563 67.2058 631.115 66.7581 630.563 66.7581L581.563 66.7581C581.01 66.7581 580.563 67.2058 580.563 67.7581L580.563 74.7585Z" fill="#D84B63"/>
</svg>
