<svg width="758" height="101" viewBox="0 0 758 101" fill="none" xmlns="http://www.w3.org/2000/svg">
<path fill-rule="evenodd" clip-rule="evenodd" d="M20.362 100.408L21.8469 80.7861H29.9726L31.6068 100.408H51.6583L39.0903 1.1526L13.1812 1.1526L0.420898 100.408H20.362ZM28.7986 64.4078H23.0208L25.9496 25.8366L28.7986 64.4078V64.4078ZM84.3781 1.1526L56.4442 1.1526L56.4442 100.408H75.5529V43.8818L83.4577 100.408H95.8642L103.456 44.1906V100.408L122.565 100.408V1.1526L94.59 1.1526L89.393 44.9944L84.3781 1.1526V1.1526ZM126.044 13.2318C126.031 20.0731 125.954 26.9104 126.007 33.7517C126.046 34.8705 126.111 35.9892 126.177 36.793C126.32 38.4865 126.455 39.0039 126.737 40.1022C127.025 41.1882 127.516 42.5463 128.287 43.7489C128.649 44.3236 129.054 44.8696 129.66 45.5303C130.265 46.1909 131.067 46.966 131.916 47.688C133.66 49.1953 135.56 50.3611 137.469 51.3674C141.639 53.6724 145.778 55.9487 149.977 58.2844C150.538 58.6423 151.137 58.9389 151.728 59.5177C153.17 60.9044 153.168 62.5139 153.145 64.054L153.227 66.1974L153.258 79.6367C153.27 80.6184 153.178 81.5879 152.704 82.6289C152.37 83.2562 151.814 83.7358 151.145 83.9729C150.475 84.21 149.741 84.1872 149.088 83.9092C148.762 83.7729 148.465 83.5781 148.21 83.3345C147.149 82.3098 147.271 80.8577 147.118 79.6142L147.11 59.3888H125.984L126.007 82.0358C126.021 84.8153 126.042 87.4495 126.643 90.1738C126.966 91.5768 127.484 93.0372 128.267 94.342C129.05 95.651 130.097 96.8045 131.327 97.7064C132.554 98.6063 133.961 99.2547 135.074 99.6371C136.186 100.022 137.004 100.144 137.824 100.243C138.642 100.341 139.459 100.449 140.279 100.449H161.741C162.713 100.449 163.686 100.492 164.887 100.161C166.245 99.7835 167.542 99.2132 168.738 98.4673C169.967 97.6839 171.004 96.7084 171.72 95.6591C172.436 94.612 172.829 93.4932 173.166 92.4829C173.506 91.4766 173.788 90.5747 173.994 89.3741C174.203 88.1736 174.334 86.6744 174.406 85.1711C174.479 83.6699 174.442 82.1667 174.442 80.6655V64.7555C174.442 64.4569 174.442 64.1563 174.436 63.4854C174.428 62.8126 174.416 61.7674 174.369 60.573C174.324 59.3786 174.242 58.0349 174.168 57.1677C174.105 56.2166 173.936 55.2754 173.665 54.3616C173.528 53.8738 173.349 53.3988 173.129 52.9422C172.732 52.0872 172.269 51.2639 171.745 50.4797C171.155 49.608 170.468 48.8059 169.697 48.0889C168.928 47.373 168.078 46.7472 167.133 46.0988C165.11 44.7236 163.028 43.438 160.893 42.2456L151.924 37.3513C151.383 37.0596 150.853 36.7457 150.337 36.4105C149.891 36.1144 149.454 35.8048 149.026 35.482C148.488 35.0709 148.486 35.0177 148.259 34.7784C148.171 34.6762 148.085 34.5739 147.936 34.3305C147.599 33.7926 147.192 32.8457 147.116 32.046C147.063 31.6165 147.108 31.1829 147.108 30.7493C147.112 27.6262 147.091 24.4009 147.122 21.378C147.104 20.6744 147.122 19.8707 147.382 19.1201C147.502 18.7499 147.66 18.394 147.854 18.0913C148.873 16.7312 150.092 16.5328 151.433 17.0973C152.058 17.4469 152.549 17.9935 152.83 18.6517C152.969 18.9789 153.053 19.3287 153.108 19.8134C153.221 20.8115 153.233 22.1818 153.225 23.3885V35.1916H174.442C174.42 29.0967 174.516 23.006 174.377 16.9071C174.316 15.4959 174.213 14.0847 174.127 13.1541C174.081 12.5423 173.998 11.9339 173.88 11.3318C173.789 10.8872 173.681 10.4465 173.555 10.0105C173.398 9.45783 173.199 8.91827 172.958 8.39685C172.539 7.43608 172.022 6.5211 171.415 5.66645C170.73 4.72973 169.881 3.90549 168.924 3.24078C167.967 2.57608 166.906 2.06683 165.993 1.73959C164.198 1.12397 162.832 1.01965 161.275 0.821265C160.512 0.727007 159.743 0.676481 158.974 0.669922L140.61 0.817176C138.449 0.869011 136.302 1.18636 134.219 1.76207C133.552 1.9666 132.922 2.22431 132.325 2.53928C131.122 3.1958 130.122 3.91367 129.085 5.18786C128.5 5.92119 127.988 6.70958 127.555 7.54194C126.637 9.33766 126.089 11.299 126.044 13.2318V13.2318ZM177.934 1.1526V17.1628H188.516V100.408H209.731V17.1628H220.233V1.1526L177.934 1.1526ZM248.523 1.1526L225.933 1.1526V100.408H247.116V60.845C248.507 60.8962 249.891 60.7264 251.299 61.1621C251.597 61.2684 251.873 61.4279 252.113 61.6325C253.092 62.471 253.014 63.5448 253.168 64.5592C253.352 66.5963 253.209 68.6415 253.256 70.6806V100.406H274.442L274.422 69.3778C274.385 66.3202 274.179 63.2891 273.512 60.2294C273.319 59.5232 273.07 58.8332 272.769 58.1658C272.3 57.077 271.668 56.0654 270.896 55.1654C270.121 54.2676 269.215 53.4913 268.209 52.8624C267.199 52.2376 266.102 51.7688 264.953 51.4717C265.505 51.3347 266.051 51.1629 266.595 50.9502C268.24 50.3285 269.708 49.3137 270.871 47.9943C272.034 46.6749 272.856 45.091 273.266 43.3807C273.493 42.5688 273.682 41.7527 273.833 40.9326C274.332 37.5886 274.512 34.2364 274.445 30.8761V20.4842C274.536 17.4457 274.276 14.4068 273.669 11.4279C273.519 10.6893 273.31 9.96376 273.046 9.25789C272.794 8.60621 272.487 7.97738 272.127 7.37831C271.769 6.77757 271.36 6.20892 270.904 5.67871C268.754 3.37444 265.825 1.95094 262.684 1.68437C257.974 1.13829 253.244 1.29372 248.523 1.1526V1.1526ZM247.116 17.2916C248.114 17.2998 249.11 17.3121 250.112 17.3161C250.591 17.3591 251.084 17.4798 251.558 17.6945C252.937 18.6026 253.004 19.7541 253.129 20.8667C253.221 22.1163 253.217 23.3741 253.256 24.6279C253.239 28.9761 253.311 33.3222 253.209 37.6704C253.195 38.4482 253.13 39.2242 253.017 39.9938C252.945 40.7272 252.588 41.403 252.023 41.8754C251.384 42.4542 250.529 42.4828 249.763 42.5749C248.883 42.6567 248.002 42.6669 247.118 42.6056V17.2916H247.116V17.2916ZM298.746 100.408L300.229 80.7861H308.355L309.993 100.408H330.042L317.474 1.1526L291.565 1.1526L278.807 100.408H298.746V100.408ZM307.183 64.4078H301.403L304.332 25.8366L307.183 64.4078ZM380.492 7.2781C379.766 6.11232 378.828 5.07538 377.735 4.24501C376.643 3.41464 375.398 2.7888 374.475 2.41861C373.788 2.1393 373.071 1.93895 372.338 1.8214C371.731 1.71505 371.123 1.61891 370.516 1.54938C369.908 1.47984 369.297 1.4328 367.847 1.37144C366.392 1.30804 364.104 1.16486 361.811 1.16282L334.344 1.1526V100.408L368.014 100.355C368.853 100.353 369.673 100.116 370.495 99.9705C372.234 99.6596 373.759 99.3283 375.394 98.5879C376.253 98.2034 377.175 97.6901 378.014 97.056C378.852 96.422 379.607 95.6673 380.319 94.5036C381.034 93.3419 381.705 91.7691 382.196 89.8486C382.683 87.9302 383.063 85.6579 383.059 83.3856L382.912 15.639C382.908 14.0928 382.521 12.565 382.124 11.1518C381.728 9.73853 381.218 8.44389 380.492 7.2781V7.2781ZM356.864 17.3775C357.32 17.3775 357.77 17.3427 358.205 17.3959C358.645 17.4491 359.064 17.5513 359.412 17.6597C359.756 17.7681 360.028 17.8868 360.271 18.0483C360.514 18.212 360.727 18.4185 360.899 18.6558C361.629 19.7582 361.541 21.3228 361.607 22.7115V79.874C361.607 80.2953 361.603 80.7186 361.547 81.1277C361.489 81.5216 361.39 81.9082 361.251 82.2812C361.134 82.6061 360.963 82.9085 360.743 83.175C360.529 83.4245 360.261 83.6331 359.968 83.7988C359.676 83.9644 359.369 84.1649 359.03 84.1649H355.563V17.3775H356.864V17.3775Z" fill="white"/>
<path d="M439.093 36.4509V48.4509H446.093V29.4509H416.093C416.093 29.4509 408.093 29.4509 408.093 37.4509C408.093 45.4509 408.093 92.4509 408.093 92.4509C408.093 92.4509 407.093 100.451 416.093 100.451C425.093 100.451 446.093 100.451 446.093 100.451V81.4509H439.093V93.4509H417.093C417.093 93.4509 415.093 93.4509 415.093 91.4509C415.093 89.4509 415.093 89.4509 415.093 89.4509V38.4509C415.093 38.4509 415.093 36.4509 417.093 36.4509C419.093 36.4509 439.093 36.4509 439.093 36.4509Z" fill="white"/>
<path d="M453.06 29.4509V36.4509H458.06V93.4509H453.06V100.451H470.06V93.4509H465.06V67.4509H488.06C496.06 67.4509 496.06 59.4509 496.06 59.4509V37.4509C496.06 29.4509 488.06 29.4509 488.06 29.4509H453.06ZM465.06 36.4509H487.06C487.06 36.4509 489.06 36.4509 489.06 38.4509V58.4509C489.06 58.4509 489.06 60.4509 487.06 60.4509H465.06V36.4509Z" fill="white"/>
<path d="M534.093 36.4509V48.4509H541.093V29.4509H511.093C511.093 29.4509 503.093 29.4509 503.093 37.4509C503.093 45.4509 503.093 92.4509 503.093 92.4509C503.093 92.4509 502.093 100.451 511.093 100.451C520.093 100.451 541.093 100.451 541.093 100.451V81.4509H534.093V93.4509H512.093C512.093 93.4509 510.093 93.4509 510.093 91.4509C510.093 89.4509 510.093 89.4509 510.093 89.4509V38.4509C510.093 38.4509 510.093 36.4509 512.093 36.4509C514.093 36.4509 534.093 36.4509 534.093 36.4509Z" fill="white"/>
<path fill-rule="evenodd" clip-rule="evenodd" d="M566.093 37.9509C566.093 35.7418 567.884 33.9509 570.093 33.9509H753.033C755.242 33.9509 757.033 35.7418 757.033 37.9509V91.9509C757.033 94.1601 755.242 95.9509 753.033 95.9509H570.093C567.884 95.9509 566.093 94.1601 566.093 91.9509V37.9509ZM580.562 54.9504C580.562 49.4276 585.04 44.9504 590.562 44.9504H630.562C631.115 44.9504 631.562 45.3982 631.562 45.9504V61.9509C631.562 62.5032 631.115 62.9509 630.562 62.9509H581.562C581.01 62.9509 580.562 62.5032 580.562 61.9509V54.9504ZM637.062 44.9504C636.51 44.9504 636.062 45.3982 636.062 45.9504V61.9509C636.062 62.5032 636.51 62.9509 637.062 62.9509H686.062C686.615 62.9509 687.062 62.5032 687.062 61.9509V45.9504C687.062 45.3982 686.615 44.9504 686.062 44.9504H637.062ZM742.562 54.9504C742.562 49.4276 738.085 44.9504 732.562 44.9504L692.562 44.9504C692.01 44.9504 691.562 45.3982 691.562 45.9504V61.9509C691.562 62.5032 692.01 62.9509 692.562 62.9509L741.562 62.9509C742.115 62.9509 742.562 62.5032 742.562 61.9509V54.9504ZM732.562 85.0513C738.085 85.0513 742.562 80.5741 742.562 75.0513V68.0508C742.562 67.4985 742.115 67.0508 741.562 67.0508L692.562 67.0508C692.01 67.0508 691.562 67.4985 691.562 68.0508V84.0513C691.562 84.6035 692.01 85.0513 692.562 85.0513L732.562 85.0513ZM687.062 84.0513C687.062 84.6036 686.615 85.0513 686.062 85.0513L637.062 85.0513C636.51 85.0513 636.062 84.6035 636.062 84.0513V68.0508C636.062 67.4985 636.51 67.0508 637.062 67.0508L686.062 67.0508C686.615 67.0508 687.062 67.4985 687.062 68.0508V84.0513ZM590.562 85.0513C585.04 85.0513 580.563 80.5741 580.563 75.0513L580.563 68.0508C580.563 67.4985 581.01 67.0508 581.563 67.0508L630.562 67.0508C631.115 67.0508 631.562 67.4985 631.562 68.0508V84.0513C631.562 84.6036 631.115 85.0513 630.562 85.0513L590.562 85.0513Z" fill="white"/>
</svg>
