<svg width="120" height="81" viewBox="0 0 120 81" fill="none" xmlns="http://www.w3.org/2000/svg">
<path fill-rule="evenodd" clip-rule="evenodd" d="M60 34.5C63.866 34.5 67 31.366 67 27.5C67 23.634 63.866 20.5 60 20.5C56.134 20.5 53 23.634 53 27.5C53 31.366 56.134 34.5 60 34.5ZM68 27.5C68 31.9183 64.4183 35.5 60 35.5C55.5817 35.5 52 31.9183 52 27.5C52 23.0817 55.5817 19.5 60 19.5C64.4183 19.5 68 23.0817 68 27.5Z" fill="white"/>
<path fill-rule="evenodd" clip-rule="evenodd" d="M60 31.5C62.2091 31.5 64 29.7091 64 27.5C64 25.2909 62.2091 23.5 60 23.5C57.7909 23.5 56 25.2909 56 27.5C56 29.7091 57.7909 31.5 60 31.5ZM66 27.5C66 30.8137 63.3137 33.5 60 33.5C56.6863 33.5 54 30.8137 54 27.5C54 24.1863 56.6863 21.5 60 21.5C63.3137 21.5 66 24.1863 66 27.5Z" fill="white"/>
<path fill-rule="evenodd" clip-rule="evenodd" d="M71 2.5H49C46.2386 2.5 44 4.73858 44 7.5V38.5C44 41.2614 46.2386 43.5 49 43.5H71C73.7614 43.5 76 41.2614 76 38.5V7.5C76 4.73858 73.7614 2.5 71 2.5ZM49 0.5C45.134 0.5 42 3.63401 42 7.5V38.5C42 42.366 45.134 45.5 49 45.5H71C74.866 45.5 78 42.366 78 38.5V7.5C78 3.63401 74.866 0.5 71 0.5H49Z" fill="white"/>
<path fill-rule="evenodd" clip-rule="evenodd" d="M70.5 13.5C73.5376 13.5 76 11.0376 76 8C76 4.96243 73.5376 2.5 70.5 2.5C67.4624 2.5 65 4.96243 65 8C65 11.0376 67.4624 13.5 70.5 13.5ZM70.5 15.5C74.6421 15.5 78 12.1421 78 8C78 3.85786 74.6421 0.5 70.5 0.5C66.3579 0.5 63 3.85786 63 8C63 12.1421 66.3579 15.5 70.5 15.5Z" fill="white"/>
<path fill-rule="evenodd" clip-rule="evenodd" d="M49.5 13.5C52.5376 13.5 55 11.0376 55 8C55 4.96243 52.5376 2.5 49.5 2.5C46.4624 2.5 44 4.96243 44 8C44 11.0376 46.4624 13.5 49.5 13.5ZM49.5 15.5C53.6421 15.5 57 12.1421 57 8C57 3.85786 53.6421 0.5 49.5 0.5C45.3579 0.5 42 3.85786 42 8C42 12.1421 45.3579 15.5 49.5 15.5Z" fill="white"/>
<path fill-rule="evenodd" clip-rule="evenodd" d="M68 17.5H52C50.8954 17.5 50 18.3954 50 19.5V35.5C50 36.6046 50.8954 37.5 52 37.5H68C69.1046 37.5 70 36.6046 70 35.5V19.5C70 18.3954 69.1046 17.5 68 17.5ZM52 16.5C50.3431 16.5 49 17.8431 49 19.5V35.5C49 37.1569 50.3431 38.5 52 38.5H68C69.6569 38.5 71 37.1569 71 35.5V19.5C71 17.8431 69.6569 16.5 68 16.5H52Z" fill="white"/>
<path fill-rule="evenodd" clip-rule="evenodd" d="M49.5 11.5C51.433 11.5 53 9.933 53 8C53 6.067 51.433 4.5 49.5 4.5C47.567 4.5 46 6.067 46 8C46 9.933 47.567 11.5 49.5 11.5ZM54 8C54 10.4853 51.9853 12.5 49.5 12.5C47.0147 12.5 45 10.4853 45 8C45 5.51472 47.0147 3.5 49.5 3.5C51.9853 3.5 54 5.51472 54 8Z" fill="white"/>
<path fill-rule="evenodd" clip-rule="evenodd" d="M70.5 11.5C72.433 11.5 74 9.933 74 8C74 6.067 72.433 4.5 70.5 4.5C68.567 4.5 67 6.067 67 8C67 9.933 68.567 11.5 70.5 11.5ZM75 8C75 10.4853 72.9853 12.5 70.5 12.5C68.0147 12.5 66 10.4853 66 8C66 5.51472 68.0147 3.5 70.5 3.5C72.9853 3.5 75 5.51472 75 8Z" fill="white"/>
</svg>
