<svg width="454" height="231" viewBox="0 0 454 231" fill="none" xmlns="http://www.w3.org/2000/svg">
<path d="M227.697 25.4168L231.78 29.4996L234.14 27.1396L230.588 23.5879H238.483V25.523C238.483 25.877 238.199 26.1602 237.845 26.1602H235.816V29.4996H239.592C240.819 29.4996 241.822 28.4966 241.822 27.2694V26.1602V23.5997H246.731V21.0155H241.834V19.8709H244.878V10.6551H243.686H237.185V9.51052H246.743V6.92633H237.185V5.42773H233.845V6.92633H224.275V9.51052H233.845V10.6551H227.969H226.152V19.8709H229.491H238.494V21.0155H224.275V23.5997H229.515L227.697 25.4168ZM241.539 17.8059H237.185V15.8235H241.539V17.8059ZM241.539 12.7201V13.7585H237.185V12.7201H241.539ZM233.845 13.7585H229.491V12.7201H233.845V13.7585ZM229.491 15.8235H233.845V17.8059H229.491V15.8235Z" fill="white"/>
<path d="M254.659 22.3149V21.8783H259.001V29.5129H262.341V21.8783H266.695V23.6011V25.5363C266.695 25.8903 266.412 26.1735 266.058 26.1735H264.028V29.5129H267.804C269.031 29.5129 270.034 28.5099 270.034 27.2827V26.1735V18.2558V6.91602H269.102H252.417H251.308V22.3267C251.32 24.4153 250.057 26.1617 248.582 27.6485C249.373 28.4273 250.612 29.4775 251.402 30.2563C253.503 28.1441 254.671 25.2885 254.659 22.3149ZM254.659 18.539V16.0728H259.001V18.539H254.659ZM266.707 12.7334H262.353V10.2554H266.707V12.7334ZM259.001 12.7334H254.659V10.2554H259.001V12.7334ZM262.341 18.539V16.0728H266.695V18.539H262.341Z" fill="white"/>
<path d="M297.094 7.03125H295.312V12.4002H297.094V7.03125Z" fill="white"/>
<path d="M301.128 7.03125H299.346V12.4002H301.128V7.03125Z" fill="white"/>
<path d="M373.167 18.9275C376.589 19.1635 379.858 20.5087 382.985 22.1253C383.575 20.9807 384.413 19.0455 385.003 17.9009C381.321 16.0011 377.262 15.0217 373.167 14.9745V7.61133H369.297V29.512H373.167V18.9275Z" fill="white"/>
<path d="M405.099 7.23438H390.703V11.1048H405.099V7.23438Z" fill="white"/>
<path d="M418.609 29.5002H422.479V15.9775C425.205 13.8299 427.4 10.9743 428.745 7.61133H424.497C421.7 13.0157 416.095 16.4731 409.912 16.4495V20.3199C412.98 20.3317 415.942 19.6355 418.609 18.3729V29.5002Z" fill="white"/>
<path d="M292.941 7.44531H281.967V11.3157H292.941V7.44531Z" fill="white"/>
<path d="M301.422 22.5723C303.369 22.4661 305.505 21.8761 307.535 20.8849V29.5106H311.405V18.3833C313.6 16.5543 315.335 14.1943 316.066 11.5039C314.78 11.5039 313.482 11.5039 312.196 11.5039C310.52 15.5985 304.42 18.7255 300.773 18.7255L301.422 22.5723Z" fill="white"/>
<path d="M318.699 25.6884C318.794 26.0306 319.62 29.2638 319.679 29.4998C323.443 29.0868 327.113 26.3964 329.756 22.8918C332.033 24.6618 333.921 27.5882 335.845 30.4084L338.665 26.9746C336.612 24.2252 334.275 21.3224 331.785 19.635C332.989 17.2514 333.709 14.7262 333.709 12.4016V8.53125H319.596V12.4016H329.838C329.827 15.3988 326.641 23.2222 318.699 25.6884Z" fill="white"/>
<path d="M380.731 7.03125H378.949V12.4002H380.731V7.03125Z" fill="white"/>
<path d="M384.768 7.03125H382.986V12.4002H384.768V7.03125Z" fill="white"/>
<path d="M453.29 7.03125H451.508V12.3884H453.29V7.03125Z" fill="white"/>
<path d="M394.585 25.6415H390.112L390.714 29.5119H394.585C402.797 29.5119 406.856 23.5765 406.856 17.4169V13.5938H387.977V17.4641H402.986C402.962 21.6649 400.19 25.6415 394.585 25.6415Z" fill="white"/>
<path d="M347.644 12.3887H354.925V13.5805H354.937C354.937 20.4716 348.553 25.05 341.78 25.6754C341.968 27.0324 342.193 28.3776 342.381 29.4986C351.916 28.0472 358.807 22.454 358.807 13.5805H358.795V11.4211V8.51828H349.096C349.19 8.22328 349.273 7.94009 349.355 7.65689L345.544 6.71289C344.553 10.2765 342.936 14.6425 340.316 17.2856L341.909 20.9554C344.281 18.7488 346.216 15.6219 347.644 12.3887Z" fill="white"/>
<path d="M444.842 13.9578C444.842 21.321 440.511 25.7106 433.16 25.7106C433.16 25.7106 433.16 25.7106 432.558 25.7106C432.558 25.7106 433.089 29.1326 433.148 29.5102C443.862 29.5102 448.712 23.4568 448.712 13.9696V13.9578V12.3884V7.03125H446.93V11.9754H445.526V8.52984H431.803V12.4002H444.842V13.9578Z" fill="white"/>
<path d="M7.45163 17.0743H7.51063L12.2306 30.656H22.8152V7.12695H15.6526V20.6261H15.5936L10.8736 7.12695H0.289062V30.656H7.45163V17.0743Z" fill="white"/>
<path d="M47.3813 17.0743H47.4403L52.1603 30.656H62.7448V7.12695H55.5941V20.6261H55.5351L50.8033 7.12695H40.2188V30.656H47.3813V17.0743Z" fill="white"/>
<path d="M116.153 17.0743H116.212L120.932 30.656H131.516V7.12695H124.366V20.6261H124.295L119.575 7.12695H108.99V30.656H116.153V17.0743Z" fill="white"/>
<path d="M35.9592 7.12695H27.1328V30.6443H35.9592V7.12695Z" fill="white"/>
<path d="M70.9234 30.656H79.7498V13.5225H85.3783V7.12695H65.3066V13.5225H70.9234V30.656Z" fill="white"/>
<path d="M157.536 19.1393C157.536 12.1773 154.692 7.12695 145.771 7.12695H135.316V30.6443H146.302C153.158 30.6443 157.536 26.2429 157.536 19.1393ZM143.954 25.3225V12.4959H144.815C146.243 12.4959 147.187 12.9325 147.742 13.8765C148.32 14.8559 148.391 16.6377 148.391 18.9151C148.391 21.1807 148.332 22.9625 147.742 23.9419C147.187 24.8859 146.231 25.3225 144.815 25.3225H143.954Z" fill="white"/>
<path d="M171.376 31.2818C179.07 31.2818 182.893 26.2432 182.893 18.9036C182.893 11.564 179.058 6.51367 171.376 6.51367C163.683 6.51367 159.859 11.564 159.859 18.9036C159.859 26.2314 163.694 31.2818 171.376 31.2818ZM171.376 12.4726C172.792 12.4726 173.748 13.275 173.748 18.9036C173.748 24.662 172.733 25.3228 171.376 25.3228C170.019 25.3228 168.993 24.6502 169.004 18.9036C169.004 13.2632 169.96 12.4726 171.376 12.4726Z" fill="white"/>
<path d="M193.798 19.4111C197.763 19.4111 200.736 16.4139 200.736 12.5553C200.736 8.53153 198.034 6.38394 195.084 6.38394C193.55 6.38394 192.394 6.76154 191.473 7.57573H191.379C191.886 5.78214 193.385 4.20095 197.114 4.02395C197.751 3.98855 198.211 3.97675 198.671 4.01215L198.695 0.0591656C198.317 0.0237657 197.822 -0.0234341 197.019 0.0237657C193.975 0.0945654 191.485 0.991362 189.55 2.78495C187.52 4.68475 186.281 7.63473 186.281 11.1275C186.281 15.4109 188.559 19.4111 193.798 19.4111ZM191.379 11.4225C191.674 10.6555 192.453 10.0419 193.432 10.0419C195.049 10.0419 195.65 11.4933 195.662 12.8267C195.662 14.3961 194.931 15.6351 193.715 15.6351C192.051 15.6469 191.332 14.0657 191.225 12.5553C191.225 11.9889 191.261 11.6585 191.379 11.4225Z" fill="#F01B25"/>
<path d="M209.962 19.1042H214.682V14.8798H216.676V11.0094H214.682V0.271484H208.416L202.115 11.4932V14.8798H209.962V19.1042ZM206.658 11.0094L206.682 10.9504L208.228 7.82345C208.888 6.51366 209.396 5.31006 209.986 4.03567H210.092C210.033 5.35726 209.962 6.59626 209.962 7.78805V11.0212L206.658 11.0094Z" fill="#F01B25"/>
<path d="M105.722 24.4847H96.6711V21.8533H104.754V15.8117H96.6711V13.3455H105.45V7.12695H87.9863V30.656H105.722V24.4847Z" fill="white"/>
<path d="M159.671 200.211H157.252V207.503H159.671V200.211Z" fill="#F01B25"/>
<path d="M165.159 200.211H162.74V207.503H165.159V200.211Z" fill="#F01B25"/>
<path d="M135.246 215.171H147.07V218.546C147.07 221.543 147.813 223.289 138.102 226.369L139.459 230.711C146.586 228.882 152.321 226.782 152.321 218.546V215.171H162.174V209.92H135.246V215.171Z" fill="#F01B25"/>
<path d="M210.421 211.904H191.506V217.155H210.421V211.904Z" fill="#F01B25"/>
<path d="M154.03 200.752H139.127V206.003H154.03V200.752Z" fill="#F01B25"/>
<path d="M63.6661 207.479H82.0032V213.851H64.6101V219.102H82.0032V225.463H63.6543V230.714H87.2542V225.463V207.479H87.266V202.229H63.6661V207.479Z" fill="#F01B25"/>
<path d="M23.9007 202.229H0.300781V207.479H0.312586V225.463V230.714H23.9125V225.474V205.733H23.9007V202.229ZM5.55176 207.479H18.6497V225.463H5.55176V207.479Z" fill="#F01B25"/>
<path d="M166.09 216.067L166.975 221.295C169.618 221.153 172.521 220.351 175.27 219.006V230.711H180.521V215.619C183.495 213.129 185.855 209.932 186.858 206.262C185.111 206.262 183.353 206.262 181.607 206.262C179.318 211.831 171.034 216.067 166.09 216.067Z" fill="#F01B25"/>
<path d="M94.8184 225.569C94.8184 225.569 95.5381 230.218 95.6207 230.725C113.828 229.829 117.84 224.637 119.374 210.194L114.418 208.754C114.088 218.276 111.279 222.808 105.662 224.613C102.972 225.474 98.8303 225.71 94.8184 225.569Z" fill="#F01B25"/>
<path d="M241.8 200.211H239.381V207.503H241.8V200.211Z" fill="#F01B25"/>
<path d="M247.273 200.211H244.854V207.503H247.273V200.211Z" fill="#F01B25"/>
<path d="M217.361 215.183H229.185V218.557C229.185 221.555 229.928 223.301 220.217 226.381L221.574 230.723C228.701 228.894 234.436 226.794 234.436 218.557V215.183H244.289V209.932H217.361V215.183Z" fill="#F01B25"/>
<path d="M292.55 211.914H273.635V217.165H292.55V211.914Z" fill="#F01B25"/>
<path d="M236.147 200.752H221.244V206.003H236.147V200.752Z" fill="#F01B25"/>
<path d="M248.219 216.067C248.219 216.067 249.08 221.177 249.104 221.295C251.747 221.153 254.638 220.351 257.387 219.017V230.711H262.638V215.631C265.624 213.129 267.984 209.932 268.987 206.262C267.24 206.262 265.482 206.262 263.736 206.262C261.446 211.831 253.163 216.067 248.219 216.067Z" fill="#F01B25"/>
<path d="M42.8736 201.034L37.6934 199.748C36.3482 204.598 34.1416 210.521 30.5898 214.109C30.696 214.345 32.761 219.1 32.761 219.1C35.9942 216.115 38.6256 211.878 40.549 207.477H50.4374V209.105C50.4374 218.451 41.7644 224.67 32.5722 225.519C32.5722 225.519 33.3156 230.334 33.3746 230.723C46.331 228.752 55.6883 221.153 55.6883 209.105V207.477V202.226H42.5196C42.6376 201.825 42.7556 201.424 42.8736 201.034Z" fill="#F01B25"/>
<path d="M108.035 204.799C104.235 202.947 100.223 201.578 96.0813 200.752C95.7391 202.475 95.3969 204.186 95.0547 205.909C98.6891 206.64 102.217 207.82 105.545 209.437L108.035 204.799Z" fill="#F01B25"/>
<path d="M387.74 45.1705H370.796H347.762H343.526H336.174H333.637V91.5679C326.676 64.428 305.353 45.1705 270.614 45.1705H253.669H230.636H226.4H219.048H216.523V126.295H195.059V45.1587H147.67L106.418 118.708C99.8215 100.725 83.9152 91.3201 66.8997 91.3201C55.2531 91.3201 46.6038 94.1403 39.6182 100.264H38.9456C42.816 86.7063 54.1675 74.7412 82.3222 73.396C87.172 73.1718 90.5822 73.0892 94.134 73.337V43.4241C91.2312 43.1527 87.5968 42.8341 81.4844 43.1527C58.4155 43.7191 39.6182 50.5395 24.9863 64.0504C9.65814 78.4346 0.300781 100.76 0.300781 127.133C0.300781 159.559 17.5523 189.814 57.1765 189.802C80.8354 189.802 99.7507 175.725 106.725 155.512H159.399V187.419L195.059 187.407V155.5H216.523V187.419H219.048H226.4H230.636H253.669H270.614C305.353 187.419 326.676 168.161 333.637 141.021V187.419H336.163H343.514H347.75H370.784H387.728C430.845 187.419 453.277 157.754 453.277 120.183V112.395C453.289 74.8238 430.845 45.1705 387.74 45.1705ZM56.6101 161.152H56.4213C43.9606 161.152 38.4972 149.199 37.7184 137.835C37.7184 133.611 38.0488 131.098 38.8866 129.34C41.0578 123.605 46.9106 118.908 54.3445 118.908C66.6165 118.908 71.2185 129.847 71.2775 139.924C71.2775 151.842 65.7787 161.152 56.6101 161.152ZM159.399 101.846V126.307H134.513L134.667 125.859L146.349 102.164C151.328 92.2641 155.163 83.1309 159.624 73.5258H160.379C159.907 83.4259 159.399 92.8305 159.399 101.846ZM270.614 158.013H253.669V74.5878H270.614C283.96 74.5878 295.453 88.1459 295.453 116.301C295.453 144.455 283.96 158.013 270.614 158.013ZM387.74 158.013H370.796V74.5878H387.74C401.086 74.5878 412.579 88.1459 412.579 116.301C412.579 144.455 401.086 158.013 387.74 158.013Z" fill="#334FA2"/>
<path d="M387.74 45.1705H370.796H347.762H343.526H336.174H333.637V91.5679C326.676 64.428 305.353 45.1705 270.614 45.1705H253.669H230.636H226.4H219.048H216.523V126.295H195.059V45.1587H147.67L106.418 118.708C99.8215 100.725 83.9152 91.3201 66.8997 91.3201C55.2531 91.3201 46.6038 94.1403 39.6182 100.264H38.9456C42.816 86.7063 54.1675 74.7412 82.3222 73.396C87.172 73.1718 90.5822 73.0892 94.134 73.337V43.4241C91.2312 43.1527 87.5968 42.8341 81.4844 43.1527C58.4155 43.7191 39.6182 50.5395 24.9863 64.0504C9.65814 78.4346 0.300781 100.76 0.300781 127.133C0.300781 159.559 17.5523 189.814 57.1765 189.802C80.8354 189.802 99.7507 175.725 106.725 155.512H159.399V187.419L195.059 187.407V155.5H216.523V187.419H219.048H226.4H230.636H253.669H270.614C305.353 187.419 326.676 168.161 333.637 141.021V187.419H336.163H343.514H347.75H370.784H387.728C430.845 187.419 453.277 157.754 453.277 120.183V112.395C453.289 74.8238 430.845 45.1705 387.74 45.1705ZM56.6101 161.152H56.4213C43.9606 161.152 38.4972 149.199 37.7184 137.835C37.7184 133.611 38.0488 131.098 38.8866 129.34C41.0578 123.605 46.9106 118.908 54.3445 118.908C66.6165 118.908 71.2185 129.847 71.2775 139.924C71.2775 151.842 65.7787 161.152 56.6101 161.152ZM159.399 101.846V126.307H134.513L134.667 125.859L146.349 102.164C151.328 92.2641 155.163 83.1309 159.624 73.5258H160.379C159.907 83.4259 159.399 92.8305 159.399 101.846ZM270.614 158.013H253.669V74.5878H270.614C283.96 74.5878 295.453 88.1459 295.453 116.301C295.453 144.455 283.96 158.013 270.614 158.013ZM387.74 158.013H370.796V74.5878H387.74C401.086 74.5878 412.579 88.1459 412.579 116.301C412.579 144.455 401.086 158.013 387.74 158.013Z" fill="white"/>
<path d="M279.1 14.207V18.0774H287.808V20.5436V20.5554C287.808 22.762 288.363 24.0482 281.2 26.3138L282.203 29.5116C287.454 28.1664 291.678 26.6206 291.678 20.5554V20.5436V18.0774H298.935V14.207H279.1Z" fill="white"/>
<path d="M429.797 183.011H427.928V182.004H432.53V183.011H430.804V187.469H429.797V183.011Z" fill="white"/>
<path d="M436.413 186.031L437.851 182.004H439.289V187.469H438.283V183.298L436.844 187.469H435.838L434.399 183.298V187.469H433.393V182.004H434.975L436.413 186.031Z" fill="white"/>
</svg>
