<svg width="120" height="81" viewBox="0 0 120 81" fill="none" xmlns="http://www.w3.org/2000/svg">
<path fill-rule="evenodd" clip-rule="evenodd" d="M34.6052 40.0173C35.0932 41.674 35.7345 42.2756 36.3351 42.3748C36.8127 42.4537 37.3748 42.2644 38.0654 41.4878C38.7587 40.7081 39.4374 39.4827 40.0785 37.9095C41.3545 34.778 42.3638 30.5693 43.1109 26.6539L45.0754 27.0287C44.3223 30.9762 43.2838 35.3433 41.9306 38.6642C41.2571 40.317 40.4759 41.7869 39.5599 42.8169C38.6411 43.8501 37.4443 44.5851 36.0092 44.3481C34.1839 44.0466 33.2137 42.3715 32.6867 40.5825C32.1396 38.7252 31.9294 36.3072 31.9089 33.739C31.8678 28.5828 32.593 22.5199 33.1942 18.4103L35.1731 18.6998C34.5754 22.7855 33.869 28.7252 33.9088 33.7231C33.9288 36.2318 34.1373 38.4288 34.6052 40.0173Z" fill="white"/>
<path fill-rule="evenodd" clip-rule="evenodd" d="M87.3138 40.5825C86.7868 42.3715 85.8166 44.0466 83.9913 44.3481C82.5562 44.5851 81.3594 43.8501 80.4406 42.8169C79.5246 41.7869 78.7434 40.317 78.0699 38.6642C76.7167 35.3433 75.6782 30.9762 74.925 27.0287L76.8896 26.6539C77.6366 30.5693 78.646 34.778 79.922 37.9095C80.5631 39.4827 81.2417 40.7081 81.9351 41.4878C82.6257 42.2644 83.1878 42.4537 83.6654 42.3748C84.266 42.2756 84.9073 41.674 85.3953 40.0173C85.8632 38.4288 86.0716 36.2318 86.0917 33.7231C86.1315 28.7252 85.425 22.7855 84.8273 18.6998L86.8063 18.4103C87.4075 22.5199 88.1327 28.5828 88.0916 33.739C88.0711 36.3072 87.8609 38.7252 87.3138 40.5825Z" fill="white"/>
<path fill-rule="evenodd" clip-rule="evenodd" d="M60.2713 2.5C55.5892 2.5 52.9668 3.16384 51.6935 3.63647C51.4291 3.7346 51.2025 4.03704 51.2634 4.54503L51.3858 5.56462L50.4077 5.69527C47.7368 6.05204 45.0304 6.48507 42.6106 6.90358C38.1521 7.67469 34.9614 11.592 34.9614 16.1588V17.0182C34.9614 21.5897 38.166 25.5283 42.6378 26.4226C45.4882 26.9926 48.6725 27.6184 51.5483 28.1582C52.6608 28.367 53.5074 29.2889 53.5966 30.4315L53.614 30.6547C53.9364 34.7905 54.3812 40.4951 55.4357 45.1957C55.974 47.5954 56.654 49.6494 57.5077 51.0808C58.3664 52.5206 59.2625 53.1196 60.2006 53.1196C61.1354 53.1196 62.0325 52.5179 62.8939 51.0662C63.7494 49.6245 64.4311 47.557 64.9707 45.1449C66.032 40.4018 66.4782 34.6493 66.7986 30.52L66.8121 30.3451C66.9008 29.2031 67.7462 28.2811 68.858 28.0713C71.6101 27.5519 74.6082 26.9623 77.3068 26.4226C81.7786 25.5283 84.9831 21.5897 84.9831 17.0182V16.1587C84.9831 11.592 81.7925 7.67468 77.334 6.90356C75.0908 6.5156 72.6011 6.11511 70.1215 5.77446L69.1476 5.64067L69.2791 4.54503C69.3401 4.03704 69.1134 3.7346 68.849 3.63647C67.5757 3.16384 64.9533 2.5 60.2713 2.5ZM50.9975 1.76147C52.5378 1.18976 55.4039 0.5 60.2713 0.5C65.1386 0.5 68.0048 1.18976 69.545 1.76147C70.5601 2.13826 71.1073 2.9999 71.2496 3.9129C73.4709 4.22953 75.6728 4.58656 77.6748 4.93282C83.1313 5.87655 86.9831 10.6592 86.9831 16.1587V17.0182C86.9831 22.5339 83.1146 27.3007 77.699 28.3837C74.9967 28.9242 71.9908 29.5154 69.2288 30.0366C68.9911 30.0815 68.8238 30.2728 68.8061 30.4999L68.7883 30.7298C68.4706 34.8269 68.0154 40.6971 66.9225 45.5816C66.3673 48.0631 65.6304 50.3738 64.6139 52.0869C63.6033 53.79 62.1748 55.1196 60.2006 55.1196C58.2293 55.1196 56.8012 53.8008 55.79 52.1053C54.7738 50.4015 54.0382 48.103 53.4842 45.6335C52.3978 40.7907 51.944 34.9669 51.6242 30.8637C51.6169 30.7706 51.6097 30.6784 51.6026 30.5871C51.5849 30.3598 51.4173 30.1685 51.1794 30.1239C48.2927 29.582 45.0998 28.9545 42.2456 28.3837C36.83 27.3007 32.9614 22.5339 32.9614 17.0182V16.1588C32.9614 10.6592 36.8133 5.87656 42.2698 4.93284C44.4556 4.5548 46.8799 4.16389 49.3075 3.82671C49.4701 2.94605 50.0144 2.12638 50.9975 1.76147Z" fill="white"/>
<path fill-rule="evenodd" clip-rule="evenodd" d="M45.016 21.257C47.3242 21.257 49.1954 19.3859 49.1954 17.0777C49.1954 14.7695 47.3242 12.8983 45.016 12.8983C42.7078 12.8983 40.8367 14.7695 40.8367 17.0777C40.8367 19.3859 42.7078 21.257 45.016 21.257ZM50.7152 17.0777C50.7152 20.2252 48.1636 22.7768 45.016 22.7768C41.8685 22.7768 39.3169 20.2252 39.3169 17.0777C39.3169 13.9301 41.8685 11.3785 45.016 11.3785C48.1636 11.3785 50.7152 13.9301 50.7152 17.0777Z" fill="white"/>
<path d="M43.9292 13.8645C43.9292 13.5407 44.1916 13.2783 44.5154 13.2783H45.5141C45.8378 13.2783 46.1003 13.5407 46.1003 13.8645V20.2909C46.1003 20.6147 45.8378 20.8771 45.5141 20.8771H44.5154C44.1916 20.8771 43.9292 20.6147 43.9292 20.2909V13.8645Z" fill="white"/>
<path fill-rule="evenodd" clip-rule="evenodd" d="M41.802 18.1632C41.4783 18.1632 41.2158 17.9008 41.2158 17.577V16.5783C41.2158 16.2546 41.4783 15.9921 41.802 15.9921H48.2285C48.5522 15.9921 48.8147 16.2546 48.8147 16.5783V17.577C48.8147 17.9008 48.5522 18.1632 48.2285 18.1632H41.802Z" fill="white"/>
<path fill-rule="evenodd" clip-rule="evenodd" d="M75.7917 12.8983C76.6311 12.8983 77.3115 12.2179 77.3115 11.3785C77.3115 10.5392 76.6311 9.85876 75.7917 9.85876C74.9524 9.85876 74.272 10.5392 74.272 11.3785C74.272 12.2179 74.9524 12.8983 75.7917 12.8983Z" fill="white"/>
<path fill-rule="evenodd" clip-rule="evenodd" d="M77.3115 11.3785C77.3115 12.2179 76.6311 12.8983 75.7917 12.8983C74.9524 12.8983 74.272 12.2179 74.272 11.3785C74.272 10.5392 74.9524 9.85876 75.7917 9.85876C76.6311 9.85876 77.3115 10.5392 77.3115 11.3785Z" fill="white"/>
<path fill-rule="evenodd" clip-rule="evenodd" d="M72.7522 15.9379C73.5915 15.9379 74.272 15.2574 74.272 14.4181C74.272 13.5787 73.5915 12.8983 72.7522 12.8983C71.9128 12.8983 71.2324 13.5787 71.2324 14.4181C71.2324 15.2574 71.9128 15.9379 72.7522 15.9379Z" fill="white"/>
<path fill-rule="evenodd" clip-rule="evenodd" d="M74.272 14.4181C74.272 15.2574 73.5915 15.9379 72.7522 15.9379C71.9128 15.9379 71.2324 15.2574 71.2324 14.4181C71.2324 13.5787 71.9128 12.8983 72.7522 12.8983C73.5915 12.8983 74.272 13.5787 74.272 14.4181Z" fill="white"/>
<path fill-rule="evenodd" clip-rule="evenodd" d="M78.8313 15.9379C79.6706 15.9379 80.3511 15.2574 80.3511 14.4181C80.3511 13.5787 79.6706 12.8983 78.8313 12.8983C77.9919 12.8983 77.3115 13.5787 77.3115 14.4181C77.3115 15.2574 77.9919 15.9379 78.8313 15.9379Z" fill="white"/>
<path fill-rule="evenodd" clip-rule="evenodd" d="M80.3511 14.4181C80.3511 15.2574 79.6706 15.9379 78.8313 15.9379C77.9919 15.9379 77.3115 15.2574 77.3115 14.4181C77.3115 13.5787 77.9919 12.8983 78.8313 12.8983C79.6706 12.8983 80.3511 13.5787 80.3511 14.4181Z" fill="white"/>
<path fill-rule="evenodd" clip-rule="evenodd" d="M75.7917 18.9774C76.6311 18.9774 77.3115 18.297 77.3115 17.4576C77.3115 16.6183 76.6311 15.9379 75.7917 15.9379C74.9524 15.9379 74.272 16.6183 74.272 17.4576C74.272 18.297 74.9524 18.9774 75.7917 18.9774Z" fill="white"/>
<path fill-rule="evenodd" clip-rule="evenodd" d="M77.3115 17.4576C77.3115 18.297 76.6311 18.9774 75.7917 18.9774C74.9524 18.9774 74.272 18.297 74.272 17.4576C74.272 16.6183 74.9524 15.9379 75.7917 15.9379C76.6311 15.9379 77.3115 16.6183 77.3115 17.4576Z" fill="white"/>
<path fill-rule="evenodd" clip-rule="evenodd" d="M69.3323 19.7373C70.3815 19.7373 71.232 18.8868 71.232 17.8376C71.232 16.7884 70.3815 15.9379 69.3323 15.9379C68.2831 15.9379 67.4326 16.7884 67.4326 17.8376C67.4326 18.8868 68.2831 19.7373 69.3323 19.7373Z" fill="white"/>
<path fill-rule="evenodd" clip-rule="evenodd" d="M69.3323 18.2175C69.5422 18.2175 69.7123 18.0474 69.7123 17.8376C69.7123 17.6277 69.5422 17.4576 69.3323 17.4576C69.1225 17.4576 68.9524 17.6277 68.9524 17.8376C68.9524 18.0474 69.1225 18.2175 69.3323 18.2175ZM71.232 17.8376C71.232 18.8868 70.3815 19.7373 69.3323 19.7373C68.2831 19.7373 67.4326 18.8868 67.4326 17.8376C67.4326 16.7884 68.2831 15.9379 69.3323 15.9379C70.3815 15.9379 71.232 16.7884 71.232 17.8376Z" fill="white"/>
<path fill-rule="evenodd" clip-rule="evenodd" d="M60.2142 20.4971C61.2633 20.4971 62.1139 19.6465 62.1139 18.5973C62.1139 17.5482 61.2633 16.6976 60.2142 16.6976C59.165 16.6976 58.3145 17.5482 58.3145 18.5973C58.3145 19.6465 59.165 20.4971 60.2142 20.4971Z" fill="white"/>
<path fill-rule="evenodd" clip-rule="evenodd" d="M60.2142 18.9773C60.424 18.9773 60.5941 18.8072 60.5941 18.5973C60.5941 18.3875 60.424 18.2174 60.2142 18.2174C60.0043 18.2174 59.8342 18.3875 59.8342 18.5973C59.8342 18.8072 60.0043 18.9773 60.2142 18.9773ZM62.1139 18.5973C62.1139 19.6465 61.2633 20.4971 60.2142 20.4971C59.165 20.4971 58.3145 19.6465 58.3145 18.5973C58.3145 17.5482 59.165 16.6976 60.2142 16.6976C61.2633 16.6976 62.1139 17.5482 62.1139 18.5973Z" fill="white"/>
<path fill-rule="evenodd" clip-rule="evenodd" d="M72.3719 22.7767C73.4211 22.7767 74.2716 21.9262 74.2716 20.877C74.2716 19.8278 73.4211 18.9773 72.3719 18.9773C71.3227 18.9773 70.4722 19.8278 70.4722 20.877C70.4722 21.9262 71.3227 22.7767 72.3719 22.7767Z" fill="white"/>
<path fill-rule="evenodd" clip-rule="evenodd" d="M72.3719 21.2569C72.5817 21.2569 72.7518 21.0868 72.7518 20.877C72.7518 20.6672 72.5817 20.4971 72.3719 20.4971C72.162 20.4971 71.9919 20.6672 71.9919 20.877C71.9919 21.0868 72.162 21.2569 72.3719 21.2569ZM74.2716 20.877C74.2716 21.9262 73.4211 22.7767 72.3719 22.7767C71.3227 22.7767 70.4722 21.9262 70.4722 20.877C70.4722 19.8278 71.3227 18.9773 72.3719 18.9773C73.4211 18.9773 74.2716 19.8278 74.2716 20.877Z" fill="white"/>
<path fill-rule="evenodd" clip-rule="evenodd" d="M65.117 6.81921H55.2385C54.8188 6.81921 54.4786 7.15942 54.4786 7.5791C54.4786 7.99877 54.8188 8.33898 55.2385 8.33898H65.117C65.5367 8.33898 65.8769 7.99877 65.8769 7.5791C65.8769 7.15942 65.5367 6.81921 65.117 6.81921ZM55.2385 6.05933C54.3992 6.05933 53.7188 6.73975 53.7188 7.5791C53.7188 8.41844 54.3992 9.09886 55.2385 9.09886H65.117C65.9564 9.09886 66.6368 8.41844 66.6368 7.5791C66.6368 6.73975 65.9564 6.05933 65.117 6.05933H55.2385Z" fill="white"/>
<path fill-rule="evenodd" clip-rule="evenodd" d="M60.2138 35.6948C63.3613 35.6948 65.9129 33.1432 65.9129 29.9956C65.9129 26.8481 63.3613 24.2965 60.2138 24.2965C57.0662 24.2965 54.5146 26.8481 54.5146 29.9956C54.5146 33.1432 57.0662 35.6948 60.2138 35.6948ZM61.4178 27.0893L60.2139 26.5762L59.0101 27.0893L57.796 27.5777L57.3076 28.7918L56.7944 29.9957L57.3076 31.1995L57.796 32.4136L59.0101 32.902L60.2139 33.4151L61.4178 32.902L62.6319 32.4136L63.1203 31.1995L63.6334 29.9957L63.1203 28.7918L62.6319 27.5777L61.4178 27.0893Z" fill="white"/>
<path d="M62.1139 29.9957C62.1139 31.0448 61.2633 31.8954 60.2142 31.8954C59.165 31.8954 58.3145 31.0448 58.3145 29.9957C58.3145 28.9465 59.165 28.0959 60.2142 28.0959C61.2633 28.0959 62.1139 28.9465 62.1139 29.9957Z" fill="white"/>
</svg>
