<svg width="454" height="231" viewBox="0 0 454 231" fill="none" xmlns="http://www.w3.org/2000/svg">
<path d="M228.27 25.4129L232.352 29.4957L234.712 27.1357L231.161 23.5839H239.055V25.5191C239.055 25.8731 238.772 26.1563 238.418 26.1563H236.388V29.4957H240.164C241.391 29.4957 242.394 28.4927 242.394 27.2655V26.1563V23.5957H247.303V21.0116H242.406V19.867H245.45V10.6512H244.259H237.757V9.50661H247.315V6.92242H237.757V5.42383H234.417V6.92242H224.848V9.50661H234.417V10.6512H228.541H226.724V19.867H230.063H239.067V21.0116H224.848V23.5957H230.087L228.27 25.4129ZM242.111 17.802H237.757V15.8196H242.111V17.802ZM242.111 12.7162V13.7546H237.757V12.7162H242.111ZM234.417 13.7546H230.063V12.7162H234.417V13.7546ZM230.063 15.8196H234.417V17.802H230.063V15.8196Z" fill="white"/>
<path d="M255.231 22.311V21.8744H259.574V29.509H262.913V21.8744H267.267V23.5972V25.5324C267.267 25.8864 266.984 26.1696 266.63 26.1696H264.6V29.509H268.376C269.604 29.509 270.607 28.506 270.607 27.2788V26.1696V18.2519V6.91211H269.674H252.989H251.88V22.3228C251.892 24.4114 250.629 26.1578 249.154 27.6446C249.945 28.4234 251.184 29.4736 251.975 30.2524C254.075 28.1402 255.243 25.2846 255.231 22.311ZM255.231 18.5351V16.0689H259.574V18.5351H255.231ZM267.279 12.7295H262.925V10.2515H267.279V12.7295ZM259.574 12.7295H255.231V10.2515H259.574V12.7295ZM262.913 18.5351V16.0689H267.267V18.5351H262.913Z" fill="white"/>
<path d="M297.667 7.02734H295.885V12.3963H297.667V7.02734Z" fill="white"/>
<path d="M301.7 7.02734H299.918V12.3963H301.7V7.02734Z" fill="white"/>
<path d="M373.74 18.9236C377.162 19.1596 380.43 20.5048 383.557 22.1214C384.147 20.9768 384.985 19.0416 385.575 17.897C381.893 15.9972 377.834 15.0178 373.74 14.9706V7.60742H369.869V29.5081H373.74V18.9236Z" fill="white"/>
<path d="M405.671 7.23047H391.275V11.1009H405.671V7.23047Z" fill="white"/>
<path d="M419.181 29.4963H423.051V15.9736C425.777 13.826 427.972 10.9704 429.317 7.60742H425.069C422.273 13.0118 416.668 16.4692 410.484 16.4456V20.316C413.552 20.3278 416.514 19.6316 419.181 18.369V29.4963Z" fill="white"/>
<path d="M293.513 7.44141H282.539V11.3118H293.513V7.44141Z" fill="white"/>
<path d="M301.995 22.5684C303.942 22.4622 306.077 21.8722 308.107 20.881V29.5067H311.977V18.3794C314.172 16.5504 315.907 14.1904 316.638 11.5C315.352 11.5 314.054 11.5 312.768 11.5C311.092 15.5946 304.992 18.7216 301.346 18.7216L301.995 22.5684Z" fill="white"/>
<path d="M319.271 25.6845C319.366 26.0267 320.192 29.2599 320.251 29.4958C324.015 29.0829 327.685 26.3925 330.328 22.8879C332.605 24.6579 334.493 27.5843 336.417 30.4044L339.237 26.9707C337.184 24.2213 334.847 21.3185 332.358 19.6311C333.561 17.2475 334.281 14.7223 334.281 12.3977V8.52734H320.168V12.3977H330.411C330.399 15.3949 327.213 23.2183 319.271 25.6845Z" fill="white"/>
<path d="M381.303 7.02734H379.521V12.3963H381.303V7.02734Z" fill="white"/>
<path d="M385.34 7.02734H383.559V12.3963H385.34V7.02734Z" fill="white"/>
<path d="M453.862 7.02734H452.08V12.3845H453.862V7.02734Z" fill="white"/>
<path d="M395.157 25.6376H390.685L391.286 29.508H395.157C403.37 29.508 407.429 23.5726 407.429 17.413V13.5898H388.549V17.4602H403.558C403.535 21.661 400.762 25.6376 395.157 25.6376Z" fill="white"/>
<path d="M348.216 12.3848H355.497V13.5766H355.509C355.509 20.4677 349.125 25.0461 342.352 25.6715C342.541 27.0285 342.765 28.3737 342.954 29.4947C352.488 28.0433 359.379 22.4501 359.379 13.5766H359.367V11.4172V8.51438H349.668C349.762 8.21938 349.845 7.93618 349.927 7.65298L346.116 6.70898C345.125 10.2726 343.508 14.6385 340.889 17.2817L342.482 20.9515C344.853 18.7449 346.789 15.6179 348.216 12.3848Z" fill="white"/>
<path d="M445.414 13.9539C445.414 21.3171 441.083 25.7067 433.732 25.7067C433.732 25.7067 433.732 25.7067 433.13 25.7067C433.13 25.7067 433.661 29.1286 433.72 29.5062C444.435 29.5062 449.284 23.4529 449.284 13.9657V13.9539V12.3845V7.02734H447.503V11.9715H446.098V8.52594H432.375V12.3963H445.414V13.9539Z" fill="white"/>
<path d="M8.0239 17.0704H8.0829L12.8029 30.6521H23.3874V7.12305H16.2249V20.6222H16.1659L11.4459 7.12305H0.861328V30.6521H8.0239V17.0704Z" fill="white"/>
<path d="M47.9536 17.0704H48.0126L52.7326 30.6521H63.3171V7.12305H56.1663V20.6222H56.1074L51.3756 7.12305H40.791V30.6521H47.9536V17.0704Z" fill="white"/>
<path d="M116.725 17.0704H116.784L121.504 30.6521H132.089V7.12305H124.938V20.6222H124.867L120.147 7.12305H109.562V30.6521H116.725V17.0704Z" fill="white"/>
<path d="M36.5314 7.12305H27.7051V30.6403H36.5314V7.12305Z" fill="white"/>
<path d="M71.4957 30.6521H80.322V13.5186H85.9506V7.12305H65.8789V13.5186H71.4957V30.6521Z" fill="white"/>
<path d="M158.108 19.1354C158.108 12.1734 155.264 7.12305 146.343 7.12305H135.889V30.6403H146.874C153.73 30.6403 158.108 26.239 158.108 19.1354ZM144.526 25.3186V12.492H145.388C146.815 12.492 147.759 12.9286 148.314 13.8726C148.892 14.852 148.963 16.6338 148.963 18.9112C148.963 21.1768 148.904 22.9586 148.314 23.938C147.759 24.882 146.804 25.3186 145.388 25.3186H144.526Z" fill="white"/>
<path d="M171.948 31.2779C179.642 31.2779 183.465 26.2393 183.465 18.8997C183.465 11.5601 179.63 6.50977 171.948 6.50977C164.255 6.50977 160.432 11.5601 160.432 18.8997C160.432 26.2275 164.267 31.2779 171.948 31.2779ZM171.948 12.4687C173.364 12.4687 174.32 13.2711 174.32 18.8997C174.32 24.6581 173.305 25.3189 171.948 25.3189C170.591 25.3189 169.565 24.6463 169.577 18.8997C169.577 13.2593 170.532 12.4687 171.948 12.4687Z" fill="white"/>
<path d="M194.37 19.4072C198.335 19.4072 201.308 16.41 201.308 12.5514C201.308 8.52762 198.606 6.38003 195.656 6.38003C194.122 6.38003 192.966 6.75763 192.045 7.57183H191.951C192.458 5.77823 193.957 4.19704 197.686 4.02004C198.323 3.98464 198.783 3.97284 199.243 4.00824L199.267 0.0552593C198.889 0.0198595 198.394 -0.0273403 197.591 0.0198595C194.547 0.0906592 192.057 0.987455 190.122 2.78105C188.093 4.68084 186.854 7.63083 186.854 11.1236C186.854 15.407 189.131 19.4072 194.37 19.4072ZM191.951 11.4186C192.246 10.6516 193.025 10.038 194.004 10.038C195.621 10.038 196.223 11.4894 196.234 12.8228C196.234 14.3922 195.503 15.6312 194.287 15.6312C192.624 15.643 191.904 14.0618 191.798 12.5514C191.798 11.985 191.833 11.6546 191.951 11.4186Z" fill="white"/>
<path d="M210.534 19.1003H215.254V14.8759H217.249V11.0055H215.254V0.267578H208.989L202.688 11.4893V14.8759H210.534V19.1003ZM207.23 11.0055L207.254 10.9465L208.8 7.81954C209.461 6.50975 209.968 5.30616 210.558 4.03176H210.664C210.605 5.35336 210.534 6.59235 210.534 7.78415V11.0173L207.23 11.0055Z" fill="white"/>
<path d="M106.294 24.4808H97.2434V21.8494H105.326V15.8078H97.2434V13.3416H106.023V7.12305H88.5586V30.6521H106.294V24.4808Z" fill="white"/>
<path d="M160.243 200.207H157.824V207.499H160.243V200.207Z" fill="white"/>
<path d="M165.731 200.207H163.312V207.499H165.731V200.207Z" fill="white"/>
<path d="M135.818 215.167H147.642V218.542C147.642 221.539 148.385 223.285 138.674 226.365L140.031 230.708C147.158 228.879 152.893 226.778 152.893 218.542V215.167H162.746V209.916H135.818V215.167Z" fill="white"/>
<path d="M210.993 211.9H192.078V217.151H210.993V211.9Z" fill="white"/>
<path d="M154.603 200.748H139.699V205.999H154.603V200.748Z" fill="white"/>
<path d="M64.2384 207.476H82.5755V213.848H65.1824V219.099H82.5755V225.459H64.2266V230.71H87.8265V225.459V207.476H87.8383V202.225H64.2384V207.476Z" fill="white"/>
<path d="M24.4729 202.225H0.873047V207.476H0.884851V225.459V230.71H24.4847V225.471V205.729H24.4729V202.225ZM6.12402 207.476H19.222V225.459H6.12402V207.476Z" fill="white"/>
<path d="M166.662 216.064L167.547 221.291C170.19 221.149 173.093 220.347 175.842 219.002V230.707H181.093V215.615C184.067 213.125 186.427 209.928 187.43 206.258C185.684 206.258 183.925 206.258 182.179 206.258C179.89 211.827 171.606 216.064 166.662 216.064Z" fill="white"/>
<path d="M95.3906 225.565C95.3906 225.565 96.1104 230.214 96.193 230.722C114.4 229.825 118.412 224.633 119.946 210.19L114.99 208.75C114.66 218.273 111.852 222.804 106.235 224.609C103.544 225.471 99.4026 225.707 95.3906 225.565Z" fill="white"/>
<path d="M242.372 200.207H239.953V207.499H242.372V200.207Z" fill="white"/>
<path d="M247.845 200.207H245.426V207.499H247.845V200.207Z" fill="white"/>
<path d="M217.934 215.179H229.757V218.553C229.757 221.551 230.501 223.297 220.789 226.377L222.146 230.719C229.273 228.89 235.008 226.79 235.008 218.553V215.179H244.861V209.928H217.934V215.179Z" fill="white"/>
<path d="M293.122 211.91H274.207V217.161H293.122V211.91Z" fill="white"/>
<path d="M236.72 200.748H221.816V205.999H236.72V200.748Z" fill="white"/>
<path d="M248.791 216.064C248.791 216.064 249.652 221.173 249.676 221.291C252.319 221.149 255.21 220.347 257.96 219.014V230.707H263.211V215.627C266.196 213.125 268.556 209.928 269.559 206.258C267.813 206.258 266.054 206.258 264.308 206.258C262.019 211.827 253.735 216.064 248.791 216.064Z" fill="white"/>
<path d="M43.4459 201.03L38.2657 199.744C36.9205 204.594 34.7139 210.517 31.1621 214.105C31.2683 214.341 33.3333 219.096 33.3333 219.096C36.5665 216.111 39.1979 211.874 41.1213 207.473H51.0096V209.101C51.0096 218.447 42.3367 224.666 33.1445 225.515C33.1445 225.515 33.8879 230.33 33.9469 230.719C46.9032 228.748 56.2606 221.149 56.2606 209.101V207.473V202.222H43.0919C43.2099 201.821 43.3279 201.42 43.4459 201.03Z" fill="white"/>
<path d="M108.607 204.795C104.807 202.943 100.795 201.574 96.6535 200.748C96.3113 202.471 95.9692 204.182 95.627 205.905C99.2613 206.636 102.79 207.816 106.117 209.433L108.607 204.795Z" fill="white"/>
<path d="M388.313 45.1666H371.368H348.334H344.098H336.747H334.21V91.564C327.248 64.4241 305.925 45.1666 271.186 45.1666H254.242H231.208H226.972H219.62H217.095V126.291H195.631V45.1548H148.243L106.99 118.704C100.394 100.721 84.4875 91.3162 67.472 91.3162C55.8254 91.3162 47.176 94.1364 40.1905 100.261H39.5179C43.3883 86.7024 54.7398 74.7373 82.8945 73.3921C87.7443 73.1679 91.1544 73.0853 94.7062 73.3331V43.4202C91.8034 43.1488 88.1691 42.8302 82.0567 43.1488C58.9878 43.7152 40.1905 50.5356 25.5585 64.0465C10.2304 78.4306 0.873047 100.756 0.873047 127.129C0.873047 159.555 18.1246 189.81 57.7488 189.799C81.4077 189.799 100.323 175.721 107.297 155.508H159.972V187.415L195.631 187.403V155.496H217.095V187.415H219.62H226.972H231.208H254.242H271.186C305.925 187.415 327.248 168.157 334.21 141.018V187.415H336.735H344.086H348.323H371.356H388.301C431.418 187.415 453.849 157.75 453.849 120.179V112.391C453.861 74.8199 431.418 45.1666 388.313 45.1666ZM57.1824 161.148H56.9936C44.5329 161.148 39.0695 149.195 38.2907 137.832C38.2907 133.607 38.6211 131.094 39.4589 129.336C41.6301 123.601 47.4828 118.904 54.9168 118.904C67.1888 118.904 71.7907 129.843 71.8497 139.92C71.8497 151.838 66.351 161.148 57.1824 161.148ZM159.972 101.842V126.303H135.086L135.239 125.855L146.921 102.16C151.901 92.2602 155.736 83.127 160.196 73.5219H160.951C160.479 83.422 159.972 92.8266 159.972 101.842ZM271.186 158.009H254.242V74.5839H271.186C284.532 74.5839 296.025 88.142 296.025 116.297C296.025 144.451 284.532 158.009 271.186 158.009ZM388.313 158.009H371.368V74.5839H388.313C401.658 74.5839 413.151 88.142 413.151 116.297C413.151 144.451 401.658 158.009 388.313 158.009Z" fill="white"/>
<path d="M279.672 14.2031V18.0735H288.38V20.5397V20.5515C288.38 22.7581 288.935 24.0443 281.772 26.3099L282.775 29.5077C288.026 28.1625 292.251 26.6167 292.251 20.5515V20.5397V18.0735H299.508V14.2031H279.672Z" fill="white"/>
<path d="M430.797 183.011H428.928V182.004H433.53V183.011H431.804V187.469H430.797V183.011Z" fill="white"/>
<path d="M437.413 186.031L438.851 182.004H440.289V187.469H439.283V183.298L437.844 187.469H436.838L435.399 183.298V187.469H434.393V182.004H435.975L437.413 186.031Z" fill="white"/>
</svg>
