<svg width="375" height="191" viewBox="0 0 375 191" fill="none" xmlns="http://www.w3.org/2000/svg">
<g clip-path="url(#clip0_969_1988)">
<path d="M171.956 2.17815C173.456 2.18406 174.958 2.21068 176.459 2.18702C176.977 2.17815 177.185 2.27573 177.184 2.86417C177.164 12.7331 177.167 22.6006 177.178 32.4696C177.178 32.9176 177.104 33.1305 176.577 33.1172C175.102 33.0802 173.623 33.1068 172.146 33.1024C171.919 33.1024 171.661 33.1867 171.629 32.7816C171.454 30.6747 170.788 28.6817 170.131 26.6946C168.929 23.056 167.023 19.7752 164.758 16.7133C163.531 15.0544 162.156 13.4827 160.605 12.1181C158.498 10.264 156.359 8.43071 153.779 7.21539C149.125 5.0213 143.526 5.56982 139.616 9.18031C137.634 11.0122 136.25 13.1826 135.638 15.7936C135.11 18.0439 135.595 20.1374 136.862 22.0876C138.91 25.2397 141.714 27.5418 144.893 29.4475C148.073 31.3533 151.57 32.5657 154.962 34.0013C160.587 36.3832 166.101 38.9691 171.036 42.618C174.717 45.3399 177.933 48.5039 179.923 52.722C180.88 54.7505 181.368 56.9047 181.696 59.1165C182.014 61.2604 182.052 63.4116 181.952 65.5569C181.845 67.8485 181.416 70.1077 180.776 72.318C179.619 76.3085 177.771 79.9441 175.089 83.1273C172.537 86.1568 169.395 88.3523 165.641 89.6785C163.528 90.4252 161.383 91.0728 159.18 91.4232C156.819 91.7987 154.422 91.849 152.023 91.7824C147.849 91.6656 143.94 90.6174 140.26 88.6687C138.574 87.7772 137.122 86.5427 135.565 85.4619C134.436 84.6768 133.237 84.0972 131.754 84.492C130.302 84.8793 129.92 86.0651 129.561 87.2449C129.317 88.0463 129.187 88.9009 129.254 89.751C129.292 90.2389 129.091 90.3128 128.665 90.3054C127.287 90.2818 125.908 90.2699 124.53 90.3099C123.992 90.3261 123.89 90.1443 123.893 89.6445C123.913 85.83 123.904 82.0155 123.904 78.201C123.904 71.1382 123.912 64.0754 123.891 57.0126C123.89 56.4242 123.996 56.2009 124.641 56.2246C126.066 56.2778 127.496 56.2468 128.924 56.2364C129.279 56.2335 129.515 56.2542 129.551 56.7214C129.736 59.1579 130.342 61.5161 131.032 63.8463C132.271 68.023 134.031 71.9588 136.552 75.5382C139.596 79.8613 143.493 83.1229 148.453 85.0109C150.39 85.7472 152.379 86.3771 154.512 86.2898C156.841 86.1937 158.92 85.4264 160.789 84.0603C163.645 81.9756 165.104 79.0304 165.879 75.6875C166.249 74.0893 166.532 72.4688 166.464 70.8144C166.364 68.3734 165.552 66.1778 164.109 64.2144C161.803 61.0785 158.732 58.8637 155.391 56.9683C153.093 55.6642 150.72 54.5155 148.282 53.5027C146.196 52.6363 144.096 51.795 141.979 51.004C138.697 49.7769 135.627 48.2008 132.811 46.0762C131.185 44.849 129.733 43.4607 128.355 42.0044C126.427 39.9641 125.009 37.5689 123.906 34.9683C122.54 31.7496 122.299 28.4052 122.417 24.9751C122.498 22.6494 122.92 20.3991 123.55 18.1696C124.434 15.0352 125.872 12.1728 127.896 9.64604C129.897 7.14738 132.274 5.03608 135.092 3.46148C137.374 2.18702 139.798 1.31175 142.365 0.837152C142.965 0.726265 143.6 0.794275 144.164 0.494141H149.925C150.841 0.964303 151.872 0.880028 152.846 1.06632C156.384 1.74495 159.731 2.89818 162.827 4.7596C164.256 5.61713 165.535 6.66834 166.821 7.71512C167.267 8.07883 167.748 8.37601 168.354 8.48394C169.28 8.64805 170.443 7.47708 170.848 6.39039C171.341 5.06861 171.616 3.68622 171.818 2.29051C171.864 2.25355 171.911 2.21659 171.957 2.17963L171.956 2.17815Z" fill="white"/>
<path d="M0 18.2151C0.257258 18.0895 0.533737 18.1486 0.799867 18.1486C12.27 18.1456 23.7402 18.1516 35.2104 18.1309C35.8683 18.1309 36.0931 18.2728 36.0576 18.9647C35.9955 20.1919 36.0251 21.425 36.0487 22.6551C36.0561 23.069 36.0014 23.2568 35.5031 23.2509C33.5131 23.2258 31.7729 23.8556 30.3373 25.2883C29.116 26.5065 28.7065 28.0264 28.4965 29.6676C28.2807 31.3545 28.365 33.043 28.365 34.7299C28.3576 56.1874 28.3472 77.6433 28.3768 99.1007C28.3797 101.506 29.0865 103.681 31.2806 105.084C32.5284 105.883 33.9078 106.137 35.3553 106.064C35.8861 106.038 36.0798 106.152 36.0561 106.733C36.0044 107.961 36.0088 109.194 36.0546 110.423C36.0753 110.975 35.926 111.111 35.3716 111.109C27.2487 111.09 19.1258 111.096 11.003 111.096C7.33482 111.096 3.66815 111.096 0 111.096V105.928C1.19167 105.862 2.40699 106.118 3.57501 105.772C5.5695 105.182 7.15592 104.089 7.67488 101.939C8.00458 100.576 8.148 99.1747 8.148 97.7657C8.148 77.1791 8.14947 56.594 8.148 36.0074C8.148 33.42 8.20861 30.8326 7.8449 28.2541C7.53886 26.0911 6.35754 24.5446 4.23885 23.795C2.85054 23.3041 1.42675 23.3233 0.00295699 23.2405V18.2196L0 18.2151Z" fill="white"/>
<path d="M79.8744 94.5327C79.8774 93.2775 79.907 92.0222 79.8715 90.7685C79.8567 90.2584 79.9883 90.1076 80.5146 90.1135C83.0251 90.1431 85.5356 90.1268 88.0461 90.1268C96.4144 90.1268 104.784 90.1342 113.152 90.112C113.76 90.1105 113.954 90.2436 113.92 90.8705C113.862 91.901 113.883 92.9374 113.914 93.9694C113.929 94.4322 113.773 94.5653 113.325 94.5416C112.663 94.5061 111.996 94.5475 111.332 94.5298C108.769 94.4618 107.497 96.1236 106.941 98.0116C106.725 98.7479 106.768 99.5079 106.768 100.262C106.764 111.334 106.758 122.408 106.783 133.481C106.785 134.171 106.592 134.35 105.93 134.318C104.826 134.263 103.715 134.29 102.608 134.31C102.22 134.318 102.114 134.229 102.044 133.803C101.663 131.466 101.335 129.115 99.9095 127.088C98.6262 125.263 96.5578 125.383 95.1606 126.621C94.2173 127.456 93.4618 128.461 92.6827 129.433C90.3141 132.384 87.2314 134.168 83.6786 135.329C80.5664 136.346 77.3891 136.423 74.1793 136.34C71.6289 136.275 69.2352 135.53 66.8814 134.616C64.5897 133.728 62.542 132.41 60.6643 130.87C57.9291 128.627 55.6197 125.991 53.7819 122.941C51.7076 119.497 50.3075 115.773 49.1232 111.966C48.3839 109.587 47.8384 107.149 47.4111 104.684C47.0666 102.694 46.7532 100.705 46.5181 98.7006C46.2948 96.7934 46.212 94.8802 46.0538 92.97C45.869 90.7374 45.9193 88.5078 45.9622 86.2827C45.9991 84.371 46.1824 82.4578 46.3673 80.5476C46.6275 77.8479 47.0755 75.1822 47.7423 72.5711C48.6575 68.9887 50.2291 65.6473 51.9294 62.368C53.2585 59.8058 54.7799 57.3618 56.5704 55.1042C58.0932 53.1821 59.8068 51.4479 61.7377 49.894C64.674 47.5328 67.9725 46.0395 71.6141 45.2781C72.717 45.0474 73.8584 44.9114 75.0117 44.9247C76.0717 44.9366 77.1318 44.9188 78.1934 44.9439C80.6299 45.0001 82.9911 45.4422 85.3404 46.0942C88.5976 46.9976 91.5989 48.3992 94.3888 50.2843C95.2937 50.8949 96.0122 51.7687 97.0738 52.162C97.8781 52.4606 98.7179 52.1679 99.1496 51.3931C99.6124 50.5637 99.8622 49.6751 99.8475 48.72C99.8401 48.2336 100.077 47.7753 100.003 47.2755C99.9569 46.9621 100.222 47.0153 100.406 47.0153C101.809 47.0124 103.213 47.0345 104.616 47.0035C105.173 46.9917 105.037 47.3495 105.037 47.6392C105.041 50.9851 105.04 54.3324 105.04 57.6782C105.04 64.1496 105.027 70.621 105.059 77.0924C105.064 77.8301 104.851 77.9928 104.16 77.9588C102.957 77.8996 101.749 77.9292 100.542 77.9499C100.151 77.9573 100.022 77.8715 99.9761 77.4369C99.6966 74.7371 99.2132 72.0758 98.5345 69.4426C98.0481 67.5561 97.4789 65.6976 96.7056 63.9175C95.6707 61.5356 94.4361 59.2632 92.7551 57.2465C91.1805 55.357 89.4196 53.7233 87.1546 52.712C85.4543 51.9535 83.6727 51.4745 81.8098 51.2763C79.5832 51.0398 77.3861 50.9733 75.2527 51.819C72.1345 53.055 70.1637 55.4087 68.8227 58.382C67.7744 60.7077 67.2865 63.1413 67.1786 65.6946C67.0633 68.4284 66.9657 71.1621 66.8814 73.8973C66.8223 75.8017 66.8311 77.7074 66.7572 79.6103C66.5517 84.9092 66.6537 90.2096 66.6345 95.51C66.6301 96.922 66.6182 98.3384 66.6463 99.7459C66.6996 102.48 66.8311 105.215 66.9228 107.95C66.9938 110.063 67.1461 112.177 67.3664 114.281C67.6044 116.559 67.7138 118.866 68.252 121.098C69.04 124.366 70.3204 127.397 73.202 129.409C76.3527 131.609 80.726 131.325 83.754 129.03C86.093 127.258 87.4473 124.911 87.9189 122.009C88.0224 121.378 88.1037 120.758 88.1052 120.127C88.1097 113.262 88.12 106.396 88.0993 99.5315C88.0949 97.7958 87.4946 96.2951 85.9378 95.3607C85.0787 94.8447 84.0734 94.7634 83.0931 94.7146C82.0375 94.6628 80.9789 94.6909 79.9203 94.6835C79.904 94.6333 79.8877 94.583 79.87 94.5327H79.8744Z" fill="white"/>
<path d="M152.046 133.388C148.884 133.574 146.083 132.533 143.676 130.568C141.247 128.584 139.67 126.029 139.146 122.872C138.53 119.154 139.408 115.804 141.741 112.906C143.846 110.29 146.611 108.747 149.998 108.261C153.264 107.792 156.279 108.339 159.097 110.01C162.214 111.858 164.167 114.574 164.983 118.098C165.457 120.149 165.382 122.192 164.776 124.205C163.306 129.085 159.847 131.854 155.101 133.216C154.815 133.297 154.493 133.379 154.182 133.385C153.47 133.398 152.757 133.389 152.045 133.389L152.046 133.388ZM154.162 121.475C155.421 122.164 156.171 123.165 156.841 124.231C157.65 125.522 158.446 126.82 159.209 128.139C159.467 128.585 159.607 128.683 160.023 128.272C163.221 125.104 164.153 120.46 162.255 116.451C159.941 111.565 155.757 110.06 151.641 110.086C149.775 110.098 147.998 110.666 146.379 111.651C141.872 114.393 139.962 119.439 141.58 124.02C143.539 129.567 149.215 132.5 154.759 131.158C156.428 130.754 157.962 130.037 159.391 128.786C158.897 128.786 158.551 128.739 158.225 128.795C157.321 128.949 156.829 128.551 156.384 127.774C155.433 126.113 154.478 124.447 153.3 122.927C152.821 122.311 152.24 121.858 151.45 121.724C150.553 121.57 149.645 121.623 148.74 121.589C148.266 121.571 148.106 121.702 148.115 122.2C148.146 123.921 148.127 125.645 148.127 127.366C148.127 128.806 148.127 128.788 146.704 128.797C146.25 128.8 146.068 128.717 146.07 128.202C146.091 123.208 146.086 118.214 146.074 113.219C146.074 112.805 146.187 112.678 146.607 112.684C149.018 112.711 151.431 112.666 153.841 112.737C154.848 112.767 155.877 112.906 156.748 113.545C158.615 114.914 158.85 118.43 157.218 120.035C156.387 120.853 155.358 121.175 154.163 121.477L154.162 121.475ZM150.859 119.725C151.498 119.725 152.136 119.729 152.776 119.725C153.365 119.72 153.949 119.676 154.511 119.482C155.688 119.077 156.17 118.243 156.133 116.688C156.11 115.765 155.529 115.07 154.428 114.775C152.439 114.24 150.4 114.575 148.387 114.494C148.075 114.481 148.13 114.724 148.128 114.911C148.125 116.36 148.14 117.81 148.118 119.259C148.112 119.679 148.298 119.741 148.648 119.732C149.385 119.714 150.123 119.726 150.86 119.728L150.859 119.725Z" fill="white"/>
<path d="M79.877 94.5332C79.8933 94.5835 79.9095 94.6337 79.9273 94.684C79.8504 94.6781 79.7513 94.7343 79.7188 94.6189C79.7159 94.6071 79.8223 94.5628 79.877 94.5332Z" fill="white"/>
<path d="M171.955 2.18052C171.909 2.21749 171.862 2.25445 171.816 2.29141C171.778 2.148 171.821 2.1066 171.955 2.18052Z" fill="white"/>
</g>
<path d="M8.07003 190.053C9.2624 190.051 10.4401 189.786 11.521 189.275C12.584 188.799 13.5272 188.085 14.2799 187.187V187.187L12.2245 185.098C11.72 185.714 11.0935 186.215 10.3855 186.569C9.69106 186.91 8.92864 187.085 8.15706 187.08C7.50595 187.087 6.85992 186.963 6.25636 186.715C5.6528 186.467 5.10369 186.101 4.64081 185.636C4.1951 185.181 3.84294 184.641 3.6048 184.047C3.34948 183.416 3.22092 182.74 3.22665 182.059C3.21969 181.37 3.3446 180.687 3.59444 180.047C3.82764 179.452 4.17323 178.908 4.61181 178.448C5.05162 177.99 5.57766 177.627 6.15858 177.381C6.76395 177.12 7.41549 176.988 8.07314 176.992C8.86626 176.989 9.64916 177.173 10.3596 177.531C11.094 177.905 11.737 178.44 12.2421 179.098V179.098L14.3628 176.943C13.6172 176.024 12.6684 175.297 11.5935 174.821C10.4889 174.303 9.28691 174.034 8.07003 174.031C6.98313 174.024 5.90559 174.236 4.89982 174.654C3.94693 175.046 3.07689 175.619 2.33671 176.344C1.60612 177.068 1.02502 177.933 0.62728 178.888C0.214965 179.889 0.0017892 180.963 1.12144e-05 182.048C-0.00176677 183.132 0.207888 184.207 0.61692 185.209C1.00995 186.161 1.58738 187.022 2.31495 187.743C3.05549 188.467 3.92589 189.04 4.8791 189.432C5.89167 189.851 6.97633 190.063 8.07003 190.053V190.053ZM49.0725 190.076C50.1558 190.084 51.2297 189.873 52.2313 189.454C53.18 189.064 54.0432 188.487 54.7712 187.756C55.4991 187.026 56.0774 186.157 56.4728 185.199C56.8868 184.204 57.1001 183.134 57.1001 182.054C57.1001 180.974 56.8868 179.905 56.4728 178.91C56.0775 177.952 55.4992 177.083 54.7712 176.352C54.0433 175.622 53.1801 175.045 52.2313 174.655C50.2119 173.826 47.9538 173.826 45.9344 174.655C44.9857 175.045 44.1225 175.622 43.3945 176.352C42.6666 177.083 42.0883 177.952 41.693 178.91C41.2792 179.905 41.0661 180.974 41.0661 182.054C41.0661 183.134 41.2792 184.204 41.693 185.199C42.0883 186.157 42.6667 187.026 43.3946 187.756C44.1225 188.487 44.9857 189.064 45.9344 189.454C46.9296 189.871 47.9968 190.082 49.0736 190.075L49.0725 190.076ZM49.0725 187.121C48.4368 187.126 47.8067 187 47.2208 186.75C46.6348 186.5 46.1055 186.131 45.6651 185.665C45.2306 185.199 44.8891 184.652 44.6591 184.054C44.1684 182.763 44.1684 181.334 44.6591 180.043C44.891 179.45 45.2324 178.907 45.6651 178.443C46.1055 177.978 46.6348 177.609 47.2208 177.359C47.8067 177.109 48.4368 176.982 49.0725 176.988C49.7269 176.983 50.3752 177.115 50.9767 177.377C51.5511 177.624 52.0699 177.987 52.5017 178.443C52.9344 178.907 53.2758 179.45 53.5077 180.043C53.9982 181.334 53.9982 182.763 53.5077 184.054C53.2777 184.652 52.9362 185.199 52.5017 185.665C52.0699 186.122 51.5511 186.485 50.9767 186.732C50.3755 186.993 49.7275 187.125 49.0736 187.12L49.0725 187.121ZM96.6309 189.832V186.989H88.3428V174.276H85.2078V189.83L96.6309 189.832ZM136.185 189.832V186.989H127.897V174.276H124.76V189.83L136.185 189.832ZM176.041 189.832V187.033H167.451V183.343H173.056V180.631H167.451V177.079H175.955V174.279H164.312V189.833L176.041 189.832ZM210.834 190.054C212.027 190.052 213.204 189.787 214.285 189.276C215.348 188.8 216.291 188.086 217.044 187.188V187.188L214.988 185.1C214.483 185.716 213.857 186.217 213.149 186.571C212.454 186.913 211.692 187.087 210.92 187.082C210.269 187.089 209.623 186.965 209.02 186.717C208.417 186.469 207.868 186.103 207.405 185.638C206.959 185.183 206.607 184.643 206.369 184.049C206.114 183.418 205.985 182.742 205.99 182.061C205.983 181.372 206.108 180.689 206.359 180.049C206.591 179.454 206.936 178.91 207.375 178.45C207.815 177.992 208.341 177.629 208.922 177.383C209.527 177.122 210.179 176.99 210.836 176.994C211.632 176.991 212.418 177.177 213.13 177.537C213.865 177.911 214.508 178.447 215.013 179.104V179.104L217.133 176.949C216.388 176.03 215.439 175.303 214.364 174.827C213.26 174.309 212.058 174.04 210.842 174.038C209.755 174.03 208.677 174.242 207.671 174.66C206.718 175.052 205.848 175.625 205.107 176.349C204.376 177.073 203.795 177.938 203.397 178.893C202.985 179.894 202.771 180.968 202.77 182.053C202.768 183.138 202.977 184.212 203.386 185.215C203.78 186.166 204.357 187.028 205.084 187.748C205.825 188.472 206.695 189.045 207.649 189.437C208.66 189.854 209.743 190.064 210.834 190.053V190.054ZM252.335 189.832V177.12H257.419V174.275H244.09V177.12H249.197V189.83L252.335 189.832ZM288.275 189.832V174.278H285.138V189.832H288.275ZM324.41 190.077C325.493 190.085 326.567 189.874 327.569 189.455C328.517 189.065 329.381 188.488 330.108 187.757C330.836 187.027 331.415 186.158 331.81 185.2C332.224 184.205 332.437 183.135 332.437 182.055C332.437 180.975 332.224 179.906 331.81 178.911C331.415 177.953 330.836 177.084 330.109 176.353C329.381 175.623 328.517 175.046 327.569 174.656C325.55 173.827 323.292 173.827 321.273 174.656C320.325 175.047 319.462 175.624 318.734 176.354C318.006 177.084 317.428 177.953 317.032 178.911C316.618 179.906 316.405 180.975 316.405 182.055C316.405 183.136 316.618 184.205 317.032 185.2C317.428 186.158 318.006 187.026 318.734 187.757C319.462 188.487 320.325 189.064 321.273 189.455C322.267 189.872 323.334 190.082 324.41 190.075V190.077ZM324.41 187.122C323.759 187.128 323.114 186.995 322.517 186.733C321.947 186.485 321.431 186.122 321.002 185.666C320.567 185.2 320.225 184.653 319.995 184.055C319.505 182.765 319.505 181.335 319.995 180.044C320.227 179.45 320.569 178.907 321.002 178.444C321.431 177.989 321.947 177.626 322.517 177.378C323.114 177.115 323.759 176.983 324.41 176.989C325.064 176.984 325.712 177.116 326.313 177.378C326.888 177.625 327.407 177.988 327.839 178.444C328.272 178.908 328.613 179.451 328.845 180.044C329.336 181.335 329.336 182.765 328.845 184.055C328.615 184.653 328.273 185.2 327.839 185.666C327.407 186.123 326.888 186.486 326.313 186.733C325.712 186.994 325.064 187.126 324.41 187.12V187.122ZM363.508 189.833V179.429L371.233 189.833H374.002V174.279H371.06V184.345L363.53 174.279H360.543V189.833H363.508Z" fill="white"/>
<defs>
<clipPath id="clip0_969_1988">
<rect width="182" height="135.864" fill="white" transform="translate(0 0.496094)"/>
</clipPath>
</defs>
</svg>
