<svg width="605" height="295" viewBox="0 0 605 295" fill="none" xmlns="http://www.w3.org/2000/svg">
<path d="M2.28516 209.699H17.3038V214.098H7.40639V216.923H16.3658V220.998H7.40639V223.963H17.4332V228.362H2.28516V209.699Z" fill="white"/>
<path d="M21.9062 209.699H27.103V228.373H21.9062V209.699Z" fill="white"/>
<path d="M31.6211 219.091V219.037C31.6211 213.593 35.8906 209.334 41.6803 209.334C44.9579 209.334 47.2759 210.347 49.2597 212.051L46.2193 215.706C44.8824 214.585 43.5563 213.948 41.7126 213.948C39.0172 213.948 36.9364 216.213 36.9364 219.07V219.124C36.9364 222.142 39.0388 224.299 42.0037 224.299C43.2544 224.299 44.2139 224.029 44.9902 223.522V221.258H41.3137V217.463H49.9066V225.862C47.9336 227.49 45.1843 228.741 41.7989 228.741C35.9661 228.741 31.6211 224.741 31.6211 219.091Z" fill="white"/>
<path d="M54.5 209.699H59.6751V216.686H66.3166V209.699H71.4917V228.373H66.3166V221.279H59.6751V228.373H54.5V209.699Z" fill="white"/>
<path d="M81.0878 214.238H75.4922V209.699H91.8693V214.238H86.2737V228.373H81.0986V214.238H81.0878Z" fill="white"/>
<path d="M95.9668 209.699H101.163V228.373H95.9668V209.699Z" fill="white"/>
<path d="M106.315 209.699H111.146L118.822 219.564V209.699H123.943V228.373H119.404L111.426 218.13V228.373H106.305V209.699H106.315Z" fill="white"/>
<path d="M128.344 219.091V219.037C128.344 213.593 132.613 209.334 138.403 209.334C141.681 209.334 143.999 210.347 145.982 212.051L142.942 215.706C141.605 214.585 140.279 213.948 138.435 213.948C135.74 213.948 133.659 216.213 133.659 219.07V219.124C133.659 222.142 135.761 224.299 138.726 224.299C139.977 224.299 140.937 224.029 141.713 223.522V221.258H138.026V217.463H146.618V225.862C144.645 227.49 141.896 228.741 138.511 228.741C132.699 228.741 128.344 224.741 128.344 219.091Z" fill="white"/>
<path d="M159.707 219.091V219.037C159.707 213.593 163.89 209.334 169.551 209.334C173.367 209.334 175.815 210.93 177.475 213.226L173.583 216.245C172.516 214.908 171.286 214.056 169.507 214.056C166.898 214.056 165.055 216.267 165.055 218.994V219.048C165.055 221.851 166.898 224.04 169.507 224.04C171.459 224.04 172.602 223.134 173.723 221.776L177.615 224.547C175.858 226.973 173.486 228.762 169.346 228.762C164.009 228.741 159.707 224.665 159.707 219.091Z" fill="white"/>
<path d="M180.375 219.091V219.037C180.375 213.679 184.698 209.334 190.456 209.334C196.213 209.334 200.483 213.625 200.483 218.983V219.037C200.483 224.396 196.159 228.741 190.402 228.741C184.644 228.741 180.375 224.45 180.375 219.091ZM195.21 219.091V219.037C195.21 216.342 193.259 213.992 190.413 213.992C187.588 213.992 185.69 216.288 185.69 218.983V219.037C185.69 221.733 187.642 224.083 190.467 224.083C193.313 224.083 195.21 221.787 195.21 219.091Z" fill="white"/>
<path d="M203.609 223.168H208.892V228.365H203.609V223.168Z" fill="white"/>
<path d="M212.299 230.822C214.089 230.606 215.016 229.755 214.962 228.31H212.913V223.113H218.196V227.35C218.196 231.296 216.04 232.655 212.698 232.763L212.299 230.822Z" fill="white"/>
<path d="M222.734 209.699H227.91V223.834H236.955V228.373H222.745V209.699H222.734Z" fill="white"/>
<path d="M242.779 214.238H237.184V209.699H253.561V214.238H247.965V228.373H242.79V214.238H242.779Z" fill="white"/>
<path d="M257.561 209.699H264.763C271.426 209.699 275.296 213.537 275.296 218.928V218.982C275.296 224.373 271.372 228.373 264.655 228.373H257.561V209.699ZM264.838 223.78C267.932 223.78 269.981 222.076 269.981 219.058V219.004C269.981 216.017 267.932 214.281 264.838 214.281H262.736V223.78H264.838Z" fill="white"/>
<path d="M278.391 223.168H283.674V228.365H278.391V223.168Z" fill="white"/>
<path d="M195.071 87.8711H142.23V176.754H195.071V87.8711Z" fill="white"/>
<path d="M251.188 128.842C259.792 128.842 266.757 132.119 266.757 140.723V176.766H311.813V132.939C312.039 108.281 292.234 88.1092 267.576 87.8828C267.436 87.8828 267.307 87.8828 267.167 87.8828H205.723V176.766H251.188V128.842Z" fill="white"/>
<path d="M415.855 87.8711H362.605C337.948 87.8711 317.959 107.86 317.959 132.517C317.959 156.948 337.765 176.754 362.196 176.754C362.336 176.754 362.465 176.754 362.605 176.754H372.848C372.848 176.754 372.438 187.816 363.834 187.816H320.007V228.365H367.522C367.522 228.365 415.446 232.053 415.446 181.261L415.855 87.8711Z" fill="white"/>
<path d="M61.6591 187.717C45.7994 187.717 30.8886 181.539 19.6758 170.326C8.46298 159.113 2.28516 144.202 2.28516 128.343C2.28516 108.688 11.8484 90.5534 27.9776 79.4376C19.169 71.2868 14.1664 59.8799 14.1664 47.8262C14.1664 24.1499 33.3683 4.87251 57.023 4.75391V1.54102H68.5593C94.2517 1.54102 115.157 22.4464 115.157 48.1388C115.157 60.268 110.596 71.6102 102.262 80.3217C109.971 85.0332 116.462 91.5884 121.098 99.3619C126.24 107.966 128.957 117.831 128.957 127.901C128.957 142.79 123.157 156.784 112.634 167.307C102.111 177.83 88.1062 183.63 73.2169 183.63H72.6562V187.727H61.6591V187.717Z" fill="#F6AE13"/>
<path d="M68.562 3.08352C93.4458 3.08352 113.618 23.2558 113.618 48.1396C113.618 60.9157 108.303 72.4411 99.7637 80.6351C116.27 89.9288 127.418 107.611 127.418 127.891C127.418 157.82 103.149 182.089 73.2196 182.089H71.1172V186.186H61.6618C29.7161 186.186 3.81883 160.289 3.81883 128.343C3.81883 107.88 14.4494 89.8965 30.4924 79.6109C21.4466 71.9991 15.7001 60.5815 15.7001 47.8377C15.7001 24.9054 34.2982 6.3072 57.2306 6.3072H58.5567V3.08352H68.562ZM68.562 0H58.5567H55.4732V3.08352V3.25602C50.0716 3.46087 44.8318 4.62528 39.8615 6.72768C34.5462 8.97024 29.7808 12.1939 25.6838 16.2909C21.5868 20.3879 18.3739 25.1533 16.1206 30.4686C13.7918 35.9672 12.6166 41.8108 12.6166 47.8377C12.6166 59.6866 17.2958 70.9317 25.576 79.2659C18.5788 84.4194 12.7028 91.0609 8.45489 98.6511C3.40913 107.675 0.746094 117.939 0.746094 128.343C0.746094 136.57 2.35254 144.548 5.5331 152.063C8.60584 159.319 12.9939 165.831 18.5895 171.426C24.1852 177.022 30.6972 181.41 37.9532 184.483C45.4679 187.663 53.4463 189.27 61.6726 189.27H71.1172H74.2007V186.186V185.162C81.5861 185.044 88.7558 183.534 95.5158 180.666C102.341 177.777 108.464 173.647 113.726 168.397C118.987 163.135 123.117 157.012 125.995 150.187C128.982 143.125 130.502 135.621 130.502 127.891C130.502 117.54 127.709 107.395 122.427 98.554C117.974 91.104 111.871 84.7537 104.648 79.999C107.99 76.2255 110.696 71.9775 112.723 67.3307C115.365 61.2607 116.702 54.8026 116.702 48.1396C116.702 41.6383 115.429 35.3419 112.917 29.4013C110.491 23.6655 107.02 18.5227 102.599 14.1023C98.1789 9.68182 93.0361 6.21017 87.3003 3.78432C81.3597 1.27222 75.0632 0 68.562 0Z" fill="white"/>
<path d="M66.9658 81.5317C80.1408 81.5317 90.8361 68.7663 90.8361 55.5805C90.8361 42.9338 81.0034 32.5943 68.5722 31.7749V0.875H55.4727V41.9958V42.082C56.0333 42.0281 56.6155 41.9958 57.1977 41.9958C66.5884 41.9958 74.2002 49.6076 74.2002 58.9983C74.2002 66.2542 69.6504 72.4428 63.2462 74.8903C61.92 75.397 60.5292 75.6665 59.1168 75.7851C58.4807 75.839 57.8446 75.9145 57.2085 76.0008C57.1977 76.0008 57.1977 76.0008 57.1869 76.0008C57.1762 76.0008 57.1654 76.0008 57.1546 76.0115C40.6157 78.3835 27.9043 92.6151 27.9043 109.822C27.9043 128.367 42.6858 143.461 61.1006 143.978V187.945H74.1894V128.151C71.7959 128.906 69.2515 129.305 66.5992 129.262C53.7369 129.067 43.2572 118.555 43.0955 105.693C42.9338 92.3779 53.683 81.5317 66.9658 81.5317Z" fill="white"/>
<path d="M17.218 294.916C19.1308 294.913 21.0201 294.488 22.7542 293.669C24.4596 292.904 25.9726 291.759 27.1803 290.319V290.319L23.8828 286.967C23.0735 287.955 22.0683 288.759 20.9326 289.327C19.8185 289.874 18.5954 290.155 17.3576 290.147C16.313 290.158 15.2766 289.959 14.3083 289.561C13.3401 289.164 12.4591 288.575 11.7166 287.83C11.0015 287.1 10.4366 286.234 10.0545 285.281C9.64494 284.269 9.43869 283.185 9.44788 282.091C9.43673 280.987 9.63711 279.891 10.0379 278.864C10.412 277.909 10.9665 277.037 11.67 276.298C12.3756 275.564 13.2195 274.982 14.1515 274.586C15.1226 274.168 16.1679 273.956 17.2229 273.963C18.4953 273.958 19.7513 274.254 20.8911 274.828C22.0692 275.428 23.1008 276.286 23.911 277.341V277.341L27.3132 273.883C26.117 272.41 24.5949 271.244 22.8706 270.479C21.0985 269.649 19.1701 269.217 17.218 269.213C15.4743 269.201 13.7456 269.541 12.1321 270.211C10.6034 270.84 9.20764 271.761 8.02018 272.922C6.84812 274.085 5.91588 275.472 5.27781 277.004C4.61635 278.61 4.27435 280.333 4.2715 282.073C4.26865 283.814 4.60499 285.537 5.26119 287.145C5.89171 288.672 6.81807 290.054 7.98528 291.21C9.17329 292.372 10.5697 293.291 12.0988 293.92C13.7233 294.593 15.4634 294.931 17.218 294.916V294.916ZM82.9968 294.953C84.7346 294.966 86.4575 294.627 88.0644 293.955C89.5863 293.329 90.9711 292.403 92.1389 291.231C93.3067 290.06 94.2345 288.666 94.8688 287.129C95.533 285.532 95.8752 283.817 95.8752 282.084C95.8752 280.351 95.533 278.636 94.8688 277.04C94.2346 275.503 93.3068 274.108 92.139 272.937C90.9712 271.765 89.5864 270.839 88.0644 270.213C84.8247 268.883 81.2021 268.883 77.9624 270.213C76.4404 270.839 75.0556 271.765 73.8878 272.937C72.72 274.108 71.7922 275.503 71.158 277.04C70.4943 278.636 70.1524 280.351 70.1524 282.084C70.1524 283.817 70.4943 285.532 71.158 287.129C71.7923 288.666 72.7201 290.06 73.8879 291.231C75.0557 292.403 76.4405 293.329 77.9624 293.955C79.5589 294.624 81.2711 294.963 82.9984 294.952L82.9968 294.953ZM82.9968 290.212C81.9769 290.221 80.966 290.018 80.0261 289.617C79.0861 289.215 78.2368 288.623 77.5303 287.877C76.8334 287.129 76.2854 286.251 75.9165 285.293C75.1293 283.222 75.1293 280.928 75.9165 278.857C76.2885 277.905 76.8363 277.034 77.5303 276.291C78.2368 275.545 79.0861 274.953 80.0261 274.551C80.966 274.15 81.9769 273.947 82.9968 273.956C84.0466 273.948 85.0867 274.16 86.0516 274.58C86.9731 274.976 87.8054 275.558 88.4982 276.291C89.1922 277.034 89.7399 277.905 90.112 278.857C90.8988 280.928 90.8988 283.222 90.112 285.293C89.743 286.251 89.1951 287.129 88.4982 287.877C87.8054 288.61 86.9731 289.192 86.0516 289.588C85.087 290.007 84.0476 290.219 82.9984 290.211L82.9968 290.212ZM159.293 294.562V290H145.997V269.606H140.967V294.559L159.293 294.562ZM222.748 294.562V290H209.452V269.606H204.419V294.559L222.748 294.562ZM286.687 294.562V290.071H272.907V284.151H281.899V279.801H272.907V274.103H286.549V269.611H267.871V294.564L286.687 294.562ZM342.505 294.918C344.418 294.915 346.308 294.489 348.042 293.67C349.747 292.906 351.26 291.761 352.468 290.32V290.32L349.169 286.97C348.359 287.958 347.354 288.763 346.218 289.331C345.104 289.878 343.881 290.158 342.643 290.15C341.599 290.161 340.563 289.962 339.595 289.565C338.627 289.167 337.746 288.579 337.004 287.833C336.289 287.104 335.724 286.237 335.342 285.284C334.932 284.272 334.725 283.188 334.734 282.094C334.723 280.99 334.924 279.894 335.325 278.867C335.698 277.912 336.252 277.04 336.956 276.301C337.661 275.567 338.505 274.985 339.437 274.59C340.408 274.171 341.454 273.959 342.509 273.966C343.786 273.961 345.046 274.26 346.189 274.838C347.367 275.438 348.398 276.296 349.208 277.351V277.351L352.611 273.894C351.414 272.42 349.892 271.254 348.168 270.489C346.396 269.659 344.469 269.227 342.517 269.223C340.773 269.211 339.045 269.551 337.431 270.221C335.902 270.85 334.506 271.769 333.318 272.931C332.145 274.093 331.212 275.481 330.574 277.013C329.912 278.619 329.57 280.341 329.568 282.082C329.565 283.822 329.901 285.546 330.557 287.154C331.188 288.68 332.114 290.062 333.281 291.219C334.469 292.38 335.866 293.3 337.395 293.928C339.017 294.597 340.754 294.933 342.505 294.916V294.918ZM409.084 294.562V274.168H417.239V269.604H395.857V274.168H404.049V294.559L409.084 294.562ZM466.74 294.562V269.609H461.707V294.562H466.74ZM524.711 294.955C526.449 294.968 528.171 294.629 529.778 293.957C531.3 293.33 532.685 292.405 533.853 291.233C535.021 290.062 535.948 288.667 536.583 287.13C537.246 285.534 537.588 283.819 537.588 282.086C537.588 280.353 537.246 278.638 536.583 277.041C535.948 275.504 535.021 274.11 533.853 272.938C532.685 271.767 531.3 270.841 529.778 270.215C526.539 268.885 522.917 268.885 519.678 270.215C518.157 270.842 516.773 271.768 515.605 272.939C514.438 274.111 513.51 275.505 512.875 277.041C512.21 278.638 511.868 280.353 511.868 282.086C511.868 283.819 512.21 285.534 512.875 287.13C513.51 288.667 514.438 290.061 515.605 291.232C516.773 292.404 518.157 293.33 519.678 293.957C521.274 294.625 522.985 294.963 524.711 294.952V294.955ZM524.711 290.214C523.667 290.223 522.632 290.011 521.674 289.59C520.759 289.191 519.933 288.609 519.244 287.879C518.546 287.131 517.998 286.253 517.629 285.294C516.842 283.223 516.842 280.93 517.629 278.859C518.001 277.907 518.549 277.036 519.244 276.293C519.933 275.562 520.759 274.98 521.674 274.581C522.632 274.161 523.667 273.948 524.711 273.958C525.76 273.95 526.799 274.162 527.764 274.581C528.686 274.978 529.519 275.56 530.212 276.293C530.906 277.036 531.454 277.907 531.826 278.859C532.614 280.929 532.614 283.224 531.826 285.294C531.457 286.253 530.909 287.131 530.212 287.879C529.519 288.612 528.686 289.194 527.764 289.59C526.799 290.008 525.76 290.22 524.711 290.211V290.214ZM587.435 294.564V277.872L599.827 294.564H604.27V269.611H599.549V285.76L587.47 269.611H582.678V294.564H587.435Z" fill="white"/>
</svg>
