<svg width="601" height="294" viewBox="0 0 601 294" fill="none" xmlns="http://www.w3.org/2000/svg">
<path d="M13.7746 293.18C15.6875 293.177 17.5767 292.751 19.3109 291.932C21.0162 291.168 22.5293 290.023 23.7369 288.582V288.582L20.4394 285.23C19.6301 286.218 18.625 287.023 17.4893 287.591C16.3752 288.138 15.152 288.418 13.9142 288.41C12.8697 288.422 11.8333 288.223 10.865 287.825C9.89671 287.427 9.01579 286.839 8.27322 286.094C7.55817 285.364 6.99321 284.497 6.61117 283.544C6.20158 282.533 5.99533 281.448 6.00452 280.355C5.99337 279.25 6.19375 278.154 6.59455 277.128C6.96867 276.172 7.5231 275.301 8.22668 274.561C8.93226 273.828 9.77616 273.246 10.7081 272.85C11.6793 272.432 12.7245 272.22 13.7796 272.226C15.052 272.221 16.3079 272.518 17.4477 273.091C18.6258 273.691 19.6574 274.55 20.4677 275.605V275.605L23.8699 272.147C22.6737 270.674 21.1515 269.507 19.4272 268.743C17.6551 267.912 15.7268 267.48 13.7746 267.477C12.0309 267.465 10.3023 267.804 8.68873 268.475C7.16005 269.104 5.76428 270.024 4.57682 271.186C3.40476 272.349 2.47252 273.736 1.83445 275.268C1.17299 276.874 0.830995 278.596 0.828143 280.337C0.825291 282.077 1.16163 283.801 1.81783 285.409C2.44835 286.936 3.37471 288.318 4.54192 289.474C5.72993 290.635 7.12629 291.555 8.65549 292.183C10.2799 292.856 12.02 293.195 13.7746 293.18V293.18ZM79.5534 293.217C81.2913 293.23 83.0142 292.891 84.621 292.219C86.143 291.592 87.5277 290.667 88.6955 289.495C89.8633 288.324 90.7911 286.929 91.4254 285.392C92.0896 283.796 92.4318 282.081 92.4318 280.348C92.4318 278.615 92.0896 276.9 91.4254 275.303C90.7912 273.766 89.8635 272.372 88.6956 271.2C87.5278 270.029 86.143 269.103 84.621 268.477C81.3813 267.147 77.7587 267.147 74.5191 268.477C72.9971 269.103 71.6123 270.029 70.4444 271.2C69.2766 272.372 68.3489 273.766 67.7147 275.303C67.0509 276.9 66.709 278.615 66.709 280.348C66.709 282.081 67.0509 283.796 67.7147 285.392C68.349 286.929 69.2767 288.324 70.4445 289.495C71.6123 290.667 72.9971 291.592 74.5191 292.219C76.1155 292.888 77.8277 293.227 79.5551 293.215L79.5534 293.217ZM79.5534 288.476C78.5335 288.485 77.5227 288.282 76.5827 287.881C75.6427 287.479 74.7935 286.887 74.0869 286.141C73.39 285.393 72.8421 284.515 72.4731 283.556C71.686 281.485 71.686 279.192 72.4731 277.121C72.8452 276.169 73.3929 275.298 74.0869 274.555C74.7935 273.809 75.6427 273.217 76.5827 272.815C77.5227 272.414 78.5335 272.211 79.5534 272.22C80.6032 272.212 81.6433 272.424 82.6083 272.843C83.5297 273.24 84.3621 273.822 85.0548 274.555C85.7488 275.298 86.2966 276.169 86.6686 277.121C87.4554 279.192 87.4554 281.485 86.6686 283.556C86.2997 284.515 85.7517 285.393 85.0548 286.141C84.3621 286.874 83.5297 287.456 82.6083 287.852C81.6437 288.271 80.6042 288.483 79.5551 288.474L79.5534 288.476ZM155.85 292.826V288.264H142.553V267.87H137.524V292.822L155.85 292.826ZM219.305 292.826V288.264H206.009V267.87H200.976V292.822L219.305 292.826ZM283.244 292.826V288.334H269.464V282.415H278.456V278.065H269.464V272.366H283.106V267.875H264.428V292.828L283.244 292.826ZM339.062 293.182C340.975 293.179 342.864 292.753 344.598 291.934C346.304 291.17 347.816 290.024 349.024 288.584V288.584L345.725 285.234C344.916 286.222 343.911 287.026 342.775 287.594C341.661 288.142 340.438 288.422 339.2 288.414C338.156 288.425 337.12 288.226 336.152 287.828C335.184 287.431 334.303 286.842 333.561 286.097C332.845 285.368 332.281 284.501 331.899 283.548C331.489 282.536 331.282 281.452 331.29 280.358C331.279 279.253 331.48 278.157 331.882 277.131C332.255 276.176 332.809 275.304 333.512 274.565C334.218 273.831 335.062 273.249 335.994 272.854C336.965 272.435 338.01 272.223 339.065 272.23C340.342 272.225 341.602 272.524 342.745 273.101C343.923 273.701 344.955 274.56 345.765 275.615V275.615L349.167 272.157C347.971 270.684 346.449 269.517 344.725 268.753C342.953 267.923 341.025 267.491 339.074 267.487C337.33 267.475 335.601 267.814 333.988 268.485C332.459 269.113 331.062 270.033 329.874 271.194C328.702 272.357 327.769 273.744 327.13 275.276C326.469 276.882 326.127 278.605 326.124 280.345C326.121 282.086 326.458 283.809 327.114 285.418C327.744 286.944 328.671 288.326 329.838 289.483C331.026 290.644 332.422 291.563 333.951 292.192C335.574 292.861 337.311 293.197 339.062 293.18V293.182ZM405.64 292.826V272.432H413.796V267.868H392.414V272.432H400.606V292.822L405.64 292.826ZM463.297 292.826V267.873H458.264V292.826H463.297ZM521.267 293.219C523.005 293.232 524.728 292.892 526.335 292.221C527.857 291.594 529.242 290.668 530.409 289.497C531.577 288.325 532.505 286.931 533.139 285.394C533.803 283.797 534.145 282.082 534.145 280.349C534.145 278.617 533.803 276.902 533.139 275.305C532.505 273.768 531.577 272.374 530.41 271.202C529.242 270.03 527.857 269.105 526.335 268.478C523.096 267.149 519.474 267.149 516.235 268.478C514.713 269.106 513.329 270.032 512.162 271.203C510.994 272.375 510.067 273.769 509.432 275.305C508.767 276.901 508.425 278.617 508.425 280.349C508.425 282.082 508.767 283.798 509.432 285.394C510.067 286.93 510.994 288.324 512.162 289.496C513.329 290.667 514.713 291.593 516.235 292.221C517.83 292.889 519.541 293.227 521.267 293.215V293.219ZM521.267 288.478C520.223 288.487 519.189 288.274 518.231 287.854C517.316 287.455 516.489 286.873 515.801 286.143C515.103 285.395 514.554 284.517 514.185 283.558C513.398 281.487 513.398 279.193 514.185 277.122C514.557 276.17 515.106 275.299 515.801 274.556C516.489 273.826 517.316 273.244 518.231 272.845C519.189 272.424 520.223 272.212 521.267 272.221C522.317 272.213 523.356 272.426 524.32 272.845C525.242 273.241 526.075 273.824 526.769 274.556C527.463 275.3 528.01 276.171 528.383 277.122C529.17 279.193 529.17 281.487 528.383 283.558C528.014 284.517 527.466 285.394 526.769 286.143C526.075 286.875 525.242 287.458 524.32 287.854C523.356 288.272 522.316 288.483 521.267 288.474V288.478ZM583.991 292.828V276.136L596.383 292.828H600.826V267.875H596.106V284.023L584.026 267.875H579.235V292.828H583.991Z" fill="white"/>
<path d="M0.826172 208.24H15.9498V212.678H5.98171V215.529H15.0066V219.645H5.98171V222.624H16.0891V227.062H0.826172V208.24Z" fill="white"/>
<path d="M20.6016 208.24H25.8429V227.051H20.6016V208.24Z" fill="white"/>
<path d="M30.3887 217.693V217.639C30.3887 212.162 34.6867 207.854 40.5175 207.854C43.8188 207.854 46.1554 208.872 48.149 210.597L45.0836 214.274C43.7438 213.148 42.3933 212.505 40.539 212.505C37.8272 212.505 35.7264 214.788 35.7264 217.661V217.714C35.7264 220.748 37.8487 222.924 40.8284 222.924C42.0931 222.924 43.0578 222.656 43.8402 222.141V219.858H40.1424V216.042H48.7921V224.51C46.7985 226.15 44.0332 227.415 40.6247 227.415C34.7618 227.415 30.3887 223.384 30.3887 217.693Z" fill="white"/>
<path d="M53.4316 208.24H58.6408V215.282H65.329V208.24H70.5382V227.051H65.329V219.902H58.6408V227.051H53.4316V208.24Z" fill="white"/>
<path d="M80.2277 212.806H74.5898V208.24H91.0854V212.806H85.4476V227.051H80.2277V212.806Z" fill="white"/>
<path d="M95.2109 208.24H100.452V227.051H95.2109V208.24Z" fill="white"/>
<path d="M105.641 208.24H110.507L118.245 218.187V208.24H123.401V227.051H118.835L110.796 216.729V227.051H105.641V208.24Z" fill="white"/>
<path d="M127.84 217.693V217.639C127.84 212.162 132.138 207.854 137.969 207.854C141.27 207.854 143.607 208.872 145.6 210.597L142.535 214.274C141.195 213.148 139.844 212.505 137.99 212.505C135.278 212.505 133.178 214.788 133.178 217.661V217.714C133.178 220.748 135.3 222.924 138.28 222.924C139.544 222.924 140.509 222.656 141.291 222.141V219.858H137.583V216.042H146.233V224.51C144.239 226.15 141.474 227.415 138.065 227.415C132.213 227.415 127.84 223.384 127.84 217.693Z" fill="white"/>
<path d="M159.438 217.693V217.639C159.438 212.162 163.661 207.854 169.352 207.854C173.189 207.854 175.665 209.461 177.337 211.776L173.414 214.81C172.342 213.47 171.099 212.602 169.298 212.602C166.662 212.602 164.807 214.831 164.807 217.575V217.629C164.807 220.448 166.662 222.656 169.298 222.656C171.26 222.656 172.417 221.745 173.543 220.373L177.466 223.17C175.697 225.614 173.296 227.415 169.138 227.415C163.757 227.415 159.438 223.309 159.438 217.693Z" fill="white"/>
<path d="M180.262 217.693V217.639C180.262 212.237 184.613 207.854 190.423 207.854C196.232 207.854 200.53 212.184 200.53 217.575V217.629C200.53 223.031 196.179 227.415 190.369 227.415C184.56 227.415 180.262 223.095 180.262 217.693ZM195.192 217.693V217.639C195.192 214.928 193.231 212.559 190.358 212.559C187.507 212.559 185.599 214.874 185.599 217.586V217.639C185.599 220.351 187.561 222.72 190.412 222.72C193.285 222.72 195.192 220.405 195.192 217.693Z" fill="white"/>
<path d="M203.66 221.809H208.976V227.05H203.66V221.809Z" fill="white"/>
<path d="M212.418 229.515C214.219 229.301 215.162 228.443 215.108 226.985H213.04V221.744H218.356V226.021C218.356 229.997 216.18 231.369 212.825 231.476L212.418 229.515Z" fill="white"/>
<path d="M222.922 208.24H228.131V222.474H237.242V227.04H222.922V208.24Z" fill="white"/>
<path d="M243.126 212.806H237.488V208.24H253.984V212.806H248.346V227.051H243.137V212.806H243.126Z" fill="white"/>
<path d="M258.014 208.24H265.27C271.99 208.24 275.881 212.11 275.881 217.533V217.587C275.881 223.01 271.926 227.04 265.163 227.04H258.014V208.24ZM265.345 222.421C268.464 222.421 270.533 220.706 270.533 217.662V217.608C270.533 214.596 268.464 212.849 265.345 212.849H263.223V222.41H265.345V222.421Z" fill="white"/>
<path d="M279 221.809H284.316V227.05H279V221.809Z" fill="white"/>
<path d="M193.5 85.4941H140.262V175.046H193.5V85.4941Z" fill="white"/>
<path d="M250.039 126.76C258.71 126.76 265.72 130.061 265.72 138.732V175.046H311.112V130.887C311.337 106.041 291.39 85.7192 266.545 85.4941C266.406 85.4941 266.267 85.4941 266.127 85.4941H204.229V175.046H250.039V126.76Z" fill="white"/>
<path d="M415.939 85.4941H362.294C337.448 85.4941 317.309 105.634 317.309 130.479C317.309 155.099 337.266 175.046 361.876 175.046C362.015 175.046 362.154 175.046 362.294 175.046H372.615C372.615 175.046 372.197 186.193 363.537 186.193H319.377V227.052H367.246C367.246 227.052 415.532 230.771 415.532 179.591L415.939 85.4941Z" fill="white"/>
<path d="M58.5339 142.021C39.9697 141.507 25.0819 126.297 25.0819 107.604C25.0819 90.2728 37.8903 75.9316 54.5574 73.5307C54.5681 73.5307 54.5789 73.52 54.5896 73.52C54.6003 73.52 54.6003 73.52 54.611 73.52C55.2434 73.4343 55.8865 73.3592 56.5296 73.2949C57.9444 73.177 59.3592 72.8983 60.6883 72.3946C67.1408 69.9401 71.7175 63.702 71.7175 56.392C71.7175 46.9384 64.0539 39.264 54.5896 39.264C54.0001 39.264 53.4213 39.2962 52.8532 39.3498V39.264V3.35742C30.5697 4.2792 12.7772 22.6398 12.7772 45.1591C12.7772 58.0105 18.5758 69.5006 27.6864 77.175C11.5338 87.5289 0.826172 105.643 0.826172 126.265C0.826172 158.26 26.6146 184.23 58.5339 184.53V142.021Z" fill="white"/>
<path d="M97.4843 78.2035C106.08 69.9396 111.44 58.3209 111.44 45.4588C111.44 20.3885 91.1176 0.0664062 66.0473 0.0664062V28.9739C78.5771 29.7992 88.4809 40.2282 88.4809 52.9617C88.4809 66.2417 77.7197 79.1038 64.4396 79.1038C51.063 79.1038 40.2375 90.0259 40.3983 103.445C40.559 116.404 51.1166 126.994 64.0752 127.187C66.744 127.229 69.3164 126.833 71.7281 126.061V180.393C101.429 179.867 125.341 155.633 125.341 125.804C125.341 105.375 114.109 87.5606 97.4843 78.2035Z" fill="white"/>
</svg>
