<svg width="472" height="113" viewBox="0 0 472 113" fill="none" xmlns="http://www.w3.org/2000/svg">
<path d="M41.4047 35.8203C41.4047 29.1962 38.0931 25.0555 32.2962 25.0555C26.4993 25.0555 24.843 29.1962 24.843 34.164C24.843 39.1328 28.9837 43.2735 44.7173 50.7267C60.4508 58.1799 63.7643 68.1175 63.7643 80.5385C63.7643 92.9595 53.8267 112.833 31.4681 112.833C9.10946 112.833 0 98.7555 0 78.0522H19.8742C19.8742 86.3335 24.0149 90.4742 30.64 90.4742C37.2641 90.4742 39.7494 85.5064 39.7494 81.3657C39.7494 77.226 40.4138 75.0738 16.5626 63.1468C1.65626 55.6945 0.828132 39.1319 0.828132 34.1631C0.828132 29.1953 3.31253 13.4617 16.5626 6.0085C29.8109 -1.4447 48.8579 3.5241 56.3102 13.4617C63.7643 23.3983 61.279 35.8194 61.279 35.8194L41.4047 35.8203ZM218.371 3.5241H194.356V63.1468L155.436 2.69597H131.421V65.6321L90.8433 3.5241H66.0003L66.8293 112.833H94.1558V96.2721H118.171L128.107 112.006H158.747V59.0061L193.528 112.833H220.854V59.0061L255.635 112.006H287.931L218.371 3.5241ZM94.1558 74.7406V59.0061L104.921 74.7397L94.1558 74.7406ZM292.9 111.177L224.168 3.5241H362.46L330.164 54.8664C330.164 54.8664 321.883 49.8986 311.117 66.4603C300.352 83.0229 305.321 89.647 306.148 92.1314C302.838 97.9274 292.9 111.177 292.9 111.177Z" fill="white"/>
<path d="M458.754 52.1921C455.304 53.9864 450.196 52.8822 449.231 47.2243C461.237 39.219 464.412 34.6642 465.517 28.3162C466.62 21.9681 460.961 21.6911 455.165 25.2797C449.369 28.8683 441.503 38.1148 441.226 49.8457C437.5 55.2286 433.636 61.4396 427.564 61.1635C434.463 48.3275 435.844 42.1184 434.878 37.5637C433.913 33.0089 428.944 33.0089 417.627 49.9847C418.73 39.772 423.008 30.6635 423.837 28.1791C424.664 25.6947 424.802 23.6244 422.179 24.3145C419.559 25.0046 416.108 31.2146 411.554 42.5315C406.999 53.8484 399.684 63.9221 397.478 66.5455C395.269 69.1679 391.542 70.2711 391.818 63.37C392.095 56.4698 396.51 50.9499 397.478 47.9144C398.444 44.8779 396.787 39.7711 394.854 41.0133C392.922 42.2555 386.711 54.1244 383.675 59.3683C380.64 64.6131 376.913 69.443 375.533 70.8232C374.154 72.2025 371.391 71.7893 372.497 67.5116C373.601 63.2329 376.498 58.8172 377.879 56.6088C379.26 54.4005 382.158 49.8467 379.122 48.6045C376.085 47.3623 368.77 51.2269 366.287 68.0637C364.217 72.3414 361.594 75.1028 358.42 76.206C359.662 70.1331 361.18 55.2295 355.247 58.1271C356.213 54.8155 354.555 53.2972 351.381 53.8493C348.207 54.4014 335.096 61.8546 334.267 78.5524C331.369 83.6592 324.055 90.1463 320.19 90.1463C316.326 90.1463 314.118 86.6948 314.394 82.9701C314.67 79.2435 319.5 74.1367 321.846 73.0334C322.675 75.1038 324.054 74.9658 324.883 74.9658C325.711 74.9658 328.332 71.9293 329.298 67.2365C330.265 62.5438 329.713 60.1983 327.367 59.3693C325.022 58.5421 318.535 62.6808 314.67 68.2027C310.805 73.7226 304.18 84.4864 312.6 94.009C321.019 103.533 329.436 93.1818 335.509 81.865C337.165 88.074 341.858 90.6965 345.307 90.6965C348.758 90.6965 354.279 86.4178 356.486 81.4509C359.798 81.588 364.49 77.3093 366.561 73.3076C366.423 77.7233 371.943 81.864 375.257 81.1748C378.569 80.4828 382.847 72.2025 385.47 66.5455C385.47 73.8606 385.055 79.3806 390.3 79.2425C395.544 79.1036 403.687 64.1991 412.657 47.7754C408.517 67.7867 405.481 74.8258 404.79 80.6218C404.1 86.4178 405.342 94.9752 407.825 94.9752C410.31 94.9752 412.519 82.6921 413.208 71.7893C418.452 70.2711 419.557 69.858 420.523 69.858C421.491 69.858 425.077 71.3772 430.458 67.5116C435.842 63.647 439.015 58.6791 442.88 53.5723C445.779 60.6115 450.746 63.0949 458.889 58.5411C467.031 53.9864 471.31 41.2893 472 38.1157C467.312 45.568 462.203 50.3978 458.754 52.1921V52.1921ZM351.383 77.4482C351.108 82.8302 347.38 84.3484 345.725 84.3484C344.07 84.3484 341.033 84.0733 341.033 78.8275C341.033 73.5846 345.725 67.3736 350.693 62.5428C352.625 60.7495 350.554 65.4413 350.003 70.6852C349.45 75.931 350.278 78.1384 351.383 77.4482ZM416.662 62.1297C418.18 54.1254 424.113 45.2929 427.012 45.2929C429.909 45.2929 426.183 54.4014 424.528 57.7139C422.872 61.0255 420.111 61.3025 416.662 62.1297ZM457.65 28.8692C460.272 26.6609 461.376 29.8354 458.754 33.562C456.133 37.2876 450.334 42.6705 448.817 43.2226C449.508 35.9083 455.027 31.0776 457.65 28.8692Z" fill="white"/>
<path d="M448.681 21.6921C448.819 18.2416 450.612 13.5498 453.788 9.82415C456.962 6.09661 462.481 0.30063 464.552 0.0245864C466.623 -0.251458 467.589 1.81887 467.589 5.1314C467.589 8.44298 467.589 9.54716 465.242 11.3414C462.895 13.1357 455.167 18.6557 453.926 19.8979C452.683 21.1401 448.543 25.4178 448.681 21.6921V21.6921Z" fill="white"/>
</svg>
