<svg width="120" height="81" viewBox="0 0 120 81" fill="none" xmlns="http://www.w3.org/2000/svg">
<path d="M41.524 23.8623C42.1774 23.8623 42.7071 23.4133 42.7071 22.8594V19.5291H46.0374C46.5913 19.5291 47.0403 18.9994 47.0403 18.346V16.3789C47.0403 15.7255 46.5913 15.1958 46.0374 15.1958H42.7071V11.8652C42.7071 11.3113 42.1774 10.8623 41.524 10.8623H39.5569C38.9035 10.8623 38.3738 11.3113 38.3738 11.8652V15.1958H35.0431C34.4893 15.1958 34.0403 15.7255 34.0403 16.3789V18.346C34.0403 18.9994 34.4893 19.5291 35.0431 19.5291H38.3738V22.8594C38.3738 23.4133 38.9035 23.8623 39.5569 23.8623H41.524Z" fill="white"/>
<path fill-rule="evenodd" clip-rule="evenodd" d="M72.5403 23.8623C74.4733 23.8623 76.0403 22.2953 76.0403 20.3623C76.0403 18.4293 74.4733 16.8623 72.5403 16.8623C70.6073 16.8623 69.0403 18.4293 69.0403 20.3623C69.0403 22.2953 70.6073 23.8623 72.5403 23.8623Z" fill="white"/>
<path fill-rule="evenodd" clip-rule="evenodd" d="M81.5403 23.8623C83.4733 23.8623 85.0403 22.2953 85.0403 20.3623C85.0403 18.4293 83.4733 16.8623 81.5403 16.8623C79.6073 16.8623 78.0403 18.4293 78.0403 20.3623C78.0403 22.2953 79.6073 23.8623 81.5403 23.8623Z" fill="white"/>
<path fill-rule="evenodd" clip-rule="evenodd" d="M32.5168 2.5C31.1361 2.5 30.0168 3.61929 30.0168 5V25.25C30.0168 26.6307 31.1361 27.75 32.5168 27.75H87.4832C88.8639 27.75 89.9832 26.6307 89.9832 25.25V5C89.9832 3.61929 88.8639 2.5 87.4832 2.5H32.5168ZM32.5168 0.5C30.0316 0.5 28.0168 2.51472 28.0168 5V25.25C28.0168 27.7353 30.0316 29.75 32.5168 29.75H87.4832C89.9684 29.75 91.9832 27.7353 91.9832 25.25V5C91.9832 2.51472 89.9684 0.5 87.4832 0.5H32.5168Z" fill="white"/>
</svg>
