<svg width="531" height="207" viewBox="0 0 531 207" fill="none" xmlns="http://www.w3.org/2000/svg">
<path d="M201.968 87.2373H181.496V85.4176H187.638V57.8941H182.406V56.0744H187.508C188.528 56.0744 189.801 56.0179 191.33 55.9033C192.859 55.7887 194.471 55.6194 196.169 55.392L196.207 85.4176H201.968V87.2373ZM186.728 40.0571C186.728 38.7814 187.159 37.7005 188.025 36.8161C188.89 35.9317 189.967 35.4896 191.257 35.4896C192.522 35.4896 193.599 35.9317 194.489 36.8161C195.379 37.7005 195.825 38.7814 195.825 40.0571C195.825 41.3327 195.379 42.4082 194.489 43.2798C194.066 43.7043 193.562 44.039 193.007 44.2638C192.451 44.4886 191.856 44.599 191.257 44.5882C189.967 44.5882 188.888 44.1533 188.025 43.2798C187.159 42.4082 186.728 41.3327 186.728 40.0571ZM223.796 87.2373H204.801V85.4176H210.261V57.8941H204.801V56.0744H209.946C210.963 56.0744 212.228 56.0179 213.742 55.9033C215.364 55.7779 216.982 55.6074 218.595 55.392V62.5435H219.334C220.848 60.0814 222.518 58.2744 224.345 57.1225C226.172 55.9707 228.272 55.3938 230.649 55.3938C233.91 55.3938 236.37 56.1672 238.028 57.7103C239.684 59.2553 240.514 61.5572 240.514 64.6216V85.4194H245.518V87.2391H227.093V85.4194H231.87V63.1331C231.87 61.2006 231.59 59.9031 231.029 59.2352C230.469 58.571 229.475 58.2362 228.043 58.2362C225.727 58.2362 223.607 59.4846 221.679 61.9776C219.752 64.4724 218.79 67.2857 218.79 70.4193V85.4194H223.794L223.796 87.2373ZM278.126 77.2288H280.084C279.141 80.8792 277.465 83.6488 275.049 85.5395C272.634 87.4284 269.546 88.3746 265.784 88.3746C261.424 88.3746 257.805 86.857 254.933 83.8217C252.062 80.7863 250.626 77.0158 250.626 72.5084C250.626 67.6115 252.191 63.5335 255.326 60.2761C258.46 57.0206 262.429 55.3901 267.235 55.3901C270.761 55.3901 273.58 56.1599 275.695 57.6976C277.809 59.2352 278.868 61.2934 278.868 63.8701C278.868 65.1476 278.49 66.1775 277.733 66.9582C276.976 67.7389 275.957 68.1301 274.677 68.1301C273.345 68.1301 272.281 67.7461 271.484 66.9764C270.687 66.2066 270.29 65.1949 270.29 63.9429C270.29 62.7947 270.634 61.7792 271.327 60.8894C272.019 60.0032 272.364 59.5191 272.364 59.4409C272.364 58.7366 271.94 58.1889 271.092 57.7995C270.243 57.4082 269.062 57.2117 267.548 57.2117C264.884 57.2117 262.953 58.0269 261.75 59.6592C260.547 61.2915 259.95 63.9192 259.95 67.5441V79.2195C259.95 81.5888 260.563 83.3849 261.792 84.6078C263.018 85.8306 264.833 86.4421 267.235 86.4421C269.689 86.4421 271.948 85.565 274.011 83.8089C276.042 82.1036 277.482 79.8007 278.126 77.2288ZM285.252 87.2373V85.4176H290.711V57.8941H285.252V56.0744H290.396C291.392 56.0744 292.654 56.0179 294.189 55.9033C295.811 55.7797 297.43 55.6092 299.044 55.392L299.084 63.1841H299.711C301.036 60.5727 302.594 58.622 304.384 57.33C306.175 56.038 308.213 55.392 310.497 55.392C312.262 55.392 313.669 55.856 314.721 56.7822C315.772 57.7103 316.298 58.955 316.298 60.5218C316.298 61.8538 315.927 62.9238 315.188 63.7336C314.449 64.5434 313.469 64.9474 312.249 64.9474C310.768 64.9474 309.651 64.6344 308.897 64.0084C308.144 63.3824 307.769 62.4543 307.769 61.2297V60.5236C307.769 59.9759 307.704 59.5719 307.574 59.3099C307.445 59.0496 307.251 58.9186 306.992 58.9186C305.147 58.9186 303.393 60.1251 301.731 62.5362C300.07 64.9474 299.24 67.586 299.24 70.4557V85.4194H306.292V87.2391L285.252 87.2373ZM348.662 77.2288H350.586C349.594 80.9064 347.874 83.6834 345.423 85.5595C342.972 87.4338 339.846 88.3746 336.041 88.3746C331.662 88.3746 328.005 86.857 325.073 83.8217C322.141 80.7863 320.675 77.0686 320.675 72.6649C320.675 67.95 322.172 63.8938 325.171 60.4927C328.168 57.0934 331.793 55.392 336.042 55.392C340.211 55.392 343.678 56.684 346.442 59.2643C349.206 61.8465 350.587 65.093 350.587 69.0054V69.7242H330.115V79.2214C330.115 81.4069 330.754 83.1575 332.03 84.4731C333.305 85.7888 335.011 86.4439 337.145 86.4439C339.827 86.4439 342.209 85.6123 344.293 83.9454C346.371 82.2767 347.829 80.0403 348.662 77.2288ZM341.6 67.4477V63.164C341.6 61.166 341.132 59.6938 340.197 58.7457C339.261 57.7977 337.82 57.3245 335.875 57.3245C333.951 57.3245 332.51 57.8122 331.551 58.7858C330.592 59.7593 330.112 61.2187 330.112 63.164V67.4477H341.6ZM390.558 85.4176H395.677V87.2373H390.558C389.57 87.2373 388.323 87.301 386.818 87.4338C385.312 87.563 383.716 87.7323 382.027 87.9415V83.5814H380.893C379.663 85.1919 378.266 86.3929 376.697 87.1845C375.128 87.9779 373.349 88.3728 371.362 88.3728C367.309 88.3728 363.884 86.7969 361.087 83.6433C358.29 80.4897 356.891 76.57 356.891 71.8806C356.891 67.1402 358.314 63.2059 361.166 60.0796C364.015 56.9533 367.573 55.3901 371.833 55.3901C373.742 55.3901 375.421 55.7705 376.874 56.5293C378.324 57.29 379.718 58.5201 381.05 60.2197H382.027V35.4859H376.908V33.6662H381.949C382.962 33.6662 384.227 33.5934 385.747 33.446C387.354 33.2873 388.958 33.0956 390.558 32.8709V85.4176ZM381.949 75.8075V67.3312C381.949 64.7545 380.964 62.4034 378.999 60.2816C377.032 58.1598 374.866 57.0971 372.508 57.0971C370.253 57.0971 368.661 57.774 367.729 59.1279C366.798 60.4818 366.332 63.0094 366.332 66.7052V77.8784C366.332 80.9283 366.776 83.1356 367.667 84.5041C368.559 85.8725 369.988 86.5549 371.955 86.5549C374.683 86.5549 377.03 85.5449 378.997 83.5269C380.962 81.5088 381.947 78.9884 381.947 75.9659L381.949 75.8075ZM419.548 87.2373H399.076V85.4176H405.218V57.8941H399.986V56.0744H405.088C406.108 56.0744 407.381 56.0179 408.91 55.9033C410.438 55.7887 412.051 55.6194 413.749 55.392L413.787 85.4176H419.548V87.2373ZM404.308 40.0571C404.308 38.7814 404.739 37.7005 405.605 36.8161C406.47 35.9317 407.547 35.4896 408.837 35.4896C410.102 35.4896 411.179 35.9317 412.069 36.8161C412.959 37.7005 413.405 38.7814 413.405 40.0571C413.405 41.3327 412.959 42.4082 412.069 43.2798C411.646 43.7043 411.142 44.039 410.587 44.2638C410.031 44.4886 409.436 44.599 408.837 44.5882C407.547 44.5882 406.468 44.1533 405.605 43.2798C404.741 42.4082 404.308 41.3327 404.308 40.0571ZM436.341 87.8633L431.193 87.392H430.998C428.963 87.2823 426.926 87.2302 424.889 87.2355C424.627 87.2355 424.223 87.2482 423.675 87.2737C423.126 87.2992 422.696 87.3119 422.383 87.3119V85.4139H427.842V35.4841H422.383V33.6644H427.528C428.541 33.6644 429.808 33.5916 431.329 33.4442C432.938 33.2857 434.543 33.094 436.144 32.8691V60.2179H437.287C438.648 58.491 440.042 57.2535 441.467 56.5075C442.892 55.7614 444.56 55.3883 446.473 55.3883C450.738 55.3883 454.31 56.9515 457.189 60.0778C460.068 63.2059 461.507 67.1383 461.507 71.8787C461.507 76.5427 460.094 80.457 457.268 83.6215C454.441 86.7878 451 88.3692 446.944 88.3692C444.955 88.3692 443.19 87.9725 441.645 87.1809C440.1 86.3893 438.701 85.1865 437.445 83.5778H436.342L436.341 87.8633ZM436.341 75.8075C436.341 78.8574 437.338 81.4087 439.336 83.4668C441.334 85.5249 443.698 86.5531 446.431 86.5531C448.294 86.5531 449.701 85.8962 450.645 84.5787C451.592 83.263 452.065 81.2777 452.065 78.619V66.7052C452.065 63.0094 451.59 60.4818 450.645 59.1279C449.701 57.774 448.098 57.0971 445.838 57.0971C443.499 57.0971 441.33 58.1598 439.334 60.2816C437.338 62.4034 436.339 64.7545 436.339 67.3312V75.8075H436.341ZM472.187 35.4877H466.046V33.668H472.031C473.048 33.668 474.327 33.5952 475.865 33.4478C477.486 33.29 479.104 33.0983 480.717 32.8728V85.4176H486.518V87.2373H466.046V85.4176H472.187V35.4877ZM518.023 77.2288H519.946C518.955 80.9064 517.235 83.6834 514.784 85.5595C512.333 87.4338 509.206 88.3746 505.401 88.3746C501.023 88.3746 497.365 86.857 494.434 83.8217C491.502 80.7863 490.035 77.0686 490.035 72.6649C490.035 67.95 491.533 63.8938 494.532 60.4927C497.529 57.0934 501.154 55.392 505.403 55.392C509.572 55.392 513.039 56.684 515.803 59.2643C518.567 61.8465 519.948 65.093 519.948 69.0054V69.7242H499.476V79.2214C499.476 81.4069 500.115 83.1575 501.391 84.4731C502.666 85.7888 504.371 86.4439 506.506 86.4439C509.188 86.4439 511.57 85.6123 513.654 83.9454C515.732 82.2767 517.189 80.0403 518.023 77.2288ZM510.961 67.4477V63.164C510.961 61.166 510.493 59.6938 509.558 58.7457C508.622 57.7977 507.181 57.3245 505.236 57.3245C503.312 57.3245 501.871 57.8122 500.912 58.7858C499.953 59.7593 499.473 61.2187 499.473 63.164V67.4477H510.961ZM258.604 125.377V103.824H250.528V100.924H269.919V103.824H261.843V125.377H258.604ZM273.427 125.377V100.924H291.113V103.824H276.668V111.274H290.203V114.175H276.668V122.478H291.681V125.379H273.427V125.377ZM313.601 116.79L316.842 117.603C316.162 120.26 314.939 122.285 313.172 123.681C311.405 125.077 309.245 125.774 306.694 125.774C304.051 125.774 301.904 125.237 300.248 124.165C298.592 123.093 297.333 121.543 296.47 119.51C295.599 117.439 295.159 115.212 295.175 112.965C295.175 110.422 295.662 108.204 296.64 106.312C297.615 104.419 299.004 102.98 300.807 101.997C302.61 101.015 304.592 100.523 306.756 100.523C309.21 100.523 311.272 101.146 312.946 102.39C314.619 103.637 315.785 105.387 316.444 107.646L313.259 108.393C312.69 106.621 311.864 105.331 310.783 104.523C309.702 103.715 308.339 103.309 306.699 103.309C304.814 103.309 303.238 103.757 301.972 104.654C300.714 105.538 299.778 106.806 299.302 108.268C298.79 109.774 298.53 111.355 298.532 112.946C298.532 115.019 298.836 116.826 299.442 118.371C300.048 119.916 300.992 121.072 302.274 121.836C303.555 122.6 304.941 122.982 306.435 122.982C308.25 122.982 309.787 122.462 311.047 121.421C312.304 120.384 313.156 118.839 313.601 116.79ZM320.977 125.377V100.924H324.218V110.932H336.899V100.924H340.14V125.377H336.899V113.833H324.218V125.377H320.977ZM345.525 125.377V100.924H348.87L361.732 120.118V100.924H364.86V125.377H361.515L348.653 106.181V125.377H345.525ZM369.22 113.474C369.22 109.423 370.313 106.253 372.503 103.962C374.692 101.671 377.518 100.525 380.979 100.525C383.246 100.525 385.29 101.062 387.11 102.139C388.911 103.196 390.36 104.762 391.273 106.641C392.227 108.568 392.705 110.75 392.705 113.192C392.705 115.665 392.203 117.88 391.197 119.832C390.19 121.785 388.767 123.264 386.924 124.269C385.097 125.269 383.045 125.788 380.962 125.776C378.65 125.776 376.584 125.221 374.764 124.111C372.971 123.033 371.532 121.453 370.626 119.567C369.694 117.672 369.212 115.586 369.22 113.474ZM372.575 113.514C372.575 116.451 373.371 118.764 374.961 120.453C376.551 122.142 378.548 122.988 380.946 122.988C383.392 122.988 385.403 122.132 386.982 120.427C388.56 118.72 389.351 116.3 389.351 113.167C389.351 111.183 389.013 109.453 388.338 107.973C387.663 106.494 386.675 105.349 385.374 104.534C384.072 103.719 382.613 103.313 380.997 103.313C378.697 103.313 376.717 104.097 375.061 105.664C373.403 107.231 372.575 109.847 372.575 113.514ZM396.754 125.375V100.922H399.995V122.475H412.107V125.375H396.754ZM414.88 113.474C414.88 109.423 415.974 106.253 418.163 103.961C420.352 101.67 423.178 100.523 426.64 100.523C428.907 100.523 430.951 101.062 432.77 102.139C434.572 103.196 436.021 104.762 436.934 106.641C437.887 108.568 438.366 110.75 438.366 113.192C438.366 115.665 437.864 117.88 436.857 119.832C435.851 121.785 434.428 123.264 432.585 124.269C430.758 125.269 428.706 125.787 426.623 125.774C424.31 125.774 422.245 125.219 420.425 124.111C418.632 123.032 417.193 121.453 416.287 119.567C415.356 117.671 414.874 115.586 414.88 113.474ZM418.236 113.514C418.236 116.449 419.031 118.764 420.622 120.453C422.212 122.143 424.208 122.988 426.607 122.988C429.053 122.988 431.063 122.134 432.643 120.429C434.221 118.722 435.012 116.302 435.012 113.168C435.012 111.185 434.674 109.454 433.999 107.975C433.323 106.496 432.335 105.351 431.034 104.536C429.733 103.72 428.274 103.313 426.658 103.313C424.358 103.313 422.378 104.099 420.722 105.666C419.064 107.231 418.236 109.847 418.236 113.514ZM454.016 115.822V112.921H464.366V121.967C462.774 123.23 461.134 124.181 459.442 124.817C457.779 125.449 456.015 125.773 454.236 125.772C451.832 125.772 449.648 125.259 447.683 124.231C445.767 123.253 444.21 121.694 443.236 119.776C442.233 117.834 441.734 115.663 441.734 113.265C441.717 110.962 442.228 108.687 443.226 106.612C444.222 104.552 445.654 103.022 447.523 102.024C449.39 101.025 451.543 100.525 453.979 100.525C455.748 100.525 457.348 100.813 458.778 101.386C460.206 101.959 461.325 102.76 462.139 103.782C462.951 104.807 463.569 106.144 463.993 107.791L461.011 108.592C460.645 107.347 460.19 106.37 459.648 105.66C459.105 104.951 458.33 104.381 457.326 103.953C456.262 103.515 455.122 103.297 453.972 103.311C452.498 103.311 451.226 103.537 450.152 103.986C449.079 104.436 448.213 105.027 447.554 105.76C446.908 106.471 446.389 107.287 446.018 108.173C445.388 109.733 445.072 111.402 445.088 113.085C445.088 115.259 445.461 117.079 446.207 118.546C446.906 119.963 448.053 121.11 449.47 121.809C450.882 122.516 452.44 122.88 454.019 122.873C455.413 122.873 456.774 122.607 458.103 122.071C459.429 121.534 460.437 120.962 461.124 120.353V115.823H454.016V115.822ZM469.722 125.375V100.922H472.963V125.375H469.722ZM478.831 125.375V100.922H496.517V103.822H482.072V111.272H495.607V114.173H482.072V122.476H497.085V125.377H478.831V125.375ZM500.468 117.527L503.54 117.243C503.683 118.466 504.02 119.468 504.546 120.249C505.072 121.033 505.889 121.665 506.999 122.149C508.109 122.633 509.354 122.871 510.74 122.871C511.97 122.871 513.055 122.687 513.998 122.322C514.94 121.956 515.641 121.452 516.101 120.815C516.562 120.178 516.791 119.483 516.791 118.73C516.791 117.967 516.565 117.301 516.114 116.732C515.663 116.162 514.928 115.685 513.907 115.298C513.253 115.043 511.805 114.648 509.565 114.111C507.325 113.574 505.752 113.067 504.852 112.586C503.682 111.975 502.812 111.216 502.239 110.31C501.664 109.399 501.365 108.341 501.378 107.263C501.378 106.028 501.727 104.874 502.43 103.802C503.13 102.729 504.153 101.913 505.5 101.357C506.846 100.8 508.342 100.521 509.987 100.521C511.799 100.521 513.399 100.814 514.784 101.4C516.169 101.986 517.233 102.849 517.977 103.988C518.722 105.127 519.124 106.417 519.178 107.857L516.05 108.084C515.883 106.546 515.322 105.385 514.362 104.599C513.401 103.813 511.985 103.422 510.113 103.422C508.16 103.422 506.739 103.779 505.845 104.494C504.952 105.209 504.506 106.068 504.506 107.076C504.506 107.951 504.823 108.672 505.454 109.236C506.075 109.802 507.694 110.381 510.318 110.972C512.942 111.563 514.746 112.082 515.728 112.526C517.157 113.179 518.212 114.007 518.895 115.01C519.575 116.015 519.917 117.17 519.917 118.475C519.917 119.772 519.546 120.995 518.802 122.142C518.057 123.288 516.987 124.18 515.594 124.818C514.198 125.455 512.629 125.772 510.884 125.772C508.673 125.772 506.822 125.45 505.327 124.809C503.833 124.165 502.659 123.199 501.809 121.907C500.961 120.617 500.513 119.157 500.468 117.527ZM526.046 101.166C526.774 101.166 527.484 101.353 528.179 101.726C528.872 102.099 529.413 102.632 529.8 103.326C530.186 104.021 530.379 104.743 530.379 105.497C530.379 106.243 530.19 106.961 529.809 107.649C529.427 108.339 528.892 108.872 528.204 109.254C527.546 109.627 526.803 109.823 526.046 109.824C525.295 109.824 524.576 109.635 523.888 109.254C523.21 108.884 522.652 108.327 522.281 107.649C521.906 106.994 521.708 106.253 521.706 105.498C521.706 104.745 521.901 104.019 522.29 103.327C522.664 102.647 523.228 102.09 523.913 101.726C524.566 101.363 525.299 101.17 526.046 101.166ZM526.046 101.877C525.435 101.877 524.841 102.034 524.265 102.347C523.693 102.652 523.223 103.117 522.909 103.684C522.589 104.235 522.42 104.861 522.418 105.498C522.418 106.122 522.578 106.721 522.9 107.293C523.22 107.866 523.67 108.313 524.245 108.632C524.82 108.95 525.42 109.112 526.046 109.112C526.672 109.112 527.273 108.952 527.848 108.632C528.423 108.312 528.872 107.866 529.189 107.293C529.509 106.721 529.667 106.121 529.667 105.497C529.667 104.869 529.505 104.265 529.18 103.684C528.868 103.115 528.397 102.65 527.824 102.345C527.28 102.041 526.669 101.881 526.046 101.877ZM524.137 107.889V103.225H525.748C526.297 103.225 526.696 103.267 526.941 103.353C527.187 103.44 527.384 103.589 527.529 103.804C527.693 104.041 527.768 104.329 527.74 104.616C527.713 104.903 527.585 105.171 527.38 105.373C527.12 105.632 526.772 105.783 526.405 105.797C526.551 105.854 526.686 105.938 526.801 106.044C526.991 106.23 527.22 106.537 527.493 106.972L528.062 107.888H527.142L526.723 107.151C526.392 106.577 526.132 106.213 525.939 106.064C525.761 105.943 525.549 105.884 525.335 105.897H524.892V107.888L524.137 107.889ZM524.891 105.26H525.819C526.261 105.26 526.563 105.194 526.725 105.065C526.803 105.004 526.866 104.926 526.908 104.836C526.95 104.746 526.97 104.648 526.967 104.548C526.969 104.416 526.929 104.286 526.852 104.177C526.77 104.066 526.658 103.981 526.528 103.933C526.39 103.881 526.133 103.853 525.76 103.853H524.891V105.26Z" fill="white"/>
<path d="M73.1951 123.2H77.4705L81.7408 123.2C79.917 121.663 78.2674 119.769 77.471 117.663C77.1436 116.814 76.9608 115.926 76.9608 115.008L76.9452 80.4727H73.1951V123.2Z" fill="white"/>
<path d="M107.774 122.732H108.412C108.717 122.732 108.924 122.687 109.036 122.598C109.09 122.556 109.133 122.502 109.162 122.44C109.191 122.379 109.205 122.311 109.202 122.243C109.203 122.151 109.176 122.062 109.123 121.987C109.067 121.911 108.99 121.853 108.901 121.82C108.805 121.783 108.629 121.765 108.372 121.765H107.774V122.732Z" fill="white"/>
<path fill-rule="evenodd" clip-rule="evenodd" d="M107.344 120.728C107.74 120.513 108.148 120.405 108.569 120.405C108.997 120.408 109.418 120.518 109.792 120.727C110.185 120.937 110.509 121.257 110.724 121.648C110.948 122.047 111.059 122.463 111.059 122.895C111.059 123.324 110.951 123.737 110.73 124.13C110.513 124.524 110.203 124.831 109.808 125.051C109.412 125.271 108.999 125.381 108.569 125.381C108.138 125.381 107.725 125.27 107.33 125.051C106.934 124.832 106.625 124.524 106.405 124.13C106.183 123.737 106.073 123.325 106.073 122.896C106.075 122.458 106.191 122.027 106.411 121.648C106.627 121.258 106.951 120.939 107.344 120.728ZM107.256 124.54V121.333H108.364C108.742 121.333 109.016 121.362 109.185 121.42C109.354 121.48 109.489 121.583 109.589 121.731C109.701 121.894 109.753 122.092 109.734 122.289C109.715 122.486 109.628 122.671 109.486 122.81C109.307 122.988 109.068 123.092 108.815 123.101C108.916 123.14 109.009 123.198 109.088 123.271C109.218 123.399 109.376 123.611 109.564 123.91L109.956 124.539H109.322L109.035 124.032C108.807 123.638 108.628 123.388 108.495 123.285C108.373 123.202 108.227 123.161 108.08 123.17H107.775V124.539L107.256 124.54Z" fill="white"/>
<path fill-rule="evenodd" clip-rule="evenodd" d="M153.846 76.9229C153.846 119.406 119.406 153.846 76.9229 153.846C34.4395 153.846 0 119.406 0 76.9229C0 34.4395 34.4395 0 76.9229 0C119.406 0 153.846 34.4395 153.846 76.9229ZM85.5445 37.1465C85.5445 26.5891 76.933 17.9766 66.3736 17.9766C55.8167 17.9766 47.2012 26.5891 47.2012 37.1465C47.2012 47.7074 55.8167 56.3209 66.3736 56.3209C76.933 56.3209 85.5445 47.7069 85.5445 37.1465ZM110.782 80.4727L100.911 80.4862L100.901 113.036L100.902 113.13C100.911 114.309 100.927 116.492 102.718 115.349C105.881 113.17 107.591 106.44 108.419 103.178C108.594 102.492 108.729 101.959 108.831 101.655L111.031 102.467C110.839 103.171 110.648 103.894 110.454 104.63C108.082 113.607 105.222 124.432 94.1467 125.871L77.471 125.871H42.8125V123.188H49.0739L49.0855 65.075C53.2692 66.4952 57.6576 67.2195 62.0758 67.2192C64.2446 67.2192 66.3728 67.0469 68.4542 66.7231C69.5476 66.6021 70.6036 66.3127 71.6055 66.0381C72.1468 65.8897 72.6724 65.7457 73.1795 65.6349L73.1951 77.0449H76.9452V64.2248C77.1233 64.1781 77.2992 64.1217 77.471 64.0556C88.6179 60.3441 97.6713 49.2484 100.902 37.8379L100.912 77.0454H110.783L110.782 80.4727ZM108.569 119.916C109.07 119.916 109.558 120.045 110.036 120.301C110.513 120.558 110.884 120.925 111.151 121.402C111.416 121.88 111.549 122.377 111.549 122.895C111.549 123.408 111.419 123.902 111.157 124.375C110.894 124.85 110.526 125.216 110.053 125.479C109.6 125.735 109.089 125.87 108.569 125.871C108.052 125.871 107.558 125.741 107.085 125.479C106.618 125.225 106.235 124.841 105.979 124.375C105.722 123.925 105.585 123.415 105.584 122.896C105.584 122.378 105.718 121.878 105.986 121.403C106.243 120.935 106.631 120.552 107.102 120.301C107.551 120.052 108.055 119.919 108.569 119.916Z" fill="white"/>
<path d="M11.4443 206.03C13.1352 206.027 14.8052 205.651 16.3381 204.927C17.8456 204.251 19.1831 203.239 20.2506 201.965V201.965L17.3357 199.002C16.6204 199.876 15.7318 200.587 14.7279 201.089C13.7431 201.573 12.6619 201.82 11.5677 201.813C10.6443 201.823 9.72818 201.648 8.87226 201.296C8.01633 200.945 7.23763 200.424 6.58122 199.766C5.94914 199.121 5.44974 198.355 5.11203 197.512C4.74996 196.618 4.56764 195.659 4.57577 194.692C4.56591 193.716 4.74304 192.747 5.09733 191.84C5.42804 190.996 5.91814 190.225 6.54008 189.571C7.16379 188.923 7.90978 188.408 8.73359 188.059C9.59207 187.689 10.516 187.501 11.4487 187.507C12.5734 187.503 13.6836 187.765 14.6912 188.272C15.7326 188.802 16.6445 189.561 17.3607 190.494V190.494L20.3682 187.437C19.3108 186.135 17.9652 185.104 16.441 184.428C14.8745 183.694 13.1699 183.312 11.4443 183.309C9.9029 183.298 8.37482 183.598 6.94852 184.191C5.59722 184.747 4.3634 185.561 3.31373 186.588C2.27766 187.615 1.4536 188.842 0.889557 190.196C0.304846 191.615 0.00253729 193.138 1.59034e-05 194.677C-0.00250548 196.215 0.29481 197.739 0.874865 199.16C1.43223 200.51 2.2511 201.732 3.28288 202.754C4.33304 203.78 5.56738 204.593 6.91914 205.149C8.35508 205.744 9.89325 206.043 11.4443 206.03V206.03ZM69.5906 206.062C71.1268 206.074 72.6498 205.774 74.0702 205.18C75.4156 204.626 76.6397 203.808 77.672 202.772C78.7043 201.737 79.5244 200.504 80.0851 199.146C80.6722 197.734 80.9747 196.218 80.9747 194.686C80.9747 193.155 80.6722 191.638 80.0851 190.227C79.5244 188.869 78.7044 187.636 77.672 186.6C76.6397 185.565 75.4156 184.746 74.0702 184.193C71.2064 183.017 68.0042 183.017 65.1404 184.193C63.795 184.746 62.5709 185.565 61.5386 186.6C60.5063 187.636 59.6862 188.869 59.1255 190.227C58.5388 191.638 58.2366 193.155 58.2366 194.686C58.2366 196.218 58.5388 197.734 59.1255 199.146C59.6862 200.504 60.5064 201.737 61.5387 202.772C62.571 203.808 63.7951 204.626 65.1404 205.18C66.5516 205.772 68.0652 206.071 69.5921 206.061L69.5906 206.062ZM69.5906 201.871C68.6891 201.879 67.7955 201.7 66.9646 201.345C66.1337 200.99 65.383 200.467 64.7584 199.807C64.1424 199.146 63.658 198.37 63.3318 197.523C62.6361 195.692 62.6361 193.664 63.3318 191.834C63.6607 190.992 64.1449 190.223 64.7584 189.565C65.383 188.906 66.1337 188.383 66.9646 188.028C67.7955 187.673 68.6891 187.494 69.5906 187.501C70.5186 187.494 71.438 187.682 72.291 188.053C73.1055 188.403 73.8413 188.918 74.4537 189.565C75.0672 190.223 75.5514 190.992 75.8802 191.834C76.5757 193.664 76.5757 195.692 75.8802 197.523C75.5541 198.37 75.0697 199.146 74.4537 199.807C73.8413 200.455 73.1055 200.97 72.291 201.32C71.4383 201.69 70.5195 201.877 69.5921 201.87L69.5906 201.871ZM137.034 205.717V201.684H125.28V183.656H120.835V205.714L137.034 205.717ZM193.126 205.717V201.684H181.373V183.656H176.924V205.714L193.126 205.717ZM249.646 205.717V201.746H237.465V196.514H245.414V192.668H237.465V187.631H249.524V183.661H233.014V205.718L249.646 205.717ZM298.988 206.031C300.679 206.029 302.349 205.652 303.882 204.928C305.389 204.252 306.727 203.24 307.794 201.967V201.967L304.878 199.005C304.163 199.879 303.274 200.59 302.27 201.092C301.285 201.576 300.204 201.824 299.11 201.816C298.187 201.826 297.271 201.65 296.415 201.299C295.559 200.947 294.781 200.427 294.125 199.768C293.493 199.124 292.993 198.358 292.656 197.515C292.293 196.621 292.11 195.662 292.118 194.695C292.108 193.719 292.286 192.75 292.641 191.843C292.971 190.998 293.46 190.228 294.082 189.574C294.706 188.926 295.452 188.411 296.276 188.062C297.134 187.692 298.058 187.504 298.991 187.51C300.12 187.506 301.233 187.77 302.244 188.281C303.285 188.811 304.197 189.57 304.913 190.503V190.503L307.921 187.446C306.863 186.144 305.518 185.113 303.993 184.437C302.427 183.703 300.723 183.321 298.998 183.318C297.457 183.307 295.929 183.607 294.502 184.2C293.151 184.756 291.916 185.569 290.866 186.595C289.83 187.623 289.005 188.849 288.441 190.203C287.856 191.623 287.554 193.146 287.551 194.684C287.549 196.223 287.846 197.746 288.426 199.168C288.983 200.517 289.802 201.739 290.834 202.761C291.884 203.787 293.119 204.6 294.47 205.156C295.904 205.747 297.44 206.044 298.988 206.03V206.031ZM357.841 205.717V187.689H365.05V183.655H346.149V187.689H353.391V205.714L357.841 205.717ZM408.807 205.717V183.659H404.359V205.717H408.807ZM460.051 206.064C461.588 206.075 463.111 205.775 464.531 205.181C465.876 204.628 467.1 203.81 468.133 202.774C469.165 201.738 469.985 200.506 470.546 199.147C471.133 197.736 471.435 196.219 471.435 194.688C471.435 193.156 471.133 191.64 470.546 190.229C469.985 188.87 469.165 187.637 468.133 186.602C467.101 185.566 465.876 184.748 464.531 184.194C461.668 183.019 458.466 183.019 455.603 184.194C454.258 184.749 453.034 185.567 452.002 186.603C450.97 187.638 450.15 188.871 449.589 190.229C449.002 191.64 448.699 193.156 448.699 194.688C448.699 196.22 449.002 197.736 449.589 199.147C450.15 200.505 450.97 201.737 452.002 202.773C453.034 203.808 454.258 204.627 455.603 205.181C457.013 205.772 458.526 206.071 460.051 206.061V206.064ZM460.051 201.873C459.129 201.881 458.214 201.693 457.367 201.321C456.558 200.969 455.828 200.454 455.219 199.809C454.602 199.148 454.117 198.372 453.791 197.524C453.096 195.693 453.096 193.666 453.791 191.835C454.12 190.994 454.605 190.224 455.219 189.567C455.828 188.921 456.558 188.407 457.367 188.054C458.214 187.682 459.129 187.494 460.051 187.503C460.979 187.496 461.898 187.683 462.75 188.054C463.565 188.404 464.302 188.919 464.914 189.567C465.528 190.224 466.012 190.994 466.341 191.835C467.038 193.666 467.038 195.694 466.341 197.524C466.015 198.372 465.531 199.147 464.914 199.809C464.302 200.456 463.565 200.971 462.75 201.321C461.898 201.691 460.979 201.878 460.051 201.87V201.873ZM515.497 205.718V190.963L526.452 205.718H530.379V183.661H526.206V197.935L515.528 183.661H511.293V205.718H515.497Z" fill="white"/>
</svg>
