<svg width="120" height="81" viewBox="0 0 120 81" fill="none" xmlns="http://www.w3.org/2000/svg">
<path fill-rule="evenodd" clip-rule="evenodd" d="M42.3345 27.75C46.2005 27.75 49.3345 24.616 49.3345 20.75C49.3345 16.884 46.2005 13.75 42.3345 13.75C38.4685 13.75 35.3345 16.884 35.3345 20.75C35.3345 24.616 38.4685 27.75 42.3345 27.75ZM51.3345 20.75C51.3345 25.7205 47.305 29.75 42.3345 29.75C37.3639 29.75 33.3345 25.7205 33.3345 20.75C33.3345 15.7794 37.3639 11.75 42.3345 11.75C47.305 11.75 51.3345 15.7794 51.3345 20.75Z" fill="white"/>
<path d="M40.6201 15.5214C40.6201 15.0954 40.9655 14.75 41.3915 14.75H43.2773C43.7033 14.75 44.0487 15.0954 44.0487 15.5214V25.9785C44.0487 26.4046 43.7033 26.75 43.2773 26.75H41.3915C40.9655 26.75 40.6201 26.4046 40.6201 25.9785V15.5214Z" fill="white"/>
<path fill-rule="evenodd" clip-rule="evenodd" d="M37.1059 22.4643C36.6799 22.4643 36.3345 22.1189 36.3345 21.6928V19.8071C36.3345 19.3811 36.6799 19.0357 37.1059 19.0357H47.563C47.9891 19.0357 48.3345 19.3811 48.3345 19.8071V21.6928C48.3345 22.1189 47.9891 22.4643 47.563 22.4643H37.1059Z" fill="white"/>
<path fill-rule="evenodd" clip-rule="evenodd" d="M64.3345 22.25C64.3345 20.317 65.9015 18.75 67.8345 18.75C69.7675 18.75 71.3345 20.317 71.3345 22.25C71.3345 24.183 69.7675 25.75 67.8345 25.75C65.9015 25.75 64.3345 24.183 64.3345 22.25ZM67.8345 20.75C67.006 20.75 66.3345 21.4215 66.3345 22.25C66.3345 23.0784 67.006 23.75 67.8345 23.75C68.6629 23.75 69.3345 23.0784 69.3345 22.25C69.3345 21.4215 68.6629 20.75 67.8345 20.75Z" fill="white"/>
<path fill-rule="evenodd" clip-rule="evenodd" d="M71.3345 19.25C71.3345 17.317 72.9015 15.75 74.8345 15.75C76.7675 15.75 78.3345 17.317 78.3345 19.25C78.3345 21.183 76.7675 22.75 74.8345 22.75C72.9015 22.75 71.3345 21.183 71.3345 19.25ZM74.8345 17.75C74.006 17.75 73.3345 18.4215 73.3345 19.25C73.3345 20.0784 74.006 20.75 74.8345 20.75C75.6629 20.75 76.3345 20.0784 76.3345 19.25C76.3345 18.4215 75.6629 17.75 74.8345 17.75Z" fill="white"/>
<path fill-rule="evenodd" clip-rule="evenodd" d="M78.3345 16.25C78.3345 14.317 79.9015 12.75 81.8345 12.75C83.7675 12.75 85.3345 14.317 85.3345 16.25C85.3345 18.183 83.7675 19.75 81.8345 19.75C79.9015 19.75 78.3345 18.183 78.3345 16.25ZM81.8345 14.75C81.006 14.75 80.3345 15.4215 80.3345 16.25C80.3345 17.0784 81.006 17.75 81.8345 17.75C82.6629 17.75 83.3345 17.0784 83.3345 16.25C83.3345 15.4215 82.6629 14.75 81.8345 14.75Z" fill="white"/>
<path fill-rule="evenodd" clip-rule="evenodd" d="M68.4057 14.1686L68.4118 14.1826L68.4182 14.1966L68.4248 14.2104L68.4317 14.2241L68.4388 14.2377L68.4461 14.2512L68.4536 14.2645L68.4614 14.2777L68.4694 14.2907L68.4777 14.3037L68.4861 14.3164L68.4948 14.3291L68.5037 14.3416L68.5128 14.3539L68.5221 14.366L68.5317 14.378L68.5414 14.3899L68.5513 14.4015L68.5615 14.413L68.5718 14.4244L68.5823 14.4355L68.593 14.4464L68.6039 14.4572L68.615 14.4678L68.6263 14.4782L68.6377 14.4884L68.6494 14.4983L68.6611 14.5081L68.6731 14.5177L68.6852 14.5271L68.6975 14.5362L68.7099 14.5452L68.7225 14.5539L68.7353 14.5624L68.7482 14.5707L68.7612 14.5788L68.7744 14.5866L68.7877 14.5943L68.8011 14.6016L68.8146 14.6088L68.8283 14.6157L68.8421 14.6224L68.856 14.6288L68.87 14.635L68.8841 14.641L68.8983 14.6467L68.9127 14.6522L68.9271 14.6574L68.9416 14.6624L68.9561 14.6671L68.9708 14.6715L68.9855 14.6758L69.0003 14.6797L69.0152 14.6834L69.0301 14.6869L69.0451 14.69L69.0602 14.693L69.0753 14.6956L69.0904 14.698L69.1056 14.7002L69.1208 14.7021L69.136 14.7037L69.1513 14.705L69.1666 14.7061L69.1819 14.707L69.1972 14.7075L69.2125 14.7078L69.2278 14.7079L69.2431 14.7076L69.2584 14.7071L69.2738 14.7064L69.289 14.7053L69.3043 14.7041L69.3196 14.7025L69.3348 14.7007L69.35 14.6986L69.3651 14.6963L69.3802 14.6937L69.3953 14.6908L69.4103 14.6877L69.4252 14.6843L69.4401 14.6807L69.4549 14.6768L69.4697 14.6727L69.4843 14.6683L69.4989 14.6636L69.5135 14.6587L69.5279 14.6536L69.5422 14.6482L69.5565 14.6425L69.5706 14.6366L74.6844 12.4542L74.6984 12.448L74.7123 12.4416L74.7262 12.435L74.7399 12.4282L74.7534 12.4211L74.7669 12.4138L74.7802 12.4062L74.7934 12.3984L74.8065 12.3904L74.8194 12.3822L74.8322 12.3737L74.8448 12.365L74.8573 12.3561L74.8696 12.347L74.8818 12.3377L74.8938 12.3282L74.9056 12.3185L74.9173 12.3085L74.9288 12.2984L74.9401 12.2881L74.9512 12.2775L74.9622 12.2668L74.973 12.2559L74.9835 12.2448L74.9939 12.2336L75.0041 12.2221L75.0141 12.2105L75.0239 12.1987L75.0335 12.1867L75.0428 12.1746L75.052 12.1623L75.0609 12.1499L75.0697 12.1373L75.0782 12.1246L75.0865 12.1117L75.0945 12.0986L75.1024 12.0855L75.11 12.0722L75.1174 12.0588L75.1245 12.0452L75.1315 12.0315L75.1381 12.0177L75.1446 12.0038L75.1508 11.9898L75.1567 11.9757L75.1624 11.9615L75.1679 11.9472L75.1731 11.9328L75.1781 11.9183L75.1828 11.9037L75.1873 11.889L75.1915 11.8743L75.1955 11.8595L75.1992 11.8446L75.2026 11.8297L75.2058 11.8147L75.2087 11.7997L75.2114 11.7846L75.2138 11.7695L75.2159 11.7543L75.2178 11.7391L75.2194 11.7238L75.2208 11.7086L75.2219 11.6933L75.2227 11.678L75.2233 11.6627L75.2236 11.6474V11.632L75.2234 11.6167L75.2229 11.6014L75.2221 11.5861L75.2211 11.5708L75.2198 11.5555L75.2183 11.5403L75.2164 11.5251L75.2144 11.5099L75.212 11.4947L75.2094 11.4796L75.2066 11.4646L75.2035 11.4496L75.2001 11.4346L75.1965 11.4198L75.1926 11.4049L75.1884 11.3902L75.184 11.3755L75.1794 11.3609L75.1745 11.3464L75.1693 11.332L75.1639 11.3176L75.1583 11.3034L75.1524 11.2892L75.1462 11.2752L75.1399 11.2612L75.1332 11.2474L75.1264 11.2337L75.1193 11.2201L75.112 11.2067L75.1044 11.1933L75.0966 11.1801L75.0886 11.1671L75.0804 11.1542L75.0719 11.1414L75.0632 11.1288L75.0544 11.1163L75.0452 11.104L75.0359 11.0918L75.0264 11.0798L75.0167 11.068L75.0067 11.0563L74.9966 11.0448L74.9863 11.0335L74.9757 11.0223L74.965 11.0114L74.9541 11.0006L74.943 10.99L74.9318 10.9797L74.9203 10.9695L74.9087 10.9595L74.8969 10.9497L74.885 10.9401L74.8728 10.9307L74.8605 10.9216L74.8481 10.9126L74.8355 10.9039L74.8228 10.8954L74.8099 10.8871L74.7969 10.879L74.7837 10.8712L74.7704 10.8636L74.757 10.8562L74.7434 10.849L74.7298 10.8421L74.716 10.8354L74.7021 10.829L74.688 10.8228L74.6739 10.8168L74.6597 10.8111L74.6454 10.8057L74.631 10.8004L74.6165 10.7955L74.6019 10.7908L74.5873 10.7863L74.5725 10.7821L74.5577 10.7781L74.5429 10.7744L74.5279 10.771L74.5129 10.7678L74.4979 10.7649L74.4828 10.7622L74.4677 10.7598L74.4525 10.7577L74.4373 10.7558L74.422 10.7542L74.4068 10.7528L74.3915 10.7517L74.3762 10.7509L74.3609 10.7503L74.3456 10.75H74.3302L74.3149 10.7502L74.2996 10.7507L74.2843 10.7515L74.269 10.7525L74.2537 10.7538L74.2385 10.7553L74.2233 10.7571L74.2081 10.7592L74.193 10.7615L74.1779 10.7641L74.1628 10.767L74.1478 10.7701L74.1329 10.7735L74.118 10.7771L74.1031 10.781L74.0884 10.7852L74.0737 10.7896L74.0591 10.7942L74.0446 10.7991L74.0302 10.8043L74.0158 10.8097L74.0016 10.8153L73.9874 10.8212L68.8737 13.0037L68.8597 13.0098L68.8457 13.0162L68.8319 13.0228L68.8182 13.0297L68.8046 13.0368L68.7912 13.0441L68.7778 13.0516L68.7646 13.0594L68.7516 13.0674L68.7386 13.0757L68.7259 13.0841L68.7132 13.0928L68.7008 13.1017L68.6884 13.1108L68.6763 13.1201L68.6643 13.1296L68.6524 13.1394L68.6408 13.1493L68.6293 13.1594L68.618 13.1698L68.6068 13.1803L68.5959 13.191L68.5851 13.2019L68.5745 13.213L68.5641 13.2243L68.554 13.2357L68.544 13.2473L68.5342 13.2591L68.5246 13.2711L68.5152 13.2832L68.5061 13.2955L68.4971 13.3079L68.4884 13.3205L68.4799 13.3333L68.4716 13.3462L68.4635 13.3592L68.4557 13.3723L68.448 13.3856L68.4407 13.3991L68.4335 13.4126L68.4266 13.4263L68.4199 13.4401L68.4135 13.454L68.4073 13.468L68.4013 13.4821L68.3956 13.4963L68.3901 13.5107L68.3849 13.5251L68.38 13.5396L68.3752 13.5541L68.3708 13.5688L68.3666 13.5835L68.3626 13.5983L68.3589 13.6132L68.3555 13.6281L68.3523 13.6431L68.3493 13.6582L68.3467 13.6732L68.3443 13.6884L68.3421 13.7036L68.3402 13.7188L68.3386 13.734L68.3373 13.7493L68.3362 13.7645L68.3354 13.7798L68.3348 13.7952L68.3345 13.8105V13.8258L68.3347 13.8411L68.3352 13.8564L68.3359 13.8717L68.337 13.887L68.3382 13.9023L68.3398 13.9175L68.3416 13.9328L68.3437 13.9479L68.346 13.9631L68.3486 13.9782L68.3515 13.9932L68.3546 14.0082L68.358 14.0232L68.3616 14.0381L68.3655 14.0529L68.3696 14.0677L68.374 14.0823L68.3787 14.0969L68.3836 14.1114L68.3887 14.1259L68.3941 14.1402L68.3998 14.1545L68.4057 14.1686Z" fill="white"/>
<path fill-rule="evenodd" clip-rule="evenodd" d="M60.0133 0.500015L60.6896 0.50405L61.3623 0.515864L62.0305 0.535482L62.6943 0.562703L63.3539 0.597448L64.0087 0.639684L64.6594 0.689284L65.3046 0.746242L65.9455 0.81035L66.5815 0.881614L67.2123 0.959973L67.8377 1.04524L68.4584 1.13741L69.0736 1.23642L69.6834 1.34217L70.2876 1.45459L70.886 1.57353L71.4792 1.69905L72.0661 1.83097L72.6473 1.96924L73.2221 2.1137L73.7917 2.26449L74.3545 2.4214L74.9109 2.58431L75.461 2.75319L76.0049 2.92805L76.5421 3.10878L77.0721 3.29514L77.5963 3.48746L78.1128 3.68528L78.616 3.88607L79.1187 4.09489L79.6138 4.30899L80.1023 4.52863L80.5826 4.75334L81.0553 4.98301L81.5207 5.21781L81.9781 5.45744L82.4278 5.70191L82.8695 5.95111L83.3026 6.20468L83.728 6.46285L84.1453 6.7256L84.554 6.99262L84.9542 7.26387L85.3446 7.53831L85.541 7.68034L85.9124 7.95654L86.2824 8.24205L86.6418 8.53015L86.8273 8.68339L87.1671 8.97226L87.5055 9.27141L87.8342 9.57405L88.1539 9.88071L88.4634 10.1905L88.764 10.5046L89.0541 10.8217L89.3341 11.1423L89.6049 11.4673L89.8632 11.7932L89.9923 11.9627L90.2349 12.2935L90.4683 12.6304L90.691 12.971L90.9019 13.3141L91.0993 13.6567L91.1974 13.8357L91.3767 14.1795L91.546 14.528L91.7034 14.8763L91.8501 15.2263L91.9857 15.5764L92.1102 15.9257L92.2247 16.2758L92.3286 16.624L92.4227 16.9715L92.5074 17.3185L92.5831 17.6644L92.6498 18.0083L92.7087 18.3537L92.7801 18.8567L92.8014 19.0333L92.8367 19.3697L92.8764 19.8676L92.9021 20.3665L92.9117 20.6951L92.9158 21.019L92.9147 21.34L92.9088 21.6648L92.8985 21.9796L92.8842 22.2905L92.8664 22.5958L92.8209 23.2001L92.7636 23.7994L92.6975 24.3844L92.6607 24.675L92.5791 25.2524L92.5327 25.5478L92.4331 26.1211L92.3762 26.4174L92.3172 26.7064L92.2547 26.9932L92.1884 27.2803L92.1184 27.5661L92.0459 27.8456L91.9661 28.1367L91.8856 28.415L91.799 28.6984L91.7078 28.9819L91.6123 29.264L91.5121 29.5456L91.4071 29.8267L91.2972 30.1069L91.1822 30.387L91.0624 30.6654L90.9374 30.9432L90.8071 31.2203L90.6715 31.4966L90.5305 31.7719L90.3843 32.0458L90.2323 32.3194L90.0748 32.5915L89.9119 32.8624L89.7437 33.1317L89.5702 33.3994L89.392 33.6649L89.2098 33.9273L89.0228 34.1881L88.8316 34.4464L88.6367 34.7018L88.4378 34.9548L88.231 35.2101L88.0294 35.4519L87.8177 35.6988L87.395 36.1712L87.1744 36.4077L86.9487 36.643L86.73 36.8645L86.4999 37.0912L86.2771 37.3045L86.0468 37.5188L85.8149 37.7282L85.5813 37.933L85.3463 38.1326L85.1091 38.328L84.8705 38.518L84.6304 38.7029L84.3933 38.8791L84.1494 39.0538L83.7845 39.3026L83.4153 39.5386L83.046 39.7585L82.7935 39.8994L82.5437 40.0312L82.2921 40.1563L81.9253 40.3251L81.6753 40.431L81.4287 40.5282L81.1828 40.6181L80.9289 40.7034L80.6921 40.7763L80.4421 40.8459L80.2136 40.9033L80.0823 40.9335L79.7309 41.0044L79.3834 41.0597L79.2524 41.0769L78.9105 41.112L78.5655 41.1326L78.2263 41.1382L77.8916 41.129L77.5675 41.1054L77.3468 41.0811L77.1239 41.049L76.9246 41.0143L76.7026 40.9682L76.417 40.8969L76.214 40.8374L76.0059 40.7686L75.8226 40.701L75.634 40.6242L75.2792 40.4574L75.0954 40.3583L74.8776 40.229L74.6363 40.0686L74.4714 39.9478L74.212 39.7374L74.0051 39.5494L73.8672 39.4133L73.6818 39.2159L73.4567 38.951L73.2955 38.7432L73.1056 38.4774L73.006 38.3288L72.8363 38.0615L72.6732 37.7883L72.441 37.375L71.7214 36.0236L71.5728 35.7535L71.4153 35.4776L71.2556 35.2098L71.0898 34.9458L70.9165 34.6857L70.7332 34.4278L70.6415 34.3056L70.4487 34.0622L70.2372 33.8158L70.1373 33.7064L69.9716 33.5347L69.7981 33.3668L69.6851 33.2636L69.5004 33.1052L69.3086 32.9529L69.1093 32.8067L68.8996 32.6655L68.6768 32.5282L68.4413 32.3956L68.1879 32.2656L68.0148 32.1835L67.8329 32.1027L67.5424 31.9838L67.1217 31.8309L66.7887 31.7241L66.433 31.6219L66.1889 31.5583L65.7972 31.4659L65.3897 31.3811L65.106 31.3284L64.8095 31.2783L64.5038 31.2315L64.1876 31.188L63.8606 31.1479L63.5237 31.1113L63.1768 31.0783L62.8182 31.0489L62.4494 31.0232L62.07 31.0013L61.6796 30.9833L61.283 30.9693L61.2725 30.969L60.8703 30.959L60.86 30.9588L60.4461 30.9529L60.4363 30.9528L60.0103 30.9508L59.5707 30.9527L59.1475 30.9587L58.7351 30.9688L58.3339 30.9828L57.9442 31.0006L57.5651 31.0223L57.1963 31.0478L56.8392 31.0769L56.4925 31.1096L56.156 31.146L55.8297 31.1858L55.5145 31.2288L55.2087 31.2754L54.9133 31.325L54.6299 31.3773L54.2125 31.4638L53.8213 31.5557L53.579 31.6187L53.2222 31.7208L52.8861 31.8282L52.6788 31.9007L52.3739 32.0168L52.0864 32.138L51.9086 32.2192L51.7362 32.3033L51.5731 32.3879L51.3324 32.5228L51.1877 32.6102L50.9718 32.7507L50.7684 32.895L50.5738 33.0449L50.3874 33.2002L50.2112 33.3583L49.9845 33.5794L49.7152 33.8698L49.4613 34.1739L49.276 34.4156L49.0936 34.6712L48.9188 34.9327L48.7504 35.2001L48.6727 35.3286L48.4351 35.7395L48.2869 36.0083L47.5484 37.3946L47.3967 37.6666L47.2372 37.9405L47.0699 38.2117L46.9784 38.3529L46.7442 38.6899L46.5356 38.9607L46.3617 39.167L46.178 39.367L45.9801 39.5637L45.7671 39.7555L45.5089 39.9633L45.191 40.1856L44.9378 40.3396L44.7129 40.4614L44.4376 40.5931L44.1546 40.7099L43.9549 40.7824L43.6676 40.8731L43.4582 40.9298L43.1592 40.998L42.9476 41.0374L42.7225 41.072L42.4155 41.1071L42.0893 41.1299L41.865 41.137L41.632 41.1379L41.2889 41.1257L40.9574 41.1001L40.721 41.0736L40.4838 41.0403L40.1321 40.9785L39.7749 40.9006L39.5235 40.8367L39.2856 40.7697L38.9231 40.6547L38.5593 40.5237L38.3088 40.4244L38.0627 40.3198L37.8117 40.2057L37.4412 40.0235L37.0699 39.8242L36.8178 39.6792L36.4523 39.4556L36.2022 39.2936L35.8403 39.0465L35.5923 38.8685L35.3519 38.6894L35.1124 38.5046L34.8743 38.3145L34.6381 38.1195L34.4039 37.92L34.1704 37.715L33.9388 37.5054L33.7096 37.2917L33.4821 37.0735L33.2518 36.8462L33.0289 36.6198L32.8086 36.3896L32.5907 36.1556L32.3754 35.9178L32.1635 35.6769L31.9545 35.4327L31.7531 35.1906L31.5505 34.9401L31.3516 34.6866L31.1571 34.4312L30.9656 34.1721L30.7787 33.9109L30.5963 33.6475L30.4181 33.3814L30.2451 33.1137L30.0763 32.843L29.9139 32.5721L29.7568 32.2999L29.6052 32.0264L29.4589 31.7514L29.3185 31.4763L29.1836 31.2007L29.0533 30.9228L28.9291 30.6455L28.8094 30.3666L28.695 30.0872L28.5857 29.8075L28.4809 29.5263L28.381 29.2444L28.2861 28.9629L28.1952 28.6796L28.1091 28.3964L28.0271 28.1121L27.9478 27.8214L27.8742 27.5362L27.8046 27.2505L27.7389 26.9642L27.6769 26.6775L27.6188 26.3911L27.5638 26.1032L27.5126 25.8172L27.4198 25.2443L27.3762 24.9458L27.3369 24.6557L27.2989 24.3546L27.2342 23.7785L27.2043 23.4771L27.154 22.8864L27.1323 22.5725L27.1144 22.2615L27.1004 21.9485L27.0908 21.6393L27.0852 21.3202L27.0845 20.998L27.0889 20.6734L27.0988 20.347L27.1065 20.1724L27.125 19.8494L27.1498 19.522L27.1818 19.186L27.221 18.8478L27.2678 18.5073L27.3225 18.1657L27.3855 17.8215L27.4572 17.4757L27.5377 17.1296L27.6277 16.7817L27.7274 16.4329L27.837 16.0837L27.9571 15.7336L28.0866 15.3865L28.1582 15.2062L28.3037 14.8601L28.4606 14.5142L28.5471 14.3334L28.7195 13.9923L28.8152 13.8123L29.0046 13.4738L29.11 13.2943L29.3192 12.9552L29.5419 12.6154L29.7735 12.2821L29.8984 12.1098L30.1458 11.7817L30.4038 11.4569L30.5431 11.2878L30.6779 11.1283L30.9542 10.8127L31.1035 10.6478L31.2486 10.4913L31.5466 10.1804L31.8565 9.87059L32.1759 9.56462L32.5043 9.26279L32.8424 8.96408L33.1892 8.66979L33.5459 8.37848L33.9111 8.09147L34.2851 7.80855L34.6725 7.52628L35.0644 7.25108L35.4645 6.98046L35.8731 6.71391L36.2901 6.45179L36.715 6.19423L37.1485 5.94079L37.5902 5.69205L38.0393 5.44823L38.4969 5.2088L38.962 4.97449L39.4347 4.74513L39.9153 4.52065L40.4033 4.30147L40.8985 4.0877L41.4009 3.87923L41.917 3.67365L42.4339 3.47623L42.9571 3.2847L43.4874 3.09871L44.0244 2.91846L44.5678 2.74419L45.1177 2.5758L45.674 2.41329L46.2371 2.25673L46.8057 2.10655L47.3808 1.96237L47.9617 1.82458L48.5488 1.69298L49.1415 1.56791L49.74 1.44932L50.3441 1.33727L50.9538 1.23187L51.569 1.13321L52.1892 1.04143L52.8147 0.956486L53.4457 0.878412L54.0815 0.807516L54.7218 0.743764L55.3678 0.68706L56.0178 0.637832L56.6729 0.595886L57.3322 0.561472L57.996 0.534558L58.6645 0.515242L59.3367 0.503748L60.0133 0.500015ZM59.3538 2.50375L58.7048 2.51491L58.0598 2.53362L57.4193 2.55965L56.7832 2.59292L56.1516 2.63343L55.525 2.68095L54.9027 2.73564L54.2857 2.79714L53.6736 2.86547L53.0664 2.94066L52.4644 3.02247L51.868 3.11081L51.2768 3.20571L50.6911 3.30703L50.111 3.41469L49.5366 3.52859L48.9682 3.64861L48.4054 3.77482L47.8489 3.90692L47.2984 4.04501L46.7544 4.18877L46.2164 4.33844L45.6849 4.49376L45.1601 4.65459L44.642 4.82084L44.1305 4.9926L43.6258 5.16971L43.1283 5.35192L42.6376 5.53944L42.1542 5.732L41.6781 5.92954L41.2094 6.13189L40.7482 6.33903L40.2944 6.55096L39.8485 6.76733L39.4105 6.988L38.9801 7.2132L38.558 7.44231L38.144 7.67552L37.738 7.91284L37.3407 8.15367L36.9517 8.3982L36.5711 8.64645L36.1995 8.89786L35.8362 9.153L35.4773 9.41444L35.1324 9.67539L34.7965 9.93937L34.469 10.2069L34.1516 10.4762L33.8431 10.7486L33.5446 11.0231L33.2554 11.3001L32.9756 11.5798L32.7042 11.863L32.5746 12.0029L32.4479 12.1428L32.1945 12.4322L32.0752 12.5735L31.9587 12.7149L31.7275 13.0059L31.5067 13.2987L31.4047 13.4395L31.1998 13.7344L31.007 14.0286L30.8238 14.3256L30.7399 14.4685L30.571 14.7703L30.4952 14.9129L30.3418 15.2165L30.2734 15.3591L30.1367 15.6607L30.0096 15.963L29.9531 16.1053L29.8402 16.4078L29.7374 16.7077L29.6433 17.0073L29.5577 17.307L29.4801 17.6068L29.4106 17.9055L29.3486 18.2045L29.2939 18.5037L29.2462 18.8015L29.2053 19.0992L29.1709 19.396L29.1426 19.6924L29.1207 19.9819L29.1037 20.2795L29.0973 20.4274L29.0885 20.7173L29.0845 21.0095L29.0852 21.3005L29.0902 21.5903L29.0993 21.8788L29.1122 22.1654L29.1287 22.4514L29.1481 22.7324L29.1965 23.3002L29.2238 23.5741L29.2857 24.1242L29.3206 24.4008L29.3574 24.6719L29.3965 24.9398L29.4842 25.4809L29.5314 25.7447L29.5821 26.0096L29.6356 26.2728L29.6924 26.535L29.7523 26.796L29.8157 27.0557L29.8826 27.3146L29.9527 27.5717L30.0267 27.8283L30.1042 28.0832L30.186 28.3379L30.2712 28.5907L30.3606 28.8428L30.4543 29.0943L30.552 29.3444L30.654 29.5935L30.7608 29.8424L30.8714 30.0893L30.9873 30.3365L31.1076 30.5822L31.2325 30.8271L31.3626 31.0715L31.4977 31.3151L31.6379 31.5581L31.7827 31.7998L31.9336 32.0418L32.089 32.2821L32.2494 32.5216L32.4142 32.7596L32.5832 32.9958L32.7569 33.2309L32.9339 33.4633L33.1149 33.6939L33.2994 33.922L33.4873 34.1479L33.6782 34.3707L33.8719 34.5907L34.0684 34.8077L34.2673 35.0212L34.4685 35.2313L34.6718 35.4377L34.8769 35.6401L35.0837 35.8385L35.2918 36.0325L35.5011 36.2219L35.7121 36.4071L35.9232 36.5869L36.1349 36.7617L36.3474 36.9314L36.5602 37.0956L36.773 37.254L36.9878 37.4082L37.3099 37.6282L37.5178 37.7629L37.8382 37.9589L38.0417 38.0759L38.3557 38.2445L38.6669 38.3975L38.8681 38.489L39.0687 38.5743L39.2666 38.6526L39.5645 38.76L39.8593 38.8535L40.041 38.9046L40.2343 38.9538L40.5183 39.0157L40.796 39.0645L40.9715 39.0891L41.146 39.1087L41.4013 39.1284L41.664 39.1377L41.8294 39.1371L41.9877 39.1321L42.2321 39.1151L42.4567 39.0893L42.6125 39.0654L42.7538 39.0391L42.9744 38.9888L43.1048 38.9535L43.3123 38.888L43.4315 38.8447L43.6241 38.7652L43.8047 38.6788L43.9412 38.6049L44.097 38.5101L44.3075 38.3629L44.4702 38.232L44.6052 38.1104L44.7358 37.9806L44.8598 37.8456L44.978 37.7054L45.1298 37.5083L45.3177 37.2378L45.3796 37.1425L45.5217 36.912L45.6591 36.6761L45.7923 36.4373L46.5285 35.0552L46.6936 34.756L46.951 34.3108L47.0483 34.1497L47.2409 33.8439L47.4477 33.5344L47.6679 33.2259L47.8993 32.9241L48.2134 32.5479L48.5522 32.1826L48.8446 31.8974L49.079 31.6871L49.3231 31.4838L49.5791 31.2866L49.8473 31.0963L50.1246 30.9158L50.326 30.7941L50.6235 30.6274L50.8374 30.5165L51.0548 30.4105L51.2823 30.3065L51.6294 30.1602L51.9926 30.0219L52.2515 29.9314L52.6425 29.8065L53.0523 29.6891L53.3411 29.6141L53.7807 29.5108L54.2453 29.4145L54.5659 29.3553L54.8926 29.3004L55.2287 29.2493L55.5734 29.2022L55.9342 29.1582L56.2977 29.119L56.6705 29.0839L57.0522 29.053L57.4449 29.0258L57.8469 29.0029L58.2589 28.9841L58.6811 28.9695L59.114 28.959L59.557 28.9527L60.0105 28.9507L60.4653 28.9529L60.9095 28.9594L61.3429 28.9702L61.7663 28.9851L62.1794 29.0042L62.5826 29.0276L62.9754 29.055L63.3595 29.0865L63.7332 29.1222L64.0974 29.1618L64.4454 29.2046L64.7913 29.2522L65.1275 29.3037L65.4554 29.3591L65.7763 29.4187L66.2304 29.5132L66.6707 29.617L66.9615 29.6928L67.3705 29.8104L67.769 29.9382L68.2632 30.1178L68.6178 30.263L68.8491 30.3657L69.073 30.4718L69.3889 30.6339L69.6924 30.8048L69.9832 30.984L70.2598 31.1703L70.5223 31.3628L70.7739 31.5626L71.0106 31.7657L71.1678 31.9091L71.3869 32.1211L71.5957 32.3374L71.7349 32.4899L71.9919 32.7893L72.2257 33.0844L72.3486 33.2484L72.5641 33.5516L72.7691 33.8592L72.9615 34.1656L73.1429 34.4697L73.3174 34.7755L73.4836 35.0775L74.1957 36.4151L74.404 36.7858L74.5395 37.0128L74.6812 37.236L74.7503 37.339L74.8999 37.5485L75.0098 37.6901L75.1736 37.8829L75.299 38.0164L75.3805 38.0969L75.5155 38.2195L75.693 38.3635L75.7814 38.4282L75.9424 38.5352L76.0807 38.6174L76.1797 38.6707L76.4373 38.7918L76.5459 38.8361L76.6662 38.8804L76.8093 38.9278L76.9405 38.9662L77.1485 39.0181L77.2998 39.0496L77.4379 39.0736L77.5987 39.0968L77.7498 39.1134L77.9916 39.131L78.2373 39.1378L78.4893 39.1336L78.7485 39.1181L79.0203 39.0902L79.0962 39.0803L79.3758 39.0357L79.6599 38.9784L79.7455 38.9587L79.9302 38.9124L80.1296 38.8568L80.3162 38.7994L80.5208 38.7306L80.7188 38.6583L80.9183 38.5796L81.117 38.4955L81.4286 38.352L81.6317 38.2511L81.8395 38.1414L82.0469 38.0257L82.3649 37.8364L82.6822 37.6335L83.0036 37.4143L83.2146 37.2633L83.4237 37.1078L83.6373 36.9434L83.8501 36.7739L84.063 36.5985L84.2746 36.4188L84.4856 36.2338L84.6952 36.0446L84.904 35.8502L85.1114 35.6515L85.3163 35.4498L85.5199 35.2433L85.7213 35.0334L85.9183 34.8222L86.3132 34.3808L86.502 34.1607L86.6899 33.9352L86.8745 33.7073L87.0557 33.4768L87.2329 33.2447L87.4062 33.0105L87.5755 32.7743L87.7402 32.5372L87.9006 32.2981L88.0561 32.0581L88.2068 31.817L88.3523 31.5751L88.4925 31.3328L88.6279 31.0891L88.7582 30.845L88.8836 30.6001L89.0043 30.3542L89.1203 30.1075L89.2318 29.8597L89.3384 29.6119L89.4411 29.362L89.5392 29.1116L89.6331 28.8604L89.7229 28.6079L89.8086 28.355L89.8905 28.1001L89.9685 27.8449L90.0428 27.5879L90.1133 27.3306L90.1805 27.0711L90.244 26.8114L90.3044 26.5498L90.3614 26.2879L90.4154 26.0231L90.4656 25.7613L90.5595 25.2212L90.601 24.9574L90.6784 24.4097L90.7124 24.14L90.7743 23.5922L90.828 23.0299L90.8707 22.4626L90.8871 22.1806L90.9002 21.8948L90.9095 21.607L90.9148 21.3186L90.9158 21.0284L90.9121 20.737L90.9036 20.4471L90.8805 19.9986L90.845 19.5535L90.8139 19.2571L90.797 19.117L90.7324 18.6624L90.6821 18.3668L90.6242 18.0687L90.5588 17.7695L90.4857 17.4702L90.4047 17.1712L90.3157 16.8726L90.2175 16.5724L90.1109 16.2735L89.995 15.9742L89.8695 15.6749L89.7349 15.3769L89.5902 15.079L89.4336 14.7787L89.3558 14.6367L89.1832 14.3373L89.0019 14.0423L88.809 13.7474L88.6061 13.4545L88.3902 13.16L88.2838 13.0204L88.0525 12.7286L87.8126 12.4405L87.563 12.1548L87.3034 11.8711L87.0334 11.5888L86.754 11.3093L86.4646 11.0316L86.1657 10.7565L85.857 10.4836L85.5375 10.2121L85.3794 10.0815L85.0457 9.81401L84.7049 9.55094L84.3531 9.28952L84.1785 9.16329L83.818 8.90986L83.4459 8.65767L83.0655 8.40913L82.6762 8.16403L82.2785 7.92266L81.8727 7.68511L81.4588 7.45157L81.0363 7.22188L80.6062 6.99655L80.1678 6.77536L79.7219 6.55871L79.2683 6.34654L78.8069 6.13902L78.3381 5.93634L77.8619 5.73852L77.3783 5.54562L76.8879 5.35792L76.3899 5.17531L75.8853 4.99797L75.3738 4.82599L74.8553 4.65939L74.3304 4.49832L73.799 4.34281L73.2611 4.19293L72.7166 4.04884L72.1662 3.91059L71.6096 3.77825L71.047 3.65188L70.4782 3.53161L69.9039 3.41753L69.3238 3.30967L68.7381 3.20816L68.1469 3.11308L67.5501 3.02453L66.9482 2.94254L66.3412 2.8672L65.7289 2.79867L65.1116 2.73698L64.4897 2.68215L63.8627 2.63443L63.2313 2.59376L62.5951 2.56032L61.9545 2.53412L61.3097 2.51525L60.6604 2.50391L60.0073 2.50001L59.3538 2.50375Z" fill="white"/>
</svg>
