<?xml version="1.0" encoding="utf-8"?>
<!-- Generator: Adobe Illustrator 24.1.3, SVG Export Plug-In . SVG Version: 6.00 Build 0)  -->
<svg version="1.1" id="Layer_1" xmlns="http://www.w3.org/2000/svg" xmlns:xlink="http://www.w3.org/1999/xlink" x="0px" y="0px"
	 viewBox="0 0 531 107.9" style="enable-background:new 0 0 531 107.9;" xml:space="preserve">
<path style="fill:#FFFFFF;" d="M518.5,79v-6.8H516V71h6.5v1.2h-2.8V79H518.5z"/>
<path style="fill:#FFFFFF;" d="M523.2,79v-8h2l2,6.5l2-6.5h1.8v8h-1.2v-6.8l-2,6.8h-1.2l-2.2-6.8V79H523.2z"/>
<radialGradient id="SVGID_1_" cx="-19.0675" cy="480.0496" r="1" gradientTransform="matrix(-7.5534 27.0662 27.0662 7.5534 -13093.6865 -3066.0569)" gradientUnits="userSpaceOnUse">
	<stop  offset="1.562500e-02" style="stop-color:#FEFEFE"/>
	<stop  offset="1" style="stop-color:#0549A0"/>
</radialGradient>
<path style="fill:url(#SVGID_1_);" d="M41.7,78.5c13.8,0,25.1-11.2,25.1-25.1c0-13.8-11.2-25.1-25.1-25.1
	c-13.8,0-25.1,11.2-25.1,25.1C16.7,67.3,27.9,78.5,41.7,78.5z"/>
<path style="fill:#FFFFFF;" d="M517,32.5c-0.2,0.4-0.6,0.7-1,0.8c-0.7,0.3-1.3,0.6-1.8,1c-0.4,0.3-0.8,0.7-1.1,1.1
	c-0.5,0.6-0.8,1.4-0.8,2.2c0,0.2,0,0.4,0,0.6c0,12.8,0,25.7,0,38.5c0,0.3,0,0.7,0,1c-0.1,0.9-0.6,1.3-1.5,1.1
	c-0.3-0.1-0.6-0.2-1-0.4c-0.5-0.3-0.9-0.6-1.4-1c-2.9-2.3-5.8-4.6-8.7-7c-7.3-6.1-14.6-12.1-21.9-18.2c-0.3-0.2-0.5-0.4-0.7-0.6
	c-0.3-0.2-0.5-0.1-0.5,0.2c0,0.1,0,0.2,0,0.3c0,0.2,0,0.3,0,0.5c0,6.6,0,13.2,0,19.9c0,0.8,0,1.6,0.1,2.4c0.2,0.9,0.6,1.6,1.3,2.1
	c0.6,0.4,1.3,0.8,2,1.1c0.2,0.1,0.4,0.2,0.6,0.3c0.3,0.1,0.5,0.3,0.6,0.6c0.3,0.6,0.2,1.2-0.5,1.5c-0.6,0.3-1.2,0.4-1.8,0.4
	c-1.5,0.2-3,0.2-4.5,0.1c-1.7-0.1-3.3-0.2-4.9-0.4c-3.7-0.4-7.4-0.9-11-1.9c-2.1-0.6-4.1-1.4-6.1-2.4c-4.4-2.3-7.8-5.6-10.3-9.8
	c-1.2-2-2.1-4.1-3-6.2c-0.8-1.9-1.6-3.9-2.1-6c-0.1-0.5-0.3-1-0.3-1.5c0-0.7,0.3-1.1,1-1.2c0.5-0.1,1,0.1,1.5,0.1
	c0.5,0.1,1,0.2,1.4,0.3c1.3,0.3,2.6,0.1,3.9-0.5c2.3-1.1,3.8-2.9,4.5-5.3c0.1-0.4,0.2-0.8,0.2-1.2c0.1-1.5,0.1-2.9-0.1-4.4
	c-0.2-0.9-0.4-1.9-0.8-2.7c-1-2.3-2.8-3.6-5.2-4c-0.3-0.1-0.6-0.1-1-0.1c-1.6-0.1-3.2-0.1-4.7,0c-0.4,0-0.7,0.1-1,0.2
	c-0.8,0.2-1.4,0.8-1.6,1.6c-0.1,0.3-0.1,0.7-0.2,1c-0.1,1.7-0.1,3.3-0.1,5c0,7.4,0,14.9,0.1,22.3c0,1.4,0,2.8,0,4.2c0,1,0.1,2,0.4,3
	c0.1,0.2,0.1,0.4,0.2,0.7c0.3,0.8,0.9,1.4,1.7,1.7c0.5,0.2,0.9,0.4,1.4,0.6c0.5,0.2,1,0.5,1.4,0.9c0.3,0.3,0.5,0.7,0.6,1.2
	c0.1,0.8-0.5,1.5-1.3,1.6c-0.3,0-0.5,0-0.8,0c-4.5,0-9-0.1-13.5-0.1c-2.9,0-5.8,0.1-8.7,0.1c-0.3,0-0.7,0-1-0.1
	c-0.8-0.3-1.1-1.1-0.7-1.8c0.2-0.3,0.4-0.6,0.7-0.9c0.4-0.3,0.8-0.6,1.3-0.8c0.1,0,0.2-0.1,0.3-0.1c1.4-0.4,2.2-1.3,2.7-2.7
	c0.3-0.8,0.4-1.6,0.5-2.4c0.1-0.8,0.1-1.6,0.1-2.4c0-9.5,0-18.9,0-28.4c0-1.5-0.7-2.7-2-3.4c-0.7-0.4-1.5-0.6-2.3-0.7
	c-1-0.1-2-0.1-3,0.2c-1.2,0.4-2,1.1-2.5,2.3c-0.3,0.7-0.3,1.4-0.4,2.1c0,0.3,0,0.7,0,1c0,7.7,0.1,15.4,0,23.1
	c0,5.1-2.3,9.2-6.5,12.2c-1.9,1.3-4,2.2-6.2,2.7c-1.8,0.5-3.7,0.7-5.6,0.9c-1.2,0.1-2.4,0.1-3.6,0.1c-2.9-0.1-5.7-0.4-8.5-1.4
	c-2.3-0.8-4.4-1.9-6.2-3.5c-2.9-2.5-4.7-5.7-5.5-9.4c-0.3-1.3-0.4-2.7-0.4-4.1c0-7,0-14,0-21c0.1-0.7-0.2-1.1-0.8-1.5
	c-0.4-0.2-0.7-0.4-1.1-0.6c-2-1-4.1-1.6-6.3-2.1c-2.2-0.5-4.4-0.8-6.6-0.9c-0.4,0-0.7-0.1-1.1-0.1c-0.2,0-0.4,0.1-0.4,0.3
	c0,0.3,0,0.5,0,0.8c0,6.9,0,13.8,0,20.6c0,4.4,0,8.8,0,13.2c0,1.6,0.6,2.8,1.7,3.9c0.5,0.5,1.2,1,1.9,1.3c0.2,0.1,0.4,0.2,0.6,0.3
	c0.5,0.3,1,0.7,1.1,1.3c0.2,0.5,0,1-0.5,1.3c-0.3,0.2-0.6,0.2-0.9,0.3c-0.3,0-0.5,0-0.8,0c-8.1,0-16.2-0.1-24.3-0.1
	c-4.6,0-9.2,0-13.8,0.1c-0.2,0-0.4,0-0.6,0c-0.6-0.1-1-0.5-1-1c-0.1-0.8,0.4-1.7,1.2-2c0.2-0.1,0.4-0.1,0.5-0.2
	c1.9-0.5,2.8-1.8,2.8-3.7c0-1-0.2-1.9-0.6-2.8c-1.9-4.3-3.8-8.6-5.7-12.9c-1.1-2.5-2.3-5.1-3.4-7.6c-0.1-0.1-0.1-0.3-0.2-0.4
	c-0.2,0.1-0.3,0.3-0.4,0.5c-2.5,4.7-4.9,9.3-7.4,14c-1.1,2.2-2.3,4.3-3.4,6.5c-0.4,0.7-0.7,1.4-1,2.2c-0.1,0.3-0.2,0.5-0.3,0.8
	c-0.2,0.8-0.1,1.5,0.4,2.1c0.3,0.5,0.7,0.8,1.1,1.2c0.3,0.3,0.5,0.5,0.8,0.8c0.2,0.3,0.4,0.6,0.5,0.9c0.2,0.6,0,1.1-0.5,1.5
	c-0.4,0.3-0.8,0.4-1.2,0.4c-0.3,0-0.5,0-0.8,0c-4.6,0-9.2,0-13.7,0c-0.2,0-0.4,0-0.6,0c-0.3,0-0.3,0-0.3,0.3
	c-0.1,1.1-0.1,2.1-0.2,3.2c-0.5,4.8-2.3,9.1-5.4,12.8c-1.7,2-3.6,3.7-5.7,5.3c-2.8,2.2-5.8,4-8.9,5.7c-1.8,1-3.6,1.9-5.5,2.9
	c-0.1,0.1-0.3,0.1-0.3,0.2c-0.3,0-0.7,0-1,0c0-0.2-0.2-0.2-0.3-0.3c-0.4-0.3-0.6-0.7-0.8-1.2c-0.1-0.5,0-1.1,0.5-1.3
	c0.1-0.1,0.2-0.1,0.4-0.2c5.2-2.9,8.5-7.3,10.2-13c0.6-2.1,1-4.2,1.1-6.4c0.1-1.6,0.2-3.2,0.1-4.9c0-1.9-0.3-3.7-0.6-5.5
	c-0.6-3.2-1.5-6.4-2.7-9.5c-0.7-1.8-1.5-3.4-2.3-5.2c-1.8-4.1-3.7-8.2-5.5-12.3c-0.6-1.3-1-2.7-1.4-4c-0.8-2.4-1.4-4.9-1.9-7.3
	c-0.3-1.8-0.6-3.6-0.6-5.4c0.1-6,1.9-11.4,5.5-16.2c2-2.6,4.3-4.8,6.8-6.9c3.1-2.5,6.5-4.6,10-6.5c1.1-0.6,2.1-1.2,3.3-1.7
	c0.1,0,0.1-0.1,0-0.2c0.3,0,0.6,0,0.8,0c0,0.2,0.2,0.2,0.3,0.3c0.5,0.2,0.8,0.6,0.9,1.1c0.2,0.6,0,1.1-0.5,1.6
	c-0.2,0.2-0.4,0.3-0.6,0.4c-1.7,1.1-3.3,2.4-4.7,3.9c-2.3,2.5-3.9,5.4-4.9,8.6c-0.6,1.9-0.9,3.9-1.1,5.9c-0.2,1.6-0.2,3.2-0.2,4.9
	c0,3.4,0.4,6.8,1.3,10.1c0.9,3.5,2.2,6.9,3.6,10.3c1.1,2.7,2.4,5.3,3.6,8c1.6,3.5,3.1,7.1,4.3,10.8c0.4,1.2,0.8,2.4,1.1,3.7
	c0,0.2,0.1,0.4,0.2,0.6c0.3-0.1,0.3-0.3,0.4-0.5c1.3-2.5,2.6-4.9,3.9-7.4c5.3-10.1,10.7-20.1,16-30.2c0.4-0.8,0.8-1.6,1.3-2.3
	c0.3-0.5,0.6-0.9,1-1.3c0.3-0.3,0.6-0.5,1-0.7c0.7-0.3,1.4-0.2,2,0.1c0.4,0.3,0.8,0.6,1,1c0.3,0.5,0.6,1,0.8,1.5
	c2,4.4,3.9,8.8,5.9,13.2c3.9,8.9,7.9,17.8,11.8,26.7c0.6,1.3,1.5,2.3,2.8,2.9c1,0.4,2,0.6,3,0.6c1.1,0,2-0.4,2.7-1.3
	c0.8-1,1.2-2.1,1.3-3.3c0-0.5,0-1,0-1.5c0-10.6,0-21.2,0-31.9c0-0.2,0-0.4,0-0.6c0-0.5-0.3-0.8-0.8-0.8c-0.6,0-1.1,0-1.7,0
	c-3,0.2-5.9,0.9-8.7,1.8c-1.3,0.4-2.6,0.9-3.8,1.5c-0.9,0.4-1.7,0.8-2.5,1.3c-0.4,0.2-0.8,0.5-1.3,0.6c-0.2,0-0.4,0.1-0.5,0.1
	c-0.6,0-1.1-0.4-1.1-1c0-0.3,0-0.5,0.1-0.8c0.1-0.3,0.2-0.5,0.3-0.8c0.9-1.7,1.7-3.3,2.5-5.1c0.4-0.9,1.1-1.3,2-1.3
	c2.4,0,4.8,0,7.3,0c12.4,0.1,24.7,0.1,37.1,0.1c5.7,0,11.5,0,17.2,0c0.9,0,1.7,0,2.6-0.1c0.4,0,0.7,0,1,0.1c0.8,0.3,1,1.1,0.5,1.7
	c-0.2,0.3-0.5,0.5-0.9,0.7c-0.3,0.2-0.6,0.3-0.9,0.4c-1.2,0.6-2,1.5-2.4,2.8c-0.3,0.8-0.4,1.7-0.4,2.5c-0.1,3.4-0.1,6.7-0.1,10.1
	c0,4.8,0.1,9.6,0.1,14.4c0,1.1,0.2,2.2,0.6,3.3c0.9,2.4,2.6,4,4.9,5.1c1.2,0.5,2.4,0.8,3.7,1c0.9,0.1,1.9,0.2,2.8,0.1
	c1,0,1.9-0.2,2.9-0.5c1.8-0.6,3.2-1.6,4.3-3.1c1-1.3,1.6-2.8,2-4.4c0.3-1,0.4-2.1,0.4-3.2c0-7.1,0-14.2,0-21.3c0-0.4,0-0.7,0-1.1
	c0-1.1-0.1-2.2-0.5-3.3c-0.5-1.4-1.5-2.4-2.9-3c-0.6-0.2-1-0.6-1.3-1.1c-0.2-0.5-0.1-0.9,0.3-1.1c0.4-0.2,0.8-0.3,1.2-0.4
	c0.2,0,0.4,0,0.6,0c14-0.1,27.9-0.2,41.9-0.3c2,0,4,0,5.9,0.2c2.4,0.2,4.7,0.6,7,1.5c0.9,0.4,1.8,0.8,2.7,1.4
	c2.1,1.4,3.6,3.3,4.3,5.8c0.7,2.5,0.9,5.1,0.3,7.7c-0.6,2.7-2.1,4.9-4.3,6.6c-2.2,1.7-4.7,2.6-7.4,2.8c-0.4,0-0.7,0.1-1.1,0.1
	c0,0,0,0-0.1,0c0,0.1,0,0.1,0.1,0.2c1.3,0.9,2.4,2,3.4,3.2c0.8,1,1.5,2,2,3.1c0.5,1,1.1,1.9,1.7,2.9c1.5,2.2,3.2,4.2,5.4,5.8
	c1.1,0.8,2.3,1.6,3.5,2.2c0.7,0.4,1.4,0.7,2.1,0.9c0.3,0.1,0.6,0.2,0.9,0.2c0.5,0,0.9-0.2,1.1-0.7c0.1-0.2,0.1-0.4,0.1-0.5
	c0-0.2,0-0.5,0-0.7c0-8.4,0.1-16.9,0-25.3c0-4.9-1.8-9-5.2-12.5c-0.5-0.5-1-0.9-1.6-1.4c-0.4-0.3-0.9-0.7-1.2-1.2
	c-0.2-0.3-0.4-0.6-0.4-0.9c-0.1-0.6,0.1-1,0.7-1.2c0.2-0.1,0.4-0.1,0.7-0.1c0.7,0,1.3,0.1,1.9,0.3c4.2,1.3,8.3,3,12.2,5.1
	c3.1,1.7,6,3.7,8.7,6c6.4,5.2,12.8,10.5,19.2,15.8c0.2,0.1,0.4,0.3,0.5,0.4c0.2,0.1,0.3,0,0.3-0.2c0-0.1,0-0.3,0-0.4
	c0-6.5,0-13,0-19.5c0-1-0.4-1.9-1-2.6c-0.6-0.6-1.3-1.1-2.1-1.5c-0.3-0.1-0.5-0.2-0.7-0.4c-0.3-0.1-0.5-0.3-0.7-0.6
	c-0.3-0.5-0.2-1,0.2-1.4c0.3-0.3,0.8-0.4,1.2-0.5c0.2,0,0.4,0,0.6,0c3.9,0.1,7.8,0.1,11.6,0c0.8,0,1.5,0.3,1.9,1.1
	C517,31.9,517,32.2,517,32.5z"/>
<path style="fill:#FFFFFF;" d="M64.4,43c1-0.2,2-0.4,2.9-0.5c1.5-0.3,3.1-0.5,4.6-0.5c1.7,0,3.3,0.2,4.9,0.7
	c0.9,0.3,1.7,0.7,2.4,1.2c0.6,0.5,1.1,1,1.4,1.8c0,0.1,0.1,0.2,0.2,0.3c0.9,1.6,1.1,3.3,0.7,5.1c-0.3,1.4-0.9,2.6-1.6,3.8
	c-1.3,2.1-3,3.9-5,5.5c-1.8,1.5-3.8,2.7-5.9,3.8c-2.1,1.2-4.3,2.3-6.6,3.2c0-0.3,0.2-0.5,0.3-0.7c1.1-1.7,1.9-3.5,2.6-5.5
	c0.4-1.3,0.8-2.7,1-4.1c0-0.2,0.1-0.4,0.2-0.5c2-1.1,4-2.4,5.7-4c0.4-0.4,0.8-0.8,1.1-1.2c0.2-0.3,0.4-0.6,0.6-0.9
	c0.1-0.2,0.2-0.5,0.2-0.7c0-0.2-0.1-0.3-0.3-0.3c-0.4,0-0.8-0.1-1.2-0.1c-1.1,0-2.2,0.1-3.3,0.2c-1,0.1-2,0.2-3,0.4
	c-0.6,0.1-1.1,0.2-1.7,0.3c-2.7,0.6-5.3,1.3-8,2c-4.5,1.3-8.9,2.7-13.2,4.5c-3.8,1.5-7.6,2.9-11.5,4.2c-3.5,1.1-7,2.2-10.5,3.1
	c-0.8,0.2-1.5,0.3-2.3,0.6c-0.2-0.1-0.4,0-0.6,0.1c-1.8,0.4-3.7,0.8-5.5,1c-2,0.3-4,0.5-6,0.3c-0.8-0.1-1.6-0.2-2.4-0.5
	c-2.2-0.8-3.6-2.3-4.3-4.4c-0.2-0.5-0.3-1-0.3-1.5c0-0.2,0-0.4-0.3-0.4c0-0.6,0-1.1,0-1.7c0.2-0.1,0.2-0.2,0.3-0.4
	c0.3-1.7,1-3.1,1.9-4.5c1.2-1.8,2.6-3.3,4.3-4.6c2-1.7,4.3-3.1,6.6-4.4c2.2-1.2,4.5-2.2,6.9-3.2c0.1,0,0.2-0.1,0.3-0.1
	c-0.1,0.2-0.2,0.5-0.4,0.7c-1.1,1.9-1.9,4-2.4,6.1c-0.2,0.9-0.4,1.9-0.6,2.9c-0.1,0.1-0.3,0.1-0.4,0.2c-1.9,1.2-3.7,2.5-5.4,4
	c-1,0.9-2,1.9-2.8,3c-0.2,0.3-0.4,0.5-0.5,0.8c-0.1,0.2,0,0.4,0.3,0.5c0.2,0.1,0.4,0.1,0.6,0.1c0.9,0,1.8,0,2.6,0
	c1.6-0.1,3.2-0.4,4.8-0.7c0.3-0.1,0.7,0,0.9-0.2c0.5-0.1,0.9-0.2,1.4-0.3c2.3-0.5,4.5-1.2,6.7-1.9c3.7-1.2,7.3-2.5,11-3.8
	c0.2-0.1,0.4-0.1,0.5-0.2c0.5-0.2,1.1-0.4,1.6-0.6c5.5-2,11.1-3.9,16.7-5.6c0.1,0,0.3-0.1,0.4-0.2c0.2,0.1,0.4,0,0.7-0.1
	c1.9-0.5,3.7-1.1,5.6-1.5C62.5,43.5,63.5,43.2,64.4,43z"/>
<path style="fill:#FFFFFF;" d="M175.8,38.1c0.3,0,0.5-0.2,0.7-0.4c0.3-0.3,0.7-0.6,1-0.9c3.9-3.2,8.3-5.3,13.2-6.4
	c1.9-0.4,3.7-0.6,5.6-0.6c1.9-0.1,3.8,0.1,5.6,0.4c1.4,0.2,2.9,0.5,4.3,0.7c0.7,0.1,1.4,0.1,2.1,0c0.7-0.1,1.4-0.3,2.1-0.6
	c0.5-0.3,0.9-0.5,1.4-0.7c0.3-0.1,0.6-0.3,0.9-0.3c0.6-0.1,1.1,0.1,1.6,0.5c0.3,0.4,0.5,0.8,0.7,1.2c0.3,0.9,0.6,1.8,0.9,2.7
	c0.9,2.9,1.8,5.8,2.8,8.8c0.1,0.5,0.1,0.9-0.1,1.3c-0.2,0.5-0.6,0.7-1.1,0.6c-0.5,0-1-0.3-1.4-0.6c-0.3-0.3-0.6-0.6-0.9-0.9
	c-0.6-0.7-1.1-1.3-1.7-2c-1.1-1.2-2.3-2.4-3.6-3.3c-2.5-1.8-5.2-2.8-8.2-3.3c-1.5-0.2-3-0.3-4.5-0.2c-1.2,0-2.4,0.2-3.5,0.6
	c-2.7,0.8-4.7,2.4-5.9,4.9c-0.7,1.3-1.1,2.8-1.4,4.2c-0.3,1.7-0.5,3.4-0.6,5.2c-0.1,2-0.1,3.9-0.1,5.9c0,2.3,0.1,4.7,0.4,7
	c0.3,2,0.7,3.9,1.4,5.7c0.4,1.1,1,2.1,1.6,3.1c1.3,1.8,3,3,5.1,3.6c2.1,0.6,4.2,0.7,6.3,0.3c3.3-0.7,5.3-2.7,6.1-5.9
	c0.4-1.4,0.4-2.8,0-4.2c-0.7-2.7-2.4-4.4-5-5.1c-0.5-0.1-1-0.2-1.6-0.3c-0.3,0-0.6-0.1-0.8-0.3c-0.9-0.6-0.8-1.8,0-2.3
	c0.3-0.2,0.6-0.3,0.9-0.3c0.3,0,0.5,0,0.8,0c5.1,0,10.3,0,15.4,0c1.3,0,2.3-0.5,3.1-1.5c0.3-0.4,0.5-0.8,0.7-1.2
	c2.6-5,5.3-9.9,7.9-14.9c1.5-2.8,3-5.6,4.5-8.4c0.2-0.4,0.4-0.7,0.6-1.1c0.3-0.6,0.8-1.1,1.3-1.4c1.1-0.7,2.2-0.6,3.1,0.3
	c0.5,0.5,0.8,1.1,1.1,1.7c0.7,1.5,1.3,3,2,4.5c5,11.4,10.1,22.7,15.2,34c0.4,0.9,0.8,1.8,1.3,2.7c0.8,1.5,1.9,2.5,3.4,3.3
	c0.3,0.2,0.6,0.3,0.9,0.5c0.4,0.2,0.7,0.6,0.8,1c0.2,0.6,0,1.2-0.6,1.5c-0.2,0.1-0.5,0.2-0.8,0.2c-0.2,0-0.4,0-0.6,0
	c-4.8,0-9.5,0-14.3,0c0,0-0.1,0-0.1,0c-0.9,0.1-1.6-0.7-1.2-1.8c0.2-0.5,0.6-0.9,1.1-1.1c0.1-0.1,0.3-0.1,0.5-0.1
	c0.2,0,0.3-0.1,0.5-0.1c1.4-0.5,2.4-1.5,2.5-3.3c0-1-0.2-1.9-0.6-2.8c-0.6-1.3-1.2-2.7-1.8-4c-2.5-5.6-5-11.2-7.5-16.8
	c-0.1-0.2-0.2-0.4-0.3-0.6c-0.2,0.1-0.3,0.3-0.3,0.4c-1.6,3-3.2,6.1-4.8,9.1c-2,3.8-4,7.6-6,11.4c-0.4,0.7-0.7,1.4-1,2.2
	c-0.1,0.3-0.2,0.6-0.3,0.9c-0.2,0.7,0,1.4,0.4,2.1c0.3,0.5,0.7,0.8,1,1.2c0.2,0.2,0.4,0.4,0.6,0.6c0.2,0.3,0.4,0.6,0.5,0.9
	c0.2,0.6,0,1.1-0.5,1.5c-0.3,0.3-0.7,0.4-1.2,0.4c-0.3,0-0.5,0-0.8,0c-5.8,0-11.5,0-17.3,0c-1.4,0-2.7,0.2-4,0.6
	c-1.2,0.4-2.3,0.6-3.5,0.7c-2.2,0.3-4.4,0.4-6.5,0.3c-6-0.3-11.5-2-16.4-5.3c-0.6-0.4-1.2-0.8-1.7-1.3c-0.2-0.2-0.5-0.4-0.8-0.4
	c-0.1,0-0.2,0-0.3,0.1c-0.1,0.2-0.1,0.4-0.2,0.5c-0.4,1-0.8,2-1.2,3c0,0,0,0.1-0.1,0.1c-0.5,1.2-1.4,1.8-2.8,1.7
	c-1.5-0.1-3-0.1-4.5-0.2c-3.6-0.1-7.1-0.1-10.7-0.1c-4.9,0-9.8,0-14.7,0.1c-3.7,0-7.4,0.1-11.1,0.2c-0.6,0-1.2,0-1.7,0
	c-0.1,0-0.2,0-0.3,0c-0.5-0.1-0.9-0.2-1-0.7c-0.2-0.6-0.1-1.1,0.4-1.5c0.2-0.2,0.5-0.3,0.7-0.4c0.4-0.2,0.9-0.4,1.4-0.5
	c1.1-0.4,1.9-1.1,2.3-2.2c0.1-0.4,0.2-0.9,0.3-1.3c0-0.4,0-0.9,0-1.3c0-8.2,0-16.3,0-24.5c0-0.8,0-1.7-0.2-2.5
	c-0.1-0.3-0.2-0.6-0.3-0.9c-0.1-0.2-0.2-0.4-0.3-0.5c-1-1-2-1.8-3.2-2.5c-1.6-0.9-3.3-1.6-5.1-2.2c-3.2-1.1-6.6-1.9-9.9-2.4
	c-1.4-0.2-2.8-0.4-4.2-0.5c-1.2-0.1-2.4-0.1-3.6,0.2c-0.5,0.1-0.9,0.3-1.4,0.5c-0.3,0.2-0.5,0.3-0.7,0.5c-0.9,0.8-1.2,1.9-1,3.1
	c0.2,0.8,0.5,1.5,1,2.1c0.6,0.8,1.3,1.5,2.1,2.1c1.6,1.3,3.3,2.3,5.1,3.1c0.7,0.3,1.5,0.7,2.2,1c3.8,1.6,7.2,3.7,10.4,6.3
	c1.6,1.4,3.1,2.9,4.2,4.7c1,1.6,1.8,3.3,2.2,5.2c0.4,2.3,0.3,4.6-0.5,6.9c-0.7,2-2,3.6-3.7,4.8c-1.5,1.1-3.1,1.8-4.9,2.4
	c-1.9,0.6-3.9,1-5.9,1.1c-2.4,0.2-4.7,0.3-7.1,0.1c-1.2-0.1-2.3-0.2-3.5-0.3c-1.2-0.1-2.4-0.3-3.7-0.3c-1.3,0-2.7,0-4,0.1
	c-1.1,0-2.3,0.2-3.4,0.5c-0.2,0-0.4,0.1-0.5,0.1c-0.7,0.2-1.3,0-1.8-0.5c-0.2-0.2-0.4-0.5-0.6-0.8c-1.7-3.1-3.5-6.2-5.2-9.3
	c-0.6-1.1-1.2-2.2-1.7-3.3c-0.2-0.4-0.3-0.8-0.2-1.2c0-0.3,0.1-0.6,0.3-0.9c0.3-0.5,0.8-0.6,1.3-0.4c0.3,0.1,0.5,0.3,0.7,0.5
	c1.6,1.3,3.2,2.7,4.9,3.9c1.9,1.5,3.9,2.9,6,4.1c1.5,0.9,3,1.6,4.7,2c0.9,0.2,1.8,0.3,2.7,0.5c0.8,0.2,1.7,0.3,2.6,0.2
	c1.8-0.1,3.5-0.5,5.1-1.4c0.7-0.4,1.3-0.8,1.9-1.4c0.8-0.9,1.3-2,1.2-3.3c0-0.7-0.3-1.3-0.6-1.9c-0.4-0.7-0.8-1.2-1.4-1.8
	c-0.8-0.8-1.6-1.5-2.5-2.1c-1.5-1-3.1-1.9-4.7-2.8c-3-1.6-5.9-3.3-8.8-5c-1.6-0.9-3.1-2-4.6-3.2c-1.1-0.9-2.1-1.9-2.9-3
	c-0.9-1.2-1.6-2.5-1.9-4c-0.1-0.3-0.1-0.7-0.1-1c-0.2-3.1,0.7-5.9,2.9-8.1c0.8-0.8,1.7-1.5,2.7-2c1.7-0.9,3.6-1.5,5.5-1.9
	c2.2-0.5,4.5-0.7,6.8-0.6c2.7,0,5.4,0.1,8.2,0.1c2.7,0.1,5.3,0.2,7.9,0.4c1.5,0.1,3,0.3,4.4,0.5c0.6,0.1,1.2,0.1,1.8,0.2
	c1.9,0.1,3.9,0.1,5.8,0.2c11.5,0.2,22.9,0.1,34.4,0c0.9,0,1.9,0,2.8-0.1c0.5,0,1,0.1,1.4,0.4c0.3,0.3,0.6,0.6,0.9,0.9
	c0.3,0.4,0.5,0.8,0.6,1.2c0.7,1.6,1.3,3.2,2,4.8C175.7,38,175.7,38,175.8,38.1z M164.3,53.6C164.3,53.6,164.3,53.6,164.3,53.6
	c0,2.4,0,4.8,0,7.2c0,0.4,0,0.7-0.2,1.1c-0.3,0.6-0.8,0.9-1.4,0.7c-0.5-0.1-1-0.4-1.4-0.7c-0.8-0.8-1.8-1.4-2.7-2.1
	c-1.6-1-3.3-1.9-5.1-2.7c-1.4-0.6-2.8-1.1-4.2-1.4c-0.3-0.1-0.6-0.1-0.9-0.1c-0.5,0.1-0.8,0.4-0.9,0.9c0,0.2,0,0.3,0,0.5
	c0,4.2,0,8.4,0,12.6c0,0.2,0,0.5,0.1,0.7c0.3,1.4,1.1,2.3,2.5,2.7c0.8,0.2,1.6,0.3,2.3,0.2c1.3-0.1,2.6-0.1,3.9-0.3
	c2.4-0.3,4.6-0.9,6.9-1.7c2.4-0.9,4.7-2.1,6.6-3.8c0.5-0.4,0.9-0.8,1.3-1.2c0.6-0.7,0.7-1.4,0.3-2.2c0-0.1-0.1-0.2-0.1-0.3
	c-1.1-2.4-1.7-5-1.9-7.6c-0.2-2.3-0.1-4.5,0.3-6.7c0.4-2.3,1.2-4.5,2.7-6.4c0.1-0.1,0.1-0.2,0.2-0.3c0.2-0.2,0.2-0.4,0.1-0.7
	c-0.1-0.5-0.4-0.9-0.8-1.3c-3-2.5-6.4-4.2-10.1-5.4c-2.3-0.7-4.7-1.1-7.1-1.2c-1.2-0.1-2.4-0.1-3.5,0.1c-0.6,0.1-1.3,0.2-1.9,0.5
	c-0.9,0.4-1.4,1.1-1.6,2.1c-0.1,0.4-0.1,0.9-0.1,1.3c0,3.9,0,7.9,0,11.8c0,0,0,0.1,0,0.1c0,0.6,0.3,0.9,0.9,0.9
	c0.3,0,0.5-0.1,0.8-0.1c2.2-0.5,4.2-1.4,6.1-2.5c2-1.1,3.8-2.4,5.7-3.6c0.3-0.2,0.6-0.4,0.9-0.6c0.2-0.1,0.5-0.3,0.8-0.3
	c0.6-0.1,1,0,1.3,0.5c0.1,0.2,0.2,0.4,0.2,0.6c0.1,0.5,0.1,1,0.1,1.5C164.3,49,164.3,51.3,164.3,53.6z"/>
<path style="fill:#FFFFFF;" d="M22.7,70c0.3,0.1,0.4,0.3,0.6,0.5c1.1,1.2,2.3,2.3,3.7,3.3c1.2,0.9,2.5,1.6,3.8,2.3
	c0.2,0.1,0.3,0.2,0.5,0.3c0.1,0.1,0.1,0.2,0.1,0.2c-1.2,0.2-2.4,0.4-3.6,0.5c-1.4,0.2-2.8,0.3-4.2,0.5c-1.3,0.1-2.7,0.3-4,0.4
	C18.7,77.9,18,78,17.2,78c-2.1,0.1-4.2,0.2-6.3,0.2c-0.5,0-1-0.1-1.5-0.2c-1.5-0.5-2.7-2.1-2.4-4.2c0.3-1.7,1.8-3,3.5-3.1
	c0.1,0,0.1,0,0.2,0c2.7,0,5.5-0.1,8.2-0.3C20.2,70.3,21.5,70.2,22.7,70z"/>
<path style="fill:#FFFFFF;" d="M61.5,37.9c-0.3-0.1-0.4-0.3-0.5-0.5c-1.7-2-3.6-3.7-5.8-5.1c-0.4-0.3-0.9-0.5-1.4-0.8
	c-0.1-0.1-0.2-0.1-0.3-0.3c1.5-0.2,3-0.4,4.6-0.5c1.6-0.1,3.3-0.3,4.9-0.4c2.6-0.1,5.3-0.2,7.9-0.2c1.7,0,3.2,1.2,3.6,2.8
	c0.5,1.7-0.4,3.5-2,4.3c-0.6,0.3-1.2,0.4-1.8,0.4c-1.5,0-3,0-4.5,0C64.7,37.8,63.1,37.8,61.5,37.9z"/>
</svg>
