<svg width="120" height="81" viewBox="0 0 120 81" fill="none" xmlns="http://www.w3.org/2000/svg">
<path fill-rule="evenodd" clip-rule="evenodd" d="M80.2032 4.66892C77.0328 2.81161 74.2481 2.3003 71.3354 2.56507C70.1907 2.66913 68.9922 3.03568 67.535 3.48138C67.3492 3.53821 67.1592 3.59632 66.9645 3.65534C65.2839 4.16494 63.3494 4.7079 61.0866 4.88893L61.0468 4.89212H58.9535L58.9137 4.88893C56.6509 4.7079 54.7164 4.16494 53.0358 3.65534C52.8411 3.59632 52.6511 3.53821 52.4653 3.48138C51.0081 3.03568 49.8096 2.66913 48.6648 2.56507C45.7522 2.3003 42.9675 2.81161 39.7971 4.66892C34.2227 7.93461 30.7938 12.8285 28.616 18.7758C27.5363 21.7245 27.1205 24.4262 26.9751 26.3887C26.9024 27.369 26.8975 28.1617 26.9103 28.7043C26.9166 28.9756 26.9274 29.184 26.9363 29.3219C26.9408 29.3908 26.9448 29.442 26.9475 29.4746L26.9505 29.5093L26.9511 29.5153L26.9512 29.5165L26.9524 29.5277L27.0917 31.3475C27.5649 37.5284 34.7198 40.7998 39.8533 37.2011C42.3355 35.4611 44.6101 33.9378 45.9572 33.2103C45.9572 33.2103 45.9572 33.2103 45.9572 33.2103L46.0152 33.179C50.288 30.8716 53.6216 29.0715 58.8923 28.5355L58.9427 28.5304H61.0576L61.108 28.5355C66.3787 29.0715 69.7123 30.8716 73.9851 33.179L74.0331 33.205L74.043 33.2103C75.3901 33.9377 77.6648 35.461 80.147 37.2011C85.2805 40.7998 92.4354 37.5284 92.9086 31.3475L93.0479 29.5277L93.0491 29.5165L93.0497 29.5093L93.0528 29.4746C93.0555 29.442 93.0595 29.3908 93.0639 29.3219C93.0729 29.184 93.0836 28.9756 93.09 28.7043C93.1028 28.1617 93.0978 27.369 93.0252 26.3887C92.8798 24.4262 92.464 21.7245 91.3843 18.7758C89.2065 12.8285 85.7776 7.93461 80.2032 4.66892ZM95.0404 29.7024L95.0412 29.694L95.0458 29.6412C95.0496 29.5965 95.0545 29.5327 95.0598 29.4509C95.0704 29.2873 95.0824 29.0514 95.0895 28.7513C95.1036 28.1514 95.0977 27.2933 95.0197 26.241C94.864 24.1384 94.4194 21.2479 93.2623 18.0881C90.9665 11.8185 87.2828 6.49846 81.2141 2.94325C77.6866 0.876715 74.4855 0.270465 71.1544 0.573281C69.7878 0.697509 68.3739 1.13143 66.9521 1.56778C66.7629 1.62585 66.5736 1.68396 66.3842 1.7414C64.7416 2.23948 62.9887 2.72588 60.9664 2.89212H59.0339C57.0116 2.72588 55.2587 2.23948 53.6161 1.7414C53.4267 1.68396 53.2374 1.62585 53.0481 1.56778C51.6263 1.13143 50.2125 0.697509 48.8459 0.573281C45.5148 0.270465 42.3136 0.876715 38.7862 2.94325C32.7175 6.49846 29.0338 11.8185 26.738 18.0881C25.5809 21.2479 25.1363 24.1384 24.9805 26.241C24.9026 27.2933 24.8967 28.1514 24.9108 28.7513C24.9179 29.0514 24.9299 29.2873 24.9405 29.4509C24.9458 29.5327 24.9507 29.5965 24.9545 29.6412L24.9591 29.694L24.9599 29.7024L25.0975 31.5002C25.6943 39.296 34.6566 43.2866 41.0013 38.8388C43.4988 37.088 45.6797 35.6332 46.9076 34.9701L46.9174 34.9648C46.9174 34.9648 46.9175 34.9648 46.9174 34.9648C51.2002 32.6521 54.22 31.03 59.0446 30.5304H60.9557C65.7802 31.03 68.8 32.652 73.0827 34.9647C73.0827 34.9647 73.0828 34.9647 73.0827 34.9647L73.0926 34.97C74.3205 35.6331 76.5015 37.0881 78.999 38.8388C85.3437 43.2866 94.306 39.296 94.9028 31.5002L95.0404 29.7024Z" fill="white"/>
<path fill-rule="evenodd" clip-rule="evenodd" d="M59.9933 6.20997C53.8271 6.12775 48.0689 6.21118 41.7039 7.51682L41.6965 7.51835L41.6889 7.51965C38.5337 8.06725 31.7551 11.457 30.41 20.6805C29.7496 25.2091 31.7109 28.5196 34.4727 30.8505C37.2512 33.1956 40.8161 34.5213 43.2269 35.0168L43.0256 35.9964C40.4978 35.4768 36.7658 34.0944 33.8277 31.6147C30.8729 29.1209 28.6981 25.4898 29.4205 20.5362C30.84 10.8023 38.023 7.14445 41.5103 6.5357C47.9806 5.20931 53.8243 5.12774 60 5.20997C66.1757 5.12774 72.0193 5.20931 78.4895 6.5357C81.9769 7.14445 89.1599 10.8023 90.5794 20.5362C91.3018 25.4898 89.1269 29.1209 86.1722 31.6147C83.2341 34.0944 79.5021 35.4768 76.9743 35.9964L76.773 35.0168C79.1838 34.5213 82.7487 33.1956 85.5272 30.8505C88.2889 28.5196 90.2503 25.2091 89.5898 20.6805C88.2448 11.457 81.4662 8.06725 78.3109 7.51965L78.3034 7.51835L78.296 7.51682C71.931 6.21118 66.1728 6.12775 60.0066 6.20997L59.9933 6.21015L59.9933 6.20997Z" fill="white"/>
<path d="M63.1188 25.5082C63.1188 26.1734 61.7225 26.7127 60.0001 26.7127C58.2777 26.7127 56.8813 26.1734 56.8813 25.5082C56.8813 24.843 58.2777 24.3037 60.0001 24.3037C61.7225 24.3037 63.1188 24.843 63.1188 25.5082Z" fill="white"/>
<path d="M75.0009 26.562C75.0009 28.225 73.6528 29.5732 71.9897 29.5732C70.3267 29.5732 68.9785 28.225 68.9785 26.562C68.9785 24.8989 70.3267 23.5508 71.9897 23.5508C73.6528 23.5508 75.0009 24.8989 75.0009 26.562Z" fill="white"/>
<path d="M81.3242 22.0024C81.3242 23.6655 79.976 25.0136 78.313 25.0136C76.6499 25.0136 75.3018 23.6655 75.3018 22.0024C75.3018 20.3394 76.6499 18.9912 78.313 18.9912C79.976 18.9912 81.3242 20.3394 81.3242 22.0024Z" fill="white"/>
<path d="M88.0351 18.9912C88.0351 20.6542 86.6869 22.0024 85.0239 22.0024C83.3609 22.0024 82.0127 20.6542 82.0127 18.9912C82.0127 17.3281 83.3609 15.98 85.0239 15.98C86.6869 15.98 88.0351 17.3281 88.0351 18.9912Z" fill="white"/>
<path d="M83.3031 12.4953C83.3031 13.7782 82.2631 14.8182 80.9802 14.8182C79.6972 14.8182 78.6572 13.7782 78.6572 12.4953C78.6572 11.2124 79.6972 10.1724 80.9802 10.1724C82.2631 10.1724 83.3031 11.2124 83.3031 12.4953Z" fill="white"/>
<path d="M71.9896 18.7643C71.9896 20.0473 70.9496 21.0873 69.6667 21.0873C68.3838 21.0873 67.3438 20.0473 67.3438 18.7643C67.3438 17.4814 68.3838 16.4414 69.6667 16.4414C70.9496 16.4414 71.9896 17.4814 71.9896 18.7643Z" fill="white"/>
<path d="M77.3236 14.8185C77.3236 16.1015 76.2836 17.1415 75.0007 17.1415C73.7177 17.1415 72.6777 16.1015 72.6777 14.8185C72.6777 13.5356 73.7177 12.4956 75.0007 12.4956C76.2836 12.4956 77.3236 13.5356 77.3236 14.8185Z" fill="white"/>
<path fill-rule="evenodd" clip-rule="evenodd" d="M41.8408 27.2671C45.7225 27.2671 48.8691 24.1204 48.8691 20.2388C48.8691 16.3571 45.7225 13.2104 41.8408 13.2104C37.9592 13.2104 34.8125 16.3571 34.8125 20.2388C34.8125 24.1204 37.9592 27.2671 41.8408 27.2671ZM41.8408 28.2671C46.2747 28.2671 49.8691 24.6727 49.8691 20.2388C49.8691 15.8049 46.2747 12.2104 41.8408 12.2104C37.4069 12.2104 33.8125 15.8049 33.8125 20.2388C33.8125 24.6727 37.4069 28.2671 41.8408 28.2671Z" fill="white"/>
<path fill-rule="evenodd" clip-rule="evenodd" d="M40.2638 14.0137C40.2638 14.0137 40.7203 13.7646 41.8408 13.7646C42.9613 13.7646 43.4178 14.0137 43.4178 14.0137V16.4248C43.4178 17.6602 44.4193 18.6617 45.6547 18.6617H48.0659C48.0659 18.6617 48.3149 19.0975 48.3149 20.2387C48.3149 21.3593 48.0659 21.8158 48.0659 21.8158H45.6547C44.4193 21.8158 43.4178 22.8172 43.4178 24.0527V26.4638C43.4178 26.4638 42.982 26.7128 41.8408 26.7128C40.7203 26.7128 40.2638 26.4638 40.2638 26.4638V24.0527C40.2638 22.8172 39.2623 21.8158 38.0269 21.8158H35.6157C35.6157 21.8158 35.3667 21.3593 35.3667 20.2387C35.3667 19.1182 35.6157 18.6617 35.6157 18.6617H38.0269C39.2623 18.6617 40.2638 17.6602 40.2638 16.4248V14.0137ZM41.8408 21.5185C42.5476 21.5185 43.1206 20.9455 43.1206 20.2387C43.1206 19.5319 42.5476 18.959 41.8408 18.959C41.134 18.959 40.561 19.5319 40.561 20.2387C40.561 20.9455 41.134 21.5185 41.8408 21.5185Z" fill="white"/>
</svg>
