<svg width="531" height="108" viewBox="0 0 531 108" fill="none" xmlns="http://www.w3.org/2000/svg">
<path d="M518.5 79V72.1915H516V71H522.5V72.1915H519.667V79H518.5Z" fill="white"/>
<path d="M523.167 79V71H525.167L527.167 77.4681L529.167 71H531V79H529.833V72.1915L527.833 79H526.667L524.5 72.1915V79H523.167Z" fill="white"/>
<path d="M516.995 32.487C516.763 32.8822 516.424 33.1425 516 33.3053C515.345 33.5563 514.745 33.905 514.183 34.3234C513.774 34.6302 513.406 34.9882 513.09 35.3926C512.588 36.0389 512.318 36.7641 512.309 37.5823C512.305 37.7683 512.309 37.9542 512.309 38.1402C512.309 50.9667 512.309 63.7932 512.309 76.6197C512.309 76.9452 512.328 77.2706 512.3 77.596C512.226 78.5212 511.658 78.907 510.77 78.6746C510.431 78.5863 510.119 78.4282 509.817 78.2562C509.329 77.9773 508.892 77.6332 508.455 77.2892C505.526 74.9973 502.653 72.6402 499.789 70.2693C492.467 64.207 485.159 58.1354 477.846 52.0685C477.595 51.8593 477.354 51.6408 477.098 51.4409C476.814 51.2224 476.642 51.3014 476.577 51.6641C476.559 51.7803 476.549 51.8965 476.545 52.0127C476.54 52.1754 476.54 52.3382 476.54 52.5009C476.54 59.121 476.54 65.7458 476.545 72.3659C476.545 73.1563 476.535 73.9419 476.679 74.7276C476.842 75.6202 477.265 76.3315 477.99 76.8661C478.59 77.3124 479.26 77.6332 479.943 77.9261C480.157 78.0191 480.371 78.1028 480.585 78.2004C480.85 78.3213 481.045 78.5119 481.166 78.7769C481.426 79.344 481.375 79.9624 480.668 80.2924C480.11 80.5528 479.515 80.6458 478.916 80.7108C477.409 80.8643 475.903 80.8736 474.387 80.7992C472.737 80.7201 471.091 80.6132 469.45 80.4459C465.75 80.0693 462.072 79.5579 458.493 78.5072C456.396 77.8889 454.36 77.1125 452.416 76.1084C448.028 73.8397 444.611 70.5482 442.086 66.3176C440.906 64.3372 439.948 62.2498 439.037 60.1438C438.195 58.2052 437.479 56.22 436.889 54.1884C436.745 53.6957 436.629 53.1982 436.638 52.6822C436.652 51.9523 436.94 51.6176 437.661 51.5199C438.177 51.4502 438.679 51.5711 439.185 51.6408C439.669 51.7105 440.143 51.8128 440.622 51.9012C441.966 52.1615 443.272 51.9988 444.495 51.413C446.773 50.3205 448.279 48.5399 448.985 46.1085C449.102 45.7087 449.162 45.2903 449.195 44.8766C449.297 43.4121 449.325 41.9523 449.083 40.4972C448.93 39.5535 448.683 38.6376 448.288 37.7636C447.251 35.4903 445.476 34.1932 443.044 33.7469C442.723 33.6865 442.403 33.626 442.077 33.6167C440.496 33.5609 438.916 33.5284 437.34 33.5888C436.986 33.6028 436.647 33.6679 436.308 33.7516C435.466 33.9701 434.941 34.5047 434.727 35.3462C434.643 35.6855 434.583 36.0249 434.569 36.3782C434.504 38.0519 434.453 39.7208 434.448 41.3945C434.425 48.8282 434.467 56.2665 434.546 63.7002C434.56 65.0949 434.555 66.4896 434.578 67.8843C434.597 68.9071 434.713 69.9252 434.992 70.9155C435.053 71.1386 435.132 71.3571 435.215 71.5756C435.531 72.3985 436.089 72.9843 436.917 73.319C437.391 73.5096 437.861 73.7095 438.335 73.9001C438.855 74.1093 439.339 74.3789 439.734 74.7927C440.046 75.1181 440.273 75.49 440.315 75.9503C440.394 76.7964 439.855 77.4519 439.009 77.5263C438.753 77.5495 438.497 77.5356 438.242 77.5356C433.732 77.4984 429.223 77.4426 424.718 77.4333C421.812 77.4287 418.907 77.4891 416.001 77.5263C415.652 77.5309 415.308 77.5309 414.978 77.3822C414.207 77.0335 413.923 76.3083 414.276 75.5412C414.434 75.1972 414.681 74.9182 414.969 74.6765C415.364 74.3464 415.81 74.1 416.285 73.9047C416.373 73.8722 416.457 73.835 416.545 73.8118C417.954 73.4352 418.772 72.4636 419.251 71.1386C419.53 70.3669 419.692 69.5719 419.776 68.763C419.855 67.9773 419.906 67.1916 419.906 66.3967C419.901 56.9406 419.901 47.48 419.906 38.024C419.906 36.4805 419.181 35.3694 417.875 34.6163C417.177 34.2165 416.41 34.0398 415.62 33.9515C414.62 33.8399 413.625 33.8585 412.649 34.1374C411.417 34.4907 410.599 35.2718 410.167 36.4712C409.915 37.1546 409.827 37.8659 409.785 38.5865C409.767 38.9352 409.771 39.2838 409.771 39.6325C409.771 47.3452 409.832 55.0625 409.757 62.7751C409.711 67.9076 407.493 71.9847 403.272 74.9322C401.385 76.2478 399.274 77.0846 397.056 77.6565C395.229 78.126 393.37 78.3957 391.492 78.5258C390.283 78.6095 389.079 78.6513 387.87 78.6235C384.974 78.5584 382.129 78.1818 379.376 77.2427C377.089 76.4617 374.992 75.3366 373.165 73.742C370.278 71.2316 368.498 68.0656 367.661 64.3511C367.359 63.0075 367.229 61.6501 367.229 60.274C367.233 53.2819 367.233 46.2852 367.233 39.2931C367.377 38.5818 366.992 38.1495 366.438 37.8241C366.08 37.6102 365.713 37.4103 365.336 37.2336C363.337 36.2806 361.236 35.6158 359.074 35.1509C356.889 34.6813 354.681 34.3885 352.45 34.2769C352.078 34.2583 351.71 34.2118 351.338 34.1932C351.125 34.1839 350.971 34.3048 350.948 34.5093C350.92 34.7604 350.92 35.0207 350.92 35.2764C350.915 42.1523 350.911 49.0327 350.906 55.9086C350.906 60.3251 350.934 64.737 350.901 69.1535C350.887 70.7341 351.51 71.9801 352.584 73.0633C353.133 73.6119 353.779 74.021 354.49 74.3278C354.704 74.4208 354.923 74.4952 355.127 74.6067C355.676 74.9089 356.09 75.332 356.262 75.9503C356.415 76.4989 356.225 76.9684 355.732 77.252C355.443 77.4147 355.127 77.4984 354.802 77.5124C354.546 77.5263 354.291 77.5263 354.035 77.5263C345.946 77.5077 337.861 77.4752 329.772 77.4659C325.169 77.4612 320.567 77.5031 315.969 77.5217C315.783 77.5217 315.597 77.5356 315.411 77.5124C314.839 77.4519 314.44 77.0428 314.365 76.471C314.258 75.6295 314.737 74.8066 315.551 74.458C315.718 74.3836 315.904 74.3464 316.081 74.2906C317.931 73.756 318.842 72.5379 318.847 70.604C318.851 69.6137 318.628 68.6746 318.228 67.7681C316.318 63.4631 314.416 59.1536 312.506 54.8486C311.376 52.301 310.241 49.7626 309.112 47.215C309.047 47.0662 308.977 46.9221 308.907 46.7733C308.666 46.8524 308.633 47.0848 308.545 47.2568C306.076 51.9104 303.617 56.5687 301.153 61.227C300.014 63.3795 298.879 65.5366 297.736 67.6891C297.364 68.3864 297.052 69.1117 296.759 69.8462C296.657 70.1019 296.587 70.3762 296.508 70.6412C296.281 71.4082 296.453 72.1102 296.866 72.7704C297.155 73.226 297.531 73.6026 297.922 73.9698C298.191 74.2255 298.461 74.4812 298.717 74.7509C298.954 75.0066 299.135 75.3041 299.247 75.6435C299.442 76.2385 299.275 76.7546 298.759 77.1079C298.387 77.3636 297.959 77.4752 297.513 77.5031C297.257 77.5216 297.001 77.517 296.746 77.517C292.166 77.517 287.587 77.517 283.008 77.517C282.822 77.517 282.636 77.5124 282.45 77.517C282.176 77.5263 282.148 77.5495 282.134 77.8424C282.073 78.907 282.032 79.9763 281.915 81.0409C281.399 85.8387 279.637 90.1018 276.527 93.807C274.844 95.8107 272.92 97.5541 270.846 99.1394C268.033 101.292 265.026 103.128 261.929 104.834C260.121 105.834 258.285 106.778 256.43 107.689C256.313 107.749 256.155 107.759 256.09 107.907C255.765 107.907 255.439 107.907 255.114 107.907C255.1 107.731 254.928 107.726 254.826 107.652C254.417 107.34 254.18 106.931 254.054 106.443C253.928 105.959 254.091 105.392 254.598 105.137C254.723 105.071 254.844 105.002 254.965 104.937C260.121 101.998 263.491 97.661 265.151 91.98C265.765 89.8786 266.113 87.7308 266.299 85.5504C266.439 83.9279 266.467 82.3054 266.448 80.6783C266.43 78.8141 266.165 76.9777 265.83 75.146C265.239 71.8964 264.375 68.7211 263.175 65.6435C262.492 63.8909 261.669 62.2033 260.907 60.4878C259.08 56.4014 257.239 52.3242 255.435 48.2285C254.863 46.936 254.454 45.5739 254.031 44.2257C253.273 41.8129 252.617 39.3722 252.139 36.8896C251.795 35.1091 251.511 33.3238 251.53 31.5015C251.599 25.4857 253.394 20.0603 257.034 15.2533C258.996 12.6638 261.302 10.4184 263.831 8.3914C266.955 5.8856 270.33 3.76567 273.835 1.84564C274.914 1.25522 275.983 0.655505 277.108 0.158065C277.192 0.120873 277.178 0.0604367 277.145 0C277.424 0 277.703 0 277.982 0C277.973 0.241747 278.205 0.199906 278.326 0.260343C278.787 0.502089 279.089 0.86006 279.228 1.35285C279.405 1.98046 279.228 2.50115 278.735 2.91026C278.54 3.07297 278.312 3.19385 278.094 3.32867C276.355 4.42117 274.756 5.6857 273.352 7.18731C271.041 9.65592 269.451 12.5383 268.47 15.76C267.88 17.6986 267.522 19.6791 267.331 21.6921C267.178 23.3146 267.104 24.9371 267.085 26.5642C267.053 29.9766 267.522 33.3238 268.405 36.6153C269.349 40.1392 270.637 43.5423 272.046 46.9035C273.175 49.5999 274.44 52.2359 275.653 54.8951C277.266 58.419 278.773 61.9894 279.991 65.6714C280.39 66.8848 280.758 68.1028 281.065 69.3441C281.111 69.544 281.176 69.7393 281.232 69.9392C281.488 69.8601 281.511 69.623 281.604 69.451C282.91 66.9917 284.207 64.5231 285.509 62.0638C290.851 51.9941 296.192 41.9291 301.539 31.8641C301.952 31.083 302.38 30.3113 302.808 29.5396C303.068 29.07 303.38 28.6377 303.765 28.2611C304.068 27.9682 304.402 27.7218 304.793 27.5545C305.486 27.2616 306.15 27.3174 306.792 27.7032C307.22 27.9589 307.545 28.3169 307.833 28.7167C308.173 29.1909 308.424 29.7162 308.661 30.2462C310.613 34.6349 312.571 39.0235 314.519 43.4121C318.466 52.2963 322.403 61.1852 326.35 70.074C326.927 71.3711 327.852 72.3566 329.158 72.9517C330.121 73.3887 331.148 73.584 332.203 73.5933C333.291 73.6026 334.184 73.1935 334.858 72.3148C335.616 71.3292 336.067 70.2321 336.141 68.9908C336.169 68.5026 336.155 68.0145 336.155 67.5264C336.155 56.9081 336.155 46.2898 336.155 35.6669C336.155 35.4577 336.164 35.2485 336.15 35.0393C336.118 34.5372 335.811 34.2211 335.313 34.1932C334.756 34.1607 334.198 34.1839 333.64 34.2211C330.655 34.4257 327.768 35.1184 324.932 36.0156C323.626 36.4294 322.343 36.9082 321.092 37.4661C320.223 37.852 319.372 38.275 318.559 38.7771C318.163 39.0235 317.759 39.2513 317.299 39.3536C317.117 39.3954 316.931 39.4326 316.75 39.4326C316.132 39.428 315.699 39.0235 315.639 38.4098C315.616 38.1541 315.616 37.8938 315.704 37.652C315.797 37.3917 315.895 37.1267 316.025 36.885C316.917 35.2299 317.75 33.547 318.526 31.8315C318.921 30.9529 319.605 30.5345 320.567 30.5438C322.984 30.5624 325.402 30.5624 327.819 30.581C340.186 30.6739 352.547 30.6786 364.913 30.6879C370.655 30.6925 376.396 30.6693 382.133 30.646C382.993 30.6414 383.853 30.6042 384.709 30.5577C385.067 30.5391 385.406 30.5763 385.736 30.6972C386.536 30.9901 386.754 31.7525 386.243 32.4359C386.015 32.7381 385.713 32.9566 385.383 33.1332C385.099 33.2867 384.802 33.4261 384.509 33.5656C383.305 34.1421 382.547 35.0905 382.152 36.3503C381.891 37.1779 381.761 38.0193 381.743 38.884C381.664 42.2545 381.622 45.6204 381.654 48.9909C381.701 53.8026 381.743 58.6096 381.785 63.4213C381.794 64.5464 381.947 65.6435 382.347 66.6988C383.249 69.0884 384.918 70.7481 387.233 71.7709C388.409 72.2916 389.651 72.5891 390.92 72.7518C391.864 72.8727 392.817 72.9285 393.77 72.9006C394.751 72.8727 395.713 72.7286 396.647 72.431C398.433 71.8638 399.869 70.8039 400.966 69.2883C401.938 67.9541 402.538 66.4524 402.919 64.8578C403.17 63.8165 403.286 62.7565 403.286 61.6826C403.277 54.5976 403.281 47.5079 403.281 40.4228C403.281 40.0509 403.295 39.679 403.309 39.3071C403.351 38.182 403.207 37.0849 402.803 36.0249C402.254 34.6023 401.287 33.5888 399.855 33.0589C399.265 32.8404 398.879 32.4452 398.605 31.9199C398.363 31.4643 398.488 31.0644 398.916 30.7716C399.269 30.5298 399.683 30.4415 400.097 30.3903C400.283 30.3671 400.469 30.3764 400.655 30.3718C414.62 30.2648 428.59 30.1532 442.556 30.0463C444.532 30.0324 446.508 30.0556 448.474 30.2509C450.859 30.4833 453.211 30.8878 455.466 31.7571C456.401 32.1198 457.293 32.5614 458.13 33.11C460.278 34.514 461.728 36.448 462.454 38.9026C463.202 41.4456 463.309 44.0351 462.728 46.6199C462.114 49.3535 460.65 51.5664 458.414 53.254C456.224 54.9044 453.746 55.8063 451.022 56.0527C450.65 56.0852 450.283 56.1178 449.911 56.1503C449.892 56.1503 449.873 56.1689 449.855 56.1782C449.841 56.2572 449.887 56.2991 449.943 56.3409C451.25 57.2149 452.342 58.3214 453.309 59.5487C454.071 60.5157 454.76 61.5385 455.355 62.617C455.889 63.5933 456.447 64.5603 457.051 65.4948C458.507 67.7402 460.278 69.6835 462.463 71.2502C463.597 72.0638 464.741 72.8541 465.982 73.4956C466.666 73.849 467.368 74.1511 468.093 74.3975C468.376 74.4952 468.669 74.5788 468.976 74.5742C469.525 74.5696 469.841 74.3603 470.036 73.8397C470.101 73.6677 470.134 73.4817 470.157 73.3004C470.18 73.0679 470.18 72.8355 470.18 72.603C470.18 64.1698 470.231 55.7319 470.162 47.2987C470.12 42.4451 468.316 38.2518 464.922 34.765C464.434 34.2629 463.899 33.8213 463.346 33.3936C462.905 33.0496 462.491 32.6776 462.165 32.2174C461.961 31.9338 461.793 31.6316 461.733 31.2783C461.631 30.6972 461.859 30.2927 462.407 30.0556C462.626 29.9626 462.853 29.9394 463.086 29.9301C463.746 29.8976 464.378 30.0277 465.006 30.2183C469.241 31.4968 473.309 33.1751 477.168 35.3555C480.25 37.0988 483.155 39.0886 485.908 41.3201C492.351 46.5455 498.748 51.8221 505.117 57.1359C505.294 57.2847 505.475 57.4334 505.666 57.5636C505.833 57.6798 505.973 57.5961 505.991 57.3823C506.001 57.2428 506.001 57.1034 506.001 56.9639C506.001 50.4553 505.996 43.9514 506.005 37.4428C506.005 36.4247 505.643 35.5879 504.968 34.8673C504.373 34.2304 503.653 33.7655 502.867 33.4029C502.616 33.2867 502.365 33.1658 502.119 33.0356C501.849 32.8915 501.621 32.6916 501.454 32.4312C501.128 31.9292 501.207 31.3852 501.654 30.9901C502.002 30.6832 502.425 30.5717 502.872 30.5345C503.081 30.5159 503.29 30.5252 503.499 30.5298C507.381 30.6228 511.263 30.6553 515.14 30.5345C515.987 30.5066 516.605 30.8785 517 31.6223C516.995 31.9292 516.995 32.2081 516.995 32.487Z" fill="white"/>
<path d="M175.75 38.0846C176.038 38.0753 176.219 37.8847 176.415 37.7266C176.754 37.4477 177.079 37.1455 177.419 36.8666C181.291 33.6262 185.708 31.5295 190.654 30.5161C192.505 30.1349 194.374 29.9535 196.256 29.8838C198.144 29.8187 200.013 30.0326 201.877 30.3255C203.323 30.5533 204.755 30.8461 206.21 31.0228C206.907 31.1065 207.6 31.1158 208.297 31.06C209.023 30.9996 209.711 30.8043 210.352 30.451C210.817 30.1906 211.296 29.9489 211.77 29.7025C212.058 29.5537 212.36 29.4422 212.686 29.3771C213.318 29.2422 213.83 29.4375 214.248 29.9163C214.559 30.2697 214.75 30.6974 214.903 31.139C215.21 32.0409 215.517 32.9382 215.805 33.8447C216.731 36.7643 217.637 39.6885 218.572 42.6034C218.716 43.059 218.692 43.4728 218.502 43.8865C218.293 44.3421 217.944 44.5467 217.442 44.5188C216.907 44.4862 216.461 44.2398 216.075 43.8912C215.768 43.6122 215.489 43.2961 215.215 42.98C214.652 42.3291 214.109 41.6643 213.541 41.0181C212.444 39.7768 211.245 38.6518 209.892 37.6941C207.423 35.9414 204.676 34.8815 201.686 34.4352C200.185 34.2074 198.683 34.1283 197.168 34.1934C195.982 34.2399 194.811 34.4119 193.667 34.7466C190.985 35.5323 188.999 37.1687 187.726 39.6606C187.047 40.9949 186.614 42.4128 186.326 43.8772C185.987 45.588 185.824 47.3221 185.74 49.0655C185.647 51.0413 185.629 53.0125 185.643 54.9883C185.657 57.336 185.754 59.6791 186.052 62.0129C186.303 63.9747 186.707 65.9041 187.428 67.7544C187.851 68.8422 188.381 69.8696 189.069 70.8134C190.371 72.6079 192.086 73.8259 194.211 74.4396C196.298 75.0439 198.432 75.1555 200.557 74.7232C203.816 74.0584 205.819 72.0361 206.665 68.8422C207.033 67.4475 207.061 66.0482 206.712 64.6395C206.038 61.9524 204.341 60.2881 201.696 59.5722C201.184 59.4327 200.65 59.363 200.12 59.2793C199.813 59.2328 199.529 59.1445 199.278 58.9678C198.428 58.3774 198.451 57.1919 199.325 56.634C199.604 56.4573 199.911 56.3504 200.245 56.3411C200.501 56.3318 200.757 56.3318 201.012 56.3318C206.149 56.3318 211.287 56.3086 216.424 56.3458C217.735 56.3551 218.702 55.839 219.483 54.8581C219.776 54.4955 220.003 54.091 220.222 53.6819C222.853 48.7214 225.489 43.761 228.125 38.8005C229.617 35.9926 231.114 33.1846 232.607 30.3812C232.802 30.014 232.997 29.6421 233.22 29.2887C233.564 28.7309 233.983 28.2334 234.531 27.8615C235.605 27.127 236.698 27.2246 237.623 28.1404C238.125 28.6379 238.464 29.2469 238.743 29.8885C239.399 31.3761 240.045 32.8638 240.705 34.3515C245.731 45.7043 250.761 57.0524 255.893 68.3541C256.307 69.2606 256.726 70.1672 257.209 71.0412C258.009 72.4963 259.157 73.5656 260.617 74.328C260.924 74.4907 261.24 74.6441 261.528 74.8347C261.905 75.0811 262.193 75.4112 262.342 75.8482C262.555 76.4619 262.346 77.0198 261.779 77.3266C261.533 77.4614 261.263 77.5404 260.979 77.5451C260.77 77.5497 260.561 77.5544 260.352 77.5544C255.587 77.559 250.821 77.559 246.056 77.559C246.01 77.559 245.963 77.559 245.917 77.5637C245.02 77.6474 244.304 76.8756 244.689 75.7599C244.875 75.2252 245.243 74.8533 245.759 74.6255C245.907 74.5604 246.066 74.5233 246.224 74.4768C246.377 74.4303 246.54 74.3931 246.693 74.3466C248.139 73.891 249.111 72.8961 249.185 71.0412C249.222 70.0742 248.99 69.149 248.609 68.2657C248.027 66.9222 247.437 65.5879 246.847 64.249C244.359 58.6517 241.868 53.0543 239.38 47.4569C239.287 47.2477 239.19 47.0432 239.087 46.8247C238.846 46.8898 238.818 47.0943 238.739 47.2431C237.14 50.2835 235.545 53.3239 233.95 56.369C231.956 60.1719 229.961 63.9747 227.967 67.7776C227.6 68.4796 227.284 69.2002 227 69.9347C226.884 70.2369 226.8 70.5484 226.726 70.8692C226.558 71.6176 226.726 72.2964 227.112 72.9333C227.391 73.3936 227.763 73.7748 228.158 74.142C228.381 74.3466 228.604 74.5512 228.804 74.7743C229.041 75.0346 229.222 75.3275 229.32 75.6715C229.492 76.2527 229.32 76.7873 228.823 77.1453C228.474 77.401 228.074 77.5125 227.651 77.5358C227.395 77.5497 227.14 77.5451 226.884 77.5451C221.119 77.5497 215.354 77.5637 209.594 77.5451C208.204 77.5404 206.861 77.7403 205.554 78.1773C204.401 78.5632 203.211 78.7585 202.017 78.9258C199.845 79.2327 197.665 79.3163 195.48 79.2094C189.525 78.9258 184.025 77.229 179.065 73.8817C178.469 73.4772 177.898 73.0356 177.321 72.6079C177.079 72.4266 176.833 72.2499 176.531 72.1802C176.401 72.1476 176.294 72.1988 176.247 72.3196C176.178 72.4917 176.145 72.6776 176.075 72.845C175.68 73.8352 175.28 74.8254 174.88 75.8157C174.862 75.8575 174.843 75.8993 174.825 75.9412C174.299 77.1453 173.383 77.7078 172.072 77.6613C170.585 77.6055 169.102 77.5637 167.614 77.5079C164.058 77.3731 160.501 77.3824 156.949 77.3824C152.045 77.3824 147.14 77.4056 142.24 77.4475C138.544 77.48 134.848 77.5637 131.157 77.6195C130.576 77.6288 129.995 77.6009 129.413 77.5869C129.297 77.5823 129.181 77.5683 129.065 77.5544C128.609 77.4893 128.181 77.3498 128.037 76.857C127.875 76.2945 127.898 75.7506 128.391 75.3275C128.605 75.1462 128.842 75.0067 129.093 74.8812C129.534 74.6627 129.999 74.5279 130.464 74.3791C131.603 74.0165 132.384 73.2866 132.779 72.1523C132.928 71.7339 133.021 71.3015 133.044 70.8599C133.068 70.4182 133.091 69.9766 133.091 69.5349C133.095 61.3806 133.095 53.2217 133.091 45.0674C133.091 44.2305 133.086 43.3937 132.91 42.5709C132.84 42.2501 132.756 41.9386 132.617 41.6457C132.528 41.4598 132.426 41.2645 132.282 41.1204C131.301 40.158 130.25 39.2887 129.037 38.6239C127.4 37.7313 125.69 37.0246 123.928 36.4296C120.687 35.3371 117.368 34.5607 113.993 34.026C112.593 33.8029 111.185 33.6448 109.772 33.5379C108.563 33.4496 107.354 33.4682 106.169 33.7703C105.694 33.8912 105.234 34.0493 104.816 34.3096C104.56 34.4677 104.304 34.6351 104.086 34.8396C103.17 35.6811 102.845 36.7178 103.128 37.9358C103.309 38.7169 103.663 39.4142 104.128 40.0651C104.713 40.8833 105.429 41.5806 106.206 42.2129C107.763 43.4821 109.497 44.4723 111.306 45.3277C112.04 45.6764 112.789 45.9879 113.537 46.304C117.298 47.9125 120.78 49.9813 123.895 52.6452C125.508 54.0259 126.954 55.5647 128.126 57.3453C129.172 58.9306 129.957 60.6275 130.315 62.501C130.762 64.8301 130.641 67.1267 129.813 69.3629C129.074 71.362 127.782 72.9426 126.071 74.1932C124.592 75.2717 122.947 76.0156 121.208 76.5595C119.274 77.1639 117.289 77.5172 115.271 77.7032C112.905 77.9217 110.539 77.9774 108.168 77.8287C107.01 77.7543 105.852 77.6241 104.7 77.4939C103.477 77.3545 102.25 77.2243 101.018 77.229C99.6926 77.2336 98.3676 77.2383 97.0427 77.2894C95.9037 77.3312 94.7786 77.4986 93.6675 77.7682C93.4862 77.8101 93.3049 77.8566 93.1282 77.8984C92.4355 78.0751 91.8451 77.8798 91.3291 77.4103C91.0873 77.1918 90.8967 76.9268 90.7387 76.6385C89.0139 73.533 87.2426 70.4554 85.5783 67.3173C85.0018 66.2295 84.4207 65.1463 83.914 64.0259C83.7373 63.6354 83.6443 63.2355 83.6955 62.8078C83.7327 62.4824 83.821 62.1709 84.0023 61.892C84.3184 61.4085 84.8019 61.269 85.3366 61.4875C85.6248 61.6038 85.8479 61.8037 86.0804 61.9943C87.6843 63.3378 89.2975 64.6628 90.9572 65.9366C92.8725 67.4103 94.8251 68.8329 96.9171 70.0556C98.4095 70.925 99.9529 71.6641 101.65 72.0407C102.556 72.2406 103.477 72.3708 104.383 72.566C105.23 72.7473 106.08 72.8357 106.945 72.7938C108.73 72.7055 110.432 72.2732 112.008 71.4131C112.705 71.0319 113.342 70.567 113.877 69.9766C114.727 69.0375 115.146 67.9403 115.062 66.6618C115.016 65.9738 114.783 65.3462 114.453 64.7558C114.09 64.1003 113.621 63.5238 113.1 62.9938C112.333 62.2128 111.473 61.5387 110.571 60.9157C109.079 59.8836 107.503 58.991 105.894 58.1589C102.882 56.6015 99.9808 54.8488 97.0473 53.1473C95.4388 52.2128 93.9093 51.1529 92.482 49.9581C91.4081 49.0608 90.4132 48.0892 89.5718 46.9688C88.6699 45.7694 87.9725 44.4676 87.6703 42.98C87.6006 42.6406 87.5448 42.2919 87.5216 41.9479C87.3449 38.8284 88.1724 36.0669 90.4225 33.8168C91.2314 33.0079 92.1612 32.3524 93.1654 31.8038C94.8902 30.8601 96.7405 30.265 98.6605 29.8652C100.897 29.3957 103.165 29.2004 105.448 29.219C108.168 29.2422 110.887 29.2748 113.602 29.3492C116.252 29.4236 118.897 29.5398 121.538 29.7536C123.021 29.8745 124.5 30.0093 125.969 30.2371C126.564 30.3301 127.168 30.3719 127.772 30.3952C129.702 30.4603 131.626 30.53 133.556 30.5579C145.015 30.7346 156.471 30.6974 167.93 30.5904C168.86 30.5812 169.79 30.6183 170.715 30.5347C171.25 30.4882 171.724 30.6555 172.147 30.9717C172.486 31.2227 172.765 31.5342 172.998 31.8829C173.258 32.2687 173.458 32.6871 173.635 33.1195C174.299 34.728 174.973 36.3319 175.648 37.9358C175.671 37.973 175.717 38.0242 175.75 38.0846ZM164.281 53.6122C164.285 53.6122 164.285 53.6122 164.29 53.6122C164.29 56.0296 164.29 58.4425 164.29 60.8599C164.29 61.2318 164.281 61.6038 164.132 61.9524C163.876 62.5614 163.374 62.8264 162.728 62.6684C162.203 62.5428 161.715 62.3104 161.324 61.9338C160.501 61.1342 159.567 60.488 158.609 59.879C156.982 58.8423 155.271 57.959 153.491 57.2151C152.119 56.6433 150.715 56.1598 149.255 55.853C148.958 55.7879 148.66 55.7507 148.358 55.7879C147.847 55.853 147.512 56.1831 147.433 56.6898C147.41 56.8479 147.414 57.0152 147.414 57.1779C147.414 61.3806 147.414 65.5879 147.414 69.7906C147.414 70.023 147.424 70.2555 147.465 70.4833C147.735 71.9059 148.614 72.7752 149.971 73.1843C150.734 73.4121 151.524 73.454 152.319 73.4215C153.621 73.3657 154.913 73.2727 156.206 73.0867C158.558 72.7473 160.854 72.1988 163.081 71.3712C165.49 70.474 167.74 69.2839 169.715 67.6195C170.18 67.229 170.627 66.8292 171.031 66.3783C171.622 65.7274 171.766 65.0022 171.357 64.1979C171.315 64.1142 171.273 64.0305 171.236 63.9468C170.162 61.5247 169.506 58.991 169.316 56.3597C169.153 54.1096 169.209 51.8549 169.571 49.6187C169.948 47.2896 170.794 45.151 172.235 43.2682C172.305 43.1752 172.375 43.0822 172.449 42.9939C172.621 42.7987 172.626 42.5848 172.556 42.3431C172.416 41.8363 172.165 41.4272 171.747 41.0785C168.762 38.5913 165.392 36.834 161.687 35.695C159.367 34.9837 156.987 34.6025 154.564 34.4816C153.379 34.4259 152.193 34.4305 151.017 34.5793C150.371 34.6583 149.739 34.7978 149.144 35.0767C148.237 35.4998 147.698 36.2111 147.517 37.192C147.438 37.629 147.405 38.066 147.405 38.5077C147.4 42.4546 147.396 46.4063 147.391 50.3532C147.391 50.3997 147.391 50.4462 147.396 50.4927C147.424 51.1157 147.684 51.3667 148.316 51.3528C148.595 51.3481 148.865 51.297 149.139 51.2272C151.296 50.688 153.309 49.8186 155.234 48.7214C157.191 47.6057 159.069 46.3598 160.92 45.072C161.226 44.8582 161.538 44.6582 161.849 44.4583C162.086 44.3096 162.342 44.198 162.612 44.1283C163.174 43.9841 163.625 44.1701 163.904 44.6768C164.002 44.8582 164.067 45.0581 164.127 45.258C164.267 45.7322 164.271 46.2203 164.271 46.7084C164.281 49.0097 164.281 51.3109 164.281 53.6122Z" fill="white"/>
<path d="M21.6745 73.0799C20.0978 71.3019 18.8231 69.524 17.8167 67.5783C17.6489 67.2764 17.4812 67.3435 17.2464 67.4105C14.9988 67.9808 12.7512 68.484 10.4365 68.6182C8.18887 68.7524 5.97482 68.6518 3.89494 67.5783C1.47961 66.3035 0.271941 64.2572 0.0371164 61.5735C-0.231254 58.3866 0.976413 55.7029 2.98919 53.3211C5.13616 50.7716 7.78632 48.7588 10.6378 47.0479C12.617 45.8403 14.6969 44.8003 16.7096 43.6597C17.1793 43.3914 17.6154 43.0559 17.8838 42.8882C18.7224 43.6262 19.6617 44.3978 20.5339 45.2364C22.8822 47.5176 25.1633 49.8658 27.478 52.1805C28.3838 53.0863 29.256 53.992 30.1282 54.8978C30.7991 55.6022 30.7991 55.5687 31.8726 55.0319C27.3438 50.6709 22.8486 46.377 18.2863 41.9824C18.7224 41.3115 19.1921 40.5399 19.7288 39.7348C20.6346 40.6741 21.5068 41.5799 22.379 42.4856C26.1362 46.3434 29.8598 50.1677 33.617 53.992C33.8518 54.2268 34.0531 54.3275 34.355 54.1597C34.7911 53.9585 35.2272 53.7907 35.8646 53.5559C30.6314 48.7252 25.4652 43.9281 20.232 39.131C20.8023 38.4601 21.339 37.8227 21.7751 37.3195C22.6809 38.1581 23.5866 38.9297 24.4588 39.7684C28.585 43.861 32.7448 47.9201 36.8374 52.0463C37.5084 52.7508 38.0451 52.8514 38.8167 52.3818C39.0179 52.2811 39.2528 52.2141 39.5547 52.0799C39.1186 51.6438 38.716 51.2748 38.3135 50.9057C35.9317 48.8594 33.5499 46.8131 31.1681 44.7332C28.6186 42.4521 26.1026 40.1709 23.5531 37.8898C23.3518 37.722 23.1505 37.5208 23.0163 37.3195C22.6138 36.7492 22.6809 36.4473 23.1841 35.9776C23.6202 35.5751 24.0563 35.2061 24.5259 34.8035C24.593 34.8706 24.6601 34.8706 24.7272 34.9377C29.625 40.0032 34.5563 45.0687 39.4876 50.1677C39.8902 50.5703 40.2592 50.9393 40.6953 51.3083C40.7959 51.4089 40.9972 51.5096 41.0978 51.4425C41.8023 51.1741 42.5403 50.9057 43.3119 50.5703C37.3742 44.968 31.0339 39.9361 25.2975 34.1326C25.9349 33.6965 26.5387 33.2939 27.1761 32.8578C28.5515 34.2668 29.8598 35.6422 31.2017 36.984C35.462 41.3115 39.7224 45.639 43.9828 49.9329C44.0834 50.0335 44.3518 50.1342 44.486 50.0671C45.224 49.7987 45.962 49.4968 46.7001 49.2284C40.5275 43.5927 34.3886 37.9569 28.1825 32.254C28.954 31.885 29.6585 31.516 30.3965 31.1805C30.4972 31.147 30.732 31.2812 30.8662 31.4153C32.6441 33.2604 34.3886 35.1054 36.133 36.9169C39.8231 40.7748 43.5802 44.6326 47.3039 48.4904C47.5723 48.7923 47.8071 48.8594 48.1761 48.6917C48.9141 48.3562 49.6857 48.0879 50.5579 47.7524C44.3518 42.016 38.1793 36.3131 31.9061 30.5431C32.6106 30.3083 33.248 30.0735 33.8854 29.9393C34.0195 29.9058 34.2544 30.0735 34.3886 30.2077C37.5755 33.3946 40.7288 36.615 43.9157 39.8019C46.331 42.2508 48.7799 44.6661 51.1953 47.0815C51.4301 47.3163 51.5978 47.3498 51.8997 47.2157C52.5371 46.9473 53.208 46.7125 54.0132 46.4105C47.8742 40.7077 41.8358 35.1054 35.6633 29.369C36.5691 29.2348 37.3742 29.1006 38.1793 29C38.3135 29 38.4477 29.2013 38.5818 29.3355C42.8422 33.6629 47.1362 37.9904 51.3965 42.3179C52.5036 43.4249 53.577 44.5655 54.6841 45.7396C54.9189 45.9744 55.1202 46.0415 55.4221 45.9073C55.9924 45.6725 56.5962 45.4712 57.3007 45.2364C51.6649 39.869 46.0627 34.4681 40.4269 29.0335C41.2991 29.0335 42.1042 29.0335 42.9429 29.0335C43.077 29.0335 43.2112 29.1677 43.3454 29.2684C48.0755 34.0655 52.839 38.7955 57.4684 43.6597C58.3406 44.5655 59.0451 44.9345 60.1521 44.3307C60.454 44.1629 60.8231 44.0958 61.1921 43.9952C56.1601 39.131 51.1617 34.3003 46.1969 29.4696C47.5387 29.738 48.847 29.8722 49.9205 30.9792C53.9461 35.139 58.1058 39.1981 62.1985 43.3243C62.4668 43.5927 62.6681 43.5927 63.0036 43.5256C66.0227 42.6869 69.0419 41.9153 72.1953 41.7476C73.8055 41.647 75.4157 41.7812 76.9588 42.2508C80.1793 43.2236 82.0914 45.6725 82.3598 49.1278C82.6282 52.6502 81.387 55.6358 79.0723 58.2524C77.2272 60.2987 75.0467 61.9425 72.6649 63.2508C70.0818 64.6933 67.3981 65.968 64.748 67.3099C64.6138 67.377 64.3454 67.3435 64.2112 67.2093C62.3326 65.2971 60.454 63.385 58.609 61.4057C56.5627 59.2252 54.5834 57.0447 52.6042 54.8307C52.3023 54.4952 52.0675 54.3946 51.6649 54.6294C51.2959 54.8307 50.8598 54.9313 50.3566 55.1661C54.9189 59.5942 59.3806 63.9888 63.9093 68.3834C63.5739 68.9201 63.2384 69.4904 62.8358 70.1613C62.1985 69.4904 61.6617 68.853 61.0243 68.2827C56.8646 64.4585 53.0739 60.2987 49.2831 56.1054C49.0147 55.8035 48.7799 55.77 48.4109 55.9042C47.7735 56.1725 47.1362 56.4409 46.3646 56.7093C51.5643 61.607 56.8646 66.27 62.1985 70.9665C61.6617 71.6374 61.125 72.2748 60.4876 73.0128C58.7432 71.3019 57.0323 69.6246 55.3886 67.9473C52.0675 64.5591 48.7464 61.1709 45.4588 57.7492C45.0898 57.3466 44.7544 57.2125 44.2847 57.5144C44.0163 57.6821 43.7144 57.7492 43.3454 57.9169C48.847 63.2173 54.3151 68.484 59.7831 73.7843C59.0451 74.4553 58.3406 75.0927 57.6697 75.6965C56.8646 74.9249 56.093 74.254 55.355 73.4824C50.8263 68.8195 46.331 64.123 41.8358 59.4601C41.0978 58.6885 41.0643 58.722 39.9908 59.2923C45.7608 64.861 51.4972 70.3962 57.2671 75.9984C56.5627 76.5016 55.8582 77.0048 55.0195 77.5751C54.4493 76.9712 53.9461 76.3674 53.3758 75.7971C48.2432 70.7652 43.1106 65.7668 38.0116 60.7348C37.609 60.3323 37.2735 60.1981 36.7703 60.5C36.6026 60.6006 36.3678 60.6677 36.0659 60.8019C42.2719 66.5048 48.4109 72.1406 54.617 77.8099C53.7448 78.2796 52.8726 78.7157 51.9668 79.1518C51.8662 79.2188 51.5643 79.0511 51.4636 78.9169C49.5179 76.9712 47.6058 75.0256 45.6937 73.0799C42.0707 69.4904 38.4812 65.8674 34.8582 62.278C33.986 61.4393 33.986 61.4393 32.8119 62.1102C38.8502 67.9473 44.855 73.7508 50.9604 79.6214C50.1889 79.8898 49.4844 80.1581 48.7464 80.3594C48.6122 80.393 48.4109 80.2252 48.2767 80.0911C44.855 76.7364 41.3997 73.3818 37.978 70.0607C35.6969 67.8466 33.3822 65.6997 31.1346 63.4521C30.6985 63.016 30.2959 62.8818 29.7592 63.1837C29.6585 63.2508 29.5579 63.2843 29.3231 63.3514C35.4285 69.1214 41.4668 74.8578 47.6394 80.6949C46.4652 80.8962 45.3917 81.0974 44.3183 81.2652C44.1841 81.2987 44.0163 81.131 43.8822 80.9968C40.6282 77.8099 37.4077 74.623 34.1537 71.4696C32.141 69.524 30.0946 67.6454 28.0483 65.7332C27.7128 65.3978 27.3774 65.0958 27.0755 64.7268C26.7735 64.3243 26.4381 64.2572 25.9684 64.6597C31.6042 70.2284 37.24 75.7636 42.9764 81.4329C42.2384 81.4665 41.6346 81.5 40.9972 81.5C40.3263 81.5 39.6553 81.4329 38.9509 81.3994C38.5148 81.3658 38.1457 81.1981 37.8438 80.8626C32.9125 75.9649 27.9477 71.1006 23.0163 66.2364C22.6809 65.901 22.3454 65.5319 21.8087 66.0351C26.8071 71.2013 32.0403 76.1326 37.2735 81.0974C37.24 81.1645 37.24 81.2316 37.2064 81.2652C35.6298 80.8291 34.0195 80.4601 32.4429 79.9569C31.5036 79.655 30.5978 79.1853 29.6585 78.8163C29.3902 78.7157 29.0882 78.6486 28.7863 78.6821C23.8886 79.5208 18.9572 80.1581 13.9924 80.3259C12.7847 80.3594 11.5771 80.3594 10.4029 80.2923C8.65852 80.1581 7.38376 78.6486 7.38376 76.8371C7.41731 75.1262 8.75916 73.6166 10.5036 73.516C12.0802 73.4489 13.6905 73.4824 15.2671 73.4153C17.3135 73.4824 19.4269 73.2812 21.6745 73.0799ZM65.0499 50.0335C65.6873 50.738 66.3247 51.4089 66.9285 52.1134C67.5994 52.9185 67.2975 53.8914 67.4317 54.9313C67.1969 54.6965 67.0627 54.5958 66.9285 54.4617C65.7544 53.2875 64.6138 52.0799 63.4397 50.9057C63.3055 50.7716 63.1378 50.6038 63.0371 50.6374C62.3662 50.8051 61.7288 51.0399 61.0243 51.2748C61.2592 51.476 61.3598 51.5767 61.494 51.7109C63.339 53.2875 65.1505 54.8978 66.9956 56.4744C67.2639 56.7093 67.3981 56.9441 67.331 57.3131C67.2639 57.6821 67.2639 58.0176 67.2304 58.4872C67.9684 58.0847 68.6058 57.7157 69.2096 57.3466C70.0818 56.8099 70.954 56.2732 71.7256 55.6022C72.732 54.7636 73.6713 53.8243 74.5771 52.8514C75.2144 52.147 75.5834 51.3083 75.617 50.3019C75.617 48.9936 75.4493 48.7588 74.1074 48.6246C73.8726 48.5911 73.6378 48.5575 73.4029 48.5575C70.585 48.6246 67.8007 49.2955 65.0499 50.0335ZM14.8646 52.4489C13.6569 53.2875 12.5834 53.992 11.5435 54.7636C9.93328 55.9712 8.39015 57.2796 7.28312 59.024C7.08185 59.3594 6.88057 59.6949 6.74638 60.0639C6.41092 61.0367 6.88057 61.7748 7.85341 61.8083C8.75916 61.8419 9.69846 61.8754 10.5707 61.7412C12.1473 61.5399 13.6905 61.2045 15.3007 60.9026C14.7304 58.1182 14.5962 55.3674 14.8646 52.4489ZM53.6441 53.9249C57.6697 57.5144 61.6617 61.0367 65.6537 64.5927C65.7208 64.4249 65.7879 64.2907 65.855 64.1565C66.1234 63.6534 66.0563 63.2843 65.5866 62.8818C64.6473 62.0431 63.7416 61.1374 62.8358 60.2652C60.5211 58.0176 58.24 55.77 55.9253 53.5559C55.7911 53.4217 55.5563 53.2875 55.4221 53.3211C54.8183 53.4553 54.2815 53.6901 53.6441 53.9249ZM66.7608 60.7684C67.1633 59.9968 67.0291 59.393 66.3582 58.8898C65.8215 58.4872 65.3854 58.0176 64.9157 57.5144C63.2048 55.7364 61.5275 53.9249 59.8167 52.147C59.6825 52.0128 59.4477 51.845 59.3135 51.8786C58.6761 52.0463 58.0387 52.3147 57.3678 52.5495C60.5211 55.3339 63.6409 58.0511 66.7608 60.7684ZM16.5755 45.8067C16.5084 45.8403 16.4748 45.8403 16.4077 45.8738C16.4748 46.0751 16.5084 46.3099 16.609 46.4441C17.5148 47.3834 18.4205 48.3227 19.3263 49.262C21.6745 51.6102 24.0563 53.9249 26.4045 56.2732C26.6394 56.508 26.8071 56.877 27.0419 56.9441C27.3438 57.0112 27.6793 56.7428 27.9812 56.6422C28.0148 56.6422 28.0148 56.5751 28.1154 56.4744C24.2911 52.9185 20.4333 49.3626 16.5755 45.8067ZM15.5691 49.2284C15.2671 49.7987 15.7703 50 15.9716 50.2348C18.3534 52.885 20.7687 55.5016 23.1841 58.1182C23.2512 58.2188 23.4525 58.2859 23.5866 58.2524C23.8886 58.1853 24.1905 58.0511 24.4588 57.9505C21.4732 55.0319 18.5211 52.147 15.5691 49.2284ZM15.6026 54.9649C15.5691 54.9984 15.5355 55.0319 15.502 55.0655C15.5355 55.1326 15.5691 55.1997 15.6026 55.2332C16.8438 56.6422 18.1186 58.0847 19.3598 59.4936C19.4269 59.5607 19.5946 59.6278 19.7288 59.5942C19.9972 59.5272 20.2991 59.4265 20.601 59.3259C18.9237 57.8163 17.2799 56.3738 15.6026 54.9649Z" fill="white"/>
<path d="M53.6441 32.0863C59.5818 31.3148 65.3518 31.0464 71.1553 31.516C71.7256 31.5496 72.2959 31.6167 72.8662 31.7509C74.7112 32.1534 75.8518 33.8978 75.5164 35.7093C75.1809 37.4873 73.5036 38.695 71.625 38.4601C68.3039 38.0576 64.9828 38.0576 61.6617 38.1918C61.5275 38.1918 61.4269 38.2253 61.2592 38.2589C61.8965 39.1311 62.5004 39.9362 63.1042 40.7748C59.716 38.1918 56.831 35.072 53.6441 32.0863Z" fill="white"/>
</svg>
