<svg width="609" height="184" viewBox="0 0 609 184" fill="none" xmlns="http://www.w3.org/2000/svg">
<g clip-path="url(#clip0_969_2798)">
<path d="M593.06 51.49C583.22 41.07 569.99 35.93 552.66 35.79V18.96H505.99V60.26C504.66 58.45 503.2 56.7 501.6 55.03C485.46 38.08 462.63 34.15 440.54 44.51C432.54 48.26 425.82 54.65 421.04 62.38V19.95H335.78V38.75H329.01V19.7L282.84 20.58V38.75H275.57V19.95H228.74L229.05 54.18C227.44 51.98 225.75 50.02 224.1 48.47C210.99 36.29 190.79 31.09 173.86 35.52C159.83 39.17 148.05 47.68 140.69 59.5C140.45 59.88 140.22 60.26 140 60.65V51.61H123.37C124.71 49.67 125.92 47.86 126.84 46.43C127.72 45.05 128.99 43.07 129.45 40.88H140V0L50.06 0.66L39.79 5.74C31.93 9.51 28.02 12.35 20.79 19.59C6.33 34.16 0.11 49.37 0 70.49C0 79.94 0.54 83.26 3.39 91.37C11.47 114.5 29.69 131.58 52.13 137.05C57.46 138.35 67.75 138.75 96.15 138.75L139.99 138.87V112.15C146.94 124.22 158.46 133.3 172.2 137.01H172.22C180.37 139.2 190.27 139.26 199.43 137.17C212.01 134.2 222.79 126.93 230.2 116.5C230.45 119.64 230.73 120.95 231.01 121.88L231.06 122.05C233.25 128.63 238.27 134.5 244.15 137.38C248.41 139.5 253.56 139.84 267.86 139.84H292.38V133.7C294.14 135.17 296.17 136.48 298.05 137.31C302.97 139.54 307.31 139.84 321.79 139.84H421.03V116.14C428.06 127.2 439.05 135.72 451.08 138.55C454.89 139.46 473.66 139.69 481.59 139.74L514.06 139.87L536.54 139.84C561.66 139.84 569.99 139.01 580.78 133.2C593.62 126.25 603.92 111.49 607.02 95.64C609.97 81.12 604.35 63.37 593.05 51.49H593.06ZM552.93 75.12C557.49 75.15 559.48 76.4 561.53 80.32C563.83 84.85 564.04 90.12 562.09 94.41C561.29 96.18 559.38 99.28 555.6 100.23C554.59 100.48 553.71 100.67 553.06 100.8L552.86 88.33C552.8 81.88 552.86 77.74 552.93 75.11V75.12ZM329.01 83.36V75.52H335.78V102.08H334.37C331.62 102.08 330.96 101.68 330.95 101.67C330.22 100.95 329 97.61 329 83.35L329.01 83.36ZM276.6 100.6C275.95 98.72 275.82 89.15 275.76 84.97L275.54 75.52H282.83C282.83 86.87 282.84 95.45 282.97 102.08H280.93C277.76 102.08 276.99 101.16 276.6 100.6ZM189.24 98.32C187.01 99.26 184.4 99.63 180.47 95.99C177.18 92.91 176.52 81.89 179.47 78.06C181.8 74.95 184.35 73.54 185.74 73.54C191.1 73.54 193.77 78.15 194.67 80.13C196.5 84.15 197.12 90.57 192.86 95.44L192.79 95.52C191.78 96.71 190.02 97.97 189.42 98.25L189.25 98.32H189.24Z" fill="white"/>
</g>
<path d="M248.064 130.663C244.006 128.684 240.345 124.429 238.762 119.679C237.97 117.106 237.475 103.251 237.277 71.782L236.881 27.4477H268.648V46.2502H284.481V68.0215H268.45L268.846 85.1417C269.044 99.392 269.439 102.559 270.924 104.736C273.101 108.002 276.565 109.585 281.513 109.585H285.471V132.346H268.45C254.694 132.346 250.637 131.95 248.064 130.663ZM301.701 130.466C299.425 129.476 296.753 127.299 295.664 125.814C291.013 119.283 290.914 117.502 290.914 71.4851V27.9425L306.55 27.6456L322.087 27.3487V46.2502H337.92V68.0215H322.087V83.3604C322.087 104.934 324.363 109.585 334.951 109.585H338.91V132.346H322.383C308.331 132.346 305.164 132.049 301.701 130.466ZM343.858 79.8967V27.4477H374.536V132.346H343.858V79.8967ZM384.432 89.7928V47.2398H414.12V132.346H384.432V89.7928ZM453.407 131.257C438.168 127.695 424.907 113.246 421.839 96.9179C418.474 79.0061 428.469 58.7192 444.303 51.2972C463.304 42.3907 482.898 45.6564 496.752 60.2036C505.263 69.1101 509.32 80.1936 508.331 92.0689L507.935 96.72H478.84C456.178 96.72 449.746 97.0169 449.746 98.0065C449.746 98.6003 450.637 101.074 451.725 103.449C454.793 110.179 456.673 110.574 483.887 110.574H507.143V132.346L482.205 132.247C468.45 132.148 455.486 131.752 453.407 131.257ZM479.434 76.9279C477.059 72.1778 471.517 68.3184 466.074 67.5267C461.027 66.735 454.199 70.0997 451.032 74.8498C446.975 80.8864 447.074 80.8864 465.085 80.8864H481.413L479.434 76.9279ZM514.07 79.4019V26.4581H545.738V43.2814H552.467C568.004 43.2814 579.681 47.6356 588.192 56.641C597.791 66.735 602.739 81.9749 600.265 94.1471C597.593 107.804 588.588 120.767 577.801 126.606C568.994 131.356 562.363 132.346 537.128 132.346H514.07V79.4019ZM558.009 107.507C569.785 104.538 575.129 89.397 568.796 76.9279C565.332 70.2976 560.681 67.5267 552.863 67.6256C549.993 67.7246 547.123 68.2194 546.629 68.7142C546.035 69.308 545.837 77.3238 545.936 88.4073L546.233 107.111L549.202 107.705C550.884 108.1 552.566 108.397 552.962 108.496C553.457 108.496 555.634 108.1 558.009 107.507ZM54.4966 129.773C34.6055 124.924 18.2769 109.585 11.0528 88.9022C8.47983 81.5791 8.08398 79.0061 8.08398 70.4955C8.18295 51.4951 13.7247 37.9375 26.6886 24.8747C33.22 18.3433 36.3868 15.9683 43.6109 12.5047L52.4184 8.1504L92.7944 7.85352L133.071 7.55664V33.3853H118.326C101.305 33.3853 102.394 34.177 102.394 21.8069C102.394 17.8485 101.998 14.5828 101.602 14.5828C101.107 14.5828 96.357 18.3433 90.9142 22.9945C85.5703 27.6456 80.8202 31.3072 80.5233 31.1092C80.2264 31.0103 75.5752 25.7654 70.1324 19.6298L60.4342 8.24936L59.7415 11.713C59.3457 13.4943 58.455 19.6298 57.7623 25.1716C57.1685 30.6144 56.2779 35.6614 55.882 36.3541C55.3872 37.1458 51.1319 36.5521 40.4442 34.078C32.3294 32.0988 25.6 30.7134 25.4021 30.9113C25.2042 31.0103 27.9751 38.3333 31.5377 47.1408L37.8712 63.0735L33.8138 65.4485C31.5377 66.834 27.0845 69.1101 24.0167 70.5945C20.8499 72.1778 18.2769 73.7612 18.2769 74.157C18.2769 74.7508 22.3343 77.2248 36.7826 85.4385L41.8296 88.3084L36.4857 102.559C33.5169 110.377 31.3398 117.007 31.5377 117.205C31.7356 117.403 39.0587 114.335 47.8662 110.179C56.5748 106.121 63.9968 103.152 64.1947 103.449C64.3927 103.845 65.7781 108.595 67.2625 114.038C68.7469 119.481 70.0334 124.033 70.1324 124.132C70.2314 124.33 74.4867 119.283 79.5337 113.049C84.5807 106.814 88.9349 101.668 89.1329 101.668C89.3308 101.668 96.258 105.033 104.472 109.189C112.686 113.246 119.613 116.413 119.811 116.215C120.009 116.017 117.733 108.199 114.764 98.7982C111.795 89.4959 109.321 81.5791 109.321 81.3812C109.321 81.0843 108.232 80.8864 106.847 80.8864C105.461 80.8864 104.373 81.1832 104.373 81.5791C104.373 81.876 106.154 87.7146 108.43 94.5429C110.607 101.272 112.092 107.111 111.795 107.408C111.498 107.804 106.154 105.429 99.8206 102.361C93.5861 99.293 88.1433 96.72 87.6485 96.72C87.1536 96.72 83.4921 100.678 79.5337 105.626C75.5752 110.476 72.2106 114.335 72.0126 114.137C71.8147 113.939 70.7262 109.882 69.6376 105.231C68.4501 100.579 67.1636 96.72 66.6688 96.72C66.174 96.72 59.5436 99.8868 51.9236 103.647C44.3036 107.507 38.0691 110.278 38.0691 109.882C38.0691 109.585 40.3452 104.439 43.0171 98.6003C45.788 92.7616 47.9652 87.5167 47.9652 87.0219C47.9652 86.5271 43.5119 83.8552 38.0691 80.9853C32.6263 78.1155 27.9751 75.4435 27.6782 74.9487C27.3813 74.4539 30.1522 72.4747 33.8138 70.5945C45.5901 64.6568 45.1943 66.4381 38.1681 50.7034C34.8034 43.2814 32.2304 36.9479 32.3294 36.75C32.5273 36.651 38.6629 37.9375 45.986 39.8178C53.3091 41.698 59.4446 43.0835 59.6426 42.8855C59.8405 42.6876 62.7103 19.7288 62.8093 17.7496C62.8093 16.661 65.6792 19.9267 72.3095 28.4373C76.4659 33.8801 80.0285 38.3333 80.2264 38.3333C80.5233 38.3333 84.2838 34.9687 88.6381 30.9113C92.9923 26.8539 96.9508 23.4893 97.3466 23.4893C97.7425 23.4893 98.4352 27.5467 98.831 32.5936C99.2269 37.6406 99.7217 41.9949 100.019 42.1928C100.315 42.4897 105.362 41.8959 111.399 40.9063C117.337 39.9167 122.483 39.224 122.681 39.5209C122.878 39.7188 120.207 43.8751 116.743 48.8232C113.279 53.6722 110.31 57.9275 110.31 58.4223C110.31 58.8182 115.456 59.115 121.691 59.115H133.071V131.356L96.7528 131.257C68.9449 131.257 58.9498 130.861 54.4966 129.773ZM174.734 129.773C158.999 125.518 146.629 113.049 142.473 97.2148C136.238 73.2664 151.181 49.318 176.317 42.7866C190.667 39.0261 208.381 43.5783 219.563 53.9691C224.313 58.4223 229.756 67.6256 231.537 74.355C238.168 98.7982 223.027 124.033 198.287 129.872C190.469 131.653 181.76 131.653 174.734 129.773ZM192.745 105.231C194.526 104.538 197.396 102.361 199.078 100.382C210.063 87.8136 201.948 66.0423 186.312 66.0423C182.156 66.0423 177.604 68.8132 174.041 73.5633C168.796 80.3915 169.786 95.7304 175.921 101.47C181.265 106.418 186.906 107.705 192.745 105.231ZM384.432 33.8801V27.4477H414.12V40.3126H384.432V33.8801Z" fill="#18161A"/>
<path d="M72.805 102.953C72.3102 100.875 71.5185 97.6095 71.2216 95.7293C70.8258 93.849 70.331 91.9688 70.0341 91.5729C69.8362 91.1771 64.2944 93.4532 57.8619 96.7189C51.3305 99.9846 45.7887 102.657 45.5908 102.657C45.2939 102.657 46.8773 98.7971 49.0544 94.1459C51.2316 89.4948 52.716 85.3384 52.4191 84.8436C52.1222 84.3488 47.7679 81.7759 42.8199 79.3018L33.8145 74.6507L41.4344 70.7912C45.5908 68.7131 48.9555 66.8328 48.9555 66.5359C48.9555 66.2391 46.6794 60.8952 43.9085 54.6607C41.0386 48.3272 39.0594 42.9833 39.4552 42.5875C39.7521 42.2906 45.096 43.2802 51.3305 44.9626L62.612 48.0303L63.1068 45.8532C63.4037 44.7646 63.9975 40.2125 64.2944 35.8582C64.6902 31.5039 65.284 27.5455 65.4819 27.1497C65.7788 26.7538 68.8466 30.0195 72.3102 34.5717C75.8728 39.1239 79.1385 42.9833 79.7323 43.0823C80.2271 43.2802 83.6907 40.5093 87.3522 36.9468C91.1127 33.3842 94.3785 30.4154 94.6753 30.4154C94.9722 30.4154 95.467 33.9779 95.7639 38.4312C96.0608 42.7854 96.4566 46.5459 96.6545 46.7438C96.8525 47.0407 100.91 46.447 105.66 45.5563C110.41 44.7646 114.566 44.2698 114.863 44.5667C115.16 44.8636 113.082 48.2283 110.311 52.0877L105.165 59.1139H73.5967L73.8936 70.2964L74.1905 81.38L87.2533 81.6769L100.316 81.9738L103.285 91.0781C104.967 96.1251 106.353 100.479 106.353 100.776C106.353 101.172 101.801 99.1929 96.3577 96.521C90.8159 93.849 86.1647 91.8698 86.0657 91.9688C84.7793 93.948 74.3884 106.615 74.0915 106.615C73.8936 106.615 73.2998 104.933 72.805 102.953Z" fill="#ECCD37"/>
<path d="M597.479 126.167H595.219V125.379H600.666V126.167H598.406V132.345H597.479V126.167" fill="white"/>
<path d="M604.375 132.345L602.462 126.689V132.345H601.535V125.379H602.81L604.78 131.301L606.809 125.379H608.084V132.345H607.156V126.689L605.302 132.345H604.375" fill="white"/>
<path d="M21.8409 183.615C23.7215 183.612 25.5788 183.193 27.2836 182.388C28.9602 181.637 30.4476 180.511 31.6349 179.095V179.095L28.3931 175.8C27.5975 176.771 26.6093 177.561 25.4928 178.12C24.3975 178.658 23.1951 178.934 21.9782 178.926C20.9513 178.937 19.9324 178.741 18.9805 178.35C18.0286 177.959 17.1626 177.381 16.4325 176.648C15.7296 175.931 15.1742 175.079 14.7986 174.142C14.3959 173.147 14.1932 172.081 14.2022 171.006C14.1912 169.92 14.3882 168.843 14.7822 167.834C15.15 166.895 15.6951 166.038 16.3868 165.311C17.0804 164.59 17.9101 164.018 18.8263 163.628C19.781 163.217 20.8086 163.009 21.8458 163.015C23.0967 163.01 24.3315 163.301 25.452 163.865C26.6102 164.456 27.6244 165.3 28.4209 166.337V166.337L31.7656 162.937C30.5896 161.489 29.0932 160.342 27.398 159.591C25.6559 158.774 23.7601 158.349 21.8409 158.346C20.1267 158.334 18.4273 158.668 16.841 159.327C15.3382 159.946 13.966 160.85 12.7986 161.992C11.6464 163.135 10.7299 164.499 10.1026 166.005C9.45231 167.584 9.1161 169.278 9.1133 170.989C9.11049 172.7 9.44115 174.394 10.0863 175.975C10.7061 177.476 11.6168 178.835 12.7643 179.971C13.9322 181.113 15.305 182.017 16.8084 182.635C18.4053 183.297 20.116 183.63 21.8409 183.615V183.615ZM86.508 183.651C88.2165 183.664 89.9103 183.33 91.49 182.67C92.9862 182.054 94.3476 181.144 95.4956 179.992C96.6437 178.84 97.5558 177.47 98.1794 175.959C98.8323 174.389 99.1688 172.703 99.1688 170.999C99.1688 169.296 98.8323 167.61 98.1794 166.04C97.5559 164.529 96.6438 163.158 95.4957 162.006C94.3477 160.855 92.9863 159.945 91.49 159.329C88.3051 158.021 84.7437 158.021 81.5588 159.329C80.0625 159.945 78.7011 160.855 77.553 162.006C76.4049 163.158 75.4929 164.529 74.8694 166.04C74.2169 167.61 73.8807 169.296 73.8807 170.999C73.8807 172.703 74.2169 174.389 74.8694 175.959C75.4929 177.47 76.405 178.84 77.5531 179.992C78.7012 181.144 80.0625 182.054 81.5588 182.67C83.1283 183.328 84.8115 183.661 86.5097 183.649L86.508 183.651ZM86.508 178.99C85.5054 178.999 84.5116 178.8 83.5875 178.405C82.6634 178.01 81.8285 177.428 81.134 176.695C80.4488 175.959 79.9101 175.096 79.5474 174.154C78.7736 172.118 78.7736 169.863 79.5474 167.827C79.9131 166.891 80.4516 166.035 81.134 165.304C81.8285 164.571 82.6634 163.989 83.5875 163.594C84.5116 163.199 85.5054 163 86.508 163.009C87.5401 163.001 88.5626 163.209 89.5113 163.622C90.4171 164.011 91.2354 164.584 91.9164 165.304C92.5987 166.035 93.1372 166.891 93.503 167.827C94.2765 169.863 94.2765 172.118 93.503 174.154C93.1403 175.096 92.6016 175.959 91.9164 176.695C91.2354 177.415 90.4171 177.987 89.5113 178.377C88.563 178.788 87.5411 178.997 86.5097 178.989L86.508 178.99ZM161.515 183.267V178.781H148.443V158.732H143.499V183.263L161.515 183.267ZM223.898 183.267V178.781H210.826V158.732H205.878V183.263L223.898 183.267ZM286.756 183.267V178.851H273.209V173.031H282.048V168.755H273.209V163.153H286.62V158.737H268.258V183.268L286.756 183.267ZM341.631 183.616C343.511 183.614 345.369 183.195 347.073 182.39C348.75 181.638 350.237 180.512 351.425 179.096V179.096L348.181 175.803C347.386 176.774 346.398 177.565 345.281 178.123C344.186 178.661 342.983 178.937 341.766 178.929C340.74 178.94 339.721 178.744 338.769 178.354C337.818 177.963 336.952 177.384 336.222 176.651C335.519 175.934 334.964 175.082 334.588 174.145C334.185 173.151 333.982 172.085 333.99 171.009C333.98 169.924 334.177 168.846 334.572 167.837C334.939 166.898 335.483 166.041 336.175 165.314C336.868 164.593 337.698 164.021 338.614 163.632C339.569 163.22 340.597 163.012 341.634 163.018C342.889 163.014 344.128 163.307 345.252 163.875C346.41 164.465 347.424 165.309 348.22 166.347V166.347L351.565 162.947C350.389 161.499 348.893 160.352 347.198 159.601C345.456 158.784 343.561 158.36 341.642 158.356C339.928 158.344 338.228 158.678 336.642 159.337C335.139 159.955 333.766 160.859 332.598 162.001C331.445 163.143 330.528 164.508 329.901 166.014C329.25 167.592 328.914 169.286 328.912 170.997C328.909 172.708 329.239 174.403 329.884 175.983C330.504 177.484 331.415 178.843 332.562 179.98C333.73 181.121 335.103 182.025 336.606 182.643C338.201 183.301 339.909 183.631 341.631 183.615V183.616ZM407.084 183.267V163.217H415.102V158.731H394.081V163.217H402.134V183.263L407.084 183.267ZM463.766 183.267V158.736H458.818V183.267H463.766ZM520.756 183.653C522.465 183.666 524.159 183.332 525.738 182.672C527.235 182.056 528.596 181.146 529.744 179.994C530.892 178.842 531.804 177.471 532.428 175.96C533.08 174.391 533.416 172.704 533.416 171.001C533.416 169.298 533.08 167.611 532.428 166.042C531.804 164.531 530.892 163.16 529.744 162.008C528.596 160.856 527.235 159.946 525.738 159.331C522.554 158.023 518.993 158.023 515.809 159.331C514.313 159.947 512.953 160.858 511.805 162.009C510.657 163.161 509.745 164.531 509.121 166.042C508.468 167.611 508.131 169.297 508.131 171.001C508.131 172.705 508.468 174.391 509.121 175.96C509.745 177.471 510.657 178.841 511.805 179.993C512.953 181.145 514.313 182.055 515.809 182.672C517.377 183.328 519.06 183.661 520.756 183.649V183.653ZM520.756 178.992C519.73 179.001 518.713 178.792 517.771 178.379C516.872 177.986 516.059 177.414 515.382 176.696C514.696 175.961 514.157 175.098 513.794 174.155C513.021 172.119 513.021 169.864 513.794 167.829C514.16 166.893 514.699 166.036 515.382 165.306C516.059 164.588 516.872 164.016 517.771 163.623C518.713 163.21 519.73 163.001 520.756 163.01C521.788 163.002 522.81 163.211 523.758 163.623C524.664 164.013 525.483 164.585 526.165 165.306C526.847 166.037 527.386 166.893 527.751 167.829C528.526 169.864 528.526 172.12 527.751 174.155C527.389 175.098 526.85 175.961 526.165 176.696C525.483 177.417 524.664 177.989 523.758 178.379C522.81 178.79 521.788 178.997 520.756 178.989V178.992ZM582.42 183.268V166.859L594.603 183.268H598.971V158.737H594.33V174.613L582.455 158.737H577.744V183.268H582.42Z" fill="white"/>
<defs>
<clipPath id="clip0_969_2798">
<rect width="607.81" height="139.88" fill="white"/>
</clipPath>
</defs>
</svg>
