<svg width="609" height="184" viewBox="0 0 609 184" fill="none" xmlns="http://www.w3.org/2000/svg">
<path fill-rule="evenodd" clip-rule="evenodd" d="M54.5806 129.773C34.6895 124.924 18.3609 109.585 11.1368 88.9022C8.56381 81.5791 8.16797 79.0061 8.16797 70.4955C8.26693 51.4951 13.8087 37.9375 26.7726 24.8747C33.304 18.3433 36.4708 15.9683 43.6949 12.5047L52.5024 8.1504L133.155 7.55664V33.3853H118.41C109.109 33.3853 105.215 33.6217 103.597 31.8175C102.254 30.3201 102.478 27.4171 102.478 21.8069C102.478 17.8485 102.082 14.5828 101.686 14.5828C101.191 14.5828 96.441 18.3433 90.9981 22.9945C85.6543 27.6456 80.9041 31.3072 80.6073 31.1092C80.3126 31.011 75.7286 25.8436 70.3385 19.7675L70.2164 19.6298L60.5182 8.24936L59.8255 11.713C59.4297 13.4943 58.539 19.6298 57.8463 25.1716C57.2525 30.6144 56.3619 35.6614 55.966 36.3541C55.4712 37.1458 51.2159 36.5521 40.5281 34.078C32.4134 32.0988 25.684 30.7134 25.4861 30.9113C25.2882 31.0103 28.0591 38.3333 31.6217 47.1408L37.9552 63.0735L33.8978 65.4485C31.6217 66.834 27.1684 69.1101 24.1007 70.5945C20.9339 72.1778 18.3609 73.7612 18.3609 74.157C18.3609 74.7508 22.4183 77.2248 36.8666 85.4385L41.9136 88.3084L36.5697 102.559C33.6009 110.377 31.4238 117.007 31.6217 117.205C31.8196 117.403 39.1427 114.335 47.9502 110.179C56.6588 106.121 64.0808 103.152 64.2787 103.449C64.4767 103.845 65.8621 108.595 67.3465 114.038C68.8309 119.481 70.1174 124.033 70.2164 124.132C70.3153 124.33 74.5707 119.283 79.6177 113.049C84.6646 106.814 89.0189 101.668 89.2169 101.668C89.4148 101.668 96.342 105.033 104.556 109.189C112.77 113.246 119.697 116.413 119.895 116.215C120.093 116.017 117.817 108.199 114.848 98.7982C111.879 89.4959 109.405 81.5791 109.405 81.3812C109.405 81.0843 108.316 80.8864 106.931 80.8864C105.545 80.8864 104.457 81.1832 104.457 81.5791C104.457 81.876 106.238 87.7146 108.514 94.5429C110.691 101.272 112.176 107.111 111.879 107.408C111.582 107.804 106.238 105.429 99.9046 102.361C93.6701 99.293 88.2272 96.72 87.7324 96.72C87.2376 96.72 83.5761 100.678 79.6177 105.626C75.6592 110.476 72.2946 114.335 72.0966 114.137C71.8987 113.939 70.8101 109.882 69.7216 105.231C68.534 100.579 67.2476 96.72 66.7528 96.72C66.2579 96.72 59.6276 99.8868 52.0076 103.647C44.3876 107.507 38.1531 110.278 38.1531 109.882C38.1531 109.585 40.4292 104.439 43.1011 98.6003C45.872 92.7616 48.0492 87.5167 48.0492 87.0219C48.0492 86.5271 43.5959 83.8552 38.1531 80.9853C32.7102 78.1155 28.0591 75.4435 27.7622 74.9487C27.4653 74.4539 30.2362 72.4747 33.8978 70.5945C39.3364 67.8523 42.1789 66.7565 42.9711 64.8213C43.8943 62.5662 42.0334 59.1714 38.252 50.7034C34.8874 43.2814 32.3144 36.9479 32.4134 36.75C32.6113 36.651 38.7468 37.9375 46.0699 39.8178C53.393 41.698 59.5286 43.0835 59.7265 42.8855C59.9245 42.6876 62.7943 19.7288 62.8933 17.7496C62.8933 16.661 65.7631 19.9267 72.3935 28.4373C76.5499 33.8801 80.1125 38.3333 80.3104 38.3333C80.6073 38.3333 84.3678 34.9687 88.722 30.9113C93.0763 26.8539 97.0348 23.4893 97.4306 23.4893C97.8264 23.4893 98.5192 27.5467 98.915 32.5936C99.3108 37.6406 99.8056 41.9949 100.103 42.1928C100.399 42.4897 105.446 41.8959 111.483 40.9063C117.421 39.9167 122.567 39.224 122.765 39.5209C122.962 39.7188 120.291 43.8751 116.827 48.8232C113.363 53.6722 110.394 57.9275 110.394 58.4223C110.394 58.8182 115.54 59.115 121.775 59.115H133.155V131.356L96.8368 131.257C69.0289 131.257 59.0338 130.861 54.5806 129.773ZM73.271 102.049C73.3119 102.22 73.3513 102.385 73.389 102.543C73.8838 104.522 74.4776 106.205 74.6755 106.205C74.9724 106.205 85.3632 93.5378 86.6497 91.5586C86.7487 91.4597 91.3998 93.4389 96.9417 96.1108C102.384 98.7827 106.937 100.762 106.937 100.366C106.937 100.069 105.551 95.715 103.869 90.668L100.9 81.5636L74.7744 80.9699L74.1807 58.7037H105.749L110.895 51.6776C113.666 47.8181 115.744 44.4534 115.447 44.1566C115.15 43.8597 110.994 44.3545 106.244 45.1462C101.494 46.0368 97.4365 46.6306 97.2385 46.3337C97.0406 46.1358 96.6448 42.3753 96.3479 38.021C96.051 33.5678 95.5562 30.0052 95.2593 30.0052C94.9624 30.0052 91.6967 32.974 87.9362 36.5366C84.2747 40.0992 80.811 42.8701 80.3162 42.6721C79.7225 42.5732 76.4568 38.7137 72.8942 34.1615C69.4306 29.6094 66.3628 26.3437 66.0659 26.7395C65.868 27.1354 65.2742 31.0938 64.8784 35.448C64.5815 39.8023 63.9877 44.3545 63.6908 45.443L63.196 47.6202L51.9145 44.5524C45.68 42.8701 40.3361 41.8805 40.0392 42.1773C39.6434 42.5732 41.6226 47.9171 44.4924 54.2505C47.2633 60.485 49.5394 65.8289 49.5394 66.1258C49.5394 66.4227 46.1748 68.3029 42.0184 70.3811L34.3984 74.2405L43.4039 78.8917C48.3519 81.3657 52.7062 83.9387 53.0031 84.4335C53.2999 84.9283 51.8155 89.0846 49.6384 93.7358C47.4613 98.3869 45.8779 102.246 46.1748 102.246C46.3727 102.246 51.9145 99.5744 58.4459 96.3087C64.8784 93.043 70.4202 90.7669 70.6181 91.1628C70.915 91.5586 71.4098 93.4389 71.8056 95.3191C72.0799 97.0561 72.7764 99.9754 73.271 102.049Z" fill="white"/>
<path d="M248.147 130.664C244.09 128.685 240.429 124.43 238.845 119.68C238.053 117.107 237.559 103.252 237.361 71.7829L236.965 27.4486H268.731V46.2511H284.565V68.0224H268.533L268.929 85.1425C269.127 99.3929 269.523 102.56 271.007 104.737C273.185 108.002 276.648 109.586 281.596 109.586H285.555V132.347H268.533C254.778 132.347 250.72 131.951 248.147 130.664ZM301.784 130.466C299.508 129.477 296.836 127.3 295.748 125.815C291.096 119.284 290.997 117.503 290.997 71.486V27.9434L306.633 27.6465L322.17 27.3496V46.2511H338.004V68.0224H322.17V83.3613C322.17 104.935 324.446 109.586 335.035 109.586H338.993V132.347H322.467C308.415 132.347 305.248 132.05 301.784 130.466ZM343.942 79.8976V27.4486H374.619V132.347H343.942V79.8976ZM384.515 89.7937V47.2407H414.204V132.347H384.515V89.7937ZM453.491 131.258C438.251 127.696 424.99 113.247 421.923 96.9188C418.558 79.007 428.553 58.7201 444.387 51.2981C463.387 42.3916 482.981 45.6573 496.836 60.2045C505.347 69.1109 509.404 80.1945 508.414 92.0698L508.018 96.7209H478.924C456.262 96.7209 449.83 97.0178 449.83 98.0074C449.83 98.6012 450.72 101.075 451.809 103.45C454.877 110.18 456.757 110.575 483.971 110.575H507.227V132.347L482.289 132.248C468.533 132.149 455.569 131.753 453.491 131.258ZM479.518 76.9288C477.143 72.1787 471.601 68.3193 466.158 67.5276C461.111 66.7359 454.283 70.1006 451.116 74.8507C447.059 80.8872 447.158 80.8872 465.168 80.8872H481.497L479.518 76.9288ZM514.154 79.4028V26.459H545.822V43.2823H552.551C568.088 43.2823 579.765 47.6365 588.276 56.6419C597.875 66.7359 602.823 81.9758 600.349 94.1479C597.677 107.804 588.672 120.768 577.885 126.607C569.077 131.357 562.447 132.347 537.212 132.347H514.154V79.4028ZM558.093 107.508C569.869 104.539 575.213 89.3978 568.879 76.9288C565.416 70.2985 560.765 67.5276 552.947 67.6265C550.077 67.7255 547.207 68.2203 546.712 68.7151C546.118 69.3089 545.921 77.3247 546.019 88.4082L546.316 107.112L549.285 107.706C550.967 108.101 552.65 108.398 553.046 108.497C553.54 108.497 555.718 108.101 558.093 107.508ZM174.818 129.774C159.083 125.518 146.713 113.049 142.556 97.2157C136.322 73.2673 151.265 49.3189 176.401 42.7875C190.75 39.027 208.464 43.5791 219.647 53.97C224.397 58.4232 229.84 67.6265 231.621 74.3559C238.251 98.7991 223.11 124.034 198.37 129.873C190.552 131.654 181.844 131.654 174.818 129.774ZM192.828 105.232C194.61 104.539 197.48 102.362 199.162 100.382C210.147 87.8145 202.032 66.0432 186.396 66.0432C182.24 66.0432 177.687 68.8141 174.125 73.5642C168.88 80.3924 169.87 95.7313 176.005 101.471C181.349 106.419 186.99 107.706 192.828 105.232ZM384.515 33.881V27.4486H414.204V40.3134H384.515V33.881Z" fill="white"/>
<path d="M597.563 126.167H595.303V125.379H600.75V126.167H598.49V132.345H597.563V126.167" fill="white"/>
<path d="M604.459 132.345L602.546 126.689V132.345H601.619V125.379H602.894L604.864 131.301L606.893 125.379H608.168V132.345H607.24V126.689L605.386 132.345H604.459" fill="white"/>
<path d="M21.9249 183.615C23.8055 183.612 25.6628 183.193 27.3676 182.388C29.0442 181.637 30.5316 180.511 31.7189 179.095V179.095L28.4771 175.8C27.6815 176.771 26.6933 177.561 25.5768 178.12C24.4815 178.658 23.2791 178.934 22.0622 178.926C21.0353 178.937 20.0164 178.741 19.0645 178.35C18.1126 177.959 17.2466 177.381 16.5165 176.648C15.8136 175.931 15.2582 175.079 14.8826 174.142C14.4799 173.147 14.2771 172.081 14.2862 171.006C14.2752 169.92 14.4722 168.843 14.8662 167.834C15.234 166.895 15.7791 166.038 16.4708 165.311C17.1644 164.59 17.9941 164.018 18.9103 163.628C19.865 163.217 20.8926 163.009 21.9298 163.015C23.1807 163.01 24.4154 163.301 25.536 163.865C26.6942 164.456 27.7083 165.3 28.5049 166.337V166.337L31.8496 162.937C30.6736 161.489 29.1772 160.342 27.482 159.591C25.7399 158.774 23.8441 158.349 21.9249 158.346C20.2107 158.334 18.5113 158.668 16.925 159.327C15.4222 159.946 14.05 160.85 12.8826 161.992C11.7304 163.135 10.8139 164.499 10.1866 166.005C9.5363 167.584 9.20009 169.278 9.19728 170.989C9.19448 172.7 9.52514 174.394 10.1702 175.975C10.7901 177.476 11.7008 178.835 12.8483 179.971C14.0162 181.113 15.389 182.017 16.8923 182.635C18.4893 183.297 20.2 183.63 21.9249 183.615V183.615ZM86.592 183.651C88.3005 183.664 89.9943 183.33 91.574 182.67C93.0702 182.054 94.4316 181.144 95.5796 179.992C96.7277 178.84 97.6398 177.47 98.2634 175.959C98.9163 174.389 99.2527 172.703 99.2527 170.999C99.2527 169.296 98.9163 167.61 98.2634 166.04C97.6399 164.529 96.7278 163.158 95.5797 162.006C94.4316 160.855 93.0702 159.945 91.574 159.329C88.3891 158.021 84.8277 158.021 81.6428 159.329C80.1465 159.945 78.7851 160.855 77.637 162.006C76.4889 163.158 75.5769 164.529 74.9533 166.04C74.3008 167.61 73.9647 169.296 73.9647 170.999C73.9647 172.703 74.3008 174.389 74.9533 175.959C75.5769 177.47 76.489 178.84 77.6371 179.992C78.7852 181.144 80.1465 182.054 81.6428 182.67C83.2122 183.328 84.8955 183.661 86.5937 183.649L86.592 183.651ZM86.592 178.99C85.5894 178.999 84.5956 178.8 83.6715 178.405C82.7474 178.01 81.9125 177.428 81.2179 176.695C80.5328 175.959 79.9941 175.096 79.6314 174.154C78.8576 172.118 78.8576 169.863 79.6314 167.827C79.9971 166.891 80.5356 166.035 81.2179 165.304C81.9125 164.571 82.7474 163.989 83.6715 163.594C84.5956 163.199 85.5894 163 86.592 163.009C87.6241 163.001 88.6466 163.209 89.5952 163.622C90.5011 164.011 91.3194 164.584 92.0004 165.304C92.6827 166.035 93.2212 166.891 93.587 167.827C94.3605 169.863 94.3605 172.118 93.587 174.154C93.2243 175.096 92.6856 175.959 92.0004 176.695C91.3194 177.415 90.5011 177.987 89.5952 178.377C88.6469 178.788 87.625 178.997 86.5937 178.989L86.592 178.99ZM161.599 183.267V178.781H148.527V158.732H143.583V183.263L161.599 183.267ZM223.982 183.267V178.781H210.91V158.732H205.962V183.263L223.982 183.267ZM286.84 183.267V178.851H273.293V173.031H282.132V168.755H273.293V163.153H286.704V158.737H268.342V183.268L286.84 183.267ZM341.715 183.616C343.595 183.614 345.453 183.195 347.157 182.39C348.834 181.638 350.321 180.512 351.509 179.096V179.096L348.265 175.803C347.47 176.774 346.482 177.565 345.365 178.123C344.27 178.661 343.067 178.937 341.85 178.929C340.824 178.94 339.805 178.744 338.853 178.354C337.902 177.963 337.036 177.384 336.306 176.651C335.603 175.934 335.048 175.082 334.672 174.145C334.269 173.151 334.066 172.085 334.074 171.009C334.064 169.924 334.261 168.846 334.656 167.837C335.023 166.898 335.567 166.041 336.259 165.314C336.952 164.593 337.782 164.021 338.698 163.632C339.653 163.22 340.681 163.012 341.718 163.018C342.973 163.014 344.212 163.307 345.336 163.875C346.494 164.465 347.508 165.309 348.304 166.347V166.347L351.649 162.947C350.473 161.499 348.977 160.352 347.282 159.601C345.54 158.784 343.645 158.36 341.726 158.356C340.012 158.344 338.312 158.678 336.726 159.337C335.223 159.955 333.85 160.859 332.682 162.001C331.529 163.143 330.612 164.508 329.985 166.014C329.334 167.592 328.998 169.286 328.995 170.997C328.993 172.708 329.323 174.403 329.968 175.983C330.588 177.484 331.499 178.843 332.646 179.98C333.814 181.121 335.187 182.025 336.69 182.643C338.285 183.301 339.993 183.631 341.715 183.615V183.616ZM407.168 183.267V163.217H415.186V158.731H394.165V163.217H402.218V183.263L407.168 183.267ZM463.85 183.267V158.736H458.902V183.267H463.85ZM520.84 183.653C522.549 183.666 524.243 183.332 525.822 182.672C527.319 182.056 528.68 181.146 529.828 179.994C530.976 178.842 531.888 177.471 532.512 175.96C533.164 174.391 533.5 172.704 533.5 171.001C533.5 169.298 533.164 167.611 532.512 166.042C531.888 164.531 530.976 163.16 529.828 162.008C528.68 160.856 527.319 159.946 525.822 159.331C522.638 158.023 519.077 158.023 515.893 159.331C514.397 159.947 513.037 160.858 511.889 162.009C510.741 163.161 509.829 164.531 509.205 166.042C508.552 167.611 508.215 169.297 508.215 171.001C508.215 172.705 508.552 174.391 509.205 175.96C509.829 177.471 510.741 178.841 511.889 179.993C513.037 181.145 514.397 182.055 515.893 182.672C517.461 183.328 519.144 183.661 520.84 183.649V183.653ZM520.84 178.992C519.814 179.001 518.797 178.792 517.855 178.379C516.956 177.986 516.143 177.414 515.466 176.696C514.78 175.961 514.241 175.098 513.878 174.155C513.105 172.119 513.105 169.864 513.878 167.829C514.244 166.893 514.783 166.036 515.466 165.306C516.143 164.588 516.956 164.016 517.855 163.623C518.797 163.21 519.814 163.001 520.84 163.01C521.872 163.002 522.894 163.211 523.842 163.623C524.748 164.013 525.567 164.585 526.249 165.306C526.931 166.037 527.47 166.893 527.835 167.829C528.61 169.864 528.61 172.12 527.835 174.155C527.473 175.098 526.934 175.961 526.249 176.696C525.567 177.417 524.748 177.989 523.842 178.379C522.894 178.79 521.872 178.997 520.84 178.989V178.992ZM582.504 183.268V166.859L594.687 183.268H599.055V158.737H594.414V174.613L582.539 158.737H577.828V183.268H582.504Z" fill="white"/>
</svg>
