<svg width="501" height="218" viewBox="0 0 501 218" fill="none" xmlns="http://www.w3.org/2000/svg">
<path d="M10.5758 53.6888H20.3763C22.2589 53.6888 23.9754 55.0731 24.0861 56.8449H24.1969V49.4253H10.5758V36.4133H23.6985C25.5811 36.4133 27.2976 37.7421 27.4084 39.5694H27.5191V32.1497H0V32.2051C1.82722 32.3158 3.26685 34.2538 3.26685 36.081V70.0785C3.26685 71.9057 1.88259 73.899 0 73.9544V74.0098H13.898V73.9544C12.0154 73.8437 10.6311 71.9057 10.6311 70.0785L10.5758 53.6888Z" fill="#E50012"/>
<path d="M39.0205 62.8666C39.0205 67.2408 42.6749 71.006 47.1599 71.006C51.6449 71.006 55.2994 67.1855 55.2994 62.8112V36.1227C55.2994 34.2954 53.9151 32.3021 52.0325 32.2467V32.1914H65.9305V32.3021C64.0479 32.4128 62.6636 34.3508 62.6636 36.178V62.0914C62.6636 70.4523 55.7423 75.2695 47.1599 75.2695C38.5775 75.2695 31.6008 70.3969 31.6008 62.0914V36.178C31.6008 34.3508 30.2166 32.3575 28.334 32.3021V32.1914H42.232V32.3021C40.4047 32.4128 38.9651 34.3508 38.9651 36.178L39.0205 62.8666Z" fill="#E50012"/>
<path d="M152.539 38.9781C150.214 35.2129 144.898 35.6559 144.898 35.6559C136.205 35.6559 136.593 42.245 136.593 42.245C136.593 42.245 135.984 45.5672 140.358 47.8374L149.051 52.4331C157.412 56.9181 156.471 63.2857 156.471 63.2857C156.471 63.2857 156.858 75.1904 139.306 75.1904C139.306 75.1904 134.212 75.3565 131.332 74.2491L128.841 66.608H128.952C131.609 70.4285 139.361 70.9822 139.361 70.9822C149.217 70.5393 149.273 63.8948 149.273 63.8948C149.273 63.8948 149.715 61.0155 145.84 58.9115L137.202 54.3157C128.232 49.5539 129.228 43.0755 129.228 43.0755C129.228 43.0755 129.007 31.337 144.511 31.337C144.511 31.337 151.487 31.5031 152.595 32.6105V38.9781H152.539Z" fill="#E50012"/>
<path d="M84.811 17.5857C86.3614 19.0807 88.5208 20.022 90.8464 20.022C95.5528 20.022 99.3734 16.3122 99.3734 11.7164C99.3734 7.12068 95.5528 3.41087 90.8464 3.41087C90.8464 3.41087 84.2573 2.80179 81.3227 10.9966V4.8505C83.5375 2.02661 86.9151 0.0332709 90.8464 0.0332709C97.4908 0.0332709 102.917 5.29346 102.917 11.7718C102.917 18.2501 97.5462 23.5103 90.8464 23.5103C87.5241 23.5103 84.4788 22.1814 82.3193 20.0774L78.1665 15.537C77.0038 14.4296 75.4534 13.7651 73.7369 13.7651C70.3039 13.7651 67.48 16.4783 67.48 19.8559C67.48 23.2335 70.3039 25.9466 73.7369 25.9466C73.7369 25.9466 78.3326 26.5557 81.2673 20.9633V25.8913C79.4954 27.9953 76.7269 29.3242 73.7369 29.3242C68.366 29.3242 63.9917 25.0607 63.9917 19.8005C63.9917 14.5403 68.366 10.3322 73.7369 10.3322C76.45 10.3322 78.8863 11.3842 80.6582 13.1007L84.811 17.5857Z" fill="#E50012"/>
<path d="M87.0496 36.0692C87.0496 34.242 85.6653 32.3594 83.7827 32.2487V32.1933H97.6253V32.2487C95.7981 32.3594 94.3585 34.242 94.3585 36.0692V70.1774C94.3585 72.0046 95.7427 73.998 97.6253 74.1087V74.1641H83.7827V74.1087C85.6099 73.998 87.0496 72.0046 87.0496 70.1774V36.0692Z" fill="#E50012"/>
<path d="M78.3219 36.1555C78.3219 34.3282 79.7061 32.3349 81.5887 32.2795V32.2242H67.6907V32.2795C69.5733 32.3903 70.9576 34.3282 70.9576 36.1555V78.7907C70.9576 78.7907 70.7915 86.3211 64.7561 90.6399V90.6953C65.9743 90.4738 78.3772 88.2036 78.3772 76.2436L78.3219 36.1555Z" fill="#E50012"/>
<path d="M97.6167 39.7302H97.6721C99.5547 36.4634 102.434 36.408 102.434 36.408H109.964V70.1839C109.964 72.0112 108.58 73.9491 106.697 74.0599V74.1152H120.595V74.0599C118.713 73.9491 117.329 71.9558 117.329 70.1839V36.408H123.585C125.468 36.408 127.018 37.903 127.074 39.7302H127.129L129.455 32.1445H99.9423L97.6167 39.7302Z" fill="#E50012"/>
<path d="M166.84 62.8666C166.84 67.2408 170.494 71.006 174.979 71.006C179.464 71.006 183.119 67.1855 183.119 62.8112V36.1227C183.119 34.2954 181.734 32.3021 179.852 32.2467V32.1914H193.75V32.3021C191.923 32.4128 190.483 34.3508 190.483 36.178V62.0914C190.483 70.4523 183.562 75.2695 174.979 75.2695C166.397 75.2695 159.42 70.3969 159.42 62.0914V36.178C159.42 34.3508 158.036 32.3575 156.153 32.3021V32.1914H170.051V32.3021C168.169 32.4128 166.784 34.3508 166.784 36.178L166.84 62.8666Z" fill="#E50012"/>
<path d="M334.87 147.355H283.164V167.238H334.87V147.355Z" fill="white"/>
<path d="M481.459 107.447V132.942H481.442C442.396 143.674 442.357 209.569 442.357 209.569H406.315C406.315 209.569 406.615 156.354 445.402 132.942H400.013C394.987 132.942 390.912 137.018 390.912 142.044V147.356H371.029V107.447H481.459Z" fill="white"/>
<path d="M495.899 103.385V213.632H356.563V103.385H495.899ZM500 99.2832H495.899H356.563H352.474V103.385V213.632V217.734H356.576H495.912H500.013V213.632V103.385V99.2832H500Z" fill="white"/>
<path d="M0 107.354H117.839L117.838 147.288H92.3176V127.249H0V107.354Z" fill="white"/>
<path d="M185.742 209.567L158.253 150.873V189.658H169.792V209.554H126.797V189.658H138.357V127.262H126.797V107.354H172.799L198.869 163.027L226.484 107.354H272.161V127.249H260.612V189.658H272.148V209.554H217.435V189.658H228.984V147.104L198.008 209.567L197.995 209.553V209.568L185.742 209.567Z" fill="white"/>
<path d="M11.5496 117.262H43.1772V150.844H79.1145V170.74H43.1772V189.658H54.7135V209.554H0V189.658H11.5496V117.262Z" fill="white"/>
</svg>
