<svg width="501" height="218" viewBox="0 0 501 218" fill="none" xmlns="http://www.w3.org/2000/svg">
<path d="M10.5758 53.6556H20.3763C22.2589 53.6556 23.9754 55.0399 24.0861 56.8117H24.1969V49.3921H10.5758V36.3801H23.6985C25.5811 36.3801 27.2976 37.7089 27.4084 39.5362H27.5191V32.1165H0V32.1719C1.82722 32.2826 3.26685 34.2206 3.26685 36.0478V70.0453C3.26685 71.8725 1.88259 73.8658 0 73.9212V73.9766H13.898V73.9212C12.0154 73.8105 10.6311 71.8725 10.6311 70.0453L10.5758 53.6556Z" fill="white"/>
<path d="M39.0205 62.8334C39.0205 67.2076 42.6749 70.9728 47.1599 70.9728C51.6449 70.9728 55.2994 67.1522 55.2994 62.778V36.0894C55.2994 34.2622 53.9151 32.2689 52.0325 32.2135V32.1581H65.9305V32.2689C64.0479 32.3796 62.6636 34.3176 62.6636 36.1448V62.0582C62.6636 70.4191 55.7423 75.2363 47.1599 75.2363C38.5775 75.2363 31.6008 70.3637 31.6008 62.0582V36.1448C31.6008 34.3176 30.2166 32.3243 28.334 32.2689V32.1581H42.232V32.2689C40.4047 32.3796 38.9651 34.3176 38.9651 36.1448L39.0205 62.8334Z" fill="white"/>
<path d="M152.539 38.9449C150.214 35.1797 144.898 35.6227 144.898 35.6227C136.205 35.6227 136.593 42.2118 136.593 42.2118C136.593 42.2118 135.984 45.534 140.358 47.8042L149.051 52.3999C157.412 56.8849 156.471 63.2525 156.471 63.2525C156.471 63.2525 156.858 75.1572 139.306 75.1572C139.306 75.1572 134.212 75.3233 131.332 74.2159L128.841 66.5748H128.952C131.609 70.3953 139.361 70.949 139.361 70.949C149.217 70.5061 149.273 63.8616 149.273 63.8616C149.273 63.8616 149.715 60.9823 145.84 58.8783L137.202 54.2825C128.232 49.5207 129.228 43.0423 129.228 43.0423C129.228 43.0423 129.007 31.3038 144.511 31.3038C144.511 31.3038 151.487 31.4699 152.595 32.5773V38.9449H152.539Z" fill="white"/>
<path d="M84.811 17.5525C86.3614 19.0475 88.5208 19.9888 90.8464 19.9888C95.5528 19.9888 99.3734 16.279 99.3734 11.6832C99.3734 7.08748 95.5528 3.37766 90.8464 3.37766C90.8464 3.37766 84.2573 2.76859 81.3227 10.9634V4.81729C83.5375 1.9934 86.9151 6.77503e-05 90.8464 6.77503e-05C97.4908 6.77503e-05 102.917 5.26026 102.917 11.7386C102.917 18.2169 97.5462 23.4771 90.8464 23.4771C87.5241 23.4771 84.4788 22.1482 82.3193 20.0442L78.1665 15.5038C77.0038 14.3964 75.4534 13.7319 73.7369 13.7319C70.3039 13.7319 67.48 16.4451 67.48 19.8227C67.48 23.2003 70.3039 25.9134 73.7369 25.9134C73.7369 25.9134 78.3326 26.5225 81.2673 20.9301V25.8581C79.4954 27.9621 76.7269 29.291 73.7369 29.291C68.366 29.291 63.9917 25.0275 63.9917 19.7673C63.9917 14.5071 68.366 10.299 73.7369 10.299C76.45 10.299 78.8863 11.351 80.6582 13.0675L84.811 17.5525Z" fill="white"/>
<path d="M87.0496 36.036C87.0496 34.2088 85.6653 32.3262 83.7827 32.2155V32.1601H97.6253V32.2155C95.7981 32.3262 94.3585 34.2088 94.3585 36.036V70.1442C94.3585 71.9714 95.7427 73.9647 97.6253 74.0755V74.1309H83.7827V74.0755C85.6099 73.9647 87.0496 71.9714 87.0496 70.1442V36.036Z" fill="white"/>
<path d="M78.3219 36.1223C78.3219 34.295 79.7061 32.3017 81.5887 32.2463V32.191H67.6907V32.2463C69.5733 32.3571 70.9576 34.295 70.9576 36.1223V78.7575C70.9576 78.7575 70.7915 86.2879 64.7561 90.6067V90.6621C65.9743 90.4406 78.3772 88.1704 78.3772 76.2104L78.3219 36.1223Z" fill="white"/>
<path d="M97.6167 39.697H97.6721C99.5547 36.4302 102.434 36.3748 102.434 36.3748H109.964V70.1507C109.964 71.978 108.58 73.9159 106.697 74.0267V74.082H120.595V74.0267C118.713 73.9159 117.329 71.9226 117.329 70.1507V36.3748H123.585C125.468 36.3748 127.018 37.8698 127.074 39.697H127.129L129.455 32.1113H99.9423L97.6167 39.697Z" fill="white"/>
<path d="M166.84 62.8334C166.84 67.2076 170.494 70.9728 174.979 70.9728C179.464 70.9728 183.119 67.1522 183.119 62.778V36.0894C183.119 34.2622 181.734 32.2689 179.852 32.2135V32.1581H193.75V32.2689C191.923 32.3796 190.483 34.3176 190.483 36.1448V62.0582C190.483 70.4191 183.562 75.2363 174.979 75.2363C166.397 75.2363 159.42 70.3637 159.42 62.0582V36.1448C159.42 34.3176 158.036 32.3243 156.153 32.2689V32.1581H170.051V32.2689C168.169 32.3796 166.784 34.3176 166.784 36.1448L166.84 62.8334Z" fill="white"/>
<path d="M334.87 147.322H283.164V167.205H334.87V147.322Z" fill="white"/>
<path d="M481.459 107.414V132.909H481.442C442.396 143.641 442.357 209.535 442.357 209.535H406.315C406.315 209.535 406.615 156.321 445.402 132.909H400.013C394.987 132.909 390.912 136.984 390.912 142.01V147.323H371.029V107.414H481.459Z" fill="white"/>
<path d="M495.899 103.352V213.599H356.563V103.352H495.899ZM500 99.25H495.899H356.563H352.474V103.352V213.599V217.7H356.576H495.912H500.013V213.599V103.352V99.25H500Z" fill="white"/>
<path d="M0 107.32H117.839L117.838 147.255H92.3176V127.216H0V107.32Z" fill="white"/>
<path d="M185.742 209.534L158.253 150.84V189.625H169.792V209.521H126.797V189.625H138.357V127.229H126.797V107.32H172.799L198.869 162.994L226.484 107.32H272.161V127.216H260.612V189.625H272.148V209.521H217.435V189.625H228.984V147.071L198.008 209.534L197.995 209.52V209.535L185.742 209.534Z" fill="white"/>
<path d="M11.5496 117.229H43.1772V150.811H79.1145V170.706H43.1772V189.625H54.7135V209.521H0V189.625H11.5496V117.229Z" fill="white"/>
</svg>
