<svg xmlns="http://www.w3.org/2000/svg" width="587" height="232" fill="none" viewBox="0 0 587 232">
  <defs>
    <linearGradient id="mainlogo__a" x1="261.951" x2="272.727" y1="50.793" y2="149.321" class="mainlogo__a" gradientUnits="userSpaceOnUse">
      <stop stop-color="#090D56"/>
      <stop offset=".394" stop-color="#57A0ED"/>
      <stop offset=".688" stop-color="#FCF6FA"/>
    </linearGradient>
    <linearGradient id="mainlogo__b" x1="261.951" x2="272.727" y1="50.793" y2="149.321" class="mainlogo__b" gradientUnits="userSpaceOnUse">
      <stop stop-color="#090D56"/>
      <stop offset=".394" stop-color="#57A0ED"/>
      <stop offset=".688" stop-color="#FCF6FA"/>
    </linearGradient>
    <linearGradient id="mainlogo__c" x1="261.951" x2="272.727" y1="50.793" y2="149.321" class="mainlogo__c" gradientUnits="userSpaceOnUse">
      <stop stop-color="#090D56"/>
      <stop offset=".394" stop-color="#57A0ED"/>
      <stop offset=".688" stop-color="#FCF6FA"/>
    </linearGradient>
    <linearGradient id="mainlogo__d" x1="261.951" x2="272.727" y1="50.793" y2="149.321" class="mainlogo__d" gradientUnits="userSpaceOnUse">
      <stop stop-color="#090D56"/>
      <stop offset=".394" stop-color="#57A0ED"/>
      <stop offset=".688" stop-color="#FCF6FA"/>
    </linearGradient>
    <linearGradient id="mainlogo__e" x1="261.951" x2="272.727" y1="50.793" y2="149.321" class="mainlogo__e" gradientUnits="userSpaceOnUse">
      <stop stop-color="#090D56"/>
      <stop offset=".394" stop-color="#57A0ED"/>
      <stop offset=".688" stop-color="#FCF6FA"/>
    </linearGradient>
    <linearGradient id="mainlogo__f" x1="261.951" x2="272.727" y1="50.793" y2="149.321" class="mainlogo__f" gradientUnits="userSpaceOnUse">
      <stop stop-color="#090D56"/>
      <stop offset=".394" stop-color="#57A0ED"/>
      <stop offset=".688" stop-color="#FCF6FA"/>
    </linearGradient>
    <linearGradient id="mainlogo__g" x1="241.202" x2="255.207" y1="49.758" y2="146.757" class="mainlogo__g" gradientUnits="userSpaceOnUse">
      <stop stop-color="#fff"/>
      <stop offset=".611" stop-color="#fff" stop-opacity="0"/>
      <stop offset="1" stop-color="#fff"/>
    </linearGradient>
  </defs>
  <g class="mainlogo__mainlogo">
    <path fill="#fff" d="M19.425 231.773c1.777-.253 3.533-.899 5.145-1.894a14.13 14.13 0 0 0 4.113-3.722l-3.065-2.714a10.373 10.373 0 0 1-2.741 2.6 8.252 8.252 0 0 1-3.322 1.236 6.846 6.846 0 0 1-2.834-.151 6.098 6.098 0 0 1-2.408-1.287 6.013 6.013 0 0 1-1.545-2.175 7.286 7.286 0 0 1-.563-2.914 8.782 8.782 0 0 1 .548-3.105 8.933 8.933 0 0 1 1.517-2.621 8.537 8.537 0 0 1 2.306-1.93 7.842 7.842 0 0 1 2.854-.987 6.985 6.985 0 0 1 3.408.333 6.786 6.786 0 0 1 2.806 1.965l3.162-3.69a9.182 9.182 0 0 0-4.128-2.614c-1.647-.548-3.439-.701-5.253-.45-1.62.217-3.227.761-4.726 1.601a14.62 14.62 0 0 0-3.821 3.081 14.218 14.218 0 0 0-2.548 4.189 13.673 13.673 0 0 0-.935 4.888c-.003 1.633.31 3.207.92 4.63a9.561 9.561 0 0 0 2.53 3.459 9.99 9.99 0 0 0 3.823 2.005c1.51.419 3.127.51 4.757.267Zm61.125-8.556a13.162 13.162 0 0 0 4.709-1.599 14.086 14.086 0 0 0 3.786-3.088 14.328 14.328 0 0 0 2.537-4.206 13.44 13.44 0 0 0 .935-4.865c0-1.626-.318-3.191-.935-4.603a9.777 9.777 0 0 0-2.537-3.493 9.614 9.614 0 0 0-3.786-2.024c-3.01-.825-6.377-.352-9.387 1.319a14.33 14.33 0 0 0-6.323 7.295 13.448 13.448 0 0 0-.935 4.865c0 1.626.318 3.191.935 4.602a9.773 9.773 0 0 0 2.536 3.494 9.614 9.614 0 0 0 3.787 2.024c1.483.419 3.073.515 4.678.279Zm0-4.449a6.467 6.467 0 0 1-2.76-.171 5.77 5.77 0 0 1-2.32-1.306 6.227 6.227 0 0 1-1.5-2.215c-.731-1.84-.731-3.993 0-6.039a9.107 9.107 0 0 1 1.5-2.619 8.526 8.526 0 0 1 2.32-1.958 7.565 7.565 0 0 1 2.76-.947 6.558 6.558 0 0 1 2.839.187 5.68 5.68 0 0 1 2.273 1.286 6.267 6.267 0 0 1 1.5 2.197c.73 1.841.73 3.993 0 6.039a9.042 9.042 0 0 1-1.5 2.636 8.407 8.407 0 0 1-2.273 1.926 7.724 7.724 0 0 1-2.84.984Zm70.898-5.882v-4.281l-12.356 1.736v-19.137l-4.673.657v23.415l17.029-2.39Zm58.966-8.287v-4.282l-12.356 1.737v-19.137l-4.677.657v23.415l17.033-2.39Zm59.415-8.351v-4.214l-12.805 1.799v-5.555l8.355-1.174v-4.082l-8.355 1.175v-5.348l12.677-1.781v-4.215l-17.357 2.439v23.415l17.485-2.459Zm51.869-6.956c1.777-.252 3.533-.898 5.144-1.893a14.124 14.124 0 0 0 4.113-3.722l-3.066-2.713a10.327 10.327 0 0 1-2.741 2.6 8.237 8.237 0 0 1-3.322 1.236 6.828 6.828 0 0 1-2.833-.151 6.089 6.089 0 0 1-2.407-1.286 6.017 6.017 0 0 1-1.545-2.175 7.294 7.294 0 0 1-.565-2.914 8.756 8.756 0 0 1 .55-3.105 8.863 8.863 0 0 1 1.515-2.621 8.527 8.527 0 0 1 2.306-1.93 7.817 7.817 0 0 1 2.854-.987 6.967 6.967 0 0 1 3.419.338 6.785 6.785 0 0 1 2.806 1.964l3.162-3.689a9.177 9.177 0 0 0-4.128-2.614c-1.647-.548-3.438-.702-5.251-.45-1.621.216-3.227.76-4.727 1.6a14.638 14.638 0 0 0-3.822 3.08 14.206 14.206 0 0 0-2.55 4.189 13.695 13.695 0 0 0-.935 4.888c-.002 1.633.31 3.207.92 4.63a9.569 9.569 0 0 0 2.531 3.459 9.993 9.993 0 0 0 3.823 2.005c1.507.416 3.121.506 4.749.261Zm61.867-9.028v-19.137l7.579-1.066v-4.282l-19.869 2.792v4.283l7.612-1.07v19.134l4.678-.654Zm53.578-7.53v-23.415l-4.677.657v23.415l4.677-.657Zm53.869-7.202a13.174 13.174 0 0 0 4.709-1.599 14.088 14.088 0 0 0 3.786-3.088 14.343 14.343 0 0 0 2.537-4.206c.616-1.585.934-3.239.934-4.865 0-1.626-.318-3.191-.934-4.603a9.787 9.787 0 0 0-2.537-3.493 9.613 9.613 0 0 0-3.786-2.024c-3.01-.825-6.376-.352-9.386 1.319a14.106 14.106 0 0 0-3.785 3.089 14.343 14.343 0 0 0-2.537 4.206 13.44 13.44 0 0 0-.935 4.865c0 1.626.318 3.191.935 4.602a9.775 9.775 0 0 0 2.537 3.492 9.612 9.612 0 0 0 3.785 2.025c1.483.419 3.073.513 4.677.277v.003Zm0-4.449a6.434 6.434 0 0 1-2.822-.189 5.701 5.701 0 0 1-2.258-1.288 6.202 6.202 0 0 1-1.501-2.215c-.732-1.84-.732-3.993 0-6.039a9.057 9.057 0 0 1 1.501-2.619 8.41 8.41 0 0 1 2.258-1.923 7.572 7.572 0 0 1 2.822-.982 6.55 6.55 0 0 1 2.837.187c.856.251 1.63.689 2.275 1.286a6.254 6.254 0 0 1 1.499 2.197c.733 1.84.733 3.993 0 6.039a9.056 9.056 0 0 1-1.499 2.636 8.418 8.418 0 0 1-2.275 1.926 7.719 7.719 0 0 1-2.837.981v.003Zm58.286-4.11V141.31l11.515 14.045 4.128-.58v-23.416l-4.386.617v15.153l-11.225-13.576-4.453.626v23.415l4.421-.621Z" class="mainlogo__Vector"/>
    <g class="mainlogo__Vector">
      <path fill="#fff" fill-rule="evenodd" d="M11.13 65.144c-.154-.716-.095-5.658-.033-6.53.987-.28 1.849-.376 2.718-.472.197-.022.394-.043.592-.067.392-.047.865-.129 1.377-.217 1.7-.292 3.824-.657 4.787-.083 1.753 1.043 1.958 3.555.267 5.255-.92.925-2 1.097-3.219 1.24-1.155.134-2.278.295-3.4.455-1.022.146-2.044.293-3.089.419Zm.028-10.33c-.024-.094-.141-5.78-.02-6.525l.012-.065.008-.035.051-.198c.535-.15 4.212-.684 4.644-.62 3.376.497 3.24 5.27.212 6.547-1.093.46-2.543.622-3.786.76-.402.044-.781.086-1.12.136Zm-3.02 14.35-.106.004a55.09 55.09 0 0 0-.404-2.033c-.273-1.637-.245-3.074-.215-4.607.007-.377.014-.761.017-1.155l-.01-11.407c-.01-2.192-.014-3.358 1.558-4.756 1.136-1.011 2.856-1.156 4.354-1.283.355-.03.698-.059 1.018-.098 2.28-.28 3.225-.19 4.71.62 1.296.708 2.392 1.995 2.793 3.996.403 2.005.107 2.758-.268 3.712a9.732 9.732 0 0 0-.503 1.571c.127.119.387.227.717.364.571.238 1.351.563 2.005 1.18 2.85 2.69 2.292 7.08-.37 10.039-2.02 2.243-4.334 2.493-7.006 2.782h-.006c-.13.015-.26.03-.392.043-1.025.113-2.057.28-3.092.447-1.598.257-3.202.515-4.8.58Zm64.905-30.091c2.636-1.54 5.403-1.471 7.376-.792 2.174.748 3.235 1.88 4.56 4.232 1.19 2.116.542 5.766-.275 7.52-2.333 5.008-7.712 7.646-12.338 6.005-4.417-1.567-6.463-7.07-4.106-11.812 1.093-2.198 2.237-3.666 4.782-5.153Zm-.34-3.734c-.81.558-2.241.833-4.514 3.061-1.256 1.232-2.095 2.477-2.912 3.928-3.458 6.14-1.479 14.35 4.893 17.04 10.364 4.373 22.046-7.49 18.569-17.845-1.545-4.6-5.891-7.52-10.395-7.424-1.26.027-4.325.335-5.64 1.24Zm78.936 1.627c-.431-1.294.841-4.99 1.404-6.033 2.484-4.607 6.564-5.904 9.492-2.234 1.373 1.721 1.863 3.766 2.009 6.406-.642.284-10.72 1.513-12.905 1.861Zm-.186 11.987c.225-.611.117-6.94.114-8.137.387-.155 12.474-1.863 12.853-1.803.22.706.123 3.13.126 4.066.004.918-.135 3.413.078 4.096 4.324-1.071 3.507-4.588 3.667-6.58.104-1.293-.007-2.935 0-4.303.009-1.704.119-2.634-.227-4.497-.984-5.293-4.696-9.91-10.274-8.849-5.907 1.125-9.127 7.206-9.759 11.888-.208 1.545-.243 6.782-.203 8.48.028 1.205-.223 3.234.47 4.248.625.915 1.868 1.794 3.155 1.391ZM31.461 53.754c-.489-2.766 1.757-9.21 6.136-10.238 4.925-1.156 7.159 6.45 6.683 8.334-.8.395-7.907 1.217-9.698 1.506-1.063.171-2.169.185-3.121.398Zm-.159 11.99c.112-2.305.07-5.841 0-8.08.356-.214 12.415-1.931 12.926-1.861.228.767.066 3.083.074 4.03.01 1.028-.1 3.325.088 4.168 3.592-.913 3.867-3.641 3.67-6.63l.023-4.281c.023-4.61-.447-8.263-3.795-11.4-1.67-1.565-3.685-2.342-6.658-1.96-3.256.418-5.551 2.845-6.963 4.728-1.384 1.846-2.47 4.608-2.833 7.175-.373 2.633-.193 5.734-.22 8.44-.014 1.33-.21 3.138.473 4.312a2.954 2.954 0 0 0 3.215 1.36Zm103.708-35.5c2.564-1.636 5.22-.383 6.103 1.455 1.235 2.571-.304 5.308-2.348 6.481-5.544 3.183-9.348-4.367-3.755-7.936Zm-2.709 12.84c.537.058.937.58 1.52 1.093 1.205 1.063 6.212 5.547 6.993 5.895 1.436.64 2.906.02 4.245-1.078-.309-1.03-6.517-5.418-7.05-6.628 6.727-2.29 8.703-9.182 6.034-13.405-3.574-5.656-12.924-3.448-15.135 4.115-.548 1.875-.281 10.72-.294 12.916l-.005 5.41c-.005.475-.131.738.273.751.496.017 1.718-.715 2.04-1.041 2.057-2.087 1.063-4.484 1.379-8.028Zm-5.468 9.348c-.527-4.647-4.62-2.728-7.49-2.571-.646.035-2.989.603-3.296.391l-.099-.145c-.008-.02-.031-.056-.04-.08-.121-.367.013-2.685-.017-3.444-.046-1.193-.012-2.614.011-3.808 1.432-.553 6.421-.664 7.322-1.253-.126-1.842-1.271-2.804-2.498-3.035-1.324-.249-3.984.545-4.756.425-.106-.495-.174-5.246.034-5.751l6.655-.97c1.314-.13 2.218-.532 3.059-1.417.609-.64 1.265-1.812 1.058-2.867l-4.68.605c-.622.09-1.178.248-1.782.319-5.159.605-8.292.285-8.089 6.774.081 2.577-.19 14.954.133 16.257.812 3.276 5.065 2.015 7.922 1.566 1.135-.178 2.132-.235 3.259-.453.995-.192 2.375-.18 3.294-.543Z" clip-rule="evenodd"/>
      <path fill="#fff" fill-rule="evenodd" d="m111.022 30.19-6.582.877c-2.531.355-4.62 1.085-6.808 2.55-10.196 6.82-8.116 21.102 3.215 22.175 2.144.203 4.184-.302 6.462-.534.5-.05 1.061-.149 1.595-.23 1.814-.276 2.586.161 1.881-1.617-1.163-2.93-4.615-1.574-6.742-1.404-4.259.342-7.684-.946-9.03-5.127-1.324-4.117 1.243-8.453 5.09-10.668 4.524-2.604 7.267-.587 9.802-3.207.65-.672 1.232-1.727 1.117-2.815ZM54.39 41.72c.304 1.2-.187 19.317.169 20.861 4.351-1.23 3.474-4.519 3.561-6.842.079-2.084-.137-14.085.074-14.401.196-.296.9-.28 1.11-.303.87-.096 3.094-.411 3.775-.775 1.537-.822 2.386-2.247 2.34-3.753-.423-.084-15.198 1.989-17.401 2.33-.95.147-1.03.21-.727 1.21.981 3.231 4.757 1.885 7.1 1.673Z" clip-rule="evenodd"/>
    </g>
    <path fill="#085971" fill-rule="evenodd" d="M578.947 21.143v24.49l-.002-.002h-.001l.003.004-49.453 6.95-.003-.003.001.002c-8.264 1.161-13.413 4.21-17.342 8.456l.001.001c-4.2 4.558-6.774 10.666-6.774 16.823a21.577 21.577 0 0 0 .202 2.934c.038.271.082.54.131.808l.024.134c.036.19.076.376.117.563 2.711.59 5.853.707 9.501.194l23.439-3.294 14.141 14.14h.003l-14.142-14.14c1.218-.172 1.759-.794 1.761-2.158l-.003-.003V52.277l14.142 14.143v-.003l-14.142-14.142 24.387-3.427.003.003v-.003l14.143 14.142v44.739l-.003-.002v.002l-.001.002.001.001c0 3.968-1.896 6.149-5.825 6.702l-.002-.002-43.76 6.15.001.001c-13.816 1.942-24.553-.631-32.616-6.351a35.839 35.839 0 0 1-3.185-2.542c-.357-.32-.709-.646-1.054-.98l-.085-.084a36.566 36.566 0 0 1-.645-.64l-.228-.233-13.184-13.184a35.729 35.729 0 0 1-1.094-1.104v14.514a33.21 33.21 0 0 1-.212 3.743 27.035 27.035 0 0 1-.337 2.149l-.049.243c-.527 2.546-1.38 4.779-2.489 6.708a19.222 19.222 0 0 1-.973 1.526 18.731 18.731 0 0 1-2.761 3.122 18.708 18.708 0 0 1-4.1 2.808c-.197.1-.394.198-.594.29a20.004 20.004 0 0 1-5.692 1.666l.001.001a33.827 33.827 0 0 1-4.801.353c-5.4-.015-9.698-1.611-13.085-5.09l-.109-.111-.052-.052.161.165-14.141-14.143-5.886-6.045 7.513 7.513.007.005-7.521-7.519-31.427-32.282a2.059 2.059 0 0 0-.976-.087l-.003-.002h-.003l.004.003c-1.219.172-2.303 1.282-2.303 2.923v62.662l-.002-.002h-.002l.003.003-24.116 3.389-5.309-5.308v6.054l-.002-.002-24.658 3.466-3.547-3.546v4.047l-.002-.002-47.962 6.74v.001c-9.99 1.404-18.37.448-25.293-2.351-.23-.093-.458-.19-.685-.287a35.996 35.996 0 0 1-3.88-1.94 35.913 35.913 0 0 1-7.611-5.901l-.156-.159c-.062-.064-.126-.127-.188-.192l-12.384-12.384 11.794 24.505-.007-.007.003.006.004.004c.677 1.409 1.083 2.583 1.489 3.893l.002.002-27.639 3.883-.003-.002h-.001l.001.003-12.598-12.597-47.559 6.684-4.743 11.748.003.003c-.406 1.152-.812 2.304-.948 3.417l-.004-.004-.004.001.004.004-52.402 7.364-.003-.003-.001.001-.001-.003v.006L85.028 166.92a45.704 45.704 0 0 1-.406-6.1l5.397 5.397h.001l-5.398-5.399v-10.55l-38.56 5.42-.002-.002v.002l.002.001v32.836l-24.524 3.447L7.395 177.83V91.086l14.14 14.141v-.003l-14.14-14.14c0-3.83 2.032-6.032 6.096-6.603l.002.001 65.033-9.138 14.139 14.138h.002l-14.14-14.138c11.245-1.58 18.427.83 23.44 5.462l.025.025c.375.35.739.714 1.09 1.09l13.027 13.027a22.731 22.731 0 0 1 6.008 9.255 24.383 24.383 0 0 1 1.307 7.912c0 7.09-2 14.08-7.909 19.673l3.703 3.703.274.283a11.723 11.723 0 0 1 .656.765l23.249-55.266.001.001c5.149-12.215 13.414-18.985 26.555-20.833 9.096-1.278 16.05.606 21.157 5.711l14.108 14.108.033.032c2.042 2.04 3.788 4.597 5.259 7.67l.008.009 8.901 18.496a47.886 47.886 0 0 1-.224-4.651c0-13.408 5.691-26.386 14.769-36.144l14.14 14.142.001-.002-14.141-14.14c8.129-8.668 19.105-14.862 33.873-16.938l.002.002 47.96-6.74.002.002v-.002l3.547 3.547v-4.047l24.659-3.465 7.368 7.367c3.325-7.92 10.404-11.918 19.213-13.156l14.141 14.142-14.139-14.14c8.671-1.22 14.091.345 19.781 6.386l12.76 12.759c.268.251.534.514.803.785l.075.076c.159.161.318.326.477.494l.028.028 8.31 8.876-.046-.046.043.046 27.908 29.81 1.846 1.535 2.048 2.25-.864-.549 5.463 5.836.003.003c.632.803 1.381.874 2.139.787-.758.087-6.109-5.273-6.741-6.078l6.901 6.059-14.079-14.08 5.13 5.772-5.182-5.824-.01-.01c1.084-.152 1.896-1.088 1.896-2.73l14.143 14.143-14.141-14.141V24.64l23.982-3.371 14.142 14.142-.001.379a57.323 57.323 0 0 1 4.075-4.904l14.141 14.14h.001l-14.142-14.14c8.13-8.668 19.105-14.862 33.874-16.938L564.805 7l14.142 14.143ZM98.764 156.49v-.002l-7.05-7.049h-.001l7.05 7.051Zm145.402-11.952.098.098-.023-.024-.09-.09.015.016Zm-77.957-7.653.002-.001-.002-.002v.003Zm99.482-8.642-.154-.104-.002-.001c.051.036.105.07.156.105Zm-169.368-3.7.002-.001-10.914-10.915h-.003l10.915 10.916Zm84.394-23.829a7.593 7.593 0 0 0-.551 1.098l.002.002-7.158 17.987 15.369-2.16-7.662-16.927Zm101.262-13.347h-.004l.002.002c-8.265 1.162-13.413 4.21-17.342 8.456l.001.001c-4.2 4.558-6.776 10.666-6.776 16.822l.001.002c0 .602.026 1.196.075 1.781.068.811.182 1.605.339 2.378l.003.015c2.523.478 5.422.555 8.754.154l.805-.105 47.962-6.74.002.002v-.002l3.547 3.547V82.115l-37.369 5.252ZM96.057 114.596a5.425 5.425 0 0 1-.002-.003l-.011-.01.013.013Zm395.625-4.843c.037.039.076.076.114.114l-.025-.025-.105-.106.016.017Zm-303.252-9.101-2.115-2.115h-.002l2.117 2.115Zm169.72-34.966 5.307 5.306v-.003l-5.307-5.306v.002Zm-88.191.035c.145-.05.29-.103.437-.152h.001c-.147.049-.292.101-.438.152Zm5.028-1.489c.114-.028.227-.059.341-.087h.003c-.115.028-.229.059-.344.087Z" class="mainlogo__Union" clip-rule="evenodd"/>
    <path fill="#000" d="M564.238.023a7 7 0 0 1 5.517 2.027l14.142 14.143a7 7 0 0 1 2.05 4.95v24.554a6.917 6.917 0 0 1-.258 1.815 7.146 7.146 0 0 1-.123.398l-.008.026c-.053.15-.11.297-.171.441-.008.02-.017.037-.026.056a4.472 4.472 0 0 1-.084.188l-.017.036a7 7 0 0 1-5.338 3.91l-1.194.167 5.306 5.307a7 7 0 0 1 2.05 4.95v44.739c0 .105-.003.21-.008.314-.049 2.977-.816 6.227-3.151 8.913-2.417 2.779-5.664 3.983-8.695 4.409l-.08.009-43.622 6.13-.058.01c-14.74 2.072-27.05-.454-36.714-6.933l-.927-.639a43.158 43.158 0 0 1-2.469-1.891h-.001c-.448-.37-.893-.751-1.333-1.144v-.001a46.045 46.045 0 0 1-1.242-1.155l-.09-.087-.011-.012-.669-.662-.034-.033-.068-.07-.181-.185-2.395-2.395a32.751 32.751 0 0 1-.078 1.1c-.03.345-.067.728-.113 1.128a34.679 34.679 0 0 1-.421 2.688l-.063.308c-.625 3.025-1.635 5.797-2.997 8.285l-.277.493c-.136.237-.273.466-.408.686l-.405.634a25.6 25.6 0 0 1-2.712 3.468v.001a25.6 25.6 0 0 1-1.587 1.566l-.001.001a25.72 25.72 0 0 1-5.628 3.858c-.239.121-.513.256-.811.395a26.998 26.998 0 0 1-7.522 2.225c-.046.008-.093.017-.14.024a40.858 40.858 0 0 1-5.794.42l-.001-.001c-6.884-.018-13.071-2.117-17.983-7.107l-.033-.03-14.141-14.143-.066-.066-5.885-6.045-.028-.029-22.666-23.283v51.645a6.99 6.99 0 0 1-.339 2.147l-.023.076-.006.015c-.019.058-.041.115-.062.172l-.02.058a9.11 9.11 0 0 1-.168.406l-.025.055-.076.158-.027.055a6.045 6.045 0 0 1-.185.345l-.065.111-.072.118-.078.12-.059.088-.059.086a5.161 5.161 0 0 1-.233.313l-.06.077-.093.113a4.993 4.993 0 0 1-.095.11l-.071.08-.093.099-.069.075-.019.018a7.293 7.293 0 0 1-.726.647l-.096.071c-.035.026-.07.053-.106.078l-.106.074-.096.064a4.133 4.133 0 0 1-.11.071l-.115.073-.071.042a4.799 4.799 0 0 1-.155.09l-.065.036a6.26 6.26 0 0 1-.181.096l-.03.016a7.698 7.698 0 0 1-.205.098l-.029.014a6.985 6.985 0 0 1-1.709.53c-.042.008-.084.013-.126.02-.034.005-.069.013-.104.017l-24.116 3.389a6.982 6.982 0 0 1-2.728-.157 6.987 6.987 0 0 1-2.727.921l-24.513 3.446a6.994 6.994 0 0 1-1.799.017l-.044.019a6.987 6.987 0 0 1-1.851.483l-47.758 6.712c-.02.002-.039.007-.059.009-10.963 1.541-20.62.551-28.892-2.794v.001c-.292-.118-.569-.236-.814-.34h-.001c-.502-.215-.999-.44-1.49-.672a7 7 0 0 1-5.716 8.994l-27.606 3.879a7.464 7.464 0 0 1-.474.051c-.253.02-.507.026-.76.018l-.05-.002a6.99 6.99 0 0 1-4.676-2.043l-10.131-10.131-40.099 5.636-3.138 7.773c-.448 1.273-.553 1.666-.578 1.873a6.998 6.998 0 0 1-3.638 5.32l-.043.023c-.06.032-.12.061-.18.091l-.037.019c-.129.062-.26.12-.393.174l-.078.032-.11.043-.156.057-.032.012-.034.011a7.765 7.765 0 0 1-.251.08l-.117.033-.148.04-.082.02-.144.034-.114.024-.131.025-.112.019-.124.02-.055.009-52.277 7.345a6.998 6.998 0 0 1-6.053-1.961l-14.143-14.142a7.004 7.004 0 0 1-1.987-4.017 52.705 52.705 0 0 1-.469-7.033v-2.501l-24.56 3.452v26.754a7 7 0 0 1-6.026 6.932l-24.523 3.446a7 7 0 0 1-5.924-1.982L2.445 182.781a7.002 7.002 0 0 1-2.05-4.95V91.085c0-3.168.866-6.549 3.38-9.273 2.457-2.661 5.698-3.835 8.742-4.263l.084-.01 64.95-9.126 1.19-.156c11.779-1.422 20.678 1.041 27.32 6.819l.656.589.083.079c.437.409.859.83 1.268 1.263l12.964 12.964a29.72 29.72 0 0 1 6.927 9.95l8.986-21.36.027-.059c2.916-6.9 6.894-12.686 12.358-17.017 5.497-4.358 12.076-6.91 19.649-7.975 10.628-1.493 20.01.626 27.08 7.692h.002l14.138 14.14c2.103 2.1 3.885 4.534 5.397 7.232 2.886-8.063 7.476-15.47 13.243-21.67l.019-.02c9.238-9.85 21.678-16.786 38.004-19.08l.079-.01 47.883-6.729.018-.003c.117-.016.234-.029.351-.039l.093-.007a6.86 6.86 0 0 1 .702-.016l.1.002c.118.005.237.013.354.024l.03.003.157.017a7.004 7.004 0 0 1 1.745-.481l24.659-3.465.407-.046a7.001 7.001 0 0 1 5.516 2.028l1.339 1.338c5.093-5.323 12.054-8.088 19.318-9.109l.063-.008c4.882-.68 9.534-.682 14.028.736 4.539 1.432 8.262 4.104 11.654 7.68l12.682 12.68c.304.288.596.575.871.853l.09.092c.133.135.28.288.435.45h.001l.027.028.16.166 8.311 8.877.051.058 14.295 15.269v-47.55a7 7 0 0 1 6.026-6.933l23.981-3.37.408-.046a7 7 0 0 1 5.517 2.027l8.951 8.951c9.153-9.41 21.349-16.023 37.215-18.253l49.452-6.95.407-.045ZM515.353 13.95c-14.769 2.075-25.744 8.27-33.874 16.937l14.142 14.14h-.001l-14.141-14.14a57.321 57.321 0 0 0-4.075 4.904l.001-.378-14.142-14.143-23.982 3.371v59.79l14.141 14.142-14.143-14.143c0 1.642-.812 2.577-1.896 2.73l.01.01 5.182 5.824-5.13-5.772 14.079 14.079-6.901-6.058c.632.805 5.983 6.165 6.741 6.078-.758.087-1.507.016-2.139-.787l-.003-.003-5.463-5.836.864.548-2.048-2.25-1.846-1.534-27.908-29.81-.043-.046.046.046-8.31-8.877-.028-.027a32.817 32.817 0 0 0-.477-.494l-.075-.077a31.578 31.578 0 0 0-.803-.785l-12.76-12.759c-5.69-6.04-11.11-7.605-19.781-6.386l14.139 14.14-14.141-14.141c-8.809 1.238-15.888 5.236-19.213 13.156l-7.368-7.367-24.659 3.465v4.047l-3.547-3.547v.002l-.002-.002-47.96 6.74-.002-.002c-14.768 2.075-25.744 8.27-33.873 16.937l14.141 14.14-.001.002-14.14-14.142c-9.078 9.759-14.769 22.737-14.769 36.145 0 1.583.076 3.134.224 4.65l-8.901-18.496-.008-.008c-1.471-3.074-3.217-5.63-5.259-7.67l-.033-.033-14.108-14.107c-5.107-5.105-12.061-6.99-21.157-5.711-13.141 1.847-21.406 8.618-26.555 20.833l-.001-.001-23.249 55.266a11.723 11.723 0 0 0-.656-.765l-.274-.283-3.703-3.703c5.909-5.593 7.909-12.583 7.909-19.673a24.383 24.383 0 0 0-1.307-7.912 22.733 22.733 0 0 0-6.008-9.255L103.082 81.92a22.41 22.41 0 0 0-1.09-1.09l-.025-.025c-5.013-4.631-12.195-7.042-23.44-5.462l14.14 14.139h-.002L78.526 75.344l-65.033 9.139-.002-.002c-4.064.571-6.096 2.773-6.096 6.604l14.14 14.139v.003l-14.14-14.14v86.744l14.142 14.141 24.523-3.446V155.69l-.001-.002v-.002l.002.002 38.56-5.42v10.551l5.398 5.398h-.001l-5.397-5.396a45.7 45.7 0 0 0 .406 6.099l14.143 14.143-.001-.007v.003l.002-.001.003.003 52.402-7.363-.004-.004.004-.001.004.004c.136-1.114.542-2.266.948-3.417l-.003-.003 4.743-11.748 47.559-6.685 12.598 12.598-.001-.003.001-.001.003.003 27.639-3.884-.002-.002c-.406-1.31-.812-2.484-1.489-3.892l-.004-.004-.003-.006.007.007-11.794-24.505 12.384 12.384.188.192.156.158a35.953 35.953 0 0 0 7.611 5.902 35.996 35.996 0 0 0 4.565 2.226c6.923 2.8 15.303 3.756 25.293 2.352v-.001l47.962-6.741.002.002v-4.046l3.547 3.545 24.658-3.465.002.002v-6.054l5.309 5.308 24.116-3.389-.003-.003h.002l.002.002V77.867c0-1.642 1.084-2.752 2.303-2.923l-.004-.004h.003l.003.003a2.06 2.06 0 0 1 .976.087l31.427 32.281 7.521 7.52-.007-.005-7.513-7.513 5.886 6.045 14.141 14.143-.161-.166.052.052.109.112c3.387 3.479 7.685 5.075 13.085 5.089a33.82 33.82 0 0 0 4.801-.352l-.001-.001a21 21 0 0 0 1.666-.303c1.38-.31 2.731-.763 4.026-1.363a19.149 19.149 0 0 0 1.311-.673 18.66 18.66 0 0 0 3.709-2.727 18.846 18.846 0 0 0 2.808-3.372c.207-.316.408-.64.6-.974 1.109-1.929 1.962-4.162 2.489-6.708l.049-.243a27.148 27.148 0 0 0 .428-3.065 33.168 33.168 0 0 0 .121-2.828V95.465c.358.376.721.746 1.094 1.105l13.184 13.183c.075.079.152.156.228.234l.085.086c.185.187.371.371.56.554l.085.083a37.515 37.515 0 0 0 2.172 1.941 35.839 35.839 0 0 0 2.067 1.582c8.063 5.719 18.8 8.292 32.616 6.351l-.001-.001 43.76-6.151.002.002c3.929-.552 5.825-2.734 5.825-6.701l-.001-.001.001-.003v-.002l.003.003V62.99l-14.143-14.142v.003l-.003-.003-24.387 3.428 14.142 14.142v.002l-14.142-14.142v24.765l.003.002c-.002 1.365-.543 1.987-1.761 2.158l14.142 14.14-.003.001-14.141-14.14-23.439 3.294c-3.648.512-6.79.395-9.501-.195a20.438 20.438 0 0 1-.117-.562l-.024-.135a19.246 19.246 0 0 1-.255-1.913c-.051-.6-.078-1.21-.078-1.828 0-6.157 2.574-12.265 6.774-16.823l-.001-.001c3.929-4.246 9.078-7.295 17.342-8.456l-.001-.002.003.003 49.453-6.95-.003-.004h.001l.002.001v-24.49L564.805 7.001l-49.452 6.949ZM92.635 183.568l-.013-.036c-.01-.024-.02-.048-.028-.072l.04.108Zm-.92-34.128 7.049 7.049v.002l-7.051-7.051h.002Zm152.526-4.827.023.023-.098-.097-.015-.016.09.09Zm-78.03-7.729-.002.001v-.003l.002.002Zm99.326-8.745c.051.036.103.069.154.105-.051-.036-.105-.07-.156-.106l.002.001ZM85.411 113.627l10.914 10.916-.002.001-10.915-10.917h.003Zm340.36 6.924a.143.143 0 0 0-.005-.004l-.011-.007.016.011Zm-237.392-2.91-15.369 2.16 7.158-17.986-.002-.002c.167-.409.352-.774.551-1.099l7.662 16.927Zm130.969-3.961-3.547-3.547v.002l-.002-.002-47.962 6.741-.805.104c-3.332.402-6.231.324-8.754-.153l-.003-.016a20.561 20.561 0 0 1-.339-2.378 21.29 21.29 0 0 1-.075-1.78l-.001-.002c.001-6.157 2.576-12.264 6.776-16.822l-.001-.001c3.929-4.246 9.077-7.295 17.342-8.456l-.002-.002h.002l.001-.001h.001l37.369-5.251v31.564Zm-223.293.913a5.358 5.358 0 0 1 .002.003l-.013-.012.01.009Zm169.11.978.001.003a.514.514 0 0 0-.006-.03l-.001-.005a.402.402 0 0 1 .006.032Zm17.875-21.284-.089.014c-6.736.947-10.383 3.267-13.153 6.251l-.015.018c-2.504 2.717-4.165 6.128-4.719 9.572.358-.03.727-.066 1.107-.111l.715-.093 45.462-6.389V90.167l-29.308 4.12Zm208.731 15.555.025.026c-.038-.039-.077-.076-.114-.115l-.016-.016.105.105ZM186.315 98.538l2.115 2.115-2.117-2.116h.002Zm344.154-39.02c-.011 0-.023 0-.034.002-6.716.95-10.356 3.268-13.122 6.247l-.014.018c-2.602 2.823-4.293 6.396-4.778 9.977a27.177 27.177 0 0 0 1.856-.196l19.174-2.695V59.084l-3.082.433ZM363.457 70.99v.003l-5.307-5.307v-.003l5.307 5.307Zm-93.061-5.42c-.147.049-.292.101-.437.151.146-.05.291-.103.438-.152h-.001Zm4.932-1.424c-.114.028-.227.059-.341.087.115-.029.229-.06.344-.088l-.003.001Z" class="mainlogo__Union mainlogo__(Stroke)"/>
    <g class="mainlogo__racing">
      <path fill="url(#mainlogo__a)" d="M31.918 141.546v32.837l-24.523 3.446V91.085c0-3.83 2.032-6.032 6.097-6.603l65.034-9.14c11.246-1.58 18.426.83 23.44 5.462 4.471 4.16 7.316 10.191 7.316 17.17 0 7.387-2.168 14.67-8.671 20.373 6.097 2.837 8.806 7.382 8.806 17.917v18.47c0 3.968.136 6.138.407 8.7l-24.795 3.484a45.7 45.7 0 0 1-.406-6.099v-18.471c0-5.883-2.845-7.809-10.026-6.8l-42.679 5.998Zm0-21.07 43.356-6.094c3.388-.476 5.42-1.993 6.91-3.981 1.084-1.52 1.761-3.257 1.761-5.036 0-1.916-.677-3.736-2.032-4.914-1.355-1.314-3.522-1.967-6.639-1.53L33.95 104.73c-1.355.191-2.032 1.107-2.032 2.338v13.409Z"/>
      <path fill="#099EC9" d="M31.918 141.546v32.837l-24.523 3.446V91.085c0-3.83 2.032-6.032 6.097-6.603l65.034-9.14c11.246-1.58 18.426.83 23.44 5.462 4.471 4.16 7.316 10.191 7.316 17.17 0 7.387-2.168 14.67-8.671 20.373 6.097 2.837 8.806 7.382 8.806 17.917v18.47c0 3.968.136 6.138.407 8.7l-24.795 3.484a45.7 45.7 0 0 1-.406-6.099v-18.471c0-5.883-2.845-7.809-10.026-6.8l-42.679 5.998Zm0-21.07 43.356-6.094c3.388-.476 5.42-1.993 6.91-3.981 1.084-1.52 1.761-3.257 1.761-5.036 0-1.916-.677-3.736-2.032-4.914-1.355-1.314-3.522-1.967-6.639-1.53L33.95 104.73c-1.355.191-2.032 1.107-2.032 2.338v13.409Z"/>
      <path fill="url(#mainlogo__b)" d="m196.373 73.83 33.06 68.689c.677 1.41 1.084 2.584 1.49 3.895l-27.64 3.885c-.271-1.193-.677-2.094-1.084-2.995l-4.877-10.533-54.196 7.616-4.742 11.749c-.406 1.152-.813 2.304-.948 3.417l-28.317 3.98c.406-1.425.813-2.714 1.49-4.314l32.788-77.944c5.149-12.216 13.414-18.988 26.556-20.835 12.736-1.79 21.272 2.62 26.42 13.39Zm-44.304 48.914 36.311-5.103-14.091-31.13c-.813-1.938-2.439-2.53-4.2-2.283-1.626.229-3.117 1.122-4.065 3.445l-13.955 35.071Z"/>
      <path fill="#099EC9" d="m196.373 73.83 33.06 68.689c.677 1.41 1.084 2.584 1.49 3.895l-27.64 3.885c-.271-1.193-.677-2.094-1.084-2.995l-4.877-10.533-54.196 7.616-4.742 11.749c-.406 1.152-.813 2.304-.948 3.417l-28.317 3.98c.406-1.425.813-2.714 1.49-4.314l32.788-77.944c5.149-12.216 13.414-18.988 26.556-20.835 12.736-1.79 21.272 2.62 26.42 13.39Zm-44.304 48.914 36.311-5.103-14.091-31.13c-.813-1.938-2.439-2.53-4.2-2.283-1.626.229-3.117 1.122-4.065 3.445l-13.955 35.071Z"/>
      <path fill="url(#mainlogo__c)" d="M315.799 110.132v24.354l-47.963 6.741c-16.394 2.304-28.452-1.748-36.853-9.871-7.316-7.044-11.787-17.362-11.787-29.539 0-13.408 5.69-26.385 14.768-36.143 8.129-8.668 19.104-14.862 33.872-16.938l47.963-6.74v24.49l-47.963 6.741c-8.265 1.161-13.413 4.211-17.342 8.457-4.2 4.559-6.775 10.667-6.775 16.824 0 5.609 2.168 10.504 5.691 13.84 3.929 3.826 9.755 5.743 18.426 4.525l47.963-6.741Z"/>
      <path fill="#099EC9" d="M315.799 110.132v24.354l-47.963 6.741c-16.394 2.304-28.452-1.748-36.853-9.871-7.316-7.044-11.787-17.362-11.787-29.539 0-13.408 5.69-26.385 14.768-36.143 8.129-8.668 19.104-14.862 33.872-16.938l47.963-6.74v24.49l-47.963 6.741c-8.265 1.161-13.413 4.211-17.342 8.457-4.2 4.559-6.775 10.667-6.775 16.824 0 5.609 2.168 10.504 5.691 13.84 3.929 3.826 9.755 5.743 18.426 4.525l47.963-6.741Z"/>
      <path fill="url(#mainlogo__d)" d="m319.349 41.496 24.659-3.465v92.49l-24.659 3.466v-92.49Z"/>
      <path fill="#099EC9" d="m319.349 41.496 24.659-3.465v92.49l-24.659 3.466v-92.49Z"/>
      <path fill="url(#mainlogo__e)" d="M463.263 21.27v74.568c0 13.955-8.265 21-17.207 22.257-7.723 1.085-13.549-.285-17.885-4.738l-50.266-51.631c-.678-.726-1.355-1.041-2.168-.927-1.219.171-2.303 1.281-2.303 2.923v62.664l-24.117 3.389V56.85c0-15.734 8.942-22.874 21.271-24.607 8.672-1.219 14.091.346 19.782 6.387l44.711 47.76c.677.863 1.49.885 2.303.77 1.084-.151 1.897-1.087 1.897-2.728v-59.79l23.982-3.371Z"/>
      <path fill="#099EC9" d="M463.263 21.27v74.568c0 13.955-8.265 21-17.207 22.257-7.723 1.085-13.549-.285-17.885-4.738l-50.266-51.631c-.678-.726-1.355-1.041-2.168-.927-1.219.171-2.303 1.281-2.303 2.923v62.664l-24.117 3.389V56.85c0-15.734 8.942-22.874 21.271-24.607 8.672-1.219 14.091.346 19.782 6.387l44.711 47.76c.677.863 1.49.885 2.303.77 1.084-.151 1.897-1.087 1.897-2.728v-59.79l23.982-3.371Z"/>
      <path fill="url(#mainlogo__f)" d="m559.114 100.29-43.762 6.151c-16.395 2.304-28.453-1.748-36.853-9.871-7.317-7.044-11.788-17.362-11.788-29.539 0-13.408 5.691-26.385 14.768-36.143 8.13-8.668 19.104-14.862 33.873-16.938L564.805 7v24.49l-49.453 6.951c-8.265 1.161-13.414 4.211-17.343 8.457-4.2 4.558-6.774 10.667-6.774 16.824 0 5.61 2.167 10.504 5.69 13.84 3.929 3.826 9.755 6.154 18.427 4.935l23.439-3.294c1.219-.172 1.761-.795 1.761-2.163V52.275l24.388-3.427v44.74c0 3.968-1.897 6.15-5.826 6.702Z"/>
      <path fill="#099EC9" d="m559.114 100.29-43.762 6.151c-16.395 2.304-28.453-1.748-36.853-9.871-7.317-7.044-11.788-17.362-11.788-29.539 0-13.408 5.691-26.385 14.768-36.143 8.13-8.668 19.104-14.862 33.873-16.938L564.805 7v24.49l-49.453 6.951c-8.265 1.161-13.414 4.211-17.343 8.457-4.2 4.558-6.774 10.667-6.774 16.824 0 5.61 2.167 10.504 5.69 13.84 3.929 3.826 9.755 6.154 18.427 4.935l23.439-3.294c1.219-.172 1.761-.795 1.761-2.163V52.275l24.388-3.427v44.74c0 3.968-1.897 6.15-5.826 6.702Z"/>
      <path stroke="url(#mainlogo__g)" stroke-opacity=".73" stroke-width="3" d="M78.734 76.827c10.578-1.486 17.188.682 21.776 4.686l.437.393c4.168 3.88 6.835 9.512 6.835 16.067 0 7.076-2.062 13.899-8.16 19.246l-1.73 1.516 2.086.972c2.824 1.314 4.736 2.954 5.988 5.396 1.282 2.5 1.951 5.993 1.951 11.161v18.47c0 2.959.075 4.945.226 6.833-.066.206-.129.41-.191.615l-21.612 3.037a44.384 44.384 0 0 1-.217-4.401v-18.47c0-3.13-.755-5.719-2.979-7.226-2.103-1.426-5.108-1.572-8.756-1.06l-42.679 5.999-1.291.181v32.836l-21.523 3.026V91.085l.004-.302c.05-1.481.47-2.498 1.122-3.204.707-.766 1.864-1.356 3.68-1.611l65.033-9.14Zm91.428-14.901c6.158-.866 11.145-.212 15.166 1.836 4.011 2.042 7.226 5.555 9.693 10.715v.004l33.06 68.689c.343.713.61 1.362.848 2.009l-24.565 3.453c-.252-.736-.537-1.366-.798-1.944l-.005-.014-4.878-10.533-.467-1.011-1.103.155-54.195 7.617-.858.12-.325.804-4.742 11.749-.012.03-.011.032c-.278.785-.591 1.669-.809 2.58l-24.907 3.501c.21-.606.447-1.23.736-1.914l.002-.003 32.788-77.945h-.001c2.501-5.933 5.719-10.452 9.83-13.712 4.108-3.256 9.197-5.325 15.553-6.218Zm144.137 3.256-46.671 6.56c-8.588 1.206-14.059 4.41-18.235 8.924l-.002.002c-4.434 4.811-7.171 11.275-7.171 17.84 0 5.993 2.317 11.281 6.143 14.913v.001c4.347 4.232 10.683 6.201 19.682 4.936l46.254-6.502v21.325l-46.671 6.56c-16.022 2.252-27.591-1.717-35.602-9.464l-.003-.002-.648-.641c-6.618-6.72-10.679-16.383-10.679-27.817 0-12.985 5.514-25.605 14.362-35.118l.001.001c7.891-8.414 18.552-14.45 32.986-16.478l46.254-6.502v21.462Zm28.21 64.035-21.659 3.044V42.8l21.659-3.044v89.461Zm119.254-33.38c0 6.671-1.97 11.556-4.883 14.907-2.922 3.361-6.88 5.282-11.033 5.865-7.435 1.045-12.71-.303-16.601-4.298L378.979 60.68c-.89-.945-2.016-1.568-3.451-1.367-2.004.282-3.594 2.066-3.594 4.41v61.358l-21.118 2.969v-71.2c0-7.571 2.145-12.89 5.6-16.52 3.474-3.65 8.435-5.766 14.381-6.602 4.214-.592 7.49-.485 10.349.416 2.84.897 5.408 2.623 8.128 5.51v.001l44.69 47.736c.523.635 1.152 1.027 1.848 1.205.675.172 1.313.116 1.781.05a3.497 3.497 0 0 0 2.352-1.399c.572-.774.836-1.753.836-2.815V25.945l20.982-2.95v72.843ZM173.208 83.206c-1.063-.524-2.229-.616-3.328-.462-1.024.144-2.063.508-3.001 1.24-.819.64-1.498 1.511-2.026 2.628l-.217.495-.006.012-13.955 35.071-.954 2.4 2.556-.36 36.312-5.102 1.983-.279-.826-1.826-14.091-31.13c-.532-1.246-1.373-2.157-2.447-2.687Zm-90.25 16.17c-1.794-1.74-4.49-2.417-7.893-1.939l-41.324 5.808c-.982.138-1.852.565-2.468 1.304-.608.73-.855 1.63-.855 2.519v15.134l1.709-.24 43.356-6.093c3.82-.537 6.195-2.291 7.902-4.567l.01-.015.01-.015c1.219-1.709 2.04-3.744 2.04-5.906 0-2.219-.777-4.466-2.487-5.99Zm480.347-69.189-48.162 6.77c-8.588 1.207-14.058 4.41-18.235 8.924l-.002.002c-4.433 4.811-7.172 11.275-7.172 17.84 0 5.993 2.318 11.282 6.145 14.914 4.301 4.188 10.608 6.622 19.682 5.346L539 80.69c.812-.115 1.669-.418 2.285-1.164.603-.729.768-1.632.768-2.485V53.58l21.387-3.008v43.016c0 1.753-.417 2.895-1.071 3.647-.654.753-1.728 1.326-3.464 1.57l-43.762 6.15c-16.022 2.252-27.591-1.717-35.602-9.464l-.002-.002-.648-.641c-6.618-6.72-10.68-16.383-10.68-27.817 0-12.987 5.518-25.609 14.367-35.122h-.001c7.892-8.413 18.552-14.445 32.984-16.474l47.744-6.71v21.461Z"/>
    </g>
  </g>
</svg>
