<svg width="587" height="233" viewBox="0 0 587 233" fill="none" xmlns="http://www.w3.org/2000/svg">
<path d="M19.9341 217.037C21.7101 216.785 23.4642 216.139 25.0743 215.145C26.6576 214.206 28.0624 212.935 29.1836 211.427L26.122 208.714C25.3707 209.746 24.4375 210.632 23.383 211.312C22.3486 211.971 21.213 212.393 20.0638 212.547C19.094 212.694 18.1317 212.643 17.2327 212.396C16.3337 212.15 15.5159 211.713 14.8264 211.111C14.1625 210.521 13.638 209.782 13.2833 208.938C12.903 208.043 12.7115 207.053 12.7201 206.027C12.7097 204.993 12.8958 203.939 13.2679 202.924C13.6152 201.98 14.13 201.09 14.7832 200.305C15.4383 199.525 16.2218 198.87 17.0871 198.377C17.9888 197.858 18.9592 197.523 19.9388 197.391C21.1201 197.221 22.2862 197.334 23.3444 197.724C24.4382 198.133 25.396 198.803 26.1483 199.686L29.307 196C28.1964 194.775 26.7832 193.88 25.1823 193.389C23.537 192.841 21.7466 192.687 19.9341 192.939C18.3152 193.155 16.7103 193.699 15.2122 194.538C13.7929 195.328 12.497 196.373 11.3945 197.617C10.3063 198.86 9.4408 200.282 8.84838 201.802C8.23425 203.393 7.91673 205.053 7.91408 206.685C7.91143 208.317 8.22371 209.89 8.83295 211.312C9.41835 212.661 10.2784 213.836 11.3621 214.768C12.4651 215.701 13.7616 216.382 15.1813 216.771C16.6895 217.19 18.3051 217.281 19.9341 217.037ZM81.0061 208.489C82.6197 208.274 84.2193 207.731 85.7111 206.892C87.1242 206.106 88.4099 205.057 89.4941 203.807C90.5783 202.556 91.4397 201.127 92.0286 199.604C92.6453 198.02 92.963 196.367 92.963 194.743C92.963 193.118 92.6453 191.555 92.0286 190.145C91.4398 188.786 90.5784 187.6 89.4942 186.654C88.4099 185.708 87.1242 185.021 85.7111 184.632C82.7033 183.808 79.3399 184.28 76.332 185.95C74.9189 186.736 73.6332 187.785 72.549 189.035C71.4647 190.286 70.6034 191.715 70.0145 193.238C69.3983 194.822 69.0808 196.475 69.0808 198.099C69.0808 199.724 69.3983 201.287 70.0145 202.698C70.6034 204.056 71.4648 205.242 72.5491 206.188C73.6333 207.134 74.919 207.821 76.332 208.21C77.8143 208.629 79.4024 208.725 81.0061 208.489ZM81.0061 204.044C80.0593 204.185 79.1207 204.127 78.248 203.873C77.3753 203.62 76.5868 203.175 75.9308 202.568C75.2838 201.957 74.775 201.206 74.4325 200.355C73.7017 198.516 73.7017 196.366 74.4325 194.322C74.7779 193.381 75.2865 192.493 75.9308 191.705C76.5868 190.913 77.3753 190.248 78.248 189.748C79.1207 189.249 80.0593 188.927 81.0061 188.802C81.9808 188.658 82.9465 188.721 83.8424 188.989C84.6979 189.24 85.4707 189.677 86.1139 190.274C86.7582 190.88 87.2668 191.625 87.6122 192.469C88.3427 194.308 88.3427 196.459 87.6122 198.503C87.2697 199.45 86.7609 200.344 86.1139 201.137C85.4707 201.914 84.6979 202.569 83.8424 203.06C82.9468 203.579 81.9802 203.915 81.0061 204.044ZM151.843 198.167V193.889L139.498 195.624V176.504L134.829 177.16V200.555L151.843 198.167ZM210.758 189.887V185.609L198.413 187.344V168.224L193.74 168.88V192.275L210.758 189.887ZM270.121 181.544V177.333L257.328 179.131V173.581L265.676 172.408V168.329L257.328 169.503V164.16L269.993 162.38V158.168L252.652 160.606V184.001L270.121 181.544ZM321.946 174.594C323.722 174.342 325.476 173.696 327.086 172.702C328.669 171.763 330.074 170.492 331.195 168.983L328.132 166.273C327.381 167.305 326.447 168.19 325.393 168.871C324.359 169.53 323.223 169.952 322.074 170.106C321.104 170.253 320.142 170.201 319.243 169.955C318.345 169.708 317.527 169.271 316.838 168.67C316.174 168.079 315.649 167.34 315.295 166.496C314.914 165.601 314.722 164.612 314.73 163.585C314.72 162.551 314.906 161.497 315.279 160.482C315.625 159.538 316.14 158.648 316.793 157.864C317.448 157.084 318.232 156.428 319.097 155.935C319.999 155.416 320.969 155.081 321.949 154.95C323.134 154.779 324.304 154.894 325.365 155.287C326.459 155.696 327.417 156.366 328.169 157.25L331.328 153.564C330.217 152.338 328.804 151.443 327.203 150.952C325.558 150.404 323.768 150.251 321.956 150.502C320.337 150.718 318.732 151.262 317.234 152.101C315.815 152.89 314.518 153.935 313.415 155.178C312.326 156.421 311.46 157.844 310.868 159.363C310.254 160.955 309.936 162.615 309.933 164.247C309.931 165.879 310.243 167.452 310.852 168.874C311.438 170.222 312.298 171.398 313.381 172.329C314.485 173.263 315.781 173.943 317.2 174.333C318.707 174.748 320.32 174.838 321.946 174.594ZM383.76 165.573V146.452L391.332 145.388V141.109L371.48 143.899V148.178L379.086 147.109V166.227L383.76 165.573ZM437.291 158.05V134.655L432.618 135.311V158.706L437.291 158.05ZM491.113 150.854C492.727 150.639 494.326 150.096 495.818 149.257C497.231 148.471 498.517 147.422 499.601 146.171C500.685 144.921 501.547 143.492 502.136 141.968C502.752 140.385 503.069 138.732 503.069 137.108C503.069 135.483 502.752 133.92 502.136 132.509C501.547 131.151 500.685 129.965 499.601 129.019C498.517 128.073 497.231 127.385 495.818 126.997C492.811 126.173 489.448 126.645 486.44 128.315C485.028 129.101 483.743 130.15 482.659 131.401C481.575 132.652 480.714 134.08 480.125 135.603C479.507 137.186 479.189 138.839 479.189 140.464C479.189 142.088 479.507 143.652 480.125 145.062C480.714 146.42 481.575 147.605 482.659 148.551C483.743 149.498 485.028 150.185 486.44 150.575C487.922 150.993 489.51 151.087 491.113 150.851V150.854ZM491.113 146.409C490.144 146.554 489.183 146.489 488.294 146.22C487.444 145.965 486.677 145.528 486.038 144.933C485.39 144.323 484.88 143.571 484.538 142.72C483.807 140.881 483.807 138.731 484.538 136.687C484.883 135.745 485.392 134.857 486.038 134.07C486.677 133.295 487.444 132.642 488.294 132.148C489.183 131.629 490.144 131.295 491.113 131.167C492.087 131.023 493.052 131.086 493.948 131.354C494.804 131.605 495.577 132.042 496.221 132.639C496.865 133.245 497.374 133.99 497.719 134.834C498.451 136.673 498.451 138.823 497.719 140.868C497.377 141.815 496.868 142.709 496.221 143.502C495.577 144.279 494.804 144.934 493.948 145.425C493.052 145.944 492.087 146.277 491.113 146.406V146.409ZM549.349 142.303V126.653L560.854 140.686L564.979 140.106V116.711L560.597 117.327V132.467L549.381 118.903L544.932 119.528V142.923L549.349 142.303Z" fill="white"/>
<path fill-rule="evenodd" clip-rule="evenodd" d="M11.6499 65.9018C11.496 65.1861 11.5548 60.2434 11.6169 59.3716C12.6036 59.091 13.4654 58.9959 14.3346 58.9C14.5311 58.8783 14.728 58.8566 14.9268 58.8327C15.3185 58.7855 15.7918 58.7042 16.3035 58.6163C18.0034 58.3241 20.1272 57.9592 21.0909 58.5327C22.8432 59.5755 23.0488 62.0881 21.3578 63.7879C20.4372 64.7133 19.3566 64.8849 18.1386 65.027C16.9831 65.1618 15.86 65.3225 14.7381 65.483C13.7166 65.6291 12.6946 65.7753 11.6499 65.9018ZM11.6778 55.5713C11.6533 55.4779 11.536 49.7916 11.6574 49.0467C11.6608 49.026 11.6656 49.0033 11.67 48.9819C11.6726 48.9696 11.675 48.9578 11.6771 48.9471L11.7287 48.7492C12.2631 48.5996 15.9405 48.065 16.3729 48.1286C19.7487 48.6255 19.6124 53.3987 16.5841 54.6758C15.4912 55.1367 14.0419 55.2976 12.7981 55.4356C12.397 55.4801 12.0173 55.5222 11.6778 55.5713ZM8.65696 69.9213L8.55113 69.9256C8.4384 69.2912 8.30443 68.6144 8.14803 67.8932C7.87473 66.2559 7.90253 64.8193 7.9322 63.2861C7.93951 62.9083 7.94694 62.5247 7.95 62.1308L7.9392 50.7236C7.92951 48.5321 7.92594 47.3663 9.49754 45.9678C10.6337 44.9566 12.3533 44.8116 13.8514 44.6853C14.2069 44.6553 14.55 44.6263 14.8698 44.5871C17.1505 44.3076 18.0947 44.3969 19.5801 45.2076C20.875 45.9143 21.9716 47.2018 22.3728 49.2025C22.7752 51.2083 22.4796 51.9608 22.1049 52.915C21.9339 53.3505 21.7463 53.828 21.6011 54.4859C21.7287 54.6047 21.9889 54.713 22.3181 54.8499C22.8899 55.0879 23.6697 55.4123 24.3231 56.0289C27.1737 58.7192 26.6153 63.1107 23.9526 66.0685C21.9335 68.3114 19.6193 68.5619 16.9479 68.851L16.9413 68.8517C16.8116 68.8658 16.6811 68.8799 16.5497 68.8944C15.5242 69.0072 14.4922 69.1735 13.4573 69.3403C11.86 69.5977 10.2556 69.8562 8.65696 69.9213Z" fill="white"/>
<path fill-rule="evenodd" clip-rule="evenodd" d="M73.562 39.8306C76.1987 38.2905 78.9652 38.3596 80.9383 39.0383C83.1126 39.7863 84.1732 40.9187 85.4979 43.2709C86.6894 45.3866 86.0401 49.0366 85.223 50.7911C82.8906 55.799 77.5116 58.4364 72.8853 56.7953C68.4686 55.2288 66.4227 49.7258 68.7797 44.9839C69.8723 42.7857 71.0165 41.3175 73.562 39.8306ZM73.2226 36.0971C72.4124 36.6547 70.9814 36.9296 68.7085 39.1579C67.4522 40.3897 66.613 41.6345 65.7961 43.0854C62.3382 49.2263 64.3176 57.436 70.6891 60.1249C81.0533 64.499 92.7358 52.6349 89.2585 42.2811C87.7138 37.6815 83.3675 34.7601 78.8631 34.8565C77.6031 34.8835 74.5381 35.1918 73.2226 36.0971Z" fill="white"/>
<path fill-rule="evenodd" clip-rule="evenodd" d="M152.158 37.7241C151.728 36.4294 153 32.7335 153.563 31.6904C156.047 27.0836 160.127 25.7863 163.055 29.457C164.427 31.178 164.917 33.2229 165.063 35.8626C164.421 36.1465 154.344 37.3753 152.158 37.7241ZM151.972 49.7108C152.198 49.0994 152.09 42.7712 152.086 41.5738C152.473 41.4184 164.56 39.7104 164.939 39.7711C165.159 40.4771 165.062 42.9004 165.066 43.837C165.069 44.755 164.93 47.2495 165.144 47.9326C169.468 46.8617 168.651 43.3445 168.811 41.3524C168.914 40.06 168.803 38.4177 168.811 37.0494C168.82 35.346 168.93 34.4159 168.583 32.5524C167.6 27.2602 163.887 22.642 158.309 23.7041C152.402 24.8287 149.182 30.9102 148.551 35.5921C148.342 37.1368 148.307 42.3734 148.347 44.071C148.376 45.2771 148.124 47.3055 148.818 48.3201C149.443 49.2345 150.686 50.1139 151.972 49.7108Z" fill="white"/>
<path fill-rule="evenodd" clip-rule="evenodd" d="M31.9805 54.5118C31.4918 51.7461 33.7374 45.3014 38.1163 44.2736C43.0415 43.1176 45.2754 50.7239 44.7999 52.608C43.9991 53.0028 36.8927 53.825 35.1019 54.1136C34.0386 54.2849 32.9325 54.2985 31.9805 54.5118ZM31.8221 66.502C31.9339 64.1969 31.892 60.6604 31.8211 58.4227C32.1779 58.208 44.2362 56.4905 44.7473 56.5606C44.9757 57.3282 44.8136 59.6433 44.8219 60.5914C44.8309 61.6191 44.7213 63.916 44.9094 64.7584C48.5018 63.8464 48.776 61.1177 48.579 58.1289L48.602 53.8479C48.6258 49.2374 48.1556 45.5844 44.8077 42.4479C43.1368 40.8825 41.122 40.1062 38.1493 40.488C34.8934 40.9061 32.5984 43.3332 31.1868 45.2158C29.8023 47.0622 28.7173 49.8239 28.3536 52.3912C27.9807 55.0236 28.1604 58.1245 28.1331 60.8315C28.1197 62.1614 27.9234 63.9688 28.6063 65.1433C29.2065 66.1755 30.5103 66.8203 31.8221 66.502Z" fill="white"/>
<path fill-rule="evenodd" clip-rule="evenodd" d="M135.53 31.0019C138.094 29.3658 140.75 30.6184 141.633 32.4571C142.868 35.0284 141.329 37.7645 139.284 38.9381C133.74 42.1208 129.936 34.5713 135.53 31.0019ZM132.82 43.8418C133.357 43.9 133.757 44.4213 134.34 44.9353C135.545 45.9976 140.553 50.4821 141.333 50.8299C142.77 51.4697 144.239 50.8505 145.579 49.7515C145.269 48.7216 139.062 44.3339 138.529 43.1235C145.256 40.8339 147.232 33.9417 144.563 29.7183C140.988 24.0623 131.639 26.2706 129.428 33.8341C128.88 35.7085 129.147 44.553 129.133 46.7504L129.129 52.16C129.124 52.6352 128.997 52.898 129.401 52.9112C129.898 52.9275 131.12 52.1958 131.441 51.8697C133.498 49.7823 132.504 47.386 132.82 43.8418Z" fill="white"/>
<path fill-rule="evenodd" clip-rule="evenodd" d="M127.352 53.1898C126.825 48.5427 122.732 50.4616 119.862 50.6185C119.217 50.6538 116.874 51.2219 116.567 51.0099L116.467 50.8647C116.459 50.8452 116.436 50.8089 116.428 50.7839C116.306 50.4179 116.44 48.1 116.411 47.3405C116.364 46.1475 116.399 44.7266 116.421 43.5324C117.853 42.9795 122.842 42.869 123.744 42.2801C123.618 40.4382 122.473 39.4757 121.245 39.2448C119.921 38.9958 117.261 39.7895 116.49 39.6694C116.384 39.1745 116.316 34.4239 116.524 33.9186L123.179 32.9491C124.492 32.8181 125.396 32.4168 126.238 31.532C126.846 30.8925 127.502 29.7196 127.295 28.6649L122.616 29.2698C121.994 29.3598 121.438 29.5175 120.833 29.5885C115.674 30.194 112.542 29.8744 112.745 36.3631C112.826 38.9398 112.555 51.3165 112.878 52.6196C113.689 55.8953 117.942 54.6347 120.8 54.186C121.934 54.0078 122.932 53.9508 124.059 53.7329C125.054 53.5406 126.433 53.5534 127.352 53.1898Z" fill="white"/>
<path fill-rule="evenodd" clip-rule="evenodd" d="M111.541 30.9477L104.96 31.8252C102.428 32.1794 100.339 32.9102 98.1512 34.3739C87.9554 41.1943 90.0357 55.4767 101.366 56.5497C103.511 56.7527 105.551 56.2474 107.828 56.0163C108.328 55.9656 108.889 55.867 109.423 55.7857C111.238 55.5095 112.01 55.9469 111.304 54.1689C110.142 51.2389 106.689 52.5944 104.563 52.7651C100.304 53.1068 96.8781 51.8192 95.533 47.6375C94.2087 43.5203 96.7752 39.185 100.623 36.9698C105.147 34.3656 107.89 36.3824 110.424 33.7624C111.074 33.0906 111.656 32.0356 111.541 30.9477Z" fill="white"/>
<path fill-rule="evenodd" clip-rule="evenodd" d="M54.9102 42.478C55.2135 43.6787 54.723 61.7949 55.0781 63.3391C59.4299 62.1096 58.552 58.82 58.6397 56.4971C58.7183 54.4129 58.5024 42.4119 58.713 42.0958C58.9099 41.8003 59.6129 41.8165 59.8241 41.7932C60.693 41.6971 62.9181 41.3817 63.5981 41.018C65.1354 40.1956 65.9844 38.7712 65.9382 37.2651C65.5155 37.1809 50.7402 39.2533 48.5375 39.5945C47.5868 39.7418 47.5073 39.8051 47.8105 40.8039C48.7916 44.0361 52.5671 42.6895 54.9102 42.478Z" fill="white"/>
<path d="M32.4375 142.304V175.141L7.91406 178.587V91.8432C7.91406 88.0122 9.94639 85.8111 14.011 85.2399L79.0455 76.0998C90.2911 74.5194 97.472 76.9307 102.485 81.5621C106.956 85.7225 109.801 91.7531 109.801 98.7309C109.801 106.119 107.634 113.402 101.13 119.104C107.227 121.942 109.937 126.486 109.937 137.021V155.492C109.937 159.46 110.072 161.63 110.343 164.192L85.549 167.676C85.278 165.662 85.1425 163.629 85.1425 161.576V143.106C85.1425 137.222 82.2973 135.296 75.1164 136.306L32.4375 142.304ZM32.4375 121.233L75.7938 115.14C79.181 114.664 81.2133 113.147 82.7037 111.159C83.7876 109.638 84.4651 107.901 84.4651 106.123C84.4651 104.207 83.7876 102.387 82.4327 101.209C81.0779 99.8946 78.91 99.2415 75.7938 99.6794L34.4698 105.487C33.1149 105.678 32.4375 106.594 32.4375 107.825V121.233Z" fill="white"/>
<path d="M196.893 74.5877L229.952 143.277C230.63 144.687 231.036 145.861 231.443 147.172L203.803 151.057C203.532 149.863 203.125 148.963 202.719 148.062L197.841 137.528L143.646 145.145L138.904 156.894C138.497 158.046 138.091 159.197 137.956 160.311L109.638 164.291C110.045 162.865 110.451 161.577 111.129 159.977L143.917 82.033C149.066 69.8165 157.33 63.0453 170.473 61.1983C183.209 59.4084 191.744 63.8184 196.893 74.5877ZM152.588 123.502L188.899 118.399L174.808 87.2689C173.995 85.3308 172.37 84.7384 170.608 84.9859C168.982 85.2144 167.492 86.108 166.544 88.4304L152.588 123.502Z" fill="white"/>
<path d="M316.319 110.89V135.244L268.356 141.984C251.962 144.288 239.903 140.237 231.503 132.114C224.187 125.069 219.715 114.752 219.715 102.575C219.715 89.1668 225.406 76.1901 234.484 66.4314C242.613 57.7638 253.588 51.5696 268.356 49.494L316.319 42.7533V67.2441L268.356 73.9848C260.091 75.1464 254.942 78.1959 251.013 82.4422C246.813 87.0003 244.239 93.1085 244.239 99.2654C244.239 104.875 246.407 109.77 249.929 113.105C253.859 116.931 259.685 118.849 268.356 117.63L316.319 110.89Z" fill="white"/>
<path d="M319.869 42.2543L344.528 38.7887V131.279L319.869 134.745V42.2543Z" fill="white"/>
<path d="M463.782 22.0286V96.5956C463.782 110.551 455.517 117.596 446.575 118.853C438.852 119.938 433.026 118.568 428.691 114.115L378.424 62.4835C377.747 61.7578 377.069 61.4425 376.257 61.5568C375.037 61.7281 373.953 62.8382 373.953 64.48V127.144L349.836 130.533V57.608C349.836 41.8737 358.778 34.7336 371.108 33.0009C379.779 31.7822 385.199 33.3465 390.889 39.3877L435.6 87.1479C436.278 88.0104 437.091 88.033 437.904 87.9187C438.988 87.7664 439.801 86.8312 439.801 85.1894V25.399L463.782 22.0286Z" fill="white"/>
<path d="M559.634 101.048L515.871 107.198C499.477 109.502 487.418 105.451 479.018 97.3275C471.702 90.2834 467.231 79.9661 467.231 67.7892C467.231 54.3808 472.921 41.4041 481.999 31.6454C490.128 22.9778 501.103 16.7836 515.871 14.708L565.324 7.75781V32.2486L515.871 39.1988C507.606 40.3604 502.458 43.4099 498.529 47.6562C494.328 52.2143 491.754 58.3225 491.754 64.4794C491.754 70.0891 493.922 74.9835 497.445 78.3194C501.374 82.1455 507.2 84.4735 515.871 83.2549L539.311 79.9606C540.53 79.7893 541.072 79.1658 541.072 77.7976V53.0332L565.46 49.6057V94.3459C565.46 98.3136 563.563 100.496 559.634 101.048Z" fill="white"/>
</svg>
