<svg width="304" height="150" viewBox="0 0 304 150" fill="none" xmlns="http://www.w3.org/2000/svg">
<path d="M40.4101 4.83054H4.83057V37.4214H40.4101V4.83054Z" fill="black"/>
<path fill-rule="evenodd" clip-rule="evenodd" d="M3.22021 3.22037H42.0201V39.0315H3.22021V3.22037ZM6.44051 6.44066V35.8112H38.7998V6.44066H6.44051Z" fill="black"/>
<path d="M40.4101 37.4923H4.83057V112.067H40.4101V37.4923Z" fill="black"/>
<path fill-rule="evenodd" clip-rule="evenodd" d="M3.22021 35.8823H42.0201V113.677H3.22021V35.8823ZM6.44051 39.1026V110.457H38.7998V39.1026H6.44051Z" fill="black"/>
<path d="M40.3862 37.4867V73.1112V112.057H76.0107V73.1112H114.956V37.4867H76.0107H40.3862Z" fill="black"/>
<path fill-rule="evenodd" clip-rule="evenodd" d="M38.7759 35.8766H116.566V74.7213H77.6207V113.667H38.7759V35.8766ZM41.9962 39.0968V110.446H74.4004V71.501H113.346V39.0968H41.9962Z" fill="black"/>
<path d="M114.945 37.4867V112.057H189.012V89.414H140.707V89.1823H189.012V37.4867H114.945ZM140.707 60.532H162.645V60.6212H140.707V60.532Z" fill="black"/>
<path fill-rule="evenodd" clip-rule="evenodd" d="M113.334 35.8766H190.622V113.667H113.334V35.8766ZM187.401 91.0241H139.097V87.5721H187.401V39.0968H116.555V110.446H187.401V91.0241ZM139.097 58.9218H164.255V62.2313H139.097V58.9218Z" fill="black"/>
<path d="M189.083 37.4867V112.057H227.94V73.6144H228.029V112.057H266.382V73.6144H266.471V112.057H302.096V37.4867H189.083Z" fill="black"/>
<path fill-rule="evenodd" clip-rule="evenodd" d="M187.474 35.8766H303.706V113.667H187.474V35.8766ZM229.639 110.446H264.772V72.0042H268.082V110.446H300.486V39.0968H190.694V110.446H226.33V72.0042H229.639V110.446Z" fill="black"/>
<path d="M37.1899 1.61018H1.61035V34.201H37.1899V1.61018Z" fill="#409EE0"/>
<path fill-rule="evenodd" clip-rule="evenodd" d="M0 0H38.7999V35.8111H0V0ZM3.22029 3.22029V32.5908H35.5796V3.22029H3.22029Z" fill="black"/>
<path d="M37.1899 34.272H1.61035V108.847H37.1899V34.272Z" fill="#74B532"/>
<path fill-rule="evenodd" clip-rule="evenodd" d="M0 32.6619H38.7999V110.457H0V32.6619ZM3.22029 35.8822V107.237H35.5796V35.8822H3.22029Z" fill="black"/>
<path d="M37.166 34.2664V69.8909V108.836H72.7906V69.8909H111.736V34.2664H72.7906H37.166Z" fill="white"/>
<path fill-rule="evenodd" clip-rule="evenodd" d="M35.5557 32.6562H113.346V71.501H74.4005V110.446H35.5557V32.6562ZM38.776 35.8765V107.226H71.1802V68.2807H110.126V35.8765H38.776Z" fill="black"/>
<path d="M111.725 34.2664V108.836H185.791V86.1936H137.487V85.962H185.791V34.2664H111.725ZM137.487 57.3116H159.425V57.4009H137.487V57.3116Z" fill="white"/>
<path fill-rule="evenodd" clip-rule="evenodd" d="M110.114 32.6562H187.401V110.446H110.114V32.6562ZM184.181 87.8037H135.877V84.3518H184.181V35.8765H113.335V107.226H184.181V87.8037ZM135.877 55.7014H161.035V59.011H135.877V55.7014Z" fill="black"/>
<path d="M185.863 34.2664V108.836H224.719V70.394H224.809V108.836H263.162V70.394H263.251V108.836H298.875V34.2664H185.863Z" fill="white"/>
<path fill-rule="evenodd" clip-rule="evenodd" d="M184.253 32.6562H300.485V110.446H184.253V32.6562ZM226.419 107.226H261.551V68.7839H264.861V107.226H297.265V35.8765H187.473V107.226H223.109V68.7839H226.419V107.226Z" fill="black"/>
<path d="M6.55956 149.98C7.52876 149.979 8.48599 149.764 9.36462 149.35C10.2287 148.964 10.9953 148.386 11.6072 147.658V147.658L9.93641 145.966C9.52638 146.465 9.0171 146.871 8.44167 147.158C7.87719 147.434 7.25747 147.576 6.6303 147.572C6.10106 147.577 5.57595 147.477 5.08536 147.276C4.59476 147.075 4.14843 146.778 3.77219 146.402C3.4099 146.033 3.12365 145.596 2.93009 145.114C2.72256 144.603 2.61806 144.056 2.62272 143.503C2.61706 142.946 2.71859 142.392 2.92166 141.874C3.11122 141.391 3.39213 140.951 3.74861 140.578C4.10611 140.207 4.53369 139.914 5.00588 139.714C5.49794 139.502 6.02753 139.395 6.56209 139.399C7.20676 139.396 7.84313 139.546 8.42062 139.835C9.01753 140.139 9.54021 140.572 9.95073 141.105V141.105L11.6745 139.359C11.0684 138.615 10.2972 138.026 9.42357 137.64C8.5257 137.22 7.54868 137.002 6.55956 137C5.6761 136.994 4.80024 137.166 3.98272 137.504C3.20819 137.822 2.50099 138.287 1.89935 138.873C1.3055 139.46 0.833165 140.161 0.509872 140.935C0.17473 141.746 0.00145431 142.616 9.11543e-06 143.494C-0.00143608 144.373 0.168978 145.244 0.501451 146.056C0.820917 146.827 1.29027 147.525 1.88166 148.109C2.48359 148.695 3.19108 149.16 3.96588 149.477C4.78893 149.817 5.67057 149.988 6.55956 149.98V149.98ZM39.8876 149.999C40.7681 150.005 41.6411 149.834 42.4552 149.495C43.2263 149.179 43.9279 148.711 44.5196 148.119C45.1113 147.528 45.5814 146.824 45.9028 146.047C46.2393 145.241 46.4127 144.375 46.4127 143.5C46.4127 142.625 46.2393 141.759 45.9028 140.952C45.5814 140.176 45.1114 139.472 44.5197 138.88C43.928 138.289 43.2264 137.821 42.4552 137.505C40.8138 136.833 38.9783 136.833 37.3369 137.505C36.5657 137.821 35.8641 138.289 35.2724 138.88C34.6807 139.472 34.2106 140.176 33.8893 140.952C33.553 141.759 33.3798 142.625 33.3798 143.5C33.3798 144.375 33.553 145.241 33.8893 146.047C34.2107 146.824 34.6807 147.528 35.2724 148.119C35.8641 148.711 36.5657 149.179 37.3369 149.495C38.1458 149.833 39.0133 150.004 39.8885 149.998L39.8876 149.999ZM39.8876 147.605C39.3709 147.609 38.8587 147.507 38.3824 147.304C37.9062 147.101 37.4759 146.802 37.1179 146.426C36.7648 146.048 36.4872 145.604 36.3002 145.12C35.9014 144.074 35.9014 142.916 36.3002 141.87C36.4887 141.39 36.7663 140.95 37.1179 140.574C37.4759 140.198 37.9062 139.899 38.3824 139.696C38.8587 139.493 39.3709 139.391 39.8876 139.395C40.4195 139.391 40.9465 139.498 41.4354 139.71C41.9023 139.91 42.324 140.204 42.675 140.574C43.0266 140.95 43.3042 141.39 43.4927 141.87C43.8913 142.916 43.8913 144.074 43.4927 145.12C43.3057 145.604 43.0281 146.048 42.675 146.426C42.324 146.796 41.9023 147.09 41.4354 147.29C40.9467 147.501 40.42 147.608 39.8885 147.604L39.8876 147.605ZM78.5445 149.801V147.497H71.8077V137.199H69.2594V149.8L78.5445 149.801ZM110.695 149.801V147.497H103.958V137.199H101.409V149.8L110.695 149.801ZM143.091 149.801V147.533H136.109V144.544H140.665V142.347H136.109V139.469H143.021V137.201H133.558V149.802L143.091 149.801ZM171.372 149.981C172.342 149.98 173.299 149.765 174.177 149.351C175.041 148.965 175.808 148.387 176.42 147.659V147.659L174.748 145.967C174.338 146.466 173.829 146.873 173.254 147.159C172.689 147.436 172.069 147.577 171.442 147.573C170.913 147.579 170.388 147.479 169.898 147.278C169.407 147.077 168.961 146.78 168.585 146.403C168.223 146.035 167.936 145.597 167.743 145.116C167.535 144.605 167.43 144.057 167.435 143.505C167.429 142.947 167.531 142.394 167.735 141.875C167.923 141.393 168.204 140.953 168.561 140.58C168.918 140.209 169.346 139.915 169.818 139.715C170.31 139.504 170.84 139.397 171.374 139.4C172.021 139.398 172.66 139.549 173.239 139.841C173.836 140.143 174.358 140.577 174.769 141.11V141.11L176.492 139.364C175.886 138.62 175.115 138.031 174.241 137.645C173.344 137.225 172.367 137.007 171.378 137.005C170.495 136.999 169.619 137.171 168.801 137.509C168.027 137.827 167.319 138.291 166.717 138.878C166.123 139.465 165.65 140.165 165.327 140.939C164.992 141.75 164.819 142.62 164.817 143.499C164.816 144.378 164.986 145.248 165.319 146.06C165.638 146.831 166.107 147.529 166.699 148.113C167.301 148.699 168.008 149.164 168.783 149.481C169.605 149.819 170.485 149.989 171.372 149.98V149.981ZM205.106 149.801V139.503H209.238V137.198H198.404V139.503H202.555V149.8L205.106 149.801ZM234.318 149.801V137.2H231.768V149.801H234.318ZM263.69 150C264.571 150.006 265.444 149.835 266.258 149.496C267.029 149.179 267.73 148.712 268.322 148.12C268.914 147.529 269.384 146.824 269.705 146.048C270.041 145.242 270.215 144.376 270.215 143.501C270.215 142.626 270.041 141.76 269.705 140.953C269.384 140.177 268.914 139.473 268.322 138.881C267.73 138.29 267.029 137.822 266.258 137.506C264.616 136.834 262.781 136.834 261.14 137.506C260.369 137.823 259.668 138.29 259.077 138.882C258.485 139.474 258.015 140.177 257.693 140.953C257.357 141.759 257.183 142.626 257.183 143.501C257.183 144.376 257.357 145.242 257.693 146.048C258.015 146.824 258.485 147.528 259.077 148.12C259.668 148.711 260.369 149.179 261.14 149.496C261.949 149.833 262.815 150.004 263.69 149.998V150ZM263.69 147.606C263.161 147.61 262.637 147.503 262.152 147.291C261.688 147.089 261.269 146.795 260.92 146.426C260.567 146.049 260.289 145.606 260.102 145.121C259.703 144.075 259.703 142.917 260.102 141.871C260.29 141.39 260.568 140.95 260.92 140.575C261.269 140.207 261.688 139.913 262.152 139.711C262.637 139.499 263.161 139.391 263.69 139.396C264.222 139.392 264.748 139.499 265.237 139.711C265.704 139.911 266.126 140.205 266.477 140.575C266.829 140.951 267.107 141.391 267.295 141.871C267.694 142.917 267.694 144.075 267.295 145.121C267.108 145.605 266.831 146.049 266.477 146.426C266.126 146.796 265.704 147.09 265.237 147.291C264.748 147.502 264.222 147.608 263.69 147.604V147.606ZM295.47 149.802V141.373L301.749 149.802H304V137.201H301.608V145.356L295.488 137.201H293.06V149.802H295.47Z" fill="white"/>
</svg>
