<svg width="361" height="153" viewBox="0 0 361 153" fill="none" xmlns="http://www.w3.org/2000/svg">
<path fill-rule="evenodd" clip-rule="evenodd" d="M0 0H38.7999V35.8111H0V0ZM3.22029 3.22029V32.5908H35.5796V3.22029H3.22029Z" fill="white"/>
<path fill-rule="evenodd" clip-rule="evenodd" d="M0 32.662H38.7999V110.457H0V32.662ZM3.22029 35.8823V107.237H35.5796V35.8823H3.22029Z" fill="white"/>
<path fill-rule="evenodd" clip-rule="evenodd" d="M35.5557 32.6562H113.346V71.501H74.4005V110.446H35.5557V32.6562ZM38.776 35.8765V107.226H71.1802V68.2807H110.126V35.8765H38.776Z" fill="white"/>
<path fill-rule="evenodd" clip-rule="evenodd" d="M110.115 32.6562H187.402V110.446H110.115V32.6562ZM184.181 87.8038H135.877V84.3518H184.181V35.8765H113.335V107.226H184.181V87.8038ZM135.877 55.7015H161.035V59.0111H135.877V55.7015Z" fill="white"/>
<path fill-rule="evenodd" clip-rule="evenodd" d="M184.253 32.6562H300.486V110.446H184.253V32.6562ZM226.419 107.226H261.552V68.7839H264.861V107.226H297.265V35.8765H187.473V107.226H223.109V68.7839H226.419V107.226Z" fill="white"/>
<path d="M7.78996 152.245C8.94087 152.243 10.0776 151.991 11.121 151.505C12.147 151.052 13.0574 150.373 13.784 149.518V149.518L11.8 147.53C11.313 148.116 10.7083 148.593 10.025 148.93C9.35463 149.255 8.61872 149.421 7.87396 149.416C7.24549 149.423 6.62192 149.305 6.03934 149.069C5.45676 148.833 4.92674 148.484 4.47996 148.042C4.04974 147.609 3.70982 147.095 3.47996 146.53C3.23352 145.93 3.10943 145.287 3.11496 144.638C3.10825 143.983 3.22881 143.333 3.46996 142.724C3.69506 142.158 4.02864 141.641 4.45196 141.202C4.87649 140.767 5.38423 140.422 5.94496 140.187C6.52928 139.939 7.15817 139.813 7.79296 139.817C8.55851 139.814 9.31419 139.99 9.99996 140.33C10.7088 140.686 11.3295 141.195 11.817 141.821V141.821L13.864 139.77C13.1442 138.896 12.2284 138.204 11.191 137.751C10.1247 137.258 8.96453 137.002 7.78996 137C6.74084 136.993 5.70076 137.194 4.72996 137.592C3.8102 137.965 2.97041 138.511 2.25596 139.2C1.55077 139.89 0.98987 140.713 0.60596 141.621C0.20798 142.574 0.00221527 143.595 0.000499106 144.628C-0.00121706 145.66 0.201149 146.682 0.59596 147.636C0.975326 148.541 1.53268 149.361 2.23496 150.047C2.94975 150.736 3.78989 151.282 4.70996 151.654C5.68733 152.053 6.73428 152.254 7.78996 152.245V152.245ZM47.367 152.267C48.4126 152.275 49.4492 152.074 50.416 151.675C51.3317 151.304 52.1649 150.755 52.8675 150.06C53.5701 149.365 54.1283 148.538 54.51 147.626C54.9096 146.679 55.1155 145.662 55.1155 144.634C55.1155 143.606 54.9096 142.589 54.51 141.642C54.1284 140.731 53.5702 139.904 52.8675 139.209C52.1649 138.514 51.3317 137.965 50.416 137.593C48.4668 136.804 46.2872 136.804 44.338 137.593C43.4222 137.965 42.589 138.514 41.8864 139.209C41.1838 139.904 40.6256 140.731 40.244 141.642C39.8446 142.589 39.6389 143.606 39.6389 144.634C39.6389 145.662 39.8446 146.679 40.244 147.626C40.6256 148.538 41.1838 149.365 41.8864 150.06C42.5891 150.755 43.4222 151.304 44.338 151.675C45.2985 152.072 46.3287 152.273 47.368 152.266L47.367 152.267ZM47.367 149.455C46.7533 149.46 46.1451 149.34 45.5796 149.102C45.014 148.864 44.5031 148.513 44.078 148.07C43.6586 147.626 43.3289 147.106 43.107 146.537C42.6334 145.309 42.6334 143.948 43.107 142.72C43.3308 142.156 43.6604 141.639 44.078 141.198C44.5031 140.756 45.014 140.405 45.5796 140.166C46.1451 139.928 46.7533 139.808 47.367 139.813C47.9986 139.808 48.6244 139.934 49.205 140.183C49.7594 140.418 50.2602 140.764 50.677 141.198C51.0945 141.639 51.4241 142.156 51.648 142.72C52.1214 143.948 52.1214 145.309 51.648 146.537C51.426 147.106 51.0963 147.626 50.677 148.07C50.2602 148.505 49.7594 148.85 49.205 149.085C48.6246 149.333 47.9992 149.459 47.368 149.454L47.367 149.455ZM93.272 152.035V149.329H85.272V137.233H82.246V152.033L93.272 152.035ZM131.451 152.035V149.329H123.451V137.233H120.423V152.033L131.451 152.035ZM169.921 152.035V149.371H161.63V145.86H167.04V143.28H161.63V139.9H169.838V137.236H158.6V152.036L169.921 152.035ZM203.505 152.246C204.656 152.245 205.793 151.992 206.836 151.506C207.862 151.053 208.772 150.374 209.499 149.519V149.519L207.514 147.532C207.027 148.118 206.422 148.595 205.739 148.932C205.069 149.257 204.333 149.423 203.588 149.418C202.96 149.425 202.336 149.307 201.754 149.071C201.171 148.835 200.642 148.486 200.195 148.044C199.765 147.612 199.425 147.098 199.195 146.532C198.948 145.932 198.824 145.289 198.829 144.64C198.822 143.985 198.943 143.335 199.185 142.726C199.409 142.16 199.743 141.642 200.166 141.204C200.59 140.769 201.098 140.424 201.659 140.189C202.243 139.941 202.872 139.815 203.507 139.819C204.275 139.816 205.033 139.993 205.721 140.336C206.43 140.692 207.051 141.201 207.538 141.827V141.827L209.585 139.776C208.865 138.902 207.949 138.21 206.912 137.757C205.846 137.265 204.686 137.008 203.512 137.006C202.463 136.999 201.423 137.2 200.452 137.598C199.532 137.971 198.692 138.516 197.977 139.205C197.271 139.895 196.71 140.718 196.326 141.626C195.928 142.579 195.722 143.6 195.721 144.633C195.719 145.665 195.921 146.687 196.316 147.641C196.695 148.546 197.253 149.366 197.955 150.052C198.67 150.741 199.51 151.286 200.43 151.659C201.406 152.056 202.451 152.255 203.505 152.245V152.246ZM243.563 152.035V139.939H248.47V137.232H235.605V139.939H240.534V152.033L243.563 152.035ZM278.253 152.035V137.235H275.225V152.035H278.253ZM313.132 152.268C314.178 152.276 315.214 152.075 316.181 151.676C317.097 151.305 317.93 150.756 318.632 150.061C319.335 149.366 319.893 148.539 320.275 147.627C320.674 146.68 320.88 145.663 320.88 144.635C320.88 143.607 320.674 142.59 320.275 141.643C319.893 140.732 319.335 139.905 318.633 139.21C317.93 138.515 317.097 137.966 316.181 137.594C314.232 136.805 312.053 136.805 310.104 137.594C309.189 137.966 308.356 138.515 307.653 139.21C306.951 139.905 306.393 140.732 306.011 141.643C305.611 142.59 305.405 143.607 305.405 144.635C305.405 145.663 305.611 146.68 306.011 147.627C306.393 148.538 306.951 149.365 307.653 150.06C308.356 150.755 309.189 151.304 310.104 151.676C311.064 152.072 312.093 152.273 313.132 152.266V152.268ZM313.132 149.456C312.504 149.462 311.881 149.336 311.305 149.086C310.754 148.85 310.257 148.504 309.843 148.071C309.423 147.628 309.093 147.107 308.871 146.538C308.397 145.31 308.397 143.949 308.871 142.721C309.095 142.156 309.425 141.64 309.843 141.199C310.257 140.766 310.754 140.421 311.305 140.184C311.881 139.935 312.504 139.809 313.132 139.814C313.763 139.809 314.389 139.935 314.969 140.184C315.524 140.419 316.025 140.765 316.442 141.199C316.86 141.64 317.189 142.157 317.413 142.721C317.887 143.949 317.887 145.31 317.413 146.538C317.191 147.107 316.861 147.627 316.442 148.071C316.025 148.506 315.524 148.851 314.969 149.086C314.389 149.334 313.763 149.46 313.132 149.454V149.456ZM350.871 152.036V142.136L358.327 152.036H361V137.236H358.16V146.814L350.892 137.236H348.009V152.036H350.871Z" fill="white"/>
</svg>
