<svg width="301" height="150" viewBox="0 0 301 150" fill="none" xmlns="http://www.w3.org/2000/svg">
<path fill-rule="evenodd" clip-rule="evenodd" d="M0 0H38.7999V35.8111H0V0ZM3.22029 3.22029V32.5908H35.5796V3.22029H3.22029Z" fill="white"/>
<path fill-rule="evenodd" clip-rule="evenodd" d="M0 32.662H38.7999V110.457H0V32.662ZM3.22029 35.8823V107.237H35.5796V35.8823H3.22029Z" fill="white"/>
<path fill-rule="evenodd" clip-rule="evenodd" d="M35.5557 32.6562H113.346V71.501H74.4005V110.446H35.5557V32.6562ZM38.776 35.8765V107.226H71.1802V68.2807H110.126V35.8765H38.776Z" fill="white"/>
<path fill-rule="evenodd" clip-rule="evenodd" d="M110.114 32.6562H187.401V110.446H110.114V32.6562ZM184.181 87.8038H135.877V84.3518H184.181V35.8765H113.335V107.226H184.181V87.8038ZM135.877 55.7015H161.035V59.0111H135.877V55.7015Z" fill="white"/>
<path fill-rule="evenodd" clip-rule="evenodd" d="M184.253 32.6562H300.485V110.446H184.253V32.6562ZM226.419 107.226H261.551V68.7839H264.861V107.226H297.265V35.8765H187.473V107.226H223.109V68.7839H226.419V107.226Z" fill="white"/>
<path d="M6.47325 149.98C7.42969 149.979 8.37433 149.764 9.2414 149.35C10.0941 148.964 10.8506 148.386 11.4544 147.658V147.658L9.80567 145.966C9.40103 146.465 8.89845 146.871 8.3306 147.158C7.77354 147.434 7.16197 147.576 6.54306 147.572C6.02078 147.577 5.50258 147.477 5.01844 147.276C4.53431 147.075 4.09385 146.778 3.72256 146.402C3.36503 146.033 3.08255 145.596 2.89153 145.114C2.68674 144.603 2.58361 144.056 2.58821 143.503C2.58263 142.946 2.68282 142.392 2.88322 141.874C3.07028 141.391 3.3475 140.951 3.69929 140.578C4.05208 140.207 4.47403 139.914 4.94001 139.714C5.4256 139.502 5.94822 139.395 6.47575 139.399C7.11194 139.396 7.73993 139.546 8.30982 139.835C8.89888 140.139 9.41468 140.572 9.8198 141.105V141.105L11.5209 139.359C10.9228 138.615 10.1617 138.026 9.29957 137.64C8.41352 137.22 7.44935 137.002 6.47325 137C5.60141 136.994 4.73708 137.166 3.93031 137.504C3.16597 137.822 2.46808 138.287 1.87436 138.873C1.28832 139.46 0.822202 140.161 0.503163 140.935C0.172431 141.746 0.00143518 142.616 8.99549e-06 143.494C-0.00141718 144.373 0.166754 145.244 0.494853 146.056C0.810116 146.827 1.27329 147.525 1.8569 148.109C2.45091 148.695 3.14909 149.16 3.91369 149.477C4.72591 149.817 5.59595 149.988 6.47325 149.98V149.98ZM39.3628 149.999C40.2317 150.005 41.0932 149.834 41.8966 149.495C42.6576 149.179 43.3499 148.711 43.9339 148.119C44.5178 147.528 44.9816 146.824 45.2988 146.047C45.6309 145.241 45.802 144.375 45.802 143.5C45.802 142.625 45.6309 141.759 45.2988 140.952C44.9817 140.176 44.5178 139.472 43.9339 138.88C43.35 138.289 42.6576 137.821 41.8966 137.505C40.2767 136.833 38.4654 136.833 36.8456 137.505C36.0846 137.821 35.3922 138.289 34.8083 138.88C34.2244 139.472 33.7605 140.176 33.4434 140.952C33.1115 141.759 32.9405 142.625 32.9405 143.5C32.9405 144.375 33.1115 145.241 33.4434 146.047C33.7605 146.824 34.2244 147.528 34.8083 148.119C35.3922 148.711 36.0846 149.179 36.8456 149.495C37.6438 149.833 38.4999 150.004 39.3636 149.998L39.3628 149.999ZM39.3628 147.605C38.8528 147.609 38.3474 147.507 37.8774 147.304C37.4074 147.101 36.9828 146.802 36.6295 146.426C36.2811 146.048 36.0071 145.604 35.8226 145.12C35.429 144.074 35.429 142.916 35.8226 141.87C36.0086 141.39 36.2825 140.95 36.6295 140.574C36.9828 140.198 37.4074 139.899 37.8774 139.696C38.3474 139.493 38.8528 139.391 39.3628 139.395C39.8877 139.391 40.4077 139.498 40.8902 139.71C41.3509 139.91 41.7671 140.204 42.1135 140.574C42.4605 140.95 42.7344 141.39 42.9204 141.87C43.3138 142.916 43.3138 144.074 42.9204 145.12C42.7359 145.604 42.4619 146.048 42.1135 146.426C41.7671 146.796 41.3509 147.09 40.8902 147.29C40.4079 147.501 39.8882 147.608 39.3636 147.604L39.3628 147.605ZM77.511 149.801V147.497H70.8628V137.199H68.3481V149.8L77.511 149.801ZM109.239 149.801V147.497H102.591V137.199H100.074V149.8L109.239 149.801ZM141.208 149.801V147.533H134.318V144.544H138.814V142.347H134.318V139.469H141.139V137.201H131.8V149.802L141.208 149.801ZM169.118 149.981C170.074 149.98 171.019 149.765 171.886 149.351C172.738 148.965 173.495 148.387 174.099 147.659V147.659L172.449 145.967C172.045 146.466 171.542 146.873 170.974 147.159C170.417 147.436 169.805 147.577 169.187 147.573C168.664 147.579 168.146 147.479 167.662 147.278C167.178 147.077 166.738 146.78 166.367 146.403C166.009 146.035 165.727 145.597 165.536 145.116C165.331 144.605 165.227 144.057 165.232 143.505C165.226 142.947 165.327 142.394 165.527 141.875C165.714 141.393 165.991 140.953 166.343 140.58C166.695 140.209 167.117 139.915 167.583 139.715C168.069 139.504 168.592 139.397 169.119 139.4C169.758 139.398 170.388 139.549 170.959 139.841C171.548 140.143 172.064 140.577 172.469 141.11V141.11L174.17 139.364C173.572 138.62 172.811 138.031 171.949 137.645C171.063 137.225 170.099 137.007 169.123 137.005C168.251 136.999 167.387 137.171 166.58 137.509C165.816 137.827 165.118 138.291 164.524 138.878C163.937 139.465 163.471 140.165 163.152 140.939C162.821 141.75 162.65 142.62 162.649 143.499C162.647 144.378 162.815 145.248 163.143 146.06C163.459 146.831 163.922 147.529 164.505 148.113C165.099 148.699 165.798 149.164 166.562 149.481C167.373 149.819 168.242 149.989 169.118 149.98V149.981ZM202.407 149.801V139.503H206.485V137.198H195.793V139.503H199.89V149.8L202.407 149.801ZM231.235 149.801V137.2H228.719V149.801H231.235ZM260.22 150C261.089 150.006 261.951 149.835 262.754 149.496C263.515 149.179 264.208 148.712 264.792 148.12C265.375 147.529 265.839 146.824 266.156 146.048C266.488 145.242 266.659 144.376 266.659 143.501C266.659 142.626 266.488 141.76 266.156 140.953C265.839 140.177 265.375 139.473 264.792 138.881C264.208 138.29 263.515 137.822 262.754 137.506C261.135 136.834 259.324 136.834 257.704 137.506C256.943 137.823 256.251 138.29 255.668 138.882C255.084 139.474 254.62 140.177 254.303 140.953C253.97 141.759 253.799 142.626 253.799 143.501C253.799 144.376 253.97 145.242 254.303 146.048C254.62 146.824 255.084 147.528 255.668 148.12C256.251 148.711 256.943 149.179 257.704 149.496C258.502 149.833 259.357 150.004 260.22 149.998V150ZM260.22 147.606C259.698 147.61 259.181 147.503 258.702 147.291C258.245 147.089 257.831 146.795 257.487 146.426C257.138 146.049 256.864 145.606 256.679 145.121C256.286 144.075 256.286 142.917 256.679 141.871C256.865 141.39 257.14 140.95 257.487 140.575C257.831 140.207 258.245 139.913 258.702 139.711C259.181 139.499 259.698 139.391 260.22 139.396C260.745 139.392 261.265 139.499 261.747 139.711C262.208 139.911 262.624 140.205 262.971 140.575C263.318 140.951 263.592 141.391 263.778 141.871C264.172 142.917 264.172 144.075 263.778 145.121C263.594 145.605 263.32 146.049 262.971 146.426C262.624 146.796 262.208 147.09 261.747 147.291C261.265 147.502 260.745 147.608 260.22 147.604V147.606ZM291.583 149.802V141.373L297.779 149.802H300V137.201H297.64V145.356L291.6 137.201H289.204V149.802H291.583Z" fill="white"/>
</svg>
