<svg width="139" height="23" viewBox="0 0 139 23" fill="none" xmlns="http://www.w3.org/2000/svg">
<g clip-path="url(#clip0)">
<path fill-rule="evenodd" clip-rule="evenodd" d="M3.21192 18.4869C3.07958 17.8592 3.13016 13.658 3.18358 12.9232C4.03183 12.8024 4.77281 12.8245 5.52007 12.8469C5.68905 12.8519 5.85835 12.857 6.02929 12.8604C6.36602 12.8672 6.77295 12.8545 7.21291 12.8409C8.67435 12.7956 10.5003 12.739 11.3289 13.3426C12.8355 14.4401 13.0122 16.6039 11.5584 17.8488C10.7668 18.5265 9.8378 18.5432 8.79061 18.5185C7.79717 18.495 6.83161 18.4975 5.86702 18.4999C4.98874 18.502 4.11013 18.5042 3.21192 18.4869ZM3.23593 9.69496C3.21483 9.61247 3.11397 4.7572 3.2184 4.13753C3.22133 4.12035 3.22539 4.10153 3.22921 4.08385C3.2314 4.07372 3.2335 4.06397 3.23527 4.05512L3.27964 3.89275C3.73912 3.82935 6.90077 3.81419 7.27253 3.92014C10.1749 4.74712 10.0577 8.79467 7.45414 9.51963C6.5145 9.78126 5.26846 9.74478 4.19912 9.71346C3.85428 9.70337 3.52782 9.69381 3.23593 9.69496ZM0.638715 21.5509L0.547727 21.542C0.450803 20.9883 0.335622 20.3961 0.20116 19.7633C-0.0338132 18.3367 -0.00991277 17.1168 0.0155951 15.815C0.0218805 15.4943 0.028263 15.1686 0.0308952 14.8336L0.0216113 5.12034C0.0132845 3.25336 0.0102113 2.2604 1.36141 1.25773C2.33822 0.53277 3.81663 0.615066 5.10467 0.686761C5.41032 0.703775 5.70526 0.720193 5.98022 0.725085C7.94108 0.759979 8.75287 0.949009 10.03 1.81699C11.1433 2.57361 12.0861 3.80098 12.431 5.55236C12.777 7.30819 12.5229 7.91352 12.2007 8.68103C12.0536 9.03136 11.8924 9.41548 11.7675 9.95822C11.8772 10.0746 12.101 10.198 12.384 10.354C12.8756 10.625 13.5461 10.9945 14.1078 11.5976C16.5587 14.2293 16.0785 17.9013 13.7893 20.1009C12.0533 21.7689 10.0637 21.7053 7.76687 21.6318L7.76126 21.6316C7.64976 21.628 7.53753 21.6244 7.42458 21.621C6.54286 21.5944 5.65561 21.6125 4.7658 21.6307C3.39254 21.6587 2.01319 21.6868 0.638715 21.5509Z" fill="white"/>
<path fill-rule="evenodd" clip-rule="evenodd" d="M56.4413 3.69827C58.7082 2.70249 61.0867 3.09233 62.7831 3.90629C64.6525 4.80327 65.5644 5.89431 66.7033 8.05549C67.7277 9.99936 67.1695 13.0292 66.4669 14.4252C64.4617 18.4098 59.837 20.0116 55.8595 18.0609C52.0622 16.1986 50.3033 11.2686 52.3297 7.51349C53.2691 5.77269 54.2528 4.65956 56.4413 3.69827ZM56.1495 0.478986C55.453 0.856725 54.2226 0.919603 52.2685 2.54479C51.1884 3.44316 50.4669 4.4026 49.7645 5.54007C46.7916 10.3546 48.4934 17.5812 53.9713 20.6329C62.882 25.5971 72.9261 16.8939 69.9365 7.66273C68.6084 3.56186 64.8717 0.554498 60.999 0.0976179C59.9156 -0.0301559 57.2805 -0.134382 56.1495 0.478986Z" fill="white"/>
<path fill-rule="evenodd" clip-rule="evenodd" d="M124.015 11.3092C123.645 10.1554 124.739 7.161 125.222 6.34019C127.358 2.71525 130.866 2.09898 133.383 5.57454C134.564 7.20398 134.985 9.00364 135.11 11.2685C134.558 11.4334 125.894 11.2738 124.015 11.3092ZM123.855 21.4923C124.049 20.9988 123.956 15.5981 123.953 14.5782C124.286 14.4922 134.678 14.4843 135.004 14.5813C135.193 15.2088 135.109 17.2603 135.112 18.0582C135.116 18.8402 134.996 20.9472 135.179 21.5544C138.897 21.1601 138.195 18.0678 138.332 16.3909C138.421 15.3029 138.326 13.8915 138.332 12.7273C138.34 11.2782 138.434 10.4994 138.136 8.87144C137.291 4.248 134.099 -0.128129 129.303 0.108701C124.225 0.359456 121.456 5.15186 120.913 9.06242C120.734 10.3526 120.704 14.8068 120.738 16.2569C120.763 17.2872 120.547 18.9841 121.143 19.9309C121.681 20.7842 122.749 21.6816 123.855 21.4923Z" fill="white"/>
<path fill-rule="evenodd" clip-rule="evenodd" d="M20.6913 11.2223C20.2712 8.80906 22.2018 3.59079 25.9666 3.23971C30.2011 2.84479 32.1217 9.58805 31.7129 11.1353C31.0244 11.3756 24.9146 11.2253 23.375 11.2567C22.4608 11.2753 21.5098 11.1545 20.6913 11.2223ZM20.5551 21.4116C20.6512 19.4625 20.6152 16.4465 20.5543 14.5329C20.861 14.3927 31.2282 14.3733 31.6676 14.4942C31.864 15.175 31.7247 17.1267 31.7318 17.9349C31.7395 18.8109 31.6453 20.7534 31.807 21.4931C34.8956 21.1464 35.1314 18.8561 34.9619 16.2879L34.9818 12.6458C35.0022 8.72333 34.5979 5.55695 31.7196 2.48598C30.283 0.953287 28.5508 0.0512799 25.9949 0.0206021C23.1957 -0.0130055 21.2226 1.77878 20.0089 3.21276C18.8186 4.6191 17.8858 6.84051 17.573 8.98282C17.2524 11.1794 17.4069 13.8409 17.3835 16.1424C17.372 17.2731 17.2032 18.7884 17.7903 19.87C18.3063 20.8206 19.4273 21.5257 20.5551 21.4116Z" fill="white"/>
<path fill-rule="evenodd" clip-rule="evenodd" d="M109.719 3.59633C111.923 2.51016 114.206 3.89446 114.966 5.56555C116.027 7.90244 114.704 10.0478 112.947 10.8024C108.18 12.8487 104.91 5.96602 109.719 3.59633ZM107.389 14.2039C107.851 14.3177 108.195 14.8094 108.696 15.3168C109.732 16.3654 114.037 20.7826 114.708 21.1721C115.943 21.8887 117.207 21.5374 118.358 20.7619C118.092 19.8481 112.755 15.3697 112.297 14.2754C118.081 13.131 119.779 7.49943 117.485 3.5843C114.411 -1.6589 106.373 -0.897429 104.472 5.27751C104.001 6.80778 104.231 14.3698 104.219 16.239L104.215 20.8442C104.211 21.2482 104.102 21.4568 104.45 21.5164C104.876 21.5896 105.927 21.1129 106.203 20.8737C107.972 19.3427 107.117 17.1836 107.389 14.2039Z" fill="white"/>
<path fill-rule="evenodd" clip-rule="evenodd" d="M102.688 21.5084C102.235 17.4888 98.7158 18.6328 96.2485 18.423C95.6934 18.3758 93.6791 18.5791 93.4149 18.3619L93.3295 18.2264C93.3227 18.2088 93.3028 18.1752 93.2957 18.1529C93.1912 17.8267 93.3061 15.8694 93.2807 15.2191C93.2407 14.1979 93.2705 12.9923 93.2901 11.9782C94.5212 11.6789 98.8104 12.1817 99.5855 11.7882C99.4773 10.205 98.4928 9.24853 97.4374 8.90508C96.2991 8.53466 94.0123 8.89214 93.3488 8.69753C93.2577 8.2635 93.199 4.21073 93.3779 3.80537L99.0998 3.77633C100.229 3.82195 101.006 3.58838 101.73 2.93582C102.253 2.46419 102.817 1.54406 102.639 0.621355L98.6157 0.57643C98.0809 0.578597 97.6027 0.646336 97.083 0.634456C92.6476 0.532693 89.9543 -0.114318 90.1292 5.43451C90.1986 7.63795 89.9658 18.1429 90.2434 19.291C90.941 22.177 94.5978 21.6127 97.0544 21.5725C98.0298 21.5565 98.8874 21.6274 99.8563 21.5767C100.712 21.532 101.898 21.7081 102.688 21.5084Z" fill="white"/>
<path fill-rule="evenodd" clip-rule="evenodd" d="M89.0943 0.679829L83.4359 0.639405C81.2592 0.638062 79.4633 1.01029 77.582 1.99466C68.8162 6.5815 70.6047 18.9903 80.3464 21.2597C82.1901 21.6891 83.944 21.503 85.9019 21.5787C86.3318 21.5954 86.8142 21.5785 87.2732 21.5732C88.8333 21.5552 89.4969 22.0199 88.8905 20.4218C87.8911 17.7881 84.9228 18.5291 83.0944 18.4199C79.4325 18.2012 76.4875 16.6951 75.3311 12.9739C74.1925 9.31013 76.399 5.92614 79.7072 4.50059C83.5964 2.82467 85.9549 4.86995 88.134 2.94257C88.6927 2.44837 89.1929 1.61977 89.0943 0.679829Z" fill="white"/>
<path fill-rule="evenodd" clip-rule="evenodd" d="M40.4053 3.7204C40.6661 4.77899 40.2444 20.1442 40.5497 21.5014C44.2911 20.9754 43.5364 18.0696 43.6117 16.1024C43.6793 14.3373 43.4937 4.09398 43.6748 3.85006C43.8441 3.62199 44.4484 3.71997 44.6301 3.72536C45.3771 3.74752 47.2901 3.74522 47.8748 3.51691C49.1965 3.00073 49.9264 1.88955 49.8867 0.601768C49.5233 0.479516 36.8201 0.475962 34.9263 0.502941C34.109 0.514544 34.0406 0.558984 34.3013 1.44558C35.1448 4.31488 38.3908 3.6201 40.4053 3.7204Z" fill="white"/>
</g>
<defs>
<clipPath id="clip0">
<rect width="139" height="22.0765" fill="white"/>
</clipPath>
</defs>
</svg>
