<svg width="98" height="16" viewBox="0 0 98 16" fill="none" xmlns="http://www.w3.org/2000/svg">
<g clip-path="url(#clip0_1118_2476)">
<path fill-rule="evenodd" clip-rule="evenodd" d="M2.27303 13.083C2.17937 12.6387 2.21516 9.66565 2.25297 9.14568C2.85326 9.06011 3.37764 9.07581 3.90647 9.09164C4.02605 9.09519 4.14587 9.09882 4.26684 9.10123C4.50514 9.10599 4.79312 9.09704 5.10447 9.08738C6.13871 9.05535 7.43089 9.0153 8.01725 9.44245C9.08346 10.2191 9.20859 11.7504 8.17973 12.6313C7.6195 13.1109 6.96207 13.1228 6.22098 13.1053C5.51794 13.0887 4.83462 13.0904 4.152 13.0921C3.53046 13.0937 2.90868 13.0952 2.27303 13.083ZM2.29002 6.86109C2.27508 6.80272 2.20371 3.36676 2.27761 2.92823C2.27969 2.91608 2.28256 2.90275 2.28527 2.89024C2.28682 2.88308 2.2883 2.87617 2.28955 2.86991L2.32095 2.755C2.64611 2.71014 4.88357 2.69941 5.14666 2.77439C7.20066 3.35963 7.11771 6.22398 5.27518 6.73702C4.61022 6.92216 3.72841 6.89634 2.97165 6.87419C2.72762 6.86704 2.49659 6.86028 2.29002 6.86109ZM0.452009 15.2513L0.387618 15.2449C0.319026 14.8531 0.237515 14.434 0.142358 13.9863C-0.0239291 12.9766 -0.00701513 12.1134 0.0110364 11.1922C0.0154845 10.9651 0.0200013 10.7347 0.021864 10.4976L0.0152939 3.62374C0.00940124 2.30253 0.00722639 1.59983 0.963447 0.890266C1.65472 0.377232 2.70097 0.435471 3.61249 0.486208C3.8288 0.498248 4.03753 0.509867 4.23212 0.513329C5.61978 0.538023 6.19427 0.671795 7.09809 1.28604C7.88595 1.82148 8.55313 2.69006 8.79728 3.92948C9.04206 5.17203 8.86225 5.60041 8.63423 6.14356C8.53019 6.39148 8.41607 6.66331 8.32773 7.04739C8.40535 7.12975 8.56371 7.2171 8.76397 7.32745C9.11187 7.51926 9.58632 7.78073 9.98386 8.20752C11.7183 10.0699 11.3785 12.6685 9.75846 14.2251C8.52991 15.4055 7.1219 15.3605 5.4965 15.3085L5.49252 15.3084C5.41362 15.3058 5.3342 15.3033 5.25426 15.3009C4.63028 15.282 4.00239 15.2948 3.37269 15.3077C2.40085 15.3275 1.42471 15.3474 0.452009 15.2513Z" fill="white"/>
<path fill-rule="evenodd" clip-rule="evenodd" d="M39.9434 2.61718C41.5477 1.91249 43.2308 2.18836 44.4314 2.76439C45.7543 3.39916 46.3997 4.17126 47.2057 5.70068C47.9306 7.0763 47.5355 9.2204 47.0384 10.2083C45.6193 13.0282 42.3465 14.1617 39.5316 12.7812C36.8444 11.4634 35.5996 7.97454 37.0336 5.31711C37.6984 4.08519 38.3946 3.29746 39.9434 2.61718ZM39.7369 0.338967C39.244 0.606284 38.3732 0.65078 36.9903 1.80089C36.226 2.43664 35.7154 3.11561 35.2183 3.92057C33.1144 7.32775 34.3187 12.4418 38.1954 14.6014C44.5014 18.1144 51.6094 11.9554 49.4938 5.42273C48.5539 2.52064 45.9094 0.392405 43.1688 0.0690819C42.4021 -0.0213406 40.5373 -0.0950992 39.7369 0.338967Z" fill="white"/>
<path fill-rule="evenodd" clip-rule="evenodd" d="M87.7633 8.00312C87.502 7.18661 88.276 5.06756 88.6183 4.48669C90.1295 1.92141 92.6122 1.48529 94.3932 3.94486C95.2283 5.09797 95.5266 6.37155 95.6154 7.97429C95.2248 8.09104 89.0934 7.97806 87.7633 8.00312ZM87.6504 15.2095C87.7874 14.8603 87.7221 11.0383 87.72 10.3165C87.955 10.2557 95.3093 10.2501 95.5401 10.3187C95.6736 10.7628 95.6147 12.2146 95.6168 12.7792C95.6196 13.3326 95.5344 14.8238 95.6644 15.2535C98.2955 14.9744 97.7984 12.786 97.8956 11.5993C97.9588 10.8294 97.8914 9.83051 97.8956 9.00669C97.9013 7.98118 97.9681 7.43004 97.7572 6.278C97.1585 3.0061 94.9003 -0.0907793 91.5058 0.0768191C87.9124 0.254273 85.9531 3.64574 85.569 6.41315C85.4418 7.32622 85.4205 10.4783 85.4447 11.5045C85.4624 12.2336 85.309 13.4345 85.7316 14.1045C86.1115 14.7084 86.8678 15.3434 87.6504 15.2095Z" fill="white"/>
<path fill-rule="evenodd" clip-rule="evenodd" d="M14.6442 7.94164C14.3469 6.23386 15.7132 2.54102 18.3775 2.29258C21.3741 2.0131 22.7333 6.78514 22.4441 7.88007C21.9568 8.05015 17.633 7.94377 16.5434 7.966C15.8964 7.97914 15.2234 7.89371 14.6442 7.94164ZM14.5478 15.1524C14.6158 13.7731 14.5903 11.6387 14.5472 10.2844C14.7643 10.1853 22.1011 10.1715 22.412 10.2571C22.5509 10.7389 22.4524 12.1201 22.4574 12.692C22.4629 13.312 22.3962 14.6866 22.5106 15.2101C24.6963 14.9647 24.8632 13.3439 24.7433 11.5265L24.7573 8.94904C24.7718 6.1732 24.4857 3.93243 22.4487 1.75918C21.4321 0.674528 20.2062 0.0361998 18.3975 0.0144898C16.4165 -0.00929344 15.0201 1.25871 14.1613 2.2735C13.3189 3.26874 12.6588 4.84077 12.4375 6.35684C12.2106 7.91132 12.3199 9.79481 12.3033 11.4235C12.2952 12.2237 12.1757 13.296 12.5912 14.0614C12.9564 14.7342 13.7497 15.2331 14.5478 15.1524Z" fill="white"/>
<path fill-rule="evenodd" clip-rule="evenodd" d="M77.6473 2.54526C79.2067 1.77661 80.823 2.75624 81.3606 3.93883C82.1119 5.5926 81.1753 7.11082 79.9311 7.64484C76.5579 9.09295 74.2435 4.22223 77.6473 2.54526ZM75.9983 10.052C76.325 10.1325 76.5686 10.4805 76.9236 10.8395C77.6565 11.5816 80.703 14.7076 81.1781 14.9832C82.0523 15.4903 82.9464 15.2417 83.7609 14.6929C83.5727 14.0463 79.7962 10.877 79.4716 10.1026C83.5649 9.29271 84.7665 5.30739 83.1431 2.53675C80.9679 -1.17373 75.2796 -0.634859 73.9339 3.735C73.6009 4.81793 73.7635 10.1694 73.755 11.4922L73.7521 14.7512C73.7493 15.0371 73.6719 15.1846 73.9183 15.2269C74.2201 15.2787 74.9636 14.9413 75.1589 14.772C76.4109 13.6886 75.8059 12.1607 75.9983 10.052Z" fill="white"/>
<path fill-rule="evenodd" clip-rule="evenodd" d="M72.6714 15.2209C72.3511 12.3764 69.8605 13.1859 68.1145 13.0374C67.7217 13.004 66.2962 13.1479 66.1093 12.9942L66.0488 12.8983C66.044 12.8859 66.0299 12.862 66.0248 12.8463C65.9509 12.6155 66.0322 11.2303 66.0142 10.7701C65.986 10.0474 66.0071 9.19424 66.0208 8.47664C66.8921 8.26474 69.9275 8.62059 70.4761 8.34215C70.3995 7.22169 69.7027 6.54486 68.9559 6.30181C68.1504 6.03967 66.5319 6.29265 66.0624 6.15493C65.998 5.84778 65.9564 2.97973 66.083 2.69287L70.1324 2.67232C70.9315 2.7046 71.4812 2.53931 71.9939 2.07751C72.3639 1.74375 72.763 1.09259 72.6366 0.439617L69.7897 0.407825C69.4113 0.409358 69.0728 0.457295 68.705 0.448888C65.5662 0.376873 63.6602 -0.0810009 63.784 3.84577C63.8331 5.40509 63.6684 12.8392 63.8648 13.6516C64.3585 15.694 66.9463 15.2947 68.6848 15.2663C69.3751 15.255 69.982 15.3051 70.6677 15.2692C71.2731 15.2376 72.1125 15.3622 72.6714 15.2209Z" fill="white"/>
<path fill-rule="evenodd" clip-rule="evenodd" d="M63.0489 0.481246L59.0445 0.452639C57.5041 0.451689 56.2332 0.715105 54.9018 1.41172C48.6984 4.65771 49.9641 13.4392 56.8582 15.0452C58.1629 15.349 59.4041 15.2173 60.7897 15.2709C61.0939 15.2827 61.4353 15.2708 61.7601 15.267C62.8641 15.2542 63.3338 15.5831 62.9047 14.4521C62.1975 12.5884 60.0968 13.1127 58.8029 13.0355C56.2114 12.8807 54.1272 11.8148 53.3088 9.18142C52.5031 6.5887 54.0647 4.19393 56.4058 3.18511C59.1582 1.9991 60.8272 3.44649 62.3693 2.08254C62.7647 1.7328 63.1187 1.14642 63.0489 0.481246Z" fill="white"/>
<path fill-rule="evenodd" clip-rule="evenodd" d="M28.5953 2.63278C28.7798 3.38192 28.4814 14.2556 28.6974 15.216C31.3452 14.8437 30.8111 12.7874 30.8645 11.3952C30.9122 10.1461 30.7809 2.89715 30.9091 2.72453C31.0289 2.56314 31.4566 2.63247 31.5851 2.63628C32.1137 2.65196 33.4676 2.65035 33.8813 2.48877C34.8167 2.12348 35.3333 1.33713 35.3051 0.425798C35.0479 0.339284 26.0581 0.336768 24.7179 0.355861C24.1395 0.364072 24.0911 0.395521 24.2756 1.02294C24.8725 3.05348 27.1696 2.5618 28.5953 2.63278Z" fill="white"/>
</g>
<defs>
<clipPath id="clip0_1118_2476">
<rect width="98" height="15.623" fill="white"/>
</clipPath>
</defs>
</svg>
