<svg width="198" height="27" viewBox="0 0 198 27" fill="none" xmlns="http://www.w3.org/2000/svg">
<path fill-rule="evenodd" clip-rule="evenodd" d="M74.5111 18.3171C73.8346 22.6764 69.9263 24.142 67.0326 24.142H56.1343L59.6668 1.96962H70.5651C72.8951 1.96962 74.9996 3.20977 74.9996 5.61491C74.9996 6.14104 74.8493 7.00539 74.7366 7.64425C74.4735 9.33537 73.083 11.0641 71.8053 11.5526C74.2856 12.0412 74.9245 13.9202 74.9245 15.3858C74.9245 16.0698 74.7956 16.7537 74.6667 17.4377C74.6114 17.7308 74.5562 18.0239 74.5111 18.3171ZM63.237 10.6883H67.1829C68.6485 10.6883 69.0995 9.97423 69.2874 8.8844C69.2969 8.82712 69.3065 8.77106 69.3159 8.71589C69.3804 8.33676 69.4377 8.00036 69.4377 7.60667C69.4377 6.81748 69.0619 6.32894 67.8593 6.32894H63.9134L63.237 10.6883ZM67.2205 19.4445H61.8465L62.5981 14.7094H67.9721C68.9492 14.7094 69.5505 15.2731 69.5505 16.175C69.5505 16.5314 69.4905 16.8678 69.4288 17.2134C69.406 17.3415 69.3829 17.471 69.3626 17.603C69.2122 18.6929 68.3855 19.4445 67.2205 19.4445ZM87.589 22.5261C86.1986 23.5032 84.0565 24.5178 82.3654 24.5178H81.3507C80.073 24.5178 77.029 23.7662 77.029 20.2337C77.029 19.8579 77.0665 19.4445 77.1793 18.7305L77.3672 17.603C77.6678 15.7616 78.3067 12.4921 84.0565 12.4921H88.5661L88.7164 11.5526C88.7229 11.5075 88.7293 11.4634 88.7356 11.4207C88.7658 11.2144 88.7916 11.0383 88.7916 10.9137C88.7916 10.4628 88.4158 10.3125 88.1152 10.3125H81.0876L81.7641 5.95314H90.9713C93.4891 5.95314 94.4287 7.30603 94.4287 9.07231C94.4287 9.34256 94.3983 9.58245 94.3649 9.84656L94.3535 9.93665L92.0987 24.142H87.9648L87.589 22.5261ZM83.38 20.1585C82.3654 20.1585 82.1399 19.4821 82.1399 19.0311C82.1399 18.768 82.1775 18.5426 82.215 18.3547L82.5157 16.8139C82.5908 16.3629 82.9666 16.0998 83.38 16.0998H87.9648L87.5139 19.219C86.3113 19.7827 84.5826 20.1585 83.38 20.1585ZM108.108 23.2777C106.379 24.0293 104.124 24.5178 102.321 24.5178C100.629 24.5178 97.172 24.142 97.172 19.5572C97.172 19.0687 97.2096 18.5426 97.3223 17.9413L98.4873 10.6883H96.3077L97.0593 5.95314H99.2389L100.404 3.05945H105.139L104.688 5.95314H110.137L109.386 10.6883H103.936L102.959 16.8514C102.948 16.9455 102.925 17.0948 102.899 17.2636C102.842 17.6342 102.771 18.0988 102.771 18.2795C102.771 18.9935 103.035 19.4445 104.35 19.4445C105.816 19.4445 107.695 19.1438 108.86 18.8056L108.108 23.2777ZM122.05 24.142C125.921 24.142 128.063 21.5866 128.627 17.9413L129.604 11.6278C129.679 11.2144 129.717 10.7258 129.717 10.3876C129.717 7.83215 128.401 5.95314 125.883 5.95314H118.48C114.421 5.95314 112.242 8.62134 111.716 12.1539L110.776 18.4298C110.758 18.5545 110.741 18.6667 110.726 18.7685L110.725 18.7699C110.617 19.4944 110.588 19.6882 110.588 20.0833C110.588 22.6388 112.016 24.142 114.609 24.142H122.05ZM117.428 19.0687H122.426C122.839 19.0687 123.178 18.768 123.253 18.3547L124.155 12.4545C124.192 12.2291 124.23 11.966 124.23 11.8533C124.23 11.1768 123.666 10.7634 122.99 10.7634H117.954C117.541 10.7634 117.24 11.0641 117.165 11.4774L116.3 17.1521L116.284 17.2509C116.244 17.4834 116.188 17.8159 116.188 17.9788C116.188 18.6177 116.601 19.0687 117.428 19.0687ZM136.105 24.5178C139.3 24.5178 143.095 23.9917 145.914 22.6764L146.628 18.1292C144.523 18.768 141.254 19.2942 138.473 19.2942C137.27 19.2942 136.857 18.6553 136.857 17.8285C136.857 17.6782 136.932 17.1897 136.97 16.9642L137.834 11.4774C137.909 10.9137 138.323 10.7634 138.698 10.7634H147.041L147.793 5.95314H138.999C134.94 5.95314 132.798 8.47102 132.234 12.1539L131.37 17.9413L131.343 18.1399C131.278 18.6215 131.22 19.0518 131.22 19.4821C131.22 24.1796 135.429 24.5178 136.105 24.5178ZM164.441 22.7516C162.224 23.6535 158.015 24.5178 155.159 24.5178C153.129 24.5178 149.07 24.2172 149.07 19.5572C149.07 19.1269 149.129 18.6675 149.194 18.1532L149.221 17.9413L150.123 12.1539C150.649 8.8844 152.678 5.95314 157.038 5.95314H160.946C165.418 5.95314 166.057 8.65892 166.057 10.1246C166.057 10.4567 166.008 10.8132 165.97 11.0964C165.96 11.1656 165.951 11.2305 165.944 11.2895L165.681 12.7552C165.305 14.8597 163.351 16.1374 160.908 16.5884C159.555 16.8514 155.797 17.0393 154.783 17.0393L154.67 17.8285C154.632 18.1292 154.632 18.2795 154.632 18.4298C154.632 19.1438 154.971 19.7827 156.211 19.7827C158.766 19.7827 162.787 19.2942 165.08 18.7305L164.441 22.7516ZM155.271 13.7699L155.647 11.7781C155.835 10.6883 156.774 10.3125 157.413 10.3125H160.194C161.021 10.3125 161.472 10.801 161.472 11.515C161.472 11.7405 161.359 12.2666 161.284 12.4545C161.134 12.7928 160.908 13.1686 159.856 13.4316C159.104 13.6195 155.873 13.7699 155.271 13.7699ZM174.588 11.5902L172.596 24.142H166.959L169.852 5.95314H174.437L174.813 7.45635C176.391 6.66716 179.097 5.57733 180.976 5.57733L180.187 10.6883H179.473C177.669 10.6883 175.79 11.1768 174.588 11.5902ZM185.937 24.5178C187.628 24.5178 189.77 23.5032 191.16 22.5261L191.536 24.142H195.67L197.925 9.93665L197.936 9.84661C197.97 9.58248 198 9.34258 198 9.07231C198 7.30603 197.061 5.95314 194.543 5.95314H185.336L184.659 10.3125H191.687C191.987 10.3125 192.363 10.4628 192.363 10.9137C192.363 11.0383 192.337 11.2144 192.307 11.4207C192.303 11.4466 192.299 11.4729 192.296 11.4997C192.293 11.5171 192.29 11.5348 192.288 11.5526L192.138 12.4921H187.628C181.878 12.4921 181.239 15.7616 180.939 17.603L180.751 18.7305C180.638 19.4445 180.6 19.8579 180.6 20.2337C180.6 23.7662 183.644 24.5178 184.922 24.5178H185.937ZM185.711 19.0311C185.711 19.4821 185.937 20.1585 186.951 20.1585C188.154 20.1585 189.883 19.7827 191.085 19.219L191.536 16.0998H186.951C186.538 16.0998 186.162 16.3629 186.087 16.8139L185.786 18.3547C185.749 18.5426 185.711 18.768 185.711 19.0311Z" fill="white"/>
<path fill-rule="evenodd" clip-rule="evenodd" d="M13.2551 26.5103C16.0268 26.5103 18.5998 25.6596 20.7272 24.205H26.6225C28.75 25.6596 31.3229 26.5103 34.0946 26.5103C41.4152 26.5103 47.3498 20.5758 47.3498 13.2551C47.3498 5.93453 41.4152 0 34.0946 0C33.8812 0 33.6689 0.00504437 33.458 0.0150204C33.2565 0.00504614 33.0537 0 32.8497 0H14.4078C14.219 0 14.0312 0.00432167 13.8446 0.0128715C13.6492 0.00432027 13.4527 0 13.2551 0C5.93453 0 0 5.93453 0 13.2551C0 20.5758 5.93453 26.5103 13.2551 26.5103ZM9.89086 9.77934C9.8047 10.0721 9.72928 10.3787 9.66565 10.6968C9.05611 10.7516 8.51517 10.8862 8.03671 11.0912C6.86648 11.5927 6.17766 12.4697 5.79042 13.3732C5.41054 14.2596 5.31381 15.1822 5.30404 15.8565C5.29908 16.1986 5.31639 16.4893 5.33525 16.6968C5.34471 16.8008 5.35463 16.8847 5.36251 16.9445C5.36645 16.9745 5.36989 16.9985 5.37252 17.016L5.37583 17.0375L5.37696 17.0446L5.37738 17.0471L5.37755 17.0482C5.37762 17.0486 5.3777 17.0491 6.19124 16.9135C7.00478 16.7779 7.00484 16.7783 7.0049 16.7786L7.00479 16.7779L7.00385 16.7717C7.00261 16.7634 7.00054 16.7491 6.99792 16.7292C6.99268 16.6894 6.9853 16.6276 6.97801 16.5474C6.96338 16.3865 6.94942 16.1546 6.9534 15.8804C6.96148 15.3223 7.04339 14.6371 7.30658 14.023C7.56241 13.4261 7.9811 12.9097 8.68649 12.6074C8.90277 12.5147 9.15532 12.4381 9.44994 12.3872C9.43403 12.6525 9.42584 12.9225 9.42584 13.1962C9.42584 13.6916 9.45265 14.1746 9.50356 14.6401C8.82703 15.2872 8.35954 16.0555 8.03572 16.7951C7.64524 17.6868 7.44993 18.5675 7.35109 19.2175C7.30135 19.5446 7.27524 19.8187 7.26151 20.0138C7.25464 20.1114 7.25085 20.1896 7.24875 20.2451C7.2477 20.2729 7.24708 20.2951 7.24671 20.3112L7.24632 20.3308L7.24623 20.3371L7.2462 20.3394L7.2462 20.3403C7.24619 20.3407 7.24619 20.3411 8.07092 20.3486C8.89565 20.3562 8.89565 20.3565 8.89564 20.3568L8.8958 20.3491C8.89599 20.3408 8.89637 20.3268 8.89711 20.3073C8.89857 20.2685 8.90144 20.2082 8.90697 20.1296C8.91805 19.9721 8.93973 19.7426 8.98187 19.4655C9.06679 18.907 9.23163 18.1763 9.54674 17.4567C9.65595 17.2073 9.78155 16.9629 9.92582 16.7294C10.5347 18.7077 11.6396 20.03 12.9016 20.03C14.1441 20.03 15.2343 18.7484 15.8488 16.8209C15.9702 17.0264 16.0776 17.2397 16.1726 17.4567C16.4878 18.1763 16.6526 18.907 16.7375 19.4655C16.7797 19.7426 16.8013 19.9721 16.8124 20.1296C16.8179 20.2082 16.8208 20.2685 16.8223 20.3073C16.823 20.3268 16.8234 20.3408 16.8236 20.3491L16.8237 20.3568C16.8237 20.3565 16.8237 20.3562 17.6485 20.3486C18.4732 20.3411 18.4732 20.3407 18.4732 20.3403L18.4732 20.3394L18.4732 20.3371L18.4731 20.3308L18.4727 20.3112C18.4723 20.2951 18.4717 20.2729 18.4706 20.2451C18.4685 20.1896 18.4647 20.1114 18.4579 20.0138C18.4441 19.8187 18.418 19.5446 18.3683 19.2175C18.2695 18.5675 18.0741 17.6868 17.6837 16.7951C17.3721 16.0834 16.9274 15.345 16.2914 14.7138C16.3477 14.2257 16.3774 13.7178 16.3774 13.1962C16.3774 12.9231 16.3693 12.6537 16.3534 12.3889C16.6438 12.4399 16.8931 12.5157 17.1069 12.6074C17.8123 12.9097 18.231 13.4261 18.4869 14.023C18.7501 14.6371 18.832 15.3223 18.84 15.8804C18.844 16.1546 18.8301 16.3865 18.8154 16.5474C18.8081 16.6276 18.8008 16.6894 18.7955 16.7292C18.7929 16.7491 18.7908 16.7634 18.7896 16.7717L18.7886 16.7779L18.7885 16.7786C18.7886 16.7783 18.7887 16.7779 19.6022 16.9135C20.4157 17.0491 20.4158 17.0486 20.4159 17.0482L20.4161 17.0471L20.4165 17.0446L20.4176 17.0375L20.4209 17.016C20.4235 16.9985 20.427 16.9745 20.4309 16.9445C20.4388 16.8847 20.4487 16.8008 20.4582 16.6968C20.4771 16.4893 20.4944 16.1986 20.4894 15.8565C20.4796 15.1822 20.3829 14.2596 20.003 13.3732C19.6158 12.4697 18.927 11.5927 17.7567 11.0912C17.2809 10.8873 16.7433 10.7531 16.1378 10.6977C16.0741 10.3792 15.9986 10.0724 15.9124 9.77934H15.0606C15.0695 9.75118 15.0782 9.72282 15.0867 9.69427C16.268 9.26592 17.1124 8.42141 17.6757 7.63276C18.0765 7.07163 18.3538 6.51584 18.5308 6.10281C18.6198 5.89512 18.6848 5.72042 18.7283 5.59498C18.7501 5.53218 18.7666 5.4815 18.7781 5.44494C18.7838 5.42665 18.7883 5.41187 18.7916 5.40085L18.7957 5.38717L18.797 5.38249L18.7976 5.38071L18.7978 5.37996C18.7979 5.37962 18.798 5.37929 18.0049 5.15271C17.2119 4.92613 17.212 4.92584 17.2121 4.92557L17.2115 4.92753L17.2044 4.95037C17.1975 4.97242 17.1861 5.0077 17.1699 5.05431C17.1375 5.1477 17.0864 5.2856 17.0146 5.45303C16.8701 5.79026 16.6472 6.23479 16.3335 6.674C16.0534 7.06612 15.7155 7.43618 15.3087 7.72654C15.2783 7.14736 15.1675 6.60461 14.994 6.12681H10.8095C10.6318 6.61642 10.5198 7.17423 10.4928 7.76955C10.0583 7.47318 9.70047 7.08575 9.40636 6.674C9.09264 6.23479 8.86971 5.79026 8.72518 5.45303C8.65343 5.2856 8.60231 5.1477 8.56991 5.05431C8.55374 5.0077 8.54231 4.97242 8.53538 4.95037L8.52835 4.92753L8.52775 4.92557C8.52783 4.92584 8.52792 4.92613 7.73489 5.15271C6.94186 5.37929 6.94195 5.37962 6.94204 5.37996L6.94226 5.38071L6.94278 5.38249L6.94414 5.38717L6.94819 5.40085C6.95149 5.41187 6.956 5.42665 6.96174 5.44494C6.97323 5.4815 6.98972 5.53218 7.01151 5.59498C7.05503 5.72042 7.12002 5.89512 7.20903 6.10281C7.38604 6.51584 7.66327 7.07163 8.06408 7.63276C8.63866 8.43718 9.50572 9.29971 10.7244 9.71946C10.7305 9.73952 10.7366 9.75948 10.7429 9.77934H9.89086ZM34.0949 5.30208C35.5838 5.30208 36.7927 6.51094 36.7927 7.99982C36.7927 9.49091 35.5838 10.6998 34.0949 10.6998C32.6038 10.6998 31.3972 9.49091 31.3972 7.99982C31.3972 6.50873 32.6038 5.30208 34.0949 5.30208ZM26.1413 13.2573C26.1413 14.7462 27.348 15.955 28.8391 15.955C30.3302 15.955 31.5368 14.7462 31.539 13.2573C31.539 11.7662 30.3302 10.5551 28.8391 10.5551C27.3502 10.5551 26.1413 11.7684 26.1413 13.2573ZM34.0944 21.2082C32.6034 21.2082 31.3967 19.9994 31.3967 18.5105C31.3967 17.0216 32.6034 15.8127 34.0944 15.8127C35.5833 15.8127 36.7922 17.0216 36.7922 18.5105C36.7922 19.9994 35.5833 21.2082 34.0944 21.2082ZM36.6499 13.2573C36.6499 14.7462 37.8588 15.955 39.3476 15.955C40.841 15.955 42.0454 14.7462 42.0454 13.2573C42.0454 11.7662 40.841 10.5551 39.3476 10.5551C37.8588 10.5551 36.6499 11.7684 36.6499 13.2573Z" fill="white"/>
</svg>
