<svg width="138" height="22" viewBox="0 0 138 22" fill="none" xmlns="http://www.w3.org/2000/svg">
<path fill-rule="evenodd" clip-rule="evenodd" d="M3.2008 18.4229C3.06891 17.7973 3.11931 13.6107 3.17255 12.8785C4.01786 12.758 4.75627 12.7801 5.50095 12.8024C5.66934 12.8074 5.83806 12.8125 6.00841 12.8159C6.34397 12.8226 6.74949 12.81 7.18792 12.7964C8.6443 12.7513 10.4639 12.6949 11.2896 13.2964C12.791 14.3901 12.9672 16.5464 11.5184 17.7869C10.7295 18.4623 9.80373 18.479 8.76016 18.4544C7.77016 18.431 6.80794 18.4334 5.8467 18.4358C4.97146 18.438 4.0959 18.4401 3.2008 18.4229ZM3.22472 9.66137C3.20369 9.57918 3.10319 4.74072 3.20725 4.1232C3.21017 4.10608 3.21422 4.08732 3.21803 4.0697C3.22021 4.05961 3.2223 4.04989 3.22406 4.04107L3.26828 3.87926C3.72616 3.81609 6.87687 3.80098 7.24734 3.90656C10.1397 4.73068 10.0229 8.76421 7.42832 9.48666C6.49194 9.74738 5.25021 9.71102 4.18457 9.67982C3.84093 9.66975 3.5156 9.66023 3.22472 9.66137ZM0.636502 21.4763L0.54583 21.4673C0.449241 20.9156 0.33446 20.3254 0.200463 19.6949C-0.033696 18.2731 -0.00987843 17.0576 0.0155411 15.7603C0.0218047 15.4406 0.0281651 15.1161 0.0307881 14.7822L0.0215364 5.1026C0.0132385 3.24209 0.0101759 2.25257 1.35669 1.25337C2.33012 0.530924 3.80341 0.612935 5.08698 0.684382C5.39158 0.701337 5.6855 0.717698 5.95951 0.722574C7.91357 0.757347 8.72255 0.945722 9.99527 1.81069C11.1047 2.56469 12.0442 3.78781 12.388 5.53313C12.7327 7.28287 12.4795 7.88611 12.1584 8.65096C12.0119 9.00008 11.8512 9.38286 11.7268 9.92372C11.8361 10.0397 12.0591 10.1627 12.3411 10.3181C12.831 10.5882 13.4991 10.9564 14.0589 11.5574C16.5013 14.18 16.0228 17.8393 13.7415 20.0313C12.0115 21.6935 10.0288 21.6301 7.73997 21.5568L7.73437 21.5567C7.62326 21.5531 7.51143 21.5495 7.39886 21.5461C6.52019 21.5196 5.63602 21.5376 4.7493 21.5557C3.38079 21.5836 2.00622 21.6117 0.636502 21.4763Z" fill="white"/>
<path fill-rule="evenodd" clip-rule="evenodd" d="M56.2458 3.68546C58.5049 2.69313 60.8751 3.08161 62.5657 3.89276C64.4286 4.78663 65.3373 5.87389 66.4723 8.02759C67.4931 9.96472 66.9368 12.984 66.2367 14.3752C64.2384 18.3461 59.6298 19.9423 55.666 17.9983C51.8819 16.1425 50.129 11.2296 52.1484 7.48746C53.0845 5.75269 54.0649 4.64342 56.2458 3.68546ZM55.955 0.477327C55.2609 0.853758 54.0348 0.916417 52.0874 2.53598C51.0111 3.43123 50.2921 4.38735 49.5921 5.52088C46.6295 10.3188 48.3254 17.5203 53.7844 20.5614C62.6642 25.5084 72.6735 16.8354 69.6943 7.63619C68.3708 3.54952 64.647 0.552577 60.7877 0.0972798C59.7081 -0.0300515 57.0821 -0.133917 55.955 0.477327Z" fill="white"/>
<path fill-rule="evenodd" clip-rule="evenodd" d="M123.585 11.27C123.217 10.1202 124.307 7.1362 124.789 6.31823C126.917 2.70585 130.413 2.09171 132.921 5.55523C134.097 7.17902 134.517 8.97245 134.642 11.2294C134.092 11.3938 125.458 11.2347 123.585 11.27ZM123.426 21.4179C123.619 20.9261 123.527 15.5441 123.524 14.5277C123.855 14.442 134.211 14.4341 134.536 14.5308C134.724 15.1561 134.641 17.2005 134.644 17.9956C134.648 18.7749 134.528 20.8747 134.711 21.4798C138.416 21.0868 137.716 18.0052 137.853 16.3341C137.942 15.2499 137.847 13.8433 137.853 12.6832C137.861 11.2391 137.955 10.463 137.658 8.84072C136.815 4.23328 133.635 -0.127685 128.855 0.108324C123.795 0.358211 121.036 5.13401 120.495 9.03103C120.316 10.3168 120.286 14.7555 120.32 16.2006C120.345 17.2273 120.129 18.9183 120.724 19.8619C121.259 20.7122 122.324 21.6065 123.426 21.4179Z" fill="white"/>
<path fill-rule="evenodd" clip-rule="evenodd" d="M20.6197 11.1834C20.201 8.77854 22.1249 3.57835 25.8767 3.22849C30.0965 2.83494 32.0104 9.55484 31.6031 11.0967C30.9169 11.3362 24.8283 11.1864 23.294 11.2177C22.383 11.2362 21.4353 11.1159 20.6197 11.1834ZM20.4839 21.3375C20.5797 19.3951 20.5438 16.3895 20.4831 14.4825C20.7887 14.3429 31.1201 14.3235 31.5579 14.444C31.7536 15.1225 31.6148 17.0674 31.6219 17.8728C31.6296 18.7458 31.5357 20.6815 31.6968 21.4187C34.7747 21.0732 35.0097 18.7908 34.8408 16.2315L34.8606 12.602C34.881 8.69312 34.4781 5.53771 31.6097 2.47737C30.1781 0.949985 28.4519 0.0511023 25.9049 0.0205307C23.1153 -0.0129604 21.149 1.77262 19.9396 3.20163C18.7534 4.6031 17.8238 6.81681 17.5122 8.95171C17.1927 11.1407 17.3466 13.793 17.3232 16.0865C17.3118 17.2133 17.1436 18.7233 17.7287 19.8012C18.2429 20.7485 19.36 21.4511 20.4839 21.3375Z" fill="white"/>
<path fill-rule="evenodd" clip-rule="evenodd" d="M109.339 3.58387C111.535 2.50147 113.811 3.88097 114.568 5.54627C115.626 7.87507 114.307 10.013 112.555 10.765C107.805 12.8042 104.546 5.94535 109.339 3.58387ZM107.017 14.1547C107.477 14.2681 107.82 14.7581 108.32 15.2637C109.352 16.3087 113.642 20.7106 114.311 21.0987C115.542 21.8129 116.801 21.4628 117.948 20.69C117.683 19.7794 112.365 15.3165 111.908 14.226C117.672 13.0855 119.364 7.47345 117.078 3.57188C114.015 -1.65315 106.005 -0.89432 104.11 5.25923C103.641 6.7842 103.87 14.3201 103.858 16.1828L103.854 20.772C103.85 21.1746 103.741 21.3824 104.088 21.4419C104.513 21.5148 105.56 21.0398 105.835 20.8014C107.598 19.2757 106.746 17.1241 107.017 14.1547Z" fill="white"/>
<path fill-rule="evenodd" clip-rule="evenodd" d="M102.332 21.4339C101.881 17.4283 98.3738 18.5683 95.9151 18.3592C95.362 18.3122 93.3546 18.5148 93.0914 18.2983L93.0062 18.1633C92.9995 18.1458 92.9796 18.1122 92.9725 18.09C92.8684 17.765 92.9829 15.8144 92.9576 15.1664C92.9178 14.1487 92.9475 12.9473 92.9669 11.9368C94.1938 11.6384 98.4681 12.1395 99.2406 11.7474C99.1327 10.1696 98.1516 9.2165 97.0999 8.87423C95.9656 8.50509 93.6866 8.86134 93.0254 8.6674C92.9347 8.23488 92.8762 4.19614 93.0544 3.79219L98.7566 3.76325C99.8819 3.80871 100.656 3.57595 101.378 2.92565C101.899 2.45566 102.461 1.53871 102.283 0.619203L98.2741 0.574434C97.7412 0.576593 97.2646 0.644097 96.7467 0.632258C92.3267 0.530848 89.6427 -0.113922 89.817 5.41568C89.8862 7.61149 89.6542 18.0801 89.9308 19.2241C90.626 22.1002 94.2701 21.5378 96.7182 21.4978C97.6902 21.4819 98.5449 21.5525 99.5104 21.502C100.363 21.4574 101.545 21.6329 102.332 21.4339Z" fill="white"/>
<path fill-rule="evenodd" clip-rule="evenodd" d="M88.7857 0.677474L83.1469 0.63719C80.9777 0.635852 79.188 1.00679 77.3133 1.98775C68.5778 6.5587 70.3601 18.9246 80.0681 21.1861C81.9054 21.614 83.6532 21.4285 85.6043 21.504C86.0327 21.5206 86.5135 21.5038 86.9709 21.4985C88.5255 21.4805 89.1869 21.9436 88.5826 20.351C87.5867 17.7265 84.6287 18.4649 82.8066 18.3561C79.1574 18.1382 76.2225 16.6372 75.0701 12.9289C73.9355 9.27788 76.1344 5.90561 79.4311 4.485C83.3069 2.81489 85.6572 4.85308 87.8287 2.93238C88.3855 2.43989 88.884 1.61416 88.7857 0.677474Z" fill="white"/>
<path fill-rule="evenodd" clip-rule="evenodd" d="M40.2653 3.70751C40.5252 4.76244 40.105 20.0745 40.4092 21.427C44.1377 20.9027 43.3856 18.007 43.4607 16.0466C43.528 14.2877 43.343 4.0798 43.5235 3.83672C43.6922 3.60945 44.2945 3.70708 44.4755 3.71245C45.2199 3.73453 47.1263 3.73225 47.7089 3.50472C49.0261 2.99033 49.7535 1.883 49.7139 0.599683C49.3517 0.477855 36.6925 0.474313 34.8053 0.501199C33.9908 0.512761 33.9227 0.557047 34.1825 1.44057C35.0231 4.29993 38.2578 3.60756 40.2653 3.70751Z" fill="white"/>
</svg>
