<svg width="691" height="292" viewBox="0 0 691 292" fill="none" xmlns="http://www.w3.org/2000/svg">
<path d="M19.0629 291.102C20.7506 290.863 22.4174 290.249 23.9474 289.304C25.4519 288.412 26.7868 287.204 27.8523 285.771L24.943 283.193C24.229 284.174 23.3422 285.015 22.3402 285.662C21.3573 286.288 20.2781 286.689 19.1861 286.835C18.2645 286.975 17.3501 286.926 16.4958 286.692C15.6415 286.458 14.8643 286.043 14.2092 285.471C13.5783 284.91 13.0799 284.208 12.7428 283.406C12.3815 282.555 12.1995 281.615 12.2076 280.639C12.1978 279.657 12.3745 278.655 12.7282 277.691C13.0582 276.794 13.5474 275.948 14.1681 275.202C14.7906 274.461 15.5352 273.838 16.3574 273.37C17.2143 272.877 18.1365 272.558 19.0673 272.433C20.1899 272.271 21.298 272.379 22.3036 272.749C23.343 273.138 24.2531 273.775 24.968 274.614L27.9696 271.112C26.9143 269.947 25.5713 269.097 24.05 268.63C22.4865 268.109 20.7852 267.963 19.0629 268.202C17.5245 268.408 15.9993 268.925 14.5758 269.722C13.2271 270.472 11.9956 271.465 10.948 272.648C9.91391 273.829 9.09143 275.181 8.52847 276.624C7.94488 278.137 7.64316 279.714 7.64064 281.265C7.63812 282.816 7.93487 284.31 8.51381 285.662C9.0701 286.943 9.88739 288.06 10.9172 288.945C11.9653 289.833 13.1973 290.479 14.5465 290.849C15.9796 291.247 17.5149 291.333 19.0629 291.102ZM77.0975 282.979C78.6307 282.775 80.1508 282.259 81.5684 281.462C82.9112 280.715 84.133 279.718 85.1633 278.53C86.1936 277.341 87.0121 275.984 87.5718 274.536C88.1578 273.031 88.4597 271.46 88.4597 269.917C88.4597 268.373 88.1578 266.887 87.5718 265.547C87.0122 264.256 86.1937 263.129 85.1634 262.23C84.133 261.331 82.9113 260.678 81.5684 260.309C78.7102 259.525 75.5141 259.974 72.6558 261.561C71.313 262.308 70.0912 263.304 69.0609 264.493C68.0306 265.682 67.2121 267.039 66.6525 268.487C66.0669 269.992 65.7652 271.562 65.7652 273.106C65.7652 274.65 66.0669 276.136 66.6525 277.476C67.2121 278.766 68.0307 279.894 69.061 280.793C70.0913 281.692 71.3131 282.345 72.6558 282.714C74.0643 283.112 75.5735 283.204 77.0975 282.979ZM77.0975 278.755C76.1977 278.889 75.3058 278.834 74.4765 278.593C73.6472 278.352 72.8979 277.93 72.2746 277.353C71.6597 276.772 71.1762 276.058 70.8507 275.25C70.1563 273.502 70.1563 271.459 70.8507 269.516C71.179 268.622 71.6623 267.778 72.2746 267.03C72.8979 266.278 73.6472 265.645 74.4765 265.171C75.3058 264.696 76.1977 264.39 77.0975 264.272C78.0237 264.134 78.9413 264.195 79.7927 264.449C80.6056 264.687 81.34 265.103 81.9512 265.67C82.5635 266.246 83.0468 266.954 83.375 267.756C84.0692 269.504 84.0692 271.547 83.375 273.49C83.0495 274.39 82.566 275.24 81.9512 275.993C81.34 276.731 80.6056 277.353 79.7927 277.821C78.9416 278.313 78.0231 278.632 77.0975 278.755ZM144.411 273.17V269.106L132.68 270.754V252.585L128.243 253.208V275.44L144.411 273.17ZM200.396 265.302V261.237L188.665 262.886V244.716L184.225 245.34V267.572L200.396 265.302ZM256.807 257.374V253.372L244.649 255.081V249.807L252.583 248.692V244.817L244.649 245.932V240.854L256.685 239.163V235.161L240.206 237.477V259.709L256.807 257.374ZM306.054 250.77C307.741 250.53 309.408 249.917 310.938 248.972C312.443 248.079 313.778 246.871 314.843 245.438L311.932 242.863C311.219 243.843 310.332 244.685 309.33 245.331C308.347 245.957 307.268 246.359 306.175 246.505C305.254 246.644 304.34 246.596 303.486 246.361C302.632 246.127 301.855 245.712 301.2 245.14C300.569 244.579 300.071 243.877 299.734 243.075C299.372 242.224 299.19 241.284 299.197 240.308C299.187 239.326 299.365 238.324 299.719 237.36C300.048 236.463 300.537 235.617 301.158 234.872C301.78 234.13 302.525 233.507 303.347 233.039C304.204 232.546 305.126 232.227 306.057 232.103C307.183 231.94 308.295 232.05 309.303 232.423C310.343 232.811 311.253 233.448 311.968 234.288L314.969 230.785C313.914 229.621 312.571 228.771 311.05 228.303C309.487 227.783 307.786 227.638 306.064 227.876C304.526 228.082 303 228.598 301.577 229.396C300.228 230.145 298.996 231.138 297.948 232.32C296.913 233.501 296.09 234.853 295.527 236.297C294.943 237.81 294.642 239.387 294.639 240.938C294.637 242.489 294.933 243.983 295.512 245.334C296.069 246.616 296.886 247.732 297.915 248.618C298.964 249.505 300.196 250.151 301.545 250.522C302.976 250.917 304.509 251.002 306.054 250.77ZM364.794 242.198V224.028L371.989 223.017V218.95L353.124 221.602V225.668L360.352 224.652V242.819L364.794 242.198ZM415.662 235.048V212.817L411.222 213.441V235.672L415.662 235.048ZM466.808 228.21C468.341 228.007 469.861 227.491 471.279 226.693C472.622 225.946 473.843 224.95 474.874 223.761C475.904 222.572 476.722 221.215 477.282 219.767C477.868 218.262 478.169 216.692 478.169 215.148C478.169 213.604 477.868 212.118 477.282 210.778C476.722 209.488 475.904 208.36 474.874 207.461C473.843 206.562 472.622 205.909 471.279 205.54C468.421 204.757 465.225 205.206 462.368 206.792C461.025 207.54 459.804 208.536 458.774 209.725C457.744 210.913 456.926 212.27 456.366 213.718C455.779 215.223 455.477 216.793 455.477 218.337C455.477 219.881 455.779 221.367 456.366 222.707C456.926 223.997 457.744 225.124 458.774 226.023C459.804 226.922 461.025 227.575 462.368 227.945C463.775 228.343 465.285 228.432 466.808 228.207V228.21ZM466.808 223.986C465.887 224.124 464.974 224.063 464.129 223.807C463.321 223.565 462.592 223.149 461.985 222.584C461.369 222.004 460.885 221.29 460.56 220.481C459.865 218.734 459.865 216.69 460.56 214.748C460.888 213.853 461.372 213.009 461.985 212.261C462.592 211.525 463.321 210.904 464.129 210.435C464.974 209.942 465.887 209.624 466.808 209.503C467.733 209.366 468.651 209.426 469.501 209.68C470.315 209.919 471.05 210.334 471.661 210.901C472.274 211.478 472.757 212.186 473.085 212.987C473.78 214.735 473.78 216.778 473.085 218.721C472.76 219.621 472.276 220.471 471.661 221.224C471.05 221.963 470.315 222.585 469.501 223.052C468.65 223.544 467.733 223.861 466.808 223.983V223.986ZM522.147 220.084V205.213L533.08 218.548L537 217.997V195.766L532.836 196.351V210.738L522.178 197.849L517.95 198.443V220.674L522.147 220.084Z" fill="white"/>
<path fill-rule="evenodd" clip-rule="evenodd" d="M11.3765 124.472C11.2225 123.756 11.2814 118.814 11.3435 117.942C12.3301 117.661 13.192 117.566 14.0611 117.47C14.2577 117.449 14.4546 117.427 14.6534 117.403C15.0451 117.356 15.5184 117.275 16.0301 117.187C17.7299 116.894 19.8537 116.529 20.8174 117.103C22.5698 118.146 22.7754 120.658 21.0844 122.358C20.1637 123.284 19.0832 123.455 17.8651 123.597C16.7097 123.732 15.5866 123.893 14.4647 124.053C13.4431 124.199 12.4212 124.346 11.3765 124.472ZM11.4044 114.142C11.3799 114.048 11.2625 108.362 11.384 107.617C11.3874 107.596 11.3921 107.574 11.3966 107.552C11.3991 107.54 11.4016 107.528 11.4036 107.517L11.4552 107.319C11.9897 107.17 15.667 106.635 16.0994 106.699C19.4752 107.196 19.3389 111.969 16.3107 113.246C15.2178 113.707 13.7685 113.868 12.5247 114.006C12.1236 114.05 11.7439 114.093 11.4044 114.142ZM8.38353 128.492L8.2777 128.496C8.16496 127.862 8.03099 127.185 7.8746 126.463C7.6013 124.826 7.6291 123.39 7.65876 121.856C7.66607 121.479 7.6735 121.095 7.67656 120.701L7.66576 109.294C7.65608 107.102 7.6525 105.937 9.2241 104.538C10.3602 103.527 12.0798 103.382 13.578 103.256C13.9335 103.226 14.2765 103.197 14.5963 103.157C16.877 102.878 17.8212 102.967 19.3067 103.778C20.6016 104.485 21.6982 105.772 22.0994 107.773C22.5018 109.779 22.2062 110.531 21.8315 111.485C21.6604 111.921 21.4729 112.398 21.3277 113.056C21.4553 113.175 21.7155 113.283 22.0447 113.42C22.6165 113.658 23.3963 113.983 24.0496 114.599C26.9003 117.29 26.3418 121.681 23.6792 124.639C21.66 126.882 19.3459 127.132 16.6744 127.421L16.6679 127.422C16.5382 127.436 16.4077 127.45 16.2763 127.465C15.2507 127.578 14.2188 127.744 13.1838 127.911C11.5865 128.168 9.98221 128.426 8.38353 128.492Z" fill="white"/>
<path fill-rule="evenodd" clip-rule="evenodd" d="M73.2886 98.401C75.9253 96.8608 78.6917 96.9299 80.6648 97.6086C82.8392 98.3566 83.8998 99.489 85.2245 101.841C86.416 103.957 85.7667 107.607 84.9496 109.361C82.6172 114.369 77.2382 117.007 72.6119 115.366C68.1952 113.799 66.1493 108.296 68.5063 103.554C69.5988 101.356 70.7431 99.8878 73.2886 98.401ZM72.9492 94.6674C72.139 95.225 70.7079 95.5 68.435 97.7283C67.1788 98.96 66.3396 100.205 65.5227 101.656C62.0648 107.797 64.0442 116.006 70.4156 118.695C80.7799 123.069 92.4623 111.205 88.9851 100.851C87.4403 96.2518 83.0941 93.3304 78.5897 93.4268C77.3296 93.4538 74.2647 93.7621 72.9492 94.6674Z" fill="white"/>
<path fill-rule="evenodd" clip-rule="evenodd" d="M151.885 96.2944C151.454 94.9997 152.727 91.3038 153.289 90.2607C155.773 85.6539 159.853 84.3566 162.781 88.0274C164.154 89.7483 164.644 91.7932 164.79 94.4329C164.148 94.7168 154.07 95.9456 151.885 96.2944ZM151.699 108.281C151.924 107.67 151.816 101.342 151.813 100.144C152.2 99.9887 164.287 98.2807 164.666 98.3414C164.886 99.0474 164.789 101.471 164.792 102.407C164.796 103.325 164.657 105.82 164.87 106.503C169.194 105.432 168.377 101.915 168.537 99.9228C168.641 98.6303 168.53 96.988 168.537 95.6197C168.546 93.9163 168.656 92.9862 168.31 91.1227C167.326 85.8305 163.614 81.2123 158.036 82.2744C152.129 83.3991 148.909 89.4805 148.277 94.1625C148.069 95.7072 148.034 100.944 148.074 102.641C148.102 103.847 147.851 105.876 148.544 106.89C149.17 107.805 150.412 108.684 151.699 108.281Z" fill="white"/>
<path fill-rule="evenodd" clip-rule="evenodd" d="M31.7071 113.082C31.2184 110.316 33.464 103.872 37.8429 102.844C42.768 101.688 45.0019 109.294 44.5265 111.178C43.7256 111.573 36.6192 112.395 34.8285 112.684C33.7652 112.855 32.6591 112.869 31.7071 113.082ZM31.5486 125.072C31.6605 122.767 31.6186 119.231 31.5477 116.993C31.9044 116.778 43.9627 115.061 44.4738 115.131C44.7022 115.899 44.5402 118.214 44.5484 119.162C44.5574 120.189 44.4478 122.486 44.636 123.329C48.2283 122.417 48.5026 119.688 48.3055 116.699L48.3286 112.418C48.3524 107.808 47.8821 104.155 44.5343 101.018C42.8633 99.4528 40.8486 98.6765 37.8758 99.0583C34.62 99.4764 32.325 101.903 30.9133 103.786C29.5289 105.633 28.4439 108.394 28.0801 110.962C27.7072 113.594 27.887 116.695 27.8596 119.402C27.8463 120.732 27.65 122.539 28.3329 123.714C28.933 124.746 30.2369 125.391 31.5486 125.072Z" fill="white"/>
<path fill-rule="evenodd" clip-rule="evenodd" d="M135.256 89.5722C137.82 87.9361 140.476 89.1888 141.359 91.0274C142.594 93.5987 141.055 96.3348 139.011 97.5084C133.467 100.691 129.663 93.1416 135.256 89.5722ZM132.547 102.412C133.084 102.47 133.484 102.992 134.067 103.506C135.272 104.568 140.279 109.052 141.06 109.4C142.496 110.04 143.966 109.421 145.305 108.322C144.996 107.292 138.789 102.904 138.256 101.694C144.982 99.4042 146.958 92.512 144.289 88.2886C140.715 82.6326 131.365 84.8409 129.154 92.4044C128.606 94.2788 128.874 103.123 128.86 105.321L128.855 110.73C128.85 111.206 128.724 111.468 129.128 111.482C129.624 111.498 130.846 110.766 131.168 110.44C133.225 108.353 132.231 105.956 132.547 102.412Z" fill="white"/>
<path fill-rule="evenodd" clip-rule="evenodd" d="M127.079 111.76C126.552 107.113 122.459 109.032 119.589 109.189C118.943 109.224 116.601 109.792 116.293 109.58L116.194 109.435C116.186 109.415 116.163 109.379 116.155 109.354C116.033 108.988 116.167 106.67 116.137 105.911C116.091 104.718 116.125 103.297 116.148 102.103C117.58 101.55 122.569 101.439 123.47 100.85C123.344 99.0085 122.199 98.046 120.972 97.8152C119.648 97.5661 116.988 98.3598 116.216 98.2397C116.11 97.7448 116.042 92.9942 116.25 92.4889L122.905 91.5194C124.219 91.3884 125.123 90.9871 125.965 90.1023C126.573 89.4628 127.229 88.2899 127.022 87.2353L122.342 87.8401C121.72 87.9301 121.164 88.0878 120.56 88.1588C115.401 88.7643 112.268 88.4447 112.472 94.9334C112.552 97.5101 112.282 109.887 112.604 111.19C113.416 114.466 117.669 113.205 120.526 112.756C121.661 112.578 122.658 112.521 123.785 112.303C124.78 112.111 126.16 112.124 127.079 111.76Z" fill="white"/>
<path fill-rule="evenodd" clip-rule="evenodd" d="M111.268 89.518L104.686 90.3955C102.155 90.7497 100.066 91.4805 97.8777 92.9442C87.682 99.7646 89.7622 114.047 101.093 115.12C103.237 115.323 105.277 114.818 107.555 114.587C108.055 114.536 108.616 114.437 109.15 114.356C110.964 114.08 111.736 114.517 111.031 112.739C109.868 109.809 106.416 111.165 104.289 111.335C100.03 111.677 96.6046 110.389 95.2596 106.208C93.9353 102.091 96.5017 97.7553 100.35 95.5401C104.873 92.9359 107.616 94.9527 110.151 92.3327C110.801 91.6609 111.383 90.6059 111.268 89.518Z" fill="white"/>
<path fill-rule="evenodd" clip-rule="evenodd" d="M54.6367 101.048C54.9401 102.249 54.4496 120.365 54.8047 121.909C59.1565 120.68 58.2786 117.39 58.3662 115.067C58.4449 112.983 58.2289 100.982 58.4396 100.666C58.6365 100.371 59.3394 100.387 59.5507 100.364C60.4196 100.267 62.6446 99.952 63.3247 99.5883C64.862 98.7659 65.711 97.3415 65.6647 95.8354C65.2421 95.7512 50.4667 97.8236 48.264 98.1649C47.3134 98.3121 47.2339 98.3755 47.5371 99.3742C48.5182 102.606 52.2937 101.26 54.6367 101.048Z" fill="white"/>
<path fill-rule="evenodd" clip-rule="evenodd" d="M537.446 83.7551V176.573L519.062 179.156L506.781 166.876V106.625L500.681 107.484V181.74L482.296 184.322L470.016 172.044V111.795L463.912 112.653V186.906L445.531 189.491L437.18 181.14V190.662L382.03 198.414L369.749 186.135V144.439L355.437 146.45L343.156 134.172V115.509L361.537 94.3617L369.749 102.57V93.3153L424.898 85.5647L433.25 93.9157V84.3911L525.165 71.4745L537.446 83.7551ZM437.18 116.409L400.411 121.576V126.134L415.704 123.985L427.987 136.266V154.83L400.411 158.706V163.258L424.897 159.818L433.25 168.169V121.52L441.882 111.588L437.18 106.886V116.409ZM373.818 125.761L378.381 120.511L373.818 115.948V125.761Z" fill="#46088C"/>
<path fill-rule="evenodd" clip-rule="evenodd" d="M333.495 130.388V111.825L321.213 99.5442L266.064 107.295V118.078L256.606 108.621L201.457 116.372V127.156L192.003 117.701L136.854 125.452V136.238L127.396 126.782L109.013 129.366V166.493L102.909 167.349V162.794V144.232L90.6301 131.951L72.2473 134.532V145.319L62.7897 135.862L7.64062 143.613V162.177L16.2723 170.809L7.64062 180.739V199.305L19.9212 211.586L44.4061 208.142V212.7L7.64062 217.866V236.43L19.9212 248.711L75.0695 240.96L75.0712 230.176L84.528 239.632L102.911 237.049L102.909 199.921L109.013 199.062V222.183L121.291 234.46L139.678 231.88V221.095L149.135 230.552L204.283 222.8L204.281 212.015L213.738 221.472L268.887 213.719L268.888 128.682L278.345 138.139L288.962 136.644L284.449 141.835V197.527L296.727 209.804L315.11 207.224V132.972L333.495 130.388ZM167.516 195.397V153.713L173.62 152.855V194.541L167.516 195.397ZM232.122 144.635L238.223 143.775V185.459L232.122 186.317V144.635ZM75.0686 166.703L75.0712 155.919L80.8799 161.728L72.2473 171.659V182.444L62.7906 172.987L38.3023 176.427V171.874L75.0686 166.703ZM145.486 152.649L139.678 159.329V146.841L145.486 152.649ZM210.09 143.569L204.281 150.252V137.761L210.09 143.569Z" fill="#46088C"/>
<path fill-rule="evenodd" clip-rule="evenodd" d="M636.375 56.1281L636.373 45.4926L642.476 44.6353L642.477 49.1093L636.375 56.1281Z" fill="#46088C"/>
<path fill-rule="evenodd" clip-rule="evenodd" d="M673.141 58.8052V21.765L660.859 9.48438L605.71 17.235V26.702L597.504 18.4968L579.12 21.0815L579.119 95.335L573.017 96.1923V54.5059L573.018 35.9434L560.738 23.6628L542.355 26.2475V44.8108L550.988 53.4434L542.355 63.3725V119.065L554.636 131.346L609.786 123.595V114.126L617.991 122.332L636.375 119.749L636.377 82.5328L654.756 79.9516L673.141 58.8052ZM636.373 45.4926L636.375 56.1281L642.477 49.1093L642.476 44.6353L636.373 45.4926ZM609.786 49.6724L614.343 44.4309L609.786 39.8738V49.6724Z" fill="#46088C"/>
<path d="M333.495 111.825L321.213 99.5439L266.064 107.295V118.078L256.606 108.621L201.457 116.372V127.155L192.003 117.701L136.854 125.452V136.238L127.396 126.781L109.013 129.366V166.493L102.909 167.349V144.231L90.6299 131.951L72.2471 134.532V145.318L62.79 135.862L7.64062 143.612V162.177L16.2725 170.809L7.64062 180.739V199.306L19.9209 211.586L44.4062 208.143V212.7L7.64062 217.866V236.431L19.9209 248.711L75.0693 240.96L75.0713 230.176L84.5283 239.632L102.911 237.05L102.909 199.921L109.013 199.062V222.184L121.291 234.46L139.678 231.88V221.096L149.135 230.552L204.283 222.8L204.281 212.015L213.738 221.472L268.887 213.719L268.888 128.682L278.345 138.139L288.963 136.644L284.448 141.835V197.527L296.727 209.805L315.11 207.224V132.972L333.495 130.389V111.825ZM572.121 14.9971L598.71 11.2578V11.1504L663.341 2.06641L680.141 18.8652V61.4229L658.321 86.5195L643.376 88.6182L643.375 125.835L616.785 129.569V129.68L552.153 138.764L544.446 131.056V182.658L516.58 186.573L507.681 177.675V187.825L479.814 191.739L470.912 182.838V192.99L443.049 196.909L443.046 196.906L379.548 205.831L362.749 189.034V152.491L352.955 153.868L336.156 137.072V112.892L361.178 84.1045L364.112 87.0381L527.646 64.0566L535.355 71.7646V60.7549L541.421 53.7764L535.355 47.71V20.1631L563.22 16.2451L572.119 25.1455L572.121 14.9971ZM173.619 194.541L167.516 195.396V153.713L173.619 152.854V194.541ZM238.223 185.459L232.122 186.316V144.636L238.223 143.775V185.459ZM80.8799 161.729L72.2471 171.659V182.443L62.791 172.987L38.3027 176.428V171.874L75.0684 166.703L75.0713 155.92L80.8799 161.729ZM441.882 111.588L433.25 121.52V168.169L424.896 159.818L400.411 163.259V158.706L427.987 154.83V136.266L415.704 123.985L400.411 126.134V121.576L437.18 116.408V106.886L441.882 111.588ZM145.485 152.648L139.678 159.329V146.841L145.485 152.648ZM210.09 143.569L204.281 150.252V137.761L210.09 143.569ZM378.381 120.512L373.817 125.761V115.948L378.381 120.512ZM614.343 44.4307L609.785 49.6719V39.874L614.343 44.4307ZM343.156 134.173L355.437 146.45L369.749 144.439V186.135L382.029 198.414L437.18 190.662V181.14L445.53 189.491L463.912 186.905V112.653L470.016 111.795V172.044L482.296 184.321L500.681 181.739V107.483L506.781 106.625V166.876L519.062 179.155L537.446 176.573V83.7549L525.165 71.4746L433.25 84.3906V93.916L424.898 85.5645L369.749 93.3154V102.57L361.537 94.3613L343.156 115.509V134.173ZM339.495 136.474L322.11 139.057V213.31L294.244 217.222L277.448 200.427V145.334L275.887 145.554V219.804L211.256 228.89L211.255 228.889L146.653 237.97L146.652 237.969L118.809 241.877L109.91 232.979L109.911 243.135L82.0459 247.05L82.0439 247.048L17.4395 256.129L0.640625 239.33V211.781L9.03711 210.601L0.640625 202.205V178.122L6.70801 171.143L0.640625 165.076V137.527L65.2471 128.447L93.1123 124.534L102.013 133.435V123.281L194.457 110.288L259.088 101.203L259.091 101.206L323.695 92.127L339.495 108.925V136.474ZM579.119 95.335L573.017 96.1924L573.018 35.9434L560.737 23.6631L542.355 26.2471V44.8105L550.987 53.4434L542.355 63.3721V119.065L554.636 131.346L609.785 123.595V114.126L617.991 122.332L636.375 119.749L636.377 82.5332L654.756 79.9512L673.141 58.8057V21.7646L660.859 9.48438L605.71 17.2354V26.7021L597.504 18.4971L579.12 21.0811L579.119 95.335Z" fill="black"/>
<path d="M541.859 24.2461L560.242 21.6625V40.2261L541.859 42.8096V24.2461ZM560.242 95.9167L578.625 93.3332V19.079L597.008 16.4955V109.313L541.859 117.064V61.3732L560.242 40.2261V95.9167Z" fill="#FB15B2"/>
<path d="M432.75 84.3984L524.664 71.4807V90.0443V164.298L506.282 166.882V92.6278L487.899 95.2113V169.465L469.516 172.049V97.7949L451.133 100.378L432.75 102.962V84.3984ZM451.133 100.378V174.633L432.75 177.216V121.526L451.133 100.378Z" fill="#FB15B2"/>
<path d="M369.25 111.888L424.399 104.137V85.5736L369.25 93.3242V111.888ZM387.633 109.304V127.868L415.207 123.992V142.556L387.633 146.431V164.995L424.399 159.828V178.391L369.25 186.142V130.451L387.633 109.304Z" fill="#FB15B2"/>
<path d="M266.062 125.649L321.211 117.899V99.3353L266.062 107.086V125.649ZM302.828 120.482V194.737L284.445 197.32V141.629L302.828 120.482Z" fill="#FB15B2"/>
<path d="M201.457 116.164L256.606 108.413V201.231L201.457 208.982V153.291L219.84 132.144V187.835L238.223 185.251V129.561L219.84 132.144L201.457 134.728V116.164Z" fill="#FB15B2"/>
<path d="M192.004 117.492L136.855 125.242V143.806L173.621 138.639V194.329L155.238 196.913V143.25L136.855 162.369V218.06L192.004 210.309V117.492Z" fill="#FB15B2"/>
<path d="M72.25 134.328L90.6329 131.745V150.308L72.25 152.892V134.328ZM90.6329 150.308V168.872L109.016 166.288V129.161L127.399 126.577V219.395L109.016 221.979V184.852L90.6329 187.435V224.562L72.25 227.146V171.455L90.6329 150.308Z" fill="#FB15B2"/>
<path d="M7.64062 161.97L62.7893 154.219V135.656L7.64062 143.406V161.97ZM26.0235 159.386V177.95L62.7893 172.783V228.473L7.64062 236.224V217.66L44.4064 212.493V193.93L7.64062 199.097V180.533L26.0235 159.386Z" fill="#FB15B2"/>
<path d="M361.039 94.3657V131.592L342.656 134.176V115.513L361.039 94.3657Z" fill="#FB15B2"/>
<path d="M605.211 15.2344L660.36 7.48374V44.524L641.977 65.6711L623.594 68.2546L641.977 47.1075V28.6308L623.594 31.2144L605.211 33.7979V15.2344Z" fill="#FB15B2"/>
<path d="M605.211 108.052L623.594 105.469V68.2546V31.2144L605.211 52.3615V108.052Z" fill="#FB15B2"/>
</svg>
