<?xml version="1.0" encoding="UTF-8"?>
<svg width="425px" height="80px" viewBox="0 0 425 80" version="1.1" xmlns="http://www.w3.org/2000/svg" xmlns:xlink="http://www.w3.org/1999/xlink">
    <title>mainlogo</title>
    <g id="Page-1" stroke="none" stroke-width="1" fill="none" fill-rule="evenodd">
        <g id="mainlogo">
            <g id="Konami_logo-2">
                <g id="Konami_logo">
                    <path d="M0,51.9165021 C9.69120039,53.0127021 19.3815008,54.1107022 24.357601,52.6131021 C29.3328012,51.117302 29.5929012,47.0250019 29.8530012,42.9345017 C30.8025012,39.9690016 32.2029013,36.9999015 34.3386014,34.0254014 C35.0550014,33.0021013 35.8839014,32.0580013 36.8073015,31.2165012 C37.7325015,30.3732012 38.7522015,29.6343012 39.8394016,29.0169012 C40.9284016,28.3977011 42.0876017,27.8991011 43.2855017,27.5337011 L43.2855017,27.5337011 L47.8728019,26.6526011 L52.4997021,26.007301 L52.4997021,26.007301 C54.4617022,25.734601 56.4606022,25.128001 58.3920023,24.121801 C59.3109024,23.6421009 60.1902024,23.0886009 61.1892024,22.2894009 C62.1900025,21.4875009 63.3096025,20.4426008 64.3050026,19.2924008 C65.3022026,18.1404007 66.1743026,16.8822007 66.9096027,15.5502006 C67.6440027,14.2164006 68.2407027,12.8088005 68.6871027,11.3544005 C69.8526028,8.12790032 70.9425028,4.88970019 71.9595029,1.64070007 C63.5328025,-0.471600019 53.6166021,-0.486000019 48.4110019,1.26090005 C43.2054017,3.00600012 42.7077017,6.50970026 42.2298017,8.89560035 C41.7501017,11.2815004 41.2920016,12.5496005 40.7691016,13.7925005 C40.2480016,15.0354006 39.6630016,16.2549006 39.0501016,17.3367007 C38.4372015,18.4176007 37.7955015,19.3653008 37.0575015,20.2320008 C36.3195014,21.0987008 35.4861014,21.8862009 34.5798014,22.5774009 C33.6303013,23.2209009 32.6799013,23.8635009 31.6971013,24.339601 C29.7477012,25.302601 27.6714011,25.670701 25.637401,26.251201 C22.7619009,26.7876011 19.8279008,27.1431011 16.9443007,27.9855011 C15.5169006,28.3977011 14.1381006,28.9818012 12.8493005,29.7216012 C11.5614005,30.4587012 10.3644004,31.3542012 9.29160037,32.3766013 C8.21880033,33.4008013 7.27290029,34.5537014 6.47730026,35.8020014 C6.01020024,36.5247015 5.54400022,37.2474015 4.9635002,38.3922015 C4.38210017,39.5379016 3.68550015,41.1057016 2.99070012,42.6726017 C1.83420007,45.7308018 0.839700033,48.8133019 0,51.9165021 L0,51.9165021 Z" id="Path" fill="#F3AD2C"></path>
                    <path d="M18.1314007,76.9617031 C27.8217011,78.0570031 37.5138015,79.1550031 42.4890017,77.6583031 C47.4642019,76.161603 47.7234019,72.0720029 47.9844019,67.9797027 C48.9339019,65.0142026 50.336102,62.0433025 52.4709021,59.0697023 C53.1864021,58.0464023 54.0153021,57.1014023 54.9414022,56.2608022 C55.8648022,55.4193022 56.8845023,54.6804022 57.9735023,54.0612021 C59.0625023,53.4420021 60.2199024,52.9443021 61.4196024,52.5789021 L61.4196024,52.5789021 L66.0051026,51.6978021 L70.6320028,51.050702 L70.6320028,51.050702 C72.5940029,50.780702 74.593803,50.174102 76.524303,49.167902 C77.4441031,48.6873019 78.3225031,48.1347019 79.3215032,47.3328019 C80.3214032,46.5336018 81.4419032,45.4869018 82.4391033,44.3358018 C83.4345033,43.1856017 84.3084034,41.9256017 85.0419034,40.5936016 C85.7772034,39.2616016 86.3730034,37.8540015 86.8203034,36.4005014 C87.9849035,33.1731013 89.0748035,29.9349012 90.0918036,26.6859011 C81.6651032,24.572701 71.7498029,24.560101 66.5424026,26.306101 C61.3368024,28.0512011 60.8391024,31.5549013 60.3612024,33.9408013 C59.8815024,36.3258014 59.4225024,37.5939015 58.9014023,38.8368015 C58.3794023,40.0797016 57.7953023,41.2983016 57.1815023,42.3810017 C56.5686022,43.4628017 55.9260022,44.4078018 55.1889022,45.2763018 C54.4518022,46.1412018 53.6175021,46.9296019 52.7121021,47.6217019 C51.7617021,48.2661019 50.811302,48.9078019 49.829402,49.383002 C47.8791019,50.347802 45.8037018,50.715002 43.7688017,51.295502 C40.8924016,51.8310021 37.9602015,52.1874021 35.0748014,53.0289021 C33.6474013,53.4429021 32.2686013,54.0261021 30.9807012,54.7641022 C29.6928012,55.5030022 28.4949011,56.3967022 27.4230011,57.4218023 C25.002901,59.6970024 23.4135009,62.6607025 22.1247009,65.3481026 C20.4183008,69.1902027 19.1988008,73.0575029 18.1314007,76.9617031 L18.1314007,76.9617031 Z" id="Path" fill="#EB302E"></path>
                    <polygon id="Path" fill="#FFFFFF" points="108.662404 51.141602 121.985105 51.147902 132.310805 24.585301 139.152606 51.141602 154.778406 51.141602 148.085106 24.514201 172.004407 1.71360007 156.019506 1.71360007 133.327805 22.2642009 140.645706 1.71810007 127.125005 1.71360007"></polygon>
                    <path d="M209.220308,10.0890004 C208.753208,8.76960035 208.062908,7.5249003 207.198908,6.41430025 C206.334008,5.30370021 205.295408,4.32630017 204.129008,3.53610014 C202.963508,2.74770011 201.671108,2.14560009 200.192408,1.67040007 C197.181008,0.716400028 193.628708,0.279000011 190.290608,0.347400014 C188.595007,0.383400015 186.903007,0.547200022 184.903207,0.929700037 C182.902507,1.31130005 180.594907,1.91340008 178.428607,2.84940011 C176.263207,3.78540015 174.236407,5.0580002 172.454407,6.59880026 C170.673307,8.13870032 169.134307,9.9495004 167.999407,11.5245005 C166.866307,13.0986005 166.136407,14.4360006 165.437107,15.7860006 C164.739607,17.1360007 164.070007,18.4977007 163.458006,19.8846008 C162.279906,22.6287009 161.187306,25.286401 160.335006,27.8613011 C159.930006,29.1384012 159.614106,30.4443012 159.384606,31.7646013 C159.156006,33.0849013 159.015606,34.4196014 158.947206,35.4213014 C158.878806,36.4239014 158.881506,37.0908015 158.917506,37.7577015 C158.951706,38.4237015 159.017406,39.0888016 159.104706,39.7512016 C159.189306,40.4172016 159.295506,41.0814016 159.669006,42.1479017 C160.041606,43.2153017 160.679706,44.6814018 161.576106,45.9837018 C162.472506,47.2860019 163.626307,48.4182019 164.942107,49.310102 C166.258807,50.202002 167.735707,50.854502 169.417807,51.327902 C172.826107,52.2738021 176.832907,52.5537021 180.587707,52.3305021 C182.487607,52.2153021 184.380307,51.9606021 186.451207,51.432302 C188.523007,50.903102 190.770308,50.095802 192.840308,48.9600019 C194.911208,47.8242019 196.803008,46.3608018 198.415808,44.6463018 C200.030408,42.9336017 201.366008,40.9680016 202.536908,38.8152015 C203.708708,36.6597015 204.715808,34.3179014 205.674308,31.9599013 C206.631908,29.6010012 207.540908,27.2277011 208.172708,25.463701 C208.804508,23.7006009 209.160008,22.5486009 209.429108,21.3768008 C209.699108,20.2032008 209.885408,19.0116008 209.994308,17.8119007 C210.215708,15.4440006 210.142808,12.7566005 209.220308,10.0890004 L209.220308,10.0890004 L209.220308,10.0890004 L209.220308,10.0890004 Z M196.176608,17.4321007 C195.453908,20.1231008 194.731208,22.8132009 193.855508,25.455601 C192.979808,28.0980011 191.952908,30.6882012 190.926008,33.2802013 C190.176308,35.0568014 189.144908,36.8667015 187.815607,38.5344015 C186.932707,39.6396016 186.018307,40.4091016 185.011207,40.9779016 C183.857407,41.6340017 182.650507,41.9922017 181.471507,42.1398017 C179.676907,42.3639017 177.838207,42.0957017 176.391907,41.4369016 C175.603507,41.0715016 174.795307,40.5198016 174.143707,39.8160016 C173.153707,38.7225015 172.838707,37.5804015 172.773907,36.4887014 C172.715407,35.2485014 172.862107,34.0119014 173.174407,32.8131013 C174.649507,26.9946011 176.835607,21.2058008 179.884807,15.5043006 C180.300607,14.6772006 180.835207,13.9086006 181.467007,13.2309005 C182.098807,12.5523005 182.831407,11.9637005 183.630607,11.4966005 C185.271307,10.5588004 186.923707,10.1412004 188.320507,10.0422004 C190.413008,9.93420039 192.636008,10.1169004 194.424308,11.6253005 C194.963408,12.0915005 195.411608,12.6603005 195.741008,13.2912005 C196.069508,13.9221006 196.279208,14.6151006 196.352108,15.3216006 C196.427708,16.0281006 196.365608,16.7463007 196.176608,17.4321007 L196.176608,17.4321007 L196.176608,17.4321007 L196.176608,17.4321007 Z" id="Shape" fill="#FFFFFF"></path>
                    <polygon id="Path" fill="#FFFFFF" points="216.511209 51.147902 229.672809 14.2263006 230.872509 51.147902 250.07491 51.147902 268.524011 1.71360007 255.96001 1.71450007 242.93251 37.6623015 241.90561 1.71360007 221.995809 1.71360007 203.897708 51.147902"></polygon>
                    <path d="M289.237511,41.3262016 L288.960311,51.155102 L301.892412,51.155102 L302.773512,1.71090007 L285.381911,1.71090007 L252.91441,51.150602 L266.337011,51.150602 L273.042911,41.3568016 L289.237511,41.3262016 L289.237511,41.3262016 Z M290.499312,13.3875005 L289.833312,31.3722012 L279.617411,31.3983012 L290.499312,13.3875005 L290.499312,13.3875005 Z" id="Shape" fill="#FFFFFF"></path>
                    <polygon id="Path" fill="#FFFFFF" points="344.781014 1.72350007 322.685113 1.72350007 304.219812 51.146102 316.808113 51.146102 330.480013 14.4864006 327.636013 51.155102 340.954214 51.155102 364.411814 15.0039006 350.737214 51.150602 363.716114 51.150602 382.269615 1.72800007 359.922614 1.72800007 340.441214 33.6276013"></polygon>
                    <polygon id="Path" fill="#FFFFFF" points="390.951916 1.72440007 372.432615 51.152402 385.236915 51.152402 403.938016 1.72440007"></polygon>
                    <path d="M423.627317,5.1309002 C423.387917,4.49640018 423.026117,3.90960016 422.565317,3.41100014 C421.090217,1.87920007 419.214617,1.44180006 417.367817,1.88460007 C416.757617,2.03940008 416.174417,2.30670009 415.656017,2.66580011 C415.137616,3.02400012 414.684016,3.47760014 414.326716,3.99510016 C413.596816,5.0454002 413.289916,6.34320025 413.441116,7.5708003 C413.514916,8.19360033 413.703016,8.80200035 413.992816,9.35910037 C414.286216,9.91620039 414.680416,10.4202004 415.149316,10.8396004 C416.761217,12.2166005 418.627817,12.5271005 420.606917,11.8215005 C421.241417,11.5767005 421.828217,11.2059004 422.320517,10.7388004 C423.909017,9.18270036 424.341017,7.14060028 423.627317,5.1309002 M421.882217,10.1511004 C421.461917,10.5651004 420.961517,10.8972004 420.414317,11.1204004 C418.698917,11.7666005 417.096917,11.5155005 415.692917,10.3671004 C415.281617,10.0143004 414.933316,9.58950038 414.675016,9.11520036 C413.811916,7.4736003 413.998216,5.84730023 414.854116,4.49730018 C415.149316,4.04550016 415.527317,3.64770014 415.964717,3.32730013 C416.400317,3.00780012 416.896217,2.76480011 417.418217,2.6163001 C419.015717,2.18790009 420.642017,2.5425001 421.923617,3.80160015 C422.334917,4.22190017 422.663417,4.72230019 422.888417,5.26590021 C423.566117,7.01820028 423.207017,8.79390035 421.882217,10.1511004" id="Shape" stroke="#FFFFFF" stroke-width="0.5"></path>
                    <path d="M420.604217,7.4799003 C420.391817,7.20360029 420.147017,7.12440028 419.904917,7.05870028 C420.210917,6.98760028 420.676217,6.83100027 420.904817,6.27120025 C421.100117,5.74110023 421.142417,5.1435002 420.544817,4.50270018 C419.961617,3.94200016 419.256017,4.01400016 418.593617,3.99870016 L418.593617,3.99870016 L416.373317,4.00050016 L416.380517,9.88290039 L417.619817,9.88830039 L417.619817,7.5285003 L417.619817,7.5285003 C418.182317,7.5915003 418.788917,7.30350029 419.427017,7.88580031 C419.849117,8.50860034 419.562017,9.00450036 419.868017,9.88290039 L419.868017,9.88290039 L421.116317,9.88110039 L421.116317,9.88110039 C420.750017,9.09450036 421.078517,8.31780033 420.604217,7.4799003 L420.604217,7.4799003 L420.604217,7.4799003 L420.604217,7.4799003 Z M419.412617,6.45660026 C418.829417,6.68340027 418.217417,6.53850026 417.619817,6.56640026 L417.619817,6.56640026 L417.619817,5.0031002 L417.619817,5.0031002 C418.230017,5.0427002 418.788917,4.87890019 419.451317,5.1291002 C419.892317,5.41260022 420.004817,6.05610024 419.412617,6.45660026 L419.412617,6.45660026 L419.412617,6.45660026 L419.412617,6.45660026 Z" id="Shape" fill="#FFFFFF"></path>
                </g>
            </g>
            <path d="M113.999074,79.9833795 C114.878295,79.9833795 115.733391,79.7894737 116.564362,79.401662 C117.395333,79.0138504 118.078874,78.4930748 118.614984,77.8393352 L118.614984,77.8393352 L117.08707,76.2770083 C116.690348,76.7534626 116.234654,77.1191136 115.719988,77.3739612 C115.205323,77.6288089 114.653129,77.7562327 114.063408,77.7562327 C113.538019,77.7562327 113.05284,77.6592798 112.607868,77.465374 C112.162897,77.2714681 111.776897,77.0083102 111.44987,76.6759003 C111.122843,76.3434903 110.86551,75.9473684 110.677871,75.4875346 C110.490232,75.0277008 110.396413,74.531856 110.396413,74 C110.396413,73.4570637 110.487552,72.9556787 110.669829,72.4958449 C110.852107,72.0360111 111.104079,71.6371191 111.425745,71.299169 C111.747411,70.9612188 112.13073,70.6952909 112.575701,70.501385 C113.020673,70.3074792 113.495131,70.2105263 113.999074,70.2105263 C114.599518,70.2105263 115.167795,70.3462604 115.703905,70.6177285 C116.240015,70.8891967 116.706431,71.2797784 117.103153,71.7894737 L117.103153,71.7894737 L118.679317,70.1772853 C118.153929,69.5124654 117.467708,68.9833795 116.620654,68.5900277 C115.773599,68.1966759 114.89974,68 113.999074,68 C113.162742,68 112.377341,68.1551247 111.64287,68.465374 C110.908398,68.7756233 110.273108,69.1966759 109.736997,69.7285319 C109.200887,70.2603878 108.77736,70.8947368 108.466416,71.6315789 C108.155472,72.3684211 108,73.1578947 108,74 C108,74.8421053 108.152791,75.6288089 108.458374,76.3601108 C108.763957,77.0914127 109.184804,77.7229917 109.720914,78.2548476 C110.257024,78.7867036 110.892315,79.2077562 111.626786,79.5180055 C112.361257,79.8282548 113.15202,79.9833795 113.999074,79.9833795 Z M144.476945,80 C145.313277,80 146.095998,79.8448753 146.825108,79.534626 C147.554218,79.2243767 148.184148,78.800554 148.714897,78.2631579 C149.245647,77.7257618 149.666493,77.0886427 149.977437,76.3518006 C150.288381,75.6149584 150.443853,74.8310249 150.443853,74 C150.443853,73.1689751 150.288381,72.3850416 149.977437,71.6481994 C149.666493,70.9113573 149.245647,70.2742382 148.714897,69.7368421 C148.184148,69.199446 147.554218,68.7756233 146.825108,68.465374 C146.095998,68.1551247 145.313277,68 144.476945,68 C143.651335,68 142.873976,68.1551247 142.144865,68.465374 C141.415755,68.7756233 140.785826,69.199446 140.255077,69.7368421 C139.724327,70.2742382 139.303481,70.9113573 138.992537,71.6481994 C138.681593,72.3850416 138.526121,73.1689751 138.526121,74 C138.526121,74.8310249 138.681593,75.6149584 138.992537,76.3518006 C139.303481,77.0886427 139.724327,77.7257618 140.255077,78.2631579 C140.785826,78.800554 141.415755,79.2243767 142.144865,79.534626 C142.873976,79.8448753 143.651335,80 144.476945,80 Z M144.476945,77.7894737 C143.973002,77.7894737 143.503905,77.6925208 143.069656,77.498615 C142.635406,77.3047091 142.260129,77.0387812 141.943824,76.700831 C141.627519,76.3628809 141.378228,75.9612188 141.19595,75.4958449 C141.013673,75.0304709 140.922534,74.531856 140.922534,74 C140.922534,73.4570637 141.013673,72.9556787 141.19595,72.4958449 C141.378228,72.0360111 141.627519,71.6371191 141.943824,71.299169 C142.260129,70.9612188 142.635406,70.6952909 143.069656,70.501385 C143.503905,70.3074792 143.973002,70.2105263 144.476945,70.2105263 C144.980889,70.2105263 145.452666,70.3074792 145.892277,70.501385 C146.331887,70.6952909 146.709845,70.9612188 147.02615,71.299169 C147.342455,71.6371191 147.591746,72.0360111 147.774024,72.4958449 C147.956301,72.9556787 148.04744,73.4570637 148.04744,74 C148.04744,74.531856 147.956301,75.0304709 147.774024,75.4958449 C147.591746,75.9612188 147.342455,76.3628809 147.02615,76.700831 C146.709845,77.0387812 146.331887,77.3047091 145.892277,77.498615 C145.452666,77.6925208 144.980889,77.7894737 144.476945,77.7894737 Z M179.828059,79.8171745 L179.828059,77.6897507 L173.668152,77.6897507 L173.668152,68.1828255 L171.336072,68.1828255 L171.336072,79.8171745 L179.828059,79.8171745 Z M209.228348,79.8171745 L209.228348,77.6897507 L203.068441,77.6897507 L203.068441,68.1828255 L200.736361,68.1828255 L200.736361,79.8171745 L209.228348,79.8171745 Z M238.853804,79.8171745 L238.853804,77.7229917 L232.46873,77.7229917 L232.46873,74.9639889 L236.634307,74.9639889 L236.634307,72.9362881 L232.46873,72.9362881 L232.46873,70.2770083 L238.789471,70.2770083 L238.789471,68.1828255 L230.13665,68.1828255 L230.13665,79.8171745 L238.853804,79.8171745 Z M264.715765,79.9833795 C265.594986,79.9833795 266.450082,79.7894737 267.281053,79.401662 C268.112024,79.0138504 268.795565,78.4930748 269.331675,77.8393352 L269.331675,77.8393352 L267.80376,76.2770083 C267.407039,76.7534626 266.951345,77.1191136 266.436679,77.3739612 C265.922013,77.6288089 265.36982,77.7562327 264.780098,77.7562327 C264.25471,77.7562327 263.76953,77.6592798 263.324559,77.465374 C262.879587,77.2714681 262.493588,77.0083102 262.166561,76.6759003 C261.839533,76.3434903 261.5822,75.9473684 261.394562,75.4875346 C261.206923,75.0277008 261.113104,74.531856 261.113104,74 C261.113104,73.4570637 261.204243,72.9556787 261.38652,72.4958449 C261.568798,72.0360111 261.820769,71.6371191 262.142436,71.299169 C262.464102,70.9612188 262.847421,70.6952909 263.292392,70.501385 C263.737364,70.3074792 264.211821,70.2105263 264.715765,70.2105263 C265.316209,70.2105263 265.884486,70.3462604 266.420596,70.6177285 C266.956706,70.8891967 267.423122,71.2797784 267.819844,71.7894737 L267.819844,71.7894737 L269.396008,70.1772853 C268.87062,69.5124654 268.184399,68.9833795 267.337345,68.5900277 C266.49029,68.1966759 265.61643,68 264.715765,68 C263.879433,68 263.094031,68.1551247 262.35956,68.465374 C261.625089,68.7756233 260.989798,69.1966759 260.453688,69.7285319 C259.917578,70.2603878 259.494051,70.8947368 259.183107,71.6315789 C258.872163,72.3684211 258.716691,73.1578947 258.716691,74 C258.716691,74.8421053 258.869482,75.6288089 259.175065,76.3601108 C259.480648,77.0914127 259.901495,77.7229917 260.437605,78.2548476 C260.973715,78.7867036 261.609006,79.2077562 262.343477,79.5180055 C263.077948,79.8282548 263.868711,79.9833795 264.715765,79.9833795 Z M295.563552,79.8171745 L295.563552,70.3102493 L299.34313,70.3102493 L299.34313,68.1828255 L289.435811,68.1828255 L289.435811,70.3102493 L293.231472,70.3102493 L293.231472,79.8171745 L295.563552,79.8171745 Z M322.277929,79.8171745 L322.277929,68.1828255 L319.945849,68.1828255 L319.945849,79.8171745 L322.277929,79.8171745 Z M349.137055,80 C349.973387,80 350.756108,79.8448753 351.485218,79.534626 C352.214328,79.2243767 352.844258,78.800554 353.375007,78.2631579 C353.905756,77.7257618 354.326603,77.0886427 354.637547,76.3518006 C354.948491,75.6149584 355.103963,74.8310249 355.103963,74 C355.103963,73.1689751 354.948491,72.3850416 354.637547,71.6481994 C354.326603,70.9113573 353.905756,70.2742382 353.375007,69.7368421 C352.844258,69.199446 352.214328,68.7756233 351.485218,68.465374 C350.756108,68.1551247 349.973387,68 349.137055,68 C348.311445,68 347.534085,68.1551247 346.804975,68.465374 C346.075865,68.7756233 345.445936,69.199446 344.915187,69.7368421 C344.384437,70.2742382 343.963591,70.9113573 343.652647,71.6481994 C343.341703,72.3850416 343.186231,73.1689751 343.186231,74 C343.186231,74.8310249 343.341703,75.6149584 343.652647,76.3518006 C343.963591,77.0886427 344.384437,77.7257618 344.915187,78.2631579 C345.445936,78.800554 346.075865,79.2243767 346.804975,79.534626 C347.534085,79.8448753 348.311445,80 349.137055,80 Z M349.137055,77.7894737 C348.633112,77.7894737 348.164015,77.6925208 347.729766,77.498615 C347.295516,77.3047091 346.920239,77.0387812 346.603934,76.700831 C346.287629,76.3628809 346.038338,75.9612188 345.85606,75.4958449 C345.673783,75.0304709 345.582644,74.531856 345.582644,74 C345.582644,73.4570637 345.673783,72.9556787 345.85606,72.4958449 C346.038338,72.0360111 346.287629,71.6371191 346.603934,71.299169 C346.920239,70.9612188 347.295516,70.6952909 347.729766,70.501385 C348.164015,70.3074792 348.633112,70.2105263 349.137055,70.2105263 C349.640999,70.2105263 350.112776,70.3074792 350.552386,70.501385 C350.991997,70.6952909 351.369955,70.9612188 351.68626,71.299169 C352.002565,71.6371191 352.251856,72.0360111 352.434134,72.4958449 C352.616411,72.9556787 352.70755,73.4570637 352.70755,74 C352.70755,74.531856 352.616411,75.0304709 352.434134,75.4958449 C352.251856,75.9612188 352.002565,76.3628809 351.68626,76.700831 C351.369955,77.0387812 350.991997,77.3047091 350.552386,77.498615 C350.112776,77.6925208 349.640999,77.7894737 349.137055,77.7894737 Z M378.199595,79.8171745 L378.199595,72.0387812 L383.941336,79.8171745 L386,79.8171745 L386,68.1828255 L383.81267,68.1828255 L383.81267,75.7119114 L378.215678,68.1828255 L375.996182,68.1828255 L375.996182,79.8171745 L378.199595,79.8171745 Z" id="COLLECTION" fill="#FFFFFF" fill-rule="nonzero"></path>
        </g>
    </g>
</svg>