<svg width="462" height="196" viewBox="0 0 462 196" fill="none" xmlns="http://www.w3.org/2000/svg">
<path d="M32.0227 60.3162C12.8266 60.3097 0 46.706 0 30.2118C0 13.7176 12.8559 -0.0421703 31.9934 9.71414e-05H212.841C231.978 -0.042175 244.834 13.7176 244.834 30.2118C244.834 46.706 232.008 60.3097 212.812 60.3162H32.0227Z" fill="#E60012"/>
<path d="M32.0812 7.41968C16.8843 7.44894 7.55615 17.6062 7.55615 30.1727C7.55615 42.736 16.8258 52.9778 32.0812 52.9225H212.753C228.008 52.9746 237.281 42.736 237.281 30.1727C237.281 17.6095 227.953 7.45219 212.756 7.42292L32.0812 7.41968Z" fill="white"/>
<path fill-rule="evenodd" clip-rule="evenodd" d="M217.994 20.5031C217.994 18.0906 219.951 16.1333 222.364 16.1333C224.776 16.1333 226.734 18.0906 226.734 20.5031C226.734 22.9156 224.776 24.873 222.364 24.873C219.951 24.873 217.994 22.9156 217.994 20.5031ZM222.364 24.0406C224.315 24.0406 225.898 22.4572 225.898 20.5063C225.898 18.5523 224.315 16.9721 222.364 16.9721C220.413 16.9721 218.83 18.5555 218.83 20.5063C218.83 22.4572 220.413 24.0406 222.364 24.0406Z" fill="#E60012"/>
<path fill-rule="evenodd" clip-rule="evenodd" d="M224.539 19.4205C224.539 18.4938 223.853 18.0256 222.472 18.0256H220.573V22.8669H221.753V20.8836H222.328L223.255 22.8669H224.565L223.483 20.7048C224.143 20.5389 224.539 20.0577 224.539 19.4205ZM222.328 20.1748H221.753V18.767H222.27C222.979 18.767 223.327 18.9848 223.327 19.4888C223.327 19.97 223.002 20.1748 222.328 20.1748Z" fill="#E60012"/>
<path fill-rule="evenodd" clip-rule="evenodd" d="M130.09 38.8441C130.09 37.7841 130.084 37.6996 130.084 37.6996L138.589 37.693C137.104 42.1506 132.236 45.4377 126.475 45.4377C119.53 45.4377 113.902 40.694 113.902 34.8383C113.902 28.9826 119.53 24.2356 126.475 24.2356C133.42 24.2356 139.074 29.0866 139.074 34.9423C139.074 34.9522 122.989 34.9457 122.989 34.9457C122.989 34.9457 122.983 37.8101 122.983 38.8441C122.983 42.297 125.295 43.0643 126.556 43.0643C127.818 43.0643 130.09 42.297 130.09 38.8441ZM123.555 28.3031C123.012 29.246 122.976 30.3515 122.989 32.0064L130.113 32.0097C130.126 30.3547 130.103 29.2493 129.56 28.3031C128.894 27.1397 127.669 26.587 126.558 26.5799C126.558 26.5799 126.559 26.5799 126.559 26.5799H126.556C126.557 26.5799 126.557 26.5799 126.558 26.5799C125.446 26.587 124.221 27.1397 123.555 28.3031Z" fill="#E60012"/>
<path d="M156.95 24.5512C160.143 24.4601 166.619 26.5508 166.574 34.0256C166.567 35.3522 166.57 44.3 166.57 44.3H158.088C158.088 44.3 158.088 33.0795 158.088 31.8992C158.088 30.2541 156.514 28.4235 154.186 28.4235C151.861 28.4235 150.132 30.2541 150.132 31.8992C150.132 32.7056 150.141 44.3 150.141 44.3H141.665L141.672 25.4193L150.145 25.4128C150.145 25.4128 150.135 26.9312 150.145 27.3994C151.777 25.8419 154.131 24.6324 156.95 24.5512L156.95 24.5512Z" fill="#E60012"/>
<path d="M87.5591 24.5512C90.7519 24.4601 97.2287 26.5508 97.1831 34.0256C97.1766 35.3522 97.1798 44.3 97.1798 44.3H88.697C88.697 44.3 88.697 33.0795 88.697 31.8992C88.697 30.2541 87.1233 28.4235 84.7953 28.4235C82.4706 28.4235 80.7409 30.2541 80.7409 31.8992C80.7409 32.7056 80.7507 44.3 80.7507 44.3H72.2743L72.271 25.4193L80.7538 25.4128C80.7538 25.4128 80.7441 26.9312 80.7538 27.3994C82.386 25.8419 84.7367 24.6324 87.5589 24.5512L87.5591 24.5512Z" fill="#E60012"/>
<path fill-rule="evenodd" clip-rule="evenodd" d="M193.404 15.9121H184.977H184.977C184.977 15.9121 184.977 21.9889 184.983 26.3587C183.618 25.5914 182.177 24.8534 180.152 24.6745C173.997 24.1348 169.295 29.5776 169.295 34.5619C169.295 41.1329 174.364 43.565 175.135 43.9226C178.006 45.2622 181.693 45.2654 184.96 43.2138C184.96 43.3894 184.964 44.3063 184.964 44.3063H193.404V15.9121ZM185.039 31.3951V34.77H185.039C185.039 34.77 185.042 36.9062 185.042 38.1189C185.042 41.0354 183.023 41.7995 181.693 41.7995C180.337 41.7995 178.347 41.0354 178.347 38.1189C178.347 37.1143 178.351 34.7603 178.351 34.7603C178.351 34.7603 178.347 32.364 178.347 31.3951C178.347 28.4754 180.337 27.7308 181.696 27.7308C183.023 27.7308 185.039 28.4754 185.039 31.3951Z" fill="#E60012"/>
<path fill-rule="evenodd" clip-rule="evenodd" d="M196.184 34.7377C196.184 28.882 201.77 24.135 208.663 24.135C215.556 24.135 221.142 28.882 221.142 34.7377C221.142 40.5934 215.556 45.3404 208.663 45.3404C201.773 45.3404 196.184 40.5934 196.184 34.7377ZM212.09 38.7142C212.09 37.5697 212.093 34.715 212.093 34.715L212.096 34.7247C212.088 34.1088 212.089 32.5947 212.09 31.4349C212.09 31.1681 212.09 30.9201 212.09 30.706C212.09 27.7083 210.305 26.476 208.601 26.476C206.901 26.476 205.112 27.7083 205.112 30.706C205.112 31.8505 205.106 34.6434 205.106 34.6434C205.106 34.6434 205.102 37.5697 205.102 38.7142C205.102 41.7249 206.887 42.9669 208.601 42.9669C210.311 42.9669 212.09 41.7249 212.09 38.7142Z" fill="#E60012"/>
<path d="M59.0122 21.7094V15.9058H67.5698V21.7094H59.0122Z" fill="#E60012"/>
<path d="M59.0317 44.3063V25.4224L67.5698 25.4257V44.3064L59.0317 44.3063Z" fill="#E60012"/>
<path d="M101.869 44.3066L101.872 25.4617H97.229V22.659L101.875 22.6556L101.869 18.832H110.413V22.6524H115.037V25.4616H110.413L110.42 44.3065L101.869 44.3066Z" fill="#E60012"/>
<path d="M24.2842 44.3063L24.2874 15.9121H33.1344L45.3725 35.7129L45.366 15.9121H54.1447V44.3063H45.379L33.0759 24.5055V44.3063H24.2842Z" fill="#E60012"/>
<path d="M0 79.0127L24.225 195.164L48.3245 79.0127H35.2809L24.225 144.294L13.0444 79.0127H0Z" fill="#FE0016"/>
<path d="M53.666 79.0132H66.7095V195.165H53.666V79.0132Z" fill="#FE0016"/>
<path d="M78.3794 79V195.169H91.4278V135.147L109.573 195.168H121.603L107.086 140.244C115.151 135.406 117.525 129.072 117.525 129.072V92.1698C112.181 80.3063 102.967 79 102.967 79H78.3794ZM91.4278 90.8244H104.476V131.192H91.4278V90.8244V90.8244Z" fill="#FE0016"/>
<path d="M121.618 79.0132H160.626V90.814H147.581V195.164H134.538V90.8148H121.618V79.0132Z" fill="#FE0016"/>
<path d="M232.797 79L207.596 195.046V195.168H220.522L223.254 179.511H241.481L244.09 195.168H257.138L232.797 79ZM232.797 129.071L238.75 169.071H225.864L232.797 129.071Z" fill="#FE0016"/>
<path d="M262.366 79.0132H275.411V183.362H294.916V195.164H262.368L262.366 79.0132Z" fill="#FE0016"/>
<path d="M401.874 79.0132H413.799L425.973 129.078L437.029 79.0132H450.195L431.935 147.337V195.164H418.891V147.338L401.874 79.0132Z" fill="#FE0016"/>
<path d="M378.465 79.0129C363.64 79.0129 358.874 92.1705 358.874 92.1705C358.996 92.3571 358.874 179.514 358.874 181.999C360.84 196.118 378.465 195.164 378.465 195.164C398.023 195.164 398.017 181.999 398.017 181.999V92.1697C392.96 78.3618 378.465 79.0129 378.465 79.0129ZM371.921 92.1697H384.97V183.343H371.921V92.1697Z" fill="#FE0016"/>
<path d="M165.718 79.0132H178.887V181.997H192.055V79.0132H204.974V181.997C204.974 181.997 200.75 195.165 185.968 195.165C171.185 195.165 165.718 181.997 165.718 181.997V79.0132Z" fill="#FE0016"/>
<path d="M309.332 79V195.169H335.55C347.719 192 348.475 183.343 348.475 183.343C348.475 183.343 348.455 152.315 348.455 144.294C347.542 139.231 343.379 139.061 343.379 139.061C343.379 139.061 343.362 137.649 343.379 136.533C347.979 136.181 348.476 131.191 348.476 131.191C348.476 131.191 348.457 100.193 348.476 92.169C346.485 82.694 335.55 79 335.55 79H309.332ZM322.42 92.2505H335.549V131.191H322.42V92.2505ZM322.38 142.977H335.549V183.343H322.38V142.977Z" fill="#FE0016"/>
<path d="M439.826 183.363H448.892V184.712H445.042V195.164H443.736V184.712H439.824V183.363H439.826Z" fill="#FE0016"/>
<path d="M450.198 195.164V183.363H451.503L456.162 193.891L460.633 183.363H462V195.164H460.633V186.03L456.778 195.164H455.46L451.505 186.03V195.164H450.198Z" fill="#FE0016"/>
</svg>
