<svg width="379" height="96" viewBox="0 0 379 96" xmlns="http://www.w3.org/2000/svg">
  <defs>
    <linearGradient id="mainlogo__b" x1="78.7589" y1="80.3666" x2="22.6875" y2="81.0809" gradientUnits="userSpaceOnUse" class="mainlogo__paint0_linear_3287">
      <stop stop-color="#1A00CA"/>
      <stop offset="1" stop-color="#1A00CA" stop-opacity="0"/>
    </linearGradient>
    <linearGradient id="mainlogo__c" x1="58.4018" y1="5.18808" x2="92.5089" y2="57.8666" gradientUnits="userSpaceOnUse" class="mainlogo__paint1_linear_3287">
      <stop stop-color="#DC0000"/>
      <stop offset="1" stop-color="#DC0000" stop-opacity="0"/>
    </linearGradient>
    <linearGradient id="mainlogo__d" x1="4.47322" y1="55.7239" x2="43.7589" y2="5.36678" gradientUnits="userSpaceOnUse" class="mainlogo__paint2_linear_3287">
      <stop stop-color="#23AB00"/>
      <stop offset="1" stop-color="#23AB00" stop-opacity="0"/>
    </linearGradient>
    <radialGradient id="mainlogo__e" cx="0" cy="0" r="1" gradientUnits="userSpaceOnUse" gradientTransform="matrix(67.30278 -.3319 .28522 57.8358 35.005 35.188)" class="mainlogo__paint3_radial_3287">
      <stop stop-color="white"/>
      <stop offset="0.15079" stop-color="white"/>
      <stop offset="0.53729" stop-color="#6E60D1"/>
      <stop offset="0.793203" stop-color="#2A2070"/>
      <stop offset="1" stop-color="white"/>
    </radialGradient>
    <radialGradient id="mainlogo__f" cx="0" cy="0" r="1" gradientUnits="userSpaceOnUse" gradientTransform="matrix(6.69226 0 0 6.56599 36.828 34.55)" class="mainlogo__paint4_radial_3287">
      <stop stop-color="white"/>
      <stop offset="0.732807" stop-color="white"/>
      <stop offset="1" stop-color="white" stop-opacity="0"/>
    </radialGradient>
    <clipPath id="mainlogo__a" class="mainlogo__clip0_3287">
      <rect width="379" height="96" fill="white"/>
    </clipPath>
  </defs>
  <g clip-path="url(#mainlogo__a)" class="mainlogo__mainlogo">
    <path d="m89.719 72.188-41.285-24-42.246 23c8.256 14.59 23.961 24.468 42.03 24.468 17.657 0 33.101-9.425 41.5-23.469Z" fill="url(#mainlogo__b)" class="mainlogo__path3009-4"/>
    <path d="M48.438 0v48.191l41.28 23.996a47.227 47.227 0 0 0 6.72-24.343c0-26.34-21.473-47.727-48-47.844Z" fill="url(#mainlogo__c)" class="mainlogo__path3009-4-7"/>
    <path d="M48.219 0C21.59 0 0 21.432 0 47.844c0 8.49 2.277 16.433 6.188 23.344l42.246-23L48.438 0h-.22Z" fill="url(#mainlogo__d)" class="mainlogo__path3009-4-70"/>
    <path d="M87.509 47.688a39.196 39.196 0 0 1-11.56 27.78 39.555 39.555 0 0 1-27.905 11.506A39.555 39.555 0 0 1 20.14 75.467 39.196 39.196 0 0 1 8.58 47.688a39.196 39.196 0 0 1 11.559-27.78A39.555 39.555 0 0 1 48.044 8.403 39.555 39.555 0 0 1 75.95 19.91a39.196 39.196 0 0 1 11.559 27.779Z" fill="black" class="mainlogo__path3009"/>
    <path d="M48.219 12.5C28.494 12.5 12.5 28.259 12.5 47.688c0 19.428 15.994 35.187 35.719 35.187 19.448 0 35.28-15.322 35.718-34.375-6.012-.016-12.376-.063-18.687-.063H52.375v8.97h12.156a19.46 19.46 0 0 1-16.625 9.312c-10.725 0-19.406-8.58-19.406-19.156 0-10.578 8.681-19.157 19.406-19.157 7.907 0 14.716 4.656 17.75 11.344H83C79.342 24.15 65.168 12.5 48.219 12.5Z" fill="url(#mainlogo__e)" stroke="black" stroke-width="1.01769" class="mainlogo__path3797"/>
    <path d="M43.52 34.55a6.504 6.504 0 0 1-1.96 4.643 6.758 6.758 0 0 1-4.732 1.923 6.758 6.758 0 0 1-4.732-1.923 6.504 6.504 0 0 1-1.96-4.643c0-1.741.705-3.411 1.96-4.642a6.758 6.758 0 0 1 4.732-1.924c1.775 0 3.477.692 4.732 1.923a6.504 6.504 0 0 1 1.96 4.643Z" fill="url(#mainlogo__f)" class="mainlogo__path4004"/>
    <path d="M240.104 25.886c3.715.11 7.039 2.435 9.144 5.323l1.107 1.52 2.45-6.756h53.065l.339.005c2.991.077 5.408 1.228 7.037 3.2l1.115 1.351 1.682-4.646h49.809l.462.007c4.571.128 8.116 2.223 10.21 5.54 2.067 3.273 2.501 7.37 1.731 11.175-.851 4.2-3.242 8.377-7.054 11.306l-2.334 1.793h3.7l-4.423 15.393h-67.168l1.652-4.853-2.648 2.076c-.224.176-.441.342-.657.496-1.667 1.193-3.708 2.227-5.849 2.357l-.475.013h-56.124l6.566-16.417-2.37 1.209c-1.624.828-3.402 1.367-5.287 1.448l-.511.01h-34.069l-4.762 13.66h-24.587l2.029-5.717-2.814 2.361a18.709 18.709 0 0 1-4.996 3.024l-.532.208-.577.216h-45.971l-.565-.2c-3.039-1.078-5.296-2.843-6.532-5.339l-.116-.244c-1.082-2.354-1.052-4.849-.672-7.031l.08-.432c.398-2.005 1.125-4.021 1.858-5.837l.313-.766c.888-2.141 1.666-3.841 2.218-5.426l.004-.013.744-2.08h-.001c1.708-4.703 3.224-8.25 5.244-10.927l.238-.31.001.001c2.454-3.11 5.598-5.135 9.534-6.309a17.783 17.783 0 0 1 3.54-.359l50.587-.045 2.445.012h52.093l.097.003Zm-53.198 1.5-52.716-.03c-.789 0-1.575.11-2.334.328-3.929 1.436-6.656 3.022-8.87 5.829l-.063.08-.165.215c-1.867 2.478-3.317 5.827-5.021 10.516l.001.001-.729 2.038-.005.018-.009.025c-.571 1.639-1.392 3.439-2.249 5.507-.827 1.994-1.662 4.184-2.085 6.321-.422 2.131-.484 4.44.483 6.544.998 2.169 2.927 3.782 5.786 4.795l.323.115h45.439l.312-.118.524-.204a17.214 17.214 0 0 0 4.578-2.775l7.033-5.902-3.16 8.908h21.398l4.761-13.66h35.104l.484-.011c1.634-.071 3.2-.538 4.663-1.284l5.928-3.024-7.227 18.068h53.9l.403-.011c1.736-.108 3.5-.964 5.057-2.078.191-.137.389-.288.604-.457l6.62-5.19-2.603 7.647h63.944l3.561-12.393h-6.124l5.835-4.482.325-.256a17.682 17.682 0 0 0 6.173-10.16c.69-3.407.312-6.97-1.363-9.804l-.166-.272c-1.811-2.867-4.878-4.72-8.964-4.841l-.462-.006h-48.736l-2.216 6.128-2.788-3.377c-1.32-1.599-3.305-2.586-5.903-2.657l-.339-.004h-51.991l-3.054 8.418-2.767-3.798c-1.862-2.556-4.678-4.491-7.685-4.694l-.292-.014-.065-.002h-51.02l-2.068.004Z" fill="white" class="mainlogo__Subtract mainlogo__(Stroke)"/>
    <path d="M181.205 38.53h-43.303c-1.446 1.358-7.916 18.838-7.053 20.09h28.125l2.856-7.055h-9.285c-.014-1.883.968-3.621 2.143-5.267h24.196c-3.17 9.13-6.277 18.334-14.554 21.429h-44.731c-9.933-3.52-3.099-13.778-.715-20.625 3.639-10.3 5.49-13.86 11.199-16.497 1.596-.736 3.361-1.003 5.119-1.003h49.753l-3.75 8.928Zm124.68-9.018c10.116 0 5.865 16.188.973 17.87-.001 10.403-8.858 20.344-13.831 20.344h-50.981l3.571-8.928h42.322c3.687 0 5.187-7.143 2.053-7.144h-37.946l3.393-7.757h37.782c2.405 0 3.28-5.278 1.414-5.278h-42.679l3.304-9.107h50.625Zm-65.884-.09c4.858.143 10.108 6.645 8 12.92-1.988 5.917-7.251 11.634-12.706 11.634h-27.678l2.5-8.393h17.768c4.491 0 5.616-7.143 2.142-7.143h-25.892l-10.179 29.196h-17.142l13.571-38.214h49.616Zm125.866 0c14.634 0 11.633 25.054-7.143 25.054h-31.723c-3.687 0-4.25 4.767-1.67 4.767h42.59l-2.411 8.393h-59.643c2.965-8.7 5.134-24.107 18.384-24.107h32.955c3.794 0 4.295-4.82 1.92-4.821l-43.839-.395 3.214-8.891h47.366Z" fill="white" class="mainlogo__Union"/>
  </g>
</svg>
