<svg width="361" height="79" viewBox="0 0 361 79" xmlns="http://www.w3.org/2000/svg">
  <g class="syslogo__syslogo">
    <path d="M221.759 16.284c3.714.11 7.039 2.435 9.143 5.323l1.108 1.52 2.45-6.756h53.064l.339.005c2.991.078 5.408 1.228 7.037 3.201l1.115 1.35 1.682-4.646h49.81l.462.007c4.57.129 8.115 2.224 10.209 5.54 2.067 3.274 2.501 7.37 1.731 11.175-.85 4.2-3.242 8.378-7.054 11.307l-2.334 1.792h3.7l-4.422 15.393h-67.168l1.651-4.852-2.647 2.076c-.225.175-.442.341-.658.496-1.666 1.192-3.708 2.227-5.848 2.356l-.476.014h-56.124l6.566-16.418-2.37 1.209c-1.624.828-3.402 1.368-5.287 1.448l-.51.011h-34.07l-4.762 13.66H153.51l2.028-5.718-2.814 2.362a18.709 18.709 0 0 1-4.996 3.023l-.532.208-.577.216h-45.971l-.564-.2c-3.04-1.077-5.297-2.842-6.532-5.338l-.117-.244c-1.082-2.354-1.052-4.85-.672-7.032l.08-.431c.398-2.006 1.125-4.022 1.858-5.838l.313-.766c.888-2.14 1.666-3.84 2.218-5.425l.004-.013.744-2.08v-.001c1.708-4.702 3.223-8.25 5.243-10.927l.239-.31.001.001c2.453-3.11 5.598-5.134 9.533-6.308a17.79 17.79 0 0 1 3.54-.36l50.587-.044 2.445.011h52.093l.098.003Zm-53.198 1.501-52.717-.03a8.44 8.44 0 0 0-2.333.327c-3.93 1.437-6.657 3.022-8.871 5.83l-.063.08-.165.214c-1.867 2.478-3.317 5.828-5.02 10.517l-.73 2.039-.004.017-.009.026c-.57 1.639-1.391 3.438-2.249 5.507-.827 1.994-1.661 4.184-2.085 6.32-.422 2.132-.484 4.44.484 6.545.997 2.168 2.927 3.782 5.786 4.795l.322.114h45.439l.312-.117.524-.204a17.233 17.233 0 0 0 4.579-2.776l7.033-5.902-3.16 8.908h21.397l4.762-13.66h35.103l.485-.01c1.633-.072 3.199-.54 4.663-1.285l5.927-3.023-7.227 18.068h53.9l.404-.012c1.735-.107 3.499-.964 5.056-2.078.191-.136.389-.288.605-.457l6.619-5.19-2.603 7.647h63.945l3.56-12.392h-6.124l5.835-4.483.325-.256a17.677 17.677 0 0 0 6.173-10.159c.69-3.407.312-6.97-1.363-9.805l-.166-.271c-1.811-2.868-4.877-4.721-8.964-4.842l-.462-.006h-48.735l-2.217 6.128-2.788-3.377c-1.32-1.598-3.304-2.585-5.902-2.657l-.339-.004h-51.992l-3.053 8.418-2.768-3.798c-1.862-2.555-4.677-4.49-7.684-4.693l-.292-.015-.066-.002h-51.019l-2.068.004Z" fill="white" class="syslogo__Subtract syslogo__(Stroke)"/>
    <path d="M162.859 28.929h-43.302c-1.447 1.357-7.917 18.838-7.054 20.089h28.125l2.856-7.054h-9.285c-.014-1.884.968-3.622 2.143-5.268h24.196c-3.17 9.13-6.277 18.334-14.554 21.429h-44.731c-9.932-3.52-3.098-13.777-.715-20.625 3.639-10.3 5.49-13.86 11.2-16.496 1.595-.737 3.36-1.004 5.118-1.004h49.753l-3.75 8.929Zm124.68-9.019c10.116 0 5.866 16.188.973 17.871 0 10.402-8.857 20.343-13.83 20.343H223.7l3.572-8.928h42.321c3.687 0 5.187-7.143 2.054-7.143H233.7l3.393-7.757h37.782c2.405 0 3.28-5.278 1.414-5.278H233.61l3.304-9.108h50.625Zm-65.884-.09c4.858.143 10.109 6.645 8 12.921-1.987 5.917-7.25 11.633-12.706 11.633h-27.677l2.5-8.393h17.767c4.491 0 5.616-7.143 2.143-7.143h-25.893L175.61 58.034h-17.142l13.571-38.214h49.616Zm125.867 0c14.633 0 11.633 25.054-7.144 25.054h-31.723c-3.687 0-4.25 4.767-1.67 4.768h42.59l-2.411 8.392h-59.642c2.965-8.7 5.134-24.106 18.383-24.106h32.955c3.795 0 4.295-4.821 1.92-4.822l-43.838-.394 3.213-8.892h47.367Z" fill="white" class="syslogo__Union"/>
    <path d="M35.34 27.203a7.313 7.313 0 0 1-2.204 5.22 7.599 7.599 0 0 1-5.321 2.163 7.599 7.599 0 0 1-5.321-2.163 7.313 7.313 0 0 1-2.204-5.22c0-1.958.793-3.836 2.204-5.22a7.599 7.599 0 0 1 5.32-2.163c1.997 0 3.91.778 5.322 2.163a7.313 7.313 0 0 1 2.204 5.22Z" fill="white" class="syslogo__path4004"/>
    <path d="M40.198 0a39.558 39.558 0 0 1 27.907 11.507 39.197 39.197 0 0 1 11.558 27.78 39.196 39.196 0 0 1-11.558 27.777 39.558 39.558 0 0 1-27.907 11.507 39.556 39.556 0 0 1-27.905-11.507A39.196 39.196 0 0 1 .734 39.286a39.197 39.197 0 0 1 11.559-27.78A39.556 39.556 0 0 1 40.198 0Zm.175 4.098c-19.724 0-35.719 15.759-35.719 35.187 0 19.429 15.995 35.188 35.719 35.188 19.448 0 35.28-15.323 35.719-34.375-6.013-.016-12.376-.063-18.688-.063H44.53v8.969h12.156a19.46 19.46 0 0 1-16.625 9.312c-10.725 0-19.406-8.579-19.406-19.156 0-2.15.358-4.217 1.02-6.146l.12.124a8.6 8.6 0 0 0 6.02 2.448 8.6 8.6 0 0 0 6.022-2.448 8.314 8.314 0 0 0 2.504-5.935c0-2.23-.903-4.364-2.504-5.934-.066-.065-.134-.127-.202-.189a19.612 19.612 0 0 1 6.426-1.076c7.907 0 14.716 4.655 17.75 11.344h17.344c-3.657-15.6-17.831-27.25-34.781-27.25Zm-7.802 17.384c.196.157.385.324.565.5l.257.266a7.306 7.306 0 0 1 1.947 4.955l-.01.366a7.32 7.32 0 0 1-2.194 4.855l-.27.252a7.607 7.607 0 0 1-5.052 1.91l-.373-.009a7.593 7.593 0 0 1-4.947-2.153c-.15-.147-.29-.3-.426-.456 1.941-4.728 5.74-8.517 10.503-10.486Z" fill="white" class="syslogo__Subtract"/>
  </g>
</svg>
