<svg width="218" height="137" viewBox="0 0 218 137" fill="none" xmlns="http://www.w3.org/2000/svg">
<path fill-rule="evenodd" clip-rule="evenodd" d="M106.264 127.117C125.563 109.433 119.993 71.9453 93.8228 43.3874C67.6529 14.8294 30.7934 6.01497 11.4948 23.6998C-7.80388 41.3847 -2.2336 78.8719 23.9363 107.43C50.1062 135.988 86.9657 144.802 106.264 127.117ZM105.984 124.251C124.059 107.688 118.298 71.9856 93.118 44.5076C67.9376 17.0295 32.8728 8.18104 14.7984 24.744C-3.27599 41.307 2.48451 77.0094 27.6648 104.487C52.8451 131.965 87.91 140.814 105.984 124.251Z" fill="white"/>
<path d="M115.235 45.4141C115.235 46.6527 116.239 47.6568 117.478 47.6568H125.187V95.4551C125.187 96.6937 126.192 97.6978 127.43 97.6978H139.625C140.864 97.6978 141.868 96.6937 141.868 95.4551V47.6568H149.577C150.816 47.6568 151.82 46.6527 151.82 45.4141V36.7235C151.82 35.4849 150.816 34.4808 149.577 34.4808H117.478C116.239 34.4808 115.235 35.4849 115.235 36.7235V45.4141Z" fill="#FF0000"/>
<path d="M155.638 37.1057C155.401 35.7346 156.456 34.4808 157.848 34.4808H170.368C171.532 34.4808 172.502 35.3709 172.602 36.5303L176.322 79.5457H177.779L181.499 36.5303C181.599 35.3709 182.57 34.4808 183.733 34.4808H196.253C197.645 34.4808 198.7 35.7346 198.463 37.1057L188.306 95.8373C188.12 96.9125 187.187 97.6978 186.096 97.6978H168.005C166.914 97.6978 165.981 96.9125 165.795 95.8373L155.638 37.1057Z" fill="#FF0000"/>
<path fill-rule="evenodd" clip-rule="evenodd" d="M73.1138 36.7235C73.1138 35.4849 74.1179 34.4808 75.3565 34.4808H97.083C105.521 34.4808 112.362 41.3213 112.362 49.7594V82.4192C112.362 90.8573 105.521 97.6978 97.083 97.6978H75.3565C74.1179 97.6978 73.1138 96.6937 73.1138 95.4551V36.7235ZM95.8214 49.1987C95.8214 47.9601 94.8173 46.956 93.5787 46.956H89.6539V85.2226H93.5787C94.8173 85.2226 95.8214 84.2185 95.8214 82.9799V49.1987Z" fill="#FF0000"/>
<path d="M38.2815 34.4808C32.2432 34.4808 27.3481 39.3758 27.3481 45.4141V86.7645C27.3481 92.8028 32.2432 97.6978 38.2815 97.6978H55.8028C61.8411 97.6978 66.7361 92.8028 66.7361 86.7645V75.1303C66.7361 73.8917 65.732 72.8876 64.4934 72.8876H52.2985C51.0599 72.8876 50.0558 73.8917 50.0558 75.1303V82.1388C50.0558 83.842 48.6751 85.2226 46.9721 85.2226C45.269 85.2226 43.8883 83.842 43.8883 82.1388V50.0397C43.8883 48.3366 45.269 46.956 46.9721 46.956C48.6751 46.956 50.0558 48.3366 50.0558 50.0397V57.0483C50.0558 58.2869 51.0599 59.291 52.2985 59.291H64.4934C65.732 59.291 66.7361 58.2869 66.7361 57.0483V45.4141C66.7361 39.3758 61.8411 34.4808 55.8028 34.4808H38.2815Z" fill="#FF0000"/>
<path d="M206.858 42.9254V37.4406H204.76V36.4808H210.213V37.4406H207.836V42.9254H206.858Z" fill="#FF0000"/>
<path d="M211.205 42.9254V36.4808H212.85L214.496 41.6913L216.141 36.4808H217.649V42.9254H216.69V37.4406L215.044 42.9254H214.084L212.302 37.4406V42.9254H211.205Z" fill="#FF0000"/>
<path d="M134.394 114.425H135.894V107.931H134.394V114.425Z" fill="white"/>
<path d="M137.101 114.425H138.552L138.523 109.051L143.372 114.425H145.709V107.931H144.277L144.306 113.335L139.428 107.931H137.101V114.425Z" fill="white"/>
<path d="M149.428 114.425H150.928V109.148H153.975V107.931H146.371V109.148H149.428V114.425Z" fill="white"/>
<path d="M154.648 114.425H161.61V113.286H156.128V111.631H161.289V110.608H156.128V109.07H161.552V107.931H154.648V114.425Z" fill="white"/>
<path d="M162.538 114.425H164.027V112.4H167.64C168.633 112.4 168.847 112.585 168.847 113.452V114.425H170.356V113.14C170.356 112.507 170.171 112.147 169.753 111.942C169.558 111.855 169.412 111.826 168.789 111.787C169.577 111.689 169.899 111.582 170.103 111.339C170.347 111.066 170.463 110.638 170.463 110.005C170.463 109.265 170.327 108.758 170.045 108.447C169.694 108.067 169.178 107.931 168.039 107.931H162.538V114.425ZM164.027 111.202V109.148H167.62C168.73 109.148 168.954 109.333 168.954 110.229C168.954 111.008 168.682 111.202 167.591 111.202H164.027Z" fill="white"/>
<path d="M177.997 113.14L178.737 114.425H180.373L176.712 107.931H174.677L170.957 114.425H172.642L173.362 113.14H177.997ZM177.442 112.088H173.937L175.68 108.982L177.442 112.088Z" fill="white"/>
<path d="M187.13 112.088V112.235C187.13 112.906 186.886 113.169 186.185 113.237L184.199 113.276C182.174 113.276 182.018 113.13 182.018 111.241C182.018 109.839 182.096 109.479 182.466 109.284C182.777 109.119 183.216 109.08 184.744 109.08C186.877 109.08 187.071 109.167 187.071 110.112H188.503C188.493 109.304 188.347 108.749 188.074 108.457C187.656 107.999 186.916 107.872 184.666 107.872C182.612 107.872 181.94 107.95 181.385 108.262C180.703 108.642 180.518 109.255 180.518 111.066C180.518 111.981 180.567 112.741 180.655 113.072C180.781 113.568 181.025 113.919 181.395 114.124C181.969 114.435 182.446 114.484 185.036 114.484C187.149 114.484 187.763 114.367 188.211 113.87C188.483 113.578 188.581 113.121 188.581 112.196V112.088H187.13Z" fill="white"/>
<path d="M192.136 114.425H193.636V109.148H196.683V107.931H189.079V109.148H192.136V114.425Z" fill="white"/>
<path d="M197.356 114.425H198.856V107.931H197.356V114.425Z" fill="white"/>
<path d="M199.453 107.931L202.968 114.425H204.906L208.499 107.931H206.834L203.952 113.237L201.109 107.931H199.453Z" fill="white"/>
<path d="M209.103 114.425H216.065V113.286H210.583V111.631H215.744V110.608H210.583V109.07H216.007V107.931H209.103V114.425Z" fill="white"/>
<path d="M134.394 123.425H135.855L135.816 118.08L139.155 123.425H140.334L143.693 118.08L143.634 123.425H145.105V116.931H142.817L139.769 121.819L136.711 116.931H134.394V123.425Z" fill="white"/>
<path d="M153.374 116.931V120.426C153.365 121.332 153.365 121.332 153.345 121.449C153.287 121.858 153.082 122.091 152.703 122.189C152.479 122.247 151.67 122.286 150.794 122.286C148.847 122.286 148.467 122.16 148.36 121.468C148.311 121.196 148.311 121.196 148.311 120.329V116.931H146.812V120.796C146.812 121.994 146.909 122.442 147.24 122.822C147.717 123.357 148.399 123.494 150.648 123.494C152.946 123.494 153.501 123.435 154.056 123.114C154.679 122.763 154.874 122.257 154.874 121.02V116.931H153.374Z" fill="white"/>
<path d="M156.559 123.425H162.801V122.208H158.059V116.931H156.559V123.425Z" fill="white"/>
<path d="M165.2 123.425H166.699V118.148H169.747V116.931H162.142V118.148H165.2V123.425Z" fill="white"/>
<path d="M170.955 123.425H172.455V116.931H170.955V123.425Z" fill="white"/>
<path d="M174.198 123.425H175.659L175.62 118.08L178.959 123.425H180.138L183.497 118.08L183.438 123.425H184.909V116.931H182.621L179.573 121.819L176.515 116.931H174.198V123.425Z" fill="white"/>
<path d="M186.655 123.425H193.617V122.286H188.135V120.631H193.295V119.608H188.135V118.07H193.558V116.931H186.655V123.425Z" fill="white"/>
<path d="M195.079 123.425H200.629C201.72 123.425 202.411 123.25 202.82 122.87C203.317 122.413 203.502 121.702 203.502 120.251C203.502 118.82 203.346 118.089 202.947 117.642C202.509 117.164 201.71 116.931 200.474 116.931H195.079V123.425ZM196.579 122.237V118.158H200.298C201.701 118.158 201.983 118.518 201.983 120.319C201.983 121.322 201.827 121.819 201.447 122.023C201.185 122.169 200.824 122.237 200.298 122.237H196.579Z" fill="white"/>
<path d="M205.092 123.425H206.592V116.931H205.092V123.425Z" fill="white"/>
<path d="M214.754 122.14L215.494 123.425H217.13L213.469 116.931H211.434L207.714 123.425H209.399L210.119 122.14H214.754ZM214.199 121.088H210.694L212.437 117.982L214.199 121.088Z" fill="white"/>
<path d="M82.9979 0.299255C77.5297 0.299255 73.1138 4.73396 73.1138 10.1834C73.1138 15.6516 77.5485 20.0675 82.9979 20.0675C84.0502 20.0675 85.0649 19.8984 86.0045 19.5977V14.6557C85.1777 15.1254 84.2193 15.4073 83.2046 15.4073C80.198 15.4073 77.774 13.0584 77.774 10.1834C77.774 7.30834 80.2168 4.95945 83.2046 4.95945C84.2381 4.95945 85.1964 5.24132 86.0045 5.7111V0.769033C85.0649 0.468375 84.0502 0.299255 82.9979 0.299255V0.299255Z" fill="white"/>
<path d="M90.1573 9.86401H86.0984V6.42523H93.4645L90.1573 9.86401Z" fill="white"/>
<path d="M90.1573 10.5593H86.0984V13.9981H93.4645L90.1573 10.5593Z" fill="white"/>
<path fill-rule="evenodd" clip-rule="evenodd" d="M89.9553 4.01886C89.7439 4.2289 89.4628 4.34545 89.1638 4.34545C88.866 4.34545 88.5861 4.2289 88.3742 4.01886C88.1609 3.8069 88.0457 3.52577 88.0457 3.22735C88.0457 2.61067 88.5496 2.10925 89.1638 2.10925C89.4628 2.10925 89.7439 2.22516 89.9553 2.43585C90.1659 2.64717 90.2825 2.9283 90.2825 3.22735C90.2825 3.52577 90.1659 3.8069 89.9553 4.01886ZM88.5063 2.56957C88.3315 2.74504 88.2335 2.97878 88.2335 3.22724C88.2335 3.47635 88.3315 3.70945 88.5063 3.88555C88.683 4.06037 88.9155 4.15835 89.164 4.15835C89.6782 4.15835 90.0951 3.74018 90.0951 3.22724C90.0951 2.97878 89.9971 2.74504 89.8223 2.56957C89.6468 2.39411 89.4124 2.29613 89.164 2.29613C88.9155 2.29613 88.683 2.39411 88.5063 2.56957Z" fill="white"/>
<path fill-rule="evenodd" clip-rule="evenodd" d="M89.6794 3.69228C89.6865 3.72109 89.6993 3.7403 89.7159 3.74671L89.7159 3.74667L89.7318 3.75436V3.82737H89.4917L89.4827 3.812C89.4775 3.80244 89.4744 3.79145 89.4708 3.7785C89.4695 3.7741 89.4682 3.76948 89.4668 3.76461C89.4629 3.74668 89.4603 3.71594 89.4578 3.66727L89.4482 3.46812C89.4456 3.40088 89.4219 3.35669 89.3778 3.33492C89.3515 3.32339 89.3054 3.31699 89.2439 3.31699H88.9039V3.82737H88.6887V2.58247H89.267C89.3618 2.58247 89.4392 2.59528 89.5033 2.62412C89.6243 2.67856 89.6864 2.7823 89.6864 2.92958C89.6864 3.00643 89.6698 3.06983 89.6384 3.11978C89.6147 3.15692 89.5814 3.18638 89.5443 3.21071C89.5744 3.22864 89.6007 3.24785 89.6179 3.27219C89.6448 3.30805 89.6609 3.36184 89.6634 3.43741L89.6685 3.59814C89.6698 3.6404 89.6743 3.67178 89.6794 3.69228ZM89.4141 3.08642C89.4487 3.0608 89.4666 3.01469 89.4666 2.94489V2.94486C89.4666 2.87186 89.4423 2.82191 89.391 2.7963C89.3616 2.78221 89.3206 2.77519 89.2713 2.77519H88.9037V3.1274H89.2501C89.3193 3.1274 89.3744 3.1127 89.4141 3.08642Z" fill="white"/>
<path d="M115.922 16.8805C117.49 16.8805 118.745 16.4413 119.749 15.6258C120.752 14.7789 121.254 13.6183 121.286 12.0812C121.254 10.5442 120.752 9.35227 119.749 8.50534C118.745 7.65842 117.49 7.25064 115.922 7.25064C114.353 7.25064 113.099 7.68979 112.095 8.50534C111.091 9.3209 110.589 10.5442 110.558 12.0812C110.589 13.6183 111.091 14.8102 112.095 15.6258C113.099 16.4413 114.353 16.8805 115.922 16.8805ZM115.922 14.6534C115.2 14.622 114.667 14.3711 114.322 13.8692C113.977 13.3673 113.82 12.7713 113.851 12.0499C113.851 11.3284 114.008 10.7324 114.322 10.2306C114.636 9.72868 115.169 9.47774 115.922 9.44637C116.643 9.47774 117.176 9.72868 117.521 10.2306C117.867 10.7324 118.023 11.3284 117.992 12.0499C117.992 12.74 117.835 13.3673 117.521 13.8692C117.176 14.3711 116.643 14.622 115.922 14.6534Z" fill="white"/>
<path d="M122.572 16.6609H125.771V12.7713C125.771 11.7989 125.928 11.0461 126.242 10.5756C126.555 10.1051 126.995 9.88552 127.559 9.88552C127.998 9.88552 128.343 10.0737 128.532 10.4188C128.72 10.7638 128.845 11.203 128.845 11.7362V16.6923H132.045V12.8027C132.045 11.8303 132.202 11.0775 132.515 10.607C132.829 10.1365 133.268 9.91689 133.833 9.91689C134.272 9.91689 134.617 10.1051 134.805 10.4501C134.993 10.7952 135.119 11.2343 135.119 11.7676V16.7237H138.318V11.2971C138.35 10.0424 138.13 9.06996 137.691 8.34851C137.252 7.65842 136.374 7.28201 135.056 7.28201C134.397 7.28201 133.77 7.40748 133.205 7.68979C132.641 7.97209 132.17 8.41125 131.794 9.0386C131.543 8.44261 131.166 8.00346 130.665 7.68979C130.163 7.40748 129.567 7.25064 128.908 7.25064C128.187 7.25064 127.496 7.40748 126.932 7.72115C126.336 8.03483 125.897 8.50535 125.552 9.16407H125.52V7.47022H122.603L122.572 16.6609Z" fill="white"/>
<path d="M140.043 16.6609H143.243V12.7713C143.243 11.7989 143.4 11.0461 143.713 10.5756C144.027 10.1051 144.466 9.88552 145.031 9.88552C145.47 9.88552 145.815 10.0737 146.003 10.4188C146.192 10.7638 146.317 11.203 146.317 11.7362V16.6923H149.516V12.8027C149.516 11.8303 149.673 11.0775 149.987 10.607C150.301 10.1365 150.74 9.91689 151.304 9.91689C151.744 9.91689 152.089 10.1051 152.277 10.4501C152.465 10.7952 152.59 11.2343 152.59 11.7676V16.7237H155.79V11.2971C155.821 10.0424 155.602 9.06996 155.163 8.34851C154.723 7.65842 153.845 7.28201 152.528 7.28201C151.869 7.28201 151.242 7.40748 150.677 7.68979C150.112 7.97209 149.642 8.41125 149.266 9.0386C149.015 8.44261 148.638 8.00346 148.136 7.68979C147.634 7.40748 147.038 7.25064 146.38 7.25064C145.658 7.25064 144.968 7.40748 144.404 7.72115C143.808 8.03483 143.368 8.50535 143.023 9.16407H142.992V7.47022H140.075L140.043 16.6609Z" fill="white"/>
<path d="M162.409 16.8805C163.977 16.8805 165.232 16.4413 166.236 15.6258C167.239 14.7789 167.741 13.6183 167.773 12.0812C167.741 10.5442 167.239 9.35227 166.236 8.50534C165.232 7.65842 163.977 7.25064 162.409 7.25064C160.84 7.25064 159.586 7.68979 158.582 8.50534C157.578 9.3209 157.076 10.5442 157.045 12.0812C157.076 13.6183 157.578 14.8102 158.582 15.6258C159.586 16.4413 160.872 16.8805 162.409 16.8805ZM162.409 14.6534C161.687 14.622 161.154 14.3711 160.809 13.8692C160.464 13.3673 160.307 12.7713 160.338 12.0499C160.338 11.3284 160.495 10.7324 160.809 10.2306C161.123 9.72868 161.656 9.47774 162.409 9.44637C163.13 9.47774 163.663 9.72868 164.008 10.2306C164.353 10.7324 164.51 11.3284 164.479 12.0499C164.479 12.74 164.322 13.3673 164.008 13.8692C163.663 14.3711 163.161 14.622 162.409 14.6534Z" fill="white"/>
<path d="M179.002 3.39253H175.803V8.63091H175.771C175.363 8.09766 174.893 7.75262 174.36 7.53305C173.826 7.31347 173.23 7.21937 172.603 7.21937C171.317 7.28211 170.345 7.75262 169.686 8.69365C169.027 9.63468 168.682 10.7012 168.682 11.8618C168.682 13.2733 169.059 14.4339 169.749 15.3749C170.47 16.316 171.505 16.8179 172.885 16.8492C173.638 16.8492 174.297 16.661 174.862 16.316C175.426 15.9709 175.834 15.5318 176.054 14.9985H176.085V16.661H179.033L179.002 3.39253ZM171.913 11.9559C171.913 11.3285 172.07 10.7953 172.415 10.3561C172.76 9.91698 173.23 9.69742 173.858 9.66605C174.454 9.66605 174.924 9.91698 175.269 10.3561C175.614 10.7953 175.803 11.3599 175.803 12.0813C175.803 12.7714 175.583 13.3361 175.238 13.7752C174.893 14.2144 174.422 14.4339 173.858 14.4339C173.262 14.4339 172.791 14.183 172.446 13.7438C172.101 13.3047 171.913 12.7087 171.913 11.9559V11.9559Z" fill="white"/>
<path d="M185.558 16.8805C187.126 16.8805 188.381 16.4413 189.385 15.6258C190.389 14.7789 190.89 13.6183 190.922 12.0812C190.89 10.5442 190.389 9.35227 189.385 8.50534C188.381 7.65842 187.126 7.25064 185.558 7.25064C183.99 7.25064 182.735 7.68979 181.731 8.50534C180.727 9.35227 180.225 10.5442 180.194 12.0812C180.225 13.6183 180.727 14.8102 181.731 15.6258C182.735 16.4413 184.021 16.8805 185.558 16.8805ZM185.558 14.6534C184.836 14.622 184.303 14.3711 183.958 13.8692C183.645 13.3673 183.456 12.7713 183.488 12.0499C183.488 11.3284 183.645 10.7324 183.958 10.2306C184.272 9.72868 184.805 9.47774 185.558 9.44637C186.279 9.47774 186.813 9.72868 187.158 10.2306C187.471 10.7324 187.66 11.3284 187.628 12.0499C187.628 12.74 187.471 13.3673 187.158 13.8692C186.844 14.3711 186.311 14.622 185.558 14.6534Z" fill="white"/>
<path d="M198.983 7.34475C198.826 7.31338 198.638 7.28201 198.45 7.28201C198.262 7.25064 198.074 7.25064 197.885 7.25064C197.195 7.25064 196.631 7.43885 196.223 7.78389C195.784 8.12894 195.439 8.59945 195.156 9.16407H195.125V7.47022H192.208V16.6923H195.407V12.8027C195.407 11.893 195.595 11.1716 196.003 10.6697C196.411 10.1678 196.976 9.91689 197.728 9.91689C197.917 9.91689 198.105 9.91689 198.262 9.91689C198.45 9.91689 198.607 9.94826 198.795 10.011L198.983 7.34475Z" fill="white"/>
<path d="M208.99 12.991V12.395C209.021 10.9835 208.645 9.76015 207.954 8.78775C207.233 7.78399 206.041 7.28211 204.347 7.21938C202.873 7.21938 201.712 7.65852 200.803 8.47408C199.893 9.321 199.422 10.4816 199.422 12.0186C199.454 13.5556 199.956 14.7476 200.96 15.5632C201.963 16.4101 203.218 16.8179 204.786 16.8492C205.382 16.8492 205.978 16.8179 206.543 16.7238C207.108 16.6297 207.672 16.4728 208.174 16.2846V14.0261C207.704 14.2771 207.202 14.4653 206.731 14.5594C206.261 14.6849 205.79 14.7162 205.351 14.7162C204.567 14.7162 203.939 14.5908 203.469 14.3085C202.998 14.0261 202.716 13.587 202.622 12.9596L208.99 12.991ZM202.559 11.1717C202.591 10.6384 202.747 10.1679 203.03 9.82289C203.312 9.44648 203.751 9.25827 204.316 9.25827C204.943 9.25827 205.414 9.44648 205.665 9.82289C205.947 10.1993 206.072 10.6384 206.072 11.1717H202.559Z" fill="white"/>
<path d="M103.751 16.7549C102.371 16.3785 101.304 15.7512 100.426 14.7788C99.5478 13.8064 99.1401 12.9281 98.8891 11.3597C98.4186 8.2857 99.736 5.46261 102.277 4.23928C103.563 3.61192 105.288 3.29825 107.013 3.29825C108.08 3.29825 109.021 3.48646 109.899 3.64329L109.617 6.40365C109.617 6.40365 109.397 6.34091 108.77 6.18407C108.174 6.02723 107.578 5.96449 106.982 5.96449C105.79 5.96449 104.629 6.27818 103.877 6.87416C102.089 8.25433 102.089 11.8616 103.939 13.3672C105.069 14.3083 107.107 14.6219 108.927 14.1514L109.774 13.9319L110.025 16.7236C109.491 16.849 108.362 17.0686 106.982 17.0686C105.163 17.0686 104.598 17.0059 103.751 16.7549V16.7549Z" fill="white"/>
<path fill-rule="evenodd" clip-rule="evenodd" d="M211.42 8.86057C211.23 9.04971 210.977 9.15465 210.707 9.15465C210.439 9.15465 210.187 9.04971 209.996 8.86057C209.804 8.6697 209.701 8.41656 209.701 8.14785C209.701 7.59254 210.154 7.14104 210.707 7.14104C210.977 7.14104 211.23 7.24541 211.42 7.43512C211.61 7.62541 211.715 7.87856 211.715 8.14785C211.715 8.41656 211.61 8.6697 211.42 8.86057ZM210.116 7.55552C209.958 7.71351 209.87 7.92399 209.87 8.14772C209.87 8.37204 209.958 8.58193 210.116 8.74051C210.275 8.89793 210.484 8.98615 210.708 8.98615C211.171 8.98615 211.546 8.60961 211.546 8.14772C211.546 7.92399 211.458 7.71351 211.301 7.55552C211.143 7.39752 210.931 7.30929 210.708 7.30929C210.484 7.30929 210.275 7.39752 210.116 7.55552Z" fill="white"/>
<path fill-rule="evenodd" clip-rule="evenodd" d="M211.172 8.56669C211.178 8.59264 211.19 8.60994 211.205 8.6157L211.219 8.6226V8.68833H211.003L210.995 8.6745C210.99 8.66589 210.987 8.65599 210.984 8.64433C210.983 8.64037 210.982 8.63621 210.98 8.63183C210.977 8.61568 210.975 8.588 210.972 8.54418L210.964 8.36484C210.961 8.3043 210.94 8.26451 210.9 8.2449C210.877 8.23452 210.835 8.22876 210.78 8.22876H210.474V8.68834H210.28V7.56735H210.801C210.886 7.56735 210.956 7.57889 211.013 7.60486C211.122 7.65387 211.178 7.74729 211.178 7.87991C211.178 7.94911 211.163 8.0062 211.135 8.05117C211.114 8.08462 211.084 8.11114 211.05 8.13306C211.077 8.1492 211.101 8.1665 211.117 8.18841C211.141 8.22071 211.155 8.26914 211.158 8.33719L211.162 8.48192C211.163 8.51998 211.167 8.54824 211.172 8.56669ZM210.933 8.0213C210.965 7.99823 210.981 7.9567 210.981 7.89383V7.89381C210.981 7.82805 210.959 7.78306 210.913 7.75999C210.886 7.7473 210.849 7.74098 210.805 7.74098H210.474V8.05822H210.786C210.848 8.05822 210.898 8.04497 210.933 8.0213Z" fill="white"/>
</svg>
