<svg width="120" height="81" viewBox="0 0 120 81" fill="none" xmlns="http://www.w3.org/2000/svg">
<path d="M12.377 6.16113L12.377 7.03192L31.498 7.03192V6.16113L12.377 6.16113Z" fill="white"/>
<path d="M12.377 7.49463L12.377 8.36542L31.498 8.36542V7.49463L12.377 7.49463Z" fill="white"/>
<path d="M12.377 8.82764L12.377 9.69842L31.498 9.69842V8.82764L12.377 8.82764Z" fill="white"/>
<path d="M12.377 10.1606L12.377 11.0314L31.498 11.0314V10.1606L12.377 10.1606Z" fill="white"/>
<path d="M87.8066 6.16113L87.8066 7.03192L107.623 7.03192V6.16113L87.8066 6.16113Z" fill="white"/>
<path d="M87.8066 7.49463L87.8066 8.36542L107.623 8.36542V7.49463L87.8066 7.49463Z" fill="white"/>
<path d="M87.8066 8.82764L87.8066 9.69842L107.623 9.69842V8.82764L87.8066 8.82764Z" fill="white"/>
<path d="M87.8066 10.1606L87.8066 11.0314L107.623 11.0314V10.1606L87.8066 10.1606Z" fill="white"/>
<path d="M23.1113 22.3638C23.2129 22.4708 23.2695 22.6127 23.2695 22.7602L23.2695 24.8322C23.2695 25.0441 23.0978 25.2158 22.8859 25.2158L20.0087 25.2158C19.7968 25.2158 19.625 25.0441 19.625 24.8322L19.625 22.7602C19.625 22.6127 19.6817 22.4708 19.7833 22.3638L20.891 21.1978C21.1935 20.8794 21.7011 20.8794 22.0036 21.1978L23.1113 22.3638Z" fill="white"/>
<path d="M23.1113 16.5585C23.2129 16.4516 23.2695 16.3097 23.2695 16.1622L23.2695 14.0902C23.2695 13.8783 23.0978 13.7065 22.8859 13.7065L20.0087 13.7065C19.7968 13.7065 19.625 13.8783 19.625 14.0902L19.625 16.1622C19.625 16.3097 19.6817 16.4516 19.7833 16.5585L20.891 17.7246C21.1935 18.043 21.7011 18.043 22.0036 17.7246L23.1113 16.5585Z" fill="white"/>
<path d="M24.3497 17.7974C24.4566 17.6958 24.5985 17.6392 24.746 17.6392L26.818 17.6392C27.0299 17.6392 27.2017 17.8109 27.2017 18.0228L27.2017 20.9C27.2017 21.1119 27.0299 21.2836 26.818 21.2836L24.746 21.2836C24.5985 21.2836 24.4566 21.227 24.3497 21.1254L23.1836 20.0177C22.8652 19.7152 22.8652 19.2076 23.1836 18.9051L24.3497 17.7974Z" fill="white"/>
<path d="M18.5444 17.7974C18.4374 17.6958 18.2955 17.6392 18.148 17.6392L16.076 17.6392C15.8641 17.6392 15.6924 17.8109 15.6924 18.0228L15.6924 20.9C15.6924 21.1119 15.8641 21.2836 16.076 21.2836L18.148 21.2836C18.2955 21.2836 18.4374 21.227 18.5444 21.1254L19.7104 20.0177C20.0288 19.7152 20.0288 19.2076 19.7104 18.9051L18.5444 17.7974Z" fill="white"/>
<path fill-rule="evenodd" clip-rule="evenodd" d="M10.3823 26.8482L11.2537 4.34607C11.3376 2.17873 13.1316 0.5 15.2731 0.5H104.409C106.55 0.5 108.344 2.17873 108.428 4.34607L109.3 26.8482C109.448 30.6937 106.451 33.9054 102.624 34.107C74.1517 36.4926 45.5301 36.4926 17.0582 34.107C13.2303 33.9054 10.2333 30.6937 10.3823 26.8482ZM17.1918 32.1112C45.5747 34.4912 74.107 34.4912 102.49 32.1112C105.26 31.9804 107.407 29.6666 107.301 26.9256L106.43 4.42346C106.388 3.34946 105.496 2.5 104.409 2.5H15.2731C14.1863 2.5 13.2938 3.34946 13.2522 4.42346L12.3808 26.9256C12.2746 29.6666 14.4213 31.9804 17.1918 32.1112Z" fill="white"/>
<path d="M96.0605 20.1875C96.0605 21.7408 94.8013 23 93.248 23C91.6947 23 90.4355 21.7408 90.4355 20.1875C90.4355 18.6342 91.6947 17.375 93.248 17.375C94.8013 17.375 96.0605 18.6342 96.0605 20.1875Z" fill="white"/>
<path d="M104.498 20.1875C104.498 21.7408 103.239 23 101.686 23C100.132 23 98.873 21.7408 98.873 20.1875C98.873 18.6342 100.132 17.375 101.686 17.375C103.239 17.375 104.498 18.6342 104.498 20.1875Z" fill="white"/>
<path d="M34.2012 14.493C34.2012 14.3825 34.2907 14.293 34.4012 14.293H37.7512C37.8616 14.293 37.9512 14.3825 37.9512 14.493V15.9719C37.9512 16.0823 37.8616 16.1719 37.7512 16.1719H34.4012C34.2907 16.1719 34.2012 16.0823 34.2012 15.9719V14.493Z" fill="white"/>
<path d="M40.6699 14.493C40.6699 14.3825 40.7595 14.293 40.8699 14.293H44.2199C44.3304 14.293 44.4199 14.3825 44.4199 14.493V15.9719C44.4199 16.0823 44.3304 16.1719 44.2199 16.1719H40.8699C40.7595 16.1719 40.6699 16.0823 40.6699 15.9719V14.493Z" fill="white"/>
<path d="M47.1392 14.493C47.1392 14.3825 47.2287 14.293 47.3392 14.293H50.6892C50.7996 14.293 50.8892 14.3825 50.8892 14.493V15.9719C50.8892 16.0823 50.7996 16.1719 50.6892 16.1719H47.3392C47.2287 16.1719 47.1392 16.0823 47.1392 15.9719V14.493Z" fill="white"/>
<path d="M53.6084 14.493C53.6084 14.3825 53.6979 14.293 53.8084 14.293H57.1584C57.2689 14.293 57.3584 14.3825 57.3584 14.493V15.9719C57.3584 16.0823 57.2689 16.1719 57.1584 16.1719H53.8084C53.6979 16.1719 53.6084 16.0823 53.6084 15.9719V14.493Z" fill="white"/>
<path d="M60.0762 14.493C60.0762 14.3825 60.1657 14.293 60.2762 14.293H63.6262C63.7366 14.293 63.8262 14.3825 63.8262 14.493V15.9719C63.8262 16.0823 63.7366 16.1719 63.6262 16.1719H60.2762C60.1657 16.1719 60.0762 16.0823 60.0762 15.9719V14.493Z" fill="white"/>
<path d="M66.5449 14.493C66.5449 14.3825 66.6345 14.293 66.7449 14.293H70.0949C70.2054 14.293 70.2949 14.3825 70.2949 14.493V15.9719C70.2949 16.0823 70.2054 16.1719 70.0949 16.1719H66.7449C66.6345 16.1719 66.5449 16.0823 66.5449 15.9719V14.493Z" fill="white"/>
<path d="M73.0142 14.493C73.0142 14.3825 73.1037 14.293 73.2142 14.293H76.5642C76.6746 14.293 76.7642 14.3825 76.7642 14.493V15.9719C76.7642 16.0823 76.6746 16.1719 76.5642 16.1719H73.2142C73.1037 16.1719 73.0142 16.0823 73.0142 15.9719V14.493Z" fill="white"/>
<path d="M60.0762 19.8729C60.0762 19.7624 60.1657 19.6729 60.2762 19.6729H63.6262C63.7366 19.6729 63.8262 19.7624 63.8262 19.8729V21.3518C63.8262 21.4622 63.7366 21.5518 63.6262 21.5518H60.2762C60.1657 21.5518 60.0762 21.4622 60.0762 21.3518V19.8729Z" fill="white"/>
<path d="M66.5842 19.8729C66.5842 19.7624 66.6738 19.6729 66.7842 19.6729H71.9311C72.0416 19.6729 72.1311 19.7624 72.1311 19.8729V21.3518C72.1311 21.4622 72.0416 21.5518 71.9311 21.5518H66.7842C66.6738 21.5518 66.5842 21.4622 66.5842 21.3518V19.8729Z" fill="white"/>
<path d="M66.584 25.2527C66.584 25.1423 66.6735 25.0527 66.784 25.0527H71.9309C72.0413 25.0527 72.1309 25.1423 72.1309 25.2527V26.7316C72.1309 26.8421 72.0413 26.9316 71.9309 26.9316H66.784C66.6735 26.9316 66.584 26.8421 66.584 26.7316V25.2527Z" fill="white"/>
<path d="M74.8889 19.8729C74.8889 19.7624 74.9785 19.6729 75.0889 19.6729H78.4389C78.5494 19.6729 78.6389 19.7624 78.6389 19.8729V21.3518C78.6389 21.4622 78.5494 21.5518 78.4389 21.5518H75.0889C74.9785 21.5518 74.8889 21.4622 74.8889 21.3518V19.8729Z" fill="white"/>
<path d="M81.3965 19.8729C81.3965 19.7624 81.486 19.6729 81.5965 19.6729H84.9465C85.0569 19.6729 85.1465 19.7624 85.1465 19.8729V21.3518C85.1465 21.4622 85.0569 21.5518 84.9465 21.5518H81.5965C81.486 21.5518 81.3965 21.4622 81.3965 21.3518V19.8729Z" fill="white"/>
<path d="M81.3965 14.493C81.3965 14.3825 81.486 14.293 81.5965 14.293H83.2668C83.3773 14.293 83.4668 14.3825 83.4668 14.493V15.9719C83.4668 16.0823 83.3773 16.1719 83.2668 16.1719H81.5965C81.486 16.1719 81.3965 16.0823 81.3965 15.9719V14.493Z" fill="white"/>
<path fill-rule="evenodd" clip-rule="evenodd" d="M85.3254 14.1414H81.2176L81.2176 16.3234H85.3254V14.1414ZM81.2176 13.9414C81.1071 13.9414 81.0176 14.0309 81.0176 14.1414V16.3234C81.0176 16.4339 81.1071 16.5234 81.2176 16.5234H85.3254C85.4358 16.5234 85.5254 16.4339 85.5254 16.3234V14.1414C85.5254 14.0309 85.4358 13.9414 85.3254 13.9414H81.2176Z" fill="white"/>
<path d="M81.3965 25.2527C81.3965 25.1423 81.486 25.0527 81.5965 25.0527H84.9465C85.0569 25.0527 85.1465 25.1423 85.1465 25.2527V26.7316C85.1465 26.8421 85.0569 26.9316 84.9465 26.9316H81.5965C81.486 26.9316 81.3965 26.8421 81.3965 26.7316V25.2527Z" fill="white"/>
<path d="M34.2012 19.8729C34.2012 19.7624 34.2907 19.6729 34.4012 19.6729H37.7512C37.8616 19.6729 37.9512 19.7624 37.9512 19.8729V21.3518C37.9512 21.4622 37.8616 21.5518 37.7512 21.5518H34.4012C34.2907 21.5518 34.2012 21.4622 34.2012 21.3518V19.8729Z" fill="white"/>
<path d="M40.6699 19.8729C40.6699 19.7624 40.7595 19.6729 40.8699 19.6729H44.2199C44.3304 19.6729 44.4199 19.7624 44.4199 19.8729V21.3518C44.4199 21.4622 44.3304 21.5518 44.2199 21.5518H40.8699C40.7595 21.5518 40.6699 21.4622 40.6699 21.3518V19.8729Z" fill="white"/>
<path d="M47.1392 19.8729C47.1392 19.7624 47.2287 19.6729 47.3392 19.6729H50.6892C50.7996 19.6729 50.8892 19.7624 50.8892 19.8729V21.3518C50.8892 21.4622 50.7996 21.5518 50.6892 21.5518H47.3392C47.2287 21.5518 47.1392 21.4622 47.1392 21.3518V19.8729Z" fill="white"/>
<path d="M53.6084 19.8729C53.6084 19.7624 53.6979 19.6729 53.8084 19.6729H57.1584C57.2689 19.6729 57.3584 19.7624 57.3584 19.8729V21.3518C57.3584 21.4622 57.2689 21.5518 57.1584 21.5518H53.8084C53.6979 21.5518 53.6084 21.4622 53.6084 21.3518V19.8729Z" fill="white"/>
<path d="M34.2012 25.2527C34.2012 25.1423 34.2907 25.0527 34.4012 25.0527H37.7512C37.8616 25.0527 37.9512 25.1423 37.9512 25.2527V26.7316C37.9512 26.8421 37.8616 26.9316 37.7512 26.9316H34.4012C34.2907 26.9316 34.2012 26.8421 34.2012 26.7316V25.2527Z" fill="white"/>
<path d="M40.6699 25.2527C40.6699 25.1423 40.7595 25.0527 40.8699 25.0527H44.2199C44.3304 25.0527 44.4199 25.1423 44.4199 25.2527V26.7316C44.4199 26.8421 44.3304 26.9316 44.2199 26.9316H40.8699C40.7595 26.9316 40.6699 26.8421 40.6699 26.7316V25.2527Z" fill="white"/>
<path d="M47.1392 25.2527C47.1392 25.1423 47.2287 25.0527 47.3392 25.0527H50.6892C50.7996 25.0527 50.8892 25.1423 50.8892 25.2527V26.7316C50.8892 26.8421 50.7996 26.9316 50.6892 26.9316H47.3392C47.2287 26.9316 47.1392 26.8421 47.1392 26.7316V25.2527Z" fill="white"/>
<path d="M53.6084 25.2527C53.6084 25.1423 53.6979 25.0527 53.8084 25.0527H57.1584C57.2689 25.0527 57.3584 25.1423 57.3584 25.2527V26.7316C57.3584 26.8421 57.2689 26.9316 57.1584 26.9316H53.8084C53.6979 26.9316 53.6084 26.8421 53.6084 26.7316V25.2527Z" fill="white"/>
<path fill-rule="evenodd" clip-rule="evenodd" d="M30.498 33L30.498 2.5L31.498 2.5L31.498 33L30.498 33Z" fill="white"/>
<path fill-rule="evenodd" clip-rule="evenodd" d="M87.8066 33L87.8066 2.5L88.8066 2.5L88.8066 33L87.8066 33Z" fill="white"/>
<path d="M48.1392 2.5H72.1309L71.1309 5.75H47.1392L48.1392 2.5Z" fill="white"/>
</svg>
