<svg width="218" height="136" viewBox="0 0 218 136" fill="none" xmlns="http://www.w3.org/2000/svg">
<path fill-rule="evenodd" clip-rule="evenodd" d="M106.264 126.88C125.563 109.195 119.993 71.7076 93.8228 43.1497C67.6529 14.5917 30.7934 5.77728 11.4948 23.4622C-7.80388 41.147 -2.2336 78.6342 23.9363 107.192C50.1062 135.75 86.9657 144.565 106.264 126.88ZM105.984 124.013C124.059 107.45 118.298 71.7479 93.118 44.2699C67.9376 16.7918 32.8728 7.94336 14.7984 24.5063C-3.27599 41.0693 2.48451 76.7717 27.6648 104.25C52.8451 131.728 87.91 140.576 105.984 124.013Z" fill="white"/>
<path d="M115.235 45.1764C115.235 46.415 116.239 47.4191 117.478 47.4191H125.187V95.2174C125.187 96.456 126.192 97.4601 127.43 97.4601H139.625C140.864 97.4601 141.868 96.456 141.868 95.2174V47.4191H149.577C150.816 47.4191 151.82 46.415 151.82 45.1764V36.4858C151.82 35.2472 150.816 34.2431 149.577 34.2431H117.478C116.239 34.2431 115.235 35.2472 115.235 36.4858V45.1764Z" fill="white"/>
<path d="M155.638 36.868C155.401 35.497 156.456 34.2431 157.848 34.2431H170.368C171.532 34.2431 172.502 35.1332 172.602 36.2926L176.322 79.308H177.779L181.499 36.2926C181.599 35.1332 182.57 34.2431 183.733 34.2431H196.253C197.645 34.2431 198.7 35.497 198.463 36.868L188.306 95.5996C188.12 96.6748 187.187 97.4601 186.096 97.4601H168.005C166.914 97.4601 165.981 96.6748 165.795 95.5996L155.638 36.868Z" fill="white"/>
<path fill-rule="evenodd" clip-rule="evenodd" d="M73.1138 36.4858C73.1138 35.2472 74.1179 34.2431 75.3565 34.2431H97.083C105.521 34.2431 112.362 41.0836 112.362 49.5217V82.1815C112.362 90.6196 105.521 97.4601 97.083 97.4601H75.3565C74.1179 97.4601 73.1138 96.456 73.1138 95.2174V36.4858ZM95.8214 48.961C95.8214 47.7224 94.8173 46.7183 93.5787 46.7183H89.6539V84.9849H93.5787C94.8173 84.9849 95.8214 83.9808 95.8214 82.7422V48.961Z" fill="white"/>
<path d="M38.2815 34.2431C32.2432 34.2431 27.3481 39.1381 27.3481 45.1764V86.5268C27.3481 92.5651 32.2432 97.4601 38.2815 97.4601H55.8028C61.8411 97.4601 66.7361 92.5651 66.7361 86.5268V74.8926C66.7361 73.654 65.732 72.6499 64.4934 72.6499H52.2985C51.0599 72.6499 50.0558 73.654 50.0558 74.8926V81.9012C50.0558 83.6043 48.6751 84.9849 46.9721 84.9849C45.269 84.9849 43.8883 83.6043 43.8883 81.9012V49.802C43.8883 48.0989 45.269 46.7183 46.9721 46.7183C48.6751 46.7183 50.0558 48.0989 50.0558 49.802V56.8106C50.0558 58.0492 51.0599 59.0533 52.2985 59.0533H64.4934C65.732 59.0533 66.7361 58.0492 66.7361 56.8106V45.1764C66.7361 39.1381 61.8411 34.2431 55.8028 34.2431H38.2815Z" fill="white"/>
<path d="M206.858 42.6877V37.2029H204.76V36.2431H210.213V37.2029H207.836V42.6877H206.858Z" fill="white"/>
<path d="M211.205 42.6877V36.2431H212.85L214.496 41.4536L216.141 36.2431H217.649V42.6877H216.69V37.2029L215.044 42.6877H214.084L212.302 37.2029V42.6877H211.205Z" fill="white"/>
<path d="M134.394 114.188H135.894V107.693H134.394V114.188Z" fill="white"/>
<path d="M137.101 114.188H138.552L138.523 108.813L143.372 114.188H145.709V107.693H144.277L144.306 113.097L139.428 107.693H137.101V114.188Z" fill="white"/>
<path d="M149.428 114.188H150.928V108.91H153.975V107.693H146.371V108.91H149.428V114.188Z" fill="white"/>
<path d="M154.648 114.188H161.61V113.048H156.128V111.393H161.289V110.371H156.128V108.832H161.552V107.693H154.648V114.188Z" fill="white"/>
<path d="M162.538 114.188H164.027V112.162H167.64C168.633 112.162 168.847 112.347 168.847 113.214V114.188H170.356V112.902C170.356 112.269 170.171 111.909 169.753 111.705C169.558 111.617 169.412 111.588 168.789 111.549C169.577 111.452 169.899 111.344 170.103 111.101C170.347 110.828 170.463 110.4 170.463 109.767C170.463 109.027 170.327 108.521 170.045 108.209C169.694 107.829 169.178 107.693 168.039 107.693H162.538V114.188ZM164.027 110.965V108.91H167.62C168.73 108.91 168.954 109.095 168.954 109.991C168.954 110.77 168.682 110.965 167.591 110.965H164.027Z" fill="white"/>
<path d="M177.997 112.902L178.737 114.188H180.373L176.712 107.693H174.677L170.957 114.188H172.642L173.362 112.902H177.997ZM177.442 111.851H173.937L175.68 108.745L177.442 111.851Z" fill="white"/>
<path d="M187.13 111.851V111.997C187.13 112.669 186.886 112.932 186.185 113L184.199 113.039C182.174 113.039 182.018 112.893 182.018 111.004C182.018 109.602 182.096 109.241 182.466 109.047C182.777 108.881 183.216 108.842 184.744 108.842C186.877 108.842 187.071 108.93 187.071 109.874H188.503C188.493 109.066 188.347 108.511 188.074 108.219C187.656 107.761 186.916 107.635 184.666 107.635C182.612 107.635 181.94 107.713 181.385 108.024C180.703 108.404 180.518 109.017 180.518 110.828C180.518 111.744 180.567 112.503 180.655 112.834C180.781 113.331 181.025 113.681 181.395 113.886C181.969 114.197 182.446 114.246 185.036 114.246C187.149 114.246 187.763 114.129 188.211 113.633C188.483 113.341 188.581 112.883 188.581 111.958V111.851H187.13Z" fill="white"/>
<path d="M192.136 114.188H193.636V108.91H196.683V107.693H189.079V108.91H192.136V114.188Z" fill="white"/>
<path d="M197.356 114.188H198.856V107.693H197.356V114.188Z" fill="white"/>
<path d="M199.453 107.693L202.968 114.188H204.906L208.499 107.693H206.834L203.952 113L201.109 107.693H199.453Z" fill="white"/>
<path d="M209.103 114.188H216.065V113.048H210.583V111.393H215.744V110.371H210.583V108.832H216.007V107.693H209.103V114.188Z" fill="white"/>
<path d="M134.394 123.188H135.855L135.816 117.842L139.155 123.188H140.334L143.693 117.842L143.634 123.188H145.105V116.693H142.817L139.769 121.581L136.711 116.693H134.394V123.188Z" fill="white"/>
<path d="M153.374 116.693V120.189C153.365 121.094 153.365 121.094 153.345 121.211C153.287 121.62 153.082 121.854 152.703 121.951C152.479 122.009 151.67 122.048 150.794 122.048C148.847 122.048 148.467 121.922 148.36 121.231C148.311 120.958 148.311 120.958 148.311 120.091V116.693H146.812V120.559C146.812 121.756 146.909 122.204 147.24 122.584C147.717 123.12 148.399 123.256 150.648 123.256C152.946 123.256 153.501 123.197 154.056 122.876C154.679 122.526 154.874 122.019 154.874 120.783V116.693H153.374Z" fill="white"/>
<path d="M156.559 123.188H162.801V121.971H158.059V116.693H156.559V123.188Z" fill="white"/>
<path d="M165.2 123.188H166.699V117.91H169.747V116.693H162.142V117.91H165.2V123.188Z" fill="white"/>
<path d="M170.955 123.188H172.455V116.693H170.955V123.188Z" fill="white"/>
<path d="M174.198 123.188H175.659L175.62 117.842L178.959 123.188H180.138L183.497 117.842L183.438 123.188H184.909V116.693H182.621L179.573 121.581L176.515 116.693H174.198V123.188Z" fill="white"/>
<path d="M186.655 123.188H193.617V122.048H188.135V120.393H193.295V119.371H188.135V117.832H193.558V116.693H186.655V123.188Z" fill="white"/>
<path d="M195.079 123.188H200.629C201.72 123.188 202.411 123.012 202.82 122.633C203.317 122.175 203.502 121.464 203.502 120.013C203.502 118.582 203.346 117.852 202.947 117.404C202.509 116.927 201.71 116.693 200.474 116.693H195.079V123.188ZM196.579 122V117.92H200.298C201.701 117.92 201.983 118.28 201.983 120.082C201.983 121.084 201.827 121.581 201.447 121.786C201.185 121.932 200.824 122 200.298 122H196.579Z" fill="white"/>
<path d="M205.092 123.188H206.592V116.693H205.092V123.188Z" fill="white"/>
<path d="M214.754 121.902L215.494 123.188H217.13L213.469 116.693H211.434L207.714 123.188H209.399L210.119 121.902H214.754ZM214.199 120.851H210.694L212.437 117.745L214.199 120.851Z" fill="white"/>
<path d="M82.9979 0.0615692C77.5297 0.0615692 73.1138 4.49627 73.1138 9.94569C73.1138 15.4139 77.5485 19.8298 82.9979 19.8298C84.0502 19.8298 85.0649 19.6607 86.0045 19.36V14.418C85.1777 14.8878 84.2193 15.1696 83.2046 15.1696C80.198 15.1696 77.774 12.8207 77.774 9.94569C77.774 7.07065 80.2168 4.72177 83.2046 4.72177C84.2381 4.72177 85.1964 5.00363 86.0045 5.47341V0.531347C85.0649 0.230689 84.0502 0.0615692 82.9979 0.0615692V0.0615692Z" fill="white"/>
<path d="M90.1573 9.62632H86.0984V6.18755H93.4645L90.1573 9.62632Z" fill="white"/>
<path d="M90.1573 10.3216H86.0984V13.7604H93.4645L90.1573 10.3216Z" fill="white"/>
<path fill-rule="evenodd" clip-rule="evenodd" d="M89.9553 3.78118C89.7439 3.99122 89.4628 4.10777 89.1638 4.10777C88.866 4.10777 88.5861 3.99122 88.3742 3.78118C88.1609 3.56921 88.0457 3.28808 88.0457 2.98967C88.0457 2.37298 88.5496 1.87157 89.1638 1.87157C89.4628 1.87157 89.7439 1.98747 89.9553 2.19816C90.1659 2.40948 90.2825 2.69061 90.2825 2.98967C90.2825 3.28808 90.1659 3.56921 89.9553 3.78118ZM88.5063 2.33189C88.3315 2.50735 88.2335 2.74109 88.2335 2.98956C88.2335 3.23866 88.3315 3.47176 88.5063 3.64786C88.683 3.82269 88.9155 3.92066 89.164 3.92066C89.6782 3.92066 90.0951 3.5025 90.0951 2.98956C90.0951 2.74109 89.9971 2.50735 89.8223 2.33189C89.6468 2.15642 89.4124 2.05845 89.164 2.05845C88.9155 2.05845 88.683 2.15642 88.5063 2.33189Z" fill="white"/>
<path fill-rule="evenodd" clip-rule="evenodd" d="M89.6794 3.45458C89.6865 3.4834 89.6993 3.50261 89.7159 3.50901L89.7159 3.50898L89.7318 3.51667V3.58967H89.4917L89.4827 3.57431C89.4775 3.56475 89.4744 3.55376 89.4708 3.54081C89.4695 3.53641 89.4682 3.53179 89.4668 3.52692C89.4629 3.50899 89.4603 3.47825 89.4578 3.42958L89.4482 3.23042C89.4456 3.16319 89.4219 3.119 89.3778 3.09723C89.3515 3.0857 89.3054 3.07929 89.2439 3.07929H88.9039V3.58968H88.6887V2.34478H89.267C89.3618 2.34478 89.4392 2.35759 89.5033 2.38643C89.6243 2.44086 89.6864 2.5446 89.6864 2.69189C89.6864 2.76874 89.6698 2.83213 89.6384 2.88208C89.6147 2.91922 89.5814 2.94868 89.5443 2.97302C89.5744 2.99095 89.6007 3.01016 89.6179 3.03449C89.6448 3.07035 89.6609 3.12415 89.6634 3.19971L89.6685 3.36045C89.6698 3.40271 89.6743 3.43409 89.6794 3.45458ZM89.4141 2.84872C89.4487 2.82311 89.4666 2.777 89.4666 2.7072V2.70717C89.4666 2.63417 89.4423 2.58422 89.391 2.5586C89.3616 2.54451 89.3206 2.5375 89.2713 2.5375H88.9037V2.88971H89.2501C89.3193 2.88971 89.3744 2.875 89.4141 2.84872Z" fill="white"/>
<path d="M115.922 16.6428C117.49 16.6428 118.745 16.2037 119.749 15.3881C120.752 14.5412 121.254 13.3806 121.286 11.8436C121.254 10.3065 120.752 9.11458 119.749 8.26765C118.745 7.42073 117.49 7.01295 115.922 7.01295C114.353 7.01295 113.099 7.45209 112.095 8.26765C111.091 9.08321 110.589 10.3065 110.558 11.8436C110.589 13.3806 111.091 14.5725 112.095 15.3881C113.099 16.2037 114.353 16.6428 115.922 16.6428ZM115.922 14.4157C115.2 14.3843 114.667 14.1334 114.322 13.6315C113.977 13.1296 113.82 12.5336 113.851 11.8122C113.851 11.0907 114.008 10.4947 114.322 9.99287C114.636 9.49099 115.169 9.24005 115.922 9.20868C116.643 9.24005 117.176 9.49099 117.521 9.99287C117.867 10.4947 118.023 11.0907 117.992 11.8122C117.992 12.5023 117.835 13.1296 117.521 13.6315C117.176 14.1334 116.643 14.3843 115.922 14.4157Z" fill="white"/>
<path d="M122.572 16.4232H125.771V12.5336C125.771 11.5612 125.928 10.8084 126.242 10.3379C126.555 9.8674 126.995 9.64782 127.559 9.64782C127.998 9.64782 128.343 9.83603 128.532 10.1811C128.72 10.5261 128.845 10.9653 128.845 11.4985V16.4546H132.045V12.565C132.045 11.5926 132.202 10.8398 132.515 10.3693C132.829 9.89877 133.268 9.67919 133.833 9.67919C134.272 9.67919 134.617 9.8674 134.805 10.2124C134.993 10.5575 135.119 10.9966 135.119 11.5299V16.486H138.318V11.0594C138.35 9.80466 138.13 8.83227 137.691 8.11081C137.252 7.42073 136.374 7.04432 135.056 7.04432C134.397 7.04432 133.77 7.16978 133.205 7.45209C132.641 7.7344 132.17 8.17355 131.794 8.8009C131.543 8.20492 131.166 7.76577 130.665 7.45209C130.163 7.16978 129.567 7.01295 128.908 7.01295C128.187 7.01295 127.496 7.16978 126.932 7.48346C126.336 7.79714 125.897 8.26765 125.552 8.92637H125.52V7.23252H122.603L122.572 16.4232Z" fill="white"/>
<path d="M140.043 16.4232H143.243V12.5336C143.243 11.5612 143.4 10.8084 143.713 10.3379C144.027 9.8674 144.466 9.64782 145.031 9.64782C145.47 9.64782 145.815 9.83603 146.003 10.1811C146.192 10.5261 146.317 10.9653 146.317 11.4985V16.4546H149.516V12.565C149.516 11.5926 149.673 10.8398 149.987 10.3693C150.301 9.89877 150.74 9.67919 151.304 9.67919C151.744 9.67919 152.089 9.8674 152.277 10.2124C152.465 10.5575 152.59 10.9966 152.59 11.5299V16.486H155.79V11.0594C155.821 9.80466 155.602 8.83227 155.163 8.11081C154.723 7.42073 153.845 7.04432 152.528 7.04432C151.869 7.04432 151.242 7.16978 150.677 7.45209C150.112 7.7344 149.642 8.17355 149.266 8.8009C149.015 8.20492 148.638 7.76577 148.136 7.45209C147.634 7.16978 147.038 7.01295 146.38 7.01295C145.658 7.01295 144.968 7.16978 144.404 7.48346C143.808 7.79714 143.368 8.26765 143.023 8.92637H142.992V7.23252H140.075L140.043 16.4232Z" fill="white"/>
<path d="M162.409 16.6428C163.977 16.6428 165.232 16.2037 166.236 15.3881C167.239 14.5412 167.741 13.3806 167.773 11.8436C167.741 10.3065 167.239 9.11458 166.236 8.26765C165.232 7.42073 163.977 7.01295 162.409 7.01295C160.84 7.01295 159.586 7.45209 158.582 8.26765C157.578 9.08321 157.076 10.3065 157.045 11.8436C157.076 13.3806 157.578 14.5725 158.582 15.3881C159.586 16.2037 160.872 16.6428 162.409 16.6428ZM162.409 14.4157C161.687 14.3843 161.154 14.1334 160.809 13.6315C160.464 13.1296 160.307 12.5336 160.338 11.8122C160.338 11.0907 160.495 10.4947 160.809 9.99287C161.123 9.49099 161.656 9.24005 162.409 9.20868C163.13 9.24005 163.663 9.49099 164.008 9.99287C164.353 10.4947 164.51 11.0907 164.479 11.8122C164.479 12.5023 164.322 13.1296 164.008 13.6315C163.663 14.1334 163.161 14.3843 162.409 14.4157Z" fill="white"/>
<path d="M179.002 3.15484H175.803V8.39322H175.771C175.363 7.85997 174.893 7.51493 174.36 7.29535C173.826 7.07578 173.23 6.98168 172.603 6.98168C171.317 7.04441 170.345 7.51493 169.686 8.45596C169.027 9.39699 168.682 10.4635 168.682 11.6241C168.682 13.0356 169.059 14.1962 169.749 15.1372C170.47 16.0783 171.505 16.5802 172.885 16.6115C173.638 16.6115 174.297 16.4233 174.862 16.0783C175.426 15.7332 175.834 15.2941 176.054 14.7608H176.085V16.4233H179.033L179.002 3.15484ZM171.913 11.7182C171.913 11.0908 172.07 10.5576 172.415 10.1184C172.76 9.67929 173.23 9.45972 173.858 9.42835C174.454 9.42835 174.924 9.67929 175.269 10.1184C175.614 10.5576 175.803 11.1222 175.803 11.8437C175.803 12.5337 175.583 13.0984 175.238 13.5375C174.893 13.9767 174.422 14.1962 173.858 14.1962C173.262 14.1962 172.791 13.9453 172.446 13.5061C172.101 13.067 171.913 12.471 171.913 11.7182V11.7182Z" fill="white"/>
<path d="M185.558 16.6428C187.126 16.6428 188.381 16.2037 189.385 15.3881C190.389 14.5412 190.89 13.3806 190.922 11.8436C190.89 10.3065 190.389 9.11458 189.385 8.26765C188.381 7.42073 187.126 7.01295 185.558 7.01295C183.99 7.01295 182.735 7.45209 181.731 8.26765C180.727 9.11458 180.225 10.3065 180.194 11.8436C180.225 13.3806 180.727 14.5725 181.731 15.3881C182.735 16.2037 184.021 16.6428 185.558 16.6428ZM185.558 14.4157C184.836 14.3843 184.303 14.1334 183.958 13.6315C183.645 13.1296 183.456 12.5336 183.488 11.8122C183.488 11.0907 183.645 10.4947 183.958 9.99287C184.272 9.49099 184.805 9.24005 185.558 9.20868C186.279 9.24005 186.813 9.49099 187.158 9.99287C187.471 10.4947 187.66 11.0907 187.628 11.8122C187.628 12.5023 187.471 13.1296 187.158 13.6315C186.844 14.1334 186.311 14.3843 185.558 14.4157Z" fill="white"/>
<path d="M198.983 7.10706C198.826 7.07569 198.638 7.04432 198.45 7.04432C198.262 7.01295 198.074 7.01295 197.885 7.01295C197.195 7.01295 196.631 7.20116 196.223 7.5462C195.784 7.89124 195.439 8.36176 195.156 8.92637H195.125V7.23252H192.208V16.4546H195.407V12.565C195.407 11.6554 195.595 10.9339 196.003 10.432C196.411 9.93013 196.976 9.67919 197.728 9.67919C197.917 9.67919 198.105 9.67919 198.262 9.67919C198.45 9.67919 198.607 9.71056 198.795 9.7733L198.983 7.10706Z" fill="white"/>
<path d="M208.99 12.7533V12.1573C209.021 10.7458 208.645 9.52246 207.954 8.55006C207.233 7.5463 206.041 7.04442 204.347 6.98168C202.873 6.98168 201.712 7.42083 200.803 8.23639C199.893 9.08331 199.422 10.2439 199.422 11.7809C199.454 13.3179 199.956 14.5099 200.96 15.3255C201.963 16.1724 203.218 16.5802 204.786 16.6115C205.382 16.6115 205.978 16.5802 206.543 16.4861C207.108 16.392 207.672 16.2351 208.174 16.0469V13.7885C207.704 14.0394 207.202 14.2276 206.731 14.3217C206.261 14.4472 205.79 14.4785 205.351 14.4785C204.567 14.4785 203.939 14.3531 203.469 14.0708C202.998 13.7884 202.716 13.3493 202.622 12.722L208.99 12.7533ZM202.559 10.934C202.591 10.4008 202.747 9.93024 203.03 9.5852C203.312 9.20879 203.751 9.02057 204.316 9.02057C204.943 9.02057 205.414 9.20879 205.665 9.5852C205.947 9.96161 206.072 10.4008 206.072 10.934H202.559Z" fill="white"/>
<path d="M103.751 16.5173C102.371 16.1408 101.304 15.5135 100.426 14.5411C99.5478 13.5687 99.1401 12.6904 98.8891 11.122C98.4186 8.048 99.736 5.22492 102.277 4.00158C103.563 3.37423 105.288 3.06055 107.013 3.06055C108.08 3.06055 109.021 3.24876 109.899 3.4056L109.617 6.16595C109.617 6.16595 109.397 6.10321 108.77 5.94638C108.174 5.78954 107.578 5.7268 106.982 5.7268C105.79 5.7268 104.629 6.04048 103.877 6.63647C102.089 8.01664 102.089 11.6239 103.939 13.1295C105.069 14.0706 107.107 14.3843 108.927 13.9137L109.774 13.6942L110.025 16.4859C109.491 16.6114 108.362 16.8309 106.982 16.8309C105.163 16.8309 104.598 16.7682 103.751 16.5173V16.5173Z" fill="white"/>
<path fill-rule="evenodd" clip-rule="evenodd" d="M211.42 8.62288C211.23 8.81201 210.977 8.91696 210.707 8.91696C210.439 8.91696 210.187 8.81201 209.996 8.62288C209.804 8.43201 209.701 8.17886 209.701 7.91015C209.701 7.35485 210.154 6.90334 210.707 6.90334C210.977 6.90334 211.23 7.00771 211.42 7.19743C211.61 7.38772 211.715 7.64086 211.715 7.91015C211.715 8.17886 211.61 8.43201 211.42 8.62288ZM210.116 7.31782C209.958 7.47582 209.87 7.6863 209.87 7.91003C209.87 8.13434 209.958 8.34424 210.116 8.50281C210.275 8.66023 210.484 8.74846 210.708 8.74846C211.171 8.74846 211.546 8.37192 211.546 7.91003C211.546 7.6863 211.458 7.47582 211.301 7.31782C211.143 7.15983 210.931 7.0716 210.708 7.0716C210.484 7.0716 210.275 7.15983 210.116 7.31782Z" fill="white"/>
<path fill-rule="evenodd" clip-rule="evenodd" d="M211.172 8.32899C211.178 8.35493 211.19 8.37223 211.205 8.378L211.219 8.38489V8.45063H211.003L210.995 8.4368C210.99 8.42819 210.987 8.41829 210.984 8.40663C210.983 8.40267 210.982 8.39851 210.98 8.39412C210.977 8.37798 210.975 8.3503 210.972 8.30647L210.964 8.12714C210.961 8.0666 210.94 8.02681 210.9 8.0072C210.877 7.99682 210.835 7.99105 210.78 7.99105H210.474V8.45063H210.28V7.32965H210.801C210.886 7.32965 210.956 7.34118 211.013 7.36715C211.122 7.41617 211.178 7.50959 211.178 7.64221C211.178 7.71141 211.163 7.7685 211.135 7.81347C211.114 7.84692 211.084 7.87344 211.05 7.89535C211.077 7.9115 211.101 7.9288 211.117 7.95071C211.141 7.983 211.155 8.03144 211.158 8.09949L211.162 8.24422C211.163 8.28228 211.167 8.31054 211.172 8.32899ZM210.933 7.7836C210.965 7.76053 210.981 7.719 210.981 7.65613V7.6561C210.981 7.59035 210.959 7.54536 210.913 7.52229C210.886 7.5096 210.849 7.50328 210.805 7.50328H210.474V7.82052H210.786C210.848 7.82052 210.898 7.80727 210.933 7.7836Z" fill="white"/>
</svg>
