<?xml version="1.0" encoding="utf-8"?>
<!-- Generator: Adobe Illustrator 24.1.3, SVG Export Plug-In . SVG Version: 6.00 Build 0)  -->
<svg version="1.1" id="Layer_1" xmlns="http://www.w3.org/2000/svg" xmlns:xlink="http://www.w3.org/1999/xlink" x="0px" y="0px"
	 viewBox="0 0 1106.1 300.6" style="enable-background:new 0 0 1106.1 300.6;" xml:space="preserve">
<linearGradient id="SVGID_1_" gradientUnits="userSpaceOnUse" x1="954.8366" y1="279.914" x2="954.8366" y2="15.5362" gradientTransform="matrix(1 0 0 -1 8.410366e-06 301.5043)">
	<stop  offset="0" style="stop-color:#ECEFEB"/>
	<stop  offset="0.1746" style="stop-color:#EAECE9"/>
	<stop  offset="0.2796" style="stop-color:#E1E4E0"/>
	<stop  offset="0.3661" style="stop-color:#D3D6D3"/>
	<stop  offset="0.4427" style="stop-color:#C0C1BF"/>
	<stop  offset="0.5127" style="stop-color:#A6A7A6"/>
	<stop  offset="0.5769" style="stop-color:#878787"/>
	<stop  offset="0.6" style="stop-color:#7A7A7A"/>
	<stop  offset="1" style="stop-color:#343732"/>
</linearGradient>
<path style="fill:url(#SVGID_1_);" d="M852.2,27.6l-33.8,226.8c-0.3,1.8,0.2,3.6,1.3,5.1c1.1,1.4,2.8,2.3,4.6,2.5l31.3,2.7
	c3.7,0.3,7.2-2.4,7.7-6.1c0,0,17.2-123.6,18.3-131.5c2.3,7.8,40.4,138.8,40.4,138.8c1,3.4,4.5,6.3,8,6.7l20.9,2.2
	c3.5,0.4,7.5-1.7,9.3-4.7c0,0,66.7-115.7,70.4-122.2c-0.6,7.4-10.9,126.6-10.9,126.6c0,0.2,0,0.4,0,0.6c0,3.5,2.7,6.6,6.3,6.9
	l37.5,3.9c1.8,0.2,3.6-0.4,5-1.5c1.4-1.2,2.3-2.8,2.5-4.7l20.3-228c0.2-1.8-0.4-3.6-1.6-5c-1.2-1.4-2.8-2.3-4.7-2.4l-35.2-3.1
	c-3.5-0.3-7.5,1.9-9.2,4.9l-87.3,159.4L906.7,32.2c-0.9-3.4-4.4-6.3-7.9-6.7L860,21.6C856.3,21.2,852.8,23.9,852.2,27.6z"/>
<path d="M1101.1,37.1c-3.7-4.4-8.9-7.2-14.7-7.7l-35.2-3.1c-9.3-0.8-18.9,4.3-23.4,12.5c0,0-47.2,86.2-69.6,127.2
	c-12.1-44.9-37.1-137.7-37.1-137.7c-2.5-9.4-11-16.6-20.7-17.5l-38.8-3.9c-11.7-1.2-22.1,7-23.9,18.6l-33.8,226.8
	c-0.9,5.8,0.7,11.8,4.3,16.4c3.6,4.6,9.1,7.5,14.9,8l31.3,2.7c11.6,1,22-7.3,23.6-18.8c0,0,4.4-31.7,8.8-63.1
	c10.6,36.2,21.1,72.5,21.1,72.5c2.7,9.1,11.1,16.2,20.6,17.2l20.9,2.2c9.3,1,19-4,23.6-12c0,0,18.6-32.3,37.2-64.6
	c-2.6,30-5.2,60.3-5.2,60.3c-0.1,0.6-0.1,1.2-0.1,1.9c0,11,8.4,20.5,19.5,21.6l37.5,3.9c5.8,0.6,11.5-1.1,16-4.8
	c4.5-3.7,7.3-8.9,7.8-14.7L1106,53C1106.6,47.1,1104.8,41.5,1101.1,37.1z M1042.4,46.9c1.3-2.4,4.6-4.1,7.3-3.9l11.6,1l-11.9,35.7
	h-24.9L1042.4,46.9z M859.8,23.5l38.8,3.9c2.7,0.3,5.5,2.6,6.2,5.2l10.7,39.7h-45h-1.1l-0.3,1l-5.8,18.3h-18.6l9.5-63.8
	C854.6,25.2,857.1,23.2,859.8,23.5z M841.1,200.6l6.8,3.7l0.3,0.2h0.4h20.2l-2.7,20.5l-40.5-4.8l2.9-19.6H841.1z M855.9,262.7
	l-31.3-2.7c-2.7-0.2-4.6-2.6-4.2-5.3l4.7-31.6l40.6,4.8l-4.2,30.4C861.1,261,858.6,263,855.9,262.7z M882.4,122.4
	c-0.8-2.6-1.7-2.5-2.1,0.1l-11,79.1h-20.2l-6.8-3.7l-0.3-0.2h-0.4l-12.6-0.1l15.3-102.9h20.1h1.1l0.3-1l5.8-18.3h44.7l21.6,79.9h-21
	h-1.5v1.5v53.9h-7.3L882.4,122.4z M1063.7,283.9l-18.1-1.9l1.8-26l9.4-1.2l0.8-0.1l0.3-0.7l2.4-4.8h11.4l-2.7,30.3
	C1068.8,282.2,1066.4,284.1,1063.7,283.9z M1072,246.2h-12.6h-0.9l-0.4,0.8l-2.4,5l-9.8,1.3l-1.2,0.2l-0.1,1.2l-1.9,27.1l-16.4-1.7
	c-2.7-0.3-4.7-2.7-4.5-5.4l6.6-77.3h20.3h1.5v-1.5l0.1-47.1l8.4-30.4l24.7,0.1L1072,246.2z M1083.7,115.4l-26.1-0.1h-1.1l-0.3,1.1
	l-8.8,31.7l-0.1,0.2v0.2l-0.1,45.8h-18.6l4.3-50.2c0.2-2.7-0.7-3-2-0.6L958.5,269c-1.4,2.3-4.7,4-7.4,3.7l-20.9-2.2
	c-2.7-0.3-5.5-2.6-6.3-5.2l-15-51.6h7.9h1.5v-1.5v-53.9h20.3l12.8,47.6c0.7,2.6,2.3,2.8,3.6,0.4l67.7-123.7h27.6h1.1l0.3-1
	l12.4-37.3l20.6,1.8c2.7,0.2,4.7,2.6,4.5,5.3L1083.7,115.4z"/>
<linearGradient id="SVGID_2_" gradientUnits="userSpaceOnUse" x1="730.2463" y1="285.8115" x2="730.2463" y2="33.9638" gradientTransform="matrix(1 0 0 -1 8.410366e-06 301.5043)">
	<stop  offset="0" style="stop-color:#ECEFEB"/>
	<stop  offset="0.1746" style="stop-color:#EAECE9"/>
	<stop  offset="0.2796" style="stop-color:#E1E4E0"/>
	<stop  offset="0.3661" style="stop-color:#D3D6D3"/>
	<stop  offset="0.4427" style="stop-color:#C0C1BF"/>
	<stop  offset="0.5127" style="stop-color:#A6A7A6"/>
	<stop  offset="0.5769" style="stop-color:#878787"/>
	<stop  offset="0.6" style="stop-color:#7A7A7A"/>
	<stop  offset="1" style="stop-color:#343732"/>
</linearGradient>
<path style="fill:url(#SVGID_2_);" d="M823.1,15.8l-36,7.2c-3.5,0.7-6.6,4-7.1,7.5c0,0-20.1,146-20.4,147.9
	c-0.9-1.6-73.5-130.7-73.5-130.7c-1.7-3.1-5.9-5-9.3-4.3L635.4,52c-1.9,0.4-3.4,1.5-4.1,3.1c-0.7,1.6-0.5,3.4,0.5,5.1l120.5,202.9
	c1.8,3,5.9,4.9,9.4,4.3l21-4c3.5-0.7,6.6-3.9,7.2-7.4l39.6-234.1c0.3-1.9-0.2-3.7-1.4-4.9C826.9,15.9,825.1,15.4,823.1,15.8z"/>
<path d="M840,4.7c-4-3.8-9.6-5.5-15-4.4l-45.7,9.2c-7,1.4-12.3,7.1-13.3,14.1c0,0-8.6,62.4-15,109.2c-23.2-41.4-54.4-96.7-54.4-96.7
	c-3.6-6.4-10.8-9.7-18-8.2l-51.1,10.6c-5.3,1.1-9.7,4.7-11.9,9.6c-2.2,4.9-1.8,10.7,0.9,15.3L742,274.8c3.6,6.1,10.6,9.2,17.5,7.9
	l30.7-5.8c6.9-1.3,12.2-6.7,13.4-13.7l41.3-243.8C845.8,14.1,844,8.6,840,4.7z M782,30.8c0.4-2.7,2.8-5.3,5.5-5.8l13.7-2.8v10.5
	l-3.4,3l-0.5,0.4v0.7v7.6l-3.5,3.8l-0.4,0.4v0.6v23.1l-4.6,3.8h-13L782,30.8z M666.4,90.9h1.5v-1.5V71.3h13.2h0.7l0.4-0.6l2.6-3.6
	h10l44.6,79.4l-36.3,30.2l-50.9-85.8H666.4z M635.8,53.9l41.5-8.6c2.7-0.5,5.9,0.9,7.2,3.3l8.7,15.5h-9.1h-0.7l-0.4,0.6l-2.6,3.6
	h-13.9H665v1.5V88h-14.4l-17.1-28.8C632.1,56.8,633.1,54.5,635.8,53.9z M787.9,255.7c-0.5,2.7-3,5.3-5.7,5.8l-21,4
	c-2.7,0.5-6-1-7.4-3.3l-14.9-25l29.8-11l1-0.4v-1v-13.4l7.4-5.7l10.5,0.1h0.5l0.4-0.3l9-7.1L787.9,255.7z M792.3,130.2l3.9-3.8
	l0.4-0.4v-0.6v-7h14.5l-6.9,40.9h-12L792.3,130.2z M827.5,21.6l-15.9,93.8h-16.5h-1.5v1.5v7.8l-3.9,3.8l-0.4,0.4v0.6l-0.1,31.1v1.5
	h1.5h13l-5.4,31.8l-11.2,8.8l-10.5-0.1h-0.5l-0.4,0.3l-8.4,6.4l-0.6,0.4v0.7v13.1l-29.3,10.8l-32.7-55.2l36.2-30.2l17.5,31.1
	c1.3,2.4,2.7,2.1,3.1-0.6l13.8-100.5h13.9h0.5l0.4-0.3l5.5-4.6l0.5-0.4V73V49.8l3.5-3.8l0.4-0.4V45v-7.5l3.4-3l0.7-0.5v-0.7V21.6
	l19.4-3.9C826.2,17.2,828,18.9,827.5,21.6z"/>
<path d="M689.7,129.5c29.6,11.8,37.4,50.6,32.6,94.6c-2.1,19.1-2.5,43-21.1,45.6c-6.3,0.9-13.5-0.6-20.2-1.4
	c-6-0.7-12.8-3.1-18.7-2.4c-3.6,0.4-6.3,3.4-9.6,4.3c-7.3,2.1-16.4,1-26.4,1c-6.1,0-12.4,0.1-17.8-1c-3.3-0.6-6.6-3.1-10.1-3.4
	c-3.2-0.2-6.4,1.5-10.1,1.9c-9.8,1-22.9,1.4-33.1,0.5c-3.7-0.3-7.7-2.5-11-2.4c-3.3,0-6.9,2.5-10.6,2.9c-12.8,1.4-26.3-4.9-37.4-3.8
	c-5.2,0.5-10.4,5.1-17.3,5.8c-9.9,0.9-26.2,0.4-36-1.4c-3.7-0.7-7.5-3.1-11-3.4c-3.2-0.2-6.9,1.6-10.6,1.9c-9.3,0.9-21,1-30.7,0.5
	c-2.8-0.1-5.6-1.1-8.2-1c-4.4,0.3-8.8,3.3-13,3.8c-11.1,1.3-23.6,1.5-34.1,0.5c-3.7-0.4-7.5-2.4-11.5-2.4
	c-5.4-0.1-10.4,2.5-14.9,2.9c-25.9,2.3-45.5-10.2-58.6-24.5c-5.8,2.8-9.5,7.9-14.9,11.5c-24.1,16.1-65.1,11.5-86.4-5.3
	c-3-2.4-7.3-9.7-11-9.6c-3.2,0-8.7,7.4-11.5,9.6c-11.3,8.7-26.6,15-45.6,16.3c-28.6,1.9-51.4-8.8-66.2-22.6
	c-7.6-7.1-18.5-18.7-13.4-33.1c2.6-7.4,10.3-15,15.8-21.6c2.1-2.4,5.2-4.8,5.3-7.2c0.2-4.3-6.8-10.8-8.6-13.9
	c-8.3-14.4-10.9-38.1-2.9-56.2C20.5,95,45.8,79.5,80.1,82c13.1,0.9,26.5,5,37.9,11.5c16.3,9.4,33.2,18,27.8,42.7
	c6.9-1.5,10.8-6.4,16.8-9.1c20.9-9.6,54.2-8.9,73.4,3.4c2.4,1.6,6.1,5.3,8.2,5.3c3.8,0.1,8.5-7.6,12-9.1c7.8-3.3,33-3.5,44.2-2.4
	c4.5,0.4,9,3.6,12.5,3.4c3.8-0.2,8.6-4.9,11.5-5.8c9-2.7,36.5-3.9,46.6-1c3.3,0.9,6.8,4.8,10.6,5.3c3.5,0.4,8.1-1.3,12-1.4
	c7.1-0.3,15.2-0.8,22.1-0.5c5,0.2,9.7,3.1,14.4,3.4c4.4,0.3,9.6-2,14.4-1.9c3.8,0,8.3,0.9,12,1.9c3.6,0.9,7.1,3.4,10.1,3.4
	c4.4,0,9.1-3.3,13-4.3c13.4-3.4,28.4-2.7,42.2,2.4c3.1,1.1,8.7,6.3,12,6.2c3.9,0,8.5-6.8,12-8.2c9.8-3.8,24.3-3.3,36-2.9
	c5.3,0.2,10,3.1,14.9,3.4c4.3,0.2,9-1.9,13.4-1.9c4.2-0.1,8.2,0.9,12,1.9c3.8,1,7.8,3.3,10.6,3.4c3.7,0.1,7.4-2.9,10.6-3.8
	C657.7,122.9,674.9,123.6,689.7,129.5z"/>
<path style="fill:#016D21;" d="M127.2,188.5c3,6,4.5,13.1,4.5,21.4c0,8-1.7,14.9-5,20.7c-3.3,5.8-7.6,10.6-13,14.4
	c-5.3,3.8-11.3,6.6-18.1,8.4c-6.7,1.8-13.5,2.8-20.3,2.8c-13.6,0-25-2.5-34.3-7.5c-9.2-5-17.6-12.6-24.9-22.8L31.9,206
	c1.5-1.8,3.9-1.9,5.5-0.2c0,0,1.8,2,4.9,4.5c3.1,2.4,6.5,4.6,10.1,6.4c3.6,1.8,7.3,3.4,11.1,4.5c3.8,1.2,7.3,1.8,10.5,1.8
	c3.3,0,5.7-0.6,7.4-1.8s2.6-3.4,2.6-6.6c0-2.8-1.5-5.5-4.5-8s-6.8-5.1-11.3-7.9c-4.5-2.7-9.4-5.7-14.6-8.9s-10.1-6.9-14.6-11.2
	c-4.5-4.3-8.3-9.2-11.3-14.7s-4.5-11.9-4.5-19.1c0-7.1,1.3-13.3,4-18.6c2.7-5.3,6.2-9.8,10.8-13.4c4.5-3.6,9.7-6.3,15.6-8.2
	c5.9-1.8,12.2-2.8,18.8-2.8c11.8,0,22.4,2.2,31.8,6.5c9.4,4.4,18.3,10.8,26.7,19.4l-12.8,19.7c-1.3,2-3.8,2.3-5.6,0.8
	c0,0-3.2-2.8-6.8-5.1c-3.5-2.3-7-4.2-10.4-5.9c-3.4-1.6-6.6-2.8-9.5-3.7c-3-0.8-5.5-1.2-7.8-1.2c-2.7,0-4.6,0.7-5.9,2
	c-1.3,1.3-1.9,3-1.9,5.1c0,2.7,1.5,5.1,4.5,7.4s6.8,4.6,11.4,7.1c4.6,2.4,9.5,5.2,14.7,8.2c5.2,3,10.2,6.7,14.7,11
	C120.4,177.4,124.2,182.5,127.2,188.5z M185.3,179.9c1.7-1.8,3.6-3.2,5.7-4.2c2.1-1,4.2-1.4,6.3-1.4c6.2,0,10.8,1.5,13.8,4.6
	c3,3.1,4.4,6.2,4.4,6.2c0.9,2.1,3.5,3.4,5.8,2.9l26.8-6.7c-2.8-12.2-8.5-22-17-29.5s-20-11.2-34.5-11.2c-8.8,0-16.7,1.4-23.6,4.1
	c-6.9,2.7-12.7,6.6-17.5,11.7c-4.7,5.1-8.3,11.2-10.7,18.3c-2.4,7.1-3.6,15.1-3.6,23.9c0,7.6,1.1,14.9,3.3,21.8
	c2.2,6.9,5.6,13,10.3,18.2c4.6,5.2,10.5,9.4,17.6,12.5c7.1,3.1,15.5,4.6,25.4,4.6c5.6,0,11-0.8,16.3-2.5c5.3-1.7,10.2-4.3,14.6-7.7
	c4.4-3.5,8.3-7.8,11.6-13.1c3.3-5.3,6.2-14.7,6.2-14.7c0.7-2.2-0.6-4.6-2.9-5.2l-26-7.4c-0.4,2.4-1.4,4.5-2.9,6.4s-3.1,3.6-5,5
	c-1.8,1.4-3.7,2.5-5.6,3.3c-1.9,0.8-3.7,1.2-5.3,1.2c-5.7,0-10.4-2.2-14-6.6c-3.6-4.4-5.4-10.2-5.4-17.4c0-3.8,0.6-7.1,1.7-9.9
	C182.3,184.1,183.7,181.7,185.3,179.9z M369.5,198.6c-0.4-9.1-0.7-18.5-1.1-28c-0.4-9.5-0.9-26.4-0.9-26.4c-0.1-2.3-2-4.2-4.4-4.2
	l-36.3,0.8c0.4,7.1,0.8,13.2,1.2,18.3c0.4,5.2,0.7,10.1,0.9,14.8c0.2,4.7,0.4,9.6,0.4,14.6c0.1,5,0.1,10.9,0.1,17.7
	c0,5.2-1.7,9.2-5.1,12.3c-3.4,3-7.5,4.5-12.2,4.5c-5,0-8.8-1.5-11.3-4.5s-3.8-6.7-3.8-10.9c0-7.6,0.4-14.8,1.1-22.3
	c0.7-7.4,1.5-14.1,2.2-20.3c0.9-7.1,2.4-16.1,2.4-16.1c0.4-2.3-1.2-4.2-3.6-4.2l-37.8,0.4c-1,7.4-1.9,14.7-2.7,22.1
	c-0.7,6.3-1.4,13-1.9,20.1c-0.5,7.1-0.8,13.4-0.8,19c0,8,1,15.1,2.9,21.5c1.9,6.4,4.9,11.8,8.9,16.3s9.1,7.9,15.4,10.3
	c6.3,2.4,13.8,3.6,22.5,3.6c2.5,0,5.1-0.3,7.8-1c2.7-0.7,5.2-1.6,7.6-2.8c2.4-1.2,4.7-2.5,6.8-4.1c0.9-0.7,2.6-2.9,3.9-2.4
	c1.7,0.6,0.8,4.5,0.8,5.8c0,2.3,1.9,4.2,4.3,4.2l34.7-0.8c-0.3-10.8-0.6-21-1-30.5C370.2,217,369.8,207.7,369.5,198.6z M530.4,161.4
	c-3.4-5.2-8-9.3-13.9-12.2c-5.9-2.9-13.6-4.4-23-4.4c-7.1,0-13.1,1.5-18.2,4.6c-1.4,0.8-2.7,1.7-4,2.6c-1.1,0.8-2.3,1.8-3.3,2.7
	c-0.8,0.7-1.4,1.8-2.6,2c-0.3,0.1-0.6,0.1-0.9,0.1c-1-0.1-1.3-0.8-1.8-1.5c-1.5-2.1-3.4-3.9-5.5-5.4c-3.7-2.6-8.3-3.9-13.9-3.9
	c-2.8,0-5.5,0.4-8,1.3c-2.5,0.9-4.8,2-6.7,3.4c-1.7,1.2-3.1,2.6-4.7,3.9c-0.8,0.6-1.1,1.5-2.2,1.4s-1-1.5-1.1-2.3
	c-0.1-0.9-0.2-1.8-0.3-2.8c-0.1-0.7-0.1-1.4-0.2-2c-0.2-2.3-2.4-4.2-4.7-4.1l-31.8,0.8c0.4,9,0.8,17.6,1,25.8
	c0.2,8.2,0.4,16.6,0.4,25c0.1,8.5,0.1,17.4,0,26.8c0.1,9.4,0.1,26.8,0.1,26.8c0,2.3,1.9,4.2,4.2,4.2l30.8-0.5c2.3,0,4.3-2,4.3-4.3
	l1.2-60.6c0-2.1,0.5-4.1,1.5-6.3c1-2.1,3.5-3.2,7.3-3.2c1.8,0,3.2,0.7,4.2,2s1.9,3.1,2.5,5.3c0.7,2.2,1.1,4.7,1.3,7.6
	c0.2,2.9,0.3,5.8,0.3,8.9c0,7.6,0,13.9,0,18.7c0,4.9,0,9.1-0.1,12.7s-0.2,7-0.3,10.1c-0.1,3.2-0.3,6.7-0.3,6.7
	c-0.1,2.3,1.8,4.3,4.1,4.3l36.2,0.8c-0.3-2.2-0.6-4.9-0.8-8.2c-0.2-3.3-0.4-6.5-0.4-9.9c-0.1-3.4-0.1-6.6-0.2-9.7
	c-0.1-3.1-0.1-5.6-0.1-7.5c0-14.1,0.6-24.6,1.8-31.5c1.2-6.9,4.3-10.4,9.3-10.4c3.1,0,5.5,1.3,7.2,3.9c1.7,2.6,2.5,6.9,2.5,12.9
	c0,5.7-0.7,13-2.1,21.9c-1.4,8.9-5.8,28.1-5.8,28.1c-0.5,2.3,1,4.4,3.3,4.7l36.4,4.5c1.6-9.1,3-17.9,4.1-26.5
	c1.1-8.5,1.7-16.8,1.7-24.9c0-8.7-0.6-16.6-1.9-23.9C536.1,172.9,533.8,166.6,530.4,161.4z M704.2,180.1c-1.3-7.3-3.6-13.5-7-18.7
	c-3.4-5.2-8-9.3-13.9-12.2c-5.9-2.9-13.6-4.4-23-4.4c-7.1,0-13.1,1.5-18.2,4.6c-1.3,0.8-2.6,1.6-3.8,2.5c-1.2,0.8-2.3,1.7-3.3,2.7
	c-0.9,0.8-2,2.7-3.3,2.3c-1-0.3-1.8-1.4-2.4-2.2c-1.4-1.9-3.2-3.5-5.1-4.9c-3.7-2.6-8.3-3.9-13.9-3.9c-2.8,0-5.5,0.4-8,1.3
	c-2.5,0.9-4.7,2-6.7,3.4c-2,1.4-3.6,2.9-4.9,4.4c-0.2,0.2-0.4,0.5-0.6,0.7c-0.3,0.3-0.8,0.8-1.3,0.6c-0.6-0.1-0.9-1-1-1.5
	c-0.2-0.9-0.2-1.8-0.3-2.7c-0.1-1.2-0.2-2.3-0.4-3.5c-0.2-2.3-2.4-4.2-4.7-4.1l-31.8,0.8c0.4,9,0.8,17.6,1,25.8
	c0.2,8.2,0.4,16.6,0.4,25c0.1,8.5,0.1,17.4,0,26.8c-0.1,9.4-0.1,26.8-0.1,26.8c0,2.3,1.9,4.2,4.2,4.2l30.8-0.5c2.3,0,4.3-2,4.3-4.3
	l1.2-60.6c0-2.1,0.5-4.1,1.5-6.3c1-2.1,3.5-3.2,7.3-3.2c1.8,0,3.2,0.7,4.2,2s1.9,3.1,2.5,5.3c0.7,2.2,1.1,4.7,1.3,7.6
	c0.2,2.9,0.3,5.8,0.3,8.9c0,7.6,0,13.9,0,18.7c0,4.9,0,9.1-0.1,12.7c-0.1,3.6-0.2,7-0.3,10.1c-0.1,3.2-0.3,6.7-0.3,6.7
	c-0.1,2.3,1.8,4.3,4.1,4.3c0,0,0,0,0.1,0c1.2,0,2.3,0.1,3.5,0.1c2.5,0.1,5,0.1,7.6,0.2c3.1,0.1,6.2,0.1,9.3,0.2
	c2.9,0.1,5.8,0.1,8.7,0.2c1.8,0,3.9,0.4,5.6,0c1.5-0.3,1.2-1.5,1.1-2.7c-0.1-1.8-0.4-3.5-0.5-5.3c-0.2-3.2-0.4-6.5-0.4-9.9
	c-0.1-3.4-0.1-6.6-0.2-9.7c-0.1-3.1-0.1-5.6-0.1-7.5c0-14.1,0.6-24.6,1.8-31.5c1.2-6.9,4.3-10.4,9.3-10.4c3.1,0,5.5,1.3,7.2,3.9
	c1.7,2.6,2.5,6.9,2.5,12.9c0,5.7-0.7,13-2.1,21.9c-1.4,8.9-5.8,28.1-5.8,28.1c-0.5,2.3,1,4.4,3.3,4.7c1,0.1,2,0.2,3,0.4
	c5,0.6,10,1.2,14.9,1.9c3.2,0.4,6.3,0.7,9.5,1.1c1.9,0.2,3.8,0.6,5.7,0.9c1.2,0.1,2.7,0.7,3.6-0.3c0.9-1,0.8-2.9,1.1-4.1
	c0.3-1.9,0.5-3.8,0.7-5.7c0.2-2.9,0.6-5.8,1-8.7c0.3-2.4,0.7-4.9,1-7.3c1.1-8.5,1.7-16.8,1.7-24.9
	C706,195.4,705.4,187.4,704.2,180.1z"/>
<path style="fill:#00C832;" d="M127.2,181.5c3,6,4.5,13.1,4.5,21.4c0,8-1.7,14.9-5,20.7c-3.3,5.8-7.6,10.6-13,14.4
	c-5.3,3.8-11.3,6.6-18.1,8.4c-6.7,1.8-13.5,2.8-20.3,2.8c-13.6,0-25-2.5-34.3-7.5c-9.2-5-17.6-12.6-24.9-22.8L31.9,199
	c1.5-1.8,3.9-1.9,5.5-0.2c0,0,1.8,2,4.9,4.5c3.1,2.4,6.5,4.6,10.1,6.4c3.6,1.8,7.3,3.4,11.1,4.5c3.8,1.2,7.3,1.8,10.5,1.8
	c3.3,0,5.7-0.6,7.4-1.8s2.6-3.4,2.6-6.6c0-2.8-1.5-5.5-4.5-8s-6.8-5.1-11.3-7.9c-4.5-2.7-9.4-5.7-14.6-8.9s-10.1-6.9-14.6-11.2
	c-4.5-4.3-8.3-9.2-11.3-14.7s-4.5-11.9-4.5-19.1c0-7.1,1.3-13.3,4-18.6c2.7-5.3,6.2-9.8,10.8-13.4c4.5-3.6,9.7-6.3,15.6-8.2
	c5.9-1.8,12.2-2.8,18.8-2.8c11.8,0,22.4,2.2,31.8,6.5c9.4,4.4,18.3,10.8,26.7,19.4l-12.8,19.7c-1.3,2-3.8,2.3-5.6,0.8
	c0,0-3.2-2.8-6.8-5.1c-3.5-2.3-7-4.2-10.4-5.9c-3.4-1.6-6.6-2.8-9.5-3.7c-3-0.8-5.5-1.2-7.8-1.2c-2.7,0-4.6,0.7-5.9,2
	c-1.3,1.3-1.9,3-1.9,5.1c0,2.7,1.5,5.1,4.5,7.4s6.8,4.6,11.4,7.1c4.6,2.4,9.5,5.2,14.7,8.2c5.2,3,10.2,6.7,14.7,11
	C120.4,170.4,124.2,175.5,127.2,181.5z M185.3,172.9c1.7-1.8,3.6-3.2,5.7-4.2c2.1-1,4.2-1.4,6.3-1.4c6.2,0,10.8,1.5,13.8,4.6
	c3,3.1,4.4,6.2,4.4,6.2c0.9,2.1,3.5,3.4,5.8,2.9l26.8-6.7c-2.8-12.2-8.5-22-17-29.5s-20-11.2-34.5-11.2c-8.8,0-16.7,1.4-23.6,4.1
	c-6.9,2.7-12.7,6.6-17.5,11.7c-4.7,5.1-8.3,11.2-10.7,18.3c-2.4,7.1-3.6,15.1-3.6,23.9c0,7.6,1.1,14.9,3.3,21.8
	c2.2,6.9,5.6,13,10.3,18.2c4.6,5.2,10.5,9.4,17.6,12.5c7.1,3.1,15.5,4.6,25.4,4.6c5.6,0,11-0.8,16.3-2.5c5.3-1.7,10.2-4.3,14.6-7.7
	c4.4-3.5,8.3-7.8,11.6-13.1c3.3-5.3,6.2-14.7,6.2-14.7c0.7-2.2-0.6-4.6-2.9-5.2l-26-7.4c-0.4,2.4-1.4,4.5-2.9,6.4s-3.1,3.6-5,5
	c-1.8,1.4-3.7,2.5-5.6,3.3c-1.9,0.8-3.7,1.2-5.3,1.2c-5.7,0-10.4-2.2-14-6.6c-3.6-4.4-5.4-10.2-5.4-17.4c0-3.8,0.6-7.1,1.7-9.9
	C182.3,177.1,183.7,174.7,185.3,172.9z M369.5,191.6c-0.4-9.1-0.7-18.5-1.1-28c-0.4-9.5-0.9-26.4-0.9-26.4c-0.1-2.3-2-4.2-4.4-4.2
	l-36.3,0.8c0.4,7.1,0.8,13.2,1.2,18.3c0.4,5.2,0.7,10.1,0.9,14.8c0.2,4.7,0.4,9.6,0.4,14.6c0.1,5,0.1,10.9,0.1,17.7
	c0,5.2-1.7,9.2-5.1,12.3c-3.4,3-7.5,4.5-12.2,4.5c-5,0-8.8-1.5-11.3-4.5s-3.8-6.7-3.8-10.9c0-7.6,0.4-14.8,1.1-22.3
	c0.7-7.4,1.5-14.1,2.2-20.3c0.9-7.1,2.4-16.1,2.4-16.1c0.4-2.3-1.2-4.2-3.6-4.2l-37.8,0.4c-1,7.4-1.9,14.7-2.7,22.1
	c-0.7,6.3-1.4,13-1.9,20.1c-0.5,7.1-0.8,13.4-0.8,19c0,8,1,15.1,2.9,21.5c1.9,6.4,4.9,11.8,8.9,16.3s9.1,7.9,15.4,10.3
	c6.3,2.4,13.8,3.6,22.5,3.6c2.5,0,5.1-0.3,7.8-1c2.7-0.7,5.2-1.6,7.6-2.8c2.4-1.2,4.7-2.5,6.8-4.1c0.9-0.7,2.6-2.9,3.9-2.4
	c1.7,0.6,0.8,4.5,0.8,5.8c0,2.3,1.9,4.2,4.3,4.2l34.7-0.8c-0.3-10.8-0.6-21-1-30.5C370.2,210,369.8,200.7,369.5,191.6z M530.4,154.4
	c-3.4-5.2-8-9.3-13.9-12.2c-5.9-2.9-13.6-4.4-23-4.4c-7.1,0-13.1,1.5-18.2,4.6c-1.4,0.8-2.7,1.7-4,2.6c-1.1,0.8-2.3,1.8-3.3,2.7
	c-0.8,0.7-1.4,1.8-2.6,2c-0.3,0.1-0.6,0.1-0.9,0.1c-1-0.1-1.3-0.8-1.8-1.5c-1.5-2.1-3.4-3.9-5.5-5.4c-3.7-2.6-8.3-3.9-13.9-3.9
	c-2.8,0-5.5,0.4-8,1.3c-2.5,0.9-4.8,2-6.7,3.4c-1.7,1.2-3.1,2.6-4.7,3.9c-0.8,0.6-1.1,1.5-2.2,1.4s-1-1.5-1.1-2.3
	c-0.1-0.9-0.2-1.8-0.3-2.8c-0.1-0.7-0.1-1.4-0.2-2c-0.2-2.3-2.4-4.2-4.7-4.1l-31.8,0.8c0.4,9,0.8,17.6,1,25.8
	c0.2,8.2,0.4,16.6,0.4,25c0.1,8.5,0.1,17.4,0,26.8c0.1,9.4,0.1,26.8,0.1,26.8c0,2.3,1.9,4.2,4.2,4.2l30.8-0.5c2.3,0,4.3-2,4.3-4.3
	l1.2-60.6c0-2.1,0.5-4.1,1.5-6.3c1-2.1,3.5-3.2,7.3-3.2c1.8,0,3.2,0.7,4.2,2s1.9,3.1,2.5,5.3c0.7,2.2,1.1,4.7,1.3,7.6
	c0.2,2.9,0.3,5.8,0.3,8.9c0,7.6,0,13.9,0,18.7c0,4.9,0,9.1-0.1,12.7s-0.2,7-0.3,10.1c-0.1,3.2-0.3,6.7-0.3,6.7
	c-0.1,2.3,1.8,4.3,4.1,4.3l36.2,0.8c-0.3-2.2-0.6-4.9-0.8-8.2c-0.2-3.3-0.4-6.5-0.4-9.9c-0.1-3.4-0.1-6.6-0.2-9.7
	c-0.1-3.1-0.1-5.6-0.1-7.5c0-14.1,0.6-24.6,1.8-31.5c1.2-6.9,4.3-10.4,9.3-10.4c3.1,0,5.5,1.3,7.2,3.9c1.7,2.6,2.5,6.9,2.5,12.9
	c0,5.7-0.7,13-2.1,21.9c-1.4,8.9-5.8,28.1-5.8,28.1c-0.5,2.3,1,4.4,3.3,4.7l36.4,4.5c1.6-9.1,3-17.9,4.1-26.5
	c1.1-8.5,1.7-16.8,1.7-24.9c0-8.7-0.6-16.6-1.9-23.9C536.1,165.9,533.8,159.6,530.4,154.4z M704.2,173.1c-1.3-7.3-3.6-13.5-7-18.7
	c-3.4-5.2-8-9.3-13.9-12.2c-5.9-2.9-13.6-4.4-23-4.4c-7.1,0-13.1,1.5-18.2,4.6c-1.3,0.8-2.6,1.6-3.8,2.5c-1.2,0.8-2.3,1.7-3.3,2.7
	c-0.9,0.8-2,2.7-3.3,2.3c-1-0.3-1.8-1.4-2.4-2.2c-1.4-1.9-3.2-3.5-5.1-4.9c-3.7-2.6-8.3-3.9-13.9-3.9c-2.8,0-5.5,0.4-8,1.3
	c-2.5,0.9-4.7,2-6.7,3.4c-2,1.4-3.6,2.9-4.9,4.4c-0.2,0.2-0.4,0.5-0.6,0.7c-0.3,0.3-0.8,0.8-1.3,0.6c-0.6-0.1-0.9-1-1-1.5
	c-0.2-0.9-0.2-1.8-0.3-2.7c-0.1-1.2-0.2-2.3-0.4-3.5c-0.2-2.3-2.4-4.2-4.7-4.1l-31.8,0.8c0.4,9,0.8,17.6,1,25.8
	c0.2,8.2,0.4,16.6,0.4,25c0.1,8.5,0.1,17.4,0,26.8c-0.1,9.4-0.1,26.8-0.1,26.8c0,2.3,1.9,4.2,4.2,4.2l30.8-0.5c2.3,0,4.3-2,4.3-4.3
	l1.2-60.6c0-2.1,0.5-4.1,1.5-6.3c1-2.1,3.5-3.2,7.3-3.2c1.8,0,3.2,0.7,4.2,2s1.9,3.1,2.5,5.3c0.7,2.2,1.1,4.7,1.3,7.6
	c0.2,2.9,0.3,5.8,0.3,8.9c0,7.6,0,13.9,0,18.7c0,4.9,0,9.1-0.1,12.7c-0.1,3.6-0.2,7-0.3,10.1c-0.1,3.2-0.3,6.7-0.3,6.7
	c-0.1,2.3,1.8,4.3,4.1,4.3c0,0,0,0,0.1,0c1.2,0,2.3,0.1,3.5,0.1c2.5,0.1,5,0.1,7.6,0.2c3.1,0.1,6.2,0.1,9.3,0.2
	c2.9,0.1,5.8,0.1,8.7,0.2c1.8,0,3.9,0.4,5.6,0c1.5-0.3,1.2-1.5,1.1-2.7c-0.1-1.8-0.4-3.5-0.5-5.3c-0.2-3.2-0.4-6.5-0.4-9.9
	c-0.1-3.4-0.1-6.6-0.2-9.7c-0.1-3.1-0.1-5.6-0.1-7.5c0-14.1,0.6-24.6,1.8-31.5c1.2-6.9,4.3-10.4,9.3-10.4c3.1,0,5.5,1.3,7.2,3.9
	c1.7,2.6,2.5,6.9,2.5,12.9c0,5.7-0.7,13-2.1,21.9c-1.4,8.9-5.8,28.1-5.8,28.1c-0.5,2.3,1,4.4,3.3,4.7c1,0.1,2,0.2,3,0.4
	c5,0.6,10,1.2,14.9,1.9c3.2,0.4,6.3,0.7,9.5,1.1c1.9,0.2,3.8,0.6,5.7,0.9c1.2,0.1,2.7,0.7,3.6-0.3c0.9-1,0.8-2.9,1.1-4.1
	c0.3-1.9,0.5-3.8,0.7-5.7c0.2-2.9,0.6-5.8,1-8.7c0.3-2.4,0.7-4.9,1-7.3c1.1-8.5,1.7-16.8,1.7-24.9
	C706,188.4,705.4,180.4,704.2,173.1z"/>
</svg>
