<svg width="1108" height="301" viewBox="0 0 1108 301" fill="none" xmlns="http://www.w3.org/2000/svg">
<path fill-rule="evenodd" clip-rule="evenodd" d="M723.2 224.1C728 180.1 720.2 141.3 690.6 129.5C675.8 123.6 658.6 122.9 644.2 127.3C643.004 127.636 641.737 128.267 640.427 128.918C638.233 130.01 635.917 131.163 633.6 131.1C631.961 131.041 629.91 130.229 627.729 129.364C626.185 128.752 624.575 128.114 623 127.7C619.2 126.7 615.2 125.7 611 125.8C608.892 125.8 606.716 126.282 604.547 126.762C602.189 127.284 599.84 127.804 597.6 127.7C595.251 127.556 592.948 126.815 590.602 126.06C588.056 125.24 585.459 124.404 582.7 124.3L582.664 124.299C570.97 123.899 556.49 123.404 546.7 127.2C545.244 127.782 543.597 129.3 541.889 130.874C539.493 133.082 536.977 135.4 534.7 135.4C532.696 135.461 529.844 133.567 527.219 131.824C525.521 130.696 523.918 129.632 522.7 129.2C508.9 124.1 493.9 123.4 480.5 126.8C479.017 127.18 477.418 127.893 475.764 128.631C473.068 129.833 470.227 131.1 467.5 131.1C465.757 131.1 463.846 130.256 461.844 129.373C460.4 128.735 458.909 128.077 457.4 127.7C453.7 126.7 449.2 125.8 445.4 125.8C443.058 125.751 440.62 126.274 438.227 126.787C435.716 127.325 433.253 127.854 431 127.7C428.737 127.555 426.473 126.808 424.177 126.05C421.704 125.233 419.192 124.404 416.6 124.3C410.882 124.051 404.341 124.352 398.227 124.633C396.963 124.691 395.717 124.749 394.5 124.8C392.796 124.844 390.959 125.193 389.138 125.539C386.791 125.984 384.471 126.425 382.5 126.2C380.386 125.922 378.364 124.591 376.419 123.31C374.867 122.289 373.364 121.299 371.9 120.9C361.8 118 334.3 119.2 325.3 121.9C324.144 122.259 322.686 123.221 321.11 124.262C318.732 125.832 316.085 127.58 313.8 127.7C311.986 127.804 309.904 126.994 307.693 126.135C305.636 125.335 303.468 124.493 301.3 124.3C290.1 123.2 264.9 123.4 257.1 126.7C255.632 127.329 253.952 129.05 252.217 130.828C249.815 133.288 247.306 135.858 245.1 135.8C243.64 135.8 241.405 134.01 239.372 132.382C238.482 131.669 237.631 130.987 236.9 130.5C217.7 118.2 184.4 117.5 163.5 127.1C161.099 128.18 159.034 129.613 156.979 131.039C153.898 133.177 150.839 135.3 146.7 136.2C151.894 112.441 136.455 103.578 120.764 94.5715C120.143 94.2149 119.521 93.858 118.9 93.4999C107.5 86.9999 94.1001 82.8999 81.0001 81.9999C46.7001 79.4999 21.4001 94.9999 11.8001 116.5C3.8001 134.6 6.4001 158.3 14.7001 172.7C15.2559 173.657 16.3074 174.938 17.4897 176.379C20.1365 179.604 23.4383 183.628 23.3001 186.6C23.2251 188.4 21.4626 190.2 19.7001 192C19.1126 192.6 18.5251 193.2 18.0001 193.8C16.8347 195.198 15.5704 196.642 14.2769 198.119C9.46585 203.612 4.24916 209.568 2.2001 215.4C-2.8999 229.8 8.0001 241.4 15.6001 248.5C30.4001 262.3 53.2001 273 81.8001 271.1C100.8 269.8 116.1 263.5 127.4 254.8C128.299 254.094 129.476 252.852 130.766 251.491C133.494 248.612 136.727 245.2 138.9 245.2C141.361 245.133 144.087 248.34 146.52 251.202C147.745 252.643 148.895 253.996 149.9 254.8C171.2 271.6 212.2 276.2 236.3 260.1C238.566 258.589 240.533 256.814 242.482 255.055C245.176 252.624 247.834 250.225 251.2 248.6C264.3 262.9 283.9 275.4 309.8 273.1C311.702 272.931 313.693 272.369 315.766 271.784C318.598 270.985 321.582 270.142 324.7 270.2C326.969 270.2 329.173 270.843 331.331 271.473C332.978 271.954 334.599 272.427 336.2 272.6C346.7 273.6 359.2 273.4 370.3 272.1C372.286 271.864 374.317 271.068 376.371 270.264C378.661 269.367 380.981 268.458 383.3 268.3C384.708 268.246 386.175 268.514 387.669 268.788C388.933 269.019 390.217 269.254 391.5 269.3C401.2 269.8 412.9 269.7 422.2 268.8C423.847 268.666 425.495 268.235 427.098 267.816C429.096 267.294 431.025 266.789 432.8 266.9C434.704 267.063 436.698 267.848 438.715 268.643C440.406 269.308 442.113 269.981 443.8 270.3C453.6 272.1 469.9 272.6 479.8 271.7C483.481 271.327 486.678 269.843 489.65 268.464C492.248 267.259 494.674 266.133 497.1 265.9C502.406 265.374 508.259 266.539 514.323 267.745C520.945 269.063 527.818 270.431 534.5 269.7C536.249 269.511 537.975 268.853 539.658 268.211C541.536 267.495 543.36 266.8 545.1 266.8C546.867 266.746 548.836 267.353 550.851 267.973C552.599 268.511 554.382 269.061 556.1 269.2C566.3 270.1 579.4 269.7 589.2 268.7C590.794 268.528 592.295 268.114 593.743 267.715C595.657 267.188 597.479 266.686 599.3 266.8C601.212 266.964 603.065 267.785 604.891 268.593C606.406 269.265 607.903 269.928 609.4 270.2C614.385 271.215 620.138 271.208 625.791 271.201C626.262 271.201 626.732 271.2 627.2 271.2C629.837 271.2 632.411 271.276 634.906 271.351C641.874 271.558 648.225 271.746 653.6 270.2C655.05 269.805 656.384 269.004 657.729 268.197C659.446 267.166 661.182 266.124 663.2 265.9C667.064 265.441 671.315 266.313 675.473 267.165C677.664 267.614 679.83 268.058 681.9 268.3C683.354 268.473 684.831 268.68 686.317 268.888C691.682 269.638 697.167 270.405 702.1 269.7C718.901 267.351 720.852 247.625 722.62 229.754C722.81 227.84 722.997 225.948 723.2 224.1ZM132.6 206.9C132.6 198.6 131.1 191.5 128.1 185.5C125.1 179.5 121.3 174.4 116.4 170.1C111.9 165.8 106.9 162.1 101.7 159.1C96.5 156.1 91.6 153.3 87 150.9C82.4 148.4 78.6 146.1 75.6 143.8C72.6 141.5 71.1 139.1 71.1 136.4C71.1 134.3 71.7 132.6 73 131.3C74.3 130 76.2 129.3 78.9 129.3C81.2 129.3 83.7 129.7 86.7 130.5C89.6 131.4 92.8 132.6 96.2 134.2C99.6 135.9 103.1 137.8 106.6 140.1C110.2 142.4 113.4 145.2 113.4 145.2C115.2 146.7 117.7 146.4 119 144.4L131.8 124.7C123.4 116.1 114.5 109.7 105.1 105.3C95.7 101 85.1 98.8 73.3 98.8C66.7 98.8 60.4 99.8 54.5 101.6C48.6 103.5 43.4 106.2 38.9 109.8C34.3 113.4 30.8 117.9 28.1 123.2C25.4 128.5 24.1 134.7 24.1 141.8C24.1 149 25.6 155.4 28.6 160.9C31.6 166.4 35.4 171.3 39.9 175.6C44.4 179.9 49.3 183.6 54.5 186.8C59.7 190 64.6 193 69.1 195.7C73.6 198.5 77.4 201.1 80.4 203.6C83.4 206.1 84.9 208.8 84.9 211.6C84.9 214.8 84 217 82.3 218.2C80.6 219.4 78.2 220 74.9 220C71.7 220 68.2 219.4 64.4 218.2C60.6 217.1 56.9 215.5 53.3 213.7C49.7 211.9 46.3 209.7 43.2 207.3C40.1 204.8 38.3 202.8 38.3 202.8C36.7 201.1 34.3 201.2 32.8 203L17 222.9C24.3 233.1 32.7 240.7 41.9 245.7C51.2 250.7 62.6 253.2 76.2 253.2C83 253.2 89.8 252.2 96.5 250.4C103.3 248.6 109.3 245.8 114.6 242C120 238.2 124.3 233.4 127.6 227.6C130.9 221.8 132.6 214.9 132.6 206.9ZM191.9 172.7C189.8 173.7 187.9 175.1 186.2 176.9C184.6 178.7 183.2 181.1 182 184.1C180.9 186.9 180.3 190.2 180.3 194C180.3 201.2 182.1 207 185.7 211.4C189.3 215.8 194 218 199.7 218C201.3 218 203.1 217.6 205 216.8C206.9 216 208.8 214.9 210.6 213.5C212.5 212.1 214.1 210.4 215.6 208.5C217.1 206.6 218.1 204.5 218.5 202.1L244.5 209.5C246.8 210.1 248.1 212.5 247.4 214.7C247.4 214.7 244.5 224.1 241.2 229.4C237.9 234.7 234 239 229.6 242.5C225.2 245.9 220.3 248.5 215 250.2C209.7 251.9 204.3 252.7 198.7 252.7C188.8 252.7 180.4 251.2 173.3 248.1C166.2 245 160.3 240.8 155.7 235.6C151 230.4 147.6 224.3 145.4 217.4C143.2 210.5 142.1 203.2 142.1 195.6C142.1 186.8 143.3 178.8 145.7 171.7C148.1 164.6 151.7 158.5 156.4 153.4C161.2 148.3 167 144.4 173.9 141.7C180.8 139 188.7 137.6 197.5 137.6C212 137.6 223.5 141.3 232 148.8C240.5 156.3 246.2 166.1 249 178.3L222.2 185C219.9 185.5 217.3 184.2 216.4 182.1C216.4 182.1 215 179 212 175.9C209 172.8 204.4 171.3 198.2 171.3C196.1 171.3 194 171.7 191.9 172.7ZM369.812 180.738C370 185.757 370.186 190.722 370.4 195.6C370.541 199.888 370.705 204.219 370.87 208.585C371.055 213.486 371.241 218.429 371.4 223.4C371.8 232.9 372.1 243.1 372.4 253.9L337.7 254.7C335.3 254.7 333.4 252.8 333.4 250.5C333.4 250.217 333.443 249.811 333.492 249.342C333.669 247.659 333.93 245.169 332.6 244.7C331.61 244.319 330.388 245.504 329.464 246.4C329.175 246.681 328.915 246.933 328.7 247.1C326.6 248.7 324.3 250 321.9 251.2C319.5 252.4 317 253.3 314.3 254C311.6 254.7 309 255 306.5 255C297.8 255 290.3 253.8 284 251.4C277.7 249 272.6 245.6 268.6 241.1C264.6 236.6 261.6 231.2 259.7 224.8C257.8 218.4 256.8 211.3 256.8 203.3C256.8 197.7 257.1 191.4 257.6 184.3C258.1 177.2 258.8 170.5 259.5 164.2C260.3 156.8 261.2 149.5 262.2 142.1L300 141.7C302.4 141.7 304 143.6 303.6 145.9C303.6 145.9 302.1 154.9 301.2 162C301.065 163.193 300.927 164.404 300.786 165.635C300.196 170.804 299.565 176.324 299 182.3C298.3 189.8 297.9 197 297.9 204.6C297.9 208.8 299.2 212.5 301.7 215.5C304.2 218.5 308 220 313 220C317.7 220 321.8 218.5 325.2 215.5C328.6 212.4 330.3 208.4 330.3 203.2V203.194C330.3 196.396 330.3 190.499 330.2 185.5C330.2 180.5 330 175.6 329.8 170.9C329.6 166.2 329.3 161.3 328.9 156.1C328.5 151 328.1 144.9 327.7 137.8L364 137C366.4 137 368.3 138.9 368.4 141.2C368.4 141.2 368.9 158.1 369.3 167.6C369.486 172.007 369.65 176.393 369.812 180.738ZM517.4 146.2C523.3 149.1 527.9 153.2 531.3 158.4C534.7 163.6 537 169.9 538.2 176.9C539.5 184.2 540.1 192.1 540.1 200.8C540.1 208.9 539.5 217.2 538.4 225.7C537.3 234.3 535.9 243.1 534.3 252.2L497.9 247.7C495.6 247.4 494.1 245.3 494.6 243C494.6 243 499 223.8 500.4 214.9C501.8 206 502.5 198.7 502.5 193C502.5 187 501.7 182.7 500 180.1C498.3 177.5 495.9 176.2 492.8 176.2C487.8 176.2 484.7 179.7 483.5 186.6C482.3 193.5 481.7 204 481.7 218.1V218.102C481.7 220.002 481.7 222.501 481.8 225.6C481.851 227.186 481.876 228.799 481.902 230.451C481.926 232.027 481.951 233.64 482 235.3C482 238.606 482.189 241.723 482.383 244.926L482.4 245.2C482.6 248.5 482.9 251.2 483.2 253.4L447 252.6C444.7 252.6 442.8 250.6 442.9 248.3C442.9 248.3 443.1 244.8 443.2 241.6C443.3 238.5 443.4 235.1 443.5 231.5C443.6 227.9 443.6 223.7 443.6 218.8V200.1C443.6 197 443.5 194.1 443.3 191.2C443.1 188.3 442.7 185.8 442 183.6C441.4 181.4 440.5 179.6 439.5 178.3C438.5 177 437.1 176.3 435.3 176.3C431.5 176.3 429 177.4 428 179.5C427 181.7 426.5 183.7 426.5 185.8L425.3 246.4C425.3 248.7 423.3 250.7 421 250.7L390.2 251.2C387.9 251.2 386 249.3 386 247C386 247 386 229.6 385.9 220.2C386 210.8 386 201.9 385.9 193.4C385.9 185 385.7 176.6 385.5 168.4C385.318 160.932 384.97 153.132 384.607 145C384.571 144.203 384.536 143.403 384.5 142.6L416.3 141.8C418.6 141.7 420.8 143.6 421 145.9C421.052 146.211 421.077 146.548 421.103 146.899C421.127 147.225 421.152 147.563 421.2 147.9C421.3 148.9 421.4 149.8 421.5 150.7C421.516 150.827 421.527 150.97 421.538 151.12C421.599 151.913 421.675 152.916 422.6 153C423.358 153.069 423.737 152.662 424.161 152.207C424.351 152.002 424.552 151.786 424.8 151.6C425.397 151.115 425.965 150.617 426.532 150.12C427.486 149.284 428.434 148.453 429.5 147.7C431.4 146.3 433.7 145.2 436.2 144.3C438.7 143.4 441.4 143 444.2 143C449.8 143 454.4 144.3 458.1 146.9C460.2 148.4 462.1 150.2 463.6 152.3C463.677 152.408 463.749 152.515 463.819 152.62C464.209 153.201 464.554 153.715 465.4 153.8C465.7 153.8 466 153.8 466.3 153.7C467.159 153.557 467.71 152.953 468.247 152.365C468.461 152.131 468.672 151.899 468.9 151.7C469.9 150.8 471.1 149.8 472.2 149C473.5 148.1 474.8 147.2 476.2 146.4C481.3 143.3 487.3 141.8 494.4 141.8C503.8 141.8 511.5 143.3 517.4 146.2ZM698.1 158.4C701.5 163.6 703.8 169.8 705.1 177.1C706.3 184.4 706.9 192.4 706.9 200.8C706.9 208.9 706.3 217.2 705.2 225.7C705.05 226.9 704.875 228.125 704.7 229.35C704.525 230.575 704.35 231.8 704.2 233C703.8 235.9 703.4 238.8 703.2 241.7C703 243.6 702.8 245.5 702.5 247.4C702.409 247.766 702.354 248.197 702.298 248.647C702.168 249.675 702.026 250.805 701.4 251.5C700.708 252.269 699.66 252.092 698.667 251.923C698.369 251.873 698.077 251.823 697.8 251.8C697.167 251.7 696.533 251.589 695.9 251.478C694.633 251.256 693.367 251.033 692.1 250.9C690.5 250.7 688.925 250.525 687.35 250.35C685.775 250.175 684.2 250 682.6 249.8C677.7 249.1 672.7 248.5 667.7 247.9C666.7 247.7 665.7 247.6 664.7 247.5C662.4 247.2 660.9 245.1 661.4 242.8C661.4 242.8 665.8 223.6 667.2 214.7C668.6 205.8 669.3 198.5 669.3 192.8C669.3 186.8 668.5 182.5 666.8 179.9C665.1 177.3 662.7 176 659.6 176C654.6 176 651.5 179.5 650.3 186.4C649.1 193.3 648.5 203.8 648.5 217.9C648.5 219.8 648.5 222.3 648.6 225.4C648.651 226.986 648.676 228.599 648.702 230.251C648.726 231.827 648.751 233.44 648.8 235.1C648.8 238.5 649 241.8 649.2 245C649.25 245.9 649.35 246.775 649.45 247.65C649.55 248.525 649.65 249.4 649.7 250.3C649.711 250.426 649.723 250.551 649.736 250.676C649.843 251.742 649.943 252.731 648.6 253C647.46 253.268 646.14 253.177 644.851 253.087C644.218 253.043 643.593 253 643 253C641.55 252.95 640.1 252.925 638.65 252.9C637.2 252.875 635.75 252.85 634.3 252.8C632.75 252.75 631.2 252.725 629.65 252.7C628.1 252.675 626.55 252.65 625 252.6C623.713 252.551 622.451 252.526 621.2 252.501C619.925 252.476 618.663 252.451 617.4 252.4C616.8 252.4 616.225 252.375 615.65 252.35C615.075 252.325 614.5 252.3 613.9 252.3H613.8C611.5 252.3 609.6 250.3 609.7 248C609.7 248 609.9 244.5 610 241.3C610.1 238.2 610.2 234.8 610.3 231.2C610.4 227.6 610.4 223.4 610.4 218.5V199.8C610.4 196.7 610.3 193.8 610.1 190.9C609.9 188 609.5 185.5 608.8 183.3C608.2 181.1 607.3 179.3 606.3 178C605.3 176.7 603.9 176 602.1 176C598.3 176 595.8 177.1 594.8 179.2C593.8 181.4 593.3 183.4 593.3 185.5L592.1 246.1C592.1 248.4 590.1 250.4 587.8 250.4L557 250.9C554.7 250.9 552.8 249 552.8 246.7C552.8 246.7 552.8 229.3 552.9 219.9C553 210.5 553 201.6 552.9 193.1C552.9 184.7 552.7 176.3 552.5 168.1C552.318 160.63 551.97 152.827 551.607 144.693C551.571 143.899 551.536 143.101 551.5 142.3L583.3 141.5C585.6 141.4 587.8 143.3 588 145.6C588.2 146.8 588.3 147.9 588.4 149.1C588.433 149.4 588.456 149.7 588.478 150C588.522 150.6 588.567 151.2 588.7 151.8C588.8 152.3 589.1 153.2 589.7 153.3C590.2 153.5 590.7 153 591 152.7C591.1 152.6 591.2 152.475 591.3 152.35C591.4 152.225 591.5 152.1 591.6 152C592.9 150.5 594.5 149 596.5 147.6C598.5 146.2 600.7 145.1 603.2 144.2C605.7 143.3 608.4 142.9 611.2 142.9C616.8 142.9 621.4 144.2 625.1 146.8C627 148.2 628.8 149.8 630.2 151.7L630.255 151.773C630.848 152.565 631.63 153.609 632.6 153.9C633.566 154.197 634.422 153.224 635.168 152.376C635.425 152.083 635.669 151.805 635.9 151.6C636.9 150.6 638 149.7 639.2 148.9C640.4 148 641.7 147.2 643 146.4C648.1 143.3 654.1 141.8 661.2 141.8C670.6 141.8 678.3 143.3 684.2 146.2C690.1 149.1 694.7 153.2 698.1 158.4Z" fill="white"/>
<path d="M1102.11 37.1297C1098.41 32.7297 1093.21 29.9297 1087.41 29.4297L1052.21 26.3297C1042.91 25.5297 1033.31 30.6297 1028.81 38.8297C1028.81 38.8297 981.611 125.03 959.211 166.03C947.111 121.13 922.111 28.3297 922.111 28.3297C919.611 18.9297 911.111 11.7297 901.411 10.8297L862.611 6.92974C850.911 5.72974 840.511 13.9297 838.711 25.5297L804.911 252.33C804.011 258.13 805.611 264.13 809.211 268.73C812.811 273.33 818.311 276.23 824.111 276.73L855.411 279.43C867.011 280.43 877.411 272.13 879.011 260.63C879.011 260.63 883.411 228.93 887.811 197.53C898.411 233.73 908.911 270.03 908.911 270.03C911.611 279.13 920.011 286.23 929.511 287.23L950.411 289.43C959.711 290.43 969.411 285.43 974.011 277.43C974.011 277.43 992.611 245.13 1011.21 212.83C1008.61 242.83 1006.01 273.13 1006.01 273.13C1005.91 273.73 1005.91 274.33 1005.91 275.03C1005.91 286.03 1014.31 295.53 1025.41 296.63L1062.91 300.53C1068.71 301.13 1074.41 299.43 1078.91 295.73C1083.41 292.03 1086.21 286.83 1086.71 281.03L1107.01 53.0297C1107.61 47.1297 1105.81 41.5297 1102.11 37.1297ZM1043.41 46.9297C1044.71 44.5297 1048.01 42.8297 1050.71 43.0297L1062.31 44.0297L1050.41 79.7297H1025.51L1043.41 46.9297ZM860.811 23.5297L899.611 27.4297C902.311 27.7297 905.111 30.0297 905.811 32.6297L916.511 72.3297H870.411L870.111 73.3297L864.311 91.6297H845.711L855.211 27.8297C855.611 25.2297 858.111 23.2297 860.811 23.5297ZM842.111 200.63L848.911 204.33L849.211 204.53H869.811L867.111 225.03L826.611 220.23L829.511 200.63H842.111ZM856.911 262.73L825.611 260.03C822.911 259.83 821.011 257.43 821.411 254.73L826.111 223.13L866.711 227.93L862.511 258.33C862.111 261.03 859.611 263.03 856.911 262.73ZM883.411 122.43C882.611 119.83 881.711 119.93 881.311 122.53L870.311 201.63H850.111L843.311 197.93L843.011 197.73H842.611L830.011 197.63L845.311 94.7297H866.511L866.811 93.7297L872.611 75.4297H917.311L938.911 155.33H916.411V210.73H909.111L883.411 122.43ZM1064.71 283.93L1046.61 282.03L1048.41 256.03L1057.81 254.83L1058.61 254.73L1058.91 254.03L1061.31 249.23H1072.71L1070.01 279.53C1069.81 282.23 1067.41 284.13 1064.71 283.93ZM1073.01 246.23H1059.51L1059.11 247.03L1056.71 252.03L1046.91 253.33L1045.71 253.53L1045.61 254.73L1043.71 281.83L1027.31 280.13C1024.61 279.83 1022.61 277.43 1022.81 274.73L1029.41 197.43H1051.21V195.93L1051.31 148.83L1059.71 118.43L1084.41 118.53L1073.01 246.23ZM1084.71 115.43L1058.61 115.33H1057.51L1057.21 116.43L1048.41 148.13L1048.31 148.33V148.53L1048.21 194.33H1029.61L1033.91 144.13C1034.11 141.43 1033.21 141.13 1031.91 143.53L959.511 269.03C958.111 271.33 954.811 273.03 952.111 272.73L931.211 270.53C928.511 270.23 925.711 267.93 924.911 265.33L909.911 213.73H919.311V158.33H939.611L952.411 205.93C953.111 208.53 954.711 208.73 956.011 206.33L1023.71 82.6297H1052.41L1052.71 81.6297L1065.11 44.3297L1085.71 46.1297C1088.41 46.3297 1090.41 48.7297 1090.21 51.4297L1084.71 115.43Z" fill="white"/>
<path fill-rule="evenodd" clip-rule="evenodd" d="M826.011 0.329618C831.411 -0.770382 837.011 0.929618 841.011 4.72962C845.011 8.62962 846.811 14.1296 845.911 19.4296L804.611 263.23C803.411 270.23 798.111 275.63 791.211 276.93L760.511 282.73C753.611 284.03 746.611 280.93 743.011 274.83L721.738 238.996C722.123 235.935 722.43 232.832 722.732 229.784C722.921 227.87 723.108 225.977 723.311 224.13C723.808 219.574 724.17 215.075 724.387 210.656L738.411 234.33L767.711 223.53V209.73L768.311 209.33L776.711 202.93L777.111 202.63H777.611L788.111 202.73L799.311 193.93L804.711 162.13H790.211V160.63L790.311 129.53V128.93L790.711 128.53L794.611 124.73V115.43H812.611L828.511 21.6296C829.011 18.9296 827.211 17.2296 824.511 17.7296L805.111 21.6296V34.0296L804.411 34.5296L801.011 37.5296V45.6296L800.611 46.0296L797.111 49.8296V73.6296L796.611 74.0296L791.111 78.6296L790.711 78.9296H776.311L762.511 179.43C762.111 182.13 760.711 182.43 759.411 180.03L741.911 148.93L720.501 166.791C720.224 165.788 719.931 164.799 719.624 163.824L740.411 146.53L695.811 67.1296H685.811L683.211 70.7296L682.811 71.3296H668.911V90.9296H653.211L673.483 125.101C667.003 124.264 660.445 124.289 654.163 125.168L617.511 63.4296C614.811 58.8296 614.411 53.0296 616.611 48.1296C618.811 43.2296 623.211 39.6296 628.511 38.5296L679.611 27.9296C686.811 26.4296 694.011 29.7296 697.611 36.1296C697.611 36.1296 728.811 91.4296 752.011 132.83C758.411 86.0296 767.011 23.6296 767.011 23.6296C768.011 16.6296 773.311 10.9296 780.311 9.52962L826.011 0.329618ZM788.511 25.0296C785.811 25.5296 783.411 28.1296 783.011 30.8296L776.811 76.1296H789.811L794.411 72.3296V48.6296L794.811 48.2296L798.311 44.4296V36.1296L798.811 35.7296L802.211 32.7296V22.2296L788.511 25.0296ZM678.311 45.3296L636.811 53.9296C634.111 54.5296 633.111 56.8296 634.511 59.2296L651.611 88.0296H666.011V68.3296H681.411L684.011 64.7296L684.411 64.1296H694.211L685.511 48.6296C684.211 46.2296 681.011 44.8296 678.311 45.3296ZM783.211 261.53C785.911 261.03 788.411 258.43 788.911 255.73L798.511 198.43L789.511 205.53L789.111 205.83H788.611L778.111 205.73L770.711 211.43V225.83L769.711 226.23L739.911 237.23L754.811 262.23C756.211 264.53 759.511 266.03 762.211 265.53L783.211 261.53ZM797.211 126.43L793.311 130.23L793.211 159.33H805.211L812.111 118.43H797.611V126.03L797.211 126.43Z" fill="white"/>
</svg>
