<svg width="777" height="155" viewBox="0 0 777 155" fill="none" xmlns="http://www.w3.org/2000/svg">
<path d="M149.439 121.198H144.536C136.904 121.198 130.693 114.99 130.693 107.356V100.767C130.693 94.9684 125.975 90.2522 120.178 90.2522H110.971C103.725 90.2522 97.8308 84.3578 97.8308 77.1123C97.8308 69.8667 103.725 63.9724 110.971 63.9724H120.178C125.977 63.9724 130.693 59.2541 130.693 53.4573C130.693 47.6605 125.975 42.9422 120.178 42.9422H103.769C97.9701 42.9422 93.2538 47.6605 93.2538 53.4573V107.356C93.2538 114.988 87.0451 121.198 79.4115 121.198H58.1604C46.3538 121.198 35.1681 116.697 26.6609 108.522C18.0801 100.276 13.2444 89.2512 13.0494 77.4824C12.8484 65.4549 17.3796 54.112 25.8052 45.5411C34.2348 36.9702 45.4961 32.25 57.5157 32.25H74.3251V42.9402H57.5157C48.3856 42.9402 39.8306 46.5262 33.4269 53.0374C27.0251 59.5467 23.5844 68.1653 23.7376 77.3033C23.8869 86.2045 27.5544 94.5545 34.0676 100.813C40.5729 107.064 49.1279 110.506 58.1604 110.506H79.4115C81.1488 110.506 82.5636 109.093 82.5636 107.354V53.4573C82.5636 41.7641 92.0778 32.252 103.771 32.252H120.18C131.874 32.252 141.388 41.7641 141.388 53.4573C141.388 65.1505 131.876 74.6626 120.18 74.6626H110.973C109.623 74.6626 108.525 75.7611 108.525 77.1103C108.525 78.4595 109.623 79.558 110.973 79.558H120.18C131.874 79.558 141.388 89.0701 141.388 100.763V107.352C141.388 109.089 142.801 110.504 144.54 110.504H149.443V121.198H149.439Z" fill="white"/>
<path d="M318.808 121.198C311.562 121.198 305.668 115.304 305.668 108.059V46.0924C305.668 44.3551 304.255 42.9402 302.516 42.9402H280.064V32.25H302.516C310.147 32.25 316.358 38.4588 316.358 46.0924V108.059C316.358 109.408 317.456 110.506 318.806 110.506C320.155 110.506 321.253 109.408 321.253 108.059V46.0924C321.253 38.4608 327.462 32.25 335.096 32.25H358.321V42.9402H335.096C333.358 42.9402 331.943 44.3531 331.943 46.0924V108.059C331.947 115.304 326.053 121.198 318.808 121.198Z" fill="white"/>
<path d="M595.524 32.25H584.834V121.196H595.524V32.25Z" fill="white"/>
<path d="M377.001 32.25H366.311V121.196H377.001V32.25Z" fill="white"/>
<path d="M508.653 32.25H497.963V121.196H508.653V32.25Z" fill="white"/>
<path d="M299.271 121.199H291.854C286.026 121.199 280.788 117.512 278.822 112.023L275.262 102.079C274.778 100.73 273.491 99.8228 272.058 99.8228H251.215C243.969 99.8228 238.075 93.9285 238.075 86.6829C238.075 79.4374 243.969 73.5431 251.215 73.5431H261.545C262.657 73.5431 263.284 72.8884 263.561 72.4983C263.835 72.1083 264.241 71.2964 263.865 70.2476L254.843 45.0464C253.848 42.2664 251.332 42.0495 250.586 42.0495C249.84 42.0495 247.324 42.2664 246.329 45.0464L222.239 112.326C220.338 117.633 215.274 121.197 209.638 121.197H175.418C163.725 121.197 154.211 111.683 154.211 99.99V92.6847C154.211 85.4472 160.099 79.5588 167.337 79.5588H192.705C194.049 79.5588 195.139 78.4663 195.139 77.123V77.0952C195.139 75.7519 194.047 74.6594 192.705 74.6594H167.337C160.099 74.6594 154.211 68.7711 154.211 61.5335V53.4541C154.211 41.761 163.725 32.2468 175.418 32.2468H205.837V42.9371H175.418C169.619 42.9371 164.901 47.6553 164.901 53.4541V61.5335C164.901 62.8767 165.994 63.9692 167.335 63.9692H192.703C199.941 63.9692 205.829 69.8576 205.829 77.0952V77.127C205.829 84.3646 199.941 90.253 192.703 90.253H167.337C165.994 90.253 164.903 91.3455 164.903 92.6887V99.994C164.903 105.793 169.621 110.511 175.42 110.511H209.64C210.774 110.511 211.793 109.793 212.175 108.726L236.266 41.4465C238.459 35.3214 244.081 31.3633 250.588 31.3633C257.095 31.3633 262.717 35.3214 264.91 41.4465L273.931 66.6458C275.371 70.6695 274.762 75.1589 272.301 78.6534C269.839 82.1478 265.819 84.2353 261.545 84.2353H251.215C249.866 84.2353 248.767 85.3337 248.767 86.6829C248.767 88.0341 249.866 89.1306 251.215 89.1306H272.058C277.994 89.1306 283.325 92.8857 285.327 98.4736L288.887 108.418C289.335 109.667 290.527 110.507 291.854 110.507H299.271V121.199Z" fill="white"/>
<path d="M436.305 154.609C433.072 154.609 429.987 153.651 427.39 151.843C424.552 149.866 422.511 147.005 421.484 143.566L382.679 13.6518C382.283 12.3265 381.041 11.4031 379.66 11.4031H372.59V0.710938H379.66C382.663 0.710938 385.523 1.65817 387.929 3.45314C390.337 5.24612 392.064 7.71569 392.922 10.5912L431.728 140.508C432.674 143.672 435.471 143.918 436.307 143.918C437.143 143.918 439.941 143.672 440.886 140.508L479.693 10.5912C480.553 7.71569 482.278 5.24612 484.686 3.45314C487.092 1.65817 489.951 0.710938 492.954 0.710938H500.025V11.4012H492.954C491.571 11.4012 490.331 12.3265 489.935 13.6498L451.129 143.566C450.102 147.003 448.06 149.865 445.222 151.843C442.623 153.651 439.541 154.609 436.305 154.609Z" fill="white"/>
<path d="M551.379 121.198H518.369V110.508H551.379C559.22 110.508 565.598 104.13 565.598 96.2897C565.598 88.4492 559.22 82.0713 551.379 82.0713H542.104C528.369 82.0713 517.195 70.8975 517.195 57.1626C517.195 43.4277 528.369 32.2539 542.104 32.2539H575V42.9441H542.104C534.263 42.9441 527.886 49.322 527.886 57.1626C527.886 65.0031 534.263 71.381 542.104 71.381H551.379C565.114 71.381 576.288 82.5548 576.288 96.2897C576.288 110.025 565.114 121.198 551.379 121.198Z" fill="white"/>
<path d="M648.435 122.618C636.194 122.618 624.688 117.852 616.034 109.197C607.379 100.543 602.613 89.0365 602.613 76.7961C602.613 64.5556 607.379 53.0495 616.034 44.3951C624.688 35.7406 636.194 30.9746 648.435 30.9746C660.675 30.9746 672.181 35.7406 680.836 44.3951C689.49 53.0495 694.256 64.5556 694.256 76.7961C694.256 89.0365 689.49 100.543 680.836 109.197C672.181 117.852 660.673 122.618 648.435 122.618ZM648.435 41.9912C629.241 41.9912 613.628 57.6046 613.628 76.7981C613.628 95.9915 629.241 111.605 648.435 111.605C667.628 111.605 683.242 95.9915 683.242 76.7981C683.242 57.6046 667.626 41.9912 648.435 41.9912Z" fill="white"/>
<path d="M755.294 121.199C749.545 121.199 744.379 117.562 742.441 112.149L717.321 41.9859C716.722 40.3143 715.373 40.2825 714.623 40.4138C713.873 40.5431 712.613 41.0287 712.613 42.8038V107.357C712.613 114.989 706.404 121.199 698.77 121.199H693.867V110.509H698.77C700.508 110.509 701.923 109.096 701.923 107.357V42.8038C701.923 36.3065 706.394 30.9932 712.794 29.8808C719.196 28.7684 725.196 32.2648 727.387 38.382L752.508 108.545C752.928 109.719 754.048 110.509 755.296 110.509C756.93 110.509 758.257 109.18 758.257 107.548V46.0932C758.257 38.4616 764.466 32.2509 772.1 32.2509H777.001V42.9411H772.098C770.36 42.9411 768.945 44.354 768.945 46.0932V107.546C768.947 115.074 762.822 121.199 755.294 121.199Z" fill="white"/>
<path d="M0 41.9191C0 39.2421 0.94666 36.9613 2.83998 35.0768C4.7333 33.1923 7.0229 32.25 9.70877 32.25C12.3946 32.25 14.6842 33.1923 16.5776 35.0768C18.4709 36.9613 19.4175 39.2421 19.4175 41.9191C19.4175 44.605 18.4709 46.899 16.5776 48.8011C14.6842 50.7033 12.3946 51.6543 9.70877 51.6543C7.0229 51.6543 4.7333 50.7033 2.83998 48.8011C0.94666 46.899 0 44.605 0 41.9191ZM1.41339 41.9191C1.41339 44.244 2.21474 46.2253 3.81746 47.8633C5.43779 49.5012 7.40156 50.3202 9.70877 50.3202C12.016 50.3202 13.9797 49.5012 15.6001 47.8633C17.2028 46.2253 18.0041 44.244 18.0041 41.9191C18.0041 39.6119 17.1984 37.6438 15.5869 36.0146C13.9753 34.3767 12.016 33.5577 9.70877 33.5577C7.41037 33.5577 5.451 34.3767 3.83067 36.0146C2.21915 37.6438 1.41339 39.6119 1.41339 41.9191ZM4.68927 41.8531C4.68927 40.2416 5.15159 38.8942 6.07624 37.8111C7.00969 36.7279 8.22493 36.1863 9.72198 36.1863C10.6642 36.1863 11.514 36.3757 12.2714 36.7543C13.5835 37.4324 14.2968 38.5596 14.4112 40.1359H12.8129C12.7337 39.4754 12.4563 38.903 11.9808 38.4187C11.5052 37.9344 10.8139 37.6922 9.9069 37.6922C8.63002 37.6922 7.70537 38.2646 7.13297 39.4094C6.76311 40.1403 6.57819 40.9284 6.57819 41.7738C6.57819 42.9803 6.87319 43.9974 7.4632 44.8252C8.06202 45.6441 8.92502 46.0536 10.0522 46.0536C10.7743 46.0536 11.3775 45.8643 11.8619 45.4856C12.3462 45.0982 12.6852 44.539 12.879 43.8081H14.4773C14.2747 44.9969 13.7596 45.9215 12.9318 46.582C12.104 47.2336 11.1133 47.5595 9.95974 47.5595C8.50673 47.5595 7.26506 47.0399 6.23475 46.0008C5.20443 44.9617 4.68927 43.5791 4.68927 41.8531Z" fill="white"/>
</svg>
