<svg width="378" height="118" viewBox="0 0 378 118" fill="none" xmlns="http://www.w3.org/2000/svg">
<path fill-rule="evenodd" clip-rule="evenodd" d="M144.425 117.481C143.704 117.818 142.963 117.986 142.201 117.986C141.466 117.986 140.781 117.851 140.144 117.582C139.507 117.313 138.957 116.948 138.492 116.487C138.027 116.026 137.662 115.479 137.397 114.845C137.132 114.211 137 113.529 137 112.799C137 112.069 137.135 111.384 137.404 110.745C137.674 110.107 138.041 109.557 138.506 109.096C138.971 108.635 139.521 108.27 140.158 108.001C140.795 107.732 141.476 107.597 142.201 107.597C142.981 107.597 143.739 107.768 144.473 108.109C145.208 108.45 145.803 108.908 146.258 109.485L144.892 110.882C144.548 110.44 144.143 110.102 143.679 109.866C143.214 109.631 142.721 109.513 142.201 109.513C141.764 109.513 141.352 109.598 140.967 109.766C140.581 109.934 140.249 110.164 139.97 110.457C139.691 110.75 139.473 111.096 139.314 111.495C139.156 111.893 139.077 112.328 139.077 112.799C139.077 113.26 139.159 113.69 139.321 114.088C139.484 114.487 139.707 114.83 139.991 115.118C140.274 115.407 140.609 115.635 140.995 115.803C141.38 115.971 141.801 116.055 142.256 116.055C142.768 116.055 143.246 115.944 143.693 115.724C144.139 115.503 144.534 115.186 144.878 114.773L146.202 116.127C145.737 116.694 145.145 117.145 144.425 117.481ZM170.658 117.597C170.026 117.866 169.347 118 168.622 118C167.906 118 167.232 117.866 166.6 117.597C165.968 117.328 165.422 116.96 164.962 116.494C164.502 116.028 164.137 115.476 163.868 114.837C163.598 114.199 163.463 113.519 163.463 112.799C163.463 112.078 163.598 111.399 163.868 110.76C164.137 110.121 164.502 109.569 164.962 109.103C165.422 108.637 165.968 108.27 166.6 108.001C167.232 107.732 167.906 107.597 168.622 107.597C169.347 107.597 170.026 107.732 170.658 108.001C171.29 108.27 171.836 108.637 172.296 109.103C172.756 109.569 173.121 110.121 173.391 110.76C173.66 111.399 173.795 112.078 173.795 112.799C173.795 113.519 173.66 114.199 173.391 114.837C173.121 115.476 172.756 116.028 172.296 116.494C171.836 116.96 171.29 117.328 170.658 117.597ZM168.622 116.084C168.185 116.084 167.779 116 167.402 115.832C167.026 115.663 166.7 115.433 166.426 115.14C166.152 114.847 165.936 114.499 165.778 114.095C165.62 113.692 165.541 113.26 165.541 112.799C165.541 112.328 165.62 111.893 165.778 111.495C165.936 111.096 166.152 110.75 166.426 110.457C166.7 110.164 167.026 109.934 167.402 109.766C167.779 109.597 168.185 109.513 168.622 109.513C169.059 109.513 169.468 109.597 169.849 109.766C170.23 109.934 170.558 110.164 170.832 110.457C171.106 110.75 171.322 111.096 171.48 111.495C171.638 111.893 171.717 112.328 171.717 112.799C171.717 113.26 171.638 113.692 171.48 114.095C171.322 114.499 171.106 114.847 170.832 115.14C170.558 115.433 170.23 115.663 169.849 115.832C169.468 116 169.059 116.084 168.622 116.084ZM199.268 115.997V117.842H191.906V107.756H193.928V115.997H199.268ZM224.755 117.842V115.997H219.415V107.756H217.394V117.842H224.755ZM250.438 116.026V117.842H242.881V107.756H250.382V109.571H244.903V111.876H248.514V113.634H244.903V116.026H250.438ZM272.858 117.986C273.62 117.986 274.361 117.818 275.082 117.481C275.802 117.145 276.395 116.694 276.859 116.127L275.535 114.773C275.191 115.186 274.796 115.503 274.35 115.724C273.904 115.944 273.425 116.055 272.914 116.055C272.458 116.055 272.038 115.971 271.652 115.803C271.266 115.635 270.931 115.407 270.648 115.118C270.364 114.83 270.141 114.487 269.979 114.088C269.816 113.69 269.735 113.26 269.735 112.799C269.735 112.328 269.814 111.893 269.972 111.495C270.13 111.096 270.348 110.75 270.627 110.457C270.906 110.164 271.238 109.934 271.624 109.766C272.01 109.598 272.421 109.513 272.858 109.513C273.378 109.513 273.871 109.631 274.336 109.866C274.801 110.102 275.205 110.44 275.549 110.882L276.915 109.485C276.46 108.908 275.865 108.45 275.131 108.109C274.396 107.768 273.639 107.597 272.858 107.597C272.133 107.597 271.452 107.732 270.815 108.001C270.179 108.27 269.628 108.635 269.163 109.096C268.698 109.557 268.331 110.107 268.062 110.745C267.792 111.384 267.657 112.069 267.657 112.799C267.657 113.529 267.79 114.211 268.055 114.845C268.32 115.479 268.684 116.026 269.149 116.487C269.614 116.948 270.165 117.313 270.801 117.582C271.438 117.851 272.124 117.986 272.858 117.986ZM299.6 109.6V117.842H297.578V109.6H294.288V107.756H302.877V109.6H299.6ZM322.759 117.842V107.756H320.737V117.842H322.759ZM348.079 117.597C347.447 117.866 346.768 118 346.043 118C345.328 118 344.654 117.866 344.022 117.597C343.39 117.328 342.843 116.96 342.383 116.494C341.923 116.028 341.558 115.476 341.289 114.837C341.019 114.199 340.885 113.519 340.885 112.799C340.885 112.078 341.019 111.399 341.289 110.76C341.558 110.121 341.923 109.569 342.383 109.103C342.843 108.637 343.39 108.27 344.022 108.001C344.654 107.732 345.328 107.597 346.043 107.597C346.768 107.597 347.447 107.732 348.079 108.001C348.711 108.27 349.257 108.637 349.717 109.103C350.177 109.569 350.542 110.121 350.812 110.76C351.081 111.399 351.216 112.078 351.216 112.799C351.216 113.519 351.081 114.199 350.812 114.837C350.542 115.476 350.177 116.028 349.717 116.494C349.257 116.96 348.711 117.328 348.079 117.597ZM346.043 116.084C345.606 116.084 345.2 116 344.823 115.832C344.447 115.663 344.122 115.433 343.847 115.14C343.573 114.847 343.357 114.499 343.199 114.095C343.041 113.692 342.962 113.26 342.962 112.799C342.962 112.328 343.041 111.893 343.199 111.495C343.357 111.096 343.573 110.75 343.847 110.457C344.122 110.164 344.447 109.934 344.823 109.766C345.2 109.597 345.606 109.513 346.043 109.513C346.48 109.513 346.889 109.597 347.27 109.766C347.651 109.934 347.979 110.164 348.253 110.457C348.527 110.75 348.744 111.096 348.902 111.495C349.06 111.893 349.139 112.328 349.139 112.799C349.139 113.26 349.06 113.692 348.902 114.095C348.744 114.499 348.527 114.847 348.253 115.14C347.979 115.433 347.651 115.663 347.27 115.832C346.889 116 346.48 116.084 346.043 116.084ZM371.238 111.098V117.842H369.328V107.756H371.252L376.104 114.283V107.756H378V117.842H376.215L371.238 111.098Z" fill="white"/>
<path d="M63.4179 0C28.1688 0 -0.242326 26.435 0.00155846 59.0024C0.245427 91.5698 29.0516 117.997 64.3006 117.997C99.5497 117.997 127.961 91.5698 127.717 59.0024C127.473 26.435 98.667 0 63.4179 0Z" fill="#246BBE"/>
<path d="M33.8903 15.9521L41.6014 24.1574L50.7461 15.9521L59.2266 24.1574L67.4961 15.9521L76.0824 24.1574L84.6761 15.9521L101.751 33.4114L93.3832 41.6733L84.4574 33.4114L76.4143 41.6733L67.8205 33.4114L59.5587 41.6733L50.5272 33.4114L42.0466 41.6733L25.4097 24.1574L33.8903 15.9521Z" fill="white"/>
<path d="M50.746 46.1643L59.121 54.4828L67.7148 46.1643L76.0823 54.4828L85.1212 46.1643L93.3831 54.4828L101.645 46.1643L118.833 63.7368L110.676 71.8326L102.301 63.7368L93.4888 71.8326L84.7893 63.7368L76.7463 71.8326L67.7148 63.7368L59.453 71.8326L50.746 63.7368L42.1522 71.8326L34.0035 63.7368L25.6284 71.8326L8.88599 54.4828L16.7026 46.1643L25.6284 54.4828L33.6715 46.1643L41.8201 54.4828L50.746 46.1643Z" fill="white"/>
<path d="M33.8903 76.3237L41.6014 84.529L50.7461 76.3237L59.2266 84.529L67.4961 76.3237L76.0824 84.529L84.6761 76.3237L101.751 93.783L93.3832 102.045L84.4574 93.783L76.4143 102.045L67.8205 93.783L59.5587 102.045L50.5272 93.783L42.0466 102.045L25.4097 84.529L33.8903 76.3237Z" fill="white"/>
<path fill-rule="evenodd" clip-rule="evenodd" d="M158.443 30.1555H171.401V70.6485C171.401 98.3305 135.744 92.038 136.307 70.1086H148.724C148.629 77.5832 158.443 80.8077 158.443 70.6485V30.1555Z" fill="white"/>
<path fill-rule="evenodd" clip-rule="evenodd" d="M174.1 87.9255H187.598L190.837 70.1086H203.795L206.494 87.9255H219.992L210.274 30.1555H183.818L174.1 87.9255ZM192.457 57.1508H201.635L197.015 33.288L192.457 57.1508Z" fill="white"/>
<path fill-rule="evenodd" clip-rule="evenodd" d="M254.006 87.9255H224.311V30.1555H237.809V75.5076H254.006V87.9255Z" fill="white"/>
<path fill-rule="evenodd" clip-rule="evenodd" d="M288.56 87.9255H256.166V30.1555H288.56V42.0334H269.663V51.2119H288.56V63.6297H269.663V76.0475H288.56V87.9255Z" fill="white"/>
<path fill-rule="evenodd" clip-rule="evenodd" d="M320.955 51.7516H333.912C334.013 45.5549 330.684 28.5651 313.078 29.0558C302.57 29.3487 293.089 37.3627 292.879 58.2305C292.572 88.8833 308.392 89.2207 311.808 89.1504C334.233 88.6887 334.198 67.6197 333.921 63.6525L320.955 63.6295C320.405 70.3837 319.414 76.7081 312.761 76.2428C306.305 75.5562 306.952 65.7133 306.917 58.2305C306.883 50.9538 306.905 41.9218 313.607 41.6461C318.959 41.8517 320.067 47.047 320.955 51.7516V51.7516Z" fill="white"/>
<path fill-rule="evenodd" clip-rule="evenodd" d="M356.774 28.8443C342.67 28.6561 335.874 41.3692 336.354 58.7858C337.099 85.8284 348.528 89.0432 357.197 88.9389C372.224 88.7604 377.87 75.481 377.934 60.3728C378 44.4669 373.451 29.0669 356.774 28.8443V28.8443ZM357.091 41.6462C350.326 41.8471 349.657 50.6288 349.685 57.8337C349.696 60.5568 349.253 76.5866 357.197 76.4545C364.683 76.3283 364.481 64.8872 364.603 58.3626C364.729 51.6238 364.155 41.4364 357.091 41.6462V41.6462Z" fill="white"/>
</svg>
