<svg xmlns="http://www.w3.org/2000/svg" width="330" height="210" fill="none" viewBox="0 0 330 210">
  <defs>
    <linearGradient id="mainlogo__a" x1="157.336" x2="182" y1="23" y2="151" class="mainlogo__a" gradientUnits="userSpaceOnUse">
      <stop stop-color="#FFE100"/>
      <stop offset=".566" stop-color="#FE0C00"/>
    </linearGradient>
    <linearGradient id="mainlogo__b" x1="157.336" x2="182" y1="23" y2="151" class="mainlogo__b" gradientUnits="userSpaceOnUse">
      <stop stop-color="#FFE100"/>
      <stop offset=".566" stop-color="#FE0C00"/>
    </linearGradient>
    <linearGradient id="mainlogo__c" x1="157.336" x2="182" y1="23" y2="151" class="mainlogo__c" gradientUnits="userSpaceOnUse">
      <stop stop-color="#FFE100"/>
      <stop offset=".566" stop-color="#FE0C00"/>
    </linearGradient>
    <linearGradient id="mainlogo__d" x1="157.336" x2="182" y1="23" y2="151" class="mainlogo__d" gradientUnits="userSpaceOnUse">
      <stop stop-color="#FFE100"/>
      <stop offset=".566" stop-color="#FE0C00"/>
    </linearGradient>
  </defs>
  <g class="mainlogo__mainlogo">
    <path fill="#fff" d="M17.633 209.034a7.39 7.39 0 0 0 2.837-1.044 7.794 7.794 0 0 0 2.268-2.052l-1.69-1.497a5.705 5.705 0 0 1-1.511 1.434 4.555 4.555 0 0 1-1.832.681 3.77 3.77 0 0 1-1.562-.083 3.364 3.364 0 0 1-1.328-.709 3.318 3.318 0 0 1-.852-1.2 4.017 4.017 0 0 1-.31-1.606 4.911 4.911 0 0 1 1.139-3.158 4.72 4.72 0 0 1 1.27-1.064 4.331 4.331 0 0 1 1.574-.544 3.842 3.842 0 0 1 1.88.184 3.735 3.735 0 0 1 1.547 1.083l1.743-2.034a5.062 5.062 0 0 0-2.276-1.442 6.38 6.38 0 0 0-2.897-.248c-.893.12-1.779.42-2.605.883a8.04 8.04 0 0 0-2.107 1.699 7.845 7.845 0 0 0-1.405 2.309 7.546 7.546 0 0 0-.516 2.695c-.002.901.17 1.769.507 2.553a5.275 5.275 0 0 0 1.396 1.908c.608.515 1.324.89 2.107 1.105a6.316 6.316 0 0 0 2.623.147Zm33.704-4.717a7.262 7.262 0 0 0 2.596-.882 7.765 7.765 0 0 0 2.088-1.702 7.911 7.911 0 0 0 1.398-2.32c.34-.874.516-1.786.516-2.682 0-.897-.175-1.76-.516-2.538a5.297 5.297 0 0 0-3.486-3.042c-1.66-.455-3.516-.194-5.176.727a7.904 7.904 0 0 0-3.486 4.022 7.416 7.416 0 0 0-.515 2.683c0 .896.175 1.759.515 2.538.325.749.8 1.404 1.398 1.926a5.309 5.309 0 0 0 2.088 1.116 6.176 6.176 0 0 0 2.58.154Zm0-2.453a3.563 3.563 0 0 1-1.523-.095 3.183 3.183 0 0 1-1.278-.72 3.442 3.442 0 0 1-.827-1.221c-.404-1.015-.404-2.202 0-3.33.19-.519.471-1.009.827-1.444a4.703 4.703 0 0 1 1.279-1.08 4.178 4.178 0 0 1 1.522-.522 3.634 3.634 0 0 1 1.565.103c.472.139.898.38 1.253.709.356.335.637.746.827 1.212.403 1.015.403 2.202 0 3.33a4.987 4.987 0 0 1-.827 1.453c-.355.429-.781.79-1.253 1.062a4.268 4.268 0 0 1-1.565.543Zm39.092-3.244v-2.36l-6.813.957v-10.552l-2.577.362v12.911l9.39-1.318Zm32.512-4.569v-2.361l-6.812.958v-10.552l-2.579.362v12.911l9.391-1.318Zm32.761-4.604v-2.324l-7.061.992v-3.063l4.607-.647v-2.251l-4.607.648v-2.949l6.99-.982v-2.324l-9.57 1.345v12.91l9.641-1.355Zm28.599-3.836a7.384 7.384 0 0 0 2.837-1.044 7.795 7.795 0 0 0 2.268-2.052l-1.691-1.496a5.69 5.69 0 0 1-1.511 1.434 4.544 4.544 0 0 1-1.832.681 3.769 3.769 0 0 1-1.562-.083 3.359 3.359 0 0 1-1.327-.709 3.32 3.32 0 0 1-.852-1.199 4.033 4.033 0 0 1-.312-1.607 4.845 4.845 0 0 1 .304-1.712 4.883 4.883 0 0 1 .835-1.446c.361-.43.794-.792 1.271-1.064a4.339 4.339 0 0 1 1.574-.544c.654-.094 1.3-.03 1.886.186a3.75 3.75 0 0 1 1.547 1.084l1.743-2.035a5.062 5.062 0 0 0-2.276-1.441 6.38 6.38 0 0 0-2.896-.248 7.306 7.306 0 0 0-2.605.883 8.038 8.038 0 0 0-2.108 1.698 7.827 7.827 0 0 0-1.406 2.309 7.555 7.555 0 0 0-.516 2.695 6.465 6.465 0 0 0 .507 2.554 5.291 5.291 0 0 0 1.396 1.907c.609.515 1.324.89 2.108 1.105a6.31 6.31 0 0 0 2.618.144Zm34.113-4.978v-10.552l4.179-.587v-2.362l-10.956 1.54v2.362l4.198-.59v10.55l2.579-.361Zm29.542-4.152V163.57l-2.579.363v12.911l2.579-.363Zm29.702-3.971a7.263 7.263 0 0 0 2.597-.881 7.892 7.892 0 0 0 3.486-4.022c.34-.874.515-1.786.515-2.683 0-.896-.175-1.759-.515-2.538a5.386 5.386 0 0 0-1.399-1.926 5.303 5.303 0 0 0-2.087-1.116c-1.66-.454-3.516-.194-5.175.728a7.901 7.901 0 0 0-3.486 4.022 7.393 7.393 0 0 0-.516 2.682c0 .897.175 1.76.516 2.538a5.394 5.394 0 0 0 1.399 1.925 5.292 5.292 0 0 0 2.087 1.117 6.153 6.153 0 0 0 2.578.152v.002Zm0-2.453a3.546 3.546 0 0 1-1.556-.104 3.145 3.145 0 0 1-1.245-.711 3.424 3.424 0 0 1-.827-1.221c-.404-1.014-.404-2.201 0-3.329.19-.52.471-1.01.827-1.444a4.652 4.652 0 0 1 1.245-1.061 4.18 4.18 0 0 1 1.556-.541 3.602 3.602 0 0 1 1.565.103c.472.138.899.38 1.254.709.356.335.636.746.827 1.211.404 1.015.404 2.202 0 3.33a4.995 4.995 0 0 1-.827 1.454c-.355.429-.782.79-1.254 1.061a4.247 4.247 0 0 1-1.565.541v.002Zm32.138-2.266v-8.636l6.35 7.744 2.276-.32v-12.911l-2.419.34v8.355l-6.189-7.485-2.455.345v12.91l2.437-.342Z" class="mainlogo__Vector"/>
    <g class="mainlogo__Vector">
      <path fill="#fff" fill-rule="evenodd" d="M14.736 42.351c-.154-.716-.095-5.658-.033-6.53.987-.28 1.848-.376 2.718-.472.196-.021.393-.043.592-.067.391-.047.865-.129 1.377-.216 1.7-.293 3.823-.658 4.787-.084 1.752 1.043 1.958 3.555.267 5.255-.92.925-2.002 1.097-3.22 1.24-1.155.134-2.278.295-3.4.455a142.92 142.92 0 0 1-3.088.419Zm.028-10.33c-.025-.094-.142-5.78-.02-6.525l.012-.065.007-.035.052-.198c.534-.15 4.211-.684 4.644-.62 3.376.497 3.24 5.27.211 6.547-1.093.461-2.542.622-3.786.76-.401.044-.78.086-1.12.135Zm-3.021 14.35-.106.004a55.236 55.236 0 0 0-.403-2.033c-.273-1.637-.245-3.073-.216-4.607.007-.377.015-.761.018-1.155l-.01-11.407c-.01-2.192-.014-3.357 1.558-4.756 1.136-1.011 2.855-1.156 4.353-1.283.356-.03.699-.058 1.019-.098 2.28-.28 3.225-.19 4.71.62 1.295.708 2.392 1.995 2.793 3.996.402 2.005.107 2.758-.268 3.712-.171.436-.359.913-.504 1.571.128.119.388.227.717.364.572.238 1.352.563 2.005 1.18 2.85 2.69 2.292 7.081-.37 10.039-2.02 2.243-4.334 2.493-7.005 2.782h-.007l-.391.044c-1.026.112-2.058.279-3.093.445-1.597.258-3.201.516-4.8.581ZM76.648 16.28c2.637-1.54 5.403-1.471 7.376-.793 2.174.748 3.235 1.88 4.56 4.233 1.191 2.116.542 5.766-.275 7.52-2.332 5.008-7.712 7.646-12.338 6.005-4.416-1.567-6.462-7.07-4.105-11.812 1.092-2.198 2.237-3.666 4.782-5.153Zm-.34-3.734c-.81.558-2.24.833-4.514 3.061-1.256 1.232-2.095 2.477-2.912 3.928-3.458 6.14-1.478 14.35 4.893 17.04 10.364 4.373 22.047-7.49 18.57-17.845-1.545-4.6-5.892-7.52-10.396-7.424-1.26.027-4.325.335-5.64 1.24Zm78.936 1.627c-.43-1.294.842-4.99 1.404-6.033 2.485-4.607 6.565-5.904 9.493-2.234 1.372 1.721 1.862 3.766 2.008 6.406-.642.284-10.719 1.513-12.905 1.861Zm-.186 11.987c.226-.611.118-6.94.114-8.137.387-.155 12.474-1.863 12.853-1.803.22.706.123 3.13.127 4.066.003.918-.136 3.413.078 4.096 4.324-1.071 3.507-4.588 3.666-6.58.104-1.293-.007-2.935.001-4.303.009-1.704.118-2.634-.228-4.497-.984-5.293-4.696-9.91-10.274-8.849-5.907 1.125-9.127 7.206-9.758 11.888-.209 1.545-.244 6.782-.204 8.48.029 1.205-.223 3.234.471 4.248.625.915 1.868 1.794 3.154 1.391ZM35.066 30.961c-.488-2.766 1.757-9.21 6.136-10.238 4.925-1.156 7.16 6.45 6.684 8.334-.801.395-7.907 1.217-9.698 1.506-1.063.171-2.17.185-3.122.398Zm-.158 11.99c.112-2.305.07-5.841-.001-8.08.357-.214 12.415-1.931 12.926-1.861.229.767.067 3.083.075 4.03.009 1.028-.1 3.325.087 4.168 3.593-.912 3.867-3.641 3.67-6.63l.023-4.28c.024-4.611-.447-8.264-3.794-11.4-1.671-1.566-3.686-2.343-6.659-1.96-3.256.417-5.55 2.844-6.962 4.727-1.385 1.846-2.47 4.608-2.834 7.175-.372 2.633-.193 5.734-.22 8.44-.013 1.33-.21 3.138.473 4.313a2.955 2.955 0 0 0 3.216 1.358Zm103.708-35.5c2.564-1.636 5.22-.383 6.103 1.455 1.235 2.572-.304 5.308-2.349 6.481-5.544 3.183-9.348-4.367-3.754-7.936Zm-2.71 12.84c.537.058.937.58 1.52 1.093 1.205 1.063 6.213 5.547 6.993 5.895 1.437.64 2.906.02 4.245-1.078-.309-1.03-6.516-5.418-7.049-6.628 6.727-2.29 8.703-9.182 6.033-13.405-3.574-5.657-12.923-3.448-15.134 4.115-.548 1.875-.281 10.72-.295 12.917l-.004 5.41c-.005.474-.132.737.272.75.497.017 1.719-.715 2.04-1.041 2.057-2.087 1.063-4.484 1.379-8.028Zm-5.468 9.349c-.527-4.648-4.62-2.73-7.49-2.572-.645.035-2.988.603-3.295.391l-.1-.145c-.008-.02-.031-.056-.039-.08-.122-.367.012-2.685-.017-3.444-.047-1.193-.012-2.614.01-3.808 1.432-.553 6.421-.664 7.323-1.253-.126-1.842-1.271-2.804-2.499-3.035-1.324-.249-3.984.545-4.755.425-.106-.495-.174-5.246.034-5.751l6.655-.97c1.313-.13 2.217-.532 3.059-1.417.608-.64 1.264-1.812 1.057-2.867l-4.679.605c-.622.09-1.179.248-1.783.319-5.159.605-8.292.286-8.088 6.774.081 2.577-.19 14.954.133 16.257.811 3.276 5.064 2.015 7.922 1.566 1.134-.178 2.132-.235 3.259-.453.995-.192 2.374-.18 3.293-.543Z" clip-rule="evenodd"/>
      <path fill="#fff" fill-rule="evenodd" d="m114.627 7.397-6.581.877c-2.532.355-4.621 1.085-6.809 2.55-10.196 6.82-8.115 21.102 3.215 22.175 2.145.203 4.185-.302 6.462-.534.5-.05 1.061-.149 1.595-.23 1.815-.276 2.587.161 1.881-1.617-1.162-2.93-4.615-1.574-6.741-1.404-4.26.342-7.685-.946-9.03-5.127-1.324-4.117 1.242-8.453 5.09-10.668 4.524-2.604 7.267-.587 9.801-3.207.65-.672 1.232-1.727 1.117-2.815Zm-56.631 11.53c.303 1.2-.187 19.317.168 20.861 4.352-1.23 3.474-4.519 3.562-6.842.078-2.084-.138-14.085.073-14.401.197-.296.9-.28 1.111-.303.869-.096 3.094-.411 3.774-.775 1.537-.822 2.386-2.247 2.34-3.753-.423-.084-15.198 1.989-17.4 2.33-.951.147-1.03.21-.727 1.21.98 3.231 4.756 1.885 7.1 1.673Z" clip-rule="evenodd"/>
    </g>
    <g class="mainlogo__Union">
      <path fill="#440300" fill-rule="evenodd" d="m298.774 15.085 3.091.452.001.001v-.002l13.479 12.234.1 2.064-.003-.003-.001.003.003.002-3.046.579 2.18 2.71.003.003c-1.307 3.721-6.639 6.472-15.996 8.253l-.004-.004-.001.001.002.003-7.057 2.384-.003-.003-.001.001.003.003-.629 2.386.783.71c-1.794 5.286-4.788 28.084-8.984 68.392l3.696 12.841-1.014.192h-.001l-.006.001.001.002c-.362.068-.725-.062-1.088-.392l-5.025-4.56 1.039 5.916.001.001.05 1.033-.005-.005.001.002.003.004-2.03.385-.004-.002-.001.001-4.209-2.324-.965 1.224-.002-.001-.001.002h-.001l.003.003-1.015.193-.002-.002.001.002-13.478-12.234c-2.996-5.436-4.601-10.34-4.812-14.713l.4.315.006.005.258.203 2.697 2.448v-.002l-2.695-2.446.4.315.001.001 1.014-.192 1.324 1.202.001-.001-1.326-1.204-2.381-6.84 2.997-1.612 1.061.963v-.002l-1.061-.962-.136-2.826-2.145-1.947-.05-1.032.368-.079c1.238-.291 2.028-.796 2.375-1.508l-1.877-1.704c-.267-5.506.615-8.452 2.646-8.838l13.008 11.806v-.003l-13.007-11.804-.65-13.422c.532-.611 1.057-2.915 1.576-6.913l-6.407.752-2.539-2.304c-2.279 22.29-5.693 47.914-10.243 76.871l-1.016.193-.001-.001-.005.001-.023-.017.023.02-.401-.315-.029-.027-.236-.185-.4-.315.001-.002-2.158-1.958-.834 3.574-.005-.005v.002l.004.004-3.046.579c-.283.054-.541.01-.774-.128a1.268 1.268 0 0 1-.211-.155l-.008-.008-2.193-1.99.039.794-.004-.003.003.004-1.015.192.001.001c-.364.069-.683.054-.956-.045a1.325 1.325 0 0 1-.445-.267l-.013-.012-13.464-12.22c-.465-.422-.726-1.222-.783-2.4-.165-3.402.466-10.119 1.892-20.153l-7.374.567h-.004l.002.003c-1.231 16.905-2.728 28.304-4.492 34.196l-.001-.001-3.046.579-.002-.002-.003.001.004.003c-.298.057-.57-.026-.815-.248l-3.051-2.769-.246 2.756.002.001-.801-.63-.017-.015-.513-.405-.802-.63v-.007l-2.137-1.939.163 3.364-.007-.006v.002l.006.006-1.015.193-.004-.003-.002.001-.001-.003-13.472-12.227-.25-5.162 1.072.973v-.003l-1.072-.972.899-.172-.949-.861-.079-.256-2.941 12.695.998.906-.069 1.055-.004-.003.001.002-1.363 5.468.58 8.226-.001-.001-.001.001.001.001-2.11 2.484.058.058.145.142.044.04.391.386.012.011.183.179-.049-.043.032.031.014.013.058.057-.002-.001h-.002l.002.001c-2.742 1.421-4.172 3.427-4.289 6.021l.006.006-3.046.579-.004-.003-.003.001.002.003a.733.733 0 0 1-.659-.19l-2.265-2.056-.042.726-3.047.579-8.412-7.633c-.696.367-1.394.69-2.097.966-.361.142-.723.272-1.086.39-.725.236-1.453.422-2.185.561l.005.005-5.077.965-.004-.004-.002.001-.065-.061-.041-.038.107.102-3.944-3.579c-4.815.53-8.742.197-11.783-.998a13.527 13.527 0 0 1-.842-.362 11.575 11.575 0 0 1-2.862-1.89l-.061-.058-13.411-12.172c-1.097-.995-1.972-2.202-2.632-3.621a267.693 267.693 0 0 0-.088 5.189l-.008-.007v.002l.006.005-.058 6.134 1.067.968-.043-.034.014.013.022.017-.001.002.002.002-.009 1.04.003.003-.499.6.489.443-.005.001-1.024 1.235v.002l.001.001.946 7.109.002.003-.019 2.084.003.002c-3.408 5.143-5.132 8.944-5.174 11.404l-.006-.006v.003l.005.005-4.061.772-.004-.003-.002.001.001.001-4.998-1.133-13.479-12.233 1.043-7.222-4.04-3.667 1.101-15.839 13.476 12.231.001-.003-13.473-12.229.115-18.776 2.06-3.517-.002-.001.037-4.113-1.007-.914.01-1.044L89.5 104.267l.005-.001-13.478-12.232 2.03-.386.01-.98-.3-.273c-9.311 2.26-13.964 3.838-13.96 4.729l-.006-.005v.002l-.4-.315-.265-.207-.397-.314c-3.396 1.201-6.285 2.447-8.67 3.734l2.499-.69 1.064.967.001-.003-1.06-.963.4.315.005.005.258.203.398.36v-.001l-.396-.36.4.316 13.48 12.233-.07-.055.04.036.023.019v.002l.001.002-.009 1.043-.002-.002h-.002l.002.002-2.346.446 1.95 1.77c.22.2.343.458.368.775l.004.139.05 1.031.002.002c.046 3.417-.589 5.272-1.905 5.57l.95.862.041 2.076-.007-.006v.005l.002.002c.015 1.182-8.43 5.22-25.334 12.113v-.001l.001.003-.874 11.506 1.058.96.049 1.031.003.002-1.025 1.237-.005-.004-.001.003.002.003-.01 1.043 1.046 2.927-.001-.002-1.014.193-.001-.001-.001.001.002.002 1.042 2.917.008.008c.38 2.87-1.73 8.665-6.33 17.385l-.006-.005-.002.004.005.004-8.173.512-.004-.003v.001l-.001-.002-13.474-12.228.002-.001-.002-.002.696-8.448-2.932-2.662c-.583-.528-.904-1.382-.96-2.56l3.493 3.171h.002l-3.496-3.173-.015-.304c.951-1.942 1.66-13.026 2.127-33.254l1.977-.377-.948-.86.914-8.51.025.023.18.153 13.479 12.233.587.497.208.176.005-.001-.206-.174-13.479-12.233.208.176 1.01-.193-.001-.001.933-10.597 13.478 12.233v-.006L20.983 96.808v-.024l-4.81-4.365c-.244-.222-.375-.513-.393-.873l1.02-1.787-2.37-2.151.02.016-.018-.016c-.46-.418-.688-1.06-.68-1.925l-.006-1.134c.03-5.318.934-8.234 2.714-8.75l.187-.044c3.384-.645 5.052-2.698 5.004-6.162l13.475 12.23h.001L21.65 69.59l1.016-.193L36.142 81.63l.207.176.591.499.207.176v-.002l-.2-.171-13.48-12.233.208.175 13.473 12.23v-.002L23.675 70.25l2.048-2.472-.003-.003 3.046-.58 13.478 12.232.09.075-.089-.074-13.48-12.233.103.084L42.346 79.51l.931.77-.017-.016-.91-.752L28.87 67.28l.943.778.03.027.957.791 6.739 6.115-6.74-6.118.942.779 11.45 10.392v-.004L31.748 69.652l.1.083 17.248-8.49 2.616 2.374 14.627-3.572 2.465 2.236v-.002l-2.462-2.236 4.062-.772 9.841 8.933v-6.079l-1.012-.918.01-1.044L92.72 72.398l.004-.002-13.478-12.233 11.24-3.18 2.774 2.519a8.327 8.327 0 0 0 1.196-.146l-.001-.002 13.479 12.233.44.81 4.084-4.699.001-.001h.002l1.093.992h.001l-1.092-.99.001-.004h-.001l.069-1.055h.001l6.449-7.478.001.001 1.016-.192 1.201 1.09c.367-.38.74-.764 1.119-1.15l-1.298-1.179c1.825-3.82 8.033-6.738 18.624-8.754l.952.863 1.011-.192 13.475 12.23v-.002l-13.475-12.23.07-1.055c7.07.49 11.876 1.889 14.418 4.195l.02.019-.017-.017 13.477 12.232c1.531 1.39 2.241 3.109 2.129 5.158l-.005-.004v.002l.005.005.917 3.378c2.523.437 4.191.947 5.005 1.53.986-6.978 2.087-12.825 3.306-17.539l-.004-.003.897-.172-.947-.859-.15-3.097 2.583 2.344h.001l-2.584-2.346 2.299-11-.818-.742.866-3.29h.001l1.015-.192 1.072.973-.007-.135 4.062-.773 1.705 1.547-.001-.003-1.703-1.546c.37-.07.698.023.982.281l4.602 4.178c.262-.95.836-1.51 1.725-1.679l.402.315.005.005.258.203.037.033.359.282.006.006v-.006l13.479 12.234.05 1.032-.007-.006v.003l.005.004-1.629 12.601 9.757-1.856 12.864 11.677v-.004l-12.862-11.672.75-5.245-1.05-.953 2.031-.386-1.365-7.031-.05-1.034 1.913-.364-.947-.86.013.01-.013-.012-.1-2.065 1.796-.342-1.896-1.721-.05-1.033 1.912-.365-.947-.86-.35-7.227.401.316.005.005.258.203.037.032.359.283 1.951 1.77v-.007l-1.945-1.765 1.016-.194-.194-3.994-1.072-.973-.05-1.034.001.001 3.045-.579 1.056.958.008-.114-.004-.004 4.012-1.805 3.171 2.878c1.56-2.086 5.255-3.683 11.084-4.793l11.001 9.985.004-.002-11.001-9.985 54.731-12.497h.001Zm-27.767 112.559.002.002a.03.03 0 0 1-.004-.008l-.002-.001.004.007Zm-142.684-7.997c.093.487.204.959.333 1.418l.301.273c.24-.137.484-.289.732-.452l-1.366-1.239Zm3.575-20.034c-.403.76-.81 1.538-1.217 2.334l.002.002-2.675 11.969.002.002c-.094 1.588-.055 3.074.116 4.459l1.588-1.87.481.437.002-.001-.478-.434 1.008-.193v-.002l.001-.001 7.958-10.531-6.021-5.464.004-.001.004-.001-.431-.391-.172-.158-.172-.156Zm3.293-5.875c-.532.892-1.065 1.818-1.603 2.776.78-.45 1.813-.923 3.099-1.417l-1.496-1.359Zm1.301-2.127 1.574 1.428h.004l-1.576-1.43-.002.002Zm18.789-16.027a10.808 10.808 0 0 0-3.658.633 12.58 12.58 0 0 0-.973.393 14.48 14.48 0 0 0-1.313.677 19.593 19.593 0 0 0-1.666 1.092c-1.848 1.351-3.745 3.199-5.693 5.54l18.877-5.816-.783-.71-.709-.646-.149-.136-.623-.567a12.95 12.95 0 0 0-2.43-.427 11.588 11.588 0 0 0-.851-.033h-.029Z" clip-rule="evenodd"/>
      <path fill="#440300" d="m18.825 107.425 13.478 12.232-.591-.499-13.478-12.233.59.5Zm4.64-37.352 13.478 12.233-.59-.5-13.48-12.233.592.5Z"/>
      <path fill="#440300" d="m22.874 69.573 13.479 12.234-.208-.175-13.479-12.234.208.175Z"/>
    </g>
    <path fill="#000" d="M297.637 8.178a6.991 6.991 0 0 1 2.151-.017l.001-.001 3.043.445a6.994 6.994 0 0 1 3.741 1.749l13.478 12.233a7 7 0 0 1 2.288 4.844l.1 2.064v.025l.003.116c.001.047.004.094.004.14l-.001.086a6.97 6.97 0 0 1-.124 1.288l-.026.133-.028.125-.022.095-.038.143-.023.09-.013.04-.031.105-.037.12-.028.084a6.962 6.962 0 0 1-.152.404l-.035.083a8.57 8.57 0 0 1-.07.161l-.027.057a4.49 4.49 0 0 1-.074.153c-.014.03-.028.06-.043.088a7.854 7.854 0 0 1-.083.155l-.009.017a6.965 6.965 0 0 1-.394 2.244c-1.49 4.243-4.927 6.978-8.375 8.757-3.396 1.752-7.633 3.016-12.434 3.958l-1.984.67a5.75 5.75 0 0 1-.087.28c-.248.731-.695 2.64-1.298 6.175-.577 3.386-1.238 7.893-1.981 13.55-1.451 11.053-3.194 26.307-5.229 45.791l3.319 11.532a6.998 6.998 0 0 1-5.423 8.812l-.973.185c-.015.003-.029.008-.044.01a8.03 8.03 0 0 1-1.456.144l-.04.039-.114.107-.051.046-.121.107-.12.098-.072.06-.086.066a4.07 4.07 0 0 1-.204.152l-.129.09c-.024.017-.049.032-.073.048l-.142.092-.059.037a6.372 6.372 0 0 1-.139.083l-.11.063-.137.074-.069.036c-.53.274-1.098.48-1.695.612l-.024.007-.183.038-2.03.386a7.08 7.08 0 0 1-1.279.12l-.036.001c-.078 0-.157-.003-.235-.005l-.073-.003a6.12 6.12 0 0 1-.194-.012l-.137-.011a5.303 5.303 0 0 1-.177-.018l-.137-.017c-.055-.008-.111-.016-.167-.026a5.103 5.103 0 0 1-.275-.049l-.016-.003a6.924 6.924 0 0 1-.641-.164l-.068-.023a7.158 7.158 0 0 1-.247-.083l-.077-.029a5.89 5.89 0 0 1-.519-.218c-.032-.015-.063-.029-.094-.045a5.884 5.884 0 0 1-.262-.134l-.014-.008c-.015-.008-.032-.015-.047-.024l-.592-.327-.886.168c-.32.062-.642.1-.965.117-.067.004-.134.005-.201.007l-.091.002c-.063.001-.126 0-.189-.001l-.141-.003a8.638 8.638 0 0 1-.384-.025 6.01 6.01 0 0 1-.266-.03l-.017-.002a7.3 7.3 0 0 1-.291-.044l-.05-.01a5.104 5.104 0 0 1-.24-.049l-.078-.017-.24-.06-.042-.011a6.945 6.945 0 0 1-1.73-.74l-.003-.002a7.031 7.031 0 0 1-1.106-.82L253.94 122.72a7.01 7.01 0 0 1-1.427-1.805c-1.272-2.309-2.363-4.611-3.24-6.899a1972.13 1972.13 0 0 1-2.911 19.135 7 7 0 0 1-5.612 5.791l-.909.171c-.72.148-1.46.182-2.192.101a6.982 6.982 0 0 1-1.385.555l-.044.013c-.056.016-.114.029-.171.044l-.071.018-.158.035-.063.013-.082.017-3.046.579a8.072 8.072 0 0 1-5.884-1.129 8.502 8.502 0 0 1-2.897-.494l-.021-.007a8.32 8.32 0 0 1-2.772-1.667l-.062-.057-11.168-10.136c-.496 2.754-1.026 5.092-1.596 6.997a7 7 0 0 1-5.401 4.867h.001l-2.935.558c-.038.008-.075.017-.113.024a7.798 7.798 0 0 1-4.01-.28 7.006 7.006 0 0 1-3.885-.31 5.902 5.902 0 0 1-.326.071l-1.014.192a7.006 7.006 0 0 1-1.599.115l-.035-.001a8.301 8.301 0 0 1-.354-.026l-.053-.005a7.003 7.003 0 0 1-.382-.051l-.061-.011a7.165 7.165 0 0 1-.325-.063c-.035-.007-.069-.016-.103-.024a9.047 9.047 0 0 1-.404-.108 5.361 5.361 0 0 1-.215-.068l-.138-.047a7.623 7.623 0 0 1-.632-.262l-.036-.017a6.613 6.613 0 0 1-.251-.129l-.073-.038a7.687 7.687 0 0 1-.25-.143l-.059-.037c-.051-.031-.104-.06-.154-.093-.036-.023-.07-.049-.105-.072l-.004-.003a7.045 7.045 0 0 1-.898-.72l-4.976-4.516-.374 1.495.503 7.12c.016.225.018.449.013.672l-.001.03a6.744 6.744 0 0 1-.048.638l-.004.036a8.134 8.134 0 0 1-.041.279l-.006.033c-.015.09-.033.179-.052.268l-.014.069-.046.187a6.92 6.92 0 0 1-.16.539c-.012.035-.023.07-.036.104a7.025 7.025 0 0 1-.369.847l-.047.088-.084.153a4.61 4.61 0 0 1-.098.168l-.051.083a6.312 6.312 0 0 1-.193.292 6.969 6.969 0 0 1-1.75 4.026l-.019.021c-.042.047-.083.095-.126.14-.042.045-.088.087-.131.13l-.024.025a7.02 7.02 0 0 1-.268.252l-.045.039a6.931 6.931 0 0 1-1.463.988c-.212.114-.354.21-.447.28a7 7 0 0 1-5.673 6.368l-3.046.579a7.09 7.09 0 0 1-.409.064 7.698 7.698 0 0 1-5.136-1.094l-.473.09a7.001 7.001 0 0 1-6.011-1.693l-5.151-4.675c-.741.227-1.486.417-2.237.572-.124.031-.249.06-.375.084l-5.078.965c-.078.015-.157.025-.236.037a5.15 5.15 0 0 1-.302.041 6.844 6.844 0 0 1-.376.032c-.069.004-.138.006-.207.008a4.23 4.23 0 0 1-.16.003c-.077 0-.153 0-.23-.002l-.142-.004a7.064 7.064 0 0 1-.753-.078l-.057-.01a6.116 6.116 0 0 1-.328-.063l-.047-.01a6.968 6.968 0 0 1-3.1-1.579c-.026-.023-.054-.045-.079-.069l-1.715-1.556c-4.253.178-8.283-.28-11.866-1.687a20.645 20.645 0 0 1-.943-.396l-.003-.002c-.076-.035-.198-.089-.33-.151a18.6 18.6 0 0 1-4.573-3.035l-.133-.123-4.003-3.633c-.029.064-.057.127-.088.19l.555 4.174c.059.378.089.762.085 1.149l-.018 1.909a6.976 6.976 0 0 1-1.162 3.979c-1.586 2.393-2.655 4.29-3.31 5.733-.704 1.553-.703 2.094-.701 1.922a6.984 6.984 0 0 1-1.456 4.157l-.053.067-.097.12a7.934 7.934 0 0 1-.318.358l-.085.088a6.535 6.535 0 0 1-.083.084l-.065.064-.105.098-.093.083a5.424 5.424 0 0 1-.272.229l-.092.073a6.997 6.997 0 0 1-2.973 1.34l-4.061.773c-.06.011-.122.018-.182.028l-.123.02-.188.025a9.042 9.042 0 0 1-.234.023l-.102.008a5.921 5.921 0 0 1-.327.015c-.058.002-.116.001-.175.001l-.18-.003-.154-.005a9.11 9.11 0 0 1-.33-.024 9.212 9.212 0 0 1-.363-.046l-.122-.021a6.516 6.516 0 0 1-.237-.044l-.142-.029-4.999-1.133a7 7 0 0 1-3.157-1.643L72 152.313a7 7 0 0 1-2.223-6.184l.51-3.541-1.285-1.165a7.001 7.001 0 0 1-2.278-5.669l.095-1.361c-3.683 1.758-8.796 3.984-15.287 6.672l-.325 4.285c.502.921.798 1.951.849 3.019l.04.848a6.996 6.996 0 0 1-.477 3.103l.096.267a6.987 6.987 0 0 1 .247 3.84c.057.235.102.474.134.716.43 3.241-.56 6.795-1.658 9.812-1.209 3.319-3.048 7.261-5.42 11.758a6.846 6.846 0 0 1-.181.32l-.033.053a6.995 6.995 0 0 1-.427.623l-.02.026a6.582 6.582 0 0 1-.234.287l-.03.034a8.114 8.114 0 0 1-.197.216l-.067.069a6.642 6.642 0 0 1-.287.277 7 7 0 0 1-.581.476l-.023.017a6.993 6.993 0 0 1-3.676 1.325l-8.173.512a7.023 7.023 0 0 1-1.515-.072l-.074-.012a6.935 6.935 0 0 1-.933-.222l-.098-.031c-.062-.021-.124-.041-.185-.063a7.663 7.663 0 0 1-.56-.229l-.078-.036a9.27 9.27 0 0 1-.246-.123l-.027-.014a7.277 7.277 0 0 1-1.317-.901l-13.588-12.332a7.006 7.006 0 0 1-1.017-1.157l-.05-.068c-.053-.078-.103-.158-.153-.238-.022-.035-.045-.068-.066-.103-.12-.2-.23-.405-.33-.616l-.046-.095a7.029 7.029 0 0 1-.114-.27l-.04-.094a7.366 7.366 0 0 1-.102-.283l-.033-.097a6.916 6.916 0 0 1-.075-.249l-.046-.164a7.262 7.262 0 0 1-.085-.378 6.574 6.574 0 0 1-.051-.283l-.019-.118a7.17 7.17 0 0 1-.046-.426 7.102 7.102 0 0 1-.015-.837l.01-.186c.003-.034.003-.067.005-.1l.414-5.01-.377-.341v-.001c-2.51-2.279-3.145-5.283-3.248-7.404l-.015-.306a6.993 6.993 0 0 1 .476-2.887l.011-.051c.058-.275.138-.744.229-1.456.18-1.418.361-3.452.534-6.161.346-5.4.638-13.117.87-23.199a6.98 6.98 0 0 1 1.29-3.888l.691-6.445a7 7 0 0 1 2.48-4.63l.153-1.744-2.232-2.025c-1.75-1.589-2.582-3.689-2.68-5.718l-.003-.09c-1.617-2.002-2.032-4.325-2.032-6.074l-.007-1.135v-.076c.016-2.918.26-5.779 1.014-8.21.69-2.222 2.433-5.973 6.752-7.224l.16-.043a6.997 6.997 0 0 1 5.668-6.318l.683-.13a6.994 6.994 0 0 1 3.386-1.686l3.047-.58.383-.063a6.999 6.999 0 0 1 4.949 1.213l13.215-6.504.243-.114a7 7 0 0 1 7.41 1.087l11.02-2.69.02-.006c.11-.027.223-.051.336-.073l4.062-.772a7 7 0 0 1 6.013 1.693l.266.241.01-.005c.04-.027.082-.054.124-.08l.048-.03c.057-.036.115-.07.173-.104l.04-.024a7.22 7.22 0 0 1 .4-.212l.046-.022c.296-.142.603-.264.921-.365l.08-.023c.04-.013.082-.026.123-.037l11.24-3.18.437-.11a7.001 7.001 0 0 1 6.174 1.661l.798.725a6.981 6.981 0 0 1 3.17 1.646l8.35 7.577 6.172-7.157a7.01 7.01 0 0 1 2.014-1.607c2.059-3.064 5.213-5.155 8.373-6.64 3.848-1.809 8.685-3.18 14.269-4.242l.405-.065c.207-.027.415-.042.622-.05a7.001 7.001 0 0 1 2.799-.378c7.256.503 14.207 1.975 18.637 5.994l.003.003.046.042 12.53 11.371c.167-.739.336-1.459.509-2.159l-.15-3.1a7.241 7.241 0 0 1-.008-.361l.001-.101a6.3 6.3 0 0 1 .06-.803l.011-.086c.017-.11.037-.221.059-.332.006-.03.01-.06.017-.091l1.691-8.096a7.004 7.004 0 0 1-.128-3.994l.865-3.291a7.003 7.003 0 0 1 4.78-4.93c.227-.068.457-.12.687-.164v-.002l1.015-.192.405-.064a6.999 6.999 0 0 1 3.355.389l1.274-.243.09-.018a8.077 8.077 0 0 1 6.634 1.664l.36.31.807.732a7 7 0 0 1 5.139 1.444l.401.315.009.008.258.203.169.138.074.058c.185.137.365.282.538.44l11.09 10.064a7.264 7.264 0 0 1-.048-.533l-.05-1.033a6.978 6.978 0 0 1 .846-3.69l-.23-4.761a6.986 6.986 0 0 1 .871-3.734 6.824 6.824 0 0 1-.055-.59l-.05-1.035a6.999 6.999 0 0 1 5.793-7.235l2.937-.559a6.994 6.994 0 0 1 2.501-.018l1.006-.453.24-.102a7 7 0 0 1 6.255.497c.238-.112.475-.22.712-.321 2.427-1.05 5.273-1.834 8.392-2.439l54.705-12.49.42-.083Zm-53.593 19.405 11.001 9.985-.004.002-11.001-9.985c-5.829 1.109-9.523 2.706-11.084 4.792l-3.171-2.878-4.012 1.806.005.004-.009.114-1.056-.958-3.045.579.05 1.032 1.071.973.194 3.995-1.015.193 1.945 1.766-.001.007-1.951-1.77-.359-.283-.036-.033-.258-.203-.006-.005-.401-.315.351 7.227.947.859-1.913.365.05 1.033 1.896 1.72-1.796.343.1 2.065.014.013-.014-.011.947.86-1.913.365.05 1.033 1.365 7.03-2.03.388 1.049.953-.749 5.244 12.862 11.673v.003l-12.865-11.676-9.757 1.856 1.63-12.602-.005-.003v-.003l.006.005-.05-1.032-13.479-12.233v.006l-.006-.006-.359-.282-.036-.034-.259-.203-.005-.004-.401-.315c-.89.17-1.464.729-1.726 1.678l-4.602-4.178a1.088 1.088 0 0 0-.981-.28l1.703 1.546.001.003-1.705-1.547-4.062.773.006.135-1.072-.973-1.015.192-.001-.001-.865 3.29.818.743-2.299 11 2.583 2.344-.001.001-2.582-2.344.15 3.097.946.86-.896.171.003.003c-1.219 4.714-2.32 10.561-3.306 17.54-.814-.583-2.482-1.093-5.005-1.53l-.917-3.379-.004-.004v-.003l.004.005c.112-2.05-.598-3.77-2.129-5.16L156.1 52.79a.245.245 0 0 1 .017.016l-.02-.019c-2.542-2.306-7.348-3.704-14.418-4.195l-.07 1.055 13.475 12.23v.002l-13.475-12.23-1.011.192-.952-.862c-10.591 2.016-16.799 4.934-18.623 8.753l1.297 1.18c-.379.385-.752.768-1.119 1.148L120 58.97l-1.015.194-.001-.001-6.449 7.478-.001-.001-.07 1.055.001.001v.002l1.092.99-.001.001-1.094-.992-.001.001-4.086 4.7-.439-.81-13.48-12.233v.002c-.433.082-.832.13-1.195.145l-2.774-2.519-11.24 3.18 13.478 12.233-.002.001-.001.001-13.478-12.232-.01 1.044 1.012.917v6.08l-9.84-8.934-4.063.773 2.463 2.235-.001.003-2.465-2.237-14.626 3.573-2.617-2.374-17.248 8.489-.1-.082L43.195 80.04v.004L31.745 69.65l5.797 5.339-6.738-6.115-.957-.79-.03-.027-.943-.779 13.479 12.234.911.752.016.015-.932-.77L28.87 67.28l-.102-.085-3.046.58.003.004-2.048 2.472-.207-.176-.003-.002-.59-.5-.209-.175-1.015.194.001.001c.047 3.464-1.621 5.517-5.005 6.162l-.187.045c-1.78.516-2.684 3.432-2.714 8.749l.006 1.135c-.008.865.22 1.507.68 1.925l.018.016c-.007-.006-.014-.01-.02-.017l2.37 2.152-1.02 1.786c.018.36.15.651.394.873l4.808 4.365v.024l13.473 12.227v.006L20.98 96.808l-.934 10.597.002.002-1.01.192-.208-.175 13.478 12.233.206.174-.005.001-.207-.176-.588-.497.592.499-13.48-12.233-.77-.652-.027-.023-.913 8.509.949.861-1.978.377c-.467 20.227-1.176 31.311-2.126 33.254l.014.303 3.496 3.173-3.495-3.171c.057 1.178.377 2.032.96 2.561l2.933 2.662-.697 8.448.002.001-.002.001 13.475 12.228.004.005 8.173-.513-.005-.004.002-.004.006.006c4.6-8.72 6.71-14.516 6.33-17.385l-.008-.008-1.042-2.917-.002-.003.001-.001.001.001 1.014-.193.002.002-1.046-2.926.01-1.044-.003-.002.002-.004.004.004 1.026-1.237-.003-.001-.05-1.031-1.058-.961.874-11.506-.002-.002c16.904-6.893 25.35-10.931 25.335-12.113l-.002-.002.001-.005.006.006-.04-2.076-.95-.862c1.316-.297 1.95-2.153 1.904-5.569l-.002-.002-.05-1.031-.004-.14a1.125 1.125 0 0 0-.367-.775l-1.95-1.77 2.346-.445-.003-.003h.002l.001.003.01-1.044v-.003l-.024-.019-.04-.036.07.055-13.479-12.233-.4-.316.395.359v.002l-.397-.361-.258-.203-.006-.005-.401-.315 1.062.963-.001.004-1.065-.967-2.499.689c2.385-1.287 5.275-2.532 8.67-3.734l.397.314.264.208.4.315v-.003l.007.005c-.003-.891 4.65-2.468 13.96-4.73l.3.274-.01.98-2.03.386 13.478 12.233h-.004L76.025 92.035l-.009 1.043 1.006.915-.037 4.112.002.001-2.06 3.517-.115 18.777 13.474 12.228-.001.004-13.477-12.231-1.1 15.839 4.04 3.667-1.044 7.222 13.48 12.232 4.997 1.133v-.001h.001l.004.002 4.061-.772-.005-.005v-.003l.007.007c.042-2.46 1.765-6.262 5.173-11.405l-.003-.001.019-2.085-.002-.003-.946-7.109-.001-.001v-.002l1.025-1.235h.004l-.488-.444.498-.599-.003-.003.009-1.041-.001-.001.001-.002-.022-.018-.015-.013.043.034-1.067-.968.058-6.134-.005-.005v-.002l.007.007c.013-1.745.043-3.475.089-5.189.659 1.419 1.535 2.627 2.63 3.621l13.412 12.172.061.059a11.603 11.603 0 0 0 3.078 1.989c.204.092.413.179.626.263 3.042 1.194 6.969 1.527 11.784.997l3.943 3.579-.107-.101.042.038.064.06.002-.001.004.005 5.078-.966-.005-.004a17.78 17.78 0 0 0 2.184-.562c.363-.118.726-.248 1.087-.39.702-.276 1.4-.599 2.096-.966l8.413 7.634 3.047-.579.041-.727 2.266 2.056c.191.174.41.237.658.19l-.002-.002.004-.002.003.004 3.047-.58-.006-.005c.117-2.594 1.546-4.601 4.289-6.021l-.002-.002h.002l.002.002-.059-.058-.014-.012-.031-.032.048.044-.183-.18-.011-.01-.392-.387-.044-.039-.145-.143a1.048 1.048 0 0 1-.057-.058l2.109-2.483-.001-.001.001-.001.001.001-.579-8.227 1.362-5.468v-.002l.003.004.069-1.056-.998-.905 2.941-12.696.079.257.95.861-.9.172 1.073.972v.002l-1.073-.973.25 5.162 13.473 12.227v.004l.003-.001.004.002 1.014-.192-.005-.006v-.002l.006.006-.163-3.364 2.137 1.938.001.007.802.63.513.406.016.014.801.631-.001-.002.245-2.756 3.052 2.769c.245.222.516.305.813.249l-.003-.004h.003l.002.001 3.046-.579.002.002c1.764-5.893 3.261-17.291 4.492-34.196l-.003-.003h.004l7.375-.567c-1.426 10.033-2.058 16.75-1.893 20.152.057 1.178.319 1.978.784 2.4l13.464 12.221a1.32 1.32 0 0 0 .458.279c.273.098.591.113.955.044l-.001-.001 1.015-.192-.037-.795 2.192 1.99.008.008c.067.061.139.113.211.156.233.138.491.181.774.128l3.047-.579-.005-.005v-.002l.005.007.835-3.575 2.157 1.957-.001.002.401.315.236.185.029.027.4.315-.022-.02.022.017.005-.001.001.001 1.016-.192c4.551-28.957 7.964-54.582 10.244-76.872l2.537 2.304 6.408-.751c-.519 3.997-1.043 6.3-1.576 6.912l.651 13.422 13.006 11.805v.002L257.71 77.08c-2.031.386-2.914 3.333-2.647 8.839l1.878 1.704c-.348.712-1.138 1.216-2.376 1.508l-.367.079.05 1.032 2.144 1.946.137 2.827 1.06.961v.002l-1.061-.962-2.997 1.611 2.381 6.841 1.326 1.203-.001.001-1.324-1.202-1.013.192-.001-.001-.401-.315 2.695 2.447v.002l-2.697-2.449-.258-.202-.006-.006-.4-.315c.211 4.373 1.816 9.277 4.812 14.713l13.478 12.234h.002l1.015-.192-.004-.004h.002l.001-.002.002.002.964-1.225 4.209 2.324.001-.001.004.003 2.031-.386-.004-.003v-.002l.005.004-.05-1.033-.001-.001-1.04-5.916 5.026 4.561c.363.329.726.46 1.088.391l-.001-.002.005-.001.001.001 1.014-.192-3.696-12.841c4.196-40.309 7.19-63.107 8.984-68.393l-.782-.71.628-2.386-.002-.003.003.002 7.058-2.384-.002-.002.001-.001.003.003c9.357-1.78 14.689-4.531 15.996-8.253l-.003-.002-2.18-2.71 3.047-.58-.004-.002.001-.002.003.002-.1-2.064-13.479-12.233v.002l-.001-.001-3.091-.452-54.732 12.497ZM7.674 146.673a5.223 5.223 0 0 0-.121.268c.039-.089.078-.18.12-.268Zm257.065-15.916.02.04.005.01.001.002-.005-.01.001.001-.003-.006-.01-.019.009.017-.018-.035Zm6.268-3.119.004.008-.002-.001-.004-.008.002.001Zm-141.316-6.751c-.248.163-.492.314-.732.452l-.301-.273a17.578 17.578 0 0 1-.332-1.418l1.365 1.239Zm2.381-21.118.173.158.431.391-.005.001-.004.001 6.021 5.465-7.957 10.531-.001.002-1.009.193.478.435-.482-.437-1.589 1.871a24.667 24.667 0 0 1-.115-4.459l-.003-.003 2.675-11.969-.002-.001c.407-.797.814-1.574 1.218-2.334l.171.155Zm4.618-4.672c-1.287.495-2.32.967-3.099 1.417a119.79 119.79 0 0 1 1.602-2.775l1.497 1.358Zm1.382-2.057h-.004l-1.574-1.429.002-.002 1.576 1.43Zm17.212-17.456h.028a11.638 11.638 0 0 1 .928.04 12.95 12.95 0 0 1 2.353.42l.623.568.15.136.708.645.783.71-18.876 5.816c1.948-2.34 3.844-4.188 5.692-5.54a17.628 17.628 0 0 1 1.996-1.278c.329-.18.657-.344.983-.491.326-.147.651-.278.974-.393a10.815 10.815 0 0 1 3.658-.633ZM36.949 82.308l.201.172v.002l-.208-.177-.591-.499-.204-.174.798.674-1.236-1.123 1.24 1.125Zm.201.17v.002l-9.146-8.302 9.146 8.3Zm5.098-3.05.09.074-.092-.074-1.475-1.339 1.477 1.34Z" class="mainlogo__Union mainlogo__(Stroke)"/>
    <g class="mainlogo__Vector">
      <path fill="url(#mainlogo__a)" d="M89.964 56.317c-.059 2.095 1.265 2.885 3.973 2.37l2.052 3.777-1.026 1.237 1.016-.193c-4.152 15.5-6.302 32.927-6.45 52.282l-.058 6.262 1.066.839-.01 1.044-1.025 1.237 1.015-.193-1.025 1.237.948 7.113-.02 2.088c-3.408 5.143-5.132 8.944-5.174 11.404l-4.062.772-4.998-1.133 1.084-7.499-4.082-3.391 1.101-15.839.115-18.776 2.06-3.518.039-4.175-1.006-.85.01-1.044 2.03-.387.01-1.043-1.005-.851 3.171-20.4-1.015.193 1.025-1.237-.002-6.251-1.005-.85.01-1.044 11.238-3.18Zm-10.329 20.72-.008 7.295 1.015-.193.009-7.295-1.016.193Zm-1.053 10.62-.058 6.262 1.016-.193.058-6.262-1.016.193Zm-1.102 9.587.001 6.251 1.015-.193-.001-6.251-1.016.193Zm1.82 41.33-.048 5.219 1.99-2.462.09-3.143-2.031.386Z"/>
      <path fill="url(#mainlogo__b)" d="m48.58 60.579-.02 2.087-3.046.58-.01 1.044 1.016-.194 19.302-4.714 4.062-.773-.01 1.044-1.99 2.462 1.005.85.04 2.077c.053 3.586-.942 5.859-2.985 6.82l1.106 2.915-1.044 3.325L65 77.25l-1.016.193c-9.453 2.29-14.178 3.883-14.175 4.781l-1.065-.839c-11.498 4.067-17.204 8.626-17.12 13.677l.101 8.316 24.33-6.713 1.065.839-.01 1.044-5.077.966-.01 1.044c3.385-.644 5.07-.271 5.058 1.121l.05 1.033c.047 3.464-.606 5.324-1.96 5.582l-6.093 1.159-.01 1.044 7.109-1.352.04 2.076c.017 1.182-8.428 5.219-25.334 12.114L30 134.965l1.065.839.05 1.033-1.025 1.237-.01 1.043 1.046 2.927-1.015.193 1.046 2.927c.38 2.87-1.73 8.665-6.331 17.385l-8.173.513.873-10.585c-2.588.492-3.944-.537-4.067-3.087l-.015-.304c.95-1.938 1.66-13.023 2.126-33.256l2.031-.386-1.006-.851.914-8.509 1.006.85 1.015-.193.934-10.597-.021-4.163c-3.385.644-5.11.277-5.177-1.1l2-3.505c-2.708.515-4.052-.271-4.032-2.359-.101-6.232.864-9.542 2.894-9.928 3.385-.644 5.054-2.698 5.007-6.162l1.015-.194 1.006.851 2.05-2.474 3.046-.58 3.077 2.54 17.25-8.491Zm3.057 4.628-.01 1.044 3.046-.58 11.18-3.17-.05-1.032-6.093 1.16-8.073 2.578ZM42.63 78.382l.05 1.032 1.016-.193 20.208-5.93.01-1.043-3.037-.464-1.025 1.237-1.015.193-1.006-.85-15.2 6.018Zm-24.937 46.422.132 11.436 1.015-.194-.132-11.436-1.015.194Zm2.92 29.17.02 4.163 1.016-.193-.02-4.164-1.016.194Z"/>
      <path fill="url(#mainlogo__c)" d="m298.25 14.422 3.096.453.1 2.064-3.046.58 2.181 2.71c-1.307 3.723-6.639 6.474-15.996 8.254l-7.058 2.385-.866 3.29 1.016-.193c-1.794 5.286-4.788 28.083-8.984 68.393l3.696 12.842-1.015.193c-1.514.288-3.034-2.896-4.562-9.551l.515-10.518-.05-1.032-1.015.193.1 2.065c-2.031.386-3.013 1.268-2.946 2.644l.05 1.033 2.831 16.132.05 1.032-2.031.387-4.212-2.325-.965 1.226-1.016.193c-2.996-5.436-4.6-10.341-4.811-14.713l1.065.839 1.015-.193-2.38-6.84 2.996-1.613-.25-5.162-2.031.387-.05-1.033c2.031-.386 3.013-1.267 2.946-2.644l-.05-1.032-2.031.386c-.266-5.506.616-8.453 2.646-8.839l-.65-13.421c1.028-1.176 2.032-8.661 3.012-22.454l-7.058 2.385-14.266 1.673-.05-1.033 5.027-1.998.05 1.032.966-1.225 15.231-2.899-.15-3.097-16.147 5.156-1.065-.839-1.016.193-6.042 2.192-3.146-1.485.765-5.355-1.065-.84c-.167-3.441 3.811-5.934 11.934-7.48l54.732-12.498Zm-5.942 4.256.05 1.033 4.061-.773-.05-1.032-4.061.772Zm-34.77 64.964-.93 23.099 2.031-.386-1.266-4.969-.1-2.065 1.881-3.483-1.015.193.965-1.226-.05-1.032-1.065-.84-.05-1.032 1.83-4.516-1.215-3.936-1.016.193Z"/>
      <path fill="url(#mainlogo__d)" d="M229.27 28.838c.943 5.377 2.093 7.937 3.447 7.679l1.015-.193c-.1-2.065.526-3.226 1.88-3.484l1.016-.193c-2.232 24.45-5.959 53.292-11.181 86.523l-1.015.193-1.065-.839.965-1.226-.4-8.258-1.015.192-2.546 10.904-3.047.58c-1.354.257-2.13-1.679-2.331-5.808l-1.015.194.2 4.128-1.015.194c-1.354.258-2.082-.646-2.182-2.711-.241-4.98 1.224-17.067 4.393-36.26l-1.016.192-13.15 3.544-9.189.707c-1.23 16.905-2.728 28.303-4.492 34.196l-3.046.58c-1.354.257-2.164-2.367-2.43-7.873l-1.016.194-.665 7.419-2.131-1.678-.15-3.098.965-1.225-.05-1.033-1.066-.839-1.015.193-.965 1.226-1.015.193-1.216-3.936c.704-10.567 1.536-19.885 2.496-27.954l-13.113 4.17-.07 1.055 1.015-.194 9.209-2.794-.14 2.11c-6.769 1.288-10.319 4.743-10.649 10.362l-4.038 17.439 1.006.851-.07 1.055-1.362 5.469.579 8.225-2.111 2.485.887.874c-2.744 1.421-4.174 3.43-4.289 6.026l-3.047.58c-1.353.256-1.861-2.773-1.524-9.088l-1.017.193-.426 7.375-3.045.58.286-5.265-.588-7.181-2.031.386c-3.729 3.488-7.545 5.603-11.447 6.346l-5.078.966-1.832-1.735.01-1.044 2.031-.387.07-1.054c-14.056 2.674-21.895-.697-23.517-10.113a72.567 72.567 0 0 1-1.842-13.133 74.823 74.823 0 0 1 .075-8.41l.079-2.1c.342-5.377 2.438-12.722 6.287-22.035l1.015-.193-.139 2.11-3.473 7.955-.009 1.043 1.016-.193c.372-6.404 6.579-15.573 18.619-27.507l1.015-.194.071-1.054-1.016.193-3.116 1.635c1.825-3.82 8.033-6.739 18.625-8.754l.946.862 1.015-.193.07-1.055c11.33.786 16.846 3.904 16.548 9.354l1.613 5.944-2.03.387c.145-2.806-.459-4.08-1.813-3.823l-1.016.193.788 5.06-.129 1.067-2.031.386c-1.353.258-1.962-.669-1.823-2.779l-1.084 1.248-1.015.193c-3.518-2.109-6.831-2.867-9.937-2.277-6.769 1.289-14.283 10.012-22.542 26.17l-2.676 11.97c-.552 9.34 3.468 15.174 12.06 17.503l-.139 2.109-2.031.387-.069 1.056 2.031-.387c4.818-.917 11.606-8.46 20.363-22.63l.069-1.055-1.015.193c-5.056 7.622-9.74 13.376-14.052 17.261l-1.016.194 11.953-15.82-7.108 1.353c.093-1.407-.877-1.918-2.907-1.531l-.946-.862.069-1.055c.053-1.4 3.487-3.095 10.303-5.087l.139-2.11-1.085 1.249-6.093 1.16-5.666-6.216 1.086-1.248.009-1.044 11.16-1.081 26.549-8.178.069-1.056c-3.384.644-5.03.263-4.938-1.144l1.016-.193.946.862 1.084-1.249 1.015-.193c5.54.557 8.953 1.296 10.24 2.216.986-6.979 2.088-12.825 3.306-17.54l1.016-.192-1.066-.84-.15-3.096 2.496-11.937-1.015.193.865-3.29 1.015-.194.15 3.098 1.017-.194-.1-2.064 4.061-.773c1.353-.258 2.13 1.679 2.33 5.808l3.097.453c-.1-2.065.527-3.226 1.881-3.483l1.065.839.05 1.031L193.4 71.09l15.181-3.93 10.155-1.934.765-5.355-1.065-.839 2.03-.387-1.365-7.033-.05-1.033 2.03-.385-1.065-.84-.1-2.065 2.031-.386-.1-2.065-2.031.386-.05-1.032 2.031-.386-1.066-.84-.35-7.226 1.066.839 1.015-.194-.2-4.129-1.066-.839-.05-1.033 3.047-.58-3.377 36.068c1.354-.258 2.835-12.001 4.443-35.229l4.011-1.804ZM127.4 129.734l-.01 1.044 5.078-.966.009-1.044-5.077.966Zm14.78-12.19-7.523 7.684 8.4-5.766.14-2.111-1.017.193Zm34.078 1.609-1.015.193-.25-5.162 1.015-.193.25 5.162Zm-48.154-1.014-1.016.193 2.11-2.485 1.016-.193-2.11 2.485Zm96.393-18.584-.765 5.355.15 3.097 1.015-.193.665-7.42-.05-1.033-1.015.194Zm-7.658-10.005.2 4.13 1.015-.193-.2-4.13-1.015.193Zm1.632-8.645-.717 6.388.05 1.031 1.017-.192.765-5.355-.1-2.065-1.015.193Zm-38.02-.858-.954.181.088 1.824 1.015-.193-.114-2.353-.035.54Zm-3.854-2.393-.069 1.055.008-.003.148-1.153-.087.101Zm2.788.268.012.24 1.015-.193-.012-.24-1.015.193Zm-19.831-1.193-1.892-1.723 4.061-.774-2.169 2.497Zm21.361-9.516-.765 5.354.05 1.032 1.015-.193.816-4.322-.1-2.065-1.016.194Zm-69.099.887-4.28 4.982.069-1.055 4.34-4.993-.129 1.066Zm69.865-6.243.2 4.13 1.015-.193-.2-4.13-1.015.193Zm-69.736 5.177.069-1.056 6.45-7.479 1.015-.193-7.534 8.728Zm71.216-16.92-.615 8.453.1 2.064 1.015-.193.615-8.453-.1-2.064-1.015.193Zm-49.665 7.61-.01 1.043 7.108-1.352.009-1.044-7.107 1.352Zm50.28-16.063.35 7.227 1.017-.193-.35-7.227-1.017.193Z"/>
    </g>
  </g>
</svg>
