<svg width="320" height="194" viewBox="0 0 320 194" fill="none" xmlns="http://www.w3.org/2000/svg">
<path d="M6.90076 193.852C7.92036 193.707 8.92738 193.336 9.85172 192.765C10.7607 192.226 11.5672 191.496 12.2109 190.631L10.4533 189.073C10.0219 189.666 9.48612 190.174 8.88076 190.565C8.28692 190.943 7.63496 191.185 6.97518 191.274C6.41841 191.358 5.86598 191.329 5.34987 191.187C4.83376 191.046 4.36421 190.795 3.9684 190.449C3.58727 190.11 3.28613 189.686 3.08249 189.202C2.86417 188.688 2.75424 188.12 2.75914 187.53C2.75319 186.937 2.86 186.332 3.07363 185.749C3.27305 185.207 3.56857 184.696 3.9436 184.246C4.31969 183.798 4.76951 183.421 5.26626 183.139C5.78391 182.841 6.34105 182.648 6.90342 182.573C7.58162 182.475 8.25109 182.54 8.85862 182.763C9.48658 182.998 10.0364 183.383 10.4683 183.89L12.2818 181.774C11.6442 181.071 10.8328 180.557 9.91373 180.275C8.96916 179.96 7.94132 179.872 6.90076 180.017C5.97134 180.141 5.04992 180.453 4.18988 180.935C3.37506 181.388 2.63108 181.988 1.99814 182.702C1.37341 183.416 0.876502 184.232 0.536393 185.105C0.183819 186.019 0.00152996 186.971 9.58957e-06 187.908C-0.00151078 188.845 0.177767 189.748 0.527534 190.565C0.863617 191.339 1.35739 192.014 1.97954 192.548C2.61277 193.085 3.35707 193.475 4.17216 193.699C5.03802 193.939 5.96552 193.991 6.90076 193.852ZM41.9624 188.944C42.8887 188.821 43.807 188.509 44.6635 188.027C45.4747 187.576 46.2129 186.974 46.8353 186.256C47.4578 185.538 47.9523 184.718 48.2904 183.843C48.6444 182.934 48.8268 181.985 48.8268 181.052C48.8268 180.12 48.6444 179.222 48.2904 178.412C47.9523 177.633 47.4578 176.951 46.8354 176.408C46.2129 175.865 45.4748 175.471 44.6635 175.248C42.9367 174.774 41.0058 175.046 39.2789 176.004C38.4677 176.455 37.7295 177.057 37.1071 177.776C36.4846 178.494 35.9901 179.314 35.652 180.189C35.2983 181.098 35.116 182.046 35.116 182.979C35.116 183.912 35.2983 184.809 35.652 185.619C35.9901 186.399 36.4847 187.08 37.1071 187.623C37.7296 188.166 38.4677 188.561 39.2789 188.784C40.1299 189.024 41.0416 189.08 41.9624 188.944ZM41.9624 186.392C41.4187 186.473 40.8799 186.44 40.3789 186.294C39.8779 186.148 39.4252 185.893 39.0486 185.545C38.6771 185.194 38.385 184.763 38.1884 184.274C37.7688 183.219 37.7688 181.984 38.1884 180.81C38.3867 180.27 38.6787 179.76 39.0486 179.308C39.4252 178.854 39.8779 178.471 40.3789 178.185C40.8799 177.898 41.4187 177.714 41.9624 177.642C42.5219 177.559 43.0763 177.595 43.5907 177.749C44.0818 177.893 44.5255 178.144 44.8947 178.487C45.2647 178.835 45.5566 179.263 45.7549 179.747C46.1743 180.803 46.1743 182.037 45.7549 183.211C45.5583 183.755 45.2662 184.268 44.8947 184.723C44.5255 185.169 44.0818 185.545 43.5907 185.827C43.0765 186.125 42.5216 186.318 41.9624 186.392ZM82.63 183.018V180.562L75.5427 181.558V170.581L72.862 170.958V184.389L82.63 183.018ZM116.453 178.264V175.809L109.366 176.805V165.828L106.683 166.205V179.636L116.453 178.264ZM150.534 173.475V171.057L143.189 172.089V168.903L147.982 168.23V165.888L143.189 166.562V163.494L150.46 162.472V160.055L140.505 161.454V174.885L150.534 173.475ZM180.286 169.485C181.306 169.34 182.313 168.969 183.237 168.398C184.146 167.859 184.953 167.129 185.596 166.264L183.838 164.708C183.407 165.3 182.871 165.808 182.265 166.199C181.672 166.577 181.02 166.82 180.36 166.908C179.803 166.992 179.251 166.963 178.735 166.821C178.219 166.68 177.75 166.429 177.354 166.083C176.973 165.744 176.672 165.32 176.468 164.836C176.25 164.322 176.139 163.754 176.144 163.164C176.138 162.571 176.245 161.966 176.459 161.383C176.658 160.841 176.953 160.33 177.328 159.88C177.704 159.432 178.154 159.055 178.651 158.773C179.169 158.475 179.726 158.282 180.288 158.207C180.969 158.109 181.64 158.175 182.249 158.4C182.878 158.635 183.427 159.02 183.859 159.527L185.673 157.411C185.035 156.708 184.224 156.194 183.305 155.912C182.36 155.597 181.333 155.509 180.293 155.653C179.363 155.778 178.442 156.09 177.582 156.572C176.767 157.024 176.022 157.624 175.389 158.338C174.764 159.052 174.267 159.868 173.926 160.741C173.574 161.655 173.392 162.608 173.39 163.545C173.389 164.482 173.568 165.384 173.918 166.201C174.254 166.975 174.748 167.65 175.37 168.185C176.003 168.721 176.747 169.111 177.562 169.335C178.427 169.573 179.353 169.625 180.286 169.485ZM215.774 164.306V153.329L220.121 152.718V150.261L208.724 151.863V154.319L213.091 153.706V164.681L215.774 164.306ZM246.506 159.987V146.556L243.824 146.933V160.364L246.506 159.987ZM277.406 155.855C278.332 155.732 279.251 155.421 280.107 154.939C280.918 154.487 281.656 153.885 282.279 153.167C282.901 152.449 283.396 151.629 283.734 150.754C284.088 149.845 284.27 148.896 284.27 147.964C284.27 147.031 284.088 146.133 283.734 145.324C283.396 144.544 282.901 143.863 282.279 143.32C281.656 142.777 280.918 142.382 280.107 142.159C278.38 141.686 276.45 141.957 274.723 142.916C273.912 143.367 273.175 143.969 272.552 144.687C271.93 145.405 271.436 146.225 271.097 147.1C270.743 148.009 270.56 148.958 270.56 149.89C270.56 150.823 270.743 151.721 271.097 152.53C271.436 153.31 271.93 153.991 272.552 154.534C273.175 155.077 273.912 155.472 274.723 155.695C275.574 155.935 276.486 155.989 277.406 155.854V155.855ZM277.406 153.304C276.849 153.387 276.298 153.35 275.787 153.195C275.299 153.049 274.859 152.798 274.492 152.456C274.12 152.106 273.828 151.675 273.631 151.186C273.212 150.13 273.212 148.896 273.631 147.722C273.829 147.182 274.122 146.672 274.492 146.22C274.859 145.775 275.299 145.4 275.787 145.117C276.298 144.818 276.849 144.627 277.406 144.553C277.965 144.47 278.519 144.507 279.033 144.66C279.525 144.805 279.969 145.056 280.338 145.398C280.708 145.746 281 146.174 281.198 146.658C281.618 147.714 281.618 148.949 281.198 150.122C281.002 150.666 280.71 151.18 280.338 151.634C279.969 152.081 279.525 152.457 279.033 152.739C278.519 153.036 277.965 153.228 277.406 153.302V153.304ZM310.839 150.946V141.962L317.444 150.018L319.812 149.685V136.254L317.297 136.608V145.3L310.858 137.512L308.304 137.871V151.302L310.839 150.946Z" fill="white"/>
<path fill-rule="evenodd" clip-rule="evenodd" d="M3.73585 42.351C3.58191 41.6354 3.64074 36.6926 3.70288 35.8208C4.68949 35.5403 5.55134 35.4452 6.42049 35.3492C6.61704 35.3275 6.81396 35.3058 7.01278 35.2819C7.40444 35.2348 7.87774 35.1534 8.38946 35.0655C10.0893 34.7734 12.2131 34.4084 13.1768 34.9819C14.9292 36.0247 15.1348 38.5373 13.4438 40.2371C12.5231 41.1625 11.4425 41.3341 10.2245 41.4762C9.06903 41.611 7.94597 41.7717 6.82404 41.9322C5.80249 42.0784 4.78057 42.2245 3.73585 42.351ZM3.76377 32.0205C3.73923 31.9271 3.62192 26.2408 3.74338 25.4959C3.74679 25.4753 3.75151 25.4525 3.75596 25.4311C3.7585 25.4188 3.76095 25.407 3.763 25.3964L3.81461 25.1984C4.34904 25.0488 8.02642 24.5142 8.45881 24.5779C11.8346 25.0748 11.6983 29.848 8.67005 31.1251C7.57714 31.586 6.12784 31.7468 4.88407 31.8848C4.48298 31.9293 4.10327 31.9715 3.76377 32.0205ZM0.742901 46.3705L0.637071 46.3748C0.524337 45.7404 0.390369 45.0636 0.233972 44.3424C-0.0393287 42.7051 -0.0115297 41.2685 0.0181389 39.7353C0.0254496 39.3575 0.0328732 38.9739 0.0359347 38.58L0.0251365 27.1728C0.0154515 24.9813 0.0118769 23.8156 1.58348 22.417C2.71962 21.4058 4.4392 21.2608 5.93733 21.1345C6.29285 21.1045 6.63589 21.0756 6.95571 21.0364C9.23642 20.7568 10.1806 20.8461 11.6661 21.6569C12.961 22.3636 14.0575 23.6511 14.4587 25.6518C14.8611 27.6575 14.5656 28.41 14.1908 29.3642C14.0198 29.7997 13.8322 30.2772 13.687 30.9351C13.8146 31.0539 14.0749 31.1622 14.404 31.2992C14.9759 31.5371 15.7557 31.8615 16.409 32.4781C19.2597 35.1685 18.7012 39.56 16.0385 42.5177C14.0194 44.7606 11.7053 45.0111 9.03379 45.3002L9.02726 45.3009C8.89757 45.315 8.76704 45.3291 8.63567 45.3436C7.61012 45.4565 6.57814 45.6227 5.54319 45.7895C3.94592 46.0469 2.34158 46.3054 0.742901 46.3705Z" fill="white"/>
<path fill-rule="evenodd" clip-rule="evenodd" d="M65.6479 16.2799C68.2846 14.7397 71.0511 14.8088 73.0242 15.4875C75.1985 16.2355 76.2591 17.3679 77.5839 19.7201C78.7753 21.8359 78.126 25.4858 77.3089 27.2403C74.9766 32.2483 69.5975 34.8856 64.9712 33.2446C60.5545 31.678 58.5087 26.175 60.8656 21.4331C61.9582 19.2349 63.1025 17.7667 65.6479 16.2799ZM65.3085 12.5464C64.4984 13.1039 63.0673 13.3789 60.7944 15.6072C59.5381 16.8389 58.6989 18.0837 57.882 19.5346C54.4242 25.6755 56.4036 33.8852 62.775 36.5742C73.1393 40.9482 84.8217 29.0841 81.3445 18.7303C79.7997 14.1307 75.4534 11.2093 70.9491 11.3057C69.689 11.3327 66.6241 11.641 65.3085 12.5464Z" fill="white"/>
<path fill-rule="evenodd" clip-rule="evenodd" d="M144.244 14.1733C143.814 12.8786 145.086 9.18273 145.648 8.13959C148.133 3.53279 152.213 2.23554 155.141 5.90627C156.513 7.62719 157.003 9.6721 157.149 12.3118C156.507 12.5957 146.43 13.8245 144.244 14.1733ZM144.058 26.16C144.284 25.5487 144.176 19.2205 144.172 18.023C144.559 17.8676 156.646 16.1596 157.025 16.2203C157.245 16.9263 157.148 19.3497 157.152 20.2863C157.155 21.2042 157.016 23.6987 157.23 24.3818C161.554 23.311 160.737 19.7938 160.896 17.8017C161 16.5092 160.889 14.8669 160.897 13.4986C160.906 11.7952 161.015 10.8651 160.669 9.00165C159.685 3.70943 155.973 -0.908799 150.395 0.153312C144.488 1.27797 141.268 7.35943 140.637 12.0414C140.428 13.5861 140.393 18.8226 140.433 20.5202C140.462 21.7263 140.21 23.7548 140.904 24.7694C141.529 25.6837 142.772 26.5631 144.058 26.16Z" fill="white"/>
<path fill-rule="evenodd" clip-rule="evenodd" d="M24.0665 30.9611C23.5778 28.1953 25.8234 21.7506 30.2022 20.7228C35.1274 19.5668 37.3613 27.1731 36.8859 29.0573C36.085 29.452 28.9786 30.2743 27.1879 30.5628C26.1246 30.7341 25.0184 30.7477 24.0665 30.9611ZM23.908 42.9513C24.0198 40.6462 23.9779 37.1096 23.907 34.8719C24.2638 34.6572 36.3221 32.9397 36.8332 33.0098C37.0616 33.7774 36.8996 36.0925 36.9078 37.0406C36.9168 38.0683 36.8072 40.3652 36.9953 41.2076C40.5877 40.2956 40.8619 37.5669 40.6649 34.5781L40.688 30.2971C40.7117 25.6866 40.2415 22.0336 36.8937 18.8971C35.2227 17.3317 33.208 16.5554 30.2352 16.9372C26.9793 17.3553 24.6843 19.7824 23.2727 21.6651C21.8883 23.5114 20.8033 26.2731 20.4395 28.8405C20.0666 31.4729 20.2463 34.5737 20.219 37.2808C20.2057 38.6107 20.0094 40.4181 20.6922 41.5925C21.2924 42.6247 22.5962 43.2695 23.908 42.9513Z" fill="white"/>
<path fill-rule="evenodd" clip-rule="evenodd" d="M127.616 7.45112C130.18 5.81502 132.836 7.06767 133.719 8.90634C134.954 11.4776 133.415 14.2137 131.37 15.3873C125.826 18.57 122.022 11.0205 127.616 7.45112ZM124.906 20.291C125.443 20.3492 125.843 20.8705 126.426 21.3845C127.631 22.4468 132.639 26.9314 133.419 27.2791C134.856 27.919 136.325 27.2997 137.664 26.2007C137.355 25.1709 131.148 20.7832 130.615 19.5727C137.342 17.2832 139.318 10.3909 136.648 6.16752C133.074 0.511485 123.725 2.7198 121.514 10.2834C120.966 12.1577 121.233 21.0022 121.219 23.1996L121.215 28.6092C121.21 29.0845 121.083 29.3472 121.487 29.3604C121.984 29.3767 123.206 28.645 123.527 28.3189C125.584 26.2315 124.59 23.8353 124.906 20.291Z" fill="white"/>
<path fill-rule="evenodd" clip-rule="evenodd" d="M119.438 29.6391C118.911 24.9919 114.818 26.9108 111.948 27.0677C111.303 27.103 108.96 27.6711 108.653 27.4591L108.553 27.3139C108.545 27.2944 108.522 27.2581 108.514 27.2331C108.392 26.8671 108.526 24.5493 108.497 23.7897C108.45 22.5967 108.485 21.1758 108.507 19.9816C109.939 19.4287 114.928 19.3182 115.83 18.7293C115.704 16.8874 114.559 15.9249 113.331 15.6941C112.007 15.4451 109.347 16.2388 108.576 16.1186C108.47 15.6237 108.402 10.8731 108.61 10.3678L115.265 9.39834C116.578 9.26733 117.482 8.86597 118.324 7.98119C118.932 7.34174 119.588 6.16882 119.381 5.11417L114.702 5.71905C114.08 5.80901 113.523 5.96675 112.919 6.03774C107.76 6.64325 104.627 6.32357 104.831 12.8123C104.912 15.3891 104.641 27.7657 104.964 29.0688C105.775 32.3446 110.028 31.084 112.886 30.6352C114.02 30.457 115.018 30.4 116.145 30.1821C117.14 29.9898 118.519 30.0026 119.438 29.6391Z" fill="white"/>
<path fill-rule="evenodd" clip-rule="evenodd" d="M103.627 7.39692L97.0459 8.27438C94.5141 8.62863 92.4252 9.3594 90.2371 10.8231C80.0413 17.6435 82.1216 31.9259 93.4524 32.9989C95.5968 33.202 97.6368 32.6966 99.9141 32.4655C100.414 32.4148 100.975 32.3162 101.509 32.2349C103.324 31.9587 104.096 32.3961 103.39 30.6181C102.228 27.6881 98.7753 29.0436 96.6487 29.2143C92.3895 29.556 88.964 28.2684 87.6189 24.0867C86.2947 19.9696 88.8611 15.6342 92.7089 13.419C97.2325 10.8148 99.9758 12.8316 102.51 10.2116C103.16 9.5398 103.742 8.48479 103.627 7.39692Z" fill="white"/>
<path fill-rule="evenodd" clip-rule="evenodd" d="M46.9961 18.9272C47.2994 20.1279 46.809 38.2441 47.1641 39.7883C51.5158 38.5588 50.638 35.2692 50.7256 32.9464C50.8042 30.8621 50.5883 18.8611 50.7989 18.545C50.9959 18.2495 51.6988 18.2658 51.9101 18.2424C52.779 18.1463 55.004 17.8309 55.684 17.4672C57.2214 16.6448 58.0704 15.2204 58.0241 13.7143C57.6014 13.6301 42.8261 15.7025 40.6234 16.0438C39.6728 16.191 39.5933 16.2544 39.8965 17.2531C40.8776 20.4853 44.653 19.1387 46.9961 18.9272Z" fill="white"/>
<path fill-rule="evenodd" clip-rule="evenodd" d="M65.0456 55.4844L62.8254 58.1169L63.8992 59.0648L63.8967 61.3227C63.8734 65.2225 62.7399 67.6727 60.4967 68.6713L61.6325 71.8657L60.4216 75.4574L59.3478 74.5096L58.2384 74.6964C47.9078 76.9715 42.7341 78.5979 42.7171 79.5747L41.5777 78.6382C28.9844 82.8006 22.6762 87.6285 22.6528 93.122L22.5753 102.167L49.181 95.4177L50.3204 96.3542L50.2869 97.4888L44.7442 98.4249L44.7096 99.5596C48.4045 98.9358 50.2299 99.3808 50.1844 100.894L50.2154 102.017C50.1884 105.785 49.4351 107.794 47.9571 108.043L41.3071 109.166L41.2726 110.301L49.032 108.991L49.0285 111.249C49.0203 112.534 39.7471 116.734 21.2083 123.848L19.9844 136.474L21.1238 137.41L21.1548 138.533L20.013 139.856L19.9784 140.99L21.0497 144.196L19.9414 144.383L21.0117 147.59C21.36 150.719 18.934 156.973 13.7341 166.351L4.83531 166.724L6.02574 155.233C3.20026 155.71 1.74869 154.56 1.67201 151.784L1.66289 151.454C2.74077 149.368 3.7627 137.33 4.72776 115.341L6.94442 114.966L5.86956 114.018L7.05648 104.786L8.13028 105.734L9.23863 105.548L10.4936 94.0464L10.5651 89.5181C6.87059 90.1418 5.00204 89.7046 4.96034 88.2066L7.21505 84.4384C4.25913 84.9373 2.81486 84.0522 2.88322 81.7827C2.91444 75.0039 4.0389 71.4271 6.25579 71.0529C9.95056 70.4292 11.812 68.2339 11.8391 64.4663L12.9474 64.2785L14.0212 65.2263L16.3069 62.5824L19.632 62.021L22.92 64.8532L41.8699 56.0095L41.8019 58.2787L38.4758 58.8402L38.4423 59.9748L39.5507 59.788L60.6457 55.098L65.0791 54.3497L65.0456 55.4844ZM9.34724 156.93L9.27567 161.458L10.384 161.271L10.4556 156.743L9.34724 156.93ZM6.83236 125.146L6.71676 137.584L7.8251 137.397L7.9407 124.959L6.83236 125.146ZM53.8456 69.7931L52.7372 69.981L51.6624 69.0331L34.9982 75.2329L35.0292 76.3572L36.1376 76.1694L58.2454 70.1795L58.2789 69.0449L54.9885 68.4717L53.8456 69.7931ZM53.9266 58.4901L45.0899 61.1109L45.0553 62.2456L48.3803 61.6841L60.6087 58.4916L60.5777 57.3672L53.9266 58.4901Z" fill="white"/>
<path fill-rule="evenodd" clip-rule="evenodd" d="M86.9667 52.3121C86.8551 54.5886 88.2772 55.477 91.2329 54.9781L93.378 59.1317L92.2352 60.4542L93.3435 60.2663C88.4783 77.0257 85.7471 95.9269 85.1489 116.969L84.9438 123.778L86.0831 124.714L86.0486 125.849L84.9068 127.171L86.0151 126.983L84.8722 128.306L85.7409 136.062L85.6728 138.331C81.851 143.846 79.8898 147.941 79.7889 150.614L75.3545 151.363L69.9464 150.018L71.2944 141.888L66.9316 138.108L68.4872 120.911L69.0371 100.497L71.3574 96.7179L71.4934 92.1794L70.4196 91.2316L70.4531 90.097L72.6708 89.7223L72.7043 88.5877L71.6306 87.6409L75.54 65.5306L74.4316 65.7174L75.5745 64.3949L75.7141 57.5985L74.6392 56.6507L74.6738 55.516L86.9667 52.3121ZM73.5111 141.513L73.3405 147.186L75.5596 144.554L75.7278 141.138L73.5111 141.513ZM72.4657 96.5312L72.3251 103.329L73.4345 103.142L73.5741 96.3444L72.4657 96.5312ZM73.8818 86.1316L73.6766 92.9394L74.785 92.7526L74.9901 85.9448L73.8818 86.1316ZM75.2668 74.6077L75.0927 82.5398L76.201 82.353L76.3751 74.4209L75.2668 74.6077Z" fill="white"/>
<path fill-rule="evenodd" clip-rule="evenodd" d="M317.747 12.0305L317.809 14.2781L314.483 14.8396L316.794 17.8368C315.289 21.854 309.428 24.7249 299.213 26.4493L291.485 28.8823L290.47 32.441L291.578 32.2542C289.508 37.9609 285.736 62.6823 280.261 106.418L283.991 120.464L282.881 120.652C281.23 120.93 279.649 117.434 278.138 110.164L278.936 98.7387L278.905 97.6155L277.796 97.8022L277.859 100.05C275.642 100.424 274.554 101.36 274.596 102.858L274.627 103.982L277.34 121.587L277.371 122.712L275.154 123.085L270.627 120.463L269.549 121.774L268.441 121.96C265.306 115.982 263.673 110.613 263.541 105.853L264.68 106.79L265.79 106.603L263.355 99.1105L266.65 97.4257L266.495 91.8073L264.277 92.1819L264.246 91.0576C266.463 90.6834 267.552 89.7468 267.51 88.2485L267.479 87.1253L265.262 87.4988C265.097 81.506 266.122 78.3223 268.339 77.9481L267.936 63.3402C269.08 62.0845 270.341 53.9681 271.718 38.9927L263.99 41.4267L248.441 42.9228L248.409 41.7984L253.92 39.7391L253.951 40.8634L255.03 39.5523L271.656 36.7461L271.563 33.3742L253.889 38.6158L252.75 37.6793L251.641 37.8661L245.8 39.8475C242.815 64.1536 238.501 92.1111 232.858 123.72L231.75 123.906L230.611 122.97L231.688 121.659L231.44 112.669L230.332 112.856L227.317 124.655L223.991 125.216C222.513 125.465 221.712 123.343 221.588 118.848L220.48 119.036L220.604 123.53L219.495 123.718C218.017 123.967 217.247 122.968 217.184 120.72C217.035 115.3 218.9 102.191 222.781 81.3915L221.672 81.5783L207.293 85.1341L197.286 85.6952C195.565 104.049 193.679 116.409 191.628 122.777L188.303 123.338C186.825 123.587 186.003 120.715 185.838 114.722L184.729 114.91L183.838 122.963L181.558 121.09L181.465 117.718L182.543 116.408L182.512 115.284L181.372 114.347L180.264 114.534L179.187 115.845L178.078 116.032L176.846 111.725C177.85 100.25 178.966 90.1369 180.192 81.3848L165.839 85.622L165.739 86.7681L166.847 86.5802L176.923 83.7509L176.724 86.0419C169.335 87.2893 165.396 90.9653 164.91 97.0685L160.125 115.939L161.2 116.887L161.099 118.033L159.495 123.948L159.939 132.905L157.587 135.56L158.532 136.53C155.516 138.013 153.916 140.165 153.731 142.985L150.405 143.547C148.928 143.795 148.444 140.49 148.953 133.631L147.844 133.818L147.214 141.827L143.889 142.389L144.32 136.67L143.842 128.848L141.626 129.223C137.492 132.931 133.295 135.145 129.035 135.864L123.492 136.8L121.539 134.871L121.573 133.737L123.79 133.362L123.89 132.217C108.546 134.807 100.098 130.964 98.5478 120.69C97.5446 115.989 96.9761 111.215 96.8423 106.367C96.7596 103.371 96.8499 100.323 97.1136 97.2234L97.2472 94.9427C97.7411 89.1039 100.186 81.1644 104.582 71.1251L105.69 70.9383L105.491 73.2292L101.535 81.8002L101.501 82.9348L102.61 82.748C103.16 75.7929 110.116 65.963 123.478 53.259L124.586 53.0712L124.687 51.9262L123.578 52.113L120.153 53.8205C122.223 49.7078 129.04 46.6748 140.603 44.7229L141.612 45.6821L142.72 45.4953L142.819 44.3493C155.122 45.4602 161.049 48.9752 160.601 54.8946L162.222 61.3949L160.005 61.7695C160.227 58.7215 159.598 57.322 158.12 57.5715L157.012 57.7583L157.754 63.2788L157.589 64.4351L155.372 64.8097C153.895 65.0592 153.254 64.0378 153.453 61.7464L152.246 63.0792L151.137 63.266C147.36 60.8931 143.775 59.9932 140.384 60.5655C132.995 61.8131 124.627 71.1288 115.281 88.5118L112.101 101.467C111.289 111.609 115.528 118.044 124.818 120.771L124.619 123.062L122.402 123.436L122.303 124.582L124.52 124.208C129.78 123.32 137.331 115.271 147.174 100.063L147.273 98.9165L146.165 99.1033C140.495 107.277 135.272 113.427 130.495 117.554L129.386 117.742L142.741 100.811L134.981 102.12C135.114 100.593 134.071 100.016 131.855 100.39L130.845 99.4317L130.944 98.2858C131.033 96.7654 134.806 94.9993 142.262 92.988L142.462 90.6971L141.253 92.0299L134.602 93.1528L128.582 86.2661L129.791 84.9333L129.824 83.7987L141.983 82.8754L171.037 74.5836L171.136 73.4376C167.441 74.0614 165.66 73.6094 165.792 72.0817L166.901 71.8949L167.91 72.8531L169.117 71.5203L170.226 71.3335C176.237 72.0637 179.931 72.9448 181.309 73.9738C182.539 66.4081 183.87 60.0757 185.302 54.9776L186.41 54.7908L185.271 53.8543L185.177 50.4835L188.161 37.5607L187.053 37.7475L188.068 34.1899L189.176 34.002L189.27 37.3739L190.379 37.1861L190.317 34.9395L194.75 34.1902C196.228 33.9408 197.029 36.0637 197.153 40.5584L200.51 41.1213C200.448 38.8738 201.156 37.6253 202.634 37.3758L203.773 38.3123L203.804 39.4355L199.099 70.7127L215.695 66.7822L226.781 64.91L227.734 59.1047L226.595 58.1683L228.811 57.7936L227.486 50.1154L227.455 48.9911L229.671 48.6175L228.532 47.6799L228.47 45.4334L230.687 45.0588L230.625 42.8111L228.408 43.1858L228.377 42.0615L230.594 41.6879L229.454 40.7514L229.237 32.8853L230.376 33.8218L231.485 33.6339L231.361 29.1398L230.221 28.2033L230.19 27.079L233.516 26.5175L229.028 65.6597C230.506 65.4093 232.382 52.6739 234.656 27.454L239.058 25.5825C239.906 31.0823 241.006 33.894 242.357 34.0201L242.588 32.6208L241.448 31.6843C241.345 27.9386 245.727 25.317 254.595 23.8201L314.39 11.4687L317.747 12.0305ZM126.008 132.988L125.973 134.123L131.516 133.187L131.549 132.052L126.008 132.988ZM142.355 120.068L134 128.252L143.265 122.173L143.464 119.881L142.355 120.068ZM268.556 85.8141L267.022 110.91L269.239 110.537L267.976 105.105L267.913 102.857L270.037 99.1119L268.929 99.2987L270.006 97.9887L269.975 96.8643L268.836 95.9278L268.805 94.8046L270.897 89.9347L269.665 85.6274L268.556 85.8141ZM232.269 102.369L231.316 108.174L231.409 111.545L232.517 111.358L233.408 103.305L233.377 102.181L232.269 102.369ZM224.168 91.3173L224.292 95.8125L225.401 95.6258L225.277 91.1305L224.168 91.3173ZM226.138 81.9533L225.215 88.8829L225.246 90.0062L226.355 89.8194L227.308 84.0141L227.246 81.7665L226.138 81.9533ZM184.816 80.1606L183.775 80.336L183.83 82.3214L184.938 82.1346L184.867 79.5727L184.816 80.1606ZM180.68 77.4719L180.581 78.6169L180.59 78.6145C180.652 78.1943 180.715 77.7775 180.777 77.3641L180.68 77.4719ZM183.705 77.8262L183.713 78.0873L184.821 77.9006L184.814 77.6394L183.705 77.8262ZM185.612 66.2156L184.659 72.0209L184.69 73.1442L185.798 72.9574L186.782 68.2754L186.72 66.0278L185.612 66.2156ZM186.565 60.4093L186.689 64.9045L187.798 64.7177L187.673 60.2225L186.565 60.4093ZM188.44 47.6744L187.58 56.8516L187.642 59.0982L188.751 58.9114L189.611 49.7342L189.549 47.4876L188.44 47.6744ZM134.265 54.8248L134.231 55.9595L141.99 54.6498L142.024 53.5152L134.265 54.8248ZM189.301 38.4972L189.518 46.3633L190.627 46.1765L190.41 38.3104L189.301 38.4972ZM307.833 15.9624L307.864 17.0857L312.297 16.3375L312.266 15.2142L307.833 15.9624Z" fill="white"/>
<path d="M179.373 122.588L178.264 122.775L178.109 117.156L179.218 116.969L179.373 122.588Z" fill="white"/>
<path d="M127.035 120.396L125.927 120.583L128.277 117.929L129.386 117.742L127.035 120.396Z" fill="white"/>
<path d="M162.169 76.0801L160.151 74.1638L164.584 73.4145L162.169 76.0801Z" fill="white"/>
<path d="M110.456 65.6174L105.69 70.9383L105.789 69.7923L110.621 64.4611L110.456 65.6174Z" fill="white"/>
<path d="M110.621 64.4611L110.72 63.3151L117.902 55.3287L119.01 55.1419L110.621 64.4611Z" fill="white"/>
</svg>
