<svg width="332" height="92" viewBox="0 0 332 92" fill="none" xmlns="http://www.w3.org/2000/svg">
<path fill-rule="evenodd" clip-rule="evenodd" d="M4.60512 57.6035V91.9904H0.0800781V57.6035H4.60512Z" fill="#002684"/>
<path fill-rule="evenodd" clip-rule="evenodd" d="M14.6227 57.6035V91.9904H10.0977V57.6035H14.6227Z" fill="#12506F"/>
<path fill-rule="evenodd" clip-rule="evenodd" d="M24.6395 57.6035V91.9904H20.123V57.6035H24.6395Z" fill="#24795B"/>
<path fill-rule="evenodd" clip-rule="evenodd" d="M34.657 57.6035V91.9904H30.1406V57.6035H34.657Z" fill="#36A346"/>
<path fill-rule="evenodd" clip-rule="evenodd" d="M44.6834 57.6035V91.9904H40.167V57.6035H44.6834Z" fill="#48CC31"/>
<path fill-rule="evenodd" clip-rule="evenodd" d="M54.6999 57.6035V91.9904H50.1748V57.6035H54.6999Z" fill="#6AD434"/>
<path fill-rule="evenodd" clip-rule="evenodd" d="M64.7166 57.6035V91.9904H60.2002V57.6035H64.7166Z" fill="#8BDC37"/>
<path fill-rule="evenodd" clip-rule="evenodd" d="M74.743 57.6035V91.9904H70.2266V57.6035H74.743Z" fill="#AEE53A"/>
<path fill-rule="evenodd" clip-rule="evenodd" d="M84.7605 57.6035V91.9904H80.2441V57.6035H84.7605Z" fill="#D0ED3D"/>
<path fill-rule="evenodd" clip-rule="evenodd" d="M94.7781 57.6035V91.9904H90.2617V57.6035H94.7781Z" fill="#F2F540"/>
<path fill-rule="evenodd" clip-rule="evenodd" d="M104.804 57.6035V91.9904H100.279V57.6035H104.804Z" fill="#F5D630"/>
<path fill-rule="evenodd" clip-rule="evenodd" d="M114.829 57.6035V91.9904H110.304V57.6035H114.829Z" fill="#F8B621"/>
<path fill-rule="evenodd" clip-rule="evenodd" d="M124.839 57.6035V91.9904H120.322V57.6035H124.839Z" fill="#FA9711"/>
<path fill-rule="evenodd" clip-rule="evenodd" d="M134.864 57.6035V91.9904H130.339V57.6035H134.864Z" fill="#FD7801"/>
<path fill-rule="evenodd" clip-rule="evenodd" d="M144.881 57.6035V91.9904H140.355V57.6035H144.881Z" fill="#F9500E"/>
<path fill-rule="evenodd" clip-rule="evenodd" d="M154.907 57.6035V91.9904H150.382V57.6035H154.907Z" fill="#F6281C"/>
<path fill-rule="evenodd" clip-rule="evenodd" d="M164.924 57.6035V91.9904H160.399V57.6035H164.924Z" fill="#F20029"/>
<path d="M76.202 23.6304C75.8911 20.7289 72.765 20.8066 70.563 20.8066C69.3626 20.8066 66.8583 20.8498 65.8911 21.6788C64.9671 22.4733 64.9671 24.5458 64.9671 25.6598C64.9671 26.7306 65.0017 28.1641 65.8134 28.9672C66.7806 29.9258 69.4403 30.0035 70.6752 30.0035C71.5215 30.0035 72.3333 30.0035 73.1882 29.8826C74.8894 29.6408 75.8911 29.1226 76.1588 27.2574H83.1105C83.0328 29.3644 82.9205 31.3938 81.4093 32.9914C79.8289 34.7012 77.3937 35.0639 75.1916 35.1848C73.5336 35.2625 71.9101 35.3057 70.2521 35.3057C67.2814 35.3057 63.0327 35.3834 60.4852 33.5527C58.0155 31.7651 58.1277 28.0173 58.1277 25.2712C58.1277 22.5682 58.0932 19.3385 60.2866 17.4301C62.6787 15.3575 67.6614 15.5216 70.5975 15.5216C73.5336 15.5216 78.6286 15.4007 81.0638 17.4301C81.7201 17.9914 82.1433 18.5441 82.4887 19.3817C83.0673 20.772 83.1105 22.1278 83.145 23.6391L76.202 23.6304Z" fill="white"/>
<path d="M111.012 28.7258C110.856 30.5565 110.39 32.1887 109.008 33.4235C106.651 35.5306 101.098 35.2975 98.1967 35.2975C95.1829 35.2975 89.8547 35.5738 87.385 33.4235C86.6941 32.8277 86.2623 32.1887 85.9169 31.351C85.1484 29.3994 85.2606 26.9296 85.2606 24.8657C85.2606 23.8294 85.2606 22.7586 85.3729 21.7223C85.5283 19.9348 86.1846 18.3372 87.6095 17.2232C89.9238 15.3925 95.4506 15.5134 98.1881 15.5134C100.969 15.5134 106.409 15.3925 108.767 17.2232C109.423 17.7413 109.846 18.2595 110.235 19.0108C111.236 20.8415 111.124 23.1904 111.124 25.2197C111.124 26.3769 111.09 27.5686 111.012 28.7258ZM103.447 21.8346C102.445 20.8415 99.5093 20.7983 98.2313 20.7983C96.9964 20.7983 95.7183 20.8415 94.5266 21.0747C92.1345 21.5496 92.0914 23.4667 92.0914 25.6083C92.0914 26.6446 92.0568 28.0349 92.7822 28.8294C93.8271 29.9866 96.8323 29.9866 98.2226 29.9866C99.5352 29.9866 100.926 29.9866 102.195 29.6325C104.319 29.0367 104.276 27.0419 104.276 25.0988C104.293 24.028 104.259 22.6377 103.447 21.8346Z" fill="white"/>
<path d="M146.867 34.8132V26.0135C146.867 21.9548 146.444 20.7977 142.238 20.7977C137.532 20.7977 137.178 22.7061 137.178 27.0498V34.8132H130.347V26.0135V24.7009C130.347 21.2813 128.922 20.7977 125.831 20.7977C120.969 20.7977 120.658 22.5852 120.658 27.0498V34.8132H113.827V15.9963H120.278V18.8201H120.589C121.867 15.9186 125.261 15.5127 127.998 15.5127C131.47 15.5127 134.527 16.1085 136.297 19.4505C137.687 15.9445 140.926 15.5127 144.207 15.5127C146.867 15.5127 149.846 15.8322 151.772 17.9393C152.428 18.656 152.929 19.416 153.197 20.3659C153.741 22.1966 153.698 24.1483 153.698 26.0222V34.8218L146.867 34.8132Z" fill="white"/>
<path d="M189.656 34.8132V26.0135C189.656 21.9548 189.233 20.7977 185.027 20.7977C180.321 20.7977 179.967 22.7061 179.967 27.0498V34.8132H173.136V26.0135V24.7009C173.136 21.2813 171.711 20.7977 168.62 20.7977C163.758 20.7977 163.447 22.5852 163.447 27.0498V34.8132H156.616V15.9963H163.067V18.8201H163.378C164.656 15.9186 168.05 15.5127 170.787 15.5127C174.259 15.5127 177.316 16.1085 179.086 19.4505C180.476 15.9445 183.715 15.5127 186.996 15.5127C189.656 15.5127 192.635 15.8322 194.561 17.9393C195.217 18.656 195.718 19.416 195.986 20.3659C196.53 22.1966 196.487 24.1483 196.487 26.0222V34.8218L189.656 34.8132Z" fill="white"/>
<path d="M224.777 28.7258C224.621 30.5565 224.155 32.1887 222.773 33.4235C220.416 35.5306 214.863 35.2975 211.961 35.2975C208.948 35.2975 203.619 35.5738 201.15 33.4235C200.459 32.8277 200.027 32.1887 199.682 31.351C198.913 29.3994 199.025 26.9296 199.025 24.8657C199.025 23.8294 199.025 22.7586 199.138 21.7223C199.293 19.9348 199.949 18.3372 201.374 17.2232C203.688 15.3925 209.215 15.5134 211.953 15.5134C214.733 15.5134 220.174 15.3925 222.531 17.2232C223.188 17.7413 223.611 18.2595 223.999 19.0108C225.001 20.8415 224.889 23.1904 224.889 25.2197C224.889 26.3769 224.854 27.5686 224.777 28.7258ZM217.212 21.8346C216.21 20.8415 213.274 20.7983 211.996 20.7983C210.761 20.7983 209.483 20.8415 208.291 21.0747C205.899 21.5496 205.856 23.4667 205.856 25.6083C205.856 26.6446 205.821 28.0349 206.547 28.8294C207.592 29.9866 210.597 29.9866 211.987 29.9866C213.3 29.9866 214.69 29.9866 215.96 29.6325C218.084 29.0367 218.041 27.0419 218.041 25.0988C218.058 24.028 218.015 22.6377 217.212 21.8346Z" fill="white"/>
<path d="M246.47 34.8135V32.3437H246.125C245.659 33.1382 245.313 33.6563 244.545 34.1313C242.843 35.2021 239.985 35.2884 238.059 35.2884C235.244 35.2884 231.418 35.3316 229.182 33.3023C227.178 31.4715 227.213 27.8532 227.213 25.3057C227.213 22.361 227.291 18.7772 229.916 16.9465C232.23 15.3575 235.477 15.513 238.137 15.513C240.14 15.513 242.342 15.4698 244.121 16.5492C245.011 17.0674 245.322 17.5855 245.823 18.5009H246.09V8.27637H252.921V34.8135H246.47ZM245.771 22.551C244.959 20.6425 242.023 20.7979 240.365 20.7979C238.664 20.7979 235.227 20.5993 234.38 22.5855C234.07 23.38 234.035 24.4162 234.035 25.2539C234.035 26.3679 234.001 28.0777 234.804 28.9586C235.728 29.9948 238.707 29.9948 239.942 29.9948C241.332 29.9948 243.033 29.9171 244.346 29.4767C246.203 28.8808 246.159 27.0501 246.159 25.3403C246.159 24.4681 246.125 23.3886 245.771 22.551Z" fill="white"/>
<path d="M281.358 28.7258C281.202 30.5565 280.736 32.1887 279.354 33.4235C276.997 35.5306 271.444 35.2975 268.542 35.2975C265.529 35.2975 260.2 35.5738 257.731 33.4235C257.04 32.8277 256.608 32.1887 256.263 31.351C255.494 29.3994 255.606 26.9296 255.606 24.8657C255.606 23.8294 255.606 22.7586 255.719 21.7223C255.874 19.9348 256.53 18.3372 257.955 17.2232C260.27 15.3925 265.796 15.5134 268.534 15.5134C271.314 15.5134 276.755 15.3925 279.112 17.2232C279.769 17.7413 280.192 18.2595 280.58 19.0108C281.582 20.8415 281.47 23.1904 281.47 25.2197C281.47 26.3769 281.435 27.5686 281.358 28.7258ZM273.793 21.8346C272.791 20.8415 269.855 20.7983 268.577 20.7983C267.342 20.7983 266.064 20.8415 264.872 21.0747C262.48 21.5496 262.437 23.4667 262.437 25.6083C262.437 26.6446 262.403 28.0349 263.128 28.8294C264.173 29.9866 267.178 29.9866 268.568 29.9866C269.881 29.9866 271.271 29.9866 272.541 29.6325C274.665 29.0367 274.622 27.0419 274.622 25.0988C274.639 24.028 274.605 22.6377 273.793 21.8346Z" fill="white"/>
<path d="M305.321 24.3469H298.914C298.914 21.5576 298.024 20.8063 295.321 20.8063C291.116 20.8063 290.995 23.5524 290.995 27.0153V34.8132H284.164V15.9963H290.615V18.8201H290.926C292.506 15.9186 295.054 15.5127 298.033 15.5127C300.157 15.5127 302.705 15.789 304.13 17.6198C305.408 19.2519 305.364 21.6008 305.364 23.587C305.356 23.8288 305.321 24.1051 305.321 24.3469Z" fill="white"/>
<path d="M331.565 26.9292H313.732C313.732 28.0001 313.697 29.2349 314.578 29.9949C315.502 30.7548 318.093 30.7894 319.207 30.7894C320.321 30.7894 323.456 30.8325 324.19 29.9949C324.501 29.6754 324.578 29.2349 324.656 28.8032H331.452C331.297 30.5907 330.951 31.9897 329.639 33.2246C327.281 35.418 321.651 35.2971 318.672 35.2971C315.969 35.2971 311.452 35.3403 309.216 33.5441C308.525 32.9828 308.058 32.3524 307.67 31.5579C306.824 29.7272 306.901 27.456 306.901 25.5044C306.901 24.3127 306.901 23.1123 307.014 21.9638C307.204 20.0553 307.825 18.3455 309.371 17.1883C311.763 15.4008 316.556 15.513 319.371 15.513C321.962 15.513 324.777 15.4353 327.281 16.1866C331.331 17.4215 331.608 21.2384 331.608 25.0208C331.599 25.6598 331.599 26.2989 331.565 26.9292ZM324.725 22.6374C324.725 21.9206 324.691 21.3679 324.181 20.8066C323.369 19.8913 320.589 19.8913 319.475 19.8913C318.43 19.8913 317.394 19.8913 316.383 20.0467C314.449 20.323 313.758 21.083 313.723 23.0692H324.725V22.6374Z" fill="white"/>
<path d="M199.009 78.3036C198.819 80.0566 198.318 81.7665 196.962 82.9237C194.993 84.6335 190.745 84.6335 188.318 84.6335C185.347 84.6335 182.256 84.6767 180.555 81.7319H180.244V91.9996H173.413V65.333H179.864V67.8805H180.209C181.79 64.7371 185.572 64.858 188.586 64.858C192.178 64.858 197.152 64.858 198.586 69.0377C199.164 70.7475 199.164 73.0618 199.164 74.8494C199.164 75.9979 199.13 77.1551 199.009 78.3036ZM191.721 71.3779C190.753 70.1085 187.895 70.143 186.505 70.143C184.803 70.143 181.444 69.9012 180.632 71.896C180.244 72.7682 180.244 74.0031 180.244 74.9617C180.244 75.9979 180.278 77.1551 180.866 78.0273C181.755 79.3399 184.959 79.3399 186.306 79.3399C187.619 79.3399 189.121 79.2967 190.399 78.9427C192.48 78.3468 192.334 76.2397 192.334 74.3658C192.334 73.3295 192.377 72.2587 191.721 71.3779Z" fill="white"/>
<path d="M202.869 84.1504V57.6133H209.7V84.1504H202.869Z" fill="white"/>
<path d="M231.971 84.1499V81.3261H231.626C230.201 84.4694 226.721 84.6335 223.785 84.6335C220.115 84.6335 215.754 84.1154 214.286 80.0567C213.595 78.105 213.664 75.9979 213.664 73.9254V65.333H220.46V73.934C220.46 78.5541 221.307 79.3485 225.823 79.3485C231.073 79.3485 231.574 77.9582 231.574 72.8978V65.333H238.37V84.1499H231.971Z" fill="white"/>
<path d="M265.779 82.5698C263.655 84.7633 256.98 84.6424 254.234 84.6424C251.263 84.6424 246.013 84.8842 243.621 82.6907C242.308 81.499 242.04 79.9014 241.997 78.1571H248.949C249.104 79.8669 250.805 80.0655 252.118 80.1864C252.964 80.2641 253.819 80.2641 254.665 80.2641C255.866 80.2641 259.104 80.3419 260.028 79.4697C260.296 79.2279 260.417 78.8738 260.417 78.5111C260.417 76.9567 258.292 77.0344 257.248 77.0344C255.969 77.0344 254.7 76.9913 253.422 76.9913C252.109 76.9913 250.797 76.9913 249.484 76.9913C245.391 76.9913 242.153 75.9982 242.153 71.1363C242.153 68.1484 243.31 66.1622 246.203 65.4455C248.862 64.8065 252.032 64.8496 254.735 64.8496C257.593 64.8496 262.576 64.651 264.812 66.5595C266.013 67.5958 266.159 69.1502 266.28 70.6614H259.329C259.251 70.2641 259.173 69.9878 258.828 69.746C258.094 69.2279 255.356 69.2279 254.501 69.2279C253.379 69.2279 250.374 69.1847 249.406 69.8669C249.139 70.1087 248.983 70.385 248.983 70.7391C248.983 71.7754 249.795 71.9308 250.607 72.0085C252.343 72.164 254.355 72.1294 256.09 72.1294L259.916 72.1726C264.199 72.2158 267.213 73.0448 267.213 78.0621C267.204 79.6596 266.937 81.3695 265.779 82.5698Z" fill="white"/>
<path d="M271.643 89.8841H266.738L287.999 51.8789H292.939L271.643 89.8841Z" fill="white"/>
<path d="M11.2718 25.2892C11.2718 18.113 16.9367 12.2668 23.897 12.2668C26.1336 12.2668 28.2321 12.8713 30.0542 13.9248V1.57593C28.0853 1.03189 26.0214 0.738281 23.8884 0.738281C10.745 0.738281 0.0800781 11.7314 0.0800781 25.2892C0.0800781 38.8471 10.745 49.8401 23.8884 49.8401C26.0214 49.8401 28.0853 49.5465 30.0455 49.0025V36.6536C28.2234 37.7072 26.125 38.3117 23.8884 38.3117C16.9281 38.3117 11.2718 32.4654 11.2718 25.2892Z" fill="white"/>
<path d="M30.0459 24.3911H41.2808L50.7972 14.5811H30.0459V24.3911Z" fill="white"/>
<path d="M30.0459 26.1875V36.0061H50.7972L41.2808 26.1875H30.0459Z" fill="white"/>
<path d="M325.149 85.5995V91.9898H315.503V85.5995H288.923V72.4648L308.716 57.6289H325.158V77.8707H331.609V85.5995H325.149ZM315.503 65.6168H313.465L297.973 76.5408V77.8793H315.512L315.503 65.6168Z" fill="white"/>
</svg>
