<svg width="333" height="92" viewBox="0 0 333 92" fill="none" xmlns="http://www.w3.org/2000/svg">
<path fill-rule="evenodd" clip-rule="evenodd" d="M5.02505 56.8652V91.2521H0.5V56.8652H5.02505Z" fill="#464646"/>
<path fill-rule="evenodd" clip-rule="evenodd" d="M15.0426 56.8652V91.2521H10.5176V56.8652H15.0426Z" fill="#4C4C4C"/>
<path fill-rule="evenodd" clip-rule="evenodd" d="M25.0594 56.8652V91.2521H20.543V56.8652H25.0594Z" fill="#5C5C5C"/>
<path fill-rule="evenodd" clip-rule="evenodd" d="M35.077 56.8652V91.2521H30.5605V56.8652H35.077Z" fill="#787878"/>
<path fill-rule="evenodd" clip-rule="evenodd" d="M45.1033 56.8652V91.2521H40.5869V56.8652H45.1033Z" fill="#939393"/>
<path fill-rule="evenodd" clip-rule="evenodd" d="M55.1198 56.8652V91.2521H50.5947V56.8652H55.1198Z" fill="#A2A2A2"/>
<path fill-rule="evenodd" clip-rule="evenodd" d="M65.1365 56.8652V91.2521H60.6201V56.8652H65.1365Z" fill="#B1B1B1"/>
<path fill-rule="evenodd" clip-rule="evenodd" d="M75.1629 56.8652V91.2521H70.6465V56.8652H75.1629Z" fill="#C2C2C2"/>
<path fill-rule="evenodd" clip-rule="evenodd" d="M85.1805 56.8652V91.2521H80.6641V56.8652H85.1805Z" fill="#D1D1D1"/>
<path fill-rule="evenodd" clip-rule="evenodd" d="M95.198 56.8652V91.2521H90.6816V56.8652H95.198Z" fill="#E0E0E0"/>
<path fill-rule="evenodd" clip-rule="evenodd" d="M105.224 56.8652V91.2521H100.699V56.8652H105.224Z" fill="#CDCDCD"/>
<path fill-rule="evenodd" clip-rule="evenodd" d="M115.249 56.8652V91.2521H110.724V56.8652H115.249Z" fill="#B9B9B9"/>
<path fill-rule="evenodd" clip-rule="evenodd" d="M125.259 56.8652V91.2521H120.742V56.8652H125.259Z" fill="#A6A6A6"/>
<path fill-rule="evenodd" clip-rule="evenodd" d="M135.284 56.8652V91.2521H130.759V56.8652H135.284Z" fill="#939393"/>
<path fill-rule="evenodd" clip-rule="evenodd" d="M145.3 56.8652V91.2521H140.775V56.8652H145.3Z" fill="#7B7B7B"/>
<path fill-rule="evenodd" clip-rule="evenodd" d="M155.327 56.8652V91.2521H150.802V56.8652H155.327Z" fill="#5F5F5F"/>
<path fill-rule="evenodd" clip-rule="evenodd" d="M165.344 56.8652V91.2521H160.819V56.8652H165.344Z" fill="#4D4D4D"/>
<path d="M76.6219 22.8921C76.311 19.9906 73.185 20.0683 70.9829 20.0683C69.7825 20.0683 67.2782 20.1115 66.311 20.9405C65.387 21.735 65.387 23.8075 65.387 24.9215C65.387 25.9923 65.4216 27.4258 66.2333 28.2289C67.2005 29.1875 69.8603 29.2652 71.0952 29.2652C71.9414 29.2652 72.7532 29.2652 73.6081 29.1443C75.3093 28.9025 76.311 28.3844 76.5787 26.5191H83.5304C83.4527 28.6262 83.3404 30.6555 81.8292 32.2531C80.2489 33.9629 77.8136 34.3256 75.6116 34.4465C73.9535 34.5243 72.33 34.5674 70.672 34.5674C67.7014 34.5674 63.4527 34.6452 60.9052 32.8144C58.4354 31.0268 58.5477 27.279 58.5477 24.5329C58.5477 21.83 58.5131 18.6003 60.7066 16.6918C63.0986 14.6193 68.0813 14.7833 71.0174 14.7833C73.9535 14.7833 79.0485 14.6624 81.4838 16.6918C82.1401 17.2531 82.5632 17.8058 82.9086 18.6434C83.4872 20.0338 83.5304 21.3896 83.5649 22.9008L76.6219 22.8921Z" fill="white"/>
<path d="M111.432 27.9875C111.276 29.8182 110.81 31.4504 109.428 32.6853C107.071 34.7923 101.518 34.5592 98.6166 34.5592C95.6028 34.5592 90.2747 34.8355 87.8049 32.6853C87.114 32.0894 86.6823 31.4504 86.3368 30.6127C85.5683 28.6611 85.6805 26.1913 85.6805 24.1274C85.6805 23.0911 85.6805 22.0203 85.7928 20.9841C85.9482 19.1965 86.6045 17.5989 88.0294 16.4849C90.3438 14.6542 95.8705 14.7751 98.608 14.7751C101.389 14.7751 106.829 14.6542 109.187 16.4849C109.843 17.0031 110.266 17.5212 110.655 18.2725C111.656 20.1032 111.544 22.4521 111.544 24.4815C111.544 25.6386 111.51 26.8303 111.432 27.9875ZM103.867 21.0963C102.865 20.1032 99.9292 20.0601 98.6512 20.0601C97.4163 20.0601 96.1382 20.1032 94.9465 20.3364C92.5545 20.8113 92.5113 22.7284 92.5113 24.8701C92.5113 25.9063 92.4767 27.2967 93.2021 28.0911C94.247 29.2483 97.2522 29.2483 98.6425 29.2483C99.9552 29.2483 101.345 29.2483 102.615 28.8942C104.739 28.2984 104.696 26.3036 104.696 24.3606C104.713 23.2898 104.679 21.8994 103.867 21.0963Z" fill="white"/>
<path d="M147.287 34.0749V25.2753C147.287 21.2166 146.864 20.0594 142.658 20.0594C137.952 20.0594 137.598 21.9678 137.598 26.3115V34.0749H130.767V25.2753V23.9627C130.767 20.543 129.342 20.0594 126.251 20.0594C121.389 20.0594 121.078 21.8469 121.078 26.3115V34.0749H114.247V15.258H120.698V18.0818H121.009C122.287 15.1803 125.681 14.7744 128.418 14.7744C131.89 14.7744 134.947 15.3703 136.717 18.7122C138.107 15.2062 141.346 14.7744 144.627 14.7744C147.287 14.7744 150.266 15.0939 152.192 17.201C152.848 17.9178 153.349 18.6777 153.617 19.6276C154.161 21.4583 154.118 23.41 154.118 25.2839V34.0836L147.287 34.0749Z" fill="white"/>
<path d="M190.076 34.0749V25.2753C190.076 21.2166 189.653 20.0594 185.447 20.0594C180.741 20.0594 180.387 21.9678 180.387 26.3115V34.0749H173.556V25.2753V23.9627C173.556 20.543 172.131 20.0594 169.04 20.0594C164.178 20.0594 163.867 21.8469 163.867 26.3115V34.0749H157.036V15.258H163.487V18.0818H163.798C165.076 15.1803 168.47 14.7744 171.207 14.7744C174.679 14.7744 177.736 15.3703 179.506 18.7122C180.896 15.2062 184.135 14.7744 187.416 14.7744C190.076 14.7744 193.055 15.0939 194.981 17.201C195.637 17.9178 196.138 18.6777 196.406 19.6276C196.95 21.4583 196.907 23.41 196.907 25.2839V34.0836L190.076 34.0749Z" fill="white"/>
<path d="M225.196 27.9875C225.041 29.8182 224.575 31.4504 223.193 32.6853C220.836 34.7923 215.283 34.5592 212.381 34.5592C209.367 34.5592 204.039 34.8355 201.57 32.6853C200.879 32.0894 200.447 31.4504 200.101 30.6127C199.333 28.6611 199.445 26.1913 199.445 24.1274C199.445 23.0911 199.445 22.0203 199.557 20.9841C199.713 19.1965 200.369 17.5989 201.794 16.4849C204.108 14.6542 209.635 14.7751 212.373 14.7751C215.153 14.7751 220.594 14.6542 222.951 16.4849C223.608 17.0031 224.031 17.5212 224.419 18.2725C225.421 20.1032 225.309 22.4521 225.309 24.4815C225.309 25.6386 225.274 26.8303 225.196 27.9875ZM217.632 21.0963C216.63 20.1032 213.694 20.0601 212.416 20.0601C211.181 20.0601 209.903 20.1032 208.711 20.3364C206.319 20.8113 206.276 22.7284 206.276 24.8701C206.276 25.9063 206.241 27.2967 206.967 28.0911C208.012 29.2483 211.017 29.2483 212.407 29.2483C213.72 29.2483 215.11 29.2483 216.38 28.8942C218.504 28.2984 218.461 26.3036 218.461 24.3606C218.478 23.2898 218.435 21.8994 217.632 21.0963Z" fill="white"/>
<path d="M246.89 34.0752V31.6054H246.545C246.078 32.3999 245.733 32.918 244.964 33.393C243.263 34.4638 240.405 34.5502 238.479 34.5502C235.664 34.5502 231.838 34.5933 229.602 32.564C227.598 30.7332 227.633 27.1149 227.633 24.5674C227.633 21.6227 227.711 18.0389 230.336 16.2082C232.65 14.6193 235.897 14.7747 238.557 14.7747C240.56 14.7747 242.762 14.7315 244.541 15.811C245.431 16.3291 245.742 16.8472 246.243 17.7626H246.51V7.53809H253.341V34.0752H246.89ZM246.191 21.8127C245.379 19.9042 242.443 20.0597 240.785 20.0597C239.084 20.0597 235.647 19.861 234.8 21.8472C234.49 22.6417 234.455 23.678 234.455 24.5156C234.455 25.6296 234.42 27.3394 235.224 28.2203C236.148 29.2565 239.127 29.2565 240.362 29.2565C241.752 29.2565 243.453 29.1788 244.766 28.7384C246.623 28.1426 246.579 26.3118 246.579 24.602C246.579 23.7298 246.545 22.6503 246.191 21.8127Z" fill="white"/>
<path d="M281.778 27.9875C281.622 29.8182 281.156 31.4504 279.774 32.6853C277.417 34.7923 271.864 34.5592 268.962 34.5592C265.949 34.5592 260.62 34.8355 258.151 32.6853C257.46 32.0894 257.028 31.4504 256.683 30.6127C255.914 28.6611 256.026 26.1913 256.026 24.1274C256.026 23.0911 256.026 22.0203 256.139 20.9841C256.294 19.1965 256.95 17.5989 258.375 16.4849C260.689 14.6542 266.216 14.7751 268.954 14.7751C271.734 14.7751 277.175 14.6542 279.532 16.4849C280.189 17.0031 280.612 17.5212 281 18.2725C282.002 20.1032 281.89 22.4521 281.89 24.4815C281.89 25.6386 281.855 26.8303 281.778 27.9875ZM274.213 21.0963C273.211 20.1032 270.275 20.0601 268.997 20.0601C267.762 20.0601 266.484 20.1032 265.292 20.3364C262.9 20.8113 262.857 22.7284 262.857 24.8701C262.857 25.9063 262.822 27.2967 263.548 28.0911C264.593 29.2483 267.598 29.2483 268.988 29.2483C270.301 29.2483 271.691 29.2483 272.961 28.8942C275.085 28.2984 275.042 26.3036 275.042 24.3606C275.059 23.2898 275.025 21.8994 274.213 21.0963Z" fill="white"/>
<path d="M305.741 23.6086H299.334C299.334 20.8193 298.444 20.068 295.741 20.068C291.536 20.068 291.415 22.8141 291.415 26.277V34.0749H284.584V15.258H291.035V18.0818H291.346C292.926 15.1803 295.473 14.7744 298.453 14.7744C300.577 14.7744 303.125 15.0508 304.549 16.8815C305.828 18.5136 305.784 20.8625 305.784 22.8487C305.776 23.0905 305.741 23.3668 305.741 23.6086Z" fill="white"/>
<path d="M331.984 26.191H314.152C314.152 27.2618 314.117 28.4967 314.998 29.2566C315.922 30.0165 318.513 30.0511 319.627 30.0511C320.741 30.0511 323.876 30.0942 324.61 29.2566C324.921 28.9371 324.998 28.4967 325.076 28.0649H331.872C331.717 29.8525 331.371 31.2514 330.059 32.4863C327.701 34.6797 322.071 34.5588 319.092 34.5588C316.389 34.5588 311.872 34.602 309.636 32.8058C308.945 32.2445 308.478 31.6141 308.09 30.8196C307.243 28.9889 307.321 26.7177 307.321 24.7661C307.321 23.5744 307.321 22.374 307.433 21.2255C307.623 19.3171 308.245 17.6072 309.791 16.45C312.183 14.6625 316.976 14.7747 319.791 14.7747C322.382 14.7747 325.197 14.697 327.701 15.4483C331.751 16.6832 332.028 20.5001 332.028 24.2825C332.019 24.9215 332.019 25.5606 331.984 26.191ZM325.145 21.8991C325.145 21.1823 325.111 20.6297 324.601 20.0683C323.789 19.153 321.009 19.153 319.895 19.153C318.85 19.153 317.813 19.153 316.803 19.3084C314.869 19.5848 314.178 20.3447 314.143 22.3309H325.145V21.8991Z" fill="white"/>
<path d="M199.429 77.5653C199.239 79.3184 198.738 81.0282 197.382 82.1854C195.413 83.8952 191.165 83.8952 188.738 83.8952C185.767 83.8952 182.676 83.9384 180.975 80.9937H180.664V91.2614H173.833V64.5947H180.284V67.1422H180.629C182.21 63.9989 185.992 64.1198 189.006 64.1198C192.598 64.1198 197.572 64.1198 199.006 68.2994C199.584 70.0092 199.584 72.3236 199.584 74.1111C199.584 75.2596 199.55 76.4168 199.429 77.5653ZM192.14 70.6396C191.173 69.3702 188.315 69.4047 186.925 69.4047C185.223 69.4047 181.864 69.1629 181.052 71.1577C180.664 72.0299 180.664 73.2648 180.664 74.2234C180.664 75.2596 180.698 76.4168 181.286 77.289C182.175 78.6016 185.379 78.6016 186.726 78.6016C188.039 78.6016 189.541 78.5584 190.819 78.2044C192.9 77.6085 192.754 75.5014 192.754 73.6275C192.754 72.5913 192.797 71.5204 192.14 70.6396Z" fill="white"/>
<path d="M203.289 83.4121V56.875H210.12V83.4121H203.289Z" fill="white"/>
<path d="M232.391 83.4116V80.5878H232.046C230.621 83.7312 227.141 83.8952 224.205 83.8952C220.535 83.8952 216.174 83.3771 214.706 79.3184C214.015 77.3667 214.084 75.2597 214.084 73.1871V64.5947H220.88V73.1958C220.88 77.8158 221.726 78.6103 226.243 78.6103C231.493 78.6103 231.994 77.2199 231.994 72.1595V64.5947H238.79V83.4116H232.391Z" fill="white"/>
<path d="M266.199 81.8316C264.075 84.025 257.4 83.9041 254.654 83.9041C251.683 83.9041 246.433 84.1459 244.04 81.9525C242.728 80.7607 242.46 79.1632 242.417 77.4188H249.369C249.524 79.1286 251.225 79.3272 252.538 79.4481C253.384 79.5259 254.239 79.5259 255.085 79.5259C256.286 79.5259 259.524 79.6036 260.448 78.7314C260.716 78.4896 260.837 78.1355 260.837 77.7728C260.837 76.2184 258.712 76.2962 257.667 76.2962C256.389 76.2962 255.12 76.253 253.842 76.253C252.529 76.253 251.217 76.253 249.904 76.253C245.811 76.253 242.572 75.2599 242.572 70.3981C242.572 67.4102 243.73 65.424 246.623 64.7072C249.282 64.0682 252.452 64.1114 255.154 64.1114C258.013 64.1114 262.996 63.9127 265.232 65.8212C266.433 66.8575 266.579 68.4119 266.7 69.9231H259.749C259.671 69.5259 259.593 69.2495 259.248 69.0077C258.514 68.4896 255.776 68.4896 254.921 68.4896C253.799 68.4896 250.794 68.4464 249.826 69.1286C249.559 69.3704 249.403 69.6468 249.403 70.0008C249.403 71.0371 250.215 71.1925 251.027 71.2702C252.762 71.4257 254.775 71.3911 256.51 71.3911L260.336 71.4343C264.619 71.4775 267.633 72.3065 267.633 77.3238C267.624 78.9214 267.357 80.6312 266.199 81.8316Z" fill="white"/>
<path d="M272.063 89.1458H267.158L288.419 51.1406H293.359L272.063 89.1458Z" fill="white"/>
<path d="M11.6917 24.5509C11.6917 17.3748 17.3567 11.5285 24.3169 11.5285C26.5535 11.5285 28.652 12.133 30.4741 13.1865V0.83765C28.5052 0.293609 26.4413 0 24.3083 0C11.1649 0 0.5 10.9931 0.5 24.5509C0.5 38.1088 11.1649 49.1019 24.3083 49.1019C26.4413 49.1019 28.5052 48.8082 30.4655 48.2642V35.9153C28.6434 36.9689 26.5449 37.5734 24.3083 37.5734C17.348 37.5734 11.6917 31.7271 11.6917 24.5509Z" fill="white"/>
<path d="M30.4658 23.6528H41.7007L51.2171 13.8428H30.4658V23.6528Z" fill="white"/>
<path d="M30.4658 25.4492V35.2679H51.2171L41.7007 25.4492H30.4658Z" fill="white"/>
<path d="M325.569 84.8612V91.2516H315.923V84.8612H289.343V71.7265L309.136 56.8906H325.578V77.1324H332.028V84.8612H325.569ZM315.923 64.8785H313.885L298.393 75.8025V77.141H315.932L315.923 64.8785Z" fill="white"/>
</svg>
