<svg width="601" height="170" viewBox="0 0 601 170" fill="none" xmlns="http://www.w3.org/2000/svg">
<path d="M122.219 107.517C119.703 101.203 114.39 96.4059 107.827 94.64C108.077 94.64 98.4816 91.3583 93.9341 89.8425C89.8867 88.0767 85.3549 87.5766 81.0574 88.0767C73.994 89.0924 67.9307 93.3742 64.649 99.6875L63.6333 65.855L65.8992 65.1049C66.6493 65.605 67.415 66.3707 68.1651 66.6207C68.6652 66.8708 69.4309 67.3708 70.181 67.6365L85.8393 74.9656C89.8867 76.7314 94.4186 77.2315 98.716 76.2314C118.687 69.6368 117.672 51.7126 117.672 51.4625C117.672 51.2125 116.406 36.3043 116.156 28.4752V28.2251C115.406 24.1777 112.874 20.396 109.592 17.8644L94.1841 3.47191C93.9341 3.47191 93.9341 3.22188 93.6841 3.22188C92.6683 2.47178 91.9182 1.95609 90.6524 1.45602C87.1207 -0.309831 82.8233 -0.559864 79.0415 1.20599C79.0415 1.20599 25.5033 30.241 20.7058 32.7726C17.1741 35.3042 14.8926 39.0859 14.6425 43.3833C13.6268 50.1967 13.1267 51.7126 10.5951 53.7441C6.04766 55.5099 3.01602 59.8074 2.76599 64.8549L0 121.409C0 124.941 1.51582 132.02 8.57924 133.286C9.595 133.286 10.3451 133.786 10.8452 134.551C11.8609 136.567 12.111 138.849 11.3452 141.115C11.3452 141.365 11.3452 141.365 11.3452 141.615C11.3452 142.631 11.3452 150.194 15.127 153.491C15.8771 154.757 21.1903 165.368 29.0194 166.118L35.3327 166.618C43.6619 167.368 57.8044 168.884 63.3676 169.4C65.1335 169.65 66.8993 169.4 68.4152 168.9C71.1968 168.65 79.776 167.634 85.3392 166.884C99.4817 164.618 102.763 148.96 103.529 143.396C108.327 142.381 112.624 139.615 115.906 135.567L116.156 135.317C125.001 122.925 124.501 113.33 122.219 107.517ZM54.554 125.957C52.7881 125.957 40.6615 126.972 35.1139 126.972C34.3639 126.972 33.5981 126.722 33.0981 126.222C31.8323 124.706 31.3322 122.941 31.3322 120.925L31.5822 57.2914C31.5822 57.0414 31.3322 50.728 34.8639 48.9622C39.9114 46.6963 51.788 40.633 53.5539 39.6172C55.0697 39.1172 56.5855 39.1172 58.1013 39.8673C58.3513 40.1173 58.6014 40.3673 58.6014 40.883L59.6171 45.6805C59.6171 46.6963 59.8672 47.6964 60.3672 48.4621C59.8672 48.2121 59.3515 48.4621 58.8514 48.4621L42.6931 55.0255C42.443 55.0255 42.443 55.2755 42.193 55.2755C41.943 55.5256 41.943 55.5255 41.6929 55.7756C41.6929 55.7756 41.4429 56.0256 41.4429 56.2756V56.5257C41.4429 56.5257 41.4429 56.5257 41.4429 56.7757C41.4429 57.0257 41.4429 57.0257 41.4429 57.2758L41.6929 119.143C41.6929 119.893 41.943 120.409 42.443 120.909C42.9431 121.409 43.4588 121.409 44.2089 121.409L61.633 119.643C60.8673 123.691 55.5541 125.457 54.554 125.957ZM61.1173 62.0733L49.5064 57.5258L58.0857 53.9941C59.1015 56.7757 60.3516 59.5573 62.1331 61.8232L61.1173 62.0733ZM46.2091 116.612L45.9591 60.5575L58.8358 65.855L60.3516 115.096L46.2091 116.612ZM111.358 29.2409C111.858 37.07 112.874 51.9626 112.874 51.9626C112.874 52.4627 113.374 66.6051 96.9658 72.1683C93.6841 72.6684 90.4024 72.1683 87.3708 71.1526C87.3708 71.1526 83.839 69.6368 80.3073 67.8709C102.029 60.5418 101.013 40.8518 101.013 40.6017C101.013 40.3517 99.7474 24.4434 99.2473 15.5985L106.061 21.9118C108.842 23.4276 110.608 26.2092 111.358 29.2409ZM88.6365 5.75346C92.1683 7.51931 94.4498 10.801 94.9499 14.5984C95.4499 23.4433 96.7157 40.3517 96.7157 40.6017C96.7157 41.3518 97.4658 57.2758 78.7915 63.3234C76.5256 64.0735 74.244 64.3392 71.9781 63.5735C71.4781 63.3234 71.228 63.0734 71.228 63.0734C71.228 63.0734 70.978 63.0734 70.978 62.8234H70.728C66.1805 60.2918 63.9146 54.4942 62.8988 51.4625C65.6804 53.9941 69.4622 54.7442 72.9939 53.4784C81.8388 51.2125 84.3547 42.6176 84.3547 38.3202V38.0702C84.3547 37.8201 82.8389 17.6144 82.5889 11.5511C82.5889 11.3011 82.5889 11.3011 82.5889 11.051C82.0888 9.28516 81.0731 7.51931 79.5572 6.25352L81.5731 5.23776C83.589 4.48767 86.3706 4.48767 88.6365 5.75346ZM9.595 129.238C4.54747 128.488 4.7975 122.425 4.7975 122.175L7.57911 65.355C7.57911 62.0733 9.595 59.2917 12.6266 58.2915C12.8767 58.2915 13.1267 58.0415 13.3767 58.0415C17.6742 54.7598 18.4243 51.4781 19.44 44.3991C19.6901 41.6175 20.9559 38.8359 23.2218 37.07C39.3958 28.2251 70.7123 11.051 71.9781 10.551C73.2439 9.80086 74.7597 9.5352 76.2756 10.0509C77.0257 10.551 77.7914 11.3167 77.7914 12.3168C78.0414 18.6301 79.3072 36.5543 79.5572 38.5858C79.5572 39.6016 78.8071 47.4307 71.4781 49.1966C69.7122 49.9467 67.9464 49.6967 66.4305 48.9466C65.1647 47.9308 64.4146 46.6807 64.4146 45.1648V44.9148L63.1332 39.8516C62.8832 38.0858 61.8674 36.82 60.3516 35.8042C57.82 34.5384 54.7884 34.2884 52.0224 35.3042C51.7724 35.3042 51.7724 35.3042 51.5223 35.5542C51.2723 35.5542 38.1456 42.3676 32.8324 44.8992C26.5191 47.9308 27.0191 57.0257 27.0191 57.5258C27.0191 57.2758 26.7691 120.909 26.7691 120.909C26.7691 123.941 27.7849 127.222 29.8008 129.488C31.3166 130.754 33.0824 131.504 35.0983 131.504C41.1616 131.254 54.5384 130.488 55.054 130.488C55.3041 130.488 55.3041 130.488 55.5541 130.488C56.0542 130.238 65.3991 127.707 66.1649 119.878C66.6649 115.58 67.1806 111.033 67.1806 111.033C67.1806 110.783 68.6964 103.704 75.0098 102.454C77.0257 101.953 79.0572 102.203 80.823 103.204C82.3389 104.469 83.6046 106.235 83.8547 108.251C83.8547 108.501 85.6205 116.33 82.0888 120.878C79.5572 123.409 76.2756 124.925 72.7439 125.425C72.4938 125.425 72.4938 125.425 72.4938 125.425C72.2438 125.425 64.6647 126.941 63.1489 138.552C62.6488 141.834 62.6488 143.349 62.6488 144.365C62.6488 145.881 62.1487 147.397 61.633 148.913C60.8829 151.444 56.8355 153.21 53.3038 153.21C49.2564 153.21 25.2689 151.944 19.4713 151.444C17.2054 151.194 16.4396 145.881 16.4396 143.115C17.1897 139.833 16.6897 136.302 15.1739 133.27C13.8924 130.754 11.8765 129.488 9.595 129.238ZM63.8833 165.102C58.5858 164.602 44.4433 163.336 36.0985 162.321L29.7851 161.821C26.7535 161.571 23.9719 158.539 21.956 155.507C30.2852 156.007 49.7409 157.273 53.5226 157.273C58.8202 157.023 64.8834 154.492 66.1492 149.694C66.6493 147.928 67.165 146.162 67.165 144.396C67.165 143.381 67.415 141.865 67.6651 138.833C68.6808 131.254 72.4626 129.988 73.2283 129.738C78.0258 129.238 82.3232 127.207 85.6049 123.675C85.6049 123.675 85.6049 123.425 85.8549 123.425C90.6524 117.362 88.6365 107.767 88.3865 107.267C87.8864 103.985 86.1206 101.203 83.339 99.4375C80.5574 97.6717 77.0257 97.1716 73.744 97.9217C72.4782 98.1717 71.2124 98.6718 70.2123 99.1875C72.9939 95.6558 77.0257 93.3742 81.3231 92.8742C84.1047 92.6241 86.6207 92.6241 89.4023 93.3742C89.6523 93.3742 89.6523 93.6242 89.9023 93.6242L92.1683 94.3744C95.4499 95.8902 98.2315 98.4217 100.247 101.438C103.279 105.985 106.561 116.08 95.7 131.989C89.6367 138.802 84.3391 139.052 83.5734 139.052H83.3234C83.0733 139.052 83.0733 139.052 83.0733 139.052C82.0576 139.302 81.5575 139.802 81.3075 140.818V141.068C81.3075 141.068 81.3075 141.068 81.3075 141.318C81.0574 144.1 79.2916 156.476 72.4626 162.274C71.1968 163.54 69.4309 164.54 67.6651 164.805C67.415 164.805 67.165 164.805 67.165 164.805C66.915 164.805 66.6649 164.805 66.4149 165.055C65.6648 165.102 64.8991 165.102 63.8833 165.102ZM84.8548 162.571C82.5889 162.821 80.0573 163.321 77.2757 163.586C81.8232 157.773 84.6048 150.71 85.3549 143.381L98.7316 143.631C98.4816 148.944 95.7156 161.055 84.8548 162.571ZM112.624 133.036C107.061 139.349 102.013 139.349 101.763 139.349L94.9499 139.099C96.7157 137.833 98.2315 136.317 99.7474 134.551C99.7474 134.551 99.7474 134.301 99.9974 134.301C112.124 116.362 108.077 104.235 104.545 98.6874C104.295 98.4374 104.295 98.1873 104.045 97.9373L106.576 98.6874C111.874 99.9532 116.171 103.735 117.937 108.782C119.703 113.83 120.203 121.925 112.624 133.036Z" fill="#DA1F26"/>
<path d="M145.894 55.8131C145.331 49.0153 148.16 42.7801 153.27 38.8108L162.912 30.8723C167.444 26.903 173.679 25.1997 179.351 25.7779H199.76C204.292 25.7779 208.824 26.9187 208.824 32.0131C208.824 37.1075 203.73 38.2483 199.76 38.2483H177.085C174.257 38.2483 171.991 39.389 169.709 41.655L161.771 48.4527C159.505 50.1561 158.364 51.2812 158.364 54.1253V70.0024C158.364 72.2683 160.068 74.5342 161.771 75.675L169.709 81.9102C171.975 83.6135 174.241 84.7387 177.085 85.3169H199.76C203.73 85.3169 208.824 85.8795 208.824 91.5521C208.824 97.2247 204.292 97.7872 199.76 97.7872H179.351C173.116 98.3498 167.444 96.6465 162.912 92.6928L153.27 84.7543C147.597 80.785 144.769 74.5499 145.894 67.7521V55.8131Z" fill="#098A44"/>
<path d="M296.664 38.8124C292.694 38.8124 288.162 38.2498 288.162 32.5772C288.162 26.9046 292.694 26.342 296.664 26.342H314.228C320.464 25.7794 326.136 27.4828 330.668 32.0146C334.637 35.9839 336.903 41.6565 336.341 47.3135L337.481 90.3972C337.481 94.3664 335.778 97.7731 331.809 97.7731C328.402 97.7731 325.574 94.9446 325.011 91.538L316.51 96.0698C314.244 97.7731 311.415 98.3357 308.571 97.7731H296.101C291.007 98.3357 285.897 96.6324 281.365 93.2413C276.833 89.272 273.989 83.5994 274.567 77.3642V71.6916C274.004 66.019 276.27 60.9246 280.802 57.5179C284.771 54.1112 290.444 52.4235 295.538 52.9861H322.745V50.1576C322.745 40.5157 320.479 38.828 311.415 38.828H296.664V38.8124ZM296.101 66.019C292.694 66.019 287.6 67.1598 287.6 71.6916V80.1927C287.6 84.7246 292.694 85.2871 296.101 85.2871H310.275L324.448 77.9112V75.0827C324.448 68.2849 322.182 66.019 315.385 66.019H296.101Z" fill="#098A44"/>
<path d="M457.075 42.2169V35.9817C457.075 31.4499 457.638 26.3398 463.31 26.3398C467.842 26.3398 469.545 29.7465 469.545 34.2784V43.342C469.545 45.0454 468.983 46.7487 467.842 48.4365L448.574 90.395C447.433 93.2235 445.167 98.3336 441.776 98.3336H433.838C430.431 98.3336 428.165 93.2392 427.04 90.395L407.772 48.4521C406.631 46.7487 406.068 45.0454 406.068 43.3577V34.294C406.068 30.3247 407.772 26.3555 412.304 26.3555C417.976 26.3555 419.101 31.4499 419.101 35.9973V42.2325L437.807 84.7381L457.075 42.2169Z" fill="#098A44"/>
<path d="M560.246 97.7559C556.276 98.3184 551.745 97.1933 548.916 94.3492L543.244 89.8173C538.712 86.4106 536.446 81.3162 537.008 75.6436V51.2654C536.446 45.5928 538.712 39.9358 543.244 35.9666L547.775 31.9973C551.182 28.028 556.839 26.3247 561.949 26.9029H573.857C578.951 26.3403 584.061 28.0437 588.031 31.4347L593.125 35.404C598.219 39.3733 600.501 45.6085 599.923 51.8436V62.0481C599.923 69.424 598.782 71.69 591.422 71.69H550.604V76.2218C550.604 77.3626 551.166 79.0503 552.307 80.1911L555.714 83.5978C557.98 85.3011 561.386 86.4263 564.215 85.8637H591.422C595.954 85.8637 599.923 87.0045 599.923 92.0989C599.923 97.7715 594.828 98.3341 591.422 98.3341L560.246 97.7559ZM549.463 58.657H586.312V50.7185C586.312 48.4526 586.312 46.1867 584.608 45.0459L579.514 40.514C577.811 39.3733 575.545 38.8107 573.279 38.8107H562.512C560.246 38.8107 557.98 38.8107 556.276 40.514L551.745 43.9207C550.041 45.0615 548.916 47.3274 548.916 49.5933L549.463 58.657Z" fill="#098A44"/>
<path d="M155.454 143.798C156.903 143.796 158.334 143.474 159.647 142.854C160.938 142.275 162.084 141.408 162.998 140.317V140.317L160.501 137.778C159.889 138.527 159.127 139.136 158.267 139.566C157.424 139.98 156.497 140.193 155.56 140.186C154.769 140.195 153.984 140.044 153.251 139.743C152.518 139.442 151.851 138.997 151.288 138.432C150.747 137.88 150.319 137.223 150.03 136.502C149.72 135.736 149.563 134.914 149.57 134.086C149.562 133.25 149.714 132.42 150.017 131.642C150.3 130.919 150.72 130.259 151.253 129.699C151.787 129.144 152.426 128.703 153.132 128.403C153.868 128.086 154.659 127.926 155.458 127.931C156.422 127.927 157.373 128.151 158.236 128.586C159.128 129.04 159.909 129.691 160.523 130.489V130.489L163.099 127.871C162.193 126.755 161.041 125.872 159.735 125.293C158.393 124.664 156.933 124.337 155.454 124.334C154.134 124.325 152.825 124.582 151.603 125.09C150.445 125.566 149.388 126.263 148.489 127.143C147.602 128.023 146.896 129.074 146.412 130.234C145.912 131.45 145.653 132.755 145.65 134.073C145.648 135.391 145.903 136.696 146.4 137.914C146.877 139.07 147.579 140.116 148.463 140.992C149.362 141.871 150.42 142.568 151.578 143.044C152.808 143.553 154.126 143.81 155.454 143.798V143.798ZM205.267 143.826C206.583 143.836 207.887 143.579 209.104 143.071C210.257 142.596 211.305 141.895 212.19 141.008C213.074 140.121 213.776 139.065 214.257 137.901C214.76 136.692 215.019 135.393 215.019 134.081C215.019 132.769 214.76 131.47 214.257 130.261C213.777 129.097 213.074 128.041 212.19 127.154C211.305 126.267 210.257 125.566 209.104 125.091C206.651 124.084 203.907 124.084 201.454 125.091C200.302 125.566 199.253 126.267 198.369 127.154C197.484 128.041 196.782 129.097 196.301 130.261C195.799 131.47 195.54 132.769 195.54 134.081C195.54 135.393 195.799 136.692 196.301 137.901C196.782 139.065 197.484 140.121 198.369 141.008C199.253 141.895 200.302 142.596 201.454 143.071C202.663 143.577 203.96 143.834 205.268 143.825L205.267 143.826ZM205.267 140.236C204.494 140.243 203.729 140.089 203.017 139.785C202.305 139.481 201.662 139.033 201.127 138.468C200.599 137.901 200.184 137.237 199.905 136.511C199.309 134.942 199.309 133.205 199.905 131.637C200.187 130.917 200.601 130.257 201.127 129.694C201.662 129.129 202.305 128.681 203.017 128.377C203.729 128.073 204.494 127.919 205.267 127.926C206.062 127.92 206.849 128.08 207.58 128.398C208.278 128.698 208.908 129.139 209.433 129.694C209.958 130.257 210.373 130.917 210.655 131.637C211.25 133.205 211.25 134.942 210.655 136.511C210.375 137.237 209.96 137.901 209.433 138.468C208.908 139.023 208.278 139.464 207.58 139.764C206.849 140.081 206.062 140.241 205.268 140.235L205.267 140.236ZM263.043 143.53V140.075H252.974V124.632H249.166V143.528L263.043 143.53ZM311.096 143.53V140.075H301.027V124.632H297.216V143.528L311.096 143.53ZM359.515 143.53V140.129H349.08V135.646H355.889V132.352H349.08V128.037H359.41V124.636H345.266V143.531L359.515 143.53ZM401.784 143.8C403.233 143.798 404.663 143.475 405.977 142.855C407.268 142.276 408.414 141.409 409.328 140.318V140.318L406.83 137.781C406.217 138.529 405.456 139.138 404.596 139.568C403.752 139.983 402.826 140.195 401.889 140.189C401.098 140.198 400.313 140.047 399.58 139.746C398.847 139.445 398.18 138.999 397.618 138.435C397.077 137.882 396.649 137.226 396.36 136.504C396.049 135.738 395.892 134.917 395.899 134.089C395.891 133.252 396.043 132.422 396.347 131.645C396.629 130.921 397.049 130.261 397.582 129.702C398.116 129.146 398.755 128.705 399.461 128.406C400.196 128.089 400.988 127.928 401.787 127.933C402.754 127.93 403.708 128.156 404.573 128.593C405.466 129.048 406.247 129.698 406.86 130.497V130.497L409.437 127.878C408.531 126.763 407.378 125.879 406.072 125.301C404.731 124.672 403.271 124.345 401.793 124.342C400.473 124.333 399.163 124.59 397.942 125.098C396.784 125.574 395.726 126.27 394.827 127.149C393.938 128.03 393.232 129.08 392.749 130.24C392.248 131.457 391.989 132.761 391.987 134.079C391.985 135.397 392.239 136.702 392.736 137.92C393.214 139.076 393.915 140.123 394.799 140.998C395.699 141.878 396.756 142.574 397.914 143.05C399.143 143.557 400.458 143.811 401.784 143.798V143.8ZM452.202 143.53V128.087H458.378V124.63H442.186V128.087H448.389V143.528L452.202 143.53ZM495.863 143.53V124.634H492.052V143.53H495.863ZM539.762 143.828C541.078 143.838 542.383 143.581 543.6 143.072C544.752 142.597 545.801 141.896 546.685 141.009C547.57 140.122 548.272 139.066 548.753 137.902C549.255 136.693 549.514 135.394 549.514 134.082C549.514 132.77 549.255 131.471 548.753 130.262C548.272 129.098 547.57 128.042 546.685 127.155C545.801 126.268 544.752 125.567 543.6 125.093C541.147 124.086 538.404 124.086 535.951 125.093C534.799 125.568 533.751 126.269 532.867 127.156C531.983 128.043 531.28 129.099 530.8 130.262C530.296 131.471 530.037 132.77 530.037 134.082C530.037 135.394 530.296 136.693 530.8 137.902C531.28 139.066 531.983 140.121 532.867 141.008C533.751 141.896 534.799 142.597 535.951 143.072C537.16 143.578 538.455 143.834 539.762 143.825V143.828ZM539.762 140.237C538.972 140.245 538.188 140.084 537.463 139.765C536.77 139.463 536.144 139.022 535.623 138.469C535.094 137.903 534.679 137.238 534.399 136.512C533.803 134.944 533.803 133.207 534.399 131.639C534.681 130.917 535.096 130.258 535.623 129.695C536.144 129.142 536.77 128.702 537.463 128.399C538.188 128.081 538.972 127.92 539.762 127.927C540.557 127.921 541.344 128.082 542.074 128.399C542.773 128.699 543.403 129.14 543.928 129.695C544.454 130.258 544.869 130.918 545.15 131.639C545.747 133.207 545.747 134.944 545.15 136.512C544.871 137.238 544.456 137.903 543.928 138.469C543.403 139.024 542.773 139.465 542.074 139.765C541.344 140.082 540.557 140.242 539.762 140.235V140.237ZM587.261 143.531V130.892L596.645 143.531H600.01V124.636H596.435V136.864L587.288 124.636H583.659V143.531H587.261Z" fill="white"/>
</svg>
