<svg width="601" height="170" viewBox="0 0 601 170" fill="none" xmlns="http://www.w3.org/2000/svg">
<path d="M122.672 107.517C120.156 101.203 114.843 96.4059 108.28 94.64C108.53 94.64 98.9347 91.3583 94.3872 89.8425C90.3398 88.0767 85.808 87.5766 81.5106 88.0767C74.4471 89.0924 68.3839 93.3742 65.1022 99.6875L64.0864 65.855L66.3523 65.1049C67.1024 65.605 67.8682 66.3707 68.6183 66.6207C69.1183 66.8708 69.884 67.3708 70.6341 67.6365L86.2924 74.9656C90.3398 76.7314 94.8717 77.2315 99.1691 76.2314C119.14 69.6368 118.125 51.7126 118.125 51.4625C118.125 51.2125 116.859 36.3043 116.609 28.4752V28.2251C115.859 24.1777 113.327 20.396 110.046 17.8644L94.6373 3.47191C94.3872 3.47191 94.3872 3.22188 94.1372 3.22188C93.1214 2.47178 92.3713 1.95609 91.1056 1.45602C87.5738 -0.309831 83.2764 -0.559864 79.4947 1.20599C79.4947 1.20599 25.9564 30.241 21.1589 32.7726C17.6272 35.3042 15.3457 39.0859 15.0957 43.3833C14.0799 50.1967 13.5798 51.7126 11.0483 53.7441C6.50079 55.5099 3.46914 59.8074 3.21911 64.8549L0.453125 121.409C0.453125 124.941 1.96895 132.02 9.03237 133.286C10.0481 133.286 10.7982 133.786 11.2983 134.551C12.314 136.567 12.5641 138.849 11.7984 141.115C11.7984 141.365 11.7984 141.365 11.7984 141.615C11.7984 142.631 11.7984 150.194 15.5801 153.491C16.3302 154.757 21.6434 165.368 29.4725 166.118L35.7859 166.618C44.1151 167.368 58.2575 168.884 63.8208 169.4C65.5866 169.65 67.3525 169.4 68.8683 168.9C71.6499 168.65 80.2291 167.634 85.7924 166.884C99.9348 164.618 103.217 148.96 103.982 143.396C108.78 142.381 113.077 139.615 116.359 135.567L116.609 135.317C125.454 122.925 124.954 113.33 122.672 107.517ZM55.0071 125.957C53.2413 125.957 41.1147 126.972 35.5671 126.972C34.817 126.972 34.0513 126.722 33.5512 126.222C32.2854 124.706 31.7853 122.941 31.7853 120.925L32.0354 57.2914C32.0354 57.0414 31.7853 50.728 35.317 48.9622C40.3646 46.6963 52.2411 40.633 54.007 39.6172C55.5228 39.1172 57.0386 39.1172 58.5544 39.8673C58.8045 40.1173 59.0545 40.3673 59.0545 40.883L60.0703 45.6805C60.0703 46.6963 60.3203 47.6964 60.8204 48.4621C60.3203 48.2121 59.8046 48.4621 59.3045 48.4621L43.1462 55.0255C42.8962 55.0255 42.8962 55.2755 42.6461 55.2755C42.3961 55.5256 42.3961 55.5255 42.1461 55.7756C42.1461 55.7756 41.896 56.0256 41.896 56.2756V56.5257C41.896 56.5257 41.896 56.5257 41.896 56.7757C41.896 57.0257 41.896 57.0257 41.896 57.2758L42.1461 119.143C42.1461 119.893 42.3961 120.409 42.8962 120.909C43.3962 121.409 43.9119 121.409 44.662 121.409L62.0862 119.643C61.3204 123.691 56.0072 125.457 55.0071 125.957ZM61.5705 62.0733L49.9596 57.5258L58.5388 53.9941C59.5546 56.7757 60.8047 59.5573 62.5862 61.8232L61.5705 62.0733ZM46.6623 116.612L46.4122 60.5575L59.2889 65.855L60.8047 115.096L46.6623 116.612ZM111.811 29.2409C112.311 37.07 113.327 51.9626 113.327 51.9626C113.327 52.4627 113.827 66.6051 97.4189 72.1683C94.1372 72.6684 90.8555 72.1683 87.8239 71.1526C87.8239 71.1526 84.2922 69.6368 80.7605 67.8709C102.482 60.5418 101.466 40.8518 101.466 40.6017C101.466 40.3517 100.2 24.4434 99.7004 15.5985L106.514 21.9118C109.295 23.4276 111.061 26.2092 111.811 29.2409ZM89.0897 5.75346C92.6214 7.51931 94.9029 10.801 95.403 14.5984C95.9031 23.4433 97.1689 40.3517 97.1689 40.6017C97.1689 41.3518 97.9189 57.2758 79.2446 63.3234C76.9787 64.0735 74.6972 64.3392 72.4313 63.5735C71.9312 63.3234 71.6812 63.0734 71.6812 63.0734C71.6812 63.0734 71.4311 63.0734 71.4311 62.8234H71.1811C66.6336 60.2918 64.3677 54.4942 63.3519 51.4625C66.1336 53.9941 69.9153 54.7442 73.447 53.4784C82.2919 51.2125 84.8079 42.6176 84.8079 38.3202V38.0702C84.8079 37.8201 83.292 17.6144 83.042 11.5511C83.042 11.3011 83.042 11.3011 83.042 11.051C82.5419 9.28516 81.5262 7.51931 80.0104 6.25352L82.0263 5.23776C84.0421 4.48767 86.8238 4.48767 89.0897 5.75346ZM10.0481 129.238C5.00059 128.488 5.25063 122.425 5.25063 122.175L8.03224 65.355C8.03224 62.0733 10.0481 59.2917 13.0798 58.2915C13.3298 58.2915 13.5798 58.0415 13.8299 58.0415C18.1273 54.7598 18.8774 51.4781 19.8932 44.3991C20.1432 41.6175 21.409 38.8359 23.6749 37.07C39.8489 28.2251 71.1655 11.051 72.4313 10.551C73.697 9.80086 75.2129 9.5352 76.7287 10.0509C77.4788 10.551 78.2445 11.3167 78.2445 12.3168C78.4945 18.6301 79.7603 36.5543 80.0104 38.5858C80.0104 39.6016 79.2603 47.4307 71.9312 49.1966C70.1653 49.9467 68.3995 49.6967 66.8837 48.9466C65.6179 47.9308 64.8678 46.6807 64.8678 45.1648V44.9148L63.5863 39.8516C63.3363 38.0858 62.3206 36.82 60.8047 35.8042C58.2732 34.5384 55.2415 34.2884 52.4755 35.3042C52.2255 35.3042 52.2255 35.3042 51.9755 35.5542C51.7254 35.5542 38.5987 42.3676 33.2855 44.8992C26.9722 47.9308 27.4723 57.0257 27.4723 57.5258C27.4723 57.2758 27.2222 120.909 27.2222 120.909C27.2222 123.941 28.238 127.222 30.2539 129.488C31.7697 130.754 33.5356 131.504 35.5514 131.504C41.6147 131.254 54.9915 130.488 55.5072 130.488C55.7572 130.488 55.7572 130.488 56.0072 130.488C56.5073 130.238 65.8523 127.707 66.618 119.878C67.1181 115.58 67.6337 111.033 67.6337 111.033C67.6337 110.783 69.1496 103.704 75.4629 102.454C77.4788 101.953 79.5103 102.203 81.2762 103.204C82.792 104.469 84.0578 106.235 84.3078 108.251C84.3078 108.501 86.0737 116.33 82.5419 120.878C80.0104 123.409 76.7287 124.925 73.197 125.425C72.9469 125.425 72.9469 125.425 72.9469 125.425C72.6969 125.425 65.1178 126.941 63.602 138.552C63.1019 141.834 63.1019 143.349 63.1019 144.365C63.1019 145.881 62.6018 147.397 62.0862 148.913C61.3361 151.444 57.2887 153.21 53.7569 153.21C49.7095 153.21 25.722 151.944 19.9244 151.444C17.6585 151.194 16.8928 145.881 16.8928 143.115C17.6429 139.833 17.1428 136.302 15.627 133.27C14.3456 130.754 12.3297 129.488 10.0481 129.238ZM64.3364 165.102C59.0389 164.602 44.8964 163.336 36.5516 162.321L30.2383 161.821C27.2066 161.571 24.425 158.539 22.4091 155.507C30.7383 156.007 50.194 157.273 53.9757 157.273C59.2733 157.023 65.3366 154.492 66.6024 149.694C67.1024 147.928 67.6181 146.162 67.6181 144.396C67.6181 143.381 67.8682 141.865 68.1182 138.833C69.1339 131.254 72.9157 129.988 73.6814 129.738C78.4789 129.238 82.7763 127.207 86.058 123.675C86.058 123.675 86.058 123.425 86.3081 123.425C91.1056 117.362 89.0897 107.767 88.8396 107.267C88.3396 103.985 86.5737 101.203 83.7921 99.4375C81.0105 97.6717 77.4788 97.1716 74.1971 97.9217C72.9313 98.1717 71.6655 98.6718 70.6654 99.1875C73.447 95.6558 77.4788 93.3742 81.7762 92.8742C84.5578 92.6241 87.0738 92.6241 89.8554 93.3742C90.1054 93.3742 90.1054 93.6242 90.3555 93.6242L92.6214 94.3744C95.9031 95.8902 98.6847 98.4217 100.701 101.438C103.732 105.985 107.014 116.08 96.1531 131.989C90.0898 138.802 84.7922 139.052 84.0265 139.052H83.7765C83.5264 139.052 83.5264 139.052 83.5264 139.052C82.5107 139.302 82.0106 139.802 81.7606 140.818V141.068C81.7606 141.068 81.7606 141.068 81.7606 141.318C81.5106 144.1 79.7447 156.476 72.9157 162.274C71.6499 163.54 69.884 164.54 68.1182 164.805C67.8682 164.805 67.6181 164.805 67.6181 164.805C67.3681 164.805 67.1181 164.805 66.868 165.055C66.1179 165.102 65.3522 165.102 64.3364 165.102ZM85.3079 162.571C83.042 162.821 80.5104 163.321 77.7288 163.586C82.2763 157.773 85.0579 150.71 85.808 143.381L99.1847 143.631C98.9347 148.944 96.1687 161.055 85.3079 162.571ZM113.077 133.036C107.514 139.349 102.466 139.349 102.216 139.349L95.403 139.099C97.1688 137.833 98.6847 136.317 100.2 134.551C100.2 134.551 100.2 134.301 100.451 134.301C112.577 116.362 108.53 104.235 104.998 98.6874C104.748 98.4374 104.748 98.1873 104.498 97.9373L107.03 98.6874C112.327 99.9532 116.625 103.735 118.39 108.782C120.156 113.83 120.656 121.925 113.077 133.036Z" fill="white"/>
<path d="M146.347 55.8131C145.784 49.0153 148.613 42.7801 153.723 38.8108L163.365 30.8723C167.897 26.903 174.132 25.1997 179.804 25.7779H200.213C204.745 25.7779 209.277 26.9187 209.277 32.0131C209.277 37.1075 204.183 38.2483 200.213 38.2483H177.539C174.71 38.2483 172.444 39.389 170.163 41.655L162.224 48.4527C159.958 50.1561 158.817 51.2812 158.817 54.1253V70.0024C158.817 72.2683 160.521 74.5342 162.224 75.675L170.163 81.9102C172.428 83.6135 174.694 84.7387 177.539 85.3169H200.213C204.183 85.3169 209.277 85.8795 209.277 91.5521C209.277 97.2247 204.745 97.7872 200.213 97.7872H179.804C173.569 98.3498 167.897 96.6465 163.365 92.6928L153.723 84.7543C148.05 80.785 145.222 74.5499 146.347 67.7521V55.8131Z" fill="white"/>
<path d="M297.117 38.8124C293.147 38.8124 288.616 38.2498 288.616 32.5772C288.616 26.9046 293.147 26.342 297.117 26.342H314.681C320.917 25.7794 326.589 27.4828 331.121 32.0146C335.09 35.9839 337.356 41.6565 336.794 47.3135L337.934 90.3972C337.934 94.3664 336.231 97.7731 332.262 97.7731C328.855 97.7731 326.027 94.9446 325.464 91.538L316.963 96.0698C314.697 97.7731 311.869 98.3357 309.024 97.7731H296.554C291.46 98.3357 286.35 96.6324 281.818 93.2413C277.286 89.272 274.442 83.5994 275.02 77.3642V71.6916C274.457 66.019 276.723 60.9246 281.255 57.5179C285.224 54.1112 290.897 52.4235 295.992 52.9861H323.198V50.1576C323.198 40.5157 320.932 38.828 311.869 38.828H297.117V38.8124ZM296.554 66.019C293.147 66.019 288.053 67.1598 288.053 71.6916V80.1927C288.053 84.7246 293.147 85.2871 296.554 85.2871H310.728L324.902 77.9112V75.0827C324.902 68.2849 322.636 66.019 315.838 66.019H296.554Z" fill="white"/>
<path d="M457.528 42.2169V35.9817C457.528 31.4499 458.091 26.3398 463.763 26.3398C468.295 26.3398 469.998 29.7465 469.998 34.2784V43.342C469.998 45.0454 469.436 46.7487 468.295 48.4365L449.027 90.395C447.886 93.2235 445.62 98.3336 442.229 98.3336H434.291C430.884 98.3336 428.618 93.2392 427.493 90.395L408.225 48.4521C407.084 46.7487 406.521 45.0454 406.521 43.3577V34.294C406.521 30.3247 408.225 26.3555 412.757 26.3555C418.429 26.3555 419.554 31.4499 419.554 35.9973V42.2325L438.26 84.7381L457.528 42.2169Z" fill="white"/>
<path d="M560.699 97.7559C556.73 98.3184 552.198 97.1933 549.369 94.3492L543.697 89.8173C539.165 86.4106 536.899 81.3162 537.461 75.6436V51.2654C536.899 45.5928 539.165 39.9358 543.697 35.9666L548.228 31.9973C551.635 28.028 557.292 26.3247 562.402 26.9029H574.31C579.404 26.3403 584.514 28.0437 588.484 31.4347L593.578 35.404C598.673 39.3733 600.954 45.6085 600.376 51.8436V62.0481C600.376 69.424 599.235 71.69 591.875 71.69H551.057V76.2218C551.057 77.3626 551.62 79.0503 552.76 80.1911L556.167 83.5978C558.433 85.3011 561.84 86.4263 564.668 85.8637H591.875C596.407 85.8637 600.376 87.0045 600.376 92.0989C600.376 97.7715 595.281 98.3341 591.875 98.3341L560.699 97.7559ZM549.916 58.657H586.765V50.7185C586.765 48.4526 586.765 46.1867 585.061 45.0459L579.967 40.514C578.264 39.3733 575.998 38.8107 573.732 38.8107H562.965C560.699 38.8107 558.433 38.8107 556.73 40.514L552.198 43.9207C550.494 45.0615 549.369 47.3274 549.369 49.5933L549.916 58.657Z" fill="white"/>
<path d="M155.907 143.798C157.356 143.796 158.787 143.474 160.1 142.854C161.391 142.275 162.537 141.408 163.452 140.317V140.317L160.955 137.778C160.342 138.527 159.58 139.136 158.72 139.566C157.877 139.98 156.951 140.193 156.013 140.186C155.222 140.195 154.437 140.044 153.704 139.743C152.971 139.442 152.304 138.997 151.741 138.432C151.2 137.88 150.772 137.223 150.483 136.502C150.173 135.736 150.016 134.914 150.023 134.086C150.015 133.25 150.167 132.42 150.47 131.642C150.754 130.919 151.173 130.259 151.706 129.699C152.241 129.144 152.88 128.703 153.585 128.403C154.321 128.086 155.112 127.926 155.911 127.931C156.875 127.927 157.826 128.151 158.689 128.586C159.581 129.04 160.362 129.691 160.976 130.489V130.489L163.552 127.871C162.646 126.755 161.494 125.872 160.188 125.293C158.846 124.664 157.386 124.337 155.907 124.334C154.587 124.325 153.278 124.582 152.056 125.09C150.898 125.566 149.842 126.263 148.942 127.143C148.055 128.023 147.349 129.074 146.866 130.234C146.365 131.45 146.106 132.755 146.104 134.073C146.101 135.391 146.356 136.696 146.853 137.914C147.33 139.07 148.032 140.116 148.916 140.992C149.815 141.871 150.873 142.568 152.031 143.044C153.261 143.553 154.579 143.81 155.907 143.798V143.798ZM205.72 143.826C207.036 143.836 208.34 143.579 209.557 143.071C210.71 142.596 211.758 141.895 212.643 141.008C213.527 140.121 214.23 139.065 214.71 137.901C215.213 136.692 215.472 135.393 215.472 134.081C215.472 132.769 215.213 131.47 214.71 130.261C214.23 129.097 213.527 128.041 212.643 127.154C211.758 126.267 210.71 125.566 209.557 125.091C207.104 124.084 204.361 124.084 201.907 125.091C200.755 125.566 199.706 126.267 198.822 127.154C197.937 128.041 197.235 129.097 196.755 130.261C196.252 131.47 195.993 132.769 195.993 134.081C195.993 135.393 196.252 136.692 196.755 137.901C197.235 139.065 197.937 140.121 198.822 141.008C199.706 141.895 200.755 142.596 201.907 143.071C203.116 143.577 204.413 143.834 205.721 143.825L205.72 143.826ZM205.72 140.236C204.947 140.243 204.182 140.089 203.47 139.785C202.758 139.481 202.115 139.033 201.58 138.468C201.052 137.901 200.637 137.237 200.358 136.511C199.762 134.942 199.762 133.205 200.358 131.637C200.64 130.917 201.055 130.257 201.58 129.694C202.115 129.129 202.758 128.681 203.47 128.377C204.182 128.073 204.947 127.919 205.72 127.926C206.515 127.92 207.302 128.08 208.033 128.398C208.731 128.698 209.361 129.139 209.886 129.694C210.411 130.257 210.826 130.917 211.108 131.637C211.704 133.205 211.704 134.942 211.108 136.511C210.828 137.237 210.413 137.901 209.886 138.468C209.361 139.023 208.731 139.464 208.033 139.764C207.303 140.081 206.515 140.241 205.721 140.235L205.72 140.236ZM263.496 143.53V140.075H253.427V124.632H249.619V143.528L263.496 143.53ZM311.549 143.53V140.075H301.48V124.632H297.669V143.528L311.549 143.53ZM359.968 143.53V140.129H349.533V135.646H356.342V132.352H349.533V128.037H359.863V124.636H345.719V143.531L359.968 143.53ZM402.237 143.8C403.686 143.798 405.117 143.475 406.43 142.855C407.721 142.276 408.867 141.409 409.781 140.318V140.318L407.283 137.781C406.67 138.529 405.909 139.138 405.049 139.568C404.205 139.983 403.279 140.195 402.342 140.189C401.551 140.198 400.766 140.047 400.033 139.746C399.3 139.445 398.633 138.999 398.071 138.435C397.53 137.882 397.102 137.226 396.813 136.504C396.502 135.738 396.346 134.917 396.352 134.089C396.344 133.252 396.496 132.422 396.8 131.645C397.082 130.921 397.502 130.261 398.035 129.702C398.569 129.146 399.208 128.705 399.914 128.406C400.649 128.089 401.441 127.928 402.24 127.933C403.207 127.93 404.161 128.156 405.026 128.593C405.919 129.048 406.7 129.698 407.313 130.497V130.497L409.89 127.878C408.984 126.763 407.831 125.879 406.525 125.301C405.184 124.672 403.724 124.345 402.246 124.342C400.926 124.333 399.617 124.59 398.395 125.098C397.237 125.574 396.179 126.27 395.28 127.149C394.392 128.03 393.685 129.08 393.202 130.24C392.701 131.457 392.442 132.761 392.44 134.079C392.438 135.397 392.692 136.702 393.189 137.92C393.667 139.076 394.368 140.123 395.252 140.998C396.152 141.878 397.209 142.574 398.367 143.05C399.596 143.557 400.911 143.811 402.237 143.798V143.8ZM452.655 143.53V128.087H458.831V124.63H442.639V128.087H448.843V143.528L452.655 143.53ZM496.316 143.53V124.634H492.505V143.53H496.316ZM540.215 143.828C541.532 143.838 542.836 143.581 544.053 143.072C545.206 142.597 546.254 141.896 547.139 141.009C548.023 140.122 548.725 139.066 549.206 137.902C549.708 136.693 549.967 135.394 549.967 134.082C549.967 132.77 549.708 131.471 549.206 130.262C548.726 129.098 548.023 128.042 547.139 127.155C546.254 126.268 545.206 125.567 544.053 125.093C541.6 124.086 538.857 124.086 536.404 125.093C535.252 125.568 534.204 126.269 533.32 127.156C532.436 128.043 531.734 129.099 531.253 130.262C530.75 131.471 530.49 132.77 530.49 134.082C530.49 135.394 530.75 136.693 531.253 137.902C531.734 139.066 532.436 140.121 533.32 141.008C534.204 141.896 535.252 142.597 536.404 143.072C537.613 143.578 538.908 143.834 540.215 143.825V143.828ZM540.215 140.237C539.425 140.245 538.642 140.084 537.916 139.765C537.223 139.463 536.597 139.022 536.076 138.469C535.547 137.903 535.132 137.238 534.853 136.512C534.257 134.944 534.257 133.207 534.853 131.639C535.134 130.917 535.55 130.258 536.076 129.695C536.597 129.142 537.223 128.702 537.916 128.399C538.642 128.081 539.425 127.92 540.215 127.927C541.01 127.921 541.797 128.082 542.528 128.399C543.226 128.699 543.856 129.14 544.381 129.695C544.907 130.258 545.322 130.918 545.604 131.639C546.2 133.207 546.2 134.944 545.604 136.512C545.324 137.238 544.909 137.903 544.381 138.469C543.856 139.024 543.226 139.465 542.528 139.765C541.797 140.082 541.01 140.242 540.215 140.235V140.237ZM587.714 143.531V130.892L597.099 143.531H600.463V124.636H596.888V136.864L587.741 124.636H584.112V143.531H587.714Z" fill="white"/>
</svg>
