<svg width="476" height="135" viewBox="0 0 476 135" fill="none" xmlns="http://www.w3.org/2000/svg">
<path d="M80.296 0.0917969H67.9414V10.7475H80.296V0.0917969Z" fill="#FF300F"/>
<path d="M64.9893 27.5508H12.7863V23.3158H64.9292V12.6602H0.51694L0.5 37.66H52.6342V41.7584H0.5V52.6873H64.9893V27.5508Z" fill="#FF300F"/>
<path d="M228.522 1.41309H216.167V52.779H228.522V1.41309Z" fill="#FF300F"/>
<path d="M309.669 12.7891H297.314V52.6883H309.669V12.7891Z" fill="#FF300F"/>
<path d="M80.296 12.7891H67.9414V52.6883H80.296V12.7891Z" fill="#FF300F"/>
<path d="M147.031 12.7891H83.0371V52.7337H95.3917V23.4448H134.676V52.6883H147.031V12.7891Z" fill="#FF300F"/>
<path d="M213.539 52.6883V41.7594H162.059V23.4448H213.539L213.556 12.7891H149.705V52.6883H213.539Z" fill="#FF300F"/>
<path d="M294.708 52.6883V12.7891H231.207V23.4448H282.354V27.5819H231.207V52.6883H294.708ZM282.354 41.7594H243.562V37.6611H282.354V41.7594Z" fill="#FF300F"/>
<path d="M309.669 0.0917969H297.314V10.7021H309.669V0.0917969Z" fill="#FF300F"/>
<path d="M312.752 12.7891V52.6883H325.107V23.4535H375.198V12.7891H312.752Z" fill="#FF300F"/>
<path d="M0.5 122.054H46.6101V110.126H17.7004L45.6283 79.6165V68.889H2.1364V80.7802H27.7734L0.5 110.745V122.054Z" fill="white"/>
<path d="M47.0654 122.054H62.9931L73.8661 104.344L83.8299 122.054H100.667L81.9026 94.126L99.103 68.889H83.3208L73.8661 85.3985L64.9204 68.889H48.6291L65.975 94.126L47.0654 122.054Z" fill="white"/>
<path d="M123.796 104.199C124.087 110.89 126.451 115.751 130.887 118.781C135.251 121.714 140.584 123.181 146.887 123.181C152.997 123.23 158.33 121.933 162.888 119.29C167.567 116.623 169.955 111.981 170.052 105.363C170.052 102.938 169.627 100.878 168.779 99.1806C167.882 97.5079 166.718 96.0775 165.288 94.8896C162.209 92.5865 158.657 90.9623 154.633 90.0168C153.688 89.7259 152.766 89.4592 151.869 89.2168C150.875 88.9743 149.93 88.744 149.033 88.5258C147.263 88.0895 145.602 87.6531 144.051 87.2167C142.621 86.7076 141.481 86.1379 140.633 85.5076C139.687 84.8045 139.214 83.9803 139.214 83.0348C139.263 81.2893 140.027 80.0772 141.505 79.3983C142.863 78.7923 144.33 78.4892 145.906 78.4892C148.209 78.4892 150.221 78.9377 151.942 79.8347C153.688 80.7802 154.536 82.4651 154.488 84.8894H168.342C168.294 81.8105 167.7 79.2044 166.561 77.071C165.348 74.8892 163.724 73.1315 161.688 71.7982C157.421 69.1072 152.536 67.7617 147.033 67.7617C141.772 67.7617 136.936 68.9739 132.523 71.3982C130.39 72.6588 128.669 74.3316 127.36 76.4165C126.026 78.5014 125.36 80.9984 125.36 83.9075C125.457 88.6349 127.117 92.1138 130.342 94.3441C133.42 96.623 136.948 98.2594 140.924 99.2534C144.948 100.199 148.475 101.144 151.506 102.09C152.936 102.599 154.075 103.241 154.924 104.017C155.772 104.817 156.197 105.811 156.197 106.999C156.148 108.89 155.275 110.284 153.578 111.181C152.778 111.617 151.894 111.92 150.924 112.09C149.881 112.332 148.803 112.454 147.687 112.454C144.778 112.502 142.427 111.884 140.633 110.599C138.839 109.387 137.845 107.254 137.651 104.199H123.796Z" fill="white"/>
<path d="M195.235 91.9805C196.665 91.9805 197.853 92.2714 198.798 92.8532C199.744 93.4593 200.507 94.2593 201.089 95.2533C202.18 97.3866 202.726 99.7382 202.726 102.308C202.726 105.047 202.18 107.557 201.089 109.835C200.507 110.878 199.744 111.751 198.798 112.454C197.756 113.132 196.544 113.472 195.162 113.472C192.374 113.472 190.386 112.429 189.198 110.345C188.059 108.381 187.489 105.702 187.489 102.308C187.489 100.272 187.756 98.5867 188.289 97.2533C188.75 95.9199 189.344 94.8775 190.071 94.126C190.871 93.3259 191.719 92.7562 192.616 92.4168C193.513 92.1259 194.386 91.9805 195.235 91.9805ZM175.271 135H187.925V117.872H188.071C190.641 121.411 194.313 123.181 199.089 123.181C204.592 123.084 208.69 121.072 211.38 117.145C214.071 113.266 215.417 108.744 215.417 103.581C215.417 100.793 215.114 98.1382 214.508 95.6169C214.217 94.332 213.793 93.1199 213.235 91.9805C212.75 90.841 212.132 89.7986 211.38 88.8531C208.593 84.5863 204.168 82.3924 198.107 82.2711C193.55 82.3196 190.01 84.1863 187.489 87.8713H187.307V83.3984H175.271V135Z" fill="white"/>
<path d="M232.236 98.7442C232.624 96.3199 233.533 94.3805 234.964 92.9259C236.37 91.5441 238.188 90.8532 240.418 90.8532C242.6 90.9016 244.382 91.6653 245.764 93.1441C247.121 94.6472 247.849 96.5139 247.946 98.7442H232.236ZM260.601 105.835C260.891 99.12 259.352 93.5562 255.982 89.144C252.564 84.6833 247.376 82.3924 240.418 82.2711C234.6 82.3196 229.715 84.2106 225.763 87.944C221.691 91.6774 219.63 96.5745 219.581 102.635C219.63 109.132 221.581 114.163 225.436 117.727C229.266 121.314 234.357 123.133 240.709 123.181C245.121 123.181 249.146 122.163 252.782 120.127C256.297 118.042 258.673 114.781 259.91 110.345H248.091C247.437 111.751 246.467 112.793 245.182 113.472C243.897 114.223 242.455 114.599 240.855 114.599C238.188 114.599 236.127 113.787 234.673 112.163C233.194 110.563 232.382 108.454 232.236 105.835H260.601Z" fill="white"/>
<path d="M303.675 97.5442C303.117 92.429 301.057 88.6107 297.493 86.0894C293.857 83.5439 289.566 82.2711 284.62 82.2711C278.365 82.3196 273.444 84.2833 269.856 88.1622C266.244 91.9926 264.413 97.0594 264.365 103.363C264.413 109.326 266.341 114.09 270.147 117.654C273.88 121.29 278.705 123.133 284.62 123.181C289.881 123.133 294.269 121.69 297.784 118.854C301.299 116.017 303.384 112.017 304.039 106.854H291.747C291.263 111.217 288.85 113.423 284.511 113.472C283.178 113.472 282.062 113.157 281.165 112.526C280.171 111.969 279.383 111.193 278.802 110.199C277.614 108.211 277.02 105.932 277.02 103.363C277.02 101.981 277.117 100.611 277.311 99.2534C277.505 97.8715 277.905 96.6594 278.511 95.6169C279.093 94.4775 279.929 93.5805 281.02 92.9259C282.111 92.2956 283.505 91.9805 285.202 91.9805C286.899 91.9805 288.341 92.4774 289.529 93.4714C290.717 94.5138 291.335 95.8715 291.384 97.5442H303.675Z" fill="white"/>
<path d="M332.931 83.3984H325.113V71.7254H312.458V83.3984H306.021V91.5804H312.458V108.781C312.385 113.896 313.318 117.472 315.258 119.508C317.149 121.448 320.725 122.418 325.985 122.418C328.337 122.369 330.652 122.248 332.931 122.054V112.745C331.791 112.842 330.701 112.89 329.658 112.89C328.301 112.89 327.197 112.623 326.349 112.09C325.525 111.581 325.113 110.611 325.113 109.181V91.5804H332.931V83.3984Z" fill="white"/>
<path d="M338.332 122.054H350.987V102.926C350.987 100.381 351.811 98.223 353.459 96.4533C355.035 94.7078 357.387 93.8108 360.514 93.7623C362.163 93.7623 363.775 94.0047 365.351 94.4896V82.9621C364.357 82.7681 363.363 82.6712 362.369 82.6712C356.72 82.7196 352.853 85.2288 350.768 90.1986H350.623V83.3984H338.332V122.054Z" fill="white"/>
<path d="M407.261 83.3984H394.606V104.09C394.606 105.787 394.388 107.181 393.952 108.272C393.491 109.363 392.922 110.26 392.243 110.963C391.54 111.593 390.812 112.042 390.061 112.308C389.237 112.599 388.449 112.745 387.697 112.745C385.661 112.793 384.121 112.272 383.079 111.181C381.988 110.09 381.443 108.308 381.443 105.835V83.3984H368.788V106.635C368.739 111.751 369.757 115.751 371.842 118.636C373.927 121.617 377.673 123.133 383.079 123.181C385.406 123.133 387.637 122.539 389.77 121.399C391.903 120.236 393.588 118.696 394.825 116.781H395.006V122.054H407.261V83.3984Z" fill="white"/>
<path d="M415.026 122.054H427.681V103.217C427.681 99.2897 428.202 96.5381 429.244 94.9623C430.287 93.4108 431.923 92.6593 434.154 92.7077C435.851 92.7077 437.087 93.3502 437.863 94.6351C438.566 95.9442 438.917 97.7624 438.917 100.09V122.054H451.572V103.144C451.524 99.9685 451.851 97.4351 452.554 95.5442C453.306 93.7017 454.966 92.7562 457.536 92.7077C461.003 92.7562 462.76 94.9623 462.809 99.3261V122.054H475.5V98.9624C475.5 97.0715 475.367 95.132 475.1 93.1441C474.858 91.2774 474.264 89.4956 473.318 87.7985C472.421 86.1015 471.064 84.756 469.245 83.7621C467.403 82.7681 464.942 82.2711 461.863 82.2711C456.748 82.3196 452.724 84.4045 449.79 88.5258C448.748 86.1985 447.233 84.5621 445.245 83.6166C443.257 82.7196 441.026 82.2711 438.554 82.2711C433.681 82.3924 429.984 84.5379 427.463 88.7077H427.317V83.3984H415.026V122.054Z" fill="white"/>
</svg>
