<svg width="601" height="353" viewBox="0 0 601 353" fill="none" xmlns="http://www.w3.org/2000/svg">
<path d="M17.5071 352.692C18.9828 352.69 20.4403 352.362 21.7781 351.73C23.0937 351.14 24.261 350.257 25.1926 349.145V349.145L22.6487 346.56C22.0244 347.322 21.249 347.942 20.3728 348.381C19.5134 348.803 18.5698 349.019 17.6148 349.013C16.809 349.021 16.0095 348.868 15.2625 348.561C14.5155 348.254 13.8359 347.8 13.2631 347.226C12.7115 346.663 12.2756 345.994 11.9809 345.259C11.6649 344.478 11.5058 343.642 11.5129 342.798C11.5043 341.946 11.6589 341.101 11.9681 340.309C12.2567 339.572 12.6844 338.899 13.2272 338.329C13.7715 337.763 14.4225 337.314 15.1415 337.009C15.8907 336.686 16.6971 336.522 17.511 336.528C18.4926 336.524 19.4615 336.752 20.3408 337.195C21.2496 337.658 22.0455 338.32 22.6705 339.134V339.134L25.2952 336.466C24.3724 335.33 23.1981 334.43 21.8679 333.84C20.5008 333.199 19.0132 332.866 17.5071 332.864C16.162 332.854 14.8284 333.116 13.5836 333.634C12.4043 334.119 11.3275 334.829 10.4115 335.725C9.50729 336.622 8.78811 337.692 8.29586 338.874C7.78558 340.113 7.52175 341.442 7.51955 342.784C7.51734 344.127 7.77682 345.457 8.28304 346.697C8.76946 347.875 9.4841 348.941 10.3846 349.833C11.3011 350.729 12.3783 351.439 13.558 351.924C14.8112 352.443 16.1535 352.704 17.5071 352.692V352.692ZM68.2525 352.721C69.5932 352.731 70.9223 352.469 72.1619 351.951C73.336 351.468 74.4043 350.753 75.3052 349.85C76.2061 348.946 76.9219 347.87 77.4112 346.684C77.9236 345.453 78.1876 344.13 78.1876 342.793C78.1876 341.456 77.9236 340.133 77.4112 338.901C76.9219 337.716 76.2062 336.64 75.3053 335.736C74.4044 334.832 73.3361 334.118 72.1619 333.635C69.6627 332.609 66.868 332.609 64.3687 333.635C63.1946 334.118 62.1263 334.832 61.2253 335.736C60.3244 336.64 59.6087 337.716 59.1194 338.901C58.6074 340.133 58.3436 341.456 58.3436 342.793C58.3436 344.13 58.6074 345.453 59.1194 346.684C59.6088 347.87 60.3245 348.946 61.2254 349.85C62.1263 350.753 63.1946 351.468 64.3687 351.951C65.6003 352.467 66.9212 352.728 68.2538 352.72L68.2525 352.721ZM68.2525 349.063C67.4657 349.07 66.6859 348.914 65.9607 348.604C65.2356 348.294 64.5804 347.838 64.0354 347.262C63.4977 346.685 63.075 346.008 62.7904 345.268C62.1831 343.67 62.1831 341.901 62.7904 340.303C63.0774 339.569 63.4999 338.897 64.0354 338.324C64.5804 337.748 65.2356 337.291 65.9607 336.982C66.6859 336.672 67.4657 336.516 68.2525 336.522C69.0624 336.516 69.8647 336.68 70.6092 337.004C71.32 337.309 71.9622 337.758 72.4966 338.324C73.032 338.897 73.4545 339.569 73.7416 340.303C74.3485 341.901 74.3485 343.67 73.7416 345.268C73.4569 346.008 73.0342 346.685 72.4966 347.262C71.9621 347.827 71.32 348.276 70.6092 348.582C69.865 348.905 69.0631 349.068 68.2538 349.062L68.2525 349.063ZM127.112 352.419V348.899H116.854V333.167H112.974V352.417L127.112 352.419ZM176.064 352.419V348.899H165.807V333.167H161.924V352.417L176.064 352.419ZM225.39 352.419V348.954H214.76V344.387H221.696V341.032H214.76V336.635H225.284V333.17H210.875V352.42L225.39 352.419ZM268.452 352.694C269.927 352.691 271.385 352.363 272.723 351.731C274.038 351.141 275.205 350.258 276.137 349.147V349.147L273.592 346.562C272.968 347.324 272.192 347.945 271.316 348.383C270.457 348.805 269.513 349.022 268.558 349.015C267.752 349.024 266.953 348.871 266.206 348.564C265.46 348.257 264.78 347.803 264.208 347.228C263.656 346.665 263.22 345.997 262.925 345.262C262.609 344.481 262.45 343.644 262.456 342.801C262.448 341.949 262.603 341.103 262.912 340.311C263.2 339.574 263.627 338.902 264.17 338.332C264.715 337.765 265.366 337.316 266.085 337.011C266.834 336.689 267.64 336.525 268.454 336.53C269.439 336.526 270.411 336.757 271.293 337.203C272.202 337.665 272.998 338.328 273.623 339.142V339.142L276.247 336.474C275.324 335.337 274.15 334.438 272.82 333.848C271.453 333.208 269.966 332.874 268.461 332.871C267.115 332.862 265.782 333.124 264.537 333.641C263.357 334.126 262.28 334.836 261.364 335.731C260.459 336.628 259.739 337.699 259.247 338.88C258.737 340.119 258.473 341.448 258.471 342.791C258.468 344.134 258.728 345.463 259.234 346.704C259.72 347.881 260.435 348.948 261.335 349.84C262.252 350.736 263.329 351.445 264.509 351.93C265.76 352.446 267.101 352.705 268.452 352.692V352.694ZM319.814 352.419V336.686H326.105V333.165H309.61V336.686H315.93V352.417L319.814 352.419ZM364.293 352.419V333.169H360.41V352.419H364.293ZM409.015 352.722C410.355 352.732 411.684 352.47 412.924 351.952C414.098 351.469 415.166 350.755 416.067 349.851C416.968 348.947 417.684 347.871 418.173 346.686C418.685 345.454 418.949 344.131 418.949 342.794C418.949 341.457 418.685 340.134 418.173 338.903C417.684 337.717 416.968 336.641 416.067 335.737C415.166 334.833 414.098 334.119 412.924 333.636C410.425 332.61 407.631 332.61 405.132 333.636C403.959 334.12 402.891 334.834 401.99 335.738C401.089 336.642 400.374 337.717 399.884 338.903C399.371 340.134 399.107 341.457 399.107 342.794C399.107 344.131 399.371 345.454 399.884 346.686C400.374 347.871 401.089 348.946 401.99 349.85C402.891 350.754 403.959 351.468 405.132 351.952C406.363 352.468 407.683 352.729 409.015 352.72V352.722ZM409.015 349.065C408.209 349.072 407.411 348.908 406.672 348.583C405.966 348.276 405.328 347.827 404.797 347.263C404.259 346.686 403.836 346.009 403.551 345.269C402.944 343.672 402.944 341.902 403.551 340.305C403.838 339.57 404.261 338.898 404.797 338.325C405.328 337.762 405.966 337.313 406.672 337.005C407.411 336.68 408.209 336.516 409.015 336.524C409.824 336.517 410.626 336.681 411.37 337.005C412.081 337.311 412.724 337.76 413.259 338.325C413.794 338.899 414.217 339.57 414.504 340.305C415.111 341.902 415.111 343.672 414.504 345.269C414.219 346.009 413.796 346.686 413.259 347.263C412.724 347.829 412.081 348.278 411.37 348.583C410.626 348.906 409.824 349.069 409.015 349.062V349.065ZM457.403 352.42V339.544L466.963 352.42H470.391V333.17H466.749V345.628L457.43 333.17H453.734V352.42H457.403Z" fill="white"/>
<path d="M21.4376 306.863C4.95978 306.863 0.812811 302.424 0.666016 295.27C0.666016 292.83 1.08805 290.831 1.67523 288.391L4.68454 275.221H8.83151C8.83151 278.229 13.7125 281.091 21.2908 281.091H32.4656C47.3653 281.091 48.7966 273.075 49.8058 268.489L51.5306 260.602L51.237 260.308L47.0901 265.903C43.2183 271.057 39.9338 273.057 27.603 273.057C18.8686 273.057 8.53792 272.763 8.53792 259.74C8.53792 250.715 17.1438 216.487 25.5845 209.755C31.1811 205.316 39.9154 203.17 54.5399 203.17H86.211C93.6609 203.17 98.6703 205.885 98.6703 212.763C98.6703 214.909 98.3767 218.358 97.9547 220.064L86.3578 268.764C80.9081 291.4 77.4767 306.863 46.668 306.863H21.4376ZM48.0993 244.698C47.8057 245.414 47.8057 246.129 47.8057 246.845C47.8057 248.844 48.9434 250.146 51.6774 250.146H54.1179L60.2833 224.65H57.274C53.5491 224.65 52.5398 226.942 51.549 230.96L48.0993 244.698Z" fill="white"/>
<path d="M109.296 287.108C99.4053 287.108 93.3867 281.954 93.3867 272.782C93.3867 267.628 96.8181 246.717 105.002 239.398C108.58 236.096 112.03 232.813 126.636 232.813H140.104C144.398 232.813 147.132 231.951 147.132 228.521C147.132 225.366 145.261 224.65 141.407 224.65H124.489C119.608 224.65 115.755 224.357 115.755 217.918C115.755 216.91 115.901 215.479 116.048 214.763L118.636 203.152H165.775C183.684 203.152 184.125 213.039 184.125 218.047C184.125 220.762 183.703 224.21 183.115 226.65L172.509 270.618C172.087 272.489 171.372 275.772 171.372 277.772C171.372 280.211 172.803 281.495 175.812 281.495L174.803 285.787H143.683C137.664 285.787 135.223 282.926 135.223 279.624C135.223 278.193 135.939 276.323 136.361 274.745L136.067 274.452L129.902 281.183C126.177 285.201 122.305 287.053 116.14 287.053H109.296V287.108ZM142.526 246.552H138.508C135.645 246.552 134.361 247.836 133.499 250.991C132.636 253.706 131.498 259.594 131.498 261.446C131.498 263.446 132.783 264.748 135.37 264.748H138.673L142.526 246.552Z" fill="white"/>
<path d="M213.319 287.107C196.988 287.107 181.795 285.97 181.795 269.92C181.795 268.782 187.098 221.366 202.566 208.893C211.448 201.867 230.659 201.867 232.513 201.867H243.541C260.312 201.867 269.615 206.159 269.615 220.485C269.615 226.649 267.028 240.259 263.45 243.983C259.303 248.568 258 248.568 242.678 248.568H222.476L221.613 252.145C221.32 253.576 221.044 253.723 221.044 255.154C221.044 259.593 225.632 261.317 232.788 261.317H241.247C253.706 261.317 254.294 259.739 257.303 255.869H261.175L257.45 272.634C254.44 286.098 247.284 287.107 232.806 287.107H213.319ZM225.925 234.243H234.384C234.806 232.096 235.816 229.235 235.816 226.795C235.816 224.924 234.384 223.365 231.944 223.365C229.65 223.365 228.219 224.649 227.21 228.813L225.925 234.243Z" fill="white"/>
<path d="M270.201 285.806C263.32 285.806 263.045 281.367 263.045 279.79C263.045 278.065 263.907 274.342 264.476 271.902L282.11 195.834C282.532 194.109 283.248 190.679 283.248 188.68C283.248 186.24 281.816 184.956 278.807 184.956L279.816 180.664H313.488C320.369 180.664 320.644 185.103 320.644 186.681C320.644 188.405 319.781 192.128 319.213 194.568L301.579 270.636C301.157 272.361 300.441 275.791 300.441 277.79C300.441 280.23 301.872 281.514 304.882 281.514L303.872 285.806H270.201Z" fill="white"/>
<path d="M373.674 273.774C371.527 283.092 367.087 287.091 352.609 287.091H335.416C319.36 287.091 310.332 284.229 310.332 270.325C310.332 267.61 317.213 220.616 328.957 210.16C333.966 205.574 337.122 203.135 354.609 203.135H385.987L382.684 217.314C380.959 224.761 377.528 226.045 372.371 226.045H365.49C358.463 226.045 355.031 228.191 353.306 235.932L350.15 250.111C349.728 252.111 349.581 252.826 349.581 254.128C349.581 259.576 353.306 261.282 358.316 261.282H364.188C370.628 261.282 372.078 258.567 373.509 256.128H377.803L373.674 273.774Z" fill="white"/>
<path d="M408.059 287.107C390.15 287.107 379.25 285.823 379.25 271.057C379.25 263.903 387.709 219.77 397.875 210.177C403.893 204.582 410.481 201.867 423.527 201.867H443.73C461.217 201.867 470.392 204.16 470.392 216.908C470.392 224.209 464.226 265.609 451.198 278.926C446.189 284.08 439.877 287.089 423.399 287.089H408.059V287.107ZM418.096 256.291C417.802 257.722 417.38 259.593 417.38 261.17C417.38 262.894 418.958 264.178 420.683 264.178C423.986 264.178 424.83 261.739 425.986 256.438L431.858 230.079C432.151 228.795 432.28 227.933 432.28 226.924C432.28 225.053 430.849 223.347 428.977 223.347C426.261 223.347 425.105 224.924 423.968 230.079L418.096 256.291Z" fill="white"/>
<path d="M511.647 0C645.323 41.1961 618.395 217.419 497.613 235.284L511.647 98.5574C494.434 160.067 396.741 161.535 394.293 77.8347C388.576 104.753 408.718 162.381 459.911 172.956C475.138 176.098 494.149 177.674 514.594 170.179C538.868 161.277 567.176 134.573 571.067 103.605C575.003 72.2713 571.548 25.6185 511.647 0Z" fill="white"/>
</svg>
