<svg width="392" height="137" viewBox="0 0 392 137" fill="none" xmlns="http://www.w3.org/2000/svg">
<path d="M111.059 72.4806C117.608 66.8762 122.25 61.4407 122.25 50.8926C122.25 40.4189 116.814 30.9831 95.3208 30.9831H78.1278C72.8438 30.9831 68.5791 35.2478 68.5791 40.5319V95.2207H89.3377V49.4573H95.3208C101.473 49.4573 103.963 57.1574 97.6412 59.3649C91.0933 61.6294 89.5078 72.8021 93.6596 79.5201L103.36 95.2207H125.081L111.059 72.4806Z" fill="#FF3310"/>
<path d="M302.302 95.2207H323.061V30.9829H302.302V95.2207Z" fill="#FF3310"/>
<path d="M264.56 31.0952L261.256 30.9822H248.5C243.216 30.9822 238.951 35.2469 238.951 40.5309V85.6711C238.951 90.9551 243.216 95.2012 248.5 95.2012H264.577C308.228 92.3704 308.228 33.9259 264.56 31.0952ZM261.221 76.7257H259.691V49.4564H261.221C281.637 49.4763 281.637 76.7257 261.221 76.7257Z" fill="#FF3310"/>
<path d="M161.182 49.4573H169.051V30.9831H161.182C113.078 30.9831 113.078 95.2207 161.182 95.2021V95.2207H169.051V76.7465H161.182V76.7266C140.762 76.708 140.762 49.4573 161.182 49.4573Z" fill="#FF3310"/>
<path d="M215.815 95.2207H236.574L217.532 39.664C213.116 26.7743 194.868 26.7743 190.452 39.664L171.429 95.2207H192.169L194.302 86.5212H213.682L215.815 95.2207ZM197.906 71.7456L202.737 52.005C202.983 50.6095 204.983 50.6095 205.227 52.005L210.059 71.7456H197.906Z" fill="#FF3310"/>
<path fill-rule="evenodd" clip-rule="evenodd" d="M19.0413 39.6633C23.4576 26.7737 41.6874 26.7737 46.1223 39.6633L65.1452 95.22H44.3862L42.2534 86.5207H22.873L20.7397 95.22H0L19.0413 39.6633Z" fill="#FF3310"/>
<path fill-rule="evenodd" clip-rule="evenodd" d="M345.423 39.6633C349.839 26.7737 368.069 26.7737 372.504 39.6633L391.527 95.22H370.768L368.635 86.5207H349.255L347.122 95.22H326.382L345.423 39.6633Z" fill="#FF3310"/>
<path d="M76.549 11.3432V18.0096C76.549 20.2614 76.0453 20.765 73.8824 20.765H64.1051C61.7348 20.765 61.2607 20.291 61.2607 17.98V3.69912C61.2607 1.41774 61.7348 1.00295 64.4013 1.00295H71.5121C73.8824 1.00295 74.4157 1.477 74.4157 3.55098V6.51381C74.4157 8.11374 74.5046 8.32114 75.4823 8.70631C76.4897 9.12111 76.549 9.23962 76.549 11.3432ZM69.9122 8.70631C71.601 8.70631 71.9269 8.32114 71.9269 6.15827C71.9269 3.90652 71.6307 3.49173 69.9122 3.49173H66.1494C63.9569 3.49173 63.7495 3.72875 63.7495 6.27679C63.7495 8.46928 63.9865 8.70631 66.0902 8.70631H69.9122ZM71.6899 18.2763C73.0528 18.2763 73.4084 18.1874 73.7046 17.8022C74.0009 17.3874 74.0602 16.7948 74.0602 14.5727C74.0602 11.3729 73.9417 11.1655 71.8381 11.1655H68.1049C66.2383 11.1655 65.9716 11.4321 65.9124 13.1506L65.8828 14.8394C65.8828 14.9579 65.8828 15.0468 65.8828 15.1653C65.8828 18.0096 66.0605 18.2763 67.9567 18.2763H71.6899Z" fill="white"/>
<path d="M91.3247 18.7799V13.832C91.3247 11.4321 91.0877 11.1655 88.9841 11.1655H85.5175C83.3547 11.1655 83.1473 11.4025 83.1473 13.832V17.6244C83.1473 20.2021 82.7325 20.765 80.8066 20.765C78.9104 20.765 78.4956 20.2317 78.4956 17.5652V10.8988C78.4956 9.35813 78.6734 9.03222 79.6808 8.61743C80.5992 8.26189 80.6585 8.11374 80.6585 6.36567V3.93615C80.6585 1.44737 81.1029 1.00295 83.5621 1.00295H88.7767C91.2951 1.00295 91.6802 1.41774 91.6802 3.99541V6.30642C91.6802 8.11374 91.7395 8.26189 92.4802 8.5878L92.895 8.76557C93.695 9.09148 93.7838 9.38776 93.7838 11.9654V18.7799C93.7838 20.4984 93.5468 20.9724 92.5691 20.9724C91.5913 20.9724 91.3247 20.4688 91.3247 18.7799ZM85.2509 3.49173C83.4139 3.49173 83.1769 3.84727 83.1769 6.42493C83.1769 8.43966 83.4139 8.73594 85.2805 8.73594H87.0582C88.9841 8.73594 89.1618 8.46928 89.1618 6.09902C89.1618 3.84727 88.8952 3.49173 87.1471 3.49173H85.2509Z" fill="white"/>
<path d="M110.85 3.69912V19.1947C110.85 20.4688 110.494 20.9724 109.606 20.9724C108.687 20.9724 108.361 20.4984 108.361 19.1651V5.68422C108.361 3.81764 108.006 3.52135 105.932 3.52135H100.954C99.1172 3.52135 98.7024 3.84727 98.7024 5.32868V6.42493C98.7024 7.87672 98.8505 8.32114 99.5023 8.5878L99.8282 8.73594C100.628 9.03222 100.836 9.47665 100.836 10.8395V17.8615C100.836 20.1428 100.362 20.765 98.5246 20.765C96.5691 20.765 96.184 20.2614 96.184 17.7726V4.02504C96.184 1.50663 96.6284 1.00295 98.9394 1.00295H107.858C110.317 1.00295 110.85 1.477 110.85 3.69912Z" fill="white"/>
<path d="M128.89 3.93615V18.1577C128.89 20.3502 128.387 20.765 125.957 20.765H116.061C114.165 20.765 113.602 20.1428 113.602 18.1281V3.52135C113.602 1.56589 114.195 1.00295 116.298 1.00295H126.283C128.446 1.00295 128.89 1.50663 128.89 3.93615ZM126.402 6.54344C126.402 4.94351 126.342 4.4102 126.135 4.05466C125.898 3.61024 125.335 3.49173 123.883 3.49173H118.372C116.328 3.49173 116.091 3.78801 116.091 6.06939C116.091 8.02486 116.15 8.23226 116.891 8.55817L117.395 8.7952C118.165 9.12111 118.224 9.26925 118.224 11.2543V15.6986C118.224 17.98 118.491 18.2466 120.861 18.2466H123.617C124.031 18.2466 124.268 18.2466 124.298 18.2466C126.105 18.2466 126.402 17.9207 126.402 15.7875V6.54344Z" fill="white"/>
<path d="M144.071 18.7799V13.832C144.071 11.4321 143.834 11.1655 141.731 11.1655H138.264C136.101 11.1655 135.894 11.4025 135.894 13.832V17.6244C135.894 20.2021 135.479 20.765 133.553 20.765C131.657 20.765 131.242 20.2317 131.242 17.5652V10.8988C131.242 9.35813 131.42 9.03222 132.427 8.61743C133.346 8.26189 133.405 8.11374 133.405 6.36567V3.93615C133.405 1.44737 133.849 1.00295 136.309 1.00295H141.523C144.042 1.00295 144.427 1.41774 144.427 3.99541V6.30642C144.427 8.11374 144.486 8.26189 145.227 8.5878L145.642 8.76557C146.441 9.09148 146.53 9.38776 146.53 11.9654V18.7799C146.53 20.4984 146.293 20.9724 145.316 20.9724C144.338 20.9724 144.071 20.4688 144.071 18.7799ZM137.997 3.49173C136.16 3.49173 135.923 3.84727 135.923 6.42493C135.923 8.43966 136.16 8.73594 138.027 8.73594H139.805C141.731 8.73594 141.908 8.46928 141.908 6.09902C141.908 3.84727 141.642 3.49173 139.894 3.49173H137.997Z" fill="white"/>
<path d="M153.552 18.6911C153.552 20.1428 152.841 20.765 151.241 20.765C149.612 20.765 148.93 20.1725 148.93 18.6911V2.42511C148.93 1.38811 149.316 0.914062 150.204 0.914062C151.034 0.914062 151.39 1.38811 151.39 2.48436V6.24716C151.39 7.99523 151.508 8.29151 152.278 8.61743L152.575 8.73594C153.315 9.06185 153.552 9.41739 153.552 10.3951V18.6911Z" fill="white"/>
<path d="M166.659 14.2172V15.7579C166.659 18.0096 166.896 18.2466 169.177 18.2466H172.259C173.681 18.2466 174.214 18.5725 174.214 19.491C174.214 20.4095 173.651 20.765 172.288 20.765H164.733C162.659 20.765 162.066 20.2317 162.066 18.3059V3.84727C162.066 1.53626 162.541 1.00295 164.733 1.00295H172.614C173.651 1.00295 174.184 1.44737 174.184 2.27697C174.184 3.13619 173.71 3.49173 172.614 3.49173H166.718C164.792 3.49173 164.555 3.81764 164.555 6.30642C164.555 8.29151 164.852 8.70631 166.303 8.70631H171.873C173.74 8.70631 174.214 8.94334 174.214 9.9507C174.214 10.6914 173.681 11.1951 172.881 11.1951H168.999C166.866 11.1951 166.659 11.4321 166.659 14.2172Z" fill="white"/>
<path d="M186.932 20.765H179.258C177.095 20.765 176.591 20.2614 176.591 18.0985V2.78065C176.591 1.44737 176.947 0.914062 177.836 0.914062C178.813 0.914062 179.08 1.35849 179.08 2.89916V6.06939L179.11 6.83973C179.11 8.14337 179.228 8.32114 180.176 8.70631C181.065 9.06185 181.243 9.38776 181.243 10.9581V15.906C181.243 18.0096 181.51 18.2763 183.643 18.2763H186.695C188.176 18.2763 188.709 18.6022 188.709 19.491C188.709 20.4095 188.235 20.765 186.932 20.765Z" fill="white"/>
<path d="M195.274 14.2172V15.7579C195.274 18.0096 195.512 18.2466 197.793 18.2466H200.874C202.296 18.2466 202.83 18.5725 202.83 19.491C202.83 20.4095 202.267 20.765 200.904 20.765H193.349C191.275 20.765 190.682 20.2317 190.682 18.3059V3.84727C190.682 1.53626 191.156 1.00295 193.349 1.00295H201.23C202.267 1.00295 202.8 1.44737 202.8 2.27697C202.8 3.13619 202.326 3.49173 201.23 3.49173H195.334C193.408 3.49173 193.171 3.81764 193.171 6.30642C193.171 8.29151 193.467 8.70631 194.919 8.70631H200.489C202.356 8.70631 202.83 8.94334 202.83 9.9507C202.83 10.6914 202.296 11.1951 201.496 11.1951H197.615C195.482 11.1951 195.274 11.4321 195.274 14.2172Z" fill="white"/>
<path d="M219.843 15.2838V18.4244C219.843 20.291 219.221 20.765 216.851 20.765H208.17C205.651 20.765 205.207 20.3502 205.207 17.9207V3.6695C205.207 1.53626 205.74 1.00295 207.903 1.00295H217.058C219.488 1.00295 219.873 1.44737 219.873 4.05466C219.873 4.11392 219.873 4.17318 219.873 4.23243L219.843 5.41757C219.843 6.6027 219.488 7.10638 218.629 7.10638C217.74 7.10638 217.414 6.66196 217.384 5.4472C217.325 3.69912 217.029 3.49173 214.658 3.49173H210.096C207.933 3.49173 207.666 3.81764 207.666 6.27679C207.666 7.90635 207.785 8.23226 208.555 8.5878C209.444 9.00259 209.622 9.15074 209.71 9.5359C209.799 9.89144 209.829 10.0988 209.829 11.284V14.9875C209.829 18.1281 209.977 18.3059 212.614 18.3059H214.658C217.206 18.3059 217.355 18.1281 217.355 15.1949C217.355 14.0098 217.71 13.5357 218.599 13.5357C219.488 13.5357 219.843 14.0098 219.843 15.2838Z" fill="white"/>
<path d="M231.789 10.8988V18.3651C231.789 20.1428 231.197 20.765 229.449 20.765C227.73 20.765 227.138 20.1725 227.138 18.3651V6.03976C227.138 3.63987 227.019 3.52135 224.501 3.52135H222.99C221.775 3.52135 221.242 3.13619 221.242 2.24734C221.242 1.38811 221.805 1.00295 223.049 1.00295H234.011C235.493 1.00295 235.967 1.32886 235.967 2.21771C235.967 3.22507 235.522 3.52135 233.804 3.52135H231.671C229.952 3.52135 229.656 3.87689 229.656 5.89162C229.656 5.95088 229.656 6.01013 229.656 6.09902V7.13601C229.686 7.9656 229.893 8.3804 230.486 8.61743L230.841 8.76557C231.641 9.09148 231.789 9.41739 231.789 10.8988Z" fill="white"/>
<path d="M253.278 10.9284V19.2244C253.278 20.4391 252.893 20.9724 252.004 20.9724C251.145 20.9724 250.76 20.4391 250.76 19.1947V13.8616C250.76 11.5506 250.493 11.2247 248.478 11.2247H244.715C242.938 11.2247 242.612 11.5803 242.612 13.4468V18.0689C242.612 20.1428 242.108 20.765 240.36 20.765C238.553 20.765 237.96 20.1428 237.96 18.3651V4.02504C237.96 1.477 238.405 1.00295 240.893 1.00295H248.123C250.611 1.00295 251.115 1.477 251.115 3.69912V6.57307C251.115 8.05449 251.234 8.32114 252.093 8.67668C253.159 9.09148 253.278 9.29888 253.278 10.9284ZM246.552 8.73594C248.36 8.73594 248.597 8.41003 248.597 6.15827C248.597 3.90652 248.3 3.52135 246.552 3.52135H242.256C240.716 3.52135 240.449 3.96578 240.449 6.27679C240.449 8.29151 240.775 8.73594 242.256 8.73594H246.552Z" fill="white"/>
<path d="M270.927 3.93615V18.1577C270.927 20.3502 270.423 20.765 267.994 20.765H258.098C256.202 20.765 255.639 20.1428 255.639 18.1281V3.52135C255.639 1.56589 256.231 1.00295 258.335 1.00295H268.32C270.483 1.00295 270.927 1.50663 270.927 3.93615ZM268.409 9.47665C268.409 7.72858 268.29 7.46192 267.401 7.16564C266.364 6.8101 266.246 6.63233 266.216 5.29905C266.186 3.78801 265.89 3.52135 263.935 3.52135H260.32C258.394 3.52135 258.098 3.84727 258.098 5.98051V15.5505C258.098 17.98 258.335 18.2763 260.231 18.2763H266.098C268.083 18.2763 268.409 17.9503 268.409 15.8764V9.47665Z" fill="white"/>
<path d="M288.359 3.69912V19.1947C288.359 20.4688 288.004 20.9724 287.115 20.9724C286.197 20.9724 285.871 20.4984 285.871 19.1651V5.68422C285.871 3.81764 285.515 3.52135 283.441 3.52135H278.464C276.627 3.52135 276.212 3.84727 276.212 5.32868V6.42493C276.212 7.87672 276.36 8.32114 277.012 8.5878L277.338 8.73594C278.138 9.03222 278.345 9.47665 278.345 10.8395V17.8615C278.345 20.1428 277.871 20.765 276.034 20.765C274.079 20.765 273.693 20.2614 273.693 17.7726V4.02504C273.693 1.50663 274.138 1.00295 276.449 1.00295H285.367C287.826 1.00295 288.359 1.477 288.359 3.69912Z" fill="white"/>
<path d="M295.734 18.6911C295.734 20.1428 295.023 20.765 293.423 20.765C291.793 20.765 291.112 20.1725 291.112 18.6911V2.42511C291.112 1.38811 291.497 0.914062 292.386 0.914062C293.215 0.914062 293.571 1.38811 293.571 2.48436V6.24716C293.571 7.99523 293.689 8.29151 294.46 8.61743L294.756 8.73594C295.497 9.06185 295.734 9.41739 295.734 10.3951V18.6911Z" fill="white"/>
<path d="M312.75 15.2838V18.4244C312.75 20.291 312.128 20.765 309.758 20.765H301.077C298.558 20.765 298.114 20.3502 298.114 17.9207V3.6695C298.114 1.53626 298.647 1.00295 300.81 1.00295H309.965C312.395 1.00295 312.78 1.44737 312.78 4.05466C312.78 4.11392 312.78 4.17318 312.78 4.23243L312.75 5.41757C312.75 6.6027 312.395 7.10638 311.535 7.10638C310.646 7.10638 310.321 6.66196 310.291 5.4472C310.232 3.69912 309.935 3.49173 307.565 3.49173H303.002C300.839 3.49173 300.573 3.81764 300.573 6.27679C300.573 7.90635 300.691 8.23226 301.462 8.5878C302.351 9.00259 302.528 9.15074 302.617 9.5359C302.706 9.89144 302.736 10.0988 302.736 11.284V14.9875C302.736 18.1281 302.884 18.3059 305.521 18.3059H307.565C310.113 18.3059 310.261 18.1281 310.261 15.1949C310.261 14.0098 310.617 13.5357 311.506 13.5357C312.395 13.5357 312.75 14.0098 312.75 15.2838Z" fill="white"/>
<path d="M330.266 11.4321V18.0985C330.266 20.3502 329.763 20.765 327.155 20.765H317.437C315.482 20.765 314.948 20.1428 314.948 17.8911V15.0171C314.948 13.9802 315.363 13.5061 316.222 13.5061C317.052 13.5061 317.437 13.9802 317.437 15.0764V16.0838C317.437 17.8911 317.793 18.2466 319.63 18.2466H323.6C325.378 18.2466 325.644 17.9503 325.644 15.8171V13.4172C325.644 11.4321 325.348 11.1951 323.096 11.1951H317.615C315.452 11.1951 314.948 10.6914 314.948 8.49891V3.63987C314.948 1.50663 315.482 1.00295 317.763 1.00295H327.363C329.644 1.00295 330.266 1.477 330.266 3.28433V5.32868C330.266 6.51381 329.851 7.07675 328.992 7.07675C328.192 7.07675 327.807 6.63233 327.748 5.62496L327.718 5.15091C327.629 3.72875 327.303 3.49173 325.496 3.49173H319.452C317.733 3.49173 317.437 3.90652 317.437 6.06939C317.437 8.41003 317.674 8.70631 319.748 8.70631H327.333C329.822 8.70631 330.266 9.09148 330.266 11.4321Z" fill="white"/>
<path d="M181.594 111.735V108.324L190.025 108.062V111.473H206.49L206.81 111.861L207.164 121.302C206.591 125.421 208.991 133.598 203.938 135.426C203.374 135.628 201.184 136.134 200.696 136.134H194.236V129.968C194.236 129.901 193.958 129.758 193.966 129.581C195.465 128.89 197.546 130.07 198.396 128.343L198.152 118.733L197.942 118.413L190.277 118.565C190.387 118.868 190.539 119.138 190.547 119.475C190.665 122.473 191.035 129.101 189.797 131.602C188.458 134.297 184.685 136.411 181.712 136.411H176.836L176.608 129.893C176.928 129.387 180.205 130.095 181.577 128.149C182.95 126.204 181.704 120.948 181.838 118.573H176.44C175.235 116.796 175.918 113.899 175.513 111.751H181.577L181.594 111.735Z" fill="white"/>
<path d="M113.08 136.926L112.819 130.105H118.487C118.563 130.105 119.573 129.313 119.683 129.195C121.519 127.039 119.034 122.196 121.932 121.725C124.189 121.354 131.28 122.693 131.786 119.467C131.929 118.566 131.996 116.621 131.407 115.938H112.027L111.766 108.855L140.452 109.024C139.997 113.816 142.094 119.568 139.281 123.788C136.839 127.452 132.645 127.527 128.61 127.595C128.181 129.195 128.484 130.534 127.97 132.202C127.398 134.071 126.219 135.276 124.408 136C123.768 136.253 121.409 136.918 120.854 136.918H113.08V136.926Z" fill="white"/>
<path d="M251.431 107.803L279.114 107.963C279.333 108.081 279.51 108.266 279.577 108.51C279.898 109.63 279.729 115.871 279.594 117.345C278.929 124.622 274.002 126.66 267.239 126.163C267.517 129.86 266.557 133.128 262.86 134.526C262.236 134.762 260.265 135.352 259.735 135.352H252.357L251.961 134.956V128.53C254.092 128.285 257.68 129.456 259.078 127.351C260.476 125.245 258.261 120.865 261.066 120.411C265.597 119.67 272.158 122.71 270.936 114.886H252.357C252.214 114.886 251.768 114.481 251.431 114.625V107.803Z" fill="white"/>
<path d="M157.877 136.666L156.808 108.713L165.222 108.629L166.316 129.061C167.411 129.061 168.953 127.57 168.953 126.568V121.186H176.069C177.097 127.907 175.589 134.064 168.338 135.917C167.445 136.144 165.137 136.666 164.346 136.666H157.886H157.877Z" fill="white"/>
<path d="M209.792 118.161C209.792 118.102 209.295 117.816 209.657 117.765L237.981 117.504C237.526 119.584 238.52 122.363 237.585 124.326H227.705C227.638 124.52 227.967 124.637 227.967 124.722V128.916C227.967 130.137 226.392 132.908 225.423 133.733C224.101 134.862 220.833 135.873 219.14 135.873H210.314L210.053 129.051C213.859 128.798 220.606 130.558 219.014 124.326C216.563 124.562 213.144 124.89 210.701 124.604C210.314 124.562 210.027 124.57 209.792 124.2C209.758 122.187 209.834 120.174 209.792 118.169V118.161Z" fill="white"/>
<path d="M141.016 136.667L140.755 129.845C146.617 130.417 146.39 127.217 146.305 122.618C146.297 122.063 146.053 121.557 146.036 121.052C145.909 116.992 145.876 112.925 145.522 108.874L153.953 108.705C154.441 109.042 154.138 116.133 154.188 117.388C154.374 122.366 156.201 130.645 151.957 134.292C150.988 135.125 147.628 136.658 146.432 136.658H141.033L141.016 136.667Z" fill="white"/>
<path d="M242.739 129.446C242.006 128.368 238.78 129.775 238.3 129.017L238.022 124.764L238.435 124.376C240.566 124.334 242.41 124.023 244.061 122.633C245.99 121.008 245.771 119.618 246.411 117.369L252.753 117.521C252.475 121.05 251.759 124.562 248.533 126.566V135.224L248.146 135.553C247.051 135.249 245.83 135.308 244.701 135.342C244.289 135.35 242.739 135.881 242.739 135.224V129.455V129.446Z" fill="white"/>
<path d="M227.453 108.062L227.714 115.146L209.53 115.415L209.269 108.324L227.453 108.062Z" fill="white"/>
<path d="M232.725 115.146L228.884 114.901L228.505 108.062H232.329L232.725 108.458V115.146Z" fill="white"/>
<path d="M237.467 108.062L237.618 114.901L233.778 115.146V108.719C233.778 108.635 233.416 108.349 233.517 108.062H237.467Z" fill="white"/>
<path fill-rule="evenodd" clip-rule="evenodd" d="M29.1562 61.7165H18.0996L27.0447 68.2151L23.6279 78.7304L32.5725 72.2318L41.5172 78.7304L38.1008 68.2151L47.0455 61.7165H35.9893L32.5725 51.2012L29.1562 61.7165Z" fill="#FEF006"/>
<path fill-rule="evenodd" clip-rule="evenodd" d="M355.538 61.7165H344.481L353.427 68.2151L350.01 78.7304L358.954 72.2318L367.899 78.7304L364.483 68.2151L373.427 61.7165H362.371L358.954 51.2012L355.538 61.7165Z" fill="#FEF006"/>
</svg>
