<svg width="392" height="137" viewBox="0 0 392 137" fill="none" xmlns="http://www.w3.org/2000/svg">
<path d="M111.059 72.1837C117.608 66.5793 122.25 61.1439 122.25 50.5957C122.25 40.122 116.814 30.6863 95.3208 30.6863H78.1278C72.8438 30.6863 68.5791 34.951 68.5791 40.235V94.9238H89.3377V49.1605H95.3208C101.473 49.1605 103.963 56.8605 97.6412 59.068C91.0933 61.3326 89.5078 72.5052 93.6596 79.2232L103.36 94.9238H125.081L111.059 72.1837Z" fill="white"/>
<path d="M302.302 94.9238H323.061V30.686H302.302V94.9238Z" fill="white"/>
<path d="M264.56 30.7983L261.256 30.6854H248.5C243.216 30.6854 238.951 34.9501 238.951 40.2341V85.3742C238.951 90.6582 243.216 94.9043 248.5 94.9043H264.577C308.228 92.0736 308.228 33.629 264.56 30.7983ZM261.221 76.4288H259.691V49.1595H261.221C281.637 49.1794 281.637 76.4288 261.221 76.4288Z" fill="white"/>
<path d="M161.182 49.1605H169.051V30.6863H161.182C113.078 30.6863 113.078 94.9238 161.182 94.9052V94.9238H169.051V76.4496H161.182V76.4298C140.762 76.4111 140.762 49.1605 161.182 49.1605Z" fill="white"/>
<path d="M215.815 94.9238H236.574L217.532 39.3672C213.116 26.4774 194.868 26.4774 190.452 39.3672L171.429 94.9238H192.169L194.302 86.2243H213.682L215.815 94.9238ZM197.906 71.4487L202.737 51.7081C202.983 50.3126 204.983 50.3126 205.227 51.7081L210.059 71.4487H197.906Z" fill="white"/>
<path fill-rule="evenodd" clip-rule="evenodd" d="M19.0413 39.3664C23.4576 26.4768 41.6874 26.4768 46.1223 39.3664L65.1452 94.9231H44.3862L42.2534 86.2238H22.873L20.7397 94.9231H0L19.0413 39.3664ZM29.156 61.4189H18.0994L27.0445 67.9176L23.6277 78.4329L32.5724 71.9342L41.517 78.4329L38.1007 67.9176L47.0453 61.4189H35.9891L32.5724 50.9036L29.156 61.4189Z" fill="white"/>
<path fill-rule="evenodd" clip-rule="evenodd" d="M345.423 39.3664C349.839 26.4768 368.069 26.4768 372.504 39.3664L391.527 94.9231H370.768L368.635 86.2238H349.255L347.122 94.9231H326.382L345.423 39.3664ZM355.538 61.4189H344.482L353.426 67.9176L350.01 78.4329L358.955 71.9342L367.899 78.4329L364.482 67.9176L373.427 61.4189H362.371L358.955 50.9036L355.538 61.4189Z" fill="white"/>
<path d="M76.549 11.0464V17.7127C76.549 19.9645 76.0453 20.4682 73.8824 20.4682H64.1051C61.7348 20.4682 61.2607 19.9941 61.2607 17.6831V3.40225C61.2607 1.12087 61.7348 0.706071 64.4013 0.706071H71.5121C73.8824 0.706071 74.4157 1.18013 74.4157 3.25411V6.21694C74.4157 7.81687 74.5046 8.02427 75.4823 8.40944C76.4897 8.82423 76.549 8.94274 76.549 11.0464ZM69.9122 8.40944C71.601 8.40944 71.9269 8.02427 71.9269 5.8614C71.9269 3.60965 71.6307 3.19485 69.9122 3.19485H66.1494C63.9569 3.19485 63.7495 3.43188 63.7495 5.97991C63.7495 8.17241 63.9865 8.40944 66.0902 8.40944H69.9122ZM71.6899 17.9794C73.0528 17.9794 73.4084 17.8905 73.7046 17.5053C74.0009 17.0905 74.0602 16.498 74.0602 14.2758C74.0602 11.076 73.9417 10.8686 71.8381 10.8686H68.1049C66.2383 10.8686 65.9716 11.1352 65.9124 12.8537L65.8828 14.5425C65.8828 14.661 65.8828 14.7499 65.8828 14.8684C65.8828 17.7127 66.0605 17.9794 67.9567 17.9794H71.6899Z" fill="white"/>
<path d="M91.3247 18.4831V13.5351C91.3247 11.1352 91.0877 10.8686 88.9841 10.8686H85.5175C83.3547 10.8686 83.1473 11.1056 83.1473 13.5351V17.3276C83.1473 19.9052 82.7325 20.4682 80.8066 20.4682C78.9104 20.4682 78.4956 19.9349 78.4956 17.2683V10.6019C78.4956 9.06126 78.6734 8.73535 79.6808 8.32055C80.5992 7.96501 80.6585 7.81687 80.6585 6.0688V3.63928C80.6585 1.1505 81.1029 0.706071 83.5621 0.706071H88.7767C91.2951 0.706071 91.6802 1.12087 91.6802 3.69853V6.00954C91.6802 7.81687 91.7395 7.96501 92.4802 8.29092L92.895 8.46869C93.695 8.7946 93.7838 9.09089 93.7838 11.6686V18.4831C93.7838 20.2015 93.5468 20.6756 92.5691 20.6756C91.5913 20.6756 91.3247 20.1719 91.3247 18.4831ZM85.2509 3.19485C83.4139 3.19485 83.1769 3.55039 83.1769 6.12805C83.1769 8.14278 83.4139 8.43906 85.2805 8.43906H87.0582C88.9841 8.43906 89.1618 8.17241 89.1618 5.80214C89.1618 3.55039 88.8952 3.19485 87.1471 3.19485H85.2509Z" fill="white"/>
<path d="M110.85 3.40225V18.8979C110.85 20.1719 110.494 20.6756 109.606 20.6756C108.687 20.6756 108.361 20.2015 108.361 18.8682V5.38735C108.361 3.52076 108.006 3.22448 105.932 3.22448H100.954C99.1172 3.22448 98.7024 3.55039 98.7024 5.03181V6.12805C98.7024 7.57984 98.8505 8.02427 99.5023 8.29092L99.8282 8.43906C100.628 8.73535 100.836 9.17977 100.836 10.5427V17.5646C100.836 19.846 100.362 20.4682 98.5246 20.4682C96.5691 20.4682 96.184 19.9645 96.184 17.4757V3.72816C96.184 1.20975 96.6284 0.706071 98.9394 0.706071H107.858C110.317 0.706071 110.85 1.18013 110.85 3.40225Z" fill="white"/>
<path d="M128.89 3.63928V17.8609C128.89 20.0534 128.387 20.4682 125.957 20.4682H116.061C114.165 20.4682 113.602 19.846 113.602 17.8312V3.22448C113.602 1.26901 114.195 0.706071 116.298 0.706071H126.283C128.446 0.706071 128.89 1.20975 128.89 3.63928ZM126.402 6.24657C126.402 4.64664 126.342 4.11333 126.135 3.75779C125.898 3.31336 125.335 3.19485 123.883 3.19485H118.372C116.328 3.19485 116.091 3.49113 116.091 5.77251C116.091 7.72798 116.15 7.93538 116.891 8.26129L117.395 8.49832C118.165 8.82423 118.224 8.97237 118.224 10.9575V15.4017C118.224 17.6831 118.491 17.9498 120.861 17.9498H123.617C124.031 17.9498 124.268 17.9498 124.298 17.9498C126.105 17.9498 126.402 17.6238 126.402 15.4906V6.24657Z" fill="white"/>
<path d="M144.071 18.4831V13.5351C144.071 11.1352 143.834 10.8686 141.731 10.8686H138.264C136.101 10.8686 135.894 11.1056 135.894 13.5351V17.3276C135.894 19.9052 135.479 20.4682 133.553 20.4682C131.657 20.4682 131.242 19.9349 131.242 17.2683V10.6019C131.242 9.06126 131.42 8.73535 132.427 8.32055C133.346 7.96501 133.405 7.81687 133.405 6.0688V3.63928C133.405 1.1505 133.849 0.706071 136.309 0.706071H141.523C144.042 0.706071 144.427 1.12087 144.427 3.69853V6.00954C144.427 7.81687 144.486 7.96501 145.227 8.29092L145.642 8.46869C146.441 8.7946 146.53 9.09089 146.53 11.6686V18.4831C146.53 20.2015 146.293 20.6756 145.316 20.6756C144.338 20.6756 144.071 20.1719 144.071 18.4831ZM137.997 3.19485C136.16 3.19485 135.923 3.55039 135.923 6.12805C135.923 8.14278 136.16 8.43906 138.027 8.43906H139.805C141.731 8.43906 141.908 8.17241 141.908 5.80214C141.908 3.55039 141.642 3.19485 139.894 3.19485H137.997Z" fill="white"/>
<path d="M153.552 18.3942C153.552 19.846 152.841 20.4682 151.241 20.4682C149.612 20.4682 148.93 19.8756 148.93 18.3942V2.12823C148.93 1.09124 149.316 0.617188 150.204 0.617188C151.034 0.617188 151.39 1.09124 151.39 2.18749V5.95029C151.39 7.69836 151.508 7.99464 152.278 8.32055L152.575 8.43906C153.315 8.76498 153.552 9.12052 153.552 10.0982V18.3942Z" fill="white"/>
<path d="M166.659 13.9203V15.461C166.659 17.7127 166.896 17.9498 169.177 17.9498H172.259C173.681 17.9498 174.214 18.2757 174.214 19.1941C174.214 20.1126 173.651 20.4682 172.288 20.4682H164.733C162.659 20.4682 162.066 19.9349 162.066 18.009V3.55039C162.066 1.23938 162.541 0.706071 164.733 0.706071H172.614C173.651 0.706071 174.184 1.1505 174.184 1.98009C174.184 2.83931 173.71 3.19485 172.614 3.19485H166.718C164.792 3.19485 164.555 3.52076 164.555 6.00954C164.555 7.99464 164.852 8.40944 166.303 8.40944H171.873C173.74 8.40944 174.214 8.64646 174.214 9.65383C174.214 10.3945 173.681 10.8982 172.881 10.8982H168.999C166.866 10.8982 166.659 11.1352 166.659 13.9203Z" fill="white"/>
<path d="M186.932 20.4682H179.258C177.095 20.4682 176.591 19.9645 176.591 17.8016V2.48377C176.591 1.1505 176.947 0.617188 177.836 0.617188C178.813 0.617188 179.08 1.06161 179.08 2.60228V5.77251L179.11 6.54285C179.11 7.8465 179.228 8.02427 180.176 8.40944C181.065 8.76498 181.243 9.09089 181.243 10.6612V15.6091C181.243 17.7127 181.51 17.9794 183.643 17.9794H186.695C188.176 17.9794 188.709 18.3053 188.709 19.1941C188.709 20.1126 188.235 20.4682 186.932 20.4682Z" fill="white"/>
<path d="M195.274 13.9203V15.461C195.274 17.7127 195.512 17.9498 197.793 17.9498H200.874C202.296 17.9498 202.83 18.2757 202.83 19.1941C202.83 20.1126 202.267 20.4682 200.904 20.4682H193.349C191.275 20.4682 190.682 19.9349 190.682 18.009V3.55039C190.682 1.23938 191.156 0.706071 193.349 0.706071H201.23C202.267 0.706071 202.8 1.1505 202.8 1.98009C202.8 2.83931 202.326 3.19485 201.23 3.19485H195.334C193.408 3.19485 193.171 3.52076 193.171 6.00954C193.171 7.99464 193.467 8.40944 194.919 8.40944H200.489C202.356 8.40944 202.83 8.64646 202.83 9.65383C202.83 10.3945 202.296 10.8982 201.496 10.8982H197.615C195.482 10.8982 195.274 11.1352 195.274 13.9203Z" fill="white"/>
<path d="M219.843 14.9869V18.1275C219.843 19.9941 219.221 20.4682 216.851 20.4682H208.17C205.651 20.4682 205.207 20.0534 205.207 17.6238V3.37262C205.207 1.23938 205.74 0.706071 207.903 0.706071H217.058C219.488 0.706071 219.873 1.1505 219.873 3.75779C219.873 3.81705 219.873 3.8763 219.873 3.93556L219.843 5.12069C219.843 6.30582 219.488 6.80951 218.629 6.80951C217.74 6.80951 217.414 6.36508 217.384 5.15032C217.325 3.40225 217.029 3.19485 214.658 3.19485H210.096C207.933 3.19485 207.666 3.52076 207.666 5.97991C207.666 7.60947 207.785 7.93538 208.555 8.29092C209.444 8.70572 209.622 8.85386 209.71 9.23903C209.799 9.59457 209.829 9.80197 209.829 10.9871V14.6906C209.829 17.8312 209.977 18.009 212.614 18.009H214.658C217.206 18.009 217.355 17.8312 217.355 14.898C217.355 13.7129 217.71 13.2389 218.599 13.2389C219.488 13.2389 219.843 13.7129 219.843 14.9869Z" fill="white"/>
<path d="M231.789 10.6019V18.0683C231.789 19.846 231.197 20.4682 229.449 20.4682C227.73 20.4682 227.138 19.8756 227.138 18.0683V5.74289C227.138 3.34299 227.019 3.22448 224.501 3.22448H222.99C221.775 3.22448 221.242 2.83931 221.242 1.95046C221.242 1.09124 221.805 0.706071 223.049 0.706071H234.011C235.493 0.706071 235.967 1.03198 235.967 1.92083C235.967 2.9282 235.522 3.22448 233.804 3.22448H231.671C229.952 3.22448 229.656 3.58002 229.656 5.59474C229.656 5.654 229.656 5.71326 229.656 5.80214V6.83913C229.686 7.66873 229.893 8.08352 230.486 8.32055L230.841 8.46869C231.641 8.7946 231.789 9.12052 231.789 10.6019Z" fill="white"/>
<path d="M253.278 10.6316V18.9275C253.278 20.1423 252.893 20.6756 252.004 20.6756C251.145 20.6756 250.76 20.1423 250.76 18.8979V13.5648C250.76 11.2538 250.493 10.9278 248.478 10.9278H244.715C242.938 10.9278 242.612 11.2834 242.612 13.15V17.772C242.612 19.846 242.108 20.4682 240.36 20.4682C238.553 20.4682 237.96 19.846 237.96 18.0683V3.72816C237.96 1.18013 238.405 0.706071 240.893 0.706071H248.123C250.611 0.706071 251.115 1.18013 251.115 3.40225V6.2762C251.115 7.75761 251.234 8.02427 252.093 8.37981C253.159 8.7946 253.278 9.002 253.278 10.6316ZM246.552 8.43906C248.36 8.43906 248.597 8.11315 248.597 5.8614C248.597 3.60965 248.3 3.22448 246.552 3.22448H242.256C240.716 3.22448 240.449 3.6689 240.449 5.97991C240.449 7.99464 240.775 8.43906 242.256 8.43906H246.552Z" fill="white"/>
<path d="M270.927 3.63928V17.8609C270.927 20.0534 270.423 20.4682 267.994 20.4682H258.098C256.202 20.4682 255.639 19.846 255.639 17.8312V3.22448C255.639 1.26901 256.231 0.706071 258.335 0.706071H268.32C270.483 0.706071 270.927 1.20975 270.927 3.63928ZM268.409 9.17977C268.409 7.4317 268.29 7.16505 267.401 6.86876C266.364 6.51322 266.246 6.33545 266.216 5.00218C266.186 3.49113 265.89 3.22448 263.935 3.22448H260.32C258.394 3.22448 258.098 3.55039 258.098 5.68363V15.2536C258.098 17.6831 258.335 17.9794 260.231 17.9794H266.098C268.083 17.9794 268.409 17.6535 268.409 15.5795V9.17977Z" fill="white"/>
<path d="M288.359 3.40225V18.8979C288.359 20.1719 288.004 20.6756 287.115 20.6756C286.197 20.6756 285.871 20.2015 285.871 18.8682V5.38735C285.871 3.52076 285.515 3.22448 283.441 3.22448H278.464C276.627 3.22448 276.212 3.55039 276.212 5.03181V6.12805C276.212 7.57984 276.36 8.02427 277.012 8.29092L277.338 8.43906C278.138 8.73535 278.345 9.17977 278.345 10.5427V17.5646C278.345 19.846 277.871 20.4682 276.034 20.4682C274.079 20.4682 273.693 19.9645 273.693 17.4757V3.72816C273.693 1.20975 274.138 0.706071 276.449 0.706071H285.367C287.826 0.706071 288.359 1.18013 288.359 3.40225Z" fill="white"/>
<path d="M295.734 18.3942C295.734 19.846 295.023 20.4682 293.423 20.4682C291.793 20.4682 291.112 19.8756 291.112 18.3942V2.12823C291.112 1.09124 291.497 0.617188 292.386 0.617188C293.215 0.617188 293.571 1.09124 293.571 2.18749V5.95029C293.571 7.69836 293.689 7.99464 294.46 8.32055L294.756 8.43906C295.497 8.76498 295.734 9.12052 295.734 10.0982V18.3942Z" fill="white"/>
<path d="M312.75 14.9869V18.1275C312.75 19.9941 312.128 20.4682 309.758 20.4682H301.077C298.558 20.4682 298.114 20.0534 298.114 17.6238V3.37262C298.114 1.23938 298.647 0.706071 300.81 0.706071H309.965C312.395 0.706071 312.78 1.1505 312.78 3.75779C312.78 3.81705 312.78 3.8763 312.78 3.93556L312.75 5.12069C312.75 6.30582 312.395 6.80951 311.535 6.80951C310.646 6.80951 310.321 6.36508 310.291 5.15032C310.232 3.40225 309.935 3.19485 307.565 3.19485H303.002C300.839 3.19485 300.573 3.52076 300.573 5.97991C300.573 7.60947 300.691 7.93538 301.462 8.29092C302.351 8.70572 302.528 8.85386 302.617 9.23903C302.706 9.59457 302.736 9.80197 302.736 10.9871V14.6906C302.736 17.8312 302.884 18.009 305.521 18.009H307.565C310.113 18.009 310.261 17.8312 310.261 14.898C310.261 13.7129 310.617 13.2389 311.506 13.2389C312.395 13.2389 312.75 13.7129 312.75 14.9869Z" fill="white"/>
<path d="M330.266 11.1352V17.8016C330.266 20.0534 329.763 20.4682 327.155 20.4682H317.437C315.482 20.4682 314.948 19.846 314.948 17.5942V14.7203C314.948 13.6833 315.363 13.2092 316.222 13.2092C317.052 13.2092 317.437 13.6833 317.437 14.7795V15.7869C317.437 17.5942 317.793 17.9498 319.63 17.9498H323.6C325.378 17.9498 325.644 17.6535 325.644 15.5202V13.1203C325.644 11.1352 325.348 10.8982 323.096 10.8982H317.615C315.452 10.8982 314.948 10.3945 314.948 8.20204V3.34299C314.948 1.20975 315.482 0.706071 317.763 0.706071H327.363C329.644 0.706071 330.266 1.18013 330.266 2.98745V5.03181C330.266 6.21694 329.851 6.77988 328.992 6.77988C328.192 6.77988 327.807 6.33545 327.748 5.32809L327.718 4.85404C327.629 3.43188 327.303 3.19485 325.496 3.19485H319.452C317.733 3.19485 317.437 3.60965 317.437 5.77251C317.437 8.11315 317.674 8.40944 319.748 8.40944H327.333C329.822 8.40944 330.266 8.7946 330.266 11.1352Z" fill="white"/>
<path d="M181.594 111.438V108.027L190.025 107.766V111.177H206.49L206.81 111.564L207.164 121.005C206.591 125.124 208.991 133.302 203.938 135.129C203.374 135.331 201.184 135.837 200.696 135.837H194.236V129.672C194.236 129.604 193.958 129.461 193.966 129.284C195.465 128.594 197.546 129.773 198.396 128.046L198.152 118.436L197.942 118.116L190.277 118.268C190.387 118.571 190.539 118.841 190.547 119.178C190.665 122.176 191.035 128.804 189.797 131.306C188.458 134.001 184.685 136.115 181.712 136.115H176.836L176.608 129.596C176.928 129.09 180.205 129.798 181.577 127.852C182.95 125.907 181.704 120.652 181.838 118.276H176.44C175.235 116.499 175.918 113.602 175.513 111.455H181.577L181.594 111.438Z" fill="white"/>
<path d="M113.08 136.628L112.819 129.806H118.487C118.563 129.806 119.573 129.014 119.683 128.896C121.519 126.74 119.034 121.897 121.932 121.426C124.189 121.055 131.28 122.394 131.786 119.169C131.929 118.267 131.996 116.322 131.407 115.64H112.027L111.766 108.557L140.452 108.725C139.997 113.517 142.094 119.27 139.281 123.489C136.839 127.153 132.645 127.229 128.61 127.296C128.181 128.896 128.484 130.235 127.97 131.903C127.398 133.773 126.219 134.977 124.408 135.701C123.768 135.954 121.409 136.619 120.854 136.619H113.08V136.628Z" fill="white"/>
<path d="M251.431 107.506L279.114 107.666C279.333 107.784 279.51 107.969 279.577 108.213C279.898 109.333 279.729 115.574 279.594 117.048C278.929 124.325 274.002 126.363 267.239 125.866C267.517 129.563 266.557 132.831 262.86 134.229C262.236 134.465 260.265 135.055 259.735 135.055H252.357L251.961 134.659V128.233C254.092 127.989 257.68 129.159 259.078 127.054C260.476 124.948 258.261 120.569 261.066 120.114C265.597 119.373 272.158 122.413 270.936 114.589H252.357C252.214 114.589 251.768 114.185 251.431 114.328V107.506Z" fill="white"/>
<path d="M157.877 136.369L156.808 108.416L165.222 108.332L166.316 128.764C167.411 128.764 168.953 127.273 168.953 126.271V120.889H176.069C177.097 127.61 175.589 133.767 168.338 135.62C167.445 135.847 165.137 136.369 164.346 136.369H157.886H157.877Z" fill="white"/>
<path d="M209.792 117.864C209.792 117.805 209.295 117.519 209.657 117.468L237.981 117.207C237.526 119.287 238.52 122.067 237.585 124.029H227.705C227.638 124.223 227.967 124.341 227.967 124.425V128.619C227.967 129.84 226.392 132.611 225.423 133.437C224.101 134.565 220.833 135.576 219.14 135.576H210.314L210.053 128.754C213.859 128.501 220.606 130.261 219.014 124.029C216.563 124.265 213.144 124.593 210.701 124.307C210.314 124.265 210.027 124.273 209.792 123.903C209.758 121.89 209.834 119.877 209.792 117.872V117.864Z" fill="white"/>
<path d="M141.016 136.368L140.755 129.546C146.617 130.119 146.39 126.918 146.305 122.32C146.297 121.764 146.053 121.258 146.036 120.753C145.909 116.694 145.876 112.626 145.522 108.575L153.953 108.406C154.441 108.743 154.138 115.835 154.188 117.089C154.374 122.067 156.201 130.346 151.957 133.993C150.988 134.827 147.628 136.359 146.432 136.359H141.033L141.016 136.368Z" fill="white"/>
<path d="M242.739 129.15C242.006 128.072 238.78 129.478 238.3 128.72L238.022 124.467L238.435 124.079C240.566 124.037 242.41 123.726 244.061 122.336C245.99 120.711 245.771 119.321 246.411 117.072L252.753 117.224C252.475 120.753 251.759 124.265 248.533 126.269V134.927L248.146 135.256C247.051 134.952 245.83 135.011 244.701 135.045C244.289 135.054 242.739 135.584 242.739 134.927V129.158V129.15Z" fill="white"/>
<path d="M227.453 107.766L227.714 114.849L209.53 115.118L209.269 108.027L227.453 107.766Z" fill="white"/>
<path d="M232.725 114.849L228.884 114.604L228.505 107.766H232.329L232.725 108.161V114.849Z" fill="white"/>
<path d="M237.467 107.766L237.618 114.604L233.778 114.849V108.423C233.778 108.338 233.416 108.052 233.517 107.766H237.467Z" fill="white"/>
</svg>
