<svg width="120" height="81" viewBox="0 0 120 81" fill="none" xmlns="http://www.w3.org/2000/svg">
<path fill-rule="evenodd" clip-rule="evenodd" d="M42.0559 9.5C42.0559 8.94772 42.5036 8.5 43.0559 8.5C43.6082 8.5 44.0559 8.94772 44.0559 9.5V11.5C44.0559 12.0523 43.6082 12.5 43.0559 12.5C42.5036 12.5 42.0559 12.0523 42.0559 11.5V9.5Z" fill="white"/>
<path fill-rule="evenodd" clip-rule="evenodd" d="M42.0559 17.5C42.0559 16.9477 42.5036 16.5 43.0559 16.5C43.6082 16.5 44.0559 16.9477 44.0559 17.5V19.5C44.0559 20.0523 43.6082 20.5 43.0559 20.5C42.5036 20.5 42.0559 20.0523 42.0559 19.5V17.5Z" fill="white"/>
<path fill-rule="evenodd" clip-rule="evenodd" d="M38.0559 15.5C37.5036 15.5 37.0559 15.0523 37.0559 14.5C37.0559 13.9477 37.5036 13.5 38.0559 13.5H40.0559C40.6082 13.5 41.0559 13.9477 41.0559 14.5C41.0559 15.0523 40.6082 15.5 40.0559 15.5H38.0559Z" fill="white"/>
<path fill-rule="evenodd" clip-rule="evenodd" d="M46.0559 15.5C45.5036 15.5 45.0559 15.0523 45.0559 14.5C45.0559 13.9477 45.5036 13.5 46.0559 13.5H48.0559C48.6082 13.5 49.0559 13.9477 49.0559 14.5C49.0559 15.0523 48.6082 15.5 48.0559 15.5H46.0559Z" fill="white"/>
<path fill-rule="evenodd" clip-rule="evenodd" d="M86.1111 2.5H33.8889C31.1275 2.5 28.8889 4.73858 28.8889 7.5V21.5C28.8889 24.2614 31.1275 26.5 33.8889 26.5H86.1111C88.8725 26.5 91.1111 24.2614 91.1111 21.5V7.5C91.1111 4.73858 88.8725 2.5 86.1111 2.5ZM33.8889 0.5C30.0229 0.5 26.8889 3.63401 26.8889 7.5V21.5C26.8889 25.366 30.0229 28.5 33.8889 28.5H86.1111C89.9771 28.5 93.1111 25.366 93.1111 21.5V7.5C93.1111 3.63401 89.9771 0.5 86.1111 0.5H33.8889Z" fill="white"/>
<path fill-rule="evenodd" clip-rule="evenodd" d="M73.0784 19.5V16.5C73.0784 15.6716 72.4068 15 71.5784 15C70.7499 15 70.0784 15.6716 70.0784 16.5V19.5C70.0784 20.3284 70.7499 21 71.5784 21C72.4068 21 73.0784 20.3284 73.0784 19.5ZM71.5784 13C69.6454 13 68.0784 14.567 68.0784 16.5V19.5C68.0784 21.433 69.6454 23 71.5784 23C73.5114 23 75.0784 21.433 75.0784 19.5V16.5C75.0784 14.567 73.5114 13 71.5784 13Z" fill="white"/>
<path fill-rule="evenodd" clip-rule="evenodd" d="M83.4446 19.5V16.5C83.4446 15.6716 82.773 15 81.9446 15C81.1162 15 80.4446 15.6716 80.4446 16.5V19.5C80.4446 20.3284 81.1162 21 81.9446 21C82.773 21 83.4446 20.3284 83.4446 19.5ZM81.9446 13C80.0116 13 78.4446 14.567 78.4446 16.5V19.5C78.4446 21.433 80.0116 23 81.9446 23C83.8776 23 85.4446 21.433 85.4446 19.5V16.5C85.4446 14.567 83.8776 13 81.9446 13Z" fill="white"/>
<path fill-rule="evenodd" clip-rule="evenodd" d="M36.5559 14.5C36.5559 18.0899 39.4661 21 43.0559 21C46.6458 21 49.5559 18.0899 49.5559 14.5C49.5559 10.9101 46.6458 8 43.0559 8C39.4661 8 36.5559 10.9101 36.5559 14.5ZM43.0559 6C38.3615 6 34.5559 9.80558 34.5559 14.5C34.5559 19.1944 38.3615 23 43.0559 23C47.7503 23 51.5559 19.1944 51.5559 14.5C51.5559 9.80558 47.7503 6 43.0559 6Z" fill="white"/>
<path fill-rule="evenodd" clip-rule="evenodd" d="M85.8455 6.70508H67.2639V9.46866H85.8455V6.70508ZM66.2639 5.70508V10.4687H86.8455V5.70508H66.2639Z" fill="white"/>
<path d="M44.0559 14.5C44.0559 15.0523 43.6082 15.5 43.0559 15.5C42.5036 15.5 42.0559 15.0523 42.0559 14.5C42.0559 13.9477 42.5036 13.5 43.0559 13.5C43.6082 13.5 44.0559 13.9477 44.0559 14.5Z" fill="white"/>
</svg>
