<svg width="466" height="159" viewBox="0 0 466 159" fill="none" xmlns="http://www.w3.org/2000/svg">
<path d="M68.1099 41.884C70.648 44.3488 74.1091 45.8726 77.9263 45.8726L138.24 45.8796L125.214 7.01937C123.435 2.89106 119.261 0 114.248 0C109.256 0 105.019 2.98552 103.306 7.09678L98.9642 19.7554L98.9471 0.653875L77.8844 0.643277C74.0773 0.643277 70.6549 2.1289 68.1343 4.58634L68.1417 0.660326H46.5758C42.559 0.660326 38.9058 2.37312 36.3507 5.06511V0.643277L16.0248 0.660787C7.25023 0.653414 0.0525312 7.51242 0.0419328 16.581C0.0419328 20.7793 1.87684 24.5869 4.58266 27.4079L0 27.4005V45.8726L20.4789 45.8689C26.2329 45.862 31.9348 42.3904 33.9167 38.2307L33.9762 38.0598C36.2659 42.6844 41.0444 45.8726 46.5749 45.8726L68.1095 45.8689V41.884" fill="white"/>
<path d="M3.16382 42.7121L20.4332 42.6946C27.4987 42.6946 33.2246 36.9862 33.2246 29.9526C33.2246 22.9051 27.4987 17.1963 20.4332 17.1963L15.9483 17.2207C15.5948 17.2207 15.3082 16.9308 15.3082 16.5742C15.3082 16.2175 15.5948 15.9272 15.9483 15.9272L33.1863 15.9309L33.1932 10.5229H15.9446C12.6098 10.5229 9.89657 13.232 9.89657 16.5604C9.89657 19.8919 12.6093 22.5904 15.9446 22.5904L20.4507 22.6498C24.4989 22.6498 27.7747 25.9146 27.7747 29.9424C27.7747 33.9731 24.4993 37.2452 20.4507 37.2452H3.17073L3.16382 42.7121" fill="#0060A8"/>
<path d="M3.17081 35.9756H20.4508C23.7962 35.9756 26.502 33.2771 26.502 29.9419C26.502 26.6103 23.7962 23.915 20.4508 23.915L15.9446 23.8662C11.9034 23.8662 8.62437 20.5978 8.62437 16.5598C8.62437 12.5328 11.9034 9.26391 15.9446 9.26391L33.1933 9.26023L33.1864 3.83154H15.9483C8.89026 3.83154 3.15698 9.53348 3.15698 16.574C3.15698 23.6146 8.89026 29.3198 15.9483 29.3198L20.4089 29.3267C20.748 29.3267 21.0346 29.6032 21.0346 29.9524C21.0346 30.2953 20.748 30.5713 20.4089 30.5713L3.16389 30.5851L3.17081 35.9756" fill="#0060A8"/>
<path d="M46.6137 37.2796C43.6176 37.2796 41.1633 34.8918 41.1633 31.8431V14.5917C41.1633 11.6587 43.6176 9.2464 46.6137 9.2464L65.0471 9.24963V3.83154H46.6137C40.615 3.83154 35.7559 8.67317 35.7559 14.6511V31.8436C35.7559 37.822 40.615 42.6705 46.6137 42.6705L64.9701 42.6779L64.9664 37.2732L46.6137 37.2796" fill="#0060A8"/>
<path d="M42.4847 14.6511C42.4847 12.3651 44.3238 10.5122 46.6135 10.5122H65.0469V15.9377H49.1654C47.8931 15.9377 47.8756 17.1998 47.8756 17.1998H61.125V22.6008H42.4783L42.4847 14.6511" fill="#0060A8"/>
<path d="M46.6137 35.9655C44.3309 35.9655 42.478 34.1232 42.478 31.8436V23.887H61.1248V29.2991H47.8754C47.8929 30.5713 49.1652 30.5778 49.1652 30.5778H64.9697L64.966 35.9581L46.6137 35.9655" fill="#0060A8"/>
<path d="M77.9645 37.2658C74.979 37.2658 72.5391 34.8328 72.5391 31.8431V14.6507C72.5391 11.6582 74.9615 9.24594 77.9502 9.24594H95.8039V3.83154H77.9088C71.9128 3.83154 67.0537 8.67317 67.0537 14.6511V31.8436C67.0537 37.822 71.9548 42.6705 77.9502 42.6705L95.8039 42.6779V17.1998H80.4607V22.6008H90.3817V37.2658H77.9645" fill="#0060A8"/>
<path d="M73.8115 31.8431C73.8115 34.1338 75.6643 35.9968 77.9504 35.9968H89.1022V23.88H80.4742V29.299H83.6763L83.6864 30.5713H80.4986C79.8028 30.5713 79.2332 29.9949 79.2332 29.299L79.2047 17.1961C79.2047 17.1961 79.201 15.9377 80.4843 15.9064H95.8101L95.8031 10.5085L77.9495 10.5122C75.6634 10.5122 73.8105 12.3651 73.8105 14.6511V31.8431" fill="#0060A8"/>
<path d="M112.58 10.4315C112.821 9.74311 113.475 9.24683 114.247 9.24683C115.021 9.24683 115.681 9.74311 115.915 10.4315L124.582 36.035H111.891L111.905 30.0119H116.146L114.237 24.338L108.018 42.6733H101.621L112.58 10.4315" fill="#0060A8"/>
<path d="M126.329 37.2659H111.913V42.6734H133.852L122.442 8.91428C121.442 5.6214 118.146 3.19897 114.244 3.19897C110.336 3.19897 107.05 5.6108 106.043 8.90091L94.5276 42.6739H100.271L111.451 9.84463C111.905 8.7576 112.976 7.99176 114.234 7.99176C115.486 7.99176 116.562 8.7576 117.02 9.83772L126.329 37.2659" fill="#0060A8"/>
<path fill-rule="evenodd" clip-rule="evenodd" d="M132.42 7.01285C131.699 7.72939 130.738 8.12799 129.717 8.12799C128.699 8.12799 127.742 7.72939 127.025 7.01331C126.298 6.28985 125.9 5.33554 125.9 4.31487C125.9 2.2173 127.616 0.514648 129.717 0.514648C130.738 0.514648 131.699 0.91324 132.42 1.6261C133.139 2.34955 133.542 3.30064 133.542 4.3144C133.542 5.33508 133.139 6.28939 132.42 7.01285ZM127.399 1.99981C126.774 2.61866 126.438 3.44349 126.438 4.31394C126.438 5.19131 126.773 6.01291 127.399 6.63131C128.021 7.25016 128.846 7.58931 129.717 7.58931C131.532 7.58931 133.007 6.1212 133.007 4.31394C133.007 3.44349 132.664 2.61866 132.045 1.99981C131.423 1.38141 130.598 1.04549 129.717 1.04549C128.846 1.04549 128.022 1.38095 127.399 1.99981Z" fill="white"/>
<path fill-rule="evenodd" clip-rule="evenodd" d="M128.738 6.43224V4.63558H129.829L130.986 6.43224H131.654L130.465 4.60056C130.471 4.59924 130.478 4.59782 130.486 4.59629C130.719 4.54959 131.472 4.39836 131.472 3.4435C131.472 3.05182 131.339 2.69884 131.021 2.4643C130.698 2.22039 130.358 2.21645 129.784 2.2098C129.774 2.20969 129.765 2.20958 129.755 2.20947H128.186V6.43224H128.738ZM129.86 4.17064H128.738V2.67811H129.829C129.84 2.67811 129.852 2.6781 129.863 2.67809C130.173 2.67786 130.441 2.67766 130.654 2.85644C130.895 3.05228 130.906 3.33521 130.906 3.44718C130.906 3.75453 130.766 4.03424 130.375 4.1287C130.207 4.17064 130.039 4.17064 129.86 4.17064Z" fill="white"/>
<path d="M59.7802 118.256L46.7846 83.4496C46.5422 82.8438 46.0273 82.2985 45.2397 81.8138C44.452 81.3291 43.5736 81.0868 42.6042 81.0868C41.756 81.0868 40.8775 81.3291 39.9687 81.8138C39.06 82.2985 38.5147 82.8438 38.3329 83.4496L12.16 158.151H0.0732422L28.1546 78.9057C28.6393 77.6334 29.2754 76.4217 30.063 75.2706C30.8506 74.0589 31.82 72.9986 32.9711 72.0899C34.1828 71.1205 35.5763 70.3632 37.1515 69.8179C38.7267 69.2726 40.5443 69 42.6042 69C44.6641 69 46.4514 69.2726 47.966 69.8179C49.4806 70.3632 50.8135 71.1205 51.9646 72.0899C53.1158 72.9986 54.0851 74.0589 54.8727 75.2706C55.7209 76.4217 56.448 77.6334 57.0538 78.9057L59.7802 84.3584L62.5065 78.9057C63.1729 77.6334 63.9 76.4217 64.6876 75.2706C65.5358 74.0589 66.5051 72.9986 67.5957 72.0899C68.7468 71.1205 70.0797 70.3632 71.5943 69.8179C73.1089 69.2726 74.8962 69 76.9561 69C78.9554 69 80.7427 69.2726 82.3179 69.8179C83.9537 70.3632 85.3472 71.1205 86.4983 72.0899C87.71 72.9986 88.7097 74.0589 89.4973 75.2706C90.3455 76.4217 90.9816 77.6334 91.4057 78.9057L119.487 158.151H107.4L81.2274 83.4496C81.0456 82.8438 80.5004 82.2985 79.5916 81.8138C78.6828 81.3291 77.8043 81.0868 76.9561 81.0868C75.9867 81.0868 75.1083 81.3291 74.3207 81.8138C73.533 82.2985 73.0181 82.8438 72.7757 83.4496L59.7802 118.256ZM59.7802 158.151L42.6042 112.349L27.5184 158.151H15.4316L40.3322 85.7216C40.4534 85.3581 40.7563 85.0551 41.241 84.8128C41.7257 84.5099 42.1801 84.3584 42.6042 84.3584C43.0283 84.3584 43.4524 84.5099 43.8765 84.8128C44.3612 85.0551 44.6641 85.3581 44.7853 85.7216L59.7802 127.071L74.775 85.7216C74.8962 85.3581 75.1688 85.0551 75.5929 84.8128C76.0776 84.5099 76.532 84.3584 76.9561 84.3584C77.3802 84.3584 77.8346 84.5099 78.3193 84.8128C78.804 85.0551 79.1069 85.3581 79.2281 85.7216L104.129 158.151H92.4963L76.9561 112.349L59.7802 158.151Z" fill="white"/>
<path d="M139.925 158.151C135.563 158.151 131.807 157.636 128.657 156.606C125.506 155.577 122.871 153.971 120.75 151.79C118.69 149.548 117.145 146.701 116.115 143.247C115.146 139.733 114.661 135.553 114.661 130.706V96.4452C114.661 91.4166 115.146 87.1756 116.115 83.7223C117.145 80.2083 118.69 77.3608 120.75 75.1797C122.871 72.9986 125.506 71.4234 128.657 70.4541C131.807 69.4847 135.563 69 139.925 69H151.558C155.981 69 159.767 69.4847 162.918 70.4541C166.129 71.4234 168.764 72.9986 170.824 75.1797C172.884 77.3608 174.398 80.2083 175.368 83.7223C176.337 87.1756 176.822 91.4166 176.822 96.4452V130.706C176.822 135.553 176.337 139.733 175.368 143.247C174.398 146.701 172.884 149.548 170.824 151.79C168.764 153.971 166.129 155.577 162.918 156.606C159.767 157.636 155.981 158.151 151.558 158.151H139.925ZM152.83 146.065C155.132 146.065 157.071 145.762 158.646 145.156C160.222 144.489 161.494 143.581 162.463 142.43C163.493 141.278 164.22 139.915 164.644 138.34C165.129 136.765 165.371 135.068 165.371 133.251V93.9006C165.371 92.083 165.129 90.3866 164.644 88.8114C164.22 87.2362 163.493 85.873 162.463 84.7219C161.494 83.5708 160.191 82.6923 158.555 82.0865C156.98 81.42 155.041 81.0868 152.739 81.0868H138.744C136.442 81.0868 134.473 81.42 132.837 82.0865C131.262 82.6923 129.959 83.5708 128.929 84.7219C127.96 85.873 127.233 87.2362 126.748 88.8114C126.324 90.3866 126.112 92.083 126.112 93.9006V133.251C126.112 135.068 126.324 136.765 126.748 138.34C127.233 139.915 127.96 141.278 128.929 142.43C129.959 143.581 131.262 144.489 132.837 145.156C134.412 145.762 136.351 146.065 138.653 146.065H152.83ZM139.835 142.793C137.714 142.793 135.957 142.611 134.564 142.248C133.231 141.824 132.17 141.157 131.383 140.248C130.656 139.34 130.141 138.189 129.838 136.795C129.535 135.341 129.384 133.554 129.384 131.433V95.7182C129.384 94.1429 129.535 92.6586 129.838 91.2651C130.141 89.8717 130.686 88.66 131.474 87.63C132.261 86.6001 133.322 85.8125 134.654 85.2672C136.048 84.6613 137.805 84.3584 139.925 84.3584H151.558C153.678 84.3584 155.405 84.6613 156.738 85.2672C158.131 85.8125 159.222 86.6001 160.009 87.63C160.797 88.66 161.342 89.8717 161.645 91.2651C161.948 92.6586 162.1 94.1429 162.1 95.7182V131.433C162.1 133.554 161.948 135.341 161.645 136.795C161.342 138.189 160.797 139.34 160.009 140.248C159.282 141.157 158.222 141.824 156.829 142.248C155.496 142.611 153.769 142.793 151.649 142.793H139.835ZM148.65 130.706C149.377 130.706 149.831 130.494 150.013 130.07C150.255 129.646 150.376 129.07 150.376 128.343V98.808C150.376 98.081 150.255 97.5054 150.013 97.0813C149.831 96.6572 149.377 96.4452 148.65 96.4452H142.834C142.106 96.4452 141.622 96.6572 141.379 97.0813C141.198 97.5054 141.107 98.081 141.107 98.808V128.343C141.107 129.07 141.198 129.646 141.379 130.07C141.622 130.494 142.106 130.706 142.834 130.706H148.65Z" fill="white"/>
<path d="M216.95 146.065C219.253 146.065 221.191 145.762 222.766 145.156C224.342 144.489 225.614 143.581 226.583 142.43C227.613 141.278 228.34 139.915 228.764 138.34C229.249 136.765 229.491 135.068 229.491 133.251V93.9006C229.491 92.083 229.249 90.3866 228.764 88.8114C228.34 87.2362 227.613 85.873 226.583 84.7219C225.614 83.5708 224.311 82.6923 222.676 82.0865C221.1 81.42 219.162 81.0868 216.859 81.0868H180.69V69H215.678C220.101 69 223.887 69.4847 227.038 70.4541C230.249 71.4234 232.884 72.9986 234.944 75.1797C237.004 77.3608 238.519 80.2083 239.488 83.7223C240.457 87.1756 240.942 91.4166 240.942 96.4452V130.706C240.942 135.553 240.457 139.733 239.488 143.247C238.519 146.701 237.004 149.548 234.944 151.79C232.884 153.971 230.249 155.577 227.038 156.606C223.887 157.636 220.101 158.151 215.678 158.151H180.69V99.3533H192.141V146.065H216.95ZM180.69 96.4452V84.3584H215.678C217.798 84.3584 219.525 84.6613 220.858 85.2672C222.252 85.8125 223.342 86.6001 224.13 87.63C224.917 88.66 225.463 89.8717 225.765 91.2651C226.068 92.6586 226.22 94.1429 226.22 95.7182V131.433C226.22 133.554 226.068 135.341 225.765 136.795C225.463 138.189 224.917 139.34 224.13 140.248C223.403 141.157 222.342 141.824 220.949 142.248C219.616 142.611 217.889 142.793 215.769 142.793H195.412V99.3533H208.135V128.343C208.135 129.919 208.892 130.706 210.407 130.706H212.406C213.133 130.706 213.709 130.494 214.133 130.07C214.618 129.646 214.86 129.07 214.86 128.343V98.808C214.86 98.081 214.618 97.5054 214.133 97.0813C213.709 96.6572 213.133 96.4452 212.406 96.4452H180.69Z" fill="white"/>
<path d="M244.411 96.4452C244.411 92.6283 245.108 89.0538 246.501 85.7216C247.895 82.3288 249.743 79.4207 252.045 76.9973C254.408 74.5133 257.104 72.5745 260.133 71.1811C263.223 69.727 266.404 69 269.675 69H304.118V81.0868H271.129C268.827 81.0868 266.767 81.5412 264.95 82.45C263.132 83.3587 261.587 84.5402 260.315 85.9942C259.103 87.4483 258.164 89.1144 257.498 90.9925C256.831 92.8101 256.498 94.6276 256.498 96.4452V130.706C256.498 132.524 256.831 134.372 257.498 136.25C258.164 138.067 259.103 139.703 260.315 141.157C261.587 142.611 263.132 143.793 264.95 144.701C266.767 145.61 268.827 146.065 271.129 146.065H304.118V158.151H269.675C266.404 158.151 263.223 157.455 260.133 156.061C257.104 154.607 254.408 152.668 252.045 150.245C249.743 147.761 247.895 144.853 246.501 141.521C245.108 138.128 244.411 134.523 244.411 130.706V96.4452ZM259.769 112.076V98.2628C259.769 96.6875 260.012 95.082 260.497 93.4462C261.042 91.7498 261.829 90.2352 262.859 88.9023C263.889 87.5694 265.192 86.4789 266.767 85.6307C268.342 84.7825 270.19 84.3584 272.311 84.3584H304.118V96.4452H272.583C272.22 96.4452 271.826 96.6572 271.402 97.0813C271.038 97.5054 270.857 98.081 270.857 98.808V100.08H297.211V112.076H259.769ZM259.769 115.075H297.211V127.162H270.857V128.343C270.857 129.07 271.038 129.646 271.402 130.07C271.826 130.494 272.22 130.706 272.583 130.706H304.118V142.793H272.311C270.19 142.793 268.342 142.369 266.767 141.521C265.192 140.673 263.889 139.582 262.859 138.249C261.829 136.916 261.042 135.432 260.497 133.796C260.012 132.1 259.769 130.464 259.769 128.889V115.075Z" fill="white"/>
<path d="M367.75 158.151H333.308C330.036 158.151 326.855 157.455 323.765 156.061C320.736 154.607 318.04 152.668 315.677 150.245C313.375 147.761 311.527 144.853 310.134 141.521C308.74 138.128 308.044 134.523 308.044 130.706V69H320.13V130.706C320.13 132.524 320.464 134.372 321.13 136.25C321.796 138.067 322.735 139.703 323.947 141.157C325.219 142.611 326.764 143.793 328.582 144.701C330.4 145.61 332.459 146.065 334.762 146.065H367.75V158.151ZM337.579 130.706H367.75V142.793H335.943C333.823 142.793 331.975 142.369 330.4 141.521C328.824 140.673 327.522 139.582 326.492 138.249C325.462 136.916 324.674 135.432 324.129 133.796C323.644 132.1 323.402 130.464 323.402 128.889V69H335.852V128.343C335.852 129.07 336.034 129.646 336.397 130.07C336.822 130.434 337.215 130.615 337.579 130.615V130.706Z" fill="white"/>
<path d="M436.345 69C452.628 69 465.828 82.1999 465.828 98.4828C465.828 114.766 452.628 127.966 436.345 127.966H428.586V115.552H436.345C445.772 115.552 453.414 107.91 453.414 98.4828C453.414 89.0558 445.772 81.4138 436.345 81.4138H396V69H436.345Z" fill="white"/>
<path d="M436.345 112.448C444.058 112.448 450.31 106.196 450.31 98.4829C450.31 90.7699 444.058 84.5173 436.345 84.5173H396V96.9311H436.345C437.202 96.9311 437.897 97.6258 437.897 98.4829C437.897 99.3399 437.202 100.035 436.345 100.035H427.034V112.448H436.345Z" fill="white"/>
<path d="M425.483 112.448H433.241V100.034H425.483C415.561 100.034 406.784 104.935 401.441 112.448H425.483Z" fill="white"/>
<path fill-rule="evenodd" clip-rule="evenodd" d="M401.441 112.448H425.483C421.829 112.448 418.443 113.596 415.666 115.552C411.28 118.641 408.414 123.744 408.414 129.517H396C396 124.464 397.271 119.708 399.511 115.552C400.091 114.475 400.736 113.439 401.441 112.448Z" fill="white"/>
<path d="M425.483 143.483C417.77 143.483 411.517 137.23 411.517 129.517C411.517 121.804 417.77 115.552 425.483 115.552H433.241V127.966H425.483C424.626 127.966 423.931 128.66 423.931 129.517C423.931 130.374 424.626 131.069 425.483 131.069H465.828V143.483H425.483Z" fill="white"/>
<rect x="396" y="159" width="31.0345" height="12.4138" transform="rotate(-90 396 159)" fill="white"/>
<rect x="396" y="146.586" width="69.8276" height="12.4138" fill="white"/>
<rect x="411.517" y="131.069" width="31.0345" height="12.4138" fill="white"/>
</svg>
