<svg width="466" height="159" viewBox="0 0 466 159" fill="none" xmlns="http://www.w3.org/2000/svg">
<path d="M59.7802 118.256L46.7846 83.4496C46.5422 82.8438 46.0273 82.2985 45.2397 81.8138C44.452 81.3291 43.5736 81.0868 42.6042 81.0868C41.756 81.0868 40.8775 81.3291 39.9687 81.8138C39.06 82.2985 38.5147 82.8438 38.3329 83.4496L12.16 158.151H0.0732422L28.1546 78.9057C28.6393 77.6334 29.2754 76.4217 30.063 75.2706C30.8506 74.0589 31.82 72.9986 32.9711 72.0899C34.1828 71.1205 35.5763 70.3632 37.1515 69.8179C38.7267 69.2726 40.5443 69 42.6042 69C44.6641 69 46.4514 69.2726 47.966 69.8179C49.4806 70.3632 50.8135 71.1205 51.9646 72.0899C53.1158 72.9986 54.0851 74.0589 54.8727 75.2706C55.7209 76.4217 56.448 77.6334 57.0538 78.9057L59.7802 84.3584L62.5065 78.9057C63.1729 77.6334 63.9 76.4217 64.6876 75.2706C65.5358 74.0589 66.5051 72.9986 67.5957 72.0899C68.7468 71.1205 70.0797 70.3632 71.5943 69.8179C73.1089 69.2726 74.8962 69 76.9561 69C78.9554 69 80.7427 69.2726 82.3179 69.8179C83.9537 70.3632 85.3472 71.1205 86.4983 72.0899C87.71 72.9986 88.7097 74.0589 89.4973 75.2706C90.3455 76.4217 90.9816 77.6334 91.4057 78.9057L119.487 158.151H107.4L81.2274 83.4496C81.0456 82.8438 80.5004 82.2985 79.5916 81.8138C78.6828 81.3291 77.8043 81.0868 76.9561 81.0868C75.9867 81.0868 75.1083 81.3291 74.3207 81.8138C73.533 82.2985 73.0181 82.8438 72.7757 83.4496L59.7802 118.256ZM59.7802 158.151L42.6042 112.349L27.5184 158.151H15.4316L40.3322 85.7216C40.4534 85.3581 40.7563 85.0551 41.241 84.8128C41.7257 84.5099 42.1801 84.3584 42.6042 84.3584C43.0283 84.3584 43.4524 84.5099 43.8765 84.8128C44.3612 85.0551 44.6641 85.3581 44.7853 85.7216L59.7802 127.071L74.775 85.7216C74.8962 85.3581 75.1688 85.0551 75.5929 84.8128C76.0776 84.5099 76.532 84.3584 76.9561 84.3584C77.3802 84.3584 77.8346 84.5099 78.3193 84.8128C78.804 85.0551 79.1069 85.3581 79.2281 85.7216L104.129 158.151H92.4963L76.9561 112.349L59.7802 158.151Z" fill="white"/>
<path d="M139.925 158.151C135.563 158.151 131.807 157.636 128.657 156.606C125.506 155.577 122.871 153.971 120.75 151.79C118.69 149.548 117.145 146.701 116.115 143.247C115.146 139.733 114.661 135.553 114.661 130.706V96.4452C114.661 91.4166 115.146 87.1756 116.115 83.7223C117.145 80.2083 118.69 77.3608 120.75 75.1797C122.871 72.9986 125.506 71.4234 128.657 70.4541C131.807 69.4847 135.563 69 139.925 69H151.558C155.981 69 159.767 69.4847 162.918 70.4541C166.129 71.4234 168.764 72.9986 170.824 75.1797C172.884 77.3608 174.398 80.2083 175.368 83.7223C176.337 87.1756 176.822 91.4166 176.822 96.4452V130.706C176.822 135.553 176.337 139.733 175.368 143.247C174.398 146.701 172.884 149.548 170.824 151.79C168.764 153.971 166.129 155.577 162.918 156.606C159.767 157.636 155.981 158.151 151.558 158.151H139.925ZM152.83 146.065C155.132 146.065 157.071 145.762 158.646 145.156C160.222 144.489 161.494 143.581 162.463 142.43C163.493 141.278 164.22 139.915 164.644 138.34C165.129 136.765 165.371 135.068 165.371 133.251V93.9006C165.371 92.083 165.129 90.3866 164.644 88.8114C164.22 87.2362 163.493 85.873 162.463 84.7219C161.494 83.5708 160.191 82.6923 158.555 82.0865C156.98 81.42 155.041 81.0868 152.739 81.0868H138.744C136.442 81.0868 134.473 81.42 132.837 82.0865C131.262 82.6923 129.959 83.5708 128.929 84.7219C127.96 85.873 127.233 87.2362 126.748 88.8114C126.324 90.3866 126.112 92.083 126.112 93.9006V133.251C126.112 135.068 126.324 136.765 126.748 138.34C127.233 139.915 127.96 141.278 128.929 142.43C129.959 143.581 131.262 144.489 132.837 145.156C134.412 145.762 136.351 146.065 138.653 146.065H152.83ZM139.835 142.793C137.714 142.793 135.957 142.611 134.564 142.248C133.231 141.824 132.17 141.157 131.383 140.248C130.656 139.34 130.141 138.189 129.838 136.795C129.535 135.341 129.384 133.554 129.384 131.433V95.7182C129.384 94.1429 129.535 92.6586 129.838 91.2651C130.141 89.8717 130.686 88.66 131.474 87.63C132.261 86.6001 133.322 85.8125 134.654 85.2672C136.048 84.6613 137.805 84.3584 139.925 84.3584H151.558C153.678 84.3584 155.405 84.6613 156.738 85.2672C158.131 85.8125 159.222 86.6001 160.009 87.63C160.797 88.66 161.342 89.8717 161.645 91.2651C161.948 92.6586 162.1 94.1429 162.1 95.7182V131.433C162.1 133.554 161.948 135.341 161.645 136.795C161.342 138.189 160.797 139.34 160.009 140.248C159.282 141.157 158.222 141.824 156.829 142.248C155.496 142.611 153.769 142.793 151.649 142.793H139.835ZM148.65 130.706C149.377 130.706 149.831 130.494 150.013 130.07C150.255 129.646 150.376 129.07 150.376 128.343V98.808C150.376 98.081 150.255 97.5054 150.013 97.0813C149.831 96.6572 149.377 96.4452 148.65 96.4452H142.834C142.106 96.4452 141.622 96.6572 141.379 97.0813C141.198 97.5054 141.107 98.081 141.107 98.808V128.343C141.107 129.07 141.198 129.646 141.379 130.07C141.622 130.494 142.106 130.706 142.834 130.706H148.65Z" fill="white"/>
<path d="M216.95 146.065C219.253 146.065 221.191 145.762 222.766 145.156C224.342 144.489 225.614 143.581 226.583 142.43C227.613 141.278 228.34 139.915 228.764 138.34C229.249 136.765 229.491 135.068 229.491 133.251V93.9006C229.491 92.083 229.249 90.3866 228.764 88.8114C228.34 87.2362 227.613 85.873 226.583 84.7219C225.614 83.5708 224.311 82.6923 222.676 82.0865C221.1 81.42 219.162 81.0868 216.859 81.0868H180.69V69H215.678C220.101 69 223.887 69.4847 227.038 70.4541C230.249 71.4234 232.884 72.9986 234.944 75.1797C237.004 77.3608 238.519 80.2083 239.488 83.7223C240.457 87.1756 240.942 91.4166 240.942 96.4452V130.706C240.942 135.553 240.457 139.733 239.488 143.247C238.519 146.701 237.004 149.548 234.944 151.79C232.884 153.971 230.249 155.577 227.038 156.606C223.887 157.636 220.101 158.151 215.678 158.151H180.69V99.3533H192.141V146.065H216.95ZM180.69 96.4452V84.3584H215.678C217.798 84.3584 219.525 84.6613 220.858 85.2672C222.252 85.8125 223.342 86.6001 224.13 87.63C224.917 88.66 225.463 89.8717 225.765 91.2651C226.068 92.6586 226.22 94.1429 226.22 95.7182V131.433C226.22 133.554 226.068 135.341 225.765 136.795C225.463 138.189 224.917 139.34 224.13 140.248C223.403 141.157 222.342 141.824 220.949 142.248C219.616 142.611 217.889 142.793 215.769 142.793H195.412V99.3533H208.135V128.343C208.135 129.919 208.892 130.706 210.407 130.706H212.406C213.133 130.706 213.709 130.494 214.133 130.07C214.618 129.646 214.86 129.07 214.86 128.343V98.808C214.86 98.081 214.618 97.5054 214.133 97.0813C213.709 96.6572 213.133 96.4452 212.406 96.4452H180.69Z" fill="white"/>
<path d="M244.411 96.4452C244.411 92.6283 245.108 89.0538 246.501 85.7216C247.895 82.3288 249.743 79.4207 252.045 76.9973C254.408 74.5133 257.104 72.5745 260.133 71.1811C263.223 69.727 266.404 69 269.675 69H304.118V81.0868H271.129C268.827 81.0868 266.767 81.5412 264.95 82.45C263.132 83.3587 261.587 84.5402 260.315 85.9942C259.103 87.4483 258.164 89.1144 257.498 90.9925C256.831 92.8101 256.498 94.6276 256.498 96.4452V130.706C256.498 132.524 256.831 134.372 257.498 136.25C258.164 138.067 259.103 139.703 260.315 141.157C261.587 142.611 263.132 143.793 264.95 144.701C266.767 145.61 268.827 146.065 271.129 146.065H304.118V158.151H269.675C266.404 158.151 263.223 157.455 260.133 156.061C257.104 154.607 254.408 152.668 252.045 150.245C249.743 147.761 247.895 144.853 246.501 141.521C245.108 138.128 244.411 134.523 244.411 130.706V96.4452ZM259.769 112.076V98.2628C259.769 96.6875 260.012 95.082 260.497 93.4462C261.042 91.7498 261.829 90.2352 262.859 88.9023C263.889 87.5694 265.192 86.4789 266.767 85.6307C268.342 84.7825 270.19 84.3584 272.311 84.3584H304.118V96.4452H272.583C272.22 96.4452 271.826 96.6572 271.402 97.0813C271.038 97.5054 270.857 98.081 270.857 98.808V100.08H297.211V112.076H259.769ZM259.769 115.075H297.211V127.162H270.857V128.343C270.857 129.07 271.038 129.646 271.402 130.07C271.826 130.494 272.22 130.706 272.583 130.706H304.118V142.793H272.311C270.19 142.793 268.342 142.369 266.767 141.521C265.192 140.673 263.889 139.582 262.859 138.249C261.829 136.916 261.042 135.432 260.497 133.796C260.012 132.1 259.769 130.464 259.769 128.889V115.075Z" fill="white"/>
<path d="M367.75 158.151H333.308C330.036 158.151 326.855 157.455 323.765 156.061C320.736 154.607 318.04 152.668 315.677 150.245C313.375 147.761 311.527 144.853 310.134 141.521C308.74 138.128 308.044 134.523 308.044 130.706V69H320.13V130.706C320.13 132.524 320.464 134.372 321.13 136.25C321.796 138.067 322.735 139.703 323.947 141.157C325.219 142.611 326.764 143.793 328.582 144.701C330.4 145.61 332.459 146.065 334.762 146.065H367.75V158.151ZM337.579 130.706H367.75V142.793H335.943C333.823 142.793 331.975 142.369 330.4 141.521C328.824 140.673 327.522 139.582 326.492 138.249C325.462 136.916 324.674 135.432 324.129 133.796C323.644 132.1 323.402 130.464 323.402 128.889V69H335.852V128.343C335.852 129.07 336.034 129.646 336.397 130.07C336.822 130.434 337.215 130.615 337.579 130.615V130.706Z" fill="white"/>
<path d="M436.345 69C452.628 69 465.828 82.1999 465.828 98.4828C465.828 114.766 452.628 127.966 436.345 127.966H428.586V115.552H436.345C445.772 115.552 453.414 107.91 453.414 98.4828C453.414 89.0558 445.772 81.4138 436.345 81.4138H396V69H436.345Z" fill="white"/>
<path d="M436.345 112.448C444.058 112.448 450.31 106.196 450.31 98.4829C450.31 90.7699 444.058 84.5173 436.345 84.5173H396V96.9311H436.345C437.202 96.9311 437.897 97.6258 437.897 98.4829C437.897 99.3399 437.202 100.035 436.345 100.035H427.034V112.448H436.345Z" fill="white"/>
<path d="M425.483 112.448H433.241V100.034H425.483C415.561 100.034 406.784 104.935 401.441 112.448H425.483Z" fill="white"/>
<path fill-rule="evenodd" clip-rule="evenodd" d="M401.441 112.448H425.483C421.829 112.448 418.443 113.596 415.666 115.552C411.28 118.641 408.414 123.744 408.414 129.517H396C396 124.464 397.271 119.708 399.511 115.552C400.091 114.475 400.736 113.439 401.441 112.448Z" fill="white"/>
<path d="M425.483 143.483C417.77 143.483 411.517 137.23 411.517 129.517C411.517 121.804 417.77 115.552 425.483 115.552H433.241V127.966H425.483C424.626 127.966 423.931 128.66 423.931 129.517C423.931 130.374 424.626 131.069 425.483 131.069H465.828V143.483H425.483Z" fill="white"/>
<rect x="396" y="159" width="31.0345" height="12.4138" transform="rotate(-90 396 159)" fill="white"/>
<rect x="396" y="146.586" width="69.8276" height="12.4138" fill="white"/>
<rect x="411.517" y="131.069" width="31.0345" height="12.4138" fill="white"/>
<path fill-rule="evenodd" clip-rule="evenodd" d="M114.248 0C119.152 0 123.253 2.76673 125.095 6.7519L125.214 7.01937L138.24 45.8796L77.9263 45.8726C74.2407 45.8726 70.8871 44.4521 68.3758 42.1356L68.1095 41.884V45.8689L46.5749 45.8726C41.1596 45.8726 36.4653 42.8158 34.1225 38.3469L33.9762 38.0598L33.9167 38.2307C31.9737 42.3088 26.4551 45.7256 20.8173 45.8646L20.4789 45.8689L0 45.8726V27.4005L4.58266 27.4079C1.87684 24.5869 0.0419328 20.7793 0.0419328 16.581C0.0524035 7.62168 7.07783 0.819012 15.7083 0.663503L16.0248 0.660787L36.3507 0.643277V5.06511C38.8234 2.45996 42.3245 0.771848 46.1883 0.665649L46.5758 0.660326H68.1417L68.1343 4.58634C70.568 2.21364 73.8423 0.746889 77.492 0.648555L77.8844 0.643277L98.9471 0.653875L98.9642 19.7554L103.306 7.09678C105.019 2.98552 109.256 0 114.248 0ZM33.1933 10.5228H15.9446L15.7182 10.527C12.4879 10.6463 9.8966 13.3075 9.8966 16.5602C9.8966 19.8161 12.4874 22.4673 15.7182 22.5861L20.6927 22.6536C24.6286 22.7806 27.7747 25.995 27.7747 29.9423C27.7747 33.8923 24.6291 37.1139 20.6927 37.2412L20.4508 37.2451H3.17076L3.16385 42.712L20.4333 42.6945L20.7396 42.6909C27.6635 42.5288 33.2246 36.8842 33.2246 29.9525C33.2246 23.0071 27.6635 17.3619 20.7396 17.1997L20.4333 17.1961L15.9483 17.2206L15.8537 17.2135C15.5451 17.1673 15.3082 16.8983 15.3082 16.5741C15.3082 16.2498 15.5451 15.9804 15.8537 15.9341L15.9483 15.9271L33.1864 15.9308L33.1933 10.5228ZM46.6136 3.83155H65.047V9.24964L46.6136 9.24641L46.3898 9.25091C43.5686 9.36451 41.2803 11.6152 41.1676 14.378L41.1633 14.5917V31.8431L41.1678 32.0706C41.2834 34.9362 43.5735 37.1657 46.3954 37.2754L46.6136 37.2796L64.9663 37.2732L64.97 42.6779L46.6136 42.6705L46.3242 42.6668C40.5556 42.5163 35.9103 37.8813 35.7596 32.132L35.7558 31.8436V14.6511L35.7596 14.3628C35.9103 8.61407 40.5556 3.98553 46.3242 3.83531L46.6136 3.83155ZM114.244 3.19887L113.959 3.20316C110.274 3.31413 107.187 5.57069 106.122 8.65557L106.043 8.90081L95.8039 38.9279L95.804 17.1998H80.4607V22.6009H90.3818V37.2658H77.9646L77.7471 37.2615C74.9355 37.1497 72.6586 34.8808 72.5437 32.0664L72.5391 31.8431V14.6507L72.5434 14.4328C72.6547 11.6161 74.9141 9.36409 77.7271 9.25045L77.9503 9.24595H95.804V3.83155H77.9088L77.6196 3.83531C71.8535 3.98553 67.2083 8.61407 67.0575 14.3628L67.0538 14.6511V31.8436L67.0576 32.132C67.2096 37.8813 71.8941 42.5163 77.6611 42.6668L77.9503 42.6705L95.804 42.6779L95.8039 42.6729L100.271 42.6738L111.451 9.84453L111.528 9.67563C112.018 8.67901 113.042 7.99165 114.234 7.99165C115.42 7.99165 116.448 8.67901 116.943 9.66975L117.02 9.83762L126.329 37.2658H111.913V42.6733H133.852L122.442 8.91418L122.365 8.67481C121.309 5.58586 118.215 3.31768 114.536 3.2034L114.244 3.19887ZM112.634 10.2966C112.909 9.67919 113.526 9.24687 114.248 9.24687C115.021 9.24687 115.681 9.74315 115.915 10.4316L124.582 36.035H111.891L111.902 31.2199L112.312 30.0119L116.146 30.0119L114.237 24.3381L112.312 30.0119L111.905 30.0119L111.902 31.2199L108.018 42.6733H101.621L112.58 10.4316L112.634 10.2966ZM95.8031 10.5085L77.9494 10.5122L77.7428 10.5173C75.6212 10.6216 73.9198 12.323 73.8155 14.4445L73.8105 14.6511L73.8114 31.8431L73.8165 32.0501C73.9207 34.1764 75.6221 35.8869 77.7437 35.9917L77.9503 35.9968H89.1021V23.88H80.4741V29.299H83.6762L83.6863 30.5713H80.4985L80.3697 30.5647C79.7761 30.5032 79.3005 30.0222 79.2397 29.428L79.2332 29.299L79.2046 17.1961C79.2068 17.0896 79.2544 16.0432 80.3171 15.918L80.4842 15.9064H95.81L95.8031 10.5085ZM15.9483 3.83155H33.1864L33.1933 9.26024L15.9446 9.26392L15.7031 9.26783C11.7735 9.39498 8.62433 12.6134 8.62433 16.5598C8.62433 20.517 11.7735 23.7352 15.7031 23.8623L20.6778 23.9192C23.9178 24.0379 26.502 26.686 26.502 29.9419C26.502 33.2013 23.9178 35.8526 20.6778 35.9714L20.4508 35.9756H3.17076L3.16385 30.5851L20.4088 30.5713L20.4998 30.5646C20.7977 30.5206 21.0346 30.2641 21.0346 29.9525C21.0346 29.6349 20.7977 29.3776 20.4998 29.3334L20.4088 29.3267L15.9483 29.3198L15.6423 29.3162C8.72524 29.1541 3.15694 23.5126 3.15694 16.5741C3.15694 9.63553 8.72524 3.99711 15.6423 3.83513L15.9483 3.83155ZM61.1247 23.8869H42.4779V31.8436C42.4779 34.0541 44.2202 35.8534 46.4073 35.9604L46.6136 35.9654L64.9659 35.9581L64.9696 30.5778L49.1574 30.5776C49.057 30.5747 48.0001 30.5192 47.8852 29.4648L47.8753 29.299H61.1247V23.8869ZM46.6136 10.5122H65.047V15.9377H49.1655L48.9997 15.9453C48.1027 16.0299 47.9214 16.7997 47.8849 17.0898L47.8757 17.1998H61.1251V22.6009H42.4784L42.4848 14.6511L42.4899 14.4445C42.5967 12.2545 44.3933 10.5122 46.6136 10.5122Z" fill="white"/>
<path fill-rule="evenodd" clip-rule="evenodd" d="M132.42 7.01285C131.699 7.72939 130.738 8.12799 129.717 8.12799C128.699 8.12799 127.742 7.72939 127.025 7.01331C126.298 6.28985 125.9 5.33554 125.9 4.31487C125.9 2.2173 127.616 0.514648 129.717 0.514648C130.738 0.514648 131.699 0.91324 132.42 1.6261C133.139 2.34955 133.542 3.30064 133.542 4.3144C133.542 5.33508 133.139 6.28939 132.42 7.01285ZM127.399 1.99981C126.774 2.61866 126.438 3.44349 126.438 4.31394C126.438 5.19131 126.773 6.01291 127.399 6.63131C128.021 7.25016 128.846 7.58931 129.717 7.58931C131.532 7.58931 133.007 6.1212 133.007 4.31394C133.007 3.44349 132.664 2.61866 132.045 1.99981C131.423 1.38141 130.598 1.04549 129.717 1.04549C128.846 1.04549 128.022 1.38095 127.399 1.99981Z" fill="white"/>
<path fill-rule="evenodd" clip-rule="evenodd" d="M128.738 6.43224V4.63558H129.829L130.986 6.43224H131.654L130.465 4.60056C130.471 4.59924 130.478 4.59782 130.486 4.59629C130.719 4.54959 131.472 4.39836 131.472 3.4435C131.472 3.05182 131.339 2.69884 131.021 2.4643C130.698 2.22039 130.358 2.21645 129.784 2.2098C129.774 2.20969 129.765 2.20958 129.755 2.20947H128.186V6.43224H128.738ZM129.86 4.17064H128.738V2.67811H129.829C129.84 2.67811 129.852 2.6781 129.863 2.67809C130.173 2.67786 130.441 2.67766 130.654 2.85644C130.895 3.05228 130.906 3.33521 130.906 3.44718C130.906 3.75453 130.766 4.03424 130.375 4.1287C130.207 4.17064 130.039 4.17064 129.86 4.17064Z" fill="white"/>
</svg>
