<svg width="350" height="109" viewBox="0 0 350 109" fill="none" xmlns="http://www.w3.org/2000/svg">
<path d="M261 0H0V108.07H261V0Z" fill="#00000F" fill-opacity="0.941176"/>
<path d="M17.1219 92.7508L36.9471 14.7114H55.3305L64.8827 48.7748L74.7953 14.7114H92.0973L108.318 72.2046L147.894 72.1299C152.048 72.0895 152.303 63.4986 147.586 63.5008L124.539 63.1931C114.642 63.2889 104.205 52.5817 104.713 38.3215C104.819 25.2413 116.225 14.9409 130.816 14.9444L189.601 14.8917L204.56 35.2576L219.159 14.7114L243.49 14.8917L216.816 52.3794L245.653 93.0275L221.449 92.9528L204.666 69.6286L188.7 92.9528L164.009 92.931L192.125 52.7398L179.869 34.8971L128.768 34.9718C123.191 35.0229 123.395 43.7965 128.811 43.6318L150.342 43.9614C159.442 44.0203 172.258 53.4765 171.939 68.2395C172.078 85.4027 156.62 93.2435 149.177 92.8254L92.8182 92.9001L83.4463 57.7862L74.0744 92.8254H56.2844L46.4993 57.9665L37.9011 92.8782L17.1219 92.7508V92.7508Z" fill="white"/>
</svg>
