<svg width="723" height="85" viewBox="0 0 723 85" fill="none" xmlns="http://www.w3.org/2000/svg">
<g id="gamemeta">
<g id="GAME DETAILS">
<g id="ICON DIVIDERS" opacity="0.351446">
<rect id="Rectangle" x="170" width="1" height="73" fill="white"/>
<rect id="Rectangle_2" x="361" width="1" height="73" fill="white"/>
<rect id="Rectangle_3" x="552" width="1" height="73" fill="white"/>
</g>
<g id="MD_LBL_PLAYERS INFO">
<g id="PLAYERS - ICON">
<path id="Oval" d="M258.5 8C258.5 11.5899 255.59 14.5 252 14.5C248.41 14.5 245.5 11.5899 245.5 8C245.5 4.41015 248.41 1.5 252 1.5C255.59 1.5 258.5 4.41015 258.5 8Z" stroke="white" stroke-width="3"/>
<path id="Rectangle_4" d="M245 19.5H259C262.038 19.5 264.5 21.9624 264.5 25V36.5H239.5V25C239.5 21.9624 241.962 19.5 245 19.5Z" stroke="white" stroke-width="3"/>
<path id="Oval_2" d="M287.5 8C287.5 11.5899 284.59 14.5 281 14.5C277.41 14.5 274.5 11.5899 274.5 8C274.5 4.41015 277.41 1.5 281 1.5C284.59 1.5 287.5 4.41015 287.5 8Z" stroke="white" stroke-width="3"/>
<path id="Rectangle_5" d="M274 19.5H288C291.038 19.5 293.5 21.9624 293.5 25V36.5H268.5V25C268.5 21.9624 270.962 19.5 274 19.5Z" stroke="white" stroke-width="3"/>
</g>
</g>
<g id="MD_DEVELOPER INFO">
<g id="PROCESSOR - ICON">
<g id="Group 51">
<rect id="Rectangle_6" x="420" y="13" width="8" height="3" rx="1.5" fill="white"/>
<rect id="Rectangle_7" x="420" y="18" width="8" height="3" rx="1.5" fill="white"/>
<rect id="Rectangle_8" x="420" y="23" width="8" height="3" rx="1.5" fill="white"/>
</g>
<g id="Group 52">
<rect id="Rectangle_9" x="448" y="1" width="7" height="3" rx="1.5" transform="rotate(90 448 1)" fill="white"/>
<rect id="Rectangle_10" x="443" y="1" width="7" height="3" rx="1.5" transform="rotate(90 443 1)" fill="white"/>
<rect id="Rectangle_11" x="438" y="1" width="7" height="3" rx="1.5" transform="rotate(90 438 1)" fill="white"/>
<rect id="Rectangle_12" x="463" y="1" width="7" height="3" rx="1.5" transform="rotate(90 463 1)" fill="white"/>
<rect id="Rectangle_13" x="458" y="1" width="7" height="3" rx="1.5" transform="rotate(90 458 1)" fill="white"/>
<rect id="Rectangle_14" x="453" y="1" width="7" height="3" rx="1.5" transform="rotate(90 453 1)" fill="white"/>
<rect id="Rectangle_15" x="478" y="1" width="7" height="3" rx="1.5" transform="rotate(90 478 1)" fill="white"/>
<rect id="Rectangle_16" x="468" y="1" width="7" height="3" rx="1.5" transform="rotate(90 468 1)" fill="white"/>
<rect id="Rectangle_17" x="473" y="1" width="7" height="3" rx="1.5" transform="rotate(90 473 1)" fill="white"/>
</g>
<g id="Group 52_2">
<rect id="Rectangle_18" x="448" y="31" width="7" height="3" rx="1.5" transform="rotate(90 448 31)" fill="white"/>
<rect id="Rectangle_19" x="443" y="31" width="7" height="3" rx="1.5" transform="rotate(90 443 31)" fill="white"/>
<rect id="Rectangle_20" x="438" y="31" width="7" height="3" rx="1.5" transform="rotate(90 438 31)" fill="white"/>
<rect id="Rectangle_21" x="463" y="31" width="7" height="3" rx="1.5" transform="rotate(90 463 31)" fill="white"/>
<rect id="Rectangle_22" x="458" y="31" width="7" height="3" rx="1.5" transform="rotate(90 458 31)" fill="white"/>
<rect id="Rectangle_23" x="453" y="31" width="7" height="3" rx="1.5" transform="rotate(90 453 31)" fill="white"/>
<rect id="Rectangle_24" x="478" y="31" width="7" height="3" rx="1.5" transform="rotate(90 478 31)" fill="white"/>
<rect id="Rectangle_25" x="468" y="31" width="7" height="3" rx="1.5" transform="rotate(90 468 31)" fill="white"/>
<rect id="Rectangle_26" x="473" y="31" width="7" height="3" rx="1.5" transform="rotate(90 473 31)" fill="white"/>
</g>
<g id="Group 51_2">
<rect id="Rectangle_27" x="486" y="13" width="8" height="3" rx="1.5" fill="white"/>
<rect id="Rectangle_28" x="486" y="18" width="8" height="3" rx="1.5" fill="white"/>
<rect id="Rectangle_29" x="486" y="23" width="8" height="3" rx="1.5" fill="white"/>
</g>
<path id="Rectangle (Stroke)" fill-rule="evenodd" clip-rule="evenodd" d="M428 9V30H485V9H428ZM427.556 6C426.144 6 425 7.14416 425 8.55556V30.4444C425 31.8558 426.144 33 427.556 33H485.444C486.856 33 488 31.8558 488 30.4444V8.55556C488 7.14416 486.856 6 485.444 6H427.556Z" fill="white"/>
<path id="Rectangle (Stroke)_2" fill-rule="evenodd" clip-rule="evenodd" d="M480 14H433V25H480V14ZM431 12V27H482V12H431Z" fill="white"/>
</g>
</g>
<g id="RELEASEDATE - INFO">
<g id="RELEASEDATE - ICON">
<rect id="Rectangle_30" x="632" width="10" height="3" rx="1.5" transform="rotate(90 632 0)" fill="white"/>
<rect id="Rectangle_31" x="620" y="11" width="57" height="2" fill="white"/>
<rect id="Rectangle_32" x="668" width="10" height="3" rx="1.5" transform="rotate(90 668 0)" fill="white"/>
<path id="Rectangle (Stroke)_3" fill-rule="evenodd" clip-rule="evenodd" d="M623 6V35H674V6H623ZM622.556 3C621.144 3 620 4.14416 620 5.55556V35.4444C620 36.8558 621.144 38 622.556 38H674.444C675.856 38 677 36.8558 677 35.4444V5.55556C677 4.14416 675.856 3 674.444 3H622.556Z" fill="white"/>
<path id="Oval_3" fill-rule="evenodd" clip-rule="evenodd" d="M634.5 18C635.328 18 636 17.3284 636 16.5C636 15.6716 635.328 15 634.5 15C633.672 15 633 15.6716 633 16.5C633 17.3284 633.672 18 634.5 18Z" fill="white"/>
<path id="Oval_4" fill-rule="evenodd" clip-rule="evenodd" d="M641.5 18C642.328 18 643 17.3284 643 16.5C643 15.6716 642.328 15 641.5 15C640.672 15 640 15.6716 640 16.5C640 17.3284 640.672 18 641.5 18Z" fill="white"/>
<path id="Oval_5" fill-rule="evenodd" clip-rule="evenodd" d="M648.5 18C649.328 18 650 17.3284 650 16.5C650 15.6716 649.328 15 648.5 15C647.672 15 647 15.6716 647 16.5C647 17.3284 647.672 18 648.5 18Z" fill="white"/>
<path id="Oval_6" fill-rule="evenodd" clip-rule="evenodd" d="M655.5 18C656.328 18 657 17.3284 657 16.5C657 15.6716 656.328 15 655.5 15C654.672 15 654 15.6716 654 16.5C654 17.3284 654.672 18 655.5 18Z" fill="white"/>
<path id="Oval_7" fill-rule="evenodd" clip-rule="evenodd" d="M662.5 18C663.328 18 664 17.3284 664 16.5C664 15.6716 663.328 15 662.5 15C661.672 15 661 15.6716 661 16.5C661 17.3284 661.672 18 662.5 18Z" fill="white"/>
<path id="Oval_8" fill-rule="evenodd" clip-rule="evenodd" d="M669.5 18C670.328 18 671 17.3284 671 16.5C671 15.6716 670.328 15 669.5 15C668.672 15 668 15.6716 668 16.5C668 17.3284 668.672 18 669.5 18Z" fill="white"/>
<path id="Oval_9" fill-rule="evenodd" clip-rule="evenodd" d="M627.5 23C628.328 23 629 22.3284 629 21.5C629 20.6716 628.328 20 627.5 20C626.672 20 626 20.6716 626 21.5C626 22.3284 626.672 23 627.5 23Z" fill="white"/>
<path id="Oval_10" fill-rule="evenodd" clip-rule="evenodd" d="M634.5 23C635.328 23 636 22.3284 636 21.5C636 20.6716 635.328 20 634.5 20C633.672 20 633 20.6716 633 21.5C633 22.3284 633.672 23 634.5 23Z" fill="white"/>
<path id="Oval_11" fill-rule="evenodd" clip-rule="evenodd" d="M641.5 23C642.328 23 643 22.3284 643 21.5C643 20.6716 642.328 20 641.5 20C640.672 20 640 20.6716 640 21.5C640 22.3284 640.672 23 641.5 23Z" fill="white"/>
<path id="Oval_12" fill-rule="evenodd" clip-rule="evenodd" d="M648.5 23C649.328 23 650 22.3284 650 21.5C650 20.6716 649.328 20 648.5 20C647.672 20 647 20.6716 647 21.5C647 22.3284 647.672 23 648.5 23Z" fill="white"/>
<path id="Oval_13" fill-rule="evenodd" clip-rule="evenodd" d="M655.5 23C656.328 23 657 22.3284 657 21.5C657 20.6716 656.328 20 655.5 20C654.672 20 654 20.6716 654 21.5C654 22.3284 654.672 23 655.5 23Z" fill="white"/>
<path id="Oval_14" fill-rule="evenodd" clip-rule="evenodd" d="M662.5 23C663.328 23 664 22.3284 664 21.5C664 20.6716 663.328 20 662.5 20C661.672 20 661 20.6716 661 21.5C661 22.3284 661.672 23 662.5 23Z" fill="white"/>
<path id="Oval_15" fill-rule="evenodd" clip-rule="evenodd" d="M669.5 23C670.328 23 671 22.3284 671 21.5C671 20.6716 670.328 20 669.5 20C668.672 20 668 20.6716 668 21.5C668 22.3284 668.672 23 669.5 23Z" fill="white"/>
<path id="Oval_16" fill-rule="evenodd" clip-rule="evenodd" d="M627.5 28C628.328 28 629 27.3284 629 26.5C629 25.6716 628.328 25 627.5 25C626.672 25 626 25.6716 626 26.5C626 27.3284 626.672 28 627.5 28Z" fill="white"/>
<path id="Oval_17" fill-rule="evenodd" clip-rule="evenodd" d="M634.5 28C635.328 28 636 27.3284 636 26.5C636 25.6716 635.328 25 634.5 25C633.672 25 633 25.6716 633 26.5C633 27.3284 633.672 28 634.5 28Z" fill="white"/>
<path id="Oval_18" fill-rule="evenodd" clip-rule="evenodd" d="M641.5 28C642.328 28 643 27.3284 643 26.5C643 25.6716 642.328 25 641.5 25C640.672 25 640 25.6716 640 26.5C640 27.3284 640.672 28 641.5 28Z" fill="white"/>
<path id="Oval_19" fill-rule="evenodd" clip-rule="evenodd" d="M648.5 28C649.328 28 650 27.3284 650 26.5C650 25.6716 649.328 25 648.5 25C647.672 25 647 25.6716 647 26.5C647 27.3284 647.672 28 648.5 28Z" fill="white"/>
<path id="Oval_20" fill-rule="evenodd" clip-rule="evenodd" d="M655.5 28C656.328 28 657 27.3284 657 26.5C657 25.6716 656.328 25 655.5 25C654.672 25 654 25.6716 654 26.5C654 27.3284 654.672 28 655.5 28Z" fill="white"/>
<path id="Oval_21" fill-rule="evenodd" clip-rule="evenodd" d="M662.5 28C663.328 28 664 27.3284 664 26.5C664 25.6716 663.328 25 662.5 25C661.672 25 661 25.6716 661 26.5C661 27.3284 661.672 28 662.5 28Z" fill="white"/>
<path id="Oval_22" fill-rule="evenodd" clip-rule="evenodd" d="M669.5 28C670.328 28 671 27.3284 671 26.5C671 25.6716 670.328 25 669.5 25C668.672 25 668 25.6716 668 26.5C668 27.3284 668.672 28 669.5 28Z" fill="white"/>
<path id="Oval_23" fill-rule="evenodd" clip-rule="evenodd" d="M627.5 33C628.328 33 629 32.3284 629 31.5C629 30.6716 628.328 30 627.5 30C626.672 30 626 30.6716 626 31.5C626 32.3284 626.672 33 627.5 33Z" fill="white"/>
<path id="Oval_24" fill-rule="evenodd" clip-rule="evenodd" d="M634.5 33C635.328 33 636 32.3284 636 31.5C636 30.6716 635.328 30 634.5 30C633.672 30 633 30.6716 633 31.5C633 32.3284 633.672 33 634.5 33Z" fill="white"/>
<path id="Oval_25" fill-rule="evenodd" clip-rule="evenodd" d="M641.5 33C642.328 33 643 32.3284 643 31.5C643 30.6716 642.328 30 641.5 30C640.672 30 640 30.6716 640 31.5C640 32.3284 640.672 33 641.5 33Z" fill="white"/>
<path id="Oval_26" fill-rule="evenodd" clip-rule="evenodd" d="M648.5 33C649.328 33 650 32.3284 650 31.5C650 30.6716 649.328 30 648.5 30C647.672 30 647 30.6716 647 31.5C647 32.3284 647.672 33 648.5 33Z" fill="white"/>
<path id="Oval_27" fill-rule="evenodd" clip-rule="evenodd" d="M655.5 33C656.328 33 657 32.3284 657 31.5C657 30.6716 656.328 30 655.5 30C654.672 30 654 30.6716 654 31.5C654 32.3284 654.672 33 655.5 33Z" fill="white"/>
<path id="Oval_28" fill-rule="evenodd" clip-rule="evenodd" d="M662.5 33C663.328 33 664 32.3284 664 31.5C664 30.6716 663.328 30 662.5 30C661.672 30 661 30.6716 661 31.5C661 32.3284 661.672 33 662.5 33Z" fill="white"/>
</g>
</g>
</g>
<g id="Vector">
<path fill-rule="evenodd" clip-rule="evenodd" d="M77.5 20.9219C80.6066 20.9219 83.125 18.4035 83.125 15.2969C83.125 12.1903 80.6066 9.67188 77.5 9.67188C74.3934 9.67188 71.875 12.1903 71.875 15.2969C71.875 18.4035 74.3934 20.9219 77.5 20.9219ZM77.5 21.4219C80.8827 21.4219 83.625 18.6796 83.625 15.2969C83.625 11.9141 80.8827 9.17188 77.5 9.17188C74.1173 9.17188 71.375 11.9141 71.375 15.2969C71.375 18.6796 74.1173 21.4219 77.5 21.4219Z" fill="white"/>
<path fill-rule="evenodd" clip-rule="evenodd" d="M66.131 1.01562L66.3757 1.11492C71.5343 3.20755 74.7902 3.41657 77.3748 3.41657H77.625C80.2097 3.41657 83.4655 3.20755 88.6241 1.11492L88.8688 1.01562L89.1307 1.05016C91.0729 1.30627 94.0711 1.88711 96.7809 2.80717C98.1348 3.26686 99.4516 3.82283 100.538 4.48562C101.603 5.13574 102.564 5.95917 103.036 7.00499C103.922 8.9655 108.149 18.8322 110.472 28.8324C111.632 33.8219 112.339 38.9339 111.871 43.1421C111.403 47.3497 109.713 50.924 105.833 52.2968C103.263 53.2062 100.279 51.8724 97.9304 49.6048C95.6472 47.4009 93.7198 44.1118 92.9398 40.2572C90.059 39.4061 83.7505 37.9791 77.625 37.9791H77.3748C71.2493 37.9791 64.9408 39.4061 62.06 40.2572C61.28 44.1118 59.3526 47.4009 57.0694 49.6048C54.7204 51.8724 51.7365 53.2062 49.1664 52.2968C45.2867 50.924 43.5967 47.3497 43.1289 43.1421C42.6611 38.9339 43.3683 33.8219 44.5274 28.8324C46.8506 18.8322 51.0781 8.9655 51.9635 7.00499C52.4358 5.95917 53.3968 5.13574 54.4621 4.48562C55.5482 3.82283 56.865 3.26686 58.219 2.80717C60.9287 1.88711 63.9269 1.30627 65.8691 1.05016L66.131 1.01562ZM55.5039 6.19285C54.5696 6.76304 54.0139 7.32398 53.7862 7.82816C52.9216 9.74265 48.7553 19.4717 46.4755 29.285C45.3331 34.2023 44.6865 39.0514 45.1167 42.9211C45.547 46.7912 47.007 49.4112 49.8336 50.4114C51.326 50.9395 53.5296 50.242 55.6804 48.1658C57.7771 46.1419 59.5805 43.0076 60.2011 39.3134L60.302 38.7124L60.8825 38.5267C63.5522 37.6723 70.5416 35.9791 77.3748 35.9791H77.625C84.4582 35.9791 91.4476 37.6723 94.1173 38.5267L94.6978 38.7124L94.7988 39.3134C95.4193 43.0076 97.2227 46.1419 99.3194 48.1658C101.47 50.242 103.674 50.9395 105.166 50.4114C107.993 49.4112 109.453 46.7912 109.883 42.9211C110.313 39.0514 109.667 34.2023 108.524 29.285C106.244 19.4717 102.078 9.74265 101.214 7.82816C100.986 7.32398 100.43 6.76304 99.4959 6.19285C98.5822 5.63532 97.4162 5.13504 96.1378 4.70098C93.6991 3.87295 90.9784 3.3281 89.1275 3.06817C83.8269 5.18292 80.3725 5.41657 77.625 5.41657H77.3748C74.6273 5.41657 71.1729 5.18292 65.8723 3.06817C64.0215 3.3281 61.3007 3.87295 58.862 4.70098C57.5836 5.13504 56.4176 5.63532 55.5039 6.19285Z" fill="white"/>
<path fill-rule="evenodd" clip-rule="evenodd" d="M96.4501 21.9234C99.1425 21.9234 101.325 19.7408 101.325 17.0484C101.325 14.356 99.1425 12.1734 96.4501 12.1734C93.7577 12.1734 91.5751 14.356 91.5751 17.0484C91.5751 19.7408 93.7577 21.9234 96.4501 21.9234ZM96.4501 22.4234C99.4186 22.4234 101.825 20.0169 101.825 17.0484C101.825 14.0799 99.4186 11.6734 96.4501 11.6734C93.4816 11.6734 91.0751 14.0799 91.0751 17.0484C91.0751 20.0169 93.4816 22.4234 96.4501 22.4234Z" fill="white"/>
<path d="M93.4964 17.0484C93.4964 18.3856 92.4123 19.4697 91.075 19.4697C89.7378 19.4697 88.6537 18.3856 88.6537 17.0484C88.6537 15.7111 89.7378 14.627 91.075 14.627C92.4123 14.627 93.4964 15.7111 93.4964 17.0484Z" fill="white"/>
<path d="M104.246 17.0484C104.246 18.3856 103.162 19.4697 101.825 19.4697C100.488 19.4697 99.4037 18.3856 99.4037 17.0484C99.4037 15.7111 100.488 14.627 101.825 14.627C103.162 14.627 104.246 15.7111 104.246 17.0484Z" fill="white"/>
<path d="M96.4502 14.0947C95.1129 14.0947 94.0288 13.0106 94.0288 11.6734C94.0288 10.3361 95.1129 9.25202 96.4502 9.25202C97.7874 9.25202 98.8715 10.3361 98.8715 11.6734C98.8715 13.0106 97.7874 14.0947 96.4502 14.0947Z" fill="white"/>
<path d="M96.4502 24.8447C95.1129 24.8447 94.0288 23.7606 94.0288 22.4234C94.0288 21.0861 95.1129 20.002 96.4502 20.002C97.7874 20.002 98.8715 21.0861 98.8715 22.4234C98.8715 23.7606 97.7874 24.8447 96.4502 24.8447Z" fill="white"/>
<path d="M99.1376 30.4791C99.1376 31.5146 98.2981 32.3541 97.2626 32.3541C96.2271 32.3541 95.3876 31.5146 95.3876 30.4791C95.3876 29.4435 96.2271 28.6041 97.2626 28.6041C98.2981 28.6041 99.1376 29.4435 99.1376 30.4791Z" fill="white"/>
<path d="M57.7626 28.3345C57.7626 29.3701 56.9231 30.2095 55.8876 30.2095C54.8521 30.2095 54.0126 29.3701 54.0126 28.3345C54.0126 27.299 54.8521 26.4595 55.8876 26.4595C56.9231 26.4595 57.7626 27.299 57.7626 28.3345Z" fill="white"/>
<path d="M104.046 26.5323C104.046 27.5678 103.207 28.4073 102.171 28.4073C101.136 28.4073 100.296 27.5678 100.296 26.5323C100.296 25.4968 101.136 24.6573 102.171 24.6573C103.207 24.6573 104.046 25.4968 104.046 26.5323Z" fill="white"/>
<path d="M63.1388 17.1828C63.1388 19.5649 61.2078 21.4959 58.8257 21.4959C56.4436 21.4959 54.5126 19.5649 54.5126 17.1828C54.5126 14.8007 56.4436 12.8697 58.8257 12.8697C61.2078 12.8697 63.1388 14.8007 63.1388 17.1828Z" fill="white"/>
<path d="M91.0749 28.0407C91.0749 30.4228 89.1438 32.3538 86.7618 32.3538C84.3797 32.3538 82.4486 30.4228 82.4486 28.0407C82.4486 25.6587 84.3797 23.7276 86.7618 23.7276C89.1438 23.7276 91.0749 25.6587 91.0749 28.0407Z" fill="white"/>
<path d="M53.6629 24.2417C53.6629 25.0081 53.0416 25.6294 52.2753 25.6294C51.5089 25.6294 50.8876 25.0081 50.8876 24.2417C50.8876 23.4753 51.5089 22.8541 52.2753 22.8541C53.0416 22.8541 53.6629 23.4753 53.6629 24.2417Z" fill="white"/>
<path d="M65.5124 23.7477C65.5505 23.4972 65.7426 23.2981 65.9916 23.251C66.7209 23.1133 67.4696 23.1133 68.1989 23.251C68.4479 23.2981 68.64 23.4972 68.6781 23.7477L68.7061 23.9322C68.8357 24.7852 68.8357 25.6529 68.7061 26.5059L68.6781 26.6904C68.64 26.9409 68.4479 27.14 68.1989 27.1871C67.4696 27.3248 66.7209 27.3248 65.9916 27.1871C65.7426 27.14 65.5505 26.9409 65.5124 26.6904L65.4844 26.5059C65.3549 25.6529 65.3549 24.7852 65.4844 23.9322L65.5124 23.7477Z" fill="white"/>
<path d="M65.5124 29.654C65.5505 29.4035 65.7426 29.2043 65.9916 29.1573C66.7209 29.0195 67.4696 29.0195 68.1989 29.1573C68.4479 29.2043 68.64 29.4035 68.6781 29.654L68.7061 29.8385C68.8357 30.6915 68.8357 31.5591 68.7061 32.4121L68.6781 32.5966C68.64 32.8471 68.4479 33.0463 68.1989 33.0933C67.4696 33.2311 66.7209 33.2311 65.9916 33.0933C65.7426 33.0463 65.5505 32.8471 65.5124 32.5966L65.4844 32.4121C65.3549 31.5591 65.3549 30.6915 65.4844 29.8385L65.5124 29.654Z" fill="white"/>
<path d="M62.6709 29.7549C62.4204 29.7169 62.2212 29.5247 62.1742 29.2758C62.0364 28.5464 62.0364 27.7978 62.1742 27.0684C62.2212 26.8194 62.4204 26.6273 62.6709 26.5893L62.8554 26.5612C63.7084 26.4317 64.5761 26.4317 65.429 26.5612L65.6135 26.5893C65.864 26.6273 66.0632 26.8194 66.1102 27.0684C66.248 27.7978 66.248 28.5464 66.1102 29.2758C66.0632 29.5247 65.864 29.7169 65.6135 29.7549L65.429 29.7829C64.5761 29.9125 63.7084 29.9125 62.8554 29.7829L62.6709 29.7549Z" fill="white"/>
<path d="M68.5772 29.7549C68.3266 29.7169 68.1275 29.5247 68.0805 29.2758C67.9427 28.5464 67.9427 27.7978 68.0805 27.0684C68.1275 26.8194 68.3266 26.6273 68.5772 26.5893L68.7617 26.5612C69.6146 26.4317 70.4823 26.4317 71.3353 26.5612L71.5198 26.5893C71.7703 26.6273 71.9695 26.8194 72.0165 27.0684C72.1543 27.7978 72.1543 28.5464 72.0165 29.2758C71.9695 29.5247 71.7703 29.7169 71.5198 29.7549L71.3353 29.7829C70.4823 29.9125 69.6146 29.9125 68.7617 29.7829L68.5772 29.7549Z" fill="white"/>
<path d="M65.6391 26.809H68.4828V29.6322H65.6391V26.809Z" fill="white"/>
<path fill-rule="evenodd" clip-rule="evenodd" d="M67.0951 34.4219C70.5469 34.4219 73.3451 31.6237 73.3451 28.1719C73.3451 24.7202 70.5469 21.9219 67.0951 21.9219C63.6433 21.9219 60.8451 24.7202 60.8451 28.1719C60.8451 31.6237 63.6433 34.4219 67.0951 34.4219ZM67.0951 34.9219C70.823 34.9219 73.8451 31.8999 73.8451 28.1719C73.8451 24.444 70.823 21.4219 67.0951 21.4219C63.3672 21.4219 60.3451 24.444 60.3451 28.1719C60.3451 31.8999 63.3672 34.9219 67.0951 34.9219Z" fill="white"/>
<path fill-rule="evenodd" clip-rule="evenodd" d="M67.0951 32.9961C69.7594 32.9961 71.9193 30.8363 71.9193 28.1719C71.9193 25.5076 69.7594 23.3477 67.0951 23.3477C64.4308 23.3477 62.2709 25.5076 62.2709 28.1719C62.2709 30.8363 64.4308 32.9961 67.0951 32.9961ZM67.0951 33.4961C70.0356 33.4961 72.4193 31.1124 72.4193 28.1719C72.4193 25.2315 70.0356 22.8477 67.0951 22.8477C64.1546 22.8477 61.7709 25.2315 61.7709 28.1719C61.7709 31.1124 64.1546 33.4961 67.0951 33.4961Z" fill="white"/>
<path fill-rule="evenodd" clip-rule="evenodd" d="M48.7249 19.5052C49.0197 32.9183 57.2752 38.101 61.174 38.8886L60.976 39.8688C56.6248 38.9898 48.0303 33.414 47.7251 19.5272L48.7249 19.5052Z" fill="white"/>
<path fill-rule="evenodd" clip-rule="evenodd" d="M106.421 19.5052C106.127 32.9183 97.8711 38.101 93.9723 38.8886L94.1703 39.8688C98.5215 38.9898 107.116 33.414 107.421 19.5272L106.421 19.5052Z" fill="white"/>
</g>
</g>
</svg>
