<svg width="533" height="135" viewBox="0 0 533 135" fill="none" xmlns="http://www.w3.org/2000/svg">
<path d="M0 134.753C3.52093 132.746 7.26317 130.385 12.8645 126.826C31.7769 105.498 54.3176 75.4234 65.2757 59.4282V53.2341C53.7539 70.2708 24.5683 110.427 0 134.753Z" fill="url(#paint0_linear)"/>
<path d="M65.2763 88.839C45.9838 104.498 26.8354 117.949 12.8652 126.826C31.7734 105.498 54.3224 75.4173 65.2763 59.4281V88.839Z" fill="url(#paint1_radial)"/>
<path d="M86.5003 35.1718C68.6365 28.5286 29.1185 12.1921 14.3809 0C15.5232 1.87669 18.1922 5.44214 22.7406 10.6988C40.7324 21.8217 71.3752 34.3984 86.5003 40.023V35.1718Z" fill="url(#paint2_linear)"/>
<path d="M86.4999 40.023V70.7767C79.661 77.1131 72.4073 83.0449 65.2755 88.839C65.2755 71.5965 65.2755 53.2341 65.2755 53.2341C44.1902 34.0192 30.6393 19.8278 22.7402 10.6988C40.7176 21.8128 71.3621 34.3918 86.4999 40.023Z" fill="url(#paint3_radial)"/>
<path d="M173 134.753C169.479 132.746 165.737 130.385 160.135 126.826C141.223 105.498 118.682 75.4234 107.724 59.4282V53.2341C119.246 70.2708 148.432 110.427 173 134.753Z" fill="url(#paint4_linear)"/>
<path d="M107.724 88.839C127.016 104.498 146.165 117.949 160.135 126.826C141.227 105.498 118.678 75.4173 107.724 59.4281V88.839Z" fill="url(#paint5_radial)"/>
<path d="M86.4997 35.1718C104.364 28.5286 143.881 12.1921 158.619 0C157.477 1.87669 154.808 5.44214 150.259 10.6988C132.268 21.8217 101.625 34.3984 86.4997 40.023V35.1718Z" fill="url(#paint6_linear)"/>
<path d="M86.5001 40.023V70.7767C93.339 77.1131 100.593 83.0449 107.724 88.839C107.724 71.5965 107.724 53.2341 107.724 53.2341C128.81 34.0192 142.361 19.8278 150.26 10.6988C132.282 21.8128 101.638 34.3918 86.5001 40.023Z" fill="url(#paint7_radial)"/>
<path fill-rule="evenodd" clip-rule="evenodd" d="M150.26 10.6988C142.361 19.8278 128.81 34.0192 107.725 53.2341C115.792 65.1634 132.521 88.4279 150.26 109.656V10.6988Z" fill="url(#paint8_radial)"/>
<path fill-rule="evenodd" clip-rule="evenodd" d="M14.3809 0H158.62C143.882 12.1921 104.364 28.5286 86.5003 35.1718C68.6365 28.5286 29.1185 12.1921 14.3809 0Z" fill="url(#paint9_radial)"/>
<path d="M533 39.1877H532.099L531.013 42.6115C530.861 42.8231 530.768 43.0714 530.744 43.3308C530.637 43.1294 530.546 42.9192 530.474 42.7025L529.299 39.1877H528.397V44.0547H528.939V39.9094L530.383 44.0547H530.92L532.365 39.9982V44.0547H532.996V39.1877H533ZM526.148 39.816H527.68V39.1877H523.895V39.816H525.518V44.0547H526.148V39.816ZM503.851 39.1946L476.698 61.1643L449.679 39.1946H434.398L469.193 67.306L434.398 95.4152H449.679L476.698 73.3089L503.851 95.4152H518.996L484.337 67.306L518.996 39.1946H503.851ZM429.895 67.306C429.895 54.7516 426.621 45.4752 420.345 39.1946H364.81C358.258 45.4752 354.985 54.7516 354.985 67.306C354.985 79.8582 358.258 89.1368 364.81 95.4174H420.345C426.621 89.1345 429.895 79.7216 429.895 67.306ZM420.616 67.306C420.616 71.5356 419.665 75.8995 417.887 80.4068L415.294 86.2731H369.718L367.125 80.4068C365.215 75.9017 364.396 71.5379 364.396 67.306C364.396 60.6202 366.171 54.3418 369.718 48.4755H415.294C418.843 54.3396 420.616 60.6202 420.616 67.306ZM340.796 69.6257V64.9863L344.889 62.801C343.933 52.2953 340.796 44.3825 335.474 39.1946H279.936C274.614 44.2459 271.34 52.1588 270.521 62.6644H261.518V71.9453H270.521C271.34 82.4487 274.614 90.2295 279.936 95.4174H335.474C340.796 90.0929 343.931 82.3167 344.889 71.9453L340.796 69.6257ZM330.425 48.4732C332.991 52.8406 334.704 57.6555 335.474 62.6621H279.936C280.756 57.3421 282.392 52.7028 284.985 48.4732H330.425ZM335.474 71.9453C334.705 76.9959 332.992 81.8566 330.425 86.2731H284.985C282.392 82.0435 280.756 77.2676 279.936 71.9453H335.474Z" fill="#93C83E"/>
<path d="M230.952 67.3057L265.608 39.1943H250.327L223.31 61.1639L196.157 39.1943H181.146L215.668 67.3057L181.146 95.4148H196.157L223.31 73.3086L250.327 95.4148H265.608L230.952 67.3057V67.3057Z" fill="#93C83E"/>
<path d="M170.098 0H170.805V3.83776H170.308V0.639033L169.168 3.83776H168.745L167.607 0.569025V3.83776H167.179V0H167.89L168.817 2.77153C168.874 2.94238 168.945 3.10808 169.03 3.26693C169.049 3.06237 169.122 2.86657 169.242 2.69971L170.098 0Z" fill="#93C83E"/>
<path d="M166.614 0.495428H165.406V3.83776H164.909V0.495428H163.629V0H166.614V0.495428Z" fill="#93C83E"/>
<defs>
<linearGradient id="paint0_linear" x1="46.3903" y1="79.3964" x2="4.56735e-06" y2="134.233" gradientUnits="userSpaceOnUse">
<stop stop-color="#D0D1D3"/>
<stop offset="1" stop-color="#9B9FA1"/>
</linearGradient>
<radialGradient id="paint1_radial" cx="0" cy="0" r="1" gradientUnits="userSpaceOnUse" gradientTransform="translate(61.5928 58.0883) rotate(124.701) scale(100.02 56.6779)">
<stop offset="0.106636" stop-color="#437726"/>
<stop offset="0.475478" stop-color="#ACCE32"/>
</radialGradient>
<linearGradient id="paint2_linear" x1="14.3809" y1="0.996243" x2="86.5003" y2="37.0343" gradientUnits="userSpaceOnUse">
<stop stop-color="#9C9FA1"/>
<stop offset="0.778966" stop-color="#FCFCFC"/>
</linearGradient>
<radialGradient id="paint3_radial" cx="0" cy="0" r="1" gradientUnits="userSpaceOnUse" gradientTransform="translate(86.4999 41.8856) rotate(-156.772) scale(87.861 31.9625)">
<stop stop-color="#65BA45"/>
<stop offset="1" stop-color="#D5DD24"/>
</radialGradient>
<linearGradient id="paint4_linear" x1="137.352" y1="90.0085" x2="173" y2="134.233" gradientUnits="userSpaceOnUse">
<stop stop-color="white"/>
<stop offset="1" stop-color="#9B9FA1"/>
</linearGradient>
<radialGradient id="paint5_radial" cx="0" cy="0" r="1" gradientUnits="userSpaceOnUse" gradientTransform="translate(111.407 58.0883) rotate(55.2988) scale(100.02 56.6779)">
<stop offset="0.106636" stop-color="#437726"/>
<stop offset="0.475478" stop-color="#ACCE32"/>
</radialGradient>
<linearGradient id="paint6_linear" x1="158.619" y1="0.996243" x2="86.4997" y2="37.0343" gradientUnits="userSpaceOnUse">
<stop offset="0.410636" stop-color="#9C9FA1"/>
<stop offset="1" stop-color="#D6D6D6"/>
</linearGradient>
<radialGradient id="paint7_radial" cx="0" cy="0" r="1" gradientUnits="userSpaceOnUse" gradientTransform="translate(81.7355 37.5974) rotate(-28.9797) scale(102.99 39.0963)">
<stop offset="0.137339" stop-color="#337327"/>
<stop offset="1" stop-color="#D5DD24"/>
</radialGradient>
<radialGradient id="paint8_radial" cx="0" cy="0" r="1" gradientUnits="userSpaceOnUse" gradientTransform="translate(102.354 58.8217) rotate(-12.4855) scale(49.6878 77.4889)">
<stop stop-opacity="0.26"/>
<stop offset="1" stop-opacity="0"/>
</radialGradient>
<radialGradient id="paint9_radial" cx="0" cy="0" r="1" gradientUnits="userSpaceOnUse" gradientTransform="translate(93.3441 32.4862) rotate(-88.3397) scale(23.9199 94.8363)">
<stop stop-opacity="0.22"/>
<stop offset="1" stop-opacity="0"/>
</radialGradient>
</defs>
</svg>
