<svg xmlns="http://www.w3.org/2000/svg" width="534" height="135" fill="none" viewBox="0 0 534 135">
  <defs>
    <radialGradient id="mainlogo__b" cx="0" cy="0" r="1" gradientTransform="matrix(-56.94077 82.22985 -46.59683 -32.26638 61.791 58.088)" gradientUnits="userSpaceOnUse">
      <stop offset=".107" stop-color="#437726"/>
      <stop offset=".475" stop-color="#ACCE32"/>
    </radialGradient>
    <radialGradient id="mainlogo__d" cx="0" cy="0" r="1" gradientTransform="matrix(-80.73923 -34.6516 12.60572 -29.3717 86.699 41.886)" gradientUnits="userSpaceOnUse">
      <stop stop-color="#65BA45"/>
      <stop offset="1" stop-color="#D5DD24"/>
    </radialGradient>
    <radialGradient id="mainlogo__f" cx="0" cy="0" r="1" gradientTransform="matrix(56.94106 82.22965 -46.59672 32.26654 111.606 58.088)" gradientUnits="userSpaceOnUse">
      <stop offset=".107" stop-color="#437726"/>
      <stop offset=".475" stop-color="#ACCE32"/>
    </radialGradient>
    <radialGradient id="mainlogo__h" cx="0" cy="0" r="1" gradientTransform="rotate(-28.98 113.71 -139.725) scale(102.99 39.0963)" gradientUnits="userSpaceOnUse">
      <stop offset=".137" stop-color="#337327"/>
      <stop offset="1" stop-color="#D5DD24"/>
    </radialGradient>
    <radialGradient id="mainlogo__i" cx="0" cy="0" r="1" gradientTransform="rotate(-12.486 320.141 -439.335) scale(49.6878 77.4889)" gradientUnits="userSpaceOnUse">
      <stop stop-opacity=".26"/>
      <stop offset="1" stop-opacity="0"/>
    </radialGradient>
    <radialGradient id="mainlogo__j" cx="0" cy="0" r="1" gradientTransform="rotate(-88.34 63.492 -31.903) scale(23.9199 94.8363)" gradientUnits="userSpaceOnUse">
      <stop stop-opacity=".22"/>
      <stop offset="1" stop-opacity="0"/>
    </radialGradient>
    <linearGradient id="mainlogo__a" x1="46.589" x2=".199" y1="79.397" y2="134.233" gradientUnits="userSpaceOnUse">
      <stop stop-color="#D0D1D3"/>
      <stop offset="1" stop-color="#9B9FA1"/>
    </linearGradient>
    <linearGradient id="mainlogo__c" x1="14.579" x2="86.698" y1=".996" y2="37.034" gradientUnits="userSpaceOnUse">
      <stop stop-color="#9C9FA1"/>
      <stop offset=".779" stop-color="#FCFCFC"/>
    </linearGradient>
    <linearGradient id="mainlogo__e" x1="137.551" x2="173.199" y1="90.009" y2="134.233" gradientUnits="userSpaceOnUse">
      <stop stop-color="#fff"/>
      <stop offset="1" stop-color="#9B9FA1"/>
    </linearGradient>
    <linearGradient id="mainlogo__g" x1="158.818" x2="86.699" y1=".996" y2="37.034" gradientUnits="userSpaceOnUse">
      <stop offset=".411" stop-color="#9C9FA1"/>
      <stop offset="1" stop-color="#D6D6D6"/>
    </linearGradient>
  </defs>
  <path fill="url(#mainlogo__a)" d="M.199 134.753c3.52-2.006 7.263-4.368 12.864-7.926 18.913-21.329 41.453-51.403 52.411-67.399v-6.194C53.953 70.271 24.767 110.427.2 134.753Z"/>
  <path fill="url(#mainlogo__b)" d="M65.475 88.839c-19.293 15.659-38.441 29.11-52.411 37.987 18.908-21.328 41.457-51.41 52.41-67.398v29.41Z"/>
  <path fill="url(#mainlogo__c)" d="M86.698 35.172C68.835 28.529 29.317 12.192 14.58 0c1.142 1.877 3.811 5.442 8.36 10.699 17.992 11.123 48.634 23.7 63.76 29.324v-4.851Z"/>
  <path fill="url(#mainlogo__d)" d="M86.699 40.023v30.754c-6.84 6.337-14.093 12.268-21.225 18.062V53.234C44.39 34.02 30.838 19.828 22.94 10.7c17.977 11.114 48.622 23.693 63.76 29.325Z"/>
  <path fill="url(#mainlogo__e)" d="M173.199 134.753c-3.521-2.006-7.263-4.368-12.865-7.926-18.912-21.329-41.453-51.403-52.411-67.399v-6.194c11.522 17.037 40.707 57.193 65.276 81.519Z"/>
  <path fill="url(#mainlogo__f)" d="M107.923 88.839c19.292 15.659 38.441 29.11 52.411 37.987-18.908-21.328-41.457-51.41-52.411-67.398v29.41Z"/>
  <path fill="url(#mainlogo__g)" d="M86.699 35.172C104.563 28.529 144.08 12.192 158.818 0c-1.142 1.877-3.811 5.442-8.359 10.699-17.992 11.123-48.635 23.7-63.76 29.324v-4.851Z"/>
  <path fill="url(#mainlogo__h)" d="M86.699 40.023v30.754c6.839 6.337 14.092 12.268 21.224 18.062V53.234c21.086-19.214 34.636-33.406 42.535-42.535-17.977 11.114-48.621 23.693-63.76 29.325Z"/>
  <path fill="url(#mainlogo__i)" fill-rule="evenodd" d="M150.458 10.7c-7.899 9.128-21.45 23.32-42.535 42.535 8.068 11.929 24.796 35.193 42.535 56.422V10.699Z" clip-rule="evenodd"/>
  <path fill="url(#mainlogo__j)" fill-rule="evenodd" d="M14.58 0h144.238c-14.738 12.192-54.256 28.529-72.12 35.172C68.835 28.529 29.317 12.192 14.58 0Z" clip-rule="evenodd"/>
  <path fill="#93C83E" d="M533.199 39.188h-.902l-1.086 3.423c-.152.212-.244.46-.268.72a4.001 4.001 0 0 1-.271-.629l-1.175-3.514h-.901v4.866h.542V39.91l1.443 4.145h.537l1.446-4.056v4.056h.63v-4.867h.005Zm-6.852.628h1.532v-.629h-3.786v.629h1.623v4.238h.631v-4.238Zm-22.298-.622-27.153 21.97-27.019-21.97h-15.281l34.795 28.112-34.795 28.109h15.281l27.019-22.106 27.153 22.106h15.145l-34.658-28.11 34.658-28.11h-15.145Zm-73.956 28.112c0-12.555-3.273-21.831-9.55-28.112h-55.535c-6.551 6.281-9.825 15.557-9.825 28.112 0 12.552 3.274 21.83 9.825 28.111h55.535c6.277-6.283 9.55-15.696 9.55-28.111Zm-9.279 0c0 4.23-.951 8.593-2.729 13.1l-2.593 5.867h-45.576l-2.593-5.867c-1.91-4.505-2.729-8.868-2.729-13.1 0-6.686 1.775-12.964 5.322-18.83h45.576c3.549 5.863 5.322 12.144 5.322 18.83Zm-79.82 2.32v-4.64l4.093-2.185c-.956-10.506-4.093-18.419-9.415-23.607h-55.538c-5.322 5.052-8.595 12.964-9.415 23.47h-9.003v9.281h9.003c.82 10.504 4.093 18.284 9.415 23.472h55.538c5.322-5.324 8.457-13.1 9.415-23.472l-4.093-2.32Zm-10.371-21.153a40.017 40.017 0 0 1 5.049 14.189h-55.538c.82-5.32 2.457-9.96 5.049-14.189h45.44Zm5.049 23.472a40.667 40.667 0 0 1-5.049 14.328h-45.44c-2.592-4.23-4.229-9.006-5.049-14.328h55.538Z"/>
  <path fill="#93C83E" d="m231.151 67.305 34.656-28.112h-15.282l-27.016 21.97-27.153-21.97h-15.011l34.522 28.112-34.522 28.109h15.011l27.153-22.106 27.016 22.106h15.282l-34.656-28.11ZM170.297 0h.707v3.838h-.497V.639l-1.14 3.199h-.424L167.805.569v3.269h-.427V0h.711l.926 2.772c.057.17.129.336.214.495.019-.205.092-.4.212-.567l.856-2.7ZM166.813.495h-1.208v3.343h-.498V.495h-1.279V0h2.985v.495Z"/>
</svg>
