<?xml version="1.0" encoding="utf-8"?>
<!-- Generator: Adobe Illustrator 25.2.1, SVG Export Plug-In . SVG Version: 6.00 Build 0)  -->
<svg version="1.1" id="Layer_1" xmlns="http://www.w3.org/2000/svg" xmlns:xlink="http://www.w3.org/1999/xlink" x="0px" y="0px"
	 viewBox="0 0 533 135" style="enable-background:new 0 0 533 135;" xml:space="preserve">
<linearGradient id="SVGID_1_" gradientUnits="userSpaceOnUse" x1="47.4128" y1="55.6284" x2="1.0225" y2="0.7918" gradientTransform="matrix(1 0 0 -1 0 135.8898)">
	<stop  offset="0" style="stop-color:#D0D1D3"/>
	<stop  offset="1" style="stop-color:#9B9FA1"/>
</linearGradient>
<path style="fill:url(#SVGID_1_);" d="M0,134.8c3.5-2,7.3-4.4,12.9-7.9c18.9-21.3,41.5-51.4,52.4-67.4v-6.2
	C53.8,70.3,24.6,110.4,0,134.8z"/>
<radialGradient id="SVGID_2_" cx="-28.2749" cy="492.8852" r="1" gradientTransform="matrix(-56.9408 82.2299 46.5968 32.2664 -24515.291 -13520.4893)" gradientUnits="userSpaceOnUse">
	<stop  offset="0.1066" style="stop-color:#437726"/>
	<stop  offset="0.4755" style="stop-color:#ACCE32"/>
</radialGradient>
<path style="fill:url(#SVGID_2_);" d="M65.3,88.8c-19.3,15.7-38.4,29.1-52.4,38c18.9-21.3,41.5-51.4,52.4-67.4V88.8z"/>
<linearGradient id="SVGID_3_" gradientUnits="userSpaceOnUse" x1="13.4935" y1="133.1178" x2="85.6129" y2="97.0797" gradientTransform="matrix(1 0 0 -1 0 135.8898)">
	<stop  offset="0" style="stop-color:#9C9FA1"/>
	<stop  offset="0.779" style="stop-color:#FCFCFC"/>
</linearGradient>
<path style="fill:url(#SVGID_3_);" d="M86.5,35.2C68.6,28.5,29.1,12.2,14.4,0c1.1,1.9,3.8,5.4,8.4,10.7c18,11.1,48.6,23.7,63.8,29.3
	V35.2z"/>
<radialGradient id="SVGID_4_" cx="-32.9088" cy="498.6563" r="1" gradientTransform="matrix(-80.7392 -34.6516 -12.6057 29.3717 3715.3933 -15744.8428)" gradientUnits="userSpaceOnUse">
	<stop  offset="0" style="stop-color:#65BA45"/>
	<stop  offset="1" style="stop-color:#D5DD24"/>
</radialGradient>
<path style="fill:url(#SVGID_4_);" d="M86.5,40v30.8C79.7,77.1,72.4,83,65.3,88.8c0-17.2,0-35.6,0-35.6C44.2,34,30.6,19.8,22.7,10.7
	C40.7,21.8,71.4,34.4,86.5,40z"/>
<linearGradient id="SVGID_5_" gradientUnits="userSpaceOnUse" x1="135.0514" y1="44.0269" x2="170.6994" y2="-0.1976" gradientTransform="matrix(1 0 0 -1 0 135.8898)">
	<stop  offset="0" style="stop-color:#FFFFFF"/>
	<stop  offset="1" style="stop-color:#9B9FA1"/>
</linearGradient>
<path style="fill:url(#SVGID_5_);" d="M173,134.8c-3.5-2-7.3-4.4-12.9-7.9c-18.9-21.3-41.5-51.4-52.4-67.4v-6.2
	C119.2,70.3,148.4,110.4,173,134.8z"/>
<radialGradient id="SVGID_6_" cx="-27.922" cy="485.7938" r="1" gradientTransform="matrix(56.9411 82.2297 46.5967 -32.2665 -20935.084 18028.9902)" gradientUnits="userSpaceOnUse">
	<stop  offset="0.1066" style="stop-color:#437726"/>
	<stop  offset="0.4755" style="stop-color:#ACCE32"/>
</radialGradient>
<path style="fill:url(#SVGID_6_);" d="M107.7,88.8c19.3,15.7,38.4,29.1,52.4,38c-18.9-21.3-41.5-51.4-52.4-67.4V88.8z"/>
<linearGradient id="SVGID_7_" gradientUnits="userSpaceOnUse" x1="159.5064" y1="133.1178" x2="87.3871" y2="97.0797" gradientTransform="matrix(1 0 0 -1 0 135.8898)">
	<stop  offset="0.4106" style="stop-color:#9C9FA1"/>
	<stop  offset="1" style="stop-color:#D6D6D6"/>
</linearGradient>
<path style="fill:url(#SVGID_7_);" d="M86.5,35.2c17.9-6.6,57.4-23,72.1-35.2c-1.1,1.9-3.8,5.4-8.4,10.7
	c-18,11.1-48.6,23.7-63.8,29.3V35.2z"/>
<radialGradient id="SVGID_8_" cx="-32.3973" cy="480.6072" r="1" gradientTransform="matrix(90.0948 -49.8986 -18.9421 -34.2011 12104.2959 14858.3135)" gradientUnits="userSpaceOnUse">
	<stop  offset="0.1373" style="stop-color:#337327"/>
	<stop  offset="1" style="stop-color:#D5DD24"/>
</radialGradient>
<path style="fill:url(#SVGID_8_);" d="M86.5,40v30.8c6.8,6.3,14.1,12.3,21.2,18.1c0-17.2,0-35.6,0-35.6
	c21.1-19.2,34.6-33.4,42.5-42.5C132.3,21.8,101.6,34.4,86.5,40z"/>
<radialGradient id="SVGID_9_" cx="-31.9268" cy="484.3556" r="1" gradientTransform="matrix(48.5127 -10.7421 -16.7525 -75.6563 9765.3857 36360.4336)" gradientUnits="userSpaceOnUse">
	<stop  offset="0" style="stop-color:#000000;stop-opacity:0.26"/>
	<stop  offset="1" style="stop-color:#000000;stop-opacity:0"/>
</radialGradient>
<path style="fill-rule:evenodd;clip-rule:evenodd;fill:url(#SVGID_9_);" d="M150.3,10.7c-7.9,9.1-21.4,23.3-42.5,42.5
	c8.1,11.9,24.8,35.2,42.5,56.4V10.7z"/>
<radialGradient id="SVGID_10_" cx="-45.7138" cy="488.4552" r="1" gradientTransform="matrix(0.693 -23.9099 -94.7965 -2.7478 46428.8711 281.6303)" gradientUnits="userSpaceOnUse">
	<stop  offset="0" style="stop-color:#000000;stop-opacity:0.22"/>
	<stop  offset="1" style="stop-color:#000000;stop-opacity:0"/>
</radialGradient>
<path style="fill-rule:evenodd;clip-rule:evenodd;fill:url(#SVGID_10_);" d="M14.4,0h144.2c-14.7,12.2-54.3,28.5-72.1,35.2
	C68.6,28.5,29.1,12.2,14.4,0z"/>
<path style="fill:#93C83E;" d="M533,39.2h-0.9l-1.1,3.4c-0.2,0.2-0.2,0.5-0.3,0.7c-0.1-0.2-0.2-0.4-0.3-0.6l-1.2-3.5h-0.9v4.9h0.5
	v-4.1l1.4,4.1h0.5l1.4-4.1v4.1h0.6L533,39.2L533,39.2z M526.1,39.8h1.5v-0.6h-3.8v0.6h1.6v4.2h0.6V39.8z M503.9,39.2l-27.2,22
	l-27-22h-15.3l34.8,28.1l-34.8,28.1h15.3l27-22.1l27.2,22.1H519l-34.7-28.1L519,39.2H503.9z M429.9,67.3c0-12.6-3.3-21.8-9.5-28.1
	h-55.5c-6.6,6.3-9.8,15.6-9.8,28.1c0,12.6,3.3,21.8,9.8,28.1h55.5C426.6,89.1,429.9,79.7,429.9,67.3z M420.6,67.3
	c0,4.2-1,8.6-2.7,13.1l-2.6,5.9h-45.6l-2.6-5.9c-1.9-4.5-2.7-8.9-2.7-13.1c0-6.7,1.8-13,5.3-18.8h45.6
	C418.8,54.3,420.6,60.6,420.6,67.3z M340.8,69.6V65l4.1-2.2c-1-10.5-4.1-18.4-9.4-23.6h-55.5c-5.3,5.1-8.6,13-9.4,23.5h-9v9.3h9
	c0.8,10.5,4.1,18.3,9.4,23.5h55.5c5.3-5.3,8.5-13.1,9.4-23.5L340.8,69.6z M330.4,48.5c2.6,4.4,4.3,9.2,5,14.2h-55.5
	c0.8-5.3,2.5-10,5-14.2H330.4z M335.5,71.9c-0.8,5.1-2.5,9.9-5,14.3H285c-2.6-4.2-4.2-9-5-14.3H335.5z"/>
<path style="fill:#93C83E;" d="M231,67.3l34.7-28.1h-15.3l-27,22l-27.2-22h-15l34.5,28.1l-34.5,28.1h15l27.2-22.1l27,22.1h15.3
	L231,67.3L231,67.3z"/>
<path style="fill:#93C83E;" d="M170.1,0h0.7v3.8h-0.5V0.6l-1.1,3.2h-0.4l-1.1-3.3v3.3h-0.4V0h0.7l0.9,2.8c0.1,0.2,0.1,0.3,0.2,0.5
	c0-0.2,0.1-0.4,0.2-0.6L170.1,0z"/>
<path style="fill:#93C83E;" d="M166.6,0.5h-1.2v3.3h-0.5V0.5h-1.3V0h3V0.5z"/>
</svg>
