<svg width="533" height="135" viewBox="0 0 533 135" fill="none" xmlns="http://www.w3.org/2000/svg">
<path d="M83.7949 34.1544C64.916 26.9766 28.4121 11.6094 14.3809 0C15.5234 1.87671 18.1914 5.44214 22.7402 10.6988C30.6387 19.8278 44.1895 34.0192 65.2754 53.2341L65.2578 53.2598L65.2812 53.25V83.25L61.1953 59.1658C47.8145 78.3439 22.0469 112.922 0 134.753C3.52148 132.746 7.26367 130.385 12.8652 126.826C26.834 117.949 45.9824 104.498 65.2754 88.839C72.4082 83.045 79.6602 77.113 86.5 70.7767C93.3379 77.113 100.592 83.045 107.725 88.839C127.018 104.498 146.166 117.949 160.135 126.826C165.736 130.385 169.479 132.746 173 134.753C150.967 112.936 125.219 78.3872 111.83 59.2018L107.75 83.25V53.2717L107.725 53.2341C128.811 34.0192 142.361 19.8278 150.26 10.6988C154.809 5.44214 157.477 1.87671 158.619 0C144.588 11.609 108.088 26.9755 89.207 34.1536L86.502 65.25L83.7949 34.1544Z" fill="white"/>
<path d="M533 39.1877H532.099L531.013 42.6115C530.861 42.8231 530.768 43.0714 530.744 43.3308C530.637 43.1294 530.546 42.9192 530.474 42.7025L529.299 39.1877H528.397V44.0547H528.939V39.9094L530.383 44.0547H530.92L532.365 39.9982V44.0547H532.996V39.1877H533ZM526.148 39.816H527.68V39.1877H523.895V39.816H525.518V44.0547H526.148V39.816ZM503.851 39.1946L476.698 61.1643L449.679 39.1946H434.398L469.193 67.306L434.398 95.4152H449.679L476.698 73.3089L503.851 95.4152H518.996L484.337 67.306L518.996 39.1946H503.851ZM429.895 67.306C429.895 54.7516 426.621 45.4752 420.345 39.1946H364.81C358.258 45.4752 354.985 54.7516 354.985 67.306C354.985 79.8582 358.258 89.1368 364.81 95.4174H420.345C426.621 89.1345 429.895 79.7216 429.895 67.306ZM420.616 67.306C420.616 71.5356 419.665 75.8995 417.887 80.4068L415.294 86.2731H369.718L367.125 80.4068C365.215 75.9017 364.396 71.5379 364.396 67.306C364.396 60.6202 366.171 54.3418 369.718 48.4755H415.294C418.843 54.3396 420.616 60.6202 420.616 67.306ZM340.796 69.6257V64.9863L344.889 62.801C343.933 52.2953 340.796 44.3825 335.474 39.1946H279.936C274.614 44.2459 271.34 52.1588 270.521 62.6644H261.518V71.9453H270.521C271.34 82.4487 274.614 90.2295 279.936 95.4174H335.474C340.796 90.0929 343.931 82.3167 344.889 71.9453L340.796 69.6257ZM330.425 48.4732C332.991 52.8406 334.704 57.6555 335.474 62.6621H279.936C280.756 57.3421 282.392 52.7028 284.985 48.4732H330.425ZM335.474 71.9453C334.705 76.9959 332.992 81.8566 330.425 86.2731H284.985C282.392 82.0435 280.756 77.2676 279.936 71.9453H335.474Z" fill="white"/>
<path d="M230.952 67.3057L265.608 39.1943H250.327L223.31 61.1639L196.157 39.1943H181.146L215.668 67.3057L181.146 95.4148H196.157L223.31 73.3086L250.327 95.4148H265.608L230.952 67.3057V67.3057Z" fill="white"/>
<path d="M170.098 0H170.805V3.83776H170.308V0.639033L169.168 3.83776H168.745L167.607 0.569025V3.83776H167.179V0H167.89L168.817 2.77153C168.874 2.94238 168.945 3.10808 169.03 3.26693C169.049 3.06237 169.122 2.86657 169.242 2.69971L170.098 0Z" fill="white"/>
<path d="M166.614 0.495428H165.406V3.83776H164.909V0.495428H163.629V0H166.614V0.495428Z" fill="white"/>
</svg>
