<svg width="723" height="85" viewBox="0 0 723 85" fill="none" xmlns="http://www.w3.org/2000/svg">
<g id="gamemeta">
<g id="GAME DETAILS">
<g id="ICON DIVIDERS" opacity="0.351446">
<rect id="Rectangle" x="170" width="1" height="73" fill="white"/>
<rect id="Rectangle_2" x="361" width="1" height="73" fill="white"/>
<rect id="Rectangle_3" x="552" width="1" height="73" fill="white"/>
</g>
<g id="MD_LBL_PLAYERS INFO">
<g id="PLAYERS - ICON">
<path id="Oval" d="M258.5 8C258.5 11.5899 255.59 14.5 252 14.5C248.41 14.5 245.5 11.5899 245.5 8C245.5 4.41015 248.41 1.5 252 1.5C255.59 1.5 258.5 4.41015 258.5 8Z" stroke="white" stroke-width="3"/>
<path id="Rectangle_4" d="M239.5 25C239.5 21.9624 241.962 19.5 245 19.5H259C262.038 19.5 264.5 21.9624 264.5 25V36.5H239.5V25Z" stroke="white" stroke-width="3"/>
<path id="Oval_2" d="M287.5 8C287.5 11.5899 284.59 14.5 281 14.5C277.41 14.5 274.5 11.5899 274.5 8C274.5 4.41015 277.41 1.5 281 1.5C284.59 1.5 287.5 4.41015 287.5 8Z" stroke="white" stroke-width="3"/>
<path id="Rectangle_5" d="M268.5 25C268.5 21.9624 270.962 19.5 274 19.5H288C291.038 19.5 293.5 21.9624 293.5 25V36.5H268.5V25Z" stroke="white" stroke-width="3"/>
</g>
</g>
<g id="MD_DEVELOPER INFO">
<g id="PROCESSOR - ICON">
<g id="Group 51">
<rect id="Rectangle_6" x="420" y="13" width="8" height="3" rx="1.5" fill="white"/>
<rect id="Rectangle_7" x="420" y="18" width="8" height="3" rx="1.5" fill="white"/>
<rect id="Rectangle_8" x="420" y="23" width="8" height="3" rx="1.5" fill="white"/>
</g>
<g id="Group 52">
<rect id="Rectangle_9" x="448" y="1" width="7" height="3" rx="1.5" transform="rotate(90 448 1)" fill="white"/>
<rect id="Rectangle_10" x="443" y="1" width="7" height="3" rx="1.5" transform="rotate(90 443 1)" fill="white"/>
<rect id="Rectangle_11" x="438" y="1" width="7" height="3" rx="1.5" transform="rotate(90 438 1)" fill="white"/>
<rect id="Rectangle_12" x="463" y="1" width="7" height="3" rx="1.5" transform="rotate(90 463 1)" fill="white"/>
<rect id="Rectangle_13" x="458" y="1" width="7" height="3" rx="1.5" transform="rotate(90 458 1)" fill="white"/>
<rect id="Rectangle_14" x="453" y="1" width="7" height="3" rx="1.5" transform="rotate(90 453 1)" fill="white"/>
<rect id="Rectangle_15" x="478" y="1" width="7" height="3" rx="1.5" transform="rotate(90 478 1)" fill="white"/>
<rect id="Rectangle_16" x="468" y="1" width="7" height="3" rx="1.5" transform="rotate(90 468 1)" fill="white"/>
<rect id="Rectangle_17" x="473" y="1" width="7" height="3" rx="1.5" transform="rotate(90 473 1)" fill="white"/>
</g>
<g id="Group 52_2">
<rect id="Rectangle_18" x="448" y="31" width="7" height="3" rx="1.5" transform="rotate(90 448 31)" fill="white"/>
<rect id="Rectangle_19" x="443" y="31" width="7" height="3" rx="1.5" transform="rotate(90 443 31)" fill="white"/>
<rect id="Rectangle_20" x="438" y="31" width="7" height="3" rx="1.5" transform="rotate(90 438 31)" fill="white"/>
<rect id="Rectangle_21" x="463" y="31" width="7" height="3" rx="1.5" transform="rotate(90 463 31)" fill="white"/>
<rect id="Rectangle_22" x="458" y="31" width="7" height="3" rx="1.5" transform="rotate(90 458 31)" fill="white"/>
<rect id="Rectangle_23" x="453" y="31" width="7" height="3" rx="1.5" transform="rotate(90 453 31)" fill="white"/>
<rect id="Rectangle_24" x="478" y="31" width="7" height="3" rx="1.5" transform="rotate(90 478 31)" fill="white"/>
<rect id="Rectangle_25" x="468" y="31" width="7" height="3" rx="1.5" transform="rotate(90 468 31)" fill="white"/>
<rect id="Rectangle_26" x="473" y="31" width="7" height="3" rx="1.5" transform="rotate(90 473 31)" fill="white"/>
</g>
<g id="Group 51_2">
<rect id="Rectangle_27" x="486" y="13" width="8" height="3" rx="1.5" fill="white"/>
<rect id="Rectangle_28" x="486" y="18" width="8" height="3" rx="1.5" fill="white"/>
<rect id="Rectangle_29" x="486" y="23" width="8" height="3" rx="1.5" fill="white"/>
</g>
<path id="Rectangle (Stroke)" fill-rule="evenodd" clip-rule="evenodd" d="M428 9V30H485V9H428ZM427.556 6C426.144 6 425 7.14416 425 8.55556V30.4444C425 31.8558 426.144 33 427.556 33H485.444C486.856 33 488 31.8558 488 30.4444V8.55556C488 7.14416 486.856 6 485.444 6H427.556Z" fill="white"/>
<path id="Rectangle (Stroke)_2" fill-rule="evenodd" clip-rule="evenodd" d="M480 14H433V25H480V14ZM431 12V27H482V12H431Z" fill="white"/>
</g>
</g>
<g id="RELEASEDATE - INFO">
<g id="RELEASEDATE - ICON">
<rect id="Rectangle_30" x="632" width="10" height="3" rx="1.5" transform="rotate(90 632 0)" fill="white"/>
<rect id="Rectangle_31" x="620" y="11" width="57" height="2" fill="white"/>
<rect id="Rectangle_32" x="668" width="10" height="3" rx="1.5" transform="rotate(90 668 0)" fill="white"/>
<path id="Rectangle (Stroke)_3" fill-rule="evenodd" clip-rule="evenodd" d="M623 6V35H674V6H623ZM622.556 3C621.144 3 620 4.14416 620 5.55556V35.4444C620 36.8558 621.144 38 622.556 38H674.444C675.856 38 677 36.8558 677 35.4444V5.55556C677 4.14416 675.856 3 674.444 3H622.556Z" fill="white"/>
<path id="Oval_3" fill-rule="evenodd" clip-rule="evenodd" d="M634.5 18C635.328 18 636 17.3284 636 16.5C636 15.6716 635.328 15 634.5 15C633.672 15 633 15.6716 633 16.5C633 17.3284 633.672 18 634.5 18Z" fill="white"/>
<path id="Oval_4" fill-rule="evenodd" clip-rule="evenodd" d="M641.5 18C642.328 18 643 17.3284 643 16.5C643 15.6716 642.328 15 641.5 15C640.672 15 640 15.6716 640 16.5C640 17.3284 640.672 18 641.5 18Z" fill="white"/>
<path id="Oval_5" fill-rule="evenodd" clip-rule="evenodd" d="M648.5 18C649.328 18 650 17.3284 650 16.5C650 15.6716 649.328 15 648.5 15C647.672 15 647 15.6716 647 16.5C647 17.3284 647.672 18 648.5 18Z" fill="white"/>
<path id="Oval_6" fill-rule="evenodd" clip-rule="evenodd" d="M655.5 18C656.328 18 657 17.3284 657 16.5C657 15.6716 656.328 15 655.5 15C654.672 15 654 15.6716 654 16.5C654 17.3284 654.672 18 655.5 18Z" fill="white"/>
<path id="Oval_7" fill-rule="evenodd" clip-rule="evenodd" d="M662.5 18C663.328 18 664 17.3284 664 16.5C664 15.6716 663.328 15 662.5 15C661.672 15 661 15.6716 661 16.5C661 17.3284 661.672 18 662.5 18Z" fill="white"/>
<path id="Oval_8" fill-rule="evenodd" clip-rule="evenodd" d="M669.5 18C670.328 18 671 17.3284 671 16.5C671 15.6716 670.328 15 669.5 15C668.672 15 668 15.6716 668 16.5C668 17.3284 668.672 18 669.5 18Z" fill="white"/>
<path id="Oval_9" fill-rule="evenodd" clip-rule="evenodd" d="M627.5 23C628.328 23 629 22.3284 629 21.5C629 20.6716 628.328 20 627.5 20C626.672 20 626 20.6716 626 21.5C626 22.3284 626.672 23 627.5 23Z" fill="white"/>
<path id="Oval_10" fill-rule="evenodd" clip-rule="evenodd" d="M634.5 23C635.328 23 636 22.3284 636 21.5C636 20.6716 635.328 20 634.5 20C633.672 20 633 20.6716 633 21.5C633 22.3284 633.672 23 634.5 23Z" fill="white"/>
<path id="Oval_11" fill-rule="evenodd" clip-rule="evenodd" d="M641.5 23C642.328 23 643 22.3284 643 21.5C643 20.6716 642.328 20 641.5 20C640.672 20 640 20.6716 640 21.5C640 22.3284 640.672 23 641.5 23Z" fill="white"/>
<path id="Oval_12" fill-rule="evenodd" clip-rule="evenodd" d="M648.5 23C649.328 23 650 22.3284 650 21.5C650 20.6716 649.328 20 648.5 20C647.672 20 647 20.6716 647 21.5C647 22.3284 647.672 23 648.5 23Z" fill="white"/>
<path id="Oval_13" fill-rule="evenodd" clip-rule="evenodd" d="M655.5 23C656.328 23 657 22.3284 657 21.5C657 20.6716 656.328 20 655.5 20C654.672 20 654 20.6716 654 21.5C654 22.3284 654.672 23 655.5 23Z" fill="white"/>
<path id="Oval_14" fill-rule="evenodd" clip-rule="evenodd" d="M662.5 23C663.328 23 664 22.3284 664 21.5C664 20.6716 663.328 20 662.5 20C661.672 20 661 20.6716 661 21.5C661 22.3284 661.672 23 662.5 23Z" fill="white"/>
<path id="Oval_15" fill-rule="evenodd" clip-rule="evenodd" d="M669.5 23C670.328 23 671 22.3284 671 21.5C671 20.6716 670.328 20 669.5 20C668.672 20 668 20.6716 668 21.5C668 22.3284 668.672 23 669.5 23Z" fill="white"/>
<path id="Oval_16" fill-rule="evenodd" clip-rule="evenodd" d="M627.5 28C628.328 28 629 27.3284 629 26.5C629 25.6716 628.328 25 627.5 25C626.672 25 626 25.6716 626 26.5C626 27.3284 626.672 28 627.5 28Z" fill="white"/>
<path id="Oval_17" fill-rule="evenodd" clip-rule="evenodd" d="M634.5 28C635.328 28 636 27.3284 636 26.5C636 25.6716 635.328 25 634.5 25C633.672 25 633 25.6716 633 26.5C633 27.3284 633.672 28 634.5 28Z" fill="white"/>
<path id="Oval_18" fill-rule="evenodd" clip-rule="evenodd" d="M641.5 28C642.328 28 643 27.3284 643 26.5C643 25.6716 642.328 25 641.5 25C640.672 25 640 25.6716 640 26.5C640 27.3284 640.672 28 641.5 28Z" fill="white"/>
<path id="Oval_19" fill-rule="evenodd" clip-rule="evenodd" d="M648.5 28C649.328 28 650 27.3284 650 26.5C650 25.6716 649.328 25 648.5 25C647.672 25 647 25.6716 647 26.5C647 27.3284 647.672 28 648.5 28Z" fill="white"/>
<path id="Oval_20" fill-rule="evenodd" clip-rule="evenodd" d="M655.5 28C656.328 28 657 27.3284 657 26.5C657 25.6716 656.328 25 655.5 25C654.672 25 654 25.6716 654 26.5C654 27.3284 654.672 28 655.5 28Z" fill="white"/>
<path id="Oval_21" fill-rule="evenodd" clip-rule="evenodd" d="M662.5 28C663.328 28 664 27.3284 664 26.5C664 25.6716 663.328 25 662.5 25C661.672 25 661 25.6716 661 26.5C661 27.3284 661.672 28 662.5 28Z" fill="white"/>
<path id="Oval_22" fill-rule="evenodd" clip-rule="evenodd" d="M669.5 28C670.328 28 671 27.3284 671 26.5C671 25.6716 670.328 25 669.5 25C668.672 25 668 25.6716 668 26.5C668 27.3284 668.672 28 669.5 28Z" fill="white"/>
<path id="Oval_23" fill-rule="evenodd" clip-rule="evenodd" d="M627.5 33C628.328 33 629 32.3284 629 31.5C629 30.6716 628.328 30 627.5 30C626.672 30 626 30.6716 626 31.5C626 32.3284 626.672 33 627.5 33Z" fill="white"/>
<path id="Oval_24" fill-rule="evenodd" clip-rule="evenodd" d="M634.5 33C635.328 33 636 32.3284 636 31.5C636 30.6716 635.328 30 634.5 30C633.672 30 633 30.6716 633 31.5C633 32.3284 633.672 33 634.5 33Z" fill="white"/>
<path id="Oval_25" fill-rule="evenodd" clip-rule="evenodd" d="M641.5 33C642.328 33 643 32.3284 643 31.5C643 30.6716 642.328 30 641.5 30C640.672 30 640 30.6716 640 31.5C640 32.3284 640.672 33 641.5 33Z" fill="white"/>
<path id="Oval_26" fill-rule="evenodd" clip-rule="evenodd" d="M648.5 33C649.328 33 650 32.3284 650 31.5C650 30.6716 649.328 30 648.5 30C647.672 30 647 30.6716 647 31.5C647 32.3284 647.672 33 648.5 33Z" fill="white"/>
<path id="Oval_27" fill-rule="evenodd" clip-rule="evenodd" d="M655.5 33C656.328 33 657 32.3284 657 31.5C657 30.6716 656.328 30 655.5 30C654.672 30 654 30.6716 654 31.5C654 32.3284 654.672 33 655.5 33Z" fill="white"/>
<path id="Oval_28" fill-rule="evenodd" clip-rule="evenodd" d="M662.5 33C663.328 33 664 32.3284 664 31.5C664 30.6716 663.328 30 662.5 30C661.672 30 661 30.6716 661 31.5C661 32.3284 661.672 33 662.5 33Z" fill="white"/>
</g>
</g>
</g>
<g id="Group 185">
<g id="Group 181">
<path id="Rectangle 180" d="M98.0453 1.98428C97.924 1.65172 97.6561 1.39467 97.3102 1.31925C96.6929 1.18463 95.5728 1 94.0726 1C92.5724 1 91.4523 1.18463 90.835 1.31925C90.4891 1.39467 90.2212 1.65172 90.0999 1.98428L89.4821 3.67778H98.6631L98.0453 1.98428Z" fill="white"/>
<path id="Rectangle 181" d="M87.5782 9.17817L87.975 6.94806C88.2367 5.4773 89.0376 4.19597 90.2838 3.80067C91.223 3.50274 92.4852 3.23926 94.012 3.23926C95.5387 3.23926 96.8009 3.50274 97.7402 3.80067C98.9863 4.19597 99.7873 5.4773 100.049 6.94806L100.446 9.17817" stroke="white" stroke-width="1.97964"/>
<path id="Rectangle 182 (Stroke)" d="M98.0165 42.5035C103.546 44.5724 109.238 39.8721 108.252 34.0515L105.127 15.595L104.257 15.956L103.59 18.3762L106.3 34.382C107.031 38.6981 102.81 42.1836 98.7103 40.6494C97.5703 40.2228 96.5974 39.4412 95.9352 38.4199L87.3184 25.1294L85.5984 23.6999L84.3643 24.2121L94.2742 39.4968C95.1672 40.8742 96.4791 41.9282 98.0165 42.5035Z" fill="white"/>
<path id="Intersect" fill-rule="evenodd" clip-rule="evenodd" d="M95.9918 29.0094C89.7648 30.1911 83.7589 26.101 82.5773 19.874C81.3956 13.647 85.4857 7.64105 91.7127 6.4594C97.9397 5.27775 103.946 9.36782 105.127 15.5948C106.309 21.8218 102.219 27.8278 95.9918 29.0094ZM84.5222 19.5049C85.5 24.6578 90.4699 28.0423 95.6228 27.0645C100.776 26.0867 104.16 21.1168 103.182 15.9639C102.205 10.8111 97.2346 7.42651 92.0818 8.40433C86.9289 9.38215 83.5444 14.352 84.5222 19.5049Z" fill="white"/>
</g>
<rect id="Rectangle 187" x="69.728" y="20.4561" width="2.98339" height="1.93043" rx="0.350987" fill="white"/>
<path id="Polygon 29" d="M80.4517 21.0834C80.7938 21.1789 80.7938 21.6639 80.4517 21.7594L78.027 22.4368C77.8032 22.4993 77.5815 22.3311 77.5815 22.0988L77.5815 20.744C77.5815 20.5117 77.8032 20.3435 78.027 20.406L80.4517 21.0834Z" fill="white"/>
<circle id="Ellipse 84" cx="88.2821" cy="17.2972" r="2.45691" transform="rotate(-90 88.2821 17.2972)" fill="white"/>
<circle id="Ellipse 85" cx="99.3378" cy="17.2972" r="2.45691" transform="rotate(-90 99.3378 17.2972)" fill="white"/>
<circle id="Ellipse 86" cx="93.8104" cy="12.2958" r="2.45691" fill="white"/>
<circle id="Ellipse 87" cx="93.8104" cy="22.1234" r="2.45691" fill="white"/>
<g id="Group 182">
<path id="Rectangle 180_2" d="M52.319 1.98428C52.4403 1.65172 52.7082 1.39467 53.0541 1.31925C53.6714 1.18463 54.7915 1 56.2917 1C57.7918 1 58.912 1.18463 59.5293 1.31925C59.8751 1.39467 60.143 1.65172 60.2643 1.98428L60.8821 3.67778H51.7012L52.319 1.98428Z" fill="white"/>
<path id="Rectangle 181_2" d="M62.7861 9.17817L62.3893 6.94806C62.1276 5.4773 61.3266 4.19597 60.0805 3.80067C59.1412 3.50274 57.879 3.23926 56.3523 3.23926C54.8255 3.23926 53.5633 3.50274 52.6241 3.80067C51.3779 4.19597 50.577 5.4773 50.3153 6.94806L49.9185 9.17817" stroke="white" stroke-width="1.97964"/>
<path id="Rectangle 182 (Stroke)_2" d="M52.3478 42.5035C46.8187 44.5724 41.1264 39.8721 42.112 34.0515L45.2373 15.595L46.1071 15.956L46.7741 18.3762L44.0639 34.382C43.333 38.6981 47.554 42.1836 51.654 40.6494C52.794 40.2228 53.7668 39.4412 54.429 38.4199L63.0459 25.1294L64.7658 23.6999L66 24.2121L56.0901 39.4968C55.1971 40.8742 53.8852 41.9282 52.3478 42.5035Z" fill="white"/>
<path id="Intersect_2" fill-rule="evenodd" clip-rule="evenodd" d="M54.3724 29.0094C60.5994 30.1911 66.6053 26.101 67.787 19.874C68.9686 13.647 64.8786 7.64105 58.6516 6.4594C52.4246 5.27775 46.4186 9.36782 45.237 15.5948C44.0553 21.8218 48.1454 27.8278 54.3724 29.0094ZM65.8421 19.5049C64.8642 24.6578 59.8944 28.0423 54.7415 27.0645C49.5886 26.0867 46.2041 21.1168 47.1819 15.9639C48.1597 10.8111 53.1296 7.42651 58.2825 8.40433C63.4353 9.38215 66.8199 14.352 65.8421 19.5049Z" fill="white"/>
</g>
<path id="Rectangle 189" d="M59.1733 15.8626C59.2712 15.7696 59.401 15.7178 59.5359 15.7178H61.4317C61.6255 15.7178 61.7826 15.8749 61.7826 16.0688V18.7012C61.7826 18.895 61.6255 19.0521 61.4317 19.0521H59.5359C59.401 19.0521 59.2712 19.0003 59.1733 18.9074L58.1065 17.8939C57.8152 17.6171 57.8152 17.1528 58.1065 16.876L59.1733 15.8626Z" fill="white"/>
<path id="Rectangle 190" d="M53.8623 15.8626C53.7645 15.7696 53.6347 15.7178 53.4997 15.7178H51.604C51.4101 15.7178 51.253 15.8749 51.253 16.0688V18.7012C51.253 18.895 51.4101 19.0521 51.604 19.0521H53.4997C53.6347 19.0521 53.7645 19.0003 53.8623 18.9074L54.9291 17.8939C55.2204 17.6171 55.2204 17.1528 54.9291 16.876L53.8623 15.8626Z" fill="white"/>
<path id="Rectangle 191" d="M57.9524 19.9526C58.0453 20.0505 58.0972 20.1803 58.0972 20.3152L58.0972 22.2109C58.0972 22.4048 57.94 22.5619 57.7462 22.5619L55.1138 22.5619C54.9199 22.5619 54.7628 22.4048 54.7628 22.2109L54.7628 20.3152C54.7628 20.1803 54.8146 20.0505 54.9076 19.9526L55.9211 18.8858C56.1978 18.5945 56.6622 18.5945 56.9389 18.8858L57.9524 19.9526Z" fill="white"/>
<path id="Rectangle 192" d="M57.9524 14.6419C58.0453 14.544 58.0972 14.4142 58.0972 14.2792L58.0972 12.3835C58.0972 12.1897 57.94 12.0325 57.7462 12.0325L55.1138 12.0325C54.9199 12.0325 54.7628 12.1897 54.7628 12.3835L54.7628 14.2792C54.7628 14.4142 54.8146 14.544 54.9076 14.6419L55.9211 15.7087C56.1978 16 56.6622 16 56.9389 15.7087L57.9524 14.6419Z" fill="white"/>
<path id="Line 43" d="M62.7861 9.17822H87.5789" stroke="white" stroke-width="1.97964"/>
<path id="Line 44" d="M63.3296 26.0051L87.0109 26.0051" stroke="white" stroke-width="1.97964"/>
</g>
</g>
</svg>
