<?xml version="1.0" encoding="UTF-8"?>
<svg width="491px" height="99px" viewBox="0 0 491 99" version="1.1" xmlns="http://www.w3.org/2000/svg" xmlns:xlink="http://www.w3.org/1999/xlink">
    <title>mainlogo</title>
    <g id="Page-1" stroke="none" stroke-width="1" fill="none" fill-rule="evenodd">
        <g id="mainlogo" fill-rule="nonzero">
            <g id="g4209">
                <g id="g4783">
                    <path d="M70.0053044,20.4361162 L69.9192338,98.2691503 L49.0658056,91.486961 L49.0658056,0 L75.6850945,7.03866232 C92.7244649,11.6177921 103.151179,20.520448 102.982515,36.120092 C102.812982,54.267078 94.4197949,61.5561275 78.0594259,56.8083342 L78.0594259,21.029047 C78.0576871,16.7029126 70.0053044,16.4499172 70.0053044,20.4361162 L70.0053044,20.4361162 L70.0053044,20.4361162 Z" id="path7" fill="#DE1528"></path>
                    <path d="M39.4850177,76.3941772 L29.6512344,79.7022441 C23.2924429,81.9079119 17.867387,76.7358514 23.7167101,74.6127766 L28.463634,72.9200548 L10.5757292,67.2367871 C5.0654721,69.1042582 -0.107457839,73.087849 0.233346957,78.6850461 C0.572412954,84.3648363 13.5429914,85.7245779 23.5463077,87.3329678 C32.871492,88.8578954 41.3490113,88.0102304 49.0640668,85.2968331 L49.0640668,79.4457711 L39.4850177,76.3941772 L39.4850177,76.3941772 L39.4850177,76.3941772 Z M70.0878974,98.2700197 L88.3148682,91.9120976 L69.9183644,86.0619051 L69.9183644,97.8483607 L70.0878974,98.2700197 L70.0878974,98.2700197 Z" id="path9" fill="#F4CB0E"></path>
                    <path d="M118.58129,81.2289105 L118.919487,81.1428399 C126.889276,78.3442413 130.279936,74.4423742 129.432271,70.7987188 C128.076007,64.6946615 118.327425,61.3865945 103.321581,60.2841953 C92.5549319,59.5217315 81.9586849,61.8960629 71.6163026,65.4545171 L69.9209726,66.0509255 L88.4870094,71.8176556 L99.3371213,68.1687838 C110.697571,66.0509255 115.275831,69.7806514 104.340518,73.2582514 L98.9137235,75.1239838 L118.58129,81.2289105 L118.58129,81.2289105 L118.58129,81.2289105 Z M49.0658056,54.2662086 L40.8421511,57.0630684 L49.0658056,59.6069327 L49.0658056,54.2662086 L49.0658056,54.2662086 Z" id="path16" fill="#4177B3"></path>
                    <path d="M88.3157376,91.9103588 L118.58129,81.2280411 L98.9119847,75.1239838 L69.9192338,85.0438377 L69.9192338,86.0610357 L88.3157376,91.9103588 L88.3157376,91.9103588 L88.3157376,91.9103588 Z M49.0658056,73.1730502 L39.4858871,76.3941772 L49.0658056,79.4475099 L49.0658056,73.1730502 L49.0658056,73.1730502 Z M69.9183644,78.1764471 L69.9183644,66.0526643 L88.4844012,71.8176556 L69.9183644,78.1764471 L69.9183644,78.1764471 Z M28.463634,72.9200548 L49.0649362,65.5440653 L49.0649362,59.6095409 L40.8412817,57.0639378 L10.9999964,67.1533247 C10.9156646,67.1533247 10.7461316,67.2367871 10.5765986,67.2367871 L28.463634,72.9200548 L28.463634,72.9200548 L28.463634,72.9200548 Z" id="path13" fill="#1BA0A5"></path>
                </g>
            </g>
            <g id="g4781" transform="translate(141.704666, 24.531580)" fill="#FFFFFF">
                <path d="M0.778662653,0.642348097 L0.778662653,49.2986038 L8.37429637,49.2986038 L8.37429637,5.30417775 L15.405265,5.30417775 C15.405265,5.30417775 20.5128914,5.30417775 22.262142,7.58838487 C23.748156,9.52869211 24.0198761,13.0484182 24.0198761,15.4260407 C24.0198761,17.9692372 23.8585387,21.9007959 23.0051437,23.3401023 C21.7101863,25.5393988 19.5830801,25.9809613 17.6385173,25.9809613 L12.9979126,25.9809613 L12.9979126,30.2988804 L19.6722484,30.2988804 C19.6722484,30.2988804 25.6927104,30.5495671 28.2826146,27.9170107 C31.4584302,24.690251 32.2651174,20.3510962 32.2651174,14.5429159 C32.2651174,9.26545563 30.3502823,3.94127702 26.4357121,2.13260931 C23.1962004,0.642348097 17.3540558,0.642348097 17.3540558,0.642348097 L0.778662653,0.642348097" id="path3003"></path>
                <polygon id="path3005" points="38.2346352 49.2986038 45.828981 49.2986038 45.828981 0.642348097 38.2346352 0.642348097"></polygon>
                <polyline id="path3007" points="86.2370469 11.9912145 100.133389 48.4112318 92.1556418 67.9501589 98.4605652 67.9501589 121.434297 11.9912145 114.394856 11.9912145 104.387622 39.2658985 95.0767045 11.9912145 86.2370469 11.9912145"></polyline>
                <path d="M127.15332,49.0098952 L127.15332,44.4117511 C127.15332,44.4117511 135.186269,44.7259318 136.859103,44.7259318 C140.565639,44.7259318 142.416778,43.9362224 143.809376,42.4417034 C144.633063,41.5458691 145.376065,37.576097 145.376065,36.1622627 C145.376065,34.7526755 145.104334,31.7042311 144.552389,30.4559707 C143.983455,29.2332038 142.688498,28.0910896 140.748201,27.9255156 C139.364076,27.8066281 137.224228,27.5264138 134.723482,27.4117734 C131.216507,27.2460185 128.898313,25.4162749 127.781692,24.1000925 C126.673544,22.7839101 125.191777,20.8011529 125.191777,14.7339832 C125.191777,8.65830863 126.762712,5.25322292 128.337873,3.67380406 C129.913045,2.0859016 132.218499,1.38959694 133.988974,1.07540563 C136.026933,0.727258626 139.355592,0.706033654 139.355592,0.706033654 L149.986929,1.01613751 L149.986929,5.61428161 C149.986929,5.61428161 142.234205,5.30417775 140.565639,5.30417775 C136.859103,5.30417775 135.746708,6.09813431 134.358346,7.58838487 C133.538917,8.4757462 132.897804,10.9297957 132.897804,12.3351251 C132.897804,13.74897 133.06357,16.6021 133.619581,17.8376083 C134.171536,19.0603966 135.470741,20.2067473 137.415285,20.3808155 C138.795153,20.4868339 140.939258,20.7671759 143.435757,20.8818057 C146.95972,21.0472412 149.273668,22.8730677 150.377558,24.1935079 C151.494189,25.5139267 152.980203,28.2948982 152.980203,34.3578102 C152.980203,40.4334848 151.396537,44.7726395 149.829838,46.3562948 C148.25043,47.9357137 145.949235,48.6405126 144.178759,48.946199 C142.136563,49.2986038 138.807894,49.3240865 138.807894,49.3240865 L127.15332,49.0098952" id="path3009"></path>
                <path d="M168.596055,5.30417775 L161.004658,5.30417775 L161.004658,41.0236326 C161.004658,41.0236326 161.18705,44.28438 161.374041,45.4307307 C161.56085,46.5770814 163.229416,49.2986038 167.581312,49.2986038 L175.448687,49.1457499 L175.448687,44.564605 C175.448687,44.564605 173.317323,44.7174375 172.03086,44.7174375 C170.727419,44.7174375 169.14799,44.6326015 168.880517,42.4289727 C168.595885,40.2296867 168.595885,37.6015691 168.595885,37.6015691 L168.595885,16.5681337 L177.172295,16.5681337 L177.172295,11.9912145 L168.595885,11.9912145 L168.595885,5.30417775" id="path3011"></path>
                <polygon id="path3013" points="241.894609 49.2986038 249.486421 49.2986038 249.486421 11.9933647 241.894609 11.9933647"></polygon>
                <polygon id="path3015" points="241.894609 7.41430605 249.486421 7.41430605 249.486421 0.641092055 241.894609 0.641092055"></polygon>
                <path d="M273.482975,11.6727867 C278.650064,11.6727867 282.658039,12.8276317 284.810627,14.5683986 C286.984452,16.3133914 289.65503,19.9944656 289.65503,30.6470274 C289.65503,41.2996105 286.984452,44.9764375 284.810627,46.7256775 C282.658039,48.4664338 278.650064,49.6297623 273.482975,49.6297623 C268.303167,49.6297623 264.312159,48.4664338 262.142582,46.7256775 C259.973005,44.9764375 257.315178,41.2996105 257.315178,30.6470274 C257.315178,19.9944656 259.973005,16.3133914 262.142582,14.5683986 C264.312159,12.8276317 268.303167,11.6727867 273.482975,11.6727867 Z M268.277695,18.8268793 C267.233233,20.1133425 265.959521,22.8178764 265.959521,30.6470274 C265.959521,38.4719419 267.233233,41.1807336 268.277695,42.4629496 C269.317889,43.7366608 271.236971,44.5985607 273.72074,44.5985607 C276.208745,44.5985607 278.119322,43.7366608 279.172289,42.4629496 C280.212483,41.1807336 281.486216,38.4719419 281.486216,30.6470274 C281.486216,22.8178764 280.212483,20.1133425 279.172289,18.8268793 C278.119322,17.5489104 276.208745,16.6955048 273.72074,16.6955048 C271.236971,16.6955048 269.317889,17.5489104 268.277695,18.8268793" id="path3017"></path>
                <path d="M305.385512,17.2304826 L312.83256,16.9162913 C314.78134,16.9162913 317.074052,17.4427643 318.186447,18.8523408 C319.222394,20.1812752 319.876249,21.7649305 319.876249,24.3166319 L319.876249,49.2561432 L327.480377,49.2561432 L327.480377,23.6882599 C327.480377,18.8523408 325.990126,16.0416607 323.756853,14.2754323 C320.572543,11.7492137 314.866262,11.9912145 314.866262,11.9912145 L297.853553,12.2969222 L297.853553,49.2561432 L305.385512,49.2561432 L305.385512,17.2304826" id="path3019"></path>
                <path d="M226.771274,5.30417775 L219.175619,5.30417775 L219.175619,41.0236326 C219.175619,41.0236326 219.353945,44.28438 219.536518,45.4307307 C219.727756,46.5770814 221.38342,49.2986038 225.752284,49.2986038 L233.619659,49.1457499 L233.619659,44.564605 C233.619659,44.564605 231.484059,44.7174375 230.193348,44.7174375 C228.902638,44.7174375 227.318972,44.6326015 227.043005,42.4289727 C226.771274,40.2296867 226.771274,37.6015691 226.771274,37.6015691 L226.771274,16.5681337 L235.32646,16.5681337 L235.32646,11.9912145 L226.771274,11.9912145 L226.771274,5.30417775" id="path3021"></path>
                <path d="M74.6504054,24.3166319 C74.6504054,21.7649305 74.0008085,20.1812752 72.9563568,18.8523408 C71.8439725,17.4427643 69.5597547,16.9162913 67.6067167,16.9162913 L57.5909892,17.2304826 L57.5909892,12.2969222 L69.6446652,11.9912145 C69.6446652,11.9912145 75.3509465,11.7490434 78.5395141,14.2754323 C80.7642828,16.0416607 82.241792,18.8523408 82.241792,23.6882599 L82.241792,48.8994913 L67.6873801,49.213711 C67.6873801,49.213711 61.0979846,49.2376326 57.7778094,47.8932531 C54.5425554,46.5770814 52.7763164,42.9639399 52.7763164,37.9497267 C52.7763164,33.1095711 54.2580833,30.2988804 56.482852,28.5326626 C59.6713983,26.0021862 65.3734538,26.2526813 65.3734538,26.2526813 L70.0225421,26.2526813 L70.0225421,30.5493862 L67.4156601,30.5493862 C65.4626008,30.5493862 63.4543715,30.9102745 62.3377507,32.3198617 C61.2975249,33.6360441 60.7413434,34.7781476 60.7413434,37.3298383 C60.7413434,40.6797434 61.3909403,42.1742304 62.9661227,43.3120869 C64.3587107,44.32683 66.8509736,44.5476165 69.6319345,44.5476165 L74.6504054,44.2419194 L74.6504054,24.3166319" id="path3023"></path>
                <path d="M202.714866,24.3166319 C202.714866,21.7649305 202.078,20.1812752 201.033548,18.8523408 C199.908433,17.4427643 197.624216,16.9162913 195.683919,16.9162913 L185.672449,17.2304826 L185.672449,12.2969222 L197.71762,11.9912145 C197.71762,11.9912145 203.419665,11.7490434 206.603975,14.2754323 C208.828744,16.0416607 210.314758,18.8523408 210.314758,23.6882599 L210.314758,48.8994913 L195.760335,49.213711 C195.760335,49.213711 189.162445,49.2376326 185.850765,47.8932531 C182.611263,46.5770814 180.840777,42.9639399 180.840777,37.9497267 C180.840777,33.1095711 182.335286,30.2988804 184.547313,28.5326626 C187.731633,26.0021862 193.446398,26.2526813 193.446398,26.2526813 L198.09125,26.2526813 L198.09125,30.5493862 L195.480121,30.5493862 C193.539803,30.5493862 191.518843,30.9102745 190.414942,32.3198617 C189.37048,33.6360441 188.810041,34.7781476 188.810041,37.3298383 C188.810041,40.6797434 189.463895,42.1742304 191.03482,43.3120869 C192.423182,44.32683 194.928176,44.5476165 197.709126,44.5476165 L202.714866,44.2419194 L202.714866,24.3166319" id="path3025"></path>
                <path d="M341.24509,49.6043009 C343.227858,49.6043009 345.091738,48.8315693 346.492842,47.4389706 C347.889687,46.0336306 348.662408,44.169729 348.662408,42.1912189 C348.662408,40.2084617 347.889687,38.3445708 346.492842,36.9434885 C345.091738,35.5466214 343.227858,34.7781476 341.24509,34.7781476 C337.173419,34.7781476 333.832019,38.1025593 333.832019,42.1912189 C333.832019,44.169729 334.596256,46.0336306 336.01009,47.4389706 C337.41543,48.8315693 339.270827,49.6043009 341.24509,49.6043009 Z M335.076021,42.1912189 C335.076021,40.543878 335.725618,38.9941677 336.88471,37.8308286 C338.056522,36.6675107 339.597749,36.0179031 341.24509,36.0179031 C342.892442,36.0179031 344.446388,36.6675107 345.609717,37.8308286 C346.768809,38.9941677 347.418406,40.543878 347.418406,42.1912189 C347.418406,45.5920575 344.654423,48.3645348 341.24509,48.3645348 C339.597749,48.3645348 338.056522,47.7149378 336.88471,46.5558458 C335.725618,45.3882701 335.076021,43.8428176 335.076021,42.1912189" id="path3027"></path>
                <path d="M344.904929,45.6345287 C344.794535,45.5920575 344.709614,45.4646864 344.663087,45.2736404 C344.629132,45.137775 344.599221,44.9297298 344.590812,44.6495049 L344.556856,43.5838282 C344.539825,43.0828274 344.433551,42.7261861 344.255246,42.4884217 C344.140776,42.3270843 343.966527,42.1997132 343.766976,42.0808257 C344.013224,41.9194882 344.234011,41.7241844 344.391112,41.4779364 C344.599306,41.1467673 344.709369,40.7264298 344.709369,40.2169453 C344.709369,39.2404264 344.297526,38.5526053 343.495075,38.1917169 C343.070501,38.0005006 342.55677,37.9155794 341.928398,37.9155794 L338.094491,37.9155794 L338.094491,46.169315 L339.521056,46.169315 L339.521056,42.7854542 L341.775544,42.7854542 C342.18314,42.7854542 342.488837,42.8279255 342.662916,42.9043418 C342.955712,43.0486907 343.112973,43.3416571 343.12995,43.7874453 L343.193391,45.1078748 C343.210422,45.4305497 343.227347,45.6343584 343.252893,45.7532353 C343.29132,45.8806064 343.312289,45.9825054 343.358805,46.0674266 L343.418308,46.169315 L345.010468,46.169315 L345.010468,45.6852707 L344.90445,45.6342839 L344.904929,45.6345287 Z M343.253319,40.3188444 C343.253319,40.7816318 343.134453,41.0873288 342.905183,41.2571712 C342.641946,41.431399 342.276811,41.5288913 341.81826,41.5288913 L339.521322,41.5288913 L339.521322,39.1937293 L341.958372,39.1937293 C342.285124,39.1937293 342.557025,39.2402454 342.75234,39.3336608 C343.091982,39.5035032 343.253319,39.8346617 343.253319,40.3186741" id="path3029"></path>
            </g>
        </g>
    </g>
</svg>