<svg width="120" height="81" viewBox="0 0 120 81" fill="none" xmlns="http://www.w3.org/2000/svg">
<path d="M82.8627 1.48428C82.7413 1.15172 82.4735 0.894668 82.1276 0.819245C81.5103 0.684631 80.3902 0.5 78.89 0.5C77.3898 0.5 76.2697 0.684631 75.6524 0.819245C75.3065 0.894668 75.0386 1.15172 74.9173 1.48428L74.2995 3.17778H83.4805L82.8627 1.48428Z" fill="white"/>
<path fill-rule="evenodd" clip-rule="evenodd" d="M78.8297 3.72891C80.2417 3.72891 81.4027 3.97249 82.2586 4.24399C83.0102 4.48239 83.6633 5.33505 83.8922 6.62129L84.289 8.85141L86.238 8.5046L85.8412 6.27448C85.5467 4.61921 84.598 2.90921 82.8572 2.35701C81.8346 2.03264 80.4712 1.74927 78.8297 1.74927C77.1882 1.74927 75.8248 2.03264 74.8022 2.35701C73.0614 2.90921 72.1127 4.61921 71.8182 6.27448L71.4214 8.5046L73.3704 8.85141L73.7672 6.62129C73.9961 5.33505 74.6492 4.48239 75.4008 4.24399C76.2567 3.97249 77.4177 3.72891 78.8297 3.72891Z" fill="white"/>
<path d="M82.8341 42.0035C88.3631 44.0724 94.0555 39.3721 93.0699 33.5515L89.9446 15.095L89.0747 15.456L88.4077 17.8762L91.118 33.882C91.8489 38.1981 87.6278 41.6836 83.5279 40.1494C82.3879 39.7228 81.4151 38.9412 80.7529 37.9199L72.136 24.6294L70.416 23.1999L69.1819 23.7121L79.0918 38.9968C79.9848 40.3742 81.2967 41.4282 82.8341 42.0035Z" fill="white"/>
<path fill-rule="evenodd" clip-rule="evenodd" d="M80.8092 28.5094C74.5822 29.6911 68.5763 25.601 67.3946 19.374C66.213 13.147 70.3031 7.14105 76.5301 5.9594C82.7571 4.77775 88.763 8.86782 89.9447 15.0948C91.1263 21.3218 87.0362 27.3278 80.8092 28.5094ZM69.3396 19.0049C70.3174 24.1578 75.2873 27.5423 80.4401 26.5645C85.593 25.5867 88.9775 20.6168 87.9997 15.4639C87.0219 10.3111 82.052 6.92652 76.8992 7.90433C71.7463 8.88215 68.3618 13.852 69.3396 19.0049Z" fill="white"/>
<path d="M54.5459 20.307C54.5459 20.1132 54.703 19.9561 54.8969 19.9561H57.1783C57.3721 19.9561 57.5293 20.1132 57.5293 20.307V21.5355C57.5293 21.7293 57.3721 21.8865 57.1783 21.8865H54.8969C54.703 21.8865 54.5459 21.7293 54.5459 21.5355V20.307Z" fill="white"/>
<path d="M65.2693 20.5834C65.6114 20.6789 65.6114 21.1639 65.2693 21.2594L62.8446 21.9368C62.6208 21.9993 62.3992 21.8311 62.3992 21.5988L62.3992 20.244C62.3992 20.0117 62.6208 19.8435 62.8446 19.906L65.2693 20.5834Z" fill="white"/>
<path d="M73.1 14.3403C74.4569 14.3403 75.5569 15.4403 75.5569 16.7972C75.5569 18.1542 74.4569 19.2542 73.1 19.2542C71.7431 19.2542 70.6431 18.1542 70.6431 16.7972C70.6431 15.4403 71.7431 14.3403 73.1 14.3403Z" fill="white"/>
<path d="M84.1556 14.3403C85.5125 14.3403 86.6125 15.4403 86.6125 16.7972C86.6125 18.1542 85.5125 19.2542 84.1556 19.2542C82.7987 19.2542 81.6987 18.1542 81.6987 16.7972C81.6987 15.4403 82.7987 14.3403 84.1556 14.3403Z" fill="white"/>
<path d="M81.0854 11.7958C81.0854 13.1527 79.9854 14.2527 78.6285 14.2527C77.2716 14.2527 76.1716 13.1527 76.1716 11.7958C76.1716 10.4389 77.2716 9.33887 78.6285 9.33887C79.9854 9.33887 81.0854 10.4389 81.0854 11.7958Z" fill="white"/>
<path d="M81.0854 21.6234C81.0854 22.9803 79.9854 24.0803 78.6285 24.0803C77.2716 24.0803 76.1716 22.9803 76.1716 21.6234C76.1716 20.2665 77.2716 19.1665 78.6285 19.1665C79.9854 19.1665 81.0854 20.2665 81.0854 21.6234Z" fill="white"/>
<path d="M37.1371 1.48428C37.2584 1.15172 37.5263 0.894668 37.8722 0.819245C38.4895 0.684631 39.6096 0.5 41.1098 0.5C42.61 0.5 43.7301 0.684631 44.3474 0.819245C44.6932 0.894668 44.9611 1.15172 45.0824 1.48428L45.7003 3.17778H36.5193L37.1371 1.48428Z" fill="white"/>
<path fill-rule="evenodd" clip-rule="evenodd" d="M41.1701 3.72891C39.758 3.72891 38.597 3.97249 37.7412 4.24399C36.9896 4.48239 36.3365 5.33505 36.1076 6.62129L35.7107 8.85141L33.7617 8.5046L34.1586 6.27448C34.4531 4.61921 35.4018 2.90921 37.1426 2.35701C38.1651 2.03264 39.5285 1.74927 41.1701 1.74927C42.8116 1.74927 44.175 2.03264 45.1975 2.35701C46.9383 2.90921 47.887 4.61921 48.1816 6.27448L48.5784 8.5046L46.6294 8.85141L46.2325 6.62129C46.0037 5.33505 45.3505 4.48239 44.599 4.24399C43.7431 3.97249 42.5821 3.72891 41.1701 3.72891Z" fill="white"/>
<path d="M37.1656 42.0035C31.6366 44.0724 25.9443 39.3721 26.9299 33.5515L30.0551 15.095L30.925 15.456L31.592 17.8762L28.8817 33.882C28.1509 38.1981 32.3719 41.6836 36.4718 40.1494C37.6119 39.7228 38.5847 38.9412 39.2469 37.9199L47.8638 24.6294L49.5837 23.1999L50.8178 23.7121L40.9079 38.9968C40.0149 40.3742 38.703 41.4282 37.1656 42.0035Z" fill="white"/>
<path fill-rule="evenodd" clip-rule="evenodd" d="M39.1903 28.5094C45.4173 29.6911 51.4232 25.601 52.6049 19.374C53.7865 13.147 49.6964 7.14105 43.4694 5.9594C37.2424 4.77775 31.2365 8.86782 30.0549 15.0948C28.8732 21.3218 32.9633 27.3278 39.1903 28.5094ZM50.6599 19.0049C49.6821 24.1578 44.7122 27.5423 39.5594 26.5645C34.4065 25.5867 31.022 20.6168 31.9998 15.4639C32.9776 10.3111 37.9475 6.92651 43.1004 7.90433C48.2532 8.88215 51.6377 13.852 50.6599 19.0049Z" fill="white"/>
<path d="M43.9911 15.3626C44.089 15.2696 44.2188 15.2178 44.3537 15.2178H46.2494C46.4433 15.2178 46.6004 15.3749 46.6004 15.5688V18.2012C46.6004 18.395 46.4433 18.5521 46.2494 18.5521H44.3537C44.2188 18.5521 44.089 18.5003 43.9911 18.4074L42.9243 17.3939C42.633 17.1171 42.633 16.6528 42.9243 16.376L43.9911 15.3626Z" fill="white"/>
<path d="M38.6803 15.3626C38.5824 15.2696 38.4526 15.2178 38.3177 15.2178H36.422C36.2281 15.2178 36.071 15.3749 36.071 15.5688V18.2012C36.071 18.395 36.2281 18.5521 36.422 18.5521H38.3177C38.4526 18.5521 38.5824 18.5003 38.6803 18.4074L39.7471 17.3939C40.0384 17.1171 40.0384 16.6528 39.7471 16.376L38.6803 15.3626Z" fill="white"/>
<path d="M42.7703 19.4528C42.8632 19.5506 42.915 19.6804 42.915 19.8154L42.915 21.7111C42.915 21.905 42.7579 22.0621 42.5641 22.0621L39.9317 22.0621C39.7378 22.0621 39.5807 21.905 39.5807 21.7111L39.5807 19.8154C39.5807 19.6804 39.6325 19.5506 39.7254 19.4528L40.7389 18.386C41.0157 18.0947 41.48 18.0947 41.7568 18.386L42.7703 19.4528Z" fill="white"/>
<path d="M42.7703 14.1417C42.8632 14.0439 42.915 13.914 42.915 13.7791L42.915 11.8834C42.915 11.6895 42.7579 11.5324 42.5641 11.5324L39.9317 11.5324C39.7378 11.5324 39.5807 11.6895 39.5807 11.8834L39.5807 13.7791C39.5807 13.914 39.6325 14.0439 39.7254 14.1417L40.7389 15.2085C41.0157 15.4998 41.48 15.4998 41.7568 15.2085L42.7703 14.1417Z" fill="white"/>
<path fill-rule="evenodd" clip-rule="evenodd" d="M72.3968 9.66787H47.604V7.68823H72.3968V9.66787Z" fill="white"/>
<path fill-rule="evenodd" clip-rule="evenodd" d="M71.829 26.4948L48.1477 26.4948V24.5151L71.829 24.5151V26.4948Z" fill="white"/>
</svg>
