<svg xmlns="http://www.w3.org/2000/svg" width="380" height="154" viewBox="0 0 380 154">
  <defs>
    <linearGradient id="b" x1="157.207" x2="166.173" y1="95.025" y2="21.503" class="paint0_linear_1285" gradientUnits="userSpaceOnUse">
      <stop stop-color="#EDEA22"/>
      <stop offset=".748" stop-color="#fff"/>
      <stop offset="1" stop-color="#fff"/>
    </linearGradient>
    <clipPath id="a" class="clip0_1285">
      <path fill="#fff" d="M0 0h379.861v153.659H0z"/>
    </clipPath>
  </defs>
  <g class="mainlogo" clip-path="url(#a)">
    <path fill="#FAFAFA" fill-opacity=".01" d="M52.1 17.174h.176v1.04a.503.503 0 0 1-.05.237.347.347 0 0 1-.145.147.454.454 0 0 1-.22.05.498.498 0 0 1-.212-.043.352.352 0 0 1-.146-.125.343.343 0 0 1-.053-.192h.173c0 .041.01.077.03.108.021.03.05.054.086.071a.285.285 0 0 0 .123.026c.05 0 .093-.011.129-.032a.202.202 0 0 0 .08-.094.366.366 0 0 0 .03-.153v-1.04Zm.95 1.478a.475.475 0 0 1-.26-.07.478.478 0 0 1-.173-.197.666.666 0 0 1-.062-.296c0-.113.021-.213.062-.297.042-.085.1-.151.174-.198a.475.475 0 0 1 .259-.07c.098 0 .184.023.258.07a.47.47 0 0 1 .173.197.667.667 0 0 1 .063.298c0 .113-.02.211-.063.296a.47.47 0 0 1-.173.196.472.472 0 0 1-.258.07Zm0-.15c.075 0 .136-.02.184-.058a.339.339 0 0 0 .108-.152.58.58 0 0 0 .034-.203.585.585 0 0 0-.034-.204.343.343 0 0 0-.108-.152.286.286 0 0 0-.184-.059.285.285 0 0 0-.185.059.343.343 0 0 0-.107.152.585.585 0 0 0-.035.204c0 .073.012.14.035.203a.339.339 0 0 0 .107.151c.048.039.11.058.185.058Zm.918-.53v.657H53.8v-1.455h.168v.535h.014a.308.308 0 0 1 .115-.135.372.372 0 0 1 .206-.05c.074 0 .14.015.195.044.056.03.1.075.13.136.031.06.047.138.047.232v.693h-.168v-.682a.28.28 0 0 0-.067-.2.24.24 0 0 0-.186-.073.31.31 0 0 0-.147.035.254.254 0 0 0-.103.102.33.33 0 0 0-.036.162Zm1.181 0v.657h-.168v-1.091h.163v.17h.014a.311.311 0 0 1 .116-.133.362.362 0 0 1 .202-.051c.074 0 .138.015.194.045.055.03.098.076.129.137.03.06.046.137.046.23v.693h-.167v-.682a.283.283 0 0 0-.067-.2.237.237 0 0 0-.183-.073.293.293 0 0 0-.144.035.248.248 0 0 0-.099.102.335.335 0 0 0-.036.162Zm1.588.657v-1.455h.176v1.299h.676v.156h-.852Zm1.545.023a.475.475 0 0 1-.26-.07.478.478 0 0 1-.172-.197.666.666 0 0 1-.062-.296c0-.113.02-.213.062-.297.041-.085.099-.151.173-.198a.475.475 0 0 1 .26-.07c.098 0 .184.023.258.07a.47.47 0 0 1 .173.197.668.668 0 0 1 .063.298.66.66 0 0 1-.063.296.471.471 0 0 1-.173.196.472.472 0 0 1-.259.07Zm0-.15c.075 0 .137-.02.185-.058a.339.339 0 0 0 .107-.152.58.58 0 0 0 .035-.203.585.585 0 0 0-.035-.204.343.343 0 0 0-.107-.152.285.285 0 0 0-.185-.059.285.285 0 0 0-.184.059.343.343 0 0 0-.108.152.585.585 0 0 0-.035.204c0 .073.012.14.035.203a.339.339 0 0 0 .107.151c.049.039.11.058.185.058Zm.75.127v-1.091h.162v.165h.012a.262.262 0 0 1 .108-.132.318.318 0 0 1 .176-.05 1.735 1.735 0 0 1 .088.003v.17a.504.504 0 0 0-.103-.011c-.053 0-.1.011-.142.033a.245.245 0 0 0-.134.222v.69h-.167Zm1.169.023a.467.467 0 0 1-.447-.266.669.669 0 0 1-.062-.294c0-.112.02-.21.061-.295a.461.461 0 0 1 .43-.273c.057 0 .114.01.169.028a.417.417 0 0 1 .26.26c.027.07.04.155.04.257v.071h-.84v-.145h.67a.358.358 0 0 0-.037-.164.278.278 0 0 0-.261-.157.3.3 0 0 0-.174.05.326.326 0 0 0-.111.128.376.376 0 0 0-.04.169v.096c0 .083.015.153.043.21.03.057.07.1.12.13.052.03.11.044.179.044a.363.363 0 0 0 .119-.018.256.256 0 0 0 .093-.057.259.259 0 0 0 .06-.095l.162.045a.36.36 0 0 1-.086.145.42.42 0 0 1-.149.096.552.552 0 0 1-.2.035Zm1.18-1.114v.142h-.565v-.142h.566Zm-.4-.261h.168v1.04c0 .047.007.082.02.106a.106.106 0 0 0 .054.047.216.216 0 0 0 .07.011.294.294 0 0 0 .046-.003l.029-.005.034.15a.339.339 0 0 1-.125.02.339.339 0 0 1-.14-.03.278.278 0 0 1-.112-.093.267.267 0 0 1-.044-.158v-1.085Zm.844.696v.656h-.168v-1.455h.168v.535h.014a.31.31 0 0 1 .115-.135.373.373 0 0 1 .206-.05.41.41 0 0 1 .196.044c.055.03.099.075.13.136.03.06.046.138.046.232v.693h-.167v-.682a.28.28 0 0 0-.068-.2.24.24 0 0 0-.185-.073.31.31 0 0 0-.148.035.255.255 0 0 0-.102.102.33.33 0 0 0-.037.162Zm1.574.656V18.5l.48-.526c.056-.061.102-.115.139-.16a.59.59 0 0 0 .08-.13.313.313 0 0 0 .028-.127.236.236 0 0 0-.137-.22.323.323 0 0 0-.142-.03.296.296 0 0 0-.146.035.24.24 0 0 0-.096.096.3.3 0 0 0-.033.145h-.168a.409.409 0 0 1 .22-.375.483.483 0 0 1 .23-.055c.084 0 .16.018.226.055a.406.406 0 0 1 .155.145c.037.061.056.13.056.204 0 .053-.01.106-.03.157a.694.694 0 0 1-.099.17 3.054 3.054 0 0 1-.195.227l-.327.35v.01h.676v.157H63.4Zm1.685.02a.433.433 0 0 1-.273-.088.546.546 0 0 1-.173-.255 1.212 1.212 0 0 1-.06-.404c0-.158.02-.292.06-.403a.55.55 0 0 1 .173-.256.43.43 0 0 1 .273-.088c.106 0 .197.03.272.088a.543.543 0 0 1 .173.256c.04.111.06.245.06.403 0 .158-.02.293-.059.404a.546.546 0 0 1-.173.255.433.433 0 0 1-.273.088Zm0-.157c.106 0 .188-.05.247-.153.059-.102.088-.248.088-.437 0-.126-.013-.234-.04-.322a.441.441 0 0 0-.115-.202.254.254 0 0 0-.18-.07c-.105 0-.187.052-.246.155-.06.104-.09.25-.09.439 0 .126.014.233.04.32a.441.441 0 0 0 .115.202c.05.046.11.069.181.069Zm.776.137V18.5l.48-.526c.056-.061.102-.115.139-.16a.593.593 0 0 0 .08-.13.313.313 0 0 0 .028-.127.236.236 0 0 0-.136-.22.323.323 0 0 0-.143-.03.296.296 0 0 0-.146.035.24.24 0 0 0-.096.096.301.301 0 0 0-.033.145h-.168a.409.409 0 0 1 .22-.375.484.484 0 0 1 .23-.055c.084 0 .16.018.226.055a.406.406 0 0 1 .154.145c.038.061.057.13.057.204 0 .053-.01.106-.03.157a.693.693 0 0 1-.099.17 3.035 3.035 0 0 1-.195.227l-.327.35v.01h.676v.157h-.917Zm1.21 0V18.5l.48-.526c.057-.061.103-.115.14-.16a.59.59 0 0 0 .08-.13.313.313 0 0 0 .028-.127.235.235 0 0 0-.137-.22.323.323 0 0 0-.142-.03.296.296 0 0 0-.146.035.24.24 0 0 0-.096.096.3.3 0 0 0-.033.145h-.168a.409.409 0 0 1 .22-.375.484.484 0 0 1 .229-.055c.085 0 .16.018.227.055a.406.406 0 0 1 .154.145c.038.061.056.13.056.204 0 .053-.01.106-.029.157a.693.693 0 0 1-.099.17 3.054 3.054 0 0 1-.195.227l-.327.35v.01h.676v.157h-.918Z" class="John Loreth 2022"/>
    <g class="Group">
      <path fill="#F0352B" d="M113.878 0c-9.505 0-17.723 4.547-23.672 10.505-.743.744-1.42 1.55-2.1 2.351a11.663 11.663 0 0 0-5.013-.194c-4.796.855-8.167 4.188-9.876 7.935-.316.057-.629.107-.947.19-2.483-.306-4.943.048-7.204.872-1.286-.696-2.608-1.154-3.817-1.364-1.78-.31-3.78-.204-5.724.353a11.89 11.89 0 0 0-6.46-.026 12.007 12.007 0 0 0-4.808-1.913c-2.145-3.999-6.29-6.691-11.24-6.691-1.613 0-3.11.338-4.474.884-.794-.24-1.633-.433-2.558-.487h-.01a10.808 10.808 0 0 0-.712-.017c-1.223.012-2.387.298-3.446.644a12.362 12.362 0 0 0-3.262-.651c-4.519-.283-9.483 1.896-12.387 5.753l-.001.001c-.173.229-.335.464-.489.706l-.001.002C2.13 24.441.96 30.428.243 34.801v.004c-.037.224-.066.45-.089.677-.273 2.75-.74 9.45 4.18 14.776v.001l.003.003.054.059a.25.25 0 0 0 .006.005c3.43 3.65 8.043 4.923 11.986 4.742a16.436 16.436 0 0 0 3.832-.635c.39-.114.775-.25 1.151-.407.824-.345 1.572-.74 2.282-1.154.515.281 1.04.543 1.58.752.092.036.184.048.276.082-5.349 5.91-9.34 13.102-11.165 21.227v.005c-.07.312-.13.627-.176.944v.006l-7.545 52.163v.005c-.03.205-.054.41-.074.616v.001c-.593 6.317 1.412 12.501 5.683 16.887 4.093 4.204 9.535 6.174 14.752 6.293 10.854.248 21.46-7.998 23.235-20.567l.661-4.556c7.62 1.189 15.583-.912 23.472-4.089l.045-.018.044-.018-.037.015c2.92-1.191 5.836-2.755 8.547-4.788.377.552.742 1.111 1.181 1.624 3.895 4.546 9.285 6.799 14.44 7.272 4.687.43 9.387-.709 13.498-3.122 3.37 2.205 7.172 3.304 10.763 3.502 5.407.298 11.12-1.386 15.643-4.792.987 8.271 4.512 15.57 9.894 20.849 7.292 7.151 17.022 10.427 26.509 10.491 13.162.201 22.685-10.06 23.715-21.047.2-2.16.085-4.338-.342-6.465 2.607.495 5.314.665 8.085.517v.022l.581-.017-.253.002c13.392.191 26.887-5.498 36.572-15.765.176.239.337.487.519.723l.001.001.001.002c.131.169.266.335.405.497l.003.002c9.781 11.374 23.375 16.278 36.035 14.385l.051-.008.059-.01c2.724-.432 5.22-1.361 7.486-2.586 3.682 2.3 7.816 3.174 11.466 3.151 4.449-.029 8.776-1.304 12.598-3.588 3.116 1.853 6.553 2.823 9.868 3.038 4.593.299 9.194-.861 13.208-3.259 3.216 1.999 6.801 3.036 10.24 3.259 10.58.688 22.096-6.437 24.122-19.028l.033-.216.004-.024 10.284-72.922-.1.36c.07-.251.123-.506.159-.764a19.122 19.122 0 0 0-5.916-16.701c-4.014-3.73-9.122-5.48-14.052-5.663-4.343-.16-8.611 1.076-12.371 3.382-3.416-2.169-7.297-3.241-11.078-3.381-10.562-.393-21.424 7.268-23.822 19.878-.034.178-.064.356-.09.535v.002l-1.795 12.335c-5.979-4.483-13.633-7.565-22.607-7.813h-.015c-14.581-.385-28.803 5.647-38.761 16.321-.24-.331-.464-.668-.717-.994-5.363-6.94-13.747-12.614-24.248-14.089a25.84 25.84 0 0 0-7.355-1.284c.021-.197.056-.428.076-.622v-.003l.001-.01.003-.053c.641-6.475-.798-13.116-5.212-18.036-4.415-4.923-10.541-6.78-15.975-6.591-10.441.36-20.887 7.906-22.504 19.979l-.01.02-1.58 11.4c-5.798-3.684-12.942-5.947-21.031-5.966h-.004c-.065 0-.133 0-.201.002-2.271.032-4.449.286-6.577.645.551-2.436.868-4.967.852-7.586-.05-8.38-3.287-16.292-9.229-21.74C129.582 2.5 121.792 0 113.879 0h-.001ZM62.886 30.902l10.71 4.54c-.069.22-.154.434-.255.64a4.93 4.93 0 0 1-.332.598c-.184.29.518.587-2.188 2.018-.341.18-1.386.521-1.386.521l-2.35.071-2.663-1.204-1.52-1.854s-.435-1.044-.52-1.428a5.632 5.632 0 0 1-.13-.933c-.025-.349-.013-.7.032-1.047.12-.972.247-1.122.33-1.342.128-.336.197-.446.272-.58Zm147.792 49.679c.449.066.893.155 1.347.2-.047.276-.055.515-.139.817.194-.695.065-.141-.431.27a4.51 4.51 0 0 1-.768.49c-.031-.501-.019-1.113-.009-1.777Zm71.583.26-.28 1.834a29.442 29.442 0 0 0-1.854-.357 5.163 5.163 0 0 1 1.274-1.125c.243-.147.559-.245.86-.353Zm-222.841.095c-.308.64-.836 1.216-1.763 1.507a9.587 9.587 0 0 1 1.763-1.507Z" class="Vector"/>
      <path fill="url(#b)" d="M113.876 5.848c-7.624 0-14.431 3.679-19.534 8.79a33.14 33.14 0 0 0-4.529 5.673c-1.549-1.42-3.74-2.24-5.696-1.891-2.994.533-5.106 2.913-5.966 5.596l-.022.072c-.277.91-.47 1.63-.704 2.442-1.423-.442-3.16-.459-4.739.272-2.89-.76-5.827-.03-8.322 1.76-1.14-1.546-2.677-2.255-4.12-2.506-1.449-.253-2.962-.083-4.433.718-.108.06-.207.152-.313.22-.367-.215-.71-.455-1.135-.611-2.269-.835-4.762-.206-6.454 1.356-.23-.441-.487-.842-.77-1.155a5.071 5.071 0 0 0-.388-.386c-1.796-1.588-4.588-2.036-6.485-1.52-.1.028-.18.07-.276.1-.043-3.628-3.342-6.913-6.975-6.913-1.536 0-2.997.61-4.194 1.562-.911-.619-1.955-1.104-3.175-1.174a4.955 4.955 0 0 0-.33-.007c-1.913.018-2.733.585-3.661 1.211-.009.005-.016.014-.024.02a6.646 6.646 0 0 0-3.444-1.25c-2.97-.186-5.403.849-7.35 3.435a4.909 4.909 0 0 0-.224.323C7.801 26.417 6.69 31.61 6.011 35.747c-.017.103-.03.206-.04.31-.256 2.57-.553 6.764 2.657 10.237l.027.03c2.094 2.227 4.939 3.02 7.458 2.905a10.555 10.555 0 0 0 2.468-.41c.178-.051.354-.113.526-.185 1.993-.834 3.464-1.985 4.725-3.184.836 1.232 1.98 2.131 3.509 2.724 2.034.79 3.644.781 5.559.558.82-.095 1.69-.265 2.571-.547.914.383 1.852.662 2.76.781.12.015.24.027.361.033.709.04 1.325-.003 1.895-.076-10.033 5.926-17.82 15.601-20.445 27.298a6.575 6.575 0 0 0-.094.505l-7.545 52.163c-.016.11-.03.22-.04.331-.439 4.676 1.126 9.259 4.051 12.262 2.924 3.004 6.837 4.439 10.697 4.527 7.717.176 15.945-5.852 17.311-15.541l1.642-11.306c.071.035.139.084.21.118 7.472 3.563 16.072 1.891 25.888-2.061l.027-.012c4.004-1.632 7.7-3.795 10.606-7.038a36.83 36.83 0 0 0 2.524-2.167c.358 2.898 1.488 5.6 3.246 7.651 2.788 3.254 6.66 4.899 10.534 5.254 4.559.418 9.506-1.293 13.22-4.711 2.919 3.322 6.995 4.864 10.829 5.075 7.812.431 16.585-4.544 17.878-13.876l.004-.034s1.017-7.625 2.011-15.232c.457-3.484.906-6.97 1.346-10.455.179-1.428.323-2.614.422-3.477.024-.208.037-.35.055-.523.685-1.902 2.554-2.765 3.74-2.782.202-.003.26.02.352.037-.002.123.008.186-.05.635l-.005.044-4.62 37.526v.003c-1.331 10.659 2.093 19.889 8.176 25.855 6.072 5.955 14.304 8.771 22.482 8.82 10.045.165 17.082-7.796 17.828-15.747.373-3.982-.64-8.325-3.679-11.671-2.944-3.241-7.665-4.938-12.576-4.68l-.009-.005c-.055-.438.197-3.315.849-8.039l.277-1.954c1.126 1.596 2.344 3.124 3.687 4.519 6.449 6.699 15.46 11.289 25.194 10.591 14.232.288 29.036-7.208 37.504-20.342 1.128 2.71 2.575 5.26 4.361 7.567.07.09.142.179.217.266 8.604 10.004 20.106 14.004 30.737 12.414l.059-.009a17.662 17.662 0 0 0 8.748-4.035.121.121 0 0 0 .01.014c3.071 3.338 7.307 4.537 11.072 4.513a18.944 18.944 0 0 0 10.515-3.243 17.378 17.378 0 0 0 2.198-1.759c2.841 2.848 6.545 4.229 10.17 4.465 4.514.293 9.379-1.432 12.955-4.785 2.879 3.073 6.732 4.54 10.494 4.785 7.669.498 16.452-4.694 17.97-14.123l.019-.128 10.338-73.303.004-.013c.618-4.443-1.213-8.924-4.105-11.611-2.892-2.687-6.544-3.964-10.289-4.103-4.261-.158-8.814 1.644-12.324 4.984a11.9 11.9 0 0 0-.836-.881c-2.892-2.687-6.544-3.964-10.288-4.103-7.489-.278-15.998 5.323-17.862 15.13-.018.094-.034.189-.048.284l-3.507 24.104c-5.189-7.68-14.425-14.235-26.841-14.578h-.009c-15.554-.41-30.824 7.52-39.354 20.92a35.665 35.665 0 0 0-4.596-7.863c-4.62-5.977-11.854-10.87-21.013-11.98-4.387-1.542-8.883-1.463-12.681-.14.346-2.753.742-5.665.976-8.036v-.002c.531-5.25-.674-10.188-3.744-13.61-3.07-3.424-7.485-4.788-11.42-4.652-7.869.272-15.771 5.845-16.935 15.036l.011-.077-3.076 22.194c-5.409-6.813-14.095-11.69-25.34-11.716h-.106c-6.639.093-12.579 1.906-17.627 4.651 3.713-4.783 6.01-10.768 5.97-17.402-.041-6.9-2.699-13.215-7.334-17.464-4.635-4.25-10.935-6.347-17.626-6.347h-.001Zm92.634 114.978c-.116-.002-.233.017-.349.014l.777-.023c-.144.013-.284-.001-.428.009ZM68.084 33.532c.007-.004-.003.03-.042.1l-.018.032a.376.376 0 0 1 .06-.133ZM89.27 47.03a24.114 24.114 0 0 0 4.257 5.113c-.429.923-.789 1.967-.887 3.275l.055-.49-.438 2.92c-2.305-3.534-5.363-6.653-9.154-9.16.182-.001.364.007.548 0 1.675-.067 3.18.168 5.619-1.658Zm116.485 26.007c2.767 1.425 6.094 2.104 9.663 2.055 1.977.655 2.283 1.177 2.552 1.85.307.763.485 2.858-.454 6.226-.587 2.105-3.41 4.66-6.638 5.297-3.824.235-4.5-.346-4.994-1.003-.506-.672-1.423-3.546-.987-9.101.02-.12.614-3.852.858-5.324Zm77.693 1.579a5.21 5.21 0 0 1 1.15.075c1.399.372 4.093 2.419 3.619 5.867v.002l-1.544 10.084c-3.038-1.852-6.739-2.774-10.894-2.858-.637-.67-1.106-1.195-1.355-1.639-.438-.782-.836-1.721-.443-4.67.602-1.995 2.208-3.964 4.39-5.285 1.702-1.03 3.634-1.52 5.077-1.576Zm-223.238.03c1.15-.084 2.143.097 2.891.44.91.417 1.643 1.02 2.323 2.534.983 4.637-2.074 10.384-8.353 10.844-.286.02-.57.06-.85.117-1.347.276-2.925.363-5.235 1.094-.225.072-.455.183-.681.268l1.207-8.314c.873-3.307 4.228-6.096 7.499-6.808a8.562 8.562 0 0 1 1.199-.175Zm182.929.41c-.012.036-.016.072-.027.109-.017.058-.039.112-.055.17l.082-.28Z" class="Vector"/>
      <path fill="#000" d="M62.106 49.273c-16.08.443-32.02 12.616-35.564 28.404l-7.545 52.163c-1.142 12.154 16.915 13.303 18.834-.306l7.158-49.314c2.99-12.456 21.685-17.76 26.837-4.612 2.248 8.693-3.796 18.73-14.266 19.496-1.759.36-3.139.47-4.56.92-1.716.543-2.596 1.09-5.366 3.355-7.578 14.324 4.257 18.821 22.044 11.659 3.611-1.472 6.748-3.463 8.631-5.777 16-12.092 18.64-40.609.202-51.662-4.893-3.007-10.68-4.438-16.405-4.326Zm47.672-1.492c-1.708 1.31-4.147-.047-5.618.687-.759.377-1.315 2.786-1.315 2.786-1.249 1.449-3.423 2.83-3.56 4.661l-7.24 48.203c-2.477 12.193 16.544 14.481 19.127 1.213l6.709-48.235c.241-1.822-.987-4.272-1.916-5.547-1.459-2.002-3.697-3.44-6.187-3.768Zm40.809 1.286c-17.311.24-28.635 14.406-30.362 23.56l-4.808 30.77c-2.244 14.923 17.506 13.976 19.015 3.081 0 0 4.064-30.478 3.876-30.286 2.812-10.303 18.664-11.003 17.206.227l-4.621 37.538c-2.234 17.875 10.807 27.133 24.127 27.194 13.513.259 15.624-19.891 1.54-18.788-.838.073-1.677.007-2.391-.396-5.52-3.117-4.697-5.892-3.407-15.234l4.458-31.464c2.316-11.094-6.178-26.16-24.633-26.202Z" class="Vector"/>
      <path fill="#000" d="m185.613 32.846-7.228 52.17c-1.967 14.754 13.259 30.458 27.973 29.167 18.101.529 38.283-13.954 38.093-38.619-.199-10.088-7.788-24.284-23.217-25.662-16.225-6.596-25.054 19.918-4.814 18.512 8.301 2.331 9.818 8.282 7.514 16.545-1.445 5.181-6.513 9.203-12.227 10.14-10.737.78-14.497-4.654-13.44-17.436 0 0 4.692-27.678 6.212-43.097 1.602-15.812-17.465-12.78-18.866-1.72Zm101.985 16.148c-16.74-.442-33.405 10.621-38.108 28.076-3.165 9.982-1.269 19.902 4.153 26.905 7.374 8.573 16.184 11.444 24.704 10.17 12.337-1.957 13.858-21.297-5.38-19.655-2.893-3.127-6.866-5.621-5.522-14.451 2.124-8.166 11.613-13.33 18.627-11.858 4.795 1.14 9.707 6.312 8.746 13.29l-3.502 22.866c-2.247 14.588 17.01 11.817 18.606 2.528l4.056-27.689c1.624-9.63-5.732-29.612-26.38-30.182ZM324.72 33.77l-10.202 70.127c-1.983 12.811 17.037 13.681 18.981 1.6l10.339-73.304c1.342-9.644-16.424-12.59-19.118 1.577ZM132.179 29.7c.072 12.12-10.793 22.072-21.457 22.072-10.665 0-18.488-6.93-18.488-17.595s10.98-21.67 21.645-21.67c10.664 0 18.235 6.528 18.3 17.192Zm215.99 4.07-10.203 70.127c-1.982 12.811 17.037 13.681 18.981 1.6l10.339-73.304c1.342-9.644-16.424-12.59-19.117 1.577Z" class="Vector"/>
    </g>
    <g class="Group">
      <path fill="#100" stroke="#000" stroke-linecap="round" stroke-width=".345" d="M14.762 24.617c-2.11 3.325-3.274 8.1-3.901 11.924-.217 2.18-.204 4.708 1.376 6.417 1.255 1.336 3.263 1.64 4.973 1.142 2.108-.883 3.96-2.916 5.81-4.908 1.905-2.277 2.958-6.054 3.49-8.887 2.086 1.29 3.797-1.072 1.367-1.845-.852-.348-.767-1.014-.693-1.632.4-1.42-.215-3.577-1.82-3.67-1.007.01-3.684 2.08-1.245 4.86.255.585.419 1.018.184 1.91-.849 2.33-1.597 5.19-3.04 7.25-.575.67-1.156 1.349-1.785 1.96-2.504 2.542-5.595 2.017-5.489-1.073.091-2.049.562-3.627 1.231-5.698.634-2.485 2.188-5.295 3.625-7.246 1.318-2.574-2.53-2.567-4.082-.504Zm64.594 17.837c.573-.293 1.009.639 1.4.888.821.67 4.495.593 5.649-.295 2.543-1.89 1.798-3.357.438-2.19-1.64 1.865-5.121 1.808-4.807-.175.722-4.284 1.877-9.503 3.677-11.73.554-.686.988-1.245 1.199-2.146.13-.782.245-1.566.014-2.308-.614-1.913-3.212-1.737-4.096 1.018-2.15 7.074-2.809 10.53-3.058 13.527-.244 3.395-6.71 4.219-5.825 1.048l2.85-7.589c.472-1.08-1.525-2.072-2.438-.963-.218.264-.537.508-.784.92 0 0-.328-.12-1.199-.568-2.234-1.148-6.233.142-8.342 4.62-.433 1.283-.617 2.457-.557 3.807-.094.412-.3.729-.661 1.066-1.638 1.577-5.047.948-4.406-2.09.84-2.43 1.208-4.416 2.15-6.558.677-2.069-2.694-2.65-3.216-.565-.915 3.375-1.184 5.063-2.42 7.19l-1.054 1.466c-1.713 2.395-2.948.195-2.307-1.942l2.197-6.148c.263-.715-.378-1.48-1.093-1.744a1.379 1.379 0 0 0-1.77.818l-1.82 6.738c-.605 2.508-1.067 2.62-3.112 3.625-1.883.904-2.45-.079-1.515-1.701.786-1.463.76-3.778-.29-5.441-.23-.395-.46-.687-.783-1.074-.57-.591-.18-1.7.213-2.218.189-.54.628-1.063-.094-1.862-1.24-1.096-2.767-.329-3.486.598-.504.632-.707 1.574.277 2.826l-4.826 7.223c-.503.5-1.52 1.403-4.152 1.33-1.326-.166-1.214-1.318-.976-1.895l2.383-7.398c.594-2.141-2.829-2.063-3.314-.445l-1.956 7.643c-.176.496-.242 1.236.04 2.094.205.728.858 1.438 1.632 1.739 1.477.573 4.917.465 6.527-1.053.853.9 1.918 1.383 3.223 1.553 1.541.087 2.418-.393 3.588-.773 1.643.843 2.653.818 4.387.06.311-.14.577-.3.839-.466.787-.556 1.014-1.03 1.517-.003.758 1.345 3.746.578 4.516-.076.484-.325.801-.584 1.088-1.022.676-1.51 1.092-.519 1.185-.011.522 2.887 4.879 2.562 6.175 1.618 1.574-.887 1.212-1.03 2.614.174.972.796 3.254 1.095 5.545-1.75.378-.703.609-.204 1.161.664 1.039 2.165 5.402 1.89 7.873-.054ZM68.808 41.23c-1.931 1.888-3.303-.47-2.49-2.71.421-1.164 1.185-2.195 1.561-2.664.872-1.054 1.876-1.85 2.953-2.159.631-.089 3.077-.427 1.475 2.373a28.518 28.518 0 0 1-3.499 5.16h0Zm-28.027-4.905c.156-.255.35-.284.723.365.925 1.62.013 3.622-.994 4.86-.933.906-3.002-.774-1.835-2.312l2.106-2.913Z" class="Vector"/>
      <path fill="#100" d="M33.014 22.776a2.069 2.069 0 1 1 0 4.138 2.069 2.069 0 0 1 0-4.138Z" class="Vector"/>
    </g>
  </g>
</svg>
