<svg width="358" height="130" viewBox="0 0 358 130" fill="none" xmlns="http://www.w3.org/2000/svg">
<g clip-path="url(#clip0_1285_2754)">
<path d="M42.1001 5.17436H42.2763V6.21413C42.2763 6.30694 42.2592 6.38577 42.2251 6.45064C42.1911 6.51551 42.143 6.56475 42.081 6.59837C42.0189 6.63198 41.9458 6.64879 41.8615 6.64879C41.782 6.64879 41.7112 6.63435 41.6491 6.60547C41.5871 6.57611 41.5384 6.53445 41.5028 6.48047C41.4673 6.42649 41.4496 6.36233 41.4496 6.288H41.6229C41.6229 6.32919 41.633 6.36517 41.6534 6.39595C41.6742 6.42625 41.7027 6.44993 41.7386 6.46697C41.7746 6.48402 41.8156 6.49254 41.8615 6.49254C41.9122 6.49254 41.9553 6.48189 41.9908 6.46058C42.0263 6.43928 42.0533 6.40803 42.0717 6.36683C42.0907 6.32517 42.1001 6.27427 42.1001 6.21413V5.17436ZM43.0497 6.65163C42.9512 6.65163 42.8648 6.6282 42.7905 6.58132C42.7166 6.53445 42.6589 6.46887 42.6172 6.38459C42.576 6.30031 42.5554 6.20182 42.5554 6.08913C42.5554 5.9755 42.576 5.8763 42.6172 5.79155C42.6589 5.70679 42.7166 5.64098 42.7905 5.5941C42.8648 5.54723 42.9512 5.52379 43.0497 5.52379C43.1482 5.52379 43.2344 5.54723 43.3082 5.5941C43.3826 5.64098 43.4403 5.70679 43.4815 5.79155C43.5232 5.8763 43.544 5.9755 43.544 6.08913C43.544 6.20182 43.5232 6.30031 43.4815 6.38459C43.4403 6.46887 43.3826 6.53445 43.3082 6.58132C43.2344 6.6282 43.1482 6.65163 43.0497 6.65163ZM43.0497 6.50107C43.1245 6.50107 43.1861 6.48189 43.2344 6.44354C43.2827 6.40518 43.3184 6.35476 43.3416 6.29226C43.3648 6.22976 43.3764 6.16205 43.3764 6.08913C43.3764 6.01622 43.3648 5.94827 43.3416 5.8853C43.3184 5.82232 43.2827 5.77142 43.2344 5.7326C43.1861 5.69377 43.1245 5.67436 43.0497 5.67436C42.9749 5.67436 42.9134 5.69377 42.8651 5.7326C42.8168 5.77142 42.781 5.82232 42.7578 5.8853C42.7346 5.94827 42.723 6.01622 42.723 6.08913C42.723 6.16205 42.7346 6.22976 42.7578 6.29226C42.781 6.35476 42.8168 6.40518 42.8651 6.44354C42.9134 6.48189 42.9749 6.50107 43.0497 6.50107ZM43.9675 5.97266V6.62891H43.7999V5.17436H43.9675V5.70845H43.9817C44.0073 5.65211 44.0456 5.60736 44.0968 5.57422C44.1484 5.5406 44.217 5.52379 44.3027 5.52379C44.3771 5.52379 44.4422 5.53871 44.498 5.56854C44.5539 5.59789 44.5972 5.64311 44.628 5.70419C44.6593 5.7648 44.6749 5.84197 44.6749 5.93572V6.62891H44.5073V5.94709C44.5073 5.86044 44.4848 5.79344 44.4398 5.74609C44.3953 5.69827 44.3335 5.67436 44.2544 5.67436C44.1995 5.67436 44.1503 5.68596 44.1067 5.70916C44.0636 5.73236 44.0295 5.76622 44.0044 5.81072C43.9798 5.85523 43.9675 5.90921 43.9675 5.97266ZM45.1492 5.97266V6.62891H44.9815V5.538H45.1435V5.70845H45.1577C45.1832 5.65305 45.2221 5.60855 45.2742 5.57493C45.3262 5.54084 45.3935 5.52379 45.4759 5.52379C45.5497 5.52379 45.6144 5.53894 45.6697 5.56925C45.7251 5.59908 45.7682 5.64453 45.799 5.70561C45.8298 5.76622 45.8452 5.84292 45.8452 5.93572V6.62891H45.6776V5.94709C45.6776 5.86139 45.6553 5.79463 45.6108 5.7468C45.5663 5.69851 45.5052 5.67436 45.4276 5.67436C45.3741 5.67436 45.3262 5.68596 45.2841 5.70916C45.2424 5.73236 45.2095 5.76622 45.1854 5.81072C45.1612 5.85523 45.1492 5.90921 45.1492 5.97266ZM46.7367 6.62891V5.17436H46.9128V6.47266H47.589V6.62891H46.7367ZM48.2821 6.65163C48.1837 6.65163 48.0972 6.6282 48.0229 6.58132C47.949 6.53445 47.8913 6.46887 47.8496 6.38459C47.8084 6.30031 47.7878 6.20182 47.7878 6.08913C47.7878 5.9755 47.8084 5.8763 47.8496 5.79155C47.8913 5.70679 47.949 5.64098 48.0229 5.5941C48.0972 5.54723 48.1837 5.52379 48.2821 5.52379C48.3806 5.52379 48.4668 5.54723 48.5407 5.5941C48.615 5.64098 48.6728 5.70679 48.714 5.79155C48.7556 5.8763 48.7765 5.9755 48.7765 6.08913C48.7765 6.20182 48.7556 6.30031 48.714 6.38459C48.6728 6.46887 48.615 6.53445 48.5407 6.58132C48.4668 6.6282 48.3806 6.65163 48.2821 6.65163ZM48.2821 6.50107C48.357 6.50107 48.4185 6.48189 48.4668 6.44354C48.5151 6.40518 48.5508 6.35476 48.574 6.29226C48.5972 6.22976 48.6088 6.16205 48.6088 6.08913C48.6088 6.01622 48.5972 5.94827 48.574 5.8853C48.5508 5.82232 48.5151 5.77142 48.4668 5.7326C48.4185 5.69377 48.357 5.67436 48.2821 5.67436C48.2073 5.67436 48.1458 5.69377 48.0975 5.7326C48.0492 5.77142 48.0134 5.82232 47.9902 5.8853C47.967 5.94827 47.9554 6.01622 47.9554 6.08913C47.9554 6.16205 47.967 6.22976 47.9902 6.29226C48.0134 6.35476 48.0492 6.40518 48.0975 6.44354C48.1458 6.48189 48.2073 6.50107 48.2821 6.50107ZM49.0323 6.62891V5.538H49.1943V5.70277H49.2056C49.2255 5.64879 49.2615 5.60499 49.3136 5.57138C49.3657 5.53776 49.4244 5.52095 49.4897 5.52095C49.502 5.52095 49.5174 5.52119 49.5359 5.52166C49.5543 5.52213 49.5683 5.52284 49.5778 5.52379V5.69425C49.5721 5.69283 49.5591 5.6907 49.5387 5.68785C49.5188 5.68454 49.4978 5.68288 49.4755 5.68288C49.4225 5.68288 49.3751 5.69401 49.3335 5.71626C49.2923 5.73804 49.2596 5.76835 49.2354 5.80717C49.2118 5.84552 49.1999 5.88932 49.1999 5.93856V6.62891H49.0323ZM50.2006 6.65163C50.0955 6.65163 50.0049 6.62843 49.9286 6.58203C49.8529 6.53516 49.7944 6.46982 49.7532 6.38601C49.7125 6.30173 49.6921 6.20372 49.6921 6.09197C49.6921 5.98023 49.7125 5.88175 49.7532 5.79652C49.7944 5.71082 49.8517 5.64406 49.9251 5.59623C49.9989 5.54794 50.0851 5.52379 50.1836 5.52379C50.2404 5.52379 50.2965 5.53326 50.3519 5.5522C50.4073 5.57114 50.4577 5.60192 50.5032 5.64453C50.5487 5.68667 50.5849 5.74254 50.6119 5.81214C50.6389 5.88175 50.6524 5.96745 50.6524 6.06925V6.14027H49.8114V5.99538H50.4819C50.4819 5.93383 50.4696 5.87891 50.445 5.83061C50.4208 5.78231 50.3863 5.7442 50.3413 5.71626C50.2968 5.68833 50.2442 5.67436 50.1836 5.67436C50.1168 5.67436 50.0591 5.69093 50.0103 5.72408C49.962 5.75675 49.9248 5.79936 49.8988 5.85192C49.8728 5.90447 49.8597 5.96082 49.8597 6.02095V6.11754C49.8597 6.19993 49.8739 6.26977 49.9024 6.32706C49.9312 6.38388 49.9712 6.4272 50.0224 6.45703C50.0735 6.48639 50.1329 6.50107 50.2006 6.50107C50.2447 6.50107 50.2845 6.49491 50.32 6.4826C50.3559 6.46982 50.387 6.45088 50.413 6.42578C50.439 6.40021 50.4592 6.36849 50.4734 6.33061L50.6353 6.37607C50.6183 6.43099 50.5896 6.47928 50.5494 6.52095C50.5091 6.56214 50.4594 6.59434 50.4002 6.61754C50.341 6.64027 50.2745 6.65163 50.2006 6.65163ZM51.3818 5.538V5.68004H50.8164V5.538H51.3818ZM50.9812 5.27663H51.1488V6.31641C51.1488 6.36375 51.1557 6.39927 51.1694 6.42294C51.1836 6.44614 51.2016 6.46177 51.2234 6.46982C51.2456 6.47739 51.2691 6.48118 51.2937 6.48118C51.3122 6.48118 51.3273 6.48023 51.3391 6.47834C51.351 6.47597 51.3604 6.47408 51.3676 6.47266L51.4016 6.62322C51.3903 6.62749 51.3744 6.63175 51.3541 6.63601C51.3337 6.64074 51.3079 6.64311 51.2766 6.64311C51.2293 6.64311 51.1829 6.63293 51.1374 6.61257C51.0925 6.59221 51.0551 6.5612 51.0252 6.51953C50.9959 6.47786 50.9812 6.42531 50.9812 6.36186V5.27663ZM51.8249 5.97266V6.62891H51.6573V5.17436H51.8249V5.70845H51.8391C51.8647 5.65211 51.9031 5.60736 51.9542 5.57422C52.0058 5.5406 52.0745 5.52379 52.1602 5.52379C52.2345 5.52379 52.2996 5.53871 52.3555 5.56854C52.4113 5.59789 52.4547 5.64311 52.4854 5.70419C52.5167 5.7648 52.5323 5.84197 52.5323 5.93572V6.62891H52.3647V5.94709C52.3647 5.86044 52.3422 5.79344 52.2972 5.74609C52.2527 5.69827 52.1909 5.67436 52.1119 5.67436C52.0569 5.67436 52.0077 5.68596 51.9641 5.70916C51.9211 5.73236 51.887 5.76622 51.8619 5.81072C51.8372 5.85523 51.8249 5.90921 51.8249 5.97266ZM53.3986 6.62891V6.50107L53.8787 5.9755C53.9351 5.91394 53.9815 5.86044 54.0179 5.81499C54.0544 5.76906 54.0814 5.72597 54.0989 5.68572C54.1169 5.645 54.1259 5.60239 54.1259 5.55788C54.1259 5.50675 54.1136 5.46248 54.089 5.42507C54.0648 5.38766 54.0317 5.35878 53.9895 5.33842C53.9474 5.31806 53.9 5.30788 53.8475 5.30788C53.7916 5.30788 53.7428 5.31948 53.7012 5.34268C53.66 5.36541 53.628 5.39737 53.6053 5.43856C53.583 5.47976 53.5719 5.52805 53.5719 5.58345H53.4043C53.4043 5.49822 53.424 5.42341 53.4633 5.35902C53.5026 5.29462 53.5561 5.24444 53.6238 5.20845C53.6919 5.17247 53.7684 5.15447 53.8532 5.15447C53.9384 5.15447 54.0139 5.17247 54.0797 5.20845C54.1455 5.24444 54.1972 5.29297 54.2346 5.35405C54.272 5.41513 54.2907 5.48307 54.2907 5.55788C54.2907 5.61139 54.281 5.66371 54.2616 5.71484C54.2426 5.76551 54.2095 5.82209 54.1621 5.88459C54.1152 5.94661 54.0501 6.02237 53.9668 6.11186L53.6401 6.46129V6.47266H54.3162V6.62891H53.3986ZM55.084 6.64879C54.977 6.64879 54.8858 6.61967 54.8106 6.56143C54.7353 6.50272 54.6777 6.41773 54.638 6.30646C54.5982 6.19472 54.5783 6.05978 54.5783 5.90163C54.5783 5.74444 54.5982 5.6102 54.638 5.49893C54.6782 5.38719 54.736 5.30196 54.8113 5.24325C54.887 5.18407 54.9779 5.15447 55.084 5.15447C55.1901 5.15447 55.2807 5.18407 55.356 5.24325C55.4318 5.30196 55.4895 5.38719 55.5293 5.49893C55.5696 5.6102 55.5897 5.74444 55.5897 5.90163C55.5897 6.05978 55.5698 6.19472 55.53 6.30646C55.4902 6.41773 55.4327 6.50272 55.3574 6.56143C55.2821 6.61967 55.191 6.64879 55.084 6.64879ZM55.084 6.49254C55.1901 6.49254 55.2724 6.44141 55.3312 6.33913C55.3899 6.23686 55.4192 6.09103 55.4192 5.90163C55.4192 5.77569 55.4057 5.66844 55.3787 5.5799C55.3522 5.49136 55.3139 5.42389 55.2637 5.37748C55.214 5.33108 55.1541 5.30788 55.084 5.30788C54.9789 5.30788 54.8967 5.35973 54.8375 5.46342C54.7784 5.56664 54.7488 5.71271 54.7488 5.90163C54.7488 6.02758 54.762 6.13459 54.7885 6.22266C54.8151 6.31072 54.8532 6.37772 54.9029 6.42365C54.9531 6.46958 55.0134 6.49254 55.084 6.49254ZM55.8596 6.62891V6.50107L56.3397 5.9755C56.396 5.91394 56.4424 5.86044 56.4789 5.81499C56.5153 5.76906 56.5423 5.72597 56.5598 5.68572C56.5778 5.645 56.5868 5.60239 56.5868 5.55788C56.5868 5.50675 56.5745 5.46248 56.5499 5.42507C56.5258 5.38766 56.4926 5.35878 56.4505 5.33842C56.4083 5.31806 56.361 5.30788 56.3084 5.30788C56.2526 5.30788 56.2038 5.31948 56.1621 5.34268C56.1209 5.36541 56.089 5.39737 56.0662 5.43856C56.044 5.47976 56.0329 5.52805 56.0329 5.58345H55.8652C55.8652 5.49822 55.8849 5.42341 55.9242 5.35902C55.9635 5.29462 56.017 5.24444 56.0847 5.20845C56.1529 5.17247 56.2294 5.15447 56.3141 5.15447C56.3993 5.15447 56.4749 5.17247 56.5407 5.20845C56.6065 5.24444 56.6581 5.29297 56.6955 5.35405C56.7329 5.41513 56.7516 5.48307 56.7516 5.55788C56.7516 5.61139 56.7419 5.66371 56.7225 5.71484C56.7036 5.76551 56.6704 5.82209 56.6231 5.88459C56.5762 5.94661 56.5111 6.02237 56.4277 6.11186L56.101 6.46129V6.47266H56.7772V6.62891H55.8596ZM57.0705 6.62891V6.50107L57.5506 5.9755C57.607 5.91394 57.6534 5.86044 57.6898 5.81499C57.7263 5.76906 57.7533 5.72597 57.7708 5.68572C57.7888 5.645 57.7978 5.60239 57.7978 5.55788C57.7978 5.50675 57.7855 5.46248 57.7608 5.42507C57.7367 5.38766 57.7036 5.35878 57.6614 5.33842C57.6193 5.31806 57.5719 5.30788 57.5194 5.30788C57.4635 5.30788 57.4147 5.31948 57.3731 5.34268C57.3319 5.36541 57.2999 5.39737 57.2772 5.43856C57.2549 5.47976 57.2438 5.52805 57.2438 5.58345H57.0762C57.0762 5.49822 57.0958 5.42341 57.1351 5.35902C57.1744 5.29462 57.2279 5.24444 57.2956 5.20845C57.3638 5.17247 57.4403 5.15447 57.525 5.15447C57.6103 5.15447 57.6858 5.17247 57.7516 5.20845C57.8174 5.24444 57.869 5.29297 57.9064 5.35405C57.9438 5.41513 57.9625 5.48307 57.9625 5.55788C57.9625 5.61139 57.9528 5.66371 57.9334 5.71484C57.9145 5.76551 57.8813 5.82209 57.834 5.88459C57.7871 5.94661 57.722 6.02237 57.6387 6.11186L57.312 6.46129V6.47266H57.9881V6.62891H57.0705Z" fill="#FAFAFA" fill-opacity="0.01"/>
<path d="M52.1063 37.273C36.0263 37.7161 20.0856 49.8892 16.5421 65.6768L8.99727 117.84C7.85485 129.994 25.9118 131.143 27.8307 117.534L34.9894 68.2196C37.9794 55.7644 56.6739 50.4599 61.8263 63.6075C64.0735 72.3006 58.0297 82.3378 47.5604 83.1044C45.8011 83.4644 44.4214 83.5733 43.0007 84.0233C41.2842 84.5668 40.4042 85.114 37.6342 87.3789C30.0562 101.703 41.8911 106.2 59.678 99.0382C63.289 97.5658 66.4256 95.5754 68.309 93.2606C84.3097 81.1689 86.9497 52.652 68.5108 41.5985C63.6183 38.5916 57.8304 37.1606 52.1063 37.273ZM99.778 35.7812C98.0701 37.0909 95.6311 35.734 94.1597 36.4675C93.4011 36.845 92.8453 39.2537 92.8453 39.2537C91.5956 40.703 89.4218 42.084 89.2842 43.9154L82.0456 92.1182C79.5677 104.311 98.5894 106.599 101.172 93.3313L107.881 45.0957C108.122 43.2744 106.894 40.8244 105.965 39.5488C104.506 37.5475 102.268 36.1099 99.7784 35.7812H99.778ZM140.587 37.0671C123.276 37.3061 111.952 51.4733 110.225 60.6271L105.417 91.3968C103.173 106.32 122.923 105.373 124.432 94.4782C124.432 94.4782 128.496 64.0002 128.308 64.192C131.12 53.8885 146.972 53.1885 145.514 64.4189L140.893 101.957C138.659 119.832 151.7 129.09 165.02 129.151C178.533 129.41 180.644 109.26 166.56 110.363C165.722 110.436 164.883 110.37 164.169 109.967C158.649 106.85 159.472 104.075 160.762 94.7334L165.22 63.2692C167.536 52.1747 159.042 37.1088 140.587 37.0671Z" fill="white"/>
<path d="M175.613 20.8464L168.385 73.0161C166.418 87.7703 181.644 103.474 196.358 102.183C214.459 102.712 234.641 88.2289 234.451 63.5641C234.252 53.4758 226.663 39.2796 211.234 37.902C195.009 31.3065 186.18 57.8203 206.42 56.4141C214.721 58.7451 216.238 64.6958 213.934 72.9586C212.489 78.1403 207.421 82.1624 201.707 83.0999C190.97 83.8786 187.21 78.4455 188.267 65.6627C188.267 65.6627 192.959 37.9851 194.479 22.5661C196.081 6.75402 177.014 9.78506 175.613 20.8464ZM277.598 36.994C260.858 36.5523 244.193 47.6151 239.49 65.0699C236.325 75.052 238.221 84.9717 243.643 91.9748C251.017 100.548 259.827 103.419 268.347 102.145C280.684 100.188 282.205 80.8482 262.967 82.4903C260.074 79.3634 256.101 76.8686 257.445 68.0386C259.569 59.873 269.058 54.7099 276.072 56.1813C280.867 57.3213 285.779 62.493 284.818 69.4713L281.316 92.3368C279.069 106.925 298.326 104.154 299.922 94.8655L303.978 67.1761C305.602 57.5461 298.246 37.5644 277.598 36.994ZM314.72 21.7699L304.518 91.8965C302.535 104.708 321.555 105.578 323.499 93.4969L333.838 20.1933C335.18 10.5489 317.414 7.6023 314.72 21.7699ZM122.179 17.6992C122.251 29.8199 111.386 39.7723 100.722 39.7723C90.0568 39.7723 82.2344 32.842 82.2344 22.1771C82.2344 11.5123 93.2137 0.507812 103.879 0.507812C114.543 0.507812 122.114 7.03471 122.179 17.6992ZM338.169 21.7699L327.966 91.8965C325.984 104.708 345.003 105.578 346.947 93.4969L357.286 20.1933C358.628 10.5489 340.862 7.6023 338.169 21.7699Z" fill="white"/>
<path d="M4.76246 12.6172C2.65211 15.9423 1.48763 20.7178 0.860731 24.5413C0.644179 26.7206 0.656592 29.2485 2.23659 30.9575C3.49246 32.2941 5.50039 32.5972 7.2097 32.1003C9.31832 31.2175 11.1697 29.1837 13.0194 27.192C14.9252 24.9151 15.9776 21.1378 16.5101 18.3047C18.5963 19.5958 20.307 17.233 17.877 16.4599C17.0252 16.1123 17.1097 15.4461 17.1838 14.8282C17.5838 13.4075 16.9687 11.2509 15.3638 11.1585C14.3566 11.1678 11.6804 13.2382 14.119 16.0172C14.3735 16.6034 14.538 17.0361 14.3028 17.9278C13.4545 20.2582 12.7056 23.1175 11.2638 25.1785C10.688 25.8489 10.1069 26.5268 9.47763 27.1375C6.97418 29.6799 3.88349 29.1547 3.98901 26.0651C4.08039 24.0161 4.55108 22.4385 5.22004 20.3672C5.85418 17.8823 7.40763 15.0716 8.84487 13.1213C10.1628 10.5465 6.31591 10.554 4.76246 12.6172ZM69.3563 30.4544C69.9291 30.161 70.3649 31.093 70.7556 31.342C71.577 32.0113 75.2515 31.9351 76.4046 31.0472C78.9484 29.1561 78.2032 27.6896 76.8425 28.8568C75.2039 30.7216 71.7218 30.6651 72.0356 28.6823C72.758 24.3985 73.9129 19.1789 75.7125 16.9523C76.2673 16.2661 76.7008 15.7075 76.9118 14.8065C77.0429 14.0237 77.157 13.2399 76.926 12.4985C76.3122 10.5851 73.7142 10.7606 72.8301 13.5158C70.6801 20.5899 70.0211 24.0454 69.7715 27.0434C69.5284 30.4375 63.0625 31.2616 63.9473 28.091L66.7977 20.5023C67.2687 19.4227 65.2725 18.4296 64.3587 19.5389C64.1415 19.8027 63.8215 20.0468 63.5746 20.4589C63.5746 20.4589 63.2473 20.3389 62.3763 19.8913C60.1422 18.743 56.1435 20.0334 54.0342 24.5103C53.6015 25.7941 53.4166 26.9682 53.477 28.3179C53.3832 28.7299 53.177 29.0465 52.8156 29.3837C51.1784 30.961 47.769 30.3323 48.4097 27.2934C49.2494 24.8647 49.618 22.8778 50.5597 20.7358C51.2366 18.6672 47.8659 18.0858 47.3439 20.171C46.4287 23.5461 46.1604 25.2341 44.9232 27.3616L43.8704 28.8268C42.157 31.2216 40.9218 29.0223 41.5625 26.8854L43.7597 20.7365C44.0228 20.0216 43.3821 19.2561 42.667 18.993C42.3237 18.8668 41.9444 18.8821 41.6124 19.0356C41.2804 19.189 41.0229 19.4681 40.8966 19.8113L39.077 26.5492C38.4725 29.0575 38.0097 29.1692 35.9652 30.1744C34.0825 31.0775 33.5145 30.0951 34.4501 28.4727C35.2356 27.0103 35.2094 24.6954 34.1597 23.032C33.9304 22.6365 33.7001 22.3447 33.377 21.9575C32.807 21.3665 33.1973 20.2582 33.5901 19.7403C33.7787 19.2009 34.2176 18.6765 33.4956 17.8782C32.2563 16.7816 30.7287 17.5492 30.0101 18.4758C29.5059 19.1082 29.3032 20.0496 30.287 21.3023L25.4611 28.5251C24.9583 29.0251 23.9407 29.9279 21.3087 29.8544C19.9828 29.6889 20.0949 28.5368 20.3332 27.9596L22.7159 20.562C23.3097 18.4209 19.887 18.4989 19.4021 20.1172L17.4456 27.7603C17.2697 28.2558 17.2042 28.9958 17.4859 29.8544C17.6914 30.582 18.3438 31.2923 19.1183 31.5927C20.5952 32.1658 24.0349 32.0582 25.6452 30.5396C26.498 31.4399 27.5628 31.9227 28.868 32.0934C30.409 32.1796 31.2863 31.7003 32.4556 31.3199C34.0987 32.1627 35.109 32.1379 36.8432 31.3792C37.1545 31.2403 37.4197 31.0803 37.6818 30.9137C38.4687 30.3579 38.6963 29.8844 39.199 30.911C39.9566 32.2558 42.9446 31.4885 43.7152 30.8351C44.1987 30.5096 44.5163 30.2506 44.8035 29.8134C45.479 28.3037 45.8949 29.2941 45.988 29.802C46.5104 32.6889 50.8666 32.3637 52.1635 31.4203C53.737 30.5327 53.3746 30.3899 54.777 31.5937C55.7487 32.3896 58.0308 32.6889 60.3218 29.8437C60.7004 29.141 60.9308 29.6396 61.4832 30.5085C62.5218 32.6727 66.8849 32.3985 69.3563 30.4544ZM58.808 29.2303C56.877 31.1179 55.5046 28.7603 56.3173 26.5199C56.7394 25.3561 57.5028 24.3247 57.8794 23.8561C58.7511 22.8023 59.7553 22.0054 60.8315 21.6975C61.4632 21.6082 63.9091 21.2699 62.3073 24.0699C61.3877 25.8113 60.2477 27.5337 58.8084 29.2303H58.808ZM30.7811 24.3251C30.9373 24.0696 31.1318 24.041 31.5035 24.6903C32.429 26.3092 31.5173 28.312 30.5104 29.5506C29.5773 30.4558 27.5076 28.7758 28.6745 27.2382L30.7811 24.3251Z" fill="white" stroke="white" stroke-width="0.344828" stroke-linecap="round"/>
<path d="M23.0182 10.7761C24.1608 10.7761 25.0872 11.7024 25.0872 12.8451C25.0872 13.9878 24.1608 14.9141 23.0182 14.9141C21.8755 14.9141 20.9492 13.9878 20.9492 12.8451C20.9492 11.7024 21.8755 10.7761 23.0182 10.7761Z" fill="white"/>
</g>
<defs>
<clipPath id="clip0_1285_2754">
<rect width="358" height="130" fill="white"/>
</clipPath>
</defs>
</svg>
