<svg width="120" height="81" viewBox="0 0 120 81" fill="none" xmlns="http://www.w3.org/2000/svg">
<path d="M43.0818 25.8838C43.0818 25.7521 43.1572 25.6333 43.2836 25.5966C43.4886 25.5371 43.8532 25.4626 44.3934 25.4626C44.9336 25.4626 45.2982 25.5371 45.5032 25.5966C45.6296 25.6333 45.705 25.7521 45.705 25.8838V33.7659C45.705 33.8975 45.6296 34.0164 45.5032 34.0531C45.2982 34.1125 44.9336 34.187 44.3934 34.187C43.8532 34.187 43.4886 34.1125 43.2836 34.0531C43.1572 34.0164 43.0818 33.8975 43.0818 33.7659V25.8838Z" fill="white"/>
<path d="M40.4522 31.1362C40.3205 31.1362 40.2017 31.0608 40.165 30.9344C40.1055 30.7294 40.031 30.3648 40.031 29.8246C40.031 29.2844 40.1055 28.9198 40.165 28.7149C40.2017 28.5884 40.3205 28.513 40.4522 28.513L48.3342 28.513C48.4659 28.513 48.5847 28.5884 48.6214 28.7149C48.6809 28.9198 48.7554 29.2844 48.7554 29.8246C48.7554 30.3648 48.6809 30.7294 48.6214 30.9344C48.5847 31.0608 48.4659 31.1362 48.3342 31.1362L40.4522 31.1362Z" fill="white"/>
<path fill-rule="evenodd" clip-rule="evenodd" d="M41.8956 21.0745C43.3496 21.0745 44.5283 19.8958 44.5283 18.4418C44.5283 16.9878 43.3496 15.8091 41.8956 15.8091C40.4416 15.8091 39.2629 16.9878 39.2629 18.4418C39.2629 19.8958 40.4416 21.0745 41.8956 21.0745ZM41.8956 22.0745C43.9019 22.0745 45.5283 20.4481 45.5283 18.4418C45.5283 16.4355 43.9019 14.8091 41.8956 14.8091C39.8894 14.8091 38.2629 16.4355 38.2629 18.4418C38.2629 20.4481 39.8894 22.0745 41.8956 22.0745Z" fill="white"/>
<path fill-rule="evenodd" clip-rule="evenodd" d="M41.8956 23.0124C44.4199 23.0124 46.4662 20.966 46.4662 18.4417C46.4662 15.9174 44.4199 13.8711 41.8956 13.8711C39.3713 13.8711 37.325 15.9174 37.325 18.4417C37.325 20.966 39.3713 23.0124 41.8956 23.0124ZM41.8956 24.0124C44.9722 24.0124 47.4662 21.5183 47.4662 18.4417C47.4662 15.3652 44.9722 12.8711 41.8956 12.8711C38.819 12.8711 36.325 15.3652 36.325 18.4417C36.325 21.5183 38.819 24.0124 41.8956 24.0124Z" fill="white"/>
<path d="M62.2055 41.3713C62.3611 41.3087 62.4495 41.1945 62.4097 41.0176C62.4097 41.0176 62.0903 40.0229 61.6005 39.1055C61.1107 38.1881 60.2018 37.1933 60.2018 37.1933C60.1321 37.1206 60.077 37.0754 59.9976 37.0754C59.9182 37.0754 59.8631 37.1206 59.7934 37.1933C59.7934 37.1933 58.8844 38.1881 58.3946 39.1055C57.9049 40.0229 57.5854 41.0176 57.5854 41.0176C57.5457 41.1945 57.6341 41.3087 57.7896 41.3713C57.7896 41.3713 58.5125 41.6661 59.9976 41.6661C61.4826 41.6661 62.2055 41.3713 62.2055 41.3713Z" fill="white"/>
<path fill-rule="evenodd" clip-rule="evenodd" d="M60 2.5C53.856 2.5 48.3621 5.54815 45.1037 10.2434L44.8826 10.5621L37.6135 12.219C37.4415 12.5941 37.2425 13.1724 37.0402 13.9691C36.7723 15.0238 36.5203 16.3712 36.3109 17.9439C35.8924 21.088 35.6511 25.082 35.7797 29.3442C36.0387 37.9257 37.7904 47.3476 42.374 53.1909C42.3742 53.1912 42.3752 53.1925 42.3792 53.1945C42.3841 53.1967 42.3938 53.2 42.4085 53.2C42.4412 53.2 42.4702 53.1787 42.4799 53.1474L44.4075 46.9514C45.64 43.1667 47.6005 38.5622 48.9471 35.93L50.7276 36.8409C49.4294 39.3787 47.511 43.8821 46.3113 47.5645L44.3896 53.7415C44.1197 54.609 43.3169 55.2 42.4085 55.2C41.7979 55.2 41.1978 54.9319 40.8004 54.4253C35.8044 48.0564 34.0426 38.0833 33.7807 29.4045C33.6488 25.0366 33.8953 20.9341 34.3284 17.68C34.5449 16.0536 34.8098 14.6264 35.1017 13.4768C35.3857 12.3587 35.7188 11.4047 36.113 10.7989L36.334 10.4594L43.6874 8.78324C47.3359 3.74343 53.3265 0.5 60 0.5C66.7051 0.5 72.6574 3.7191 76.3044 8.78139L83.6662 10.4594L83.8871 10.7989C84.2814 11.4047 84.6145 12.3587 84.8984 13.4768C85.1904 14.6265 85.4552 16.0536 85.6717 17.68C86.1049 20.9341 86.3513 25.0366 86.2195 29.4046C85.9576 38.0834 84.1957 48.0564 79.1998 54.4254C78.8024 54.932 78.2022 55.2 77.5916 55.2C76.6832 55.2 75.8804 54.609 75.6105 53.7416L73.6887 47.5644C72.4891 43.8819 70.5707 39.3787 69.2725 36.841L71.053 35.9301C72.3996 38.5622 74.3601 43.1667 75.5925 46.9515L75.5966 46.9641L77.5202 53.1475C77.53 53.1787 77.5589 53.2 77.5916 53.2C77.6063 53.2 77.616 53.1968 77.6209 53.1945C77.6232 53.1934 77.6245 53.1925 77.6253 53.1919C77.6259 53.1914 77.6261 53.1911 77.6261 53.191C82.2097 47.3477 83.9614 37.9258 84.2204 29.3443C84.349 25.0821 84.1077 21.0881 83.6892 17.9439C83.4798 16.3712 83.2278 15.0238 82.9599 13.9691C82.7576 13.1724 82.5586 12.5941 82.3866 12.2191L75.1067 10.5597L74.8855 10.2395C71.6287 5.52399 66.178 2.5 60 2.5Z" fill="white"/>
<path fill-rule="evenodd" clip-rule="evenodd" d="M49.6239 44.3587C52.2219 43.8942 55.8524 43.4294 59.9851 43.4294C64.1178 43.4294 67.7483 43.8942 70.3463 44.3587C71.6462 44.5911 72.6902 44.824 73.4123 44.9996C73.7734 45.0874 74.0542 45.161 74.2465 45.2131C74.3426 45.2392 74.4167 45.2599 74.4675 45.2744L74.5264 45.2912L74.5426 45.296L74.5473 45.2974L74.5488 45.2978C74.549 45.2979 74.5498 45.2981 74.2654 46.2568C73.981 47.2155 73.9811 47.2155 73.9812 47.2156L73.9792 47.215L73.9685 47.2119L73.9209 47.1982C73.8775 47.1859 73.8113 47.1673 73.7231 47.1434C73.5468 47.0956 73.2829 47.0264 72.9396 46.9429C72.253 46.7759 71.2494 46.5519 69.9943 46.3275C67.4822 45.8783 63.9725 45.4294 59.9851 45.4294C55.9976 45.4294 52.488 45.8783 49.9759 46.3275C48.7208 46.5519 47.7172 46.7759 47.0305 46.9429C46.6872 47.0264 46.4234 47.0956 46.247 47.1434C46.1589 47.1673 46.0926 47.1859 46.0493 47.1982L46.0017 47.2119L45.991 47.215L45.989 47.2156C45.9891 47.2155 45.9892 47.2155 45.7048 46.2568C45.4204 45.2981 45.4206 45.298 45.4208 45.298L45.4229 45.2974L45.4276 45.296L45.4438 45.2912L45.5026 45.2743C45.5535 45.2599 45.6275 45.2392 45.7237 45.2131C45.916 45.161 46.1968 45.0874 46.5579 44.9996C47.28 44.824 48.3239 44.5911 49.6239 44.3587Z" fill="white"/>
<path fill-rule="evenodd" clip-rule="evenodd" d="M45.0008 9.72032C44.1648 10.8748 43.4571 12.1269 42.8984 13.4541L41.9767 13.0662C42.5653 11.6679 43.3107 10.3493 44.1909 9.13379L45.0008 9.72032ZM78.5699 20.5699C78.5699 16.5186 77.2731 12.7716 75.0719 9.71953L75.883 9.13458C78.2029 12.3513 79.5699 16.3017 79.5699 20.5699C79.5699 31.378 70.8082 40.1397 60 40.1397C50.2981 40.1397 42.1718 32.8877 40.6196 23.6365L41.6058 23.4711C43.0801 32.2579 50.8039 39.1397 60 39.1397C70.2559 39.1397 78.5699 30.8257 78.5699 20.5699Z" fill="white"/>
<path fill-rule="evenodd" clip-rule="evenodd" d="M51.6577 3.97583V20.1277C51.6577 24.735 55.3927 28.47 60 28.47C64.6073 28.47 68.3423 24.735 68.3423 20.1277V3.97583H69.3423V20.1277C69.3423 25.2873 65.1596 29.47 60 29.47C54.8404 29.47 50.6577 25.2873 50.6577 20.1277V3.97583H51.6577Z" fill="white"/>
<path fill-rule="evenodd" clip-rule="evenodd" d="M65.7228 11.1037C64.7957 10.8165 62.8285 10.3386 60.0001 10.3386C57.1716 10.3386 55.2044 10.8165 54.2773 11.1037V21.2509C55.1841 21.5682 57.153 22.1119 60.0001 22.1119C62.8472 22.1119 64.816 21.5682 65.7228 21.2509V11.1037ZM53.9414 10.161C53.5322 10.2893 53.2773 10.6742 53.2773 11.103V21.2551C53.2773 21.6675 53.5128 22.0408 53.9014 22.1787C54.8792 22.5257 56.9782 23.1119 60.0001 23.1119C63.0219 23.1119 65.1209 22.5257 66.0987 22.1787C66.4873 22.0408 66.7228 21.6675 66.7228 21.2551V11.103C66.7228 10.6742 66.4679 10.2893 66.0587 10.161C65.0644 9.84913 62.9814 9.33862 60.0001 9.33862C57.0188 9.33862 54.9358 9.84913 53.9414 10.161Z" fill="white"/>
<path fill-rule="evenodd" clip-rule="evenodd" d="M56.0894 12.5347V19.9156H63.8394V12.5347H56.0894ZM55.8541 11.5347C55.4318 11.5347 55.0894 11.8771 55.0894 12.2994V20.1509C55.0894 20.5732 55.4318 20.9156 55.8541 20.9156H64.0746C64.497 20.9156 64.8394 20.5732 64.8394 20.1509V12.2994C64.8394 11.8771 64.497 11.5347 64.0746 11.5347H55.8541Z" fill="white"/>
<path d="M79.1299 18.6393C79.1299 19.7706 78.2128 20.6877 77.0814 20.6877C75.9501 20.6877 75.033 19.7706 75.033 18.6393C75.033 17.5079 75.9501 16.5908 77.0814 16.5908C78.2128 16.5908 79.1299 17.5079 79.1299 18.6393Z" fill="white"/>
<path d="M79.1287 26.9806C79.1287 28.1119 78.2115 29.0291 77.0802 29.0291C75.9489 29.0291 75.0317 28.1119 75.0317 26.9806C75.0317 25.8493 75.9489 24.9321 77.0802 24.9321C78.2115 24.9321 79.1287 25.8493 79.1287 26.9806Z" fill="white"/>
<path d="M72.6149 20.7615C73.7462 20.7615 74.6633 21.6786 74.6633 22.8099C74.6633 23.9413 73.7462 24.8584 72.6149 24.8584C71.4835 24.8584 70.5664 23.9413 70.5664 22.8099C70.5664 21.6786 71.4835 20.7615 72.6149 20.7615Z" fill="white"/>
<path d="M81.5455 20.7615C82.6769 20.7615 83.594 21.6786 83.594 22.8099C83.594 23.9413 82.6769 24.8584 81.5455 24.8584C80.4142 24.8584 79.4971 23.9413 79.4971 22.8099C79.4971 21.6786 80.4142 20.7615 81.5455 20.7615Z" fill="white"/>
</svg>
