<?xml version="1.0" encoding="UTF-8"?>
<svg width="465px" height="125px" viewBox="0 0 465 125" version="1.1" xmlns="http://www.w3.org/2000/svg" xmlns:xlink="http://www.w3.org/1999/xlink">
    <title>mainlogo</title>
    <g id="Page-1" stroke="none" stroke-width="1" fill="none" fill-rule="evenodd">
        <g id="mainlogo" fill-rule="nonzero">
            <path d="M297.344307,90.8291152 C303.261739,90.8025797 309.179171,90.8025797 315.10987,90.8291152 C315.10987,94.7563793 315.10987,98.6703756 315.096602,102.584372 C309.192438,102.796656 303.288274,102.690514 297.384111,102.71705 C297.317772,98.7486555 297.317772,94.7948559 297.344307,90.8291152 Z M394.252202,69.0832173 C410.54504,69.0699495 426.824611,69.0036106 443.11745,69.096485 C446.713019,68.8045938 449.870752,71.2193305 451.542493,74.2443852 C455.39015,80.4404404 459.768519,86.3048009 463.390624,92.6468016 C464.757206,96.3617812 464.664331,101.032041 461.984239,104.176506 C458.110046,109.695904 454.872707,115.639871 450.892371,121.079663 C448.849133,123.97204 445.067814,124.389311 441.790672,124.309705 C425.93567,124.256634 410.0674,124.508722 394.19913,124.309705 C394.31854,105.894021 394.212398,87.4975747 394.252202,69.0832173 Z M415.016284,81.4740007 C415.042819,91.7698011 414.97648,102.20624 415.042819,112.50204 L432.463419,112.50204 C434.360713,112.316291 436.841788,112.653293 437.889943,110.583519 C441.007872,106.284757 443.966588,101.840049 446.606877,97.2361281 C445.532187,93.2557929 442.613274,90.1245959 440.503697,86.6617043 C438.818688,84.4990555 437.160215,81.3015195 433.975947,81.5005363 C427.647214,81.3957208 421.331749,81.5416664 415.016284,81.4740007 L415.016284,81.4740007 Z M332.503935,72.970678 C334.14914,70.635548 336.736358,68.791326 339.721609,69.0832173 C356.200197,69.0301461 372.678785,69.0832173 389.157373,69.0699495 C389.157373,73.1431592 389.17064,77.2163688 389.130837,81.2895785 C377.043886,81.3957208 364.943667,81.1170973 352.856715,81.4089886 C348.942719,81.4753275 347.058694,85.3627882 345.134865,88.1490229 C343.25084,91.2802199 340.132911,94.9686638 342.720129,98.6571078 C345.692112,103.353903 348.226259,111.361011 354.342707,112.50204 L389.157373,112.50204 C389.157373,116.920212 389.17064,119.891533 389.157373,124.309705 C373.116622,124.296437 357.062603,124.349508 341.021852,124.309705 C334.467567,124.296437 331.628261,117.298344 328.443993,112.667888 C325.816972,107.519988 320.815017,103.340636 320.576197,97.2109193 C320.363912,93.8674378 320.921159,90.2586005 322.990934,87.5121692 C326.215005,82.7092314 329.200257,77.7338124 332.503935,72.970678 L332.503935,72.970678 Z M234.786706,69.1230206 C245.002899,68.9903428 255.232361,69.096485 265.448554,69.0434139 C270.928149,68.4994348 274.895217,73.1696947 277.575309,77.3225111 C287.234256,93.1244419 297.344307,108.441435 306.883844,124.309705 C299.918257,124.283169 291.992534,124.349508 285.026948,124.309705 L277.654916,112.50204 L259.159625,112.50204 L253.719833,105.158322 C253.892315,111.579929 253.825976,117.888097 253.825976,124.309705 C247.470707,124.309705 241.128706,124.429115 234.786706,124.309705 C234.773438,105.894021 234.773438,87.5387048 234.786706,69.1230206 L234.786706,69.1230206 Z M254.210741,81.0507584 C254.104599,87.9765417 254.237277,95.4113925 254.104599,102.337176 L270.875078,102.337176 L260.232153,84.8718802 C260.232153,84.8718802 258.631806,82.2157296 257.333036,81.502817 C256.411164,80.996793 254.210741,81.0507584 254.210741,81.0507584 L254.210741,81.0507584 Z M173.396669,74.4818786 C175.094945,72.0671419 177.085113,68.8696059 180.494934,69.0818905 C195.660011,69.0155516 210.825088,69.0818905 225.976897,69.0686227 C226.003433,73.2081713 225.937094,77.3477199 225.77788,81.4740007 C215.919917,81.5403397 206.075221,81.3811262 196.230525,81.5403397 C194.365247,81.5403397 192.614311,81.3736074 191.833343,82.5941122 L185.151926,93.7201654 L185.151926,112.50204 L211.992653,112.50204 L211.992653,102.337176 L199.202509,102.337176 L205.929275,90.9942991 L228.928979,90.9942991 L228.928979,124.309705 L173.821238,124.309705 C168.762245,124.309705 166.298405,120.122616 166.298405,115.877365 C166.431082,105.833652 166.072852,95.7634041 166.457618,85.7329594 C168.381447,81.7672188 171.035004,78.1981849 173.396669,74.4818786 L173.396669,74.4818786 Z M109.68477,77.0306199 C112.232185,73.7534772 114.421369,68.5790415 119.396788,69.0832173 C133.51371,69.0434139 147.949059,69.0434139 162.065982,69.096485 L162.065982,81.382453 C151.544629,81.7008798 140.598707,81.2365074 130.090622,81.6080054 L122.912751,90.9942991 L162.065982,90.9942991 C159.452228,94.5500653 157.382454,98.6885352 154.901378,102.337176 L122.753538,102.337176 C122.806609,105.800067 122.819876,109.025881 122.833144,112.50204 L162.065982,112.50204 L162.065982,124.309705 L102.958004,124.309705 C102.931468,113.045356 102.9182,101.974054 102.944736,90.6964374 C102.493631,85.1491769 106.978142,81.3161141 109.68477,77.0306199 L109.68477,77.0306199 Z M31.5242548,74.5614853 C33.3817445,71.8017862 36.1414436,69.0022838 39.7370131,69.1216938 C46.5433863,68.9359449 53.3497595,69.1216938 60.1694004,69.0686227 C60.1163293,71.3506815 60.0632582,73.6327404 59.9836515,75.9147992 C62.7566183,72.8499411 65.7418697,68.9624804 70.332523,69.1216938 C79.7526496,68.9492126 89.1727763,69.1216938 98.5929029,69.0686227 C98.5929029,87.4843069 98.6061707,105.880753 98.5929029,124.309705 C92.2243666,124.322973 85.8425625,124.309705 79.4740262,124.309705 C79.4474906,111.134795 79.4872939,97.9923918 79.4474906,84.8174823 C75.8651889,84.4990555 74.1536448,87.908876 72.5349751,90.4695583 C65.6091919,101.77371 58.2853751,112.806536 51.7045542,124.309705 C45.0043233,124.442383 38.3173602,124.442383 31.6171293,124.309705 C39.6574064,110.75003 48.281466,97.5810905 56.5340276,84.1408253 C52.3148723,84.3929132 46.8883487,82.9865281 43.7571516,86.6351687 C35.7964812,99.1334212 28.1011665,111.771649 20.206835,124.309705 C13.4668008,124.283169 6.74003427,124.349508 2.84217094e-14,124.309705 C10.4948171,107.711707 21.0427054,91.1727508 31.5242548,74.5614853 L31.5242548,74.5614853 Z" id="path4895" fill="#FFFFFF"></path>
            <g id="SEGA_logo">
                <path d="M68.1099223,41.8839522 C70.6480086,44.3487713 74.1090772,45.8726368 77.9263442,45.8726368 L138.239992,45.8795488 L125.214098,7.01936552 C123.434949,2.89105847 119.261023,-5.62499954e-07 114.24798,-5.62499954e-07 C109.256134,-5.62499954e-07 105.019079,2.98552247 103.306285,7.09677992 L98.9641669,19.755416 L98.9471173,0.653874608 L77.8844114,0.643276209 C74.077282,0.643276209 70.6549206,2.12889532 68.1343447,4.58634157 L68.1417175,0.660325808 L46.575818,0.660325808 C42.5590247,0.660325808 38.9058025,2.37311931 36.3506666,5.06511284 L36.3506666,0.643276209 L16.0247798,0.660786608 C7.25022677,0.653413808 0.0525311969,7.51242149 0.0419327975,16.580965 C0.0419327975,20.7793135 1.87683829,24.5869037 4.58265573,27.4079211 L0,27.4005483 L0,45.8726368 L20.4788724,45.8689504 C26.2328816,45.8620384 31.9348205,42.3903714 33.9167212,38.2307301 L33.9761644,38.0597733 C36.2658794,42.6843618 41.0443752,45.8726368 46.5748964,45.8726368 L68.1094615,45.8689504 L68.1094615,41.8839522" id="Path" fill="#FFFFFF"></path>
                <path d="M3.16385261,42.7120098 L20.4332532,42.6944994 C27.4986992,42.6944994 33.2245996,36.9861093 33.2245996,29.9524586 C33.2245996,22.9049838 27.4986992,17.1961329 20.4332532,17.1961329 L15.948287,17.2205553 C15.5948535,17.2205553 15.3082359,16.9307121 15.3082359,16.574053 C15.3082359,16.2173938 15.5948535,15.9270898 15.948287,15.9270898 L33.1863532,15.9307762 L33.1932652,10.5228277 L15.9446006,10.5228277 C12.6097912,10.5228277 9.89660101,13.2318708 9.89660101,16.560229 C9.89660101,19.8918128 12.6093304,22.5902574 15.9446006,22.5902574 L20.4507636,22.6497006 C24.4988913,22.6497006 27.7747183,25.9144684 27.7747183,29.942321 C27.7747183,33.9729383 24.4993521,37.2450789 20.4507636,37.2450789 L3.17076461,37.2450789 L3.16385261,42.7120098" id="Path" fill="#0060A8"></path>
                <path d="M3.17076461,35.975575 L20.4507636,35.975575 C23.7961714,35.975575 26.5019888,33.2771304 26.5019888,29.9418602 C26.5019888,26.6102764 23.7961714,23.9150573 20.4507636,23.9150573 L15.9446006,23.8662125 C11.9033849,23.8662125 8.62433229,20.5977583 8.62433229,16.5597682 C8.62433229,12.5328372 11.9033849,9.26392219 15.9446006,9.26392219 L33.1932652,9.26023579 L33.1863532,3.83155122 L15.948287,3.83155122 C8.89021387,3.83155122 3.15694061,9.53349017 3.15694061,16.574053 C3.15694061,23.6146157 8.89021387,29.3197802 15.948287,29.3197802 L20.4088308,29.3266922 C20.7479796,29.3266922 21.0345971,29.6031722 21.0345971,29.9524586 C21.0345971,30.2952937 20.7479796,30.5713129 20.4088308,30.5713129 L3.16385261,30.5851369 L3.17076461,35.975575" id="Path" fill="#0060A8"></path>
                <path d="M46.6136036,37.2796389 C43.6174822,37.2796389 41.1632615,34.8917735 41.1632615,31.8431208 L41.1632615,14.5916915 C41.1632615,11.6586996 43.6174822,9.24641179 46.6136036,9.24641179 L65.0469849,9.24963739 L65.0469849,3.83155122 L46.6136036,3.83155122 C40.6149096,3.83155122 35.7557739,8.67317662 35.7557739,14.6511347 L35.7557739,31.8435816 C35.7557739,37.8220005 40.6149096,42.6705378 46.6136036,42.6705378 L64.9700313,42.6779106 L64.9663449,37.2731877 L46.6136036,37.2796389" id="Path" fill="#0060A8"></path>
                <path d="M42.4848359,14.6511347 C42.4848359,12.365106 44.3238886,10.5122293 46.6136036,10.5122293 L65.0469849,10.5122293 L65.0469849,15.9376882 L49.1655139,15.9376882 C47.8932451,15.9376882 47.8757347,17.1998193 47.8757347,17.1998193 L61.1251164,17.1998193 L61.1251164,22.6008558 L42.4783847,22.6008558 L42.4848359,14.6511347" id="Path" fill="#0060A8"></path>
                <path d="M46.6136036,35.9654374 C44.3308006,35.9654374 42.4779239,34.1231591 42.4779239,31.8435816 L42.4779239,23.8869485 L61.1246556,23.8869485 L61.1246556,29.2990442 L47.8752739,29.2990442 C47.8927843,30.5713129 49.1650531,30.5777641 49.1650531,30.5777641 L64.9695705,30.5777641 L64.9658841,35.9580646 L46.6136036,35.9654374" id="Path" fill="#0060A8"></path>
                <path d="M77.9645906,37.2658149 C74.9790675,37.2658149 72.5391317,34.8327911 72.5391317,31.8431208 L72.5391317,14.6506739 C72.5391317,11.6582388 74.9615571,9.24595099 77.9503058,9.24595099 L95.8040007,9.24595099 L95.8040007,3.83155122 L77.9088338,3.83155122 C71.9129045,3.83155122 67.0537688,8.67317662 67.0537688,14.6511347 L67.0537688,31.8435816 C67.0537688,37.8220005 71.9548373,42.6705378 77.9503058,42.6705378 L95.8040007,42.6779106 L95.8040007,17.1998193 L80.460744,17.1998193 L80.460744,22.6008558 L90.3817674,22.6008558 L90.3817674,37.2658149 L77.9645906,37.2658149" id="Path" fill="#0060A8"></path>
                <path d="M73.8114004,31.8431208 C73.8114004,34.1337575 75.6642771,35.9967718 77.9503058,35.9967718 L89.1021259,35.9967718 L89.1021259,23.8800365 L80.4741072,23.8800365 L80.4741072,29.2990442 L83.6762062,29.2990442 L83.6863438,30.5713129 L80.4985296,30.5713129 C79.8027216,30.5713129 79.2331729,29.9948522 79.2331729,29.2990442 L79.2046033,17.1961329 C79.2046033,17.1961329 79.2009169,15.9376882 80.4842448,15.9063538 L95.8099911,15.9063538 L95.8030791,10.5085429 L77.9493842,10.5122293 C75.6633555,10.5122293 73.8104788,12.365106 73.8104788,14.6511347 L73.8104788,31.8431208" id="Path" fill="#0060A8"></path>
                <path d="M112.580345,10.4315893 C112.820883,9.74315416 113.474758,9.24687259 114.24752,9.24687259 C115.020742,9.24687259 115.681068,9.74315416 115.915155,10.4315893 L124.581881,36.0350182 L111.891449,36.0350182 L111.905273,30.0119018 L116.146015,30.0119018 L114.236921,24.3380717 L108.017965,42.6733026 L101.620679,42.6733026 L112.580345,10.4315893" id="Path" fill="#0060A8"></path>
                <path d="M126.329234,37.2658149 L111.912646,37.2658149 L111.912646,42.6733026 L133.852254,42.6733026 L122.441926,8.91417501 C121.44199,5.6212984 118.145887,3.19887286 114.243833,3.19887286 C110.335789,3.19887286 107.049824,5.6107 106.042515,8.90081181 L94.5275848,42.6737634 L100.271456,42.6737634 L111.451385,9.84453015 C111.905273,8.75750302 112.975712,7.99165346 114.234156,7.99165346 C115.485689,7.99165346 116.562118,8.75750302 117.020153,9.83761815 L126.329234,37.2658149" id="Path" fill="#0060A8"></path>
                <path d="M129.717035,8.12805025 C130.738168,8.12805025 131.699397,7.72945828 132.419627,7.01291432 C133.139397,6.28945836 133.541675,5.33514162 133.541675,4.31446959 C133.541675,3.30070965 133.139397,2.34961851 132.419627,1.62616255 C131.699397,0.913304993 130.738168,0.514713016 129.717035,0.514713016 C127.616248,0.514713016 125.899768,2.21736891 125.899768,4.31493039 C125.899768,5.33560242 126.29836,6.28991916 127.025042,7.01337512 C127.742047,7.72945828 128.699589,8.12805025 129.717035,8.12805025 M126.438444,4.31400879 C126.438444,3.44355764 126.773906,2.61872569 127.399212,1.99987133 C128.021752,1.38101696 128.846584,1.04555458 129.717035,1.04555458 C130.598085,1.04555458 131.422917,1.38147776 132.045458,1.99987133 C132.664312,2.61872569 133.007147,3.44355764 133.007147,4.31400879 C133.007147,6.12126637 131.531666,7.58937509 129.717035,7.58937509 C128.846124,7.58937509 128.021292,7.25022631 127.399212,6.63137194 C126.773445,6.01297838 126.438444,5.19137203 126.438444,4.31400879 Z" id="Shape" fill="#FFFFFF"></path>
                <path d="M128.738296,4.63564726 L128.738296,6.43230636 L128.185797,6.43230636 L128.185797,2.20953532 L129.755282,2.20953532 C130.346488,2.21644731 130.692549,2.21644731 131.021099,2.4643577 C131.339051,2.69890489 131.472223,3.05187767 131.472223,3.44355764 C131.472223,4.42966958 130.668587,4.55869358 130.464914,4.60062637 L131.653778,6.43230636 L130.986079,6.43230636 L129.82901,4.63564726 L128.738296,4.63564726 M128.738296,4.1707 L129.860344,4.1707 C130.039135,4.1707 130.206866,4.1707 130.374597,4.1287672 C130.766277,4.03430321 130.905899,3.75459762 130.905899,3.44724404 C130.905899,3.33526965 130.895301,3.05233847 130.653842,2.85649848 C130.433119,2.67125689 130.153874,2.67816889 129.82901,2.67816889 L128.738296,2.67816889 L128.738296,4.1707 L128.738296,4.1707 Z" id="Shape" fill="#FFFFFF"></path>
            </g>
        </g>
    </g>
</svg>