<svg width="549" height="62" viewBox="0 0 549 62" fill="none" xmlns="http://www.w3.org/2000/svg">
<path d="M63.4 18.858L61.847 18.139C61.944 17.819 62.041 17.42 62.041 17.02C62.041 15.981 52.914 10.387 37.088 10.387C21.942 10.387 15.437 14.223 15.437 19.177C15.437 32.281 72.623 13.105 72.623 42.031C72.623 52.579 60.195 60.73 35.34 60.73C11.651 60.73 4.854 54.497 2.621 54.497C2.038 54.497 1.747 54.894 1.262 55.137L0 54.897L8.058 41.311L9.612 41.951C9.612 42.272 9.417 42.593 9.417 43.231C9.417 47.947 21.942 51.299 34.37 51.299C52.041 51.299 58.06 47.147 58.06 42.749C58.06 27.089 1.65 46.504 1.65 19.978C1.65 6.55299 18.835 0.958984 37.671 0.958984C54.565 0.958984 66.41 7.03198 67.575 7.03198C68.837 7.03198 69.031 6.71298 69.323 6.47298L70.876 6.87198L63.4 18.858Z" fill="white"/>
<path d="M80.095 58.81C82.231 58.81 82.619 58.171 82.619 56.413V5.274C82.619 3.516 82.23 2.877 80.095 2.877V1.758H143.107C145.437 1.758 146.408 1.118 146.408 0H147.767V13.265H146.408C146.408 11.827 145.437 11.188 143.107 11.188H96.406V25.412H126.893C129.223 25.412 130.194 24.772 130.194 23.334H131.553V36.756H130.194C130.194 36.117 130 35.639 129.417 35.318C128.932 34.999 128.058 34.838 126.893 34.838H96.406V50.502H143.981C146.311 50.502 147.282 49.861 147.282 48.584H148.641V61.688H147.282C147.282 60.57 146.311 59.93 143.981 59.93H80.095V58.81Z" fill="white"/>
<path d="M234.754 29.246V30.365C233.783 30.525 232.909 31.164 232.909 32.922V48.663C232.909 49.942 233.395 50.42 234.657 50.66V51.779C228.54 54.655 213.588 60.73 196.791 60.73C174.46 60.73 154.848 51.618 154.848 30.844C154.848 10.068 177.761 0.958008 197.956 0.958008C205.918 0.958008 213.491 2.47601 219.025 3.91501C224.171 5.75301 227.957 7.19201 228.637 7.19201C229.511 7.19201 230.385 6.79201 230.773 6.31301L232.132 6.79201L222.715 19.896L221.355 19.177C221.452 18.858 221.549 18.378 221.549 17.819C221.549 15.341 211.064 10.387 198.151 10.387C181.84 10.387 168.636 17.02 168.636 30.525C168.636 44.668 181.84 51.298 196.792 51.298C209.026 51.298 216.21 47.861 219.123 46.105V39.474H202.424C200.482 39.474 199.317 40.273 199.317 41.39H197.957V27.329H199.317C199.317 28.447 200.482 29.246 202.424 29.246H234.754Z" fill="white"/>
<path d="M239.602 59.932V58.813C241.35 58.733 241.932 58.334 243.291 55.776L269.797 6.71303C270.281 5.91403 270.863 5.03503 270.863 4.31703C270.863 3.43803 270.089 3.03803 268.824 2.87903V1.75903H289.991V2.87803C288.534 3.03803 287.95 3.51703 287.95 4.07703C287.95 4.71603 288.34 5.35503 288.825 6.15503L316.981 55.776C318.338 58.254 318.729 58.813 320.766 58.813V59.932H301.446V58.813C302.71 58.813 303.194 58.413 303.194 58.014C303.194 57.135 302.321 56.016 295.815 44.588H262.512C256.881 54.975 255.425 56.574 255.425 57.613C255.425 58.332 256.007 58.732 256.881 58.81V59.929H239.6V59.932H239.602ZM290.187 35.478L278.536 14.542L267.079 35.478H290.187Z" fill="white"/>
<path d="M337.602 2V60.171H524.457V2H337.602ZM345.524 42.836C343.969 32.479 378.374 18.673 423.194 11.398C422.182 11.659 420.225 12.16 420.225 12.16C420.225 12.16 415.821 13.236 414.602 13.534C391.739 19.121 375.721 29.186 377.057 38.111C378.426 47.248 397.526 52.194 421.823 50.504C423.173 50.408 427.962 50.178 429.005 50.131C384.016 56.31 347.075 53.195 345.524 42.836ZM457.563 45.073C447.631 47.33 435.217 49.246 435.217 49.246V23.287L441.617 44.411C441.617 44.411 456.859 41.937 468.461 37.107C478.545 32.908 484.801 27.641 484.379 22.03C483.695 12.915 464.311 8.052 440.379 9.591C438.783 9.694 433.484 9.966 432.443 10.012C477.423 3.831 514.359 6.948 515.914 17.305C517.235 26.115 492.543 37.414 457.563 45.073Z" fill="white"/>
<path d="M530.039 3.424H533.36V12.272H534.992V3.424H538.315V2H530.039V3.424Z" fill="white"/>
<path d="M546.709 2L543.662 10.09L540.631 2H538.557V12.272H540.117V4.6L542.998 12.272H544.344L547.223 4.603V12.272H548.785V2H546.709Z" fill="white"/>
</svg>
