<svg width="430" height="118" viewBox="0 0 430 118" fill="none" xmlns="http://www.w3.org/2000/svg">
<path d="M394.785 88.5355L398.349 84.7339C400.144 86.4235 402.151 87.7435 404.368 88.6939C406.639 89.5915 408.936 90.0403 411.259 90.0403C414.427 90.0403 417.014 89.3803 419.02 88.0603C421.027 86.7403 422.03 85.0243 422.03 82.9123C422.03 81.2227 421.423 79.9027 420.208 78.9523C419.047 77.9491 417.199 77.2627 414.664 76.8931L407.774 75.9427C403.814 75.3619 400.857 74.2003 398.904 72.4579C397.003 70.6627 396.052 68.2603 396.052 65.2507C396.052 61.9243 397.452 59.1787 400.25 57.0139C403.048 54.7963 406.612 53.6875 410.942 53.6875C413.793 53.6875 416.486 54.1099 419.02 54.9547C421.608 55.7995 424.116 57.1195 426.544 58.9147L423.456 62.8747C421.238 61.3963 419.073 60.2875 416.961 59.5483C414.902 58.8091 412.79 58.4395 410.625 58.4395C407.932 58.4395 405.715 59.0467 403.972 60.2611C402.283 61.4755 401.438 63.0595 401.438 65.0131C401.438 66.7027 402.019 68.0227 403.18 68.9731C404.342 69.8707 406.216 70.5043 408.804 70.8739L415.694 71.8243C419.654 72.3523 422.611 73.5403 424.564 75.3883C426.571 77.1835 427.574 79.5859 427.574 82.5955C427.574 84.2851 427.152 85.8955 426.307 87.4267C425.515 88.9051 424.38 90.1987 422.901 91.3075C421.476 92.3635 419.786 93.2083 417.832 93.8419C415.879 94.4227 413.767 94.7131 411.496 94.7131C408.223 94.7131 405.134 94.1851 402.23 93.1291C399.379 92.0203 396.897 90.4891 394.785 88.5355Z" fill="white"/>
<path d="M355.355 94.0025V54.3232H361.216V58.9961C362.747 57.2009 364.569 55.8545 366.681 54.9569C368.793 54.0065 371.143 53.5312 373.73 53.5312C378.218 53.5312 381.887 54.9569 384.739 57.8081C387.59 60.6593 389.015 64.3553 389.015 68.8961V94.0025H383.234V70.0841C383.234 66.5993 382.231 63.8273 380.224 61.7681C378.218 59.7089 375.525 58.6793 372.146 58.6793C369.77 58.6793 367.631 59.2073 365.731 60.2633C363.883 61.3193 362.378 62.8241 361.216 64.7777V94.0025H355.355Z" fill="white"/>
<path d="M306.742 74.1233C306.742 71.2721 307.27 68.5793 308.326 66.0449C309.382 63.5105 310.808 61.3193 312.603 59.4713C314.451 57.6233 316.616 56.1713 319.097 55.1153C321.579 54.0593 324.219 53.5312 327.017 53.5312C329.816 53.5312 332.429 54.0593 334.858 55.1153C337.34 56.1713 339.478 57.6233 341.273 59.4713C343.121 61.3193 344.573 63.5105 345.629 66.0449C346.685 68.5793 347.213 71.2721 347.213 74.1233C347.213 77.0273 346.685 79.7464 345.629 82.2808C344.573 84.8152 343.121 87.0065 341.273 88.8545C339.478 90.7025 337.34 92.1545 334.858 93.2105C332.429 94.2665 329.816 94.7945 327.017 94.7945C324.219 94.7945 321.579 94.2665 319.097 93.2105C316.616 92.1545 314.451 90.7025 312.603 88.8545C310.808 87.0065 309.382 84.8152 308.326 82.2808C307.27 79.7464 306.742 77.0273 306.742 74.1233ZM327.017 89.5672C329.024 89.5672 330.898 89.1713 332.641 88.3793C334.436 87.5873 335.967 86.5049 337.234 85.1321C338.554 83.7065 339.584 82.0697 340.323 80.2217C341.062 78.3209 341.432 76.2881 341.432 74.1233C341.432 71.9585 341.062 69.9521 340.323 68.1041C339.584 66.2033 338.554 64.5665 337.234 63.1937C335.967 61.8209 334.436 60.7385 332.641 59.9465C330.898 59.1545 329.024 58.7585 327.017 58.7585C325.011 58.7585 323.11 59.1545 321.315 59.9465C319.573 60.7385 318.041 61.8209 316.721 63.1937C315.454 64.5665 314.425 66.2033 313.633 68.1041C312.893 69.9521 312.524 71.9585 312.524 74.1233C312.524 76.2881 312.893 78.3209 313.633 80.2217C314.372 82.0697 315.375 83.7065 316.642 85.1321C317.962 86.5049 319.52 87.5873 321.315 88.3793C323.11 89.1713 325.011 89.5672 327.017 89.5672Z" fill="white"/>
<path d="M295.64 46.7208C294.584 46.7208 293.66 46.3248 292.868 45.5328C292.076 44.7408 291.68 43.8168 291.68 42.7608C291.68 41.652 292.076 40.728 292.868 39.9888C293.66 39.1968 294.584 38.8008 295.64 38.8008C296.749 38.8008 297.672 39.1968 298.412 39.9888C299.204 40.728 299.6 41.652 299.6 42.7608C299.6 43.8168 299.204 44.7408 298.412 45.5328C297.672 46.3248 296.749 46.7208 295.64 46.7208ZM298.57 54.324V94.0032H292.709V54.324H298.57Z" fill="white"/>
<path d="M268.69 85.1298V59.3106H260.137V54.321H268.69V44.2626L274.472 42.7578V54.321H286.431V59.3106H274.472V83.625C274.472 85.737 274.947 87.2682 275.898 88.2186C276.848 89.1162 278.406 89.565 280.57 89.565C281.679 89.565 282.656 89.4858 283.501 89.3274C284.398 89.169 285.349 88.905 286.352 88.5354V93.6834C285.349 94.053 284.214 94.317 282.946 94.4754C281.732 94.6338 280.544 94.713 279.382 94.713C275.95 94.713 273.31 93.8946 271.462 92.2578C269.614 90.621 268.69 88.245 268.69 85.1298Z" fill="white"/>
<path d="M237.004 94.7153C232.674 94.7153 229.136 93.6065 226.391 91.3889C223.698 89.1713 222.352 86.2937 222.352 82.7561C222.352 79.0601 223.777 76.1297 226.628 73.9649C229.48 71.7473 233.334 70.6385 238.192 70.6385C240.304 70.6385 242.336 70.8761 244.29 71.3513C246.296 71.8265 248.144 72.4865 249.834 73.3313V68.1041C249.834 64.9361 248.936 62.5601 247.141 60.9761C245.346 59.3393 242.732 58.5209 239.3 58.5209C237.347 58.5209 235.367 58.8113 233.36 59.3921C231.407 59.9201 229.242 60.7913 226.866 62.0057L224.648 57.4913C227.5 56.1185 230.14 55.1153 232.568 54.4817C234.997 53.8481 237.426 53.5312 239.855 53.5312C244.871 53.5312 248.725 54.7193 251.418 57.0953C254.164 59.4713 255.536 62.8769 255.536 67.3121V94.0025H249.834V90.1217C248.039 91.6529 246.059 92.8144 243.894 93.6064C241.782 94.3456 239.485 94.7153 237.004 94.7153ZM227.975 82.5977C227.975 84.8153 228.899 86.6369 230.747 88.0625C232.648 89.4353 235.076 90.1217 238.033 90.1217C240.409 90.1217 242.574 89.7521 244.528 89.0129C246.481 88.2737 248.25 87.112 249.834 85.528V78.0833C248.197 76.9745 246.428 76.1825 244.528 75.7073C242.68 75.1793 240.62 74.9153 238.35 74.9153C235.182 74.9153 232.648 75.6281 230.747 77.0537C228.899 78.4265 227.975 80.2745 227.975 82.5977Z" fill="white"/>
<path d="M202.417 89.4089C204.529 89.4089 206.562 88.9865 208.515 88.1417C210.469 87.2969 212.291 86.0561 213.98 84.4193L217.623 88.3793C215.511 90.3857 213.135 91.9433 210.495 93.0521C207.855 94.1609 205.11 94.7153 202.258 94.7153C199.46 94.7153 196.82 94.1873 194.339 93.1313C191.857 92.0753 189.718 90.6232 187.923 88.7752C186.128 86.9272 184.702 84.7361 183.646 82.2017C182.59 79.6673 182.062 76.9745 182.062 74.1233C182.062 71.2721 182.59 68.6057 183.646 66.1241C184.702 63.5897 186.128 61.3985 187.923 59.5505C189.718 57.7025 191.857 56.2505 194.339 55.1945C196.82 54.0857 199.46 53.5312 202.258 53.5312C205.11 53.5312 207.882 54.0857 210.574 55.1945C213.32 56.3033 215.723 57.8345 217.782 59.7881L214.059 64.0649C212.475 62.4281 210.654 61.1609 208.594 60.2633C206.535 59.3657 204.45 58.9169 202.338 58.9169C200.331 58.9169 198.431 59.3129 196.635 60.1049C194.84 60.8969 193.282 61.9793 191.962 63.3521C190.695 64.7249 189.692 66.3353 188.953 68.1833C188.214 70.0313 187.844 72.0113 187.844 74.1233C187.844 76.2881 188.214 78.3209 188.953 80.2217C189.745 82.0697 190.775 83.6801 192.042 85.0529C193.362 86.3729 194.919 87.4289 196.715 88.2209C198.51 89.0129 200.41 89.4089 202.417 89.4089Z" fill="white"/>
<path d="M170.96 46.7208C169.904 46.7208 168.98 46.3248 168.188 45.5328C167.396 44.7408 167 43.8168 167 42.7608C167 41.652 167.396 40.728 168.188 39.9888C168.98 39.1968 169.904 38.8008 170.96 38.8008C172.069 38.8008 172.993 39.1968 173.732 39.9888C174.524 40.728 174.92 41.652 174.92 42.7608C174.92 43.8168 174.524 44.7408 173.732 45.5328C172.993 46.3248 172.069 46.7208 170.96 46.7208ZM173.89 54.324V94.0032H168.03V54.324H173.89Z" fill="white"/>
<path d="M158.037 37.2148V94.0012H152.176V38.5612L158.037 37.2148Z" fill="white"/>
<path d="M105.457 110.236V54.3211H111.239V58.5979C112.928 56.9611 114.855 55.7467 117.02 54.9547C119.238 54.1099 121.587 53.6875 124.069 53.6875C126.867 53.6875 129.481 54.2155 131.91 55.2715C134.339 56.3275 136.451 57.7795 138.246 59.6275C140.041 61.4227 141.44 63.5875 142.443 66.1219C143.499 68.6035 144.027 71.2699 144.027 74.1211C144.027 76.9723 143.499 79.6651 142.443 82.1995C141.44 84.7339 140.041 86.9251 138.246 88.7731C136.451 90.5683 134.312 91.9939 131.831 93.0499C129.402 94.1059 126.788 94.6339 123.99 94.6339C121.667 94.6339 119.423 94.2379 117.258 93.4459C115.093 92.6539 113.113 91.5187 111.318 90.0403V110.236H105.457ZM123.515 58.8355C121.033 58.8355 118.71 59.3371 116.545 60.3403C114.433 61.2907 112.691 62.6371 111.318 64.3795V84.0211C112.691 85.7107 114.459 87.0571 116.624 88.0603C118.789 89.0107 121.086 89.4859 123.515 89.4859C127.686 89.4859 131.171 88.0339 133.969 85.1299C136.82 82.1731 138.246 78.5299 138.246 74.2003C138.246 72.0355 137.85 70.0291 137.058 68.1811C136.319 66.2803 135.289 64.6435 133.969 63.2707C132.649 61.8979 131.091 60.8155 129.296 60.0235C127.501 59.2315 125.574 58.8355 123.515 58.8355Z" fill="white"/>
<path d="M58.7422 110.236V54.3211H64.5238V58.5979C66.2134 56.9611 68.1406 55.7467 70.3054 54.9547C72.523 54.1099 74.8726 53.6875 77.3542 53.6875C80.1526 53.6875 82.7662 54.2155 85.195 55.2715C87.6238 56.3275 89.7358 57.7795 91.531 59.6275C93.3262 61.4227 94.7254 63.5875 95.7286 66.1219C96.7846 68.6035 97.3126 71.2699 97.3126 74.1211C97.3126 76.9723 96.7846 79.6651 95.7286 82.1995C94.7254 84.7339 93.3262 86.9251 91.531 88.7731C89.7358 90.5683 87.5974 91.9939 85.1158 93.0499C82.687 94.1059 80.0734 94.6339 77.275 94.6339C74.9518 94.6339 72.7078 94.2379 70.543 93.4459C68.3782 92.6539 66.3982 91.5187 64.603 90.0403V110.236H58.7422ZM76.7998 58.8355C74.3182 58.8355 71.995 59.3371 69.8302 60.3403C67.7182 61.2907 65.9758 62.6371 64.603 64.3795V84.0211C65.9758 85.7107 67.7446 87.0571 69.9094 88.0603C72.0742 89.0107 74.371 89.4859 76.7998 89.4859C80.971 89.4859 84.4558 88.0339 87.2542 85.1299C90.1054 82.1731 91.531 78.5299 91.531 74.2003C91.531 72.0355 91.135 70.0291 90.343 68.1811C89.6038 66.2803 88.5742 64.6435 87.2542 63.2707C85.9342 61.8979 84.3766 60.8155 82.5814 60.0235C80.7862 59.2315 78.859 58.8355 76.7998 58.8355Z" fill="white"/>
<path d="M0.316406 94.0025L23.3636 38.5625H30.7292L53.4596 94.0025H46.8068L39.8372 76.5785H13.7012L6.65241 94.0025H0.316406ZM15.8396 71.3513H37.6988L26.8484 44.2649L15.8396 71.3513Z" fill="white"/>
<path fill-rule="evenodd" clip-rule="evenodd" d="M6.18011 18.3038C6.04908 17.6823 6.09916 13.5227 6.15205 12.7952C6.9919 12.6756 7.72554 12.6975 8.4654 12.7197C8.63271 12.7247 8.80034 12.7297 8.96958 12.7331C9.30298 12.7397 9.70587 12.7272 10.1415 12.7137C11.5884 12.6689 13.3963 12.6128 14.2167 13.2105C15.7084 14.2971 15.8834 16.4395 14.4439 17.672C13.6602 18.343 12.7404 18.3596 11.7036 18.3351C10.72 18.3119 9.76395 18.3143 8.80892 18.3167C7.93933 18.3188 7.06943 18.321 6.18011 18.3038ZM6.20389 9.59895C6.18299 9.51728 6.08314 4.71009 6.18653 4.09656C6.18943 4.07955 6.19345 4.06091 6.19723 4.04341C6.1994 4.03338 6.20148 4.02372 6.20323 4.01496L6.24716 3.8542C6.70209 3.79143 9.83244 3.77642 10.2005 3.88132C13.0741 4.70011 12.9581 8.70758 10.3803 9.42536C9.44999 9.6844 8.21629 9.64827 7.15753 9.61727C6.81611 9.60727 6.49288 9.59781 6.20389 9.59895ZM3.63239 21.3375L3.5423 21.3286C3.44634 20.7805 3.3323 20.1941 3.19917 19.5676C2.96652 18.1551 2.99019 16.9473 3.01544 15.6584C3.02166 15.3409 3.02798 15.0184 3.03059 14.6867L3.0214 5.06963C3.01315 3.22114 3.01011 2.23802 4.34793 1.24527C5.31506 0.527494 6.77884 0.608975 8.05411 0.67996C8.35675 0.696805 8.64876 0.713061 8.921 0.717905C10.8624 0.752453 11.6662 0.939611 12.9307 1.79899C14.0329 2.54812 14.9664 3.76334 15.3079 5.49737C15.6504 7.23581 15.3989 7.83515 15.0799 8.59507C14.9343 8.94192 14.7746 9.32224 14.651 9.8596C14.7596 9.97488 14.9812 10.097 15.2613 10.2514C15.7481 10.5197 16.4119 10.8856 16.9681 11.4827C19.3947 14.0883 18.9193 17.724 16.6527 19.9018C14.9339 21.5533 12.964 21.4903 10.69 21.4175L10.6844 21.4174C10.574 21.4138 10.4629 21.4103 10.3511 21.4069C9.47806 21.3806 8.5996 21.3985 7.71861 21.4165C6.35894 21.4442 4.99326 21.472 3.63239 21.3375Z" fill="white"/>
<path fill-rule="evenodd" clip-rule="evenodd" d="M58.8824 3.66165C61.1268 2.67573 63.4818 3.0617 65.1614 3.86761C67.0123 4.7557 67.9151 5.83594 69.0427 7.97572C70.057 9.90034 69.5043 12.9001 68.8087 14.2823C66.8233 18.2275 62.2445 19.8134 58.3063 17.882C54.5467 16.0382 52.8051 11.157 54.8115 7.43908C55.7415 5.71552 56.7156 4.61341 58.8824 3.66165ZM58.5935 0.474243C57.9038 0.848241 56.6856 0.910496 54.7508 2.51959C53.6814 3.40906 52.9671 4.359 52.2717 5.48521C49.3282 10.2521 51.0132 17.4071 56.4368 20.4286C65.2593 25.3436 75.2039 16.7266 72.2439 7.58684C70.929 3.52658 67.2292 0.549007 63.3949 0.0966512C62.3223 -0.0298573 59.7133 -0.133052 58.5935 0.474243Z" fill="white"/>
<path fill-rule="evenodd" clip-rule="evenodd" d="M125.787 11.1972C125.42 10.0548 126.503 7.09008 126.982 6.2774C129.097 2.68836 132.57 2.07819 135.062 5.51934C136.231 7.13264 136.648 8.91447 136.772 11.1569C136.226 11.3202 127.647 11.1621 125.787 11.1972ZM125.628 21.2795C125.821 20.7909 125.729 15.4437 125.725 14.4338C126.055 14.3487 136.344 14.3408 136.667 14.4369C136.854 15.0581 136.771 17.0894 136.774 17.8794C136.778 18.6536 136.659 20.7398 136.841 21.341C140.522 20.9506 139.826 17.8889 139.962 16.2286C140.05 15.1513 139.956 13.7539 139.962 12.6013C139.97 11.1665 140.063 10.3954 139.769 8.78359C138.931 4.20593 135.771 -0.12686 131.023 0.107624C125.995 0.355896 123.254 5.10084 122.716 8.97268C122.539 10.2501 122.509 14.6601 122.543 16.0959C122.567 17.116 122.353 18.7961 122.943 19.7335C123.476 20.5783 124.533 21.4669 125.628 21.2795Z" fill="white"/>
<path fill-rule="evenodd" clip-rule="evenodd" d="M23.4864 11.1111C23.0704 8.72182 24.982 3.55523 28.7095 3.20763C32.902 2.81662 34.8036 9.4931 34.3989 11.025C33.7171 11.2629 27.6679 11.1141 26.1435 11.1452C25.2384 11.1636 24.2968 11.0441 23.4864 11.1111ZM23.3515 21.1996C23.4467 19.2698 23.4111 16.2836 23.3507 14.3889C23.6544 14.2502 33.919 14.231 34.354 14.3506C34.5485 15.0248 34.4105 16.9571 34.4175 17.7573C34.4252 18.6246 34.3319 20.5479 34.492 21.2803C37.55 20.937 37.7835 18.6693 37.6157 16.1266L37.6354 12.5206C37.6556 8.63694 37.2553 5.50192 34.4055 2.46136C32.9831 0.943847 31.2681 0.0507721 28.7375 0.0203981C25.966 -0.0128767 24.0124 1.76116 22.8108 3.18094C21.6322 4.57336 20.7086 6.77277 20.399 8.89387C20.0816 11.0687 20.2346 13.7039 20.2113 15.9826C20.1999 17.102 20.0328 18.6023 20.6141 19.6733C21.125 20.6145 22.2349 21.3125 23.3515 21.1996Z" fill="white"/>
<path fill-rule="evenodd" clip-rule="evenodd" d="M111.632 3.56072C113.815 2.4853 116.076 3.85589 116.827 5.51043C117.878 7.82418 116.568 9.94832 114.828 10.6954C110.109 12.7214 106.871 5.90693 111.632 3.56072ZM109.325 14.0632C109.783 14.1759 110.123 14.6627 110.62 15.1651C111.645 16.2033 115.908 20.5768 116.572 20.9624C117.795 21.672 119.046 21.3241 120.186 20.5563C119.923 19.6516 114.639 15.2175 114.185 14.134C119.911 13.001 121.593 7.42516 119.321 3.5488C116.278 -1.64247 108.32 -0.888542 106.438 5.22524C105.971 6.74036 106.199 14.2275 106.187 16.0782L106.183 20.6378C106.179 21.0378 106.071 21.2443 106.415 21.3033C106.838 21.3758 107.878 20.9038 108.152 20.667C109.903 19.1512 109.057 17.0135 109.325 14.0632Z" fill="white"/>
<path fill-rule="evenodd" clip-rule="evenodd" d="M104.671 21.2954C104.222 17.3157 100.738 18.4483 98.2954 18.2406C97.7458 18.1938 95.7514 18.3952 95.4899 18.1801L95.4053 18.0459C95.3986 18.0285 95.3788 17.9952 95.3718 17.9731C95.2683 17.6502 95.3821 15.7122 95.3569 15.0684C95.3174 14.0573 95.3469 12.8636 95.3662 11.8596C96.5852 11.5632 100.832 12.0611 101.599 11.6715C101.492 10.1039 100.517 9.15694 99.4725 8.81689C98.3455 8.45014 96.0813 8.80408 95.4243 8.61139C95.3342 8.18167 95.2761 4.16903 95.4531 3.76769L101.118 3.73893C102.237 3.7841 103.006 3.55285 103.723 2.90675C104.24 2.43979 104.799 1.52877 104.622 0.615202L100.639 0.570722C100.11 0.572867 99.6361 0.639935 99.1216 0.628173C94.7301 0.527418 92.0635 -0.113185 92.2366 5.38069C92.3054 7.56231 92.0749 17.9633 92.3497 19.0999C93.0404 21.9574 96.6609 21.3986 99.0933 21.3589C100.059 21.3431 100.908 21.4132 101.867 21.3631C102.714 21.3188 103.889 21.4931 104.671 21.2954Z" fill="white"/>
<path fill-rule="evenodd" clip-rule="evenodd" d="M91.212 0.673096L85.6097 0.633073C83.4545 0.631743 81.6764 1.00029 79.8138 1.97491C71.1347 6.51632 72.9055 18.8023 82.5508 21.0492C84.3761 21.4743 86.1127 21.29 88.0512 21.365C88.4768 21.3815 88.9545 21.3648 89.4089 21.3596C90.9535 21.3417 91.6106 21.8019 91.0102 20.2195C90.0207 17.612 87.0819 18.3456 85.2715 18.2375C81.6459 18.021 78.73 16.5297 77.5851 12.8454C76.4578 9.21793 78.6424 5.86745 81.9179 4.45602C85.7686 2.7967 88.1037 4.82172 90.2612 2.91343C90.8144 2.42413 91.3097 1.60373 91.212 0.673096Z" fill="white"/>
<path fill-rule="evenodd" clip-rule="evenodd" d="M43.0051 3.68355C43.2633 4.73166 42.8458 19.9447 43.1481 21.2885C46.8525 20.7677 46.1052 17.8906 46.1798 15.943C46.2468 14.1953 46.063 4.05344 46.2423 3.81193C46.4099 3.58612 47.0083 3.68313 47.1881 3.68847C47.9277 3.7104 49.8218 3.70813 50.4007 3.48208C51.7093 2.97101 52.432 1.87083 52.3927 0.595808C52.0328 0.474768 39.4554 0.471249 37.5804 0.49796C36.7712 0.509448 36.7035 0.553448 36.9616 1.43126C37.7968 4.27215 41.0106 3.58425 43.0051 3.68355Z" fill="white"/>
</svg>
