<svg width="466" height="159" viewBox="0 0 466 159" fill="none" xmlns="http://www.w3.org/2000/svg">
<path d="M68.1099 42.6556C70.648 45.1204 74.1091 46.6442 77.9263 46.6442L138.24 46.6512L125.214 7.79097C123.435 3.66267 119.261 0.771606 114.248 0.771606C109.256 0.771606 105.019 3.75713 103.306 7.86839L98.9642 20.527L98.9471 1.42548L77.8844 1.41488C74.0773 1.41488 70.6549 2.9005 68.1343 5.35795L68.1417 1.43193H46.5758C42.559 1.43193 38.9058 3.14473 36.3507 5.83672V1.41488L16.0248 1.43239C7.25023 1.42502 0.0525312 8.28403 0.0419328 17.3526C0.0419328 21.5509 1.87684 25.3585 4.58266 28.1795L0 28.1722V46.6442L20.4789 46.6406C26.2329 46.6336 31.9348 43.162 33.9167 39.0023L33.9762 38.8314C36.2659 43.456 41.0444 46.6442 46.5749 46.6442L68.1095 46.6406V42.6556" fill="white"/>
<path d="M3.16382 43.4836L20.4332 43.4661C27.4987 43.4661 33.2246 37.7577 33.2246 30.7241C33.2246 23.6766 27.4987 17.9677 20.4332 17.9677L15.9483 17.9922C15.5948 17.9922 15.3082 17.7023 15.3082 17.3457C15.3082 16.989 15.5948 16.6987 15.9483 16.6987L33.1863 16.7024L33.1932 11.2944H15.9446C12.6098 11.2944 9.89657 14.0035 9.89657 17.3318C9.89657 20.6634 12.6093 23.3619 15.9446 23.3619L20.4507 23.4213C24.4989 23.4213 27.7747 26.6861 27.7747 30.7139C27.7747 34.7445 24.4993 38.0167 20.4507 38.0167H3.17073L3.16382 43.4836" fill="#0060A8"/>
<path d="M3.17081 36.7472H20.4508C23.7962 36.7472 26.502 34.0487 26.502 30.7135C26.502 27.3819 23.7962 24.6867 20.4508 24.6867L15.9446 24.6378C11.9034 24.6378 8.62437 21.3694 8.62437 17.3314C8.62437 13.3044 11.9034 10.0355 15.9446 10.0355L33.1933 10.0318L33.1864 4.60315H15.9483C8.89026 4.60315 3.15698 10.3051 3.15698 17.3457C3.15698 24.3862 8.89026 30.0914 15.9483 30.0914L20.4089 30.0983C20.748 30.0983 21.0346 30.3748 21.0346 30.7241C21.0346 31.0669 20.748 31.3429 20.4089 31.3429L3.16389 31.3567L3.17081 36.7472" fill="#0060A8"/>
<path d="M46.6137 38.0512C43.6176 38.0512 41.1633 35.6634 41.1633 32.6147V15.3633C41.1633 12.4303 43.6176 10.018 46.6137 10.018L65.0471 10.0212V4.60315H46.6137C40.615 4.60315 35.7559 9.44478 35.7559 15.4227V32.6152C35.7559 38.5936 40.615 43.4421 46.6137 43.4421L64.9701 43.4495L64.9664 38.0448L46.6137 38.0512" fill="#0060A8"/>
<path d="M42.4847 15.4227C42.4847 13.1367 44.3238 11.2838 46.6135 11.2838H65.0469V16.7093H49.1654C47.8931 16.7093 47.8756 17.9714 47.8756 17.9714H61.125V23.3724H42.4783L42.4847 15.4227" fill="#0060A8"/>
<path d="M46.6137 36.7371C44.3309 36.7371 42.478 34.8948 42.478 32.6152V24.6586H61.1248V30.0707H47.8754C47.8929 31.3429 49.1652 31.3494 49.1652 31.3494H64.9697L64.966 36.7297L46.6137 36.7371" fill="#0060A8"/>
<path d="M77.9645 38.0374C74.979 38.0374 72.5391 35.6044 72.5391 32.6147V15.4223C72.5391 12.4298 74.9615 10.0175 77.9502 10.0175H95.8039V4.60315H77.9088C71.9128 4.60315 67.0537 9.44478 67.0537 15.4227V32.6152C67.0537 38.5936 71.9548 43.4421 77.9502 43.4421L95.8039 43.4495V17.9714H80.4607V23.3725H90.3817V38.0374H77.9645" fill="#0060A8"/>
<path d="M73.8115 32.6147C73.8115 34.9054 75.6643 36.7684 77.9504 36.7684H89.1022V24.6516H80.4742V30.0707H83.6763L83.6864 31.3429H80.4986C79.8028 31.3429 79.2332 30.7665 79.2332 30.0707L79.2047 17.9677C79.2047 17.9677 79.201 16.7093 80.4843 16.678H95.8101L95.8031 11.2802L77.9495 11.2838C75.6634 11.2838 73.8105 13.1367 73.8105 15.4227V32.6147" fill="#0060A8"/>
<path d="M112.58 11.2032C112.821 10.5148 113.475 10.0185 114.247 10.0185C115.021 10.0185 115.681 10.5148 115.915 11.2032L124.582 36.8066H111.891L111.905 30.7835H116.146L114.237 25.1097L108.018 43.4449H101.621L112.58 11.2032" fill="#0060A8"/>
<path d="M126.329 38.0374H111.913V43.4449H133.852L122.442 9.68576C121.442 6.39288 118.146 3.97046 114.244 3.97046C110.336 3.97046 107.05 6.38229 106.043 9.6724L94.5276 43.4454H100.271L111.451 10.6161C111.905 9.52909 112.976 8.76324 114.234 8.76324C115.486 8.76324 116.562 9.52909 117.02 10.6092L126.329 38.0374" fill="#0060A8"/>
<path fill-rule="evenodd" clip-rule="evenodd" d="M132.42 7.78452C131.699 8.50106 130.738 8.89965 129.717 8.89965C128.699 8.89965 127.742 8.50106 127.025 7.78498C126.298 7.06152 125.9 6.10721 125.9 5.08653C125.9 2.98897 127.616 1.28632 129.717 1.28632C130.738 1.28632 131.699 1.68491 132.42 2.39777C133.139 3.12122 133.542 4.07231 133.542 5.08607C133.542 6.10674 133.139 7.06106 132.42 7.78452ZM127.399 2.77147C126.774 3.39033 126.438 4.21516 126.438 5.08561C126.438 5.96298 126.773 6.78458 127.399 7.40298C128.021 8.02183 128.846 8.36098 129.717 8.36098C131.532 8.36098 133.007 6.89287 133.007 5.08561C133.007 4.21516 132.664 3.39033 132.045 2.77147C131.423 2.15308 130.598 1.81716 129.717 1.81716C128.846 1.81716 128.022 2.15262 127.399 2.77147Z" fill="white"/>
<path fill-rule="evenodd" clip-rule="evenodd" d="M128.738 7.20391V5.40725H129.829L130.986 7.20391H131.654L130.465 5.37223C130.471 5.3709 130.478 5.36949 130.486 5.36796C130.719 5.32126 131.472 5.17003 131.472 4.21516C131.472 3.82348 131.339 3.47051 131.021 3.23596C130.698 2.99206 130.358 2.98812 129.784 2.98147C129.774 2.98136 129.765 2.98125 129.755 2.98114H128.186V7.20391H128.738ZM129.86 4.9423H128.738V3.44977H129.829C129.84 3.44977 129.852 3.44977 129.863 3.44976C130.173 3.44953 130.441 3.44933 130.654 3.6281C130.895 3.82394 130.906 4.10687 130.906 4.21885C130.906 4.5262 130.766 4.80591 130.375 4.90037C130.207 4.9423 130.039 4.9423 129.86 4.9423Z" fill="white"/>
<path d="M455.193 96.9087C455.193 93.0918 454.496 89.5173 453.103 86.1851C451.709 82.7923 449.861 79.8842 447.559 77.4608C445.196 74.9768 442.5 73.038 439.471 71.6446C436.381 70.1905 433.2 69.4635 429.929 69.4635H395.486V81.5503H428.475C430.777 81.5503 432.837 82.0047 434.654 82.9135C436.472 83.8222 438.017 85.0037 439.289 86.4577C440.501 87.9118 441.44 89.5779 442.106 91.456C442.773 93.2736 443.106 95.0911 443.106 96.9087V131.17C443.106 132.987 442.773 134.835 442.106 136.713C441.44 138.531 440.501 140.167 439.289 141.621C438.017 143.075 436.472 144.256 434.654 145.165C432.837 146.074 430.777 146.528 428.475 146.528H395.486V158.615H429.929C433.2 158.615 436.381 157.918 439.471 156.525C442.5 155.071 445.196 153.132 447.559 150.709C449.861 148.225 451.709 145.316 453.103 141.984C454.496 138.591 455.193 134.987 455.193 131.17V96.9087ZM439.834 112.54V98.7263C439.834 97.151 439.592 95.5455 439.107 93.9097C438.562 92.2133 437.775 90.6987 436.745 89.3658C435.715 88.0329 434.412 86.9424 432.837 86.0942C431.262 85.246 429.414 84.8219 427.293 84.8219H395.486V96.9087H427.021C427.384 96.9087 427.778 97.1207 428.202 97.5448C428.566 97.9689 428.747 98.5445 428.747 99.2715V100.544H402.393V112.54H439.834ZM439.834 115.539H402.393V127.625H428.747V128.807C428.747 129.534 428.566 130.109 428.202 130.534C427.778 130.958 427.384 131.17 427.021 131.17H395.486V143.257H427.293C429.414 143.257 431.262 142.832 432.837 141.984C434.412 141.136 435.715 140.045 436.745 138.713C437.775 137.38 438.562 135.895 439.107 134.26C439.592 132.563 439.834 130.927 439.834 129.352V115.539Z" fill="white"/>
<path d="M59.7069 118.719L46.7113 83.9131C46.469 83.3073 45.954 82.762 45.1664 82.2773C44.3788 81.7926 43.5003 81.5503 42.531 81.5503C41.6828 81.5503 40.8043 81.7926 39.8955 82.2773C38.9867 82.762 38.4414 83.3073 38.2597 83.9131L12.0868 158.615H0L28.0813 79.3692C28.566 78.0969 29.2022 76.8852 29.9898 75.7341C30.7774 74.5224 31.7468 73.4621 32.8979 72.5534C34.1096 71.584 35.503 70.8267 37.0783 70.2814C38.6535 69.7361 40.4711 69.4635 42.531 69.4635C44.5909 69.4635 46.3781 69.7361 47.8928 70.2814C49.4074 70.8267 50.7403 71.584 51.8914 72.5534C53.0425 73.4621 54.0119 74.5224 54.7995 75.7341C55.6477 76.8852 56.3747 78.0969 56.9806 79.3692L59.7069 84.8219L62.4333 79.3692C63.0997 78.0969 63.8267 76.8852 64.6143 75.7341C65.4625 74.5224 66.4319 73.4621 67.5224 72.5534C68.6736 71.584 70.0064 70.8267 71.5211 70.2814C73.0357 69.7361 74.823 69.4635 76.8829 69.4635C78.8822 69.4635 80.6695 69.7361 82.2447 70.2814C83.8805 70.8267 85.274 71.584 86.4251 72.5534C87.6368 73.4621 88.6365 74.5224 89.4241 75.7341C90.2723 76.8852 90.9084 78.0969 91.3325 79.3692L119.414 158.615H107.327L81.1542 83.9131C80.9724 83.3073 80.4271 82.762 79.5183 82.2773C78.6096 81.7926 77.7311 81.5503 76.8829 81.5503C75.9135 81.5503 75.035 81.7926 74.2474 82.2773C73.4598 82.762 72.9448 83.3073 72.7025 83.9131L59.7069 118.719ZM59.7069 158.615L42.531 112.812L27.4452 158.615H15.3584L40.259 86.1851C40.3802 85.8216 40.6831 85.5186 41.1678 85.2763C41.6525 84.9734 42.1069 84.8219 42.531 84.8219C42.9551 84.8219 43.3792 84.9734 43.8032 85.2763C44.2879 85.5186 44.5909 85.8216 44.712 86.1851L59.7069 127.535L74.7018 86.1851C74.823 85.8216 75.0956 85.5186 75.5197 85.2763C76.0044 84.9734 76.4588 84.8219 76.8829 84.8219C77.307 84.8219 77.7614 84.9734 78.246 85.2763C78.7307 85.5186 79.0337 85.8216 79.1548 86.1851L104.055 158.615H92.423L76.8829 112.812L59.7069 158.615Z" fill="white"/>
<path d="M139.852 158.615C135.49 158.615 131.734 158.1 128.583 157.07C125.433 156.04 122.797 154.435 120.677 152.253C118.617 150.012 117.072 147.164 116.042 143.711C115.073 140.197 114.588 136.017 114.588 131.17V96.9087C114.588 91.8801 115.073 87.6391 116.042 84.1858C117.072 80.6718 118.617 77.8243 120.677 75.6432C122.797 73.4621 125.433 71.8869 128.583 70.9176C131.734 69.9482 135.49 69.4635 139.852 69.4635H151.485C155.907 69.4635 159.694 69.9482 162.844 70.9176C166.055 71.8869 168.691 73.4621 170.751 75.6432C172.811 77.8243 174.325 80.6718 175.295 84.1858C176.264 87.6391 176.749 91.8801 176.749 96.9087V131.17C176.749 136.017 176.264 140.197 175.295 143.711C174.325 147.164 172.811 150.012 170.751 152.253C168.691 154.435 166.055 156.04 162.844 157.07C159.694 158.1 155.907 158.615 151.485 158.615H139.852ZM152.757 146.528C155.059 146.528 156.998 146.225 158.573 145.619C160.148 144.953 161.421 144.044 162.39 142.893C163.42 141.742 164.147 140.379 164.571 138.803C165.056 137.228 165.298 135.532 165.298 133.714V94.3641C165.298 92.5465 165.056 90.8502 164.571 89.2749C164.147 87.6997 163.42 86.3365 162.39 85.1854C161.421 84.0343 160.118 83.1558 158.482 82.55C156.907 81.8835 154.968 81.5503 152.666 81.5503H138.671C136.369 81.5503 134.399 81.8835 132.764 82.55C131.188 83.1558 129.886 84.0343 128.856 85.1854C127.887 86.3365 127.16 87.6997 126.675 89.2749C126.251 90.8502 126.039 92.5465 126.039 94.3641V133.714C126.039 135.532 126.251 137.228 126.675 138.803C127.16 140.379 127.887 141.742 128.856 142.893C129.886 144.044 131.188 144.953 132.764 145.619C134.339 146.225 136.278 146.528 138.58 146.528H152.757ZM139.761 143.257C137.641 143.257 135.884 143.075 134.49 142.711C133.157 142.287 132.097 141.621 131.31 140.712C130.583 139.803 130.068 138.652 129.765 137.259C129.462 135.805 129.31 134.017 129.31 131.897V96.1817C129.31 94.6064 129.462 93.1221 129.765 91.7286C130.068 90.3352 130.613 89.1235 131.401 88.0935C132.188 87.0636 133.248 86.276 134.581 85.7307C135.975 85.1248 137.732 84.8219 139.852 84.8219H151.485C153.605 84.8219 155.332 85.1248 156.665 85.7307C158.058 86.276 159.149 87.0636 159.936 88.0935C160.724 89.1235 161.269 90.3352 161.572 91.7286C161.875 93.1221 162.026 94.6064 162.026 96.1817V131.897C162.026 134.017 161.875 135.805 161.572 137.259C161.269 138.652 160.724 139.803 159.936 140.712C159.209 141.621 158.149 142.287 156.756 142.711C155.423 143.075 153.696 143.257 151.575 143.257H139.761ZM148.576 131.17C149.303 131.17 149.758 130.958 149.94 130.534C150.182 130.109 150.303 129.534 150.303 128.807V99.2715C150.303 98.5445 150.182 97.9689 149.94 97.5448C149.758 97.1207 149.303 96.9087 148.576 96.9087H142.76C142.033 96.9087 141.549 97.1207 141.306 97.5448C141.124 97.9689 141.034 98.5445 141.034 99.2715V128.807C141.034 129.534 141.124 130.109 141.306 130.534C141.549 130.958 142.033 131.17 142.76 131.17H148.576Z" fill="white"/>
<path d="M216.877 146.528C219.179 146.528 221.118 146.225 222.693 145.619C224.268 144.953 225.541 144.044 226.51 142.893C227.54 141.742 228.267 140.379 228.691 138.803C229.176 137.228 229.418 135.532 229.418 133.714V94.3641C229.418 92.5465 229.176 90.8502 228.691 89.2749C228.267 87.6997 227.54 86.3365 226.51 85.1854C225.541 84.0343 224.238 83.1558 222.602 82.55C221.027 81.8835 219.088 81.5503 216.786 81.5503H180.617V69.4635H215.605C220.027 69.4635 223.814 69.9482 226.965 70.9176C230.176 71.8869 232.811 73.4621 234.871 75.6432C236.931 77.8243 238.445 80.6718 239.415 84.1858C240.384 87.6391 240.869 91.8801 240.869 96.9087V131.17C240.869 136.017 240.384 140.197 239.415 143.711C238.445 147.164 236.931 150.012 234.871 152.253C232.811 154.435 230.176 156.04 226.965 157.07C223.814 158.1 220.027 158.615 215.605 158.615H180.617V99.8168H192.067V146.528H216.877ZM180.617 96.9087V84.8219H215.605C217.725 84.8219 219.452 85.1248 220.785 85.7307C222.178 86.276 223.269 87.0636 224.056 88.0935C224.844 89.1235 225.389 90.3352 225.692 91.7286C225.995 93.1221 226.147 94.6064 226.147 96.1817V131.897C226.147 134.017 225.995 135.805 225.692 137.259C225.389 138.652 224.844 139.803 224.056 140.712C223.329 141.621 222.269 142.287 220.876 142.711C219.543 143.075 217.816 143.257 215.696 143.257H195.339V99.8168H208.062V128.807C208.062 130.382 208.819 131.17 210.334 131.17H212.333C213.06 131.17 213.636 130.958 214.06 130.534C214.544 130.109 214.787 129.534 214.787 128.807V99.2715C214.787 98.5445 214.544 97.9689 214.06 97.5448C213.636 97.1207 213.06 96.9087 212.333 96.9087H180.617Z" fill="white"/>
<path d="M244.338 96.9087C244.338 93.0918 245.035 89.5173 246.428 86.1851C247.822 82.7923 249.669 79.8842 251.972 77.4608C254.334 74.9768 257.03 73.038 260.06 71.6446C263.15 70.1905 266.33 69.4635 269.602 69.4635H304.045V81.5503H271.056C268.754 81.5503 266.694 82.0047 264.876 82.9135C263.059 83.8222 261.514 85.0037 260.242 86.4577C259.03 87.9118 258.091 89.5779 257.424 91.456C256.758 93.2736 256.425 95.0911 256.425 96.9087V131.17C256.425 132.987 256.758 134.835 257.424 136.713C258.091 138.531 259.03 140.167 260.242 141.621C261.514 143.075 263.059 144.256 264.876 145.165C266.694 146.074 268.754 146.528 271.056 146.528H304.045V158.615H269.602C266.33 158.615 263.15 157.918 260.06 156.525C257.03 155.071 254.334 153.132 251.972 150.709C249.669 148.225 247.822 145.316 246.428 141.984C245.035 138.591 244.338 134.987 244.338 131.17V96.9087ZM259.696 112.54V98.7263C259.696 97.151 259.939 95.5455 260.423 93.9097C260.969 92.2133 261.756 90.6987 262.786 89.3658C263.816 88.0329 265.119 86.9424 266.694 86.0942C268.269 85.246 270.117 84.8219 272.237 84.8219H304.045V96.9087H272.51C272.147 96.9087 271.753 97.1207 271.329 97.5448C270.965 97.9689 270.783 98.5445 270.783 99.2715V100.544H297.138V112.54H259.696ZM259.696 115.539H297.138V127.625H270.783V128.807C270.783 129.534 270.965 130.109 271.329 130.534C271.753 130.958 272.147 131.17 272.51 131.17H304.045V143.257H272.237C270.117 143.257 268.269 142.832 266.694 141.984C265.119 141.136 263.816 140.045 262.786 138.713C261.756 137.38 260.969 135.895 260.423 134.26C259.939 132.563 259.696 130.927 259.696 129.352V115.539Z" fill="white"/>
<path d="M367.677 158.615H333.234C329.963 158.615 326.782 157.918 323.692 156.525C320.663 155.071 317.967 153.132 315.604 150.709C313.302 148.225 311.454 145.316 310.06 141.984C308.667 138.591 307.97 134.987 307.97 131.17V69.4635H320.057V131.17C320.057 132.987 320.39 134.835 321.057 136.713C321.723 138.531 322.662 140.167 323.874 141.621C325.146 143.075 326.691 144.256 328.509 145.165C330.326 146.074 332.386 146.528 334.688 146.528H367.677V158.615ZM337.506 131.17H367.677V143.257H335.87C333.749 143.257 331.901 142.832 330.326 141.984C328.751 141.136 327.448 140.045 326.419 138.713C325.389 137.38 324.601 135.895 324.056 134.26C323.571 132.563 323.329 130.927 323.329 129.352V69.4635H335.779V128.807C335.779 129.534 335.961 130.109 336.324 130.534C336.748 130.897 337.142 131.079 337.506 131.079V131.17Z" fill="white"/>
</svg>
