<svg width="466" height="159" viewBox="0 0 466 159" fill="none" xmlns="http://www.w3.org/2000/svg">
<path fill-rule="evenodd" clip-rule="evenodd" d="M116.753 0.647461C121.765 0.647461 125.956 3.41419 127.838 7.39936L127.96 7.66683L141.272 46.527L79.6353 46.5201C75.8688 46.5201 72.4417 45.0995 69.8752 42.783L69.6031 42.5314V46.5164L47.5963 46.5201C42.0622 46.5201 37.265 43.4633 34.8708 38.9944L34.7213 38.7072L34.6605 38.8782C32.6749 42.9563 27.0352 46.3731 21.2738 46.512L20.928 46.5164L0 46.5201V28.048L4.68315 28.0554C1.918 25.2344 0.0428524 21.4268 0.0428524 17.2284C0.0535527 8.26914 7.23305 1.46647 16.0528 1.31096L16.3762 1.30825L37.1478 1.29074V5.71257C39.6748 3.10742 43.2526 1.41931 47.2012 1.31311L47.5972 1.30779H69.6361L69.6285 5.2338C72.1156 2.8611 75.4617 1.39435 79.1914 1.29602L79.5924 1.29074L101.117 1.30134L101.134 20.4029L105.572 7.74424C107.322 3.63298 111.652 0.647461 116.753 0.647461ZM33.9212 11.1703H16.2943L16.0629 11.1745C12.7617 11.2937 10.1136 13.955 10.1136 17.2077C10.1136 20.4636 12.7613 23.1147 16.0629 23.2336L21.1465 23.3011C25.1687 23.4281 28.3838 26.6425 28.3838 30.5898C28.3838 34.5398 25.1692 37.7614 21.1465 37.8886L20.8992 37.8925H3.2403L3.23324 43.3595L20.8814 43.342L21.1944 43.3384C28.2701 43.1762 33.9532 37.5316 33.9532 30.5999C33.9532 23.6546 28.2701 18.0093 21.1944 17.8472L20.8814 17.8436L16.298 17.868L16.2014 17.861C15.886 17.8148 15.6439 17.5457 15.6439 17.2215C15.6439 16.8973 15.886 16.6279 16.2014 16.5816L16.298 16.5746L33.9141 16.5782L33.9212 11.1703ZM47.6358 4.47901H66.4735V9.8971L47.6358 9.89387L47.4071 9.89837C44.5241 10.012 42.1856 12.2626 42.0704 15.0255L42.066 15.2392V32.4906L42.0706 32.7181C42.1888 35.5837 44.529 37.8131 47.4128 37.9229L47.6358 37.9271L66.3911 37.9206L66.3948 43.3254L47.6358 43.318L47.3401 43.3142C41.445 43.1638 36.6978 38.5288 36.5438 32.7794L36.5399 32.491V15.2986L36.5438 15.0102C36.6978 9.26153 41.445 4.63299 47.3401 4.48278L47.6358 4.47901ZM116.749 3.84633L116.458 3.85062C112.692 3.96159 109.538 6.21816 108.45 9.30303L108.368 9.54827L97.9049 39.5753L97.905 17.8473H82.2252V23.2483H92.3638V37.9133H79.6743L79.4521 37.909C76.5788 37.7972 74.252 35.5282 74.1346 32.7139L74.1299 32.4906V15.2981L74.1343 15.0802C74.248 12.2636 76.5569 10.0115 79.4316 9.89791L79.6597 9.89341H97.905V4.47901H79.6174L79.3218 4.48278C73.4293 4.63299 68.6822 9.26153 68.5281 15.0102L68.5242 15.2986V32.491L68.5281 32.7794C68.6835 38.5288 73.4708 43.1638 79.3642 43.3142L79.6597 43.318L97.905 43.3254L97.9049 43.3203L102.47 43.3212L113.896 10.492L113.974 10.3231C114.475 9.32647 115.521 8.63911 116.739 8.63911C117.951 8.63911 119.002 9.32647 119.507 10.3172L119.586 10.4851L129.1 37.9133H114.367V43.3208H136.788L125.127 9.56164L125.048 9.32227C123.969 6.23332 120.807 3.96514 117.047 3.85086L116.749 3.84633ZM115.104 10.944C115.385 10.3267 116.016 9.89433 116.753 9.89433C117.543 9.89433 118.218 10.3906 118.457 11.0791L127.314 36.6825H114.345L114.356 31.8673L114.775 30.6593L114.359 30.6594L114.356 31.8673L110.387 43.3208H103.849L115.049 11.0791L115.104 10.944ZM97.904 11.156L79.6588 11.1597L79.4477 11.1648C77.2796 11.269 75.5409 12.9704 75.4343 15.092L75.4291 15.2986L75.4301 32.4906L75.4352 32.6976C75.5418 34.8238 77.2805 36.5343 79.4486 36.6391L79.6597 36.6442H91.0561V24.5275H82.2389V29.9465H85.5112L85.5216 31.2188H82.2638L82.1321 31.2121C81.5256 31.1506 81.0396 30.6697 80.9775 30.0755L80.9707 29.9465L80.9415 17.8436C80.9438 17.7371 80.9924 16.6907 82.0784 16.5655L82.2493 16.5538H97.9111L97.904 11.156ZM16.298 4.47901H33.9141L33.9212 9.9077L16.2943 9.91138L16.0474 9.91529C12.0317 10.0424 8.81346 13.2608 8.81346 17.2072C8.81346 21.1645 12.0317 24.3826 16.0474 24.5098L21.1313 24.5667C24.4423 24.6854 27.0832 27.3335 27.0832 30.5893C27.0832 33.8488 24.4423 36.5 21.1313 36.6189L20.8992 36.623H3.2403L3.23324 31.2326L20.8564 31.2188L20.9494 31.2121C21.2538 31.168 21.4959 30.9116 21.4959 30.5999C21.4959 30.2824 21.2538 30.025 20.9494 29.9809L20.8564 29.9742L16.298 29.9672L15.9853 29.9637C8.91658 29.8016 3.22617 24.16 3.22617 17.2215C3.22617 10.283 8.91658 4.64457 15.9853 4.48259L16.298 4.47901ZM62.4651 24.5344H43.4095V32.491C43.4095 34.7015 45.1899 36.5008 47.425 36.6079L47.6358 36.6129L66.3906 36.6055L66.3943 31.2252L50.2354 31.2251C50.1328 31.2222 49.0527 31.1666 48.9353 30.1123L48.9252 29.9465H62.4651V24.5344ZM116.742 24.9855L118.693 30.6594L114.775 30.6593L116.742 24.9855ZM47.6358 11.1597H66.4735V16.5851H50.2437L50.0742 16.5927C49.1576 16.6774 48.9723 17.4471 48.935 17.7373L48.9256 17.8473H62.4656V23.2483H43.4099L43.4165 15.2986L43.4217 15.092C43.5308 12.902 45.3668 11.1597 47.6358 11.1597Z" fill="white"/>
<path fill-rule="evenodd" clip-rule="evenodd" d="M135.323 7.66043C134.587 8.37698 133.605 8.77557 132.562 8.77557C131.522 8.77557 130.543 8.37698 129.811 7.66089C129.068 6.93744 128.661 5.98312 128.661 4.96245C128.661 2.86489 130.415 1.16223 132.562 1.16223C133.605 1.16223 134.587 1.56082 135.323 2.27368C136.059 2.99714 136.47 3.94823 136.47 4.96199C136.47 5.98266 136.059 6.93698 135.323 7.66043ZM130.193 2.64739C129.554 3.26624 129.211 4.09108 129.211 4.96153C129.211 5.83889 129.553 6.6605 130.193 7.27889C130.829 7.89774 131.672 8.23689 132.562 8.23689C134.416 8.23689 135.924 6.76878 135.924 4.96153C135.924 4.09108 135.574 3.26624 134.941 2.64739C134.305 2.029 133.462 1.69307 132.562 1.69307C131.672 1.69307 130.829 2.02854 130.193 2.64739Z" fill="white"/>
<path fill-rule="evenodd" clip-rule="evenodd" d="M131.561 7.07983V5.28317H132.676L133.859 7.07983H134.541L133.326 5.24815C133.333 5.24682 133.34 5.2454 133.348 5.24387C133.585 5.19718 134.355 5.04595 134.355 4.09108C134.355 3.6994 134.219 3.34643 133.894 3.11188C133.564 2.86797 133.216 2.86403 132.63 2.85739C132.62 2.85728 132.61 2.85717 132.601 2.85706H130.997V7.07983H131.561ZM132.708 4.81822H131.561V3.32569H132.676C132.688 3.32569 132.699 3.32568 132.711 3.32567C133.028 3.32544 133.301 3.32524 133.519 3.50402C133.766 3.69986 133.777 3.98279 133.777 4.09476C133.777 4.40212 133.634 4.68182 133.234 4.77629C133.062 4.81822 132.891 4.81822 132.708 4.81822Z" fill="white"/>
<path d="M455.193 96.7847C455.193 92.9678 454.496 89.3932 453.103 86.0611C451.709 82.6683 449.861 79.7602 447.559 77.3368C445.196 74.8528 442.5 72.914 439.471 71.5206C436.381 70.0665 433.2 69.3395 429.929 69.3395H395.486V81.4263H428.475C430.777 81.4263 432.837 81.8807 434.654 82.7894C436.472 83.6982 438.017 84.8796 439.289 86.3337C440.501 87.7877 441.44 89.4538 442.106 91.332C442.773 93.1495 443.106 94.9671 443.106 96.7847V131.046C443.106 132.863 442.773 134.711 442.106 136.589C441.44 138.407 440.501 140.043 439.289 141.497C438.017 142.951 436.472 144.132 434.654 145.041C432.837 145.95 430.777 146.404 428.475 146.404H395.486V158.491H429.929C433.2 158.491 436.381 157.794 439.471 156.401C442.5 154.947 445.196 153.008 447.559 150.585C449.861 148.101 451.709 145.192 453.103 141.86C454.496 138.467 455.193 134.863 455.193 131.046V96.7847ZM439.834 112.416V98.6022C439.834 97.027 439.592 95.4215 439.107 93.7857C438.562 92.0893 437.775 90.5747 436.745 89.2418C435.715 87.9089 434.412 86.8184 432.837 85.9702C431.262 85.122 429.414 84.6979 427.293 84.6979H395.486V96.7847H427.021C427.384 96.7847 427.778 96.9967 428.202 97.4208C428.566 97.8449 428.747 98.4205 428.747 99.1475V100.42H402.393V112.416H439.834ZM439.834 115.415H402.393V127.501H428.747V128.683C428.747 129.41 428.566 129.985 428.202 130.41C427.778 130.834 427.384 131.046 427.021 131.046H395.486V143.132H427.293C429.414 143.132 431.262 142.708 432.837 141.86C434.412 141.012 435.715 139.921 436.745 138.589C437.775 137.256 438.562 135.771 439.107 134.136C439.592 132.439 439.834 130.803 439.834 129.228V115.415Z" fill="white"/>
<path d="M59.7069 118.595L46.7113 83.7891C46.469 83.1832 45.954 82.638 45.1664 82.1533C44.3788 81.6686 43.5003 81.4263 42.531 81.4263C41.6828 81.4263 40.8043 81.6686 39.8955 82.1533C38.9867 82.638 38.4414 83.1832 38.2597 83.7891L12.0868 158.491H0L28.0813 79.2452C28.566 77.9729 29.2022 76.7612 29.9898 75.6101C30.7774 74.3984 31.7468 73.3381 32.8979 72.4293C34.1096 71.46 35.503 70.7026 37.0783 70.1574C38.6535 69.6121 40.4711 69.3395 42.531 69.3395C44.5909 69.3395 46.3781 69.6121 47.8928 70.1574C49.4074 70.7026 50.7403 71.46 51.8914 72.4293C53.0425 73.3381 54.0119 74.3984 54.7995 75.6101C55.6477 76.7612 56.3747 77.9729 56.9806 79.2452L59.7069 84.6979L62.4333 79.2452C63.0997 77.9729 63.8267 76.7612 64.6143 75.6101C65.4625 74.3984 66.4319 73.3381 67.5224 72.4293C68.6736 71.46 70.0064 70.7026 71.5211 70.1574C73.0357 69.6121 74.823 69.3395 76.8829 69.3395C78.8822 69.3395 80.6695 69.6121 82.2447 70.1574C83.8805 70.7026 85.274 71.46 86.4251 72.4293C87.6368 73.3381 88.6365 74.3984 89.4241 75.6101C90.2723 76.7612 90.9084 77.9729 91.3325 79.2452L119.414 158.491H107.327L81.1542 83.7891C80.9724 83.1832 80.4271 82.638 79.5183 82.1533C78.6096 81.6686 77.7311 81.4263 76.8829 81.4263C75.9135 81.4263 75.035 81.6686 74.2474 82.1533C73.4598 82.638 72.9448 83.1832 72.7025 83.7891L59.7069 118.595ZM59.7069 158.491L42.531 112.688L27.4452 158.491H15.3584L40.259 86.0611C40.3802 85.6975 40.6831 85.3946 41.1678 85.1523C41.6525 84.8493 42.1069 84.6979 42.531 84.6979C42.9551 84.6979 43.3792 84.8493 43.8032 85.1523C44.2879 85.3946 44.5909 85.6975 44.712 86.0611L59.7069 127.411L74.7018 86.0611C74.823 85.6975 75.0956 85.3946 75.5197 85.1523C76.0044 84.8493 76.4588 84.6979 76.8829 84.6979C77.307 84.6979 77.7614 84.8493 78.246 85.1523C78.7307 85.3946 79.0337 85.6975 79.1548 86.0611L104.055 158.491H92.423L76.8829 112.688L59.7069 158.491Z" fill="white"/>
<path d="M139.852 158.491C135.49 158.491 131.734 157.976 128.583 156.946C125.433 155.916 122.797 154.311 120.677 152.129C118.617 149.888 117.072 147.04 116.042 143.587C115.073 140.073 114.588 135.893 114.588 131.046V96.7847C114.588 91.7561 115.073 87.5151 116.042 84.0617C117.072 80.5478 118.617 77.7003 120.677 75.5192C122.797 73.3381 125.433 71.7629 128.583 70.7935C131.734 69.8242 135.49 69.3395 139.852 69.3395H151.485C155.907 69.3395 159.694 69.8242 162.844 70.7935C166.055 71.7629 168.691 73.3381 170.751 75.5192C172.811 77.7003 174.325 80.5478 175.295 84.0617C176.264 87.5151 176.749 91.7561 176.749 96.7847V131.046C176.749 135.893 176.264 140.073 175.295 143.587C174.325 147.04 172.811 149.888 170.751 152.129C168.691 154.311 166.055 155.916 162.844 156.946C159.694 157.976 155.907 158.491 151.485 158.491H139.852ZM152.757 146.404C155.059 146.404 156.998 146.101 158.573 145.495C160.148 144.829 161.421 143.92 162.39 142.769C163.42 141.618 164.147 140.255 164.571 138.679C165.056 137.104 165.298 135.408 165.298 133.59V94.2401C165.298 92.4225 165.056 90.7261 164.571 89.1509C164.147 87.5757 163.42 86.2125 162.39 85.0614C161.421 83.9103 160.118 83.0318 158.482 82.4259C156.907 81.7595 154.968 81.4263 152.666 81.4263H138.671C136.369 81.4263 134.399 81.7595 132.764 82.4259C131.188 83.0318 129.886 83.9103 128.856 85.0614C127.887 86.2125 127.16 87.5757 126.675 89.1509C126.251 90.7261 126.039 92.4225 126.039 94.2401V133.59C126.039 135.408 126.251 137.104 126.675 138.679C127.16 140.255 127.887 141.618 128.856 142.769C129.886 143.92 131.188 144.829 132.764 145.495C134.339 146.101 136.278 146.404 138.58 146.404H152.757ZM139.761 143.132C137.641 143.132 135.884 142.951 134.49 142.587C133.157 142.163 132.097 141.497 131.31 140.588C130.583 139.679 130.068 138.528 129.765 137.135C129.462 135.68 129.31 133.893 129.31 131.773V96.0576C129.31 94.4824 129.462 92.9981 129.765 91.6046C130.068 90.2111 130.613 88.9994 131.401 87.9695C132.188 86.9395 133.248 86.1519 134.581 85.6067C135.975 85.0008 137.732 84.6979 139.852 84.6979H151.485C153.605 84.6979 155.332 85.0008 156.665 85.6067C158.058 86.1519 159.149 86.9395 159.936 87.9695C160.724 88.9994 161.269 90.2111 161.572 91.6046C161.875 92.9981 162.026 94.4824 162.026 96.0576V131.773C162.026 133.893 161.875 135.68 161.572 137.135C161.269 138.528 160.724 139.679 159.936 140.588C159.209 141.497 158.149 142.163 156.756 142.587C155.423 142.951 153.696 143.132 151.575 143.132H139.761ZM148.576 131.046C149.303 131.046 149.758 130.834 149.94 130.41C150.182 129.985 150.303 129.41 150.303 128.683V99.1475C150.303 98.4205 150.182 97.8449 149.94 97.4208C149.758 96.9967 149.303 96.7847 148.576 96.7847H142.76C142.033 96.7847 141.549 96.9967 141.306 97.4208C141.124 97.8449 141.034 98.4205 141.034 99.1475V128.683C141.034 129.41 141.124 129.985 141.306 130.41C141.549 130.834 142.033 131.046 142.76 131.046H148.576Z" fill="white"/>
<path d="M216.877 146.404C219.179 146.404 221.118 146.101 222.693 145.495C224.268 144.829 225.541 143.92 226.51 142.769C227.54 141.618 228.267 140.255 228.691 138.679C229.176 137.104 229.418 135.408 229.418 133.59V94.2401C229.418 92.4225 229.176 90.7261 228.691 89.1509C228.267 87.5757 227.54 86.2125 226.51 85.0614C225.541 83.9103 224.238 83.0318 222.602 82.4259C221.027 81.7595 219.088 81.4263 216.786 81.4263H180.617V69.3395H215.605C220.027 69.3395 223.814 69.8242 226.965 70.7935C230.176 71.7629 232.811 73.3381 234.871 75.5192C236.931 77.7003 238.445 80.5478 239.415 84.0617C240.384 87.5151 240.869 91.7561 240.869 96.7847V131.046C240.869 135.893 240.384 140.073 239.415 143.587C238.445 147.04 236.931 149.888 234.871 152.129C232.811 154.311 230.176 155.916 226.965 156.946C223.814 157.976 220.027 158.491 215.605 158.491H180.617V99.6928H192.067V146.404H216.877ZM180.617 96.7847V84.6979H215.605C217.725 84.6979 219.452 85.0008 220.785 85.6067C222.178 86.1519 223.269 86.9395 224.056 87.9695C224.844 88.9994 225.389 90.2111 225.692 91.6046C225.995 92.9981 226.147 94.4824 226.147 96.0576V131.773C226.147 133.893 225.995 135.68 225.692 137.135C225.389 138.528 224.844 139.679 224.056 140.588C223.329 141.497 222.269 142.163 220.876 142.587C219.543 142.951 217.816 143.132 215.696 143.132H195.339V99.6928H208.062V128.683C208.062 130.258 208.819 131.046 210.334 131.046H212.333C213.06 131.046 213.636 130.834 214.06 130.41C214.544 129.985 214.787 129.41 214.787 128.683V99.1475C214.787 98.4205 214.544 97.8449 214.06 97.4208C213.636 96.9967 213.06 96.7847 212.333 96.7847H180.617Z" fill="white"/>
<path d="M244.338 96.7847C244.338 92.9678 245.035 89.3932 246.428 86.0611C247.822 82.6683 249.669 79.7602 251.972 77.3368C254.334 74.8528 257.03 72.914 260.06 71.5206C263.15 70.0665 266.33 69.3395 269.602 69.3395H304.045V81.4263H271.056C268.754 81.4263 266.694 81.8807 264.876 82.7894C263.059 83.6982 261.514 84.8796 260.242 86.3337C259.03 87.7877 258.091 89.4538 257.424 91.332C256.758 93.1495 256.425 94.9671 256.425 96.7847V131.046C256.425 132.863 256.758 134.711 257.424 136.589C258.091 138.407 259.03 140.043 260.242 141.497C261.514 142.951 263.059 144.132 264.876 145.041C266.694 145.95 268.754 146.404 271.056 146.404H304.045V158.491H269.602C266.33 158.491 263.15 157.794 260.06 156.401C257.03 154.947 254.334 153.008 251.972 150.585C249.669 148.101 247.822 145.192 246.428 141.86C245.035 138.467 244.338 134.863 244.338 131.046V96.7847ZM259.696 112.416V98.6022C259.696 97.027 259.939 95.4215 260.423 93.7857C260.969 92.0893 261.756 90.5747 262.786 89.2418C263.816 87.9089 265.119 86.8184 266.694 85.9702C268.269 85.122 270.117 84.6979 272.237 84.6979H304.045V96.7847H272.51C272.147 96.7847 271.753 96.9967 271.329 97.4208C270.965 97.8449 270.783 98.4205 270.783 99.1475V100.42H297.138V112.416H259.696ZM259.696 115.415H297.138V127.501H270.783V128.683C270.783 129.41 270.965 129.985 271.329 130.41C271.753 130.834 272.147 131.046 272.51 131.046H304.045V143.132H272.237C270.117 143.132 268.269 142.708 266.694 141.86C265.119 141.012 263.816 139.921 262.786 138.589C261.756 137.256 260.969 135.771 260.423 134.136C259.939 132.439 259.696 130.803 259.696 129.228V115.415Z" fill="white"/>
<path d="M367.677 158.491H333.234C329.963 158.491 326.782 157.794 323.692 156.401C320.663 154.947 317.967 153.008 315.604 150.585C313.302 148.101 311.454 145.192 310.06 141.86C308.667 138.467 307.97 134.863 307.97 131.046V69.3395H320.057V131.046C320.057 132.863 320.39 134.711 321.057 136.589C321.723 138.407 322.662 140.043 323.874 141.497C325.146 142.951 326.691 144.132 328.509 145.041C330.326 145.95 332.386 146.404 334.688 146.404H367.677V158.491ZM337.506 131.046H367.677V143.132H335.87C333.749 143.132 331.901 142.708 330.326 141.86C328.751 141.012 327.448 139.921 326.419 138.589C325.389 137.256 324.601 135.771 324.056 134.136C323.571 132.439 323.329 130.803 323.329 129.228V69.3395H335.779V128.683C335.779 129.41 335.961 129.985 336.324 130.41C336.748 130.773 337.142 130.955 337.506 130.955V131.046Z" fill="white"/>
</svg>
