<svg width="357" height="161" viewBox="0 0 357 161" fill="none" xmlns="http://www.w3.org/2000/svg">
<g clip-path="url(#clip0_3276_2855)">
<path d="M19.5333 153.533C19.5333 150.621 17.9333 149.443 14.9333 149.443H8.42167V152.31H14.1108C14.755 152.31 15.1775 152.51 15.1775 153.554C15.1775 154.466 14.8442 154.799 14.1333 154.799H7.42167C5.31084 154.799 4.73334 154.333 4.73334 150.954C4.73334 147.733 5.28834 147.11 7.42167 147.11H18.8442V143.688H4.42167C1.5775 143.688 0 145.354 0 148.11V153.799C0 156.554 1.5775 158.221 4.42167 158.221H14.9342C17.9342 158.221 19.5333 156.754 19.5333 153.533ZM40.6342 153.799V148.11C40.6342 145.354 39.0342 143.688 36.2117 143.688H21.79V147.11H33.19C35.345 147.11 35.8784 147.733 35.8784 150.954C35.8784 154.333 35.3008 154.799 33.19 154.799H26.4783C25.7675 154.799 25.4342 154.466 25.4342 153.554C25.4342 152.51 25.8567 152.31 26.5008 152.31H34.9675V149.443H25.6783C22.6783 149.443 21.1008 150.621 21.1008 153.533C21.1008 156.754 22.6783 158.221 25.6783 158.221H36.2117C39.0342 158.221 40.6342 156.554 40.6342 153.799ZM68.6484 158.221V148.11C68.6484 145.354 67.07 143.688 64.2259 143.688H41.915V158.221H46.7592V148.354C46.7592 147.243 46.8925 147.11 47.8034 147.11H51.8259C52.715 147.11 52.87 147.243 52.87 148.354V158.221H57.6925V148.354C57.6925 147.243 57.8484 147.11 58.7367 147.11H62.7592C63.67 147.11 63.8034 147.243 63.8034 148.354V158.221H68.6484ZM89.7817 148.377C89.7817 145.154 88.1817 143.688 85.1817 143.688H74.67C71.8259 143.688 70.2484 145.354 70.2484 148.11V153.799C70.2484 156.554 71.8259 158.221 74.67 158.221H89.0925V154.799H77.67C75.5367 154.799 74.9817 154.177 74.9817 150.977C74.9817 147.599 75.5592 147.11 77.67 147.11H84.3817C85.0925 147.11 85.4259 147.443 85.4259 148.354C85.4259 149.399 85.0034 149.599 84.3592 149.599H75.915V152.466H85.1817C88.1817 152.466 89.7817 151.288 89.7817 148.377ZM134.058 153.799V148.11C134.058 145.354 132.481 143.688 129.658 143.688H118.925C116.081 143.688 114.503 145.354 114.503 148.11V153.799C114.503 156.554 116.081 158.221 118.925 158.221H129.658C132.481 158.221 134.058 156.554 134.058 153.799ZM129.325 150.954C129.325 154.377 128.703 154.799 126.636 154.799H121.925C119.814 154.799 119.236 154.333 119.236 150.954C119.236 147.733 119.792 147.11 121.925 147.11H126.636C128.703 147.11 129.325 147.599 129.325 150.954ZM151.883 158.221V154.799H143.228C141.147 154.799 140.577 154.333 140.577 150.954C140.577 147.733 141.124 147.11 143.228 147.11H151.883V143.688H140.27C137.465 143.688 135.909 145.354 135.909 148.11V153.799C135.909 156.554 137.465 158.221 140.27 158.221H151.883ZM173.27 143.659L167.616 143.688L164.678 149.799C164.339 150.503 164.43 150.843 163.596 150.843H159.643V154.466H163.748C164.559 154.466 164.673 154.554 164.92 155.421L166.878 158.221H172.458L168.968 154.104C168.241 152.824 168.165 152.803 169.158 151.138L173.27 143.659ZM158.607 158.221V141.199H153.694V158.221H158.607Z" fill="white"/>
<path d="M192.449 148.377C192.449 145.155 190.849 143.688 187.849 143.688H177.338C174.493 143.688 172.916 145.355 172.916 148.11V153.8C172.916 156.555 174.493 158.221 177.338 158.221H191.761V154.8H180.338C178.205 154.8 177.649 154.177 177.649 150.977C177.649 147.6 178.227 147.11 180.338 147.11H187.049C187.761 147.11 188.094 147.444 188.094 148.355C188.094 149.4 187.672 149.6 187.028 149.6H178.583V152.466H187.849C190.849 152.466 192.449 151.288 192.449 148.377ZM202.482 158.221V154.8H200.727C198.838 154.8 198.482 154.355 198.482 152.333V147.11H202.482V143.688H198.482V141.2H193.638V153.8C193.638 156.555 195.215 158.221 198.06 158.221H202.482ZM224.699 158.221V154.8H216.044C213.963 154.8 213.393 154.333 213.393 150.955C213.393 147.733 213.941 147.11 216.044 147.11H224.699V143.688H213.086C210.282 143.688 208.726 145.355 208.726 148.11V153.8C208.726 156.555 210.282 158.221 213.086 158.221H224.699ZM246.059 153.8V148.11C246.059 145.355 244.482 143.688 241.659 143.688H230.926C228.082 143.688 226.504 145.355 226.504 148.11V153.8C226.504 156.555 228.082 158.221 230.926 158.221H241.659C244.482 158.221 246.059 156.555 246.059 153.8ZM241.326 150.955C241.326 154.377 240.704 154.8 238.638 154.8H233.926C231.815 154.8 231.238 154.333 231.238 150.955C231.238 147.733 231.793 147.11 233.926 147.11H238.638C240.704 147.11 241.326 147.599 241.326 150.955ZM274.245 158.221V147.852C274.245 145.025 272.667 143.316 269.823 143.316H247.512V158.222H252.356V148.102C252.356 146.963 252.489 146.826 253.4 146.826H257.423C258.312 146.826 258.467 146.963 258.467 148.102V158.222H263.289V148.102C263.289 146.963 263.445 146.826 264.333 146.826H268.356C269.267 146.826 269.4 146.963 269.4 148.102V158.222L274.245 158.221ZM295.588 153.575V147.7C295.588 144.855 293.973 143.134 291.088 143.134H280.111C277.203 143.134 275.588 144.855 275.588 147.7V160.71H280.543V149.215C280.543 147.127 280.906 146.668 282.838 146.668H287.997C290.11 146.668 290.747 147.173 290.747 150.637C290.747 154.17 290.11 154.607 287.997 154.607H281.338V158.14H291.088C293.973 158.14 295.588 156.42 295.588 153.574V153.575ZM316.021 153.575V143.135H311.068V152.06C311.068 154.148 310.704 154.607 308.772 154.607H304.022C302.091 154.607 301.727 154.149 301.727 152.06V143.135H296.773V153.575C296.773 156.42 298.386 158.141 301.295 158.141H311.499C314.408 158.141 316.021 156.42 316.021 153.575ZM325.815 158.221V154.649H324.06C322.171 154.649 321.815 154.185 321.815 152.074V146.622H325.815V143.05H321.815V140.451H316.971V153.605C316.971 156.481 318.548 158.221 321.393 158.221H325.815ZM346.52 147.943C346.52 144.578 344.92 143.047 341.92 143.047H331.409C328.564 143.047 326.987 144.787 326.987 147.664V153.604C326.987 156.481 328.564 158.221 331.409 158.221H345.831V154.648H334.409C332.276 154.648 331.72 153.998 331.72 150.657C331.72 147.13 332.298 146.62 334.409 146.62H341.12C341.831 146.62 342.164 146.968 342.164 147.92C342.164 149.01 341.743 149.219 341.098 149.219H332.653V152.212H341.92C344.92 152.212 346.52 150.982 346.52 147.943ZM356.551 146.62V143.047H352.128C349.284 143.047 347.706 144.787 347.706 147.664V158.222H352.551V149.195C352.551 147.084 352.906 146.62 354.795 146.62H356.551ZM112.925 148.906C112.925 144.975 110.398 143.398 107.939 143.398H99.1867C96.2992 143.398 94.6975 145.112 94.6975 147.946V158.415H99.615V148.198C99.615 147.054 99.7508 146.918 100.676 146.918H106.09C107.376 146.918 108.143 147.489 108.143 148.838C108.143 150.186 107.376 150.803 106.09 150.803H100.563V154.392H107.939C110.398 154.392 112.925 152.838 112.925 148.906Z" fill="white"/>
<path d="M28.2832 1.35156C28.0622 1.35156 27.8503 1.43936 27.694 1.59564C27.5377 1.75192 27.4499 1.96388 27.4499 2.1849V4.9474L26.7599 5.75657H22.6566C22.4356 5.75657 22.2236 5.84436 22.0673 6.00064C21.911 6.15692 21.8232 6.36889 21.8232 6.5899C21.8232 6.81091 21.911 7.02288 22.0673 7.17916C22.2236 7.33544 22.4356 7.42323 22.6566 7.42323H26.5207L27.4499 8.27073V19.1149C27.4499 19.3359 27.5377 19.5479 27.694 19.7042C27.8503 19.8604 28.0622 19.9482 28.2832 19.9482C28.5043 19.9482 28.7162 19.8604 28.8725 19.7042C29.0288 19.5479 29.1166 19.3359 29.1166 19.1149V8.25157L30.0182 7.4224H34.6874C34.9084 7.4224 35.1204 7.3346 35.2767 7.17832C35.433 7.02204 35.5207 6.81008 35.5207 6.58907C35.5207 6.36805 35.433 6.15609 35.2767 5.99981C35.1204 5.84353 34.9084 5.75573 34.6874 5.75573H29.9441L29.1166 4.8974V2.1849C29.1166 1.96388 29.0288 1.75192 28.8725 1.59564C28.7162 1.43936 28.5043 1.35156 28.2832 1.35156Z" fill="white"/>
<path d="M33.3916 3.51563C34.082 3.51563 34.6416 2.95598 34.6416 2.26563C34.6416 1.57527 34.082 1.01562 33.3916 1.01562C32.7012 1.01562 32.1416 1.57527 32.1416 2.26563C32.1416 2.95598 32.7012 3.51563 33.3916 3.51563Z" fill="white"/>
<path d="M33.3901 2.12109V6.51443" stroke="white" stroke-width="1.25" stroke-linecap="round" stroke-linejoin="round"/>
<path d="M46.8367 17.1234C52.5851 15.5984 52.6034 11.2967 53.1284 7.21008M48.4492 6.68425C48.4542 7.46258 48.4451 8.21091 48.7201 9.55925M43.8301 7.60425C44.1209 7.91508 44.4084 8.11758 44.7667 10.5376M66.4634 5.25925L74.1926 4.90675C73.2651 11.2759 70.6893 15.8218 65.2559 17.9509M63.0601 10.0259C64.5709 8.29925 66.0793 6.87925 67.3859 2.39258" stroke="white" stroke-width="1.66667" stroke-linecap="round" stroke-linejoin="round"/>
<path d="M84.3359 0.716804C84.1152 0.715917 83.9032 0.802637 83.7463 0.957933C83.5894 1.11323 83.5006 1.32441 83.4993 1.54514L83.4868 4.13931C82.8126 4.28097 82.1543 4.52431 81.5643 4.99014C81.4784 5.05799 81.4067 5.14209 81.3533 5.23765C81.2999 5.33321 81.2658 5.43836 81.253 5.54708C81.2403 5.6558 81.249 5.76597 81.2788 5.87131C81.3087 5.97664 81.3589 6.07507 81.4268 6.16097C81.4946 6.24688 81.5787 6.31858 81.6743 6.37198C81.7698 6.42539 81.875 6.45944 81.9837 6.47221C82.0924 6.48498 82.2026 6.47621 82.3079 6.4464C82.4133 6.41659 82.5117 6.36632 82.5976 6.29847C82.8768 6.07847 83.1834 6.05681 83.4768 5.94597L83.4543 10.3601C82.8801 11.0576 82.3593 11.6726 81.2434 12.8451C81.1448 12.9488 81.0744 13.0761 81.0392 13.2148C81.0041 13.3536 81.0052 13.499 81.0425 13.6372C81.0799 13.7753 81.1522 13.9015 81.2525 14.0037C81.3528 14.1058 81.4776 14.1803 81.6151 14.2201C82.2593 14.4085 82.8668 14.3535 83.4343 14.2035L83.4101 19.0543C83.4088 19.2753 83.4953 19.4878 83.6506 19.645C83.806 19.8023 84.0174 19.8913 84.2384 19.8926C84.4595 19.894 84.6719 19.8074 84.8292 19.6521C84.9864 19.4968 85.0754 19.2853 85.0768 19.0643L85.1076 13.0535C85.3193 12.831 85.5343 12.8476 85.6909 12.5993C85.9801 12.8343 86.2609 12.8701 86.6068 13.0768C86.7009 13.1328 86.8051 13.1697 86.9135 13.1854C87.0219 13.2011 87.1322 13.1953 87.2384 13.1683C87.3445 13.1413 87.4443 13.0937 87.532 13.0282C87.6198 12.9627 87.6937 12.8805 87.7497 12.7864C87.8057 12.6923 87.8426 12.5881 87.8583 12.4797C87.874 12.3713 87.8682 12.2609 87.8412 12.1548C87.8142 12.0487 87.7666 11.9489 87.7011 11.8611C87.6356 11.7734 87.5534 11.6995 87.4593 11.6435C87.3493 11.5785 86.8443 11.1676 86.4459 10.8626C86.2459 10.711 86.1251 10.5818 85.7868 10.4576C85.7451 10.4426 85.6559 10.4393 85.5959 10.4268C85.6176 10.3935 85.6676 10.356 85.6884 10.3226C85.7934 9.33597 86.3918 8.32597 86.9301 6.99264C87.1226 6.51431 87.2218 6.11431 87.2718 5.41764C87.304 5.2354 87.2746 5.04761 87.1883 4.8839C87.102 4.72018 86.9637 4.58985 86.7951 4.51347C86.2701 4.27514 85.7076 4.27347 85.1534 4.19764L85.1659 1.55264C85.1666 1.33177 85.0796 1.11967 84.9239 0.962942C84.7683 0.806217 84.5568 0.717686 84.3359 0.716804Z" fill="white"/>
<path d="M88.8333 6.89982L94.5458 6.92565M88.1716 17.8715L94.9591 17.839M91.5341 2.07065L91.3758 17.729M108.921 3.54649C108.257 8.32982 107.997 13.249 104.882 16.6815C102.483 18.8948 99.4366 4.82732 108.017 2.88149C118.448 3.47315 114.166 17.2948 110.004 17.714M122.934 6.93232L133.122 6.82565L132.955 14.9557C132.477 17.369 131.264 16.9173 130.292 17.1973M123.084 17.259C126.337 14.6365 128.117 12.6323 127.837 2.10815M141.68 6.53399H153.251C152.967 8.52399 151.867 10.3057 149.856 11.8548M145.032 1.82232V14.894C145.08 15.8107 144.944 16.9865 147.204 16.9007L153.298 16.7948M166.407 16.9198C172.156 15.3948 172.175 11.0932 172.699 7.00649M168.02 6.48149C168.025 7.25899 168.016 8.00732 168.291 9.35649M163.401 7.40065C163.692 7.71149 163.979 7.91482 164.338 10.334M184.199 7.65065C186.004 8.03399 188.707 9.59732 193.208 13.5232M184.212 19.1507V1.26565M202.287 16.9007L207.72 15.6023M205.228 9.55232L205.284 15.6715M202.47 9.63815L207.343 9.51566M209.778 0.833984C210.799 11.6373 211.15 17.2057 212.733 17.8673C213.924 16.9465 214.532 16.1673 214.976 14.6657L214.66 13.804M201.778 4.94815L214.114 4.91065C214.345 3.91565 214.282 2.92065 213.772 1.92565M230.02 6.54982L229.412 11.7098C227.848 15.5457 226.354 15.7432 224.836 17.2598M224.578 5.91815L233.65 6.22482M221.393 10.0282C222.904 8.30065 224.413 6.88065 225.719 2.39398M241.064 9.20566H254.006M269.889 8.78815L273.998 17.6457M272.589 15.0773C268.706 15.5573 265.042 16.354 260.865 16.3957M266.332 2.18398C265.419 7.30065 263.713 11.5532 262.404 16.2382M282.749 16.8248C288.146 16.3465 292.629 10.9665 292.768 6.38399M283.097 3.23732C283.719 3.70399 284.309 4.16399 285.549 4.76149M281.493 8.21399C281.918 8.25149 282.267 8.21066 284.148 9.77232M307.143 10.7323L312.523 16.874M302.018 3.46565L309.943 3.25315C309.175 8.16315 306.278 12.5798 301.59 16.5573M327.52 8.91399C327.947 13.1532 326.108 17.2398 323.644 17.439M320.689 8.34399H333.078M322.302 3.17732H331.247M341.784 16.2215L345.707 2.18315C344.794 7.29482 343.093 11.5432 341.784 16.2215ZM341.784 16.2215L340.239 16.3957C344.416 16.354 348.081 15.5582 351.964 15.0773L341.784 16.2215ZM349.264 8.78815L353.373 17.6457" stroke="white" stroke-width="1.66667" stroke-linecap="round" stroke-linejoin="round"/>
<path d="M22.3843 17.3175C23.4701 15.2908 24.4943 13.2258 25.2376 10.9825M31.7959 10.9316C32.4043 13.42 33.2476 15.3166 34.1301 17.1141" stroke="white" stroke-width="1.66667" stroke-linecap="round" stroke-linejoin="round"/>
<path d="M3.05504 5.06836H13.9909M8.41004 5.19086V16.0259M1.82837 16.1434H15.0592" stroke="white" stroke-width="1.66667" stroke-linecap="round" stroke-linejoin="round"/>
<path d="M230.926 2.32792L233.729 2.68125L233.935 1.65625M231.4 2.72542L231.487 5.73209" stroke="white" stroke-width="1.25" stroke-linecap="round" stroke-linejoin="round"/>
<path d="M30.2516 122.404L29.9208 122.407L30.7741 121.816L32.195 120.392L30.2033 119.1L31.225 117.044L30.1366 115.965L30.1658 116.565L27.1558 119.157L23.4525 120.282L22.5708 121.067L22.7108 120.602L21.3258 118.674L21.3466 116.975L21.945 118.906L22.7033 117.662L25.8416 115.377L28.4233 113.625L28.5541 112.211L28.85 112.196L28.7141 110.414L29.9533 106.03L30.1158 107.115L32.5366 107.428L32.0616 103.021L33.4883 100.505L34.8591 100.867L33.9658 101.781L35.5841 101.193L34.5391 101.241L35.2925 99.0366L36.91 97.0216L39.3325 92.4166L40.3991 87.0841L38.2783 85.9091L37.095 84.7149L36.96 85.4449L37.6566 85.4249L37.5575 85.2607L38.2333 82.5274L36.9958 79.3607L37.1258 76.3666L35.7108 75.6032L34.4575 75.7491L34.1408 77.4624L32.6408 79.2482L34.5783 79.1024L33.0241 80.3857L31.7575 84.6616L29.1308 88.2099L26.6308 88.9049L25.2966 88.6107L23.8191 86.9774L23.8058 87.0416L22.8058 86.7066L20.2916 88.7857L19.8433 88.1082L20.7325 89.7432L18.1241 90.2899L17.0925 88.8666L17.3941 87.5441L15.9983 87.1916L16.0758 86.1782L16.8991 85.5907L19.1975 82.7382L19.5216 79.2966L20.5216 77.5049L20.9533 79.5591L21.0266 73.2632L22.2383 69.6999L20.9141 67.7249L22.3433 65.3632L22.7533 64.8132L23.0466 60.9157L23.2891 60.6457L25.0316 57.4266L23.3566 59.2374L22.9966 58.6582L21.5383 55.404L22.8175 54.4415L22.7558 53.924L23.44 53.7115L24.9983 52.8907L26.195 51.2449L23.0866 50.2215L22.315 48.3007L22.1766 48.734L23.3908 45.9607L24.5625 45.0024L28.1941 42.8224L29.5108 42.4607L30.7775 40.7799L33.4708 41.6399L35.2625 42.1265L36.4841 44.5065L38.6741 43.9982L38.2641 46.9382L37.9016 47.4799L38.65 47.6165L38.8983 46.6199L40.4358 49.1032L43.6691 51.3765L43.5041 51.6182L42.7966 51.3099L40.305 53.914L37.0358 56.1224L39.1941 57.1065L40.345 57.4607L39.935 58.9774L41.9366 56.7782L50.4225 56.8307L58.9025 56.7715L60.685 56.3874L62.6033 55.9457L62.3216 57.2824L62.0091 57.3766L63.1091 60.5016L63.9566 61.7249L64.1458 64.2741L64.5167 65.4249L64.5717 65.1999L64.665 69.6182L59.2358 67.9974L54.7641 68.2407L55.945 70.7849L53.6491 69.1532L54.9475 68.2082L56.1225 70.0866L55.2875 72.0174L56.465 72.9174L53.95 72.6041L53.4958 72.3616L53.08 73.4832L53.5908 75.2666L52.4883 83.1757L53.4483 91.2249L52.8483 94.7232L52.8783 98.5949L51.2741 100.751L51.2575 103.886L49.1341 105.94L46.7716 110.642L43.3433 114.127L39.72 119.043L36.36 121.479L32.9116 122.638L32.2666 119.798L30.9916 120.788L31.79 122.554L31.655 124.104L30.2516 122.404ZM293.852 120.257L292.58 120.296L291.206 118.78L287.038 115.349L287.479 112.482L286.978 110.246L287.691 107.044L288.166 104.011L289.426 104.502L286.083 103.959L288.16 101.334L289.61 96.3907L288.336 97.8541L289.435 96.6382L293.852 93.4091L295.152 92.4774L300.902 91.6316L306.207 93.0474L305.126 92.4791L306.557 89.7357L308.314 90.5641L312.207 88.6982L312.739 86.6199L316.443 83.5424L318.409 84.5524L319.882 82.5749L321.843 80.3482L323.911 78.4407L327.261 78.0691L329.378 77.9591L329.698 77.5241L328.04 75.6624L333.125 73.1141L336.369 70.5641L338.105 71.8957L338.162 72.3757L336.518 74.5232L334.668 75.3574L334.672 75.0874L334.739 76.8782L337.524 76.3982L337.095 76.0382L338.272 77.1832L339.729 77.2966L337.493 78.9357L335.963 83.4816L335.718 84.5841L334.075 85.3916L332.86 84.7432L329.42 85.7707L329.404 86.0524L329.932 86.7024L329.545 89.5882L329.469 91.6874L326.862 93.2382L324.359 91.4541L326.292 92.1424L325.307 94.5182L323.8 94.6449L324.825 97.4782L322.991 97.2774L320.043 97.2057L317.168 100.872L313.263 105.997L311.136 106.814L311.128 107.066L309.683 107.737L307.747 109.479L308.51 110.116L308.518 109.86L307.202 110.608L306.05 111.282L303.055 115.824L301.3 117.876L299.768 118.346L295.826 120.402L294.698 119.479L293.852 120.257ZM161.455 118.927L160.178 119.661L160.331 117.611L159.383 117.665L160.148 112.267L159.94 108.463L159.948 105.935L161.008 103.451L160.628 102.557L160.017 101.883L159.796 94.2732L160.566 88.2932L159.788 86.2057L158.586 86.0491L157.659 88.1516L156.595 89.6874L156.153 92.2857L155.31 95.3891L155.034 98.8241L154.127 99.3207L152.212 99.7949L151.585 99.9516L150.264 99.7491L150.43 102.751L150.183 103.064L150.078 104.29L151.624 104.583L150.803 105.437L152.011 102.342L150.923 101.817L152.907 101.41L153.153 103.006L150.801 104.943L149.44 109.549L149.918 110.522L149.286 112.711L149.224 115.184L147.976 116.792L146.483 117.592L144.562 115.997L145.341 114.342L144.274 113.641L143.56 112.847L144.168 111.239L143.796 110.028L141.892 109.986L141.121 105.712L141.016 103.492L140.911 103.484L141.306 104.441L142.478 100.809L142.059 98.4324L143.758 97.9616L145.113 95.9266L144.853 95.2691L146.636 92.0149L145.407 90.9416L143.172 88.0691L144.258 86.5191L144.954 82.2291L146.744 80.8482L148.848 79.1291L149.019 77.4191L147.975 75.9841L144.878 75.2282L143.873 76.2916L140.552 74.6707L138.157 71.2107L139.778 67.2624L138.435 61.6374L141.386 61.0132L142.532 59.2541L142.263 59.2982L142.456 58.6407L142.253 59.3032L145.375 58.5507L145.392 57.4566L144.171 56.0349L151.811 57.1682L160.066 56.1699L158.998 53.8015L157.958 50.7815L157.593 51.1099L155.007 49.9382L155.521 47.4532L155.522 45.339L157.19 43.2499L159.225 42.5307L162.225 40.9949L165.358 38.1874L165.188 38.179L166.959 36.154L167.563 37.2732L168.545 38.6149L167.615 39.2432L167.28 39.0332L170.906 41.1557L172.123 42.6699L173.385 44.089L175.405 48.2665L175.112 51.4749L172.444 53.8315L174.063 54.5274L175.21 55.3824L175.898 55.7691L178.535 53.7024L180.568 52.9782L182.084 53.714L185.301 53.5057L190.285 56.8124L192.27 58.7291L190.808 57.4707L192.29 60.0274L193.941 62.4649L193.148 63.3899L193.517 63.9366L192.194 62.9824L192.91 64.1732L189.597 66.9241L189.281 70.6999L189.231 69.2074L188.277 70.0516L188.829 70.3516L188.843 72.2599L186.112 70.1582L183.53 70.6274L185.746 72.3216L183.406 73.0966L178.703 73.1241L174.779 72.9607L173.871 73.0691L172.707 74.2899L174.27 77.0299L173.413 80.1732L172.105 90.0216L173.046 96.0974L172.227 100.062L171.059 103.084L171.585 104.954L171.908 110.195L170.833 112.865L170.66 118.282L169.225 117.448L167.038 116.457L165.89 116.837L164.717 116.709L164.078 112.185L162.871 109.486L163.379 108.022L163.119 109.766L162.119 112.029L161.805 112.825L161.691 115.342L161.467 119.121L161.455 118.927ZM158.258 79.4832L159.141 79.3157L161.053 77.4666L160.118 75.4557L159.548 74.9632L157.248 72.9141L153.263 74.8332L150.047 74.8557L150.071 74.8941L150.176 74.9107L150.9 75.5807L151.349 77.2099L152.869 76.9282L155.661 77.5099L156.335 79.0791L158.376 79.2632L157.846 79.7999L158.258 79.4832ZM204.049 118.281L202.401 119.507L201.512 116.237L201.601 114.212L204.823 110.386L207.495 102.269L208.427 103.481L205.15 102.616L209.691 100.232L210.768 98.1724L212.153 96.0982L211.757 95.9574L212.25 93.9374L212.907 93.2182L214.137 84.6416L215.37 75.9982L214.278 74.4741L215.1 72.8791L211.937 73.1316L210.418 73.4007L209.21 73.6749L206.903 75.7774L207.053 76.6241L207.234 77.1424L205.763 79.6074L205.423 80.4499L202.55 83.1541L203.515 86.2966L201.41 86.0941L199.934 86.3024L199.597 85.3474L200.201 84.2316L199.02 82.9282L199.622 80.0374L200.438 78.4149L202.158 76.3341L201.03 75.7241L200.661 74.4549L198.963 77.1749L196.689 79.7724L195.255 78.1149L193.486 79.1899L195.639 74.2791L198.406 71.0766L199.438 68.0907L196.853 65.7657L198.193 66.5174L200.635 65.0532L199.493 61.6957L199.84 57.0949L201.051 57.3782L200.712 57.6766L201.622 53.909L201.248 49.2507L204.921 48.3257L205.311 46.8274L208.277 45.049L212.571 44.9957L214.343 44.674L215.958 45.5807L214.661 45.9874L218.327 44.6282L218.853 46.9215L219.386 47.9165L220.023 52.4115L220.11 54.4716L218.92 55.6207L216.703 56.8791L218.284 58.9041L217.098 59.9157L218.422 58.2349L219.712 58.8116L220.672 58.8399L217.684 60.1424L220.468 57.7374L222.695 57.4499L229.941 56.6199L238.702 56.6865L237.678 58.8291L237.505 57.3641L235.888 59.6765L234.973 58.994L234.638 60.8257L236.199 64.0207L234.54 63.9299L232.089 66.2066L234.077 68.0116L238.398 67.6832L238.198 69.0132L238.977 70.6391L238.264 70.1207L238.923 71.7332L233.664 71.3416L229.716 73.3382L228.938 72.6107L228.55 73.8857L227.844 76.3057L229.796 79.2349L229.353 78.7799L227.383 78.0682L226.188 83.0207L226.884 85.8074L225.157 90.4882L225.152 92.1607L224.968 93.1949L227.165 94.7966L226.292 95.7299L226.663 96.7782L222.851 98.5641L221.171 100.427L221.681 101.292L222.253 102.519L221.282 102.543L221.187 104.312L220.638 105.276L222.055 104.185L219.128 106.187L217.646 109.774L216.504 110.871L218.205 112.369L215.573 112.196L215.783 113.123L213.123 114.717L212.056 114.757L210.4 115.502L212.1 117.775L208.648 119.024L207.543 118.601L205.975 117.399L207.164 114.829L205.019 116.622L204.062 117.007L204.879 118.194L204.043 118.689L203.172 118.417L204.049 118.281ZM252.868 116.958L250.947 116.974L250.476 117.703L248.667 117.276L246.504 113.731L243.408 112.035L244.444 108.277L245.25 108.176L241.449 107.192L242.216 107.647L243.737 104.546L244.823 103.226L244.666 102.992L244.865 101.632L244.054 103.591L240.43 104.129L242.207 101.826L243.147 99.4282L244.341 97.3166L244.431 98.3474L246.667 96.9166L248.713 96.2941L256.566 95.4032L266.488 96.9407L266.903 95.8174L269.612 96.1307L266.575 93.1724L266.413 92.1166L268.393 85.3716L267.673 78.5666L268.759 78.0991L268.798 76.5457L267.933 74.9166L264.699 72.3582L263.889 72.5857L261.626 72.7441L261.423 74.9091L258.93 75.1799L257.988 73.3116L257.012 73.1149L256.163 74.2399L258.688 74.5649L254.738 75.3682L252.603 76.0149L250.307 77.4532L248.613 76.7032L245.388 74.9599L244.069 76.9916L243.794 74.6557L245.038 71.8891L243.83 72.4366L242.882 69.9999L244.13 69.0341L243.713 69.0491L243.36 67.2991L240.611 68.1116L242.008 64.4482L242.633 60.9457L246.994 58.0665L248.283 55.5507L251.268 54.3566H252.628L255.239 55.6215L257.607 56.8999L264.328 56.0607L273.093 57.2124L271.535 55.7607L272.299 55.3607L278.405 55.4107L281.313 55.0557L282.03 58.404L282.771 60.7166L284.311 63.7057L285.63 64.3641L285.035 68.4324L285.153 69.9657L283.309 72.0482L281.467 75.4532L281.075 81.9382L281.851 86.4749L280.118 87.3191L280.028 88.3974L279.787 90.2674L278.899 90.9941L280.776 94.3724L280.219 95.6224L282.061 98.5982L283.882 99.7624L283.747 100.648L283.865 102.127L283.562 106.479L281.859 112.305L280.339 112.812L278.829 114.599L274.543 112.909L269.443 112.724L267.218 113.939L264.586 112.857L261.303 113.976L255.981 114.486L254.798 114.681L253.663 118.385L253.544 116.193L252.868 116.958ZM273.526 95.0757L276.16 96.7716L274.34 95.7391L274.922 93.2224L273.79 94.9807L272.558 93.6232L274.252 94.3649L273.777 95.3841L273.526 95.0757ZM276.233 91.5941L275.625 91.1407L275.963 88.3791L275.712 85.7932L275.199 85.1641L274.23 84.7024L274.683 85.4674L274.839 88.5549C274.199 89.2232 276.32 90.0349 272.919 90.5599L275.147 91.2499L276.233 91.5941ZM188.609 115.069L187.633 115.113L188.395 111.694L187.886 110.937L187.063 110.767L185.523 111.622L184.54 109.567L182.045 108.075L183.377 106.618L184.557 106.018L183.672 104.483L182.208 104.849L181.622 103.831L181.709 100.633L179.258 98.7541L178.66 96.7266L179.55 96.6299L180.443 97.1141L178.428 94.0916L177.605 91.0957L176.497 92.0907L176.963 91.4582L175.566 85.6941L176.976 81.2116L179.16 79.0591L180.896 76.6932L182.543 78.3774L183.727 80.4449L186.872 78.7432L188.114 78.9616L189.073 79.8724L190.511 80.7057L192.208 84.5599L190.72 87.7224L192.213 95.6541L192.242 101.372L194.44 103.817L194.288 106.312L191.103 109.009L188.803 111.42L190.815 113.875L189.686 112.687L189.609 113.649L188.609 115.069ZM96.4908 111.953L92.4425 111.592L92.5558 110.877L90.6575 110.191L89.5233 108.93L90.4058 107.148L88.7358 107.903L88.1233 106.802L87.5133 106.182L86.5308 105.787L86.8708 103.646L88.0633 101.455L89.2592 100.142L90.9075 97.5307L90.325 98.7674L87.805 96.8007L90.8442 95.7532L91.0483 94.9782L93.79 93.1074L94.8558 93.5941L95.6492 90.0191L98.3967 88.0482L98.6283 86.6241L99.0525 84.6391L99.1208 83.8982L101.007 82.3232L100.053 78.5666L100.951 74.6966L101.94 68.6774L102.96 61.0774L102.97 58.7007L104.123 58.184L104.608 57.4007L103.379 54.3541L104.861 49.8215L108.237 45.7549L109.468 45.179L112.527 45.8415L113.664 45.0524L117.057 44.3524L117.16 46.8307L115.838 47.7682L116.205 49.7849L115.248 51.0665L115.754 51.8249L116.05 52.4024L118.391 50.0165L120.154 49.1657L121.007 52.0474L123.052 52.4724L123.802 53.594L122.913 55.0724L123.538 56.899L123.369 57.6282L122.189 61.9174L121.107 63.4866L120.613 61.3899L122.416 60.8716L120.758 62.1491L118.473 64.2849L117.81 67.9266L117.268 70.0566L117.658 69.0699L115.099 70.0274L114.812 71.3941L115.176 70.8466L116.623 71.7457L117.263 73.0716L116.308 73.5891L116.507 75.6224L114.973 76.3274L113.345 79.0082L112.993 80.6049L112.322 81.0499L111.196 84.7341L109.741 87.9066L110.465 88.9257L110.325 89.8899L108.832 90.9641L108.341 90.7366L107.223 92.1782L108.173 94.7216L110.822 92.7974L113.281 94.2032L115.406 93.5707L116.652 92.8332L118.804 91.3691L116.903 91.0732L118.833 89.5107L119.058 88.1107L117.987 86.6832L115.859 85.5907L117.089 83.7291L119.052 80.3441L121.465 78.4149L122.693 77.5974L125.982 77.6599L129.166 76.3516L131.533 80.6032L133.374 84.1257L134.625 87.6732L133.023 91.2141L134.258 93.9549L135.631 94.1732L135.886 96.8357L137.088 100.176L136.883 101.002L138.503 102.267L136.818 105.516L137.304 109.023L134.131 108.885L133.575 108.767L132.661 111.285L132.287 111.142L129.478 111.256L126.26 111.832L124.066 110.322L123.252 110.587L122.696 108.58L124.019 107.682L123.408 108.707L121.663 107.796L120.828 105.319L122.689 104.255L118.849 103.992L118.669 104.197L118.763 105.509L118.388 105.752L118.566 105.887L116.684 104.569L112.062 106.108L106.987 108.153L105.777 109.132L103.388 111.401L101.485 110.19L100.086 111.264L96.5958 111.302L96.4908 111.953ZM66.5767 89.2299L64.11 90.3524L62.1758 87.2766L59.9008 85.0657L62.7542 83.2449L60.0683 80.8441L59.8183 80.7182L61.2141 79.6941L58.5058 80.4182L58.2416 81.1082L58.6633 77.0849L60.5966 74.6999L60.8683 74.4841L59.6733 73.5166L61.3958 73.0382L64.1917 72.4366L62.6925 73.0216L64.6575 70.9749L67.7708 72.4266L69.4992 70.3132L74.5258 71.9524L78.5483 70.8216L85.1408 71.9332L93.4408 71.2491L93.6725 71.5691L94.2692 72.9216L92.3692 75.6082L92.6617 75.3849L92.9283 75.8649L94.2725 77.1974L91.1633 77.9207L90.2133 80.3057L89.5417 80.5132L90.3942 80.6266L91.9642 81.0299L95.2025 78.0532L94.3083 81.3632L95.4658 82.4491L93.5083 82.5674L91.1983 82.6049L90.0683 85.1416L88.1817 85.4674L82.23 86.4032L78.5942 86.6266L73.93 85.8149L68.725 87.7857L68.1783 87.7824L68.8375 89.1532L65.2408 88.9516L66.5767 89.2299ZM96.3608 79.4799L96.0083 80.3191L95.9483 78.2199L95.6775 81.2099L94.9617 80.2549L97.7975 79.7182L96.1425 80.1616L96.7475 81.5657L96.3608 79.4799ZM306.686 75.6016L302.562 75.1099L300.065 74.2974L297.869 71.6849L297.423 71.4307L294.95 72.6874L293.528 71.1374L292.524 69.4974L290.707 65.5949L287.738 64.1116L287.783 59.4841L290.245 55.5107L290.758 53.1299L292.089 50.4832L295.767 49.1582L300.269 45.7774L302.546 47.2524L304.748 47.5565L306.875 47.7774L307.147 46.2532L309.048 47.8282L313.08 50.0665L313.678 52.1965L313.023 53.8632L314.637 55.1274L315.428 55.2524L314.446 55.9974L314.703 58.0907L312.747 63.8841L314.13 67.6949L312.663 69.0266L311.211 68.2791L311.3 71.9941L312.208 73.3974L309.798 72.8391L307.958 74.5499L306.686 75.6016ZM58.8691 73.2982L57.1675 71.9941L57.4925 70.5324L57.0116 69.9599L57.5008 70.0941L59.7841 69.9191L58.8941 72.0824L59.8275 72.2316L58.8691 73.2982ZM66.3725 59.1016L64.7342 58.3857L64.4683 57.3224L63.1125 56.2891L64.5258 55.5382L66.7592 54.8424L66.4033 56.7316L67.8333 56.4207L68.295 55.8924L66.59 57.8274L66.3725 59.1016ZM58.1866 50.0915L52.7033 51.654L51.4083 48.5899L50.85 45.8815L51.3666 44.5649L53.1216 44.6482L51.7375 44.1549L51.5233 42.3649L54.5033 42.1782L57.3425 38.989L55.1116 39.2974L56.9991 39.479L57.4383 39.089L59.5433 39.1274L61.3633 41.3024L63.8516 41.2324L64.185 45.5699L66.385 49.5924L64.9767 50.409L64.305 51.3065L58.1866 50.0915ZM190.694 50.6057L187.176 51.8607L186.722 50.0782L185.289 50.2657L184.445 48.5007L183.016 48.4757L180.594 47.9757L181.003 46.2132L181.188 44.5265L179.925 41.299L180.068 39.679L179.184 36.8107L183.708 35.4049L188.203 32.1274L189.188 31.4124L193.39 30.5332L193.804 31.7482L196.062 34.4565L195.941 36.4857L195.847 35.2982L198.429 36.8565L198.672 37.4149L198.933 40.2482L198.119 42.7207L196.596 44.3007L195.791 44.7907L196.336 45.2357L196.539 48.1915L194.418 48.5707L193.23 50.2907L190.694 50.6057ZM190.328 42.5457L190.262 43.0265L190.307 42.3407L190.723 38.5815L188.927 39.5349L188.937 38.9132L185.627 40.2549L186.498 42.1857L184.285 42.2865L185.338 42.2782L188.022 42.9374L189.839 43.269L189.202 44.3257L190.328 42.5457ZM71.5375 48.1224L69.9991 49.6365L68.1875 47.609L67.96 46.2707L68.1308 46.2749L68.06 44.5499L67.105 45.6099L67.665 44.7757L66.1683 43.1657L67.0425 41.8515L68.8983 39.6407L69.8 37.619L71.6842 38.3365L73.5425 37.879L73.8858 39.539L76.1658 38.3174L74.895 42.5974L75.4567 43.3232L76.3817 43.0265L77.9983 43.9224L78.4008 45.3182L77.4608 44.6007L76.0875 47.1257L72.7908 49.4924L71.5375 48.1224Z" fill="white"/>
</g>
<defs>
<clipPath id="clip0_3276_2855">
<rect width="356.551" height="160.71" fill="white"/>
</clipPath>
</defs>
</svg>
