<svg width="347" height="110" viewBox="0 0 347 110" fill="none" xmlns="http://www.w3.org/2000/svg">
<path d="M0.215598 24.5882C0.215598 38.1763 9.27436 49.1764 20.49 49.1764H76.7839C78.078 49.1764 79.372 50.4705 79.372 52.1959C79.372 53.9215 78.2936 55.2155 76.7839 55.2155H0V77H85.8426C97.0583 77 106.117 65.7843 106.117 52.1962C106.117 38.6081 97.0583 27.3924 85.8426 27.3924H29.7644C28.4702 27.3924 27.1762 26.0983 27.1762 24.3729C27.1762 22.6474 28.2546 21.3533 29.7644 21.3533H105.901V0H20.4936C9.27798 0 0.219222 11.0001 0.219222 24.5882H0.215598Z" fill="#0097E0"/>
<path d="M112.159 0V76.5696H139.12V28.471L190.454 76.5696H218.493V0H191.532V47.883L140.198 0H112.159Z" fill="#0097E0"/>
<path d="M251.709 33.6475V0H224.317V76.5696H251.709V42.7064L295.279 76.5696H330.436L280.827 38.3927L330.436 0H295.279L251.709 33.6475Z" fill="#0097E0"/>
<path fill-rule="evenodd" clip-rule="evenodd" d="M338.409 0C340.565 0 342.504 0.862756 344.016 2.37249H344.017C345.53 3.88231 346.173 5.60782 346.391 7.98031C346.391 10.1368 345.53 12.078 344.017 13.5881C342.508 15.0979 340.566 15.9606 338.41 15.9606C336.253 15.9606 334.312 15.098 332.802 13.5881C331.292 12.0783 330.429 10.1372 330.429 7.98031C330.429 5.82342 331.292 3.88231 332.802 2.37249C334.315 0.862738 336.253 0 338.409 0ZM338.409 14.6668C340.35 14.6668 341.859 14.0197 343.154 12.7256C344.448 11.4314 345.095 9.70602 345.095 7.98051C345.095 6.25499 344.448 4.52958 343.154 3.23544C341.859 1.94129 340.35 1.29424 338.409 1.29424C336.683 1.29424 334.958 1.9413 333.663 3.23544C332.369 4.52957 331.722 6.03931 331.722 7.98051C331.722 9.70602 332.369 11.4314 333.663 12.7256C334.958 14.0197 336.467 14.6668 338.409 14.6668Z" fill="#0096DF"/>
<path fill-rule="evenodd" clip-rule="evenodd" d="M342.078 6.47051V6.6862L342.078 6.68618C342.078 7.54896 341.646 8.19601 340.999 8.41169C341.059 8.53029 341.134 8.64888 341.213 8.77195C341.42 9.09656 341.646 9.45234 341.646 9.92152L341.862 11.8627H340.568L340.352 9.92152C340.352 9.49015 339.921 9.05878 339.274 9.05878H336.47V12.0783H335.176V4.09802H339.705C340.999 4.09802 342.078 5.17638 342.078 6.47051ZM339.705 5.39188H336.47V5.39196V7.98014H339.705C340.352 7.98014 340.783 7.54874 340.783 6.90169V6.47033C340.783 5.82325 340.352 5.39188 339.705 5.39188Z" fill="#0096DF"/>
<path d="M7.12058 109.979C8.17266 109.977 9.21176 109.746 10.1655 109.3C11.1035 108.885 11.9357 108.262 12.5999 107.478V107.478L10.7862 105.655C10.3411 106.193 9.7883 106.63 9.16366 106.939C8.55089 107.237 7.87817 107.389 7.19737 107.385C6.62286 107.391 6.05284 107.283 5.52029 107.066C4.98774 106.85 4.50323 106.53 4.09481 106.125C3.70154 105.728 3.39081 105.257 3.18069 104.738C2.95541 104.188 2.84197 103.598 2.84703 103.004C2.84089 102.403 2.9511 101.807 3.17154 101.249C3.37731 100.729 3.68225 100.255 4.06922 99.8531C4.45729 99.4541 4.92144 99.1376 5.43401 98.9224C5.96816 98.6949 6.54305 98.5795 7.12332 98.5831C7.82313 98.5805 8.51392 98.7415 9.1408 99.0535C9.78877 99.3799 10.3562 99.8469 10.8018 100.421V100.421L12.673 98.5401C12.0151 97.7387 11.1779 97.1044 10.2295 96.6888C9.25487 96.237 8.19429 96.002 7.12058 96.0002C6.16155 95.9937 5.21079 96.1782 4.32335 96.543C3.48257 96.8851 2.71489 97.3856 2.06179 98.0174C1.41715 98.6496 0.904423 99.4043 0.553479 100.237C0.189674 101.111 0.00157869 102.048 9.89504e-06 102.994C-0.0015589 103.941 0.18343 104.878 0.544338 105.753C0.891127 106.583 1.40062 107.334 2.04259 107.963C2.696 108.595 3.464 109.095 4.30506 109.437C5.1985 109.803 6.15555 109.987 7.12058 109.979V109.979ZM43.2991 109.999C44.2549 110.006 45.2025 109.821 46.0862 109.456C46.9233 109.115 47.6849 108.612 48.3272 107.975C48.9695 107.338 49.4798 106.579 49.8287 105.743C50.194 104.875 50.3822 103.942 50.3822 103C50.3822 102.058 50.194 101.125 49.8287 100.257C49.4798 99.4207 48.9696 98.6623 48.3273 98.0251C47.685 97.3879 46.9233 96.8845 46.0862 96.5439C44.3044 95.8205 42.312 95.8205 40.5302 96.5439C39.693 96.8845 38.9314 97.3879 38.2891 98.0251C37.6468 98.6623 37.1365 99.4207 36.7877 100.257C36.4227 101.125 36.2346 102.058 36.2346 103C36.2346 103.942 36.4227 104.875 36.7877 105.743C37.1366 106.579 37.6469 107.338 38.2892 107.975C38.9315 108.612 39.6931 109.115 40.5302 109.456C41.4082 109.82 42.3499 110.004 43.3 109.998L43.2991 109.999ZM43.2991 107.42C42.7381 107.425 42.1821 107.315 41.6652 107.097C41.1482 106.878 40.6811 106.556 40.2925 106.151C39.9092 105.744 39.6078 105.266 39.4049 104.745C38.9719 103.619 38.9719 102.371 39.4049 101.245C39.6095 100.727 39.9108 100.254 40.2925 99.8494C40.6811 99.4436 41.1482 99.1217 41.6652 98.9033C42.1821 98.685 42.7381 98.5748 43.2991 98.5795C43.8764 98.5751 44.4485 98.6906 44.9792 98.9187C45.486 99.1343 45.9438 99.4509 46.3248 99.8494C46.7065 100.254 47.0078 100.727 47.2124 101.245C47.6452 102.371 47.6452 103.619 47.2124 104.745C47.0095 105.266 46.7081 105.744 46.3248 106.151C45.9438 106.549 45.486 106.866 44.9792 107.081C44.4487 107.309 43.877 107.424 43.3 107.42L43.2991 107.42ZM85.2621 109.786V107.305H77.9491V96.2138H75.183V109.784L85.2621 109.786ZM120.163 109.786V107.305H112.85V96.2138H110.082V109.784L120.163 109.786ZM155.329 109.786V107.343H147.75V104.124H152.696V101.758H147.75V98.6592H155.253V96.2165H144.98V109.787L155.329 109.786ZM186.029 109.98C187.081 109.978 188.12 109.747 189.074 109.301C190.012 108.885 190.844 108.263 191.509 107.479V107.479L189.694 105.657C189.249 106.195 188.696 106.632 188.071 106.941C187.459 107.239 186.786 107.391 186.105 107.387C185.531 107.393 184.961 107.285 184.429 107.068C183.896 106.852 183.412 106.532 183.004 106.127C182.61 105.73 182.299 105.259 182.089 104.74C181.864 104.19 181.75 103.6 181.755 103.005C181.749 102.405 181.859 101.809 182.08 101.25C182.285 100.731 182.59 100.257 182.977 99.8549C183.365 99.4559 183.829 99.1394 184.342 98.9242C184.876 98.6967 185.451 98.5812 186.031 98.585C186.733 98.5824 187.426 98.7448 188.055 99.059C188.703 99.3853 189.27 99.8523 189.716 100.426V100.426L191.587 98.5456C190.929 97.7442 190.092 97.1099 189.144 96.6943C188.169 96.2427 187.109 96.0078 186.036 96.0057C185.077 95.9992 184.126 96.1837 183.238 96.5485C182.397 96.8902 181.629 97.3904 180.976 98.022C180.331 98.6541 179.818 99.4088 179.467 100.242C179.103 101.115 178.915 102.052 178.913 102.999C178.912 103.945 179.097 104.883 179.458 105.757C179.805 106.587 180.314 107.339 180.956 107.968C181.609 108.599 182.377 109.099 183.218 109.441C184.111 109.805 185.066 109.988 186.029 109.979V109.98ZM222.647 109.786V98.695H227.133V96.2129H215.373V98.695H219.879V109.784L222.647 109.786ZM254.359 109.786V96.2156H251.591V109.786H254.359ZM286.242 110C287.198 110.007 288.146 109.822 289.03 109.457C289.867 109.116 290.628 108.613 291.271 107.976C291.913 107.339 292.423 106.58 292.772 105.744C293.137 104.876 293.325 103.943 293.325 103.001C293.325 102.059 293.137 101.126 292.772 100.257C292.423 99.4216 291.913 98.6632 291.271 98.026C290.628 97.3889 289.867 96.8854 289.03 96.5448C287.248 95.8217 285.256 95.8217 283.475 96.5448C282.638 96.8859 281.877 97.3895 281.234 98.0267C280.592 98.6638 280.082 99.4219 279.733 100.257C279.367 101.126 279.179 102.058 279.179 103.001C279.179 103.943 279.367 104.876 279.733 105.744C280.082 106.58 280.592 107.338 281.234 107.975C281.877 108.612 282.638 109.116 283.475 109.457C284.352 109.82 285.293 110.004 286.242 109.998V110ZM286.242 107.421C285.668 107.426 285.099 107.311 284.572 107.082C284.069 106.865 283.614 106.549 283.236 106.151C282.852 105.745 282.55 105.267 282.347 104.746C281.915 103.62 281.915 102.372 282.347 101.246C282.552 100.728 282.854 100.254 283.236 99.8503C283.614 99.4532 284.069 99.1366 284.572 98.9197C285.099 98.6909 285.668 98.5753 286.242 98.5804C286.82 98.576 287.391 98.6915 287.922 98.9197C288.429 99.1352 288.887 99.4518 289.268 99.8503C289.65 100.255 289.951 100.728 290.156 101.246C290.589 102.372 290.589 103.62 290.156 104.746C289.953 105.267 289.652 105.745 289.268 106.151C288.887 106.55 288.429 106.867 287.922 107.082C287.391 107.31 286.819 107.424 286.242 107.42V107.421ZM320.741 109.787V100.709L327.557 109.787H330V96.2165H327.404V104.999L320.76 96.2165H318.125V109.787H320.741Z" fill="white"/>
</svg>
