<svg width="361" height="112" viewBox="0 0 361 112" fill="none" xmlns="http://www.w3.org/2000/svg">
<path d="M0.215598 24.5882C0.215598 38.1763 9.27436 49.1764 20.49 49.1764H76.7839C78.078 49.1764 79.372 50.4705 79.372 52.1959C79.372 53.9214 78.2936 55.2155 76.7839 55.2155H0V77H85.8426C97.0583 77 106.117 65.7843 106.117 52.1962C106.117 38.6081 97.0583 27.3924 85.8426 27.3924H29.7644C28.4702 27.3924 27.1762 26.0983 27.1762 24.3729C27.1762 22.6474 28.2546 21.3533 29.7644 21.3533H105.901V0H20.4936C9.27798 0 0.219222 11.0001 0.219222 24.5882H0.215598Z" fill="white"/>
<path d="M112.159 0V76.5696H139.12V28.471L190.454 76.5696H218.493V0H191.532V47.883L140.198 0H112.159Z" fill="white"/>
<path d="M251.709 33.6475V0H224.317V76.5696H251.709V42.7064L295.279 76.5696H330.436L280.827 38.3927L330.436 0H295.279L251.709 33.6475Z" fill="white"/>
<path fill-rule="evenodd" clip-rule="evenodd" d="M338.409 0C340.565 0 342.504 0.862756 344.016 2.37249H344.017C345.53 3.88231 346.173 5.60782 346.391 7.98031C346.391 10.1368 345.53 12.078 344.017 13.5881C342.508 15.0979 340.566 15.9606 338.41 15.9606C336.253 15.9606 334.312 15.098 332.802 13.5881C331.292 12.0783 330.429 10.1372 330.429 7.98031C330.429 5.82342 331.292 3.88231 332.802 2.37249C334.315 0.862738 336.253 0 338.409 0ZM338.409 14.6668C340.35 14.6668 341.859 14.0197 343.154 12.7256C344.448 11.4314 345.095 9.70602 345.095 7.98051C345.095 6.25499 344.448 4.52958 343.154 3.23544C341.859 1.94129 340.35 1.29424 338.409 1.29424C336.683 1.29424 334.958 1.9413 333.663 3.23544C332.369 4.52957 331.722 6.03931 331.722 7.98051C331.722 9.70602 332.369 11.4314 333.663 12.7256C334.958 14.0197 336.467 14.6668 338.409 14.6668Z" fill="white"/>
<path fill-rule="evenodd" clip-rule="evenodd" d="M342.078 6.47051V6.6862L342.078 6.68618C342.078 7.54896 341.646 8.19601 340.999 8.41169C341.059 8.53029 341.134 8.64888 341.213 8.77195C341.42 9.09656 341.646 9.45234 341.646 9.92152L341.862 11.8627H340.568L340.352 9.92152C340.352 9.49015 339.921 9.05878 339.274 9.05878H336.47V12.0783H335.176V4.09802H339.705C340.999 4.09802 342.078 5.17638 342.078 6.47051ZM339.705 5.39188H336.47V5.39196V7.98014H339.705C340.352 7.98014 340.783 7.54874 340.783 6.90169V6.47033C340.783 5.82325 340.352 5.39188 339.705 5.39188Z" fill="white"/>
<path d="M7.78996 111.245C8.94087 111.243 10.0776 110.991 11.121 110.505C12.147 110.052 13.0574 109.373 13.784 108.518V108.518L11.8 106.53C11.313 107.116 10.7083 107.593 10.025 107.93C9.35463 108.255 8.61872 108.421 7.87396 108.416C7.24549 108.423 6.62192 108.305 6.03934 108.069C5.45676 107.833 4.92674 107.484 4.47996 107.042C4.04974 106.609 3.70982 106.095 3.47996 105.53C3.23352 104.93 3.10943 104.287 3.11496 103.638C3.10825 102.983 3.22881 102.333 3.46996 101.724C3.69506 101.158 4.02864 100.641 4.45196 100.202C4.87649 99.7671 5.38423 99.4219 5.94496 99.1872C6.52928 98.9391 7.15817 98.8132 7.79296 98.8172C8.55851 98.8143 9.31419 98.9899 9.99996 99.3302C10.7088 99.6861 11.3295 100.195 11.817 100.821V100.821L13.864 98.7702C13.1442 97.8962 12.2284 97.2045 11.191 96.7512C10.1247 96.2584 8.96453 96.0022 7.78996 96.0002C6.74084 95.9932 5.70076 96.1944 4.72996 96.5922C3.8102 96.9653 2.97041 97.5112 2.25596 98.2002C1.55077 98.8897 0.98987 99.7127 0.60596 100.621C0.20798 101.574 0.00221527 102.595 0.000499106 103.628C-0.00121706 104.66 0.201149 105.682 0.59596 106.636C0.975326 107.541 1.53268 108.361 2.23496 109.047C2.94975 109.736 3.78989 110.282 4.70996 110.654C5.68733 111.053 6.73428 111.254 7.78996 111.245V111.245ZM47.367 111.267C48.4126 111.275 49.4492 111.074 50.416 110.675C51.3317 110.304 52.1649 109.755 52.8675 109.06C53.5701 108.365 54.1283 107.538 54.51 106.626C54.9096 105.679 55.1155 104.662 55.1155 103.634C55.1155 102.606 54.9096 101.589 54.51 100.642C54.1284 99.7306 53.5702 98.9035 52.8675 98.2086C52.1649 97.5137 51.3317 96.9647 50.416 96.5932C48.4668 95.8042 46.2872 95.8042 44.338 96.5932C43.4222 96.9647 42.589 97.5137 41.8864 98.2086C41.1838 98.9035 40.6256 99.7306 40.244 100.642C39.8446 101.589 39.6389 102.606 39.6389 103.634C39.6389 104.662 39.8446 105.679 40.244 106.626C40.6256 107.538 41.1838 108.365 41.8864 109.06C42.5891 109.755 43.4222 110.304 44.338 110.675C45.2985 111.072 46.3287 111.273 47.368 111.266L47.367 111.267ZM47.367 108.455C46.7533 108.46 46.1451 108.34 45.5796 108.102C45.014 107.864 44.5031 107.513 44.078 107.07C43.6586 106.626 43.3289 106.106 43.107 105.537C42.6334 104.309 42.6334 102.948 43.107 101.72C43.3308 101.156 43.6604 100.639 44.078 100.198C44.5031 99.7556 45.014 99.4045 45.5796 99.1664C46.1451 98.9282 46.7533 98.808 47.367 98.8132C47.9986 98.8084 48.6244 98.9344 49.205 99.1832C49.7594 99.4182 50.2602 99.7635 50.677 100.198C51.0945 100.639 51.4241 101.156 51.648 101.72C52.1214 102.948 52.1214 104.309 51.648 105.537C51.426 106.106 51.0963 106.626 50.677 107.07C50.2602 107.505 49.7594 107.85 49.205 108.085C48.6246 108.333 47.9992 108.459 47.368 108.454L47.367 108.455ZM93.272 111.035V108.329H85.272V96.2332H82.246V111.033L93.272 111.035ZM131.451 111.035V108.329H123.451V96.2332H120.423V111.033L131.451 111.035ZM169.921 111.035V108.371H161.63V104.86H167.04V102.28H161.63V98.9002H169.838V96.2362H158.6V111.036L169.921 111.035ZM203.505 111.246C204.656 111.245 205.793 110.992 206.836 110.506C207.862 110.053 208.772 109.374 209.499 108.519V108.519L207.514 106.532C207.027 107.118 206.422 107.595 205.739 107.932C205.069 108.257 204.333 108.423 203.588 108.418C202.96 108.425 202.336 108.307 201.754 108.071C201.171 107.835 200.642 107.486 200.195 107.044C199.765 106.612 199.425 106.098 199.195 105.532C198.948 104.932 198.824 104.289 198.829 103.64C198.822 102.985 198.943 102.335 199.185 101.726C199.409 101.16 199.743 100.642 200.166 100.204C200.59 99.769 201.098 99.4238 201.659 99.1892C202.243 98.941 202.872 98.8151 203.507 98.8192C204.275 98.8164 205.033 98.9935 205.721 99.3362C206.43 99.692 207.051 100.201 207.538 100.827V100.827L209.585 98.7762C208.865 97.9022 207.949 97.2105 206.912 96.7572C205.846 96.2647 204.686 96.0085 203.512 96.0062C202.463 95.9991 201.423 96.2003 200.452 96.5982C199.532 96.9709 198.692 97.5164 197.977 98.2052C197.271 98.8946 196.71 99.7176 196.326 100.626C195.928 101.579 195.722 102.6 195.721 103.633C195.719 104.665 195.921 105.687 196.316 106.641C196.695 107.546 197.253 108.366 197.955 109.052C198.67 109.741 199.51 110.286 200.43 110.659C201.406 111.056 202.451 111.255 203.505 111.245V111.246ZM243.563 111.035V98.9392H248.47V96.2322H235.605V98.9392H240.534V111.033L243.563 111.035ZM278.253 111.035V96.2352H275.225V111.035H278.253ZM313.132 111.268C314.178 111.276 315.214 111.075 316.181 110.676C317.097 110.305 317.93 109.756 318.632 109.061C319.335 108.366 319.893 107.539 320.275 106.627C320.674 105.68 320.88 104.663 320.88 103.635C320.88 102.607 320.674 101.59 320.275 100.643C319.893 99.7316 319.335 98.9045 318.633 98.2096C317.93 97.5147 317.097 96.9657 316.181 96.5942C314.232 95.8055 312.053 95.8055 310.104 96.5942C309.189 96.9662 308.356 97.5154 307.653 98.2103C306.951 98.9051 306.393 99.7319 306.011 100.643C305.611 101.59 305.405 102.607 305.405 103.635C305.405 104.663 305.611 105.68 306.011 106.627C306.393 107.538 306.951 108.365 307.653 109.06C308.356 109.755 309.189 110.304 310.104 110.676C311.064 111.072 312.093 111.273 313.132 111.266V111.268ZM313.132 108.456C312.504 108.462 311.881 108.336 311.305 108.086C310.754 107.85 310.257 107.504 309.843 107.071C309.423 106.628 309.093 106.107 308.871 105.538C308.397 104.31 308.397 102.949 308.871 101.721C309.095 101.156 309.425 100.64 309.843 100.199C310.257 99.766 310.754 99.4208 311.305 99.1842C311.881 98.9347 312.504 98.8086 313.132 98.8142C313.763 98.8094 314.389 98.9354 314.969 99.1842C315.524 99.4192 316.025 99.7645 316.442 100.199C316.86 100.64 317.189 101.157 317.413 101.721C317.887 102.949 317.887 104.31 317.413 105.538C317.191 106.107 316.861 106.627 316.442 107.071C316.025 107.506 315.524 107.851 314.969 108.086C314.389 108.334 313.763 108.46 313.132 108.454V108.456ZM350.871 111.036V101.136L358.327 111.036H361V96.2362H358.16V105.814L350.892 96.2362H348.009V111.036H350.871Z" fill="white"/>
</svg>
