<svg width="544" height="164" viewBox="0 0 544 164" fill="none" xmlns="http://www.w3.org/2000/svg">
<path d="M68.6099 41.884C71.148 44.3488 74.6091 45.8726 78.4263 45.8726L138.74 45.8796L125.714 7.01937C123.935 2.89106 119.761 0 114.748 0C109.756 0 105.519 2.98552 103.806 7.09678L99.4642 19.7554L99.4471 0.653875L78.3844 0.643277C74.5773 0.643277 71.1549 2.1289 68.6343 4.58634L68.6417 0.660326H47.0758C43.059 0.660326 39.4058 2.37312 36.8507 5.06511V0.643277L16.5248 0.660787C7.75023 0.653414 0.552531 7.51242 0.541933 16.581C0.541933 20.7793 2.37684 24.5869 5.08266 27.4079L0.5 27.4005V45.8726L20.9789 45.8689C26.7329 45.862 32.4348 42.3904 34.4167 38.2307L34.4762 38.0598C36.7659 42.6844 41.5444 45.8726 47.0749 45.8726L68.6095 45.8689V41.884" fill="white"/>
<path d="M3.66382 42.7126L20.9332 42.6951C27.9987 42.6951 33.7246 36.9867 33.7246 29.9531C33.7246 22.9056 27.9987 17.1967 20.9332 17.1967L16.4483 17.2212C16.0948 17.2212 15.8082 16.9313 15.8082 16.5747C15.8082 16.218 16.0948 15.9277 16.4483 15.9277L33.6863 15.9314L33.6932 10.5234H16.4446C13.1098 10.5234 10.3966 13.2325 10.3966 16.5608C10.3966 19.8924 13.1093 22.5909 16.4446 22.5909L20.9507 22.6503C24.9989 22.6503 28.2747 25.9151 28.2747 29.9429C28.2747 33.9735 24.9993 37.2457 20.9507 37.2457H3.67073L3.66382 42.7126" fill="#0060A8"/>
<path d="M3.67081 35.9761H20.9508C24.2962 35.9761 27.002 33.2776 27.002 29.9423C27.002 26.6108 24.2962 23.9155 20.9508 23.9155L16.4446 23.8667C12.4034 23.8667 9.12437 20.5982 9.12437 16.5602C9.12437 12.5333 12.4034 9.2644 16.4446 9.2644L33.6933 9.26072L33.6864 3.83203H16.4483C9.39026 3.83203 3.65698 9.53397 3.65698 16.5745C3.65698 23.6151 9.39026 29.3203 16.4483 29.3203L20.9089 29.3272C21.248 29.3272 21.5346 29.6037 21.5346 29.9529C21.5346 30.2958 21.248 30.5718 20.9089 30.5718L3.66389 30.5856L3.67081 35.9761" fill="#0060A8"/>
<path d="M47.1137 37.2801C44.1176 37.2801 41.6633 34.8923 41.6633 31.8436V14.5922C41.6633 11.6592 44.1176 9.24689 47.1137 9.24689L65.5471 9.25012V3.83203H47.1137C41.115 3.83203 36.2559 8.67366 36.2559 14.6516V31.8441C36.2559 37.8225 41.115 42.671 47.1137 42.671L65.4701 42.6784L65.4664 37.2737L47.1137 37.2801" fill="#0060A8"/>
<path d="M42.9847 14.6506C42.9847 12.3646 44.8238 10.5117 47.1135 10.5117H65.5469V15.9372H49.6654C48.3931 15.9372 48.3756 17.1993 48.3756 17.1993H61.625V22.6003H42.9783L42.9847 14.6506" fill="#0060A8"/>
<path d="M47.1137 35.9652C44.8309 35.9652 42.978 34.1229 42.978 31.8434V23.8867H61.6248V29.2988H48.3754C48.3929 30.5711 49.6652 30.5775 49.6652 30.5775H65.4697L65.466 35.9578L47.1137 35.9652" fill="#0060A8"/>
<path d="M78.4645 37.2663C75.479 37.2663 73.0391 34.8333 73.0391 31.8436V14.6512C73.0391 11.6587 75.4615 9.24643 78.4502 9.24643H96.3039V3.83203H78.4088C72.4128 3.83203 67.5537 8.67366 67.5537 14.6516V31.8441C67.5537 37.8225 72.4548 42.671 78.4502 42.671L96.3039 42.6784V17.2003H80.9607V22.6013H90.8817V37.2663H78.4645" fill="#0060A8"/>
<path d="M74.3115 31.8424C74.3115 34.133 76.1643 35.996 78.4504 35.996H89.6022V23.8793H80.9742V29.2983H84.1763L84.1864 30.5706H80.9986C80.3028 30.5706 79.7332 29.9941 79.7332 29.2983L79.7047 17.1954C79.7047 17.1954 79.701 15.937 80.9843 15.9056H96.3101L96.3031 10.5078L78.4495 10.5115C76.1634 10.5115 74.3105 12.3644 74.3105 14.6504V31.8424" fill="#0060A8"/>
<path d="M113.08 10.4308C113.321 9.74238 113.975 9.24609 114.747 9.24609C115.521 9.24609 116.181 9.74238 116.415 10.4308L125.082 36.0342H112.391L112.405 30.0111H116.646L114.737 24.3373L108.518 42.6725H102.121L113.08 10.4308" fill="#0060A8"/>
<path d="M126.829 37.2662H112.413V42.6736H134.352L122.942 8.91452C121.942 5.62164 118.646 3.19922 114.744 3.19922C110.836 3.19922 107.55 5.61105 106.543 8.90116L95.0276 42.6741H100.771L111.951 9.84488C112.405 8.75785 113.476 7.992 114.734 7.992C115.986 7.992 117.062 8.75785 117.52 9.83796L126.829 37.2662" fill="#0060A8"/>
<path fill-rule="evenodd" clip-rule="evenodd" d="M132.92 7.01383C132.199 7.73037 131.238 8.12896 130.217 8.12896C129.199 8.12896 128.242 7.73037 127.525 7.01429C126.798 6.29083 126.4 5.33651 126.4 4.31584C126.4 2.21828 128.116 0.515625 130.217 0.515625C131.238 0.515625 132.199 0.914217 132.92 1.62707C133.639 2.35053 134.042 3.30162 134.042 4.31538C134.042 5.33605 133.639 6.29037 132.92 7.01383ZM127.899 2.00078C127.274 2.61964 126.938 3.44447 126.938 4.31492C126.938 5.19228 127.273 6.01389 127.899 6.63228C128.521 7.25114 129.346 7.59029 130.217 7.59029C132.032 7.59029 133.507 6.12218 133.507 4.31492C133.507 3.44447 133.164 2.61964 132.545 2.00078C131.923 1.38239 131.098 1.04647 130.217 1.04647C129.346 1.04647 128.522 1.38193 127.899 2.00078Z" fill="white"/>
<path fill-rule="evenodd" clip-rule="evenodd" d="M129.238 6.43371V4.63705H130.329L131.486 6.43371H132.154L130.965 4.60203C130.971 4.6007 130.978 4.59928 130.986 4.59776C131.219 4.55106 131.972 4.39983 131.972 3.44496C131.972 3.05328 131.839 2.70031 131.521 2.46576C131.198 2.22185 130.858 2.21791 130.284 2.21127C130.274 2.21116 130.265 2.21105 130.255 2.21094H128.686V6.43371H129.238ZM130.36 4.1721H129.238V2.67957H130.329C130.34 2.67957 130.352 2.67956 130.363 2.67955C130.673 2.67932 130.941 2.67912 131.154 2.8579C131.395 3.05374 131.406 3.33667 131.406 3.44865C131.406 3.756 131.266 4.03571 130.875 4.13017C130.707 4.1721 130.539 4.1721 130.36 4.1721Z" fill="white"/>
<path fill-rule="evenodd" clip-rule="evenodd" d="M83.021 157.727V69.1716H68.3022L68.5446 126.118L0.5 69.8963L0.739778 158.694H13.5298V101.265L83.021 157.727ZM92.433 159.173L103.774 139.87H93.3974V126.36H110.53L141.656 69.8963L191.364 159.173H173.75L163.616 139.87H119.46L108.843 159.173H92.433ZM125.491 126.118H157.342L141.417 96.9202L125.491 126.118ZM317.322 159.173H302.846V70.136L352.069 127.322L401.775 68.9319V159.173H386.329L386.092 110.675L351.827 151.938L317.322 110.914V159.173ZM429.766 159.173L430.006 67.9648H444.724L444.485 159.173H429.766Z" fill="white"/>
<path fill-rule="evenodd" clip-rule="evenodd" d="M190.882 115.501C190.882 88.7172 212.599 67 239.386 67C266.168 67 287.885 88.7172 287.885 115.501C287.885 142.283 266.168 164 239.386 164C212.599 164 190.882 142.283 190.882 115.501V115.501ZM239.386 149.524C258.208 149.524 273.403 134.32 273.403 115.501C273.403 96.9224 258.205 81.7188 239.386 81.7188C220.805 81.7188 205.601 96.9224 205.601 115.501C205.601 134.32 220.802 149.524 239.386 149.524Z" fill="#FA6B1C"/>
<path d="M484.887 151.997V155.585V159.172H542.819V149.097H522.424C511.207 149.097 502.092 148.941 502.169 148.749C502.246 148.558 504.859 146.036 507.976 143.146C522.401 129.771 532.115 118.384 536.466 109.752C542.055 98.6626 541.882 86.665 536.007 77.8804C533.727 74.4726 530.974 72.0378 527.308 70.1878C518.803 65.895 507.415 65.9403 496.734 70.3087C494.073 71.3972 487.406 75.5418 487.406 76.1081C487.406 76.276 488.246 78.223 489.272 80.434L491.138 84.4535L493.784 82.6149C498.911 79.0538 503.395 77.3876 508.816 77.0316C517.156 76.483 523.468 79.4417 526.431 85.2889C529.637 91.6152 529.215 99.2932 525.22 107.328C521.445 114.921 517.739 119.289 500.574 136.379L484.887 151.997Z" fill="#FA6B1C"/>
<path d="M451.763 69.6317V78.4648H453.761V69.6317H456.764V67.9648H448.932V69.6317H451.763Z" fill="white"/>
<path d="M457.262 67.9648V78.2974L459.262 78.4648V71.6317L463.262 78.4648L466.094 71.6317V78.4648H468.095V67.9648H465.926L463.095 74.465L460.094 67.9648H457.262Z" fill="white"/>
</svg>
