<svg width="544" height="164" viewBox="0 0 544 164" fill="none" xmlns="http://www.w3.org/2000/svg">
<path fill-rule="evenodd" clip-rule="evenodd" d="M83.021 157.727V69.1716H68.3022L68.5446 126.118L0.5 69.8963L0.739778 158.694H13.5298V101.265L83.021 157.727ZM92.433 159.173L103.774 139.87H93.3974V126.36H110.53L141.656 69.8963L191.364 159.173H173.75L163.616 139.87H119.46L108.843 159.173H92.433ZM125.491 126.118H157.342L141.417 96.9202L125.491 126.118ZM317.322 159.173H302.846V70.136L352.069 127.322L401.775 68.9319V159.173H386.329L386.092 110.675L351.827 151.938L317.322 110.914V159.173ZM429.766 159.173L430.006 67.9648H444.724L444.485 159.173H429.766Z" fill="white"/>
<path fill-rule="evenodd" clip-rule="evenodd" d="M190.882 115.501C190.882 88.7172 212.599 67 239.386 67C266.168 67 287.885 88.7172 287.885 115.501C287.885 142.283 266.168 164 239.386 164C212.599 164 190.882 142.283 190.882 115.501V115.501ZM239.386 149.524C258.208 149.524 273.403 134.32 273.403 115.501C273.403 96.9224 258.205 81.7188 239.386 81.7188C220.805 81.7188 205.601 96.9224 205.601 115.501C205.601 134.32 220.802 149.524 239.386 149.524Z" fill="white"/>
<path d="M484.887 151.997V155.585V159.172H542.819V149.097H522.424C511.207 149.097 502.092 148.941 502.169 148.749C502.246 148.558 504.859 146.036 507.976 143.146C522.401 129.771 532.115 118.384 536.466 109.752C542.055 98.6626 541.882 86.665 536.007 77.8804C533.727 74.4726 530.974 72.0378 527.308 70.1878C518.803 65.895 507.415 65.9403 496.734 70.3087C494.073 71.3972 487.406 75.5418 487.406 76.1081C487.406 76.276 488.246 78.223 489.272 80.434L491.138 84.4535L493.784 82.6149C498.911 79.0538 503.395 77.3876 508.816 77.0316C517.156 76.483 523.468 79.4417 526.431 85.2889C529.637 91.6152 529.215 99.2932 525.22 107.328C521.445 114.921 517.739 119.289 500.574 136.379L484.887 151.997Z" fill="white"/>
<path d="M451.763 69.6317V78.4648H453.761V69.6317H456.764V67.9648H448.932V69.6317H451.763Z" fill="white"/>
<path d="M457.262 67.9648V78.2974L459.262 78.4648V71.6317L463.262 78.4648L466.094 71.6317V78.4648H468.095V67.9648H465.926L463.095 74.465L460.094 67.9648H457.262Z" fill="white"/>
<path fill-rule="evenodd" clip-rule="evenodd" d="M114.748 0C119.652 0 123.753 2.76673 125.595 6.7519L125.714 7.01937L138.74 45.8796L78.4263 45.8726C74.7407 45.8726 71.3871 44.4521 68.8758 42.1356L68.6095 41.884V45.8689L47.0749 45.8726C41.6596 45.8726 36.9653 42.8158 34.6225 38.3469L34.4762 38.0598L34.4167 38.2307C32.4737 42.3088 26.9551 45.7256 21.3173 45.8646L20.9789 45.8689L0.5 45.8726V27.4005L5.08266 27.4079C2.37684 24.5869 0.541933 20.7793 0.541933 16.581C0.552404 7.62168 7.57783 0.819012 16.2083 0.663503L16.5248 0.660787L36.8507 0.643277V5.06511C39.3234 2.45996 42.8245 0.771848 46.6883 0.665649L47.0758 0.660326H68.6417L68.6343 4.58634C71.068 2.21364 74.3423 0.746889 77.992 0.648555L78.3844 0.643277L99.4471 0.653875L99.4642 19.7554L103.806 7.09678C105.519 2.98552 109.756 0 114.748 0ZM33.6933 10.5228H16.4446L16.2182 10.527C12.9879 10.6463 10.3966 13.3075 10.3966 16.5602C10.3966 19.8161 12.9874 22.4673 16.2182 22.5861L21.1927 22.6536C25.1286 22.7806 28.2747 25.995 28.2747 29.9423C28.2747 33.8923 25.1291 37.1139 21.1927 37.2412L20.9508 37.2451H3.67076L3.66385 42.712L20.9333 42.6945L21.2396 42.6909C28.1635 42.5288 33.7246 36.8842 33.7246 29.9525C33.7246 23.0071 28.1635 17.3619 21.2396 17.1997L20.9333 17.1961L16.4483 17.2206L16.3537 17.2135C16.0451 17.1673 15.8082 16.8983 15.8082 16.5741C15.8082 16.2498 16.0451 15.9804 16.3537 15.9341L16.4483 15.9271L33.6864 15.9308L33.6933 10.5228ZM47.1136 3.83155H65.547V9.24964L47.1136 9.24641L46.8898 9.25091C44.0686 9.36451 41.7803 11.6152 41.6676 14.378L41.6633 14.5917V31.8431L41.6678 32.0706C41.7834 34.9362 44.0735 37.1657 46.8954 37.2754L47.1136 37.2796L65.4663 37.2732L65.47 42.6779L47.1136 42.6705L46.8242 42.6668C41.0556 42.5163 36.4103 37.8813 36.2596 32.132L36.2558 31.8436V14.6511L36.2596 14.3628C36.4103 8.61407 41.0556 3.98553 46.8242 3.83531L47.1136 3.83155ZM114.744 3.19887L114.459 3.20316C110.774 3.31413 107.687 5.57069 106.622 8.65557L106.543 8.90081L96.3039 38.9279L96.304 17.1998H80.9607V22.6009H90.8818V37.2658H78.4646L78.2471 37.2615C75.4355 37.1497 73.1586 34.8808 73.0437 32.0664L73.0391 31.8431V14.6507L73.0434 14.4328C73.1547 11.6161 75.4141 9.36409 78.2271 9.25045L78.4503 9.24595H96.304V3.83155H78.4088L78.1196 3.83531C72.3535 3.98553 67.7083 8.61407 67.5575 14.3628L67.5538 14.6511V31.8436L67.5576 32.132C67.7096 37.8813 72.3941 42.5163 78.1611 42.6668L78.4503 42.6705L96.304 42.6779L96.3039 42.6729L100.771 42.6738L111.951 9.84453L112.028 9.67563C112.518 8.67901 113.542 7.99165 114.734 7.99165C115.92 7.99165 116.948 8.67901 117.443 9.66975L117.52 9.83762L126.829 37.2658H112.413V42.6733H134.352L122.942 8.91418L122.865 8.67481C121.809 5.58586 118.715 3.31768 115.036 3.2034L114.744 3.19887ZM113.134 10.2966C113.409 9.67919 114.026 9.24687 114.748 9.24687C115.521 9.24687 116.181 9.74315 116.415 10.4316L125.082 36.035H112.391L112.402 31.2199L112.812 30.0119L116.646 30.0119L114.737 24.3381L112.812 30.0119L112.405 30.0119L112.402 31.2199L108.518 42.6733H102.121L113.08 10.4316L113.134 10.2966ZM96.3031 10.5085L78.4494 10.5122L78.2428 10.5173C76.1212 10.6216 74.4198 12.323 74.3155 14.4445L74.3105 14.6511L74.3114 31.8431L74.3165 32.0501C74.4207 34.1764 76.1221 35.8869 78.2437 35.9917L78.4503 35.9968H89.6021V23.88H80.9741V29.299H84.1762L84.1863 30.5713H80.9985L80.8697 30.5647C80.2761 30.5032 79.8005 30.0222 79.7397 29.428L79.7332 29.299L79.7046 17.1961C79.7068 17.0896 79.7544 16.0432 80.8171 15.918L80.9842 15.9064H96.31L96.3031 10.5085ZM16.4483 3.83155H33.6864L33.6933 9.26024L16.4446 9.26392L16.2031 9.26783C12.2735 9.39498 9.12433 12.6134 9.12433 16.5598C9.12433 20.517 12.2735 23.7352 16.2031 23.8623L21.1778 23.9192C24.4178 24.0379 27.002 26.686 27.002 29.9419C27.002 33.2013 24.4178 35.8526 21.1778 35.9714L20.9508 35.9756H3.67076L3.66385 30.5851L20.9088 30.5713L20.9998 30.5646C21.2977 30.5206 21.5346 30.2641 21.5346 29.9525C21.5346 29.6349 21.2977 29.3776 20.9998 29.3334L20.9088 29.3267L16.4483 29.3198L16.1423 29.3162C9.22524 29.1541 3.65694 23.5126 3.65694 16.5741C3.65694 9.63553 9.22524 3.99711 16.1423 3.83513L16.4483 3.83155ZM61.6247 23.8869H42.9779V31.8436C42.9779 34.0541 44.7202 35.8534 46.9073 35.9604L47.1136 35.9654L65.4659 35.9581L65.4696 30.5778L49.6574 30.5776C49.557 30.5747 48.5001 30.5192 48.3852 29.4648L48.3753 29.299H61.6247V23.8869ZM47.1136 10.5122H65.547V15.9377H49.6655L49.4997 15.9453C48.6027 16.0299 48.4214 16.7997 48.3849 17.0898L48.3757 17.1998H61.6251V22.6009H42.9784L42.9848 14.6511L42.9899 14.4445C43.0967 12.2545 44.8933 10.5122 47.1136 10.5122Z" fill="white"/>
<path fill-rule="evenodd" clip-rule="evenodd" d="M132.92 7.01383C132.199 7.73037 131.238 8.12896 130.217 8.12896C129.199 8.12896 128.242 7.73037 127.525 7.01429C126.798 6.29083 126.4 5.33651 126.4 4.31584C126.4 2.21828 128.116 0.515625 130.217 0.515625C131.238 0.515625 132.199 0.914217 132.92 1.62707C133.639 2.35053 134.042 3.30162 134.042 4.31538C134.042 5.33605 133.639 6.29037 132.92 7.01383ZM127.899 2.00078C127.274 2.61964 126.938 3.44447 126.938 4.31492C126.938 5.19228 127.273 6.01389 127.899 6.63228C128.521 7.25114 129.346 7.59029 130.217 7.59029C132.032 7.59029 133.507 6.12218 133.507 4.31492C133.507 3.44447 133.164 2.61964 132.545 2.00078C131.923 1.38239 131.098 1.04647 130.217 1.04647C129.346 1.04647 128.522 1.38193 127.899 2.00078Z" fill="white"/>
<path fill-rule="evenodd" clip-rule="evenodd" d="M129.238 6.43371V4.63705H130.329L131.486 6.43371H132.154L130.965 4.60203C130.971 4.6007 130.978 4.59928 130.986 4.59776C131.219 4.55106 131.972 4.39983 131.972 3.44496C131.972 3.05328 131.839 2.70031 131.521 2.46576C131.198 2.22185 130.858 2.21791 130.284 2.21127C130.274 2.21116 130.265 2.21105 130.255 2.21094H128.686V6.43371H129.238ZM130.36 4.1721H129.238V2.67957H130.329C130.34 2.67957 130.352 2.67956 130.363 2.67955C130.673 2.67932 130.941 2.67912 131.154 2.8579C131.395 3.05374 131.406 3.33667 131.406 3.44865C131.406 3.756 131.266 4.03571 130.875 4.13017C130.707 4.1721 130.539 4.1721 130.36 4.1721Z" fill="white"/>
</svg>
