<svg xmlns="http://www.w3.org/2000/svg" width="650" height="227" fill="none" viewBox="0 0 650 227">
  <defs>
    <linearGradient id="mainlogo__paint0_linear_3304_9969" x1="299" x2="319.036" y1="40.445" y2="146.445" class="mainlogo__paint0_linear_3304" gradientUnits="userSpaceOnUse">
      <stop stop-color="#fff" stop-opacity=".56"/>
      <stop offset="1" stop-color="#fff" stop-opacity=".09"/>
    </linearGradient>
  </defs>
  <g id="mainlogo__mainlogo" class="mainlogo__mainlogo">
    <path id="mainlogo__Vector" fill="#fff" d="M18.063 226.548c1.688-.24 3.354-.854 4.884-1.798a13.434 13.434 0 0 0 3.905-3.534l-2.909-2.577a9.833 9.833 0 0 1-2.603 2.468 7.828 7.828 0 0 1-3.154 1.174 6.503 6.503 0 0 1-2.69-.143 5.802 5.802 0 0 1-2.287-1.222 5.711 5.711 0 0 1-1.466-2.065 6.92 6.92 0 0 1-.535-2.767 8.343 8.343 0 0 1 .52-2.948c.33-.897.82-1.742 1.44-2.488a8.115 8.115 0 0 1 2.19-1.833 7.416 7.416 0 0 1 2.71-.936 6.616 6.616 0 0 1 3.236.315 6.453 6.453 0 0 1 2.664 1.866l3.002-3.503a8.708 8.708 0 0 0-3.92-2.482c-1.564-.52-3.265-.666-4.987-.427a12.61 12.61 0 0 0-4.487 1.52 13.879 13.879 0 0 0-3.628 2.925 13.498 13.498 0 0 0-2.42 3.977 12.98 12.98 0 0 0-.887 4.64 11.107 11.107 0 0 0 .873 4.397 9.077 9.077 0 0 0 2.403 3.284 9.493 9.493 0 0 0 3.63 1.904c1.433.398 2.968.484 4.516.253Zm58.034-8.124a12.52 12.52 0 0 0 4.471-1.517 13.61 13.61 0 0 0 6.003-6.926 12.76 12.76 0 0 0 .889-4.619c0-1.544-.302-3.03-.888-4.37a9.287 9.287 0 0 0-2.409-3.317 9.124 9.124 0 0 0-3.595-1.921c-2.858-.783-6.054-.334-8.912 1.253a13.38 13.38 0 0 0-3.595 2.931 13.607 13.607 0 0 0-2.409 3.994 12.772 12.772 0 0 0-.887 4.619c0 1.544.302 3.03.888 4.37a9.278 9.278 0 0 0 2.408 3.317 9.124 9.124 0 0 0 3.595 1.921c1.408.399 2.917.49 4.441.265Zm0-4.224a6.12 6.12 0 0 1-2.62-.162 5.478 5.478 0 0 1-2.202-1.24 5.91 5.91 0 0 1-1.424-2.103c-.695-1.747-.695-3.791 0-5.733a8.654 8.654 0 0 1 1.424-2.487 8.08 8.08 0 0 1 2.201-1.859 7.202 7.202 0 0 1 2.621-.899 6.228 6.228 0 0 1 2.696.177 5.4 5.4 0 0 1 2.158 1.221 5.958 5.958 0 0 1 1.424 2.086c.694 1.748.694 3.791 0 5.734-.326.9-.809 1.75-1.424 2.503a7.955 7.955 0 0 1-2.158 1.828 7.32 7.32 0 0 1-2.696.934Zm67.314-5.584v-4.065L131.68 206.2v-18.17l-4.437.623v22.232l16.168-2.269Zm55.985-7.869v-4.064l-11.731 1.648v-18.169l-4.44.624v22.231l16.171-2.27Zm56.411-7.928v-4.001l-12.158 1.708v-5.274l7.934-1.114v-3.876l-7.934 1.115V176.3l12.036-1.692v-4.001l-16.479 2.316v22.231l16.601-2.335Zm49.247-6.604c1.687-.239 3.354-.853 4.884-1.798 1.505-.892 2.84-2.1 3.905-3.533l-2.911-2.576a9.803 9.803 0 0 1-2.602 2.469 7.825 7.825 0 0 1-3.155 1.173 6.48 6.48 0 0 1-2.689-.143 5.801 5.801 0 0 1-2.286-1.222 5.708 5.708 0 0 1-1.466-2.065 6.926 6.926 0 0 1-.537-2.766 8.335 8.335 0 0 1 .522-2.949 8.435 8.435 0 0 1 1.439-2.488 8.087 8.087 0 0 1 2.189-1.832 7.418 7.418 0 0 1 2.71-.937 6.608 6.608 0 0 1 3.246.32 6.458 6.458 0 0 1 2.665 1.865l3.001-3.502a8.706 8.706 0 0 0-3.919-2.482c-1.563-.52-3.264-.666-4.986-.428a12.648 12.648 0 0 0-4.487 1.52 13.882 13.882 0 0 0-3.629 2.924 13.484 13.484 0 0 0-2.421 3.977 12.988 12.988 0 0 0-.888 4.641 11.11 11.11 0 0 0 .873 4.396 9.085 9.085 0 0 0 2.403 3.284 9.49 9.49 0 0 0 3.63 1.904c1.431.395 2.964.48 4.509.248Zm58.74-8.572v-18.17l7.195-1.011v-4.066l-18.865 2.651v4.066l7.228-1.016v18.167l4.442-.621Zm50.868-7.149v-22.232l-4.44.624v22.232l4.44-.624Zm51.146-6.838a12.508 12.508 0 0 0 4.471-1.518 13.392 13.392 0 0 0 3.595-2.932 13.608 13.608 0 0 0 2.408-3.994c.586-1.504.887-3.075.887-4.619 0-1.543-.301-3.029-.887-4.369a9.285 9.285 0 0 0-2.408-3.317 9.142 9.142 0 0 0-3.595-1.922c-2.858-.783-6.054-.334-8.911 1.253a13.391 13.391 0 0 0-3.594 2.932 13.629 13.629 0 0 0-2.408 3.993 12.745 12.745 0 0 0-.889 4.619c0 1.544.302 3.03.889 4.37a9.29 9.29 0 0 0 2.408 3.316 9.131 9.131 0 0 0 3.594 1.922 10.62 10.62 0 0 0 4.44.263v.003Zm0-4.224a6.108 6.108 0 0 1-2.679-.18 5.401 5.401 0 0 1-2.144-1.223 5.88 5.88 0 0 1-1.425-2.102c-.695-1.748-.695-3.791 0-5.734a8.616 8.616 0 0 1 1.425-2.486 7.987 7.987 0 0 1 2.144-1.826 7.18 7.18 0 0 1 2.679-.933 6.203 6.203 0 0 1 2.693.178 5.385 5.385 0 0 1 2.16 1.221 5.929 5.929 0 0 1 1.424 2.086c.695 1.747.695 3.791 0 5.733-.325.9-.809 1.75-1.424 2.503a7.942 7.942 0 0 1-2.16 1.828 7.291 7.291 0 0 1-2.693.932v.003Zm55.339-3.902v-14.871l10.933 13.334 3.92-.551v-22.231l-4.164.585v14.388l-10.658-12.89-4.228.594v22.232l4.197-.59Z" class="mainlogo__Vector"/>
    <g id="mainlogo__Vector_2" class="mainlogo__Vector">
      <path fill="#fff" fill-rule="evenodd" d="M10.377 59.917c-.155-.715-.096-5.658-.034-6.53.987-.28 1.849-.375 2.718-.471.197-.022.394-.044.592-.068a29.43 29.43 0 0 0 1.377-.216c1.7-.292 3.824-.657 4.787-.084 1.753 1.043 1.958 3.556.267 5.255-.92.926-2 1.098-3.219 1.24a131.55 131.55 0 0 0-3.4.456 143.09 143.09 0 0 1-3.088.418Zm.027-10.33c-.024-.094-.142-5.78-.02-6.525a.807.807 0 0 1 .013-.064l.007-.035.051-.198c.535-.15 4.212-.684 4.644-.62 3.376.496 3.24 5.27.212 6.546-1.093.461-2.543.622-3.786.76-.401.045-.781.087-1.12.136Zm-3.02 14.35-.106.004a55.132 55.132 0 0 0-.403-2.032c-.274-1.637-.246-3.074-.216-4.607.007-.378.014-.762.018-1.156L6.666 44.74c-.01-2.191-.014-3.357 1.558-4.756 1.136-1.01 2.856-1.156 4.354-1.282.356-.03.699-.059 1.018-.098 2.281-.28 3.225-.19 4.71.62 1.296.707 2.392 1.995 2.793 3.995.403 2.006.107 2.758-.268 3.713a9.732 9.732 0 0 0-.503 1.57c.127.12.387.228.717.365.571.237 1.351.562 2.005 1.178 2.85 2.69 2.292 7.082-.37 10.04-2.02 2.243-4.334 2.493-7.006 2.783h-.006l-.392.043a62.58 62.58 0 0 0-3.092.446c-1.598.257-3.202.516-4.8.58Zm64.905-30.091c2.636-1.54 5.403-1.47 7.376-.792 2.174.748 3.235 1.88 4.56 4.233 1.191 2.115.542 5.765-.275 7.52-2.333 5.008-7.712 7.645-12.338 6.004-4.417-1.567-6.463-7.07-4.106-11.812 1.093-2.198 2.237-3.666 4.783-5.153Zm-.34-3.733c-.81.557-2.241.832-4.514 3.06-1.256 1.232-2.095 2.477-2.912 3.928-3.458 6.14-1.479 14.35 4.893 17.04 10.364 4.374 22.046-7.49 18.57-17.844-1.546-4.6-5.892-7.521-10.396-7.425-1.26.027-4.325.335-5.64 1.24Zm78.936 1.627c-.431-1.295.842-4.99 1.404-6.034 2.484-4.607 6.564-5.904 9.492-2.233 1.373 1.72 1.863 3.765 2.009 6.405-.642.284-10.72 1.513-12.905 1.862Zm-.186 11.986c.225-.61.117-6.94.114-8.137.387-.155 12.474-1.863 12.853-1.802.22.706.123 3.13.126 4.066.004.918-.135 3.412.078 4.095 4.324-1.07 3.507-4.588 3.667-6.58.104-1.292-.007-2.935 0-4.303.009-1.703.119-2.634-.227-4.497-.984-5.292-4.696-9.91-10.274-8.848-5.907 1.124-9.127 7.206-9.759 11.888-.208 1.544-.243 6.781-.203 8.479.028 1.206-.223 3.234.47 4.249.626.914 1.868 1.794 3.155 1.39ZM30.707 48.528c-.489-2.766 1.757-9.211 6.136-10.239 4.925-1.156 7.159 6.45 6.683 8.335-.8.395-7.907 1.217-9.698 1.505-1.063.172-2.169.185-3.12.399Zm-.158 11.99c.111-2.305.07-5.842-.001-8.08.356-.214 12.415-1.932 12.926-1.862.228.768.066 3.083.074 4.031.01 1.028-.1 3.325.088 4.167 3.592-.912 3.867-3.64 3.67-6.63l.023-4.28c.023-4.611-.447-8.264-3.795-11.4-1.67-1.566-3.685-2.342-6.658-1.96-3.256.418-5.551 2.845-6.963 4.727-1.384 1.847-2.47 4.608-2.833 7.176-.373 2.632-.193 5.733-.22 8.44-.014 1.33-.21 3.137.473 4.312a2.954 2.954 0 0 0 3.216 1.359Zm103.707-35.501c2.564-1.636 5.22-.383 6.103 1.456 1.235 2.571-.304 5.307-2.348 6.48-5.544 3.183-9.348-4.366-3.755-7.936Zm-2.709 12.84c.537.059.937.58 1.52 1.094 1.205 1.062 6.212 5.547 6.993 5.895 1.436.64 2.906.02 4.245-1.079-.309-1.03-6.516-5.417-7.049-6.628 6.726-2.29 8.702-9.182 6.033-13.405-3.574-5.656-12.924-3.448-15.135 4.116-.548 1.874-.28 10.719-.294 12.916l-.005 5.41c-.005.475-.131.738.273.75.496.017 1.718-.715 2.04-1.04 2.057-2.088 1.063-4.484 1.379-8.029Zm-5.468 9.349c-.527-4.648-4.62-2.729-7.49-2.572-.646.035-2.988.603-3.296.392l-.099-.146c-.008-.02-.031-.056-.039-.08-.122-.366.012-2.684-.018-3.444-.046-1.193-.012-2.614.011-3.808 1.432-.553 6.421-.663 7.322-1.252-.126-1.842-1.271-2.805-2.498-3.035-1.324-.25-3.984.544-4.756.424-.106-.495-.174-5.245.034-5.75l6.655-.97c1.314-.131 2.218-.533 3.06-1.417.608-.64 1.264-1.813 1.057-2.867l-4.68.604c-.622.09-1.178.248-1.782.32-5.159.605-8.292.285-8.088 6.774.08 2.576-.19 14.953.132 16.256.812 3.276 5.065 2.015 7.922 1.567 1.135-.179 2.132-.236 3.259-.453.995-.193 2.375-.18 3.294-.544Z" clip-rule="evenodd"/>
      <path fill="#fff" fill-rule="evenodd" d="m110.268 24.963-6.582.878c-2.531.354-4.62 1.085-6.808 2.549-10.196 6.82-8.116 21.102 3.215 22.175 2.144.203 4.184-.302 6.462-.533.5-.05 1.061-.15 1.595-.23 1.814-.277 2.586.16 1.881-1.617-1.163-2.93-4.615-1.575-6.742-1.404-4.259.341-7.684-.946-9.03-5.128-1.324-4.117 1.243-8.452 5.09-10.668 4.524-2.604 7.267-.587 9.802-3.207.65-.672 1.232-1.727 1.117-2.815ZM53.637 36.494c.303 1.2-.187 19.316.168 20.86 4.352-1.229 3.474-4.518 3.561-6.841.079-2.084-.137-14.085.074-14.402.197-.295.9-.279 1.11-.302.87-.096 3.095-.412 3.775-.775 1.537-.823 2.386-2.247 2.34-3.753-.423-.084-15.198 1.988-17.401 2.33-.95.146-1.03.21-.727 1.209.981 3.232 4.757 1.885 7.1 1.674Z" clip-rule="evenodd"/>
    </g>
    <g id="mainlogo__Union" class="mainlogo__Union">
      <path fill="#4E2310" fill-rule="evenodd" d="m634.774 90.778-.004-.002-.001-.001-6.488-2.191 6.493 2.194Zm-247.865 33.113-.003-.003-45.015 6.329 45.018-6.326Zm-117.488 2.914.001.001V54.448l-.001 72.357ZM330.006 49l.006.004-.005-.004h-.001Zm45.131 7.21h-.002l-8.197 8.282 8.199-8.282Zm110.742-29.118h.001l27.268-3.83.643.642.001-.003-.64-.64h-.004l-27.269 3.83Zm60.748-8.535.006.005-.005-.005h-.001Z" clip-rule="evenodd"/>
      <path fill="#4E2310" fill-rule="evenodd" d="M634.774 40.337v-22.57L622.888 5.884l-6.606 5.067c-.037-.019-6.399-3.125-14.232-2.024-9.627 1.353-17.042 5.217-22.189 11.438l-5.681-5.68-27.552 3.873.005.005-.006-.005 7.97 7.97v17.344l-9.181-11.59-11.885-11.886-20.379 2.866.64.64-.001.003-.643-.643-27.268 3.832-.001-.001-21.633 3.04 4.781 5.882-7.303 16.862-1.074-2.128 4.896-7.241-11.887-11.883-.001-.002-31.311 4.4h-.001l9.948 9.947 13.396 25.172-.005 23.803-4.616 4.836-13.055-50.998-11.885-11.885-24.593 3.457 7.626 7.626-10.35 36.96-11.438-11.434-.004-.004-10.432 28.298V64.492l8.197-8.282h.002l-11.885-11.884L330.007 49l.005.004-.006-.004 8.082 8.082v.331l-11.784-11.782-.046-.046c-6.315-6.312-17.983-8.286-34.862-5.914h-.001l-32.222 4.528 10.249 10.249v72.358l-.001-.001-10.248 9.374 11.885 11.885 41.103-5.776-10.135-10.135V105.54l3.303-.465c15.727-2.21 26.69-7.106 32.759-14.774v19.768l-8.082 8.263 11.885 11.885 45.015-6.329.003.003 25.843-3.633h.002l-6.987-6.987 3.57-13.921 4.625-.65.457 2.021-5.807 6.565 11.885 11.882 30.627-4.305 31.613-4.443-7.972-7.972v-22.18l14.698-32.545-.002 41.073-7.856 8.23-.001.002 11.885 11.883 33.017-4.642 25.283-3.554h.002l-8.084-8.085V59.433l22.272 27.46 11.881 11.88.004.004.002.001V73.933a21.957 21.957 0 0 0 1.676 1.887l11.834 11.834.049.05c4.66 4.659 11.22 6.885 19.546 6.31a41.98 41.98 0 0 0 6.489-.96c7.021-1.608 10.773-4.434 10.821-4.47l6.488 2.19.001.002.004.002V57.206l8.539-8.329-8.539-8.54Zm-116.35 46.864V43.204l2.808-2.872.002 43.996-2.81 2.873ZM305.329 60.809c2.584-.363 4.932-.382 7.028-.086.141.984.217 2.023.217 3.108-.002 7.784-3.502 13.377-10.548 16.567V61.273l3.303-.464Zm294.827-1.731c0-6.099.407-11.291 1.284-15.58l6.191 6.19-.003 21.46s-2.301 2.424-6.258 3.06c-.805-3.973-1.214-8.988-1.214-15.13Zm13.891-30.695c2.006-.282 3.894.02 5.663.733 1.133 1.8 2.12 3.535 2.954 5.002l.004.008.22.386 3.226 3.226-24.117 3.39c.663-2.465 1.513-4.576 2.568-6.334 2.214-3.69 5.328-5.827 9.482-6.411Zm-367.753 72.038v-26.1l-11.887-11.885-49.073 6.897 8.082 8.082v32.304l-9.091-9.086-10.432 28.298V91.624l8.196-8.283-11.881-11.881-33.247 4.673 8.082 8.082v14.933a25.623 25.623 0 0 0-2.296-2.643l-11.879-11.88.075.079-.083-.083c-5.232-5.23-12.466-7.722-20.995-6.524-9.58 1.347-17.468 6.77-22.774 14.712a16.553 16.553 0 0 0-.444-.463L74.761 80.46c-5.869-5.867-16.784-7.987-32.598-5.764L6.641 79.689l10.248 10.249v72.359L6.64 171.671l11.884 11.885 41.103-5.777-10.134-10.134v-22.737l12.14 19.036 11.889 11.882 26.3-3.696-11.89-11.885-.995-.829-17.972-26.066c4.408-1.439 8.269-3.32 11.5-5.627 1.282 6.951 4.117 12.689 8.192 16.763l11.856 11.856.013.014.014.014a23.45 23.45 0 0 0 1.814 1.633c5.057 4.11 11.677 5.961 19.395 4.877 8.356-1.175 15.466-5.516 20.672-11.956l6.424 6.424 47.368-6.659v-1.144l1.005 1.005 49.075-6.899v-31.275l-10.36-10.36v-5.2l-11.192-11.192 7.131-1 2.535 3.911 11.877 11.877.009.009Zm-137.752 27.75c0-1.58.027-3.093.083-4.539l1.238 1.721 9.742 9.742c-2.221 5.019-5.505 7.6-9.739 8.195l-.077.01c-.825-3.957-1.247-8.967-1.247-15.129Zm113.724-2.977v-9.438l5.901-.831.314.314-3.869 9.626-2.346.329Zm-110.432-19.258c2.231-5.107 5.562-7.744 9.889-8.361.817 3.935 1.237 8.908 1.237 15.016 0 1.716-.034 3.352-.099 4.909l-1.11-1.647-9.917-9.917Zm110.432-18.452v-1.51l1.169-.165-1.169 1.675ZM51.201 96.523c2.1-.295 4.032-.444 5.8-.452a27.897 27.897 0 0 1 2.693.11l.003.084.002.113c0 6.569-3.195 11.944-10.205 15.21V96.765l1.708-.24-.001-.002Z" clip-rule="evenodd"/>
    </g>
    <path id="mainlogo__Union (Stroke)" fill="#000" d="m55.376 165.208.24.24-.24-.377v.137ZM622.886 5.882l-6.605 5.067c-.065-.032-6.417-3.122-14.233-2.024-9.626 1.353-17.042 5.218-22.188 11.439l-5.681-5.68-27.553 3.872 7.969 7.971v17.344l-9.18-11.591-11.885-11.885-20.38 2.865h-.003l-48.902 6.871 4.781 5.882-7.304 16.863-1.074-2.128 4.896-7.241-11.888-11.885-31.311 4.4 9.947 9.947 13.396 25.172-.005 23.803-4.616 4.836-13.055-50.998-11.885-11.885-24.593 3.456 7.627 7.627-10.351 36.96-11.441-11.438-10.432 28.298V64.492l8.198-8.281-11.885-11.885L330.007 49h-.002l8.082 8.082v.33l-11.784-11.78-.046-.047c-6.315-6.313-17.983-8.286-34.861-5.914h-.002l-32.221 4.528 10.248 10.248-.001 72.357-10.247 9.375 11.885 11.885 41.103-5.777-10.135-10.134V105.54l3.303-.465c15.726-2.21 26.69-7.106 32.758-14.774v19.767l-8.082 8.264 11.885 11.884 70.861-9.959h.003l-6.987-6.987 3.569-13.92 4.625-.65.457 2.021-5.807 6.565 11.886 11.882 62.24-8.748-7.973-7.972v-22.18l14.698-32.545-.002 41.073-7.855 8.23-.001.002 11.885 11.883 58.3-8.196h.002l-8.084-8.085V59.433l22.272 27.46 11.881 11.88.004.004.002.001V73.932a21.96 21.96 0 0 0 1.676 1.888l11.833 11.834.049.05c4.661 4.658 11.22 6.884 19.546 6.31a42.059 42.059 0 0 0 5.195-.686l.703-.144c.199-.042.397-.086.591-.13 7.01-1.606 10.761-4.425 10.821-4.47l6.493 2.194V57.206l8.54-8.33-8.54-8.54V17.768L622.887 5.883ZM109.863 125.353l9.741 9.742c-2.221 5.019-5.504 7.6-9.738 8.195l-.077.009c-.825-3.957-1.247-8.966-1.248-15.127.001-1.581.028-3.095.084-4.54l1.238 1.721Zm118.617-10.115-3.868 9.627-2.347.329v-9.438l5.901-.832.314.314ZM121.722 97.575c.817 3.935 1.237 8.907 1.237 15.015 0 1.716-.034 3.352-.099 4.91l-1.11-1.648-9.917-9.917c2.232-5.107 5.562-7.743 9.889-8.36Zm-64.031-1.5c.694.013 1.362.049 2.004.106l.002.084v.113c0 6.569-3.193 11.944-10.203 15.21V96.764l1.707-.24v-.002c2.1-.295 4.032-.444 5.8-.451.233-.001.463 0 .69.005ZM187.533 85.57a5.876 5.876 0 0 1-1.263 1.908l-6.495 6.564v2.865a5.88 5.88 0 0 1 3.288-2.02 5.882 5.882 0 0 1 4.47.817V85.57Zm293.114-4.037v7.976l2.931-3.07V75.042l-2.931 6.49Zm-258.382 5.951v-1.51l1.169-.165-1.169 1.675Zm298.969-3.156-2.811 2.873V43.204l2.809-2.872.002 43.996ZM305.329 60.809c2.583-.363 4.931-.382 7.027-.086.141.984.217 2.023.217 3.108-.001 7.784-3.502 13.377-10.547 16.566V61.273l3.303-.464ZM607.63 49.69l-.003 21.46c-.02.02-2.319 2.425-6.257 3.059-.756-3.725-1.162-8.365-1.21-13.991l-.005-1.14c0-6.097.408-11.29 1.285-15.58l6.19 6.191Zm6.416-21.306c2.006-.282 3.895.019 5.663.732 1.134 1.8 2.12 3.536 2.955 5.003l.003.008.22.386 3.227 3.226-24.117 3.39c.662-2.465 1.513-4.576 2.568-6.334 2.214-3.691 5.328-5.828 9.481-6.411Zm-379.64 34.052-49.073 6.898 8.083 8.082v32.303l-9.091-9.086-10.432 28.299V91.624l8.195-8.282-11.881-11.882-33.247 4.672 8.082 8.082v14.934a25.495 25.495 0 0 0-2.295-2.643l-11.88-11.88.076.079-.083-.083c-5.232-5.23-12.467-7.722-20.996-6.524l-.893.138c-9.177 1.55-16.74 6.88-21.88 14.574a16.574 16.574 0 0 0-.445-.464L74.761 80.461c-5.868-5.867-16.783-7.987-32.597-5.765L6.64 79.689l10.248 10.248v72.36L6.64 171.671l11.885 11.884 41.102-5.776-10.133-10.134v-22.737l12.14 19.036 11.888 11.882 26.302-3.696-11.892-11.885-.995-.83-17.972-26.066c4.408-1.438 8.27-3.319 11.5-5.626 1.282 6.951 4.117 12.689 8.193 16.763l11.869 11.869.014.015.439.428c.444.421.903.822 1.374 1.205 4.899 3.981 11.265 5.843 18.675 4.969l.721-.092c8.355-1.175 15.466-5.517 20.671-11.956l6.424 6.424 47.368-6.659v-1.143l1.005 1.003 49.075-6.899v-31.274l-10.36-10.36v-5.2l-11.191-11.192 7.13-1 2.536 3.91 11.885 11.887V74.32l-11.887-11.885Zm17.77 37.986a5.88 5.88 0 0 1-3.961 5.557l2.238 2.238a5.886 5.886 0 0 1 1.723 4.16v31.274a5.883 5.883 0 0 1-5.063 5.825l-49.076 6.9a6.142 6.142 0 0 1-.503.046 6.408 6.408 0 0 1-.501.093l-47.368 6.66a5.885 5.885 0 0 1-4.979-1.667l-2.164-2.164c-5.479 4.93-12.254 8.28-19.954 9.362-9.178 1.289-17.478-.899-23.923-6.136l-.404-.338 5.741 5.738a5.884 5.884 0 0 1-3.34 9.986l-26.302 3.696a5.881 5.881 0 0 1-4.976-1.664l-4.207-4.204a5.875 5.875 0 0 1-4.711 7.821l-41.103 5.777a5.884 5.884 0 0 1-4.977-1.666L2.48 175.831a5.886 5.886 0 0 1 .188-8.5l8.336-7.626V92.374L2.48 83.848a5.882 5.882 0 0 1 3.34-9.984l35.524-4.993 1.513-.201c15.292-1.93 27.962-.113 35.686 7.263l.376.367 7.688 7.689c5.845-6.207 13.493-10.46 22.437-11.717 8.384-1.178 16.014.627 22.139 4.955a5.876 5.876 0 0 1 4.958-6.92l33.246-4.673.343-.038a5.885 5.885 0 0 1 4.636 1.704l11.881 11.881a5.864 5.864 0 0 1 1.285 1.927V79.85l-6.359-6.358a5.882 5.882 0 0 1 3.341-9.984l49.072-6.898a5.883 5.883 0 0 1 4.978 1.666l11.888 11.885a5.882 5.882 0 0 1 1.723 4.159v26.101Zm388.48-62.52 6.816 6.816a5.882 5.882 0 0 1-.052 8.37l-6.764 6.597v31.094a5.885 5.885 0 0 1-7.767 5.572l-3.896-1.317c-2.081 1.12-5.263 2.54-9.478 3.578l-.742.177a48.347 48.347 0 0 1-7.398 1.094c-9.644.665-18.002-1.912-24.11-8.018a8.015 8.015 0 0 1-.086-.087l-.012-.014-3.419-3.419v10.434a5.885 5.885 0 0 1-2.79 5.004 5.886 5.886 0 0 1-5.723.257h-.002a5.872 5.872 0 0 1-1.532-1.109l-11.881-11.88a5.806 5.806 0 0 1-.409-.454l-11.823-14.576v14.172l6.362 6.362a5.88 5.88 0 0 1-3.343 9.984l-58.299 8.197a5.881 5.881 0 0 1-4.978-1.665l-.963-.963c-.018.059-.032.119-.052.178a5.885 5.885 0 0 1-4.76 3.959l-62.239 8.748a5.88 5.88 0 0 1-4.077-.931 5.886 5.886 0 0 1-3.669 2.02l.001.001-70.863 9.959a5.884 5.884 0 0 1-4.977-1.666l-11.885-11.885a5.883 5.883 0 0 1-.046-8.273l6.405-6.548v-4.849c-6.602 3.816-14.825 6.336-24.296 7.815v19.08l8.411 8.412a5.882 5.882 0 0 1-3.341 9.985l-41.103 5.776a5.883 5.883 0 0 1-4.978-1.666l-11.885-11.884a5.882 5.882 0 0 1 .19-8.5l8.335-7.625v-67.33l-8.525-8.526a5.883 5.883 0 0 1 3.341-9.984l32.221-4.529h.002c16.892-2.373 30.965-.893 39.44 7.19l.4.39.046.046 1.335 1.336 30.635-4.306.343-.038a5.884 5.884 0 0 1 4.636 1.703l11.884 11.885a5.882 5.882 0 0 1 .021 8.298l-6.497 6.562v2.865a5.88 5.88 0 0 1 8.709-.434l4.329 4.327 6.71-23.963-5.193-5.193a5.883 5.883 0 0 1 3.341-9.985l24.594-3.456.343-.038a5.882 5.882 0 0 1 2.889.5 5.882 5.882 0 0 1 2.986-1.338l31.31-4.4.343-.037a5.883 5.883 0 0 1 4.636 1.703l.002.002.837.837a5.883 5.883 0 0 1 4.771-3.995l48.903-6.87h.003l20.379-2.866.343-.038a5.883 5.883 0 0 1 4.636 1.703l3.108 3.108a5.881 5.881 0 0 1 .248-2.653 5.884 5.884 0 0 1 4.76-3.959h.002l27.552-3.873.343-.038a5.881 5.881 0 0 1 4.635 1.704l1.523 1.523C585.6 7.234 592.827 4.28 601.231 3.1c5.769-.81 10.841.216 14.051 1.202l4.025-3.087.223-.163a5.882 5.882 0 0 1 7.516.67l11.886 11.885a5.886 5.886 0 0 1 1.724 4.16v20.134Z" class="mainlogo__Union mainlogo__(Stroke)"/>
    <g id="mainlogo__Union_2" class="mainlogo__Union">
      <mask id="mainlogo__path-5-inside-1_3304_9969" fill="#fff" class="mainlogo__path-5-inside-1_3304">
        <path d="M42.165 74.7c24.935-3.505 37.686 3.786 37.687 19.537 0 13.338-8.54 22.587-22.772 27.232l21.178 30.712 9.678 8.067-26.301 3.696-24.025-37.67v33.114l10.134 6.508-41.103 5.778 10.247-9.374V85.955L6.64 79.691 42.165 74.7Zm-17.648 62.268 2.732 23.991 2.732-24.76-2.732-4.099-2.732 4.868Zm85.349-58.872c17.876-2.513 30.059 11.182 30.059 32.338 0 21.04-12.183 38.045-30.059 40.557-18.103 2.544-30.173-11.052-30.173-32.093 0-21.155 12.07-38.258 30.173-40.802Zm52.142 1.641v55.075l10.247-1.441 12.069-32.739v38.172l-47.365 6.657 8.084-8.265V82.122l-8.084-5.992 33.246-4.673-8.197 8.28Zm-39.048 32.851c0-20.35-4.668-28.087-13.094-26.903-8.539 1.2-13.208 10.25-13.208 30.6 0 20.466 4.669 28.203 13.208 27.003 8.426-1.184 13.094-10.234 13.094-30.7Zm111.446-24.05-10.588-16.334-13.435 1.888v21.731l6.718-.944 6.945-9.944v25.87l-6.945-7.878-6.718.944v22.995l14.232-2 9.791-24.371v31.274l-49.072 6.896 8.084-8.265V75.326l-8.084-5.992 49.072-6.897v26.1Zm56.991-48.873c26.757-3.76 40.419 3.403 40.419 21.454 0 17.936-12.979 28.5-38.37 32.067l-3.301.464v30.24l10.133 6.508-41.103 5.777 10.248-9.373V50.457l-10.248-6.264 32.222-4.528ZM24.289 123.088l2.847 3.738 2.96-4.555-2.96-3.837-2.847 4.654Zm252.876-21.635 2.618 24.007 2.734-24.759-2.734-4.1-2.618 4.852Zm-160.581 12.491-6.718 11.408-6.832-9.503 6.832-11.883 6.718 9.978Zm449.395-90.978v63.928l-34.157-42.11V82.84l8.084 5.992-26.757 3.76-31.547 4.434 7.856-8.233V33.72l-5.75-4.41-5.912 6.046-14.915 33.026v24.145l7.97 6.008-31.608 4.442.001.001-30.628 4.304 5.807-6.565-3.416-15.157-13.549 1.904-4.099 15.983 7.515 4.923-23.502 3.302v.002l-47.364 6.657 8.084-8.265V54.992L330.008 49l33.246-4.672-8.197 8.28v55.075l10.247-1.441 12.068-32.739v36.214l6.195-6.042 16.054-57.33-8.084-5.993 24.594-3.456 15.371 60.041 7.041 5.494 7.145-7.487v-23.8l-15.484-29.097-7.856-6.024 31.31-4.402-4.895 7.242 10.247 20.29 10.019-23.138-4.782-5.881 21.633-3.041-.003.002 28.744-4.04-.002.002 18.911-2.658 21.064 26.588v-22.42l-7.97-6.008 27.554-3.873-8.199 8.28ZM59.699 96.38c0-9.313-6.604-13.673-20.38-11.737l-1.709.24v29.778l1.594-.223c14.232-2.001 20.495-8.86 20.495-18.058Zm-35.182 12.648 2.619 4.117 2.845-4.885-2.845-23.745-2.62 24.513Zm482.02-77.708v55.074l7.348 5.447 7.348-7.512V29.255l-7.349-5.447-7.347 7.512ZM276.823 87.59l2.96 3.724 2.847-4.54-2.847-3.854-2.96 4.67Zm35.752-23.766c0-10.693-6.946-16.615-19.129-14.903l-3.301.464v33.918l2.504-.352c13.322-1.872 19.926-8.434 19.926-19.127Zm310.316-29.306c-3.758-6.6-10.816-19.406-20.722-18.014-9.906 1.392-13.891 11.61-13.891 30.696 0 20.236 4.441 28.235 12.867 27.051 4.098-.576 6.489-3.097 6.489-3.097v-23.8l-8.197-5.86 31.994-4.498-8.54 8.33v33.572l-6.49-2.192s-5.01 3.809-14.346 5.121c-20.039 2.816-30.856-9.346-30.856-31.997 0-23.915 10.475-38.034 30.856-40.898 7.831-1.101 14.192 2.004 14.232 2.023l6.604-5.067v28.63Zm-223.27 44.365 9.565-1.344-4.441-18.923-5.124 20.267Zm-122.456-5.368 2.618 4.116 2.734-4.868L279.783 49l-2.618 24.513Z"/>
      </mask>
      <path fill="#E32B0F" d="M42.165 74.7c24.935-3.505 37.686 3.786 37.687 19.537 0 13.338-8.54 22.587-22.772 27.232l21.178 30.712 9.678 8.067-26.301 3.696-24.025-37.67v33.114l10.134 6.508-41.103 5.778 10.247-9.374V85.955L6.64 79.691 42.165 74.7Zm-17.648 62.268 2.732 23.991 2.732-24.76-2.732-4.099-2.732 4.868Zm85.349-58.872c17.876-2.513 30.059 11.182 30.059 32.338 0 21.04-12.183 38.045-30.059 40.557-18.103 2.544-30.173-11.052-30.173-32.093 0-21.155 12.07-38.258 30.173-40.802Zm52.142 1.641v55.075l10.247-1.441 12.069-32.739v38.172l-47.365 6.657 8.084-8.265V82.122l-8.084-5.992 33.246-4.673-8.197 8.28Zm-39.048 32.851c0-20.35-4.668-28.087-13.094-26.903-8.539 1.2-13.208 10.25-13.208 30.6 0 20.466 4.669 28.203 13.208 27.003 8.426-1.184 13.094-10.234 13.094-30.7Zm111.446-24.05-10.588-16.334-13.435 1.888v21.731l6.718-.944 6.945-9.944v25.87l-6.945-7.878-6.718.944v22.995l14.232-2 9.791-24.371v31.274l-49.072 6.896 8.084-8.265V75.326l-8.084-5.992 49.072-6.897v26.1Zm56.991-48.873c26.757-3.76 40.419 3.403 40.419 21.454 0 17.936-12.979 28.5-38.37 32.067l-3.301.464v30.24l10.133 6.508-41.103 5.777 10.248-9.373V50.457l-10.248-6.264 32.222-4.528ZM24.289 123.088l2.847 3.738 2.96-4.555-2.96-3.837-2.847 4.654Zm252.876-21.635 2.618 24.007 2.734-24.759-2.734-4.1-2.618 4.852Zm-160.581 12.491-6.718 11.408-6.832-9.503 6.832-11.883 6.718 9.978Zm449.395-90.978v63.928l-34.157-42.11V82.84l8.084 5.992-26.757 3.76-31.547 4.434 7.856-8.233V33.72l-5.75-4.41-5.912 6.046-14.915 33.026v24.145l7.97 6.008-31.608 4.442.001.001-30.628 4.304 5.807-6.565-3.416-15.157-13.549 1.904-4.099 15.983 7.515 4.923-23.502 3.302v.002l-47.364 6.657 8.084-8.265V54.992L330.008 49l33.246-4.672-8.197 8.28v55.075l10.247-1.441 12.068-32.739v36.214l6.195-6.042 16.054-57.33-8.084-5.993 24.594-3.456 15.371 60.041 7.041 5.494 7.145-7.487v-23.8l-15.484-29.097-7.856-6.024 31.31-4.402-4.895 7.242 10.247 20.29 10.019-23.138-4.782-5.881 21.633-3.041-.003.002 28.744-4.04-.002.002 18.911-2.658 21.064 26.588v-22.42l-7.97-6.008 27.554-3.873-8.199 8.28ZM59.699 96.38c0-9.313-6.604-13.673-20.38-11.737l-1.709.24v29.778l1.594-.223c14.232-2.001 20.495-8.86 20.495-18.058Zm-35.182 12.648 2.619 4.117 2.845-4.885-2.845-23.745-2.62 24.513Zm482.02-77.708v55.074l7.348 5.447 7.348-7.512V29.255l-7.349-5.447-7.347 7.512ZM276.823 87.59l2.96 3.724 2.847-4.54-2.847-3.854-2.96 4.67Zm35.752-23.766c0-10.693-6.946-16.615-19.129-14.903l-3.301.464v33.918l2.504-.352c13.322-1.872 19.926-8.434 19.926-19.127Zm310.316-29.306c-3.758-6.6-10.816-19.406-20.722-18.014-9.906 1.392-13.891 11.61-13.891 30.696 0 20.236 4.441 28.235 12.867 27.051 4.098-.576 6.489-3.097 6.489-3.097v-23.8l-8.197-5.86 31.994-4.498-8.54 8.33v33.572l-6.49-2.192s-5.01 3.809-14.346 5.121c-20.039 2.816-30.856-9.346-30.856-31.997 0-23.915 10.475-38.034 30.856-40.898 7.831-1.101 14.192 2.004 14.232 2.023l6.604-5.067v28.63Zm-223.27 44.365 9.565-1.344-4.441-18.923-5.124 20.267Zm-122.456-5.368 2.618 4.116 2.734-4.868L279.783 49l-2.618 24.513Z"/>
      <path fill="url(#mainlogo__paint0_linear_3304_9969)" d="m42.165 74.7.278 1.98-.278-1.98Zm37.687 19.537h2-2ZM57.08 121.47l-.62-1.902-2.547.832 1.52 2.205 1.647-1.135Zm21.178 30.712-1.647 1.135.156.226.21.175 1.28-1.536Zm9.678 8.067.278 1.981 4.468-.628-3.466-2.889-1.28 1.536Zm-26.301 3.696-1.686 1.076.69 1.084 1.274-.179-.278-1.981Zm-24.025-37.67 1.687-1.075-3.687-5.78v6.855h2Zm0 33.114h-2v1.092l.92.59 1.08-1.682Zm10.134 6.508.279 1.981 5.337-.75-4.535-2.913-1.08 1.682Zm-41.103 5.778-1.35-1.476-4.76 4.354 6.388-.898-.278-1.98Zm10.247-9.374 1.35 1.475.65-.594v-.881h-2Zm0-76.345h2v-1.121l-.957-.585-1.043 1.706ZM6.64 79.691l-.279-1.98-5.526.776 4.762 2.91 1.043-1.706Zm17.876 57.277-1.744-.979-.317.563.073.642 1.988-.226Zm2.732 23.991-1.987.226 3.975-.007-1.988-.219Zm2.732-24.76 1.988.22.08-.724-.403-.605-1.665 1.109Zm-2.73-4.099 1.664-1.11-1.81-2.716-1.598 2.847 1.744.979Zm82.617-54.004-.278-1.98.278 1.98Zm30.059 32.338h2-2Zm-30.059 40.557.279 1.981-.279-1.981Zm-30.173-32.093h-2 2Zm82.315-39.16-1.422-1.408-.578.585v.822h2Zm0 55.074h-2v2.3l2.278-.32-.278-1.98Zm10.247-1.441.278 1.981 1.185-.167.413-1.122-1.876-.692Zm12.069-32.739h2l-3.876-.692 1.876.692Zm0 38.172.279 1.98 1.721-.242v-1.738h-2Zm-47.365 6.657-1.43-1.399-4.104 4.196 5.812-.817-.278-1.98Zm8.084-8.265 1.43 1.399.57-.583v-.816h-2Zm0-55.074h2v-1.007l-.809-.6-1.191 1.607Zm-8.084-5.992-.278-1.98-4.836.679 3.923 2.908 1.191-1.607Zm33.246-4.673 1.421 1.407 4.171-4.213-5.87.826.278 1.98Zm-47.245 41.131h2-2Zm-13.094-26.903-.278-1.981.278 1.98Zm-13.208 30.6h-2 2Zm13.208 27.003.279 1.981-.279-1.981Zm124.54-54.75-1.678 1.087 3.678 5.674v-6.762h-2Zm-10.588-16.334 1.679-1.088-.694-1.07-1.263.178.278 1.98Zm-13.435 1.888-.278-1.98-1.722.241v1.739h2Zm0 21.731h-2v2.301l2.278-.32-.278-1.98Zm6.718-.944.278 1.98.863-.12.498-.715-1.639-1.145Zm6.945-9.944h2v-6.357l-3.64 5.211 1.64 1.146Zm0 25.87-1.5 1.322 3.5 3.971v-5.293h-2Zm-6.945-7.878 1.5-1.323-.712-.808-1.067.15.279 1.981Zm-6.718.944-.279-1.98-1.721.242v1.738h2Zm0 22.995h-2v2.301l2.278-.32-.278-1.981Zm14.232-2 .279 1.981 1.146-.161.431-1.074-1.856-.746Zm9.791-24.371h2l-3.856-.746 1.856.746Zm0 31.274.279 1.98 1.721-.242v-1.738h-2Zm-49.072 6.896-1.43-1.398-4.104 4.195 5.812-.816-.278-1.981Zm8.084-8.265 1.43 1.399.57-.583v-.816h-2Zm0-55.074h2V74.32l-.809-.6-1.191 1.607Zm-8.084-5.992-.278-1.98-4.836.679 3.923 2.908 1.191-1.607Zm49.072-6.897h2v-2.3l-2.278.32.278 1.98Zm56.991-22.772.279 1.98-.279-1.98Zm40.419 21.454h2-2Zm-38.37 32.067.279 1.981-.279-1.98Zm-3.301.464-.279-1.98-1.721.242v1.738h2Zm0 30.24h-2v1.092l.919.59 1.081-1.682Zm10.133 6.508.279 1.981 5.338-.75-4.536-2.913-1.081 1.682Zm-41.103 5.777-1.35-1.476-4.761 4.354 6.389-.898-.278-1.98Zm10.248-9.373 1.35 1.476.65-.595v-.881h-2Zm0-76.345h2v-1.121l-.957-.585-1.043 1.706Zm-10.248-6.264-.279-1.98-5.526.776 4.762 2.91 1.043-1.706ZM24.289 123.088l-1.706-1.044-.714 1.167.829 1.089 1.591-1.212Zm2.847 3.738-1.591 1.212 1.72 2.259 1.548-2.381-1.677-1.09Zm2.96-4.555 1.677 1.09.772-1.188-.866-1.123-1.583 1.221Zm-2.96-3.837 1.583-1.222-1.774-2.3-1.515 2.478 1.706 1.044Zm250.029-16.981-1.76-.95-.296.548.068.619 1.988-.217Zm2.618 24.007-1.988.217 3.976.002-1.988-.219Zm2.734-24.759 1.988.22.079-.724-.403-.605-1.664 1.109Zm-2.734-4.1 1.664-1.11-1.845-2.767-1.579 2.927 1.76.95Zm-163.199 17.343 1.723 1.015.64-1.086-.704-1.046-1.659 1.117Zm-6.718 11.408-1.624 1.167 1.791 2.491 1.557-2.644-1.724-1.014Zm-6.832-9.503-1.734-.997-.642 1.117.752 1.047 1.624-1.167Zm6.832-11.883 1.659-1.117-1.793-2.663-1.6 2.783 1.734.997Zm456.113-81-1.421-1.407-.579.584v.823h2Zm0 63.928-1.553 1.26 3.553 4.38v-5.64h-2Zm-34.157-42.11 1.554-1.26-3.554-4.381v5.64h2Zm0 38.057h-2v1.007l.809.6 1.191-1.607Zm8.084 5.992.279 1.98 4.835-.68-3.923-2.907-1.191 1.607Zm-26.757 3.76h-2v2.301l2.279-.32-.279-1.98Zm0 0h2v-2.301l-2.278.32.278 1.98Zm-31.547 4.434-1.447-1.38-3.972 4.162 5.697-.801-.278-1.98Zm7.856-8.233 1.447 1.38.553-.579v-.801h-2Zm0-55.074h2v-.987l-.783-.6-1.217 1.587Zm-5.75-4.41 1.217-1.587-1.407-1.079-1.24 1.268 1.43 1.399Zm-5.912 6.046-1.43-1.398-.247.253-.146.322 1.823.823Zm-14.915 33.026-1.823-.823-.177.392v.43h2Zm0 24.145h-2v.997l.796.6 1.204-1.597Zm7.97 6.008.278 1.981 4.78-.672-3.855-2.906-1.203 1.597Zm-31.608 4.442-.278-1.981-3.973.558 2.837 2.837 1.414-1.414Zm.001.001.279 1.98 3.972-.558-2.837-2.837-1.414 1.415Zm-30.628 4.304-1.498-1.325-3.591 4.06 5.368-.754-.279-1.981Zm5.807-6.565 1.498 1.325.678-.767-.225-.998-1.951.44Zm-3.416-15.157 1.951-.44-.405-1.797-1.825.256.279 1.98Zm-13.549 1.904-.278-1.98-1.327.186-.332 1.297 1.937.497Zm-4.099 15.983-1.937-.497-.355 1.386 1.196.784 1.096-1.673Zm7.515 4.923.278 1.981 5.266-.74-4.448-2.914-1.096 1.673Zm-23.502 3.302-.278-1.981-1.722.242v1.739h2Zm0 .002.278 1.98 1.722-.242v-1.738h-2Zm-47.364 6.657-1.43-1.398-4.104 4.196 5.812-.817-.278-1.981Zm8.084-8.265 1.43 1.399.57-.583v-.816h-2Zm0-55.074h2v-1.007l-.809-.6-1.191 1.607ZM330.008 49l-.279-1.98-4.834.679 3.922 2.908L330.008 49Zm33.246-4.672 1.421 1.407 4.17-4.212-5.869.825.278 1.98Zm-8.197 8.28-1.422-1.407-.578.585v.822h2Zm0 55.075h-2v2.3l2.278-.32-.278-1.98Zm10.247-1.441.278 1.981 1.185-.167.413-1.122-1.876-.692Zm12.068-32.739h2l-3.876-.692 1.876.692Zm0 36.214h-2v4.744l3.396-3.312-1.396-1.432Zm6.195-6.042 1.397 1.432.384-.375.145-.518-1.926-.539Zm16.054-57.33 1.926.54.371-1.327-1.106-.82-1.191 1.607Zm-8.084-5.993-.278-1.981-4.835.68 3.922 2.907 1.191-1.606Zm24.594-3.456 1.937-.497-.443-1.733-1.772.249.278 1.98Zm15.371 60.041-1.938.496.17.662.538.42 1.23-1.578Zm7.041 5.494-1.23 1.577 1.427 1.113 1.25-1.309-1.447-1.381Zm7.145-7.487 1.447 1.381.553-.58v-.8h-2Zm0-23.8h2v-.5l-.234-.44-1.766.94Zm-15.484-29.097 1.766-.94-.204-.383-.345-.264-1.217 1.587Zm-7.856-6.024-.279-1.981-4.725.664 3.787 2.904 1.217-1.587Zm31.31-4.402 1.657 1.12 2.519-3.727-4.454.627.278 1.98Zm-4.895 7.242-1.657-1.12-.658.973.529 1.049 1.786-.902Zm10.247 20.29-1.785.902 1.924 3.81 1.696-3.917-1.835-.795Zm10.019-23.138 1.836.794.482-1.114-.766-.942-1.552 1.262Zm-4.782-5.881-.278-1.98-3.509.492 2.235 2.75 1.552-1.262Zm21.633-3.041 1.109 1.664-1.388-3.645.279 1.98Zm-.003.002-1.109-1.664 1.387 3.644-.278-1.98Zm28.744-4.04.895 1.79-1.173-3.77.278 1.98Zm-.002.002-.894-1.79 1.172 3.77-.278-1.98Zm18.911-2.658 1.568-1.241-.711-.898-1.135.159.278 1.98Zm21.064 26.588-1.568 1.242 3.568 4.504v-5.746h-2Zm0-22.42h2v-.996l-.796-.6-1.204 1.596Zm-7.97-6.008-.278-1.98-4.78.67 3.854 2.907 1.204-1.597Zm27.554-3.873 1.421 1.408 4.171-4.213-5.871.825.279 1.98ZM59.699 96.38h2-2ZM39.32 84.643l-.279-1.981.278 1.98Zm-1.709.24-.278-1.98-1.722.241v1.739h2Zm0 29.778h-2v2.3l2.278-.319-.278-1.981Zm1.594-.223.278 1.98-.278-1.98Zm-14.687-5.41-1.99-.212-.073.696.375.59 1.688-1.074Zm2.619 4.117-1.688 1.073 1.763 2.77 1.653-2.837-1.728-1.006Zm2.845-4.885 1.729 1.007.337-.58-.08-.665-1.986.238Zm-2.845-23.745 1.986-.238-3.975.025 1.989.213Zm479.4-53.195-1.43-1.398-.57.583v.815h2Zm0 55.074h-2V87.4l.809.6 1.191-1.606Zm7.348 5.447-1.191 1.607 1.401 1.038 1.219-1.247-1.429-1.398Zm7.348-7.512 1.43 1.399.57-.583v-.816h-2Zm0-55.074h2v-1.007l-.809-.6-1.191 1.607Zm-7.349-5.447 1.191-1.607-1.402-1.039-1.219 1.247 1.43 1.399Zm-237.061 63.78-1.689-1.07-.762 1.202.886 1.113 1.565-1.244Zm2.96 3.725-1.565 1.244 1.758 2.212 1.502-2.394-1.695-1.063Zm2.847-4.54 1.694 1.062.724-1.155-.809-1.096-1.609 1.188Zm-2.847-3.854 1.609-1.188-1.735-2.349-1.563 2.466 1.689 1.07Zm32.792-19.096h2-2ZM293.446 48.92l.279 1.98-.279-1.98Zm-3.301.464-.279-1.98-1.721.241v1.739h2Zm0 33.918h-2v2.3l2.278-.32-.278-1.98Zm2.504-.352.278 1.98h.001l-.279-1.98Zm330.242-48.433-1.738.989 3.738 6.567v-7.556h-2Zm-20.722-18.014-.278-1.98.278 1.98Zm-13.891 30.696h-2 2Zm12.867 27.051.278 1.98-.278-1.98Zm6.489-3.097 1.451 1.377.549-.58v-.797h-2Zm0-23.8h2v-1.028l-.837-.598-1.163 1.627Zm-8.197-5.86-.279-1.981-4.956.696 4.071 2.911 1.164-1.627Zm31.994-4.498 1.396 1.432 4.37-4.262-6.045.85.279 1.98Zm-8.54 8.33-1.397-1.433-.603.59v.842h2Zm0 33.572-.641 1.895 2.641.892v-2.787h-2Zm-6.49-2.192.641-1.895-1.006-.34-.845.643 1.21 1.592Zm-14.346 5.121.278 1.98-.278-1.98ZM571.199 49.83h-2 2Zm30.856-40.898-.279-1.98.279 1.98Zm14.232 2.023-.879 1.796 1.113.545.984-.754-1.218-1.587Zm6.604-5.067h2V1.83l-3.218 2.47 1.218 1.587Zm-223.27 72.995-1.939-.49-.729 2.884 2.946-.414-.278-1.98Zm9.565-1.344.278 1.98 2.169-.304-.5-2.133-1.947.457Zm-4.441-18.923 1.947-.457-3.886-.033 1.939.49Zm-127.58 14.899-1.989-.213-.074.696.375.59 1.688-1.073Zm2.618 4.116-1.687 1.073 1.794 2.822 1.637-2.916-1.744-.98Zm2.734-4.868 1.744.979.316-.565-.074-.643-1.986.229ZM279.783 49l1.987-.229-3.975.017 1.988.212ZM42.165 74.699l.278 1.98c12.305-1.728 21.222-.727 26.976 2.334 5.566 2.96 8.432 7.984 8.433 15.224h4c0-8.511-3.51-15.008-10.554-18.755-6.855-3.647-16.782-4.538-29.411-2.763l.278 1.98Zm37.687 19.538h-2c0 6.209-1.975 11.389-5.567 15.573-3.615 4.212-8.958 7.516-15.825 9.757l.62 1.902.62 1.901c7.365-2.403 13.408-6.046 17.62-10.955 4.237-4.935 6.532-11.049 6.532-18.178h-2ZM57.08 121.47l-1.646 1.135 21.177 30.712 1.647-1.135 1.646-1.136-21.177-30.712-1.647 1.136Zm21.178 30.712-1.28 1.536 9.677 8.067 1.28-1.536 1.281-1.536-9.678-8.068-1.28 1.537Zm9.678 8.067-.279-1.98-26.3 3.696.278 1.98.278 1.981 26.3-3.696-.277-1.981Zm-26.301 3.696 1.686-1.075-24.024-37.67-1.687 1.075-1.686 1.076 24.025 37.67 1.686-1.076Zm-24.025-37.67h-2v33.114h4v-33.114h-2Zm0 33.114-1.08 1.682 10.133 6.509 1.081-1.683 1.081-1.682-10.134-6.509-1.08 1.683Zm10.134 6.508-.278-1.98-41.104 5.777.279 1.981.278 1.98 41.104-5.777-.279-1.981Zm-41.103 5.778 1.35 1.476 10.247-9.375-1.35-1.475-1.35-1.476-10.247 9.374 1.35 1.476Zm10.247-9.374h2V85.955h-4V162.3h2Zm0-76.345 1.043-1.706-10.247-6.264-1.043 1.706-1.043 1.707 10.247 6.264 1.043-1.707ZM6.64 79.691l.278 1.98 35.524-4.991-.278-1.98-.278-1.981L6.362 77.71l.279 1.98Zm17.876 57.277-1.988.226 2.733 23.991 1.987-.226 1.987-.226-2.732-23.992-1.987.227Zm2.732 23.991 1.988.219 2.732-24.759-1.988-.22-1.988-.219-2.732 24.76 1.988.219Zm2.732-24.76 1.665-1.109-2.733-4.1-1.664 1.11-1.664 1.109 2.732 4.099 1.664-1.109Zm-2.73-4.099-1.744-.979-2.732 4.868 1.744.979 1.744.979 2.732-4.868-1.744-.979Zm82.617-54.004.279 1.98c8.322-1.17 15.17 1.423 19.98 6.666 4.858 5.293 7.8 13.474 7.8 23.692h4c0-10.939-3.15-20.182-8.853-26.397-5.749-6.266-13.931-9.264-23.484-7.922l.278 1.98Zm30.059 32.338h-2c0 20.348-11.723 36.242-28.337 38.577l.278 1.98.279 1.981c19.137-2.69 31.78-20.806 31.78-42.538h-2Zm-30.059 40.557-.278-1.98c-8.451 1.187-15.325-1.384-20.128-6.58-4.852-5.247-7.767-13.37-7.767-23.533h-4c0 10.879 3.12 20.074 8.83 26.249 5.757 6.227 13.969 9.181 23.622 7.825l-.279-1.981Zm-30.173-32.093h2c0-20.474 11.62-36.456 28.452-38.822l-.279-1.98-.278-1.98c-19.374 2.722-31.894 20.946-31.895 42.782h2Zm82.315-39.16h-2v55.074h4V79.737h-2Zm0 55.074.278 1.98 10.247-1.44-.278-1.981-.279-1.98-10.247 1.44.279 1.981Zm10.247-1.441 1.876.692 12.07-32.739-1.877-.692-1.876-.692-12.07 32.739 1.877.692Zm12.069-32.739h-2v38.172h4v-38.172h-2Zm0 38.172-.278-1.981-47.365 6.657.278 1.981.278 1.98 47.366-6.657-.279-1.98Zm-47.365 6.657 1.43 1.398 8.084-8.264-1.43-1.399-1.43-1.398-8.084 8.264 1.43 1.399Zm8.084-8.265h2V82.122h-4v55.074h2Zm0-55.074 1.191-1.607-8.084-5.992-1.191 1.607-1.191 1.607 8.084 5.992 1.191-1.607Zm-8.084-5.992.278 1.98 33.246-4.672-.278-1.981-.278-1.98-33.246 4.672.278 1.98Zm33.246-4.673-1.421-1.407-8.198 8.28 1.422 1.407 1.421 1.407 8.197-8.28-1.421-1.407Zm-47.245 41.131h2c0-10.242-1.16-17.667-3.608-22.44-1.245-2.428-2.872-4.266-4.935-5.38-2.071-1.12-4.391-1.407-6.829-1.064l.278 1.98.279 1.981c1.774-.25 3.197-.013 4.371.621 1.182.64 2.302 1.785 3.277 3.687 1.993 3.887 3.167 10.506 3.167 20.615h2Zm-13.094-26.903-.278-1.981c-5.066.712-8.887 3.811-11.351 9.277-2.41 5.343-3.579 13.031-3.579 23.304h4c0-10.078 1.165-17.09 3.225-21.66 2.005-4.446 4.789-6.472 8.262-6.96l-.279-1.98Zm-13.208 30.6h-2c0 10.297 1.16 17.754 3.624 22.541 1.254 2.437 2.894 4.278 4.975 5.391 2.088 1.116 4.426 1.398 6.888 1.052l-.279-1.981-.278-1.98c-1.809.254-3.256.018-4.445-.618-1.196-.64-2.324-1.788-3.305-3.694-2.005-3.897-3.18-10.542-3.18-20.711h-2Zm13.208 27.003.279 1.981c5.02-.706 8.808-3.812 11.254-9.284 2.391-5.353 3.561-13.067 3.561-23.397h-4c0 10.136-1.165 17.18-3.213 21.765-1.996 4.465-4.754 6.476-8.159 6.955l.278 1.98Zm124.54-54.75 1.678-1.089-10.587-16.333-1.679 1.088-1.678 1.088 10.588 16.333 1.678-1.088Zm-10.588-16.334-.278-1.98-13.435 1.887.278 1.98.278 1.981 13.436-1.887-.279-1.98Zm-13.435 1.888h-2v21.731h4V74.092h-2Zm0 21.731.278 1.98 6.718-.944-.278-1.98-.279-1.98-6.718.944.279 1.98Zm6.718-.944 1.639 1.145 6.946-9.944-1.64-1.145-1.64-1.146-6.945 9.945 1.64 1.145Zm6.945-9.944h-2v25.87h4v-25.87h-2Zm0 25.87 1.5-1.323-6.945-7.878-1.5 1.323-1.501 1.322 6.946 7.878 1.5-1.322Zm-6.945-7.878-.279-1.981-6.718.945.279 1.98.278 1.981 6.718-.945-.278-1.98Zm-6.718.944h-2v22.995h4v-22.995h-2Zm0 22.995.278 1.981 14.233-2-.279-1.981-.278-1.98-14.233 2 .279 1.98Zm14.232-2 1.856.746 9.791-24.371-1.856-.746-1.856-.746-9.791 24.372 1.856.745Zm9.791-24.371h-2v31.274h4v-31.274h-2Zm0 31.274-.278-1.981-49.072 6.897.278 1.98.278 1.981 49.073-6.897-.279-1.98Zm-49.072 6.896 1.43 1.399 8.084-8.265-1.43-1.399-1.43-1.398-8.084 8.265 1.43 1.398Zm8.084-8.265h2V75.326h-4V130.4h2Zm0-55.074 1.191-1.607-8.084-5.992-1.191 1.607-1.191 1.607 8.084 5.992 1.191-1.607Zm-8.084-5.992.278 1.98 49.073-6.896-.279-1.98-.278-1.981-49.072 6.896.278 1.981Zm49.072-6.897h-2v26.1h4v-26.1h-2Zm56.991-22.772.279 1.98c13.244-1.86 22.832-.944 29.029 2.335 5.98 3.165 9.111 8.7 9.111 17.14h4c0-9.613-3.699-16.685-11.24-20.675-7.323-3.875-17.944-4.66-31.457-2.76l.278 1.98Zm40.419 21.454h-2c0 8.416-3.012 14.96-8.941 19.883-6.016 4.994-15.192 8.445-27.707 10.204l.278 1.98.279 1.981c12.875-1.81 22.884-5.424 29.705-11.087 6.908-5.736 10.386-13.44 10.386-22.96h-2Zm-38.37 32.067-.278-1.98-3.302.464.279 1.98.278 1.98 3.302-.463-.279-1.98Zm-3.301.464h-2v30.24h4V93.65h-2Zm0 30.24-1.081 1.682 10.133 6.509 1.081-1.683 1.081-1.682-10.134-6.509-1.08 1.683Zm10.133 6.508-.278-1.98-41.104 5.776.279 1.981.278 1.98 41.104-5.776-.279-1.981Zm-41.103 5.777 1.35 1.476 10.248-9.373-1.35-1.476-1.35-1.476-10.248 9.373 1.35 1.476Zm10.248-9.373h2V50.457h-4v76.345h2Zm0-76.345 1.043-1.706-10.248-6.264-1.043 1.706-1.043 1.707 10.248 6.264 1.043-1.707Zm-10.248-6.264.278 1.98 32.223-4.527-.279-1.981-.278-1.98-32.223 4.528.279 1.98ZM24.289 123.088l-1.591 1.212 2.847 3.738 1.59-1.212 1.592-1.212-2.847-3.738-1.59 1.212Zm2.847 3.738 1.677 1.09 2.96-4.555-1.677-1.09-1.677-1.089-2.96 4.554 1.677 1.09Zm2.96-4.555 1.583-1.221-2.96-3.838-1.583 1.222-1.584 1.221 2.96 3.838 1.584-1.222Zm-2.96-3.837-1.706-1.044-2.847 4.654 1.706 1.044 1.706 1.043 2.847-4.654-1.706-1.043Zm250.029-16.981-1.988.217 2.618 24.007 1.988-.217 1.988-.217-2.618-24.007-1.988.217Zm2.618 24.007 1.988.219 2.734-24.758-1.988-.22-1.988-.219-2.734 24.758 1.988.22Zm2.734-24.759 1.664-1.11-2.734-4.1-1.664 1.11-1.664 1.109 2.733 4.1 1.665-1.109Zm-2.734-4.1-1.76-.95-2.618 4.852 1.76.95 1.76.95 2.618-4.853-1.76-.95Zm-163.199 17.343-1.723-1.015-6.718 11.408 1.723 1.015 1.724 1.014 6.717-11.407-1.723-1.015Zm-6.718 11.408 1.624-1.168-6.832-9.503-1.624 1.168-1.624 1.167 6.832 9.503 1.624-1.167Zm-6.832-9.503 1.734.997 6.832-11.883-1.734-.997-1.734-.997-6.832 11.883 1.734.997Zm6.832-11.883-1.659 1.117 6.718 9.978 1.659-1.117 1.659-1.117-6.718-9.978-1.659 1.117Zm456.113-81h-2v63.928h4V22.966h-2Zm0 63.928 1.554-1.26-34.157-42.11-1.554 1.26-1.553 1.26 34.157 42.11 1.553-1.26Zm-34.157-42.11h-2V82.84h4V44.783h-2Zm0 38.057-1.191 1.607 8.084 5.992 1.191-1.607 1.191-1.607-8.084-5.992-1.191 1.607Zm8.084 5.992-.278-1.98-26.757 3.76.278 1.98.279 1.981 26.757-3.76-.279-1.981Zm-26.757 3.76h2-4 2Zm0 0-.278-1.98-31.548 4.434.279 1.98.278 1.98 31.548-4.434-.279-1.98Zm-31.547 4.434 1.447 1.381 7.856-8.233-1.447-1.381-1.447-1.38-7.856 8.233 1.447 1.38Zm7.856-8.233h2V33.72h-4v55.074h2Zm0-55.074 1.217-1.587-5.75-4.41-1.217 1.588-1.217 1.587 5.75 4.409 1.217-1.587Zm-5.75-4.41-1.43-1.398-5.912 6.046 1.43 1.398 1.43 1.399 5.912-6.046-1.43-1.398Zm-5.912 6.046-1.823-.823-14.915 33.026 1.823.823 1.823.823 14.915-33.025-1.823-.824Zm-14.915 33.026h-2v24.145h4V68.382h-2Zm0 24.145-1.204 1.597 7.97 6.008 1.204-1.597 1.203-1.597-7.969-6.008-1.204 1.597Zm7.97 6.008-.279-1.98-31.607 4.441.278 1.981.278 1.98 31.608-4.441-.278-1.98Zm-31.608 4.442-1.414 1.414.001.001 1.414-1.414 1.414-1.415-.001-.001-1.414 1.415Zm.001.001-.278-1.981-30.628 4.305.278 1.98.279 1.981 30.628-4.305-.279-1.98Zm-30.628 4.304 1.498 1.325 5.807-6.565-1.498-1.325-1.498-1.325-5.807 6.565 1.498 1.325Zm5.807-6.565 1.951-.44-3.416-15.157-1.951.44-1.951.44 3.416 15.157 1.951-.44Zm-3.416-15.157-.279-1.981-13.548 1.904.278 1.98.278 1.981 13.549-1.904-.278-1.98Zm-13.549 1.904-1.937-.497-4.099 15.983 1.937.497 1.938.497 4.098-15.983-1.937-.497Zm-4.099 15.983-1.096 1.673 7.515 4.923 1.096-1.673 1.096-1.673-7.515-4.923-1.096 1.673Zm7.515 4.923-.278-1.98-23.502 3.301.278 1.981.278 1.98 23.502-3.301-.278-1.981Zm-23.502 3.302h-2v.002h4v-.002h-2Zm0 .002-.278-1.981-47.365 6.658.279 1.98.278 1.981 47.364-6.658-.278-1.98Zm-47.364 6.657 1.43 1.399 8.084-8.265-1.43-1.399-1.43-1.398-8.084 8.265 1.43 1.398Zm8.084-8.265h2V54.992h-4v55.074h2Zm0-55.074 1.191-1.606-8.084-5.994L330.008 49l-1.191 1.607 8.084 5.993 1.191-1.607ZM330.008 49l.278 1.98 33.246-4.671-.278-1.98-.278-1.981-33.247 4.672.279 1.98Zm33.246-4.672-1.421-1.407-8.198 8.28 1.422 1.407 1.421 1.407 8.197-8.28-1.421-1.407Zm-8.197 8.28h-2v55.075h4V52.607h-2Zm0 55.075.278 1.98 10.247-1.44-.278-1.981-.279-1.98-10.247 1.44.279 1.981Zm10.247-1.441 1.876.692 12.069-32.74-1.877-.691-1.876-.692-12.069 32.739 1.877.692Zm12.068-32.739h-2v36.214h4V73.502h-2Zm0 36.214 1.396 1.432 6.196-6.042-1.397-1.432-1.396-1.432-6.195 6.042 1.396 1.432Zm6.195-6.042 1.926.539 16.054-57.33-1.926-.54-1.926-.539-16.054 57.331 1.926.539Zm16.054-57.33 1.191-1.607-8.084-5.993-1.191 1.607-1.191 1.606 8.084 5.993 1.191-1.606Zm-8.084-5.993.278 1.98 24.594-3.456-.278-1.98-.278-1.981-24.594 3.456.278 1.98Zm24.594-3.456-1.938.495 15.371 60.043 1.938-.497 1.937-.496L418.068 36.4l-1.937.495Zm15.371 60.041-1.23 1.577 7.041 5.494 1.23-1.577 1.23-1.577-7.041-5.493-1.23 1.576Zm7.041 5.494 1.447 1.381 7.145-7.487-1.447-1.38-1.446-1.382-7.146 7.487 1.447 1.381Zm7.145-7.487h2v-23.8h-4v23.8h2Zm0-23.8 1.766-.94-15.484-29.097-1.766.94-1.765.94 15.484 29.096 1.765-.94Zm-15.484-29.097 1.217-1.587-7.856-6.025-1.217 1.588-1.217 1.587 7.856 6.024 1.217-1.587Zm-7.856-6.024.278 1.98 31.311-4.401-.279-1.98-.278-1.981-31.311 4.401.279 1.98Zm31.31-4.402-1.657-1.12-4.895 7.242 1.657 1.12 1.657 1.12 4.895-7.242-1.657-1.12Zm-4.895 7.242-1.786.902 10.248 20.29 1.785-.902 1.785-.901-10.247-20.29-1.785.901Zm10.247 20.29 1.835.795 10.02-23.139-1.836-.794-1.835-.795-10.02 23.139 1.836.794Zm10.019-23.138 1.552-1.262-4.782-5.881-1.552 1.262-1.552 1.262 4.783 5.88 1.551-1.261Zm-4.782-5.881.278 1.98 21.633-3.04-.278-1.981-.279-1.98-21.632 3.04.278 1.98Zm21.633-3.041-1.11-1.664-.002.002 1.109 1.664 1.109 1.664.003-.002-1.109-1.664Zm-.003.002.278 1.98 28.744-4.039-.278-1.98-.278-1.98-28.744 4.038.278 1.98Zm28.744-4.04-.894-1.788h-.002l.894 1.79.895 1.788h.002l-.895-1.79Zm-.002.002.278 1.98 18.912-2.657-.279-1.98-.278-1.981-18.911 2.657.278 1.98Zm18.911-2.658-1.567 1.242 21.063 26.588 1.568-1.242 1.567-1.242-21.063-26.587-1.568 1.241Zm21.064 26.588h2v-22.42h-4v22.42h2Zm0-22.42 1.204-1.597-7.97-6.008-1.204 1.597-1.204 1.597 7.97 6.008 1.204-1.597Zm-7.97-6.008.278 1.98 27.554-3.872-.278-1.98-.279-1.981-27.553 3.872.278 1.98Zm27.554-3.873-1.422-1.407-8.198 8.28 1.421 1.408 1.422 1.407 8.198-8.28-1.421-1.408ZM59.699 96.38h2c0-5.176-1.878-9.346-6-11.805-3.953-2.358-9.6-2.905-16.659-1.913l.278 1.98.279 1.981c6.718-.944 11.26-.278 14.053 1.387 2.625 1.566 4.05 4.233 4.05 8.37h2ZM39.32 84.643l-.28-1.98-1.707.24.278 1.98.279 1.98 1.708-.24-.279-1.98Zm-1.709.24h-2v29.778h4V84.883h-2Zm0 29.778.278 1.981 1.594-.224-.278-1.98-.278-1.981-1.594.224.278 1.98Zm1.594-.223.278 1.98c7.362-1.035 12.925-3.359 16.67-6.846 3.793-3.532 5.547-8.098 5.547-13.192h-4c0 4.104-1.377 7.567-4.273 10.264-2.945 2.742-7.63 4.847-14.5 5.813l.278 1.981Zm-14.687-5.41-1.688 1.074 2.62 4.116 1.687-1.073 1.687-1.074-2.619-4.116-1.687 1.073Zm2.619 4.117 1.728 1.006 2.846-4.884-1.729-1.007-1.728-1.007-2.845 4.885 1.728 1.007Zm2.845-4.885 1.986-.238-2.845-23.745-1.986.238-1.986.238 2.846 23.745 1.985-.238Zm-2.845-23.745-1.989-.213-2.62 24.514 1.99.212 1.988.213 2.62-24.514-1.99-.212Zm479.4-53.195h-2v55.074h4V31.32h-2Zm0 55.074L505.346 88l7.348 5.448 1.191-1.607 1.191-1.607-7.348-5.447-1.191 1.607Zm7.348 5.447 1.429 1.398 7.349-7.511-1.43-1.399-1.429-1.398-7.349 7.511 1.43 1.399Zm7.348-7.512h2V29.255h-4v55.074h2Zm0-55.074 1.191-1.607-7.349-5.447-1.191 1.607-1.191 1.606 7.35 5.448 1.19-1.607Zm-7.349-5.447-1.43-1.399-7.347 7.513 1.43 1.398 1.43 1.399 7.347-7.513-1.43-1.398Zm-237.061 63.78-1.565 1.245 2.96 3.724 1.565-1.245 1.566-1.244-2.96-3.724-1.566 1.245Zm2.96 3.725 1.695 1.062 2.846-4.54-1.694-1.063-1.695-1.062-2.846 4.54 1.694 1.063Zm2.847-4.54 1.609-1.189-2.847-3.853-1.609 1.188-1.608 1.188 2.846 3.854 1.609-1.189Zm-2.847-3.854-1.689-1.07-2.96 4.67 1.689 1.07 1.689 1.07 2.96-4.67-1.689-1.07Zm32.792-19.096h2c0-5.78-1.892-10.586-5.748-13.666-3.827-3.057-9.228-4.121-15.659-3.218l.278 1.98.279 1.982c5.751-.809 9.915.232 12.606 2.381 2.663 2.127 4.244 5.628 4.244 10.541h2ZM293.446 48.92l-.278-1.98-3.302.463.279 1.98.278 1.981 3.302-.463-.279-1.981Zm-3.301.464h-2v33.918h4V49.384h-2Zm0 33.918.278 1.98 2.504-.351-.278-1.98-.278-1.981-2.504.351.278 1.98Zm2.504-.352.279 1.98c6.907-.97 12.346-3.191 16.071-6.799 3.772-3.652 5.576-8.52 5.576-14.308h-4c0 4.905-1.497 8.664-4.358 11.435-2.907 2.815-7.431 4.81-13.846 5.712l.278 1.98Zm330.242-48.433 1.738-.99c-1.854-3.256-4.663-8.31-8.308-12.354-3.613-4.008-8.47-7.488-14.43-6.65l.278 1.98.278 1.98c3.946-.554 7.571 1.672 10.903 5.369 3.3 3.66 5.899 8.31 7.803 11.654l1.738-.99Zm-20.722-18.014-.278-1.98c-5.754.808-9.751 4.253-12.215 9.892-2.403 5.5-3.398 13.162-3.398 22.784h4c0-9.464.998-16.454 3.064-21.182 2.005-4.59 4.953-6.95 9.105-7.534l-.278-1.98Zm-13.891 30.696h-2c0 10.179 1.103 17.629 3.481 22.444 1.208 2.447 2.799 4.322 4.841 5.47 2.056 1.154 4.373 1.462 6.823 1.118l-.278-1.981-.279-1.98c-1.763.247-3.161-.001-4.307-.645-1.16-.652-2.259-1.82-3.214-3.753-1.949-3.948-3.067-10.615-3.067-20.673h-2Zm12.867 27.051.278 1.98a14.124 14.124 0 0 0 7.07-3.15c.175-.15.312-.276.411-.37l.12-.117.038-.04.013-.013.005-.006.003-.002.001-.001s.001-.001-1.45-1.378a236.492 236.492 0 0 1-1.449-1.378l.001-.002a.04.04 0 0 1 .003-.003l.003-.003-.004.004-.046.045a6.26 6.26 0 0 1-.242.217 10.128 10.128 0 0 1-5.034 2.236l.279 1.981Zm6.489-3.097h2v-23.8h-4v23.8h2Zm0-23.8 1.163-1.626-8.197-5.862-1.163 1.627-1.164 1.627 8.198 5.861 1.163-1.627Zm-8.197-5.86.278 1.98 31.994-4.497-.278-1.98-.279-1.981-31.994 4.497.279 1.98Zm31.994-4.498-1.397-1.432-8.54 8.33 1.397 1.431 1.396 1.432 8.54-8.33-1.396-1.43Zm-8.54 8.33h-2v33.572h4V45.324h-2Zm0 33.572.64-1.894-6.489-2.193-.641 1.895-.64 1.895 6.489 2.192.641-1.895Zm-6.49-2.192c-1.21-1.592-1.209-1.593-1.209-1.593h.001l.002-.002.001-.001-.001.001-.025.018a14.152 14.152 0 0 1-.743.488c-.554.34-1.403.819-2.536 1.341-2.265 1.045-5.663 2.263-10.115 2.889l.279 1.98.278 1.98c4.885-.686 8.66-2.029 11.234-3.216a28.5 28.5 0 0 0 2.951-1.564 18.037 18.037 0 0 0 .998-.658l.063-.046.02-.015.007-.006.003-.002h.002c0-.001.001-.002-1.21-1.594Zm-14.346 5.121-.279-1.98c-9.56 1.343-16.558-.913-21.209-5.841-4.721-5.003-7.368-13.117-7.368-24.176h-4c0 11.591 2.762 20.884 8.459 26.921 5.767 6.112 14.196 8.53 24.675 7.057l-.278-1.98ZM571.199 49.83h2c0-11.688 2.562-20.722 7.384-27.142 4.792-6.378 11.987-10.404 21.75-11.776l-.278-1.98-.279-1.98c-10.617 1.491-18.849 5.957-24.391 13.334-5.51 7.335-8.186 17.317-8.186 29.544h2Zm30.856-40.898.278 1.98c7.231-1.016 13.148 1.875 13.075 1.84l.879-1.797.879-1.796c-.152-.075-6.958-3.393-15.39-2.208l.279 1.98Zm14.232 2.023 1.218 1.587 6.603-5.068-1.217-1.586-1.218-1.587-6.603 5.067 1.217 1.587Zm6.604-5.067h-2v28.63h4V5.887h-2Zm-223.27 72.995.278 1.98 9.565-1.343-.278-1.98-.279-1.981-9.564 1.343.278 1.98Zm9.565-1.344 1.947-.457-4.441-18.923-1.947.457-1.947.457 4.44 18.923 1.948-.457Zm-4.441-18.923-1.939-.49-5.124 20.267 1.939.49 1.939.49 5.124-20.267-1.939-.49Zm-127.58 14.899-1.688 1.073 2.619 4.116 1.687-1.073 1.688-1.073-2.618-4.117-1.688 1.074Zm2.618 4.116 1.744.98 2.734-4.87-1.744-.978-1.744-.98-2.734 4.869 1.744.979Zm2.734-4.868 1.986-.229-2.733-23.76-1.987.228-1.987.229 2.734 23.76 1.987-.228ZM279.783 49l-1.988-.212-2.619 24.512 1.989.213 1.989.212 2.618-24.513-1.989-.212Z" mask="url(#mainlogo__path-5-inside-1_3304_9969)"/>
    </g>
  </g>
</svg>
