<svg width="625" height="207" viewBox="0 0 625 207" fill="none" xmlns="http://www.w3.org/2000/svg">
<path d="M10.9756 206.374C12.5973 206.144 14.199 205.554 15.6691 204.647C17.1149 203.789 18.3976 202.629 19.4214 201.251L16.6258 198.775C15.9398 199.717 15.0876 200.525 14.1248 201.147C13.1803 201.748 12.1434 202.134 11.094 202.274C10.2084 202.409 9.32981 202.362 8.50894 202.137C7.68807 201.912 6.94125 201.513 6.31172 200.963C5.70553 200.424 5.22657 199.749 4.90269 198.979C4.55545 198.162 4.3806 197.258 4.38839 196.32C4.37894 195.376 4.54882 194.414 4.8886 193.487C5.20577 192.625 5.67579 191.813 6.27227 191.096C6.87044 190.384 7.58588 189.785 8.37596 189.335C9.19928 188.862 10.0854 188.555 10.9799 188.435C12.0585 188.28 13.1233 188.383 14.0896 188.739C15.0884 189.112 15.9629 189.725 16.6498 190.531L19.5341 187.165C18.52 186.046 17.2296 185.229 15.7677 184.78C14.2654 184.28 12.6306 184.14 10.9756 184.37C9.49738 184.568 8.03188 185.064 6.66398 185.83C5.36801 186.551 4.18472 187.505 3.17803 188.641C2.18439 189.776 1.39407 191.075 0.85313 192.463C0.292362 193.916 0.00243339 195.432 1.52522e-05 196.922C-0.00240289 198.412 0.282738 199.848 0.83904 201.146C1.37358 202.378 2.15891 203.451 3.14844 204.302C4.1556 205.155 5.3394 205.776 6.6358 206.131C8.01295 206.514 9.48813 206.596 10.9756 206.374ZM66.7409 198.569C68.2142 198.373 69.6748 197.877 71.0371 197.111C72.3273 196.393 73.5013 195.436 74.4913 194.293C75.4814 193.151 76.2679 191.847 76.8056 190.456C77.3687 189.01 77.6588 187.501 77.6588 186.017C77.6588 184.534 77.3687 183.106 76.8056 181.818C76.268 180.578 75.4815 179.495 74.4914 178.631C73.5014 177.767 72.3274 177.14 71.0371 176.785C68.2906 176.032 65.2194 176.464 62.473 177.988C61.1826 178.706 60.0087 179.663 59.0186 180.806C58.0286 181.948 57.2421 183.252 56.7044 184.643C56.1417 186.089 55.8518 187.598 55.8518 189.082C55.8518 190.565 56.1417 191.993 56.7044 193.281C57.2421 194.521 58.0287 195.604 59.0187 196.468C60.0087 197.332 61.1827 197.959 62.473 198.314C63.8264 198.697 65.2765 198.785 66.7409 198.569ZM66.7409 194.51C65.8763 194.639 65.0193 194.586 64.2224 194.354C63.4256 194.122 62.7056 193.717 62.1066 193.162C61.5158 192.605 61.0512 191.919 60.7384 191.142C60.0712 189.463 60.0712 187.499 60.7384 185.632C61.0539 184.773 61.5182 183.962 62.1066 183.243C62.7056 182.52 63.4256 181.912 64.2224 181.457C65.0193 181.001 65.8763 180.707 66.7409 180.593C67.6309 180.461 68.5127 180.519 69.3307 180.763C70.1119 180.992 70.8176 181.392 71.4048 181.937C71.9932 182.49 72.4576 183.171 72.773 183.941C73.44 185.62 73.44 187.584 72.773 189.451C72.4602 190.315 71.9956 191.132 71.4048 191.856C70.8175 192.565 70.1119 193.163 69.3307 193.612C68.513 194.085 67.6303 194.392 66.7409 194.51ZM131.423 189.144V185.238L120.15 186.822V169.363L115.887 169.962V191.324L131.423 189.144ZM185.218 181.583V177.677L173.946 179.262V161.802L169.679 162.402V183.764L185.218 181.583ZM239.424 173.965V170.12L227.741 171.762V166.694L235.364 165.623V161.899L227.741 162.97V158.091L239.307 156.466V152.621L223.472 154.846V176.208L239.424 173.965ZM286.745 167.619C288.366 167.389 289.968 166.799 291.438 165.891C292.884 165.034 294.166 163.873 295.19 162.496L292.393 160.021C291.707 160.963 290.855 161.772 289.892 162.393C288.948 162.995 287.911 163.38 286.861 163.521C285.976 163.655 285.098 163.608 284.277 163.383C283.456 163.158 282.71 162.759 282.081 162.209C281.474 161.67 280.995 160.996 280.672 160.225C280.324 159.408 280.149 158.504 280.156 157.567C280.147 156.622 280.317 155.66 280.657 154.734C280.974 153.871 281.443 153.059 282.04 152.342C282.638 151.63 283.353 151.031 284.143 150.582C284.967 150.108 285.853 149.802 286.747 149.682C287.83 149.526 288.898 149.631 289.867 149.99C290.866 150.363 291.74 150.975 292.427 151.782L295.311 148.416C294.297 147.297 293.007 146.48 291.545 146.031C290.043 145.531 288.409 145.391 286.754 145.62C285.276 145.818 283.811 146.314 282.443 147.081C281.146 147.801 279.963 148.755 278.955 149.891C277.961 151.025 277.17 152.324 276.629 153.712C276.068 155.166 275.779 156.681 275.776 158.171C275.774 159.662 276.059 161.097 276.615 162.396C277.15 163.627 277.935 164.7 278.924 165.551C279.932 166.404 281.115 167.025 282.412 167.381C283.787 167.76 285.26 167.842 286.745 167.619ZM343.188 159.382V141.923L350.102 140.951V137.044L331.974 139.591V143.499L338.92 142.523V159.979L343.188 159.382ZM392.067 152.512V131.15L387.8 131.75V153.112L392.067 152.512ZM441.213 145.942C442.686 145.746 444.147 145.25 445.509 144.483C446.799 143.766 447.973 142.808 448.963 141.666C449.953 140.524 450.74 139.22 451.277 137.828C451.84 136.383 452.13 134.873 452.13 133.39C452.13 131.907 451.84 130.479 451.277 129.191C450.74 127.951 449.953 126.868 448.963 126.004C447.973 125.14 446.799 124.513 445.509 124.158C442.763 123.405 439.692 123.837 436.946 125.361C435.656 126.079 434.483 127.037 433.493 128.179C432.504 129.321 431.717 130.625 431.179 132.016C430.615 133.462 430.325 134.971 430.325 136.455C430.325 137.938 430.615 139.366 431.179 140.653C431.717 141.893 432.504 142.976 433.493 143.839C434.483 144.703 435.656 145.331 436.946 145.687C438.299 146.069 439.749 146.154 441.213 145.939V145.942ZM441.213 141.883C440.327 142.015 439.451 141.957 438.638 141.711C437.862 141.478 437.162 141.078 436.578 140.535C435.987 139.978 435.521 139.292 435.209 138.515C434.542 136.836 434.542 134.872 435.209 133.006C435.524 132.146 435.989 131.335 436.578 130.616C437.162 129.909 437.862 129.312 438.638 128.862C439.451 128.387 440.327 128.082 441.213 127.966C442.102 127.834 442.983 127.892 443.801 128.136C444.583 128.365 445.289 128.765 445.876 129.309C446.465 129.863 446.929 130.544 447.245 131.314C447.913 132.993 447.913 134.957 447.245 136.823C446.932 137.688 446.467 138.505 445.876 139.228C445.289 139.938 444.583 140.536 443.801 140.985C442.983 141.458 442.102 141.763 441.213 141.88V141.883ZM494.388 138.134V123.844L504.894 136.657L508.66 136.128V114.766L504.659 115.328V129.153L494.418 116.767L490.355 117.338V138.7L494.388 138.134Z" fill="white"/>
<path fill-rule="evenodd" clip-rule="evenodd" d="M3.73585 54.9174C3.58191 54.2018 3.64074 49.259 3.70288 48.3872C4.68949 48.1067 5.55134 48.0116 6.42049 47.9156C6.61704 47.894 6.81396 47.8722 7.01278 47.8483C7.40444 47.8012 7.87774 47.7198 8.38946 47.6319C10.0893 47.3398 12.2131 46.9748 13.1768 47.5484C14.9292 48.5911 15.1348 51.1037 13.4438 52.8035C12.5231 53.729 11.4425 53.9005 10.2245 54.0426C9.06903 54.1775 7.94597 54.3381 6.82404 54.4986C5.80249 54.6448 4.78057 54.7909 3.73585 54.9174ZM3.76377 44.5869C3.73923 44.4935 3.62192 38.8072 3.74338 38.0623C3.74679 38.0417 3.75151 38.0189 3.75596 37.9975C3.7585 37.9852 3.76095 37.9735 3.763 37.9628L3.81461 37.7648C4.34904 37.6152 8.02642 37.0806 8.45881 37.1443C11.8346 37.6412 11.6983 42.4144 8.67005 43.6915C7.57714 44.1524 6.12784 44.3132 4.88407 44.4512C4.48298 44.4957 4.10327 44.5379 3.76377 44.5869ZM0.742901 58.9369L0.637071 58.9412C0.524337 58.3068 0.390369 57.63 0.233972 56.9088C-0.0393287 55.2715 -0.0115297 53.8349 0.0181389 52.3017C0.0254496 51.9239 0.0328732 51.5403 0.0359347 51.1464L0.0251365 39.7392C0.0154515 37.5477 0.0118769 36.382 1.58348 34.9834C2.71962 33.9722 4.4392 33.8272 5.93733 33.7009C6.29285 33.6709 6.63589 33.642 6.95571 33.6028C9.23642 33.3232 10.1806 33.4126 11.6661 34.2233C12.961 34.93 14.0575 36.2175 14.4587 38.2182C14.8611 40.2239 14.5656 40.9764 14.1908 41.9306C14.0198 42.3661 13.8322 42.8436 13.687 43.5015C13.8146 43.6203 14.0749 43.7286 14.404 43.8656C14.9759 44.1035 15.7557 44.4279 16.409 45.0445C19.2597 47.7349 18.7012 52.1264 16.0385 55.0841C14.0194 57.327 11.7053 57.5775 9.03379 57.8666L9.02726 57.8673C8.89757 57.8814 8.76704 57.8955 8.63567 57.91C7.61012 58.0229 6.57814 58.1891 5.54319 58.3559C3.94592 58.6133 2.34158 58.8718 0.742901 58.9369Z" fill="white"/>
<path fill-rule="evenodd" clip-rule="evenodd" d="M65.6479 28.8463C68.2846 27.3061 71.0511 27.3752 73.0242 28.0539C75.1985 28.8019 76.2591 29.9343 77.5839 32.2866C78.7753 34.4023 78.126 38.0522 77.3089 39.8067C74.9766 44.8147 69.5975 47.452 64.9712 45.811C60.5545 44.2444 58.5087 38.7414 60.8656 33.9995C61.9582 31.8013 63.1025 30.3331 65.6479 28.8463ZM65.3085 25.1128C64.4984 25.6703 63.0673 25.9453 60.7944 28.1736C59.5381 29.4053 58.6989 30.6502 57.882 32.101C54.4242 38.2419 56.4036 46.4516 62.775 49.1406C73.1393 53.5147 84.8217 41.6505 81.3445 31.2967C79.7997 26.6971 75.4534 23.7757 70.9491 23.8721C69.689 23.8991 66.6241 24.2074 65.3085 25.1128Z" fill="white"/>
<path fill-rule="evenodd" clip-rule="evenodd" d="M144.244 26.7397C143.814 25.445 145.086 21.7491 145.648 20.706C148.133 16.0992 152.213 14.8019 155.141 18.4727C156.513 20.1936 157.003 22.2385 157.149 24.8782C156.507 25.1621 146.43 26.3909 144.244 26.7397ZM144.058 38.7264C144.284 38.1151 144.176 31.7869 144.172 30.5894C144.559 30.434 156.646 28.726 157.025 28.7867C157.245 29.4927 157.148 31.9161 157.152 32.8527C157.155 33.7707 157.016 36.2651 157.23 36.9482C161.554 35.8774 160.737 32.3602 160.896 30.3681C161 29.0756 160.889 27.4333 160.897 26.065C160.906 24.3617 161.015 23.4315 160.669 21.5681C159.685 16.2758 155.973 11.6576 150.395 12.7197C144.488 13.8444 141.268 19.9258 140.637 24.6078C140.428 26.1525 140.393 31.389 140.433 33.0866C140.462 34.2927 140.21 36.3212 140.904 37.3358C141.529 38.2501 142.772 39.1295 144.058 38.7264Z" fill="white"/>
<path fill-rule="evenodd" clip-rule="evenodd" d="M24.0665 43.5275C23.5778 40.7617 25.8234 34.317 30.2022 33.2892C35.1274 32.1332 37.3613 39.7395 36.8859 41.6237C36.085 42.0185 28.9786 42.8407 27.1879 43.1292C26.1246 43.3005 25.0184 43.3141 24.0665 43.5275ZM23.908 55.5177C24.0198 53.2126 23.9779 49.676 23.907 47.4383C24.2638 47.2236 36.3221 45.5061 36.8332 45.5762C37.0616 46.3438 36.8996 48.6589 36.9078 49.607C36.9168 50.6347 36.8072 52.9317 36.9953 53.7741C40.5877 52.862 40.8619 50.1333 40.6649 47.1445L40.688 42.8635C40.7117 38.253 40.2415 34.6 36.8937 31.4635C35.2227 29.8981 33.208 29.1218 30.2352 29.5036C26.9793 29.9217 24.6843 32.3488 23.2727 34.2315C21.8883 36.0779 20.8033 38.8395 20.4395 41.4069C20.0666 44.0393 20.2463 47.1401 20.219 49.8472C20.2057 51.1771 20.0094 52.9845 20.6922 54.1589C21.2924 55.1911 22.5962 55.836 23.908 55.5177Z" fill="white"/>
<path fill-rule="evenodd" clip-rule="evenodd" d="M127.616 20.0175C130.18 18.3814 132.836 19.6341 133.719 21.4727C134.954 24.044 133.415 26.7801 131.37 27.9537C125.826 31.1364 122.022 23.587 127.616 20.0175ZM124.906 32.8574C125.443 32.9156 125.843 33.4369 126.426 33.9509C127.631 35.0132 132.639 39.4978 133.419 39.8455C134.856 40.4854 136.325 39.8661 137.664 38.7671C137.355 37.7373 131.148 33.3496 130.615 32.1391C137.342 29.8496 139.318 22.9573 136.648 18.7339C133.074 13.0779 123.725 15.2862 121.514 22.8498C120.966 24.7242 121.233 33.5686 121.219 35.766L121.215 41.1756C121.21 41.6509 121.083 41.9136 121.487 41.9268C121.984 41.9431 123.206 41.2114 123.527 40.8853C125.584 38.798 124.59 36.4017 124.906 32.8574Z" fill="white"/>
<path fill-rule="evenodd" clip-rule="evenodd" d="M119.438 42.2055C118.911 37.5583 114.818 39.4772 111.948 39.6341C111.303 39.6694 108.96 40.2375 108.653 40.0255L108.553 39.8803C108.545 39.8608 108.522 39.8245 108.514 39.7995C108.392 39.4335 108.526 37.1157 108.497 36.3561C108.45 35.1631 108.485 33.7422 108.507 32.548C109.939 31.9951 114.928 31.8846 115.83 31.2957C115.704 29.4538 114.559 28.4914 113.331 28.2605C112.007 28.0115 109.347 28.8052 108.576 28.685C108.47 28.1901 108.402 23.4396 108.61 22.9342L115.265 21.9647C116.578 21.8337 117.482 21.4324 118.324 20.5476C118.932 19.9081 119.588 18.7352 119.381 17.6806L114.702 18.2855C114.08 18.3754 113.523 18.5332 112.919 18.6041C107.76 19.2097 104.627 18.89 104.831 25.3788C104.912 27.9555 104.641 40.3321 104.964 41.6352C105.775 44.911 110.028 43.6504 112.886 43.2016C114.02 43.0234 115.018 42.9664 116.145 42.7485C117.14 42.5562 118.519 42.569 119.438 42.2055Z" fill="white"/>
<path fill-rule="evenodd" clip-rule="evenodd" d="M103.627 19.9633L97.0459 20.8408C94.5141 21.195 92.4252 21.9258 90.2371 23.3895C80.0413 30.2099 82.1216 44.4923 93.4524 45.5654C95.5968 45.7684 97.6368 45.263 99.9141 45.0319C100.414 44.9812 100.975 44.8826 101.509 44.8013C103.324 44.5251 104.096 44.9625 103.39 43.1845C102.228 40.2545 98.7753 41.61 96.6487 41.7807C92.3895 42.1224 88.964 40.8348 87.6189 36.6531C86.2947 32.536 88.8611 28.2006 92.7089 25.9854C97.2325 23.3813 99.9758 25.398 102.51 22.778C103.16 22.1062 103.742 21.0512 103.627 19.9633Z" fill="white"/>
<path fill-rule="evenodd" clip-rule="evenodd" d="M46.9961 31.4936C47.2994 32.6943 46.809 50.8105 47.1641 52.3547C51.5158 51.1252 50.638 47.8356 50.7256 45.5128C50.8042 43.4285 50.5883 31.4275 50.7989 31.1114C50.9959 30.8159 51.6988 30.8322 51.9101 30.8088C52.779 30.7127 55.004 30.3973 55.684 30.0336C57.2214 29.2112 58.0704 27.7868 58.0241 26.2807C57.6014 26.1965 42.8261 28.2689 40.6234 28.6102C39.6728 28.7574 39.5933 28.8208 39.8965 29.8195C40.8776 33.0517 44.653 31.7051 46.9961 31.4936Z" fill="white"/>
<path d="M35.5244 69.6953C60.4588 66.1911 73.2107 73.482 73.2109 89.2334C73.2109 102.571 64.6717 111.82 50.4395 116.465L71.6172 147.177L81.2949 155.244L54.9941 158.94L30.9697 121.271V154.384L41.1035 160.893L0 166.67L10.2471 157.296V80.9512L0 74.6875L35.5244 69.6953ZM17.876 131.964L20.6084 155.955L23.3408 131.195L20.6084 127.096L17.876 131.964ZM103.226 73.0918C121.101 70.5796 133.284 84.2742 133.284 105.43C133.284 126.47 121.101 143.475 103.226 145.987C85.1221 148.532 73.0527 134.935 73.0527 113.895C73.0529 92.739 85.1223 75.6361 103.226 73.0918ZM155.367 74.7334V129.808L165.614 128.367L177.684 95.6279V133.8L130.318 140.457L138.402 132.192V77.1182L130.318 71.126L163.564 66.4531L155.367 74.7334ZM116.319 107.584C116.319 87.2334 111.651 79.4966 103.226 80.6807C94.6862 81.8808 90.0176 90.9303 90.0176 111.281C90.0176 131.747 94.6863 139.484 103.226 138.284C111.651 137.1 116.319 128.05 116.319 107.584ZM227.766 83.5332L217.178 67.2002L203.742 69.0879V90.8193L210.46 89.875L217.405 79.9307V105.801L210.46 97.9229L203.742 98.8672V121.862L217.975 119.862L227.766 95.4912V126.765L178.693 133.661L186.777 125.396V70.3223L178.693 64.3301L227.766 57.4336V83.5332ZM284.757 34.6611C311.513 30.9008 325.176 38.0639 325.176 56.1152C325.176 74.0515 312.196 84.6143 286.806 88.1826L283.504 88.6465V118.886L293.638 125.395L252.534 131.171L262.782 121.798V45.4531L252.534 39.1895L284.757 34.6611ZM17.6484 118.084L20.4951 121.822L23.4551 117.268L20.4951 113.43L17.6484 118.084ZM270.524 96.4492L273.143 120.456L275.876 95.6973L273.143 91.5967L270.524 96.4492ZM109.943 108.94L103.226 120.348L96.3936 110.845L103.226 98.9619L109.943 108.94ZM559.339 17.9619V81.8896L525.182 39.7793V77.8369L533.266 83.8291L506.509 87.5898V87.5889L474.961 92.0234L482.817 83.79V28.7158L477.067 24.3066L471.155 30.3525L456.24 63.3779V87.5234L464.21 93.5312L432.603 97.9727L432.604 97.9736L401.976 102.278L407.782 95.7129L404.366 80.5557L390.817 82.46L386.719 98.4434L394.233 103.366L370.731 106.668V106.67L323.367 113.327L331.451 105.062V49.9883L323.367 43.9951L356.613 39.3232L348.416 47.6035V102.678L358.663 101.237L370.731 68.498V104.712L376.927 98.6699L392.98 41.3398L384.896 35.3467L409.49 31.8906L424.861 91.9326L431.902 97.4258L439.048 89.9395V66.1387L423.563 37.042L415.707 31.0176L447.018 26.6162L442.122 33.8584L452.369 54.1484L462.389 31.0098L457.606 25.1289L479.239 22.0879L479.236 22.0898L507.98 18.0508L507.979 18.0518L526.89 15.3945L547.953 41.9824V19.5625L539.983 13.5537L567.537 9.68164L559.339 17.9619ZM53.0586 91.376C53.0584 82.0631 46.4543 77.7026 32.6777 79.6387L30.9697 79.8789V109.657L32.5635 109.434C46.7958 107.433 53.0586 100.574 53.0586 91.376ZM17.876 104.024L20.4951 108.141L23.3408 103.256L20.4951 79.5107L17.876 104.024ZM499.896 26.3164V81.3896L507.244 86.8369L514.593 79.3252V24.251L507.243 18.8037L499.896 26.3164ZM270.183 82.585L273.143 86.3086L275.989 81.7686L273.143 77.915L270.183 82.585ZM305.935 58.8193C305.935 48.1265 298.988 42.2038 286.806 43.916L283.504 44.3799V78.2979L286.009 77.9463C299.33 76.0741 305.935 69.5122 305.935 58.8193ZM616.25 29.5127C612.493 22.9122 605.434 10.107 595.528 11.499C585.623 12.8912 581.638 23.1091 581.638 42.1953C581.638 62.4313 586.078 70.4302 594.504 69.2461C598.603 68.6699 600.993 66.1494 600.993 66.1494V42.3496L592.796 36.4883L624.79 31.9912L616.25 40.3203V73.8936L609.761 71.7012C609.761 71.7012 604.75 75.5101 595.414 76.8223C575.375 79.6384 564.559 67.4756 564.559 44.8252C564.559 20.9103 575.034 6.79117 595.414 3.92676C603.246 2.82611 609.607 5.93068 609.646 5.9502L616.25 0.882812V29.5127ZM392.98 73.8779L402.545 72.5342L398.104 53.6113L392.98 73.8779ZM270.524 68.5098L273.143 72.626L275.876 67.7578L273.143 43.9971L270.524 68.5098Z" fill="white"/>
</svg>
