<svg width="625" height="207" viewBox="0 0 625 207" fill="none" xmlns="http://www.w3.org/2000/svg">
<path d="M13.3133 206.347C15.2804 206.068 17.2232 205.353 19.0065 204.251C20.7602 203.211 22.3161 201.804 23.5579 200.133L20.167 197.129C19.3348 198.272 18.3012 199.252 17.1333 200.006C15.9876 200.736 14.7298 201.204 13.4569 201.374C12.3827 201.537 11.317 201.48 10.3213 201.207C9.32555 200.934 8.41968 200.45 7.65606 199.784C6.92075 199.129 6.33978 198.311 5.94692 197.377C5.52572 196.385 5.31363 195.289 5.32308 194.152C5.31161 193.007 5.51767 191.84 5.92983 190.715C6.31455 189.67 6.88469 188.684 7.60821 187.815C8.33378 186.951 9.20159 186.225 10.16 185.679C11.1586 185.104 12.2335 184.733 13.3185 184.587C14.6269 184.398 15.9185 184.524 17.0905 184.955C18.302 185.408 19.3629 186.151 20.1961 187.129L23.6947 183.047C22.4646 181.69 20.8993 180.698 19.1261 180.154C17.3038 179.547 15.3208 179.377 13.3133 179.656C11.5202 179.896 9.74259 180.498 8.08335 181.428C6.51135 182.302 5.07603 183.459 3.85493 184.837C2.64965 186.214 1.691 187.789 1.03484 189.472C0.354633 191.235 0.00295168 193.074 1.85007e-05 194.881C-0.00291468 196.689 0.342958 198.431 1.01775 200.006C1.66614 201.5 2.61874 202.801 3.81903 203.833C5.04071 204.868 6.47664 205.621 8.04917 206.052C9.71963 206.516 11.509 206.617 13.3133 206.347ZM80.9561 196.879C82.7432 196.641 84.5149 196.04 86.1673 195.11C87.7324 194.24 89.1564 193.078 90.3573 191.693C91.5582 190.308 92.5122 188.725 93.1645 187.038C93.8475 185.284 94.1994 183.453 94.1994 181.654C94.1994 179.855 93.8475 178.123 93.1645 176.561C92.5123 175.057 91.5583 173.743 90.3574 172.695C89.1565 171.647 87.7324 170.886 86.1673 170.455C82.8358 169.542 79.1106 170.066 75.7791 171.915C74.214 172.786 72.7899 173.947 71.589 175.332C70.3881 176.718 69.4341 178.3 68.7819 179.988C68.0993 181.742 67.7477 183.572 67.7477 185.371C67.7477 187.171 68.0993 188.903 68.7819 190.465C69.4342 191.969 70.3882 193.283 71.5891 194.331C72.79 195.379 74.214 196.14 75.7791 196.57C77.4208 197.034 79.1798 197.141 80.9561 196.879ZM80.9561 191.956C79.9073 192.112 78.8678 192.048 77.9012 191.767C76.9346 191.486 76.0613 190.994 75.3347 190.321C74.6181 189.645 74.0546 188.813 73.6752 187.87C72.8657 185.834 72.8657 183.452 73.6752 181.187C74.0578 180.145 74.621 179.162 75.3347 178.289C76.0613 177.412 76.9346 176.675 77.9012 176.122C78.8678 175.569 79.9073 175.213 80.9561 175.074C82.0357 174.914 83.1052 174.985 84.0975 175.281C85.0451 175.559 85.901 176.043 86.6134 176.704C87.3271 177.376 87.8904 178.201 88.273 179.136C89.082 181.173 89.082 183.554 88.273 185.819C87.8935 186.868 87.33 187.858 86.6134 188.736C85.901 189.597 85.0451 190.322 84.0975 190.867C83.1056 191.441 82.035 191.813 80.9561 191.956ZM159.414 185.446V180.709L145.741 182.63V161.452L140.569 162.179V188.091L159.414 185.446ZM224.668 176.276V171.538L210.995 173.459V152.282L205.819 153.009V178.921L224.668 176.276ZM290.419 167.035V162.371L276.248 164.362V158.215L285.494 156.916V152.399L276.248 153.698V147.78L290.277 145.809V141.145L271.069 143.844V169.756L290.419 167.035ZM347.818 159.337C349.785 159.058 351.728 158.343 353.512 157.242C355.265 156.201 356.821 154.793 358.063 153.123L354.67 150.121C353.838 151.264 352.805 152.245 351.637 152.998C350.491 153.728 349.233 154.196 347.96 154.366C346.886 154.529 345.821 154.472 344.825 154.199C343.83 153.926 342.924 153.442 342.161 152.775C341.426 152.121 340.845 151.303 340.452 150.368C340.03 149.377 339.818 148.281 339.826 147.144C339.815 145.999 340.022 144.831 340.435 143.707C340.818 142.661 341.388 141.676 342.112 140.807C342.837 139.943 343.705 139.217 344.663 138.671C345.662 138.096 346.737 137.725 347.822 137.579C349.135 137.39 350.431 137.518 351.606 137.953C352.817 138.406 353.878 139.148 354.711 140.127L358.21 136.044C356.98 134.687 355.415 133.696 353.641 133.151C351.82 132.545 349.837 132.375 347.83 132.653C346.037 132.893 344.26 133.495 342.6 134.425C341.028 135.298 339.592 136.455 338.37 137.833C337.164 139.209 336.205 140.785 335.548 142.468C334.868 144.231 334.517 146.07 334.514 147.877C334.511 149.685 334.857 151.426 335.531 153.002C336.18 154.495 337.133 155.797 338.333 156.829C339.555 157.863 340.99 158.616 342.563 159.048C344.231 159.508 346.018 159.608 347.818 159.337ZM416.283 149.346V128.168L424.67 126.989V122.25L402.682 125.34V130.079L411.106 128.895V150.07L416.283 149.346ZM475.573 141.013V115.101L470.398 115.828V141.74L475.573 141.013ZM535.187 133.043C536.974 132.805 538.746 132.204 540.398 131.274C541.963 130.404 543.387 129.242 544.588 127.857C545.789 126.471 546.743 124.889 547.395 123.202C548.078 121.448 548.429 119.617 548.429 117.818C548.429 116.018 548.078 114.287 547.395 112.725C546.743 111.22 545.789 109.906 544.588 108.859C543.387 107.811 541.963 107.05 540.398 106.619C537.067 105.706 533.342 106.23 530.011 108.079C528.447 108.95 527.024 110.112 525.823 111.497C524.623 112.882 523.669 114.464 523.016 116.151C522.332 117.905 521.98 119.735 521.98 121.535C521.98 123.334 522.332 125.066 523.016 126.628C523.669 128.132 524.623 129.445 525.823 130.493C527.024 131.541 528.447 132.302 530.011 132.734C531.652 133.197 533.412 133.301 535.187 133.039V133.043ZM535.187 128.12C534.113 128.28 533.049 128.209 532.064 127.911C531.123 127.629 530.273 127.144 529.565 126.485C528.848 125.809 528.283 124.977 527.904 124.034C527.095 121.997 527.095 119.616 527.904 117.351C528.287 116.309 528.851 115.325 529.565 114.453C530.273 113.595 531.123 112.871 532.064 112.325C533.049 111.75 534.113 111.379 535.187 111.238C536.266 111.078 537.335 111.149 538.326 111.445C539.274 111.723 540.131 112.207 540.844 112.868C541.558 113.54 542.121 114.365 542.504 115.3C543.314 117.336 543.314 119.718 542.504 121.982C542.124 123.031 541.561 124.022 540.844 124.9C540.131 125.761 539.274 126.486 538.326 127.031C537.334 127.604 536.265 127.974 535.187 128.116V128.12ZM599.688 123.572V106.239L612.431 121.781L617 121.139V95.2266L612.146 95.9087V112.678L599.724 97.6546L594.797 98.3471V124.259L599.688 123.572Z" fill="white"/>
<path fill-rule="evenodd" clip-rule="evenodd" d="M3.73585 54.9174C3.58191 54.2018 3.64074 49.259 3.70288 48.3872C4.68949 48.1067 5.55134 48.0116 6.42049 47.9156C6.61704 47.894 6.81396 47.8722 7.01278 47.8483C7.40444 47.8012 7.87774 47.7198 8.38946 47.6319C10.0893 47.3398 12.2131 46.9748 13.1768 47.5484C14.9292 48.5911 15.1348 51.1037 13.4438 52.8035C12.5231 53.729 11.4425 53.9005 10.2245 54.0426C9.06903 54.1775 7.94597 54.3381 6.82404 54.4986C5.80249 54.6448 4.78057 54.7909 3.73585 54.9174ZM3.76377 44.5869C3.73923 44.4935 3.62192 38.8072 3.74338 38.0623C3.74679 38.0417 3.75151 38.0189 3.75596 37.9975C3.7585 37.9852 3.76095 37.9734 3.763 37.9628L3.81461 37.7648C4.34904 37.6152 8.02642 37.0806 8.45881 37.1443C11.8346 37.6412 11.6983 42.4144 8.67005 43.6915C7.57714 44.1524 6.12784 44.3132 4.88407 44.4512C4.48298 44.4957 4.10327 44.5379 3.76377 44.5869ZM0.742901 58.9369L0.637071 58.9412C0.524337 58.3068 0.390369 57.63 0.233972 56.9088C-0.0393287 55.2715 -0.0115297 53.8349 0.0181389 52.3017C0.0254496 51.9239 0.0328732 51.5403 0.0359347 51.1464L0.0251365 39.7392C0.0154515 37.5477 0.0118769 36.382 1.58348 34.9834C2.71962 33.9722 4.4392 33.8272 5.93733 33.7009C6.29285 33.6709 6.63589 33.642 6.95571 33.6028C9.23642 33.3232 10.1806 33.4125 11.6661 34.2233C12.961 34.93 14.0575 36.2175 14.4587 38.2182C14.8611 40.2239 14.5656 40.9764 14.1908 41.9306C14.0198 42.3661 13.8322 42.8436 13.687 43.5015C13.8146 43.6203 14.0749 43.7286 14.404 43.8656C14.9759 44.1035 15.7557 44.4279 16.409 45.0445C19.2597 47.7349 18.7012 52.1264 16.0385 55.0841C14.0194 57.327 11.7053 57.5775 9.03379 57.8666L9.02726 57.8673C8.89757 57.8814 8.76705 57.8955 8.63567 57.91C7.61012 58.0229 6.57814 58.1891 5.54319 58.3559C3.94592 58.6133 2.34158 58.8718 0.742901 58.9369Z" fill="white"/>
<path fill-rule="evenodd" clip-rule="evenodd" d="M65.6479 28.8463C68.2846 27.3061 71.0511 27.3752 73.0242 28.0539C75.1985 28.8019 76.2591 29.9343 77.5839 32.2866C78.7753 34.4023 78.126 38.0522 77.3089 39.8067C74.9766 44.8147 69.5975 47.452 64.9712 45.811C60.5545 44.2444 58.5087 38.7414 60.8656 33.9995C61.9582 31.8013 63.1025 30.3331 65.6479 28.8463ZM65.3085 25.1128C64.4984 25.6703 63.0673 25.9453 60.7944 28.1736C59.5381 29.4053 58.6989 30.6502 57.882 32.101C54.4242 38.2419 56.4036 46.4516 62.775 49.1406C73.1393 53.5147 84.8217 41.6505 81.3445 31.2967C79.7997 26.6971 75.4534 23.7757 70.9491 23.8721C69.689 23.8991 66.6241 24.2074 65.3085 25.1128Z" fill="white"/>
<path fill-rule="evenodd" clip-rule="evenodd" d="M144.244 26.7397C143.814 25.445 145.086 21.7491 145.648 20.706C148.133 16.0992 152.213 14.8019 155.141 18.4727C156.513 20.1936 157.003 22.2385 157.149 24.8782C156.507 25.1621 146.43 26.3909 144.244 26.7397ZM144.058 38.7264C144.284 38.1151 144.176 31.7869 144.172 30.5894C144.559 30.434 156.646 28.726 157.025 28.7867C157.245 29.4927 157.148 31.9161 157.152 32.8527C157.155 33.7707 157.016 36.2651 157.23 36.9482C161.554 35.8774 160.737 32.3602 160.896 30.3681C161 29.0756 160.889 27.4333 160.897 26.065C160.906 24.3617 161.015 23.4315 160.669 21.5681C159.685 16.2758 155.973 11.6576 150.395 12.7197C144.488 13.8444 141.268 19.9258 140.637 24.6078C140.428 26.1525 140.393 31.389 140.433 33.0866C140.462 34.2927 140.21 36.3212 140.904 37.3358C141.529 38.2501 142.772 39.1295 144.058 38.7264Z" fill="white"/>
<path fill-rule="evenodd" clip-rule="evenodd" d="M24.0665 43.5275C23.5778 40.7617 25.8234 34.317 30.2022 33.2892C35.1274 32.1332 37.3613 39.7395 36.8859 41.6237C36.085 42.0184 28.9786 42.8407 27.1879 43.1292C26.1246 43.3005 25.0184 43.3141 24.0665 43.5275ZM23.908 55.5177C24.0198 53.2126 23.9779 49.676 23.907 47.4383C24.2638 47.2236 36.3221 45.5061 36.8332 45.5762C37.0616 46.3438 36.8996 48.6589 36.9078 49.607C36.9168 50.6347 36.8072 52.9317 36.9953 53.7741C40.5877 52.862 40.8619 50.1333 40.6649 47.1445L40.688 42.8635C40.7117 38.253 40.2415 34.6 36.8937 31.4635C35.2227 29.8981 33.208 29.1218 30.2352 29.5036C26.9793 29.9217 24.6843 32.3488 23.2727 34.2315C21.8883 36.0779 20.8033 38.8395 20.4395 41.4069C20.0666 44.0393 20.2463 47.1401 20.219 49.8472C20.2057 51.1771 20.0094 52.9845 20.6922 54.1589C21.2924 55.1911 22.5962 55.836 23.908 55.5177Z" fill="white"/>
<path fill-rule="evenodd" clip-rule="evenodd" d="M127.616 20.0175C130.18 18.3814 132.836 19.6341 133.719 21.4727C134.954 24.044 133.415 26.7801 131.37 27.9537C125.826 31.1364 122.022 23.587 127.616 20.0175ZM124.906 32.8574C125.443 32.9156 125.843 33.4369 126.426 33.9509C127.631 35.0132 132.639 39.4978 133.419 39.8455C134.856 40.4854 136.325 39.8661 137.664 38.7671C137.355 37.7373 131.148 33.3496 130.615 32.1391C137.342 29.8496 139.318 22.9573 136.648 18.7339C133.074 13.0779 123.725 15.2862 121.514 22.8498C120.966 24.7242 121.233 33.5686 121.219 35.766L121.215 41.1756C121.21 41.6509 121.083 41.9136 121.487 41.9268C121.984 41.9431 123.206 41.2114 123.527 40.8853C125.584 38.798 124.59 36.4017 124.906 32.8574Z" fill="white"/>
<path fill-rule="evenodd" clip-rule="evenodd" d="M119.438 42.2055C118.911 37.5583 114.818 39.4772 111.948 39.6341C111.303 39.6694 108.96 40.2375 108.653 40.0255L108.553 39.8803C108.545 39.8608 108.522 39.8245 108.514 39.7995C108.392 39.4335 108.526 37.1157 108.497 36.3561C108.45 35.1631 108.485 33.7422 108.507 32.548C109.939 31.9951 114.928 31.8846 115.83 31.2957C115.704 29.4538 114.559 28.4914 113.331 28.2605C112.007 28.0115 109.347 28.8052 108.576 28.685C108.47 28.1901 108.402 23.4396 108.61 22.9342L115.265 21.9647C116.578 21.8337 117.482 21.4324 118.324 20.5476C118.932 19.9081 119.588 18.7352 119.381 17.6806L114.702 18.2855C114.08 18.3754 113.523 18.5332 112.919 18.6041C107.76 19.2097 104.627 18.89 104.831 25.3788C104.912 27.9555 104.641 40.3321 104.964 41.6352C105.775 44.911 110.028 43.6504 112.886 43.2016C114.02 43.0234 115.018 42.9664 116.145 42.7485C117.14 42.5562 118.519 42.569 119.438 42.2055Z" fill="white"/>
<path fill-rule="evenodd" clip-rule="evenodd" d="M103.627 19.9633L97.0459 20.8408C94.5141 21.195 92.4252 21.9258 90.2371 23.3895C80.0413 30.2099 82.1216 44.4923 93.4524 45.5654C95.5968 45.7684 97.6368 45.263 99.9141 45.0319C100.414 44.9812 100.975 44.8826 101.509 44.8013C103.324 44.5251 104.096 44.9625 103.39 43.1845C102.228 40.2545 98.7753 41.61 96.6487 41.7807C92.3895 42.1224 88.964 40.8348 87.6189 36.6531C86.2947 32.536 88.8611 28.2006 92.7089 25.9854C97.2325 23.3813 99.9758 25.398 102.51 22.778C103.16 22.1062 103.742 21.0512 103.627 19.9633Z" fill="white"/>
<path fill-rule="evenodd" clip-rule="evenodd" d="M46.9961 31.4936C47.2994 32.6943 46.809 50.8105 47.1641 52.3547C51.5158 51.1252 50.638 47.8356 50.7256 45.5128C50.8042 43.4285 50.5883 31.4275 50.7989 31.1114C50.9959 30.8159 51.6988 30.8322 51.9101 30.8088C52.779 30.7127 55.004 30.3973 55.684 30.0336C57.2214 29.2112 58.0704 27.7868 58.0241 26.2807C57.6014 26.1965 42.8261 28.2689 40.6234 28.6102C39.6728 28.7574 39.5933 28.8208 39.8965 29.8195C40.8776 33.0517 44.653 31.7051 46.9961 31.4936Z" fill="white"/>
<path d="M35.5244 69.6953C60.4588 66.1911 73.2107 73.482 73.2109 89.2334C73.2109 102.571 64.6717 111.82 50.4395 116.465L71.6172 147.177L81.2949 155.244L54.9941 158.94L30.9697 121.271V154.384L41.1035 160.893L0 166.67L10.2471 157.296V80.9512L0 74.6875L35.5244 69.6953ZM17.876 131.964L20.6084 155.955L23.3408 131.195L20.6084 127.096L17.876 131.964ZM103.226 73.0918C121.101 70.5796 133.284 84.2742 133.284 105.43C133.284 126.47 121.101 143.475 103.226 145.987C85.1221 148.532 73.0527 134.935 73.0527 113.895C73.0529 92.739 85.1223 75.6361 103.226 73.0918ZM155.367 74.7334V129.808L165.614 128.367L177.684 95.6279V133.8L130.318 140.457L138.402 132.192V77.1182L130.318 71.126L163.564 66.4531L155.367 74.7334ZM116.319 107.584C116.319 87.2334 111.651 79.4966 103.226 80.6807C94.6862 81.8808 90.0176 90.9303 90.0176 111.281C90.0176 131.747 94.6863 139.484 103.226 138.284C111.651 137.1 116.319 128.05 116.319 107.584ZM227.766 83.5332L217.178 67.2002L203.742 69.0879V90.8193L210.46 89.875L217.405 79.9307V105.801L210.46 97.9229L203.742 98.8672V121.862L217.975 119.862L227.766 95.4912V126.765L178.693 133.661L186.777 125.396V70.3223L178.693 64.3301L227.766 57.4336V83.5332ZM284.757 34.6611C311.513 30.9008 325.176 38.0639 325.176 56.1152C325.176 74.0515 312.196 84.6143 286.806 88.1826L283.504 88.6465V118.886L293.638 125.395L252.534 131.171L262.782 121.798V45.4531L252.534 39.1895L284.757 34.6611ZM17.6484 118.084L20.4951 121.822L23.4551 117.268L20.4951 113.43L17.6484 118.084ZM270.524 96.4492L273.143 120.456L275.876 95.6973L273.143 91.5967L270.524 96.4492ZM109.943 108.94L103.226 120.348L96.3936 110.845L103.226 98.9619L109.943 108.94ZM559.339 17.9619V81.8896L525.182 39.7793V77.8369L533.266 83.8291L506.509 87.5898V87.5889L474.961 92.0234L482.817 83.79V28.7158L477.067 24.3066L471.155 30.3525L456.24 63.3779V87.5234L464.21 93.5312L432.603 97.9727L432.604 97.9736L401.976 102.278L407.782 95.7129L404.366 80.5557L390.817 82.46L386.719 98.4434L394.233 103.366L370.731 106.668V106.67L323.367 113.327L331.451 105.062V49.9883L323.367 43.9951L356.613 39.3232L348.416 47.6035V102.678L358.663 101.237L370.731 68.498V104.712L376.927 98.6699L392.98 41.3398L384.896 35.3467L409.49 31.8906L424.861 91.9326L431.902 97.4258L439.048 89.9395V66.1387L423.563 37.042L415.707 31.0176L447.018 26.6162L442.122 33.8584L452.369 54.1484L462.389 31.0098L457.606 25.1289L479.239 22.0879L479.236 22.0898L507.98 18.0508L507.979 18.0518L526.89 15.3945L547.953 41.9824V19.5625L539.983 13.5537L567.537 9.68164L559.339 17.9619ZM53.0586 91.376C53.0584 82.0631 46.4543 77.7026 32.6777 79.6387L30.9697 79.8789V109.657L32.5635 109.434C46.7958 107.433 53.0586 100.574 53.0586 91.376ZM17.876 104.024L20.4951 108.141L23.3408 103.256L20.4951 79.5107L17.876 104.024ZM499.896 26.3164V81.3896L507.244 86.8369L514.593 79.3252V24.251L507.243 18.8037L499.896 26.3164ZM270.183 82.585L273.143 86.3086L275.989 81.7686L273.143 77.915L270.183 82.585ZM305.935 58.8193C305.935 48.1265 298.988 42.2038 286.806 43.916L283.504 44.3799V78.2979L286.009 77.9463C299.33 76.0741 305.935 69.5122 305.935 58.8193ZM616.25 29.5127C612.493 22.9122 605.434 10.107 595.528 11.499C585.623 12.8912 581.638 23.1091 581.638 42.1953C581.638 62.4313 586.078 70.4302 594.504 69.2461C598.603 68.6699 600.993 66.1494 600.993 66.1494V42.3496L592.796 36.4883L624.79 31.9912L616.25 40.3203V73.8936L609.761 71.7012C609.761 71.7012 604.75 75.5101 595.414 76.8223C575.375 79.6384 564.559 67.4756 564.559 44.8252C564.559 20.9103 575.034 6.79117 595.414 3.92676C603.246 2.82611 609.607 5.93068 609.646 5.9502L616.25 0.882812V29.5127ZM392.98 73.8779L402.545 72.5342L398.104 53.6113L392.98 73.8779ZM270.524 68.5098L273.143 72.626L275.876 67.7578L273.143 43.9971L270.524 68.5098Z" fill="white"/>
</svg>
