<svg width="724" height="85" viewBox="0 0 724 85" fill="none" xmlns="http://www.w3.org/2000/svg">
<g id="gamemeta">
<g id="GAME DETAILS">
<g id="ICON DIVIDERS" opacity="0.351446">
<rect id="Rectangle" x="170.5" width="1" height="73" fill="white"/>
<rect id="Rectangle_2" x="361.5" width="1" height="73" fill="white"/>
<rect id="Rectangle_3" x="552.5" width="1" height="73" fill="white"/>
</g>
<g id="MD_LBL_PLAYERS INFO">
<g id="PLAYERS - ICON">
<path id="Oval" d="M259 8C259 11.5899 256.09 14.5 252.5 14.5C248.91 14.5 246 11.5899 246 8C246 4.41015 248.91 1.5 252.5 1.5C256.09 1.5 259 4.41015 259 8Z" stroke="white" stroke-width="3"/>
<path id="Rectangle_4" d="M245.5 19.5H259.5C262.538 19.5 265 21.9624 265 25V36.5H240V25C240 21.9624 242.462 19.5 245.5 19.5Z" stroke="white" stroke-width="3"/>
<path id="Oval_2" d="M288 8C288 11.5899 285.09 14.5 281.5 14.5C277.91 14.5 275 11.5899 275 8C275 4.41015 277.91 1.5 281.5 1.5C285.09 1.5 288 4.41015 288 8Z" stroke="white" stroke-width="3"/>
<path id="Rectangle_5" d="M274.5 19.5H288.5C291.538 19.5 294 21.9624 294 25V36.5H269V25C269 21.9624 271.462 19.5 274.5 19.5Z" stroke="white" stroke-width="3"/>
</g>
</g>
<g id="Group 143">
<g id="Group 141">
<rect id="Rectangle_6" x="55.7856" y="12.25" width="3.42857" height="12" rx="0.771429" fill="white"/>
<path id="Rectangle_7" fill-rule="evenodd" clip-rule="evenodd" d="M52.2714 19.9643C51.8454 19.9643 51.5 19.6189 51.5 19.1929V17.3072C51.5 16.8811 51.8454 16.5357 52.2714 16.5357H62.7286C63.1546 16.5357 63.5 16.8811 63.5 17.3072V19.1929C63.5 19.6189 63.1546 19.9643 62.7286 19.9643H52.2714Z" fill="white"/>
</g>
<rect id="Rectangle_8" x="46" y="5" width="61" height="25.75" rx="1.5" stroke="white" stroke-width="3"/>
<path id="Oval_3" fill-rule="evenodd" clip-rule="evenodd" d="M90.25 24.4643C91.7688 24.4643 93 23.2331 93 21.7143C93 20.1955 91.7688 18.9643 90.25 18.9643C88.7312 18.9643 87.5 20.1955 87.5 21.7143C87.5 23.2331 88.7312 24.4643 90.25 24.4643Z" fill="white"/>
<path id="Rectangle_9" d="M103.5 26.25V17.375C103.5 16.8227 103.052 16.375 102.5 16.375H71.875C71.3227 16.375 70.875 15.9273 70.875 15.375V9.25C70.875 8.69772 70.4273 8.25 69.875 8.25H50.5C49.9477 8.25 49.5 8.69771 49.5 9.25V26.25C49.5 26.8023 49.9477 27.25 50.5 27.25H102.5C103.052 27.25 103.5 26.8023 103.5 26.25Z" stroke="white"/>
<g id="Group 142">
<rect id="Rectangle_10" x="68.2119" y="21.9643" width="4" height="1" rx="0.5" stroke="white"/>
<rect id="Rectangle_11" x="75.1875" y="21.9643" width="4" height="1" rx="0.5" stroke="white"/>
<rect id="Rectangle_12" x="66.5" y="20.4643" width="14.3125" height="4" rx="2" stroke="white"/>
</g>
<path id="Oval_4" fill-rule="evenodd" clip-rule="evenodd" d="M97.25 24.4643C98.7688 24.4643 100 23.2331 100 21.7143C100 20.1955 98.7688 18.9643 97.25 18.9643C95.7312 18.9643 94.5 20.1955 94.5 21.7143C94.5 23.2331 95.7312 24.4643 97.25 24.4643Z" fill="white"/>
</g>
<g id="MD_DEVELOPER INFO">
<g id="PROCESSOR - ICON">
<g id="Group 51">
<rect id="Rectangle_13" x="420.5" y="13" width="8" height="3" rx="1.5" fill="white"/>
<rect id="Rectangle_14" x="420.5" y="18" width="8" height="3" rx="1.5" fill="white"/>
<rect id="Rectangle_15" x="420.5" y="23" width="8" height="3" rx="1.5" fill="white"/>
</g>
<g id="Group 52">
<rect id="Rectangle_16" x="448.5" y="1" width="7" height="3" rx="1.5" transform="rotate(90 448.5 1)" fill="white"/>
<rect id="Rectangle_17" x="443.5" y="1" width="7" height="3" rx="1.5" transform="rotate(90 443.5 1)" fill="white"/>
<rect id="Rectangle_18" x="438.5" y="1" width="7" height="3" rx="1.5" transform="rotate(90 438.5 1)" fill="white"/>
<rect id="Rectangle_19" x="463.5" y="1" width="7" height="3" rx="1.5" transform="rotate(90 463.5 1)" fill="white"/>
<rect id="Rectangle_20" x="458.5" y="1" width="7" height="3" rx="1.5" transform="rotate(90 458.5 1)" fill="white"/>
<rect id="Rectangle_21" x="453.5" y="1" width="7" height="3" rx="1.5" transform="rotate(90 453.5 1)" fill="white"/>
<rect id="Rectangle_22" x="478.5" y="1" width="7" height="3" rx="1.5" transform="rotate(90 478.5 1)" fill="white"/>
<rect id="Rectangle_23" x="468.5" y="1" width="7" height="3" rx="1.5" transform="rotate(90 468.5 1)" fill="white"/>
<rect id="Rectangle_24" x="473.5" y="1" width="7" height="3" rx="1.5" transform="rotate(90 473.5 1)" fill="white"/>
</g>
<g id="Group 52_2">
<rect id="Rectangle_25" x="448.5" y="31" width="7" height="3" rx="1.5" transform="rotate(90 448.5 31)" fill="white"/>
<rect id="Rectangle_26" x="443.5" y="31" width="7" height="3" rx="1.5" transform="rotate(90 443.5 31)" fill="white"/>
<rect id="Rectangle_27" x="438.5" y="31" width="7" height="3" rx="1.5" transform="rotate(90 438.5 31)" fill="white"/>
<rect id="Rectangle_28" x="463.5" y="31" width="7" height="3" rx="1.5" transform="rotate(90 463.5 31)" fill="white"/>
<rect id="Rectangle_29" x="458.5" y="31" width="7" height="3" rx="1.5" transform="rotate(90 458.5 31)" fill="white"/>
<rect id="Rectangle_30" x="453.5" y="31" width="7" height="3" rx="1.5" transform="rotate(90 453.5 31)" fill="white"/>
<rect id="Rectangle_31" x="478.5" y="31" width="7" height="3" rx="1.5" transform="rotate(90 478.5 31)" fill="white"/>
<rect id="Rectangle_32" x="468.5" y="31" width="7" height="3" rx="1.5" transform="rotate(90 468.5 31)" fill="white"/>
<rect id="Rectangle_33" x="473.5" y="31" width="7" height="3" rx="1.5" transform="rotate(90 473.5 31)" fill="white"/>
</g>
<g id="Group 51_2">
<rect id="Rectangle_34" x="486.5" y="13" width="8" height="3" rx="1.5" fill="white"/>
<rect id="Rectangle_35" x="486.5" y="18" width="8" height="3" rx="1.5" fill="white"/>
<rect id="Rectangle_36" x="486.5" y="23" width="8" height="3" rx="1.5" fill="white"/>
</g>
<g id="Rectangle_37">
<mask id="path-41-inside-1" fill="white">
<rect x="425.5" y="6" width="63" height="27" rx="2.55556"/>
</mask>
<rect x="425.5" y="6" width="63" height="27" rx="2.55556" stroke="white" stroke-width="6" mask="url(#path-41-inside-1)"/>
</g>
<rect id="Rectangle_38" x="432.5" y="13" width="49" height="13" stroke="white" stroke-width="2"/>
</g>
</g>
<g id="RELEASEDATE - INFO">
<g id="RELEASEDATE - ICON">
<rect id="Rectangle_39" x="632.5" width="10" height="3" rx="1.5" transform="rotate(90 632.5 0)" fill="white"/>
<rect id="Rectangle_40" x="620.5" y="11" width="57" height="2" fill="white"/>
<rect id="Rectangle_41" x="668.5" width="10" height="3" rx="1.5" transform="rotate(90 668.5 0)" fill="white"/>
<g id="Rectangle_42">
<mask id="path-46-inside-2" fill="white">
<rect x="620.5" y="3" width="57" height="35" rx="2.55556"/>
</mask>
<rect x="620.5" y="3" width="57" height="35" rx="2.55556" stroke="white" stroke-width="6" mask="url(#path-46-inside-2)"/>
</g>
<path id="Oval_5" fill-rule="evenodd" clip-rule="evenodd" d="M635 18C635.828 18 636.5 17.3284 636.5 16.5C636.5 15.6716 635.828 15 635 15C634.172 15 633.5 15.6716 633.5 16.5C633.5 17.3284 634.172 18 635 18Z" fill="white"/>
<path id="Oval_6" fill-rule="evenodd" clip-rule="evenodd" d="M642 18C642.828 18 643.5 17.3284 643.5 16.5C643.5 15.6716 642.828 15 642 15C641.172 15 640.5 15.6716 640.5 16.5C640.5 17.3284 641.172 18 642 18Z" fill="white"/>
<path id="Oval_7" fill-rule="evenodd" clip-rule="evenodd" d="M649 18C649.828 18 650.5 17.3284 650.5 16.5C650.5 15.6716 649.828 15 649 15C648.172 15 647.5 15.6716 647.5 16.5C647.5 17.3284 648.172 18 649 18Z" fill="white"/>
<path id="Oval_8" fill-rule="evenodd" clip-rule="evenodd" d="M656 18C656.828 18 657.5 17.3284 657.5 16.5C657.5 15.6716 656.828 15 656 15C655.172 15 654.5 15.6716 654.5 16.5C654.5 17.3284 655.172 18 656 18Z" fill="white"/>
<path id="Oval_9" fill-rule="evenodd" clip-rule="evenodd" d="M663 18C663.828 18 664.5 17.3284 664.5 16.5C664.5 15.6716 663.828 15 663 15C662.172 15 661.5 15.6716 661.5 16.5C661.5 17.3284 662.172 18 663 18Z" fill="white"/>
<path id="Oval_10" fill-rule="evenodd" clip-rule="evenodd" d="M670 18C670.828 18 671.5 17.3284 671.5 16.5C671.5 15.6716 670.828 15 670 15C669.172 15 668.5 15.6716 668.5 16.5C668.5 17.3284 669.172 18 670 18Z" fill="white"/>
<path id="Oval_11" fill-rule="evenodd" clip-rule="evenodd" d="M628 23C628.828 23 629.5 22.3284 629.5 21.5C629.5 20.6716 628.828 20 628 20C627.172 20 626.5 20.6716 626.5 21.5C626.5 22.3284 627.172 23 628 23Z" fill="white"/>
<path id="Oval_12" fill-rule="evenodd" clip-rule="evenodd" d="M635 23C635.828 23 636.5 22.3284 636.5 21.5C636.5 20.6716 635.828 20 635 20C634.172 20 633.5 20.6716 633.5 21.5C633.5 22.3284 634.172 23 635 23Z" fill="white"/>
<path id="Oval_13" fill-rule="evenodd" clip-rule="evenodd" d="M642 23C642.828 23 643.5 22.3284 643.5 21.5C643.5 20.6716 642.828 20 642 20C641.172 20 640.5 20.6716 640.5 21.5C640.5 22.3284 641.172 23 642 23Z" fill="white"/>
<path id="Oval_14" fill-rule="evenodd" clip-rule="evenodd" d="M649 23C649.828 23 650.5 22.3284 650.5 21.5C650.5 20.6716 649.828 20 649 20C648.172 20 647.5 20.6716 647.5 21.5C647.5 22.3284 648.172 23 649 23Z" fill="white"/>
<path id="Oval_15" fill-rule="evenodd" clip-rule="evenodd" d="M656 23C656.828 23 657.5 22.3284 657.5 21.5C657.5 20.6716 656.828 20 656 20C655.172 20 654.5 20.6716 654.5 21.5C654.5 22.3284 655.172 23 656 23Z" fill="white"/>
<path id="Oval_16" fill-rule="evenodd" clip-rule="evenodd" d="M663 23C663.828 23 664.5 22.3284 664.5 21.5C664.5 20.6716 663.828 20 663 20C662.172 20 661.5 20.6716 661.5 21.5C661.5 22.3284 662.172 23 663 23Z" fill="white"/>
<path id="Oval_17" fill-rule="evenodd" clip-rule="evenodd" d="M670 23C670.828 23 671.5 22.3284 671.5 21.5C671.5 20.6716 670.828 20 670 20C669.172 20 668.5 20.6716 668.5 21.5C668.5 22.3284 669.172 23 670 23Z" fill="white"/>
<path id="Oval_18" fill-rule="evenodd" clip-rule="evenodd" d="M628 28C628.828 28 629.5 27.3284 629.5 26.5C629.5 25.6716 628.828 25 628 25C627.172 25 626.5 25.6716 626.5 26.5C626.5 27.3284 627.172 28 628 28Z" fill="white"/>
<path id="Oval_19" fill-rule="evenodd" clip-rule="evenodd" d="M635 28C635.828 28 636.5 27.3284 636.5 26.5C636.5 25.6716 635.828 25 635 25C634.172 25 633.5 25.6716 633.5 26.5C633.5 27.3284 634.172 28 635 28Z" fill="white"/>
<path id="Oval_20" fill-rule="evenodd" clip-rule="evenodd" d="M642 28C642.828 28 643.5 27.3284 643.5 26.5C643.5 25.6716 642.828 25 642 25C641.172 25 640.5 25.6716 640.5 26.5C640.5 27.3284 641.172 28 642 28Z" fill="white"/>
<path id="Oval_21" fill-rule="evenodd" clip-rule="evenodd" d="M649 28C649.828 28 650.5 27.3284 650.5 26.5C650.5 25.6716 649.828 25 649 25C648.172 25 647.5 25.6716 647.5 26.5C647.5 27.3284 648.172 28 649 28Z" fill="white"/>
<path id="Oval_22" fill-rule="evenodd" clip-rule="evenodd" d="M656 28C656.828 28 657.5 27.3284 657.5 26.5C657.5 25.6716 656.828 25 656 25C655.172 25 654.5 25.6716 654.5 26.5C654.5 27.3284 655.172 28 656 28Z" fill="white"/>
<path id="Oval_23" fill-rule="evenodd" clip-rule="evenodd" d="M663 28C663.828 28 664.5 27.3284 664.5 26.5C664.5 25.6716 663.828 25 663 25C662.172 25 661.5 25.6716 661.5 26.5C661.5 27.3284 662.172 28 663 28Z" fill="white"/>
<path id="Oval_24" fill-rule="evenodd" clip-rule="evenodd" d="M670 28C670.828 28 671.5 27.3284 671.5 26.5C671.5 25.6716 670.828 25 670 25C669.172 25 668.5 25.6716 668.5 26.5C668.5 27.3284 669.172 28 670 28Z" fill="white"/>
<path id="Oval_25" fill-rule="evenodd" clip-rule="evenodd" d="M628 33C628.828 33 629.5 32.3284 629.5 31.5C629.5 30.6716 628.828 30 628 30C627.172 30 626.5 30.6716 626.5 31.5C626.5 32.3284 627.172 33 628 33Z" fill="white"/>
<path id="Oval_26" fill-rule="evenodd" clip-rule="evenodd" d="M635 33C635.828 33 636.5 32.3284 636.5 31.5C636.5 30.6716 635.828 30 635 30C634.172 30 633.5 30.6716 633.5 31.5C633.5 32.3284 634.172 33 635 33Z" fill="white"/>
<path id="Oval_27" fill-rule="evenodd" clip-rule="evenodd" d="M642 33C642.828 33 643.5 32.3284 643.5 31.5C643.5 30.6716 642.828 30 642 30C641.172 30 640.5 30.6716 640.5 31.5C640.5 32.3284 641.172 33 642 33Z" fill="white"/>
<path id="Oval_28" fill-rule="evenodd" clip-rule="evenodd" d="M649 33C649.828 33 650.5 32.3284 650.5 31.5C650.5 30.6716 649.828 30 649 30C648.172 30 647.5 30.6716 647.5 31.5C647.5 32.3284 648.172 33 649 33Z" fill="white"/>
<path id="Oval_29" fill-rule="evenodd" clip-rule="evenodd" d="M656 33C656.828 33 657.5 32.3284 657.5 31.5C657.5 30.6716 656.828 30 656 30C655.172 30 654.5 30.6716 654.5 31.5C654.5 32.3284 655.172 33 656 33Z" fill="white"/>
<path id="Oval_30" fill-rule="evenodd" clip-rule="evenodd" d="M663 33C663.828 33 664.5 32.3284 664.5 31.5C664.5 30.6716 663.828 30 663 30C662.172 30 661.5 30.6716 661.5 31.5C661.5 32.3284 662.172 33 663 33Z" fill="white"/>
</g>
</g>
</g>
</g>
</svg>
