<svg width="120" height="81" viewBox="0 0 120 81" fill="none" xmlns="http://www.w3.org/2000/svg">
<path d="M40.0571 9.25C39.631 9.25 39.2856 9.59538 39.2856 10.0214V13.5357H35.7714C35.3454 13.5357 35 13.8811 35 14.3072V16.1929C35 16.6189 35.3454 16.9643 35.7714 16.9643H39.2856V20.4786C39.2856 20.9046 39.631 21.25 40.0571 21.25H41.9428C42.3688 21.25 42.7142 20.9046 42.7142 20.4786V16.9643H46.2286C46.6546 16.9643 47 16.6189 47 16.1929V14.3072C47 13.8811 46.6546 13.5357 46.2286 13.5357H42.7142V10.0214C42.7142 9.59538 42.3688 9.25 41.9428 9.25H40.0571Z" fill="white"/>
<path fill-rule="evenodd" clip-rule="evenodd" d="M31 2.5C30.4477 2.5 30 2.94772 30 3.5V26.25C30 26.8023 30.4477 27.25 31 27.25H89C89.5523 27.25 90 26.8023 90 26.25V3.5C90 2.94772 89.5523 2.5 89 2.5H31ZM28 3.5C28 1.84315 29.3431 0.5 31 0.5H89C90.6569 0.5 92 1.84315 92 3.5V26.25C92 27.9069 90.6569 29.25 89 29.25H31C29.3431 29.25 28 27.9069 28 26.25V3.5Z" fill="white"/>
<path fill-rule="evenodd" clip-rule="evenodd" d="M73.75 21.4643C75.2688 21.4643 76.5 20.2331 76.5 18.7143C76.5 17.1955 75.2688 15.9643 73.75 15.9643C72.2312 15.9643 71 17.1955 71 18.7143C71 20.2331 72.2312 21.4643 73.75 21.4643Z" fill="white"/>
<path fill-rule="evenodd" clip-rule="evenodd" d="M34 5.75C33.7239 5.75 33.5 5.97386 33.5 6.25V23.25C33.5 23.5261 33.7239 23.75 34 23.75H86C86.2761 23.75 86.5 23.5261 86.5 23.25V14.375C86.5 14.0989 86.2761 13.875 86 13.875H55.375C54.5466 13.875 53.875 13.2034 53.875 12.375V6.25C53.875 5.97386 53.6511 5.75 53.375 5.75H34ZM32.5 6.25C32.5 5.42157 33.1716 4.75 34 4.75H53.375C54.2034 4.75 54.875 5.42157 54.875 6.25V12.375C54.875 12.6511 55.0989 12.875 55.375 12.875H86C86.8284 12.875 87.5 13.5466 87.5 14.375V23.25C87.5 24.0784 86.8284 24.75 86 24.75H34C33.1716 24.75 32.5 24.0784 32.5 23.25V6.25Z" fill="white"/>
<path fill-rule="evenodd" clip-rule="evenodd" d="M52.2119 18.4643C51.6596 18.4643 51.2119 18.912 51.2119 19.4643C51.2119 20.0166 51.6596 20.4643 52.2119 20.4643H55.2119C55.7642 20.4643 56.2119 20.0166 56.2119 19.4643C56.2119 18.912 55.7642 18.4643 55.2119 18.4643H52.2119Z" fill="white"/>
<path fill-rule="evenodd" clip-rule="evenodd" d="M59.1875 18.4643C58.6352 18.4643 58.1875 18.912 58.1875 19.4643C58.1875 20.0166 58.6352 20.4643 59.1875 20.4643H62.1875C62.7398 20.4643 63.1875 20.0166 63.1875 19.4643C63.1875 18.912 62.7398 18.4643 62.1875 18.4643H59.1875Z" fill="white"/>
<path fill-rule="evenodd" clip-rule="evenodd" d="M49.5 19.4643C49.5 18.0836 50.6193 16.9643 52 16.9643H62.3125C63.6932 16.9643 64.8125 18.0836 64.8125 19.4643C64.8125 20.845 63.6932 21.9643 62.3125 21.9643H52C50.6193 21.9643 49.5 20.845 49.5 19.4643ZM52 17.9643C51.1716 17.9643 50.5 18.6359 50.5 19.4643C50.5 20.2927 51.1716 20.9643 52 20.9643H62.3125C63.1409 20.9643 63.8125 20.2927 63.8125 19.4643C63.8125 18.6359 63.1409 17.9643 62.3125 17.9643H52Z" fill="white"/>
<path fill-rule="evenodd" clip-rule="evenodd" d="M80.75 21.4643C82.2688 21.4643 83.5 20.2331 83.5 18.7143C83.5 17.1955 82.2688 15.9643 80.75 15.9643C79.2312 15.9643 78 17.1955 78 18.7143C78 20.2331 79.2312 21.4643 80.75 21.4643Z" fill="white"/>
</svg>
