<svg width="120" height="81" viewBox="0 0 120 81" fill="none" xmlns="http://www.w3.org/2000/svg">
<path fill-rule="evenodd" clip-rule="evenodd" d="M94 2.5H26C25.4477 2.5 25 2.94772 25 3.5V44.5C25 45.0523 25.4477 45.5 26 45.5H94C94.5523 45.5 95 45.0523 95 44.5V3.5C95 2.94771 94.5523 2.5 94 2.5ZM26 0.5C24.3431 0.5 23 1.84315 23 3.5V44.5C23 46.1569 24.3431 47.5 26 47.5H94C95.6569 47.5 97 46.1569 97 44.5V3.5C97 1.84315 95.6569 0.5 94 0.5H26Z" fill="white"/>
<path fill-rule="evenodd" clip-rule="evenodd" d="M54.3099 13.1458C53.7765 13.0029 53.2281 13.3195 53.0852 13.8529C52.9422 14.3864 53.2588 14.9348 53.7923 15.0777L56.6901 15.8542C57.2235 15.9971 57.7719 15.6805 57.9148 15.147C58.0577 14.6136 57.7412 14.0652 57.2077 13.9223L54.3099 13.1458Z" fill="white"/>
<path fill-rule="evenodd" clip-rule="evenodd" d="M65.6901 13.1458C66.2235 13.0029 66.7719 13.3195 66.9148 13.8529C67.0578 14.3864 66.7412 14.9348 66.2077 15.0777L63.3099 15.8542C62.7765 15.9971 62.2281 15.6805 62.0852 15.147C61.9423 14.6136 62.2588 14.0652 62.7923 13.9223L65.6901 13.1458Z" fill="white"/>
<path fill-rule="evenodd" clip-rule="evenodd" d="M85.5 17.5C86.8807 17.5 88 16.3807 88 15C88 13.6193 86.8807 12.5 85.5 12.5C84.1193 12.5 83 13.6193 83 15C83 16.3807 84.1193 17.5 85.5 17.5ZM90 15C90 17.4853 87.9853 19.5 85.5 19.5C83.0147 19.5 81 17.4853 81 15C81 12.5147 83.0147 10.5 85.5 10.5C87.9853 10.5 90 12.5147 90 15Z" fill="white"/>
<path fill-rule="evenodd" clip-rule="evenodd" d="M76.5 21.5C77.8807 21.5 79 20.3807 79 19C79 17.6193 77.8807 16.5 76.5 16.5C75.1193 16.5 74 17.6193 74 19C74 20.3807 75.1193 21.5 76.5 21.5ZM81 19C81 21.4853 78.9853 23.5 76.5 23.5C74.0147 23.5 72 21.4853 72 19C72 16.5147 74.0147 14.5 76.5 14.5C78.9853 14.5 81 16.5147 81 19Z" fill="white"/>
<path fill-rule="evenodd" clip-rule="evenodd" d="M69.5 28.5C70.8807 28.5 72 27.3807 72 26C72 24.6193 70.8807 23.5 69.5 23.5C68.1193 23.5 67 24.6193 67 26C67 27.3807 68.1193 28.5 69.5 28.5ZM74 26C74 28.4853 71.9853 30.5 69.5 30.5C67.0147 30.5 65 28.4853 65 26C65 23.5147 67.0147 21.5 69.5 21.5C71.9853 21.5 74 23.5147 74 26Z" fill="white"/>
<path fill-rule="evenodd" clip-rule="evenodd" d="M65.5 37.5C66.8807 37.5 68 36.3807 68 35C68 33.6193 66.8807 32.5 65.5 32.5C64.1193 32.5 63 33.6193 63 35C63 36.3807 64.1193 37.5 65.5 37.5ZM70 35C70 37.4853 67.9853 39.5 65.5 39.5C63.0147 39.5 61 37.4853 61 35C61 32.5147 63.0147 30.5 65.5 30.5C67.9853 30.5 70 32.5147 70 35Z" fill="white"/>
<path fill-rule="evenodd" clip-rule="evenodd" d="M43 27C44.3807 27 45.5 25.8807 45.5 24.5C45.5 23.1193 44.3807 22 43 22C41.6193 22 40.5 23.1193 40.5 24.5C40.5 25.8807 41.6193 27 43 27ZM47.5 24.5C47.5 26.9853 45.4853 29 43 29C40.5147 29 38.5 26.9853 38.5 24.5C38.5 22.0147 40.5147 20 43 20C45.4853 20 47.5 22.0147 47.5 24.5Z" fill="white"/>
<path fill-rule="evenodd" clip-rule="evenodd" d="M43 31.5C46.866 31.5 50 28.366 50 24.5C50 20.634 46.866 17.5 43 17.5C39.134 17.5 36 20.634 36 24.5C36 28.366 39.134 31.5 43 31.5ZM52 24.5C52 29.4706 47.9706 33.5 43 33.5C38.0294 33.5 34 29.4706 34 24.5C34 19.5294 38.0294 15.5 43 15.5C47.9706 15.5 52 19.5294 52 24.5Z" fill="white"/>
<path fill-rule="evenodd" clip-rule="evenodd" d="M59.9999 12.5258L95.2227 4.47486L94.7771 2.52514L59.9999 10.4742L25.2227 2.52514L24.7771 4.47486L59.9999 12.5258Z" fill="white"/>
</svg>
