<svg width="120" height="81" viewBox="0 0 120 81" fill="none" xmlns="http://www.w3.org/2000/svg">
<path d="M41.5237 23.8623C42.1772 23.8623 42.7069 23.4133 42.7069 22.8594V19.5291H46.0372C46.591 19.5291 47.04 18.9994 47.04 18.346V16.3789C47.04 15.7255 46.591 15.1958 46.0372 15.1958H42.7069V11.8652C42.7069 11.3113 42.1772 10.8623 41.5237 10.8623H39.5567C38.9032 10.8623 38.3735 11.3113 38.3735 11.8652V15.1958H35.0429C34.489 15.1958 34.04 15.7255 34.04 16.3789V18.346C34.04 18.9994 34.489 19.5291 35.0429 19.5291H38.3735V22.8594C38.3735 23.4133 38.9032 23.8623 39.5567 23.8623H41.5237Z" fill="white"/>
<path fill-rule="evenodd" clip-rule="evenodd" d="M72.54 23.8623C74.473 23.8623 76.04 22.2953 76.04 20.3623C76.04 18.4293 74.473 16.8623 72.54 16.8623C70.607 16.8623 69.04 18.4293 69.04 20.3623C69.04 22.2953 70.607 23.8623 72.54 23.8623Z" fill="white"/>
<path fill-rule="evenodd" clip-rule="evenodd" d="M81.54 23.8623C83.473 23.8623 85.04 22.2953 85.04 20.3623C85.04 18.4293 83.473 16.8623 81.54 16.8623C79.607 16.8623 78.04 18.4293 78.04 20.3623C78.04 22.2953 79.607 23.8623 81.54 23.8623Z" fill="white"/>
<path fill-rule="evenodd" clip-rule="evenodd" d="M32.5166 2.5C31.1359 2.5 30.0166 3.61929 30.0166 5V25.25C30.0166 26.6307 31.1359 27.75 32.5166 27.75H87.4829C88.8636 27.75 89.9829 26.6307 89.9829 25.25V5C89.9829 3.61929 88.8636 2.5 87.4829 2.5H32.5166ZM32.5166 0.5C30.0313 0.5 28.0166 2.51472 28.0166 5V25.25C28.0166 27.7353 30.0313 29.75 32.5166 29.75H87.4829C89.9682 29.75 91.9829 27.7353 91.9829 25.25V5C91.9829 2.51472 89.9682 0.5 87.4829 0.5H32.5166Z" fill="white"/>
</svg>
