<svg width="120" height="81" viewBox="0 0 120 81" fill="none" xmlns="http://www.w3.org/2000/svg">
<path fill-rule="evenodd" clip-rule="evenodd" d="M85 4.5H36L36 30.5H85V4.5ZM36 3.5C35.4477 3.5 35 3.94771 35 4.5V30.5C35 31.0523 35.4477 31.5 36 31.5H85C85.5523 31.5 86 31.0523 86 30.5V4.5C86 3.94772 85.5523 3.5 85 3.5H36Z" fill="white"/>
<path fill-rule="evenodd" clip-rule="evenodd" d="M28.2265 2.35704C28.6758 1.67801 29.4554 0.5 31 0.5H89C90.5446 0.5 91.3242 1.67801 91.7735 2.35705C91.7937 2.38752 91.8132 2.41699 91.832 2.4453C92.0978 2.8439 92.2795 3.10621 92.4815 3.28796C92.6448 3.43498 92.7898 3.5 93 3.5H98.4504C100.143 3.5 101.801 4.35586 102.636 5.92986C104.784 9.97988 106 14.5994 106 19.5C106 19.5252 106 19.5502 106 19.5746C106 19.5938 106 19.6127 105.999 19.6309C105.999 19.6731 105.999 19.7118 105.999 19.75C105.999 19.7723 105.999 19.7947 105.999 19.8179C105.999 19.8345 105.999 19.8515 105.999 19.8691L106 19.8738C106 19.9137 106 19.9566 106 20C106 24.9006 104.784 29.5201 102.636 33.5701C101.801 35.1441 100.143 36 98.4504 36H93C92.7898 36 92.6448 36.065 92.4815 36.212C92.2795 36.3938 92.0978 36.6561 91.832 37.0547C91.8132 37.083 91.7937 37.1125 91.7735 37.143C91.3242 37.822 90.5446 39 89 39H31C29.4554 39 28.6758 37.822 28.2265 37.143C28.2063 37.1125 28.1868 37.083 28.1679 37.0547C27.9022 36.6561 27.7205 36.3938 27.5185 36.212C27.3552 36.065 27.2102 36 27 36H21.5496C19.8566 36 18.1993 35.1441 17.3645 33.5701C15.2162 29.5201 14 24.9006 14 20L14 19.9961L14.001 19.75L14 19.5039L14 19.5C14 14.5994 15.2162 9.97988 17.3645 5.92986C18.1993 4.35586 19.8566 3.5 21.5496 3.5H27C27.2102 3.5 27.3552 3.43498 27.5185 3.28796C27.7205 3.10621 27.9022 2.8439 28.1679 2.4453C28.1868 2.41699 28.2063 2.38752 28.2265 2.35704ZM30.4815 2.71204C30.2795 2.89379 30.0978 3.1561 29.8321 3.5547C29.8132 3.58301 29.7937 3.61248 29.7735 3.64296C29.3242 4.32199 28.5446 5.5 27 5.5H21.5496C20.506 5.5 19.5787 6.02348 19.1313 6.86703C17.1328 10.6348 16.0003 14.9327 16 19.4981C16 19.4987 16 19.4994 16 19.5L16.001 19.7539L16 20C16 20.0006 16 20.0013 16 20.0019C16.0003 24.5673 17.1328 28.8652 19.1313 32.633C19.5787 33.4765 20.506 34 21.5496 34H27C28.5446 34 29.3242 35.178 29.7735 35.857C29.7937 35.8875 29.8132 35.917 29.8321 35.9453C30.0978 36.3439 30.2795 36.6062 30.4815 36.788C30.6448 36.935 30.7898 37 31 37H89C89.2102 37 89.3552 36.935 89.5185 36.788C89.7205 36.6062 89.9022 36.3439 90.168 35.9453C90.1868 35.917 90.2063 35.8875 90.2265 35.857C90.6758 35.178 91.4554 34 93 34H98.4504C99.494 34 100.421 33.4765 100.869 32.633C102.868 28.8646 104 24.5661 104 20C104 19.9617 104 19.9229 104 19.8808C103.999 19.8396 103.999 19.795 103.999 19.75C103.999 19.705 103.999 19.6604 104 19.6192C104 19.5938 104 19.5696 104 19.5461C104 19.5305 104 19.5152 104 19.5C104 14.9339 102.868 10.6354 100.869 6.86703C100.421 6.02348 99.494 5.5 98.4504 5.5H93C91.4554 5.5 90.6758 4.32199 90.2265 3.64295C90.2063 3.61248 90.1868 3.58301 90.168 3.5547C89.9022 3.1561 89.7205 2.89379 89.5185 2.71204C89.3552 2.56502 89.2102 2.5 89 2.5H31C30.7898 2.5 30.6448 2.56502 30.4815 2.71204Z" fill="white"/>
<path fill-rule="evenodd" clip-rule="evenodd" d="M94.5 22.5C97.5376 22.5 100 20.0376 100 17C100 13.9624 97.5376 11.5 94.5 11.5C91.4624 11.5 89 13.9624 89 17C89 20.0376 91.4624 22.5 94.5 22.5ZM101 17C101 20.5899 98.0899 23.5 94.5 23.5C90.9101 23.5 88 20.5899 88 17C88 13.4101 90.9101 10.5 94.5 10.5C98.0899 10.5 101 13.4101 101 17Z" fill="white"/>
<path fill-rule="evenodd" clip-rule="evenodd" d="M26.5 23.5C30.0899 23.5 33 20.5899 33 17C33 13.4101 30.0899 10.5 26.5 10.5C22.9101 10.5 20 13.4101 20 17C20 20.5899 22.9101 23.5 26.5 23.5ZM34 17C34 21.1421 30.6421 24.5 26.5 24.5C22.3579 24.5 19 21.1421 19 17C19 12.8579 22.3579 9.5 26.5 9.5C30.6421 9.5 34 12.8579 34 17Z" fill="white"/>
<path fill-rule="evenodd" clip-rule="evenodd" d="M26 30.5C27.1046 30.5 28 29.6046 28 28.5C28 27.3954 27.1046 26.5 26 26.5C24.8954 26.5 24 27.3954 24 28.5C24 29.6046 24.8954 30.5 26 30.5ZM29 28.5C29 30.1569 27.6569 31.5 26 31.5C24.3431 31.5 23 30.1569 23 28.5C23 26.8431 24.3431 25.5 26 25.5C27.6569 25.5 29 26.8431 29 28.5Z" fill="white"/>
<path fill-rule="evenodd" clip-rule="evenodd" d="M22 18.5C21.4477 18.5 21 18.0523 21 17.5V16.5C21 15.9477 21.4477 15.5 22 15.5H24L26 17L24 18.5H22Z" fill="white"/>
<path fill-rule="evenodd" clip-rule="evenodd" d="M31 18.5C31.5523 18.5 32 18.0523 32 17.5V16.5C32 15.9477 31.5523 15.5 31 15.5H29L27 17L29 18.5H31Z" fill="white"/>
<path fill-rule="evenodd" clip-rule="evenodd" d="M28 21.5C28 22.0523 27.5523 22.5 27 22.5L26 22.5C25.4477 22.5 25 22.0523 25 21.5L25 19.5L26.5 17.5L28 19.5L28 21.5Z" fill="white"/>
<path fill-rule="evenodd" clip-rule="evenodd" d="M28 12.5C28 11.9477 27.5523 11.5 27 11.5L26 11.5C25.4477 11.5 25 11.9477 25 12.5L25 14.5L26.5 16.5L28 14.5L28 12.5Z" fill="white"/>
<path fill-rule="evenodd" clip-rule="evenodd" d="M94.5 14.5C95.8807 14.5 97 13.3807 97 12C97 10.6193 95.8807 9.5 94.5 9.5C93.1193 9.5 92 10.6193 92 12C92 13.3807 93.1193 14.5 94.5 14.5Z" fill="white"/>
<path fill-rule="evenodd" clip-rule="evenodd" d="M94.5 12.5C94.7761 12.5 95 12.2761 95 12C95 11.7239 94.7761 11.5 94.5 11.5C94.2239 11.5 94 11.7239 94 12C94 12.2761 94.2239 12.5 94.5 12.5ZM97 12C97 13.3807 95.8807 14.5 94.5 14.5C93.1193 14.5 92 13.3807 92 12C92 10.6193 93.1193 9.5 94.5 9.5C95.8807 9.5 97 10.6193 97 12Z" fill="white"/>
<path fill-rule="evenodd" clip-rule="evenodd" d="M89.5 19.5C90.8807 19.5 92 18.3807 92 17C92 15.6193 90.8807 14.5 89.5 14.5C88.1193 14.5 87 15.6193 87 17C87 18.3807 88.1193 19.5 89.5 19.5Z" fill="white"/>
<path fill-rule="evenodd" clip-rule="evenodd" d="M89.5 17.5C89.7761 17.5 90 17.2761 90 17C90 16.7239 89.7761 16.5 89.5 16.5C89.2239 16.5 89 16.7239 89 17C89 17.2761 89.2239 17.5 89.5 17.5ZM92 17C92 18.3807 90.8807 19.5 89.5 19.5C88.1193 19.5 87 18.3807 87 17C87 15.6193 88.1193 14.5 89.5 14.5C90.8807 14.5 92 15.6193 92 17Z" fill="white"/>
<path fill-rule="evenodd" clip-rule="evenodd" d="M99.5 19.5C100.881 19.5 102 18.3807 102 17C102 15.6193 100.881 14.5 99.5 14.5C98.1193 14.5 97 15.6193 97 17C97 18.3807 98.1193 19.5 99.5 19.5Z" fill="white"/>
<path fill-rule="evenodd" clip-rule="evenodd" d="M99.5 17.5C99.7761 17.5 100 17.2761 100 17C100 16.7239 99.7761 16.5 99.5 16.5C99.2239 16.5 99 16.7239 99 17C99 17.2761 99.2239 17.5 99.5 17.5ZM102 17C102 18.3807 100.881 19.5 99.5 19.5C98.1193 19.5 97 18.3807 97 17C97 15.6193 98.1193 14.5 99.5 14.5C100.881 14.5 102 15.6193 102 17Z" fill="white"/>
<path fill-rule="evenodd" clip-rule="evenodd" d="M94.5 24.5C95.8807 24.5 97 23.3807 97 22C97 20.6193 95.8807 19.5 94.5 19.5C93.1193 19.5 92 20.6193 92 22C92 23.3807 93.1193 24.5 94.5 24.5Z" fill="white"/>
<path fill-rule="evenodd" clip-rule="evenodd" d="M94.5 22.5C94.7761 22.5 95 22.2761 95 22C95 21.7239 94.7761 21.5 94.5 21.5C94.2239 21.5 94 21.7239 94 22C94 22.2761 94.2239 22.5 94.5 22.5ZM97 22C97 23.3807 95.8807 24.5 94.5 24.5C93.1193 24.5 92 23.3807 92 22C92 20.6193 93.1193 19.5 94.5 19.5C95.8807 19.5 97 20.6193 97 22Z" fill="white"/>
<path fill-rule="evenodd" clip-rule="evenodd" d="M100.757 4.5C100.613 4.16322 100.462 3.82984 100.306 3.5C100.129 3.12835 99.9445 2.76121 99.7523 2.3988C99.111 1.18989 97.8185 0.5 96.4501 0.5H89L92 4.5H100.757ZM91 1.5L92.5 3.5H99.1938C99.0882 3.28755 98.9799 3.07667 98.8689 2.86743C98.4213 2.02364 97.4937 1.5 96.4501 1.5H91Z" fill="white"/>
<path fill-rule="evenodd" clip-rule="evenodd" d="M19 4.5C19.144 4.16322 19.2945 3.82984 19.4512 3.5C19.6278 3.12835 19.8123 2.76121 20.0046 2.3988C20.6459 1.18989 21.9383 0.5 23.3068 0.5H30.7568L27.7568 4.5H19ZM28.7568 1.5L27.2568 3.5H20.563C20.6686 3.28755 20.777 3.07667 20.888 2.86743C21.3356 2.02364 22.2631 1.5 23.3068 1.5H28.7568Z" fill="white"/>
<path fill-rule="evenodd" clip-rule="evenodd" d="M37.5 33.5H34.5C34.2239 33.5 34 33.7239 34 34C34 34.2761 34.2239 34.5 34.5 34.5H37.5C37.7761 34.5 38 34.2761 38 34C38 33.7239 37.7761 33.5 37.5 33.5ZM34.5 32.5C33.6716 32.5 33 33.1716 33 34C33 34.8284 33.6716 35.5 34.5 35.5H37.5C38.3284 35.5 39 34.8284 39 34C39 33.1716 38.3284 32.5 37.5 32.5H34.5Z" fill="white"/>
<path fill-rule="evenodd" clip-rule="evenodd" d="M44.5 33.5H43.5C43.2239 33.5 43 33.7239 43 34C43 34.2761 43.2239 34.5 43.5 34.5H44.5C44.7761 34.5 45 34.2761 45 34C45 33.7239 44.7761 33.5 44.5 33.5ZM43.5 32.5C42.6716 32.5 42 33.1716 42 34C42 34.8284 42.6716 35.5 43.5 35.5H44.5C45.3284 35.5 46 34.8284 46 34C46 33.1716 45.3284 32.5 44.5 32.5H43.5Z" fill="white"/>
<path fill-rule="evenodd" clip-rule="evenodd" d="M50.5 33.5H49.5C49.2239 33.5 49 33.7239 49 34C49 34.2761 49.2239 34.5 49.5 34.5H50.5C50.7761 34.5 51 34.2761 51 34C51 33.7239 50.7761 33.5 50.5 33.5ZM49.5 32.5C48.6716 32.5 48 33.1716 48 34C48 34.8284 48.6716 35.5 49.5 35.5H50.5C51.3284 35.5 52 34.8284 52 34C52 33.1716 51.3284 32.5 50.5 32.5H49.5Z" fill="white"/>
<path fill-rule="evenodd" clip-rule="evenodd" d="M66.5 33.5H65.5C65.2239 33.5 65 33.7239 65 34C65 34.2761 65.2239 34.5 65.5 34.5H66.5C66.7761 34.5 67 34.2761 67 34C67 33.7239 66.7761 33.5 66.5 33.5ZM65.5 32.5C64.6716 32.5 64 33.1716 64 34C64 34.8284 64.6716 35.5 65.5 35.5H66.5C67.3284 35.5 68 34.8284 68 34C68 33.1716 67.3284 32.5 66.5 32.5H65.5Z" fill="white"/>
<path fill-rule="evenodd" clip-rule="evenodd" d="M71.5 33.5H70.5C70.2239 33.5 70 33.7239 70 34C70 34.2761 70.2239 34.5 70.5 34.5H71.5C71.7761 34.5 72 34.2761 72 34C72 33.7239 71.7761 33.5 71.5 33.5ZM70.5 32.5C69.6716 32.5 69 33.1716 69 34C69 34.8284 69.6716 35.5 70.5 35.5H71.5C72.3284 35.5 73 34.8284 73 34C73 33.1716 72.3284 32.5 71.5 32.5H70.5Z" fill="white"/>
<path fill-rule="evenodd" clip-rule="evenodd" d="M85.5 33.5H82.5C82.2239 33.5 82 33.7239 82 34C82 34.2761 82.2239 34.5 82.5 34.5H85.5C85.7761 34.5 86 34.2761 86 34C86 33.7239 85.7761 33.5 85.5 33.5ZM82.5 32.5C81.6716 32.5 81 33.1716 81 34C81 34.8284 81.6716 35.5 82.5 35.5H85.5C86.3284 35.5 87 34.8284 87 34C87 33.1716 86.3284 32.5 85.5 32.5H82.5Z" fill="white"/>
<path fill-rule="evenodd" clip-rule="evenodd" d="M78.5 33.5H75.5C75.2239 33.5 75 33.7239 75 34C75 34.2761 75.2239 34.5 75.5 34.5H78.5C78.7761 34.5 79 34.2761 79 34C79 33.7239 78.7761 33.5 78.5 33.5ZM75.5 32.5C74.6716 32.5 74 33.1716 74 34C74 34.8284 74.6716 35.5 75.5 35.5H78.5C79.3284 35.5 80 34.8284 80 34C80 33.1716 79.3284 32.5 78.5 32.5H75.5Z" fill="white"/>
</svg>
