<svg width="565" height="180" viewBox="0 0 565 180" fill="none" xmlns="http://www.w3.org/2000/svg">
<path d="M317.669 90.8809C281.499 90.8809 264.795 114.284 264.795 136.16V150.601V179.249H283.542V150.601V136.16C283.542 120.337 292.018 105.822 317.669 105.822C343.321 105.822 351.797 120.352 351.797 136.16V150.601V179.249H370.544V150.601V136.16C370.544 114.269 353.854 90.8809 317.669 90.8809Z" fill="white"/>
<path d="M140.051 90.8819C119.307 90.8819 104.998 98.5801 96.5357 109.246C88.0735 98.5654 73.7642 90.8672 53.0347 90.8672C16.8647 90.8819 0.160645 114.27 0.160645 136.161V150.602V179.25H18.9068V150.602V136.161C18.9068 120.338 27.3837 105.823 53.0347 105.823C78.6858 105.823 87.1627 120.353 87.1627 136.161V150.602V179.25H105.909V150.602V136.161C105.909 120.338 114.386 105.823 140.037 105.823C165.688 105.823 174.165 120.353 174.165 136.161V150.602V179.25H192.911V150.602V136.161C192.926 114.27 176.221 90.8819 140.051 90.8819Z" fill="white"/>
<path d="M219.179 179.234H237.925V121.6H219.179V179.234ZM219.179 90.8809V105.822H237.925V90.8809H219.179Z" fill="white"/>
<path d="M396.929 179.234H415.675V121.6H396.929V179.234ZM396.929 90.8809V105.822H415.675V90.8809H396.929Z" fill="white"/>
<path d="M546.017 69.0059C509.847 69.0059 493.143 92.4091 493.143 114.285V134.103C493.143 149.926 484.666 164.441 459.015 164.441H440.871V179.382H459.015C495.185 179.382 511.889 155.979 511.889 134.103V114.285C511.889 98.462 520.366 83.9469 546.017 83.9469H564.161V69.0059H546.017Z" fill="white"/>
<path d="M0.160645 0H109.536V32.4345H4.48286V60.5467H0.160645V28.1123H105.214V4.32217H0.160645V0" fill="white"/>
<path d="M246.165 32.4345V60.5467H241.843V28.1123H346.897V4.32217H241.843V0H351.219V32.4345H246.165" fill="white"/>
<path d="M165.304 0V56.2245H109.536V60.5467H169.867V4.32217H225.635V0H165.304" fill="white"/>
</svg>
