<?xml version="1.0" encoding="UTF-8"?>
<svg width="487px" height="115px" viewBox="0 0 487 115" version="1.1" xmlns="http://www.w3.org/2000/svg" xmlns:xlink="http://www.w3.org/1999/xlink">
    <title>mainlogo</title>
    <g id="Page-1" stroke="none" stroke-width="1" fill="none" fill-rule="evenodd">
        <g id="mainlogo" transform="translate(1.000000, 0.000000)">
            <g id="Group-2" transform="translate(0.000000, 51.000000)">
                <g id="Atari_Lynx_logo" stroke-width="2.03749999">
                    <rect id="rect5539" stroke="#FFD42A" fill="#FFD42A" fill-rule="nonzero" x="0.888152137" y="1.02207341" width="34.3227515" height="41.3087987"></rect>
                    <rect id="rect5541" stroke="#FFD42A" fill="#FFD42A" fill-rule="nonzero" x="0.73627927" y="47.1907141" width="86.8699743" height="12.9089993"></rect>
                    <polygon id="path5543" stroke="#FFD42A" fill="#FFD42A" points="56.1690441 1.02210792 96.1110042 1.02210792 123.903324 23.8027274 102.18583 38.5341321"></polygon>
                    <polygon id="path5545" stroke="#FFD42A" fill="#FFD42A" points="106.893809 41.875273 170.375717 0.870231599 200.294224 0.870231599 138.634763 40.9640841 138.634763 60.099741 106.893809 60.099741"></polygon>
                    <polygon id="path5547" stroke="#FFD42A" fill="#FFD42A" points="208.950841 0.718366783 296.883904 60.5553929 315.867731 60.5553929 315.867731 0.566501967 298.706351 0.566501967 298.706351 41.875273 236.74316 0.718366783"></polygon>
                    <polygon id="path5549" stroke="#FFD42A" fill="#FFD42A" points="204.5466 6.79318944 238.565607 28.3587869 238.565607 60.099741 204.394724 60.099741"></polygon>
                    <polygon id="path5551" stroke="#FF2A2A" fill="#FF2A2A" points="324.979965 0.41462565 387.398762 31.3961982 398.637195 26.3844868 417.317269 35.1929911 444.046501 35.1929911 376.464093 0.262760834"></polygon>
                    <polygon id="path5553" stroke="#FFD42A" fill="#FFD42A" points="403.95266 10.4380485 420.810298 17.1204455 463.030316 1.47772537 418.987851 1.47772537"></polygon>
                    <polygon id="path5551-7" stroke="#FFD42A" fill="#FFD42A" points="460.089509 61.9223488 397.6707 30.9407763 386.432278 35.9524877 367.752205 27.1439833 341.022973 27.1439833 408.605381 62.0741561"></polygon>
                    <polygon id="path5553-8" stroke="#FF2A2A" fill="#FF2A2A" points="380.775087 52.772163 364.259164 44.9129144 322.039147 60.555508 366.081611 60.555508"></polygon>
                </g>
                <path d="M475.035907,6.37917415 L475.035907,0.950089767 L473,0.950089767 L473,-1.02140518e-14 L478.293357,-1.02140518e-14 L478.293357,0.950089767 L475.985996,0.950089767 L475.985996,6.37917415 L475.035907,6.37917415 Z M478.836266,6.37917415 L478.836266,-1.0658141e-14 L480.464991,-1.0658141e-14 L482.093716,5.15763016 L483.722442,-1.0658141e-14 L485.21544,-1.0658141e-14 L485.21544,6.37917415 L484.26535,6.37917415 L484.26535,0.950089767 L482.636625,6.37917415 L481.686535,6.37917415 L479.922083,0.950089767 L479.922083,6.37917415 L478.836266,6.37917415 Z" id="Shape" fill="#FFFFFF" fill-rule="nonzero"></path>
            </g>
            <path d="M151.519428,1.14096688 C152.400003,1.1245197 153.220933,1.57760211 153.666114,2.32575258 C154.111295,3.07390305 154.111295,4.00043659 153.666114,4.74858706 C153.220933,5.49673753 152.400003,5.94981994 151.519428,5.93337276 C150.193186,5.90860153 149.131209,4.84307434 149.131209,3.53716982 C149.131209,2.2312653 150.193186,1.16573812 151.519428,1.14096688 L151.519428,1.14096688 Z M151.519428,1.69635817 C150.486515,1.69635817 149.649174,2.52071068 149.649174,3.53760103 C149.649174,4.55449137 150.486515,5.37884388 151.519428,5.37884388 C152.553104,5.37884388 153.391433,4.55351863 153.391433,3.53760103 C153.389983,2.52062891 152.552424,1.69683284 151.519428,1.69635817 L151.519428,1.69635817 Z M150.466479,4.88468362 L151.029745,4.88468362 L151.029745,3.81960871 L151.690247,3.81960871 C151.885594,3.81960871 152.020498,3.90843682 152.029258,4.08954268 C152.020498,4.28530948 152.020498,4.50004928 152.029258,4.63286024 C152.034956,4.72128617 152.060698,4.80733315 152.104593,4.88468362 L152.708155,4.88468362 C152.648587,4.74756062 152.603912,4.71392667 152.603912,4.56300513 C152.598656,4.42588212 152.591648,4.07056968 152.576756,3.96018135 C152.547848,3.71611965 152.366516,3.64971417 152.271909,3.58675833 C152.456744,3.47981963 152.576756,3.39444116 152.645084,3.16159077 C152.711659,2.92874039 152.655595,2.73728563 152.617928,2.61827321 C152.539088,2.32677903 152.262273,2.20086734 151.988086,2.18965602 L150.467355,2.18965602 L150.467355,4.88468362 L150.466479,4.88468362 L150.466479,4.88468362 Z M151.029745,2.65276956 L151.790987,2.65276956 C152.04415,2.65276956 152.133501,2.76315789 152.133501,2.95547506 C152.147083,3.05311858 152.118861,3.15192941 152.055577,3.22829398 C151.992294,3.30465855 151.899636,3.35171576 151.799747,3.35821999 L151.029745,3.35821999 L151.029745,2.65276956 Z M25.6342966,0 L29.4545189,0 L29.4545189,10.5679578 C29.4545189,19.4430071 35.6364289,26.8959442 43.9925631,28.9812488 L44.006579,34.9862015 C33.5752082,33.2812192 25.6106446,24.3423517 25.6211462,13.6053617 L25.6342966,0 L25.6342966,0 Z M18.3722825,0 L14.5520601,0 L14.5520601,10.5679578 C14.5520601,19.4430071 8.37015014,26.8959442 0.01401595,28.9812488 L0,34.9862015 C10.4322468,33.2812192 18.3959344,24.3423517 18.3863071,13.6053617 L18.3722825,0 Z M19.2657993,0 L24.7276398,0 L24.7276398,34.9991376 L19.2657993,34.9991376 L19.2657993,0 Z M105.830058,21.4032624 L102.446083,10.5291494 L99.4212654,21.3868766 L105.830058,21.4032624 L105.830058,21.4032624 Z M97.8917748,26.8355756 L95.6299509,34.9542923 L89.3727052,34.9542923 L98.112526,3.76786418 C98.6756293,1.91163811 100.409992,0.639906274 102.377755,0.639906274 C104.348261,0.638554291 106.086293,1.91002737 106.653496,3.76786418 L116.239529,34.9991376 L110.028712,34.9534299 L107.517228,26.8485117 L97.8917748,26.8355756 L97.8917748,26.8355756 Z M67.4990632,21.4032624 L64.1159633,10.5291494 L61.0911461,21.3860142 L67.4990632,21.4032624 Z M59.5607795,26.8355756 L57.2989556,34.9542923 L51.0425859,34.9542923 L59.7815308,3.76786418 C60.344634,1.91163811 62.0789963,0.639906128 64.0467595,0.639906128 C66.0169038,0.638465588 67.7544773,1.91012428 68.3207483,3.76786418 L77.9076581,34.9991376 L71.6977162,34.9534299 L69.1862332,26.8485117 L59.5607795,26.8355756 L59.5607795,26.8355756 Z M131.773582,20.915139 C135.724328,19.4231717 138.530146,15.6544451 138.530146,11.2397743 C138.530146,5.51855411 133.818159,0.880519417 128.005919,0.880519417 L123.932534,0.862296047 C120.157863,0.845160654 117.973127,2.80627834 117.973127,6.72765129 L117.973127,34.8050956 L123.932534,34.8050956 L123.932534,6.55085748 L127.605589,6.55085748 C130.234189,6.54170232 132.432744,8.51436713 132.666673,11.0919416 C132.900603,13.669516 131.092098,15.9946501 128.503486,16.4444116 C128.083007,16.5461758 127.663405,16.6669131 127.273586,16.8980386 C125.199731,18.1289265 124.531863,20.7817366 125.781763,22.8236497 L133.265405,35 L139.56207,35 L131.423183,21.8215307 C131.338625,21.6842651 131.313085,21.5194951 131.352209,21.3636483 C131.391332,21.2078015 131.491897,21.0737143 131.63167,20.9910309 C131.684909,20.9615536 131.742568,20.9405943 131.80249,20.9289375 L131.773582,20.915139 L131.773582,20.915139 Z M73.1177072,6.71557757 L73.1177072,0.908978908 L93.912121,0.908978908 L93.912121,6.71557757 L86.5160794,6.71557757 L86.4941795,35 L80.5365247,35 L80.5365247,6.74576188 L73.1177072,6.71557757 Z M141.309684,0.880519417 L147.267339,0.880519417 L147.267339,35 L141.309684,35 L141.309684,0.880519417 Z" id="Shape" fill="#FFFFFF" fill-rule="nonzero"></path>
        </g>
    </g>
</svg>