<svg width="120" height="81" viewBox="0 0 120 81" fill="none" xmlns="http://www.w3.org/2000/svg">
<path fill-rule="evenodd" clip-rule="evenodd" d="M40.0903 24.352C42.9799 24.352 45.3224 22.0095 45.3224 19.1198C45.3224 16.2302 42.9799 13.8877 40.0903 13.8877C37.2007 13.8877 34.8582 16.2302 34.8582 19.1198C34.8582 22.0095 37.2007 24.352 40.0903 24.352ZM46.3224 19.1198C46.3224 22.5618 43.5322 25.352 40.0903 25.352C36.6484 25.352 33.8582 22.5618 33.8582 19.1198C33.8582 15.6779 36.6484 12.8877 40.0903 12.8877C43.5322 12.8877 46.3224 15.6779 46.3224 19.1198Z" fill="white"/>
<path d="M38.6775 14.9467C38.6775 14.5207 39.0229 14.1753 39.4489 14.1753H40.7315C41.1575 14.1753 41.5029 14.5207 41.5029 14.9467V23.2929C41.5029 23.7189 41.1575 24.0643 40.7315 24.0643H39.4489C39.0229 24.0643 38.6775 23.7189 38.6775 23.2929V14.9467Z" fill="white"/>
<path fill-rule="evenodd" clip-rule="evenodd" d="M35.9172 20.5327C35.4911 20.5327 35.1458 20.1873 35.1458 19.7613V18.4787C35.1458 18.0527 35.4911 17.7073 35.9172 17.7073H44.2633C44.6894 17.7073 45.0348 18.0527 45.0348 18.4787V19.7613C45.0348 20.1873 44.6894 20.5327 44.2633 20.5327H35.9172Z" fill="white"/>
<path fill-rule="evenodd" clip-rule="evenodd" d="M73.3582 25.3516C74.8769 25.3516 76.1082 24.1203 76.1082 22.6016C76.1082 21.0828 74.8769 19.8516 73.3582 19.8516C71.8394 19.8516 70.6082 21.0828 70.6082 22.6016C70.6082 24.1203 71.8394 25.3516 73.3582 25.3516Z" fill="white"/>
<path fill-rule="evenodd" clip-rule="evenodd" d="M80.3582 25.3516C81.8769 25.3516 83.1082 24.1203 83.1082 22.6016C83.1082 21.0828 81.8769 19.8516 80.3582 19.8516C78.8394 19.8516 77.6082 21.0828 77.6082 22.6016C77.6082 24.1203 78.8394 25.3516 80.3582 25.3516Z" fill="white"/>
<path fill-rule="evenodd" clip-rule="evenodd" d="M71.7502 2.5H48.2502L48.2502 9.74891L60.0002 13.1671L71.7502 9.74891V2.5ZM48.2502 0.5C47.1457 0.5 46.2502 1.39543 46.2502 2.5V9.74891C46.2502 10.6383 46.8376 11.4209 47.6916 11.6693L59.4416 15.0875C59.8065 15.1936 60.194 15.1936 60.5589 15.0875L72.3089 11.6693C73.1629 11.4209 73.7502 10.6383 73.7502 9.74891V2.5C73.7502 1.39543 72.8548 0.5 71.7502 0.5H48.2502Z" fill="white"/>
<path fill-rule="evenodd" clip-rule="evenodd" d="M65.4412 20.8516H54.5593V24.3516H65.4412V20.8516ZM53.5593 19.8516V25.3516H66.4412V19.8516H53.5593Z" fill="white"/>
<path fill-rule="evenodd" clip-rule="evenodd" d="M29.1278 3.24861C29.9692 2.40712 31.1706 2.1377 32.5168 2.1377H46.9832V4.1377H32.5168C31.3778 4.1377 30.8292 4.37563 30.542 4.66282C30.2548 4.95001 30.0168 5.49869 30.0168 6.6377V19.8877C30.0168 22.8412 30.9771 25.1972 32.5922 26.8123C34.2073 28.4274 36.5633 29.3877 39.5168 29.3877H80.4832C83.4367 29.3877 85.7927 28.4274 87.4078 26.8123C89.0229 25.1972 89.9832 22.8412 89.9832 19.8877V6.6377C89.9832 5.49869 89.7452 4.95001 89.458 4.66282C89.1708 4.37563 88.6222 4.1377 87.4832 4.1377H72.7332V2.1377H87.4832C88.8294 2.1377 90.0308 2.40712 90.8722 3.24861C91.7137 4.0901 91.9832 5.29142 91.9832 6.6377V19.8877C91.9832 23.2854 90.8691 26.1795 88.822 28.2265C86.7749 30.2736 83.8809 31.3877 80.4832 31.3877H39.5168C36.1191 31.3877 33.2251 30.2736 31.178 28.2265C29.1309 26.1795 28.0168 23.2854 28.0168 19.8877V6.6377C28.0168 5.29142 28.2863 4.0901 29.1278 3.24861Z" fill="white"/>
</svg>
