<svg width="355" height="118" viewBox="0 0 355 118" fill="none" xmlns="http://www.w3.org/2000/svg">
<g clip-path="url(#clip0)">
<path fill-rule="evenodd" clip-rule="evenodd" d="M6.0984 101.44V46H0V101.44H6.0984ZM23.0472 101.44V71.8984C24.2616 69.9976 25.7268 68.5588 27.4428 67.582C29.1588 66.6052 31.0728 66.1168 33.1848 66.1168C36.3 66.1168 38.7816 67.1464 40.6296 69.2056C42.4776 71.2648 43.4016 74.0368 43.4016 77.5216V101.44H49.1832V76.3336C49.1832 75.6472 49.1436 75.0004 49.0644 74.3932C48.9852 73.786 48.8928 73.192 48.7872 72.6112C50.0544 70.4992 51.5856 68.8888 53.3808 67.78C55.176 66.6712 57.156 66.1168 59.3208 66.1168C62.4888 66.1168 64.9968 67.1464 66.8448 69.2056C68.6928 71.2648 69.6168 74.0368 69.6168 77.5216V101.44H75.3984V76.3336C75.3984 71.7928 74.0388 68.0968 71.3196 65.2456C68.6004 62.3944 65.1024 60.9688 60.8256 60.9688C57.9744 60.9688 55.4004 61.5628 53.1036 62.7508C50.8068 63.9388 48.84 65.7472 47.2032 68.176C45.9888 65.9584 44.286 64.2028 42.0948 62.9092C39.9036 61.6156 37.4352 60.9688 34.6896 60.9688C32.3136 60.9688 30.1488 61.4044 28.1952 62.2756C26.2416 63.1468 24.5256 64.4272 23.0472 66.1168V61.7608H17.1864V101.44H23.0472ZM104.663 101.004C102.524 101.77 100.214 102.153 97.7328 102.153C93.4032 102.153 89.8788 101.044 87.1596 98.8264C84.4404 96.6088 83.0808 93.7312 83.0808 90.1936C83.0808 86.4976 84.5064 83.554 87.3576 81.3628C90.2088 79.1716 94.0632 78.076 98.9208 78.076C101.033 78.076 103.079 78.3136 105.059 78.7888C107.039 79.264 108.874 79.924 110.563 80.7688V75.5416C110.563 72.3736 109.666 69.9844 107.87 68.374C106.075 66.7636 103.462 65.9584 100.03 65.9584C98.076 65.9584 96.1092 66.2356 94.1292 66.79C92.1492 67.3444 89.9712 68.2288 87.5952 69.4432L85.3776 64.9288C88.2288 63.556 90.8688 62.5528 93.2976 61.9192C95.7264 61.2856 98.1552 60.9688 100.584 60.9688C105.6 60.9688 109.468 62.1568 112.187 64.5328C114.906 66.9088 116.266 70.3144 116.266 74.7496V101.44H110.563V97.5592C108.768 99.0904 106.801 100.239 104.663 101.004ZM98.7624 97.5592C95.8056 97.5592 93.39 96.8596 91.5156 95.4604C89.6412 94.0612 88.704 92.2528 88.704 90.0352C88.704 87.712 89.6412 85.8508 91.5156 84.4516C93.39 83.0524 95.9112 82.3528 99.0792 82.3528C101.35 82.3528 103.422 82.6036 105.296 83.1052C107.171 83.6068 108.926 84.412 110.563 85.5208V92.9656C108.979 94.5496 107.21 95.7112 105.257 96.4504C103.303 97.1896 101.138 97.5592 98.7624 97.5592ZM158.083 114.072C155.126 116.792 150.902 118.151 145.411 118.151C142.666 118.151 139.946 117.795 137.254 117.082C134.561 116.369 132.106 115.353 129.888 114.033L132.422 109.439C134.798 110.706 137.003 111.63 139.036 112.211C141.068 112.792 143.114 113.082 145.174 113.082C148.922 113.082 151.774 112.185 153.727 110.39C155.681 108.594 156.658 105.954 156.658 102.47V97.1632C154.862 98.6416 152.896 99.7768 150.757 100.569C148.619 101.361 146.388 101.757 144.065 101.757C141.319 101.757 138.745 101.229 136.343 100.173C133.94 99.1168 131.842 97.678 130.046 95.8564C128.251 94.0348 126.839 91.8832 125.809 89.4016C124.78 86.92 124.265 84.2536 124.265 81.4024C124.265 78.5512 124.78 75.8848 125.809 73.4032C126.839 70.9216 128.251 68.77 130.046 66.9484C131.842 65.1268 133.954 63.688 136.382 62.632C138.811 61.576 141.425 61.048 144.223 61.048C146.494 61.048 148.698 61.4572 150.836 62.2756C152.975 63.094 154.942 64.2424 156.737 65.7208V61.7608H162.518V102.39C162.518 107.459 161.04 111.353 158.083 114.072ZM144.54 96.6088C142.534 96.6088 140.633 96.2128 138.838 95.4208C137.042 94.6288 135.498 93.5596 134.204 92.2132C132.911 90.8668 131.894 89.2564 131.155 87.382C130.416 85.5076 130.046 83.5144 130.046 81.4024C130.046 79.2904 130.416 77.3104 131.155 75.4624C131.894 73.6144 132.911 72.004 134.204 70.6312C135.498 69.2584 137.029 68.1892 138.798 67.4236C140.567 66.658 142.481 66.2752 144.54 66.2752C147.022 66.2752 149.332 66.7504 151.47 67.7008C153.608 68.6512 155.338 69.9712 156.658 71.6608V91.144C155.338 92.8864 153.622 94.2328 151.51 95.1832C149.398 96.1336 147.074 96.6088 144.54 96.6088ZM198.99 100.925C196.588 101.744 193.961 102.153 191.11 102.153C188.258 102.153 185.579 101.625 183.071 100.569C180.563 99.5128 178.398 98.0608 176.576 96.2128C174.755 94.3648 173.316 92.1868 172.26 89.6788C171.204 87.1708 170.676 84.4648 170.676 81.5608C170.676 78.7096 171.191 76.0432 172.22 73.5616C173.25 71.08 174.636 68.9152 176.378 67.0672C178.121 65.2192 180.193 63.7672 182.596 62.7112C184.998 61.6552 187.546 61.1272 190.238 61.1272C192.878 61.1272 195.347 61.6552 197.644 62.7112C199.94 63.7672 201.92 65.2192 203.584 67.0672C205.247 68.9152 206.567 71.08 207.544 73.5616C208.52 76.0432 209.009 78.7096 209.009 81.5608V83.3824H176.458C176.88 87.2896 178.49 90.5368 181.289 93.124C184.087 95.7112 187.44 97.0048 191.347 97.0048C193.406 97.0048 195.413 96.688 197.366 96.0544C199.32 95.4208 200.957 94.5232 202.277 93.3616L205.92 97.2424C203.702 98.8792 201.392 100.107 198.99 100.925ZM203.148 78.7096H176.616C177.144 75.0664 178.662 72.0832 181.17 69.76C183.678 67.4368 186.648 66.2752 190.08 66.2752C193.354 66.2752 196.218 67.4764 198.673 69.8788C201.128 72.2812 202.62 75.2248 203.148 78.7096ZM236.174 101.242C234.221 101.849 232.109 102.153 229.838 102.153C226.565 102.153 223.489 101.612 220.612 100.529C217.734 99.4468 215.239 97.9288 213.127 95.9752L216.691 92.1736C218.486 93.8632 220.506 95.17 222.75 96.094C224.994 97.018 227.278 97.48 229.601 97.48C232.769 97.48 235.356 96.82 237.362 95.5C239.369 94.18 240.372 92.464 240.372 90.352C240.372 88.6624 239.778 87.3292 238.59 86.3524C237.402 85.3756 235.541 84.7024 233.006 84.3328L226.116 83.3824C222.156 82.8016 219.212 81.6268 217.285 79.858C215.358 78.0892 214.394 75.7 214.394 72.6904C214.394 69.364 215.794 66.6052 218.592 64.414C221.39 62.2228 224.954 61.1272 229.284 61.1272C232.135 61.1272 234.841 61.5496 237.402 62.3944C239.963 63.2392 242.458 64.5592 244.886 66.3544L241.798 70.3144C239.58 68.836 237.428 67.7272 235.343 66.988C233.257 66.2488 231.132 65.8792 228.967 65.8792C226.274 65.8792 224.07 66.4864 222.354 67.7008C220.638 68.9152 219.78 70.4992 219.78 72.4528C219.78 74.1424 220.361 75.4492 221.522 76.3732C222.684 77.2972 224.558 77.944 227.146 78.3136L234.036 79.264C237.996 79.792 240.966 80.9668 242.946 82.7884C244.926 84.61 245.916 87.0256 245.916 90.0352C245.916 91.7248 245.507 93.322 244.688 94.8268C243.87 96.3316 242.735 97.6252 241.283 98.7076C239.831 99.79 238.128 100.635 236.174 101.242Z" fill="white"/>
</g>
<defs>
<clipPath id="clip0">
<rect width="355" height="118" fill="white"/>
</clipPath>
</defs>
</svg>
