<svg width="355" height="118" viewBox="0 0 355 118" fill="none" xmlns="http://www.w3.org/2000/svg">
<g clip-path="url(#clip0)">
<path fill-rule="evenodd" clip-rule="evenodd" d="M6.0984 101.44V46H0V101.44H6.0984ZM23.0472 101.44V71.8984C24.2616 69.9976 25.7268 68.5588 27.4428 67.582C29.1588 66.6052 31.0728 66.1168 33.1848 66.1168C36.3 66.1168 38.7816 67.1464 40.6296 69.2056C42.4776 71.2648 43.4016 74.0368 43.4016 77.5216V101.44H49.1832V76.3336C49.1832 75.6472 49.1436 75.0004 49.0644 74.3932C48.9852 73.786 48.8928 73.192 48.7872 72.6112C50.0544 70.4992 51.5856 68.8888 53.3808 67.78C55.176 66.6712 57.156 66.1168 59.3208 66.1168C62.4888 66.1168 64.9968 67.1464 66.8448 69.2056C68.6928 71.2648 69.6168 74.0368 69.6168 77.5216V101.44H75.3984V76.3336C75.3984 71.7928 74.0388 68.0968 71.3196 65.2456C68.6004 62.3944 65.1024 60.9688 60.8256 60.9688C57.9744 60.9688 55.4004 61.5628 53.1036 62.7508C50.8068 63.9388 48.84 65.7472 47.2032 68.176C45.9888 65.9584 44.286 64.2028 42.0948 62.9092C39.9036 61.6156 37.4352 60.9688 34.6896 60.9688C32.3136 60.9688 30.1488 61.4044 28.1952 62.2756C26.2416 63.1468 24.5256 64.4272 23.0472 66.1168V61.7608H17.1864V101.44H23.0472ZM104.663 101.004C102.524 101.77 100.214 102.153 97.7328 102.153C93.4032 102.153 89.8788 101.044 87.1596 98.8264C84.4404 96.6088 83.0808 93.7312 83.0808 90.1936C83.0808 86.4976 84.5064 83.554 87.3576 81.3628C90.2088 79.1716 94.0632 78.076 98.9208 78.076C101.033 78.076 103.079 78.3136 105.059 78.7888C107.039 79.264 108.874 79.924 110.563 80.7688V75.5416C110.563 72.3736 109.666 69.9844 107.87 68.374C106.075 66.7636 103.462 65.9584 100.03 65.9584C98.076 65.9584 96.1092 66.2356 94.1292 66.79C92.1492 67.3444 89.9712 68.2288 87.5952 69.4432L85.3776 64.9288C88.2288 63.556 90.8688 62.5528 93.2976 61.9192C95.7264 61.2856 98.1552 60.9688 100.584 60.9688C105.6 60.9688 109.468 62.1568 112.187 64.5328C114.906 66.9088 116.266 70.3144 116.266 74.7496V101.44H110.563V97.5592C108.768 99.0904 106.801 100.239 104.663 101.004ZM98.7624 97.5592C95.8056 97.5592 93.39 96.8596 91.5156 95.4604C89.6412 94.0612 88.704 92.2528 88.704 90.0352C88.704 87.712 89.6412 85.8508 91.5156 84.4516C93.39 83.0524 95.9112 82.3528 99.0792 82.3528C101.35 82.3528 103.422 82.6036 105.296 83.1052C107.171 83.6068 108.926 84.412 110.563 85.5208V92.9656C108.979 94.5496 107.21 95.7112 105.257 96.4504C103.303 97.1896 101.138 97.5592 98.7624 97.5592ZM158.083 114.072C155.126 116.792 150.902 118.151 145.411 118.151C142.666 118.151 139.946 117.795 137.254 117.082C134.561 116.369 132.106 115.353 129.888 114.033L132.422 109.439C134.798 110.706 137.003 111.63 139.036 112.211C141.068 112.792 143.114 113.082 145.174 113.082C148.922 113.082 151.774 112.185 153.727 110.39C155.681 108.594 156.658 105.954 156.658 102.47V97.1632C154.862 98.6416 152.896 99.7768 150.757 100.569C148.619 101.361 146.388 101.757 144.065 101.757C141.319 101.757 138.745 101.229 136.343 100.173C133.94 99.1168 131.842 97.678 130.046 95.8564C128.251 94.0348 126.839 91.8832 125.809 89.4016C124.78 86.92 124.265 84.2536 124.265 81.4024C124.265 78.5512 124.78 75.8848 125.809 73.4032C126.839 70.9216 128.251 68.77 130.046 66.9484C131.842 65.1268 133.954 63.688 136.382 62.632C138.811 61.576 141.425 61.048 144.223 61.048C146.494 61.048 148.698 61.4572 150.836 62.2756C152.975 63.094 154.942 64.2424 156.737 65.7208V61.7608H162.518V102.39C162.518 107.459 161.04 111.353 158.083 114.072ZM144.54 96.6088C142.534 96.6088 140.633 96.2128 138.838 95.4208C137.042 94.6288 135.498 93.5596 134.204 92.2132C132.911 90.8668 131.894 89.2564 131.155 87.382C130.416 85.5076 130.046 83.5144 130.046 81.4024C130.046 79.2904 130.416 77.3104 131.155 75.4624C131.894 73.6144 132.911 72.004 134.204 70.6312C135.498 69.2584 137.029 68.1892 138.798 67.4236C140.567 66.658 142.481 66.2752 144.54 66.2752C147.022 66.2752 149.332 66.7504 151.47 67.7008C153.608 68.6512 155.338 69.9712 156.658 71.6608V91.144C155.338 92.8864 153.622 94.2328 151.51 95.1832C149.398 96.1336 147.074 96.6088 144.54 96.6088ZM198.99 100.925C196.588 101.744 193.961 102.153 191.11 102.153C188.258 102.153 185.579 101.625 183.071 100.569C180.563 99.5128 178.398 98.0608 176.576 96.2128C174.755 94.3648 173.316 92.1868 172.26 89.6788C171.204 87.1708 170.676 84.4648 170.676 81.5608C170.676 78.7096 171.191 76.0432 172.22 73.5616C173.25 71.08 174.636 68.9152 176.378 67.0672C178.121 65.2192 180.193 63.7672 182.596 62.7112C184.998 61.6552 187.546 61.1272 190.238 61.1272C192.878 61.1272 195.347 61.6552 197.644 62.7112C199.94 63.7672 201.92 65.2192 203.584 67.0672C205.247 68.9152 206.567 71.08 207.544 73.5616C208.52 76.0432 209.009 78.7096 209.009 81.5608V83.3824H176.458C176.88 87.2896 178.49 90.5368 181.289 93.124C184.087 95.7112 187.44 97.0048 191.347 97.0048C193.406 97.0048 195.413 96.688 197.366 96.0544C199.32 95.4208 200.957 94.5232 202.277 93.3616L205.92 97.2424C203.702 98.8792 201.392 100.107 198.99 100.925ZM203.148 78.7096H176.616C177.144 75.0664 178.662 72.0832 181.17 69.76C183.678 67.4368 186.648 66.2752 190.08 66.2752C193.354 66.2752 196.218 67.4764 198.673 69.8788C201.128 72.2812 202.62 75.2248 203.148 78.7096ZM236.174 101.242C234.221 101.849 232.109 102.153 229.838 102.153C226.565 102.153 223.489 101.612 220.612 100.529C217.734 99.4468 215.239 97.9288 213.127 95.9752L216.691 92.1736C218.486 93.8632 220.506 95.17 222.75 96.094C224.994 97.018 227.278 97.48 229.601 97.48C232.769 97.48 235.356 96.82 237.362 95.5C239.369 94.18 240.372 92.464 240.372 90.352C240.372 88.6624 239.778 87.3292 238.59 86.3524C237.402 85.3756 235.541 84.7024 233.006 84.3328L226.116 83.3824C222.156 82.8016 219.212 81.6268 217.285 79.858C215.358 78.0892 214.394 75.7 214.394 72.6904C214.394 69.364 215.794 66.6052 218.592 64.414C221.39 62.2228 224.954 61.1272 229.284 61.1272C232.135 61.1272 234.841 61.5496 237.402 62.3944C239.963 63.2392 242.458 64.5592 244.886 66.3544L241.798 70.3144C239.58 68.836 237.428 67.7272 235.343 66.988C233.257 66.2488 231.132 65.8792 228.967 65.8792C226.274 65.8792 224.07 66.4864 222.354 67.7008C220.638 68.9152 219.78 70.4992 219.78 72.4528C219.78 74.1424 220.361 75.4492 221.522 76.3732C222.684 77.2972 224.558 77.944 227.146 78.3136L234.036 79.264C237.996 79.792 240.966 80.9668 242.946 82.7884C244.926 84.61 245.916 87.0256 245.916 90.0352C245.916 91.7248 245.507 93.322 244.688 94.8268C243.87 96.3316 242.735 97.6252 241.283 98.7076C239.831 99.79 238.128 100.635 236.174 101.242Z" fill="white"/>
<path fill-rule="evenodd" clip-rule="evenodd" d="M3.18011 26.3038C3.04908 25.6823 3.09916 21.5227 3.15205 20.7952C3.9919 20.6756 4.72554 20.6975 5.4654 20.7197C5.63271 20.7247 5.80034 20.7297 5.96958 20.7331C6.30298 20.7397 6.70587 20.7272 7.14148 20.7137C8.58844 20.6689 10.3963 20.6128 11.2167 21.2105C12.7084 22.2971 12.8834 24.4395 11.4439 25.672C10.6602 26.343 9.74038 26.3596 8.70356 26.3351C7.71995 26.3119 6.76395 26.3143 5.80892 26.3167C4.93933 26.3188 4.06943 26.321 3.18011 26.3038ZM3.20389 17.5989C3.18299 17.5173 3.08314 12.7101 3.18653 12.0966C3.18943 12.0795 3.19345 12.0609 3.19723 12.0434C3.1994 12.0334 3.20148 12.0237 3.20323 12.015L3.24716 11.8542C3.70209 11.7914 6.83244 11.7764 7.20051 11.8813C10.0741 12.7001 9.95809 16.7076 7.38033 17.4254C6.44999 17.6844 5.21629 17.6483 4.15753 17.6173C3.81611 17.6073 3.49288 17.5978 3.20389 17.5989ZM0.632389 29.3375L0.542303 29.3286C0.446338 28.7805 0.332299 28.1941 0.199168 27.5676C-0.0334783 26.1551 -0.0098146 24.9473 0.0154406 23.6584C0.0216638 23.3409 0.0279831 23.0184 0.0305892 22.6867L0.0213973 13.0696C0.013153 11.2211 0.0101101 10.238 1.34793 9.24527C2.31506 8.52749 3.77884 8.60897 5.05411 8.67996C5.35675 8.69681 5.64876 8.71306 5.921 8.7179C7.86244 8.75245 8.66619 8.93961 9.93068 9.79899C11.0329 10.5481 11.9664 11.7633 12.3079 13.4974C12.6504 15.2358 12.3989 15.8352 12.0799 16.5951C11.9343 16.9419 11.7746 17.3222 11.651 17.8596C11.7596 17.9749 11.9812 18.097 12.2613 18.2514C12.7481 18.5197 13.4119 18.8856 13.9681 19.4827C16.3947 22.0883 15.9193 25.724 13.6527 27.9018C11.9339 29.5533 9.96404 29.4903 7.68996 29.4175L7.6844 29.4174C7.574 29.4138 7.46289 29.4103 7.35106 29.4069C6.47806 29.3806 5.5996 29.3985 4.71861 29.4165C3.35894 29.4442 1.99326 29.472 0.632389 29.3375Z" fill="white"/>
<path fill-rule="evenodd" clip-rule="evenodd" d="M55.8824 11.6616C58.1268 10.6757 60.4818 11.0617 62.1614 11.8676C64.0123 12.7557 64.9151 13.8359 66.0427 15.9757C67.057 17.9003 66.5043 20.9001 65.8087 22.2823C63.8233 26.2275 59.2445 27.8134 55.3063 25.882C51.5466 24.0382 49.8051 19.157 51.8115 15.4391C52.7415 13.7155 53.7156 12.6134 55.8824 11.6616ZM55.5935 8.47424C54.9038 8.84824 53.6856 8.9105 51.7508 10.5196C50.6814 11.4091 49.9671 12.359 49.2717 13.4852C46.3282 18.2521 48.0132 25.4071 53.4368 28.4286C62.2593 33.3436 72.2039 24.7266 69.2439 15.5868C67.929 11.5266 64.2292 8.54901 60.3949 8.09665C59.3223 7.97014 56.7133 7.86695 55.5935 8.47424Z" fill="white"/>
<path fill-rule="evenodd" clip-rule="evenodd" d="M122.787 19.1972C122.42 18.0548 123.503 15.0901 123.982 14.2774C126.097 10.6884 129.57 10.0782 132.062 13.5193C133.231 15.1326 133.648 16.9145 133.772 19.1569C133.226 19.3202 124.647 19.1621 122.787 19.1972ZM122.628 29.2795C122.821 28.7909 122.729 23.4437 122.725 22.4338C123.055 22.3487 133.344 22.3408 133.667 22.4369C133.854 23.0581 133.771 25.0894 133.774 25.8794C133.778 26.6536 133.659 28.7398 133.841 29.341C137.522 28.9506 136.826 25.8889 136.962 24.2286C137.05 23.1513 136.956 21.7539 136.962 20.6013C136.97 19.1665 137.063 18.3954 136.769 16.7836C135.931 12.2059 132.771 7.87314 128.023 8.10762C122.995 8.3559 120.254 13.1008 119.716 16.9727C119.539 18.2501 119.509 22.6601 119.543 24.0959C119.567 25.116 119.353 26.7961 119.943 27.7335C120.476 28.5783 121.533 29.4669 122.628 29.2795Z" fill="white"/>
<path fill-rule="evenodd" clip-rule="evenodd" d="M20.4864 19.1111C20.0704 16.7218 21.982 11.5552 25.7095 11.2076C29.902 10.8166 31.8036 17.4931 31.3989 19.025C30.7171 19.2629 24.6679 19.1141 23.1435 19.1452C22.2384 19.1636 21.2968 19.0441 20.4864 19.1111ZM20.3515 29.1996C20.4467 27.2698 20.4111 24.2836 20.3507 22.3889C20.6544 22.2502 30.919 22.231 31.354 22.3506C31.5485 23.0248 31.4105 24.9571 31.4175 25.7573C31.4252 26.6246 31.3319 28.5479 31.492 29.2803C34.55 28.937 34.7835 26.6693 34.6157 24.1266L34.6354 20.5206C34.6556 16.6369 34.2553 13.5019 31.4055 10.4614C29.9831 8.94385 28.2681 8.05077 25.7375 8.0204C22.966 7.98712 21.0124 9.76116 19.8108 11.1809C18.6322 12.5734 17.7086 14.7728 17.399 16.8939C17.0816 19.0687 17.2346 21.7039 17.2113 23.9826C17.1999 25.102 17.0328 26.6023 17.6141 27.6733C18.125 28.6145 19.2349 29.3125 20.3515 29.1996Z" fill="white"/>
<path fill-rule="evenodd" clip-rule="evenodd" d="M108.632 11.5607C110.815 10.4853 113.076 11.8559 113.827 13.5104C114.878 15.8242 113.568 17.9483 111.828 18.6954C107.109 20.7214 103.871 13.9069 108.632 11.5607ZM106.325 22.0632C106.783 22.1759 107.123 22.6627 107.62 23.1651C108.645 24.2033 112.908 28.5768 113.572 28.9624C114.795 29.672 116.046 29.3241 117.186 28.5563C116.923 27.6516 111.639 23.2175 111.185 22.134C116.911 21.001 118.593 15.4252 116.321 11.5488C113.278 6.35753 105.32 7.11146 103.438 13.2252C102.971 14.7404 103.199 22.2275 103.187 24.0782L103.183 28.6378C103.179 29.0378 103.071 29.2443 103.415 29.3033C103.838 29.3758 104.878 28.9038 105.152 28.667C106.903 27.1512 106.057 25.0135 106.325 22.0632Z" fill="white"/>
<path fill-rule="evenodd" clip-rule="evenodd" d="M101.671 29.2954C101.222 25.3157 97.7382 26.4483 95.2954 26.2406C94.7458 26.1938 92.7514 26.3952 92.4899 26.1801L92.4053 26.0459C92.3986 26.0285 92.3788 25.9952 92.3718 25.9731C92.2683 25.6502 92.3821 23.7122 92.3569 23.0684C92.3174 22.0573 92.3469 20.8636 92.3662 19.8596C93.5852 19.5632 97.8318 20.0611 98.5993 19.6715C98.4921 18.1039 97.5174 17.1569 96.4725 16.8169C95.3455 16.4501 93.0813 16.8041 92.4243 16.6114C92.3342 16.1817 92.2761 12.169 92.4531 11.7677L98.1184 11.7389C99.2365 11.7841 100.006 11.5528 100.723 10.9067C101.24 10.4398 101.799 9.52877 101.622 8.6152L97.6391 8.57072C97.1096 8.57287 96.6361 8.63994 96.1216 8.62817C91.7301 8.52742 89.0635 7.88681 89.2366 13.3807C89.3054 15.5623 89.0749 25.9633 89.3497 27.0999C90.0404 29.9574 93.6609 29.3986 96.0933 29.3589C97.059 29.3431 97.9081 29.4132 98.8674 29.3631C99.7145 29.3188 100.889 29.4931 101.671 29.2954Z" fill="white"/>
<path fill-rule="evenodd" clip-rule="evenodd" d="M88.212 8.6731L82.6097 8.63307C80.4545 8.63174 78.6764 9.00029 76.8138 9.97491C68.1347 14.5163 69.9055 26.8023 79.5508 29.0492C81.3761 29.4743 83.1127 29.29 85.0512 29.365C85.4768 29.3815 85.9545 29.3648 86.4089 29.3596C87.9535 29.3417 88.6106 29.8019 88.0102 28.2195C87.0207 25.612 84.0819 26.3456 82.2715 26.2375C78.6459 26.021 75.73 24.5297 74.5851 20.8454C73.4578 17.2179 75.6424 13.8674 78.9179 12.456C82.7686 10.7967 85.1037 12.8217 87.2612 10.9134C87.8144 10.4241 88.3097 9.60373 88.212 8.6731Z" fill="white"/>
<path fill-rule="evenodd" clip-rule="evenodd" d="M40.0051 11.6836C40.2633 12.7317 39.8458 27.9447 40.1481 29.2885C43.8525 28.7677 43.1052 25.8906 43.1798 23.943C43.2468 22.1953 43.063 12.0534 43.2423 11.8119C43.4099 11.5861 44.0083 11.6831 44.1881 11.6885C44.9277 11.7104 46.8218 11.7081 47.4007 11.4821C48.7093 10.971 49.432 9.87083 49.3927 8.59581C49.0328 8.47477 36.4554 8.47125 34.5804 8.49796C33.7712 8.50945 33.7035 8.55345 33.9616 9.43126C34.7968 12.2721 38.0106 11.5843 40.0051 11.6836Z" fill="white"/>
</g>
<defs>
<clipPath id="clip0">
<rect width="355" height="118" fill="white"/>
</clipPath>
</defs>
</svg>
