<svg width="435" height="118" viewBox="0 0 435 118" fill="none" xmlns="http://www.w3.org/2000/svg">
<path d="M399.734 88.5355L403.298 84.7339C405.094 86.4235 407.1 87.7435 409.318 88.6939C411.588 89.5915 413.885 90.0403 416.208 90.0403C419.376 90.0403 421.963 89.3803 423.97 88.0603C425.976 86.7403 426.979 85.0243 426.979 82.9123C426.979 81.2227 426.372 79.9027 425.158 78.9523C423.996 77.9491 422.148 77.2627 419.614 76.8931L412.723 75.9427C408.763 75.3619 405.806 74.2003 403.853 72.4579C401.952 70.6627 401.002 68.2603 401.002 65.2507C401.002 61.9243 402.401 59.1787 405.199 57.0139C407.998 54.7963 411.562 53.6875 415.891 53.6875C418.742 53.6875 421.435 54.1099 423.97 54.9547C426.557 55.7995 429.065 57.1195 431.494 58.9147L428.405 62.8747C426.187 61.3963 424.022 60.2875 421.91 59.5483C419.851 58.8091 417.739 58.4395 415.574 58.4395C412.882 58.4395 410.664 59.0467 408.922 60.2611C407.232 61.4755 406.387 63.0595 406.387 65.0131C406.387 66.7027 406.968 68.0227 408.13 68.9731C409.291 69.8707 411.166 70.5043 413.753 70.8739L420.643 71.8243C424.603 72.3523 427.56 73.5403 429.514 75.3883C431.52 77.1835 432.523 79.5859 432.523 82.5955C432.523 84.2851 432.101 85.8955 431.256 87.4267C430.464 88.9051 429.329 90.1987 427.85 91.3075C426.425 92.3635 424.735 93.2083 422.782 93.8419C420.828 94.4227 418.716 94.7131 416.446 94.7131C413.172 94.7131 410.083 94.1851 407.179 93.1291C404.328 92.0203 401.846 90.4891 399.734 88.5355Z" fill="white"/>
<path d="M378.983 85.1298V59.3106H370.43V54.321H378.983V44.2626L384.765 42.7578V54.321H396.724V59.3106H384.765V83.625C384.765 85.737 385.24 87.2682 386.19 88.2186C387.141 89.1162 388.698 89.565 390.863 89.565C391.972 89.565 392.949 89.4858 393.794 89.3274C394.691 89.169 395.642 88.905 396.645 88.5354V93.6834C395.642 94.053 394.506 94.317 393.239 94.4754C392.025 94.6338 390.837 94.713 389.675 94.713C386.243 94.713 383.603 93.8946 381.755 92.2578C379.907 90.621 378.983 88.245 378.983 85.1298Z" fill="white"/>
<path d="M328.32 74.1233C328.32 71.2721 328.848 68.5793 329.904 66.0449C330.96 63.5105 332.386 61.3193 334.181 59.4713C336.029 57.6233 338.194 56.1713 340.676 55.1153C343.157 54.0593 345.797 53.5312 348.596 53.5312C351.394 53.5312 354.008 54.0593 356.436 55.1153C358.918 56.1713 361.056 57.6233 362.852 59.4713C364.7 61.3193 366.152 63.5105 367.208 66.0449C368.264 68.5793 368.792 71.2721 368.792 74.1233C368.792 77.0273 368.264 79.7464 367.208 82.2808C366.152 84.8152 364.7 87.0065 362.852 88.8545C361.056 90.7025 358.918 92.1545 356.436 93.2105C354.008 94.2665 351.394 94.7945 348.596 94.7945C345.797 94.7945 343.157 94.2665 340.676 93.2105C338.194 92.1545 336.029 90.7025 334.181 88.8545C332.386 87.0065 330.96 84.8152 329.904 82.2808C328.848 79.7464 328.32 77.0273 328.32 74.1233ZM348.596 89.5672C350.602 89.5672 352.476 89.1713 354.219 88.3793C356.014 87.5873 357.545 86.5049 358.812 85.1321C360.132 83.7065 361.162 82.0697 361.901 80.2217C362.64 78.3209 363.01 76.2881 363.01 74.1233C363.01 71.9585 362.64 69.9521 361.901 68.1041C361.162 66.2033 360.132 64.5665 358.812 63.1937C357.545 61.8209 356.014 60.7385 354.219 59.9465C352.476 59.1545 350.602 58.7585 348.596 58.7585C346.589 58.7585 344.688 59.1545 342.893 59.9465C341.151 60.7385 339.619 61.8209 338.299 63.1937C337.032 64.5665 336.003 66.2033 335.211 68.1041C334.472 69.9521 334.102 71.9585 334.102 74.1233C334.102 76.2881 334.472 78.3209 335.211 80.2217C335.95 82.0697 336.953 83.7065 338.22 85.1321C339.54 86.5049 341.098 87.5873 342.893 88.3793C344.688 89.1713 346.589 89.5672 348.596 89.5672Z" fill="white"/>
<path d="M286.676 94.0012V38.5612L292.537 37.2148V58.9948C294.068 57.1996 295.889 55.8532 298.001 54.9556C300.113 54.0052 302.463 53.53 305.05 53.53C309.538 53.53 313.208 54.9556 316.059 57.8068C318.91 60.658 320.336 64.354 320.336 68.8948V94.0012H314.554V70.0828C314.554 66.598 313.551 63.826 311.545 61.7668C309.538 59.7076 306.845 58.678 303.466 58.678C301.09 58.678 298.952 59.206 297.051 60.262C295.203 61.318 293.698 62.8228 292.537 64.7764V94.0012H286.676Z" fill="white"/>
<path d="M247.289 88.5355L250.853 84.7339C252.648 86.4235 254.655 87.7435 256.872 88.6939C259.143 89.5915 261.439 90.0403 263.763 90.0403C266.931 90.0403 269.518 89.3803 271.524 88.0603C273.531 86.7403 274.534 85.0243 274.534 82.9123C274.534 81.2227 273.927 79.9027 272.712 78.9523C271.551 77.9491 269.703 77.2627 267.168 76.8931L260.278 75.9427C256.318 75.3619 253.361 74.2003 251.407 72.4579C249.507 70.6627 248.556 68.2603 248.556 65.2507C248.556 61.9243 249.955 59.1787 252.754 57.0139C255.552 54.7963 259.116 53.6875 263.446 53.6875C266.297 53.6875 268.99 54.1099 271.524 54.9547C274.111 55.7995 276.619 57.1195 279.048 58.9147L275.959 62.8747C273.742 61.3963 271.577 60.2875 269.465 59.5483C267.406 58.8091 265.294 58.4395 263.129 58.4395C260.436 58.4395 258.219 59.0467 256.476 60.2611C254.787 61.4755 253.942 63.0595 253.942 65.0131C253.942 66.7027 254.523 68.0227 255.684 68.9731C256.846 69.8707 258.72 70.5043 261.307 70.8739L268.198 71.8243C272.158 72.3523 275.115 73.5403 277.068 75.3883C279.075 77.1835 280.078 79.5859 280.078 82.5955C280.078 84.2851 279.655 85.8955 278.811 87.4267C278.019 88.9051 276.883 90.1987 275.405 91.3075C273.979 92.3635 272.29 93.2083 270.336 93.8419C268.383 94.4227 266.271 94.7131 264 94.7131C260.727 94.7131 257.638 94.1851 254.734 93.1291C251.883 92.0203 249.401 90.4891 247.289 88.5355Z" fill="white"/>
<path d="M207.863 94.0025V54.3232H213.724V58.9961C215.255 57.2009 217.077 55.8545 219.189 54.9569C221.301 54.0065 223.65 53.5312 226.238 53.5312C230.726 53.5312 234.395 54.9569 237.246 57.8081C240.098 60.6593 241.523 64.3553 241.523 68.8961V94.0025H235.742V70.0841C235.742 66.5993 234.738 63.8273 232.732 61.7681C230.726 59.7089 228.033 58.6793 224.654 58.6793C222.278 58.6793 220.139 59.2073 218.238 60.2633C216.39 61.3193 214.886 62.8241 213.724 64.7777V94.0025H207.863Z" fill="white"/>
<path d="M196.58 89.8027C194.362 91.4395 192.039 92.6803 189.61 93.5251C187.234 94.3171 184.621 94.7131 181.77 94.7131C178.918 94.7131 176.226 94.1851 173.691 93.1291C171.21 92.0731 169.045 90.6211 167.197 88.7731C165.402 86.9251 163.976 84.7603 162.92 82.2787C161.864 79.7443 161.336 77.0251 161.336 74.1211C161.336 71.2699 161.838 68.6035 162.841 66.1219C163.897 63.6403 165.296 61.4755 167.038 59.6275C168.781 57.7795 170.84 56.3275 173.216 55.2715C175.645 54.2155 178.206 53.6875 180.898 53.6875C183.538 53.6875 185.994 54.2155 188.264 55.2715C190.587 56.3275 192.567 57.7795 194.204 59.6275C195.894 61.4755 197.214 63.6403 198.164 66.1219C199.167 68.6035 199.669 71.2699 199.669 74.1211V75.9427H167.118C167.54 79.8499 169.15 83.0971 171.949 85.6843C174.747 88.2715 178.1 89.5651 182.007 89.5651C184.066 89.5651 186.073 89.2483 188.026 88.6147C189.98 87.9811 191.617 87.0835 192.937 85.9219L196.58 89.8027ZM180.74 58.8355C177.308 58.8355 174.325 59.9971 171.79 62.3203C169.309 64.6435 167.804 67.6267 167.276 71.2699H193.808C193.28 67.7851 191.775 64.8547 189.294 62.4787C186.865 60.0499 184.014 58.8355 180.74 58.8355Z" fill="white"/>
<path d="M151.799 89.8027C149.581 91.4395 147.258 92.6803 144.829 93.5251C142.453 94.3171 139.839 94.7131 136.988 94.7131C134.137 94.7131 131.444 94.1851 128.91 93.1291C126.428 92.0731 124.263 90.6211 122.415 88.7731C120.62 86.9251 119.195 84.7603 118.139 82.2787C117.083 79.7443 116.555 77.0251 116.555 74.1211C116.555 71.2699 117.056 68.6035 118.059 66.1219C119.115 63.6403 120.515 61.4755 122.257 59.6275C123.999 57.7795 126.059 56.3275 128.435 55.2715C130.863 54.2155 133.424 53.6875 136.117 53.6875C138.757 53.6875 141.212 54.2155 143.483 55.2715C145.806 56.3275 147.786 57.7795 149.423 59.6275C151.112 61.4755 152.432 63.6403 153.383 66.1219C154.386 68.6035 154.887 71.2699 154.887 74.1211V75.9427H122.336C122.759 79.8499 124.369 83.0971 127.167 85.6843C129.966 88.2715 133.319 89.5651 137.226 89.5651C139.285 89.5651 141.291 89.2483 143.245 88.6147C145.199 87.9811 146.835 87.0835 148.155 85.9219L151.799 89.8027ZM135.959 58.8355C132.527 58.8355 129.543 59.9971 127.009 62.3203C124.527 64.6435 123.023 67.6267 122.495 71.2699H149.027C148.499 67.7851 146.994 64.8547 144.512 62.4787C142.083 60.0499 139.232 58.8355 135.959 58.8355Z" fill="white"/>
<path d="M93.8594 93.9996V54.3204H99.7202V59.9436C100.882 57.8844 102.413 56.3004 104.314 55.1916C106.215 54.03 108.379 53.4492 110.808 53.4492C111.547 53.4492 112.207 53.502 112.788 53.6076C113.369 53.6604 113.95 53.7924 114.531 54.0036V59.3892C113.844 59.178 113.158 59.0196 112.471 58.914C111.785 58.7556 111.099 58.6764 110.412 58.6764C107.983 58.6764 105.845 59.3892 103.997 60.8148C102.149 62.1876 100.723 64.194 99.7202 66.834V93.9996H93.8594Z" fill="white"/>
<path d="M71.7841 89.4089C73.8961 89.4089 75.9289 88.9865 77.8825 88.1417C79.8361 87.2969 81.6577 86.0561 83.3473 84.4193L86.9905 88.3793C84.8785 90.3857 82.5025 91.9433 79.8625 93.0521C77.2225 94.1609 74.4769 94.7153 71.6257 94.7153C68.8273 94.7153 66.1873 94.1873 63.7057 93.1313C61.2241 92.0753 59.0857 90.6232 57.2905 88.7752C55.4953 86.9272 54.0697 84.7361 53.0137 82.2017C51.9577 79.6673 51.4297 76.9745 51.4297 74.1233C51.4297 71.2721 51.9577 68.6057 53.0137 66.1241C54.0697 63.5897 55.4953 61.3985 57.2905 59.5505C59.0857 57.7025 61.2241 56.2505 63.7057 55.1945C66.1873 54.0857 68.8273 53.5312 71.6257 53.5312C74.4769 53.5312 77.2489 54.0857 79.9417 55.1945C82.6873 56.3033 85.0897 57.8345 87.1489 59.7881L83.4265 64.0649C81.8425 62.4281 80.0209 61.1609 77.9617 60.2633C75.9025 59.3657 73.8169 58.9169 71.7049 58.9169C69.6985 58.9169 67.7977 59.3129 66.0025 60.1049C64.2073 60.8969 62.6497 61.9793 61.3297 63.3521C60.0625 64.7249 59.0593 66.3353 58.3201 68.1833C57.5809 70.0313 57.2113 72.0113 57.2113 74.1233C57.2113 76.2881 57.5809 78.3209 58.3201 80.2217C59.1121 82.0697 60.1417 83.6801 61.4089 85.0529C62.7289 86.3729 64.2865 87.4289 66.0817 88.2209C67.8769 89.0129 69.7777 89.4089 71.7841 89.4089Z" fill="white"/>
<path d="M0.871094 84.4965L4.91029 80.2989C7.76149 83.3085 10.7975 85.6053 14.0183 87.1893C17.2919 88.7205 20.7239 89.4861 24.3143 89.4861C28.6439 89.4861 32.2079 88.4565 35.0063 86.3973C37.8047 84.3381 39.2039 81.7245 39.2039 78.5565C39.2039 75.7053 38.2007 73.5141 36.1943 71.9829C34.2407 70.4517 30.9935 69.3165 26.4527 68.5773L18.4535 67.3101C13.1207 66.4653 9.18709 64.9077 6.65269 62.6373C4.11829 60.3141 2.85109 57.1989 2.85109 53.2917C2.85109 48.6981 4.64629 44.9757 8.23669 42.1245C11.8271 39.2733 16.5263 37.8477 22.3343 37.8477C26.1887 37.8477 30.0167 38.4813 33.8183 39.7485C37.6199 41.0157 41.0783 42.8373 44.1935 45.2133L40.7087 49.9653C37.6991 47.6949 34.6367 45.9789 31.5215 44.8173C28.4063 43.6557 25.2647 43.0749 22.0967 43.0749C18.1367 43.0749 14.9159 43.9989 12.4343 45.8469C10.0055 47.6421 8.79109 49.9653 8.79109 52.8165C8.79109 55.4037 9.66229 57.3837 11.4047 58.7565C13.1471 60.1293 16.0247 61.1325 20.0375 61.7661L27.9575 63.0333C33.9767 64.0365 38.3591 65.7525 41.1047 68.1813C43.9031 70.6101 45.3023 73.9629 45.3023 78.2397C45.3023 80.6685 44.7743 82.9125 43.7183 84.9717C42.7151 86.9781 41.2631 88.7205 39.3623 90.1989C37.5143 91.6245 35.2703 92.7597 32.6303 93.6045C30.0431 94.3965 27.1919 94.7925 24.0767 94.7925C19.6943 94.7925 15.4703 93.9213 11.4047 92.1789C7.39189 90.3837 3.88069 87.8229 0.871094 84.4965Z" fill="white"/>
<path fill-rule="evenodd" clip-rule="evenodd" d="M6.18011 18.3038C6.04908 17.6823 6.09916 13.5227 6.15205 12.7952C6.9919 12.6756 7.72554 12.6975 8.4654 12.7197C8.63271 12.7247 8.80034 12.7297 8.96958 12.7331C9.30298 12.7397 9.70587 12.7272 10.1415 12.7137C11.5884 12.6689 13.3963 12.6128 14.2167 13.2105C15.7084 14.2971 15.8834 16.4395 14.4439 17.672C13.6602 18.343 12.7404 18.3596 11.7036 18.3351C10.72 18.3119 9.76395 18.3143 8.80892 18.3167C7.93933 18.3188 7.06943 18.321 6.18011 18.3038ZM6.20389 9.59895C6.18299 9.51728 6.08314 4.71009 6.18653 4.09656C6.18943 4.07955 6.19345 4.06091 6.19723 4.04341C6.1994 4.03338 6.20148 4.02372 6.20323 4.01496L6.24716 3.8542C6.70209 3.79143 9.83244 3.77642 10.2005 3.88132C13.0741 4.70011 12.9581 8.70758 10.3803 9.42536C9.44999 9.6844 8.21629 9.64827 7.15753 9.61727C6.81611 9.60727 6.49288 9.59781 6.20389 9.59895ZM3.63239 21.3375L3.5423 21.3286C3.44634 20.7805 3.3323 20.1941 3.19917 19.5676C2.96652 18.1551 2.99019 16.9473 3.01544 15.6584C3.02166 15.3409 3.02798 15.0184 3.03059 14.6867L3.0214 5.06963C3.01315 3.22114 3.01011 2.23802 4.34793 1.24527C5.31506 0.527494 6.77884 0.608975 8.05411 0.67996C8.35675 0.696805 8.64876 0.713061 8.921 0.717905C10.8624 0.752453 11.6662 0.939611 12.9307 1.79899C14.0329 2.54812 14.9664 3.76334 15.3079 5.49737C15.6504 7.23581 15.3989 7.83515 15.0799 8.59507C14.9343 8.94192 14.7746 9.32224 14.651 9.8596C14.7596 9.97488 14.9812 10.097 15.2613 10.2514C15.7481 10.5197 16.4119 10.8856 16.9681 11.4827C19.3947 14.0883 18.9193 17.724 16.6527 19.9018C14.9339 21.5533 12.964 21.4903 10.69 21.4175L10.6844 21.4174C10.574 21.4138 10.4629 21.4103 10.3511 21.4069C9.47806 21.3806 8.5996 21.3985 7.71861 21.4165C6.35894 21.4442 4.99326 21.472 3.63239 21.3375Z" fill="white"/>
<path fill-rule="evenodd" clip-rule="evenodd" d="M58.8824 3.66165C61.1268 2.67573 63.4818 3.0617 65.1614 3.86761C67.0123 4.7557 67.9151 5.83594 69.0427 7.97572C70.057 9.90034 69.5043 12.9001 68.8087 14.2823C66.8233 18.2275 62.2445 19.8134 58.3063 17.882C54.5467 16.0382 52.8051 11.157 54.8115 7.43908C55.7415 5.71552 56.7156 4.61341 58.8824 3.66165ZM58.5935 0.474243C57.9038 0.848241 56.6856 0.910496 54.7508 2.51959C53.6814 3.40906 52.9671 4.359 52.2717 5.48521C49.3282 10.2521 51.0132 17.4071 56.4368 20.4286C65.2593 25.3436 75.2039 16.7266 72.2439 7.58684C70.929 3.52658 67.2292 0.549007 63.3949 0.0966512C62.3223 -0.0298573 59.7133 -0.133052 58.5935 0.474243Z" fill="white"/>
<path fill-rule="evenodd" clip-rule="evenodd" d="M125.787 11.1972C125.42 10.0548 126.503 7.09008 126.982 6.2774C129.097 2.68836 132.57 2.07819 135.062 5.51934C136.231 7.13264 136.648 8.91447 136.772 11.1569C136.226 11.3202 127.647 11.1621 125.787 11.1972ZM125.628 21.2795C125.821 20.7909 125.729 15.4437 125.725 14.4338C126.055 14.3487 136.344 14.3408 136.667 14.4369C136.854 15.0581 136.771 17.0894 136.774 17.8794C136.778 18.6536 136.659 20.7398 136.841 21.341C140.522 20.9506 139.826 17.8889 139.962 16.2286C140.05 15.1513 139.956 13.7539 139.962 12.6013C139.97 11.1665 140.063 10.3954 139.769 8.78359C138.931 4.20593 135.771 -0.12686 131.023 0.107624C125.995 0.355896 123.254 5.10084 122.716 8.97268C122.539 10.2501 122.509 14.6601 122.543 16.0959C122.567 17.116 122.353 18.7961 122.943 19.7335C123.476 20.5783 124.533 21.4669 125.628 21.2795Z" fill="white"/>
<path fill-rule="evenodd" clip-rule="evenodd" d="M23.4864 11.1111C23.0704 8.72182 24.982 3.55523 28.7095 3.20763C32.902 2.81662 34.8036 9.4931 34.3989 11.025C33.7171 11.2629 27.6679 11.1141 26.1435 11.1452C25.2384 11.1636 24.2968 11.0441 23.4864 11.1111ZM23.3515 21.1996C23.4467 19.2698 23.4111 16.2836 23.3507 14.3889C23.6544 14.2502 33.919 14.231 34.354 14.3506C34.5485 15.0248 34.4105 16.9571 34.4175 17.7573C34.4252 18.6246 34.3319 20.5479 34.492 21.2803C37.55 20.937 37.7835 18.6693 37.6157 16.1266L37.6354 12.5206C37.6556 8.63694 37.2553 5.50192 34.4055 2.46136C32.9831 0.943847 31.2681 0.0507721 28.7375 0.0203981C25.966 -0.0128767 24.0124 1.76116 22.8108 3.18094C21.6322 4.57336 20.7086 6.77277 20.399 8.89387C20.0816 11.0687 20.2346 13.7039 20.2113 15.9826C20.1999 17.102 20.0328 18.6023 20.6141 19.6733C21.125 20.6145 22.2349 21.3125 23.3515 21.1996Z" fill="white"/>
<path fill-rule="evenodd" clip-rule="evenodd" d="M111.632 3.56072C113.815 2.4853 116.076 3.85589 116.827 5.51043C117.878 7.82418 116.568 9.94832 114.828 10.6954C110.109 12.7214 106.871 5.90693 111.632 3.56072ZM109.325 14.0632C109.783 14.1759 110.123 14.6627 110.62 15.1651C111.645 16.2033 115.908 20.5768 116.572 20.9624C117.795 21.672 119.046 21.3241 120.186 20.5563C119.923 19.6516 114.639 15.2175 114.185 14.134C119.911 13.001 121.593 7.42516 119.321 3.5488C116.278 -1.64247 108.32 -0.888542 106.438 5.22524C105.971 6.74036 106.199 14.2275 106.187 16.0782L106.183 20.6378C106.179 21.0378 106.071 21.2443 106.415 21.3033C106.838 21.3758 107.878 20.9038 108.152 20.667C109.903 19.1512 109.057 17.0135 109.325 14.0632Z" fill="white"/>
<path fill-rule="evenodd" clip-rule="evenodd" d="M104.671 21.2954C104.222 17.3157 100.738 18.4483 98.2954 18.2406C97.7458 18.1938 95.7514 18.3952 95.4899 18.1801L95.4053 18.0459C95.3986 18.0285 95.3788 17.9952 95.3718 17.9731C95.2683 17.6502 95.3821 15.7122 95.3569 15.0684C95.3174 14.0573 95.3469 12.8636 95.3662 11.8596C96.5852 11.5632 100.832 12.0611 101.599 11.6715C101.492 10.1039 100.517 9.15694 99.4725 8.81689C98.3455 8.45014 96.0813 8.80408 95.4243 8.61139C95.3342 8.18167 95.2761 4.16903 95.4531 3.76769L101.118 3.73893C102.237 3.7841 103.006 3.55285 103.723 2.90675C104.24 2.43979 104.799 1.52877 104.622 0.615202L100.639 0.570722C100.11 0.572867 99.6361 0.639935 99.1216 0.628173C94.7301 0.527418 92.0635 -0.113185 92.2366 5.38069C92.3054 7.56231 92.0749 17.9633 92.3497 19.0999C93.0404 21.9574 96.6609 21.3986 99.0933 21.3589C100.059 21.3431 100.908 21.4132 101.867 21.3631C102.714 21.3188 103.889 21.4931 104.671 21.2954Z" fill="white"/>
<path fill-rule="evenodd" clip-rule="evenodd" d="M91.212 0.673096L85.6097 0.633073C83.4545 0.631743 81.6764 1.00029 79.8138 1.97491C71.1347 6.51632 72.9055 18.8023 82.5508 21.0492C84.3761 21.4743 86.1127 21.29 88.0512 21.365C88.4768 21.3815 88.9545 21.3648 89.4089 21.3596C90.9535 21.3417 91.6106 21.8019 91.0102 20.2195C90.0207 17.612 87.0819 18.3456 85.2715 18.2375C81.6459 18.021 78.73 16.5297 77.5851 12.8454C76.4578 9.21793 78.6424 5.86745 81.9179 4.45602C85.7686 2.7967 88.1037 4.82172 90.2612 2.91343C90.8144 2.42413 91.3097 1.60373 91.212 0.673096Z" fill="white"/>
<path fill-rule="evenodd" clip-rule="evenodd" d="M43.0051 3.68355C43.2633 4.73166 42.8458 19.9447 43.1481 21.2885C46.8525 20.7677 46.1052 17.8906 46.1798 15.943C46.2468 14.1953 46.063 4.05344 46.2423 3.81193C46.4099 3.58612 47.0083 3.68313 47.1881 3.68847C47.9277 3.7104 49.8218 3.70813 50.4007 3.48208C51.7093 2.97101 52.432 1.87083 52.3927 0.595808C52.0328 0.474768 39.4554 0.471249 37.5804 0.49796C36.7712 0.509448 36.7035 0.553448 36.9616 1.43126C37.7968 4.27215 41.0106 3.58425 43.0051 3.68355Z" fill="white"/>
</svg>
