<svg width="355" height="118" viewBox="0 0 355 118" fill="none" xmlns="http://www.w3.org/2000/svg">
<g clip-path="url(#clip0)">
<path fill-rule="evenodd" clip-rule="evenodd" d="M75.6602 18.5996C74.9734 23.0262 71.0047 24.5144 68.0664 24.5144H57L60.587 2H71.6534C74.0194 2 76.1563 3.25928 76.1563 5.70152C76.1563 6.23576 76.0037 7.11344 75.8892 7.76216C75.6221 9.47936 74.2102 11.2347 72.9127 11.7308C75.4313 12.2269 76.08 14.1349 76.08 15.6231C76.08 16.3176 75.9491 17.0121 75.8182 17.7067C75.7621 18.0043 75.706 18.302 75.6602 18.5996ZM64.2122 10.8531H68.219C69.7073 10.8531 70.1652 10.1281 70.356 9.02144C70.3657 8.96328 70.3754 8.90634 70.3849 8.85033C70.4505 8.46535 70.5086 8.12376 70.5086 7.724C70.5086 6.92264 70.127 6.42656 68.9059 6.42656H64.8991L64.2122 10.8531ZM68.2572 19.7444H62.8003L63.5635 14.9362H69.0204C70.0126 14.9362 70.6231 15.5086 70.6231 16.4245C70.6231 16.7864 70.5622 17.128 70.4996 17.4789C70.4764 17.609 70.453 17.7404 70.4323 17.8746C70.2797 18.9812 69.4402 19.7444 68.2572 19.7444ZM88.9399 22.8735C87.528 23.8657 85.3529 24.896 83.6357 24.896H82.6054C81.3079 24.896 78.217 24.1328 78.217 20.5458C78.217 20.1642 78.2551 19.7444 78.3696 19.0194L78.5604 17.8746C78.8657 16.0047 79.5144 12.6848 85.3529 12.6848H89.9321L90.0847 11.7308C90.0913 11.6849 90.0978 11.6402 90.1042 11.5968C90.1349 11.3873 90.161 11.2085 90.161 11.0821C90.161 10.6242 89.7794 10.4715 89.4742 10.4715H82.3382L83.0251 6.04496H92.3743C94.931 6.04496 95.885 7.41872 95.885 9.21224C95.885 9.48666 95.8542 9.73025 95.8203 9.99844L95.8087 10.0899L93.5191 24.5144H89.3215L88.9399 22.8735ZM84.666 20.4694C83.6357 20.4694 83.4067 19.7826 83.4067 19.3246C83.4067 19.0575 83.4449 18.8286 83.483 18.6378L83.7883 17.0732C83.8646 16.6153 84.2462 16.3482 84.666 16.3482H89.3215L88.8636 19.5154C87.6425 20.0878 85.8871 20.4694 84.666 20.4694ZM109.775 23.6367C108.02 24.3999 105.73 24.896 103.899 24.896C102.181 24.896 98.6707 24.5144 98.6707 19.8589C98.6707 19.3628 98.7089 18.8286 98.8234 18.218L100.006 10.8531H97.793L98.5562 6.04496H100.77L101.952 3.10664H106.761L106.303 6.04496H111.836L111.073 10.8531H105.54L104.547 17.1114C104.535 17.2069 104.512 17.3585 104.486 17.5299C104.429 17.9062 104.357 18.3779 104.357 18.5614C104.357 19.2865 104.624 19.7444 105.959 19.7444C107.448 19.7444 109.356 19.4391 110.538 19.0957L109.775 23.6367ZM123.933 24.5144C127.863 24.5144 130.038 21.9195 130.611 18.218L131.603 11.8071C131.679 11.3874 131.717 10.8913 131.717 10.5478C131.717 7.95296 130.382 6.04496 127.825 6.04496H120.307C116.186 6.04496 113.973 8.75432 113.439 12.3414L112.485 18.7141C112.466 18.8407 112.449 18.9546 112.433 19.058L112.433 19.0594C112.323 19.795 112.294 19.9919 112.294 20.3931C112.294 22.988 113.744 24.5144 116.377 24.5144H123.933ZM119.239 19.3628H124.314C124.734 19.3628 125.077 19.0575 125.154 18.6378L126.07 12.6466C126.108 12.4177 126.146 12.1506 126.146 12.0361C126.146 11.3492 125.574 10.9294 124.887 10.9294H119.773C119.353 10.9294 119.048 11.2347 118.972 11.6545L118.094 17.4166L118.077 17.517C118.037 17.7531 117.98 18.0907 117.98 18.2562C117.98 18.9049 118.399 19.3628 119.239 19.3628ZM138.204 24.896C141.448 24.896 145.302 24.3618 148.164 23.0262L148.889 18.4088C146.752 19.0575 143.432 19.5918 140.609 19.5918C139.387 19.5918 138.968 18.943 138.968 18.1035C138.968 17.9509 139.044 17.4548 139.082 17.2258L139.96 11.6545C140.036 11.0821 140.456 10.9294 140.838 10.9294H149.309L150.072 6.04496H141.143C137.022 6.04496 134.846 8.60168 134.274 12.3414L133.396 18.218L133.369 18.4197C133.303 18.9087 133.244 19.3456 133.244 19.7826C133.244 24.5526 137.518 24.896 138.204 24.896ZM166.977 23.1025C164.726 24.0183 160.452 24.896 157.552 24.896C155.491 24.896 151.37 24.5907 151.37 19.8589C151.37 19.422 151.429 18.9554 151.495 18.4332L151.522 18.218L152.438 12.3414C152.972 9.02144 155.033 6.04496 159.46 6.04496H163.428C167.969 6.04496 168.618 8.79248 168.618 10.2807C168.618 10.618 168.569 10.98 168.53 11.2676C168.52 11.3379 168.511 11.4037 168.504 11.4637L168.236 12.9519C167.855 15.0889 165.87 16.3863 163.39 16.8442C162.016 17.1114 158.2 17.3022 157.17 17.3022L157.056 18.1035C157.017 18.4088 157.017 18.5614 157.017 18.7141C157.017 19.4391 157.361 20.0878 158.62 20.0878C161.215 20.0878 165.298 19.5918 167.626 19.0194L166.977 23.1025ZM157.666 13.9822L158.048 11.9598C158.238 10.8531 159.192 10.4715 159.841 10.4715H162.665C163.505 10.4715 163.962 10.9676 163.962 11.6926C163.962 11.9216 163.848 12.4558 163.772 12.6466C163.619 12.9901 163.39 13.3717 162.322 13.6388C161.558 13.8296 158.277 13.9822 157.666 13.9822ZM177.28 11.769L175.258 24.5144H169.534L172.472 6.04496H177.128L177.509 7.57136C179.112 6.77 181.86 5.66336 183.768 5.66336L182.966 10.8531H182.241C180.409 10.8531 178.501 11.3492 177.28 11.769ZM188.805 24.896C190.522 24.896 192.697 23.8657 194.109 22.8735L194.49 24.5144H198.688L200.978 10.0899L200.989 9.99849C201.023 9.73028 201.054 9.48668 201.054 9.21224C201.054 7.41872 200.1 6.04496 197.543 6.04496H188.194L187.507 10.4715H194.643C194.948 10.4715 195.33 10.6242 195.33 11.0821C195.33 11.2085 195.304 11.3874 195.273 11.5969C195.269 11.6231 195.265 11.6499 195.261 11.6771C195.259 11.6948 195.256 11.7127 195.254 11.7308L195.101 12.6848H190.522C184.683 12.6848 184.035 16.0047 183.729 17.8746L183.539 19.0194C183.424 19.7444 183.386 20.1642 183.386 20.5458C183.386 24.1328 186.477 24.896 187.774 24.896H188.805ZM188.576 19.3246C188.576 19.7826 188.805 20.4694 189.835 20.4694C191.056 20.4694 192.811 20.0878 194.033 19.5154L194.49 16.3482H189.835C189.415 16.3482 189.034 16.6153 188.957 17.0732L188.652 18.6378C188.614 18.8286 188.576 19.0575 188.576 19.3246Z" fill="white"/>
<path fill-rule="evenodd" clip-rule="evenodd" d="M13.4596 26.9192C16.274 26.9192 18.8867 26.0554 21.0469 24.5784H27.0332C29.1934 26.0554 31.8061 26.9192 34.6205 26.9192C42.054 26.9192 48.0801 20.8931 48.0801 13.4596C48.0801 6.02606 42.054 0 34.6205 0C34.4038 0 34.1883 0.00512217 33.974 0.0152521C33.7694 0.00512397 33.5635 0 33.3564 0H14.63C14.4383 0 14.2477 0.00438833 14.0581 0.01307C13.8597 0.00438691 13.6602 0 13.4596 0C6.02606 0 0 6.02606 0 13.4596C0 20.8931 6.02606 26.9192 13.4596 26.9192ZM10.0435 9.93017C9.95603 10.2275 9.87944 10.5387 9.81483 10.8618C9.19586 10.9174 8.64656 11.0541 8.1607 11.2623C6.97242 11.7716 6.27297 12.662 5.87976 13.5795C5.49402 14.4796 5.3958 15.4164 5.38588 16.1011C5.38084 16.4485 5.39842 16.7436 5.41757 16.9543C5.42717 17.0599 5.43724 17.1451 5.44524 17.2059C5.44925 17.2363 5.45274 17.2607 5.45542 17.2785L5.45877 17.3003L5.45992 17.3075L5.46035 17.3101L5.46052 17.3111C5.4606 17.3116 5.46067 17.312 6.28676 17.1744C7.11285 17.0367 7.11292 17.0371 7.11297 17.0374L7.11286 17.0366L7.11191 17.0304C7.11065 17.0219 7.10854 17.0074 7.10589 16.9872C7.10057 16.9468 7.09307 16.8841 7.08566 16.8026C7.07081 16.6393 7.05664 16.4038 7.06067 16.1254C7.06889 15.5586 7.15205 14.8629 7.4193 14.2393C7.67909 13.6332 8.10423 13.1088 8.8205 12.8018C9.04014 12.7077 9.2966 12.63 9.5958 12.5782C9.57963 12.8476 9.57132 13.1218 9.57132 13.3998C9.57132 13.9028 9.59855 14.3934 9.65026 14.866C8.96336 15.5231 8.48868 16.3032 8.15989 17.0541C7.76339 17.9596 7.56507 18.8539 7.4647 19.514C7.41419 19.8461 7.38769 20.1244 7.37375 20.3225C7.36677 20.4216 7.36291 20.501 7.36078 20.5574C7.35972 20.5856 7.35909 20.6081 7.35871 20.6245L7.35832 20.6444L7.35823 20.6508L7.3582 20.6531L7.35819 20.6541C7.35819 20.6545 7.35818 20.6548 8.19563 20.6625C9.03308 20.6701 9.03308 20.6705 9.03308 20.6708L9.03324 20.6629C9.03343 20.6545 9.03382 20.6403 9.03456 20.6206C9.03605 20.5811 9.03897 20.5199 9.04458 20.4401C9.05584 20.2802 9.07785 20.0472 9.12064 19.7657C9.20686 19.1987 9.37425 18.4567 9.69422 17.726C9.80509 17.4728 9.9326 17.2247 10.0791 16.9876C10.6974 18.9963 11.8193 20.3389 13.1007 20.3389C14.3624 20.3389 15.4694 19.0375 16.0934 17.0803C16.2166 17.289 16.3257 17.5056 16.4223 17.726C16.7422 18.4567 16.9096 19.1987 16.9958 19.7657C17.0386 20.0472 17.0606 20.2802 17.0719 20.4401C17.0775 20.5199 17.0804 20.5811 17.0819 20.6206C17.0826 20.6403 17.083 20.6545 17.0832 20.6629L17.0834 20.6708C17.0834 20.6705 17.0834 20.6701 17.9208 20.6625C18.7583 20.6548 18.7583 20.6545 18.7583 20.6541L18.7583 20.6531L18.7582 20.6508L18.7581 20.6444L18.7578 20.6245C18.7574 20.6081 18.7567 20.5856 18.7557 20.5574C18.7536 20.501 18.7497 20.4216 18.7427 20.3225C18.7288 20.1244 18.7023 19.8461 18.6518 19.514C18.5514 18.8539 18.3531 17.9596 17.9566 17.0541C17.6401 16.3315 17.1886 15.5817 16.5428 14.9407C16.6 14.4451 16.6301 13.9293 16.6301 13.3998C16.6301 13.1224 16.6219 12.8489 16.6058 12.58C16.9006 12.6318 17.1537 12.7088 17.3708 12.8018C18.0871 13.1088 18.5122 13.6332 18.772 14.2393C19.0393 14.8629 19.1224 15.5586 19.1307 16.1254C19.1347 16.4038 19.1205 16.6393 19.1057 16.8026C19.0983 16.8841 19.0908 16.9468 19.0854 16.9872C19.0828 17.0074 19.0807 17.0219 19.0794 17.0304L19.0785 17.0366L19.0784 17.0374C19.0784 17.0371 19.0785 17.0367 19.9046 17.1744C20.7307 17.312 20.7307 17.3116 20.7308 17.3111L20.731 17.3101L20.7314 17.3075L20.7326 17.3003L20.7359 17.2785L20.7398 17.2518L20.7461 17.2059C20.7541 17.1451 20.7642 17.0599 20.7738 16.9543C20.7929 16.7436 20.8105 16.4485 20.8055 16.1011C20.7955 15.4164 20.6973 14.4796 20.3116 13.5795C19.9184 12.662 19.2189 11.7716 18.0306 11.2623C17.5475 11.0552 17.0016 10.919 16.3868 10.8627C16.3222 10.5393 16.2455 10.2278 16.1579 9.93017H15.2931C15.3021 9.90158 15.3109 9.87279 15.3195 9.84381C16.5191 9.40886 17.3766 8.55132 17.9486 7.75049C18.3556 7.18071 18.6371 6.61634 18.8168 6.19694C18.9072 5.98605 18.9732 5.80865 19.0174 5.68128C19.0395 5.61751 19.0562 5.56605 19.0679 5.52892C19.0737 5.51035 19.0783 5.49534 19.0817 5.48416L19.0858 5.47026L19.0872 5.46551L19.0877 5.4637L19.0879 5.46294C19.088 5.46259 19.0881 5.46227 18.2828 5.23219C17.4776 5.00211 17.4777 5.00182 17.4777 5.00154L17.4771 5.00353L17.47 5.02672C17.463 5.04911 17.4514 5.08494 17.4349 5.13227C17.402 5.2271 17.3501 5.36712 17.2773 5.53714C17.1305 5.87957 16.9041 6.33096 16.5856 6.77694C16.3012 7.17512 15.9581 7.5509 15.545 7.84575C15.5141 7.25763 15.4016 6.70649 15.2254 6.22131H10.9764C10.7959 6.7185 10.6822 7.28494 10.6547 7.88948C10.2135 7.58853 9.85013 7.19509 9.55145 6.77694C9.2329 6.33096 9.00653 5.87957 8.85977 5.53714C8.78691 5.36712 8.735 5.2271 8.7021 5.13227C8.68568 5.08494 8.67408 5.04911 8.66704 5.02672L8.6599 5.00353L8.6593 5.00154C8.65938 5.00182 8.65946 5.00211 7.8542 5.23219C7.04894 5.46227 7.04903 5.46259 7.04913 5.46294L7.04935 5.4637L7.04987 5.46551L7.05125 5.47026L7.05537 5.48416C7.05872 5.49534 7.0633 5.51035 7.06913 5.52892C7.0808 5.56605 7.09754 5.61751 7.11966 5.68128C7.16385 5.80865 7.22985 5.98605 7.32023 6.19694C7.49997 6.61634 7.78148 7.18071 8.18847 7.75049C8.77194 8.56735 9.65242 9.44323 10.89 9.86943C10.8962 9.88977 10.9024 9.91002 10.9088 9.93017H10.0435ZM34.6206 5.38385C36.1325 5.38385 37.36 6.61136 37.36 8.1232C37.36 9.63728 36.1325 10.8648 34.6206 10.8648C33.1065 10.8648 31.8813 9.63728 31.8813 8.1232C31.8813 6.60911 33.1065 5.38385 34.6206 5.38385ZM26.5445 13.4618C26.5445 14.9736 27.7697 16.2011 29.2838 16.2011C30.7979 16.2011 32.0232 14.9736 32.0254 13.4618C32.0254 11.9477 30.7979 10.7179 29.2838 10.7179C27.772 10.7179 26.5445 11.9499 26.5445 13.4618ZM34.6203 21.5353C33.1063 21.5353 31.881 20.3078 31.881 18.796C31.881 17.2841 33.1063 16.0566 34.6203 16.0566C36.1322 16.0566 37.3597 17.2841 37.3597 18.796C37.3597 20.3078 36.1322 21.5353 34.6203 21.5353ZM37.2152 13.4618C37.2152 14.9736 38.4427 16.2011 39.9546 16.2011C41.4709 16.2011 42.6939 14.9736 42.6939 13.4618C42.6939 11.9477 41.4709 10.7179 39.9546 10.7179C38.4427 10.7179 37.2152 11.9499 37.2152 13.4618Z" fill="white"/>
<path fill-rule="evenodd" clip-rule="evenodd" d="M6.0984 101.44V46H0V101.44H6.0984ZM23.0472 101.44V71.8984C24.2616 69.9976 25.7268 68.5588 27.4428 67.582C29.1588 66.6052 31.0728 66.1168 33.1848 66.1168C36.3 66.1168 38.7816 67.1464 40.6296 69.2056C42.4776 71.2648 43.4016 74.0368 43.4016 77.5216V101.44H49.1832V76.3336C49.1832 75.6472 49.1436 75.0004 49.0644 74.3932C48.9852 73.786 48.8928 73.192 48.7872 72.6112C50.0544 70.4992 51.5856 68.8888 53.3808 67.78C55.176 66.6712 57.156 66.1168 59.3208 66.1168C62.4888 66.1168 64.9968 67.1464 66.8448 69.2056C68.6928 71.2648 69.6168 74.0368 69.6168 77.5216V101.44H75.3984V76.3336C75.3984 71.7928 74.0388 68.0968 71.3196 65.2456C68.6004 62.3944 65.1024 60.9688 60.8256 60.9688C57.9744 60.9688 55.4004 61.5628 53.1036 62.7508C50.8068 63.9388 48.84 65.7472 47.2032 68.176C45.9888 65.9584 44.286 64.2028 42.0948 62.9092C39.9036 61.6156 37.4352 60.9688 34.6896 60.9688C32.3136 60.9688 30.1488 61.4044 28.1952 62.2756C26.2416 63.1468 24.5256 64.4272 23.0472 66.1168V61.7608H17.1864V101.44H23.0472ZM104.663 101.004C102.524 101.77 100.214 102.153 97.7328 102.153C93.4032 102.153 89.8788 101.044 87.1596 98.8264C84.4404 96.6088 83.0808 93.7312 83.0808 90.1936C83.0808 86.4976 84.5064 83.554 87.3576 81.3628C90.2088 79.1716 94.0632 78.076 98.9208 78.076C101.033 78.076 103.079 78.3136 105.059 78.7888C107.039 79.264 108.874 79.924 110.563 80.7688V75.5416C110.563 72.3736 109.666 69.9844 107.87 68.374C106.075 66.7636 103.462 65.9584 100.03 65.9584C98.076 65.9584 96.1092 66.2356 94.1292 66.79C92.1492 67.3444 89.9712 68.2288 87.5952 69.4432L85.3776 64.9288C88.2288 63.556 90.8688 62.5528 93.2976 61.9192C95.7264 61.2856 98.1552 60.9688 100.584 60.9688C105.6 60.9688 109.468 62.1568 112.187 64.5328C114.906 66.9088 116.266 70.3144 116.266 74.7496V101.44H110.563V97.5592C108.768 99.0904 106.801 100.239 104.663 101.004ZM98.7624 97.5592C95.8056 97.5592 93.39 96.8596 91.5156 95.4604C89.6412 94.0612 88.704 92.2528 88.704 90.0352C88.704 87.712 89.6412 85.8508 91.5156 84.4516C93.39 83.0524 95.9112 82.3528 99.0792 82.3528C101.35 82.3528 103.422 82.6036 105.296 83.1052C107.171 83.6068 108.926 84.412 110.563 85.5208V92.9656C108.979 94.5496 107.21 95.7112 105.257 96.4504C103.303 97.1896 101.138 97.5592 98.7624 97.5592ZM158.083 114.072C155.126 116.792 150.902 118.151 145.411 118.151C142.666 118.151 139.946 117.795 137.254 117.082C134.561 116.369 132.106 115.353 129.888 114.033L132.422 109.439C134.798 110.706 137.003 111.63 139.036 112.211C141.068 112.792 143.114 113.082 145.174 113.082C148.922 113.082 151.774 112.185 153.727 110.39C155.681 108.594 156.658 105.954 156.658 102.47V97.1632C154.862 98.6416 152.896 99.7768 150.757 100.569C148.619 101.361 146.388 101.757 144.065 101.757C141.319 101.757 138.745 101.229 136.343 100.173C133.94 99.1168 131.842 97.678 130.046 95.8564C128.251 94.0348 126.839 91.8832 125.809 89.4016C124.78 86.92 124.265 84.2536 124.265 81.4024C124.265 78.5512 124.78 75.8848 125.809 73.4032C126.839 70.9216 128.251 68.77 130.046 66.9484C131.842 65.1268 133.954 63.688 136.382 62.632C138.811 61.576 141.425 61.048 144.223 61.048C146.494 61.048 148.698 61.4572 150.836 62.2756C152.975 63.094 154.942 64.2424 156.737 65.7208V61.7608H162.518V102.39C162.518 107.459 161.04 111.353 158.083 114.072ZM144.54 96.6088C142.534 96.6088 140.633 96.2128 138.838 95.4208C137.042 94.6288 135.498 93.5596 134.204 92.2132C132.911 90.8668 131.894 89.2564 131.155 87.382C130.416 85.5076 130.046 83.5144 130.046 81.4024C130.046 79.2904 130.416 77.3104 131.155 75.4624C131.894 73.6144 132.911 72.004 134.204 70.6312C135.498 69.2584 137.029 68.1892 138.798 67.4236C140.567 66.658 142.481 66.2752 144.54 66.2752C147.022 66.2752 149.332 66.7504 151.47 67.7008C153.608 68.6512 155.338 69.9712 156.658 71.6608V91.144C155.338 92.8864 153.622 94.2328 151.51 95.1832C149.398 96.1336 147.074 96.6088 144.54 96.6088ZM198.99 100.925C196.588 101.744 193.961 102.153 191.11 102.153C188.258 102.153 185.579 101.625 183.071 100.569C180.563 99.5128 178.398 98.0608 176.576 96.2128C174.755 94.3648 173.316 92.1868 172.26 89.6788C171.204 87.1708 170.676 84.4648 170.676 81.5608C170.676 78.7096 171.191 76.0432 172.22 73.5616C173.25 71.08 174.636 68.9152 176.378 67.0672C178.121 65.2192 180.193 63.7672 182.596 62.7112C184.998 61.6552 187.546 61.1272 190.238 61.1272C192.878 61.1272 195.347 61.6552 197.644 62.7112C199.94 63.7672 201.92 65.2192 203.584 67.0672C205.247 68.9152 206.567 71.08 207.544 73.5616C208.52 76.0432 209.009 78.7096 209.009 81.5608V83.3824H176.458C176.88 87.2896 178.49 90.5368 181.289 93.124C184.087 95.7112 187.44 97.0048 191.347 97.0048C193.406 97.0048 195.413 96.688 197.366 96.0544C199.32 95.4208 200.957 94.5232 202.277 93.3616L205.92 97.2424C203.702 98.8792 201.392 100.107 198.99 100.925ZM203.148 78.7096H176.616C177.144 75.0664 178.662 72.0832 181.17 69.76C183.678 67.4368 186.648 66.2752 190.08 66.2752C193.354 66.2752 196.218 67.4764 198.673 69.8788C201.128 72.2812 202.62 75.2248 203.148 78.7096ZM236.174 101.242C234.221 101.849 232.109 102.153 229.838 102.153C226.565 102.153 223.489 101.612 220.612 100.529C217.734 99.4468 215.239 97.9288 213.127 95.9752L216.691 92.1736C218.486 93.8632 220.506 95.17 222.75 96.094C224.994 97.018 227.278 97.48 229.601 97.48C232.769 97.48 235.356 96.82 237.362 95.5C239.369 94.18 240.372 92.464 240.372 90.352C240.372 88.6624 239.778 87.3292 238.59 86.3524C237.402 85.3756 235.541 84.7024 233.006 84.3328L226.116 83.3824C222.156 82.8016 219.212 81.6268 217.285 79.858C215.358 78.0892 214.394 75.7 214.394 72.6904C214.394 69.364 215.794 66.6052 218.592 64.414C221.39 62.2228 224.954 61.1272 229.284 61.1272C232.135 61.1272 234.841 61.5496 237.402 62.3944C239.963 63.2392 242.458 64.5592 244.886 66.3544L241.798 70.3144C239.58 68.836 237.428 67.7272 235.343 66.988C233.257 66.2488 231.132 65.8792 228.967 65.8792C226.274 65.8792 224.07 66.4864 222.354 67.7008C220.638 68.9152 219.78 70.4992 219.78 72.4528C219.78 74.1424 220.361 75.4492 221.522 76.3732C222.684 77.2972 224.558 77.944 227.146 78.3136L234.036 79.264C237.996 79.792 240.966 80.9668 242.946 82.7884C244.926 84.61 245.916 87.0256 245.916 90.0352C245.916 91.7248 245.507 93.322 244.688 94.8268C243.87 96.3316 242.735 97.6252 241.283 98.7076C239.831 99.79 238.128 100.635 236.174 101.242Z" fill="white"/>
</g>
<defs>
<clipPath id="clip0">
<rect width="355" height="118" fill="white"/>
</clipPath>
</defs>
</svg>
