<svg width="355" height="118" viewBox="0 0 355 118" fill="none" xmlns="http://www.w3.org/2000/svg">
<g clip-path="url(#clip0)">
<path fill-rule="evenodd" clip-rule="evenodd" d="M6.0984 101.44V46H0V101.44H6.0984ZM23.0472 101.44V71.8984C24.2616 69.9976 25.7268 68.5588 27.4428 67.582C29.1588 66.6052 31.0728 66.1168 33.1848 66.1168C36.3 66.1168 38.7816 67.1464 40.6296 69.2056C42.4776 71.2648 43.4016 74.0368 43.4016 77.5216V101.44H49.1832V76.3336C49.1832 75.6472 49.1436 75.0004 49.0644 74.3932C48.9852 73.786 48.8928 73.192 48.7872 72.6112C50.0544 70.4992 51.5856 68.8888 53.3808 67.78C55.176 66.6712 57.156 66.1168 59.3208 66.1168C62.4888 66.1168 64.9968 67.1464 66.8448 69.2056C68.6928 71.2648 69.6168 74.0368 69.6168 77.5216V101.44H75.3984V76.3336C75.3984 71.7928 74.0388 68.0968 71.3196 65.2456C68.6004 62.3944 65.1024 60.9688 60.8256 60.9688C57.9744 60.9688 55.4004 61.5628 53.1036 62.7508C50.8068 63.9388 48.84 65.7472 47.2032 68.176C45.9888 65.9584 44.286 64.2028 42.0948 62.9092C39.9036 61.6156 37.4352 60.9688 34.6896 60.9688C32.3136 60.9688 30.1488 61.4044 28.1952 62.2756C26.2416 63.1468 24.5256 64.4272 23.0472 66.1168V61.7608H17.1864V101.44H23.0472ZM104.663 101.004C102.524 101.77 100.214 102.153 97.7328 102.153C93.4032 102.153 89.8788 101.044 87.1596 98.8264C84.4404 96.6088 83.0808 93.7312 83.0808 90.1936C83.0808 86.4976 84.5064 83.554 87.3576 81.3628C90.2088 79.1716 94.0632 78.076 98.9208 78.076C101.033 78.076 103.079 78.3136 105.059 78.7888C107.039 79.264 108.874 79.924 110.563 80.7688V75.5416C110.563 72.3736 109.666 69.9844 107.87 68.374C106.075 66.7636 103.462 65.9584 100.03 65.9584C98.076 65.9584 96.1092 66.2356 94.1292 66.79C92.1492 67.3444 89.9712 68.2288 87.5952 69.4432L85.3776 64.9288C88.2288 63.556 90.8688 62.5528 93.2976 61.9192C95.7264 61.2856 98.1552 60.9688 100.584 60.9688C105.6 60.9688 109.468 62.1568 112.187 64.5328C114.906 66.9088 116.266 70.3144 116.266 74.7496V101.44H110.563V97.5592C108.768 99.0904 106.801 100.239 104.663 101.004ZM98.7624 97.5592C95.8056 97.5592 93.39 96.8596 91.5156 95.4604C89.6412 94.0612 88.704 92.2528 88.704 90.0352C88.704 87.712 89.6412 85.8508 91.5156 84.4516C93.39 83.0524 95.9112 82.3528 99.0792 82.3528C101.35 82.3528 103.422 82.6036 105.296 83.1052C107.171 83.6068 108.926 84.412 110.563 85.5208V92.9656C108.979 94.5496 107.21 95.7112 105.257 96.4504C103.303 97.1896 101.138 97.5592 98.7624 97.5592ZM158.083 114.072C155.126 116.792 150.902 118.151 145.411 118.151C142.666 118.151 139.946 117.795 137.254 117.082C134.561 116.369 132.106 115.353 129.888 114.033L132.422 109.439C134.798 110.706 137.003 111.63 139.036 112.211C141.068 112.792 143.114 113.082 145.174 113.082C148.922 113.082 151.774 112.185 153.727 110.39C155.681 108.594 156.658 105.954 156.658 102.47V97.1632C154.862 98.6416 152.896 99.7768 150.757 100.569C148.619 101.361 146.388 101.757 144.065 101.757C141.319 101.757 138.745 101.229 136.343 100.173C133.94 99.1168 131.842 97.678 130.046 95.8564C128.251 94.0348 126.839 91.8832 125.809 89.4016C124.78 86.92 124.265 84.2536 124.265 81.4024C124.265 78.5512 124.78 75.8848 125.809 73.4032C126.839 70.9216 128.251 68.77 130.046 66.9484C131.842 65.1268 133.954 63.688 136.382 62.632C138.811 61.576 141.425 61.048 144.223 61.048C146.494 61.048 148.698 61.4572 150.836 62.2756C152.975 63.094 154.942 64.2424 156.737 65.7208V61.7608H162.518V102.39C162.518 107.459 161.04 111.353 158.083 114.072ZM144.54 96.6088C142.534 96.6088 140.633 96.2128 138.838 95.4208C137.042 94.6288 135.498 93.5596 134.204 92.2132C132.911 90.8668 131.894 89.2564 131.155 87.382C130.416 85.5076 130.046 83.5144 130.046 81.4024C130.046 79.2904 130.416 77.3104 131.155 75.4624C131.894 73.6144 132.911 72.004 134.204 70.6312C135.498 69.2584 137.029 68.1892 138.798 67.4236C140.567 66.658 142.481 66.2752 144.54 66.2752C147.022 66.2752 149.332 66.7504 151.47 67.7008C153.608 68.6512 155.338 69.9712 156.658 71.6608V91.144C155.338 92.8864 153.622 94.2328 151.51 95.1832C149.398 96.1336 147.074 96.6088 144.54 96.6088ZM198.99 100.925C196.588 101.744 193.961 102.153 191.11 102.153C188.258 102.153 185.579 101.625 183.071 100.569C180.563 99.5128 178.398 98.0608 176.576 96.2128C174.755 94.3648 173.316 92.1868 172.26 89.6788C171.204 87.1708 170.676 84.4648 170.676 81.5608C170.676 78.7096 171.191 76.0432 172.22 73.5616C173.25 71.08 174.636 68.9152 176.378 67.0672C178.121 65.2192 180.193 63.7672 182.596 62.7112C184.998 61.6552 187.546 61.1272 190.238 61.1272C192.878 61.1272 195.347 61.6552 197.644 62.7112C199.94 63.7672 201.92 65.2192 203.584 67.0672C205.247 68.9152 206.567 71.08 207.544 73.5616C208.52 76.0432 209.009 78.7096 209.009 81.5608V83.3824H176.458C176.88 87.2896 178.49 90.5368 181.289 93.124C184.087 95.7112 187.44 97.0048 191.347 97.0048C193.406 97.0048 195.413 96.688 197.366 96.0544C199.32 95.4208 200.957 94.5232 202.277 93.3616L205.92 97.2424C203.702 98.8792 201.392 100.107 198.99 100.925ZM203.148 78.7096H176.616C177.144 75.0664 178.662 72.0832 181.17 69.76C183.678 67.4368 186.648 66.2752 190.08 66.2752C193.354 66.2752 196.218 67.4764 198.673 69.8788C201.128 72.2812 202.62 75.2248 203.148 78.7096ZM236.174 101.242C234.221 101.849 232.109 102.153 229.838 102.153C226.565 102.153 223.489 101.612 220.612 100.529C217.734 99.4468 215.239 97.9288 213.127 95.9752L216.691 92.1736C218.486 93.8632 220.506 95.17 222.75 96.094C224.994 97.018 227.278 97.48 229.601 97.48C232.769 97.48 235.356 96.82 237.362 95.5C239.369 94.18 240.372 92.464 240.372 90.352C240.372 88.6624 239.778 87.3292 238.59 86.3524C237.402 85.3756 235.541 84.7024 233.006 84.3328L226.116 83.3824C222.156 82.8016 219.212 81.6268 217.285 79.858C215.358 78.0892 214.394 75.7 214.394 72.6904C214.394 69.364 215.794 66.6052 218.592 64.414C221.39 62.2228 224.954 61.1272 229.284 61.1272C232.135 61.1272 234.841 61.5496 237.402 62.3944C239.963 63.2392 242.458 64.5592 244.886 66.3544L241.798 70.3144C239.58 68.836 237.428 67.7272 235.343 66.988C233.257 66.2488 231.132 65.8792 228.967 65.8792C226.274 65.8792 224.07 66.4864 222.354 67.7008C220.638 68.9152 219.78 70.4992 219.78 72.4528C219.78 74.1424 220.361 75.4492 221.522 76.3732C222.684 77.2972 224.558 77.944 227.146 78.3136L234.036 79.264C237.996 79.792 240.966 80.9668 242.946 82.7884C244.926 84.61 245.916 87.0256 245.916 90.0352C245.916 91.7248 245.507 93.322 244.688 94.8268C243.87 96.3316 242.735 97.6252 241.283 98.7076C239.831 99.79 238.128 100.635 236.174 101.242Z" fill="white"/>
<path fill-rule="evenodd" clip-rule="evenodd" d="M3.18011 31.3038C3.04908 30.6823 3.09916 26.5227 3.15205 25.7952C3.9919 25.6756 4.72554 25.6975 5.4654 25.7197C5.63271 25.7247 5.80034 25.7297 5.96958 25.7331C6.30298 25.7397 6.70587 25.7272 7.14148 25.7137C8.58844 25.6689 10.3963 25.6128 11.2167 26.2105C12.7084 27.2971 12.8834 29.4395 11.4439 30.672C10.6602 31.343 9.74038 31.3596 8.70356 31.3351C7.71995 31.3119 6.76395 31.3143 5.80892 31.3167C4.93933 31.3188 4.06943 31.321 3.18011 31.3038ZM3.20389 22.5989C3.18299 22.5173 3.08314 17.7101 3.18653 17.0966C3.18943 17.0795 3.19345 17.0609 3.19723 17.0434C3.1994 17.0334 3.20148 17.0237 3.20323 17.015L3.24716 16.8542C3.70209 16.7914 6.83244 16.7764 7.20051 16.8813C10.0741 17.7001 9.95809 21.7076 7.38033 22.4254C6.44999 22.6844 5.21629 22.6483 4.15753 22.6173C3.81611 22.6073 3.49288 22.5978 3.20389 22.5989ZM0.632389 34.3375L0.542303 34.3286C0.446338 33.7805 0.332299 33.1941 0.199168 32.5676C-0.0334783 31.1551 -0.0098146 29.9473 0.0154406 28.6584C0.0216638 28.3409 0.0279831 28.0184 0.0305892 27.6867L0.0213973 18.0696C0.013153 16.2211 0.0101101 15.238 1.34793 14.2453C2.31506 13.5275 3.77884 13.609 5.05411 13.68C5.35675 13.6968 5.64876 13.7131 5.921 13.7179C7.86244 13.7525 8.66619 13.9396 9.93068 14.799C11.0329 15.5481 11.9664 16.7633 12.3079 18.4974C12.6504 20.2358 12.3989 20.8352 12.0799 21.5951C11.9343 21.9419 11.7746 22.3222 11.651 22.8596C11.7596 22.9749 11.9812 23.097 12.2613 23.2514C12.7481 23.5197 13.4119 23.8856 13.9681 24.4827C16.3947 27.0883 15.9193 30.724 13.6527 32.9018C11.9339 34.5533 9.96404 34.4903 7.68996 34.4175L7.6844 34.4174C7.574 34.4138 7.46289 34.4103 7.35106 34.4069C6.47806 34.3806 5.5996 34.3985 4.71861 34.4165C3.35894 34.4442 1.99326 34.472 0.632389 34.3375Z" fill="white"/>
<path fill-rule="evenodd" clip-rule="evenodd" d="M55.8824 16.6616C58.1268 15.6757 60.4818 16.0617 62.1614 16.8676C64.0123 17.7557 64.9151 18.8359 66.0427 20.9757C67.057 22.9003 66.5043 25.9001 65.8087 27.2823C63.8233 31.2275 59.2445 32.8134 55.3063 30.882C51.5466 29.0382 49.8051 24.157 51.8115 20.4391C52.7415 18.7155 53.7156 17.6134 55.8824 16.6616ZM55.5935 13.4742C54.9038 13.8482 53.6856 13.9105 51.7508 15.5196C50.6814 16.4091 49.9671 17.359 49.2717 18.4852C46.3282 23.2521 48.0132 30.4071 53.4368 33.4286C62.2593 38.3436 72.2039 29.7266 69.2439 20.5868C67.929 16.5266 64.2292 13.549 60.3949 13.0967C59.3223 12.9701 56.7133 12.8669 55.5935 13.4742Z" fill="white"/>
<path fill-rule="evenodd" clip-rule="evenodd" d="M122.787 24.1972C122.42 23.0548 123.503 20.0901 123.982 19.2774C126.097 15.6884 129.57 15.0782 132.062 18.5193C133.231 20.1326 133.648 21.9145 133.772 24.1569C133.226 24.3202 124.647 24.1621 122.787 24.1972ZM122.628 34.2795C122.821 33.7909 122.729 28.4437 122.725 27.4338C123.055 27.3487 133.344 27.3408 133.667 27.4369C133.854 28.0581 133.771 30.0894 133.774 30.8794C133.778 31.6536 133.659 33.7398 133.841 34.341C137.522 33.9506 136.826 30.8889 136.962 29.2286C137.05 28.1513 136.956 26.7539 136.962 25.6013C136.97 24.1665 137.063 23.3954 136.769 21.7836C135.931 17.2059 132.771 12.8731 128.023 13.1076C122.995 13.3559 120.254 18.1008 119.716 21.9727C119.539 23.2501 119.509 27.6601 119.543 29.0959C119.567 30.116 119.353 31.7961 119.943 32.7335C120.476 33.5783 121.533 34.4669 122.628 34.2795Z" fill="white"/>
<path fill-rule="evenodd" clip-rule="evenodd" d="M20.4864 24.1111C20.0704 21.7218 21.982 16.5552 25.7095 16.2076C29.902 15.8166 31.8036 22.4931 31.3989 24.025C30.7171 24.2629 24.6679 24.1141 23.1435 24.1452C22.2384 24.1636 21.2968 24.0441 20.4864 24.1111ZM20.3515 34.1996C20.4467 32.2698 20.4111 29.2836 20.3507 27.3889C20.6544 27.2502 30.919 27.231 31.354 27.3506C31.5485 28.0248 31.4105 29.9571 31.4175 30.7573C31.4252 31.6246 31.3319 33.5479 31.492 34.2803C34.55 33.937 34.7835 31.6693 34.6157 29.1266L34.6354 25.5206C34.6556 21.6369 34.2553 18.5019 31.4055 15.4614C29.9831 13.9438 28.2681 13.0508 25.7375 13.0204C22.966 12.9871 21.0124 14.7612 19.8108 16.1809C18.6322 17.5734 17.7086 19.7728 17.399 21.8939C17.0816 24.0687 17.2346 26.7039 17.2113 28.9826C17.1999 30.102 17.0328 31.6023 17.6141 32.6733C18.125 33.6145 19.2349 34.3125 20.3515 34.1996Z" fill="white"/>
<path fill-rule="evenodd" clip-rule="evenodd" d="M108.632 16.5607C110.815 15.4853 113.076 16.8559 113.827 18.5104C114.878 20.8242 113.568 22.9483 111.828 23.6954C107.109 25.7214 103.871 18.9069 108.632 16.5607ZM106.325 27.0632C106.783 27.1759 107.123 27.6627 107.62 28.1651C108.645 29.2033 112.908 33.5768 113.572 33.9624C114.795 34.672 116.046 34.3241 117.186 33.5563C116.923 32.6516 111.639 28.2175 111.185 27.134C116.911 26.001 118.593 20.4252 116.321 16.5488C113.278 11.3575 105.32 12.1115 103.438 18.2252C102.971 19.7404 103.199 27.2275 103.187 29.0782L103.183 33.6378C103.179 34.0378 103.071 34.2443 103.415 34.3033C103.838 34.3758 104.878 33.9038 105.152 33.667C106.903 32.1512 106.057 30.0135 106.325 27.0632Z" fill="white"/>
<path fill-rule="evenodd" clip-rule="evenodd" d="M101.671 34.2954C101.222 30.3157 97.7382 31.4483 95.2954 31.2406C94.7458 31.1938 92.7514 31.3952 92.4898 31.1801L92.4053 31.0459C92.3986 31.0285 92.3788 30.9952 92.3718 30.9731C92.2683 30.6502 92.3821 28.7122 92.3569 28.0684C92.3174 27.0573 92.3469 25.8636 92.3662 24.8596C93.5852 24.5632 97.8318 25.0611 98.5993 24.6715C98.4922 23.1039 97.5174 22.1569 96.4725 21.8169C95.3455 21.4501 93.0813 21.8041 92.4243 21.6114C92.3342 21.1817 92.2761 17.169 92.4531 16.7677L98.1184 16.7389C99.2365 16.7841 100.006 16.5528 100.723 15.9067C101.24 15.4398 101.799 14.5288 101.622 13.6152L97.6391 13.5707C97.1096 13.5729 96.6361 13.6399 96.1216 13.6282C91.7301 13.5274 89.0635 12.8868 89.2366 18.3807C89.3054 20.5623 89.0749 30.9633 89.3497 32.0999C90.0404 34.9574 93.6609 34.3986 96.0933 34.3589C97.059 34.3431 97.9081 34.4132 98.8674 34.3631C99.7145 34.3188 100.889 34.4931 101.671 34.2954Z" fill="white"/>
<path fill-rule="evenodd" clip-rule="evenodd" d="M88.212 13.6731L82.6097 13.6331C80.4545 13.6317 78.6764 14.0003 76.8138 14.9749C68.1347 19.5163 69.9055 31.8023 79.5508 34.0492C81.3761 34.4743 83.1127 34.29 85.0512 34.365C85.4768 34.3815 85.9545 34.3648 86.4089 34.3596C87.9535 34.3417 88.6106 34.8019 88.0102 33.2195C87.0207 30.612 84.0819 31.3456 82.2715 31.2375C78.6459 31.021 75.73 29.5297 74.5851 25.8454C73.4578 22.2179 75.6424 18.8674 78.9179 17.456C82.7686 15.7967 85.1037 17.8217 87.2612 15.9134C87.8144 15.4241 88.3097 14.6037 88.212 13.6731Z" fill="white"/>
<path fill-rule="evenodd" clip-rule="evenodd" d="M40.0051 16.6836C40.2633 17.7317 39.8458 32.9447 40.1481 34.2885C43.8525 33.7677 43.1052 30.8906 43.1798 28.943C43.2468 27.1953 43.063 17.0534 43.2423 16.8119C43.4099 16.5861 44.0083 16.6831 44.1881 16.6885C44.9277 16.7104 46.8218 16.7081 47.4007 16.4821C48.7093 15.971 49.432 14.8708 49.3927 13.5958C49.0328 13.4748 36.4554 13.4712 34.5804 13.498C33.7712 13.5094 33.7035 13.5534 33.9616 14.4313C34.7968 17.2721 38.0106 16.5843 40.0051 16.6836Z" fill="white"/>
</g>
<defs>
<clipPath id="clip0">
<rect width="355" height="118" fill="white"/>
</clipPath>
</defs>
</svg>
