<svg width="723" height="85" viewBox="0 0 723 85" fill="none" xmlns="http://www.w3.org/2000/svg">
<g id="gamemeta">
<g id="GAME DETAILS">
<g id="ICON DIVIDERS" opacity="0.351446">
<rect id="Rectangle" x="170" width="1" height="73" fill="white"/>
<rect id="Rectangle_2" x="361" width="1" height="73" fill="white"/>
<rect id="Rectangle_3" x="552" width="1" height="73" fill="white"/>
</g>
<g id="MD_LBL_PLAYERS INFO">
<g id="PLAYERS - ICON">
<path id="Oval" d="M258.5 8C258.5 11.5899 255.59 14.5 252 14.5C248.41 14.5 245.5 11.5899 245.5 8C245.5 4.41015 248.41 1.5 252 1.5C255.59 1.5 258.5 4.41015 258.5 8Z" stroke="white" stroke-width="3"/>
<path id="Rectangle_4" d="M245 19.5H259C262.038 19.5 264.5 21.9624 264.5 25V36.5H239.5V25C239.5 21.9624 241.962 19.5 245 19.5Z" stroke="white" stroke-width="3"/>
<path id="Oval_2" d="M287.5 8C287.5 11.5899 284.59 14.5 281 14.5C277.41 14.5 274.5 11.5899 274.5 8C274.5 4.41015 277.41 1.5 281 1.5C284.59 1.5 287.5 4.41015 287.5 8Z" stroke="white" stroke-width="3"/>
<path id="Rectangle_5" d="M274 19.5H288C291.038 19.5 293.5 21.9624 293.5 25V36.5H268.5V25C268.5 21.9624 270.962 19.5 274 19.5Z" stroke="white" stroke-width="3"/>
</g>
</g>
<g id="MD_DEVELOPER INFO">
<g id="PROCESSOR - ICON">
<g id="Group 51">
<rect id="Rectangle_6" x="420" y="13" width="8" height="3" rx="1.5" fill="white"/>
<rect id="Rectangle_7" x="420" y="18" width="8" height="3" rx="1.5" fill="white"/>
<rect id="Rectangle_8" x="420" y="23" width="8" height="3" rx="1.5" fill="white"/>
</g>
<g id="Group 52">
<rect id="Rectangle_9" x="448" y="1" width="7" height="3" rx="1.5" transform="rotate(90 448 1)" fill="white"/>
<rect id="Rectangle_10" x="443" y="1" width="7" height="3" rx="1.5" transform="rotate(90 443 1)" fill="white"/>
<rect id="Rectangle_11" x="438" y="1" width="7" height="3" rx="1.5" transform="rotate(90 438 1)" fill="white"/>
<rect id="Rectangle_12" x="463" y="1" width="7" height="3" rx="1.5" transform="rotate(90 463 1)" fill="white"/>
<rect id="Rectangle_13" x="458" y="1" width="7" height="3" rx="1.5" transform="rotate(90 458 1)" fill="white"/>
<rect id="Rectangle_14" x="453" y="1" width="7" height="3" rx="1.5" transform="rotate(90 453 1)" fill="white"/>
<rect id="Rectangle_15" x="478" y="1" width="7" height="3" rx="1.5" transform="rotate(90 478 1)" fill="white"/>
<rect id="Rectangle_16" x="468" y="1" width="7" height="3" rx="1.5" transform="rotate(90 468 1)" fill="white"/>
<rect id="Rectangle_17" x="473" y="1" width="7" height="3" rx="1.5" transform="rotate(90 473 1)" fill="white"/>
</g>
<g id="Group 52_2">
<rect id="Rectangle_18" x="448" y="31" width="7" height="3" rx="1.5" transform="rotate(90 448 31)" fill="white"/>
<rect id="Rectangle_19" x="443" y="31" width="7" height="3" rx="1.5" transform="rotate(90 443 31)" fill="white"/>
<rect id="Rectangle_20" x="438" y="31" width="7" height="3" rx="1.5" transform="rotate(90 438 31)" fill="white"/>
<rect id="Rectangle_21" x="463" y="31" width="7" height="3" rx="1.5" transform="rotate(90 463 31)" fill="white"/>
<rect id="Rectangle_22" x="458" y="31" width="7" height="3" rx="1.5" transform="rotate(90 458 31)" fill="white"/>
<rect id="Rectangle_23" x="453" y="31" width="7" height="3" rx="1.5" transform="rotate(90 453 31)" fill="white"/>
<rect id="Rectangle_24" x="478" y="31" width="7" height="3" rx="1.5" transform="rotate(90 478 31)" fill="white"/>
<rect id="Rectangle_25" x="468" y="31" width="7" height="3" rx="1.5" transform="rotate(90 468 31)" fill="white"/>
<rect id="Rectangle_26" x="473" y="31" width="7" height="3" rx="1.5" transform="rotate(90 473 31)" fill="white"/>
</g>
<g id="Group 51_2">
<rect id="Rectangle_27" x="486" y="13" width="8" height="3" rx="1.5" fill="white"/>
<rect id="Rectangle_28" x="486" y="18" width="8" height="3" rx="1.5" fill="white"/>
<rect id="Rectangle_29" x="486" y="23" width="8" height="3" rx="1.5" fill="white"/>
</g>
<path id="Rectangle (Stroke)" fill-rule="evenodd" clip-rule="evenodd" d="M428 9V30H485V9H428ZM427.556 6C426.144 6 425 7.14416 425 8.55556V30.4444C425 31.8558 426.144 33 427.556 33H485.444C486.856 33 488 31.8558 488 30.4444V8.55556C488 7.14416 486.856 6 485.444 6H427.556Z" fill="white"/>
<path id="Rectangle (Stroke)_2" fill-rule="evenodd" clip-rule="evenodd" d="M480 14H433V25H480V14ZM431 12V27H482V12H431Z" fill="white"/>
</g>
</g>
<g id="RELEASEDATE - INFO">
<g id="RELEASEDATE - ICON">
<rect id="Rectangle_30" x="632" width="10" height="3" rx="1.5" transform="rotate(90 632 0)" fill="white"/>
<rect id="Rectangle_31" x="620" y="11" width="57" height="2" fill="white"/>
<rect id="Rectangle_32" x="668" width="10" height="3" rx="1.5" transform="rotate(90 668 0)" fill="white"/>
<path id="Rectangle (Stroke)_3" fill-rule="evenodd" clip-rule="evenodd" d="M623 6V35H674V6H623ZM622.556 3C621.144 3 620 4.14416 620 5.55556V35.4444C620 36.8558 621.144 38 622.556 38H674.444C675.856 38 677 36.8558 677 35.4444V5.55556C677 4.14416 675.856 3 674.444 3H622.556Z" fill="white"/>
<path id="Oval_3" fill-rule="evenodd" clip-rule="evenodd" d="M634.5 18C635.328 18 636 17.3284 636 16.5C636 15.6716 635.328 15 634.5 15C633.672 15 633 15.6716 633 16.5C633 17.3284 633.672 18 634.5 18Z" fill="white"/>
<path id="Oval_4" fill-rule="evenodd" clip-rule="evenodd" d="M641.5 18C642.328 18 643 17.3284 643 16.5C643 15.6716 642.328 15 641.5 15C640.672 15 640 15.6716 640 16.5C640 17.3284 640.672 18 641.5 18Z" fill="white"/>
<path id="Oval_5" fill-rule="evenodd" clip-rule="evenodd" d="M648.5 18C649.328 18 650 17.3284 650 16.5C650 15.6716 649.328 15 648.5 15C647.672 15 647 15.6716 647 16.5C647 17.3284 647.672 18 648.5 18Z" fill="white"/>
<path id="Oval_6" fill-rule="evenodd" clip-rule="evenodd" d="M655.5 18C656.328 18 657 17.3284 657 16.5C657 15.6716 656.328 15 655.5 15C654.672 15 654 15.6716 654 16.5C654 17.3284 654.672 18 655.5 18Z" fill="white"/>
<path id="Oval_7" fill-rule="evenodd" clip-rule="evenodd" d="M662.5 18C663.328 18 664 17.3284 664 16.5C664 15.6716 663.328 15 662.5 15C661.672 15 661 15.6716 661 16.5C661 17.3284 661.672 18 662.5 18Z" fill="white"/>
<path id="Oval_8" fill-rule="evenodd" clip-rule="evenodd" d="M669.5 18C670.328 18 671 17.3284 671 16.5C671 15.6716 670.328 15 669.5 15C668.672 15 668 15.6716 668 16.5C668 17.3284 668.672 18 669.5 18Z" fill="white"/>
<path id="Oval_9" fill-rule="evenodd" clip-rule="evenodd" d="M627.5 23C628.328 23 629 22.3284 629 21.5C629 20.6716 628.328 20 627.5 20C626.672 20 626 20.6716 626 21.5C626 22.3284 626.672 23 627.5 23Z" fill="white"/>
<path id="Oval_10" fill-rule="evenodd" clip-rule="evenodd" d="M634.5 23C635.328 23 636 22.3284 636 21.5C636 20.6716 635.328 20 634.5 20C633.672 20 633 20.6716 633 21.5C633 22.3284 633.672 23 634.5 23Z" fill="white"/>
<path id="Oval_11" fill-rule="evenodd" clip-rule="evenodd" d="M641.5 23C642.328 23 643 22.3284 643 21.5C643 20.6716 642.328 20 641.5 20C640.672 20 640 20.6716 640 21.5C640 22.3284 640.672 23 641.5 23Z" fill="white"/>
<path id="Oval_12" fill-rule="evenodd" clip-rule="evenodd" d="M648.5 23C649.328 23 650 22.3284 650 21.5C650 20.6716 649.328 20 648.5 20C647.672 20 647 20.6716 647 21.5C647 22.3284 647.672 23 648.5 23Z" fill="white"/>
<path id="Oval_13" fill-rule="evenodd" clip-rule="evenodd" d="M655.5 23C656.328 23 657 22.3284 657 21.5C657 20.6716 656.328 20 655.5 20C654.672 20 654 20.6716 654 21.5C654 22.3284 654.672 23 655.5 23Z" fill="white"/>
<path id="Oval_14" fill-rule="evenodd" clip-rule="evenodd" d="M662.5 23C663.328 23 664 22.3284 664 21.5C664 20.6716 663.328 20 662.5 20C661.672 20 661 20.6716 661 21.5C661 22.3284 661.672 23 662.5 23Z" fill="white"/>
<path id="Oval_15" fill-rule="evenodd" clip-rule="evenodd" d="M669.5 23C670.328 23 671 22.3284 671 21.5C671 20.6716 670.328 20 669.5 20C668.672 20 668 20.6716 668 21.5C668 22.3284 668.672 23 669.5 23Z" fill="white"/>
<path id="Oval_16" fill-rule="evenodd" clip-rule="evenodd" d="M627.5 28C628.328 28 629 27.3284 629 26.5C629 25.6716 628.328 25 627.5 25C626.672 25 626 25.6716 626 26.5C626 27.3284 626.672 28 627.5 28Z" fill="white"/>
<path id="Oval_17" fill-rule="evenodd" clip-rule="evenodd" d="M634.5 28C635.328 28 636 27.3284 636 26.5C636 25.6716 635.328 25 634.5 25C633.672 25 633 25.6716 633 26.5C633 27.3284 633.672 28 634.5 28Z" fill="white"/>
<path id="Oval_18" fill-rule="evenodd" clip-rule="evenodd" d="M641.5 28C642.328 28 643 27.3284 643 26.5C643 25.6716 642.328 25 641.5 25C640.672 25 640 25.6716 640 26.5C640 27.3284 640.672 28 641.5 28Z" fill="white"/>
<path id="Oval_19" fill-rule="evenodd" clip-rule="evenodd" d="M648.5 28C649.328 28 650 27.3284 650 26.5C650 25.6716 649.328 25 648.5 25C647.672 25 647 25.6716 647 26.5C647 27.3284 647.672 28 648.5 28Z" fill="white"/>
<path id="Oval_20" fill-rule="evenodd" clip-rule="evenodd" d="M655.5 28C656.328 28 657 27.3284 657 26.5C657 25.6716 656.328 25 655.5 25C654.672 25 654 25.6716 654 26.5C654 27.3284 654.672 28 655.5 28Z" fill="white"/>
<path id="Oval_21" fill-rule="evenodd" clip-rule="evenodd" d="M662.5 28C663.328 28 664 27.3284 664 26.5C664 25.6716 663.328 25 662.5 25C661.672 25 661 25.6716 661 26.5C661 27.3284 661.672 28 662.5 28Z" fill="white"/>
<path id="Oval_22" fill-rule="evenodd" clip-rule="evenodd" d="M669.5 28C670.328 28 671 27.3284 671 26.5C671 25.6716 670.328 25 669.5 25C668.672 25 668 25.6716 668 26.5C668 27.3284 668.672 28 669.5 28Z" fill="white"/>
<path id="Oval_23" fill-rule="evenodd" clip-rule="evenodd" d="M627.5 33C628.328 33 629 32.3284 629 31.5C629 30.6716 628.328 30 627.5 30C626.672 30 626 30.6716 626 31.5C626 32.3284 626.672 33 627.5 33Z" fill="white"/>
<path id="Oval_24" fill-rule="evenodd" clip-rule="evenodd" d="M634.5 33C635.328 33 636 32.3284 636 31.5C636 30.6716 635.328 30 634.5 30C633.672 30 633 30.6716 633 31.5C633 32.3284 633.672 33 634.5 33Z" fill="white"/>
<path id="Oval_25" fill-rule="evenodd" clip-rule="evenodd" d="M641.5 33C642.328 33 643 32.3284 643 31.5C643 30.6716 642.328 30 641.5 30C640.672 30 640 30.6716 640 31.5C640 32.3284 640.672 33 641.5 33Z" fill="white"/>
<path id="Oval_26" fill-rule="evenodd" clip-rule="evenodd" d="M648.5 33C649.328 33 650 32.3284 650 31.5C650 30.6716 649.328 30 648.5 30C647.672 30 647 30.6716 647 31.5C647 32.3284 647.672 33 648.5 33Z" fill="white"/>
<path id="Oval_27" fill-rule="evenodd" clip-rule="evenodd" d="M655.5 33C656.328 33 657 32.3284 657 31.5C657 30.6716 656.328 30 655.5 30C654.672 30 654 30.6716 654 31.5C654 32.3284 654.672 33 655.5 33Z" fill="white"/>
<path id="Oval_28" fill-rule="evenodd" clip-rule="evenodd" d="M662.5 33C663.328 33 664 32.3284 664 31.5C664 30.6716 663.328 30 662.5 30C661.672 30 661 30.6716 661 31.5C661 32.3284 661.672 33 662.5 33Z" fill="white"/>
</g>
</g>
</g>
<g id="Group 197">
<rect id="Rectangle 194" x="74.5312" y="21.6416" width="2.94018" height="1.90247" rx="0.345904" fill="white"/>
<g id="Group 191">
<rect id="Rectangle 187" x="68.1846" y="15.8547" width="2.94018" height="1.90247" rx="0.345904" fill="white"/>
<path id="Polygon 29" d="M83.5659 16.4723C83.903 16.5665 83.903 17.0444 83.5659 17.1386L81.1763 17.8062C80.9558 17.8678 80.7373 17.702 80.7373 17.473L80.7373 16.1379C80.7373 15.9089 80.9558 15.7431 81.1763 15.8047L83.5659 16.4723Z" fill="white"/>
</g>
<g id="Group 192">
<circle id="Ellipse 84" cx="90.5292" cy="17.1092" r="2.42133" transform="rotate(-90 90.5292 17.1092)" fill="white"/>
<circle id="Ellipse 85" cx="101.425" cy="17.1092" r="2.42133" transform="rotate(-90 101.425 17.1092)" fill="white"/>
<circle id="Ellipse 86" cx="95.9775" cy="12.1801" r="2.42133" fill="white"/>
<circle id="Ellipse 87" cx="95.9775" cy="21.8654" r="2.42133" fill="white"/>
</g>
<path id="Rectangle 196" d="M58.0071 15.4156C58.1035 15.324 58.2314 15.2729 58.3644 15.2729H60.2327C60.4237 15.2729 60.5786 15.4278 60.5786 15.6189V18.2131C60.5786 18.4042 60.4237 18.559 60.2327 18.559H58.3644C58.2314 18.559 58.1035 18.508 58.0071 18.4164L56.9557 17.4176C56.6686 17.1448 56.6686 16.6872 56.9557 16.4144L58.0071 15.4156Z" fill="white"/>
<path id="Rectangle 197" d="M52.7722 15.4156C52.6758 15.324 52.5479 15.2729 52.4149 15.2729H50.5466C50.3556 15.2729 50.2007 15.4278 50.2007 15.6189V18.2131C50.2007 18.4042 50.3556 18.559 50.5466 18.559H52.4149C52.5479 18.559 52.6758 18.508 52.7722 18.4164L53.8236 17.4176C54.1107 17.1448 54.1107 16.6872 53.8236 16.4144L52.7722 15.4156Z" fill="white"/>
<path id="Rectangle 198" d="M56.8036 19.4465C56.8952 19.5429 56.9463 19.6709 56.9463 19.8039L56.9463 21.6721C56.9463 21.8632 56.7914 22.018 56.6004 22.018L54.0061 22.018C53.8151 22.018 53.6602 21.8632 53.6602 21.6721L53.6602 19.8039C53.6602 19.6709 53.7113 19.5429 53.8029 19.4465L54.8017 18.3951C55.0744 18.108 55.5321 18.108 55.8048 18.3951L56.8036 19.4465Z" fill="white"/>
<path id="Rectangle 199" d="M56.8036 14.2124C56.8952 14.116 56.9463 13.9881 56.9463 13.8551L56.9463 11.9868C56.9463 11.7958 56.7914 11.6409 56.6004 11.6409L54.0061 11.6409C53.8151 11.6409 53.6602 11.7958 53.6602 11.9868L53.6602 13.8551C53.6602 13.9881 53.7113 14.116 53.8029 14.2124L54.8017 15.2638C55.0744 15.5509 55.5321 15.5509 55.8048 15.2638L56.8036 14.2124Z" fill="white"/>
<path id="Line 45" d="M62.5938 9.63989H88.7188" stroke="white" stroke-width="2"/>
<path id="Line 46" d="M71.4688 30.9114L79.5 30.9114" stroke="white" stroke-width="2"/>
<g id="Group 193">
<path id="Rectangle 180" d="M51.251 1.73834C51.3705 1.4106 51.6345 1.15726 51.9754 1.08293C52.5837 0.950268 53.6876 0.768311 55.1661 0.768311C56.6446 0.768311 57.7485 0.950268 58.3568 1.08293C58.6977 1.15726 58.9617 1.4106 59.0812 1.73834L59.6901 3.40732H50.6421L51.251 1.73834Z" fill="white"/>
<path id="Rectangle 181" d="M61.5666 8.82801L61.1755 6.63019C60.9176 5.18073 60.1282 3.91796 58.9001 3.52838C57.9745 3.23476 56.7306 2.9751 55.2259 2.9751C53.7213 2.9751 52.4773 3.23476 51.5517 3.52838C50.3236 3.91796 49.5343 5.18073 49.2763 6.63019L48.8853 8.82801" stroke="white" stroke-width="2"/>
<path id="Rectangle 182 (Stroke)" d="M60.0509 31.6262L55.3679 38.849C54.5239 40.1508 53.284 41.1469 51.831 41.6906C46.6055 43.646 41.2256 39.2037 42.1571 33.7026L45.0676 16.1062" stroke="white" stroke-width="2"/>
<circle id="Ellipse 88" cx="65.4791" cy="29.4745" r="4.06311" fill="white"/>
<path id="Vector" d="M60.1011 26.3463L60.9671 26.8462L59.6392 25.4593L60.1011 26.3463ZM63.4484 23.5738L62.6633 22.9544L63.7771 24.5182L63.4484 23.5738ZM55.3397 26.5075C50.1907 26.5075 46.0166 22.3334 46.0166 17.1844H44.0166C44.0166 23.438 49.0861 28.5075 55.3397 28.5075V26.5075ZM46.0166 17.1844C46.0166 12.0354 50.1907 7.86133 55.3397 7.86133V5.86133C49.0861 5.86133 44.0166 10.9308 44.0166 17.1844H46.0166ZM55.3397 7.86133C60.4887 7.86133 64.6628 12.0354 64.6628 17.1844H66.6628C66.6628 10.9308 61.5933 5.86133 55.3397 5.86133V7.86133ZM70.7184 29.453C70.7184 32.3379 68.3797 34.6765 65.4949 34.6765V36.6765C69.4843 36.6765 72.7184 33.4424 72.7184 29.453H70.7184ZM65.4949 34.6765C62.61 34.6765 60.2714 32.3379 60.2714 29.453H58.2714C58.2714 33.4424 61.5054 36.6765 65.4949 36.6765V34.6765ZM65.4949 24.2295C68.3797 24.2295 70.7184 26.5681 70.7184 29.453H72.7184C72.7184 25.4636 69.4843 22.2295 65.4949 22.2295V24.2295ZM60.2714 29.453C60.2714 28.5016 60.5248 27.6125 60.9671 26.8462L59.235 25.8463C58.6219 26.9085 58.2714 28.1414 58.2714 29.453H60.2714ZM59.6392 25.4593C58.3538 26.1287 56.8924 26.5075 55.3397 26.5075V28.5075C57.2216 28.5075 58.9991 28.0476 60.5629 27.2332L59.6392 25.4593ZM64.6628 17.1844C64.6628 19.3643 63.9159 21.3669 62.6633 22.9544L64.2334 24.1932C65.7545 22.2656 66.6628 19.8297 66.6628 17.1844H64.6628ZM63.7771 24.5182C64.3138 24.3314 64.8914 24.2295 65.4949 24.2295V22.2295C64.6645 22.2295 63.8648 22.37 63.1197 22.6294L63.7771 24.5182Z" fill="white"/>
</g>
<g id="Group 194">
<path id="Rectangle 180_2" d="M100.015 1.73834C99.8951 1.4106 99.6311 1.15726 99.2902 1.08293C98.6819 0.950268 97.578 0.768311 96.0995 0.768311C94.6211 0.768311 93.5172 0.950268 92.9088 1.08293C92.5679 1.15726 92.3039 1.4106 92.1844 1.73834L91.5755 3.40732H100.624L100.015 1.73834Z" fill="white"/>
<path id="Rectangle 181_2" d="M89.6991 8.82801L90.0901 6.63019C90.3481 5.18073 91.1374 3.91796 92.3655 3.52838C93.2911 3.23476 94.5351 2.9751 96.0397 2.9751C97.5444 2.9751 98.7883 3.23476 99.7139 3.52838C100.942 3.91796 101.731 5.18073 101.989 6.63019L102.38 8.82801" stroke="white" stroke-width="2"/>
<path id="Rectangle 182 (Stroke)_2" d="M91.2147 31.6262L95.8977 38.849C96.7417 40.1508 97.9816 41.1469 99.4346 41.6906C104.66 43.646 110.04 39.2037 109.108 33.7026L106.198 16.1062" stroke="white" stroke-width="2"/>
<circle id="Ellipse 88_2" r="4.06311" transform="matrix(-1 0 0 1 85.7865 29.4745)" fill="white"/>
<path id="Vector_2" d="M91.1646 26.3463L90.2985 26.8462L91.6264 25.4593L91.1646 26.3463ZM87.8173 23.5738L88.6023 22.9544L87.4885 24.5182L87.8173 23.5738ZM95.9259 26.5075C101.075 26.5075 105.249 22.3334 105.249 17.1844H107.249C107.249 23.438 102.18 28.5075 95.9259 28.5075V26.5075ZM105.249 17.1844C105.249 12.0354 101.075 7.86133 95.9259 7.86133V5.86133C102.18 5.86133 107.249 10.9308 107.249 17.1844H105.249ZM95.9259 7.86133C90.7769 7.86133 86.6028 12.0354 86.6028 17.1844H84.6028C84.6028 10.9308 89.6724 5.86133 95.9259 5.86133V7.86133ZM80.5472 29.453C80.5472 32.3379 82.8859 34.6765 85.7707 34.6765V36.6765C81.7813 36.6765 78.5472 33.4424 78.5472 29.453H80.5472ZM85.7707 34.6765C88.6556 34.6765 90.9943 32.3379 90.9943 29.453H92.9943C92.9943 33.4424 89.7602 36.6765 85.7707 36.6765V34.6765ZM85.7707 24.2295C82.8859 24.2295 80.5472 26.5681 80.5472 29.453H78.5472C78.5472 25.4636 81.7813 22.2295 85.7707 22.2295V24.2295ZM90.9943 29.453C90.9943 28.5016 90.7408 27.6125 90.2985 26.8462L92.0306 25.8463C92.6438 26.9085 92.9943 28.1414 92.9943 29.453H90.9943ZM91.6264 25.4593C92.9118 26.1287 94.3732 26.5075 95.9259 26.5075V28.5075C94.044 28.5075 92.2666 28.0476 90.7027 27.2332L91.6264 25.4593ZM86.6028 17.1844C86.6028 19.3643 87.3497 21.3669 88.6023 22.9544L87.0322 24.1932C85.5112 22.2656 84.6028 19.8297 84.6028 17.1844H86.6028ZM87.4885 24.5182C86.9519 24.3314 86.3743 24.2295 85.7707 24.2295V22.2295C86.6011 22.2295 87.4008 22.37 88.146 22.6294L87.4885 24.5182Z" fill="white"/>
</g>
</g>
</g>
</svg>
