<svg xmlns="http://www.w3.org/2000/svg" width="630" height="190" viewBox="0 0 630 190">
  <defs>
    <linearGradient id="a" x1="506.544" x2="506.544" y1="103.469" y2="0" class="paint0_linear_1076" gradientUnits="userSpaceOnUse">
      <stop stop-color="#1BE7F2"/>
      <stop offset=".011" stop-color="#1CE5F1"/>
      <stop offset=".181" stop-color="#2DB8E0"/>
      <stop offset=".352" stop-color="#3A93D2"/>
      <stop offset=".52" stop-color="#4677C8"/>
      <stop offset=".685" stop-color="#4E63C0"/>
      <stop offset=".847" stop-color="#5257BC"/>
      <stop offset="1" stop-color="#5353BA"/>
    </linearGradient>
    <linearGradient id="b" x1="286.154" x2="286.154" y1="103.469" y2="0" class="paint1_linear_1076" gradientUnits="userSpaceOnUse">
      <stop stop-color="#1BE7F2"/>
      <stop offset=".011" stop-color="#1CE5F1"/>
      <stop offset=".181" stop-color="#2DB8E0"/>
      <stop offset=".352" stop-color="#3A93D2"/>
      <stop offset=".52" stop-color="#4677C8"/>
      <stop offset=".685" stop-color="#4E63C0"/>
      <stop offset=".847" stop-color="#5257BC"/>
      <stop offset="1" stop-color="#5353BA"/>
    </linearGradient>
    <linearGradient id="c" x1="93.467" x2="93.467" y1="103.469" y2="0" class="paint2_linear_1076" gradientUnits="userSpaceOnUse">
      <stop stop-color="#1BE7F2"/>
      <stop offset=".011" stop-color="#1CE5F1"/>
      <stop offset=".181" stop-color="#2DB8E0"/>
      <stop offset=".352" stop-color="#3A93D2"/>
      <stop offset=".52" stop-color="#4677C8"/>
      <stop offset=".685" stop-color="#4E63C0"/>
      <stop offset=".847" stop-color="#5257BC"/>
      <stop offset="1" stop-color="#5353BA"/>
    </linearGradient>
  </defs>
  <g class="mainlogo">
    <g class="Group 228">
      <g class="Vector">
        <path fill="#fff" d="M592.596 7.395v40.641h-179.52v55.428H600v-7.392H420.474V55.431H600V0H413.076v7.395h179.52Z"/>
        <path fill="url(#a)" d="M592.596 7.395v40.641h-179.52v55.428H600v-7.392H420.474V55.431H600V0H413.076v7.395h179.52Z"/>
      </g>
      <g class="Vector">
        <path fill="#fff" d="M385.374 0v7.395h-95.349v96.069H186.924v-7.392h95.349V0h103.101Z"/>
        <path fill="url(#b)" d="M385.374 0v7.395h-95.349v96.069H186.924v-7.392h95.349V0h103.101Z"/>
      </g>
      <g class="Vector">
        <path fill="#fff" d="M7.395 103.464V55.431h179.529V0H0v7.275l179.535.12v40.641H0v55.428h7.395Z"/>
        <path fill="url(#c)" d="M7.395 103.464V55.431h179.529V0H0v7.275l179.535.12v40.641H0v55.428h7.395Z"/>
      </g>
    </g>
    <g class="Group 527">
      <path fill="#fff" d="M617.809 97.081c0-1.41.557-2.738 1.557-3.739a5.273 5.273 0 0 1 3.755-1.557 5.27 5.27 0 0 1 3.755 1.557 5.258 5.258 0 0 1 1.558 3.739 5.312 5.312 0 0 1-9.068 3.755 5.27 5.27 0 0 1-1.557-3.755Zm5.312 6.379a6.283 6.283 0 0 0 4.51-1.87 6.407 6.407 0 0 0 1.869-4.509 6.276 6.276 0 0 0-1.869-4.493 6.313 6.313 0 0 0-4.51-1.87c-3.509 0-6.378 2.87-6.378 6.38 0 1.705.656 3.312 1.869 4.509a6.364 6.364 0 0 0 4.509 1.853Z" class="Vector"/>
      <path fill="#fff" d="M624.843 95.475c0 .394-.098.656-.295.804-.229.148-.557.23-.951.23h-1.968v-2.001h2.099c.279 0 .509.033.689.115.295.147.426.442.426.852Zm1.427 4.575a.45.45 0 0 1-.197-.311 1.993 1.993 0 0 1-.065-.541l-.033-.902c-.017-.443-.099-.754-.246-.951-.099-.131-.246-.23-.427-.345.214-.13.41-.311.542-.508.164-.279.262-.64.262-1.082 0-.836-.344-1.427-1.05-1.738a3.512 3.512 0 0 0-1.344-.246h-3.296v7.1h1.23v-2.935h1.935c.344 0 .623.049.77.115.246.13.378.377.394.754l.049 1.131c0 .279.033.459.049.558.033.115.05.197.082.262l.049.082h1.378v-.426l-.082-.017Z" class="Vector"/>
    </g>
    <g class="Group 530">
      <path fill="#fff" d="M0 139.434v36.37h5.685v-32.881h5.259s3.817 0 5.128 1.704c1.114 1.458 1.31 4.079 1.31 5.865 0 1.901-.114 4.833-.753 5.915-.967 1.638-2.556 1.966-4.014 1.966H9.142v3.227h4.997s4.505.18 6.438-1.786c2.376-2.408 2.982-5.652 2.982-9.993 0-3.949-1.425-7.93-4.358-9.273-2.425-1.114-6.783-1.114-6.783-1.114H0ZM33.651 139.434h-5.669v36.37h5.669v-36.37ZM63.878 147.922l10.387 27.229-5.964 14.597h4.702l17.17-41.826h-5.26l-7.47 20.381-6.963-20.381h-6.602ZM94.448 175.592v-3.44s5.997.229 7.258.229c2.769 0 4.161-.59 5.194-1.704.622-.672 1.163-3.637 1.163-4.685 0-1.049-.197-3.326-.623-4.26-.426-.917-1.392-1.769-2.85-1.884-1.033-.082-2.638-.295-4.506-.377-2.621-.131-4.358-1.491-5.193-2.474-.836-.983-1.934-2.474-1.934-6.995 0-4.539 1.18-7.094 2.36-8.274 1.18-1.179 2.9-1.704 4.227-1.949 1.523-.263 4.013-.279 4.013-.279l7.946.229v3.441s-5.799-.23-7.045-.23c-2.768 0-3.604.59-4.636 1.704-.606.656-1.098 2.491-1.098 3.555 0 1.065.131 3.195.541 4.113.41.917 1.376 1.769 2.834 1.9 1.032.082 2.638.295 4.506.377 2.637.131 4.358 1.491 5.193 2.474.836.983 1.95 3.063 1.95 7.602 0 4.538-1.18 7.782-2.359 8.961-1.18 1.18-2.9 1.704-4.227 1.933-1.524.262-4.014.279-4.014.279l-8.7-.246ZM125.429 142.926h-5.668v26.704s.131 2.441.278 3.293c.148.852 1.393 2.884 4.637 2.884l5.881-.115v-3.424s-1.589.115-2.556.115c-.966 0-2.162-.066-2.359-1.704-.213-1.638-.213-3.604-.213-3.604v-15.728h6.406v-3.424h-6.406v-4.997ZM185.883 147.922h-5.669v27.884h5.669v-27.884ZM185.883 139.434h-5.669v5.062h5.669v-5.062ZM199.94 153.033c-.787.967-1.737 2.982-1.737 8.831 0 5.848.95 7.88 1.737 8.83.77.95 2.211 1.589 4.063 1.589 1.867 0 3.293-.639 4.079-1.589.77-.95 1.737-2.982 1.737-8.83 0-5.849-.951-7.881-1.737-8.831-.786-.95-2.212-1.589-4.079-1.589-1.852 0-3.293.639-4.063 1.589Zm3.882-5.357c3.867 0 6.865.868 8.47 2.162 1.622 1.311 3.621 4.063 3.621 12.026 0 7.962-1.999 10.714-3.621 12.025-1.605 1.294-4.603 2.162-8.47 2.162-3.866 0-6.848-.868-8.47-2.162-1.622-1.311-3.604-4.063-3.604-12.025 0-7.963 1.982-10.715 3.604-12.026 1.622-1.294 4.604-2.162 8.47-2.162ZM227.676 151.837l5.571-.229c1.458 0 3.178.393 3.997 1.442.77.999 1.262 2.179 1.262 4.079v18.644h5.685V156.67c0-3.62-1.115-5.717-2.786-7.028-2.375-1.884-6.651-1.704-6.651-1.704l-12.713.23v27.622h5.635v-23.953ZM168.91 142.926h-5.685v26.704s.131 2.441.262 3.293c.148.852 1.376 2.884 4.653 2.884l5.882-.115v-3.424s-1.59.115-2.556.115c-.967 0-2.146-.066-2.359-1.704-.197-1.638-.197-3.604-.197-3.604v-15.728h6.389v-3.424h-6.389v-4.997ZM55.21 157.126c0-1.9-.49-3.096-1.26-4.079-.836-1.049-2.54-1.442-3.998-1.442l-7.487.229v-3.686l9.01-.229s4.26-.181 6.652 1.704c1.671 1.327 2.769 3.424 2.769 7.028v18.841l-10.879.229s-4.93.016-7.405-.983c-2.424-.983-3.735-3.686-3.735-7.438 0-3.621 1.114-5.718 2.769-7.045 2.375-1.884 6.651-1.704 6.651-1.704h3.474v3.211h-1.95c-1.458 0-2.965.263-3.801 1.328-.77.983-1.196 1.834-1.196 3.751 0 2.507.492 3.621 1.671 4.473 1.049.753 2.9.917 4.98.917l3.752-.229v-14.876M150.938 157.126c0-1.9-.475-3.096-1.261-4.079-.836-1.049-2.556-1.442-3.998-1.442l-7.487.229v-3.686l9.011-.229s4.259-.181 6.635 1.704c1.671 1.327 2.769 3.424 2.769 7.028v18.841l-10.879.229s-4.931.016-7.405-.983c-2.425-.983-3.752-3.686-3.752-7.438 0-3.621 1.114-5.718 2.769-7.045 2.376-1.884 6.652-1.704 6.652-1.704h3.473v3.211h-1.95c-1.458 0-2.965.263-3.784 1.328-.787.983-1.196 1.834-1.196 3.751 0 2.507.491 3.621 1.671 4.473 1.032.753 2.916.917 4.997.917l3.735-.229v-14.876ZM249.875 170.498c0-1.228.492-2.391 1.36-3.26a4.602 4.602 0 0 1 3.26-1.36c1.229 0 2.392.492 3.261 1.36a4.603 4.603 0 0 1 1.359 3.26c0 2.54-2.064 4.62-4.62 4.62-1.228 0-2.375-.491-3.26-1.359a4.535 4.535 0 0 1-1.36-3.261Zm4.604 5.538a5.504 5.504 0 0 0 3.916-1.622 5.503 5.503 0 0 0 1.621-3.916 5.503 5.503 0 0 0-1.621-3.915 5.504 5.504 0 0 0-3.916-1.622c-3.047 0-5.538 2.49-5.538 5.537 0 1.475.574 2.868 1.622 3.916a5.502 5.502 0 0 0 3.916 1.622Z" class="Vector"/>
      <path fill="#fff" d="M255.986 169.087c0 .344-.082.574-.262.705-.196.131-.475.196-.819.196h-1.72v-1.753h1.818c.246 0 .443.033.59.099.262.147.393.393.393.753Zm1.229 3.981c-.082-.032-.147-.131-.18-.262a1.606 1.606 0 0 1-.049-.458l-.033-.803c-.016-.377-.098-.639-.229-.819-.082-.115-.213-.213-.361-.312.18-.114.344-.262.459-.458.147-.246.246-.557.246-.951 0-.737-.312-1.245-.902-1.507-.311-.147-.704-.213-1.163-.213h-2.867v6.177h1.065v-2.523h1.688c.311 0 .54.032.655.082.213.114.344.327.344.655l.049.983c.017.246.033.393.049.475.033.098.049.164.082.229l.049.082h1.196v-.36l-.098-.017ZM295.109 144.136c.082 4.194-.131 6.406-1.54 8.503-1.245 1.835-3.702 3.539-9.125 3.539l-6.734-.213c-1.065.016-3.817.327-5.128 1.736-1.13 1.196-1.196 2.097-1.327 5.308v9.404h22.92v4.62h-25.049l-1.196-.016c-1.704 0-3.375-1.163-3.375-3.473v-7.012c.114-8.208.704-9.388 2.49-11.534 1.229-1.475 4.128-3.146 7.651-3.326.688-.033 1.999-.131 3.817-.065 1.344.049 2.671.082 3.26.082 3.113.032 4.26-.541 5.112-1.655.967-1.262 1.491-2.753 1.491-5.177 0-2.278-.459-4.44-1.327-5.423-1.065-1.147-2.065-1.917-4.997-1.933-7.405-.017-16.056.164-16.056.164v-4.342s8.454-.36 17.088-.492c5.374-.081 8.323 1.344 9.83 3.294 1.556 2.064 2.13 3.997 2.195 8.011Z" class="Vector"/>
    </g>
  </g>
</svg>
