<svg width="601" height="190" viewBox="0 0 601 190" fill="none" xmlns="http://www.w3.org/2000/svg">
<path d="M0.351074 139.422V175.818H6.03308V142.917H11.2951C11.2951 142.917 15.1111 142.899 16.4221 144.615C17.5291 146.07 17.7301 148.698 17.7301 150.477C17.7301 152.385 17.6161 155.319 16.9711 156.399C16.0051 158.04 14.4211 158.367 12.9601 158.367H9.48907V161.592H14.4751C14.4751 161.592 18.9781 161.79 20.9221 159.819C23.2951 157.395 23.8951 154.158 23.8951 149.82C23.8951 145.866 22.4671 141.888 19.5391 140.547C17.1181 139.422 12.7501 139.422 12.7501 139.422H0.351074Z" fill="white"/>
<path d="M28.3564 175.818H34.0504V139.422H28.3564V175.818Z" fill="white"/>
<path d="M64.2485 147.9L74.6435 175.146L68.6795 189.75H73.3925L90.5675 147.9H85.3085L77.8235 168.3L70.8575 147.9H64.2485Z" fill="white"/>
<path d="M94.8484 175.581V172.149C94.8484 172.149 100.854 172.383 102.102 172.383C104.877 172.383 106.257 171.789 107.295 170.682C107.913 170.019 108.471 167.043 108.471 165.99C108.471 164.922 108.273 162.642 107.859 161.715C107.433 160.797 106.467 159.942 105.009 159.825C103.98 159.729 102.372 159.531 100.509 159.441C97.8874 159.321 96.1534 157.944 95.3134 156.969C94.4914 155.976 93.3784 154.512 93.3784 149.952C93.3784 145.416 94.5544 142.878 95.7274 141.69C96.9124 140.505 98.6404 139.986 99.9604 139.755C101.475 139.488 103.971 139.47 103.971 139.47L111.927 139.707V143.142C111.927 143.142 106.122 142.917 104.877 142.917C102.102 142.917 101.271 143.502 100.23 144.615C99.6244 145.287 99.1444 147.117 99.1444 148.179C99.1444 149.226 99.2674 151.356 99.6784 152.274C100.095 153.201 101.067 154.047 102.516 154.179C103.545 154.254 105.156 154.464 107.019 154.557C109.653 154.686 111.384 156.045 112.212 157.035C113.043 158.025 114.156 160.104 114.156 164.643C114.156 169.182 112.974 172.425 111.798 173.595C110.622 174.792 108.897 175.314 107.574 175.542C106.05 175.818 103.554 175.818 103.554 175.818L94.8484 175.581Z" fill="white"/>
<path d="M125.832 142.917H120.156V169.617C120.156 169.617 120.294 172.053 120.429 172.902C120.573 173.763 121.821 175.812 125.073 175.812L130.959 175.686V172.26C130.959 172.26 129.357 172.38 128.4 172.38C127.425 172.38 126.24 172.308 126.039 170.655C125.829 169.023 125.829 167.049 125.829 167.049V151.326H132.24V147.9H125.829L125.832 142.917Z" fill="white"/>
<path d="M180.627 175.818H186.309V147.9H180.627V175.818Z" fill="white"/>
<path d="M180.627 144.489H186.309V139.422H180.627V144.489Z" fill="white"/>
<path d="M204.256 147.669C208.12 147.669 211.117 148.539 212.728 149.841C214.351 151.149 216.346 153.894 216.346 161.856C216.346 169.821 214.351 172.56 212.728 173.883C211.117 175.185 208.12 176.052 204.256 176.052C200.383 176.052 197.395 175.185 195.778 173.883C194.161 172.56 192.166 169.821 192.166 161.856C192.166 153.897 194.161 151.152 195.778 149.841C197.395 148.542 200.383 147.669 204.256 147.669ZM200.371 153.024C199.585 153.981 198.637 156.012 198.637 161.856C198.637 167.718 199.585 169.731 200.371 170.688C201.142 171.642 202.573 172.29 204.433 172.29C206.299 172.29 207.724 171.645 208.516 170.688C209.29 169.734 210.247 167.718 210.247 161.856C210.247 156.012 209.293 153.984 208.516 153.024C207.724 152.07 206.296 151.434 204.433 151.434C202.573 151.434 201.139 152.07 200.371 153.024Z" fill="white"/>
<path d="M228.114 151.833L233.676 151.593C235.14 151.593 236.847 151.989 237.675 153.036C238.455 154.032 238.941 155.211 238.941 157.119V175.773H244.626V156.654C244.626 153.036 243.516 150.942 241.845 149.622C239.46 147.729 235.2 147.897 235.2 147.897L222.468 148.14V175.77H228.114V151.833Z" fill="white"/>
<path d="M169.338 142.917H163.65V169.617C163.65 169.617 163.785 172.053 163.926 172.902C164.064 173.763 165.303 175.812 168.561 175.812L174.453 175.686V172.26C174.453 172.26 172.854 172.38 171.888 172.38C170.928 172.38 169.74 172.308 169.533 170.655C169.335 169.023 169.335 167.049 169.335 167.049V151.326H175.728V147.9H169.335V142.917H169.338Z" fill="white"/>
<path d="M55.5904 157.122C55.5904 155.214 55.1014 154.035 54.3244 153.039C53.4934 151.992 51.7774 151.599 50.3194 151.599L42.8284 151.836V148.146L51.8494 147.903C51.8494 147.903 56.1125 147.735 58.4975 149.628C60.1565 150.945 61.2724 153.042 61.2724 156.66V175.512L50.3855 175.746C50.3855 175.746 45.4504 175.77 42.9754 174.756C40.5514 173.772 39.2314 171.069 39.2314 167.325C39.2314 163.71 40.3444 161.598 42.0064 160.278C44.3944 158.391 48.6485 158.574 48.6485 158.574H52.1284V161.799H50.1754C48.7204 161.799 47.2175 162.069 46.3895 163.107C45.6035 164.106 45.1895 164.958 45.1895 166.866C45.1895 169.365 45.6754 170.487 46.8514 171.339C47.8894 172.095 49.7524 172.26 51.8374 172.26L55.5904 172.026V157.122Z" fill="white"/>
<path d="M151.347 157.122C151.347 155.214 150.87 154.035 150.09 153.039C149.253 151.992 147.543 151.599 146.088 151.599L138.603 151.836V148.146L147.606 147.903C147.606 147.903 151.872 147.735 154.257 149.628C155.919 150.945 157.023 153.042 157.023 156.66V175.512L146.151 175.746C146.151 175.746 141.216 175.77 138.729 174.756C136.317 173.772 134.991 171.069 134.991 167.325C134.991 163.71 136.11 161.598 137.763 160.278C140.151 158.391 144.417 158.574 144.417 158.574H147.885V161.799H145.935C144.489 161.799 142.971 162.069 142.146 163.107C141.369 164.106 140.946 164.958 140.946 166.866C140.946 169.365 141.444 170.487 142.608 171.339C143.646 172.095 145.518 172.26 147.597 172.26L151.347 172.026V157.122Z" fill="white"/>
<path d="M295.569 144.129C295.641 148.323 295.437 150.531 294.027 152.628C292.785 154.473 290.325 156.153 284.889 156.153L278.145 155.955C277.077 155.973 274.326 156.285 273.021 157.68C271.905 158.886 271.818 159.789 271.704 162.999V172.416H294.627V177.027H269.568L268.365 177.018C266.661 177.018 264.987 175.863 264.987 173.55V166.527C265.107 158.322 265.695 157.146 267.477 154.995C268.713 153.507 271.617 151.842 275.139 151.665C275.832 151.635 277.134 151.545 278.964 151.596C280.296 151.656 281.628 151.692 282.213 151.704C285.336 151.734 286.473 151.158 287.328 150.042C288.303 148.782 288.828 147.294 288.828 144.858C288.828 142.578 288.36 140.427 287.49 139.428C286.437 138.273 285.429 137.499 282.498 137.499C275.082 137.481 266.43 137.676 266.43 137.676V133.32C266.43 133.32 274.887 132.96 283.512 132.834C288.882 132.741 291.843 134.169 293.349 136.134C294.939 138.18 295.497 140.115 295.569 144.129Z" fill="white"/>
<path d="M592.947 7.395V48.036H413.427V103.464H600.351V96.072H420.825V55.431H600.351V0H413.427V7.395H592.947Z" fill="white"/>
<path d="M385.725 0V7.395H290.376V103.464H187.275V96.072H282.624V0H385.725Z" fill="white"/>
<path d="M7.74607 103.464V55.431H187.275V0H0.351074V7.275L179.886 7.395V48.036H0.351074V103.464H7.74607Z" fill="white"/>
</svg>
