<svg width="630" height="190" viewBox="0 0 630 190" fill="none" xmlns="http://www.w3.org/2000/svg">
<path d="M592.596 7.395V48.036H413.076V103.464H600V96.072H420.474V55.431H600V0H413.076V7.395H592.596Z" fill="white"/>
<path d="M385.374 0V7.395H290.025V103.464H186.924V96.072H282.273V0H385.374Z" fill="white"/>
<path d="M7.395 103.464V55.431H186.924V0H0V7.275L179.535 7.395V48.036H0V103.464H7.395Z" fill="white"/>
<path d="M617.809 97.081C617.809 95.6708 618.366 94.3426 619.366 93.3424C620.367 92.3421 621.695 91.7846 623.121 91.7846C624.548 91.7846 625.876 92.3421 626.876 93.3424C627.877 94.3426 628.434 95.6708 628.434 97.081C628.434 100.016 626.056 102.394 623.121 102.394C621.711 102.394 620.367 101.836 619.366 100.836C618.366 99.8358 617.809 98.5076 617.809 97.081ZM623.121 103.46C624.827 103.46 626.434 102.804 627.631 101.59C628.828 100.377 629.5 98.7699 629.5 97.081C629.5 95.392 628.844 93.7851 627.631 92.5881C626.434 91.3747 624.81 90.7188 623.121 90.7188C619.612 90.7188 616.743 93.5883 616.743 97.0974C616.743 98.8027 617.399 100.41 618.612 101.607C619.825 102.804 621.416 103.46 623.121 103.46Z" fill="white"/>
<path d="M624.843 95.4755C624.843 95.869 624.745 96.1314 624.548 96.279C624.319 96.4265 623.991 96.5085 623.597 96.5085H621.629V94.508H623.728C624.007 94.508 624.237 94.5408 624.417 94.6228C624.712 94.7704 624.843 95.0655 624.843 95.4755ZM626.27 100.05C626.188 100.001 626.106 99.9028 626.073 99.7388C626.04 99.624 626.008 99.4437 626.008 99.1977L625.975 98.2958C625.958 97.8531 625.876 97.5416 625.729 97.3448C625.63 97.2136 625.483 97.1152 625.302 97.0004C625.516 96.8693 625.712 96.6889 625.844 96.4921C626.008 96.2134 626.106 95.8526 626.106 95.4099C626.106 94.5736 625.762 93.9833 625.056 93.6717C624.696 93.5242 624.253 93.4258 623.712 93.4258H620.416V100.526H621.646V97.5908H623.581C623.925 97.5908 624.204 97.6399 624.351 97.7055C624.597 97.8367 624.729 98.0827 624.745 98.4598L624.794 99.5912C624.794 99.87 624.827 100.05 624.843 100.149C624.876 100.264 624.893 100.346 624.925 100.411L624.974 100.493H626.352V100.067L626.27 100.05Z" fill="white"/>
<path d="M0 139.434V175.804H5.68494V142.923H10.9439C10.9439 142.923 14.7612 142.923 16.0718 144.627C17.1859 146.085 17.3825 148.706 17.3825 150.492C17.3825 152.393 17.2678 155.325 16.6289 156.407C15.6623 158.045 14.0731 158.373 12.615 158.373H9.14179V161.6H14.1386C14.1386 161.6 18.644 161.78 20.5772 159.814C22.9528 157.406 23.5589 154.162 23.5589 149.821C23.5589 145.872 22.1336 141.891 19.201 140.548C16.7763 139.434 12.4184 139.434 12.4184 139.434H0Z" fill="white"/>
<path d="M33.651 139.434H27.9824V175.804H33.651V139.434Z" fill="white"/>
<path d="M63.8779 147.922L74.2648 175.151L68.3014 189.748H73.0033L90.1729 147.922H84.9139L77.4431 168.303L70.4803 147.922H63.8779Z" fill="white"/>
<path d="M94.4484 175.592V172.152C94.4484 172.152 100.445 172.381 101.706 172.381C104.475 172.381 105.867 171.791 106.9 170.677C107.522 170.005 108.063 167.04 108.063 165.992C108.063 164.943 107.866 162.666 107.44 161.732C107.014 160.815 106.048 159.963 104.59 159.848C103.557 159.766 101.952 159.553 100.084 159.471C97.4629 159.34 95.7263 157.98 94.8907 156.997C94.0552 156.014 92.9575 154.523 92.9575 150.002C92.9575 145.463 94.1371 142.908 95.3167 141.728C96.4963 140.549 98.2165 140.024 99.5435 139.779C101.067 139.516 103.557 139.5 103.557 139.5L111.503 139.729V143.17C111.503 143.17 105.704 142.94 104.458 142.94C101.69 142.94 100.854 143.53 99.822 144.644C99.2159 145.3 98.7244 147.135 98.7244 148.199C98.7244 149.264 98.8554 151.394 99.265 152.312C99.6746 153.229 100.641 154.081 102.099 154.212C103.131 154.294 104.737 154.507 106.605 154.589C109.242 154.72 110.963 156.08 111.798 157.063C112.634 158.046 113.748 160.126 113.748 164.665C113.748 169.203 112.568 172.447 111.389 173.626C110.209 174.806 108.489 175.33 107.162 175.559C105.638 175.821 103.148 175.838 103.148 175.838L94.4484 175.592Z" fill="white"/>
<path d="M125.429 142.926H119.761V169.63C119.761 169.63 119.892 172.071 120.039 172.923C120.187 173.775 121.432 175.807 124.676 175.807L130.557 175.692V172.268C130.557 172.268 128.968 172.383 128.001 172.383C127.035 172.383 125.839 172.317 125.642 170.679C125.429 169.041 125.429 167.075 125.429 167.075V151.347H131.835V147.923H125.429V142.926Z" fill="white"/>
<path d="M185.883 147.922H180.214V175.806H185.883V147.922Z" fill="white"/>
<path d="M185.883 139.434H180.214V144.496H185.883V139.434Z" fill="white"/>
<path d="M199.94 153.033C199.153 154 198.203 156.015 198.203 161.864C198.203 167.712 199.153 169.744 199.94 170.694C200.71 171.644 202.151 172.283 204.003 172.283C205.87 172.283 207.296 171.644 208.082 170.694C208.852 169.744 209.819 167.712 209.819 161.864C209.819 156.015 208.868 153.983 208.082 153.033C207.296 152.083 205.87 151.444 204.003 151.444C202.151 151.444 200.71 152.083 199.94 153.033ZM203.822 147.676C207.689 147.676 210.687 148.544 212.292 149.838C213.914 151.149 215.913 153.901 215.913 161.864C215.913 169.826 213.914 172.578 212.292 173.889C210.687 175.183 207.689 176.051 203.822 176.051C199.956 176.051 196.974 175.183 195.352 173.889C193.73 172.578 191.748 169.826 191.748 161.864C191.748 153.901 193.73 151.149 195.352 149.838C196.974 148.544 199.956 147.676 203.822 147.676Z" fill="white"/>
<path d="M227.676 151.837L233.247 151.608C234.705 151.608 236.425 152.001 237.244 153.05C238.014 154.049 238.506 155.229 238.506 157.129V175.773H244.191V156.67C244.191 153.05 243.076 150.953 241.405 149.642C239.03 147.758 234.754 147.938 234.754 147.938L222.041 148.168V175.79H227.676V151.837Z" fill="white"/>
<path d="M168.91 142.926H163.225V169.63C163.225 169.63 163.356 172.071 163.487 172.923C163.635 173.775 164.863 175.807 168.14 175.807L174.022 175.692V172.268C174.022 172.268 172.432 172.383 171.466 172.383C170.499 172.383 169.32 172.317 169.107 170.679C168.91 169.041 168.91 167.075 168.91 167.075V151.347H175.299V147.923H168.91V142.926Z" fill="white"/>
<path d="M55.2109 157.126C55.2109 155.226 54.7194 154.03 53.9494 153.047C53.1139 151.998 51.4101 151.605 49.952 151.605L42.4649 151.834V148.148L51.4756 147.919C51.4756 147.919 55.7352 147.738 58.1271 149.623C59.7982 150.95 60.8959 153.047 60.8959 156.651V175.492L50.0175 175.721C50.0175 175.721 45.0862 175.737 42.6123 174.738C40.1876 173.755 38.877 171.052 38.877 167.3C38.877 163.679 39.991 161.582 41.6457 160.255C44.0213 158.371 48.2973 158.551 48.2973 158.551H51.7705V161.762H49.8209C48.3628 161.762 46.8556 162.025 46.02 163.09C45.25 164.073 44.824 164.924 44.824 166.841C44.824 169.348 45.3155 170.462 46.4951 171.314C47.5436 172.067 49.3949 172.231 51.4756 172.231L55.2273 172.002V157.126" fill="white"/>
<path d="M150.938 157.126C150.938 155.226 150.463 154.03 149.677 153.047C148.841 151.998 147.121 151.605 145.679 151.605L138.192 151.834V148.148L147.203 147.919C147.203 147.919 151.462 147.738 153.838 149.623C155.509 150.95 156.607 153.047 156.607 156.651V175.492L145.728 175.721C145.728 175.721 140.797 175.737 138.323 174.738C135.898 173.755 134.571 171.052 134.571 167.3C134.571 163.679 135.685 161.582 137.34 160.255C139.716 158.371 143.992 158.551 143.992 158.551H147.465V161.762H145.515C144.057 161.762 142.55 162.025 141.731 163.09C140.944 164.073 140.535 164.924 140.535 166.841C140.535 169.348 141.026 170.462 142.206 171.314C143.238 172.067 145.122 172.231 147.203 172.231L150.938 172.002V157.126Z" fill="white"/>
<path d="M249.875 170.498C249.875 169.27 250.367 168.107 251.235 167.238C252.103 166.37 253.267 165.878 254.495 165.878C255.724 165.878 256.887 166.37 257.756 167.238C258.624 168.107 259.115 169.27 259.115 170.498C259.115 173.038 257.051 175.118 254.495 175.118C253.267 175.118 252.12 174.627 251.235 173.759C250.35 172.89 249.875 171.727 249.875 170.498ZM254.479 176.036C255.953 176.036 257.346 175.463 258.395 174.414C259.443 173.366 260.016 171.973 260.016 170.498C260.016 169.024 259.443 167.631 258.395 166.583C257.346 165.534 255.953 164.961 254.479 164.961C251.432 164.961 248.941 167.451 248.941 170.498C248.941 171.973 249.515 173.366 250.563 174.414C251.612 175.463 253.004 176.036 254.479 176.036Z" fill="white"/>
<path d="M255.986 169.087C255.986 169.431 255.904 169.661 255.724 169.792C255.528 169.923 255.249 169.988 254.905 169.988H253.185V168.235H255.003C255.249 168.235 255.446 168.268 255.593 168.334C255.855 168.481 255.986 168.727 255.986 169.087ZM257.215 173.068C257.133 173.036 257.068 172.937 257.035 172.806C257.002 172.708 256.986 172.544 256.986 172.348L256.953 171.545C256.937 171.168 256.855 170.906 256.724 170.726C256.642 170.611 256.511 170.513 256.363 170.414C256.543 170.3 256.707 170.152 256.822 169.956C256.969 169.71 257.068 169.399 257.068 169.005C257.068 168.268 256.756 167.76 256.166 167.498C255.855 167.351 255.462 167.285 255.003 167.285H252.136V173.462H253.201V170.939H254.889C255.2 170.939 255.429 170.971 255.544 171.021C255.757 171.135 255.888 171.348 255.888 171.676L255.937 172.659C255.954 172.905 255.97 173.052 255.986 173.134C256.019 173.232 256.035 173.298 256.068 173.363L256.117 173.445H257.313V173.085L257.215 173.068Z" fill="white"/>
<path d="M295.109 144.136C295.191 148.33 294.978 150.542 293.569 152.639C292.324 154.474 289.867 156.178 284.444 156.178L277.71 155.965C276.645 155.981 273.893 156.292 272.582 157.701C271.452 158.897 271.386 159.798 271.255 163.009V172.413H294.175V177.033H269.126L267.93 177.017C266.226 177.017 264.555 175.854 264.555 173.544V166.532C264.669 158.324 265.259 157.144 267.045 154.998C268.274 153.523 271.173 151.852 274.696 151.672C275.384 151.639 276.695 151.541 278.513 151.607C279.857 151.656 281.184 151.689 281.773 151.689C284.886 151.721 286.033 151.148 286.885 150.034C287.852 148.772 288.376 147.281 288.376 144.857C288.376 142.579 287.917 140.417 287.049 139.434C285.984 138.287 284.984 137.517 282.052 137.501C274.647 137.484 265.996 137.665 265.996 137.665V133.323C265.996 133.323 274.45 132.963 283.084 132.831C288.458 132.75 291.407 134.175 292.914 136.125C294.47 138.189 295.044 140.122 295.109 144.136Z" fill="white"/>
</svg>
