<svg width="601" height="190" viewBox="0 0 601 190" fill="none" xmlns="http://www.w3.org/2000/svg">
<path d="M0.351074 139.6V175.996H6.03308V143.095H11.2951C11.2951 143.095 15.1111 143.077 16.4221 144.793C17.5291 146.248 17.7301 148.876 17.7301 150.655C17.7301 152.563 17.6161 155.497 16.9711 156.577C16.0051 158.218 14.4211 158.545 12.9601 158.545H9.48907V161.77H14.4751C14.4751 161.77 18.9781 161.968 20.9221 159.997C23.2951 157.573 23.8951 154.336 23.8951 149.998C23.8951 146.044 22.4671 142.066 19.5391 140.725C17.1181 139.6 12.7501 139.6 12.7501 139.6H0.351074Z" fill="white"/>
<path d="M28.3564 175.996H34.0504V139.6H28.3564V175.996Z" fill="white"/>
<path d="M64.2485 148.078L74.6435 175.324L68.6795 189.928H73.3925L90.5675 148.078H85.3085L77.8235 168.478L70.8575 148.078H64.2485Z" fill="white"/>
<path d="M94.8484 175.759V172.327C94.8484 172.327 100.854 172.561 102.102 172.561C104.877 172.561 106.257 171.967 107.295 170.86C107.913 170.197 108.471 167.221 108.471 166.168C108.471 165.1 108.273 162.82 107.859 161.893C107.433 160.975 106.467 160.12 105.009 160.003C103.98 159.907 102.372 159.709 100.509 159.619C97.8874 159.499 96.1534 158.122 95.3134 157.147C94.4914 156.154 93.3784 154.69 93.3784 150.13C93.3784 145.594 94.5544 143.056 95.7274 141.868C96.9124 140.683 98.6404 140.164 99.9604 139.933C101.475 139.666 103.971 139.648 103.971 139.648L111.927 139.885V143.32C111.927 143.32 106.122 143.095 104.877 143.095C102.102 143.095 101.271 143.68 100.23 144.793C99.6244 145.465 99.1444 147.295 99.1444 148.357C99.1444 149.404 99.2674 151.534 99.6784 152.452C100.095 153.379 101.067 154.225 102.516 154.357C103.545 154.432 105.156 154.642 107.019 154.735C109.653 154.864 111.384 156.223 112.212 157.213C113.043 158.203 114.156 160.282 114.156 164.821C114.156 169.36 112.974 172.603 111.798 173.773C110.622 174.97 108.897 175.492 107.574 175.72C106.05 175.996 103.554 175.996 103.554 175.996L94.8484 175.759Z" fill="white"/>
<path d="M125.832 143.095H120.156V169.795C120.156 169.795 120.294 172.231 120.429 173.08C120.573 173.941 121.821 175.99 125.073 175.99L130.959 175.864V172.438C130.959 172.438 129.357 172.558 128.4 172.558C127.425 172.558 126.24 172.486 126.039 170.833C125.829 169.201 125.829 167.227 125.829 167.227V151.504H132.24V148.078H125.829L125.832 143.095Z" fill="white"/>
<path d="M180.627 175.996H186.309V148.078H180.627V175.996Z" fill="white"/>
<path d="M180.627 144.667H186.309V139.6H180.627V144.667Z" fill="white"/>
<path d="M204.256 147.847C208.12 147.847 211.117 148.717 212.728 150.019C214.351 151.327 216.346 154.072 216.346 162.034C216.346 169.999 214.351 172.738 212.728 174.061C211.117 175.363 208.12 176.23 204.256 176.23C200.383 176.23 197.395 175.363 195.778 174.061C194.161 172.738 192.166 169.999 192.166 162.034C192.166 154.075 194.161 151.33 195.778 150.019C197.395 148.72 200.383 147.847 204.256 147.847ZM200.371 153.202C199.585 154.159 198.637 156.19 198.637 162.034C198.637 167.896 199.585 169.909 200.371 170.866C201.142 171.82 202.573 172.468 204.433 172.468C206.299 172.468 207.724 171.823 208.516 170.866C209.29 169.912 210.247 167.896 210.247 162.034C210.247 156.19 209.293 154.162 208.516 153.202C207.724 152.248 206.296 151.612 204.433 151.612C202.573 151.612 201.139 152.248 200.371 153.202Z" fill="white"/>
<path d="M228.114 152.011L233.676 151.771C235.14 151.771 236.847 152.167 237.675 153.214C238.455 154.21 238.941 155.389 238.941 157.297V175.951H244.626V156.832C244.626 153.214 243.516 151.12 241.845 149.8C239.46 147.907 235.2 148.075 235.2 148.075L222.468 148.318V175.948H228.114V152.011Z" fill="white"/>
<path d="M169.338 143.095H163.65V169.795C163.65 169.795 163.785 172.231 163.926 173.08C164.064 173.941 165.303 175.99 168.561 175.99L174.453 175.864V172.438C174.453 172.438 172.854 172.558 171.888 172.558C170.928 172.558 169.74 172.486 169.533 170.833C169.335 169.201 169.335 167.227 169.335 167.227V151.504H175.728V148.078H169.335V143.095H169.338Z" fill="white"/>
<path d="M55.5904 157.3C55.5904 155.392 55.1014 154.213 54.3244 153.217C53.4934 152.17 51.7774 151.777 50.3194 151.777L42.8284 152.014V148.324L51.8494 148.081C51.8494 148.081 56.1125 147.913 58.4975 149.806C60.1565 151.123 61.2724 153.22 61.2724 156.838V175.69L50.3855 175.924C50.3855 175.924 45.4504 175.948 42.9754 174.934C40.5514 173.95 39.2314 171.247 39.2314 167.503C39.2314 163.888 40.3444 161.776 42.0064 160.456C44.3944 158.569 48.6485 158.752 48.6485 158.752H52.1284V161.977H50.1754C48.7204 161.977 47.2175 162.247 46.3895 163.285C45.6035 164.284 45.1895 165.136 45.1895 167.044C45.1895 169.543 45.6754 170.665 46.8514 171.517C47.8894 172.273 49.7524 172.438 51.8374 172.438L55.5904 172.204V157.3Z" fill="white"/>
<path d="M151.347 157.3C151.347 155.392 150.87 154.213 150.09 153.217C149.253 152.17 147.543 151.777 146.088 151.777L138.603 152.014V148.324L147.606 148.081C147.606 148.081 151.872 147.913 154.257 149.806C155.919 151.123 157.023 153.22 157.023 156.838V175.69L146.151 175.924C146.151 175.924 141.216 175.948 138.729 174.934C136.317 173.95 134.991 171.247 134.991 167.503C134.991 163.888 136.11 161.776 137.763 160.456C140.151 158.569 144.417 158.752 144.417 158.752H147.885V161.977H145.935C144.489 161.977 142.971 162.247 142.146 163.285C141.369 164.284 140.946 165.136 140.946 167.044C140.946 169.543 141.444 170.665 142.608 171.517C143.646 172.273 145.518 172.438 147.597 172.438L151.347 172.204V157.3Z" fill="white"/>
<path d="M295.569 144.307C295.641 148.501 295.437 150.709 294.027 152.806C292.785 154.651 290.325 156.331 284.889 156.331L278.145 156.133C277.077 156.151 274.326 156.463 273.021 157.858C271.905 159.064 271.818 159.967 271.704 163.177V172.594H294.627V177.205H269.568L268.365 177.196C266.661 177.196 264.987 176.041 264.987 173.728V166.705C265.107 158.5 265.695 157.324 267.477 155.173C268.713 153.685 271.617 152.02 275.139 151.843C275.832 151.813 277.134 151.723 278.964 151.774C280.296 151.834 281.628 151.87 282.213 151.882C285.336 151.912 286.473 151.336 287.328 150.22C288.303 148.96 288.828 147.472 288.828 145.036C288.828 142.756 288.36 140.605 287.49 139.606C286.437 138.451 285.429 137.677 282.498 137.677C275.082 137.659 266.43 137.854 266.43 137.854V133.498C266.43 133.498 274.887 133.138 283.512 133.012C288.882 132.919 291.843 134.347 293.349 136.312C294.939 138.358 295.497 140.293 295.569 144.307Z" fill="white"/>
<path d="M592.947 7.57334V48.2143H413.427V103.642H600.351V96.2503H420.825V55.6093H600.351V0.178345H413.427V7.57334H592.947Z" fill="white"/>
<path d="M385.725 0.178345V7.57334H290.376V103.642H187.275V96.2503H282.624V0.178345H385.725Z" fill="white"/>
<path d="M7.74607 103.642V55.6093H187.275V0.178345H0.351074V7.45334L179.886 7.57334V48.2143H0.351074V103.642H7.74607Z" fill="white"/>
</svg>
