<svg width="565" height="121" viewBox="0 0 565 121" fill="none" xmlns="http://www.w3.org/2000/svg">
<path d="M99.7341 15.3883C100.038 15.6586 100.342 15.9292 100.646 16.2001C100.802 16.3382 100.958 16.4763 101.119 16.6185C102.948 18.2393 104.684 19.8872 106.231 21.7851C106.496 22.0982 106.76 22.4113 107.025 22.7244C113.865 30.9195 118.418 41.2315 120.046 51.7676C120.106 52.1166 120.167 52.4656 120.229 52.8252C122.467 67.5061 118.372 83.6329 109.65 95.6141C106.232 100.199 102.514 104.377 98.0003 107.911C97.718 108.133 97.4357 108.355 97.1448 108.583C84.1795 118.542 68.2053 122.465 52.0574 120.358C36.7987 118.183 22.5118 110.048 13.0865 97.7702C10.2887 94.0321 7.96921 90.0927 5.99509 85.8654C5.84163 85.541 5.68817 85.2167 5.53006 84.8825C3.57518 80.5498 2.06942 75.8603 1.29195 71.1681C1.23208 70.8282 1.17221 70.4883 1.11053 70.1381C0.221346 64.1026 0.321828 57.4937 1.29195 51.4737C1.33204 51.2083 1.37214 50.943 1.41345 50.6696C3.78827 35.5278 12.54 21.7567 24.8076 12.6728C25.0509 12.4898 25.2942 12.3068 25.5448 12.1182C47.6445 -3.95088 79.1719 -2.63686 99.7341 15.3883Z" fill="#020200"/>
<path d="M99.7341 15.3883C100.038 15.6586 100.342 15.9292 100.646 16.2001C100.802 16.3382 100.958 16.4763 101.119 16.6185C102.948 18.2393 104.684 19.8872 106.231 21.7851C106.496 22.0982 106.76 22.4113 107.025 22.7244C113.865 30.9195 118.418 41.2315 120.046 51.7676C120.106 52.1166 120.167 52.4656 120.229 52.8252C122.467 67.5061 118.372 83.6329 109.65 95.6141C106.232 100.199 102.514 104.377 98.0003 107.911C97.718 108.133 97.4357 108.355 97.1448 108.583C84.1795 118.542 68.2053 122.465 52.0574 120.358C36.7987 118.183 22.5118 110.048 13.0865 97.7702C10.2887 94.0321 7.96921 90.0927 5.99509 85.8654C5.84163 85.541 5.68817 85.2167 5.53006 84.8825C3.57518 80.5498 2.06942 75.8603 1.29195 71.1681C1.23208 70.8282 1.17221 70.4883 1.11053 70.1381C0.221346 64.1026 0.321828 57.4937 1.29195 51.4737C1.33204 51.2083 1.37214 50.943 1.41345 50.6696C3.78827 35.5278 12.54 21.7567 24.8076 12.6728C25.0509 12.4898 25.2942 12.3068 25.5448 12.1182C47.6445 -3.95088 79.1719 -2.63686 99.7341 15.3883ZM23.9258 20.6093C23.912 27.7818 23.9017 34.9543 23.8953 42.1269C23.8923 45.4575 23.8882 48.7881 23.8815 52.1187C23.8756 55.023 23.8718 57.9273 23.8705 60.8316C23.8697 62.3682 23.8679 63.9048 23.8637 65.4414C23.8596 66.8904 23.8584 68.3394 23.8593 69.7885C23.8591 70.3176 23.858 70.8468 23.8557 71.376C23.8383 75.6569 24.2067 79.6401 25.4323 83.771C25.5217 84.0743 25.6111 84.3775 25.7033 84.6899C26.5073 87.3104 27.5767 89.6582 28.9229 92.0383C29.082 92.3369 29.2412 92.6354 29.4051 92.9431C32.3894 98.3611 36.6198 103.317 41.5626 107.03C41.8593 107.261 42.156 107.492 42.4616 107.73C48.2919 112.17 55.2596 115.489 62.7267 114.966C71.0114 113.578 77.9188 108.906 83.8908 103.208C84.1239 102.991 84.3569 102.773 84.597 102.549C92.1586 95.2932 97.2028 84.3095 97.4385 73.8281C97.4522 72.4289 97.4488 71.0297 97.4457 69.6304C97.4457 69.0942 97.4457 68.5579 97.4459 68.0217C97.4459 66.5747 97.4442 65.1276 97.4422 63.6806C97.4403 62.1652 97.4402 60.6497 97.4398 59.1342C97.4389 56.2683 97.4365 53.4025 97.4335 50.5366C97.4302 47.2722 97.4286 44.0079 97.4272 40.7436C97.4241 34.0321 97.4189 27.3207 97.4124 20.6093C95.0777 20.3313 93.795 20.6989 91.8926 22.0454C86.838 25.5742 81.6385 25.3353 75.6927 25.2774C74.2598 25.2668 72.827 25.2767 71.394 25.2831C68.9903 25.2905 66.587 25.2808 64.1833 25.2611C61.424 25.2387 58.6659 25.246 55.9066 25.2686C53.5158 25.2874 51.1253 25.2899 48.7344 25.2792C47.3159 25.2728 45.898 25.2717 44.4795 25.2855C38.3342 25.3374 33.7028 25.2958 28.5984 21.4903C27.0759 20.3995 25.745 20.3945 23.9258 20.6093Z" fill="#FDE400"/>
<path d="M51.3177 29.1709C54.1579 30.9305 56.2162 33.2243 57.7294 36.1888C57.901 36.5202 57.901 36.5202 58.0761 36.8582C59.9651 40.7809 59.8689 45.0044 58.6112 49.1225C57.644 51.7409 56.1943 53.9271 54.202 55.8832C54.4445 56.1379 54.687 56.3925 54.9369 56.6548C57.3122 59.442 59.3057 63.0197 59.1991 66.7592C59.9751 66.7592 60.7511 66.7592 61.5507 66.7592C61.5658 66.5592 61.581 66.3591 61.5966 66.153C62.0348 62.4085 63.8027 58.7849 66.5477 56.1772C66.4409 56.0415 66.334 55.9059 66.2239 55.7661C62.7274 51.2295 61.1813 46.9124 61.5507 41.1859C62.2178 36.574 64.7097 32.7616 68.3975 29.9631C72.6437 27.1079 77.3482 26.3716 82.3623 27.2786C87.038 28.6225 90.4257 31.2122 93.0029 35.307C95.8081 40.463 95.6217 46.2358 94.0581 51.7723C92.6654 56.4599 90.3871 60.7678 87.124 64.4077C86.887 64.7072 86.887 64.7072 86.6452 65.0128C83.3039 69.1747 78.2215 71.9757 73.3085 73.8139C73.0421 73.9193 72.7758 74.0246 72.5013 74.1331C63.9931 77.2721 53.4409 76.6292 45.1914 73.0054C36.6635 69.0573 30.4872 61.9783 27.2324 53.201C26.1807 50.2772 25.8823 47.5321 25.8913 44.4377C25.8866 44.1135 25.8818 43.7894 25.877 43.4554C25.8742 38.8539 27.4174 35.1993 30.5841 31.8635C32.5604 29.9398 34.5815 28.6668 37.1531 27.6644C37.4093 27.5564 37.6654 27.4484 37.9293 27.3371C42.431 26.1489 47.2929 27.0213 51.3177 29.1709Z" fill="#FCE300"/>
<path d="M99.7341 15.3883C100.038 15.6586 100.342 15.9292 100.646 16.2001C100.802 16.3382 100.958 16.4763 101.119 16.6185C102.948 18.2393 104.684 19.8872 106.231 21.7851C106.496 22.0982 106.76 22.4113 107.025 22.7244C113.865 30.9195 118.418 41.2315 120.046 51.7676C120.106 52.1166 120.167 52.4656 120.229 52.8252C122.467 67.5061 118.372 83.6329 109.65 95.6141C106.232 100.199 102.514 104.377 98.0003 107.911C97.718 108.133 97.4357 108.355 97.1448 108.583C84.1795 118.542 68.2053 122.465 52.0574 120.358C36.7987 118.183 22.5118 110.048 13.0865 97.7702C10.2887 94.0321 7.96921 90.0927 5.99509 85.8654C5.84163 85.541 5.68817 85.2167 5.53006 84.8825C3.57518 80.5498 2.06942 75.8603 1.29195 71.1681C1.23208 70.8282 1.17221 70.4883 1.11053 70.1381C0.221346 64.1026 0.321828 57.4937 1.29195 51.4737C1.33204 51.2083 1.37214 50.943 1.41345 50.6696C3.78827 35.5278 12.54 21.7567 24.8076 12.6728C25.0509 12.4898 25.2942 12.3068 25.5448 12.1182C47.6445 -3.95088 79.1719 -2.63686 99.7341 15.3883ZM16.5772 23.5488C15.5042 24.7547 14.5489 26.0389 13.6377 27.3701C13.5015 27.5679 13.3653 27.7658 13.225 27.9696C8.85894 34.3973 5.89237 41.2573 4.23141 48.8282C4.17116 49.0722 4.11092 49.3162 4.04884 49.5676C3.893 50.2007 3.76315 50.8328 3.64352 51.4737C3.58896 51.7617 3.53439 52.0496 3.47818 52.3463C2.16548 60.733 2.93062 69.549 5.4072 77.6349C5.46882 77.8387 5.53044 78.0425 5.59393 78.2525C7.26293 83.6501 9.7761 88.9025 13.0498 93.508C13.376 93.9678 13.376 93.9678 13.7089 94.4369C14.9568 96.1448 16.285 97.7449 17.7196 99.2985C18.2809 99.9095 18.817 100.535 19.3513 101.169C28.339 111.432 42.8569 117.488 56.2599 118.493C62.1981 118.785 68.1041 118.379 73.8967 117.024C74.2843 116.934 74.2843 116.934 74.6798 116.843C79.0437 115.742 83.2478 114.13 87.2089 112.002C87.6655 111.758 88.1261 111.521 88.5871 111.285C93.0478 108.958 96.9862 105.751 100.646 102.326C101.059 101.942 101.059 101.942 101.481 101.55C108.957 94.4365 113.916 84.8865 116.519 74.9894C116.572 74.7901 116.625 74.5908 116.679 74.3854C116.957 73.3189 117.187 72.2489 117.401 71.1681C117.48 70.7773 117.48 70.7773 117.561 70.3786C118.057 67.5988 118.078 64.8589 118.065 62.0422C118.062 61.2335 118.065 60.425 118.069 59.6163C118.082 44.3033 111.464 30.3523 100.829 19.5254C98.9434 17.6506 96.9154 16.0001 94.7668 14.4365C94.6012 14.315 94.4356 14.1936 94.2649 14.0685C71.7968 -2.19464 40.6496 0.351846 16.5772 23.5488Z" fill="#080804"/>
<path d="M50.0684 34.2232C52.199 35.9664 54.0052 38.4231 54.496 41.1861C54.7919 45.1385 54.4489 48.4582 51.777 51.6028C49.0566 54.3772 46.3615 55.6612 42.4993 55.7364C39.0002 55.7152 36.5006 54.6274 33.976 52.1757C31.3147 49.2772 30.4151 46.2577 30.5658 42.3538C30.8866 39.2459 32.4895 36.5893 34.7752 34.4999C39.3667 30.8395 45.3232 30.8338 50.0684 34.2232Z" fill="#030300"/>
<path d="M85.2017 33.8634C87.4349 35.5434 89.1905 37.6325 89.9554 40.3853C90.4926 44.3689 90.2575 47.4921 88.0057 50.8858C87.8651 51.0996 87.7245 51.3133 87.5797 51.5334C85.995 53.6221 83.2233 55.1394 80.657 55.589C76.5098 55.8984 73.3377 55.3795 70.075 52.6495C67.7742 50.5323 66.4481 47.795 66.1733 44.6854C66.07 41.2195 66.9281 38.2783 69.1874 35.6006C73.5718 31.2587 80.0455 30.3267 85.2017 33.8634Z" fill="#030300"/>
<path d="M81.0801 37.1441C83.0856 38.1293 84.0855 39.3266 85.1402 41.2777C85.7898 43.6054 85.3211 45.8398 84.1849 47.9466C82.8764 49.5077 81.2087 50.6714 79.1625 50.978C77.1025 51.0936 75.152 50.5417 73.5787 49.181C71.8973 47.358 71.0803 45.5885 71.1674 43.0931C71.3864 41.1827 72.1503 39.5388 73.6028 38.2464C75.8428 36.5032 78.398 36.2332 81.0801 37.1441Z" fill="#F7DF00"/>
<path d="M46.2547 37.5395C47.6484 38.5008 48.8851 39.8897 49.4996 41.4803C49.8155 44.1212 49.6056 46.348 48.0298 48.535C46.7922 49.9782 45.1219 50.7104 43.2693 50.9807C41.1481 51.0916 39.4446 50.3825 37.8152 49.0494C37.5969 48.7826 37.3787 48.5159 37.1538 48.241C36.9486 48.0023 36.9486 48.0023 36.7393 47.7588C35.4092 45.9951 35.4378 44.2058 35.6841 42.0681C36.094 40.2236 37.3621 38.6888 38.8429 37.5625C41.1061 36.2262 43.9498 36.3661 46.2547 37.5395Z" fill="#F6DE00"/>
<path d="M80.0694 39.1276C81.4146 39.9038 82.4255 40.9097 83.0088 42.361C83.2656 43.7987 83.1265 45.0001 82.4026 46.2741C81.4864 47.5634 80.4987 48.3413 78.8993 48.6441C77.3152 48.7421 76.3515 48.2683 75.0723 47.3581C73.7695 45.9181 73.4963 45.0319 73.521 43.1269C73.6859 41.5775 74.4017 40.6706 75.5132 39.5869C77.0448 38.9031 78.423 38.8022 80.0694 39.1276Z" fill="#050400"/>
<path d="M44.8882 39.4575C45.8541 40.1313 46.6555 40.6907 47.1479 41.7723C47.4202 43.6681 47.4088 45.1821 46.2661 46.7694C45.188 47.8812 44.215 48.4882 42.6469 48.6066C41.2823 48.5141 40.3513 48.2093 39.3733 47.2207C38.0913 45.7183 37.9314 44.8102 37.9541 42.8781C38.1082 41.3433 38.8821 40.6006 39.983 39.6045C41.6329 38.8101 43.1691 38.8737 44.8882 39.4575Z" fill="#030300"/>
<path d="M62.4331 95.5664C66.1192 95.5664 69.8053 95.5664 73.6031 95.5664C73.897 97.0361 73.897 97.0361 73.468 97.6934C73.2542 97.9092 73.0403 98.125 72.82 98.3474C72.587 98.5827 72.3539 98.818 72.1138 99.0605C71.8657 99.3018 71.6175 99.5432 71.3618 99.7919C71.1204 100.04 70.879 100.288 70.6303 100.544C70.395 100.777 70.1597 101.01 69.9173 101.25C69.7014 101.464 69.4856 101.678 69.2632 101.898C68.606 102.327 68.606 102.327 67.8671 102.314C66.477 101.78 65.5598 100.649 64.5275 99.6082C64.2933 99.3835 64.0592 99.1588 63.8179 98.9273C63.4882 98.5982 63.4882 98.5982 63.1519 98.2624C62.9504 98.0627 62.7489 97.8629 62.5412 97.657C62.1392 97.0361 62.1392 97.0361 62.4331 95.5664Z" fill="#F5DD00"/>
<path d="M70.6636 87.334C74.3497 87.334 78.0358 87.334 81.8336 87.334C82.1275 88.8037 82.1275 88.8037 81.6985 89.4609C81.4847 89.6768 81.2708 89.8926 81.0505 90.115C80.8174 90.3503 80.5844 90.5856 80.3443 90.828C80.0961 91.0694 79.8479 91.3108 79.5922 91.5595C79.3509 91.8076 79.1095 92.0558 78.8608 92.3115C78.6255 92.5446 78.3902 92.7776 78.1478 93.0177C77.9319 93.2316 77.7161 93.4454 77.4937 93.6657C76.8365 94.0947 76.8365 94.0947 76.0976 94.082C74.7075 93.5472 73.7903 92.4167 72.758 91.3757C72.5238 91.151 72.2896 90.9264 72.0484 90.6948C71.7187 90.3658 71.7187 90.3658 71.3824 90.03C71.1809 89.8302 70.9793 89.6305 70.7717 89.4246C70.3697 88.8037 70.3697 88.8037 70.6636 87.334Z" fill="#F3DB00"/>
<path d="M54.2021 103.797C57.9852 103.797 61.7683 103.797 65.6661 103.797C65.8116 104.379 65.8116 104.379 65.96 104.973C65.4993 105.623 65.4993 105.623 64.8083 106.32C64.5607 106.569 64.3131 106.819 64.058 107.076C63.7944 107.333 63.5309 107.591 63.2594 107.857C63.0015 108.121 62.7437 108.384 62.478 108.656C62.2285 108.903 61.979 109.151 61.7219 109.406C61.4922 109.634 61.2625 109.862 61.0258 110.097C60.375 110.558 60.375 110.558 59.7831 110.554C58.4638 109.898 57.4909 108.705 56.4619 107.673C56.2123 107.432 55.9628 107.191 55.7058 106.942C55.4714 106.709 55.237 106.475 54.9956 106.235C54.7799 106.021 54.5641 105.807 54.3419 105.587C54.1988 105.384 54.0557 105.182 53.9082 104.973C54.0052 104.585 54.1022 104.197 54.2021 103.797Z" fill="#F8DF00"/>
<path d="M45.9717 95.5664C49.7548 95.5664 53.5379 95.5664 57.4356 95.5664C57.5811 96.1484 57.5811 96.1484 57.7295 96.7422C57.2689 97.393 57.2689 97.393 56.5779 98.0891C56.3302 98.3386 56.0826 98.5881 55.8275 98.8452C55.564 99.103 55.3004 99.3609 55.0289 99.6265C54.771 99.8901 54.5132 100.154 54.2475 100.425C53.998 100.673 53.7485 100.92 53.4914 101.175C53.2617 101.404 53.032 101.632 52.7954 101.867C52.1446 102.327 52.1446 102.327 51.5526 102.324C50.2333 101.667 49.2604 100.475 48.2314 99.4428C47.9819 99.2016 47.7324 98.9605 47.4753 98.712C47.2409 98.4784 47.0066 98.2448 46.7651 98.0041C46.5494 97.7905 46.3337 97.5768 46.1114 97.3567C45.9683 97.1539 45.8252 96.9511 45.6777 96.7422C45.7747 96.3542 45.8717 95.9662 45.9717 95.5664Z" fill="#F9E000"/>
<path d="M78.5996 79.3984C82.4797 79.3984 86.3598 79.3984 90.3575 79.3984C89.9673 81.3491 89.0155 82.1113 87.6385 83.4769C87.4138 83.7111 87.1891 83.9453 86.9576 84.1865C86.6285 84.5162 86.6285 84.5162 86.2927 84.8525C86.093 85.0541 85.8932 85.2556 85.6873 85.4632C85.0664 85.8653 85.0664 85.8653 84.3362 85.8557C83.435 85.5091 82.968 85.0768 82.2958 84.3852C82.0618 84.1474 81.8278 83.9097 81.5867 83.6647C81.3467 83.4148 81.1066 83.1649 80.8593 82.9074C80.6136 82.6564 80.3679 82.4054 80.1147 82.1467C79.509 81.5271 78.9061 80.905 78.3057 80.2803C78.4027 79.9893 78.4997 79.6983 78.5996 79.3984Z" fill="#FCE300"/>
<path d="M62.1387 79.3984C66.0188 79.3984 69.8989 79.3984 73.8965 79.3984C73.8965 81.0273 73.1895 81.4509 72.0875 82.5727C71.8418 82.8165 71.596 83.0604 71.3429 83.3116C71.1028 83.5611 70.8628 83.8106 70.6155 84.0677C70.3815 84.3021 70.1475 84.5364 69.9064 84.7779C69.6925 84.9936 69.4785 85.2093 69.258 85.4316C68.6055 85.8653 68.6055 85.8653 67.8666 85.8538C67.0116 85.5233 66.5486 85.136 65.8991 84.4908C65.6784 84.2716 65.4577 84.0524 65.2303 83.8266C65.0043 83.596 64.7782 83.3654 64.5454 83.1279C64.3136 82.9007 64.0819 82.6736 63.8432 82.4395C63.6244 82.2192 63.4056 81.9988 63.1801 81.7718C62.8801 81.4698 62.8801 81.4698 62.5741 81.1618C62.1387 80.5742 62.1387 80.5742 62.1387 79.3984Z" fill="#FCE300"/>
<path d="M45.6777 79.3984C49.5578 79.3984 53.4379 79.3984 57.4356 79.3984C57.4356 81.0273 56.7286 81.4509 55.6266 82.5727C55.3808 82.8165 55.1351 83.0604 54.8819 83.3116C54.6419 83.5611 54.4018 83.8106 54.1545 84.0677C53.9205 84.3021 53.6866 84.5364 53.4455 84.7779C53.2315 84.9936 53.0176 85.2093 52.7971 85.4316C52.1446 85.8653 52.1446 85.8653 51.4057 85.8538C50.5507 85.5233 50.0876 85.136 49.4382 84.4908C49.2175 84.2716 48.9967 84.0524 48.7693 83.8266C48.5433 83.596 48.3173 83.3654 48.0844 83.1279C47.8527 82.9007 47.621 82.6736 47.3823 82.4395C47.1635 82.2192 46.9446 81.9988 46.7192 81.7718C46.4192 81.4698 46.4192 81.4698 46.1131 81.1618C45.6777 80.5742 45.6777 80.5742 45.6777 79.3984Z" fill="#FBE200"/>
<path d="M29.5107 79.3984C33.3908 79.3984 37.2709 79.3984 41.2686 79.3984C40.8785 81.3491 39.9266 82.1113 38.5496 83.4769C38.3249 83.7111 38.1002 83.9453 37.8687 84.1865C37.5396 84.5162 37.5396 84.5162 37.2039 84.8525C37.0041 85.0541 36.8043 85.2556 36.5985 85.4632C35.9776 85.8653 35.9776 85.8653 35.2474 85.8557C34.3461 85.5091 33.8792 85.0768 33.2069 84.3852C32.9729 84.1474 32.7389 83.9097 32.4979 83.6647C32.2578 83.4148 32.0178 83.1649 31.7705 82.9074C31.5247 82.6564 31.279 82.4054 31.0258 82.1467C30.4201 81.5271 29.8173 80.905 29.2168 80.2803C29.3138 79.9893 29.4108 79.6983 29.5107 79.3984Z" fill="#FBE200"/>
<path d="M37.4473 87.6289C41.4244 87.6289 45.4015 87.6289 49.4991 87.6289C49.0611 89.3809 47.8706 90.2901 46.6147 91.5421C46.3735 91.7916 46.1324 92.0411 45.8839 92.2982C45.5335 92.6497 45.5335 92.6497 45.176 93.0084C44.9623 93.2241 44.7487 93.4398 44.5286 93.6621C43.9141 94.0957 43.9141 94.0957 43.3268 94.0889C42.5636 93.7166 42.0682 93.2461 41.4661 92.6467C41.2311 92.4129 40.9962 92.1791 40.7542 91.9382C40.5117 91.6923 40.2691 91.4464 40.0193 91.193C39.7722 90.9494 39.5252 90.7057 39.2707 90.4547C39.0372 90.2201 38.8038 89.9856 38.5633 89.7439C38.3492 89.5288 38.135 89.3136 37.9143 89.0919C37.4473 88.5107 37.4473 88.5107 37.4473 87.6289Z" fill="#FEE500"/>
<path d="M59.7688 87.5734C60.1551 87.5698 60.5414 87.5662 60.9394 87.5625C61.3075 87.5619 61.6756 87.5614 62.0549 87.5608C62.3947 87.5596 62.7346 87.5584 63.0848 87.5571C63.9024 87.6285 63.9024 87.6285 64.4903 88.2164C64.6303 89.019 64.6303 89.019 64.4903 89.9801C63.9544 90.6851 63.4699 91.2347 62.8368 91.8356C62.6834 91.9935 62.5299 92.1513 62.3718 92.3139C61.6053 93.0643 61.0701 93.4719 60.0374 93.814C58.7541 93.7947 58.3131 93.2003 57.4275 92.342C57.2362 92.1446 57.0448 91.9472 56.8477 91.7438C56.6654 91.5676 56.4831 91.3914 56.2954 91.2099C55.8225 90.7194 55.4264 90.2753 55.084 89.6862C55.1384 86.7467 57.4217 87.5746 59.7688 87.5734Z" fill="#FAE100"/>
<path d="M141.21 11.2578C149.067 11.2578 156.924 11.2578 165.02 11.2578C166.536 14.5078 168.052 17.758 169.557 21.0132C169.672 21.2603 169.786 21.5075 169.904 21.7622C171.638 25.5162 173.335 29.2854 175.005 33.0684C176.781 37.0892 178.612 41.0837 180.462 45.0708C182.094 48.5873 183.698 52.1142 185.302 55.6437C185.399 40.9963 185.496 26.349 185.596 11.2578C190.543 11.2578 195.49 11.2578 200.587 11.2578C200.587 31.6283 200.587 51.9988 200.587 72.9865C192.924 72.9865 185.261 72.9865 177.365 72.9865C175.86 69.6405 174.356 66.2967 172.89 62.9338C170.839 58.2346 168.758 53.5507 166.636 48.8829C164.104 43.3104 161.632 37.7126 159.183 32.1026C158.288 30.0529 157.392 28.0041 156.495 25.9551C156.495 41.4755 156.495 56.9958 156.495 72.9865C151.451 72.9865 146.407 72.9865 141.21 72.9865C141.21 52.616 141.21 32.2456 141.21 11.2578Z" fill="white"/>
<path d="M271.723 11.2578C277.058 11.2578 282.393 11.2578 287.89 11.2578C287.89 18.921 287.89 26.5842 287.89 34.4796C288.084 34.4796 288.278 34.4796 288.478 34.4796C288.478 34.2856 288.478 34.0916 288.478 33.8917C291.991 30.6693 296.353 29.0717 301.099 29.115C301.347 29.1128 301.594 29.1105 301.849 29.1082C306.409 29.1222 310.57 30.7275 313.812 33.941C317.995 38.4088 317.706 43.9872 317.664 49.7636C317.663 50.4361 317.661 51.1086 317.661 51.7811C317.657 53.5367 317.649 55.2923 317.639 57.0478C317.628 59.162 317.624 61.2761 317.619 63.3902C317.611 66.589 317.594 69.7877 317.578 72.9865C312.243 72.9865 306.908 72.9865 301.411 72.9865C301.407 71.0116 301.403 69.0367 301.399 67.002C301.393 65.7454 301.386 64.4889 301.378 63.2323C301.366 61.241 301.355 59.2498 301.354 57.2585C301.352 55.6518 301.344 54.0452 301.331 52.4384C301.327 51.8277 301.326 51.2169 301.327 50.6061C301.428 45.8486 301.428 45.8486 299.648 41.5343C297.714 39.8487 296.258 39.5602 293.704 39.642C292.085 39.8293 291.064 40.3552 289.947 41.5343C288.327 43.7551 288.097 46.5968 288.09 49.2602C288.085 49.6478 288.085 49.6478 288.081 50.0433C288.072 50.8878 288.067 51.7322 288.062 52.5768C288.056 53.1661 288.051 53.7555 288.045 54.3448C288.03 55.8887 288.018 57.4327 288.007 58.9766C287.993 60.833 287.975 62.6893 287.958 64.5456C287.932 67.3593 287.911 70.1729 287.89 72.9865C282.555 72.9865 277.219 72.9865 271.723 72.9865C271.723 52.616 271.723 32.2456 271.723 11.2578Z" fill="white"/>
<path d="M392.534 30.0703C397.869 30.0703 403.205 30.0703 408.701 30.0703C408.709 32.0486 408.717 34.0269 408.724 36.0652C408.732 37.3231 408.739 38.581 408.748 39.8389C408.763 41.8327 408.776 43.8266 408.781 45.8205C408.786 47.4291 408.796 49.0377 408.81 50.6463C408.814 51.2581 408.816 51.8699 408.817 52.4818C408.646 57.3905 408.646 57.3905 410.596 61.733C412.27 63.2513 414.277 63.1392 416.427 63.0945C417.897 62.957 418.821 62.5505 419.871 61.5226C421.381 59.6603 421.429 57.1912 421.435 54.8979C421.438 54.628 421.441 54.3582 421.444 54.0801C421.453 53.1959 421.458 52.3116 421.463 51.4273C421.468 50.8112 421.474 50.1951 421.48 49.5789C421.495 47.963 421.507 46.3471 421.518 44.7311C421.532 42.7892 421.55 40.8473 421.567 38.9054C421.593 35.9604 421.613 33.0154 421.635 30.0703C426.97 30.0703 432.305 30.0703 437.802 30.0703C437.899 44.2326 437.996 58.395 438.096 72.9865C432.858 72.9865 427.62 72.9865 422.223 72.9865C422.029 71.0464 421.835 69.1064 421.635 67.1075C421.156 67.6532 420.677 68.1988 420.184 68.761C417.829 71.3588 415.132 73.2707 411.551 73.6874C410.513 73.7317 409.483 73.7349 408.444 73.7213C407.925 73.7281 407.925 73.7281 407.396 73.7351C404.001 73.7202 400.868 72.9763 398.119 70.9288C397.816 70.7166 397.513 70.5044 397.201 70.2858C394.088 67.5968 392.998 62.7743 392.534 58.877C392.495 57.9175 392.497 56.9593 392.501 55.9991C392.501 55.7178 392.501 55.4365 392.501 55.1467C392.501 54.2227 392.503 53.2987 392.506 52.3746C392.506 51.7317 392.507 51.0888 392.507 50.4459C392.508 48.7579 392.511 47.07 392.514 45.382C392.518 43.3545 392.519 41.327 392.521 39.2995C392.524 36.2231 392.529 33.1467 392.534 30.0703Z" fill="white"/>
<path d="M519.52 30.0703C524.758 30.0703 529.996 30.0703 535.393 30.0703C535.404 32.0554 535.415 34.0406 535.426 36.0859C535.435 37.3464 535.444 38.607 535.454 39.8676C535.47 41.8666 535.485 43.8657 535.495 45.8648C535.502 47.4773 535.514 49.0896 535.529 50.702C535.534 51.316 535.537 51.93 535.539 52.5439C535.542 53.4065 535.55 54.2689 535.56 55.1315C535.559 55.3831 535.559 55.6347 535.558 55.8939C535.594 58.1886 536.044 60.4584 537.744 62.1104C539.795 63.3525 541.906 63.2301 544.211 62.9923C545.68 62.5627 546.56 61.6988 547.346 60.4032C548.571 57.8396 548.246 54.8338 548.24 52.0589C548.244 51.4238 548.249 50.7887 548.254 50.1537C548.266 48.4904 548.269 46.8272 548.27 45.1638C548.273 43.1637 548.287 41.1637 548.299 39.1636C548.317 36.1325 548.32 33.1016 548.326 30.0703C553.662 30.0703 558.997 30.0703 564.494 30.0703C564.591 44.2326 564.688 58.395 564.787 72.9865C559.549 72.9865 554.311 72.9865 548.914 72.9865C548.72 71.0464 548.526 69.1064 548.326 67.1075C548.054 67.4955 547.781 67.8836 547.5 68.2833C545.48 70.8582 542.495 73.0216 539.214 73.5744C534.15 74.0247 528.559 73.9536 524.397 70.6636C521.096 67.6211 519.623 63.1718 519.418 58.7585C519.37 56.927 519.387 55.0963 519.405 53.2645C519.407 52.5924 519.409 51.9203 519.41 51.2483C519.414 49.4951 519.426 47.742 519.439 45.9888C519.453 43.8769 519.459 41.7649 519.465 39.653C519.477 36.4587 519.499 33.2646 519.52 30.0703Z" fill="white"/>
<path d="M496.941 28.8391C497.305 28.8355 497.669 28.8319 498.044 28.8282C503.505 28.8196 508.899 29.8081 513.053 33.5973C515.696 36.4459 516.58 39.4538 516.58 43.2976C511.633 43.2976 506.686 43.2976 501.589 43.2976C501.443 41.988 501.443 41.988 501.295 40.6521C500.795 39.1285 500.294 38.2966 498.943 37.4186C497.439 36.9173 495.689 36.8168 494.179 37.3566C493.266 37.8604 492.764 38.3102 492.183 39.1823C491.956 40.5894 491.947 41.7479 492.715 42.9669C494.891 44.4176 497.569 44.9872 500.082 45.6124C500.675 45.7647 501.268 45.9174 501.86 46.0705C502.157 46.147 502.454 46.2235 502.76 46.3023C503.199 46.4155 503.199 46.4155 503.647 46.531C503.927 46.603 504.208 46.6751 504.497 46.7493C513.744 49.1511 513.744 49.1511 516.137 53.1413C517.88 56.4643 517.973 60.4933 517.227 64.1436C515.932 67.8664 513.206 70.2092 509.806 71.9837C502.643 75.3589 492.234 75.2968 484.797 72.707C481.435 71.4255 478.942 69.3757 477.191 66.2254C476.133 63.7652 476.016 61.6056 476.016 58.8767C481.254 58.8767 486.492 58.8767 491.889 58.8767C492.083 60.0407 492.277 61.2048 492.477 62.4041C493.156 63.7402 493.79 64.389 495.122 65.0496C497.036 65.2939 499.117 65.3815 500.707 64.1677C501.775 63.0283 501.713 61.7497 501.763 60.2638C501.516 59.1315 501.012 58.7148 500.119 57.9949C499.262 57.576 499.262 57.576 498.282 57.2968C498.097 57.2386 497.913 57.1804 497.722 57.1205C495.52 56.4402 493.291 55.845 491.071 55.2284C483.894 53.2295 483.894 53.2295 481.013 51.2341C480.746 51.0583 480.479 50.8825 480.204 50.7013C477.823 48.386 476.823 45.7272 476.769 42.4525C476.797 39.1245 477.908 36.3743 480.131 33.8913C484.929 29.6383 490.761 28.8423 496.941 28.8391Z" fill="white"/>
<path d="M256.144 29.4836C256.384 29.5439 256.624 29.6041 256.872 29.6662C261.716 31.0844 265.504 33.8523 268.021 38.2526C269.209 40.615 269.371 42.3258 269.371 45.0628C264.133 45.0628 258.895 45.0628 253.498 45.0628C253.304 43.8017 253.11 42.5407 252.91 41.2415C252.129 39.7312 251.293 38.8407 249.677 38.302C246.821 38.0032 246.821 38.0032 244.221 39.0001C242.11 40.9258 241.289 43.7394 241.117 46.5189C241.063 47.8856 241.056 49.2517 241.06 50.6193C241.061 51.3424 241.054 52.0651 241.046 52.788C241.032 56.2337 241.091 60.5202 243.657 63.1588C245.478 64.7182 247.056 64.6191 249.383 64.4632C250.793 63.9931 251.532 63.3658 252.322 62.1117C253.203 60.1614 253.3 58.4137 253.498 56.2327C258.833 56.2327 264.168 56.2327 269.665 56.2327C269.665 61.0704 268.408 64.7277 265.091 68.3029C260.346 72.8652 254.255 73.9839 247.932 73.9797C247.352 73.9804 247.352 73.9804 246.76 73.9811C240.354 73.9085 234.353 71.9603 229.689 67.4027C226.641 63.9326 225.398 60.3381 224.398 55.9388C224.345 55.7545 224.293 55.5703 224.24 55.3805C223.048 49.9716 224.283 43.2034 227.035 38.4834C230.092 33.7039 234.526 30.8463 239.977 29.4836C240.272 29.3961 240.568 29.3086 240.872 29.2184C245.755 27.9263 251.284 28.2188 256.144 29.4836Z" fill="white"/>
<path d="M465.14 17.4297C465.14 21.6008 465.14 25.7719 465.14 30.0694C468.535 30.0694 471.93 30.0694 475.428 30.0694C475.428 33.5615 475.428 37.0535 475.428 40.6514C472.033 40.6514 468.638 40.6514 465.14 40.6514C465.166 43.9449 465.166 43.9449 465.201 47.2382C465.217 48.5825 465.232 49.9268 465.242 51.2712C465.249 52.3557 465.261 53.4401 465.276 54.5246C465.281 54.9372 465.284 55.3498 465.286 55.7624C465.264 58.7706 465.264 58.7706 466.316 61.5216C467.42 62.557 468.462 62.7333 469.938 62.7904C470.21 62.8016 470.483 62.8128 470.763 62.8244C471.108 62.837 471.453 62.8497 471.809 62.8627C473.455 62.9264 473.455 62.9264 475.134 62.9913C475.134 66.2894 475.134 69.5875 475.134 72.9855C469.834 73.6481 469.834 73.6481 467.974 73.6515C467.673 73.6523 467.673 73.6523 467.367 73.6532C466.953 73.6536 466.539 73.6526 466.125 73.6501C465.503 73.6469 464.881 73.6501 464.259 73.6538C459.881 73.6582 455.376 73.2818 451.912 70.34C450.5 68.9282 449.997 67.3679 449.665 65.4326C449.608 65.1048 449.608 65.1048 449.55 64.7704C449.159 62.3089 449.155 59.873 449.181 57.3869C449.182 56.8997 449.183 56.4126 449.184 55.9254C449.188 54.6618 449.196 53.3982 449.206 52.1346C449.215 50.8378 449.219 49.5409 449.224 48.2441C449.233 45.7132 449.248 43.1823 449.267 40.6514C446.648 40.6514 444.029 40.6514 441.33 40.6514C441.33 37.2564 441.33 33.8613 441.33 30.3633C444.046 30.3633 446.762 30.3633 449.561 30.3633C449.561 28.1323 449.561 25.9012 449.561 23.6026C453.688 21.8811 457.815 20.162 461.98 18.532C462.266 18.4197 462.553 18.3073 462.848 18.1916C464.807 17.4297 464.807 17.4297 465.14 17.4297Z" fill="white"/>
<path d="M321.693 30.0703C327.028 30.0703 332.364 30.0703 337.86 30.0703C337.86 44.2326 337.86 58.395 337.86 72.9865C332.525 72.9865 327.19 72.9865 321.693 72.9865C321.693 58.8241 321.693 44.6618 321.693 30.0703Z" fill="white"/>
<path d="M205.585 30.0703C210.92 30.0703 216.255 30.0703 221.752 30.0703C221.752 44.2326 221.752 58.395 221.752 72.9865C216.417 72.9865 211.082 72.9865 205.585 72.9865C205.585 58.8241 205.585 44.6618 205.585 30.0703Z" fill="white"/>
<path fill-rule="evenodd" clip-rule="evenodd" d="M358.437 11.2578H342.27C342.239 17.983 342.208 24.7081 342.175 31.4345L342.036 60.4123C342.029 62.3505 342.007 64.2875 341.976 66.2257L341.682 72.9865H356.967L357.555 67.1076C358.969 69.9351 362.918 72.1695 365.682 73.3069C369.614 74.5292 374.906 74.4396 378.717 72.812C383.787 70.403 387.312 66.7281 389.28 61.4216L389.595 60.3468C390.348 57.7782 390.594 55.3761 390.583 52.7192C390.575 52.0497 390.569 51.3809 390.569 50.7115C390.581 46.7656 390.445 42.8077 388.713 39.1827C386.309 34.8022 382.941 31.4597 378.131 29.7764C372.636 28.2389 367.035 28.5363 361.964 31.2462L358.731 33.8917L358.437 11.2578ZM373.722 45.3556C373.165 42.8042 372.076 40.6628 369.9 39.1827C367.243 37.6716 363.839 37.806 361.525 39.89C359.068 42.4884 358.03 45.7655 357.857 49.2871C357.822 53.8369 357.903 58.8082 361.156 62.3493C362.945 64.0102 364.686 64.2669 367.075 64.2565C369.038 64.0309 370.38 62.9585 371.664 61.5226C374.718 56.9929 374.503 50.5875 373.722 45.3556Z" fill="white"/>
<path d="M321.693 11.5508C327.028 11.5508 332.364 11.5508 337.86 11.5508C337.86 15.3339 337.86 19.117 337.86 23.0147C332.525 23.0147 327.19 23.0147 321.693 23.0147C321.693 19.2316 321.693 15.4485 321.693 11.5508Z" fill="white"/>
<path d="M205.585 11.5508C210.92 11.5508 216.255 11.5508 221.752 11.5508C221.752 15.3339 221.752 19.117 221.752 23.0147C216.417 23.0147 211.082 23.0147 205.585 23.0147C205.585 19.2316 205.585 15.4485 205.585 11.5508Z" fill="white"/>
<path d="M150.35 110.53C151.7 110.528 153.034 110.228 154.258 109.65C155.462 109.11 156.53 108.302 157.383 107.285V107.285L155.055 104.918C154.483 105.616 153.774 106.184 152.972 106.585C152.186 106.971 151.322 107.169 150.448 107.163C149.711 107.171 148.979 107.031 148.296 106.75C147.612 106.469 146.99 106.054 146.466 105.528C145.961 105.013 145.562 104.401 145.293 103.728C145.003 103.014 144.858 102.248 144.864 101.476C144.856 100.697 144.998 99.9229 145.281 99.198C145.545 98.5238 145.936 97.9084 146.433 97.3864C146.931 96.8686 147.527 96.4577 148.185 96.1783C148.87 95.883 149.608 95.7332 150.353 95.7379C151.251 95.7344 152.138 95.9435 152.943 96.3485C153.775 96.7722 154.503 97.3784 155.075 98.1232V98.1232L157.477 95.682C156.632 94.6418 155.558 93.8184 154.34 93.2789C153.089 92.6924 151.728 92.3874 150.35 92.385C149.119 92.3766 147.898 92.6161 146.759 93.0896C145.68 93.5337 144.695 94.1834 143.856 95.0035C143.029 95.8242 142.371 96.8038 141.92 97.8851C141.453 99.0188 141.212 100.235 141.21 101.464C141.208 102.692 141.445 103.909 141.909 105.045C142.354 106.122 143.008 107.098 143.832 107.914C144.67 108.734 145.656 109.383 146.736 109.827C147.883 110.302 149.111 110.541 150.35 110.53V110.53ZM196.787 110.557C198.014 110.566 199.23 110.326 200.365 109.852C201.439 109.41 202.417 108.756 203.241 107.929C204.066 107.102 204.721 106.118 205.168 105.033C205.637 103.906 205.879 102.695 205.879 101.471C205.879 100.248 205.637 99.0372 205.168 97.9101C204.721 96.8251 204.066 95.8407 203.241 95.0136C202.417 94.1864 201.439 93.533 200.365 93.0908C198.078 92.1518 195.52 92.1518 193.233 93.0908C192.159 93.533 191.181 94.1864 190.357 95.0136C189.532 95.8407 188.877 96.8251 188.429 97.9101C187.961 99.0373 187.719 100.248 187.719 101.471C187.719 102.695 187.961 103.906 188.429 105.033C188.877 106.118 189.532 107.102 190.357 107.929C191.181 108.756 192.159 109.41 193.233 109.852C194.36 110.324 195.569 110.564 196.788 110.555L196.787 110.557ZM196.787 107.21C196.067 107.216 195.354 107.073 194.69 106.789C194.026 106.506 193.427 106.088 192.928 105.561C192.436 105.033 192.049 104.413 191.789 103.736C191.233 102.274 191.233 100.655 191.789 99.1932C192.051 98.5213 192.438 97.9065 192.928 97.3817C193.427 96.8549 194.026 96.437 194.69 96.1535C195.354 95.8701 196.067 95.727 196.787 95.7332C197.528 95.7275 198.263 95.8774 198.944 96.1736C199.594 96.4533 200.182 96.8643 200.671 97.3817C201.161 97.9065 201.548 98.5213 201.81 99.1932C202.366 100.655 202.366 102.274 201.81 103.736C201.55 104.413 201.163 105.033 200.671 105.561C200.182 106.078 199.594 106.489 198.944 106.769C198.263 107.065 197.529 107.214 196.788 107.208L196.787 107.21ZM250.65 110.28V107.06H241.263V92.6623H237.712V110.278L250.65 110.28ZM295.447 110.28V107.06H286.06V92.6623H282.507V110.278L295.447 110.28ZM340.585 110.28V107.11H330.857V102.931H337.205V99.8598H330.857V95.8367H340.488V92.6659H327.302V110.282L340.585 110.28ZM379.991 110.532C381.341 110.53 382.675 110.229 383.899 109.651C385.103 109.111 386.171 108.303 387.024 107.286V107.286L384.695 104.921C384.124 105.618 383.414 106.186 382.612 106.587C381.826 106.974 380.962 107.171 380.088 107.166C379.351 107.174 378.62 107.033 377.936 106.752C377.253 106.472 376.631 106.056 376.107 105.53C375.602 105.015 375.203 104.403 374.934 103.73C374.645 103.016 374.498 102.251 374.504 101.479C374.497 100.699 374.639 99.9251 374.922 99.2004C375.185 98.526 375.576 97.9105 376.073 97.3888C376.571 96.8708 377.167 96.4599 377.825 96.1807C378.511 95.8853 379.249 95.7355 379.993 95.7403C380.895 95.737 381.784 95.9477 382.591 96.3557C383.423 96.7792 384.151 97.3854 384.723 98.1303V98.1303L387.125 95.6891C386.28 94.6489 385.206 93.8255 383.989 93.286C382.738 92.6998 381.377 92.3948 379.999 92.3921C378.768 92.3837 377.548 92.6232 376.409 93.0968C375.329 93.5404 374.343 94.1896 373.505 95.0095C372.677 95.83 372.018 96.8096 371.568 97.8911C371.101 99.0248 370.859 100.241 370.857 101.47C370.855 102.698 371.093 103.915 371.556 105.05C372.001 106.128 372.655 107.104 373.479 107.92C374.318 108.74 375.304 109.389 376.383 109.833C377.528 110.305 378.755 110.542 379.991 110.53V110.532ZM426.993 110.28V95.8831H432.751V92.6611H417.655V95.8831H423.439V110.278L426.993 110.28ZM467.696 110.28V92.6647H464.143V110.28H467.696ZM508.621 110.558C509.848 110.567 511.065 110.327 512.199 109.853C513.273 109.411 514.251 108.757 515.075 107.93C515.9 107.103 516.555 106.119 517.003 105.034C517.471 103.907 517.713 102.696 517.713 101.473C517.713 100.249 517.471 99.0385 517.003 97.9113C516.555 96.8263 515.9 95.8419 515.075 95.0148C514.251 94.1876 513.273 93.5342 512.199 93.092C509.912 92.1533 507.355 92.1533 505.069 93.092C503.995 93.5348 503.017 94.1885 502.193 95.0156C501.369 95.8426 500.714 96.8267 500.266 97.9113C499.797 99.0383 499.555 100.249 499.555 101.473C499.555 102.696 499.797 103.907 500.266 105.034C500.714 106.118 501.369 107.103 502.193 107.93C503.017 108.757 503.995 109.41 505.069 109.853C506.195 110.325 507.403 110.564 508.621 110.555V110.558ZM508.621 107.211C507.884 107.217 507.154 107.067 506.478 106.77C505.832 106.489 505.248 106.078 504.762 105.562C504.27 105.034 503.882 104.415 503.622 103.738C503.066 102.276 503.066 100.656 503.622 99.1944C503.884 98.5222 504.272 97.9073 504.762 97.3829C505.248 96.8673 505.832 96.4564 506.478 96.1748C507.154 95.8778 507.884 95.7278 508.621 95.7343C509.362 95.7287 510.096 95.8786 510.777 96.1748C511.428 96.4545 512.016 96.8655 512.505 97.3829C512.995 97.9077 513.382 98.5225 513.644 99.1944C514.201 100.656 514.201 102.276 513.644 103.738C513.384 104.415 512.997 105.034 512.505 105.562C512.016 106.08 511.428 106.491 510.777 106.77C510.096 107.066 509.362 107.215 508.621 107.208V107.211ZM552.902 110.282V98.4981L561.651 110.282H564.787V92.6659H561.455V104.066L552.927 92.6659H549.544V110.282H552.902Z" fill="white"/>
</svg>
