<svg width="565" height="120" viewBox="0 0 565 120" fill="none" xmlns="http://www.w3.org/2000/svg">
<path d="M141.21 10.3477C149.067 10.3477 156.924 10.3477 165.02 10.3477C166.536 13.5976 168.052 16.8479 169.557 20.103C169.672 20.3502 169.786 20.5973 169.904 20.852C171.638 24.606 173.335 28.3752 175.005 32.1583C176.781 36.179 178.612 40.1735 180.462 44.1607C182.094 47.6771 183.698 51.204 185.302 54.7335C185.399 40.0862 185.496 25.4389 185.596 10.3477C190.543 10.3477 195.49 10.3477 200.587 10.3477C200.587 30.7181 200.587 51.0886 200.587 72.0764C192.924 72.0764 185.261 72.0764 177.365 72.0764C175.86 68.7304 174.356 65.3866 172.89 62.0236C170.839 57.3244 168.758 52.6405 166.636 47.9728C164.104 42.4002 161.632 36.8024 159.183 31.1924C158.288 29.1428 157.392 27.094 156.495 25.045C156.495 40.5653 156.495 56.0857 156.495 72.0764C151.451 72.0764 146.407 72.0764 141.21 72.0764C141.21 51.7059 141.21 31.3354 141.21 10.3477Z" fill="white"/>
<path d="M271.723 10.3477C277.058 10.3477 282.393 10.3477 287.89 10.3477C287.89 18.0108 287.89 25.674 287.89 33.5694C288.084 33.5694 288.278 33.5694 288.478 33.5694C288.478 33.3754 288.478 33.1814 288.478 32.9815C291.991 29.7592 296.353 28.1615 301.099 28.2049C301.347 28.2026 301.594 28.2003 301.849 28.198C306.409 28.212 310.57 29.8174 313.812 33.0309C317.995 37.4986 317.706 43.077 317.664 48.8535C317.663 49.526 317.661 50.1985 317.661 50.871C317.657 52.6266 317.649 54.3821 317.639 56.1377C317.628 58.2518 317.624 60.3659 317.619 62.4801C317.611 65.6789 317.594 68.8775 317.578 72.0764C312.243 72.0764 306.908 72.0764 301.411 72.0764C301.407 70.1015 301.403 68.1265 301.399 66.0918C301.393 64.8352 301.386 63.5787 301.378 62.3222C301.366 60.3309 301.355 58.3397 301.354 56.3484C301.352 54.7416 301.344 53.135 301.331 51.5283C301.327 50.9175 301.326 50.3068 301.327 49.696C301.428 44.9384 301.428 44.9384 299.648 40.6241C297.714 38.9385 296.258 38.65 293.704 38.7318C292.085 38.9192 291.064 39.4451 289.947 40.6241C288.327 42.8449 288.097 45.6866 288.09 48.35C288.085 48.7377 288.085 48.7377 288.081 49.1331C288.072 49.9776 288.067 50.8221 288.062 51.6666C288.056 52.256 288.051 52.8453 288.045 53.4347C288.03 54.9786 288.018 56.5225 288.007 58.0665C287.993 59.9228 287.975 61.7792 287.958 63.6355C287.932 66.4491 287.911 69.2627 287.89 72.0764C282.555 72.0764 277.219 72.0764 271.723 72.0764C271.723 51.7059 271.723 31.3354 271.723 10.3477Z" fill="white"/>
<path d="M392.534 29.1602C397.869 29.1602 403.205 29.1602 408.701 29.1602C408.709 31.1385 408.717 33.1168 408.724 35.1551C408.732 36.4129 408.739 37.6708 408.748 38.9287C408.763 40.9226 408.776 42.9164 408.781 44.9103C408.786 46.519 408.796 48.1275 408.81 49.7361C408.814 50.3479 408.816 50.9598 408.817 51.5716C408.646 56.4804 408.646 56.4804 410.596 60.8228C412.27 62.3412 414.277 62.229 416.427 62.1843C417.897 62.0468 418.821 61.6404 419.871 60.6124C421.381 58.7502 421.429 56.2811 421.435 53.9877C421.438 53.7179 421.441 53.448 421.444 53.17C421.453 52.2857 421.458 51.4015 421.463 50.5172C421.468 49.901 421.474 49.2849 421.48 48.6688C421.495 47.0529 421.507 45.4369 421.518 43.821C421.532 41.879 421.55 39.9371 421.567 37.9952C421.593 35.0502 421.613 32.1052 421.635 29.1602C426.97 29.1602 432.305 29.1602 437.802 29.1602C437.899 43.3225 437.996 57.4848 438.096 72.0763C432.858 72.0763 427.62 72.0763 422.223 72.0763C422.029 70.1363 421.835 68.1962 421.635 66.1974C421.156 66.743 420.677 67.2886 420.184 67.8508C417.829 70.4486 415.132 72.3605 411.551 72.7773C410.513 72.8215 409.483 72.8247 408.444 72.8112C407.925 72.818 407.925 72.818 407.396 72.8249C404.001 72.81 400.868 72.0661 398.119 70.0187C397.816 69.8065 397.513 69.5943 397.201 69.3757C394.088 66.6866 392.998 61.8641 392.534 57.9669C392.495 57.0073 392.497 56.0492 392.501 55.0889C392.501 54.8077 392.501 54.5264 392.501 54.2366C392.501 53.3125 392.503 52.3885 392.506 51.4645C392.506 50.8216 392.507 50.1786 392.507 49.5357C392.508 47.8478 392.511 46.1598 392.514 44.4719C392.518 42.4444 392.519 40.4169 392.521 38.3894C392.524 35.313 392.529 32.2366 392.534 29.1602Z" fill="white"/>
<path d="M519.52 29.1602C524.758 29.1602 529.996 29.1602 535.393 29.1602C535.404 31.1453 535.415 33.1304 535.426 35.1757C535.435 36.4363 535.444 37.6968 535.454 38.9574C535.47 40.9565 535.485 42.9555 535.495 44.9547C535.502 46.5671 535.514 48.1795 535.529 49.7919C535.534 50.4058 535.537 51.0198 535.539 51.6338C535.542 52.4964 535.55 53.3587 535.56 54.2213C535.559 54.4729 535.559 54.7245 535.558 54.9837C535.594 57.2785 536.044 59.5482 537.744 61.2003C539.795 62.4424 541.906 62.3199 544.211 62.0821C545.68 61.6526 546.56 60.7886 547.346 59.493C548.571 56.9294 548.246 53.9236 548.24 51.1487C548.244 50.5136 548.249 49.8786 548.254 49.2435C548.266 47.5802 548.269 45.917 548.27 44.2537C548.273 42.2536 548.287 40.2535 548.299 38.2535C548.317 35.2223 548.32 32.1914 548.326 29.1602C553.662 29.1602 558.997 29.1602 564.494 29.1602C564.591 43.3225 564.688 57.4848 564.787 72.0763C559.549 72.0763 554.311 72.0763 548.914 72.0763C548.72 70.1363 548.526 68.1962 548.326 66.1974C548.054 66.5854 547.781 66.9734 547.5 67.3732C545.48 69.948 542.495 72.1114 539.214 72.6642C534.15 73.1145 528.559 73.0434 524.397 69.7534C521.096 66.7109 519.623 62.2617 519.418 57.8483C519.37 56.0168 519.387 54.1862 519.405 52.3543C519.407 51.6823 519.409 51.0102 519.41 50.3381C519.414 48.5849 519.426 46.8318 519.439 45.0787C519.453 42.9667 519.459 40.8548 519.465 38.7428C519.477 35.5485 519.499 32.3545 519.52 29.1602Z" fill="white"/>
<path d="M496.941 27.9289C497.305 27.9253 497.669 27.9217 498.044 27.918C503.505 27.9094 508.899 28.8979 513.053 32.6872C515.696 35.5357 516.58 38.5437 516.58 42.3874C511.633 42.3874 506.686 42.3874 501.589 42.3874C501.443 41.0779 501.443 41.0779 501.295 39.7419C500.795 38.2183 500.294 37.3864 498.943 36.5085C497.439 36.0071 495.689 35.9067 494.179 36.4465C493.266 36.9502 492.764 37.4 492.183 38.2722C491.956 39.6792 491.947 40.8377 492.715 42.0567C494.891 43.5074 497.569 44.0771 500.082 44.7022C500.675 44.8545 501.268 45.0072 501.86 45.1604C502.157 45.2369 502.454 45.3134 502.76 45.3922C503.199 45.5054 503.199 45.5054 503.647 45.6208C503.927 45.6929 504.208 45.7649 504.497 45.8391C513.744 48.2409 513.744 48.2409 516.137 52.2312C517.88 55.5541 517.973 59.5831 517.227 63.2335C515.932 66.9562 513.206 69.2991 509.806 71.0736C502.643 74.4488 492.234 74.3866 484.797 71.7968C481.435 70.5153 478.942 68.4656 477.191 65.3152C476.133 62.855 476.016 60.6954 476.016 57.9666C481.254 57.9666 486.492 57.9666 491.889 57.9666C492.083 59.1306 492.277 60.2946 492.477 61.4939C493.156 62.83 493.79 63.4788 495.122 64.1394C497.036 64.3837 499.117 64.4713 500.707 63.2576C501.775 62.1182 501.713 60.8396 501.763 59.3536C501.516 58.2213 501.012 57.8046 500.119 57.0847C499.262 56.6659 499.262 56.6659 498.282 56.3866C498.097 56.3284 497.913 56.2703 497.722 56.2103C495.52 55.5301 493.291 54.9348 491.071 54.3183C483.894 52.3193 483.894 52.3193 481.013 50.324C480.746 50.1481 480.479 49.9723 480.204 49.7912C477.823 47.4759 476.823 44.8171 476.769 41.5423C476.797 38.2144 477.908 35.4642 480.131 32.9811C484.929 28.7281 490.761 27.9321 496.941 27.9289Z" fill="white"/>
<path d="M256.144 28.5735C256.384 28.6337 256.624 28.694 256.872 28.756C261.716 30.1742 265.504 32.9421 268.021 37.3425C269.209 39.7048 269.371 41.4157 269.371 44.1526C264.133 44.1526 258.895 44.1526 253.498 44.1526C253.304 42.8916 253.11 41.6306 252.91 40.3313C252.129 38.821 251.293 37.9306 249.677 37.3919C246.821 37.0931 246.821 37.0931 244.221 38.09C242.11 40.0157 241.289 42.8292 241.117 45.6088C241.063 46.9755 241.056 48.3416 241.06 49.7092C241.061 50.4322 241.054 51.1549 241.046 51.8779C241.032 55.3236 241.091 59.61 243.657 62.2487C245.478 63.808 247.056 63.709 249.383 63.5531C250.793 63.083 251.532 62.4557 252.322 61.2015C253.203 59.2512 253.3 57.5036 253.498 55.3226C258.833 55.3226 264.168 55.3226 269.665 55.3226C269.665 60.1603 268.408 63.8176 265.091 67.3927C260.346 71.955 254.255 73.0738 247.932 73.0696C247.352 73.0702 247.352 73.0702 246.76 73.0709C240.354 72.9983 234.353 71.0501 229.689 66.4925C226.641 63.0225 225.398 59.428 224.398 55.0286C224.345 54.8444 224.293 54.6601 224.24 54.4703C223.048 49.0615 224.283 42.2932 227.035 37.5733C230.092 32.7937 234.526 29.9361 239.977 28.5735C240.272 28.4859 240.568 28.3984 240.872 28.3082C245.755 27.0162 251.284 27.3086 256.144 28.5735Z" fill="white"/>
<path d="M465.14 16.5195C465.14 20.6906 465.14 24.8617 465.14 29.1592C468.535 29.1592 471.93 29.1592 475.428 29.1592C475.428 32.6513 475.428 36.1434 475.428 39.7413C472.033 39.7413 468.638 39.7413 465.14 39.7413C465.166 43.0347 465.166 43.0347 465.201 46.3281C465.217 47.6724 465.232 49.0167 465.242 50.361C465.249 51.4456 465.261 52.53 465.276 53.6144C465.281 54.027 465.284 54.4397 465.286 54.8523C465.264 57.8605 465.264 57.8605 466.316 60.6115C467.42 61.6469 468.462 61.8232 469.938 61.8803C470.21 61.8915 470.483 61.9027 470.763 61.9142C471.108 61.9269 471.453 61.9395 471.809 61.9526C473.455 62.0162 473.455 62.0162 475.134 62.0812C475.134 65.3793 475.134 68.6773 475.134 72.0754C469.834 72.7379 469.834 72.7379 467.974 72.7413C467.673 72.7422 467.673 72.7422 467.367 72.743C466.953 72.7434 466.539 72.7424 466.125 72.7399C465.503 72.7367 464.881 72.7399 464.259 72.7436C459.881 72.7481 455.376 72.3716 451.912 69.4298C450.5 68.0181 449.997 66.4577 449.665 64.5224C449.608 64.1946 449.608 64.1946 449.55 63.8602C449.159 61.3987 449.155 58.9628 449.181 56.4767C449.182 55.9896 449.183 55.5024 449.184 55.0153C449.188 53.7516 449.196 52.4881 449.206 51.2245C449.215 49.9276 449.219 48.6308 449.224 47.3339C449.233 44.803 449.248 42.2722 449.267 39.7413C446.648 39.7413 444.029 39.7413 441.33 39.7413C441.33 36.3462 441.33 32.9511 441.33 29.4532C444.046 29.4532 446.762 29.4532 449.561 29.4532C449.561 27.2221 449.561 24.9911 449.561 22.6924C453.688 20.971 457.815 19.2518 461.98 17.6218C462.266 17.5095 462.553 17.3972 462.848 17.2815C464.807 16.5195 464.807 16.5195 465.14 16.5195Z" fill="white"/>
<path d="M321.693 29.1602C327.028 29.1602 332.364 29.1602 337.86 29.1602C337.86 43.3225 337.86 57.4848 337.86 72.0763C332.525 72.0763 327.19 72.0763 321.693 72.0763C321.693 57.914 321.693 43.7516 321.693 29.1602Z" fill="white"/>
<path d="M205.585 29.1602C210.92 29.1602 216.255 29.1602 221.752 29.1602C221.752 43.3225 221.752 57.4848 221.752 72.0763C216.417 72.0763 211.082 72.0763 205.585 72.0763C205.585 57.914 205.585 43.7516 205.585 29.1602Z" fill="white"/>
<path fill-rule="evenodd" clip-rule="evenodd" d="M358.437 10.3477H342.27C342.239 17.0728 342.208 23.798 342.175 30.5243L342.036 59.5021C342.029 61.4403 342.007 63.3774 341.976 65.3156L341.682 72.0764H356.967L357.555 66.1974C358.969 69.0249 362.918 71.2594 365.682 72.3967C369.614 73.619 374.906 73.5294 378.717 71.9018C383.787 69.4928 387.312 65.8179 389.28 60.5114L389.595 59.4367C390.348 56.8681 390.594 54.466 390.583 51.809C390.575 51.1396 390.569 50.4707 390.569 49.8013C390.581 45.8554 390.445 41.8975 388.713 38.2725C386.309 33.8921 382.941 30.5496 378.131 28.8663C372.636 27.3288 367.035 27.6262 361.964 30.336L358.731 32.9815L358.437 10.3477ZM373.722 44.4454C373.165 41.8941 372.076 39.7526 369.9 38.2725C367.243 36.7615 363.839 36.8958 361.525 38.9799C359.068 41.5783 358.03 44.8553 357.857 48.3769C357.822 52.9268 357.903 57.898 361.156 61.4392C362.945 63.1001 364.686 63.3567 367.075 63.3464C369.038 63.1208 370.38 62.0483 371.664 60.6125C374.718 56.0827 374.503 49.6773 373.722 44.4454Z" fill="white"/>
<path d="M321.693 10.6406C327.028 10.6406 332.364 10.6406 337.86 10.6406C337.86 14.4237 337.86 18.2068 337.86 22.1045C332.525 22.1045 327.19 22.1045 321.693 22.1045C321.693 18.3214 321.693 14.5384 321.693 10.6406Z" fill="white"/>
<path d="M205.585 10.6406C210.92 10.6406 216.255 10.6406 221.752 10.6406C221.752 14.4237 221.752 18.2068 221.752 22.1045C216.417 22.1045 211.082 22.1045 205.585 22.1045C205.585 18.3214 205.585 14.5384 205.585 10.6406Z" fill="white"/>
<path d="M150.35 109.62C151.7 109.618 153.034 109.318 154.258 108.739C155.462 108.2 156.53 107.392 157.383 106.374V106.374L155.055 104.008C154.483 104.706 153.774 105.273 152.972 105.675C152.186 106.061 151.322 106.259 150.448 106.253C149.711 106.261 148.979 106.121 148.296 105.84C147.612 105.559 146.99 105.144 146.466 104.618C145.961 104.103 145.562 103.491 145.293 102.818C145.003 102.104 144.858 101.338 144.864 100.566C144.856 99.7864 144.998 99.0127 145.281 98.2878C145.545 97.6136 145.936 96.9982 146.433 96.4763C146.931 95.9584 147.527 95.5475 148.185 95.2682C148.87 94.9729 149.608 94.823 150.353 94.8278C151.251 94.8243 152.138 95.0334 152.943 95.4384C153.775 95.8621 154.503 96.4683 155.075 97.213V97.213L157.477 94.7718C156.632 93.7316 155.558 92.9082 154.34 92.3687C153.089 91.7822 151.728 91.4773 150.35 91.4748C149.119 91.4665 147.898 91.706 146.759 92.1794C145.68 92.6236 144.695 93.2733 143.856 94.0934C143.029 94.9141 142.371 95.8937 141.92 96.975C141.453 98.1087 141.212 99.3248 141.21 100.553C141.208 101.782 141.445 102.999 141.909 104.134C142.354 105.212 143.008 106.188 143.832 107.004C144.67 107.824 145.656 108.473 146.736 108.917C147.883 109.392 149.111 109.631 150.35 109.62V109.62ZM196.787 109.646C198.014 109.656 199.23 109.416 200.365 108.942C201.439 108.5 202.417 107.846 203.241 107.019C204.066 106.192 204.721 105.207 205.168 104.122C205.637 102.995 205.879 101.785 205.879 100.561C205.879 99.3379 205.637 98.127 205.168 97C204.721 95.915 204.066 94.9305 203.241 94.1034C202.417 93.2763 201.439 92.6228 200.365 92.1806C198.078 91.2416 195.52 91.2416 193.233 92.1806C192.159 92.6228 191.181 93.2763 190.357 94.1034C189.532 94.9305 188.877 95.915 188.429 97C187.961 98.1271 187.719 99.338 187.719 100.561C187.719 101.784 187.961 102.995 188.429 104.122C188.877 105.207 189.532 106.192 190.357 107.019C191.181 107.846 192.159 108.5 193.233 108.942C194.36 109.414 195.569 109.653 196.788 109.645L196.787 109.646ZM196.787 106.299C196.067 106.306 195.354 106.163 194.69 105.879C194.026 105.596 193.427 105.178 192.928 104.651C192.436 104.123 192.049 103.503 191.789 102.826C191.233 101.364 191.233 99.745 191.789 98.2831C192.051 97.6112 192.438 96.9963 192.928 96.4715C193.427 95.9447 194.026 95.5268 194.69 95.2434C195.354 94.9599 196.067 94.8169 196.787 94.823C197.528 94.8173 198.263 94.9673 198.944 95.2634C199.594 95.5432 200.182 95.9542 200.671 96.4715C201.161 96.9963 201.548 97.6112 201.81 98.2831C202.366 99.7451 202.366 101.364 201.81 102.826C201.55 103.503 201.163 104.123 200.671 104.651C200.182 105.168 199.594 105.579 198.944 105.859C198.263 106.155 197.529 106.304 196.788 106.298L196.787 106.299ZM250.65 109.37V106.149H241.263V91.7522H237.712V109.368L250.65 109.37ZM295.447 109.37V106.149H286.06V91.7522H282.507V109.368L295.447 109.37ZM340.585 109.37V106.199H330.857V102.02H337.205V98.9496H330.857V94.9266H340.488V91.7557H327.302V109.371L340.585 109.37ZM379.991 109.621C381.341 109.62 382.675 109.319 383.899 108.741C385.103 108.201 386.171 107.393 387.024 106.376V106.376L384.695 104.011C384.124 104.708 383.414 105.276 382.612 105.677C381.826 106.063 380.962 106.261 380.088 106.255C379.351 106.263 378.62 106.123 377.936 105.842C377.253 105.562 376.631 105.146 376.107 104.62C375.602 104.105 375.203 103.493 374.934 102.82C374.645 102.106 374.498 101.341 374.504 100.568C374.497 99.7887 374.639 99.0149 374.922 98.2902C375.185 97.6158 375.576 97.0003 376.073 96.4786C376.571 95.9607 377.167 95.5498 377.825 95.2705C378.511 94.9752 379.249 94.8253 379.993 94.8301C380.895 94.8268 381.784 95.0376 382.591 95.4455C383.423 95.869 384.151 96.4753 384.723 97.2202V97.2202L387.125 94.779C386.28 93.7387 385.206 92.9154 383.989 92.3758C382.738 91.7896 381.377 91.4847 379.999 91.482C378.768 91.4735 377.548 91.713 376.409 92.1866C375.329 92.6302 374.343 93.2795 373.505 94.0993C372.677 94.9199 372.018 95.8995 371.568 96.9809C371.101 98.1147 370.859 99.3308 370.857 100.559C370.855 101.788 371.093 103.005 371.556 104.14C372.001 105.218 372.655 106.194 373.479 107.01C374.318 107.83 375.304 108.479 376.383 108.923C377.528 109.395 378.755 109.632 379.991 109.62V109.621ZM426.993 109.37V94.973H432.751V91.751H417.655V94.973H423.439V109.368L426.993 109.37ZM467.696 109.37V91.7545H464.143V109.37H467.696ZM508.621 109.648C509.848 109.657 511.065 109.417 512.199 108.943C513.273 108.501 514.251 107.847 515.075 107.02C515.9 106.193 516.555 105.209 517.003 104.124C517.471 102.997 517.713 101.786 517.713 100.562C517.713 99.3392 517.471 98.1283 517.003 97.0012C516.555 95.9162 515.9 94.9317 515.075 94.1046C514.251 93.2775 513.273 92.624 512.199 92.1818C509.912 91.2431 507.355 91.2431 505.069 92.1818C503.995 92.6246 503.017 93.2784 502.193 94.1054C501.369 94.9325 500.714 95.9166 500.266 97.0012C499.797 98.1281 499.555 99.339 499.555 100.562C499.555 101.786 499.797 102.997 500.266 104.124C500.714 105.208 501.369 106.192 502.193 107.019C503.017 107.846 503.995 108.5 505.069 108.943C506.195 109.415 507.403 109.653 508.621 109.645V109.648ZM508.621 106.301C507.884 106.307 507.154 106.157 506.478 105.86C505.832 105.579 505.248 105.168 504.762 104.652C504.27 104.124 503.882 103.505 503.622 102.827C503.066 101.365 503.066 99.7462 503.622 98.2843C503.884 97.6121 504.272 96.9972 504.762 96.4727C505.248 95.9571 505.832 95.5462 506.478 95.2646C507.154 94.9676 507.884 94.8176 508.621 94.8242C509.362 94.8185 510.096 94.9685 510.777 95.2646C511.428 95.5443 512.016 95.9554 512.505 96.4727C512.995 96.9975 513.382 97.6124 513.644 98.2843C514.201 99.7461 514.201 101.366 513.644 102.827C513.384 103.504 512.997 104.124 512.505 104.652C512.016 105.169 511.428 105.58 510.777 105.86C510.096 106.156 509.362 106.305 508.621 106.298V106.301ZM552.902 109.371V97.588L561.651 109.371H564.787V91.7557H561.455V103.156L552.927 91.7557H549.544V109.371H552.902Z" fill="white"/>
<path fill-rule="evenodd" clip-rule="evenodd" d="M49.6343 40.5701C49.0199 38.9795 47.7832 37.5906 46.3894 36.6294C44.0845 35.456 41.2409 35.316 38.9776 36.6523C37.4969 37.7787 36.2288 39.3134 35.8189 41.158C35.5725 43.2956 35.5439 45.0849 36.8741 46.8486L37.2886 47.3309L37.95 48.1392C39.5793 49.4723 41.2828 50.1814 43.404 50.0705C45.2566 49.8002 46.927 49.0681 48.1646 47.6248C49.7403 45.4379 49.9503 43.211 49.6343 40.5701ZM47.2827 40.8622C46.7903 39.7805 45.9888 39.2212 45.023 38.5473C43.3039 37.9635 41.7677 37.8999 40.1178 38.6943C39.0168 39.6904 38.243 40.4332 38.0889 41.9679C38.0661 43.9 38.2261 44.8082 39.5081 46.3105C40.4861 47.2991 41.4171 47.6039 42.7817 47.6964C44.3498 47.5781 45.3228 46.971 46.4009 45.8593C47.5435 44.2719 47.555 42.758 47.2827 40.8622Z" fill="white"/>
<path d="M29.6455 78.4883C33.5256 78.4883 37.4057 78.4883 41.4034 78.4883C41.0132 80.439 40.0614 81.2012 38.6844 82.5668C38.4597 82.801 38.235 83.0351 38.0035 83.2764C37.6744 83.606 37.6744 83.606 37.3386 83.9424C37.1388 84.1439 36.9391 84.3454 36.7332 84.5531C36.1123 84.9551 36.1123 84.9551 35.3821 84.9456C34.4809 84.599 34.0139 84.1667 33.3417 83.475C33.1077 83.2373 32.8737 82.9995 32.6326 82.7545C32.3926 82.5046 32.1525 82.2547 31.9052 81.9973C31.6595 81.7462 31.4138 81.4952 31.1606 81.2366C30.5549 80.617 29.952 79.9948 29.3516 79.3701C29.4486 79.0791 29.5456 78.7881 29.6455 78.4883Z" fill="white"/>
<path d="M37.582 86.7188C41.5591 86.7188 45.5362 86.7188 49.6338 86.7188C49.1958 88.4707 48.0053 89.38 46.7495 90.6319C46.5083 90.8814 46.2671 91.1309 46.0186 91.388C45.6682 91.7396 45.6682 91.7396 45.3107 92.0982C45.0971 92.3139 44.8835 92.5296 44.6634 92.7519C44.0488 93.1856 44.0488 93.1856 43.4616 93.1787C42.6984 92.8064 42.203 92.3359 41.6008 91.7365C41.3659 91.5027 41.131 91.2689 40.8889 91.028C40.6464 90.7821 40.4039 90.5362 40.1541 90.2828C39.907 90.0392 39.66 89.7956 39.4054 89.5445C39.172 89.31 38.9386 89.0754 38.6981 88.8338C38.4839 88.6186 38.2697 88.4034 38.0491 88.1817C37.582 87.6006 37.582 87.6006 37.582 86.7188Z" fill="white"/>
<path fill-rule="evenodd" clip-rule="evenodd" d="M51.4524 28.2607C54.2927 30.0204 56.3509 32.3142 57.8641 35.2787L58.2109 35.9481C60.0998 39.8708 60.0036 44.0942 58.746 48.2123C57.7787 50.8307 56.3291 53.0169 54.3368 54.9731L55.0716 55.7447C57.447 58.5319 59.4405 62.1096 59.3339 65.8491H61.6854L61.7314 65.2428C62.1695 61.4984 63.9375 57.8748 66.6825 55.267L66.3587 54.8559C62.8621 50.3194 61.3161 46.0023 61.6854 40.2758C62.3525 35.6638 64.8445 31.8514 68.5323 29.053C72.7785 26.1977 77.483 25.4615 82.497 26.3684C87.1727 27.7123 90.5605 30.3021 93.1377 34.3968C95.9429 39.5528 95.7565 45.3256 94.1929 50.8621C92.8002 55.5497 90.5219 59.8576 87.2587 63.4975L86.7799 64.1026C83.4387 68.2645 78.3562 71.0656 73.4433 72.9038L72.6361 73.223C64.1278 76.362 53.5757 75.719 45.3261 72.0952C36.7982 68.1472 30.6219 61.0682 27.3672 52.2908C26.3155 49.367 26.0171 46.622 26.0261 43.5275L26.0117 42.5452C26.009 37.9437 27.5522 34.2892 30.7189 30.9533C32.6951 29.0297 34.7163 27.7566 37.2879 26.7542L38.0641 26.427C42.5658 25.2388 47.4276 26.1111 51.4524 28.2607ZM50.2032 33.313C52.3338 35.0563 54.14 37.5129 54.6307 40.2759C54.9267 44.2284 54.5837 47.548 51.9117 50.6926C49.1914 53.467 46.4962 54.751 42.6341 54.8262C39.135 54.8051 36.6354 53.7173 34.1108 51.2656C31.4494 48.3671 30.5498 45.3476 30.7005 41.4436C31.0214 38.3357 32.6243 35.6791 34.9099 33.5898C39.5015 29.9293 45.458 29.9236 50.2032 33.313ZM90.0901 39.4752C89.3252 36.7223 87.5696 34.6332 85.3365 32.9532C80.1803 29.4165 73.7065 30.3485 69.3222 34.6905C67.0629 37.3682 66.2047 40.3093 66.3081 43.7753C66.5829 46.8849 67.909 49.6222 70.2097 51.7394C73.4725 54.4693 76.6446 54.9883 80.7918 54.6788C83.358 54.2293 86.1298 52.712 87.7145 50.6233L88.1405 49.9757C90.3923 46.5819 90.6274 43.4588 90.0901 39.4752Z" fill="white"/>
<path fill-rule="evenodd" clip-rule="evenodd" d="M85.275 40.3676C84.2203 38.4165 83.2203 37.2191 81.2148 36.234C78.5328 35.3231 75.9776 35.593 73.7376 37.3363C72.2851 38.6286 71.5211 40.2726 71.3022 42.1829C71.2151 44.6784 72.0321 46.4478 73.7135 48.2708C75.2867 49.6316 77.2372 50.1835 79.2973 50.0678C81.3435 49.7613 83.0112 48.5976 84.3196 47.0365C85.4558 44.9296 85.9245 42.6952 85.275 40.3676ZM83.1436 41.4508C82.5603 39.9996 81.5494 38.9937 80.2041 38.2174C78.5578 37.892 77.1795 37.993 75.648 38.6767C74.5364 39.7604 73.8207 40.6673 73.6558 42.2167C73.631 44.1218 73.9042 45.008 75.207 46.4479C76.4863 47.3581 77.45 47.832 79.0341 47.7339C80.6334 47.4311 81.6212 46.6533 82.5373 45.364C83.2613 44.0899 83.4003 42.8886 83.1436 41.4508Z" fill="white"/>
<path d="M62.5679 94.6562C66.254 94.6562 69.9401 94.6562 73.7379 94.6562C74.0318 96.126 74.0318 96.126 73.6028 96.7832C73.389 96.999 73.1751 97.2149 72.9548 97.4373C72.7217 97.6726 72.4887 97.9079 72.2486 98.1503C72.0004 98.3917 71.7522 98.633 71.4965 98.8817C71.2552 99.1299 71.0138 99.3781 70.7651 99.6338C70.5298 99.8668 70.2945 100.1 70.0521 100.34C69.8362 100.554 69.6204 100.768 69.398 100.988C68.7408 101.417 68.7408 101.417 68.0019 101.404C66.6118 100.869 65.6946 99.7389 64.6623 98.698C64.4281 98.4733 64.1939 98.2486 63.9527 98.0171C63.623 97.688 63.623 97.688 63.2867 97.3523C63.0852 97.1525 62.8836 96.9527 62.676 96.7469C62.274 96.126 62.274 96.126 62.5679 94.6562Z" fill="white"/>
<path d="M70.7984 86.4238C74.4845 86.4238 78.1705 86.4238 81.9683 86.4238C82.2623 87.8936 82.2623 87.8936 81.8333 88.5508C81.6194 88.7666 81.4056 88.9825 81.1852 89.2048C80.9522 89.4401 80.7192 89.6754 80.4791 89.9179C80.2309 90.1593 79.9827 90.4006 79.727 90.6493C79.4856 90.8975 79.2443 91.1457 78.9956 91.4014C78.7603 91.6344 78.525 91.8675 78.2825 92.1076C78.0667 92.3214 77.8508 92.5353 77.6285 92.7556C76.9712 93.1846 76.9712 93.1846 76.2324 93.1718C74.8423 92.637 73.9251 91.5065 72.8927 90.4656C72.6586 90.2409 72.4244 90.0162 72.1831 89.7847C71.8535 89.4556 71.8535 89.4556 71.5172 89.1199C71.3156 88.9201 71.1141 88.7203 70.9065 88.5145C70.5044 87.8936 70.5044 87.8936 70.7984 86.4238Z" fill="white"/>
<path d="M54.3369 102.887C58.12 102.887 61.9031 102.887 65.8008 102.887C65.9463 103.469 65.9463 103.469 66.0948 104.062C65.6341 104.713 65.6341 104.713 64.9431 105.409C64.6955 105.659 64.4479 105.908 64.1927 106.165C63.9292 106.423 63.6657 106.681 63.3941 106.947C63.1363 107.21 62.8784 107.474 62.6128 107.745C62.3632 107.993 62.1137 108.241 61.8567 108.496C61.627 108.724 61.3973 108.952 61.1606 109.187C60.5098 109.647 60.5098 109.647 59.9179 109.644C58.5985 108.988 57.6256 107.795 56.5966 106.763C56.3471 106.522 56.0976 106.281 55.8405 106.032C55.6062 105.799 55.3718 105.565 55.1303 105.324C54.9146 105.111 54.6989 104.897 54.4766 104.677C54.3335 104.474 54.1904 104.271 54.043 104.062C54.14 103.674 54.237 103.286 54.3369 102.887Z" fill="white"/>
<path d="M46.1064 94.6562C49.8895 94.6562 53.6726 94.6562 57.5703 94.6562C57.7159 95.2383 57.7159 95.2383 57.8643 95.832C57.4036 96.4829 57.4036 96.4829 56.7126 97.1789C56.465 97.4284 56.2174 97.6779 55.9623 97.935C55.6987 98.1929 55.4352 98.4507 55.1637 98.7164C54.9058 98.9799 54.648 99.2435 54.3823 99.515C54.1328 99.7626 53.8833 100.01 53.6262 100.265C53.3965 100.493 53.1668 100.721 52.9301 100.956C52.2793 101.417 52.2793 101.417 51.6874 101.414C50.3681 100.757 49.3952 99.5649 48.3662 98.5327C48.1166 98.2915 47.8671 98.0503 47.6101 97.8018C47.3757 97.5682 47.1413 97.3346 46.8999 97.0939C46.6842 96.8803 46.4684 96.6667 46.2462 96.4465C46.1031 96.2438 45.9599 96.041 45.8125 95.832C45.9095 95.444 46.0065 95.056 46.1064 94.6562Z" fill="white"/>
<path d="M78.7344 78.4883C82.6145 78.4883 86.4946 78.4883 90.4922 78.4883C90.1021 80.439 89.1502 81.2012 87.7732 82.5668C87.5485 82.801 87.3238 83.0351 87.0923 83.2764C86.7632 83.606 86.7632 83.606 86.4275 83.9424C86.2277 84.1439 86.0279 84.3454 85.8221 84.5531C85.2012 84.9551 85.2012 84.9551 84.471 84.9456C83.5698 84.599 83.1028 84.1667 82.4305 83.475C82.1965 83.2373 81.9626 82.9995 81.7215 82.7545C81.4814 82.5046 81.2414 82.2547 80.9941 81.9973C80.7484 81.7462 80.5026 81.4952 80.2495 81.2366C79.6437 80.617 79.0409 79.9948 78.4404 79.3701C78.5374 79.0791 78.6344 78.7881 78.7344 78.4883Z" fill="white"/>
<path d="M62.2734 78.4883C66.1535 78.4883 70.0336 78.4883 74.0313 78.4883C74.0313 80.1172 73.3243 80.5407 72.2223 81.6626C71.9765 81.9064 71.7308 82.1502 71.4776 82.4014C71.2376 82.651 70.9975 82.9005 70.7502 83.1575C70.5162 83.3919 70.2823 83.6263 70.0412 83.8677C69.8272 84.0834 69.6133 84.2992 69.3928 84.5214C68.7403 84.9551 68.7403 84.9551 68.0014 84.9436C67.1464 84.6132 66.6833 84.2258 66.0339 83.5807C65.8132 83.3615 65.5924 83.1423 65.365 82.9164C65.139 82.6859 64.913 82.4553 64.6801 82.2177C64.4484 81.9906 64.2167 81.7634 63.978 81.5294C63.7592 81.309 63.5403 81.0887 63.3149 80.8617C63.0149 80.5597 63.0149 80.5597 62.7088 80.2516C62.2734 79.6641 62.2734 79.6641 62.2734 78.4883Z" fill="white"/>
<path d="M45.8125 78.4883C49.6926 78.4883 53.5727 78.4883 57.5703 78.4883C57.5703 80.1172 56.8633 80.5407 55.7613 81.6626C55.5156 81.9064 55.2699 82.1502 55.0167 82.4014C54.7766 82.651 54.5366 82.9005 54.2893 83.1575C54.0553 83.3919 53.8213 83.6263 53.5803 83.8677C53.3663 84.0834 53.1523 84.2992 52.9319 84.5214C52.2793 84.9551 52.2793 84.9551 51.5404 84.9436C50.6854 84.6132 50.2224 84.2258 49.5729 83.5807C49.3522 83.3615 49.1315 83.1423 48.9041 82.9164C48.6781 82.6859 48.4521 82.4553 48.2192 82.2177C47.9875 81.9906 47.7558 81.7634 47.517 81.5294C47.2982 81.309 47.0794 81.0887 46.8539 80.8617C46.5539 80.5597 46.5539 80.5597 46.2479 80.2516C45.8125 79.6641 45.8125 79.6641 45.8125 78.4883Z" fill="white"/>
<path d="M59.9035 86.6633C60.2898 86.6597 60.6761 86.6561 61.0741 86.6524C61.4423 86.6518 61.8104 86.6512 62.1896 86.6506C62.5295 86.6494 62.8694 86.6482 63.2195 86.647C64.0371 86.7184 64.0371 86.7184 64.625 87.3063C64.7651 88.1089 64.7651 88.1089 64.625 89.0699C64.0891 89.7749 63.6047 90.3246 62.9716 90.9255C62.8181 91.0833 62.6647 91.2411 62.5065 91.4037C61.74 92.1541 61.2049 92.5618 60.1722 92.9039C58.8888 92.8845 58.4479 92.2902 57.5623 91.4319C57.3709 91.2344 57.1796 91.037 56.9824 90.8336C56.8002 90.6574 56.6179 90.4812 56.4301 90.2997C55.9572 89.8092 55.5612 89.3651 55.2188 88.776C55.2732 85.8366 57.5564 86.6644 59.9035 86.6633Z" fill="white"/>
<path fill-rule="evenodd" clip-rule="evenodd" d="M100.646 15.29C100.342 15.0191 100.038 14.7485 99.7341 14.4782C79.1719 -3.54702 47.6445 -4.86104 25.5448 11.208L24.8076 11.7626C12.54 20.8465 3.78827 34.6177 1.41345 49.7594L1.29195 50.5635C0.321828 56.5836 0.221346 63.1925 1.11053 69.228L1.29195 70.2579C2.06942 74.9501 3.57518 79.6397 5.53006 83.9724L5.99509 84.9552C7.96921 89.1825 10.2887 93.122 13.0865 96.8601C22.5118 109.138 36.7987 117.273 52.0575 119.448C68.2053 121.554 84.1795 117.632 97.1448 107.673L98.0003 107.001C102.514 103.467 106.232 99.2885 109.65 94.7039C118.372 82.7227 122.467 66.596 120.229 51.915L120.046 50.8575C118.418 40.3213 113.865 30.0093 107.025 21.8142L106.231 20.875C104.684 18.977 102.948 17.3292 101.119 15.7084L100.646 15.29ZM23.8953 41.2167C23.9017 34.0442 23.912 26.8717 23.9258 19.6992C25.745 19.4844 27.0759 19.4893 28.5984 20.5802C33.7028 24.3856 38.3342 24.4273 44.4795 24.3753C45.898 24.3615 47.3159 24.3627 48.7344 24.369C51.1253 24.3797 53.5158 24.3773 55.9066 24.3585C58.6659 24.3358 61.424 24.3285 64.1833 24.3509C66.587 24.3707 68.9903 24.3804 71.394 24.3729C71.602 24.372 71.8099 24.371 72.0178 24.37C73.2428 24.3641 74.4677 24.3582 75.6927 24.3672C75.9774 24.37 76.2603 24.3732 76.5416 24.3763C82.136 24.4394 87.08 24.4951 91.8926 21.1353C93.795 19.7887 95.0777 19.4211 97.4124 19.6992C97.4189 26.4106 97.4241 33.122 97.4272 39.8334C97.4286 43.0977 97.4302 46.3621 97.4335 49.6264C97.4365 52.4923 97.4389 55.3582 97.4398 58.2241L97.4399 58.6544C97.4402 60.0264 97.4405 61.3984 97.4422 62.7705C97.4442 64.2175 97.4459 65.6645 97.4459 67.1115C97.4457 67.6478 97.4456 68.184 97.4457 68.7202L97.4459 68.7977C97.4489 70.1711 97.4519 71.5445 97.4385 72.9179C97.2028 83.3993 92.1586 94.383 84.597 101.639L83.8908 102.298C77.9188 107.996 71.0114 112.668 62.7267 114.056C55.2595 114.579 48.2919 111.259 42.4616 106.82L41.5626 106.119C36.6198 102.407 32.3894 97.4509 29.4051 92.0329L28.9229 91.1281C27.5767 88.748 26.5073 86.4002 25.7033 83.7797L25.4323 82.8609C24.2067 78.73 23.8383 74.7468 23.8557 70.4658C23.858 69.9366 23.8591 69.4075 23.8593 68.8783C23.8584 67.4293 23.8596 65.9802 23.8637 64.5312C23.8679 62.9946 23.8697 61.458 23.8705 59.9215C23.8718 57.0172 23.8756 54.1129 23.8815 51.2085C23.8882 47.8779 23.8923 44.5473 23.8953 41.2167Z" fill="white"/>
</svg>
