<svg width="480" height="202" viewBox="0 0 480 202" fill="none" xmlns="http://www.w3.org/2000/svg">
<path d="M50.8573 183.529C50.3571 189.918 43.8179 192.632 37.3787 192.632C27.9763 192.632 23 187.255 23 179.103C23 170.601 28.739 165.475 37.8414 165.475C43.9305 165.475 49.807 167.888 50.6697 174.477H45.4433C44.9932 170.801 42.0175 168.901 37.8914 168.901C32.565 168.901 28.2389 172.376 28.2389 179.116C28.2389 184.492 31.4022 189.231 37.6413 189.231C42.2675 189.231 45.3808 187.068 45.6434 183.542L50.8573 183.529Z" fill="white"/>
<path d="M72.2635 192.632C61.9983 192.632 56.4844 187.705 56.4844 179.053C56.4844 170.851 61.7107 165.475 72.2635 165.475C82.5287 165.475 88.0426 170.401 88.0426 179.053C88.0426 187.705 82.5287 192.632 72.2635 192.632ZM61.7107 179.053C61.7107 184.792 65.3867 189.218 72.276 189.218C79.1653 189.218 82.8412 184.792 82.8412 179.053C82.8412 173.314 79.1653 168.888 72.276 168.888C65.3867 168.888 61.7107 173.314 61.7107 179.053Z" fill="white"/>
<path d="M95.494 172.164C95.494 170.251 95.394 168.438 95.2939 166.425H99.9201C100.02 167.688 100.12 169.138 100.12 170.901H100.22C103.083 167.025 106.709 165.475 110.835 165.475C115.062 165.475 118.575 167.538 120.038 171.814C121.851 168.338 125.777 165.475 130.453 165.475C137.642 165.475 142.069 169.001 142.069 177.19V191.681H137.142V179.053C137.142 172.914 135.379 168.888 130.003 168.888C125.677 168.888 121.251 171.851 121.251 180.153V191.669H116.312V178.741C116.312 171.951 113.999 168.888 109.473 168.888C105.147 168.888 100.42 172.001 100.42 179.453V191.669H95.494V172.176V172.164Z" fill="white"/>
<path d="M150.996 172.164C150.996 170.251 150.896 168.438 150.796 166.425H155.722C155.822 167.375 155.922 168.538 155.922 170.001C158.485 167.088 162.511 165.475 166.988 165.475C174.527 165.475 181.066 170.851 181.066 179.053C181.066 187.255 174.527 192.632 166.988 192.632C162.962 192.632 159.036 191.681 155.922 188.356V201.334H150.996V172.164ZM165.862 189.206C171.751 189.206 175.815 185.43 175.815 179.041C175.815 172.651 171.739 168.876 165.862 168.876C160.023 168.876 155.91 172.651 155.91 179.041C155.922 185.43 160.036 189.206 165.862 189.206Z" fill="white"/>
<path d="M216.45 185.941C216.45 187.854 216.55 189.667 216.65 191.68H212.024C211.924 190.418 211.824 188.967 211.824 187.204H211.724C208.861 191.08 205.235 192.631 200.709 192.631C193.619 192.631 188.48 188.655 188.48 180.765V166.424H193.407V180.503C193.407 186.129 196.77 189.205 201.509 189.205C206.185 189.205 211.524 186.342 211.524 178.339V166.424H216.45V185.941Z" fill="white"/>
<path d="M229.104 161.811L234.03 159.748V166.437H241.47V169.863H234.03V184.392C234.03 187.105 234.78 188.568 237.856 188.568C238.756 188.568 240.219 188.468 241.632 188.268V191.694C240.019 191.894 238.419 191.994 236.906 191.994C231.93 191.994 229.104 190.381 229.104 184.755V169.863H222.515V166.437H229.104V161.811Z" fill="white"/>
<path d="M274.416 180.353H250.784C251.285 185.53 254.61 189.206 260.137 189.206C263.713 189.206 267.476 187.693 268.589 184.079H273.815C272.815 190.819 265.976 192.632 260.387 192.632C251.135 192.632 245.846 187.555 245.846 179.553C245.846 170.351 251.372 165.475 260.537 165.475C269.489 165.475 274.416 170.301 274.416 178.853V180.353ZM269.177 176.94C269.077 171.101 264.751 168.888 260.425 168.888C255.348 168.888 251.722 171.351 250.972 176.94H269.177Z" fill="white"/>
<path d="M281.505 172.163C281.505 170.25 281.405 168.437 281.305 166.424H285.931C286.031 167.937 286.131 169.75 286.131 171.451H286.231C288.494 167.375 290.707 166.074 296.334 166.074H297.997V170.5C297.246 170.25 296.534 170.2 295.633 170.2C289.694 170.2 286.431 174.376 286.431 179.453V191.668H281.505V172.163Z" fill="white"/>
<path d="M55.8562 9.78478V23.6598C55.8562 25.1297 55.1064 25.3599 54.3863 25.59V26.08H60.793V25.59C60.0729 25.3599 59.3231 25.1372 59.3231 23.6598V9.78478C59.3231 8.94589 59.5829 8.74545 60.6816 8.74545C63.6808 8.74545 65.1507 8.80484 66.2198 10.4678L66.5909 10.2376L65.3809 6.68164H49.7687L48.5586 10.2451L48.9372 10.4752C50.2364 8.83454 51.246 8.75287 54.505 8.75287C55.5963 8.75287 55.8562 8.95332 55.8562 9.78478ZM63.1537 11.7744C64.104 12.0342 64.5939 12.2643 64.5939 13.7045V23.6598C64.5939 25.1297 64.104 25.3599 63.1537 25.59V26.08H75.2396L76.6205 22.6131L76.2419 22.3532C75.0318 23.9493 73.7623 24.3131 72.092 24.3131H68.974C67.994 24.3131 67.7639 24.2908 67.7639 23.3332V19.1833H71.5426C73.0125 19.1833 73.2426 19.5322 73.4802 20.4008H74.0518V16.2509H73.4802C73.2501 17.1195 73.0199 17.4907 71.5426 17.4907H67.7639V14.0015C67.7639 13.2814 67.994 13.0438 68.974 13.0438C68.974 13.0438 71.4016 13.0438 71.6243 13.0438C73.3243 13.0438 74.2226 13.4818 75.5143 14.8552L75.8855 14.5954L74.6754 11.277H63.1537V11.7744ZM78.6917 13.4818L82.3887 18.7007L78.8996 23.6598C77.8305 25.1594 77.1995 25.3599 76.2196 25.59V26.08H81.8171V25.59C80.7481 25.3896 80.2878 24.9813 81.0079 23.8603L83.4503 20.0444L86.0264 23.7489C86.9766 25.1075 85.967 25.4712 85.0984 25.59V26.08H95.217V25.59C94.2074 25.4193 93.7471 25.0703 94.2668 23.6895L94.9275 21.9672H100.985L101.624 23.6895C102.032 24.8179 101.884 25.4193 100.703 25.59V26.08H106.932V25.59C106.212 25.3599 105.551 24.7585 105.232 23.9197L100.414 11.2844H97.1249L92.5073 23.0585C92.0174 24.276 91.5719 24.855 91.082 25.1891C90.7034 24.9516 90.3545 24.5729 89.8868 23.9271L85.8334 18.1662L89.1147 13.5338C89.9833 12.294 90.7034 12.0342 91.5645 11.7744V11.2844H86.2862V11.7744C87.3775 11.8634 87.6967 12.4722 87.0657 13.415L84.7792 16.8003L82.7154 13.6971C81.8468 12.4276 82.4852 11.908 83.4355 11.7595V11.2695H76.4274V11.7595C77.4 12.0342 77.8825 12.3237 78.6917 13.4818ZM98.0084 13.853L100.377 20.3117H95.5437L98.0084 13.853ZM108.275 26.0725C108.275 25.835 108.506 25.345 108.795 25.345C109.456 25.6642 110.584 26.325 112.655 26.325C116.145 26.325 118.594 24.5952 118.594 21.6554C118.594 18.8863 117.065 17.7579 114.125 17.0972L111.445 16.4885C109.916 16.1395 109.426 15.7015 109.426 14.7587C109.426 13.66 110.287 12.9399 112.195 12.9399C114.326 12.9399 116.004 13.9495 117.214 15.3452L117.592 15.0854L116.494 11.277H115.803C115.803 11.5962 115.662 11.9377 115.373 11.9377C114.734 11.5888 113.754 11.0468 112.084 11.0468C109.085 11.0468 106.746 12.5984 106.746 15.4269C106.746 17.5872 108.045 18.9383 110.874 19.5767L113.413 20.1558C115.113 20.5196 115.721 21.1357 115.721 22.2048C115.721 23.6747 114.541 24.4542 112.611 24.4542C109.901 24.4542 108.172 23.0288 106.754 21.3956L106.375 21.6554L107.555 26.0725H108.275Z" fill="white"/>
<path d="M127.934 7.19505C128.832 7.45488 129.545 7.68502 129.545 9.12523V23.6684C129.545 25.1383 128.824 25.3685 127.934 25.5986V26.0886H134.622V25.5986C133.732 25.3685 133.004 25.1383 133.004 23.6684V9.12523C133.004 7.67759 133.724 7.44746 134.622 7.19505V6.70508H127.934V7.19505ZM146.3 11.7829C147.161 12.0428 147.659 12.2729 147.659 13.7131V19.7709H147.569L140.131 11.2855H135.781V11.7755C136.649 12.1393 137.221 12.4362 137.221 13.7057V23.661C137.221 25.0418 136.731 25.361 135.781 25.5912V26.0811H140.71V25.5912C139.93 25.361 139.181 25.0492 139.181 23.661V15.0717H139.27L149.106 26.2816H149.626V13.7131C149.626 12.2729 150.346 12.0354 150.925 11.7829V11.2855H146.307L146.3 11.7829ZM159.188 17.1132L156.508 16.5119C154.978 16.163 154.488 15.725 154.488 14.7821C154.488 13.6909 155.357 12.9633 157.258 12.9633C159.396 12.9633 161.066 13.973 162.276 15.3686L162.655 15.1088L161.563 11.3004H160.865C160.865 11.6196 160.724 11.9685 160.435 11.9685C159.796 11.6196 158.824 11.0777 157.146 11.0777C154.14 11.0777 151.801 12.6293 151.801 15.4577C151.801 17.6106 153.1 18.9692 155.929 19.6076L158.46 20.1867C160.16 20.5504 160.769 21.1666 160.769 22.2356C160.769 23.7055 159.589 24.4776 157.651 24.4776C154.949 24.4776 153.204 23.0671 151.794 21.4264L151.415 21.6863L152.595 26.096H153.315C153.315 25.8658 153.546 25.3759 153.835 25.3759C154.496 25.6951 155.624 26.3558 157.695 26.3558C161.185 26.3558 163.635 24.6335 163.635 21.6863C163.664 18.8949 162.135 17.7739 159.188 17.1132ZM164.525 11.293L163.338 15.1014L163.716 15.3612C165.305 13.2528 165.735 13.0524 167.836 13.0524C168.556 13.0524 168.787 13.1118 168.787 14.0027V23.6684C168.787 25.1383 168.356 25.3685 167.176 25.5986V26.0886H173.523V25.5986C172.365 25.3685 171.905 25.1457 171.905 23.6684V14.0027C171.905 13.1118 172.135 13.0524 172.862 13.0524C174.971 13.0524 175.527 13.2454 177.101 15.3612L177.48 15.1014L176.299 11.293H164.525ZM190.212 21.6937C189.321 20.2535 188.4 19.615 187.331 19.3552V19.2661C189.87 18.8578 191.31 17.5364 191.31 15.3686C191.31 12.4956 189.002 11.2707 185.282 11.2707H177.695V11.7607C178.653 12.0205 179.143 12.2506 179.143 13.6909V23.6461C179.143 25.116 178.653 25.3462 177.695 25.5763V26.0663H183.894V25.5763C183.003 25.3462 182.394 25.116 182.394 23.6461V19.9639H183.924C185.713 19.9639 185.973 20.6841 187.123 23.1116C188.074 25.1012 189.343 26.341 191.734 26.341C192.951 26.341 193.434 26.1034 193.924 25.851V25.4427C192.001 25.1532 191.37 23.5719 190.212 21.6937ZM184.941 18.2342H182.402V14.307C182.402 13.3568 182.639 13.097 183.359 13.097H185C186.789 13.097 187.829 13.7874 187.829 15.5171C187.821 17.3434 186.641 18.2342 184.941 18.2342ZM203.329 11.7829C204.079 11.9611 204.799 12.2729 204.799 13.7131V21.0107C204.799 23.4383 203.879 24.4999 201.139 24.4999C198.229 24.4999 197.19 23.4308 197.19 21.0107V13.7131C197.19 12.2729 197.739 11.9537 198.638 11.7829V11.293H192.58V11.7829C193.471 11.924 194.05 12.2729 194.05 13.7131V21.2334C194.05 25.1829 197.48 26.341 200.716 26.341C204.324 26.341 206.885 25.1235 206.885 20.9958V13.6983C206.885 12.2581 207.323 11.976 208.214 11.7681V11.2855H203.337L203.329 11.7829ZM218.674 20.8919L214.406 11.2855H209.105V11.7755C210.055 12.0354 210.545 12.2655 210.545 13.7057V23.661C210.545 24.9527 209.996 25.3016 209.105 25.5912V26.0811H213.804V25.5912C212.824 25.3313 212.394 24.9527 212.394 23.661V14.3813L217.724 26.3187H218.132L223.322 14.3813V23.6684C223.322 25.1383 222.691 25.3907 221.971 25.5986V26.0886H228.028V25.5986C227.078 25.3685 226.588 25.1383 226.588 23.6684V13.7131C226.588 12.2729 227.078 12.0354 228.028 11.7829V11.293H222.809L218.674 20.8919ZM238.11 24.3217H234.992C234.012 24.3217 233.782 24.2994 233.782 23.3418V19.1919H237.56C239.03 19.1919 239.261 19.5334 239.491 20.4019H240.07V16.2521H239.491C239.261 17.1132 239.03 17.4918 237.56 17.4918H233.782V14.0027C233.782 13.2825 234.012 13.045 234.992 13.045C234.992 13.045 237.412 13.045 237.642 13.045C239.342 13.045 240.233 13.483 241.54 14.8564L241.911 14.5966L240.693 11.2781H229.157V11.7681C230.114 12.0279 230.597 12.2581 230.597 13.6983V23.6536C230.597 25.1235 230.107 25.3536 229.157 25.5837V26.0737H241.243L242.631 22.6068L242.252 22.347C241.05 23.9431 239.78 24.3217 238.11 24.3217ZM253.507 11.7829C254.368 12.0428 254.865 12.2729 254.865 13.7131V19.7709H254.776L247.338 11.2855H242.98V11.7755C243.848 12.1393 244.427 12.4362 244.427 13.7057V23.661C244.427 25.0418 243.937 25.361 242.98 25.5912V26.0811H247.909V25.5912C247.122 25.361 246.38 25.0492 246.38 23.661V15.0717H246.462L256.298 26.2816H256.825V13.7131C256.825 12.2729 257.545 12.0354 258.124 11.7829V11.2855H253.514L253.507 11.7829ZM259.475 11.293L258.295 15.1014L258.674 15.3612C260.262 13.2528 260.693 13.0524 262.801 13.0524C263.521 13.0524 263.752 13.1118 263.752 14.0027V23.6684C263.752 25.1383 263.321 25.3685 262.141 25.5986V26.0886H268.488V25.5986C267.33 25.3685 266.87 25.1457 266.87 23.6684V14.0027C266.87 13.1118 267.107 13.0524 267.827 13.0524C269.936 13.0524 270.485 13.2454 272.066 15.3612L272.445 15.1014L271.264 11.293H259.475ZM280.581 17.1132L277.901 16.5119C276.372 16.163 275.882 15.725 275.882 14.7821C275.882 13.6909 276.743 12.9633 278.644 12.9633C280.774 12.9633 282.452 13.973 283.662 15.3686L284.026 15.1088L282.942 11.3004H282.244C282.244 11.6196 282.096 11.9685 281.814 11.9685C281.175 11.6196 280.195 11.0777 278.517 11.0777C275.511 11.0777 273.172 12.6293 273.172 15.4577C273.172 17.6106 274.471 18.9692 277.292 19.6076L279.824 20.1867C281.517 20.5504 282.133 21.1666 282.133 22.2356C282.133 23.7055 280.96 24.4776 279.015 24.4776C276.305 24.4776 274.568 23.0671 273.157 21.4264L272.779 21.6863L273.952 26.096H274.679C274.679 25.8658 274.909 25.3759 275.199 25.3759C275.86 25.6951 276.996 26.3558 279.059 26.3558C282.534 26.3558 284.998 24.6335 284.998 21.6863C285.05 18.8949 283.521 17.7739 280.581 17.1132Z" fill="white"/>
<path d="M34.4612 11.1282V6.71852H27.3863L26.4954 11.1654H29.0418L28.2252 15.2633H25.6788L24.7954 19.6953C24.7286 19.9997 24.6766 20.2149 24.6469 20.4228C24.4391 21.7814 25.033 21.7146 26.9335 21.7146L26.0649 26.0797H22.7316C19.5839 26.0797 17.0153 26.05 17.6834 22.8207C17.7874 22.3307 17.9136 21.8259 18.0027 21.3508L19.1905 15.2559H16.7406L17.5572 11.1579H20.0071L20.8979 6.7111H18.6114V0H10.1409V13.6598H0C0.252408 17.2009 3.38524 17.7206 4.5285 20.2372C5.31542 21.9744 6.00583 25.0256 8.29978 25.0478C10.0592 25.0701 10.0592 22.7687 12.3309 22.7687C14.5951 22.7687 15.5973 27.0671 17.6166 30.6157C19.1236 33.3996 21.6329 35.2629 23.9046 35.4263C25.7679 35.5525 26.6736 34.9215 26.6736 34.9215C26.1688 33.9118 25.9164 32.8948 25.9164 31.3803C25.9164 29.1012 27.6758 26.8295 29.6951 25.3077C32.4642 23.2884 35.4856 22.5163 36.4878 22.2713V15.1816C36.4804 15.1816 34.4612 14.1052 34.4612 11.1282ZM22.9172 21.7146L25.8941 6.7111H22.4643L19.4874 21.7146H22.9172ZM26.8147 1.97473H23.3849L22.7316 5.28573H26.1614L26.8147 1.97473Z" fill="white"/>
<path d="M103.476 48.668H78.6074V134.765H103.476V48.668Z" fill="white"/>
<path d="M73.9443 48.668H0V71.5489H24.5439V134.765H49.4129V71.5489H73.9443V48.668Z" fill="white"/>
<path d="M249.614 47.9062C230.234 47.9062 214.53 58.7216 214.53 78.3142C214.53 100.007 230.534 107.809 245.726 107.809C250.465 107.809 257.216 105.309 261.655 101.87C263.806 122.763 240.262 123.926 238.011 111.573H216.318C219.932 131.028 236.936 136.404 250.227 136.367C267.857 136.317 284.686 122.276 284.686 88.2293C284.686 59.9844 268.994 47.9062 249.614 47.9062ZM248.777 90.8424C241.475 90.8424 235.548 84.9284 235.548 77.614C235.548 70.3121 241.462 64.3856 248.777 64.3856C256.091 64.3856 262.005 70.3121 262.005 77.614C262.005 84.9159 256.079 90.8424 248.777 90.8424Z" fill="white"/>
<path d="M173.021 47.9062C153.641 47.9062 137.937 58.7216 137.937 78.3142C137.937 100.007 153.941 107.809 169.132 107.809C173.871 107.809 180.623 105.309 185.061 101.87C187.212 122.763 163.668 123.926 161.418 111.573H139.712C143.325 131.028 160.33 136.404 173.621 136.367C191.25 136.317 208.08 122.276 208.08 88.2293C208.08 59.9844 192.388 47.9062 173.021 47.9062ZM172.17 90.8424C164.869 90.8424 158.942 84.9284 158.942 77.614C158.942 70.3121 164.856 64.3856 172.17 64.3856C179.485 64.3856 185.399 70.3121 185.399 77.614C185.411 84.9159 179.485 90.8424 172.17 90.8424Z" fill="white"/>
<path d="M130.597 80.8652H110.816V97.157H130.597V80.8652Z" fill="white"/>
<path d="M381.5 136.354H356.569C355.306 136.354 354.293 135.328 354.293 134.078V117.249H319.509C318.246 117.249 317.233 116.223 317.233 114.973V96.1431C317.233 95.5929 317.433 95.0678 317.796 94.6552L357.681 48.7057C358.119 48.2055 358.744 47.918 359.407 47.918H381.513C382.775 47.918 383.788 48.9432 383.788 50.1936V94.9302H390.052C391.315 94.9302 392.328 95.9555 392.328 97.2058V114.973C392.328 116.236 391.303 117.249 390.052 117.249H383.788V134.078C383.776 135.341 382.75 136.354 381.5 136.354ZM358.832 131.802H379.212V114.973C379.212 113.71 380.237 112.697 381.488 112.697H387.752V99.4814H381.488C380.225 99.4814 379.212 98.4562 379.212 97.2058V52.4692H360.42L321.772 96.9933V112.697H356.556C357.819 112.697 358.832 113.723 358.832 114.973V131.802Z" fill="white"/>
<path d="M356.557 99.4842H333.088C332.201 99.4842 331.388 98.9591 331.013 98.1464C330.638 97.3337 330.775 96.3834 331.363 95.7082L354.844 68.6762C355.469 67.9635 356.469 67.7009 357.357 68.0385C358.245 68.3761 358.832 69.2263 358.832 70.1766V97.2086C358.832 98.4715 357.82 99.4842 356.557 99.4842ZM338.09 94.933H354.281V76.2782L338.09 94.933Z" fill="white"/>
<path d="M477.725 136.356H460.458C459.483 136.356 458.62 135.731 458.308 134.818L452.281 117.251H425.449L419.435 134.818C419.122 135.744 418.26 136.356 417.284 136.356H399.98C399.242 136.356 398.555 136.006 398.13 135.406C397.704 134.806 397.592 134.043 397.829 133.343L426.587 49.4461C426.9 48.5209 427.762 47.9082 428.737 47.9082H448.98C449.955 47.9082 450.818 48.5334 451.131 49.4461L479.876 133.343C480.113 134.043 480.001 134.806 479.576 135.406C479.151 136.006 478.463 136.356 477.725 136.356ZM462.084 131.805H474.537L447.355 52.4719H430.363L403.168 131.805H415.634L421.648 114.238C421.961 113.313 422.823 112.7 423.799 112.7H453.894C454.869 112.7 455.732 113.313 456.045 114.238L462.084 131.805ZM449.093 103.235H428.612C427.875 103.235 427.187 102.885 426.762 102.285C426.337 101.685 426.224 100.922 426.462 100.222L436.715 70.3266C437.027 69.4013 437.902 68.7887 438.865 68.7887C439.84 68.7887 440.703 69.4138 441.016 70.3266L451.256 100.222C451.493 100.922 451.381 101.685 450.956 102.285C450.518 102.885 449.83 103.235 449.093 103.235ZM431.801 98.684H445.904L438.853 78.1036L431.801 98.684Z" fill="white"/>
<path d="M319.257 52.4688L280.135 136.353H286.636L325.747 52.4688H319.257Z" fill="white"/>
</svg>
