<svg width="561" height="163" viewBox="0 0 561 163" fill="none" xmlns="http://www.w3.org/2000/svg">
<path d="M38.5149 113.729H33.2027L5.44843 73.8192V113.729H0V65.6465H6.67434L33.0993 103.786V65.6465H38.5149V113.729Z" fill="white"/>
<path d="M70.5246 113.729H43.691L43.5876 65.6465H70.4212V71.0811H48.9852V86.2991H69.0189V91.6928H48.9852V109.222H70.4636L70.5246 113.729Z" fill="white"/>
<path d="M98.0044 64.2772C94.6674 64.2772 91.3632 64.9345 88.2802 66.2115C85.1973 67.4885 82.3961 69.3602 80.0365 71.7198C77.6769 74.0793 75.8052 76.8806 74.5282 79.9635C73.2512 83.0464 72.594 86.3507 72.594 89.6876C72.594 93.0246 73.2512 96.3288 74.5282 99.4117C75.8052 102.495 77.6769 105.296 80.0365 107.655C82.3961 110.015 85.1973 111.887 88.2802 113.164C91.3632 114.441 94.6674 115.098 98.0044 115.098C101.341 115.098 104.646 114.441 107.728 113.164C110.811 111.887 113.613 110.015 115.972 107.655C118.332 105.296 120.204 102.495 121.481 99.4117C122.758 96.3288 123.415 93.0246 123.415 89.6876C123.415 86.3507 122.758 83.0464 121.481 79.9635C120.204 76.8806 118.332 74.0793 115.972 71.7198C113.613 69.3602 110.811 67.4885 107.728 66.2115C104.646 64.9345 101.341 64.2772 98.0044 64.2772ZM98.0718 69.8679C100.684 69.8679 103.27 70.3822 105.683 71.3817C108.096 72.3811 110.288 73.8461 112.135 75.6929C113.982 77.5397 115.447 79.7322 116.446 82.1452C117.446 84.5581 117.96 87.1443 117.96 89.7561C117.96 95.0306 115.864 100.089 112.135 103.819C108.405 107.548 103.346 109.643 98.0718 109.643C92.7974 109.643 87.7392 107.548 84.0096 103.818C80.2801 100.089 78.1848 95.0304 78.1847 89.7561C78.1845 84.4816 80.2797 79.423 84.0093 75.6933C87.7388 71.9635 92.7973 69.8681 98.0718 69.8679V69.8679Z" fill="white"/>
<path d="M234.216 64.2772C230.879 64.2772 227.574 64.9345 224.491 66.2115C221.409 67.4885 218.607 69.3602 216.248 71.7197C213.888 74.0793 212.016 76.8805 210.739 79.9635C209.462 83.0464 208.805 86.3507 208.805 89.6876C208.805 93.0245 209.462 96.3288 210.739 99.4117C212.016 102.495 213.888 105.296 216.248 107.655C218.607 110.015 221.409 111.887 224.491 113.164C227.574 114.441 230.879 115.098 234.216 115.098C237.553 115.098 240.857 114.441 243.94 113.164C247.023 111.887 249.824 110.015 252.183 107.655C254.543 105.296 256.415 102.495 257.692 99.4117C258.969 96.3288 259.626 93.0245 259.626 89.6876C259.626 86.3507 258.969 83.0464 257.692 79.9635C256.415 76.8805 254.543 74.0793 252.183 71.7197C249.824 69.3602 247.023 67.4885 243.94 66.2115C240.857 64.9345 237.553 64.2772 234.216 64.2772V64.2772ZM234.283 69.8679C236.895 69.8679 239.481 70.3822 241.894 71.3817C244.307 72.3811 246.499 73.8461 248.346 75.6929C250.193 77.5397 251.658 79.7322 252.657 82.1451C253.657 84.5581 254.171 87.1443 254.171 89.7561C254.171 95.0306 252.076 100.089 248.346 103.819C244.616 107.548 239.558 109.643 234.283 109.643C229.009 109.643 223.95 107.548 220.221 103.818C216.491 100.089 214.396 95.0304 214.396 89.7561C214.396 84.4816 216.491 79.423 220.221 75.6933C223.95 71.9635 229.009 69.8681 234.283 69.8679H234.283Z" fill="white"/>
<path d="M151.887 64.0193C149.172 64.0584 146.424 64.5346 143.742 65.4868C131.484 69.8398 124.413 82.7832 127.33 95.4913C130.248 108.199 142.261 116.733 155.182 115.256C168.102 113.78 177.892 101.699 177.892 90.5854H171.864C171.864 98.9852 164.409 108.135 154.497 109.267C144.585 110.4 135.453 103.922 133.208 94.1418C130.963 84.3621 136.355 74.5085 145.762 71.1681C154.173 68.1811 163.33 71.2659 168.301 78.4011H175.273C170.996 69.6471 162.292 64.3188 153.047 64.0288C152.661 64.0167 152.274 64.0138 151.887 64.0193V64.0193Z" fill="white"/>
<path d="M177.892 90.5848H144.242V96.0269H173.714L177.892 90.5848Z" fill="white"/>
<path d="M207.826 113.729H180.992L180.889 65.6465H207.722V71.0811H186.286V86.2991H206.32V91.6928H186.286V109.222H207.765L207.826 113.729Z" fill="white"/>
<path d="M345.909 64.2772C342.572 64.2772 339.268 64.9345 336.185 66.2115C333.102 67.4885 330.301 69.3602 327.941 71.7197C325.581 74.0793 323.71 76.8805 322.433 79.9635C321.156 83.0464 320.498 86.3507 320.498 89.6876C320.498 93.0245 321.156 96.3288 322.433 99.4117C323.71 102.495 325.581 105.296 327.941 107.655C330.301 110.015 333.102 111.887 336.185 113.164C339.268 114.441 342.572 115.098 345.909 115.098C349.246 115.098 352.55 114.441 355.633 113.164C358.716 111.887 361.517 110.015 363.877 107.655C366.236 105.296 368.108 102.495 369.385 99.4117C370.662 96.3288 371.319 93.0245 371.319 89.6876C371.319 86.3507 370.662 83.0464 369.385 79.9635C368.108 76.8805 366.236 74.0793 363.877 71.7197C361.517 69.3602 358.716 67.4885 355.633 66.2115C352.55 64.9345 349.246 64.2772 345.909 64.2772V64.2772ZM345.976 69.8679C348.588 69.8679 351.174 70.3822 353.587 71.3817C356 72.3811 358.193 73.8461 360.039 75.6929C361.886 77.5397 363.351 79.7322 364.351 82.1451C365.35 84.5581 365.865 87.1443 365.864 89.7561C365.864 95.0306 363.769 100.089 360.039 103.819C356.309 107.548 351.251 109.643 345.976 109.643C340.702 109.643 335.644 107.548 331.914 103.818C328.185 100.089 326.089 95.0304 326.089 89.7561C326.089 84.4816 328.184 79.423 331.914 75.6933C335.643 71.9635 340.702 69.8681 345.976 69.8679H345.976Z" fill="white"/>
<path d="M401.97 64.0184V64.0195C399.256 64.0586 396.508 64.5347 393.826 65.487C381.568 69.84 374.497 82.7834 377.414 95.4915C380.332 108.2 392.345 116.733 405.266 115.256C414.262 114.228 421.736 108.058 425.449 100.653H418.557C415.448 105.12 410.445 108.597 404.581 109.268C394.669 110.4 385.537 103.922 383.292 94.142C381.047 84.3623 386.439 74.5086 395.846 71.1682C404.257 68.1813 413.414 71.2661 418.385 78.4013H425.357C421.08 69.6473 412.376 64.319 403.131 64.029C402.745 64.0167 402.358 64.0144 401.97 64.0185V64.0184Z" fill="white"/>
<path d="M506.945 113.729H480.112L480.008 65.6465H506.842V71.0811H485.406V86.2991H505.44V91.6928H485.406V109.222H506.884L506.945 113.729Z" fill="white"/>
<path d="M431.621 65.6465H437.102V113.729H431.621V65.6465Z" fill="white"/>
<path d="M464.208 113.729H471.427L446.5 87.8491L442.006 91.2544L464.208 113.729Z" fill="white"/>
<path d="M464.072 65.6465H471.155L434.241 103.922L435.74 93.9784L464.072 65.6465Z" fill="white"/>
<path d="M515.423 65.6465H554.652V71.0811H515.423V65.6465Z" fill="white"/>
<path d="M532.177 65.6465H537.729V113.729H532.177V65.6465Z" fill="white"/>
<path d="M275.994 67.2908L282.876 47.4529L301.151 47.5078L301.307 56.4019L289.246 56.3049L286.782 65.4348L299.166 74.3932C305.269 71.8859 309.625 66.4317 310.521 60.1762C311.416 53.9208 308.708 47.865 303.462 44.3911C298.216 40.9173 291.297 40.6889 285.385 43.6228L265.497 53.4924L295.469 113.889L287.66 117.764L253.631 49.1927L281.938 35.1452C291.211 30.5437 302.245 31.6593 310.128 37.9951C318.011 44.331 321.276 54.7084 318.468 64.5061C315.661 74.3038 306.938 81.576 297.663 84.4966L275.994 67.2908Z" fill="#E81A2E"/>
<path d="M298.829 0L295.65 23.5974L301.622 24.7532L310.001 1.63737L298.829 0Z" fill="#E81A2E"/>
<path d="M322.233 7.41626L310.483 27.8352L315.684 31.3026L330.517 13.2915L322.233 7.41626Z" fill="#008C84"/>
<path d="M337.933 21.5745L320.885 36.7924L324.834 42.6676L343.615 30.9171L337.933 21.5745Z" fill="#00ADF7"/>
<path d="M15.0852 132V132.001C13.4608 132.024 11.8165 132.309 10.212 132.879C2.87707 135.484 -1.35376 143.228 0.391849 150.832C2.13745 158.436 9.3257 163.542 17.0569 162.659C22.4401 162.044 26.9121 158.352 29.1337 153.921H25.01C23.1495 156.594 20.156 158.675 16.6472 159.075C10.7164 159.753 5.2519 155.877 3.90855 150.025C2.56519 144.173 5.79174 138.277 11.4204 136.278C16.4535 134.491 21.9324 136.337 24.9073 140.606H29.0789C26.5195 135.368 21.3112 132.18 15.7798 132.007C15.5488 131.999 15.3173 131.999 15.0852 132.002V132Z" fill="#E81A2E"/>
<path d="M64.2091 132.478C62.2124 132.478 60.2353 132.872 58.3906 133.636C56.5459 134.4 54.8697 135.52 53.4579 136.932C52.046 138.344 50.926 140.02 50.1619 141.864C49.3978 143.709 49.0045 145.686 49.0045 147.683C49.0045 149.68 49.3978 151.657 50.1619 153.502C50.926 155.346 52.046 157.022 53.4579 158.434C54.8697 159.846 56.5459 160.966 58.3906 161.73C60.2353 162.494 62.2124 162.888 64.2091 162.888C66.2058 162.888 68.1829 162.494 70.0276 161.73C71.8724 160.966 73.5485 159.846 74.9604 158.434C76.3722 157.022 77.4922 155.346 78.2563 153.502C79.0204 151.657 79.4137 149.68 79.4137 147.683C79.4137 145.686 79.0204 143.709 78.2563 141.864C77.4922 140.02 76.3722 138.344 74.9604 136.932C73.5485 135.52 71.8724 134.4 70.0276 133.636C68.1829 132.872 66.2058 132.478 64.2091 132.478V132.478ZM64.2495 135.824C65.8122 135.824 67.3597 136.131 68.8035 136.729C70.2474 137.327 71.5593 138.204 72.6643 139.309C73.7694 140.414 74.6459 141.726 75.244 143.17C75.842 144.614 76.1498 146.161 76.1498 147.724C76.1497 150.88 74.8958 153.907 72.6641 156.138C70.4324 158.37 67.4055 159.624 64.2495 159.624C61.0935 159.624 58.0668 158.37 55.8352 156.138C53.6036 153.907 52.3499 150.88 52.3498 147.724C52.3497 144.568 53.6034 141.541 55.835 139.309C58.0666 137.078 61.0934 135.824 64.2495 135.824V135.824Z" fill="#E81A2E"/>
<path d="M104.583 133.008H101.385V161.778H104.583V133.008Z" fill="#E81A2E"/>
<path d="M117.404 159.082H101.385V161.778H117.404V159.082Z" fill="#E81A2E"/>
<path d="M148.757 132.478C146.76 132.478 144.783 132.872 142.939 133.636C141.094 134.4 139.418 135.52 138.006 136.932C136.594 138.344 135.474 140.02 134.71 141.864C133.946 143.709 133.553 145.686 133.553 147.683C133.553 149.68 133.946 151.657 134.71 153.502C135.474 155.346 136.594 157.022 138.006 158.434C139.418 159.846 141.094 160.966 142.939 161.73C144.783 162.494 146.76 162.888 148.757 162.888C150.754 162.888 152.731 162.494 154.576 161.73C156.42 160.966 158.096 159.846 159.508 158.434C160.92 157.022 162.04 155.346 162.804 153.502C163.568 151.657 163.962 149.68 163.962 147.683C163.962 145.686 163.568 143.709 162.804 141.864C162.04 140.02 160.92 138.344 159.508 136.932C158.096 135.52 156.42 134.4 154.576 133.636C152.731 132.872 150.754 132.478 148.757 132.478ZM148.797 135.824C150.36 135.824 151.908 136.131 153.352 136.729C154.795 137.327 156.107 138.204 157.212 139.309C158.317 140.414 159.194 141.726 159.792 143.17C160.39 144.614 160.698 146.161 160.698 147.724C160.698 150.88 159.444 153.907 157.212 156.138C154.98 158.37 151.953 159.624 148.797 159.624C145.641 159.624 142.615 158.37 140.383 156.138C138.152 153.907 136.898 150.88 136.898 147.724C136.898 144.568 138.151 141.541 140.383 139.309C142.615 137.078 145.641 135.824 148.797 135.824V135.824Z" fill="#E81A2E"/>
<path d="M184.936 133.008H188.134V161.778H184.936V133.008Z" fill="#E81A2E"/>
<path d="M196.159 152.101C200.935 150.966 204.105 146.435 203.533 141.559C202.962 136.683 198.83 133.008 193.921 133.008H184.936L186.725 136.226H193.878C196.173 136.226 198.293 137.45 199.441 139.438C200.588 141.425 200.588 143.874 199.441 145.861C198.293 147.849 196.173 149.073 193.878 149.073H186.784L186.665 152.535H192.064L198.856 161.778H202.993L196.159 152.101Z" fill="#E81A2E"/>
<path fill-rule="evenodd" clip-rule="evenodd" d="M554.231 107.567V113.753H555.262V108.488L556.938 113.753H557.84L559.387 108.488V113.753H560.289V107.567H558.871L557.325 112.569L555.778 107.567H554.231ZM550.623 108.489V113.753H551.525V108.489H553.716V107.567H548.69V108.489H550.623Z" fill="white"/>
<path d="M0.558158 33.9223C0.558158 38.0019 3.27795 41.3046 6.64533 41.3046H23.5469C23.9355 41.3046 24.324 41.6931 24.324 42.2112C24.324 42.7292 24.0002 43.1178 23.5469 43.1178H0.493427V49.6583H26.2667C29.6341 49.6583 32.3539 46.2909 32.3539 42.2113C32.3539 38.1316 29.6341 34.7642 26.2667 34.7642H9.42985C9.0413 34.7642 8.65278 34.3756 8.65278 33.8576C8.65278 33.3395 8.97657 32.951 9.42985 32.951H32.2892V26.5399H6.64642C3.27904 26.5399 0.559246 29.8426 0.559246 33.9223H0.558158Z" fill="#0097E0"/>
<path d="M34.1678 26.5398V49.529H42.2626V35.0879L57.6751 49.529H66.0937V26.5398H57.9989V40.9161L42.5864 26.5398H34.1678Z" fill="#0097E0"/>
<path d="M76.0664 36.6421V26.5398H67.8421V49.529H76.0664V39.3619L89.1476 49.529H99.7032L84.8088 38.0668L99.7032 26.5398H89.1476L76.0664 36.6421Z" fill="#0097E0"/>
<path fill-rule="evenodd" clip-rule="evenodd" d="M102.097 26.5398C102.744 26.5398 103.326 26.7988 103.781 27.2521H103.781C104.235 27.7054 104.428 28.2235 104.493 28.9358C104.493 29.5832 104.235 30.1661 103.781 30.6195C103.328 31.0728 102.745 31.3318 102.097 31.3318C101.45 31.3318 100.867 31.0728 100.413 30.6195C99.9602 30.1662 99.7011 29.5834 99.7011 28.9358C99.7011 28.2882 99.9601 27.7054 100.413 27.2521C100.868 26.7988 101.45 26.5398 102.097 26.5398ZM102.097 30.9435C102.68 30.9435 103.133 30.7493 103.522 30.3607C103.91 29.9722 104.104 29.4541 104.104 28.9361C104.104 28.418 103.91 27.9 103.522 27.5114C103.133 27.1229 102.68 26.9286 102.097 26.9286C101.579 26.9286 101.061 27.1229 100.672 27.5114C100.284 27.9 100.089 28.3532 100.089 28.9361C100.089 29.4541 100.284 29.9722 100.672 30.3607C101.061 30.7493 101.514 30.9435 102.097 30.9435Z" fill="#0096DF"/>
<path fill-rule="evenodd" clip-rule="evenodd" d="M103.199 28.4825V28.5472L103.199 28.5472C103.199 28.8062 103.069 29.0005 102.875 29.0653C102.893 29.1009 102.915 29.1365 102.939 29.1734C103.001 29.2709 103.069 29.3777 103.069 29.5186L103.134 30.1014H102.745L102.68 29.5186C102.68 29.3891 102.551 29.2596 102.357 29.2596H101.515V30.1661H101.126V27.7701H102.486C102.875 27.7701 103.199 28.0939 103.199 28.4825ZM102.486 28.1585H101.515V28.1585V28.9356H102.486C102.68 28.9356 102.81 28.8061 102.81 28.6118V28.4823C102.81 28.288 102.68 28.1585 102.486 28.1585Z" fill="#0096DF"/>
</svg>
