<svg width="517" height="177" viewBox="0 0 517 177" fill="none" xmlns="http://www.w3.org/2000/svg">
<path d="M85.0779 90.9547C97.2116 83.8511 111.29 79.4805 125.447 80.5033C133.875 80.8945 142.477 83.5549 148.731 89.4122C157.142 97.6559 159.797 109.874 160.06 121.253C160.323 139.467 156.12 157.475 150.207 174.605C146.725 174.622 143.248 174.605 139.766 174.617C136.653 174.617 133.54 174.6 130.421 174.628C131.785 170.866 133.127 167.094 134.222 163.243C134.842 161.08 135.424 158.906 135.955 156.715C138.24 147.113 139.666 137.237 139.297 127.35C139.241 124.763 138.52 122.22 137.218 119.984C135.384 117.122 132.199 115.15 128.767 115.088C123.441 114.915 118.59 117.72 114.487 120.85C107.602 126.277 102.141 133.247 96.9768 140.272C89.1411 151.221 82.1604 162.785 75.9287 174.717C56.6969 174.818 37.4707 174.728 18.2446 174.762C14.6676 174.762 11.0906 174.751 7.51367 174.767C18.3004 157.682 30.8925 141.803 44.2055 126.624C56.233 113.093 69.3448 100.149 85.0779 90.9547Z" fill="white"/>
<path d="M156.773 82.6385C162.463 80.7383 168.561 79.5087 174.569 80.3247C181.136 81.2972 186.686 85.2877 191.755 89.3118C192.426 90.0328 193.074 90.7705 193.728 91.5083C187.407 94.7667 180.957 98.0139 175.664 102.848C173.971 104.536 172.378 106.341 170.97 108.281C169.544 102.105 167.499 95.9236 163.799 90.7146C161.77 87.7636 159.328 85.1312 156.773 82.6385Z" fill="white"/>
<path d="M215.46 96.4098C226.777 94.2189 238.553 95.7559 249.346 99.5899C257.88 102.619 265.973 106.906 273.272 112.277C270.802 114.792 268.427 117.396 265.895 119.85C255.846 117.799 245.4 116.933 235.234 118.62C228.197 119.761 221.384 123.304 217.025 129.038C214.996 131.721 213.694 135.097 214.068 138.501C214.7 144.945 219.618 150.433 225.548 152.697C229.393 154.384 233.702 154.2 237.799 153.937C246.02 153.25 254.041 151.087 261.798 148.365C262.318 150.701 262.843 153.043 263.374 155.379C263.872 157.598 264.375 159.817 264.85 162.041C254.348 166.887 243.466 171.079 232.104 173.376C224.117 174.935 215.728 175.695 207.758 173.622C200.392 171.649 193.02 169.464 186.173 166.038C181.143 163.388 176.381 159.856 173.347 154.955C169.267 148.443 168.49 140.406 169.267 132.912C170.071 125.478 173.738 118.609 178.863 113.249L178.997 113.093C188.856 103.603 202.214 98.7907 215.46 96.4098Z" fill="white"/>
<path d="M302.848 99.7123C310.382 96.0794 318.939 95.3305 327.194 95.6491C336.103 96.0571 344.928 97.717 353.462 100.26C354.105 98.7063 354.747 97.1581 355.329 95.5876C366.44 95.4479 377.556 95.5597 388.667 95.5317C388.214 97.1302 387.75 98.723 387.303 100.316C382.206 118.575 376.986 136.795 371.922 155.066C373.582 155.144 375.248 155.233 376.919 155.328C375.723 159.884 374.521 164.444 373.32 168.999C373.046 170.559 371.615 171.43 370.397 172.241C364.735 175.857 357.536 176.572 351.087 174.963C349.684 174.488 348.326 173.873 347.124 173.001C344.408 171.525 342.474 169.038 341.088 166.328C332.593 171.827 322.829 175.561 312.701 176.349C304.849 176.98 296.829 175.533 289.736 172.084C282.918 168.664 277.172 163.086 273.791 156.228C268.928 146.565 268.135 134.437 273.578 124.835C275.199 121.789 277.234 118.983 279.514 116.407C285.947 109.208 294.179 103.843 302.848 99.7123ZM322.806 119.106C318.329 121.655 315.216 126.009 312.998 130.552C310.795 135.264 309.191 140.652 310.388 145.855C311.388 150.002 315.183 152.758 319.151 153.769C323.499 154.574 328.021 154.339 332.274 153.154C335.041 152.299 337.438 150.611 339.752 148.923C342.575 139.584 345.414 130.251 348.231 120.911C348.477 120.079 348.739 119.251 348.991 118.424C340.82 114.417 330.799 114.903 322.806 119.106Z" fill="white"/>
<path d="M402.634 96.0899C413.717 95.8943 424.806 95.7154 435.889 95.5254C435.794 97.0959 435.699 98.672 435.604 100.248C447.368 97.9398 459.48 96.6544 471.446 98.0237C478.84 98.9403 486.559 101.137 491.89 106.636C498.29 113.958 500.442 124.135 499.167 133.614C497.261 148.615 490.169 162.403 481.847 174.822C479.142 174.878 476.437 174.839 473.743 174.643C466.729 174.258 459.692 174.649 452.672 174.33C458.809 164.829 463.979 154.551 466.768 143.546C468.562 136.09 469.193 127.785 465.678 120.721C463.588 117.037 459.217 115.562 455.215 115.333C447.665 114.897 440.226 116.859 433.111 119.172C431.982 119.631 430.356 119.821 430.233 121.313C425.275 139.164 420.178 156.976 415.265 174.839C406.938 174.828 398.616 174.565 390.294 174.492C387.231 174.437 384.162 174.369 381.1 174.336C388.293 148.258 395.458 122.174 402.634 96.0899Z" fill="white"/>
<path d="M100.6 151.226C109.475 149.186 118.842 149.236 127.673 151.511C129.523 152.07 131.535 152.579 132.949 153.976C133.619 154.596 133.055 155.334 132.731 155.96C129.629 157.771 126.046 158.481 122.531 158.984C115.455 159.934 108.262 159.52 101.203 158.648C99.4929 158.391 97.7883 158.117 96.1228 157.665C94.8597 157.201 93.3618 156.865 92.5346 155.708C92.1322 154.825 93.0712 154.205 93.686 153.775C95.8042 152.5 98.2242 151.858 100.6 151.226Z" fill="white"/>
<path d="M276.943 0.238261C278.206 -0.421241 279.955 0.35563 280.324 1.7417C282.185 6.79975 284.069 11.8522 285.902 16.9214C286.494 18.0951 285.863 19.5427 284.773 20.1631C279.687 23.3767 274.713 26.8196 270.281 30.8995C267.581 33.3866 264.982 36.8015 265.62 40.6971C266.139 42.262 267.945 42.86 269.403 43.2121C273.103 43.8101 276.859 43.8884 280.598 44.0337C285.857 44.2964 292.044 44.6876 295.627 49.1141C297.991 52.8978 298.17 57.6317 297.835 61.9632C296.84 69.2624 294.174 76.6623 288.825 81.9104C284.499 85.9512 279.134 88.8743 273.394 90.3162C272.187 90.6795 271.024 89.7909 270.426 88.8128C267.101 84.118 263.675 79.4847 260.394 74.762C259.539 73.6163 260.153 71.7384 261.489 71.2968C269.61 69.4133 278.854 68.1726 284.74 61.6167C285.634 60.4933 287.5 58.5483 285.74 57.3467C283.091 55.5694 279.681 56.0612 276.663 55.6756C271.276 55.0943 265.564 55.262 260.589 52.8475C255.19 50.0978 252.687 43.6872 253.229 37.869C254.279 27.3561 260.165 18.1063 266.967 10.3152C270.124 6.81093 273.198 3.12219 276.943 0.238261ZM260.405 23.2761C257.448 28.7534 255.051 34.9348 255.559 41.2615C255.911 46.1799 259.483 50.7405 264.34 51.8918C270.488 53.3058 276.853 53.1382 283.085 53.9486C285.103 54.2672 287.322 55.0776 288.395 56.9443C289.373 58.7607 288.283 60.8231 287.148 62.2874C284.93 64.9869 282.141 67.2616 278.927 68.6644C273.612 71.0398 267.889 72.2693 262.21 73.4263C265.748 78.3502 269.258 83.2908 272.818 88.1924C280.637 86.0239 288.188 81.2564 291.927 73.8398C295.085 67.351 296.879 59.7276 294.828 52.6352C294.068 49.5668 290.982 47.9292 288.154 47.1803C282.94 46.0457 277.563 46.4202 272.282 45.8836C269.571 45.6266 266.598 45.2409 264.53 43.2959C262.948 41.6472 263.082 39.093 263.574 37.0251C264.474 33.2637 267.313 30.4412 270.119 27.9653C274.394 24.2654 279.044 21.007 283.884 18.0895C282.051 12.7576 279.944 7.51514 278.117 2.17765C271.326 8.37585 265.072 15.323 260.405 23.2761Z" fill="#EED12D"/>
<path d="M409.91 4.6706C411.313 3.86579 413.219 4.96682 413.353 6.54851C414.242 10.4832 415.186 14.4122 416.013 18.3581C416.321 19.6156 415.393 20.8619 414.169 21.1023C407.792 22.8572 401.42 24.601 395.038 26.3112C395.569 28.8822 396.195 31.4308 396.815 33.9793C401.292 32.4591 405.774 30.9501 410.273 29.4914C411.464 28.966 412.995 29.5081 413.47 30.7545C414.342 32.9286 415.192 35.1251 415.924 37.3495C416.343 38.5176 415.644 39.954 414.46 40.3396C409.525 42.3293 404.573 44.2743 399.632 46.2416C400.236 48.8014 400.856 51.3555 401.426 53.9265C408.999 50.1483 416.494 46.1745 424.19 42.6591C424.212 34.7506 424.302 26.8422 424.497 18.9449C424.447 17.5756 425.509 16.2342 426.973 16.4243C430.947 16.9664 434.871 17.8327 438.844 18.3916C439.845 18.4363 440.706 18.9673 441.6 19.3641C447.519 17.8215 453.812 17.7545 459.758 19.1908C464.666 20.3645 469.249 23.2876 472.015 27.5576C475.173 32.3529 476.313 38.5679 474.636 44.1122C473.597 47.7283 471.149 50.7575 468.366 53.2055C472.96 59.1187 473.105 67.0551 473.239 74.209C473.39 75.9304 472.932 78.546 470.651 78.3337C467.231 77.5791 463.889 76.5061 460.507 75.5895C458.836 75.3212 458.361 73.4321 458.808 72.0181C459.541 67.396 460.239 61.8293 456.578 58.2021C449.927 59.1243 443.444 56.5421 437.391 54.083C436.687 59.236 436.195 64.4282 435.144 69.5254C434.323 72.1187 431.154 70.8444 429.209 70.755C427.448 70.2911 424.503 70.9226 423.961 68.6032C423.614 65.3001 423.994 61.9523 423.961 58.638C414.337 62.4106 404.746 66.2782 395.116 70.034C393.685 70.7662 391.886 69.6372 391.774 68.0722C390.628 63.0142 389.404 57.9729 388.342 52.9037C383.826 58.5262 376.633 61.8293 369.446 61.7902C364.024 61.3822 358.799 59.6105 353.869 57.4028C353.271 61.4996 352.785 65.6187 352.193 69.721C352.131 70.9729 351.22 72.2696 349.856 72.2137C347.8 72.0684 345.788 71.5989 343.753 71.3251C342.797 71.1238 341.657 71.0512 341.065 70.1737C340.528 69.1901 340.657 68.0555 340.674 66.988C338.142 71.6772 333.291 74.7679 328.137 75.7907C322.448 77.2103 316.445 76.0869 311.085 73.9631C307.061 72.1187 303.758 68.6759 301.908 64.6797C298.555 53.1552 295.252 41.6195 291.932 30.0894C291.423 28.7983 292.357 27.2725 293.692 26.9987C296.358 26.1994 299.036 25.4282 301.718 24.6681C303.115 24.0644 304.792 25.1711 304.921 26.6522C307.33 37.4389 309.571 48.2704 312.052 59.0348C313.567 61.4605 315.814 63.6178 318.614 64.4338C322.509 65.3839 326.886 64.2717 329.714 61.3878C331.116 59.5434 331.809 56.9725 331.105 54.7257C328.769 46.1298 326.444 37.5284 324.141 28.9269C323.661 27.7252 324.152 26.205 325.41 25.73C327.752 24.7072 330.122 23.7459 332.508 22.8349C333.816 22.1474 335.593 22.9466 335.867 24.411C337.488 31.4978 339.315 38.5455 340.729 45.6771C340.919 37.8469 340.841 30.0111 340.953 22.1809C340.897 20.7558 342.227 19.4815 343.675 19.8C347.436 20.3589 351.17 21.1246 354.926 21.7115C355.982 21.8233 356.977 22.2033 357.871 22.7734C365.735 20.7334 374.481 20.9905 381.831 24.6736C381.691 22.2033 379.187 18.6319 382.172 17.0335C391.399 12.8753 400.649 8.76734 409.91 4.6706ZM382.921 19.1182C383.429 21.6276 384 24.1203 384.62 26.6074C390.483 31.4922 393.288 39.9204 391.103 47.2867C390.768 48.6281 389.823 49.9192 390.254 51.35C391.517 56.911 392.774 62.4777 394.082 68.0331C404.053 64.0426 414.063 60.1526 424.017 56.123C424.034 52.4454 424.106 48.7734 424.179 45.0959C416.092 49.0808 408.032 53.1328 399.978 57.1849C398.816 53.144 398.084 48.997 397 44.9338C402.533 42.4523 408.312 40.5464 413.839 38.0537C412.867 35.8852 412.386 33.4987 411.112 31.4755C405.858 33.4316 400.487 35.0748 395.178 36.8688C394.233 32.8056 393.199 28.7592 392.394 24.6681C399.47 22.8125 406.546 20.9122 413.582 18.889L413.739 18.4922C412.951 14.5296 411.905 10.6173 411.106 6.64911C401.678 10.7235 392.355 15.055 382.921 19.1182ZM426.772 18.6375C426.454 35.0804 426.465 51.5288 426.062 67.9716C428.376 68.3796 430.707 68.6759 433.054 68.8491C433.993 62.813 434.776 56.7489 435.553 50.6849C442.315 53.7476 449.676 57.1793 457.283 55.7597C462.547 59.9403 462.123 67.3569 460.876 73.2812C464.151 74.3599 467.505 75.1926 470.836 76.1037C471.082 70.9562 470.847 65.7193 469.59 60.7059C468.869 57.6432 467.024 55.0331 465.079 52.6298C468.377 50.4669 471.238 47.3929 472.446 43.5701C474.167 37.7519 472.568 31.101 468.421 26.6745C465.381 23.3826 461.077 21.4711 456.679 20.8731C450.889 20.1018 444.746 20.208 439.347 22.684C439.409 22.2312 439.532 21.3258 439.593 20.8675C435.318 20.113 431.042 19.3809 426.772 18.6375ZM343.183 22.03C343.166 37.629 343.043 53.2279 342.904 68.8212C345.212 69.2851 347.537 69.6483 349.873 69.9446C350.594 64.7188 351.254 59.4875 351.98 54.2674C352.098 54.2562 352.327 54.2395 352.444 54.2283C356.982 56.3577 361.655 58.353 366.64 59.1746C371.067 60.0241 375.705 59.0963 379.685 57.0451C385.028 54.3736 389.488 49.1088 389.566 42.9106C390.069 34.9015 384.452 27.1384 376.728 25.0258C369.91 23.2205 362.426 23.2596 355.837 25.9312C355.865 25.4896 355.915 24.601 355.943 24.1539C351.673 23.5447 347.453 22.6392 343.183 22.03ZM326.209 27.8203C328.568 36.9918 331.15 46.1131 333.564 55.279C333.961 58.6045 332.709 62.3491 329.853 64.2941C325.583 67.4183 319.324 68.1225 314.791 65.1548C312.779 63.7464 310.895 61.9355 309.867 59.6776C307.436 48.7175 305.016 37.7519 302.691 26.7695C299.79 27.5129 296.945 28.4462 294.05 29.1951C297.057 39.9428 300.232 50.6401 303.272 61.371C304.138 65.6019 307.251 69.0894 310.851 71.3027C316.384 74.0245 322.951 74.9635 328.942 73.2756C333.235 72.0796 337.203 69.2236 339.064 65.0933C340.802 61.1586 341.3 56.598 340.137 52.4286C337.957 43.2459 335.845 34.0408 333.671 24.8525C331.144 25.7411 328.696 26.8422 326.209 27.8203Z" fill="#EED12D"/>
<path d="M438.208 31.1562C444.166 27.8922 451.482 27.0986 457.932 29.3063C461.112 30.4073 464.147 32.5702 465.41 35.7951C466.545 38.5672 465.986 41.9039 464.069 44.1954C461.76 47.0625 457.982 48.2697 454.422 48.4262C448.045 48.5939 441.752 46.2521 436.744 42.3566C437.152 38.6175 437.705 34.8897 438.208 31.1562ZM440.271 32.6764C439.935 35.5603 439.46 38.4219 439.17 41.3114C443.725 44.5642 449.336 46.4589 454.959 46.1012C457.871 45.9112 460.972 44.7598 462.655 42.2448C464.281 40.0092 463.991 36.667 462.085 34.6885C460.414 32.6876 457.96 31.5642 455.49 30.9271C450.415 29.8204 444.921 30.2843 440.271 32.6764Z" fill="#EED12D"/>
<path d="M354.584 34.5943C360.363 31.2801 367.545 30.5088 373.9 32.504C376.834 33.4374 379.651 35.1868 381.243 37.8918C382.937 40.6808 382.814 44.4757 380.847 47.0969C378.544 50.3441 374.419 51.6911 370.585 51.7917C364.292 51.8588 358.083 49.5673 353.17 45.6773C353.556 41.9718 354.182 38.2998 354.584 34.5943ZM356.842 35.9748C356.171 38.7861 356.071 41.7259 355.545 44.5763C360.005 47.8794 365.583 49.7405 371.15 49.4723C374.134 49.3381 377.281 48.198 379.053 45.6773C380.293 44.0453 380.416 41.7483 379.706 39.8703C378.225 36.6176 374.738 34.885 371.401 34.1584C366.528 33.2641 361.285 33.6666 356.842 35.9748Z" fill="#EED12D"/>
<path d="M260.402 23.2762C265.069 15.3231 271.323 8.37594 278.114 2.17773C279.942 7.51523 282.049 12.7577 283.882 18.0896C279.042 21.0071 274.392 24.2655 270.116 27.9654C267.31 30.4413 264.471 33.2638 263.571 37.0252C263.079 39.0931 262.945 41.6473 264.527 43.296C266.595 45.241 269.568 45.6266 272.279 45.8837C277.561 46.4203 282.937 46.0458 288.152 47.1804C290.98 47.9293 294.065 49.5669 294.825 52.6353C296.876 59.7277 295.082 67.3511 291.924 73.8399C288.185 81.2565 280.635 86.024 272.816 88.1925C269.255 83.2909 265.745 78.3503 262.208 73.4263C267.886 72.2694 273.609 71.0398 278.924 68.6645C282.138 67.2617 284.927 64.987 287.146 62.2875C288.28 60.8231 289.37 58.7608 288.392 56.9444C287.319 55.0776 285.1 54.2672 283.083 53.9487C276.851 53.1383 270.485 53.3059 264.337 51.8919C259.48 50.7406 255.909 46.18 255.557 41.2616C255.048 34.9349 257.446 28.7534 260.402 23.2762Z" fill="#F1001D"/>
<path d="M382.918 19.1175C392.352 15.0543 401.675 10.7228 411.103 6.64844C411.903 10.6166 412.948 14.5289 413.736 18.4915L413.579 18.8884C406.543 20.9116 399.467 22.8118 392.391 24.6674C393.196 28.7585 394.23 32.805 395.175 36.8682C400.484 35.0741 405.855 33.4309 411.109 31.4748C412.383 33.498 412.864 35.8845 413.836 38.053C408.309 40.5457 402.53 42.4516 396.997 44.9331C398.081 48.9963 398.813 53.1434 399.976 57.1842C408.029 53.1322 416.089 49.0801 424.176 45.0952C424.103 48.7728 424.031 52.4447 424.014 56.1223C414.06 60.152 404.05 64.0419 394.079 68.0325C392.771 62.477 391.514 56.9103 390.251 51.3493C389.82 49.9185 390.765 48.6274 391.1 47.2861C393.286 39.9198 390.48 31.4916 384.617 26.6068C383.997 24.1197 383.427 21.627 382.918 19.1175Z" fill="#F1001D"/>
<path d="M426.77 18.6367C431.04 19.3801 435.316 20.1122 439.592 20.8667C439.53 21.325 439.407 22.2304 439.346 22.6832C444.745 20.2072 450.887 20.101 456.677 20.8723C461.076 21.4703 465.379 23.3818 468.42 26.6737C472.567 31.1002 474.165 37.7511 472.444 43.5693C471.236 47.3921 468.375 50.4661 465.077 52.629C467.022 55.0323 468.867 57.6424 469.588 60.7051C470.845 65.7185 471.08 70.9554 470.834 76.1029C467.503 75.1918 464.15 74.3591 460.874 73.2804C462.121 67.3561 462.546 59.9394 457.281 55.7589C449.674 57.1785 442.313 53.7468 435.551 50.6841C434.774 56.7481 433.991 62.8122 433.052 68.8483C430.705 68.6751 428.374 68.3788 426.061 67.9709C426.463 51.528 426.452 35.0796 426.77 18.6367ZM438.205 31.1561C437.702 34.8895 437.149 38.6174 436.741 42.3564C441.749 46.252 448.042 48.5938 454.419 48.4261C457.979 48.2696 461.758 47.0624 464.066 44.1952C465.983 41.9037 466.542 38.5671 465.407 35.795C464.144 32.5701 461.109 30.4072 457.929 29.3061C451.479 27.0985 444.163 27.8921 438.205 31.1561Z" fill="#F1001D"/>
<path d="M343.182 22.0293C347.452 22.6385 351.671 23.5439 355.941 24.1531C355.914 24.6002 355.863 25.4889 355.835 25.9304C362.425 23.2589 369.908 23.2198 376.727 25.025C384.451 27.1376 390.068 34.9008 389.565 42.9098C389.487 49.108 385.027 54.3729 379.684 57.0444C375.704 59.0956 371.065 60.0233 366.639 59.1738C361.653 58.3522 356.981 56.357 352.443 54.2275C352.325 54.2387 352.096 54.2555 351.979 54.2667C351.252 59.4868 350.593 64.7181 349.872 69.9438C347.536 69.6476 345.211 69.2843 342.902 68.8204C343.042 53.2271 343.165 37.6282 343.182 22.0293ZM354.583 34.5934C354.181 38.2989 353.555 41.9709 353.169 45.6764C358.082 49.5663 364.291 51.8578 370.585 51.7907C374.419 51.6901 378.543 50.3432 380.846 47.096C382.813 44.4747 382.936 40.6798 381.243 37.8909C379.65 35.1858 376.833 33.4365 373.899 32.5031C367.544 30.5078 360.362 31.2791 354.583 34.5934Z" fill="#F1001D"/>
<path d="M326.208 27.8193C328.695 26.8412 331.143 25.7402 333.669 24.8516C335.843 34.0399 337.956 43.245 340.136 52.4277C341.298 56.5971 340.801 61.1577 339.063 65.0924C337.202 69.2227 333.233 72.0786 328.941 73.2747C322.95 74.9626 316.382 74.0236 310.849 71.3018C307.25 69.0885 304.137 65.601 303.271 61.3701C300.23 50.6392 297.056 39.9419 294.049 29.1942C296.944 28.4453 299.789 27.5119 302.689 26.7686C305.014 37.751 307.434 48.7166 309.866 59.6766C310.894 61.9346 312.778 63.7454 314.79 65.1539C319.322 68.1216 325.582 67.4174 329.852 64.2932C332.708 62.3482 333.96 58.6036 333.563 55.2781C331.149 46.1121 328.566 36.9909 326.208 27.8193Z" fill="#F1001D"/>
<path d="M77.6032 85.8512C89.737 78.7476 103.816 74.377 117.973 75.3998C126.401 75.791 135.002 78.4514 141.256 84.3086C149.668 92.5524 152.323 104.77 152.585 116.149C152.848 134.364 148.645 152.372 142.732 169.502C139.25 169.519 135.774 169.502 132.292 169.513C129.179 169.513 126.065 169.496 122.947 169.524C124.311 165.763 125.652 161.99 126.747 158.139C127.368 155.976 127.949 153.802 128.48 151.611C130.766 142.01 132.191 132.134 131.822 122.247C131.766 119.659 131.045 117.116 129.743 114.88C127.91 112.019 124.724 110.046 121.292 109.985C115.966 109.811 111.115 112.617 107.013 115.747C100.127 121.174 94.6665 128.143 89.5022 135.169C81.6665 146.117 74.6858 157.681 68.454 169.614C49.2223 169.714 29.9961 169.625 10.7699 169.658C7.19299 169.658 3.61602 169.647 0.0390625 169.664C10.8258 152.578 23.4179 136.7 36.7309 121.52C48.7584 107.989 61.8702 95.0451 77.6032 85.8512Z" fill="#F1001D"/>
<path d="M149.299 77.533C154.988 75.6328 161.086 74.4032 167.094 75.2192C173.661 76.1917 179.211 80.1822 184.28 84.2063C184.951 84.9273 185.599 85.665 186.253 86.4028C179.932 89.6612 173.482 92.9084 168.19 97.7429C166.496 99.4308 164.903 101.236 163.495 103.175C162.07 96.9995 160.024 90.8181 156.324 85.6092C154.295 82.6582 151.853 80.0257 149.299 77.533Z" fill="#F1001D"/>
<path d="M207.983 91.3063C219.301 89.1154 231.077 90.6523 241.869 94.4864C250.404 97.5156 258.497 101.802 265.796 107.173C263.325 109.688 260.95 112.293 258.418 114.747C248.369 112.695 237.923 111.829 227.757 113.517C220.72 114.657 213.907 118.201 209.548 123.935C207.519 126.618 206.217 129.993 206.591 133.397C207.223 139.841 212.141 145.33 218.071 147.593C221.917 149.281 226.226 149.097 230.322 148.834C238.544 148.146 246.564 145.983 254.322 143.262C254.841 145.598 255.367 147.94 255.898 150.276C256.395 152.495 256.898 154.714 257.373 156.938C246.871 161.784 235.99 165.975 224.627 168.272C216.64 169.832 208.251 170.592 200.281 168.518C192.915 166.545 185.543 164.36 178.697 160.934C173.667 158.285 168.905 154.753 165.87 149.851C161.79 143.34 161.013 135.303 161.79 127.808C162.595 120.375 166.261 113.506 171.386 108.146L171.52 107.989C181.379 98.4993 194.737 93.6872 207.983 91.3063Z" fill="#F1001D"/>
<path d="M295.373 94.6088C302.907 90.9759 311.464 90.227 319.719 90.5456C328.628 90.9536 337.453 92.6135 345.987 95.1565C346.63 93.6028 347.273 92.0546 347.854 90.4841C358.965 90.3444 370.082 90.4562 381.192 90.4282C380.74 92.0267 380.276 93.6195 379.829 95.2124C374.732 113.472 369.511 131.692 364.448 149.962C366.108 150.041 367.773 150.13 369.444 150.225C368.248 154.78 367.047 159.341 365.845 163.896C365.571 165.455 364.14 166.327 362.922 167.137C357.26 170.753 350.062 171.469 343.612 169.859C342.209 169.384 340.851 168.769 339.649 167.897C336.933 166.422 334.999 163.935 333.613 161.224C325.118 166.724 315.354 170.457 305.227 171.245C297.374 171.877 289.354 170.429 282.262 166.981C275.443 163.56 269.697 157.982 266.316 151.125C261.454 141.461 260.66 129.333 266.104 119.731C267.725 116.685 269.759 113.88 272.039 111.303C278.472 104.105 286.705 98.7391 295.373 94.6088ZM315.332 114.003C310.855 116.551 307.742 120.905 305.523 125.449C303.321 130.16 301.717 135.548 302.913 140.752C303.913 144.899 307.708 147.654 311.676 148.666C316.025 149.47 320.546 149.236 324.799 148.051C327.566 147.196 329.964 145.508 332.278 143.82C335.1 134.481 337.939 125.147 340.756 115.808C341.002 114.975 341.265 114.148 341.516 113.321C333.345 109.313 323.324 109.8 315.332 114.003Z" fill="#F1001D"/>
<path d="M395.159 90.9883C406.242 90.7927 417.331 90.6139 428.414 90.4238C428.319 91.9943 428.224 93.5704 428.129 95.1465C439.894 92.8383 452.005 91.5528 463.971 92.9221C471.365 93.8387 479.084 96.0352 484.416 101.535C490.815 108.856 492.967 119.034 491.693 128.513C489.787 143.514 482.694 157.302 474.372 169.721C471.667 169.776 468.962 169.737 466.268 169.542C459.254 169.156 452.218 169.547 445.198 169.229C451.335 159.727 456.504 149.449 459.293 138.445C461.087 130.989 461.719 122.684 458.203 115.619C456.113 111.936 451.743 110.46 447.741 110.231C440.19 109.795 432.751 111.757 425.636 114.071C424.507 114.529 422.881 114.719 422.758 116.211C417.8 134.063 412.703 151.875 407.791 169.737C399.463 169.726 391.141 169.464 382.819 169.391C379.756 169.335 376.688 169.268 373.625 169.234C380.818 143.156 387.983 117.072 395.159 90.9883Z" fill="#F1001D"/>
<path d="M93.123 146.122C101.998 144.082 111.366 144.133 120.196 146.408C122.046 146.966 124.058 147.475 125.472 148.872C126.143 149.493 125.578 150.23 125.254 150.856C122.152 152.667 118.57 153.377 115.054 153.88C107.979 154.83 100.786 154.417 93.7266 153.545C92.0164 153.288 90.3117 153.014 88.6462 152.561C87.3831 152.097 85.8852 151.762 85.0581 150.605C84.6557 149.722 85.5946 149.101 86.2094 148.671C88.3276 147.397 90.7477 146.754 93.123 146.122Z" fill="#F1001D"/>
<path d="M500.735 160.998C500.735 158.989 501.516 157.105 502.939 155.682C503.636 154.983 504.465 154.428 505.378 154.051C506.291 153.674 507.269 153.482 508.257 153.486C509.244 153.482 510.223 153.675 511.135 154.052C512.048 154.429 512.876 154.983 513.573 155.682C514.274 156.378 514.829 157.207 515.208 158.119C515.586 159.032 515.779 160.01 515.776 160.998C515.776 165.146 512.403 168.52 508.257 168.52C507.269 168.523 506.29 168.33 505.377 167.952C504.464 167.574 503.635 167.018 502.939 166.317C501.516 164.901 500.735 163.011 500.735 160.998M508.257 169.743C510.589 169.743 512.786 168.834 514.437 167.186C516.086 165.53 516.999 163.333 516.999 160.998C516.999 158.669 516.086 156.475 514.437 154.819C513.627 154.004 512.664 153.359 511.604 152.92C510.543 152.48 509.405 152.256 508.257 152.26C503.43 152.26 499.516 156.18 499.516 160.998C499.516 163.333 500.425 165.531 502.076 167.186C502.887 167.999 503.85 168.644 504.911 169.082C505.972 169.521 507.109 169.746 508.257 169.743" fill="white"/>
<path d="M506.012 160.664H508.575C508.989 160.664 509.377 160.664 509.761 160.565C510.652 160.347 510.968 159.702 510.968 159.001C510.968 158.756 510.941 158.095 510.391 157.643C509.883 157.22 509.253 157.232 508.51 157.232H506.012V160.664V160.664ZM506.012 161.736V165.851H504.746V156.156H508.347C509.69 156.175 510.489 156.175 511.239 156.749C511.957 157.284 512.259 158.095 512.259 158.986C512.259 161.25 510.431 161.57 509.96 161.653L512.683 165.851H511.146L508.51 161.736H506.012V161.736Z" fill="white"/>
</svg>
