<svg width="517" height="177" viewBox="0 0 517 177" fill="none" xmlns="http://www.w3.org/2000/svg">
<path d="M260.402 23.5477C265.069 15.5946 271.323 8.64742 278.114 2.44922C279.942 7.78672 282.049 13.0292 283.882 18.3611C279.042 21.2786 274.392 24.537 270.116 28.2369C267.31 30.7128 264.471 33.5353 263.571 37.2967C263.079 39.3646 262.945 41.9188 264.527 43.5675C266.595 45.5125 269.568 45.8981 272.279 46.1552C277.561 46.6918 282.937 46.3173 288.152 47.4519C290.98 48.2008 294.065 49.8384 294.825 52.9067C296.876 59.9992 295.082 67.6226 291.924 74.1114C288.185 81.528 280.635 86.2954 272.816 88.464C269.255 83.5624 265.745 78.6217 262.208 73.6978C267.886 72.5409 273.609 71.3113 278.924 68.936C282.138 67.5332 284.927 65.2584 287.146 62.5589C288.28 61.0946 289.37 59.0323 288.392 57.2159C287.319 55.3491 285.1 54.5387 283.083 54.2202C276.851 53.4097 270.485 53.5774 264.337 52.1634C259.48 51.0121 255.909 46.4514 255.557 41.5331C255.048 35.2064 257.446 29.0249 260.402 23.5477Z" fill="white"/>
<path d="M382.918 19.389C392.352 15.3258 401.675 10.9943 411.103 6.91992C411.903 10.8881 412.948 14.8004 413.736 18.763L413.579 19.1598C406.543 21.1831 399.467 23.0833 392.391 24.9389C393.196 29.03 394.23 33.0765 395.175 37.1397C400.484 35.3456 405.855 33.7024 411.109 31.7463C412.383 33.7695 412.864 36.156 413.836 38.3245C408.309 40.8172 402.53 42.7231 396.997 45.2046C398.081 49.2678 398.813 53.4148 399.976 57.4557C408.029 53.4037 416.089 49.3516 424.176 45.3667C424.103 49.0442 424.031 52.7162 424.014 56.3938C414.06 60.4234 404.05 64.3134 394.079 68.3039C392.771 62.7485 391.514 57.1818 390.251 51.6208C389.82 50.19 390.765 48.8989 391.1 47.5576C393.286 40.1913 390.48 31.763 384.617 26.8783C383.997 24.3911 383.427 21.8984 382.918 19.389Z" fill="white"/>
<path d="M426.77 18.9082C431.04 19.6515 435.316 20.3837 439.592 21.1382C439.53 21.5965 439.407 22.5019 439.346 22.9546C444.745 20.4787 450.887 20.3725 456.677 21.1438C461.076 21.7418 465.379 23.6533 468.42 26.9452C472.567 31.3717 474.165 38.0226 472.444 43.8407C471.236 47.6636 468.375 50.7376 465.077 52.9005C467.022 55.3038 468.867 57.9139 469.588 60.9766C470.845 65.99 471.08 71.2269 470.834 76.3743C467.503 75.4633 464.15 74.6306 460.874 73.5519C462.121 67.6275 462.546 60.2109 457.281 56.0304C449.674 57.45 442.313 54.0183 435.551 50.9555C434.774 57.0196 433.991 63.0837 433.052 69.1198C430.705 68.9465 428.374 68.6503 426.061 68.2423C426.463 51.7995 426.452 35.351 426.77 18.9082ZM438.205 31.4276C437.702 35.161 437.149 38.8889 436.741 42.6279C441.749 46.5235 448.042 48.8653 454.419 48.6976C457.979 48.5411 461.758 47.3339 464.066 44.4667C465.983 42.1752 466.542 38.8386 465.407 36.0664C464.144 32.8416 461.109 30.6786 457.929 29.5776C451.479 27.37 444.163 28.1636 438.205 31.4276Z" fill="white"/>
<path d="M343.182 22.3008C347.452 22.91 351.671 23.8154 355.941 24.4246C355.914 24.8717 355.863 25.7604 355.835 26.2019C362.425 23.5304 369.908 23.4912 376.727 25.2965C384.451 27.4091 390.068 35.1723 389.565 43.1813C389.487 49.3795 385.027 54.6443 379.684 57.3159C375.704 59.367 371.065 60.2948 366.639 59.4453C361.653 58.6237 356.981 56.6284 352.443 54.499C352.325 54.5102 352.096 54.527 351.979 54.5381C351.252 59.7583 350.593 64.9896 349.872 70.2153C347.536 69.9191 345.211 69.5558 342.902 69.0919C343.042 53.4986 343.165 37.8997 343.182 22.3008ZM354.583 34.8649C354.181 38.5704 353.555 42.2423 353.169 45.9479C358.082 49.8378 364.291 52.1293 370.585 52.0622C374.419 51.9616 378.543 50.6147 380.846 47.3675C382.813 44.7462 382.936 40.9513 381.243 38.1624C379.65 35.4573 376.833 33.7079 373.899 32.7746C367.544 30.7793 360.362 31.5506 354.583 34.8649Z" fill="white"/>
<path d="M326.208 28.0908C328.695 27.1127 331.143 26.0117 333.669 25.123C335.843 34.3114 337.956 43.5165 340.136 52.6992C341.298 56.8686 340.801 61.4292 339.063 65.3639C337.202 69.4941 333.233 72.3501 328.941 73.5462C322.95 75.2341 316.382 74.2951 310.849 71.5732C307.25 69.36 304.137 65.8725 303.271 61.6416C300.23 50.9107 297.056 40.2134 294.049 29.4657C296.944 28.7168 299.789 27.7834 302.689 27.0401C305.014 38.0225 307.434 48.9881 309.866 59.9481C310.894 62.2061 312.778 64.0169 314.79 65.4253C319.322 68.3931 325.582 67.6889 329.852 64.5646C332.708 62.6197 333.96 58.875 333.563 55.5496C331.149 46.3836 328.566 37.2624 326.208 28.0908Z" fill="white"/>
<path d="M77.6032 86.1227C89.737 79.0191 103.816 74.6485 117.973 75.6713C126.401 76.0625 135.002 78.7229 141.256 84.5801C149.668 92.8239 152.323 105.041 152.585 116.421C152.848 134.635 148.645 152.643 142.732 169.773C139.25 169.79 135.774 169.773 132.292 169.784C129.179 169.784 126.065 169.768 122.947 169.796C124.311 166.034 125.652 162.262 126.747 158.411C127.368 156.248 127.949 154.074 128.48 151.883C130.766 142.281 132.191 132.405 131.822 122.518C131.766 119.931 131.045 117.388 129.743 115.152C127.91 112.29 124.724 110.317 121.292 110.256C115.966 110.083 111.115 112.888 107.013 116.018C100.127 121.445 94.6665 128.415 89.5022 135.44C81.6665 146.389 74.6858 157.953 68.454 169.885C49.2223 169.986 29.9961 169.896 10.7699 169.93C7.19299 169.93 3.61602 169.919 0.0390625 169.935C10.8258 152.85 23.4179 136.971 36.7309 121.792C48.7584 108.261 61.8702 95.3166 77.6032 86.1227Z" fill="white"/>
<path d="M149.299 77.8045C154.988 75.9043 161.086 74.6747 167.094 75.4907C173.661 76.4632 179.211 80.4537 184.28 84.4778C184.951 85.1988 185.599 85.9365 186.253 86.6743C179.932 89.9327 173.482 93.1799 168.19 98.0144C166.496 99.7022 164.903 101.507 163.495 103.447C162.07 97.271 160.024 91.0896 156.324 85.8806C154.295 82.9296 151.853 80.2972 149.299 77.8045Z" fill="white"/>
<path d="M207.983 91.5777C219.301 89.3869 231.077 90.9238 241.869 94.7579C250.404 97.7871 258.497 102.074 265.796 107.445C263.325 109.96 260.95 112.564 258.418 115.018C248.369 112.967 237.923 112.101 227.757 113.788C220.72 114.929 213.907 118.472 209.548 124.206C207.519 126.889 206.217 130.265 206.591 133.669C207.223 140.113 212.141 145.601 218.071 147.865C221.917 149.552 226.226 149.368 230.322 149.105C238.544 148.418 246.564 146.255 254.322 143.533C254.841 145.869 255.367 148.211 255.898 150.547C256.395 152.766 256.898 154.985 257.373 157.209C246.871 162.055 235.99 166.247 224.627 168.544C216.64 170.103 208.251 170.863 200.281 168.79C192.915 166.817 185.543 164.632 178.697 161.206C173.667 158.556 168.905 155.024 165.87 150.123C161.79 143.611 161.013 135.574 161.79 128.08C162.595 120.646 166.261 113.777 171.386 108.417L171.52 108.261C181.379 98.7708 194.737 93.9587 207.983 91.5777Z" fill="white"/>
<path d="M295.373 94.8803C302.907 91.2474 311.464 90.4985 319.719 90.8171C328.628 91.2251 337.453 92.885 345.987 95.428C346.63 93.8743 347.273 92.3261 347.854 90.7556C358.965 90.6159 370.082 90.7276 381.192 90.6997C380.74 92.2982 380.276 93.891 379.829 95.4839C374.732 113.743 369.511 131.963 364.448 150.234C366.108 150.312 367.773 150.401 369.444 150.496C368.248 155.051 367.047 159.612 365.845 164.167C365.571 165.726 364.14 166.598 362.922 167.409C357.26 171.025 350.062 171.74 343.612 170.131C342.209 169.656 340.851 169.041 339.649 168.169C336.933 166.693 334.999 164.206 333.613 161.496C325.118 166.995 315.354 170.729 305.227 171.517C297.374 172.148 289.354 170.701 282.262 167.252C275.443 163.832 269.697 158.254 266.316 151.396C261.454 141.733 260.66 129.605 266.104 120.003C267.725 116.957 269.759 114.151 272.039 111.575C278.472 104.376 286.705 99.0106 295.373 94.8803ZM315.332 114.274C310.855 116.823 307.742 121.177 305.523 125.72C303.321 130.432 301.717 135.82 302.913 141.023C303.913 145.17 307.708 147.925 311.676 148.937C316.025 149.742 320.546 149.507 324.799 148.322C327.566 147.467 329.964 145.779 332.278 144.091C335.1 134.752 337.939 125.419 340.756 116.079C341.002 115.247 341.265 114.419 341.516 113.592C333.345 109.585 323.324 110.071 315.332 114.274Z" fill="white"/>
<path d="M395.159 91.2578C406.242 91.0622 417.331 90.8834 428.414 90.6934C428.319 92.2639 428.224 93.84 428.129 95.4161C439.894 93.1078 452.005 91.8223 463.971 93.1916C471.365 94.1082 479.084 96.3047 484.416 101.804C490.815 109.126 492.967 119.303 491.693 128.782C489.787 143.783 482.694 157.571 474.372 169.99C471.667 170.046 468.962 170.007 466.268 169.811C459.254 169.426 452.218 169.817 445.198 169.498C451.335 159.997 456.504 149.719 459.293 138.714C461.087 131.258 461.719 122.953 458.203 115.889C456.113 112.205 451.743 110.73 447.741 110.501C440.19 110.065 432.751 112.027 425.636 114.34C424.507 114.799 422.881 114.989 422.758 116.481C417.8 134.332 412.703 152.144 407.791 170.007C399.463 169.996 391.141 169.733 382.819 169.66C379.756 169.604 376.688 169.537 373.625 169.504C380.818 143.426 387.983 117.342 395.159 91.2578Z" fill="white"/>
<path d="M93.123 146.394C101.998 144.354 111.366 144.404 120.196 146.679C122.046 147.238 124.058 147.746 125.472 149.144C126.143 149.764 125.578 150.502 125.254 151.128C122.152 152.939 118.57 153.648 115.054 154.151C107.979 155.102 100.786 154.688 93.7266 153.816C92.0164 153.559 90.3117 153.285 88.6462 152.832C87.3831 152.369 85.8852 152.033 85.0581 150.876C84.6557 149.993 85.5946 149.373 86.2094 148.943C88.3276 147.668 90.7477 147.026 93.123 146.394Z" fill="white"/>
<path d="M488.44 161.27C488.44 159.26 489.221 157.377 490.644 155.954C491.341 155.254 492.17 154.7 493.083 154.323C493.996 153.946 494.975 153.754 495.962 153.757C496.95 153.754 497.928 153.946 498.84 154.323C499.753 154.7 500.581 155.254 501.278 155.954C501.979 156.65 502.535 157.478 502.913 158.391C503.291 159.303 503.484 160.282 503.481 161.27C503.481 165.418 500.108 168.791 495.962 168.791C494.974 168.795 493.995 168.602 493.082 168.223C492.169 167.845 491.34 167.289 490.644 166.588C489.221 165.172 488.44 163.282 488.44 161.27M495.962 170.014C498.294 170.014 500.491 169.105 502.142 167.458C503.791 165.801 504.704 163.605 504.704 161.27C504.704 158.941 503.791 156.747 502.142 155.09C501.332 154.276 500.369 153.63 499.309 153.191C498.248 152.752 497.11 152.528 495.962 152.531C491.136 152.531 487.221 156.452 487.221 161.27C487.221 163.605 488.131 165.802 489.781 167.458C490.592 168.271 491.555 168.915 492.616 169.354C493.677 169.793 494.814 170.017 495.962 170.014" fill="white"/>
<path d="M493.717 160.936H496.28C496.694 160.936 497.082 160.936 497.466 160.837C498.357 160.619 498.673 159.974 498.673 159.273C498.673 159.027 498.646 158.367 498.096 157.915C497.588 157.491 496.959 157.503 496.215 157.503H493.717V160.936V160.936ZM493.717 162.008V166.122H492.451V156.428H496.052C497.395 156.446 498.194 156.446 498.944 157.021C499.662 157.556 499.964 158.367 499.964 159.258C499.964 161.522 498.136 161.842 497.665 161.925L500.388 166.122H498.851L496.215 162.008H493.717V162.008Z" fill="white"/>
</svg>
