<svg width="388" height="118" viewBox="0 0 388 118" fill="none" xmlns="http://www.w3.org/2000/svg">
<g clip-path="url(#clip0)">
<path d="M3.09863 102V46.56H9.19703V96.5352H42.2234V102H3.09863Z" fill="white"/>
<path d="M52.7187 54.7176C51.6627 54.7176 50.7387 54.3216 49.9467 53.5296C49.1547 52.7376 48.7587 51.8136 48.7587 50.7576C48.7587 49.6488 49.1547 48.7248 49.9467 47.9856C50.7387 47.1936 51.6627 46.7976 52.7187 46.7976C53.8275 46.7976 54.7515 47.1936 55.4907 47.9856C56.2827 48.7248 56.6787 49.6488 56.6787 50.7576C56.6787 51.8136 56.2827 52.7376 55.4907 53.5296C54.7515 54.3216 53.8275 54.7176 52.7187 54.7176ZM55.6491 62.3208V102H49.7883V62.3208H55.6491Z" fill="white"/>
<path d="M83.6221 102.317C80.8765 102.317 78.2893 101.789 75.8605 100.733C73.4845 99.6768 71.3989 98.2512 69.6037 96.456C67.8085 94.608 66.3829 92.4432 65.3269 89.9616C64.3237 87.48 63.8221 84.8136 63.8221 81.9624C63.8221 79.1112 64.3237 76.4448 65.3269 73.9632C66.3829 71.4816 67.8085 69.3432 69.6037 67.548C71.3989 65.7 73.5109 64.248 75.9397 63.192C78.3685 62.136 80.9821 61.608 83.7805 61.608C86.0509 61.608 88.2421 62.0304 90.3541 62.8752C92.5189 63.6672 94.4989 64.8024 96.2941 66.2808V62.3208H102.076V102.95C102.076 108.019 100.597 111.9 97.6405 114.593C94.6837 117.338 90.4597 118.711 84.9685 118.711C82.2229 118.711 79.5037 118.342 76.8109 117.602C74.1181 116.916 71.6629 115.913 69.4453 114.593L71.9797 109.999C74.3557 111.266 76.5469 112.19 78.5533 112.771C80.6125 113.352 82.6717 113.642 84.7309 113.642C88.4797 113.642 91.3309 112.745 93.2845 110.95C95.2381 109.154 96.2149 106.514 96.2149 103.03V97.7232C94.4197 99.2016 92.4397 100.337 90.2749 101.129C88.1629 101.921 85.9453 102.317 83.6221 102.317ZM69.6037 81.9624C69.6037 84.0744 69.9733 86.0808 70.7125 87.9816C71.4517 89.8296 72.4549 91.44 73.7221 92.8128C75.0421 94.1328 76.5997 95.1888 78.3949 95.9808C80.1901 96.7728 82.0909 97.1688 84.0973 97.1688C86.6317 97.1688 88.9549 96.6936 91.0669 95.7432C93.1789 94.7928 94.8949 93.4464 96.2149 91.704V72.2208C94.8949 70.5312 93.1525 69.2112 90.9877 68.2608C88.8757 67.3104 86.5789 66.8352 84.0973 66.8352C82.0381 66.8352 80.1109 67.2312 78.3157 68.0232C76.5733 68.7624 75.0421 69.8184 73.7221 71.1912C72.4549 72.564 71.4517 74.1744 70.7125 76.0224C69.9733 77.8704 69.6037 79.8504 69.6037 81.9624Z" fill="white"/>
<path d="M112.05 102V46.56L117.911 45.2136V66.9936C119.442 65.1984 121.264 63.852 123.376 62.9544C125.488 62.004 127.837 61.5288 130.424 61.5288C134.912 61.5288 138.582 62.9544 141.433 65.8056C144.284 68.6568 145.71 72.3528 145.71 76.8936V102H139.928V78.0816C139.928 74.5968 138.925 71.8248 136.919 69.7656C134.912 67.7064 132.22 66.6768 128.84 66.6768C126.464 66.6768 124.326 67.2048 122.425 68.2608C120.577 69.3168 119.072 70.8216 117.911 72.7752V102H112.05Z" fill="white"/>
<path d="M158.881 93.1296V67.3104H150.327V62.3208H158.881V52.2624L164.662 50.7576V62.3208H176.622V67.3104H164.662V91.6248C164.662 93.7368 165.138 95.268 166.088 96.2184C167.038 97.116 168.596 97.5648 170.761 97.5648C171.869 97.5648 172.846 97.4856 173.691 97.3272C174.589 97.1688 175.539 96.9048 176.542 96.5352V101.683C175.539 102.053 174.404 102.317 173.137 102.475C171.922 102.634 170.734 102.713 169.573 102.713C166.141 102.713 163.501 101.894 161.653 100.258C159.805 98.6208 158.881 96.2448 158.881 93.1296Z" fill="white"/>
<path d="M199.638 102.317C196.892 102.317 194.305 101.789 191.876 100.733C189.5 99.6768 187.415 98.2512 185.619 96.456C183.824 94.608 182.399 92.4432 181.343 89.9616C180.339 87.48 179.838 84.8136 179.838 81.9624C179.838 79.1112 180.339 76.4448 181.343 73.9632C182.399 71.4816 183.824 69.3432 185.619 67.548C187.415 65.7 189.527 64.248 191.955 63.192C194.384 62.136 196.998 61.608 199.796 61.608C202.067 61.608 204.258 62.0304 206.37 62.8752C208.535 63.6672 210.515 64.8024 212.31 66.2808V62.3208H218.091V102.95C218.091 108.019 216.613 111.9 213.656 114.593C210.699 117.338 206.475 118.711 200.984 118.711C198.239 118.711 195.519 118.342 192.827 117.602C190.134 116.916 187.679 115.913 185.461 114.593L187.995 109.999C190.371 111.266 192.563 112.19 194.569 112.771C196.628 113.352 198.687 113.642 200.747 113.642C204.495 113.642 207.347 112.745 209.3 110.95C211.254 109.154 212.231 106.514 212.231 103.03V97.7232C210.435 99.2016 208.455 100.337 206.291 101.129C204.179 101.921 201.961 102.317 199.638 102.317ZM185.619 81.9624C185.619 84.0744 185.989 86.0808 186.728 87.9816C187.467 89.8296 188.471 91.44 189.738 92.8128C191.058 94.1328 192.615 95.1888 194.411 95.9808C196.206 96.7728 198.107 97.1688 200.113 97.1688C202.647 97.1688 204.971 96.6936 207.083 95.7432C209.195 94.7928 210.911 93.4464 212.231 91.704V72.2208C210.911 70.5312 209.168 69.2112 207.003 68.2608C204.891 67.3104 202.595 66.8352 200.113 66.8352C198.054 66.8352 196.127 67.2312 194.331 68.0232C192.589 68.7624 191.058 69.8184 189.738 71.1912C188.471 72.564 187.467 74.1744 186.728 76.0224C185.989 77.8704 185.619 79.8504 185.619 81.9624Z" fill="white"/>
<path d="M233.689 62.3208V86.2392C233.689 89.724 234.692 92.496 236.698 94.5552C238.705 96.6144 241.398 97.644 244.777 97.644C247.153 97.644 249.265 97.116 251.113 96.06C253.014 94.9512 254.545 93.42 255.706 91.4664V62.3208H261.567V102H255.706V97.4064C254.175 99.2016 252.354 100.548 250.242 101.446C248.182 102.343 245.859 102.792 243.272 102.792C238.731 102.792 235.035 101.366 232.184 98.5152C229.333 95.664 227.907 91.968 227.907 87.4272V62.3208H233.689Z" fill="white"/>
<path d="M271.533 102V62.3208H277.394V66.9936C278.925 65.1984 280.746 63.852 282.858 62.9544C284.97 62.004 287.32 61.5288 289.907 61.5288C294.395 61.5288 298.065 62.9544 300.916 65.8056C303.767 68.6568 305.193 72.3528 305.193 76.8936V102H299.411V78.0816C299.411 74.5968 298.408 71.8248 296.402 69.7656C294.395 67.7064 291.702 66.6768 288.323 66.6768C285.947 66.6768 283.809 67.2048 281.908 68.2608C280.06 69.3168 278.555 70.8216 277.394 72.7752V102H271.533Z" fill="white"/>
</g>
<defs>
<clipPath id="clip0">
<rect width="388" height="118" fill="white"/>
</clipPath>
</defs>
</svg>
