<svg width="388" height="118" viewBox="0 0 388 118" fill="none" xmlns="http://www.w3.org/2000/svg">
<g clip-path="url(#clip0)">
<path d="M3.09863 102V46.56H9.19703V96.5352H42.2234V102H3.09863Z" fill="white"/>
<path d="M52.7187 54.7176C51.6627 54.7176 50.7387 54.3216 49.9467 53.5296C49.1547 52.7376 48.7587 51.8136 48.7587 50.7576C48.7587 49.6488 49.1547 48.7248 49.9467 47.9856C50.7387 47.1936 51.6627 46.7976 52.7187 46.7976C53.8275 46.7976 54.7515 47.1936 55.4907 47.9856C56.2827 48.7248 56.6787 49.6488 56.6787 50.7576C56.6787 51.8136 56.2827 52.7376 55.4907 53.5296C54.7515 54.3216 53.8275 54.7176 52.7187 54.7176ZM55.6491 62.3208V102H49.7883V62.3208H55.6491Z" fill="white"/>
<path d="M83.6221 102.317C80.8765 102.317 78.2893 101.789 75.8605 100.733C73.4845 99.6768 71.3989 98.2512 69.6037 96.456C67.8085 94.608 66.3829 92.4432 65.3269 89.9616C64.3237 87.48 63.8221 84.8136 63.8221 81.9624C63.8221 79.1112 64.3237 76.4448 65.3269 73.9632C66.3829 71.4816 67.8085 69.3432 69.6037 67.548C71.3989 65.7 73.5109 64.248 75.9397 63.192C78.3685 62.136 80.9821 61.608 83.7805 61.608C86.0509 61.608 88.2421 62.0304 90.3541 62.8752C92.5189 63.6672 94.4989 64.8024 96.2941 66.2808V62.3208H102.076V102.95C102.076 108.019 100.597 111.9 97.6405 114.593C94.6837 117.338 90.4597 118.711 84.9685 118.711C82.2229 118.711 79.5037 118.342 76.8109 117.602C74.1181 116.916 71.6629 115.913 69.4453 114.593L71.9797 109.999C74.3557 111.266 76.5469 112.19 78.5533 112.771C80.6125 113.352 82.6717 113.642 84.7309 113.642C88.4797 113.642 91.3309 112.745 93.2845 110.95C95.2381 109.154 96.2149 106.514 96.2149 103.03V97.7232C94.4197 99.2016 92.4397 100.337 90.2749 101.129C88.1629 101.921 85.9453 102.317 83.6221 102.317ZM69.6037 81.9624C69.6037 84.0744 69.9733 86.0808 70.7125 87.9816C71.4517 89.8296 72.4549 91.44 73.7221 92.8128C75.0421 94.1328 76.5997 95.1888 78.3949 95.9808C80.1901 96.7728 82.0909 97.1688 84.0973 97.1688C86.6317 97.1688 88.9549 96.6936 91.0669 95.7432C93.1789 94.7928 94.8949 93.4464 96.2149 91.704V72.2208C94.8949 70.5312 93.1525 69.2112 90.9877 68.2608C88.8757 67.3104 86.5789 66.8352 84.0973 66.8352C82.0381 66.8352 80.1109 67.2312 78.3157 68.0232C76.5733 68.7624 75.0421 69.8184 73.7221 71.1912C72.4549 72.564 71.4517 74.1744 70.7125 76.0224C69.9733 77.8704 69.6037 79.8504 69.6037 81.9624Z" fill="white"/>
<path d="M112.05 102V46.56L117.911 45.2136V66.9936C119.442 65.1984 121.264 63.852 123.376 62.9544C125.488 62.004 127.837 61.5288 130.424 61.5288C134.912 61.5288 138.582 62.9544 141.433 65.8056C144.284 68.6568 145.71 72.3528 145.71 76.8936V102H139.928V78.0816C139.928 74.5968 138.925 71.8248 136.919 69.7656C134.912 67.7064 132.22 66.6768 128.84 66.6768C126.464 66.6768 124.326 67.2048 122.425 68.2608C120.577 69.3168 119.072 70.8216 117.911 72.7752V102H112.05Z" fill="white"/>
<path d="M158.881 93.1296V67.3104H150.327V62.3208H158.881V52.2624L164.662 50.7576V62.3208H176.622V67.3104H164.662V91.6248C164.662 93.7368 165.138 95.268 166.088 96.2184C167.038 97.116 168.596 97.5648 170.761 97.5648C171.869 97.5648 172.846 97.4856 173.691 97.3272C174.589 97.1688 175.539 96.9048 176.542 96.5352V101.683C175.539 102.053 174.404 102.317 173.137 102.475C171.922 102.634 170.734 102.713 169.573 102.713C166.141 102.713 163.501 101.894 161.653 100.258C159.805 98.6208 158.881 96.2448 158.881 93.1296Z" fill="white"/>
<path d="M199.638 102.317C196.892 102.317 194.305 101.789 191.876 100.733C189.5 99.6768 187.415 98.2512 185.619 96.456C183.824 94.608 182.399 92.4432 181.343 89.9616C180.339 87.48 179.838 84.8136 179.838 81.9624C179.838 79.1112 180.339 76.4448 181.343 73.9632C182.399 71.4816 183.824 69.3432 185.619 67.548C187.415 65.7 189.527 64.248 191.955 63.192C194.384 62.136 196.998 61.608 199.796 61.608C202.067 61.608 204.258 62.0304 206.37 62.8752C208.535 63.6672 210.515 64.8024 212.31 66.2808V62.3208H218.091V102.95C218.091 108.019 216.613 111.9 213.656 114.593C210.699 117.338 206.475 118.711 200.984 118.711C198.239 118.711 195.519 118.342 192.827 117.602C190.134 116.916 187.679 115.913 185.461 114.593L187.995 109.999C190.371 111.266 192.563 112.19 194.569 112.771C196.628 113.352 198.687 113.642 200.747 113.642C204.495 113.642 207.347 112.745 209.3 110.95C211.254 109.154 212.231 106.514 212.231 103.03V97.7232C210.435 99.2016 208.455 100.337 206.291 101.129C204.179 101.921 201.961 102.317 199.638 102.317ZM185.619 81.9624C185.619 84.0744 185.989 86.0808 186.728 87.9816C187.467 89.8296 188.471 91.44 189.738 92.8128C191.058 94.1328 192.615 95.1888 194.411 95.9808C196.206 96.7728 198.107 97.1688 200.113 97.1688C202.647 97.1688 204.971 96.6936 207.083 95.7432C209.195 94.7928 210.911 93.4464 212.231 91.704V72.2208C210.911 70.5312 209.168 69.2112 207.003 68.2608C204.891 67.3104 202.595 66.8352 200.113 66.8352C198.054 66.8352 196.127 67.2312 194.331 68.0232C192.589 68.7624 191.058 69.8184 189.738 71.1912C188.471 72.564 187.467 74.1744 186.728 76.0224C185.989 77.8704 185.619 79.8504 185.619 81.9624Z" fill="white"/>
<path d="M233.689 62.3208V86.2392C233.689 89.724 234.692 92.496 236.698 94.5552C238.705 96.6144 241.398 97.644 244.777 97.644C247.153 97.644 249.265 97.116 251.113 96.06C253.014 94.9512 254.545 93.42 255.706 91.4664V62.3208H261.567V102H255.706V97.4064C254.175 99.2016 252.354 100.548 250.242 101.446C248.182 102.343 245.859 102.792 243.272 102.792C238.731 102.792 235.035 101.366 232.184 98.5152C229.333 95.664 227.907 91.968 227.907 87.4272V62.3208H233.689Z" fill="white"/>
<path d="M271.533 102V62.3208H277.394V66.9936C278.925 65.1984 280.746 63.852 282.858 62.9544C284.97 62.004 287.32 61.5288 289.907 61.5288C294.395 61.5288 298.065 62.9544 300.916 65.8056C303.767 68.6568 305.193 72.3528 305.193 76.8936V102H299.411V78.0816C299.411 74.5968 298.408 71.8248 296.402 69.7656C294.395 67.7064 291.702 66.6768 288.323 66.6768C285.947 66.6768 283.809 67.2048 281.908 68.2608C280.06 69.3168 278.555 70.8216 277.394 72.7752V102H271.533Z" fill="white"/>
<path fill-rule="evenodd" clip-rule="evenodd" d="M3.18011 26.3038C3.04908 25.6823 3.09916 21.5227 3.15205 20.7952C3.9919 20.6756 4.72554 20.6975 5.4654 20.7197C5.63271 20.7247 5.80034 20.7297 5.96958 20.7331C6.30298 20.7397 6.70587 20.7272 7.14148 20.7137C8.58844 20.6689 10.3963 20.6128 11.2167 21.2105C12.7084 22.2971 12.8834 24.4395 11.4439 25.672C10.6602 26.343 9.74038 26.3596 8.70356 26.3351C7.71995 26.3119 6.76395 26.3143 5.80892 26.3167C4.93933 26.3188 4.06943 26.321 3.18011 26.3038ZM3.20389 17.5989C3.18299 17.5173 3.08314 12.7101 3.18653 12.0966C3.18943 12.0795 3.19345 12.0609 3.19723 12.0434C3.1994 12.0334 3.20148 12.0237 3.20323 12.015L3.24716 11.8542C3.70209 11.7914 6.83244 11.7764 7.20051 11.8813C10.0741 12.7001 9.95809 16.7076 7.38033 17.4254C6.44999 17.6844 5.21629 17.6483 4.15753 17.6173C3.81611 17.6073 3.49288 17.5978 3.20389 17.5989ZM0.632389 29.3375L0.542303 29.3286C0.446338 28.7805 0.332299 28.1941 0.199168 27.5676C-0.0334783 26.1551 -0.0098146 24.9473 0.0154406 23.6584C0.0216638 23.3409 0.0279831 23.0184 0.0305892 22.6867L0.0213973 13.0696C0.013153 11.2211 0.0101101 10.238 1.34793 9.24527C2.31506 8.52749 3.77884 8.60897 5.05411 8.67996C5.35675 8.6968 5.64876 8.71306 5.921 8.7179C7.86244 8.75245 8.66619 8.93961 9.93068 9.79899C11.0329 10.5481 11.9664 11.7633 12.3079 13.4974C12.6504 15.2358 12.3989 15.8352 12.0799 16.5951C11.9343 16.9419 11.7746 17.3222 11.651 17.8596C11.7596 17.9749 11.9812 18.097 12.2613 18.2514C12.7481 18.5197 13.4119 18.8856 13.9681 19.4827C16.3947 22.0883 15.9193 25.724 13.6527 27.9018C11.9339 29.5533 9.96404 29.4903 7.68996 29.4175L7.6844 29.4174C7.574 29.4138 7.46289 29.4103 7.35106 29.4069C6.47806 29.3806 5.5996 29.3985 4.71861 29.4165C3.35894 29.4442 1.99326 29.472 0.632389 29.3375Z" fill="white"/>
<path fill-rule="evenodd" clip-rule="evenodd" d="M55.8824 11.6616C58.1268 10.6757 60.4818 11.0617 62.1614 11.8676C64.0123 12.7557 64.9151 13.8359 66.0427 15.9757C67.057 17.9003 66.5043 20.9001 65.8087 22.2823C63.8233 26.2275 59.2445 27.8134 55.3063 25.882C51.5466 24.0382 49.8051 19.157 51.8115 15.4391C52.7415 13.7155 53.7156 12.6134 55.8824 11.6616ZM55.5935 8.47424C54.9038 8.84824 53.6856 8.9105 51.7508 10.5196C50.6814 11.4091 49.9671 12.359 49.2717 13.4852C46.3282 18.2521 48.0132 25.4071 53.4368 28.4286C62.2593 33.3436 72.2039 24.7266 69.2439 15.5868C67.929 11.5266 64.2292 8.54901 60.3949 8.09665C59.3223 7.97014 56.7133 7.86695 55.5935 8.47424Z" fill="white"/>
<path fill-rule="evenodd" clip-rule="evenodd" d="M122.787 19.1972C122.42 18.0548 123.503 15.0901 123.982 14.2774C126.097 10.6884 129.57 10.0782 132.062 13.5193C133.231 15.1326 133.648 16.9145 133.772 19.1569C133.226 19.3202 124.647 19.1621 122.787 19.1972ZM122.628 29.2795C122.821 28.7909 122.729 23.4437 122.725 22.4338C123.055 22.3487 133.344 22.3408 133.667 22.4369C133.854 23.0581 133.771 25.0894 133.774 25.8794C133.778 26.6536 133.659 28.7398 133.841 29.341C137.522 28.9506 136.826 25.8889 136.962 24.2286C137.05 23.1513 136.956 21.7539 136.962 20.6013C136.97 19.1665 137.063 18.3954 136.769 16.7836C135.931 12.2059 132.771 7.87314 128.023 8.10762C122.995 8.3559 120.254 13.1008 119.716 16.9727C119.539 18.2501 119.509 22.6601 119.543 24.0959C119.567 25.116 119.353 26.7961 119.943 27.7335C120.476 28.5783 121.533 29.4669 122.628 29.2795Z" fill="white"/>
<path fill-rule="evenodd" clip-rule="evenodd" d="M20.4864 19.1111C20.0704 16.7218 21.982 11.5552 25.7095 11.2076C29.902 10.8166 31.8036 17.4931 31.3989 19.025C30.7171 19.2629 24.6679 19.1141 23.1435 19.1452C22.2384 19.1636 21.2968 19.0441 20.4864 19.1111ZM20.3515 29.1996C20.4467 27.2698 20.4111 24.2836 20.3507 22.3889C20.6544 22.2502 30.919 22.231 31.354 22.3506C31.5485 23.0248 31.4105 24.9571 31.4175 25.7573C31.4252 26.6246 31.3319 28.5479 31.492 29.2803C34.55 28.937 34.7835 26.6693 34.6157 24.1266L34.6354 20.5206C34.6556 16.6369 34.2553 13.5019 31.4055 10.4614C29.9831 8.94385 28.2681 8.05077 25.7375 8.0204C22.966 7.98712 21.0124 9.76116 19.8108 11.1809C18.6322 12.5734 17.7086 14.7728 17.399 16.8939C17.0816 19.0687 17.2346 21.7039 17.2113 23.9826C17.1999 25.102 17.0328 26.6023 17.6141 27.6733C18.125 28.6145 19.2349 29.3125 20.3515 29.1996Z" fill="white"/>
<path fill-rule="evenodd" clip-rule="evenodd" d="M108.632 11.5607C110.815 10.4853 113.076 11.8559 113.827 13.5104C114.878 15.8242 113.568 17.9483 111.828 18.6954C107.109 20.7214 103.871 13.9069 108.632 11.5607ZM106.325 22.0632C106.783 22.1759 107.123 22.6627 107.62 23.1651C108.645 24.2033 112.908 28.5768 113.572 28.9624C114.795 29.672 116.046 29.3241 117.186 28.5563C116.923 27.6516 111.639 23.2175 111.185 22.134C116.911 21.001 118.593 15.4252 116.321 11.5488C113.278 6.35753 105.32 7.11146 103.438 13.2252C102.971 14.7404 103.199 22.2275 103.187 24.0782L103.183 28.6378C103.179 29.0378 103.071 29.2443 103.415 29.3033C103.838 29.3758 104.878 28.9038 105.152 28.667C106.903 27.1512 106.057 25.0135 106.325 22.0632Z" fill="white"/>
<path fill-rule="evenodd" clip-rule="evenodd" d="M101.671 29.2954C101.222 25.3157 97.7382 26.4483 95.2954 26.2406C94.7458 26.1938 92.7514 26.3952 92.4898 26.1801L92.4053 26.0459C92.3986 26.0285 92.3788 25.9952 92.3718 25.9731C92.2683 25.6502 92.3821 23.7122 92.3569 23.0684C92.3174 22.0573 92.3469 20.8636 92.3662 19.8596C93.5852 19.5632 97.8318 20.0611 98.5993 19.6715C98.4922 18.1039 97.5174 17.1569 96.4725 16.8169C95.3455 16.4501 93.0813 16.8041 92.4243 16.6114C92.3342 16.1817 92.2761 12.169 92.4531 11.7677L98.1184 11.7389C99.2365 11.7841 100.006 11.5528 100.723 10.9067C101.24 10.4398 101.799 9.52877 101.622 8.6152L97.6391 8.57072C97.1096 8.57287 96.6361 8.63994 96.1216 8.62817C91.7301 8.52742 89.0635 7.88681 89.2366 13.3807C89.3054 15.5623 89.0749 25.9633 89.3497 27.0999C90.0404 29.9574 93.6609 29.3986 96.0933 29.3589C97.059 29.3431 97.9081 29.4132 98.8674 29.3631C99.7145 29.3188 100.889 29.4931 101.671 29.2954Z" fill="white"/>
<path fill-rule="evenodd" clip-rule="evenodd" d="M88.212 8.6731L82.6097 8.63307C80.4545 8.63174 78.6764 9.00029 76.8138 9.97491C68.1347 14.5163 69.9055 26.8023 79.5508 29.0492C81.3761 29.4743 83.1127 29.29 85.0512 29.365C85.4768 29.3815 85.9545 29.3648 86.4089 29.3596C87.9535 29.3417 88.6106 29.8019 88.0102 28.2195C87.0207 25.612 84.0819 26.3456 82.2715 26.2375C78.6459 26.021 75.73 24.5297 74.5851 20.8454C73.4578 17.2179 75.6424 13.8674 78.9179 12.456C82.7686 10.7967 85.1037 12.8217 87.2612 10.9134C87.8144 10.4241 88.3097 9.60373 88.212 8.6731Z" fill="white"/>
<path fill-rule="evenodd" clip-rule="evenodd" d="M40.0051 11.6836C40.2633 12.7317 39.8458 27.9447 40.1481 29.2885C43.8525 28.7677 43.1052 25.8906 43.1798 23.943C43.2468 22.1953 43.063 12.0534 43.2423 11.8119C43.4099 11.5861 44.0083 11.6831 44.1881 11.6885C44.9277 11.7104 46.8218 11.7081 47.4007 11.4821C48.7093 10.971 49.432 9.87083 49.3927 8.59581C49.0328 8.47477 36.4554 8.47125 34.5804 8.49796C33.7712 8.50945 33.7035 8.55345 33.9616 9.43126C34.7968 12.2721 38.0106 11.5843 40.0051 11.6836Z" fill="white"/>
</g>
<defs>
<clipPath id="clip0">
<rect width="388" height="118" fill="white"/>
</clipPath>
</defs>
</svg>
