<svg width="564" height="118" viewBox="0 0 564 118" fill="none" xmlns="http://www.w3.org/2000/svg">
<g clip-path="url(#clip0_768_156)">
<path d="M3.0984 102V46.56H9.1968V96.5352H42.2232V102H3.0984ZM49.788 102V62.3208H55.6488V102H49.788ZM52.7184 54.7176C51.6624 54.7176 50.7384 54.3216 49.9464 53.5296C49.1544 52.7376 48.7584 51.8136 48.7584 50.7576C48.7584 49.6488 49.1544 48.7248 49.9464 47.9856C50.7384 47.1936 51.6624 46.7976 52.7184 46.7976C53.8272 46.7976 54.7512 47.1936 55.4904 47.9856C56.2824 48.7248 56.6784 49.6488 56.6784 50.7576C56.6784 51.8136 56.2824 52.7376 55.4904 53.5296C54.7512 54.3216 53.8272 54.7176 52.7184 54.7176ZM84.9683 118.949C82.2227 118.949 79.5035 118.579 76.8107 117.84C74.1179 117.154 71.6627 116.15 69.4451 114.83L71.9795 110.237C74.3555 111.504 76.5467 112.428 78.5531 113.009C80.6123 113.59 82.6715 113.88 84.7307 113.88C88.4795 113.88 91.3307 112.982 93.2843 111.187C95.2379 109.392 96.2147 106.752 96.2147 103.267V97.7232C92.5715 100.786 88.3739 102.317 83.6219 102.317C79.9787 102.317 76.6523 101.419 73.6427 99.624C70.6331 97.8288 68.2307 95.4 66.4355 92.3376C64.6931 89.2224 63.8219 85.764 63.8219 81.9624C63.8219 78.1608 64.6931 74.7288 66.4355 71.6664C68.2307 68.5512 70.6331 66.096 73.6427 64.3008C76.6523 62.5056 80.0315 61.608 83.7803 61.608C86.0507 61.608 88.2419 62.004 90.3539 62.796C92.5187 63.588 94.4987 64.7496 96.2939 66.2808V62.3208H102.076V103.188C102.076 108.257 100.597 112.138 97.6403 114.83C94.6835 117.576 90.4595 118.949 84.9683 118.949ZM84.0971 97.1688C86.6315 97.1688 88.9547 96.6936 91.0667 95.7432C93.1787 94.7928 94.8947 93.4464 96.2147 91.704V72.2208C94.8947 70.5312 93.1523 69.2112 90.9875 68.2608C88.8755 67.3104 86.5787 66.8352 84.0971 66.8352C81.3515 66.8352 78.8699 67.4952 76.6523 68.8152C74.4875 70.1352 72.7715 71.9568 71.5043 74.28C70.2371 76.5504 69.6035 79.1112 69.6035 81.9624C69.6035 84.8136 70.2371 87.4008 71.5043 89.724C72.8243 91.9944 74.5667 93.816 76.7315 95.1888C78.9491 96.5088 81.4043 97.1688 84.0971 97.1688ZM112.05 102V46.56L117.911 45.2136V66.9936C121.026 63.3504 125.197 61.5288 130.424 61.5288C133.434 61.5288 136.074 62.1888 138.344 63.5088C140.667 64.776 142.463 66.5712 143.73 68.8944C145.05 71.1648 145.71 73.8312 145.71 76.8936V102H139.928V78.0816C139.928 74.544 138.925 71.772 136.919 69.7656C134.965 67.7064 132.272 66.6768 128.84 66.6768C126.464 66.6768 124.352 67.2048 122.504 68.2608C120.656 69.3168 119.125 70.8216 117.911 72.7752V102H112.05ZM169.959 102.792C166.527 102.792 163.887 101.974 162.039 100.337C160.191 98.7 159.267 96.324 159.267 93.2088V67.3104H150.714V62.3208H159.267V52.2624L165.049 50.7576V62.3208H177.008V67.3104H165.049V91.704C165.049 93.816 165.524 95.3472 166.474 96.2976C167.425 97.1952 168.982 97.644 171.147 97.644C172.256 97.644 173.233 97.5648 174.078 97.4064C174.975 97.248 175.926 96.984 176.929 96.6144V101.762C175.926 102.132 174.79 102.396 173.523 102.554C172.309 102.713 171.121 102.792 169.959 102.792ZM201.835 118.949C199.089 118.949 196.37 118.579 193.677 117.84C190.984 117.154 188.529 116.15 186.312 114.83L188.846 110.237C191.222 111.504 193.413 112.428 195.42 113.009C197.479 113.59 199.538 113.88 201.597 113.88C205.346 113.88 208.197 112.982 210.151 111.187C212.104 109.392 213.081 106.752 213.081 103.267V97.7232C209.438 100.786 205.24 102.317 200.488 102.317C196.845 102.317 193.519 101.419 190.509 99.624C187.5 97.8288 185.097 95.4 183.302 92.3376C181.56 89.2224 180.688 85.764 180.688 81.9624C180.688 78.1608 181.56 74.7288 183.302 71.6664C185.097 68.5512 187.5 66.096 190.509 64.3008C193.519 62.5056 196.898 61.608 200.647 61.608C202.917 61.608 205.108 62.004 207.22 62.796C209.385 63.588 211.365 64.7496 213.16 66.2808V62.3208H218.942V103.188C218.942 108.257 217.464 112.138 214.507 114.83C211.55 117.576 207.326 118.949 201.835 118.949ZM200.964 97.1688C203.498 97.1688 205.821 96.6936 207.933 95.7432C210.045 94.7928 211.761 93.4464 213.081 91.704V72.2208C211.761 70.5312 210.019 69.2112 207.854 68.2608C205.742 67.3104 203.445 66.8352 200.964 66.8352C198.218 66.8352 195.736 67.4952 193.519 68.8152C191.354 70.1352 189.638 71.9568 188.371 74.28C187.104 76.5504 186.47 79.1112 186.47 81.9624C186.47 84.8136 187.104 87.4008 188.371 89.724C189.691 91.9944 191.433 93.816 193.598 95.1888C195.816 96.5088 198.271 97.1688 200.964 97.1688ZM244.123 102.792C241.113 102.792 238.447 102.158 236.123 100.891C233.8 99.5712 231.979 97.776 230.659 95.5056C229.391 93.1824 228.758 90.4896 228.758 87.4272V62.3208H234.539V86.2392C234.539 89.7768 235.543 92.5752 237.549 94.6344C239.555 96.6408 242.248 97.644 245.627 97.644C248.003 97.644 250.115 97.116 251.963 96.06C253.864 94.9512 255.395 93.42 256.557 91.4664V62.3208H262.418V102H256.557V97.4064C253.442 100.997 249.297 102.792 244.123 102.792ZM272.383 102V62.3208H278.244V66.9936C281.359 63.3504 285.531 61.5288 290.758 61.5288C293.767 61.5288 296.407 62.1888 298.678 63.5088C301.001 64.776 302.796 66.5712 304.063 68.8944C305.383 71.1648 306.043 73.8312 306.043 76.8936V102H300.262V78.0816C300.262 74.544 299.259 71.772 297.252 69.7656C295.299 67.7064 292.606 66.6768 289.174 66.6768C286.798 66.6768 284.686 67.2048 282.838 68.2608C280.99 69.3168 279.459 70.8216 278.244 72.7752V102H272.383ZM352.191 118.949C349.445 118.949 346.726 118.579 344.033 117.84C341.341 117.154 338.885 116.15 336.668 114.83L339.202 110.237C341.578 111.504 343.769 112.428 345.776 113.009C347.835 113.59 349.894 113.88 351.953 113.88C355.702 113.88 358.553 112.982 360.507 111.187C362.461 109.392 363.437 106.752 363.437 103.267V97.7232C359.794 100.786 355.597 102.317 350.845 102.317C347.201 102.317 343.875 101.419 340.865 99.624C337.856 97.8288 335.453 95.4 333.658 92.3376C331.916 89.2224 331.045 85.764 331.045 81.9624C331.045 78.1608 331.916 74.7288 333.658 71.6664C335.453 68.5512 337.856 66.096 340.865 64.3008C343.875 62.5056 347.254 61.608 351.003 61.608C353.273 61.608 355.465 62.004 357.577 62.796C359.741 63.588 361.721 64.7496 363.517 66.2808V62.3208H369.298V103.188C369.298 108.257 367.82 112.138 364.863 114.83C361.906 117.576 357.682 118.949 352.191 118.949ZM351.32 97.1688C353.854 97.1688 356.177 96.6936 358.289 95.7432C360.401 94.7928 362.117 93.4464 363.437 91.704V72.2208C362.117 70.5312 360.375 69.2112 358.21 68.2608C356.098 67.3104 353.801 66.8352 351.32 66.8352C348.574 66.8352 346.093 67.4952 343.875 68.8152C341.71 70.1352 339.994 71.9568 338.727 74.28C337.46 76.5504 336.826 79.1112 336.826 81.9624C336.826 84.8136 337.46 87.4008 338.727 89.724C340.047 91.9944 341.789 93.816 343.954 95.1888C346.172 96.5088 348.627 97.1688 351.32 97.1688ZM391.786 102.713C388.882 102.713 386.321 102.211 384.104 101.208C381.939 100.205 380.223 98.8056 378.956 97.0104C377.741 95.2152 377.134 93.1296 377.134 90.7536C377.134 87.0048 378.56 84.048 381.411 81.8832C384.262 79.7184 388.116 78.636 392.974 78.636C397.251 78.636 401.132 79.5336 404.616 81.3288V76.1016C404.616 72.9336 403.719 70.5576 401.924 68.9736C400.128 67.3368 397.515 66.5184 394.083 66.5184C392.129 66.5184 390.149 66.8088 388.143 67.3896C386.189 67.9176 384.024 68.7888 381.648 70.0032L379.431 65.4888C382.282 64.116 384.922 63.1128 387.351 62.4792C389.78 61.8456 392.208 61.5288 394.637 61.5288C399.653 61.5288 403.508 62.7168 406.2 65.0928C408.946 67.4688 410.319 70.8744 410.319 75.3096V102H404.616V98.1192C402.821 99.6504 400.841 100.812 398.676 101.604C396.564 102.343 394.268 102.713 391.786 102.713ZM382.757 90.5952C382.757 92.8128 383.681 94.6344 385.529 96.06C387.43 97.4328 389.859 98.1192 392.816 98.1192C395.192 98.1192 397.356 97.7496 399.31 97.0104C401.264 96.2712 403.032 95.1096 404.616 93.5256V86.0808C402.98 84.972 401.237 84.18 399.389 83.7048C397.541 83.1768 395.456 82.9128 393.132 82.9128C389.964 82.9128 387.43 83.6256 385.529 85.0512C383.681 86.424 382.757 88.272 382.757 90.5952ZM420.11 102V62.3208H425.971V66.6768C428.98 63.2448 432.861 61.5288 437.613 61.5288C440.412 61.5288 442.893 62.1888 445.058 63.5088C447.223 64.776 448.912 66.5184 450.127 68.736C451.764 66.3072 453.717 64.512 455.988 63.3504C458.258 62.136 460.845 61.5288 463.749 61.5288C466.653 61.5288 469.188 62.1888 471.352 63.5088C473.517 64.776 475.207 66.5712 476.421 68.8944C477.688 71.1648 478.322 73.8312 478.322 76.8936V102H472.54V78.0816C472.54 74.544 471.616 71.772 469.768 69.7656C467.92 67.7064 465.412 66.6768 462.244 66.6768C460.08 66.6768 458.1 67.2312 456.304 68.34C454.509 69.396 452.978 71.0064 451.711 73.1712C451.816 73.752 451.896 74.3592 451.948 74.9928C452.054 75.5736 452.107 76.2072 452.107 76.8936V102H446.325V78.0816C446.325 74.544 445.401 71.772 443.553 69.7656C441.705 67.7064 439.223 66.6768 436.108 66.6768C433.996 66.6768 432.069 67.1784 430.327 68.1816C428.637 69.132 427.185 70.5576 425.971 72.4584V102H420.11ZM506.784 102.713C502.983 102.713 499.524 101.815 496.409 100.02C493.347 98.172 490.892 95.6904 489.044 92.5752C487.248 89.46 486.351 85.9752 486.351 82.1208C486.351 78.3192 487.222 74.8872 488.964 71.8248C490.707 68.7096 493.056 66.2544 496.013 64.4592C498.97 62.6112 502.27 61.6872 505.913 61.6872C509.451 61.6872 512.619 62.6112 515.417 64.4592C518.268 66.2544 520.512 68.7096 522.149 71.8248C523.839 74.8872 524.684 78.3192 524.684 82.1208V83.9424H492.132C492.449 86.5296 493.268 88.8528 494.588 90.912C495.96 92.9712 497.729 94.608 499.894 95.8224C502.059 96.984 504.435 97.5648 507.022 97.5648C509.081 97.5648 511.088 97.248 513.041 96.6144C514.995 95.9808 516.632 95.0832 517.952 93.9216L521.595 97.8024C519.377 99.4392 517.054 100.68 514.625 101.525C512.249 102.317 509.636 102.713 506.784 102.713ZM492.291 79.2696H518.823C518.506 76.8936 517.714 74.7816 516.447 72.9336C515.232 71.0328 513.701 69.5544 511.853 68.4984C510.005 67.3896 507.972 66.8352 505.755 66.8352C503.484 66.8352 501.399 67.3632 499.498 68.4192C497.597 69.4752 496.013 70.9536 494.746 72.8544C493.479 74.7024 492.66 76.8408 492.291 79.2696ZM545.936 102.792C542.662 102.792 539.573 102.264 536.669 101.208C533.818 100.099 531.337 98.568 529.225 96.6144L532.789 92.8128C534.637 94.5024 536.669 95.8224 538.887 96.7728C541.105 97.6704 543.375 98.1192 545.698 98.1192C548.866 98.1192 551.453 97.4592 553.46 96.1392C555.466 94.8192 556.469 93.1032 556.469 90.9912C556.469 89.2488 555.862 87.9024 554.648 86.952C553.486 85.9488 551.638 85.2624 549.104 84.8928L542.213 83.9424C538.253 83.3616 535.297 82.1736 533.343 80.3784C531.442 78.5832 530.492 76.1544 530.492 73.092C530.492 70.8744 531.125 68.8944 532.393 67.152C533.66 65.4096 535.402 64.0368 537.62 63.0336C539.89 62.0304 542.477 61.5288 545.381 61.5288C548.285 61.5288 551.005 61.9512 553.539 62.796C556.073 63.6408 558.555 64.9608 560.984 66.756L557.895 70.716C555.677 69.1848 553.513 68.076 551.401 67.3896C549.341 66.6504 547.229 66.2808 545.065 66.2808C542.319 66.2808 540.101 66.888 538.412 68.1024C536.722 69.3168 535.877 70.9008 535.877 72.8544C535.877 74.6496 536.458 76.0224 537.62 76.9728C538.781 77.8704 540.656 78.504 543.243 78.8736L550.133 79.824C554.093 80.352 557.05 81.5136 559.004 83.3088C561.01 85.104 562.013 87.5592 562.013 90.6744C562.013 92.9448 561.301 95.004 559.875 96.852C558.449 98.7 556.522 100.152 554.093 101.208C551.717 102.264 548.998 102.792 545.936 102.792Z" fill="white"/>
<path fill-rule="evenodd" clip-rule="evenodd" d="M3.18011 26.3038C3.04908 25.6823 3.09916 21.5227 3.15205 20.7952C3.9919 20.6756 4.72554 20.6975 5.4654 20.7197C5.63271 20.7247 5.80034 20.7297 5.96958 20.7331C6.30298 20.7397 6.70587 20.7272 7.14148 20.7137C8.58844 20.6689 10.3963 20.6128 11.2167 21.2105C12.7084 22.2971 12.8834 24.4395 11.4439 25.672C10.6602 26.343 9.74038 26.3596 8.70356 26.3351C7.71995 26.3119 6.76395 26.3143 5.80892 26.3167C4.93933 26.3188 4.06943 26.321 3.18011 26.3038ZM3.20389 17.5989C3.18299 17.5173 3.08314 12.7101 3.18653 12.0966C3.18943 12.0795 3.19345 12.0609 3.19723 12.0434C3.1994 12.0334 3.20148 12.0237 3.20323 12.015L3.24716 11.8542C3.70209 11.7914 6.83244 11.7764 7.20051 11.8813C10.0741 12.7001 9.95809 16.7076 7.38033 17.4254C6.44999 17.6844 5.21629 17.6483 4.15753 17.6173C3.81611 17.6073 3.49288 17.5978 3.20389 17.5989ZM0.632389 29.3375L0.542303 29.3286C0.446338 28.7805 0.332299 28.1941 0.199168 27.5676C-0.0334783 26.1551 -0.0098146 24.9473 0.0154406 23.6584C0.0216638 23.3409 0.0279831 23.0184 0.0305892 22.6867L0.0213973 13.0696C0.013153 11.2211 0.0101101 10.238 1.34793 9.24527C2.31506 8.52749 3.77884 8.60897 5.05411 8.67996C5.35675 8.6968 5.64876 8.71306 5.921 8.7179C7.86244 8.75245 8.66619 8.93961 9.93068 9.79899C11.0329 10.5481 11.9664 11.7633 12.3079 13.4974C12.6504 15.2358 12.3989 15.8352 12.0799 16.5951C11.9343 16.9419 11.7746 17.3222 11.651 17.8596C11.7596 17.9749 11.9812 18.097 12.2613 18.2514C12.7481 18.5197 13.4119 18.8856 13.9681 19.4827C16.3947 22.0883 15.9193 25.724 13.6527 27.9018C11.9339 29.5533 9.96404 29.4903 7.68996 29.4175L7.6844 29.4174C7.574 29.4138 7.46289 29.4103 7.35106 29.4069C6.47806 29.3806 5.5996 29.3985 4.71861 29.4165C3.35894 29.4442 1.99326 29.472 0.632389 29.3375Z" fill="white"/>
<path fill-rule="evenodd" clip-rule="evenodd" d="M55.8824 11.6616C58.1268 10.6757 60.4818 11.0617 62.1614 11.8676C64.0123 12.7557 64.9151 13.8359 66.0427 15.9757C67.057 17.9003 66.5043 20.9001 65.8087 22.2823C63.8233 26.2275 59.2445 27.8134 55.3063 25.882C51.5466 24.0382 49.8051 19.157 51.8115 15.4391C52.7415 13.7155 53.7156 12.6134 55.8824 11.6616ZM55.5935 8.47424C54.9038 8.84824 53.6856 8.9105 51.7508 10.5196C50.6814 11.4091 49.9671 12.359 49.2717 13.4852C46.3282 18.2521 48.0132 25.4071 53.4368 28.4286C62.2593 33.3436 72.2039 24.7266 69.2439 15.5868C67.929 11.5266 64.2292 8.54901 60.3949 8.09665C59.3223 7.97014 56.7133 7.86695 55.5935 8.47424Z" fill="white"/>
<path fill-rule="evenodd" clip-rule="evenodd" d="M122.787 19.1972C122.42 18.0548 123.503 15.0901 123.982 14.2774C126.097 10.6884 129.57 10.0782 132.062 13.5193C133.231 15.1326 133.648 16.9145 133.772 19.1569C133.226 19.3202 124.647 19.1621 122.787 19.1972ZM122.628 29.2795C122.821 28.7909 122.729 23.4437 122.725 22.4338C123.055 22.3487 133.344 22.3408 133.667 22.4369C133.854 23.0581 133.771 25.0894 133.774 25.8794C133.778 26.6536 133.659 28.7398 133.841 29.341C137.522 28.9506 136.826 25.8889 136.962 24.2286C137.05 23.1513 136.956 21.7539 136.962 20.6013C136.97 19.1665 137.063 18.3954 136.769 16.7836C135.931 12.2059 132.771 7.87314 128.023 8.10762C122.995 8.3559 120.254 13.1008 119.716 16.9727C119.539 18.2501 119.509 22.6601 119.543 24.0959C119.567 25.116 119.353 26.7961 119.943 27.7335C120.476 28.5783 121.533 29.4669 122.628 29.2795Z" fill="white"/>
<path fill-rule="evenodd" clip-rule="evenodd" d="M20.4864 19.1111C20.0704 16.7218 21.982 11.5552 25.7095 11.2076C29.902 10.8166 31.8036 17.4931 31.3989 19.025C30.7171 19.2629 24.6679 19.1141 23.1435 19.1452C22.2384 19.1636 21.2968 19.0441 20.4864 19.1111ZM20.3515 29.1996C20.4467 27.2698 20.4111 24.2836 20.3507 22.3889C20.6544 22.2502 30.919 22.231 31.354 22.3506C31.5485 23.0248 31.4105 24.9571 31.4175 25.7573C31.4252 26.6246 31.3319 28.5479 31.492 29.2803C34.55 28.937 34.7835 26.6693 34.6157 24.1266L34.6354 20.5206C34.6556 16.6369 34.2553 13.5019 31.4055 10.4614C29.9831 8.94385 28.2681 8.05077 25.7375 8.0204C22.966 7.98712 21.0124 9.76116 19.8108 11.1809C18.6322 12.5734 17.7086 14.7728 17.399 16.8939C17.0816 19.0687 17.2346 21.7039 17.2113 23.9826C17.1999 25.102 17.0328 26.6023 17.6141 27.6733C18.125 28.6145 19.2349 29.3125 20.3515 29.1996Z" fill="white"/>
<path fill-rule="evenodd" clip-rule="evenodd" d="M108.632 11.5607C110.815 10.4853 113.076 11.8559 113.827 13.5104C114.878 15.8242 113.568 17.9483 111.828 18.6954C107.109 20.7214 103.871 13.9069 108.632 11.5607ZM106.325 22.0632C106.783 22.1759 107.123 22.6627 107.62 23.1651C108.645 24.2033 112.908 28.5768 113.572 28.9624C114.795 29.672 116.046 29.3241 117.186 28.5563C116.923 27.6516 111.639 23.2175 111.185 22.134C116.911 21.001 118.593 15.4252 116.321 11.5488C113.278 6.35753 105.32 7.11146 103.438 13.2252C102.971 14.7404 103.199 22.2275 103.187 24.0782L103.183 28.6378C103.179 29.0378 103.071 29.2443 103.415 29.3033C103.838 29.3758 104.878 28.9038 105.152 28.667C106.903 27.1512 106.057 25.0135 106.325 22.0632Z" fill="white"/>
<path fill-rule="evenodd" clip-rule="evenodd" d="M101.671 29.2954C101.222 25.3157 97.7382 26.4483 95.2954 26.2406C94.7458 26.1938 92.7514 26.3952 92.4898 26.1801L92.4053 26.0459C92.3986 26.0285 92.3788 25.9952 92.3718 25.9731C92.2683 25.6502 92.3821 23.7122 92.3569 23.0684C92.3174 22.0573 92.3469 20.8636 92.3662 19.8596C93.5852 19.5632 97.8318 20.0611 98.5993 19.6715C98.4922 18.1039 97.5174 17.1569 96.4725 16.8169C95.3455 16.4501 93.0813 16.8041 92.4243 16.6114C92.3342 16.1817 92.2761 12.169 92.4531 11.7677L98.1184 11.7389C99.2365 11.7841 100.006 11.5528 100.723 10.9067C101.24 10.4398 101.799 9.52877 101.622 8.6152L97.6391 8.57072C97.1096 8.57287 96.6361 8.63994 96.1216 8.62817C91.7301 8.52742 89.0635 7.88681 89.2366 13.3807C89.3054 15.5623 89.0749 25.9633 89.3497 27.0999C90.0404 29.9574 93.6609 29.3986 96.0933 29.3589C97.059 29.3431 97.9081 29.4132 98.8674 29.3631C99.7145 29.3188 100.889 29.4931 101.671 29.2954Z" fill="white"/>
<path fill-rule="evenodd" clip-rule="evenodd" d="M88.212 8.6731L82.6097 8.63307C80.4545 8.63174 78.6764 9.00029 76.8138 9.97491C68.1347 14.5163 69.9055 26.8023 79.5508 29.0492C81.3761 29.4743 83.1127 29.29 85.0512 29.365C85.4768 29.3815 85.9545 29.3648 86.4089 29.3596C87.9535 29.3417 88.6106 29.8019 88.0102 28.2195C87.0207 25.612 84.0819 26.3456 82.2715 26.2375C78.6459 26.021 75.73 24.5297 74.5851 20.8454C73.4578 17.2179 75.6424 13.8674 78.9179 12.456C82.7686 10.7967 85.1037 12.8217 87.2612 10.9134C87.8144 10.4241 88.3097 9.60373 88.212 8.6731Z" fill="white"/>
<path fill-rule="evenodd" clip-rule="evenodd" d="M40.0051 11.6836C40.2633 12.7317 39.8458 27.9447 40.1481 29.2885C43.8525 28.7677 43.1052 25.8906 43.1798 23.943C43.2468 22.1953 43.063 12.0534 43.2423 11.8119C43.4099 11.5861 44.0083 11.6831 44.1881 11.6885C44.9277 11.7104 46.8218 11.7081 47.4007 11.4821C48.7093 10.971 49.432 9.87083 49.3927 8.59581C49.0328 8.47477 36.4554 8.47125 34.5804 8.49796C33.7712 8.50945 33.7035 8.55345 33.9616 9.43126C34.7968 12.2721 38.0106 11.5843 40.0051 11.6836Z" fill="white"/>
</g>
<defs>
<clipPath id="clip0_768_156">
<rect width="564" height="118" fill="white"/>
</clipPath>
</defs>
</svg>
