<svg width="333" height="103" viewBox="0 0 333 103" fill="none" xmlns="http://www.w3.org/2000/svg">
<path fill-rule="evenodd" clip-rule="evenodd" d="M0.740234 53.7871H194.842V58.8303H0.740234V53.7871Z" fill="#F20029"/>
<path fill-rule="evenodd" clip-rule="evenodd" d="M0.740234 64.7715H194.842V69.8146H0.740234V64.7715Z" fill="#FD7801"/>
<path fill-rule="evenodd" clip-rule="evenodd" d="M0.740234 75.7559H194.842V80.7904H0.740234V75.7559Z" fill="#F2F540"/>
<path fill-rule="evenodd" clip-rule="evenodd" d="M0.740234 86.7324H194.842V91.7669H0.740234V86.7324Z" fill="#48CC31"/>
<path fill-rule="evenodd" clip-rule="evenodd" d="M0.740234 97.707H194.842V102.75H0.740234V97.707Z" fill="#14A3FD"/>
<path d="M252.788 67.7693C252.788 67.0526 252.719 66.0508 252.071 65.55C251.423 65.0491 250.422 64.98 249.705 64.9023C245.974 64.5396 242.106 64.5396 238.306 64.5396C234.791 64.5396 230.992 64.5396 227.555 65.1873C226.769 65.3341 226.052 65.5413 225.405 66.0508C223.755 67.3375 223.902 70.9213 223.902 72.7866V74.6518V75.4377C224.765 74.5741 225.62 73.8574 226.7 73.2874C230.715 70.9904 238.746 71.2062 243.254 71.2062C248.125 71.2062 254.075 71.2753 258.738 72.7866C260.456 73.3565 261.89 74.151 263.185 75.4377C266.052 78.2356 266.121 83.6069 266.121 87.3374C266.121 94.1509 264.973 100.239 257.373 101.741C254.437 102.311 251.423 102.527 248.487 102.605C244.187 102.674 239.955 102.752 235.655 102.752C229.636 102.752 218.392 103.115 213.798 98.9522C210.5 96.0161 210.284 90.2821 210.145 86.1889C210.076 83.0369 209.999 79.8072 209.999 76.6553C209.999 70.9213 209.351 61.6035 214.083 57.5276C218.6 53.5811 234.006 53.797 239.662 53.797C242.814 53.797 245.966 53.797 249.126 53.9438C253.496 54.0906 260.879 54.2979 264.178 57.6744C266.475 60.0405 266.398 64.6951 266.398 67.7779L252.788 67.7693ZM248.634 82.3979C244.765 81.828 240.603 81.9661 236.665 81.9661C233.798 81.9661 230.862 81.8193 227.995 82.2511C225.197 82.6829 224.126 84.4013 224.126 87.1215C224.126 88.3391 224.411 89.9194 225.275 90.8521C226.708 92.3547 234.809 92.0006 236.674 92.0006C239.187 92.0006 241.622 91.9315 244.126 91.8538C245.923 91.7847 249.575 92.0006 251.009 90.6362C251.873 89.7726 252.011 88.201 252.011 87.0524C252.002 84.3927 251.423 82.821 248.634 82.3979Z" fill="white"/>
<path d="M323.013 93.2781V102.164H309.179V93.2781H271.053V75.0139L299.429 54.375H323.004V82.5355H332.262V93.2867L323.013 93.2781ZM309.187 65.4803H306.251L284.041 80.6788V82.5441H309.196L309.187 65.4803Z" fill="white"/>
<path d="M292.907 14.6519H286.75V32.3115H293.175V23.0802C293.175 20.6709 294.652 19.4619 297.329 19.4619C300.006 19.4619 300.679 20.265 300.809 22.5361H306.836C306.836 16.5172 306.033 14.2374 299.608 14.2374C295.722 14.2374 294.384 15.0405 292.916 17.9852L292.907 14.6519ZM322.484 28.8314C316.327 28.8314 315.394 28.296 315.394 25.2131H332.259C331.992 16.6467 331.992 14.6433 320.61 14.6433C310.973 14.6433 308.823 16.379 308.823 24.0128C308.823 31.1112 311.638 32.8469 319.401 32.9851C328.106 32.9851 332.251 32.5793 332.251 26.828H325.955C325.696 28.1665 325.161 28.8314 322.484 28.8314ZM315.265 21.474C315.532 19.6 316.068 18.9265 320.351 18.9265C325.04 18.9265 325.705 19.1942 325.973 21.474H315.265ZM75.9645 22.1389H82.3894C81.8539 16.1113 80.1096 14.6433 71.1458 14.6433C60.9731 14.6433 58.6934 16.2495 58.6934 23.7451C58.6934 31.2407 60.835 32.9851 70.3427 32.9851C80.3859 32.9851 82.3894 31.6466 82.3894 25.3513H75.9645C75.9645 27.0957 75.2996 27.8988 70.3427 27.8988C66.0595 27.8988 65.1182 26.828 65.1182 23.3479C65.1182 19.9973 66.0509 19.9973 71.1458 19.9973C74.8937 19.9973 75.5586 20.4032 75.9645 22.1389ZM225.187 23.2097C225.187 15.9818 223.045 14.5137 212.735 14.5137C201.621 14.5137 200.291 16.3876 200.291 23.8833C200.291 31.3789 202.165 32.9851 212.735 32.9851C223.978 32.9851 225.187 31.1112 225.187 23.2097ZM206.854 23.6156C206.854 19.9973 207.657 19.6 212.346 19.6C217.57 19.6 218.503 19.7296 218.503 23.6156C218.503 27.2339 217.83 27.8988 212.881 27.8988C207.519 27.8988 206.854 27.3634 206.854 23.6156ZM282.864 23.2097C282.864 15.9818 280.852 14.5137 270.55 14.5137C259.574 14.5137 258.235 16.2495 258.235 23.7537C258.235 31.3875 260.109 32.9938 270.55 32.9938C281.802 32.9851 282.864 31.1112 282.864 23.2097ZM264.669 23.6156C264.669 19.9973 265.472 19.6 270.152 19.6C275.377 19.6 276.31 19.7296 276.31 23.6156C276.31 27.2339 275.645 27.8988 270.688 27.8988C265.342 27.8988 264.669 27.3634 264.669 23.6156ZM110.895 23.2097C110.895 15.9818 108.883 14.5137 98.581 14.5137C87.4671 14.5137 86.1286 16.2495 86.1286 23.7537C86.1286 31.3875 88.0025 32.9938 98.581 32.9938C109.825 32.9851 110.895 31.1112 110.895 23.2097ZM92.8211 23.6156C92.8211 19.9973 93.6242 19.6 98.1752 19.6C103.4 19.6 104.332 19.7296 104.332 23.6156C104.332 27.2339 103.659 27.8988 98.7106 27.8988C93.4861 27.8988 92.8211 27.3634 92.8211 23.6156ZM247.545 7.15625V17.4671C246.076 15.455 244.738 14.3928 239.384 14.3928C230.817 14.3928 229.211 16.6726 229.211 23.6328C229.211 30.7312 231.491 32.7347 239.79 32.7347C245.014 32.7347 246.621 31.3962 247.821 29.125V32.3375H254.246V7.15625H247.545ZM242.855 19.4619C246.465 19.4619 247.674 19.9973 247.674 22.8038C247.674 27.0871 247.406 27.4929 242.32 27.4929C237.234 27.4929 235.895 27.3548 235.895 23.7451C235.895 19.6 237.501 19.4619 242.855 19.4619ZM121.059 14.6519H115.04V32.3115H121.465V23.2097C121.465 20.5327 122.804 19.6 126.422 19.6C129.773 19.6 130.705 20.8004 130.705 24.151V32.3115H137.268V22.942C137.268 20.3945 139.272 19.6 142.355 19.6C145.299 19.6 146.638 20.4032 146.638 22.942V32.3115H153.063V21.8712C153.063 16.6553 149.85 14.2374 143.961 14.2374C138.875 14.2374 137.001 16.1113 136.327 18.1234C134.989 15.8436 133.115 14.2374 128.028 14.2374C123.21 14.2374 121.871 15.8436 121.068 18.7883L121.059 14.6519ZM164.289 14.6519H158.261V32.3115H164.686V23.2097C164.686 20.5327 166.293 19.6 169.505 19.6C172.856 19.6 173.788 20.6709 173.788 24.151V32.3115H180.351V22.942C180.351 20.3945 182.225 19.6 185.308 19.6C188.253 19.6 189.721 20.5327 189.721 22.942V32.3115H196.146V21.8712C196.146 16.6553 192.933 14.2374 187.044 14.2374C181.957 14.2374 180.213 15.9731 179.41 18.1234C178.071 15.8436 176.198 14.2374 171.111 14.2374C166.431 14.2374 165.222 15.8436 164.289 18.7883V14.6519Z" fill="white"/>
<path d="M29.6262 34.573C27.8645 35.5574 25.8438 36.1274 23.6849 36.1274C16.9751 36.1274 11.5088 30.6697 11.5088 23.9513C11.5088 17.2328 16.9665 11.7752 23.6849 11.7752C25.8438 11.7752 27.8645 12.3365 29.6262 13.3296V1.77524C27.735 1.26575 25.7402 0.998047 23.6849 0.998047C11.0166 0.998047 0.740234 11.2743 0.740234 23.9513C0.740234 36.6282 11.0166 46.9045 23.6936 46.9045C25.7488 46.9045 27.735 46.6282 29.6348 46.1273L29.6262 34.573Z" fill="white"/>
<path d="M39.2556 13.9316H29.627V23.1198H39.2556V13.9316Z" fill="white"/>
<path d="M49.6443 13.9316L40.456 23.1112H36.2246V13.9316H49.6443Z" fill="white"/>
<path d="M39.2556 24.7871H29.627V33.9753H39.2556V24.7871Z" fill="white"/>
<path d="M49.6443 33.9667L40.456 24.7871H36.2246V33.9667H49.6443Z" fill="white"/>
</svg>
