<svg width="746" height="195" viewBox="0 0 746 195" fill="none" xmlns="http://www.w3.org/2000/svg">
<path d="M177.674 57.9481V38.9922H168.432V57.9481H177.674Z" fill="white"/>
<path d="M177.663 131.495V112.539H168.421V131.495H177.663Z" fill="white"/>
<path d="M299.211 57.9715V39.0156L263.688 39.0156V57.9715L299.211 57.9715Z" fill="white"/>
<path d="M452.467 57.9676V39.0117H441.338V57.9676H452.467Z" fill="white"/>
<path d="M299.2 131.522V112.566H263.677V131.522H299.2Z" fill="white"/>
<path d="M124.803 39.0156H105.847V131.532H124.803V39.0156Z" fill="white"/>
<path d="M156.993 39.0156H138.037V131.532H156.993V39.0156Z" fill="white"/>
<path d="M177.678 131.5C177.678 125.182 177.678 118.863 177.678 112.545C214.081 112.545 214.081 57.9403 177.678 57.9403C177.678 51.6216 177.678 45.303 177.678 38.9844C239.324 39.0158 239.324 131.5 177.678 131.5Z" fill="white"/>
<path d="M252.244 39.0156H233.288V131.532H252.244V39.0156Z" fill="white"/>
<path d="M299.206 94.7489V75.793H263.683V94.7489H299.206Z" fill="white"/>
<path d="M452.461 94.741V75.7852H441.333V94.741H452.461Z" fill="white"/>
<path d="M429.89 39.0156H410.934V131.532H429.89V39.0156Z" fill="white"/>
<path d="M452.461 94.7204C452.461 88.3703 452.461 82.1146 452.461 75.7645C464.218 75.7645 464.218 57.9403 452.461 57.9403C452.461 51.5902 452.461 45.3344 452.461 38.9844C489.493 39.0158 489.493 94.7204 452.461 94.7204Z" fill="white"/>
<path d="M325.113 79.2862C327.786 65.8945 339.574 55.8036 353.752 55.8036C367.929 55.8036 379.718 65.8945 382.39 79.2862H401.566C398.737 55.3949 378.398 36.8477 353.752 36.8477C329.106 36.8477 308.767 55.3949 305.938 79.2862H325.113Z" fill="white"/>
<path d="M382.39 90.7578C379.718 104.15 367.929 114.241 353.752 114.241C339.574 114.241 327.786 104.15 325.113 90.7578H305.938C308.767 114.649 329.106 133.196 353.752 133.196C378.398 133.196 398.737 114.649 401.566 90.7578H382.39Z" fill="white"/>
<path d="M77.3663 39.0156L55.8955 81.1399L66.5523 102.045L98.6171 39.0156H77.3663Z" fill="white"/>
<path d="M49.4822 93.7771L21.6298 39.0156H0.347656L49.4822 135.556L60.1075 114.651L49.4822 93.7771Z" fill="white"/>
<path d="M596.5 113.648C583.108 110.976 573.017 99.1871 573.017 85.0095C573.017 70.8318 583.108 59.0433 596.5 56.3713V37.1953C572.609 40.0246 554.062 60.3636 554.062 85.0095C554.062 109.655 572.609 129.994 596.5 132.824V113.648Z" fill="white"/>
<path d="M625.83 67.8454L639.348 54.3279C631.646 45.0543 620.549 38.7042 607.975 37.1953V56.3713C615.268 57.8488 621.586 62.0297 625.83 67.8454Z" fill="white"/>
<path d="M625.83 102.203C621.587 108.019 615.268 112.2 607.943 113.646V132.822C620.549 131.344 631.646 124.963 639.316 115.689L625.83 102.203Z" fill="white"/>
<path d="M514.327 96.7656L504.676 115.722H542.65V96.7656H514.327Z" fill="white"/>
<path d="M483.802 131.502L505.241 89.3776L494.616 68.4727L462.52 131.502H483.802Z" fill="white"/>
<path d="M511.655 76.7394L539.538 131.501H560.789L511.655 34.9609L501.029 55.8344L511.655 76.7394Z" fill="white"/>
<path d="M85.5361 0C83.1101 0 78.2275 0.0305161 78.2275 0V21.2697H84.1781L84.2086 15.9446H86.8635C92.5395 15.9446 95.4995 13.2135 95.4995 7.9647C95.4995 2.21242 91.7766 0 85.5361 0ZM85.5361 11.9623H84.2086V3.98235C84.5596 3.96709 85.2309 3.98235 85.5361 3.98235C88.5419 3.98235 89.6252 5.52341 89.6252 8.10202C89.6252 10.7722 88.6945 11.9623 85.5361 11.9623Z" fill="white"/>
<path d="M32.347 21.2697V12.6337H26.3659V21.2697H20.3848V0H26.3659V8.63605H32.347V0H38.3281V21.2697H32.347Z" fill="white"/>
<path d="M42.9814 21.2697V0H48.3065H48.9626V21.2697H42.9814Z" fill="white"/>
<path d="M64.8766 21.2697H53.6162V0H59.5973V17.2874H65.5937L64.8766 21.2697Z" fill="white"/>
<path d="M73.5583 0H67.5771V21.2697H73.5583V0Z" fill="white"/>
<path d="M103.479 5.32506V5.99641C103.479 9.26163 113.442 7.76634 113.442 14.6325C113.442 19.7897 109.887 21.285 104.806 21.285C102.807 21.285 99.5728 20.9188 97.4977 20.6136V15.9599C99.3286 16.9059 102.807 17.2874 104.806 17.2874C107.064 17.2874 107.461 16.5855 107.461 15.2886C107.461 11.6266 97.4824 13.1982 97.4824 5.98115C97.4824 1.78519 101.587 0 106.5 0C109.979 0 110.528 0.320419 112.115 0.671354V4.6537C110.696 4.05864 108.712 3.98235 106.79 3.98235C105.05 3.98235 103.479 4.19596 103.479 5.32506Z" fill="white"/>
<path d="M7.75093 0C5.34018 0 0.442383 0.0305161 0.442383 0V21.2697H6.39297L6.42349 15.9446H9.07837C14.7543 15.9446 17.7144 13.2135 17.7144 7.9647C17.7296 2.21242 14.0067 0 7.75093 0ZM7.75093 11.9623H6.42349V3.98235C6.77442 3.96709 7.44577 3.98235 7.75093 3.98235C10.7567 3.98235 11.8401 5.52341 11.8401 8.10202C11.8401 10.7722 10.9246 11.9623 7.75093 11.9623Z" fill="white"/>
<path d="M707.467 43.3494V76.7079H740.825V93.9004H707.467V127.259H690.274V93.9004H656.916V76.7079H690.274V43.3494H707.467ZM711.772 39.0156H707.467H690.274H685.941V43.3209V72.3741H656.887H652.582V76.6794V93.8719V98.1771H656.887H685.941V127.23V131.536H690.246H707.438H711.744V127.23V98.2056H740.797H745.102V93.9004V76.7079V72.4027H740.797H711.744V43.3494V39.0156H711.772Z" fill="#FF3334"/>
<path d="M497.286 177.727V169.711H480.575V177.727H497.286Z" fill="#FF3334"/>
<path d="M564.421 171.291C565.551 165.628 570.536 161.36 576.532 161.36C582.528 161.36 587.513 165.628 588.643 171.291H596.753C595.556 161.187 586.955 153.344 576.532 153.344C566.109 153.344 557.508 161.187 556.312 171.291H564.421Z" fill="#FF3334"/>
<path d="M588.629 176.145C587.499 181.808 582.514 186.075 576.518 186.075C570.523 186.075 565.537 181.808 564.407 176.145H556.298C557.494 186.248 566.096 194.092 576.518 194.092C586.941 194.092 595.543 186.248 596.739 176.145H588.629Z" fill="#FF3334"/>
<path d="M607.016 171.291C608.146 165.628 613.131 161.36 619.127 161.36C625.123 161.36 630.108 165.628 631.238 171.291H639.347C638.151 161.187 629.55 153.344 619.127 153.344C608.704 153.344 600.103 161.187 598.906 171.291H607.016Z" fill="#FF3334"/>
<path d="M631.238 176.145C630.108 181.808 625.123 186.075 619.127 186.075C613.131 186.075 608.146 181.808 607.016 176.145H598.906C600.103 186.248 608.704 194.092 619.127 194.092C629.55 194.092 638.151 186.248 639.347 176.145H631.238Z" fill="#FF3334"/>
<path d="M492.937 173.709C492.937 175.118 492.698 176.461 492.272 177.724H500.555C500.821 176.421 500.954 175.078 500.954 173.709C500.954 172.339 500.821 170.997 500.555 169.707H492.272C492.698 170.97 492.937 172.313 492.937 173.709Z" fill="#FF3334"/>
<path d="M480.587 186.075C473.767 186.075 468.237 180.545 468.237 173.725C468.237 166.905 473.767 161.374 480.587 161.374C483.911 161.374 486.915 162.69 489.135 164.818L494.799 159.154C491.129 155.578 486.118 153.371 480.574 153.371C469.327 153.371 460.207 162.491 460.207 173.738C460.207 184.985 469.327 194.105 480.574 194.105C488.643 194.105 495.623 189.399 498.92 182.592H489.189C486.968 184.746 483.924 186.075 480.587 186.075Z" fill="#FF3334"/>
<path d="M506.578 193.374H515.073L524.379 167.117H515.871L506.578 193.374Z" fill="#FF3334"/>
<path d="M501.831 162.278V154.262H528.925L526.106 162.278H501.831Z" fill="#FF3334"/>
<path d="M553.851 176.145H541.089V184.161H553.851V176.145Z" fill="#FF3334"/>
<path d="M520.496 184.161H536.25V176.145H528.167L520.496 184.161Z" fill="#FF3334"/>
<path d="M541.089 162.637V193.374H549.105V154.262L541.089 162.637Z" fill="#FF3334"/>
</svg>
