<?xml version="1.0" encoding="UTF-8"?>
<svg width="482px" height="127px" viewBox="0 0 482 127" version="1.1" xmlns="http://www.w3.org/2000/svg" xmlns:xlink="http://www.w3.org/1999/xlink">
    <title>mainlogo</title>
    <g id="Page-1" stroke="none" stroke-width="1" fill="none" fill-rule="evenodd">
        <g id="mainlogo" fill-rule="nonzero">
            <g id="Group-33" transform="translate(0.000000, 43.000000)" fill="#FFFFFF">
                <g id="Group-32">
                    <polygon id="_43443024" points="415.321946 0.778905287 435.746596 0.778905287 445.835247 23.9822059 460.964397 0.778905287 481.887148 0.778905287 452.386197 46.6755066 447.596447 82.4843076 428.685646 82.4843076 434.232746 41.6265064"></polygon>
                    <polygon id="_43441624" points="265.027492 82.4843076 267.549442 64.3198071 238.807541 64.3198071 240.572141 50.2055567 265.532392 50.2055567 268.057742 32.0495562 243.346541 32.0495562 245.112841 18.9340558 273.853042 18.9340558 276.629142 0.778905287 228.971341 0.778905287 217.62384 82.4843076"></polygon>
                    <path d="M95.3232869,42.1297064 L101.626887,25.236806 L103.645637,42.1297064 L95.3232869,42.1297064 L95.3232869,42.1297064 Z M88.5156367,58.2686569 L105.661837,58.2686569 L108.690387,82.4766576 L139.705188,82.4766576 L154.078689,38.0956063 L161.141339,82.4766576 L177.531889,82.4766576 L195.68704,35.5745063 L198.71389,82.4766576 L216.86904,82.4766576 L211.82514,0.775505287 L190.13824,0.775505287 L173.244489,43.8943065 L166.686739,0.775505287 L147.271038,0.775505287 L125.081788,67.8507072 L116.759437,0.775505287 L92.5514368,0.775505287 L65.569036,68.6055072 L69.0999361,42.1288564 L36.3188352,42.1288564 L34.0476351,58.2678069 L48.4228355,58.2678069 L47.4130355,63.8149071 C44.8910854,65.3262071 39.0923853,65.5786571 36.8228852,65.5786571 C34.5533852,65.5786571 17.6596347,64.0673571 18.4152847,45.9105066 C19.1709347,27.755356 43.3789354,10.8607556 72.1250862,20.1903558 L74.9011863,2.79085534 C55.7353857,-3.76349484 5.40008433,-0.0948947377 0.258434191,44.9032565 C-2.76671589,71.3790573 21.4412848,83.9879576 37.5785352,83.7380576 C46.9089855,84.2429576 57.5008358,80.7112075 61.2824859,78.6933075 L60.0227859,82.4766576 L79.1877364,82.4766576 L88.5156367,58.2686569 L88.5156367,58.2686569 Z" id="_43775888"></path>
                    <path d="M394.893895,0.0232552656 C381.780095,-0.481644749 362.867594,7.08335546 356.563994,37.5966563 C350.260394,68.1065572 367.154144,80.4630075 382.788195,82.4800576 C398.424795,84.4971076 420.362446,74.6634574 424.396546,45.4124065 C428.432346,16.1605057 414.055446,0.780605287 394.893895,0.0232552656 Z M392.875995,17.4227558 C398.170645,17.4227558 409.517296,20.9536559 406.742896,42.1331064 C403.968496,63.315107 390.857245,65.8370571 386.065795,65.3313071 C381.272645,64.8264071 371.439845,61.551357 374.214245,42.1331064 C376.986945,22.7182559 387.324645,17.1703057 392.875995,17.4227558 L392.875995,17.4227558 Z" id="_44102912"></path>
                    <path d="M315.207243,32.0495562 L325.799093,32.0495562 C333.616544,32.0495562 335.129544,27.005656 335.379444,24.990306 C335.631894,22.9715559 333.364094,18.9366058 329.329993,18.9366058 L316.973543,18.9366058 L315.207243,32.0495562 Z M310.669093,64.3249071 L325.044293,64.3249071 C332.858344,64.3249071 334.623794,58.2746069 334.873694,56.2558568 C335.127844,54.2388068 332.858344,50.2064067 328.824243,50.2064067 L312.687843,50.2064067 L310.669093,64.3249071 L310.669093,64.3249071 Z M289.488792,82.4817576 L300.836293,0.781455287 L335.633594,0.781455287 C343.957644,0.781455287 356.059944,10.3643556 354.547794,23.2240059 C353.035644,36.0845063 348.999844,36.8410063 346.225444,38.8580564 C350.513694,42.6380065 354.800244,48.6908566 353.035644,60.0383569 C351.269344,71.3884073 341.938894,82.4809076 325.548343,82.4809076 L289.488792,82.4817576 L289.488792,82.4817576 Z" id="_44104296"></path>
                    <path d="M457.825347,70.1227572 C454.714347,70.1227572 452.202597,72.6311073 452.202597,75.7268074 C452.202597,78.8556575 454.712647,81.3657075 457.825347,81.3657075 C460.920197,81.3657075 463.428547,78.8556575 463.428547,75.7268074 C463.425997,72.6302573 460.915947,70.1227572 457.825347,70.1227572 L457.825347,69.3518072 C461.351147,69.3518072 464.198647,72.2129073 464.198647,75.7268074 C464.198647,79.2738575 461.351147,82.1341076 457.825347,82.1341076 C454.277447,82.1332576 451.417197,79.2738575 451.417197,75.7268074 C451.417197,72.2120573 454.277447,69.3526572 457.825347,69.3526572 L457.825347,70.1227572 L457.825347,70.1227572 Z" id="_44106160"></path>
                    <path d="M456.312347,72.7926073 L458.354047,72.7926073 C459.242297,72.7926073 460.208747,72.9252073 460.208747,74.0310573 C460.208747,75.4854074 458.654947,75.3196574 457.650247,75.3196574 L456.312347,75.3179574 L456.312347,76.0056074 L457.921397,76.0056074 L459.961397,79.3019075 L460.997547,79.3019075 L458.839397,76.0056074 C460.110997,75.9733074 461.096997,75.4548074 461.096997,74.0489073 C461.096997,73.4454073 460.830947,72.8104573 460.295447,72.5078573 C459.760797,72.1908073 459.156447,72.1576573 458.553797,72.1576573 L455.446197,72.1576573 L455.446197,79.3002075 L456.313197,79.3002075 L456.313197,72.7926073 L456.312347,72.7926073 Z" id="_42975192"></path>
                </g>
            </g>
            <path d="M183.062745,1.93813001 C184.339125,1.93813001 184.97281,2.36618493 184.97281,3.21337604 C184.97281,3.79600465 184.606411,4.23594682 183.996755,4.38755197 L184.996834,6.36432541 L183.786528,6.36432541 L182.930602,4.55104438 L182.39903,4.55104438 L182.39903,6.36432541 L181.308853,6.36432541 L181.308853,1.93813001 L183.062745,1.93813001 Z M182.963637,0.208081644 C180.73523,0.208081644 178.927278,1.99758378 178.927278,4.20324921 C178.927278,6.40891464 180.73523,8.19841678 182.963637,8.19841678 C185.192048,8.19841678 187,6.40891464 187,4.20324921 C187,1.99758378 185.192048,0.208081644 182.963637,0.208081644 Z M186.228165,4.20622212 C186.228165,5.98977845 184.765586,7.43743561 182.963637,7.43743561 C181.161691,7.43743561 179.699113,5.98977845 179.699113,4.20622212 C179.699113,2.42266579 181.161691,0.975008635 182.963637,0.975008635 C184.765586,0.975008635 186.228165,2.41969289 186.228165,4.20622212 Z M182.39903,3.90301619 L182.930602,3.90301619 C183.552272,3.90301619 183.852597,3.7157449 183.852597,3.27579835 C183.852597,2.81504583 183.531252,2.6158829 182.876542,2.6158829 L182.39903,2.6158829 L182.39903,3.90301619 Z M91.1724847,14.7202932 C91.1604705,13.2072408 91.1935096,12.1965616 91.6950465,11.334506 C92.3107142,10.2703189 93.4429366,9.76497711 94.4700432,9.7590313 L94.4669513,9.7590313 C95.4940624,9.76497711 96.6262848,10.2703189 97.2419525,11.334506 C97.7434938,12.1995302 97.7645142,13.2102137 97.7525044,14.7232661 L91.1724847,14.7202932 Z M97.7255607,19.9253072 C97.7255607,19.9253072 97.7315679,20.0025984 97.7315679,20.9716612 C97.7315679,24.1285607 95.6323012,24.8300925 94.4670397,24.8300925 C93.3017826,24.8300925 91.1664776,24.1285607 91.1664776,20.9716612 C91.1664776,20.0263773 91.1724847,17.4075215 91.1724847,17.4075215 C91.1724847,17.4075215 106.02953,17.4134673 106.02953,17.4044611 C106.02953,12.0508149 100.80689,7.61570074 94.3919595,7.61570074 C87.9770296,7.61570074 82.7784172,11.9556906 82.7784172,17.3093368 C82.7784172,22.6629831 87.9770296,27 94.3919595,27 C99.713709,27 104.209564,23.9947056 105.582049,19.9192783 L97.7255607,19.9253072 Z M122.541369,7.90412957 C125.490554,7.82089691 131.473016,9.73227951 131.431191,16.5662762 C131.424964,17.7790955 131.427879,25.9596792 131.427879,25.9596792 L123.592416,25.9596792 C123.592416,25.9596792 123.592416,15.701252 123.592416,14.622196 C123.592416,13.1180623 122.138844,11.4444948 119.988521,11.4444948 C117.841202,11.4444948 116.243476,13.1180623 116.243476,14.622196 C116.243476,15.3594026 116.252487,25.9596792 116.252487,25.9596792 L108.423031,25.9596792 L108.429038,8.69781273 L116.255495,8.69186691 C116.255495,8.69186691 116.246484,10.0800659 116.255495,10.5081208 C117.763122,9.08424694 119.937474,7.97844351 122.541285,7.9041252 L122.541369,7.90412957 Z M58.4461289,7.90412957 C61.3953143,7.82089691 67.3777804,9.73227951 67.3359555,16.5662762 C67.3297279,17.7790955 67.3326431,25.9596792 67.3326431,25.9596792 L59.4971756,25.9596792 C59.4971756,25.9596792 59.4971756,15.701252 59.4971756,14.622196 C59.4971756,13.1180623 58.0436078,11.4444948 55.8932851,11.4444948 C53.7459659,11.4444948 52.1482405,13.1180623 52.1482405,14.622196 C52.1482405,15.3594026 52.1572512,25.9596792 52.1572512,25.9596792 L44.3277952,25.9596792 L44.3247033,8.69781273 L52.1601664,8.69186691 C52.1601664,8.69186691 52.1511557,10.0800659 52.1601664,10.5081208 C53.6677983,9.08424694 55.8391415,7.97844351 58.4459566,7.9041252 L58.4461289,7.90412957 Z M148.429333,0.00594581439 L156.213744,0.00594581439 L156.213744,25.965625 L148.417319,25.965625 C148.417319,25.965625 148.414227,25.1273526 148.414227,24.9668331 C145.395968,26.8425408 141.990291,26.8395679 139.338426,25.614857 C138.626654,25.2878721 133.944596,23.0643693 133.944596,17.0567534 C133.944596,12.4997632 138.287291,7.5236368 143.972432,8.0170913 C145.84345,8.18058371 147.17389,8.85536369 148.435252,9.55689547 C148.429245,5.56172353 148.429245,0.00594581439 148.429245,0.00594581439 L148.429333,0.00594581439 Z M148.486396,17.247002 C148.486396,17.247002 148.486396,15.0829485 148.486396,14.1614434 C148.486396,11.4920526 146.624384,10.8113311 145.39906,10.8113311 C144.143705,10.8113311 142.305717,11.4920526 142.305717,14.1614434 C142.305717,15.047278 142.308809,17.2380832 142.308809,17.2380832 C142.308809,17.2380832 142.305717,19.3902407 142.305717,20.3087728 C142.305717,22.9751908 144.143705,23.673754 145.396057,23.673754 C146.624384,23.673754 148.4894,22.9751908 148.4894,20.3087728 C148.4894,19.1999965 148.486308,17.247002 148.486308,17.247002 L148.486396,17.247002 Z M173.476389,17.1964669 C173.476389,17.1964669 173.473297,19.806404 173.473297,20.852758 C173.473297,23.6053815 171.830522,24.7409141 170.250818,24.7409141 C168.668106,24.7409141 167.019325,23.6053815 167.019325,20.852758 C167.019325,19.806404 167.022417,17.1310673 167.022417,17.1310673 C167.022417,17.1310673 167.028424,14.5776111 167.028424,13.5312571 C167.028424,10.7905208 168.680209,9.66390701 170.250907,9.66390701 C171.824604,9.66390701 173.473385,10.7905208 173.473385,13.5312571 C173.473385,14.5776111 173.470293,16.5127682 173.479392,17.2053856 L173.476389,17.1964669 Z M170.307966,7.5236368 C163.941088,7.5236368 158.781518,11.863631 158.781518,17.2172729 C158.781518,22.5709191 163.944092,26.910909 170.307966,26.910909 C176.674843,26.910909 181.834418,22.5709191 181.834418,17.2172729 C181.834418,11.863631 176.674843,7.5236368 170.307966,7.5236368 Z M32.0776486,5.30608411 L32.0776486,0 L39.9821847,0 L39.9821847,5.30608411 L32.0776486,5.30608411 Z M32.0956699,25.9657125 L32.0956699,8.70078563 L39.9821891,8.70384598 L39.9821891,25.9657125 L32.0956699,25.9657125 Z M71.6634125,25.965625 L71.6665044,8.73645615 L67.3778732,8.73645615 L67.3778732,6.1740812 L71.669508,6.17102086 L71.6635009,2.67524924 L79.5560271,2.67524924 L79.5560271,6.16804795 L83.8266415,6.16804795 L83.8266415,8.73636871 L79.5560271,8.73636871 L79.5620343,25.965625 L71.6634125,25.965625 Z M0,25.965625 L0.00300355869,0.00594581439 L8.17482942,0.00594581439 L19.4790406,18.1090532 L19.4730335,0.00594581439 L27.5817939,0.00594581439 L27.5817939,25.965625 L19.4850433,25.965625 L8.12076978,7.86251324 L8.12076978,25.965625 L0,25.965625 Z" id="path29" fill="#E60012"></path>
        </g>
    </g>
</svg>