<svg width="120" height="81" viewBox="0 0 120 81" fill="none" xmlns="http://www.w3.org/2000/svg">
<path fill-rule="evenodd" clip-rule="evenodd" d="M43.0498 2.26203C43.0498 1.28889 43.8387 0.5 44.8118 0.5H75.1876C76.1607 0.5 76.9496 1.28889 76.9496 2.26203V45.0659C76.9496 49.911 73.0219 53.8386 68.1769 53.8386H44.8118C43.8387 53.8386 43.0498 53.0497 43.0498 52.0766V2.26203ZM45.0498 2.5V51.8386H68.1769C71.9174 51.8386 74.9496 48.8064 74.9496 45.0659V2.5H45.0498Z" fill="white"/>
<path fill-rule="evenodd" clip-rule="evenodd" d="M75.0819 4.67847L44.6616 4.67847L44.6616 3.67847L75.0819 3.67847L75.0819 4.67847Z" fill="white"/>
<path fill-rule="evenodd" clip-rule="evenodd" d="M47.8403 3.79332L47.8403 1.5L48.8403 1.5L48.8403 3.79332L47.8403 3.79332Z" fill="white"/>
<path fill-rule="evenodd" clip-rule="evenodd" d="M71.7012 3.79332L71.7012 1.5L72.7012 1.5L72.7012 3.79332L71.7012 3.79332Z" fill="white"/>
<path fill-rule="evenodd" clip-rule="evenodd" d="M71.5195 7.22974H48.0219C47.985 7.22974 47.9551 7.25966 47.9551 7.29658V24.8922C47.9551 24.9291 47.985 24.9591 48.0219 24.9591H68.0142C69.987 24.9591 71.5864 23.3598 71.5864 21.3869V7.29657C71.5864 7.25966 71.5564 7.22974 71.5195 7.22974ZM48.0219 6.22974C47.4327 6.22974 46.9551 6.70738 46.9551 7.29658V24.8922C46.9551 25.4814 47.4327 25.9591 48.0219 25.9591H68.0142C70.5393 25.9591 72.5864 23.912 72.5864 21.3869V7.29657C72.5864 6.70738 72.1087 6.22974 71.5195 6.22974H48.0219Z" fill="white"/>
<path fill-rule="evenodd" clip-rule="evenodd" d="M51.1768 7.92188H68.6685V24.1995H51.1768V7.92188ZM52.1768 8.92188V23.1995H67.6685V8.92188H52.1768Z" fill="white"/>
<path d="M49.417 32.1239C49.417 31.9556 49.5535 31.8191 49.7218 31.8191H51.8439C52.0123 31.8191 52.1487 31.9556 52.1487 32.1239V39.0688C52.1487 39.2371 52.0123 39.3736 51.8439 39.3736H49.7218C49.5535 39.3736 49.417 39.2371 49.417 39.0688V32.1239Z" fill="white"/>
<path d="M47.3102 36.9624C47.1418 36.9624 47.0054 36.8259 47.0054 36.6576L47.0054 34.5355C47.0054 34.3671 47.1418 34.2306 47.3102 34.2306L54.255 34.2306C54.4234 34.2306 54.5599 34.3671 54.5599 34.5355L54.5599 36.6576C54.5599 36.8259 54.4234 36.9624 54.255 36.9624L47.3102 36.9624Z" fill="white"/>
<path d="M67.9152 36.1949C67.9152 37.2426 67.0659 38.092 66.0181 38.092C64.9704 38.092 64.1211 37.2426 64.1211 36.1949C64.1211 35.1472 64.9704 34.2979 66.0181 34.2979C67.0659 34.2979 67.9152 35.1472 67.9152 36.1949Z" fill="white"/>
<path d="M72.9406 33.9354C72.9406 34.9831 72.0912 35.8324 71.0435 35.8324C69.9958 35.8324 69.1465 34.9831 69.1465 33.9354C69.1465 32.8877 69.9958 32.0383 71.0435 32.0383C72.0912 32.0383 72.9406 32.8877 72.9406 33.9354Z" fill="white"/>
<path d="M53.8909 43.8641C53.7557 43.5946 53.8644 43.2666 54.1338 43.1313L56.5639 41.9111C56.8333 41.7758 57.1614 41.8845 57.2967 42.1539V42.1539C57.432 42.4234 57.3232 42.7514 57.0538 42.8867L54.6237 44.1069C54.3543 44.2422 54.0262 44.1335 53.8909 43.8641V43.8641Z" fill="white"/>
<path d="M59.1185 43.8641C58.9832 43.5946 59.0919 43.2666 59.3614 43.1313L61.7914 41.9111C62.0609 41.7758 62.3889 41.8845 62.5242 42.1539V42.1539C62.6595 42.4234 62.5508 42.7514 62.2813 42.8867L59.8513 44.1069C59.5818 44.2422 59.2538 44.1335 59.1185 43.8641V43.8641Z" fill="white"/>
<path d="M65.0258 45.7437C64.9429 45.5916 64.9991 45.4011 65.1512 45.3182V45.3182C65.3034 45.2353 65.4939 45.2914 65.5768 45.4436L67.7538 49.4393C67.8367 49.5915 67.7805 49.782 67.6284 49.8649V49.8649C67.4762 49.9478 67.2857 49.8916 67.2028 49.7395L65.0258 45.7437Z" fill="white"/>
<path d="M63.4846 46.5667C63.4017 46.4146 63.4578 46.2241 63.61 46.1412V46.1412C63.7621 46.0583 63.9526 46.1144 64.0355 46.2666L66.2125 50.2623C66.2954 50.4144 66.2393 50.605 66.0871 50.6879V50.6879C65.935 50.7708 65.7444 50.7146 65.6616 50.5625L63.4846 46.5667Z" fill="white"/>
<path d="M66.5671 44.9208C66.4842 44.7686 66.5403 44.5781 66.6925 44.4952V44.4952C66.8446 44.4123 67.0352 44.4684 67.1181 44.6206L69.295 48.6163C69.3779 48.7685 69.3218 48.959 69.1696 49.0419V49.0419C69.0175 49.1248 68.827 49.0686 68.7441 48.9165L66.5671 44.9208Z" fill="white"/>
<path d="M71.1911 42.452C71.1082 42.2999 71.1644 42.1093 71.3165 42.0264V42.0264C71.4686 41.9435 71.6592 41.9997 71.7421 42.1518L73.9191 46.1476C74.002 46.2997 73.9458 46.4902 73.7937 46.5731V46.5731C73.6415 46.656 73.451 46.5999 73.3681 46.4477L71.1911 42.452Z" fill="white"/>
<path d="M69.6496 43.2748C69.5667 43.1226 69.6229 42.9321 69.775 42.8492V42.8492C69.9271 42.7663 70.1177 42.8224 70.2006 42.9746L72.3776 46.9703C72.4605 47.1225 72.4043 47.313 72.2522 47.3959V47.3959C72.1 47.4788 71.9095 47.4226 71.8266 47.2705L69.6496 43.2748Z" fill="white"/>
<path d="M68.1083 44.0978C68.0255 43.9456 68.0816 43.7551 68.2337 43.6722V43.6722C68.3859 43.5893 68.5764 43.6454 68.6593 43.7976L70.8363 47.7933C70.9192 47.9455 70.8631 48.136 70.7109 48.2189V48.2189C70.5588 48.3018 70.3682 48.2456 70.2853 48.0935L68.1083 44.0978Z" fill="white"/>
<path d="M50.0768 13.6832C50.0768 13.9812 49.8352 14.2228 49.5372 14.2228C49.2391 14.2228 48.9976 13.9812 48.9976 13.6832C48.9976 13.3851 49.2391 13.1436 49.5372 13.1436C49.8352 13.1436 50.0768 13.3851 50.0768 13.6832Z" fill="white"/>
</svg>
