<svg width="472" height="157" viewBox="0 0 472 157" fill="none" xmlns="http://www.w3.org/2000/svg">
<path d="M392.333 115.448L374.45 61.5493H323.914C322.778 61.5493 321.914 62.2538 321.392 63.3682L312.144 83.5219C311.643 84.6581 311.87 85.5443 313.007 85.5443H321.073C324.915 85.5443 327.118 87.7711 327.118 91.5896L327.163 154.759C327.163 154.98 327.206 155.199 327.291 155.404C327.375 155.608 327.499 155.793 327.655 155.95C327.812 156.106 327.997 156.23 328.202 156.314C328.406 156.398 328.625 156.441 328.846 156.441H352.75C352.971 156.441 353.189 156.398 353.394 156.314C353.598 156.229 353.784 156.106 353.94 155.949C354.096 155.793 354.22 155.607 354.304 155.403C354.388 155.199 354.432 154.98 354.431 154.759V88.3175C354.431 87.6802 355.158 87.1814 355.772 87.1814L355.749 87.203C356.385 87.203 356.953 87.6802 357.158 88.3175L379.222 155.214C379.45 155.918 380.198 156.441 380.949 156.441H404.263C405.013 156.441 405.762 155.918 405.99 155.214L427.509 88.3175C427.713 87.6802 428.281 87.203 428.917 87.203L428.894 87.1814C429.508 87.1814 430.235 87.6802 430.235 88.3175V154.759C430.234 154.98 430.278 155.199 430.362 155.403C430.446 155.607 430.57 155.793 430.726 155.949C430.883 156.106 431.068 156.23 431.273 156.314C431.477 156.398 431.696 156.441 431.917 156.441H455.821C456.042 156.441 456.261 156.398 456.465 156.314C456.669 156.229 456.854 156.105 457.011 155.949C457.167 155.793 457.29 155.607 457.375 155.403C457.459 155.199 457.502 154.98 457.501 154.759V61.5488H410.215L392.333 115.448Z" fill="#C7282A"/>
<path d="M267.176 87.7711C267.38 87.1359 267.948 86.6587 268.585 86.6587L268.812 86.635L269.039 86.6587C269.676 86.6587 270.244 87.1359 270.448 87.7711L282.854 116.721C283.263 117.676 282.945 118.265 281.991 118.265H255.632C254.678 118.265 254.36 117.676 254.769 116.721L267.176 87.7711ZM211.596 156.441H237.727L244.27 141.17H293.353L299.896 156.441H326.027C326.248 156.441 326.467 156.398 326.672 156.314C326.876 156.23 327.062 156.106 327.218 155.95C327.375 155.793 327.498 155.608 327.583 155.403C327.667 155.199 327.71 154.98 327.71 154.759L287.08 61.5488H236.114C234.977 61.5488 234.113 62.2532 233.591 63.3677L224.343 83.5219C223.843 84.6581 224.07 85.5443 225.206 85.5443H231.637C235.477 85.5443 237.682 87.7711 237.682 91.5896L209.913 154.759C209.913 154.98 209.956 155.199 210.04 155.404C210.125 155.608 210.249 155.794 210.405 155.95C210.561 156.106 210.747 156.23 210.951 156.314C211.156 156.398 211.375 156.442 211.596 156.441" fill="#C7282A"/>
<path d="M147.789 131.355C147.568 131.355 147.349 131.312 147.144 131.228C146.94 131.144 146.754 131.02 146.598 130.864C146.441 130.707 146.318 130.522 146.233 130.317C146.149 130.113 146.106 129.894 146.106 129.673V87.2273C146.106 87.0062 146.149 86.7872 146.233 86.5828C146.318 86.3784 146.441 86.1927 146.598 86.0364C146.754 85.88 146.94 85.7561 147.144 85.6718C147.349 85.5874 147.568 85.5442 147.789 85.5448H182.6C186.418 85.5448 188.645 87.7716 188.645 91.5901V125.31C188.645 129.128 186.418 131.354 182.6 131.354L147.789 131.355ZM196.53 156.441C207.187 156.441 214.821 148.806 214.821 138.148V79.8424C214.821 69.1853 207.187 61.5488 196.53 61.5488H115.636C114.5 61.5488 113.637 62.2532 113.112 63.3677L103.865 83.5219C103.366 84.6581 103.593 85.5443 104.729 85.5443H112.796C116.612 85.5443 118.84 87.7711 118.84 91.5896V154.759C118.839 154.98 118.882 155.199 118.967 155.403C119.051 155.608 119.175 155.793 119.331 155.95C119.487 156.106 119.673 156.23 119.877 156.314C120.081 156.398 120.3 156.441 120.521 156.441L196.53 156.441ZM57.7599 87.7716C57.9654 87.1364 58.5335 86.6592 59.1692 86.6592L59.3964 86.6355L59.6242 86.6592C60.2599 86.6592 60.828 87.1364 61.0325 87.7716L73.4392 116.722C73.8482 117.676 73.5301 118.266 72.5757 118.266H46.2171C45.2627 118.266 44.9441 117.676 45.3536 116.722L57.7599 87.7716ZM2.18001 156.441H28.3114L34.8556 141.171H83.9372L90.4814 156.441H116.613C116.834 156.442 117.053 156.399 117.257 156.314C117.461 156.23 117.647 156.106 117.803 155.95C117.959 155.794 118.083 155.608 118.167 155.404C118.252 155.199 118.295 154.98 118.294 154.759L77.6662 61.5493H26.6981C25.5619 61.5493 24.699 62.2538 24.1758 63.3682L14.9271 83.5224C14.4277 84.6586 14.6549 85.5448 15.7916 85.5448H22.2211C26.0624 85.5448 28.266 87.7716 28.266 91.5901L0.49903 154.759C0.498417 154.98 0.541474 155.199 0.625728 155.404C0.709982 155.608 0.833771 155.793 0.98998 155.95C1.14619 156.106 1.33174 156.23 1.53596 156.314C1.74019 156.398 1.95907 156.441 2.18001 156.441" fill="#C7282A"/>
<path d="M462.937 62.2709H464.939V61.5488H460.146V62.2709H462.14V67.5999H462.937V62.2709Z" fill="#C7282A"/>
<path d="M470.734 67.5999H471.5V61.5488H470.295L468.643 66.5899L467.013 61.5488H465.803V67.5999H466.561V62.4614L468.288 67.5999H469.006L470.734 62.4614V67.5999Z" fill="#C7282A"/>
<path fill-rule="evenodd" clip-rule="evenodd" d="M162.116 39.5061H7.88388C3.55582 39.5061 0 35.9502 0 31.6217V8.8414C0 4.51339 3.55582 0.957031 7.88388 0.957031H162.116C166.444 0.957031 170 4.51339 170 8.8414V31.6217C170 35.9498 166.444 39.5061 162.116 39.5061ZM162.116 5.43556H7.88388C6.02178 5.43556 4.47891 6.96257 4.47845 8.84141V31.6217C4.47845 33.5006 6.02178 35.0271 7.88388 35.0271H162.116C163.978 35.0271 165.521 33.5006 165.521 31.6217V8.84141C165.521 6.96211 163.978 5.43556 162.116 5.43556ZM133.329 18.0506H127.827C127.441 16.7085 126.183 15.702 124.723 15.702H116.336C114.558 15.702 113.115 17.1615 113.115 18.9229V22.5296C113.115 24.3077 114.575 25.7504 116.336 25.7504H124.723C126.284 25.7504 127.592 24.6097 127.877 23.1335H133.329V24.0729C133.329 27.344 130.628 30.0281 127.34 30.0281H113.719C110.431 30.0281 107.73 27.344 107.73 24.0729V17.3968C107.73 14.0921 110.431 11.408 113.719 11.408H127.34C130.628 11.408 133.329 14.1088 133.329 17.3968V18.0506ZM29.7424 18.0506H35.2447L35.2442 17.3968C35.2442 14.1088 32.5435 11.408 29.2555 11.408H15.634C12.346 11.408 9.66202 14.0921 9.66202 17.3968V24.0729C9.66202 27.344 12.346 30.0281 15.634 30.0281H29.2559C32.5439 30.0281 35.2447 27.344 35.2447 24.0729V23.1335H29.8095C29.5244 24.6097 28.199 25.7504 26.6391 25.7504H18.2515C16.4899 25.7504 15.0306 24.3077 15.0306 22.5296V18.9229C15.0306 17.1615 16.4899 15.702 18.2515 15.702H26.6391C28.1153 15.702 29.3567 16.7085 29.7424 18.0506ZM140.291 11.408H154.735C158.023 11.408 160.723 14.0921 160.723 17.3968V24.0733C160.723 27.3445 158.023 30.0286 154.735 30.0286H140.291C137.003 30.0286 134.319 27.3445 134.319 24.0733V17.3968C134.319 14.0916 137.003 11.408 140.291 11.408ZM56.784 11.408H42.3404C39.0529 11.408 36.3521 14.0916 36.3521 17.3968V24.0733C36.3521 27.3445 39.0524 30.0286 42.3404 30.0286H56.784C60.0718 30.0286 62.7559 27.3445 62.7559 24.0733V17.3968C62.7559 14.0921 60.0718 11.408 56.784 11.408ZM91.6098 18.8898H105.801V22.5803H91.6098V25.7509H106.741V30.0286H85.7887V11.408H106.741V15.7025H91.6098V18.8898ZM83.9261 25.331H70.422V11.4076H64.6009V30.0281H83.9261V25.331ZM143.059 15.702H151.983C153.745 15.702 155.205 17.1615 155.205 18.9229V22.5296C155.205 24.3077 153.745 25.7504 151.983 25.7504H143.059C141.281 25.7504 139.822 24.3077 139.822 22.5296V18.9229C139.822 17.1619 141.281 15.702 143.059 15.702ZM54.0163 15.702H45.0919C43.3299 15.702 41.8706 17.1619 41.871 18.9229V22.5296C41.871 24.3077 43.3304 25.7504 45.0919 25.7504H54.0163C55.7944 25.7504 57.254 24.3077 57.254 22.5296V18.9229C57.254 17.1615 55.7944 15.702 54.0163 15.702Z" fill="white"/>
</svg>
