<svg width="472" height="158" viewBox="0 0 472 158" fill="none" xmlns="http://www.w3.org/2000/svg">
<path fill-rule="evenodd" clip-rule="evenodd" d="M162.116 39.5061H7.88388C3.55582 39.5061 0 35.9502 0 31.6217V8.8414C0 4.51339 3.55582 0.957031 7.88388 0.957031H162.116C166.444 0.957031 170 4.51339 170 8.8414V31.6217C170 35.9498 166.444 39.5061 162.116 39.5061ZM162.116 5.43556H7.88388C6.02178 5.43556 4.47891 6.96257 4.47845 8.84141V31.6217C4.47845 33.5006 6.02178 35.0271 7.88388 35.0271H162.116C163.978 35.0271 165.521 33.5006 165.521 31.6217V8.84141C165.521 6.96211 163.978 5.43556 162.116 5.43556ZM133.329 18.0506H127.827C127.441 16.7085 126.183 15.702 124.723 15.702H116.336C114.558 15.702 113.115 17.1615 113.115 18.9229V22.5296C113.115 24.3077 114.575 25.7504 116.336 25.7504H124.723C126.284 25.7504 127.592 24.6097 127.877 23.1335H133.329V24.0729C133.329 27.344 130.628 30.0281 127.34 30.0281H113.719C110.431 30.0281 107.73 27.344 107.73 24.0729V17.3968C107.73 14.0921 110.431 11.408 113.719 11.408H127.34C130.628 11.408 133.329 14.1088 133.329 17.3968V18.0506ZM29.7424 18.0506H35.2447L35.2442 17.3968C35.2442 14.1088 32.5435 11.408 29.2555 11.408H15.634C12.346 11.408 9.66202 14.0921 9.66202 17.3968V24.0729C9.66202 27.344 12.346 30.0281 15.634 30.0281H29.2559C32.5439 30.0281 35.2447 27.344 35.2447 24.0729V23.1335H29.8095C29.5244 24.6097 28.199 25.7504 26.6391 25.7504H18.2515C16.4899 25.7504 15.0306 24.3077 15.0306 22.5296V18.9229C15.0306 17.1615 16.4899 15.702 18.2515 15.702H26.6391C28.1153 15.702 29.3567 16.7085 29.7424 18.0506ZM140.291 11.408H154.735C158.023 11.408 160.723 14.0921 160.723 17.3968V24.0733C160.723 27.3445 158.023 30.0286 154.735 30.0286H140.291C137.003 30.0286 134.319 27.3445 134.319 24.0733V17.3968C134.319 14.0916 137.003 11.408 140.291 11.408ZM56.784 11.408H42.3404C39.0528 11.408 36.3521 14.0916 36.3521 17.3968V24.0733C36.3521 27.3445 39.0524 30.0286 42.3404 30.0286H56.784C60.0718 30.0286 62.7559 27.3445 62.7559 24.0733V17.3968C62.7559 14.0921 60.0718 11.408 56.784 11.408ZM91.6098 18.8898H105.801V22.5803H91.6098V25.7509H106.741V30.0286H85.7887V11.408H106.741V15.7025H91.6098V18.8898ZM83.9261 25.331H70.422V11.4076H64.6009V30.0281H83.9261V25.331ZM143.059 15.702H151.983C153.745 15.702 155.205 17.1615 155.205 18.9229V22.5296C155.205 24.3077 153.745 25.7504 151.983 25.7504H143.059C141.281 25.7504 139.822 24.3077 139.822 22.5296V18.9229C139.822 17.1619 141.281 15.702 143.059 15.702ZM54.0163 15.702H45.0919C43.3299 15.702 41.8706 17.1619 41.871 18.9229V22.5296C41.871 24.3077 43.3304 25.7504 45.0919 25.7504H54.0163C55.7944 25.7504 57.254 24.3077 57.254 22.5296V18.9229C57.254 17.1615 55.7944 15.702 54.0163 15.702Z" fill="white"/>
<path d="M391.834 116.405L373.951 62.5064H323.415C322.279 62.5064 321.415 63.2108 320.893 64.3252L311.645 84.479C311.144 85.6151 311.371 86.5013 312.508 86.5013H320.574C324.416 86.5013 326.619 88.7282 326.619 92.5466L326.664 155.716C326.664 155.937 326.707 156.156 326.792 156.361C326.876 156.565 327 156.75 327.156 156.907C327.313 157.063 327.498 157.187 327.703 157.271C327.907 157.355 328.126 157.398 328.347 157.398H352.25C352.471 157.398 352.69 157.355 352.895 157.271C353.099 157.187 353.284 157.063 353.441 156.906C353.597 156.75 353.721 156.564 353.805 156.36C353.889 156.156 353.933 155.937 353.932 155.716V89.2745C353.932 88.6373 354.659 88.1384 355.273 88.1384L355.25 88.1601C355.886 88.1601 356.454 88.6373 356.659 89.2745L378.723 156.171C378.95 156.875 379.699 157.398 380.45 157.398H403.764C404.514 157.398 405.263 156.875 405.491 156.171L427.01 89.2745C427.214 88.6373 427.782 88.1601 428.418 88.1601L428.395 88.1384C429.009 88.1384 429.736 88.6373 429.736 89.2745V155.716C429.735 155.937 429.778 156.156 429.863 156.36C429.947 156.564 430.071 156.75 430.227 156.906C430.384 157.063 430.569 157.187 430.774 157.271C430.978 157.355 431.197 157.398 431.418 157.398H455.322C455.543 157.398 455.762 157.355 455.966 157.271C456.17 157.186 456.355 157.062 456.512 156.906C456.668 156.75 456.791 156.564 456.876 156.36C456.96 156.156 457.003 155.937 457.002 155.716V62.5059H409.716L391.834 116.405Z" fill="white"/>
<path d="M266.677 88.7282C266.881 88.0929 267.449 87.6158 268.086 87.6158L268.312 87.592L268.54 87.6158C269.176 87.6158 269.745 88.0929 269.949 88.7282L282.355 117.678C282.764 118.633 282.446 119.222 281.492 119.222H255.133C254.179 119.222 253.861 118.633 254.27 117.678L266.677 88.7282ZM211.097 157.398H237.228L243.771 142.127H292.854L299.397 157.398H325.528C325.749 157.398 325.968 157.355 326.173 157.271C326.377 157.187 326.563 157.063 326.719 156.907C326.875 156.75 326.999 156.565 327.084 156.36C327.168 156.156 327.211 155.937 327.211 155.716L286.581 62.5059H235.615C234.478 62.5059 233.613 63.2103 233.092 64.3247L223.844 84.479C223.344 85.6151 223.571 86.5013 224.707 86.5013H231.138C234.978 86.5013 237.183 88.7282 237.183 92.5466L209.414 155.716C209.414 155.938 209.457 156.156 209.541 156.361C209.626 156.565 209.75 156.751 209.906 156.907C210.062 157.063 210.248 157.187 210.452 157.271C210.657 157.355 210.876 157.399 211.097 157.398Z" fill="white"/>
<path d="M147.29 132.312C147.069 132.312 146.85 132.269 146.645 132.185C146.441 132.101 146.255 131.977 146.099 131.821C145.942 131.664 145.818 131.479 145.734 131.274C145.65 131.07 145.607 130.851 145.607 130.63V88.1844C145.607 87.9632 145.65 87.7442 145.734 87.5398C145.818 87.3355 145.942 87.1498 146.099 86.9934C146.255 86.8371 146.441 86.7131 146.645 86.6288C146.85 86.5444 147.069 86.5013 147.29 86.5018H182.101C185.919 86.5018 188.146 88.7287 188.146 92.5472V126.267C188.146 130.085 185.919 132.311 182.101 132.311L147.29 132.312ZM196.031 157.398C206.688 157.398 214.322 149.763 214.322 139.105V80.7994C214.322 70.1423 206.688 62.5059 196.031 62.5059H115.137C114.001 62.5059 113.138 63.2103 112.613 64.3247L103.366 84.479C102.867 85.6151 103.094 86.5013 104.23 86.5013H112.297C116.113 86.5013 118.341 88.7282 118.341 92.5466V155.716C118.34 155.937 118.383 156.156 118.468 156.361C118.552 156.565 118.676 156.75 118.832 156.907C118.988 157.063 119.174 157.187 119.378 157.271C119.582 157.355 119.801 157.398 120.022 157.398L196.031 157.398ZM57.2608 88.7287C57.4664 88.0935 58.0344 87.6163 58.6702 87.6163L58.8974 87.5925L59.1251 87.6163C59.7609 87.6163 60.3289 88.0935 60.5334 88.7287L72.9402 117.679C73.3492 118.633 73.0311 119.223 72.0767 119.223H45.7181C44.7637 119.223 44.4451 118.633 44.8546 117.679L57.2608 88.7287ZM1.68099 157.398H27.8124L34.3566 142.128H83.4382L89.9824 157.398H116.114C116.335 157.399 116.554 157.356 116.758 157.271C116.962 157.187 117.148 157.063 117.304 156.907C117.46 156.751 117.584 156.565 117.668 156.361C117.753 156.156 117.796 155.937 117.795 155.716L77.1672 62.5064H26.1991C25.0629 62.5064 24.2 63.2108 23.6768 64.3252L14.4281 84.4795C13.9287 85.6156 14.1559 86.5018 15.2926 86.5018H21.7221C25.5633 86.5018 27.7669 88.7287 27.7669 92.5472L6.45622e-06 155.716C-0.000606635 155.937 0.042451 156.156 0.126705 156.361C0.210958 156.565 0.334747 156.75 0.490956 156.907C0.647165 157.063 0.832715 157.187 1.03694 157.271C1.24117 157.355 1.46004 157.399 1.68099 157.398" fill="white"/>
<path d="M462.937 63.2279H464.939V62.5059H460.146V63.2279H462.14V68.5569H462.937V63.2279Z" fill="white"/>
<path d="M470.734 68.5569H471.5V62.5059H470.295L468.643 67.547L467.013 62.5059H465.803V68.5569H466.561V63.4184L468.288 68.5569H469.006L470.734 63.4184V68.5569Z" fill="white"/>
</svg>
