<svg width="476" height="139" viewBox="0 0 476 139" xmlns="http://www.w3.org/2000/svg">
  <defs>
    <linearGradient id="mainlogo__b" x1="237.585" y1="23.6109" x2="237.585" y2="132.942" gradientUnits="userSpaceOnUse" class="mainlogo__paint0_linear_895">
      <stop offset="0.483" stop-color="#F57E25"/>
      <stop offset="1" stop-color="#FCD660"/>
    </linearGradient>
    <linearGradient id="mainlogo__c" x1="237.585" y1="23.6109" x2="237.585" y2="132.942" gradientUnits="userSpaceOnUse" class="mainlogo__paint1_linear_895">
      <stop offset="0.483" stop-color="#F57E25"/>
      <stop offset="1" stop-color="#FCD660"/>
    </linearGradient>
    <linearGradient id="mainlogo__d" x1="237.585" y1="23.6109" x2="237.585" y2="132.942" gradientUnits="userSpaceOnUse" class="mainlogo__paint2_linear_895">
      <stop offset="0.483" stop-color="#F57E25"/>
      <stop offset="1" stop-color="#FCD660"/>
    </linearGradient>
    <linearGradient id="mainlogo__e" x1="237.585" y1="23.6109" x2="237.585" y2="132.942" gradientUnits="userSpaceOnUse" class="mainlogo__paint3_linear_895">
      <stop offset="0.483" stop-color="#F57E25"/>
      <stop offset="1" stop-color="#FCD660"/>
    </linearGradient>
    <linearGradient id="mainlogo__f" x1="237.585" y1="23.6109" x2="237.585" y2="132.942" gradientUnits="userSpaceOnUse" class="mainlogo__paint4_linear_895">
      <stop offset="0.483" stop-color="#F57E25"/>
      <stop offset="1" stop-color="#FCD660"/>
    </linearGradient>
    <linearGradient id="mainlogo__g" x1="237.585" y1="23.6109" x2="237.585" y2="132.942" gradientUnits="userSpaceOnUse" class="mainlogo__paint5_linear_895">
      <stop offset="0.483" stop-color="#F57E25"/>
      <stop offset="1" stop-color="#FCD660"/>
    </linearGradient>
    <linearGradient id="mainlogo__h" x1="237.585" y1="23.6109" x2="237.585" y2="132.942" gradientUnits="userSpaceOnUse" class="mainlogo__paint6_linear_895">
      <stop offset="0.483" stop-color="#F57E25"/>
      <stop offset="1" stop-color="#FCD660"/>
    </linearGradient>
    <linearGradient id="mainlogo__i" x1="237.585" y1="23.6109" x2="237.585" y2="132.942" gradientUnits="userSpaceOnUse" class="mainlogo__paint7_linear_895">
      <stop offset="0.483" stop-color="#F57E25"/>
      <stop offset="1" stop-color="#FCD660"/>
    </linearGradient>
    <clipPath id="mainlogo__a" class="mainlogo__clip0_895">
      <rect width="475" height="139" fill="white" transform="translate(.264)"/>
    </clipPath>
  </defs>
  <g clip-path="url(#mainlogo__a)" class="mainlogo__mainlogo">
    <path d="m333.22 138 52.001-57.432c.646 0 1.291 0 1.956.094h.113c7.291-.113 12.74-3.693 17.524-8.58l14.467-14.434c2.07.871 4.253 1.193 6.645 1.193h20.03c4.139 0 7.082-.53 10.347-3.58 1.082-1.08 2.278-2.178 3.475-3.258 2.069-1.742 3.265-3.902 3.702-6.08 3.151-1.402 6.094-3.58 7.936-6.289 4.898-6.838 5.126-16.498-1.956-22.143-3.265-2.595-7.499-3.467-11.752-3.467h-15.34c-5.012-.322-8.259 2.595-11.316 5.967l-.759.758-.551.871c-.778 1.08-1.215 2.273-1.424 3.466-1.632-.662-3.36-.87-5.107-.87h-20.144c-2.069.094-3.911.643-5.657 1.514-2.07-1.193-4.557-1.628-7.177-1.628h-14.467c-.317 0-.63-.002-.941-.003-2.667-.01-5.131-.02-7.868.76-1.101.322-2.07.758-3.057 1.307-3.17-1.837-6.873-1.95-10.784-1.95h-42.888c-3.038 0-5.867.757-8.487 2.064-3.151-1.951-6.759-2.065-10.67-2.065H250.48c-3.057 0-5.772.758-8.164 2.065-3.474-2.065-6.968-2.065-10.993-2.065h-42.546c-2.943 0-5.449.644-7.519 1.837-.228-.094-.322-.094-.436-.208-3.165-1.665-5.956-1.65-9.291-1.633-.346.002-.698.004-1.057.004h-11.979c-2.393 0-4.69.55-6.531 1.42-1.424-.776-3.152-1.211-4.899-1.42h-18.606c-2.943 0-5.449.644-7.404 1.837-2.829-1.287-6.094-1.95-10.006-1.837H73.723c-2.942 0-5.562.758-7.632 1.951-1.955-.966-4.025-1.629-6.417-1.837-1.049-.17-2.109-.15-3.21-.128-.374.007-.753.014-1.138.014H13.862c-11.866 0-17.524 11.725-10.575 20.647 1.746 2.16 4.025 4.338 6.094 6.289l89.916 86.11.77.739H333.22Z" fill="black" class="mainlogo__Vector"/>
    <g class="mainlogo__Union">
      <path d="M462.7 25.2c-1.309-.986-3.474-1.194-5.107-1.194H441.93c-.759 0-1.633.985-3.056 2.709-.76 1.42-.209 2.064 1.518 1.95h13.499c2.184.758.323 4.774-1.746 4.566h-8.278c-1.747 0-3.266.113-5.012.644-2.729.95-4.044 2.182-5.497 3.543h-.001l-.16.15a416.514 416.514 0 0 0-4.671 4.936l-.009.008-.008.01-.002.001-.001.001c-1.548 1.653-3.096 3.307-4.669 4.932-.873.872-.987 1.743-.323 2.273.437.322 1.196.436 2.392.436h20.03l.181.001.086.002.32.007c.971.027 1.641.045 2.47-.768a109.24 109.24 0 0 1 1.851-1.79c.627-.596 1.253-1.193 1.851-1.79.873-.758.873-1.42-.645-1.515h-9.474c-4.785 0-1.31-5.436 1.31-5.645h10.784c2.828-.114 6.417-1.742 8.05-4.13 1.936-2.822 2.714-7.065-.02-9.338Z" fill="url(#mainlogo__b)"/>
      <path d="M264.414 132.474H235.16l6.074-51.034c.114-1.307.646-2.065 2.278-2.065h16.442c3.816-.549 4.575-3.05 4.898-5.872h-14.809c-5.334.209-7.841-3.258-7.518-7.918l1.747-24.207c.323-3.808 3.057-6.403 6.208-6.403h40.591l.426-.001.357-.002c3.933-.025 6.609-.041 4.666 5.97l-2.183 6.516c-.323.985-.646 1.837-1.082 2.709-1.082 1.95-3.057 2.273-5.107 2.273h-21.435c-1.082 0-1.424.113-1.633.757l-1.082 4.13c-.186.775.305.77 1.34.76h.002l.255-.002h16.154c.271 0 .541-.005.81-.01h.005c1.035-.019 2.054-.037 3.002.218 2.278.55 3.151 1.95 3.379 3.807.181 1.31-.192 2.378-.651 3.694l-.002.007a56.57 56.57 0 0 0-.22.637l-23.658 66.036Z" fill="url(#mainlogo__c)"/>
      <path d="m230.992 132.473 5.324-66.357.024-.332.026-.32v-.003l.001-.006c.107-1.335.199-2.486-.26-3.79-.645-1.838-1.956-3.373-4.462-3.903-1.129-.255-2.175-.237-3.213-.218h-.003a83.67 83.67 0 0 1-.388.007h-.117l-.064.002H209.223a30.158 30.158 0 0 0-.434.003h-.007c-1.093.01-1.514.015-1.514-.76v-3.694c0-.644.323-.757 1.424-.757h24.149c2.07 0 4.025-.322 4.576-2.387.209-.985.323-1.837.437-2.822l.55-6.08c.5-6.125-2.355-6.108-6.405-6.084-.259.001-.522.003-.79.003h-42.452c-3.38 0-4.462 2.709-3.816 6.289l4.575 26.272.03.209.018.134.027.199c.151 1.137.265 1.988 1.121 2.925.988 1.193 2.506 1.95 4.899 1.837h23.295c.437 2.936.323 5.531-3.474 6.08h-21.891c-1.519 0-1.955.872-1.746 2.179l9.031 51.374h30.166Z" fill="url(#mainlogo__d)"/>
      <path d="m175.81 73.294 16.144 59.179h-15.077l-23.926-59.16h-6.095c-3.702 0-5.448-2.386-6.967-5.644l-13.271-27.694c-1.196-2.5-1.424-5 1.955-5h17.524c.873.113 1.405.322 1.519.87 1.277 3.201 2.399 6.374 3.52 9.546l.008.023c1.159 3.28 2.318 6.558 3.649 9.867.436 1.193.873 1.837 1.632 1.629h4.139c1.31 0 1.747-.758 1.196-2.179a560.626 560.626 0 0 0-2.251-7.706l-.002-.008-.008-.028c-1.017-3.42-2.024-6.802-2.96-10.29-.437-1.516.437-1.63 2.07-1.63h11.98c.463 0 .896-.005 1.302-.01 4.839-.058 5.842-.07 7.944 9.349.764 3.564 1.511 7.125 2.257 10.684l.006.029.026.125.001.002c.928 4.426 1.855 8.85 2.817 13.273.436 2.595-.646 4.773-3.589 4.773h-5.543Z" fill="url(#mainlogo__e)"/>
      <path d="m165.669 132.473-42.318-88.16c-4.549-9.67-8.511-9.522-12.477-9.375-.485.018-.971.036-1.458.036h-35.58c-3.378 0-4.024 2.5-2.069 5.096l7.405 10.21c1.233 1.64 2.854 1.636 4.846 1.63l.18-.001h18.915c.081 0 .202-.005.356-.011h.003c1.515-.06 6.231-.244 7.918 2.625l12.512 20.836c1.633 2.614 0 2.936-2.62 2.936l-.255-.013c-2.107-.103-3.153-.154-3.884-1.502-1.908-2.823-3.702-5.674-5.496-8.524l-.038-.06c-1.782-2.831-3.564-5.662-5.459-8.464-1.424-2.179-2.183-2.273-4.575-2.273-2.452 0-4.876.028-7.285.057H94.236c-2.386.028-4.757.056-7.128.056-1.196 0-1.747.872-1.31 1.63.437.87.55 1.08 1.424 2.178l51.53 71.093h26.917Z" fill="url(#mainlogo__f)"/>
      <path fill-rule="evenodd" clip-rule="evenodd" d="m133.698 129.364 2.359 3.11h-32.212l-87.04-87.062-.552-.555-.002-.002c-1.637-1.647-3.584-3.606-4.554-4.88-1.86-2.5-1.101-5 2.278-5h41.446a23.848 23.848 0 0 0 .328-.002c.278-.002.546-.009.806-.015h.008c3.714-.084 5.87-.133 12.907 9.356 11.369 15.386 48.082 63.771 61.077 80.896l.076.1 1.347 1.775 1.728 2.279ZM57.984 54.58c-1.519-1.837-1.917-1.913-2.734-1.913l-6.094-.019c-1.633.02-1.747 1.137-.855 2.122L68.066 76.76c.912 1.004 1.31 1.326 2.772 1.345 1.121.017 2.873-.01 4.172-.03h.002l.554-.008c.57 0 1.234-.795.228-2.007L57.984 54.58Z" fill="url(#mainlogo__g)"/>
      <path d="m328.897 132.473 51.311-59.179h6.74c4.025 0 6.968-2.386 10.005-5.644l26.125-27.58c2.62-2.595 3.93-5.095.227-5.095h-19.27c-.987.113-1.747.322-2.069.87-2.771 3.258-5.409 6.487-8.047 9.715l-.003.003c-2.639 3.23-5.278 6.46-8.05 9.718-1.082 1.193-1.747 1.837-2.506 1.629h-4.576c-1.424 0-1.519-.758-.437-2.179 2.566-3.562 5.131-6.98 7.697-10.397a869.155 869.155 0 0 0 5.688-7.636c1.082-1.515.209-1.629-1.519-1.629h-14.467c-.515 0-.994-.005-1.442-.01-5.339-.058-6.372-.07-12.607 9.349-2.789 4.198-5.546 8.396-8.305 12.597l-.005.009-.046.07-.043.064-.147.224-.002.004a3112.051 3112.051 0 0 1-7.343 11.145c-1.633 2.614-1.31 4.773 1.956 4.773h7.518l-42.873 59.179h16.49Z" fill="url(#mainlogo__h)"/>
      <path d="m333.182 79.053-34.615 53.421h-30.844a6718.33 6718.33 0 0 1 14.001-34.69l.007-.015.005-.014c1.581-3.888 2.73-6.715 3.659-9.041 0 0 3.816-10.627 16.65-47.337 1.31-3.788 4.898-6.402 8.278-6.402h42.775c.279 0 .555-.002.825-.003 4.147-.025 6.985-.041 3.313 5.97l-4.025 6.516-.094.142-.159.238c-.542.817-1.044 1.573-1.702 2.328-1.633 1.952-3.797 2.274-5.981 2.274h-17.087l-.252-.002h-.128c-1.04-.01-2.24-.021-2.24.55l.209 3.373c0 .757.76 1.307 2.184 1.307h15.91c1.423 0 2.069 1.307 1.309 2.5l-2.62 4.338-6.094 9.338h-19.229l-.1-.001-.129-.002h-.005c-1.105-.011-2.301-.024-2.2.647l.209 3.258c0 .758.76 1.307 2.279 1.307h15.891Z" fill="url(#mainlogo__i)"/>
    </g>
    <path fill-rule="evenodd" clip-rule="evenodd" d="M86.039.002a7.711 7.711 0 0 0-7.712 7.712A7.712 7.712 0 1 0 86.04.002Zm0 11.637a3.924 3.924 0 1 1 0-7.85 3.924 3.924 0 0 1 0 7.85ZM23.992.418h-2.998l-5.38 13.796V.419h-4.66L7.921 9.014 4.887.42H.264v14.59h3.611V7.136l2.781 7.874h2.528l2.78-7.91v7.91h7.369l.722-2.095h4.96l.71 2.095h4.117L23.992.419Zm-2.997 9.607 1.48-4.623 1.553 4.623h-3.033ZM76.325.419l-3.07 9.173L70.075.42h-3.829l5.02 14.59h3.72L79.864.42h-3.54Z" fill="white" class="mainlogo__Vector"/>
    <path fill-rule="evenodd" clip-rule="evenodd" d="m100.233 7.93 4.623-7.513h-3.972l-2.71 4.407L95.285.417h-3.972l4.622 7.007-4.659 7.584h3.974l2.744-4.514 2.998 4.514h3.972l-4.731-7.079ZM64.226.416h-2.998l-5.237 13.435V.417h-3.755v7.73L46.78.416h-3.286v6.796c-.027-.174-.06-.347-.082-.516h-8.64V9.59h4.444a3.917 3.917 0 0 1-3.451 2.047 3.925 3.925 0 0 1 0-7.849c1.07 0 2.04.414 2.747 1.108l4.433-.005a7.712 7.712 0 1 0-7.18 10.533c3.974 0 7.3-2.996 7.729-6.857v6.44h3.756V7.641l5.237 7.367h7.115l.65-2.094h4.998l.708 2.094h4.117L64.227.418Zm-2.998 9.607 1.48-4.622 1.553 4.622h-3.033Zm46.686-9.34a1.151 1.151 0 0 0-.846-.348c-.327 0-.609.116-.841.348a1.151 1.151 0 0 0-.349.842c0 .332.116.613.348.847.231.234.513.35.843.35.33 0 .613-.117.846-.35.232-.235.349-.517.349-.847 0-.33-.117-.61-.35-.842Zm-.119 1.574a.984.984 0 0 1-.727.302.988.988 0 0 1-.727-.302 1.008 1.008 0 0 1-.297-.732c0-.284.1-.526.299-.726a.99.99 0 0 1 .725-.303.99.99 0 0 1 .727.303c.199.2.3.442.3.726 0 .286-.101.53-.3.732Z" fill="white" class="mainlogo__Vector"/>
    <path fill-rule="evenodd" clip-rule="evenodd" d="M107.6 2.161a.185.185 0 0 1-.012-.068 1.692 1.692 0 0 1-.003-.097V1.9a.362.362 0 0 0-.071-.203.322.322 0 0 0-.227-.129.49.49 0 0 0 .19-.063c.086-.055.129-.141.129-.259 0-.165-.068-.275-.203-.331a.993.993 0 0 0-.358-.048h-.459v1.31h.231V1.66h.182c.123 0 .208.014.256.042.083.049.125.15.125.301v.105l.004.042.004.014.003.013h.215l-.006-.016Zm-.354-.69a.625.625 0 0 1-.22.029h-.208v-.475h.197c.128 0 .221.017.279.05.058.032.087.096.087.191 0 .101-.045.17-.135.205Z" fill="white" class="mainlogo__Vector"/>
  </g>
</svg>
