<svg width="641" height="195" viewBox="0 0 641 195" fill="none" xmlns="http://www.w3.org/2000/svg">
<path d="M178.15 58.2762V39.3203H168.908V58.2762H178.15Z" fill="white"/>
<path d="M178.141 131.827V112.871H168.898V131.827H178.141Z" fill="white"/>
<path d="M299.688 58.3036V39.3477L264.165 39.3477V58.3036L299.688 58.3036Z" fill="white"/>
<path d="M452.943 58.2977V39.3418H441.815V58.2977H452.943Z" fill="white"/>
<path d="M299.676 131.852V112.896H264.153V131.852H299.676Z" fill="white"/>
<path d="M125.28 39.3477H106.324V131.864H125.28V39.3477Z" fill="white"/>
<path d="M157.47 39.3477H138.514V131.864H157.47V39.3477Z" fill="white"/>
<path d="M178.154 131.833C178.154 125.514 178.154 119.195 178.154 112.877C214.557 112.877 214.557 58.2723 178.154 58.2723C178.154 51.9537 178.154 45.635 178.154 39.3164C239.8 39.3478 239.8 131.833 178.154 131.833Z" fill="white"/>
<path d="M252.722 39.3477H233.766V131.864H252.722V39.3477Z" fill="white"/>
<path d="M299.684 95.079V76.123H264.161V95.079H299.684Z" fill="white"/>
<path d="M452.938 95.0711V76.1152H441.809V95.0711H452.938Z" fill="white"/>
<path d="M430.366 39.3477H411.41V131.864H430.366V39.3477Z" fill="white"/>
<path d="M452.938 95.0524C452.938 88.7024 452.938 82.4466 452.938 76.0965C464.695 76.0965 464.695 58.2723 452.938 58.2723C452.938 51.9222 452.938 45.6665 452.938 39.3164C489.969 39.3478 489.969 95.0524 452.938 95.0524Z" fill="white"/>
<path d="M325.59 79.6163C328.262 66.2246 340.051 56.1336 354.228 56.1336C368.406 56.1336 380.194 66.2246 382.866 79.6163H402.042C399.213 55.725 378.874 37.1777 354.228 37.1777C329.582 37.1777 309.243 55.725 306.414 79.6163H325.59Z" fill="white"/>
<path d="M382.866 91.0898C380.194 104.482 368.406 114.573 354.228 114.573C340.051 114.573 328.262 104.482 325.59 91.0898H306.414C309.243 114.981 329.582 133.528 354.228 133.528C378.874 133.528 399.213 114.981 402.042 91.0898H382.866Z" fill="white"/>
<path d="M77.8419 39.3477L56.3711 81.4719L67.0279 102.377L99.0926 39.3477H77.8419Z" fill="white"/>
<path d="M49.9587 94.1092L22.1064 39.3477H0.824219L49.9587 135.888L60.5841 114.983L49.9587 94.1092Z" fill="white"/>
<path d="M596.978 113.976C583.586 111.304 573.495 99.5152 573.495 85.3376C573.495 71.16 583.586 59.3715 596.978 56.6994V37.5234C573.086 40.3527 554.539 60.6918 554.539 85.3376C554.539 109.983 573.086 130.322 596.978 133.152V113.976Z" fill="white"/>
<path d="M626.307 68.1735L639.824 54.6561C632.122 45.3824 621.026 39.0324 608.451 37.5234V56.6994C615.744 58.1769 622.063 62.3579 626.307 68.1735Z" fill="white"/>
<path d="M626.307 102.533C622.063 108.349 615.745 112.53 608.42 113.976V133.152C621.026 131.674 632.123 125.293 639.793 116.019L626.307 102.533Z" fill="white"/>
<path d="M514.803 97.0938L505.152 116.05H543.127V97.0938H514.803Z" fill="white"/>
<path d="M484.278 131.832L505.718 89.7077L495.092 68.8027L462.996 131.832H484.278Z" fill="white"/>
<path d="M512.131 77.0694L540.015 131.831H561.266L512.131 35.291L501.506 56.1645L512.131 77.0694Z" fill="white"/>
<path d="M86.0117 0.332031C83.5857 0.332031 78.7031 0.362547 78.7031 0.332031V21.6017H84.6537L84.6842 16.2767H87.3391C93.0151 16.2767 95.9751 13.5455 95.9751 8.29673C95.9751 2.54445 92.2522 0.332031 86.0117 0.332031ZM86.0117 12.2943H84.6842V4.31438C85.0352 4.29912 85.7065 4.31438 86.0117 4.31438C89.0175 4.31438 90.1008 5.85544 90.1008 8.43405C90.1008 11.1042 89.1701 12.2943 86.0117 12.2943Z" fill="white"/>
<path d="M32.8216 21.6017V12.9657H26.8405V21.6017H20.8594V0.332031H26.8405V8.96808H32.8216V0.332031H38.8027V21.6017H32.8216Z" fill="white"/>
<path d="M43.457 21.6017V0.332031H48.782H49.4381V21.6017H43.457Z" fill="white"/>
<path d="M65.3522 21.6017H54.0918V0.332031H60.0729V17.6194H66.0693L65.3522 21.6017Z" fill="white"/>
<path d="M74.0338 0.332031H68.0527V21.6017H74.0338V0.332031Z" fill="white"/>
<path d="M103.955 5.65709V6.32844C103.955 9.59366 113.919 8.09837 113.919 14.9645C113.919 20.1217 110.364 21.617 105.283 21.617C103.284 21.617 100.049 21.2508 97.9742 20.9456V16.2919C99.8052 17.2379 103.284 17.6194 105.283 17.6194C107.541 17.6194 107.938 16.9175 107.938 15.6206C107.938 11.9587 97.959 13.5302 97.959 6.31318C97.959 2.11722 102.063 0.332031 106.976 0.332031C110.455 0.332031 111.005 0.65245 112.591 1.00338V4.98573C111.172 4.39067 109.189 4.31438 107.266 4.31438C105.527 4.31438 103.955 4.52799 103.955 5.65709Z" fill="white"/>
<path d="M8.22652 0.332031C5.81576 0.332031 0.917969 0.362547 0.917969 0.332031V21.6017H6.86856L6.89908 16.2767H9.55396C15.2299 16.2767 18.1899 13.5455 18.1899 8.29673C18.2052 2.54445 14.4823 0.332031 8.22652 0.332031ZM8.22652 12.2943H6.89908V4.31438C7.25001 4.29912 7.92136 4.31438 8.22652 4.31438C11.2323 4.31438 12.3156 5.85544 12.3156 8.43405C12.3156 11.1042 11.4002 12.2943 8.22652 12.2943Z" fill="white"/>
<path d="M480.387 178.059V170.043H463.676V178.059H480.387Z" fill="#FF3333"/>
<path d="M564.899 171.623C566.029 165.96 571.014 161.692 577.01 161.692C583.005 161.692 587.991 165.96 589.121 171.623H597.23C596.034 161.519 587.432 153.676 577.01 153.676C566.587 153.676 557.986 161.519 556.789 171.623H564.899Z" fill="#FF3333"/>
<path d="M589.105 176.475C587.975 182.138 582.99 186.405 576.994 186.405C570.998 186.405 566.013 182.138 564.883 176.475H556.773C557.97 186.578 566.571 194.422 576.994 194.422C587.417 194.422 596.018 186.578 597.215 176.475H589.105Z" fill="#FF3333"/>
<path d="M522.289 171.623C523.419 165.96 528.405 161.692 534.4 161.692C540.396 161.692 545.381 165.96 546.511 171.623H554.621C553.424 161.519 544.823 153.676 534.4 153.676C523.978 153.676 515.376 161.519 514.18 171.623H522.289Z" fill="#FF3333"/>
<path d="M546.498 176.475C545.368 182.138 540.382 186.405 534.387 186.405C528.391 186.405 523.406 182.138 522.276 176.475H514.166C515.362 186.578 523.964 194.422 534.387 194.422C544.809 194.422 553.411 186.578 554.607 176.475H546.498Z" fill="#FF3333"/>
<path d="M607.492 171.623C608.622 165.96 613.608 161.692 619.603 161.692C625.599 161.692 630.584 165.96 631.714 171.623H639.824C638.627 161.519 630.026 153.676 619.603 153.676C609.181 153.676 600.579 161.519 599.383 171.623H607.492Z" fill="#FF3333"/>
<path d="M631.714 176.475C630.584 182.138 625.599 186.405 619.603 186.405C613.608 186.405 608.622 182.138 607.492 176.475H599.383C600.579 186.578 609.181 194.422 619.603 194.422C630.026 194.422 638.627 186.578 639.824 176.475H631.714Z" fill="#FF3333"/>
<path d="M476.04 174.043C476.04 175.452 475.8 176.795 475.375 178.058H483.657C483.923 176.755 484.056 175.412 484.056 174.043C484.056 172.673 483.923 171.331 483.657 170.041H475.375C475.8 171.304 476.04 172.647 476.04 174.043Z" fill="#FF3333"/>
<path d="M463.689 186.405C456.869 186.405 451.338 180.875 451.338 174.055C451.338 167.235 456.869 161.704 463.689 161.704C467.012 161.704 470.017 163.021 472.237 165.148L477.9 159.484C474.231 155.908 469.219 153.701 463.675 153.701C452.428 153.701 443.309 162.821 443.309 174.068C443.309 185.315 452.428 194.435 463.675 194.435C471.745 194.435 478.725 189.729 482.021 182.922H472.29C470.07 185.076 467.026 186.405 463.689 186.405Z" fill="#FF3333"/>
<path d="M489.68 193.706H498.175L507.481 167.449H498.972L489.68 193.706Z" fill="#FF3333"/>
<path d="M484.934 162.61V154.594H512.027L509.209 162.61H484.934Z" fill="#FF3333"/>
</svg>
