<svg width="463" height="118" viewBox="0 0 463 118" fill="none" xmlns="http://www.w3.org/2000/svg">
<g clip-path="url(#clip0)">
<path d="M3.09863 46.56H9.19703L42.5402 91.5456V46.56H48.3218V102H42.9362L8.88023 55.8264V102H3.09863V46.56Z" fill="white"/>
<path d="M92.8013 97.8024C90.5837 99.4392 88.2605 100.68 85.8317 101.525C83.4557 102.317 80.8421 102.713 77.9909 102.713C75.1397 102.713 72.4469 102.185 69.9125 101.129C67.4309 100.073 65.2661 98.6208 63.4181 96.7728C61.6229 94.9248 60.1973 92.76 59.1413 90.2784C58.0853 87.744 57.5573 85.0248 57.5573 82.1208C57.5573 79.2696 58.0589 76.6032 59.0621 74.1216C60.1181 71.64 61.5173 69.4752 63.2597 67.6272C65.0021 65.7792 67.0613 64.3272 69.4373 63.2712C71.8661 62.2152 74.4269 61.6872 77.1197 61.6872C79.7597 61.6872 82.2149 62.2152 84.4853 63.2712C86.8085 64.3272 88.7885 65.7792 90.4253 67.6272C92.1149 69.4752 93.4349 71.64 94.3853 74.1216C95.3885 76.6032 95.8901 79.2696 95.8901 82.1208V83.9424H63.3389C63.7613 87.8496 65.3717 91.0968 68.1701 93.684C70.9685 96.2712 74.3213 97.5648 78.2285 97.5648C80.2877 97.5648 82.2941 97.248 84.2477 96.6144C86.2013 95.9808 87.8381 95.0832 89.1581 93.9216L92.8013 97.8024ZM76.9613 66.8352C73.5293 66.8352 70.5461 67.9968 68.0117 70.32C65.5301 72.6432 64.0253 75.6264 63.4973 79.2696H90.0293C89.5013 75.7848 87.9965 72.8544 85.5149 70.4784C83.0861 68.0496 80.2349 66.8352 76.9613 66.8352Z" fill="white"/>
<path d="M115.13 102L97.9431 62.3208H104.438L117.981 94.3968L131.524 62.3208H137.781L120.674 102H115.13Z" fill="white"/>
<path d="M175.018 97.8024C172.8 99.4392 170.477 100.68 168.048 101.525C165.672 102.317 163.058 102.713 160.207 102.713C157.356 102.713 154.663 102.185 152.129 101.129C149.647 100.073 147.482 98.6208 145.634 96.7728C143.839 94.9248 142.414 92.76 141.358 90.2784C140.302 87.744 139.774 85.0248 139.774 82.1208C139.774 79.2696 140.275 76.6032 141.279 74.1216C142.335 71.64 143.734 69.4752 145.476 67.6272C147.219 65.7792 149.278 64.3272 151.654 63.2712C154.083 62.2152 156.643 61.6872 159.336 61.6872C161.976 61.6872 164.431 62.2152 166.702 63.2712C169.025 64.3272 171.005 65.7792 172.642 67.6272C174.331 69.4752 175.651 71.64 176.602 74.1216C177.605 76.6032 178.107 79.2696 178.107 82.1208V83.9424H145.555C145.978 87.8496 147.588 91.0968 150.387 93.684C153.185 96.2712 156.538 97.5648 160.445 97.5648C162.504 97.5648 164.51 97.248 166.464 96.6144C168.418 95.9808 170.054 95.0832 171.374 93.9216L175.018 97.8024ZM159.178 66.8352C155.746 66.8352 152.763 67.9968 150.228 70.32C147.747 72.6432 146.242 75.6264 145.714 79.2696H172.246C171.718 75.7848 170.213 72.8544 167.731 70.4784C165.302 68.0496 162.451 66.8352 159.178 66.8352Z" fill="white"/>
<path d="M186.3 102V62.3208H192.161V67.944C193.322 65.8848 194.854 64.3008 196.754 63.192C198.655 62.0304 200.82 61.4496 203.249 61.4496C203.988 61.4496 204.648 61.5024 205.229 61.608C205.81 61.6608 206.39 61.7928 206.971 62.004V67.3896C206.285 67.1784 205.598 67.02 204.912 66.9144C204.226 66.756 203.539 66.6768 202.853 66.6768C200.424 66.6768 198.286 67.3896 196.438 68.8152C194.59 70.188 193.164 72.1944 192.161 74.8344V102H186.3Z" fill="white"/>
<path d="M231.804 102V46.56H255.881C261.266 46.56 265.596 48.0384 268.87 50.9952C272.143 53.8992 273.78 57.7536 273.78 62.5584C273.78 67.3632 272.117 71.244 268.79 74.2008C265.517 77.1576 261.214 78.636 255.881 78.636H237.902V102H231.804ZM255.406 52.0248H237.902V73.3296H255.406C259.154 73.3296 262.138 72.3792 264.355 70.4784C266.573 68.5248 267.682 65.9112 267.682 62.6376C267.682 59.364 266.573 56.7768 264.355 54.876C262.138 52.9752 259.154 52.0248 255.406 52.0248Z" fill="white"/>
<path d="M287.835 45.2136V102H281.974V46.56L287.835 45.2136Z" fill="white"/>
<path d="M310.343 102.713C306.014 102.713 302.476 101.604 299.73 99.3864C297.038 97.1688 295.691 94.2912 295.691 90.7536C295.691 87.0576 297.117 84.1272 299.968 81.9624C302.819 79.7448 306.674 78.636 311.531 78.636C313.643 78.636 315.676 78.8736 317.63 79.3488C319.636 79.824 321.484 80.484 323.174 81.3288V76.1016C323.174 72.9336 322.276 70.5576 320.481 68.9736C318.686 67.3368 316.072 66.5184 312.64 66.5184C310.686 66.5184 308.706 66.8088 306.7 67.3896C304.746 67.9176 302.582 68.7888 300.206 70.0032L297.988 65.4888C300.839 64.116 303.479 63.1128 305.908 62.4792C308.337 61.8456 310.766 61.5288 313.194 61.5288C318.21 61.5288 322.065 62.7168 324.758 65.0928C327.503 67.4688 328.876 70.8744 328.876 75.3096V102H323.174V98.1192C321.378 99.6504 319.399 100.812 317.234 101.604C315.122 102.343 312.825 102.713 310.343 102.713ZM301.314 90.5952C301.314 92.8128 302.238 94.6344 304.086 96.06C305.987 97.4328 308.416 98.1192 311.373 98.1192C313.749 98.1192 315.914 97.7496 317.867 97.0104C319.821 96.2712 321.59 95.1096 323.174 93.5256V86.0808C321.537 84.972 319.768 84.18 317.867 83.7048C316.019 83.1768 313.96 82.9128 311.69 82.9128C308.522 82.9128 305.987 83.6256 304.086 85.0512C302.238 86.424 301.314 88.272 301.314 90.5952Z" fill="white"/>
<path d="M347.16 107.148L349.457 101.921L333.3 62.3208H339.795L352.625 94.872L366.485 62.3208H372.821L353.1 107.94C351.411 111.742 349.536 114.487 347.477 116.177C345.418 117.866 342.804 118.711 339.636 118.711C338.897 118.711 338.184 118.658 337.498 118.553C336.864 118.5 336.336 118.421 335.914 118.315V113.009C336.442 113.114 336.943 113.194 337.419 113.246C337.947 113.299 338.554 113.326 339.24 113.326C341.035 113.326 342.567 112.824 343.834 111.821C345.101 110.818 346.21 109.26 347.16 107.148Z" fill="white"/>
<path d="M410.143 97.8024C407.925 99.4392 405.602 100.68 403.173 101.525C400.797 102.317 398.184 102.713 395.332 102.713C392.481 102.713 389.788 102.185 387.254 101.129C384.772 100.073 382.608 98.6208 380.76 96.7728C378.964 94.9248 377.539 92.76 376.483 90.2784C375.427 87.744 374.899 85.0248 374.899 82.1208C374.899 79.2696 375.4 76.6032 376.404 74.1216C377.46 71.64 378.859 69.4752 380.601 67.6272C382.344 65.7792 384.403 64.3272 386.779 63.2712C389.208 62.2152 391.768 61.6872 394.461 61.6872C397.101 61.6872 399.556 62.2152 401.827 63.2712C404.15 64.3272 406.13 65.7792 407.767 67.6272C409.456 69.4752 410.776 71.64 411.727 74.1216C412.73 76.6032 413.232 79.2696 413.232 82.1208V83.9424H380.68C381.103 87.8496 382.713 91.0968 385.512 93.684C388.31 96.2712 391.663 97.5648 395.57 97.5648C397.629 97.5648 399.636 97.248 401.589 96.6144C403.543 95.9808 405.18 95.0832 406.5 93.9216L410.143 97.8024ZM394.303 66.8352C390.871 66.8352 387.888 67.9968 385.353 70.32C382.872 72.6432 381.367 75.6264 380.839 79.2696H407.371C406.843 75.7848 405.338 72.8544 402.856 70.4784C400.428 68.0496 397.576 66.8352 394.303 66.8352Z" fill="white"/>
<path d="M452.47 102V97.8024C450.78 99.3864 448.826 100.601 446.609 101.446C444.444 102.238 442.121 102.634 439.639 102.634C436.841 102.634 434.227 102.106 431.798 101.05C429.37 99.9936 427.258 98.568 425.462 96.7728C423.667 94.9248 422.242 92.7336 421.186 90.1992C420.182 87.6648 419.681 84.972 419.681 82.1208C419.681 79.2696 420.182 76.6032 421.186 74.1216C422.242 71.5872 423.667 69.4224 425.462 67.6272C427.258 65.7792 429.37 64.3272 431.798 63.2712C434.28 62.2152 436.92 61.6872 439.718 61.6872C441.989 61.6872 444.206 62.0832 446.371 62.8752C448.589 63.6144 450.595 64.7232 452.39 66.2016V46.56L458.251 45.2136V102H452.47ZM425.462 82.0416C425.462 84.2064 425.832 86.2392 426.571 88.14C427.363 90.0408 428.419 91.6776 429.739 93.0504C431.059 94.4232 432.617 95.5056 434.412 96.2976C436.207 97.0896 438.134 97.4856 440.194 97.4856C442.675 97.4856 444.972 97.0104 447.084 96.06C449.249 95.0568 451.018 93.684 452.39 91.9416V72.3C451.018 70.6104 449.249 69.2904 447.084 68.34C444.919 67.3368 442.622 66.8352 440.194 66.8352C436.075 66.8352 432.59 68.2872 429.739 71.1912C426.888 74.0952 425.462 77.712 425.462 82.0416Z" fill="white"/>
<path fill-rule="evenodd" clip-rule="evenodd" d="M3.18011 26.3038C3.04908 25.6823 3.09916 21.5227 3.15205 20.7952C3.9919 20.6756 4.72554 20.6975 5.4654 20.7197C5.63271 20.7247 5.80034 20.7297 5.96958 20.7331C6.30298 20.7397 6.70587 20.7272 7.14148 20.7137C8.58844 20.6689 10.3963 20.6128 11.2167 21.2105C12.7084 22.2971 12.8834 24.4395 11.4439 25.672C10.6602 26.343 9.74038 26.3596 8.70356 26.3351C7.71995 26.3119 6.76395 26.3143 5.80892 26.3167C4.93933 26.3188 4.06943 26.321 3.18011 26.3038ZM3.20389 17.5989C3.18299 17.5173 3.08314 12.7101 3.18653 12.0966C3.18943 12.0795 3.19345 12.0609 3.19723 12.0434C3.1994 12.0334 3.20148 12.0237 3.20323 12.015L3.24716 11.8542C3.70209 11.7914 6.83244 11.7764 7.20051 11.8813C10.0741 12.7001 9.95809 16.7076 7.38033 17.4254C6.44999 17.6844 5.21629 17.6483 4.15753 17.6173C3.81611 17.6073 3.49288 17.5978 3.20389 17.5989ZM0.632389 29.3375L0.542303 29.3286C0.446338 28.7805 0.332299 28.1941 0.199168 27.5676C-0.0334783 26.1551 -0.0098146 24.9473 0.0154406 23.6584C0.0216638 23.3409 0.0279831 23.0184 0.0305892 22.6867L0.0213973 13.0696C0.013153 11.2211 0.0101101 10.238 1.34793 9.24527C2.31506 8.52749 3.77884 8.60897 5.05411 8.67996C5.35675 8.6968 5.64876 8.71306 5.921 8.7179C7.86244 8.75245 8.66619 8.93961 9.93068 9.79899C11.0329 10.5481 11.9664 11.7633 12.3079 13.4974C12.6504 15.2358 12.3989 15.8352 12.0799 16.5951C11.9343 16.9419 11.7746 17.3222 11.651 17.8596C11.7596 17.9749 11.9812 18.097 12.2613 18.2514C12.7481 18.5197 13.4119 18.8856 13.9681 19.4827C16.3947 22.0883 15.9193 25.724 13.6527 27.9018C11.9339 29.5533 9.96404 29.4903 7.68996 29.4175L7.6844 29.4174C7.574 29.4138 7.46289 29.4103 7.35106 29.4069C6.47806 29.3806 5.5996 29.3985 4.71861 29.4165C3.35894 29.4442 1.99326 29.472 0.632389 29.3375Z" fill="white"/>
<path fill-rule="evenodd" clip-rule="evenodd" d="M55.8824 11.6616C58.1268 10.6757 60.4818 11.0617 62.1614 11.8676C64.0123 12.7557 64.9151 13.8359 66.0427 15.9757C67.057 17.9003 66.5043 20.9001 65.8087 22.2823C63.8233 26.2275 59.2445 27.8134 55.3063 25.882C51.5466 24.0382 49.8051 19.157 51.8115 15.4391C52.7415 13.7155 53.7156 12.6134 55.8824 11.6616ZM55.5935 8.47424C54.9038 8.84824 53.6856 8.9105 51.7508 10.5196C50.6814 11.4091 49.9671 12.359 49.2717 13.4852C46.3282 18.2521 48.0132 25.4071 53.4368 28.4286C62.2593 33.3436 72.2039 24.7266 69.2439 15.5868C67.929 11.5266 64.2292 8.54901 60.3949 8.09665C59.3223 7.97014 56.7133 7.86695 55.5935 8.47424Z" fill="white"/>
<path fill-rule="evenodd" clip-rule="evenodd" d="M122.787 19.1972C122.42 18.0548 123.503 15.0901 123.982 14.2774C126.097 10.6884 129.57 10.0782 132.062 13.5193C133.231 15.1326 133.648 16.9145 133.772 19.1569C133.226 19.3202 124.647 19.1621 122.787 19.1972ZM122.628 29.2795C122.821 28.7909 122.729 23.4437 122.725 22.4338C123.055 22.3487 133.344 22.3408 133.667 22.4369C133.854 23.0581 133.771 25.0894 133.774 25.8794C133.778 26.6536 133.659 28.7398 133.841 29.341C137.522 28.9506 136.826 25.8889 136.962 24.2286C137.05 23.1513 136.956 21.7539 136.962 20.6013C136.97 19.1665 137.063 18.3954 136.769 16.7836C135.931 12.2059 132.771 7.87314 128.023 8.10762C122.995 8.3559 120.254 13.1008 119.716 16.9727C119.539 18.2501 119.509 22.6601 119.543 24.0959C119.567 25.116 119.353 26.7961 119.943 27.7335C120.476 28.5783 121.533 29.4669 122.628 29.2795Z" fill="white"/>
<path fill-rule="evenodd" clip-rule="evenodd" d="M20.4864 19.1111C20.0704 16.7218 21.982 11.5552 25.7095 11.2076C29.902 10.8166 31.8036 17.4931 31.3989 19.025C30.7171 19.2629 24.6679 19.1141 23.1435 19.1452C22.2384 19.1636 21.2968 19.0441 20.4864 19.1111ZM20.3515 29.1996C20.4467 27.2698 20.4111 24.2836 20.3507 22.3889C20.6544 22.2502 30.919 22.231 31.354 22.3506C31.5485 23.0248 31.4105 24.9571 31.4175 25.7573C31.4252 26.6246 31.3319 28.5479 31.492 29.2803C34.55 28.937 34.7835 26.6693 34.6157 24.1266L34.6354 20.5206C34.6556 16.6369 34.2553 13.5019 31.4055 10.4614C29.9831 8.94385 28.2681 8.05077 25.7375 8.0204C22.966 7.98712 21.0124 9.76116 19.8108 11.1809C18.6322 12.5734 17.7086 14.7728 17.399 16.8939C17.0816 19.0687 17.2346 21.7039 17.2113 23.9826C17.1999 25.102 17.0328 26.6023 17.6141 27.6733C18.125 28.6145 19.2349 29.3125 20.3515 29.1996Z" fill="white"/>
<path fill-rule="evenodd" clip-rule="evenodd" d="M108.632 11.5607C110.815 10.4853 113.076 11.8559 113.827 13.5104C114.878 15.8242 113.568 17.9483 111.828 18.6954C107.109 20.7214 103.871 13.9069 108.632 11.5607ZM106.325 22.0632C106.783 22.1759 107.123 22.6627 107.62 23.1651C108.645 24.2033 112.908 28.5768 113.572 28.9624C114.795 29.672 116.046 29.3241 117.186 28.5563C116.923 27.6516 111.639 23.2175 111.185 22.134C116.911 21.001 118.593 15.4252 116.321 11.5488C113.278 6.35753 105.32 7.11146 103.438 13.2252C102.971 14.7404 103.199 22.2275 103.187 24.0782L103.183 28.6378C103.179 29.0378 103.071 29.2443 103.415 29.3033C103.838 29.3758 104.878 28.9038 105.152 28.667C106.903 27.1512 106.057 25.0135 106.325 22.0632Z" fill="white"/>
<path fill-rule="evenodd" clip-rule="evenodd" d="M101.671 29.2954C101.222 25.3157 97.7382 26.4483 95.2954 26.2406C94.7458 26.1938 92.7514 26.3952 92.4898 26.1801L92.4053 26.0459C92.3986 26.0285 92.3788 25.9952 92.3718 25.9731C92.2683 25.6502 92.3821 23.7122 92.3569 23.0684C92.3174 22.0573 92.3469 20.8636 92.3662 19.8596C93.5852 19.5632 97.8318 20.0611 98.5993 19.6715C98.4922 18.1039 97.5174 17.1569 96.4725 16.8169C95.3455 16.4501 93.0813 16.8041 92.4243 16.6114C92.3342 16.1817 92.2761 12.169 92.4531 11.7677L98.1184 11.7389C99.2365 11.7841 100.006 11.5528 100.723 10.9067C101.24 10.4398 101.799 9.52877 101.622 8.6152L97.6391 8.57072C97.1096 8.57287 96.6361 8.63994 96.1216 8.62817C91.7301 8.52742 89.0635 7.88681 89.2366 13.3807C89.3054 15.5623 89.0749 25.9633 89.3497 27.0999C90.0404 29.9574 93.6609 29.3986 96.0933 29.3589C97.059 29.3431 97.9081 29.4132 98.8674 29.3631C99.7145 29.3188 100.889 29.4931 101.671 29.2954Z" fill="white"/>
<path fill-rule="evenodd" clip-rule="evenodd" d="M88.212 8.6731L82.6097 8.63307C80.4545 8.63174 78.6764 9.00029 76.8138 9.97491C68.1347 14.5163 69.9055 26.8023 79.5508 29.0492C81.3761 29.4743 83.1127 29.29 85.0512 29.365C85.4768 29.3815 85.9545 29.3648 86.4089 29.3596C87.9535 29.3417 88.6106 29.8019 88.0102 28.2195C87.0207 25.612 84.0819 26.3456 82.2715 26.2375C78.6459 26.021 75.73 24.5297 74.5851 20.8454C73.4578 17.2179 75.6424 13.8674 78.9179 12.456C82.7686 10.7967 85.1037 12.8217 87.2612 10.9134C87.8144 10.4241 88.3097 9.60373 88.212 8.6731Z" fill="white"/>
<path fill-rule="evenodd" clip-rule="evenodd" d="M40.0051 11.6836C40.2633 12.7317 39.8458 27.9447 40.1481 29.2885C43.8525 28.7677 43.1052 25.8906 43.1798 23.943C43.2468 22.1953 43.063 12.0534 43.2423 11.8119C43.4099 11.5861 44.0083 11.6831 44.1881 11.6885C44.9277 11.7104 46.8218 11.7081 47.4007 11.4821C48.7093 10.971 49.432 9.87083 49.3927 8.59581C49.0328 8.47477 36.4554 8.47125 34.5804 8.49796C33.7712 8.50945 33.7035 8.55345 33.9616 9.43126C34.7968 12.2721 38.0106 11.5843 40.0051 11.6836Z" fill="white"/>
</g>
<defs>
<clipPath id="clip0">
<rect width="463" height="118" fill="white"/>
</clipPath>
</defs>
</svg>
