<svg width="463" height="118" viewBox="0 0 463 118" fill="none" xmlns="http://www.w3.org/2000/svg">
<g clip-path="url(#clip0)">
<path d="M3.09863 46.56H9.19703L42.5402 91.5456V46.56H48.3218V102H42.9362L8.88023 55.8264V102H3.09863V46.56Z" fill="white"/>
<path d="M92.8013 97.8024C90.5837 99.4392 88.2605 100.68 85.8317 101.525C83.4557 102.317 80.8421 102.713 77.9909 102.713C75.1397 102.713 72.4469 102.185 69.9125 101.129C67.4309 100.073 65.2661 98.6208 63.4181 96.7728C61.6229 94.9248 60.1973 92.76 59.1413 90.2784C58.0853 87.744 57.5573 85.0248 57.5573 82.1208C57.5573 79.2696 58.0589 76.6032 59.0621 74.1216C60.1181 71.64 61.5173 69.4752 63.2597 67.6272C65.0021 65.7792 67.0613 64.3272 69.4373 63.2712C71.8661 62.2152 74.4269 61.6872 77.1197 61.6872C79.7597 61.6872 82.2149 62.2152 84.4853 63.2712C86.8085 64.3272 88.7885 65.7792 90.4253 67.6272C92.1149 69.4752 93.4349 71.64 94.3853 74.1216C95.3885 76.6032 95.8901 79.2696 95.8901 82.1208V83.9424H63.3389C63.7613 87.8496 65.3717 91.0968 68.1701 93.684C70.9685 96.2712 74.3213 97.5648 78.2285 97.5648C80.2877 97.5648 82.2941 97.248 84.2477 96.6144C86.2013 95.9808 87.8381 95.0832 89.1581 93.9216L92.8013 97.8024ZM76.9613 66.8352C73.5293 66.8352 70.5461 67.9968 68.0117 70.32C65.5301 72.6432 64.0253 75.6264 63.4973 79.2696H90.0293C89.5013 75.7848 87.9965 72.8544 85.5149 70.4784C83.0861 68.0496 80.2349 66.8352 76.9613 66.8352Z" fill="white"/>
<path d="M115.13 102L97.9431 62.3208H104.438L117.981 94.3968L131.524 62.3208H137.781L120.674 102H115.13Z" fill="white"/>
<path d="M175.018 97.8024C172.8 99.4392 170.477 100.68 168.048 101.525C165.672 102.317 163.058 102.713 160.207 102.713C157.356 102.713 154.663 102.185 152.129 101.129C149.647 100.073 147.482 98.6208 145.634 96.7728C143.839 94.9248 142.414 92.76 141.358 90.2784C140.302 87.744 139.774 85.0248 139.774 82.1208C139.774 79.2696 140.275 76.6032 141.279 74.1216C142.335 71.64 143.734 69.4752 145.476 67.6272C147.219 65.7792 149.278 64.3272 151.654 63.2712C154.083 62.2152 156.643 61.6872 159.336 61.6872C161.976 61.6872 164.431 62.2152 166.702 63.2712C169.025 64.3272 171.005 65.7792 172.642 67.6272C174.331 69.4752 175.651 71.64 176.602 74.1216C177.605 76.6032 178.107 79.2696 178.107 82.1208V83.9424H145.555C145.978 87.8496 147.588 91.0968 150.387 93.684C153.185 96.2712 156.538 97.5648 160.445 97.5648C162.504 97.5648 164.51 97.248 166.464 96.6144C168.418 95.9808 170.054 95.0832 171.374 93.9216L175.018 97.8024ZM159.178 66.8352C155.746 66.8352 152.763 67.9968 150.228 70.32C147.747 72.6432 146.242 75.6264 145.714 79.2696H172.246C171.718 75.7848 170.213 72.8544 167.731 70.4784C165.302 68.0496 162.451 66.8352 159.178 66.8352Z" fill="white"/>
<path d="M186.3 102V62.3208H192.161V67.944C193.322 65.8848 194.854 64.3008 196.754 63.192C198.655 62.0304 200.82 61.4496 203.249 61.4496C203.988 61.4496 204.648 61.5024 205.229 61.608C205.81 61.6608 206.39 61.7928 206.971 62.004V67.3896C206.285 67.1784 205.598 67.02 204.912 66.9144C204.226 66.756 203.539 66.6768 202.853 66.6768C200.424 66.6768 198.286 67.3896 196.438 68.8152C194.59 70.188 193.164 72.1944 192.161 74.8344V102H186.3Z" fill="white"/>
<path d="M231.804 102V46.56H255.881C261.266 46.56 265.596 48.0384 268.87 50.9952C272.143 53.8992 273.78 57.7536 273.78 62.5584C273.78 67.3632 272.117 71.244 268.79 74.2008C265.517 77.1576 261.214 78.636 255.881 78.636H237.902V102H231.804ZM255.406 52.0248H237.902V73.3296H255.406C259.154 73.3296 262.138 72.3792 264.355 70.4784C266.573 68.5248 267.682 65.9112 267.682 62.6376C267.682 59.364 266.573 56.7768 264.355 54.876C262.138 52.9752 259.154 52.0248 255.406 52.0248Z" fill="white"/>
<path d="M287.835 45.2136V102H281.974V46.56L287.835 45.2136Z" fill="white"/>
<path d="M310.343 102.713C306.014 102.713 302.476 101.604 299.73 99.3864C297.038 97.1688 295.691 94.2912 295.691 90.7536C295.691 87.0576 297.117 84.1272 299.968 81.9624C302.819 79.7448 306.674 78.636 311.531 78.636C313.643 78.636 315.676 78.8736 317.63 79.3488C319.636 79.824 321.484 80.484 323.174 81.3288V76.1016C323.174 72.9336 322.276 70.5576 320.481 68.9736C318.686 67.3368 316.072 66.5184 312.64 66.5184C310.686 66.5184 308.706 66.8088 306.7 67.3896C304.746 67.9176 302.582 68.7888 300.206 70.0032L297.988 65.4888C300.839 64.116 303.479 63.1128 305.908 62.4792C308.337 61.8456 310.766 61.5288 313.194 61.5288C318.21 61.5288 322.065 62.7168 324.758 65.0928C327.503 67.4688 328.876 70.8744 328.876 75.3096V102H323.174V98.1192C321.378 99.6504 319.399 100.812 317.234 101.604C315.122 102.343 312.825 102.713 310.343 102.713ZM301.314 90.5952C301.314 92.8128 302.238 94.6344 304.086 96.06C305.987 97.4328 308.416 98.1192 311.373 98.1192C313.749 98.1192 315.914 97.7496 317.867 97.0104C319.821 96.2712 321.59 95.1096 323.174 93.5256V86.0808C321.537 84.972 319.768 84.18 317.867 83.7048C316.019 83.1768 313.96 82.9128 311.69 82.9128C308.522 82.9128 305.987 83.6256 304.086 85.0512C302.238 86.424 301.314 88.272 301.314 90.5952Z" fill="white"/>
<path d="M347.16 107.148L349.457 101.921L333.3 62.3208H339.795L352.625 94.872L366.485 62.3208H372.821L353.1 107.94C351.411 111.742 349.536 114.487 347.477 116.177C345.418 117.866 342.804 118.711 339.636 118.711C338.897 118.711 338.184 118.658 337.498 118.553C336.864 118.5 336.336 118.421 335.914 118.315V113.009C336.442 113.114 336.943 113.194 337.419 113.246C337.947 113.299 338.554 113.326 339.24 113.326C341.035 113.326 342.567 112.824 343.834 111.821C345.101 110.818 346.21 109.26 347.16 107.148Z" fill="white"/>
<path d="M410.143 97.8024C407.925 99.4392 405.602 100.68 403.173 101.525C400.797 102.317 398.184 102.713 395.332 102.713C392.481 102.713 389.788 102.185 387.254 101.129C384.772 100.073 382.608 98.6208 380.76 96.7728C378.964 94.9248 377.539 92.76 376.483 90.2784C375.427 87.744 374.899 85.0248 374.899 82.1208C374.899 79.2696 375.4 76.6032 376.404 74.1216C377.46 71.64 378.859 69.4752 380.601 67.6272C382.344 65.7792 384.403 64.3272 386.779 63.2712C389.208 62.2152 391.768 61.6872 394.461 61.6872C397.101 61.6872 399.556 62.2152 401.827 63.2712C404.15 64.3272 406.13 65.7792 407.767 67.6272C409.456 69.4752 410.776 71.64 411.727 74.1216C412.73 76.6032 413.232 79.2696 413.232 82.1208V83.9424H380.68C381.103 87.8496 382.713 91.0968 385.512 93.684C388.31 96.2712 391.663 97.5648 395.57 97.5648C397.629 97.5648 399.636 97.248 401.589 96.6144C403.543 95.9808 405.18 95.0832 406.5 93.9216L410.143 97.8024ZM394.303 66.8352C390.871 66.8352 387.888 67.9968 385.353 70.32C382.872 72.6432 381.367 75.6264 380.839 79.2696H407.371C406.843 75.7848 405.338 72.8544 402.856 70.4784C400.428 68.0496 397.576 66.8352 394.303 66.8352Z" fill="white"/>
<path d="M452.47 102V97.8024C450.78 99.3864 448.826 100.601 446.609 101.446C444.444 102.238 442.121 102.634 439.639 102.634C436.841 102.634 434.227 102.106 431.798 101.05C429.37 99.9936 427.258 98.568 425.462 96.7728C423.667 94.9248 422.242 92.7336 421.186 90.1992C420.182 87.6648 419.681 84.972 419.681 82.1208C419.681 79.2696 420.182 76.6032 421.186 74.1216C422.242 71.5872 423.667 69.4224 425.462 67.6272C427.258 65.7792 429.37 64.3272 431.798 63.2712C434.28 62.2152 436.92 61.6872 439.718 61.6872C441.989 61.6872 444.206 62.0832 446.371 62.8752C448.589 63.6144 450.595 64.7232 452.39 66.2016V46.56L458.251 45.2136V102H452.47ZM425.462 82.0416C425.462 84.2064 425.832 86.2392 426.571 88.14C427.363 90.0408 428.419 91.6776 429.739 93.0504C431.059 94.4232 432.617 95.5056 434.412 96.2976C436.207 97.0896 438.134 97.4856 440.194 97.4856C442.675 97.4856 444.972 97.0104 447.084 96.06C449.249 95.0568 451.018 93.684 452.39 91.9416V72.3C451.018 70.6104 449.249 69.2904 447.084 68.34C444.919 67.3368 442.622 66.8352 440.194 66.8352C436.075 66.8352 432.59 68.2872 429.739 71.1912C426.888 74.0952 425.462 77.712 425.462 82.0416Z" fill="white"/>
</g>
<defs>
<clipPath id="clip0">
<rect width="463" height="118" fill="white"/>
</clipPath>
</defs>
</svg>
