<svg width="600" height="343" viewBox="0 0 600 343" fill="none" xmlns="http://www.w3.org/2000/svg">
<path d="M14.9293 342.061C16.829 342.058 18.7052 341.635 20.4273 340.822C22.1209 340.063 23.6235 338.926 24.8228 337.495V337.495L21.5481 334.166C20.7444 335.148 19.7462 335.946 18.6183 336.51C17.5119 337.054 16.2972 337.332 15.068 337.324C14.0306 337.336 13.0014 337.138 12.0398 336.743C11.0782 336.348 10.2034 335.764 9.46593 335.024C8.75582 334.299 8.19476 333.439 7.81536 332.492C7.4086 331.487 7.20378 330.41 7.21291 329.324C7.20183 328.228 7.40083 327.139 7.79886 326.119C8.1704 325.171 8.72099 324.305 9.41971 323.571C10.1204 322.843 10.9585 322.265 11.884 321.872C12.8485 321.456 13.8865 321.245 14.9343 321.252C16.1978 321.247 17.4451 321.541 18.5771 322.111C19.747 322.707 20.7715 323.56 21.5761 324.608V324.608L24.9548 321.173C23.7669 319.71 22.2553 318.552 20.5429 317.793C18.783 316.968 16.868 316.539 14.9293 316.535C13.1977 316.524 11.4809 316.861 9.87857 317.527C8.36045 318.151 6.97432 319.065 5.79507 320.219C4.6311 321.374 3.70531 322.752 3.07164 324.273C2.41474 325.867 2.07512 327.578 2.07228 329.307C2.06945 331.035 2.40347 332.747 3.05513 334.344C3.6813 335.86 4.60126 337.232 5.76041 338.381C6.94021 339.534 8.32693 340.447 9.84556 341.071C11.4588 341.74 13.1868 342.076 14.9293 342.061V342.061ZM80.2538 342.098C81.9796 342.111 83.6906 341.774 85.2863 341.107C86.7978 340.484 88.173 339.565 89.3327 338.402C90.4925 337.238 91.4138 335.853 92.0438 334.327C92.7033 332.742 93.0432 331.038 93.0432 329.317C93.0432 327.597 92.7033 325.893 92.0438 324.308C91.4139 322.781 90.4926 321.397 89.3328 320.233C88.1731 319.07 86.7978 318.15 85.2863 317.528C82.0691 316.207 78.4715 316.207 75.2542 317.528C73.7427 318.15 72.3675 319.07 71.2077 320.233C70.048 321.397 69.1266 322.781 68.4968 324.308C67.8376 325.893 67.4981 327.597 67.4981 329.317C67.4981 331.038 67.8376 332.742 68.4968 334.327C69.1267 335.853 70.0481 337.238 71.2078 338.402C72.3675 339.565 73.7427 340.484 75.2542 341.107C76.8396 341.771 78.54 342.108 80.2554 342.096L80.2538 342.098ZM80.2538 337.39C79.2409 337.398 78.237 337.197 77.3036 336.798C76.3701 336.399 75.5267 335.812 74.825 335.071C74.1329 334.328 73.5888 333.456 73.2223 332.504C72.4407 330.447 72.4407 328.169 73.2223 326.113C73.5918 325.168 74.1358 324.303 74.825 323.564C75.5267 322.823 76.3701 322.236 77.3036 321.837C78.237 321.438 79.2409 321.237 80.2538 321.245C81.2963 321.237 82.3292 321.448 83.2875 321.865C84.2026 322.258 85.0292 322.837 85.7171 323.564C86.4064 324.303 86.9503 325.168 87.3198 326.113C88.1012 328.169 88.1012 330.447 87.3198 332.504C86.9534 333.456 86.4092 334.328 85.7171 335.071C85.0292 335.798 84.2026 336.376 83.2875 336.77C82.3296 337.186 81.2973 337.396 80.2554 337.388L80.2538 337.39ZM156.023 341.709V337.179H142.818V316.926H137.824V341.706L156.023 341.709ZM219.04 341.709V337.179H205.835V316.926H200.838V341.706L219.04 341.709ZM282.537 341.709V337.249H268.852V331.37H277.782V327.05H268.852V321.391H282.4V316.931H263.851V341.711L282.537 341.709ZM337.97 342.063C339.87 342.06 341.746 341.637 343.468 340.824C345.161 340.064 346.664 338.927 347.863 337.497V337.497L344.587 334.17C343.783 335.151 342.785 335.95 341.657 336.514C340.551 337.057 339.336 337.336 338.107 337.328C337.07 337.339 336.041 337.141 335.079 336.746C334.118 336.352 333.244 335.767 332.506 335.027C331.796 334.303 331.235 333.442 330.856 332.495C330.449 331.491 330.243 330.414 330.252 329.328C330.241 328.231 330.44 327.142 330.839 326.123C331.21 325.174 331.76 324.308 332.459 323.574C333.159 322.846 333.997 322.268 334.923 321.875C335.887 321.459 336.925 321.249 337.973 321.255C339.241 321.251 340.493 321.547 341.627 322.121C342.798 322.717 343.822 323.57 344.627 324.618V324.618L348.005 321.183C346.817 319.72 345.306 318.562 343.593 317.803C341.834 316.978 339.92 316.549 337.981 316.545C336.25 316.534 334.533 316.871 332.931 317.537C331.412 318.161 330.025 319.074 328.846 320.227C327.681 321.382 326.755 322.76 326.12 324.281C325.464 325.876 325.124 327.587 325.121 329.315C325.119 331.043 325.452 332.755 326.104 334.352C326.73 335.868 327.65 337.241 328.809 338.389C329.989 339.542 331.376 340.455 332.894 341.08C334.506 341.744 336.231 342.077 337.97 342.061V342.063ZM404.088 341.709V321.456H412.188V316.924H390.953V321.456H399.089V341.706L404.088 341.709ZM461.346 341.709V316.929H456.348V341.709H461.346ZM518.916 342.099C520.642 342.112 522.353 341.775 523.949 341.108C525.461 340.486 526.836 339.567 527.995 338.403C529.155 337.24 530.077 335.855 530.706 334.329C531.366 332.743 531.705 331.04 531.705 329.319C531.705 327.598 531.366 325.895 530.706 324.309C530.077 322.783 529.155 321.398 527.996 320.235C526.836 319.071 525.461 318.152 523.949 317.53C520.732 316.209 517.135 316.209 513.919 317.53C512.408 318.153 511.033 319.073 509.874 320.236C508.714 321.399 507.793 322.784 507.163 324.309C506.503 325.895 506.163 327.598 506.163 329.319C506.163 331.04 506.503 332.744 507.163 334.329C507.793 335.855 508.714 337.239 509.874 338.402C511.033 339.566 512.408 340.485 513.919 341.108C515.503 341.772 517.202 342.108 518.916 342.096V342.099ZM518.916 337.391C517.88 337.4 516.852 337.189 515.901 336.772C514.992 336.375 514.171 335.797 513.488 335.072C512.795 334.33 512.25 333.458 511.883 332.505C511.102 330.449 511.102 328.171 511.883 326.114C512.253 325.169 512.797 324.304 513.488 323.566C514.171 322.841 514.992 322.263 515.901 321.867C516.852 321.449 517.88 321.238 518.916 321.247C519.958 321.239 520.991 321.45 521.949 321.867C522.864 322.26 523.691 322.838 524.38 323.566C525.069 324.304 525.613 325.169 525.983 326.114C526.765 328.171 526.765 330.449 525.983 332.505C525.616 333.458 525.072 334.329 524.38 335.072C523.691 335.8 522.864 336.378 521.949 336.772C520.991 337.187 519.958 337.397 518.916 337.388V337.391ZM581.207 341.711V325.135L593.514 341.711H597.926V316.931H593.238V332.968L581.242 316.931H576.483V341.711H581.207Z" fill="white"/>
<g clip-path="url(#clip0_968_1945)">
<path d="M300 0H0V166.356L249.221 275.54L259.927 263.553L298.359 220.511C298.781 220.042 299.375 219.776 300 219.776C300.625 219.776 301.219 220.042 301.641 220.511L340.073 263.553L350.779 275.54L600 166.356V0H300ZM531.42 174.186L352.264 252.675L313.832 209.617C310.315 205.679 305.283 203.428 300 203.428C294.717 203.428 289.685 205.679 286.168 209.617L247.736 252.66L68.5804 174.186V119.281H300H531.42V174.186Z" fill="white"/>
<path d="M307.752 215.056C305.783 212.853 302.969 211.587 300.016 211.587C297.062 211.587 294.233 212.853 292.263 215.056L249.893 262.522L60.4219 179.516V111.107H539.594V179.516L350.122 262.522L307.752 215.056Z" fill="black"/>
<path d="M456.148 28.4123H473.794V96.3831H482.015V28.4123H500.05V20.1914H456.148V28.4123Z" fill="#FF0000"/>
<path d="M352.418 21.6918V28.4123V88.1622V95.4923V96.3831H387.474V88.1622H360.639V59.6704H383.817V51.4339H360.639V28.4123H387.474V20.1914H352.418V21.6918Z" fill="#FF0000"/>
<path d="M104.932 17.6582C91.3818 17.6582 80.4102 28.6454 80.4102 42.1802V95.7879H88.6467V66.796H121.233V95.8036H129.47V42.1958C129.454 28.6454 118.483 17.6582 104.932 17.6582ZM88.6467 58.5751V42.1802C88.6467 33.1779 95.9455 25.8791 104.932 25.8791C113.935 25.8791 121.233 33.1779 121.233 42.1802V58.5595H88.6467V58.5751Z" fill="#FF0000"/>
<path d="M246.267 17.6582C231.575 17.6582 219.65 29.5676 219.65 44.2745V95.8036H227.887V63.5139C232.669 68.0776 239.14 70.8908 246.267 70.8908C260.958 70.8908 272.883 58.9815 272.883 44.2745C272.883 29.5832 260.974 17.6582 246.267 17.6582ZM246.267 62.6543C236.108 62.6543 227.887 54.4178 227.887 44.2745C227.887 34.1312 236.123 25.8947 246.267 25.8947C256.426 25.8947 264.646 34.1312 264.646 44.2745C264.646 54.4178 256.426 62.6543 246.267 62.6543Z" fill="#FF0000"/>
<path d="M175.075 17.6582C160.384 17.6582 148.459 29.5676 148.459 44.2745V95.8036H156.695V44.2745C156.695 34.1156 164.932 25.8947 175.075 25.8947C185.219 25.8947 193.455 34.1312 193.455 44.2745V95.8036H201.692V44.2745C201.692 29.5832 189.782 17.6582 175.075 17.6582Z" fill="#FF0000"/>
<path d="M311.768 63.8421C324.521 63.8421 334.852 53.5113 334.852 40.758C334.852 28.0046 324.521 17.6738 311.768 17.6738C299.014 17.6738 288.684 28.0046 288.684 40.758C288.684 41.4613 288.715 42.1646 288.777 42.8523H288.684V96.3975H296.92V58.9971L327.194 96.3818H337.79L311.44 63.8265C311.533 63.8421 311.643 63.8421 311.768 63.8421ZM311.768 25.8947C319.973 25.8947 326.631 32.5527 326.631 40.758C326.631 48.9632 319.973 55.6212 311.768 55.6212C303.562 55.6212 296.904 48.9632 296.904 40.758C296.904 32.5527 303.562 25.8947 311.768 25.8947Z" fill="#FF0000"/>
<path d="M434.096 51.9018C429.72 50.1044 422.827 50.0888 417.607 47.0255C414.106 44.9781 411.793 41.1333 411.793 36.7728C411.793 30.1774 417.138 24.8478 423.718 24.8478C429.157 24.8478 433.737 28.4894 435.174 33.4595L442.52 29.5053C439.613 21.9721 432.299 16.627 423.734 16.627C412.606 16.627 403.572 25.6606 403.572 36.7885C403.572 45.4313 409.089 52.5894 416.638 55.6684C421.218 57.5282 428.657 58.3409 431.97 59.9664C436.909 62.3732 440.301 67.4527 440.301 73.3136C440.301 81.5189 433.643 88.1768 425.438 88.1768C417.623 88.1768 411.231 82.1597 410.621 74.5014L402.963 78.6431C405.37 88.8333 414.513 96.3977 425.438 96.3977C438.191 96.3977 448.522 86.0669 448.522 73.3136C448.506 63.6079 442.536 55.3558 434.096 51.9018Z" fill="#FF0000"/>
<path d="M544.922 17.6582C523.182 17.6582 505.553 35.2878 505.553 57.0278C505.553 78.7679 523.182 96.3975 544.922 96.3975C566.662 96.3975 584.292 78.7679 584.292 57.0278C584.292 35.2878 566.662 17.6582 544.922 17.6582ZM544.922 88.1609C527.73 88.1609 513.789 74.2198 513.789 57.0278C513.789 39.8359 527.73 25.8947 544.922 25.8947C562.114 25.8947 576.055 39.8359 576.055 57.0278C576.055 74.2198 562.114 88.1609 544.922 88.1609Z" fill="#FF0000"/>
<path d="M52.6531 51.6358C56.4823 48.0567 58.8735 42.9617 58.8735 37.3039C58.8735 26.4574 50.09 17.6738 39.2434 17.6738C28.4906 17.6738 19.7539 26.3323 19.6133 37.0539V37.3039V96.3975H21.27H27.8498H41.2127C54.388 96.3975 65.0626 85.7228 65.0626 72.5475C65.0314 63.5295 60.0301 55.6837 52.6531 51.6358ZM39.2434 25.8947C45.5419 25.8947 50.6526 31.0054 50.6526 37.3039C50.6526 43.6025 45.5419 48.7132 39.2434 48.7132H27.8498V37.3039C27.8342 31.0054 32.9449 25.8947 39.2434 25.8947ZM41.197 88.1609H27.8342V56.9341H39.2278H41.1814C49.8086 56.9341 56.7948 63.9203 56.7948 72.5475C56.8105 81.1747 49.8086 88.1609 41.197 88.1609Z" fill="#FF0000"/>
<path d="M206.71 186.53C229.575 186.53 248.127 167.994 248.127 145.113H165.293C165.293 167.994 183.845 186.53 206.71 186.53Z" fill="white"/>
<path d="M393.29 186.53C416.155 186.53 434.707 167.994 434.707 145.113H351.873C351.873 167.994 370.409 186.53 393.29 186.53Z" fill="white"/>
</g>
<defs>
<clipPath id="clip0_968_1945">
<rect width="600" height="275.54" fill="white"/>
</clipPath>
</defs>
</svg>
