<svg width="600" height="328" viewBox="0 0 600 328" fill="none" xmlns="http://www.w3.org/2000/svg">
<path d="M12.9465 327.244C14.8594 327.241 16.7487 326.816 18.4828 325.997C20.1882 325.232 21.7012 324.087 22.9089 322.647V322.647L19.6113 319.295C18.8021 320.283 17.7969 321.087 16.6612 321.655C15.5471 322.202 14.3239 322.483 13.0861 322.475C12.0416 322.486 11.0052 322.287 10.0369 321.889C9.06861 321.492 8.18769 320.903 7.44512 320.158C6.73007 319.428 6.1651 318.562 5.78306 317.609C5.37347 316.597 5.16722 315.513 5.17642 314.419C5.16526 313.315 5.36564 312.219 5.76644 311.192C6.14057 310.237 6.69499 309.365 7.39858 308.626C8.10416 307.892 8.94807 307.31 9.88002 306.915C10.8512 306.496 11.8964 306.284 12.9515 306.291C14.2239 306.286 15.4799 306.582 16.6196 307.156C17.7978 307.756 18.8294 308.615 19.6396 309.669V309.669L23.0418 306.212C21.8456 304.738 20.3235 303.572 18.5991 302.808C16.827 301.977 14.8987 301.545 12.9465 301.541C11.2028 301.53 9.47416 301.869 7.86063 302.539C6.33194 303.169 4.93617 304.089 3.74871 305.25C2.57664 306.413 1.6444 307.801 1.00633 309.332C0.344862 310.938 0.00287035 312.661 1.7991e-05 314.401C-0.00283437 316.142 0.333509 317.865 0.989705 319.473C1.62023 321 2.54659 322.382 3.71381 323.538C4.90182 324.7 6.29819 325.619 7.82739 326.248C9.45183 326.921 11.1919 327.259 12.9465 327.244V327.244ZM78.7256 327.281C80.4634 327.294 82.1863 326.955 83.7932 326.283C85.3151 325.657 86.6999 324.731 87.8677 323.559C89.0355 322.388 89.9633 320.993 90.5976 319.457C91.2618 317.86 91.604 316.145 91.604 314.412C91.604 312.679 91.2618 310.964 90.5976 309.368C89.9634 307.831 89.0356 306.436 87.8678 305.265C86.7 304.093 85.3152 303.167 83.7932 302.541C80.5535 301.211 76.9309 301.211 73.6912 302.541C72.1692 303.167 70.7844 304.093 69.6166 305.265C68.4487 306.436 67.521 307.831 66.8868 309.368C66.223 310.964 65.8811 312.679 65.8811 314.412C65.8811 316.145 66.223 317.86 66.8868 319.457C67.5211 320.993 68.4488 322.388 69.6166 323.559C70.7845 324.731 72.1692 325.657 73.6912 326.283C75.2877 326.952 76.9999 327.291 78.7272 327.28L78.7256 327.281ZM78.7256 322.54C77.7057 322.549 76.6948 322.346 75.7548 321.945C74.8149 321.543 73.9656 320.951 73.2591 320.205C72.5621 319.457 72.0142 318.579 71.6452 317.621C70.8581 315.55 70.8581 313.256 71.6452 311.185C72.0173 310.233 72.565 309.362 73.2591 308.619C73.9656 307.873 74.8149 307.281 75.7548 306.879C76.6948 306.478 77.7057 306.275 78.7256 306.284C79.7754 306.276 80.8154 306.488 81.7804 306.908C82.7019 307.304 83.5342 307.886 84.2269 308.619C84.921 309.362 85.4687 310.233 85.8408 311.185C86.6276 313.256 86.6276 315.55 85.8408 317.621C85.4718 318.579 84.9239 319.457 84.2269 320.205C83.5342 320.938 82.7018 321.52 81.7804 321.916C80.8158 322.335 79.7763 322.547 78.7272 322.539L78.7256 322.54ZM155.022 326.89V322.328H141.726V301.934H136.696V326.887L155.022 326.89ZM218.478 326.89V322.328H205.181V301.934H200.148V326.887L218.478 326.89ZM282.417 326.89V322.399H268.637V316.479H277.628V312.129H268.637V306.431H282.279V301.939H263.601V326.892L282.417 326.89ZM338.235 327.246C340.148 327.243 342.037 326.817 343.771 325.998C345.477 325.234 346.99 324.089 348.197 322.648V322.648L344.898 319.298C344.089 320.286 343.084 321.091 341.948 321.659C340.834 322.206 339.611 322.486 338.373 322.478C337.329 322.489 336.293 322.29 335.325 321.893C334.357 321.495 333.476 320.907 332.734 320.161C332.018 319.432 331.453 318.565 331.072 317.612C330.662 316.6 330.455 315.516 330.463 314.422C330.452 313.318 330.653 312.222 331.055 311.195C331.428 310.24 331.982 309.368 332.685 308.629C333.391 307.895 334.235 307.313 335.167 306.918C336.138 306.5 337.183 306.287 338.238 306.294C339.515 306.289 340.775 306.588 341.918 307.166C343.096 307.766 344.128 308.624 344.938 309.68V309.68L348.34 306.222C347.144 304.748 345.622 303.582 343.898 302.818C342.126 301.987 340.198 301.555 338.247 301.551C336.503 301.539 334.774 301.879 333.161 302.55C331.632 303.178 330.235 304.098 329.047 305.259C327.875 306.421 326.942 307.809 326.303 309.341C325.642 310.947 325.3 312.669 325.297 314.41C325.294 316.15 325.631 317.874 326.287 319.482C326.917 321.008 327.844 322.39 329.011 323.547C330.199 324.708 331.595 325.628 333.124 326.256C334.747 326.925 336.484 327.261 338.235 327.244V327.246ZM404.814 326.89V306.496H412.969V301.932H391.587V306.496H399.779V326.887L404.814 326.89ZM462.47 326.89V301.938H457.437V326.89H462.47ZM520.441 327.283C522.179 327.296 523.902 326.957 525.508 326.285C527.03 325.658 528.415 324.733 529.583 323.561C530.751 322.39 531.679 320.995 532.313 319.458C532.977 317.862 533.319 316.147 533.319 314.414C533.319 312.681 532.977 310.966 532.313 309.369C531.679 307.832 530.751 306.438 529.583 305.266C528.415 304.095 527.031 303.169 525.508 302.543C522.269 301.213 518.647 301.213 515.408 302.543C513.887 303.17 512.503 304.096 511.335 305.268C510.168 306.439 509.24 307.833 508.605 309.369C507.941 310.966 507.598 312.681 507.598 314.414C507.598 316.147 507.941 317.862 508.605 319.458C509.24 320.995 510.168 322.389 511.335 323.56C512.503 324.732 513.887 325.658 515.408 326.285C517.004 326.953 518.715 327.291 520.441 327.28V327.283ZM520.441 322.542C519.397 322.551 518.362 322.339 517.404 321.918C516.489 321.519 515.663 320.937 514.974 320.207C514.276 319.459 513.728 318.582 513.359 317.622C512.572 315.551 512.572 313.258 513.359 311.187C513.731 310.235 514.279 309.364 514.974 308.621C515.663 307.89 516.489 307.308 517.404 306.91C518.362 306.489 519.397 306.276 520.441 306.286C521.49 306.278 522.53 306.49 523.494 306.91C524.416 307.306 525.249 307.888 525.942 308.621C526.636 309.364 527.184 310.235 527.556 311.187C528.344 313.258 528.344 315.552 527.556 317.622C527.187 318.581 526.639 319.459 525.942 320.207C525.249 320.94 524.416 321.522 523.494 321.918C522.529 322.336 521.49 322.548 520.441 322.539V322.542ZM583.165 326.892V310.201L595.557 326.892H600V301.939H595.28V318.088L583.2 301.939H578.408V326.892H583.165Z" fill="white"/>
<path d="M88.6469 42.1804V58.5597H121.233V42.1804C121.233 33.1781 113.935 25.8793 104.932 25.8793C95.9457 25.8793 88.6469 33.1781 88.6469 42.1804Z" fill="white"/>
<path d="M246.266 62.6545C236.107 62.6545 227.886 54.418 227.886 44.2747C227.886 34.1314 236.123 25.8949 246.266 25.8949C256.425 25.8949 264.646 34.1314 264.646 44.2747C264.646 54.418 256.425 62.6545 246.266 62.6545Z" fill="white"/>
<path d="M311.767 25.8949C319.973 25.8949 326.631 32.5529 326.631 40.7581C326.631 48.9634 319.973 55.6214 311.767 55.6214C303.562 55.6214 296.904 48.9634 296.904 40.7581C296.904 32.5529 303.562 25.8949 311.767 25.8949Z" fill="white"/>
<path d="M544.922 88.1611C527.73 88.1611 513.789 74.22 513.789 57.028C513.789 39.8361 527.73 25.8949 544.922 25.8949C562.114 25.8949 576.055 39.8361 576.055 57.028C576.055 74.22 562.114 88.1611 544.922 88.1611Z" fill="white"/>
<path d="M50.6526 37.3041C50.6526 31.0056 45.5419 25.8949 39.2434 25.8949C32.9449 25.8949 27.8342 31.0056 27.8498 37.3041V48.7133H39.2434C45.5419 48.7133 50.6526 43.6026 50.6526 37.3041Z" fill="white"/>
<path d="M27.8342 88.1611H41.197C49.8086 88.1611 56.8105 81.1749 56.7948 72.5477C56.7948 63.9204 49.8086 56.9342 41.1814 56.9342H27.8342V88.1611Z" fill="white"/>
<path fill-rule="evenodd" clip-rule="evenodd" d="M600 0H0V166.356L249.221 275.54L298.359 220.511C298.781 220.042 299.375 219.776 300 219.776C300.625 219.776 301.219 220.042 301.641 220.511L350.779 275.54L600 166.356V0ZM307.752 215.054C305.783 212.851 302.969 211.585 300.016 211.585C297.062 211.585 294.233 212.851 292.263 215.054L249.893 262.52L60.4219 179.514V111.105H539.594V179.514L350.122 262.52L307.752 215.054ZM473.794 28.4114H456.149V20.1905H500.051V28.4114H482.015V96.3822H473.794V28.4114ZM352.419 96.3822H387.475V88.1613H360.64V59.6695H383.818V51.433H360.64V28.4114H387.475V20.1905H352.419V96.3822ZM80.4104 42.1804C80.4104 28.6456 91.382 17.6584 104.932 17.6584C118.483 17.6584 129.454 28.6456 129.47 42.196V95.8038H121.233V66.7962H88.6469V95.7881H80.4104V42.1804ZM246.266 17.6584C231.575 17.6584 219.65 29.5678 219.65 44.2747V95.8038H227.886V63.5141C232.669 68.0778 239.139 70.891 246.266 70.891C260.957 70.891 272.882 58.9817 272.882 44.2747C272.882 29.5834 260.973 17.6584 246.266 17.6584ZM148.459 44.2747C148.459 29.5678 160.384 17.6584 175.076 17.6584C189.783 17.6584 201.692 29.5834 201.692 44.2747V95.8038H193.456V44.2747C193.456 34.1314 185.219 25.8949 175.076 25.8949C164.932 25.8949 156.696 34.1158 156.696 44.2747V95.8038H148.459V44.2747ZM311.767 63.8423C324.521 63.8423 334.852 53.5114 334.852 40.7581C334.852 28.0048 324.521 17.674 311.767 17.674C299.014 17.674 288.683 28.0048 288.683 40.7581C288.683 41.4614 288.715 42.1647 288.777 42.8524H288.683V96.3976H296.92V58.9972L327.193 96.382H337.79L311.439 63.8266C311.533 63.8423 311.642 63.8423 311.767 63.8423ZM427.85 50.28C430.158 50.742 432.332 51.177 434.096 51.9018C442.536 55.3558 448.506 63.6079 448.522 73.3136C448.522 86.0669 438.191 96.3977 425.438 96.3977C414.513 96.3977 405.37 88.8333 402.963 78.6431L410.621 74.5014C411.231 82.1597 417.623 88.1768 425.438 88.1768C433.643 88.1768 440.301 81.5189 440.301 73.3136C440.301 67.4527 436.909 62.3732 431.971 59.9664C430.29 59.1419 427.548 58.5265 424.656 57.8775C421.846 57.247 418.895 56.5848 416.639 55.6684C409.09 52.5894 403.573 45.4313 403.573 36.7885C403.573 25.6606 412.606 16.627 423.734 16.627C432.299 16.627 439.613 21.9721 442.52 29.5053L435.175 33.4595C433.737 28.4894 429.157 24.8478 423.719 24.8478C417.139 24.8478 411.794 30.1774 411.794 36.7728C411.794 41.1333 414.107 44.9781 417.608 47.0255C420.723 48.8536 424.434 49.5963 427.85 50.28ZM544.922 17.6584C523.182 17.6584 505.552 35.288 505.552 57.028C505.552 78.7681 523.182 96.3977 544.922 96.3977C566.662 96.3977 584.292 78.7681 584.292 57.028C584.292 35.288 566.662 17.6584 544.922 17.6584ZM58.8735 37.3041C58.8735 42.9618 56.4823 48.0569 52.6531 51.6359C60.0301 55.6839 65.0314 63.5297 65.0626 72.5477C65.0626 85.723 54.388 96.3976 41.2127 96.3976H19.6133V37.054C19.7539 26.3325 28.4906 17.674 39.2434 17.674C50.09 17.674 58.8735 26.4575 58.8735 37.3041Z" fill="white"/>
<path d="M206.71 186.53C229.575 186.53 248.127 167.994 248.127 145.113H165.293C165.293 167.994 183.845 186.53 206.71 186.53Z" fill="white"/>
<path d="M393.29 186.53C416.155 186.53 434.707 167.994 434.707 145.113H351.873C351.873 167.994 370.409 186.53 393.29 186.53Z" fill="white"/>
</svg>
