<svg width="404" height="118" viewBox="0 0 404 118" fill="none" xmlns="http://www.w3.org/2000/svg">
<g clip-path="url(#clip0)">
<path d="M3.09863 102V46.56H9.19703V96.5352H42.2234V102H3.09863Z" fill="white"/>
<path d="M62.3019 102.713C57.9723 102.713 54.4347 101.604 51.6891 99.3864C48.9963 97.1688 47.6499 94.2912 47.6499 90.7536C47.6499 87.0576 49.0755 84.1272 51.9267 81.9624C54.7779 79.7448 58.6323 78.636 63.4899 78.636C65.6019 78.636 67.6347 78.8736 69.5883 79.3488C71.5947 79.824 73.4427 80.484 75.1323 81.3288V76.1016C75.1323 72.9336 74.2347 70.5576 72.4395 68.9736C70.6443 67.3368 68.0307 66.5184 64.5987 66.5184C62.6451 66.5184 60.6651 66.8088 58.6587 67.3896C56.7051 67.9176 54.5403 68.7888 52.1643 70.0032L49.9467 65.4888C52.7979 64.116 55.4379 63.1128 57.8667 62.4792C60.2955 61.8456 62.7243 61.5288 65.1531 61.5288C70.1691 61.5288 74.0235 62.7168 76.7163 65.0928C79.4619 67.4688 80.8347 70.8744 80.8347 75.3096V102H75.1323V98.1192C73.3371 99.6504 71.3571 100.812 69.1923 101.604C67.0803 102.343 64.7835 102.713 62.3019 102.713ZM53.2731 90.5952C53.2731 92.8128 54.1971 94.6344 56.0451 96.06C57.9459 97.4328 60.3747 98.1192 63.3315 98.1192C65.7075 98.1192 67.8723 97.7496 69.8259 97.0104C71.7795 96.2712 73.5483 95.1096 75.1323 93.5256V86.0808C73.4955 84.972 71.7267 84.18 69.8259 83.7048C67.9779 83.1768 65.9187 82.9128 63.6483 82.9128C60.4803 82.9128 57.9459 83.6256 56.0451 85.0512C54.1971 86.424 53.2731 88.272 53.2731 90.5952Z" fill="white"/>
<path d="M86.5866 96.5352L90.1506 92.7336C91.9458 94.4232 93.9522 95.7432 96.1698 96.6936C98.4402 97.5912 100.737 98.04 103.06 98.04C106.228 98.04 108.815 97.38 110.822 96.06C112.828 94.74 113.831 93.024 113.831 90.912C113.831 89.2224 113.224 87.9024 112.01 86.952C110.848 85.9488 109 85.2624 106.466 84.8928L99.5754 83.9424C95.6154 83.3616 92.6586 82.2 90.705 80.4576C88.8042 78.6624 87.8538 76.26 87.8538 73.2504C87.8538 69.924 89.253 67.1784 92.0514 65.0136C94.8498 62.796 98.4138 61.6872 102.743 61.6872C105.595 61.6872 108.287 62.1096 110.822 62.9544C113.409 63.7992 115.917 65.1192 118.346 66.9144L115.257 70.8744C113.039 69.396 110.875 68.2872 108.763 67.548C106.703 66.8088 104.591 66.4392 102.427 66.4392C99.7338 66.4392 97.5162 67.0464 95.7738 68.2608C94.0842 69.4752 93.2394 71.0592 93.2394 73.0128C93.2394 74.7024 93.8202 76.0224 94.9818 76.9728C96.1434 77.8704 98.0178 78.504 100.605 78.8736L107.495 79.824C111.455 80.352 114.412 81.54 116.366 83.388C118.372 85.1832 119.375 87.5856 119.375 90.5952C119.375 92.2848 118.953 93.8952 118.108 95.4264C117.316 96.9048 116.181 98.1984 114.703 99.3072C113.277 100.363 111.587 101.208 109.634 101.842C107.68 102.422 105.568 102.713 103.298 102.713C100.024 102.713 96.9354 102.185 94.0314 101.129C91.1802 100.02 88.6986 98.4888 86.5866 96.5352Z" fill="white"/>
<path d="M130.109 93.1296V67.3104H121.555V62.3208H130.109V52.2624L135.89 50.7576V62.3208H147.85V67.3104H135.89V91.6248C135.89 93.7368 136.366 95.268 137.316 96.2184C138.266 97.116 139.824 97.5648 141.989 97.5648C143.098 97.5648 144.074 97.4856 144.919 97.3272C145.817 97.1688 146.767 96.9048 147.77 96.5352V101.683C146.767 102.053 145.632 102.317 144.365 102.475C143.15 102.634 141.962 102.713 140.801 102.713C137.369 102.713 134.729 101.894 132.881 100.258C131.033 98.6208 130.109 96.2448 130.109 93.1296Z" fill="white"/>
<path d="M172.249 102V46.56H196.326C201.712 46.56 206.041 48.0384 209.315 50.9952C212.589 53.8992 214.225 57.7536 214.225 62.5584C214.225 67.3632 212.562 71.244 209.236 74.2008C205.962 77.1576 201.659 78.636 196.326 78.636H178.348V102H172.249ZM195.851 52.0248H178.348V73.3296H195.851C199.6 73.3296 202.583 72.3792 204.801 70.4784C207.018 68.5248 208.127 65.9112 208.127 62.6376C208.127 59.364 207.018 56.7768 204.801 54.876C202.583 52.9752 199.6 52.0248 195.851 52.0248Z" fill="white"/>
<path d="M228.28 45.2136V102H222.419V46.56L228.28 45.2136Z" fill="white"/>
<path d="M250.789 102.713C246.459 102.713 242.921 101.604 240.176 99.3864C237.483 97.1688 236.137 94.2912 236.137 90.7536C236.137 87.0576 237.562 84.1272 240.413 81.9624C243.265 79.7448 247.119 78.636 251.977 78.636C254.089 78.636 256.121 78.8736 258.075 79.3488C260.081 79.824 261.929 80.484 263.619 81.3288V76.1016C263.619 72.9336 262.721 70.5576 260.926 68.9736C259.131 67.3368 256.517 66.5184 253.085 66.5184C251.132 66.5184 249.152 66.8088 247.145 67.3896C245.192 67.9176 243.027 68.7888 240.651 70.0032L238.433 65.4888C241.285 64.116 243.925 63.1128 246.353 62.4792C248.782 61.8456 251.211 61.5288 253.64 61.5288C258.656 61.5288 262.51 62.7168 265.203 65.0928C267.949 67.4688 269.321 70.8744 269.321 75.3096V102H263.619V98.1192C261.824 99.6504 259.844 100.812 257.679 101.604C255.567 102.343 253.27 102.713 250.789 102.713ZM241.76 90.5952C241.76 92.8128 242.684 94.6344 244.532 96.06C246.433 97.4328 248.861 98.1192 251.818 98.1192C254.194 98.1192 256.359 97.7496 258.313 97.0104C260.266 96.2712 262.035 95.1096 263.619 93.5256V86.0808C261.982 84.972 260.213 84.18 258.313 83.7048C256.465 83.1768 254.405 82.9128 252.135 82.9128C248.967 82.9128 246.433 83.6256 244.532 85.0512C242.684 86.424 241.76 88.272 241.76 90.5952Z" fill="white"/>
<path d="M287.605 107.148L289.902 101.921L273.745 62.3208H280.24L293.07 94.872L306.93 62.3208H313.266L293.545 107.94C291.856 111.742 289.981 114.487 287.922 116.177C285.863 117.866 283.249 118.711 280.081 118.711C279.342 118.711 278.629 118.658 277.943 118.553C277.309 118.5 276.781 118.421 276.359 118.315V113.009C276.887 113.114 277.389 113.194 277.864 113.246C278.392 113.299 278.999 113.326 279.685 113.326C281.481 113.326 283.012 112.824 284.279 111.821C285.546 110.818 286.655 109.26 287.605 107.148Z" fill="white"/>
<path d="M350.588 97.8024C348.37 99.4392 346.047 100.68 343.618 101.525C341.242 102.317 338.629 102.713 335.778 102.713C332.926 102.713 330.234 102.185 327.699 101.129C325.218 100.073 323.053 98.6208 321.205 96.7728C319.41 94.9248 317.984 92.76 316.928 90.2784C315.872 87.744 315.344 85.0248 315.344 82.1208C315.344 79.2696 315.846 76.6032 316.849 74.1216C317.905 71.64 319.304 69.4752 321.046 67.6272C322.789 65.7792 324.848 64.3272 327.224 63.2712C329.653 62.2152 332.214 61.6872 334.906 61.6872C337.546 61.6872 340.002 62.2152 342.272 63.2712C344.595 64.3272 346.575 65.7792 348.212 67.6272C349.902 69.4752 351.222 71.64 352.172 74.1216C353.175 76.6032 353.677 79.2696 353.677 82.1208V83.9424H321.126C321.548 87.8496 323.158 91.0968 325.957 93.684C328.755 96.2712 332.108 97.5648 336.015 97.5648C338.074 97.5648 340.081 97.248 342.034 96.6144C343.988 95.9808 345.625 95.0832 346.945 93.9216L350.588 97.8024ZM334.748 66.8352C331.316 66.8352 328.333 67.9968 325.798 70.32C323.317 72.6432 321.812 75.6264 321.284 79.2696H347.816C347.288 75.7848 345.783 72.8544 343.302 70.4784C340.873 68.0496 338.022 66.8352 334.748 66.8352Z" fill="white"/>
<path d="M392.915 102V97.8024C391.225 99.3864 389.272 100.601 387.054 101.446C384.889 102.238 382.566 102.634 380.084 102.634C377.286 102.634 374.672 102.106 372.244 101.05C369.815 99.9936 367.703 98.568 365.908 96.7728C364.112 94.9248 362.687 92.7336 361.631 90.1992C360.628 87.6648 360.126 84.972 360.126 82.1208C360.126 79.2696 360.628 76.6032 361.631 74.1216C362.687 71.5872 364.112 69.4224 365.908 67.6272C367.703 65.7792 369.815 64.3272 372.244 63.2712C374.725 62.2152 377.365 61.6872 380.164 61.6872C382.434 61.6872 384.652 62.0832 386.816 62.8752C389.034 63.6144 391.04 64.7232 392.836 66.2016V46.56L398.696 45.2136V102H392.915ZM365.908 82.0416C365.908 84.2064 366.277 86.2392 367.016 88.14C367.808 90.0408 368.864 91.6776 370.184 93.0504C371.504 94.4232 373.062 95.5056 374.857 96.2976C376.652 97.0896 378.58 97.4856 380.639 97.4856C383.12 97.4856 385.417 97.0104 387.529 96.06C389.694 95.0568 391.463 93.684 392.836 91.9416V72.3C391.463 70.6104 389.694 69.2904 387.529 68.34C385.364 67.3368 383.068 66.8352 380.639 66.8352C376.52 66.8352 373.036 68.2872 370.184 71.1912C367.333 74.0952 365.908 77.712 365.908 82.0416Z" fill="white"/>
<path fill-rule="evenodd" clip-rule="evenodd" d="M3.18011 26.3038C3.04908 25.6823 3.09916 21.5227 3.15205 20.7952C3.9919 20.6756 4.72554 20.6975 5.4654 20.7197C5.63271 20.7247 5.80034 20.7297 5.96958 20.7331C6.30298 20.7397 6.70587 20.7272 7.14148 20.7137C8.58844 20.6689 10.3963 20.6128 11.2167 21.2105C12.7084 22.2971 12.8834 24.4395 11.4439 25.672C10.6602 26.343 9.74038 26.3596 8.70356 26.3351C7.71995 26.3119 6.76395 26.3143 5.80892 26.3167C4.93933 26.3188 4.06943 26.321 3.18011 26.3038ZM3.20389 17.5989C3.18299 17.5173 3.08314 12.7101 3.18653 12.0966C3.18943 12.0795 3.19345 12.0609 3.19723 12.0434C3.1994 12.0334 3.20148 12.0237 3.20323 12.015L3.24716 11.8542C3.70209 11.7914 6.83244 11.7764 7.20051 11.8813C10.0741 12.7001 9.95809 16.7076 7.38033 17.4254C6.44999 17.6844 5.21629 17.6483 4.15753 17.6173C3.81611 17.6073 3.49288 17.5978 3.20389 17.5989ZM0.632389 29.3375L0.542303 29.3286C0.446338 28.7805 0.332299 28.1941 0.199168 27.5676C-0.0334783 26.1551 -0.0098146 24.9473 0.0154406 23.6584C0.0216638 23.3409 0.0279831 23.0184 0.0305892 22.6867L0.0213973 13.0696C0.013153 11.2211 0.0101101 10.238 1.34793 9.24527C2.31506 8.52749 3.77884 8.60897 5.05411 8.67996C5.35675 8.6968 5.64876 8.71306 5.921 8.7179C7.86244 8.75245 8.66619 8.93961 9.93068 9.79899C11.0329 10.5481 11.9664 11.7633 12.3079 13.4974C12.6504 15.2358 12.3989 15.8352 12.0799 16.5951C11.9343 16.9419 11.7746 17.3222 11.651 17.8596C11.7596 17.9749 11.9812 18.097 12.2613 18.2514C12.7481 18.5197 13.4119 18.8856 13.9681 19.4827C16.3947 22.0883 15.9193 25.724 13.6527 27.9018C11.9339 29.5533 9.96404 29.4903 7.68996 29.4175L7.6844 29.4174C7.574 29.4138 7.46289 29.4103 7.35106 29.4069C6.47806 29.3806 5.5996 29.3985 4.71861 29.4165C3.35894 29.4442 1.99326 29.472 0.632389 29.3375Z" fill="white"/>
<path fill-rule="evenodd" clip-rule="evenodd" d="M55.8824 11.6616C58.1268 10.6757 60.4818 11.0617 62.1614 11.8676C64.0123 12.7557 64.9151 13.8359 66.0427 15.9757C67.057 17.9003 66.5043 20.9001 65.8087 22.2823C63.8233 26.2275 59.2445 27.8134 55.3063 25.882C51.5466 24.0382 49.8051 19.157 51.8115 15.4391C52.7415 13.7155 53.7156 12.6134 55.8824 11.6616ZM55.5935 8.47424C54.9038 8.84824 53.6856 8.9105 51.7508 10.5196C50.6814 11.4091 49.9671 12.359 49.2717 13.4852C46.3282 18.2521 48.0132 25.4071 53.4368 28.4286C62.2593 33.3436 72.2039 24.7266 69.2439 15.5868C67.929 11.5266 64.2292 8.54901 60.3949 8.09665C59.3223 7.97014 56.7133 7.86695 55.5935 8.47424Z" fill="white"/>
<path fill-rule="evenodd" clip-rule="evenodd" d="M122.787 19.1972C122.42 18.0548 123.503 15.0901 123.982 14.2774C126.097 10.6884 129.57 10.0782 132.062 13.5193C133.231 15.1326 133.648 16.9145 133.772 19.1569C133.226 19.3202 124.647 19.1621 122.787 19.1972ZM122.628 29.2795C122.821 28.7909 122.729 23.4437 122.725 22.4338C123.055 22.3487 133.344 22.3408 133.667 22.4369C133.854 23.0581 133.771 25.0894 133.774 25.8794C133.778 26.6536 133.659 28.7398 133.841 29.341C137.522 28.9506 136.826 25.8889 136.962 24.2286C137.05 23.1513 136.956 21.7539 136.962 20.6013C136.97 19.1665 137.063 18.3954 136.769 16.7836C135.931 12.2059 132.771 7.87314 128.023 8.10762C122.995 8.3559 120.254 13.1008 119.716 16.9727C119.539 18.2501 119.509 22.6601 119.543 24.0959C119.567 25.116 119.353 26.7961 119.943 27.7335C120.476 28.5783 121.533 29.4669 122.628 29.2795Z" fill="white"/>
<path fill-rule="evenodd" clip-rule="evenodd" d="M20.4864 19.1111C20.0704 16.7218 21.982 11.5552 25.7095 11.2076C29.902 10.8166 31.8036 17.4931 31.3989 19.025C30.7171 19.2629 24.6679 19.1141 23.1435 19.1452C22.2384 19.1636 21.2968 19.0441 20.4864 19.1111ZM20.3515 29.1996C20.4467 27.2698 20.4111 24.2836 20.3507 22.3889C20.6544 22.2502 30.919 22.231 31.354 22.3506C31.5485 23.0248 31.4105 24.9571 31.4175 25.7573C31.4252 26.6246 31.3319 28.5479 31.492 29.2803C34.55 28.937 34.7835 26.6693 34.6157 24.1266L34.6354 20.5206C34.6556 16.6369 34.2553 13.5019 31.4055 10.4614C29.9831 8.94385 28.2681 8.05077 25.7375 8.0204C22.966 7.98712 21.0124 9.76116 19.8108 11.1809C18.6322 12.5734 17.7086 14.7728 17.399 16.8939C17.0816 19.0687 17.2346 21.7039 17.2113 23.9826C17.1999 25.102 17.0328 26.6023 17.6141 27.6733C18.125 28.6145 19.2349 29.3125 20.3515 29.1996Z" fill="white"/>
<path fill-rule="evenodd" clip-rule="evenodd" d="M108.632 11.5607C110.815 10.4853 113.076 11.8559 113.827 13.5104C114.878 15.8242 113.568 17.9483 111.828 18.6954C107.109 20.7214 103.871 13.9069 108.632 11.5607ZM106.325 22.0632C106.783 22.1759 107.123 22.6627 107.62 23.1651C108.645 24.2033 112.908 28.5768 113.572 28.9624C114.795 29.672 116.046 29.3241 117.186 28.5563C116.923 27.6516 111.639 23.2175 111.185 22.134C116.911 21.001 118.593 15.4252 116.321 11.5488C113.278 6.35753 105.32 7.11146 103.438 13.2252C102.971 14.7404 103.199 22.2275 103.187 24.0782L103.183 28.6378C103.179 29.0378 103.071 29.2443 103.415 29.3033C103.838 29.3758 104.878 28.9038 105.152 28.667C106.903 27.1512 106.057 25.0135 106.325 22.0632Z" fill="white"/>
<path fill-rule="evenodd" clip-rule="evenodd" d="M101.671 29.2954C101.222 25.3157 97.7382 26.4483 95.2954 26.2406C94.7458 26.1938 92.7514 26.3952 92.4898 26.1801L92.4053 26.0459C92.3986 26.0285 92.3788 25.9952 92.3718 25.9731C92.2683 25.6502 92.3821 23.7122 92.3569 23.0684C92.3174 22.0573 92.3469 20.8636 92.3662 19.8596C93.5852 19.5632 97.8318 20.0611 98.5993 19.6715C98.4922 18.1039 97.5174 17.1569 96.4725 16.8169C95.3455 16.4501 93.0813 16.8041 92.4243 16.6114C92.3342 16.1817 92.2761 12.169 92.4531 11.7677L98.1184 11.7389C99.2365 11.7841 100.006 11.5528 100.723 10.9067C101.24 10.4398 101.799 9.52877 101.622 8.6152L97.6391 8.57072C97.1096 8.57287 96.6361 8.63994 96.1216 8.62817C91.7301 8.52742 89.0635 7.88681 89.2366 13.3807C89.3054 15.5623 89.0749 25.9633 89.3497 27.0999C90.0404 29.9574 93.6609 29.3986 96.0933 29.3589C97.059 29.3431 97.9081 29.4132 98.8674 29.3631C99.7145 29.3188 100.889 29.4931 101.671 29.2954Z" fill="white"/>
<path fill-rule="evenodd" clip-rule="evenodd" d="M88.212 8.6731L82.6097 8.63307C80.4545 8.63174 78.6764 9.00029 76.8138 9.97491C68.1347 14.5163 69.9055 26.8023 79.5508 29.0492C81.3761 29.4743 83.1127 29.29 85.0512 29.365C85.4768 29.3815 85.9545 29.3648 86.4089 29.3596C87.9535 29.3417 88.6106 29.8019 88.0102 28.2195C87.0207 25.612 84.0819 26.3456 82.2715 26.2375C78.6459 26.021 75.73 24.5297 74.5851 20.8454C73.4578 17.2179 75.6424 13.8674 78.9179 12.456C82.7686 10.7967 85.1037 12.8217 87.2612 10.9134C87.8144 10.4241 88.3097 9.60373 88.212 8.6731Z" fill="white"/>
<path fill-rule="evenodd" clip-rule="evenodd" d="M40.0051 11.6836C40.2633 12.7317 39.8458 27.9447 40.1481 29.2885C43.8525 28.7677 43.1052 25.8906 43.1798 23.943C43.2468 22.1953 43.063 12.0534 43.2423 11.8119C43.4099 11.5861 44.0083 11.6831 44.1881 11.6885C44.9277 11.7104 46.8218 11.7081 47.4007 11.4821C48.7093 10.971 49.432 9.87083 49.3927 8.59581C49.0328 8.47477 36.4554 8.47125 34.5804 8.49796C33.7712 8.50945 33.7035 8.55345 33.9616 9.43126C34.7968 12.2721 38.0106 11.5843 40.0051 11.6836Z" fill="white"/>
</g>
<defs>
<clipPath id="clip0">
<rect width="404" height="118" fill="white"/>
</clipPath>
</defs>
</svg>
