<svg width="120" height="81" viewBox="0 0 120 81" fill="none" xmlns="http://www.w3.org/2000/svg">
<path fill-rule="evenodd" clip-rule="evenodd" d="M14 4.5C14 2.29086 15.7909 0.5 18 0.5H102C104.209 0.5 106 2.29086 106 4.5V22.5C106 24.7091 104.209 26.5 102 26.5H18C15.7909 26.5 14 24.7091 14 22.5V4.5ZM18 2.5C16.8954 2.5 16 3.39543 16 4.5V22.5C16 23.6046 16.8954 24.5 18 24.5H102C103.105 24.5 104 23.6046 104 22.5V4.5C104 3.39543 103.105 2.5 102 2.5H18Z" fill="white"/>
<path d="M29.2856 8.27143C29.2856 7.84538 29.631 7.5 30.0571 7.5H31.9428C32.3688 7.5 32.7142 7.84538 32.7142 8.27143V18.7286C32.7142 19.1546 32.3688 19.5 31.9428 19.5H30.0571C29.631 19.5 29.2856 19.1546 29.2856 18.7286V8.27143Z" fill="white"/>
<path fill-rule="evenodd" clip-rule="evenodd" d="M25.7714 15.2142C25.3454 15.2142 25 14.8689 25 14.4428V12.5571C25 12.131 25.3454 11.7857 25.7714 11.7857H36.2286C36.6546 11.7857 37 12.131 37 12.5571V14.4428C37 14.8689 36.6546 15.2142 36.2286 15.2142H25.7714Z" fill="white"/>
<path fill-rule="evenodd" clip-rule="evenodd" d="M88 15.5C89.1046 15.5 90 14.6046 90 13.5C90 12.3954 89.1046 11.5 88 11.5C86.8954 11.5 86 12.3954 86 13.5C86 14.6046 86.8954 15.5 88 15.5ZM91 13.5C91 15.1569 89.6569 16.5 88 16.5C86.3431 16.5 85 15.1569 85 13.5C85 11.8431 86.3431 10.5 88 10.5C89.6569 10.5 91 11.8431 91 13.5Z" fill="white"/>
<path fill-rule="evenodd" clip-rule="evenodd" d="M80 15.5C81.1046 15.5 82 14.6046 82 13.5C82 12.3954 81.1046 11.5 80 11.5C78.8954 11.5 78 12.3954 78 13.5C78 14.6046 78.8954 15.5 80 15.5ZM83 13.5C83 15.1569 81.6569 16.5 80 16.5C78.3431 16.5 77 15.1569 77 13.5C77 11.8431 78.3431 10.5 80 10.5C81.6569 10.5 83 11.8431 83 13.5Z" fill="white"/>
<path fill-rule="evenodd" clip-rule="evenodd" d="M60 8.5C60.5523 8.5 61 8.05228 61 7.5C61 6.94772 60.5523 6.5 60 6.5C59.4477 6.5 59 6.94772 59 7.5C59 8.05228 59.4477 8.5 60 8.5ZM62 7.5C62 8.60457 61.1046 9.5 60 9.5C58.8954 9.5 58 8.60457 58 7.5C58 6.39543 58.8954 5.5 60 5.5C61.1046 5.5 62 6.39543 62 7.5Z" fill="white"/>
<path fill-rule="evenodd" clip-rule="evenodd" d="M60 14.5C60.5523 14.5 61 14.0523 61 13.5C61 12.9477 60.5523 12.5 60 12.5C59.4477 12.5 59 12.9477 59 13.5C59 14.0523 59.4477 14.5 60 14.5ZM62 13.5C62 14.6046 61.1046 15.5 60 15.5C58.8954 15.5 58 14.6046 58 13.5C58 12.3954 58.8954 11.5 60 11.5C61.1046 11.5 62 12.3954 62 13.5Z" fill="white"/>
<path fill-rule="evenodd" clip-rule="evenodd" d="M60 20.5C60.5523 20.5 61 20.0523 61 19.5C61 18.9477 60.5523 18.5 60 18.5C59.4477 18.5 59 18.9477 59 19.5C59 20.0523 59.4477 20.5 60 20.5ZM62 19.5C62 20.6046 61.1046 21.5 60 21.5C58.8954 21.5 58 20.6046 58 19.5C58 18.3954 58.8954 17.5 60 17.5C61.1046 17.5 62 18.3954 62 19.5Z" fill="white"/>
<path fill-rule="evenodd" clip-rule="evenodd" d="M21 20.5C21.5523 20.5 22 20.0523 22 19.5C22 18.9477 21.5523 18.5 21 18.5C20.4477 18.5 20 18.9477 20 19.5C20 20.0523 20.4477 20.5 21 20.5ZM23 19.5C23 20.6046 22.1046 21.5 21 21.5C19.8954 21.5 19 20.6046 19 19.5C19 18.3954 19.8954 17.5 21 17.5C22.1046 17.5 23 18.3954 23 19.5Z" fill="white"/>
<path fill-rule="evenodd" clip-rule="evenodd" d="M46 17.5C48.2091 17.5 50 15.7091 50 13.5C50 11.2909 48.2091 9.5 46 9.5C43.7909 9.5 42 11.2909 42 13.5C42 15.7091 43.7909 17.5 46 17.5ZM51 13.5C51 16.2614 48.7614 18.5 46 18.5C43.2386 18.5 41 16.2614 41 13.5C41 10.7386 43.2386 8.5 46 8.5C48.7614 8.5 51 10.7386 51 13.5Z" fill="white"/>
<path d="M95 6.5H97V8.5H95V6.5Z" fill="white"/>
<path d="M95 10.5H97V12.5H95V10.5Z" fill="white"/>
<path d="M95 14.5H97V16.5H95V14.5Z" fill="white"/>
<path d="M95 18.5H97V20.5H95V18.5Z" fill="white"/>
</svg>
