<svg width="797" height="98" viewBox="0 0 797 98" fill="none" xmlns="http://www.w3.org/2000/svg">
<path d="M183.06 26.3311L182.934 26.0807C181.18 22.9867 179.301 20.1857 177.296 17.6775C175.29 15.0844 172.448 12.4922 168.771 9.90117C164.259 6.64028 159.496 4.34107 154.482 3.00353C149.469 1.58096 144.789 0.869676 140.444 0.869676C134.093 0.869676 127.993 2.08227 122.145 4.50747C116.379 6.84868 111.282 10.235 106.853 14.6665C102.423 19.0151 98.9547 24.1159 96.4486 29.9689C93.9415 35.739 92.688 41.9689 92.688 48.6586C92.688 55.0964 93.8995 61.2838 96.3226 67.2208C98.8297 73.0738 102.256 78.2581 106.601 82.7736C111.03 87.2891 116.127 90.8429 121.893 93.435C127.743 95.9442 133.884 97.1988 140.318 97.1988C144.079 97.1988 147.881 96.7384 151.724 95.8177C155.652 94.898 159.454 93.477 163.13 91.5547C166.891 89.5473 170.443 86.9547 173.786 83.7767C177.127 80.5998 180.01 76.8371 182.433 72.4885H165.764C162.505 76.3353 158.661 79.3458 154.231 81.52C149.886 83.6933 145.29 84.7799 140.444 84.7799C136.016 84.7799 131.712 83.8602 127.534 82.0208C123.355 80.1815 119.679 77.5893 116.504 74.2445C113.328 70.8996 110.821 67.0534 108.982 62.7059C107.145 58.2744 106.227 53.634 106.227 48.7846C106.227 43.9342 107.103 39.3767 108.856 35.1122C110.612 30.7636 113.077 26.9589 116.253 23.698C119.428 20.4371 123.105 17.887 127.283 16.0476C131.545 14.2072 136.015 13.287 140.694 13.287C144.12 13.287 147.254 13.7468 150.096 14.6665C152.937 15.5873 155.402 16.7579 157.491 18.1783C159.663 19.5169 161.376 20.8135 162.63 22.0681C163.966 23.3216 165.261 24.6592 166.515 26.0807L166.767 26.3327L183.06 26.3311ZM282.579 49.0145C282.579 42.5054 281.359 36.3306 278.918 30.4901C276.478 24.5657 273.028 19.392 268.568 14.9689C264.193 10.4639 259.019 6.95944 253.045 4.4555C247.156 1.95262 240.803 0.701172 233.987 0.701172C227.004 0.701172 220.526 1.99461 214.553 4.58149C208.579 7.16731 203.404 10.7132 199.028 15.2193C194.653 19.7253 191.288 24.8991 188.932 30.7405C186.576 36.498 185.398 42.5059 185.398 48.7641C185.398 55.0235 186.618 61.0733 189.058 66.9137C191.498 72.7552 194.905 77.929 199.28 82.435C203.74 86.941 208.957 90.4875 214.93 93.0744C220.904 95.5773 227.256 96.8287 233.987 96.8287C240.719 96.8287 247.072 95.5773 253.045 93.0744C259.019 90.4875 264.193 86.941 268.568 82.435C273.028 77.929 276.478 72.7972 278.918 67.0397C281.358 61.2812 282.579 55.2728 282.579 49.0145ZM268.948 49.1405C268.948 52.8959 268.232 56.8592 266.801 61.0303C265.371 65.1195 263.184 68.9584 260.239 72.5468C257.378 76.0513 253.718 78.93 249.26 81.183C244.8 83.3531 239.709 84.4382 233.987 84.4382C228.265 84.4382 223.175 83.3531 218.716 81.183C214.341 79.014 210.682 76.1353 207.737 72.5468C204.792 68.9584 202.604 65.0781 201.175 60.9059C199.744 56.7337 199.028 52.6865 199.028 48.7641C199.028 44.9258 199.744 40.9206 201.175 36.7484C202.604 32.5762 204.75 28.6959 207.611 25.1075C210.556 21.5201 214.257 18.6413 218.716 16.4712C223.176 14.2182 228.266 13.0917 233.987 13.0917C239.541 13.0917 244.505 14.1768 248.88 16.3468C253.34 18.4329 257.042 21.2702 259.987 24.8586C262.932 28.3631 265.161 32.2429 266.675 36.498C268.19 40.6702 268.948 44.8844 268.948 49.1405ZM352.233 95.7437L325.7 60.9689C327.752 60.9689 330.23 60.5909 333.135 59.835C336.127 58.9951 339.118 57.5673 342.108 55.5516C345.184 53.5348 347.748 50.5946 349.8 46.7311C351.85 42.8676 352.875 38.0796 352.875 32.3673C352.875 28.2518 352.149 24.2203 350.697 20.2728C349.244 16.3243 347.065 13.0056 344.159 10.3169C341.425 7.79723 338.092 5.86548 334.162 4.52164C330.316 3.17781 325.231 2.5059 318.907 2.5059H289.552V95.7437H303.396V52.5263H303.653L334.929 95.7437H352.233ZM303.395 14.9799H318.009C321.769 14.9799 324.973 15.4838 327.622 16.4917C330.357 17.4996 332.536 18.8854 334.16 20.6492C335.868 22.329 337.107 24.1768 337.877 26.1925C338.646 28.2083 339.031 30.266 339.031 32.3657C339.031 36.5663 338.005 39.9683 335.954 42.572C333.989 45.0917 331.553 46.9395 328.647 48.1153C325.742 49.2072 322.965 49.9211 320.316 50.2571C317.666 50.509 315.188 50.635 312.881 50.635H303.395V14.9799ZM433.675 95.7437V2.50432H420.226V73.4397H419.976L375.146 2.5059H360.452V95.7437H373.9V23.6728H374.149L419.729 95.7437H433.675Z" fill="white"/>
<path d="M473.041 63.0422H521.553L535.467 95.5631H539.478L499.741 2.28473H494.853L455.115 95.5631H459.127L473.041 63.0422ZM497.233 5.81521L519.922 59.6383H474.669L497.233 5.81521ZM533.476 2.33716V5.73929H558.396V95.5631H562.114V5.73929H587.034V2.33716H533.476ZM589.393 48.951C589.393 55.7541 590.612 62.1372 593.052 68.1002C595.575 74.0621 599.066 79.2268 603.524 83.5942C607.981 87.8785 613.154 91.2385 619.041 93.6741C624.928 96.0241 631.194 97.1991 637.84 97.1991C644.484 97.1991 650.749 96.0241 656.636 93.6741C662.525 91.2385 667.698 87.8369 672.156 83.4695C676.612 79.102 680.06 73.9789 682.499 68.1002C685.023 62.1372 686.285 55.7541 686.285 48.951C686.285 42.148 685.023 35.7649 682.499 29.8019C680.06 23.8388 676.612 18.7157 672.156 14.4326C667.697 10.0652 662.523 6.70582 656.636 4.35458C650.749 1.91897 644.484 0.701172 637.84 0.701172C631.194 0.701172 624.928 1.91837 619.039 4.35277C613.153 6.70522 607.981 10.0652 603.524 14.4326C599.065 18.7157 595.574 23.8388 593.052 29.8019C590.612 35.7649 589.393 42.148 589.393 48.951ZM593.178 48.951C593.178 42.6517 594.313 36.7724 596.584 31.3131C598.939 25.7694 602.135 20.9826 606.172 16.9526C610.294 12.837 615.046 9.68735 620.43 7.50363C625.896 5.23554 631.699 4.1015 637.838 4.1015C643.978 4.1015 649.74 5.23554 655.123 7.50363C660.59 9.68735 665.342 12.837 669.379 16.9526C673.501 20.9838 676.697 25.7706 678.967 31.3131C681.322 36.7724 682.499 42.6517 682.499 48.951C682.499 55.2491 681.322 61.17 678.967 66.7137C676.697 72.173 673.501 76.9605 669.379 81.076C665.342 85.1073 660.59 88.2563 655.123 90.5232C649.74 92.7069 643.979 93.7988 637.84 93.7988C631.699 93.7988 625.896 92.7069 620.43 90.5232C615.046 88.2563 610.294 85.1073 606.172 81.076C602.135 76.9605 598.939 72.173 596.584 66.7137C594.313 61.17 593.178 55.2491 593.178 48.951ZM704.451 2.33897H698.395V95.5631H702.18V6.1171H702.433L746.462 95.5631H748.606L792.51 6.1171H792.763V95.5631H796.548V2.33897H790.619L747.597 89.5163L704.451 2.33897Z" fill="white"/>
<path fill-rule="evenodd" clip-rule="evenodd" d="M73.0645 2.61133H86.6543V95.7988H72.9043V70.2812H37.3857L17.4492 95.7988H0L72.9043 2.48633L73.0645 2.61133ZM48.1279 56.5312H72.9043V24.8184L48.1279 56.5312Z" fill="white"/>
</svg>
