<svg width="470" height="157" viewBox="0 0 470 157" fill="none" xmlns="http://www.w3.org/2000/svg">
<path d="M164.999 45.1367L149.795 60.3379V142.547L164.999 127.343V45.1367ZM187.522 55.0841H195.967L204.975 46.0755H187.708L173.068 60.7142V76.2925H168.752V85.4896H173.068V142.359L187.522 127.905V85.4896H196.342L205.725 76.2925H187.522V55.0841ZM125.208 76.2925L104.75 96.7508V127.719H123.519L142.475 108.764V76.2924L125.208 76.2925ZM120.517 87.5534L126.711 81.361V116.832L120.517 123.026V87.5534ZM340.488 46.0755L325.659 60.7142V76.2925H321.719L312.521 85.4896H325.659V141.982L340.488 127.155V85.4895H347.995L357.191 76.2924H340.488V46.0755ZM277.422 85.3019V93.3709L302.759 118.521H277.422V127.719H308.955L317.026 119.646V111.579L290.936 85.4894H303.698L312.894 76.2923H286.618L277.422 85.3019ZM229 76.2923H214.549L194.654 96.1848V127.718H229V118.521H210.045V104.632L229 85.8632L229 76.2923ZM219.241 85.4894L210.045 94.8742V85.4894H219.241ZM243.451 76.2923L234.632 85.1144V142.921L250.397 127.155V85.4894H257.152V127.719H272.92V76.2923L243.451 76.2923ZM12.9739 66.9064L22.3595 76.2923H38.1245L37.7485 143.296L53.3268 127.718H59.8955L59.5202 143.484L75.0985 127.718H81.855V142.921L97.4333 127.342V76.2923H114.514L124.084 66.9064H81.8549V118.521H75.2862V67.0939L59.8954 82.2983V118.521H53.3267V66.9064H12.9739ZM404.3 70.8478L390.223 84.9248V127.719H404.3V70.8478ZM427.384 85.4895H434.331V127.719H450.096V76.2924H420.628L411.808 85.1145V142.921L427.384 127.155L427.384 85.4895ZM382.902 76.2924H368.452L348.369 96.185V127.719H382.902V118.521H363.948V104.632L382.902 85.8633V76.2924ZM363.948 85.4895H373.144L363.948 94.8744V85.4895ZM404.3 61.6526V47.0139L390.223 60.9037V75.541L404.3 61.6526Z" fill="#9A1D11"/>
<path d="M214.549 76.2906L194.654 96.1829V127.717H229V118.52H210.045V104.63L229 85.8616V76.2906H214.549ZM173.068 60.7126V76.291H168.752V85.488H173.068V142.357L187.522 127.903V85.488H196.342L205.725 76.291H187.522V55.0823H195.966L204.975 46.0739H187.708L173.068 60.7126ZM125.208 76.291L104.75 96.749V127.717H123.52L142.475 108.762V76.2906L125.208 76.291ZM382.902 118.52H363.948V104.63L382.902 85.8616V76.2906H368.452L348.369 96.1833V127.717H382.902V118.52ZM126.71 116.83L120.517 123.025V87.5516L126.71 81.3594V116.83ZM215.13 106.751V113.434H229.547V92.4756L215.13 106.751ZM369.033 106.751V113.434H385.138V90.8039L369.033 106.751ZM278.005 113.434H290.418L278.005 101.113V113.434ZM320.574 107.933V90.5732H303.214L320.574 107.933ZM210.045 94.8726V85.4876H219.241L210.045 94.8726ZM363.948 94.8726V85.4876H373.143L363.948 94.8726ZM102.518 91.7891L112.932 81.3758H102.518V91.7891ZM192.607 91.0389L193.073 90.5732H192.607V91.0389ZM308.955 127.717L317.026 119.645V111.577L290.936 85.4876H303.698L312.894 76.2906H286.618L277.422 85.3001V93.3691L302.759 118.52H277.422V127.717H308.955ZM404.3 127.717V70.8459L390.223 84.923V127.717H404.3ZM243.451 76.2906L234.632 85.1125V142.919L250.397 127.153V85.4876H257.152V127.717H272.92V76.2906H243.451ZM420.628 76.2906L411.808 85.1129V142.919L427.384 127.153L427.383 85.4876H434.331V127.717H450.096V76.2906H420.628ZM12.9739 66.9048L22.3596 76.2906H38.1244L37.7485 143.294L53.3269 127.717H59.8954L59.5203 143.483L75.0987 127.717H81.8551V142.919L97.4331 127.341V76.2906H114.514L124.084 66.9048H81.8548V118.52H75.2862V67.0924L59.8954 82.2964V118.52H53.3265V66.9048H12.9739ZM58.4117 76.6138L80.3714 54.9203V61.8196H136.531L126.961 71.2054H129.674H131.796H144.71V58.2296L170.084 32.8594V56.5052L185.602 40.9887H217.252L198.073 60.1675H192.607V71.2058H212.442L212.443 71.2054H234.085V78.4668L241.344 71.2054H278.005V77.6096L284.543 71.2054H320.574V58.5868L345.573 33.908V71.2054H385.138V58.7755L409.385 34.8504V63.7774L409.385 80.344L418.521 71.2054H455.182V132.802H429.246V132.504L406.723 155.302V132.802H343.284V131.548L320.574 154.257V123.288L311.061 132.802H252.067V132.675L229.547 155.196V132.802H189.815L167.983 154.634V131.548L144.71 154.823V113.719L125.626 132.802H117.931H115.431H99.6648V132.301L76.7699 155.196V133.26L54.1314 156.171L54.6697 133.565L32.5938 155.639L33.0106 81.3758H20.2533L0.69751 61.8196H58.4117V76.6138ZM390.223 75.5392L404.3 61.6508V47.0121L390.223 60.9021V75.5392ZM325.659 76.2906H321.719L312.521 85.488H325.659V141.981L340.487 127.153V85.4876H347.995L357.191 76.2906H340.487V46.0736L325.659 60.7126V76.2906ZM149.795 142.546L164.999 127.341V45.135L149.795 60.3363V142.546Z" fill="white"/>
<path d="M469.302 76.1583H468.596V71.5799L467.118 74.6953H466.698L465.23 71.5799V76.1583H464.57V70.8457H465.534L466.95 73.8041L468.321 70.8457H469.302V76.1583ZM463.83 71.4738H461.931V76.1583H461.225V71.4738H459.326V70.8457H463.83V71.4738Z" fill="white"/>
<path d="M408.65 13.9315V16.3652H389.67V0H397.086V13.9315H408.65Z" fill="white"/>
<path d="M358.014 1.93749H346.233V7.32219H358.014V16.3652H339.034V13.9975H350.815V9.25723H339.034V0H358.014V1.93749Z" fill="white"/>
<path fill-rule="evenodd" clip-rule="evenodd" d="M323.978 9.37985V23.2773L331.398 16.3653V0H312.197V16.3653H319.399V9.37985H323.978ZM323.978 7.85508V1.96313H319.399V7.85508H323.978Z" fill="white"/>
<path d="M304.161 0V2.18235L292.597 2.18234V13.9638H304.161V16.3653H285.177V0H304.161Z" fill="white"/>
<path fill-rule="evenodd" clip-rule="evenodd" d="M267.561 0H248.799V16.3653H267.561V0ZM259.925 13.9638V2.18235H255.997V13.9638H259.925Z" fill="white"/>
<path d="M196.855 0H203.837L203.834 16.3711L196.852 23.3086L196.855 6.54455L192.056 1.96313L192.053 16.3586L184.854 16.4023L184.857 0H192.056L196.855 4.79939V0Z" fill="white"/>
<path d="M141.818 0H149.234L149.234 16.3653H130.253V0H137.235V14.183H141.818V0Z" fill="white"/>
<path d="M103.417 1.96316H109.09V23.3212L116.508 16.3602V1.96316H122.4V0H103.417V1.96316Z" fill="white"/>
<path d="M365.517 1.96316H371.19V23.3212L378.608 16.3602V1.96316H384.5V0H365.517V1.96316Z" fill="white"/>
<path d="M221.917 1.96316H227.59V23.3212L235.008 16.3602V1.96316H240.9V0H221.917V1.96316Z" fill="white"/>
<path d="M85.8189 1.96316H97.3811V0H78.6177V16.3653H97.3811V14.3997H85.8189V9.6003H97.3811V7.41918H85.8189V1.96316Z" fill="white"/>
<path d="M421.887 1.96316H433.449V0H414.686V16.3653H433.449V14.3997H421.887V9.6003H433.449V7.41918H421.887V1.96316Z" fill="white"/>
<path fill-rule="evenodd" clip-rule="evenodd" d="M70.7647 11.5622L67.491 8.509L70.7647 5.23686V0H52.0012V16.368L58.3282 16.3653V9.81951H63.5659V23.3289L70.7647 16.2773V11.5622ZM63.5659 2.18237H58.3282V7.41922H63.5659V2.18237Z" fill="white"/>
<path fill-rule="evenodd" clip-rule="evenodd" d="M177.351 11.5622L174.077 8.509L177.351 5.23686V0H158.587V16.368L164.914 16.3653V9.81951H170.152V23.3289L177.351 16.3398V11.5622ZM170.152 2.18237H164.914V7.41922H170.152V2.18237Z" fill="white"/>
</svg>
