<svg width="470" height="157" viewBox="0 0 470 157" fill="none" xmlns="http://www.w3.org/2000/svg">
<path d="M214.549 77.1207L194.654 97.013V128.547H229V119.35H210.045V105.46L229 86.6917V77.1207H214.549ZM173.068 61.5427V77.121H168.752V86.3181H173.068V143.187L187.522 128.734V86.3181H196.342L205.725 77.121H187.522V55.9124H195.966L204.975 46.904H187.708L173.068 61.5427ZM125.208 77.121L104.75 97.5791V128.547H123.52L142.475 109.592V77.1207L125.208 77.121ZM382.902 119.35H363.948V105.46L382.902 86.6917V77.1207H368.452L348.369 97.0134V128.547H382.902V119.35ZM126.71 117.66L120.517 123.855V88.3817L126.71 82.1894V117.66ZM215.13 107.581V114.265H229.547V93.3057L215.13 107.581ZM369.033 107.581V114.265H385.138V91.634L369.033 107.581ZM278.005 114.265H290.418L278.005 101.943V114.265ZM320.574 108.763V91.4033H303.214L320.574 108.763ZM210.045 95.7027V86.3177H219.241L210.045 95.7027ZM363.948 95.7027V86.3177H373.143L363.948 95.7027ZM102.518 92.6192L112.932 82.2059H102.518V92.6192ZM192.607 91.869L193.073 91.4033H192.607V91.869ZM308.955 128.547L317.026 120.475V112.407L290.936 86.3177H303.698L312.894 77.1207H286.618L277.422 86.1302V94.1992L302.759 119.35H277.422V128.547H308.955ZM404.3 128.547V71.676L390.223 85.7531V128.547H404.3ZM243.451 77.1207L234.632 85.9426V143.749L250.397 127.983V86.3177H257.152V128.547H272.92V77.1207H243.451ZM420.628 77.1207L411.808 85.943V143.749L427.384 127.983L427.383 86.3177H434.331V128.547H450.096V77.1207H420.628ZM12.9739 67.7349L22.3596 77.1207H38.1244L37.7485 144.124L53.3269 128.547H59.8954L59.5203 144.313L75.0987 128.547H81.8551V143.749L97.4331 128.171V77.1207H114.514L124.084 67.7349H81.8548V119.35H75.2862V67.9225L59.8954 83.1265V119.35H53.3265V67.7349H12.9739ZM58.4117 77.4438L80.3714 55.7504V62.6497H136.531L126.961 72.0355H129.674H131.796H144.71V59.0597L170.084 33.6895V57.3353L185.602 41.8188H217.252L198.073 60.9976H192.607V72.0358H212.442L212.443 72.0355H234.085V79.2969L241.344 72.0355H278.005V78.4397L284.543 72.0355H320.574V59.4168L345.573 34.738V72.0355H385.138V59.6055L409.385 35.6804V64.6075L409.385 81.1741L418.521 72.0355H455.182V133.632H429.246V133.334L406.723 156.132V133.632H343.284V132.378L320.574 155.087V124.118L311.061 133.632H252.067V133.505L229.547 156.026V133.632H189.815L167.983 155.464V132.378L144.71 155.653V114.549L125.626 133.632H117.931H115.431H99.6648V133.131L76.7699 156.026V134.09L54.1314 157.001L54.6697 134.395L32.5938 156.47L33.0106 82.2059H20.2533L0.69751 62.6497H58.4117V77.4438ZM390.223 76.3693L404.3 62.4809V47.8422L390.223 61.7321V76.3693ZM325.659 77.1207H321.719L312.521 86.3181H325.659V142.811L340.487 127.983V86.3177H347.995L357.191 77.1207H340.487V46.9036L325.659 61.5427V77.1207ZM149.795 143.376L164.999 128.171V45.9651L149.795 61.1664V143.376Z" fill="white"/>
<path d="M469.302 76.9884H468.596V72.41L467.118 75.5254H466.698L465.23 72.41V76.9884H464.57V71.6758H465.534L466.95 74.6342L468.321 71.6758H469.302V76.9884ZM463.83 72.3039H461.931V76.9884H461.225V72.3039H459.326V71.6758H463.83V72.3039Z" fill="white"/>
<path d="M408.65 14.7615V17.1953H389.67V0.830078H397.086V14.7615H408.65Z" fill="white"/>
<path d="M358.014 2.76757H346.233V8.15227H358.014V17.1953H339.034V14.8276H350.815V10.0873H339.034V0.830078H358.014V2.76757Z" fill="white"/>
<path fill-rule="evenodd" clip-rule="evenodd" d="M323.978 10.2099V24.1074L331.398 17.1954V0.830078H312.197V17.1954H319.399V10.2099H323.978ZM323.978 8.68516V2.79321H319.399V8.68516H323.978Z" fill="white"/>
<path d="M304.161 0.830078V3.01243L292.597 3.01242V14.7938H304.161V17.1954H285.177V0.830078H304.161Z" fill="white"/>
<path fill-rule="evenodd" clip-rule="evenodd" d="M267.561 0.830078H248.799V17.1954H267.561V0.830078ZM259.925 14.7939V3.01243H255.997V14.7939H259.925Z" fill="white"/>
<path d="M196.855 0.830078H203.837L203.834 17.2012L196.852 24.1387L196.855 7.37463L192.056 2.79321L192.053 17.1887L184.854 17.2324L184.857 0.830078H192.056L196.855 5.62946V0.830078Z" fill="white"/>
<path d="M141.818 0.830078H149.234L149.234 17.1954H130.253V0.830078H137.235V15.0131H141.818V0.830078Z" fill="white"/>
<path d="M103.417 2.79324H109.09V24.1512L116.508 17.1903V2.79324H122.4V0.830078H103.417V2.79324Z" fill="white"/>
<path d="M365.517 2.79324H371.19V24.1512L378.608 17.1903V2.79324H384.5V0.830078H365.517V2.79324Z" fill="white"/>
<path d="M221.917 2.79324H227.59V24.1512L235.008 17.1903V2.79324H240.9V0.830078H221.917V2.79324Z" fill="white"/>
<path d="M85.8189 2.79324H97.3811V0.830078H78.6177V17.1954H97.3811V15.2298H85.8189V10.4304H97.3811V8.24926H85.8189V2.79324Z" fill="white"/>
<path d="M421.887 2.79324H433.449V0.830078H414.686V17.1954H433.449V15.2298H421.887V10.4304H433.449V8.24926H421.887V2.79324Z" fill="white"/>
<path fill-rule="evenodd" clip-rule="evenodd" d="M70.7647 12.3923L67.491 9.33907L70.7647 6.06694V0.830078H52.0012V17.1981L58.3282 17.1954V10.6496H63.5659V24.159L70.7647 17.1074V12.3923ZM63.5659 3.01245H58.3282V8.2493H63.5659V3.01245Z" fill="white"/>
<path fill-rule="evenodd" clip-rule="evenodd" d="M177.351 12.3923L174.077 9.33907L177.351 6.06694V0.830078H158.587V17.1981L164.914 17.1954V10.6496H170.152V24.159L177.351 17.1699V12.3923ZM170.152 3.01245H164.914V8.2493H170.152V3.01245Z" fill="white"/>
</svg>
