<svg width="566" height="161" viewBox="0 0 566 161" fill="none" xmlns="http://www.w3.org/2000/svg">
<path d="M86.6564 37.2564L80.4947 40.885L87.6455 40.885L106.821 40.8851L75.0752 108.964L49.8476 54.8628L49.3228 53.7374H48.0811H6.99878H3.93928L5.23228 56.5103L52.1603 157.148L52.6851 158.273H53.9268H96.2236H97.4653L97.9901 157.148L152.204 40.8851L171.898 40.885L176.051 40.885L173.397 37.6906L145.724 4.37153L144.664 3.09587L143.235 3.93736L86.6564 37.2564Z" fill="black" stroke="white" stroke-width="3.89823"/>
<path d="M142.726 14.6197L113.255 31.9749L120.879 31.9749L66.1399 149.363H91.8615L146.6 31.9749L157.14 31.9749L142.726 14.6197Z" fill="#1CA2D5"/>
<path d="M71.2721 121.733L43.7202 62.6471H17.9985L58.4113 149.313L71.2721 121.733Z" fill="#1CA2D5"/>
<path d="M15.2564 40.5118C14.9618 40.2571 14.6104 40.1279 14.186 40.1279H8.86707C7.19595 40.1279 5.99619 40.4245 5.22106 40.9717C4.46504 41.5054 4.07495 42.3048 4.07495 43.4228C4.07495 44.5403 4.46501 45.3394 5.22102 45.8729C5.99615 46.4199 7.19593 46.7164 8.86707 46.7164H11.3257C11.6829 46.7164 11.9937 46.7571 12.2257 46.8669C12.3457 46.9237 12.4557 47.0041 12.5355 47.1174C12.6172 47.2333 12.6545 47.3659 12.6545 47.503C12.6545 47.639 12.6182 47.7709 12.5382 47.8868C12.4598 48.0003 12.3512 48.0815 12.2322 48.1389C12.0023 48.2499 11.695 48.2908 11.3433 48.2908H5.57005C5.1455 48.2908 4.79351 48.4197 4.49807 48.6737C4.20695 48.9246 4.07495 49.211 4.07495 49.5474C4.07495 49.8834 4.20664 50.1701 4.49716 50.4216C4.79229 50.6708 5.14462 50.7978 5.57005 50.7978H11.0709C12.7424 50.7974 13.9426 50.5006 14.7179 49.9534C15.4742 49.4196 15.8643 48.6205 15.8643 47.503C15.8643 46.3854 15.4743 45.5863 14.7185 45.0528C13.9436 44.5058 12.7442 44.2094 11.0735 44.2094H8.61355C8.25639 44.2094 7.94557 44.1686 7.71355 44.0588C7.59359 44.0021 7.48356 43.9216 7.40379 43.8084C7.32211 43.6924 7.28479 43.5599 7.28479 43.4228C7.28479 43.2868 7.32096 43.155 7.40092 43.0391C7.47924 42.9255 7.58771 42.8443 7.70663 42.7868C7.93633 42.6758 8.2434 42.6349 8.59473 42.6349H14.186C14.6105 42.6349 14.9619 42.5061 15.2564 42.2523C15.548 41.9995 15.6798 41.7124 15.6798 41.377C15.6798 41.0429 15.5484 40.76 15.2583 40.5134L15.2564 40.5118Z" fill="black"/>
<path d="M62.4579 48.2917V46.7173H67.6697C68.078 46.7173 68.4134 46.5901 68.6942 46.3374C68.973 46.0867 69.1021 45.7994 69.1021 45.4594C69.1021 45.1273 68.9743 44.8422 68.6946 44.5893C68.4136 44.3375 68.078 44.2103 67.6697 44.2103H62.4579V42.6359H68.3701C68.7774 42.6359 69.1139 42.5086 69.3933 42.2572C69.6718 42.0066 69.8012 41.7182 69.8012 41.378C69.8012 41.0451 69.6739 40.7603 69.3937 40.5092C69.1139 40.2575 68.7768 40.1289 68.3701 40.1289H60.526C60.1182 40.1289 59.7825 40.257 59.501 40.5092L59.4996 40.5105C59.2225 40.7557 59.0936 41.0395 59.0936 41.3793V49.5408C59.0936 49.8798 59.2217 50.167 59.5015 50.4188C59.7819 50.6712 60.1171 50.7975 60.526 50.7975H68.3701C68.7774 50.7975 69.1139 50.6702 69.3933 50.4188C69.6718 50.1682 69.8012 49.8798 69.8012 49.5396C69.8012 49.2086 69.6732 48.9233 69.3929 48.67C69.1141 48.4181 68.7779 48.2917 68.3701 48.2917H62.4579Z" fill="black"/>
<path d="M55.495 42.6359H52.2636V49.5408C52.2636 49.876 52.1315 50.1626 51.8392 50.4146C51.5453 50.668 51.1912 50.7975 50.7597 50.7975C50.3352 50.7975 49.9832 50.6686 49.6877 50.4146C49.3964 50.1627 49.2646 49.8762 49.2646 49.5408V42.6359H46.0407C45.6094 42.6359 45.2553 42.5065 44.9616 42.2533C44.6698 42.0003 44.5381 41.7136 44.5381 41.3793C44.5381 41.05 44.6691 40.7655 44.9616 40.5128C45.2554 40.2587 45.6095 40.1289 46.0407 40.1289H55.495C55.9273 40.1289 56.2777 40.2587 56.5648 40.5111L56.5667 40.5128C56.8593 40.7657 56.9901 41.0497 56.9901 41.378C56.9901 41.7135 56.8582 42.0006 56.5664 42.2535L56.5651 42.2546C56.278 42.5063 55.9275 42.6359 55.495 42.6359Z" fill="black"/>
<path d="M35.4391 46.7164L37.8989 46.7176C38.256 46.7176 38.5669 46.7584 38.7989 46.8682C38.9188 46.9249 39.0289 47.0054 39.1086 47.1186C39.1903 47.2346 39.2276 47.3671 39.2276 47.5042C39.2276 47.6402 39.1914 47.7721 39.1113 47.8881C39.0329 48.0016 38.9243 48.0828 38.8054 48.1402C38.5755 48.2511 38.2682 48.292 37.9165 48.292H32.1432C31.7176 48.292 31.3658 48.421 31.0713 48.6749C30.7799 48.9268 30.6481 49.2133 30.6481 49.5487C30.6481 49.8837 30.7797 50.17 31.0705 50.4217C31.3647 50.6708 31.7165 50.7978 32.142 50.7978H37.6428C39.3139 50.7974 40.5137 50.5006 41.2889 49.9534C42.0449 49.4197 42.435 48.6205 42.435 47.503C42.435 46.3854 42.045 45.5863 41.2892 45.0528C40.5143 44.5058 39.3148 44.2094 37.6441 44.2094H35.1842C34.827 44.2094 34.5162 44.1686 34.2842 44.0588C34.1642 44.0021 34.0542 43.9216 33.9744 43.8084C33.8928 43.6924 33.8554 43.5599 33.8554 43.4228C33.8554 43.2868 33.8916 43.155 33.9716 43.0391C34.0499 42.9255 34.1584 42.8443 34.2773 42.7868C34.507 42.6758 34.814 42.6349 35.1654 42.6349H40.7579C41.1824 42.6349 41.5343 42.5061 41.8297 42.2522C42.1212 41.9994 42.253 41.7124 42.253 41.377C42.253 41.0429 42.1215 40.76 41.8314 40.5134L41.8298 40.512C41.5343 40.2571 41.1823 40.1279 40.7579 40.1279H35.439C33.7678 40.1279 32.5681 40.4245 31.793 40.9717C31.0369 41.5054 30.6469 42.3048 30.6469 43.4228C30.6469 44.5403 31.0369 45.3394 31.7929 45.8729C32.5681 46.4199 33.768 46.7164 35.4391 46.7164Z" fill="black"/>
<path d="M78.9713 49.673C78.5437 49.673 78.1698 49.4789 77.8406 49.0328L74.5664 44.7664V49.5396C74.5664 49.8863 74.4415 50.176 74.1799 50.4246C73.9176 50.6745 73.6095 50.7975 73.2394 50.7975C72.8625 50.7975 72.5513 50.6738 72.289 50.4246C72.0279 50.1759 71.9037 49.8868 71.9037 49.5408V41.3793C71.9037 41.0335 72.0277 40.7478 72.2872 40.5047L72.289 40.503C72.5514 40.2529 72.8626 40.1289 73.2394 40.1289C73.603 40.1289 73.9235 40.2057 74.2072 40.3544C74.4987 40.5075 74.7429 40.7129 74.9423 40.9721L78.9702 46.219L82.9917 40.9718C83.191 40.7128 83.4351 40.5076 83.7264 40.3544C84.0101 40.2058 84.3307 40.1289 84.6943 40.1289C85.0711 40.1289 85.3817 40.2529 85.6432 40.5028L85.6456 40.505C85.9059 40.7483 86.03 41.0335 86.03 41.378V49.5408C86.03 49.8865 85.9053 50.1758 85.6435 50.4246C85.3819 50.6738 85.0717 50.7975 84.6955 50.7975C84.3246 50.7975 84.0156 50.6744 83.7526 50.4246C83.4916 50.1759 83.3674 49.8868 83.3674 49.5408V44.7664L80.0965 49.0283L80.0932 49.0328C79.7631 49.48 79.3919 49.673 78.9713 49.673Z" fill="black"/>
<path d="M23.2556 50.7975C23.5171 50.7928 23.7788 50.7356 24.011 50.6359C24.4264 50.4576 24.6794 50.1769 24.7285 49.8993C24.7531 49.2317 24.7496 48.5718 24.746 47.9047C24.7438 47.4802 24.7415 47.0527 24.7464 46.6185L24.7479 46.4937L29.0938 42.2814L29.1083 42.2705C29.5903 41.9047 29.644 41.3361 29.281 40.9514L29.2761 40.9462L29.2715 40.9408C29.043 40.6743 28.6227 40.4976 28.1469 40.4678C27.6766 40.4384 27.2195 40.5572 26.9265 40.7971C26.2055 41.4805 25.4984 42.1698 24.7898 42.8607C24.3482 43.2912 23.906 43.7223 23.4593 44.1531L23.2554 44.3497L23.0514 44.1531C22.6048 43.7223 22.1625 43.2912 21.7209 42.8607C21.0123 42.1698 20.3052 41.4805 19.5842 40.7971C19.2912 40.5572 18.8341 40.4384 18.3638 40.4678C17.8881 40.4976 17.4678 40.6743 17.2392 40.9408L17.2346 40.9462L17.2297 40.9514C16.8668 41.3361 16.9204 41.9047 17.4025 42.2705L17.4169 42.2814L21.7629 46.4937L21.7643 46.6185C21.7692 47.0527 21.767 47.4801 21.7647 47.9046C21.7611 48.5717 21.7576 49.2317 21.7822 49.8993C21.8313 50.1769 22.0843 50.4576 22.4997 50.6359C22.732 50.7356 22.9941 50.7928 23.2556 50.7975Z" fill="black"/>
<path d="M15.2564 40.5118C14.9618 40.2571 14.6104 40.1279 14.186 40.1279H8.86707C7.19595 40.1279 5.99619 40.4245 5.22106 40.9717C4.46504 41.5054 4.07495 42.3048 4.07495 43.4228C4.07495 44.5403 4.46501 45.3394 5.22102 45.8729C5.99615 46.4199 7.19593 46.7164 8.86707 46.7164H11.3257C11.6829 46.7164 11.9937 46.7571 12.2257 46.8669C12.3457 46.9237 12.4557 47.0041 12.5355 47.1174C12.6172 47.2333 12.6545 47.3659 12.6545 47.503C12.6545 47.639 12.6182 47.7709 12.5382 47.8868C12.4598 48.0003 12.3512 48.0815 12.2322 48.1389C12.0023 48.2499 11.695 48.2908 11.3433 48.2908H5.57005C5.1455 48.2908 4.79351 48.4197 4.49807 48.6737C4.20695 48.9246 4.07495 49.211 4.07495 49.5474C4.07495 49.8834 4.20664 50.1701 4.49716 50.4216C4.79229 50.6708 5.14462 50.7978 5.57005 50.7978H11.0709C12.7424 50.7974 13.9426 50.5006 14.7179 49.9534C15.4742 49.4196 15.8643 48.6205 15.8643 47.503C15.8643 46.3854 15.4743 45.5863 14.7185 45.0528C13.9436 44.5058 12.7442 44.2094 11.0735 44.2094H8.61355C8.25639 44.2094 7.94557 44.1686 7.71355 44.0588C7.59359 44.0021 7.48356 43.9216 7.40379 43.8084C7.32211 43.6924 7.28479 43.5599 7.28479 43.4228C7.28479 43.2868 7.32096 43.155 7.40092 43.0391C7.47924 42.9255 7.58771 42.8443 7.70663 42.7868C7.93633 42.6758 8.2434 42.6349 8.59473 42.6349H14.186C14.6105 42.6349 14.9619 42.5061 15.2564 42.2523C15.548 41.9995 15.6798 41.7124 15.6798 41.377C15.6798 41.0429 15.5484 40.76 15.2583 40.5134L15.2564 40.5118Z" stroke="white" stroke-width="7.79646" stroke-linejoin="round"/>
<path d="M62.4579 48.2917V46.7173H67.6697C68.078 46.7173 68.4134 46.5901 68.6942 46.3374C68.973 46.0867 69.1021 45.7994 69.1021 45.4594C69.1021 45.1273 68.9743 44.8422 68.6946 44.5893C68.4136 44.3375 68.078 44.2103 67.6697 44.2103H62.4579V42.6359H68.3701C68.7774 42.6359 69.1139 42.5086 69.3933 42.2572C69.6718 42.0066 69.8012 41.7182 69.8012 41.378C69.8012 41.0451 69.6739 40.7603 69.3937 40.5092C69.1139 40.2575 68.7768 40.1289 68.3701 40.1289H60.526C60.1182 40.1289 59.7825 40.257 59.501 40.5092L59.4996 40.5105C59.2225 40.7557 59.0936 41.0395 59.0936 41.3793V49.5408C59.0936 49.8798 59.2217 50.167 59.5015 50.4188C59.7819 50.6712 60.1171 50.7975 60.526 50.7975H68.3701C68.7774 50.7975 69.1139 50.6702 69.3933 50.4188C69.6718 50.1682 69.8012 49.8798 69.8012 49.5396C69.8012 49.2086 69.6732 48.9233 69.3929 48.67C69.1141 48.4181 68.7779 48.2917 68.3701 48.2917H62.4579Z" stroke="white" stroke-width="7.79646" stroke-linejoin="round"/>
<path d="M55.495 42.6359H52.2636V49.5408C52.2636 49.876 52.1315 50.1626 51.8392 50.4146C51.5453 50.668 51.1912 50.7975 50.7597 50.7975C50.3352 50.7975 49.9832 50.6686 49.6877 50.4146C49.3964 50.1627 49.2646 49.8762 49.2646 49.5408V42.6359H46.0407C45.6094 42.6359 45.2553 42.5065 44.9616 42.2533C44.6698 42.0003 44.5381 41.7136 44.5381 41.3793C44.5381 41.05 44.6691 40.7655 44.9616 40.5128C45.2554 40.2587 45.6095 40.1289 46.0407 40.1289H55.495C55.9273 40.1289 56.2777 40.2587 56.5648 40.5111L56.5667 40.5128C56.8593 40.7657 56.9901 41.0497 56.9901 41.378C56.9901 41.7135 56.8582 42.0006 56.5664 42.2535L56.5651 42.2546C56.278 42.5063 55.9275 42.6359 55.495 42.6359Z" stroke="white" stroke-width="7.79646" stroke-linejoin="round"/>
<path d="M35.4391 46.7164L37.8989 46.7176C38.256 46.7176 38.5669 46.7584 38.7989 46.8682C38.9188 46.9249 39.0289 47.0054 39.1086 47.1186C39.1903 47.2346 39.2276 47.3671 39.2276 47.5042C39.2276 47.6402 39.1914 47.7721 39.1113 47.8881C39.0329 48.0016 38.9243 48.0828 38.8054 48.1402C38.5755 48.2511 38.2682 48.292 37.9165 48.292H32.1432C31.7176 48.292 31.3658 48.421 31.0713 48.6749C30.7799 48.9268 30.6481 49.2133 30.6481 49.5487C30.6481 49.8837 30.7797 50.17 31.0705 50.4217C31.3647 50.6708 31.7165 50.7978 32.142 50.7978H37.6428C39.3139 50.7974 40.5137 50.5006 41.2889 49.9534C42.0449 49.4197 42.435 48.6205 42.435 47.503C42.435 46.3854 42.045 45.5863 41.2892 45.0528C40.5143 44.5058 39.3148 44.2094 37.6441 44.2094H35.1842C34.827 44.2094 34.5162 44.1686 34.2842 44.0588C34.1642 44.0021 34.0542 43.9216 33.9744 43.8084C33.8928 43.6924 33.8554 43.5599 33.8554 43.4228C33.8554 43.2868 33.8916 43.155 33.9716 43.0391C34.0499 42.9255 34.1584 42.8443 34.2773 42.7868C34.507 42.6758 34.814 42.6349 35.1654 42.6349H40.7579C41.1824 42.6349 41.5343 42.5061 41.8297 42.2522C42.1212 41.9994 42.253 41.7124 42.253 41.377C42.253 41.0429 42.1215 40.76 41.8314 40.5134L41.8298 40.512C41.5343 40.2571 41.1823 40.1279 40.7579 40.1279H35.439C33.7678 40.1279 32.5681 40.4245 31.793 40.9717C31.0369 41.5054 30.6469 42.3048 30.6469 43.4228C30.6469 44.5403 31.0369 45.3394 31.7929 45.8729C32.5681 46.4199 33.768 46.7164 35.4391 46.7164Z" stroke="white" stroke-width="7.79646" stroke-linejoin="round"/>
<path d="M78.9713 49.673C78.5437 49.673 78.1698 49.4789 77.8406 49.0328L74.5664 44.7664V49.5396C74.5664 49.8863 74.4415 50.176 74.1799 50.4246C73.9176 50.6745 73.6095 50.7975 73.2394 50.7975C72.8625 50.7975 72.5513 50.6738 72.289 50.4246C72.0279 50.1759 71.9037 49.8868 71.9037 49.5408V41.3793C71.9037 41.0335 72.0277 40.7478 72.2872 40.5047L72.289 40.503C72.5514 40.2529 72.8626 40.1289 73.2394 40.1289C73.603 40.1289 73.9235 40.2057 74.2072 40.3544C74.4987 40.5075 74.7429 40.7129 74.9423 40.9721L78.9702 46.219L82.9917 40.9718C83.191 40.7128 83.4351 40.5076 83.7264 40.3544C84.0101 40.2058 84.3307 40.1289 84.6943 40.1289C85.0711 40.1289 85.3817 40.2529 85.6432 40.5028L85.6456 40.505C85.9059 40.7483 86.03 41.0335 86.03 41.378V49.5408C86.03 49.8865 85.9053 50.1758 85.6435 50.4246C85.3819 50.6738 85.0717 50.7975 84.6955 50.7975C84.3246 50.7975 84.0156 50.6744 83.7526 50.4246C83.4916 50.1759 83.3674 49.8868 83.3674 49.5408V44.7664L80.0965 49.0283L80.0932 49.0328C79.7631 49.48 79.3919 49.673 78.9713 49.673Z" stroke="white" stroke-width="7.79646" stroke-linejoin="round"/>
<path d="M23.2556 50.7975C23.5171 50.7928 23.7788 50.7356 24.011 50.6359C24.4264 50.4576 24.6794 50.1769 24.7285 49.8993C24.7531 49.2317 24.7496 48.5718 24.746 47.9047C24.7438 47.4802 24.7415 47.0527 24.7464 46.6185L24.7479 46.4937L29.0938 42.2814L29.1083 42.2705C29.5903 41.9047 29.644 41.3361 29.281 40.9514L29.2761 40.9462L29.2715 40.9408C29.043 40.6743 28.6227 40.4976 28.1469 40.4678C27.6766 40.4384 27.2195 40.5572 26.9265 40.7971C26.2055 41.4805 25.4984 42.1698 24.7898 42.8607C24.3482 43.2912 23.906 43.7223 23.4593 44.1531L23.2554 44.3497L23.0514 44.1531C22.6048 43.7223 22.1625 43.2912 21.7209 42.8607C21.0123 42.1698 20.3052 41.4805 19.5842 40.7971C19.2912 40.5572 18.8341 40.4384 18.3638 40.4678C17.8881 40.4976 17.4678 40.6743 17.2392 40.9408L17.2346 40.9462L17.2297 40.9514C16.8668 41.3361 16.9204 41.9047 17.4025 42.2705L17.4169 42.2814L21.7629 46.4937L21.7643 46.6185C21.7692 47.0527 21.767 47.4801 21.7647 47.9046C21.7611 48.5717 21.7576 49.2317 21.7822 49.8993C21.8313 50.1769 22.0843 50.4576 22.4997 50.6359C22.732 50.7356 22.9941 50.7928 23.2556 50.7975Z" stroke="white" stroke-width="7.79646" stroke-linejoin="round"/>
<path d="M15.2564 40.5118C14.9618 40.2571 14.6104 40.1279 14.186 40.1279H8.86707C7.19595 40.1279 5.99619 40.4245 5.22106 40.9717C4.46504 41.5054 4.07495 42.3048 4.07495 43.4228C4.07495 44.5403 4.46501 45.3394 5.22102 45.8729C5.99615 46.4199 7.19593 46.7164 8.86707 46.7164H11.3257C11.6829 46.7164 11.9937 46.7571 12.2257 46.8669C12.3457 46.9237 12.4557 47.0041 12.5355 47.1174C12.6172 47.2333 12.6545 47.3659 12.6545 47.503C12.6545 47.639 12.6182 47.7709 12.5382 47.8868C12.4598 48.0003 12.3512 48.0815 12.2322 48.1389C12.0023 48.2499 11.695 48.2908 11.3433 48.2908H5.57005C5.1455 48.2908 4.79351 48.4197 4.49807 48.6737C4.20695 48.9246 4.07495 49.211 4.07495 49.5474C4.07495 49.8834 4.20664 50.1701 4.49716 50.4216C4.79229 50.6708 5.14462 50.7978 5.57005 50.7978H11.0709C12.7424 50.7974 13.9426 50.5006 14.7179 49.9534C15.4742 49.4196 15.8643 48.6205 15.8643 47.503C15.8643 46.3854 15.4743 45.5863 14.7185 45.0528C13.9436 44.5058 12.7442 44.2094 11.0735 44.2094H8.61355C8.25639 44.2094 7.94557 44.1686 7.71355 44.0588C7.59359 44.0021 7.48356 43.9216 7.40379 43.8084C7.32211 43.6924 7.28479 43.5599 7.28479 43.4228C7.28479 43.2868 7.32096 43.155 7.40092 43.0391C7.47924 42.9255 7.58771 42.8443 7.70663 42.7868C7.93633 42.6758 8.2434 42.6349 8.59473 42.6349H14.186C14.6105 42.6349 14.9619 42.5061 15.2564 42.2523C15.548 41.9995 15.6798 41.7124 15.6798 41.377C15.6798 41.0429 15.5484 40.76 15.2583 40.5134L15.2564 40.5118Z" fill="black"/>
<path d="M62.4579 48.2917V46.7173H67.6697C68.078 46.7173 68.4134 46.5901 68.6942 46.3374C68.973 46.0867 69.1021 45.7994 69.1021 45.4594C69.1021 45.1273 68.9743 44.8422 68.6946 44.5893C68.4136 44.3375 68.078 44.2103 67.6697 44.2103H62.4579V42.6359H68.3701C68.7774 42.6359 69.1139 42.5086 69.3933 42.2572C69.6718 42.0066 69.8012 41.7182 69.8012 41.378C69.8012 41.0451 69.6739 40.7603 69.3937 40.5092C69.1139 40.2575 68.7768 40.1289 68.3701 40.1289H60.526C60.1182 40.1289 59.7825 40.257 59.501 40.5092L59.4996 40.5105C59.2225 40.7557 59.0936 41.0395 59.0936 41.3793V49.5408C59.0936 49.8798 59.2217 50.167 59.5015 50.4188C59.7819 50.6712 60.1171 50.7975 60.526 50.7975H68.3701C68.7774 50.7975 69.1139 50.6702 69.3933 50.4188C69.6718 50.1682 69.8012 49.8798 69.8012 49.5396C69.8012 49.2086 69.6732 48.9233 69.3929 48.67C69.1141 48.4181 68.7779 48.2917 68.3701 48.2917H62.4579Z" fill="black"/>
<path d="M55.495 42.6359H52.2636V49.5408C52.2636 49.876 52.1315 50.1626 51.8392 50.4146C51.5453 50.668 51.1912 50.7975 50.7597 50.7975C50.3352 50.7975 49.9832 50.6686 49.6877 50.4146C49.3964 50.1627 49.2646 49.8762 49.2646 49.5408V42.6359H46.0407C45.6094 42.6359 45.2553 42.5065 44.9616 42.2533C44.6698 42.0003 44.5381 41.7136 44.5381 41.3793C44.5381 41.05 44.6691 40.7655 44.9616 40.5128C45.2554 40.2587 45.6095 40.1289 46.0407 40.1289H55.495C55.9273 40.1289 56.2777 40.2587 56.5648 40.5111L56.5667 40.5128C56.8593 40.7657 56.9901 41.0497 56.9901 41.378C56.9901 41.7135 56.8582 42.0006 56.5664 42.2535L56.5651 42.2546C56.278 42.5063 55.9275 42.6359 55.495 42.6359Z" fill="black"/>
<path d="M35.4391 46.7164L37.8989 46.7176C38.256 46.7176 38.5669 46.7584 38.7989 46.8682C38.9188 46.9249 39.0289 47.0054 39.1086 47.1186C39.1903 47.2346 39.2276 47.3671 39.2276 47.5042C39.2276 47.6402 39.1914 47.7721 39.1113 47.8881C39.0329 48.0016 38.9243 48.0828 38.8054 48.1402C38.5755 48.2511 38.2682 48.292 37.9165 48.292H32.1432C31.7176 48.292 31.3658 48.421 31.0713 48.6749C30.7799 48.9268 30.6481 49.2133 30.6481 49.5487C30.6481 49.8837 30.7797 50.17 31.0705 50.4217C31.3647 50.6708 31.7165 50.7978 32.142 50.7978H37.6428C39.3139 50.7974 40.5137 50.5006 41.2889 49.9534C42.0449 49.4197 42.435 48.6205 42.435 47.503C42.435 46.3854 42.045 45.5863 41.2892 45.0528C40.5143 44.5058 39.3148 44.2094 37.6441 44.2094H35.1842C34.827 44.2094 34.5162 44.1686 34.2842 44.0588C34.1642 44.0021 34.0542 43.9216 33.9744 43.8084C33.8928 43.6924 33.8554 43.5599 33.8554 43.4228C33.8554 43.2868 33.8916 43.155 33.9716 43.0391C34.0499 42.9255 34.1584 42.8443 34.2773 42.7868C34.507 42.6758 34.814 42.6349 35.1654 42.6349H40.7579C41.1824 42.6349 41.5343 42.5061 41.8297 42.2522C42.1212 41.9994 42.253 41.7124 42.253 41.377C42.253 41.0429 42.1215 40.76 41.8314 40.5134L41.8298 40.512C41.5343 40.2571 41.1823 40.1279 40.7579 40.1279H35.439C33.7678 40.1279 32.5681 40.4245 31.793 40.9717C31.0369 41.5054 30.6469 42.3048 30.6469 43.4228C30.6469 44.5403 31.0369 45.3394 31.7929 45.8729C32.5681 46.4199 33.768 46.7164 35.4391 46.7164Z" fill="black"/>
<path d="M78.9713 49.673C78.5437 49.673 78.1698 49.4789 77.8406 49.0328L74.5664 44.7664V49.5396C74.5664 49.8863 74.4415 50.176 74.1799 50.4246C73.9176 50.6745 73.6095 50.7975 73.2394 50.7975C72.8625 50.7975 72.5513 50.6738 72.289 50.4246C72.0279 50.1759 71.9037 49.8868 71.9037 49.5408V41.3793C71.9037 41.0335 72.0277 40.7478 72.2872 40.5047L72.289 40.503C72.5514 40.2529 72.8626 40.1289 73.2394 40.1289C73.603 40.1289 73.9235 40.2057 74.2072 40.3544C74.4987 40.5075 74.7429 40.7129 74.9423 40.9721L78.9702 46.219L82.9917 40.9718C83.191 40.7128 83.4351 40.5076 83.7264 40.3544C84.0101 40.2058 84.3307 40.1289 84.6943 40.1289C85.0711 40.1289 85.3817 40.2529 85.6432 40.5028L85.6456 40.505C85.9059 40.7483 86.03 41.0335 86.03 41.378V49.5408C86.03 49.8865 85.9053 50.1758 85.6435 50.4246C85.3819 50.6738 85.0717 50.7975 84.6955 50.7975C84.3246 50.7975 84.0156 50.6744 83.7526 50.4246C83.4916 50.1759 83.3674 49.8868 83.3674 49.5408V44.7664L80.0965 49.0283L80.0932 49.0328C79.7631 49.48 79.3919 49.673 78.9713 49.673Z" fill="black"/>
<path d="M23.2556 50.7975C23.5171 50.7928 23.7788 50.7356 24.011 50.6359C24.4264 50.4576 24.6794 50.1769 24.7285 49.8993C24.7531 49.2317 24.7496 48.5718 24.746 47.9047C24.7438 47.4802 24.7415 47.0527 24.7464 46.6185L24.7479 46.4937L29.0938 42.2814L29.1083 42.2705C29.5903 41.9047 29.644 41.3361 29.281 40.9514L29.2761 40.9462L29.2715 40.9408C29.043 40.6743 28.6227 40.4976 28.1469 40.4678C27.6766 40.4384 27.2195 40.5572 26.9265 40.7971C26.2055 41.4805 25.4984 42.1698 24.7898 42.8607C24.3482 43.2912 23.906 43.7223 23.4593 44.1531L23.2554 44.3497L23.0514 44.1531C22.6048 43.7223 22.1625 43.2912 21.7209 42.8607C21.0123 42.1698 20.3052 41.4805 19.5842 40.7971C19.2912 40.5572 18.8341 40.4384 18.3638 40.4678C17.8881 40.4976 17.4678 40.6743 17.2392 40.9408L17.2346 40.9462L17.2297 40.9514C16.8668 41.3361 16.9204 41.9047 17.4025 42.2705L17.4169 42.2814L21.7629 46.4937L21.7643 46.6185C21.7692 47.0527 21.767 47.4801 21.7647 47.9046C21.7611 48.5717 21.7576 49.2317 21.7822 49.8993C21.8313 50.1769 22.0843 50.4576 22.4997 50.6359C22.732 50.7356 22.9941 50.7928 23.2556 50.7975Z" fill="black"/>
<path d="M191.964 91.8897L180.945 64.1607H168.049L187.241 109.811H196.444L214.047 68.5921V109.811H225.913V64.1607H203.043L191.964 91.8897Z" fill="white"/>
<path fill-rule="evenodd" clip-rule="evenodd" d="M228.833 64.1607V109.811H245.664C252.041 109.811 257.49 107.611 262.011 103.211C266.572 98.7715 268.852 93.363 268.852 86.9857C268.852 80.6084 266.572 75.22 262.011 70.8205C257.49 66.3806 252.041 64.1607 245.664 64.1607H228.833ZM240.699 99.7604V74.211H243.484C247.399 74.211 250.548 75.3411 252.929 77.6014C255.31 79.8617 256.501 82.9898 256.501 86.9857C256.501 91.2238 255.25 94.4124 252.747 96.5516C250.285 98.6908 247.157 99.7604 243.363 99.7604H240.699Z" fill="white"/>
<path d="M281.382 74.211H295.488V64.1607H269.515V109.811H295.488V99.7604H281.382V91.8897H294.762V81.8395H281.382V74.211Z" fill="white"/>
<path fill-rule="evenodd" clip-rule="evenodd" d="M320.905 62.6471C316.506 62.6471 312.389 63.636 308.554 65.6137C304.72 67.5511 301.612 70.3362 299.23 73.9688C296.849 77.6014 295.658 81.6578 295.658 86.1381C295.658 93.5244 298.019 99.5788 302.742 104.301C307.505 108.983 313.559 111.324 320.905 111.324C328.251 111.324 334.285 108.983 339.008 104.301C343.77 99.5788 346.152 93.5244 346.152 86.1381C346.152 81.6578 344.961 77.6014 342.58 73.9688C340.198 70.3362 337.09 67.5511 333.256 65.6137C329.422 63.636 325.305 62.6471 320.905 62.6471ZM320.905 74.1504C324.417 74.1504 327.444 75.3613 329.987 77.783C332.529 80.2048 333.801 83.01 333.801 86.1986C333.801 90.0734 332.55 93.3226 330.047 95.9462C327.545 98.5294 324.497 99.821 320.905 99.821C317.313 99.821 314.265 98.5294 311.763 95.9462C309.26 93.3226 308.009 90.0734 308.009 86.1986C308.009 83.01 309.281 80.2048 311.823 77.783C314.366 75.3613 317.394 74.1504 320.905 74.1504Z" fill="white"/>
<path d="M381.488 70.1213L378.519 75.9062C376.098 73.8881 373.474 72.879 370.649 72.879C369.397 72.879 368.227 73.2221 367.137 73.9082C366.088 74.5944 365.563 75.5227 365.563 76.6932C365.563 77.5005 365.886 78.227 366.532 78.8728C367.218 79.5186 367.843 79.9626 368.409 80.2048C369.014 80.447 369.821 80.7295 370.83 81.0524L373.857 81.9606C377.409 83.01 380.174 84.5034 382.152 86.4408C384.13 88.3378 385.119 91.0018 385.119 94.4326C385.119 99.9622 383.544 104.059 380.396 106.723C377.006 109.589 372.687 111.022 367.44 111.022C361.708 111.022 356.36 109.286 351.396 105.815L356.481 96.2489C360.074 99.3972 363.585 100.971 367.016 100.971C368.55 100.971 369.882 100.588 371.012 99.821C372.182 99.0137 372.768 97.8634 372.768 96.37C372.768 94.2711 370.487 92.5759 365.926 91.2843C365.765 91.2439 365.644 91.2036 365.563 91.1632C363.383 90.5578 361.668 89.9927 360.417 89.468C359.166 88.9433 357.914 88.2167 356.663 87.2884C355.412 86.3197 354.524 85.1088 353.999 83.6558C353.474 82.2027 353.212 80.4066 353.212 78.2674C353.212 73.6661 354.685 69.9729 357.632 67.1879C360.578 64.3625 364.352 62.9498 368.953 62.9498C371.254 62.9498 373.696 63.2929 376.279 63.9791C376.639 64.0731 376.993 64.1713 377.341 64.2737L377.261 64.1607H391.488L400.025 76.5722L408.562 64.1607H422.79L405.958 87.8938V109.811H394.092V87.8938L381.488 70.1213Z" fill="white"/>
<path d="M446.588 68.3304L442.7 75.9062C440.279 73.8881 437.655 72.879 434.83 72.879C433.579 72.879 432.408 73.2221 431.318 73.9082C430.269 74.5944 429.744 75.5227 429.744 76.6932C429.744 77.5005 430.067 78.227 430.713 78.8728C431.399 79.5186 432.025 79.9626 432.59 80.2048C433.195 80.447 434.002 80.7295 435.011 81.0524L438.039 81.9606C441.591 83.01 444.355 84.5034 446.333 86.4408C448.311 88.3378 449.3 91.0018 449.3 94.4326C449.3 99.9622 447.726 104.059 444.577 106.723C441.187 109.589 436.868 111.022 431.621 111.022C425.889 111.022 420.541 109.286 415.577 105.815L420.663 96.2489C424.255 99.3972 427.766 100.971 431.197 100.971C432.731 100.971 434.063 100.588 435.193 99.821C436.364 99.0137 436.949 97.8634 436.949 96.37C436.949 94.2711 434.668 92.5759 430.107 91.2843C429.946 91.2439 429.825 91.2036 429.744 91.1632C427.565 90.5578 425.849 89.9927 424.598 89.468C423.347 88.9433 422.095 88.2167 420.844 87.2884C419.593 86.3197 418.705 85.1088 418.18 83.6558C417.656 82.2027 417.393 80.4066 417.393 78.2674C417.393 73.6661 418.866 69.9729 421.813 67.1879C424.759 64.3625 428.533 62.9498 433.135 62.9498C435.435 62.9498 437.877 63.2929 440.46 63.9791C442.729 64.5725 444.772 65.332 446.588 66.2575V64.1607H478.071V74.211H468.263V109.811H456.396V74.211H446.588V68.3304Z" fill="white"/>
<path d="M491.827 74.211H505.933V64.1607H479.96V109.811H505.933V99.7604H491.827V91.8897H505.207V81.8395H491.827V74.211Z" fill="white"/>
<path d="M527.536 64.1607H515.851L508.101 109.811H519.907L523.721 83.5347H523.842L534.316 109.811H539.039L549.997 83.5347H550.118L553.448 109.811H565.315L558.413 64.1607H546.607L536.799 88.5598L527.536 64.1607Z" fill="white"/>
<path d="M176.621 140.532C177.888 140.53 179.139 140.248 180.287 139.706C181.416 139.2 182.418 138.442 183.217 137.488V137.488L181.034 135.268C180.498 135.923 179.833 136.455 179.081 136.831C178.343 137.194 177.533 137.379 176.714 137.374C176.022 137.381 175.336 137.25 174.695 136.986C174.053 136.723 173.47 136.333 172.979 135.84C172.505 135.357 172.131 134.783 171.878 134.152C171.607 133.482 171.47 132.764 171.476 132.04C171.469 131.309 171.602 130.583 171.867 129.903C172.115 129.271 172.482 128.694 172.948 128.204C173.415 127.719 173.974 127.333 174.591 127.071C175.234 126.794 175.926 126.654 176.624 126.658C177.467 126.655 178.298 126.851 179.053 127.231C179.833 127.628 180.516 128.197 181.053 128.895V128.895L183.305 126.606C182.513 125.63 181.505 124.858 180.364 124.352C179.19 123.802 177.914 123.516 176.621 123.514C175.467 123.506 174.322 123.73 173.254 124.174C172.242 124.591 171.317 125.2 170.531 125.97C169.755 126.739 169.138 127.658 168.715 128.672C168.277 129.735 168.051 130.876 168.049 132.028C168.047 133.181 168.27 134.322 168.704 135.387C169.122 136.397 169.735 137.313 170.508 138.078C171.295 138.847 172.219 139.456 173.232 139.872C174.307 140.318 175.459 140.542 176.621 140.532V140.532ZM220.174 140.556C221.325 140.565 222.465 140.34 223.529 139.896C224.537 139.481 225.454 138.868 226.227 138.092C227 137.316 227.615 136.393 228.035 135.376C228.474 134.319 228.701 133.183 228.701 132.036C228.701 130.888 228.474 129.753 228.035 128.696C227.615 127.678 227 126.755 226.227 125.979C225.454 125.203 224.537 124.59 223.529 124.176C221.384 123.295 218.986 123.295 216.841 124.176C215.833 124.59 214.916 125.203 214.143 125.979C213.37 126.755 212.755 127.678 212.335 128.696C211.896 129.753 211.67 130.888 211.67 132.036C211.67 133.183 211.896 134.319 212.335 135.376C212.755 136.393 213.37 137.316 214.143 138.092C214.916 138.868 215.833 139.481 216.841 139.896C217.898 140.339 219.031 140.563 220.175 140.555L220.174 140.556ZM220.174 137.417C219.499 137.423 218.829 137.289 218.207 137.023C217.585 136.757 217.022 136.365 216.555 135.871C216.093 135.376 215.73 134.795 215.486 134.16C214.965 132.789 214.965 131.27 215.486 129.899C215.732 129.269 216.095 128.692 216.555 128.2C217.022 127.706 217.585 127.314 218.207 127.048C218.829 126.782 219.499 126.648 220.174 126.654C220.869 126.649 221.558 126.789 222.197 127.067C222.807 127.329 223.358 127.715 223.817 128.2C224.276 128.692 224.639 129.269 224.885 129.899C225.406 131.27 225.406 132.789 224.885 134.16C224.641 134.795 224.278 135.376 223.817 135.871C223.358 136.356 222.807 136.742 222.197 137.004C221.558 137.282 220.87 137.422 220.175 137.416L220.174 137.417ZM270.691 140.297V137.277H261.887V123.774H258.557V140.295L270.691 140.297ZM312.705 140.297V137.277H303.901V123.774H300.569V140.295L312.705 140.297ZM355.04 140.297V137.324H345.916V133.404H351.869V130.524H345.916V126.751H354.949V123.777H342.582V140.299L355.04 140.297ZM391.998 140.533C393.264 140.531 394.515 140.249 395.663 139.707C396.792 139.201 397.794 138.443 398.594 137.489V137.489L396.41 135.271C395.874 135.925 395.208 136.457 394.456 136.834C393.719 137.196 392.909 137.382 392.089 137.376C391.398 137.384 390.712 137.252 390.071 136.989C389.43 136.725 388.847 136.336 388.355 135.842C387.882 135.359 387.508 134.785 387.255 134.154C386.983 133.485 386.846 132.766 386.852 132.042C386.845 131.311 386.978 130.585 387.244 129.906C387.491 129.273 387.857 128.696 388.323 128.207C388.79 127.721 389.349 127.335 389.966 127.074C390.609 126.797 391.301 126.656 392 126.661C392.845 126.657 393.68 126.855 394.436 127.238C395.217 127.635 395.9 128.203 396.436 128.902V128.902L398.689 126.613C397.897 125.637 396.889 124.865 395.747 124.359C394.574 123.809 393.298 123.523 392.005 123.52C390.851 123.512 389.706 123.737 388.638 124.181C387.626 124.597 386.701 125.206 385.914 125.975C385.138 126.745 384.52 127.663 384.098 128.678C383.66 129.741 383.433 130.882 383.431 132.034C383.43 133.186 383.652 134.328 384.087 135.392C384.504 136.403 385.118 137.318 385.89 138.084C386.677 138.853 387.601 139.461 388.614 139.878C389.688 140.321 390.838 140.543 391.998 140.532V140.533ZM436.08 140.297V126.794H441.48V123.773H427.323V126.794H432.747V140.295L436.08 140.297ZM474.255 140.297V123.776H470.923V140.297H474.255ZM512.638 140.558C513.789 140.566 514.929 140.342 515.993 139.897C517.001 139.482 517.918 138.869 518.691 138.093C519.464 137.318 520.079 136.394 520.499 135.377C520.938 134.32 521.164 133.184 521.164 132.037C521.164 130.889 520.938 129.754 520.499 128.697C520.079 127.679 519.464 126.756 518.691 125.98C517.918 125.204 517.001 124.591 515.993 124.177C513.849 123.296 511.45 123.296 509.306 124.177C508.299 124.592 507.382 125.205 506.609 125.981C505.836 126.756 505.222 127.679 504.802 128.697C504.361 129.754 504.135 130.889 504.135 132.037C504.135 133.184 504.361 134.32 504.802 135.377C505.222 136.394 505.836 137.317 506.609 138.093C507.382 138.868 508.299 139.481 509.306 139.897C510.362 140.339 511.495 140.563 512.638 140.555V140.558ZM512.638 137.418C511.947 137.425 511.262 137.284 510.627 137.005C510.022 136.741 509.474 136.356 509.019 135.872C508.556 135.377 508.193 134.796 507.949 134.161C507.428 132.79 507.428 131.271 507.949 129.9C508.195 129.27 508.558 128.693 509.019 128.201C509.474 127.718 510.022 127.332 510.627 127.068C511.262 126.789 511.947 126.649 512.638 126.655C513.333 126.65 514.021 126.79 514.66 127.068C515.27 127.33 515.821 127.716 516.28 128.201C516.74 128.693 517.103 129.27 517.349 129.9C517.871 131.271 517.871 132.79 517.349 134.161C517.105 134.796 516.742 135.377 516.28 135.872C515.821 136.358 515.27 136.743 514.66 137.005C514.021 137.282 513.333 137.422 512.638 137.416V137.418ZM554.168 140.299V129.247L562.373 140.299H565.315V123.777H562.19V134.469L554.191 123.777H551.019V140.299H554.168Z" fill="white"/>
</svg>
