<svg width="562" height="151" viewBox="0 0 562 151" fill="none" xmlns="http://www.w3.org/2000/svg">
<path fill-rule="evenodd" clip-rule="evenodd" d="M140.149 0L83.5705 33.319L105.805 33.3191L71.0002 107.959L44.0061 50.0696H2.92383L49.8518 150.707H92.1486L146.888 33.3191L167.823 33.319L140.149 0ZM87.7141 143.746H61.9925L116.731 26.3583L109.108 26.3583L138.578 9.00311L152.993 26.3583L142.453 26.3583L87.7141 143.746ZM39.5716 57.0304L67.1236 116.116L54.2628 143.696L13.85 57.0304H39.5716Z" fill="white"/>
<path d="M11.1814 34.8949C10.8869 34.6402 10.5355 34.511 10.111 34.511H4.79212C3.121 34.511 1.92124 34.8076 1.14611 35.3548C0.390094 35.8885 0 36.6879 0 37.8059C0 38.9234 0.390061 39.7225 1.14607 40.256C1.9212 40.803 3.12098 41.0995 4.79212 41.0995H7.25077C7.60793 41.0995 7.91875 41.1402 8.15077 41.25C8.27073 41.3068 8.38076 41.3872 8.46053 41.5005C8.54221 41.6164 8.57953 41.749 8.57953 41.8861C8.57953 42.0221 8.54329 42.154 8.46322 42.2699C8.38481 42.3835 8.27624 42.4646 8.15725 42.5221C7.92739 42.633 7.62006 42.6739 7.26834 42.6739H1.4951C1.07054 42.6739 0.718559 42.8028 0.423114 43.0568C0.132002 43.3077 0 43.5941 0 43.9305C0 44.2665 0.131685 44.5532 0.42221 44.8047C0.71734 45.054 1.06966 45.1809 1.4951 45.1809H6.99592C8.66745 45.1805 9.86762 44.8837 10.643 44.3365C11.3992 43.8028 11.7894 43.0036 11.7894 41.8861C11.7894 40.7685 11.3994 39.9694 10.6436 39.4359C9.86867 38.889 8.66922 38.5925 6.9985 38.5925H4.5386C4.18144 38.5925 3.87062 38.5517 3.6386 38.4419C3.51864 38.3852 3.40861 38.3047 3.32884 38.1915C3.24716 38.0755 3.20984 37.943 3.20984 37.8059C3.20984 37.67 3.24601 37.5381 3.32597 37.4222C3.40429 37.3086 3.51276 37.2274 3.63168 37.17C3.86138 37.059 4.16845 37.0181 4.51978 37.0181H10.111C10.5355 37.0181 10.8869 36.8892 11.1814 36.6354C11.473 36.3826 11.6049 36.0956 11.6049 35.7602C11.6049 35.426 11.4734 35.1432 11.1833 34.8966L11.1814 34.8949Z" fill="white"/>
<path d="M58.3829 42.6749V41.1004H63.5948C64.0031 41.1004 64.3384 40.9733 64.6193 40.7205C64.898 40.4698 65.0271 40.1825 65.0271 39.8425C65.0271 39.5105 64.8993 39.2253 64.6196 38.9724C64.3386 38.7206 64.0031 38.5934 63.5948 38.5934H58.3829V37.019H64.2951C64.7024 37.019 65.039 36.8917 65.3184 36.6403C65.5969 36.3898 65.7262 36.1013 65.7262 35.7611C65.7262 35.4282 65.599 35.1435 65.3188 34.8923C65.039 34.6406 64.7018 34.512 64.2951 34.512H56.451C56.0433 34.512 55.7075 34.6401 55.4261 34.8923L55.4246 34.8936C55.1475 35.1388 55.0187 35.4226 55.0187 35.7624V43.924C55.0187 44.2629 55.1467 44.5501 55.4265 44.8019C55.707 45.0543 56.0421 45.1806 56.451 45.1806H64.2951C64.7024 45.1806 65.039 45.0533 65.3184 44.8019C65.5969 44.5514 65.7262 44.2629 65.7262 43.9227C65.7262 43.5918 65.5983 43.3064 65.3179 43.0532C65.0391 42.8013 64.703 42.6749 64.2951 42.6749H58.3829Z" fill="white"/>
<path d="M51.4201 37.019H48.1887V43.924C48.1887 44.2591 48.0566 44.5457 47.7642 44.7977C47.4704 45.0511 47.1163 45.1806 46.6848 45.1806C46.2602 45.1806 45.9082 45.0517 45.6128 44.7977C45.3215 44.5458 45.1897 44.2593 45.1897 43.924V37.019H41.9658C41.5344 37.019 41.1804 36.8896 40.8866 36.6364C40.5949 36.3834 40.4631 36.0967 40.4631 35.7624C40.4631 35.4331 40.5942 35.1486 40.8866 34.8959C41.1805 34.6418 41.5345 34.512 41.9658 34.512H51.4201C51.8523 34.512 52.2028 34.6418 52.4898 34.8942L52.4918 34.8959C52.7844 35.1488 52.9152 35.4328 52.9152 35.7611C52.9152 36.0966 52.7832 36.3838 52.4914 36.6366L52.4902 36.6378C52.2031 36.8895 51.8526 37.019 51.4201 37.019Z" fill="white"/>
<path d="M31.3642 41.0995L33.8239 41.1007C34.181 41.1008 34.4919 41.1415 34.7239 41.2513C34.8439 41.308 34.9539 41.3885 35.0337 41.5017C35.1154 41.6177 35.1527 41.7502 35.1527 41.8873C35.1527 42.0233 35.1165 42.1553 35.0364 42.2712C34.958 42.3847 34.8494 42.4659 34.7304 42.5233C34.5005 42.6343 34.1932 42.6752 33.8415 42.6752H28.0683C27.6427 42.6752 27.2908 42.8041 26.9964 43.058C26.705 43.3099 26.5732 43.5964 26.5732 43.9318C26.5732 44.2668 26.7047 44.5531 26.9955 44.8049C27.2897 45.0539 27.6415 45.1809 28.067 45.1809H33.5678C35.2389 45.1805 36.4388 44.8837 37.2139 44.3365C37.97 43.8028 38.36 43.0036 38.36 41.8861C38.36 40.7685 37.97 39.9694 37.2142 39.4359C36.4393 38.889 35.2399 38.5925 33.5691 38.5925H31.1092C30.7521 38.5925 30.4413 38.5517 30.2092 38.4419C30.0893 38.3852 29.9793 38.3047 29.8995 38.1915C29.8178 38.0755 29.7805 37.943 29.7805 37.8059C29.7805 37.67 29.8167 37.5381 29.8966 37.4222C29.9749 37.3086 30.0834 37.2274 30.2023 37.17C30.432 37.059 30.7391 37.0181 31.0904 37.0181H36.6829C37.1074 37.0181 37.4594 36.8892 37.7548 36.6353C38.0462 36.3825 38.178 36.0955 38.178 35.7602C38.178 35.426 38.0466 35.1432 37.7565 34.8966L37.7548 34.8952C37.4593 34.6403 37.1074 34.511 36.6829 34.511H31.364C29.6929 34.511 28.4931 34.8076 27.718 35.3548C26.962 35.8885 26.5719 36.6879 26.5719 37.8059C26.5719 38.9234 26.962 39.7225 27.718 40.256C28.4931 40.803 29.693 41.0995 31.3642 41.0995Z" fill="white"/>
<path d="M74.8963 44.0561C74.4687 44.0561 74.0949 43.8621 73.7656 43.416L70.4914 39.1495V43.9227C70.4914 44.2694 70.3666 44.5591 70.1049 44.8077C69.8427 45.0576 69.5346 45.1806 69.1645 45.1806C68.7875 45.1806 68.4764 45.0569 68.214 44.8077C67.953 44.559 67.8288 44.2699 67.8288 43.924V35.7624C67.8288 35.4166 67.9528 35.1309 68.2122 34.8879L68.214 34.8861C68.4765 34.636 68.7876 34.512 69.1645 34.512C69.528 34.512 69.8485 34.5889 70.1322 34.7375C70.4237 34.8907 70.668 35.096 70.8673 35.3552L74.8953 40.6022L78.9167 35.3549C79.116 35.0959 79.3601 34.8907 79.6515 34.7376C79.9352 34.5889 80.2558 34.512 80.6193 34.512C80.9962 34.512 81.3067 34.636 81.5683 34.8859L81.5707 34.8881C81.831 35.1314 81.9551 35.4167 81.9551 35.7611V43.924C81.9551 44.2696 81.8304 44.559 81.5686 44.8077C81.307 45.0569 80.9967 45.1806 80.6206 45.1806C80.2496 45.1806 79.9407 45.0576 79.6776 44.8077C79.4166 44.559 79.2924 44.2699 79.2924 43.924V39.1495L76.0216 43.4114L76.0182 43.416C75.6882 43.8631 75.3169 44.0561 74.8963 44.0561Z" fill="white"/>
<path d="M19.1807 45.1806C19.4422 45.1759 19.7038 45.1188 19.9361 45.019C20.3514 44.8407 20.6045 44.56 20.6535 44.2824C20.6782 43.6148 20.6746 42.9549 20.6711 42.2878C20.6688 41.8633 20.6665 41.4358 20.6715 41.0017L20.6729 40.8768L25.0189 36.6645L25.0333 36.6536C25.5154 36.2878 25.569 35.7192 25.2061 35.3345L25.2012 35.3293L25.1966 35.3239C24.968 35.0574 24.5477 34.8807 24.072 34.8509C23.6017 34.8215 23.1446 34.9403 22.8515 35.1802C22.1305 35.8636 21.4234 36.5529 20.7149 37.2438C20.2732 37.6743 19.831 38.1055 19.3843 38.5362L19.1804 38.7328L18.9765 38.5362C18.5298 38.1055 18.0876 37.6743 17.646 37.2438C16.9374 36.5529 16.2303 35.8636 15.5093 35.1802C15.2163 34.9403 14.7591 34.8215 14.2889 34.8509C13.8131 34.8807 13.3928 35.0574 13.1643 35.3239L13.1596 35.3293L13.1548 35.3345C12.7918 35.7192 12.8455 36.2878 13.3275 36.6536L13.3419 36.6645L17.6879 40.8768L17.6893 41.0017C17.6943 41.4358 17.692 41.8632 17.6898 42.2878C17.6862 42.9548 17.6827 43.6148 17.7073 44.2824C17.7563 44.56 18.0094 44.8407 18.4248 45.019C18.657 45.1188 18.9192 45.1759 19.1807 45.1806Z" fill="white"/>
<path d="M187.889 86.2729L176.87 58.5438H163.974L183.166 104.194H192.369L209.972 62.9752V104.194H221.838V58.5438H198.968L187.889 86.2729Z" fill="white"/>
<path fill-rule="evenodd" clip-rule="evenodd" d="M224.758 58.5438V104.194H241.589C247.966 104.194 253.415 101.994 257.936 97.5945C262.497 93.1547 264.777 87.7461 264.777 81.3688C264.777 74.9915 262.497 69.6031 257.936 65.2036C253.415 60.7637 247.966 58.5438 241.589 58.5438H224.758ZM236.624 94.1435V68.5941H239.409C243.324 68.5941 246.473 69.7242 248.854 71.9845C251.235 74.2448 252.426 77.3729 252.426 81.3688C252.426 85.6069 251.175 88.7955 248.672 90.9347C246.21 93.0739 243.082 94.1435 239.288 94.1435H236.624Z" fill="white"/>
<path d="M277.307 68.5941H291.414V58.5438H265.44V104.194H291.414V94.1435H277.307V86.2729H290.687V76.2226H277.307V68.5941Z" fill="white"/>
<path fill-rule="evenodd" clip-rule="evenodd" d="M316.83 57.0302C312.431 57.0302 308.314 58.0191 304.479 59.9969C300.645 61.9343 297.537 64.7193 295.155 68.3519C292.774 71.9845 291.583 76.041 291.583 80.5212C291.583 87.9075 293.945 93.9619 298.667 98.6843C303.43 103.366 309.484 105.707 316.83 105.707C324.176 105.707 330.21 103.366 334.933 98.6843C339.695 93.9619 342.077 87.9075 342.077 80.5212C342.077 76.041 340.886 71.9845 338.505 68.3519C336.123 64.7193 333.015 61.9343 329.181 59.9969C325.347 58.0191 321.23 57.0302 316.83 57.0302ZM316.83 68.5335C320.342 68.5335 323.369 69.7444 325.912 72.1662C328.454 74.5879 329.726 77.3931 329.726 80.5817C329.726 84.4565 328.475 87.7057 325.972 90.3293C323.47 92.9125 320.422 94.2041 316.83 94.2041C313.238 94.2041 310.19 92.9125 307.688 90.3293C305.185 87.7057 303.934 84.4565 303.934 80.5817C303.934 77.3931 305.206 74.5879 307.749 72.1662C310.291 69.7444 313.319 68.5335 316.83 68.5335Z" fill="white"/>
<path d="M377.413 64.5044L374.444 70.2893C372.023 68.2712 369.399 67.2621 366.574 67.2621C365.322 67.2621 364.152 67.6052 363.062 68.2914C362.013 68.9775 361.488 69.9059 361.488 71.0764C361.488 71.8836 361.811 72.6101 362.457 73.2559C363.143 73.9017 363.769 74.3457 364.334 74.5879C364.939 74.8301 365.746 75.1126 366.755 75.4355L369.783 76.3437C373.334 77.3931 376.099 78.8865 378.077 80.8239C380.055 82.7209 381.044 85.3849 381.044 88.8157C381.044 94.3454 379.47 98.4421 376.321 101.106C372.931 103.972 368.612 105.405 363.365 105.405C357.633 105.405 352.285 103.669 347.321 100.198L352.406 90.632C355.999 93.7803 359.51 95.3544 362.941 95.3544C364.475 95.3544 365.807 94.971 366.937 94.2041C368.107 93.3968 368.693 92.2465 368.693 90.7531C368.693 88.6542 366.412 86.959 361.851 85.6674C361.69 85.627 361.569 85.5867 361.488 85.5463C359.308 84.9409 357.593 84.3758 356.342 83.8511C355.091 83.3264 353.839 82.5999 352.588 81.6715C351.337 80.7028 350.449 79.4919 349.924 78.0389C349.399 76.5858 349.137 74.7897 349.137 72.6505C349.137 68.0492 350.61 64.356 353.557 61.571C356.503 58.7456 360.277 57.3329 364.878 57.3329C367.179 57.3329 369.621 57.676 372.204 58.3622C372.564 58.4562 372.918 58.5544 373.266 58.6568L373.186 58.5438H387.414L395.95 70.9553L404.487 58.5438H418.715L401.883 82.277V104.194H390.017V82.277L377.413 64.5044Z" fill="white"/>
<path d="M442.513 62.7136L438.626 70.2893C436.204 68.2712 433.58 67.2621 430.755 67.2621C429.504 67.2621 428.333 67.6052 427.243 68.2914C426.194 68.9775 425.669 69.9059 425.669 71.0764C425.669 71.8836 425.992 72.6101 426.638 73.2559C427.324 73.9017 427.95 74.3457 428.515 74.5879C429.12 74.8301 429.927 75.1126 430.936 75.4355L433.964 76.3437C437.516 77.3931 440.28 78.8865 442.258 80.8239C444.236 82.7209 445.225 85.3849 445.225 88.8157C445.225 94.3454 443.651 98.4421 440.502 101.106C437.112 103.972 432.793 105.405 427.546 105.405C421.815 105.405 416.467 103.669 411.502 100.198L416.588 90.632C420.18 93.7803 423.691 95.3544 427.122 95.3544C428.656 95.3544 429.988 94.971 431.118 94.2041C432.289 93.3968 432.874 92.2465 432.874 90.7531C432.874 88.6542 430.593 86.959 426.032 85.6674C425.871 85.627 425.75 85.5867 425.669 85.5463C423.49 84.9409 421.774 84.3758 420.523 83.8511C419.272 83.3264 418.02 82.5999 416.769 81.6715C415.518 80.7028 414.63 79.4919 414.105 78.0389C413.581 76.5858 413.318 74.7897 413.318 72.6505C413.318 68.0492 414.791 64.356 417.738 61.571C420.684 58.7456 424.458 57.3329 429.06 57.3329C431.36 57.3329 433.802 57.676 436.385 58.3622C438.654 58.9556 440.697 59.7151 442.513 60.6406V58.5438H473.996V68.5941H464.188V104.194H452.321V68.5941H442.513V62.7136Z" fill="white"/>
<path d="M487.752 68.5941H501.858V58.5438H475.885V104.194H501.858V94.1435H487.752V86.2729H501.132V76.2226H487.752V68.5941Z" fill="white"/>
<path d="M523.461 58.5438H511.776L504.026 104.194H515.832L519.646 77.9178H519.767L530.241 104.194H534.964L545.922 77.9178H546.043L549.373 104.194H561.24L554.338 58.5438H542.532L532.724 82.9429L523.461 58.5438Z" fill="white"/>
<path d="M172.546 134.915C173.813 134.913 175.064 134.631 176.212 134.089C177.341 133.583 178.343 132.825 179.142 131.871V131.871L176.959 129.652C176.423 130.306 175.758 130.838 175.006 131.214C174.268 131.577 173.458 131.762 172.639 131.757C171.947 131.765 171.261 131.633 170.62 131.37C169.979 131.106 169.395 130.717 168.904 130.223C168.43 129.74 168.056 129.166 167.803 128.535C167.532 127.865 167.395 127.147 167.401 126.423C167.394 125.692 167.527 124.966 167.792 124.287C168.04 123.654 168.407 123.077 168.873 122.588C169.34 122.102 169.899 121.716 170.516 121.454C171.159 121.178 171.851 121.037 172.549 121.041C173.392 121.038 174.223 121.234 174.978 121.614C175.758 122.011 176.441 122.58 176.978 123.279V123.279L179.23 120.989C178.438 120.013 177.43 119.241 176.289 118.735C175.115 118.185 173.839 117.899 172.546 117.897C171.392 117.889 170.247 118.114 169.179 118.558C168.167 118.974 167.242 119.583 166.456 120.353C165.68 121.122 165.063 122.041 164.64 123.055C164.202 124.119 163.976 125.259 163.974 126.411C163.972 127.564 164.195 128.705 164.629 129.77C165.047 130.781 165.66 131.696 166.433 132.461C167.22 133.23 168.144 133.839 169.157 134.255C170.232 134.701 171.384 134.925 172.546 134.915V134.915ZM216.099 134.94C217.25 134.948 218.39 134.723 219.454 134.279C220.462 133.864 221.379 133.251 222.152 132.475C222.925 131.7 223.54 130.776 223.96 129.759C224.399 128.702 224.626 127.566 224.626 126.419C224.626 125.271 224.399 124.136 223.96 123.079C223.54 122.061 222.925 121.138 222.152 120.362C221.379 119.586 220.462 118.973 219.454 118.559C217.309 117.678 214.911 117.678 212.766 118.559C211.758 118.973 210.841 119.586 210.068 120.362C209.295 121.138 208.68 122.061 208.26 123.079C207.821 124.136 207.595 125.271 207.595 126.419C207.595 127.566 207.821 128.702 208.26 129.759C208.68 130.776 209.295 131.7 210.068 132.475C210.841 133.251 211.758 133.864 212.766 134.279C213.823 134.722 214.956 134.946 216.1 134.938L216.099 134.94ZM216.099 131.801C215.424 131.806 214.754 131.672 214.132 131.406C213.51 131.14 212.947 130.748 212.48 130.254C212.018 129.759 211.655 129.178 211.411 128.543C210.89 127.172 210.89 125.653 211.411 124.282C211.657 123.652 212.02 123.075 212.48 122.583C212.947 122.089 213.51 121.697 214.132 121.431C214.754 121.165 215.424 121.031 216.099 121.037C216.794 121.032 217.483 121.172 218.122 121.45C218.732 121.712 219.283 122.098 219.742 122.583C220.201 123.075 220.564 123.652 220.81 124.282C221.331 125.653 221.331 127.172 220.81 128.543C220.566 129.178 220.203 129.759 219.742 130.254C219.283 130.74 218.732 131.125 218.122 131.387C217.483 131.665 216.795 131.805 216.1 131.799L216.099 131.801ZM266.616 134.681V131.66H257.812V118.157H254.482V134.678L266.616 134.681ZM308.63 134.681V131.66H299.827V118.157H296.494V134.678L308.63 134.681ZM350.965 134.681V131.707H341.841V127.787H347.794V124.907H341.841V121.134H350.874V118.16H338.507V134.682L350.965 134.681ZM387.923 134.916C389.189 134.914 390.44 134.632 391.588 134.09C392.717 133.584 393.719 132.826 394.519 131.872V131.872L392.335 129.654C391.799 130.308 391.133 130.841 390.381 131.217C389.644 131.579 388.834 131.765 388.014 131.759C387.323 131.767 386.637 131.635 385.996 131.372C385.355 131.108 384.772 130.719 384.28 130.225C383.807 129.742 383.433 129.169 383.18 128.537C382.908 127.868 382.771 127.15 382.777 126.425C382.77 125.694 382.903 124.968 383.169 124.289C383.416 123.656 383.782 123.079 384.248 122.59C384.715 122.104 385.274 121.719 385.891 121.457C386.534 121.18 387.226 121.039 387.925 121.044C388.77 121.041 389.605 121.238 390.361 121.621C391.142 122.018 391.825 122.587 392.361 123.285V123.285L394.614 120.996C393.822 120.02 392.814 119.248 391.672 118.742C390.499 118.192 389.223 117.906 387.93 117.903C386.776 117.896 385.631 118.12 384.563 118.564C383.551 118.98 382.626 119.589 381.839 120.358C381.063 121.128 380.445 122.047 380.023 123.061C379.585 124.124 379.358 125.265 379.356 126.417C379.355 127.569 379.577 128.711 380.012 129.776C380.429 130.786 381.043 131.701 381.815 132.467C382.602 133.236 383.527 133.845 384.539 134.261C385.613 134.704 386.763 134.926 387.923 134.915V134.916ZM432.005 134.681V121.178H437.405V118.156H423.248V121.178H428.672V134.678L432.005 134.681ZM470.18 134.681V118.159H466.848V134.681H470.18ZM508.563 134.941C509.714 134.949 510.854 134.725 511.918 134.28C512.926 133.865 513.843 133.252 514.616 132.476C515.389 131.701 516.004 130.777 516.424 129.76C516.863 128.703 517.089 127.567 517.089 126.42C517.089 125.273 516.863 124.137 516.424 123.08C516.004 122.062 515.389 121.139 514.616 120.363C513.843 119.587 512.926 118.975 511.918 118.56C509.774 117.679 507.376 117.679 505.231 118.56C504.224 118.975 503.307 119.588 502.534 120.364C501.761 121.14 501.147 122.063 500.727 123.08C500.287 124.137 500.06 125.272 500.06 126.42C500.06 127.567 500.287 128.703 500.727 129.76C501.147 130.777 501.761 131.7 502.534 132.476C503.307 133.251 504.224 133.865 505.231 134.28C506.287 134.722 507.42 134.946 508.563 134.938V134.941ZM508.563 131.802C507.872 131.808 507.187 131.667 506.552 131.389C505.947 131.124 505.399 130.739 504.944 130.256C504.481 129.76 504.118 129.179 503.874 128.544C503.353 127.173 503.353 125.654 503.874 124.283C504.12 123.653 504.483 123.076 504.944 122.584C505.399 122.101 505.947 121.715 506.552 121.451C507.187 121.173 507.872 121.032 508.563 121.038C509.258 121.033 509.946 121.173 510.585 121.451C511.195 121.713 511.746 122.099 512.206 122.584C512.665 123.076 513.028 123.653 513.274 124.283C513.796 125.654 513.796 127.173 513.274 128.544C513.03 129.179 512.667 129.76 512.206 130.256C511.746 130.741 511.195 131.126 510.585 131.389C509.946 131.666 509.258 131.805 508.563 131.799V131.802ZM550.093 134.682V123.63L558.298 134.682H561.24V118.16H558.115V128.852L550.116 118.16H546.944V134.682H550.093Z" fill="white"/>
</svg>
