<svg width="120" height="81" viewBox="0 0 120 81" fill="none" xmlns="http://www.w3.org/2000/svg">
<path fill-rule="evenodd" clip-rule="evenodd" d="M20.5 4.5C20.5 2.29086 22.2909 0.5 24.5 0.5H95.5C97.7091 0.5 99.5 2.29086 99.5 4.5V44.5C99.5 46.7091 97.7091 48.5 95.5 48.5H24.5C22.2909 48.5 20.5 46.7091 20.5 44.5V4.5ZM24.5 2.5C23.3954 2.5 22.5 3.39543 22.5 4.5V44.5C22.5 45.6046 23.3954 46.5 24.5 46.5H95.5C96.6046 46.5 97.5 45.6046 97.5 44.5V4.5C97.5 3.39543 96.6046 2.5 95.5 2.5H24.5Z" fill="white"/>
<path fill-rule="evenodd" clip-rule="evenodd" d="M75.5 29.5H27.5V33.5H75.5V29.5ZM25.5 27.5V35.5H77.5V27.5H25.5Z" fill="white"/>
<path fill-rule="evenodd" clip-rule="evenodd" d="M75.5 23.5H27.5V27.5H75.5V23.5ZM25.5 21.5V29.5H77.5V21.5H25.5Z" fill="white"/>
<path fill-rule="evenodd" clip-rule="evenodd" d="M31.5 14.5H27.5V17.5H31.5V14.5ZM25.5 12.5V19.5H33.5V12.5H25.5Z" fill="white"/>
<path fill-rule="evenodd" clip-rule="evenodd" d="M37.5 14.5H33.5V17.5H37.5V14.5ZM31.5 12.5V19.5H39.5V12.5H31.5Z" fill="white"/>
<path fill-rule="evenodd" clip-rule="evenodd" d="M43.5 14.5H39.5V17.5H43.5V14.5ZM37.5 12.5V19.5H45.5V12.5H37.5Z" fill="white"/>
<path fill-rule="evenodd" clip-rule="evenodd" d="M49.5 14.5H45.5V17.5H49.5V14.5ZM43.5 12.5V19.5H51.5V12.5H43.5Z" fill="white"/>
<path fill-rule="evenodd" clip-rule="evenodd" d="M55.5 14.5H51.5V17.5H55.5V14.5ZM49.5 12.5V19.5H57.5V12.5H49.5Z" fill="white"/>
<path fill-rule="evenodd" clip-rule="evenodd" d="M61.5 14.5H57.5V17.5H61.5V14.5ZM55.5 12.5V19.5H63.5V12.5H55.5Z" fill="white"/>
<path fill-rule="evenodd" clip-rule="evenodd" d="M67.5 14.5H63.5V17.5H67.5V14.5ZM61.5 12.5V19.5H69.5V12.5H61.5Z" fill="white"/>
<path fill-rule="evenodd" clip-rule="evenodd" d="M73.5 14.5H69.5V17.5H73.5V14.5ZM67.5 12.5V19.5H75.5V12.5H67.5Z" fill="white"/>
<path fill-rule="evenodd" clip-rule="evenodd" d="M79.5 14.5H75.5V17.5H79.5V14.5ZM73.5 12.5V19.5H81.5V12.5H73.5Z" fill="white"/>
<path fill-rule="evenodd" clip-rule="evenodd" d="M91.5 2.5H65.5L65.5 7.5H91.5V2.5ZM65.5 0.5C64.3954 0.5 63.5 1.39543 63.5 2.5V7.5C63.5 8.60457 64.3954 9.5 65.5 9.5H91.5C92.6046 9.5 93.5 8.60457 93.5 7.5V2.5C93.5 1.39543 92.6046 0.5 91.5 0.5H65.5Z" fill="white"/>
<path fill-rule="evenodd" clip-rule="evenodd" d="M92.5 23.5H81.5V34.5H92.5V23.5ZM79.5 21.5V36.5H94.5V21.5H79.5Z" fill="white"/>
<path fill-rule="evenodd" clip-rule="evenodd" d="M63.5 35.5H39.5V39.5H63.5V35.5ZM37.5 33.5V41.5H65.5V33.5H37.5Z" fill="white"/>
<path fill-rule="evenodd" clip-rule="evenodd" d="M31.5 35.5H27.5V39.5H31.5V35.5ZM25.5 33.5V41.5H33.5V33.5H25.5Z" fill="white"/>
<path fill-rule="evenodd" clip-rule="evenodd" d="M37.5 35.5H33.5V39.5H37.5V35.5ZM31.5 33.5V41.5H39.5V33.5H31.5Z" fill="white"/>
<path fill-rule="evenodd" clip-rule="evenodd" d="M69.5 35.5H65.5V39.5H69.5V35.5ZM63.5 33.5V41.5H71.5V33.5H63.5Z" fill="white"/>
<path fill-rule="evenodd" clip-rule="evenodd" d="M75.5 35.5H71.5V39.5H75.5V35.5ZM69.5 33.5V41.5H77.5V33.5H69.5Z" fill="white"/>
<path d="M86.5 23.5H87.5V34.5H86.5V23.5Z" fill="white"/>
<path d="M81.5 29.5L81.5 28.5L92.5 28.5L92.5 29.5L81.5 29.5Z" fill="white"/>
</svg>
