<svg width="388" height="118" viewBox="0 0 388 118" fill="none" xmlns="http://www.w3.org/2000/svg">
<g clip-path="url(#clip0)">
<path d="M-0.069718 102V97.7232L20.9183 77.5272C24.5615 73.9368 27.0695 71.0592 28.4423 68.8944C29.8151 66.6768 30.5015 64.3272 30.5015 61.8456C30.5015 58.6776 29.2871 56.064 26.8583 54.0048C24.4823 51.9456 21.4727 50.916 17.8295 50.916C15.1367 50.916 12.6023 51.444 10.2263 52.5C7.90308 53.556 5.31588 55.2984 2.46468 57.7272L-0.940918 53.688C2.06868 51.048 5.13108 49.0944 8.24628 47.8272C11.3615 46.5072 14.5823 45.8472 17.9087 45.8472C20.5487 45.8472 23.0039 46.2432 25.2743 47.0352C27.5447 47.8272 29.4719 48.9096 31.0559 50.2824C32.6927 51.6552 33.9599 53.3184 34.8575 55.272C35.7551 57.1728 36.2039 59.2584 36.2039 61.5288C36.2039 63.1656 36.0191 64.6968 35.6495 66.1224C35.3327 67.548 34.7255 69 33.8279 70.4784C32.9831 71.904 31.8215 73.4616 30.3431 75.1512C28.8647 76.788 26.9903 78.6888 24.7199 80.8536L7.85028 96.9312H37.2335V102H-0.069718Z" fill="white"/>
<path d="M63.0397 102V46.56H87.1165C92.5021 46.56 96.8317 48.0384 100.105 50.9952C103.379 53.8992 105.016 57.7536 105.016 62.5584C105.016 67.3632 103.352 71.244 100.026 74.2008C96.7525 77.1576 92.4493 78.636 87.1165 78.636H69.1381V102H63.0397ZM86.6413 52.0248H69.1381V73.3296H86.6413C90.3901 73.3296 93.3733 72.3792 95.5909 70.4784C97.8085 68.5248 98.9173 65.9112 98.9173 62.6376C98.9173 59.364 97.8085 56.7768 95.5909 54.876C93.3733 52.9752 90.3901 52.0248 86.6413 52.0248Z" fill="white"/>
<path d="M119.071 45.2136V102H113.21V46.56L119.071 45.2136Z" fill="white"/>
<path d="M141.579 102.713C137.249 102.713 133.712 101.604 130.966 99.3864C128.273 97.1688 126.927 94.2912 126.927 90.7536C126.927 87.0576 128.352 84.1272 131.204 81.9624C134.055 79.7448 137.909 78.636 142.767 78.636C144.879 78.636 146.912 78.8736 148.865 79.3488C150.872 79.824 152.72 80.484 154.409 81.3288V76.1016C154.409 72.9336 153.512 70.5576 151.716 68.9736C149.921 67.3368 147.308 66.5184 143.876 66.5184C141.922 66.5184 139.942 66.8088 137.936 67.3896C135.982 67.9176 133.817 68.7888 131.441 70.0032L129.224 65.4888C132.075 64.116 134.715 63.1128 137.144 62.4792C139.572 61.8456 142.001 61.5288 144.43 61.5288C149.446 61.5288 153.3 62.7168 155.993 65.0928C158.739 67.4688 160.112 70.8744 160.112 75.3096V102H154.409V98.1192C152.614 99.6504 150.634 100.812 148.469 101.604C146.357 102.343 144.06 102.713 141.579 102.713ZM132.55 90.5952C132.55 92.8128 133.474 94.6344 135.322 96.06C137.223 97.4328 139.652 98.1192 142.608 98.1192C144.984 98.1192 147.149 97.7496 149.103 97.0104C151.056 96.2712 152.825 95.1096 154.409 93.5256V86.0808C152.772 84.972 151.004 84.18 149.103 83.7048C147.255 83.1768 145.196 82.9128 142.925 82.9128C139.757 82.9128 137.223 83.6256 135.322 85.0512C133.474 86.424 132.55 88.272 132.55 90.5952Z" fill="white"/>
<path d="M178.396 107.148L180.693 101.921L164.536 62.3208H171.03L183.861 94.872L197.721 62.3208H204.057L184.336 107.94C182.646 111.742 180.772 114.487 178.713 116.177C176.653 117.866 174.04 118.711 170.872 118.711C170.133 118.711 169.42 118.658 168.733 118.553C168.1 118.5 167.572 118.421 167.149 118.315V113.009C167.677 113.114 168.179 113.194 168.654 113.246C169.182 113.299 169.789 113.326 170.476 113.326C172.271 113.326 173.802 112.824 175.069 111.821C176.337 110.818 177.445 109.26 178.396 107.148Z" fill="white"/>
<path d="M241.378 97.8024C239.161 99.4392 236.837 100.68 234.409 101.525C232.033 102.317 229.419 102.713 226.568 102.713C223.717 102.713 221.024 102.185 218.489 101.129C216.008 100.073 213.843 98.6208 211.995 96.7728C210.2 94.9248 208.774 92.76 207.718 90.2784C206.662 87.744 206.134 85.0248 206.134 82.1208C206.134 79.2696 206.636 76.6032 207.639 74.1216C208.695 71.64 210.094 69.4752 211.837 67.6272C213.579 65.7792 215.638 64.3272 218.014 63.2712C220.443 62.2152 223.004 61.6872 225.697 61.6872C228.337 61.6872 230.792 62.2152 233.062 63.2712C235.385 64.3272 237.365 65.7792 239.002 67.6272C240.692 69.4752 242.012 71.64 242.962 74.1216C243.965 76.6032 244.467 79.2696 244.467 82.1208V83.9424H211.916C212.338 87.8496 213.949 91.0968 216.747 93.684C219.545 96.2712 222.898 97.5648 226.805 97.5648C228.865 97.5648 230.871 97.248 232.825 96.6144C234.778 95.9808 236.415 95.0832 237.735 93.9216L241.378 97.8024ZM225.538 66.8352C222.106 66.8352 219.123 67.9968 216.589 70.32C214.107 72.6432 212.602 75.6264 212.074 79.2696H238.606C238.078 75.7848 236.573 72.8544 234.092 70.4784C231.663 68.0496 228.812 66.8352 225.538 66.8352Z" fill="white"/>
<path d="M252.661 102V62.3208H258.521V67.944C259.683 65.8848 261.214 64.3008 263.115 63.192C265.016 62.0304 267.181 61.4496 269.609 61.4496C270.349 61.4496 271.009 61.5024 271.589 61.608C272.17 61.6608 272.751 61.7928 273.332 62.004V67.3896C272.645 67.1784 271.959 67.02 271.273 66.9144C270.586 66.756 269.9 66.6768 269.213 66.6768C266.785 66.6768 264.646 67.3896 262.798 68.8152C260.95 70.188 259.525 72.1944 258.521 74.8344V102H252.661Z" fill="white"/>
<path d="M275.537 96.5352L279.101 92.7336C280.896 94.4232 282.903 95.7432 285.12 96.6936C287.391 97.5912 289.687 98.04 292.011 98.04C295.179 98.04 297.766 97.38 299.772 96.06C301.779 94.74 302.782 93.024 302.782 90.912C302.782 89.2224 302.175 87.9024 300.96 86.952C299.799 85.9488 297.951 85.2624 295.416 84.8928L288.526 83.9424C284.566 83.3616 281.609 82.2 279.655 80.4576C277.755 78.6624 276.804 76.26 276.804 73.2504C276.804 69.924 278.203 67.1784 281.002 65.0136C283.8 62.796 287.364 61.6872 291.694 61.6872C294.545 61.6872 297.238 62.1096 299.772 62.9544C302.359 63.7992 304.867 65.1192 307.296 66.9144L304.207 70.8744C301.99 69.396 299.825 68.2872 297.713 67.548C295.654 66.8088 293.542 66.4392 291.377 66.4392C288.684 66.4392 286.467 67.0464 284.724 68.2608C283.035 69.4752 282.19 71.0592 282.19 73.0128C282.19 74.7024 282.771 76.0224 283.932 76.9728C285.094 77.8704 286.968 78.504 289.555 78.8736L296.446 79.824C300.406 80.352 303.363 81.54 305.316 83.388C307.323 85.1832 308.326 87.5856 308.326 90.5952C308.326 92.2848 307.903 93.8952 307.059 95.4264C306.267 96.9048 305.131 98.1984 303.653 99.3072C302.227 100.363 300.538 101.208 298.584 101.842C296.631 102.422 294.519 102.713 292.248 102.713C288.975 102.713 285.886 102.185 282.982 101.129C280.131 100.02 277.649 98.4888 275.537 96.5352Z" fill="white"/>
</g>
<defs>
<clipPath id="clip0">
<rect width="388" height="118" fill="white"/>
</clipPath>
</defs>
</svg>
