<svg width="388" height="118" viewBox="0 0 388 118" fill="none" xmlns="http://www.w3.org/2000/svg">
<g clip-path="url(#clip0)">
<path d="M-0.069718 102V97.7232L20.9183 77.5272C24.5615 73.9368 27.0695 71.0592 28.4423 68.8944C29.8151 66.6768 30.5015 64.3272 30.5015 61.8456C30.5015 58.6776 29.2871 56.064 26.8583 54.0048C24.4823 51.9456 21.4727 50.916 17.8295 50.916C15.1367 50.916 12.6023 51.444 10.2263 52.5C7.90308 53.556 5.31588 55.2984 2.46468 57.7272L-0.940918 53.688C2.06868 51.048 5.13108 49.0944 8.24628 47.8272C11.3615 46.5072 14.5823 45.8472 17.9087 45.8472C20.5487 45.8472 23.0039 46.2432 25.2743 47.0352C27.5447 47.8272 29.4719 48.9096 31.0559 50.2824C32.6927 51.6552 33.9599 53.3184 34.8575 55.272C35.7551 57.1728 36.2039 59.2584 36.2039 61.5288C36.2039 63.1656 36.0191 64.6968 35.6495 66.1224C35.3327 67.548 34.7255 69 33.8279 70.4784C32.9831 71.904 31.8215 73.4616 30.3431 75.1512C28.8647 76.788 26.9903 78.6888 24.7199 80.8536L7.85028 96.9312H37.2335V102H-0.069718Z" fill="white"/>
<path d="M63.0397 102V46.56H87.1165C92.5021 46.56 96.8317 48.0384 100.105 50.9952C103.379 53.8992 105.016 57.7536 105.016 62.5584C105.016 67.3632 103.352 71.244 100.026 74.2008C96.7525 77.1576 92.4493 78.636 87.1165 78.636H69.1381V102H63.0397ZM86.6413 52.0248H69.1381V73.3296H86.6413C90.3901 73.3296 93.3733 72.3792 95.5909 70.4784C97.8085 68.5248 98.9173 65.9112 98.9173 62.6376C98.9173 59.364 97.8085 56.7768 95.5909 54.876C93.3733 52.9752 90.3901 52.0248 86.6413 52.0248Z" fill="white"/>
<path d="M119.071 45.2136V102H113.21V46.56L119.071 45.2136Z" fill="white"/>
<path d="M141.579 102.713C137.249 102.713 133.712 101.604 130.966 99.3864C128.273 97.1688 126.927 94.2912 126.927 90.7536C126.927 87.0576 128.352 84.1272 131.204 81.9624C134.055 79.7448 137.909 78.636 142.767 78.636C144.879 78.636 146.912 78.8736 148.865 79.3488C150.872 79.824 152.72 80.484 154.409 81.3288V76.1016C154.409 72.9336 153.512 70.5576 151.716 68.9736C149.921 67.3368 147.308 66.5184 143.876 66.5184C141.922 66.5184 139.942 66.8088 137.936 67.3896C135.982 67.9176 133.817 68.7888 131.441 70.0032L129.224 65.4888C132.075 64.116 134.715 63.1128 137.144 62.4792C139.572 61.8456 142.001 61.5288 144.43 61.5288C149.446 61.5288 153.3 62.7168 155.993 65.0928C158.739 67.4688 160.112 70.8744 160.112 75.3096V102H154.409V98.1192C152.614 99.6504 150.634 100.812 148.469 101.604C146.357 102.343 144.06 102.713 141.579 102.713ZM132.55 90.5952C132.55 92.8128 133.474 94.6344 135.322 96.06C137.223 97.4328 139.652 98.1192 142.608 98.1192C144.984 98.1192 147.149 97.7496 149.103 97.0104C151.056 96.2712 152.825 95.1096 154.409 93.5256V86.0808C152.772 84.972 151.004 84.18 149.103 83.7048C147.255 83.1768 145.196 82.9128 142.925 82.9128C139.757 82.9128 137.223 83.6256 135.322 85.0512C133.474 86.424 132.55 88.272 132.55 90.5952Z" fill="white"/>
<path d="M178.396 107.148L180.693 101.921L164.536 62.3208H171.03L183.861 94.872L197.721 62.3208H204.057L184.336 107.94C182.646 111.742 180.772 114.487 178.713 116.177C176.653 117.866 174.04 118.711 170.872 118.711C170.133 118.711 169.42 118.658 168.733 118.553C168.1 118.5 167.572 118.421 167.149 118.315V113.009C167.677 113.114 168.179 113.194 168.654 113.246C169.182 113.299 169.789 113.326 170.476 113.326C172.271 113.326 173.802 112.824 175.069 111.821C176.337 110.818 177.445 109.26 178.396 107.148Z" fill="white"/>
<path d="M241.378 97.8024C239.161 99.4392 236.837 100.68 234.409 101.525C232.033 102.317 229.419 102.713 226.568 102.713C223.717 102.713 221.024 102.185 218.489 101.129C216.008 100.073 213.843 98.6208 211.995 96.7728C210.2 94.9248 208.774 92.76 207.718 90.2784C206.662 87.744 206.134 85.0248 206.134 82.1208C206.134 79.2696 206.636 76.6032 207.639 74.1216C208.695 71.64 210.094 69.4752 211.837 67.6272C213.579 65.7792 215.638 64.3272 218.014 63.2712C220.443 62.2152 223.004 61.6872 225.697 61.6872C228.337 61.6872 230.792 62.2152 233.062 63.2712C235.385 64.3272 237.365 65.7792 239.002 67.6272C240.692 69.4752 242.012 71.64 242.962 74.1216C243.965 76.6032 244.467 79.2696 244.467 82.1208V83.9424H211.916C212.338 87.8496 213.949 91.0968 216.747 93.684C219.545 96.2712 222.898 97.5648 226.805 97.5648C228.865 97.5648 230.871 97.248 232.825 96.6144C234.778 95.9808 236.415 95.0832 237.735 93.9216L241.378 97.8024ZM225.538 66.8352C222.106 66.8352 219.123 67.9968 216.589 70.32C214.107 72.6432 212.602 75.6264 212.074 79.2696H238.606C238.078 75.7848 236.573 72.8544 234.092 70.4784C231.663 68.0496 228.812 66.8352 225.538 66.8352Z" fill="white"/>
<path d="M252.661 102V62.3208H258.521V67.944C259.683 65.8848 261.214 64.3008 263.115 63.192C265.016 62.0304 267.181 61.4496 269.609 61.4496C270.349 61.4496 271.009 61.5024 271.589 61.608C272.17 61.6608 272.751 61.7928 273.332 62.004V67.3896C272.645 67.1784 271.959 67.02 271.273 66.9144C270.586 66.756 269.9 66.6768 269.213 66.6768C266.785 66.6768 264.646 67.3896 262.798 68.8152C260.95 70.188 259.525 72.1944 258.521 74.8344V102H252.661Z" fill="white"/>
<path d="M275.537 96.5352L279.101 92.7336C280.896 94.4232 282.903 95.7432 285.12 96.6936C287.391 97.5912 289.687 98.04 292.011 98.04C295.179 98.04 297.766 97.38 299.772 96.06C301.779 94.74 302.782 93.024 302.782 90.912C302.782 89.2224 302.175 87.9024 300.96 86.952C299.799 85.9488 297.951 85.2624 295.416 84.8928L288.526 83.9424C284.566 83.3616 281.609 82.2 279.655 80.4576C277.755 78.6624 276.804 76.26 276.804 73.2504C276.804 69.924 278.203 67.1784 281.002 65.0136C283.8 62.796 287.364 61.6872 291.694 61.6872C294.545 61.6872 297.238 62.1096 299.772 62.9544C302.359 63.7992 304.867 65.1192 307.296 66.9144L304.207 70.8744C301.99 69.396 299.825 68.2872 297.713 67.548C295.654 66.8088 293.542 66.4392 291.377 66.4392C288.684 66.4392 286.467 67.0464 284.724 68.2608C283.035 69.4752 282.19 71.0592 282.19 73.0128C282.19 74.7024 282.771 76.0224 283.932 76.9728C285.094 77.8704 286.968 78.504 289.555 78.8736L296.446 79.824C300.406 80.352 303.363 81.54 305.316 83.388C307.323 85.1832 308.326 87.5856 308.326 90.5952C308.326 92.2848 307.903 93.8952 307.059 95.4264C306.267 96.9048 305.131 98.1984 303.653 99.3072C302.227 100.363 300.538 101.208 298.584 101.842C296.631 102.422 294.519 102.713 292.248 102.713C288.975 102.713 285.886 102.185 282.982 101.129C280.131 100.02 277.649 98.4888 275.537 96.5352Z" fill="white"/>
<path fill-rule="evenodd" clip-rule="evenodd" d="M3.18011 26.3038C3.04908 25.6823 3.09916 21.5227 3.15205 20.7952C3.9919 20.6756 4.72554 20.6975 5.4654 20.7197C5.63271 20.7247 5.80034 20.7297 5.96958 20.7331C6.30298 20.7397 6.70587 20.7272 7.14148 20.7137C8.58844 20.6689 10.3963 20.6128 11.2167 21.2105C12.7084 22.2971 12.8834 24.4395 11.4439 25.672C10.6602 26.343 9.74038 26.3596 8.70356 26.3351C7.71995 26.3119 6.76395 26.3143 5.80892 26.3167C4.93933 26.3188 4.06943 26.321 3.18011 26.3038ZM3.20389 17.5989C3.18299 17.5173 3.08314 12.7101 3.18653 12.0966C3.18943 12.0795 3.19345 12.0609 3.19723 12.0434C3.1994 12.0334 3.20148 12.0237 3.20323 12.015L3.24716 11.8542C3.70209 11.7914 6.83244 11.7764 7.20051 11.8813C10.0741 12.7001 9.95809 16.7076 7.38033 17.4254C6.44999 17.6844 5.21629 17.6483 4.15753 17.6173C3.81611 17.6073 3.49288 17.5978 3.20389 17.5989ZM0.632389 29.3375L0.542303 29.3286C0.446338 28.7805 0.332299 28.1941 0.199168 27.5676C-0.0334783 26.1551 -0.0098146 24.9473 0.0154406 23.6584C0.0216638 23.3409 0.0279831 23.0184 0.0305892 22.6867L0.0213973 13.0696C0.013153 11.2211 0.0101101 10.238 1.34793 9.24527C2.31506 8.52749 3.77884 8.60897 5.05411 8.67996C5.35675 8.6968 5.64876 8.71306 5.921 8.7179C7.86244 8.75245 8.66619 8.93961 9.93068 9.79899C11.0329 10.5481 11.9664 11.7633 12.3079 13.4974C12.6504 15.2358 12.3989 15.8352 12.0799 16.5951C11.9343 16.9419 11.7746 17.3222 11.651 17.8596C11.7596 17.9749 11.9812 18.097 12.2613 18.2514C12.7481 18.5197 13.4119 18.8856 13.9681 19.4827C16.3947 22.0883 15.9193 25.724 13.6527 27.9018C11.9339 29.5533 9.96404 29.4903 7.68996 29.4175L7.6844 29.4174C7.574 29.4138 7.46289 29.4103 7.35106 29.4069C6.47806 29.3806 5.5996 29.3985 4.71861 29.4165C3.35894 29.4442 1.99326 29.472 0.632389 29.3375Z" fill="white"/>
<path fill-rule="evenodd" clip-rule="evenodd" d="M55.8824 11.6616C58.1268 10.6757 60.4818 11.0617 62.1614 11.8676C64.0123 12.7557 64.9151 13.8359 66.0427 15.9757C67.057 17.9003 66.5043 20.9001 65.8087 22.2823C63.8233 26.2275 59.2445 27.8134 55.3063 25.882C51.5466 24.0382 49.8051 19.157 51.8115 15.4391C52.7415 13.7155 53.7156 12.6134 55.8824 11.6616ZM55.5935 8.47424C54.9038 8.84824 53.6856 8.9105 51.7508 10.5196C50.6814 11.4091 49.9671 12.359 49.2717 13.4852C46.3282 18.2521 48.0132 25.4071 53.4368 28.4286C62.2593 33.3436 72.2039 24.7266 69.2439 15.5868C67.929 11.5266 64.2292 8.54901 60.3949 8.09665C59.3223 7.97014 56.7133 7.86695 55.5935 8.47424Z" fill="white"/>
<path fill-rule="evenodd" clip-rule="evenodd" d="M122.787 19.1972C122.42 18.0548 123.503 15.0901 123.982 14.2774C126.097 10.6884 129.57 10.0782 132.062 13.5193C133.231 15.1326 133.648 16.9145 133.772 19.1569C133.226 19.3202 124.647 19.1621 122.787 19.1972ZM122.628 29.2795C122.821 28.7909 122.729 23.4437 122.725 22.4338C123.055 22.3487 133.344 22.3408 133.667 22.4369C133.854 23.0581 133.771 25.0894 133.774 25.8794C133.778 26.6536 133.659 28.7398 133.841 29.341C137.522 28.9506 136.826 25.8889 136.962 24.2286C137.05 23.1513 136.956 21.7539 136.962 20.6013C136.97 19.1665 137.063 18.3954 136.769 16.7836C135.931 12.2059 132.771 7.87314 128.023 8.10762C122.995 8.3559 120.254 13.1008 119.716 16.9727C119.539 18.2501 119.509 22.6601 119.543 24.0959C119.567 25.116 119.353 26.7961 119.943 27.7335C120.476 28.5783 121.533 29.4669 122.628 29.2795Z" fill="white"/>
<path fill-rule="evenodd" clip-rule="evenodd" d="M20.4864 19.1111C20.0704 16.7218 21.982 11.5552 25.7095 11.2076C29.902 10.8166 31.8036 17.4931 31.3989 19.025C30.7171 19.2629 24.6679 19.1141 23.1435 19.1452C22.2384 19.1636 21.2968 19.0441 20.4864 19.1111ZM20.3515 29.1996C20.4467 27.2698 20.4111 24.2836 20.3507 22.3889C20.6544 22.2502 30.919 22.231 31.354 22.3506C31.5485 23.0248 31.4105 24.9571 31.4175 25.7573C31.4252 26.6246 31.3319 28.5479 31.492 29.2803C34.55 28.937 34.7835 26.6693 34.6157 24.1266L34.6354 20.5206C34.6556 16.6369 34.2553 13.5019 31.4055 10.4614C29.9831 8.94385 28.2681 8.05077 25.7375 8.0204C22.966 7.98712 21.0124 9.76116 19.8108 11.1809C18.6322 12.5734 17.7086 14.7728 17.399 16.8939C17.0816 19.0687 17.2346 21.7039 17.2113 23.9826C17.1999 25.102 17.0328 26.6023 17.6141 27.6733C18.125 28.6145 19.2349 29.3125 20.3515 29.1996Z" fill="white"/>
<path fill-rule="evenodd" clip-rule="evenodd" d="M108.632 11.5607C110.815 10.4853 113.076 11.8559 113.827 13.5104C114.878 15.8242 113.568 17.9483 111.828 18.6954C107.109 20.7214 103.871 13.9069 108.632 11.5607ZM106.325 22.0632C106.783 22.1759 107.123 22.6627 107.62 23.1651C108.645 24.2033 112.908 28.5768 113.572 28.9624C114.795 29.672 116.046 29.3241 117.186 28.5563C116.923 27.6516 111.639 23.2175 111.185 22.134C116.911 21.001 118.593 15.4252 116.321 11.5488C113.278 6.35753 105.32 7.11146 103.438 13.2252C102.971 14.7404 103.199 22.2275 103.187 24.0782L103.183 28.6378C103.179 29.0378 103.071 29.2443 103.415 29.3033C103.838 29.3758 104.878 28.9038 105.152 28.667C106.903 27.1512 106.057 25.0135 106.325 22.0632Z" fill="white"/>
<path fill-rule="evenodd" clip-rule="evenodd" d="M101.671 29.2954C101.222 25.3157 97.7382 26.4483 95.2954 26.2406C94.7458 26.1938 92.7514 26.3952 92.4898 26.1801L92.4053 26.0459C92.3986 26.0285 92.3788 25.9952 92.3718 25.9731C92.2683 25.6502 92.3821 23.7122 92.3569 23.0684C92.3174 22.0573 92.3469 20.8636 92.3662 19.8596C93.5852 19.5632 97.8318 20.0611 98.5993 19.6715C98.4922 18.1039 97.5174 17.1569 96.4725 16.8169C95.3455 16.4501 93.0813 16.8041 92.4243 16.6114C92.3342 16.1817 92.2761 12.169 92.4531 11.7677L98.1184 11.7389C99.2365 11.7841 100.006 11.5528 100.723 10.9067C101.24 10.4398 101.799 9.52877 101.622 8.6152L97.6391 8.57072C97.1096 8.57287 96.6361 8.63994 96.1216 8.62817C91.7301 8.52742 89.0635 7.88681 89.2366 13.3807C89.3054 15.5623 89.0749 25.9633 89.3497 27.0999C90.0404 29.9574 93.6609 29.3986 96.0933 29.3589C97.059 29.3431 97.9081 29.4132 98.8674 29.3631C99.7145 29.3188 100.889 29.4931 101.671 29.2954Z" fill="white"/>
<path fill-rule="evenodd" clip-rule="evenodd" d="M88.212 8.6731L82.6097 8.63307C80.4545 8.63174 78.6764 9.00029 76.8138 9.97491C68.1347 14.5163 69.9055 26.8023 79.5508 29.0492C81.3761 29.4743 83.1127 29.29 85.0512 29.365C85.4768 29.3815 85.9545 29.3648 86.4089 29.3596C87.9535 29.3417 88.6106 29.8019 88.0102 28.2195C87.0207 25.612 84.0819 26.3456 82.2715 26.2375C78.6459 26.021 75.73 24.5297 74.5851 20.8454C73.4578 17.2179 75.6424 13.8674 78.9179 12.456C82.7686 10.7967 85.1037 12.8217 87.2612 10.9134C87.8144 10.4241 88.3097 9.60373 88.212 8.6731Z" fill="white"/>
<path fill-rule="evenodd" clip-rule="evenodd" d="M40.0051 11.6836C40.2633 12.7317 39.8458 27.9447 40.1481 29.2885C43.8525 28.7677 43.1052 25.8906 43.1798 23.943C43.2468 22.1953 43.063 12.0534 43.2423 11.8119C43.4099 11.5861 44.0083 11.6831 44.1881 11.6885C44.9277 11.7104 46.8218 11.7081 47.4007 11.4821C48.7093 10.971 49.432 9.87083 49.3927 8.59581C49.0328 8.47477 36.4554 8.47125 34.5804 8.49796C33.7712 8.50945 33.7035 8.55345 33.9616 9.43126C34.7968 12.2721 38.0106 11.5843 40.0051 11.6836Z" fill="white"/>
</g>
<defs>
<clipPath id="clip0">
<rect width="388" height="118" fill="white"/>
</clipPath>
</defs>
</svg>
