<svg width="421" height="195" viewBox="0 0 421 195" fill="none" xmlns="http://www.w3.org/2000/svg">
<path d="M9.15479 194.543C10.4936 194.352 11.8158 193.866 13.0295 193.116C14.2231 192.409 15.282 191.45 16.1273 190.313L13.8194 188.269C13.253 189.047 12.5495 189.714 11.7546 190.227C10.9749 190.723 10.1188 191.042 9.2525 191.158C8.52144 191.269 7.79608 191.23 7.11839 191.044C6.44071 190.858 5.82417 190.529 5.30446 190.075C4.80401 189.63 4.4086 189.073 4.14122 188.437C3.85455 187.762 3.7102 187.016 3.71663 186.242C3.70883 185.463 3.84907 184.669 4.12958 183.904C4.39143 183.192 4.77946 182.521 5.27189 181.929C5.76571 181.342 6.35635 180.847 7.00861 180.476C7.68831 180.085 8.41987 179.832 9.15828 179.733C10.0488 179.604 10.9278 179.69 11.7256 179.983C12.5501 180.292 13.2721 180.797 13.8392 181.463L16.2203 178.684C15.3831 177.761 14.3178 177.086 13.111 176.716C11.8707 176.303 10.5211 176.187 9.15479 176.377C7.93441 176.54 6.72455 176.95 5.59527 177.582C4.52537 178.177 3.54849 178.965 2.71741 179.903C1.8971 180.84 1.24464 181.912 0.79806 183.058C0.335113 184.258 0.0957589 185.509 0.0937626 186.739C0.0917663 187.969 0.327167 189.155 0.786428 190.227C1.22772 191.243 1.87606 192.129 2.69298 192.832C3.52445 193.536 4.50174 194.048 5.572 194.342C6.70892 194.658 7.92677 194.726 9.15479 194.543ZM55.1924 188.099C56.4087 187.937 57.6145 187.528 58.7391 186.895C59.8043 186.302 60.7735 185.512 61.5908 184.569C62.4082 183.626 63.0575 182.549 63.5014 181.401C63.9663 180.207 64.2058 178.961 64.2058 177.736C64.2058 176.512 63.9663 175.333 63.5014 174.27C63.0576 173.246 62.4082 172.352 61.5909 171.639C60.7736 170.926 59.8044 170.408 58.7391 170.115C56.4718 169.493 53.9363 169.85 51.669 171.108C50.6037 171.701 49.6345 172.491 48.8172 173.434C47.9998 174.377 47.3505 175.454 46.9066 176.602C46.4421 177.796 46.2028 179.042 46.2028 180.267C46.2028 181.491 46.4421 182.67 46.9066 183.733C47.3506 184.757 47.9999 185.651 48.8172 186.364C49.6346 187.077 50.6037 187.595 51.669 187.888C52.7863 188.204 53.9835 188.277 55.1924 188.099ZM55.1924 184.748C54.4786 184.854 53.7711 184.811 53.1132 184.619C52.4554 184.428 51.861 184.093 51.3665 183.635C50.8787 183.175 50.4952 182.609 50.237 181.967C49.6861 180.581 49.6861 178.96 50.237 177.419C50.4974 176.71 50.8808 176.04 51.3665 175.447C51.861 174.85 52.4554 174.348 53.1132 173.972C53.7711 173.595 54.4786 173.353 55.1924 173.258C55.9271 173.15 56.6551 173.197 57.3305 173.399C57.9754 173.588 58.5579 173.918 59.0427 174.368C59.5285 174.825 59.9119 175.387 60.1722 176.023C60.7229 177.409 60.7229 179.03 60.1722 180.571C59.914 181.285 59.5305 181.959 59.0427 182.556C58.5579 183.142 57.9753 183.636 57.3305 184.007C56.6554 184.397 55.9267 184.651 55.1924 184.748ZM108.591 180.318V177.093L99.2851 178.401V163.987L95.7651 164.482V182.118L108.591 180.318ZM153.002 174.076V170.851L143.696 172.159V157.746L140.174 158.241V175.876L153.002 174.076ZM197.752 167.787V164.612L188.108 165.968V161.784L194.401 160.9V157.825L188.108 158.71V154.682L197.656 153.34V150.166L184.583 152.003V169.639L197.752 167.787ZM236.819 162.548C238.157 162.358 239.48 161.871 240.693 161.121C241.887 160.413 242.946 159.455 243.791 158.318L241.482 156.275C240.916 157.053 240.212 157.72 239.417 158.234C238.638 158.73 237.782 159.048 236.915 159.164C236.184 159.275 235.459 159.236 234.782 159.051C234.104 158.865 233.488 158.535 232.968 158.082C232.468 157.637 232.072 157.08 231.805 156.444C231.518 155.769 231.373 155.023 231.379 154.249C231.372 153.469 231.512 152.675 231.793 151.91C232.054 151.198 232.442 150.527 232.935 149.936C233.428 149.348 234.019 148.854 234.671 148.482C235.351 148.091 236.083 147.838 236.821 147.739C237.715 147.611 238.597 147.698 239.396 147.994C240.221 148.302 240.943 148.807 241.51 149.473L243.891 146.695C243.054 145.771 241.989 145.096 240.782 144.726C239.542 144.313 238.193 144.197 236.827 144.387C235.606 144.55 234.397 144.96 233.267 145.592C232.197 146.187 231.22 146.974 230.388 147.912C229.567 148.849 228.915 149.921 228.468 151.067C228.005 152.267 227.766 153.518 227.764 154.748C227.762 155.978 227.997 157.164 228.456 158.236C228.898 159.252 229.546 160.138 230.363 160.841C231.194 161.544 232.172 162.057 233.242 162.351C234.377 162.664 235.593 162.732 236.819 162.548ZM283.416 155.748V141.334L289.124 140.532V137.306L274.159 139.409V142.635L279.892 141.829V156.24L283.416 155.748ZM323.769 150.076V132.441L320.246 132.936V150.571L323.769 150.076ZM364.341 144.652C365.558 144.49 366.764 144.081 367.888 143.448C368.953 142.855 369.922 142.065 370.74 141.122C371.557 140.179 372.206 139.102 372.65 137.954C373.115 136.76 373.354 135.514 373.354 134.29C373.354 133.065 373.115 131.886 372.65 130.823C372.207 129.799 371.557 128.905 370.74 128.192C369.923 127.479 368.953 126.961 367.888 126.668C365.621 126.047 363.086 126.403 360.819 127.661C359.754 128.254 358.786 129.045 357.969 129.988C357.151 130.93 356.502 132.007 356.058 133.155C355.593 134.349 355.353 135.595 355.353 136.82C355.353 138.044 355.593 139.223 356.058 140.286C356.502 141.309 357.151 142.203 357.969 142.916C358.786 143.629 359.754 144.148 360.819 144.441C361.936 144.757 363.133 144.827 364.341 144.649V144.652ZM364.341 141.301C363.611 141.41 362.887 141.362 362.216 141.159C361.576 140.967 360.997 140.637 360.515 140.188C360.027 139.729 359.643 139.162 359.385 138.521C358.834 137.134 358.834 135.513 359.385 133.972C359.645 133.263 360.029 132.593 360.515 132C360.997 131.416 361.576 130.923 362.216 130.551C362.887 130.16 363.611 129.908 364.341 129.812C365.076 129.703 365.803 129.751 366.478 129.952C367.123 130.142 367.706 130.471 368.192 130.921C368.677 131.378 369.061 131.94 369.321 132.576C369.873 133.962 369.873 135.583 369.321 137.124C369.063 137.838 368.679 138.512 368.192 139.11C367.706 139.696 367.123 140.189 366.478 140.56C365.803 140.95 365.076 141.202 364.341 141.299V141.301ZM408.241 138.206V126.409L416.914 136.987L420.023 136.55V118.914L416.72 119.378V130.792L408.265 120.567L404.912 121.038V138.674L408.241 138.206Z" fill="white"/>
<path fill-rule="evenodd" clip-rule="evenodd" d="M3.8296 43.0658C3.67566 42.3502 3.73449 37.4074 3.79663 36.5357C4.78324 36.2551 5.64509 36.16 6.51424 36.0641C6.71079 36.0424 6.90771 36.0207 7.10653 35.9967C7.49819 35.9496 7.97149 35.8683 8.48321 35.7803C10.183 35.4882 12.3068 35.1232 13.2706 35.6968C15.0229 36.7396 15.2285 39.2522 13.5375 40.952C12.6168 41.8774 11.5363 42.0489 10.3183 42.191C9.16278 42.3259 8.03972 42.4866 6.91779 42.6471C5.89624 42.7932 4.87432 42.9394 3.8296 43.0658ZM3.85752 32.7354C3.83298 32.6419 3.71567 26.9557 3.83713 26.2108C3.84054 26.1901 3.84526 26.1673 3.84971 26.1459C3.85225 26.1337 3.8547 26.1219 3.85675 26.1112L3.90836 25.9132C4.44279 25.7637 8.12017 25.229 8.55256 25.2927C11.9284 25.7896 11.792 30.5628 8.7638 31.8399C7.67089 32.3008 6.22159 32.4616 4.97782 32.5997C4.57673 32.6442 4.19702 32.6863 3.85752 32.7354ZM0.836651 47.0853L0.730821 47.0897C0.618087 46.4553 0.484119 45.7785 0.327722 45.0572C0.0544213 43.4199 0.0822203 41.9833 0.111889 40.4501C0.1192 40.0724 0.126623 39.6888 0.129685 39.2949L0.118886 27.8877C0.109201 25.6962 0.105627 24.5304 1.67723 23.1318C2.81337 22.1207 4.53295 21.9757 6.03108 21.8493C6.3866 21.8193 6.72964 21.7904 7.04946 21.7512C9.33017 21.4717 10.2744 21.561 11.7598 22.3717C13.0547 23.0784 14.1513 24.3659 14.5525 26.3666C14.9549 28.3724 14.6593 29.1249 14.2846 30.079C14.1135 30.5145 13.926 30.9921 13.7808 31.6499C13.9084 31.7688 14.1686 31.8771 14.4978 32.014C15.0696 32.2519 15.8494 32.5764 16.5028 33.1929C19.3534 35.8833 18.7949 40.2748 16.1323 43.2326C14.1131 45.4755 11.799 45.7259 9.12754 46.0151L9.12101 46.0158C8.99132 46.0298 8.86079 46.044 8.72942 46.0584C7.70387 46.1713 6.67189 46.3376 5.63694 46.5044C4.03967 46.7617 2.43533 47.0202 0.836651 47.0853Z" fill="white"/>
<path fill-rule="evenodd" clip-rule="evenodd" d="M65.7417 16.9947C68.3784 15.4546 71.1449 15.5236 73.118 16.2024C75.2923 16.9503 76.3529 18.0828 77.6776 20.435C78.8691 22.5507 78.2198 26.2006 77.4027 27.9552C75.0703 32.9631 69.6913 35.6004 65.065 33.9594C60.6483 32.3928 58.6024 26.8898 60.9594 22.148C62.052 19.9498 63.1962 18.4815 65.7417 16.9947ZM65.4023 13.2612C64.5921 13.8187 63.161 14.0937 60.8882 16.322C59.6319 17.5537 58.7927 18.7986 57.9758 20.2494C54.5179 26.3903 56.4973 34.6001 62.8688 37.289C73.233 41.6631 84.9155 29.7989 81.4382 19.4452C79.8935 14.8456 75.5472 11.9241 71.0428 12.0205C69.7827 12.0476 66.7178 12.3559 65.4023 13.2612Z" fill="white"/>
<path fill-rule="evenodd" clip-rule="evenodd" d="M144.338 14.8881C143.907 13.5935 145.18 9.89757 145.742 8.85443C148.226 4.24764 152.306 2.95039 155.234 6.62111C156.607 8.34203 157.097 10.3869 157.243 13.0266C156.601 13.3105 146.523 14.5394 144.338 14.8881ZM144.152 26.8749C144.378 26.2635 144.27 19.9353 144.266 18.7378C144.653 18.5825 156.74 16.8744 157.119 16.9351C157.339 17.6412 157.242 20.0645 157.246 21.0011C157.249 21.9191 157.11 24.4135 157.324 25.0966C161.648 24.0258 160.83 20.5086 160.99 18.5165C161.094 17.224 160.983 15.5818 160.99 14.2134C160.999 12.5101 161.109 11.5799 160.763 9.7165C159.779 4.42428 156.067 -0.193955 150.489 0.868156C144.582 1.99281 141.362 8.07428 140.73 12.7562C140.522 14.3009 140.487 19.5374 140.527 21.235C140.555 22.4412 140.304 24.4696 140.998 25.4842C141.623 26.3985 142.865 27.278 144.152 26.8749Z" fill="white"/>
<path fill-rule="evenodd" clip-rule="evenodd" d="M24.1602 31.6759C23.6715 28.9102 25.9171 22.4654 30.296 21.4377C35.2212 20.2816 37.4551 27.888 36.9796 29.7721C36.1788 30.1669 29.0724 30.9891 27.2816 31.2777C26.2183 31.4489 25.1122 31.4625 24.1602 31.6759ZM24.0018 43.6661C24.1136 41.361 24.0717 37.8245 24.0008 35.5868C24.3575 35.3721 36.4159 33.6546 36.927 33.7247C37.1554 34.4923 36.9933 36.8074 37.0016 37.7555C37.0105 38.7832 36.901 41.0801 37.0891 41.9225C40.6815 41.0104 40.9557 38.2817 40.7586 35.2929L40.7817 31.0119C40.8055 26.4014 40.3352 22.7485 36.9874 19.612C35.3165 18.0466 33.3017 17.2703 30.3289 17.652C27.0731 18.0701 24.7781 20.4972 23.3665 22.3799C21.982 24.2263 20.897 26.9879 20.5333 29.5553C20.1604 32.1877 20.3401 35.2885 20.3128 37.9956C20.2994 39.3255 20.1031 41.1329 20.786 42.3074C21.3862 43.3395 22.69 43.9844 24.0018 43.6661Z" fill="white"/>
<path fill-rule="evenodd" clip-rule="evenodd" d="M127.71 8.16596C130.273 6.52987 132.929 7.78251 133.813 9.62118C135.047 12.1924 133.508 14.9286 131.464 16.1022C125.92 19.2848 122.116 11.7354 127.71 8.16596ZM125 21.0059C125.537 21.064 125.937 21.5853 126.52 22.0994C127.725 23.1617 132.732 27.6462 133.513 27.9939C134.949 28.6338 136.419 28.0145 137.758 26.9156C137.449 25.8857 131.242 21.498 130.709 20.2876C137.436 17.998 139.411 11.1058 136.742 6.88236C133.168 1.22633 123.819 3.43465 121.607 10.9982C121.059 12.8726 121.327 21.717 121.313 23.9144L121.308 29.3241C121.303 29.7993 121.177 30.062 121.581 30.0753C122.077 30.0915 123.299 29.3599 123.621 29.0337C125.678 26.9464 124.684 24.5501 125 21.0059Z" fill="white"/>
<path fill-rule="evenodd" clip-rule="evenodd" d="M119.532 30.3539C119.005 25.7067 114.912 27.6257 112.042 27.7825C111.397 27.8178 109.054 28.3859 108.746 28.1739L108.647 28.0287C108.639 28.0092 108.616 27.973 108.608 27.9479C108.486 27.5819 108.62 25.2641 108.59 24.5045C108.544 23.3116 108.578 21.8907 108.601 20.6964C110.033 20.1436 115.022 20.033 115.924 19.4441C115.798 17.6023 114.653 16.6398 113.425 16.4089C112.101 16.1599 109.441 16.9536 108.669 16.8335C108.564 16.3386 108.495 11.588 108.703 11.0826L115.359 10.1132C116.672 9.98217 117.576 9.58082 118.418 8.69604C119.026 8.05658 119.682 6.88366 119.475 5.82901L114.795 6.43389C114.173 6.52385 113.617 6.68159 113.013 6.75259C107.854 7.3581 104.721 7.03841 104.925 13.5272C105.005 16.1039 104.735 28.4806 105.057 29.7836C105.869 33.0594 110.122 31.7988 112.98 31.35C114.114 31.1719 115.111 31.1148 116.238 30.897C117.234 30.7046 118.613 30.7175 119.532 30.3539Z" fill="white"/>
<path fill-rule="evenodd" clip-rule="evenodd" d="M103.721 8.11176L97.1396 8.98923C94.6078 9.34347 92.519 10.0742 90.3309 11.538C80.1351 18.3583 82.2154 32.6408 93.5462 33.7138C95.6905 33.9168 97.7305 33.4115 100.008 33.1804C100.508 33.1297 101.069 33.031 101.603 32.9498C103.417 32.6735 104.189 33.1109 103.484 31.333C102.322 28.403 98.8691 29.7585 96.7424 29.9291C92.4832 30.2709 89.0577 28.9832 87.7127 24.8015C86.3884 20.6844 88.9548 16.349 92.8027 14.1339C97.3263 11.5297 100.07 13.5464 102.604 10.9264C103.254 10.2546 103.836 9.19963 103.721 8.11176Z" fill="white"/>
<path fill-rule="evenodd" clip-rule="evenodd" d="M47.0898 19.642C47.3932 20.8428 46.9027 38.9589 47.2578 40.5031C51.6096 39.2737 50.7317 35.984 50.8194 33.6612C50.898 31.5769 50.6821 19.576 50.8927 19.2599C51.0896 18.9643 51.7926 18.9806 52.0038 18.9573C52.8727 18.8612 55.0978 18.5458 55.7778 18.182C57.3151 17.3597 58.1641 15.9352 58.1179 14.4292C57.6952 14.345 42.9198 16.4173 40.7172 16.7586C39.7665 16.9058 39.687 16.9692 39.9902 17.9679C40.9713 21.2002 44.7468 19.8535 47.0898 19.642Z" fill="white"/>
<path d="M30.9692 95.82L36.565 83.7318L30.9692 73.167L22.5263 74.3536V97.0065L30.9692 95.82ZM0.09375 156.816L2.89168 153.598L5.68961 147.554V68.2435L0.09375 63.3295L39.3629 57.8106L44.9588 59.8496L47.7567 62.3314L50.6038 67.5821V95.8859L47.7567 101.986L44.9588 105.205L39.3629 108.817L22.5263 111.183V145.187L25.3242 150.445L28.1221 152.877L0.09375 156.816Z" fill="white"/>
<path d="M66.1611 147.531L60.5652 145.492L57.7673 143.06L54.9203 137.76V64.15L46.5265 56.8038L77.4019 52.4646L71.757 58.9584V129.743L91.3916 126.983L97.0365 120.539V143.192L66.1611 147.531Z" fill="white"/>
<path d="M129.578 81.9614V64.9593L123.933 60.1018L118.337 66.5391V83.5412L129.578 81.9614ZM95.9044 143.351L98.7024 140.132L101.5 134.088V63.2545L104.298 57.2104L109.943 50.7166L115.539 47.1048L132.376 44.7385L137.972 46.7775L143.567 51.6915L146.414 56.9422V127.776L149.212 133.034L152.01 135.466L126.78 139.012L129.578 135.793V98.9636L118.337 100.543V137.373L121.135 139.805L95.9044 143.351Z" fill="white"/>
<path d="M157.175 134.74L165.569 125.084V57.0756L154.328 58.6554L148.732 65.0927V42.4398L199.242 35.341V57.994L193.597 53.1365L182.406 54.7094V122.718L190.799 130.015L157.175 134.74Z" fill="white"/>
<path d="M195.312 129.38L203.706 119.724V43.2395L195.312 35.8934L245.822 28.7946V51.4476L240.177 46.5901L220.543 49.3496V69.1771L240.177 66.4177L245.822 59.9735V88.2773L240.177 83.4198L220.543 86.1793V117.358L228.986 124.648L195.312 129.38Z" fill="white"/>
<path d="M275.481 103.937L281.126 97.4924V43.6606L275.481 38.803L269.885 45.2403V99.0722L275.481 103.937ZM264.29 119.686L258.645 117.654L255.847 115.222L253.049 109.915V39.1303L255.847 33.0862L258.645 29.818L264.29 26.1992L286.722 23.0466L292.318 25.0855L295.116 27.5673L297.914 32.8249V103.609L295.116 109.703L292.318 112.922L286.722 116.533L264.29 119.686Z" fill="white"/>
<path d="M330.444 62.2574L337.463 47.0942L330.444 33.904L322.001 35.0906V63.444L330.444 62.2574ZM296.77 115.121L299.568 111.903L302.366 105.859V26.5484L296.77 21.6344L338.837 15.7222L344.482 17.7543L347.28 20.2361L352.876 30.7513V56.2298L347.28 68.3675L344.482 71.5861L338.837 75.2049L352.876 101.585L358.472 106.45L338.837 109.209L322.001 77.5711V103.099L324.848 108.35L327.646 110.782L296.77 115.121Z" fill="white"/>
<path d="M349.877 107.658L358.271 98.0017V21.5169L349.877 14.1707L383.551 9.4382L377.906 15.932L384.925 29.0726L391.944 13.959L386.348 9.04498L420.022 4.3125L411.579 14.0249V90.5097L420.022 97.7994L386.348 102.532L394.742 92.876V41.8696L384.925 63.0769L375.108 44.629V95.6354L383.551 102.925L349.877 107.658Z" fill="white"/>
</svg>
