<svg width="643" height="117" viewBox="0 0 643 117" fill="none" xmlns="http://www.w3.org/2000/svg">
<path d="M384.255 67.8302V100.301C384.255 109.263 391.367 116.537 400.129 116.537H435.923C444.685 116.537 451.796 108.266 451.796 99.3011L451.791 91.0056H436.044V94.1276C436.044 98.1579 433.16 101.107 429.223 101.107H406.961C403.029 101.107 400.145 98.1588 400.145 94.1276V73.9525C400.145 69.9222 403.028 66.9742 406.961 66.9742H427.81C431.746 66.9742 434.632 69.9222 434.632 73.9534V75.6346H450.379L450.384 67.332C450.384 58.3704 443.272 51.5961 434.511 51.5961H400.122C391.36 51.5961 384.249 58.8686 384.249 67.832L384.255 67.8302Z" fill="#F2F2F2"/>
<path fill-rule="evenodd" clip-rule="evenodd" d="M459.447 116.537H513.115C522.513 116.537 530.401 108.463 530.401 98.8593V69.2729C530.401 59.6681 522.512 51.5952 513.115 51.5952H459.447V116.537ZM475.402 66.9629V87.5961V101.115H505.832C510.697 101.115 514.646 97.0713 514.646 92.094V75.5541C514.646 70.5653 510.7 66.9629 505.832 66.9629H475.402Z" fill="#F2F2F2"/>
<path d="M604.939 58.9212C598.382 58.9212 591.701 62.1977 591.701 68.46V74.2527L591.767 74.2579V82.6337H642.999V73.6625H604.218C604.218 70.0024 605.655 68.5789 608.955 68.5789H631.123C637.68 68.5789 642.994 63.4944 642.994 57.2374V51.4377C642.994 45.178 637.68 40.0961 631.123 40.0961H605.031C598.473 40.0961 591.693 43.7589 591.693 50.0273V55.8209H604.593V54.6448C604.593 51.8335 606.751 49.7703 609.698 49.7703H626.284C629.121 49.7703 631.228 51.6851 631.376 54.3445C631.227 56.9961 629.12 58.9099 626.284 58.9099L604.929 58.916L604.939 58.9212ZM575.837 61.3923C580.797 61.0399 584.436 59.5748 584.436 54.4V48.6021C584.436 42.3415 579.116 40.0961 572.564 40.0961H549.39C542.841 40.0961 536.052 43.7589 536.052 50.0264V55.82H548.961V54.6439C548.961 51.8326 551.115 49.7695 554.061 49.7695H567.72C570.559 49.7695 572.665 50.2694 572.816 52.9228C572.666 55.5804 570.559 57.4882 567.721 57.4882L556.617 57.4951V65.3692H569.187C572.025 65.3692 574.128 67.2831 574.279 69.9416C574.129 72.5941 572.025 73.0879 569.187 73.0879H554.061C551.115 73.0879 548.961 71.0309 548.961 68.2196V67.0392H536.054V72.838C536.054 79.0977 542.84 82.7622 549.392 82.7622H574.033C581.512 82.6372 585.904 79.0994 585.904 72.838V68.46C585.904 62.7845 581.538 61.5754 575.845 61.4001" fill="#F2F2F2"/>
<path d="M18.0634 0C8.20794 0 0.249023 7.99279 0.249023 17.8144C0.249023 27.6699 8.24181 35.6289 18.0634 35.6289C19.96 35.6289 21.7889 35.324 23.4823 34.7822V25.875C21.9921 26.7216 20.2649 27.2297 18.436 27.2297C13.0172 27.2297 8.64822 22.9962 8.64822 17.8144C8.64822 12.6327 13.051 8.3992 18.436 8.3992C20.2987 8.3992 22.026 8.90722 23.4823 9.75391V0.846693C21.7889 0.30481 19.96 0 18.0634 0V0Z" fill="#F2F2F2"/>
<path d="M30.967 17.2387H23.6516V11.0409H36.9278L30.967 17.2387Z" fill="#F2F2F2"/>
<path d="M30.967 18.4919H23.6516V24.6897H36.9278L30.967 18.4919Z" fill="#F2F2F2"/>
<path fill-rule="evenodd" clip-rule="evenodd" d="M30.6031 6.70386C30.2222 7.08243 29.7156 7.29249 29.1766 7.29249C28.6399 7.29249 28.1355 7.08243 27.7535 6.70386C27.3691 6.32183 27.1614 5.81515 27.1614 5.27731C27.1614 4.16584 28.0697 3.26212 29.1766 3.26212C29.7156 3.26212 30.2222 3.47103 30.6031 3.85075C30.9828 4.23163 31.1929 4.73831 31.1929 5.27731C31.1929 5.81515 30.9828 6.32183 30.6031 6.70386ZM27.9916 4.09182C27.6765 4.40806 27.4999 4.82934 27.4999 5.27715C27.4999 5.72613 27.6765 6.14625 27.9916 6.46364C28.3101 6.77873 28.7291 6.95532 29.1769 6.95532C30.1037 6.95532 30.8551 6.20164 30.8551 5.27715C30.8551 4.82934 30.6785 4.40806 30.3634 4.09182C30.0472 3.77558 29.6247 3.59899 29.1769 3.59899C28.7291 3.59899 28.3101 3.77558 27.9916 4.09182Z" fill="#F2F2F2"/>
<path fill-rule="evenodd" clip-rule="evenodd" d="M30.1059 6.11527C30.1186 6.16721 30.1417 6.20183 30.1717 6.21338L30.2004 6.22717V6.35875H29.7675L29.7514 6.33106C29.7419 6.31382 29.7364 6.29402 29.7298 6.27068C29.7276 6.26275 29.7252 6.25442 29.7226 6.24565C29.7156 6.21333 29.711 6.15793 29.7064 6.07021L29.6892 5.71126C29.6845 5.59008 29.6418 5.51044 29.5622 5.4712C29.5149 5.45042 29.4318 5.43888 29.321 5.43888H28.7081V6.35875H28.3203V4.11504H29.3625C29.5333 4.11504 29.673 4.13813 29.7884 4.19011C30.0066 4.28821 30.1185 4.47519 30.1185 4.74065C30.1185 4.87915 30.0886 4.99342 30.032 5.08344C29.9893 5.15038 29.9293 5.20347 29.8623 5.24733C29.9166 5.27965 29.9639 5.31427 29.9951 5.35813C30.0435 5.42277 30.0724 5.51972 30.0771 5.65591L30.0863 5.94561C30.0886 6.02178 30.0967 6.07834 30.1059 6.11527ZM29.6276 5.02331C29.69 4.97714 29.7223 4.89403 29.7223 4.76823V4.76818C29.7223 4.63661 29.6784 4.54659 29.5861 4.50041C29.533 4.47502 29.4591 4.46238 29.3703 4.46238H28.7078V5.09717H29.3322C29.4568 5.09717 29.5561 5.07067 29.6276 5.02331Z" fill="#F2F2F2"/>
<path d="M66.1383 26.9854C68.2999 26.9854 70.0291 26.3801 71.4125 25.2561C72.7959 24.0889 73.4876 22.4893 73.5308 20.371C73.4876 18.2527 72.7959 16.6099 71.4125 15.4427C70.0291 14.2755 68.2999 13.7135 66.1383 13.7135C63.9768 13.7135 62.2476 14.3187 60.8642 15.4427C59.4808 16.5667 58.7891 18.2527 58.7458 20.371C58.7891 22.4893 59.4808 24.1321 60.8642 25.2561C62.2476 26.3801 63.9768 26.9854 66.1383 26.9854ZM66.1383 23.916C65.144 23.8727 64.4091 23.5269 63.9336 22.8352C63.458 22.1435 63.2419 21.3221 63.2851 20.3278C63.2851 19.3335 63.5012 18.5121 63.9336 17.8204C64.3659 17.1287 65.1008 16.7828 66.1383 16.7396C67.1326 16.7828 67.8676 17.1287 68.3431 17.8204C68.8187 18.5121 69.0348 19.3335 68.9916 20.3278C68.9916 21.2789 68.7754 22.1435 68.3431 22.8352C67.8676 23.5269 67.1326 23.8727 66.1383 23.916Z" fill="#F2F2F2"/>
<path d="M75.3032 26.6827H79.7128V21.3221C79.7128 19.9819 79.9289 18.9444 80.3612 18.2959C80.7935 17.6475 81.3988 17.3448 82.1769 17.3448C82.7822 17.3448 83.2577 17.6042 83.5171 18.0798C83.7765 18.5553 83.9494 19.1606 83.9494 19.8955V26.726H88.359V21.3653C88.359 20.0252 88.5751 18.9876 89.0074 18.3392C89.4397 17.6907 90.045 17.3881 90.8231 17.3881C91.4284 17.3881 91.9039 17.6475 92.1633 18.123C92.4227 18.5986 92.5956 19.2038 92.5956 19.9387V26.7692H97.0051V19.2902C97.0484 17.561 96.7458 16.2208 96.1405 15.2265C95.5353 14.2755 94.3248 13.7567 92.5091 13.7567C91.6013 13.7567 90.7367 13.9296 89.9585 14.3187C89.1803 14.7078 88.5319 15.313 88.0131 16.1776C87.6673 15.3562 87.1485 14.751 86.4568 14.3187C85.7651 13.9296 84.9437 13.7135 84.0359 13.7135C83.0416 13.7135 82.0905 13.9296 81.3123 14.3619C80.4909 14.7942 79.8857 15.4427 79.4102 16.3505H79.3669V14.0161H75.3464L75.3032 26.6827Z" fill="#F2F2F2"/>
<path d="M99.3827 26.6827H103.792V21.3221C103.792 19.9819 104.008 18.9444 104.441 18.2959C104.873 17.6475 105.478 17.3448 106.256 17.3448C106.862 17.3448 107.337 17.6042 107.597 18.0798C107.856 18.5553 108.029 19.1606 108.029 19.8955V26.726H112.438V21.3653C112.438 20.0252 112.655 18.9876 113.087 18.3392C113.519 17.6907 114.124 17.3881 114.903 17.3881C115.508 17.3881 115.983 17.6475 116.243 18.123C116.502 18.5986 116.675 19.2038 116.675 19.9387V26.7692H121.085V19.2902C121.128 17.561 120.825 16.2208 120.22 15.2265C119.615 14.2755 118.404 13.7567 116.589 13.7567C115.681 13.7567 114.816 13.9296 114.038 14.3187C113.26 14.7078 112.611 15.313 112.093 16.1776C111.747 15.3562 111.228 14.751 110.536 14.3187C109.845 13.9296 109.023 13.7135 108.115 13.7135C107.121 13.7135 106.17 13.9296 105.392 14.3619C104.57 14.7942 103.965 15.4427 103.49 16.3505H103.446V14.0161H99.4259L99.3827 26.6827Z" fill="#F2F2F2"/>
<path d="M130.207 26.9854C132.368 26.9854 134.097 26.3801 135.481 25.2561C136.864 24.0889 137.556 22.4893 137.599 20.371C137.556 18.2527 136.864 16.6099 135.481 15.4427C134.097 14.2755 132.368 13.7135 130.207 13.7135C128.045 13.7135 126.316 14.3187 124.932 15.4427C123.549 16.5667 122.857 18.2527 122.814 20.371C122.857 22.4893 123.549 24.1321 124.932 25.2561C126.316 26.3801 128.088 26.9854 130.207 26.9854ZM130.207 23.916C129.212 23.8727 128.477 23.5269 128.002 22.8352C127.526 22.1435 127.31 21.3221 127.353 20.3278C127.353 19.3335 127.569 18.5121 128.002 17.8204C128.434 17.1287 129.169 16.7828 130.207 16.7396C131.201 16.7828 131.936 17.1287 132.411 17.8204C132.887 18.5121 133.103 19.3335 133.06 20.3278C133.06 21.2789 132.844 22.1435 132.411 22.8352C131.936 23.5269 131.244 23.8727 130.207 23.916Z" fill="#F2F2F2"/>
<path d="M153.076 8.39618H148.666V15.6157H148.623C148.061 14.8808 147.412 14.4053 146.677 14.1027C145.943 13.8 145.121 13.6703 144.257 13.6703C142.484 13.7568 141.144 14.4053 140.236 15.7022C139.328 16.9991 138.853 18.469 138.853 20.0685C138.853 22.0139 139.371 23.6135 140.323 24.9104C141.317 26.2073 142.743 26.899 144.646 26.9422C145.683 26.9422 146.591 26.6828 147.369 26.2073C148.147 25.7318 148.709 25.1265 149.012 24.3916H149.055V26.6828H153.119L153.076 8.39618ZM143.305 20.1982C143.305 19.3336 143.522 18.5987 143.997 17.9934C144.473 17.3882 145.121 17.0856 145.986 17.0424C146.807 17.0424 147.456 17.3882 147.931 17.9934C148.407 18.5987 148.666 19.3768 148.666 20.3711C148.666 21.3222 148.363 22.1004 147.888 22.7056C147.412 23.3108 146.764 23.6135 145.986 23.6135C145.164 23.6135 144.516 23.2676 144.04 22.6624C143.565 22.0571 143.305 21.2358 143.305 20.1982V20.1982Z" fill="#F2F2F2"/>
<path d="M162.111 26.9854C164.273 26.9854 166.002 26.3801 167.385 25.2561C168.769 24.0889 169.46 22.4893 169.504 20.371C169.46 18.2527 168.769 16.6099 167.385 15.4427C166.002 14.2755 164.273 13.7135 162.111 13.7135C159.95 13.7135 158.22 14.3187 156.837 15.4427C155.454 16.6099 154.762 18.2527 154.719 20.371C154.762 22.4893 155.454 24.1321 156.837 25.2561C158.22 26.3801 159.993 26.9854 162.111 26.9854ZM162.111 23.916C161.117 23.8727 160.382 23.5269 159.906 22.8352C159.474 22.1435 159.215 21.3221 159.258 20.3278C159.258 19.3335 159.474 18.5121 159.906 17.8204C160.339 17.1287 161.074 16.7828 162.111 16.7396C163.105 16.7828 163.84 17.1287 164.316 17.8204C164.748 18.5121 165.008 19.3335 164.964 20.3278C164.964 21.2789 164.748 22.1435 164.316 22.8352C163.884 23.5269 163.149 23.8727 162.111 23.916Z" fill="#F2F2F2"/>
<path d="M180.614 13.8432C180.397 13.7999 180.138 13.7567 179.879 13.7567C179.619 13.7135 179.36 13.7135 179.101 13.7135C178.149 13.7135 177.371 13.9728 176.809 14.4484C176.204 14.9239 175.729 15.5724 175.339 16.3505H175.296V14.0161H171.276V26.726H175.685V21.3653C175.685 20.1116 175.945 19.1173 176.507 18.4256C177.069 17.7339 177.847 17.3881 178.884 17.3881C179.144 17.3881 179.403 17.3881 179.619 17.3881C179.879 17.3881 180.095 17.4313 180.354 17.5178L180.614 13.8432Z" fill="#F2F2F2"/>
<path d="M194.405 21.6249V20.8035C194.448 18.8581 193.929 17.1721 192.978 15.8319C191.984 14.4485 190.341 13.7568 188.006 13.6704C185.975 13.6704 184.375 14.2756 183.121 15.3996C181.868 16.5669 181.219 18.1664 181.219 20.2847C181.262 22.403 181.954 24.0458 183.337 25.1698C184.721 26.337 186.45 26.899 188.612 26.9423C189.433 26.9423 190.254 26.899 191.033 26.7694C191.811 26.6397 192.589 26.4235 193.281 26.1641V23.0515C192.632 23.3973 191.94 23.6567 191.292 23.7864C190.643 23.9593 189.995 24.0026 189.39 24.0026C188.309 24.0026 187.444 23.8296 186.796 23.4406C186.147 23.0515 185.758 22.4463 185.629 21.5816L194.405 21.6249ZM185.542 19.1175C185.585 18.3826 185.802 17.7341 186.191 17.2586C186.58 16.7398 187.185 16.4804 187.963 16.4804C188.828 16.4804 189.476 16.7398 189.822 17.2586C190.211 17.7773 190.384 18.3826 190.384 19.1175H185.542Z" fill="#F2F2F2"/>
<path d="M49.3645 26.8123C47.4624 26.2936 45.9925 25.4289 44.7821 24.0888C43.5716 22.7486 43.0096 21.5381 42.6638 19.3766C42.0153 15.14 43.831 11.2492 47.3327 9.56318C49.1052 8.69856 51.4829 8.26625 53.8606 8.26625C55.3304 8.26625 56.6273 8.52564 57.8378 8.74179L57.4487 12.5461C57.4487 12.5461 57.1461 12.4597 56.2815 12.2435C55.4601 12.0273 54.6387 11.9409 53.8173 11.9409C52.1746 11.9409 50.575 12.3732 49.5375 13.1946C47.0733 15.0967 47.0733 20.0683 49.6239 22.1434C51.1802 23.4403 53.9903 23.8726 56.4976 23.2241L57.6649 22.9215L58.0107 26.7691C57.2758 26.942 55.7195 27.2446 53.8173 27.2446C51.3099 27.2446 50.5318 27.1582 49.3645 26.8123V26.8123Z" fill="#F2F2F2"/>
<path fill-rule="evenodd" clip-rule="evenodd" d="M197.755 15.9323C197.492 16.1929 197.143 16.3376 196.772 16.3376C196.403 16.3376 196.056 16.1929 195.792 15.9323C195.528 15.6692 195.385 15.3203 195.385 14.95C195.385 14.1847 196.01 13.5624 196.772 13.5624C197.143 13.5624 197.492 13.7063 197.755 13.9677C198.016 14.23 198.161 14.5789 198.161 14.95C198.161 15.3203 198.016 15.6692 197.755 15.9323ZM195.956 14.1336C195.74 14.3514 195.618 14.6415 195.618 14.9498C195.618 15.259 195.74 15.5482 195.956 15.7668C196.176 15.9837 196.464 16.1053 196.773 16.1053C197.411 16.1053 197.928 15.5864 197.928 14.9498C197.928 14.6415 197.807 14.3514 197.59 14.1336C197.372 13.9159 197.081 13.7943 196.773 13.7943C196.464 13.7943 196.176 13.9159 195.956 14.1336Z" fill="#F2F2F2"/>
<path fill-rule="evenodd" clip-rule="evenodd" d="M197.413 15.5272C197.421 15.563 197.437 15.5868 197.458 15.5948L197.458 15.5947L197.478 15.6043V15.6949H197.18L197.168 15.6758C197.162 15.6639 197.158 15.6503 197.154 15.6342C197.152 15.6288 197.15 15.623 197.149 15.617C197.144 15.5947 197.141 15.5566 197.137 15.4962L197.126 15.249C197.122 15.1656 197.093 15.1108 197.038 15.0837C197.006 15.0694 196.948 15.0615 196.872 15.0615H196.45V15.6949H196.183V14.1499H196.901C197.018 14.1499 197.114 14.1658 197.194 14.2016C197.344 14.2692 197.421 14.3979 197.421 14.5807C197.421 14.6761 197.401 14.7548 197.362 14.8167C197.332 14.8628 197.291 14.8994 197.245 14.9296C197.282 14.9518 197.315 14.9757 197.336 15.0059C197.37 15.0504 197.389 15.1171 197.393 15.2109L197.399 15.4104C197.401 15.4628 197.406 15.5018 197.413 15.5272ZM197.084 14.7756C197.127 14.7438 197.149 14.6865 197.149 14.5999V14.5999C197.149 14.5092 197.119 14.4472 197.055 14.4154C197.019 14.3979 196.968 14.3892 196.906 14.3892H196.45V14.8265H196.88C196.966 14.8265 197.034 14.8082 197.084 14.7756Z" fill="#F2F2F2"/>
<path d="M74.2049 112.663C74.2049 111.82 74.0364 111.146 73.531 110.978C73.0256 110.641 72.5202 110.473 71.6779 110.473C68.9825 109.967 67.4663 108.956 66.9609 107.44C66.4555 105.755 66.2871 103.734 66.2871 101.207L63.5916 49.3199C63.5916 47.4668 63.4232 45.9506 63.0862 44.6029C62.7493 43.4237 61.5701 42.7498 59.38 42.5813C57.5269 42.5813 56.1792 43.2552 55.3369 44.266C54.4946 45.2768 53.6522 46.6245 52.6414 47.9722L19.2855 94.8053L13.7262 102.723C12.5469 104.408 11.3677 105.924 10.1884 107.44C8.8407 108.956 7.15607 109.799 5.13449 110.136C3.95524 110.304 2.94445 110.472 1.93367 110.809C0.922881 111.146 0.417488 111.989 0.249023 113.336C0.249023 114.179 0.585952 114.684 1.09135 114.853C1.59674 115.021 2.2706 115.19 2.94446 115.19C4.79757 115.19 6.81914 115.021 8.84071 114.853C10.8623 114.684 12.7154 114.516 14.737 114.516C16.5901 114.516 18.2747 114.684 19.9594 114.853C21.644 115.021 23.4971 115.021 25.1817 115.19C26.0241 115.19 26.6979 115.021 27.3718 114.684C28.0456 114.347 28.3826 113.673 28.3826 112.831C28.2141 111.483 27.5403 110.809 26.0241 110.641C24.5079 110.473 23.1602 110.136 21.644 109.799C20.1278 109.462 19.454 108.451 19.2855 106.598C19.6224 104.745 20.8017 102.049 22.9917 98.68C25.1818 95.3107 26.6979 92.7837 27.7087 91.436H48.4298C48.5983 93.6261 48.5983 95.8161 48.7668 98.0062C48.9352 100.196 48.9352 102.386 48.9352 104.576C48.7668 107.609 48.0929 109.462 46.5767 109.967C45.0606 110.472 43.5444 110.809 42.1966 110.809C40.6805 110.809 39.8382 111.82 39.8382 113.336C39.8382 114.01 40.0066 114.516 40.512 114.853C41.0174 115.19 41.5228 115.19 42.1966 115.19C45.0605 115.19 47.9244 115.021 50.7883 114.853C53.6522 114.684 56.5161 114.516 59.38 114.516C61.2331 114.516 63.2547 114.684 65.1078 114.684C66.9609 114.853 68.9825 114.853 70.8356 114.853C71.6779 114.853 72.5202 114.684 73.0256 114.516C73.868 114.179 74.2049 113.673 74.2049 112.663V112.663ZM48.5983 86.2137H31.2465L47.756 62.1232L48.5983 86.2137Z" fill="#F2F2F2"/>
<path d="M224.812 46.6247C224.812 45.9508 224.644 45.6138 224.138 45.2769C223.801 44.94 223.296 44.7715 222.622 44.7715C221.611 44.7715 220.769 44.7716 219.927 44.94C219.084 44.94 218.073 45.1085 217.231 45.2769C214.873 45.4454 212.683 45.6139 210.324 45.7823C207.966 45.7823 205.607 45.7823 203.249 45.7823C201.564 45.7823 199.879 45.6139 198.026 45.6139C196.342 45.4454 194.657 45.4454 192.804 45.4454C191.961 45.4454 191.288 45.6138 190.614 46.1192C189.94 46.6246 189.603 47.2985 189.603 48.1408C189.94 49.657 191.119 50.4993 193.141 50.3308C195.162 50.1624 196.342 51.1732 196.678 53.0263C196.678 53.5317 196.678 54.0371 196.51 54.7109C196.342 55.2163 196.173 55.7217 196.005 56.3956L182.864 101.881C182.359 104.071 181.854 105.924 181.18 107.44C180.506 108.956 179.158 109.967 176.968 110.473C175.957 110.641 174.778 110.81 173.43 111.147C172.083 111.483 171.24 112.326 171.24 113.505C171.24 114.179 171.577 114.684 172.083 115.021C172.588 115.358 173.262 115.527 173.936 115.527C176.126 115.527 178.484 115.358 180.674 115.19C183.033 115.021 185.223 114.853 187.581 114.853C190.108 114.853 192.467 115.021 194.994 115.19C197.521 115.358 199.879 115.358 202.406 115.527C203.417 115.527 204.596 115.527 205.944 115.358C207.292 115.19 207.966 114.516 208.134 113.168C207.966 111.82 207.292 111.146 206.112 110.978C204.933 110.81 203.586 110.641 202.406 110.304C201.227 109.967 200.553 108.788 200.385 106.766C200.385 105.924 200.553 105.082 200.722 104.239C200.89 103.397 201.227 102.555 201.395 101.712L214.536 56.0586C215.041 54.2055 215.546 52.8578 216.22 52.0155C216.894 51.1732 218.242 50.4993 220.095 50.1624C221.106 49.9939 222.117 49.8254 223.296 49.3201C224.138 48.4777 224.644 47.8039 224.812 46.6247V46.6247Z" fill="#F2F2F2"/>
<path d="M293.209 47.1297C293.04 45.9504 291.861 45.2766 289.84 44.7712C287.65 44.2658 285.46 44.0973 283.101 43.9289C280.743 43.7604 279.226 43.7604 278.384 43.7604C269.624 43.7604 260.527 45.6135 251.093 48.9828C241.659 52.5206 233.573 57.5745 226.834 64.3131C220.095 71.0517 216.558 79.3064 216.389 89.0773C216.558 95.3105 218.242 100.364 221.78 104.408C225.318 108.451 229.529 111.483 234.92 113.505C240.143 115.526 245.533 116.537 251.261 116.537C254.631 116.537 258 116.369 261.538 115.863C264.907 115.526 268.276 114.852 271.645 114.01C272.825 113.842 274.004 113.505 274.846 112.999C275.689 112.662 276.362 111.82 276.868 110.472C277.71 107.945 278.553 105.25 279.395 102.554C280.237 99.859 280.911 97.1636 281.585 94.6367C282.764 90.9305 284.28 88.572 285.965 87.8981C287.65 87.2242 289.166 86.8873 290.513 86.8873C291.861 86.8873 292.535 86.045 292.535 84.3603C292.535 83.6865 292.198 83.1811 291.693 82.8442C291.187 82.5072 290.513 82.3387 290.008 82.3387C287.481 82.3387 284.786 82.5072 282.259 82.6757C279.563 82.8442 277.036 83.0126 274.341 83.0126C271.814 83.0126 269.287 82.8442 266.928 82.6757C264.402 82.5072 261.875 82.3387 259.516 82.3387C258.674 82.3387 257.831 82.5072 257.158 82.8442C256.315 83.1811 255.978 83.8549 255.978 84.6972C256.147 85.8765 256.821 86.5504 258 86.7188C259.348 86.8873 260.527 87.0558 261.875 87.5611C263.222 87.8981 263.896 89.0773 263.896 90.9304C263.728 92.952 263.222 95.479 262.043 99.0167C261.032 102.386 260.021 105.081 259.348 107.272C259.011 108.788 258.337 109.967 257.663 110.641C256.989 111.315 255.81 111.652 254.125 111.652C248.06 111.483 243.343 109.63 240.311 105.755C237.11 101.881 235.594 97.1636 235.594 91.2674C235.594 85.8765 236.773 80.4856 238.963 75.4317C241.153 70.3778 244.186 65.8292 247.892 61.9545C251.598 58.2483 256.315 55.0475 261.706 52.3521C267.265 49.6567 272.656 48.309 278.047 48.1405C280.574 48.1405 282.09 48.6459 282.764 49.6567C283.27 50.6674 283.606 52.3521 283.438 54.7106C283.438 55.3844 283.438 55.8899 283.27 56.5637C283.27 57.2376 283.101 57.743 283.101 58.4168C283.101 59.4276 283.27 60.4384 283.606 61.2807C283.943 62.123 284.786 62.6284 285.965 62.6284C287.313 62.46 288.155 61.9546 288.829 60.7753C289.503 59.5961 289.84 58.4168 290.177 57.406C290.513 56.5637 291.019 54.8791 291.861 52.1836C292.535 49.4882 293.04 47.8036 293.209 47.1297V47.1297Z" fill="#F2F2F2"/>
<path d="M352.845 112.663C352.845 111.82 352.676 111.147 352.171 110.978C351.665 110.641 351.16 110.473 350.318 110.473C347.622 109.967 346.106 108.956 345.601 107.44C345.095 105.756 344.927 103.734 344.927 101.207L342.231 49.3201C342.231 47.467 342.063 45.9508 341.726 44.6031C341.389 43.4238 340.21 42.75 338.02 42.5815C336.167 42.5815 334.819 43.2554 333.977 44.2661C333.134 45.2769 332.292 46.6247 331.281 47.9724L297.925 94.8055L292.366 102.723C291.187 104.408 290.007 105.924 288.828 107.44C287.48 108.956 285.796 109.799 283.774 110.136C282.595 110.304 281.584 110.473 280.573 110.81C279.563 111.147 279.057 111.989 278.889 113.337C278.889 114.179 279.226 114.684 279.731 114.853C280.236 115.021 280.91 115.19 281.584 115.19C283.437 115.19 285.459 115.021 287.48 114.853C289.502 114.684 291.355 114.516 293.377 114.516C295.23 114.516 296.914 114.684 298.599 114.853C300.452 115.021 302.137 115.021 303.821 115.19C304.664 115.19 305.338 115.021 306.011 114.684C306.685 114.347 307.022 113.673 307.022 112.831C306.854 111.483 306.18 110.81 304.664 110.641C303.148 110.473 301.8 110.136 300.284 109.799C298.767 109.462 298.094 108.451 297.925 106.598C298.262 104.745 299.441 102.049 301.631 98.6802C303.821 95.3109 305.338 92.7839 306.348 91.4362H327.238C327.406 93.6262 327.406 95.8163 327.575 98.0063C327.743 100.196 327.743 102.386 327.743 104.576C327.575 107.609 326.901 109.462 325.385 109.967C323.869 110.473 322.352 110.81 321.005 110.81C319.489 110.81 318.646 111.82 318.646 113.337C318.646 114.01 318.815 114.516 319.32 114.853C319.826 115.19 320.331 115.19 321.005 115.19C323.869 115.19 326.733 115.021 329.596 114.853C332.46 114.684 335.324 114.516 338.188 114.516C340.041 114.516 342.063 114.684 343.916 114.684C345.769 114.853 347.791 114.853 349.644 114.853C350.486 114.853 351.328 114.684 351.834 114.516C352.508 114.179 352.845 113.673 352.845 112.663V112.663ZM327.069 86.2138H309.718L326.227 62.1234L327.069 86.2138Z" fill="#F2F2F2"/>
<path d="M180.674 46.9616C180.674 46.2877 180.506 45.7823 180 45.4454C179.664 45.1085 179.158 44.94 178.484 44.94C176.294 44.94 174.104 44.94 171.914 45.1084C169.724 45.2769 167.534 45.2769 165.344 45.2769C164.165 45.2769 162.48 45.1084 160.122 45.1084C157.763 45.1084 156.247 45.2769 155.405 45.9508C155.236 46.1192 155.068 46.4562 155.068 46.6247C154.899 46.9616 154.731 47.13 154.731 47.2985L126.092 90.5938L124.913 47.9724C124.913 47.13 124.913 46.4562 124.744 45.9508C124.576 45.2769 124.07 45.1085 123.228 44.94C120.869 44.94 118.342 44.94 115.984 45.1084C113.625 45.1084 111.099 45.1084 108.74 45.1084C107.392 45.1084 106.045 44.94 104.697 44.94C103.349 44.7716 102.001 44.7715 100.654 44.7715C99.8114 44.7715 98.9691 44.94 98.1268 45.1084C97.2844 45.4454 96.9475 45.9508 96.779 46.9616C97.116 48.6462 98.4637 49.4885 100.654 49.3201C103.012 49.3201 104.191 50.1624 104.528 51.6786C104.528 52.8578 104.191 54.0371 103.855 55.2163C103.349 56.3956 103.012 57.5748 102.675 58.5856C100.148 65.6611 97.6214 72.5681 95.0944 79.6436C92.5674 86.7191 90.0405 93.6262 87.345 100.702C86.3342 103.734 85.3235 105.756 84.3127 106.935C83.3019 108.114 81.2803 108.956 78.0795 109.462C77.2372 109.63 76.3948 109.799 75.721 110.304C75.0471 110.641 74.7102 111.315 74.7102 112.326C74.7102 113.168 75.0471 113.673 75.5525 114.01C76.0579 114.179 76.7318 114.347 77.5741 114.347C79.4272 114.347 81.2803 114.347 83.1334 114.179C84.9865 114.01 86.8396 114.01 88.6928 114.01C90.3774 114.01 92.062 114.179 93.7467 114.347C95.4313 114.516 97.116 114.516 98.8006 114.684C99.6429 114.684 100.317 114.516 100.991 114.179C101.665 113.842 102.001 113.168 102.17 112.326C102.001 110.81 101.328 110.136 99.8114 109.967C98.2952 109.799 96.779 109.63 95.2629 109.293C93.7467 108.956 92.9044 107.609 92.9044 105.25C93.0728 102.049 94.2521 97.1639 96.4421 90.5938C98.6322 84.1922 100.822 77.7906 103.349 71.7258C105.708 65.6611 107.392 61.618 108.235 59.4279L109.414 108.956C109.414 110.473 109.582 111.652 109.919 112.663C110.256 113.505 111.267 114.01 112.952 114.01C114.636 114.01 115.984 113.337 116.995 112.157C118.006 110.978 118.848 109.799 119.69 108.451L153.046 59.4279L142.096 100.87C141.759 102.723 141.254 104.408 140.58 106.261C139.906 108.114 138.558 109.125 136.705 109.63C135.526 109.63 134.347 109.967 132.999 110.136C131.651 110.473 130.809 111.315 130.64 112.663C130.64 113.505 130.977 114.01 131.483 114.347C131.988 114.684 132.662 114.853 133.336 114.853C135.694 114.853 138.221 114.684 140.58 114.516C142.938 114.347 145.465 114.179 147.824 114.179C150.351 114.179 152.878 114.347 155.236 114.516C157.763 114.684 160.29 114.853 162.649 114.853C163.659 114.853 164.333 114.684 165.176 114.347C165.849 114.01 166.355 113.337 166.355 112.326C166.186 111.147 165.681 110.304 164.502 110.136C163.322 109.967 162.143 109.63 160.964 109.293C159.785 108.956 159.111 107.946 159.111 106.093C159.111 104.913 159.279 103.566 159.616 102.218C159.953 100.87 160.122 99.6909 160.459 98.5117L171.072 55.8902C171.409 54.0371 171.914 52.5209 172.588 51.5101C173.262 50.4993 174.441 49.8255 176.463 49.4885C177.473 49.4885 178.484 49.1516 179.495 48.8147C180 48.9831 180.674 48.3093 180.674 46.9616V46.9616Z" fill="#F2F2F2"/>
<path fill-rule="evenodd" clip-rule="evenodd" d="M359.889 50.749C359.011 51.6219 357.843 52.1062 356.6 52.1062C355.362 52.1062 354.2 51.6219 353.319 50.749C352.433 49.8682 351.953 48.6999 351.953 47.4598C351.953 44.897 354.048 42.8133 356.6 42.8133C357.843 42.8133 359.011 43.295 359.889 44.1705C360.765 45.0487 361.249 46.217 361.249 47.4598C361.249 48.6999 360.765 49.8682 359.889 50.749ZM353.868 44.7274C353.141 45.4565 352.734 46.4279 352.734 47.4604C352.734 48.4956 353.141 49.4643 353.868 50.1961C354.602 50.9226 355.568 51.3298 356.601 51.3298C358.737 51.3298 360.47 49.592 360.47 47.4604C360.47 46.4279 360.063 45.4565 359.336 44.7274C358.607 43.9982 357.633 43.591 356.601 43.591C355.568 43.591 354.602 43.9982 353.868 44.7274Z" fill="#F2F2F2"/>
<path fill-rule="evenodd" clip-rule="evenodd" d="M358.743 49.3933C358.772 49.513 358.826 49.5928 358.895 49.6195L358.895 49.6193L358.961 49.6513V49.9546H357.963L357.926 49.8908C357.904 49.8511 357.891 49.8054 357.876 49.7516C357.871 49.7333 357.865 49.7141 357.859 49.6939C357.843 49.6194 357.833 49.4916 357.822 49.2894L357.782 48.4617C357.772 48.1823 357.673 47.9987 357.49 47.9082C357.38 47.8603 357.189 47.8337 356.933 47.8337H355.52V49.9547H354.626V44.7813H357.029C357.423 44.7813 357.745 44.8345 358.011 44.9544C358.514 45.1806 358.772 45.6117 358.772 46.2238C358.772 46.5431 358.703 46.8066 358.573 47.0141C358.474 47.1685 358.336 47.2909 358.182 47.392C358.307 47.4665 358.416 47.5464 358.488 47.6475C358.599 47.7965 358.666 48.0201 358.677 48.3341L358.698 49.0021C358.703 49.1777 358.722 49.3081 358.743 49.3933ZM357.643 46.8761C357.786 46.7696 357.861 46.5779 357.861 46.2878V46.2877C357.861 45.9842 357.76 45.7766 357.547 45.6701C357.424 45.6115 357.254 45.5824 357.049 45.5824H355.521V47.0464H356.961C357.249 47.0464 357.477 46.9853 357.643 46.8761Z" fill="#F2F2F2"/>
</svg>
