<svg width="294" height="89" viewBox="0 0 294 89" xmlns="http://www.w3.org/2000/svg">
  <defs>
    <linearGradient id="mainlogo__a" x1="44.2289" y1="0" x2="44.2289" y2="88.45" gradientUnits="userSpaceOnUse" class="mainlogo__paint0_linear_3282">
      <stop stop-color="#091A35"/>
      <stop offset="0.504808" stop-color="#112A5C"/>
      <stop offset="1" stop-color="#1384B5"/>
    </linearGradient>
  </defs>
  <g class="mainlogo__mainlogo">
    <path d="m135.712 30.268-2.964 5.21c-2.283-1.595-5.377-2.555-8.078-2.555-3.087 0-4.997 1.278-4.997 3.567 0 2.78 3.393 3.428 8.436 5.238 5.421 1.917 8.537 4.17 8.537 9.135 0 6.793-5.342 10.608-13.02 10.608-3.742 0-8.256-.966-11.726-3.077l2.162-5.776c2.819 1.489 6.191 2.372 9.197 2.372 4.052 0 5.978-1.495 5.978-3.705 0-2.53-2.937-3.29-7.678-4.86-5.403-1.803-9.147-4.17-9.147-9.665 0-6.197 4.963-9.756 12.104-9.756 4.977 0 8.977 1.577 11.196 3.264Z" fill="white" class="mainlogo__Vector"/>
    <g class="mainlogo__Group mainlogo__579">
      <circle cx="44.2289" cy="44.225" r="44.225" fill="url(#mainlogo__a)" class="mainlogo__Ellipse mainlogo__222"/>
      <g class="mainlogo__Subtract">
        <path d="M58.832 24.454a8.35 8.35 0 1 1-8.35 8.35 8.35 8.35 0 0 1 8.35-8.35Z" fill="white"/>
        <path fill-rule="evenodd" clip-rule="evenodd" d="M58.815 16.14c9.198 0 16.682 7.484 16.682 16.683 0 9.2-7.484 16.684-16.682 16.684-.127 0-.254 0-.38-.01l-15.038 10.73c.01.196.016.394.016.592 0 6.906-5.617 12.522-12.522 12.522-6.061 0-11.129-4.326-12.277-10.055L1.67 56.284a44.259 44.259 0 0 1-1.665-12.06c0-1.192.048-2.373.14-3.541l23.699 9.797a12.443 12.443 0 0 1 7.745-2.158L42.132 33.04v-.216c0-9.199 7.483-16.682 16.683-16.682ZM34.489 52.12a9.359 9.359 0 0 0-6.926-.104l5.613 2.32a6.92 6.92 0 0 1 3.725 9.048 6.916 6.916 0 0 1-9.048 3.724l-5.433-2.245a9.351 9.351 0 0 0 4.84 4.607c4.783 1.992 10.296-.278 12.289-5.064a9.323 9.323 0 0 0 .014-7.188 9.335 9.335 0 0 0-5.074-5.098Zm24.325-30.413c-6.13 0-11.117 4.987-11.117 11.116 0 6.13 4.987 11.115 11.116 11.115 6.13 0 11.117-4.986 11.117-11.115 0-6.129-4.987-11.116-11.117-11.116Z" fill="white"/>
      </g>
    </g>
    <path d="M151.903 60.9V33.56h-10.13v-5.986h27.209v5.986h-10.1V60.9h-6.979ZM197.051 41.051v5.986h-13.356v7.821h15.496V60.9h-22.473V27.574h22.473v5.968h-15.496v7.51h13.356ZM214.767 54.428l-2.206 6.471h-7.316l12.495-33.325h7.025l12.848 33.324h-7.563l-2.254-6.47h-13.029Zm6.446-18.905-4.551 13.343h9.196l-4.645-13.343ZM260.373 59.928l-8.972-19.299V60.9h-6.683V27.574h6.668l11.2 24.056 10.802-24.056h6.726V60.9h-6.682V40.455l-9.12 19.473h-3.939ZM293.605 31.777c0 2.864-2.146 4.649-4.609 4.649-2.472 0-4.623-1.785-4.623-4.65 0-2.862 2.151-4.635 4.623-4.635 2.464 0 4.609 1.773 4.609 4.636Zm-8.457 0c0 2.396 1.726 3.9 3.848 3.9 2.114 0 3.833-1.504 3.833-3.9 0-2.403-1.719-3.885-3.833-3.885-2.116 0-3.848 1.5-3.848 3.885Zm3.912-2.37c1.195 0 1.597.633 1.597 1.316 0 .626-.371 1.046-.823 1.26l1.071 2.007h-.877l-.903-1.78h-.931v1.78h-.73v-4.582h1.596Zm-.859 2.133h.814c.527 0 .838-.331.838-.747 0-.42-.223-.69-.84-.69h-.813v1.437h.001Z" fill="white" class="mainlogo__Vector"/>
  </g>
</svg>
