<svg width="294" height="89" viewBox="0 0 294 89" fill="none" xmlns="http://www.w3.org/2000/svg">
<path d="M44.2324 0C68.6634 0 88.4697 19.8053 88.4697 44.2383C88.4696 68.6672 68.6643 88.4727 44.2324 88.4727C23.9815 88.4726 6.92288 74.8599 1.67285 56.292L18.6299 63.2979C19.7779 69.0268 24.8453 73.3525 30.9062 73.3525C37.8112 73.3525 43.4287 67.737 43.4287 60.8311C43.4287 60.6331 43.4231 60.4342 43.4131 60.2393L58.4512 49.5088C58.5771 49.5188 58.7032 49.5186 58.8301 49.5186C68.0291 49.5186 75.5127 42.034 75.5127 32.835C75.5127 23.636 68.0291 16.1523 58.8301 16.1523C49.6303 16.1525 42.1475 23.6361 42.1475 32.835V33.0508L31.6035 48.334C31.3725 48.323 31.1393 48.3135 30.9053 48.3135C28.2943 48.3135 25.8674 49.1182 23.8584 50.4922L0.148438 40.6895C1.95744 17.9185 20.9944 7.84374e-06 44.2324 0ZM27.5781 52.0273C29.7421 51.2103 32.2059 51.1748 34.5049 52.1318C36.8218 53.0979 38.6232 54.9086 39.5781 57.2295C40.535 59.5494 40.5294 62.1041 39.5645 64.418C37.5715 69.204 32.0584 71.4734 27.2764 69.4814C25.0644 68.5594 23.3985 66.88 22.4355 64.875L27.8691 67.1201C31.3961 68.5911 35.4499 66.9234 36.917 63.3955C38.387 59.8685 36.7184 55.8177 33.1914 54.3477L27.5781 52.0273ZM58.8291 21.7188C64.959 21.7189 69.9453 26.706 69.9453 32.835C69.9452 38.9638 64.9589 43.9501 58.8291 43.9502C52.7002 43.9502 47.713 38.9649 47.7129 32.835C47.7129 26.706 52.7001 21.7188 58.8291 21.7188ZM58.8477 24.4658C54.2359 24.4659 50.4972 28.2037 50.4971 32.8154C50.4971 37.4264 54.2358 41.1659 58.8477 41.166C63.4597 41.166 67.1992 37.4274 67.1992 32.8154C67.199 28.2036 63.4595 24.4658 58.8477 24.4658Z" fill="white"/>
<path d="M135.712 30.2679L132.748 35.4779C130.465 33.8829 127.371 32.9229 124.67 32.9229C121.583 32.9229 119.673 34.2009 119.673 36.4899C119.673 39.2709 123.066 39.9179 128.109 41.7279C133.53 43.6449 136.646 45.8979 136.646 50.8629C136.646 57.6559 131.304 61.4709 123.626 61.4709C119.884 61.4709 115.37 60.5049 111.9 58.3939L114.062 52.6179C116.881 54.1069 120.253 54.9899 123.259 54.9899C127.311 54.9899 129.237 53.4949 129.237 51.2849C129.237 48.7559 126.3 47.9959 121.559 46.4259C116.156 44.6219 112.412 42.2549 112.412 36.7599C112.412 30.5629 117.375 27.0039 124.516 27.0039C129.493 27.0039 133.493 28.5809 135.712 30.2679Z" fill="white"/>
<path d="M151.903 60.8992V33.5602H141.773V27.5742H168.982V33.5602H158.882V60.8992H151.903Z" fill="white"/>
<path d="M197.051 41.0512V47.0372H183.695V54.8582H199.191V60.8992H176.718V27.5742H199.191V33.5422H183.695V41.0512H197.051Z" fill="white"/>
<path d="M214.767 54.4282L212.561 60.8992H205.245L217.74 27.5742H224.765L237.613 60.8982H230.05L227.796 54.4272L214.767 54.4282ZM221.213 35.5232L216.662 48.8662H225.858L221.213 35.5232Z" fill="white"/>
<path d="M260.373 59.9282L251.401 40.6292V60.8992H244.718V27.5742H251.386L262.586 51.6302L273.388 27.5742H280.114V60.8992H273.432V40.4552L264.312 59.9282H260.373Z" fill="white"/>
<path d="M293.605 31.7766C293.605 34.6406 291.459 36.4256 288.996 36.4256C286.524 36.4256 284.373 34.6406 284.373 31.7766C284.373 28.9136 286.524 27.1406 288.996 27.1406C291.46 27.1406 293.605 28.9136 293.605 31.7766ZM285.148 31.7766C285.148 34.1726 286.874 35.6776 288.996 35.6776C291.11 35.6776 292.829 34.1726 292.829 31.7766C292.829 29.3736 291.11 27.8916 288.996 27.8916C286.88 27.8916 285.148 29.3916 285.148 31.7766ZM289.06 29.4076C290.255 29.4076 290.657 30.0396 290.657 30.7226C290.657 31.3486 290.286 31.7686 289.834 31.9826L290.905 33.9896H290.028L289.125 32.2106H288.194V33.9896H287.464V29.4076H289.06ZM288.201 31.5396H289.015C289.542 31.5396 289.853 31.2086 289.853 30.7926C289.853 30.3726 289.63 30.1026 289.013 30.1026H288.2V31.5396H288.201Z" fill="white"/>
</svg>
