<svg width="481" height="172" viewBox="0 0 481 172" fill="none" xmlns="http://www.w3.org/2000/svg">
<path d="M26.605 132.933L39.4674 72.4199H49.9587V132.92H44.2087C40.895 132.92 38.2087 135.606 38.2087 138.92V153.67C38.2087 156.984 40.895 159.67 44.2087 159.67H62.7087C66.0224 159.67 68.7087 156.984 68.7087 153.67V138.92C68.7087 136.035 66.6728 133.626 63.9587 133.05V72.4199H83.2087V132.92H80.7087C77.395 132.92 74.7087 135.606 74.7087 138.92V153.67C74.7087 156.984 77.395 159.67 80.7087 159.67H99.7087C103.022 159.67 105.709 156.984 105.709 153.67V50.4199C105.709 47.1062 103.022 44.4199 99.7087 44.4199H36.4587C34.2843 44.4199 32.3853 45.5772 31.3353 47.2966C30.6391 48.0596 30.1298 49.0136 29.9006 50.092L12.2949 132.92H7.70874C4.39503 132.92 1.70874 135.606 1.70874 138.92V153.67C1.70874 156.984 4.39503 159.67 7.70874 159.67H26.2087C29.5225 159.67 32.2087 156.984 32.2087 153.67V138.92C32.2087 135.739 29.734 133.137 26.605 132.933Z" fill="white"/>
<path d="M112.965 0.650391H159.459L158.091 4.92369L157.92 5.09463H129.033L128.862 6.46208L126.982 13.4703L126.469 15.1796L155.356 15.3506L154.673 18.2564L154.16 19.4529H124.931L124.76 20.8204L121.683 31.4182L120.828 34.4949H103.051L103.222 33.1275L105.273 26.2902L106.983 20.6494L110.23 9.88072L112.965 0.650391Z" fill="white"/>
<path fill-rule="evenodd" clip-rule="evenodd" d="M106.47 0.650391H62.0273L59.9761 7.65861L52.7969 32.7856L52.4551 34.4949H68.5227L72.4541 20.6494L72.6251 19.4529H101L103.564 11.2482L106.128 2.53064L106.47 0.650391ZM88.009 5.09463H77.0693L76.3856 7.14581L74.6763 12.9575L73.9925 15.6924H84.7612L84.9322 15.5215L85.7868 12.1028L88.009 5.09463Z" fill="white"/>
<path fill-rule="evenodd" clip-rule="evenodd" d="M55.8739 0.650391H11.0897L9.55128 5.09463L7.15823 12.7866L6.9873 13.9831H23.9096L24.2514 13.2994L26.3026 7.14581L26.8154 5.43649H37.4132L36.2167 9.02606L34.6783 14.325L34.3364 16.0343H6.30357L5.27797 19.4529L3.22679 26.1193L1.00467 33.1275L0.83374 34.4949H46.3017L46.6435 33.4694L48.1819 27.9995L51.6006 16.0343L55.532 2.53064L55.8739 0.650391ZM33.3108 19.7948H23.0549L22.2003 21.846L20.1491 28.5123L19.8072 30.0507H30.405L30.5759 29.8798L31.0887 27.6577L33.3108 19.7948Z" fill="white"/>
<path fill-rule="evenodd" clip-rule="evenodd" d="M116.709 44.4199C113.395 44.4199 110.709 47.1062 110.709 50.4199V66.4199C110.709 69.7336 113.395 72.4199 116.709 72.4199H118.834V153.67C118.834 156.984 121.52 159.67 124.834 159.67H143.334C146.647 159.67 149.334 156.984 149.334 153.67V138.92C149.334 135.606 146.647 132.92 143.334 132.92H141.334V113.42L175.584 113.42C178.897 113.42 181.584 110.734 181.584 107.42V50.4199C181.584 47.1062 178.897 44.4199 175.584 44.4199H116.709ZM159.084 99.4199H132.834V72.4199H159.084V99.4199Z" fill="white"/>
<path d="M216.334 44.4199C213.02 44.4199 210.334 47.1062 210.334 50.4199V66.4199C210.334 69.7336 213.02 72.4199 216.334 72.4199H219.709V132.92H216.709C213.395 132.92 210.709 135.606 210.709 138.92V153.67C210.709 156.984 213.395 159.67 216.709 159.67H245.209C248.522 159.67 251.209 156.984 251.209 153.67V138.92C251.209 135.606 248.522 132.92 245.209 132.92H242.209V50.4199C242.209 47.1062 239.522 44.4199 236.209 44.4199H216.334Z" fill="white"/>
<path fill-rule="evenodd" clip-rule="evenodd" d="M410.602 45.4464C409.567 46.1455 408.761 47.1609 408.322 48.3613C408.221 48.6367 408.14 48.9216 408.081 49.2139C408 49.606 407.959 50.0097 407.959 50.4199V153.67C407.959 156.984 410.645 159.67 413.959 159.67H472.834C476.147 159.67 478.834 156.984 478.834 153.67V50.4199C478.834 47.1062 476.147 44.4199 472.834 44.4199H413.959C412.72 44.4199 411.561 44.7985 410.602 45.4464ZM456.334 131.67H421.959V72.4199H464.834V114.17H462.334C459.02 114.17 456.334 116.856 456.334 120.17V131.67Z" fill="white"/>
<path fill-rule="evenodd" clip-rule="evenodd" d="M333.596 45.5988C332.561 46.2978 331.755 47.3132 331.316 48.5136C331.216 48.7891 331.135 49.0739 331.075 49.3663C330.995 49.7583 330.953 50.162 330.953 50.5723V153.822C330.953 157.136 333.639 159.822 336.953 159.822H395.828C399.142 159.822 401.828 157.136 401.828 153.822V50.5723C401.828 47.2586 399.142 44.5723 395.828 44.5723H336.953C335.714 44.5723 334.555 44.9508 333.596 45.5988ZM379.328 131.822H344.953V72.5723H387.828V114.322H385.328C382.014 114.322 379.328 117.009 379.328 120.322V131.822Z" fill="white"/>
<path fill-rule="evenodd" clip-rule="evenodd" d="M256.852 45.4464C255.817 46.1455 255.011 47.1609 254.572 48.3613C254.471 48.6367 254.39 48.9216 254.331 49.2139C254.25 49.606 254.209 50.0097 254.209 50.4199V153.67C254.209 156.984 256.895 159.67 260.209 159.67H319.084C322.397 159.67 325.084 156.984 325.084 153.67V50.4199C325.084 47.1062 322.397 44.4199 319.084 44.4199H260.209C258.97 44.4199 257.811 44.7985 256.852 45.4464ZM302.584 131.67H268.209V72.4199H311.084V114.17H308.584C305.27 114.17 302.584 116.856 302.584 120.17V131.67Z" fill="white"/>
</svg>
