<svg width="120" height="81" viewBox="0 0 120 81" fill="none" xmlns="http://www.w3.org/2000/svg">
<path fill-rule="evenodd" clip-rule="evenodd" d="M35.5249 2.5V24.4374H84.4751V2.5H35.5249ZM35.3595 0.5C34.3463 0.5 33.5249 1.32138 33.5249 2.33459V26.4374H86.4751V2.33459C86.4751 1.32138 85.6537 0.5 84.6405 0.5H35.3595Z" fill="white"/>
<path fill-rule="evenodd" clip-rule="evenodd" d="M35.5249 26.4375V51.9808H84.4751V26.4375H35.5249ZM35.3595 24.4375C34.3463 24.4375 33.5249 25.2589 33.5249 26.2721V52.1462C33.5249 53.1594 34.3463 53.9808 35.3595 53.9808H84.6405C85.6537 53.9808 86.4751 53.1594 86.4751 52.1462V26.2721C86.4751 25.2589 85.6537 24.4375 84.6405 24.4375H35.3595Z" fill="white"/>
<path fill-rule="evenodd" clip-rule="evenodd" d="M47.8008 4.34668V22.6219H72.3892V4.34668H47.8008ZM47.7113 3.34668C47.2085 3.34668 46.8008 3.75435 46.8008 4.25724V22.7113C46.8008 23.2142 47.2085 23.6219 47.7113 23.6219H72.4786C72.9815 23.6219 73.3892 23.2142 73.3892 22.7113V4.25724C73.3892 3.75435 72.9815 3.34668 72.4786 3.34668H47.7113Z" fill="white"/>
<path fill-rule="evenodd" clip-rule="evenodd" d="M70.7493 5.88257H49.4407V21.0857H70.7493V5.88257ZM48.4407 4.88257V22.0857H71.7493V4.88257H48.4407Z" fill="white"/>
<path fill-rule="evenodd" clip-rule="evenodd" d="M47.8008 30.8826V49.1577H72.3892V30.8826H47.8008ZM47.7113 29.8826C47.2085 29.8826 46.8008 30.2902 46.8008 30.7931V49.2472C46.8008 49.7501 47.2085 50.1577 47.7113 50.1577H72.4786C72.9815 50.1577 73.3892 49.7501 73.3892 49.2472V30.7931C73.3892 30.2902 72.9815 29.8826 72.4786 29.8826H47.7113Z" fill="white"/>
<path fill-rule="evenodd" clip-rule="evenodd" d="M70.7493 32.4185H49.4407V47.6216H70.7493V32.4185ZM48.4407 31.4185V48.6216H71.7493V31.4185H48.4407Z" fill="white"/>
<path d="M39.1111 12.4406C39.1111 12.6153 38.9695 12.7569 38.7948 12.7569C38.6201 12.7569 38.4785 12.6153 38.4785 12.4406C38.4785 12.2659 38.6201 12.1243 38.7948 12.1243C38.9695 12.1243 39.1111 12.2659 39.1111 12.4406Z" fill="white"/>
<path fill-rule="evenodd" clip-rule="evenodd" d="M38.7948 12.3743C38.7582 12.3743 38.7285 12.404 38.7285 12.4406C38.7285 12.4772 38.7582 12.5069 38.7948 12.5069C38.8314 12.5069 38.8611 12.4772 38.8611 12.4406C38.8611 12.404 38.8314 12.3743 38.7948 12.3743ZM38.2285 12.4406C38.2285 12.1278 38.4821 11.8743 38.7948 11.8743C39.1076 11.8743 39.3611 12.1278 39.3611 12.4406C39.3611 12.7533 39.1076 13.0069 38.7948 13.0069C38.4821 13.0069 38.2285 12.7533 38.2285 12.4406Z" fill="white"/>
<path d="M41.1043 12.4406C41.1043 12.6153 40.9627 12.7569 40.788 12.7569C40.6133 12.7569 40.4717 12.6153 40.4717 12.4406C40.4717 12.2659 40.6133 12.1243 40.788 12.1243C40.9627 12.1243 41.1043 12.2659 41.1043 12.4406Z" fill="white"/>
<path fill-rule="evenodd" clip-rule="evenodd" d="M40.788 12.3743C40.7514 12.3743 40.7217 12.404 40.7217 12.4406C40.7217 12.4772 40.7514 12.5069 40.788 12.5069C40.8246 12.5069 40.8543 12.4772 40.8543 12.4406C40.8543 12.404 40.8246 12.3743 40.788 12.3743ZM40.2217 12.4406C40.2217 12.1278 40.4752 11.8743 40.788 11.8743C41.1008 11.8743 41.3543 12.1278 41.3543 12.4406C41.3543 12.7533 41.1008 13.0069 40.788 13.0069C40.4752 13.0069 40.2217 12.7533 40.2217 12.4406Z" fill="white"/>
<path d="M43.097 12.4406C43.097 12.6153 42.9554 12.7569 42.7807 12.7569C42.606 12.7569 42.4644 12.6153 42.4644 12.4406C42.4644 12.2659 42.606 12.1243 42.7807 12.1243C42.9554 12.1243 43.097 12.2659 43.097 12.4406Z" fill="white"/>
<path fill-rule="evenodd" clip-rule="evenodd" d="M42.7807 12.3743C42.744 12.3743 42.7144 12.404 42.7144 12.4406C42.7144 12.4772 42.744 12.5069 42.7807 12.5069C42.8173 12.5069 42.847 12.4772 42.847 12.4406C42.847 12.404 42.8173 12.3743 42.7807 12.3743ZM42.2144 12.4406C42.2144 12.1278 42.4679 11.8743 42.7807 11.8743C43.0934 11.8743 43.347 12.1278 43.347 12.4406C43.347 12.7533 43.0934 13.0069 42.7807 13.0069C42.4679 13.0069 42.2144 12.7533 42.2144 12.4406Z" fill="white"/>
<path d="M39.1111 14.4965C39.1111 14.6712 38.9695 14.8128 38.7948 14.8128C38.6201 14.8128 38.4785 14.6712 38.4785 14.4965C38.4785 14.3218 38.6201 14.1802 38.7948 14.1802C38.9695 14.1802 39.1111 14.3218 39.1111 14.4965Z" fill="white"/>
<path fill-rule="evenodd" clip-rule="evenodd" d="M38.7948 14.4302C38.7582 14.4302 38.7285 14.4599 38.7285 14.4965C38.7285 14.5331 38.7582 14.5628 38.7948 14.5628C38.8314 14.5628 38.8611 14.5331 38.8611 14.4965C38.8611 14.4599 38.8314 14.4302 38.7948 14.4302ZM38.2285 14.4965C38.2285 14.1837 38.4821 13.9302 38.7948 13.9302C39.1076 13.9302 39.3611 14.1837 39.3611 14.4965C39.3611 14.8092 39.1076 15.0628 38.7948 15.0628C38.4821 15.0628 38.2285 14.8092 38.2285 14.4965Z" fill="white"/>
<path d="M41.1043 14.4965C41.1043 14.6712 40.9627 14.8128 40.788 14.8128C40.6133 14.8128 40.4717 14.6712 40.4717 14.4965C40.4717 14.3218 40.6133 14.1802 40.788 14.1802C40.9627 14.1802 41.1043 14.3218 41.1043 14.4965Z" fill="white"/>
<path fill-rule="evenodd" clip-rule="evenodd" d="M40.788 14.4302C40.7514 14.4302 40.7217 14.4599 40.7217 14.4965C40.7217 14.5331 40.7514 14.5628 40.788 14.5628C40.8246 14.5628 40.8543 14.5331 40.8543 14.4965C40.8543 14.4599 40.8246 14.4302 40.788 14.4302ZM40.2217 14.4965C40.2217 14.1837 40.4752 13.9302 40.788 13.9302C41.1008 13.9302 41.3543 14.1837 41.3543 14.4965C41.3543 14.8092 41.1008 15.0628 40.788 15.0628C40.4752 15.0628 40.2217 14.8092 40.2217 14.4965Z" fill="white"/>
<path d="M43.097 14.4965C43.097 14.6712 42.9554 14.8128 42.7807 14.8128C42.606 14.8128 42.4644 14.6712 42.4644 14.4965C42.4644 14.3218 42.606 14.1802 42.7807 14.1802C42.9554 14.1802 43.097 14.3218 43.097 14.4965Z" fill="white"/>
<path fill-rule="evenodd" clip-rule="evenodd" d="M42.7807 14.4302C42.744 14.4302 42.7144 14.4599 42.7144 14.4965C42.7144 14.5331 42.744 14.5628 42.7807 14.5628C42.8173 14.5628 42.847 14.5331 42.847 14.4965C42.847 14.4599 42.8173 14.4302 42.7807 14.4302ZM42.2144 14.4965C42.2144 14.1837 42.4679 13.9302 42.7807 13.9302C43.0934 13.9302 43.347 14.1837 43.347 14.4965C43.347 14.8092 43.0934 15.0628 42.7807 15.0628C42.4679 15.0628 42.2144 14.8092 42.2144 14.4965Z" fill="white"/>
<path d="M77.5042 12.4406C77.5042 12.6153 77.3626 12.7569 77.1879 12.7569C77.0132 12.7569 76.8716 12.6153 76.8716 12.4406C76.8716 12.2659 77.0132 12.1243 77.1879 12.1243C77.3626 12.1243 77.5042 12.2659 77.5042 12.4406Z" fill="white"/>
<path fill-rule="evenodd" clip-rule="evenodd" d="M77.1879 12.3743C77.1513 12.3743 77.1216 12.404 77.1216 12.4406C77.1216 12.4772 77.1513 12.5069 77.1879 12.5069C77.2245 12.5069 77.2542 12.4772 77.2542 12.4406C77.2542 12.404 77.2245 12.3743 77.1879 12.3743ZM76.6216 12.4406C76.6216 12.1278 76.8751 11.8743 77.1879 11.8743C77.5007 11.8743 77.7542 12.1278 77.7542 12.4406C77.7542 12.7533 77.5007 13.0069 77.1879 13.0069C76.8751 13.0069 76.6216 12.7533 76.6216 12.4406Z" fill="white"/>
<path d="M79.4969 12.4406C79.4969 12.6153 79.3553 12.7569 79.1806 12.7569C79.0059 12.7569 78.8643 12.6153 78.8643 12.4406C78.8643 12.2659 79.0059 12.1243 79.1806 12.1243C79.3553 12.1243 79.4969 12.2659 79.4969 12.4406Z" fill="white"/>
<path fill-rule="evenodd" clip-rule="evenodd" d="M79.1806 12.3743C79.1439 12.3743 79.1143 12.404 79.1143 12.4406C79.1143 12.4772 79.1439 12.5069 79.1806 12.5069C79.2172 12.5069 79.2469 12.4772 79.2469 12.4406C79.2469 12.404 79.2172 12.3743 79.1806 12.3743ZM78.6143 12.4406C78.6143 12.1278 78.8678 11.8743 79.1806 11.8743C79.4933 11.8743 79.7469 12.1278 79.7469 12.4406C79.7469 12.7533 79.4933 13.0069 79.1806 13.0069C78.8678 13.0069 78.6143 12.7533 78.6143 12.4406Z" fill="white"/>
<path d="M81.4896 12.4406C81.4896 12.6153 81.3479 12.7569 81.1732 12.7569C80.9986 12.7569 80.8569 12.6153 80.8569 12.4406C80.8569 12.2659 80.9986 12.1243 81.1732 12.1243C81.3479 12.1243 81.4896 12.2659 81.4896 12.4406Z" fill="white"/>
<path fill-rule="evenodd" clip-rule="evenodd" d="M81.1732 12.3743C81.1366 12.3743 81.1069 12.404 81.1069 12.4406C81.1069 12.4772 81.1366 12.5069 81.1732 12.5069C81.2099 12.5069 81.2396 12.4772 81.2396 12.4406C81.2396 12.404 81.2099 12.3743 81.1732 12.3743ZM80.6069 12.4406C80.6069 12.1278 80.8605 11.8743 81.1732 11.8743C81.486 11.8743 81.7396 12.1278 81.7396 12.4406C81.7396 12.7533 81.486 13.0069 81.1732 13.0069C80.8605 13.0069 80.6069 12.7533 80.6069 12.4406Z" fill="white"/>
<path d="M77.5042 14.4965C77.5042 14.6712 77.3626 14.8128 77.1879 14.8128C77.0132 14.8128 76.8716 14.6712 76.8716 14.4965C76.8716 14.3218 77.0132 14.1802 77.1879 14.1802C77.3626 14.1802 77.5042 14.3218 77.5042 14.4965Z" fill="white"/>
<path fill-rule="evenodd" clip-rule="evenodd" d="M77.1879 14.4302C77.1513 14.4302 77.1216 14.4599 77.1216 14.4965C77.1216 14.5331 77.1513 14.5628 77.1879 14.5628C77.2245 14.5628 77.2542 14.5331 77.2542 14.4965C77.2542 14.4599 77.2245 14.4302 77.1879 14.4302ZM76.6216 14.4965C76.6216 14.1837 76.8751 13.9302 77.1879 13.9302C77.5007 13.9302 77.7542 14.1837 77.7542 14.4965C77.7542 14.8092 77.5007 15.0628 77.1879 15.0628C76.8751 15.0628 76.6216 14.8092 76.6216 14.4965Z" fill="white"/>
<path d="M79.4969 14.4965C79.4969 14.6712 79.3553 14.8128 79.1806 14.8128C79.0059 14.8128 78.8643 14.6712 78.8643 14.4965C78.8643 14.3218 79.0059 14.1802 79.1806 14.1802C79.3553 14.1802 79.4969 14.3218 79.4969 14.4965Z" fill="white"/>
<path fill-rule="evenodd" clip-rule="evenodd" d="M79.1806 14.4302C79.1439 14.4302 79.1143 14.4599 79.1143 14.4965C79.1143 14.5331 79.1439 14.5628 79.1806 14.5628C79.2172 14.5628 79.2469 14.5331 79.2469 14.4965C79.2469 14.4599 79.2172 14.4302 79.1806 14.4302ZM78.6143 14.4965C78.6143 14.1837 78.8678 13.9302 79.1806 13.9302C79.4933 13.9302 79.7469 14.1837 79.7469 14.4965C79.7469 14.8092 79.4933 15.0628 79.1806 15.0628C78.8678 15.0628 78.6143 14.8092 78.6143 14.4965Z" fill="white"/>
<path d="M81.4896 14.4965C81.4896 14.6712 81.3479 14.8128 81.1732 14.8128C80.9986 14.8128 80.8569 14.6712 80.8569 14.4965C80.8569 14.3218 80.9986 14.1802 81.1732 14.1802C81.3479 14.1802 81.4896 14.3218 81.4896 14.4965Z" fill="white"/>
<path fill-rule="evenodd" clip-rule="evenodd" d="M81.1732 14.4302C81.1366 14.4302 81.1069 14.4599 81.1069 14.4965C81.1069 14.5331 81.1366 14.5628 81.1732 14.5628C81.2099 14.5628 81.2396 14.5331 81.2396 14.4965C81.2396 14.4599 81.2099 14.4302 81.1732 14.4302ZM80.6069 14.4965C80.6069 14.1837 80.8605 13.9302 81.1732 13.9302C81.486 13.9302 81.7396 14.1837 81.7396 14.4965C81.7396 14.8092 81.486 15.0628 81.1732 15.0628C80.8605 15.0628 80.6069 14.8092 80.6069 14.4965Z" fill="white"/>
<path fill-rule="evenodd" clip-rule="evenodd" d="M85.9055 29.1699H34.0308V28.1699H85.9055V29.1699Z" fill="white"/>
<path d="M83.5017 25.1332C83.5017 25.0022 83.6079 24.896 83.7389 24.896V24.896C83.87 24.896 83.9762 25.0022 83.9762 25.1332V27.2525C83.9762 27.3835 83.87 27.4897 83.7389 27.4897V27.4897C83.6079 27.4897 83.5017 27.3835 83.5017 27.2525V25.1332Z" fill="white"/>
<path d="M82.6479 25.1332C82.6479 25.0022 82.7542 24.896 82.8852 24.896V24.896C83.0162 24.896 83.1224 25.0022 83.1224 25.1332V27.2525C83.1224 27.3835 83.0162 27.4897 82.8852 27.4897V27.4897C82.7542 27.4897 82.6479 27.3835 82.6479 27.2525V25.1332Z" fill="white"/>
<path fill-rule="evenodd" clip-rule="evenodd" d="M39.9619 26.3229L39.9619 29.1697L38.9619 29.1697L38.9619 26.3229L39.9619 26.3229Z" fill="white"/>
<path fill-rule="evenodd" clip-rule="evenodd" d="M80.0383 26.3229L80.0383 29.1697L79.0383 29.1697L79.0383 26.3229L80.0383 26.3229Z" fill="white"/>
<path d="M39.2695 34.5592C39.2695 34.4194 39.3828 34.3062 39.5226 34.3062H41.3255C41.4653 34.3062 41.5786 34.4194 41.5786 34.5592V41.0119C41.5786 41.1517 41.4653 41.265 41.3255 41.265H39.5226C39.3828 41.265 39.2695 41.1517 39.2695 41.0119V34.5592Z" fill="white"/>
<path d="M37.1979 38.9402C37.0581 38.9402 36.9448 38.8269 36.9448 38.6871L36.9448 36.8842C36.9448 36.7444 37.0581 36.6311 37.1979 36.6311L43.6506 36.6311C43.7903 36.6311 43.9036 36.7444 43.9036 36.8842L43.9036 38.6871C43.9036 38.8269 43.7903 38.9402 43.6506 38.9402L37.1979 38.9402Z" fill="white"/>
<path d="M80.6681 33.7052C80.6681 34.5262 80.0025 35.1918 79.1815 35.1918C78.3604 35.1918 77.6948 34.5262 77.6948 33.7052C77.6948 32.8841 78.3604 32.2185 79.1815 32.2185C80.0025 32.2185 80.6681 32.8841 80.6681 33.7052Z" fill="white"/>
<path d="M80.6672 39.7149C80.6672 40.536 80.0016 41.2016 79.1805 41.2016C78.3594 41.2016 77.6938 40.536 77.6938 39.7149C77.6938 38.8939 78.3594 38.2283 79.1805 38.2283C80.0016 38.2283 80.6672 38.8939 80.6672 39.7149Z" fill="white"/>
<path d="M76.1756 35.2235C76.9967 35.2235 77.6623 35.8891 77.6623 36.7101C77.6623 37.5312 76.9967 38.1968 76.1756 38.1968C75.3546 38.1968 74.689 37.5312 74.689 36.7101C74.689 35.8891 75.3546 35.2235 76.1756 35.2235Z" fill="white"/>
<path d="M82.1854 35.2235C83.0064 35.2235 83.672 35.8891 83.672 36.7101C83.672 37.5312 83.0064 38.1968 82.1854 38.1968C81.3643 38.1968 80.6987 37.5312 80.6987 36.7101C80.6987 35.8891 81.3643 35.2235 82.1854 35.2235Z" fill="white"/>
<path d="M77.1756 46.4367C77.1756 46.8472 76.8428 47.18 76.4323 47.18C76.0218 47.18 75.689 46.8472 75.689 46.4367C75.689 46.0262 76.0218 45.6934 76.4323 45.6934C76.8428 45.6934 77.1756 46.0262 77.1756 46.4367Z" fill="white"/>
<path d="M77.1756 49.5998C77.1756 50.0103 76.8428 50.3431 76.4323 50.3431C76.0218 50.3431 75.689 50.0103 75.689 49.5998C75.689 49.1892 76.0218 48.8564 76.4323 48.8564C76.8428 48.8564 77.1756 49.1892 77.1756 49.5998Z" fill="white"/>
</svg>
