<svg width="389" height="123" viewBox="0 0 389 123" fill="none" xmlns="http://www.w3.org/2000/svg">
<path fill-rule="evenodd" clip-rule="evenodd" d="M379.93 84.9596H378.657V76.584H381.85C383.827 76.584 384.806 77.3156 384.806 78.9644C384.806 80.4625 383.867 81.1132 382.634 81.2713L385.012 84.9596H383.598L381.383 81.3278H379.93V84.9596ZM381.448 80.2515C382.523 80.2515 383.478 80.1771 383.478 78.8871C383.478 77.8532 382.539 77.6592 381.661 77.6592H379.93V80.2515H381.448V80.2515Z" fill="white"/>
<path fill-rule="evenodd" clip-rule="evenodd" d="M374.088 80.7488C374.088 76.5822 377.472 73.5078 381.463 73.5078C385.424 73.5078 388.798 76.5822 388.798 80.7488C388.798 84.9578 385.424 88.0294 381.463 88.0294C377.472 88.0294 374.088 84.9578 374.088 80.7488ZM381.463 86.8185C384.753 86.8185 387.336 84.245 387.336 80.7479C387.336 77.3129 384.753 74.7149 381.463 74.7149C378.145 74.7149 375.552 77.3129 375.552 80.7479C375.552 84.245 378.145 86.8185 381.463 86.8185V86.8185Z" fill="white"/>
<path fill-rule="evenodd" clip-rule="evenodd" d="M284.604 7.5766C279.707 10.9014 276.321 11.0038 267.505 8.09316C261.871 6.23238 260.575 6.04817 252.947 6.01983C239.63 5.97088 231.173 8.95753 223.795 16.3137C212.384 27.6935 209.819 49.7775 218.005 66.1715C222.502 75.1772 233.155 83.1704 244.711 86.2098C251.223 87.9225 262.703 88.0809 268.727 86.5422C278.498 84.0463 286.418 78.1001 290.301 70.3452C292.015 66.9212 292.23 65.8495 292.228 60.6967C292.227 53.8088 291.065 51.0541 286.442 46.9853C283.055 44.0045 278.563 42.619 274.336 43.2528C266.297 44.4579 256.669 52.5574 257.251 57.6238C257.451 59.3719 257.533 59.4047 261.251 59.2334C265.739 59.0266 267.753 60.07 269.103 63.3027C270.419 66.4504 270.236 68.6957 268.36 72.4617C266.395 76.4042 263.66 78.3075 259.199 78.8357C251.233 79.7792 245.924 74.4301 242.796 62.307C240.983 55.2806 240.517 37.0953 241.94 28.9057C243.856 17.8808 247.188 12.8891 252.183 13.5589C255.664 14.0259 258.21 16.0206 263.444 22.3836C268.953 29.0809 271.022 30.4038 275.902 30.3491C284.296 30.2557 290.285 22.9285 291.683 11.0418C292.112 7.3911 291.229 4.97254 289.477 5.00024C288.869 5.0099 286.676 6.16926 284.604 7.5766ZM327.022 6.02305C321.58 7.33893 313.495 11.4457 309.174 15.0886C302.481 20.7315 297.576 28.3653 295.503 36.3656C294.2 41.3927 294.2 51.0167 295.503 56.0438C298.495 67.5917 306.758 77.4463 318.083 82.9733C324.488 86.0997 330.343 87.404 337.967 87.404C345.652 87.404 351.429 86.101 358.174 82.8471C362.699 80.6636 364.759 79.1358 369.267 74.6181C377.657 66.2108 381.443 57.4441 381.443 46.423C381.443 39.3084 380.54 35.3402 377.433 28.8142C375.306 24.3475 373.806 22.3186 369.279 17.7912C360.255 8.76688 350.707 4.95966 337.323 5.0479C333.781 5.07109 329.145 5.51036 327.022 6.02305ZM154.079 6.50419C143.403 8.82356 135.286 16.9836 134.317 26.3718C133.59 33.4124 137.282 41.0326 143.618 45.569C146.984 47.9792 158.805 52.3487 172.436 56.221C181.613 58.8282 184.988 61.9212 184.993 67.7251C185.001 78.2682 170.781 84.6466 161.04 78.4692C157.851 76.4467 156.011 73.3023 156.011 69.8744C156.011 67.7457 156.737 66.5052 161.3 60.8281C162.644 59.1574 162.678 58.903 161.779 57.3017C160.593 55.1898 157.165 54.0517 151.781 53.9834C145.931 53.9093 141.588 55.4416 138.283 58.7458C133.445 63.5842 132.907 69.6 136.789 75.4606C142.427 83.9729 156.717 88.7418 173.992 87.8768C186.059 87.2726 194.079 84.4173 200.697 78.3693C211.755 68.2629 213.114 54.4549 204.088 43.9104C200.778 40.0427 196.945 38.3126 182.097 33.9824C160.545 27.6974 158.903 27.0887 156.693 24.5722C153.094 20.4732 153.338 16.4728 157.307 14.4845C162.604 11.8295 167.899 13.8153 172.196 20.0675C173.676 22.2213 175.907 25.0605 177.153 26.377C183.47 33.0523 195.745 29.7482 199.82 20.2749C201.782 15.7134 202.291 9.46121 200.802 8.2252C199.842 7.42846 199.253 7.56758 195.974 9.3704C192.748 11.1436 191.605 11.4238 187.594 11.4238C183.698 11.4238 182.129 11.0631 177.855 9.18361C170.044 5.74931 161.821 4.82247 154.079 6.50419ZM126.705 8.61423C122.962 10.0022 120.743 10.3404 113.633 10.6083C105.478 10.9149 104.836 10.846 100.203 9.15591C95.5427 7.45616 95.2477 7.42524 93.1654 8.41843C90.4351 9.72014 89.7259 12.0402 91.3156 14.4664C91.9442 15.4268 93.7554 17.8035 95.3398 19.7493C100.371 25.9255 100.258 25.2898 100.498 48.9047C100.745 73.1303 100.762 73.0343 94.8587 79.2769C91.4167 82.9166 90.7282 85.2553 92.6334 86.8366C93.7064 87.7267 93.3329 87.7962 105.43 84.4476C110.047 83.1697 116.652 83.3443 124.885 84.9622C130.861 86.1371 132.255 86.2337 133.097 85.5348C134.81 84.1133 134.247 81.9885 130.991 77.5777C124.821 69.2194 124.799 69.1208 124.584 47.8793L124.394 29.2651L126.021 25.9802C126.916 24.1735 129.131 20.9711 130.945 18.8643C134.684 14.518 135.574 12.663 135.006 10.3977C134.66 9.0213 132.539 6.88936 131.553 6.92864C131.366 6.93637 129.185 7.69447 126.705 8.61423ZM34.6001 9.26605C26.2572 10.8151 20.5982 10.9317 11.6492 9.73882C9.14691 9.40518 8.44485 9.56105 7.30159 10.7043C4.80767 13.1982 5.46979 15.5041 9.96362 19.9766C13.6961 23.6918 14.1695 24.4995 16.4657 31.0685C17.8273 34.9653 21.6945 45.9793 25.0579 55.544C28.422 65.1088 31.2051 73.8742 31.2431 75.0226C31.2901 76.4287 30.6132 78.104 29.1724 80.1477C24.3977 86.9216 28.0053 89.6171 38.4647 87.0916C43.4531 85.8872 53.0185 85.8891 60.3638 87.0955C68.0124 88.3521 70.7497 88.3411 71.2444 87.0517C72.1255 84.7555 71.4988 82.0059 69.0101 77.2525C64.2393 68.1392 64.6463 64.0196 72.7342 39.6105C77.7459 24.4834 78.6618 22.6174 84.333 15.9839C88.0378 11.6518 88.1911 9.93204 85.0131 8.36626C83.6226 7.68094 82.6583 7.79946 78.4556 9.17137C72.8095 11.0141 69.3076 11.1822 64.8138 9.82448C61.3441 8.77654 59.6952 9.00713 58.8289 10.6624C58.0122 12.2224 58.9873 14.2642 61.355 15.9498C64.0576 17.875 65.807 21.8503 65.8244 26.1097C65.8385 29.5144 58.2763 61.5199 56.811 64.2586C55.7617 66.2185 54.728 65.5203 53.3644 61.9315C48.6059 49.402 41.3631 27.0468 41.3631 24.8872C41.3631 21.8039 42.4773 18.9828 45.1555 15.2857C47.4375 12.1348 47.6822 10.1639 45.9818 8.62518C44.5752 7.35181 45.0608 7.32476 34.6001 9.26605ZM345.522 15.6484C347.115 16.7555 348.883 18.7651 349.722 20.4249C351.14 23.23 351.171 23.7555 351.171 45.2489V67.2066L349.539 70.4811C348.52 72.5268 346.91 74.4468 345.247 75.5991C342.916 77.2138 342.006 77.4431 337.917 77.4431C333.768 77.4431 332.942 77.228 330.504 75.5108C328.995 74.4481 327.086 72.3013 326.262 70.7401C324.777 67.9273 324.763 67.7 324.777 45.9425C324.79 25.6382 324.885 23.7768 326.035 21.2436C328.539 15.7282 332.66 13.2324 338.759 13.537C341.96 13.6968 343.327 14.1238 345.522 15.6484Z" stroke="white" stroke-width="10"/>
<path d="M25.7084 122.473C26.8676 122.472 28.0124 122.217 29.0632 121.728C30.0966 121.272 31.0135 120.588 31.7453 119.727V119.727L29.7471 117.725C29.2567 118.315 28.6476 118.795 27.9594 119.135C27.2843 119.462 26.5431 119.629 25.793 119.624C25.1601 119.631 24.532 119.512 23.9453 119.275C23.3586 119.037 22.8247 118.686 22.3748 118.24C21.9415 117.804 21.5991 117.287 21.3676 116.717C21.1194 116.113 20.9944 115.465 21 114.812C20.9933 114.152 21.1147 113.498 21.3576 112.884C21.5843 112.314 21.9202 111.793 22.3466 111.351C22.7741 110.913 23.2855 110.566 23.8502 110.329C24.4387 110.079 25.0721 109.952 25.7115 109.956C26.4825 109.954 27.2436 110.13 27.9342 110.473C28.6481 110.832 29.2733 111.345 29.7642 111.975V111.975L31.8259 109.909C31.101 109.029 30.1786 108.332 29.1337 107.876C28.0599 107.379 26.8914 107.121 25.7084 107.119C24.6518 107.112 23.6043 107.315 22.6266 107.716C21.7002 108.091 20.8544 108.641 20.1349 109.335C19.4246 110.03 18.8597 110.858 18.4731 111.773C18.0723 112.733 17.865 113.762 17.8633 114.801C17.8616 115.841 18.0654 116.871 18.463 117.831C18.8451 118.743 19.4064 119.569 20.1137 120.26C20.8336 120.953 21.6798 121.503 22.6064 121.878C23.5908 122.28 24.6452 122.482 25.7084 122.473V122.473ZM65.5683 122.496C66.6214 122.503 67.6655 122.301 68.6391 121.899C69.5614 121.525 70.4005 120.972 71.1082 120.272C71.8158 119.572 72.378 118.739 72.7624 117.821C73.1649 116.868 73.3722 115.843 73.3722 114.808C73.3722 113.773 73.1649 112.748 72.7624 111.795C72.3781 110.876 71.8159 110.043 71.1082 109.344C70.4006 108.644 69.5614 108.091 68.6391 107.717C66.676 106.922 64.4808 106.922 62.5177 107.717C61.5954 108.091 60.7563 108.644 60.0486 109.344C59.3409 110.043 58.7787 110.876 58.3944 111.795C57.9922 112.748 57.785 113.773 57.785 114.808C57.785 115.843 57.9922 116.868 58.3944 117.821C58.7788 118.739 59.341 119.572 60.0486 120.272C60.7563 120.972 61.5954 121.525 62.5177 121.899C63.4851 122.299 64.5226 122.501 65.5694 122.495L65.5683 122.496ZM65.5683 119.663C64.9503 119.669 64.3378 119.548 63.7682 119.308C63.1986 119.068 62.684 118.714 62.2558 118.269C61.8335 117.822 61.5015 117.297 61.2779 116.725C60.8009 115.487 60.8009 114.117 61.2779 112.88C61.5033 112.312 61.8353 111.791 62.2558 111.347C62.684 110.902 63.1986 110.548 63.7682 110.308C64.3378 110.068 64.9503 109.947 65.5683 109.952C66.2045 109.948 66.8347 110.075 67.4195 110.325C67.9779 110.562 68.4822 110.91 68.902 111.347C69.3226 111.791 69.6545 112.312 69.8799 112.88C70.3567 114.117 70.3567 115.487 69.8799 116.725C69.6564 117.297 69.3243 117.822 68.902 118.269C68.4822 118.706 67.9778 119.054 67.4195 119.291C66.835 119.541 66.2051 119.667 65.5694 119.662L65.5683 119.663ZM111.801 122.262V119.537H103.744V107.354H100.697V122.26L111.801 122.262ZM150.253 122.262V119.537H142.196V107.354H139.147V122.26L150.253 122.262ZM188.998 122.262V119.579H180.648V116.043H186.097V113.444H180.648V110.04H188.915V107.357H177.596V122.263L188.998 122.262ZM222.822 122.474C223.982 122.473 225.126 122.218 226.177 121.729C227.211 121.272 228.127 120.588 228.859 119.728V119.728L226.86 117.727C226.37 118.317 225.761 118.797 225.072 119.137C224.397 119.464 223.656 119.631 222.906 119.626C222.273 119.633 221.645 119.514 221.059 119.277C220.472 119.039 219.939 118.688 219.489 118.242C219.055 117.807 218.713 117.289 218.482 116.719C218.233 116.115 218.108 115.467 218.113 114.814C218.106 114.154 218.228 113.5 218.472 112.886C218.698 112.316 219.033 111.795 219.46 111.353C219.887 110.915 220.398 110.567 220.963 110.331C221.552 110.081 222.185 109.954 222.824 109.958C223.598 109.956 224.362 110.134 225.054 110.479C225.768 110.838 226.393 111.351 226.884 111.981V111.981L228.946 109.915C228.221 109.035 227.299 108.338 226.254 107.882C225.18 107.386 224.012 107.128 222.829 107.125C221.773 107.118 220.725 107.321 219.748 107.722C218.821 108.097 217.975 108.646 217.255 109.34C216.544 110.034 215.979 110.863 215.592 111.778C215.191 112.738 214.984 113.767 214.983 114.806C214.981 115.846 215.185 116.876 215.582 117.836C215.964 118.748 216.526 119.574 217.233 120.265C217.953 120.958 218.799 121.508 219.725 121.883C220.709 122.283 221.761 122.483 222.822 122.473V122.474ZM263.167 122.262V110.079H268.109V107.353H255.152V110.079H260.116V122.26L263.167 122.262ZM298.105 122.262V107.356H295.055V122.262H298.105ZM333.233 122.497C334.286 122.504 335.33 122.302 336.304 121.9C337.226 121.526 338.065 120.973 338.773 120.273C339.481 119.573 340.043 118.74 340.427 117.822C340.829 116.869 341.037 115.844 341.037 114.809C341.037 113.774 340.829 112.749 340.427 111.796C340.043 110.877 339.481 110.044 338.773 109.345C338.065 108.645 337.226 108.092 336.304 107.718C334.341 106.923 332.146 106.923 330.183 107.718C329.262 108.092 328.423 108.645 327.715 109.345C327.008 110.045 326.446 110.878 326.061 111.796C325.658 112.749 325.451 113.774 325.451 114.809C325.451 115.844 325.658 116.869 326.061 117.822C326.446 118.74 327.008 119.573 327.715 120.273C328.423 120.972 329.262 121.526 330.183 121.9C331.15 122.299 332.187 122.501 333.233 122.495V122.497ZM333.233 119.664C332.6 119.67 331.974 119.543 331.393 119.292C330.839 119.053 330.338 118.706 329.921 118.27C329.498 117.823 329.165 117.299 328.942 116.726C328.465 115.488 328.465 114.118 328.942 112.881C329.167 112.312 329.499 111.792 329.921 111.348C330.338 110.912 330.839 110.564 331.393 110.326C331.974 110.075 332.6 109.948 333.233 109.953C333.869 109.949 334.499 110.076 335.083 110.326C335.642 110.563 336.147 110.911 336.567 111.348C336.987 111.792 337.319 112.313 337.545 112.881C338.022 114.118 338.022 115.489 337.545 116.726C337.321 117.298 336.989 117.823 336.567 118.27C336.147 118.707 335.642 119.055 335.083 119.292C334.499 119.542 333.869 119.668 333.233 119.662V119.664ZM371.242 122.263V112.292L378.751 122.263H381.443V107.357H378.583V117.004L371.263 107.357H368.359V122.263H371.242Z" fill="white"/>
<path fill-rule="evenodd" clip-rule="evenodd" d="M284.604 7.5766C279.707 10.9014 276.321 11.0038 267.505 8.09316C261.871 6.23238 260.575 6.04817 252.947 6.01983C239.63 5.97088 231.173 8.95753 223.795 16.3137C212.384 27.6935 209.819 49.7775 218.005 66.1715C222.502 75.1772 233.155 83.1704 244.711 86.2098C251.223 87.9225 262.703 88.0809 268.727 86.5422C278.498 84.0463 286.418 78.1001 290.301 70.3452C292.015 66.9212 292.23 65.8495 292.228 60.6967C292.227 53.8088 291.065 51.0541 286.442 46.9853C283.055 44.0045 278.563 42.619 274.336 43.2528C266.297 44.4579 256.669 52.5574 257.251 57.6238C257.451 59.3719 257.533 59.4047 261.251 59.2334C265.739 59.0266 267.753 60.07 269.103 63.3027C270.419 66.4504 270.236 68.6957 268.36 72.4617C266.395 76.4042 263.66 78.3075 259.199 78.8357C251.233 79.7792 245.924 74.4301 242.796 62.307C240.983 55.2806 240.517 37.0953 241.94 28.9057C243.856 17.8808 247.188 12.8891 252.183 13.5589C255.664 14.0259 258.21 16.0206 263.444 22.3836C268.953 29.0809 271.022 30.4038 275.902 30.3491C284.296 30.2557 290.285 22.9285 291.683 11.0418C292.112 7.3911 291.229 4.97254 289.477 5.00024C288.869 5.0099 286.676 6.16926 284.604 7.5766ZM327.022 6.02305C321.58 7.33893 313.495 11.4457 309.174 15.0886C302.481 20.7315 297.576 28.3653 295.503 36.3656C294.2 41.3927 294.2 51.0167 295.503 56.0438C298.495 67.5917 306.758 77.4463 318.083 82.9733C324.488 86.0997 330.343 87.404 337.967 87.404C345.652 87.404 351.429 86.101 358.174 82.8471C362.699 80.6636 364.759 79.1358 369.267 74.6181C377.657 66.2108 381.443 57.4441 381.443 46.423C381.443 39.3084 380.54 35.3402 377.433 28.8142C375.306 24.3475 373.806 22.3186 369.279 17.7912C360.255 8.76688 350.707 4.95966 337.323 5.0479C333.781 5.07109 329.145 5.51036 327.022 6.02305ZM154.079 6.50419C143.403 8.82356 135.286 16.9836 134.317 26.3718C133.59 33.4124 137.282 41.0326 143.618 45.569C146.984 47.9792 158.805 52.3487 172.436 56.221C181.613 58.8282 184.988 61.9212 184.993 67.7251C185.001 78.2682 170.781 84.6466 161.04 78.4692C157.851 76.4467 156.011 73.3023 156.011 69.8744C156.011 67.7457 156.737 66.5052 161.3 60.8281C162.644 59.1574 162.678 58.903 161.779 57.3017C160.593 55.1898 157.165 54.0517 151.781 53.9834C145.931 53.9093 141.588 55.4416 138.283 58.7458C133.445 63.5842 132.907 69.6 136.789 75.4606C142.427 83.9729 156.717 88.7418 173.992 87.8768C186.059 87.2726 194.079 84.4173 200.697 78.3693C211.755 68.2629 213.114 54.4549 204.088 43.9104C200.778 40.0427 196.945 38.3126 182.097 33.9824C160.545 27.6974 158.903 27.0887 156.693 24.5722C153.094 20.4732 153.338 16.4728 157.307 14.4845C162.604 11.8295 167.899 13.8153 172.196 20.0675C173.676 22.2213 175.907 25.0605 177.153 26.377C183.47 33.0523 195.745 29.7482 199.82 20.2749C201.782 15.7134 202.291 9.46121 200.802 8.2252C199.842 7.42846 199.253 7.56758 195.974 9.3704C192.748 11.1436 191.605 11.4238 187.594 11.4238C183.698 11.4238 182.129 11.0631 177.855 9.18361C170.044 5.74931 161.821 4.82247 154.079 6.50419ZM126.705 8.61423C122.962 10.0022 120.743 10.3404 113.633 10.6083C105.478 10.9149 104.836 10.846 100.203 9.15591C95.5427 7.45616 95.2477 7.42524 93.1654 8.41843C90.4351 9.72014 89.7259 12.0402 91.3156 14.4664C91.9442 15.4268 93.7554 17.8035 95.3398 19.7493C100.371 25.9255 100.258 25.2898 100.498 48.9047C100.745 73.1303 100.762 73.0343 94.8587 79.2769C91.4167 82.9166 90.7282 85.2553 92.6334 86.8366C93.7064 87.7267 93.3329 87.7962 105.43 84.4476C110.047 83.1697 116.652 83.3443 124.885 84.9622C130.861 86.1371 132.255 86.2337 133.097 85.5348C134.81 84.1133 134.247 81.9885 130.991 77.5777C124.821 69.2194 124.799 69.1208 124.584 47.8793L124.394 29.2651L126.021 25.9802C126.916 24.1735 129.131 20.9711 130.945 18.8643C134.684 14.518 135.574 12.663 135.006 10.3977C134.66 9.0213 132.539 6.88936 131.553 6.92864C131.366 6.93637 129.185 7.69447 126.705 8.61423ZM34.6001 9.26605C26.2572 10.8151 20.5982 10.9317 11.6492 9.73882C9.14691 9.40518 8.44485 9.56105 7.30159 10.7043C4.80767 13.1982 5.46979 15.5041 9.96362 19.9766C13.6961 23.6918 14.1695 24.4995 16.4657 31.0685C17.8273 34.9653 21.6945 45.9793 25.0579 55.544C28.422 65.1088 31.2051 73.8742 31.2431 75.0226C31.2901 76.4287 30.6132 78.104 29.1724 80.1477C24.3977 86.9216 28.0053 89.6171 38.4647 87.0916C43.4531 85.8872 53.0185 85.8891 60.3638 87.0955C68.0124 88.3521 70.7497 88.3411 71.2444 87.0517C72.1255 84.7555 71.4988 82.0059 69.0101 77.2525C64.2393 68.1392 64.6463 64.0196 72.7342 39.6105C77.7459 24.4834 78.6618 22.6174 84.333 15.9839C88.0378 11.6518 88.1911 9.93204 85.0131 8.36626C83.6226 7.68094 82.6583 7.79946 78.4556 9.17137C72.8095 11.0141 69.3076 11.1822 64.8138 9.82448C61.3441 8.77654 59.6952 9.00713 58.8289 10.6624C58.0122 12.2224 58.9873 14.2642 61.355 15.9498C64.0576 17.875 65.807 21.8503 65.8244 26.1097C65.8385 29.5144 58.2763 61.5199 56.811 64.2586C55.7617 66.2185 54.728 65.5203 53.3644 61.9315C48.6059 49.402 41.3631 27.0468 41.3631 24.8872C41.3631 21.8039 42.4773 18.9828 45.1555 15.2857C47.4375 12.1348 47.6822 10.1639 45.9818 8.62518C44.5752 7.35181 45.0608 7.32476 34.6001 9.26605ZM345.522 15.6484C347.115 16.7555 348.883 18.7651 349.722 20.4249C351.14 23.23 351.171 23.7555 351.171 45.2489V67.2066L349.539 70.4811C348.52 72.5268 346.91 74.4468 345.247 75.5991C342.916 77.2138 342.006 77.4431 337.917 77.4431C333.768 77.4431 332.942 77.228 330.504 75.5108C328.995 74.4481 327.086 72.3013 326.262 70.7401C324.777 67.9273 324.763 67.7 324.777 45.9425C324.79 25.6382 324.885 23.7768 326.035 21.2436C328.539 15.7282 332.66 13.2324 338.759 13.537C341.96 13.6968 343.327 14.1238 345.522 15.6484Z" fill="#00499B"/>
</svg>
