<svg width="384" height="118" viewBox="0 0 384 118" fill="none" xmlns="http://www.w3.org/2000/svg">
<path fill-rule="evenodd" clip-rule="evenodd" d="M374.39 79.9596H373.117V71.584H376.31C378.287 71.584 379.266 72.3156 379.266 73.9644C379.266 75.4625 378.327 76.1132 377.094 76.2713L379.472 79.9596H378.058L375.843 76.3278H374.39V79.9596ZM375.908 75.2515C376.983 75.2515 377.938 75.1771 377.938 73.8871C377.938 72.8532 376.999 72.6592 376.121 72.6592H374.39V75.2515H375.908Z" fill="white"/>
<path fill-rule="evenodd" clip-rule="evenodd" d="M368.548 75.7488C368.548 71.5822 371.932 68.5078 375.923 68.5078C379.884 68.5078 383.258 71.5822 383.258 75.7488C383.258 79.9578 379.884 83.0294 375.923 83.0294C371.932 83.0294 368.548 79.9578 368.548 75.7488ZM375.923 81.8185C379.213 81.8185 381.796 79.245 381.796 75.7479C381.796 72.3129 379.213 69.7149 375.923 69.7149C372.605 69.7149 370.012 72.3129 370.012 75.7479C370.012 79.245 372.605 81.8185 375.923 81.8185Z" fill="white"/>
<path fill-rule="evenodd" clip-rule="evenodd" d="M279.063 2.5766C274.167 5.9014 270.781 6.00381 261.965 3.09316C256.331 1.23238 255.035 1.04817 247.407 1.01983C234.09 0.970881 225.633 3.95753 218.255 11.3137C206.844 22.6935 204.279 44.7775 212.465 61.1715C216.961 70.1772 227.615 78.1704 239.171 81.2098C245.683 82.9225 257.163 83.0809 263.187 81.5422C272.957 79.0463 280.878 73.1001 284.761 65.3452C286.475 61.9212 286.69 60.8495 286.688 55.6967C286.687 48.8088 285.525 46.0541 280.902 41.9853C277.515 39.0045 273.023 37.619 268.796 38.2528C260.757 39.4579 251.129 47.5574 251.711 52.6238C251.911 54.3718 251.993 54.4047 255.711 54.2334C260.199 54.0266 262.213 55.07 263.563 58.3027C264.879 61.4504 264.696 63.6957 262.819 67.4617C260.855 71.4042 258.12 73.3075 253.659 73.8356C245.692 74.7792 240.384 69.4301 237.256 57.307C235.443 50.2806 234.977 32.0953 236.4 23.9057C238.316 12.8808 241.648 7.88907 246.642 8.55892C250.124 9.02589 252.67 11.0206 257.904 17.3836C263.413 24.0809 265.482 25.4038 270.362 25.3491C278.756 25.2557 284.745 17.9285 286.143 6.04181C286.572 2.3911 285.689 -0.0274605 283.937 0.000235396C283.329 0.00989677 281.136 1.16926 279.063 2.5766ZM321.482 1.02305C316.04 2.33893 307.955 6.44566 303.634 10.0886C296.941 15.7315 292.036 23.3653 289.963 31.3656C288.66 36.3927 288.66 46.0167 289.963 51.0438C292.955 62.5917 301.218 72.4463 312.543 77.9733C318.948 81.0997 324.803 82.404 332.427 82.404C340.112 82.404 345.889 81.101 352.634 77.8471C357.159 75.6636 359.219 74.1358 363.727 69.6181C372.117 61.2108 375.903 52.4441 375.903 41.423C375.903 34.3084 375 30.3402 371.893 23.8142C369.766 19.3475 368.266 17.3186 363.739 12.7912C354.715 3.76688 345.167 -0.0403427 331.783 0.0478978C328.24 0.0710851 323.605 0.510355 321.482 1.02305ZM148.539 1.50419C137.863 3.82356 129.746 11.9836 128.777 21.3718C128.05 28.4124 131.742 36.0326 138.078 40.569C141.444 42.9792 153.265 47.3487 166.896 51.221C176.073 53.8282 179.448 56.9212 179.453 62.7251C179.461 73.2682 165.241 79.6466 155.5 73.4692C152.311 71.4467 150.471 68.3023 150.471 64.8744C150.471 62.7457 151.197 61.5052 155.76 55.8281C157.103 54.1574 157.138 53.903 156.239 52.3017C155.053 50.1898 151.625 49.0517 146.241 48.9834C140.391 48.9093 136.048 50.4416 132.743 53.7458C127.905 58.5842 127.367 64.6 131.249 70.4606C136.887 78.9729 151.177 83.7418 168.452 82.8768C180.519 82.2726 188.539 79.4174 195.157 73.3693C206.215 63.2629 207.574 49.4549 198.548 38.9104C195.238 35.0427 191.405 33.3126 176.557 28.9824C155.005 22.6974 153.363 22.0887 151.153 19.5722C147.554 15.4732 147.798 11.4728 151.767 9.48448C157.064 6.82954 162.359 8.81527 166.656 15.0675C168.136 17.2213 170.367 20.0605 171.613 21.377C177.93 28.0523 190.205 24.7482 194.28 15.2749C196.242 10.7134 196.751 4.46121 195.262 3.2252C194.302 2.42846 193.713 2.56758 190.434 4.3704C187.208 6.14358 186.065 6.42376 182.054 6.42376C178.158 6.42376 176.589 6.06307 172.315 4.18361C164.503 0.749314 156.281 -0.177534 148.539 1.50419ZM121.165 3.61423C117.422 5.00225 115.203 5.3404 108.093 5.60834C99.9385 5.91493 99.2963 5.84601 94.6633 4.15591C90.0027 2.45616 89.7077 2.42524 87.6254 3.41843C84.8951 4.72014 84.1859 7.04015 85.7755 9.46645C86.4042 10.4268 88.2153 12.8035 89.7998 14.7493C94.8308 20.9255 94.7181 20.2898 94.9583 43.9047C95.205 68.1303 95.2224 68.0343 89.3187 74.2769C85.8767 77.9166 85.1881 80.2553 87.0933 81.8366C88.1664 82.7267 87.7928 82.7962 99.8895 79.4476C104.507 78.1697 111.112 78.3443 119.345 79.9622C125.321 81.1371 126.715 81.2337 127.557 80.5348C129.27 79.1133 128.707 76.9885 125.451 72.5777C119.281 64.2194 119.259 64.1208 119.043 42.8793L118.854 24.2651L120.481 20.9802C121.376 19.1735 123.591 15.9711 125.405 13.8643C129.144 9.51797 130.034 7.66299 129.466 5.39772C129.12 4.0213 126.999 1.88936 126.013 1.92864C125.826 1.93637 123.645 2.69447 121.165 3.61423ZM29.0601 4.26605C20.7172 5.81509 15.0582 5.93167 6.10917 4.73881C3.60687 4.40518 2.90481 4.56105 1.76155 5.70431C-0.73237 8.19823 -0.0702442 10.5041 4.42358 14.9766C8.15609 18.6918 8.6295 19.4995 10.9257 26.0685C12.2873 29.9653 16.1544 40.9793 19.5179 50.544C22.882 60.1088 25.6651 68.8742 25.7031 70.0226C25.7501 71.4287 25.0731 73.104 23.6323 75.1477C18.8577 81.9216 22.4652 84.6171 32.9246 82.0916C37.9131 80.8872 47.4785 80.8891 54.8237 82.0955C62.4723 83.3521 65.2097 83.3411 65.7044 82.0517C66.5855 79.7555 65.9588 77.0059 63.47 72.2525C58.6992 63.1392 59.1063 59.0196 67.1941 34.6105C72.2058 19.4834 73.1217 17.6174 78.7929 10.9839C82.4978 6.65177 82.6511 4.93204 79.4731 3.36626C78.0825 2.68094 77.1183 2.79946 72.9156 4.17137C67.2695 6.01412 63.7676 6.18222 59.2738 4.82448C55.804 3.77654 54.1552 4.00713 53.2889 5.66244C52.4721 7.22243 53.4473 9.2642 55.815 10.9498C58.5176 12.875 60.2669 16.8503 60.2843 21.1097C60.2985 24.5144 52.7362 56.5199 51.2709 59.2586C50.2217 61.2185 49.1879 60.5203 47.8244 56.9315C43.0658 44.402 35.823 22.0468 35.823 19.8872C35.823 16.8039 36.9373 13.9828 39.6154 10.2857C41.8975 7.13484 42.1422 5.16392 40.4418 3.62518C39.0351 2.35181 39.5208 2.32476 29.0601 4.26605ZM339.982 10.6484C341.575 11.7555 343.342 13.7651 344.182 15.4249C345.6 18.23 345.631 18.7555 345.631 40.2489V62.2066L343.999 65.4811C342.98 67.5268 341.37 69.4468 339.707 70.5991C337.376 72.2138 336.466 72.4431 332.377 72.4431C328.228 72.4431 327.402 72.228 324.964 70.5108C323.455 69.4481 321.546 67.3013 320.722 65.7401C319.237 62.9273 319.223 62.7 319.237 40.9426C319.25 20.6382 319.345 18.7768 320.495 16.2436C322.999 10.7282 327.12 8.23237 333.219 8.53702C336.42 8.69676 337.787 9.12379 339.982 10.6484Z" fill="white"/>
<path d="M20.1684 117.473C21.3275 117.472 22.4724 117.217 23.5232 116.728C24.5566 116.272 25.4734 115.588 26.2052 114.727L24.2071 112.725C23.7167 113.315 23.1076 113.795 22.4194 114.135C21.7443 114.462 21.0031 114.629 20.253 114.624C19.62 114.631 18.992 114.512 18.4053 114.275C17.8185 114.037 17.2847 113.686 16.8347 113.24C16.4014 112.804 16.0591 112.287 15.8276 111.717C15.5794 111.113 15.4544 110.465 15.46 109.812C15.4532 109.152 15.5746 108.498 15.8175 107.884C16.0442 107.314 16.3802 106.793 16.8065 106.351C17.2341 105.913 17.7455 105.566 18.3102 105.329C18.8987 105.079 19.5321 104.952 20.1714 104.956C20.9424 104.954 21.7035 105.13 22.3942 105.473C23.1081 105.832 23.7332 106.345 24.2242 106.975L26.2858 104.909C25.561 104.029 24.6386 103.332 23.5937 102.876C22.5199 102.379 21.3514 102.121 20.1684 102.119C19.1118 102.112 18.0643 102.315 17.0865 102.716C16.1602 103.091 15.3144 103.641 14.5948 104.335C13.8846 105.03 13.3197 105.858 12.933 106.773C12.5322 107.733 12.325 108.762 12.3233 109.801C12.3215 110.841 12.5253 111.871 12.923 112.831C13.305 113.743 13.8664 114.569 14.5737 115.26C15.2936 115.953 16.1397 116.503 17.0664 116.878C18.0507 117.28 19.1052 117.482 20.1684 117.473ZM60.0283 117.496C61.0814 117.503 62.1254 117.301 63.0991 116.899C64.0214 116.525 64.8605 115.972 65.5681 115.272C66.2758 114.572 66.838 113.739 67.2224 112.821C67.6248 111.868 67.8322 110.843 67.8322 109.808C67.8322 108.773 67.6248 107.748 67.2224 106.795C66.838 105.876 66.2759 105.043 65.5682 104.344C64.8605 103.644 64.0214 103.091 63.0991 102.717C61.136 101.922 58.9408 101.922 56.9777 102.717C56.0554 103.091 55.2162 103.644 54.5086 104.344C53.8009 105.043 53.2387 105.876 52.8544 106.795C52.4522 107.748 52.245 108.773 52.245 109.808C52.245 110.843 52.4522 111.868 52.8544 112.821C53.2388 113.739 53.801 114.572 54.5086 115.272C55.2163 115.972 56.0554 116.525 56.9777 116.899C57.9451 117.299 58.9826 117.501 60.0293 117.495L60.0283 117.496ZM60.0283 114.663C59.4103 114.669 58.7977 114.548 58.2281 114.308C57.6586 114.068 57.1439 113.714 56.7158 113.269C56.2935 112.822 55.9614 112.297 55.7379 111.725C55.2609 110.487 55.2609 109.117 55.7379 107.88C55.9633 107.312 56.2952 106.791 56.7158 106.347C57.1439 105.902 57.6586 105.548 58.2281 105.308C58.7977 105.068 59.4103 104.947 60.0283 104.952C60.6644 104.948 61.2947 105.075 61.8794 105.325C62.4378 105.562 62.9422 105.91 63.362 106.347C63.7825 106.791 64.1144 107.312 64.3399 107.88C64.8167 109.117 64.8167 110.487 64.3399 111.725C64.1163 112.297 63.7843 112.822 63.362 113.269C62.9422 113.706 62.4378 114.054 61.8794 114.291C61.2949 114.541 60.665 114.667 60.0293 114.662L60.0283 114.663ZM106.261 117.262V114.537H98.2043V102.354H95.1566V117.26L106.261 117.262ZM144.713 117.262V114.537H136.656V102.354H133.607V117.26L144.713 117.262ZM183.458 117.262V114.579H175.108V111.043H180.557V108.444H175.108V105.04H183.375V102.357H172.056V117.263L183.458 117.262ZM217.282 117.474C218.442 117.473 219.586 117.218 220.637 116.729C221.671 116.272 222.587 115.588 223.319 114.728L221.32 112.727C220.83 113.317 220.221 113.797 219.532 114.137C218.857 114.464 218.116 114.631 217.366 114.626C216.733 114.633 216.105 114.514 215.519 114.277C214.932 114.039 214.399 113.688 213.949 113.242C213.515 112.807 213.173 112.289 212.942 111.719C212.693 111.115 212.568 110.467 212.573 109.814C212.566 109.154 212.688 108.5 212.932 107.886C213.157 107.316 213.493 106.795 213.92 106.353C214.347 105.915 214.858 105.567 215.423 105.331C216.012 105.081 216.645 104.954 217.284 104.958C218.058 104.956 218.822 105.134 219.514 105.479C220.228 105.838 220.853 106.351 221.344 106.981L223.406 104.915C222.681 104.035 221.759 103.338 220.714 102.882C219.64 102.386 218.472 102.128 217.289 102.125C216.233 102.118 215.185 102.321 214.208 102.722C213.281 103.097 212.435 103.646 211.715 104.34C211.004 105.034 210.439 105.863 210.052 106.778C209.651 107.738 209.444 108.767 209.442 109.806C209.441 110.846 209.644 111.876 210.042 112.836C210.424 113.748 210.986 114.574 211.693 115.265C212.413 115.958 213.259 116.508 214.185 116.883C215.169 117.283 216.221 117.483 217.282 117.473V117.474ZM257.627 117.262V105.079H262.569V102.353H249.612V105.079H254.576V117.26L257.627 117.262ZM292.565 117.262V102.356H289.515V117.262H292.565ZM327.693 117.497C328.746 117.504 329.79 117.302 330.764 116.9C331.686 116.526 332.525 115.973 333.233 115.273C333.941 114.573 334.503 113.74 334.887 112.822C335.289 111.869 335.497 110.844 335.497 109.809C335.497 108.774 335.289 107.749 334.887 106.796C334.503 105.877 333.941 105.044 333.233 104.345C332.525 103.645 331.686 103.092 330.764 102.718C328.801 101.923 326.606 101.923 324.643 102.718C323.722 103.092 322.883 103.645 322.175 104.345C321.468 105.045 320.906 105.878 320.521 106.796C320.118 107.749 319.911 108.774 319.911 109.809C319.911 110.844 320.118 111.869 320.521 112.822C320.906 113.74 321.468 114.573 322.175 115.273C322.883 115.972 323.722 116.526 324.643 116.9C325.61 117.299 326.647 117.501 327.693 117.495V117.497ZM327.693 114.664C327.06 114.67 326.434 114.543 325.853 114.292C325.298 114.053 324.798 113.706 324.381 113.27C323.958 112.823 323.625 112.299 323.402 111.726C322.925 110.488 322.925 109.118 323.402 107.881C323.627 107.312 323.959 106.792 324.381 106.348C324.798 105.912 325.298 105.564 325.853 105.326C326.434 105.075 327.06 104.948 327.693 104.953C328.329 104.949 328.959 105.076 329.543 105.326C330.102 105.563 330.607 105.911 331.027 106.348C331.447 106.792 331.779 107.313 332.005 107.881C332.482 109.118 332.482 110.489 332.005 111.726C331.781 112.298 331.449 112.823 331.027 113.27C330.607 113.707 330.102 114.055 329.543 114.292C328.959 114.542 328.329 114.668 327.693 114.662V114.664ZM365.702 117.263V107.292L373.211 117.263H375.903V102.357H373.043V112.004L365.723 102.357H362.819V117.263H365.702Z" fill="white"/>
</svg>
