<svg width="485" height="126" viewBox="0 0 485 126" fill="none" xmlns="http://www.w3.org/2000/svg">
<path d="M100.58 125.591C99.228 125.591 98.6723 125.326 98.1797 124.973L100.908 112.898C105.632 112.178 107.589 108.944 108.575 100.356C111.063 78.8457 125.411 77.5953 127.028 77.5322C127.217 77.5195 127.394 77.5195 127.558 77.5195C128.064 77.5195 128.493 77.5574 129.137 77.6711L126.257 90.4785C121.584 91.1227 120.536 95.1265 118.629 106.734C115.761 124.088 103.56 125.49 101.148 125.591C100.933 125.591 100.744 125.591 100.58 125.591Z" fill="white"/>
<path d="M347.129 125.591C345.765 125.591 345.222 125.326 344.717 124.973L347.445 112.898C352.169 112.178 354.127 108.944 355.112 100.356C357.6 78.8457 371.948 77.5953 373.565 77.5322C373.755 77.5195 373.931 77.5195 374.096 77.5195C374.601 77.5195 375.03 77.5574 375.674 77.6711L372.795 90.4785C368.121 91.1227 367.073 95.1265 365.166 106.734C362.299 124.088 350.097 125.49 347.685 125.591C347.483 125.591 347.293 125.591 347.129 125.591Z" fill="white"/>
<path d="M80.6986 125.591C79.3472 125.591 78.7914 125.326 78.2988 124.973L81.027 112.898C85.7509 112.178 87.7086 108.944 88.6938 100.356C91.182 78.8457 105.53 77.5953 107.147 77.5322C107.337 77.5195 107.513 77.5195 107.678 77.5195C108.183 77.5195 108.612 77.5574 109.256 77.6711L106.377 90.4785C101.703 91.1227 100.655 95.1265 98.7478 106.734C95.868 124.076 83.6668 125.478 81.2544 125.579C81.0523 125.591 80.8628 125.591 80.6986 125.591Z" fill="white"/>
<path d="M304.297 64.6875H291.957V125.592H304.297V64.6875Z" fill="white"/>
<path d="M417.151 77.5195C403.561 77.5195 392.156 87.3966 390.968 100.987C389.781 114.578 399.835 125.591 413.425 125.591C427.016 125.591 440.278 115.02 440.19 100.987C440.101 87.3335 430.742 77.5195 417.151 77.5195ZM425.816 109.93C422.583 113.176 417.947 115.121 413.413 115.121C409.826 115.121 406.63 113.782 404.395 111.344C402.134 108.881 401.073 105.534 401.389 101.897C402.083 93.9645 408.853 87.9903 417.139 87.9903C424.831 87.9903 429.643 92.992 429.694 101.05C429.732 105.13 427.61 108.123 425.816 109.93Z" fill="white"/>
<path d="M74.0289 125.49H63.2044L68.5219 101.896C68.5472 101.58 68.5598 101.264 68.5598 100.949C68.5093 92.8904 63.697 87.8887 56.005 87.8887C47.7193 87.8887 40.9493 93.863 40.2547 101.795C39.9389 105.42 40.9999 108.78 43.2607 111.243C45.4963 113.68 48.6919 115.019 52.279 115.019C55.4493 115.019 58.6701 114.072 61.4235 112.392L58.6448 124.745L58.5816 124.757C58.5816 124.757 54.4135 125.503 52.279 125.503C38.6885 125.503 28.6345 114.489 29.8218 100.898C30.9964 87.2951 42.4018 77.418 56.005 77.418C69.6082 77.418 78.9422 87.2445 79.0306 100.886C79.0432 102.174 78.9295 103.424 78.7274 104.649L74.0289 125.49Z" fill="white"/>
<path d="M193.566 89.2666H201.738L203.936 79.541H195.777L199.124 64.6875H187.769L177.791 108.932C177.791 108.932 177.563 109.943 177.488 110.271C175.669 118.014 177.69 125.579 187.756 125.579C187.756 125.579 188.981 125.579 189.196 125.579L194.665 115.854H189.904C187.895 115.854 188.047 113.82 188.527 111.711C189.714 106.444 193.566 89.2666 193.566 89.2666Z" fill="white"/>
<path d="M218.398 89.2666H226.57L228.768 79.541H220.609L223.956 64.6875H212.601L202.623 108.932C202.623 108.932 202.395 109.943 202.32 110.271C200.501 118.014 202.522 125.579 212.588 125.579C212.588 125.579 213.814 125.579 214.028 125.579L219.497 115.854H214.736C212.727 115.854 212.866 113.82 213.359 111.711C214.533 106.444 218.398 89.2666 218.398 89.2666Z" fill="white"/>
<path d="M26.2102 125.527C18.1519 124.757 10.9651 121.321 6.22861 115.903C1.44162 110.434 -0.65506 103.361 0.178559 95.4792C2.85625 70.0033 25.1366 64.8122 43.451 64.9764L41.1017 75.4597C16.1563 75.8766 11.584 87.1557 10.5988 96.5781C9.31048 108.868 18.7961 114.779 28.5469 115.195L26.2102 125.527Z" fill="white"/>
<path d="M339.361 79.543L328.979 125.594H340.346C342.329 116.778 347.331 94.5733 350.716 79.543H339.361Z" fill="white"/>
<path d="M393.179 74.413C394.455 68.7293 395.377 64.6875 395.377 64.6875H384.022L381.824 74.413H393.179Z" fill="white"/>
<path d="M380.675 79.543L370.293 125.594H381.661C383.644 116.778 388.645 94.5733 392.03 79.543H380.675Z" fill="white"/>
<path d="M450.068 79.5391L439.686 125.59H451.053C453.036 116.774 458.038 94.5694 461.423 79.5391H450.068Z" fill="white"/>
<path d="M459.983 79.543L457.785 89.2685H470.567C472.134 89.2685 473.296 90.721 472.955 92.2493L465.439 125.594H476.807C478.335 118.799 481.67 104.008 484.663 90.7463C485.951 85.012 481.594 79.5556 475.708 79.5556L459.983 79.543Z" fill="white"/>
<path d="M346.887 64.6875H342.707H338.122C334.497 64.6875 331.124 66.5442 329.192 69.6134L293.852 125.592H308.44L340.749 74.413H351.864C353.14 68.7293 354.062 64.6875 354.062 64.6875H346.887Z" fill="white"/>
<path d="M241.626 112.632L275.539 96.0359C273.493 85.0347 264.853 77.5195 252.968 77.5195C239.377 77.5195 227.972 87.3966 226.785 100.987C225.597 114.578 235.651 125.591 249.242 125.591C251.44 125.591 253.637 125.314 255.759 124.796C255.987 124.733 256.227 124.682 256.454 124.619L259.334 111.875C256.391 113.946 252.791 115.121 249.242 115.121C246.349 115.121 243.71 114.249 241.626 112.632ZM237.218 101.897C237.912 93.9645 244.682 87.9903 252.968 87.9903C257.174 87.9903 260.508 89.4807 262.693 92.1584L237.243 104.612C237.142 103.728 237.142 102.819 237.218 101.897Z" fill="white"/>
<path d="M142.815 112.632L176.728 96.0359C174.682 85.0347 166.043 77.5195 154.157 77.5195C140.567 77.5195 129.161 87.3966 127.974 100.987C126.787 114.578 136.841 125.591 150.431 125.591C152.629 125.591 154.827 125.314 156.949 124.796C157.176 124.733 157.416 124.682 157.643 124.619L160.523 111.875C157.58 113.946 153.981 115.121 150.431 115.121C147.539 115.121 144.899 114.249 142.815 112.632ZM138.407 101.897C139.102 93.9645 145.872 87.9903 154.157 87.9903C158.363 87.9903 161.698 89.4807 163.883 92.1584L138.432 104.612C138.331 103.728 138.319 102.819 138.407 101.897Z" fill="white"/>
<path d="M16.2589 0.304688H25.5172L25.1256 2.22453H18.0651L17.3704 5.54637H23.9131L23.5342 7.36517H16.9662L16.1958 11.0786H23.3068L22.9153 12.9984H13.6191L16.2589 0.304688Z" fill="#FF221D"/>
<path d="M27.5246 0.304688H32.6273C36.5933 0.304688 36.5933 2.995 36.5933 4.18227C36.5933 4.25805 36.5428 8.13564 31.9326 8.13564H28.1308L27.1204 13.011H24.8848L27.5246 0.304688ZM28.4971 6.31684H31.8569C33.8525 6.31684 34.3703 4.978 34.3703 3.86651C34.3703 3.1592 34.0672 2.12349 32.2484 2.12349H29.3686L28.4971 6.31684Z" fill="#FF221D"/>
<path d="M44.0462 0C47.3933 0 49.591 2.29876 49.591 5.54482C49.591 10.8749 46.2692 13.3 42.8716 13.3C39.2466 13.3 37.2383 10.9002 37.2383 7.75517C37.2257 2.41244 40.737 0 44.0462 0ZM42.9347 11.4938C45.865 11.4938 47.3681 8.44985 47.3681 5.6206C47.3681 3.25869 46.1934 1.8188 43.9704 1.8188C40.9517 1.8188 39.4487 4.86277 39.4487 7.69201C39.4487 10.0413 40.7117 11.4938 42.9347 11.4938Z" fill="#FF221D"/>
<path d="M60.3267 4.53346C60.3267 2.75255 59.2784 1.81789 57.4596 1.81789C54.4409 1.81789 52.9378 4.86186 52.9378 7.6911C52.9378 10.053 54.2009 11.4929 56.4239 11.4929C58.7226 11.4929 59.4678 9.44675 59.7078 8.57524H61.9308C61.1982 11.7708 59.0005 13.3117 56.3481 13.3117C52.7231 13.3117 50.7148 10.9119 50.7148 7.76689C50.7148 2.43679 54.2135 0.0117188 57.5227 0.0117188C60.5288 0.0117188 62.6255 1.62843 62.5371 4.54609H60.3267V4.53346Z" fill="#FF221D"/>
<path d="M65.5441 0.304688H67.7671L66.7187 5.35691H72.6551L73.7035 0.304688H75.9264L73.2993 12.9984H71.0763L72.2636 7.27676H66.3272L65.1399 12.9984H62.9043L65.5441 0.304688Z" fill="#FF221D"/>
<path d="M82.203 0.304688H92.6611L92.257 2.22453H88.2152L85.9796 12.9984H83.7439L85.9796 2.22453H81.7988L82.203 0.304688Z" fill="#FF221D"/>
<path d="M92.5352 0.304688H94.796L95.9833 10.3334H96.0212L101.326 0.304688H103.688L96.7159 12.9984H94.1898L92.5352 0.304688Z" fill="#FF221D"/>
<path d="M118.176 12.9959H116.749V11.6697H116.711C115.827 12.7938 114.399 13.3117 113.338 13.3117C109.713 13.3117 107.705 10.9119 107.705 7.76689C107.705 2.43679 111.204 0.0117188 114.513 0.0117188C117.506 0.0117188 119.793 1.40108 119.818 4.36926H117.595C117.506 2.63888 116.319 1.83052 114.45 1.83052C111.431 1.83052 109.928 4.87449 109.928 7.70373C109.928 10.0656 111.191 11.5055 113.414 11.5055C115.599 11.5055 116.799 10.053 117.279 8.0195H113.793L114.147 6.327H119.603L118.176 12.9959Z" fill="#FF221D"/>
<path d="M127.194 0.304688H129.544L131.754 12.9984H129.493L128.975 9.63867H123.923L121.965 12.9984H119.578L127.194 0.304688ZM127.952 2.5403H127.914L124.858 7.94618H128.735L127.952 2.5403Z" fill="#FF221D"/>
<path d="M135.53 0.304688H138.587L139.976 9.9797H140.014L145.521 0.304688H148.666L146.052 12.9984H143.917L146.127 2.8308H146.09L140.343 12.9984H138.6L136.996 2.8308H136.958L135.025 12.9984H132.891L135.53 0.304688Z" fill="#FF221D"/>
<path d="M151.293 0.304688H160.539L160.147 2.22453H153.087L152.392 5.54637H158.935L158.556 7.36517H151.988L151.217 11.0786H158.328L157.937 12.9984H148.641L151.293 0.304688Z" fill="#FF221D"/>
<path d="M66.6409 56.6049L66.7545 56.0744C65.7567 56.365 64.3926 56.6049 62.5864 56.6049H58.4057C56.0943 56.6049 53.9345 55.5692 52.4946 53.7631C51.0547 51.9569 50.5116 49.6202 51.0168 47.3594L55.0586 29.4492H63.3695L59.2393 47.8393C59.1636 48.1677 59.2393 48.4961 59.4541 48.7487C59.6561 49.0013 59.9719 49.1529 60.3003 49.1529H66.1609C67.4366 49.1529 68.5228 48.2814 68.8007 47.0436L72.7667 29.4492H81.0776L74.9518 56.6049H66.6409Z" fill="#FF221D"/>
<path d="M79.726 30.5348L76.3915 45.3252L75.28 50.2511L74.0927 55.5307H67.9922L68.2827 54.2171C68.2827 54.2171 66.7291 55.5307 62.5863 55.5307H58.4056C54.2375 55.5307 51.1556 51.6658 52.065 47.6113L55.9173 30.5475H62.0179L58.1656 47.6113C57.8624 48.9628 58.8855 50.2511 60.2749 50.2511H66.1355C67.9038 50.2511 69.4447 49.026 69.8362 47.2956L73.6128 30.5348H79.726ZM82.4289 28.375H79.726H73.6254H71.895L71.5161 30.0675L67.7396 46.8283C67.5754 47.5735 66.9186 48.0913 66.1607 48.0913H60.3001L64.1525 31.0274L64.7461 28.3876H62.0432H55.9426H54.2122L53.8333 30.0801L49.9809 47.144C49.3999 49.7207 50.0062 52.3857 51.6608 54.4571C53.3154 56.5285 55.7784 57.7032 58.4182 57.7032H62.5989C63.6346 57.7032 64.544 57.6274 65.3397 57.5137L65.3019 57.7032H68.0048H74.1054H75.8358L76.2147 56.0107L77.402 50.7311L78.5135 45.8052L81.8479 31.0148L82.4289 28.375Z" fill="#FF221D"/>
<path d="M140.592 56.6049L146.718 29.4492H155.029L154.915 29.9671C155.913 29.6766 157.277 29.4492 159.083 29.4492H164.59L162.91 36.8886H155.521C154.245 36.8886 153.159 37.7601 152.881 38.9979L148.915 56.5923L140.592 56.6049Z" fill="#FF221D"/>
<path d="M163.227 30.5348L162.04 35.8144H155.509C153.741 35.8144 152.2 37.0396 151.809 38.77L151.266 41.1824L151.127 41.7887L148.512 53.3709L148.032 55.5181H141.932L146.378 35.8018L147.565 30.5222H153.665L153.375 31.8358C153.375 31.8358 154.928 30.5222 159.071 30.5222L163.227 30.5348ZM165.942 28.375H163.239H159.084C158.048 28.375 157.139 28.4508 156.356 28.5645L156.394 28.375H153.691H147.59H145.86L145.481 30.0675L144.294 35.3471L139.848 55.0634L139.254 57.7032H141.957H148.057H149.788L150.167 56.0107L150.647 53.8635L153.261 42.2812L153.4 41.675L153.943 39.2625C154.107 38.5173 154.764 37.9995 155.522 37.9995H162.052H163.783L164.161 36.307L165.349 31.0274L165.942 28.375Z" fill="#FF221D"/>
<path d="M119.146 56.6049C116.834 56.6049 114.675 55.5692 113.235 53.7631C111.782 51.9569 111.252 49.6202 111.757 47.3594L114.005 37.3812C115.053 32.7079 119.146 29.4492 123.933 29.4492H133.368C135.679 29.4492 137.839 30.4849 139.279 32.2911C140.719 34.0973 141.262 36.4339 140.757 38.6948L140.479 39.9073C139.771 43.0271 137.561 45.4521 134.694 46.4752H139.001L138.508 48.6856C137.46 53.3589 133.368 56.6176 128.581 56.6176H119.146V56.6049ZM119.967 47.8393C119.891 48.1677 119.967 48.4961 120.181 48.7487C120.384 49.0013 120.699 49.1529 121.028 49.1529H128.177C129.288 49.1529 130.248 48.3951 130.488 47.2962L130.564 46.9804H120.156L119.967 47.8393ZM130.842 39.5537C131.663 39.5537 132.37 38.9979 132.547 38.1896C132.623 37.8738 132.547 37.5454 132.345 37.2928C132.143 37.0402 131.839 36.9013 131.511 36.9013H124.602C123.326 36.9013 122.24 37.7728 121.962 39.0106L121.836 39.5537H130.842Z" fill="#FF221D"/>
<path d="M133.355 30.5348C137.523 30.5348 140.605 34.3998 139.696 38.4542L139.418 39.6667C138.597 43.317 135.351 45.9189 131.599 45.9189H119.285L118.906 47.6113C118.603 48.9628 119.626 50.2511 121.015 50.2511H128.164C129.781 50.2511 131.183 49.127 131.536 47.5608H137.637L137.435 48.445C136.5 52.5878 132.812 55.5307 128.568 55.5307H119.133C114.965 55.5307 111.883 51.6658 112.792 47.6113L115.041 37.6332C115.975 33.4904 119.664 30.5475 123.907 30.5475L133.355 30.5348ZM120.497 40.6393H130.854C132.18 40.6393 133.33 39.7172 133.62 38.4289C133.923 37.0901 132.9 35.8144 131.536 35.8144H124.627C122.859 35.8144 121.318 37.0396 120.939 38.77L120.497 40.6393ZM133.355 28.375H123.92C118.615 28.375 114.106 31.9873 112.944 37.1532L110.696 47.1314C110.115 49.708 110.721 52.3731 112.376 54.4445C114.03 56.5159 116.493 57.6905 119.133 57.6905H128.568C133.873 57.6905 138.382 54.0782 139.544 48.9123L139.746 48.0282L140.34 45.3884H138.521C139.986 44.0243 141.06 42.2307 141.527 40.1467L141.805 38.9342C142.386 36.3575 141.78 33.6925 140.125 31.6211C138.47 29.5496 136.008 28.375 133.355 28.375ZM123.44 38.4668C123.731 38.1637 124.147 37.9742 124.602 37.9742H131.473C131.397 38.2647 131.132 38.4668 130.829 38.4668H123.44ZM121.028 48.0787H128.227C128.214 48.0787 128.202 48.0787 128.177 48.0787H121.028Z" fill="#FF221D"/>
<path d="M78.2344 59.27L84.9538 29.4492H93.2648L93.1511 29.9797C94.1489 29.6892 95.513 29.4492 97.3192 29.4492H102.435C104.746 29.4492 106.906 30.4849 108.346 32.2911C109.786 34.0973 110.329 36.4339 109.823 38.6948L107.866 47.3846C106.817 52.0579 102.725 55.3166 97.9381 55.3166H91.9638C89.8924 55.3166 88.503 55.0009 87.581 54.6346L86.5327 59.27H78.2344ZM93.7574 36.9013C92.4817 36.9013 91.3955 37.7728 91.1176 39.0106L89.4125 46.551C89.3367 46.8794 89.4124 47.2078 89.6272 47.4604C89.8293 47.713 90.145 47.8646 90.4734 47.8646H97.2813C98.557 47.8646 99.6432 46.9931 99.9211 45.7553L101.626 38.2148C101.702 37.8864 101.626 37.558 101.412 37.3054C101.209 37.0528 100.894 36.9013 100.565 36.9013H93.7574Z" fill="#FF221D"/>
<path d="M102.435 30.5348C106.603 30.5348 109.684 34.3998 108.775 38.4542L106.817 47.144C105.883 51.2868 102.195 54.2298 97.9506 54.2298H91.9764C87.8209 54.2298 86.8736 52.9162 86.8736 52.9162L86.4568 54.735L86.28 55.5181L85.6737 58.1831H79.5858L80.192 55.5181L81.1141 51.4384L84.638 35.8144L85.5221 31.8737L85.8253 30.5348H91.9258L91.6353 31.8484C91.6353 31.8484 93.1889 30.5348 97.3317 30.5348H98.8727H99.9842H102.435ZM89.766 40.0709L88.3514 46.323C88.0483 47.6745 89.0713 48.9628 90.4607 48.9628H97.2686C99.0369 48.9628 100.578 47.7377 100.969 46.0073L102.674 38.4668C102.978 37.1154 101.955 35.827 100.565 35.827H99.4032H98.6201H93.7573C91.989 35.827 90.4481 37.0522 90.0565 38.7826L89.766 40.0709ZM102.435 28.375H99.9715H98.86H97.3191C96.2834 28.375 95.374 28.4508 94.5783 28.5645L94.6162 28.375H91.9132H85.8126H84.0823L83.7033 30.0675L83.4002 31.4063L82.5161 35.3471L78.9921 50.9711L78.0701 55.0508L77.5775 57.2485L77.4765 57.7158L76.8828 60.3556H79.5858H85.6737H87.4041L87.783 58.6631L88.3767 56.0233C89.3113 56.2507 90.486 56.4022 91.9637 56.4022H97.938C103.243 56.4022 107.752 52.7899 108.914 47.624L110.872 38.9342C111.453 36.3575 110.846 33.6925 109.192 31.6211C107.55 29.5496 105.087 28.375 102.435 28.375ZM91.8753 40.5382L92.1658 39.2373C92.33 38.4921 92.9868 37.9742 93.7447 37.9742H98.6074H99.3905H100.553L98.8474 45.5147C98.6832 46.2599 98.0264 46.7777 97.2686 46.7777H90.4607L91.8753 40.5382Z" fill="#FF221D"/>
<path d="M20.5112 56.61C18.1998 56.61 16.04 55.5743 14.6001 53.7681C13.1602 51.9619 12.6171 49.6253 13.1223 47.3644L13.3117 46.5182L14.1833 46.4676H21.6227L21.3195 47.8444C21.2438 48.1728 21.3195 48.5012 21.5343 48.7538C21.7364 49.0064 22.0521 49.1579 22.3805 49.1579H36.3373C37.613 49.1579 38.6992 48.2864 38.9771 47.0486L39.6213 44.1815C39.735 43.6763 39.6213 43.1584 39.2929 42.7669C38.9771 42.3627 38.4972 42.1353 37.9793 42.1353H24.4519C21.9763 42.1353 19.6649 41.0239 18.1114 39.0914C16.5578 37.1589 15.9894 34.6581 16.5325 32.233L17.1641 29.4164C18.2124 24.7431 22.3047 21.4844 27.0917 21.4844H43.5115C45.8229 21.4844 47.9827 22.5201 49.4352 24.3389C50.8878 26.1451 51.4183 28.4817 50.9004 30.7426L50.7109 31.5888L49.8394 31.6267H42.4505L42.7537 30.3005C42.8421 29.9216 42.7663 29.5932 42.5516 29.3406C42.3369 29.088 42.0337 28.9364 41.7053 28.9364H27.7485C26.4728 28.9364 25.3866 29.8079 25.1087 31.0457L24.7424 32.6498C24.6288 33.155 24.7551 33.6729 25.0708 34.0644C25.3866 34.4686 25.8666 34.6959 26.3844 34.6959H41.7558C43.7767 34.6959 45.6587 35.6053 46.9218 37.1842C48.1848 38.763 48.6522 40.7965 48.1975 42.7669L46.8586 48.7032C45.7976 53.3639 41.718 56.6226 36.9436 56.6226L20.5112 56.61Z" fill="#FF221D"/>
<path d="M43.5112 22.5583C47.6793 22.5583 50.7738 26.4358 49.8391 30.4903L49.8265 30.5281H43.8017L43.8143 30.4776C44.1175 29.1262 43.0944 27.8378 41.705 27.8378H27.7482C25.9799 27.8378 24.439 29.063 24.0475 30.7934L23.6812 32.3975C23.2896 34.1279 24.6032 35.7698 26.3715 35.7698H41.7429C45.2921 35.7698 47.9193 39.0664 47.1236 42.5272L45.7721 48.4509C44.8248 52.5937 41.1493 55.524 36.9054 55.524H20.5109C16.3428 55.524 13.2609 51.6591 14.1703 47.6047L14.183 47.5542H20.2835L20.2709 47.6047C19.9678 48.9561 20.9909 50.2445 22.3802 50.2445H36.337C38.1053 50.2445 39.6462 49.0193 40.0378 47.2889L40.682 44.4218C41.0735 42.6914 39.7599 41.0494 37.9916 41.0494H24.4516C19.9425 41.0494 16.5954 36.8687 17.5932 32.4606L18.2248 29.644C19.1594 25.5012 22.8476 22.5583 27.0914 22.5583H43.5112ZM43.5112 20.3984H27.0914C21.7866 20.3984 17.2775 24.0108 16.1154 29.1767L15.4839 31.9933C14.865 34.7341 15.5218 37.5634 17.2775 39.7611C19.0331 41.9588 21.6476 43.2092 24.4643 43.2092H37.9916C38.2442 43.2092 38.3958 43.3482 38.459 43.4366C38.5221 43.525 38.6358 43.7018 38.5726 43.9418L37.9285 46.8089C37.7643 47.5542 37.1075 48.072 36.3497 48.072H22.3802L22.3929 48.0215L22.9865 45.3817H20.2709H14.1703H12.4526L12.0737 47.0742L12.061 47.1247C11.48 49.7013 12.0863 52.3664 13.7409 54.4378C15.3955 56.5092 17.8585 57.6839 20.4983 57.6839H36.9307C42.2229 57.6839 46.732 54.0842 47.9067 48.9309L49.2581 43.0071C49.776 40.7084 49.2455 38.3465 47.7677 36.5024C46.2899 34.6583 44.1048 33.61 41.7556 33.61H26.3841C26.1315 33.61 25.9799 33.4711 25.9168 33.3827C25.8536 33.2942 25.74 33.1174 25.8031 32.8774L26.1694 31.2734C26.3336 30.5282 26.9904 30.0103 27.7482 30.0103H41.705L41.6924 30.0608L41.0988 32.7006H43.8017H49.8265H51.5569L51.9358 31.0207L51.9484 30.9829C52.5421 28.3936 51.9232 25.7285 50.2812 23.6571C48.6266 21.5857 46.1636 20.3984 43.5112 20.3984Z" fill="#FF221D"/>
<path d="M63.6858 51.2768L63.7995 50.7463C62.8016 51.0368 61.4375 51.2768 59.6314 51.2768H55.4506C53.1392 51.2768 50.9794 50.2411 49.5395 48.4349C48.0996 46.6288 47.5565 44.2921 48.0617 42.0312L52.1035 24.1211H60.4145L56.2716 42.5112C56.1958 42.8396 56.2716 43.168 56.4864 43.4206C56.6884 43.6732 57.0042 43.8248 57.3326 43.8248H63.1932C64.4689 43.8248 65.5551 42.9533 65.833 41.7155L69.8116 24.1211H78.1226L71.9967 51.2768H63.6858Z" fill="#FDEB05"/>
<path d="M76.7709 25.195L73.4364 39.9854L72.3249 44.9113L71.1377 50.1909H65.0371L65.3276 48.8773C65.3276 48.8773 63.774 50.1909 59.6312 50.1909H55.4505C51.2824 50.1909 48.2005 46.3259 49.1099 42.2715L52.9622 25.2076H59.0628L55.2105 42.2715C54.9074 43.623 55.9304 44.9113 57.3198 44.9113H63.1804C64.9487 44.9113 66.4896 43.6861 66.8812 41.9557L70.6577 25.195H76.7709ZM79.4739 23.0352H76.7709H70.6703H68.94L68.561 24.7277L64.7845 41.4884C64.6203 42.2336 63.9635 42.7515 63.2057 42.7515H57.3451L61.1974 25.6876L61.791 23.0478H59.0881H52.9875H51.2571L50.8782 24.7403L47.0259 41.8042C46.4449 44.3808 47.0511 47.0459 48.7057 49.1173C50.3603 51.1887 52.8233 52.3633 55.4631 52.3633H59.6438C60.6795 52.3633 61.5889 52.2875 62.3847 52.1739L62.3468 52.3633H65.0497H71.1503H72.8807L73.2596 50.6708L74.4469 45.3913L75.5584 40.4653L78.8929 25.6749L79.4739 23.0352Z" fill="#FF221D"/>
<path d="M137.639 51.2768L143.765 24.1211H152.075L151.962 24.6389C152.96 24.3484 154.324 24.1211 156.13 24.1211H161.637L159.957 31.5605H152.568C151.292 31.5605 150.206 32.432 149.928 33.6698L145.95 51.2768H137.639Z" fill="#FDEB05"/>
<path d="M160.273 25.2076L159.085 30.4872H152.555C150.787 30.4872 149.246 31.7124 148.855 33.4427L148.311 35.8552L148.172 36.4614L145.558 48.0437L145.078 50.1909H138.977L143.423 30.4746L144.611 25.195H150.711L150.421 26.5086C150.421 26.5086 151.974 25.195 156.117 25.195L160.273 25.2076ZM162.988 23.0352H160.285H156.117C155.081 23.0352 154.172 23.1109 153.376 23.2246L153.414 23.0352H150.711H144.623H142.893L142.514 24.7277L141.327 30.0072L136.881 49.7235L136.287 52.3633H138.99H145.091H146.821L147.2 50.6708L147.68 48.5236L150.294 36.9414L150.433 36.3351L150.976 33.9227C151.141 33.1775 151.797 32.6596 152.555 32.6596H159.085H160.816L161.195 30.9672L162.382 25.6876L162.988 23.0352Z" fill="#FF221D"/>
<path d="M116.193 51.2768C113.881 51.2768 111.722 50.2411 110.282 48.4349C108.842 46.6288 108.299 44.2921 108.804 42.0312L111.052 32.0531C112.101 27.3798 116.193 24.1211 120.98 24.1211H130.415C132.726 24.1211 134.886 25.1568 136.339 26.963C137.779 28.7691 138.322 31.1058 137.816 33.3667L137.539 34.5792C136.831 37.6989 134.621 40.124 131.754 41.1471H136.061L135.568 43.3448C134.52 48.0181 130.428 51.2768 125.641 51.2768H116.193ZM117.014 42.5112C116.938 42.827 117.014 43.168 117.229 43.4206C117.431 43.6732 117.746 43.8248 118.075 43.8248H125.224C126.335 43.8248 127.295 43.0669 127.535 41.9681L127.611 41.6523H117.203L117.014 42.5112ZM127.889 34.2255C128.71 34.2255 129.417 33.6698 129.594 32.8614C129.67 32.5457 129.594 32.2173 129.392 31.9647C129.19 31.7121 128.887 31.5731 128.571 31.5731H121.662C120.386 31.5731 119.3 32.4446 119.022 33.6824L118.896 34.2255H127.889Z" fill="#FDEB05"/>
<path d="M130.402 25.2076C134.57 25.2076 137.652 29.0726 136.743 33.127L136.465 34.3395C135.644 37.9897 132.398 40.5916 128.646 40.5916H116.331L115.953 42.2841C115.649 43.6356 116.672 44.9239 118.062 44.9239H125.211C126.827 44.9239 128.229 43.7998 128.583 42.2336H134.684L134.482 43.1178C133.547 47.2606 129.859 50.2035 125.615 50.2035H116.193C112.024 50.2035 108.943 46.3385 109.852 42.2841L112.1 32.306C113.035 28.1632 116.723 25.2202 120.967 25.2202L130.402 25.2076ZM117.544 35.2994H127.901C129.227 35.2994 130.377 34.3774 130.667 33.0891C130.97 31.7502 129.947 30.4746 128.583 30.4746H121.674C119.906 30.4746 118.365 31.6997 117.986 33.4301L117.544 35.2994ZM130.402 23.0352H120.967C115.662 23.0352 111.153 26.6475 109.991 31.8134L107.743 41.7915C107.162 44.3682 107.768 47.0332 109.423 49.1046C111.077 51.1761 113.54 52.3507 116.18 52.3507H125.615C130.92 52.3507 135.429 48.7384 136.591 43.5725L136.793 42.6883L137.387 40.0485H135.568C137.033 38.6844 138.107 36.8909 138.574 34.8068L138.852 33.5943C139.433 31.0177 138.827 28.3526 137.172 26.2812C135.517 24.2224 133.054 23.0352 130.402 23.0352ZM120.487 33.1396C120.777 32.8365 121.194 32.647 121.649 32.647H128.52C128.444 32.9375 128.179 33.1396 127.876 33.1396H120.487ZM118.074 42.7515H125.274C125.261 42.7515 125.249 42.7515 125.223 42.7515H118.074Z" fill="#FF221D"/>
<path d="M75.2812 53.9292L82.0007 24.1211H90.3117L90.198 24.6516C91.1958 24.3611 92.5599 24.1211 94.3661 24.1211H99.4941C101.806 24.1211 103.965 25.1568 105.405 26.963C106.845 28.7691 107.388 31.1058 106.883 33.3667L104.925 42.0565C103.877 46.7298 99.7972 49.9885 94.9976 49.9885H89.0233C86.9519 49.9885 85.5626 49.6727 84.6405 49.3064L83.5922 53.9419H75.2812V53.9292ZM90.8043 31.5605C89.5286 31.5605 88.4423 32.432 88.1645 33.6698L86.4593 41.2102C86.3835 41.5386 86.4593 41.867 86.674 42.1196C86.8761 42.3723 87.1919 42.5238 87.5203 42.5238H94.3282C95.6039 42.5238 96.6901 41.6523 96.968 40.4145L98.6731 32.8741C98.7489 32.5457 98.6731 32.2173 98.4584 31.9647C98.2563 31.7121 97.9405 31.5605 97.6121 31.5605H90.8043Z" fill="#FDEB05"/>
<path d="M99.4814 25.195C103.649 25.195 106.731 29.0599 105.822 33.1143L103.864 41.8042C102.93 45.947 99.2414 48.8899 94.9975 48.8899H89.0232C84.8678 48.8899 83.9205 47.5763 83.9205 47.5763L83.5037 49.3951L83.3269 50.1782L82.7206 52.8433H76.6326L77.2389 50.1782L78.1609 46.0986L81.6849 30.4746L82.569 26.5338L82.8721 25.195H88.9727L88.6696 26.5212C88.6696 26.5212 90.2232 25.2076 94.366 25.2076H95.9069H97.0184L99.4814 25.195ZM86.8129 34.7311L85.3983 40.9832C85.0951 42.3347 86.1182 43.623 87.5076 43.623H94.3155C96.0838 43.623 97.6247 42.3978 98.0162 40.6674L99.7214 33.127C100.024 31.7755 99.0014 30.4872 97.6121 30.4872H96.45H95.6669H90.8042C89.0359 30.4872 87.4949 31.7124 87.1034 33.4427L86.8129 34.7311ZM99.4814 23.0352H97.0184H95.9069H94.366C93.3303 23.0352 92.4209 23.1109 91.6252 23.2246L91.663 23.0352H88.9601H82.8595H81.1291L80.7502 24.7277L80.4471 26.0665L79.5629 30.0072L76.039 45.6312L75.117 49.7109L74.637 51.8707L74.5233 52.376L73.9297 55.0157H76.6326H82.7332H84.4636L84.8425 53.3233L85.4362 50.6835C86.3708 50.9108 87.5455 51.0624 89.0232 51.0624H94.9975C100.302 51.0624 104.811 47.45 105.974 42.2841L107.931 33.5943C108.512 31.0177 107.906 28.3526 106.251 26.2812C104.597 24.2224 102.134 23.0352 99.4814 23.0352ZM87.5202 41.4505L88.9222 35.1984L89.2127 33.8974C89.3769 33.1522 90.0337 32.6344 90.7915 32.6344H95.6543H96.4374H97.5994L95.8943 40.1748C95.7301 40.92 95.0733 41.4379 94.3155 41.4379L87.5202 41.4505Z" fill="#FF221D"/>
<path d="M17.5609 51.274C15.2495 51.274 13.0897 50.2383 11.6372 48.4322C10.1973 46.626 9.65417 44.2893 10.1594 42.0285L10.3489 41.1822L11.2204 41.1317H18.6724L18.3693 42.4579C18.2809 42.8368 18.3567 43.1652 18.5714 43.4178C18.7735 43.6704 19.0892 43.822 19.4176 43.822H33.3744C34.6501 43.822 35.7364 42.9505 36.0142 41.7127L36.6584 38.8456C36.7721 38.3403 36.6584 37.8225 36.33 37.4309C36.0142 37.0268 35.5343 36.7994 35.0164 36.7994H21.5017C19.0261 36.7994 16.7147 35.6879 15.1611 33.7554C13.6076 31.823 13.0392 29.3221 13.5823 26.897L14.2138 24.0804C15.2622 19.4071 19.3545 16.1484 24.1415 16.1484H40.5612C42.8726 16.1484 45.0325 17.1841 46.485 19.0029C47.9249 20.8091 48.468 23.1458 47.9501 25.4066L47.7607 26.2529L46.8892 26.2908H39.5003L39.8034 24.9646C39.8918 24.5857 39.816 24.2573 39.6013 24.0046C39.3992 23.7394 39.0835 23.6005 38.7551 23.6005H24.7983C23.5226 23.6005 22.4363 24.472 22.1585 25.7098L21.7922 27.3139C21.6785 27.8191 21.8048 28.3369 22.1206 28.7285C22.4363 29.1327 22.9163 29.36 23.4342 29.36H38.8056C40.8265 29.36 42.7084 30.2694 43.9715 31.8482C45.2346 33.427 45.7019 35.4606 45.2472 37.4309L43.8957 43.3547C42.8347 48.0153 38.7551 51.274 33.9807 51.274H17.5609Z" fill="#FDEB05"/>
<path d="M40.562 17.2223C44.7301 17.2223 47.8246 21.0999 46.8899 25.1543L46.8773 25.1922H40.8525L40.8651 25.1417C41.1683 23.7902 40.1452 22.5019 38.7558 22.5019H24.799C23.0307 22.5019 21.4898 23.7271 21.0982 25.4575L20.732 27.0615C20.3404 28.7919 21.654 30.4339 23.4223 30.4339H38.7937C42.3429 30.4339 44.9701 33.7305 44.1743 37.1912L42.8229 43.115C41.8756 47.2578 38.2001 50.1881 33.9562 50.1881H17.5617C13.3936 50.1881 10.3117 46.3231 11.2211 42.2687L11.2337 42.2182H17.3343L17.3217 42.2687C17.0186 43.6202 18.0416 44.9085 19.431 44.9085H33.3878C35.1561 44.9085 36.697 43.6834 37.0886 41.953L37.7327 39.0858C38.1243 37.3554 36.8107 35.7135 35.0424 35.7135H21.5024C16.9933 35.7135 13.6462 31.5328 14.644 27.1247L15.2755 24.3081C16.2102 20.1652 19.8983 17.2223 24.1422 17.2223H40.562ZM40.562 15.0625H24.1422C18.8374 15.0625 14.3282 18.6748 13.1662 23.8407L12.5347 26.6574C11.9158 29.3982 12.5726 32.2274 14.3282 34.4252C16.0839 36.6229 18.6984 37.8733 21.5151 37.8733H35.0424C35.295 37.8733 35.4466 38.0122 35.5098 38.1006C35.5729 38.1891 35.6866 38.3659 35.6234 38.6059L34.9793 41.473C34.8151 42.2182 34.1583 42.7361 33.4004 42.7361H19.431L19.4436 42.6729L20.0373 40.0331H17.3343H11.2337H9.50335L9.12444 41.7256L9.11181 41.7761C8.5308 44.3528 9.13707 47.0178 10.7917 49.0892C12.4463 51.1607 14.9092 52.3353 17.549 52.3353H33.9814C39.2737 52.3353 43.7828 48.7356 44.9574 43.5823L46.3089 37.6586C46.8268 35.3598 46.2963 32.9979 44.8185 31.1538C43.3533 29.3098 41.1556 28.2614 38.8063 28.2614H23.4349C23.1823 28.2614 23.0307 28.1225 22.9676 28.0341C22.9044 27.9457 22.7907 27.7688 22.8539 27.5289L23.2202 25.9248C23.3844 25.1796 24.0412 24.6617 24.799 24.6617H38.7558L38.7432 24.7123L38.1495 27.352H40.8525H46.8773H48.6077L48.9866 25.6722L48.9992 25.6343C49.5929 23.0576 48.974 20.38 47.332 18.3086C45.6774 16.2498 43.2144 15.0625 40.562 15.0625Z" fill="#FF221D"/>
<path d="M49.1221 31.457H45.1309V37.6965H49.1221V31.457Z" fill="#FF221D"/>
<path d="M22.5225 37.3086H18.5312V43.5481H22.5225V37.3086Z" fill="#FF221D"/>
</svg>
