<svg width="486" height="96" viewBox="0 0 486 96" fill="none" xmlns="http://www.w3.org/2000/svg">
<path d="M94.1797 58.0469H91.0725L90.3652 60.7372H93.485L94.1797 58.0469Z" fill="black"/>
<path d="M91.0321 57.32C90.9311 57.32 90.8427 57.2821 90.7795 57.1937C90.7164 57.1179 90.7037 57.0169 90.729 56.9285L92.4594 50.2469C92.4973 50.1079 92.6236 50.0195 92.7625 50.0195H100.48C100.581 50.0195 100.669 50.0574 100.732 50.1458C100.796 50.2216 100.808 50.3227 100.783 50.4111L99.0526 57.0801C99.0147 57.219 98.8884 57.3074 98.7494 57.3074H91.0321V57.32ZM97.2843 55.1223L98.0421 52.2046H94.215L93.4572 55.1223H97.2843Z" fill="#FF221D"/>
<path d="M100.467 50.3229L98.7369 57.0045H91.0196L92.75 50.3229H100.467ZM93.0531 55.4383H97.5244L98.4338 51.9018H93.9625L93.0531 55.4383ZM100.48 49.6914H92.7626C92.4721 49.6914 92.2321 49.8809 92.1563 50.1587L90.4259 56.853C90.3754 57.0424 90.4133 57.2445 90.5396 57.3961C90.6533 57.5477 90.8428 57.6361 91.0322 57.6361H98.7495C99.04 57.6361 99.28 57.4466 99.3558 57.1687L101.074 50.5124C101.086 50.4619 101.099 50.3987 101.099 50.3356C101.099 49.9819 100.821 49.6914 100.48 49.6914ZM94.4551 52.5207H97.638L97.0444 54.8068H93.8615L94.4551 52.5207Z" fill="#FF221D"/>
<path d="M13.0888 57.32C12.9877 57.32 12.8993 57.2821 12.8362 57.1937C12.773 57.1053 12.7604 57.0169 12.7856 56.9285L14.516 50.2469C14.5539 50.1079 14.6802 50.0195 14.8192 50.0195H39.5626C39.7394 50.0195 39.8783 50.1585 39.8783 50.3353V57.0169C39.8783 57.1937 39.7394 57.3327 39.5626 57.3327H13.0888V57.32Z" fill="#FF221D"/>
<path d="M39.5509 50.3229V57.0045H13.0898L14.8202 50.3229H39.5509ZM39.5509 49.6914H14.8075C14.517 49.6914 14.2771 49.8809 14.2013 50.1587L12.4709 56.8403C12.4203 57.0298 12.4582 57.2319 12.5845 57.3835C12.6982 57.535 12.8877 57.6234 13.0771 57.6234H39.5509C39.892 57.6234 40.1698 57.3456 40.1698 57.0045V50.3229C40.1698 49.9819 39.892 49.6914 39.5509 49.6914Z" fill="#FF221D"/>
<path d="M40.954 68.7888C40.853 68.7888 40.7645 68.7509 40.7014 68.6625C40.6382 68.5741 40.6256 68.4856 40.6509 68.3972L42.3813 61.7156C42.4192 61.5767 42.5455 61.4883 42.6844 61.4883H60.2662C60.3673 61.4883 60.4557 61.5262 60.5189 61.6146C60.582 61.6904 60.5946 61.7914 60.5694 61.8798L58.839 68.5614C58.8011 68.7004 58.6748 68.7888 58.5358 68.7888H40.954Z" fill="#FF221D"/>
<path d="M60.2663 61.7917L58.5359 68.4733H40.9541L42.6845 61.7917H60.2663ZM60.2663 61.1602H42.6845C42.394 61.1602 42.154 61.3496 42.0782 61.6275L40.3478 68.3217C40.2973 68.5112 40.3352 68.7133 40.4615 68.8648C40.5752 69.0164 40.7646 69.1048 40.9541 69.1048H58.5359C58.8264 69.1048 59.0664 68.9154 59.1422 68.6375L60.86 61.9811C60.8726 61.9306 60.8852 61.8675 60.8852 61.8043C60.8852 61.4507 60.6074 61.1602 60.2663 61.1602Z" fill="#FF221D"/>
<path d="M4.05752 84.613C3.95648 84.613 3.86806 84.5751 3.80491 84.4867C3.74175 84.4109 3.72912 84.3099 3.75439 84.2215L5.48478 77.5398C5.52267 77.4009 5.64898 77.3125 5.78792 77.3125H13.9473C14.0484 77.3125 14.1368 77.3504 14.1999 77.4388C14.2631 77.5146 14.2757 77.6156 14.2504 77.704L12.5832 84.1583L12.5579 84.3604C12.5327 84.512 12.4064 84.6256 12.2548 84.6256L4.05752 84.613Z" fill="#FF221D"/>
<path d="M13.9474 77.615L12.2802 84.0819L12.2423 84.2966H4.05761L5.78801 77.615H13.9474ZM13.9474 76.9961H5.78801C5.4975 76.9961 5.25752 77.1856 5.18174 77.4634L3.45134 84.145C3.40082 84.3345 3.43871 84.5366 3.56502 84.6881C3.67869 84.8397 3.86815 84.9281 4.05761 84.9281H12.2423C12.5454 84.9281 12.8106 84.7008 12.8612 84.3976L12.8864 84.2082L14.541 77.7918C14.5537 77.7413 14.5663 77.6781 14.5663 77.615C14.5663 77.274 14.2884 76.9961 13.9474 76.9961Z" fill="#FF221D"/>
<path d="M80.9905 84.613C80.9021 84.613 80.8137 84.5751 80.7506 84.4993C80.6874 84.4235 80.6622 84.3351 80.6874 84.2467L81.9505 77.5651C81.9757 77.4135 82.102 77.3125 82.2536 77.3125H89.832C89.933 77.3125 90.0214 77.3504 90.0846 77.4388C90.1478 77.5146 90.1604 77.6156 90.1351 77.704L88.4047 84.373C88.3668 84.512 88.2405 84.6004 88.1016 84.6004L80.9905 84.613Z" fill="#FF221D"/>
<path d="M89.8322 77.615L88.1018 84.2966H80.9907L82.2538 77.615H89.8322ZM89.8322 76.9961H82.2538C81.9506 76.9961 81.698 77.2108 81.6349 77.5013L80.3718 84.1829C80.3339 84.3597 80.3844 84.5492 80.4981 84.7008C80.6118 84.8397 80.7886 84.9281 80.9781 84.9281H88.0891C88.3796 84.9281 88.6196 84.7387 88.6954 84.4608L90.4132 77.8044C90.4258 77.7539 90.4384 77.6908 90.4384 77.6276C90.4637 77.274 90.1858 76.9961 89.8322 76.9961Z" fill="#FF221D"/>
<path d="M49.8056 84.613C49.7045 84.613 49.6161 84.5751 49.553 84.4867C49.4898 84.4109 49.4772 84.3099 49.5024 84.2215L51.2328 77.5398C51.2707 77.4009 51.397 77.3125 51.536 77.3125H59.1143C59.2154 77.3125 59.3164 77.363 59.3796 77.4514C59.4427 77.5398 59.4427 77.6535 59.4048 77.7419L56.4619 84.4235C56.4114 84.5372 56.2977 84.613 56.1714 84.613H49.8056Z" fill="#FF221D"/>
<path d="M59.1144 77.615L56.1715 84.2966H49.8057L51.5361 77.615H59.1144ZM59.1144 76.9961H51.5361C51.2455 76.9961 51.0056 77.1856 50.9298 77.4634L49.1994 84.145C49.1489 84.3345 49.1868 84.5366 49.3131 84.6881C49.4267 84.8397 49.6162 84.9281 49.8057 84.9281H56.1715C56.4241 84.9281 56.6388 84.7766 56.7399 84.5492L59.6702 77.8802C59.7081 77.8045 59.7333 77.7034 59.7333 77.615C59.746 77.274 59.4681 76.9961 59.1144 76.9961Z" fill="#FF221D"/>
<path d="M27.6035 84.613C27.5024 84.613 27.4014 84.5625 27.3382 84.4741C27.2751 84.3857 27.2751 84.272 27.313 84.1836L30.2433 77.502C30.2938 77.3883 30.4075 77.3125 30.5338 77.3125H38.1122C38.2132 77.3125 38.3016 77.3504 38.3648 77.4388C38.4279 77.5146 38.4406 77.6156 38.4153 77.704L36.6849 84.3857C36.647 84.5246 36.5207 84.613 36.3818 84.613H27.6035Z" fill="#FF221D"/>
<path d="M38.1 77.615L36.3696 84.2966H27.5913L30.5216 77.615H38.1ZM38.1127 76.9961H30.5343C30.2817 76.9961 30.0669 77.1477 29.9659 77.375L27.0356 84.0566C26.9472 84.2461 26.9724 84.4734 27.0861 84.6503C27.1998 84.8271 27.4019 84.9281 27.604 84.9281H36.3823C36.6728 84.9281 36.9127 84.7387 36.9885 84.4608L38.7063 77.8044C38.7189 77.7539 38.7316 77.6908 38.7316 77.6276C38.7316 77.274 38.4537 76.9961 38.1127 76.9961Z" fill="#FF221D"/>
<path d="M12.2415 84.6137C12.2289 84.6137 12.2163 84.6137 12.2036 84.6137C12.1152 84.6011 12.0394 84.5632 11.9889 84.4874L7.94711 79.1573C7.84607 79.031 7.87133 78.8415 7.99764 78.7278L34.5978 56.5484C34.6609 56.4979 34.7241 56.4727 34.7998 56.4727C34.8883 56.4727 34.964 56.5105 35.0272 56.5737L39.4984 61.5502C39.549 61.6133 39.5869 61.7017 39.5742 61.7775C39.5742 61.8659 39.5237 61.9417 39.4605 61.9922L12.431 84.5379C12.3805 84.5884 12.3173 84.6137 12.2415 84.6137Z" fill="#FF221D"/>
<path d="M34.7877 56.7878L39.259 61.7643L12.242 84.2973L8.20024 78.9672L34.7877 56.7878ZM34.7877 56.1562C34.6488 56.1562 34.5098 56.2068 34.3835 56.2952L7.79606 78.4872C7.54344 78.7019 7.49292 79.0808 7.69501 79.3461L11.7368 84.6762C11.8379 84.8152 11.9894 84.9036 12.1663 84.9162C12.1915 84.9162 12.2168 84.9162 12.242 84.9162C12.381 84.9162 12.5325 84.8657 12.6462 84.7773L39.6758 62.2316C39.8021 62.1179 39.8905 61.9663 39.9031 61.8021C39.9158 61.6379 39.8526 61.4611 39.7389 61.3348L35.2677 56.3583C35.1414 56.232 34.9646 56.1562 34.7877 56.1562Z" fill="#FF221D"/>
<path d="M56.1849 84.6141C56.1723 84.6141 56.1596 84.6141 56.147 84.6141C56.0586 84.6015 55.9828 84.5636 55.9323 84.4878L51.8905 79.1577C51.7894 79.0314 51.8147 78.8419 51.941 78.7283L65.62 67.3102C65.6831 67.2596 65.7463 67.2344 65.8221 67.2344C65.8978 67.2344 65.9863 67.2596 66.0494 67.3228L70.7733 72.0972C70.8364 72.1603 70.8617 72.2487 70.8617 72.3371C70.8617 72.4256 70.8238 72.5013 70.748 72.5645L56.387 84.551C56.3238 84.5889 56.248 84.6141 56.1849 84.6141Z" fill="#FF221D"/>
<path d="M65.8215 67.5495L70.5454 72.3239L56.1844 84.3103L52.1426 78.9802L65.8215 67.5495ZM65.8215 66.918C65.6826 66.918 65.5437 66.9685 65.4174 67.0569L51.7257 78.475C51.4731 78.6897 51.4226 79.0686 51.6247 79.3339L55.6665 84.664C55.7675 84.8029 55.9191 84.8914 56.0959 84.904C56.1212 84.904 56.1465 84.904 56.1717 84.904C56.3107 84.904 56.4622 84.8535 56.5759 84.7651L70.9369 72.7786C71.0759 72.6649 71.1517 72.5007 71.1643 72.3239C71.1769 72.147 71.1138 71.9828 70.9875 71.8565L66.2636 67.0822C66.1499 66.9811 65.9857 66.918 65.8215 66.918Z" fill="#FF221D"/>
<path d="M27.6033 84.6117C27.4896 84.6117 27.3886 84.5485 27.3254 84.4475L19.8102 70.1243C19.7344 69.9728 19.7849 69.7833 19.9365 69.7075L25.8603 66.6004C25.9108 66.5751 25.9487 66.5625 25.9992 66.5625C26.0245 66.5625 26.0624 66.5625 26.0876 66.5751C26.1634 66.6004 26.2266 66.6509 26.2645 66.7267L33.805 81.113C33.8428 81.1888 33.8555 81.2772 33.8302 81.353C33.8049 81.4288 33.7544 81.4919 33.6786 81.5298L27.717 84.5612C27.6917 84.599 27.6538 84.6117 27.6033 84.6117Z" fill="#FF221D"/>
<path d="M26.0112 66.8776L33.5517 81.2639L27.59 84.2953L20.0748 69.9721L26.0112 66.8776ZM26.0112 66.2461C25.9102 66.2461 25.8091 66.2714 25.7207 66.3219L19.7969 69.429C19.4938 69.5932 19.3801 69.9721 19.5317 70.2753L27.0469 84.5984C27.1606 84.8131 27.3753 84.9268 27.6027 84.9268C27.7037 84.9268 27.7921 84.9015 27.8805 84.8637L33.8422 81.8323C33.9938 81.7565 34.1074 81.6302 34.158 81.466C34.2085 81.3018 34.1959 81.1376 34.1201 80.986L26.5796 66.5998C26.5038 66.4482 26.3649 66.3471 26.2133 66.2966C26.1375 66.2587 26.0744 66.2461 26.0112 66.2461Z" fill="#FF221D"/>
<path d="M80.9906 84.6117C80.8769 84.6117 80.7758 84.5485 80.7127 84.4475L74.89 73.3452C74.8394 73.2441 74.8394 73.1178 74.9026 73.0294L79.1339 66.7014C79.197 66.613 79.2854 66.5625 79.3991 66.5625H79.4117C79.5254 66.5625 79.6138 66.6257 79.677 66.7267L87.2175 81.113C87.2553 81.1888 87.268 81.2772 87.2427 81.353C87.2175 81.4288 87.1669 81.4919 87.0911 81.5298L81.1295 84.5612C81.0916 84.599 81.0411 84.6117 80.9906 84.6117Z" fill="#FF221D"/>
<path d="M79.3993 66.8776L86.9398 81.2639L80.9781 84.2953L75.1554 73.1929L79.3993 66.8776ZM79.3993 66.2461C79.1972 66.2461 78.9951 66.3471 78.8814 66.524L74.6502 72.8519C74.5239 73.0414 74.5112 73.2814 74.6123 73.4835L80.435 84.5858C80.5487 84.8005 80.7634 84.9142 80.9908 84.9142C81.0918 84.9142 81.1802 84.8889 81.2686 84.851L87.2303 81.8197C87.3819 81.7439 87.4955 81.6176 87.5461 81.4534C87.5966 81.2892 87.584 81.125 87.5082 80.9734L79.9677 66.5871C79.8666 66.3977 79.6645 66.2714 79.4498 66.2587C79.4246 66.2461 79.4119 66.2461 79.3993 66.2461Z" fill="#FF221D"/>
<path d="M32.2874 62.3353C32.199 62.3353 32.098 62.2974 32.0474 62.2216C31.9843 62.1459 31.959 62.0448 31.9843 61.9438L35.0156 50.2352C35.0535 50.0962 35.1798 50.0078 35.3188 50.0078H42.2277C42.3288 50.0078 42.4172 50.0457 42.4803 50.1341C42.5435 50.2099 42.5561 50.3109 42.5309 50.3994L39.5753 61.8301C39.5374 61.969 39.4237 62.0574 39.2848 62.0574C39.2722 62.0701 32.3001 62.3353 32.2874 62.3353Z" fill="#FF221D"/>
<path d="M42.2283 50.3229L39.2601 61.7537L32.288 62.0189L35.3193 50.3103L42.2283 50.3229ZM42.2283 49.6914H35.3193C35.0288 49.6914 34.7888 49.8809 34.713 50.1587L31.6817 61.8673C31.6312 62.0568 31.6817 62.2589 31.7954 62.4105C31.909 62.562 32.0985 62.6378 32.2753 62.6378C32.288 62.6378 32.288 62.6378 32.3006 62.6378L39.2727 62.3726C39.5506 62.3599 39.7779 62.1705 39.8537 61.9052L42.8093 50.4871C42.8219 50.4366 42.8345 50.3735 42.8345 50.3103C42.8472 49.9819 42.5693 49.6914 42.2283 49.6914Z" fill="#FF221D"/>
<path d="M88.3778 68.7927C88.2768 68.7927 88.1884 68.7548 88.1252 68.6664C88.0621 68.5906 88.0494 68.4896 88.0747 68.4011L89.8051 61.7195C89.843 61.5806 89.9693 61.4922 90.1082 61.4922H107.69C107.791 61.4922 107.88 61.5301 107.943 61.6185C108.006 61.6943 108.018 61.7953 107.993 61.8837L106.263 68.5653C106.225 68.7043 106.099 68.7927 105.96 68.7927H88.3778Z" fill="#FF221D"/>
<path d="M107.69 61.7956L105.96 68.4772H88.3779L90.1083 61.7956H107.69ZM107.69 61.1641H90.0957C89.8052 61.1641 89.5652 61.3535 89.4894 61.6314L87.7717 68.3256C87.7211 68.5151 87.759 68.7172 87.8853 68.8687C87.999 69.0203 88.1885 69.1087 88.3779 69.1087H105.96C106.25 69.1087 106.49 68.9193 106.566 68.6414L108.284 61.9851C108.296 61.9345 108.309 61.8714 108.309 61.8082C108.309 61.4546 108.031 61.1641 107.69 61.1641Z" fill="#FF221D"/>
<path d="M70.546 72.6293C70.5081 72.6293 70.4828 72.6293 70.4449 72.6166L64.0917 70.5073C63.9401 70.4568 63.8517 70.2926 63.8896 70.1284L69.0303 50.2352C69.0682 50.0962 69.1945 50.0078 69.3334 50.0078H76.2424C76.3434 50.0078 76.4318 50.0457 76.495 50.1341C76.5581 50.2099 76.5708 50.3109 76.5455 50.3994L70.8617 72.4019C70.8365 72.4903 70.7859 72.5535 70.7102 72.5914C70.647 72.6166 70.5965 72.6293 70.546 72.6293Z" fill="#FF221D"/>
<path d="M76.2291 50.3229L70.5453 72.3255L64.1795 70.2162L69.3328 50.3229H76.2291ZM76.2291 49.6914H69.3328C69.0423 49.6914 68.8023 49.8809 68.7265 50.1587L63.5859 70.052C63.5101 70.3678 63.6869 70.6961 63.99 70.7972L70.3433 72.9065C70.4064 72.9318 70.4696 72.9318 70.5453 72.9318C70.6464 72.9318 70.7474 72.9065 70.8485 72.856C71 72.7676 71.1137 72.6286 71.1516 72.4644L76.8354 50.4871C76.848 50.4366 76.8607 50.3735 76.8607 50.3103C76.8607 49.9819 76.5702 49.6914 76.2291 49.6914Z" fill="#FF221D"/>
<path d="M75.1702 73.5125C75.0818 73.5125 74.9934 73.4746 74.9303 73.3988C74.8671 73.323 74.8418 73.222 74.8671 73.121L80.7782 50.2469C80.8161 50.1079 80.9424 50.0195 81.0814 50.0195H87.9903C88.0914 50.0195 88.1798 50.0574 88.2429 50.1458C88.3061 50.2216 88.3187 50.3227 88.2935 50.4111L82.496 72.8305C82.4581 72.9568 82.3444 73.0578 82.2181 73.0578L75.1955 73.5125C75.1829 73.5125 75.1829 73.5125 75.1702 73.5125Z" fill="#FF221D"/>
<path d="M87.9906 50.3229L82.1932 72.7423L75.1706 73.197L81.0817 50.3229H87.9906ZM87.9906 49.6914H81.0817C80.7912 49.6914 80.5512 49.8809 80.4754 50.1587L74.5643 73.0328C74.5138 73.2223 74.5643 73.437 74.6906 73.5886C74.8043 73.7275 74.9811 73.8159 75.1706 73.8159C75.1832 73.8159 75.1958 73.8159 75.2084 73.8159L82.2311 73.3612C82.4963 73.3486 82.7237 73.1591 82.7994 72.8939L88.5969 50.4998C88.6095 50.4492 88.6222 50.3861 88.6222 50.3229C88.6222 49.9819 88.3443 49.6914 87.9906 49.6914Z" fill="#FF221D"/>
<path d="M37.7587 64.7732C37.6576 64.7732 37.5692 64.7353 37.5061 64.6469C37.4429 64.5711 37.4303 64.47 37.4556 64.3816L39.186 57.7C39.2238 57.5611 39.3502 57.4727 39.4891 57.4727H57.0709C57.172 57.4727 57.2604 57.5105 57.3235 57.599C57.3867 57.6747 57.3993 57.7758 57.3741 57.8642L55.6437 64.5458C55.6058 64.6847 55.4795 64.7732 55.3405 64.7732H37.7587Z" fill="#FBE901"/>
<path d="M57.071 57.7752L55.3406 64.4568H37.7588L39.4892 57.7752H57.071ZM57.071 57.1562H39.4892C39.1987 57.1562 38.9587 57.3457 38.8829 57.6236L37.1525 64.3052C37.102 64.4946 37.1399 64.6967 37.2662 64.8483C37.3799 64.9999 37.5693 65.0883 37.7588 65.0883H55.3406C55.6311 65.0883 55.8711 64.8988 55.9469 64.621L57.6647 57.9646C57.6773 57.9141 57.6899 57.8509 57.6899 57.7878C57.7025 57.4341 57.4247 57.1562 57.071 57.1562Z" fill="#FF221D"/>
<path d="M24.4077 80.5983C24.294 80.5983 24.1803 80.5351 24.1298 80.4341L19.6459 71.8579L9.26353 80.5225C9.21301 80.573 9.13723 80.5983 9.06144 80.5983H0.864161C0.763116 80.5983 0.674702 80.5604 0.611549 80.472C0.548395 80.3962 0.535765 80.2952 0.561026 80.2067L2.29142 73.5251C2.32931 73.3862 2.45562 73.2978 2.59456 73.2978H6.52268L29.8767 53.8214L30.003 53.3161H9.89506C9.79402 53.3161 9.7056 53.2782 9.64245 53.1898C9.5793 53.114 9.56667 53.013 9.59193 52.9246L11.3223 46.243C11.3602 46.104 11.4865 46.0156 11.6255 46.0156H39.0339C39.135 46.0156 39.2234 46.0535 39.2865 46.1419C39.3497 46.2177 39.3623 46.3188 39.3371 46.4072L36.3815 57.8379C36.3689 57.9011 36.331 57.9516 36.2805 58.0021L25.3802 67.0961L28.6389 73.3104H34.9163C35.0174 73.3104 35.1058 73.3483 35.169 73.4367C35.2321 73.5251 35.2447 73.6136 35.2195 73.702L33.4891 80.3836C33.4512 80.5225 33.3249 80.6109 33.186 80.6109L24.4077 80.5983Z" fill="#FBE901"/>
<path d="M39.0331 46.3064L36.0775 57.7371L24.9878 66.9828L28.4486 73.5886H34.9155L33.1851 80.2702H24.4068L19.7335 71.3529L9.04799 80.2702H0.863339L2.59374 73.5886H6.63554L30.1538 53.9732L30.4064 52.9754H9.89424L11.6246 46.2938H32.1368H36.368L39.0331 46.3064ZM39.0331 45.6875H36.368H32.1368H11.6246C11.3341 45.6875 11.0942 45.877 11.0184 46.1548L9.28797 52.8364C9.23745 53.0259 9.27534 53.228 9.40165 53.3796C9.51532 53.5311 9.70478 53.6195 9.89424 53.6195H29.598V53.6448L6.40819 72.9823H2.59374C2.30323 72.9823 2.06325 73.1718 1.98747 73.4496L0.269699 80.1312C0.219177 80.3207 0.257069 80.5228 0.383375 80.6744C0.497051 80.8259 0.68651 80.9143 0.87597 80.9143H9.06062C9.21219 80.9143 9.35112 80.8638 9.4648 80.7754L19.5567 72.3634L23.8637 80.5733C23.9648 80.7754 24.1795 80.9017 24.4195 80.9017H33.1978C33.4883 80.9017 33.7282 80.7122 33.804 80.4344L35.5344 73.7528C35.5849 73.5633 35.5471 73.3612 35.4208 73.2097C35.3071 73.0581 35.1176 72.9697 34.9282 72.9697H28.8402L25.7836 67.1469L36.4817 58.2171C36.5828 58.1287 36.6586 58.015 36.6838 57.8887L39.6394 46.4706C39.652 46.4201 39.6646 46.3569 39.6646 46.2938C39.6646 45.9654 39.3868 45.6875 39.0331 45.6875Z" fill="#FF221D"/>
<path d="M77.8089 80.5992C77.6952 80.5992 77.5816 80.5361 77.5311 80.435L71.7083 69.3327C71.6704 69.2695 71.6578 69.1811 71.6831 69.1053L77.5942 46.2313C77.6321 46.0923 77.7584 46.0039 77.8973 46.0039H84.8063C84.9073 46.0039 84.9958 46.0418 85.0589 46.1302C85.1221 46.206 85.1347 46.307 85.1094 46.3955L79.4383 68.3222L82.0402 73.2861H86.6504C86.7514 73.2861 86.8398 73.324 86.903 73.4124C86.9661 73.4882 86.9788 73.5892 86.9535 73.6776L85.2231 80.3592C85.1852 80.4982 85.0589 80.5866 84.92 80.5866L77.8089 80.5992Z" fill="#FBE901"/>
<path d="M84.8064 46.3064L79.0974 68.3595L81.8509 73.6012H86.6505L84.9201 80.2828H77.8091L71.9863 69.1931L77.8975 46.319L84.8064 46.3064ZM84.8064 45.6875H77.8975C77.607 45.6875 77.367 45.877 77.2912 46.1548L71.3801 69.0289C71.3422 69.1805 71.3548 69.332 71.4306 69.471L77.2533 80.5733C77.3544 80.7754 77.5691 80.9017 77.8091 80.9017H84.9201C85.2106 80.9017 85.4506 80.7122 85.5264 80.4344L87.2568 73.7528C87.3073 73.5633 87.2694 73.3612 87.1431 73.2097C87.0294 73.0581 86.84 72.9697 86.6505 72.9697H82.2298L79.7668 68.2711L85.4001 46.4706C85.4127 46.4201 85.4253 46.3569 85.4253 46.2938C85.4253 45.9654 85.1475 45.6875 84.8064 45.6875Z" fill="#FF221D"/>
<path d="M85.1864 64.7732C85.0854 64.7732 84.997 64.7353 84.9338 64.6469C84.8707 64.5711 84.858 64.47 84.8833 64.3816L86.6137 57.7C86.6516 57.5611 86.7779 57.4727 86.9168 57.4727H104.499C104.6 57.4727 104.688 57.5105 104.751 57.599C104.814 57.6747 104.827 57.7758 104.802 57.8642L103.071 64.5458C103.034 64.6847 102.907 64.7732 102.768 64.7732H85.1864Z" fill="#FBE901"/>
<path d="M104.499 57.7752L102.768 64.4568H85.1865L86.9169 57.7752H104.499ZM104.499 57.1562H86.9169C86.6264 57.1562 86.3864 57.3457 86.3106 57.6236L84.5802 64.3052C84.5297 64.4946 84.5676 64.6967 84.6939 64.8483C84.8076 64.9999 84.9971 65.0883 85.1865 65.0883H102.768C103.059 65.0883 103.299 64.8988 103.375 64.621L105.092 57.9646C105.105 57.9141 105.118 57.8509 105.118 57.7878C105.13 57.4341 104.852 57.1562 104.499 57.1562Z" fill="#FF221D"/>
<path d="M46.622 80.5992C46.5209 80.5992 46.4325 80.5613 46.3694 80.4729C46.3062 80.3971 46.2936 80.2961 46.3188 80.2077L48.0492 73.5261C48.0871 73.3871 48.2134 73.2987 48.3524 73.2987H50.4491L61.1346 64.3815L65.8332 46.2313C65.8711 46.0923 65.9974 46.0039 66.1363 46.0039H73.0453C73.1463 46.0039 73.2347 46.0418 73.2979 46.1302C73.361 46.206 73.3737 46.307 73.3484 46.3955L67.6646 68.398C67.652 68.4612 67.6141 68.5117 67.5636 68.5622L53.2025 80.5487C53.152 80.5992 53.0762 80.6245 53.0004 80.6245H46.622V80.5992Z" fill="#FBE901"/>
<path d="M73.0463 46.3064L67.3625 68.309L53.0014 80.2954H46.6356L48.366 73.6138H50.5764L61.4261 64.5577L66.1499 46.319H73.0463M73.0463 45.6875H66.1373C65.8468 45.6875 65.6068 45.877 65.531 46.1548L60.8577 64.204L50.3364 72.9823H48.3407C48.0502 72.9823 47.8103 73.1718 47.7345 73.4496L46.0041 80.1312C45.9536 80.3207 45.9914 80.5228 46.1178 80.6744C46.2314 80.8259 46.4209 80.9143 46.6103 80.9143H52.9762C53.1278 80.9143 53.2667 80.8638 53.3804 80.7754L67.7414 68.7889C67.8424 68.7005 67.9182 68.5868 67.9435 68.4605L73.6273 46.4832C73.6399 46.4327 73.6525 46.3696 73.6525 46.3064C73.6652 45.9654 73.3873 45.6875 73.0463 45.6875Z" fill="#FF221D"/>
<path d="M87.8368 53.3044C87.7358 53.3044 87.6474 53.2665 87.5842 53.1781C87.5211 53.1023 87.5084 53.0013 87.5337 52.9129L89.2641 46.2313C89.302 46.0923 89.4283 46.0039 89.5672 46.0039H97.2845C97.3856 46.0039 97.474 46.0418 97.5371 46.1302C97.6003 46.206 97.6129 46.307 97.5877 46.3955L95.8573 53.0771C95.8194 53.216 95.6931 53.3044 95.5541 53.3044H87.8368ZM94.1016 51.1067L94.8594 48.189H91.0324L90.2745 51.1067H94.1016Z" fill="#FBE901"/>
<path d="M97.2846 46.3064L95.5542 52.988H87.8369L89.5673 46.3064H97.2846ZM89.8704 51.4218H94.3417L95.2511 47.8852H90.7798L89.8704 51.4218ZM97.2846 45.6875H89.5673C89.2768 45.6875 89.0368 45.877 88.961 46.1548L87.2306 52.8364C87.1801 53.0259 87.218 53.228 87.3443 53.3796C87.458 53.5311 87.6474 53.6195 87.8369 53.6195H95.5542C95.8447 53.6195 96.0847 53.4301 96.1605 53.1522L97.8783 46.4959C97.8909 46.4453 97.9035 46.3822 97.9035 46.319C97.9162 45.9654 97.6383 45.6875 97.2846 45.6875ZM91.2724 48.5041H94.4554L93.8617 50.7903H90.6788L91.2724 48.5041Z" fill="#FF221D"/>
<path d="M288.732 0.996094H280.573C278.337 0.996094 276.531 2.80227 276.531 5.0379V7.72822C276.531 9.96384 278.337 11.77 280.573 11.77H289.49V15.976H279.815V13.1973H276.531V15.2056C276.531 17.4412 278.337 19.2474 280.573 19.2474H288.732C290.968 19.2474 292.774 17.4412 292.774 15.2056V12.5279C292.774 10.2922 290.968 8.48606 288.732 8.48606H279.815V4.28006H289.49V7.0588H292.774V5.0379C292.774 2.80227 290.968 0.996094 288.732 0.996094Z" fill="white"/>
<path d="M274.321 0.996094H271.037V19.26H274.321V0.996094Z" fill="white"/>
<path d="M299.077 0.996094H295.793V19.26H299.077V0.996094Z" fill="white"/>
<path d="M335.023 0.996094V14.3846L326.206 0.996094H324.981H322.278H321.697V19.26H324.981V5.10105L334.315 19.26H335.023H338.231H338.307V0.996094H335.023Z" fill="white"/>
<path d="M314.384 0.996094H307.033C304.179 0.996094 301.867 3.3075 301.867 6.16202V14.0814C301.867 16.936 304.179 19.2474 307.033 19.2474H314.384C317.239 19.2474 319.55 16.936 319.55 14.0814V8.48606V8.05662V6.16202C319.55 3.3075 317.239 0.996094 314.384 0.996094ZM316.266 8.05662V8.48606V15.976H305.151V4.28006H316.266V8.05662Z" fill="white"/>
<path d="M227.574 0.996094H225.061V19.26H227.574H228.345H240.533V15.976H228.345V11.77H238.929V8.48606H228.345V4.28006H240.533V0.996094H228.345H227.574Z" fill="white"/>
<path d="M12.4492 0.996094H4.28985C2.05423 0.996094 0.248047 2.80227 0.248047 5.0379V7.72822C0.248047 9.96384 2.05423 11.77 4.28985 11.77H13.2071V15.976H3.53201V13.1973H0.248047V15.2056C0.248047 17.4412 2.05423 19.2474 4.28985 19.2474H12.4492C14.6849 19.2474 16.491 17.4412 16.491 15.2056V12.5279C16.491 10.2922 14.6849 8.48606 12.4492 8.48606H3.53201V4.28006H13.2071V7.0588H16.491V5.0379C16.491 2.80227 14.6849 0.996094 12.4492 0.996094Z" fill="white"/>
<path d="M31.4454 15.976H21.7703V0.996094H18.4863V15.2182C18.4863 17.4538 20.2925 19.26 22.5281 19.26H30.6875C32.9231 19.26 34.7293 17.4538 34.7293 15.2182V0.996094H31.4454V15.976Z" fill="white"/>
<path d="M48.9141 0.996094H39.239H36.7129V19.26H39.9969V11.77H48.9141C51.1497 11.77 52.9559 9.96384 52.9559 7.72822V5.0379C52.9559 2.80227 51.1497 0.996094 48.9141 0.996094ZM49.6845 8.48606H40.0095V4.28006H49.6845V8.48606Z" fill="white"/>
<path d="M57.2253 0.996094H54.6992V19.26H57.2253H57.9832H70.1844V15.976H57.9832V11.77H68.5803V8.48606H57.9832V4.28006H70.1844V0.996094H57.9832H57.2253Z" fill="white"/>
<path d="M84.9864 0.996094H75.3113H72.0273V4.28006V19.26H75.3113V11.77H84.9864V19.26H88.2703V12.3131C88.2703 11.1764 87.3988 10.2417 86.2873 10.1407V10.1154C87.3988 10.0144 88.2703 9.0797 88.2703 7.94294V5.79573V5.06316V4.28006C88.2703 2.47388 86.8052 0.996094 84.9864 0.996094ZM84.9864 5.06316V5.79573V8.48606H75.3113V4.28006H84.9864V5.06316Z" fill="white"/>
<path d="M148.027 0.996094H139.868C137.632 0.996094 135.826 2.80227 135.826 5.0379V7.72822C135.826 9.96384 137.632 11.77 139.868 11.77H148.785V15.976H139.11V13.1973H135.826V15.2056C135.826 17.4412 137.632 19.2474 139.868 19.2474H148.027C150.263 19.2474 152.069 17.4412 152.069 15.2056V12.5279C152.069 10.2922 150.263 8.48606 148.027 8.48606H139.11V4.28006H148.785V7.0588H152.069V5.0379C152.069 2.80227 150.263 0.996094 148.027 0.996094Z" fill="white"/>
<path d="M165.975 0.996094H157.815C155.58 0.996094 153.773 2.80227 153.773 5.0379V7.72822C153.773 9.96384 155.58 11.77 157.815 11.77H166.732V15.976H157.057V13.1973H153.773V15.2056C153.773 17.4412 155.58 19.2474 157.815 19.2474H165.975C168.21 19.2474 170.016 17.4412 170.016 15.2056V12.5279C170.016 10.2922 168.21 8.48606 165.975 8.48606H157.057V4.28006H166.732V7.0588H170.016V5.0379C170.016 2.80227 168.21 0.996094 165.975 0.996094Z" fill="white"/>
<path d="M188.938 4.28006H195.985V19.26H199.269V4.28006H206.305V0.996094H188.938V4.28006Z" fill="white"/>
<path d="M206.873 4.28006H213.908V19.26H217.192V4.28006H224.24V0.996094H206.873V4.28006Z" fill="white"/>
<path d="M116.4 11.77H113.116V15.976H102.001V4.28006H113.116V8.48606H116.4V6.16202C116.4 3.3075 114.088 0.996094 111.234 0.996094H103.883C101.028 0.996094 98.7168 3.3075 98.7168 6.16202V14.0814C98.7168 16.936 101.028 19.2474 103.883 19.2474H111.234C114.088 19.2474 116.4 16.936 116.4 14.0814V11.77Z" fill="white"/>
<path d="M174.702 0.996094H172.176V19.26H174.702H175.46H187.661V15.976H175.46V11.77H186.057V8.48606H175.46V4.28006H187.661V0.996094H175.46H174.702Z" fill="white"/>
<path d="M123.914 0.996094L116.311 19.26H119.872L121.615 15.054H130.507L132.263 19.26H135.825L128.221 0.996094H123.914ZM122.98 11.77L126.061 4.36847L129.143 11.77H122.98Z" fill="white"/>
<path d="M260.011 15.875L253.822 0.996094H250.26L257.863 19.26H262.17L269.774 0.996094H266.212L260.011 15.875Z" fill="white"/>
<path d="M298.53 55.4982H273.786L278.043 39.0279C278.637 36.7417 280.695 35.1377 283.057 35.1377L283.234 34.3672H265.892L250.016 95.7773H263.366L270.869 66.7774H289.651L298.53 55.4982Z" fill="#FF221D"/>
<path d="M336.486 34.3672H327.884L324.967 45.6716H333.568L336.486 34.3672Z" fill="#FF221D"/>
<path d="M348.699 34.3672H340.097L337.18 45.6716H345.781L348.699 34.3672Z" fill="#FF221D"/>
<path d="M211.227 76.9721H219.828L225.385 55.5H216.771L211.227 76.9721Z" fill="#FF221D"/>
<path d="M232.042 76.9721L237.587 55.5H228.985L223.428 76.9721H232.042Z" fill="#FF221D"/>
<path d="M382.447 45.6716L385.377 34.3672H376.763L373.846 45.6716H382.447Z" fill="#FF221D"/>
<path d="M397.58 34.3672H388.978L386.061 45.6716H394.662L397.58 34.3672Z" fill="#FF221D"/>
<path d="M464.535 39.0405C465.128 36.7544 467.187 35.1503 469.549 35.1503L469.738 34.3672H442.721L439.438 47.061H462.463L464.535 39.0405Z" fill="#FF221D"/>
<path d="M467.793 55.5L462.072 77.6036C461.301 80.5718 458.623 82.6559 455.541 82.6559L432.781 82.6432L422.449 95.7791H453.281C463.537 95.7917 472.492 88.8575 475.056 78.9298L479.906 60.1733C480.5 57.8872 482.558 56.2831 484.92 56.2831L485.122 55.5H467.793Z" fill="#FF221D"/>
<path d="M432.415 60.1733C433.009 57.8872 435.068 56.2831 437.429 56.2831L437.606 55.5H395.597L393.45 63.8362H418.105L416.867 68.6232H392.212L390.052 76.9594H414.72L413.254 82.6432H388.599L378.268 95.7791H411.031C418.206 95.7791 424.47 90.9289 426.264 83.9947L432.415 60.1733Z" fill="#FF221D"/>
<path d="M384.267 78.9298L389.118 60.1607C389.711 57.8746 391.77 56.2705 394.132 56.2705L394.334 55.5H376.992L371.283 77.591C370.513 80.5592 367.835 82.6432 364.753 82.6432H344.039L333.707 95.7791H362.517C372.761 95.7791 381.703 88.8575 384.267 78.9298Z" fill="#FF221D"/>
<path d="M370.726 39.0405C371.319 36.7544 373.391 35.1503 375.753 35.1503L375.93 34.3672H371.938H371.926H352.5L349.582 45.6716H369.008L370.726 39.0405Z" fill="#FF221D"/>
<path d="M255.346 60.1733C255.94 57.8872 257.127 56.2831 259.489 56.2831L259.716 55.5H243.233L237.511 77.6036C236.741 80.5718 234.063 82.6559 230.981 82.6559L209.282 82.6432L198.938 95.7791H228.721C238.977 95.7917 247.932 88.8575 250.496 78.9298L255.346 60.1733Z" fill="#FF221D"/>
<path d="M363.2 66.7792L366.118 55.5H347.488L344.57 66.7792H363.2Z" fill="#FF221D"/>
<path d="M312.462 66.7774H339.883L342.788 55.4982H315.38L319.636 39.0279C320.205 36.7417 322.276 35.1503 324.638 35.1503L324.827 34.3672H307.486L295.234 81.7321C293.39 88.8431 298.77 95.79 306.122 95.7773H329.147L339.479 82.6415L311.54 82.6288C309.923 82.6288 308.736 81.1005 309.153 79.5343L312.462 66.7774Z" fill="#FF221D"/>
<path d="M187.596 45.6716L190.514 34.3672H177.176L174.246 45.6716H169.648L166.73 56.976H171.315L164.912 81.7321C163.068 88.8431 168.448 95.7773 175.787 95.7773H194.379L204.723 82.6415H181.218C179.601 82.6415 178.414 81.1132 178.831 79.547L184.666 56.976H197.663L195.402 65.7038H190.779L181.925 76.9577H193.659C200.833 76.9577 207.098 72.1075 208.892 65.1733L212.731 50.3449C213.325 48.0588 215.384 46.4547 217.746 46.4547L217.922 45.6716H187.596Z" fill="#FF221D"/>
<path d="M140.282 45.6842L141.57 40.6825L142 39.0405C142.593 36.7544 144.652 35.1503 147.014 35.1503L147.204 34.3672L129.849 34.3798L128.22 40.6825L126.931 45.6842H115.88L112.949 56.976L124.014 56.9886L118.242 79.2817C117.724 81.2647 115.943 82.6541 113.897 82.6541H109.375L99.043 95.79H111.497C120.818 95.79 128.965 89.4873 131.289 80.4564L137.364 56.976H149.679L143.907 79.2817C143.389 81.2647 141.608 82.6541 139.562 82.6541H135.053L124.721 95.79H137.162C146.484 95.79 154.63 89.4873 156.954 80.4564L164.748 50.3449C165.341 48.0588 166.364 46.4547 168.726 46.4547L168.928 45.6842H140.282Z" fill="#FF221D"/>
<path d="M295.273 51.4787H270.542L274.799 35.0084C275.392 32.7222 277.451 31.1181 279.813 31.1181L279.99 30.3477H262.648L246.771 91.7578H260.122L267.625 62.7579H286.406L295.273 51.4787Z" fill="white"/>
<path d="M333.228 30.3477H324.627L321.709 41.6521H330.31L333.228 30.3477Z" fill="white"/>
<path d="M345.441 30.3477H336.84L333.922 41.6521H342.523L345.441 30.3477Z" fill="white"/>
<path d="M207.969 72.9525H216.57L222.128 51.4805H213.514L207.969 72.9525Z" fill="white"/>
<path d="M228.784 72.9525L234.329 51.4805H225.727L220.17 72.9525H228.784Z" fill="white"/>
<path d="M379.189 41.6521L382.12 30.3477H373.506L370.588 41.6521H379.189Z" fill="white"/>
<path d="M394.322 30.3477H385.72L382.803 41.6521H391.404L394.322 30.3477Z" fill="white"/>
<path d="M461.277 35.021C461.87 32.7348 463.929 31.1308 466.291 31.1308L466.481 30.3477H439.464L436.18 43.0414H459.205L461.277 35.021Z" fill="white"/>
<path d="M464.535 51.4805L458.814 73.5841C458.043 76.5523 455.366 78.6363 452.284 78.6363L429.523 78.6237L419.191 91.7596H450.023C460.279 91.7722 469.234 84.838 471.798 74.9103L476.648 56.1538C477.242 53.8677 479.301 52.2636 481.663 52.2636L481.865 51.4805H464.535Z" fill="white"/>
<path d="M429.157 56.1538C429.751 53.8677 431.81 52.2636 434.172 52.2636L434.348 51.4805H392.339L390.192 59.8167H414.847L413.609 64.6037H388.954L386.794 72.9399H411.462L409.997 78.6237H385.342L375.01 91.7596H407.774C414.948 91.7596 421.213 86.9094 423.006 79.9752L429.157 56.1538Z" fill="white"/>
<path d="M381.01 74.9103L385.86 56.1412C386.453 53.855 388.512 52.2509 390.874 52.2509L391.076 51.4805H373.734L368.025 73.5714C367.255 76.5396 364.577 78.6237 361.495 78.6237H340.781L330.449 91.7596H359.26C369.503 91.7596 378.446 84.838 381.01 74.9103Z" fill="white"/>
<path d="M367.468 35.021C368.062 32.7348 370.133 31.1308 372.495 31.1308L372.672 30.3477H368.68H368.668H349.242L346.324 41.6521H365.75L367.468 35.021Z" fill="white"/>
<path d="M252.088 56.1538C252.682 53.8677 253.869 52.2636 256.231 52.2636L256.458 51.4805H239.975L234.254 73.5841C233.483 76.5523 230.805 78.6363 227.724 78.6363L206.024 78.6237L195.68 91.7596H225.463C235.719 91.7722 244.674 84.838 247.238 74.9103L252.088 56.1538Z" fill="white"/>
<path d="M359.941 62.7596L362.858 51.4805H344.228L341.311 62.7596H359.941Z" fill="white"/>
<path d="M309.203 62.7579H336.624L339.529 51.4787H312.108L316.365 35.0084C316.933 32.7222 319.005 31.1308 321.367 31.1308L321.556 30.3477H304.214L291.962 77.7125C290.118 84.8236 295.499 91.7704 302.85 91.7578H325.876L336.208 78.6219L308.269 78.6093C306.652 78.6093 305.465 77.081 305.881 75.5148L309.203 62.7579Z" fill="white"/>
<path d="M184.337 41.6521L187.254 30.3477H173.916L170.986 41.6521H166.388L163.471 52.9565H168.056L161.652 77.7125C159.808 84.8236 165.188 91.7578 172.527 91.7578H191.119L201.464 78.6219H177.958C176.341 78.6219 175.154 77.0936 175.571 75.5274L181.406 52.9565H194.403L192.142 61.6843H187.519L178.665 72.9381H190.399C197.573 72.9381 203.838 68.088 205.632 61.1538L209.471 46.3254C210.065 44.0393 212.124 42.4352 214.486 42.4352L214.663 41.6521H184.337Z" fill="white"/>
<path d="M137.022 41.6647L138.311 36.663L138.74 35.021C139.334 32.7348 141.392 31.1308 143.754 31.1308L143.944 30.3477L126.589 30.3603L124.96 36.663L123.659 41.6647H112.607L109.677 52.9565L120.741 52.9691L114.969 75.2622C114.451 77.2452 112.67 78.6346 110.624 78.6346H106.115L95.7832 91.7704H108.237C117.558 91.7704 125.705 85.4677 128.029 76.4368L134.105 52.9565H146.419L140.647 75.2622C140.129 77.2452 138.348 78.6346 136.302 78.6346H131.793L121.461 91.7704H133.902C143.224 91.7704 151.371 85.4677 153.695 76.4368L161.488 46.3254C162.081 44.0393 163.104 42.4352 165.466 42.4352L165.668 41.6647H137.022Z" fill="white"/>
</svg>
