<svg width="723" height="86" viewBox="0 0 723 86" fill="none" xmlns="http://www.w3.org/2000/svg">
<g id="gamemeta" clip-path="url(#clip0)">
<g id="GAME DETAILS">
<g id="ICON DIVIDERS" opacity="0.351446">
<rect id="Rectangle" x="170" y="0.223145" width="1" height="73" fill="white"/>
<rect id="Rectangle_2" x="361" y="0.223145" width="1" height="73" fill="white"/>
<rect id="Rectangle_3" x="552" y="0.223145" width="1" height="73" fill="white"/>
</g>
<g id="MD_LBL_PLAYERS INFO">
<g id="PLAYERS - ICON">
<path id="Oval" d="M258.5 8.22314C258.5 11.813 255.59 14.7231 252 14.7231C248.41 14.7231 245.5 11.813 245.5 8.22314C245.5 4.63329 248.41 1.72314 252 1.72314C255.59 1.72314 258.5 4.63329 258.5 8.22314Z" stroke="white" stroke-width="3"/>
<path id="Rectangle_4" d="M245 19.7231H259C262.038 19.7231 264.5 22.1856 264.5 25.2231V36.7231H239.5V25.2231C239.5 22.1856 241.962 19.7231 245 19.7231Z" stroke="white" stroke-width="3"/>
<path id="Oval_2" d="M287.5 8.22314C287.5 11.813 284.59 14.7231 281 14.7231C277.41 14.7231 274.5 11.813 274.5 8.22314C274.5 4.63329 277.41 1.72314 281 1.72314C284.59 1.72314 287.5 4.63329 287.5 8.22314Z" stroke="white" stroke-width="3"/>
<path id="Rectangle_5" d="M274 19.7231H288C291.038 19.7231 293.5 22.1856 293.5 25.2231V36.7231H268.5V25.2231C268.5 22.1856 270.962 19.7231 274 19.7231Z" stroke="white" stroke-width="3"/>
</g>
</g>
<g id="MD_DEVELOPER INFO">
<g id="PROCESSOR - ICON">
<g id="Group 51">
<rect id="Rectangle_6" x="420" y="13.2231" width="8" height="3" rx="1.5" fill="white"/>
<rect id="Rectangle_7" x="420" y="18.2231" width="8" height="3" rx="1.5" fill="white"/>
<rect id="Rectangle_8" x="420" y="23.2231" width="8" height="3" rx="1.5" fill="white"/>
</g>
<g id="Group 52">
<rect id="Rectangle_9" x="448" y="1.22314" width="7" height="3" rx="1.5" transform="rotate(90 448 1.22314)" fill="white"/>
<rect id="Rectangle_10" x="443" y="1.22314" width="7" height="3" rx="1.5" transform="rotate(90 443 1.22314)" fill="white"/>
<rect id="Rectangle_11" x="438" y="1.22314" width="7" height="3" rx="1.5" transform="rotate(90 438 1.22314)" fill="white"/>
<rect id="Rectangle_12" x="463" y="1.22314" width="7" height="3" rx="1.5" transform="rotate(90 463 1.22314)" fill="white"/>
<rect id="Rectangle_13" x="458" y="1.22314" width="7" height="3" rx="1.5" transform="rotate(90 458 1.22314)" fill="white"/>
<rect id="Rectangle_14" x="453" y="1.22314" width="7" height="3" rx="1.5" transform="rotate(90 453 1.22314)" fill="white"/>
<rect id="Rectangle_15" x="478" y="1.22314" width="7" height="3" rx="1.5" transform="rotate(90 478 1.22314)" fill="white"/>
<rect id="Rectangle_16" x="468" y="1.22314" width="7" height="3" rx="1.5" transform="rotate(90 468 1.22314)" fill="white"/>
<rect id="Rectangle_17" x="473" y="1.22314" width="7" height="3" rx="1.5" transform="rotate(90 473 1.22314)" fill="white"/>
</g>
<g id="Group 52_2">
<rect id="Rectangle_18" x="448" y="31.2231" width="7" height="3" rx="1.5" transform="rotate(90 448 31.2231)" fill="white"/>
<rect id="Rectangle_19" x="443" y="31.2231" width="7" height="3" rx="1.5" transform="rotate(90 443 31.2231)" fill="white"/>
<rect id="Rectangle_20" x="438" y="31.2231" width="7" height="3" rx="1.5" transform="rotate(90 438 31.2231)" fill="white"/>
<rect id="Rectangle_21" x="463" y="31.2231" width="7" height="3" rx="1.5" transform="rotate(90 463 31.2231)" fill="white"/>
<rect id="Rectangle_22" x="458" y="31.2231" width="7" height="3" rx="1.5" transform="rotate(90 458 31.2231)" fill="white"/>
<rect id="Rectangle_23" x="453" y="31.2231" width="7" height="3" rx="1.5" transform="rotate(90 453 31.2231)" fill="white"/>
<rect id="Rectangle_24" x="478" y="31.2231" width="7" height="3" rx="1.5" transform="rotate(90 478 31.2231)" fill="white"/>
<rect id="Rectangle_25" x="468" y="31.2231" width="7" height="3" rx="1.5" transform="rotate(90 468 31.2231)" fill="white"/>
<rect id="Rectangle_26" x="473" y="31.2231" width="7" height="3" rx="1.5" transform="rotate(90 473 31.2231)" fill="white"/>
</g>
<g id="Group 51_2">
<rect id="Rectangle_27" x="486" y="13.2231" width="8" height="3" rx="1.5" fill="white"/>
<rect id="Rectangle_28" x="486" y="18.2231" width="8" height="3" rx="1.5" fill="white"/>
<rect id="Rectangle_29" x="486" y="23.2231" width="8" height="3" rx="1.5" fill="white"/>
</g>
<path id="Rectangle (Stroke)" fill-rule="evenodd" clip-rule="evenodd" d="M428 9.22314V30.2231H485V9.22314H428ZM427.556 6.22314C426.144 6.22314 425 7.36731 425 8.7787V30.6676C425 32.079 426.144 33.2231 427.556 33.2231H485.444C486.856 33.2231 488 32.079 488 30.6676V8.7787C488 7.36731 486.856 6.22314 485.444 6.22314H427.556Z" fill="white"/>
<path id="Rectangle (Stroke)_2" fill-rule="evenodd" clip-rule="evenodd" d="M480 14.2231H433V25.2231H480V14.2231ZM431 12.2231V27.2231H482V12.2231H431Z" fill="white"/>
</g>
</g>
<g id="RELEASEDATE - INFO">
<g id="RELEASEDATE - ICON">
<rect id="Rectangle_30" x="632" y="0.223145" width="10" height="3" rx="1.5" transform="rotate(90 632 0.223145)" fill="white"/>
<rect id="Rectangle_31" x="620" y="11.2231" width="57" height="2" fill="white"/>
<rect id="Rectangle_32" x="668" y="0.223145" width="10" height="3" rx="1.5" transform="rotate(90 668 0.223145)" fill="white"/>
<path id="Rectangle (Stroke)_3" fill-rule="evenodd" clip-rule="evenodd" d="M623 6.22314V35.2231H674V6.22314H623ZM622.556 3.22314C621.144 3.22314 620 4.36731 620 5.7787V35.6676C620 37.079 621.144 38.2231 622.556 38.2231H674.444C675.856 38.2231 677 37.079 677 35.6676V5.7787C677 4.36731 675.856 3.22314 674.444 3.22314H622.556Z" fill="white"/>
<path id="Oval_3" fill-rule="evenodd" clip-rule="evenodd" d="M634.5 18.2231C635.328 18.2231 636 17.5516 636 16.7231C636 15.8947 635.328 15.2231 634.5 15.2231C633.672 15.2231 633 15.8947 633 16.7231C633 17.5516 633.672 18.2231 634.5 18.2231Z" fill="white"/>
<path id="Oval_4" fill-rule="evenodd" clip-rule="evenodd" d="M641.5 18.2231C642.328 18.2231 643 17.5516 643 16.7231C643 15.8947 642.328 15.2231 641.5 15.2231C640.672 15.2231 640 15.8947 640 16.7231C640 17.5516 640.672 18.2231 641.5 18.2231Z" fill="white"/>
<path id="Oval_5" fill-rule="evenodd" clip-rule="evenodd" d="M648.5 18.2231C649.328 18.2231 650 17.5516 650 16.7231C650 15.8947 649.328 15.2231 648.5 15.2231C647.672 15.2231 647 15.8947 647 16.7231C647 17.5516 647.672 18.2231 648.5 18.2231Z" fill="white"/>
<path id="Oval_6" fill-rule="evenodd" clip-rule="evenodd" d="M655.5 18.2231C656.328 18.2231 657 17.5516 657 16.7231C657 15.8947 656.328 15.2231 655.5 15.2231C654.672 15.2231 654 15.8947 654 16.7231C654 17.5516 654.672 18.2231 655.5 18.2231Z" fill="white"/>
<path id="Oval_7" fill-rule="evenodd" clip-rule="evenodd" d="M662.5 18.2231C663.328 18.2231 664 17.5516 664 16.7231C664 15.8947 663.328 15.2231 662.5 15.2231C661.672 15.2231 661 15.8947 661 16.7231C661 17.5516 661.672 18.2231 662.5 18.2231Z" fill="white"/>
<path id="Oval_8" fill-rule="evenodd" clip-rule="evenodd" d="M669.5 18.2231C670.328 18.2231 671 17.5516 671 16.7231C671 15.8947 670.328 15.2231 669.5 15.2231C668.672 15.2231 668 15.8947 668 16.7231C668 17.5516 668.672 18.2231 669.5 18.2231Z" fill="white"/>
<path id="Oval_9" fill-rule="evenodd" clip-rule="evenodd" d="M627.5 23.2231C628.328 23.2231 629 22.5516 629 21.7231C629 20.8947 628.328 20.2231 627.5 20.2231C626.672 20.2231 626 20.8947 626 21.7231C626 22.5516 626.672 23.2231 627.5 23.2231Z" fill="white"/>
<path id="Oval_10" fill-rule="evenodd" clip-rule="evenodd" d="M634.5 23.2231C635.328 23.2231 636 22.5516 636 21.7231C636 20.8947 635.328 20.2231 634.5 20.2231C633.672 20.2231 633 20.8947 633 21.7231C633 22.5516 633.672 23.2231 634.5 23.2231Z" fill="white"/>
<path id="Oval_11" fill-rule="evenodd" clip-rule="evenodd" d="M641.5 23.2231C642.328 23.2231 643 22.5516 643 21.7231C643 20.8947 642.328 20.2231 641.5 20.2231C640.672 20.2231 640 20.8947 640 21.7231C640 22.5516 640.672 23.2231 641.5 23.2231Z" fill="white"/>
<path id="Oval_12" fill-rule="evenodd" clip-rule="evenodd" d="M648.5 23.2231C649.328 23.2231 650 22.5516 650 21.7231C650 20.8947 649.328 20.2231 648.5 20.2231C647.672 20.2231 647 20.8947 647 21.7231C647 22.5516 647.672 23.2231 648.5 23.2231Z" fill="white"/>
<path id="Oval_13" fill-rule="evenodd" clip-rule="evenodd" d="M655.5 23.2231C656.328 23.2231 657 22.5516 657 21.7231C657 20.8947 656.328 20.2231 655.5 20.2231C654.672 20.2231 654 20.8947 654 21.7231C654 22.5516 654.672 23.2231 655.5 23.2231Z" fill="white"/>
<path id="Oval_14" fill-rule="evenodd" clip-rule="evenodd" d="M662.5 23.2231C663.328 23.2231 664 22.5516 664 21.7231C664 20.8947 663.328 20.2231 662.5 20.2231C661.672 20.2231 661 20.8947 661 21.7231C661 22.5516 661.672 23.2231 662.5 23.2231Z" fill="white"/>
<path id="Oval_15" fill-rule="evenodd" clip-rule="evenodd" d="M669.5 23.2231C670.328 23.2231 671 22.5516 671 21.7231C671 20.8947 670.328 20.2231 669.5 20.2231C668.672 20.2231 668 20.8947 668 21.7231C668 22.5516 668.672 23.2231 669.5 23.2231Z" fill="white"/>
<path id="Oval_16" fill-rule="evenodd" clip-rule="evenodd" d="M627.5 28.2231C628.328 28.2231 629 27.5516 629 26.7231C629 25.8947 628.328 25.2231 627.5 25.2231C626.672 25.2231 626 25.8947 626 26.7231C626 27.5516 626.672 28.2231 627.5 28.2231Z" fill="white"/>
<path id="Oval_17" fill-rule="evenodd" clip-rule="evenodd" d="M634.5 28.2231C635.328 28.2231 636 27.5516 636 26.7231C636 25.8947 635.328 25.2231 634.5 25.2231C633.672 25.2231 633 25.8947 633 26.7231C633 27.5516 633.672 28.2231 634.5 28.2231Z" fill="white"/>
<path id="Oval_18" fill-rule="evenodd" clip-rule="evenodd" d="M641.5 28.2231C642.328 28.2231 643 27.5516 643 26.7231C643 25.8947 642.328 25.2231 641.5 25.2231C640.672 25.2231 640 25.8947 640 26.7231C640 27.5516 640.672 28.2231 641.5 28.2231Z" fill="white"/>
<path id="Oval_19" fill-rule="evenodd" clip-rule="evenodd" d="M648.5 28.2231C649.328 28.2231 650 27.5516 650 26.7231C650 25.8947 649.328 25.2231 648.5 25.2231C647.672 25.2231 647 25.8947 647 26.7231C647 27.5516 647.672 28.2231 648.5 28.2231Z" fill="white"/>
<path id="Oval_20" fill-rule="evenodd" clip-rule="evenodd" d="M655.5 28.2231C656.328 28.2231 657 27.5516 657 26.7231C657 25.8947 656.328 25.2231 655.5 25.2231C654.672 25.2231 654 25.8947 654 26.7231C654 27.5516 654.672 28.2231 655.5 28.2231Z" fill="white"/>
<path id="Oval_21" fill-rule="evenodd" clip-rule="evenodd" d="M662.5 28.2231C663.328 28.2231 664 27.5516 664 26.7231C664 25.8947 663.328 25.2231 662.5 25.2231C661.672 25.2231 661 25.8947 661 26.7231C661 27.5516 661.672 28.2231 662.5 28.2231Z" fill="white"/>
<path id="Oval_22" fill-rule="evenodd" clip-rule="evenodd" d="M669.5 28.2231C670.328 28.2231 671 27.5516 671 26.7231C671 25.8947 670.328 25.2231 669.5 25.2231C668.672 25.2231 668 25.8947 668 26.7231C668 27.5516 668.672 28.2231 669.5 28.2231Z" fill="white"/>
<path id="Oval_23" fill-rule="evenodd" clip-rule="evenodd" d="M627.5 33.2231C628.328 33.2231 629 32.5516 629 31.7231C629 30.8947 628.328 30.2231 627.5 30.2231C626.672 30.2231 626 30.8947 626 31.7231C626 32.5516 626.672 33.2231 627.5 33.2231Z" fill="white"/>
<path id="Oval_24" fill-rule="evenodd" clip-rule="evenodd" d="M634.5 33.2231C635.328 33.2231 636 32.5516 636 31.7231C636 30.8947 635.328 30.2231 634.5 30.2231C633.672 30.2231 633 30.8947 633 31.7231C633 32.5516 633.672 33.2231 634.5 33.2231Z" fill="white"/>
<path id="Oval_25" fill-rule="evenodd" clip-rule="evenodd" d="M641.5 33.2231C642.328 33.2231 643 32.5516 643 31.7231C643 30.8947 642.328 30.2231 641.5 30.2231C640.672 30.2231 640 30.8947 640 31.7231C640 32.5516 640.672 33.2231 641.5 33.2231Z" fill="white"/>
<path id="Oval_26" fill-rule="evenodd" clip-rule="evenodd" d="M648.5 33.2231C649.328 33.2231 650 32.5516 650 31.7231C650 30.8947 649.328 30.2231 648.5 30.2231C647.672 30.2231 647 30.8947 647 31.7231C647 32.5516 647.672 33.2231 648.5 33.2231Z" fill="white"/>
<path id="Oval_27" fill-rule="evenodd" clip-rule="evenodd" d="M655.5 33.2231C656.328 33.2231 657 32.5516 657 31.7231C657 30.8947 656.328 30.2231 655.5 30.2231C654.672 30.2231 654 30.8947 654 31.7231C654 32.5516 654.672 33.2231 655.5 33.2231Z" fill="white"/>
<path id="Oval_28" fill-rule="evenodd" clip-rule="evenodd" d="M662.5 33.2231C663.328 33.2231 664 32.5516 664 31.7231C664 30.8947 663.328 30.2231 662.5 30.2231C661.672 30.2231 661 30.8947 661 31.7231C661 32.5516 661.672 33.2231 662.5 33.2231Z" fill="white"/>
</g>
</g>
</g>
<g id="Group 336">
<g id="Group 330">
<g id="Group 325">
<g id="Group 337">
<path id="Rectangle 239" d="M56.7148 41.6485C56.7148 41.5285 56.8122 41.4312 56.9322 41.4312H58.4811C58.6011 41.4312 58.6985 41.5285 58.6985 41.6485V47.1918C58.6985 47.3119 58.6011 47.4092 58.4811 47.4092H56.9322C56.8122 47.4092 56.7148 47.3119 56.7148 47.1918V41.6485Z" fill="white"/>
<path id="Rectangle 240" d="M54.9352 45.4121C54.8151 45.4121 54.7178 45.3148 54.7178 45.1947L54.7178 43.6459C54.7178 43.5258 54.8151 43.4285 54.9352 43.4285L60.4784 43.4285C60.5985 43.4285 60.6958 43.5258 60.6958 43.6459L60.6958 45.1947C60.6958 45.3148 60.5985 45.4121 60.4784 45.4121L54.9352 45.4121Z" fill="white"/>
<path id="Ellipse 194" d="M97.6373 36.5613C97.6373 37.2666 97.0655 37.8384 96.3601 37.8384C95.6548 37.8384 95.083 37.2666 95.083 36.5613C95.083 35.856 95.6548 35.2842 96.3601 35.2842C97.0655 35.2842 97.6373 35.856 97.6373 36.5613Z" fill="white"/>
<path id="Ellipse 195" d="M97.6363 41.7239C97.6363 42.4292 97.0645 43.001 96.3592 43.001C95.6538 43.001 95.082 42.4292 95.082 41.7239C95.082 41.0186 95.6538 40.4468 96.3592 40.4468C97.0645 40.4468 97.6363 41.0186 97.6363 41.7239Z" fill="white"/>
<path id="Ellipse 196" d="M93.7776 37.8652C94.483 37.8652 95.0547 38.437 95.0547 39.1423C95.0547 39.8476 94.483 40.4194 93.7776 40.4194C93.0723 40.4194 92.5005 39.8476 92.5005 39.1423C92.5005 38.437 93.0723 37.8652 93.7776 37.8652Z" fill="white"/>
<path id="Ellipse 197" d="M93.703 32.8723C94.265 32.8723 94.7205 33.3278 94.7205 33.8897C94.7205 34.4517 94.265 34.9072 93.703 34.9072C93.1411 34.9072 92.6855 34.4517 92.6855 33.8897C92.6855 33.3278 93.1411 32.8723 93.703 32.8723Z" fill="white"/>
<path id="Ellipse 198" d="M98.9402 37.8657C99.6455 37.8657 100.217 38.4375 100.217 39.1428C100.217 39.8481 99.6455 40.4199 98.9402 40.4199C98.2349 40.4199 97.6631 39.8481 97.6631 39.1428C97.6631 38.4375 98.2349 37.8657 98.9402 37.8657Z" fill="white"/>
<path id="Ellipse 199" d="M94.3693 47.233C94.3693 47.6238 94.0525 47.9406 93.6617 47.9406C93.2709 47.9406 92.9541 47.6238 92.9541 47.233C92.9541 46.8422 93.2709 46.5254 93.6617 46.5254C94.0525 46.5254 94.3693 46.8422 94.3693 47.233Z" fill="white"/>
<path id="Ellipse 200" d="M94.3693 50.2442C94.3693 50.635 94.0525 50.9519 93.6617 50.9519C93.2709 50.9519 92.9541 50.635 92.9541 50.2442C92.9541 49.8534 93.2709 49.5366 93.6617 49.5366C94.0525 49.5366 94.3693 49.8534 94.3693 50.2442Z" fill="white"/>
<path id="Rectangle 323 (Stroke)" fill-rule="evenodd" clip-rule="evenodd" d="M55.8549 54.5981L98.3355 54.5981C99.8874 54.5981 101.146 53.3401 101.146 51.7881L101.146 5.65815C101.146 4.10623 99.8874 2.84815 98.3355 2.84815L55.8549 2.84814C54.303 2.84814 53.0449 4.10622 53.0449 5.65815L53.0449 51.7881C53.0449 53.3401 54.303 54.5981 55.8549 54.5981ZM98.3355 56.5981C100.992 56.5981 103.146 54.4446 103.146 51.7881L103.146 5.65815C103.146 3.00166 100.992 0.848148 98.3355 0.848148L55.8549 0.848144C53.1984 0.848144 51.0449 3.00166 51.0449 5.65815L51.0449 51.7881C51.0449 54.4446 53.1984 56.5981 55.8549 56.5981L98.3355 56.5981Z" fill="white"/>
<path id="Ellipse 202 (Stroke)" fill-rule="evenodd" clip-rule="evenodd" d="M57.7066 38.297C58.8616 38.297 59.798 37.3607 59.798 36.2056C59.798 35.0506 58.8616 34.1143 57.7066 34.1143C56.5516 34.1143 55.6153 35.0506 55.6153 36.2056C55.6153 37.3607 56.5516 38.297 57.7066 38.297ZM57.7066 39.1706C59.3441 39.1706 60.6715 37.8431 60.6715 36.2056C60.6715 34.5682 59.3441 33.2407 57.7066 33.2407C56.0691 33.2407 54.7417 34.5682 54.7417 36.2056C54.7417 37.8431 56.0691 39.1706 57.7066 39.1706Z" fill="white"/>
<path id="Rectangle 320" d="M75.4287 52.3181C75.4287 51.8666 75.7948 51.5005 76.2464 51.5005H77.9434C78.395 51.5005 78.7611 51.8666 78.7611 52.3181V52.3181C78.7611 52.7697 78.395 53.1358 77.9434 53.1358H76.2464C75.7948 53.1358 75.4287 52.7697 75.4287 52.3181V52.3181Z" fill="white"/>
<path id="Rectangle 321 (Stroke)" fill-rule="evenodd" clip-rule="evenodd" d="M65.0908 32.4321V49.9517H89.0322V32.4321H65.0908ZM64.4611 31.4321C64.2566 31.4321 64.0908 31.5979 64.0908 31.8024V50.5814C64.0908 50.7859 64.2566 50.9517 64.4611 50.9517H89.662C89.8665 50.9517 90.0322 50.7859 90.0322 50.5814V31.8024C90.0322 31.5979 89.8665 31.4321 89.662 31.4321H64.4611Z" fill="white"/>
<path id="Rectangle 322 (Stroke)" fill-rule="evenodd" clip-rule="evenodd" d="M63.4047 53.7227L90.7856 53.7227L90.7856 30.7167L63.4047 30.7167L63.4047 53.7227ZM90.7983 54.7227C91.3436 54.7227 91.7856 54.2806 91.7856 53.7353L91.7856 29.7167L62.4047 29.7167L62.4047 53.7353C62.4047 54.2806 62.8467 54.7227 63.392 54.7227L90.7983 54.7227Z" fill="white"/>
<path id="Rectangle 314 (Stroke)" fill-rule="evenodd" clip-rule="evenodd" d="M62.3218 8.16064V24.8481H91.8687V8.16064H62.3218ZM61.692 7.16064C61.4875 7.16064 61.3218 7.32642 61.3218 7.5309V25.4779C61.3218 25.6824 61.4875 25.8481 61.692 25.8481H92.4984C92.7029 25.8481 92.8687 25.6824 92.8687 25.4779V7.5309C92.8687 7.32642 92.7029 7.16064 92.4984 7.16064H61.692Z" fill="white"/>
<path id="Rectangle 315 (Stroke)" fill-rule="evenodd" clip-rule="evenodd" d="M93.5289 6.50879H60.6616V26.5004H93.5289V6.50879ZM60.649 5.50879C60.1037 5.50879 59.6616 5.95084 59.6616 6.49615V27.5004H94.5289V6.49615C94.5289 5.95085 94.0868 5.50879 93.5415 5.50879H60.649Z" fill="white"/>
<path id="Ellipse 203" d="M77.9593 4.08953C77.9593 4.56667 77.5725 4.95347 77.0954 4.95347C76.6182 4.95347 76.2314 4.56667 76.2314 4.08953C76.2314 3.61239 76.6182 3.22559 77.0954 3.22559C77.5725 3.22559 77.9593 3.61239 77.9593 4.08953Z" fill="white"/>
<path id="Ellipse 194_2" d="M98.1631 13.3213C98.1631 13.5974 97.9392 13.8213 97.6631 13.8213C97.3869 13.8213 97.1631 13.5974 97.1631 13.3213C97.1631 13.0451 97.3869 12.8213 97.6631 12.8213C97.9392 12.8213 98.1631 13.0451 98.1631 13.3213Z" fill="white"/>
<path id="Ellipse 196_2" d="M98.1631 16.4424C98.1631 16.7185 97.9392 16.9424 97.6631 16.9424C97.3869 16.9424 97.1631 16.7185 97.1631 16.4424C97.1631 16.1662 97.3869 15.9424 97.6631 15.9424C97.9392 15.9424 98.1631 16.1662 98.1631 16.4424Z" fill="white"/>
<path id="Ellipse 195_2" d="M98.1631 14.8604C98.1631 15.1365 97.9392 15.3604 97.6631 15.3604C97.3869 15.3604 97.1631 15.1365 97.1631 14.8604C97.1631 14.5842 97.3869 14.3604 97.6631 14.3604C97.9392 14.3604 98.1631 14.5842 98.1631 14.8604Z" fill="white"/>
<path id="Ellipse 194_3" d="M96.123 14.4023C96.3992 14.4023 96.623 14.6262 96.623 14.9023C96.623 15.1785 96.3992 15.4023 96.123 15.4023C95.8469 15.4023 95.623 15.1785 95.623 14.9023C95.623 14.6262 95.8469 14.4023 96.123 14.4023Z" fill="white"/>
<path id="Ellipse 196_3" d="M99.2031 14.4023C99.4793 14.4023 99.7031 14.6262 99.7031 14.9023C99.7031 15.1785 99.4793 15.4023 99.2031 15.4023C98.927 15.4023 98.7031 15.1785 98.7031 14.9023C98.7031 14.6262 98.927 14.4023 99.2031 14.4023Z" fill="white"/>
<path id="Ellipse 194_4" d="M57.0273 13.3213C57.0273 13.5974 56.8035 13.8213 56.5273 13.8213C56.2512 13.8213 56.0273 13.5974 56.0273 13.3213C56.0273 13.0451 56.2512 12.8213 56.5273 12.8213C56.8035 12.8213 57.0273 13.0451 57.0273 13.3213Z" fill="white"/>
<path id="Ellipse 196_4" d="M57.0273 16.4424C57.0273 16.7185 56.8035 16.9424 56.5273 16.9424C56.2512 16.9424 56.0273 16.7185 56.0273 16.4424C56.0273 16.1662 56.2512 15.9424 56.5273 15.9424C56.8035 15.9424 57.0273 16.1662 57.0273 16.4424Z" fill="white"/>
<path id="Ellipse 195_3" d="M57.0273 14.8604C57.0273 15.1365 56.8035 15.3604 56.5273 15.3604C56.2512 15.3604 56.0273 15.1365 56.0273 14.8604C56.0273 14.5842 56.2512 14.3604 56.5273 14.3604C56.8035 14.3604 57.0273 14.5842 57.0273 14.8604Z" fill="white"/>
<path id="Ellipse 194_5" d="M54.9873 14.4023C55.2634 14.4023 55.4873 14.6262 55.4873 14.9023C55.4873 15.1785 55.2634 15.4023 54.9873 15.4023C54.7112 15.4023 54.4873 15.1785 54.4873 14.9023C54.4873 14.6262 54.7112 14.4023 54.9873 14.4023Z" fill="white"/>
<path id="Ellipse 196_5" d="M58.0674 14.4023C58.3435 14.4023 58.5674 14.6262 58.5674 14.9023C58.5674 15.1785 58.3435 15.4023 58.0674 15.4023C57.7912 15.4023 57.5674 15.1785 57.5674 14.9023C57.5674 14.6262 57.7912 14.4023 58.0674 14.4023Z" fill="white"/>
<path id="Line 54 (Stroke)" fill-rule="evenodd" clip-rule="evenodd" d="M57.6259 27.5007L57.6259 29.9463L57.0088 29.9463L57.0088 27.5007L57.6259 27.5007Z" fill="white"/>
<path id="Line 56 (Stroke)" fill-rule="evenodd" clip-rule="evenodd" d="M97.182 27.5007L97.182 29.9463L96.5649 29.9463L96.5649 27.5007L97.182 27.5007Z" fill="white"/>
<path id="Line 59 (Stroke)" fill-rule="evenodd" clip-rule="evenodd" d="M52.6982 27.0674L101.492 27.0674L101.492 28.0674L52.6982 28.0674L52.6982 27.0674Z" fill="white"/>
<path id="Line 59 (Stroke)_2" fill-rule="evenodd" clip-rule="evenodd" d="M52.6982 29.3789L101.492 29.3789L101.492 30.3789L52.6982 30.3789L52.6982 29.3789Z" fill="white"/>
</g>
</g>
</g>
</g>
</g>
<defs>
<clipPath id="clip0">
<rect width="723" height="85" fill="white" transform="translate(0 0.223145)"/>
</clipPath>
</defs>
</svg>
