<svg width="120" height="81" viewBox="0 0 120 81" fill="none" xmlns="http://www.w3.org/2000/svg">
<path d="M39.6196 41.5235C39.6196 41.4035 39.717 41.3062 39.837 41.3062H41.3859C41.5059 41.3062 41.6033 41.4035 41.6033 41.5235V47.0668C41.6033 47.1869 41.5059 47.2842 41.3859 47.2842H39.837C39.717 47.2842 39.6196 47.1869 39.6196 47.0668V41.5235Z" fill="white"/>
<path d="M37.8399 45.2871C37.7199 45.2871 37.6226 45.1898 37.6226 45.0697L37.6226 43.5209C37.6226 43.4008 37.7199 43.3035 37.8399 43.3035L43.3832 43.3035C43.5033 43.3035 43.6006 43.4008 43.6006 43.5209L43.6006 45.0697C43.6006 45.1898 43.5033 45.2871 43.3832 45.2871L37.8399 45.2871Z" fill="white"/>
<path d="M80.542 36.4363C80.542 37.1416 79.9703 37.7134 79.2649 37.7134C78.5596 37.7134 77.9878 37.1416 77.9878 36.4363C77.9878 35.731 78.5596 35.1592 79.2649 35.1592C79.9703 35.1592 80.542 35.731 80.542 36.4363Z" fill="white"/>
<path d="M80.5411 41.5989C80.5411 42.3042 79.9693 42.876 79.2639 42.876C78.5586 42.876 77.9868 42.3042 77.9868 41.5989C77.9868 40.8936 78.5586 40.3218 79.2639 40.3218C79.9693 40.3218 80.5411 40.8936 80.5411 41.5989Z" fill="white"/>
<path d="M76.6824 37.7402C77.3877 37.7402 77.9595 38.312 77.9595 39.0173C77.9595 39.7226 77.3877 40.2944 76.6824 40.2944C75.9771 40.2944 75.4053 39.7226 75.4053 39.0173C75.4053 38.312 75.9771 37.7402 76.6824 37.7402Z" fill="white"/>
<path d="M76.6078 32.7473C77.1697 32.7473 77.6253 33.2028 77.6253 33.7647C77.6253 34.3267 77.1697 34.7822 76.6078 34.7822C76.0459 34.7822 75.5903 34.3267 75.5903 33.7647C75.5903 33.2028 76.0459 32.7473 76.6078 32.7473Z" fill="white"/>
<path d="M81.845 37.7407C82.5503 37.7407 83.1221 38.3125 83.1221 39.0178C83.1221 39.7231 82.5503 40.2949 81.845 40.2949C81.1397 40.2949 80.5679 39.7231 80.5679 39.0178C80.5679 38.3125 81.1397 37.7407 81.845 37.7407Z" fill="white"/>
<path d="M77.2741 47.108C77.2741 47.4988 76.9573 47.8156 76.5665 47.8156C76.1757 47.8156 75.8589 47.4988 75.8589 47.108C75.8589 46.7172 76.1757 46.4004 76.5665 46.4004C76.9573 46.4004 77.2741 46.7172 77.2741 47.108Z" fill="white"/>
<path d="M77.2741 50.1192C77.2741 50.51 76.9573 50.8269 76.5665 50.8269C76.1757 50.8269 75.8589 50.51 75.8589 50.1192C75.8589 49.7284 76.1757 49.4116 76.5665 49.4116C76.9573 49.4116 77.2741 49.7284 77.2741 50.1192Z" fill="white"/>
<path fill-rule="evenodd" clip-rule="evenodd" d="M38.7597 54.4731L81.2403 54.4731C82.7922 54.4731 84.0503 53.2151 84.0503 51.6631L84.0503 5.53315C84.0503 3.98123 82.7922 2.72315 81.2403 2.72315L38.7597 2.72314C37.2078 2.72314 35.9497 3.98122 35.9497 5.53315L35.9497 51.6631C35.9497 53.2151 37.2078 54.4731 38.7597 54.4731ZM81.2403 56.4731C83.8968 56.4731 86.0503 54.3196 86.0503 51.6631L86.0503 5.53315C86.0503 2.87666 83.8968 0.723148 81.2403 0.723148L38.7597 0.723144C36.1032 0.723144 33.9497 2.87666 33.9497 5.53315L33.9497 51.6631C33.9497 54.3196 36.1032 56.4731 38.7597 56.4731L81.2403 56.4731Z" fill="white"/>
<path fill-rule="evenodd" clip-rule="evenodd" d="M40.6114 38.172C41.7664 38.172 42.7028 37.2357 42.7028 36.0806C42.7028 34.9256 41.7664 33.9893 40.6114 33.9893C39.4564 33.9893 38.52 34.9256 38.52 36.0806C38.52 37.2357 39.4564 38.172 40.6114 38.172ZM40.6114 39.0456C42.2489 39.0456 43.5763 37.7181 43.5763 36.0806C43.5763 34.4432 42.2489 33.1157 40.6114 33.1157C38.9739 33.1157 37.6465 34.4432 37.6465 36.0806C37.6465 37.7181 38.9739 39.0456 40.6114 39.0456Z" fill="white"/>
<path d="M58.3335 52.1931C58.3335 51.7416 58.6996 51.3755 59.1512 51.3755H60.8482C61.2998 51.3755 61.6658 51.7416 61.6658 52.1931V52.1931C61.6658 52.6447 61.2998 53.0108 60.8482 53.0108H59.1512C58.6996 53.0108 58.3335 52.6447 58.3335 52.1931V52.1931Z" fill="white"/>
<path fill-rule="evenodd" clip-rule="evenodd" d="M47.9956 32.3071V49.8267H71.937V32.3071H47.9956ZM47.3659 31.3071C47.1614 31.3071 46.9956 31.4729 46.9956 31.6774V50.4564C46.9956 50.6609 47.1614 50.8267 47.3659 50.8267H72.5668C72.7712 50.8267 72.937 50.6609 72.937 50.4564V31.6774C72.937 31.4729 72.7712 31.3071 72.5668 31.3071H47.3659Z" fill="white"/>
<path fill-rule="evenodd" clip-rule="evenodd" d="M46.3095 53.5977L73.6904 53.5977L73.6904 30.5917L46.3095 30.5917L46.3095 53.5977ZM73.7031 54.5977C74.2484 54.5977 74.6904 54.1556 74.6904 53.6103L74.6904 29.5917L45.3095 29.5917L45.3095 53.6103C45.3095 54.1556 45.7515 54.5977 46.2968 54.5977L73.7031 54.5977Z" fill="white"/>
<path fill-rule="evenodd" clip-rule="evenodd" d="M45.2266 8.03564V24.7231H74.7734V8.03564H45.2266ZM44.5968 7.03564C44.3923 7.03564 44.2266 7.20142 44.2266 7.4059V25.3529C44.2266 25.5574 44.3923 25.7231 44.5968 25.7231H75.4032C75.6077 25.7231 75.7734 25.5574 75.7734 25.3529V7.4059C75.7734 7.20142 75.6077 7.03564 75.4032 7.03564H44.5968Z" fill="white"/>
<path fill-rule="evenodd" clip-rule="evenodd" d="M76.4336 6.38379H43.5664V26.3754H76.4336V6.38379ZM43.5538 5.38379C43.0085 5.38379 42.5664 5.82584 42.5664 6.37115V27.3754H77.4336V6.37115C77.4336 5.82585 76.9916 5.38379 76.4463 5.38379H43.5538Z" fill="white"/>
<path d="M60.8641 3.96453C60.8641 4.44167 60.4773 4.82847 60.0002 4.82847C59.523 4.82847 59.1362 4.44167 59.1362 3.96453C59.1362 3.48739 59.523 3.10059 60.0002 3.10059C60.4773 3.10059 60.8641 3.48739 60.8641 3.96453Z" fill="white"/>
<path d="M81.0679 13.1963C81.0679 13.4724 80.844 13.6963 80.5679 13.6963C80.2917 13.6963 80.0679 13.4724 80.0679 13.1963C80.0679 12.9201 80.2917 12.6963 80.5679 12.6963C80.844 12.6963 81.0679 12.9201 81.0679 13.1963Z" fill="white"/>
<path d="M81.0679 16.3174C81.0679 16.5935 80.844 16.8174 80.5679 16.8174C80.2917 16.8174 80.0679 16.5935 80.0679 16.3174C80.0679 16.0412 80.2917 15.8174 80.5679 15.8174C80.844 15.8174 81.0679 16.0412 81.0679 16.3174Z" fill="white"/>
<path d="M81.0679 14.7354C81.0679 15.0115 80.844 15.2354 80.5679 15.2354C80.2917 15.2354 80.0679 15.0115 80.0679 14.7354C80.0679 14.4592 80.2917 14.2354 80.5679 14.2354C80.844 14.2354 81.0679 14.4592 81.0679 14.7354Z" fill="white"/>
<path d="M79.0278 14.2773C79.304 14.2773 79.5278 14.5012 79.5278 14.7773C79.5278 15.0535 79.304 15.2773 79.0278 15.2773C78.7517 15.2773 78.5278 15.0535 78.5278 14.7773C78.5278 14.5012 78.7517 14.2773 79.0278 14.2773Z" fill="white"/>
<path d="M82.1079 14.2773C82.3841 14.2773 82.6079 14.5012 82.6079 14.7773C82.6079 15.0535 82.3841 15.2773 82.1079 15.2773C81.8318 15.2773 81.6079 15.0535 81.6079 14.7773C81.6079 14.5012 81.8318 14.2773 82.1079 14.2773Z" fill="white"/>
<path d="M39.9321 13.1963C39.9321 13.4724 39.7083 13.6963 39.4321 13.6963C39.156 13.6963 38.9321 13.4724 38.9321 13.1963C38.9321 12.9201 39.156 12.6963 39.4321 12.6963C39.7083 12.6963 39.9321 12.9201 39.9321 13.1963Z" fill="white"/>
<path d="M39.9321 16.3174C39.9321 16.5935 39.7083 16.8174 39.4321 16.8174C39.156 16.8174 38.9321 16.5935 38.9321 16.3174C38.9321 16.0412 39.156 15.8174 39.4321 15.8174C39.7083 15.8174 39.9321 16.0412 39.9321 16.3174Z" fill="white"/>
<path d="M39.9321 14.7354C39.9321 15.0115 39.7083 15.2354 39.4321 15.2354C39.156 15.2354 38.9321 15.0115 38.9321 14.7354C38.9321 14.4592 39.156 14.2354 39.4321 14.2354C39.7083 14.2354 39.9321 14.4592 39.9321 14.7354Z" fill="white"/>
<path d="M37.8921 14.2773C38.1682 14.2773 38.3921 14.5012 38.3921 14.7773C38.3921 15.0535 38.1682 15.2773 37.8921 15.2773C37.6159 15.2773 37.3921 15.0535 37.3921 14.7773C37.3921 14.5012 37.6159 14.2773 37.8921 14.2773Z" fill="white"/>
<path d="M40.9722 14.2773C41.2483 14.2773 41.4722 14.5012 41.4722 14.7773C41.4722 15.0535 41.2483 15.2773 40.9722 15.2773C40.696 15.2773 40.4722 15.0535 40.4722 14.7773C40.4722 14.5012 40.696 14.2773 40.9722 14.2773Z" fill="white"/>
<path fill-rule="evenodd" clip-rule="evenodd" d="M40.5307 27.3757L40.5307 29.8213L39.9136 29.8213L39.9136 27.3757L40.5307 27.3757Z" fill="white"/>
<path fill-rule="evenodd" clip-rule="evenodd" d="M80.0868 27.3757L80.0868 29.8213L79.4697 29.8213L79.4697 27.3757L80.0868 27.3757Z" fill="white"/>
<path fill-rule="evenodd" clip-rule="evenodd" d="M35.603 26.9424L84.397 26.9424L84.397 27.9424L35.603 27.9424L35.603 26.9424Z" fill="white"/>
<path fill-rule="evenodd" clip-rule="evenodd" d="M35.603 29.2539L84.397 29.2539L84.397 30.2539L35.603 30.2539L35.603 29.2539Z" fill="white"/>
</svg>
