<svg width="600" height="71" viewBox="0 0 600 71" fill="none" xmlns="http://www.w3.org/2000/svg">
<path d="M313.889 63.7459C313.889 64.4984 313.268 65.1142 312.513 65.1142H286.258C285.495 65.1142 284.884 64.4984 284.884 63.7459V44.7545C284.884 43.9995 285.495 43.3888 286.258 43.3888H312.513C313.268 43.3888 313.889 43.9995 313.889 44.7545V63.7459ZM312.75 37.6914H286.016C282.145 37.6914 279.001 40.8583 279.001 44.7159V63.7897C279.001 67.6421 282.145 70.8065 286.016 70.8065H312.75C316.621 70.8065 319.772 67.6421 319.772 63.7897V44.7159C319.772 40.8583 316.621 37.6914 312.75 37.6914Z" fill="#A1A2A2"/>
<path d="M6.13549 9.15495V33.6969H0V0.571446H5.23874L30.077 24.6985V0.571446H34.9834H36.1326V33.6969H31.3397L6.13549 9.15495Z" fill="white"/>
<path d="M67.6203 9.15495V33.6969H61.4874V0.571446H66.721L91.5592 24.6985V0.571446H96.4759H97.62V33.6969H92.8296L67.6203 9.15495Z" fill="white"/>
<path d="M195.051 9.15495V33.6969H188.921V0.571446H194.154L218.99 24.6985V0.571446H223.904H225.051V33.6969H220.263L195.051 9.15495Z" fill="white"/>
<path d="M50.7323 0.572681H51.8661V33.6956H45.7358V0.572681H50.7323Z" fill="white"/>
<path d="M139.382 0.572681H140.511V6.27011H125.72V33.6956H119.35V6.27011H104.569V0.572681H139.382Z" fill="white"/>
<path d="M178.672 0.572681H179.821V6.27011H153.534V13.7043H173.868V19.4018H153.534V27.9904H179.821V33.6956H147.466V0.572681H178.672Z" fill="white"/>
<path d="M259.149 27.9894H240.312V6.26911H240.488H259.149C265.043 6.26911 267.14 12.1263 267.14 17.1228C267.14 22.14 265.043 27.9894 259.149 27.9894ZM269.212 5.41102C266.818 2.2518 263.267 0.57169 258.974 0.57169H234.399V33.6971H258.974C263.267 33.6971 266.818 32.0196 269.212 28.8578C271.456 25.9125 272.649 21.8668 272.649 17.1228C272.649 12.4046 271.456 8.3409 269.212 5.41102Z" fill="white"/>
<path d="M313.889 26.6293C313.889 27.3766 313.268 27.9925 312.513 27.9925H286.258C285.495 27.9925 284.884 27.3766 284.884 26.6293V7.63791C284.884 6.88805 285.495 6.27733 286.258 6.27733H312.513C313.268 6.27733 313.889 6.88805 313.889 7.63791V26.6293ZM312.75 0.572179H286.016C282.145 0.572179 279.001 3.74171 279.001 7.59926V26.6783C279.001 30.5333 282.145 33.6976 286.016 33.6976H312.75C316.621 33.6976 319.772 30.5333 319.772 26.6783V7.59926C319.772 3.74171 316.621 0.572179 312.75 0.572179Z" fill="white"/>
<path d="M512.044 56.9086C518.407 59.4185 531.832 61.4542 542.307 61.4542C553.776 61.4542 558.536 57.5168 558.536 52.5769C558.536 48.1448 554.119 45.5396 541.451 40.8961C524.519 34.6369 512.101 29.7125 512.101 18.5908C512.101 7.07228 527.042 0.297727 549.831 0.297727C562.066 0.297727 566.266 1.07079 574.041 2.49579L574.095 13.4242C566.465 11.9735 559.701 9.47906 549.192 9.47906C537.934 9.47906 533.138 13.0532 533.138 16.7381C533.138 22.085 540.524 24.6413 553.49 29.2616C571.533 35.7217 581.573 40.7054 581.573 51.5952C581.573 62.7993 569.003 70.8881 540.647 70.8881C529 70.8881 520.973 70.1202 512.044 68.6849V56.9086Z" fill="white"/>
<path d="M451.684 9.95511H438.192V61.0361H451.684C472.399 61.0361 485.467 52.1794 485.467 35.6C485.467 19.0256 472.399 9.95511 451.684 9.95511ZM487.915 65.7955C481.233 68.8182 468.611 70.7354 457.567 70.7354H415.389V0.449098H457.567C468.611 0.449098 481.233 2.39204 487.92 5.40696C504.164 12.7407 509.468 24.4783 509.468 35.6C509.468 46.7294 504.213 58.4489 487.915 65.7955Z" fill="white"/>
<path d="M385.822 32.2751C385.822 32.2751 405.499 29.1236 405.499 16.8732C405.499 4.89857 384.547 -3.12769e-05 362.254 -3.12769e-05C342.134 -3.12769e-05 328.907 2.45828 328.907 2.45828V13.3378C338.04 11.1294 346.773 9.2483 358.678 9.2483C371.454 9.2483 381.205 13.0595 381.205 18.4451C381.205 24.9388 371.562 28.6469 350.811 28.6469H341.274V38.4363H350.133C371.992 38.4363 384.423 41.7244 384.423 49.7487C384.423 56.9124 373.317 61.2647 359.469 61.2647C347.394 61.2647 336.347 58.693 327.387 56.2063V67.9413C331.69 68.6808 343.108 70.9742 364.375 70.9742C387.933 70.9742 408.432 63.3983 408.432 50.045C408.432 38.846 394.231 32.2751 385.822 32.2751Z" fill="white"/>
<path d="M587.296 61.1614H585.078V59.9709H590.966V61.1614H588.719V67.7659H587.296V61.1614Z" fill="white"/>
<path d="M598.459 64.5849C598.415 63.5774 598.356 62.3637 598.369 61.3123H598.33C598.078 62.2632 597.756 63.3145 597.408 64.2963L596.261 67.6746H595.174L594.135 64.3427C593.834 63.348 593.555 62.2838 593.349 61.3123H593.326C593.29 62.3302 593.244 63.5671 593.184 64.6339L593.012 67.7673H591.679L592.202 59.9698H594.076L595.096 63.1032C595.369 64.018 595.617 64.9457 595.813 65.8141H595.849C596.055 64.9663 596.32 64.0051 596.622 63.0929L597.694 59.9698H599.547L600 67.7673H598.611L598.459 64.5849Z" fill="white"/>
</svg>
