<svg width="120" height="81" viewBox="0 0 120 81" fill="none" xmlns="http://www.w3.org/2000/svg">
<path fill-rule="evenodd" clip-rule="evenodd" d="M18 2.5C16.6193 2.5 15.5 3.61929 15.5 5V29C15.5 30.3807 16.6193 31.5 18 31.5H102C103.381 31.5 104.5 30.3807 104.5 29V5C104.5 3.61929 103.381 2.5 102 2.5H69.5V4C69.5 6.48528 67.4853 8.5 65 8.5C62.5147 8.5 60.5 6.48528 60.5 4V2.5H18ZM67.5 0.5H102C104.485 0.5 106.5 2.51472 106.5 5V29C106.5 31.4853 104.485 33.5 102 33.5H18C15.5147 33.5 13.5 31.4853 13.5 29V5C13.5 2.51472 15.5147 0.5 18 0.5H62.5V4C62.5 5.38071 63.6193 6.5 65 6.5C66.3807 6.5 67.5 5.38071 67.5 4V0.5Z" fill="white"/>
<path fill-rule="evenodd" clip-rule="evenodd" d="M34 23.5C37.5899 23.5 40.5 20.5899 40.5 17C40.5 13.4101 37.5899 10.5 34 10.5C30.4101 10.5 27.5 13.4101 27.5 17C27.5 20.5899 30.4101 23.5 34 23.5ZM34 25.5C38.6944 25.5 42.5 21.6944 42.5 17C42.5 12.3056 38.6944 8.5 34 8.5C29.3056 8.5 25.5 12.3056 25.5 17C25.5 21.6944 29.3056 25.5 34 25.5Z" fill="white"/>
<path fill-rule="evenodd" clip-rule="evenodd" d="M34 18.5C34.8284 18.5 35.5 17.8284 35.5 17C35.5 16.1716 34.8284 15.5 34 15.5C33.1716 15.5 32.5 16.1716 32.5 17C32.5 17.8284 33.1716 18.5 34 18.5ZM34 20.5C35.933 20.5 37.5 18.933 37.5 17C37.5 15.067 35.933 13.5 34 13.5C32.067 13.5 30.5 15.067 30.5 17C30.5 18.933 32.067 20.5 34 20.5Z" fill="white"/>
<path fill-rule="evenodd" clip-rule="evenodd" d="M55 19.5C56.3807 19.5 57.5 18.3807 57.5 17C57.5 15.6193 56.3807 14.5 55 14.5C53.6193 14.5 52.5 15.6193 52.5 17C52.5 18.3807 53.6193 19.5 55 19.5ZM55 21.5C57.4853 21.5 59.5 19.4853 59.5 17C59.5 14.5147 57.4853 12.5 55 12.5C52.5147 12.5 50.5 14.5147 50.5 17C50.5 19.4853 52.5147 21.5 55 21.5Z" fill="white"/>
<path fill-rule="evenodd" clip-rule="evenodd" d="M66 19.5C67.3807 19.5 68.5 18.3807 68.5 17C68.5 15.6193 67.3807 14.5 66 14.5C64.6193 14.5 63.5 15.6193 63.5 17C63.5 18.3807 64.6193 19.5 66 19.5ZM66 21.5C68.4853 21.5 70.5 19.4853 70.5 17C70.5 14.5147 68.4853 12.5 66 12.5C63.5147 12.5 61.5 14.5147 61.5 17C61.5 19.4853 63.5147 21.5 66 21.5Z" fill="white"/>
<path fill-rule="evenodd" clip-rule="evenodd" d="M77 19.5C78.3807 19.5 79.5 18.3807 79.5 17C79.5 15.6193 78.3807 14.5 77 14.5C75.6193 14.5 74.5 15.6193 74.5 17C74.5 18.3807 75.6193 19.5 77 19.5ZM77 21.5C79.4853 21.5 81.5 19.4853 81.5 17C81.5 14.5147 79.4853 12.5 77 12.5C74.5147 12.5 72.5 14.5147 72.5 17C72.5 19.4853 74.5147 21.5 77 21.5Z" fill="white"/>
<path fill-rule="evenodd" clip-rule="evenodd" d="M88 19.5C89.3807 19.5 90.5 18.3807 90.5 17C90.5 15.6193 89.3807 14.5 88 14.5C86.6193 14.5 85.5 15.6193 85.5 17C85.5 18.3807 86.6193 19.5 88 19.5ZM88 21.5C90.4853 21.5 92.5 19.4853 92.5 17C92.5 14.5147 90.4853 12.5 88 12.5C85.5147 12.5 83.5 14.5147 83.5 17C83.5 19.4853 85.5147 21.5 88 21.5Z" fill="white"/>
<path fill-rule="evenodd" clip-rule="evenodd" d="M38.5 22.5L101.5 22.5L101.5 23.5L38.5 23.5L38.5 22.5Z" fill="white"/>
<path fill-rule="evenodd" clip-rule="evenodd" d="M18.5 22.5L29.5 22.5L29.5 23.5L18.5 23.5L18.5 22.5Z" fill="white"/>
<path d="M61.5 5H19.5C18.6716 5 18 5.67157 18 6.5V27.5C18 28.3284 18.6716 29 19.5 29H100.5C101.328 29 102 28.3284 102 27.5V6.5C102 5.67157 101.328 5 100.5 5H68.5V6H100.5C100.776 6 101 6.22386 101 6.5V27.5C101 27.7761 100.776 28 100.5 28H19.5C19.2239 28 19 27.7761 19 27.5V6.5C19 6.22386 19.2239 6 19.5 6H61.5V5Z" fill="white"/>
</svg>
