<svg xmlns="http://www.w3.org/2000/svg" width="712" height="248" fill="none" viewBox="0 0 712 248">
  <defs>
    <linearGradient id="mainlogo__a" x1="331.234" x2="349.288" y1="48" y2="182" class="mainlogo__a" gradientUnits="userSpaceOnUse">
      <stop stop-color="#808FFF"/>
      <stop offset=".755" stop-color="#FF0A1A"/>
    </linearGradient>
    <linearGradient id="mainlogo__b" x1="331.234" x2="349.288" y1="48" y2="182" class="mainlogo__b" gradientUnits="userSpaceOnUse">
      <stop stop-color="#808FFF"/>
      <stop offset=".755" stop-color="#FF0A1A"/>
    </linearGradient>
    <linearGradient id="mainlogo__c" x1="331.234" x2="349.288" y1="48" y2="182" class="mainlogo__c" gradientUnits="userSpaceOnUse">
      <stop stop-color="#808FFF"/>
      <stop offset=".755" stop-color="#FF0A1A"/>
    </linearGradient>
    <linearGradient id="mainlogo__d" x1="331.234" x2="349.288" y1="48" y2="182" class="mainlogo__d" gradientUnits="userSpaceOnUse">
      <stop stop-color="#808FFF"/>
      <stop offset=".755" stop-color="#FF0A1A"/>
    </linearGradient>
    <linearGradient id="mainlogo__e" x1="331.234" x2="349.288" y1="48" y2="182" class="mainlogo__e" gradientUnits="userSpaceOnUse">
      <stop stop-color="#808FFF"/>
      <stop offset=".755" stop-color="#FF0A1A"/>
    </linearGradient>
    <linearGradient id="mainlogo__f" x1="296.234" x2="317.234" y1="53" y2="159" class="mainlogo__f" gradientUnits="userSpaceOnUse">
      <stop stop-color="#950700"/>
      <stop offset="1" stop-color="#F6C08F"/>
    </linearGradient>
  </defs>
  <g class="mainlogo__mainlogo">
    <g class="mainlogo__Union">
      <path fill="#510400" fill-rule="evenodd" d="M120.496 86.93c7.529-1.057 14.431-1.899 20.706-1.006l13.09 13.09-13.096-13.097c8.657 1.215 15.9 4.745 21.214 10.056l12.958 12.958.143.14c2.883 2.882 5.196 6.29 6.861 10.136 1.985 4.582 3.05 9.786 3.053 15.472l.012.012c-.001 17.743-9.414 33.134-25.228 41.947l-.006-.006-.005.002.003.003c-8.911 4.928-17.697 6.67-26.608 7.922l-.003-.002h-.001l.004.004-31 4.358v.002l-.109-.109c-2.935.338-5.923.703-8.746 1.1l-.002-.002c-5.52.776-11.543 1.75-17.564 2.723l-.004-.004-.005.001v-.007l-11.325-11.326-16.405 2.308-1.882 5.705.005.005c-.126.271-.377 1.193-.377 1.573l-.012-.012v.003l.012.012.002.277 2.76 2.759v2.535l-.012-.011v.006h-.006l.006.006c-6.652.808-12.803 1.546-18.2 2.305l-.002-.003c-3.136.441-6.772.953-10.534 1.735l-.004-.005-.001.001v-.003L7.094 187.399v-2.535.001c2.51-3.014 3.765-6.358 5.397-9.882l10.028 10.027.01-.001-10.03-10.029 37.398-83.068-.006-.006 2.762-.387 13.1 13.099 29.608 60.678c.652-3.535.654-8.027.654-13.201l13.099 13.098v-.01l-13.092-13.092v-38.909l13.092 13.091v-.008l-13.089-13.087c0-5.416-.001-10.159-.775-13.595l-5.757-5.758V91.29l13.095 13.096v-.006L89.493 91.285l31-4.357.003.003Zm11.993 70.133 7.241 7.242.009-.001.003-.001-7.254-7.255.001.015Zm-72.678-5.513 11.697 11.696.012-.001-.001-.002-11.703-11.703-.005.01Zm85.109-34.092c-2.281-.158-4.776.026-7.552.416l-.004-.005-.001.001.002.002c-1.506.212-3.389.604-4.895.942l-.003-.003-.006.001.009.009v30.967c10.518-3.774 16.012-13.262 16.012-24.845l13.093 13.091v-.007l-13.082-13.081c0-2.38-.417-4.833-1.184-7.176-.108-.022-.218-.041-.327-.061a19.658 19.658 0 0 0-2.062-.251Z" clip-rule="evenodd"/>
      <path fill="#510400" fill-rule="evenodd" d="M702.316 20.094h.002v.002l.004.004v22.935l.003.003h-.003v.002l-.002-.002-2.506.354-.005-.006-.001.001-.003-.005-.015-.015.013.025-3.347-3.347c-1.13-.411-2.577-.505-4.54-.229l-.01-.01-.005.001.003.003-1.18.165 6.444 6.444h.004l-.001.003.004.004c-.126 3.44-.252 7.26-.252 10.809 0 3.54.088 8.519.192 14.64l7.476 7.475-2.385 25.304-.013-.013v.006l-57.023 8.013.005.006c-3.937 1.438-7.661 1.965-11.499 2.504l-.003-.003c-5.356.753-8.9.779-11.68-.235-1.531-.557-2.831-1.427-4.071-2.668-.047-.046-.092-.094-.138-.141L604.831 99.17c-1.47-1.47-2.859-3.456-4.458-6.046l8.812 8.811.009.003-8.821-8.82-8.245-13.456v17.641c0 5.724.082 10.255.802 13.489l5.858 5.859-.009-.001v2.525l.013.012c-5.773.685-11.923 1.423-18.073 2.288l-.003-.004c-5.771.811-12.044 1.82-18.316 2.828l-.005-.006-.012.003v-.014l-11.118-11.118a39.274 39.274 0 0 1-1.083 1.689l.008.008c-6.024 8.705-17.697 15.796-31.377 17.719l-.006-.007.001.003a50.57 50.57 0 0 1-7.509.501l-.059-.001a51.493 51.493 0 0 1-1.301-.033 44.828 44.828 0 0 1-3.541-.279 41.48 41.48 0 0 1-2.579-.394c-7.074-1.318-12.845-4.401-16.518-8.675a.697.697 0 0 0-.024-.028l-.014-.015.042.05-10.93-10.93a21.287 21.287 0 0 1-2.118-2.119l-.052-.052c-6.652-7.81-6.15-16.372-6.15-27.905l-.001-.002V72.78c-2.541-.293-5.858.08-10.053.67l-.007-.007-.008.001h-.001l.008.009-4.267.6v42.709c0 5.566.083 10.096.825 13.368l5.957 5.957v2.535l-.011-.011.012.012c-6.15.738-12.426 1.493-18.45 2.34l-.007-.006c-5.671.797-11.706 1.768-17.867 2.758l-.329.052v.004l-.006-.005h-.001v-.002l-13.093-13.094v-2.534l.002.002c6.524-2.059 6.523-9.663 6.523-21.194l13.094 13.092.001-.004-13.091-13.091V79.677c-3.217 1.048-5.39 2.625-6.614 5.486h-.006l.003.002-2.385.336v.005l-4.136-4.136a552.352 552.352 0 0 0-.009 3.452v63.619l-.022-.023v.022h-.002l.001.001-3.39.477-.013-.013-51.813-38.452v21.034l-.007-.007v.007l-.001.006.003.002c0 1.775-.126 4.074-.126 5.722 0 3.198.13 6.122.765 8.449l5.275 5.275-.011-.002v2.528l.008.007c-5.523.649-11.171 1.316-16.443 2.057l.001.001c-5.898.829-11.672 1.768-17.32 2.688l-.006-.006a.014.014 0 0 0-.006.002v-.009l-1.472-1.471-.16 1.706.01.01-60.996 8.573-.009-.008v-.001l-13.091-13.091.007-.002-.007-.007v-2.661l.004.004c6.27-2.025 6.396-10.402 6.396-21.169l-.002-.002v-23.72l-30.827 68.207.005.004-3.39.477-.012-.012.004.008-13.1-13.1-35.267-68.933 13.1 13.099 26.855 52.493.002-.004-26.856-52.491-.001-.003-13.096-13.096c-.967-1.867-1.73-3.422-2.503-4.733l-4.653-4.653.003.002-.003-.004v-2.534c5.145-.597 10.543-1.227 15.814-1.968l13.098 13.098h.002l.008-.002-13.096-13.097c5.277-.741 11.035-1.672 16.92-2.623l.384-.062v-.002l.002.002.014-.002 13.099 13.1-.011.001v2.532l-.004.001.006.006c-1.883.898-3.013 2.197-3.013 4.351 0 .149.079.461.218.898.335 1.053 1.029 2.821 1.913 4.751l.007.007 3.259 7.546 9.245-23.358-.003-.003c1.255-3.218 2.134-6.383 2.134-6.89l6.58 6.58-6.575-6.576c0-.476-.019-.886-.06-1.242l-2.571-2.572v-2.534h.001c6.77-.824 12.914-1.56 17.681-2.23l-.001-.001c2.704-.38 5.502-.823 8.279-1.28l13.094 13.094h.008v-.008l-13.091-13.09v-.138l61.122-8.59.001.002v-.002l7.899 7.898V57.66l13.097 13.097v-.005l-13.097-13.098 3.137-.44 13.101 13.1h-.003l52.084 39.065v-.007L330.58 70.314l-13.1-13.1 52.085 39.067 13.089 13.088-13.087-13.087V74.741l-.001-.001c0-6.613.036-11.395-.907-14.605l-4.867-4.866h.002l-.002-.002v-2.535l13.097 13.097h.002l-13.099-13.1c5.899-.703 11.421-1.352 16.19-2.022l.003.003c5.391-.758 11.283-1.712 17.175-2.666l.009.009v-.01l.359.36.04-.414 62.878-8.837.006.007v-.007l1.08 1.08v-1.235l.004.004c8.282-1.037 15.309-1.898 20.704-2.657l9.502 9.502v-.005l-9.5-9.501c4.525-.636 9.646-1.476 14.898-2.337l.414-.068 13.1 13.1v2.536l-.004-.004c-6.274 1.897-6.149 9.484-6.149 21.143v19.897l-.005-.006v.007l.007.007c0 3.912-.077 7.325.058 10.233.378-.028.761-.067 1.149-.122l13.091 13.092h.002l.005-.001-13.095-13.094c5.521-.776 10.163-4.09 12.297-8.317 2.259-4.374 1.883-10.404 1.883-18.895l13.092 13.092v-.005l-13.09-13.09V53.609l-.004-.004c0-5.819.03-10.592-.694-13.949l-5.455-5.455v-2.534l13.094 13.093v-.003l.002-.001-13.096-13.096c5.397-.632 10.668-1.246 15.312-1.899 4.807-.675 11.671-1.762 20.237-3.09l13.092 13.092v-.003h.006l-13.088-13.09v-.007l13.095 13.095h.003l-13.098-13.1 31.752-4.462.002.002c8.747-1.23 15.847-1.988 21.186-1.226l.511.079c5.509.907 9.995 3.07 13.241 6.315l.138.138-.129-.133 13.094 13.095c2.699 2.697 4.539 6.142 5.401 10.232V37.504l13.099 13.1v38.77l.001.002V50.6l-13.098-13.1c0-5.438.062-10.222-.702-13.677l-5.699-5.699V15.59L689.22 7l.002.002V7l13.094 13.094ZM301.993 125.916c-.615.086-1.253.181-1.913.274l-.01-.009h-.001l.006.006-11.923 1.676-.003-.003v.002l.003.003v1.783l3.088-.433.007.007c4.987-.701 8.401-1.758 10.746-3.306Zm12.342-24.363c-.108 3.077-.205 6.38-.205 9.476 0 3.541.09 8.522.194 14.647l.01.01c.012-1.362.01-2.787.01-4.268l-.009-.009v-19.856Zm-26.183-4.972 11.419 11.42.004-.001-11.423-11.424v.005Zm-31.752-.588 8.405 8.405v-.008l-8.402-8.402-.003.005Zm57.283-2.14c-1.135-.42-2.592-.518-4.574-.24l-.003-.002-1.156.162 6.385 6.384v-5.65l-.652-.653Zm320.814-32.26c-1.401 6.293-5.416 11.664-12.234 16.014l10.276 15.876c1.905-3.879 1.964-10 1.964-17.19l-.006-.006V61.593Zm36.448 21.906 6.39 6.39h.004l-6.394-6.396v.006Zm13.818-11.379c-.61.086-1.243.18-1.898.273l-.006-.006-11.914 1.675v1.788l3.088-.433 13.096 13.096h.003l-13.099-13.099c4.976-.699 8.385-1.753 10.73-3.294ZM408.525 83.022l.003.003v-.003l-.003-.002v.002Zm189.31-31.12a58.2 58.2 0 0 0-1.05.14l-.006-.006-.008.002h-.003.001l-4.641.653v5.954a14.996 14.996 0 0 0 2.461-1.851l13.1 13.1c-2.955 2.777-7.601 4.45-11.45 4.79 3.849-.34 8.496-2.012 11.451-4.79l.007-.007-13.092-13.091c1.694-1.62 2.676-3.209 3.23-4.893Zm-119.544 4.162c2.787 2.787 2.859 9.414 2.859 17.926l-5.926-5.925 5.927 5.928v-.003c0-8.511-.072-15.135-2.856-17.923l-.004-.003Zm-67.623 5.025-.405 4.142h.002l.405-4.143h-.003l.001.001Zm146.786-12.776 11.329 11.33v-.007l-11.327-11.328-.002.005Zm113.491 7.493 11.418-1.603h.001l-.001-.002-11.418 1.605Zm-26.059-23.123c.659.66 1.158 1.528 1.536 2.574-.379-1.048-.877-1.918-1.537-2.578l-.058-.055.059.06Z" clip-rule="evenodd"/>
    </g>
    <path fill="#000" d="M702.318 20.094h-.002L689.222 6.998V7l-.002-.002-61.121 8.59v2.535l5.699 5.699c.763 3.454.701 8.239.701 13.677l13.099 13.098v38.777l-.001-.001V50.602l-13.1-13.1v13.195c-.861-4.09-2.702-7.536-5.4-10.233L616.002 27.37l.129.133-.138-.138c-3.246-3.245-7.732-5.409-13.241-6.316l-.511-.079c-5.339-.761-12.439-.003-21.185 1.226l-.002-.002-31.753 4.463 13.098 13.1h-.003l-13.095-13.095v.008l13.089 13.088h-.007v.003L549.291 26.67c-8.565 1.329-15.431 2.415-20.237 3.09-4.644.653-9.915 1.267-15.312 1.899l13.096 13.096-.002.002v.002l-13.094-13.092V34.2l5.455 5.455c.724 3.357.694 8.13.694 13.95l.004.003v19.898l13.09 13.091v.004l-13.092-13.09c0 8.49.376 14.52-1.882 18.893-2.135 4.227-6.777 7.541-12.298 8.317l13.095 13.094-.005.001h-.002l-13.091-13.091a17.3 17.3 0 0 1-1.148.122c-.135-2.908-.059-6.322-.059-10.234l-.007-.007V90.6l.005.005V70.71c0-11.659-.125-19.246 6.148-21.143l.004.004v-2.536l-13.099-13.1-.414.068-3.908.64c-3.867.629-7.596 1.22-10.99 1.697l9.5 9.5v.006l-9.502-9.502c-5.395.759-12.423 1.62-20.704 2.657l-.004-.004v1.235l-1.08-1.08v.007l-.007-.007-62.878 8.836h.001l-.041.414-.358-.358v.008l-.009-.008c-5.891.954-11.783 1.908-17.175 2.666l-.003-.003c-4.769.67-10.291 1.319-16.19 2.021l13.099 13.1h-.002l-13.097-13.096v2.534l.002.002h-.002l4.867 4.867c.943 3.21.906 7.992.906 14.604h.002v21.543l13.086 13.087-13.089-13.09-52.084-39.066 13.1 13.1 52.073 39.059v.007l-52.084-39.066h.003l-13.1-13.1-3.137.44 13.097 13.099v.004L314.335 57.66v11.03l-7.898-7.898v.002l-.002-.002-61.123 8.59v.137l13.091 13.09v.008h-.007l-13.094-13.094c-2.777.457-5.576.9-8.28 1.28l.001.001c-4.766.67-10.91 1.407-17.68 2.232l-.001-.001v2.534l2.571 2.571a11 11 0 0 1 .06 1.243l-.005-.005c0 .507-.879 3.673-2.134 6.891l.003.003-9.244 23.357-3.261-7.545-.006-.007c-.884-1.93-1.578-3.699-1.913-4.751-.139-.437-.219-.75-.219-.899.001-2.153 1.131-3.453 3.013-4.351l-.005-.005.004-.001v-2.532l.012-.001-13.1-13.1-.014.001-.001-.002v.002l-.384.063-4.385.707c-4.35.697-8.578 1.36-12.536 1.916l13.096 13.097-.008.002h-.002l-13.098-13.098c-5.271.74-10.669 1.37-15.814 1.967v2.534l.004.004c-.002 0-.003 0-.004-.002l4.653 4.654c.773 1.31 1.537 2.866 2.504 4.732l13.095 13.097.002.003 26.855 52.491-.002.003-26.855-52.492-13.1-13.1 35.268 68.934 13.099 13.099-.005-.007.013.012 3.39-.477-.005-.005 30.828-68.207v23.721l.001.001-.003 1.99c-.037 9.8-.515 17.281-6.393 19.179l-.005-.003v2.661l.008.006-.008.002 13.091 13.091v.002l.001-.001.008.008 60.997-8.572-.01-.01.16-1.707 1.472 1.472v.008a.014.014 0 0 0 .006-.002l.007.007c5.647-.92 11.421-1.859 17.319-2.688l-.001-.001c5.272-.741 10.92-1.408 16.443-2.058l-.008-.007v-2.528l.012.003-5.276-5.275c-.635-2.328-.764-5.251-.764-8.45 0-1.647.126-3.947.126-5.721l-.003-.002.001-.006v-.007l.005.007v-21.034l51.815 38.452.013.013 3.388-.477.001-.001v-.022l.024.023V84.82c0-1.185.001-2.338.008-3.451l4.136 4.135v-.003l2.385-.337-.003-.002h.006c1.224-2.861 3.397-4.439 6.614-5.487v27.264l13.091 13.09-.001.005-13.094-13.093c0 11.532.001 19.135-6.523 21.194l-.002-.002v2.535l13.094 13.093v.003l.001-.001.004.005v-.003l.331-.053c6.16-.99 12.195-1.96 17.867-2.757l.006.006c6.024-.847 12.3-1.603 18.45-2.34l-.001-.001v-2.535l-5.957-5.957c-.649-2.863-.794-6.69-.821-11.331l-.004-2.038V74.05l4.267-.6-.009-.008h.002l.008-.002.007.008c4.195-.59 7.512-.963 10.053-.67v9.915l.002.002-.009 4.19c-.005 9.471.338 16.881 6.158 23.715l.052.052c.644.743 1.351 1.45 2.118 2.118l10.93 10.931-.042-.05.014.015.024.027c3.672 4.274 9.444 7.358 16.518 8.675a40.04 40.04 0 0 0 2.989.441 44.763 44.763 0 0 0 4.431.266l.061.001a50.587 50.587 0 0 0 7.509-.501l-.002-.003.006.007c13.68-1.923 25.353-9.015 31.377-17.719l-.008-.008c.385-.568.745-1.131 1.084-1.689l11.117 11.117v.015l.012-.003.005.005c6.272-1.008 12.545-2.017 18.316-2.828l.003.004c6.149-.864 12.3-1.602 18.073-2.287l-.013-.013v-2.524l.009.001-5.857-5.859c-.631-2.83-.773-6.653-.798-11.399l-.005-2.09V79.66l8.245 13.455 8.821 8.821-.009-.003-8.812-8.811c1.598 2.59 2.988 4.576 4.458 6.045l12.953 12.954.138.141c1.241 1.241 2.54 2.11 4.071 2.667 2.78 1.014 6.324.988 11.681.236l.002.003c3.838-.54 7.562-1.066 11.5-2.504l-.006-.006 57.023-8.013v-.007l.013.013 2.385-25.303-7.476-7.475c-.077-4.59-.147-8.54-.177-11.72l-.015-2.92c0-3.549.126-7.37.252-10.81l-.004-.002.001-.004h-.004l-6.444-6.445 1.18-.165-.003-.002h.004l.011.009c1.963-.276 3.41-.182 4.54.229l3.348 3.346a.304.304 0 0 1-.014-.024l.016.015.002.004h.001l.005.005 2.505-.353.002.002v-.002h.004l-.004-.003V20.098l-.003-.004ZM141.201 85.922c-6.274-.892-13.176-.05-20.705 1.007l-.003-.003-31 4.358 13.095 13.095v.005L89.493 91.289v2.535l5.757 5.758c.773 3.436.775 8.179.775 13.595l13.088 13.087v.008L96.022 113.18v38.909l13.092 13.093v.002l-.001.008-13.098-13.098c0 5.174-.003 9.666-.655 13.201l-29.607-60.678-13.1-13.1-2.761.388.005.006L12.5 174.979l10.028 10.029-.01.001-10.028-10.027c-1.63 3.524-2.886 6.867-5.395 9.881l-.001-.001v2.536l13.095 13.094v.002l.004.005c3.762-.782 7.399-1.295 10.534-1.736l.003.003c5.396-.758 11.547-1.496 18.199-2.304l-.006-.006h.006v-.007l.011.013v-2.537l-2.76-2.758-.001-.278-.012-.011v-.003l.012.011c0-.38.251-1.301.377-1.573l-.004-.004 1.88-5.705 16.406-2.308 11.325 11.326v.007l.006-.001.003.003c6.021-.972 12.043-1.946 17.563-2.722l.002.002a358.44 358.44 0 0 1 8.747-1.101l.109.11v-.002l31-4.358-.004-.004.001-.001.003.003c8.911-1.252 17.697-2.995 26.608-7.923l-.003-.002c.002 0 .003-.002.004-.003l.007.006c15.813-8.813 25.227-24.203 25.228-41.946l-.012-.012c-.002-5.686-1.068-10.891-3.053-15.472-1.666-3.847-3.978-7.254-6.861-10.136l-.144-.141-12.957-12.957c-5.314-5.312-12.557-8.841-21.214-10.056l13.096 13.097-13.091-13.09ZM77.304 199.535l-.016.002c.008-.002.014-.001.02-.002l.005-.002-.01.002Zm.024-.004h.002l.002-.001-.004.001Zm245.56-34.568a6.629 6.629 0 0 1-.206.053l.007-.001a6.321 6.321 0 0 0 .319-.086c-.037.011-.077.023-.12.034Zm-183.146-.662-.004.001-.009.001-7.241-7.242-.001-.015 7.255 7.255Zm-68.223-1.059v.002l-.011.001-11.696-11.697.004-.009 11.703 11.703Zm281.364-5.572a.164.164 0 0 0 .011.003c.014.005.034.01.057.016l.033.009-.025-.007-.061-.017-.015-.004Zm-215.515-39.797c2.776-.39 5.271-.574 7.552-.416a19.09 19.09 0 0 1 2.39.311c.766 2.343 1.183 4.796 1.183 7.176l13.082 13.082v.007l-13.093-13.091c0 11.583-5.494 21.07-16.012 24.845V118.82l-.009-.009.006-.001.003.003c1.506-.338 3.388-.731 4.894-.942l-.001-.002.005.004Zm104.488 27.294a6.835 6.835 0 0 1 1.39-.601c.009-.008.016-.02.039-.052.14-.194.458-.766.746-2.071.198-.895.336-1.908.437-3.056l-2.612 5.78Zm114.459-1.063.139.032.045.011-.043-.011a5.614 5.614 0 0 0-.141-.032Zm-214.833-19.639c-.624.043-1.292.106-2.012.193v10.132c1.314-2.764 2.012-6.069 2.012-9.848 0-.089.002-.179.005-.268-.001-.069-.002-.139-.005-.209Zm422.702 6.594-.002.001-.009.002-.031.008-.048.013.051-.013a.373.373 0 0 0 .03-.008l.007-.002.002-.001Zm-262.192-5.144c-2.345 1.548-5.758 2.604-10.745 3.305l-.007-.007-3.088.433v-1.782l-.003-.003v-.002l.003.003 11.923-1.676-.007-.007h.002l.009.01c.66-.093 1.298-.188 1.913-.274Zm-168.708-.153.011-.001a.4.4 0 0 0-.011.001Zm181.051-4.354.009.009c0 1.48.002 2.905-.01 4.267l-.01-.01c-.104-6.124-.194-11.105-.194-14.646 0-3.096.097-6.4.205-9.477v19.857Zm283.885 2.219h.003a6.838 6.838 0 0 1-.097-.009l.094.009Zm-.298-.031.034.003-.03-.003-.015-.002a.036.036 0 0 0 .011.002Zm1.608-13.907.066.008a1.175 1.175 0 0 1 .083.01h.002l-.01-.001a1.175 1.175 0 0 0-.075-.009l-.066-.008Zm7.695-1.035-.027-.008-.093-.028-.099-.032.111.036.089.027.019.005Zm-307.65-.655-.004.001-11.419-11.42v-.005l11.423 11.424Zm-34.77-3.61v.008l-8.406-8.405.003-.005 8.403 8.402Zm44.303-10.776c1.983-.279 3.439-.182 4.575.24l.652.651v5.652l-6.385-6.384 1.155-.162.003.003Zm325.389-17.327.006.006c0 7.189-.059 13.311-1.964 17.189l-10.276-15.875c6.817-4.35 10.834-9.721 12.234-16.015v14.695Zm42.843 13.601-.005.001-6.391-6.39v-.006l6.396 6.395Zm7.424-17.768c-2.345 1.54-5.755 2.594-10.731 3.294l13.099 13.1h-.002l-13.097-13.097-3.089.433v-1.788l11.915-1.675.006.005c.655-.092 1.288-.186 1.899-.272ZM408.527 83.02v.003l-.002-.003v-.003l.002.003Zm-243.44-5.66.013.007.028.013-.041-.02ZM597.835 51.9c-.554 1.685-1.536 3.274-3.23 4.893l13.091 13.092-.006.006c-2.031 1.91-4.862 3.297-7.684 4.088 2.821-.79 5.651-2.178 7.682-4.088l-13.099-13.1a14.996 14.996 0 0 1-2.461 1.852V52.69l4.642-.652-.001-.001h.002l.008-.001.005.005c.355-.05.706-.097 1.051-.139Zm-119.54 4.164c2.784 2.788 2.856 9.413 2.856 17.923v.004l-5.927-5.929 5.925 5.926c0-8.513-.071-15.14-2.858-17.927l.004.003Zm-67.625 5.022-.405 4.142-.001.001.404-4.143h-.001.003Zm158.112-1.452.001.004v.002l-11.329-11.33.001-.004 11.327 11.328ZM682.364 54.2h-.001l-11.419 1.604 11.419-1.605h.001Zm-37.478-21.523c.577.578 1.031 1.315 1.388 2.193-.357-.876-.811-1.612-1.387-2.189l-.06-.06c.019.02.04.037.059.056ZM511.501 89.71c.095-.154.183-.307.261-.46l.029-.058c.467-.904.854-2.359 1.021-5.113.171-2.834.081-6.042.081-10.569l.002-.128V56.2a7.397 7.397 0 0 1-.291.092c-.092.154-.317.607-.53 1.62-.566 2.703-.573 6.617-.573 12.797v19Zm197.82-46.885a6.983 6.983 0 0 1-2.149 5.26l-.039.038c-.169.159-.344.31-.528.452-.025.02-.052.039-.078.058a7.118 7.118 0 0 1-.143.106l-.057.04a5.572 5.572 0 0 1-.118.08c-.044.03-.089.057-.134.086l-.126.079-.042.025a5.255 5.255 0 0 1-.171.099l-.091.05-.127.067-.119.059a4.928 4.928 0 0 1-.103.05l-.132.06-.121.052-.043.02-.066.025-.124.049-.122.045-.12.042a6.262 6.262 0 0 1-.157.05l-.061.02a7.342 7.342 0 0 1-.171.05l-.083.021-.034.009c-.079 2.49-.139 5.027-.139 7.417 0 2.916.063 6.85.144 11.692l5.473 5.473a7.002 7.002 0 0 1 2.02 5.606l-2.385 25.304a7.002 7.002 0 0 1-6.329 6.314l-55.976 7.865c-4.462 1.537-8.635 2.108-12.22 2.612-.034.005-.069.008-.104.012-5.424.757-10.445 1.036-14.946-.605-2.625-.954-4.771-2.438-6.627-4.294-.058-.057-.107-.108-.139-.141l-12.953-12.953a22.83 22.83 0 0 1-.678-.71c.051 1.582.133 2.906.262 4.017l4.273 4.275a6.997 6.997 0 0 1 2.041 5.28v1.794a6.998 6.998 0 0 1-6.163 7.362c-5.774.685-11.856 1.415-17.923 2.268-.043.006-.086.008-.13.014-5.654.796-11.811 1.786-18.052 2.79a7.013 7.013 0 0 1-1.501.075l-.051-.003a6.795 6.795 0 0 1-.629-.069 5.608 5.608 0 0 1-.22-.037l-.131-.025a7.712 7.712 0 0 1-.301-.069l-.065-.017a7 7 0 0 1-2.77-1.441 7.07 7.07 0 0 1-.644-.627l-5.26-5.26c-7.717 8.078-19.316 13.97-32.152 15.774-.071.01-.142.015-.213.023-2.484.34-4.923.52-7.3.543h-1.042l-.056-.001-.03-.001h.017c-.408-.005-.81-.013-1.203-.027l-.293-.01a51.92 51.92 0 0 1-4.107-.325 48.834 48.834 0 0 1-3.023-.462c-8.13-1.514-15.372-5.132-20.307-10.724l-10.657-10.658a28.432 28.432 0 0 1-2.464-2.47 7.194 7.194 0 0 1-.233-.26c-8.643-10.149-7.823-21.705-7.82-32.385l-.002-.06v-2.592l-.328.041v36.617c0 4.455.071 7.672.349 9.993l4.383 4.383a6.999 6.999 0 0 1 2.05 4.95v2.399a6.995 6.995 0 0 1-2.434 5.442 6.993 6.993 0 0 1-3.546 1.62l-.039.004c-.048.007-.097.015-.146.021-6.16.739-12.367 1.486-18.31 2.321-.074.011-.148.017-.222.025-5.528.78-11.418 1.727-17.514 2.707l-.01.002-.136.02a6.996 6.996 0 0 1-5.112-1.01l-.072-.048a3.24 3.24 0 0 1-.121-.083 3.811 3.811 0 0 1-.103-.073l-.079-.057a6.445 6.445 0 0 1-.192-.15 6.938 6.938 0 0 1-.659-.599l-7.674-7.676v7.49a7 7 0 0 1-6.23 6.956l-3.21.452a6.996 6.996 0 0 1-5.158-1.324l-40.643-30.161v7.123c0 .1-.002.2-.006.299a115.62 115.62 0 0 1-.064 2.837 88.597 88.597 0 0 0-.059 2.593c0 2.131.071 3.764.224 5.01l3.765 3.765a7 7 0 0 1 2.039 5.331v1.824a6.999 6.999 0 0 1-6.175 7.279c-5.517.649-11.068 1.305-16.233 2.03l-.051.008c-5.811.817-11.512 1.744-17.168 2.666a6.93 6.93 0 0 1-.961.085c-.27.072-.545.13-.825.169l-60.997 8.574c-1.427.2-2.86-.05-4.116-.681l-.048-.023a7.732 7.732 0 0 1-.445-.248l-.105-.066a7.113 7.113 0 0 1-.232-.152l-.066-.045a7.59 7.59 0 0 1-.271-.201l-.068-.055a7.14 7.14 0 0 1-.669-.607l-13.004-13.004a6.996 6.996 0 0 1-1.63-2.572l-.017-.048a8.124 8.124 0 0 1-.125-.391 7.064 7.064 0 0 1-.174-.759c-.012-.071-.025-.143-.035-.215-.009-.063-.016-.127-.024-.191a7.201 7.201 0 0 1-.023-.253c-.004-.055-.01-.109-.013-.164l-.002-.047a7.669 7.669 0 0 1-.008-.339v-.888l-10.941 24.208a6.997 6.997 0 0 1-5.506 4.294l-3.389.478a6.993 6.993 0 0 1-2.642-.136l-.06-.014c-.078-.021-.157-.042-.235-.065-.04-.011-.079-.024-.119-.036-.066-.021-.132-.04-.197-.063a6.799 6.799 0 0 1-.654-.261l-.1-.048a7.184 7.184 0 0 1-.248-.125l-.077-.041a7.01 7.01 0 0 1-1.603-1.197l-13.1-13.1a7.02 7.02 0 0 1-1.282-1.762l-7.83-15.304c-3.979 13.86-13.414 25.505-26.713 32.917a6.377 6.377 0 0 1-.296.154c-9.911 5.419-19.586 7.29-28.622 8.564-.043.007-.087.016-.131.022l-30.891 4.342a7.031 7.031 0 0 1-1.566.068c-2.517.295-5.026.607-7.398.94-.023.004-.046.004-.068.007-5.418.763-11.34 1.721-17.355 2.693a7.04 7.04 0 0 1-1.517.075l-.016-.001a6.184 6.184 0 0 1-.422-.038c-.08-.01-.159-.02-.237-.032a10.474 10.474 0 0 1-.376-.07 7.49 7.49 0 0 1-.386-.093c-.072-.019-.142-.041-.213-.062l-.141-.043a6.78 6.78 0 0 1-.277-.099c-.03-.011-.06-.02-.09-.032a6.99 6.99 0 0 1-2.568-1.743l-8.69-8.691-7.76 1.092a7 7 0 0 1 1.344 4.12v2.537a7 7 0 0 1-6.266 6.96c-6.642.807-12.68 1.532-17.97 2.276l-.081.009c-3.134.44-6.527.922-10.005 1.645-.77.16-1.55.184-2.308.087-.036-.004-.07-.01-.106-.015a6.598 6.598 0 0 1-.395-.068l-.07-.014a7.024 7.024 0 0 1-.67-.177l-.16-.054a8.4 8.4 0 0 1-.221-.08l-.18-.069c-.019-.009-.037-.018-.057-.026-.041-.018-.083-.035-.124-.054a6.853 6.853 0 0 1-.314-.149l-.055-.029a7.735 7.735 0 0 1-.3-.165l-.058-.035a6.953 6.953 0 0 1-1.45-1.15L2.144 192.347a7 7 0 0 1-2.05-4.949v-2.536c0-1.686.605-3.273 1.647-4.51 1.732-2.092 2.5-4.214 4.397-8.311l.074-.149 37.183-82.593a6.999 6.999 0 0 1 5.523-4.326l2.762-.388.408-.044a7 7 0 0 1 5.514 2.027l13.1 13.1.201.208a7.012 7.012 0 0 1 1.14 1.671l16.978 34.793v-23.16c0-.062.003-.125.004-.187 0-4.393-.031-7.65-.307-10.044l-4.175-4.176a7 7 0 0 1-2.05-4.95v-2.6a7 7 0 0 1 6.025-6.87l31.001-4.358c.039-.006.08-.01.12-.014 7.249-1.018 14.943-2.005 22.209-1.035.107.01.214.023.321.038 4.568.641 8.863 1.854 12.803 3.602v-1.493a7 7 0 0 1 6.194-6.953c5.154-.597 10.471-1.219 15.646-1.946l.02-.003c5.188-.73 10.865-1.646 16.762-2.599l.282-.046a6.984 6.984 0 0 1 1.436-.105c.073.002.146.007.218.01l.191.013c.068.006.135.014.203.022l.105.014a6.997 6.997 0 0 1 4.038 1.988l12.962 12.962.241-.606.042-.117a53.934 53.934 0 0 0 1.118-3.17l-.038-.038a6.998 6.998 0 0 1-2.05-4.95v-2.533a7 7 0 0 1 6.192-6.953c6.769-.825 12.794-1.547 17.464-2.203l.051-.007c2.206-.31 4.49-.667 6.798-1.041a7.008 7.008 0 0 1 1.492-.381l61.121-8.59.018-.003c.117-.016.234-.029.351-.04l.093-.006a7 7 0 0 1 .724-.017l.069.003a7.017 7.017 0 0 1 .741.07l.04.006c.122.018.244.04.365.066l.047.01c.116.025.232.052.347.083l.022.007.054.014a7.001 7.001 0 0 1 5.031-3.333l3.137-.44.119-.014c.069-.008.138-.016.207-.022.048-.005.096-.01.144-.013a7.18 7.18 0 0 1 .262-.014l.114-.004c.255-.005.51.005.764.028l.036.003a6.975 6.975 0 0 1 3.536 1.368l40.886 30.667v-7.467l-.002-.075c0-3.38.008-6.037-.092-8.264a32.569 32.569 0 0 0-.235-2.861l-3.396-3.397a6.92 6.92 0 0 1-.872-1.064l-.019-.03a6.985 6.985 0 0 1-1.078-2.796l-.013-.095a10.557 10.557 0 0 1-.031-.252l-.005-.048a7.177 7.177 0 0 1-.031-.64l-.001-.026v-2.534l.001-.07.004-.18.002-.057c.003-.062.006-.125.011-.188l.004-.067.019-.192.005-.054.023-.178.011-.078a7 7 0 0 1 6.093-5.89c5.93-.707 11.365-1.346 16.043-2.003l.077-.009c5.285-.744 11.076-1.68 16.955-2.633l.106-.014c.073-.011.146-.02.219-.029l.068-.008c.053-.01.107-.018.161-.026l62.878-8.836.031-.004a7.09 7.09 0 0 1 .354-.039l.053-.004.087-.006a6.85 6.85 0 0 1 .917-.143c8.126-1.017 14.931-1.854 20.183-2.59.056-.01.113-.018.171-.026 4.429-.623 9.466-1.448 14.738-2.313l.414-.068a7 7 0 0 1 6.084 1.958l4.238 4.238v-1.556l.001-.059.002-.146a4.34 4.34 0 0 1 .005-.115l.008-.143.008-.11c.005-.07.012-.142.02-.212l.004-.032.025-.2.008-.048a7.002 7.002 0 0 1 6.106-5.895c5.421-.635 10.604-1.24 15.151-1.878 4.675-.657 11.334-1.71 19.777-3.02.155-.033.311-.06.469-.083l31.753-4.463.082-.01c8.539-1.198 16.603-2.134 23.068-1.211l.08.011.58.09c6.607 1.088 12.473 3.757 16.924 8.147.047.043.094.086.139.131l6.429 6.43a34.105 34.105 0 0 0-.133-1.677l-4.1-4.1a7.003 7.003 0 0 1-2.049-4.95V15.59a6.999 6.999 0 0 1 6.025-6.931L688.246.067l.013-.001c.119-.017.239-.03.358-.04l.088-.007a6.9 6.9 0 0 1 .704-.016l.102.002c.118.005.235.013.352.024.01 0 .019.002.029.003.106.01.213.024.319.039l.094.014a7 7 0 0 1 .735.155l.022.007c.115.03.228.064.34.101l.07.024a7 7 0 0 1 .701.28l.022.012c.116.054.232.11.345.172l.016.01c.584.316 1.13.717 1.616 1.202l13.046 13.047c.336.33.64.693.904 1.084l.024.035.041.065a6.944 6.944 0 0 1 .592 1.119l.052.13c.024.062.049.124.071.186.02.055.038.111.057.167.017.05.035.102.051.154.019.061.035.123.052.185l.04.142a7 7 0 0 1 .219 1.736v22.727Z" class="mainlogo__Union mainlogo__(Stroke)"/>
    <g class="mainlogo__Union">
      <path fill="url(#mainlogo__a)" fill-rule="evenodd" d="M120.494 86.93c7.53-1.059 14.433-1.901 20.708-1.01 18.952 2.66 31.126 16.412 31.126 35.676 0 17.743-9.413 33.134-25.227 41.947-8.911 4.928-17.696 6.669-26.607 7.921l-31 4.358v-.12c-2.97.341-5.996.709-8.854 1.11-5.522.777-11.546 1.75-17.57 2.723v-2.534c1.63-.61 2.76-1.656 2.76-3.176 0-.507-.25-2.754-.627-3.968l-1.13-3.391-28.74 4.04-1.883 5.715c-.126.272-.377 1.193-.377 1.573 0 1.774 0 2.281 2.762 3.034v2.535c-6.652.808-12.802 1.545-18.199 2.304-3.137.441-6.777.952-10.542 1.735v-2.535c2.51-3.014 3.765-6.359 5.397-9.884l37.4-83.074 2.762-.388 35.015 71.757c1.325 2.797 3.311 5.919 5.019 8.074 3.332-3.457 3.334-10.346 3.334-19.261v-38.909c0-11.026 0-19.264-6.527-19.361v-2.535l31-4.356Zm-79.64 65.69 17.572-2.469-8.158-20.272-9.413 22.741Zm101.352-43.52c-4.769-4.906-10.291-5.398-17.946-4.323-1.506.212-3.389.604-4.895.942v35.107c0 8.492 0 11.406 7.279 10.383 14.308-2.011 21.838-12.701 21.838-26.262 0-5.703-2.385-11.832-6.276-15.847Z" clip-rule="evenodd"/>
      <path fill="url(#mainlogo__b)" d="m306.431 83.738-2.51.353c-1.506-2.83-3.263-4.231-7.907-3.579l-20.959 2.947v13.053l11.42-1.605c7.154-1.005 10.417-2.605 12.175-7.414l2.636-.37c-.126 3.439-.252 7.259-.252 10.807 0 4.183.126 10.376.252 18.089l-2.636.37c-2.385-4.987-6.276-4.06-11.673-3.302l-11.922 1.676v11.533c0 5.196 2.259 4.878 6.401 4.296l9.788-1.375c9.664-1.358 13.43-4.042 14.936-9.07l2.51-.099-2.385 25.303-60.996 8.572v-2.661c6.275-2.023 6.401-10.405 6.401-21.178V91.302c0-8.604.156-15.57-3.05-18.225-1.6 2.024-3.136 4.887-4.602 8.147l-36.271 80.254-3.389.476-35.267-68.933c-2.51-4.843-3.639-7.6-7.154-9.387v-2.535c5.146-.596 10.544-1.227 15.815-1.968 5.397-.759 11.295-1.714 17.32-2.688v2.535c-1.883.898-3.013 2.198-3.013 4.352 0 .507.879 2.918 2.134 5.657l12.801 29.632 12.802-32.344c1.255-3.218 2.133-6.383 2.133-6.89 0-2.408-.376-3.116-2.635-3.812v-2.535c6.777-.825 12.927-1.563 17.696-2.233 2.704-.38 5.502-.823 8.279-1.28v-.137l61.122-8.59v22.94Z"/>
      <path fill="url(#mainlogo__c)" d="M397.171 50.58c-6.15 1.879-6.15 9.99-6.15 21.143v63.623l-3.389.476-51.834-38.468v21.039c0 1.774-.125 4.073-.125 5.721 0 7.097.628 12.839 6.024 13.728v2.535c-5.522.649-11.17 1.316-16.441 2.057-5.899.829-11.672 1.767-17.32 2.687v-2.534c6.526-2.058 6.401-10.025 6.401-21.178v-63.75l3.138-.44 52.084 39.066V74.739c0-12.04.126-18.015-5.773-19.467v-2.535c5.899-.702 11.422-1.352 16.191-2.022 5.396-.758 11.295-1.714 17.194-2.67v2.535Z"/>
      <path fill="url(#mainlogo__d)" d="m462.965 62.879-2.51.352c-2.133-4.389-7.028-4.081-15.563-2.882l-4.267.6v42.711c0 11.914.377 19.085 6.778 19.326v2.535c-6.15.738-12.426 1.493-18.45 2.339-5.773.812-11.923 1.802-18.198 2.811v-2.535c6.526-2.058 6.526-9.662 6.526-21.195v-42.71l-4.141.58c-8.409 1.183-13.43 2.269-15.563 7.258l-2.385.335 2.385-24.416 62.878-8.836 2.51 23.727Z"/>
      <path fill="url(#mainlogo__e)" d="m689.224 29.94-2.51.353c-1.506-2.83-3.264-4.232-7.907-3.579l-20.959 2.947v13.053l11.42-1.605c7.154-1.005 10.417-2.604 12.175-7.414l2.635-.37c-.126 3.439-.251 7.259-.251 10.807 0 4.183.125 10.376.251 18.089l-2.635.37c-2.385-4.987-6.276-4.06-11.673-3.302l-11.922 1.675v11.534c0 5.196 2.258 4.878 6.4 4.296l9.789-1.375c9.664-1.358 13.429-4.042 14.936-9.07l2.51-.099-2.385 25.303-57.024 8.013c-3.937 1.438-7.66 1.965-11.498 2.504-11.798 1.658-14.81-.2-20.206-8.947l-18.45-30.106 1.004-1.408c3.891-.294 8.66-1.978 11.672-4.81 3.263-3.12 3.891-6.123 3.891-9.925 0-1.647-.879-4.058-2.384-5.62-3.013-3-7.155-3.051-12.426-2.31l-4.643.652v44.613c0 12.293.376 19.084 6.651 19.343v2.534c-5.773.685-11.923 1.423-18.072 2.287-5.773.812-12.049 1.82-18.324 2.829v-2.535c6.118-2.048 6.39-9.067 6.4-19.126V46.547c-.01-9.862-.275-17.064-6.163-17.338-6.169 2.035-6.291 9.857-6.291 21.122v21.798c0 11.66.502 19.828-6.15 29.634-6.024 8.705-17.696 15.795-31.377 17.718-13.805 1.94-25.477-1.869-31.502-8.881-6.651-7.81-6.149-16.372-6.149-27.905v-21.8c0-11.279-.126-19.245-6.526-19.36v-2.534c8.283-1.038 15.312-1.9 20.708-2.658 4.644-.653 9.915-1.52 15.312-2.406v2.536c-6.275 1.896-6.15 9.483-6.15 21.143v19.897c0 8.492-.376 14.629 1.883 18.367 2.133 3.629 6.777 5.638 12.424 4.844 5.523-.776 10.167-4.091 12.3-8.32 2.259-4.373 1.883-10.403 1.883-18.894v-19.9c0-11.785.125-19.28-6.15-19.413v-2.535c5.397-.631 10.668-1.246 15.312-1.898 4.807-.676 11.671-1.762 20.236-3.09v-.008l31.753-4.462c9.036-1.27 16.315-2.04 21.712-1.15 12.049 1.982 19.202 9.975 19.202 22.142 0 8.618-4.141 15.79-12.801 21.316l17.822 27.533c1.395 2.124 2.47 3.316 3.642 4.017 3.794-3.303 3.884-10.689 3.884-19.776V37.504c0-10.9.251-19.173-6.401-19.38V15.59L689.224 7v22.94Z"/>
    </g>
    <path fill="url(#mainlogo__f)" fill-opacity=".74" d="m87.494 89.548 32.722-4.599c7.492-1.053 14.669-1.947 21.267-1.009 9.895 1.39 18.13 5.696 23.893 12.274 5.765 6.58 8.952 15.317 8.952 25.382 0 18.506-9.839 34.547-26.253 43.694l-.006.003c-9.237 5.108-18.316 6.89-27.297 8.152l-33.278 4.678v-.174c-2.228.265-4.45.545-6.575.844-5.498.773-11.501 1.743-17.53 2.717l-2.32.375v-6.272l1.3-.486c.626-.234 1.013-.501 1.222-.728.177-.192.24-.361.24-.575l-.008-.131a11.252 11.252 0 0 0-.028-.338 23.21 23.21 0 0 0-.117-.969c-.106-.748-.245-1.478-.383-1.927l-.593-1.78-25.86 3.634-1.493 4.534-.035.109-.05.104c.018-.037.022-.05.013-.026a5.82 5.82 0 0 0-.204.806c0 .308.003.499.01.633.233.108.623.247 1.278.425l1.474.402v5.835l-1.759.214c-6.66.809-12.788 1.543-18.162 2.298-3.144.442-6.721.946-10.413 1.713l-2.407.5v-5.716l.463-.557c2.293-2.754 3.409-5.749 5.119-9.443L48.52 90.082l5.292-.743L89.466 162.4l.01.022c.84 1.776 1.974 3.702 3.116 5.395.466-1.127.803-2.545 1.027-4.302.397-3.116.401-6.925.401-11.423v-38.909c0-5.612-.013-10.151-.762-13.32-.369-1.558-.867-2.55-1.436-3.143-.505-.528-1.197-.882-2.358-.9l-1.97-.029v-6.243ZM58.426 150.15l-17.572 2.469 9.415-22.741 8.157 20.272Zm88.055-25.205c0-5.209-2.2-10.828-5.709-14.452l-.396-.395c-1.99-1.916-4.086-2.957-6.463-3.445-2.437-.499-5.249-.434-8.681.01l-.694.094c-.952.134-2.081.348-3.173.575v33.493c0 2.151.001 3.837.108 5.193.108 1.382.312 2.159.556 2.606.175.319.386.518.903.65.641.164 1.695.198 3.434-.046 6.693-.941 11.672-3.882 14.996-8.064 3.34-4.203 5.119-9.803 5.119-16.219Zm-102.44 25.206 11.574-1.627-5.373-13.354-6.201 14.981Zm403.361-27.166c-6.4-.241-6.777-7.413-6.777-19.326V60.95l4.268-.6c8.534-1.2 13.428-1.508 15.562 2.881l2.51-.352-2.51-23.728-62.878 8.837-2.385 24.416 2.385-.336c2.134-4.988 7.154-6.075 15.563-7.257l4.141-.58-.002 44.827c-.024 10.345-.406 17.149-6.524 19.079v2.534c6.275-1.009 12.425-1.999 18.198-2.811 6.024-.846 12.3-1.601 18.449-2.339v-2.535Zm149.085-76.112c0-1.118-.667-3.02-1.809-4.217-2.117-2.096-5.061-2.435-9.758-1.86l-.965.127-2.922.41v19.481l.807-1.13.933-.07c3.546-.268 7.838-1.822 10.443-4.263 1.43-1.369 2.213-2.638 2.661-3.92.458-1.31.61-2.755.61-4.558Zm-296.259 35.9c-.688-.355-1.812-.58-3.935-.28l-19.238 2.703v9.014l9.142-1.284c3.53-.496 5.806-1.108 7.381-2.028 1.461-.853 2.447-2.048 3.193-4.092l.412-1.127 4.946-.697c-.667-1.242-1.235-1.866-1.901-2.21Zm382.793-53.798c-.688-.355-1.813-.58-3.936-.282l-19.237 2.704v9.015l9.142-1.284c3.53-.496 5.806-1.108 7.381-2.027 1.461-.854 2.447-2.049 3.193-4.093l.412-1.127 4.946-.697c-.667-1.243-1.235-1.866-1.901-2.21Zm-534.54 95.97c0 13.561-7.529 24.252-21.836 26.263l-.662.085c-6.191.703-6.591-1.871-6.617-8.94l-.001-36.635c1.318-.296 2.924-.632 4.314-.854l.581-.088c7.655-1.076 13.177-.583 17.946 4.323 3.891 4.015 6.275 10.143 6.275 15.846ZM89.494 93.821c6.526.097 6.526 8.336 6.526 19.362v38.909l-.006 3.245c-.046 7.337-.41 12.99-3.326 16.016-1.708-2.155-3.695-5.278-5.02-8.076L52.652 91.522l-2.761.387-37.4 83.074c-1.632 3.525-2.887 6.87-5.397 9.884v2.535c2.823-.587 5.577-1.022 8.1-1.388l2.442-.347c5.396-.758 11.547-1.497 18.199-2.305v-2.534c-2.761-.752-2.762-1.26-2.762-3.034 0-.38.25-1.302.376-1.573l1.884-5.714 28.74-4.04 1.13 3.39c.376 1.215.627 3.46.627 3.967 0 1.521-1.13 2.568-2.76 3.177v2.534c5.27-.852 10.542-1.703 15.477-2.423l2.094-.3c2.857-.401 5.884-.769 8.853-1.111v.121l31-4.357c8.633-1.213 17.147-2.886 25.773-7.47l.835-.452c15.566-8.675 24.93-23.725 25.219-41.117l.007-.83c0-18.963-11.797-32.584-30.242-35.542l-.884-.133c-6.275-.892-13.178-.05-20.708 1.009l-31 4.356v2.535Zm129.84-18.248c2.259.697 2.636 1.404 2.636 3.812l-.011.126c-.101.777-.947 3.748-2.123 6.764l-12.802 32.344-12.801-29.633c-1.176-2.567-2.022-4.846-2.124-5.539l-.009-.117c0-2.154 1.129-3.454 3.011-4.352v-2.535c-6.024.974-11.922 1.93-17.319 2.688l-1.982.272c-4.635.626-9.33 1.175-13.832 1.697v2.534c3.514 1.787 4.643 4.544 7.153 9.388l35.267 68.932 3.389-.476 36.272-80.253c1.466-3.26 3.001-6.124 4.601-8.148 3.206 2.655 3.05 9.621 3.05 18.225v38.782l-.003 1.991c-.037 9.805-.515 17.29-6.397 19.187v2.661l60.996-8.572 2.383-25.303-2.508.098-.149.465c-1.599 4.73-5.426 7.291-14.788 8.607l-9.788 1.375c-4.012.564-6.258.879-6.394-3.825l-.007-.472v-11.533l11.923-1.676c5.396-.759 9.287-1.685 11.671 3.302l2.636-.369c-.11-6.75-.219-12.336-.245-16.428l-.006-1.661c0-3.549.126-7.37.251-10.809l-2.636.371-.169.442c-1.795 4.467-5.074 5.998-12.004 6.972l-11.421 1.605V83.459l20.96-2.946c4.643-.653 6.4.748 7.906 3.578l2.51-.353v-22.94l-61.121 8.59v.136c-2.777.457-5.576.9-8.28 1.28l-1.851.256c-4.465.601-9.915 1.256-15.845 1.978v2.535Zm173.687-1.514 1.88-19.257c-.487.842-.867 1.92-1.154 3.283-.716 3.406-.726 7.98-.726 13.638v2.336Zm-29.235-18.787c5.899 1.452 5.774 7.427 5.774 19.467v21.546L317.475 57.22l-3.138.44v63.75l-.007 4.028c-.065 9.024-.683 15.349-6.393 17.15v2.534c5.647-.92 11.42-1.858 17.319-2.687 5.271-.741 10.919-1.408 16.441-2.057v-2.535c-5.059-.834-5.928-5.932-6.016-12.414l-.008-1.315c0-1.647.125-3.946.125-5.72V97.355l51.835 38.467 3.388-.476V71.723c0-11.153 0-19.265 6.15-21.143v-2.534c-5.899.956-11.798 1.91-17.194 2.669-4.77.67-10.292 1.32-16.191 2.022v2.535Zm262.317-41.42 65.121-9.153v26.98l-5.112.718-.036 1c-.11 3.01-.218 6.285-.243 9.408l-.006 1.328c0 4.16.124 10.325.25 18.055l.029 1.767-5.835.821-.633-1.322c-.494-1.033-1.005-1.635-1.485-2.003-.47-.36-1.016-.581-1.718-.688-1.574-.24-3.5.1-6.386.507l-10.201 1.433v9.795c0 1.19.134 1.853.274 2.203.109.272.185.285.208.295.117.054.414.13 1.094.105.671-.026 1.479-.138 2.546-.287l9.789-1.375c4.732-.666 7.759-1.626 9.741-2.872 1.882-1.182 2.926-2.687 3.557-4.792l.41-1.367 6.221-.247-2.747 29.153-58.394 8.205c-4.085 1.462-7.938 2.004-11.693 2.532-5.923.832-10.148.879-13.625-.739-3.494-1.626-5.862-4.763-8.561-9.138l-.004-.006-17.631-28.77v18.81c0 6.23.109 10.708.905 13.666.387 1.44.886 2.304 1.432 2.819.504.475 1.215.812 2.398.861l1.918.079v6.23l-1.765.209c-5.774.685-11.904 1.421-18.029 2.282-5.75.808-12.006 1.813-18.286 2.823l-2.317.372v-6.321l1.365-.457c2.221-.744 3.464-2.322 4.188-5.158.76-2.978.842-6.98.847-12.072V46.549l-.006-1.83c-.029-4.154-.171-7.507-.806-9.93-.355-1.356-.818-2.217-1.332-2.74-.405-.412-.934-.711-1.743-.812-1.935.772-3.1 2.428-3.781 5.504-.745 3.358-.786 7.885-.786 13.59V72.13c0 11.543.558 20.359-6.495 30.757l-.006.008-.005.007c-6.389 9.233-18.597 16.573-32.742 18.561-14.239 2.001-26.691-1.87-33.298-9.558l-.005-.007c-7.226-8.483-6.627-17.908-6.627-29.202v-21.8c0-5.729-.044-10.263-.806-13.393-.375-1.539-.874-2.508-1.436-3.086a2.663 2.663 0 0 0-.855-.598l2.197 20.772-5.864.825-.637-1.31c-.388-.799-.859-1.307-1.409-1.659-.571-.364-1.341-.631-2.423-.767-2.245-.283-5.331.044-9.653.651l-2.546.358v40.972c0 6.037.109 10.515.92 13.519.396 1.466.909 2.369 1.479 2.914.526.501 1.258.85 2.455.895l1.923.073v6.235l-1.761.211c-6.153.738-12.409 1.49-18.41 2.334-5.749.808-11.879 1.795-18.159 2.805l-2.317.373v-6.349l1.398-.441c1.266-.4 2.14-1.034 2.795-1.877.679-.875 1.198-2.075 1.567-3.703.754-3.33.766-7.851.766-13.708v-40.41l-1.863.261c-4.24.596-7.353 1.139-9.661 2.074-2.187.887-3.522 2.074-4.341 3.99l-.443 1.036-5.952.838v62.355l-5.111.718-.811.113-49.301-36.588v17.065c0 .924-.032 1.975-.064 2.97-.031 1.013-.061 1.965-.061 2.75 0 3.568.17 6.465.881 8.546.343 1.005.781 1.717 1.3 2.208.502.475 1.176.838 2.168 1.001l1.675.277v6.01l-1.766.208c-5.526.65-11.152 1.314-16.397 2.051-5.874.826-11.626 1.761-17.276 2.682l-2.321.378v-.051l-62.627 8.801v-6.419l1.385-.447c2.164-.697 3.471-2.462 4.215-5.835.759-3.437.8-7.986.8-13.439V88.146c-.006-3.035-.051-5.706-.31-7.96-.171-1.493-.426-2.658-.75-3.552-.923 1.532-1.847 3.364-2.768 5.41l-.001.004-36.725 81.257-5.889.828-35.912-70.192-.911-1.767c-1.964-3.81-2.916-5.507-5.374-6.757l-1.092-.557v-5.543l1.769-.205c5.148-.596 10.523-1.225 15.767-1.962 5.372-.755 11.249-1.707 17.279-2.681l2.318-.375v6.145l-1.138.544c-.755.36-1.2.727-1.46 1.082-.226.308-.392.716-.41 1.35.01.045.031.127.069.253.085.283.218.673.397 1.154a50.77 50.77 0 0 0 1.043 2.553l.449.998.008.02 10.884 25.196 11.024-27.85a58.508 58.508 0 0 0 1.481-4.299c.181-.605.32-1.115.411-1.49.046-.189.076-.33.094-.423l.005-.034c-.003-.516-.025-.853-.065-1.087a.982.982 0 0 0-.068-.258c-.039-.037-.257-.207-1.09-.464l-1.411-.434v-5.782l1.759-.215c6.788-.827 12.913-1.562 17.659-2.229 2.141-.3 4.346-.643 6.558-1v-.175l65.121-9.152v26.98l-5.111.717-.036 1.001c-.125 3.44-.25 7.227-.25 10.736 0 4.16.125 10.324.251 18.055l.029 1.768-5.837.819-.632-1.321c-.495-1.034-1.005-1.636-1.485-2.004-.47-.361-1.016-.58-1.718-.687-1.574-.241-3.5.101-6.386.506l-10.201 1.434v9.795c0 1.19.134 1.853.274 2.203.109.272.185.284.208.295.117.054.414.131 1.095.104.671-.025 1.479-.137 2.546-.287l9.788-1.375c4.732-.665 7.759-1.625 9.741-2.871 1.882-1.183 2.927-2.688 3.558-4.792l.41-1.369 6.221-.244-2.077 22.023a5.043 5.043 0 0 0 1.27-1.204c.674-.9 1.183-2.135 1.54-3.792.729-3.383.708-7.904.708-13.578v-65.49l5.677-.796 49.546 37.161V74.74c0-6.139.018-10.36-.627-13.27-.312-1.405-.746-2.318-1.274-2.933-.502-.585-1.21-1.041-2.351-1.322l-1.522-.375v-5.88l1.764-.21c5.908-.703 11.405-1.35 16.148-2.017 5.034-.707 10.511-1.588 16.038-2.483l.003-.024 1.139-.16 2.293-.372v.05l60.36-8.484v-.026l1.744-.22.952-.132.001.014c7.882-.987 14.561-1.808 19.733-2.535 4.616-.648 9.862-1.512 15.266-2.398l2.324-.381v6.375l-1.422.43c-1.179.356-1.983.945-2.587 1.75-.632.842-1.12 2.023-1.462 3.655-.7 3.337-.679 7.892-.679 13.822v19.899c0 4.327-.093 7.861.09 10.842.172 2.8.579 4.789 1.346 6.212l.158.278.007.01.006.01c1.618 2.753 5.349 4.59 10.422 3.877 4.933-.693 8.981-3.649 10.793-7.24l.005-.008.003-.009c.941-1.82 1.388-4.093 1.57-7.105.183-3.035.09-6.545.09-10.871V53.61c0-6.009.019-10.548-.673-13.64-.34-1.516-.801-2.427-1.31-2.956-.446-.464-1.08-.795-2.209-.819l-1.958-.04v-6.273l1.768-.207c5.403-.633 10.649-1.244 15.265-1.893 4.469-.628 10.726-1.613 18.515-2.823v-.032l33.475-4.704c8.975-1.262 16.564-2.091 22.314-1.144 6.389 1.051 11.644 3.728 15.301 7.91 3.662 4.187 5.577 9.72 5.577 16.206 0 8.813-4.025 16.185-12.055 21.878l16.755 25.884c.68 1.035 1.239 1.77 1.725 2.304.754-1.217 1.289-2.92 1.624-5.208.472-3.224.498-7.188.498-11.768V37.504c0-5.572.05-10.08-.658-13.266-.348-1.562-.832-2.56-1.397-3.165-.503-.538-1.207-.912-2.408-.949l-1.937-.06v-6.212Zm2 4.273c6.651.206 6.4 8.48 6.4 19.379v38.782l-.002 1.683c-.024 8.31-.325 14.996-3.882 18.093l-.219-.138c-1.089-.716-2.116-1.888-3.423-3.88l-17.822-27.531c8.389-5.354 12.538-12.252 12.789-20.513l.012-.804c0-12.167-7.154-20.16-19.202-22.142-5.397-.89-12.676-.12-21.712 1.15l-31.753 4.462v.008c-8.565 1.328-15.43 2.414-20.236 3.09l-1.77.243c-4.193.563-8.82 1.102-13.542 1.655v2.535c6.275.133 6.15 7.628 6.15 19.414V73.51l.011 3.07c.042 6.903.083 11.998-1.893 15.824-2.134 4.229-6.778 7.543-12.3 8.32l-.527.066c-5.235.581-9.545-1.27-11.691-4.575l-.207-.335c-1.977-3.271-1.936-8.379-1.894-15.293l.011-3.073V57.615c0-11.66-.125-19.246 6.15-21.142v-2.535c-5.397.885-10.668 1.752-15.312 2.405-5.396.758-12.425 1.62-20.708 2.658v2.534c6.4.115 6.526 8.081 6.526 19.36v21.8l-.009 4.19c-.005 9.472.338 16.882 6.158 23.716 5.93 6.901 17.333 10.7 30.856 8.966l.647-.086c13.466-1.892 24.987-8.793 31.09-17.311l.286-.406c6.652-9.807 6.15-17.975 6.15-29.635V50.33c0-11.265.123-19.087 6.291-21.122 5.888.274 6.153 7.476 6.163 17.338V89.54c-.01 10.059-.282 17.078-6.4 19.126v2.535c5.491-.882 10.981-1.765 16.136-2.515l2.188-.314c6.15-.864 12.3-1.601 18.073-2.286v-2.535c-6.275-.259-6.653-7.05-6.653-19.344V39.596l4.644-.653c5.271-.74 9.413-.689 12.426 2.31 1.505 1.563 2.384 3.974 2.384 5.621l-.008.704c-.08 3.474-.823 6.297-3.882 9.222l-.288.262c-3.022 2.673-7.616 4.262-11.385 4.546l-1.004 1.409 18.45 30.106c5.228 8.473 8.218 10.482 19.125 9.092l1.081-.145c3.838-.539 7.561-1.065 11.498-2.504l57.025-8.013 2.383-25.303-2.509.1-.149.465c-1.599 4.729-5.425 7.288-14.787 8.604l-10.544 1.48c-3.66.496-5.645.47-5.645-4.401V60.965l11.923-1.676c5.396-.758 9.287-1.685 11.671 3.303l2.636-.371c-.11-6.75-.219-12.334-.245-16.427l-.006-1.661c0-3.549.126-7.37.251-10.809l-2.636.371-.169.442c-1.795 4.467-5.074 5.998-12.004 6.972l-11.421 1.605V29.66l20.959-2.946c4.643-.653 6.401.749 7.907 3.579l2.51-.353V7l-61.121 8.59v2.535Z" class="mainlogo__Union mainlogo__(Stroke)"/>
    <path fill="#fff" d="M18.727 247.1c1.72-.245 3.417-.869 4.975-1.832a13.663 13.663 0 0 0 3.977-3.598l-2.963-2.625a10.02 10.02 0 0 1-2.65 2.514 7.984 7.984 0 0 1-3.213 1.195 6.605 6.605 0 0 1-2.74-.146 5.886 5.886 0 0 1-2.33-1.244 5.82 5.82 0 0 1-1.493-2.103 7.045 7.045 0 0 1-.545-2.818c-.01-1.001.17-2.02.53-3.003a8.617 8.617 0 0 1 1.467-2.534 8.266 8.266 0 0 1 2.23-1.867 7.588 7.588 0 0 1 2.76-.954 6.737 6.737 0 0 1 3.296.322 6.573 6.573 0 0 1 2.713 1.9l3.058-3.568a8.878 8.878 0 0 0-3.992-2.528c-1.593-.53-3.326-.678-5.08-.435-1.567.21-3.12.736-4.57 1.548a14.138 14.138 0 0 0-3.695 2.98 13.743 13.743 0 0 0-2.464 4.05 13.226 13.226 0 0 0-.904 4.727c-.003 1.579.3 3.101.89 4.477a9.24 9.24 0 0 0 2.447 3.345 9.649 9.649 0 0 0 3.696 1.939 11.08 11.08 0 0 0 4.6.258Zm59.108-8.274a12.733 12.733 0 0 0 4.554-1.545 13.638 13.638 0 0 0 3.661-2.987 13.852 13.852 0 0 0 2.453-4.067 13 13 0 0 0 .904-4.705c0-1.572-.307-3.085-.904-4.45a9.454 9.454 0 0 0-2.453-3.379 9.302 9.302 0 0 0-3.661-1.956c-2.911-.798-6.167-.341-9.078 1.275a13.857 13.857 0 0 0-6.114 7.054 13.007 13.007 0 0 0-.904 4.705 11.1 11.1 0 0 0 .904 4.45 9.443 9.443 0 0 0 2.453 3.378 9.291 9.291 0 0 0 3.661 1.957 10.8 10.8 0 0 0 4.524.27Zm0-4.302a6.237 6.237 0 0 1-2.67-.165 5.595 5.595 0 0 1-2.242-1.263 6.023 6.023 0 0 1-1.45-2.142c-.707-1.78-.707-3.861 0-5.84.334-.91.826-1.77 1.45-2.532a8.235 8.235 0 0 1 2.243-1.894 7.325 7.325 0 0 1 2.669-.915 6.332 6.332 0 0 1 2.745.18 5.5 5.5 0 0 1 2.198 1.244 6.054 6.054 0 0 1 1.45 2.125c.708 1.78.708 3.861 0 5.839a8.745 8.745 0 0 1-1.45 2.55 8.118 8.118 0 0 1-2.198 1.861 7.455 7.455 0 0 1-2.745.952Zm68.559-5.688v-4.14l-11.948 1.679V207.87l-4.52.635v22.642l16.468-2.311Zm57.019-8.014v-4.139l-11.947 1.679v-18.506l-4.523.636v22.642l16.47-2.312Zm57.455-8.074v-4.076l-12.383 1.74v-5.371l8.08-1.136v-3.947l-8.08 1.136v-5.171l12.259-1.723v-4.076l-16.784 2.359v22.642l16.908-2.377Zm50.157-6.727c1.719-.244 3.417-.869 4.975-1.831a13.668 13.668 0 0 0 3.977-3.599l-2.964-2.623a9.992 9.992 0 0 1-2.651 2.514 7.953 7.953 0 0 1-3.213 1.195 6.584 6.584 0 0 1-2.739-.146 5.892 5.892 0 0 1-2.328-1.243 5.816 5.816 0 0 1-1.494-2.104 7.052 7.052 0 0 1-.546-2.818 8.601 8.601 0 0 1 1.997-5.537 8.232 8.232 0 0 1 2.229-1.866 7.571 7.571 0 0 1 2.76-.954 6.732 6.732 0 0 1 3.307.326 6.562 6.562 0 0 1 2.713 1.9l3.058-3.568a8.87 8.87 0 0 0-3.992-2.527c-1.592-.53-3.325-.679-5.078-.436-1.567.21-3.121.736-4.57 1.548a14.151 14.151 0 0 0-3.697 2.978 13.726 13.726 0 0 0-2.465 4.051 13.194 13.194 0 0 0-.904 4.726c-.003 1.58.299 3.102.889 4.478a9.25 9.25 0 0 0 2.447 3.345 9.683 9.683 0 0 0 3.697 1.939 11.06 11.06 0 0 0 4.592.252Zm59.826-8.73v-18.506l7.329-1.03v-4.142l-19.214 2.701v4.141l7.362-1.034v18.502l4.523-.632Zm51.81-7.282v-22.642l-4.523.635v22.643l4.523-.636Zm52.091-6.964a12.734 12.734 0 0 0 4.554-1.546 13.652 13.652 0 0 0 3.661-2.986 13.866 13.866 0 0 0 2.453-4.068 13.01 13.01 0 0 0 .904-4.704c0-1.573-.308-3.086-.904-4.451a9.464 9.464 0 0 0-2.453-3.378 9.291 9.291 0 0 0-3.661-1.957c-2.911-.797-6.166-.34-9.076 1.276a13.651 13.651 0 0 0-3.66 2.986 13.874 13.874 0 0 0-2.453 4.067 12.975 12.975 0 0 0-.905 4.705c0 1.572.307 3.086.905 4.45a9.452 9.452 0 0 0 2.453 3.377 9.304 9.304 0 0 0 3.66 1.959c1.433.404 2.971.495 4.522.267v.003Zm0-4.302a6.228 6.228 0 0 1-2.729-.183 5.504 5.504 0 0 1-2.183-1.246 6.01 6.01 0 0 1-1.452-2.141c-.707-1.78-.707-3.861 0-5.84a8.78 8.78 0 0 1 1.452-2.532 8.143 8.143 0 0 1 2.183-1.86 7.333 7.333 0 0 1 2.729-.95 6.337 6.337 0 0 1 2.743.181 5.491 5.491 0 0 1 2.2 1.244 6.056 6.056 0 0 1 1.451 2.124c.708 1.78.708 3.861 0 5.84a8.736 8.736 0 0 1-1.451 2.549 8.102 8.102 0 0 1-2.2 1.862 7.45 7.45 0 0 1-2.743.949v.003Zm56.363-3.974v-15.146l11.135 13.581 3.992-.561V150l-4.241.596v14.653l-10.855-13.127-4.306.605v22.642l4.275-.6Z" class="mainlogo__Vector"/>
    <g class="mainlogo__Vector">
      <path fill="#fff" fill-rule="evenodd" d="M10.83 78.472c-.154-.715-.095-5.658-.033-6.53.986-.28 1.848-.376 2.717-.472.197-.021.394-.043.593-.067.391-.047.865-.129 1.376-.216 1.7-.293 3.824-.657 4.788-.084 1.752 1.043 1.957 3.555.267 5.255-.921.926-2.002 1.097-3.22 1.24-1.155.134-2.278.295-3.4.455-1.022.146-2.044.293-3.088.42Zm.027-10.33c-.024-.094-.141-5.78-.02-6.525l.013-.065.007-.035.051-.198c.535-.15 4.212-.684 4.645-.62 3.375.497 3.239 5.27.21 6.547-1.092.461-2.541.622-3.785.76-.401.044-.781.087-1.12.136Zm-3.02 14.35-.106.004a55.09 55.09 0 0 0-.403-2.032c-.274-1.638-.246-3.074-.216-4.608.007-.377.015-.761.018-1.155l-.011-11.407c-.01-2.192-.013-3.357 1.558-4.756 1.136-1.011 2.856-1.156 4.354-1.282.356-.03.699-.06 1.018-.099 2.281-.28 3.225-.19 4.71.621 1.296.707 2.392 1.994 2.793 3.995.403 2.006.107 2.758-.267 3.712a9.732 9.732 0 0 0-.504 1.571c.127.119.388.227.717.364.572.238 1.351.563 2.005 1.18 2.85 2.69 2.292 7.081-.37 10.039-2.02 2.243-4.334 2.493-7.005 2.782l-.007.001-.392.043a62.546 62.546 0 0 0-3.092.446c-1.597.257-3.202.516-4.8.58Zm64.905-30.091c2.636-1.54 5.403-1.471 7.376-.792 2.174.748 3.235 1.88 4.56 4.232 1.191 2.116.542 5.766-.275 7.52-2.333 5.008-7.712 7.646-12.338 6.005-4.417-1.567-6.463-7.07-4.106-11.812 1.093-2.198 2.237-3.666 4.783-5.153Zm-.34-3.734c-.81.558-2.241.833-4.514 3.061-1.256 1.232-2.095 2.477-2.912 3.928-3.458 6.14-1.479 14.35 4.893 17.04 10.364 4.373 22.046-7.49 18.57-17.845-1.545-4.6-5.892-7.52-10.396-7.424-1.26.027-4.325.335-5.64 1.24Zm78.936 1.627c-.431-1.294.842-4.99 1.404-6.033 2.484-4.607 6.564-5.904 9.492-2.234 1.373 1.721 1.863 3.766 2.009 6.406-.642.284-10.72 1.513-12.905 1.861Zm-.186 11.987c.226-.611.118-6.94.114-8.137.387-.155 12.474-1.863 12.853-1.803.22.706.123 3.13.127 4.066.003.918-.136 3.413.078 4.096 4.324-1.071 3.506-4.588 3.666-6.58.104-1.293-.007-2.935 0-4.303.009-1.704.119-2.634-.227-4.497-.984-5.292-4.696-9.91-10.274-8.849-5.907 1.125-9.127 7.206-9.759 11.889-.208 1.544-.243 6.78-.203 8.478.028 1.206-.223 3.235.471 4.25.625.914 1.867 1.793 3.154 1.39ZM31.16 67.082c-.488-2.766 1.757-9.21 6.136-10.238 4.925-1.156 7.16 6.45 6.684 8.334-.801.395-7.908 1.217-9.698 1.506-1.064.171-2.17.185-3.122.398Zm-.158 11.99c.112-2.305.07-5.841-.001-8.079.357-.215 12.415-1.932 12.926-1.862.228.767.066 3.083.075 4.03.008 1.028-.101 3.325.087 4.168 3.593-.912 3.867-3.641 3.67-6.63l.023-4.28c.024-4.611-.447-8.264-3.795-11.4-1.67-1.566-3.685-2.343-6.658-1.96-3.256.417-5.55 2.845-6.963 4.727-1.384 1.846-2.469 4.608-2.833 7.176-.373 2.632-.193 5.733-.22 8.44-.014 1.33-.21 3.137.473 4.312a2.954 2.954 0 0 0 3.216 1.358Zm103.708-35.5c2.563-1.636 5.219-.383 6.103 1.455 1.234 2.572-.305 5.308-2.349 6.481-5.544 3.183-9.348-4.366-3.754-7.936ZM132 56.412c.537.058.937.58 1.52 1.094 1.205 1.062 6.212 5.547 6.993 5.894 1.436.64 2.906.02 4.245-1.078-.309-1.03-6.516-5.418-7.049-6.628 6.727-2.29 8.702-9.182 6.033-13.405-3.574-5.656-12.923-3.448-15.135 4.115-.548 1.875-.28 10.72-.294 12.917l-.005 5.41c-.005.475-.131.737.273.75.496.017 1.718-.715 2.04-1.041 2.057-2.087 1.063-4.484 1.379-8.028Zm-5.468 9.348c-.527-4.647-4.62-2.728-7.49-2.571-.645.035-2.988.603-3.296.391l-.099-.145c-.008-.02-.031-.056-.039-.08-.122-.367.012-2.685-.018-3.444-.046-1.193-.012-2.614.011-3.808 1.432-.553 6.421-.664 7.323-1.253-.126-1.842-1.271-2.804-2.499-3.035-1.324-.249-3.984.545-4.756.425-.105-.495-.174-5.246.034-5.751l6.656-.97c1.313-.13 2.217-.532 3.059-1.417.608-.64 1.264-1.812 1.057-2.867l-4.68.605c-.622.09-1.178.248-1.782.319-5.159.605-8.292.286-8.088 6.774.08 2.577-.19 14.954.132 16.257.812 3.276 5.065 2.015 7.923 1.566 1.134-.178 2.131-.235 3.258-.453.996-.192 2.375-.18 3.294-.543Z" clip-rule="evenodd"/>
      <path fill="#fff" fill-rule="evenodd" d="m110.721 43.518-6.581.877c-2.532.355-4.621 1.085-6.81 2.55-10.195 6.82-8.115 21.102 3.216 22.175 2.145.203 4.185-.302 6.462-.533.5-.051 1.061-.15 1.595-.231 1.814-.276 2.586.161 1.881-1.617-1.162-2.93-4.615-1.574-6.742-1.404-4.259.342-7.684-.945-9.03-5.127-1.324-4.117 1.243-8.453 5.09-10.668 4.524-2.604 7.268-.587 9.802-3.207.65-.672 1.232-1.727 1.117-2.815ZM54.09 55.048c.303 1.201-.187 19.317.168 20.861 4.352-1.23 3.474-4.519 3.561-6.842.079-2.084-.137-14.085.074-14.4.197-.296.9-.28 1.11-.303.87-.097 3.095-.412 3.775-.776 1.537-.822 2.386-2.246 2.34-3.753-.423-.084-15.198 1.989-17.4 2.33-.952.147-1.031.21-.728 1.21.981 3.231 4.757 1.885 7.1 1.673Z" clip-rule="evenodd"/>
    </g>
  </g>
</svg>
