<svg width="700" height="226" viewBox="0 0 700 226" fill="none" xmlns="http://www.w3.org/2000/svg">
<path d="M11.6303 224.921C13.3487 224.676 15.0459 224.052 16.6037 223.09C18.1357 222.181 19.4949 220.951 20.5798 219.492L17.6175 216.868C16.8905 217.866 15.9876 218.723 14.9673 219.381C13.9665 220.018 12.8677 220.427 11.7557 220.576C10.8173 220.718 9.88631 220.669 9.01647 220.43C8.14664 220.192 7.35528 219.769 6.6882 219.187C6.04584 218.615 5.53832 217.9 5.19512 217.084C4.82717 216.218 4.64189 215.26 4.65015 214.267C4.64012 213.267 4.82014 212.247 5.18019 211.265C5.51628 210.351 6.01434 209.491 6.64639 208.731C7.28024 207.976 8.03835 207.342 8.87555 206.865C9.74799 206.363 10.687 206.039 11.6348 205.912C12.7778 205.746 13.9061 205.857 14.93 206.233C15.9883 206.629 16.915 207.278 17.6429 208.132L20.6992 204.566C19.6246 203.38 18.2572 202.514 16.7082 202.039C15.1163 201.509 13.384 201.36 11.6303 201.604C10.0639 201.813 8.51095 202.339 7.06147 203.151C5.6882 203.915 4.43432 204.926 3.36759 206.13C2.31469 207.332 1.47722 208.709 0.904016 210.179C0.309801 211.719 0.00257853 213.325 1.61619e-05 214.904C-0.00254621 216.484 0.299602 218.005 0.889085 219.381C1.45551 220.686 2.28769 221.823 3.33624 222.724C4.40347 223.628 5.65787 224.286 7.0316 224.663C8.49089 225.068 10.0541 225.156 11.6303 224.921ZM70.7218 216.649C72.283 216.442 73.8307 215.916 75.2742 215.104C76.6414 214.344 77.8854 213.329 78.9345 212.119C79.9836 210.909 80.817 209.527 81.3868 208.052C81.9835 206.52 82.2909 204.921 82.2909 203.349C82.2909 201.777 81.9835 200.264 81.3868 198.9C80.8171 197.586 79.9837 196.438 78.9346 195.522C77.8855 194.607 76.6415 193.942 75.2742 193.566C72.3639 192.768 69.1096 193.226 66.1993 194.842C64.832 195.602 63.588 196.616 62.5389 197.827C61.4898 199.037 60.6564 200.419 60.0866 201.893C59.4904 203.426 59.1832 205.025 59.1832 206.597C59.1832 208.168 59.4904 209.681 60.0866 211.046C60.6564 212.36 61.4899 213.508 62.539 214.423C63.588 215.339 64.832 216.004 66.1993 216.38C67.6334 216.785 69.1701 216.878 70.7218 216.649ZM70.7218 212.349C69.8056 212.485 68.8975 212.429 68.0531 212.183C67.2087 211.938 66.4458 211.508 65.8111 210.92C65.185 210.33 64.6927 209.603 64.3613 208.779C63.6542 207 63.6542 204.919 64.3613 202.941C64.6955 202.031 65.1876 201.172 65.8111 200.41C66.4458 199.644 67.2087 199 68.0531 198.517C68.8975 198.034 69.8056 197.722 70.7218 197.601C71.6649 197.462 72.5992 197.523 73.4661 197.782C74.2938 198.025 75.0416 198.448 75.6639 199.025C76.2874 199.612 76.7794 200.333 77.1137 201.149C77.8205 202.929 77.8205 205.009 77.1137 206.987C76.7822 207.904 76.2899 208.769 75.6639 209.536C75.0416 210.288 74.2938 210.921 73.4661 211.397C72.5995 211.899 71.6643 212.224 70.7218 212.349ZM139.261 206.662V202.523L127.317 204.202V185.701L122.799 186.336V208.973L139.261 206.662ZM196.266 198.651V194.512L184.321 196.191V177.69L179.8 178.325V200.962L196.266 198.651ZM253.704 190.578V186.504L241.325 188.243V182.873L249.403 181.738V177.792L241.325 178.927V173.758L253.58 172.035V167.961L236.801 170.319V192.955L253.704 190.578ZM303.848 183.854C305.566 183.61 307.263 182.985 308.821 182.023C310.353 181.114 311.712 179.884 312.797 178.425L309.834 175.802C309.107 176.801 308.204 177.657 307.183 178.316C306.183 178.953 305.084 179.362 303.972 179.511C303.034 179.653 302.103 179.603 301.233 179.365C300.364 179.126 299.573 178.704 298.906 178.121C298.263 177.55 297.756 176.835 297.413 176.019C297.044 175.153 296.859 174.195 296.866 173.202C296.856 172.201 297.037 171.181 297.398 170.199C297.733 169.286 298.23 168.425 298.862 167.666C299.496 166.911 300.254 166.277 301.092 165.8C301.964 165.298 302.903 164.973 303.851 164.846C304.998 164.681 306.13 164.793 307.156 165.173C308.215 165.568 309.142 166.217 309.869 167.072L312.926 163.505C311.851 162.32 310.484 161.454 308.935 160.978C307.343 160.448 305.611 160.3 303.858 160.543C302.292 160.752 300.739 161.278 299.289 162.09C297.916 162.854 296.661 163.864 295.594 165.068C294.541 166.27 293.703 167.647 293.129 169.117C292.535 170.657 292.228 172.263 292.225 173.842C292.223 175.422 292.525 176.943 293.114 178.319C293.681 179.624 294.513 180.761 295.561 181.663C296.629 182.566 297.883 183.224 299.257 183.601C300.714 184.003 302.275 184.09 303.848 183.854ZM363.658 175.125V156.625L370.984 155.595V151.455L351.776 154.154V158.295L359.135 157.26V175.758L363.658 175.125ZM415.452 167.846V145.21L410.931 145.845V168.481L415.452 167.846ZM467.529 160.883C469.091 160.676 470.638 160.15 472.082 159.338C473.449 158.578 474.693 157.563 475.742 156.353C476.791 155.143 477.625 153.76 478.194 152.286C478.791 150.754 479.098 149.155 479.098 147.583C479.098 146.011 478.791 144.498 478.194 143.134C477.625 141.82 476.791 140.672 475.742 139.756C474.693 138.841 473.449 138.176 472.082 137.8C469.172 137.003 465.918 137.46 463.008 139.075C461.642 139.836 460.398 140.851 459.35 142.061C458.301 143.271 457.467 144.653 456.897 146.127C456.3 147.659 455.992 149.258 455.992 150.83C455.992 152.402 456.3 153.915 456.897 155.279C457.467 156.593 458.301 157.74 459.35 158.656C460.398 159.571 461.642 160.236 463.008 160.613C464.442 161.018 465.979 161.109 467.529 160.88V160.883ZM467.529 156.582C466.591 156.723 465.662 156.661 464.802 156.4C463.979 156.154 463.237 155.73 462.619 155.154C461.992 154.564 461.499 153.837 461.167 153.014C460.46 151.234 460.46 149.153 461.167 147.176C461.502 146.265 461.994 145.405 462.619 144.644C463.237 143.894 463.979 143.262 464.802 142.784C465.662 142.282 466.591 141.959 467.529 141.835C468.472 141.695 469.406 141.757 470.272 142.016C471.1 142.259 471.849 142.682 472.471 143.259C473.095 143.846 473.587 144.567 473.921 145.383C474.629 147.162 474.629 149.243 473.921 151.221C473.59 152.138 473.098 153.003 472.471 153.77C471.849 154.522 471.1 155.155 470.272 155.631C469.406 156.132 468.472 156.455 467.529 156.579V156.582ZM523.877 152.609V137.468L535.009 151.045L539 150.484V127.848L534.76 128.444V143.093L523.908 129.969L519.603 130.574V153.21L523.877 152.609Z" fill="white"/>
<path fill-rule="evenodd" clip-rule="evenodd" d="M3.73585 73.4721C3.58191 72.7565 3.64074 67.8137 3.70288 66.9419C4.68949 66.6613 5.55134 66.5662 6.42049 66.4703C6.61704 66.4486 6.81396 66.4269 7.01278 66.403C7.40444 66.3558 7.87774 66.2745 8.38946 66.1866C10.0893 65.8945 12.2131 65.5295 13.1768 66.103C14.9292 67.1458 15.1348 69.6584 13.4438 71.3582C12.5231 72.2836 11.4425 72.4552 10.2245 72.5973C9.06903 72.7321 7.94597 72.8928 6.82404 73.0533C5.80249 73.1994 4.78057 73.3456 3.73585 73.4721ZM3.76377 63.1416C3.73923 63.0482 3.62192 57.3619 3.74338 56.617C3.74679 56.5964 3.75151 56.5736 3.75596 56.5522C3.7585 56.5399 3.76095 56.5281 3.763 56.5175L3.81461 56.3195C4.34904 56.1699 8.02642 55.6353 8.45881 55.699C11.8346 56.1959 11.6983 60.9691 8.67005 62.2462C7.57714 62.707 6.12784 62.8679 4.88407 63.0059C4.48298 63.0504 4.10327 63.0926 3.76377 63.1416ZM0.742901 77.4916L0.637071 77.4959C0.524337 76.8615 0.390369 76.1847 0.233972 75.4635C-0.0393287 73.8262 -0.0115297 72.3896 0.0181389 70.8564C0.0254496 70.4786 0.0328732 70.095 0.0359347 69.7011L0.0251365 58.2939C0.0154515 56.1024 0.0118769 54.9367 1.58348 53.5381C2.71962 52.5269 4.4392 52.3819 5.93733 52.2556C6.29285 52.2256 6.63589 52.1967 6.95571 52.1575C9.23642 51.8779 10.1806 51.9672 11.6661 52.778C12.961 53.4847 14.0575 54.7722 14.4587 56.7728C14.8611 58.7786 14.5656 59.5311 14.1908 60.4853C14.0198 60.9208 13.8322 61.3983 13.687 62.0562C13.8146 62.175 14.0749 62.2833 14.404 62.4203C14.9759 62.6582 15.7557 62.9826 16.409 63.5992C19.2597 66.2896 18.7012 70.6811 16.0385 73.6388C14.0194 75.8817 11.7053 76.1322 9.03379 76.4213L9.02726 76.422C8.89757 76.4361 8.76704 76.4502 8.63567 76.4647C7.61012 76.5776 6.57814 76.7438 5.54319 76.9106C3.94592 77.168 2.34158 77.4265 0.742901 77.4916Z" fill="white"/>
<path fill-rule="evenodd" clip-rule="evenodd" d="M65.6479 47.401C68.2846 45.8608 71.0511 45.9299 73.0242 46.6086C75.1985 47.3566 76.2591 48.489 77.5839 50.8412C78.7753 52.957 78.126 56.6069 77.3089 58.3614C74.9766 63.3694 69.5975 66.0067 64.9712 64.3656C60.5545 62.7991 58.5087 57.2961 60.8656 52.5542C61.9582 50.356 63.1025 48.8878 65.6479 47.401ZM65.3085 43.6674C64.4984 44.225 63.0673 44.5 60.7944 46.7283C59.5381 47.96 58.6989 49.2048 57.882 50.6557C54.4242 56.7966 56.4036 65.0063 62.775 67.6953C73.1393 72.0693 84.8217 60.2052 81.3445 49.8514C79.7997 45.2518 75.4534 42.3304 70.9491 42.4268C69.689 42.4538 66.6241 42.7621 65.3085 43.6674Z" fill="white"/>
<path fill-rule="evenodd" clip-rule="evenodd" d="M144.244 45.2944C143.814 43.9997 145.086 40.3038 145.648 39.2607C148.133 34.6539 152.213 33.3566 155.141 37.0274C156.513 38.7483 157.003 40.7932 157.149 43.4329C156.507 43.7168 146.43 44.9456 144.244 45.2944ZM144.058 57.2811C144.284 56.6697 144.176 50.3416 144.172 49.1441C144.559 48.9887 156.646 47.2807 157.025 47.3414C157.245 48.0474 157.148 50.4708 157.152 51.4074C157.155 52.3253 157.016 54.8198 157.23 55.5029C161.554 54.432 160.737 50.9149 160.896 48.9228C161 47.6303 160.889 45.988 160.897 44.6197C160.906 42.9163 161.015 41.9862 160.669 40.1227C159.685 34.8305 155.973 30.2123 150.395 31.2744C144.488 32.3991 141.268 38.4805 140.637 43.1625C140.428 44.7072 140.393 49.9437 140.433 51.6413C140.462 52.8474 140.21 54.8758 140.904 55.8905C141.529 56.8048 142.772 57.6842 144.058 57.2811Z" fill="white"/>
<path fill-rule="evenodd" clip-rule="evenodd" d="M24.0665 62.0822C23.5778 59.3164 25.8234 52.8717 30.2022 51.8439C35.1274 50.6879 37.3613 58.2942 36.8859 60.1784C36.085 60.5731 28.9786 61.3954 27.1879 61.6839C26.1246 61.8552 25.0184 61.8688 24.0665 62.0822ZM23.908 74.0723C24.0198 71.7673 23.9779 68.2307 23.907 65.993C24.2638 65.7783 36.3221 64.0608 36.8332 64.1309C37.0616 64.8985 36.8996 67.2136 36.9078 68.1617C36.9168 69.1894 36.8072 71.4863 36.9953 72.3287C40.5877 71.4167 40.8619 68.688 40.6649 65.6992L40.688 61.4182C40.7117 56.8077 40.2415 53.1547 36.8937 50.0182C35.2227 48.4528 33.208 47.6765 30.2352 48.0583C26.9793 48.4764 24.6843 50.9035 23.2727 52.7861C21.8883 54.6325 20.8033 57.3942 20.4395 59.9616C20.0666 62.5939 20.2463 65.6948 20.219 68.4019C20.2057 69.7317 20.0094 71.5391 20.6922 72.7136C21.2924 73.7458 22.5962 74.3906 23.908 74.0723Z" fill="white"/>
<path fill-rule="evenodd" clip-rule="evenodd" d="M127.616 38.5722C130.18 36.9361 132.836 38.1888 133.719 40.0274C134.954 42.5987 133.415 45.3348 131.37 46.5084C125.826 49.6911 122.022 42.1416 127.616 38.5722ZM124.906 51.4121C125.443 51.4703 125.843 51.9916 126.426 52.5056C127.631 53.5679 132.639 58.0525 133.419 58.4002C134.856 59.0401 136.325 58.4208 137.664 57.3218C137.355 56.292 131.148 51.9042 130.615 50.6938C137.342 48.4042 139.318 41.512 136.648 37.2886C133.074 31.6326 123.725 33.8409 121.514 41.4044C120.966 43.2788 121.233 52.1233 121.219 54.3207L121.215 59.7303C121.21 60.2056 121.083 60.4683 121.487 60.4815C121.984 60.4978 123.206 59.7661 123.527 59.44C125.584 57.3526 124.59 54.9564 124.906 51.4121Z" fill="white"/>
<path fill-rule="evenodd" clip-rule="evenodd" d="M119.438 60.7602C118.911 56.113 114.818 58.0319 111.948 58.1888C111.303 58.2241 108.96 58.7922 108.653 58.5802L108.553 58.435C108.545 58.4155 108.522 58.3792 108.514 58.3542C108.392 57.9882 108.526 55.6704 108.497 54.9108C108.45 53.7178 108.485 52.2969 108.507 51.1027C109.939 50.5498 114.928 50.4393 115.83 49.8504C115.704 48.0085 114.559 47.046 113.331 46.8152C112.007 46.5661 109.347 47.3598 108.576 47.2397C108.47 46.7448 108.402 41.9942 108.61 41.4889L115.265 40.5194C116.578 40.3884 117.482 39.9871 118.324 39.1023C118.932 38.4628 119.588 37.2899 119.381 36.2353L114.702 36.8401C114.08 36.9301 113.523 37.0878 112.919 37.1588C107.76 37.7643 104.627 37.4447 104.831 43.9334C104.912 46.5101 104.641 58.8868 104.964 60.1899C105.775 63.4656 110.028 62.205 112.886 61.7563C114.02 61.5781 115.018 61.5211 116.145 61.3032C117.14 61.1109 118.519 61.1237 119.438 60.7602Z" fill="white"/>
<path fill-rule="evenodd" clip-rule="evenodd" d="M103.627 38.518L97.0459 39.3955C94.5141 39.7497 92.4252 40.4805 90.2371 41.9442C80.0413 48.7646 82.1216 63.047 93.4524 64.12C95.5968 64.3231 97.6368 63.8177 99.9141 63.5866C100.414 63.5359 100.975 63.4373 101.509 63.356C103.324 63.0798 104.096 63.5172 103.39 61.7392C102.228 58.8092 98.7753 60.1647 96.6487 60.3354C92.3895 60.6771 88.964 59.3895 87.6189 55.2078C86.2947 51.0906 88.8611 46.7553 92.7089 44.5401C97.2325 41.9359 99.9758 43.9527 102.51 41.3327C103.16 40.6609 103.742 39.6059 103.627 38.518Z" fill="white"/>
<path fill-rule="evenodd" clip-rule="evenodd" d="M46.9961 50.0483C47.2994 51.249 46.809 69.3652 47.1641 70.9094C51.5158 69.6799 50.638 66.3903 50.7256 64.0674C50.8042 61.9832 50.5883 49.9822 50.7989 49.6661C50.9959 49.3706 51.6988 49.3869 51.9101 49.3635C52.779 49.2674 55.004 48.952 55.684 48.5883C57.2214 47.7659 58.0704 46.3415 58.0241 44.8354C57.6014 44.7512 42.8261 46.8236 40.6234 47.1649C39.6728 47.3121 39.5933 47.3755 39.8965 48.3742C40.8776 51.6064 44.653 50.2598 46.9961 50.0483Z" fill="white"/>
<path fill-rule="evenodd" clip-rule="evenodd" d="M115.882 81.6983C123.577 80.6169 130.631 79.7558 137.043 80.6676C156.41 83.3854 168.85 97.4375 168.85 117.123C168.85 135.255 159.231 150.983 143.072 159.988C133.966 165.024 124.988 166.804 115.882 168.083L84.2034 172.536V172.413C81.1692 172.762 78.0764 173.138 75.1562 173.548C69.5131 174.341 63.3566 175.336 57.2005 176.331V173.741C58.8677 173.118 60.0216 172.049 60.0218 170.495C60.0218 169.977 59.7659 167.682 59.3812 166.441L58.2266 162.976L28.8572 167.104L26.9326 172.944C26.8043 173.222 26.5482 174.163 26.5481 174.551C26.5481 176.365 26.5487 176.883 29.3703 177.652V180.242C22.5729 181.068 16.2879 181.821 10.773 182.597C7.56678 183.047 3.8475 183.57 0 184.37V181.779C2.56497 178.699 3.84776 175.281 5.51502 171.679L43.7337 86.7872L46.556 86.3906L82.3379 159.717C83.6914 162.576 85.7213 165.767 87.4665 167.969C90.8717 164.435 90.873 157.396 90.873 148.286V108.526C90.873 97.258 90.8725 88.8393 84.2034 88.7405V86.1503L115.882 81.6983ZM34.4998 148.827L52.4555 146.303L44.1192 125.587L34.4998 148.827ZM138.07 104.354C133.196 99.3402 127.553 98.8375 119.73 99.9369C118.191 100.153 116.267 100.553 114.728 100.899V136.775C114.728 145.452 114.728 148.43 122.167 147.385C136.788 145.33 144.482 134.405 144.482 120.547C144.482 114.72 142.045 108.457 138.07 104.354Z" fill="white"/>
<path d="M305.888 78.437L303.323 78.7976C301.784 75.9056 299.989 74.4738 295.244 75.1406L273.825 78.1514V91.4906L285.496 89.8507C292.806 88.8233 296.141 87.1889 297.937 82.2742L300.63 81.8952C300.502 85.4101 300.373 89.3137 300.373 92.9401C300.373 97.214 300.502 103.542 300.63 111.425L297.937 111.803C295.5 106.706 291.524 107.653 286.009 108.429L273.825 110.141V121.927C273.825 127.236 276.134 126.912 280.366 126.317L290.369 124.912C300.245 123.524 304.093 120.78 305.632 115.643L308.197 115.542L305.76 141.398L243.429 150.158V147.439C249.842 145.372 249.97 136.806 249.97 125.797V86.166C249.97 77.374 250.129 70.2556 246.853 67.5429C245.218 69.611 243.649 72.5367 242.15 75.8681L205.085 157.878L201.623 158.365L165.584 87.9233C163.019 82.9741 161.864 80.1572 158.273 78.3307V75.7405C163.532 75.131 169.047 74.4861 174.434 73.729C179.949 72.954 185.977 71.9773 192.133 70.9826V73.5728C190.209 74.4907 189.054 75.8184 189.054 78.0201C189.054 78.5384 189.953 81.0021 191.235 83.8004L204.316 114.081L217.399 81.03C218.681 77.7416 219.578 74.5068 219.578 73.9888C219.578 71.5284 219.194 70.8049 216.885 70.0933V67.5031C223.811 66.6593 230.095 65.9057 234.969 65.2208C237.732 64.8325 240.591 64.3795 243.429 63.9127V63.7732L305.888 54.995V78.437Z" fill="white"/>
<path d="M398.614 44.5538C392.33 46.4732 392.33 54.762 392.33 66.1591V131.174L388.867 131.661L335.898 92.3512V113.85C335.898 115.663 335.77 118.012 335.77 119.696C335.77 126.949 336.412 132.816 341.926 133.725V136.315C336.283 136.979 330.512 137.66 325.125 138.417C319.098 139.264 313.198 140.223 307.427 141.164V138.573C314.095 136.47 313.968 128.329 313.968 116.932V51.7873L317.174 51.3371L370.398 91.2586V69.241C370.398 56.9373 370.527 50.8318 364.499 49.3478V46.7576C370.527 46.0399 376.17 45.3765 381.044 44.6915C386.558 43.9165 392.586 42.9403 398.614 41.9636V44.5538Z" fill="white"/>
<path d="M465.848 57.1211L463.284 57.4816C461.103 52.9963 456.101 53.3108 447.38 54.5365L443.02 55.1494V98.7953C443.02 110.969 443.404 118.298 449.945 118.544V121.135C443.661 121.888 437.248 122.66 431.092 123.525C425.193 124.354 418.908 125.366 412.496 126.397V123.807C419.164 121.704 419.164 113.933 419.164 102.148V58.5022L414.932 59.0966C406.34 60.3042 401.209 61.414 399.029 66.5122L396.592 66.8551L399.029 41.9044L463.284 32.8748L465.848 57.1211Z" fill="white"/>
<path d="M697.059 23.4616L694.494 23.8221C692.955 20.9301 691.159 19.4982 686.413 20.1651L664.996 23.1759V36.5151L676.667 34.8752C683.977 33.8478 687.312 32.2136 689.107 27.2988L691.8 26.9198C691.672 30.4346 691.544 34.3383 691.544 37.9646C691.544 42.2385 691.672 48.5668 691.8 56.4491L689.107 56.8281C686.67 51.731 682.694 52.678 677.18 53.4531L664.996 55.1651V66.9513C664.996 72.2609 667.304 71.9361 671.536 71.3413L681.54 69.9362C691.415 68.5483 695.263 65.8056 696.802 60.6681L699.367 60.5664L696.93 86.423L638.659 94.6114C634.635 96.0813 630.831 96.6189 626.908 97.1702C614.853 98.8645 611.775 96.966 606.26 88.0278L587.407 57.2626L588.433 55.8232C592.409 55.5235 597.282 53.8024 600.36 50.9091C603.695 47.7207 604.336 44.6518 604.336 40.7665C604.336 39.0829 603.438 36.6191 601.899 35.0222C598.821 31.958 594.588 31.9052 589.202 32.6622L584.457 33.3287V78.9177C584.457 91.4801 584.842 98.4198 591.254 98.6843V101.275C585.355 101.974 579.07 102.728 572.786 103.611C566.887 104.441 560.474 105.471 554.061 106.502V103.912C560.313 101.819 560.591 94.6462 560.602 84.3671V40.4319C560.591 30.3539 560.321 22.9947 554.304 22.7147C548 24.7947 547.875 32.7871 547.875 44.2987V66.5741C547.875 78.4893 548.388 86.8356 541.59 96.8568C535.434 105.752 523.507 112.998 509.527 114.962C495.419 116.945 483.492 113.052 477.336 105.887C470.538 97.9063 471.051 89.1567 471.051 77.3712V55.0948C471.051 43.5685 470.923 35.4277 464.383 35.3106V32.7205C472.847 31.6604 480.029 30.7796 485.544 30.0045C490.29 29.3376 495.676 28.4511 501.191 27.5465V30.1377C494.778 32.0751 494.907 39.8279 494.907 51.7429V72.0762C494.907 80.7535 494.522 87.0245 496.83 90.8444C499.011 94.5527 503.756 96.6056 509.527 95.7946C515.17 95.0015 519.916 91.6142 522.096 87.2929C524.405 82.8241 524.02 76.6617 524.02 67.9848V47.6506C524.02 35.6062 524.148 27.947 517.736 27.8118V25.2217C523.251 24.5761 528.637 23.9482 533.382 23.2813C538.294 22.591 545.309 21.4808 554.061 20.1235V20.1162L586.509 15.5561C595.743 14.2583 603.182 13.4725 608.697 14.3811C621.009 16.4066 628.319 24.5746 628.319 37.0079C628.319 45.8144 624.087 53.1436 615.238 58.7906L633.45 86.9259C634.875 89.0966 635.973 90.3139 637.171 91.0302C641.049 87.655 641.141 80.1078 641.141 70.8218V31.1906C641.141 20.0525 641.397 11.5982 634.599 11.3879V8.79771L697.059 0.0195312V23.4616Z" fill="white"/>
</svg>
