<svg width="200" height="49" viewBox="0 0 200 49" fill="none" xmlns="http://www.w3.org/2000/svg">
<g clip-path="url(#clip0_1092_2869)">
<path fill-rule="evenodd" clip-rule="evenodd" d="M74.0006 15.5077C74.6917 16.5406 75.0347 17.7672 74.9796 19.0087L69.7596 19.0697C69.8206 17.0547 68.5076 16.2917 66.3396 16.2917C64.0196 16.2917 62.7976 17.3298 62.6156 18.5208C62.4626 19.6497 62.9206 20.3218 64.9666 20.7488L68.4166 21.4207C74.1256 22.4887 74.0946 26.2137 73.7586 28.4427C73.2086 32.1067 68.9336 34.8848 63.5596 34.8848C59.1006 34.8848 54.7366 32.8098 55.0116 28.1068L60.3846 28.0758C60.5066 29.8468 61.9416 30.8547 64.1096 30.8547C66.2466 30.8547 68.2316 30.1827 68.4756 28.4727C68.6886 26.9777 67.0706 26.4277 65.1476 26.0607L61.6676 25.3907C58.3696 24.7797 56.5076 22.7038 56.9966 19.1318C57.6066 14.8268 61.9406 12.2317 66.8576 12.2317C70.2606 12.2317 72.7266 13.5897 74.0006 15.5077ZM106.149 30.2447L108.805 12.5057H103.645L100.317 34.5807L114.578 34.5957L116.756 30.2447H106.149ZM99.6176 22.2957C99.6176 29.9097 94.2066 34.8988 86.8846 34.8988C80.4696 34.8988 75.7386 30.6867 75.7386 24.6287C75.7386 17.4678 81.2466 12.2188 88.7316 12.2188C95.1776 12.2188 99.6176 16.3657 99.6176 22.2957ZM94.1076 22.6147C94.1076 18.9327 91.6956 16.2627 88.3406 16.2627C84.4546 16.2627 81.2486 19.9438 81.2486 24.4058C81.2486 28.2168 83.6026 30.8557 86.9876 30.8557C87.5771 30.8562 88.1637 30.7744 88.7306 30.6127C89.1965 30.4798 89.646 30.295 90.0706 30.0618C90.5572 29.7944 91.0098 29.4694 91.4186 29.0938C92.2906 28.2587 92.9798 27.2519 93.4426 26.1368C93.9055 25.0218 94.1319 23.8218 94.1076 22.6147ZM132.625 12.5057L137.022 34.5807H131.923L131.04 29.8787H123.743L121.421 34.5807H116.261L125.92 15.2887L127.313 12.5077L132.625 12.5057ZM130.519 25.3888L129.238 17.4818L125.544 25.3888H130.519ZM192.411 21.4237L188.961 20.7517C186.915 20.3247 186.458 19.6528 186.61 18.5238C186.794 17.3318 188.015 16.2948 190.335 16.2948C192.503 16.2948 193.816 17.0577 193.755 19.0728L198.975 19.0117C199.128 15.4707 196.105 12.2337 190.854 12.2337C185.938 12.2337 181.603 14.8297 180.993 19.1337C180.504 22.7057 182.367 24.7817 185.664 25.3927L189.144 26.0637C191.068 26.4307 192.686 26.9807 192.472 28.4757C192.228 30.1858 190.243 30.8577 188.107 30.8577C185.938 30.8577 184.504 29.8498 184.382 28.0788L179.008 28.1098C178.734 32.8118 183.1 34.8877 187.557 34.8877C192.93 34.8877 197.205 32.1097 197.756 28.4457C198.092 26.2147 198.12 22.4897 192.411 21.4237ZM174.143 12.5057L172.128 26.0297C171.639 29.2067 169.747 30.5187 167.64 30.5187C165.472 30.5187 164.007 29.2057 164.495 26.0297L166.51 12.5057H161.289L159.303 25.7248C158.478 31.2818 160.28 34.8848 166.966 34.8848C173.622 34.8848 176.553 31.2817 177.377 25.8167L179.364 12.5057H174.143ZM157.815 19.3757C157.296 22.7957 155.464 24.5357 153.268 25.6957L155.831 34.5807H150.549L148.442 26.5208H144.748L143.527 34.5807H138.367L141.665 12.5057H151.19C156.624 12.5057 158.426 15.4067 157.815 19.3757ZM150.061 16.4148H146.244L145.328 22.5817H148.993C149.871 22.5778 150.718 22.2578 151.379 21.6803C152.041 21.1027 152.472 20.3063 152.595 19.4368C152.677 19.0646 152.673 18.6783 152.583 18.3079C152.492 17.9375 152.318 17.5929 152.073 17.3007C151.828 17.0085 151.519 16.7767 151.17 16.623C150.821 16.4694 150.442 16.3981 150.061 16.4148Z" fill="white"/>
<g clip-path="url(#clip1_1092_2869)">
<path fill-rule="evenodd" clip-rule="evenodd" d="M74.1881 15.5077C74.8792 16.5406 75.2222 17.7672 75.1671 19.0087L69.9471 19.0697C70.0081 17.0547 68.6951 16.2917 66.5271 16.2917C64.2071 16.2917 62.9851 17.3298 62.8031 18.5208C62.6501 19.6497 63.1081 20.3218 65.1541 20.7488L68.6041 21.4207C74.3131 22.4887 74.2821 26.2137 73.9461 28.4427C73.3961 32.1067 69.1211 34.8848 63.7471 34.8848C59.2881 34.8848 54.9241 32.8098 55.1991 28.1068L60.5721 28.0758C60.6941 29.8468 62.1291 30.8547 64.2971 30.8547C66.4341 30.8547 68.4191 30.1827 68.6631 28.4727C68.8761 26.9777 67.2581 26.4277 65.3351 26.0607L61.8551 25.3907C58.5571 24.7797 56.6951 22.7038 57.1841 19.1318C57.7941 14.8268 62.1281 12.2317 67.0451 12.2317C70.4481 12.2317 72.9141 13.5897 74.1881 15.5077ZM106.336 30.2447L108.992 12.5057H103.832L100.504 34.5807L114.765 34.5957L116.943 30.2447H106.336ZM99.8051 22.2957C99.8051 29.9097 94.3941 34.8988 87.0721 34.8988C80.6571 34.8988 75.9261 30.6867 75.9261 24.6287C75.9261 17.4678 81.4341 12.2188 88.9191 12.2188C95.3651 12.2188 99.8051 16.3657 99.8051 22.2957ZM94.2951 22.6147C94.2951 18.9327 91.8831 16.2627 88.5281 16.2627C84.6421 16.2627 81.4361 19.9438 81.4361 24.4058C81.4361 28.2168 83.7901 30.8557 87.1751 30.8557C87.7646 30.8562 88.3512 30.7744 88.9181 30.6127C89.384 30.4798 89.8335 30.295 90.2581 30.0618C90.7447 29.7944 91.1973 29.4694 91.6061 29.0938C92.4781 28.2587 93.1673 27.2519 93.6301 26.1368C94.093 25.0218 94.3194 23.8218 94.2951 22.6147ZM132.812 12.5057L137.209 34.5807H132.11L131.227 29.8787H123.93L121.608 34.5807H116.448L126.107 15.2887L127.5 12.5077L132.812 12.5057ZM130.706 25.3888L129.425 17.4818L125.731 25.3888H130.706ZM192.598 21.4237L189.148 20.7517C187.102 20.3247 186.645 19.6528 186.797 18.5238C186.981 17.3318 188.202 16.2948 190.522 16.2948C192.69 16.2948 194.003 17.0577 193.942 19.0728L199.162 19.0117C199.315 15.4707 196.292 12.2337 191.041 12.2337C186.125 12.2337 181.79 14.8297 181.18 19.1337C180.691 22.7057 182.554 24.7817 185.851 25.3927L189.331 26.0637C191.255 26.4307 192.873 26.9807 192.659 28.4757C192.415 30.1858 190.43 30.8577 188.294 30.8577C186.125 30.8577 184.691 29.8498 184.569 28.0788L179.195 28.1098C178.921 32.8118 183.287 34.8877 187.744 34.8877C193.117 34.8877 197.392 32.1097 197.943 28.4457C198.279 26.2147 198.307 22.4897 192.598 21.4237ZM174.33 12.5057L172.315 26.0297C171.826 29.2067 169.934 30.5187 167.827 30.5187C165.659 30.5187 164.194 29.2057 164.682 26.0297L166.697 12.5057H161.476L159.49 25.7248C158.665 31.2818 160.467 34.8848 167.153 34.8848C173.809 34.8848 176.74 31.2817 177.564 25.8167L179.551 12.5057H174.33ZM158.002 19.3757C157.483 22.7957 155.651 24.5357 153.455 25.6957L156.018 34.5807H150.736L148.629 26.5208H144.935L143.714 34.5807H138.554L141.852 12.5057H151.377C156.811 12.5057 158.613 15.4067 158.002 19.3757ZM150.248 16.4148H146.431L145.515 22.5817H149.18C150.058 22.5778 150.906 22.2578 151.567 21.6803C152.228 21.1027 152.66 20.3063 152.782 19.4368C152.865 19.0646 152.861 18.6783 152.77 18.3079C152.68 17.9375 152.506 17.5929 152.261 17.3007C152.016 17.0085 151.707 16.7767 151.358 16.623C151.009 16.4694 150.629 16.3981 150.248 16.4148Z" fill="white"/>
<path fill-rule="evenodd" clip-rule="evenodd" d="M74.1881 15.5077C74.8792 16.5406 75.2222 17.7672 75.1671 19.0087L69.9471 19.0697C70.0081 17.0547 68.6951 16.2917 66.5271 16.2917C64.2071 16.2917 62.9851 17.3298 62.8031 18.5208C62.6501 19.6497 63.1081 20.3218 65.1541 20.7488L68.6041 21.4207C74.3131 22.4887 74.2821 26.2137 73.9461 28.4427C73.3961 32.1067 69.1211 34.8848 63.7471 34.8848C59.2881 34.8848 54.9241 32.8098 55.1991 28.1068L60.5721 28.0758C60.6941 29.8468 62.1291 30.8547 64.2971 30.8547C66.4341 30.8547 68.4191 30.1827 68.6631 28.4727C68.8761 26.9777 67.2581 26.4277 65.3351 26.0607L61.8551 25.3907C58.5571 24.7797 56.6951 22.7038 57.1841 19.1318C57.7941 14.8268 62.1281 12.2317 67.0451 12.2317C70.4481 12.2317 72.9141 13.5897 74.1881 15.5077ZM106.336 30.2447L108.992 12.5057H103.832L100.504 34.5807L114.765 34.5957L116.943 30.2447H106.336ZM99.8051 22.2957C99.8051 29.9097 94.3941 34.8988 87.0721 34.8988C80.6571 34.8988 75.9261 30.6867 75.9261 24.6287C75.9261 17.4678 81.4341 12.2188 88.9191 12.2188C95.3651 12.2188 99.8051 16.3657 99.8051 22.2957ZM94.2951 22.6147C94.2951 18.9327 91.8831 16.2627 88.5281 16.2627C84.6421 16.2627 81.4361 19.9438 81.4361 24.4058C81.4361 28.2168 83.7901 30.8557 87.1751 30.8557C87.7646 30.8562 88.3512 30.7744 88.9181 30.6127C89.384 30.4798 89.8335 30.295 90.2581 30.0618C90.7447 29.7944 91.1973 29.4694 91.6061 29.0938C92.4781 28.2587 93.1673 27.2519 93.6301 26.1368C94.093 25.0218 94.3194 23.8218 94.2951 22.6147ZM132.812 12.5057L137.209 34.5807H132.11L131.227 29.8787H123.93L121.608 34.5807H116.448L126.107 15.2887L127.5 12.5077L132.812 12.5057ZM130.706 25.3888L129.425 17.4818L125.731 25.3888H130.706ZM192.598 21.4237L189.148 20.7517C187.102 20.3247 186.645 19.6528 186.797 18.5238C186.981 17.3318 188.202 16.2948 190.522 16.2948C192.69 16.2948 194.003 17.0577 193.942 19.0728L199.162 19.0117C199.315 15.4707 196.292 12.2337 191.041 12.2337C186.125 12.2337 181.79 14.8297 181.18 19.1337C180.691 22.7057 182.554 24.7817 185.851 25.3927L189.331 26.0637C191.255 26.4307 192.873 26.9807 192.659 28.4757C192.415 30.1858 190.43 30.8577 188.294 30.8577C186.125 30.8577 184.691 29.8498 184.569 28.0788L179.195 28.1098C178.921 32.8118 183.287 34.8877 187.744 34.8877C193.117 34.8877 197.392 32.1097 197.943 28.4457C198.279 26.2147 198.307 22.4897 192.598 21.4237ZM174.33 12.5057L172.315 26.0297C171.826 29.2067 169.934 30.5187 167.827 30.5187C165.659 30.5187 164.194 29.2057 164.682 26.0297L166.697 12.5057H161.476L159.49 25.7248C158.665 31.2818 160.467 34.8848 167.153 34.8848C173.809 34.8848 176.74 31.2817 177.564 25.8167L179.551 12.5057H174.33ZM158.002 19.3757C157.483 22.7957 155.651 24.5357 153.455 25.6957L156.018 34.5807H150.736L148.629 26.5208H144.935L143.714 34.5807H138.554L141.852 12.5057H151.377C156.811 12.5057 158.613 15.4067 158.002 19.3757ZM150.248 16.4148H146.431L145.515 22.5817H149.18C150.058 22.5778 150.906 22.2578 151.567 21.6803C152.228 21.1027 152.66 20.3063 152.782 19.4368C152.865 19.0646 152.861 18.6783 152.77 18.3079C152.68 17.9375 152.506 17.5929 152.261 17.3007C152.016 17.0085 151.707 16.7767 151.358 16.623C151.009 16.4694 150.629 16.3981 150.248 16.4148Z" fill="white"/>
</g>
</g>
<g clip-path="url(#clip2_1092_2869)">
<path fill-rule="evenodd" clip-rule="evenodd" d="M22.0721 5.50003C18.157 5.49394 14.311 6.53091 10.9296 8.50428C7.54829 10.4776 4.75366 13.3162 2.83323 16.7279C0.912797 20.1395 -0.0641099 24.0012 0.00299404 27.9157C0.070098 31.8302 1.17879 35.6562 3.21503 39H4.48203C8.77304 34.706 18.5701 24.912 21.2281 22.25C22.7621 23.782 24.8631 21.718 25.4731 21.046C25.1431 20.72 24.7871 20.362 24.4221 19.993C22.9651 18.542 21.7131 20.764 21.7131 20.764L18.5251 17.57C18.5251 17.57 23.5021 15.301 26.2081 18.007L28.2391 20.037L31.9471 16.329C31.7297 15.7412 31.7193 15.0967 31.9177 14.5022C32.116 13.9076 32.5112 13.3985 33.0381 13.0589C33.5649 12.7194 34.1918 12.5697 34.8152 12.6345C35.4386 12.6994 36.0212 12.975 36.4668 13.4157C36.9124 13.8565 37.1944 14.4361 37.2661 15.0588C37.3377 15.6814 37.1949 16.3099 36.8611 16.8404C36.5273 17.3709 36.0225 17.7717 35.4302 17.9765C34.8378 18.1813 34.1933 18.178 33.6031 17.967L29.8851 21.681C30.3061 22.106 30.9401 22.741 31.8991 23.701C34.6111 26.407 32.3321 31.386 32.3321 31.386L29.1431 28.193C29.1431 28.193 31.3621 26.942 29.9121 25.488L28.8601 24.435C28.1891 25.049 26.1231 27.149 27.6561 28.679C25.9871 30.352 21.5081 34.831 17.3391 39H40.9271C42.9619 35.6561 44.0695 31.8306 44.1361 27.9167C44.2026 24.0029 43.2257 20.142 41.3058 16.7308C39.3858 13.3196 36.5921 10.4812 33.2118 8.50739C29.8315 6.53358 25.9865 5.49556 22.0721 5.50003Z" fill="white"/>
</g>
<path d="M87.5474 42.5791C87.1119 42.2652 86.4793 42.1071 85.6472 42.1071H83.7518V48.2752H85.2019V46.0172H85.8564C86.5937 46.0172 87.1703 45.8468 87.5815 45.5013C87.9951 45.1558 88.2019 44.6643 88.2019 44.0293C88.2044 43.3796 87.9854 42.8978 87.5474 42.5791ZM86.4647 44.7179C86.2798 44.876 86.0243 44.9539 85.7007 44.9539L85.2044 44.9393V43.1679H85.7007C86.0195 43.1679 86.2725 43.2458 86.4623 43.3966C86.6521 43.5524 86.7445 43.7689 86.7445 44.0439C86.7445 44.3358 86.6521 44.5597 86.4647 44.7179ZM73.3139 42.1071L70.927 48.2752H72.4112L72.9148 46.9199H75.3674L75.8637 48.2752H77.455L75.0219 42.1071H73.3139ZM73.2944 45.8493L74.163 43.3455L74.9951 45.8493H73.2944ZM57.3893 42.1071L55 48.2752H56.4842L56.9903 46.9199H59.4428L59.9367 48.2752H61.528L59.0949 42.1071H57.3893ZM57.3723 45.8493L58.2384 43.3455L59.0706 45.8493H57.3723ZM82.3187 46.4697C82.2311 46.2289 82.1265 45.9782 82.0049 45.7179C81.8856 45.4575 81.6934 45.2921 81.4331 45.2215C81.8662 45.1315 82.18 44.9514 82.382 44.6716C82.5791 44.3967 82.6813 44.0901 82.6813 43.7543C82.6813 43.1923 82.4915 42.7786 82.1071 42.511C81.7226 42.2433 81.1679 42.1071 80.4428 42.1071H78.0803V48.2752H79.5304V45.769H79.9708C80.2117 45.769 80.4015 45.8468 80.528 45.9977C80.6569 46.1437 80.7616 46.3383 80.8394 46.5671L81.4599 48.2752H83.0146L82.3552 46.55L82.3187 46.4697ZM80.9197 44.5183C80.7324 44.6473 80.472 44.7081 80.1411 44.7081H79.5328V43.1704H80.0973C80.4647 43.1704 80.7397 43.2312 80.9294 43.3528C81.1144 43.4721 81.2068 43.6716 81.2068 43.9417C81.2068 44.1996 81.1095 44.3942 80.9197 44.5183ZM66.2895 46.5038L64.0316 42.1071H62.2287V48.2752H63.5912V43.9125L65.8394 48.1778L65.8905 48.2752H67.6496V42.1071H66.2895V46.5038ZM91.9732 45.7957H93.09V47.1583C93.0049 47.19 92.9075 47.2167 92.7932 47.2386C92.6764 47.263 92.5353 47.2727 92.365 47.2727C91.7397 47.2727 91.2336 47.0829 90.8516 46.7058C90.4672 46.3262 90.2725 45.8274 90.2725 45.1996C90.2725 44.5524 90.4866 44.0414 90.9027 43.6643C91.3236 43.292 91.8905 43.1022 92.6107 43.1022C92.9002 43.1022 93.1849 43.1339 93.4599 43.1947C93.7397 43.258 93.9903 43.3504 94.2238 43.4745L94.3212 42.3431V42.2822C94.0973 42.1922 93.8248 42.1241 93.5085 42.073C93.1922 42.0219 92.8321 42 92.4258 42C91.2871 42 90.3942 42.2798 89.7494 42.837C89.1046 43.3918 88.781 44.1777 88.781 45.1923C88.781 46.1997 89.0949 46.9856 89.7226 47.5403C90.3528 48.0975 91.2238 48.3773 92.3382 48.3773C92.7518 48.3773 93.1581 48.3384 93.5572 48.2654C93.9538 48.1924 94.2652 48.1219 94.4915 48.0513V44.7276H91.9781V45.7957H91.9732ZM142.771 45.7957H143.888V47.1583C143.805 47.19 143.71 47.2167 143.594 47.2386C143.477 47.263 143.333 47.2727 143.163 47.2727C142.54 47.2727 142.032 47.0829 141.652 46.7058C141.268 46.3262 141.075 45.8274 141.075 45.1996C141.075 44.5524 141.285 44.0414 141.703 43.6643C142.122 43.292 142.691 43.1022 143.411 43.1022C143.701 43.1022 143.985 43.1339 144.26 43.1947C144.54 43.258 144.791 43.3504 145.024 43.4745L145.117 42.3431V42.2822C144.895 42.1922 144.625 42.1241 144.311 42.073C143.993 42.0219 143.633 42 143.226 42C142.088 42 141.197 42.2798 140.55 42.837C139.903 43.3918 139.582 44.1777 139.582 45.1923C139.582 46.1997 139.895 46.9856 140.523 47.5403C141.156 48.0975 142.027 48.3773 143.139 48.3773C143.55 48.3773 143.961 48.3384 144.355 48.2654C144.754 48.1924 145.063 48.1219 145.29 48.0513V44.7276H142.776V45.7957H142.771ZM146.516 42.1071H147.968V48.2752H146.516V42.1071ZM101.219 45.7957H102.331V47.1583C102.248 47.19 102.151 47.2167 102.036 47.2386C101.92 47.263 101.776 47.2727 101.608 47.2727C100.981 47.2727 100.474 47.0829 100.092 46.7058C99.708 46.3262 99.5182 45.8274 99.5182 45.1996C99.5182 44.5524 99.7275 44.0414 100.146 43.6643C100.567 43.292 101.134 43.1022 101.854 43.1022C102.144 43.1022 102.426 43.1339 102.703 43.1947C102.981 43.258 103.234 43.3504 103.465 43.4745L103.562 42.3431V42.2822C103.338 42.1922 103.068 42.1241 102.752 42.073C102.436 42.0219 102.075 42 101.669 42C100.53 42 99.6399 42.2798 98.9927 42.837C98.3479 43.3918 98.0219 44.1777 98.0219 45.1923C98.0219 46.1997 98.3358 46.9856 98.9635 47.5403C99.5937 48.0975 100.465 48.3773 101.579 48.3773C101.993 48.3773 102.399 48.3384 102.796 48.2654C103.195 48.1924 103.504 48.1219 103.73 48.0513V44.7276H101.219V45.7957ZM137.209 46.5038L134.954 42.1071H133.148V48.2752H134.509V43.9125L136.757 48.1778L136.813 48.2752H138.572V42.1071H137.209V46.5038ZM153.292 46.5038L151.036 42.1071H149.234V48.2752H150.594V43.9125L152.842 48.1778L152.895 48.2752H154.655V42.1071H153.292V46.5038ZM157.367 47.2021V45.6376H159.762V44.5767H157.367V43.1704H159.951V42.1071H155.915V48.2752H160V47.2021H157.367ZM115.285 46.4089L113.852 42.1071H111.603V48.2752H113.01L112.99 43.3747L114.613 48.1778H115.905L117.56 43.382L117.543 48.2752H118.937V42.1071H116.752L115.285 46.4089ZM106.771 42.1071L104.384 48.2752H105.871L106.375 46.9199H108.827L109.324 48.2752H110.915L108.482 42.1071H106.771ZM106.757 45.8493L107.625 43.3455L108.455 45.8493H106.757ZM121.63 45.6376H124.024V44.5767H121.63V43.1704H124.214V42.1071H120.178V48.2752H124.265V47.2021H121.63V45.6376ZM129.399 45.6376H131.796V44.5767H129.399V43.1704H131.978V42.1071H127.946V48.2752H132.034V47.2021H129.399V45.6376Z" fill="white"/>
<defs>
<clipPath id="clip0_1092_2869">
<rect width="145" height="45" fill="white" transform="translate(55)"/>
</clipPath>
<clipPath id="clip1_1092_2869">
<rect width="145" height="45" fill="white" transform="translate(55)"/>
</clipPath>
<clipPath id="clip2_1092_2869">
<rect width="45" height="45" fill="white"/>
</clipPath>
</defs>
</svg>
