<svg width="429" height="88" viewBox="0 0 429 88" fill="none" xmlns="http://www.w3.org/2000/svg">
<path fill-rule="evenodd" clip-rule="evenodd" d="M12.3844 87.0896C11.1828 87.639 9.94631 87.9137 8.67492 87.9137C7.45004 87.9137 6.30657 87.694 5.24449 87.2544C4.18241 86.8149 3.26375 86.2184 2.48852 85.465C1.71328 84.7115 1.10472 83.8168 0.662829 82.7807C0.220943 81.7447 0 80.6302 0 79.4373C0 78.2443 0.224819 77.1259 0.674458 76.082C1.1241 75.0381 1.73653 74.1395 2.51177 73.386C3.28701 72.6325 4.20567 72.0361 5.26775 71.5965C6.32982 71.157 7.46555 70.9373 8.67492 70.9373C9.97732 70.9373 11.241 71.2159 12.4658 71.7731C13.6907 72.3304 14.683 73.0799 15.4428 74.0217L13.1636 76.3057C12.5899 75.5836 11.9154 75.0303 11.1402 74.6457C10.3649 74.2611 9.54319 74.0688 8.67492 74.0688C7.9462 74.0688 7.26011 74.2062 6.61666 74.4809C5.97321 74.7556 5.41892 75.1323 4.95377 75.6111C4.48863 76.0898 4.12427 76.6549 3.86069 77.3064C3.59711 77.9578 3.46532 78.6681 3.46532 79.4373C3.46532 80.1907 3.60098 80.8932 3.87232 81.5446C4.14365 82.196 4.51577 82.7572 4.98866 83.2281C5.46156 83.699 6.01973 84.0718 6.66318 84.3465C7.30662 84.6212 8.00821 84.7586 8.76795 84.7586C9.62071 84.7586 10.4192 84.5781 11.1634 84.217C11.9077 83.856 12.5666 83.338 13.1403 82.663L15.3497 84.8763C14.5745 85.8024 13.5861 86.5402 12.3844 87.0896ZM56.1428 87.278C55.0885 87.7175 53.9566 87.9373 52.7472 87.9373C51.5534 87.9373 50.4293 87.7175 49.375 87.278C48.3206 86.8385 47.4097 86.238 46.6422 85.4767C45.8747 84.7154 45.2662 83.8128 44.8165 82.769C44.3669 81.7251 44.1421 80.6145 44.1421 79.4373C44.1421 78.26 44.3669 77.1494 44.8165 76.1055C45.2662 75.0617 45.8747 74.1591 46.6422 73.3978C47.4097 72.6365 48.3206 72.0361 49.375 71.5965C50.4293 71.157 51.5534 70.9373 52.7472 70.9373C53.9566 70.9373 55.0885 71.157 56.1428 71.5965C57.1971 72.0361 58.108 72.6365 58.8755 73.3978C59.643 74.1591 60.2515 75.0617 60.7012 76.1055C61.1508 77.1494 61.3756 78.26 61.3756 79.4373C61.3756 80.6145 61.1508 81.7251 60.7012 82.769C60.2515 83.8128 59.643 84.7154 58.8755 85.4767C58.108 86.238 57.1971 86.8385 56.1428 87.278ZM52.7472 84.8057C52.0185 84.8057 51.3402 84.6683 50.7122 84.3936C50.0843 84.1189 49.5416 83.7422 49.0842 83.2634C48.6268 82.7847 48.2664 82.2156 48.0028 81.5564C47.7392 80.8971 47.6074 80.1907 47.6074 79.4373C47.6074 78.6681 47.7392 77.9578 48.0028 77.3064C48.2664 76.6549 48.6268 76.0898 49.0842 75.6111C49.5416 75.1323 50.0843 74.7556 50.7122 74.4809C51.3402 74.2062 52.0185 74.0688 52.7472 74.0688C53.476 74.0688 54.1582 74.2062 54.7939 74.4809C55.4296 74.7556 55.9761 75.1323 56.4335 75.6111C56.8909 76.0898 57.2514 76.6549 57.515 77.3064C57.7785 77.9578 57.9103 78.6681 57.9103 79.4373C57.9103 80.1907 57.7785 80.8971 57.515 81.5564C57.2514 82.2156 56.8909 82.7847 56.4335 83.2634C55.9761 83.7422 55.4296 84.1189 54.7939 84.3936C54.1582 84.6683 53.476 84.8057 52.7472 84.8057ZM103.866 84.6644V87.6783H91.5867V71.1963H94.959V84.6644H103.866ZM146.381 87.6783V84.6644H137.473V71.1963H134.101V87.6783H146.381ZM189.22 84.7115V87.6783H176.615V71.1963H189.127V74.163H179.987V77.9303H186.011V80.8029H179.987V84.7115H189.22ZM226.618 87.9137C227.889 87.9137 229.126 87.639 230.327 87.0896C231.529 86.5402 232.517 85.8024 233.293 84.8763L231.083 82.663C230.509 83.338 229.851 83.856 229.106 84.217C228.362 84.5781 227.564 84.7586 226.711 84.7586C225.951 84.7586 225.249 84.6212 224.606 84.3465C223.963 84.0718 223.404 83.699 222.932 83.2281C222.459 82.7572 222.086 82.196 221.815 81.5446C221.544 80.8932 221.408 80.1907 221.408 79.4373C221.408 78.6681 221.54 77.9578 221.804 77.3064C222.067 76.6549 222.431 76.0898 222.897 75.6111C223.362 75.1323 223.916 74.7556 224.56 74.4809C225.203 74.2062 225.889 74.0688 226.618 74.0688C227.486 74.0688 228.308 74.2611 229.083 74.6457C229.858 75.0303 230.533 75.5836 231.106 76.3057L233.386 74.0217C232.626 73.0799 231.634 72.3304 230.409 71.7731C229.184 71.2159 227.92 70.9373 226.618 70.9373C225.408 70.9373 224.273 71.157 223.211 71.5965C222.149 72.0361 221.23 72.6325 220.455 73.386C219.679 74.1395 219.067 75.0381 218.617 76.082C218.168 77.1259 217.943 78.2443 217.943 79.4373C217.943 80.6302 218.164 81.7447 218.606 82.7807C219.048 83.8168 219.656 84.7115 220.431 85.465C221.207 86.2184 222.125 86.8149 223.187 87.2544C224.249 87.694 225.393 87.9137 226.618 87.9137ZM271.225 74.2101V87.6783H267.853V74.2101H262.364V71.1963H276.69V74.2101H271.225ZM309.855 71.1963H306.483V87.6783H309.855V71.1963ZM352.09 87.278C351.036 87.7175 349.904 87.9373 348.695 87.9373C347.501 87.9373 346.377 87.7175 345.322 87.278C344.268 86.8385 343.357 86.238 342.59 85.4767C341.822 84.7154 341.214 83.8128 340.764 82.769C340.314 81.7251 340.089 80.6145 340.089 79.4373C340.089 78.26 340.314 77.1494 340.764 76.1055C341.214 75.0617 341.822 74.1591 342.59 73.3978C343.357 72.6365 344.268 72.0361 345.322 71.5965C346.377 71.157 347.501 70.9373 348.695 70.9373C349.904 70.9373 351.036 71.157 352.09 71.5965C353.144 72.0361 354.055 72.6365 354.823 73.3978C355.59 74.1591 356.199 75.0617 356.649 76.1055C357.098 77.1494 357.323 78.26 357.323 79.4373C357.323 80.6145 357.098 81.7251 356.649 82.769C356.199 83.8128 355.59 84.7154 354.823 85.4767C354.055 86.238 353.144 86.8385 352.09 87.278ZM348.695 84.8057C347.966 84.8057 347.288 84.6683 346.66 84.3936C346.032 84.1189 345.489 83.7422 345.032 83.2634C344.574 82.7847 344.214 82.2156 343.95 81.5564C343.687 80.8971 343.555 80.1907 343.555 79.4373C343.555 78.6681 343.687 77.9578 343.95 77.3064C344.214 76.6549 344.574 76.0898 345.032 75.6111C345.489 75.1323 346.032 74.7556 346.66 74.4809C347.288 74.2062 347.966 74.0688 348.695 74.0688C349.423 74.0688 350.106 74.2062 350.741 74.4809C351.377 74.7556 351.923 75.1323 352.381 75.6111C352.838 76.0898 353.199 76.6549 353.462 77.3064C353.726 77.9578 353.858 78.6681 353.858 79.4373C353.858 80.1907 353.726 80.8971 353.462 81.5564C353.199 82.2156 352.838 82.7847 352.381 83.2634C351.923 83.7422 351.377 84.1189 350.741 84.3936C350.106 84.6683 349.423 84.8057 348.695 84.8057ZM390.72 76.6589V87.6783H387.534V71.1963H390.744L398.837 81.8625V71.1963H402V87.6783H399.023L390.72 76.6589Z" fill="white"/>
<path d="M348.128 0C340.168 0 333.525 6.64215 333.525 14.6023V40.1108C333.525 48.0709 340.168 54.7131 348.128 54.7131H394.358C402.318 54.7131 408.96 48.0709 408.96 40.1108V14.6023C408.96 6.64215 402.318 0 394.358 0H348.128V0ZM351.436 15.5111H390.707V39.2019H351.436V15.5111Z" fill="white"/>
<path d="M0 1.09009V54.7731H17.9104V16.6012H51.7234V54.7731H69.291V15.6924C69.291 7.73224 62.6488 1.09009 54.6887 1.09009H0V1.09009Z" fill="white"/>
<path d="M81.4087 1.09009V15.2076H130.063V19.0248H92.0726C84.1125 19.0248 77.4703 25.7276 77.4703 33.6877V40.1708C77.4703 48.1309 84.1125 54.7731 92.0726 54.7731H130.063H138H147.634V15.6924C147.634 7.73224 140.992 1.09009 133.032 1.09009H81.4087V1.09009ZM95.7686 33.3241H130.063V40.9585H95.7686V33.3241Z" fill="white"/>
<path d="M158.662 1.09009V54.7731H176.597V16.6012H195.016V54.7731H212.951V16.6012H231.734V54.7731H249.305V15.6924C249.305 7.73224 242.663 1.09009 234.703 1.09009H158.662V1.09009Z" fill="white"/>
<path d="M274.328 0C266.368 0 259.726 6.64215 259.726 14.6023V40.1108C259.726 48.0709 266.368 54.7131 274.328 54.7131H323.407V39.2019H277.979V15.5111H323.407V0H274.328V0Z" fill="white"/>
<path d="M420.445 0.496094C422.786 0.496113 424.796 1.33492 426.478 3.01248C428.159 4.69009 429 6.70661 429 9.06205C429 11.4175 428.163 13.4359 426.489 15.1173C424.815 16.7987 422.801 17.6394 420.445 17.6394C418.082 17.6394 416.06 16.8006 414.379 15.123C412.697 13.4454 411.857 11.4251 411.857 9.06205C411.857 6.69903 412.699 4.68063 414.384 3.0068C416.07 1.33302 418.09 0.496113 420.445 0.496094V0.496094ZM420.423 16.2306C422.384 16.2306 424.068 15.5282 425.472 14.1232C426.877 12.7183 427.58 11.0312 427.58 9.06205C427.58 7.09288 426.879 5.40961 425.478 4.01223C424.077 2.61487 422.392 1.91619 420.423 1.91618C418.453 1.91619 416.77 2.61487 415.373 4.01223C413.975 5.40961 413.277 7.09288 413.277 9.06205C413.277 11.0312 413.975 12.7183 415.373 14.1232C416.77 15.5282 418.453 16.2306 420.423 16.2306ZM424.285 13.8108H422.581L421.865 11.8C421.434 10.5958 420.62 9.99363 419.423 9.99363H418.253V13.8108H416.765V4.59729H420.23C422.668 4.59731 423.888 5.4418 423.888 7.13072C423.888 8.7591 423.089 9.63387 421.491 9.75505C422.309 10.005 422.914 10.5882 423.308 11.5046L424.285 13.8108V13.8108ZM418.253 8.70987H420.116C421.578 8.70987 422.309 8.22895 422.309 7.26707C422.309 6.32034 421.555 5.84698 420.048 5.84698H418.253V8.70987V8.70987Z" fill="white"/>
</svg>
