<svg xmlns="http://www.w3.org/2000/svg" width="475" height="211" viewBox="0 0 475 211">
  <defs>
    <linearGradient id="a" x1="296.068" x2="335.61" y1="9.661" y2="122.355" class="paint0_linear_988" gradientUnits="userSpaceOnUse">
      <stop stop-color="#DF1E25"/>
      <stop offset="1" stop-color="#90191C"/>
    </linearGradient>
  </defs>
  <g class="mainlogo">
    <path fill="url(#a)" d="m432.537 126.946 27.864-35.13-36.625-23.825h35.649V28.536L341.183.45h-19.289l-2.335 2.929-3.176-2.929h-10.602l-10.602 13.358L284.589.449h-10.615L154.979 28.536l67.616 85.237-67.616 96.383h48.055l48.006-60.511 47.994 60.511h133.503l27.864-35.13-40.234-48.08h12.37Z" class="Vector"/>
    <path fill="#FBED21" d="M452.036 35.926v24.677h-83.21v38.603H445.104l-16.138 20.339h-60.14V182.416h76.266l-16.138 20.339h-94.06v-83.21h-25.628l66.331-83.619h76.439Zm-120.231 0-62.526 78.824-3.645 4.597 3.645 4.597 52.43 66.096 10.096 12.728h-29.187l-45.782-57.719-5.795-7.303-5.796 7.303-45.781 57.719h-29.187l62.525-78.824 3.645-4.597-3.645-4.597-62.525-78.823h29.199l45.782 57.718 5.795 7.303 5.795-7.303 45.77-57.718h29.187Zm-128.77-7.389h-48.068l72.04 90.81-72.04 90.81h48.068l48.006-60.511 48.006 60.511H432.537l27.865-35.13h-84.187v-48.093h56.322l27.865-35.13h-84.187V67.992h83.211V28.537H372.026l-78.058 98.41h33.537v58.497l-52.43-66.097 72.027-90.81h-48.067l-47.994 60.511" class="Vector"/>
    <g class="Group 510">
      <path fill="#fff" d="M451.117 210.157v-7.261h2.8v-1.646h-7.491v1.646h3.045v7.261h1.646ZM460.253 207.816l-2.342-6.566h-2.587v8.907h1.646v-6.803l2.349 6.803h1.646l2.341-6.803v6.803h1.638v-8.907h-2.342l-2.349 6.566Z" class="Vector"/>
    </g>
    <path fill="#fff" d="M181.678 91.757h.442c.511 0 .753-.149.753-.522 0-.386-.255-.554-.803-.554h-.398l.006 1.076Zm3.175.256a2.708 2.708 0 0 1-2.708 2.701 2.714 2.714 0 0 1-2.714-2.701 2.72 2.72 0 0 1 2.714-2.714 2.711 2.711 0 0 1 2.708 2.714Zm-2.708-3.349a3.336 3.336 0 0 0-3.342 3.349 3.339 3.339 0 0 0 3.342 3.342c1.849 0 3.355-1.5 3.355-3.342a3.35 3.35 0 0 0-3.355-3.349Zm.087 1.444c1.046 0 1.581.361 1.581 1.07 0 .486-.305.853-.821.984l.834 1.656h-1.002l-.704-1.513h-.442v1.513h-.902v-3.704l1.456-.006ZM74.35 88.664H39.567v9.379H52.38v52.121h9.17V98.043h12.813c-.012-3.139-.012-6.253-.012-9.379ZM27.963 90.184c-1.26-1.1-2.903-1.631-4.547-1.631-2.175 0-4.362.914-5.721 2.656-1.36 1.52-1.594 3.596-2.187 5.462C10.33 114.49 5.165 132.32 0 150.14h9.564c1.508-5.165 2.99-10.33 4.51-15.471 4.14 0 8.267-.012 12.394-.012 2.064 0 4.127 0 6.203.012 1.508 5.165 2.99 10.331 4.486 15.471h9.613c-5.437-18.696-10.886-37.367-16.323-56.063-.445-1.47-1.273-2.867-2.484-3.892Zm-6.858 35.723c-1.507 0-3.002 0-4.51-.012 2.25-7.748 4.486-15.495 6.76-23.243 2.26 7.748 4.51 15.495 6.746 23.243-2.99 0-5.993.012-8.996.012ZM92.985 88.752a6.873 6.873 0 0 0-1.742-.223c-2.348 0-4.67 1.15-6.005 3.077-1.063 1.397-1.273 3.176-1.805 4.807-5.202 17.905-10.416 35.822-15.581 53.752h9.551c1.483-5.165 3.003-10.306 4.486-15.471h18.572c1.508 5.165 2.978 10.306 4.461 15.471 3.213-.025 6.413 0 9.638-.025-5.424-18.671-10.886-37.342-16.298-56.013-.68-2.546-2.67-4.782-5.277-5.375Zm-8.538 37.169c2.224-7.772 4.485-15.545 6.734-23.293 2.224 7.773 4.51 15.521 6.735 23.293h-13.47ZM143.945 124.611c1.804-1.335 3.892-2.225 5.573-3.732 3.176-2.756 4.906-6.883 5.227-11.01.469-3.942.272-8.131-1.57-11.727-2.669-5.548-8.526-9.378-14.692-9.49-2.446 0-4.868.013-7.315.013-1.223 0-2.434 0-3.658-.013h-.222c-.853 0-1.705.112-2.521.383-3.002.952-5.251 3.942-5.288 7.118v54.011h9.255c0-16.718-.025-33.449 0-50.168 0-1.063.976-1.99 2.039-1.99h.037c1.581 0 3.163.013 4.745.013.791 0 1.581 0 2.372-.013h.235c3.336 0 6.45 2.583 7.167 5.833.618 2.558.704 5.437-.704 7.785-1.817 3.114-5.079 5.078-8.378 6.351-1.73.68-3.287 1.965-3.942 3.744-.828 2.311-.47 4.992.927 7.031 4.72 7.13 9.415 14.285 14.16 21.427h10.887c-4.955-7.427-10.009-14.804-14.865-22.292-.507-1.075-.47-2.533.531-3.274ZM172.834 88.664h-9.713v61.5h9.713v-61.5Z" class="Vector"/>
  </g>
</svg>
