<svg width="475" height="211" viewBox="0 0 475 211" fill="none" xmlns="http://www.w3.org/2000/svg">
<path d="M452.036 35.9265V60.603H376.215H368.826V67.9923V91.8162V99.2056H376.215H445.104L428.966 119.545H376.215H368.826V126.934V175.027V182.416H376.215H412.334H430.634H445.092L428.954 202.755H384.457H347.102H334.894V185.431V126.934V119.545H327.505H309.266L375.597 35.9265H420.094H452.036ZM331.805 35.9265L269.279 114.75L265.634 119.347L269.279 123.944L321.709 190.04L331.805 202.768H329.964H302.618L256.836 145.049L251.041 137.746L245.245 145.049L199.464 202.768H170.277L232.802 123.944L236.447 119.347L232.802 114.75L170.277 35.9265H199.476L245.258 93.645L251.053 100.948L256.848 93.645L302.618 35.9265H331.805ZM203.035 28.5371H154.967L227.007 119.347L154.967 210.157H203.035L251.041 149.646L299.047 210.157H329.964H347.102H384.469H430.634H432.537L460.402 175.027H430.634H412.334H376.215V126.934H432.537L460.402 91.8038H376.215V67.9923H459.426V28.5371H420.094H373.904H372.026L293.968 126.947H327.505V185.444L275.075 119.347L347.102 28.5371H299.035L251.041 89.0483" fill="white"/>
<path d="M451.117 210.157V202.896H453.917V201.25H446.426V202.896H449.471V210.157H451.117Z" fill="white"/>
<path d="M460.253 207.816L457.911 201.25H455.324V210.157H456.97V203.354L459.319 210.157H460.965L463.306 203.354V210.157H464.944V201.25H462.602L460.253 207.816Z" fill="white"/>
<path d="M181.678 91.7575H182.12C182.631 91.7575 182.873 91.6081 182.873 91.2347C182.873 90.8488 182.618 90.6807 182.07 90.6807H181.672L181.678 91.7575ZM184.853 92.0127C184.853 93.5003 183.639 94.714 182.145 94.714C180.651 94.714 179.431 93.5003 179.431 92.0127C179.431 90.5189 180.651 89.2989 182.145 89.2989C183.639 89.2989 184.853 90.5127 184.853 92.0127ZM182.145 88.6641C180.29 88.6641 178.803 90.1579 178.803 92.0127C178.803 93.8551 180.29 95.3551 182.145 95.3551C183.994 95.3551 185.5 93.8551 185.5 92.0127C185.5 90.1579 183.994 88.6641 182.145 88.6641ZM182.232 90.1081C183.278 90.1081 183.813 90.4691 183.813 91.1786C183.813 91.6641 183.508 92.0314 182.992 92.1621L183.826 93.8177H182.824L182.12 92.3052H181.678V93.8177H180.776V90.1143L182.232 90.1081Z" fill="white"/>
<path d="M74.3508 88.6641C62.7724 88.6641 51.1694 88.6641 39.5664 88.6641C39.5664 91.8027 39.5664 94.9042 39.5664 98.0429C43.8419 98.0429 48.0926 98.0429 52.3804 98.0429C52.3804 115.429 52.3804 132.778 52.3804 150.164C55.4325 150.164 58.497 150.164 61.5491 150.164C61.5491 132.778 61.5491 115.429 61.5491 98.0429C65.8246 98.0429 70.0753 98.0429 74.3631 98.0429C74.3508 94.9042 74.3508 91.7903 74.3508 88.6641Z" fill="white"/>
<path d="M27.9634 90.1838C26.703 89.0841 25.0596 88.5527 23.4161 88.5527C21.2413 88.5527 19.0542 89.4671 17.6949 91.2094C16.3357 92.7293 16.1009 94.8053 15.5078 96.6711C10.3303 114.49 5.16514 132.32 0 150.139C3.20041 150.139 6.3761 150.139 9.56415 150.139C11.0717 144.974 12.5545 139.809 14.0744 134.668C18.2139 134.668 22.3411 134.656 26.4682 134.656C28.5318 134.656 30.5954 134.656 32.6713 134.668C34.1789 139.833 35.6617 144.999 37.1569 150.139C40.3573 150.139 43.57 150.139 46.7704 150.139C41.3334 131.443 35.8841 112.772 30.4471 94.0762C30.0023 92.6058 29.1744 91.2094 27.9634 90.1838ZM21.1054 125.907C19.5979 125.907 18.1027 125.907 16.5952 125.895C18.8441 118.147 21.0807 110.4 23.3543 102.652C25.6156 110.4 27.8645 118.147 30.1011 125.895C27.1108 125.895 24.1081 125.907 21.1054 125.907Z" fill="white"/>
<path d="M92.9853 88.7517C92.4169 88.6034 91.8361 88.5293 91.243 88.5293C88.8952 88.5293 86.5721 89.6785 85.2376 91.6061C84.1749 93.0025 83.9648 94.7818 83.4335 96.4129C78.2313 114.318 73.0167 132.235 67.8516 150.165C71.0273 150.165 74.2277 150.165 77.4034 150.165C78.8862 145 80.4061 139.859 81.8889 134.694C88.0673 134.694 94.2704 134.694 100.461 134.694C101.969 139.859 103.439 145 104.922 150.165C108.135 150.14 111.335 150.165 114.56 150.14C109.136 131.469 103.674 112.798 98.2616 94.1269C97.582 91.5814 95.5925 89.3448 92.9853 88.7517ZM84.4467 125.921C86.671 118.149 88.9322 110.376 91.1812 102.628C93.4054 110.401 95.6914 118.149 97.9156 125.921C93.4301 125.921 88.9446 125.921 84.4467 125.921Z" fill="white"/>
<path d="M143.945 124.611C145.749 123.276 147.837 122.386 149.518 120.879C152.694 118.123 154.424 113.996 154.745 109.869C155.214 105.927 155.017 101.738 153.175 98.1424C150.506 92.5942 144.649 88.7636 138.483 88.6523C136.037 88.6523 133.615 88.6647 131.168 88.6647C129.945 88.6647 128.734 88.6647 127.51 88.6523C127.436 88.6523 127.362 88.6523 127.288 88.6523C126.435 88.6523 125.583 88.7636 124.767 89.0354C121.765 89.9869 119.516 92.9772 119.479 96.1529C119.479 114.169 119.479 132.148 119.479 150.164C122.568 150.164 125.645 150.164 128.734 150.164C128.734 133.446 128.709 116.715 128.734 99.9959C128.734 98.9332 129.71 98.0064 130.773 98.0064C130.785 98.0064 130.797 98.0064 130.81 98.0064C132.391 98.0064 133.973 98.0188 135.555 98.0188C136.346 98.0188 137.136 98.0188 137.927 98.0064C138.001 98.0064 138.088 98.0064 138.162 98.0064C141.498 98.0064 144.612 100.589 145.329 103.839C145.947 106.397 146.033 109.276 144.625 111.624C142.808 114.738 139.546 116.702 136.247 117.975C134.517 118.655 132.96 119.94 132.305 121.719C131.477 124.03 131.835 126.711 133.232 128.75C137.952 135.88 142.647 143.035 147.392 150.177C151.038 150.177 154.658 150.177 158.279 150.177C153.324 142.75 148.27 135.373 143.414 127.885C142.907 126.81 142.944 125.352 143.945 124.611Z" fill="white"/>
<path d="M172.834 88.6641H163.121V150.164H172.834V88.6641Z" fill="white"/>
</svg>
