<svg width="355" height="103" viewBox="0 0 355 103" fill="none" xmlns="http://www.w3.org/2000/svg">
<path fill-rule="evenodd" clip-rule="evenodd" d="M6.09136 76.3662V101.211H0V46H39.6334V51.3634H6.09136V71.0817H28.0836V76.3662H6.09136ZM57.4329 100.777C55.2969 101.54 52.9896 101.921 50.5109 101.921C46.1863 101.921 42.6659 100.817 39.9499 98.6085C37.2338 96.4 35.8758 93.5343 35.8758 90.0113C35.8758 86.3305 37.2997 83.3991 40.1476 81.2169C42.9955 79.0347 46.8455 77.9437 51.6975 77.9437C53.8071 77.9437 55.8507 78.1803 57.8284 78.6535C59.8061 79.1268 61.6388 79.784 63.3265 80.6254V75.4197C63.3265 72.2648 62.4299 69.8854 60.6368 68.2817C58.8436 66.6779 56.2331 65.8761 52.805 65.8761C50.8537 65.8761 48.8891 66.1521 46.9114 66.7042C44.9337 67.2563 42.7582 68.1371 40.385 69.3465L38.1699 64.8507C41.0178 63.4836 43.6548 62.4845 46.0808 61.8535C48.5068 61.2225 50.9328 60.907 53.3588 60.907C58.369 60.907 62.2321 62.0901 64.9482 64.4563C67.6643 66.8225 69.0223 70.2141 69.0223 74.631V101.211H63.3265V97.3465C61.5333 98.8714 59.5688 100.015 57.4329 100.777ZM51.5393 97.3465C48.5859 97.3465 46.1731 96.6498 44.3008 95.2563C42.4286 93.8629 41.4925 92.062 41.4925 89.8535C41.4925 87.5399 42.4286 85.6864 44.3008 84.293C46.1731 82.8995 48.6914 82.2028 51.8557 82.2028C54.1235 82.2028 56.1935 82.4526 58.0657 82.9521C59.938 83.4516 61.6915 84.2535 63.3265 85.3577V92.7718C61.7443 94.3493 59.9775 95.5061 58.0262 96.2423C56.0748 96.9784 53.9125 97.3465 51.5393 97.3465ZM114.035 61.6958L96.9476 101.211H91.41L74.2435 61.6958H80.7304L94.2579 93.6394L107.786 61.6958H114.035ZM137.847 102C140.642 102 143.266 101.474 145.718 100.423C148.17 99.3709 150.306 97.9249 152.126 96.0845C153.945 94.2441 155.383 92.062 156.437 89.538C157.492 87.0141 158.02 84.3061 158.02 81.4141C158.02 78.5746 157.492 75.893 156.437 73.369C155.383 70.8451 153.945 68.6629 152.126 66.8225C150.306 64.9822 148.17 63.5361 145.718 62.4845C143.266 61.4329 140.642 60.907 137.847 60.907C135.052 60.907 132.415 61.4329 129.936 62.4845C127.457 63.5361 125.308 64.9822 123.489 66.8225C121.669 68.6629 120.232 70.8451 119.177 73.369C118.122 75.893 117.595 78.5746 117.595 81.4141C117.595 84.3061 118.122 87.0141 119.177 89.538C120.232 92.062 121.669 94.2441 123.489 96.0845C125.308 97.9249 127.457 99.3709 129.936 100.423C132.415 101.474 135.052 102 137.847 102ZM132.151 95.6113C133.944 96.4 135.843 96.7944 137.847 96.7944C139.851 96.7944 141.736 96.4 143.503 95.6113C145.27 94.8225 146.799 93.7315 148.091 92.338C149.383 90.9446 150.399 89.3146 151.137 87.4479C151.875 85.5812 152.245 83.57 152.245 81.4141C152.245 79.2582 151.875 77.2469 151.137 75.3803C150.399 73.5136 149.383 71.8967 148.091 70.5296C146.799 69.1624 145.27 68.0845 143.503 67.2958C141.736 66.507 139.851 66.1127 137.847 66.1127C135.843 66.1127 133.957 66.507 132.191 67.2958C130.424 68.0845 128.894 69.1624 127.602 70.5296C126.31 71.8967 125.282 73.5136 124.517 75.3803C123.752 77.2469 123.37 79.2582 123.37 81.4141C123.37 83.57 123.739 85.5812 124.477 87.4479C125.216 89.3146 126.231 90.9446 127.523 92.338C128.815 93.7315 130.358 94.8225 132.151 95.6113ZM181.357 102C183.941 102 186.274 101.553 188.358 100.659C190.441 99.7653 192.247 98.4244 193.777 96.6366V101.211H199.631V61.6958H193.777V90.7211C192.616 92.6667 191.1 94.1784 189.228 95.2563C187.356 96.3343 185.233 96.8732 182.86 96.8732C179.484 96.8732 176.795 95.8479 174.791 93.7972C172.786 91.7465 171.784 88.9859 171.784 85.5155V61.6958H166.009V86.6986C166.009 91.2207 167.433 94.9014 170.281 97.7408C173.129 100.58 176.821 102 181.357 102ZM215.452 74.1577V101.211H209.598V61.6958H215.452V67.2958C216.613 65.2451 218.142 63.6545 220.041 62.5239C221.939 61.3934 224.102 60.8282 226.528 60.8282C227.266 60.8282 227.925 60.8676 228.505 60.9465C229.085 61.0254 229.666 61.17 230.246 61.3803V66.7437C229.56 66.5333 228.874 66.3624 228.189 66.231C227.503 66.0995 226.818 66.0338 226.132 66.0338C223.706 66.0338 221.57 66.7305 219.724 68.1239C217.878 69.5174 216.454 71.5286 215.452 74.1577ZM239.897 54.1239C241.004 54.1239 241.941 53.7296 242.705 52.9408C243.47 52.1521 243.852 51.2319 243.852 50.1803C243.852 49.0761 243.47 48.1427 242.705 47.3803C241.941 46.6178 241.004 46.2366 239.897 46.2366C238.842 46.2366 237.919 46.6178 237.128 47.3803C236.337 48.1427 235.941 49.0761 235.941 50.1803C235.941 51.2319 236.337 52.1521 237.128 52.9408C237.919 53.7296 238.842 54.1239 239.897 54.1239ZM242.824 61.6958V101.211H236.97V61.6958H242.824ZM268.376 101.921C269.536 101.921 270.736 101.842 271.975 101.685C273.215 101.527 274.336 101.264 275.338 100.896V95.769C274.336 96.1371 273.399 96.4 272.529 96.5577C271.659 96.7155 270.67 96.7944 269.563 96.7944C267.4 96.7944 265.845 96.3343 264.895 95.4141C263.946 94.4939 263.471 92.9822 263.471 90.8789V66.6648H275.417V61.6958H263.471V50.1803L257.696 51.6789V61.6958H249.153V66.6648H257.696V92.3775C257.696 95.4798 258.619 97.846 260.465 99.4761C262.311 101.106 264.948 101.921 268.376 101.921ZM308.128 100.699C305.729 101.514 303.105 101.921 300.257 101.921C297.409 101.921 294.732 101.395 292.227 100.344C289.722 99.292 287.56 97.846 285.74 96.0056C283.921 94.1653 282.484 91.9962 281.429 89.4986C280.374 87.0009 279.847 84.3061 279.847 81.4141C279.847 78.5746 280.361 75.9192 281.389 73.4479C282.418 70.9765 283.802 68.8207 285.543 66.9803C287.283 65.1399 289.353 63.6939 291.753 62.6423C294.152 61.5906 296.697 61.0648 299.387 61.0648C302.024 61.0648 304.489 61.5906 306.783 62.6423C309.077 63.6939 311.055 65.1399 312.716 66.9803C314.378 68.8207 315.696 70.9765 316.672 73.4479C317.648 75.9192 318.135 78.5746 318.135 81.4141V83.2282H285.622C286.044 87.1192 287.652 90.3531 290.447 92.9296C293.243 95.5061 296.591 96.7944 300.494 96.7944C302.551 96.7944 304.555 96.4789 306.506 95.8479C308.458 95.2169 310.093 94.323 311.411 93.1662L315.05 97.031C312.835 98.661 310.528 99.8836 308.128 100.699ZM312.281 78.5746H285.78C286.307 74.9465 287.824 71.9756 290.329 69.662C292.834 67.3484 295.8 66.1915 299.228 66.1915C302.498 66.1915 305.359 67.3878 307.812 69.7803C310.264 72.1728 311.754 75.1042 312.281 78.5746ZM345.27 101.014C343.318 101.619 341.209 101.921 338.941 101.921C335.671 101.921 332.599 101.382 329.725 100.304C326.85 99.2263 324.359 97.7146 322.249 95.769L325.809 91.9831C327.602 93.6657 329.619 94.9671 331.861 95.8873C334.102 96.8075 336.383 97.2676 338.704 97.2676C341.868 97.2676 344.452 96.6103 346.456 95.2958C348.46 93.9812 349.462 92.2723 349.462 90.169C349.462 88.4864 348.869 87.1587 347.682 86.1859C346.496 85.2131 344.637 84.5427 342.105 84.1746L335.223 83.2282C331.267 82.6498 328.327 81.4798 326.402 79.7183C324.477 77.9568 323.515 75.5775 323.515 72.5803C323.515 69.2676 324.912 66.5202 327.708 64.338C330.503 62.1559 334.063 61.0648 338.387 61.0648C341.235 61.0648 343.938 61.4854 346.496 62.3268C349.054 63.1681 351.546 64.4826 353.972 66.2704L350.886 70.2141C348.671 68.7418 346.522 67.6376 344.439 66.9014C342.356 66.1653 340.233 65.7972 338.071 65.7972C335.381 65.7972 333.179 66.4019 331.465 67.6113C329.751 68.8207 328.894 70.3981 328.894 72.3437C328.894 74.0263 329.474 75.3277 330.635 76.2479C331.795 77.1681 333.667 77.8122 336.251 78.1803L343.134 79.1268C347.089 79.6526 350.056 80.8225 352.033 82.6366C354.011 84.4507 355 86.8563 355 89.8535C355 91.5362 354.591 93.1268 353.774 94.6254C352.956 96.1239 351.822 97.4122 350.372 98.4901C348.922 99.5681 347.221 100.409 345.27 101.014Z" fill="white"/>
</svg>
