<svg width="388" height="118" viewBox="0 0 388 118" fill="none" xmlns="http://www.w3.org/2000/svg">
<path d="M6.09839 102V46.5601H45.7776V51.9457H12.1968V71.7457H34.2144V77.0521H12.1968V102H6.09839Z" fill="white"/>
<path d="M59.7329 102.713C55.4033 102.713 51.8657 101.604 49.1201 99.3865C46.4273 97.1689 45.0809 94.2913 45.0809 90.7537C45.0809 87.0577 46.5065 84.1273 49.3577 81.9625C52.2089 79.7449 56.0633 78.6361 60.9209 78.6361C63.0329 78.6361 65.0657 78.8737 67.0193 79.3489C69.0257 79.8241 70.8737 80.4841 72.5633 81.3289V76.1017C72.5633 72.9337 71.6657 70.5577 69.8705 68.9737C68.0753 67.3369 65.4617 66.5185 62.0297 66.5185C60.0761 66.5185 58.0961 66.8089 56.0897 67.3897C54.1361 67.9177 51.9713 68.7889 49.5953 70.0033L47.3777 65.4889C50.2289 64.1161 52.8689 63.1129 55.2977 62.4793C57.7265 61.8457 60.1553 61.5289 62.5841 61.5289C67.6001 61.5289 71.4545 62.7169 74.1473 65.0929C76.8929 67.4689 78.2657 70.8745 78.2657 75.3097V102H72.5633V98.1193C70.7681 99.6505 68.7881 100.812 66.6233 101.604C64.5113 102.343 62.2145 102.713 59.7329 102.713ZM50.7041 90.5953C50.7041 92.8129 51.6281 94.6345 53.4761 96.0601C55.3769 97.4329 57.8057 98.1193 60.7625 98.1193C63.1385 98.1193 65.3033 97.7497 67.2569 97.0105C69.2105 96.2713 70.9793 95.1097 72.5633 93.5257V86.0809C70.9265 84.9721 69.1577 84.1801 67.2569 83.7049C65.4089 83.1769 63.3497 82.9129 61.0793 82.9129C57.9113 82.9129 55.3769 83.6257 53.4761 85.0513C51.6281 86.4241 50.7041 88.2721 50.7041 90.5953Z" fill="white"/>
<path d="M98.5613 102L81.3749 62.3209H87.8693L101.412 94.3969L114.956 62.3209H121.212L104.105 102H98.5613Z" fill="white"/>
<path d="M123.205 82.1209C123.205 79.2697 123.733 76.5769 124.789 74.0425C125.845 71.5081 127.271 69.3169 129.066 67.4689C130.914 65.6209 133.079 64.1689 135.561 63.1129C138.042 62.0569 140.682 61.5289 143.481 61.5289C146.279 61.5289 148.893 62.0569 151.321 63.1129C153.803 64.1689 155.941 65.6209 157.737 67.4689C159.585 69.3169 161.037 71.5081 162.093 74.0425C163.149 76.5769 163.677 79.2697 163.677 82.1209C163.677 85.0249 163.149 87.7441 162.093 90.2785C161.037 92.8129 159.585 95.0041 157.737 96.8521C155.941 98.7001 153.803 100.152 151.321 101.208C148.893 102.264 146.279 102.792 143.481 102.792C140.682 102.792 138.042 102.264 135.561 101.208C133.079 100.152 130.914 98.7001 129.066 96.8521C127.271 95.0041 125.845 92.8129 124.789 90.2785C123.733 87.7441 123.205 85.0249 123.205 82.1209ZM143.481 97.5649C145.487 97.5649 147.361 97.1689 149.104 96.3769C150.899 95.5849 152.43 94.5025 153.697 93.1297C155.017 91.7041 156.047 90.0673 156.786 88.2193C157.525 86.3185 157.895 84.2857 157.895 82.1209C157.895 79.9561 157.525 77.9497 156.786 76.1017C156.047 74.2009 155.017 72.5641 153.697 71.1913C152.43 69.8185 150.899 68.7361 149.104 67.9441C147.361 67.1521 145.487 66.7561 143.481 66.7561C141.474 66.7561 139.573 67.1521 137.778 67.9441C136.036 68.7361 134.505 69.8185 133.185 71.1913C131.917 72.5641 130.888 74.2009 130.096 76.1017C129.357 77.9497 128.987 79.9561 128.987 82.1209C128.987 84.2857 129.357 86.3185 130.096 88.2193C130.835 90.0673 131.838 91.7041 133.105 93.1297C134.425 94.5025 135.983 95.5849 137.778 96.3769C139.573 97.1689 141.474 97.5649 143.481 97.5649Z" fill="white"/>
<path d="M171.82 102V62.3209H177.681V67.9441C178.842 65.8849 180.374 64.3009 182.274 63.1921C184.175 62.0305 186.34 61.4497 188.769 61.4497C189.508 61.4497 190.168 61.5025 190.749 61.6081C191.33 61.6609 191.91 61.7929 192.491 62.0041V67.3897C191.805 67.1785 191.118 67.0201 190.432 66.9145C189.746 66.7561 189.059 66.6769 188.373 66.6769C185.944 66.6769 183.806 67.3897 181.958 68.8153C180.11 70.1881 178.684 72.1945 177.681 74.8345V102H171.82Z" fill="white"/>
<path d="M202.13 54.7177C201.074 54.7177 200.15 54.3217 199.358 53.5297C198.566 52.7377 198.17 51.8137 198.17 50.7577C198.17 49.6489 198.566 48.7249 199.358 47.9857C200.15 47.1937 201.074 46.7977 202.13 46.7977C203.239 46.7977 204.163 47.1937 204.902 47.9857C205.694 48.7249 206.09 49.6489 206.09 50.7577C206.09 51.8137 205.694 52.7377 204.902 53.5297C204.163 54.3217 203.239 54.7177 202.13 54.7177ZM205.061 62.3209V102H199.2V62.3209H205.061Z" fill="white"/>
<path d="M219.966 93.1297V67.3105H211.412V62.3209H219.966V52.2625L225.747 50.7577V62.3209H237.706V67.3105H225.747V91.6249C225.747 93.7369 226.222 95.2681 227.173 96.2185C228.123 97.1161 229.681 97.5649 231.846 97.5649C232.954 97.5649 233.931 97.4857 234.776 97.3273C235.674 97.1689 236.624 96.9049 237.627 96.5353V101.683C236.624 102.053 235.489 102.317 234.222 102.475C233.007 102.634 231.819 102.713 230.658 102.713C227.226 102.713 224.586 101.894 222.738 100.258C220.89 98.6209 219.966 96.2449 219.966 93.1297Z" fill="white"/>
<path d="M276.167 97.8025C273.949 99.4393 271.626 100.68 269.197 101.525C266.821 102.317 264.207 102.713 261.356 102.713C258.505 102.713 255.812 102.185 253.278 101.129C250.796 100.073 248.631 98.6209 246.783 96.7729C244.988 94.9249 243.563 92.7601 242.507 90.2785C241.451 87.7441 240.923 85.0249 240.923 82.1209C240.923 79.2697 241.424 76.6033 242.427 74.1217C243.483 71.6401 244.883 69.4753 246.625 67.6273C248.367 65.7793 250.427 64.3273 252.803 63.2713C255.231 62.2153 257.792 61.6873 260.485 61.6873C263.125 61.6873 265.58 62.2153 267.851 63.2713C270.174 64.3273 272.154 65.7793 273.791 67.6273C275.48 69.4753 276.8 71.6401 277.751 74.1217C278.754 76.6033 279.255 79.2697 279.255 82.1209V83.9425H246.704C247.127 87.8497 248.737 91.0969 251.535 93.6841C254.334 96.2713 257.687 97.5649 261.594 97.5649C263.653 97.5649 265.659 97.2481 267.613 96.6145C269.567 95.9809 271.203 95.0833 272.523 93.9217L276.167 97.8025ZM260.327 66.8353C256.895 66.8353 253.911 67.9969 251.377 70.3201C248.895 72.6433 247.391 75.6265 246.863 79.2697H273.395C272.867 75.7849 271.362 72.8545 268.88 70.4785C266.451 68.0497 263.6 66.8353 260.327 66.8353Z" fill="white"/>
<path d="M283.796 96.5353L287.36 92.7337C289.156 94.4233 291.162 95.7433 293.38 96.6937C295.65 97.5913 297.947 98.0401 300.27 98.0401C303.438 98.0401 306.025 97.3801 308.032 96.0601C310.038 94.7401 311.041 93.0241 311.041 90.9121C311.041 89.2225 310.434 87.9025 309.22 86.9521C308.058 85.9489 306.21 85.2625 303.676 84.8929L296.785 83.9425C292.825 83.3617 289.868 82.2001 287.915 80.4577C286.014 78.6625 285.064 76.2601 285.064 73.2505C285.064 69.9241 286.463 67.1785 289.261 65.0137C292.06 62.7961 295.624 61.6873 299.953 61.6873C302.804 61.6873 305.497 62.1097 308.032 62.9545C310.619 63.7993 313.127 65.1193 315.556 66.9145L312.467 70.8745C310.249 69.3961 308.085 68.2873 305.973 67.5481C303.913 66.8089 301.801 66.4393 299.636 66.4393C296.944 66.4393 294.726 67.0465 292.984 68.2609C291.294 69.4753 290.449 71.0593 290.449 73.0129C290.449 74.7025 291.03 76.0225 292.192 76.9729C293.353 77.8705 295.228 78.5041 297.815 78.8737L304.705 79.8241C308.665 80.3521 311.622 81.5401 313.576 83.3881C315.582 85.1833 316.585 87.5857 316.585 90.5953C316.585 92.2849 316.163 93.8953 315.318 95.4265C314.526 96.9049 313.391 98.1985 311.912 99.3073C310.487 100.363 308.797 101.208 306.844 101.842C304.89 102.422 302.778 102.713 300.508 102.713C297.234 102.713 294.145 102.185 291.241 101.129C288.39 100.02 285.908 98.4889 283.796 96.5353Z" fill="white"/>
<path fill-rule="evenodd" clip-rule="evenodd" d="M3.18011 26.3038C3.04908 25.6823 3.09916 21.5227 3.15205 20.7952C3.9919 20.6756 4.72554 20.6975 5.4654 20.7197C5.63271 20.7247 5.80034 20.7297 5.96958 20.7331C6.30298 20.7397 6.70587 20.7272 7.14148 20.7137C8.58844 20.6689 10.3963 20.6128 11.2167 21.2105C12.7084 22.2971 12.8834 24.4395 11.4439 25.672C10.6602 26.343 9.74038 26.3596 8.70356 26.3351C7.71995 26.3119 6.76395 26.3143 5.80892 26.3167C4.93933 26.3188 4.06943 26.321 3.18011 26.3038ZM3.20389 17.5989C3.18299 17.5173 3.08314 12.7101 3.18653 12.0966C3.18943 12.0795 3.19345 12.0609 3.19723 12.0434C3.1994 12.0334 3.20148 12.0237 3.20323 12.015L3.24716 11.8542C3.70209 11.7914 6.83244 11.7764 7.20051 11.8813C10.0741 12.7001 9.95809 16.7076 7.38033 17.4254C6.44999 17.6844 5.21629 17.6483 4.15753 17.6173C3.81611 17.6073 3.49288 17.5978 3.20389 17.5989ZM0.632389 29.3375L0.542303 29.3286C0.446338 28.7805 0.332299 28.1941 0.199168 27.5676C-0.0334783 26.1551 -0.0098146 24.9473 0.0154406 23.6584C0.0216638 23.3409 0.0279831 23.0184 0.0305892 22.6867L0.0213973 13.0696C0.013153 11.2211 0.0101101 10.238 1.34793 9.24527C2.31506 8.52749 3.77884 8.60897 5.05411 8.67996C5.35675 8.6968 5.64876 8.71306 5.921 8.7179C7.86244 8.75245 8.66619 8.93961 9.93068 9.79899C11.0329 10.5481 11.9664 11.7633 12.3079 13.4974C12.6504 15.2358 12.3989 15.8352 12.0799 16.5951C11.9343 16.9419 11.7746 17.3222 11.651 17.8596C11.7596 17.9749 11.9812 18.097 12.2613 18.2514C12.7481 18.5197 13.4119 18.8856 13.9681 19.4827C16.3947 22.0883 15.9193 25.724 13.6527 27.9018C11.9339 29.5533 9.96404 29.4903 7.68996 29.4175L7.6844 29.4174C7.574 29.4138 7.46289 29.4103 7.35106 29.4069C6.47806 29.3806 5.5996 29.3985 4.71861 29.4165C3.35894 29.4442 1.99326 29.472 0.632389 29.3375Z" fill="white"/>
<path fill-rule="evenodd" clip-rule="evenodd" d="M55.8824 11.6616C58.1268 10.6757 60.4818 11.0617 62.1614 11.8676C64.0123 12.7557 64.9151 13.8359 66.0427 15.9757C67.057 17.9003 66.5043 20.9001 65.8087 22.2823C63.8233 26.2275 59.2445 27.8134 55.3063 25.882C51.5466 24.0382 49.8051 19.157 51.8115 15.4391C52.7415 13.7155 53.7156 12.6134 55.8824 11.6616ZM55.5935 8.47424C54.9038 8.84824 53.6856 8.9105 51.7508 10.5196C50.6814 11.4091 49.9671 12.359 49.2717 13.4852C46.3282 18.2521 48.0132 25.4071 53.4368 28.4286C62.2593 33.3436 72.2039 24.7266 69.2439 15.5868C67.929 11.5266 64.2292 8.54901 60.3949 8.09665C59.3223 7.97014 56.7133 7.86695 55.5935 8.47424Z" fill="white"/>
<path fill-rule="evenodd" clip-rule="evenodd" d="M122.787 19.1972C122.42 18.0548 123.503 15.0901 123.982 14.2774C126.097 10.6884 129.57 10.0782 132.062 13.5193C133.231 15.1326 133.648 16.9145 133.772 19.1569C133.226 19.3202 124.647 19.1621 122.787 19.1972ZM122.628 29.2795C122.821 28.7909 122.729 23.4437 122.725 22.4338C123.055 22.3487 133.344 22.3408 133.667 22.4369C133.854 23.0581 133.771 25.0894 133.774 25.8794C133.778 26.6536 133.659 28.7398 133.841 29.341C137.522 28.9506 136.826 25.8889 136.962 24.2286C137.05 23.1513 136.956 21.7539 136.962 20.6013C136.97 19.1665 137.063 18.3954 136.769 16.7836C135.931 12.2059 132.771 7.87314 128.023 8.10762C122.995 8.3559 120.254 13.1008 119.716 16.9727C119.539 18.2501 119.509 22.6601 119.543 24.0959C119.567 25.116 119.353 26.7961 119.943 27.7335C120.476 28.5783 121.533 29.4669 122.628 29.2795Z" fill="white"/>
<path fill-rule="evenodd" clip-rule="evenodd" d="M20.4864 19.1111C20.0704 16.7218 21.982 11.5552 25.7095 11.2076C29.902 10.8166 31.8036 17.4931 31.3989 19.025C30.7171 19.2629 24.6679 19.1141 23.1435 19.1452C22.2384 19.1636 21.2968 19.0441 20.4864 19.1111ZM20.3515 29.1996C20.4467 27.2698 20.4111 24.2836 20.3507 22.3889C20.6544 22.2502 30.919 22.231 31.354 22.3506C31.5485 23.0248 31.4105 24.9571 31.4175 25.7573C31.4252 26.6246 31.3319 28.5479 31.492 29.2803C34.55 28.937 34.7835 26.6693 34.6157 24.1266L34.6354 20.5206C34.6556 16.6369 34.2553 13.5019 31.4055 10.4614C29.9831 8.94385 28.2681 8.05077 25.7375 8.0204C22.966 7.98712 21.0124 9.76116 19.8108 11.1809C18.6322 12.5734 17.7086 14.7728 17.399 16.8939C17.0816 19.0687 17.2346 21.7039 17.2113 23.9826C17.1999 25.102 17.0328 26.6023 17.6141 27.6733C18.125 28.6145 19.2349 29.3125 20.3515 29.1996Z" fill="white"/>
<path fill-rule="evenodd" clip-rule="evenodd" d="M108.632 11.5607C110.815 10.4853 113.076 11.8559 113.827 13.5104C114.878 15.8242 113.568 17.9483 111.828 18.6954C107.109 20.7214 103.871 13.9069 108.632 11.5607ZM106.325 22.0632C106.783 22.1759 107.123 22.6627 107.62 23.1651C108.645 24.2033 112.908 28.5768 113.572 28.9624C114.795 29.672 116.046 29.3241 117.186 28.5563C116.923 27.6516 111.639 23.2175 111.185 22.134C116.911 21.001 118.593 15.4252 116.321 11.5488C113.278 6.35753 105.32 7.11146 103.438 13.2252C102.971 14.7404 103.199 22.2275 103.187 24.0782L103.183 28.6378C103.179 29.0378 103.071 29.2443 103.415 29.3033C103.838 29.3758 104.878 28.9038 105.152 28.667C106.903 27.1512 106.057 25.0135 106.325 22.0632Z" fill="white"/>
<path fill-rule="evenodd" clip-rule="evenodd" d="M101.671 29.2954C101.222 25.3157 97.7382 26.4483 95.2954 26.2406C94.7458 26.1938 92.7514 26.3952 92.4898 26.1801L92.4053 26.0459C92.3986 26.0285 92.3788 25.9952 92.3718 25.9731C92.2683 25.6502 92.3821 23.7122 92.3569 23.0684C92.3174 22.0573 92.3469 20.8636 92.3662 19.8596C93.5852 19.5632 97.8318 20.0611 98.5993 19.6715C98.4922 18.1039 97.5174 17.1569 96.4725 16.8169C95.3455 16.4501 93.0813 16.8041 92.4243 16.6114C92.3342 16.1817 92.2761 12.169 92.4531 11.7677L98.1184 11.7389C99.2365 11.7841 100.006 11.5528 100.723 10.9067C101.24 10.4398 101.799 9.52877 101.622 8.6152L97.6391 8.57072C97.1096 8.57287 96.6361 8.63994 96.1216 8.62817C91.7301 8.52742 89.0635 7.88681 89.2366 13.3807C89.3054 15.5623 89.0749 25.9633 89.3497 27.0999C90.0404 29.9574 93.6609 29.3986 96.0933 29.3589C97.059 29.3431 97.9081 29.4132 98.8674 29.3631C99.7145 29.3188 100.889 29.4931 101.671 29.2954Z" fill="white"/>
<path fill-rule="evenodd" clip-rule="evenodd" d="M88.212 8.6731L82.6097 8.63307C80.4545 8.63174 78.6764 9.00029 76.8138 9.97491C68.1347 14.5163 69.9055 26.8023 79.5508 29.0492C81.3761 29.4743 83.1127 29.29 85.0512 29.365C85.4768 29.3815 85.9545 29.3648 86.4089 29.3596C87.9535 29.3417 88.6106 29.8019 88.0102 28.2195C87.0207 25.612 84.0819 26.3456 82.2715 26.2375C78.6459 26.021 75.73 24.5297 74.5851 20.8454C73.4578 17.2179 75.6424 13.8674 78.9179 12.456C82.7686 10.7967 85.1037 12.8217 87.2612 10.9134C87.8144 10.4241 88.3097 9.60373 88.212 8.6731Z" fill="white"/>
<path fill-rule="evenodd" clip-rule="evenodd" d="M40.0051 11.6836C40.2633 12.7317 39.8458 27.9447 40.1481 29.2885C43.8525 28.7677 43.1052 25.8906 43.1798 23.943C43.2468 22.1953 43.063 12.0534 43.2423 11.8119C43.4099 11.5861 44.0083 11.6831 44.1881 11.6885C44.9277 11.7104 46.8218 11.7081 47.4007 11.4821C48.7093 10.971 49.432 9.87083 49.3927 8.59581C49.0328 8.47477 36.4554 8.47125 34.5804 8.49796C33.7712 8.50945 33.7035 8.55345 33.9616 9.43126C34.7968 12.2721 38.0106 11.5843 40.0051 11.6836Z" fill="white"/>
</svg>
