<svg width="355" height="103" viewBox="0 0 355 103" fill="none" xmlns="http://www.w3.org/2000/svg">
<path fill-rule="evenodd" clip-rule="evenodd" d="M6.09136 76.3662V101.211H0V46H39.6334V51.3634H6.09136V71.0817H28.0836V76.3662H6.09136ZM57.4329 100.777C55.2969 101.54 52.9896 101.921 50.5109 101.921C46.1863 101.921 42.6659 100.817 39.9499 98.6085C37.2338 96.4 35.8758 93.5343 35.8758 90.0113C35.8758 86.3305 37.2997 83.3991 40.1476 81.2169C42.9955 79.0347 46.8455 77.9437 51.6975 77.9437C53.8071 77.9437 55.8507 78.1803 57.8284 78.6535C59.8061 79.1268 61.6388 79.784 63.3265 80.6254V75.4197C63.3265 72.2648 62.4299 69.8854 60.6368 68.2817C58.8436 66.6779 56.2331 65.8761 52.805 65.8761C50.8537 65.8761 48.8891 66.1521 46.9114 66.7042C44.9337 67.2563 42.7582 68.1371 40.385 69.3465L38.1699 64.8507C41.0178 63.4836 43.6548 62.4845 46.0808 61.8535C48.5068 61.2225 50.9328 60.907 53.3588 60.907C58.369 60.907 62.2321 62.0901 64.9482 64.4563C67.6643 66.8225 69.0223 70.2141 69.0223 74.631V101.211H63.3265V97.3465C61.5333 98.8714 59.5688 100.015 57.4329 100.777ZM51.5393 97.3465C48.5859 97.3465 46.1731 96.6498 44.3008 95.2563C42.4286 93.8629 41.4925 92.062 41.4925 89.8535C41.4925 87.5399 42.4286 85.6864 44.3008 84.293C46.1731 82.8995 48.6914 82.2028 51.8557 82.2028C54.1235 82.2028 56.1935 82.4526 58.0657 82.9521C59.938 83.4516 61.6915 84.2535 63.3265 85.3577V92.7718C61.7443 94.3493 59.9775 95.5061 58.0262 96.2423C56.0748 96.9784 53.9125 97.3465 51.5393 97.3465ZM114.035 61.6958L96.9476 101.211H91.41L74.2435 61.6958H80.7304L94.2579 93.6394L107.786 61.6958H114.035ZM137.847 102C140.642 102 143.266 101.474 145.718 100.423C148.17 99.3709 150.306 97.9249 152.126 96.0845C153.945 94.2441 155.383 92.062 156.437 89.538C157.492 87.0141 158.02 84.3061 158.02 81.4141C158.02 78.5746 157.492 75.893 156.437 73.369C155.383 70.8451 153.945 68.6629 152.126 66.8225C150.306 64.9822 148.17 63.5361 145.718 62.4845C143.266 61.4329 140.642 60.907 137.847 60.907C135.052 60.907 132.415 61.4329 129.936 62.4845C127.457 63.5361 125.308 64.9822 123.489 66.8225C121.669 68.6629 120.232 70.8451 119.177 73.369C118.122 75.893 117.595 78.5746 117.595 81.4141C117.595 84.3061 118.122 87.0141 119.177 89.538C120.232 92.062 121.669 94.2441 123.489 96.0845C125.308 97.9249 127.457 99.3709 129.936 100.423C132.415 101.474 135.052 102 137.847 102ZM132.151 95.6113C133.944 96.4 135.843 96.7944 137.847 96.7944C139.851 96.7944 141.736 96.4 143.503 95.6113C145.27 94.8225 146.799 93.7315 148.091 92.338C149.383 90.9446 150.399 89.3146 151.137 87.4479C151.875 85.5812 152.245 83.57 152.245 81.4141C152.245 79.2582 151.875 77.2469 151.137 75.3803C150.399 73.5136 149.383 71.8967 148.091 70.5296C146.799 69.1624 145.27 68.0845 143.503 67.2958C141.736 66.507 139.851 66.1127 137.847 66.1127C135.843 66.1127 133.957 66.507 132.191 67.2958C130.424 68.0845 128.894 69.1624 127.602 70.5296C126.31 71.8967 125.282 73.5136 124.517 75.3803C123.752 77.2469 123.37 79.2582 123.37 81.4141C123.37 83.57 123.739 85.5812 124.477 87.4479C125.216 89.3146 126.231 90.9446 127.523 92.338C128.815 93.7315 130.358 94.8225 132.151 95.6113ZM181.357 102C183.941 102 186.274 101.553 188.358 100.659C190.441 99.7653 192.247 98.4244 193.777 96.6366V101.211H199.631V61.6958H193.777V90.7211C192.616 92.6667 191.1 94.1784 189.228 95.2563C187.356 96.3343 185.233 96.8732 182.86 96.8732C179.484 96.8732 176.795 95.8479 174.791 93.7972C172.786 91.7465 171.784 88.9859 171.784 85.5155V61.6958H166.009V86.6986C166.009 91.2207 167.433 94.9014 170.281 97.7408C173.129 100.58 176.821 102 181.357 102ZM215.452 74.1577V101.211H209.598V61.6958H215.452V67.2958C216.613 65.2451 218.142 63.6545 220.041 62.5239C221.939 61.3934 224.102 60.8282 226.528 60.8282C227.266 60.8282 227.925 60.8676 228.505 60.9465C229.085 61.0254 229.666 61.17 230.246 61.3803V66.7437C229.56 66.5333 228.874 66.3624 228.189 66.231C227.503 66.0995 226.818 66.0338 226.132 66.0338C223.706 66.0338 221.57 66.7305 219.724 68.1239C217.878 69.5174 216.454 71.5286 215.452 74.1577ZM239.897 54.1239C241.004 54.1239 241.941 53.7296 242.705 52.9408C243.47 52.1521 243.852 51.2319 243.852 50.1803C243.852 49.0761 243.47 48.1427 242.705 47.3803C241.941 46.6178 241.004 46.2366 239.897 46.2366C238.842 46.2366 237.919 46.6178 237.128 47.3803C236.337 48.1427 235.941 49.0761 235.941 50.1803C235.941 51.2319 236.337 52.1521 237.128 52.9408C237.919 53.7296 238.842 54.1239 239.897 54.1239ZM242.824 61.6958V101.211H236.97V61.6958H242.824ZM268.376 101.921C269.536 101.921 270.736 101.842 271.975 101.685C273.215 101.527 274.336 101.264 275.338 100.896V95.769C274.336 96.1371 273.399 96.4 272.529 96.5577C271.659 96.7155 270.67 96.7944 269.563 96.7944C267.4 96.7944 265.845 96.3343 264.895 95.4141C263.946 94.4939 263.471 92.9822 263.471 90.8789V66.6648H275.417V61.6958H263.471V50.1803L257.696 51.6789V61.6958H249.153V66.6648H257.696V92.3775C257.696 95.4798 258.619 97.846 260.465 99.4761C262.311 101.106 264.948 101.921 268.376 101.921ZM308.128 100.699C305.729 101.514 303.105 101.921 300.257 101.921C297.409 101.921 294.732 101.395 292.227 100.344C289.722 99.292 287.56 97.846 285.74 96.0056C283.921 94.1653 282.484 91.9962 281.429 89.4986C280.374 87.0009 279.847 84.3061 279.847 81.4141C279.847 78.5746 280.361 75.9192 281.389 73.4479C282.418 70.9765 283.802 68.8207 285.543 66.9803C287.283 65.1399 289.353 63.6939 291.753 62.6423C294.152 61.5906 296.697 61.0648 299.387 61.0648C302.024 61.0648 304.489 61.5906 306.783 62.6423C309.077 63.6939 311.055 65.1399 312.716 66.9803C314.378 68.8207 315.696 70.9765 316.672 73.4479C317.648 75.9192 318.135 78.5746 318.135 81.4141V83.2282H285.622C286.044 87.1192 287.652 90.3531 290.447 92.9296C293.243 95.5061 296.591 96.7944 300.494 96.7944C302.551 96.7944 304.555 96.4789 306.506 95.8479C308.458 95.2169 310.093 94.323 311.411 93.1662L315.05 97.031C312.835 98.661 310.528 99.8836 308.128 100.699ZM312.281 78.5746H285.78C286.307 74.9465 287.824 71.9756 290.329 69.662C292.834 67.3484 295.8 66.1915 299.228 66.1915C302.498 66.1915 305.359 67.3878 307.812 69.7803C310.264 72.1728 311.754 75.1042 312.281 78.5746ZM345.27 101.014C343.318 101.619 341.209 101.921 338.941 101.921C335.671 101.921 332.599 101.382 329.725 100.304C326.85 99.2263 324.359 97.7146 322.249 95.769L325.809 91.9831C327.602 93.6657 329.619 94.9671 331.861 95.8873C334.102 96.8075 336.383 97.2676 338.704 97.2676C341.868 97.2676 344.452 96.6103 346.456 95.2958C348.46 93.9812 349.462 92.2723 349.462 90.169C349.462 88.4864 348.869 87.1587 347.682 86.1859C346.496 85.2131 344.637 84.5427 342.105 84.1746L335.223 83.2282C331.267 82.6498 328.327 81.4798 326.402 79.7183C324.477 77.9568 323.515 75.5775 323.515 72.5803C323.515 69.2676 324.912 66.5202 327.708 64.338C330.503 62.1559 334.063 61.0648 338.387 61.0648C341.235 61.0648 343.938 61.4854 346.496 62.3268C349.054 63.1681 351.546 64.4826 353.972 66.2704L350.886 70.2141C348.671 68.7418 346.522 67.6376 344.439 66.9014C342.356 66.1653 340.233 65.7972 338.071 65.7972C335.381 65.7972 333.179 66.4019 331.465 67.6113C329.751 68.8207 328.894 70.3981 328.894 72.3437C328.894 74.0263 329.474 75.3277 330.635 76.2479C331.795 77.1681 333.667 77.8122 336.251 78.1803L343.134 79.1268C347.089 79.6526 350.056 80.8225 352.033 82.6366C354.011 84.4507 355 86.8563 355 89.8535C355 91.5362 354.591 93.1268 353.774 94.6254C352.956 96.1239 351.822 97.4122 350.372 98.4901C348.922 99.5681 347.221 100.409 345.27 101.014Z" fill="white"/>
<path fill-rule="evenodd" clip-rule="evenodd" d="M3.18011 31.3038C3.04908 30.6823 3.09916 26.5227 3.15205 25.7952C3.9919 25.6756 4.72554 25.6975 5.4654 25.7197C5.63271 25.7247 5.80034 25.7297 5.96958 25.7331C6.30298 25.7397 6.70587 25.7272 7.14148 25.7137C8.58844 25.6689 10.3963 25.6128 11.2167 26.2105C12.7084 27.2971 12.8834 29.4395 11.4439 30.672C10.6602 31.343 9.74038 31.3596 8.70356 31.3351C7.71995 31.3119 6.76395 31.3143 5.80892 31.3167C4.93933 31.3188 4.06943 31.321 3.18011 31.3038ZM3.20389 22.5989C3.18299 22.5173 3.08314 17.7101 3.18653 17.0966C3.18943 17.0795 3.19345 17.0609 3.19723 17.0434C3.1994 17.0334 3.20148 17.0237 3.20323 17.015L3.24716 16.8542C3.70209 16.7914 6.83244 16.7764 7.20051 16.8813C10.0741 17.7001 9.95809 21.7076 7.38033 22.4254C6.44999 22.6844 5.21629 22.6483 4.15753 22.6173C3.81611 22.6073 3.49288 22.5978 3.20389 22.5989ZM0.632389 34.3375L0.542303 34.3286C0.446338 33.7805 0.332299 33.1941 0.199168 32.5676C-0.0334783 31.1551 -0.0098146 29.9473 0.0154406 28.6584C0.0216638 28.3409 0.0279831 28.0184 0.0305892 27.6867L0.0213973 18.0696C0.013153 16.2211 0.0101101 15.238 1.34793 14.2453C2.31506 13.5275 3.77884 13.609 5.05411 13.68C5.35675 13.6968 5.64876 13.7131 5.921 13.7179C7.86244 13.7525 8.66619 13.9396 9.93068 14.799C11.0329 15.5481 11.9664 16.7633 12.3079 18.4974C12.6504 20.2358 12.3989 20.8352 12.0799 21.5951C11.9343 21.9419 11.7746 22.3222 11.651 22.8596C11.7596 22.9749 11.9812 23.097 12.2613 23.2514C12.7481 23.5197 13.4119 23.8856 13.9681 24.4827C16.3947 27.0883 15.9193 30.724 13.6527 32.9018C11.9339 34.5533 9.96404 34.4903 7.68996 34.4175L7.6844 34.4174C7.574 34.4138 7.46289 34.4103 7.35106 34.4069C6.47806 34.3806 5.5996 34.3985 4.71861 34.4165C3.35894 34.4442 1.99326 34.472 0.632389 34.3375Z" fill="white"/>
<path fill-rule="evenodd" clip-rule="evenodd" d="M55.8824 16.6616C58.1268 15.6757 60.4818 16.0617 62.1614 16.8676C64.0123 17.7557 64.9151 18.8359 66.0427 20.9757C67.057 22.9003 66.5043 25.9001 65.8087 27.2823C63.8233 31.2275 59.2445 32.8134 55.3063 30.882C51.5466 29.0382 49.8051 24.157 51.8115 20.4391C52.7415 18.7155 53.7156 17.6134 55.8824 16.6616ZM55.5935 13.4742C54.9038 13.8482 53.6856 13.9105 51.7508 15.5196C50.6814 16.4091 49.9671 17.359 49.2717 18.4852C46.3282 23.2521 48.0132 30.4071 53.4368 33.4286C62.2593 38.3436 72.2039 29.7266 69.2439 20.5868C67.929 16.5266 64.2292 13.549 60.3949 13.0967C59.3223 12.9701 56.7133 12.8669 55.5935 13.4742Z" fill="white"/>
<path fill-rule="evenodd" clip-rule="evenodd" d="M122.787 24.1972C122.42 23.0548 123.503 20.0901 123.982 19.2774C126.097 15.6884 129.57 15.0782 132.062 18.5193C133.231 20.1326 133.648 21.9145 133.772 24.1569C133.226 24.3202 124.647 24.1621 122.787 24.1972ZM122.628 34.2795C122.821 33.7909 122.729 28.4437 122.725 27.4338C123.055 27.3487 133.344 27.3408 133.667 27.4369C133.854 28.0581 133.771 30.0894 133.774 30.8794C133.778 31.6536 133.659 33.7398 133.841 34.341C137.522 33.9506 136.826 30.8889 136.962 29.2286C137.05 28.1513 136.956 26.7539 136.962 25.6013C136.97 24.1665 137.063 23.3954 136.769 21.7836C135.931 17.2059 132.771 12.8731 128.023 13.1076C122.995 13.3559 120.254 18.1008 119.716 21.9727C119.539 23.2501 119.509 27.6601 119.543 29.0959C119.567 30.116 119.353 31.7961 119.943 32.7335C120.476 33.5783 121.533 34.4669 122.628 34.2795Z" fill="white"/>
<path fill-rule="evenodd" clip-rule="evenodd" d="M20.4864 24.1111C20.0704 21.7218 21.982 16.5552 25.7095 16.2076C29.902 15.8166 31.8036 22.4931 31.3989 24.025C30.7171 24.2629 24.6679 24.1141 23.1435 24.1452C22.2384 24.1636 21.2968 24.0441 20.4864 24.1111ZM20.3515 34.1996C20.4467 32.2698 20.4111 29.2836 20.3507 27.3889C20.6544 27.2502 30.919 27.231 31.354 27.3506C31.5485 28.0248 31.4105 29.9571 31.4175 30.7573C31.4252 31.6246 31.3319 33.5479 31.492 34.2803C34.55 33.937 34.7835 31.6693 34.6157 29.1266L34.6354 25.5206C34.6556 21.6369 34.2553 18.5019 31.4055 15.4614C29.9831 13.9438 28.2681 13.0508 25.7375 13.0204C22.966 12.9871 21.0124 14.7612 19.8108 16.1809C18.6322 17.5734 17.7086 19.7728 17.399 21.8939C17.0816 24.0687 17.2346 26.7039 17.2113 28.9826C17.1999 30.102 17.0328 31.6023 17.6141 32.6733C18.125 33.6145 19.2349 34.3125 20.3515 34.1996Z" fill="white"/>
<path fill-rule="evenodd" clip-rule="evenodd" d="M108.632 16.5607C110.815 15.4853 113.076 16.8559 113.827 18.5104C114.878 20.8242 113.568 22.9483 111.828 23.6954C107.109 25.7214 103.871 18.9069 108.632 16.5607ZM106.325 27.0632C106.783 27.1759 107.123 27.6627 107.62 28.1651C108.645 29.2033 112.908 33.5768 113.572 33.9624C114.795 34.672 116.046 34.3241 117.186 33.5563C116.923 32.6516 111.639 28.2175 111.185 27.134C116.911 26.001 118.593 20.4252 116.321 16.5488C113.278 11.3575 105.32 12.1115 103.438 18.2252C102.971 19.7404 103.199 27.2275 103.187 29.0782L103.183 33.6378C103.179 34.0378 103.071 34.2443 103.415 34.3033C103.838 34.3758 104.878 33.9038 105.152 33.667C106.903 32.1512 106.057 30.0135 106.325 27.0632Z" fill="white"/>
<path fill-rule="evenodd" clip-rule="evenodd" d="M101.671 34.2954C101.222 30.3157 97.7382 31.4483 95.2954 31.2406C94.7458 31.1938 92.7514 31.3952 92.4898 31.1801L92.4053 31.0459C92.3986 31.0285 92.3788 30.9952 92.3718 30.9731C92.2683 30.6502 92.3821 28.7122 92.3569 28.0684C92.3174 27.0573 92.3469 25.8636 92.3662 24.8596C93.5852 24.5632 97.8318 25.0611 98.5993 24.6715C98.4922 23.1039 97.5174 22.1569 96.4725 21.8169C95.3455 21.4501 93.0813 21.8041 92.4243 21.6114C92.3342 21.1817 92.2761 17.169 92.4531 16.7677L98.1184 16.7389C99.2365 16.7841 100.006 16.5528 100.723 15.9067C101.24 15.4398 101.799 14.5288 101.622 13.6152L97.6391 13.5707C97.1096 13.5729 96.6361 13.6399 96.1216 13.6282C91.7301 13.5274 89.0635 12.8868 89.2366 18.3807C89.3054 20.5623 89.0749 30.9633 89.3497 32.0999C90.0404 34.9574 93.6609 34.3986 96.0933 34.3589C97.059 34.3431 97.9081 34.4132 98.8674 34.3631C99.7145 34.3188 100.889 34.4931 101.671 34.2954Z" fill="white"/>
<path fill-rule="evenodd" clip-rule="evenodd" d="M88.212 13.6731L82.6097 13.6331C80.4545 13.6317 78.6764 14.0003 76.8138 14.9749C68.1347 19.5163 69.9055 31.8023 79.5508 34.0492C81.3761 34.4743 83.1127 34.29 85.0512 34.365C85.4768 34.3815 85.9545 34.3648 86.4089 34.3596C87.9535 34.3417 88.6106 34.8019 88.0102 33.2195C87.0207 30.612 84.0819 31.3456 82.2715 31.2375C78.6459 31.021 75.73 29.5297 74.5851 25.8454C73.4578 22.2179 75.6424 18.8674 78.9179 17.456C82.7686 15.7967 85.1037 17.8217 87.2612 15.9134C87.8144 15.4241 88.3097 14.6037 88.212 13.6731Z" fill="white"/>
<path fill-rule="evenodd" clip-rule="evenodd" d="M40.0051 16.6836C40.2633 17.7317 39.8458 32.9447 40.1481 34.2885C43.8525 33.7677 43.1052 30.8906 43.1798 28.943C43.2468 27.1953 43.063 17.0534 43.2423 16.8119C43.4099 16.5861 44.0083 16.6831 44.1881 16.6885C44.9277 16.7104 46.8218 16.7081 47.4007 16.4821C48.7093 15.971 49.432 14.8708 49.3927 13.5958C49.0328 13.4748 36.4554 13.4712 34.5804 13.498C33.7712 13.5094 33.7035 13.5534 33.9616 14.4313C34.7968 17.2721 38.0106 16.5843 40.0051 16.6836Z" fill="white"/>
</svg>
