<svg width="430" height="118" viewBox="0 0 430 118" fill="none" xmlns="http://www.w3.org/2000/svg">
<path d="M327.262 88.5355L330.826 84.7339C332.621 86.4235 334.627 87.7435 336.845 88.6939C339.115 89.5915 341.412 90.0403 343.735 90.0403C346.903 90.0403 349.491 89.3803 351.497 88.0603C353.503 86.7403 354.507 85.0243 354.507 82.9123C354.507 81.2227 353.899 79.9027 352.685 78.9523C351.523 77.9491 349.675 77.2627 347.141 76.8931L340.251 75.9427C336.291 75.3619 333.334 74.2003 331.38 72.4579C329.479 70.6627 328.529 68.2603 328.529 65.2507C328.529 61.9243 329.928 59.1787 332.727 57.0139C335.525 54.7963 339.089 53.6875 343.419 53.6875C346.27 53.6875 348.963 54.1099 351.497 54.9547C354.084 55.7995 356.592 57.1195 359.021 58.9147L355.932 62.8747C353.714 61.3963 351.55 60.2875 349.438 59.5483C347.379 58.8091 345.267 58.4395 343.102 58.4395C340.409 58.4395 338.191 59.0467 336.449 60.2611C334.759 61.4755 333.915 63.0595 333.915 65.0131C333.915 66.7027 334.495 68.0227 335.657 68.9731C336.819 69.8707 338.693 70.5043 341.28 70.8739L348.171 71.8243C352.131 72.3523 355.087 73.5403 357.041 75.3883C359.047 77.1835 360.051 79.5859 360.051 82.5955C360.051 84.2851 359.628 85.8955 358.783 87.4267C357.991 88.9051 356.856 90.1987 355.378 91.3075C353.952 92.3635 352.262 93.2083 350.309 93.8419C348.355 94.4227 346.243 94.7131 343.973 94.7131C340.699 94.7131 337.611 94.1851 334.707 93.1291C331.855 92.0203 329.374 90.4891 327.262 88.5355Z" fill="white"/>
<path d="M319.635 89.8027C317.417 91.4395 315.094 92.6803 312.665 93.5251C310.289 94.3171 307.675 94.7131 304.824 94.7131C301.973 94.7131 299.28 94.1851 296.746 93.1291C294.264 92.0731 292.099 90.6211 290.251 88.7731C288.456 86.9251 287.031 84.7603 285.975 82.2787C284.919 79.7443 284.391 77.0251 284.391 74.1211C284.391 71.2699 284.892 68.6035 285.895 66.1219C286.951 63.6403 288.351 61.4755 290.093 59.6275C291.835 57.7795 293.895 56.3275 296.271 55.2715C298.699 54.2155 301.26 53.6875 303.953 53.6875C306.593 53.6875 309.048 54.2155 311.319 55.2715C313.642 56.3275 315.622 57.7795 317.259 59.6275C318.948 61.4755 320.268 63.6403 321.219 66.1219C322.222 68.6035 322.723 71.2699 322.723 74.1211V75.9427H290.172C290.595 79.8499 292.205 83.0971 295.003 85.6843C297.802 88.2715 301.155 89.5651 305.062 89.5651C307.121 89.5651 309.127 89.2483 311.081 88.6147C313.035 87.9811 314.671 87.0835 315.991 85.9219L319.635 89.8027ZM303.795 58.8355C300.363 58.8355 297.379 59.9971 294.845 62.3203C292.363 64.6435 290.859 67.6267 290.331 71.2699H316.863C316.335 67.7851 314.83 64.8547 312.348 62.4787C309.919 60.0499 307.068 58.8355 303.795 58.8355Z" fill="white"/>
<path d="M263.432 85.1298V59.3106H254.879V54.321H263.432V44.2626L269.214 42.7578V54.321H281.173V59.3106H269.214V83.625C269.214 85.737 269.689 87.2682 270.64 88.2186C271.59 89.1162 273.148 89.565 275.312 89.565C276.421 89.565 277.398 89.4858 278.243 89.3274C279.14 89.169 280.091 88.905 281.094 88.5354V93.6834C280.091 94.053 278.956 94.317 277.689 94.4754C276.474 94.6338 275.286 94.713 274.125 94.713C270.693 94.713 268.052 93.8946 266.204 92.2578C264.356 90.621 263.432 88.245 263.432 85.1298Z" fill="white"/>
<path d="M245.597 46.7169C244.541 46.7169 243.617 46.3209 242.825 45.5289C242.033 44.7369 241.637 43.8129 241.637 42.7569C241.637 41.6481 242.033 40.7241 242.825 39.9849C243.617 39.1929 244.541 38.7969 245.597 38.7969C246.706 38.7969 247.63 39.1929 248.369 39.9849C249.161 40.7241 249.557 41.6481 249.557 42.7569C249.557 43.8129 249.161 44.7369 248.369 45.5289C247.63 46.3209 246.706 46.7169 245.597 46.7169ZM248.527 54.3201V93.9993H242.666V54.3201H248.527Z" fill="white"/>
<path d="M215.285 93.9996V54.3204H221.146V59.9436C222.308 57.8844 223.839 56.3004 225.74 55.1916C227.64 54.03 229.805 53.4492 232.234 53.4492C232.973 53.4492 233.633 53.502 234.214 53.6076C234.795 53.6604 235.376 53.7924 235.956 54.0036V59.3892C235.27 59.178 234.584 59.0196 233.897 58.914C233.211 58.7556 232.524 58.6764 231.838 58.6764C229.409 58.6764 227.271 59.3892 225.423 60.8148C223.575 62.1876 222.149 64.194 221.146 66.834V93.9996H215.285Z" fill="white"/>
<path d="M177.442 54.3203V78.2387C177.442 81.7235 178.445 84.4955 180.451 86.5547C182.458 88.6139 185.151 89.6435 188.53 89.6435C190.906 89.6435 193.018 89.1155 194.866 88.0595C196.767 86.9507 198.298 85.4195 199.459 83.4659V54.3203H205.32V93.9995H199.459V89.4059C197.928 91.2011 196.107 92.5475 193.995 93.4451C191.935 94.3427 189.612 94.7915 187.025 94.7915C182.484 94.7915 178.788 93.3659 175.937 90.5147C173.086 87.6635 171.66 83.9675 171.66 79.4267V54.3203H177.442Z" fill="white"/>
<path d="M123.203 74.1193C123.203 71.2681 123.731 68.5753 124.787 66.0409C125.843 63.5065 127.269 61.3153 129.064 59.4673C130.912 57.6193 133.077 56.1673 135.558 55.1113C138.04 54.0553 140.68 53.5273 143.478 53.5273C146.277 53.5273 148.89 54.0553 151.319 55.1113C153.801 56.1673 155.939 57.6193 157.734 59.4673C159.582 61.3153 161.034 63.5065 162.09 66.0409C163.146 68.5753 163.674 71.2681 163.674 74.1193C163.674 77.0233 163.146 79.7425 162.09 82.2769C161.034 84.8113 159.582 87.0025 157.734 88.8505C155.939 90.6985 153.801 92.1505 151.319 93.2065C148.89 94.2625 146.277 94.7905 143.478 94.7905C140.68 94.7905 138.04 94.2625 135.558 93.2065C133.077 92.1505 130.912 90.6985 129.064 88.8505C127.269 87.0025 125.843 84.8113 124.787 82.2769C123.731 79.7425 123.203 77.0233 123.203 74.1193ZM143.478 89.5633C145.485 89.5633 147.359 89.1673 149.102 88.3753C150.897 87.5833 152.428 86.5009 153.695 85.1281C155.015 83.7025 156.045 82.0657 156.784 80.2177C157.523 78.3169 157.893 76.2841 157.893 74.1193C157.893 71.9545 157.523 69.9481 156.784 68.1001C156.045 66.1993 155.015 64.5625 153.695 63.1897C152.428 61.8169 150.897 60.7345 149.102 59.9425C147.359 59.1505 145.485 58.7545 143.478 58.7545C141.472 58.7545 139.571 59.1505 137.776 59.9425C136.034 60.7345 134.502 61.8169 133.182 63.1897C131.915 64.5625 130.886 66.1993 130.094 68.1001C129.354 69.9481 128.985 71.9545 128.985 74.1193C128.985 76.2841 129.354 78.3169 130.094 80.2177C130.833 82.0657 131.836 83.7025 133.103 85.1281C134.423 86.5009 135.981 87.5833 137.776 88.3753C139.571 89.1673 141.472 89.5633 143.478 89.5633Z" fill="white"/>
<path d="M98.5614 93.9995L81.375 54.3203H87.8694L101.413 86.3963L114.956 54.3203H121.213L104.105 93.9995H98.5614Z" fill="white"/>
<path d="M59.734 94.7113C55.4044 94.7113 51.8668 93.6025 49.1212 91.3849C46.4284 89.1673 45.082 86.2897 45.082 82.7521C45.082 79.0561 46.5076 76.1257 49.3588 73.9609C52.21 71.7433 56.0644 70.6345 60.922 70.6345C63.034 70.6345 65.0668 70.8721 67.0204 71.3473C69.0268 71.8225 70.8748 72.4825 72.5644 73.3273V68.1001C72.5644 64.9321 71.6668 62.5561 69.8716 60.9721C68.0764 59.3353 65.4628 58.5169 62.0308 58.5169C60.0772 58.5169 58.0972 58.8073 56.0908 59.3881C54.1372 59.9161 51.9724 60.7873 49.5964 62.0017L47.3788 57.4873C50.23 56.1145 52.87 55.1113 55.2988 54.4777C57.7276 53.8441 60.1564 53.5273 62.5852 53.5273C67.6012 53.5273 71.4556 54.7153 74.1484 57.0913C76.894 59.4673 78.2668 62.8729 78.2668 67.3081V93.9985H72.5644V90.1177C70.7692 91.6489 68.7892 92.8105 66.6244 93.6025C64.5124 94.3417 62.2156 94.7113 59.734 94.7113ZM50.7052 82.5937C50.7052 84.8113 51.6292 86.6329 53.4772 88.0585C55.378 89.4313 57.8068 90.1177 60.7636 90.1177C63.1396 90.1177 65.3044 89.7481 67.258 89.0089C69.2116 88.2697 70.9804 87.1081 72.5644 85.5241V78.0793C70.9276 76.9705 69.1588 76.1785 67.258 75.7033C65.41 75.1753 63.3508 74.9113 61.0804 74.9113C57.9124 74.9113 55.378 75.6241 53.4772 77.0497C51.6292 78.4225 50.7052 80.2705 50.7052 82.5937Z" fill="white"/>
<path d="M6.09766 93.9986V38.5586H45.7769V43.9442H12.1961V63.7442H34.2137V69.0506H12.1961V93.9986H6.09766Z" fill="white"/>
<path fill-rule="evenodd" clip-rule="evenodd" d="M6.18011 18.3038C6.04908 17.6823 6.09916 13.5227 6.15205 12.7952C6.9919 12.6756 7.72554 12.6975 8.4654 12.7197C8.63271 12.7247 8.80034 12.7297 8.96958 12.7331C9.30298 12.7397 9.70587 12.7272 10.1415 12.7137C11.5884 12.6689 13.3963 12.6128 14.2167 13.2105C15.7084 14.2971 15.8834 16.4395 14.4439 17.672C13.6602 18.343 12.7404 18.3596 11.7036 18.3351C10.72 18.3119 9.76395 18.3143 8.80892 18.3167C7.93933 18.3188 7.06943 18.321 6.18011 18.3038ZM6.20389 9.59895C6.18299 9.51728 6.08314 4.71009 6.18653 4.09656C6.18943 4.07955 6.19345 4.06091 6.19723 4.04341C6.1994 4.03338 6.20148 4.02372 6.20323 4.01496L6.24716 3.8542C6.70209 3.79143 9.83244 3.77642 10.2005 3.88132C13.0741 4.70011 12.9581 8.70758 10.3803 9.42536C9.44999 9.6844 8.21629 9.64827 7.15753 9.61727C6.81611 9.60727 6.49288 9.59781 6.20389 9.59895ZM3.63239 21.3375L3.5423 21.3286C3.44634 20.7805 3.3323 20.1941 3.19917 19.5676C2.96652 18.1551 2.99019 16.9473 3.01544 15.6584C3.02166 15.3409 3.02798 15.0184 3.03059 14.6867L3.0214 5.06963C3.01315 3.22114 3.01011 2.23802 4.34793 1.24527C5.31506 0.527494 6.77884 0.608975 8.05411 0.67996C8.35675 0.696805 8.64876 0.713061 8.921 0.717905C10.8624 0.752453 11.6662 0.939611 12.9307 1.79899C14.0329 2.54812 14.9664 3.76334 15.3079 5.49737C15.6504 7.23581 15.3989 7.83515 15.0799 8.59507C14.9343 8.94192 14.7746 9.32224 14.651 9.8596C14.7596 9.97488 14.9812 10.097 15.2613 10.2514C15.7481 10.5197 16.4119 10.8856 16.9681 11.4827C19.3947 14.0883 18.9193 17.724 16.6527 19.9018C14.9339 21.5533 12.964 21.4903 10.69 21.4175L10.6844 21.4174C10.574 21.4138 10.4629 21.4103 10.3511 21.4069C9.47806 21.3806 8.5996 21.3985 7.71861 21.4165C6.35894 21.4442 4.99326 21.472 3.63239 21.3375Z" fill="white"/>
<path fill-rule="evenodd" clip-rule="evenodd" d="M58.8824 3.66165C61.1268 2.67573 63.4818 3.0617 65.1614 3.86761C67.0123 4.7557 67.9151 5.83594 69.0427 7.97572C70.057 9.90034 69.5043 12.9001 68.8087 14.2823C66.8233 18.2275 62.2445 19.8134 58.3063 17.882C54.5467 16.0382 52.8051 11.157 54.8115 7.43908C55.7415 5.71552 56.7156 4.61341 58.8824 3.66165ZM58.5935 0.474243C57.9038 0.848241 56.6856 0.910496 54.7508 2.51959C53.6814 3.40906 52.9671 4.359 52.2717 5.48521C49.3282 10.2521 51.0132 17.4071 56.4368 20.4286C65.2593 25.3436 75.2039 16.7266 72.2439 7.58684C70.929 3.52658 67.2292 0.549007 63.3949 0.0966512C62.3223 -0.0298573 59.7133 -0.133052 58.5935 0.474243Z" fill="white"/>
<path fill-rule="evenodd" clip-rule="evenodd" d="M125.787 11.1972C125.42 10.0548 126.503 7.09008 126.982 6.2774C129.097 2.68836 132.57 2.07819 135.062 5.51934C136.231 7.13264 136.648 8.91447 136.772 11.1569C136.226 11.3202 127.647 11.1621 125.787 11.1972ZM125.628 21.2795C125.821 20.7909 125.729 15.4437 125.725 14.4338C126.055 14.3487 136.344 14.3408 136.667 14.4369C136.854 15.0581 136.771 17.0894 136.774 17.8794C136.778 18.6536 136.659 20.7398 136.841 21.341C140.522 20.9506 139.826 17.8889 139.962 16.2286C140.05 15.1513 139.956 13.7539 139.962 12.6013C139.97 11.1665 140.063 10.3954 139.769 8.78359C138.931 4.20593 135.771 -0.12686 131.023 0.107624C125.995 0.355896 123.254 5.10084 122.716 8.97268C122.539 10.2501 122.509 14.6601 122.543 16.0959C122.567 17.116 122.353 18.7961 122.943 19.7335C123.476 20.5783 124.533 21.4669 125.628 21.2795Z" fill="white"/>
<path fill-rule="evenodd" clip-rule="evenodd" d="M23.4864 11.1111C23.0704 8.72182 24.982 3.55523 28.7095 3.20763C32.902 2.81662 34.8036 9.4931 34.3989 11.025C33.7171 11.2629 27.6679 11.1141 26.1435 11.1452C25.2384 11.1636 24.2968 11.0441 23.4864 11.1111ZM23.3515 21.1996C23.4467 19.2698 23.4111 16.2836 23.3507 14.3889C23.6544 14.2502 33.919 14.231 34.354 14.3506C34.5485 15.0248 34.4105 16.9571 34.4175 17.7573C34.4252 18.6246 34.3319 20.5479 34.492 21.2803C37.55 20.937 37.7835 18.6693 37.6157 16.1266L37.6354 12.5206C37.6556 8.63694 37.2553 5.50192 34.4055 2.46136C32.9831 0.943847 31.2681 0.0507721 28.7375 0.0203981C25.966 -0.0128767 24.0124 1.76116 22.8108 3.18094C21.6322 4.57336 20.7086 6.77277 20.399 8.89387C20.0816 11.0687 20.2346 13.7039 20.2113 15.9826C20.1999 17.102 20.0328 18.6023 20.6141 19.6733C21.125 20.6145 22.2349 21.3125 23.3515 21.1996Z" fill="white"/>
<path fill-rule="evenodd" clip-rule="evenodd" d="M111.632 3.56072C113.815 2.4853 116.076 3.85589 116.827 5.51043C117.878 7.82418 116.568 9.94832 114.828 10.6954C110.109 12.7214 106.871 5.90693 111.632 3.56072ZM109.325 14.0632C109.783 14.1759 110.123 14.6627 110.62 15.1651C111.645 16.2033 115.908 20.5768 116.572 20.9624C117.795 21.672 119.046 21.3241 120.186 20.5563C119.923 19.6516 114.639 15.2175 114.185 14.134C119.911 13.001 121.593 7.42516 119.321 3.5488C116.278 -1.64247 108.32 -0.888542 106.438 5.22524C105.971 6.74036 106.199 14.2275 106.187 16.0782L106.183 20.6378C106.179 21.0378 106.071 21.2443 106.415 21.3033C106.838 21.3758 107.878 20.9038 108.152 20.667C109.903 19.1512 109.057 17.0135 109.325 14.0632Z" fill="white"/>
<path fill-rule="evenodd" clip-rule="evenodd" d="M104.671 21.2954C104.222 17.3157 100.738 18.4483 98.2954 18.2406C97.7458 18.1938 95.7514 18.3952 95.4899 18.1801L95.4053 18.0459C95.3986 18.0285 95.3788 17.9952 95.3718 17.9731C95.2683 17.6502 95.3821 15.7122 95.3569 15.0684C95.3174 14.0573 95.3469 12.8636 95.3662 11.8596C96.5852 11.5632 100.832 12.0611 101.599 11.6715C101.492 10.1039 100.517 9.15694 99.4725 8.81689C98.3455 8.45014 96.0813 8.80408 95.4243 8.61139C95.3342 8.18167 95.2761 4.16903 95.4531 3.76769L101.118 3.73893C102.237 3.7841 103.006 3.55285 103.723 2.90675C104.24 2.43979 104.799 1.52877 104.622 0.615202L100.639 0.570722C100.11 0.572867 99.6361 0.639935 99.1216 0.628173C94.7301 0.527418 92.0635 -0.113185 92.2366 5.38069C92.3054 7.56231 92.0749 17.9633 92.3497 19.0999C93.0404 21.9574 96.6609 21.3986 99.0933 21.3589C100.059 21.3431 100.908 21.4132 101.867 21.3631C102.714 21.3188 103.889 21.4931 104.671 21.2954Z" fill="white"/>
<path fill-rule="evenodd" clip-rule="evenodd" d="M91.212 0.673096L85.6097 0.633073C83.4545 0.631743 81.6764 1.00029 79.8138 1.97491C71.1347 6.51632 72.9055 18.8023 82.5508 21.0492C84.3761 21.4743 86.1127 21.29 88.0512 21.365C88.4768 21.3815 88.9545 21.3648 89.4089 21.3596C90.9535 21.3417 91.6106 21.8019 91.0102 20.2195C90.0207 17.612 87.0819 18.3456 85.2715 18.2375C81.6459 18.021 78.73 16.5297 77.5851 12.8454C76.4578 9.21793 78.6424 5.86745 81.9179 4.45602C85.7686 2.7967 88.1037 4.82172 90.2612 2.91343C90.8144 2.42413 91.3097 1.60373 91.212 0.673096Z" fill="white"/>
<path fill-rule="evenodd" clip-rule="evenodd" d="M43.0051 3.68355C43.2633 4.73166 42.8458 19.9447 43.1481 21.2885C46.8525 20.7677 46.1052 17.8906 46.1798 15.943C46.2468 14.1953 46.063 4.05344 46.2423 3.81193C46.4099 3.58612 47.0083 3.68313 47.1881 3.68847C47.9277 3.7104 49.8218 3.70813 50.4007 3.48208C51.7093 2.97101 52.432 1.87083 52.3927 0.595808C52.0328 0.474768 39.4554 0.471249 37.5804 0.49796C36.7712 0.509448 36.7035 0.553448 36.9616 1.43126C37.7968 4.27215 41.0106 3.58425 43.0051 3.68355Z" fill="white"/>
</svg>
