<svg width="120" height="81" viewBox="0 0 120 81" fill="none" xmlns="http://www.w3.org/2000/svg">
<path d="M33.8161 9.91295C33.5448 10.1719 33.1178 10.1719 32.8465 9.91295L31.1598 8.30291C30.7894 7.94936 30.7953 7.34546 31.0456 6.92473C31.3099 6.48038 31.9639 6.00931 32.459 5.86028C32.6724 5.79604 32.9556 5.75342 33.3313 5.75342C33.7071 5.75342 33.9902 5.79604 34.2036 5.86028C34.6987 6.00931 35.3527 6.48038 35.617 6.92473C35.8673 7.34546 35.8732 7.94936 35.5028 8.30291L33.8161 9.91295Z" fill="white"/>
<path d="M32.8455 12.8226C33.1168 12.5637 33.5438 12.5637 33.8151 12.8226L35.5018 14.4327C35.8722 14.7862 35.8663 15.3901 35.616 15.8109C35.3517 16.2552 34.6977 16.7263 34.2026 16.8753C33.9892 16.9396 33.7061 16.9822 33.3303 16.9822C32.9546 16.9822 32.6714 16.9396 32.458 16.8753C31.9629 16.7263 31.3089 16.2552 31.0446 15.8109C30.7943 15.3901 30.7884 14.7862 31.1588 14.4327L32.8455 12.8226Z" fill="white"/>
<path d="M31.8766 10.8829C32.1356 11.1542 32.1356 11.5811 31.8766 11.8525L30.2665 13.5392C29.913 13.9096 29.3091 13.9037 28.8884 13.6534C28.444 13.3891 27.9729 12.7351 27.8239 12.24C27.7597 12.0266 27.717 11.7434 27.717 11.3677C27.717 10.9919 27.7597 10.7087 27.8239 10.4953C27.9729 10.0002 28.444 9.34625 28.8884 9.08193C29.3091 8.83167 29.913 8.82578 30.2665 9.19617L31.8766 10.8829Z" fill="white"/>
<path d="M34.7855 11.8525C34.5266 11.5812 34.5266 11.1542 34.7855 10.8829L36.3956 9.19619C36.7491 8.8258 37.353 8.83169 37.7738 9.08195C38.2181 9.34628 38.6892 10.0003 38.8382 10.4954C38.9024 10.7088 38.9451 10.9919 38.9451 11.3677C38.9451 11.7434 38.9024 12.0266 38.8382 12.24C38.6892 12.7351 38.2181 13.3891 37.7738 13.6534C37.353 13.9037 36.7491 13.9096 36.3956 13.5392L34.7855 11.8525Z" fill="white"/>
<path fill-rule="evenodd" clip-rule="evenodd" d="M33.3309 17.3604C36.6405 17.3604 39.3236 14.6774 39.3236 11.3677C39.3236 8.05803 36.6405 5.375 33.3309 5.375C30.0212 5.375 27.3381 8.05803 27.3381 11.3677C27.3381 14.6774 30.0212 17.3604 33.3309 17.3604ZM33.3309 18.3604C37.1928 18.3604 40.3236 15.2297 40.3236 11.3677C40.3236 7.50575 37.1928 4.375 33.3309 4.375C29.4689 4.375 26.3381 7.50575 26.3381 11.3677C26.3381 15.2297 29.4689 18.3604 33.3309 18.3604Z" fill="white"/>
<path fill-rule="evenodd" clip-rule="evenodd" d="M74.5538 43.5798C74.5538 43.5798 80.3997 43.6167 84.8488 42.7831C87.428 42.2999 91.2593 41.2855 94.0241 40.5181C96.1184 39.9368 97.6269 38.1292 97.8643 35.9687L98.3304 31.7254V6.13775C98.3304 3.02411 95.8063 0.5 92.6926 0.5H29.4556C27.1838 0.5 25.072 1.6742 24.2419 3.78895C23.0705 6.77347 21.6692 11.6928 21.6692 18.1486C21.6692 25.1033 23.5722 32.8042 24.992 37.5817C25.8409 40.4383 28.417 42.3684 31.3933 42.52C34.324 42.6694 38.0298 42.8147 40.9111 42.7831C44.2877 42.7461 46.8187 42.444 49.3734 42.139C51.4999 41.8851 53.6429 41.6292 56.3036 41.5227C58.0475 41.4529 59.7897 41.6405 61.5084 41.9442C64.839 42.5329 68.0934 43.0381 68.4019 43.0859C68.4196 43.0886 68.4347 43.0903 68.4526 43.0917L74.5538 43.5798ZM74.6404 41.4853C74.6803 41.4854 74.7358 41.4853 74.806 41.4851C74.967 41.4845 75.2044 41.4827 75.5043 41.4781C76.1045 41.4688 76.9518 41.4479 77.9344 41.4017C79.9178 41.3083 82.3795 41.1146 84.4631 40.7243C86.9429 40.2597 90.694 39.2685 93.4639 38.4997C94.7155 38.1523 95.6364 37.0665 95.7821 35.74L96.2357 31.6106V6.13775C96.2357 4.18097 94.6494 2.59468 92.6926 2.59468H29.4556C27.8659 2.59468 26.6463 3.39639 26.1918 4.55429C25.0984 7.33989 23.7639 11.999 23.7639 18.1486C23.7639 24.7923 25.595 32.2577 26.9999 36.985C27.5831 38.9473 29.3642 40.3192 31.4999 40.4281C34.4233 40.5771 38.0752 40.7194 40.8881 40.6886C43.8687 40.6559 46.1646 40.41 48.4849 40.1353C48.6989 40.1099 48.9135 40.0843 49.1291 40.0585C51.2525 39.8049 53.4729 39.5397 56.2198 39.4297C58.1647 39.3519 60.0667 39.5623 61.873 39.8815C65.0448 40.4422 68.1511 40.9272 68.6698 41.0077L74.6404 41.4853Z" fill="white"/>
<path fill-rule="evenodd" clip-rule="evenodd" d="M41.4271 19.395C41.0783 27.39 43.1529 34.279 43.9998 36.7187C44.0664 36.9104 44.25 37.0603 44.5034 37.0742L45.3523 37.1205C45.6511 37.1368 45.92 36.9399 45.9946 36.65C46.2926 35.4936 47.3327 34.6835 48.5269 34.6777L57.1499 34.6362C57.8775 34.6327 58.5514 35.0184 58.9169 35.6476L58.948 35.7012C59.2845 35.0469 59.9594 34.6333 60.6984 34.6333H64.0663C65.2561 34.6333 66.2821 35.4696 66.5219 36.635C66.575 36.8928 66.8166 37.0672 67.0781 37.0363L80.5924 35.4409C81.5005 35.3337 82.1999 34.7978 82.4484 34.0507C83.1939 31.8089 84.3052 27.2852 84.3052 20.2291C84.3052 13.1569 83.8131 9.14413 83.479 7.23553C83.4023 6.79737 83.0317 6.44498 82.4924 6.39539C78.2629 6.00644 66.523 4.94326 61.0217 4.61041C55.5502 4.27937 47.0715 4.48633 44.0644 4.57658C43.8083 4.58427 43.625 4.7394 43.5674 4.93367C42.9834 6.90236 41.757 11.831 41.4271 19.395ZM44.0344 3.57703C43.3739 3.59685 42.7966 4.01578 42.6086 4.6493C42.0038 6.68846 40.7618 11.6981 40.428 19.3514C40.0714 27.5257 42.1889 34.5511 43.0551 37.0466C43.263 37.6455 43.8159 38.0381 44.449 38.0727L45.2978 38.119C46.0725 38.1612 46.7694 37.6509 46.963 36.8995C47.1476 36.1832 47.7919 35.6813 48.5317 35.6777L57.1547 35.6362C57.5242 35.6344 57.8665 35.8303 58.0522 36.1499L58.1127 36.2541C58.5038 36.9273 59.489 36.8874 59.8243 36.1847C59.9851 35.8478 60.3251 35.6333 60.6984 35.6333H64.0663C64.7815 35.6333 65.3983 36.136 65.5425 36.8366C65.7002 37.603 66.4183 38.1212 67.1953 38.0294L80.7096 36.434C81.9378 36.289 83.007 35.5397 83.3973 34.3662C84.1767 32.0226 85.3052 27.3923 85.3052 20.2291C85.3052 13.1122 84.8101 9.04021 84.464 7.06309C84.3013 6.13352 83.5237 5.48601 82.584 5.39959C78.3605 5.01119 66.6026 3.94625 61.0821 3.61224C55.5583 3.27803 47.0351 3.48697 44.0344 3.57703Z" fill="white"/>
<path d="M47.8 37.548C47.8 37.0309 48.2192 36.6118 48.7362 36.6118H51.1351C51.6521 36.6118 52.0713 37.0309 52.0713 37.548V37.548C52.0713 38.065 51.6521 38.4841 51.1351 38.4841H48.7362C48.2192 38.4841 47.8 38.065 47.8 37.548V37.548Z" fill="white"/>
<path d="M53.3591 37.548C53.3591 37.0309 53.7783 36.6118 54.2953 36.6118H56.6942C57.2112 36.6118 57.6304 37.0309 57.6304 37.548V37.548C57.6304 38.065 57.2112 38.4841 56.6942 38.4841H54.2953C53.7783 38.4841 53.3591 38.065 53.3591 37.548V37.548Z" fill="white"/>
<path d="M60.2043 37.548C60.2043 37.0309 60.6235 36.6118 61.1405 36.6118H63.5394C64.0564 36.6118 64.4756 37.0309 64.4756 37.548V37.548C64.4756 38.065 64.0564 38.4841 63.5394 38.4841H61.1405C60.6235 38.4841 60.2043 38.065 60.2043 37.548V37.548Z" fill="white"/>
<path d="M87.6324 31.6278C87.9037 31.3688 88.3307 31.3688 88.602 31.6278L90.2887 33.2379C90.6591 33.5914 90.6532 34.1953 90.4029 34.616C90.1386 35.0604 89.4846 35.5315 88.9895 35.6805C88.7761 35.7447 88.4929 35.7874 88.1172 35.7874C87.7414 35.7874 87.4583 35.7447 87.2448 35.6805C86.7498 35.5315 86.0958 35.0604 85.8314 34.616C85.5812 34.1953 85.5753 33.5914 85.9457 33.2379L87.6324 31.6278Z" fill="white"/>
<path d="M89.5714 30.6579C89.3124 30.3866 89.3124 29.9596 89.5714 29.6883L91.1815 28.0016C91.535 27.6312 92.1389 27.6371 92.5596 27.8874C93.004 28.1517 93.4751 28.8057 93.6241 29.3008C93.6883 29.5142 93.731 29.7974 93.731 30.1731C93.731 30.5489 93.6883 30.832 93.6241 31.0454C93.4751 31.5405 93.004 32.1945 92.5596 32.4588C92.1389 32.7091 91.535 32.715 91.1815 32.3446L89.5714 30.6579Z" fill="white"/>
<path fill-rule="evenodd" clip-rule="evenodd" d="M77.6057 12.9844H47.6682V28.625H77.6057V12.9844ZM45.6682 10.9844V30.625H79.6057V10.9844H45.6682Z" fill="white"/>
<path d="M93.7307 6.74238C93.7307 6.53233 93.901 6.36206 94.111 6.36206H96.3929V7.12269H94.111C93.901 7.12269 93.7307 6.95242 93.7307 6.74238V6.74238Z" fill="white"/>
<path d="M94.4324 8.05878C94.4324 7.84874 94.6026 7.67847 94.8127 7.67847H96.3925V8.4391H94.8127C94.6026 8.4391 94.4324 8.26882 94.4324 8.05878V8.05878Z" fill="white"/>
<path d="M93.7307 12.0082C93.7307 11.7982 93.901 11.6279 94.111 11.6279H96.3929V12.3886H94.111C93.901 12.3886 93.7307 12.2183 93.7307 12.0082V12.0082Z" fill="white"/>
<path d="M94.4324 10.6918C94.4324 10.4818 94.6026 10.3115 94.8127 10.3115H96.3925V11.0722H94.8127C94.6026 11.0722 94.4324 10.9019 94.4324 10.6918V10.6918Z" fill="white"/>
<path d="M94.9006 9.37543C94.9006 9.16539 95.0709 8.99512 95.2809 8.99512H96.3926V9.75575H95.2809C95.0709 9.75575 94.9006 9.58547 94.9006 9.37543V9.37543Z" fill="white"/>
<path fill-rule="evenodd" clip-rule="evenodd" d="M80.0237 9.99512H45.0837C44.895 9.99512 44.7736 10.1151 44.7477 10.2474C44.4168 11.9336 43.8274 15.6618 43.8274 20.8157C43.8274 25.9696 44.4168 29.6977 44.7477 31.384C44.7736 31.5163 44.895 31.6363 45.0837 31.6363H80.0237C80.0942 31.6363 80.1427 31.6178 80.1686 31.602C80.1906 31.5885 80.1994 31.5761 80.2057 31.5608C80.6855 30.3813 81.6727 27.1811 81.6727 20.8157C81.6727 14.4503 80.6855 11.2501 80.2057 10.0706C80.1994 10.0553 80.1906 10.0429 80.1686 10.0294C80.1427 10.0136 80.0942 9.99512 80.0237 9.99512ZM45.0837 8.99512C44.4441 8.99512 43.8895 9.42727 43.7664 10.0549C43.4254 11.7931 42.8274 15.5864 42.8274 20.8157C42.8274 26.0449 43.4254 29.8383 43.7664 31.5765C43.8895 32.2041 44.4441 32.6363 45.0837 32.6363H80.0237C80.507 32.6363 80.9498 32.3853 81.1319 31.9376C81.6697 30.6157 82.6727 27.2833 82.6727 20.8157C82.6727 14.3481 81.6697 11.0157 81.1319 9.69378C80.9498 9.24612 80.507 8.99512 80.0237 8.99512H45.0837Z" fill="white"/>
<path d="M33.8161 29.1004C33.5448 29.3594 33.1178 29.3594 32.8465 29.1004L31.1598 27.4904C30.7894 27.1369 30.7953 26.533 31.0456 26.1122C31.3099 25.6679 31.9639 25.1968 32.459 25.0478C32.6724 24.9835 32.9556 24.9409 33.3313 24.9409C33.7071 24.9409 33.9902 24.9835 34.2036 25.0478C34.6987 25.1968 35.3527 25.6679 35.617 26.1122C35.8673 26.533 35.8732 27.1369 35.5028 27.4904L33.8161 29.1004Z" fill="white"/>
<path d="M32.8455 32.0101C33.1168 31.7512 33.5438 31.7512 33.8151 32.0101L35.5018 33.6202C35.8722 33.9737 35.8663 34.5776 35.616 34.9984C35.3517 35.4427 34.6977 35.9138 34.2026 36.0628C33.9892 36.1271 33.7061 36.1697 33.3303 36.1697C32.9546 36.1697 32.6714 36.1271 32.458 36.0628C31.9629 35.9138 31.3089 35.4427 31.0446 34.9984C30.7943 34.5776 30.7884 33.9737 31.1588 33.6202L32.8455 32.0101Z" fill="white"/>
<path d="M31.8766 30.0704C32.1356 30.3417 32.1356 30.7686 31.8766 31.04L30.2665 32.7267C29.913 33.0971 29.3091 33.0912 28.8884 32.8409C28.444 32.5766 27.9729 31.9226 27.8239 31.4275C27.7597 31.2141 27.717 30.9309 27.717 30.5552C27.717 30.1794 27.7597 29.8962 27.8239 29.6828C27.9729 29.1877 28.444 28.5338 28.8884 28.2694C29.3091 28.0192 29.913 28.0133 30.2665 28.3837L31.8766 30.0704Z" fill="white"/>
<path d="M34.7855 31.04C34.5266 30.7687 34.5266 30.3417 34.7855 30.0704L36.3956 28.3837C36.7491 28.0133 37.353 28.0192 37.7738 28.2695C38.2181 28.5338 38.6892 29.1878 38.8382 29.6829C38.9024 29.8963 38.9451 30.1794 38.9451 30.5552C38.9451 30.9309 38.9024 31.2141 38.8382 31.4275C38.6892 31.9226 38.2181 32.5766 37.7738 32.8409C37.353 33.0912 36.7491 33.0971 36.3956 32.7267L34.7855 31.04Z" fill="white"/>
<path fill-rule="evenodd" clip-rule="evenodd" d="M33.3309 36.5479C36.6405 36.5479 39.3236 33.8649 39.3236 30.5552C39.3236 27.2455 36.6405 24.5625 33.3309 24.5625C30.0212 24.5625 27.3381 27.2455 27.3381 30.5552C27.3381 33.8649 30.0212 36.5479 33.3309 36.5479ZM33.3309 37.5479C37.1928 37.5479 40.3236 34.4172 40.3236 30.5552C40.3236 26.6932 37.1928 23.5625 33.3309 23.5625C29.4689 23.5625 26.3381 26.6932 26.3381 30.5552C26.3381 34.4172 29.4689 37.5479 33.3309 37.5479Z" fill="white"/>
</svg>
