<svg width="24" height="25" viewBox="0 0 24 25" fill="none" xmlns="http://www.w3.org/2000/svg">
<path fill-rule="evenodd" clip-rule="evenodd" d="M10.9355 12.6336C10.9355 11.7517 11.6504 11.0368 12.5323 11.0368C13.4142 11.0368 14.1291 11.7517 14.1291 12.6336C14.1291 13.5155 13.4142 14.2304 12.5323 14.2304C11.6504 14.2304 10.9355 13.5155 10.9355 12.6336ZM12.5323 11.7465C12.0424 11.7465 11.6452 12.1437 11.6452 12.6336C11.6452 13.1235 12.0424 13.5207 12.5323 13.5207C13.0223 13.5207 13.4194 13.1235 13.4194 12.6336C13.4194 12.1437 13.0223 11.7465 12.5323 11.7465Z" fill="white"/>
<path fill-rule="evenodd" clip-rule="evenodd" d="M10.9355 16.182C10.9355 15.3001 11.6504 14.5852 12.5323 14.5852C13.4142 14.5852 14.1291 15.3001 14.1291 16.182C14.1291 17.0639 13.4142 17.7788 12.5323 17.7788C11.6504 17.7788 10.9355 17.0639 10.9355 16.182ZM12.5323 15.2949C12.0424 15.2949 11.6452 15.692 11.6452 16.182C11.6452 16.6719 12.0424 17.0691 12.5323 17.0691C13.0223 17.0691 13.4194 16.6719 13.4194 16.182C13.4194 15.692 13.0223 15.2949 12.5323 15.2949Z" fill="white"/>
<path fill-rule="evenodd" clip-rule="evenodd" d="M14.4839 11.2142C14.4839 10.3324 15.1988 9.61746 16.0807 9.61746C16.9625 9.61746 17.6774 10.3324 17.6774 11.2142C17.6774 12.0961 16.9625 12.811 16.0807 12.811C15.1988 12.811 14.4839 12.0961 14.4839 11.2142ZM16.0807 10.3271C15.5907 10.3271 15.1936 10.7243 15.1936 11.2142C15.1936 11.7042 15.5907 12.1013 16.0807 12.1013C16.5706 12.1013 16.9678 11.7042 16.9678 11.2142C16.9678 10.7243 16.5706 10.3271 16.0807 10.3271Z" fill="white"/>
<path fill-rule="evenodd" clip-rule="evenodd" d="M14.4839 14.7626C14.4839 13.8807 15.1988 13.1658 16.0807 13.1658C16.9625 13.1658 17.6774 13.8807 17.6774 14.7626C17.6774 15.6445 16.9625 16.3594 16.0807 16.3594C15.1988 16.3594 14.4839 15.6445 14.4839 14.7626ZM16.0807 13.8755C15.5907 13.8755 15.1936 14.2727 15.1936 14.7626C15.1936 15.2526 15.5907 15.6497 16.0807 15.6497C16.5706 15.6497 16.9678 15.2526 16.9678 14.7626C16.9678 14.2727 16.5706 13.8755 16.0807 13.8755Z" fill="white"/>
<path fill-rule="evenodd" clip-rule="evenodd" d="M18.0322 11.2142C18.0322 10.3324 18.7471 9.61746 19.629 9.61746C20.5109 9.61746 21.2258 10.3324 21.2258 11.2142C21.2258 12.0961 20.5109 12.811 19.629 12.811C18.7471 12.811 18.0322 12.0961 18.0322 11.2142ZM19.629 10.3271C19.1391 10.3271 18.7419 10.7243 18.7419 11.2142C18.7419 11.7042 19.1391 12.1013 19.629 12.1013C20.1189 12.1013 20.5161 11.7042 20.5161 11.2142C20.5161 10.7243 20.1189 10.3271 19.629 10.3271Z" fill="white"/>
<path fill-rule="evenodd" clip-rule="evenodd" d="M18.0322 14.7626C18.0322 13.8807 18.7471 13.1658 19.629 13.1658C20.5109 13.1658 21.2258 13.8807 21.2258 14.7626C21.2258 15.6445 20.5109 16.3594 19.629 16.3594C18.7471 16.3594 18.0322 15.6445 18.0322 14.7626ZM19.629 13.8755C19.1391 13.8755 18.7419 14.2727 18.7419 14.7626C18.7419 15.2526 19.1391 15.6497 19.629 15.6497C20.1189 15.6497 20.5161 15.2526 20.5161 14.7626C20.5161 14.2727 20.1189 13.8755 19.629 13.8755Z" fill="white"/>
<path fill-rule="evenodd" clip-rule="evenodd" d="M3.48389 8.19811C3.48389 6.63033 4.75482 5.3594 6.3226 5.3594C7.89037 5.3594 9.16131 6.63033 9.16131 8.19811C9.16131 9.76589 7.89037 11.0368 6.3226 11.0368C4.75482 11.0368 3.48389 9.76589 3.48389 8.19811ZM6.3226 6.06908C5.14676 6.06908 4.19356 7.02228 4.19356 8.19811C4.19356 9.37394 5.14676 10.3271 6.3226 10.3271C7.49843 10.3271 8.45163 9.37394 8.45163 8.19811C8.45163 7.02228 7.49843 6.06908 6.3226 6.06908Z" fill="white"/>
<path fill-rule="evenodd" clip-rule="evenodd" d="M3.12891 14.94C3.12891 13.4515 4.14699 12.2016 5.52433 11.8471L5.70122 12.5344C4.62982 12.8101 3.83858 13.7831 3.83858 14.94C3.83858 16.3118 4.95064 17.4239 6.32245 17.4239C7.69427 17.4239 8.80633 16.3118 8.80633 14.94C8.80633 13.7831 8.01509 12.8101 6.94369 12.5344L7.12058 11.8471C8.49792 12.2016 9.516 13.4515 9.516 14.94C9.516 16.7038 8.08621 18.1336 6.32245 18.1336C4.5587 18.1336 3.12891 16.7038 3.12891 14.94Z" fill="white"/>
<path fill-rule="evenodd" clip-rule="evenodd" d="M5.2583 14.94V10.682H5.96798V14.94C5.96798 15.136 6.12683 15.2949 6.32282 15.2949C6.5188 15.2949 6.67766 15.136 6.67766 14.94V10.682H7.38733V14.94C7.38733 15.528 6.91074 16.0046 6.32282 16.0046C5.73489 16.0046 5.2583 15.528 5.2583 14.94Z" fill="white"/>
<path fill-rule="evenodd" clip-rule="evenodd" d="M0.467773 9.61746C0.467773 8.34365 1.50042 7.31101 2.77422 7.31101H4.00938V8.37553H2.77422C2.08833 8.37553 1.53229 8.93156 1.53229 9.61746V18.1336C1.53229 18.8195 2.08833 19.3755 2.77422 19.3755H21.2258C21.9116 19.3755 22.4678 18.8195 22.4678 18.1336V9.61746C22.4678 8.93159 21.9116 8.37553 21.2258 8.37553H8.49277V7.31101H21.2258C22.4995 7.31101 23.5323 8.34362 23.5323 9.61746V18.1336C23.5323 19.4074 22.4995 20.44 21.2258 20.44H2.77422C1.50042 20.44 0.467773 19.4074 0.467773 18.1336V9.61746Z" fill="white"/>
</svg>
