<svg width="24" height="25" viewBox="0 0 24 25" fill="none" xmlns="http://www.w3.org/2000/svg">
<path fill-rule="evenodd" clip-rule="evenodd" d="M3.72743 6.02551L3.95618 5.02472H4.40886L4.67422 5.36813H5.64201L5.75127 5.6491H9.04488L9.155 5.9032L20.8929 5.9032L21.111 5.27447L22.2017 5.9032H22.3286C22.5835 5.9032 22.7988 6.07297 22.8676 6.30563C23.0595 6.31818 23.2216 6.45708 23.2617 6.64759C23.3463 7.04938 23.3463 7.46438 23.2617 7.86617C23.2232 8.04903 23.0723 8.18435 22.8905 8.20602V8.35564C22.8905 8.46591 22.8011 8.55531 22.6908 8.55531H22.4378V9.14563H22.5944C22.8489 9.14563 23.0685 9.32386 23.1209 9.57284C23.2263 10.0734 23.2263 10.5905 23.1209 11.0911C23.0685 11.34 22.8489 11.5183 22.5944 11.5183H22.4378V12.5329L21.3296 13.766H15.9287L14.8672 12.5329V12.0802H13.6809L13.4095 13.4101C13.3858 13.5264 13.2835 13.61 13.1648 13.61H10.6683L9.90783 13.6708C9.37668 13.7133 8.84223 13.6825 8.3195 13.5792L7.84295 13.4851C7.38152 13.4515 7.09153 13.7496 6.93037 14.0545L5.45469 19.4167L5.68884 20.1191L5.12689 20.7747L0.943544 19.9006L0.678183 19.4167C0.631354 18.1679 1.05281 15.071 3.11327 12.6734C3.49829 12.1635 3.7314 10.9907 1.58353 10.3788L1.20891 10.2071V9.77001L0.943544 9.5827L1.75524 7.25688H2.91915L3.14336 6.66765C3.25232 6.38132 3.46424 6.15538 3.72743 6.02551ZM9.91902 10.7378C9.40177 10.7378 8.98244 11.1571 8.98244 11.6744V12.1583C8.98244 12.6755 9.40177 13.0948 9.91902 13.0948H10.7073C11.3582 13.0948 11.8858 12.5672 11.8858 11.9163C11.8858 11.2654 11.3582 10.7378 10.7073 10.7378H9.91902Z" fill="#D9D9D9"/>
</svg>
