<svg width="120" height="81" viewBox="0 0 120 81" fill="none" xmlns="http://www.w3.org/2000/svg">
<path fill-rule="evenodd" clip-rule="evenodd" d="M93.2243 4.31868H26.7755L26.7755 39.4525L93.2243 39.4525V4.31868ZM26.7755 2.02734C25.51 2.02734 24.4841 3.05321 24.4841 4.31868V39.4525C24.4841 40.718 25.51 41.7439 26.7755 41.7439H93.2243C94.4898 41.7439 95.5156 40.718 95.5156 39.4525V4.31868C95.5156 3.05321 94.4898 2.02734 93.2243 2.02734H26.7755Z" fill="white"/>
<path fill-rule="evenodd" clip-rule="evenodd" d="M87.8777 8.13791H32.1218V36.3978H87.8777V8.13791ZM30.5942 6.61035V37.9253H89.4053V6.61035H30.5942Z" fill="white"/>
<path fill-rule="evenodd" clip-rule="evenodd" d="M19.1377 14.3321C20.1844 14.3321 21.0471 13.4766 21.0471 12.4037C21.0471 11.3308 20.1844 10.4753 19.1377 10.4753C18.091 10.4753 17.2282 11.3308 17.2282 12.4037C17.2282 13.4766 18.091 14.3321 19.1377 14.3321ZM22.5747 12.4037C22.5747 14.3123 21.0359 15.8596 19.1377 15.8596C17.2395 15.8596 15.7007 14.3123 15.7007 12.4037C15.7007 10.495 17.2395 8.94775 19.1377 8.94775C21.0359 8.94775 22.5747 10.495 22.5747 12.4037Z" fill="white"/>
<path fill-rule="evenodd" clip-rule="evenodd" d="M19.1379 22.4205C19.8852 22.4205 20.491 21.8113 20.491 21.0599C20.491 20.3084 19.8852 19.6992 19.1379 19.6992C18.3905 19.6992 17.7847 20.3084 17.7847 21.0599C17.7847 21.8113 18.3905 22.4205 19.1379 22.4205Z" fill="white"/>
<path fill-rule="evenodd" clip-rule="evenodd" d="M19.1379 20.8929C19.0337 20.8929 18.9635 20.9756 18.9635 21.0599C18.9635 21.1441 19.0337 21.2268 19.1379 21.2268C19.2421 21.2268 19.3122 21.1441 19.3122 21.0599C19.3122 20.9756 19.2421 20.8929 19.1379 20.8929ZM20.491 21.0599C20.491 21.8113 19.8852 22.4205 19.1379 22.4205C18.3905 22.4205 17.7847 21.8113 17.7847 21.0599C17.7847 20.3084 18.3905 19.6992 19.1379 19.6992C19.8852 19.6992 20.491 20.3084 20.491 21.0599Z" fill="white"/>
<path fill-rule="evenodd" clip-rule="evenodd" d="M16.4311 25.1417C17.1784 25.1417 17.7843 24.5325 17.7843 23.7811C17.7843 23.0296 17.1784 22.4204 16.4311 22.4204C15.6837 22.4204 15.0779 23.0296 15.0779 23.7811C15.0779 24.5325 15.6837 25.1417 16.4311 25.1417Z" fill="white"/>
<path fill-rule="evenodd" clip-rule="evenodd" d="M16.4311 23.6141C16.3269 23.6141 16.2567 23.6968 16.2567 23.7811C16.2567 23.8653 16.3269 23.948 16.4311 23.948C16.5353 23.948 16.6054 23.8653 16.6054 23.7811C16.6054 23.6968 16.5353 23.6141 16.4311 23.6141ZM17.7843 23.7811C17.7843 24.5325 17.1784 25.1417 16.4311 25.1417C15.6837 25.1417 15.0779 24.5325 15.0779 23.7811C15.0779 23.0296 15.6837 22.4204 16.4311 22.4204C17.1784 22.4204 17.7843 23.0296 17.7843 23.7811Z" fill="white"/>
<path fill-rule="evenodd" clip-rule="evenodd" d="M21.8444 25.1417C22.5917 25.1417 23.1976 24.5325 23.1976 23.7811C23.1976 23.0296 22.5917 22.4204 21.8444 22.4204C21.0971 22.4204 20.4912 23.0296 20.4912 23.7811C20.4912 24.5325 21.0971 25.1417 21.8444 25.1417Z" fill="white"/>
<path fill-rule="evenodd" clip-rule="evenodd" d="M21.8444 23.6141C21.7402 23.6141 21.67 23.6968 21.67 23.7811C21.67 23.8653 21.7402 23.948 21.8444 23.948C21.9486 23.948 22.0188 23.8653 22.0188 23.7811C22.0188 23.6968 21.9486 23.6141 21.8444 23.6141ZM23.1976 23.7811C23.1976 24.5325 22.5917 25.1417 21.8444 25.1417C21.0971 25.1417 20.4912 24.5325 20.4912 23.7811C20.4912 23.0296 21.0971 22.4204 21.8444 22.4204C22.5917 22.4204 23.1976 23.0296 23.1976 23.7811Z" fill="white"/>
<path fill-rule="evenodd" clip-rule="evenodd" d="M19.1379 27.8634C19.8852 27.8634 20.491 27.2542 20.491 26.5027C20.491 25.7513 19.8852 25.1421 19.1379 25.1421C18.3905 25.1421 17.7847 25.7513 17.7847 26.5027C17.7847 27.2542 18.3905 27.8634 19.1379 27.8634Z" fill="white"/>
<path fill-rule="evenodd" clip-rule="evenodd" d="M19.1379 26.3358C19.0337 26.3358 18.9635 26.4185 18.9635 26.5027C18.9635 26.587 19.0337 26.6696 19.1379 26.6696C19.2421 26.6696 19.3122 26.587 19.3122 26.5027C19.3122 26.4185 19.2421 26.3358 19.1379 26.3358ZM20.491 26.5027C20.491 27.2542 19.8852 27.8634 19.1379 27.8634C18.3905 27.8634 17.7847 27.2542 17.7847 26.5027C17.7847 25.7513 18.3905 25.1421 19.1379 25.1421C19.8852 25.1421 20.491 25.7513 20.491 26.5027Z" fill="white"/>
<path d="M21.1068 1.06656C19.2047 0.949381 17.3056 1.39152 15.6183 2.34431C13.9311 3.2971 12.5212 4.72362 11.5437 6.46688L12.8183 7.26579L16.6782 3.75802L21.0049 2.73861L21.1068 1.06656Z" fill="white"/>
<path fill-rule="evenodd" clip-rule="evenodd" d="M24.4843 4.10042H19.9016C16.527 4.10042 13.7913 6.83607 13.7913 10.2107V33.3427C13.7913 36.7173 16.527 39.453 19.9016 39.453L24.4843 39.453L24.4843 4.10042ZM19.9016 1.80908C15.2615 1.80908 11.5 5.5706 11.5 10.2107V33.3427C11.5 37.9828 15.2615 41.7443 19.9016 41.7443H24.4843C25.7497 41.7443 26.7756 40.7184 26.7756 39.453V4.10042C26.7756 2.83495 25.7497 1.80908 24.4843 1.80908H19.9016Z" fill="white"/>
<path fill-rule="evenodd" clip-rule="evenodd" d="M21.429 30.4474H19.9015L19.9015 30.4474V31.9918H21.429L21.429 30.4474ZM19.9015 29.6836C19.4797 29.6836 19.1377 30.0256 19.1377 30.4474V31.9918C19.1377 32.4136 19.4797 32.7555 19.9015 32.7555H21.429C21.8509 32.7555 22.1928 32.4136 22.1928 31.9918V30.4474C22.1928 30.0255 21.8509 29.6836 21.429 29.6836H19.9015Z" fill="white"/>
<path d="M21.4292 5.87598H23.7205V6.64396H21.4292V5.87598Z" fill="white"/>
<path fill-rule="evenodd" clip-rule="evenodd" d="M100.862 25.8516C101.908 25.8516 102.771 24.9961 102.771 23.9232C102.771 22.8503 101.908 21.9948 100.862 21.9948C99.8152 21.9948 98.9524 22.8503 98.9524 23.9232C98.9524 24.9961 99.8152 25.8516 100.862 25.8516ZM104.299 23.9232C104.299 25.8319 102.76 27.3792 100.862 27.3792C98.9636 27.3792 97.4248 25.8319 97.4248 23.9232C97.4248 22.0146 98.9636 20.4673 100.862 20.4673C102.76 20.4673 104.299 22.0146 104.299 23.9232Z" fill="white"/>
<path fill-rule="evenodd" clip-rule="evenodd" d="M100.862 11.0431C101.61 11.0431 102.215 10.4339 102.215 9.68242C102.215 8.93096 101.61 8.32178 100.862 8.32178C100.115 8.32178 99.509 8.93096 99.509 9.68242C99.509 10.4339 100.115 11.0431 100.862 11.0431Z" fill="white"/>
<path fill-rule="evenodd" clip-rule="evenodd" d="M100.862 9.5155C100.758 9.5155 100.688 9.59815 100.688 9.68242C100.688 9.76669 100.758 9.84934 100.862 9.84934C100.966 9.84934 101.037 9.76669 101.037 9.68242C101.037 9.59815 100.966 9.5155 100.862 9.5155ZM102.215 9.68242C102.215 10.4339 101.61 11.0431 100.862 11.0431C100.115 11.0431 99.509 10.4339 99.509 9.68242C99.509 8.93096 100.115 8.32178 100.862 8.32178C101.61 8.32178 102.215 8.93096 102.215 9.68242Z" fill="white"/>
<path fill-rule="evenodd" clip-rule="evenodd" d="M98.1554 13.7643C98.9028 13.7643 99.5086 13.1551 99.5086 12.4036C99.5086 11.6521 98.9028 11.043 98.1554 11.043C97.4081 11.043 96.8022 11.6521 96.8022 12.4036C96.8022 13.1551 97.4081 13.7643 98.1554 13.7643Z" fill="white"/>
<path fill-rule="evenodd" clip-rule="evenodd" d="M98.1554 12.2367C98.0512 12.2367 97.9811 12.3193 97.9811 12.4036C97.9811 12.4879 98.0512 12.5705 98.1554 12.5705C98.2596 12.5705 98.3298 12.4879 98.3298 12.4036C98.3298 12.3193 98.2596 12.2367 98.1554 12.2367ZM99.5086 12.4036C99.5086 13.1551 98.9028 13.7643 98.1554 13.7643C97.4081 13.7643 96.8022 13.1551 96.8022 12.4036C96.8022 11.6521 97.4081 11.043 98.1554 11.043C98.9028 11.043 99.5086 11.6521 99.5086 12.4036Z" fill="white"/>
<path fill-rule="evenodd" clip-rule="evenodd" d="M103.569 13.7643C104.316 13.7643 104.922 13.1551 104.922 12.4036C104.922 11.6521 104.316 11.043 103.569 11.043C102.821 11.043 102.216 11.6521 102.216 12.4036C102.216 13.1551 102.821 13.7643 103.569 13.7643Z" fill="white"/>
<path fill-rule="evenodd" clip-rule="evenodd" d="M103.569 12.2367C103.465 12.2367 103.394 12.3193 103.394 12.4036C103.394 12.4879 103.465 12.5705 103.569 12.5705C103.673 12.5705 103.743 12.4879 103.743 12.4036C103.743 12.3193 103.673 12.2367 103.569 12.2367ZM104.922 12.4036C104.922 13.1551 104.316 13.7643 103.569 13.7643C102.821 13.7643 102.216 13.1551 102.216 12.4036C102.216 11.6521 102.821 11.043 103.569 11.043C104.316 11.043 104.922 11.6521 104.922 12.4036Z" fill="white"/>
<path fill-rule="evenodd" clip-rule="evenodd" d="M100.862 16.4859C101.61 16.4859 102.215 15.8768 102.215 15.1253C102.215 14.3738 101.61 13.7646 100.862 13.7646C100.115 13.7646 99.509 14.3738 99.509 15.1253C99.509 15.8768 100.115 16.4859 100.862 16.4859Z" fill="white"/>
<path fill-rule="evenodd" clip-rule="evenodd" d="M100.862 14.9584C100.758 14.9584 100.688 15.041 100.688 15.1253C100.688 15.2096 100.758 15.2922 100.862 15.2922C100.966 15.2922 101.037 15.2096 101.037 15.1253C101.037 15.041 100.966 14.9584 100.862 14.9584ZM102.215 15.1253C102.215 15.8768 101.61 16.4859 100.862 16.4859C100.115 16.4859 99.509 15.8768 99.509 15.1253C99.509 14.3738 100.115 13.7646 100.862 13.7646C101.61 13.7646 102.215 14.3738 102.215 15.1253Z" fill="white"/>
<path d="M98.8929 1.06656C100.795 0.949381 102.694 1.39152 104.381 2.34431C106.069 3.2971 107.479 4.72362 108.456 6.46688L107.181 7.26579L103.322 3.75802L98.9948 2.73861L98.8929 1.06656Z" fill="white"/>
<path fill-rule="evenodd" clip-rule="evenodd" d="M95.5155 4.10042H100.098C103.473 4.10042 106.208 6.83607 106.208 10.2107V33.3427C106.208 36.7173 103.473 39.453 100.098 39.453L95.5155 39.453L95.5155 4.10042ZM100.098 1.80908C104.738 1.80908 108.5 5.5706 108.5 10.2107V33.3427C108.5 37.9828 104.738 41.7443 100.098 41.7443H95.5155C94.25 41.7443 93.2242 40.7184 93.2242 39.453V4.10042C93.2242 2.83495 94.25 1.80908 95.5155 1.80908H100.098Z" fill="white"/>
<path fill-rule="evenodd" clip-rule="evenodd" d="M98.5705 31.9918C98.9884 31.9918 99.3343 31.65 99.3343 31.2196C99.3343 30.7891 98.9884 30.4474 98.5705 30.4474C98.1527 30.4474 97.8067 30.7891 97.8067 31.2196C97.8067 31.65 98.1527 31.9918 98.5705 31.9918ZM98.5705 32.7555C99.4142 32.7555 100.098 32.0679 100.098 31.2196C100.098 30.3713 99.4142 29.6836 98.5705 29.6836C97.7269 29.6836 97.043 30.3713 97.043 31.2196C97.043 32.0679 97.7269 32.7555 98.5705 32.7555Z" fill="white"/>
<path d="M96.2793 5.87598H98.5706V6.64396H96.2793V5.87598Z" fill="white"/>
<path d="M97.043 7.41162L97.043 5.10767L97.8067 5.10767L97.8067 7.41162L97.043 7.41162Z" fill="white"/>
</svg>
