<svg width="519" height="184" viewBox="0 0 519 184" fill="none" xmlns="http://www.w3.org/2000/svg">
<path d="M220.863 0.523438H209.49L206.365 14.6421H218.291L218.996 11.5112H210.869L211.519 8.85573H218.77L219.461 5.72485H212.22L212.682 3.65431H220.172L220.863 0.523438Z" fill="white"/>
<path d="M236.668 0.523438H233.248L230.123 14.6421H233.807L235.522 6.90568L238.82 14.6421H242.232L245.356 0.523438H241.682L239.974 8.22957L236.668 0.523438Z" fill="white"/>
<path d="M268.033 0.523438H256.011L255.32 3.65431H259.421L256.979 14.6421H260.864L263.297 3.65431H267.342L268.033 0.523438Z" fill="white"/>
<path d="M288.781 0.523438H277.408L274.283 14.6421H286.209L286.914 11.5112H278.787L279.437 8.85573H286.688L287.379 5.72485H280.138L280.6 3.65431H288.09L288.781 0.523438Z" fill="white"/>
<path d="M302.137 0.523438H298.037L301.72 7.43187L295.054 14.6421H300.075L302.149 12.4343L302.15 12.4333L302.151 12.4323C302.752 11.7854 303.228 11.2576 303.574 10.854C303.772 11.2728 304.03 11.7872 304.346 12.3945L304.347 12.3955L305.532 14.6421H309.889L306.226 7.99962L313.115 0.523438H308.201L305.849 3.02945L305.848 3.03057C305.431 3.48105 304.938 4.03035 304.371 4.67792C303.925 3.8094 303.685 3.34045 303.648 3.2654L303.644 3.2564L302.137 0.523438Z" fill="white"/>
<path d="M409.097 25.1656V23.5312H462.084V43.1565H519L486.989 89.7949H462.083V106.651H386.865V119.064H433.908L401.898 165.702H386.878V182.558H358.892L358.041 181.221L349.019 167.107V182.558H315.752V177.912C309.255 181.681 301.854 183.666 294.304 183.666C286.753 183.666 279.365 181.667 272.855 177.885V182.558H239.588V182.005C236.32 183.099 232.875 183.653 229.31 183.653C225.73 183.653 222.246 183.072 218.964 181.937V182.545H158.994L158.292 180.641L152.834 165.688H92.3256L124.336 119.05H133.649L129.118 106.635L84.5593 106.638V89.4436H83.5868L72.7005 105.381L71.836 106.651H31.3972L42.9588 89.7948H0.480469L32.4912 43.1564H74.9696L88.4492 23.5312H131.063C139.599 23.5312 147.136 25.3682 153.457 29.0014V23.5312H186.723V42.0083L198.785 24.7874L199.649 23.5448H261.334L262.185 24.8819L270.735 38.2535V23.5312H396.752C401.276 23.5312 405.423 24.085 409.097 25.1656Z" fill="#0046B7"/>
<path d="M459.773 46.0734V26.4492H412.013V29.1505L408.947 28.1645C405.395 27.0301 401.289 26.4492 396.764 26.4492H273.651V46.4931H272.571L269.329 41.4147L259.753 26.4492H201.161L187.128 46.4931H183.832V26.4492H156.346V34.1749L152.767 32.0004C146.729 28.3267 139.422 26.4627 131.035 26.4627H89.9746L77.1971 45.0478L76.4949 46.0745H34.0165L5.99023 86.9049H48.4686L36.9067 103.761H70.2955L82.0463 86.5672H87.4622V103.761H130.738C131.088 103.761 131.437 103.758 131.782 103.752C132.685 106.796 135.144 113.751 138.133 121.968H125.997L97.9704 162.799H154.928L160.992 179.655H183.656L188.559 164.771V179.641H216.045V177.764L219.219 178.953C222.393 180.141 225.783 180.749 229.295 180.749C232.794 180.749 236.157 180.168 239.317 179.007L242.478 177.859V179.641H269.937V172.712L273.516 174.901C279.769 178.723 286.941 180.749 294.289 180.749C301.637 180.749 308.822 178.737 315.076 174.914L318.655 172.726V179.641H346.114V162.366H349.437L360.485 179.641H383.973V162.785H400.37L428.397 121.955H383.96V103.761H396.67V96.6568L400.938 102.654L401.721 103.761H459.179V86.9051H485.462L513.488 46.0745L459.773 46.0734Z" fill="white"/>
<path d="M359.404 125.297V105.253H381.041V125.297H421.142L397.682 159.482H381.041V176.73H362.051L351.013 159.482H343.182V176.73H321.531V165.871C314.778 173.218 305.053 177.837 294.275 177.837C283.497 177.837 273.772 173.205 267.019 165.83V176.743H245.367V172.313C241.167 175.811 235.616 177.851 229.294 177.851C222.933 177.851 217.368 175.744 213.14 172.138V176.757H191.489V159.482H187.277L181.575 176.757H163.031L156.726 159.482H105.087L128.548 125.297H144.251L136.936 105.253H160.262L167.295 125.297H176.163L182.507 105.239H213.154V110.534C217.26 106.563 222.946 104.132 229.308 104.132C235.723 104.132 241.288 106.334 245.38 110.034V105.239H267.032V116.153C273.785 108.778 283.51 104.145 294.288 104.145C305.188 104.145 314.845 108.657 321.545 115.95V105.253H341.007L353.825 125.297H359.404Z" fill="#F20012"/>
<path d="M42.4164 100.863H68.768L80.5188 83.6693H90.3649V100.863H130.736C142.136 100.863 151.104 97.4867 158.182 90.5039C158.56 90.1256 158.911 89.7338 159.262 89.3421V100.863H179.185L191.234 83.5883H203.037V100.863H260.332V83.5883H268.146L279.188 100.863H298.178V83.5883H302.487V100.863H324.138V83.5883H328.046C329.299 88.2721 331.691 92.2526 335.132 95.3256C339.927 99.6071 346.329 101.971 353.15 101.971C359.984 101.971 366.373 99.6071 371.168 95.3391C371.492 95.042 371.789 94.7178 372.086 94.4208V100.863H393.738V87.5728L403.192 100.863H456.246V83.5883H484.218L507.693 49.4031H456.246V29.3457H414.876V34.4107C410.391 31.0071 404.435 29.3457 396.722 29.3457H357.634V49.4031H348.679V29.3457H276.513V49.4031H270.943L258.117 29.3457H202.254L188.676 49.4031H180.913V29.3457H159.262V41.5692C152.954 33.5734 143.243 29.3592 131.061 29.3592H91.4993L77.7404 49.4031H35.2578L11.7832 83.5883H54.2748L42.4164 100.863Z" fill="#F20012"/>
<path fill-rule="evenodd" clip-rule="evenodd" d="M96.5228 95.0357V77.8419H76.6412L64.8904 95.0357H54.4766L94.5507 36.6602H105.045V95.0357H96.5228ZM96.3609 47.7087L82.0164 70.035H96.536V47.7087H96.3609Z" fill="white"/>
<path d="M165.407 95.0357H175.348L209.181 46.5303V95.0357H237.424V87.2291H217.704V69.4813H237.424V61.6743H217.704V44.4806H237.424V36.6736H205.333L174.092 82.8122H173.93V36.6736H165.407V95.0357Z" fill="white"/>
<path fill-rule="evenodd" clip-rule="evenodd" d="M263.519 141.742C263.519 158.463 277.16 172.037 293.882 172.037C310.522 172.037 324.245 158.558 324.245 141.89C324.245 124.939 310.927 111.446 293.882 111.446C277.093 111.446 263.519 124.858 263.519 141.742ZM274.081 132.436C277.633 124.156 284.805 119.267 293.882 119.267C306.578 119.267 315.736 129.599 315.736 141.985C315.736 144.659 315.182 147.347 314.236 149.792C310.927 158.706 303.512 164.23 293.882 164.23C284.886 164.23 277.714 159.408 274.081 151.21C272.811 148.211 272.028 144.97 272.028 141.742C272.028 138.514 272.825 135.353 274.081 132.436Z" fill="white"/>
<path d="M228.887 172.037C218.244 172.037 210.897 164.23 210.897 153.655H219.42C219.42 159.327 222.729 164.23 228.887 164.23C234.722 164.23 238.274 160.043 238.274 154.37C238.274 148.425 234.174 146.852 229.548 145.075L228.887 144.821L228.684 144.744C219.703 141.309 212.558 138.577 212.558 127.317C212.558 118.24 219.973 111.46 228.887 111.46C238.585 111.46 245.609 117.848 245.609 127.708H237.086C237.086 122.657 233.925 119.267 228.887 119.267C224.633 119.267 221.08 122.967 221.08 127.236C221.08 132.534 225.786 134.209 231.172 136.125C238.376 138.69 246.797 141.687 246.797 154.37C246.797 164.865 239.301 172.037 228.887 172.037Z" fill="white"/>
<path d="M197.646 112.567H206.169V170.943H197.646V112.567Z" fill="white"/>
<path d="M251.538 112.567H260.061V170.943H251.538V112.567Z" fill="white"/>
<path d="M336.387 125.817L365.251 170.93V170.943H374.084V112.567H365.561V156.977H365.399L337.008 112.567H327.702V170.943H336.225V125.817H336.387Z" fill="white"/>
<path d="M186.895 112.567L171.849 160.124L155.195 112.567H145.93L167.23 170.93H176.428L195.688 112.567H186.895Z" fill="white"/>
<path fill-rule="evenodd" clip-rule="evenodd" d="M130.316 95.0357C139.069 95.0357 146.727 92.9018 153.116 86.5941C158.018 81.7048 160.463 72.7904 160.463 66.0099C160.463 59.4729 158.248 52.679 154.466 47.3979C148.861 39.51 140.027 36.6736 130.64 36.6736H111.704V95.0357H130.316ZM130.56 44.4806C139.555 44.4806 146.727 48.6539 150.198 57.0955C151.305 59.9319 151.94 63.0116 151.927 66.0099C151.927 79.5031 143.647 87.2291 130.397 87.2291H120.227V44.4806H130.56Z" fill="white"/>
<path d="M421.06 36.6736V95.0357H449.303V87.2291H429.583V69.4813H449.303V61.6743H429.583V44.4806H449.303V36.6736H421.06Z" fill="white"/>
<path d="M282.387 95.0357L253.524 49.9101H253.362V95.0357H244.839V36.6736H254.145L282.536 81.0835H282.698V36.6736H291.22V95.0492H282.387V95.0357Z" fill="white"/>
<path d="M317.181 95.0492V44.4806H328.377V36.6736H297.461V44.4806H308.658V95.0492H317.181Z" fill="white"/>
<path d="M366.412 91.1729C362.711 94.482 357.741 96.1434 352.771 96.1434C347.8 96.1434 342.83 94.482 339.129 91.1729C334.793 87.31 333.213 81.8668 333.213 76.1805V36.6736H341.736V75.951C341.736 82.8932 345.518 88.3365 352.784 88.3365C360.037 88.3365 363.832 82.8932 363.832 75.951V36.6736H372.355V76.194C372.328 81.8668 370.761 87.31 366.412 91.1729Z" fill="white"/>
<path fill-rule="evenodd" clip-rule="evenodd" d="M400.517 73.2766C402.421 73.2766 404.46 72.8039 406.203 72.1692C413.767 69.4813 417.238 63.2548 417.238 55.3668C417.238 50.3153 415.577 45.1153 411.876 41.5629C407.77 37.5381 401.854 36.6736 396.33 36.6736H378.271V95.0357H386.794V67.9821H386.956L406.203 95.0492H416.846L400.517 73.2766ZM386.794 44.4806H395.789C402.57 44.4806 408.715 47.9517 408.715 55.3668C408.715 64.673 400.206 66.8069 392.629 66.8069H386.794V44.4806Z" fill="white"/>
<path d="M390.923 108.943H392.428V108.4H388.826V108.943H390.324V112.947H390.923V108.943Z" fill="white"/>
<path d="M396.781 112.947H397.357V108.4H396.452L395.21 112.188L393.985 108.4H393.077V112.947H393.646V109.086L394.944 112.947H395.483L396.781 109.086V112.947Z" fill="white"/>
</svg>
