<svg width="509" height="181" viewBox="0 0 509 181" fill="none" xmlns="http://www.w3.org/2000/svg">
<path d="M215.26 0H203.866L200.736 14.1441H212.684L213.389 11.0076H205.248L205.9 8.34733H213.163L213.855 5.2108H206.602L207.064 3.13653H214.568L215.26 0Z" fill="white"/>
<path d="M231.094 0H227.667L224.537 14.1441H228.228L229.946 6.39376L233.249 14.1441H236.667L239.797 0H236.116L234.406 7.72004L231.094 0Z" fill="white"/>
<path d="M262.516 0H250.471L249.779 3.13653H253.888L251.441 14.1441H255.333L257.77 3.13653H261.823L262.516 0Z" fill="white"/>
<path d="M283.301 0H271.907L268.777 14.1441H280.724L281.43 11.0076H273.288L273.94 8.34733H281.204L281.896 5.2108H274.643L275.105 3.13653H282.609L283.301 0Z" fill="white"/>
<path d="M296.681 0H292.574L296.263 6.9209L289.585 14.1441H294.616L296.693 11.9324L296.694 11.9314L296.695 11.9304C297.297 11.2823 297.774 10.7536 298.121 10.3492C298.319 10.7688 298.577 11.2841 298.894 11.8925L298.895 11.8935L300.083 14.1441H304.447L300.777 7.48967L307.679 0H302.756L300.4 2.51053L300.399 2.51165C299.981 2.96295 299.487 3.51324 298.919 4.16198C298.472 3.29189 298.232 2.8221 298.195 2.74691L298.19 2.73789L296.681 0Z" fill="white"/>
<path fill-rule="evenodd" clip-rule="evenodd" d="M454.601 25.9727V45.6323L508.414 45.6333L480.337 86.5377H454.006V103.424H396.445L395.661 102.315L391.385 96.307V103.424H378.652V121.65H423.169L395.092 162.555H378.665V179.441H355.135L344.066 162.135H340.738V179.441H313.229V172.514L309.643 174.705C303.379 178.535 296.18 180.551 288.819 180.551C281.458 180.551 274.273 178.521 268.009 174.692L264.423 172.5V179.441H236.914V177.655L233.748 178.805C230.582 179.969 227.213 180.551 223.708 180.551C220.19 180.551 216.794 179.942 213.614 178.751L210.434 177.56V179.441H182.899V164.544L177.987 179.455H155.282L149.207 162.568H92.1462L120.223 121.664H132.381C129.387 113.432 126.923 106.464 126.019 103.415C125.673 103.421 125.324 103.424 124.973 103.424H81.619V86.1991H76.1933L64.4214 103.424H30.9723L42.555 86.5374H0L28.0769 45.6333H70.6319L71.3354 44.6048L84.1359 25.9861H125.27C133.673 25.9861 140.993 27.8535 147.041 31.5339L150.627 33.7123V25.9727H178.163V46.0527H181.465L195.523 25.9727H254.221L263.814 40.9651L267.061 46.0527H268.144V25.9727H391.479C396.012 25.9727 400.126 26.5546 403.684 27.691L406.756 28.6789V25.9727H454.601ZM62.8908 100.519H36.4916L48.3714 83.2131H5.80316L29.3202 48.9661H71.8794L85.6631 28.886H125.296C137.501 28.886 147.229 33.1079 153.549 41.1181V28.8725H175.238V48.9661H183.015L196.617 28.8725H252.582L265.431 48.9661H271.011V28.8725H343.307V48.9661H352.279V28.8725H391.437C399.163 28.8725 405.13 30.537 409.623 33.9467V28.8725H451.068V48.9661H502.608L479.091 83.2131H451.068V100.519H397.919L388.447 87.2047V100.519H366.757V94.0651C366.659 94.1629 366.561 94.2637 366.462 94.3656C366.26 94.5733 366.054 94.7853 365.836 94.985C361.033 99.2608 354.633 101.629 347.786 101.629C340.953 101.629 334.539 99.2608 329.736 94.9716C326.288 91.893 323.892 87.9053 322.637 83.2131H318.722V100.519H297.031V83.2131H292.715V100.519H273.69L262.628 83.2131H254.801V100.519H197.402V83.2131H185.577L173.507 100.519H153.549V88.9772C153.197 89.3697 152.845 89.7621 152.466 90.1411C145.376 97.1365 136.391 100.519 124.971 100.519H84.5267V83.2942H74.6628L62.8908 100.519ZM354.051 104.917V124.997H348.462L335.622 104.917H316.124V115.633C309.412 108.327 299.737 103.807 288.818 103.807C278.02 103.807 268.278 108.448 261.512 115.836V104.903H239.822V109.707C235.723 105.999 230.147 103.794 223.72 103.794C217.347 103.794 211.651 106.229 207.537 110.207V104.903H176.835L170.479 124.997H161.596L154.55 104.917H131.182L138.51 124.997H122.779L99.2755 159.244H151.008L157.324 176.55H175.902L181.613 159.244H185.833V176.55H207.524V171.922C211.759 175.535 217.334 177.646 223.707 177.646C230.04 177.646 235.6 175.603 239.809 172.098V176.536H261.499V165.603C268.265 172.991 278.007 177.632 288.804 177.632C299.602 177.632 309.344 173.005 316.11 165.644V176.523H337.8V159.244H345.646L356.703 176.523H375.728V159.244H392.398L415.901 124.997H375.728V104.917H354.051Z" fill="white"/>
<path fill-rule="evenodd" clip-rule="evenodd" d="M90.6983 94.6802V77.4553H70.7808L59.0088 94.6802H48.5762L88.7226 36.1992H99.2361V94.6802H90.6983ZM90.5361 47.2677L76.1657 69.6343H90.7115V47.2677H90.5361Z" fill="white"/>
<path d="M159.706 94.6802H169.666L203.56 46.0872V94.6802H231.854V86.8594H212.098V69.0796H231.854V61.2585H212.098V44.0337H231.854V36.2127H199.704L168.407 82.4346H168.245V36.2127H159.706V94.6802Z" fill="white"/>
<path fill-rule="evenodd" clip-rule="evenodd" d="M257.996 141.47C257.996 158.222 271.662 171.82 288.413 171.82C305.084 171.82 318.831 158.317 318.831 141.619C318.831 124.638 305.489 111.12 288.413 111.12C271.594 111.12 257.996 124.557 257.996 141.47ZM268.577 132.148C272.135 123.853 279.321 118.955 288.413 118.955C301.133 118.955 310.307 129.306 310.307 141.714C310.307 144.393 309.752 147.086 308.805 149.535C305.489 158.465 298.061 164 288.413 164C279.402 164 272.217 159.169 268.577 150.956C267.305 147.952 266.52 144.704 266.52 141.47C266.52 138.237 267.318 135.07 268.577 132.148Z" fill="white"/>
<path d="M223.302 171.82C212.639 171.82 205.279 163.999 205.279 153.405H213.817C213.817 159.088 217.132 163.999 223.302 163.999C229.147 163.999 232.706 159.805 232.706 154.122C232.706 148.166 228.598 146.59 223.963 144.81L223.302 144.555L223.098 144.478C214.101 141.037 206.943 138.3 206.943 127.019C206.943 117.926 214.371 111.134 223.302 111.134C233.017 111.134 240.053 117.534 240.053 127.412H231.515C231.515 122.351 228.349 118.955 223.302 118.955C219.039 118.955 215.481 122.662 215.481 126.938C215.481 132.246 220.195 133.924 225.59 135.844C232.808 138.413 241.244 141.416 241.244 154.122C241.244 164.635 233.734 171.82 223.302 171.82Z" fill="white"/>
<path d="M192.004 112.244H200.543V170.724H192.004V112.244Z" fill="white"/>
<path d="M245.993 112.244H254.531V170.724H245.993V112.244Z" fill="white"/>
<path d="M330.995 125.517L359.911 170.711V170.724H368.76V112.244H360.222V156.734H360.06L331.618 112.244H322.295V170.724H330.833V125.517H330.995Z" fill="white"/>
<path d="M181.234 112.244L166.16 159.886L149.477 112.244H140.194L161.533 170.711H170.747L190.042 112.244H181.234Z" fill="white"/>
<path fill-rule="evenodd" clip-rule="evenodd" d="M124.553 94.6802C133.321 94.6802 140.993 92.5424 147.393 86.2233C152.305 81.3251 154.754 72.3947 154.754 65.602C154.754 59.0532 152.535 52.2469 148.746 46.9564C143.131 39.0542 134.281 36.2127 124.877 36.2127H105.907V94.6802H124.553ZM124.796 44.0337C133.808 44.0337 140.993 48.2146 144.47 56.6715C145.58 59.513 146.216 62.5982 146.202 65.602C146.202 79.1195 137.908 86.8594 124.634 86.8594H114.445V44.0337H124.796Z" fill="white"/>
<path d="M415.822 36.2127V94.6802H444.115V86.8594H424.36V69.0796H444.115V61.2585H424.36V44.0337H444.115V36.2127H415.822Z" fill="white"/>
<path d="M276.898 94.6802L247.983 49.4731H247.82V94.6802H239.282V36.2127H248.605L277.047 80.7028H277.21V36.2127H285.747V94.6936H276.898V94.6802Z" fill="white"/>
<path d="M311.754 94.6936V44.0337H322.971V36.2127H291.999V44.0337H303.216V94.6936H311.754Z" fill="white"/>
<path d="M361.075 90.8103C357.367 94.1254 352.388 95.7899 347.409 95.7899C342.429 95.7899 337.45 94.1254 333.742 90.8103C329.399 86.9405 327.816 81.4874 327.816 75.7909V36.2127H336.354V75.561C336.354 82.5157 340.143 87.9688 347.422 87.9688C354.688 87.9688 358.49 82.5157 358.49 75.561V36.2127H367.029V75.8044C367.002 81.4874 365.432 86.9405 361.075 90.8103Z" fill="white"/>
<path fill-rule="evenodd" clip-rule="evenodd" d="M395.241 72.8817C397.149 72.8817 399.192 72.4082 400.938 71.7723C408.515 69.0796 411.992 62.8418 411.992 54.9397C411.992 49.879 410.328 44.6696 406.621 41.1108C402.507 37.0787 396.581 36.2127 391.046 36.2127H372.955V94.6802H381.494V67.5777H381.656L400.938 94.6936H411.6L395.241 72.8817ZM381.494 44.0337H390.505C397.297 44.0337 403.454 47.5111 403.454 54.9397C403.454 64.2626 394.929 66.4003 387.339 66.4003H381.494V44.0337Z" fill="white"/>
<path d="M385.628 108.614H387.135V108.07H383.527V108.614H385.028V112.626H385.628V108.614Z" fill="white"/>
<path d="M391.497 112.626H392.074V108.07H391.167L389.923 111.865L388.696 108.07H387.786V112.626H388.356V108.757L389.656 112.626H390.196L391.497 108.757V112.626Z" fill="white"/>
</svg>
