<svg width="723" height="85" viewBox="0 0 723 85" fill="none" xmlns="http://www.w3.org/2000/svg">
<g id="gamemeta">
<g id="GAME DETAILS">
<g id="ICON DIVIDERS" opacity="0.351446">
<rect id="Rectangle" x="170" width="1" height="73" fill="white"/>
<rect id="Rectangle_2" x="361" width="1" height="73" fill="white"/>
<rect id="Rectangle_3" x="552" width="1" height="73" fill="white"/>
</g>
<g id="MD_LBL_PLAYERS INFO">
<g id="PLAYERS - ICON">
<path id="Oval" d="M258.5 8C258.5 11.5899 255.59 14.5 252 14.5C248.41 14.5 245.5 11.5899 245.5 8C245.5 4.41015 248.41 1.5 252 1.5C255.59 1.5 258.5 4.41015 258.5 8Z" stroke="white" stroke-width="3"/>
<path id="Rectangle_4" d="M239.5 25C239.5 21.9624 241.962 19.5 245 19.5H259C262.038 19.5 264.5 21.9624 264.5 25V36.5H239.5V25Z" stroke="white" stroke-width="3"/>
<path id="Oval_2" d="M287.5 8C287.5 11.5899 284.59 14.5 281 14.5C277.41 14.5 274.5 11.5899 274.5 8C274.5 4.41015 277.41 1.5 281 1.5C284.59 1.5 287.5 4.41015 287.5 8Z" stroke="white" stroke-width="3"/>
<path id="Rectangle_5" d="M268.5 25C268.5 21.9624 270.962 19.5 274 19.5H288C291.038 19.5 293.5 21.9624 293.5 25V36.5H268.5V25Z" stroke="white" stroke-width="3"/>
</g>
</g>
<g id="MD_DEVELOPER INFO">
<g id="PROCESSOR - ICON">
<g id="Group 51">
<rect id="Rectangle_6" x="420" y="13" width="8" height="3" rx="1.5" fill="white"/>
<rect id="Rectangle_7" x="420" y="18" width="8" height="3" rx="1.5" fill="white"/>
<rect id="Rectangle_8" x="420" y="23" width="8" height="3" rx="1.5" fill="white"/>
</g>
<g id="Group 52">
<rect id="Rectangle_9" x="448" y="1" width="7" height="3" rx="1.5" transform="rotate(90 448 1)" fill="white"/>
<rect id="Rectangle_10" x="443" y="1" width="7" height="3" rx="1.5" transform="rotate(90 443 1)" fill="white"/>
<rect id="Rectangle_11" x="438" y="1" width="7" height="3" rx="1.5" transform="rotate(90 438 1)" fill="white"/>
<rect id="Rectangle_12" x="463" y="1" width="7" height="3" rx="1.5" transform="rotate(90 463 1)" fill="white"/>
<rect id="Rectangle_13" x="458" y="1" width="7" height="3" rx="1.5" transform="rotate(90 458 1)" fill="white"/>
<rect id="Rectangle_14" x="453" y="1" width="7" height="3" rx="1.5" transform="rotate(90 453 1)" fill="white"/>
<rect id="Rectangle_15" x="478" y="1" width="7" height="3" rx="1.5" transform="rotate(90 478 1)" fill="white"/>
<rect id="Rectangle_16" x="468" y="1" width="7" height="3" rx="1.5" transform="rotate(90 468 1)" fill="white"/>
<rect id="Rectangle_17" x="473" y="1" width="7" height="3" rx="1.5" transform="rotate(90 473 1)" fill="white"/>
</g>
<g id="Group 52_2">
<rect id="Rectangle_18" x="448" y="31" width="7" height="3" rx="1.5" transform="rotate(90 448 31)" fill="white"/>
<rect id="Rectangle_19" x="443" y="31" width="7" height="3" rx="1.5" transform="rotate(90 443 31)" fill="white"/>
<rect id="Rectangle_20" x="438" y="31" width="7" height="3" rx="1.5" transform="rotate(90 438 31)" fill="white"/>
<rect id="Rectangle_21" x="463" y="31" width="7" height="3" rx="1.5" transform="rotate(90 463 31)" fill="white"/>
<rect id="Rectangle_22" x="458" y="31" width="7" height="3" rx="1.5" transform="rotate(90 458 31)" fill="white"/>
<rect id="Rectangle_23" x="453" y="31" width="7" height="3" rx="1.5" transform="rotate(90 453 31)" fill="white"/>
<rect id="Rectangle_24" x="478" y="31" width="7" height="3" rx="1.5" transform="rotate(90 478 31)" fill="white"/>
<rect id="Rectangle_25" x="468" y="31" width="7" height="3" rx="1.5" transform="rotate(90 468 31)" fill="white"/>
<rect id="Rectangle_26" x="473" y="31" width="7" height="3" rx="1.5" transform="rotate(90 473 31)" fill="white"/>
</g>
<g id="Group 51_2">
<rect id="Rectangle_27" x="486" y="13" width="8" height="3" rx="1.5" fill="white"/>
<rect id="Rectangle_28" x="486" y="18" width="8" height="3" rx="1.5" fill="white"/>
<rect id="Rectangle_29" x="486" y="23" width="8" height="3" rx="1.5" fill="white"/>
</g>
<path id="Rectangle (Stroke)" fill-rule="evenodd" clip-rule="evenodd" d="M428 9V30H485V9H428ZM427.556 6C426.144 6 425 7.14416 425 8.55556V30.4444C425 31.8558 426.144 33 427.556 33H485.444C486.856 33 488 31.8558 488 30.4444V8.55556C488 7.14416 486.856 6 485.444 6H427.556Z" fill="white"/>
<path id="Rectangle (Stroke)_2" fill-rule="evenodd" clip-rule="evenodd" d="M480 14H433V25H480V14ZM431 12V27H482V12H431Z" fill="white"/>
</g>
</g>
<g id="RELEASEDATE - INFO">
<g id="RELEASEDATE - ICON">
<rect id="Rectangle_30" x="632" width="10" height="3" rx="1.5" transform="rotate(90 632 0)" fill="white"/>
<rect id="Rectangle_31" x="620" y="11" width="57" height="2" fill="white"/>
<rect id="Rectangle_32" x="668" width="10" height="3" rx="1.5" transform="rotate(90 668 0)" fill="white"/>
<path id="Rectangle (Stroke)_3" fill-rule="evenodd" clip-rule="evenodd" d="M623 6V35H674V6H623ZM622.556 3C621.144 3 620 4.14416 620 5.55556V35.4444C620 36.8558 621.144 38 622.556 38H674.444C675.856 38 677 36.8558 677 35.4444V5.55556C677 4.14416 675.856 3 674.444 3H622.556Z" fill="white"/>
<path id="Oval_3" fill-rule="evenodd" clip-rule="evenodd" d="M634.5 18C635.328 18 636 17.3284 636 16.5C636 15.6716 635.328 15 634.5 15C633.672 15 633 15.6716 633 16.5C633 17.3284 633.672 18 634.5 18Z" fill="white"/>
<path id="Oval_4" fill-rule="evenodd" clip-rule="evenodd" d="M641.5 18C642.328 18 643 17.3284 643 16.5C643 15.6716 642.328 15 641.5 15C640.672 15 640 15.6716 640 16.5C640 17.3284 640.672 18 641.5 18Z" fill="white"/>
<path id="Oval_5" fill-rule="evenodd" clip-rule="evenodd" d="M648.5 18C649.328 18 650 17.3284 650 16.5C650 15.6716 649.328 15 648.5 15C647.672 15 647 15.6716 647 16.5C647 17.3284 647.672 18 648.5 18Z" fill="white"/>
<path id="Oval_6" fill-rule="evenodd" clip-rule="evenodd" d="M655.5 18C656.328 18 657 17.3284 657 16.5C657 15.6716 656.328 15 655.5 15C654.672 15 654 15.6716 654 16.5C654 17.3284 654.672 18 655.5 18Z" fill="white"/>
<path id="Oval_7" fill-rule="evenodd" clip-rule="evenodd" d="M662.5 18C663.328 18 664 17.3284 664 16.5C664 15.6716 663.328 15 662.5 15C661.672 15 661 15.6716 661 16.5C661 17.3284 661.672 18 662.5 18Z" fill="white"/>
<path id="Oval_8" fill-rule="evenodd" clip-rule="evenodd" d="M669.5 18C670.328 18 671 17.3284 671 16.5C671 15.6716 670.328 15 669.5 15C668.672 15 668 15.6716 668 16.5C668 17.3284 668.672 18 669.5 18Z" fill="white"/>
<path id="Oval_9" fill-rule="evenodd" clip-rule="evenodd" d="M627.5 23C628.328 23 629 22.3284 629 21.5C629 20.6716 628.328 20 627.5 20C626.672 20 626 20.6716 626 21.5C626 22.3284 626.672 23 627.5 23Z" fill="white"/>
<path id="Oval_10" fill-rule="evenodd" clip-rule="evenodd" d="M634.5 23C635.328 23 636 22.3284 636 21.5C636 20.6716 635.328 20 634.5 20C633.672 20 633 20.6716 633 21.5C633 22.3284 633.672 23 634.5 23Z" fill="white"/>
<path id="Oval_11" fill-rule="evenodd" clip-rule="evenodd" d="M641.5 23C642.328 23 643 22.3284 643 21.5C643 20.6716 642.328 20 641.5 20C640.672 20 640 20.6716 640 21.5C640 22.3284 640.672 23 641.5 23Z" fill="white"/>
<path id="Oval_12" fill-rule="evenodd" clip-rule="evenodd" d="M648.5 23C649.328 23 650 22.3284 650 21.5C650 20.6716 649.328 20 648.5 20C647.672 20 647 20.6716 647 21.5C647 22.3284 647.672 23 648.5 23Z" fill="white"/>
<path id="Oval_13" fill-rule="evenodd" clip-rule="evenodd" d="M655.5 23C656.328 23 657 22.3284 657 21.5C657 20.6716 656.328 20 655.5 20C654.672 20 654 20.6716 654 21.5C654 22.3284 654.672 23 655.5 23Z" fill="white"/>
<path id="Oval_14" fill-rule="evenodd" clip-rule="evenodd" d="M662.5 23C663.328 23 664 22.3284 664 21.5C664 20.6716 663.328 20 662.5 20C661.672 20 661 20.6716 661 21.5C661 22.3284 661.672 23 662.5 23Z" fill="white"/>
<path id="Oval_15" fill-rule="evenodd" clip-rule="evenodd" d="M669.5 23C670.328 23 671 22.3284 671 21.5C671 20.6716 670.328 20 669.5 20C668.672 20 668 20.6716 668 21.5C668 22.3284 668.672 23 669.5 23Z" fill="white"/>
<path id="Oval_16" fill-rule="evenodd" clip-rule="evenodd" d="M627.5 28C628.328 28 629 27.3284 629 26.5C629 25.6716 628.328 25 627.5 25C626.672 25 626 25.6716 626 26.5C626 27.3284 626.672 28 627.5 28Z" fill="white"/>
<path id="Oval_17" fill-rule="evenodd" clip-rule="evenodd" d="M634.5 28C635.328 28 636 27.3284 636 26.5C636 25.6716 635.328 25 634.5 25C633.672 25 633 25.6716 633 26.5C633 27.3284 633.672 28 634.5 28Z" fill="white"/>
<path id="Oval_18" fill-rule="evenodd" clip-rule="evenodd" d="M641.5 28C642.328 28 643 27.3284 643 26.5C643 25.6716 642.328 25 641.5 25C640.672 25 640 25.6716 640 26.5C640 27.3284 640.672 28 641.5 28Z" fill="white"/>
<path id="Oval_19" fill-rule="evenodd" clip-rule="evenodd" d="M648.5 28C649.328 28 650 27.3284 650 26.5C650 25.6716 649.328 25 648.5 25C647.672 25 647 25.6716 647 26.5C647 27.3284 647.672 28 648.5 28Z" fill="white"/>
<path id="Oval_20" fill-rule="evenodd" clip-rule="evenodd" d="M655.5 28C656.328 28 657 27.3284 657 26.5C657 25.6716 656.328 25 655.5 25C654.672 25 654 25.6716 654 26.5C654 27.3284 654.672 28 655.5 28Z" fill="white"/>
<path id="Oval_21" fill-rule="evenodd" clip-rule="evenodd" d="M662.5 28C663.328 28 664 27.3284 664 26.5C664 25.6716 663.328 25 662.5 25C661.672 25 661 25.6716 661 26.5C661 27.3284 661.672 28 662.5 28Z" fill="white"/>
<path id="Oval_22" fill-rule="evenodd" clip-rule="evenodd" d="M669.5 28C670.328 28 671 27.3284 671 26.5C671 25.6716 670.328 25 669.5 25C668.672 25 668 25.6716 668 26.5C668 27.3284 668.672 28 669.5 28Z" fill="white"/>
<path id="Oval_23" fill-rule="evenodd" clip-rule="evenodd" d="M627.5 33C628.328 33 629 32.3284 629 31.5C629 30.6716 628.328 30 627.5 30C626.672 30 626 30.6716 626 31.5C626 32.3284 626.672 33 627.5 33Z" fill="white"/>
<path id="Oval_24" fill-rule="evenodd" clip-rule="evenodd" d="M634.5 33C635.328 33 636 32.3284 636 31.5C636 30.6716 635.328 30 634.5 30C633.672 30 633 30.6716 633 31.5C633 32.3284 633.672 33 634.5 33Z" fill="white"/>
<path id="Oval_25" fill-rule="evenodd" clip-rule="evenodd" d="M641.5 33C642.328 33 643 32.3284 643 31.5C643 30.6716 642.328 30 641.5 30C640.672 30 640 30.6716 640 31.5C640 32.3284 640.672 33 641.5 33Z" fill="white"/>
<path id="Oval_26" fill-rule="evenodd" clip-rule="evenodd" d="M648.5 33C649.328 33 650 32.3284 650 31.5C650 30.6716 649.328 30 648.5 30C647.672 30 647 30.6716 647 31.5C647 32.3284 647.672 33 648.5 33Z" fill="white"/>
<path id="Oval_27" fill-rule="evenodd" clip-rule="evenodd" d="M655.5 33C656.328 33 657 32.3284 657 31.5C657 30.6716 656.328 30 655.5 30C654.672 30 654 30.6716 654 31.5C654 32.3284 654.672 33 655.5 33Z" fill="white"/>
<path id="Oval_28" fill-rule="evenodd" clip-rule="evenodd" d="M662.5 33C663.328 33 664 32.3284 664 31.5C664 30.6716 663.328 30 662.5 30C661.672 30 661 30.6716 661 31.5C661 32.3284 661.672 33 662.5 33Z" fill="white"/>
</g>
</g>
</g>
<g id="Group 119">
<path id="Union" d="M64.552 23.7192C64.2263 23.7192 63.9622 23.9833 63.9622 24.309V27.2688H61.0038C60.6781 27.2688 60.4141 27.5328 60.4141 27.8586V29.5187C60.4141 29.8444 60.6781 30.1085 61.0038 30.1085H63.9622V33.0684C63.9622 33.3942 64.2263 33.6582 64.552 33.6582H66.2121C66.5379 33.6582 66.8019 33.3941 66.8019 33.0684V30.1085H69.7632C70.089 30.1085 70.353 29.8444 70.353 29.5187V27.8586C70.353 27.5329 70.089 27.2688 69.7632 27.2688H66.8019V24.309C66.8019 23.9833 66.5379 23.7192 66.2121 23.7192H64.552Z" fill="white"/>
<path id="Subtract" fill-rule="evenodd" clip-rule="evenodd" d="M87.1149 25.1142L85.3425 24.4236L83.5702 25.1142L81.8286 25.8791L81.0637 27.6207L80.373 29.3931L81.0637 31.1654L81.8286 32.907L83.5702 33.6719L85.3425 34.3626L87.1149 33.6719L88.8565 32.907L89.6214 31.1654L90.312 29.3931L89.6214 27.6207L88.8565 25.8791L87.1149 25.1142ZM85.3424 32.1538C86.8671 32.1538 88.1032 30.9178 88.1032 29.393C88.1032 27.8683 86.8671 26.6322 85.3424 26.6322C83.8176 26.6322 82.5815 27.8683 82.5815 29.393C82.5815 30.9178 83.8176 32.1538 85.3424 32.1538Z" fill="white"/>
<path id="Subtract_2" fill-rule="evenodd" clip-rule="evenodd" d="M58.008 10.6374L56.2356 9.94678L54.4632 10.6374L52.7216 11.4023L51.9568 13.1439L51.2661 14.9163L51.9568 16.6886L52.7216 18.4302L54.4632 19.1951L56.2356 19.8857L58.008 19.1951L59.7496 18.4302L60.5144 16.6886L61.2051 14.9163L60.5144 13.1439L59.7496 11.4023L58.008 10.6374ZM56.235 17.6771C57.7598 17.6771 58.9959 16.441 58.9959 14.9163C58.9959 13.3915 57.7598 12.1555 56.235 12.1555C54.7103 12.1555 53.4742 13.3915 53.4742 14.9163C53.4742 16.441 54.7103 17.6771 56.235 17.6771Z" fill="white"/>
<path id="Ellipse 34 (Stroke)" fill-rule="evenodd" clip-rule="evenodd" d="M56.2314 21.337C59.8204 21.337 62.7299 18.4275 62.7299 14.8384C62.7299 11.2494 59.8204 8.33985 56.2314 8.33985C52.6423 8.33985 49.7328 11.2494 49.7328 14.8384C49.7328 18.4275 52.6423 21.337 56.2314 21.337ZM56.2314 22.1015C60.2426 22.1015 63.4944 18.8497 63.4944 14.8384C63.4944 10.8271 60.2426 7.57532 56.2314 7.57532C52.2201 7.57532 48.9683 10.8271 48.9683 14.8384C48.9683 18.8497 52.2201 22.1015 56.2314 22.1015Z" fill="white"/>
<path id="Ellipse 35" d="M90.2322 18.8947C90.2322 20.1614 89.2054 21.1883 87.9386 21.1883C86.6719 21.1883 85.645 20.1614 85.645 18.8947C85.645 17.628 86.6719 16.6011 87.9386 16.6011C89.2054 16.6011 90.2322 17.628 90.2322 18.8947Z" fill="white"/>
<path id="Ellipse 36 (Stroke)" fill-rule="evenodd" clip-rule="evenodd" d="M94.4897 16.8918C95.5438 16.8918 96.3982 16.0373 96.3982 14.9833C96.3982 13.9292 95.5438 13.0748 94.4897 13.0748C93.4357 13.0748 92.5812 13.9292 92.5812 14.9833C92.5812 16.0373 93.4357 16.8918 94.4897 16.8918ZM94.4897 18.4237C96.3898 18.4237 97.9301 16.8833 97.9301 14.9833C97.9301 13.0832 96.3898 11.5428 94.4897 11.5428C92.5896 11.5428 91.0493 13.0832 91.0493 14.9833C91.0493 16.8833 92.5896 18.4237 94.4897 18.4237Z" fill="white"/>
<path id="Union (Stroke)" fill-rule="evenodd" clip-rule="evenodd" d="M93.9579 9.46888L94.6625 9.38758C95.0604 9.34168 95.3625 8.9951 95.3469 8.58775C95.333 8.22231 95.0676 7.92393 94.7228 7.85624L94.7137 7.85445L94.6801 7.847C94.3926 7.78177 92.0018 7.26094 90.3513 9.08091L90.326 9.10888L90.298 9.13421C90.2437 9.18334 90.1965 9.23993 90.1578 9.30211L90.1541 9.30808L90.1489 9.31692C90.0764 9.44007 90.037 9.58418 90.0429 9.73923C90.0581 10.1385 90.3731 10.4563 90.7624 10.4833C91.2179 10.4634 91.4246 10.3647 91.7927 10.1889C92.2593 9.96606 92.8344 9.69683 93.959 9.49744L93.9579 9.46888ZM94.7505 10.1531C93.2509 10.3413 92.6236 10.6409 92.1232 10.8799C91.7173 11.0738 91.3948 11.2278 90.7579 11.2501C89.9693 11.2202 89.3233 10.5938 89.2788 9.79609C89.2783 9.78688 89.2778 9.77766 89.2775 9.76841C89.2659 9.46546 89.3427 9.17959 89.4846 8.9356C89.4852 8.93461 89.4858 8.93362 89.4863 8.93263C89.4872 8.9311 89.4881 8.92957 89.489 8.92804L89.4828 8.92997L89.5071 8.89806C89.5835 8.77499 89.6769 8.6633 89.7839 8.56636C90.1025 8.21505 90.4433 7.93735 90.7918 7.71893C92.5955 6.58863 94.6086 7.04535 94.8495 7.10002L94.8703 7.10463C95.5558 7.2392 96.0846 7.83021 96.1123 8.55857C96.1432 9.36898 95.5427 10.0571 94.7503 10.1485L94.7505 10.1531Z" fill="white"/>
<path id="Union (Stroke)_2" fill-rule="evenodd" clip-rule="evenodd" d="M100.308 15.3093L100.354 16.0171C100.38 16.4168 100.711 16.7357 101.119 16.7405C101.485 16.7448 101.796 16.4945 101.881 16.1535L101.883 16.1445L101.892 16.1113C101.971 15.8274 102.61 13.4655 100.875 11.7265L100.848 11.6998L100.824 11.6706C100.778 11.614 100.724 11.5639 100.664 11.5223L100.658 11.5183L100.649 11.5126C100.53 11.434 100.388 11.3875 100.233 11.3857C99.8331 11.3811 99.5 11.6798 99.4537 12.0674C99.4509 12.5233 99.5392 12.7347 99.6965 13.111C99.8959 13.5881 100.136 14.1759 100.279 15.309L100.308 15.3093ZM99.5852 16.0669C99.4718 14.5599 99.2038 13.9184 98.99 13.4068C98.8165 12.9917 98.6787 12.662 98.6881 12.0247C98.7571 11.2386 99.4149 10.6245 100.214 10.6198C100.223 10.6197 100.232 10.6197 100.242 10.6198C100.545 10.6234 100.826 10.7142 101.063 10.8681C101.064 10.8687 101.065 10.8694 101.066 10.87C101.067 10.871 101.069 10.8719 101.07 10.8729L101.069 10.8666L101.099 10.8925C101.219 10.9749 101.325 11.0737 101.417 11.1854C101.752 11.5211 102.012 11.8752 102.213 12.2342C103.252 14.0918 102.696 16.0797 102.63 16.3177L102.624 16.3382C102.455 17.0161 101.839 17.5149 101.11 17.5064C100.299 17.4969 99.6417 16.8629 99.5898 16.067L99.5852 16.0669Z" fill="white"/>
<path id="Ellipse 37" d="M77.3085 15.9981C77.3085 16.8441 76.6226 17.53 75.7765 17.53C74.9305 17.53 74.2446 16.8441 74.2446 15.9981C74.2446 15.152 74.9305 14.4662 75.7765 14.4662C76.6226 14.4662 77.3085 15.152 77.3085 15.9981Z" fill="white"/>
<path id="Ellipse 38" d="M57.3936 14.8491C57.3936 15.4837 56.8792 15.9981 56.2446 15.9981C55.6101 15.9981 55.0957 15.4837 55.0957 14.8491C55.0957 14.2146 55.6101 13.7002 56.2446 13.7002C56.8792 13.7002 57.3936 14.2146 57.3936 14.8491Z" fill="white"/>
<path id="Ellipse 39" d="M86.5005 29.4024C86.5005 30.0369 85.9861 30.5513 85.3516 30.5513C84.717 30.5513 84.2026 30.0369 84.2026 29.4024C84.2026 28.7678 84.717 28.2534 85.3516 28.2534C85.9861 28.2534 86.5005 28.7678 86.5005 29.4024Z" fill="white"/>
<path id="Union_2" fill-rule="evenodd" clip-rule="evenodd" d="M52.9144 0.354876C50.6581 1.19295 49.1224 3.395 49.6254 5.555C44.5178 9.14451 43.672 16.4508 46.9305 21.3371C46.4073 23.9887 46.3578 29.5542 46.965 34.4786C47.2801 37.0343 47.7837 39.5226 48.5399 41.4042C48.9168 42.3421 49.3856 43.2044 49.9845 43.8498C50.5988 44.5119 51.4075 45 52.3952 45C53.158 45 53.8449 44.82 54.4344 44.4417C55.018 44.0673 55.436 43.5438 55.7412 42.9668C56.3283 41.8568 56.5733 40.3932 56.7425 38.9387C56.8147 38.3174 56.8756 37.6825 56.937 37.0414C57.1262 35.0692 57.3053 33.4408 57.8473 31.7386L58.7297 33.3565C60.9751 37.473 66.2772 38.762 70.1619 36.1358C74.1091 33.4673 74.8388 27.9498 71.7209 24.3469L70.9494 23.4555C72.4981 23.1441 74.0656 22.9868 75.6383 22.9868C77.1008 22.9868 78.5587 23.1228 80.0013 23.3923L79.1751 24.3469C76.0572 27.9498 76.7868 33.4673 80.7341 36.1358C84.6188 38.762 89.9208 37.473 92.1662 33.3565L93.2228 31.4194C93.7157 33.2256 93.9012 35.1605 94.0816 37.0414C94.143 37.6823 94.204 38.3176 94.2762 38.9387C94.4453 40.3932 94.6903 41.8568 95.2774 42.9668C95.5826 43.5438 96.0007 44.0673 96.5842 44.4417C97.1737 44.82 97.8606 45 98.6234 45C99.6111 45 100.42 44.5119 101.034 43.8498C101.633 43.2044 102.102 42.3421 102.479 41.4042C103.235 39.5226 103.738 37.0343 104.054 34.4786C104.672 29.4641 104.609 23.7848 104.059 21.1945C107.091 16.4905 106.388 9.63948 101.815 5.96432C102.63 3.67924 101.045 1.24601 98.6463 0.354876C96.2734 -0.526474 93.5197 0.255212 92.6136 2.46175C87.1234 1.00222 81.3366 0.165397 75.6382 0.165397C70.0282 0.165396 64.3325 0.976446 58.9186 2.39423C57.9845 0.239335 55.2629 -0.517425 52.9144 0.354876ZM53.4478 1.79093C51.9563 2.34494 51.126 3.53502 51.0731 4.63281C53.1611 3.38307 55.44 3.001 57.6181 3.3028C57.6012 3.24008 57.5813 3.1778 57.5583 3.11604C57.0894 1.8534 55.3374 1.08909 53.4478 1.79093ZM93.9634 3.23082C95.995 3.08564 98.0868 3.54223 100.008 4.74613L100.471 5.03643C100.631 3.84064 99.7898 2.41379 98.1129 1.79093C96.2233 1.08909 94.4713 1.8534 94.0024 3.11604C93.9882 3.15411 93.9752 3.19238 93.9634 3.23082ZM75.6382 2.1488C80.6521 2.1488 85.7543 2.81955 90.6583 4.01086C86.958 5.51929 83.9799 9.01755 83.4488 13.4181L82.9719 17.37C82.7997 18.7965 82.3205 20.1619 81.5747 21.3752C79.6221 20.92 77.6352 20.689 75.6383 20.689C73.5283 20.689 71.4296 20.9469 69.3706 21.4547C68.5965 20.2216 68.1 18.8277 67.9241 17.37L67.4471 13.4181C66.9228 9.07359 64.0134 5.60854 60.3786 4.06946C65.3559 2.84156 70.5426 2.1488 75.6382 2.1488ZM48.9481 23.5898C48.7193 26.2684 48.764 30.4028 49.2379 34.2467C49.5437 36.7266 50.0168 38.9806 50.6605 40.5824C50.9835 41.3863 51.3205 41.9511 51.6417 42.2972C51.9474 42.6268 52.1731 42.6948 52.3425 42.6948C52.7368 42.6948 52.9906 42.6059 53.1718 42.4896C53.359 42.3695 53.5417 42.1729 53.7139 41.8474C54.0814 41.1524 54.2974 40.0816 54.4674 38.6189C54.528 38.0978 54.5812 37.5338 54.6372 36.9397C54.8685 34.4851 55.1482 31.5171 56.2013 28.9351C55.2709 27.6772 54.0761 26.63 52.6943 25.8714L50.637 24.7419C50.0245 24.4056 49.4614 24.0188 48.9481 23.5898ZM96.3815 36.9397C96.147 34.4515 95.8627 31.4359 94.7738 28.8295C95.6924 27.6185 96.8587 26.6087 98.2016 25.8714L100.259 24.7419C100.917 24.3804 101.518 23.9607 102.062 23.4929C102.3 26.168 102.26 30.3562 101.781 34.2467C101.475 36.7266 101.002 38.9806 100.358 40.5824C100.035 41.3863 99.6982 41.9511 99.377 42.2972C99.0712 42.6268 98.8455 42.6948 98.6761 42.6948C98.2818 42.6948 98.028 42.6059 97.8468 42.4896C97.6597 42.3695 97.4769 42.1729 97.3048 41.8474C96.9372 41.1524 96.7213 40.0816 96.5512 38.6189C96.4906 38.0978 96.4375 37.5338 96.3815 36.9397ZM99.9861 6.54035L99.1944 6.04421C93.5491 2.50643 85.8117 6.62487 84.9697 13.6017L84.4927 17.5536C84.2194 19.818 83.276 21.9492 81.7835 23.6738L80.3335 25.3494C77.8163 28.258 78.4054 32.7124 81.5921 34.8667C84.7282 36.9869 89.0087 35.9462 90.8214 32.6229L92.5467 29.4598C93.6812 27.38 95.3877 25.6687 97.4644 24.5286L99.5217 23.399C105.762 19.9727 106.029 10.327 99.9861 6.54035ZM50.9099 6.54035L51.7016 6.04421C57.3469 2.50643 65.0842 6.62487 65.9263 13.6017L66.4032 17.5536C66.6765 19.818 67.6199 21.9492 69.1125 23.6738L70.5625 25.3494C73.0796 28.258 72.4906 32.7124 69.3039 34.8667C66.1677 36.9869 61.8873 35.9462 60.0746 32.6229L58.3492 29.4598C57.2148 27.38 55.5083 25.6687 53.4316 24.5286L51.3743 23.399C45.1337 19.9727 44.8674 10.327 50.9099 6.54035Z" fill="white"/>
</g>
</g>
</svg>
