<svg width="567" height="125" viewBox="0 0 567 125" fill="none" xmlns="http://www.w3.org/2000/svg">
<path d="M89.451 62.4379V82.6079L53.699 103.224L18.222 82.6079L16.628 83.6909L53.699 105.427L91.065 83.8239V61.5049L89.451 62.4379Z" fill="url(#paint0_linear)"/>
<path d="M89.451 82.52L91.065 83.685V83.824L90.963 83.9L89.308 82.69L89.451 82.608V82.52Z" fill="#7A7EAE"/>
<path d="M54.004 62.2051L28.814 47.4551L28.416 47.8531L53.699 62.8511L54.004 62.2051Z" fill="url(#paint1_linear)"/>
<path d="M53.922 62.2051H54.107L54.14 62.4131H53.813L53.922 62.2051Z" fill="url(#paint2_linear)"/>
<path d="M54.004 62.8511V62.2051L107.627 31.2061L107.785 31.6471L54.004 62.8511Z" fill="#120F22"/>
<path d="M54.004 124.23L54.363 105.729L91.582 84.28L91.72 61.312H91.065V83.824L53.699 105.427L53.565 124.23H54.004Z" fill="#453D76"/>
<path d="M54.004 91.212V62.851L107.785 31.647V93.197L54.004 124.23V105.573L91.361 84.062V61.332L78.85 68.566V76.595L54.004 91.212Z" fill="url(#paint3_linear)"/>
<path d="M53.402 124.23H53.699V105.427L52.642 104.806L53.402 124.23Z" fill="url(#paint4_linear)"/>
<path d="M16.542 40.7029L16.771 40.8969L16.862 83.5319L16.628 83.6909L16.486 83.6009L16.542 40.7029Z" fill="#2D2868"/>
<path d="M18.222 82.6081L16.628 83.6911V40.7551L54.004 19.1741V21.3001L18.26 41.9871L18.222 82.6081Z" fill="#453D76"/>
<path d="M54.004 62.0941V91.2121L53.699 91.4171V62.8511V62.0281L54.004 62.0941Z" fill="#453D76"/>
<path d="M28.416 47.853V76.802L53.699 91.417V62.851L28.416 47.853Z" fill="url(#paint5_linear)"/>
<path d="M53.402 123.926V105.251L16.628 83.6911V40.9641L0 31.2061V93.3021L53.402 124.23V123.926Z" fill="url(#paint6_linear)"/>
<path d="M16.628 40.7549H16.343V83.6929H16.628V40.7549Z" fill="#2D2868"/>
<path d="M16.628 40.7549L0.214 30.9919L0 31.2059L16.486 40.8969L16.628 40.7549Z" fill="#2D2868"/>
<path d="M53.402 105.251V105.603L16.343 84.0149V83.6909H16.628L53.402 105.251Z" fill="url(#paint7_linear)"/>
<path d="M54.004 19.1741L77.901 33.1421V35.2311L54.004 21.3001V19.1741Z" fill="url(#paint8_linear)"/>
<path d="M77.901 33.142V35.231L94.454 25.524V23.552L77.901 33.142Z" fill="#484592"/>
<path d="M53.833 0L94.454 23.552L77.901 33.142L54.004 19.174L16.628 40.755L0.214001 30.992L53.833 0Z" fill="url(#paint9_linear)"/>
<path d="M28.814 47.4549L53.68 33.4089L77.369 46.7809L106.232 30.1919L107.627 31.2059L54.004 62.2049L28.814 47.4549Z" fill="url(#paint10_linear)"/>
<path d="M373.52 21.158V16.209H359.377C357.561 16.209 355.844 16.613 354.323 17.319C352.81 18.029 351.597 19.037 350.689 20.251C349.781 21.46 349.375 22.78 349.273 24.291V39.543C349.373 40.96 349.781 42.272 350.586 43.487C351.498 44.697 352.707 45.603 354.123 46.411C355.639 47.121 357.25 47.526 359.176 47.526H373.516V42.577H359.777C358.667 42.577 357.659 42.271 356.755 41.666C355.94 41.062 355.437 40.354 355.437 39.347V33.69H373.519V28.637H355.437V24.495C355.437 23.482 355.94 22.678 356.755 22.068C357.659 21.462 358.667 21.158 359.777 21.158H373.516" fill="white"/>
<path d="M457.952 16.21V47.527H473.054C474.97 47.429 476.679 47.122 478.193 46.42C479.802 45.616 481.011 44.708 481.916 43.499C482.824 42.296 483.223 40.884 483.324 39.372V24.266C483.222 22.759 482.824 21.445 481.916 20.238C481.012 19.03 479.805 18.025 478.193 17.317C476.679 16.612 474.968 16.21 473.054 16.21H457.952ZM475.778 22.052C476.676 22.656 477.081 23.459 477.182 24.47V39.273C477.078 40.279 476.676 41.085 475.778 41.689C474.969 42.392 473.958 42.694 472.85 42.694H464.092V21.046H472.85C473.958 21.046 474.969 21.347 475.778 22.052Z" fill="white"/>
<path d="M531.958 17.302C530.47 16.61 528.786 16.309 526.905 16.209H521.452C519.567 16.308 517.886 16.609 516.395 17.302C514.811 18.096 513.62 18.982 512.729 20.176C511.834 21.362 511.34 22.752 511.34 24.239V39.598C511.34 41.084 511.834 42.375 512.729 43.565C513.62 44.755 514.811 45.744 516.395 46.439C517.885 47.132 519.567 47.528 521.452 47.528H526.905C528.786 47.528 530.468 47.132 531.958 46.439C533.542 45.745 534.731 44.755 535.624 43.565C536.517 42.374 537.011 40.988 537.011 39.598V24.238C536.915 22.751 536.517 21.361 535.624 20.175C534.731 18.981 533.542 18.095 531.958 17.302ZM529.579 21.958C530.47 22.652 530.966 23.442 530.966 24.34V39.399C530.966 40.291 530.47 41.085 529.579 41.778C528.786 42.375 527.792 42.772 526.706 42.772H521.651C520.557 42.772 519.567 42.376 518.674 41.778C517.885 41.084 517.389 40.291 517.389 39.399V24.34C517.389 23.443 517.885 22.652 518.674 21.958C519.567 21.362 520.557 21.065 521.651 20.966H526.706C527.793 21.067 528.786 21.363 529.579 21.958Z" fill="white"/>
<path d="M169.301 16.21H163.138V36.213L152.634 16.21H144.249V47.527H150.412V23.083L163.24 47.527H169.301V16.21Z" fill="white"/>
<path d="M269.711 16.21H263.548V36.213L253.043 16.21H244.658V47.527H250.821V23.083L263.649 47.527H269.711V16.21Z" fill="white"/>
<path d="M428.299 16.21H422.137V36.213L411.633 16.21H403.246V47.527H409.409V23.083L422.237 47.527H428.299V16.21Z" fill="white"/>
<path d="M210.526 47.527V16.21H203.456V47.527H210.526Z" fill="white"/>
<path d="M296.922 16.21V21.159H307.323V47.528H313.994V21.158H324.498V16.209H296.92" fill="white"/>
<path d="M543.92 69.0301V60.5671H501.203V100.796H544.316V91.7341H512.461V84.1641H530.777V75.7071H512.461V69.0301H543.92Z" fill="white"/>
<path d="M496.374 68.7551C496.47 65.9701 495.677 63.7781 493.981 62.4811C492.385 61.0871 489.901 60.3911 486.514 60.3911H451.366V100.716H484.024C492.587 100.617 496.768 97.8291 496.768 92.1541V87.2711C496.768 83.8891 495.276 81.4011 492.186 80.0091C494.975 78.7111 496.374 76.5221 496.374 73.4331V68.7551ZM485.52 68.9551C485.918 69.3541 486.122 69.7551 486.016 70.3511V74.0361C486.12 74.5311 485.918 75.0311 485.52 75.3291L482.725 75.8241H462.618V68.5581H482.725C484.227 68.5581 485.221 68.7571 485.52 68.9551ZM462.618 91.8551V83.9881H482.829C484.325 83.9881 485.222 84.1891 485.718 84.4881C486.12 84.8891 486.314 85.4861 486.314 86.4811V89.3671C486.314 90.2641 486.123 90.9611 485.718 91.2581C485.222 91.6581 484.325 91.8551 482.829 91.8551H462.618Z" fill="white"/>
<path d="M446.614 60.458H435.364V91.625H410.968V60.458H399.72V90.729C399.614 93.215 400.015 95.213 400.71 96.704C401.31 98.099 402.507 99.194 404.099 99.793C405.696 100.488 407.783 100.786 410.569 100.689H435.662C438.451 100.786 440.639 100.488 442.232 99.793C443.822 99.194 444.921 98.099 445.621 96.704C446.316 95.213 446.617 93.217 446.617 90.729V60.458" fill="white"/>
<path d="M394.09 64.6072C393.385 63.1182 392.194 62.1192 390.702 61.4212C389.106 60.8192 386.918 60.5232 384.229 60.5232H359.638C356.849 60.5232 354.757 60.8212 353.16 61.4212C351.569 62.1182 350.374 63.1172 349.778 64.6072C349.081 66.1012 348.682 68.0912 348.785 70.5812V90.7952C348.682 93.2792 349.081 95.2752 349.778 96.7662C350.374 98.1622 351.569 99.2572 353.16 99.8592C354.757 100.552 356.848 100.85 359.638 100.752H384.23C386.918 100.85 389.107 100.553 390.703 99.8592C392.195 99.2572 393.387 98.1622 394.09 96.7662C394.687 95.2772 395.086 93.2812 395.086 90.7952V83.4242L383.83 83.5292V91.6912H359.937V69.3902H383.83V76.5552H395.086V70.5812C395.086 67.9962 394.687 66.0072 394.09 64.6072Z" fill="white"/>
<path d="M340.461 69.0301V60.5671H297.743V100.796H340.859V91.7341H308.998V84.1641H327.319V75.7071H308.998V69.0301H340.461Z" fill="white"/>
<path d="M282.411 60.458L265.284 88.938L248.259 60.458H238.005V93.617L217.989 60.458H207.933L183.939 100.686H214.007V91.625H200.565L213.012 71.612L229.84 100.684H248.359V79.179L261.201 100.684H269.467L282.409 79.179V100.684H292.763V60.457H282.409" fill="white"/>
<path d="M184.83 69.3071V60.5371H146.892C144.207 60.5371 142.013 60.8371 140.418 61.4361C138.828 62.1321 137.732 63.1341 137.037 64.6231C136.337 66.1161 136.039 68.1061 136.039 70.5981V90.8081C136.039 93.2941 136.337 95.2911 137.037 96.7831C137.733 98.1781 138.829 99.2731 140.418 99.8741C142.012 100.566 144.207 100.865 146.892 100.769H174.476C178.454 100.866 181.244 100.17 182.934 98.6781C184.529 97.0831 185.325 94.4951 185.228 90.8101V76.5701H159.14V85.0401H174.275V91.7071H147.29V69.3071H184.83Z" fill="white"/>
<path d="M566.93 91.979H565.237L563.196 98.4291C562.862 98.9421 562.686 99.4531 562.686 99.7911C562.514 99.4531 562.34 99.1091 562.174 98.6031L559.963 91.9771H558.264V101.147H559.291V93.3341L562.008 101.147H563.02L565.741 93.5051V101.147H566.93V91.979Z" fill="white"/>
<path d="M554.016 93.167H556.909V91.979H549.77V93.167H552.833V101.149H554.019V93.167" fill="white"/>
<defs>
<linearGradient id="paint0_linear" x1="24.4097" y1="91.4459" x2="104.739" y2="78.0831" gradientUnits="userSpaceOnUse">
<stop offset="0.0368" stop-color="white"/>
<stop offset="0.8957" stop-color="#898CBF"/>
</linearGradient>
<linearGradient id="paint1_linear" x1="28.416" y1="55.1531" x2="54.0039" y2="55.1531" gradientUnits="userSpaceOnUse">
<stop stop-color="#6E70A9"/>
<stop offset="0.9693" stop-color="#514A8E"/>
</linearGradient>
<linearGradient id="paint2_linear" x1="53.8125" y1="62.3089" x2="54.1401" y2="62.3089" gradientUnits="userSpaceOnUse">
<stop stop-color="#6E70A9"/>
<stop offset="0.9693" stop-color="#514A8E"/>
</linearGradient>
<linearGradient id="paint3_linear" x1="64.0796" y1="66.9001" x2="108.721" y2="96.2057" gradientUnits="userSpaceOnUse">
<stop stop-color="#4C5284"/>
<stop offset="1" stop-color="#8789BC"/>
</linearGradient>
<linearGradient id="paint4_linear" x1="53.459" y1="123.573" x2="53.148" y2="103.67" gradientUnits="userSpaceOnUse">
<stop offset="0.1104" stop-color="#4C407E"/>
<stop offset="0.8896" stop-color="#666699"/>
<stop offset="1" stop-color="#9BA5CD"/>
</linearGradient>
<linearGradient id="paint5_linear" x1="4.8188" y1="79.7068" x2="66.021" y2="62.6977" gradientUnits="userSpaceOnUse">
<stop offset="0.2331" stop-color="#666699"/>
<stop offset="0.7239" stop-color="#A7B3D9"/>
</linearGradient>
<linearGradient id="paint6_linear" x1="5.8774" y1="83.5057" x2="67.0753" y2="66.4978" gradientUnits="userSpaceOnUse">
<stop offset="0.2331" stop-color="#666699"/>
<stop offset="0.9907" stop-color="#A7B3D9"/>
</linearGradient>
<linearGradient id="paint7_linear" x1="19.581" y1="86.3883" x2="43.9159" y2="99.4099" gradientUnits="userSpaceOnUse">
<stop stop-color="#6E70A9"/>
<stop offset="0.9693" stop-color="#514A8E"/>
</linearGradient>
<linearGradient id="paint8_linear" x1="55.73" y1="22.2284" x2="71.1804" y2="29.7449" gradientUnits="userSpaceOnUse">
<stop offset="0.0368" stop-color="#9EA5D3"/>
<stop offset="0.9018" stop-color="#7675AE"/>
</linearGradient>
<linearGradient id="paint9_linear" x1="49.3808" y1="4.5212" x2="45.7363" y2="45.0162" gradientUnits="userSpaceOnUse">
<stop stop-color="#AAACD2"/>
<stop offset="0.6258" stop-color="#FCFAFB"/>
</linearGradient>
<linearGradient id="paint10_linear" x1="71.7749" y1="-0.160507" x2="68.1303" y2="40.3353" gradientUnits="userSpaceOnUse">
<stop offset="0.6743" stop-color="#AAACD2"/>
<stop offset="1" stop-color="#FCFAFB"/>
</linearGradient>
</defs>
</svg>
