<svg width="120" height="81" viewBox="0 0 120 81" fill="none" xmlns="http://www.w3.org/2000/svg">
<path fill-rule="evenodd" clip-rule="evenodd" d="M60.1904 21.7506C62.3397 21.7506 64.4774 22.0193 66.5732 22.5482L66.0838 24.4874C64.1456 23.9982 62.1723 23.7506 60.1904 23.7506C58.2086 23.7506 56.2352 23.9982 54.297 24.4874L53.8076 22.5482C55.9034 22.0193 58.0412 21.7506 60.1904 21.7506Z" fill="white"/>
<path fill-rule="evenodd" clip-rule="evenodd" d="M76.8116 5.30225C71.4225 3.85853 65.7523 3.03452 60.1905 3.03452C54.6288 3.03452 48.9585 3.85852 43.5695 5.30225L43.0519 3.37037C48.5913 1.88639 54.4358 1.03452 60.1905 1.03452C65.9452 1.03452 71.7897 1.88639 77.3291 3.37037L76.8116 5.30225Z" fill="white"/>
<path fill-rule="evenodd" clip-rule="evenodd" d="M84.0784 43.3468C83.7518 43.6987 83.4875 43.7944 83.264 43.7944C82.8449 43.7944 82.5622 43.6994 82.3539 43.5658C82.1404 43.4288 81.9419 43.2103 81.7607 42.8677C81.378 42.1443 81.1598 41.046 80.9896 39.5813C80.9281 39.053 80.8744 38.4835 80.8179 37.8853C80.5768 35.3293 80.2861 32.249 79.1351 29.6178L77.3075 30.4614C78.3178 32.771 78.5731 35.4358 78.8162 37.9738C78.8774 38.613 78.9379 39.2442 79.0094 39.8596C79.1789 41.3171 79.4224 42.7574 79.9961 43.842C80.2931 44.4035 80.6964 44.9064 81.2549 45.2648C81.8187 45.6265 82.4782 45.8009 83.2182 45.8009C84.1538 45.8009 84.9256 45.3395 85.5207 44.6981C86.1024 44.0713 86.5634 43.2271 86.9374 42.2964C87.6875 40.4299 88.1899 37.9527 88.5049 35.3977C89.1328 30.3059 89.0565 24.541 88.4875 22.0276L86.5433 22.5159C87.038 24.7013 87.1427 30.1994 86.5266 35.1958C86.2197 37.6849 85.7439 39.9582 85.0916 41.5811C84.7645 42.3952 84.4183 42.9804 84.0784 43.3468Z" fill="white"/>
<path fill-rule="evenodd" clip-rule="evenodd" d="M36.044 43.3468C36.3705 43.6987 36.6348 43.7944 36.8583 43.7944C37.2774 43.7944 37.5601 43.6994 37.7684 43.5658C37.982 43.4288 38.1805 43.2103 38.3617 42.8677C38.7443 42.1443 38.9625 41.046 39.1328 39.5813C39.1942 39.053 39.2479 38.4835 39.3044 37.8853C39.5456 35.3293 39.8362 32.249 40.9872 29.6178L42.8148 30.4614C41.8045 32.771 41.5492 35.4358 41.3061 37.9738C41.2449 38.613 41.1844 39.2442 41.1129 39.8596C40.9434 41.3171 40.6999 42.7574 40.1262 43.842C39.8292 44.4035 39.4259 44.9064 38.8674 45.2648C38.3037 45.6265 37.6441 45.8009 36.9041 45.8009C35.9685 45.8009 35.1967 45.3395 34.6016 44.6981C34.0199 44.0713 33.5589 43.2271 33.1849 42.2964C32.4349 40.4299 31.9324 37.9527 31.6174 35.3977C30.9895 30.3059 31.0658 24.541 31.6348 22.0276L33.5791 22.5159C33.0843 24.7013 32.9796 30.1994 33.5957 35.1958C33.9026 37.6849 34.3785 39.9582 35.0307 41.5811C35.3578 42.3952 35.704 42.9804 36.044 43.3468Z" fill="white"/>
<path fill-rule="evenodd" clip-rule="evenodd" d="M84.3328 7.82136L83.5398 7.32437C78.2202 3.99074 70.8094 7.85017 70.0001 14.5561L69.5223 18.5147C69.2374 20.8751 68.2541 23.0965 66.6983 24.8943L65.2458 26.5727C62.9069 29.2753 63.4542 33.4142 66.4152 35.416C69.3293 37.3861 73.3067 36.4191 74.991 33.3311L76.7193 30.1626C77.8983 28.0012 79.6718 26.2227 81.83 25.0378L83.8908 23.9064C89.829 20.6461 90.0861 11.4268 84.3328 7.82136ZM85.3949 6.12665C92.4352 10.5387 92.1364 21.6609 84.8533 25.6595L82.7925 26.791C80.9693 27.792 79.4711 29.2944 78.4751 31.1203L76.7468 34.2888C74.4976 38.4124 69.1864 39.7036 65.2951 37.0729C61.3411 34.3998 60.6102 28.8729 63.7335 25.2639L65.186 23.5855C66.481 22.089 67.2996 20.2399 67.5367 18.2751L68.0145 14.3164C68.9705 6.39547 77.8412 1.39293 84.6018 5.62965L85.3949 6.12665Z" fill="white"/>
<path fill-rule="evenodd" clip-rule="evenodd" d="M36.4602 7.32437L35.6671 7.82137C29.9139 11.4268 30.171 20.6461 36.1092 23.9064L38.17 25.0378C40.3282 26.2227 42.1017 28.0012 43.2807 30.1626L45.009 33.3311C46.6933 36.4191 50.6707 37.3861 53.5847 35.416C56.5458 33.4142 57.0931 29.2753 54.7542 26.5727L53.3017 24.8943C51.7459 23.0965 50.7625 20.8751 50.4777 18.5147L49.9999 14.5561C49.1906 7.85017 41.7797 3.99074 36.4602 7.32437ZM34.6051 6.12665C27.5648 10.5387 27.8636 21.6609 35.1467 25.6595L37.2075 26.791C39.0307 27.792 40.5289 29.2944 41.5249 31.1203L43.2532 34.2888C45.5024 38.4124 50.8135 39.7036 54.7049 37.0729C58.6589 34.3998 59.3898 28.8729 56.2665 25.2639L54.814 23.5855C53.519 22.089 52.7004 20.2399 52.4633 18.2751L51.9855 14.3164C51.0295 6.39547 42.1588 1.39293 35.3982 5.62965L34.6051 6.12665Z" fill="white"/>
<path d="M48.4939 25.2259C48.4939 24.8996 48.7584 24.6351 49.0847 24.6351H50.7477C51.0739 24.6351 51.3385 24.8996 51.3385 25.2259V34.0003C51.3385 34.3266 51.0739 34.5911 50.7477 34.5911H49.0847C48.7584 34.5911 48.4939 34.3266 48.4939 34.0003V25.2259Z" fill="white"/>
<path fill-rule="evenodd" clip-rule="evenodd" d="M45.5307 31.0353C45.2044 31.0353 44.9399 30.7708 44.9399 30.4445V28.7815C44.9399 28.4552 45.2044 28.1907 45.5307 28.1907H54.3051C54.6314 28.1907 54.8959 28.4552 54.8959 28.7815V30.4445C54.8959 30.7708 54.6314 31.0353 54.3051 31.0353H45.5307Z" fill="white"/>
<path fill-rule="evenodd" clip-rule="evenodd" d="M71.686 26.0325L69.9106 25.3407L68.1352 26.0325L66.3906 26.7987L65.6244 28.5433L64.9326 30.3187L65.6244 32.094L66.3906 33.8386L68.1352 34.6048L69.9106 35.2966L71.686 34.6048L73.4306 33.8386L74.1968 32.094L74.8886 30.3187L74.1968 28.5433L73.4306 26.7987L71.686 26.0325ZM69.9104 33.0842C71.4378 33.0842 72.676 31.846 72.676 30.3186C72.676 28.7912 71.4378 27.5531 69.9104 27.5531C68.383 27.5531 67.1449 28.7912 67.1449 30.3186C67.1449 31.846 68.383 33.0842 69.9104 33.0842Z" fill="white"/>
<path fill-rule="evenodd" clip-rule="evenodd" d="M42.5297 11.531L40.7543 10.8392L38.979 11.531L37.2344 12.2972L36.4682 14.0418L35.7764 15.8172L36.4682 17.5926L37.2344 19.3372L38.979 20.1033L40.7543 20.7952L42.5297 20.1033L44.2743 19.3372L45.0405 17.5926L45.7323 15.8172L45.0405 14.0418L44.2743 12.2972L42.5297 11.531ZM40.7538 18.5828C42.2812 18.5828 43.5193 17.3446 43.5193 15.8172C43.5193 14.2899 42.2812 13.0517 40.7538 13.0517C39.2264 13.0517 37.9882 14.2899 37.9882 15.8172C37.9882 17.3446 39.2264 18.5828 40.7538 18.5828Z" fill="white"/>
<path fill-rule="evenodd" clip-rule="evenodd" d="M40.7504 22.2489C44.3455 22.2489 47.26 19.3344 47.26 15.7392C47.26 12.1441 44.3455 9.22959 40.7504 9.22959C37.1552 9.22959 34.2407 12.1441 34.2407 15.7392C34.2407 19.3344 37.1552 22.2489 40.7504 22.2489ZM40.7504 23.0147C44.7685 23.0147 48.0259 19.7574 48.0259 15.7392C48.0259 11.7211 44.7685 8.46375 40.7504 8.46375C36.7322 8.46375 33.4749 11.7211 33.4749 15.7392C33.4749 19.7574 36.7322 23.0147 40.7504 23.0147Z" fill="white"/>
<path d="M74.8092 19.8024C74.8092 21.0713 73.7805 22.0999 72.5116 22.0999C71.2427 22.0999 70.2141 21.0713 70.2141 19.8024C70.2141 18.5335 71.2427 17.5049 72.5116 17.5049C73.7805 17.5049 74.8092 18.5335 74.8092 19.8024Z" fill="white"/>
<path fill-rule="evenodd" clip-rule="evenodd" d="M79.074 18.7976C80.1298 18.7976 80.9857 17.9417 80.9857 16.8859C80.9857 15.83 80.1298 14.9741 79.074 14.9741C78.0181 14.9741 77.1622 15.83 77.1622 16.8859C77.1622 17.9417 78.0181 18.7976 79.074 18.7976ZM79.074 20.3321C80.9773 20.3321 82.5203 18.7892 82.5203 16.8859C82.5203 14.9825 80.9773 13.4396 79.074 13.4396C77.1706 13.4396 75.6277 14.9825 75.6277 16.8859C75.6277 18.7892 77.1706 20.3321 79.074 20.3321Z" fill="white"/>
<path fill-rule="evenodd" clip-rule="evenodd" d="M78.5415 10.3603L79.2473 10.2789C79.6459 10.2329 79.9485 9.88574 79.9329 9.4777C79.919 9.11164 79.6531 8.81275 79.3077 8.74494L79.2986 8.74315L79.2649 8.73569C78.9769 8.67034 76.5821 8.14862 74.9288 9.9717L74.9034 9.99971L74.8753 10.0251C74.821 10.0743 74.7736 10.131 74.735 10.1933L74.7312 10.1993L74.726 10.2081C74.6533 10.3315 74.6139 10.4758 74.6198 10.6311C74.6351 11.0311 74.9505 11.3494 75.3406 11.3765C75.7968 11.3566 76.0039 11.2577 76.3726 11.0816C76.84 10.8584 77.4161 10.5887 78.5426 10.3889L78.5415 10.3603ZM79.3355 11.0457C77.8333 11.2342 77.205 11.5343 76.7037 11.7737C76.2971 11.9679 75.974 12.1222 75.336 12.1445C74.5461 12.1147 73.899 11.4872 73.8544 10.6881C73.8539 10.6789 73.8535 10.6696 73.8531 10.6604C73.8415 10.3569 73.9184 10.0705 74.0606 9.82614C74.0612 9.82515 74.0617 9.82416 74.0623 9.82316C74.0632 9.82163 74.0641 9.8201 74.065 9.81857L74.0588 9.8205L74.0831 9.78854C74.1597 9.66525 74.2532 9.55337 74.3604 9.45627C74.6796 9.10436 75.0209 8.82619 75.37 8.60739C77.1767 7.47517 79.1933 7.93267 79.4346 7.98742L79.4555 7.99205C80.1421 8.12685 80.6718 8.71887 80.6996 9.44847C80.7306 10.2603 80.129 10.9495 79.3353 11.0411L79.3355 11.0457Z" fill="white"/>
<path fill-rule="evenodd" clip-rule="evenodd" d="M84.9019 16.211L84.9482 16.92C84.9743 17.3203 85.306 17.6398 85.7143 17.6446C86.0806 17.6488 86.3923 17.3981 86.4772 17.0565L86.4795 17.0475L86.4886 17.0143C86.5682 16.7299 87.2084 14.364 85.4698 12.622L85.4431 12.5953L85.4191 12.566C85.3727 12.5093 85.3184 12.4592 85.2581 12.4174L85.2523 12.4134L85.2437 12.4078C85.1241 12.329 84.9819 12.2825 84.8265 12.2807C84.4263 12.276 84.0926 12.5753 84.0462 12.9635C84.0434 13.4201 84.1319 13.6319 84.2895 14.0089C84.4892 14.4868 84.7299 15.0756 84.8733 16.2106L84.9019 16.211ZM84.178 16.9698C84.0644 15.4602 83.7959 14.8177 83.5817 14.3052C83.4079 13.8894 83.2699 13.5591 83.2793 12.9207C83.3485 12.1332 84.0074 11.5182 84.8077 11.5134C84.8169 11.5133 84.8262 11.5133 84.8354 11.5135C85.1391 11.517 85.4213 11.608 85.6583 11.7622C85.6593 11.7628 85.6602 11.7634 85.6612 11.764C85.6627 11.765 85.6642 11.766 85.6657 11.767L85.664 11.7607L85.6948 11.7866C85.8141 11.8691 85.9212 11.9681 86.0128 12.08C86.3484 12.4163 86.6093 12.771 86.8104 13.1306C87.8514 14.9914 87.2942 16.9827 87.2275 17.221L87.2218 17.2416C87.0531 17.9207 86.4354 18.4203 85.7053 18.4118C84.893 18.4023 84.2345 17.7672 84.1825 16.9699L84.178 16.9698Z" fill="white"/>
<path d="M61.8637 16.9009C61.8637 17.7484 61.1767 18.4354 60.3292 18.4354C59.4817 18.4354 58.7947 17.7484 58.7947 16.9009C58.7947 16.0534 59.4817 15.3663 60.3292 15.3663C61.1767 15.3663 61.8637 16.0534 61.8637 16.9009Z" fill="white"/>
<path d="M41.9148 15.7499C41.9148 16.3855 41.3996 16.9008 40.7639 16.9008C40.1283 16.9008 39.613 16.3855 39.613 15.7499C39.613 15.1143 40.1283 14.599 40.7639 14.599C41.3996 14.599 41.9148 15.1143 41.9148 15.7499Z" fill="white"/>
<path d="M71.0708 30.3279C71.0708 30.9635 70.5556 31.4788 69.9199 31.4788C69.2843 31.4788 68.769 30.9635 68.769 30.3279C68.769 29.6923 69.2843 29.177 69.9199 29.177C70.5556 29.177 71.0708 29.6923 71.0708 30.3279Z" fill="white"/>
<path fill-rule="evenodd" clip-rule="evenodd" d="M37.9621 2.66941C36.0693 3.37245 35.2397 5.09807 35.7094 6.36286C35.7488 6.46877 35.7958 6.56969 35.8498 6.66557L34.5129 7.41881C34.4196 7.25319 34.3385 7.0791 34.2709 6.89716C33.4157 4.59456 35.008 2.1297 37.4278 1.2309C39.8476 0.33211 42.6629 1.15988 43.5182 3.46248C43.6687 3.8678 43.7426 4.28562 43.7472 4.70221L42.2127 4.71893C42.2101 4.47387 42.1669 4.23155 42.0797 3.99678C41.6099 2.73199 39.8549 1.96637 37.9621 2.66941Z" fill="white"/>
<path fill-rule="evenodd" clip-rule="evenodd" d="M82.7034 2.66941C84.5962 3.37245 85.4259 5.09807 84.9561 6.36286C84.9167 6.46877 84.8697 6.56969 84.8157 6.66557L86.1527 7.41881C86.246 7.25319 86.327 7.0791 86.3946 6.89716C87.2498 4.59456 85.6575 2.1297 83.2377 1.2309C80.8179 0.33211 78.0026 1.15988 77.1474 3.46248C76.9968 3.8678 76.9229 4.28562 76.9184 4.70221L78.4528 4.71893C78.4555 4.47387 78.4987 4.23155 78.5859 3.99678C79.0556 2.73199 80.8106 1.96637 82.7034 2.66941Z" fill="white"/>
</svg>
