<svg width="596" height="278" viewBox="0 0 596 278" fill="none" xmlns="http://www.w3.org/2000/svg">
<path d="M234.473 159.499V225.999H306.473V197.999L284.773 197.799L262.973 197.499L262.673 145.199L262.473 92.9988H234.473V159.499ZM315.973 94.1988C315.673 94.8988 315.573 124.699 315.673 160.499L315.973 225.499L330.273 225.799L344.473 226.099V191.199L356.773 190.799C366.573 190.499 369.873 189.999 373.673 188.299C382.973 184.099 390.873 173.499 395.073 159.399C397.973 149.999 397.573 131.799 394.273 121.799C389.773 108.099 381.273 97.7988 371.773 94.5988C365.673 92.4988 316.673 92.1988 315.973 94.1988ZM361.273 122.199C369.973 127.999 373.173 142.599 368.073 153.499C366.773 156.199 364.873 159.299 363.873 160.199C360.573 163.099 354.773 164.999 349.473 164.999H344.473V118.799L350.873 119.199C355.573 119.499 358.273 120.299 361.273 122.199ZM405.473 159.499V225.999H433.473V172.999H458.473V225.999H487.473V92.9988H458.473V144.999H433.473V92.9988H405.473V159.499ZM530.473 96.1988C529.873 97.9988 521.673 121.499 512.373 148.299L495.373 197.099V225.499H517.773L528.873 192.299C534.973 173.999 540.173 158.999 540.473 158.999C540.773 158.999 543.873 167.699 547.373 178.199C550.873 188.799 553.973 197.999 554.173 198.699C554.573 199.599 552.173 199.999 545.473 200.199L536.273 200.499L532.373 212.999C530.273 219.899 528.473 225.599 528.473 225.699C528.473 225.899 543.073 225.999 560.973 225.999C586.673 225.999 593.473 225.699 593.473 224.699C593.473 223.399 584.273 195.799 572.173 160.999C555.173 112.199 549.673 96.3988 548.973 94.6988C548.373 93.2988 546.973 92.9988 539.973 92.9988H531.673L530.473 96.1988ZM115.273 112.499C53.1727 174.299 2.47266 225.099 2.47266 225.399C2.47266 225.699 12.2727 225.999 24.1727 225.999H45.9727L122.173 149.799L198.473 73.4988V198.999H128.473V190.999H190.473V92.4988L123.973 158.999L57.4727 225.499L142.673 225.799C189.473 225.899 227.973 225.899 228.173 225.699C228.373 225.499 228.373 174.699 228.273 112.799L227.973 0.298828L115.273 112.499Z" fill="white"/>
<path opacity="0.98" d="M190.472 190.806H128.666L190.472 129V190.806Z" fill="#FF0004"/>
<path d="M12.902 277.625C14.8016 277.623 16.6778 277.2 18.4 276.386C20.0936 275.628 21.5961 274.49 22.7955 273.059V273.059L19.5207 269.731C18.717 270.712 17.7188 271.511 16.591 272.075C15.4846 272.618 14.2699 272.897 13.0406 272.889C12.0033 272.9 10.974 272.702 10.0124 272.308C9.05086 271.913 8.17603 271.328 7.43859 270.588C6.72848 269.864 6.16742 269.003 5.78802 268.056C5.38126 267.052 5.17643 265.975 5.18556 264.889C5.17448 263.792 5.37349 262.704 5.77151 261.684C6.14305 260.735 6.69365 259.87 7.39237 259.136C8.09308 258.407 8.93115 257.829 9.85667 257.436C10.8211 257.021 11.8592 256.81 12.9069 256.817C14.1705 256.812 15.4178 257.106 16.5497 257.676C17.7197 258.272 18.7442 259.124 19.5488 260.172V260.172L22.9275 256.738C21.7396 255.275 20.2279 254.116 18.5155 253.357C16.7557 252.532 14.8407 252.103 12.902 252.1C11.1703 252.088 9.4536 252.425 7.85123 253.091C6.33311 253.716 4.94698 254.63 3.76773 255.783C2.60376 256.938 1.67796 258.316 1.04429 259.837C0.3874 261.432 0.0477724 263.143 0.0449397 264.871C0.0421071 266.599 0.376126 268.311 1.02779 269.908C1.65396 271.424 2.57391 272.797 3.73307 273.945C4.91287 275.099 6.29958 276.012 7.81822 276.636C9.43143 277.304 11.1595 277.64 12.902 277.625V277.625ZM78.2264 277.662C79.9523 277.675 81.6633 277.338 83.259 276.671C84.7705 276.049 86.1456 275.13 87.3054 273.966C88.4651 272.803 89.3865 271.418 90.0164 269.892C90.676 268.306 91.0158 266.603 91.0158 264.882C91.0158 263.161 90.676 261.458 90.0164 259.872C89.3866 258.346 88.4652 256.961 87.3055 255.798C86.1457 254.634 84.7705 253.715 83.259 253.093C80.0417 251.772 76.4441 251.772 73.2269 253.093C71.7154 253.715 70.3401 254.634 69.1804 255.798C68.0206 256.961 67.0993 258.346 66.4694 259.872C65.8103 261.458 65.4707 263.161 65.4707 264.882C65.4707 266.603 65.8103 268.306 66.4694 269.892C67.0994 271.418 68.0207 272.803 69.1805 273.966C70.3402 275.13 71.7154 276.049 73.2269 276.671C74.8123 277.336 76.5127 277.672 78.2281 277.661L78.2264 277.662ZM78.2264 272.954C77.2136 272.963 76.2097 272.761 75.2762 272.363C74.3427 271.964 73.4993 271.376 72.7977 270.635C72.1056 269.892 71.5614 269.02 71.195 268.068C70.4133 266.012 70.4133 263.734 71.195 261.677C71.5645 260.732 72.1085 259.867 72.7977 259.129C73.4993 258.388 74.3427 257.8 75.2762 257.401C76.2097 257.002 77.2136 256.801 78.2264 256.81C79.269 256.802 80.3019 257.013 81.2602 257.429C82.1752 257.823 83.0019 258.401 83.6898 259.129C84.379 259.867 84.923 260.732 85.2925 261.677C86.0739 263.734 86.0739 266.012 85.2925 268.068C84.9261 269.02 84.3819 269.892 83.6898 270.635C83.0018 271.363 82.1752 271.941 81.2602 272.334C80.3022 272.75 79.2699 272.96 78.2281 272.952L78.2264 272.954ZM153.996 277.274V272.743H140.791V252.49H135.797V277.27L153.996 277.274ZM217.013 277.274V272.743H203.808V252.49H198.81V277.27L217.013 277.274ZM280.51 277.274V272.813H266.825V266.935H275.755V262.615H266.825V256.956H280.373V252.495H261.824V277.275L280.51 277.274ZM335.943 277.627C337.842 277.624 339.718 277.202 341.441 276.388C343.134 275.629 344.636 274.492 345.836 273.061V273.061L342.56 269.734C341.756 270.716 340.758 271.514 339.63 272.078C338.524 272.622 337.309 272.9 336.079 272.892C335.042 272.903 334.013 272.706 333.052 272.311C332.091 271.916 331.216 271.332 330.479 270.591C329.769 269.867 329.208 269.006 328.829 268.06C328.421 267.055 328.216 265.978 328.224 264.892C328.214 263.795 328.413 262.707 328.812 261.687C329.182 260.739 329.732 259.873 330.431 259.139C331.132 258.41 331.97 257.832 332.896 257.439C333.86 257.024 334.898 256.813 335.946 256.82C337.214 256.815 338.465 257.112 339.6 257.686C340.77 258.281 341.795 259.134 342.599 260.182V260.182L345.978 256.748C344.79 255.285 343.278 254.126 341.566 253.367C339.807 252.543 337.892 252.114 335.954 252.11C334.222 252.098 332.506 252.435 330.903 253.101C329.385 253.725 327.998 254.639 326.818 255.792C325.654 256.946 324.727 258.324 324.093 259.845C323.436 261.44 323.097 263.151 323.094 264.879C323.091 266.608 323.425 268.32 324.077 269.917C324.703 271.432 325.623 272.805 326.782 273.954C327.962 275.107 329.349 276.02 330.867 276.644C332.478 277.308 334.203 277.642 335.943 277.625V277.627ZM402.061 277.274V257.021H410.16V252.488H388.926V257.021H397.061V277.27L402.061 277.274ZM459.319 277.274V252.493H454.321V277.274H459.319ZM516.889 277.664C518.615 277.677 520.326 277.34 521.922 276.673C523.433 276.051 524.808 275.131 525.968 273.968C527.128 272.804 528.049 271.42 528.679 269.893C529.338 268.308 529.678 266.604 529.678 264.884C529.678 263.163 529.338 261.459 528.679 259.874C528.049 258.348 527.128 256.963 525.968 255.799C524.808 254.636 523.433 253.716 521.922 253.094C518.705 251.774 515.108 251.774 511.891 253.094C510.38 253.717 509.006 254.637 507.847 255.8C506.687 256.964 505.766 258.348 505.135 259.874C504.475 261.459 504.135 263.163 504.135 264.884C504.135 266.604 504.475 268.308 505.135 269.893C505.766 271.419 506.687 272.803 507.847 273.967C509.006 275.13 510.38 276.05 511.891 276.673C513.476 277.336 515.175 277.672 516.889 277.661V277.664ZM516.889 272.956C515.852 272.965 514.825 272.754 513.874 272.336C512.965 271.94 512.144 271.362 511.46 270.637C510.767 269.894 510.222 269.023 509.856 268.07C509.075 266.013 509.075 263.735 509.856 261.679C510.226 260.733 510.77 259.868 511.46 259.131C512.144 258.405 512.965 257.827 513.874 257.431C514.825 257.013 515.852 256.802 516.889 256.812C517.931 256.804 518.963 257.014 519.921 257.431C520.837 257.825 521.664 258.403 522.352 259.131C523.042 259.869 523.586 260.734 523.955 261.679C524.738 263.735 524.738 266.013 523.955 268.07C523.589 269.022 523.045 269.894 522.352 270.637C521.664 271.364 520.837 271.943 519.921 272.336C518.963 272.751 517.931 272.961 516.889 272.952V272.956ZM579.18 277.275V260.699L591.486 277.275H595.898V252.495H591.211V268.532L579.215 252.495H574.456V277.275H579.18Z" fill="white"/>
</svg>
