<svg width="596" height="278" viewBox="0 0 596 278" fill="none" xmlns="http://www.w3.org/2000/svg">
<path d="M234.473 159.555V226.055H306.473V198.055L284.773 197.855L262.973 197.555L262.673 145.255L262.473 93.0549H234.473V159.555ZM315.973 94.2549C315.673 94.9549 315.573 124.755 315.673 160.555L315.973 225.555L330.273 225.855L344.473 226.155V191.255L356.773 190.855C366.573 190.555 369.873 190.055 373.673 188.355C382.973 184.155 390.873 173.555 395.073 159.455C397.973 150.055 397.573 131.855 394.273 121.855C389.773 108.155 381.273 97.8549 371.773 94.6549C365.673 92.5549 316.673 92.2549 315.973 94.2549ZM361.273 122.255C369.973 128.055 373.173 142.655 368.073 153.555C366.773 156.255 364.873 159.355 363.873 160.255C360.573 163.155 354.773 165.055 349.473 165.055H344.473V118.855L350.873 119.255C355.573 119.555 358.273 120.355 361.273 122.255ZM405.473 159.555V226.055H433.473V173.055H458.473V226.055H487.473V93.0549H458.473V145.055H433.473V93.0549H405.473V159.555ZM530.473 96.2549C529.873 98.0549 521.673 121.555 512.373 148.355L495.373 197.155V225.555H517.773L528.873 192.355C534.973 174.055 540.173 159.055 540.473 159.055C540.773 159.055 543.873 167.755 547.373 178.255C550.873 188.855 553.973 198.055 554.173 198.755C554.573 199.655 552.173 200.055 545.473 200.255L536.273 200.555L532.373 213.055C530.273 219.955 528.473 225.655 528.473 225.755C528.473 225.955 543.073 226.055 560.973 226.055C586.673 226.055 593.473 225.755 593.473 224.755C593.473 223.455 584.273 195.855 572.173 161.055C555.173 112.255 549.673 96.4549 548.973 94.7549C548.373 93.3549 546.973 93.0549 539.973 93.0549H531.673L530.473 96.2549Z" fill="white"/>
<path d="M115.273 112.656C53.1719 174.457 2.47266 225.258 2.47266 225.557C2.47266 225.857 12.2734 226.156 24.1719 226.156H45.9727L198.473 73.6562V199.156H128.473V191.215H128.436L128.473 191.156H128.494L190.473 129.178V92.6562L57.4727 225.656L142.672 225.957C189.473 226.057 227.973 226.057 228.172 225.857C228.373 225.656 228.373 174.857 228.273 112.957L227.973 0.457031L115.273 112.656Z" fill="white"/>
<path opacity="0.98" d="M190.473 191.211H128.443L190.473 129.182V191.211Z" fill="white" fill-opacity="0.25"/>
<path d="M12.902 277.784C14.8016 277.781 16.6778 277.358 18.4 276.545C20.0936 275.786 21.5961 274.648 22.7955 273.218V273.218L19.5207 269.889C18.717 270.87 17.7188 271.669 16.591 272.233C15.4846 272.777 14.2699 273.055 13.0406 273.047C12.0033 273.058 10.974 272.861 10.0124 272.466C9.05086 272.071 8.17603 271.486 7.43859 270.746C6.72848 270.022 6.16742 269.161 5.78802 268.215C5.38126 267.21 5.17643 266.133 5.18556 265.047C5.17448 263.95 5.37349 262.862 5.77151 261.842C6.14305 260.894 6.69365 260.028 7.39237 259.294C8.09308 258.565 8.93115 257.987 9.85667 257.594C10.8211 257.179 11.8592 256.968 12.9069 256.975C14.1705 256.97 15.4178 257.264 16.5497 257.834C17.7197 258.43 18.7442 259.283 19.5488 260.33V260.33L22.9275 256.896C21.7396 255.433 20.2279 254.275 18.5155 253.516C16.7557 252.691 14.8407 252.262 12.902 252.258C11.1703 252.246 9.4536 252.583 7.85123 253.249C6.33311 253.874 4.94698 254.788 3.76773 255.942C2.60376 257.096 1.67796 258.474 1.04429 259.995C0.3874 261.59 0.0477724 263.301 0.0449397 265.029C0.0421071 266.758 0.376126 268.47 1.02779 270.067C1.65396 271.582 2.57391 272.955 3.73307 274.103C4.91287 275.257 6.29958 276.17 7.81822 276.794C9.43143 277.462 11.1595 277.799 12.902 277.784V277.784ZM78.2264 277.82C79.9523 277.833 81.6633 277.496 83.259 276.829C84.7705 276.207 86.1456 275.288 87.3054 274.124C88.4651 272.961 89.3865 271.576 90.0164 270.05C90.676 268.464 91.0158 266.761 91.0158 265.04C91.0158 263.319 90.676 261.616 90.0164 260.03C89.3866 258.504 88.4652 257.119 87.3055 255.956C86.1457 254.792 84.7705 253.873 83.259 253.251C80.0417 251.93 76.4441 251.93 73.2269 253.251C71.7154 253.873 70.3401 254.792 69.1804 255.956C68.0206 257.119 67.0993 258.504 66.4694 260.03C65.8103 261.616 65.4707 263.319 65.4707 265.04C65.4707 266.761 65.8103 268.464 66.4694 270.05C67.0994 271.576 68.0207 272.961 69.1805 274.124C70.3402 275.288 71.7154 276.207 73.2269 276.829C74.8123 277.494 76.5127 277.83 78.2281 277.819L78.2264 277.82ZM78.2264 273.112C77.2136 273.121 76.2097 272.92 75.2762 272.521C74.3427 272.122 73.4993 271.534 72.7977 270.793C72.1056 270.05 71.5614 269.179 71.195 268.226C70.4133 266.17 70.4133 263.892 71.195 261.835C71.5645 260.89 72.1085 260.025 72.7977 259.287C73.4993 258.546 74.3427 257.958 75.2762 257.559C76.2097 257.161 77.2136 256.959 78.2264 256.968C79.269 256.96 80.3019 257.171 81.2602 257.588C82.1752 257.981 83.0019 258.559 83.6898 259.287C84.379 260.025 84.923 260.89 85.2925 261.835C86.0739 263.892 86.0739 266.17 85.2925 268.226C84.9261 269.179 84.3819 270.05 83.6898 270.793C83.0018 271.521 82.1752 272.099 81.2602 272.493C80.3022 272.908 79.2699 273.119 78.2281 273.11L78.2264 273.112ZM153.996 277.432V272.901H140.791V252.648H135.797V277.429L153.996 277.432ZM217.013 277.432V272.901H203.808V252.648H198.81V277.429L217.013 277.432ZM280.51 277.432V272.972H266.825V267.093H275.755V262.773H266.825V257.114H280.373V252.653H261.824V277.434L280.51 277.432ZM335.943 277.785C337.842 277.783 339.718 277.36 341.441 276.546C343.134 275.787 344.636 274.65 345.836 273.219V273.219L342.56 269.892C341.756 270.874 340.758 271.672 339.63 272.236C338.524 272.78 337.309 273.059 336.079 273.05C335.042 273.061 334.013 272.864 333.052 272.469C332.091 272.074 331.216 271.49 330.479 270.75C329.769 270.025 329.208 269.165 328.829 268.218C328.421 267.213 328.216 266.136 328.224 265.05C328.214 263.953 328.413 262.865 328.812 261.845C329.182 260.897 329.732 260.031 330.431 259.297C331.132 258.568 331.97 257.99 332.896 257.598C333.86 257.182 334.898 256.971 335.946 256.978C337.214 256.973 338.465 257.27 339.6 257.844C340.77 258.44 341.795 259.292 342.599 260.34V260.34L345.978 256.906C344.79 255.443 343.278 254.285 341.566 253.526C339.807 252.701 337.892 252.272 335.954 252.268C334.222 252.256 332.506 252.593 330.903 253.259C329.385 253.883 327.998 254.797 326.818 255.95C325.654 257.104 324.727 258.482 324.093 260.004C323.436 261.598 323.097 263.309 323.094 265.038C323.091 266.766 323.425 268.478 324.077 270.075C324.703 271.591 325.623 272.963 326.782 274.112C327.962 275.265 329.349 276.178 330.867 276.802C332.478 277.467 334.203 277.8 335.943 277.784V277.785ZM402.061 277.432V257.179H410.16V252.647H388.926V257.179H397.061V277.429L402.061 277.432ZM459.319 277.432V252.652H454.321V277.432H459.319ZM516.889 277.822C518.615 277.835 520.326 277.498 521.922 276.831C523.433 276.209 524.808 275.29 525.968 274.126C527.128 272.962 528.049 271.578 528.679 270.051C529.338 268.466 529.678 266.763 529.678 265.042C529.678 263.321 529.338 261.618 528.679 260.032C528.049 258.506 527.128 257.121 525.968 255.957C524.808 254.794 523.433 253.875 521.922 253.253C518.705 251.932 515.108 251.932 511.891 253.253C510.38 253.876 509.006 254.795 507.847 255.959C506.687 257.122 505.766 258.506 505.135 260.032C504.475 261.617 504.135 263.321 504.135 265.042C504.135 266.763 504.475 268.466 505.135 270.051C505.766 271.577 506.687 272.962 507.847 274.125C509.006 275.288 510.38 276.208 511.891 276.831C513.476 277.494 515.175 277.83 516.889 277.819V277.822ZM516.889 273.114C515.852 273.123 514.825 272.912 513.874 272.494C512.965 272.098 512.144 271.52 511.46 270.795C510.767 270.052 510.222 269.181 509.856 268.228C509.075 266.171 509.075 263.894 509.856 261.837C510.226 260.892 510.77 260.026 511.46 259.289C512.144 258.563 512.965 257.985 513.874 257.589C514.825 257.172 515.852 256.96 516.889 256.97C517.931 256.962 518.963 257.173 519.921 257.589C520.837 257.983 521.664 258.561 522.352 259.289C523.042 260.027 523.586 260.892 523.955 261.837C524.738 263.893 524.738 266.172 523.955 268.228C523.589 269.18 523.045 270.052 522.352 270.795C521.664 271.523 520.837 272.101 519.921 272.494C518.963 272.91 517.931 273.119 516.889 273.11V273.114ZM579.18 277.434V260.858L591.486 277.434H595.898V252.653H591.211V268.69L579.215 252.653H574.456V277.434H579.18Z" fill="white"/>
</svg>
