<svg width="723" height="85" viewBox="0 0 723 85" fill="none" xmlns="http://www.w3.org/2000/svg">
<g id="gamemeta">
<g id="GAME DETAILS">
<g id="ICON DIVIDERS" opacity="0.351446">
<rect id="Rectangle" x="170" width="1" height="73" fill="white"/>
<rect id="Rectangle_2" x="361" width="1" height="73" fill="white"/>
<rect id="Rectangle_3" x="552" width="1" height="73" fill="white"/>
</g>
<g id="MD_LBL_PLAYERS INFO">
<g id="PLAYERS - ICON">
<path id="Oval" d="M258.5 8C258.5 11.5899 255.59 14.5 252 14.5C248.41 14.5 245.5 11.5899 245.5 8C245.5 4.41015 248.41 1.5 252 1.5C255.59 1.5 258.5 4.41015 258.5 8Z" stroke="white" stroke-width="3"/>
<path id="Rectangle_4" d="M245 19.5H259C262.038 19.5 264.5 21.9624 264.5 25V36.5H239.5V25C239.5 21.9624 241.962 19.5 245 19.5Z" stroke="white" stroke-width="3"/>
<path id="Oval_2" d="M287.5 8C287.5 11.5899 284.59 14.5 281 14.5C277.41 14.5 274.5 11.5899 274.5 8C274.5 4.41015 277.41 1.5 281 1.5C284.59 1.5 287.5 4.41015 287.5 8Z" stroke="white" stroke-width="3"/>
<path id="Rectangle_5" d="M274 19.5H288C291.038 19.5 293.5 21.9624 293.5 25V36.5H268.5V25C268.5 21.9624 270.962 19.5 274 19.5Z" stroke="white" stroke-width="3"/>
</g>
</g>
<g id="MD_DEVELOPER INFO">
<g id="PROCESSOR - ICON">
<g id="Group 51">
<rect id="Rectangle_6" x="420" y="13" width="8" height="3" rx="1.5" fill="white"/>
<rect id="Rectangle_7" x="420" y="18" width="8" height="3" rx="1.5" fill="white"/>
<rect id="Rectangle_8" x="420" y="23" width="8" height="3" rx="1.5" fill="white"/>
</g>
<g id="Group 52">
<rect id="Rectangle_9" x="448" y="1" width="7" height="3" rx="1.5" transform="rotate(90 448 1)" fill="white"/>
<rect id="Rectangle_10" x="443" y="1" width="7" height="3" rx="1.5" transform="rotate(90 443 1)" fill="white"/>
<rect id="Rectangle_11" x="438" y="1" width="7" height="3" rx="1.5" transform="rotate(90 438 1)" fill="white"/>
<rect id="Rectangle_12" x="463" y="1" width="7" height="3" rx="1.5" transform="rotate(90 463 1)" fill="white"/>
<rect id="Rectangle_13" x="458" y="1" width="7" height="3" rx="1.5" transform="rotate(90 458 1)" fill="white"/>
<rect id="Rectangle_14" x="453" y="1" width="7" height="3" rx="1.5" transform="rotate(90 453 1)" fill="white"/>
<rect id="Rectangle_15" x="478" y="1" width="7" height="3" rx="1.5" transform="rotate(90 478 1)" fill="white"/>
<rect id="Rectangle_16" x="468" y="1" width="7" height="3" rx="1.5" transform="rotate(90 468 1)" fill="white"/>
<rect id="Rectangle_17" x="473" y="1" width="7" height="3" rx="1.5" transform="rotate(90 473 1)" fill="white"/>
</g>
<g id="Group 52_2">
<rect id="Rectangle_18" x="448" y="31" width="7" height="3" rx="1.5" transform="rotate(90 448 31)" fill="white"/>
<rect id="Rectangle_19" x="443" y="31" width="7" height="3" rx="1.5" transform="rotate(90 443 31)" fill="white"/>
<rect id="Rectangle_20" x="438" y="31" width="7" height="3" rx="1.5" transform="rotate(90 438 31)" fill="white"/>
<rect id="Rectangle_21" x="463" y="31" width="7" height="3" rx="1.5" transform="rotate(90 463 31)" fill="white"/>
<rect id="Rectangle_22" x="458" y="31" width="7" height="3" rx="1.5" transform="rotate(90 458 31)" fill="white"/>
<rect id="Rectangle_23" x="453" y="31" width="7" height="3" rx="1.5" transform="rotate(90 453 31)" fill="white"/>
<rect id="Rectangle_24" x="478" y="31" width="7" height="3" rx="1.5" transform="rotate(90 478 31)" fill="white"/>
<rect id="Rectangle_25" x="468" y="31" width="7" height="3" rx="1.5" transform="rotate(90 468 31)" fill="white"/>
<rect id="Rectangle_26" x="473" y="31" width="7" height="3" rx="1.5" transform="rotate(90 473 31)" fill="white"/>
</g>
<g id="Group 51_2">
<rect id="Rectangle_27" x="486" y="13" width="8" height="3" rx="1.5" fill="white"/>
<rect id="Rectangle_28" x="486" y="18" width="8" height="3" rx="1.5" fill="white"/>
<rect id="Rectangle_29" x="486" y="23" width="8" height="3" rx="1.5" fill="white"/>
</g>
<path id="Rectangle (Stroke)" fill-rule="evenodd" clip-rule="evenodd" d="M428 9V30H485V9H428ZM427.556 6C426.144 6 425 7.14416 425 8.55556V30.4444C425 31.8558 426.144 33 427.556 33H485.444C486.856 33 488 31.8558 488 30.4444V8.55556C488 7.14416 486.856 6 485.444 6H427.556Z" fill="white"/>
<path id="Rectangle (Stroke)_2" fill-rule="evenodd" clip-rule="evenodd" d="M480 14H433V25H480V14ZM431 12V27H482V12H431Z" fill="white"/>
</g>
</g>
<g id="RELEASEDATE - INFO">
<g id="RELEASEDATE - ICON">
<rect id="Rectangle_30" x="632" width="10" height="3" rx="1.5" transform="rotate(90 632 0)" fill="white"/>
<rect id="Rectangle_31" x="620" y="11" width="57" height="2" fill="white"/>
<rect id="Rectangle_32" x="668" width="10" height="3" rx="1.5" transform="rotate(90 668 0)" fill="white"/>
<path id="Rectangle (Stroke)_3" fill-rule="evenodd" clip-rule="evenodd" d="M623 6V35H674V6H623ZM622.556 3C621.144 3 620 4.14416 620 5.55556V35.4444C620 36.8558 621.144 38 622.556 38H674.444C675.856 38 677 36.8558 677 35.4444V5.55556C677 4.14416 675.856 3 674.444 3H622.556Z" fill="white"/>
<path id="Oval_3" fill-rule="evenodd" clip-rule="evenodd" d="M634.5 18C635.328 18 636 17.3284 636 16.5C636 15.6716 635.328 15 634.5 15C633.672 15 633 15.6716 633 16.5C633 17.3284 633.672 18 634.5 18Z" fill="white"/>
<path id="Oval_4" fill-rule="evenodd" clip-rule="evenodd" d="M641.5 18C642.328 18 643 17.3284 643 16.5C643 15.6716 642.328 15 641.5 15C640.672 15 640 15.6716 640 16.5C640 17.3284 640.672 18 641.5 18Z" fill="white"/>
<path id="Oval_5" fill-rule="evenodd" clip-rule="evenodd" d="M648.5 18C649.328 18 650 17.3284 650 16.5C650 15.6716 649.328 15 648.5 15C647.672 15 647 15.6716 647 16.5C647 17.3284 647.672 18 648.5 18Z" fill="white"/>
<path id="Oval_6" fill-rule="evenodd" clip-rule="evenodd" d="M655.5 18C656.328 18 657 17.3284 657 16.5C657 15.6716 656.328 15 655.5 15C654.672 15 654 15.6716 654 16.5C654 17.3284 654.672 18 655.5 18Z" fill="white"/>
<path id="Oval_7" fill-rule="evenodd" clip-rule="evenodd" d="M662.5 18C663.328 18 664 17.3284 664 16.5C664 15.6716 663.328 15 662.5 15C661.672 15 661 15.6716 661 16.5C661 17.3284 661.672 18 662.5 18Z" fill="white"/>
<path id="Oval_8" fill-rule="evenodd" clip-rule="evenodd" d="M669.5 18C670.328 18 671 17.3284 671 16.5C671 15.6716 670.328 15 669.5 15C668.672 15 668 15.6716 668 16.5C668 17.3284 668.672 18 669.5 18Z" fill="white"/>
<path id="Oval_9" fill-rule="evenodd" clip-rule="evenodd" d="M627.5 23C628.328 23 629 22.3284 629 21.5C629 20.6716 628.328 20 627.5 20C626.672 20 626 20.6716 626 21.5C626 22.3284 626.672 23 627.5 23Z" fill="white"/>
<path id="Oval_10" fill-rule="evenodd" clip-rule="evenodd" d="M634.5 23C635.328 23 636 22.3284 636 21.5C636 20.6716 635.328 20 634.5 20C633.672 20 633 20.6716 633 21.5C633 22.3284 633.672 23 634.5 23Z" fill="white"/>
<path id="Oval_11" fill-rule="evenodd" clip-rule="evenodd" d="M641.5 23C642.328 23 643 22.3284 643 21.5C643 20.6716 642.328 20 641.5 20C640.672 20 640 20.6716 640 21.5C640 22.3284 640.672 23 641.5 23Z" fill="white"/>
<path id="Oval_12" fill-rule="evenodd" clip-rule="evenodd" d="M648.5 23C649.328 23 650 22.3284 650 21.5C650 20.6716 649.328 20 648.5 20C647.672 20 647 20.6716 647 21.5C647 22.3284 647.672 23 648.5 23Z" fill="white"/>
<path id="Oval_13" fill-rule="evenodd" clip-rule="evenodd" d="M655.5 23C656.328 23 657 22.3284 657 21.5C657 20.6716 656.328 20 655.5 20C654.672 20 654 20.6716 654 21.5C654 22.3284 654.672 23 655.5 23Z" fill="white"/>
<path id="Oval_14" fill-rule="evenodd" clip-rule="evenodd" d="M662.5 23C663.328 23 664 22.3284 664 21.5C664 20.6716 663.328 20 662.5 20C661.672 20 661 20.6716 661 21.5C661 22.3284 661.672 23 662.5 23Z" fill="white"/>
<path id="Oval_15" fill-rule="evenodd" clip-rule="evenodd" d="M669.5 23C670.328 23 671 22.3284 671 21.5C671 20.6716 670.328 20 669.5 20C668.672 20 668 20.6716 668 21.5C668 22.3284 668.672 23 669.5 23Z" fill="white"/>
<path id="Oval_16" fill-rule="evenodd" clip-rule="evenodd" d="M627.5 28C628.328 28 629 27.3284 629 26.5C629 25.6716 628.328 25 627.5 25C626.672 25 626 25.6716 626 26.5C626 27.3284 626.672 28 627.5 28Z" fill="white"/>
<path id="Oval_17" fill-rule="evenodd" clip-rule="evenodd" d="M634.5 28C635.328 28 636 27.3284 636 26.5C636 25.6716 635.328 25 634.5 25C633.672 25 633 25.6716 633 26.5C633 27.3284 633.672 28 634.5 28Z" fill="white"/>
<path id="Oval_18" fill-rule="evenodd" clip-rule="evenodd" d="M641.5 28C642.328 28 643 27.3284 643 26.5C643 25.6716 642.328 25 641.5 25C640.672 25 640 25.6716 640 26.5C640 27.3284 640.672 28 641.5 28Z" fill="white"/>
<path id="Oval_19" fill-rule="evenodd" clip-rule="evenodd" d="M648.5 28C649.328 28 650 27.3284 650 26.5C650 25.6716 649.328 25 648.5 25C647.672 25 647 25.6716 647 26.5C647 27.3284 647.672 28 648.5 28Z" fill="white"/>
<path id="Oval_20" fill-rule="evenodd" clip-rule="evenodd" d="M655.5 28C656.328 28 657 27.3284 657 26.5C657 25.6716 656.328 25 655.5 25C654.672 25 654 25.6716 654 26.5C654 27.3284 654.672 28 655.5 28Z" fill="white"/>
<path id="Oval_21" fill-rule="evenodd" clip-rule="evenodd" d="M662.5 28C663.328 28 664 27.3284 664 26.5C664 25.6716 663.328 25 662.5 25C661.672 25 661 25.6716 661 26.5C661 27.3284 661.672 28 662.5 28Z" fill="white"/>
<path id="Oval_22" fill-rule="evenodd" clip-rule="evenodd" d="M669.5 28C670.328 28 671 27.3284 671 26.5C671 25.6716 670.328 25 669.5 25C668.672 25 668 25.6716 668 26.5C668 27.3284 668.672 28 669.5 28Z" fill="white"/>
<path id="Oval_23" fill-rule="evenodd" clip-rule="evenodd" d="M627.5 33C628.328 33 629 32.3284 629 31.5C629 30.6716 628.328 30 627.5 30C626.672 30 626 30.6716 626 31.5C626 32.3284 626.672 33 627.5 33Z" fill="white"/>
<path id="Oval_24" fill-rule="evenodd" clip-rule="evenodd" d="M634.5 33C635.328 33 636 32.3284 636 31.5C636 30.6716 635.328 30 634.5 30C633.672 30 633 30.6716 633 31.5C633 32.3284 633.672 33 634.5 33Z" fill="white"/>
<path id="Oval_25" fill-rule="evenodd" clip-rule="evenodd" d="M641.5 33C642.328 33 643 32.3284 643 31.5C643 30.6716 642.328 30 641.5 30C640.672 30 640 30.6716 640 31.5C640 32.3284 640.672 33 641.5 33Z" fill="white"/>
<path id="Oval_26" fill-rule="evenodd" clip-rule="evenodd" d="M648.5 33C649.328 33 650 32.3284 650 31.5C650 30.6716 649.328 30 648.5 30C647.672 30 647 30.6716 647 31.5C647 32.3284 647.672 33 648.5 33Z" fill="white"/>
<path id="Oval_27" fill-rule="evenodd" clip-rule="evenodd" d="M655.5 33C656.328 33 657 32.3284 657 31.5C657 30.6716 656.328 30 655.5 30C654.672 30 654 30.6716 654 31.5C654 32.3284 654.672 33 655.5 33Z" fill="white"/>
<path id="Oval_28" fill-rule="evenodd" clip-rule="evenodd" d="M662.5 33C663.328 33 664 32.3284 664 31.5C664 30.6716 663.328 30 662.5 30C661.672 30 661 30.6716 661 31.5C661 32.3284 661.672 33 662.5 33Z" fill="white"/>
</g>
</g>
</g>
<g id="Vector">
<path fill-rule="evenodd" clip-rule="evenodd" d="M58.1434 27.0117C62.8089 27.0117 66.591 23.2296 66.591 18.5641C66.591 13.8986 62.8089 10.1165 58.1434 10.1165C53.4779 10.1165 49.6958 13.8986 49.6958 18.5641C49.6958 23.2296 53.4779 27.0117 58.1434 27.0117ZM58.1434 28.0117C63.3611 28.0117 67.591 23.7819 67.591 18.5641C67.591 13.3463 63.3611 9.11652 58.1434 9.11652C52.9256 9.11652 48.6958 13.3463 48.6958 18.5641C48.6958 23.7819 52.9256 28.0117 58.1434 28.0117Z" fill="white"/>
<path fill-rule="evenodd" clip-rule="evenodd" d="M58.1433 24.1024C61.202 24.1024 63.6816 21.6228 63.6816 18.5641C63.6816 15.5054 61.202 13.0258 58.1433 13.0258C55.0846 13.0258 52.605 15.5054 52.605 18.5641C52.605 21.6228 55.0846 24.1024 58.1433 24.1024ZM58.1433 25.1024C61.7543 25.1024 64.6816 22.1751 64.6816 18.5641C64.6816 14.9531 61.7543 12.0258 58.1433 12.0258C54.5323 12.0258 51.605 14.9531 51.605 18.5641C51.605 22.1751 54.5323 25.1024 58.1433 25.1024Z" fill="white"/>
<path fill-rule="evenodd" clip-rule="evenodd" d="M56.9193 13.7322C56.9193 13.7322 57.2736 13.5389 58.1434 13.5389C59.0131 13.5389 59.3675 13.7322 59.3675 13.7322V15.6037C59.3675 16.5627 60.1448 17.34 61.1038 17.34H62.9754C62.9754 17.34 63.1686 17.6783 63.1686 18.5641C63.1686 19.4339 62.9754 19.7882 62.9754 19.7882H61.1038C60.1448 19.7882 59.3675 20.5656 59.3675 21.5245V23.3961C59.3675 23.3961 59.0292 23.5893 58.1434 23.5893C57.2736 23.5893 56.9193 23.3961 56.9193 23.3961V21.5245C56.9193 20.5656 56.1419 19.7882 55.183 19.7882H53.3114C53.3114 19.7882 53.1182 19.4339 53.1182 18.5641C53.1182 17.6944 53.3114 17.34 53.3114 17.34H55.183C56.1419 17.34 56.9193 16.5627 56.9193 15.6037V13.7322ZM58.1434 19.5575C58.692 19.5575 59.1368 19.1127 59.1368 18.5641C59.1368 18.0155 58.692 17.5707 58.1434 17.5707C57.5948 17.5707 57.15 18.0155 57.15 18.5641C57.15 19.1127 57.5948 19.5575 58.1434 19.5575Z" fill="white"/>
<path fill-rule="evenodd" clip-rule="evenodd" d="M57.1767 13.519C57.3839 13.4682 57.6996 13.4189 58.1434 13.4189C58.5872 13.4189 58.9029 13.4682 59.1101 13.519C59.2137 13.5444 59.2902 13.5701 59.3418 13.5901C59.3677 13.6001 59.3873 13.6086 59.4011 13.615C59.4079 13.6182 59.4133 13.6209 59.4173 13.6229L59.4222 13.6254L59.4238 13.6262L59.4247 13.6267C59.4248 13.6267 59.4249 13.6268 59.3675 13.7322L59.4247 13.6267L59.4875 13.6609V15.6037C59.4875 16.4964 60.2111 17.22 61.1038 17.22H63.045L63.0795 17.2805L62.9754 17.34C63.0795 17.2805 63.0795 17.2804 63.0795 17.2805L63.0802 17.2817L63.0811 17.2833L63.0837 17.2882C63.0858 17.2922 63.0885 17.2975 63.0918 17.3042C63.0983 17.3178 63.1069 17.337 63.117 17.3624C63.1372 17.4131 63.163 17.4883 63.1884 17.5911C63.2393 17.7967 63.2886 18.1124 63.2886 18.5641C63.2886 19.0079 63.2393 19.3236 63.1885 19.5308C63.1631 19.6345 63.1374 19.7109 63.1174 19.7626C63.1074 19.7884 63.0989 19.808 63.0925 19.8218C63.0893 19.8287 63.0867 19.8341 63.0847 19.838L63.0821 19.8429L63.0813 19.8445L63.0808 19.8454C63.0808 19.8455 63.0807 19.8456 62.9754 19.7882L63.0808 19.8454L63.0466 19.9082H61.1038C60.2111 19.9082 59.4875 20.6318 59.4875 21.5245V23.4657L59.427 23.5002L59.3675 23.3961C59.427 23.5002 59.4271 23.5002 59.427 23.5002L59.4258 23.5009L59.4242 23.5018L59.4193 23.5044C59.4153 23.5065 59.41 23.5092 59.4033 23.5125C59.3897 23.519 59.3705 23.5276 59.3451 23.5377C59.2944 23.5579 59.2192 23.5837 59.1164 23.6092C58.9108 23.66 58.5951 23.7093 58.1434 23.7093C57.6996 23.7093 57.3839 23.66 57.1767 23.6092C57.073 23.5838 56.9966 23.5581 56.945 23.5381C56.9191 23.5281 56.8995 23.5196 56.8857 23.5132C56.8788 23.51 56.8734 23.5074 56.8695 23.5054L56.8646 23.5028L56.863 23.502L56.8621 23.5015C56.862 23.5015 56.8619 23.5014 56.9193 23.3961L56.8621 23.5015L56.7993 23.4673V21.5245C56.7993 20.6318 56.0757 19.9082 55.183 19.9082H53.2402L53.2061 19.8456L53.3114 19.7882C53.2061 19.8456 53.2061 19.8457 53.2061 19.8456L53.2055 19.8445L53.2046 19.8429L53.2021 19.838C53.2001 19.8341 53.1975 19.8287 53.1943 19.8218C53.1879 19.808 53.1794 19.7884 53.1694 19.7626C53.1493 19.7109 53.1236 19.6345 53.0983 19.5308C53.0475 19.3236 52.9982 19.0079 52.9982 18.5641C52.9982 18.1203 53.0475 17.8046 53.0983 17.5974C53.1236 17.4938 53.1493 17.4173 53.1694 17.3657C53.1794 17.3398 53.1879 17.3202 53.1943 17.3064C53.1975 17.2996 53.2001 17.2942 53.2021 17.2902L53.2046 17.2853L53.2055 17.2837L53.206 17.2828C53.206 17.2827 53.2061 17.2826 53.3114 17.34L53.206 17.2828L53.2402 17.22H55.183C56.0757 17.22 56.7993 16.4964 56.7993 15.6037V13.6609L56.8619 13.6268L56.9193 13.7322C56.8619 13.6268 56.8618 13.6269 56.8619 13.6268L56.863 13.6262L56.8646 13.6254L56.8695 13.6229C56.8734 13.6209 56.8788 13.6182 56.8857 13.615C56.8995 13.6086 56.9191 13.6001 56.945 13.5901C56.9966 13.5701 57.073 13.5444 57.1767 13.519ZM57.0393 13.8109C57.0815 13.7949 57.1456 13.7736 57.2337 13.752C57.4211 13.7062 57.7175 13.6588 58.1434 13.6588C58.5693 13.6588 58.8657 13.7062 59.0531 13.752C59.1412 13.7736 59.2053 13.7949 59.2475 13.8109V15.6037C59.2475 16.6289 60.0786 17.46 61.1038 17.46H62.8976C62.9133 17.5007 62.9343 17.5627 62.9555 17.6487C63.0013 17.8336 63.0487 18.1299 63.0487 18.5641C63.0487 18.99 63.0013 19.2864 62.9555 19.4738C62.9339 19.5619 62.9126 19.626 62.8966 19.6682H61.1038C60.0786 19.6682 59.2475 20.4993 59.2475 21.5245V23.3183C59.2068 23.334 59.1448 23.355 59.0588 23.3762C58.8738 23.422 58.5776 23.4694 58.1434 23.4694C57.7175 23.4694 57.4211 23.422 57.2337 23.3762C57.1456 23.3546 57.0815 23.3333 57.0393 23.3173V21.5245C57.0393 20.4993 56.2082 19.6682 55.183 19.6682H53.3902C53.3742 19.626 53.3529 19.5619 53.3313 19.4738C53.2854 19.2864 53.2381 18.99 53.2381 18.5641C53.2381 18.1382 53.2854 17.8418 53.3313 17.6544C53.3529 17.5663 53.3742 17.5022 53.3902 17.46H55.183C56.2082 17.46 57.0393 16.6289 57.0393 15.6037V13.8109ZM53.4171 17.3968C53.4172 17.3967 53.4171 17.3967 53.4171 17.3968ZM58.1434 17.6907C57.661 17.6907 57.27 18.0817 57.27 18.5641C57.27 19.0465 57.661 19.4375 58.1434 19.4375C58.6258 19.4375 59.0168 19.0465 59.0168 18.5641C59.0168 18.0817 58.6258 17.6907 58.1434 17.6907ZM57.0301 18.5641C57.0301 17.9492 57.5285 17.4508 58.1434 17.4508C58.7583 17.4508 59.2567 17.9492 59.2567 18.5641C59.2567 19.179 58.7583 19.6774 58.1434 19.6774C57.5285 19.6774 57.0301 19.179 57.0301 18.5641ZM62.8697 19.7314C62.8696 19.7315 62.8696 19.7315 62.8697 19.7314Z" fill="white"/>
<path fill-rule="evenodd" clip-rule="evenodd" d="M55.944 5.1782C47.8328 5.26803 41.2852 11.8712 41.2852 20.0037C41.2852 28.1922 47.9232 34.8302 56.1116 34.8302C57.8481 34.8302 59.5148 34.5317 61.0633 33.9832C64.8781 32.9791 70.6346 31.8364 77.0614 31.8364C82.374 31.8364 87.7248 32.573 92.9055 33.9277C94.4972 34.5115 96.2169 34.8302 98.0109 34.8302C106.199 34.8302 112.837 28.1922 112.837 20.0037C112.837 11.8713 106.29 5.26811 98.1787 5.1782C98.129 5.16308 98.073 5.14618 98.0109 5.12761C97.7217 5.04127 97.2985 4.91889 96.7555 4.77253C95.6696 4.47986 94.1035 4.09098 92.1709 3.70249C88.3087 2.9261 82.9673 2.14804 77.0614 2.14804C71.1554 2.14804 65.814 2.9261 61.9518 3.70249C60.0192 4.09098 58.4531 4.47986 57.3672 4.77253C56.8242 4.91889 56.401 5.04127 56.1118 5.12761C56.0497 5.14618 55.9937 5.16308 55.944 5.1782ZM60.9014 5.968C66.7394 7.95972 70.9381 13.4914 70.9381 20.0037C70.9381 24.2603 69.1444 28.0979 66.2716 30.8019C69.4385 30.25 73.1248 29.8364 77.0614 29.8364C80.659 29.8364 84.2676 30.1628 87.8273 30.7796C84.9683 28.0768 83.1845 24.2486 83.1845 20.0037C83.1845 13.4914 87.3832 7.95968 93.2212 5.96798C92.7675 5.86768 92.2853 5.76549 91.7767 5.66326C88.0038 4.90482 82.7992 4.14804 77.0614 4.14804C71.3235 4.14804 66.1189 4.90482 62.346 5.66326C61.8374 5.76549 61.3552 5.8677 60.9014 5.968ZM94.5086 32.3462L94.5233 32.2935C94.1875 32.1997 93.8508 32.1083 93.5134 32.0196C88.648 30.1976 85.1845 25.5051 85.1845 20.0037C85.1845 12.9199 90.9271 7.17727 98.0109 7.17727C105.095 7.17727 110.837 12.9199 110.837 20.0037C110.837 27.0876 105.095 32.8302 98.0109 32.8302C96.7967 32.8302 95.6219 32.6615 94.5086 32.3462ZM60.4644 32.0728C65.4057 30.2903 68.9381 25.5596 68.9381 20.0037C68.9381 12.9199 63.1955 7.17727 56.1116 7.17727C49.0278 7.17727 43.2852 12.9199 43.2852 20.0037C43.2852 27.0876 49.0278 32.8302 56.1116 32.8302C57.3561 32.8302 58.5591 32.653 59.6969 32.3224L59.6862 32.2838C59.9356 32.2145 60.1952 32.144 60.4644 32.0728Z" fill="white"/>
<path fill-rule="evenodd" clip-rule="evenodd" d="M60.7867 2.74146C61.2647 2.61219 61.7723 2.64798 62.2275 2.84304L63.9437 3.57855L63.1558 5.41684L61.4396 4.68133C61.3983 4.66362 61.3522 4.66037 61.3088 4.67211L52.6088 7.02494C52.5621 7.03757 52.5216 7.0667 52.4948 7.10694L52.0249 7.81169L50.3608 6.70229L50.8307 5.99754C51.1262 5.55431 51.5725 5.23336 52.0867 5.0943L60.7867 2.74146Z" fill="white"/>
<path fill-rule="evenodd" clip-rule="evenodd" d="M93.1108 2.74146C92.6328 2.61219 92.1251 2.64798 91.67 2.84304L89.9538 3.57855L90.7416 5.41684L92.4578 4.68133C92.4992 4.66362 92.5452 4.66037 92.5886 4.67211L101.289 7.02494C101.335 7.03757 101.376 7.0667 101.403 7.10694L101.873 7.81169L103.537 6.70229L103.067 5.99754C102.771 5.55431 102.325 5.23336 101.811 5.0943L93.1108 2.74146Z" fill="white"/>
<path fill-rule="evenodd" clip-rule="evenodd" d="M75.7878 1.2172C76.6175 1.16331 78.6156 1.10041 82.0584 1.37132C85.5806 1.64848 87.5695 1.92664 88.3266 2.04519C88.9314 2.13988 89.4006 2.58176 89.5572 3.14555L89.7668 3.90014L87.8397 4.43542L87.7118 3.97498C86.8302 3.84607 84.9623 3.60601 81.9015 3.36516C79.026 3.13888 77.2184 3.15407 76.3038 3.19261L76.2911 3.26385L75.9833 3.20887C75.9604 3.21026 75.9384 3.21163 75.9175 3.21299C75.9358 3.2118 75.9537 3.20968 75.9711 3.2067L74.3223 2.91226L74.4022 2.46472C74.5203 1.80335 75.0676 1.26398 75.7878 1.2172Z" fill="white"/>
<path fill-rule="evenodd" clip-rule="evenodd" d="M97.3511 20.0037C99.0738 20.0037 100.47 18.6072 100.47 16.8845C100.47 15.1618 99.0738 13.7653 97.3511 13.7653C95.6285 13.7653 94.2319 15.1618 94.2319 16.8845C94.2319 18.6072 95.6285 20.0037 97.3511 20.0037ZM97.3514 17.8293C97.8731 17.8293 98.2961 17.4063 98.2961 16.8845C98.2961 16.3628 97.8731 15.9398 97.3514 15.9398C96.8296 15.9398 96.4066 16.3628 96.4066 16.8845C96.4066 17.4063 96.8296 17.8293 97.3514 17.8293Z" fill="white"/>
<path d="M107.533 15.8048C107.533 17.5275 106.137 18.924 104.414 18.924C102.691 18.924 101.295 17.5275 101.295 15.8048C101.295 14.0821 102.691 12.6856 104.414 12.6856C106.137 12.6856 107.533 14.0821 107.533 15.8048Z" fill="white"/>
<path d="M94.2321 20.5436C94.2321 22.2663 92.8355 23.6628 91.1129 23.6628C89.3902 23.6628 87.9937 22.2663 87.9937 20.5436C87.9937 18.8209 89.3902 17.4244 91.1129 17.4244C92.8355 17.4244 94.2321 18.8209 94.2321 20.5436Z" fill="white"/>
<path d="M75.0965 25.1024C75.0965 25.8975 74.452 26.5421 73.6569 26.5421C72.8618 26.5421 72.2173 25.8975 72.2173 25.1024C72.2173 24.3074 72.8618 23.6628 73.6569 23.6628C74.452 23.6628 75.0965 24.3074 75.0965 25.1024Z" fill="white"/>
<path d="M81.9051 25.1024C81.9051 25.8975 81.2606 26.5421 80.4655 26.5421C79.6704 26.5421 79.0259 25.8975 79.0259 25.1024C79.0259 24.3074 79.6704 23.6628 80.4655 23.6628C81.2606 23.6628 81.9051 24.3074 81.9051 25.1024Z" fill="white"/>
</g>
</g>
</svg>
