<svg width="120" height="81" viewBox="0 0 120 81" fill="none" xmlns="http://www.w3.org/2000/svg">
<path fill-rule="evenodd" clip-rule="evenodd" d="M41.0821 26.3418C45.7476 26.3418 49.5297 22.5597 49.5297 17.8942C49.5297 13.2287 45.7476 9.4466 41.0821 9.4466C36.4166 9.4466 32.6345 13.2287 32.6345 17.8942C32.6345 22.5597 36.4166 26.3418 41.0821 26.3418ZM41.0821 27.3418C46.2999 27.3418 50.5297 23.1119 50.5297 17.8942C50.5297 12.6764 46.2999 8.4466 41.0821 8.4466C35.8644 8.4466 31.6345 12.6764 31.6345 17.8942C31.6345 23.1119 35.8644 27.3418 41.0821 27.3418Z" fill="white"/>
<path fill-rule="evenodd" clip-rule="evenodd" d="M41.082 23.4325C44.1408 23.4325 46.6204 20.9529 46.6204 17.8942C46.6204 14.8354 44.1408 12.3559 41.082 12.3559C38.0233 12.3559 35.5437 14.8354 35.5437 17.8942C35.5437 20.9529 38.0233 23.4325 41.082 23.4325ZM41.082 24.4325C44.6931 24.4325 47.6204 21.5052 47.6204 17.8942C47.6204 14.2832 44.6931 11.3559 41.082 11.3559C37.471 11.3559 34.5437 14.2832 34.5437 17.8942C34.5437 21.5052 37.471 24.4325 41.082 24.4325Z" fill="white"/>
<path fill-rule="evenodd" clip-rule="evenodd" d="M39.858 13.0622C39.858 13.0622 40.2124 12.869 41.0821 12.869C41.9519 12.869 42.3062 13.0622 42.3062 13.0622V14.9338C42.3062 15.8927 43.0836 16.6701 44.0425 16.6701H45.9141C45.9141 16.6701 46.1073 17.0083 46.1073 17.8942C46.1073 18.7639 45.9141 19.1183 45.9141 19.1183H44.0425C43.0836 19.1183 42.3062 19.8956 42.3062 20.8546V22.7261C42.3062 22.7261 41.968 22.9194 41.0821 22.9194C40.2124 22.9194 39.858 22.7261 39.858 22.7261V20.8546C39.858 19.8956 39.0807 19.1183 38.1217 19.1183H36.2502C36.2502 19.1183 36.0569 18.7639 36.0569 17.8942C36.0569 17.0244 36.2502 16.6701 36.2502 16.6701H38.1217C39.0807 16.6701 39.858 15.8927 39.858 14.9338V13.0622ZM41.0821 18.8875C41.6307 18.8875 42.0755 18.4428 42.0755 17.8942C42.0755 17.3456 41.6307 16.9008 41.0821 16.9008C40.5335 16.9008 40.0888 17.3456 40.0888 17.8942C40.0888 18.4428 40.5335 18.8875 41.0821 18.8875Z" fill="white"/>
<path fill-rule="evenodd" clip-rule="evenodd" d="M40.1154 12.8491C40.3227 12.7983 40.6383 12.749 41.0821 12.749C41.5259 12.749 41.8416 12.7983 42.0488 12.8491C42.1525 12.8744 42.2289 12.9001 42.2806 12.9202C42.3064 12.9302 42.326 12.9387 42.3398 12.9451C42.3467 12.9483 42.3521 12.9509 42.356 12.9529L42.3609 12.9554L42.3625 12.9563L42.3634 12.9568C42.3635 12.9568 42.3637 12.9569 42.3062 13.0622L42.3634 12.9568L42.4262 12.991V14.9338C42.4262 15.8265 43.1498 16.5501 44.0425 16.5501H45.9837L46.0182 16.6106L45.9141 16.6701C46.0182 16.6106 46.0182 16.6105 46.0182 16.6106L46.0189 16.6117L46.0198 16.6134L46.0224 16.6183C46.0245 16.6222 46.0272 16.6276 46.0305 16.6343C46.037 16.6478 46.0457 16.6671 46.0557 16.6924C46.0759 16.7432 46.1017 16.8183 46.1272 16.9211C46.178 17.1267 46.2273 17.4425 46.2273 17.8942C46.2273 18.338 46.178 18.6537 46.1272 18.8609C46.1019 18.9645 46.0762 19.0409 46.0562 19.0926C46.0462 19.1185 46.0376 19.1381 46.0312 19.1519C46.028 19.1587 46.0254 19.1641 46.0234 19.1681L46.0209 19.173L46.02 19.1746L46.0195 19.1755C46.0195 19.1756 46.0194 19.1757 45.9141 19.1183L46.0195 19.1755L45.9853 19.2383H44.0425C43.1498 19.2383 42.4262 19.9619 42.4262 20.8546V22.7958L42.3657 22.8303L42.3062 22.7261C42.3657 22.8303 42.3658 22.8303 42.3657 22.8303L42.3646 22.831L42.3629 22.8319L42.358 22.8345C42.3541 22.8366 42.3487 22.8393 42.342 22.8425C42.3285 22.849 42.3092 22.8577 42.2839 22.8678C42.2331 22.888 42.158 22.9138 42.0552 22.9392C41.8496 22.9901 41.5338 23.0394 41.0821 23.0394C40.6383 23.0394 40.3227 22.9901 40.1154 22.9393C40.0118 22.9139 39.9354 22.8882 39.8837 22.8682C39.8578 22.8582 39.8382 22.8496 39.8244 22.8433C39.8176 22.8401 39.8122 22.8374 39.8082 22.8354L39.8033 22.8329L39.8017 22.8321L39.8008 22.8316C39.8007 22.8316 39.8006 22.8315 39.858 22.7261L39.8008 22.8316L39.7381 22.7974V20.8546C39.7381 19.9619 39.0144 19.2383 38.1217 19.2383H36.1789L36.1448 19.1757L36.2502 19.1183C36.1448 19.1757 36.1449 19.1758 36.1448 19.1757L36.1442 19.1746L36.1434 19.173L36.1409 19.1681C36.1389 19.1641 36.1362 19.1587 36.133 19.1519C36.1266 19.1381 36.1181 19.1185 36.1081 19.0926C36.0881 19.0409 36.0624 18.9645 36.037 18.8609C35.9862 18.6537 35.9369 18.338 35.9369 17.8942C35.9369 17.4504 35.9862 17.1347 36.037 16.9274C36.0624 16.8238 36.0881 16.7474 36.1081 16.6957C36.1181 16.6699 36.1266 16.6503 36.133 16.6365C36.1362 16.6296 36.1389 16.6242 36.1409 16.6203L36.1434 16.6154L36.1442 16.6138L36.1447 16.6129C36.1447 16.6128 36.1448 16.6126 36.2502 16.6701L36.1447 16.6129L36.1789 16.5501H38.1217C39.0144 16.5501 39.7381 15.8265 39.7381 14.9338V12.991L39.8006 12.9569L39.858 13.0622C39.8006 12.9569 39.8005 12.9569 39.8006 12.9569L39.8017 12.9563L39.8033 12.9554L39.8082 12.9529C39.8122 12.9509 39.8176 12.9483 39.8244 12.9451C39.8382 12.9387 39.8578 12.9302 39.8837 12.9202C39.9354 12.9001 40.0118 12.8744 40.1154 12.8491ZM39.978 13.141C40.0202 13.125 40.0843 13.1037 40.1725 13.0821C40.3598 13.0362 40.6562 12.9889 41.0821 12.9889C41.508 12.9889 41.8044 13.0362 41.9918 13.0821C42.0799 13.1037 42.144 13.125 42.1862 13.141V14.9338C42.1862 15.959 43.0173 16.7901 44.0425 16.7901H45.8363C45.852 16.8308 45.873 16.8928 45.8943 16.9788C45.94 17.1637 45.9874 17.46 45.9874 17.8942C45.9874 18.3201 45.9401 18.6165 45.8942 18.8039C45.8726 18.892 45.8513 18.9561 45.8353 18.9983H44.0425C43.0173 18.9983 42.1862 19.8294 42.1862 20.8546V22.6484C42.1455 22.6641 42.0835 22.6851 41.9975 22.7063C41.8126 22.7521 41.5163 22.7994 41.0821 22.7994C40.6562 22.7994 40.3598 22.7521 40.1725 22.7062C40.0843 22.6847 40.0202 22.6634 39.978 22.6474V20.8546C39.978 19.8294 39.1469 18.9983 38.1217 18.9983H36.3289C36.3129 18.9561 36.2916 18.892 36.27 18.8039C36.2242 18.6165 36.1769 18.3201 36.1769 17.8942C36.1769 17.4683 36.2242 17.1719 36.27 16.9845C36.2916 16.8964 36.3129 16.8323 36.3289 16.7901H38.1217C39.1469 16.7901 39.978 15.959 39.978 14.9338V13.141ZM36.3558 16.7269C36.3559 16.7268 36.3559 16.7268 36.3558 16.7269ZM41.0821 17.0208C40.5997 17.0208 40.2087 17.4118 40.2087 17.8942C40.2087 18.3765 40.5997 18.7676 41.0821 18.7676C41.5645 18.7676 41.9555 18.3765 41.9555 17.8942C41.9555 17.4118 41.5645 17.0208 41.0821 17.0208ZM39.9688 17.8942C39.9688 17.2793 40.4672 16.7809 41.0821 16.7809C41.697 16.7809 42.1954 17.2793 42.1954 17.8942C42.1954 18.5091 41.697 19.0075 41.0821 19.0075C40.4672 19.0075 39.9688 18.5091 39.9688 17.8942ZM45.8084 19.0615C45.8083 19.0616 45.8084 19.0616 45.8084 19.0615Z" fill="white"/>
<path fill-rule="evenodd" clip-rule="evenodd" d="M38.8828 4.50827C30.7715 4.59811 24.2239 11.2013 24.2239 19.3338C24.2239 27.5222 30.8619 34.1603 39.0503 34.1603C40.7868 34.1603 42.4536 33.8618 44.0021 33.3133C47.8169 32.3092 53.5734 31.1665 60.0001 31.1665C65.3127 31.1665 70.6636 31.903 75.8442 33.2578C77.4359 33.8416 79.1556 34.1603 80.9497 34.1603C89.1381 34.1603 95.7761 27.5223 95.7761 19.3338C95.7761 11.2014 89.2286 4.59818 81.1174 4.50828C81.0677 4.49316 81.0118 4.47626 80.9496 4.45769C80.6604 4.37134 80.2372 4.24897 79.6942 4.10261C78.6083 3.80994 77.0422 3.42106 75.1096 3.03256C71.2474 2.25618 65.906 1.47812 60.0001 1.47812C54.0942 1.47812 48.7527 2.25618 44.8905 3.03256C42.9579 3.42106 41.3918 3.80994 40.306 4.10261C39.7629 4.24897 39.3397 4.37134 39.0506 4.45769C38.9884 4.47626 38.9324 4.49316 38.8828 4.50827ZM43.8401 5.29808C49.6781 7.28979 53.8768 12.8215 53.8768 19.3338C53.8768 23.5903 52.0831 27.4279 49.2104 30.132C52.3773 29.5801 56.0635 29.1665 60.0001 29.1665C63.5977 29.1665 67.2063 29.4929 70.766 30.1097C67.9071 27.4069 66.1232 23.5787 66.1232 19.3338C66.1232 12.8215 70.3219 7.28976 76.1599 5.29806C75.7062 5.19776 75.224 5.09557 74.7155 4.99334C70.9425 4.2349 65.7379 3.47812 60.0001 3.47812C54.2623 3.47812 49.0576 4.2349 45.2847 4.99334C44.7761 5.09557 44.2939 5.19778 43.8401 5.29808ZM77.4473 31.6763L77.4621 31.6236C77.1262 31.5297 76.7896 31.4384 76.4522 31.3496C71.5867 29.5277 68.1232 24.8352 68.1232 19.3338C68.1232 12.25 73.8658 6.50735 80.9497 6.50735C88.0335 6.50735 93.7761 12.25 93.7761 19.3338C93.7761 26.4177 88.0335 32.1603 80.9497 32.1603C79.7354 32.1603 78.5606 31.9916 77.4473 31.6763ZM43.4031 31.4029C48.3445 29.6204 51.8768 24.8896 51.8768 19.3338C51.8768 12.25 46.1342 6.50735 39.0503 6.50735C31.9665 6.50735 26.2239 12.25 26.2239 19.3338C26.2239 26.4177 31.9665 32.1603 39.0503 32.1603C40.2948 32.1603 41.4978 31.9831 42.6356 31.6525L42.6249 31.6139C42.8744 31.5446 43.1339 31.4741 43.4031 31.4029Z" fill="white"/>
<path fill-rule="evenodd" clip-rule="evenodd" d="M43.7254 2.07154C44.2034 1.94227 44.711 1.97806 45.1662 2.17312L46.8824 2.90863L46.0945 4.74692L44.3783 4.01141C44.337 3.9937 44.2909 3.99045 44.2475 4.00218L35.5475 6.35502C35.5008 6.36764 35.4603 6.39678 35.4335 6.43702L34.9637 7.14177L33.2996 6.03237L33.7694 5.32762C34.0649 4.88439 34.5112 4.56344 35.0254 4.42438L43.7254 2.07154Z" fill="white"/>
<path fill-rule="evenodd" clip-rule="evenodd" d="M76.0495 2.07154C75.5715 1.94227 75.0639 1.97806 74.6087 2.17312L72.8925 2.90863L73.6804 4.74692L75.3966 4.01141C75.4379 3.9937 75.484 3.99045 75.5274 4.00218L84.2274 6.35502C84.2741 6.36764 84.3146 6.39678 84.3414 6.43702L84.8112 7.14177L86.4753 6.03237L86.0055 5.32762C85.71 4.88439 85.2637 4.56344 84.7495 4.42438L76.0495 2.07154Z" fill="white"/>
<path fill-rule="evenodd" clip-rule="evenodd" d="M58.7266 0.547275C59.5562 0.493383 61.5544 0.43049 64.9972 0.701398C68.5193 0.978554 70.5082 1.25672 71.2654 1.37527C71.8702 1.46996 72.3393 1.91184 72.4959 2.47562L72.7055 3.23021L70.7785 3.7655L70.6506 3.30506C69.7689 3.17615 67.901 2.93608 64.8403 2.69524C61.9647 2.46896 60.1571 2.48415 59.2426 2.52269L59.2298 2.59392L58.922 2.53895C58.8991 2.54033 58.8771 2.54171 58.8562 2.54307C58.8745 2.54188 58.8924 2.53976 58.9099 2.53678L57.261 2.24234L57.3409 1.7948C57.459 1.13343 58.0064 0.594058 58.7266 0.547275Z" fill="white"/>
<path fill-rule="evenodd" clip-rule="evenodd" d="M80.2899 19.3338C82.0125 19.3338 83.4091 17.9373 83.4091 16.2146C83.4091 14.4919 82.0125 13.0954 80.2899 13.0954C78.5672 13.0954 77.1707 14.4919 77.1707 16.2146C77.1707 17.9373 78.5672 19.3338 80.2899 19.3338ZM80.2901 17.1594C80.8118 17.1594 81.2348 16.7364 81.2348 16.2146C81.2348 15.6928 80.8118 15.2699 80.2901 15.2699C79.7683 15.2699 79.3453 15.6928 79.3453 16.2146C79.3453 16.7364 79.7683 17.1594 80.2901 17.1594Z" fill="white"/>
<path d="M90.4721 15.1349C90.4721 16.8576 89.0755 18.2541 87.3528 18.2541C85.6302 18.2541 84.2336 16.8576 84.2336 15.1349C84.2336 13.4122 85.6302 12.0157 87.3528 12.0157C89.0755 12.0157 90.4721 13.4122 90.4721 15.1349Z" fill="white"/>
<path d="M77.1708 19.8737C77.1708 21.5964 75.7743 22.9929 74.0516 22.9929C72.3289 22.9929 70.9324 21.5964 70.9324 19.8737C70.9324 18.151 72.3289 16.7545 74.0516 16.7545C75.7743 16.7545 77.1708 18.151 77.1708 19.8737Z" fill="white"/>
<path d="M58.0353 24.4325C58.0353 25.2276 57.3907 25.8721 56.5956 25.8721C55.8006 25.8721 55.156 25.2276 55.156 24.4325C55.156 23.6374 55.8006 22.9929 56.5956 22.9929C57.3907 22.9929 58.0353 23.6374 58.0353 24.4325Z" fill="white"/>
<path d="M64.8439 24.4325C64.8439 25.2276 64.1993 25.8721 63.4042 25.8721C62.6091 25.8721 61.9646 25.2276 61.9646 24.4325C61.9646 23.6374 62.6091 22.9929 63.4042 22.9929C64.1993 22.9929 64.8439 23.6374 64.8439 24.4325Z" fill="white"/>
</svg>
