<svg xmlns="http://www.w3.org/2000/svg" xmlns:xlink="http://www.w3.org/1999/xlink" width="355" height="102.18" viewBox="0 0 355 102.18">
  <defs>
    <radialGradient id="radial-gradient" cx="441.68" cy="708.99" r="1" gradientTransform="matrix(14.74, 0, 0, -14.73, -6478.87, 10511.51)" gradientUnits="userSpaceOnUse">
      <stop offset="0.52" stop-color="#fff"/>
      <stop offset="0.89" stop-color="#757576"/>
      <stop offset="1" stop-color="#4e4d4d"/>
    </radialGradient>
  </defs>
  <g id="Layer_2" data-name="Layer 2">
    <g id="Layer_1-2" data-name="Layer 1">
      <g>
        <rect width="355" height="102.18" style="fill: none"/>
        <path d="M98.74,48.9v.21q13.73.26,20.28,5.46t6.55,12.58q0,8.23-7.46,13.59T98.3,86.11q-10.69,0-16.53-4.27t-5.85-9.72a7.33,7.33,0,0,1,2.62-5.86,9.39,9.39,0,0,1,6.28-2.21A9.22,9.22,0,0,1,90.71,66a6.22,6.22,0,0,1,2.45,5.13c0,2.83-1.89,5.2-5.7,7.12-.74.37-1.12.8-1.12,1.27,0,.87,1.06,1.63,3.2,2.3a21.91,21.91,0,0,0,6.54,1q11,0,11-16.13,0-16-13.18-16l-7.3.29c-1.47,0-2.21-.54-2.21-1.62,0-1.25.77-1.88,2.32-1.88L92,47.7q8.13,0,10.89-3.63t2.77-10.28q0-6.87-2.09-10.1c-1.39-2.16-3.79-3.23-7.17-3.23a14.2,14.2,0,0,0-5.2.93c-1.62.62-2.44,1.23-2.44,1.83s.53,1.15,1.6,1.76c2.79,1.78,4.19,3.7,4.19,5.78a5.82,5.82,0,0,1-2.34,4.87,8.45,8.45,0,0,1-5.28,1.81,9.6,9.6,0,0,1-6-2.06,6.31,6.31,0,0,1-2.67-5.14c0-3.5,2-6.52,5.91-9.06s9-3.83,15.17-3.83q10.23,0,17.26,4.33t7,11.1Q123.62,46.13,98.74,48.9Z" style="fill: #fff"/>
        <path d="M157.42,20.66v61.2h6q13.76,0,16.61-7.21T182.88,50q0-13.65-1.76-19.62c-1.16-4-2.94-6.59-5.31-7.84a19.5,19.5,0,0,0-9.05-1.87ZM138.9,81.86V20.66h-9.6V17.35h38.48q16.69,0,26.43,9.46t9.73,23.87a33.7,33.7,0,0,1-3,14.05,35.08,35.08,0,0,1-9.14,12,30.08,30.08,0,0,1-12.65,6.93,69.86,69.86,0,0,1-15.93,1.54H129.3V81.86Z" style="fill: #fff"/>
        <path d="M257.93,51.54q0-15.58-.64-20.54A14.54,14.54,0,0,0,254,23q-2.69-3-8.84-3a13,13,0,0,0-8.27,2.44c-2.06,1.64-3.33,4.26-3.85,7.87s-.75,10.66-.75,21.14.21,17.25.65,20.61a13.92,13.92,0,0,0,3.44,8c1.87,2,4.79,3,8.78,3a13,13,0,0,0,8.11-2.39c2.09-1.61,3.39-4.21,3.92-7.82S257.93,62.12,257.93,51.54Zm-46.74-.29q0-15.22,10.05-24.91a33.53,33.53,0,0,1,24.11-9.67,34.3,34.3,0,0,1,23.35,9.1Q279,34.86,279,51.65q0,15.74-9.73,25.22a32.85,32.85,0,0,1-23.8,9.48q-15.19,0-24.74-10.07T211.19,51.25Z" style="fill: #fff"/>
        <path d="M13.44,94.56c0-1.39,6.43-2.52,14.36-2.52s14.36,1.13,14.36,2.52-6.43,2.52-14.36,2.52S13.44,96,13.44,94.56Z" style="fill: #b9b9b9"/>
        <path d="M15.6,70.82A12.2,12.2,0,1,1,27.8,83.05,12.22,12.22,0,0,1,15.6,70.82Z" style="fill: url(#radial-gradient)"/>
        <path d="M16.43,38.93c-1.79,1.2-2.27,8.15-2.27,8.15s.48,7,2.27,8.15S27.8,57.15,27.8,57.15s9.57-.72,11.37-1.92,2.27-8.15,2.27-8.15-.48-6.95-2.27-8.15S27.8,37,27.8,37,18.23,37.73,16.43,38.93Z" style="fill: #a2a1a1"/>
        <path d="M27.8,7.58,42.1,21.9,27.8,36.23,13.51,21.9Z" style="fill: #fff"/>
      </g>
    </g>
  </g>
</svg>
