<svg width="362" height="155" viewBox="0 0 362 155" fill="none" xmlns="http://www.w3.org/2000/svg">
<path d="M7.78996 154.246C8.94087 154.244 10.0776 153.992 11.121 153.506C12.147 153.053 13.0574 152.374 13.784 151.519L11.8 149.531C11.313 150.117 10.7083 150.594 10.025 150.931C9.35464 151.256 8.61872 151.422 7.87396 151.417C7.24549 151.424 6.62192 151.306 6.03934 151.07C5.45676 150.834 4.92674 150.485 4.47996 150.043C4.04974 149.61 3.70982 149.096 3.47996 148.531C3.23352 147.931 3.10943 147.288 3.11496 146.639C3.10825 145.984 3.22881 145.334 3.46996 144.725C3.69506 144.159 4.02864 143.642 4.45196 143.203C4.87649 142.768 5.38423 142.423 5.94496 142.188C6.52928 141.94 7.15817 141.814 7.79296 141.818C8.55851 141.815 9.31419 141.991 9.99996 142.331C10.7088 142.687 11.3295 143.196 11.817 143.822L13.864 141.771C13.1442 140.897 12.2284 140.205 11.191 139.752C10.1247 139.259 8.96453 139.003 7.78996 139.001C6.74084 138.994 5.70076 139.195 4.72996 139.593C3.8102 139.966 2.97041 140.512 2.25596 141.201C1.55077 141.891 0.98987 142.714 0.60596 143.622C0.20798 144.575 0.00221527 145.596 0.000499106 146.629C-0.00121706 147.661 0.201149 148.683 0.59596 149.637C0.975326 150.542 1.53268 151.362 2.23496 152.048C2.94975 152.737 3.78989 153.282 4.70996 153.655C5.68733 154.054 6.73428 154.255 7.78996 154.246ZM47.367 154.268C48.4126 154.276 49.4492 154.075 50.416 153.676C51.3317 153.305 52.1649 152.756 52.8675 152.061C53.5701 151.366 54.1283 150.539 54.51 149.627C54.9096 148.68 55.1155 147.663 55.1155 146.635C55.1155 145.607 54.9096 144.59 54.51 143.643C54.1284 142.732 53.5702 141.904 52.8675 141.21C52.1649 140.515 51.3317 139.966 50.416 139.594C48.4668 138.805 46.2872 138.805 44.338 139.594C43.4222 139.966 42.589 140.515 41.8864 141.21C41.1838 141.904 40.6256 142.732 40.244 143.643C39.8446 144.59 39.6389 145.607 39.6389 146.635C39.6389 147.663 39.8446 148.68 40.244 149.627C40.6256 150.539 41.1838 151.366 41.8864 152.061C42.5891 152.756 43.4222 153.305 44.338 153.676C45.2985 154.073 46.3287 154.274 47.368 154.267L47.367 154.268ZM47.367 151.456C46.7533 151.461 46.1451 151.341 45.5796 151.103C45.014 150.865 44.5031 150.514 44.078 150.071C43.6586 149.627 43.3289 149.107 43.107 148.538C42.6334 147.31 42.6334 145.949 43.107 144.721C43.3308 144.157 43.6604 143.64 44.078 143.199C44.5031 142.757 45.014 142.405 45.5796 142.167C46.1451 141.929 46.7533 141.809 47.367 141.814C47.9986 141.809 48.6244 141.935 49.205 142.184C49.7594 142.419 50.2602 142.765 50.677 143.199C51.0945 143.64 51.4241 144.157 51.648 144.721C52.1214 145.949 52.1214 147.31 51.648 148.538C51.426 149.107 51.0963 149.627 50.677 150.071C50.2602 150.506 49.7594 150.851 49.205 151.086C48.6246 151.334 47.9992 151.46 47.368 151.455L47.367 151.456ZM93.272 154.036V151.33H85.272V139.234H82.246V154.034L93.272 154.036ZM131.451 154.036V151.33H123.451V139.234H120.423V154.034L131.451 154.036ZM169.921 154.036V151.372H161.63V147.861H167.04V145.281H161.63V141.901H169.838V139.237H158.6V154.037L169.921 154.036ZM203.505 154.247C204.656 154.246 205.793 153.993 206.836 153.507C207.862 153.054 208.772 152.375 209.499 151.52L207.514 149.533C207.027 150.119 206.422 150.596 205.739 150.933C205.069 151.258 204.333 151.424 203.588 151.419C202.96 151.426 202.336 151.308 201.754 151.072C201.171 150.836 200.642 150.487 200.195 150.045C199.765 149.612 199.425 149.098 199.195 148.533C198.948 147.933 198.824 147.29 198.829 146.641C198.822 145.986 198.943 145.336 199.185 144.727C199.409 144.161 199.743 143.643 200.166 143.205C200.59 142.77 201.098 142.425 201.659 142.19C202.243 141.942 202.872 141.816 203.507 141.82C204.275 141.817 205.033 141.994 205.721 142.337C206.43 142.693 207.051 143.202 207.538 143.828L209.585 141.777C208.865 140.903 207.949 140.211 206.912 139.758C205.846 139.266 204.686 139.009 203.512 139.007C202.463 139 201.423 139.201 200.452 139.599C199.532 139.972 198.692 140.517 197.977 141.206C197.271 141.896 196.71 142.719 196.326 143.627C195.928 144.58 195.722 145.601 195.721 146.634C195.719 147.666 195.921 148.688 196.316 149.642C196.695 150.547 197.253 151.367 197.955 152.053C198.67 152.742 199.51 153.287 200.43 153.66C201.406 154.057 202.451 154.256 203.505 154.246V154.247ZM243.563 154.036V141.94H248.47V139.233H235.605V141.94H240.534V154.034L243.563 154.036ZM278.253 154.036V139.236H275.225V154.036H278.253ZM313.132 154.269C314.178 154.277 315.214 154.076 316.181 153.677C317.097 153.306 317.93 152.757 318.632 152.062C319.335 151.367 319.893 150.54 320.275 149.628C320.674 148.681 320.88 147.664 320.88 146.636C320.88 145.608 320.674 144.591 320.275 143.644C319.893 142.733 319.335 141.905 318.633 141.211C317.93 140.516 317.097 139.967 316.181 139.595C314.232 138.806 312.053 138.806 310.104 139.595C309.189 139.967 308.356 140.516 307.653 141.211C306.951 141.906 306.393 142.733 306.011 143.644C305.611 144.591 305.405 145.608 305.405 146.636C305.405 147.664 305.611 148.681 306.011 149.628C306.393 150.539 306.951 151.366 307.653 152.061C308.356 152.756 309.189 153.305 310.104 153.677C311.064 154.073 312.093 154.274 313.132 154.267V154.269ZM313.132 151.457C312.504 151.463 311.881 151.337 311.305 151.087C310.754 150.851 310.257 150.505 309.843 150.072C309.423 149.629 309.093 149.108 308.871 148.539C308.397 147.311 308.397 145.95 308.871 144.722C309.095 144.157 309.425 143.641 309.843 143.2C310.257 142.767 310.754 142.422 311.305 142.185C311.881 141.936 312.504 141.81 313.132 141.815C313.763 141.81 314.389 141.936 314.969 142.185C315.524 142.42 316.025 142.766 316.442 143.2C316.86 143.641 317.189 144.158 317.413 144.722C317.887 145.95 317.887 147.311 317.413 148.539C317.191 149.108 316.861 149.628 316.442 150.072C316.025 150.507 315.524 150.852 314.969 151.087C314.389 151.335 313.763 151.461 313.132 151.455V151.457ZM350.871 154.037V144.137L358.327 154.037H361V139.237H358.16V148.815L350.892 139.237H348.009V154.037H350.871Z" fill="white"/>
<path d="M178.012 109.469C184.876 116.16 194.083 119.901 203.668 119.894L361.304 119.912L327.26 18.3472C324.745 12.856 320.701 8.20546 315.613 4.95181C310.524 1.69816 304.606 -0.0209046 298.566 0.000191864C292.526 0.0212883 286.62 1.78166 281.555 5.07077C276.489 8.35989 272.478 13.0385 270.001 18.5472L258.653 51.6342L258.608 1.71018L203.559 1.68218C194.041 1.63859 184.888 5.3404 178.076 11.9882L178.1 1.72718H121.731C116.729 1.73332 111.78 2.75706 107.185 4.73612C102.591 6.71518 98.4471 9.6082 95.006 13.2392V1.68218L41.882 1.72818C33.7215 1.58218 25.7028 3.87259 18.8505 8.30672C11.9983 12.7409 6.6237 19.1173 3.41357 26.6213C0.203447 34.1253 -0.696425 42.416 0.82895 50.434C2.35433 58.452 6.23567 65.8331 11.977 71.6342L0 71.6152V119.894L53.524 119.884C68.563 119.866 83.465 110.792 88.645 99.9212L88.8 99.4742C91.8386 105.61 96.5323 110.773 102.351 114.382C108.17 117.99 114.881 119.899 121.728 119.894L178.011 119.884V109.469" fill="white"/>
<path d="M8.26904 111.633L53.404 111.587C62.2413 111.587 70.7167 108.077 76.9656 101.828C83.2145 95.5788 86.725 87.1035 86.725 78.2662C86.725 69.429 83.2145 60.9536 76.9656 54.7047C70.7167 48.4558 62.2413 44.9452 53.404 44.9452L41.682 45.0092C41.2337 45.0092 40.8037 44.8311 40.4867 44.5141C40.1696 44.1971 39.9915 43.7671 39.9915 43.3187C39.9915 42.8704 40.1696 42.4404 40.4867 42.1234C40.8037 41.8063 41.2337 41.6282 41.682 41.6282L86.736 41.6382L86.754 27.5012H41.673C39.5916 27.4847 37.5275 27.8803 35.5997 28.6654C33.6719 29.4504 31.9186 30.6094 30.4409 32.0753C28.9632 33.5413 27.7903 35.2853 26.9899 37.2068C26.1895 39.1283 25.7775 41.1892 25.7775 43.2707C25.7775 45.3522 26.1895 47.4132 26.9899 49.3346C27.7903 51.2561 28.9632 53.0001 30.4409 54.4661C31.9186 55.9321 33.6719 57.091 35.5997 57.8761C37.5275 58.6612 39.5916 59.0568 41.673 59.0402L53.45 59.2012C58.5085 59.2012 63.3598 61.2107 66.9367 64.7876C70.5136 68.3645 72.523 73.2158 72.523 78.2742C72.523 83.3327 70.5136 88.184 66.9367 91.7609C63.3598 95.3378 58.5085 97.3472 53.45 97.3472H8.28704L8.26904 111.635" fill="#0060A8"/>
<path d="M8.28704 94.0272H53.45C55.5303 94.0437 57.5933 93.6483 59.52 92.8637C61.4467 92.0791 63.199 90.9208 64.6758 89.4557C66.1527 87.9905 67.3249 86.2475 68.1248 84.3271C68.9247 82.4067 69.3366 80.347 69.3366 78.2667C69.3366 76.1863 68.9247 74.1266 68.1248 72.2062C67.3249 70.2858 66.1527 68.5428 64.6758 67.0777C63.199 65.6125 61.4467 64.4542 59.52 63.6696C57.5933 62.885 55.5303 62.4896 53.45 62.5062L41.673 62.3782C36.612 62.3782 31.7583 60.3677 28.1797 56.789C24.601 53.2104 22.5905 48.3567 22.5905 43.2957C22.5905 38.2347 24.601 33.381 28.1797 29.8023C31.7583 26.2236 36.612 24.2132 41.673 24.2132L86.754 24.2032L86.736 10.0142H41.682C37.308 10.0142 32.9767 10.8757 28.9356 12.5496C24.8945 14.2235 21.2227 16.6769 18.1297 19.7698C15.0368 22.8628 12.5833 26.5346 10.9095 30.5757C9.23558 34.6169 8.37404 38.9481 8.37404 43.3222C8.37404 47.6962 9.23558 52.0275 10.9095 56.0686C12.5833 60.1097 15.0368 63.7815 18.1297 66.8745C21.2227 69.9674 24.8945 72.4209 28.9356 74.0947C32.9767 75.7686 37.308 76.6302 41.682 76.6302L53.34 76.6482C53.557 76.6428 53.7729 76.6809 53.9749 76.7602C54.177 76.8395 54.3611 76.9585 54.5165 77.11C54.6719 77.2616 54.7953 77.4427 54.8796 77.6427C54.9639 77.8427 55.0074 78.0576 55.0074 78.2747C55.0074 78.4917 54.9639 78.7066 54.8796 78.9066C54.7953 79.1066 54.6719 79.2877 54.5165 79.4393C54.3611 79.5909 54.177 79.7098 53.9749 79.7891C53.7729 79.8685 53.557 79.9065 53.34 79.9012L8.26904 79.9372L8.28704 94.0262" fill="#0060A8"/>
<path d="M121.829 97.4352C119.959 97.4446 118.105 97.0837 116.375 96.3734C114.645 95.6631 113.072 94.6174 111.748 93.2966C110.424 91.9758 109.374 90.4059 108.66 88.6776C107.945 86.9492 107.58 85.0965 107.584 83.2262V38.1382C107.636 34.4015 109.162 30.8366 111.83 28.2199C114.498 25.6033 118.092 24.147 121.829 24.1682L170.007 24.1762V10.0152H121.829C118.109 10.0076 114.423 10.7331 110.983 12.1502C107.544 13.5674 104.417 15.6485 101.781 18.2746C99.1459 20.9006 97.0538 24.0202 95.6245 27.4551C94.1952 30.89 93.4567 34.5728 93.4512 38.2932V83.2272C93.4559 86.9488 94.1937 90.6331 95.6225 94.0696C97.0512 97.506 99.1429 100.627 101.778 103.255C104.413 105.883 107.54 107.966 110.981 109.386C114.421 110.805 118.108 111.533 121.829 111.527L169.806 111.546L169.796 97.4202L121.829 97.4372" fill="#0060A8"/>
<path d="M111.038 38.2932C111.034 36.8738 111.31 35.4676 111.851 34.1552C112.392 32.8428 113.186 31.65 114.188 30.6451C115.191 29.6402 116.382 28.8431 117.693 28.2993C119.004 27.7555 120.41 27.4758 121.829 27.4762H170.007V41.6562H128.5C128.06 41.6456 127.623 41.7233 127.214 41.8845C126.805 42.0457 126.432 42.2872 126.118 42.5948C125.804 42.9024 125.554 43.2698 125.385 43.6754C125.215 44.081 125.128 44.5165 125.129 44.9562H159.758V59.0712H111.022L111.038 38.2942" fill="#0060A8"/>
<path d="M121.829 94.0012C120.412 94.0039 119.008 93.7274 117.697 93.1874C116.387 92.6473 115.196 91.8544 114.192 90.8538C113.188 89.8533 112.392 88.6647 111.847 87.3561C111.303 86.0475 111.022 84.6445 111.02 83.2272V62.4272H159.755V76.5772H125.127C125.125 77.019 125.211 77.4568 125.381 77.8649C125.55 78.2731 125.798 78.6435 126.112 78.9546C126.426 79.2656 126.799 79.5111 127.208 79.6767C127.618 79.8423 128.056 79.9248 128.498 79.9192H169.8L169.791 93.9812L121.829 94.0012Z" fill="#0060A8"/>
<path d="M203.768 97.4012C200.01 97.3959 196.407 95.9012 193.749 93.2446C191.092 90.588 189.595 86.9861 189.588 83.2282V38.2922C189.587 36.4356 189.953 34.597 190.664 32.8818C191.375 31.1667 192.417 29.6085 193.73 28.2964C195.044 26.9844 196.603 25.9442 198.319 25.2355C200.035 24.5268 201.874 24.1634 203.731 24.1662H250.393V10.0152H203.623C199.903 10.0084 196.218 10.7344 192.779 12.152C189.34 13.5695 186.214 15.6507 183.579 18.2767C180.945 20.9027 178.853 24.0221 177.424 27.4565C175.996 30.891 175.257 34.5734 175.252 38.2932V83.2272C175.286 90.7534 178.303 97.959 183.642 103.264C188.98 108.569 196.205 111.541 203.731 111.527L250.393 111.546V44.9542H210.293V59.0712H236.223V97.4012H203.768Z" fill="#0060A8"/>
<path d="M192.913 83.2262C192.909 86.0999 194.047 88.8576 196.075 90.8932C198.104 92.9288 200.857 94.0758 203.731 94.0822H232.877V62.4142H210.327V76.5772H218.7L218.727 79.9022H210.395C209.517 79.8953 208.677 79.5423 208.058 78.9197C207.439 78.2971 207.09 77.4553 207.088 76.5772L207.013 44.9452C207.007 44.503 207.089 44.064 207.255 43.654C207.42 43.2439 207.666 42.871 207.978 42.5571C208.289 42.2432 208.66 41.9946 209.069 41.8258C209.478 41.657 209.916 41.5715 210.358 41.5742H250.413L250.395 27.4662L203.733 27.4762C202.313 27.4761 200.906 27.7557 199.593 28.2993C198.281 28.8428 197.088 29.6396 196.084 30.6441C195.079 31.6485 194.282 32.841 193.739 34.1535C193.195 35.4659 192.915 36.8726 192.915 38.2932V83.2262" fill="#0060A8"/>
<path d="M294.24 27.2652C294.555 26.3606 295.144 25.5765 295.925 25.0217C296.706 24.4669 297.64 24.1688 298.598 24.1688C299.556 24.1688 300.49 24.4669 301.271 25.0217C302.052 25.5765 302.641 26.3606 302.956 27.2652L325.607 94.1822H292.439L292.476 78.4402H303.559L298.57 63.6112L282.316 111.532H265.6L294.24 27.2652Z" fill="#0060A8"/>
<path d="M330.174 97.4012H292.495V111.534H349.836L320.014 23.3012C317.4 14.6932 308.786 8.36218 298.588 8.36218C288.374 8.36218 279.788 14.6622 277.153 23.2622L247.053 111.531H262.065L291.285 25.7312C291.887 24.2997 292.898 23.0775 294.192 22.2175C295.485 21.3575 297.003 20.8979 298.556 20.8959C300.109 20.894 301.629 21.3499 302.924 22.2067C304.22 23.0635 305.234 24.2832 305.84 25.7132L330.174 97.4012Z" fill="#0060A8"/>
<path d="M339.028 21.2442C341.342 21.2483 343.585 20.4494 345.376 18.9839C347.166 17.5184 348.393 15.477 348.846 13.208C349.299 10.9391 348.951 8.58314 347.861 6.54218C346.771 4.50123 345.007 2.9017 342.869 2.01652C340.731 1.13133 338.353 1.01532 336.139 1.68828C333.925 2.36125 332.014 3.78149 330.73 5.7067C329.447 7.6319 328.871 9.94278 329.101 12.2451C329.332 14.5474 330.354 16.6984 331.993 18.3312C333.86 20.1953 336.39 21.2429 339.028 21.2442ZM330.46 11.2762C330.455 10.1517 330.674 9.03743 331.105 7.99885C331.537 6.96027 332.171 6.01829 332.971 5.22821C334.168 4.03163 335.692 3.21675 337.352 2.88661C339.012 2.55648 340.732 2.72591 342.295 3.3735C343.859 4.02108 345.195 5.11772 346.135 6.52475C347.075 7.93178 347.577 9.58599 347.577 11.2782C347.577 12.9704 347.075 14.6246 346.135 16.0317C345.195 17.4387 343.859 18.5353 342.295 19.1829C340.732 19.8305 339.012 19.9999 337.352 19.6698C335.692 19.3397 334.168 18.5248 332.971 17.3282C332.17 16.5382 331.535 15.5957 331.103 14.5563C330.672 13.5168 330.453 12.4015 330.46 11.2762Z" fill="white"/>
<path d="M336.47 12.1172V16.8172H335.026V5.77618H339.126C340.672 5.79418 341.576 5.79418 342.435 6.44218C342.824 6.74113 343.135 7.13024 343.341 7.57601C343.547 8.02179 343.641 8.51087 343.616 9.00118C343.658 9.74893 343.406 10.4834 342.914 11.0482C342.422 11.613 341.729 11.9635 340.983 12.0252L344.09 16.8122H342.345L339.321 12.1122H336.47V12.1172ZM336.47 10.8972H339.4C339.851 10.9163 340.302 10.8793 340.744 10.7872C341.154 10.7139 341.523 10.4916 341.78 10.1628C342.036 9.83403 342.162 9.4221 342.133 9.00618C342.147 8.71576 342.095 8.42594 341.981 8.15852C341.867 7.8911 341.693 7.65302 341.474 7.46218C340.835 7.05428 340.071 6.89059 339.321 7.00118H336.47V10.9012V10.8972Z" fill="white"/>
</svg>
