<svg width="361" height="135" viewBox="0 0 361 135" fill="none" xmlns="http://www.w3.org/2000/svg">
<path d="M7.78996 134.246C8.94087 134.244 10.0776 133.992 11.121 133.506C12.147 133.053 13.0574 132.374 13.784 131.519V131.519L11.8 129.531C11.313 130.117 10.7083 130.594 10.025 130.931C9.35463 131.256 8.61872 131.422 7.87396 131.417C7.24549 131.424 6.62192 131.306 6.03934 131.07C5.45676 130.834 4.92674 130.485 4.47996 130.043C4.04974 129.61 3.70982 129.096 3.47996 128.531C3.23352 127.931 3.10943 127.288 3.11496 126.639C3.10825 125.984 3.22881 125.334 3.46996 124.725C3.69506 124.159 4.02864 123.642 4.45196 123.203C4.87649 122.768 5.38423 122.423 5.94496 122.188C6.52928 121.94 7.15817 121.814 7.79296 121.818C8.55851 121.815 9.31419 121.991 9.99996 122.331C10.7088 122.687 11.3295 123.196 11.817 123.822V123.822L13.864 121.771C13.1442 120.897 12.2284 120.205 11.191 119.752C10.1247 119.259 8.96453 119.003 7.78996 119.001C6.74084 118.994 5.70076 119.195 4.72996 119.593C3.8102 119.966 2.97041 120.512 2.25596 121.201C1.55077 121.891 0.98987 122.714 0.60596 123.622C0.20798 124.575 0.00221527 125.596 0.000499106 126.629C-0.00121706 127.661 0.201149 128.683 0.59596 129.637C0.975326 130.542 1.53268 131.362 2.23496 132.048C2.94975 132.737 3.78989 133.282 4.70996 133.655C5.68733 134.054 6.73428 134.255 7.78996 134.246V134.246ZM47.367 134.268C48.4126 134.276 49.4492 134.075 50.416 133.676C51.3317 133.305 52.1649 132.756 52.8675 132.061C53.5701 131.366 54.1283 130.539 54.51 129.627C54.9096 128.68 55.1155 127.663 55.1155 126.635C55.1155 125.607 54.9096 124.59 54.51 123.643C54.1284 122.732 53.5702 121.904 52.8675 121.21C52.1649 120.515 51.3317 119.966 50.416 119.594C48.4668 118.805 46.2872 118.805 44.338 119.594C43.4222 119.966 42.589 120.515 41.8864 121.21C41.1838 121.904 40.6256 122.732 40.244 123.643C39.8446 124.59 39.6389 125.607 39.6389 126.635C39.6389 127.663 39.8446 128.68 40.244 129.627C40.6256 130.539 41.1838 131.366 41.8864 132.061C42.5891 132.756 43.4222 133.305 44.338 133.676C45.2985 134.073 46.3287 134.274 47.368 134.267L47.367 134.268ZM47.367 131.456C46.7533 131.461 46.1451 131.341 45.5796 131.103C45.014 130.865 44.5031 130.514 44.078 130.071C43.6586 129.627 43.3289 129.107 43.107 128.538C42.6334 127.31 42.6334 125.949 43.107 124.721C43.3308 124.157 43.6604 123.64 44.078 123.199C44.5031 122.757 45.014 122.405 45.5796 122.167C46.1451 121.929 46.7533 121.809 47.367 121.814C47.9986 121.809 48.6244 121.935 49.205 122.184C49.7594 122.419 50.2602 122.765 50.677 123.199C51.0945 123.64 51.4241 124.157 51.648 124.721C52.1214 125.949 52.1214 127.31 51.648 128.538C51.426 129.107 51.0963 129.627 50.677 130.071C50.2602 130.506 49.7594 130.851 49.205 131.086C48.6246 131.334 47.9992 131.46 47.368 131.455L47.367 131.456ZM93.272 134.036V131.33H85.272V119.234H82.246V134.034L93.272 134.036ZM131.451 134.036V131.33H123.451V119.234H120.423V134.034L131.451 134.036ZM169.921 134.036V131.372H161.63V127.861H167.04V125.281H161.63V121.901H169.838V119.237H158.6V134.037L169.921 134.036ZM203.505 134.247C204.656 134.246 205.793 133.993 206.836 133.507C207.862 133.054 208.772 132.375 209.499 131.52V131.52L207.514 129.533C207.027 130.119 206.422 130.596 205.739 130.933C205.069 131.258 204.333 131.424 203.588 131.419C202.96 131.426 202.336 131.308 201.754 131.072C201.171 130.836 200.642 130.487 200.195 130.045C199.765 129.612 199.425 129.098 199.195 128.533C198.948 127.933 198.824 127.29 198.829 126.641C198.822 125.986 198.943 125.336 199.185 124.727C199.409 124.161 199.743 123.643 200.166 123.205C200.59 122.77 201.098 122.425 201.659 122.19C202.243 121.942 202.872 121.816 203.507 121.82C204.275 121.817 205.033 121.994 205.721 122.337C206.43 122.693 207.051 123.202 207.538 123.828V123.828L209.585 121.777C208.865 120.903 207.949 120.211 206.912 119.758C205.846 119.266 204.686 119.009 203.512 119.007C202.463 119 201.423 119.201 200.452 119.599C199.532 119.972 198.692 120.517 197.977 121.206C197.271 121.896 196.71 122.719 196.326 123.627C195.928 124.58 195.722 125.601 195.721 126.634C195.719 127.666 195.921 128.688 196.316 129.642C196.695 130.547 197.253 131.367 197.955 132.053C198.67 132.742 199.51 133.287 200.43 133.66C201.406 134.057 202.451 134.256 203.505 134.246V134.247ZM243.563 134.036V121.94H248.47V119.233H235.605V121.94H240.534V134.034L243.563 134.036ZM278.253 134.036V119.236H275.225V134.036H278.253ZM313.132 134.269C314.178 134.277 315.214 134.076 316.181 133.677C317.097 133.306 317.93 132.757 318.632 132.062C319.335 131.367 319.893 130.54 320.275 129.628C320.674 128.681 320.88 127.664 320.88 126.636C320.88 125.608 320.674 124.591 320.275 123.644C319.893 122.733 319.335 121.905 318.633 121.211C317.93 120.516 317.097 119.967 316.181 119.595C314.232 118.806 312.053 118.806 310.104 119.595C309.189 119.967 308.356 120.516 307.653 121.211C306.951 121.906 306.393 122.733 306.011 123.644C305.611 124.591 305.405 125.608 305.405 126.636C305.405 127.664 305.611 128.681 306.011 129.628C306.393 130.539 306.951 131.366 307.653 132.061C308.356 132.756 309.189 133.305 310.104 133.677C311.064 134.073 312.093 134.274 313.132 134.267V134.269ZM313.132 131.457C312.504 131.463 311.881 131.337 311.305 131.087C310.754 130.851 310.257 130.505 309.843 130.072C309.423 129.629 309.093 129.108 308.871 128.539C308.397 127.311 308.397 125.95 308.871 124.722C309.095 124.157 309.425 123.641 309.843 123.2C310.257 122.767 310.754 122.422 311.305 122.185C311.881 121.936 312.504 121.81 313.132 121.815C313.763 121.81 314.389 121.936 314.969 122.185C315.524 122.42 316.025 122.766 316.442 123.2C316.86 123.641 317.189 124.158 317.413 124.722C317.887 125.95 317.887 127.311 317.413 128.539C317.191 129.108 316.861 129.628 316.442 130.072C316.025 130.507 315.524 130.852 314.969 131.087C314.389 131.335 313.763 131.461 313.132 131.455V131.457ZM350.871 134.037V124.137L358.327 134.037H361V119.237H358.16V128.815L350.892 119.237H348.009V134.037H350.871Z" fill="white"/>
<path d="M148.322 91.211C154.04 96.7854 161.712 99.9028 169.698 99.8972L301.043 99.9122L272.677 15.2871C270.581 10.7117 267.212 6.83688 262.972 4.12591C258.732 1.41493 253.801 -0.017418 248.769 0.000159864C243.736 0.0177377 238.815 1.4845 234.594 4.22503C230.374 6.96555 227.032 10.8639 224.968 15.4537L215.513 43.0222L215.475 1.42494L169.608 1.40161C161.677 1.36529 154.051 4.44968 148.375 9.98869L148.395 1.43911H101.428C97.2595 1.44422 93.136 2.29721 89.3079 3.94619C85.4798 5.59517 82.0272 8.00566 79.1601 11.031V1.40161L34.8966 1.43994C28.0971 1.31829 21.4159 3.22668 15.7065 6.92125C9.99711 10.6158 5.51894 15.9288 2.84423 22.1812C0.169514 28.4336 -0.580269 35.3415 0.690691 42.0222C1.96165 48.7029 5.19563 54.8529 9.97937 59.6864L0 59.6706V99.8972L44.5968 99.8889C57.1275 99.8739 69.544 92.3133 73.86 83.2555L73.9892 82.883C76.521 87.9951 80.4318 92.2975 85.28 95.304C90.1281 98.3105 95.7204 99.9015 101.425 99.8972L148.321 99.8889V91.211" fill="white"/>
<path d="M6.88989 93.014L44.4969 92.9756C51.8602 92.9756 58.9219 90.0506 64.1286 84.8439C69.3353 79.6373 72.2603 72.5755 72.2603 65.2122C72.2603 57.8489 69.3353 50.7871 64.1286 45.5805C58.9219 40.3738 51.8602 37.4488 44.4969 37.4488L34.73 37.5021C34.3564 37.5021 33.9981 37.3537 33.734 37.0895C33.4698 36.8254 33.3214 36.4671 33.3214 36.0936C33.3214 35.72 33.4698 35.3617 33.734 35.0976C33.9981 34.8334 34.3564 34.685 34.73 34.685L72.2695 34.6933L72.2845 22.9142H34.7225C32.9882 22.9004 31.2683 23.2301 29.6621 23.8842C28.0558 24.5383 26.595 25.504 25.3637 26.7254C24.1325 27.9469 23.1552 29.4 22.4883 31.001C21.8215 32.602 21.4781 34.3192 21.4781 36.0536C21.4781 37.7879 21.8215 39.5051 22.4883 41.1061C23.1552 42.7071 24.1325 44.1602 25.3637 45.3817C26.595 46.6032 28.0558 47.5688 29.6621 48.2229C31.2683 48.877 32.9882 49.2067 34.7225 49.1929L44.5352 49.327C48.75 49.327 52.7921 51.0013 55.7724 53.9816C58.7527 56.9619 60.4271 61.0041 60.4271 65.2189C60.4271 69.4337 58.7527 73.4758 55.7724 76.4561C52.7921 79.4364 48.75 81.1107 44.5352 81.1107H6.90489L6.88989 93.0156" fill="#0060A8"/>
<path d="M6.90489 78.3446H44.5352C46.2685 78.3584 47.9874 78.0289 49.5927 77.3752C51.1981 76.7214 52.6581 75.7563 53.8886 74.5356C55.1192 73.3148 56.0959 71.8625 56.7624 70.2624C57.4289 68.6623 57.7721 66.9461 57.7721 65.2128C57.7721 63.4794 57.4289 61.7632 56.7624 60.1631C56.0959 58.563 55.1192 57.1107 53.8886 55.8899C52.6581 54.6692 51.1981 53.7041 49.5927 53.0503C47.9874 52.3966 46.2685 52.0671 44.5352 52.0809L34.7225 51.9743C30.5056 51.9743 26.4614 50.2991 23.4797 47.3173C20.4979 44.3356 18.8227 40.2914 18.8227 36.0745C18.8227 31.8576 20.4979 27.8135 23.4797 24.8317C26.4614 21.8499 30.5056 20.1748 34.7225 20.1748L72.2845 20.1664L72.2695 8.34399H34.73C31.0855 8.34399 27.4766 9.06184 24.1095 10.4565C20.7424 11.8512 17.683 13.8955 15.1059 16.4725C12.5289 19.0496 10.4846 22.109 9.08992 25.4761C7.69522 28.8432 6.97738 32.4521 6.97738 36.0966C6.97738 39.7411 7.69522 43.35 9.08992 46.7171C10.4846 50.0842 12.5289 53.1436 15.1059 55.7206C17.683 58.2977 20.7424 60.342 24.1095 61.7367C27.4766 63.1314 31.0855 63.8492 34.73 63.8492L44.4436 63.8642C44.6244 63.8597 44.8042 63.8915 44.9726 63.9575C45.1409 64.0236 45.2943 64.1227 45.4238 64.249C45.5532 64.3753 45.6561 64.5262 45.7264 64.6929C45.7966 64.8595 45.8328 65.0386 45.8328 65.2194C45.8328 65.4003 45.7966 65.5793 45.7264 65.7459C45.6561 65.9126 45.5532 66.0635 45.4238 66.1898C45.2943 66.3161 45.1409 66.4152 44.9726 66.4813C44.8042 66.5474 44.6244 66.5791 44.4436 66.5746L6.88989 66.6046L6.90489 78.3437" fill="#0060A8"/>
<path d="M101.509 81.1841C99.9509 81.1919 98.4065 80.8912 96.9649 80.2994C95.5233 79.7076 94.2131 78.8363 93.1097 77.7358C92.0064 76.6352 91.1318 75.3272 90.5364 73.8872C89.9409 72.4471 89.6363 70.9034 89.6402 69.345V31.7772C89.6832 28.6637 90.9548 25.6934 93.1779 23.5132C95.401 21.333 98.3955 20.1196 101.509 20.1372L141.652 20.1439V8.34478H101.509C98.4094 8.33842 95.3387 8.94292 92.4725 10.1237C89.6063 11.3045 87.0009 13.0385 84.8051 15.2266C82.6093 17.4146 80.8661 20.0139 79.6752 22.8759C78.4843 25.7379 77.869 28.8065 77.8644 31.9063V69.3458C77.8683 72.4468 78.4831 75.5165 79.6735 78.3798C80.864 81.2431 82.6068 83.8439 84.8025 86.0335C86.9982 88.2232 89.6038 89.9589 92.4703 91.1415C95.3369 92.324 98.4083 92.9303 101.509 92.9257L141.484 92.9416L141.476 81.1716L101.509 81.1858" fill="#0060A8"/>
<path d="M92.5181 31.9062C92.5149 30.7235 92.7451 29.5518 93.1956 28.4583C93.6461 27.3648 94.3079 26.371 95.1431 25.5337C95.9784 24.6964 96.9707 24.0322 98.0631 23.5791C99.1555 23.126 100.327 22.893 101.509 22.8933H141.652V34.7082H107.068C106.701 34.6995 106.337 34.7641 105.996 34.8984C105.655 35.0328 105.345 35.234 105.083 35.4903C104.821 35.7466 104.613 36.0528 104.472 36.3907C104.33 36.7286 104.258 37.0915 104.259 37.4578H133.112V49.2186H92.5048L92.5181 31.907" fill="#0060A8"/>
<path d="M101.509 78.3229C100.328 78.3252 99.1587 78.0948 98.0669 77.6449C96.975 77.1949 95.9826 76.5342 95.1462 75.7005C94.3098 74.8669 93.6459 73.8766 93.1924 72.7862C92.7389 71.6959 92.5047 70.5268 92.5032 69.3459V52.0151H133.11V63.8051H104.257C104.256 64.1732 104.328 64.5379 104.469 64.878C104.61 65.2181 104.817 65.5267 105.078 65.7859C105.34 66.0451 105.65 66.2497 105.991 66.3877C106.333 66.5256 106.698 66.5943 107.066 66.5897H141.479L141.472 78.3063L101.509 78.3229Z" fill="#0060A8"/>
<path d="M169.782 81.1558C166.651 81.1514 163.649 79.906 161.434 77.6924C159.22 75.4789 157.973 72.4778 157.967 69.3467V31.9055C157.966 30.3585 158.271 28.8266 158.863 27.3975C159.456 25.9684 160.324 24.6701 161.418 23.5769C162.513 22.4837 163.812 21.617 165.242 21.0265C166.672 20.436 168.204 20.1332 169.751 20.1355H208.63V8.34477H169.661C166.562 8.33907 163.491 8.94406 160.626 10.1252C157.76 11.3063 155.156 13.0404 152.96 15.2284C150.765 17.4164 149.023 20.0155 147.832 22.8771C146.642 25.7388 146.026 28.8069 146.022 31.9063V69.3458C146.05 75.6168 148.564 81.6206 153.012 86.0408C157.46 90.4611 163.48 92.937 169.751 92.9257L208.63 92.9415V37.4563H175.219V49.2188H196.824V81.1558H169.782Z" fill="#0060A8"/>
<path d="M160.737 69.3451C160.734 71.7396 161.682 74.0373 163.372 75.7334C165.062 77.4295 167.357 78.3852 169.751 78.3905H194.036V52.0043H175.247V63.8051H182.223L182.246 66.5755H175.304C174.572 66.5698 173.872 66.2756 173.356 65.7569C172.84 65.2381 172.55 64.5367 172.548 63.8051L172.486 37.449C172.48 37.0805 172.549 36.7148 172.687 36.3731C172.825 36.0314 173.03 35.7207 173.289 35.4592C173.549 35.1976 173.858 34.9905 174.198 34.8498C174.539 34.7092 174.904 34.6379 175.273 34.6402H208.647L208.632 22.8853L169.753 22.8936C168.569 22.8935 167.397 23.1265 166.303 23.5794C165.21 24.0323 164.216 24.6962 163.379 25.5331C162.542 26.37 161.878 27.3636 161.425 28.4572C160.972 29.5507 160.739 30.7228 160.739 31.9064V69.3451" fill="#0060A8"/>
<path d="M245.164 22.7177C245.427 21.964 245.917 21.3107 246.568 20.8484C247.219 20.3861 247.997 20.1377 248.795 20.1377C249.593 20.1377 250.372 20.3861 251.023 20.8484C251.673 21.3107 252.164 21.964 252.426 22.7177L271.3 78.4737H243.664L243.694 65.3573H252.929L248.772 53.0016L235.229 92.9299H221.301L245.164 22.7177Z" fill="#0060A8"/>
<path d="M275.105 81.1558H243.71V92.9316H291.487L266.639 19.4149C264.461 12.2426 257.284 6.96753 248.787 6.96753C240.276 6.96753 233.122 12.2168 230.927 19.3824L205.847 92.9291H218.355L242.702 21.4396C243.204 20.2468 244.046 19.2285 245.124 18.512C246.202 17.7954 247.467 17.4124 248.761 17.4108C250.055 17.4092 251.321 17.7891 252.4 18.503C253.479 19.2169 254.324 20.2331 254.829 21.4246L275.105 81.1558Z" fill="#0060A8"/>
<path d="M282.482 17.7008C284.41 17.7043 286.279 17.0386 287.771 15.8175C289.263 14.5964 290.285 12.8955 290.663 11.005C291.04 9.11448 290.75 7.1515 289.842 5.45095C288.934 3.7504 287.464 2.41766 285.683 1.68011C283.901 0.942564 281.919 0.845905 280.075 1.40663C278.23 1.96735 276.638 3.15071 275.568 4.75481C274.499 6.35892 274.019 8.28437 274.211 10.2027C274.403 12.121 275.255 13.9132 276.62 15.2737C278.176 16.8269 280.284 17.6998 282.482 17.7008V17.7008ZM275.343 9.3954C275.339 8.45843 275.522 7.53002 275.881 6.66466C276.24 5.79931 276.769 5.01444 277.435 4.35614C278.432 3.35913 279.703 2.68016 281.085 2.40509C282.468 2.13002 283.902 2.27119 285.204 2.81077C286.507 3.35034 287.62 4.26408 288.404 5.43643C289.187 6.60878 289.605 7.98709 289.605 9.39706C289.605 10.807 289.187 12.1853 288.404 13.3577C287.62 14.5301 286.507 15.4438 285.204 15.9834C283.902 16.5229 282.468 16.6641 281.085 16.389C279.703 16.114 278.432 15.435 277.435 14.438C276.768 13.7798 276.238 12.9945 275.879 12.1284C275.52 11.2623 275.337 10.333 275.343 9.3954V9.3954Z" fill="white"/>
<path d="M280.351 10.0961V14.0122H279.147V4.81274H282.564C283.852 4.82774 284.605 4.82774 285.321 5.36766C285.645 5.61675 285.904 5.94096 286.076 6.31238C286.247 6.68381 286.326 7.09132 286.305 7.49985C286.339 8.12288 286.13 8.73484 285.72 9.20544C285.31 9.67605 284.733 9.96812 284.111 10.0195L286.7 14.0081H285.246L282.726 10.092H280.351V10.0961ZM280.351 9.07962H282.792C283.168 9.09553 283.544 9.06474 283.912 8.98797C284.254 8.92693 284.561 8.74164 284.775 8.46772C284.988 8.19379 285.093 7.85056 285.069 7.50402C285.081 7.26203 285.037 7.02055 284.942 6.79773C284.847 6.57491 284.703 6.37655 284.52 6.21754C283.988 5.87767 283.351 5.74128 282.726 5.83343H280.351V9.08295V9.07962Z" fill="white"/>
</svg>
