<svg width="364" height="134" viewBox="0 0 364 134" fill="none" xmlns="http://www.w3.org/2000/svg">
<path d="M248.798 0.00281073C253.73 -0.0701129 258.58 1.27733 262.768 3.88443C266.956 6.49153 270.306 10.2482 272.417 14.7065L272.678 15.2898L301.04 99.9143L169.696 99.8993C161.985 99.9056 154.556 96.9985 148.898 91.7604L148.314 91.213V99.8909L101.419 99.8993C95.8333 99.9035 90.3533 98.3785 85.5731 95.4895C80.7928 92.6005 76.8948 88.4578 74.3018 83.5108L73.9835 82.885L73.8544 83.2575C69.6233 92.1379 57.6067 99.5793 45.3276 99.8818L44.5911 99.8909L0 99.8993V59.6726L9.9794 59.6884C5.23644 54.8976 2.0157 48.8115 0.722124 42.1953C-0.571455 35.5791 0.119866 28.7282 2.70917 22.5038C5.29847 16.2794 9.67017 10.9595 15.2746 7.21286C20.8791 3.46621 27.4661 1.46011 34.2076 1.44677L34.8966 1.44094L79.1603 1.40261V11.0329C84.7536 5.13182 92.4566 1.68654 100.584 1.45094L101.428 1.43927H148.395L148.379 9.98887C153.843 4.65845 161.123 1.59632 168.753 1.41927L169.608 1.40761L215.476 1.43094L215.513 43.0283L224.968 15.4573C226.982 10.8253 230.317 6.88939 234.555 4.14093C238.793 1.39247 243.747 -0.0467979 248.798 0.00281073V0.00281073ZM72.2846 22.9162H34.7225L34.2292 22.9253C30.8277 23.0465 27.606 24.483 25.2425 26.9322C22.879 29.3815 21.5581 32.6523 21.5581 36.056C21.5581 39.4596 22.879 42.7305 25.2425 45.1797C27.606 47.6289 30.8277 49.0654 34.2292 49.1866L45.061 49.3332C49.1939 49.453 53.1174 51.1789 55.9984 54.1446C58.8794 57.1103 60.491 61.0821 60.491 65.2168C60.491 69.3514 58.8794 73.3232 55.9984 76.2889C53.1174 79.2546 49.1939 80.9806 45.061 81.1003L44.5344 81.1086H6.90484L6.88984 93.0136L44.4969 92.9753L45.1635 92.9678C52.4263 92.8189 59.3415 89.8292 64.4252 84.6401C69.509 79.4511 72.3563 72.4761 72.3563 65.2118C72.3563 57.9474 69.509 50.9724 64.4252 45.7834C59.3415 40.5944 52.4263 37.6047 45.1635 37.4558L44.4969 37.4483L34.73 37.5016L34.5242 37.4866C34.1926 37.4339 33.8907 37.2646 33.6728 37.0093C33.4548 36.7539 33.3351 36.4292 33.3351 36.0934C33.3351 35.7577 33.4548 35.433 33.6728 35.1776C33.8907 34.9223 34.1926 34.753 34.5242 34.7003L34.73 34.6853L72.2696 34.6936L72.2846 22.9162ZM141.652 8.34494H101.51L100.88 8.35328C94.8384 8.50218 89.0844 10.9632 84.804 15.2289C80.5235 19.4947 78.0427 25.2401 77.873 31.2808L77.8646 31.909V69.3478L77.873 69.9761C78.0423 76.0182 80.5226 81.7653 84.8028 86.0334C89.0829 90.3015 94.837 92.7655 100.88 92.9178L101.51 92.9261L141.485 92.9419L141.476 81.172L101.51 81.1861L101.035 81.177C98.0575 81.0724 95.23 79.8461 93.1192 77.744C91.0084 75.6419 89.7705 72.8194 89.6538 69.8428L89.6438 69.347V31.7791L89.6538 31.3141C89.8127 28.3692 91.0679 25.5904 93.1723 23.5242C95.2768 21.458 98.0781 20.254 101.025 20.1491L101.513 20.1391L141.655 20.1457L141.652 8.34494ZM248.788 6.96931L248.167 6.97847C240.142 7.2201 233.419 12.1344 231.101 18.8518L230.928 19.3859L208.631 84.7756V37.4583H175.219V49.2207H196.824V81.1578H169.782L169.309 81.1486C166.347 81.0245 163.539 79.7933 161.44 77.6984C159.342 75.6035 158.106 72.7975 157.977 69.8353L157.967 69.3487V31.9074L157.977 31.4333C158.095 28.4774 159.322 25.6744 161.414 23.5829C163.506 21.4913 166.31 20.2647 169.266 20.1474L169.751 20.1374H208.631V8.34661H169.661L169.032 8.35494C162.991 8.50489 157.239 10.9662 152.96 15.2315C148.68 19.4968 146.2 25.2412 146.031 31.2808L146.022 31.909V69.3478L146.031 69.9761C146.22 76.0262 148.718 81.7743 153.012 86.0406C157.306 90.3069 163.07 92.7677 169.122 92.9178L169.751 92.9261L208.631 92.9419V92.9311H218.359L242.706 21.4414L242.873 21.0739C243.415 19.9743 244.255 19.0483 245.296 18.4003C246.337 17.7524 247.538 17.4084 248.764 17.4071C249.991 17.4058 251.193 17.7472 252.235 18.393C253.278 19.0387 254.119 19.963 254.664 21.0614L254.831 21.4272L275.105 81.1578H243.711V92.9336H291.488L266.64 19.4167L266.473 18.8951C264.174 12.1686 257.437 7.2301 249.424 6.98014L248.788 6.96931ZM248.795 20.1399C248.051 20.14 247.323 20.356 246.699 20.7617C246.076 21.1674 245.583 21.7453 245.281 22.4254L245.165 22.7195L221.301 92.9319H235.233L243.687 67.993L243.664 78.479H271.3L252.427 22.7195C252.166 21.9651 251.676 21.3111 251.025 20.8486C250.375 20.3861 249.596 20.1384 248.798 20.1399H248.795ZM208.629 22.8895L169.75 22.8978L169.3 22.9087C167.068 23.0203 164.957 23.9572 163.376 25.5374C161.796 27.1177 160.859 29.2287 160.747 31.4608L160.736 31.9107V69.3495L160.748 69.8003C160.857 72.036 161.792 74.1517 163.372 75.7373C164.952 77.3229 167.064 78.2655 169.3 78.3824L169.75 78.3932H194.035V52.0062H175.246V63.807H182.224L182.246 66.5774H175.304L175.023 66.5632C174.392 66.4931 173.804 66.2094 173.357 65.7592C172.909 65.3089 172.629 64.7191 172.563 64.0878L172.549 63.807L172.486 37.4508C172.477 36.77 172.719 36.1097 173.166 35.5961C173.613 35.0826 174.233 34.7518 174.909 34.667L175.273 34.642H208.647L208.629 22.8895ZM72.2696 8.34661H34.73L34.0634 8.35411C26.788 8.48019 19.8532 11.4589 14.7527 16.6485C9.65215 21.8382 6.79409 28.8236 6.79409 36.1001C6.79409 43.3766 9.65215 50.362 14.7527 55.5517C19.8532 60.7414 26.788 63.72 34.0634 63.8461L34.73 63.8536L44.4436 63.8686L44.6419 63.8836C44.965 63.9293 45.2607 64.0901 45.4746 64.3364C45.6885 64.5827 45.8063 64.898 45.8063 65.2243C45.8063 65.5505 45.6885 65.8658 45.4746 66.1121C45.2607 66.3584 44.965 66.5192 44.6419 66.5649L44.4436 66.5799L6.88984 66.6099L6.90484 78.349H44.5353L45.0294 78.3399C48.433 78.2248 51.6589 76.7918 54.026 74.3433C56.3931 71.8948 57.7163 68.6224 57.7163 65.2168C57.7163 61.8111 56.3931 58.5387 54.026 56.0902C51.6589 53.6417 48.433 52.2087 45.0294 52.0936L34.1976 51.9695C30.0675 51.8426 26.1491 50.1127 23.2725 47.1465C20.396 44.1802 18.7873 40.2105 18.7873 36.0785C18.7873 31.9464 20.396 27.9767 23.2725 25.0105C26.1491 22.0442 30.0675 20.3143 34.1976 20.1874L34.7233 20.1791L72.2854 20.1707L72.2696 8.34661ZM133.11 52.0212H92.5034V69.352C92.5063 71.6591 93.3964 73.8767 94.9893 75.5457C96.5822 77.2146 98.756 78.207 101.06 78.3174L101.51 78.3282L141.475 78.3124L141.483 66.5957H107.05C106.371 66.6005 105.715 66.3566 105.204 65.9101C104.694 65.4636 104.365 64.8455 104.279 64.1727L104.257 63.812H133.11V52.0212ZM244.58 65.3592L243.687 67.993L243.695 65.3626L244.58 65.3592ZM248.773 53.0035L252.929 65.3592H244.58L248.773 53.0035ZM141.652 22.8953H101.51C99.1988 22.8945 96.9766 23.7838 95.3044 25.3786C93.6322 26.9733 92.6386 29.1509 92.53 31.4591L92.5184 31.909L92.505 49.2207H133.112V37.4583H104.258L104.278 37.2191C104.318 36.5818 104.584 35.9798 105.03 35.5224C105.475 35.0651 106.07 34.7828 106.706 34.727L107.067 34.7103H141.652V22.8953Z" fill="white"/>
<path d="M282.483 17.7028C284.411 17.7062 286.28 17.0406 287.772 15.8195C289.264 14.5984 290.286 12.8975 290.663 11.007C291.041 9.11646 290.751 7.15347 289.843 5.45291C288.935 3.75236 287.464 2.41962 285.683 1.68207C283.902 0.944517 281.92 0.847858 280.076 1.40858C278.231 1.96931 276.638 3.15267 275.569 4.75678C274.5 6.36088 274.02 8.28634 274.212 10.2046C274.404 12.1229 275.255 13.9152 276.621 15.2757C278.177 16.8289 280.285 17.7018 282.483 17.7028V17.7028ZM275.344 9.39737C275.339 8.4604 275.522 7.53199 275.882 6.66663C276.241 5.80127 276.769 5.0164 277.436 4.3581C278.433 3.36109 279.703 2.68212 281.086 2.40705C282.469 2.13197 283.903 2.27315 285.205 2.81272C286.508 3.3523 287.621 4.26604 288.405 5.43839C289.188 6.61074 289.606 7.98906 289.606 9.39904C289.606 10.809 289.188 12.1873 288.405 13.3597C287.621 14.532 286.508 15.4458 285.205 15.9854C283.903 16.5249 282.469 16.6661 281.086 16.391C279.703 16.116 278.433 15.437 277.436 14.44C276.768 13.7818 276.239 12.9964 275.88 12.1304C275.52 11.2643 275.338 10.335 275.344 9.39737V9.39737Z" fill="white"/>
<path d="M280.351 10.0979V14.014H279.148V4.81445H282.564C283.852 4.82945 284.605 4.82945 285.321 5.36937C285.646 5.61846 285.905 5.94267 286.076 6.31409C286.248 6.68552 286.326 7.09303 286.305 7.50157C286.34 8.1246 286.13 8.73656 285.72 9.20716C285.311 9.67777 284.733 9.96984 284.111 10.0212L286.7 14.0098H285.246L282.727 10.0937H280.351V10.0979ZM280.351 9.08134H282.792C283.168 9.09725 283.544 9.06646 283.912 8.98969C284.254 8.92865 284.562 8.74336 284.775 8.46943C284.989 8.19551 285.094 7.85228 285.07 7.50573C285.081 7.26374 285.038 7.02227 284.943 6.79945C284.848 6.57663 284.703 6.37826 284.521 6.21925C283.988 5.87938 283.351 5.74299 282.727 5.83514H280.351V9.08467V9.08134Z" fill="white"/>
<path d="M7.84564 133.357C9.00478 133.356 10.1496 133.101 11.2005 132.612C12.2338 132.156 13.1507 131.472 13.8825 130.611V130.611L11.8843 128.609C11.3939 129.199 10.7848 129.679 10.0966 130.019C9.4215 130.346 8.68032 130.513 7.93024 130.508C7.29728 130.515 6.66925 130.396 6.08251 130.159C5.49576 129.921 4.96196 129.57 4.51198 129.124C4.07868 128.688 3.73634 128.171 3.50483 127.602C3.25663 126.997 3.13165 126.349 3.13722 125.696C3.13046 125.036 3.25189 124.382 3.49476 123.768C3.72147 123.198 4.05743 122.677 4.48378 122.235C4.91134 121.797 5.42272 121.45 5.98745 121.213C6.57595 120.963 7.20934 120.836 7.84866 120.841C8.61968 120.838 9.38076 121.014 10.0714 121.357C10.7853 121.716 11.4105 122.229 11.9014 122.859V122.859L13.9631 120.793C13.2382 119.913 12.3158 119.216 11.271 118.76C10.1971 118.263 9.02861 118.005 7.84564 118.003C6.78903 117.996 5.74151 118.199 4.76377 118.6C3.83744 118.975 2.99164 119.525 2.27208 120.219C1.56185 120.914 0.996943 121.742 0.610288 122.657C0.209463 123.617 0.00222762 124.646 0.000499183 125.685C-0.00122925 126.725 0.202583 127.755 0.600217 128.715C0.982294 129.627 1.54364 130.453 2.25093 131.144C2.97083 131.837 3.81698 132.387 4.74363 132.762C5.72798 133.164 6.78241 133.366 7.84564 133.357V133.357ZM47.7056 133.38C48.7586 133.387 49.8027 133.185 50.7763 132.783C51.6986 132.409 52.5377 131.856 53.2454 131.156C53.953 130.456 54.5152 129.623 54.8996 128.705C55.3021 127.752 55.5094 126.727 55.5094 125.692C55.5094 124.657 55.3021 123.632 54.8996 122.679C54.5153 121.76 53.9531 120.927 53.2454 120.228C52.5378 119.528 51.6986 118.975 50.7763 118.601C48.8132 117.806 46.618 117.806 44.6549 118.601C43.7326 118.975 42.8935 119.528 42.1858 120.228C41.4781 120.927 40.916 121.76 40.5316 122.679C40.1294 123.632 39.9222 124.657 39.9222 125.692C39.9222 126.727 40.1294 127.752 40.5316 128.705C40.916 129.623 41.4782 130.456 42.1859 131.156C42.8935 131.856 43.7326 132.409 44.6549 132.783C45.6223 133.183 46.6598 133.385 47.7066 133.379L47.7056 133.38ZM47.7056 130.547C47.0875 130.553 46.475 130.432 45.9054 130.192C45.3358 129.952 44.8212 129.598 44.393 129.153C43.9707 128.706 43.6387 128.181 43.4151 127.609C42.9381 126.372 42.9381 125.001 43.4151 123.764C43.6406 123.196 43.9725 122.675 44.393 122.231C44.8212 121.786 45.3358 121.432 45.9054 121.192C46.475 120.952 47.0875 120.831 47.7056 120.836C48.3417 120.832 48.972 120.959 49.5567 121.209C50.1151 121.446 50.6195 121.794 51.0392 122.231C51.4598 122.675 51.7917 123.196 52.0172 123.764C52.4939 125.001 52.4939 126.371 52.0172 127.609C51.7936 128.181 51.4615 128.706 51.0392 129.153C50.6194 129.59 50.115 129.938 49.5567 130.175C48.9722 130.425 48.3423 130.551 47.7066 130.546L47.7056 130.547ZM93.9387 133.146V130.421H85.8815V118.238H82.8339V133.144L93.9387 133.146ZM132.391 133.146V130.421H124.333V118.238H121.284V133.144L132.391 133.146ZM171.136 133.146V130.463H162.785V126.927H168.234V124.328H162.785V120.924H171.052V118.241H159.734V133.147L171.136 133.146ZM204.96 133.358C206.119 133.357 207.264 133.102 208.314 132.613C209.348 132.156 210.265 131.472 210.996 130.612V130.612L208.997 128.611C208.507 129.201 207.898 129.681 207.21 130.021C206.535 130.348 205.793 130.515 205.043 130.51C204.41 130.517 203.783 130.398 203.196 130.161C202.609 129.923 202.076 129.572 201.626 129.126C201.193 128.691 200.85 128.173 200.619 127.604C200.37 126.999 200.245 126.351 200.25 125.698C200.244 125.038 200.365 124.384 200.609 123.77C200.835 123.2 201.17 122.679 201.597 122.237C202.024 121.799 202.536 121.451 203.1 121.215C203.689 120.965 204.322 120.838 204.962 120.843C205.735 120.84 206.499 121.018 207.191 121.363C207.905 121.722 208.531 122.235 209.021 122.865V122.865L211.083 120.799C210.358 119.919 209.436 119.222 208.391 118.766C207.317 118.27 206.149 118.012 204.967 118.009C203.91 118.002 202.863 118.205 201.885 118.606C200.958 118.981 200.112 119.53 199.392 120.224C198.682 120.918 198.116 121.747 197.729 122.662C197.329 123.622 197.121 124.651 197.12 125.69C197.118 126.73 197.322 127.76 197.719 128.72C198.101 129.632 198.663 130.458 199.37 131.149C200.09 131.842 200.936 132.392 201.863 132.767C202.846 133.167 203.898 133.367 204.96 133.357V133.358ZM245.304 133.146V120.963H250.246V118.237H237.289V120.963H242.253V133.144L245.304 133.146ZM280.242 133.146V118.24H277.192V133.146H280.242ZM315.37 133.381C316.423 133.388 317.467 133.186 318.441 132.784C319.363 132.41 320.202 131.857 320.91 131.157C321.618 130.457 322.18 129.624 322.564 128.706C322.967 127.753 323.174 126.728 323.174 125.693C323.174 124.658 322.967 123.633 322.564 122.68C322.18 121.761 321.618 120.928 320.91 120.229C320.203 119.529 319.363 118.976 318.441 118.602C316.478 117.807 314.284 117.807 312.321 118.602C311.399 118.976 310.56 119.529 309.853 120.229C309.145 120.929 308.583 121.762 308.198 122.68C307.796 123.633 307.588 124.658 307.588 125.693C307.588 126.728 307.796 127.753 308.198 128.706C308.583 129.624 309.145 130.457 309.853 131.157C310.56 131.856 311.399 132.41 312.321 132.784C313.288 133.183 314.324 133.385 315.37 133.379V133.381ZM315.37 130.548C314.738 130.554 314.111 130.427 313.53 130.176C312.976 129.937 312.475 129.59 312.058 129.154C311.635 128.707 311.302 128.183 311.079 127.61C310.602 126.373 310.602 125.002 311.079 123.765C311.304 123.196 311.637 122.676 312.058 122.232C312.475 121.796 312.976 121.448 313.53 121.21C314.111 120.959 314.738 120.832 315.37 120.837C316.006 120.833 316.636 120.96 317.22 121.21C317.779 121.447 318.284 121.795 318.704 122.232C319.125 122.676 319.456 123.197 319.682 123.765C320.159 125.002 320.159 126.373 319.682 127.61C319.458 128.182 319.126 128.707 318.704 129.154C318.284 129.591 317.779 129.939 317.22 130.176C316.636 130.426 316.006 130.552 315.37 130.546V130.548ZM353.379 133.147V123.176L360.888 133.147H363.58V118.241H360.72V127.888L353.4 118.241H350.497V133.147H353.379Z" fill="white"/>
</svg>
