<svg width="120" height="81" viewBox="0 0 120 81" fill="none" xmlns="http://www.w3.org/2000/svg">
<path fill-rule="evenodd" clip-rule="evenodd" d="M25.8451 2.51168C23.7378 2.59803 21.6678 3.16216 19.7902 4.17136C17.9887 5.13967 16.4182 6.48877 15.1821 8.12188C15.517 8.72955 15.5355 9.49018 15.1721 10.1335C14.108 12.0172 13.5 14.193 13.5 16.5169V38.5169C13.5 45.6966 19.3203 51.5169 26.5 51.5169H93.5C100.68 51.5169 106.5 45.6966 106.5 38.5169V16.5169C106.5 14.1626 105.876 11.9601 104.786 10.0594C104.437 9.45177 104.439 8.73724 104.731 8.15231C103.491 6.50552 101.912 5.14568 100.099 4.17136C98.2862 3.19675 96.2936 2.63724 94.2612 2.52225C93.9018 3.11638 93.2495 3.51689 92.4989 3.51689H27.8388C27.0184 3.51689 26.2955 3.11981 25.8451 2.51168ZM27.8388 1.51689C27.5625 1.51689 27.3434 1.28399 27.3603 1.00825C27.3765 0.744021 27.1754 0.515938 26.9108 0.507705C24.1081 0.4205 21.3271 1.07471 18.8433 2.40971C16.5243 3.65617 14.5439 5.45344 13.0683 7.64091C12.7438 8.12188 12.9112 8.76748 13.4087 9.06598C13.4376 9.08331 13.4473 9.12051 13.4307 9.14983C12.2015 11.3258 11.5 13.8394 11.5 16.5169V38.5169C11.5 46.8012 18.2157 53.5169 26.5 53.5169H93.5C101.784 53.5169 108.5 46.8012 108.5 38.5169V16.5169C108.5 13.8043 107.78 11.2598 106.521 9.06423C106.515 9.05514 106.518 9.04355 106.527 9.03816C106.999 8.75507 107.158 8.14292 106.852 7.68577C105.373 5.47801 103.381 3.66468 101.046 2.40971C98.695 1.14586 96.0771 0.49217 93.4267 0.500071C92.9146 0.501598 92.5254 0.944213 92.5567 1.45539C92.5588 1.48873 92.5323 1.51689 92.4989 1.51689H27.8388Z" fill="white"/>
<path fill-rule="evenodd" clip-rule="evenodd" d="M22 19.5168C24.4853 19.5168 26.5 17.5021 26.5 15.0168C26.5 12.5316 24.4853 10.5168 22 10.5168C19.5147 10.5168 17.5 12.5316 17.5 15.0168C17.5 17.5021 19.5147 19.5168 22 19.5168ZM24.5 15.0168C24.5 16.3976 23.3807 17.5168 22 17.5168C20.6193 17.5168 19.5 16.3976 19.5 15.0168C19.5 13.6361 20.6193 12.5168 22 12.5168C23.3807 12.5168 24.5 13.6361 24.5 15.0168Z" fill="white"/>
<path fill-rule="evenodd" clip-rule="evenodd" d="M98 19.5168C100.485 19.5168 102.5 17.5021 102.5 15.0168C102.5 12.5316 100.485 10.5168 98 10.5168C95.5147 10.5168 93.5 12.5316 93.5 15.0168C93.5 17.5021 95.5147 19.5168 98 19.5168ZM100.5 15.0168C100.5 16.3976 99.3807 17.5168 98 17.5168C96.6193 17.5168 95.5 16.3976 95.5 15.0168C95.5 13.6361 96.6193 12.5168 98 12.5168C99.3807 12.5168 100.5 13.6361 100.5 15.0168Z" fill="white"/>
<path d="M94.3225 25.1334C95.301 25.1334 96.0942 24.3402 96.0942 23.3617C96.0942 22.3832 95.301 21.59 94.3225 21.59C93.344 21.59 92.5508 22.3832 92.5508 23.3617C92.5508 24.3402 93.344 25.1334 94.3225 25.1334Z" fill="white"/>
<path d="M92.5502 26.9051C92.5502 27.8836 91.757 28.6768 90.7785 28.6768C89.8001 28.6768 89.0068 27.8836 89.0068 26.9051C89.0068 25.9266 89.8001 25.1334 90.7785 25.1334C91.757 25.1334 92.5502 25.9266 92.5502 26.9051Z" fill="white"/>
<path d="M97.8659 28.6768C98.8444 28.6768 99.6376 27.8836 99.6376 26.9051C99.6376 25.9266 98.8444 25.1334 97.8659 25.1334C96.8875 25.1334 96.0942 25.9266 96.0942 26.9051C96.0942 27.8836 96.8875 28.6768 97.8659 28.6768Z" fill="white"/>
<path d="M96.0942 30.4485C96.0942 31.427 95.301 32.2202 94.3225 32.2202C93.344 32.2202 92.5508 31.427 92.5508 30.4485C92.5508 29.47 93.344 28.6768 94.3225 28.6768C95.301 28.6768 96.0942 29.47 96.0942 30.4485Z" fill="white"/>
<path d="M24.2923 23.4619C24.2923 23.0359 24.6377 22.6905 25.0637 22.6905H26.0519C26.4779 22.6905 26.8233 23.0359 26.8233 23.4619V25.8542H29.2165C29.6425 25.8542 29.9879 26.1996 29.9879 26.6257V27.6138C29.9879 28.0399 29.6425 28.3852 29.2165 28.3852H26.8233V30.7776C26.8233 31.2036 26.4779 31.549 26.0519 31.549H25.0637C24.6377 31.549 24.2923 31.2036 24.2923 30.7776V28.3852H21.9008C21.4748 28.3852 21.1294 28.0398 21.1294 27.6138V26.6257C21.1294 26.1996 21.4748 25.8542 21.9008 25.8542H24.2923V23.4619Z" fill="white"/>
<path fill-rule="evenodd" clip-rule="evenodd" d="M33.5 12.5168H85.5V42.5168H33.5V12.5168ZM35.5 14.5168H83.5V40.5168H35.5V14.5168Z" fill="white"/>
<path d="M59.5 6.51685C60.0523 6.51685 60.5 6.96456 60.5 7.51685C60.5 8.06913 60.0523 8.51685 59.5 8.51685C58.9477 8.51685 58.5 8.06913 58.5 7.51685C58.5 6.96456 58.9477 6.51685 59.5 6.51685Z" fill="white"/>
<path fill-rule="evenodd" clip-rule="evenodd" d="M45.5 5.51685C44.3954 5.51685 43.5 6.41228 43.5 7.51685C43.5 8.62142 44.3954 9.51685 45.5 9.51685H73.5C74.6046 9.51685 75.5 8.62142 75.5 7.51685C75.5 6.41228 74.6046 5.51685 73.5 5.51685H45.5ZM59.5 6.51685H45.5C44.9477 6.51685 44.5 6.96456 44.5 7.51685C44.5 8.06913 44.9477 8.51685 45.5 8.51685H59.5H73.5C74.0523 8.51685 74.5 8.06913 74.5 7.51685C74.5 6.96456 74.0523 6.51685 73.5 6.51685H59.5Z" fill="white"/>
<path fill-rule="evenodd" clip-rule="evenodd" d="M59.5 48.5168C60.6046 48.5168 61.5 47.6214 61.5 46.5168C61.5 45.4123 60.6046 44.5168 59.5 44.5168C58.3954 44.5168 57.5 45.4123 57.5 46.5168C57.5 47.6214 58.3954 48.5168 59.5 48.5168ZM59.5 47.5168C60.0523 47.5168 60.5 47.0691 60.5 46.5168C60.5 45.9646 60.0523 45.5168 59.5 45.5168C58.9477 45.5168 58.5 45.9646 58.5 46.5168C58.5 47.0691 58.9477 47.5168 59.5 47.5168Z" fill="white"/>
<path fill-rule="evenodd" clip-rule="evenodd" d="M85.5 47.0168C85.5 47.8453 84.8284 48.5168 84 48.5168C83.1716 48.5168 82.5 47.8453 82.5 47.0168C82.5 46.1884 83.1716 45.5168 84 45.5168C84.8284 45.5168 85.5 46.1884 85.5 47.0168ZM84.5 47.0168C84.5 47.293 84.2761 47.5168 84 47.5168C83.7239 47.5168 83.5 47.293 83.5 47.0168C83.5 46.7407 83.7239 46.5168 84 46.5168C84.2761 46.5168 84.5 46.7407 84.5 47.0168Z" fill="white"/>
<path fill-rule="evenodd" clip-rule="evenodd" d="M90 41.5168C90.8284 41.5168 91.5 40.8453 91.5 40.0168C91.5 39.1884 90.8284 38.5168 90 38.5168C89.1716 38.5168 88.5 39.1884 88.5 40.0168C88.5 40.8453 89.1716 41.5168 90 41.5168ZM90 40.5168C90.2761 40.5168 90.5 40.293 90.5 40.0168C90.5 39.7407 90.2761 39.5168 90 39.5168C89.7239 39.5168 89.5 39.7407 89.5 40.0168C89.5 40.293 89.7239 40.5168 90 40.5168Z" fill="white"/>
<path fill-rule="evenodd" clip-rule="evenodd" d="M91.5 36.0168C91.5 36.8453 90.8284 37.5168 90 37.5168C89.1716 37.5168 88.5 36.8453 88.5 36.0168C88.5 35.1884 89.1716 34.5168 90 34.5168C90.8284 34.5168 91.5 35.1884 91.5 36.0168ZM90.5 36.0168C90.5 36.293 90.2761 36.5168 90 36.5168C89.7239 36.5168 89.5 36.293 89.5 36.0168C89.5 35.7407 89.7239 35.5168 90 35.5168C90.2761 35.5168 90.5 35.7407 90.5 36.0168Z" fill="white"/>
<path fill-rule="evenodd" clip-rule="evenodd" d="M80 48.5168C80.8284 48.5168 81.5 47.8453 81.5 47.0168C81.5 46.1884 80.8284 45.5168 80 45.5168C79.1716 45.5168 78.5 46.1884 78.5 47.0168C78.5 47.8453 79.1716 48.5168 80 48.5168ZM80 47.5168C80.2761 47.5168 80.5 47.293 80.5 47.0168C80.5 46.7407 80.2761 46.5168 80 46.5168C79.7239 46.5168 79.5 46.7407 79.5 47.0168C79.5 47.293 79.7239 47.5168 80 47.5168Z" fill="white"/>
<path fill-rule="evenodd" clip-rule="evenodd" d="M23.5 36.5168C23.5 35.9646 23.9477 35.5168 24.5 35.5168H27.5C28.0523 35.5168 28.5 35.9646 28.5 36.5168V38.5168C28.5 39.0691 28.0523 39.5168 27.5 39.5168H24.5C23.9477 39.5168 23.5 39.0691 23.5 38.5168V36.5168ZM24.5 36.5168H27.5V38.5168H24.5V36.5168Z" fill="white"/>
</svg>
