<svg width="621" height="263" viewBox="0 0 621 263" fill="none" xmlns="http://www.w3.org/2000/svg">
<path fill-rule="evenodd" clip-rule="evenodd" d="M0 30.2118C0 46.706 12.8266 60.3097 32.0227 60.3162H212.812C232.008 60.3097 244.834 46.706 244.834 30.2118C244.834 13.7176 231.978 -0.042175 212.841 9.71414e-05H31.9934C12.8559 -0.0421703 0 13.7176 0 30.2118ZM7.55617 30.1728C7.55617 17.6062 16.8843 7.44898 32.0812 7.41971L212.756 7.42296C227.953 7.45223 237.281 17.6095 237.281 30.1728C237.281 42.736 228.008 52.9746 212.753 52.9226H32.0812C16.8258 52.9778 7.55617 42.736 7.55617 30.1728ZM222.471 18.0257C223.853 18.0257 224.539 18.4939 224.539 19.4205C224.539 20.0578 224.143 20.539 223.483 20.7048L224.565 22.8669H223.255L222.328 20.8836H221.753V22.8669H220.573V18.0257H222.471ZM217.994 20.5032C217.994 18.0907 219.952 16.1334 222.364 16.1334C224.777 16.1334 226.734 18.0907 226.734 20.5032C226.734 22.9157 224.777 24.873 222.364 24.873C219.952 24.873 217.994 22.9157 217.994 20.5032ZM225.898 20.5065C225.898 22.4573 224.315 24.0407 222.364 24.0407C220.413 24.0407 218.83 22.4573 218.83 20.5065C218.83 18.5556 220.413 16.9722 222.364 16.9722C224.315 16.9722 225.898 18.5524 225.898 20.5065ZM222.328 20.1748H221.753V18.767H222.27C222.979 18.767 223.327 18.9848 223.327 19.4888C223.327 19.97 223.001 20.1748 222.328 20.1748ZM122.989 32.0065C122.976 30.3516 123.012 29.2461 123.555 28.3032C124.221 27.1398 125.446 26.5871 126.558 26.58C127.669 26.5871 128.894 27.1398 129.56 28.3032C130.103 29.2494 130.126 30.3548 130.113 32.0098L122.989 32.0065ZM126.558 26.58L126.556 26.58H126.559L126.558 26.58ZM130.09 38.8442C130.09 37.7842 130.084 37.6997 130.084 37.6997L138.589 37.6931C137.104 42.1507 132.236 45.4378 126.475 45.4378C119.53 45.4378 113.902 40.6941 113.902 34.8384C113.902 28.9827 119.53 24.2357 126.475 24.2357C133.42 24.2357 139.074 29.0867 139.074 34.9424C139.074 34.9523 122.989 34.9458 122.989 34.9458C122.989 34.9458 122.983 37.8102 122.983 38.8442C122.983 42.2971 125.295 43.0644 126.556 43.0644C127.818 43.0644 130.09 42.2971 130.09 38.8442ZM156.95 24.5512C160.143 24.4601 166.619 26.5507 166.574 34.0256C166.567 35.3522 166.571 44.2999 166.571 44.2999H158.088V31.8992C158.088 30.254 156.514 28.4235 154.186 28.4235C151.861 28.4235 150.132 30.254 150.132 31.8992C150.132 32.7056 150.141 44.2999 150.141 44.2999H141.665L141.672 25.4193L150.145 25.4128C150.145 25.4128 150.135 26.9311 150.145 27.3993C151.777 25.8419 154.131 24.6324 156.95 24.5512ZM97.1833 34.0256C97.2288 26.5507 90.7521 24.4601 87.5593 24.5512L87.5591 24.5511C84.7369 24.6324 82.3862 25.8419 80.754 27.3993C80.7442 26.9311 80.754 25.4128 80.754 25.4128L72.2712 25.4193L72.2745 44.2999H80.7508C80.7508 44.2999 80.7411 32.7056 80.7411 31.8992C80.7411 30.254 82.4708 28.4235 84.7955 28.4235C87.1235 28.4235 88.6971 30.254 88.6971 31.8992V44.2999H97.18C97.18 44.2999 97.1768 35.3522 97.1833 34.0256ZM184.977 15.9123H193.404V44.3065H184.964C184.964 44.3065 184.96 43.3896 184.96 43.214C181.693 45.2656 178.006 45.2624 175.135 43.9228C174.364 43.5651 169.295 41.1331 169.295 34.5621C169.295 29.5778 173.997 24.135 180.152 24.6747C182.177 24.8535 183.618 25.5916 184.983 26.3589C184.977 21.9891 184.977 15.9123 184.977 15.9123ZM185.038 31.3953V34.7702L185.039 34.9795L185.039 34.9994C185.04 35.583 185.042 37.1474 185.042 38.1191C185.042 41.0356 183.023 41.7997 181.693 41.7997C180.337 41.7997 178.347 41.0356 178.347 38.1191C178.347 37.1144 178.35 34.7604 178.35 34.7604C178.35 34.7604 178.347 32.3642 178.347 31.3953C178.347 28.4756 180.337 27.731 181.696 27.731C183.023 27.731 185.038 28.4756 185.038 31.3953ZM212.093 34.7149C212.093 34.7149 212.09 37.5696 212.09 38.7141C212.09 41.7249 210.311 42.9669 208.601 42.9669C206.888 42.9669 205.103 41.7249 205.103 38.7141C205.103 37.5696 205.106 34.6434 205.106 34.6434C205.106 34.6434 205.112 31.8505 205.112 30.706C205.112 27.7082 206.901 26.476 208.601 26.476C210.305 26.476 212.09 27.7082 212.09 30.706L212.09 31.4337C212.089 32.5937 212.088 34.1086 212.096 34.7247L212.093 34.7149ZM196.184 34.7377C196.184 28.882 201.77 24.135 208.663 24.135C215.556 24.135 221.142 28.882 221.142 34.7377C221.142 40.5934 215.556 45.3404 208.663 45.3404C201.773 45.3404 196.184 40.5934 196.184 34.7377ZM59.0123 21.7095V15.9058H67.5699V21.7095H59.0123ZM59.0318 25.4225V44.3065L67.5699 44.3065V25.4259L59.0318 25.4225ZM101.869 44.3065L101.872 25.4615H97.2289V22.6589L101.875 22.6555L101.869 18.8319H110.413V22.6523H115.037V25.4614H110.413L110.42 44.3064L101.869 44.3065ZM24.2877 15.9123L24.2845 44.3065H33.0761V24.5056L45.3793 44.3065H54.145V15.9123H45.3663L45.3728 35.7131L33.1347 15.9123H24.2877Z" fill="white"/>
<path d="M169.059 218.863C169.059 218.863 145.313 128.007 141.699 115.102C137.828 102.196 129.827 96.5177 118.728 96.5177C107.63 96.5177 99.6284 102.196 95.7569 115.102C91.8853 128.007 68.3978 218.863 68.3978 218.863L37.4252 97.5501H0C0 97.5501 35.8766 226.864 40.5224 241.835C44.394 253.45 53.1696 263 66.591 263C81.8192 263 88.788 251.901 92.1434 241.835C95.4987 231.768 118.47 146.333 118.47 146.333C118.47 146.333 141.699 231.768 144.797 241.835C148.152 251.901 155.121 263 170.349 263C183.512 263 192.546 253.45 196.418 241.835C201.322 226.864 236.94 97.5501 236.94 97.5501H200.031L169.059 218.863ZM327.535 261.968H362.895V147.882H327.535V261.968ZM344.828 88C333.471 88 324.18 97.0339 324.18 107.875C324.18 118.973 333.471 127.749 344.828 127.749C356.701 127.749 365.993 118.973 365.993 107.875C365.993 96.7758 356.701 88 344.828 88ZM256.04 261.968H291.4V147.882H256.04V261.968ZM273.333 88C261.976 88 252.685 97.0339 252.685 107.875C252.685 118.973 261.976 127.749 273.333 127.749C285.206 127.749 294.497 118.973 294.497 107.875C294.497 96.7758 284.948 88 273.333 88Z" fill="white"/>
<path d="M539.181 88H559.055C573.509 88 582.285 96.7758 581.51 110.972V186.083C581.51 207.764 570.154 219.121 548.473 219.121H439.811C418.13 219.121 406.773 207.764 406.773 186.083V111.23C406.773 96.7758 415.549 88 430.003 88H449.877V149.431C449.877 179.114 466.912 195.117 494.529 195.117C522.146 195.117 539.181 179.114 539.181 149.431V88Z" fill="white"/>
<path d="M517.758 148.914C517.758 164.917 507.692 175.242 494.529 175.242C481.366 175.242 471.558 164.917 471.558 148.914V88H517.758V148.914Z" fill="white"/>
<path d="M613.257 100.389L617.129 88H621.001V103.487H618.678V90.5811L614.806 103.229H612.225L608.353 90.5811V103.487H606.03V88H609.644L613.257 100.389Z" fill="white"/>
<path d="M604.224 88H592.093V90.323H596.997V103.487H599.578V90.323H604.224V88Z" fill="white"/>
</svg>
