<svg width="485" height="233" viewBox="0 0 485 233" fill="none" xmlns="http://www.w3.org/2000/svg">
<path d="M454.118 226.599H454.838C455.684 226.599 456.075 226.359 456.075 225.74C456.075 225.096 455.646 224.831 454.762 224.831H454.118V226.599ZM459.308 227.015C459.308 229.44 457.326 231.422 454.889 231.422C452.451 231.422 450.456 229.44 450.456 227.015C450.456 224.566 452.451 222.583 454.889 222.583C457.326 222.583 459.308 224.578 459.308 227.015ZM454.876 221.535C451.845 221.535 449.408 223.985 449.408 227.015C449.408 230.021 451.845 232.483 454.876 232.483C457.894 232.483 460.356 230.033 460.356 227.015C460.356 223.985 457.906 221.535 454.876 221.535ZM455.027 223.909C456.732 223.909 457.616 224.503 457.616 225.652C457.616 226.447 457.111 227.041 456.278 227.255L457.641 229.958H456.012L454.851 227.483H454.131V229.958H452.653V223.896H455.027V223.909Z" fill="white"/>
<path d="M104.375 190.686L101.307 174.826L94.2227 190.673H104.375M215.572 230.942H198.803L196.568 180.42L174.76 230.942H163.572L154.241 185.268L139.707 230.942H111.181L106.888 206.52H87.5049L76.5064 230.942H58.9922L94.9677 149.293H115.664L126.663 215.284L148.104 149.293H164.696L172.892 194.032L191.908 149.293H212.037L215.572 230.942Z" fill="white"/>
<path d="M263.671 230.942L266.475 213.428H237.204L239.528 198.881H264.985L267.775 181.354H242.053L244.288 166.82H273.559L276.349 149.293H229.931L216.887 230.942H263.671Z" fill="white"/>
<path d="M481.594 149.293H462.022L445.43 175.949L434.987 149.293H415.793L435.555 192.352L429.468 230.942H446.238L451.39 196.835L481.594 149.293Z" fill="white"/>
<path d="M381.978 215.398C390.855 219.376 401.714 211.585 406.235 197.998C410.755 184.411 407.245 170.179 398.368 166.214C389.491 162.249 378.631 170.041 374.111 183.615C369.577 197.202 373.113 211.433 381.978 215.398ZM356.584 183.097C361.786 160.532 381.081 145.708 399.681 150.014C418.269 154.307 429.116 176.089 423.913 198.654C418.698 221.232 399.403 236.044 380.816 231.751C362.228 227.445 351.381 205.675 356.584 183.097Z" fill="white"/>
<path d="M23.1942 156.565C7.22048 166.453 -0.469617 181.542 1.57602 202.049C3.94998 225.839 34.7609 240.828 60.8491 225.726C63.1347 224.4 62.2381 224.614 63.0842 223.857L68.2993 190.685H37.1853L34.7988 205.964H47.805L46.315 214.172C38.8648 217.164 26.1869 216.04 20.7697 206.343C17.3477 200.206 14.1782 186.505 28.5987 173.903C40.3422 163.649 60.6597 161.793 72.4032 167.198C72.4032 167.198 73.8932 158.611 75.0171 150.593C52.4645 142.776 34.9377 149.292 23.1942 156.565Z" fill="white"/>
<path d="M301.881 149.759L288.926 230.789C288.926 230.789 315.746 230.789 326.669 230.789C342.213 230.789 364.93 207.883 344.246 189.156C365.524 167.147 344.436 149.936 333.147 149.759C324.081 149.607 301.692 149.759 301.692 149.759H301.881ZM311.137 198.778C311.137 198.778 314.648 198.778 325.192 198.778C338.514 198.778 338.147 215.055 323.348 215.055C314.092 215.055 308.549 215.055 308.549 215.055L311.137 198.778ZM316.315 166.957C316.315 166.957 316.681 166.957 327.225 166.957C339.069 166.957 336.657 182.135 325.368 182.135C316.113 182.135 313.713 182.135 313.713 182.135L316.315 166.957Z" fill="white"/>
<path d="M189.208 154.169C188.956 151.467 191.595 149.446 193.274 147.363C202.227 136.213 211.395 125.303 220.878 114.645C221.522 113.913 220.676 112.827 219.804 113.269C210.018 118.345 200.282 123.825 190.092 128.169C184.814 130.303 179.131 134.091 173.891 129.987C173.841 129.95 173.79 129.899 173.74 129.849C169.913 125.757 170.987 122.891 172.906 119.128C173.31 118.345 172.452 117.524 171.681 117.954C159.294 125.088 146.553 131.755 133.18 137.046C131.122 137.867 128.963 138.119 126.879 137.551C125.49 137.172 124.316 136.251 123.495 135.064C121.614 132.298 119.404 129.369 121.412 126.098C127.902 114.62 138.863 106.412 148.649 97.8507C152.69 94.4792 156.907 91.2971 160.998 88.0013C161.769 87.3826 162.148 87.5215 162.653 88.2918C163.915 90.1732 165.229 92.0168 166.529 93.8731C166.807 94.2645 166.719 94.8075 166.327 95.0853C157.362 101.639 148.851 108.837 140.441 116.085C136.842 119.418 133.142 122.84 129.935 126.528C128.66 129.987 132.599 127.967 134.178 127.411C156.92 118.875 177.49 105.44 196.557 90.5521C197.568 90.0596 198.704 87.7867 199.739 89.2893C200.851 90.9435 202.012 92.5724 203.161 94.2014C203.717 94.9843 203.603 96.0576 202.896 96.7142C194.651 104.442 186.733 112.928 180.457 122.335C179.422 125.189 185.433 122.588 185.9 122.323C205.106 112.397 222.57 99.4165 241.89 89.7439C243.834 88.7969 244.428 89.0368 245.741 90.792C246.65 91.9916 247.509 93.2164 248.38 94.4413C248.948 95.2368 248.873 96.3228 248.191 97.0173C243.569 101.841 239.036 106.766 234.578 111.741C233.909 112.498 234.818 113.61 235.69 113.079C249.82 104.493 264.935 97.4845 281.249 94.1761C284.987 93.3048 288.535 96.2218 289.647 99.4291C291.831 105.793 286.111 109.897 281.805 113.989C268.003 126.704 245.198 144.686 226.8 130.77C226.371 130.404 225.954 130.063 225.36 130.568C220.663 134.622 215.915 138.612 211.281 142.741C205.939 147.615 201.179 153.108 196.317 158.475C194.613 160.849 189.334 155.444 189.208 154.169ZM277.247 107.195C278.055 106.336 278.901 105.516 279.684 104.632C280.252 103.988 279.658 102.977 278.838 103.167C258.381 108.054 234.452 123.876 233.985 124.204C233.429 124.583 233.518 125.454 234.137 125.732C249.264 132.614 266.564 116.83 277.209 107.245C277.221 107.233 277.234 107.22 277.247 107.195Z" fill="#30308F"/>
<path d="M484.349 126.289C483.907 125.241 483.44 124.345 482.114 123.991C472.277 121.453 466.178 120.064 452.137 119.862C432.956 119.597 413.876 120.872 394.871 123.385C391.689 123.802 389.252 120.607 390.515 117.652C391.424 115.531 392.346 113.422 393.268 111.238C394.215 109.356 394.303 107.475 394.139 105.543C394 103.952 393.394 102.436 392.422 101.173C389.682 97.5873 386.449 94.4052 383.772 90.7685C383.014 89.7331 382.749 88.4072 383.115 87.1823C383.532 85.7807 384.227 84.379 384.34 82.99C385.931 72.1052 367.52 69.1756 370.235 81.6768C371.107 86.5636 376.132 88.786 373.38 90.617C355.537 105.58 316.935 136.884 292.968 131.833C291.099 131.719 290.645 130.014 290.872 128.398C291.162 126.416 296.011 119.66 297.35 120.178C309.497 123.802 322.074 117.551 332.277 111.313C337.152 108.232 341.685 104.697 346.092 100.984C347.392 99.8981 347.405 98.3702 347.317 96.8802C346.9 89.8467 340.649 87.0813 334.31 88.2809C320.445 89.7709 277.651 115.215 283.775 133.032C284.672 135.634 286.844 137.578 289.458 138.424C316.241 147.162 358.593 110.341 377.307 94.4557C378.191 93.2056 379.542 96.5519 380.236 97.1453C381.575 99.494 386.436 103.535 385.754 106.01C383.785 112.993 379.011 119.041 377.332 126.138C376.94 128.992 379.289 132.376 381.057 133.386C381.928 133.891 383.684 133.992 385.073 133.79C392.308 132.755 399.531 131.681 406.779 130.734C420.492 129.168 434.799 128.12 448.172 128.398C454.006 128.524 469.664 128.247 469.664 131.454C469.664 133.79 469.209 134.384 471.949 134.169C475.636 133.929 479.324 133.5 483.023 133.5C486.079 133.525 484.602 126.908 484.349 126.289ZM338.338 94.8345C339.955 94.784 340.662 96.8675 339.336 97.802C330.598 103.901 315.584 117.008 301.845 114.192C308.108 107.172 328.022 95.327 338.338 94.8345Z" fill="#30308F"/>
<path d="M66.1918 103.042C63.0349 101.856 60.2948 99.6457 58.7542 96.6404C54.322 88.0159 58.9184 80.8688 69.6896 77.8761C92.3937 70.3249 121.954 59.3643 144.898 69.542C146.78 70.3754 148.384 71.777 149.356 73.5828C155.152 84.3918 144.684 93.9129 131.867 95.9711C130.92 96.1227 129.96 95.6428 129.493 94.7968C127.675 91.5516 127.599 88.0411 129.076 86.9552C132.157 84.6949 139.544 83.9372 143.686 80.8056C144.153 80.4521 144.204 79.8081 143.825 79.3661C132.157 66.0442 83.3777 82.3714 64.7775 90.4782C57.1884 95.5544 98.6569 102.297 104.162 104.621C111.89 107.891 119.593 114.811 116.247 122.817C111.019 135.331 81.6983 136.682 66.457 138.765C50.2055 140.988 33.8277 142.137 17.4752 143.488C9.0906 144.864 -2.62764 145.988 1.29949 134.194C1.53941 133.462 2.01925 132.805 2.63799 132.363C6.28732 129.749 12.8031 130.722 15.4422 133.765C39.7374 132.224 64.0199 129.484 87.9867 125.229C138.509 117.072 87.027 110.884 66.1918 103.042Z" fill="#30308F"/>
<path d="M188.728 150.013C188.475 147.31 191.114 145.29 192.794 143.207C201.747 132.057 210.914 121.146 220.397 110.489C221.041 109.757 220.195 108.671 219.324 109.113C209.538 114.189 199.802 119.669 189.612 124.013C184.333 126.147 178.651 129.935 173.411 125.831C173.36 125.793 173.31 125.743 173.259 125.692C169.433 121.601 170.506 118.735 172.426 114.972C172.83 114.189 171.971 113.368 171.201 113.797C158.813 120.932 146.072 127.599 132.7 132.89C130.642 133.711 128.482 133.963 126.399 133.395C125.01 133.016 123.835 132.094 123.015 130.907C121.133 128.142 118.923 125.212 120.931 121.942C127.422 110.464 138.382 102.256 148.168 93.6945C152.209 90.3229 156.427 87.1408 160.518 83.8451C161.288 83.2263 161.667 83.3652 162.172 84.1355C163.435 86.017 164.748 87.8606 166.049 89.7168C166.327 90.1083 166.238 90.6512 165.847 90.9291C156.881 97.4827 148.37 104.68 139.961 111.928C136.362 115.262 132.662 118.684 129.455 122.371C128.179 125.831 132.119 123.811 133.697 123.255C156.439 114.719 177.009 101.284 196.077 86.3958C197.087 85.9033 198.223 83.6304 199.259 85.1331C200.37 86.7873 201.532 88.4162 202.681 90.0451C203.237 90.828 203.123 91.9014 202.416 92.558C194.17 100.286 186.253 108.772 179.977 118.179C178.941 121.033 184.952 118.432 185.419 118.166C204.626 108.241 222.089 95.2603 241.409 85.5877C243.354 84.6406 243.947 84.8805 245.261 86.6357C246.17 87.8353 247.028 89.0602 247.9 90.2851C248.468 91.0806 248.392 92.1665 247.71 92.861C243.089 97.6847 238.555 102.609 234.098 107.585C233.429 108.342 234.338 109.453 235.209 108.923C249.339 100.336 264.454 93.3283 280.769 90.0199C284.507 89.1486 288.055 92.0655 289.166 95.2729C291.351 101.637 285.631 105.741 281.325 109.832C267.523 122.548 244.718 140.529 226.32 126.614C225.89 126.248 225.473 125.907 224.88 126.412C220.183 130.465 215.435 134.456 210.8 138.585C205.459 143.459 200.698 148.952 195.837 154.319C194.132 156.693 188.841 151.288 188.728 150.013ZM276.766 103.039C277.574 102.18 278.42 101.359 279.203 100.475C279.771 99.8314 279.178 98.8212 278.357 99.0106C257.901 103.897 233.972 119.72 233.505 120.048C232.949 120.427 233.037 121.298 233.656 121.576C248.784 128.458 266.083 112.673 276.728 103.089C276.741 103.077 276.753 103.064 276.766 103.039Z" fill="#EA2427"/>
<path d="M483.857 122.145C483.415 121.097 482.948 120.2 481.622 119.847C471.785 117.309 465.686 115.92 451.645 115.718C432.464 115.452 413.384 116.728 394.379 119.241C391.197 119.657 388.76 116.463 390.023 113.508C390.932 111.386 391.854 109.278 392.776 107.093C393.723 105.212 393.811 103.33 393.647 101.398C393.508 99.807 392.902 98.2917 391.93 97.029C389.189 93.4428 385.957 90.2607 383.28 86.624C382.522 85.5885 382.257 84.2627 382.623 83.0378C383.04 81.6362 383.734 80.2345 383.848 78.8455C385.439 67.9607 367.028 65.0311 369.743 77.5322C370.614 82.4191 375.64 84.6415 372.887 86.4724C355.045 101.436 316.443 132.739 292.476 127.688C290.607 127.575 290.153 125.87 290.38 124.254C290.67 122.271 295.519 115.515 296.858 116.033C309.005 119.657 321.582 113.407 331.785 107.169C336.659 104.088 341.193 100.552 345.6 96.8395C346.9 95.7536 346.913 94.2257 346.824 92.7356C346.408 85.7022 340.157 82.9368 333.818 84.1364C319.953 85.6264 277.159 111.071 283.283 128.888C284.18 131.489 286.352 133.434 288.966 134.28C315.748 143.018 358.101 106.196 376.815 90.3112C377.698 89.0611 379.05 92.4073 379.744 93.0008C381.083 95.3495 385.944 99.3903 385.262 101.865C383.292 108.848 378.519 114.897 376.84 121.993C376.448 124.847 378.797 128.231 380.565 129.241C381.436 129.747 383.191 129.848 384.58 129.646C391.816 128.61 399.039 127.537 406.287 126.59C420 125.024 434.307 123.976 447.68 124.254C453.513 124.38 469.171 124.102 469.171 127.309C469.171 129.646 468.717 130.239 471.457 130.024C475.144 129.784 478.831 129.355 482.531 129.355C485.6 129.368 484.122 122.751 483.857 122.145ZM337.859 90.6774C339.475 90.6269 340.182 92.7104 338.856 93.6448C330.118 99.7438 315.104 112.851 301.366 110.035C307.616 103.014 327.542 91.1698 337.859 90.6774Z" fill="#EA2427"/>
<path d="M65.7119 98.8862C62.5551 97.6993 59.8149 95.4895 58.2744 92.4841C53.8422 83.8596 58.4385 76.7125 69.2097 73.7198C91.9138 66.1686 121.475 55.208 144.431 65.3857C146.313 66.2191 147.904 67.6082 148.876 69.4265C154.685 80.2356 144.217 89.7566 131.387 91.8149C130.44 91.9664 129.48 91.4866 129.013 90.6405C127.195 87.3953 127.119 83.8849 128.596 82.7989C131.678 80.5386 139.065 79.781 143.206 76.6494C143.674 76.2958 143.724 75.6518 143.345 75.2099C131.678 61.8879 82.8979 78.2152 64.2977 86.322C56.7086 91.3982 98.177 98.1412 103.683 100.465C111.411 103.735 119.113 110.655 115.767 118.661C110.539 131.175 81.2184 132.526 65.9771 134.609C49.7256 136.832 33.3479 137.981 16.9954 139.332C8.59812 140.708 -3.1075 141.832 0.81963 130.038C1.05955 129.306 1.53939 128.649 2.15814 128.207C5.80746 125.593 12.3232 126.566 14.9623 129.609C39.2575 128.068 63.54 125.328 87.5069 121.073C138.029 112.915 86.5472 106.728 65.7119 98.8862Z" fill="#EC2024"/>
<path d="M25.7103 46.0684C11.0487 46.0634 1.25195 35.6732 1.25195 23.0752C1.25195 10.4773 11.0711 -0.0322089 25.688 7.41949e-05H163.816C178.433 -0.0322125 188.252 10.4773 188.252 23.0752C188.252 35.6732 178.455 46.0634 163.794 46.0684H25.7103Z" fill="#E60012"/>
<path d="M25.7552 5.66797C14.1481 5.69032 7.02344 13.4482 7.02344 23.0463C7.02344 32.6419 14.1034 40.4644 25.7552 40.4222H163.749C175.401 40.462 182.483 32.6419 182.483 23.0463C182.483 13.4507 175.359 5.6928 163.752 5.67045L25.7552 5.66797Z" fill="white"/>
<path fill-rule="evenodd" clip-rule="evenodd" d="M167.752 15.6618C167.752 13.8192 169.247 12.3242 171.09 12.3242C172.932 12.3242 174.427 13.8192 174.427 15.6618C174.427 17.5045 172.932 18.9994 171.09 18.9994C169.247 18.9994 167.752 17.5045 167.752 15.6618ZM171.089 18.3638C172.579 18.3638 173.789 17.1544 173.789 15.6644C173.789 14.1719 172.579 12.965 171.089 12.965C169.599 12.965 168.39 14.1744 168.39 15.6644C168.39 17.1544 169.599 18.3638 171.089 18.3638Z" fill="#E60012"/>
<path fill-rule="evenodd" clip-rule="evenodd" d="M172.75 14.8349C172.75 14.1271 172.226 13.7695 171.171 13.7695H169.721V17.4672H170.622V15.9524H171.062L171.769 17.4672H172.77L171.943 15.8158C172.447 15.6891 172.75 15.3216 172.75 14.8349ZM171.062 15.4112H170.622V14.3359H171.017C171.559 14.3359 171.824 14.5023 171.824 14.8872C171.824 15.2548 171.576 15.4112 171.062 15.4112Z" fill="#E60012"/>
<path fill-rule="evenodd" clip-rule="evenodd" d="M100.613 29.6694C100.613 28.8598 100.608 28.7953 100.608 28.7953L107.104 28.7902C105.969 32.1949 102.252 34.7055 97.8511 34.7055C92.5467 34.7055 88.248 31.0824 88.248 26.6099C88.248 22.1374 92.5467 18.5117 97.8511 18.5117C103.155 18.5117 107.474 22.2169 107.474 26.6893C107.474 26.6969 95.189 26.6919 95.189 26.6919C95.189 26.6919 95.184 28.8797 95.184 29.6694C95.184 32.3067 96.9496 32.8928 97.9132 32.8928C98.8767 32.8928 100.613 32.3067 100.613 29.6694ZM95.621 21.6183C95.2063 22.3385 95.179 23.1828 95.1889 24.4469L100.63 24.4493C100.64 23.1853 100.622 22.341 100.208 21.6183C99.6989 20.7298 98.7633 20.3076 97.9144 20.3022C97.9148 20.3022 97.9152 20.3022 97.9156 20.3022H97.9131C97.9135 20.3022 97.9139 20.3022 97.9144 20.3022C97.0654 20.3076 96.1299 20.7298 95.621 21.6183Z" fill="#E60012"/>
<path d="M121.127 18.7522C123.566 18.6826 128.513 20.2794 128.478 25.9886C128.473 27.0018 128.475 33.8359 128.475 33.8359H121.996C121.996 33.8359 121.996 25.2659 121.996 24.3645C121.996 23.1079 120.795 21.7098 119.016 21.7098C117.241 21.7098 115.92 23.1079 115.92 24.3645C115.92 24.9804 115.927 33.8359 115.927 33.8359H109.453L109.458 19.4152L115.93 19.4102C115.93 19.4102 115.922 20.57 115.93 20.9276C117.176 19.738 118.974 18.8142 121.127 18.7522L121.127 18.7522Z" fill="#E60012"/>
<path d="M68.1279 18.7522C70.5666 18.6826 75.5134 20.2794 75.4786 25.9886C75.4737 27.0018 75.4761 33.8359 75.4761 33.8359H68.997C68.997 33.8359 68.997 25.2659 68.997 24.3645C68.997 23.1079 67.7951 21.7098 66.017 21.7098C64.2415 21.7098 62.9203 23.1079 62.9203 24.3645C62.9203 24.9804 62.9278 33.8359 62.9278 33.8359H56.4537L56.4512 19.4152L62.9302 19.4102C62.9302 19.4102 62.9227 20.57 62.9302 20.9276C64.1768 19.738 65.9723 18.8142 68.1278 18.7522L68.1279 18.7522Z" fill="#E60012"/>
<path fill-rule="evenodd" clip-rule="evenodd" d="M148.971 12.1523H142.534H142.534C142.534 12.1523 142.534 16.7937 142.539 20.1313C141.496 19.5452 140.396 18.9815 138.848 18.8449C134.148 18.4327 130.557 22.5898 130.557 26.3967C130.557 31.4156 134.428 33.2731 135.017 33.5463C137.209 34.5694 140.026 34.5719 142.521 33.0049C142.521 33.139 142.524 33.8393 142.524 33.8393H148.971V12.1523ZM142.581 23.9781V26.5558H142.581C142.581 26.5558 142.583 28.1874 142.583 29.1137C142.583 31.3412 141.041 31.9248 140.026 31.9248C138.99 31.9248 137.47 31.3412 137.47 29.1137C137.47 28.3463 137.473 26.5484 137.473 26.5484C137.473 26.5484 137.47 24.7182 137.47 23.9781C137.47 21.7481 138.99 21.1794 140.028 21.1794C141.041 21.1794 142.581 21.7481 142.581 23.9781Z" fill="#E60012"/>
<path fill-rule="evenodd" clip-rule="evenodd" d="M151.094 26.5317C151.094 22.0593 155.36 18.4336 160.625 18.4336C165.889 18.4336 170.156 22.0593 170.156 26.5317C170.156 31.0042 165.889 34.6299 160.625 34.6299C155.363 34.6299 151.094 31.0042 151.094 26.5317ZM163.242 29.569C163.242 28.6948 163.245 26.5145 163.245 26.5145L163.247 26.5219C163.241 26.0515 163.242 24.895 163.242 24.0092C163.242 23.8054 163.242 23.616 163.242 23.4525C163.242 21.1629 161.879 20.2217 160.578 20.2217C159.279 20.2217 157.913 21.1629 157.913 23.4525C157.913 24.3267 157.908 26.4598 157.908 26.4598C157.908 26.4598 157.906 28.6948 157.906 29.569C157.906 31.8685 159.269 32.8172 160.578 32.8172C161.884 32.8172 163.242 31.8685 163.242 29.569Z" fill="#E60012"/>
<path d="M46.3242 16.5812V12.1484H52.8604V16.5812H46.3242Z" fill="#E60012"/>
<path d="M46.3398 33.8412V19.418L52.8611 19.4205V33.8412L46.3398 33.8412Z" fill="#E60012"/>
<path d="M79.0573 33.8398L79.0599 19.4464H75.5137V17.3058L79.0624 17.3032L79.0574 14.3828H85.5836V17.3007H89.1149V19.4463H85.5836L85.5886 33.8397L79.0573 33.8398Z" fill="#E60012"/>
<path d="M19.7988 33.8393L19.8013 12.1523H26.5585L35.9057 27.2758L35.9008 12.1523H42.6058V33.8393H35.9107L26.5138 18.7158V33.8393H19.7988Z" fill="#E60012"/>
</svg>
