<svg width="485" height="234" viewBox="0 0 485 234" fill="none" xmlns="http://www.w3.org/2000/svg">
<path d="M454.495 227.228H455.215C456.061 227.228 456.452 226.988 456.452 226.369C456.452 225.725 456.023 225.46 455.139 225.46H454.495V227.228ZM459.685 227.644C459.685 230.069 457.703 232.051 455.265 232.051C452.828 232.051 450.833 230.069 450.833 227.644C450.833 225.195 452.828 223.212 455.265 223.212C457.703 223.212 459.685 225.207 459.685 227.644ZM455.253 222.164C452.222 222.164 449.785 224.614 449.785 227.644C449.785 230.65 452.222 233.112 455.253 233.112C458.271 233.112 460.733 230.662 460.733 227.644C460.733 224.614 458.283 222.164 455.253 222.164ZM455.404 224.538C457.109 224.538 457.993 225.132 457.993 226.281C457.993 227.076 457.488 227.67 456.654 227.884L458.018 230.587H456.389L455.228 228.112H454.508V230.587H453.03V224.525H455.404V224.538Z" fill="white"/>
<path d="M104.752 191.315L101.684 175.454L94.5996 191.302H104.752M215.949 231.571H199.18L196.945 181.048L175.137 231.571H163.949L154.618 185.897L140.084 231.571H111.558L107.265 207.149H87.8819L76.8834 231.571H59.3691L95.3447 149.922H116.041L127.039 215.913L148.481 149.922H165.073L173.268 194.661L192.285 149.922H212.413L215.949 231.571Z" fill="white"/>
<path d="M264.048 231.571L266.852 214.056H237.581L239.905 199.51H265.362L268.152 181.983H242.43L244.665 167.449H273.936L276.726 149.922H230.308L217.264 231.571H264.048Z" fill="white"/>
<path d="M481.971 149.922H462.399L445.806 176.578L435.364 149.922H416.17L435.932 192.981L429.845 231.571H446.615L451.767 197.464L481.971 149.922Z" fill="white"/>
<path d="M382.355 216.027C391.232 220.005 402.091 212.214 406.612 198.627C411.132 185.039 407.622 170.808 398.745 166.843C389.868 162.878 379.008 170.67 374.488 184.244C369.954 197.831 373.49 212.062 382.355 216.027ZM356.961 183.726C362.163 161.161 381.458 146.336 400.058 150.642C418.646 154.936 429.493 176.718 424.29 199.283C419.075 221.861 399.78 236.673 381.193 232.38C362.605 228.074 351.758 206.304 356.961 183.726Z" fill="white"/>
<path d="M23.5711 157.194C7.59743 167.082 -0.092664 182.171 1.95298 202.678C4.32693 226.468 35.1378 241.457 61.2261 226.355C63.5116 225.029 62.6151 225.243 63.4611 224.486L68.6763 191.314H37.5623L35.1757 206.593H48.182L46.6919 214.801C39.2417 217.793 26.5638 216.669 21.1467 206.972C17.7246 200.835 14.5551 187.134 28.9757 174.532C40.7192 164.278 61.0367 162.422 72.7802 167.827C72.7802 167.827 74.2702 159.24 75.394 151.222C52.8415 143.405 35.3146 149.921 23.5711 157.194Z" fill="white"/>
<path d="M302.258 150.388L289.303 231.418C289.303 231.418 316.123 231.418 327.046 231.418C342.59 231.418 365.307 208.512 344.623 189.785C365.901 167.776 344.813 150.564 333.524 150.388C324.457 150.236 302.069 150.388 302.069 150.388H302.258ZM311.514 199.407C311.514 199.407 315.025 199.407 325.569 199.407C338.891 199.407 338.524 215.684 323.725 215.684C314.469 215.684 308.926 215.684 308.926 215.684L311.514 199.407ZM316.692 167.586C316.692 167.586 317.058 167.586 327.602 167.586C339.446 167.586 337.034 182.764 325.745 182.764C316.49 182.764 314.09 182.764 314.09 182.764L316.692 167.586Z" fill="white"/>
<path d="M189.105 150.642C188.852 147.939 191.491 145.919 193.171 143.835C202.123 132.685 211.291 121.775 220.774 111.118C221.418 110.385 220.572 109.299 219.701 109.741C209.915 114.818 200.179 120.298 189.989 124.642C184.71 126.776 179.028 130.564 173.788 126.46C173.737 126.422 173.687 126.372 173.636 126.321C169.81 122.23 170.883 119.363 172.803 115.601C173.207 114.818 172.348 113.997 171.578 114.426C159.19 121.561 146.449 128.228 133.077 133.519C131.018 134.34 128.859 134.592 126.776 134.024C125.387 133.645 124.212 132.723 123.392 131.536C121.51 128.771 119.3 125.841 121.308 122.571C127.799 111.093 138.759 102.885 148.545 94.3234C152.586 90.9518 156.804 87.7697 160.895 84.474C161.665 83.8552 162.044 83.9941 162.549 84.7644C163.812 86.6459 165.125 88.4895 166.426 90.3457C166.704 90.7372 166.615 91.2802 166.224 91.558C157.258 98.1116 148.747 105.309 140.338 112.557C136.739 115.891 133.039 119.313 129.832 123C128.556 126.46 132.496 124.44 134.074 123.884C156.816 115.348 177.386 101.912 196.454 87.0247C197.464 86.5323 198.6 84.2593 199.636 85.762C200.747 87.4162 201.909 89.0451 203.058 90.674C203.614 91.4569 203.5 92.5303 202.793 93.1869C194.547 100.915 186.63 109.4 180.354 118.808C179.318 121.662 185.329 119.06 185.796 118.795C205.003 108.87 222.466 95.8892 241.786 86.2166C243.731 85.2695 244.324 85.5094 245.638 87.2646C246.547 88.4642 247.405 89.6891 248.277 90.914C248.845 91.7095 248.769 92.7954 248.087 93.49C243.466 98.3136 238.932 103.238 234.475 108.214C233.806 108.971 234.715 110.082 235.586 109.552C249.716 100.965 264.831 93.9572 281.146 90.6488C284.884 89.7775 288.432 92.6944 289.543 95.9018C291.728 102.266 286.007 106.37 281.702 110.461C267.9 123.177 245.095 141.158 226.696 127.243C226.267 126.877 225.85 126.536 225.257 127.041C220.56 131.094 215.812 135.085 211.177 139.214C205.836 144.088 201.075 149.581 196.214 154.948C194.509 157.321 189.218 151.917 189.105 150.642ZM277.143 103.668C277.951 102.809 278.797 101.988 279.58 101.104C280.148 100.46 279.555 99.4501 278.734 99.6395C258.278 104.526 234.349 120.348 233.881 120.677C233.326 121.056 233.414 121.927 234.033 122.205C249.161 129.087 266.46 113.302 277.105 103.718C277.118 103.706 277.13 103.693 277.143 103.668Z" fill="white"/>
<path d="M484.234 122.774C483.792 121.726 483.325 120.829 481.999 120.476C472.162 117.937 466.063 116.548 452.022 116.346C432.84 116.081 413.76 117.357 394.756 119.869C391.574 120.286 389.137 117.091 390.4 114.137C391.309 112.015 392.231 109.906 393.153 107.722C394.1 105.84 394.188 103.959 394.024 102.027C393.885 100.436 393.279 98.9206 392.306 97.6579C389.566 94.0717 386.334 90.8896 383.657 87.2529C382.899 86.2174 382.634 84.8916 383 83.6667C383.417 82.2651 384.111 80.8634 384.225 79.4744C385.816 68.5896 367.405 65.66 370.12 78.1612C370.991 83.048 376.017 85.2704 373.264 87.1014C355.422 102.065 316.82 133.368 292.853 128.317C290.984 128.204 290.529 126.499 290.757 124.883C291.047 122.9 295.896 116.144 297.235 116.662C309.382 120.286 321.959 114.036 332.162 107.798C337.036 104.717 341.57 101.181 345.976 97.4685C347.277 96.3825 347.29 94.8546 347.201 93.3645C346.785 86.3311 340.534 83.5657 334.195 84.7653C320.33 86.2553 277.536 111.7 283.66 129.517C284.557 132.118 286.729 134.063 289.343 134.909C316.125 143.647 358.478 106.825 377.191 90.9401C378.075 89.69 379.427 93.0362 380.121 93.6297C381.46 95.9784 386.321 100.019 385.639 102.494C383.669 109.477 378.896 115.526 377.217 122.622C376.825 125.476 379.174 128.86 380.942 129.87C381.813 130.375 383.568 130.476 384.957 130.274C392.193 129.239 399.416 128.166 406.664 127.219C420.377 125.653 434.684 124.605 448.057 124.883C453.89 125.009 469.548 124.731 469.548 127.938C469.548 130.274 469.094 130.868 471.834 130.653C475.521 130.413 479.208 129.984 482.908 129.984C485.977 129.997 484.499 123.38 484.234 122.774ZM338.236 91.3063C339.852 91.2558 340.559 93.3393 339.233 94.2737C330.495 100.373 315.481 113.48 301.743 110.664C307.993 103.643 327.919 91.7987 338.236 91.3063Z" fill="white"/>
<path d="M66.0889 99.5151C62.932 98.3282 60.1919 96.1184 58.6513 93.1131C54.2191 84.4885 58.8155 77.3414 69.5867 74.3487C92.2908 66.7975 121.852 55.837 144.808 66.0146C146.69 66.8481 148.281 68.2371 149.253 70.0554C155.062 80.8645 144.594 90.3855 131.764 92.4438C130.817 92.5953 129.857 92.1155 129.39 91.2695C127.572 88.0242 127.496 84.5138 128.973 83.4278C132.055 81.1675 139.442 80.4099 143.583 77.2783C144.051 76.9247 144.101 76.2807 143.722 75.8388C132.055 62.5169 83.2748 78.8441 64.6746 86.9509C57.0855 92.0271 98.554 98.7701 104.06 101.094C111.788 104.364 119.49 111.284 116.144 119.29C110.916 131.803 81.5954 133.155 66.3541 135.238C50.1026 137.46 33.7248 138.61 17.3723 139.961C8.97507 141.337 -2.73054 142.461 1.19658 130.667C1.4365 129.935 1.91635 129.278 2.53509 128.836C6.18441 126.222 12.7002 127.194 15.3393 130.238C39.6344 128.697 63.917 125.957 87.8838 121.701C138.406 113.544 86.9241 107.357 66.0889 99.5151Z" fill="white"/>
<path fill-rule="evenodd" clip-rule="evenodd" d="M0.414062 23.7041C0.414062 36.3021 10.2108 46.6923 24.8724 46.6973H162.956C177.617 46.6923 187.414 36.3021 187.414 23.7041C187.414 11.1062 177.595 0.596694 162.978 0.62898H24.8501C10.2332 0.596697 0.414062 11.1062 0.414062 23.7041ZM6.18555 23.6743C6.18555 14.0762 13.3102 6.31825 24.9173 6.2959L162.914 6.29838C174.521 6.32073 181.645 14.0787 181.645 23.6743C181.645 33.2699 174.563 41.0899 162.911 41.0502H24.9173C13.2655 41.0924 6.18555 33.2699 6.18555 23.6743Z" fill="white"/>
<path fill-rule="evenodd" clip-rule="evenodd" d="M166.914 16.2907C166.914 14.4481 168.409 12.9531 170.252 12.9531C172.094 12.9531 173.589 14.4481 173.589 16.2907C173.589 18.1334 172.094 19.6283 170.252 19.6283C168.409 19.6283 166.914 18.1334 166.914 16.2907ZM170.252 18.9927C171.742 18.9927 172.951 17.7833 172.951 16.2933C172.951 14.8008 171.742 13.5939 170.252 13.5939C168.762 13.5939 167.552 14.8033 167.552 16.2933C167.552 17.7833 168.762 18.9927 170.252 18.9927Z" fill="white"/>
<path fill-rule="evenodd" clip-rule="evenodd" d="M171.912 15.4638C171.912 14.756 171.388 14.3984 170.333 14.3984H168.883V18.0961H169.784V16.5813H170.224L170.932 18.0961H171.932L171.105 16.4447C171.61 16.3181 171.912 15.9505 171.912 15.4638ZM170.224 16.0401H169.784V14.9648H170.179C170.721 14.9648 170.986 15.1312 170.986 15.5161C170.986 15.8837 170.738 16.0401 170.224 16.0401Z" fill="white"/>
<path fill-rule="evenodd" clip-rule="evenodd" d="M99.7747 30.2983C99.7747 29.4888 99.7697 29.4242 99.7697 29.4242L106.266 29.4191C105.131 32.8238 101.414 35.3344 97.0132 35.3344C91.7088 35.3344 87.4102 31.7113 87.4102 27.2388C87.4102 22.7663 91.7088 19.1406 97.0132 19.1406C102.318 19.1406 106.636 22.8458 106.636 27.3182C106.636 27.3258 94.3511 27.3208 94.3511 27.3208C94.3511 27.3208 94.3461 29.5086 94.3461 30.2983C94.3461 32.9356 96.1118 33.5217 97.0753 33.5217C98.0388 33.5217 99.7747 32.9356 99.7747 30.2983ZM94.7832 22.2472C94.3684 22.9674 94.3411 23.8117 94.3511 25.0758L99.792 25.0782C99.8019 23.8142 99.7845 22.9699 99.3698 22.2472C98.861 21.3587 97.9254 20.9365 97.0765 20.9311C97.0769 20.9311 97.0773 20.9311 97.0778 20.9311H97.0752C97.0756 20.9311 97.0761 20.9311 97.0765 20.9311C96.2275 20.9365 95.292 21.3587 94.7832 22.2472Z" fill="white"/>
<path d="M120.289 19.3811C122.728 19.3115 127.675 20.9083 127.64 26.6175C127.635 27.6307 127.638 34.4648 127.638 34.4648H121.159C121.159 34.4648 121.159 25.8948 121.159 24.9934C121.159 23.7368 119.957 22.3387 118.179 22.3387C116.403 22.3387 115.082 23.7368 115.082 24.9934C115.082 25.6093 115.089 34.4648 115.089 34.4648H108.615L108.62 20.0441L115.092 20.0391C115.092 20.0391 115.084 21.1989 115.092 21.5565C116.338 20.3669 118.136 19.4431 120.289 19.3811L120.289 19.3811Z" fill="white"/>
<path d="M67.2901 19.3811C69.7287 19.3115 74.6755 20.9083 74.6407 26.6175C74.6358 27.6307 74.6382 34.4648 74.6382 34.4648H68.1592C68.1592 34.4648 68.1592 25.8948 68.1592 24.9934C68.1592 23.7368 66.9572 22.3387 65.1792 22.3387C63.4036 22.3387 62.0824 23.7368 62.0824 24.9934C62.0824 25.6093 62.0899 34.4648 62.0899 34.4648H55.6158L55.6133 20.0441L62.0923 20.0391C62.0923 20.0391 62.0848 21.1989 62.0923 21.5565C63.3389 20.3669 65.1344 19.4431 67.2899 19.3811L67.2901 19.3811Z" fill="white"/>
<path fill-rule="evenodd" clip-rule="evenodd" d="M148.133 12.7812H141.696H141.696C141.696 12.7812 141.696 17.4226 141.701 20.7602C140.658 20.1741 139.558 19.6104 138.011 19.4738C133.31 19.0616 129.719 23.2187 129.719 27.0257C129.719 32.0445 133.59 33.902 134.179 34.1752C136.372 35.1983 139.188 35.2008 141.683 33.6338C141.683 33.7679 141.686 34.4682 141.686 34.4682H148.133V12.7812ZM141.743 24.607V27.1847H141.743C141.743 27.1847 141.746 28.8163 141.746 29.7426C141.746 31.9701 140.203 32.5537 139.188 32.5537C138.152 32.5537 136.632 31.9701 136.632 29.7426C136.632 28.9752 136.635 27.1773 136.635 27.1773C136.635 27.1773 136.632 25.3471 136.632 24.607C136.632 22.377 138.152 21.8083 139.19 21.8083C140.203 21.8083 141.743 22.377 141.743 24.607Z" fill="white"/>
<path fill-rule="evenodd" clip-rule="evenodd" d="M150.256 27.1607C150.256 22.6882 154.522 19.0625 159.787 19.0625C165.052 19.0625 169.318 22.6882 169.318 27.1607C169.318 31.6331 165.052 35.2588 159.787 35.2588C154.525 35.2588 150.256 31.6331 150.256 27.1607ZM162.404 30.1979C162.404 29.3237 162.407 27.1434 162.407 27.1434L162.409 27.1508C162.403 26.6804 162.404 25.5239 162.404 24.6381C162.404 24.4343 162.404 24.2449 162.404 24.0814C162.404 21.7918 161.041 20.8506 159.74 20.8506C158.441 20.8506 157.075 21.7918 157.075 24.0814C157.075 24.9556 157.07 27.0887 157.07 27.0887C157.07 27.0887 157.068 29.3237 157.068 30.1979C157.068 32.4974 158.431 33.4461 159.74 33.4461C161.046 33.4461 162.404 32.4974 162.404 30.1979Z" fill="white"/>
<path d="M45.4863 17.2101V12.7773H52.0225V17.2101H45.4863Z" fill="white"/>
<path d="M45.502 34.4701V20.0469L52.0232 20.0494V34.4702L45.502 34.4701Z" fill="white"/>
<path d="M78.2194 34.4687L78.222 20.0753H74.6758V17.9347L78.2245 17.9321L78.2195 15.0117H84.7457V17.9296H88.277V20.0752H84.7457L84.7507 34.4686L78.2194 34.4687Z" fill="white"/>
<path d="M18.9609 34.4682L18.9634 12.7812H25.7206L35.0678 27.9048L35.0629 12.7812H41.7679V34.4682H35.0728L25.6759 19.3447V34.4682H18.9609Z" fill="white"/>
</svg>
