<svg width="527" height="198" viewBox="0 0 527 198" fill="none" xmlns="http://www.w3.org/2000/svg">
<path d="M5.46238 121.105L125.898 0.669556H140.688V83.0728L223.091 0.669556H237.882V121.105H216.753V36.5889L132.237 121.105H117.446V36.5889L32.9301 121.105H5.46238ZM525.237 0.669556H512.559L478.753 34.476V47.1534H504.108V121.105H525.237V0.669556ZM351.979 0.669556H273.801C260.595 0.669556 250.559 17.0446 250.559 30.2502V42.9276C250.559 56.1333 260.595 72.5083 273.801 72.5083H318.172C328.737 72.5083 330.849 79.9034 330.849 85.1857C330.849 90.4679 328.737 97.8631 318.172 97.8631H250.559V121.105H328.737C341.942 121.105 351.979 104.73 351.979 91.5244V78.847C351.979 65.6413 341.942 49.2663 328.737 49.2663H284.366C273.801 49.2663 271.688 41.8712 271.688 36.5889C271.688 31.3067 273.801 23.9115 284.366 23.9115H351.979V0.669556ZM385.785 82.5446C385.785 95.7502 393.708 99.976 401.632 99.976H429.1C437.023 99.976 444.946 95.7502 444.946 82.5446V0.669556H468.188V91.5244C468.188 107.371 461.321 121.105 442.833 121.105H387.898C369.41 121.105 362.543 107.371 362.543 91.5244V0.669556H385.785V82.5446ZM526.293 131.67V146.46H1.23657V131.67H526.293ZM364.128 187.133C364.128 192.416 359.902 197.17 354.62 197.17H344.583C339.301 197.17 335.075 192.416 335.075 187.133V166.532C335.075 161.25 339.301 156.496 344.583 156.496H354.62C359.902 156.496 364.128 161.25 364.128 166.532C364.128 166.532 364.038 170.695 364.128 171.815H352.507C352.507 166.532 352.507 164.948 350.13 164.948C347.753 164.948 347.753 166.532 347.753 171.815V181.323C347.753 186.605 347.753 188.19 350.146 188.19C352.507 188.19 352.507 186.605 352.507 181.323H364.128C364.128 183.599 364.128 187.133 364.128 187.133ZM18.668 156.496L23.6756 177.097L28.7043 156.496H44.5511V196.641H32.9301V172.343L26.0632 196.641H21.3092L14.4422 172.343V196.641H2.82125V156.496H18.668ZM72.0188 156.496V165.476H60.9261V171.815H70.4342V180.795H60.9261V187.661H72.0188V196.641H48.2487V156.496H72.0188ZM75.1882 196.641V156.496C77.8346 156.496 90.5067 156.496 90.5067 156.496C104.241 156.496 104.241 166.004 104.241 166.004V187.133C104.241 187.133 104.241 196.641 93.6761 196.641H75.1882ZM120.616 156.496V196.641H107.938V156.496H120.616ZM131.18 156.496H148.612L156.535 196.641H143.858L142.801 189.246H136.991L135.934 196.641H123.257L131.18 156.496ZM183.474 180.795V187.661H194.567V196.641H170.797V156.496H194.567V165.476H183.474V171.815H192.983V180.795H183.474ZM209.886 156.496L216.753 176.569V156.496H228.374V196.641H216.753L208.829 174.984V196.641H197.208V156.496H209.886ZM244.749 196.641H232.071V156.496H244.749V171.815H250.031V156.496H262.708V196.641H250.031V180.795H244.749V196.641ZM273.273 156.496H290.704L298.628 196.641H285.95L284.894 189.246H279.083L278.027 196.641H265.349L273.273 156.496ZM312.362 174.984V196.641H300.741V156.496H313.418L320.285 176.569V156.496H331.906V196.641H320.285L312.362 174.984ZM379.974 180.795V187.661H391.067V196.641H367.297V156.496H391.067V165.476H379.974V171.815H389.483V180.795H379.974ZM409.027 156.496L414.589 177.097L420.12 156.496H435.438V196.641H423.817V172.343L416.95 196.641H412.196L405.329 172.871V196.641H393.708V156.496H409.027ZM462.906 156.496V165.476H451.813V171.815H461.321V180.795H451.813V187.661H462.906V196.641H439.136V156.496H462.906ZM478.225 156.496L485.091 176.569V156.496H496.712V196.641H485.091L477.168 174.984V196.641H465.547V156.496H478.225ZM525.765 156.496V165.476H518.898V196.641H506.22V165.476H499.354V156.496H525.765ZM92.6196 171.815C92.6408 166.522 91.5632 165.476 87.3374 165.476V187.661C91.5632 187.661 92.6196 186.605 92.6196 181.323V171.815ZM138.047 180.266H141.745L139.88 164.948L138.047 180.266ZM280.14 180.266H283.837L281.994 164.948L280.14 180.266Z" fill="white" stroke="white" stroke-width="0.528226"/>
<path d="M1.23657 139.066V131.671H263.765H526.293V139.066V146.461H263.765H1.23657V139.066Z" fill="white" stroke="white" stroke-width="0.852201"/>
</svg>
